<svg xmlns="http://www.w3.org/2000/svg" viewBox="0 0 33.2433 29.5325" width="27.0157" height="24.0000">
  <g fill="black" stroke="black" stroke-width="0.25">
    <path d="M586 5 1487 459V1524H1848V459L2748 5L2567 -305L1667 149L768 -305ZM269 -234 473 240Q509 323 569.5 356.5Q630 390 694.0 369.5Q758 349 803 272L1107 -257Q1153 -336 1139.0 -402.0Q1125 -468 1065.0 -503.5Q1005 -539 914 -528L403 -467Q305 -455 267.5 -389.5Q230 -324 269 -234ZM3066 -234Q3105 -324 3067.5 -389.5Q3030 -455 2932 -467L2421 -528Q2330 -539 2270.0 -503.5Q2210 -468 2196.0 -402.0Q2182 -336 2228 -257L2532 272Q2577 349 2640.5 369.5Q2704 390 2765.0 356.5Q2826 323 2862 240ZM1531 1909Q1590 1989 1665.5 1989.5Q1741 1990 1801 1910L2109 1497Q2165 1423 2164.0 1353.5Q2163 1284 2112.5 1239.0Q2062 1194 1970 1194H1362Q1271 1194 1221.5 1239.5Q1172 1285 1170.5 1355.0Q1169 1425 1224 1499Z" transform="translate(-2.9193,23.3145) scale(0.011719,-0.011719)"/>
  </g>
</svg>
