<svg xmlns="http://www.w3.org/2000/svg" viewBox="0 0 30.9806 27.5560" width="26.9827" height="24.0000">
  <g fill="black" stroke="black" stroke-width="0.25">
    <path d="M1459 -282 595 218Q513 266 486.5 337.5Q460 409 487.5 480.5Q515 552 595 599L1459 1099Q1548 1151 1632.0 1150.0Q1716 1149 1804 1099L2670 599Q2748 554 2775.0 482.0Q2802 410 2776.5 337.5Q2751 265 2670 218L1804 -282Q1716 -332 1632.0 -333.0Q1548 -334 1459 -282ZM537 -445Q483 -476 423.0 -460.0Q363 -444 331 -390Q300 -336 316.5 -275.0Q333 -214 386 -183Q440 -152 501.0 -168.5Q562 -185 593 -239Q624 -293 607.5 -353.5Q591 -414 537 -445ZM841 -270Q787 -301 726.5 -284.5Q666 -268 634 -214Q603 -160 620.0 -100.0Q637 -40 691 -9Q744 22 804.5 6.0Q865 -10 896 -63Q927 -117 911.0 -178.0Q895 -239 841 -270ZM1595 -40Q1615 -51 1631.5 -51.0Q1648 -51 1668 -40L2410 388Q2426 397 2425.5 408.5Q2425 420 2410 428L1668 856Q1648 868 1631.5 868.0Q1615 868 1595 856L856 428Q840 419 840.0 408.0Q840 397 856 388ZM1222 26 995 196 2094 865 2298 682ZM2085 12 1005 638 1205 830 2330 177ZM2424 -270Q2370 -239 2354.0 -178.0Q2338 -117 2369 -63Q2401 -10 2461.0 6.0Q2521 22 2575 -9Q2629 -40 2645.5 -100.0Q2662 -160 2631 -214Q2600 -268 2539.0 -284.5Q2478 -301 2424 -270ZM2728 -445Q2675 -414 2658.0 -353.5Q2641 -293 2672 -239Q2704 -185 2764.5 -168.5Q2825 -152 2879 -183Q2933 -214 2949.0 -275.0Q2965 -336 2934 -390Q2903 -444 2842.5 -460.0Q2782 -476 2728 -445ZM1633 1234Q1570 1234 1526.0 1278.0Q1482 1322 1482 1385Q1482 1447 1526.0 1491.0Q1570 1535 1633 1535Q1695 1535 1739.0 1491.0Q1783 1447 1783 1385Q1783 1322 1739.0 1278.0Q1695 1234 1633 1234ZM1633 1585Q1570 1585 1526.0 1629.0Q1482 1673 1482 1735Q1482 1798 1526.0 1842.0Q1570 1886 1633 1886Q1695 1886 1739.0 1842.0Q1783 1798 1783 1735Q1783 1673 1739.0 1629.0Q1695 1585 1633 1585Z" transform="translate(-3.6418,22.1016) scale(0.011719,-0.011719)"/>
  </g>
</svg>
