<svg xmlns="http://www.w3.org/2000/svg" viewBox="0 0 41.6016 28.9805" width="34.4521" height="24.0000">
  <g fill="black" stroke="black" stroke-width="0.25">
    <path d="M806 784Q666 784 554.0 858.0Q442 932 376.5 1059.0Q311 1186 311 1345Q311 1504 376.5 1630.5Q442 1757 554.0 1831.0Q666 1905 806 1905Q941 1905 1049.5 1831.0Q1158 1757 1221.5 1630.5Q1285 1504 1285 1345Q1285 1186 1221.5 1059.0Q1158 932 1049.5 858.0Q941 784 806 784ZM632 1103Q693 1103 734.5 1173.0Q776 1243 776 1345Q776 1446 734.5 1516.0Q693 1586 632 1586Q573 1586 531.5 1516.0Q490 1446 490 1345Q490 1243 531.5 1173.0Q573 1103 632 1103ZM1322 1873Q1461 1873 1581.5 1821.5Q1702 1770 1793.0 1678.5Q1884 1587 1935.5 1466.5Q1987 1346 1987 1208Q1987 1055 1924.5 925.0Q1862 795 1755 702Q1724 673 1694.0 642.0Q1664 611 1645 582Q1620 546 1606.5 508.0Q1593 470 1587.0 426.5Q1581 383 1581 329V-385Q1581 -469 1528.5 -518.5Q1476 -568 1387 -568H1258Q1169 -568 1116.5 -518.5Q1064 -469 1064 -385V329Q1064 383 1058.0 426.5Q1052 470 1038.0 508.0Q1024 546 1000 582Q991 595 979.5 609.5Q968 624 955 637Q1102 672 1214.5 772.5Q1327 873 1390.5 1020.5Q1454 1168 1454 1345Q1454 1502 1403.0 1637.0Q1352 1772 1263 1871Q1277 1872 1292.5 1872.5Q1308 1873 1322 1873ZM3367 784Q3231 784 3122.5 858.0Q3014 932 2951.0 1059.0Q2888 1186 2888 1345Q2888 1504 2951.0 1630.5Q3014 1757 3122.5 1831.0Q3231 1905 3367 1905Q3507 1905 3619.0 1831.0Q3731 1757 3796.0 1630.5Q3861 1504 3861 1345Q3861 1186 3796.0 1059.0Q3731 932 3619.0 858.0Q3507 784 3367 784ZM3540 1103Q3600 1103 3641.5 1173.0Q3683 1243 3683 1345Q3683 1446 3641.5 1516.0Q3600 1586 3540 1586Q3480 1586 3438.0 1516.0Q3396 1446 3396 1345Q3396 1243 3438.0 1173.0Q3480 1103 3540 1103ZM2850 1873Q2865 1873 2880.0 1872.5Q2895 1872 2910 1871Q2821 1772 2769.5 1637.0Q2718 1502 2718 1345Q2718 1168 2782.0 1020.5Q2846 873 2958.5 772.5Q3071 672 3217 637Q3205 624 3193.0 609.5Q3181 595 3172 582Q3148 546 3134.0 508.0Q3120 470 3114.5 426.5Q3109 383 3109 329V-385Q3109 -469 3056.5 -518.5Q3004 -568 2915 -568H2786Q2696 -568 2644.0 -518.5Q2592 -469 2592 -385V329Q2592 383 2586.0 426.5Q2580 470 2566.0 508.0Q2552 546 2528 582Q2509 611 2479.0 642.0Q2449 673 2417 702Q2310 795 2247.5 925.0Q2185 1055 2185 1208Q2185 1346 2236.5 1466.5Q2288 1587 2379.5 1678.5Q2471 1770 2591.5 1821.5Q2712 1873 2850 1873Z" transform="translate(-3.6445,22.3242) scale(0.011719,-0.011719)"/>
  </g>
</svg>
