<svg xmlns="http://www.w3.org/2000/svg" viewBox="0 0 15.7031 15.7852" width="23.8753" height="24.0000">
  <g fill="black" stroke="black" stroke-width="0.25">
    <path d="M851 10Q642 10 486.0 93.5Q330 177 243.0 328.0Q156 479 156 682Q156 834 204.5 958.0Q253 1082 343.5 1171.5Q434 1261 559.0 1309.0Q684 1357 837 1357Q1034 1357 1182.5 1280.0Q1331 1203 1413.5 1064.5Q1496 926 1496 742Q1496 619 1453.0 526.5Q1410 434 1333.0 382.0Q1256 330 1154 330Q1080 330 1026.5 357.0Q973 384 950 430Q891 327 762 329Q675 329 609.0 373.5Q543 418 506.5 497.0Q470 576 470 681Q470 782 505.0 859.0Q540 936 603.0 979.0Q666 1022 750 1022Q808 1022 855.0 997.5Q902 973 929 929V931Q929 969 958.0 995.5Q987 1022 1035 1022Q1087 1022 1119.5 990.0Q1152 958 1152 905V586Q1152 554 1163.0 539.0Q1174 524 1197 524Q1236 524 1267.0 580.5Q1298 637 1298 740Q1298 868 1239.5 964.5Q1181 1061 1077.5 1114.5Q974 1168 837 1168Q729 1168 641.0 1133.0Q553 1098 489.5 1033.0Q426 968 391.5 878.0Q357 788 357 678Q357 531 420.0 423.5Q483 316 598.5 258.5Q714 201 873 201Q894 201 912.0 203.5Q930 206 959 210Q977 211 1000.0 212.5Q1023 214 1038 214Q1081 214 1107.0 189.5Q1133 165 1133 127Q1133 60 1062 34Q1023 19 967.5 14.5Q912 10 851 10ZM816 535Q861 535 887.0 572.0Q913 609 913 677Q913 745 887.0 782.5Q861 820 817 820Q788 820 767.0 803.5Q746 787 734.5 755.0Q723 723 723 677Q723 608 747.5 571.5Q772 535 816 535Z" transform="translate(-1.8281,15.9023) scale(0.011719,-0.011719)"/>
  </g>
</svg>
