<svg xmlns="http://www.w3.org/2000/svg" viewBox="0 0 25.9805 36.7148" width="16.9831" height="24.0000">
  <g fill="black" stroke="black" stroke-width="0.25">
    <path d="M789 1447V2017Q789 2120 854.0 2183.5Q919 2247 1024 2247L1669 2249Q1774 2249 1838.5 2185.5Q1903 2122 1903 2019V1449H1352ZM1024 -882Q919 -882 854.0 -818.5Q789 -755 789 -652V-82L1352 -83L1903 -84V-654Q1903 -757 1838.5 -820.5Q1774 -884 1669 -884ZM1352 -359Q1136 -359 947.5 -278.0Q759 -197 616.0 -53.5Q473 90 392.0 279.0Q311 468 311 683Q311 898 392.0 1087.0Q473 1276 616.0 1419.0Q759 1562 947.5 1643.0Q1136 1724 1352 1724Q1568 1724 1756.5 1643.0Q1945 1562 2088.5 1419.0Q2232 1276 2313.0 1087.0Q2394 898 2394 683Q2394 468 2313.0 279.0Q2232 90 2088.5 -53.5Q1945 -197 1756.5 -278.0Q1568 -359 1352 -359ZM1352 -27Q1504 -27 1633.5 26.5Q1763 80 1859.0 176.5Q1955 273 2009.0 402.5Q2063 532 2063 683Q2063 835 2009.0 964.0Q1955 1093 1859.0 1189.5Q1763 1286 1633.5 1339.5Q1504 1393 1352 1393Q1200 1393 1071.0 1339.5Q942 1286 845.5 1189.5Q749 1093 695.5 964.0Q642 835 642 683Q642 532 695.5 402.5Q749 273 845.5 176.5Q942 80 1071.0 26.5Q1200 -27 1352 -27ZM1458 583Q1410 541 1355.0 540.5Q1300 540 1249 583L1035 763Q994 798 990.0 851.5Q986 905 1021 944Q1057 984 1109.0 988.5Q1161 993 1200 960L1352 831L1611 1053Q1651 1087 1702.0 1087.0Q1753 1087 1788 1051Q1828 1012 1827.0 957.5Q1826 903 1784 866ZM2234 448V918H2417Q2464 918 2496.0 885.5Q2528 853 2528 807V559Q2528 512 2495.5 480.0Q2463 448 2417 448Z" transform="translate(-3.6445,26.3555) scale(0.011719,-0.011719)"/>
  </g>
</svg>
