<svg xmlns="http://www.w3.org/2000/svg" viewBox="0 0 37.1250 28.3770" width="31.3987" height="24.0000">
  <g fill="black" stroke="black" stroke-width="0.25">
    <path d="M311 -341Q311 -303 327.5 -266.5Q344 -230 370 -203L2398 1827Q2455 1885 2536.0 1884.5Q2617 1884 2675 1827Q2732 1769 2732.5 1688.5Q2733 1608 2675 1550L980 -145H3283Q3363 -145 3421.0 -202.5Q3479 -260 3479 -341Q3479 -421 3421.0 -479.0Q3363 -537 3283 -537H507Q427 -537 369.0 -479.0Q311 -421 311 -341ZM1972 -366Q1988 -45 1867.5 244.0Q1747 533 1512 747L1790 1024Q1981 845 2113.0 623.0Q2245 401 2309.5 150.0Q2374 -101 2364 -366Z" transform="translate(-3.6445,22.0840) scale(0.011719,-0.011719)"/>
  </g>
</svg>
