<svg xmlns="http://www.w3.org/2000/svg" viewBox="0 0 13.3477 15.7266" width="20.3696" height="24.0000">
  <g fill="black" stroke="black" stroke-width="0.25">
    <path d="M725 50Q843 50 946.0 95.0Q1049 140 1127.5 218.5Q1206 297 1250.5 401.0Q1295 505 1295 623Q1295 721 1262.0 813.5Q1229 906 1167.5 982.0Q1106 1058 1019.5 1108.5Q933 1159 825 1173Q817 1175 809.0 1176.0Q801 1177 792 1178L812 1198Q827 1218 837.5 1236.5Q848 1255 848 1284Q848 1324 817.0 1358.0Q786 1392 729 1392Q701 1392 677.0 1379.5Q653 1367 638 1350L431 1130Q397 1094 397 1045Q397 996 431 960L638 740Q653 722 677.0 709.5Q701 697 729 697Q786 697 817.0 731.5Q848 766 848 807Q848 831 841.0 847.5Q834 864 822 880L791 912Q794 911 797.0 911.0Q800 911 803 910Q873 898 925.0 859.0Q977 820 1006.0 759.0Q1035 698 1035 621Q1035 536 993.5 465.5Q952 395 882.0 353.0Q812 311 725 311Q639 311 569.0 352.5Q499 394 457.5 464.5Q416 535 416 621Q416 675 377.5 713.0Q339 751 285 751Q232 751 194.0 713.0Q156 675 156 621Q156 503 200.5 400.0Q245 297 323.5 218.0Q402 139 505.0 94.5Q608 50 725 50Z" transform="translate(-1.8281,16.3125) scale(0.011719,-0.011719)"/>
  </g>
</svg>
