<svg xmlns="http://www.w3.org/2000/svg" viewBox="0 0 13.9570 17.1680" width="19.5113" height="24.0000">
  <g fill="black" stroke="black" stroke-width="0.25">
    <path d="M953 1100Q974 1100 1024.5 1093.0Q1075 1086 1134.5 1055.5Q1194 1025 1243 954Q1240 952 1215.5 934.5Q1191 917 1161.0 883.0Q1131 849 1108.0 798.0Q1085 747 1085 676Q1085 594 1114.0 537.5Q1143 481 1181.0 446.5Q1219 412 1249.0 396.0Q1279 380 1281 379Q1280 375 1257.0 311.5Q1234 248 1181 171Q1134 104 1080.5 47.5Q1027 -9 953 -9Q903 -9 871.0 5.5Q839 20 804.5 34.5Q770 49 713 49Q657 49 620.0 34.0Q583 19 549.5 4.0Q516 -11 470 -11Q402 -11 349.5 44.0Q297 99 243 175Q179 266 134.5 397.0Q90 528 90 661Q90 803 144.0 900.0Q198 997 282.0 1046.5Q366 1096 457 1096Q506 1096 548.5 1080.0Q591 1064 628.0 1048.5Q665 1033 695 1033Q724 1033 763.0 1050.0Q802 1067 850.0 1083.5Q898 1100 953 1100ZM901 1220Q864 1175 808.5 1145.5Q753 1116 703 1116Q693 1116 683 1118Q682 1121 681.0 1128.5Q680 1136 680 1144Q680 1201 704.5 1254.0Q729 1307 760 1343Q800 1390 860.5 1421.0Q921 1452 976 1454Q979 1442 979 1425Q979 1368 957.0 1314.5Q935 1261 901 1220Z" transform="translate(-1.0547,17.0391) scale(0.011719,-0.011719)"/>
  </g>
</svg>
