<svg xmlns="http://www.w3.org/2000/svg" viewBox="0 0 13.6406 15.5391" width="21.0679" height="24.0000">
  <g fill="black" stroke="black" stroke-width="0.25">
    <path d="M740 1173Q704 1173 678.5 1198.5Q653 1224 653 1260Q653 1295 678.5 1320.5Q704 1346 740 1346Q774 1346 800.0 1321.0Q826 1296 826 1260Q826 1223 801.0 1198.0Q776 1173 740 1173ZM492 1030Q456 1030 430.5 1055.5Q405 1081 405 1117Q405 1152 430.5 1177.5Q456 1203 492 1203Q527 1203 552.0 1177.5Q577 1152 577 1117Q577 1080 552.5 1055.0Q528 1030 492 1030ZM987 1030Q951 1030 926.0 1055.0Q901 1080 901 1117Q901 1152 926.5 1177.5Q952 1203 987 1203Q1023 1203 1048.5 1177.5Q1074 1152 1074 1117Q1074 1080 1048.5 1055.0Q1023 1030 987 1030ZM243 885Q208 885 182.0 910.5Q156 936 156 972Q156 1007 182.5 1032.5Q209 1058 243 1058Q279 1058 304.5 1032.5Q330 1007 330 972Q330 935 304.5 910.0Q279 885 243 885ZM740 863Q696 863 664.0 895.0Q632 927 632 972Q632 1015 664.0 1047.5Q696 1080 740 1080Q784 1080 816.0 1048.0Q848 1016 848 972Q848 927 816.0 895.0Q784 863 740 863ZM1233 885Q1198 885 1172.0 910.0Q1146 935 1146 972Q1146 1007 1172.5 1032.5Q1199 1058 1233 1058Q1269 1058 1294.5 1032.5Q1320 1007 1320 972Q1320 935 1294.5 910.0Q1269 885 1233 885ZM492 720Q447 720 415.0 751.5Q383 783 383 828Q383 872 415.5 904.0Q448 936 492 936Q536 936 568.0 904.0Q600 872 600 828Q600 783 568.5 751.5Q537 720 492 720ZM987 720Q943 720 911.0 751.5Q879 783 879 828Q879 872 911.5 904.0Q944 936 987 936Q1031 936 1063.0 904.0Q1095 872 1095 828Q1095 783 1063.5 751.5Q1032 720 987 720ZM243 597Q208 597 182.0 622.5Q156 648 156 683Q156 719 182.5 744.5Q209 770 243 770Q279 770 304.5 744.5Q330 719 330 683Q330 648 304.5 622.5Q279 597 243 597ZM1233 597Q1198 597 1172.0 622.5Q1146 648 1146 683Q1146 719 1172.5 744.5Q1199 770 1233 770Q1269 770 1294.5 744.5Q1320 719 1320 683Q1320 647 1294.5 622.0Q1269 597 1233 597ZM492 432Q447 432 415.0 463.5Q383 495 383 540Q383 583 415.5 615.5Q448 648 492 648Q536 648 568.0 616.0Q600 584 600 540Q600 495 568.5 463.5Q537 432 492 432ZM987 432Q943 432 911.0 463.5Q879 495 879 540Q879 584 911.0 616.0Q943 648 987 648Q1032 648 1063.5 616.0Q1095 584 1095 540Q1095 495 1063.5 463.5Q1032 432 987 432ZM243 308Q208 308 182.0 334.0Q156 360 156 395Q156 431 182.0 456.5Q208 482 243 482Q279 482 304.5 456.5Q330 431 330 395Q330 359 306.0 333.5Q282 308 243 308ZM740 287Q696 287 664.0 319.0Q632 351 632 395Q632 439 664.0 471.0Q696 503 740 503Q784 503 816.0 471.5Q848 440 848 395Q848 350 816.0 318.5Q784 287 740 287ZM1233 308Q1198 308 1172.0 334.0Q1146 360 1146 395Q1146 431 1172.0 456.5Q1198 482 1233 482Q1269 482 1294.5 456.5Q1320 431 1320 395Q1320 359 1294.5 333.5Q1269 308 1233 308ZM492 164Q456 164 430.5 189.5Q405 215 405 251Q405 285 430.5 311.0Q456 337 492 337Q527 337 552.0 311.5Q577 286 577 251Q577 214 552.5 189.0Q528 164 492 164ZM987 164Q951 164 926.0 189.5Q901 215 901 251Q901 286 926.5 311.5Q952 337 987 337Q1023 337 1048.5 311.5Q1074 286 1074 251Q1074 213 1048.5 188.5Q1023 164 987 164ZM740 20Q704 20 678.5 46.0Q653 72 653 107Q653 142 678.5 168.0Q704 194 740 194Q775 194 800.5 168.5Q826 143 826 107Q826 72 801.0 46.0Q776 20 740 20ZM740 561Q689 561 652.5 597.0Q616 633 616 683Q616 733 653.0 770.0Q690 807 740 807Q790 807 826.0 770.5Q862 734 862 683Q862 632 826.5 596.5Q791 561 740 561Z" transform="translate(-1.8281,15.7734) scale(0.011719,-0.011719)"/>
  </g>
</svg>
