<svg xmlns="http://www.w3.org/2000/svg" viewBox="0 0 55.6289 36.3398" width="36.7391" height="24.0000">
  <g fill="black" stroke="black" stroke-width="0.25">
    <path d="M2272 787Q2131 787 2045.5 877.0Q1960 967 1960 1115V1910Q1960 2058 2045.5 2148.0Q2131 2238 2272 2238H3097Q3238 2238 3324.0 2148.0Q3410 2058 3410 1910V1115Q3410 967 3324.0 877.0Q3238 787 3097 787ZM2300 1091H3073Q3088 1091 3098.0 1101.0Q3108 1111 3108 1126V1899Q3108 1914 3098.0 1924.0Q3088 1934 3073 1934H2300Q2285 1934 2275.5 1924.0Q2266 1914 2266 1899V1126Q2266 1111 2275.5 1101.0Q2285 1091 2300 1091ZM2459 1244Q2404 1244 2381.5 1289.5Q2359 1335 2387 1383L2606 1758Q2632 1803 2684.0 1803.0Q2736 1803 2763 1758L2983 1383Q3011 1336 2988.5 1290.0Q2966 1244 2910 1244ZM624 -863Q482 -863 396.5 -773.0Q311 -683 311 -535V260Q311 409 396.5 499.0Q482 589 624 589H1449Q1590 589 1675.5 499.0Q1761 409 1761 260V-535Q1761 -683 1675.5 -773.0Q1590 -863 1449 -863ZM650 -558H1423Q1438 -558 1447.5 -548.5Q1457 -539 1457 -523V249Q1457 265 1447.5 274.5Q1438 284 1423 284H650Q635 284 625.5 274.5Q616 265 616 249V-523Q616 -539 625.5 -548.5Q635 -558 650 -558ZM1290 -361Q1290 -417 1244.0 -439.5Q1198 -462 1151 -435L777 -215Q732 -189 731.5 -137.0Q731 -85 776 -59L1151 162Q1199 189 1244.5 167.0Q1290 145 1290 90ZM2272 -863Q2131 -863 2045.5 -773.0Q1960 -683 1960 -535V260Q1960 409 2045.5 499.0Q2131 589 2272 589H3097Q3238 589 3324.0 499.0Q3410 409 3410 260V-535Q3410 -683 3324.0 -773.0Q3238 -863 3097 -863ZM2300 -558H3073Q3088 -558 3098.0 -548.5Q3108 -539 3108 -523V249Q3108 265 3098.0 274.5Q3088 284 3073 284H2300Q2285 284 2275.5 274.5Q2266 265 2266 249V-523Q2266 -539 2275.5 -548.5Q2285 -558 2300 -558ZM2606 -382 2387 -7Q2359 40 2381.5 85.5Q2404 131 2459 131H2910Q2966 131 2988.5 85.5Q3011 40 2983 -7L2763 -382Q2736 -427 2684.5 -427.0Q2633 -427 2606 -382ZM3921 -863Q3780 -863 3694.0 -773.0Q3608 -683 3608 -535V260Q3608 409 3694.0 499.0Q3780 589 3921 589H4746Q4887 589 4972.5 499.0Q5058 409 5058 260V-535Q5058 -683 4972.5 -773.0Q4887 -863 4746 -863ZM3947 -558H4720Q4735 -558 4744.5 -548.5Q4754 -539 4754 -523V249Q4754 265 4744.5 274.5Q4735 284 4720 284H3947Q3932 284 3922.5 274.5Q3913 265 3913 249V-523Q3913 -539 3922.5 -548.5Q3932 -558 3947 -558ZM4080 -361V90Q4080 145 4125.5 167.0Q4171 189 4218 162L4593 -59Q4638 -85 4638.0 -137.0Q4638 -189 4593 -215L4218 -435Q4171 -462 4125.5 -439.5Q4080 -417 4080 -361Z" transform="translate(-3.6445,26.2266) scale(0.011719,-0.011719)"/>
  </g>
</svg>
