<svg xmlns="http://www.w3.org/2000/svg" viewBox="0 0 13.1484 14.4609" width="21.8217" height="24.0000">
  <g fill="black" stroke="black" stroke-width="0.25">
    <path d="M719 66Q640 66 601.5 115.5Q563 165 575 237L614 503L402 333Q358 294 299 294Q241 294 198.5 338.5Q156 383 156 446Q156 544 260 581L515 681L259 783Q156 819 156 919Q156 981 198.5 1024.0Q241 1067 299 1067Q361 1067 403 1027L616 853L576 1127Q563 1209 608.5 1254.5Q654 1300 719 1300Q783 1300 827.0 1255.5Q871 1211 857 1129L817 853L1032 1027Q1078 1067 1137 1067Q1194 1067 1236.0 1024.5Q1278 982 1278 919Q1278 819 1175 783L919 681L1175 580Q1225 563 1251.5 526.0Q1278 489 1278 442Q1278 380 1236.0 336.0Q1194 292 1137 292Q1078 292 1032 333L822 503L860 237Q872 165 834.5 115.5Q797 66 719 66Z" transform="translate(-1.8281,15.2344) scale(0.011719,-0.011719)"/>
  </g>
</svg>
