<svg xmlns="http://www.w3.org/2000/svg" viewBox="0 0 16.2305 15.6211" width="24.9362" height="24.0000">
  <g fill="black" stroke="black" stroke-width="0.25">
    <path d="M1184 211Q1148 211 1098.0 221.5Q1048 232 1004.5 260.0Q961 288 943 341H935Q919 288 885.0 260.0Q851 232 809.0 222.0Q767 212 726 212Q608 212 532.5 281.0Q457 350 457 482V608Q457 728 529.5 797.5Q602 867 718 867Q784 867 826.0 847.5Q868 828 890.5 797.5Q913 767 921 734H927V854H1162V432Q1162 415 1169.0 402.0Q1176 389 1188.5 382.0Q1201 375 1216 375Q1234 375 1254.0 399.5Q1274 424 1287.5 477.0Q1301 530 1301 615V629Q1301 750 1242.0 844.5Q1183 939 1079.0 993.5Q975 1048 838 1048H830Q672 1048 560.5 986.5Q449 925 390.5 815.0Q332 705 332 560V540Q332 408 373.0 317.0Q414 226 482.0 170.5Q550 115 634.5 90.0Q719 65 806 65H816Q866 65 918.5 72.0Q971 79 996 90V-82Q968 -94 916.0 -101.0Q864 -108 794 -108H784Q588 -108 439.0 -31.5Q290 45 206.0 189.0Q122 333 122 535V566Q122 763 209.0 911.0Q296 1059 455.0 1142.0Q614 1225 830 1225H836Q1048 1225 1198.0 1144.5Q1348 1064 1427.5 930.5Q1507 797 1507 638V601Q1507 495 1473.0 406.5Q1439 318 1368.0 264.5Q1297 211 1184 211ZM718 522Q718 455 740.5 429.5Q763 404 804 404Q824 404 842.5 411.0Q861 418 872.5 440.0Q884 462 884 507V580Q884 642 857.0 659.0Q830 676 802 676Q760 676 739.0 647.5Q718 619 718 556Z" transform="translate(-1.4297,14.3555) scale(0.011719,-0.011719)"/>
  </g>
</svg>
