<svg xmlns="http://www.w3.org/2000/svg" viewBox="0 0 32.5415 36.0820" width="21.6450" height="24.0000">
  <g fill="black" stroke="black" stroke-width="0.25">
    <path d="M1607 -857Q1452 -857 1324.5 -746.5Q1197 -636 1104.0 -431.5Q1011 -227 960.5 56.0Q910 339 910 683Q910 1028 960.5 1310.5Q1011 1593 1104.0 1797.0Q1197 2001 1324.5 2111.5Q1452 2222 1607 2222Q1762 2222 1889.5 2112.0Q2017 2002 2109.5 1798.0Q2202 1594 2252.5 1311.0Q2303 1028 2303 683Q2303 338 2252.5 55.0Q2202 -228 2109.5 -432.5Q2017 -637 1889.5 -747.0Q1762 -857 1607 -857ZM1607 -552Q1679 -552 1741.0 -462.5Q1803 -373 1849.5 -208.0Q1896 -43 1922.0 183.5Q1948 410 1948 683Q1948 957 1922.0 1183.0Q1896 1409 1849.5 1573.5Q1803 1738 1741.0 1827.5Q1679 1917 1607 1917Q1535 1917 1473.5 1827.5Q1412 1738 1365.5 1573.5Q1319 1409 1293.0 1182.5Q1267 956 1267 683Q1267 410 1293.0 183.5Q1319 -43 1365.5 -207.5Q1412 -372 1473.5 -462.0Q1535 -552 1607 -552ZM273 -87Q195 46 227.0 212.0Q259 378 390.0 560.0Q521 742 741.0 927.5Q961 1113 1259 1285Q1558 1458 1827.5 1555.5Q2097 1653 2320.0 1674.5Q2543 1696 2702.5 1640.5Q2862 1585 2939 1451Q3017 1317 2985.5 1151.5Q2954 986 2824.0 804.0Q2694 622 2474.0 437.0Q2254 252 1956 80Q1656 -93 1386.0 -191.5Q1116 -290 892.5 -311.5Q669 -333 509.5 -277.5Q350 -222 273 -87ZM537 65Q573 2 681.5 -6.5Q790 -15 956.5 27.0Q1123 69 1332.0 159.5Q1541 250 1778 387Q2015 523 2198.0 659.0Q2381 795 2500.0 917.5Q2619 1040 2666.0 1138.5Q2713 1237 2677 1299Q2641 1361 2532.0 1369.5Q2423 1378 2257.0 1336.0Q2091 1294 1882.0 1203.5Q1673 1113 1437 976Q1200 840 1017.0 704.0Q834 568 714.5 445.5Q595 323 548.0 225.0Q501 127 537 65ZM273 1453Q350 1586 509.5 1641.5Q669 1697 892.5 1675.0Q1116 1653 1386.5 1555.5Q1657 1458 1956 1285Q2254 1113 2473.5 928.0Q2693 743 2823.0 560.5Q2953 378 2985.0 212.5Q3017 47 2939 -87Q2862 -221 2703.0 -276.5Q2544 -332 2321.0 -310.5Q2098 -289 1828.0 -191.0Q1558 -93 1259 80Q960 252 740.0 437.0Q520 622 389.5 804.5Q259 987 227.0 1152.5Q195 1318 273 1453ZM537 1301Q501 1238 548.0 1139.5Q595 1041 714.5 918.0Q834 795 1017.0 659.0Q1200 523 1437 387Q1674 250 1882.5 159.5Q2091 69 2256.5 27.0Q2422 -15 2530.5 -6.0Q2639 3 2675 65Q2711 127 2664.5 225.5Q2618 324 2498.5 446.5Q2379 569 2196.0 704.5Q2013 840 1777 976Q1540 1113 1331.0 1203.5Q1122 1294 956.0 1336.5Q790 1379 681.5 1370.5Q573 1362 537 1301ZM1607 470Q1547 470 1499.0 498.5Q1451 527 1422.0 575.5Q1393 624 1393 683Q1393 742 1422.0 790.5Q1451 839 1499.0 867.5Q1547 896 1607 896Q1666 896 1714.0 867.5Q1762 839 1791.0 790.5Q1820 742 1820 683Q1820 624 1791.0 575.5Q1762 527 1714.0 498.5Q1666 470 1607 470Z" transform="translate(-2.5511,26.0391) scale(0.011719,-0.011719)"/>
  </g>
</svg>
