<svg xmlns="http://www.w3.org/2000/svg" viewBox="0 0 33.8789 32.0391" width="25.3782" height="24.0000">
  <g fill="black" stroke="black" stroke-width="0.25">
    <path d="M2288 -748Q2214 -748 2145.5 -715.0Q2077 -682 1986 -602L1580 -249H939Q747 -249 606.0 -171.5Q465 -94 388.0 47.0Q311 188 311 379V1358Q311 1550 388.0 1691.0Q465 1832 606.0 1909.0Q747 1986 939 1986H2574Q2766 1986 2907.0 1909.0Q3048 1832 3125.0 1691.0Q3202 1550 3202 1358V379Q3202 188 3122.0 47.0Q3042 -94 2907.0 -171.5Q2772 -249 2608 -249H2522V-492Q2522 -611 2459.5 -679.5Q2397 -748 2288 -748ZM2195 -315V14Q2195 84 2229.5 113.5Q2264 143 2324 143H2544Q2633 143 2692.0 172.0Q2751 201 2780.5 260.0Q2810 319 2810 409V1329Q2810 1418 2780.5 1477.0Q2751 1536 2692.0 1565.0Q2633 1594 2544 1594H969Q880 1594 821.0 1565.0Q762 1536 732.5 1477.0Q703 1418 703 1329V409Q703 319 732.5 260.0Q762 201 821.0 172.0Q880 143 969 143H1613Q1685 143 1726.0 124.5Q1767 106 1820 54ZM1817 377Q1778 377 1749.5 404.5Q1721 432 1721 473V1264Q1721 1305 1749.5 1332.5Q1778 1360 1818 1360Q1844 1360 1865.5 1349.0Q1887 1338 1915 1314L2131 1120Q2133 1115 2139 1115H2272Q2344 1115 2382.5 1076.0Q2421 1037 2421 961V777Q2421 702 2382.5 662.0Q2344 622 2272 622H2139Q2133 622 2131 620L1915 422Q1889 399 1866.5 388.0Q1844 377 1817 377ZM1542 603Q1514 584 1482.5 591.0Q1451 598 1433 624Q1398 673 1377.0 736.5Q1356 800 1356 869Q1356 938 1377.0 1001.5Q1398 1065 1433 1115Q1450 1140 1481.5 1146.5Q1513 1153 1542 1136Q1573 1118 1579.0 1082.0Q1585 1046 1559 1004Q1522 947 1522 869Q1522 796 1559 735Q1610 646 1542 603ZM1292 452Q1262 434 1230.0 441.0Q1198 448 1181 477Q1126 564 1096.0 662.5Q1066 761 1066 868Q1066 977 1096.0 1075.5Q1126 1174 1181 1259Q1199 1288 1230.5 1295.5Q1262 1303 1292 1285Q1325 1266 1329.5 1230.0Q1334 1194 1312 1158Q1232 1034 1232 868Q1232 789 1252.5 714.0Q1273 639 1312 579Q1334 542 1330.0 506.0Q1326 470 1292 452Z" transform="translate(-3.6445,23.2734) scale(0.011719,-0.011719)"/>
  </g>
</svg>
