<svg xmlns="http://www.w3.org/2000/svg" viewBox="0 0 29.7305 42.0000" width="16.9888" height="24.0000">
  <g fill="black" stroke="black" stroke-width="0.25">
    <path d="M1977 431Q1793 431 1635.0 521.0Q1477 611 1358.5 769.5Q1240 928 1174.0 1136.5Q1108 1345 1108 1582Q1108 1771 1171.5 1933.5Q1235 2096 1351.0 2217.5Q1467 2339 1626.5 2407.0Q1786 2475 1977 2475Q2169 2475 2328.5 2407.0Q2488 2339 2604.5 2217.5Q2721 2096 2784.5 1933.5Q2848 1771 2848 1582Q2848 1345 2782.0 1136.5Q2716 928 2597.0 769.5Q2478 611 2319.5 521.0Q2161 431 1977 431ZM1977 734Q2097 734 2200.5 799.0Q2304 864 2381.5 980.0Q2459 1096 2502.0 1250.0Q2545 1404 2545 1582Q2545 1709 2504.5 1816.5Q2464 1924 2388.5 2003.5Q2313 2083 2208.5 2127.5Q2104 2172 1977 2172Q1808 2172 1680.5 2095.0Q1553 2018 1482.0 1884.5Q1411 1751 1411 1582Q1411 1404 1454.0 1250.0Q1497 1096 1574.0 980.0Q1651 864 1754.0 799.0Q1857 734 1977 734ZM1755 616H2199L2273 339Q2289 275 2253.5 221.0Q2218 167 2143 167H1811Q1737 167 1701.0 221.0Q1665 275 1682 339ZM1976 -1078Q1925 -1078 1888.5 -1041.0Q1852 -1004 1852 -953Q1852 -829 1876.5 -747.0Q1901 -665 1937.5 -611.0Q1974 -557 2010.0 -517.5Q2046 -478 2070.5 -441.0Q2095 -404 2095 -355Q2095 -306 2070.5 -270.0Q2046 -234 2009.5 -197.5Q1973 -161 1937.0 -111.0Q1901 -61 1876.5 14.5Q1852 90 1852 205L2103 206Q2102 132 2126.5 81.0Q2151 30 2186.5 -12.0Q2222 -54 2258.0 -99.0Q2294 -144 2318.5 -204.5Q2343 -265 2343 -355Q2343 -437 2318.5 -497.0Q2294 -557 2258.0 -606.5Q2222 -656 2186.0 -705.5Q2150 -755 2125.5 -814.0Q2101 -873 2101 -953Q2101 -1004 2064.0 -1041.0Q2027 -1078 1976 -1078ZM1728 759Q1674 585 1573.5 449.0Q1473 313 1338.0 235.5Q1203 158 1045 158Q888 158 754.5 233.5Q621 309 521.5 442.0Q422 575 366.5 749.0Q311 923 311 1119Q311 1278 365.0 1416.0Q419 1554 517.0 1658.0Q615 1762 749.0 1820.5Q883 1879 1045 1879Q1110 1879 1172.5 1868.5Q1235 1858 1286 1841L1255 1526Q1202 1548 1152.5 1562.0Q1103 1576 1045 1576Q914 1576 818.0 1516.0Q722 1456 669.0 1352.5Q616 1249 616 1119Q616 978 648.5 858.5Q681 739 739.0 650.0Q797 561 875.0 511.5Q953 462 1045 462Q1186 462 1292.5 578.5Q1399 695 1448 894ZM811 345H1216L1281 93Q1296 32 1262.5 -16.0Q1229 -64 1161 -64H866Q799 -64 764.5 -16.0Q730 32 746 93ZM1019 -1109Q969 -1109 934.0 -1073.0Q899 -1037 899 -987Q899 -874 920.0 -802.0Q941 -730 972.0 -684.5Q1003 -639 1034.5 -608.0Q1066 -577 1087.0 -548.5Q1108 -520 1108 -480Q1108 -441 1086.5 -413.0Q1065 -385 1033.0 -356.0Q1001 -327 969.5 -283.5Q938 -240 917.5 -170.5Q897 -101 899 8H1142Q1139 -56 1159.0 -99.0Q1179 -142 1210.5 -176.5Q1242 -211 1273.5 -249.5Q1305 -288 1327.0 -342.5Q1349 -397 1349 -480Q1349 -554 1328.0 -607.0Q1307 -660 1276.0 -702.5Q1245 -745 1214.0 -785.5Q1183 -826 1162.0 -874.0Q1141 -922 1141 -987Q1141 -1037 1105.0 -1073.0Q1069 -1109 1019 -1109Z" transform="translate(-3.6445,29.0039) scale(0.011719,-0.011719)"/>
  </g>
</svg>
