<svg xmlns="http://www.w3.org/2000/svg" viewBox="0 0 30.9932 31.0460" width="23.9592" height="24.0000">
  <g fill="black" stroke="black" stroke-width="0.25">
    <path d="M488 -427Q351 -287 304.0 -120.0Q257 47 305.0 220.5Q353 394 498 552L699 772Q654 655 695.0 556.0Q736 457 832 362L1272 -79Q1367 -174 1468.5 -217.5Q1570 -261 1686 -216L1467 -417Q1308 -563 1134.0 -611.5Q960 -660 793.0 -613.0Q626 -566 488 -427ZM1430 76 991 515Q892 614 890.5 710.5Q889 807 991 909L1382 1300Q1484 1402 1580.0 1401.0Q1676 1400 1775 1301L2216 861Q2315 762 2316.0 666.0Q2317 570 2215 467L1824 76Q1722 -26 1625.5 -24.5Q1529 -23 1430 76ZM1235 596Q1273 559 1325.5 558.0Q1378 557 1419 598Q1456 636 1455.0 688.5Q1454 741 1419 778Q1380 817 1326.5 818.0Q1273 819 1235 780Q1196 741 1196.0 688.0Q1196 635 1235 596ZM1513 872Q1549 835 1602.5 835.5Q1656 836 1692 872Q1733 912 1733.0 965.0Q1733 1018 1695 1055Q1656 1094 1603.0 1094.0Q1550 1094 1511 1055Q1474 1018 1474.0 964.0Q1474 910 1513 872ZM1970 596Q2009 635 2009.0 688.5Q2009 742 1970 780Q1933 818 1880.0 818.0Q1827 818 1786 778Q1750 742 1750.0 688.0Q1750 634 1786 598Q1825 559 1879.0 559.0Q1933 559 1970 596ZM1511 320Q1550 281 1602.5 281.0Q1655 281 1695 320Q1734 358 1732.5 411.0Q1731 464 1692 504Q1657 540 1603.5 541.0Q1550 542 1513 504Q1472 463 1473.0 410.5Q1474 358 1511 320ZM2507 605Q2552 721 2511.0 820.0Q2470 919 2374 1015L1934 1455Q1871 1519 1805.0 1560.5Q1739 1602 1668.5 1612.0Q1598 1622 1521 1592L1739 1794Q1898 1940 2072.0 1988.5Q2246 2037 2413.5 1990.0Q2581 1943 2718 1803Q2856 1664 2902.5 1496.5Q2949 1329 2901.5 1156.0Q2854 983 2709 824Z" transform="translate(-3.2900,23.5914) scale(0.011719,-0.011719)"/>
  </g>
</svg>
