<svg xmlns="http://www.w3.org/2000/svg" viewBox="0 0 14.1328 14.0625" width="24.1200" height="24.0000">
  <g fill="black" stroke="black" stroke-width="0.25">
    <path d="M487 15Q424 15 424 85V238H416Q307 238 231.5 312.0Q156 386 156 512V940Q156 1065 229.5 1140.0Q303 1215 430 1215H1088Q1214 1215 1288.0 1140.0Q1362 1065 1362 940V512Q1362 386 1288.0 312.0Q1214 238 1088 238H777L570 54Q523 15 487 15ZM760 656Q792 656 811.0 674.0Q830 692 831 725L841 924Q843 959 820.0 981.0Q797 1003 758 1003Q721 1003 698.0 981.0Q675 959 678 924L687 724Q689 691 708.0 673.5Q727 656 760 656ZM760 454Q797 454 821.5 474.0Q846 494 846 528Q846 563 821.5 583.0Q797 603 760 603Q723 603 698.0 583.0Q673 563 673 528Q673 494 698.0 474.0Q723 454 760 454Z" transform="translate(-1.8281,14.2383) scale(0.011719,-0.011719)"/>
  </g>
</svg>
