<svg xmlns="http://www.w3.org/2000/svg" viewBox="0 0 17.2852 11.1445" width="37.2240" height="24.0000">
  <g fill="black" stroke="black" stroke-width="0.25">
    <path d="M257 231H352Q396 231 424.0 257.5Q452 284 452 326V523Q452 564 424.0 591.0Q396 618 352 618H257Q211 618 183.5 591.0Q156 564 156 523V326Q156 284 183.5 257.5Q211 231 257 231ZM649 231H745Q790 231 817.5 257.5Q845 284 845 326V677Q845 720 817.5 746.0Q790 772 745 772H649Q604 772 576.5 746.0Q549 720 549 677V326Q549 284 576.5 257.5Q604 231 649 231ZM1044 231H1138Q1184 231 1211.0 257.5Q1238 284 1238 326V872Q1238 915 1211.0 941.5Q1184 968 1138 968H1044Q997 968 969.5 941.5Q942 915 942 872V326Q942 284 969.5 257.5Q997 231 1044 231ZM1436 231H1531Q1577 231 1604.0 257.5Q1631 284 1631 326V1085Q1631 1129 1604.0 1155.5Q1577 1182 1531 1182H1436Q1391 1182 1363.0 1155.5Q1335 1129 1335 1085V326Q1335 284 1363.0 257.5Q1391 231 1436 231Z" transform="translate(-1.8281,13.8516) scale(0.011719,-0.011719)"/>
  </g>
</svg>
