<svg xmlns="http://www.w3.org/2000/svg" viewBox="0 0 41.8392 25.2554" width="39.7594" height="24.0000">
  <g fill="black" stroke="black" stroke-width="0.25">
    <path d="M541 -273Q467 -274 430.0 -244.5Q393 -215 368 -120Q311 103 311.5 320.5Q312 538 373.5 734.5Q435 931 560.5 1091.5Q686 1252 878.0 1363.0Q1070 1474 1333 1520Q1610 1568 1823.5 1547.0Q2037 1526 2198.5 1450.5Q2360 1375 2479.5 1260.5Q2599 1146 2687.0 1006.0Q2775 866 2843.0 715.5Q2911 565 2969 419Q2874 319 2726.5 234.0Q2579 149 2395.5 79.5Q2212 10 2008.5 -45.5Q1805 -101 1598.0 -142.0Q1391 -183 1195.5 -211.0Q1000 -239 832.0 -254.5Q664 -270 541 -273ZM690 73Q831 82 981.5 99.5Q1132 117 1285.5 142.0Q1439 167 1588.5 199.5Q1738 232 1877.5 270.0Q2017 308 2140.5 351.5Q2264 395 2364.5 442.0Q2465 489 2537 539Q2480 673 2413.5 791.0Q2347 909 2259.0 1001.5Q2171 1094 2051.5 1152.0Q1932 1210 1770.5 1225.0Q1609 1240 1393 1202Q1171 1162 1017.0 1059.0Q863 956 776.0 804.5Q689 653 667.5 466.5Q646 280 690 73ZM1102 1392 1081 1537Q1071 1602 1113.0 1653.0Q1155 1704 1231 1717L1351 1737Q1425 1749 1483.5 1715.0Q1542 1681 1551 1618L1565 1510ZM3139 -415Q2963 -415 2781.5 -370.0Q2600 -325 2418.0 -253.0Q2236 -181 2059.5 -97.5Q1883 -14 1718 65L2197 194Q2463 73 2699.0 -7.5Q2935 -88 3127 -88Q3187 -88 3241.0 -73.0Q3295 -58 3340.0 -31.0Q3385 -4 3419.0 32.5Q3453 69 3475 112L2694 342L2705 668L3737 356Q3831 328 3866.5 262.0Q3902 196 3855 78Q3827 11 3766.0 -73.5Q3705 -158 3613.5 -236.0Q3522 -314 3402.5 -364.5Q3283 -415 3139 -415Z" transform="translate(-3.6503,20.3922) scale(0.011719,-0.011719)"/>
  </g>
</svg>
