<svg xmlns="http://www.w3.org/2000/svg" viewBox="0 0 14.3203 14.3203" width="24.0000" height="24.0000">
  <g fill="black" stroke="black" stroke-width="0.25">
    <path d="M156 682Q156 723 161.5 763.0Q167 803 178 841Q241 825 296 799L288 785Q278 766 283.5 747.0Q289 728 306 719Q323 709 341.5 713.5Q360 718 371 737L380 752Q389 745 399.0 737.0Q409 729 419 722L413 717Q400 703 400.0 683.0Q400 663 415 649Q430 635 449.0 634.5Q468 634 483 649L488 654Q498 642 508.5 629.0Q519 616 528 604L520 599Q502 589 497.5 568.5Q493 548 504 532Q513 516 531.0 510.0Q549 504 567 514L576 519Q582 505 588.0 491.5Q594 478 599 464L584 460Q565 455 555.0 437.5Q545 420 551 401Q556 380 573.5 371.0Q591 362 609 367L624 371Q627 356 628.5 342.0Q630 328 631 314H617Q597 314 583.0 299.0Q569 284 569 265Q569 244 583.5 230.0Q598 216 617 216H630Q625 152 606 93Q477 129 375.5 215.5Q274 302 215.0 422.5Q156 543 156 682ZM767 71Q748 71 729.5 72.5Q711 74 693 76Q703 110 710.0 145.0Q717 180 721 216H744Q764 216 778.5 230.5Q793 245 793 265Q793 284 778.5 299.0Q764 314 744 314H722Q721 334 718.5 354.5Q716 375 713 394L733 400Q752 404 761.5 422.0Q771 440 766 459Q760 480 742.5 488.5Q725 497 707 492L689 487Q682 507 674.0 526.5Q666 546 656 565L679 578Q698 588 702.0 608.0Q706 628 697 643Q686 662 666.5 666.5Q647 671 632 662L609 649Q596 668 582.0 685.5Q568 703 554 719L573 739Q589 754 587.5 773.5Q586 793 573 805Q557 821 537.5 821.0Q518 821 505 808L483 787Q470 798 455.5 809.0Q441 820 425 830L436 847Q446 866 441.0 884.5Q436 903 418 912Q399 923 380.0 918.0Q361 913 351 896L340 878Q309 894 275.5 905.5Q242 917 207 925Q254 1033 338.5 1116.0Q423 1199 532.5 1246.0Q642 1293 767 1293Q784 1293 801.5 1292.0Q819 1291 836 1290Q827 1255 820.0 1220.0Q813 1185 810 1149H789Q769 1148 755.0 1134.0Q741 1120 741 1099Q740 1081 753.5 1066.5Q767 1052 788 1052H808Q810 1034 812.0 1015.5Q814 997 817 979L789 972Q768 965 759.0 948.0Q750 931 756 912Q760 894 776.0 883.5Q792 873 813 878L840 885Q846 865 854.5 843.5Q863 822 873 802L851 789Q835 780 830.5 761.0Q826 742 835 724Q844 707 863.0 701.5Q882 696 899 706L921 718Q933 700 945.5 684.0Q958 668 973 651L959 638Q945 625 945.0 606.0Q945 587 961 571Q973 559 992.5 557.5Q1012 556 1028 571L1041 584Q1057 571 1073.5 559.0Q1090 547 1108 536L1097 518Q1087 500 1092.0 480.5Q1097 461 1113 451Q1131 441 1151.0 446.0Q1171 451 1180 469L1191 490Q1225 475 1259.0 463.0Q1293 451 1329 443Q1282 334 1197.5 250.0Q1113 166 1002.5 118.5Q892 71 767 71ZM1378 682Q1378 601 1358 526Q1293 540 1236 566L1244 579Q1254 597 1248.5 616.0Q1243 635 1226 645Q1209 656 1189.5 650.5Q1170 645 1161 627L1153 613Q1141 622 1129.5 631.0Q1118 640 1107 649L1119 660Q1135 677 1132.5 696.5Q1130 716 1118 728Q1105 742 1085.5 743.0Q1066 744 1049 728L1039 718Q1018 743 1002 767L1010 771Q1026 780 1032.0 797.5Q1038 815 1028 835Q1018 853 998.5 858.5Q979 864 962 853L955 849Q947 865 941.0 879.5Q935 894 929 909L937 912Q958 917 966.5 935.0Q975 953 970 969Q965 988 948.5 999.0Q932 1010 911 1004L905 1003Q903 1016 901.5 1027.5Q900 1039 899 1052H917Q936 1052 950.0 1065.5Q964 1079 964 1099Q964 1119 950.5 1133.5Q937 1148 916 1148H898Q902 1180 908.0 1211.0Q914 1242 924 1273Q1054 1238 1157.0 1152.5Q1260 1067 1319.0 945.5Q1378 824 1378 682Z" transform="translate(-1.8281,15.1523) scale(0.011719,-0.011719)"/>
  </g>
</svg>
