<svg xmlns="http://www.w3.org/2000/svg" viewBox="0 0 15.1841 15.1758" width="24.0131" height="24.0000">
  <g fill="black" stroke="black" stroke-width="0.25">
    <path d="M158 652Q201 716 253.5 772.0Q306 828 369 877Q368 934 341.0 975.5Q314 1017 260 1033Q209 953 179.5 844.5Q150 736 158 652ZM464 943Q472 948 481.5 953.5Q491 959 502 965Q491 1042 494.0 1115.0Q497 1188 524 1267Q407 1208 323 1115Q379 1104 415.0 1052.0Q451 1000 464 943ZM595 1010Q611 1018 626.5 1024.0Q642 1030 658 1035Q657 1044 656.5 1052.5Q656 1061 656 1073Q656 1150 698.0 1219.0Q740 1288 823 1329Q789 1329 736.0 1324.0Q683 1319 644 1308Q612 1240 599.5 1171.0Q587 1102 595 1010ZM761 1064Q813 1077 866.5 1083.0Q920 1089 975 1089Q1078 1089 1177.5 1067.0Q1277 1045 1363 1007Q1302 1113 1204.0 1190.5Q1106 1268 986 1304Q868 1276 814.5 1206.5Q761 1137 761 1064ZM184 497Q212 404 267.5 322.5Q323 241 397 179Q353 261 343.5 353.5Q334 446 341.0 542.0Q348 638 357 729Q307 679 264.0 622.0Q221 565 184 497ZM469 824Q466 722 452.5 626.5Q439 531 439.0 438.5Q439 346 475.5 253.0Q512 160 609 64Q655 49 704.0 41.5Q753 34 804 34Q833 34 860.5 36.0Q888 38 916 43Q744 250 648.5 464.0Q553 678 519 858Q505 849 493.0 840.0Q481 831 469 824ZM610 906Q631 791 680.5 653.0Q730 515 814.5 366.5Q899 218 1027 72Q1113 105 1187.5 160.0Q1262 215 1317 288Q1308 387 1253.0 460.0Q1198 533 1119.0 591.0Q1040 649 955.0 701.5Q870 754 798.5 810.0Q727 866 689 936Q669 931 649.5 923.5Q630 916 610 906ZM797 967Q832 915 894.5 870.0Q957 825 1032.0 779.5Q1107 734 1180.0 682.5Q1253 631 1310.0 566.0Q1367 501 1394 416Q1422 476 1437.0 543.5Q1452 611 1452 682Q1452 727 1446.0 771.0Q1440 815 1427 855Q1320 920 1209.0 953.0Q1098 986 975 986Q930 986 885.0 981.0Q840 976 797 967Z" transform="translate(-1.8316,15.5742) scale(0.011719,-0.011719)"/>
  </g>
</svg>
