<svg xmlns="http://www.w3.org/2000/svg" viewBox="0 0 41.6953 25.3659" width="39.4501" height="24.0000">
  <g fill="black" stroke="black" stroke-width="0.25">
    <path d="M311 1429Q311 1528 357.5 1608.0Q404 1688 483.0 1734.5Q562 1781 661 1781H3519Q3617 1781 3696.5 1734.5Q3776 1688 3822.5 1608.0Q3869 1528 3869 1429Q3869 1329 3822.5 1249.5Q3776 1170 3696.5 1124.0Q3617 1078 3519 1078H661Q562 1078 483.0 1124.0Q404 1170 357.5 1249.5Q311 1329 311 1429ZM648 1429Q648 1408 662.0 1394.5Q676 1381 697 1381H3481Q3502 1381 3516.0 1394.5Q3530 1408 3530 1429Q3530 1449 3516.0 1463.0Q3502 1477 3481 1477H697Q676 1477 662.0 1463.0Q648 1449 648 1429ZM1363 -59Q968 -59 759.5 139.5Q551 338 551 716V1317H920V716Q920 505 1026.0 408.0Q1132 311 1363 311H2816Q3047 311 3153.5 408.0Q3260 505 3260 716V1317H3629V716Q3629 338 3420.0 139.5Q3211 -59 2816 -59ZM976 -372Q904 -346 872.0 -276.0Q840 -206 866 -134L999 234L1347 107L1214 -262Q1188 -333 1117.5 -365.5Q1047 -398 976 -372ZM3204 -372Q3132 -398 3061.5 -365.5Q2991 -333 2965 -262L2832 107L3180 234L3314 -135Q3340 -207 3307.0 -277.0Q3274 -347 3204 -372Z" transform="translate(-3.6445,20.8711) scale(0.011719,-0.011719)"/>
  </g>
</svg>
