<svg xmlns="http://www.w3.org/2000/svg" viewBox="0 0 15.2578 10.5469" width="34.7200" height="24.0000">
  <g fill="black" stroke="black" stroke-width="0.25">
    <path d="M156 279V585Q156 667 200.0 710.0Q244 753 326 753H1288Q1371 753 1414.5 710.0Q1458 667 1458 585V279Q1458 233 1411 233H1378Q1357 233 1343.0 245.5Q1329 258 1329 279V343Q1326 342 1313.0 341.0Q1300 340 1288 340H326Q314 340 301.5 341.0Q289 342 285 343V279Q285 258 271.5 245.5Q258 233 237 233H203Q156 233 156 279ZM284 843V982Q284 1056 323.5 1094.5Q363 1133 438 1133H1176Q1252 1133 1291.5 1094.5Q1331 1056 1331 982V843H1192V903Q1192 942 1171.5 961.5Q1151 981 1112 981H939Q901 981 880.5 961.5Q860 942 860 903V843H754V903Q754 942 734.0 961.5Q714 981 675 981H503Q464 981 443.0 961.5Q422 942 422 903V843Z" transform="translate(-1.8281,13.2773) scale(0.011719,-0.011719)"/>
  </g>
</svg>
