<svg xmlns="http://www.w3.org/2000/svg" viewBox="0 0 14.5664 15.9492" width="21.9192" height="24.0000">
  <g fill="black" stroke="black" stroke-width="0.25">
    <path d="M288 294Q228 294 192.0 328.0Q156 362 156 415Q156 472 188.5 515.0Q221 558 267 595Q291 614 304.0 647.0Q317 680 324.5 725.0Q332 770 339 822Q354 972 413.5 1078.5Q473 1185 583 1226Q607 1288 658.0 1325.5Q709 1363 778 1363Q846 1363 897.0 1325.5Q948 1288 972 1226Q1082 1185 1141.0 1078.5Q1200 972 1216 822Q1224 770 1231.0 725.0Q1238 680 1251.0 647.0Q1264 614 1289 595Q1334 559 1366.5 515.5Q1399 472 1399 415Q1399 362 1363.0 328.0Q1327 294 1267 294ZM778 2Q686 2 625.0 56.0Q564 110 560 185H996Q991 110 930.0 56.0Q869 2 778 2Z" transform="translate(-1.8281,15.9727) scale(0.011719,-0.011719)"/>
  </g>
</svg>
