<svg xmlns="http://www.w3.org/2000/svg" viewBox="0 0 63.5309 29.0273" width="52.5278" height="24.0000">
  <g fill="black" stroke="black" stroke-width="0.25">
    <path d="M1627 382Q1559 324 1493.5 320.0Q1428 316 1377.0 348.5Q1326 381 1301.5 435.5Q1277 490 1289.5 551.0Q1302 612 1363 663L2767 1823Q2882 1920 3023 1920Q3164 1920 3279 1823L4682 663Q4744 612 4756.0 551.0Q4768 490 4743.5 435.5Q4719 381 4668.5 348.5Q4618 316 4552.5 320.0Q4487 324 4418 382L3107 1465Q3088 1481 3066.0 1490.0Q3044 1499 3023 1499Q3002 1499 2980.0 1490.0Q2958 1481 2939 1465ZM1896 -557Q1729 -557 1634.5 -464.5Q1540 -372 1540 -214V605L1930 880V-62Q1930 -112 1957.0 -139.5Q1984 -167 2033 -167H4013Q4062 -167 4089.0 -139.5Q4116 -112 4116 -62V880L4506 605V-214Q4506 -372 4411.5 -464.5Q4317 -557 4149 -557ZM2668 -358V339Q2668 384 2695.5 410.5Q2723 437 2767 437H3280Q3325 437 3351.0 410.5Q3377 384 3377 339V-358ZM511 319Q435 319 386.0 358.0Q337 397 320.0 455.0Q303 513 322.0 573.0Q341 633 400 675L1219 1266Q1256 1293 1302.0 1307.5Q1348 1322 1396 1322H2645L2205 962H1433Q1423 962 1414.0 959.5Q1405 957 1397 951L1020 678H1584V319ZM898 -557Q731 -557 636.0 -464.5Q541 -372 541 -214V565L932 840V-62Q932 -112 959.0 -139.5Q986 -167 1035 -167H2033V-557ZM4462 319V678H5026L4649 951Q4641 957 4631.5 959.5Q4622 962 4612 962H3841L3401 1322H4650Q4698 1322 4743.5 1307.5Q4789 1293 4826 1266L5646 675Q5705 633 5723.5 573.0Q5742 513 5725.5 455.0Q5709 397 5660.0 358.0Q5611 319 5534 319ZM4013 -557V-167H5010Q5059 -167 5086.5 -139.5Q5114 -112 5114 -62V840L5504 565V-214Q5504 -372 5409.5 -464.5Q5315 -557 5148 -557Z" transform="translate(-3.6559,22.5000) scale(0.011719,-0.011719)"/>
  </g>
</svg>
