<svg xmlns="http://www.w3.org/2000/svg" viewBox="0 0 35.1533 31.7939" width="26.5359" height="24.0000">
  <g fill="black" stroke="black" stroke-width="0.25">
    <path d="M2070 -667Q2018 -676 1977.0 -646.0Q1936 -616 1925 -560Q1915 -507 1907.5 -459.5Q1900 -412 1895.0 -367.0Q1890 -322 1886 -274L1309 120Q1237 83 1151.5 58.5Q1066 34 957 34Q872 34 776.5 68.0Q681 102 593.0 162.0Q505 222 440.5 300.5Q376 379 353 468Q327 569 318.0 676.0Q309 783 312 893L686 726Q732 704 776.0 721.5Q820 739 841 785Q861 829 843.0 873.5Q825 918 781 938L353 1130Q409 1324 529.5 1494.0Q650 1664 826.5 1790.5Q1003 1917 1226 1984V1673Q1226 1620 1260.0 1587.0Q1294 1554 1344 1554Q1392 1554 1426.0 1587.5Q1460 1621 1460 1673V2033Q1493 2038 1526.0 2040.0Q1559 2042 1593 2044V1611Q1593 1559 1627.5 1526.0Q1662 1493 1713 1493Q1762 1493 1795.0 1527.0Q1828 1561 1828 1612V2037Q1862 2033 1895.0 2029.0Q1928 2025 1962 2018V1672Q1962 1620 1996.5 1586.5Q2031 1553 2080 1553Q2129 1553 2162.5 1587.0Q2196 1621 2196 1673V1957Q2428 1878 2616.0 1735.0Q2804 1592 2929.5 1398.0Q3055 1204 3100 972Q3109 922 3122.5 881.0Q3136 840 3156.5 804.0Q3177 768 3207 734Q3247 686 3270.0 656.5Q3293 627 3302.0 602.5Q3311 578 3311 545Q3311 460 3245.5 389.0Q3180 318 3030.0 275.5Q2880 233 2627 233Q2524 233 2435.5 244.0Q2347 255 2270.0 271.0Q2193 287 2125 301Q2124 238 2123.5 177.0Q2123 116 2123.0 56.5Q2123 -3 2124 -62Q2124 -161 2135.5 -280.5Q2147 -400 2169 -517Q2179 -572 2151.0 -616.0Q2123 -660 2070 -667ZM1545 256 1870 37Q1868 110 1868.5 187.5Q1869 265 1871 348H1862Q1799 348 1744.5 336.0Q1690 324 1641.0 303.0Q1592 282 1545 256Z" transform="translate(-3.6475,23.9531) scale(0.011719,-0.011719)"/>
  </g>
</svg>
