<svg xmlns="http://www.w3.org/2000/svg" viewBox="0 0 40.4883 30.1992" width="32.1769" height="24.0000">
  <g fill="black" stroke="black" stroke-width="0.25">
    <path d="M2038 -39Q1976 -39 1932.0 5.0Q1888 49 1888 111V694L1423 1162Q1350 1237 1328.5 1338.5Q1307 1440 1348 1538Q1389 1634 1475.0 1692.5Q1561 1751 1667 1751H2296Q2375 1751 2438.5 1713.0Q2502 1675 2539.5 1611.5Q2577 1548 2577 1469V1039H2945Q3006 1039 3050.0 994.5Q3094 950 3094 888Q3094 825 3050.0 780.5Q3006 736 2945 736H2427Q2364 736 2319.5 780.5Q2275 825 2275 888V1207Q2275 1229 2267.0 1241.5Q2259 1254 2233 1254H1833Q1823 1254 1818.0 1244.0Q1813 1234 1821 1225L2148 859Q2189 814 2189 757V111Q2189 49 2145.0 5.0Q2101 -39 2038 -39ZM1046 -604Q894 -604 761.0 -547.0Q628 -490 526.5 -389.0Q425 -288 368.0 -155.0Q311 -22 311 131Q311 283 368.0 416.0Q425 549 526.5 650.0Q628 751 761.0 808.0Q894 865 1046 865Q1198 865 1330.5 808.0Q1463 751 1564.0 650.0Q1665 549 1722.5 416.0Q1780 283 1780 131Q1780 -22 1722.5 -155.0Q1665 -288 1564.0 -389.0Q1463 -490 1330.5 -547.0Q1198 -604 1046 -604ZM1046 -351Q1180 -351 1289.0 -286.5Q1398 -222 1462.0 -113.0Q1526 -4 1526 131Q1526 265 1462.0 373.5Q1398 482 1289.0 546.5Q1180 611 1046 611Q912 611 802.5 546.5Q693 482 629.0 373.5Q565 265 565 131Q565 -4 629.0 -113.0Q693 -222 802.5 -286.5Q912 -351 1046 -351ZM3352 487Q3297 536 3297.5 589.0Q3298 642 3330 677Q3362 711 3414.0 717.5Q3466 724 3514 683Q3630 582 3698.0 438.5Q3766 295 3766 131Q3766 -22 3708.5 -155.0Q3651 -288 3550.0 -389.0Q3449 -490 3316.0 -547.0Q3183 -604 3031 -604Q2879 -604 2746.0 -547.0Q2613 -490 2512.0 -389.0Q2411 -288 2354.0 -155.0Q2297 -22 2297 131Q2297 209 2314.0 285.0Q2331 361 2361 430Q2386 486 2433.5 502.5Q2481 519 2522 503Q2567 487 2593.0 438.0Q2619 389 2589 320Q2551 231 2551 131Q2551 -4 2615.0 -113.0Q2679 -222 2788.0 -286.5Q2897 -351 3031 -351Q3165 -351 3274.0 -286.5Q3383 -222 3447.5 -113.0Q3512 -4 3512 131Q3512 238 3469.0 329.5Q3426 421 3352 487ZM2976 1372Q2893 1372 2824.5 1412.5Q2756 1453 2715.5 1521.5Q2675 1590 2675 1673Q2675 1755 2715.5 1823.5Q2756 1892 2824.5 1932.5Q2893 1973 2976 1973Q3059 1973 3127.0 1932.5Q3195 1892 3236.0 1823.5Q3277 1755 3277 1673Q3277 1590 3236.0 1521.5Q3195 1453 3127.0 1412.5Q3059 1372 2976 1372Z" transform="translate(-3.6445,23.1211) scale(0.011719,-0.011719)"/>
  </g>
</svg>
