<svg xmlns="http://www.w3.org/2000/svg" viewBox="0 0 18.8906 11.9883" width="37.8182" height="24.0000">
  <g fill="black" stroke="black" stroke-width="0.25">
    <path d="M475 228Q387 228 314.5 271.0Q242 314 199.0 386.5Q156 459 156 547Q156 635 199.0 707.5Q242 780 314.5 823.0Q387 866 475 866Q564 866 636.5 823.0Q709 780 752.0 707.5Q795 635 795 547Q795 459 752.0 386.5Q709 314 636.5 271.0Q564 228 475 228ZM476 350Q530 350 575.0 376.5Q620 403 646.5 448.0Q673 493 673 549Q673 603 646.5 648.0Q620 693 575.0 719.5Q530 746 476 746Q421 746 375.5 719.5Q330 693 303.5 648.0Q277 603 277 549Q277 493 303.5 448.0Q330 403 375.5 376.5Q421 350 476 350ZM476 463Q440 463 414.5 488.0Q389 513 389 550Q389 586 414.5 611.0Q440 636 476 636Q512 636 537.0 611.0Q562 586 562 550Q562 513 537.0 488.0Q512 463 476 463ZM1448 228Q1360 228 1287.5 271.0Q1215 314 1172.0 386.5Q1129 459 1129 547Q1129 635 1172.0 707.5Q1215 780 1287.5 823.0Q1360 866 1448 866Q1537 866 1609.5 823.0Q1682 780 1725.0 707.5Q1768 635 1768 547Q1768 459 1725.0 386.5Q1682 314 1609.5 271.0Q1537 228 1448 228ZM1449 350Q1504 350 1549.0 376.5Q1594 403 1620.5 448.0Q1647 493 1647 549Q1647 603 1620.5 648.0Q1594 693 1549.0 719.5Q1504 746 1449 746Q1394 746 1349.0 719.5Q1304 693 1277.5 648.0Q1251 603 1251 549Q1251 493 1277.5 448.0Q1304 403 1349.0 376.5Q1394 350 1449 350ZM1449 463Q1413 463 1387.5 488.0Q1362 513 1362 550Q1362 586 1387.5 611.0Q1413 636 1449 636Q1485 636 1510.0 611.0Q1535 586 1535 550Q1535 513 1510.0 488.0Q1485 463 1449 463ZM573 1051Q548 1051 530.5 1069.0Q513 1087 513 1111Q513 1136 530.5 1154.0Q548 1172 573 1172H783Q808 1172 825.5 1154.0Q843 1136 843 1111Q843 1088 825.0 1069.5Q807 1051 783 1051ZM454 624 707 910 613 1076 736 1100 821 948 1204 997 1149 1130H1040Q1013 1130 995.5 1147.5Q978 1165 978 1191Q978 1215 996.5 1233.0Q1015 1251 1040 1251H1172Q1226 1251 1245 1205L1487 616L1379 566L1256 869L996 566Q976 542 955.0 531.5Q934 521 899 521H760V636H859L772 793L551 556ZM884 835 960 701 1118 882Z" transform="translate(-1.8281,14.6602) scale(0.011719,-0.011719)"/>
  </g>
</svg>
