<svg xmlns="http://www.w3.org/2000/svg" viewBox="0 0 18.6562 13.6875" width="32.7123" height="24.0000">
  <g fill="black" stroke="black" stroke-width="0.25">
    <path d="M156 443Q156 354 203.0 283.5Q250 213 330.0 171.5Q410 130 508 130Q606 130 686.0 171.5Q766 213 813.5 283.5Q861 354 861 443V550Q902 561 952 561Q1004 561 1043 552V441Q1043 353 1090.5 282.5Q1138 212 1218.0 170.5Q1298 129 1396 129Q1494 129 1574.0 170.5Q1654 212 1701.0 282.5Q1748 353 1748 441Q1748 473 1741.5 509.0Q1735 545 1721 580L1496 1132Q1463 1212 1403.5 1254.0Q1344 1296 1264 1296Q1164 1296 1103.5 1235.0Q1043 1174 1043 1073V1051Q1023 1056 999.5 1058.0Q976 1060 952 1060Q907 1060 861 1051V1074Q861 1174 800.5 1235.5Q740 1297 640 1297Q560 1297 500.5 1255.0Q441 1213 408 1133L183 581Q169 546 162.5 510.5Q156 475 156 443ZM339 443Q339 502 385.5 539.0Q432 576 508 576Q583 576 630.5 539.0Q678 502 678 443Q678 384 630.5 348.0Q583 312 508 312Q432 312 385.5 348.0Q339 384 339 443ZM1226 441Q1226 501 1273.0 538.0Q1320 575 1396 575Q1472 575 1518.5 538.0Q1565 501 1565 441Q1565 383 1518.5 347.5Q1472 312 1396 312Q1320 312 1273.0 347.5Q1226 383 1226 441ZM860 733V865Q901 875 952 875Q1005 875 1043 865V735Q1006 745 952 745Q900 745 860 733Z" transform="translate(-1.8281,15.1992) scale(0.011719,-0.011719)"/>
  </g>
</svg>
