<svg xmlns="http://www.w3.org/2000/svg" viewBox="0 0 14.5061 16.1293" width="21.5847" height="24.0000">
  <g fill="black" stroke="black" stroke-width="0.25">
    <path d="M1024 1037Q1080 1037 1127.0 1013.0Q1174 989 1203.5 951.0Q1233 913 1238 871L1366 816Q1390 806 1392.5 785.0Q1395 764 1381.5 747.5Q1368 731 1345 735L1197 758Q1173 733 1139.5 713.5Q1106 694 1063 682L1065 656Q1074 547 1044.5 471.5Q1015 396 963.5 348.5Q912 301 852.5 277.5Q793 254 741 249V77Q741 57 734.0 42.0Q727 27 699 16Q633 -6 548.0 8.5Q463 23 389.0 62.5Q315 102 280 156Q270 171 266.5 193.0Q263 215 282 230Q343 278 400.0 333.5Q457 389 506.0 454.5Q555 520 592 597Q497 609 415.0 654.5Q333 700 273.0 771.5Q213 843 181.5 931.5Q150 1020 156 1117Q157 1142 169.0 1171.5Q181 1201 229 1198Q344 1189 456.5 1147.5Q569 1106 669.0 1041.0Q769 976 847 900Q869 948 895.5 978.0Q922 1008 954.0 1022.5Q986 1037 1024 1037ZM565 1188Q567 1218 573.5 1249.0Q580 1280 588 1313Q600 1359 636.0 1373.5Q672 1388 711 1365Q788 1320 852.0 1256.0Q916 1192 966 1109Q926 1100 892.0 1078.0Q858 1056 829 1021Q770 1070 703.5 1111.5Q637 1153 565 1188ZM1042 876Q1042 859 1054.5 847.5Q1067 836 1082 836Q1098 836 1110.0 847.5Q1122 859 1122 876Q1122 892 1110.0 903.5Q1098 915 1082 915Q1067 915 1054.5 903.5Q1042 892 1042 876Z" transform="translate(-1.8169,16.1614) scale(0.011719,-0.011719)"/>
  </g>
</svg>
