<svg xmlns="http://www.w3.org/2000/svg" viewBox="0 0 15.4219 15.4219" width="24.0000" height="24.0000">
  <g fill="black" stroke="black" stroke-width="0.25">
    <path d="M814 25Q679 25 560.0 77.0Q441 129 350.0 220.0Q259 311 207.5 430.0Q156 549 156 684Q156 819 207.5 938.0Q259 1057 350.0 1147.5Q441 1238 560.0 1289.5Q679 1341 814 1341Q949 1341 1068.5 1289.5Q1188 1238 1278.5 1147.5Q1369 1057 1420.5 938.0Q1472 819 1472 684Q1472 550 1420.5 430.5Q1369 311 1278.0 220.0Q1187 129 1068.0 77.0Q949 25 814 25Z" transform="translate(-1.8281,15.7148) scale(0.011719,-0.011719)"/>
  </g>
</svg>
