<svg xmlns="http://www.w3.org/2000/svg" viewBox="0 0 30.8203 30.1758" width="24.5126" height="24.0000">
  <g fill="black" stroke="black" stroke-width="0.25">
    <path d="M665 1672Q767 1762 887.5 1831.0Q1008 1900 1141 1941Q1089 1858 1045.0 1747.0Q1001 1636 968 1497Q792 1562 665 1672ZM1167 1443Q1198 1584 1239.5 1689.5Q1281 1795 1330.5 1865.5Q1380 1936 1434 1970V1410Q1365 1414 1298.0 1421.5Q1231 1429 1167 1443ZM1639 1410V1970Q1693 1936 1742.5 1865.5Q1792 1795 1833.5 1689.5Q1875 1584 1905 1443Q1842 1429 1775.0 1421.5Q1708 1414 1639 1410ZM2104 1497Q2072 1636 2028.0 1747.0Q1984 1858 1931 1941Q2064 1900 2185.0 1831.0Q2306 1762 2408 1672Q2280 1562 2104 1497ZM221 786Q238 998 317.5 1187.0Q397 1376 526 1530Q607 1452 709.5 1393.5Q812 1335 930 1294Q913 1182 903.0 1054.5Q893 927 889 786ZM1098 786Q1101 913 1109.5 1026.5Q1118 1140 1132 1241Q1204 1226 1279.5 1217.5Q1355 1209 1434 1205V786ZM1639 786V1205Q1717 1209 1793.0 1217.5Q1869 1226 1941 1241Q1955 1140 1964.0 1026.5Q1973 913 1975 786ZM2183 786Q2180 927 2170.0 1054.5Q2160 1182 2143 1294Q2260 1335 2362.5 1393.5Q2465 1452 2546 1530Q2676 1376 2755.0 1187.0Q2834 998 2851 786ZM527 -165Q397 -11 317.5 179.0Q238 369 221 581H889Q892 438 902.5 310.0Q913 182 930 70Q812 29 710.0 -29.5Q608 -88 527 -165ZM1132 124Q1117 224 1108.0 339.0Q1099 454 1097 581H1434V159Q1277 152 1132 124ZM1639 159V581H1975Q1973 454 1964.5 339.0Q1956 224 1941 124Q1796 152 1639 159ZM2143 70Q2160 182 2170.5 310.0Q2181 438 2183 581H2851Q2834 369 2754.5 179.0Q2675 -11 2546 -165Q2464 -88 2362.0 -29.5Q2260 29 2143 70ZM1140 -575Q1007 -533 887.0 -465.0Q767 -397 666 -306Q793 -196 968 -133Q1001 -271 1044.0 -381.5Q1087 -492 1140 -575ZM1434 -605Q1380 -571 1330.5 -501.0Q1281 -431 1239.0 -325.0Q1197 -219 1166 -78Q1292 -53 1434 -46ZM1639 -605V-46Q1781 -53 1905 -78Q1875 -219 1833.5 -325.0Q1792 -431 1742.5 -501.0Q1693 -571 1639 -605ZM1932 -575Q1985 -492 2029.0 -381.5Q2073 -271 2104 -133Q2279 -196 2407 -306Q2305 -397 2185.0 -465.0Q2065 -533 1932 -575Z" transform="translate(-2.5898,23.0859) scale(0.011719,-0.011719)"/>
  </g>
</svg>
