<svg xmlns="http://www.w3.org/2000/svg" viewBox="0 0 34.7227 34.7344" width="23.9919" height="24.0000">
  <g fill="black" stroke="black" stroke-width="0.25">
    <path d="M1700 1259Q1626 1259 1573.0 1312.0Q1520 1365 1520 1439V1989Q1520 2064 1573.0 2117.0Q1626 2170 1700 2170Q1775 2170 1828.0 2117.0Q1881 2064 1881 1989V1439Q1881 1365 1828.0 1312.0Q1775 1259 1700 1259ZM2104 1091Q2051 1144 2051.0 1219.0Q2051 1294 2104 1346L2492 1736Q2546 1788 2621.0 1788.0Q2696 1788 2748 1736Q2801 1683 2801.0 1608.0Q2801 1533 2748 1480L2359 1091Q2306 1039 2231.0 1039.0Q2156 1039 2104 1091ZM2271 688Q2271 763 2324.0 815.5Q2377 868 2452 868H3002Q3076 868 3129.0 815.0Q3182 762 3182 688Q3182 614 3129.0 560.5Q3076 507 3002 507H2452Q2377 507 2324.0 560.0Q2271 613 2271 688ZM2104 284Q2156 337 2231.0 337.0Q2306 337 2359 284L2748 -104Q2801 -157 2801.0 -232.5Q2801 -308 2748 -360Q2696 -412 2621.0 -412.0Q2546 -412 2492 -360L2104 30Q2051 82 2051.0 157.0Q2051 232 2104 284ZM1700 117Q1775 117 1828.0 64.0Q1881 11 1881 -63V-613Q1881 -688 1828.0 -741.0Q1775 -794 1700 -794Q1626 -794 1573.0 -741.0Q1520 -688 1520 -613V-63Q1520 11 1573.0 64.0Q1626 117 1700 117ZM1297 284Q1350 232 1349.5 157.0Q1349 82 1297 30L908 -360Q855 -412 780.0 -412.0Q705 -412 653 -360Q600 -308 600.0 -232.5Q600 -157 653 -104L1042 284Q1094 337 1169.0 337.0Q1244 337 1297 284ZM1130 688Q1130 613 1076.5 560.0Q1023 507 949 507H399Q325 507 272.0 560.5Q219 614 219 688Q219 762 272.0 815.0Q325 868 399 868H949Q1023 868 1076.5 815.5Q1130 763 1130 688ZM1297 1091Q1244 1039 1169.0 1039.0Q1094 1039 1042 1091L653 1480Q600 1533 600.0 1608.0Q600 1683 653 1736Q705 1788 780.0 1788.0Q855 1788 908 1736L1297 1346Q1349 1294 1349.5 1219.0Q1350 1144 1297 1091Z" transform="translate(-2.5664,25.4297) scale(0.011719,-0.011719)"/>
  </g>
</svg>
