<svg xmlns="http://www.w3.org/2000/svg" viewBox="0 0 44.1556 29.6016" width="35.7999" height="24.0000">
  <g fill="black" stroke="black" stroke-width="0.25">
    <path d="M775 -456Q553 -456 432.5 -335.5Q312 -215 312 5V1358Q312 1579 431.0 1699.5Q550 1820 762 1820H2990Q3162 1820 3273.5 1746.5Q3385 1673 3428 1537Q3367 1581 3295.0 1603.0Q3223 1625 3149 1625Q3050 1625 2963.0 1583.5Q2876 1542 2829 1460Q2822 1460 2815.0 1460.0Q2808 1460 2801 1460H949Q938 1460 927.5 1460.0Q917 1460 907 1460L1797 656Q1840 618 1882 618Q1925 618 1968 656L2256 916V507L2156 419Q2088 357 2024.0 330.0Q1960 303 1882 303Q1805 303 1741.0 330.0Q1677 357 1609 419L1482 532L855 -95Q881 -97 906 -97H2263Q2268 -198 2294.0 -288.0Q2320 -378 2362 -456ZM671 154 1254 737 671 1263Q671 1253 671.0 1244.0Q671 1235 671 1225V194Q671 184 671.0 174.0Q671 164 671 154ZM3158 -706Q2961 -706 2801.5 -622.5Q2642 -539 2548.5 -384.5Q2455 -230 2455 -17V940Q2455 995 2491.0 1031.5Q2527 1068 2582 1068Q2637 1068 2672.5 1031.5Q2708 995 2708 940V349Q2723 356 2738.0 363.5Q2753 371 2769 377V1224Q2769 1279 2805.0 1315.5Q2841 1352 2896 1352Q2951 1352 2987.0 1315.5Q3023 1279 3023 1224V442Q3049 445 3083 448V1293Q3083 1349 3119.0 1385.0Q3155 1421 3210 1421Q3265 1421 3301.0 1385.0Q3337 1349 3337 1293V439Q3372 431 3396 422V1174Q3396 1229 3432.5 1266.0Q3469 1303 3524 1303Q3579 1303 3615.0 1266.5Q3651 1230 3651 1174V192Q3651 175 3656.5 169.5Q3662 164 3670 164Q3678 164 3683.5 169.0Q3689 174 3696 189L3826 481Q3850 535 3892.0 562.0Q3934 589 3991 576Q4039 566 4063.0 525.5Q4087 485 4077 432Q4071 401 4054.5 345.5Q4038 290 4017.0 225.5Q3996 161 3977 102Q3964 60 3941.0 -8.5Q3918 -77 3885.5 -157.5Q3853 -238 3810.5 -316.0Q3768 -394 3716 -455Q3612 -579 3476.5 -642.5Q3341 -706 3158 -706Z" transform="translate(-3.6562,21.3281) scale(0.011719,-0.011719)"/>
  </g>
</svg>
