<svg xmlns="http://www.w3.org/2000/svg" viewBox="0 0 24.4336 41.6484" width="14.0799" height="24.0000">
  <g fill="black" stroke="black" stroke-width="0.25">
    <path d="M764 -546Q550 -546 430.5 -425.5Q311 -305 311 -92V1677Q311 1891 430.5 2011.0Q550 2131 764 2131H1021V2134Q1021 2282 1112.5 2373.0Q1204 2464 1354 2465Q1504 2464 1595.5 2373.0Q1687 2282 1687 2134V2131H1944Q2157 2131 2276.5 2011.0Q2396 1891 2396 1677V-92Q2396 -305 2276.5 -425.5Q2157 -546 1944 -546ZM819 -151H1889Q1941 -151 1971.5 -120.5Q2002 -90 2002 -39V1624Q2002 1675 1971.5 1705.5Q1941 1736 1889 1736H819Q767 1736 736.5 1705.5Q706 1675 706 1624V-39Q706 -90 736.5 -120.5Q767 -151 819 -151ZM1355 2041Q1392 2041 1418.0 2067.5Q1444 2094 1444 2132Q1444 2169 1418.0 2195.5Q1392 2222 1355 2222Q1317 2222 1290.5 2195.5Q1264 2169 1264 2132Q1264 2094 1290.5 2067.5Q1317 2041 1355 2041ZM976 6Q924 6 893.5 35.5Q863 65 863 116V1295Q863 1346 893.5 1375.5Q924 1405 976 1405H1732Q1784 1405 1814.5 1375.5Q1845 1346 1845 1295V116Q1845 65 1814.5 35.5Q1784 6 1732 6ZM1212 204H1497Q1529 204 1549.0 223.5Q1569 243 1569 272Q1569 303 1549.0 324.0Q1529 345 1497 345H1212Q1181 345 1160.5 324.0Q1140 303 1140 272Q1140 243 1160.5 223.5Q1181 204 1212 204ZM1125 471H1583Q1613 471 1633.5 492.0Q1654 513 1654 544Q1654 574 1633.5 594.0Q1613 614 1583 614H1125Q1094 614 1074.0 594.0Q1054 574 1054 544Q1054 513 1074.0 492.0Q1094 471 1125 471ZM1355 756Q1423 756 1471.0 802.5Q1519 849 1519 917Q1519 956 1503.0 992.5Q1487 1029 1469 1063L1398 1193Q1378 1230 1355.0 1229.5Q1332 1229 1311 1193L1240 1063Q1221 1029 1205.5 992.5Q1190 956 1190 917Q1190 849 1238.5 802.5Q1287 756 1355 756ZM1626 -1089Q1403 -1089 1275.5 -966.5Q1148 -844 1148 -625V-341H1507V-613Q1507 -672 1540.5 -701.5Q1574 -731 1637 -731H2218Q2292 -731 2344.0 -783.5Q2396 -836 2396 -911Q2396 -984 2344.0 -1036.5Q2292 -1089 2218 -1089Z" transform="translate(-3.6445,28.8867) scale(0.011719,-0.011719)"/>
  </g>
</svg>
