<svg xmlns="http://www.w3.org/2000/svg" viewBox="0 0 11.9180 17.7796" width="16.0876" height="24.0000">
  <g fill="black" stroke="black" stroke-width="0.25">
    <path d="M156 611Q156 644 179 669L797 1414Q830 1453 868.5 1451.0Q907 1449 928.5 1418.0Q950 1387 932 1339L742 845H1099Q1130 845 1151.5 824.5Q1173 804 1173 774Q1173 741 1150 716L532 -29Q499 -68 460.5 -66.0Q422 -64 400.5 -33.0Q379 -2 397 46L587 541H230Q199 541 177.5 561.0Q156 581 156 611Z" transform="translate(-1.8281,17.0050) scale(0.011719,-0.011719)"/>
  </g>
</svg>
