<svg xmlns="http://www.w3.org/2000/svg" viewBox="0 0 10.6172 15.8320" width="16.0947" height="24.0000">
  <g fill="black" stroke="black" stroke-width="0.25">
    <path d="M275 7Q307 7 332.5 22.0Q358 37 392 69L605 282Q609 288 613 282L827 69Q861 37 886.0 22.0Q911 7 942 7Q995 7 1028.5 42.0Q1062 77 1062 135V1148Q1062 1248 1007.0 1303.0Q952 1358 853 1358H365Q266 1358 211.0 1303.0Q156 1248 156 1148V135Q156 77 189.5 42.0Q223 7 275 7Z" transform="translate(-1.8281,15.9141) scale(0.011719,-0.011719)"/>
  </g>
</svg>
