<svg xmlns="http://www.w3.org/2000/svg" viewBox="0 0 14.2617 10.9922" width="31.1386" height="24.0000">
  <g fill="black" stroke="black" stroke-width="0.25">
    <path d="M446 1151Q530 1151 601.5 1118.0Q673 1085 707 1032Q719 1014 719 995V244Q719 219 693 219Q681 219 669 229Q628 262 580.5 277.5Q533 293 484 293Q384 293 302 239Q279 225 264.0 219.0Q249 213 228 213Q156 213 156 286V955Q156 978 158.5 990.5Q161 1003 171 1019Q203 1077 282.0 1114.0Q361 1151 446 1151ZM1083 1151Q1168 1151 1247.0 1114.0Q1326 1077 1358 1019Q1368 1004 1370.5 991.0Q1373 978 1373 955V286Q1373 213 1301 213Q1280 213 1265.0 219.0Q1250 225 1227 239Q1145 293 1045 293Q997 293 949.0 277.5Q901 262 860 229Q848 219 836 219Q810 219 810 244V995Q810 1014 822 1032Q856 1085 927.5 1118.0Q999 1151 1083 1151Z" transform="translate(-1.8281,13.4883) scale(0.011719,-0.011719)"/>
  </g>
</svg>
