<svg xmlns="http://www.w3.org/2000/svg" viewBox="0 0 17.4931 13.7303" width="30.5772" height="24.0000">
  <g fill="black" stroke="black" stroke-width="0.25">
    <path d="M156 223Q156 175 183.5 148.0Q211 121 261 121H355Q401 121 428.0 148.0Q455 175 455 223V1031Q455 1079 428.0 1106.5Q401 1134 355 1134H261Q211 1134 183.5 1106.5Q156 1079 156 1031ZM526 223Q526 175 553.5 148.0Q581 121 629 121H799Q846 121 873.0 148.0Q900 175 900 223V827Q900 875 873.0 903.0Q846 931 799 931H629Q581 931 553.5 903.0Q526 875 526 827ZM623 299Q623 319 636.0 332.0Q649 345 667 345H763Q807 345 807 299Q807 280 794.5 267.0Q782 254 763 254H667Q648 254 635.5 267.0Q623 280 623 299ZM623 751Q623 770 635.5 783.5Q648 797 667 797H763Q785 797 796.0 783.5Q807 770 807 751Q807 734 794.5 721.0Q782 708 763 708H667Q649 708 636.0 721.0Q623 734 623 751ZM972 223Q972 121 1074 121H1173Q1222 121 1249.0 148.0Q1276 175 1276 223V755L1383 201Q1391 155 1423.5 133.5Q1456 112 1502 121L1567 135Q1614 143 1634.5 175.5Q1655 208 1646 256L1496 1048Q1487 1096 1455.0 1117.5Q1423 1139 1375 1129L1276 1107V1187Q1276 1290 1173 1290H1074Q972 1290 972 1187Z" transform="translate(-1.8281,15.1172) scale(0.011719,-0.011719)"/>
  </g>
</svg>
