<svg xmlns="http://www.w3.org/2000/svg" viewBox="0 0 16.6641 15.7500" width="25.3929" height="24.0000">
  <g fill="black" stroke="black" stroke-width="0.25">
    <path d="M619 9Q696 9 741.5 44.5Q787 80 787 139Q787 196 754.5 229.5Q722 263 670 263Q623 263 604.0 287.5Q585 312 585 358V485Q585 578 520.0 644.5Q455 711 340 735V633Q455 645 520.0 710.0Q585 775 585 878V1004Q585 1050 604.0 1074.5Q623 1099 670 1099Q722 1099 754.5 1132.5Q787 1166 787 1223Q787 1282 742.0 1317.5Q697 1353 619 1353Q474 1353 393.5 1266.0Q313 1179 313 1021V900Q313 862 301.5 848.5Q290 835 267 830Q211 815 183.0 773.0Q155 731 155.0 681.0Q155 631 183.0 589.0Q211 547 267 532Q290 527 301.5 512.0Q313 497 313 459V341Q313 182 393.5 95.5Q474 9 619 9ZM1112 9Q1257 9 1337.5 95.5Q1418 182 1418 341V459Q1418 497 1429.5 512.0Q1441 527 1464 532Q1521 546 1549.0 588.0Q1577 630 1577.0 681.0Q1577 732 1549.0 774.0Q1521 816 1464 830Q1441 835 1429.5 848.5Q1418 862 1418 900V1021Q1418 1179 1337.5 1266.0Q1257 1353 1112 1353Q1034 1353 989.0 1317.5Q944 1282 944 1223Q944 1166 977.0 1132.5Q1010 1099 1062 1099Q1108 1099 1127.5 1074.5Q1147 1050 1147 1004V878Q1147 775 1211.5 710.0Q1276 645 1392 633V735Q1276 711 1211.5 644.5Q1147 578 1147 485V358Q1147 312 1127.5 287.5Q1108 263 1062 263Q1010 263 977.0 229.5Q944 196 944 139Q944 80 990.0 44.5Q1036 9 1112 9Z" transform="translate(-1.8164,15.8555) scale(0.011719,-0.011719)"/>
  </g>
</svg>
