<svg xmlns="http://www.w3.org/2000/svg" viewBox="0 0 40.9570 34.4766" width="28.5112" height="24.0000">
  <g fill="black" stroke="black" stroke-width="0.25">
    <path d="M219 740Q219 894 271.5 1035.0Q324 1176 422.5 1289.5Q521 1403 658 1476L833 1188Q746 1146 683.5 1078.0Q621 1010 587.5 924.0Q554 838 554 741Q554 589 619.5 475.0Q685 361 804.0 298.5Q923 236 1083 236Q1238 236 1353.5 289.5Q1469 343 1532.5 440.0Q1596 537 1596 666Q1596 724 1581.5 766.5Q1567 809 1538 835Q1488 882 1460.5 908.0Q1433 934 1421.5 959.0Q1410 984 1410 1028Q1410 1094 1456.5 1136.5Q1503 1179 1573 1179Q1620 1179 1657.5 1162.5Q1695 1146 1743 1105Q1833 1030 1880.0 917.0Q1927 804 1927 662Q1927 435 1820.0 264.0Q1713 93 1522.0 -2.5Q1331 -98 1078 -98Q822 -98 628.5 7.0Q435 112 327.0 301.0Q219 490 219 740ZM553 1433Q553 1597 634.5 1725.0Q716 1853 854.0 1926.0Q992 1999 1163 1999Q1291 1999 1417.5 1953.0Q1544 1907 1651 1820L1453 1546Q1387 1604 1312.5 1634.0Q1238 1664 1162 1664Q1083 1664 1021.5 1635.0Q960 1606 924.0 1554.0Q888 1502 888 1433Q888 1368 916.0 1320.5Q944 1273 995.5 1247.5Q1047 1222 1118 1222Q1187 1222 1236.5 1172.5Q1286 1123 1286 1054Q1286 985 1236.5 935.5Q1187 886 1118 886Q950 886 823.0 955.0Q696 1024 624.5 1147.0Q553 1270 553 1433ZM1247 1489Q1249 1685 1340.0 1835.0Q1431 1985 1586.5 2069.5Q1742 2154 1936 2154Q2069 2154 2190.0 2104.5Q2311 2055 2399 1968Q2416 1969 2430.5 1970.5Q2445 1972 2457 1972Q2597 1972 2721.0 1918.5Q2845 1865 2939.0 1768.5Q3033 1672 3086.5 1542.0Q3140 1412 3140 1259Q3140 1094 3098.0 974.5Q3056 855 2987.0 768.5Q2918 682 2835.0 618.5Q2752 555 2669.5 503.5Q2587 452 2518.0 402.5Q2449 353 2406.5 295.0Q2364 237 2364 158Q2364 47 2457.0 -12.0Q2550 -71 2712 -71Q2739 -71 2755.0 -71.0Q2771 -71 2781.0 -71.0Q2791 -71 2800 -71Q2833 -71 2854.0 -90.5Q2875 -110 2875 -142Q2875 -223 2894.5 -293.5Q2914 -364 2949.5 -408.0Q2985 -452 3035 -452Q3085 -452 3132.0 -403.0Q3179 -354 3209.0 -252.5Q3239 -151 3239 5Q3239 117 3230.5 205.0Q3222 293 3212 382L3544 471Q3556 377 3564.5 270.5Q3573 164 3573 0Q3573 -170 3535.0 -313.5Q3497 -457 3426.0 -563.5Q3355 -670 3256.0 -729.0Q3157 -788 3035 -788Q2926 -788 2837.5 -733.0Q2749 -678 2687.5 -584.0Q2626 -490 2600 -374Q2592 -374 2583.0 -374.5Q2574 -375 2566 -375Q2401 -375 2275.0 -311.0Q2149 -247 2077.5 -131.5Q2006 -16 2006 139Q2006 268 2049.5 363.0Q2093 458 2164.0 530.0Q2235 602 2320.5 661.5Q2406 721 2491.0 779.0Q2576 837 2647.0 903.5Q2718 970 2761.5 1056.0Q2805 1142 2805 1259Q2805 1368 2752.0 1453.0Q2699 1538 2612.5 1587.0Q2526 1636 2424 1637Q2364 1637 2317 1625Q2282 1617 2254.5 1625.0Q2227 1633 2211 1664Q2177 1733 2101.5 1776.5Q2026 1820 1935 1820Q1833 1820 1754.5 1776.0Q1676 1732 1629.5 1653.5Q1583 1575 1579 1473Q1576 1399 1530.0 1354.0Q1484 1309 1413 1309Q1341 1309 1293.5 1359.0Q1246 1409 1247 1489ZM2752 211Q2752 282 2803.0 332.5Q2854 383 2924 377Q3063 363 3165.0 404.5Q3267 446 3322.5 533.0Q3378 620 3378 745Q3378 867 3326.0 954.0Q3274 1041 3180.5 1082.5Q3087 1124 2963 1110L3021 1455Q3226 1434 3382.5 1337.0Q3539 1240 3626.5 1087.0Q3714 934 3714 745Q3714 518 3613.5 353.5Q3513 189 3333.5 107.0Q3154 25 2916 43Q2846 48 2799.0 95.0Q2752 142 2752 211ZM2162 135 2279 -187Q2178 -223 2072.5 -241.0Q1967 -259 1863 -259Q1675 -259 1511.5 -199.5Q1348 -140 1236 -39L1575 196Q1611 157 1663.0 130.0Q1715 103 1776.5 89.0Q1838 75 1902 75Q1970 75 2037.0 90.5Q2104 106 2162 135ZM1646 953Q1830 966 1909.0 1035.0Q1988 1104 1980 1254Q1976 1323 2024.0 1372.5Q2072 1422 2141 1422Q2210 1422 2261.5 1372.5Q2313 1323 2315 1254Q2324 992 2180.0 831.5Q2036 671 1760 629Z" transform="translate(-2.5664,25.2422) scale(0.011719,-0.011719)"/>
  </g>
</svg>
