<svg xmlns="http://www.w3.org/2000/svg" viewBox="0 0 30.7383 36.0352" width="20.4722" height="24.0000">
  <g fill="black" stroke="black" stroke-width="0.25">
    <path d="M1826 -853Q1580 -853 1403.0 -793.0Q1226 -733 1131.0 -619.0Q1036 -505 1036 -345V-249L1246 -379L1059 -398Q824 -423 685.5 -312.5Q547 -202 547 20V152Q426 172 368.5 242.0Q311 312 311 402Q311 453 327.0 508.0Q343 563 373 617L551 933Q549 954 548.5 975.5Q548 997 548 1021Q548 1291 633.0 1511.5Q718 1732 876.0 1891.5Q1034 2051 1252.5 2136.5Q1471 2222 1739 2222Q2007 2222 2226.5 2134.5Q2446 2047 2604.5 1884.5Q2763 1722 2848.5 1496.5Q2934 1271 2934 995Q2934 767 2854.0 565.5Q2774 364 2630 228V-345Q2630 -506 2532.5 -619.0Q2435 -732 2255.0 -792.5Q2075 -853 1826 -853ZM1826 -506Q1970 -506 2071.5 -480.5Q2173 -455 2227.0 -409.5Q2281 -364 2281 -303L2280 403Q2422 474 2504.0 633.5Q2586 793 2586 995Q2586 1193 2525.5 1355.0Q2465 1517 2353.0 1633.5Q2241 1750 2085.0 1812.5Q1929 1875 1739 1875Q1549 1875 1393.5 1814.5Q1238 1754 1126.5 1641.0Q1015 1528 954.5 1371.5Q894 1215 894 1024Q894 983 898.0 944.5Q902 906 910 866L710 510Q697 483 697 462Q697 440 712.0 427.0Q727 414 758 414H826Q858 414 876.0 395.5Q894 377 894 349V46Q894 -8 926.0 -33.0Q958 -58 1023 -52L1275 -24Q1316 -20 1343.0 -44.0Q1370 -68 1370 -108V-303Q1370 -364 1423.5 -409.5Q1477 -455 1579.0 -480.5Q1681 -506 1826 -506ZM1031 1177Q1031 1274 1080.5 1356.5Q1130 1439 1216 1485L1292 1360Q1238 1334 1207.0 1285.5Q1176 1237 1176 1178Q1176 1085 1234.5 1029.0Q1293 973 1390 973Q1484 973 1540.5 1021.0Q1597 1069 1597 1147Q1597 1190 1574 1213Q1544 1242 1532.5 1254.0Q1521 1266 1521 1295Q1521 1323 1541.0 1341.5Q1561 1360 1591 1360Q1627 1360 1663 1329Q1701 1298 1720.5 1250.5Q1740 1203 1740 1144Q1740 1003 1642.5 916.0Q1545 829 1388 829Q1228 829 1129.5 925.0Q1031 1021 1031 1177ZM1169 1461Q1169 1562 1241.5 1629.5Q1314 1697 1423 1697Q1478 1697 1530.5 1677.0Q1583 1657 1626 1621L1542 1503Q1516 1527 1485.5 1539.5Q1455 1552 1423 1552Q1375 1552 1344.5 1526.5Q1314 1501 1314 1461Q1314 1422 1338.5 1400.0Q1363 1378 1405 1378Q1434 1378 1455.5 1356.5Q1477 1335 1477 1306Q1477 1276 1455.5 1254.5Q1434 1233 1405 1233Q1299 1233 1234.0 1296.0Q1169 1359 1169 1461ZM1455 1483Q1456 1606 1537.5 1682.5Q1619 1759 1740 1759Q1794 1759 1844.0 1739.5Q1894 1720 1931 1684Q1937 1685 1943.0 1685.0Q1949 1685 1955 1685Q2033 1685 2097.5 1646.0Q2162 1607 2199.5 1540.0Q2237 1473 2237 1390Q2237 1310 2214.0 1255.0Q2191 1200 2155.0 1162.5Q2119 1125 2078.0 1098.5Q2037 1072 2001.0 1049.0Q1965 1026 1942.0 1000.0Q1919 974 1919 938Q1919 895 1954.5 870.5Q1990 846 2058 846Q2075 846 2081.5 846.0Q2088 846 2094 846Q2128 846 2128 814Q2128 761 2147.0 725.5Q2166 690 2192 690Q2221 690 2246.5 735.5Q2272 781 2272 875Q2272 922 2268.0 958.5Q2264 995 2260 1031L2403 1070Q2409 1031 2412.0 986.5Q2415 942 2415 873Q2415 726 2352.5 635.5Q2290 545 2192 545Q2127 545 2077.0 592.5Q2027 640 2010 716Q2007 716 2004.0 716.0Q2001 716 1998 716Q1894 716 1829.5 775.0Q1765 834 1765 929Q1765 993 1788.5 1036.5Q1812 1080 1849.5 1112.0Q1887 1144 1929.0 1171.0Q1971 1198 2008.5 1227.5Q2046 1257 2070.0 1295.5Q2094 1334 2094 1390Q2094 1452 2049.0 1496.0Q2004 1540 1941 1540Q1930 1540 1920.5 1539.5Q1911 1539 1902 1537Q1864 1528 1850 1554Q1836 1582 1805.5 1599.5Q1775 1617 1740 1617Q1678 1617 1638.5 1578.0Q1599 1539 1596 1477Q1595 1446 1575.5 1426.5Q1556 1407 1525 1407Q1493 1407 1473.5 1428.5Q1454 1450 1455 1483ZM2069 962Q2069 992 2090.5 1014.0Q2112 1036 2142 1033Q2226 1025 2275.5 1065.5Q2325 1106 2325 1180Q2325 1255 2278.0 1296.5Q2231 1338 2155 1327L2179 1476Q2307 1464 2388.5 1381.5Q2470 1299 2470 1180Q2470 1039 2378.0 958.5Q2286 878 2139 889Q2109 892 2089.0 912.5Q2069 933 2069 962ZM1834 932 1885 793Q1844 779 1799.5 771.0Q1755 763 1710 763Q1631 763 1562.5 788.5Q1494 814 1446 858L1591 960Q1610 935 1647.0 920.5Q1684 906 1726 906Q1754 906 1782.5 913.0Q1811 920 1834 932ZM1617 1268Q1692 1272 1725.5 1299.0Q1759 1326 1755 1388Q1753 1418 1774.0 1439.0Q1795 1460 1825 1460Q1854 1460 1876.0 1439.0Q1898 1418 1900 1388Q1903 1277 1841.5 1210.5Q1780 1144 1665 1128Z" transform="translate(-3.6445,26.0391) scale(0.011719,-0.011719)"/>
  </g>
</svg>
