<svg xmlns="http://www.w3.org/2000/svg" viewBox="0 0 14.6484 13.0312" width="26.9784" height="24.0000">
  <g fill="black" stroke="black" stroke-width="0.25">
    <path d="M348 192Q255 192 205.5 242.0Q156 292 156 385V898Q156 991 205.5 1041.0Q255 1091 348 1091H1213Q1307 1091 1356.5 1041.0Q1406 991 1406 898V385Q1406 292 1356.5 242.0Q1307 192 1213 192ZM697 517H864Q945 517 945 592V631Q1053 640 1163.0 663.0Q1273 686 1406 736V877Q1264 817 1103.0 785.5Q942 754 781 754Q620 754 459.0 785.5Q298 817 156 877V736Q289 686 399.0 663.0Q509 640 617 631V592Q617 517 697 517ZM434 1056V1153Q434 1225 478.5 1264.5Q523 1304 605 1304H957Q1039 1304 1083.5 1264.5Q1128 1225 1128 1153V1056H975V1149Q975 1171 947 1171H616Q587 1171 587 1149V1056Z" transform="translate(-1.8281,15.2812) scale(0.011719,-0.011719)"/>
  </g>
</svg>
