<svg xmlns="http://www.w3.org/2000/svg" viewBox="0 0 32.7656 32.7656" width="24.0000" height="24.0000">
  <g fill="black" stroke="black" stroke-width="0.25">
    <path d="M1617 2079Q1674 2079 1713.5 2038.5Q1753 1998 1753 1941V1512Q1753 1455 1713.5 1414.5Q1674 1374 1617 1374Q1559 1374 1519.5 1414.5Q1480 1455 1480 1512V1941Q1480 1998 1519.5 2038.5Q1559 2079 1617 2079ZM2316 1892Q2366 1863 2380.0 1808.0Q2394 1753 2365 1704L2151 1333Q2122 1282 2068.0 1267.5Q2014 1253 1964 1282Q1913 1311 1899.0 1365.0Q1885 1419 1913 1469L2128 1841Q2157 1890 2211.5 1905.5Q2266 1921 2316 1892ZM2828 1380Q2857 1330 2841.5 1275.5Q2826 1221 2777 1192L2405 977Q2355 949 2301.0 963.0Q2247 977 2218 1027Q2189 1078 2203.5 1132.0Q2218 1186 2269 1215L2640 1429Q2689 1458 2744.0 1444.0Q2799 1430 2828 1380ZM3015 681Q3015 623 2974.5 583.5Q2934 544 2877 544H2448Q2390 544 2350.0 583.5Q2310 623 2310 681Q2310 738 2350.0 777.5Q2390 817 2448 817H2877Q2934 817 2974.5 777.5Q3015 738 3015 681ZM2828 -18Q2799 -68 2744.0 -82.5Q2689 -97 2640 -68L2269 146Q2218 175 2203.5 229.5Q2189 284 2218 334Q2247 384 2301.0 398.0Q2355 412 2405 384L2777 169Q2826 140 2841.5 86.0Q2857 32 2828 -18ZM2316 -529Q2266 -559 2211.5 -544.0Q2157 -529 2128 -480L1913 -108Q1885 -58 1899.0 -3.5Q1913 51 1964 80Q2014 109 2068.0 94.0Q2122 79 2151 29L2365 -343Q2394 -392 2380.0 -446.5Q2366 -501 2316 -529ZM1617 -717Q1559 -717 1519.5 -677.0Q1480 -637 1480 -580V-151Q1480 -93 1519.5 -53.0Q1559 -13 1617 -13Q1674 -13 1713.5 -53.0Q1753 -93 1753 -151V-580Q1753 -637 1713.5 -677.0Q1674 -717 1617 -717ZM918 -531Q868 -502 853.5 -447.0Q839 -392 868 -343L1082 29Q1111 79 1165.5 93.5Q1220 108 1270 80Q1320 51 1334.0 -3.5Q1348 -58 1320 -108L1105 -480Q1076 -529 1022.0 -544.5Q968 -560 918 -531ZM407 -19Q377 31 392.0 85.5Q407 140 456 169L828 384Q878 412 932.5 398.0Q987 384 1016 334Q1045 283 1030.0 229.0Q1015 175 965 146L593 -68Q544 -97 489.5 -82.5Q435 -68 407 -19ZM219 681Q219 738 259.0 777.5Q299 817 356 817H785Q843 817 883.0 777.5Q923 738 923 681Q923 623 883.0 583.5Q843 544 785 544H356Q299 544 259.0 583.5Q219 623 219 681ZM405 1380Q434 1430 489.0 1444.0Q544 1458 593 1429L965 1215Q1015 1186 1029.5 1132.0Q1044 1078 1016 1027Q987 977 932.5 963.0Q878 949 828 977L456 1192Q407 1221 391.5 1275.5Q376 1330 405 1380ZM917 1892Q967 1921 1021.5 1905.5Q1076 1890 1105 1841L1320 1469Q1348 1419 1334.0 1365.0Q1320 1311 1270 1282Q1219 1253 1165.0 1267.5Q1111 1282 1082 1333L868 1704Q839 1753 853.0 1808.0Q867 1863 917 1892Z" transform="translate(-2.5664,24.3633) scale(0.011719,-0.011719)"/>
  </g>
</svg>
