<svg xmlns="http://www.w3.org/2000/svg" viewBox="0 0 36.6680 31.2891" width="28.1258" height="24.0000">
  <g fill="black" stroke="black" stroke-width="0.25">
    <path d="M1322 -338Q1259 -260 1230.0 -166.0Q1201 -72 1201 27Q1201 169 1253.5 292.0Q1306 415 1399.0 508.5Q1492 602 1614.0 654.5Q1736 707 1875 707Q2015 707 2137.0 654.5Q2259 602 2352.0 508.5Q2445 415 2497.5 292.0Q2550 169 2550 27Q2550 -72 2520.5 -166.0Q2491 -260 2429 -338H2002Q2064 -312 2117.0 -258.0Q2170 -204 2202.5 -130.5Q2235 -57 2235 26Q2235 103 2206.5 169.0Q2178 235 2128.5 284.5Q2079 334 2014.0 362.0Q1949 390 1875 390Q1802 390 1737.0 362.0Q1672 334 1622.5 284.5Q1573 235 1544.5 169.0Q1516 103 1516 26Q1516 -57 1548.5 -130.5Q1581 -204 1633.5 -258.0Q1686 -312 1749 -338ZM616 -17Q555 -17 511.0 25.0Q467 67 467 126Q467 186 510.5 228.0Q554 270 616 270H831Q893 270 936.5 228.0Q980 186 980 126Q980 67 936.5 25.0Q893 -17 831 -17ZM1243 660Q1201 618 1140.0 620.0Q1079 622 1036 665L883 815Q839 859 838.5 920.0Q838 981 880 1023Q922 1064 982.0 1063.5Q1042 1063 1086 1018L1239 867Q1282 824 1283.0 763.0Q1284 702 1243 660ZM2508 660Q2466 702 2467.0 763.0Q2468 824 2512 867L2664 1018Q2709 1063 2769.0 1064.0Q2829 1065 2871 1023Q2912 981 2912.0 920.0Q2912 859 2868 815L2715 665Q2672 622 2611.0 620.5Q2550 619 2508 660ZM2920 -17Q2859 -17 2815.0 25.0Q2771 67 2771 126Q2770 186 2814.5 228.0Q2859 270 2920 270H3135Q3197 270 3240.5 228.0Q3284 186 3284 126Q3284 67 3240.5 25.0Q3197 -17 3135 -17ZM487 -652Q415 -652 363.0 -597.0Q311 -542 311 -472Q311 -401 362.5 -347.0Q414 -293 487 -293H3264Q3338 -293 3389.0 -346.0Q3440 -399 3440 -472Q3440 -543 3388.5 -597.5Q3337 -652 3264 -652ZM1875 1855 1692 1560 1593 1446Q1571 1419 1543.5 1401.0Q1516 1383 1478 1383Q1421 1383 1383.5 1421.0Q1346 1459 1346 1512Q1346 1546 1363.5 1575.5Q1381 1605 1408 1630L1767 1969Q1819 2018 1876 2018Q1933 2018 1984 1969L2344 1630Q2371 1605 2388.5 1575.5Q2406 1546 2406 1512Q2406 1459 2368.0 1421.0Q2330 1383 2274 1383Q2236 1383 2208.5 1401.0Q2181 1419 2159 1446L2064 1556ZM1987 1788 2019 1455V1106Q2019 1046 1976.5 1002.0Q1934 958 1875 958Q1816 958 1774.0 1002.0Q1732 1046 1732 1106L1733 1455L1764 1788Q1768 1834 1798.5 1867.0Q1829 1900 1875 1900Q1921 1900 1952.0 1867.0Q1983 1834 1987 1788Z" transform="translate(-3.6445,23.6484) scale(0.011719,-0.011719)"/>
  </g>
</svg>
