<svg xmlns="http://www.w3.org/2000/svg" viewBox="0 0 15.6328 15.6211" width="24.0180" height="24.0000">
  <g fill="black" stroke="black" stroke-width="0.25">
    <path d="M1362 641Q1415 641 1452.5 678.0Q1490 715 1490 769V1174Q1490 1348 1315 1348H911Q858 1348 821.0 1310.0Q784 1272 784 1219Q784 1166 821.0 1129.0Q858 1092 911 1092H950L1067 1114L864 933Q818 892 819.5 829.5Q821 767 864 723Q908 680 970.5 678.5Q1033 677 1074 723L1257 927L1235 811V769Q1235 715 1272.0 678.0Q1309 641 1362 641ZM735 15Q788 15 825.5 53.0Q863 91 863 144Q863 197 825.5 234.0Q788 271 735 271H696L579 249L782 430Q829 471 827.5 533.5Q826 596 782 640Q738 683 675.5 684.5Q613 686 572 640L389 436L412 552V594Q412 648 374.5 685.0Q337 722 284 722Q231 722 193.5 685.0Q156 648 156 594V189Q156 15 331 15Z" transform="translate(-1.8281,15.7969) scale(0.011719,-0.011719)"/>
  </g>
</svg>
