<svg xmlns="http://www.w3.org/2000/svg" viewBox="0 0 13.4637 18.6445" width="17.3310" height="24.0000">
  <g fill="black" stroke="black" stroke-width="0.25">
    <path d="M159 315 207 3Q213 -32 231.0 -53.0Q249 -74 284 -74Q317 -74 339.0 -50.5Q361 -27 356 15L314 287Q310 312 318.0 328.0Q326 344 351 354Q358 357 365.0 358.5Q372 360 378 362Q377 353 376.5 343.0Q376 333 376 324Q376 215 424.5 119.0Q473 23 554.0 -37.5Q635 -98 731 -98Q827 -98 907.5 -37.5Q988 23 1037.0 119.0Q1086 215 1086 324Q1086 333 1085.0 343.0Q1084 353 1083 362Q1089 360 1096.0 358.5Q1103 357 1110 354Q1135 344 1143.5 328.0Q1152 312 1147 287L1105 15Q1100 -27 1122.0 -50.5Q1144 -74 1177 -74Q1213 -74 1230.5 -53.0Q1248 -32 1254 3L1302 315Q1313 387 1283.0 429.0Q1253 471 1174 489L885 553Q898 558 910.5 570.0Q923 582 930 599L1137 619Q1213 626 1250.0 672.5Q1287 719 1287 797V1005Q1287 1078 1212 1078Q1139 1078 1139 1005V828Q1139 785 1117.5 769.0Q1096 753 1058 750L942 739Q933 772 908 789Q993 804 1035.0 853.5Q1077 903 1077 978Q1077 1028 1063.5 1074.5Q1050 1121 1024 1160L1039 1171Q1157 1252 1082 1389L1052 1448Q1028 1493 987 1493Q959 1493 940.5 1475.5Q922 1458 922 1432Q922 1408 934 1391L957 1349Q970 1325 969.0 1303.5Q968 1282 952 1270L935 1259Q891 1290 838.5 1307.5Q786 1325 731 1325Q675 1325 622.5 1307.5Q570 1290 526 1259L510 1270Q494 1282 493.0 1303.5Q492 1325 505 1349L527 1391Q539 1408 539 1432Q539 1458 520.5 1475.5Q502 1493 474 1493Q433 1493 409 1448L379 1389Q305 1251 422 1171L437 1160Q411 1121 398.0 1074.5Q385 1028 385 978Q385 903 426.5 853.5Q468 804 553 789Q528 772 519 739L403 750Q365 753 343.5 769.0Q322 785 322 828V1005Q322 1078 250 1078Q174 1078 174 1005V797Q174 719 211.0 672.5Q248 626 324 619L531 599Q538 582 550.5 570.0Q563 558 576 553L287 489Q208 471 178.0 429.0Q148 387 159 315Z" transform="translate(-1.8287,17.4961) scale(0.011719,-0.011719)"/>
  </g>
</svg>
