<svg xmlns="http://www.w3.org/2000/svg" viewBox="0 0 30.9023 30.9023" width="24.0000" height="24.0000">
  <g fill="black" stroke="black" stroke-width="0.25">
    <path d="M1537 -74Q1380 -74 1243.0 -15.5Q1106 43 1002.0 147.0Q898 251 839.5 388.0Q781 525 781 682Q781 839 839.5 976.0Q898 1113 1002.0 1217.0Q1106 1321 1243.0 1379.5Q1380 1438 1537 1438Q1694 1438 1831.0 1379.5Q1968 1321 2072.0 1217.0Q2176 1113 2234.5 976.0Q2293 839 2293 682Q2293 525 2234.5 388.0Q2176 251 2072.0 147.0Q1968 43 1831.0 -15.5Q1694 -74 1537 -74ZM1537 254Q1626 254 1703.5 287.0Q1781 320 1840.0 379.0Q1899 438 1932.5 515.5Q1966 593 1966 682Q1966 771 1932.5 848.5Q1899 926 1840.0 985.0Q1781 1044 1703.5 1077.5Q1626 1111 1537 1111Q1448 1111 1370.5 1077.5Q1293 1044 1234.0 985.0Q1175 926 1141.5 848.5Q1108 771 1108 682Q1108 593 1141.5 515.5Q1175 438 1234.0 379.0Q1293 320 1370.5 287.0Q1448 254 1537 254ZM1537 420Q1464 420 1404.5 455.0Q1345 490 1309.5 550.0Q1274 610 1274 683Q1274 755 1309.5 815.0Q1345 875 1404.5 910.5Q1464 946 1537 946Q1610 946 1669.5 910.5Q1729 875 1764.5 815.0Q1800 755 1800 683Q1800 610 1764.5 550.0Q1729 490 1669.5 455.0Q1610 420 1537 420ZM1537 -635Q1319 -635 1121.0 -568.5Q923 -502 758.5 -381.0Q594 -260 473.0 -95.0Q352 70 285.5 267.5Q219 465 219 683Q219 902 285.5 1099.5Q352 1297 473.0 1462.0Q594 1627 758.5 1748.0Q923 1869 1121.0 1935.5Q1319 2002 1537 2002Q1755 2002 1953.0 1935.5Q2151 1869 2315.5 1748.0Q2480 1627 2601.0 1462.0Q2722 1297 2789.0 1099.5Q2856 902 2856 683Q2856 465 2789.0 267.5Q2722 70 2601.0 -95.0Q2480 -260 2315.5 -381.0Q2151 -502 1953.0 -568.5Q1755 -635 1537 -635ZM1537 -239Q1728 -239 1895.5 -167.5Q2063 -96 2189.5 31.0Q2316 158 2388.0 325.0Q2460 492 2460 683Q2460 875 2388.0 1042.0Q2316 1209 2189.5 1336.0Q2063 1463 1895.5 1534.5Q1728 1606 1537 1606Q1346 1606 1178.5 1534.5Q1011 1463 884.5 1336.0Q758 1209 686.0 1042.0Q614 875 614 683Q614 492 686.0 325.0Q758 158 884.5 31.0Q1011 -96 1178.5 -167.5Q1346 -239 1537 -239Z" transform="translate(-2.5664,23.4609) scale(0.011719,-0.011719)"/>
  </g>
</svg>
