<svg xmlns="http://www.w3.org/2000/svg" viewBox="0 0 14.3672 11.0156" width="31.3021" height="24.0000">
  <g fill="black" stroke="black" stroke-width="0.25">
    <path d="M569 939Q531 939 503.0 966.5Q475 994 475 1034Q475 1073 502.0 1100.5Q529 1128 569 1128H1287Q1327 1128 1354.5 1100.5Q1382 1073 1382 1034Q1382 994 1354.5 966.5Q1327 939 1287 939ZM569 235Q530 235 502.5 262.5Q475 290 475 330Q475 369 503.0 396.5Q531 424 569 424H1287Q1327 424 1354.5 396.5Q1382 369 1382 330Q1382 290 1354.5 262.5Q1327 235 1287 235ZM569 587Q531 587 503.0 614.5Q475 642 475 682Q475 721 502.5 748.5Q530 776 569 776H1287Q1327 776 1354.5 748.5Q1382 721 1382 682Q1382 642 1354.5 614.5Q1327 587 1287 587ZM274 916Q226 916 191.0 951.0Q156 986 156 1034Q156 1082 191.0 1117.0Q226 1152 274 1152Q322 1152 357.0 1117.0Q392 1082 392 1034Q392 986 357.0 951.0Q322 916 274 916ZM274 564Q226 564 191.0 599.0Q156 634 156 682Q156 730 191.0 765.0Q226 800 274 800Q322 800 357.0 765.0Q392 730 392 682Q392 634 357.0 599.0Q322 564 274 564ZM274 212Q226 212 191.0 247.0Q156 282 156 330Q156 378 191.0 413.0Q226 448 274 448Q322 448 357.0 412.5Q392 377 392 330Q392 282 357.0 247.0Q322 212 274 212Z" transform="translate(-1.8281,13.5000) scale(0.011719,-0.011719)"/>
  </g>
</svg>
