<svg xmlns="http://www.w3.org/2000/svg" viewBox="0 0 14.5781 13.1953" width="26.5151" height="24.0000">
  <g fill="black" stroke="black" stroke-width="0.25">
    <path d="M374 119Q270 119 213.0 175.0Q156 231 156 335V1030Q156 1133 213.0 1189.0Q270 1245 374 1245H1183Q1286 1245 1343.0 1189.0Q1400 1133 1400 1030V335Q1400 231 1343.0 175.0Q1286 119 1183 119ZM394 300H1162Q1190 300 1204.0 313.5Q1218 327 1218 356V858Q1218 913 1162 913H394Q339 913 339 858V356Q339 327 352.5 313.5Q366 300 394 300ZM669 726Q648 726 641.0 734.0Q634 742 634 761V802Q634 823 641.0 830.0Q648 837 669 837H709Q729 837 737.0 830.0Q745 823 745 802V761Q745 742 737.0 734.0Q729 726 709 726ZM847 726Q828 726 820.0 734.0Q812 742 812 761V802Q812 823 820.0 830.0Q828 837 847 837H888Q908 837 915.5 830.0Q923 823 923 802V761Q923 742 915.5 734.0Q908 726 888 726ZM1026 726Q1006 726 997.5 734.0Q989 742 989 761V802Q989 823 997.5 830.0Q1006 837 1026 837H1065Q1085 837 1093.5 830.0Q1102 823 1102 802V761Q1102 742 1093.5 734.0Q1085 726 1065 726ZM491 552Q471 552 463.0 559.5Q455 567 455 586V626Q455 646 463.0 653.5Q471 661 491 661H531Q551 661 559.0 653.5Q567 646 567 626V586Q567 567 559.0 559.5Q551 552 531 552ZM669 552Q648 552 641.0 559.5Q634 567 634 586V626Q634 646 641.0 653.5Q648 661 669 661H709Q729 661 737.0 653.5Q745 646 745 626V586Q745 567 737.0 559.5Q729 552 709 552ZM847 552Q828 552 820.0 559.5Q812 567 812 586V626Q812 646 820.0 653.5Q828 661 847 661H888Q908 661 915.5 653.5Q923 646 923 626V586Q923 567 915.5 559.5Q908 552 888 552ZM1026 552Q1006 552 997.5 559.5Q989 567 989 586V626Q989 646 997.5 653.5Q1006 661 1026 661H1065Q1085 661 1093.5 653.5Q1102 646 1102 626V586Q1102 567 1093.5 559.5Q1085 552 1065 552ZM491 376Q471 376 463.0 383.5Q455 391 455 411V453Q455 471 463.0 479.0Q471 487 491 487H531Q551 487 559.0 479.0Q567 471 567 453V411Q567 391 559.0 383.5Q551 376 531 376ZM669 376Q648 376 641.0 383.5Q634 391 634 411V453Q634 471 641.0 479.0Q648 487 669 487H709Q729 487 737.0 479.0Q745 471 745 453V411Q745 391 737.0 383.5Q729 376 709 376ZM847 376Q828 376 820.0 383.5Q812 391 812 411V453Q812 471 820.0 479.0Q828 487 847 487H888Q908 487 915.5 479.0Q923 471 923 453V411Q923 391 915.5 383.5Q908 376 888 376Z" transform="translate(-1.8281,14.5898) scale(0.011719,-0.011719)"/>
  </g>
</svg>
