<svg xmlns="http://www.w3.org/2000/svg" viewBox="0 0 16.3359 13.2070" width="29.6859" height="24.0000">
  <g fill="black" stroke="black" stroke-width="0.25">
    <path d="M368 154Q267 154 211.5 209.0Q156 264 156 364V956Q156 1056 211.5 1111.0Q267 1166 368 1166H474Q505 1166 522.5 1172.0Q540 1178 564 1200L607 1239Q632 1262 659.0 1271.5Q686 1281 727 1281H980Q1021 1281 1048.0 1271.0Q1075 1261 1099 1239L1142 1200Q1166 1178 1183.5 1172.0Q1201 1166 1234 1166H1339Q1440 1166 1495.0 1111.0Q1550 1056 1550 956V364Q1550 264 1495.0 209.0Q1440 154 1339 154ZM853 342Q943 342 1015.5 385.0Q1088 428 1131.0 501.0Q1174 574 1174 664Q1174 753 1131.0 825.5Q1088 898 1015.5 941.0Q943 984 853 984Q764 984 691.5 941.0Q619 898 575.5 825.5Q532 753 532 664Q532 574 575.5 501.0Q619 428 691.5 385.0Q764 342 853 342ZM853 509Q810 509 775.5 530.0Q741 551 720.0 586.0Q699 621 699 664Q699 707 720.0 742.0Q741 777 775.5 797.5Q810 818 853 818Q896 818 931.0 797.5Q966 777 986.5 742.0Q1007 707 1007 664Q1007 621 986.5 586.0Q966 551 931.0 530.0Q896 509 853 509ZM1322 809Q1358 809 1384.0 834.5Q1410 860 1410 897Q1410 933 1384.0 958.5Q1358 984 1322 984Q1286 984 1260.0 958.5Q1234 933 1234 897Q1234 860 1260.0 834.5Q1286 809 1322 809Z" transform="translate(-1.8281,15.0117) scale(0.011719,-0.011719)"/>
  </g>
</svg>
