<svg xmlns="http://www.w3.org/2000/svg" viewBox="0 0 21.6914 31.9570" width="16.2904" height="24.0000">
  <g fill="black" stroke="black" stroke-width="0.25">
    <path d="M758 -678Q551 -678 431.0 -559.5Q311 -441 311 -236V1607Q311 1812 431.0 1930.5Q551 2049 758 2049H1714Q1922 2049 2042.0 1930.5Q2162 1812 2162 1607V-236Q2162 -441 2042.0 -559.5Q1922 -678 1714 -678ZM819 -286H1654Q1706 -286 1737.5 -255.0Q1769 -224 1769 -173V1538Q1769 1593 1737.5 1625.0Q1706 1657 1654 1657H819Q766 1657 734.5 1626.0Q703 1595 703 1543V-173Q703 -224 734.5 -255.0Q766 -286 819 -286ZM896 810Q853 810 827.0 834.0Q801 858 801 901V1468Q801 1511 827.0 1535.0Q853 1559 896 1559H1578Q1620 1559 1646.0 1534.5Q1672 1510 1672 1466V902Q1672 859 1646.0 834.5Q1620 810 1578 810ZM891 451Q845 451 845 497V624Q845 671 891 671H1014Q1064 671 1064 624V497Q1064 451 1014 451ZM1173 451Q1126 451 1126 497V624Q1126 671 1173 671H1295Q1346 671 1346 624V497Q1346 451 1295 451ZM1454 451Q1408 451 1408 497V624Q1408 671 1454 671H1577Q1627 671 1627 624V497Q1627 451 1577 451ZM891 153Q845 153 845 199V326Q845 372 891 372H1014Q1064 372 1064 326V199Q1064 153 1014 153ZM1173 153Q1126 153 1126 199V326Q1126 372 1173 372H1295Q1346 372 1346 326V199Q1346 153 1295 153ZM1454 153Q1408 153 1408 199V326Q1408 372 1454 372H1577Q1627 372 1627 326V199Q1627 153 1577 153ZM891 -146Q845 -146 845 -100V27Q845 73 891 73H1014Q1064 73 1064 27V-100Q1064 -146 1014 -146ZM1173 -146Q1126 -146 1126 -100V27Q1126 73 1173 73H1295Q1346 73 1346 27V-100Q1346 -146 1295 -146ZM1454 -146Q1408 -146 1408 -100V27Q1408 73 1454 73H1577Q1627 73 1627 27V-100Q1627 -146 1577 -146Z" transform="translate(-3.6445,24.0117) scale(0.011719,-0.011719)"/>
  </g>
</svg>
