<svg xmlns="http://www.w3.org/2000/svg" viewBox="0 0 35.7836 35.6945" width="24.0599" height="24.0000">
  <g fill="black" stroke="black" stroke-width="0.25">
    <path d="M2384 1275Q2340 1320 2318.0 1407.5Q2296 1495 2296.0 1602.5Q2296 1710 2317.0 1816.0Q2338 1922 2379.0 2006.5Q2420 2091 2481.5 2134.0Q2543 2177 2623 2156Q2702 2135 2733.0 2067.5Q2764 2000 2757.5 1906.0Q2751 1812 2715.5 1710.0Q2680 1608 2626.5 1515.0Q2573 1422 2509.5 1357.0Q2446 1292 2384 1275ZM2396 1226Q2383 1291 2404.5 1378.5Q2426 1466 2474.0 1561.5Q2522 1657 2589.0 1747.5Q2656 1838 2733.0 1911.0Q2810 1984 2889.5 2026.0Q2969 2068 3042.5 2067.0Q3116 2066 3175 2007Q3234 1947 3235.5 1873.5Q3237 1800 3194.5 1720.0Q3152 1640 3079.5 1562.5Q3007 1485 2916.5 1418.5Q2826 1352 2730.5 1303.5Q2635 1255 2548.0 1233.5Q2461 1212 2396 1226ZM2445 1215Q2462 1276 2527.5 1339.0Q2593 1402 2685.5 1456.0Q2778 1510 2880.0 1545.0Q2982 1580 3076.0 1587.0Q3170 1594 3237.5 1562.5Q3305 1531 3326 1451Q3348 1372 3305.0 1311.0Q3262 1250 3177.0 1209.0Q3092 1168 2986.0 1147.0Q2880 1126 2773.0 1126.5Q2666 1127 2578.0 1149.0Q2490 1171 2445 1215ZM367 -797Q296 -727 282.5 -622.5Q269 -518 326 -426L1206 969L1367 809Q1405 770 1453.0 769.5Q1501 769 1540 809Q1577 846 1577.5 895.0Q1578 944 1540 982L1339 1181L1405 1285L1679 1007Q1716 969 1765.0 969.0Q1814 969 1852 1007Q1889 1045 1889.5 1093.5Q1890 1142 1852 1180L1564 1469Q1707 1599 1871.5 1641.5Q2036 1684 2200.0 1636.5Q2364 1589 2506 1448L2614 1341Q2745 1211 2795.0 1061.0Q2845 911 2818.0 758.5Q2791 606 2689.5 467.0Q2588 328 2417 220L1918 -95L1713 107Q1675 145 1627.5 145.0Q1580 145 1541 108Q1503 69 1502.5 20.0Q1502 -29 1540 -66L1706 -227L1603 -292L1453 -143Q1415 -105 1366.5 -105.5Q1318 -106 1280 -143Q1242 -181 1242.0 -229.5Q1242 -278 1280 -316L1390 -425L734 -836Q641 -895 538.0 -880.0Q435 -865 367 -797Z" transform="translate(-3.2803,25.3464) scale(0.011719,-0.011719)"/>
  </g>
</svg>
