<svg xmlns="http://www.w3.org/2000/svg" viewBox="0 0 18.0703 15.8438" width="27.3728" height="24.0000">
  <g fill="black" stroke="black" stroke-width="0.25">
    <path d="M458 -15H534Q587 -15 620.5 12.0Q654 39 654 87Q654 121 626.5 146.0Q599 171 561 176V289Q561 331 566.0 360.5Q571 390 583 416Q642 392 703.5 381.5Q765 371 832 371Q899 371 961.0 378.0Q1023 385 1067 396Q1075 377 1079.0 349.5Q1083 322 1083 295Q1083 243 1079.5 198.5Q1076 154 1076 104Q1076 -15 1198 -15H1265Q1318 -15 1352.0 12.0Q1386 39 1386 87Q1386 122 1360.5 146.5Q1335 171 1300 176V248Q1300 324 1315.5 370.5Q1331 417 1355.5 447.0Q1380 477 1407.5 504.0Q1435 531 1461.0 568.5Q1487 606 1504.5 666.5Q1522 727 1526 826Q1577 834 1615.5 856.0Q1654 878 1676.0 907.0Q1698 936 1698 965Q1698 1022 1647.5 1079.0Q1597 1136 1537 1182Q1521 1236 1495.5 1271.5Q1470 1307 1449 1307Q1428 1307 1400.0 1270.5Q1372 1234 1352 1183Q1319 1160 1286.0 1114.0Q1253 1068 1232 1030L1215 1001Q1200 973 1183.0 958.0Q1166 943 1143 943Q1064 943 1005.5 947.5Q947 952 894.5 958.0Q842 964 783.0 968.5Q724 973 644 973Q571 973 521.0 953.0Q471 933 439 901Q423 885 406.5 879.5Q390 874 362 888Q324 908 300.5 948.0Q277 988 277 1042Q277 1120 331.5 1167.5Q386 1215 477 1215Q511 1215 547.5 1208.0Q584 1201 627 1183Q668 1166 692.5 1189.5Q717 1213 714.5 1247.0Q712 1281 673 1297Q621 1319 571.5 1328.0Q522 1337 477 1337Q336 1337 246.0 1254.0Q156 1171 156 1042Q156 948 199.5 877.0Q243 806 317 773Q340 763 348.5 744.0Q357 725 357 709Q357 689 357.0 674.0Q357 659 357 647Q357 580 345.0 538.0Q333 496 319.0 467.5Q305 439 297.5 412.5Q290 386 300 350L373 64Q383 21 403.5 3.0Q424 -15 458 -15ZM1508 1001Q1493 1001 1482.5 1010.5Q1472 1020 1472 1035Q1472 1050 1482.5 1060.5Q1493 1071 1508 1071Q1522 1071 1532.5 1060.5Q1543 1050 1543 1035Q1543 1020 1532.5 1010.5Q1522 1001 1508 1001Z" transform="translate(-1.8281,15.6680) scale(0.011719,-0.011719)"/>
  </g>
</svg>
