<svg xmlns="http://www.w3.org/2000/svg" viewBox="0 0 30.9023 30.9023" width="24.0000" height="24.0000">
  <g fill="black" stroke="black" stroke-width="0.25">
    <path d="M1031 465 353 310 314 506 1027 668ZM1139 287 570 -135 478 -9 1068 428ZM1527 174 1357 -590 1160 -551 1330 210ZM1548 1184 1718 1947 1914 1908 1746 1153ZM1923 1061 2504 1492 2596 1367 2031 948ZM2034 890 2767 1056 2806 859 2049 690ZM1537 95Q1415 95 1308.5 141.0Q1202 187 1121.0 267.5Q1040 348 994.5 454.5Q949 561 949 683Q949 805 994.5 911.5Q1040 1018 1121.0 1099.0Q1202 1180 1308.5 1225.5Q1415 1271 1537 1271Q1659 1271 1765.5 1225.5Q1872 1180 1953.0 1099.0Q2034 1018 2079.5 911.5Q2125 805 2125 683Q2125 561 2079.5 454.5Q2034 348 1953.0 267.5Q1872 187 1765.5 141.0Q1659 95 1537 95ZM1537 253Q1656 253 1753.5 311.0Q1851 369 1909.0 467.0Q1967 565 1967 683Q1967 802 1909.0 899.5Q1851 997 1753.5 1055.0Q1656 1113 1537 1113Q1418 1113 1320.5 1055.0Q1223 997 1165.0 899.5Q1107 802 1107 683Q1107 565 1165.0 467.0Q1223 369 1320.5 311.0Q1418 253 1537 253ZM1537 371Q1451 371 1380.0 413.0Q1309 455 1267.0 526.0Q1225 597 1225 683Q1225 769 1267.0 840.0Q1309 911 1380.0 953.0Q1451 995 1537 995Q1623 995 1694.0 953.0Q1765 911 1807.0 840.0Q1849 769 1849 683Q1849 597 1807.0 526.0Q1765 455 1694.0 413.0Q1623 371 1537 371ZM1537 573Q1583 573 1615.5 605.0Q1648 637 1648 683Q1648 729 1615.5 761.5Q1583 794 1537 794Q1491 794 1459.0 761.5Q1427 729 1427 683Q1427 637 1459.0 605.0Q1491 573 1537 573ZM1537 -635Q1319 -635 1121.0 -568.5Q923 -502 758.5 -381.0Q594 -260 473.0 -95.0Q352 70 285.5 267.5Q219 465 219 683Q219 902 285.5 1099.5Q352 1297 473.0 1462.0Q594 1627 758.5 1748.0Q923 1869 1121.0 1935.5Q1319 2002 1537 2002Q1755 2002 1953.0 1935.5Q2151 1869 2315.5 1748.0Q2480 1627 2601.0 1462.0Q2722 1297 2789.0 1099.5Q2856 902 2856 683Q2856 465 2789.0 267.5Q2722 70 2601.0 -95.0Q2480 -260 2315.5 -381.0Q2151 -502 1953.0 -568.5Q1755 -635 1537 -635ZM1537 -239Q1728 -239 1895.5 -167.5Q2063 -96 2189.5 31.0Q2316 158 2388.0 325.0Q2460 492 2460 683Q2460 875 2388.0 1042.0Q2316 1209 2189.5 1336.0Q2063 1463 1895.5 1534.5Q1728 1606 1537 1606Q1346 1606 1178.5 1534.5Q1011 1463 884.5 1336.0Q758 1209 686.0 1042.0Q614 875 614 683Q614 492 686.0 325.0Q758 158 884.5 31.0Q1011 -96 1178.5 -167.5Q1346 -239 1537 -239Z" transform="translate(-2.5664,23.4609) scale(0.011719,-0.011719)"/>
  </g>
</svg>
