<svg xmlns="http://www.w3.org/2000/svg" viewBox="0 0 41.8419 35.0982" width="28.6113" height="24.0000">
  <g fill="black" stroke="black" stroke-width="0.25">
    <path d="M2096 1474Q1966 1474 1846.5 1515.5Q1727 1557 1633.5 1629.5Q1540 1702 1486.0 1796.5Q1432 1891 1432 1999Q1432 2077 1476.0 2127.0Q1520 2177 1613 2204Q1719 2234 1840.5 2248.5Q1962 2263 2096 2263Q2231 2263 2352.5 2248.5Q2474 2234 2580 2204Q2673 2177 2717.0 2127.0Q2761 2077 2761 1999Q2761 1891 2706.5 1796.5Q2652 1702 2558.5 1629.5Q2465 1557 2346.0 1515.5Q2227 1474 2096 1474ZM2096 1707Q2202 1707 2289.5 1739.0Q2377 1771 2436.5 1829.0Q2496 1887 2520 1965Q2522 1971 2518.5 1976.5Q2515 1982 2509 1984Q2405 2008 2302.0 2020.0Q2199 2032 2096 2032Q1994 2032 1891.0 2020.0Q1788 2008 1683 1984Q1677 1982 1673.5 1976.5Q1670 1971 1672 1965Q1697 1886 1757.0 1828.0Q1817 1770 1903.5 1738.5Q1990 1707 2096 1707ZM1957 1638H2236V781H1957ZM2096 700Q2013 700 1931.5 676.5Q1850 653 1789 613L1568 749Q1657 841 1799.5 894.5Q1942 948 2096 948Q2253 948 2397.0 893.5Q2541 839 2631 746L2417 605Q2357 648 2270.0 674.0Q2183 700 2096 700ZM2096 -313Q1905 -313 1761.0 -258.5Q1617 -204 1537.0 -106.0Q1457 -8 1457 123Q1457 253 1537.0 351.0Q1617 449 1761.0 503.5Q1905 558 2096 558Q2288 558 2432.0 503.5Q2576 449 2656.0 351.0Q2736 253 2736 123Q2736 -8 2656.0 -106.0Q2576 -204 2432.0 -258.5Q2288 -313 2096 -313ZM2096 -65Q2273 -65 2380.5 -12.5Q2488 40 2488 123Q2488 206 2380.5 258.0Q2273 310 2096 310Q1919 310 1811.5 258.0Q1704 206 1704 123Q1704 40 1811.5 -12.5Q1919 -65 2096 -65ZM2182 514 1849 397 709 977Q668 998 636.0 996.5Q604 995 584.5 978.5Q565 962 560.5 937.5Q556 913 570.0 888.5Q584 864 619 847L1667 344L1612 87L509 618Q406 667 358.5 744.0Q311 821 311.0 906.5Q311 992 350.5 1068.5Q390 1145 462.0 1194.5Q534 1244 631.5 1249.5Q729 1255 845 1196ZM1574 12 880 -318Q842 -336 826.5 -361.5Q811 -387 814.0 -411.0Q817 -435 835.0 -452.5Q853 -470 882.0 -473.0Q911 -476 946 -458L1686 -78L1932 -239L1063 -686Q960 -739 869.0 -731.0Q778 -723 708.0 -672.0Q638 -621 599.5 -544.5Q561 -468 563.0 -381.5Q565 -295 616.5 -216.0Q668 -137 779 -84L1574 296ZM2010 514 3347 1196Q3463 1255 3560.5 1249.5Q3658 1244 3730.5 1194.5Q3803 1145 3842.5 1068.5Q3882 992 3881.5 906.5Q3881 821 3833.5 744.0Q3786 667 3683 618L2580 87L2525 344L3573 847Q3608 864 3622.0 888.5Q3636 913 3632.0 937.5Q3628 962 3608.5 978.5Q3589 995 3556.5 996.5Q3524 998 3483 977L2343 397ZM2618 12V296L3413 -84Q3525 -137 3576.0 -216.0Q3627 -295 3629.0 -381.5Q3631 -468 3592.5 -544.5Q3554 -621 3484.5 -672.0Q3415 -723 3323.5 -731.0Q3232 -739 3129 -686L2260 -239L2507 -78L3246 -458Q3281 -476 3310.0 -473.0Q3339 -470 3357.0 -452.5Q3375 -435 3378.5 -411.0Q3382 -387 3366.5 -361.5Q3351 -336 3312 -318Z" transform="translate(-3.6445,26.5195) scale(0.011719,-0.011719)"/>
  </g>
</svg>
