<svg xmlns="http://www.w3.org/2000/svg" viewBox="0 0 39.8780 38.1516" width="25.0860" height="24.0000">
  <g fill="black" stroke="black" stroke-width="0.25">
    <path d="M2433 -159 722 -875Q621 -918 533.0 -902.5Q445 -887 386.5 -828.5Q328 -770 313.5 -681.0Q299 -592 346 -488L1095 1175Q1146 1286 1224.5 1334.5Q1303 1383 1399.0 1381.5Q1495 1380 1600.5 1340.5Q1706 1301 1811.5 1236.0Q1917 1171 2014.0 1092.5Q2111 1014 2190 935Q2267 859 2343.0 760.5Q2419 662 2481.5 554.0Q2544 446 2582.5 338.5Q2621 231 2623.5 133.5Q2626 36 2581.5 -39.5Q2537 -115 2433 -159ZM653 -529Q646 -543 649.5 -553.0Q653 -563 663.0 -566.5Q673 -570 686 -564L1916 -54Q1814 3 1711.5 82.0Q1609 161 1513 256Q1414 356 1332.5 462.5Q1251 569 1195 673ZM1376 1073Q1347 1046 1373.5 960.0Q1400 874 1487.0 746.5Q1574 619 1725 468Q1876 318 2003.0 231.0Q2130 144 2215.5 117.0Q2301 90 2329 120Q2357 147 2330.5 232.5Q2304 318 2217.5 445.0Q2131 572 1979 723Q1828 874 1701.5 961.5Q1575 1049 1489.0 1076.0Q1403 1103 1376 1073ZM1552 1975Q1474 1975 1420.0 2029.0Q1366 2083 1366 2160Q1366 2237 1420.0 2292.0Q1474 2347 1552 2347Q1630 2347 1684.0 2292.0Q1738 2237 1738 2160Q1738 2083 1684.0 2029.0Q1630 1975 1552 1975ZM1787 1790Q1828 1568 1828.0 1346.0Q1828 1124 1787 902Q1776 845 1739.0 810.0Q1702 775 1650 775Q1592 775 1547.0 818.0Q1502 861 1516 921Q1556 1133 1556.0 1345.0Q1556 1557 1516 1771Q1502 1830 1547.0 1873.5Q1592 1917 1650 1917Q1707 1917 1741.5 1879.5Q1776 1842 1787 1790ZM2344 1788Q2265 1788 2201.5 1825.5Q2138 1863 2100.0 1927.0Q2062 1991 2062 2069Q2062 2148 2100.0 2211.5Q2138 2275 2201.5 2312.0Q2265 2349 2344 2349Q2421 2349 2484.5 2312.0Q2548 2275 2586.0 2211.5Q2624 2148 2624 2069Q2624 1991 2586.0 1927.0Q2548 1863 2484.5 1825.5Q2421 1788 2344 1788ZM2113 1374Q2047 1374 1999.5 1421.0Q1952 1468 1952 1535Q1952 1601 1999.5 1648.5Q2047 1696 2113 1696Q2180 1696 2226.5 1648.0Q2273 1600 2273 1535Q2273 1469 2226.5 1421.5Q2180 1374 2113 1374ZM3391 1976Q3323 1976 3276.0 2023.0Q3229 2070 3229 2137Q3229 2202 3276.0 2249.5Q3323 2297 3391 2297Q3456 2297 3502.5 2249.5Q3549 2202 3549 2137Q3549 2070 3502.5 2023.0Q3456 1976 3391 1976ZM2981 1936Q3019 1974 3076.5 1975.0Q3134 1976 3176 1936Q3215 1895 3215.0 1837.5Q3215 1780 3176 1740L2949 1514Q2909 1474 2851.5 1474.5Q2794 1475 2755 1515Q2715 1555 2715.0 1612.0Q2715 1669 2755 1710ZM2494 1436Q2532 1473 2589.5 1475.0Q2647 1477 2688 1435Q2728 1394 2726.0 1336.5Q2724 1279 2688 1242L2042 597Q2001 556 1944.0 556.5Q1887 557 1848 597Q1808 637 1807.5 694.5Q1807 752 1847 792ZM3527 790Q3448 790 3394.0 843.5Q3340 897 3340 976Q3340 1053 3394.0 1108.0Q3448 1163 3527 1163Q3604 1163 3658.5 1108.0Q3713 1053 3713 976Q3713 897 3658.0 843.5Q3603 790 3527 790ZM2963 741Q2861 741 2790.5 811.0Q2720 881 2720 983Q2720 1051 2752.5 1107.0Q2785 1163 2840.0 1196.5Q2895 1230 2963 1230Q3032 1230 3088.0 1196.5Q3144 1163 3177.0 1107.0Q3210 1051 3210 983Q3210 915 3176.5 860.0Q3143 805 3087.0 773.0Q3031 741 2963 741ZM3447 141Q3370 141 3315.5 195.0Q3261 249 3261 327Q3261 405 3315.5 459.0Q3370 513 3447 513Q3524 513 3578.5 459.0Q3633 405 3633 327Q3633 249 3578.5 195.0Q3524 141 3447 141ZM3040 537Q3092 525 3130.5 490.0Q3169 455 3169 398Q3169 339 3124.0 294.5Q3079 250 3021 264Q2808 304 2596.5 303.5Q2385 303 2172 262Q2112 251 2069.5 295.5Q2027 340 2027 398Q2027 450 2062.0 487.0Q2097 524 2153 537Q2374 578 2596.5 577.5Q2819 577 3040 537Z" transform="translate(-3.6338,27.5273) scale(0.011719,-0.011719)"/>
  </g>
</svg>
