<svg xmlns="http://www.w3.org/2000/svg" viewBox="0 0 29.8008 27.2578" width="26.2390" height="24.0000">
  <g fill="black" stroke="black" stroke-width="0.25">
    <path d="M689 1073V1486Q689 1646 786.5 1746.0Q884 1846 1041 1846H2123Q2280 1846 2378.0 1746.0Q2476 1646 2476 1486V1073H2159V1471Q2159 1498 2142.0 1514.0Q2125 1530 2099 1530H1065Q1039 1530 1022.5 1514.0Q1006 1498 1006 1471V1073ZM311 137V900Q311 1060 408.5 1160.0Q506 1260 664 1260H822Q980 1260 1078.0 1160.0Q1176 1060 1176 900V659H1989V900Q1989 1060 2086.5 1160.0Q2184 1260 2342 1260H2500Q2658 1260 2756.0 1160.0Q2854 1060 2854 900V137Q2854 -23 2756.0 -122.5Q2658 -222 2500 -222H664Q506 -222 408.5 -122.5Q311 -23 311 137ZM629 140Q629 118 641.5 106.0Q654 94 677 94H2487Q2510 94 2523.0 106.0Q2536 118 2536 140V897Q2536 919 2523.0 931.5Q2510 944 2487 944H2356Q2332 944 2319.5 931.5Q2307 919 2307 897V343H858V897Q858 919 845.0 931.5Q832 944 808 944H677Q654 944 641.5 931.5Q629 919 629 897ZM785 -480Q731 -480 696.5 -447.0Q662 -414 662 -359V-65H994V-359Q994 -414 959.5 -447.0Q925 -480 871 -480ZM2257 -480Q2189 -480 2146.0 -437.0Q2103 -394 2103 -327V-9H2494V-327Q2494 -394 2450.5 -437.0Q2407 -480 2339 -480Z" transform="translate(-3.6445,21.6328) scale(0.011719,-0.011719)"/>
  </g>
</svg>
