<svg xmlns="http://www.w3.org/2000/svg" viewBox="0 0 12.4805 14.1797" width="21.1240" height="24.0000">
  <g fill="black" stroke="black" stroke-width="0.25">
    <path d="M244 58Q209 58 182.5 84.0Q156 110 156 145V1094Q156 1197 247 1237Q284 1254 322.0 1261.0Q360 1268 424 1268Q504 1268 571.0 1253.0Q638 1238 698.5 1218.0Q759 1198 820.0 1183.0Q881 1168 948 1168Q1012 1168 1052.0 1179.5Q1092 1191 1123 1191Q1171 1191 1196.0 1167.0Q1221 1143 1221 1101V542Q1221 437 1132 398Q1094 381 1056.0 374.0Q1018 367 953 367Q878 367 813.5 382.0Q749 397 688.5 416.5Q628 436 565.0 451.0Q502 466 430 466Q399 466 373.5 462.0Q348 458 330 451V145Q330 108 305.5 83.0Q281 58 244 58ZM326 779Q338 786 359.0 792.0Q380 798 411 798Q439 798 460.5 795.5Q482 793 498 790V647Q547 640 593.0 629.0Q639 618 684 606V744Q728 731 773.5 719.5Q819 708 868 700V558Q891 554 912.5 551.0Q934 548 957 548Q988 548 1010.0 554.0Q1032 560 1043 567V703Q1030 698 1013.0 696.0Q996 694 970 694Q954 694 927.0 695.0Q900 696 868 700V852Q898 846 920.0 845.0Q942 844 955 844Q979 844 1002.5 846.0Q1026 848 1043 852V990Q1026 986 1003.0 984.0Q980 982 955 982Q932 982 911.0 983.5Q890 985 868 988V852Q828 857 777.0 868.0Q726 879 684 893V1031Q636 1045 590.5 1057.5Q545 1070 498 1077V941Q476 945 449.0 946.0Q422 947 411 947Q380 947 359.0 941.0Q338 935 326 928ZM498 790V941Q549 932 593.0 920.0Q637 908 684 893V744Q634 758 591.5 769.5Q549 781 498 790Z" transform="translate(-1.8281,14.8594) scale(0.011719,-0.011719)"/>
  </g>
</svg>
