<svg xmlns="http://www.w3.org/2000/svg" viewBox="0 0 34.4297 28.0195" width="29.4906" height="24.0000">
  <g fill="black" stroke="black" stroke-width="0.25">
    <path d="M1132 1083V1485H1565V1083ZM1993 1083V1485H2425V1083ZM703 682V1083H1132V682ZM1565 682V1083H1993V682ZM2425 682V1083H2857V682ZM1132 281V682H1565V281ZM1993 281V682H2425V281ZM703 -85V281H1132V-122H737ZM1565 -122V281H1993V-122ZM2425 -122V281H2857V-83L2814 -122ZM774 -514Q553 -514 432.0 -393.5Q311 -273 311 -52V1416Q311 1637 432.0 1757.0Q553 1877 774 1877H2786Q3008 1877 3128.5 1757.0Q3249 1637 3249 1416V-52Q3249 -273 3128.5 -393.5Q3008 -514 2786 -514ZM827 -122H2733Q2794 -122 2825.5 -92.5Q2857 -63 2857 3V1360Q2857 1426 2825.5 1455.5Q2794 1485 2733 1485H827Q766 1485 734.5 1455.5Q703 1426 703 1360V3Q703 -63 734.5 -92.5Q766 -122 827 -122Z" transform="translate(-3.6445,21.9961) scale(0.011719,-0.011719)"/>
  </g>
</svg>
