<svg xmlns="http://www.w3.org/2000/svg" viewBox="0 0 11.0156 15.1875" width="17.4074" height="24.0000">
  <g fill="black" stroke="black" stroke-width="0.25">
    <path d="M626 1331Q653 1331 678.0 1319.5Q703 1308 726 1286L1050 975Q1069 956 1082.5 933.0Q1096 910 1096 884Q1096 830 1057.5 796.5Q1019 763 974 763Q922 763 886 797L626 1051L367 797Q348 779 324.5 771.0Q301 763 279 763Q233 763 194.5 796.5Q156 830 156 884Q156 910 169.5 933.0Q183 956 203 975L526 1286Q549 1308 574.0 1319.5Q599 1331 626 1331ZM626 35Q599 35 574.0 46.5Q549 58 526 80L203 392Q183 410 169.5 433.5Q156 457 156 482Q156 536 194.5 570.0Q233 604 279 604Q301 604 324.5 595.5Q348 587 367 570L626 316L886 570Q922 604 974 604Q1019 604 1057.5 570.0Q1096 536 1096 482Q1096 457 1082.5 433.5Q1069 410 1050 392L726 80Q703 58 678.0 46.5Q653 35 626 35Z" transform="translate(-1.8281,15.5977) scale(0.011719,-0.011719)"/>
  </g>
</svg>
