<svg xmlns="http://www.w3.org/2000/svg" viewBox="0 0 30.9023 30.9023" width="24.0000" height="24.0000">
  <g fill="black" stroke="black" stroke-width="0.25">
    <path d="M615 683Q615 619 623.5 556.5Q632 494 648 435L282 282Q251 377 235.0 478.0Q219 579 219 683Q219 788 235.0 888.5Q251 989 281 1084L648 931Q632 872 623.5 810.0Q615 748 615 683ZM1084 1488Q974 1426 884.0 1336.0Q794 1246 732 1135L366 1288Q460 1469 605.5 1614.5Q751 1760 932 1854ZM1537 1606Q1472 1606 1409.5 1597.0Q1347 1588 1288 1572L1135 1939Q1230 1969 1331.0 1985.5Q1432 2002 1537 2002Q1641 2002 1741.5 1985.5Q1842 1969 1938 1939L1785 1572Q1726 1588 1663.5 1597.0Q1601 1606 1537 1606ZM2342 1135Q2280 1247 2190.0 1336.5Q2100 1426 1989 1488L2141 1855Q2322 1760 2467.5 1614.5Q2613 1469 2708 1288ZM2460 683Q2460 748 2451.0 810.5Q2442 873 2426 932L2792 1085Q2823 989 2839.5 888.5Q2856 788 2856 683Q2856 579 2839.5 478.0Q2823 377 2792 282L2426 435Q2442 494 2451.0 556.5Q2460 619 2460 683ZM1989 -122Q2100 -60 2190.0 30.0Q2280 120 2342 231L2708 79Q2613 -102 2468.0 -247.5Q2323 -393 2141 -488ZM1537 -239Q1602 -239 1664.0 -230.5Q1726 -222 1785 -206L1938 -573Q1843 -603 1742.5 -619.0Q1642 -635 1537 -635Q1433 -635 1332.0 -619.0Q1231 -603 1136 -572L1288 -205Q1347 -222 1409.5 -230.5Q1472 -239 1537 -239ZM732 231Q794 120 884.0 30.5Q974 -59 1084 -121L932 -488Q751 -393 606.0 -247.5Q461 -102 366 79Z" transform="translate(-2.5664,23.4609) scale(0.011719,-0.011719)"/>
  </g>
</svg>
