<svg xmlns="http://www.w3.org/2000/svg" viewBox="0 0 17.9115 14.4023" width="29.8477" height="24.0000">
  <g fill="black" stroke="black" stroke-width="0.25">
    <path d="M228 554Q176 554 160.0 597.0Q144 640 177 682L361 925Q391 964 434.5 963.5Q478 963 507 925L694 682Q727 640 711.0 597.0Q695 554 643 554ZM919 69Q791 69 680.0 116.5Q569 164 484.5 248.5Q400 333 352.0 444.5Q304 556 304 683Q304 734 341.0 770.5Q378 807 429 807Q480 807 516.5 770.5Q553 734 553 683Q553 608 581.5 541.5Q610 475 660.5 425.0Q711 375 777.0 346.5Q843 318 919 318Q975 318 1024.5 333.0Q1074 348 1116 375Q1174 412 1222.5 398.0Q1271 384 1297 346Q1323 305 1314.5 252.0Q1306 199 1245 162Q1176 119 1093.0 94.0Q1010 69 919 69ZM1610 813Q1662 813 1678.0 770.0Q1694 727 1661 685L1477 441Q1447 403 1403.5 403.5Q1360 404 1331 441L1144 685Q1111 727 1127.0 770.0Q1143 813 1195 813ZM919 1298Q1046 1298 1157.5 1250.5Q1269 1203 1353.5 1118.5Q1438 1034 1486.0 922.5Q1534 811 1534 683Q1534 631 1497.5 594.5Q1461 558 1410 558Q1358 558 1321.5 594.5Q1285 631 1285 683Q1285 759 1256.5 825.0Q1228 891 1177.5 941.5Q1127 992 1060.5 1020.5Q994 1049 919 1049Q863 1049 813.5 1033.5Q764 1018 722 991Q664 954 615.5 968.0Q567 982 541 1020Q515 1061 523.5 1114.0Q532 1167 593 1205Q662 1248 745.0 1273.0Q828 1298 919 1298Z" transform="translate(-1.8138,15.2109) scale(0.011719,-0.011719)"/>
  </g>
</svg>
