<svg xmlns="http://www.w3.org/2000/svg" viewBox="0 0 30.9023 30.9023" width="24.0000" height="24.0000">
  <g fill="black" stroke="black" stroke-width="0.25">
    <path d="M1537 -635Q1319 -635 1121.0 -568.5Q923 -502 758.5 -381.0Q594 -260 473.0 -95.0Q352 70 285.5 267.5Q219 465 219 683Q219 902 285.5 1099.5Q352 1297 473.0 1462.0Q594 1627 758.5 1748.0Q923 1869 1121.0 1935.5Q1319 2002 1537 2002Q1755 2002 1953.0 1935.5Q2151 1869 2315.5 1748.0Q2480 1627 2601.0 1462.0Q2722 1297 2789.0 1099.5Q2856 902 2856 683Q2856 465 2789.0 267.5Q2722 70 2601.0 -95.0Q2480 -260 2315.5 -381.0Q2151 -502 1953.0 -568.5Q1755 -635 1537 -635ZM1537 -239Q1728 -239 1895.5 -167.5Q2063 -96 2189.5 31.0Q2316 158 2388.0 325.0Q2460 492 2460 683Q2460 875 2388.0 1042.0Q2316 1209 2189.5 1336.0Q2063 1463 1895.5 1534.5Q1728 1606 1537 1606Q1346 1606 1178.5 1534.5Q1011 1463 884.5 1336.0Q758 1209 686.0 1042.0Q614 875 614 683Q614 492 686.0 325.0Q758 158 884.5 31.0Q1011 -96 1178.5 -167.5Q1346 -239 1537 -239ZM1325 50Q1273 50 1237.0 83.5Q1201 117 1201 172Q1201 222 1237.0 256.5Q1273 291 1325 291H1444V621H1350Q1297 621 1261.0 654.5Q1225 688 1225 743Q1225 793 1261.0 828.0Q1297 863 1350 863H1580Q1648 863 1682.5 820.0Q1717 777 1717 705V291H1798Q1849 291 1885.0 256.5Q1921 222 1921 172Q1921 117 1885.0 83.5Q1849 50 1798 50ZM1540 1001Q1464 1001 1407.5 1057.5Q1351 1114 1351 1190Q1351 1270 1407.5 1325.5Q1464 1381 1540 1381Q1619 1381 1674.5 1325.5Q1730 1270 1730 1190Q1730 1114 1674.5 1057.5Q1619 1001 1540 1001Z" transform="translate(-2.5664,23.4609) scale(0.011719,-0.011719)"/>
  </g>
</svg>
