<svg xmlns="http://www.w3.org/2000/svg" viewBox="0 0 34.8164 34.7812" width="24.0243" height="24.0000">
  <g fill="black" stroke="black" stroke-width="0.25">
    <path d="M1704 1585Q1630 1585 1576.5 1638.5Q1523 1692 1523 1765V1986Q1523 2059 1576.5 2113.0Q1630 2167 1704 2167Q1777 2167 1830.5 2113.0Q1884 2059 1884 1986V1765Q1884 1692 1830.5 1638.5Q1777 1585 1704 1585ZM2343 1315Q2291 1367 2290.0 1443.5Q2289 1520 2340 1570L2496 1728Q2547 1779 2623.5 1780.5Q2700 1782 2750 1731Q2803 1679 2803.5 1602.5Q2804 1526 2754 1475L2598 1318Q2546 1265 2470.0 1264.5Q2394 1264 2343 1315ZM2608 683Q2608 757 2661.5 810.5Q2715 864 2788 864H3008Q3082 864 3136.0 810.5Q3190 757 3190 683Q3190 610 3136.0 556.5Q3082 503 3008 503H2788Q2715 503 2661.5 556.5Q2608 610 2608 683ZM2340 47Q2392 99 2468.5 100.0Q2545 101 2595 50L2753 -105Q2805 -157 2806.0 -233.0Q2807 -309 2756 -360Q2704 -412 2627.5 -413.0Q2551 -414 2500 -364L2343 -208Q2291 -155 2290.0 -79.5Q2289 -4 2340 47ZM1704 -218Q1777 -218 1830.5 -271.5Q1884 -325 1884 -399V-619Q1884 -693 1830.5 -747.0Q1777 -801 1704 -801Q1630 -801 1576.5 -747.0Q1523 -693 1523 -619V-399Q1523 -325 1576.5 -271.5Q1630 -218 1704 -218ZM1068 47Q1118 -4 1117.0 -79.5Q1116 -155 1064 -208L907 -363Q856 -414 779.5 -413.0Q703 -412 651 -360Q601 -309 601.5 -233.0Q602 -157 655 -105L811 50Q862 101 938.5 100.0Q1015 99 1068 47ZM801 683Q801 610 747.0 556.5Q693 503 619 503H399Q326 503 272.5 556.5Q219 610 219 683Q219 757 272.5 810.5Q326 864 399 864H619Q693 864 747.0 810.5Q801 757 801 683ZM1064 1315Q1013 1264 937.0 1265.0Q861 1266 809 1318L654 1475Q603 1526 604.0 1602.5Q605 1679 657 1731Q708 1782 784.5 1780.5Q861 1779 912 1728L1068 1570Q1118 1520 1117.0 1443.5Q1116 1367 1064 1315ZM1704 -12Q1560 -12 1434.0 42.0Q1308 96 1212.0 191.5Q1116 287 1062.0 413.0Q1008 539 1008 683Q1008 827 1062.0 953.0Q1116 1079 1212.0 1175.0Q1308 1271 1434.0 1325.0Q1560 1379 1704 1379Q1848 1379 1974.0 1325.0Q2100 1271 2195.5 1175.0Q2291 1079 2345.0 953.0Q2399 827 2399 683Q2399 539 2345.0 413.0Q2291 287 2195.5 191.5Q2100 96 1974.0 42.0Q1848 -12 1704 -12ZM1704 355Q1794 355 1868.5 399.0Q1943 443 1987.5 518.0Q2032 593 2032 683Q2032 774 1987.5 848.5Q1943 923 1868.5 967.5Q1794 1012 1704 1012Q1613 1012 1538.5 967.5Q1464 923 1419.5 848.5Q1375 774 1375 683Q1375 593 1419.5 518.0Q1464 443 1538.5 399.0Q1613 355 1704 355Z" transform="translate(-2.5664,25.3945) scale(0.011719,-0.011719)"/>
  </g>
</svg>
