<svg xmlns="http://www.w3.org/2000/svg" viewBox="0 0 30.9141 30.7734" width="24.1097" height="24.0000">
  <g fill="black" stroke="black" stroke-width="0.25">
    <path d="M1538 1695Q1475 1695 1431.0 1739.0Q1387 1783 1387 1845Q1387 1908 1431.0 1952.0Q1475 1996 1538 1996Q1600 1996 1644.5 1952.0Q1689 1908 1689 1845Q1689 1783 1644.5 1739.0Q1600 1695 1538 1695ZM1897 1637Q1835 1637 1791.0 1681.5Q1747 1726 1747 1788Q1747 1850 1791.0 1894.5Q1835 1939 1897 1939Q1960 1939 2004.0 1894.5Q2048 1850 2048 1788Q2048 1726 2004.0 1681.5Q1960 1637 1897 1637ZM2222 1472Q2160 1472 2116.0 1516.5Q2072 1561 2072 1623Q2072 1685 2116.0 1729.5Q2160 1774 2222 1774Q2285 1774 2329.0 1729.5Q2373 1685 2373 1623Q2373 1561 2329.0 1516.5Q2285 1472 2222 1472ZM2480 1214Q2418 1214 2374.0 1258.0Q2330 1302 2330 1365Q2330 1427 2374.0 1471.5Q2418 1516 2480 1516Q2543 1516 2587.0 1471.5Q2631 1427 2631 1365Q2631 1302 2587.0 1258.0Q2543 1214 2480 1214ZM2644 893Q2582 893 2538.0 937.0Q2494 981 2494 1043Q2494 1106 2538.0 1150.0Q2582 1194 2644 1194Q2707 1194 2751.0 1150.0Q2795 1106 2795 1043Q2795 981 2751.0 937.0Q2707 893 2644 893ZM2706 532Q2644 532 2599.5 576.5Q2555 621 2555 683Q2555 746 2599.5 790.0Q2644 834 2706 834Q2769 834 2813.0 790.0Q2857 746 2857 683Q2857 621 2813.0 576.5Q2769 532 2706 532ZM2644 172Q2582 172 2538.0 216.5Q2494 261 2494 323Q2494 386 2538.0 430.0Q2582 474 2644 474Q2707 474 2751.0 430.0Q2795 386 2795 323Q2795 261 2751.0 216.5Q2707 172 2644 172ZM2480 -149Q2418 -149 2374.0 -105.0Q2330 -61 2330 2Q2330 64 2374.0 108.5Q2418 153 2480 153Q2543 153 2587.0 108.5Q2631 64 2631 2Q2631 -61 2587.0 -105.0Q2543 -149 2480 -149ZM2222 -407Q2160 -407 2116.0 -363.0Q2072 -319 2072 -256Q2072 -194 2116.0 -149.5Q2160 -105 2222 -105Q2285 -105 2329.0 -149.5Q2373 -194 2373 -256Q2373 -319 2329.0 -363.0Q2285 -407 2222 -407ZM1897 -572Q1835 -572 1791.0 -528.0Q1747 -484 1747 -421Q1747 -359 1791.0 -314.5Q1835 -270 1897 -270Q1960 -270 2004.0 -314.5Q2048 -359 2048 -421Q2048 -484 2004.0 -528.0Q1960 -572 1897 -572ZM1538 -630Q1475 -630 1431.0 -585.5Q1387 -541 1387 -479Q1387 -417 1431.0 -372.5Q1475 -328 1538 -328Q1600 -328 1644.5 -372.5Q1689 -417 1689 -479Q1689 -541 1644.5 -585.5Q1600 -630 1538 -630ZM1178 -572Q1116 -572 1071.5 -528.0Q1027 -484 1027 -421Q1027 -359 1071.5 -314.5Q1116 -270 1178 -270Q1240 -270 1284.5 -314.5Q1329 -359 1329 -421Q1329 -484 1284.5 -528.0Q1240 -572 1178 -572ZM853 -407Q791 -407 746.5 -363.0Q702 -319 702 -256Q702 -194 746.5 -149.5Q791 -105 853 -105Q915 -105 959.5 -149.5Q1004 -194 1004 -256Q1004 -319 959.5 -363.0Q915 -407 853 -407ZM595 -149Q533 -149 488.5 -105.0Q444 -61 444 2Q444 64 488.5 108.5Q533 153 595 153Q657 153 701.5 108.5Q746 64 746 2Q746 -61 701.5 -105.0Q657 -149 595 -149ZM431 172Q369 172 324.5 216.5Q280 261 280 323Q280 386 324.5 430.0Q369 474 431 474Q494 474 538.0 430.0Q582 386 582 323Q582 261 538.0 216.5Q494 172 431 172ZM369 532Q307 532 263.0 576.5Q219 621 219 683Q219 746 263.0 790.0Q307 834 369 834Q432 834 476.0 790.0Q520 746 520 683Q520 621 476.0 576.5Q432 532 369 532ZM431 893Q369 893 324.5 937.0Q280 981 280 1043Q280 1106 324.5 1150.0Q369 1194 431 1194Q494 1194 538.0 1150.0Q582 1106 582 1043Q582 981 538.0 937.0Q494 893 431 893ZM595 1214Q533 1214 488.5 1258.0Q444 1302 444 1365Q444 1427 488.5 1471.5Q533 1516 595 1516Q657 1516 701.5 1471.5Q746 1427 746 1365Q746 1302 701.5 1258.0Q657 1214 595 1214ZM853 1472Q791 1472 746.5 1516.5Q702 1561 702 1623Q702 1685 746.5 1729.5Q791 1774 853 1774Q915 1774 959.5 1729.5Q1004 1685 1004 1623Q1004 1561 959.5 1516.5Q915 1472 853 1472ZM1178 1637Q1116 1637 1071.5 1681.5Q1027 1726 1027 1788Q1027 1850 1071.5 1894.5Q1116 1939 1178 1939Q1240 1939 1284.5 1894.5Q1329 1850 1329 1788Q1329 1726 1284.5 1681.5Q1240 1637 1178 1637Z" transform="translate(-2.5664,23.3906) scale(0.011719,-0.011719)"/>
  </g>
</svg>
