<svg xmlns="http://www.w3.org/2000/svg" viewBox="0 0 16.2891 15.0703" width="25.9409" height="24.0000">
  <g fill="black" stroke="black" stroke-width="0.25">
    <path d="M604 924Q521 924 462.0 983.0Q403 1042 403 1125Q403 1209 462.0 1267.5Q521 1326 604 1326Q688 1326 747.0 1267.5Q806 1209 806 1125Q806 1042 747.0 983.0Q688 924 604 924ZM1098 924Q1015 924 956.0 983.0Q897 1042 897 1125Q897 1209 956.0 1267.5Q1015 1326 1098 1326Q1181 1326 1240.0 1267.5Q1299 1209 1299 1125Q1299 1042 1240.0 983.0Q1181 924 1098 924ZM357 482Q274 482 215.0 541.0Q156 600 156 683Q156 767 215.0 826.0Q274 885 357 885Q441 885 500.0 826.0Q559 767 559 683Q559 600 500.0 541.0Q441 482 357 482ZM851 482Q768 482 709.0 541.0Q650 600 650 683Q650 767 709.0 826.0Q768 885 851 885Q935 885 993.5 826.0Q1052 767 1052 683Q1052 600 993.5 541.0Q935 482 851 482ZM1345 482Q1261 482 1202.5 541.0Q1144 600 1144 683Q1144 767 1202.5 826.0Q1261 885 1345 885Q1428 885 1487.0 826.0Q1546 767 1546 683Q1546 600 1487.0 541.0Q1428 482 1345 482ZM604 40Q521 40 462.0 99.5Q403 159 403 241Q403 324 462.0 383.0Q521 442 604 442Q687 442 746.0 383.0Q805 324 805 241Q805 158 746.0 99.0Q687 40 604 40ZM1098 40Q1015 40 956.0 99.0Q897 158 897 241Q897 325 956.0 384.0Q1015 443 1098 443Q1181 443 1240.0 384.0Q1299 325 1299 241Q1299 158 1240.0 99.0Q1181 40 1098 40Z" transform="translate(-1.8281,15.5391) scale(0.011719,-0.011719)"/>
  </g>
</svg>
