<svg xmlns="http://www.w3.org/2000/svg" viewBox="0 0 13.1133 12.6914" width="24.7978" height="24.0000">
  <g fill="black" stroke="black" stroke-width="0.25">
    <path d="M320 897Q252 897 204.0 945.0Q156 993 156 1061Q156 1128 204.0 1176.5Q252 1225 320 1225Q387 1225 435.5 1176.5Q484 1128 484 1061Q484 993 435.5 945.0Q387 897 320 897ZM715 897Q647 897 599.0 945.0Q551 993 551 1061Q551 1128 599.0 1176.5Q647 1225 715 1225Q783 1225 831.0 1176.5Q879 1128 879 1061Q879 993 831.0 945.0Q783 897 715 897ZM1110 897Q1043 897 994.5 945.0Q946 993 946 1061Q946 1128 994.5 1176.5Q1043 1225 1110 1225Q1178 1225 1226.0 1176.5Q1274 1128 1274 1061Q1274 993 1226.0 945.0Q1178 897 1110 897ZM321 520Q253 520 205.0 568.0Q157 616 157 683Q157 751 205.0 799.0Q253 847 321 847Q389 847 437.0 799.0Q485 751 485 683Q485 616 437.0 568.0Q389 520 321 520ZM716 520Q649 520 600.5 568.0Q552 616 552 683Q552 751 600.5 799.0Q649 847 716 847Q784 847 832.0 799.0Q880 751 880 683Q880 616 832.0 568.0Q784 520 716 520ZM1111 520Q1044 520 996.0 568.0Q948 616 948 683Q948 751 996.0 799.0Q1044 847 1111 847Q1179 847 1227.0 799.0Q1275 751 1275 683Q1275 616 1227.0 568.0Q1179 520 1111 520ZM321 142Q253 142 205.0 190.0Q157 238 157 306Q157 373 205.0 421.0Q253 469 321 469Q389 469 437.0 421.0Q485 373 485 306Q485 238 437.0 190.0Q389 142 321 142ZM716 142Q649 142 600.5 190.0Q552 238 552 306Q552 373 600.5 421.0Q649 469 716 469Q784 469 832.0 421.0Q880 373 880 306Q880 238 832.0 190.0Q784 142 716 142ZM1111 142Q1044 142 996.0 190.0Q948 238 948 306Q948 373 996.0 421.0Q1044 469 1111 469Q1179 469 1227.0 421.0Q1275 373 1275 306Q1275 238 1227.0 190.0Q1179 142 1111 142Z" transform="translate(-1.8281,14.3555) scale(0.011719,-0.011719)"/>
  </g>
</svg>
