<svg xmlns="http://www.w3.org/2000/svg" viewBox="0 0 18.7502 15.4219" width="29.1796" height="24.0000">
  <g fill="black" stroke="black" stroke-width="0.25">
    <path d="M943 1341Q1078 1341 1197.5 1289.5Q1317 1238 1407.5 1147.0Q1498 1056 1549.5 937.0Q1601 818 1601 683Q1601 634 1567.5 600.0Q1534 566 1486 566Q1437 566 1403.0 600.0Q1369 634 1369 683Q1369 771 1335.5 848.0Q1302 925 1243.5 983.5Q1185 1042 1108.0 1075.5Q1031 1109 943 1109Q859 1109 784.0 1077.5Q709 1046 651 991Q607 950 563.0 957.0Q519 964 490.0 998.5Q461 1033 457.5 1077.5Q454 1122 490 1157Q578 1243 695.0 1292.0Q812 1341 943 1341ZM1228 707Q1198 741 1198.5 777.0Q1199 813 1225.0 838.0Q1251 863 1296 863H1648Q1692 863 1718.0 838.5Q1744 814 1744.5 778.0Q1745 742 1714 707L1553 530Q1514 488 1473.5 488.0Q1433 488 1393 530ZM946 25Q810 25 691.0 77.0Q572 129 481.0 220.0Q390 311 338.5 430.0Q287 549 287 683Q287 733 321.0 766.5Q355 800 403 800Q452 800 486.0 766.5Q520 733 520 683Q520 596 553.5 519.0Q587 442 645.5 383.0Q704 324 781.0 291.0Q858 258 946 258Q1030 258 1105.0 289.5Q1180 321 1237 376Q1282 416 1325.5 409.5Q1369 403 1398.5 368.5Q1428 334 1431.5 289.5Q1435 245 1399 210Q1311 124 1194.0 74.5Q1077 25 946 25ZM241 503Q196 503 170.5 528.0Q145 553 144.5 589.0Q144 625 175 659L336 837Q375 879 415.5 878.5Q456 878 495 837L661 659Q691 626 690.5 590.0Q690 554 664.0 528.5Q638 503 593 503Z" transform="translate(-1.6933,15.7148) scale(0.011719,-0.011719)"/>
  </g>
</svg>
