<svg xmlns="http://www.w3.org/2000/svg" viewBox="0 0 44.0543 38.8847" width="27.1908" height="24.0000">
  <g fill="black" stroke="black" stroke-width="0.25">
    <path d="M608 1251 319 1312Q270 1321 241.5 1361.5Q213 1402 220 1451Q228 1505 271.5 1535.5Q315 1566 370 1555L658 1493Q709 1482 736.0 1440.0Q763 1398 754 1348Q745 1297 701.5 1269.0Q658 1241 608 1251ZM740 1706 532 1914Q494 1952 494.0 2002.0Q494 2052 532 2089Q569 2127 619.0 2127.0Q669 2127 707 2089L915 1881Q952 1844 951.0 1793.5Q950 1743 915 1706Q880 1669 828.5 1669.0Q777 1669 740 1706ZM1276 1862Q1224 1850 1180.5 1879.5Q1137 1909 1126 1959L1065 2244Q1054 2295 1083.0 2338.5Q1112 2382 1162 2393Q1213 2403 1256.0 2375.0Q1299 2347 1309 2297L1371 2010Q1382 1961 1353.5 1917.0Q1325 1873 1276 1862ZM3218 -586Q3048 -756 2857.0 -840.0Q2666 -924 2467.5 -922.5Q2269 -921 2076.0 -834.0Q1883 -747 1711 -574L910 226Q845 292 822.5 372.5Q800 453 821.0 533.0Q842 613 907 678Q923 694 941.0 704.5Q959 715 977 722L947 752Q854 845 856.0 967.5Q858 1090 956 1187Q972 1203 991.0 1215.5Q1010 1228 1031 1236Q996 1324 1016.0 1413.0Q1036 1502 1107 1573Q1181 1647 1269.5 1667.0Q1358 1687 1447 1649Q1457 1672 1470.5 1694.0Q1484 1716 1503 1735Q1608 1839 1737.0 1841.5Q1866 1844 1968 1742L2535 1175Q2540 1169 2545 1174Q2549 1178 2547 1183L2530 1225Q2505 1296 2525.5 1367.0Q2546 1438 2596 1489Q2660 1552 2737.5 1571.5Q2815 1591 2891.5 1569.5Q2968 1548 3029 1487Q3084 1431 3121 1354L3406 750Q3589 363 3542.0 27.0Q3495 -309 3218 -586ZM2974 -356Q3113 -216 3176.5 -69.5Q3240 77 3226.0 244.5Q3212 412 3120 615L2843 1231Q2833 1253 2816.5 1259.5Q2800 1266 2782 1259Q2767 1253 2758.5 1235.5Q2750 1218 2758 1195L2914 787Q2937 729 2923.5 678.5Q2910 628 2876 593Q2834 549 2773.0 544.0Q2712 539 2658 593L1763 1487Q1750 1501 1731.5 1500.5Q1713 1500 1699 1486Q1686 1473 1686.5 1455.5Q1687 1438 1700 1425L2299 826Q2339 786 2338.5 729.5Q2338 673 2298 633Q2258 593 2201.5 592.0Q2145 591 2105 631L1389 1348Q1375 1361 1357.0 1361.0Q1339 1361 1326 1347Q1312 1334 1312.0 1316.0Q1312 1298 1326 1285L2085 525Q2125 485 2124.5 429.0Q2124 373 2084 333Q2044 293 1987.5 292.0Q1931 291 1891 331L1249 973Q1235 987 1217.5 987.0Q1200 987 1186 973Q1173 960 1173.0 942.0Q1173 924 1186 910L1876 220Q1916 180 1915.5 124.0Q1915 68 1875 28Q1835 -12 1778.5 -13.0Q1722 -14 1682 26L1225 483Q1212 496 1194.0 496.0Q1176 496 1162 483Q1149 469 1149.0 451.5Q1149 434 1162 420L1915 -332Q2085 -502 2268.5 -561.0Q2452 -620 2632.0 -568.5Q2812 -517 2974 -356ZM1998 1788Q2107 1889 2233.5 1893.0Q2360 1897 2463 1795L2812 1446L2598 1200L2266 1531Q2246 1551 2221.0 1551.5Q2196 1552 2178 1535Q2161 1519 2161.5 1492.0Q2162 1465 2178 1434L1942 1715Q1953 1734 1966.5 1752.5Q1980 1771 1998 1788ZM3644 -556Q3411 -789 3139.0 -857.5Q2867 -926 2603 -829L2971 -554Q3200 -526 3401 -325Q3610 -117 3646.5 112.0Q3683 341 3547 645L3272 1256Q3265 1271 3253.0 1279.0Q3241 1287 3228 1287Q3206 1287 3193.0 1274.0Q3180 1261 3180 1243Q3180 1225 3187 1208L2971 1317Q2970 1324 2970.0 1331.0Q2970 1338 2970 1345Q2970 1427 2999.5 1479.5Q3029 1532 3072.0 1560.5Q3115 1589 3158.5 1600.0Q3202 1611 3231 1611Q3336 1613 3418.0 1548.0Q3500 1483 3547 1384L3832 781Q4015 393 3968.5 56.5Q3922 -280 3644 -556Z" transform="translate(-2.5619,28.0738) scale(0.011719,-0.011719)"/>
  </g>
</svg>
