<svg xmlns="http://www.w3.org/2000/svg" viewBox="0 0 29.3672 40.2188" width="17.5245" height="24.0000">
  <g fill="black" stroke="black" stroke-width="0.25">
    <path d="M1304 1798Q1221 1798 1152.5 1839.0Q1084 1880 1043.5 1948.0Q1003 2016 1003 2099Q1003 2182 1043.5 2250.0Q1084 2318 1152.5 2359.0Q1221 2400 1304 2400Q1386 2400 1454.5 2359.0Q1523 2318 1564.0 2250.0Q1605 2182 1605 2099Q1605 2016 1564.0 1948.0Q1523 1880 1454.5 1839.0Q1386 1798 1304 1798ZM1464 -335Q1392 -315 1367.5 -260.0Q1343 -205 1361 -148L1500 315L987 436Q820 475 762.5 573.5Q705 672 723 816L778 1255Q780 1268 771.5 1273.0Q763 1278 753 1271L616 1186V753Q616 691 571.0 646.0Q526 601 463 601Q401 601 356.0 646.0Q311 691 311 753V1269Q311 1309 331.0 1343.5Q351 1378 383 1398L799 1659Q864 1699 948.5 1717.5Q1033 1736 1137 1716L1209 1702Q1305 1684 1379.0 1625.5Q1453 1567 1495 1483L1658 1161H2080Q2142 1161 2187.0 1117.0Q2232 1073 2232 1011Q2232 947 2186.5 903.5Q2141 860 2080 860H1564Q1521 860 1485.0 881.5Q1449 903 1428 943L1339 1116Q1333 1128 1322.0 1126.5Q1311 1125 1310 1113L1255 741L1743 572Q1805 552 1829.0 497.0Q1853 442 1837 385L1650 -234Q1636 -282 1603.0 -306.5Q1570 -331 1532.0 -337.0Q1494 -343 1464 -335ZM511 -797Q456 -762 444.0 -700.0Q432 -638 467 -586L831 -41L856 323Q878 315 902.0 307.0Q926 299 953 293L1182 239L1134 -97Q1127 -144 1099 -186L718 -752Q677 -813 614.5 -818.5Q552 -824 511 -797ZM1104 -1032Q1055 -1032 1023.5 -998.0Q992 -964 992 -918Q992 -873 1024.0 -840.5Q1056 -808 1104 -808H1393V-599Q1393 -553 1425.5 -520.0Q1458 -487 1503 -487H1792V-279Q1792 -234 1823.5 -200.5Q1855 -167 1904 -167H2193V42Q2193 86 2224.5 120.0Q2256 154 2303 154H2704Q2750 154 2783.5 120.5Q2817 87 2817 42Q2817 -4 2783.5 -37.0Q2750 -70 2704 -70H2415V-279Q2415 -325 2382.0 -357.5Q2349 -390 2303 -390H2014V-599Q2014 -646 1981.5 -678.5Q1949 -711 1904 -711H1616V-918Q1616 -965 1582.5 -998.5Q1549 -1032 1503 -1032Z" transform="translate(-3.6445,28.1250) scale(0.011719,-0.011719)"/>
  </g>
</svg>
