<svg xmlns="http://www.w3.org/2000/svg" viewBox="0 0 14.5898 14.6016" width="23.9807" height="24.0000">
  <g fill="black" stroke="black" stroke-width="0.25">
    <path d="M521 570H778Q811 570 833.0 591.5Q855 613 855 646V985Q855 1017 833.0 1039.0Q811 1061 778 1061Q746 1061 724.0 1039.0Q702 1017 702 985V721H521Q489 721 467.5 699.0Q446 677 446 646Q446 613 467.5 591.5Q489 570 521 570ZM779 59Q650 59 537.5 108.0Q425 157 339.0 242.5Q253 328 204.5 441.0Q156 554 156 682Q156 810 204.5 923.0Q253 1036 339.0 1122.0Q425 1208 537.5 1256.5Q650 1305 778 1305Q907 1305 1019.5 1256.5Q1132 1208 1218.0 1122.0Q1304 1036 1352.5 923.0Q1401 810 1401 682Q1401 554 1352.5 441.0Q1304 328 1218.5 242.5Q1133 157 1020.0 108.0Q907 59 779 59Z" transform="translate(-1.8281,15.2930) scale(0.011719,-0.011719)"/>
  </g>
</svg>
