<svg xmlns="http://www.w3.org/2000/svg" viewBox="0 0 32.7656 32.7656" width="24.0000" height="24.0000">
  <g fill="black" stroke="black" stroke-width="0.25">
    <path d="M1617 2079Q1658 2079 1686.5 2050.5Q1715 2022 1715 1980V1514Q1715 1472 1686.5 1443.5Q1658 1415 1617 1415Q1575 1415 1546.5 1443.5Q1518 1472 1518 1514V1980Q1518 2022 1546.5 2050.5Q1575 2079 1617 2079ZM1978 2029Q2016 2017 2035.0 1985.0Q2054 1953 2043 1913L2004 1770Q1993 1731 1961.0 1712.0Q1929 1693 1891 1703Q1852 1714 1834.0 1747.0Q1816 1780 1826 1818L1864 1963Q1874 2001 1908.0 2020.0Q1942 2039 1978 2029ZM2315 1892Q2350 1871 2361.5 1832.0Q2373 1793 2352 1756L2119 1353Q2098 1316 2059.0 1306.0Q2020 1296 1985 1316Q1947 1337 1937.0 1376.0Q1927 1415 1948 1452L2181 1855Q2202 1892 2240.5 1902.5Q2279 1913 2315 1892ZM2603 1667Q2632 1638 2632.0 1601.0Q2632 1564 2603 1534L2497 1429Q2469 1402 2431.5 1402.0Q2394 1402 2367 1429Q2339 1457 2340.0 1494.0Q2341 1531 2368 1560L2472 1668Q2498 1695 2537.0 1694.5Q2576 1694 2603 1667ZM2827 1380Q2848 1344 2838.0 1305.0Q2828 1266 2791 1245L2388 1012Q2351 991 2312.5 1001.5Q2274 1012 2254 1047Q2232 1083 2242.0 1122.5Q2252 1162 2289 1183L2692 1416Q2729 1437 2767.5 1426.5Q2806 1416 2827 1380ZM2965 1043Q2976 1005 2957.0 971.5Q2938 938 2897 926L2756 888Q2717 878 2684.0 897.5Q2651 917 2641 952Q2630 992 2650.0 1024.0Q2670 1056 2708 1067L2851 1109Q2888 1120 2921.5 1099.5Q2955 1079 2965 1043ZM3015 681Q3015 639 2986.5 610.5Q2958 582 2916 582H2450Q2408 582 2379.5 610.5Q2351 639 2351 681Q2351 722 2379.5 750.5Q2408 779 2450 779H2916Q2958 779 2986.5 750.5Q3015 722 3015 681ZM2965 319Q2956 280 2923.5 261.0Q2891 242 2850 253L2705 291Q2668 301 2649.5 335.0Q2631 369 2641 405Q2651 444 2684.0 461.5Q2717 479 2756 470L2899 435Q2939 425 2956.0 390.0Q2973 355 2965 319ZM2828 -18Q2807 -54 2768.0 -64.5Q2729 -75 2692 -54L2289 178Q2252 199 2241.5 238.5Q2231 278 2252 314Q2273 349 2312.0 360.0Q2351 371 2388 349L2791 116Q2828 96 2838.5 56.5Q2849 17 2828 -18ZM2605 -305Q2577 -335 2539.0 -335.5Q2501 -336 2471 -306L2367 -201Q2339 -174 2339.5 -136.0Q2340 -98 2366 -71Q2394 -42 2431.0 -43.0Q2468 -44 2497 -72L2606 -173Q2635 -201 2633.0 -239.5Q2631 -278 2605 -305ZM2316 -529Q2280 -550 2241.0 -540.0Q2202 -530 2181 -494L1948 -91Q1927 -54 1937.5 -15.0Q1948 24 1985 45Q2020 66 2059.0 55.5Q2098 45 2119 8L2352 -395Q2373 -432 2362.5 -471.0Q2352 -510 2316 -529ZM1978 -668Q1939 -679 1907.5 -660.5Q1876 -642 1864 -602L1823 -456Q1813 -421 1833.5 -388.5Q1854 -356 1891 -344Q1929 -332 1960.5 -352.5Q1992 -373 2004 -412L2045 -553Q2056 -591 2036.0 -624.5Q2016 -658 1978 -668ZM1617 -717Q1575 -717 1546.5 -688.5Q1518 -660 1518 -619V-153Q1518 -111 1546.5 -82.5Q1575 -54 1617 -54Q1658 -54 1686.5 -82.5Q1715 -111 1715 -153V-619Q1715 -660 1686.5 -688.5Q1658 -717 1617 -717ZM1252 -670Q1215 -658 1197.0 -626.0Q1179 -594 1190 -555L1229 -412Q1240 -373 1272.5 -354.0Q1305 -335 1342 -345Q1381 -356 1399.5 -389.0Q1418 -422 1407 -460L1370 -604Q1360 -641 1325.0 -661.5Q1290 -682 1252 -670ZM918 -531Q882 -510 871.5 -471.0Q861 -432 882 -395L1113 8Q1135 45 1174.5 55.5Q1214 66 1250 45Q1285 24 1296.0 -15.0Q1307 -54 1285 -91L1052 -494Q1031 -530 992.0 -540.5Q953 -551 918 -531ZM630 -308Q601 -279 601.0 -242.5Q601 -206 630 -176L735 -71Q763 -43 801.5 -43.5Q840 -44 867 -71Q895 -99 893.5 -136.0Q892 -173 865 -202L761 -310Q735 -337 696.0 -336.0Q657 -335 630 -308ZM407 -19Q386 18 396.0 57.0Q406 96 442 116L844 349Q882 371 921.0 360.0Q960 349 981 313Q1002 277 991.5 238.0Q981 199 944 178L541 -54Q504 -75 465.0 -65.0Q426 -55 407 -19ZM267 318Q258 356 275.5 388.5Q293 421 335 432L477 471Q515 482 548.5 462.0Q582 442 593 404Q603 366 583.5 334.5Q564 303 524 292L381 252Q345 241 310.5 261.5Q276 282 267 318ZM219 681Q219 722 247.5 750.5Q276 779 317 779H783Q825 779 853.5 750.5Q882 722 882 681Q882 639 853.5 610.5Q825 582 783 582H317Q276 582 247.5 610.5Q219 639 219 681ZM267 1042Q276 1079 309.0 1098.5Q342 1118 383 1107L526 1069Q564 1059 583.0 1025.0Q602 991 593 955Q582 915 549.5 898.0Q517 881 477 891L334 926Q296 936 276.0 970.5Q256 1005 267 1042ZM405 1380Q426 1416 465.0 1426.5Q504 1437 541 1416L944 1183Q981 1162 991.5 1123.0Q1002 1084 981 1048Q960 1012 921.0 1001.5Q882 991 845 1012L442 1245Q406 1266 395.5 1305.0Q385 1344 405 1380ZM629 1668Q658 1696 694.5 1696.5Q731 1697 760 1668L866 1562Q894 1534 894.0 1495.5Q894 1457 867 1430Q837 1401 800.5 1403.0Q764 1405 734 1433L627 1536Q600 1562 600.5 1601.5Q601 1641 629 1668ZM917 1892Q954 1912 992.5 1902.0Q1031 1892 1052 1855L1285 1452Q1307 1415 1296.0 1376.0Q1285 1337 1250 1317Q1214 1296 1174.5 1306.0Q1135 1316 1114 1353L882 1756Q861 1793 871.0 1832.0Q881 1871 917 1892ZM1255 2031Q1293 2038 1325.5 2020.5Q1358 2003 1370 1963L1409 1819Q1420 1782 1400.5 1748.5Q1381 1715 1344 1705Q1303 1694 1272.5 1713.5Q1242 1733 1230 1772L1188 1914Q1176 1955 1196.0 1989.0Q1216 2023 1255 2031Z" transform="translate(-2.5664,24.3633) scale(0.011719,-0.011719)"/>
  </g>
</svg>
