<svg xmlns="http://www.w3.org/2000/svg" viewBox="0 0 12.4922 14.7070" width="20.3857" height="24.0000">
  <g fill="black" stroke="black" stroke-width="0.25">
    <path d="M689 94Q579 94 482.5 135.5Q386 177 312.5 251.0Q239 325 197.5 422.0Q156 519 156 629Q156 729 191.5 822.0Q227 915 294.5 989.0Q362 1063 457.0 1106.5Q552 1150 671 1150Q693 1150 715.5 1150.0Q738 1150 761 1150Q812 1150 847.5 1114.5Q883 1079 883 1028Q883 977 847.5 941.5Q812 906 761 906Q740 906 720.0 906.0Q700 906 679 906Q596 906 532.5 871.0Q469 836 434.0 773.5Q399 711 399 628Q399 548 437.5 482.0Q476 416 542.0 377.0Q608 338 689 338Q769 338 835.0 377.0Q901 416 940.0 481.5Q979 547 979 628Q979 678 1014.5 713.5Q1050 749 1101 749Q1151 749 1186.5 713.5Q1222 678 1222 628Q1222 518 1180.0 421.0Q1138 324 1065.0 250.5Q992 177 895.5 135.5Q799 94 689 94ZM996 1024Q996 979 964 945L770 739Q755 722 733.0 710.5Q711 699 685 699Q632 699 603.0 731.0Q574 763 574 802Q574 828 583.5 845.0Q593 862 608 881L730 1024L608 1167Q593 1186 583.5 1203.0Q574 1220 574 1247Q574 1285 603.0 1317.0Q632 1349 685 1349Q711 1349 733.5 1337.0Q756 1325 770 1309L964 1103Q996 1069 996 1024Z" transform="translate(-1.8281,15.8086) scale(0.011719,-0.011719)"/>
  </g>
</svg>
