<svg xmlns="http://www.w3.org/2000/svg" viewBox="0 0 15.9614 15.9143" width="24.0711" height="24.0000">
  <g fill="black" stroke="black" stroke-width="0.25">
    <path d="M1386 672Q1439 672 1476.5 709.5Q1514 747 1514 800Q1514 852 1476.5 888.5Q1439 925 1386 925H1361L1246 903L1474 1110Q1519 1151 1518.0 1213.0Q1517 1275 1474 1319Q1430 1362 1368.0 1362.0Q1306 1362 1266 1318L1057 1089L1079 1203V1232Q1079 1286 1042.0 1323.0Q1005 1360 953 1360Q901 1360 863.5 1323.0Q826 1286 826 1232V844Q826 672 999 672ZM721 7Q774 7 811.0 44.0Q848 81 848 134V522Q848 694 675 694H288Q235 694 197.5 657.0Q160 620 160 567Q160 514 197.5 477.5Q235 441 288 441H314L429 463L201 257Q155 216 156.0 154.0Q157 92 200 48Q244 5 306.0 4.0Q368 3 408 48L617 277L595 164V134Q595 81 632.0 44.0Q669 7 721 7Z" transform="translate(-1.8279,15.9609) scale(0.011719,-0.011719)"/>
  </g>
</svg>
