<svg xmlns="http://www.w3.org/2000/svg" viewBox="0 0 25.7344 31.9922" width="19.3055" height="24.0000">
  <g fill="black" stroke="black" stroke-width="0.25">
    <path d="M2311 -683Q2230 -683 2172.5 -625.5Q2115 -568 2115 -487V1583Q2115 1616 2096.0 1635.5Q2077 1655 2044 1655H775Q742 1655 722.5 1635.5Q703 1616 703 1583V-487Q703 -568 645.5 -625.5Q588 -683 507 -683Q426 -683 368.5 -625.5Q311 -568 311 -487V1638Q311 1829 420.5 1938.0Q530 2047 722 2047H2097Q2289 2047 2398.0 1938.0Q2507 1829 2507 1638V-487Q2507 -568 2449.5 -625.5Q2392 -683 2311 -683ZM1924 -598H895Q880 -598 869.5 -587.5Q859 -577 859 -563V1463Q859 1478 869.5 1488.5Q880 1499 895 1499H1924Q1938 1499 1948.5 1488.5Q1959 1478 1959 1463V-563Q1959 -577 1948.5 -587.5Q1938 -598 1924 -598ZM1159 395Q1201 395 1230.0 425.0Q1259 455 1259 496Q1259 538 1230.0 567.5Q1201 597 1159 597Q1117 597 1087.5 567.5Q1058 538 1058 496Q1058 455 1087.5 425.0Q1117 395 1159 395Z" transform="translate(-3.6445,23.9883) scale(0.011719,-0.011719)"/>
  </g>
</svg>
