<svg xmlns="http://www.w3.org/2000/svg" viewBox="0 0 32.0824 28.5812" width="26.9400" height="24.0000">
  <g fill="black" stroke="black" stroke-width="0.25">
    <path d="M554 786Q455 786 381.0 837.0Q307 888 265.0 968.0Q223 1048 218.5 1137.0Q214 1226 252.0 1303.5Q290 1381 377 1424Q597 1534 812.5 1628.5Q1028 1723 1226.5 1793.5Q1425 1864 1593.0 1903.5Q1761 1943 1886 1943Q2026 1943 2142.0 1902.5Q2258 1862 2366.0 1778.5Q2474 1695 2591 1566Q2693 1453 2754.5 1375.0Q2816 1297 2852.5 1241.5Q2889 1186 2917 1142Q2966 1065 2953.0 999.5Q2940 934 2889.5 894.5Q2839 855 2772.5 855.0Q2706 855 2646 910L2312 1214Q2228 1290 2149.5 1326.0Q2071 1362 1982 1362Q1897 1362 1777.0 1320.0Q1657 1278 1518.0 1212.5Q1379 1147 1236.0 1073.5Q1093 1000 961.0 934.5Q829 869 723.0 827.5Q617 786 554 786ZM2674 228Q2567 114 2416.5 33.5Q2266 -47 2085.5 -89.5Q1905 -132 1709 -132Q1430 -132 1153.5 -63.5Q877 5 625 141Q551 181 524.5 241.0Q498 301 509.5 362.5Q521 424 562.0 470.0Q603 516 665.0 528.5Q727 541 800 501Q1020 383 1245.5 325.0Q1471 267 1709 267Q1917 267 2094.5 328.0Q2272 389 2380 497Q2438 555 2501.5 562.5Q2565 570 2619.0 541.5Q2673 513 2704.5 461.5Q2736 410 2732.0 348.0Q2728 286 2674 228ZM773 220 1091 119Q1061 63 1027.0 5.0Q993 -53 954.0 -108.5Q915 -164 871 -212Q823 -264 769.0 -273.0Q715 -282 668.5 -259.5Q622 -237 595.0 -193.5Q568 -150 572.5 -97.0Q577 -44 626 7Q672 55 706.5 104.0Q741 153 773 220ZM1189 69 1498 20Q1491 -35 1479.0 -102.0Q1467 -169 1448.5 -237.0Q1430 -305 1405 -365Q1378 -431 1330.5 -458.5Q1283 -486 1231.5 -480.5Q1180 -475 1140.0 -444.0Q1100 -413 1086.0 -361.5Q1072 -310 1101 -245Q1120 -201 1147.5 -118.0Q1175 -35 1189 69ZM1676 13 1984 74Q1996 19 2005.5 -48.0Q2015 -115 2019.5 -185.0Q2024 -255 2023 -320Q2021 -392 1986.0 -434.5Q1951 -477 1901.0 -490.0Q1851 -503 1802.0 -487.5Q1753 -472 1722.0 -428.5Q1691 -385 1695 -314Q1699 -265 1699.0 -177.0Q1699 -89 1676 13ZM2164 73 2421 235Q2479 176 2524.5 68.5Q2570 -39 2603 -176Q2618 -241 2594.0 -289.0Q2570 -337 2524.5 -362.5Q2479 -388 2427.5 -387.0Q2376 -386 2335.5 -353.0Q2295 -320 2283 -250Q2275 -205 2253.5 -124.5Q2232 -44 2164 73Z" transform="translate(-2.5550,22.7695) scale(0.011719,-0.011719)"/>
  </g>
</svg>
