<svg xmlns="http://www.w3.org/2000/svg" viewBox="0 0 15.9614 15.9143" width="24.0711" height="24.0000">
  <g fill="black" stroke="black" stroke-width="0.25">
    <path d="M288 672H675Q848 672 848 844V1232Q848 1286 811.0 1323.0Q774 1360 721 1360Q669 1360 632.0 1323.0Q595 1286 595 1232V1203L617 1089L408 1318Q368 1362 306.0 1362.0Q244 1362 200 1319Q157 1275 156.0 1213.0Q155 1151 201 1110L429 903L314 925H288Q235 925 197.5 888.5Q160 852 160 800Q160 747 197.5 709.5Q235 672 288 672ZM953 7Q1005 7 1042.0 44.0Q1079 81 1079 134V164L1057 277L1266 48Q1306 3 1368.0 4.0Q1430 5 1474 48Q1517 92 1518.0 154.0Q1519 216 1474 257L1246 463L1361 441H1386Q1439 441 1476.5 477.5Q1514 514 1514 567Q1514 620 1476.5 657.0Q1439 694 1386 694H999Q826 694 826 522V134Q826 81 863.5 44.0Q901 7 953 7Z" transform="translate(-1.8279,15.9609) scale(0.011719,-0.011719)"/>
  </g>
</svg>
