<svg xmlns="http://www.w3.org/2000/svg" viewBox="0 0 19.0781 13.5117" width="33.8873" height="24.0000">
  <g fill="black" stroke="black" stroke-width="0.25">
    <path d="M563 107Q449 107 357.0 157.5Q265 208 210.5 293.0Q156 378 156 481Q156 603 217.5 694.0Q279 785 386 810Q394 897 444.0 962.0Q494 1027 569.5 1057.0Q645 1087 729 1070Q794 1160 890.5 1210.0Q987 1260 1101 1260Q1238 1260 1347.0 1196.5Q1456 1133 1520.0 1022.5Q1584 912 1584 770Q1678 730 1731.0 643.0Q1784 556 1784 456Q1784 359 1733.5 279.5Q1683 200 1598.0 153.5Q1513 107 1409 107Z" transform="translate(-1.8281,14.7656) scale(0.011719,-0.011719)"/>
  </g>
</svg>
