<svg xmlns="http://www.w3.org/2000/svg" viewBox="0 0 14.3320 15.4883" width="22.2083" height="24.0000">
  <g fill="black" stroke="black" stroke-width="0.25">
    <path d="M425 526Q303 526 229.5 597.0Q156 668 156 776Q156 859 202.0 921.0Q248 983 325 1011Q340 1111 395.0 1187.0Q450 1263 534.0 1306.5Q618 1350 719 1350Q835 1350 922.0 1298.5Q1009 1247 1059 1149Q1151 1149 1223.5 1108.0Q1296 1067 1337.5 996.0Q1379 925 1379 835Q1379 748 1337.5 678.0Q1296 608 1225.0 567.0Q1154 526 1065 526ZM450 212Q437 190 412.5 183.5Q388 177 366 190Q342 203 336.0 228.0Q330 253 342 275L411 394Q423 416 448.0 422.5Q473 429 496 416Q518 403 524.5 378.5Q531 354 518 331ZM649 59Q636 37 611.5 30.5Q587 24 564 37Q541 50 534.5 74.5Q528 99 541 122L609 241Q622 263 646.5 269.5Q671 276 694 263Q717 250 723.5 225.0Q730 200 717 178ZM938 213Q925 191 900.5 184.5Q876 178 854 191Q831 203 824.5 228.0Q818 253 831 275L899 394Q912 416 936.5 422.5Q961 429 984 416Q1007 404 1013.0 379.0Q1019 354 1006 332ZM1126 59Q1113 37 1088.5 30.5Q1064 24 1042 37Q1018 50 1011.5 74.5Q1005 99 1018 122L1086 241Q1099 263 1124.0 269.5Q1149 276 1172 263Q1194 250 1200.5 225.0Q1207 200 1194 178Z" transform="translate(-1.8281,15.8203) scale(0.011719,-0.011719)"/>
  </g>
</svg>
