<svg xmlns="http://www.w3.org/2000/svg" viewBox="0 0 15.3281 16.5717" width="22.1990" height="24.0000">
  <g fill="black" stroke="black" stroke-width="0.25">
    <path d="M444 515H1127Q1223 515 1299.0 558.5Q1375 602 1419.5 677.0Q1464 752 1464 845Q1464 941 1419.5 1017.5Q1375 1094 1297.5 1138.0Q1220 1182 1122 1182Q1067 1286 975.0 1340.5Q883 1395 758 1395Q651 1395 561.0 1349.0Q471 1303 411.5 1221.5Q352 1140 338 1034Q254 1004 205.0 937.5Q156 871 156 783Q156 667 235.0 591.0Q314 515 444 515ZM438 180 511 307Q525 330 518.5 357.0Q512 384 487 398Q462 411 435.5 404.0Q409 397 396 374L323 247Q309 223 316.0 196.0Q323 169 347 156Q372 142 398.0 149.0Q424 156 438 180ZM610 13 776 304Q788 328 782.0 354.5Q776 381 752 395Q728 409 701.0 401.5Q674 394 661 372L494 80Q481 57 488.0 30.5Q495 4 520 -10Q544 -24 570.5 -16.5Q597 -9 610 13ZM968 180 1041 307Q1055 330 1048.0 357.0Q1041 384 1018 398Q993 411 966.5 404.0Q940 397 926 374L854 247Q840 223 846.5 196.0Q853 169 878 156Q901 142 927.5 149.0Q954 156 968 180ZM1139 13 1306 304Q1319 328 1312.5 354.5Q1306 381 1282 395Q1257 409 1230.5 401.5Q1204 394 1191 372L1025 80Q1012 57 1018.0 30.5Q1024 4 1050 -10Q1074 -24 1100.5 -16.5Q1127 -9 1139 13Z" transform="translate(-1.8281,16.3477) scale(0.011719,-0.011719)"/>
  </g>
</svg>
