<svg xmlns="http://www.w3.org/2000/svg" viewBox="0 0 15.9031 14.6016" width="26.1392" height="24.0000">
  <g fill="black" stroke="black" stroke-width="0.25">
    <path d="M756 834 645 993Q624 1019 617.5 1047.0Q611 1075 622 1112L677 1278Q692 1317 724 1317Q764 1317 772 1264L792 1125ZM822 707 897 1264Q905 1317 945 1317Q978 1317 993 1278L1047 1112Q1058 1075 1051.5 1047.0Q1045 1019 1024 993ZM547 71Q483 71 436.5 119.0Q390 167 395 231L400 303H397Q388 303 377.5 304.5Q367 306 358 309L238 341Q185 356 166.5 393.0Q148 430 162 479L338 1097Q351 1142 375.5 1172.0Q400 1202 448 1217L569 1257L518 1098Q504 1053 512.0 1020.0Q520 987 541 959L713 724V71ZM822 71 823 546 1128 959Q1149 987 1157.5 1020.0Q1166 1053 1150 1098L1100 1257L1221 1217Q1268 1202 1293.0 1172.0Q1318 1142 1330 1097L1507 479Q1521 430 1502.5 393.0Q1484 356 1432 342L1311 309Q1303 307 1293.0 305.0Q1283 303 1274 303H1271L1276 231Q1280 167 1233.5 119.0Q1187 71 1123 71ZM957 392Q983 392 1001.5 410.0Q1020 428 1020 455Q1020 482 1001.5 500.5Q983 519 957 519Q929 519 911.0 501.0Q893 483 893 455Q893 428 911.0 410.0Q929 392 957 392ZM957 184Q983 184 1001.5 202.5Q1020 221 1020 246Q1020 274 1001.5 292.0Q983 310 957 310Q929 310 911.0 292.0Q893 274 893 246Q893 221 911.0 202.5Q929 184 957 184Z" transform="translate(-1.8278,15.4336) scale(0.011719,-0.011719)"/>
  </g>
</svg>
