<svg xmlns="http://www.w3.org/2000/svg" viewBox="0 0 40.3359 30.5039" width="31.7357" height="24.0000">
  <g fill="black" stroke="black" stroke-width="0.25">
    <path d="M2781 466 2903 773Q3304 683 3528.5 512.5Q3753 342 3753 121Q3753 -46 3628.0 -182.0Q3503 -318 3274.0 -415.5Q3045 -513 2729.5 -566.0Q2414 -619 2032 -619Q1651 -619 1335.5 -566.0Q1020 -513 790.5 -415.5Q561 -318 436.0 -182.0Q311 -46 311 121Q311 337 521.5 502.5Q732 668 1111 760L1269 464Q1076 423 933.0 366.0Q790 309 711.5 245.0Q633 181 633 121Q633 58 706.0 -2.5Q779 -63 910.5 -116.5Q1042 -170 1218.0 -210.5Q1394 -251 1601.5 -274.5Q1809 -298 2032 -298Q2255 -298 2462.5 -274.5Q2670 -251 2846.0 -210.5Q3022 -170 3153.5 -116.5Q3285 -63 3358.0 -2.5Q3431 58 3431 121Q3431 182 3351.0 246.0Q3271 310 3124.5 367.5Q2978 425 2781 466ZM2916 1399H3247V1126Q3247 866 3166.0 648.5Q3085 431 2933.5 272.5Q2782 114 2570.5 27.0Q2359 -60 2098 -60H1966Q1705 -60 1493.5 26.5Q1282 113 1130.5 272.0Q979 431 898.0 648.0Q817 865 817 1126V1399H1148V1126Q1148 870 1246.0 677.5Q1344 485 1527.0 378.0Q1710 271 1966 271H2098Q2353 271 2536.5 378.0Q2720 485 2818.0 677.5Q2916 870 2916 1126ZM2032 812Q1759 812 1535.5 853.5Q1312 895 1151.0 972.0Q990 1049 903.5 1157.0Q817 1265 817 1399Q817 1532 903.5 1640.0Q990 1748 1150.5 1824.5Q1311 1901 1534.5 1942.5Q1758 1984 2032 1984Q2306 1984 2529.5 1942.5Q2753 1901 2914.0 1824.5Q3075 1748 3161.0 1640.0Q3247 1532 3247 1399Q3247 1265 3160.5 1157.0Q3074 1049 2913.5 972.0Q2753 895 2529.5 853.5Q2306 812 2032 812ZM2032 1143Q2216 1143 2376.5 1164.0Q2537 1185 2658.5 1221.0Q2780 1257 2848.0 1302.5Q2916 1348 2916 1399Q2916 1449 2848.0 1494.5Q2780 1540 2658.5 1575.5Q2537 1611 2376.5 1632.0Q2216 1653 2032 1653Q1848 1653 1687.5 1632.0Q1527 1611 1405.5 1575.5Q1284 1540 1216.0 1494.5Q1148 1449 1148 1399Q1148 1348 1216.5 1302.5Q1285 1257 1406.0 1221.0Q1527 1185 1687.5 1164.0Q1848 1143 2032 1143ZM3060 558V869H3200Q3295 869 3344.5 904.0Q3394 939 3394 1003Q3394 1067 3345.0 1101.0Q3296 1135 3200 1135H3060V1446H3200Q3435 1446 3570.0 1327.5Q3705 1209 3705 1003Q3705 795 3570.5 676.5Q3436 558 3200 558Z" transform="translate(-3.6445,23.2500) scale(0.011719,-0.011719)"/>
  </g>
</svg>
