<svg xmlns="http://www.w3.org/2000/svg" viewBox="0 0 14.5693 17.2383" width="20.2841" height="24.0000">
  <g fill="black" stroke="black" stroke-width="0.25">
    <path d="M503 -62Q407 -62 328.0 -16.5Q249 29 202.0 106.5Q155 184 155 280Q155 350 180.5 411.0Q206 472 256 519Q266 526 267.5 532.0Q269 538 269 549V999Q269 1111 334.0 1180.5Q399 1250 503 1250Q607 1250 672.0 1180.5Q737 1111 737 999V549Q737 531 748 519Q799 470 824.5 410.0Q850 350 850 280Q850 184 803.5 106.5Q757 29 678.0 -16.5Q599 -62 503 -62ZM503 82Q559 82 605.0 109.5Q651 137 678.5 183.0Q706 229 706 285Q706 341 681.5 383.5Q657 426 614 455Q591 468 591 496V994Q591 1044 567.0 1073.5Q543 1103 503 1103Q464 1103 439.5 1073.5Q415 1044 415 994V496Q415 468 393 455Q350 426 325.5 383.5Q301 341 301 285Q301 229 328.5 183.0Q356 137 401.5 109.5Q447 82 503 82ZM503 157Q450 157 413.0 194.5Q376 232 376 286Q376 323 395.0 352.0Q414 381 443 397Q457 404 462.0 412.0Q467 420 467 440V550Q467 570 477.5 581.5Q488 593 503 593Q518 593 528.5 581.5Q539 570 539 550V440Q539 420 544.0 412.0Q549 404 561 397Q593 381 611.5 352.0Q630 323 630 286Q630 233 593.0 195.0Q556 157 503 157ZM966 428Q941 428 924.5 446.5Q908 465 909 489L917 914L909 1347Q908 1372 924.5 1390.5Q941 1409 966 1409Q991 1409 1007.5 1391.0Q1024 1373 1023 1347L1016 914L1023 489Q1024 464 1007.5 446.0Q991 428 966 428ZM966 1257 1067 1314Q1087 1325 1107.5 1320.5Q1128 1316 1139 1297Q1150 1277 1144.0 1257.0Q1138 1237 1116 1225L997 1156Q983 1147 966 1147Q949 1147 934 1156L815 1225Q793 1237 787.0 1257.0Q781 1277 792 1297Q803 1316 823.5 1320.5Q844 1325 864 1314ZM1139 540Q1128 520 1107.5 515.5Q1087 511 1067 523L966 580L871 527L829 621L934 681Q949 689 966 689Q983 689 997 681L1116 612Q1138 600 1144.0 579.5Q1150 559 1139 540ZM1390 1164Q1403 1141 1395.5 1118.0Q1388 1095 1366 1082L987 873L830 780Q830 810 830.5 839.5Q831 869 831 899L938 958L1308 1182Q1330 1195 1354.0 1190.0Q1378 1185 1390 1164ZM1380 958Q1369 938 1348.5 933.5Q1328 929 1307 941L1188 1009Q1173 1018 1163 1033Q1156 1045 1156 1065V1202Q1156 1227 1170.0 1242.5Q1184 1258 1207 1258Q1229 1258 1243.0 1242.5Q1257 1227 1257 1204L1259 1088L1358 1028Q1378 1016 1385.0 996.5Q1392 977 1380 958ZM1390 674Q1378 651 1354.0 645.5Q1330 640 1308 653L937 877L831 936Q831 975 831.0 999.5Q831 1024 824 1062L986 962L1365 753Q1387 741 1395.0 718.0Q1403 695 1390 674ZM1207 579Q1184 579 1170.0 594.5Q1156 610 1156 634L1155 772Q1157 790 1164 804Q1171 818 1188 826L1307 896Q1328 908 1348.5 903.0Q1369 898 1380 879Q1392 860 1385.0 840.0Q1378 820 1358 808L1259 749L1257 633Q1257 609 1243.0 594.0Q1229 579 1207 579Z" transform="translate(-1.8164,16.5117) scale(0.011719,-0.011719)"/>
  </g>
</svg>
