<svg xmlns="http://www.w3.org/2000/svg" viewBox="0 0 35.4786 35.4903" width="23.9921" height="24.0000">
  <g fill="black" stroke="black" stroke-width="0.25">
    <path d="M437 441 2005 2010Q2162 2166 2340.0 2166.5Q2518 2167 2674 2011L3254 1431Q3308 1377 3307.5 1300.5Q3307 1224 3254 1170Q3200 1116 3124.0 1116.5Q3048 1117 2994 1170L2442 1724Q2393 1772 2343.0 1773.5Q2293 1775 2243 1724L722 204Q671 153 672.5 103.0Q674 53 723 5L1277 -548Q1330 -601 1330.0 -677.5Q1330 -754 1277 -808Q1223 -862 1146.0 -862.0Q1069 -862 1015 -808L435 -228Q280 -72 280.0 106.5Q280 285 437 441ZM586 -225 2669 1859 2931 1597 848 -487ZM2632 1394 2954 1071Q2989 1036 2988.0 987.5Q2987 939 2953 904Q2921 870 2872.0 870.5Q2823 871 2790 905L2466 1228ZM2397 1159 2721 835Q2755 801 2755.0 751.5Q2755 702 2719 669Q2685 637 2635.5 637.0Q2586 637 2554 669L2230 993ZM2161 923 2484 601Q2519 567 2518.0 516.5Q2517 466 2483 433Q2450 400 2400.0 400.5Q2350 401 2317 434L1995 756ZM1926 687 2248 365Q2282 330 2281.0 281.0Q2280 232 2247 198Q2214 164 2165.5 164.5Q2117 165 2082 199L1760 521ZM1690 452 2013 129Q2048 94 2046.5 45.5Q2045 -3 2012 -37Q1979 -71 1929.0 -71.0Q1879 -71 1846 -37L1524 285ZM1454 216 1778 -108Q1812 -142 1811.0 -191.0Q1810 -240 1776 -274Q1743 -307 1693.5 -307.0Q1644 -307 1611 -274L1288 50ZM1218 -20 1542 -343Q1576 -377 1575.5 -426.5Q1575 -476 1541 -510Q1507 -543 1458.5 -542.0Q1410 -541 1376 -507L1053 -186Z" transform="translate(-3.2812,25.3887) scale(0.011719,-0.011719)"/>
  </g>
</svg>
