<svg xmlns="http://www.w3.org/2000/svg" viewBox="0 0 14.1445 14.0977" width="24.0798" height="24.0000">
  <g fill="black" stroke="black" stroke-width="0.25">
    <path d="M415 81Q343 81 284.0 116.0Q225 151 190.5 210.0Q156 269 156 340Q156 412 191.0 470.5Q226 529 284.5 563.5Q343 598 414 598H1104Q1176 598 1234.5 563.5Q1293 529 1328.0 470.5Q1363 412 1363 340Q1363 269 1328.0 210.0Q1293 151 1234.5 116.0Q1176 81 1103 81Q1032 81 973.5 116.5Q915 152 880.0 210.5Q845 269 845 340V1026Q845 1096 880.0 1155.0Q915 1214 973.5 1249.0Q1032 1284 1103 1284Q1176 1284 1234.5 1249.0Q1293 1214 1328.0 1155.5Q1363 1097 1363 1026Q1363 954 1328.0 895.5Q1293 837 1234.5 802.5Q1176 768 1104 768H414Q343 768 284.5 802.5Q226 837 191.0 895.5Q156 954 156 1026Q156 1097 190.5 1155.5Q225 1214 284.0 1249.0Q343 1284 415 1284Q486 1284 545.0 1249.0Q604 1214 639.0 1155.0Q674 1096 674 1026V340Q674 269 639.0 210.5Q604 152 545.0 116.5Q486 81 415 81ZM415 264Q447 264 470.5 287.5Q494 311 494 346V1019Q494 1055 470.5 1078.5Q447 1102 415 1102Q383 1102 360.5 1079.5Q338 1057 338 1025Q338 993 361.5 969.5Q385 946 422 946H1098Q1133 946 1156.5 969.5Q1180 993 1180 1025Q1180 1057 1157.5 1079.5Q1135 1102 1103 1102Q1072 1102 1048.5 1078.5Q1025 1055 1025 1019V346Q1025 310 1048.5 287.0Q1072 264 1103 264Q1135 264 1157.5 286.5Q1180 309 1180 341Q1180 372 1156.5 395.5Q1133 419 1098 419H422Q385 419 361.5 395.5Q338 372 338 341Q338 309 360.5 286.5Q383 264 415 264Z" transform="translate(-1.8281,15.0469) scale(0.011719,-0.011719)"/>
  </g>
</svg>
