<svg xmlns="http://www.w3.org/2000/svg" viewBox="0 0 22.5352 34.4766" width="15.6873" height="24.0000">
  <g fill="black" stroke="black" stroke-width="0.25">
    <path d="M1273 -790Q803 -790 557.0 -513.0Q311 -236 311 290Q311 585 321.5 853.5Q332 1122 350 1321Q376 1610 481.5 1794.0Q587 1978 782.0 2065.0Q977 2152 1273 2152Q1568 2152 1763.5 2065.0Q1959 1978 2064.0 1794.0Q2169 1610 2196 1321Q2214 1122 2224.0 853.5Q2234 585 2234 290Q2234 -236 1988.5 -513.0Q1743 -790 1273 -790ZM1273 -428Q1572 -428 1722.5 -249.0Q1873 -70 1873 290Q1873 576 1863.0 835.5Q1853 1095 1834 1287Q1818 1482 1763.0 1591.5Q1708 1701 1591.0 1745.5Q1474 1790 1273 1790Q1071 1790 954.5 1745.5Q838 1701 783.0 1591.5Q728 1482 711 1287Q693 1095 683.0 835.5Q673 576 673 290Q673 -70 823.5 -249.0Q974 -428 1273 -428ZM498 1065V1356H2049V1065ZM1129 1162V1988L1420 1985V1160Z" transform="translate(-3.6445,25.2188) scale(0.011719,-0.011719)"/>
  </g>
</svg>
