<svg xmlns="http://www.w3.org/2000/svg" viewBox="0 0 13.7655 13.7617" width="24.0067" height="24.0000">
  <g fill="black" stroke="black" stroke-width="0.25">
    <path d="M310 108Q258 87 218.0 102.0Q178 117 162.0 157.5Q146 198 168 251L436 887Q452 924 477.0 949.5Q502 975 539 991L1172 1257Q1227 1279 1268.0 1264.0Q1309 1249 1324.0 1208.5Q1339 1168 1316 1114L1050 480Q1018 407 946 376ZM743 507Q814 507 864.5 557.5Q915 608 915 681Q915 751 864.5 802.0Q814 853 743 853Q672 853 621.5 802.0Q571 751 571 681Q571 608 621.5 557.5Q672 507 743 507Z" transform="translate(-1.8195,14.8838) scale(0.011719,-0.011719)"/>
  </g>
</svg>
