<svg xmlns="http://www.w3.org/2000/svg" viewBox="0 0 48.2038 29.3758" width="39.3824" height="24.0000">
  <g fill="black" stroke="black" stroke-width="0.25">
    <path d="M312 495Q312 597 392.0 686.5Q472 776 620.5 848.5Q769 921 976.5 973.0Q1184 1025 1441.5 1052.5Q1699 1080 1995 1080Q2291 1080 2548.5 1052.5Q2806 1025 3014.0 973.0Q3222 921 3370.5 848.5Q3519 776 3599.0 686.5Q3679 597 3679 495Q3679 223 3558.5 1.5Q3438 -220 3215.0 -379.5Q2992 -539 2682.5 -625.0Q2373 -711 1995 -711Q1617 -711 1308.0 -625.0Q999 -539 776.0 -379.5Q553 -220 432.5 2.0Q312 224 312 495ZM656 495Q656 463 735.5 429.5Q815 396 951.0 364.0Q1087 332 1260.5 307.0Q1434 282 1623.0 267.0Q1812 252 1995 252Q2178 252 2367.0 267.0Q2556 282 2729.0 307.0Q2902 332 3038.5 364.0Q3175 396 3254.5 429.5Q3334 463 3334 495Q3334 521 3277.0 550.5Q3220 580 3120.0 609.0Q3020 638 2889.0 663.5Q2758 689 2608.0 709.5Q2458 730 2301.5 741.5Q2145 753 1995 753Q1845 753 1688.5 741.5Q1532 730 1382.0 709.5Q1232 689 1100.5 663.5Q969 638 869.0 609.0Q769 580 712.5 550.5Q656 521 656 495ZM791 95Q864 -14 982.0 -100.0Q1100 -186 1256.0 -245.5Q1412 -305 1598.5 -335.5Q1785 -366 1995 -366Q2219 -366 2417.5 -332.0Q2616 -298 2778.5 -234.5Q2941 -171 3058.0 -82.0Q3175 7 3237 116Q3076 51 2873.5 4.0Q2671 -43 2446.5 -68.0Q2222 -93 1995 -93Q1771 -93 1550.0 -69.0Q1329 -45 1134.0 -3.0Q939 39 791 95ZM3418 493 3111 698 4034 1342Q4055 1356 4060.0 1374.5Q4065 1393 4058.5 1410.5Q4052 1428 4036.0 1439.0Q4020 1450 3998.0 1449.5Q3976 1449 3950 1431L2985 748L2595 838L3702 1674Q3835 1774 3956.5 1791.0Q4078 1808 4175.5 1764.0Q4273 1720 4336.5 1636.5Q4400 1553 4419.0 1451.0Q4438 1349 4400.5 1250.0Q4363 1151 4259 1078ZM1214 110Q1214 215 1273.0 300.5Q1332 386 1429.5 436.5Q1527 487 1643 487Q1671 487 1696.0 484.5Q1721 482 1746 477Q1820 556 1925.0 600.5Q2030 645 2147 645Q2299 645 2420.0 575.0Q2541 505 2606.5 384.0Q2672 263 2657 110Z" transform="translate(-3.6562,21.0438) scale(0.011719,-0.011719)"/>
  </g>
</svg>
