<svg xmlns="http://www.w3.org/2000/svg" viewBox="0 0 30.9023 30.9023" width="24.0000" height="24.0000">
  <g fill="black" stroke="black" stroke-width="0.25">
    <path d="M1537 -635Q1319 -635 1121.0 -568.5Q923 -502 758.5 -381.0Q594 -260 473.0 -95.0Q352 70 285.5 267.5Q219 465 219 683Q219 902 285.5 1099.5Q352 1297 473.0 1462.0Q594 1627 758.5 1748.0Q923 1869 1121.0 1935.5Q1319 2002 1537 2002Q1755 2002 1953.0 1935.5Q2151 1869 2315.5 1748.0Q2480 1627 2601.0 1462.0Q2722 1297 2789.0 1099.5Q2856 902 2856 683Q2856 465 2789.0 267.5Q2722 70 2601.0 -95.0Q2480 -260 2315.5 -381.0Q2151 -502 1953.0 -568.5Q1755 -635 1537 -635ZM1537 -239Q1728 -239 1895.5 -167.5Q2063 -96 2189.5 31.0Q2316 158 2388.0 325.0Q2460 492 2460 683Q2460 875 2388.0 1042.0Q2316 1209 2189.5 1336.0Q2063 1463 1895.5 1534.5Q1728 1606 1537 1606Q1346 1606 1178.5 1534.5Q1011 1463 884.5 1336.0Q758 1209 686.0 1042.0Q614 875 614 683Q614 492 686.0 325.0Q758 158 884.5 31.0Q1011 -96 1178.5 -167.5Q1346 -239 1537 -239ZM1553 1115Q1495 1115 1454.0 1156.0Q1413 1197 1413 1255Q1413 1313 1454.0 1353.5Q1495 1394 1553 1394Q1611 1394 1652.0 1353.5Q1693 1313 1693 1255Q1693 1197 1652.0 1156.0Q1611 1115 1553 1115ZM1148 917Q1104 917 1087.0 945.5Q1070 974 1080 1009L1172 1317Q1180 1345 1207.0 1359.5Q1234 1374 1263 1366Q1290 1357 1304.5 1330.5Q1319 1304 1310 1276L1245 1060H1542Q1580 1060 1607.5 1048.0Q1635 1036 1661 1014L1791 905H2044Q2074 905 2094.5 884.5Q2115 864 2115 834Q2115 805 2094.5 783.5Q2074 762 2044 762H1766Q1740 762 1721 779L1628 855Q1623 860 1618.0 858.0Q1613 856 1613 849L1596 623L1782 565Q1801 559 1817.0 544.5Q1833 530 1837 509L1899 200Q1904 171 1887.5 146.0Q1871 121 1842 116Q1818 111 1790.5 125.5Q1763 140 1757 171L1705 434L1461 485Q1401 498 1363.0 542.0Q1325 586 1330 657L1349 907Q1349 917 1340 917ZM1406 -66Q1378 -57 1364.0 -31.0Q1350 -5 1358 23L1447 319L1435 428Q1438 427 1441.0 426.5Q1444 426 1449 424L1591 394V317Q1591 310 1590.5 303.0Q1590 296 1588 289L1495 -18Q1486 -50 1458.5 -61.5Q1431 -73 1406 -66Z" transform="translate(-2.5664,23.4609) scale(0.011719,-0.011719)"/>
  </g>
</svg>
