<svg xmlns="http://www.w3.org/2000/svg" viewBox="0 0 30.4102 30.4102" width="24.0000" height="24.0000">
  <g fill="black" stroke="black" stroke-width="0.25">
    <path d="M311 269Q311 327 351.0 366.5Q391 406 448 406H556V546H448Q391 546 351.0 585.5Q311 625 311 683Q311 741 351.0 780.5Q391 820 448 820H556V959H448Q391 959 351.0 999.0Q311 1039 311 1097Q311 1154 351.0 1194.0Q391 1234 448 1234H556V1602Q556 1662 592.5 1698.0Q629 1734 688 1734H1058V1842Q1058 1900 1097.5 1939.5Q1137 1979 1195 1979Q1253 1979 1292.5 1939.5Q1332 1900 1332 1842V1734H1471V1842Q1471 1900 1511.0 1939.5Q1551 1979 1609 1979Q1666 1979 1706.0 1939.5Q1746 1900 1746 1842V1734H1885V1842Q1885 1900 1925.0 1939.5Q1965 1979 2023 1979Q2080 1979 2120.0 1939.5Q2160 1900 2160 1842V1734H2529Q2589 1734 2625.0 1698.0Q2661 1662 2661 1602V1234H2769Q2827 1234 2866.5 1194.5Q2906 1155 2906 1097Q2906 1039 2866.5 999.5Q2827 960 2769 960H2661V820H2769Q2827 820 2866.5 780.5Q2906 741 2906 683Q2906 626 2866.5 586.0Q2827 546 2769 546H2661V407H2769Q2827 407 2866.5 367.0Q2906 327 2906 269Q2906 212 2866.5 172.0Q2827 132 2769 132H2661V-239Q2661 -298 2625.0 -334.5Q2589 -371 2529 -371H2160V-479Q2160 -536 2120.0 -576.0Q2080 -616 2023 -616Q1965 -616 1925.0 -576.0Q1885 -536 1885 -479V-371H1746V-479Q1746 -536 1706.0 -576.0Q1666 -616 1609 -616Q1551 -616 1511.0 -576.0Q1471 -536 1471 -479V-371H1332V-479Q1332 -536 1292.5 -576.0Q1253 -616 1195 -616Q1137 -616 1097.5 -576.0Q1058 -536 1058 -479V-371H688Q629 -371 592.5 -334.5Q556 -298 556 -239V132H448Q391 132 351.0 171.5Q311 211 311 269Z" transform="translate(-3.6445,23.1914) scale(0.011719,-0.011719)"/>
  </g>
</svg>
