<svg xmlns="http://www.w3.org/2000/svg" viewBox="0 0 37.6289 17.9766" width="50.2373" height="24.0000">
  <g fill="black" stroke="black" stroke-width="0.25">
    <path d="M708 -85Q522 -85 416.5 19.0Q311 123 311 308V1057Q311 1240 417.0 1344.5Q523 1449 708 1449H3124Q3310 1449 3416.0 1344.5Q3522 1240 3522 1057V308Q3522 123 3416.5 19.0Q3311 -85 3125 -85ZM748 262H3084Q3126 262 3151.0 287.0Q3176 312 3176 358V1007Q3177 1052 3152.0 1077.0Q3127 1102 3085 1102H748Q706 1102 681.5 1077.0Q657 1052 657 1007V358Q657 312 682.0 287.0Q707 262 748 262ZM876 137V1216H1046L1045 137ZM2788 136V1216H2958V136ZM1918 596Q1722 596 1568.5 674.0Q1415 752 1323.0 892.0Q1231 1032 1221 1216H1403Q1408 1078 1475.0 973.5Q1542 869 1656.5 810.5Q1771 752 1918 752Q2064 752 2178.0 810.5Q2292 869 2359.0 974.0Q2426 1079 2431 1216H2612Q2602 1032 2510.5 892.0Q2419 752 2266.0 674.0Q2113 596 1918 596ZM1918 903Q1786 903 1700.5 981.0Q1615 1059 1611 1185H2223Q2219 1059 2133.5 981.0Q2048 903 1918 903Z" transform="translate(-3.6445,16.9805) scale(0.011719,-0.011719)"/>
  </g>
</svg>
