<svg xmlns="http://www.w3.org/2000/svg" viewBox="0 0 15.7500 11.7656" width="32.1275" height="24.0000">
  <g fill="black" stroke="black" stroke-width="0.25">
    <path d="M366 180Q266 180 211.0 234.5Q156 289 156 389V787H1500V389Q1500 289 1445.0 234.5Q1390 180 1290 180ZM403 372H539Q563 372 578.0 386.5Q593 401 593 425V527Q593 551 578.0 565.5Q563 580 539 580H403Q379 580 363.5 565.5Q348 551 348 527V425Q348 401 363.5 386.5Q379 372 403 372ZM156 929V974Q156 1074 211.0 1129.0Q266 1184 366 1184H1290Q1390 1184 1445.0 1129.0Q1500 1074 1500 974V929Z" transform="translate(-1.8281,13.8750) scale(0.011719,-0.011719)"/>
  </g>
</svg>
