<svg xmlns="http://www.w3.org/2000/svg" viewBox="0 0 14.2383 14.2734" width="23.9409" height="24.0000">
  <g fill="black" stroke="black" stroke-width="0.25">
    <path d="M953 1002Q903 1043 832.0 1077.0Q761 1111 678.5 1131.0Q596 1151 510.5 1152.0Q425 1153 345 1127Q426 1205 533.5 1249.5Q641 1294 762 1294Q821 1294 877.0 1283.0Q933 1272 985 1251Q1007 1196 998.0 1133.0Q989 1070 953 1002ZM714 711Q624 747 522.0 772.5Q420 798 324.0 797.0Q228 796 156 754Q166 842 202 926Q271 1000 363.5 1026.0Q456 1052 555.0 1041.5Q654 1031 743.0 995.0Q832 959 894 909Q860 859 814.5 810.0Q769 761 714 711ZM343 691Q343 581 372.0 475.0Q401 369 447.0 276.5Q493 184 545 115Q441 155 357.5 229.5Q274 304 221.5 403.0Q169 502 156 617Q184 659 232.5 675.5Q281 692 343 691ZM677 608Q683 518 718.0 418.0Q753 318 809.5 232.5Q866 147 935 101Q896 89 857.0 82.5Q818 76 773 76Q733 86 680.5 138.5Q628 191 577.5 273.5Q527 356 492.5 460.0Q458 564 454 677Q508 666 565.0 648.0Q622 630 677 608ZM1075 163Q1034 159 990.5 191.0Q947 223 907 279Q1035 374 1123.5 475.5Q1212 577 1266.5 674.0Q1321 771 1346 852Q1359 812 1365.0 770.5Q1371 729 1371 684Q1371 519 1289.5 381.0Q1208 243 1075 163ZM852 375Q825 433 807.0 499.5Q789 566 786 628Q878 712 952.5 807.0Q1027 902 1068.5 999.5Q1110 1097 1104 1188Q1199 1121 1264 1029Q1273 1006 1260.5 940.5Q1248 875 1203.5 782.5Q1159 690 1073.5 584.0Q988 478 852 375Z" transform="translate(-1.8281,15.1641) scale(0.011719,-0.011719)"/>
  </g>
</svg>
