<svg xmlns="http://www.w3.org/2000/svg" viewBox="0 0 15.6445 13.9219" width="26.9697" height="24.0000">
  <g fill="black" stroke="black" stroke-width="0.25">
    <path d="M362 154H1285Q1386 154 1438.5 207.0Q1491 260 1491 360V909Q1491 1007 1438.5 1061.0Q1386 1115 1285 1115H1194V1181Q1194 1259 1146.5 1300.5Q1099 1342 1011 1342H636Q548 1342 501.0 1300.5Q454 1259 454 1181V1115H362Q262 1115 209.0 1061.0Q156 1007 156 909V360Q156 260 209.0 207.0Q262 154 362 154ZM617 1115V1176Q617 1200 647 1200H1000Q1031 1200 1031 1176V1115ZM531 591V666Q531 700 552.0 720.0Q573 740 607 740H711V846Q711 879 732.0 899.5Q753 920 788 920H860Q894 920 915.0 899.5Q936 879 936 846V740H1040Q1074 740 1095.5 720.0Q1117 700 1117 666V591Q1117 558 1095.5 536.5Q1074 515 1040 515H936V411Q936 377 915.0 357.0Q894 337 860 337H788Q753 337 732.0 357.0Q711 377 711 411V515H607Q573 515 552.0 536.5Q531 558 531 591Z" transform="translate(-1.8281,15.7266) scale(0.011719,-0.011719)"/>
  </g>
</svg>
