<svg xmlns="http://www.w3.org/2000/svg" viewBox="0 0 40.3594 31.7930" width="30.4666" height="24.0000">
  <g fill="black" stroke="black" stroke-width="0.25">
    <path d="M714 789Q603 789 511.5 843.0Q420 897 365.5 988.5Q311 1080 311 1192Q311 1302 365.5 1393.0Q420 1484 511.5 1538.5Q603 1593 714 1593Q825 1593 916.0 1538.5Q1007 1484 1061.0 1393.0Q1115 1302 1115 1192Q1115 1080 1061.0 988.5Q1007 897 916.0 843.0Q825 789 714 789ZM714 1085Q758 1085 788.5 1116.0Q819 1147 819 1192Q819 1235 788.0 1266.0Q757 1297 714 1297Q670 1297 638.5 1266.5Q607 1236 607 1192Q607 1147 638.5 1116.0Q670 1085 714 1085ZM2034 1329Q1923 1329 1831.5 1383.5Q1740 1438 1685.5 1529.5Q1631 1621 1631 1732Q1631 1843 1685.5 1934.0Q1740 2025 1831.0 2079.5Q1922 2134 2034 2134Q2144 2134 2235.5 2079.5Q2327 2025 2381.0 1934.0Q2435 1843 2435 1732Q2435 1621 2381.0 1529.5Q2327 1438 2235.5 1383.5Q2144 1329 2034 1329ZM2034 1625Q2078 1625 2108.5 1656.5Q2139 1688 2139 1732Q2139 1776 2108.0 1807.0Q2077 1838 2034 1838Q1989 1838 1958.0 1807.0Q1927 1776 1927 1732Q1927 1688 1958.0 1656.5Q1989 1625 2034 1625ZM3353 789Q3242 789 3151.0 843.0Q3060 897 3005.5 988.5Q2951 1080 2951 1192Q2951 1302 3005.5 1393.0Q3060 1484 3151.0 1538.5Q3242 1593 3353 1593Q3464 1593 3555.5 1538.5Q3647 1484 3701.0 1393.0Q3755 1302 3755 1192Q3755 1080 3700.5 988.5Q3646 897 3555.0 843.0Q3464 789 3353 789ZM3353 1085Q3397 1085 3428.0 1116.0Q3459 1147 3459 1192Q3459 1236 3428.0 1266.5Q3397 1297 3353 1297Q3309 1297 3278.0 1266.0Q3247 1235 3247 1192Q3247 1147 3278.0 1116.0Q3309 1085 3353 1085ZM824 884 1012 1185 1375 959Q1390 949 1400.5 951.0Q1411 953 1420 965L1846 1545L2179 1400L1671 711Q1596 608 1481.0 589.0Q1366 570 1253 635ZM3251 872 2822 624Q2709 559 2594.5 578.0Q2480 597 2404 699L1896 1389L2229 1533L2655 953Q2664 941 2674.5 939.0Q2685 937 2701 947L3063 1173ZM994 -47V306H3074V-47ZM660 840 988 989 1269 -163Q1284 -225 1351 -225H2716Q2783 -225 2799 -163L3080 989L3408 840L3146 -226Q3103 -402 2997.0 -490.5Q2891 -579 2715 -579H1353Q1176 -579 1070.0 -490.5Q964 -402 921 -226Z" transform="translate(-3.6445,25.0078) scale(0.011719,-0.011719)"/>
  </g>
</svg>
