<svg xmlns="http://www.w3.org/2000/svg" viewBox="0 0 35.1680 37.4414" width="22.5427" height="24.0000">
  <g fill="black" stroke="black" stroke-width="0.25">
    <path d="M748 231Q620 231 521.5 285.0Q423 339 367.0 433.5Q311 528 311 650V747Q311 867 367.0 961.5Q423 1056 522.0 1110.5Q621 1165 748 1165H2875Q3003 1165 3101.5 1110.5Q3200 1056 3256.0 961.5Q3312 867 3312 747V650Q3312 528 3256.5 433.5Q3201 339 3102.0 285.0Q3003 231 2875 231ZM818 540H2806Q2875 540 2915.0 579.5Q2955 619 2955 684V712Q2955 777 2915.0 816.5Q2875 856 2806 856H818Q749 856 709.0 816.5Q669 777 669 712V684Q669 619 709.0 579.5Q749 540 818 540ZM1812 1497Q1755 1497 1717.0 1537.0Q1679 1577 1675 1634L1659 1862V2142Q1659 2203 1703.5 2249.5Q1748 2296 1812 2296Q1875 2296 1919.5 2249.5Q1964 2203 1964 2142V1862L1949 1634Q1945 1577 1907.0 1537.0Q1869 1497 1812 1497ZM1812 1279Q1755 1279 1702 1329L1322 1688Q1300 1708 1290.5 1731.5Q1281 1755 1281 1781Q1281 1839 1321.5 1879.0Q1362 1919 1419 1919Q1449 1919 1474.5 1907.0Q1500 1895 1515 1877L1625 1746L1711 1625H1912L2000 1747L2109 1877Q2124 1895 2149.5 1907.0Q2175 1919 2204 1919Q2262 1919 2302.5 1879.0Q2343 1839 2343 1781Q2343 1755 2333.5 1731.5Q2324 1708 2303 1688L1923 1329Q1870 1279 1812 1279ZM1812 -101Q1869 -101 1907.0 -141.0Q1945 -181 1949 -238L1964 -466V-745Q1964 -807 1919.5 -853.0Q1875 -899 1812 -899Q1748 -899 1703.5 -853.0Q1659 -807 1659 -745V-466L1675 -238Q1679 -181 1717.0 -141.0Q1755 -101 1812 -101ZM1812 117Q1870 117 1923 67L2303 -292Q2324 -311 2333.5 -334.5Q2343 -358 2343 -385Q2343 -443 2302.5 -483.0Q2262 -523 2204 -523Q2175 -523 2149.5 -510.5Q2124 -498 2109 -480L2000 -351L1912 -228H1711L1625 -350L1515 -480Q1500 -498 1474.5 -510.5Q1449 -523 1419 -523Q1362 -523 1321.5 -483.0Q1281 -443 1281 -385Q1281 -358 1290.5 -335.0Q1300 -312 1322 -292L1702 67Q1755 117 1812 117Z" transform="translate(-3.6445,26.9062) scale(0.011719,-0.011719)"/>
  </g>
</svg>
