<svg xmlns="http://www.w3.org/2000/svg" viewBox="0 0 14.2617 15.7676" width="21.7079" height="24.0000">
  <g fill="black" stroke="black" stroke-width="0.25">
    <path d="M763 726 205 1049Q220 1064 243 1076L678 1327Q764 1380 851 1327L1286 1076Q1308 1064 1322 1050ZM709 628V8Q701 11 693.5 14.5Q686 18 678 22L243 275Q156 324 156 422V922Q156 931 158 946ZM821 631 1371 948Q1371 943 1372.0 936.0Q1373 929 1373 924V423Q1373 323 1289 275L853 23Q844 18 836.5 14.5Q829 11 821 8Z" transform="translate(-1.8281,15.8613) scale(0.011719,-0.011719)"/>
  </g>
</svg>
