<svg xmlns="http://www.w3.org/2000/svg" viewBox="0 0 38.3461 34.2723" width="26.8528" height="24.0000">
  <g fill="black" stroke="black" stroke-width="0.25">
    <path d="M1216 1531Q1138 1531 1073.0 1570.0Q1008 1609 969.5 1673.5Q931 1738 931 1816Q931 1895 969.5 1960.0Q1008 2025 1073.0 2063.5Q1138 2102 1216 2102Q1295 2102 1359.5 2063.5Q1424 2025 1462.5 1960.0Q1501 1895 1501 1816Q1501 1738 1462.5 1673.5Q1424 1609 1359.5 1570.0Q1295 1531 1216 1531ZM2771 1584Q2692 1584 2627.5 1622.5Q2563 1661 2524.0 1726.0Q2485 1791 2485 1869Q2485 1948 2524.0 2012.5Q2563 2077 2627.5 2115.5Q2692 2154 2771 2154Q2849 2154 2914.0 2115.5Q2979 2077 3017.5 2012.5Q3056 1948 3056 1869Q3056 1791 3017.5 1726.0Q2979 1661 2914.0 1622.5Q2849 1584 2771 1584ZM457 1165Q406 1169 369.0 1199.5Q332 1230 317.5 1275.5Q303 1321 319 1369L501 1913Q521 1973 579.0 2001.5Q637 2030 696 2011Q757 1991 786.0 1933.0Q815 1875 794 1813L675 1458L1194 1419Q1293 1412 1386 1365L1773 1172H2221L2465 1382Q2562 1465 2681.5 1487.0Q2801 1509 2917 1470L3248 1360L3211 1727Q3205 1789 3246.5 1840.0Q3288 1891 3351 1898Q3413 1905 3463.5 1864.0Q3514 1823 3520 1759L3582 1148Q3587 1088 3561.0 1045.0Q3535 1002 3486.5 986.0Q3438 970 3378 991L3231 1041Q3218 1045 3210.0 1038.0Q3202 1031 3204 1019L3249 769Q3267 669 3245.0 567.5Q3223 466 3164 382L2874 -30L3086 -557Q3110 -617 3084.0 -676.5Q3058 -736 3000 -759Q2945 -781 2884.0 -759.5Q2823 -738 2798 -673L2556 -67Q2542 -32 2548.0 4.0Q2554 40 2569 71L2727 386L2419 339L2375 -77Q2368 -138 2324.0 -177.5Q2280 -217 2221 -217Q2183 -217 2145.5 -196.0Q2108 -175 2085.0 -137.0Q2062 -99 2067 -48L2122 487Q2127 537 2158.5 573.0Q2190 609 2237 622L2739 761L2623 1080Q2619 1090 2610.0 1092.5Q2601 1095 2593 1087L2378 900Q2336 863 2278 863H1753Q1696 863 1655 885L1356 1034Q1347 1040 1339.0 1036.0Q1331 1032 1330 1021L1291 641L2161 -460Q2200 -510 2192.0 -572.5Q2184 -635 2135 -676Q2086 -716 2021.0 -708.5Q1956 -701 1917 -652L1456 -67Q1454 -78 1451 -87L1281 -660Q1261 -727 1203.5 -754.0Q1146 -781 1088 -764Q1027 -747 996.0 -690.0Q965 -633 984 -571L1142 -44L832 354Q785 414 760.5 488.5Q736 563 736 639V1122Q736 1142 717 1145Z" transform="translate(-3.6399,25.2422) scale(0.011719,-0.011719)"/>
  </g>
</svg>
