<svg xmlns="http://www.w3.org/2000/svg" viewBox="0 0 28.6058 35.5533" width="19.3101" height="24.0000">
  <g fill="black" stroke="black" stroke-width="0.25">
    <path d="M867 2224Q979 2224 1079.5 2155.0Q1180 2086 1257.5 1973.0Q1335 1860 1379.5 1724.5Q1424 1589 1424 1457Q1424 1382 1407.0 1268.0Q1390 1154 1354.5 1025.5Q1319 897 1264 776H471Q416 897 380.5 1025.5Q345 1154 328.0 1268.0Q311 1382 311 1457Q311 1589 355.5 1724.5Q400 1860 477.5 1973.0Q555 2086 655.5 2155.0Q756 2224 867 2224ZM869 -69Q759 -69 682.5 -4.0Q606 61 566.0 176.0Q526 291 526 439Q526 457 527.0 484.5Q528 512 531 555H1206Q1209 512 1209.5 484.5Q1210 457 1210 439Q1210 291 1170.5 176.0Q1131 61 1054.5 -4.0Q978 -69 869 -69ZM2442 1364Q2547 1326 2617.5 1227.0Q2688 1128 2722.0 995.5Q2756 863 2751.5 721.0Q2747 579 2702 454Q2676 384 2621.5 282.5Q2567 181 2489.5 72.0Q2412 -37 2319 -131L1574 140Q1563 272 1574.0 405.0Q1585 538 1608.0 650.5Q1631 763 1657 834Q1702 959 1790.0 1070.5Q1878 1182 1989.5 1262.0Q2101 1342 2219.0 1372.0Q2337 1402 2442 1364ZM1658 -791Q1555 -753 1505.5 -665.5Q1456 -578 1457.5 -456.5Q1459 -335 1510 -195Q1517 -178 1527.0 -153.0Q1537 -128 1554 -88L2189 -319Q2176 -360 2167.5 -386.5Q2159 -413 2153 -430Q2102 -569 2025.5 -663.0Q1949 -757 1855.0 -792.5Q1761 -828 1658 -791Z" transform="translate(-3.6445,26.0625) scale(0.011719,-0.011719)"/>
  </g>
</svg>
