<svg xmlns="http://www.w3.org/2000/svg" viewBox="0 0 27.4688 27.4688" width="24.0000" height="24.0000">
  <g fill="black" stroke="black" stroke-width="0.25">
    <path d="M508 1660Q584 1734 685.5 1785.5Q787 1837 871 1837Q920 1837 950.5 1807.0Q981 1777 981 1731Q981 1694 958.5 1666.5Q936 1639 896 1628Q818 1606 766.5 1581.5Q715 1557 661 1507Q615 1460 587.0 1407.0Q559 1354 542 1282Q524 1192 433 1192Q387 1192 357.5 1224.0Q328 1256 329 1306Q333 1388 384.0 1487.0Q435 1586 508 1660ZM1782 1855Q1826 1855 1859.0 1822.5Q1892 1790 1892 1746Q1892 1701 1859.0 1668.5Q1826 1636 1782 1636H1185Q1140 1636 1107.5 1668.5Q1075 1701 1075 1746Q1075 1790 1107.5 1822.5Q1140 1855 1185 1855ZM2458 1660Q2532 1586 2583.0 1487.0Q2634 1388 2637 1306Q2638 1256 2609.0 1224.0Q2580 1192 2533 1192Q2443 1192 2425 1282Q2407 1354 2379.0 1407.0Q2351 1460 2306 1507Q2249 1559 2196.5 1583.0Q2144 1607 2070 1628Q2031 1639 2008.5 1666.5Q1986 1694 1986 1731Q1986 1777 2016.5 1807.0Q2047 1837 2095 1837Q2181 1837 2282.5 1785.0Q2384 1733 2458 1660ZM2655 381Q2655 337 2622.5 304.5Q2590 272 2546 272Q2501 272 2468.5 304.0Q2436 336 2436 381V980Q2436 1025 2468.5 1057.5Q2501 1090 2546 1090Q2590 1090 2622.5 1057.5Q2655 1025 2655 980ZM2458 -293Q2383 -368 2281.5 -419.5Q2180 -471 2095 -471Q2047 -471 2016.5 -441.0Q1986 -411 1986 -364Q1986 -327 2008.5 -299.5Q2031 -272 2070 -261Q2150 -240 2200.0 -216.0Q2250 -192 2306 -141Q2351 -93 2379.0 -40.0Q2407 13 2425 85Q2443 175 2533 175Q2580 175 2609.0 143.0Q2638 111 2637 61Q2634 -21 2583.0 -120.5Q2532 -220 2458 -293ZM1185 -489Q1140 -489 1107.5 -456.0Q1075 -423 1075 -379Q1075 -335 1107.5 -302.5Q1140 -270 1185 -270H1782Q1826 -270 1859.0 -302.5Q1892 -335 1892 -379Q1892 -423 1859.0 -456.0Q1826 -489 1782 -489ZM508 -293Q435 -220 384.0 -120.5Q333 -21 329 61Q328 111 357.5 143.0Q387 175 433 175Q524 175 542 85Q559 13 587.0 -40.0Q615 -93 661 -141Q717 -192 770.0 -217.0Q823 -242 896 -261Q936 -272 958.5 -299.5Q981 -327 981 -364Q981 -411 950.5 -441.0Q920 -471 871 -471Q785 -471 683.5 -418.5Q582 -366 508 -293ZM311 980Q311 1025 344.0 1057.5Q377 1090 421 1090Q465 1090 497.5 1057.5Q530 1025 530 980V381Q530 336 498.0 304.0Q466 272 421 272Q377 272 344.0 304.5Q311 337 311 381ZM1158 -169Q1014 -169 917.5 -143.5Q821 -118 750 -48Q680 22 655.0 118.0Q630 214 630 359V1008Q630 1153 655.0 1248.5Q680 1344 750 1414Q820 1485 917.0 1510.5Q1014 1536 1158 1536H1807Q1951 1536 2048.0 1510.5Q2145 1485 2215 1414Q2286 1345 2310.5 1249.0Q2335 1153 2335 1008V359Q2335 214 2310.5 118.0Q2286 22 2215 -48Q2145 -118 2048.0 -143.5Q1951 -169 1807 -169Z" transform="translate(-3.6445,21.7383) scale(0.011719,-0.011719)"/>
  </g>
</svg>
