<svg xmlns="http://www.w3.org/2000/svg" viewBox="0 0 31.0430 34.5469" width="21.5658" height="24.0000">
  <g fill="black" stroke="black" stroke-width="0.25">
    <path d="M499 -190Q411 -140 361.0 -54.0Q311 32 311 135V1232Q311 1334 361.0 1420.5Q411 1507 499 1557L1447 2105Q1537 2157 1636.0 2157.0Q1735 2157 1824 2105L2773 1557Q2860 1507 2910.0 1420.5Q2960 1334 2960 1232V135Q2960 32 2910.0 -54.0Q2860 -140 2773 -190L1824 -739Q1735 -791 1636.0 -791.0Q1537 -791 1447 -739ZM1310 54 1636 292 1962 54Q2004 23 2043.5 28.5Q2083 34 2102.0 68.0Q2121 102 2103 157L1976 540L2303 776Q2339 802 2347.0 842.5Q2355 883 2331.5 914.5Q2308 946 2250 945L1846 939L1723 1325Q1706 1377 1670.5 1394.5Q1635 1412 1600.0 1394.5Q1565 1377 1548 1325L1425 939L1022 945Q965 946 941.0 914.5Q917 883 924.0 842.5Q931 802 967 776L1295 539L1167 157Q1150 104 1169.5 69.5Q1189 35 1228.5 28.5Q1268 22 1310 54Z" transform="translate(-3.6445,25.2773) scale(0.011719,-0.011719)"/>
  </g>
</svg>
