<svg xmlns="http://www.w3.org/2000/svg" viewBox="0 0 28.0195 28.0195" width="24.0000" height="24.0000">
  <g fill="black" stroke="black" stroke-width="0.25">
    <path d="M774 -513Q553 -513 432.0 -392.5Q311 -272 311 -51V1417Q311 1638 432.0 1758.0Q553 1878 774 1878H2239Q2461 1878 2581.5 1758.0Q2702 1638 2702 1417V-51Q2702 -272 2581.5 -392.5Q2461 -513 2239 -513ZM1068 16Q1108 16 1134.0 43.0Q1160 70 1160 110V437Q1179 443 1206.5 447.5Q1234 452 1266 452Q1344 452 1411.5 436.0Q1479 420 1543.0 399.5Q1607 379 1676.0 363.0Q1745 347 1825 347Q1894 347 1935.5 353.5Q1977 360 2016 379Q2113 426 2113 534V1131Q2113 1176 2085.5 1202.0Q2058 1228 2007 1228Q1974 1228 1931.5 1215.5Q1889 1203 1820 1203Q1748 1203 1683.5 1219.0Q1619 1235 1554.0 1256.5Q1489 1278 1417.5 1294.0Q1346 1310 1261 1310Q1192 1310 1151.5 1302.0Q1111 1294 1071 1276Q974 1234 974 1124V110Q974 71 1002.5 43.5Q1031 16 1068 16Z" transform="translate(-3.6445,22.0078) scale(0.011719,-0.011719)"/>
  </g>
</svg>
