<svg xmlns="http://www.w3.org/2000/svg" viewBox="0 0 34.7227 30.2109" width="27.5842" height="24.0000">
  <g fill="black" stroke="black" stroke-width="0.25">
    <path d="M1700 -412Q1546 -412 1405.5 -363.5Q1265 -315 1150 -226L1808 393Q1853 435 1852.0 494.0Q1851 553 1808 599Q1769 640 1707.0 641.5Q1645 643 1605 599L984 -63Q895 53 844.5 195.0Q794 337 794 494Q794 682 864.0 846.5Q934 1011 1059.0 1135.5Q1184 1260 1348.0 1330.5Q1512 1401 1700 1401Q1888 1401 2052.0 1330.5Q2216 1260 2341.0 1135.5Q2466 1011 2536.0 846.5Q2606 682 2606 494Q2606 306 2536.0 142.0Q2466 -22 2341.0 -147.0Q2216 -272 2052.0 -342.0Q1888 -412 1700 -412ZM780 -604Q708 -604 657.0 -553.0Q606 -502 606 -430Q606 -358 657.0 -306.5Q708 -255 780 -255Q852 -255 903.0 -306.5Q954 -358 954 -430Q954 -502 903.0 -553.0Q852 -604 780 -604ZM393 320Q321 320 270.0 371.0Q219 422 219 494Q219 566 270.0 617.0Q321 668 393 668Q465 668 516.0 617.0Q567 566 567 494Q567 422 516.0 371.0Q465 320 393 320ZM780 1243Q708 1243 657.0 1294.0Q606 1345 606 1417Q606 1489 657.0 1540.0Q708 1591 780 1591Q852 1591 903.0 1540.0Q954 1489 954 1417Q954 1345 903.0 1294.0Q852 1243 780 1243ZM1700 1626Q1628 1626 1577.0 1677.0Q1526 1728 1526 1800Q1526 1872 1577.0 1923.0Q1628 1974 1700 1974Q1772 1974 1823.0 1923.0Q1874 1872 1874 1800Q1874 1728 1823.0 1677.0Q1772 1626 1700 1626ZM2620 1243Q2548 1243 2497.0 1294.0Q2446 1345 2446 1417Q2446 1489 2497.0 1540.0Q2548 1591 2620 1591Q2692 1591 2743.0 1540.0Q2794 1489 2794 1417Q2794 1345 2743.0 1294.0Q2692 1243 2620 1243ZM3007 320Q2935 320 2884.0 371.0Q2833 422 2833 494Q2833 566 2884.0 617.0Q2935 668 3007 668Q3079 668 3130.5 617.0Q3182 566 3182 494Q3182 422 3130.5 371.0Q3079 320 3007 320ZM2620 -604Q2548 -604 2497.0 -553.0Q2446 -502 2446 -430Q2446 -358 2497.0 -306.5Q2548 -255 2620 -255Q2692 -255 2743.0 -306.5Q2794 -358 2794 -430Q2794 -502 2743.0 -553.0Q2692 -604 2620 -604Z" transform="translate(-2.5664,23.1328) scale(0.011719,-0.011719)"/>
  </g>
</svg>
