<svg xmlns="http://www.w3.org/2000/svg" viewBox="0 0 38.4023 38.5078" width="23.9343" height="24.0000">
  <g fill="black" stroke="black" stroke-width="0.25">
    <path d="M311 372Q311 481 354.0 594.0Q397 707 489 812Q419 899 387.0 997.5Q355 1096 355 1191Q355 1303 393.0 1408.0Q431 1513 499.5 1601.0Q568 1689 659.5 1749.5Q751 1810 859 1832Q876 1941 940.5 2029.5Q1005 2118 1101.0 2181.5Q1197 2245 1309.0 2279.5Q1421 2314 1535 2314Q1650 2314 1757.0 2279.0Q1864 2244 1950 2166Q2036 2244 2142.5 2279.0Q2249 2314 2365 2314Q2478 2314 2590.5 2279.5Q2703 2245 2798.5 2181.5Q2894 2118 2958.5 2029.5Q3023 1941 3040 1832Q3148 1810 3240.0 1749.5Q3332 1689 3400.0 1601.0Q3468 1513 3506.0 1408.0Q3544 1303 3544 1191Q3544 1096 3512.5 997.5Q3481 899 3410 812Q3502 707 3545.0 594.0Q3588 481 3588 372Q3588 211 3519.0 86.0Q3450 -39 3328.5 -110.0Q3207 -181 3051 -181Q2986 -181 2915.5 -166.0Q2845 -151 2772 -118Q2731 -148 2664.0 -183.0Q2597 -218 2507.5 -245.5Q2418 -273 2311 -279Q2330 -189 2374.5 -77.5Q2419 34 2472.5 145.5Q2526 257 2574 348Q2419 357 2323.5 427.0Q2228 497 2184 602Q2135 572 2076.0 556.0Q2017 540 1950 540Q1882 540 1823.0 556.0Q1764 572 1715 602Q1671 497 1575.5 427.0Q1480 357 1325 348Q1373 257 1427.0 145.5Q1481 34 1525.0 -77.5Q1569 -189 1588 -279Q1481 -273 1391.5 -245.5Q1302 -218 1235.0 -183.0Q1168 -148 1128 -118Q1055 -151 984.0 -166.0Q913 -181 849 -181Q692 -181 570.5 -110.0Q449 -39 380.0 86.0Q311 211 311 372ZM1950 -972Q1851 -972 1791.5 -936.5Q1732 -901 1732 -848Q1732 -817 1735.5 -760.0Q1739 -703 1743.0 -633.5Q1747 -564 1750.5 -494.5Q1754 -425 1754 -370Q1754 -294 1726.0 -194.0Q1698 -94 1654.0 13.5Q1610 121 1561.5 222.0Q1513 323 1471.0 402.5Q1429 482 1406 524L1583 662Q1626 586 1664.5 517.5Q1703 449 1743.5 370.0Q1784 291 1833 184L1832 640L2064 637L2066 186Q2115 292 2155.5 370.0Q2196 448 2235.0 519.0Q2274 590 2320 675L2511 564Q2483 510 2437.5 423.0Q2392 336 2341.5 231.0Q2291 126 2246.5 16.5Q2202 -93 2173.5 -193.5Q2145 -294 2145 -370Q2145 -425 2148.5 -494.5Q2152 -564 2156.5 -633.5Q2161 -703 2164.0 -760.0Q2167 -817 2167 -848Q2167 -901 2107.5 -936.5Q2048 -972 1950 -972Z" transform="translate(-3.6445,27.1172) scale(0.011719,-0.011719)"/>
  </g>
</svg>
