<svg xmlns="http://www.w3.org/2000/svg" viewBox="0 0 31.0430 34.5469" width="21.5658" height="24.0000">
  <g fill="black" stroke="black" stroke-width="0.25">
    <path d="M499 -190Q411 -140 361.0 -54.0Q311 32 311 135V1232Q311 1334 361.0 1420.5Q411 1507 499 1557L1447 2105Q1537 2157 1636.0 2157.0Q1735 2157 1824 2105L2773 1557Q2860 1507 2910.0 1420.5Q2960 1334 2960 1232V135Q2960 32 2910.0 -54.0Q2860 -140 2773 -190L1824 -739Q1735 -791 1636.0 -791.0Q1537 -791 1447 -739Z" transform="translate(-3.6445,25.2773) scale(0.011719,-0.011719)"/>
  </g>
</svg>
