<svg xmlns="http://www.w3.org/2000/svg" viewBox="0 0 35.9705 36.9344" width="23.3737" height="24.0000">
  <g fill="black" stroke="black" stroke-width="0.25">
    <path d="M459 -681Q339 -561 299.0 -412.5Q259 -264 304.5 -115.0Q350 34 486 154Q586 244 719.0 336.0Q852 428 999.0 527.5Q1146 627 1291.5 737.5Q1437 848 1563 974Q1619 1030 1637.0 1101.5Q1655 1173 1656.0 1257.5Q1657 1342 1658.5 1437.5Q1660 1533 1681.0 1636.5Q1702 1740 1761.0 1848.5Q1820 1957 1937 2069Q2058 2184 2210.5 2239.5Q2363 2295 2525.5 2291.0Q2688 2287 2840.0 2224.0Q2992 2161 3111 2039Q3172 1977 3209.0 1903.0Q3246 1829 3262 1771L2747 1620Q2682 1600 2654.0 1551.5Q2626 1503 2643 1440L2857 648Q2767 611 2685.0 598.5Q2603 586 2529.0 581.5Q2455 577 2386.5 568.5Q2318 560 2255.5 534.0Q2193 508 2135 449Q2032 346 1936.0 226.5Q1840 107 1751.5 -17.0Q1663 -141 1582.5 -259.0Q1502 -377 1430.0 -478.5Q1358 -580 1295 -653Q1176 -790 1027.5 -836.0Q879 -882 729.5 -841.5Q580 -801 459 -681ZM873 -402Q929 -402 968.5 -362.0Q1008 -322 1008 -267Q1008 -212 968.5 -172.5Q929 -133 873 -133Q819 -133 779.0 -172.5Q739 -212 739 -267Q739 -322 779.0 -362.0Q819 -402 873 -402ZM2049 1233 2320 1305Q2339 1310 2350.5 1327.5Q2362 1345 2354 1366Q2346 1385 2330.0 1395.0Q2314 1405 2296 1400L2022 1327Q2003 1322 1992.5 1304.5Q1982 1287 1987 1269Q1993 1248 2010.5 1237.5Q2028 1227 2049 1233ZM2083 1095 2354 1167Q2373 1172 2383.5 1189.0Q2394 1206 2387 1228Q2381 1247 2364.5 1257.0Q2348 1267 2330 1262L2056 1189Q2037 1184 2026.5 1166.5Q2016 1149 2022 1131Q2037 1083 2083 1095ZM2117 958 2391 1032Q2409 1037 2420.0 1054.5Q2431 1072 2424 1092Q2419 1110 2402.0 1119.5Q2385 1129 2365 1124L2092 1052Q2073 1047 2063.0 1030.0Q2053 1013 2057 993Q2060 972 2079.0 962.5Q2098 953 2117 958ZM3047 754 2881 1373Q2899 1371 2916.5 1373.0Q2934 1375 2955 1382L3329 1492Q3358 1382 3346.5 1269.5Q3335 1157 3288.5 1052.5Q3242 948 3165 864Q3137 833 3107.5 805.5Q3078 778 3047 754Z" transform="translate(-3.2846,26.8508) scale(0.011719,-0.011719)"/>
  </g>
</svg>
