<svg xmlns="http://www.w3.org/2000/svg" viewBox="0 0 38.5781 28.7227" width="32.2350" height="24.0000">
  <g fill="black" stroke="black" stroke-width="0.25">
    <path d="M2607 544Q2664 544 2705.0 584.5Q2746 625 2746 683Q2746 741 2705.0 781.0Q2664 821 2607 821H2173Q2116 821 2076.0 781.0Q2036 741 2036 683Q2036 625 2076.0 584.5Q2116 544 2173 544ZM1329 279Q1387 279 1427.5 319.5Q1468 360 1468 418V544H1597Q1654 544 1694.5 584.5Q1735 625 1735 683Q1735 741 1694.5 781.0Q1654 821 1597 821H1468V950Q1468 1008 1427.5 1048.5Q1387 1089 1330 1089Q1273 1089 1232.5 1048.5Q1192 1008 1192 950V821H1066Q1008 821 967.0 781.0Q926 741 926 683Q926 625 967.0 584.5Q1008 544 1066 544H1192V418Q1192 360 1232.0 319.5Q1272 279 1329 279ZM219 683Q219 959 309.0 1184.5Q399 1410 566.5 1572.0Q734 1734 966.0 1821.5Q1198 1909 1483 1909H2247Q2531 1909 2763.5 1821.5Q2996 1734 3163.5 1572.0Q3331 1410 3421.0 1184.5Q3511 959 3511 683Q3511 407 3421.0 182.0Q3331 -43 3163.5 -205.0Q2996 -367 2763.5 -454.5Q2531 -542 2247 -542H1483Q1198 -542 966.0 -454.5Q734 -367 566.5 -205.0Q399 -43 309.0 182.0Q219 407 219 683Z" transform="translate(-2.5664,22.3711) scale(0.011719,-0.011719)"/>
  </g>
</svg>
