<svg xmlns="http://www.w3.org/2000/svg" viewBox="0 0 33.5156 33.5273" width="23.9916" height="24.0000">
  <g fill="black" stroke="black" stroke-width="0.25">
    <path d="M915 -421Q728 -421 634.5 -328.0Q541 -235 541 -47V201Q541 226 524 244L349 419Q216 552 216.0 683.5Q216 815 349 948L524 1123Q541 1141 541 1166V1414Q541 1603 634.0 1695.5Q727 1788 915 1788H1163Q1189 1788 1206 1806L1382 1979Q1514 2114 1645.5 2114.0Q1777 2114 1910 1980L2085 1806Q2103 1788 2128 1788H2377Q2564 1788 2657.0 1694.5Q2750 1601 2750 1414V1166Q2750 1141 2768 1123L2943 948Q3076 815 3076.0 683.5Q3076 552 2943 419L2768 244Q2750 226 2750 201V-47Q2750 -234 2657.0 -327.5Q2564 -421 2377 -421H2128Q2103 -421 2085 -439L1910 -614Q1777 -747 1645.5 -747.0Q1514 -747 1382 -614L1206 -439Q1189 -421 1163 -421ZM1512 61Q1606 61 1665 146L2223 983Q2242 1010 2251.0 1037.5Q2260 1065 2260 1091Q2260 1158 2210.0 1201.0Q2160 1244 2094 1244Q2010 1244 1952 1153L1510 453L1324 675Q1297 706 1267.0 721.5Q1237 737 1199 737Q1133 737 1085.0 690.5Q1037 644 1037 577Q1037 517 1084 461L1354 143Q1387 104 1425.5 82.5Q1464 61 1512 61Z" transform="translate(-2.5312,24.7734) scale(0.011719,-0.011719)"/>
  </g>
</svg>
