<svg xmlns="http://www.w3.org/2000/svg" viewBox="0 0 30.9023 30.9023" width="24.0000" height="24.0000">
  <g fill="black" stroke="black" stroke-width="0.25">
    <path d="M1537 -637Q1319 -637 1121.0 -570.5Q923 -504 758.5 -383.0Q594 -262 473.0 -97.0Q352 68 285.5 265.5Q219 463 219 681Q219 900 285.5 1097.5Q352 1295 473.0 1460.0Q594 1625 758.5 1746.0Q923 1867 1121.0 1933.5Q1319 2000 1537 2000Q1755 2000 1953.0 1933.5Q2151 1867 2315.5 1746.0Q2480 1625 2601.0 1460.0Q2722 1295 2789.0 1097.5Q2856 900 2856 681Q2856 463 2789.0 265.5Q2722 68 2601.0 -97.0Q2480 -262 2315.5 -383.0Q2151 -504 1953.0 -570.5Q1755 -637 1537 -637ZM1087 14Q1127 14 1153.0 41.0Q1179 68 1179 108V435Q1198 441 1225.5 445.5Q1253 450 1285 450Q1363 450 1430.5 434.0Q1498 418 1562.0 397.5Q1626 377 1695.0 361.0Q1764 345 1844 345Q1913 345 1954.5 351.5Q1996 358 2035 377Q2132 424 2132 532V1129Q2132 1174 2104.5 1200.0Q2077 1226 2026 1226Q1993 1226 1950.5 1213.5Q1908 1201 1839 1201Q1767 1201 1702.5 1217.0Q1638 1233 1573.0 1254.5Q1508 1276 1436.5 1292.0Q1365 1308 1280 1308Q1211 1308 1170.5 1300.0Q1130 1292 1090 1274Q993 1232 993 1122V108Q993 69 1021.5 41.5Q1050 14 1087 14Z" transform="translate(-2.5664,23.4375) scale(0.011719,-0.011719)"/>
  </g>
</svg>
