<svg xmlns="http://www.w3.org/2000/svg" viewBox="0 0 31.9102 30.4922" width="25.1161" height="24.0000">
  <g fill="black" stroke="black" stroke-width="0.25">
    <path d="M1285 -618Q1203 -618 1134.0 -598.5Q1065 -579 1007.0 -540.0Q949 -501 900 -445L436 92Q386 150 359.0 199.0Q332 248 321.5 303.0Q311 358 311 434V932Q311 1009 321.5 1063.5Q332 1118 359.0 1167.0Q386 1216 436 1274L900 1811Q949 1867 1007.0 1906.0Q1065 1945 1134.0 1964.5Q1203 1984 1285 1984H2060Q2142 1984 2212.0 1965.0Q2282 1946 2340.0 1907.0Q2398 1868 2445 1811L2886 1274Q2939 1209 2971.5 1161.0Q3004 1113 3019.0 1061.0Q3034 1009 3034 932V434Q3034 358 3023.5 303.0Q3013 248 2986.0 199.0Q2959 150 2909 92L2445 -445Q2396 -501 2338.0 -540.0Q2280 -579 2211.0 -598.5Q2142 -618 2060 -618Z" transform="translate(-3.6445,23.2500) scale(0.011719,-0.011719)"/>
  </g>
</svg>
