<svg xmlns="http://www.w3.org/2000/svg" viewBox="0 0 33.5156 33.5273" width="23.9916" height="24.0000">
  <g fill="black" stroke="black" stroke-width="0.25">
    <path d="M915 -421Q728 -421 634.5 -328.0Q541 -235 541 -47V201Q541 226 524 244L349 419Q216 552 216.0 683.5Q216 815 349 948L524 1123Q541 1141 541 1166V1414Q541 1603 634.0 1695.5Q727 1788 915 1788H1163Q1189 1788 1206 1806L1382 1979Q1514 2114 1645.5 2114.0Q1777 2114 1910 1980L2085 1806Q2103 1788 2128 1788H2377Q2564 1788 2657.0 1694.5Q2750 1601 2750 1414V1166Q2750 1141 2768 1123L2943 948Q3076 815 3076.0 683.5Q3076 552 2943 419L2768 244Q2750 226 2750 201V-47Q2750 -234 2657.0 -327.5Q2564 -421 2377 -421H2128Q2103 -421 2085 -439L1910 -614Q1777 -747 1645.5 -747.0Q1514 -747 1382 -614L1206 -439Q1189 -421 1163 -421ZM1277 150Q1352 150 1401 199L1646 443L1892 199Q1941 150 2016 150Q2087 150 2135.0 198.0Q2183 246 2183 318Q2183 385 2132 432L1885 682L2133 932Q2183 980 2183 1047Q2183 1118 2135.0 1166.0Q2087 1214 2017 1214Q1943 1214 1894 1165L1646 918L1400 1164Q1351 1213 1277 1213Q1207 1213 1159.0 1165.0Q1111 1117 1111 1046Q1111 980 1161 931L1410 682L1161 432Q1111 383 1111 318Q1111 246 1159.0 198.0Q1207 150 1277 150Z" transform="translate(-2.5312,24.7734) scale(0.011719,-0.011719)"/>
  </g>
</svg>
