<svg xmlns="http://www.w3.org/2000/svg" viewBox="0 0 36.8438 36.9095" width="23.9573" height="24.0000">
  <g fill="black" stroke="black" stroke-width="0.25">
    <path d="M1431 1088 1632 1287Q1681 1256 1736.0 1260.0Q1791 1264 1829 1304Q1868 1342 1872.0 1397.5Q1876 1453 1844 1502L2432 2087Q2584 2238 2752.5 2237.5Q2921 2237 3075 2085L3273 1888Q3425 1734 3425.0 1565.5Q3425 1397 3275 1245L2688 656Q2639 689 2584.0 685.5Q2529 682 2489 642Q2450 604 2446.5 549.0Q2443 494 2473 444L2276 243Q2213 180 2133.0 179.5Q2053 179 1988 242L1431 803Q1366 867 1366.5 946.0Q1367 1025 1431 1088ZM2195 1398Q2169 1371 2170.5 1334.0Q2172 1297 2200 1269Q2225 1244 2262.5 1243.0Q2300 1242 2327 1269L2731 1675Q2757 1701 2758.0 1738.5Q2759 1776 2731 1803Q2703 1828 2665.5 1829.5Q2628 1831 2602 1805ZM2458 1140Q2430 1112 2430.0 1074.5Q2430 1037 2459 1009Q2484 983 2521.5 981.5Q2559 980 2585 1007L2991 1415Q3016 1440 3016.0 1476.5Q3016 1513 2992 1541Q2967 1570 2928.0 1569.5Q2889 1569 2862 1543ZM572 -112Q597 -71 639.0 -44.0Q681 -17 725 -12L832 1L1400 567L1763 207L1194 -364L1183 -468Q1176 -513 1149.5 -554.5Q1123 -596 1082 -621L658 -883Q616 -910 569.5 -912.0Q523 -914 488 -878L316 -706Q281 -671 281.0 -625.0Q281 -579 310 -534Z" transform="translate(-3.2930,26.2207) scale(0.011719,-0.011719)"/>
  </g>
</svg>
