<svg xmlns="http://www.w3.org/2000/svg" viewBox="0 0 38.5781 28.7227" width="32.2350" height="24.0000">
  <g fill="black" stroke="black" stroke-width="0.25">
    <path d="M219 683Q219 959 309.0 1184.5Q399 1410 566.5 1572.0Q734 1734 966.0 1821.5Q1198 1909 1483 1909H2247Q2531 1909 2763.5 1821.5Q2996 1734 3163.5 1572.0Q3331 1410 3421.0 1184.5Q3511 959 3511 683Q3511 407 3421.0 182.0Q3331 -43 3163.5 -205.0Q2996 -367 2763.5 -454.5Q2531 -542 2247 -542H1483Q1198 -542 966.0 -454.5Q734 -367 566.5 -205.0Q399 -43 309.0 182.0Q219 407 219 683ZM1864 84Q1937 84 1986.0 131.5Q2035 179 2035 251V513H2298Q2369 513 2416.5 561.5Q2464 610 2464 683Q2464 757 2416.5 805.5Q2369 854 2298 854H2035V1116Q2035 1188 1986.0 1235.5Q1937 1283 1864 1283Q1791 1283 1742.5 1235.5Q1694 1188 1694 1116V854H1432Q1360 854 1312.5 805.5Q1265 757 1265 683Q1265 610 1312.5 561.5Q1360 513 1432 513H1694V251Q1694 179 1742.5 131.5Q1791 84 1864 84Z" transform="translate(-2.5664,22.3711) scale(0.011719,-0.011719)"/>
  </g>
</svg>
