<svg xmlns="http://www.w3.org/2000/svg" viewBox="0 0 38.1238 35.6243" width="25.6839" height="24.0000">
  <g fill="black" stroke="black" stroke-width="0.25">
    <path d="M2967 695 2903 757Q2861 798 2850.0 832.0Q2839 866 2845 908L2857 994L2798 1053L2687 1030Q2618 1015 2558.0 1036.5Q2498 1058 2438 1118L2249 1308Q2193 1365 2181.5 1428.5Q2170 1492 2201 1571L2283 1788Q2175 1818 2057.0 1798.5Q1939 1779 1816 1723Q1757 1696 1706.5 1708.0Q1656 1720 1630 1758Q1603 1800 1607.5 1856.0Q1612 1912 1660 1961Q1735 2039 1845.5 2091.5Q1956 2144 2085.5 2166.5Q2215 2189 2348.0 2178.0Q2481 2167 2602.5 2118.0Q2724 2069 2817 1977L3045 1751Q3113 1682 3137.5 1617.0Q3162 1552 3146 1484L3122 1379L3181 1320L3268 1330Q3309 1334 3343.0 1324.5Q3377 1315 3416 1275L3480 1208Q3532 1154 3533.5 1090.0Q3535 1026 3487 978L3200 689Q3150 639 3086.0 640.5Q3022 642 2967 695ZM380 -622Q276 -517 280.5 -392.0Q285 -267 407 -163L2059 1244Q2070 1226 2084.0 1208.5Q2098 1191 2115 1175L2298 991Q2319 969 2340.0 951.5Q2361 934 2382 919L976 -733Q875 -852 749.0 -858.0Q623 -864 519 -761Z" transform="translate(-3.2849,25.5658) scale(0.011719,-0.011719)"/>
  </g>
</svg>
