<svg xmlns="http://www.w3.org/2000/svg" viewBox="0 0 38.3555 27.1992" width="33.8440" height="24.0000">
  <g fill="black" stroke="black" stroke-width="0.25">
    <path d="M222 317H638Q661 254 710.0 202.5Q759 151 826 117L612 -216Q458 -132 353.5 8.0Q249 148 222 317ZM822 -297 1059 71Q1065 70 1072.0 70.0Q1079 70 1086 70H1426V-322H1034Q978 -322 924.5 -315.5Q871 -309 822 -297ZM1647 -322V70H2137V-322ZM2357 -322V70H2696Q2703 70 2711.5 70.5Q2720 71 2728 72L2963 -293Q2911 -307 2855.5 -314.5Q2800 -322 2743 -322ZM3167 -202 2955 131Q2994 155 3023.5 190.0Q3053 225 3071 266H3491Q3465 119 3379.5 -2.0Q3294 -123 3167 -202ZM3080 486Q3056 571 2992.5 631.5Q2929 692 2836 720L3215 947Q3329 868 3400.5 747.0Q3472 626 3492 486ZM2722 909Q2723 935 2723.0 963.0Q2723 991 2722 1019Q2718 1103 2694.0 1180.5Q2670 1258 2629 1326L2934 1575Q2996 1480 3036.5 1367.5Q3077 1255 3090 1129ZM2481 1489Q2429 1530 2366.5 1559.0Q2304 1588 2235 1601V1999Q2399 1981 2541.0 1915.5Q2683 1850 2794 1746ZM1615 1349 1444 1714Q1556 1835 1702.0 1908.5Q1848 1982 2017 1999V1606Q1885 1587 1788.0 1520.0Q1691 1453 1615 1349ZM1024 957 694 1190Q725 1319 805.5 1417.5Q886 1516 999.0 1572.5Q1112 1629 1241 1632L1409 1270Q1306 1278 1223.0 1245.0Q1140 1212 1087.5 1139.5Q1035 1067 1024 957ZM219 538Q239 702 319.5 833.5Q400 965 529 1038L872 796Q778 771 714.0 704.0Q650 637 628 538Z" transform="translate(-2.5664,23.4258) scale(0.011719,-0.011719)"/>
  </g>
</svg>
