<svg xmlns="http://www.w3.org/2000/svg" viewBox="0 0 27.7969 27.8320" width="23.9697" height="24.0000">
  <g fill="black" stroke="black" stroke-width="0.25">
    <path d="M311 1211Q314 1365 361.0 1486.0Q408 1607 493 1691Q577 1776 700.0 1822.5Q823 1869 977 1872V1479Q838 1472 775 1409Q713 1347 704 1211ZM1796 1480H1198V1872H1796ZM2290 1211Q2282 1347 2219 1409Q2156 1472 2017 1479V1872Q2172 1869 2294.5 1822.5Q2417 1776 2501 1691Q2586 1607 2633.0 1486.0Q2680 1365 2683 1211ZM2291 373V990H2683V373ZM2017 -503V-109Q2156 -102 2219 -39Q2282 24 2289 152H2683Q2674 -151 2501 -321Q2417 -406 2294.5 -453.0Q2172 -500 2017 -503ZM1796 -503H1198V-110H1796ZM977 -503Q823 -500 700.0 -453.5Q577 -407 493 -321Q320 -151 311 152H706Q712 24 775 -39Q838 -102 977 -109ZM311 373V990H703V373ZM1072 234V675Q1072 732 1094.0 765.0Q1116 798 1158 809V923Q1158 1092 1252.0 1196.0Q1346 1300 1498 1300Q1650 1300 1744.5 1196.0Q1839 1092 1839 923V808Q1880 798 1902.0 765.0Q1924 732 1924 675V234Q1924 162 1890.5 127.0Q1857 92 1790 92H1207Q1139 92 1105.5 127.0Q1072 162 1072 234ZM1357 815H1639V932Q1639 1012 1601.0 1059.0Q1563 1106 1498 1106Q1433 1106 1395.0 1058.5Q1357 1011 1357 932Z" transform="translate(-3.6445,21.9375) scale(0.011719,-0.011719)"/>
  </g>
</svg>
