<svg xmlns="http://www.w3.org/2000/svg" viewBox="0 0 30.0772 36.8789" width="19.5736" height="24.0000">
  <g fill="black" stroke="black" stroke-width="0.25">
    <path d="M1810 509Q1737 436 1645.5 428.0Q1554 420 1475.0 473.0Q1396 526 1360 639Q1306 814 1285.5 1018.0Q1265 1222 1276 1457L1250 1481Q1166 1558 1137.0 1660.0Q1108 1762 1135.0 1867.0Q1162 1972 1245 2057Q1330 2141 1432.0 2167.5Q1534 2194 1634.5 2165.0Q1735 2136 1817 2054L1844 2027Q2076 2039 2282.5 2017.5Q2489 1996 2666 1940Q2773 1906 2828.0 1829.5Q2883 1753 2877.0 1661.5Q2871 1570 2794 1493ZM1647 740 2561 1653Q2569 1661 2566.5 1669.5Q2564 1678 2544 1685Q2396 1731 2217.5 1750.0Q2039 1769 1831 1747Q1735 1735 1667 1811L1617 1866Q1579 1907 1533.0 1906.0Q1487 1905 1442 1862Q1398 1817 1397.5 1769.5Q1397 1722 1437 1686L1492 1635Q1562 1572 1557 1481Q1541 1265 1555.0 1085.0Q1569 905 1615 756Q1622 736 1630.5 734.0Q1639 732 1647 740ZM2236 596Q2145 596 2056.5 631.5Q1968 667 1895 741L2139 897Q2163 886 2188.0 879.5Q2213 873 2238 873Q2291 873 2337.0 900.5Q2383 928 2411.0 973.0Q2439 1018 2439 1072Q2439 1096 2432.5 1120.0Q2426 1144 2412 1168L2548 1437Q2630 1365 2673.5 1270.0Q2717 1175 2717 1074Q2717 944 2650.5 835.5Q2584 727 2474.5 661.5Q2365 596 2236 596ZM1282 1812 1095 2002Q1052 2045 1052.0 2105.0Q1052 2165 1095 2208Q1138 2250 1198.0 2250.0Q1258 2250 1301 2208L1484 2025ZM615 346 404 572 1388 1475 1465 1127ZM571 263Q498 263 439.0 297.5Q380 332 345.5 391.0Q311 450 311 523Q311 596 345.5 654.5Q380 713 439.0 748.0Q498 783 571 783Q643 783 702.0 748.0Q761 713 796.0 654.0Q831 595 831 523Q831 450 796.5 391.0Q762 332 703.0 297.5Q644 263 571 263ZM1097 -203 379 512 597 732 1315 16ZM1137 -335Q1064 -335 1005.0 -300.5Q946 -266 911.5 -207.0Q877 -148 877 -75Q877 -2 911.5 57.0Q946 116 1005.0 150.5Q1064 185 1137 185Q1209 185 1268.0 150.0Q1327 115 1362.0 56.0Q1397 -3 1397 -75Q1397 -149 1362.5 -207.5Q1328 -266 1269.0 -300.5Q1210 -335 1137 -335ZM982 -710V-41H1292V-710ZM468 -897Q405 -897 372.5 -852.0Q340 -807 340 -744Q340 -648 414.5 -589.5Q489 -531 596 -531H1828Q1935 -531 2010.0 -589.5Q2085 -648 2085 -744Q2085 -807 2052.0 -852.0Q2019 -897 1957 -897Z" transform="translate(-3.6445,26.3672) scale(0.011719,-0.011719)"/>
  </g>
</svg>
