<svg xmlns="http://www.w3.org/2000/svg" viewBox="0 0 25.9922 36.5039" width="17.0889" height="24.0000">
  <g fill="black" stroke="black" stroke-width="0.25">
    <path d="M824 -875Q762 -875 729.0 -830.0Q696 -785 696 -721Q696 -625 770.0 -567.0Q844 -509 949 -509H1241V36Q1043 68 874.0 165.0Q705 262 578.5 408.5Q452 555 381.5 739.5Q311 924 311 1131Q311 1361 397.0 1562.0Q483 1763 635.5 1915.5Q788 2068 989.5 2154.0Q1191 2240 1420 2240Q1650 2240 1851.0 2154.0Q2052 2068 2204.5 1915.5Q2357 1763 2443.0 1562.0Q2529 1361 2529 1131Q2529 924 2459.0 739.5Q2389 555 2262.5 408.5Q2136 262 1966.5 165.0Q1797 68 1599 36V-509H1892Q1997 -509 2070.5 -567.0Q2144 -625 2144 -721Q2144 -785 2111.5 -830.0Q2079 -875 2016 -875ZM1421 340Q1585 340 1728.5 401.5Q1872 463 1981.0 572.0Q2090 681 2151.5 824.5Q2213 968 2213 1132Q2213 1296 2151.5 1439.5Q2090 1583 1981.0 1692.0Q1872 1801 1728.5 1862.5Q1585 1924 1421 1924Q1257 1924 1113.5 1862.5Q970 1801 861.0 1692.0Q752 1583 690.5 1439.5Q629 1296 629 1132Q629 968 690.5 824.5Q752 681 861.0 572.0Q970 463 1113.5 401.5Q1257 340 1421 340ZM1183 1140Q1013 1179 921.5 1246.0Q830 1313 830 1429Q830 1495 861.0 1556.0Q892 1617 945.0 1664.0Q998 1711 1065.0 1738.5Q1132 1766 1204 1766Q1289 1766 1334.5 1718.0Q1380 1670 1380 1584V1377ZM1430 1368Q1469 1538 1536.0 1629.5Q1603 1721 1719 1721Q1785 1721 1846.0 1690.0Q1907 1659 1954.0 1606.0Q2001 1553 2028.5 1486.5Q2056 1420 2056 1348Q2056 1263 2008.0 1217.5Q1960 1172 1874 1172H1667ZM1658 1122Q1828 1082 1919.5 1015.5Q2011 949 2011 833Q2011 766 1980.0 705.5Q1949 645 1896.0 597.5Q1843 550 1776.5 522.5Q1710 495 1638 495Q1553 495 1507.5 543.0Q1462 591 1462 677V884ZM1412 893Q1372 723 1305.5 631.5Q1239 540 1123 540Q1056 540 995.5 571.0Q935 602 887.5 655.0Q840 708 812.5 775.0Q785 842 785 914Q785 999 833.0 1044.5Q881 1090 967 1090H1174ZM1698 1131Q1698 1054 1660.5 991.0Q1623 928 1560.0 890.5Q1497 853 1421 853Q1344 853 1281.0 890.5Q1218 928 1180.5 991.0Q1143 1054 1143 1131Q1143 1207 1180.5 1270.0Q1218 1333 1281.0 1370.5Q1344 1408 1421 1408Q1497 1408 1560.0 1370.5Q1623 1333 1660.5 1270.0Q1698 1207 1698 1131ZM1421 999Q1475 999 1513.5 1038.0Q1552 1077 1552 1131Q1552 1185 1513.5 1223.5Q1475 1262 1421 1262Q1367 1262 1328.0 1223.5Q1289 1185 1289 1131Q1289 1077 1328.0 1038.0Q1367 999 1421 999Z" transform="translate(-3.6445,26.2500) scale(0.011719,-0.011719)"/>
  </g>
</svg>
