<svg xmlns="http://www.w3.org/2000/svg" viewBox="0 0 15.9141 15.9317" width="23.9734" height="24.0000">
  <g fill="black" stroke="black" stroke-width="0.25">
    <path d="M1006 1331Q1037 1301 1036.5 1260.5Q1036 1220 1007 1190L522 706L422 609Q394 580 352.5 580.0Q311 580 283 609Q255 637 255.0 678.5Q255 720 283 748L381 848L865 1331Q894 1361 935.0 1361.0Q976 1361 1006 1331ZM735 517Q704 487 664 487L260 481Q217 481 186.5 511.0Q156 541 156 586L163 989Q164 1007 171.0 1026.5Q178 1046 192 1060Q222 1090 261.0 1090.0Q300 1090 331 1059Q362 1029 359 991L354 744L348 674L418 679L666 684Q704 686 734 656Q765 625 765.0 585.5Q765 546 735 517ZM662 32Q632 62 632.0 102.5Q632 143 662 173L1147 657L1246 755Q1275 784 1316.5 784.0Q1358 784 1386 755Q1414 727 1414.0 685.5Q1414 644 1386 615L1288 515L804 32Q774 2 733.5 1.5Q693 1 662 32ZM1477 303Q1447 272 1408.5 272.5Q1370 273 1339 303Q1309 334 1309 372L1316 619L1320 690L1250 684L1003 678Q967 677 936 707Q905 738 905.0 777.0Q905 816 935 846Q965 875 1006 875L1409 883Q1453 883 1483.5 852.0Q1514 821 1514 778L1506 375Q1506 332 1477 303Z" transform="translate(-1.8281,15.9492) scale(0.011719,-0.011719)"/>
  </g>
</svg>
