<svg xmlns="http://www.w3.org/2000/svg" viewBox="0 0 28.5128 28.5089" width="24.0033" height="24.0000">
  <g fill="black" stroke="black" stroke-width="0.25">
    <path d="M314 1158Q304 1347 353.0 1489.0Q402 1631 500.5 1725.0Q599 1819 739.5 1863.0Q880 1907 1054 1899L2099 1848Q2161 1844 2206.5 1800.5Q2252 1757 2252 1694Q2252 1632 2208.0 1587.5Q2164 1543 2102 1540L1055 1498Q946 1493 871.5 1454.0Q797 1415 758.0 1340.5Q719 1266 714 1157L672 111Q669 48 624.5 4.0Q580 -40 518 -40Q455 -40 411.5 5.5Q368 51 365 113ZM2744 209Q2753 21 2704.0 -121.5Q2655 -264 2556.5 -358.0Q2458 -452 2317.5 -496.0Q2177 -540 2004 -531L958 -480Q897 -477 851.5 -433.5Q806 -390 806 -327Q806 -265 850.0 -220.5Q894 -176 956 -173L2003 -131Q2111 -126 2185.5 -87.0Q2260 -48 2299.5 26.5Q2339 101 2343 210L2386 1257Q2389 1319 2433.0 1363.0Q2477 1407 2539 1407Q2602 1407 2646.0 1361.5Q2690 1316 2693 1254Z" transform="translate(-3.6598,22.2683) scale(0.011719,-0.011719)"/>
  </g>
</svg>
