<svg xmlns="http://www.w3.org/2000/svg" viewBox="0 0 15.9141 15.9258" width="23.9823" height="24.0000">
  <g fill="black" stroke="black" stroke-width="0.25">
    <path d="M1006 30Q976 1 935.0 1.0Q894 1 865 30L381 514L283 613Q255 642 255.0 683.5Q255 725 283 753Q311 782 352.5 782.0Q394 782 422 753L522 655L1007 172Q1036 142 1036.5 101.5Q1037 61 1006 30ZM735 845Q765 815 765.0 776.0Q765 737 734 706Q704 676 666 677L418 683L348 688L354 617L359 371Q362 333 331 303Q300 272 261.0 271.5Q222 271 192 301Q178 316 171.0 335.5Q164 355 163 373L156 775Q156 820 186.5 850.5Q217 881 260 880L664 874Q704 874 735 845ZM662 1330Q693 1360 733.5 1360.0Q774 1360 804 1330L1288 846L1386 747Q1414 718 1414.0 676.5Q1414 635 1386 607Q1358 578 1316.5 578.0Q1275 578 1246 607L1147 705L662 1189Q632 1219 632.0 1259.5Q632 1300 662 1330ZM1477 1059Q1506 1030 1506 987L1514 584Q1514 541 1483.5 510.0Q1453 479 1409 479L1006 487Q965 487 935 515Q905 545 905.0 584.5Q905 624 936 655Q967 684 1003 684L1250 677L1320 672L1316 742L1309 990Q1309 1028 1339 1058Q1370 1089 1408.5 1089.0Q1447 1089 1477 1059Z" transform="translate(-1.8281,15.9375) scale(0.011719,-0.011719)"/>
  </g>
</svg>
