<svg xmlns="http://www.w3.org/2000/svg" viewBox="0 0 45.0586 34.6992" width="31.1651" height="24.0000">
  <g fill="black" stroke="black" stroke-width="0.25">
    <path d="M2122 -73H1865L1460 -426Q1368 -505 1299.5 -538.0Q1231 -571 1157 -571Q1049 -571 986.5 -503.0Q924 -435 924 -315V-73H906Q741 -73 606.5 4.5Q472 82 391.5 223.0Q311 364 311 556V1534Q311 1726 388.0 1867.0Q465 2008 606.0 2085.5Q747 2163 939 2163H2438Q2630 2163 2771.5 2085.5Q2913 2008 2989.5 1867.0Q3066 1726 3066 1534V1333H2674V1505Q2674 1594 2644.5 1653.0Q2615 1712 2556.0 1741.5Q2497 1771 2409 1771H969Q880 1771 821.0 1741.5Q762 1712 732.5 1653.0Q703 1594 703 1505V585Q703 496 732.5 437.0Q762 378 821.0 348.5Q880 319 969 319H1121Q1182 319 1216.5 290.0Q1251 261 1251 190V-139L1625 230Q1678 282 1719.0 300.5Q1760 319 1832 319H1951ZM2373 -303Q2194 -303 2063.0 -238.5Q1932 -174 1861.0 -55.0Q1790 64 1790 226V1014Q1790 1187 1861.0 1313.5Q1932 1440 2063.0 1508.5Q2194 1577 2373 1577H3573Q3753 1577 3883.5 1508.5Q4014 1440 4085.0 1313.5Q4156 1187 4156 1014V226Q4156 64 4089.5 -55.0Q4023 -174 3900.5 -238.5Q3778 -303 3610 -303H3600V-542Q3600 -657 3536.5 -727.5Q3473 -798 3366 -798Q3301 -798 3221.5 -759.0Q3142 -720 3064 -653L2657 -303ZM2441 66H2662Q2722 66 2788.0 36.5Q2854 7 2906 -44L3273 -389V-78Q3273 -11 3312.5 27.5Q3352 66 3414 66H3505Q3634 66 3704.5 137.0Q3775 208 3775 333V941Q3775 1066 3704.5 1137.0Q3634 1208 3505 1208H2441Q2312 1208 2241.5 1137.0Q2171 1066 2171 941V333Q2171 208 2241.5 137.0Q2312 66 2441 66Z" transform="translate(-3.6445,25.3477) scale(0.011719,-0.011719)"/>
  </g>
</svg>
