<svg xmlns="http://www.w3.org/2000/svg" viewBox="0 0 34.4766 34.4766" width="24.0000" height="24.0000">
  <g fill="black" stroke="black" stroke-width="0.25">
    <path d="M407 356Q250 513 249.5 683.0Q249 853 406 1010L1394 1998Q1551 2155 1721.0 2154.5Q1891 2154 2048 1997L3034 1011Q3191 854 3191.5 683.5Q3192 513 3036 356L2048 -632Q1891 -788 1720.5 -787.5Q1550 -787 1393 -630ZM723 596 1633 -315Q1677 -359 1719.0 -360.5Q1761 -362 1809 -315L2719 595Q2766 643 2764.5 685.0Q2763 727 2719 771L1808 1682Q1764 1726 1722.0 1727.5Q1680 1729 1633 1681L723 771Q675 724 676.5 682.0Q678 640 723 596ZM1687 470Q1506 470 1506 606Q1506 607 1506.0 608.0Q1506 609 1506 610Q1506 672 1545.5 717.5Q1585 763 1648 806Q1716 853 1753.0 882.5Q1790 912 1790 957Q1790 991 1761.0 1017.5Q1732 1044 1691 1044Q1670 1044 1650.5 1038.5Q1631 1033 1612.0 1020.0Q1593 1007 1574 982L1563 969Q1539 938 1506.0 924.0Q1473 910 1432 910Q1371 910 1332.0 950.0Q1293 990 1293 1045Q1293 1066 1297.5 1084.5Q1302 1103 1310 1122Q1350 1212 1461.0 1267.5Q1572 1323 1728 1323Q1853 1323 1953.0 1280.0Q2053 1237 2111.5 1159.0Q2170 1081 2170 978Q2170 880 2125.5 820.5Q2081 761 1985 701Q1940 674 1903.5 644.5Q1867 615 1856 581Q1855 579 1854.5 575.5Q1854 572 1853 569Q1843 526 1798.0 498.0Q1753 470 1687 470ZM1688 60Q1609 60 1556.0 103.0Q1503 146 1503 220Q1503 295 1556.0 338.0Q1609 381 1688 381Q1767 381 1818.5 337.5Q1870 294 1870 220Q1870 146 1818.0 103.0Q1766 60 1688 60Z" transform="translate(-2.9238,25.2481) scale(0.011719,-0.011719)"/>
  </g>
</svg>
