<svg xmlns="http://www.w3.org/2000/svg" viewBox="0 0 16.6836 16.6836" width="24.0000" height="24.0000">
  <g fill="black" stroke="black" stroke-width="0.25">
    <path d="M701 1059Q654 1059 633.5 1098.0Q613 1137 649 1180L798 1359Q825 1393 865.0 1395.0Q905 1397 935 1361L1084 1184Q1121 1137 1100.5 1098.0Q1080 1059 1033 1059ZM1242 849Q1242 896 1281.0 916.5Q1320 937 1365 901L1542 753Q1577 725 1578.5 685.0Q1580 645 1545 616L1367 467Q1320 429 1281.0 449.0Q1242 469 1242 518ZM1032 307Q1080 307 1100.5 268.0Q1121 229 1082 183L934 5Q904 -30 864.5 -28.5Q825 -27 797 7L648 186Q613 230 633.0 268.5Q653 307 700 307ZM490 518Q490 469 451.5 449.0Q413 429 367 467L188 616Q153 645 155.0 685.0Q157 725 191 753L369 901Q414 937 452.0 916.5Q490 896 490 849ZM868 149Q827 149 797.5 178.0Q768 207 768 248V1118Q768 1159 797.5 1188.0Q827 1217 868 1217Q909 1217 937.5 1188.0Q966 1159 966 1118V248Q966 207 937.5 178.0Q909 149 868 149ZM334 683Q334 724 363.0 753.0Q392 782 433 782H1303Q1343 782 1371.5 753.0Q1400 724 1400 683Q1400 642 1371.5 613.0Q1343 584 1303 584H433Q392 584 363.0 613.0Q334 642 334 683Z" transform="translate(-1.8151,16.3489) scale(0.011719,-0.011719)"/>
  </g>
</svg>
