<svg xmlns="http://www.w3.org/2000/svg" viewBox="0 0 12.2461 14.5547" width="20.1932" height="24.0000">
  <g fill="black" stroke="black" stroke-width="0.25">
    <path d="M1041 1305Q1112 1305 1156.5 1259.5Q1201 1214 1201 1142V1000H156V1142Q156 1214 200.5 1259.5Q245 1305 316 1305ZM367 1088Q387 1082 405.5 1091.5Q424 1101 430 1120Q436 1140 426.5 1158.5Q417 1177 398 1183Q378 1190 359.5 1180.5Q341 1171 335 1152Q329 1132 338.5 1113.5Q348 1095 367 1088ZM552 1073Q578 1073 596.5 1091.5Q615 1110 615 1136Q615 1162 596.5 1180.5Q578 1199 552 1199Q526 1199 507.5 1180.5Q489 1162 489 1136Q489 1110 507.5 1091.5Q526 1073 552 1073ZM156 355V898H1201V355ZM547 711H811Q853 711 853 754Q853 795 811 795H547Q504 795 504 754Q504 711 547 711ZM1201 254V226Q1201 154 1156.5 108.5Q1112 63 1041 63H316Q245 63 200.5 108.5Q156 154 156 226V254Z" transform="translate(-1.8281,15.2930) scale(0.011719,-0.011719)"/>
  </g>
</svg>
