<svg xmlns="http://www.w3.org/2000/svg" viewBox="0 0 12.9492 15.8906" width="19.5575" height="24.0000">
  <g fill="black" stroke="black" stroke-width="0.25">
    <path d="M387 19H1029Q1140 19 1200.5 79.5Q1261 140 1261 251V747H748Q637 747 637 859V1375H387Q276 1375 216.0 1314.0Q156 1253 156 1142V251Q156 140 216.0 79.5Q276 19 387 19ZM793 865H1256Q1254 892 1234.5 919.0Q1215 946 1184 977L863 1300Q834 1329 807.0 1349.0Q780 1369 754 1370V904Q754 865 793 865Z" transform="translate(-1.8281,16.1133) scale(0.011719,-0.011719)"/>
  </g>
</svg>
