<svg xmlns="http://www.w3.org/2000/svg" viewBox="0 0 14.6484 13.1836" width="26.6667" height="24.0000">
  <g fill="black" stroke="black" stroke-width="0.25">
    <path d="M466 95Q364 95 307.5 150.5Q251 206 251 309V795H1311V309Q1311 206 1254.0 150.5Q1197 95 1096 95ZM609 516H952Q980 516 999.0 534.5Q1018 553 1018 582V600Q1018 629 999.0 647.5Q980 666 952 666H609Q582 666 563.0 647.5Q544 629 544 600V582Q544 553 563.0 534.5Q582 516 609 516ZM283 903Q220 903 188.0 936.0Q156 969 156 1032V1091Q156 1153 188.5 1186.5Q221 1220 283 1220H1280Q1343 1220 1374.5 1186.5Q1406 1153 1406 1091V1032Q1406 969 1374.5 936.0Q1343 903 1280 903Z" transform="translate(-1.8281,14.2969) scale(0.011719,-0.011719)"/>
  </g>
</svg>
