<svg xmlns="http://www.w3.org/2000/svg" viewBox="0 0 29.5078 34.0857" width="20.7767" height="24.0000">
  <g fill="black" stroke="black" stroke-width="0.25">
    <path d="M911 1134Q873 1131 849.0 1156.0Q825 1181 825 1216Q825 1248 845.0 1273.0Q865 1298 908 1302Q1133 1320 1313.0 1352.5Q1493 1385 1656 1423Q1706 1434 1732.5 1408.5Q1759 1383 1759 1348Q1759 1320 1743.0 1295.0Q1727 1270 1678 1258Q1504 1218 1320.0 1185.0Q1136 1152 911 1134ZM911 804Q873 802 849.0 826.5Q825 851 825 887Q825 920 845.0 945.0Q865 970 908 973Q1133 991 1313.0 1023.0Q1493 1055 1656 1094Q1706 1104 1732.5 1079.0Q1759 1054 1759 1020Q1759 991 1743.0 966.0Q1727 941 1678 928Q1504 888 1320.0 855.5Q1136 823 911 804ZM911 475Q873 473 849.0 498.0Q825 523 825 557Q825 590 845.0 615.0Q865 640 908 644Q1133 663 1313.0 695.0Q1493 727 1656 765Q1706 776 1732.5 750.5Q1759 725 1759 690Q1759 662 1743.0 637.0Q1727 612 1678 600Q1504 560 1320.0 527.0Q1136 494 911 475ZM911 147Q873 146 849.0 170.0Q825 194 825 229Q825 263 845.0 288.0Q865 313 908 316Q1040 325 1128.0 336.5Q1216 348 1283 361Q1334 370 1360.5 344.0Q1387 318 1387 284Q1387 255 1368.5 229.5Q1350 204 1313 197Q1235 182 1141.0 169.0Q1047 156 911 147ZM311 -286V1534Q311 1717 405.5 1810.5Q500 1904 678 1917Q874 1932 1073.0 1959.0Q1272 1986 1459.0 2021.5Q1646 2057 1806 2097Q2017 2149 2144.5 2056.0Q2272 1963 2272 1739V-24Q2272 -196 2213.0 -303.0Q2154 -410 1991 -460Q1806 -517 1597.0 -561.0Q1388 -605 1172.0 -634.0Q956 -663 751 -676Q539 -689 425.0 -582.5Q311 -476 311 -286ZM658 -231Q658 -282 687.0 -307.0Q716 -332 765 -329Q956 -317 1150.0 -291.5Q1344 -266 1522.5 -229.5Q1701 -193 1846 -146Q1897 -130 1911.0 -98.5Q1925 -67 1925 -15V1665Q1925 1714 1897.0 1738.5Q1869 1763 1821 1751Q1656 1710 1471.0 1675.0Q1286 1640 1100.5 1614.5Q915 1589 749 1579Q710 1576 684.0 1554.5Q658 1533 658 1495ZM1443 -793Q1602 -765 1756.0 -729.0Q1910 -693 2050 -649Q2178 -609 2275.0 -540.5Q2372 -472 2426.5 -349.5Q2481 -227 2481 -24V1708Q2481 1751 2476.0 1794.5Q2471 1838 2463 1905Q2644 1878 2736.5 1761.0Q2829 1644 2829 1445V-334Q2829 -560 2714.0 -676.5Q2599 -793 2377 -793Z" transform="translate(-3.6445,24.7928) scale(0.011719,-0.011719)"/>
  </g>
</svg>
