<svg xmlns="http://www.w3.org/2000/svg" viewBox="0 0 16.6992 14.0508" width="28.5238" height="24.0000">
  <g fill="black" stroke="black" stroke-width="0.25">
    <path d="M262 89Q216 89 186.0 119.0Q156 149 156 195V288Q156 346 185.0 386.5Q214 427 280 479Q294 491 301.5 508.0Q309 525 311.5 558.0Q314 591 314 651Q314 708 322.5 754.5Q331 801 346 837L310 880Q283 911 286.5 942.5Q290 974 313.0 994.0Q336 1014 366.5 1013.5Q397 1013 424 980L457 940Q461 942 466.5 943.5Q472 945 479 945L908 977Q959 994 986.5 1013.0Q1014 1032 1031.5 1054.0Q1049 1076 1069 1102Q1089 1065 1122.0 1037.5Q1155 1010 1200 1010Q1250 1010 1285.5 1041.5Q1321 1073 1342.0 1117.0Q1363 1161 1369 1198Q1403 1180 1428.0 1153.0Q1453 1126 1485 1104Q1521 1080 1551.0 1068.5Q1581 1057 1581 1014Q1581 962 1552.5 917.0Q1524 872 1480.0 844.0Q1436 816 1388 816Q1357 816 1333.0 826.0Q1309 836 1281 853Q1274 844 1269.5 824.0Q1265 804 1265 774Q1265 686 1234.0 622.0Q1203 558 1176 476Q1167 451 1157.0 413.0Q1147 375 1138.5 339.0Q1130 303 1126 283Q1123 261 1144 257Q1178 254 1197.5 235.5Q1217 217 1217 178Q1217 143 1189.5 116.0Q1162 89 1112 89H1029Q975 89 944.0 121.5Q913 154 913 209Q913 234 915.5 269.5Q918 305 920.5 344.0Q923 383 923 420Q860 415 802.5 416.0Q745 417 696.0 427.5Q647 438 609 461Q593 384 535.5 345.5Q478 307 388 288Q375 286 374.5 271.5Q374 257 391 255Q432 251 452.5 234.0Q473 217 473 178Q473 143 446.0 116.0Q419 89 369 89ZM1396 1006Q1409 1006 1418.0 1015.0Q1427 1024 1427 1038Q1427 1053 1418.0 1062.0Q1409 1071 1396 1071Q1381 1071 1372.5 1062.0Q1364 1053 1364 1038Q1364 1024 1372.5 1015.0Q1381 1006 1396 1006ZM1200 1060Q1159 1060 1132.0 1094.5Q1105 1129 1091.5 1169.5Q1078 1210 1078 1230Q1078 1288 1140 1288H1261Q1322 1288 1322 1230Q1322 1210 1309.0 1169.5Q1296 1129 1268.5 1094.5Q1241 1060 1200 1060Z" transform="translate(-1.8281,15.0938) scale(0.011719,-0.011719)"/>
  </g>
</svg>
