<svg xmlns="http://www.w3.org/2000/svg" viewBox="0 0 11.4492 11.4609" width="23.9755" height="24.0000">
  <g fill="black" stroke="black" stroke-width="0.25">
    <path d="M583 433Q515 433 458.5 467.0Q402 501 368.0 557.5Q334 614 334 683Q334 751 368.0 807.0Q402 863 458.5 897.0Q515 931 583 931Q651 931 707.5 897.0Q764 863 798.0 807.0Q832 751 832 683Q832 614 798.0 557.5Q764 501 707.5 467.0Q651 433 583 433ZM706 1041Q723 1020 714.5 998.5Q706 977 680 977H488Q460 977 451.5 998.5Q443 1020 460 1041L557 1158Q567 1171 583.0 1171.0Q599 1171 610 1158ZM942 559Q921 542 899.5 550.5Q878 559 878 586V778Q878 805 899.5 813.5Q921 822 942 805L1059 709Q1072 699 1072.0 682.5Q1072 666 1059 656ZM706 324 610 206Q599 193 583.0 193.0Q567 193 557 206L460 324Q443 344 451.5 365.5Q460 387 488 387H680Q706 387 714.5 365.5Q723 344 706 324ZM225 559 107 656Q95 666 95.0 682.5Q95 699 107 709L225 805Q245 822 266.5 813.5Q288 805 288 778V586Q288 559 266.5 550.5Q245 542 225 559Z" transform="translate(-1.1133,13.7227) scale(0.011719,-0.011719)"/>
  </g>
</svg>
