<svg xmlns="http://www.w3.org/2000/svg" viewBox="0 0 14.3438 14.2969" width="24.0787" height="24.0000">
  <g fill="black" stroke="black" stroke-width="0.25">
    <path d="M768 1083Q724 1083 693.5 1113.5Q663 1144 663 1188Q663 1232 693.5 1262.5Q724 1293 768 1293Q812 1293 842.5 1262.5Q873 1232 873 1188Q873 1144 842.5 1113.5Q812 1083 768 1083ZM1022 1017Q978 1017 947.5 1047.0Q917 1077 917 1121Q917 1166 947.5 1196.0Q978 1226 1022 1226Q1066 1226 1096.5 1196.0Q1127 1166 1127 1121Q1127 1077 1096.5 1047.0Q1066 1017 1022 1017ZM1208 831Q1164 831 1133.5 861.0Q1103 891 1103 936Q1103 980 1133.5 1010.0Q1164 1040 1208 1040Q1252 1040 1282.5 1010.0Q1313 980 1313 936Q1313 891 1282.5 861.0Q1252 831 1208 831ZM1275 578Q1231 578 1201.0 608.5Q1171 639 1171 683Q1171 727 1201.0 757.5Q1231 788 1275 788Q1320 788 1350.0 757.5Q1380 727 1380 683Q1380 639 1350.0 608.5Q1320 578 1275 578ZM1208 325Q1164 325 1133.5 355.5Q1103 386 1103 430Q1103 474 1133.5 504.5Q1164 535 1208 535Q1252 535 1282.5 504.5Q1313 474 1313 430Q1313 386 1282.5 355.5Q1252 325 1208 325ZM1022 140Q978 140 947.5 170.0Q917 200 917 244Q917 289 947.5 319.0Q978 349 1022 349Q1066 349 1096.5 319.0Q1127 289 1127 244Q1127 200 1096.5 170.0Q1066 140 1022 140ZM768 73Q724 73 693.5 103.5Q663 134 663 178Q663 222 693.5 252.5Q724 283 768 283Q812 283 842.5 252.5Q873 222 873 178Q873 134 842.5 103.5Q812 73 768 73ZM514 140Q470 140 439.5 170.0Q409 200 409 244Q409 289 439.5 319.0Q470 349 514 349Q559 349 589.0 319.0Q619 289 619 244Q619 200 589.0 170.0Q559 140 514 140ZM328 325Q284 325 254.0 355.5Q224 386 224 430Q224 474 254.0 504.5Q284 535 328 535Q373 535 403.0 504.5Q433 474 433 430Q433 386 403.0 355.5Q373 325 328 325ZM261 578Q217 578 186.5 608.5Q156 639 156 683Q156 727 186.5 757.5Q217 788 261 788Q305 788 335.5 757.5Q366 727 366 683Q366 639 335.5 608.5Q305 578 261 578ZM328 831Q284 831 254.0 861.0Q224 891 224 936Q224 980 254.0 1010.0Q284 1040 328 1040Q373 1040 403.0 1010.0Q433 980 433 936Q433 891 403.0 861.0Q373 831 328 831ZM514 1017Q470 1017 439.5 1047.0Q409 1077 409 1121Q409 1166 439.5 1196.0Q470 1226 514 1226Q559 1226 589.0 1196.0Q619 1166 619 1121Q619 1077 589.0 1047.0Q559 1017 514 1017Z" transform="translate(-1.8281,15.1523) scale(0.011719,-0.011719)"/>
  </g>
</svg>
