<svg xmlns="http://www.w3.org/2000/svg" viewBox="0 0 14.6602 14.6602" width="24.0000" height="24.0000">
  <g fill="black" stroke="black" stroke-width="0.25">
    <path d="M267 1086Q220 1086 188.0 1118.5Q156 1151 156 1198Q156 1244 188.0 1276.5Q220 1309 267 1309Q314 1309 346.0 1276.5Q378 1244 378 1198Q378 1151 346.0 1118.5Q314 1086 267 1086ZM524 1086Q478 1086 445.5 1118.5Q413 1151 413 1198Q413 1244 445.5 1276.5Q478 1309 524 1309Q571 1309 603.5 1276.5Q636 1244 636 1198Q636 1151 603.5 1118.5Q571 1086 524 1086ZM782 1086Q735 1086 702.5 1118.5Q670 1151 670 1198Q670 1244 702.5 1276.5Q735 1309 782 1309Q828 1309 860.5 1276.5Q893 1244 893 1198Q893 1151 860.5 1118.5Q828 1086 782 1086ZM1039 1086Q992 1086 959.5 1118.5Q927 1151 927 1198Q927 1244 959.5 1276.5Q992 1309 1039 1309Q1085 1309 1117.5 1276.5Q1150 1244 1150 1198Q1150 1151 1117.5 1118.5Q1085 1086 1039 1086ZM1296 1086Q1249 1086 1217.0 1118.5Q1185 1151 1185 1198Q1185 1244 1217.0 1276.5Q1249 1309 1296 1309Q1343 1309 1375.0 1276.5Q1407 1244 1407 1198Q1407 1151 1375.0 1118.5Q1343 1086 1296 1086ZM1296 829Q1249 829 1217.0 861.5Q1185 894 1185 940Q1185 987 1217.0 1019.5Q1249 1052 1296 1052Q1343 1052 1375.0 1019.5Q1407 987 1407 940Q1407 894 1375.0 861.5Q1343 829 1296 829ZM1296 572Q1249 572 1217.0 604.0Q1185 636 1185 683Q1185 730 1217.0 762.0Q1249 794 1296 794Q1343 794 1375.0 762.0Q1407 730 1407 683Q1407 636 1375.0 604.0Q1343 572 1296 572ZM1296 315Q1249 315 1217.0 347.0Q1185 379 1185 426Q1185 473 1217.0 505.0Q1249 537 1296 537Q1343 537 1375.0 505.0Q1407 473 1407 426Q1407 379 1375.0 347.0Q1343 315 1296 315ZM1296 58Q1249 58 1217.0 90.0Q1185 122 1185 169Q1185 216 1217.0 248.0Q1249 280 1296 280Q1343 280 1375.0 248.0Q1407 216 1407 169Q1407 122 1375.0 90.0Q1343 58 1296 58ZM1039 58Q992 58 959.5 90.0Q927 122 927 169Q927 216 959.5 248.0Q992 280 1039 280Q1085 280 1117.5 248.0Q1150 216 1150 169Q1150 122 1117.5 90.0Q1085 58 1039 58ZM782 58Q735 58 702.5 90.0Q670 122 670 169Q670 216 702.5 248.0Q735 280 782 280Q828 280 860.5 248.0Q893 216 893 169Q893 122 860.5 90.0Q828 58 782 58ZM524 58Q478 58 445.5 90.0Q413 122 413 169Q413 216 445.5 248.0Q478 280 524 280Q571 280 603.5 248.0Q636 216 636 169Q636 122 603.5 90.0Q571 58 524 58ZM267 58Q220 58 188.0 90.0Q156 122 156 169Q156 216 188.0 248.0Q220 280 267 280Q314 280 346.0 248.0Q378 216 378 169Q378 122 346.0 90.0Q314 58 267 58ZM267 315Q220 315 188.0 347.0Q156 379 156 426Q156 473 188.0 505.0Q220 537 267 537Q314 537 346.0 505.0Q378 473 378 426Q378 379 346.0 347.0Q314 315 267 315ZM267 572Q220 572 188.0 604.0Q156 636 156 683Q156 730 188.0 762.0Q220 794 267 794Q314 794 346.0 762.0Q378 730 378 683Q378 636 346.0 604.0Q314 572 267 572ZM267 829Q220 829 188.0 861.5Q156 894 156 940Q156 987 188.0 1019.5Q220 1052 267 1052Q314 1052 346.0 1019.5Q378 987 378 940Q378 894 346.0 861.5Q314 829 267 829Z" transform="translate(-1.8281,15.3398) scale(0.011719,-0.011719)"/>
  </g>
</svg>
