<svg xmlns="http://www.w3.org/2000/svg" viewBox="0 0 52.6636 30.2000" width="41.8519" height="24.0000">
  <g fill="black" stroke="black" stroke-width="0.25">
    <path d="M3115 -569Q3045 -610 2968.0 -588.0Q2891 -566 2851 -497L2186 655Q2157 643 2124.0 628.0Q2091 613 2056 593Q1963 539 1886.0 465.0Q1809 391 1735.5 310.0Q1662 229 1579.5 151.5Q1497 74 1392 13Q1307 -36 1227.0 -66.5Q1147 -97 1080 -102Q999 -110 934.0 -81.5Q869 -53 826 21L341 862Q292 947 320.5 1029.0Q349 1111 433 1159Q478 1185 551.0 1211.5Q624 1238 707 1285Q800 1339 877.0 1413.0Q954 1487 1027.5 1568.0Q1101 1649 1183.5 1726.0Q1266 1803 1371 1864Q1456 1913 1536.0 1943.0Q1616 1973 1683 1980Q1764 1987 1828.5 1958.5Q1893 1930 1937 1855L3185 -305Q3224 -373 3203.5 -450.5Q3183 -528 3115 -569ZM1104 840Q1155 879 1215.5 935.0Q1276 991 1324 1047L1224 1218Q1176 1167 1122.0 1116.0Q1068 1065 1001 1017ZM1540 1256Q1567 1279 1602.0 1303.0Q1637 1327 1652 1335Q1687 1355 1716.0 1364.5Q1745 1374 1769 1376L1658 1570Q1640 1566 1623.5 1559.0Q1607 1552 1592.5 1544.0Q1578 1536 1567 1530Q1531 1510 1499.0 1486.0Q1467 1462 1437 1436ZM993 502Q1010 507 1033.5 517.0Q1057 527 1089 546Q1112 559 1147.0 581.0Q1182 603 1224 634L1104 840Q1066 810 1037.5 792.0Q1009 774 992 765Q958 745 927.5 730.5Q897 716 873 708ZM1442 839Q1498 897 1547.0 948.0Q1596 999 1659 1051L1540 1256Q1478 1204 1426.5 1152.0Q1375 1100 1324 1047ZM1331 445Q1387 494 1437.5 550.0Q1488 606 1543 663L1442 839Q1408 804 1373.5 769.5Q1339 735 1302.0 701.5Q1265 668 1224 634ZM1768 864Q1790 879 1814.5 895.0Q1839 911 1865 925Q1895 943 1928.5 961.5Q1962 980 1991 993L1888 1171Q1865 1168 1835.5 1158.5Q1806 1149 1771 1129Q1735 1108 1707.5 1087.5Q1680 1067 1659 1051ZM2663 965 3177 1855Q3221 1930 3285.5 1958.5Q3350 1987 3431 1980Q3498 1973 3578.0 1943.0Q3658 1913 3743 1864Q3848 1803 3930.5 1726.0Q4013 1649 4086.5 1568.0Q4160 1487 4237.0 1413.0Q4314 1339 4407 1285Q4490 1238 4563.0 1211.5Q4636 1185 4682 1159Q4765 1111 4793.5 1029.0Q4822 947 4773 862L4288 21Q4246 -53 4180.5 -81.5Q4115 -110 4035 -102Q3968 -97 3887.5 -66.5Q3807 -36 3722 13Q3617 74 3534.5 151.5Q3452 229 3378.5 310.0Q3305 391 3228.0 465.0Q3151 539 3058 593Q3023 613 2990.0 628.0Q2957 643 2928 655L2885 580ZM3345 1376Q3369 1374 3398.0 1364.5Q3427 1355 3462 1335Q3477 1327 3512.0 1303.0Q3547 1279 3574 1256L3677 1436Q3647 1462 3615.0 1486.0Q3583 1510 3547 1530Q3536 1536 3521.5 1544.0Q3507 1552 3490.5 1559.0Q3474 1566 3456 1570ZM3791 1047Q3838 991 3898.5 935.0Q3959 879 4010 840L4113 1017Q4046 1065 3992.0 1116.0Q3938 1167 3890 1218ZM3455 1051Q3518 999 3567.5 948.0Q3617 897 3672 839L3791 1047Q3739 1100 3687.5 1152.0Q3636 1204 3574 1256ZM3891 634Q3932 603 3967.0 581.0Q4002 559 4025 546Q4057 527 4080.5 517.0Q4104 507 4122 502L4241 708Q4217 716 4186.5 730.5Q4156 745 4122 765Q4105 774 4076.5 792.0Q4048 810 4010 840ZM3124 993Q3152 980 3185.5 961.5Q3219 943 3250 925Q3275 911 3299.5 895.0Q3324 879 3346 864L3455 1051Q3434 1067 3406.5 1087.5Q3379 1108 3343 1129Q3308 1149 3278.5 1158.5Q3249 1168 3226 1171ZM3571 663Q3626 606 3676.5 550.0Q3727 494 3783 445L3891 634Q3849 668 3812.0 701.5Q3775 735 3740.5 769.5Q3706 804 3672 839ZM1999 -569Q1931 -528 1910.5 -450.5Q1890 -373 1930 -305L2229 214L2450 -172L2263 -497Q2223 -566 2146.0 -588.0Q2069 -610 1999 -569Z" transform="translate(-3.6330,23.2193) scale(0.011719,-0.011719)"/>
  </g>
</svg>
