<svg xmlns="http://www.w3.org/2000/svg" viewBox="0 0 52.6636 30.2000" width="41.8519" height="24.0000">
  <g fill="black" stroke="black" stroke-width="0.25">
    <path d="M3185 -305Q3224 -373 3203.5 -450.5Q3183 -528 3115 -569Q3045 -610 2968.0 -588.0Q2891 -566 2851 -497L2186 655Q2157 643 2124.0 628.0Q2091 613 2056 593Q1963 539 1886.0 465.0Q1809 391 1735.5 310.0Q1662 229 1579.5 151.5Q1497 74 1392 13Q1307 -36 1227.0 -66.5Q1147 -97 1080 -102Q999 -110 934.0 -81.5Q869 -53 826 21L341 862Q292 947 320.5 1029.0Q349 1111 433 1159Q478 1185 551.0 1211.5Q624 1238 707 1285Q800 1339 877.0 1413.0Q954 1487 1027.5 1568.0Q1101 1649 1183.5 1726.0Q1266 1803 1371 1864Q1456 1913 1536.0 1943.0Q1616 1973 1683 1980Q1764 1987 1828.5 1958.5Q1893 1930 1937 1855ZM1991 993 1658 1570Q1640 1566 1623.5 1559.0Q1607 1552 1592.5 1544.0Q1578 1536 1567 1530Q1475 1479 1403.5 1408.5Q1332 1338 1262.0 1259.0Q1192 1180 1106.0 1100.5Q1020 1021 898 951Q868 934 834.5 915.0Q801 896 772 883L1105 307Q1123 311 1139.5 318.0Q1156 325 1170.5 333.0Q1185 341 1195 347Q1288 398 1359.5 468.0Q1431 538 1501.0 617.5Q1571 697 1657.0 776.5Q1743 856 1865 925Q1895 943 1928.5 961.5Q1962 980 1991 993ZM2663 965 3177 1855Q3221 1930 3285.5 1958.5Q3350 1987 3431 1980Q3498 1973 3578.0 1943.0Q3658 1913 3743 1864Q3848 1803 3930.5 1726.0Q4013 1649 4086.5 1568.0Q4160 1487 4237.0 1413.0Q4314 1339 4407 1285Q4490 1238 4563.0 1211.5Q4636 1185 4682 1159Q4765 1111 4793.5 1029.0Q4822 947 4773 862L4288 21Q4246 -53 4180.5 -81.5Q4115 -110 4035 -102Q3968 -97 3887.5 -66.5Q3807 -36 3722 13Q3617 74 3534.5 151.5Q3452 229 3378.5 310.0Q3305 391 3228.0 465.0Q3151 539 3058 593Q3023 613 2990.0 628.0Q2957 643 2928 655L2885 580ZM3124 993Q3152 980 3185.5 961.5Q3219 943 3250 925Q3371 856 3457.0 776.5Q3543 697 3613.0 617.5Q3683 538 3755.0 468.0Q3827 398 3919 347Q3929 341 3943.5 333.0Q3958 325 3975.0 318.0Q3992 311 4009 307L4342 883Q4313 896 4279.5 915.0Q4246 934 4216 951Q4095 1021 4008.5 1100.5Q3922 1180 3852.0 1259.0Q3782 1338 3710.5 1408.5Q3639 1479 3547 1530Q3536 1536 3521.5 1544.0Q3507 1552 3490.5 1559.0Q3474 1566 3456 1570ZM2450 -172 2263 -497Q2223 -566 2146.0 -588.0Q2069 -610 1999 -569Q1931 -528 1910.5 -450.5Q1890 -373 1930 -305L2229 214Z" transform="translate(-3.6330,23.2193) scale(0.011719,-0.011719)"/>
  </g>
</svg>
