<svg xmlns="http://www.w3.org/2000/svg" viewBox="0 0 14.5781 9.1406" width="38.2769" height="24.0000">
  <g fill="black" stroke="black" stroke-width="0.25">
    <path d="M729 588Q729 468 651.5 391.5Q574 315 455 315Q361 315 294.0 360.5Q227 406 191.5 483.0Q156 560 156 653Q156 750 192.5 831.0Q229 912 286.5 971.0Q344 1030 409.0 1062.5Q474 1095 532 1095Q561 1095 582.0 1079.0Q603 1063 603 1034Q603 1011 589.0 995.0Q575 979 549 973Q487 960 438.5 932.0Q390 904 359.0 867.0Q328 830 315 789H341Q367 820 407.0 834.5Q447 849 497 849Q599 849 664.0 775.5Q729 702 729 588ZM1400 588Q1400 468 1322.0 391.5Q1244 315 1125 315Q1031 315 964.0 360.5Q897 406 861.5 483.0Q826 560 826 653Q826 750 862.5 831.0Q899 912 956.5 971.0Q1014 1030 1079.0 1062.5Q1144 1095 1202 1095Q1231 1095 1252.5 1079.0Q1274 1063 1274 1034Q1274 1011 1259.5 995.0Q1245 979 1219 973Q1157 960 1109.0 932.0Q1061 904 1029.5 867.0Q998 830 985 789H1012Q1038 820 1077.5 834.5Q1117 849 1167 849Q1270 849 1335.0 775.5Q1400 702 1400 588Z" transform="translate(-1.8281,12.8320) scale(0.011719,-0.011719)"/>
  </g>
</svg>
