<svg xmlns="http://www.w3.org/2000/svg" viewBox="0 0 19.8867 19.3945" width="24.6091" height="24.0000">
  <g fill="black" stroke="black" stroke-width="0.25">
    <path d="M132 682Q132 850 195.5 997.5Q259 1145 370.5 1257.0Q482 1369 628.5 1432.5Q775 1496 941 1496Q1002 1496 1042.5 1455.5Q1083 1415 1083 1358Q1083 1302 1042.5 1262.5Q1002 1223 944 1221Q831 1218 733.5 1175.5Q636 1133 562.5 1060.0Q489 987 448.0 890.5Q407 794 407 682Q407 536 476.5 421.5Q546 307 664 222Q699 197 714.5 172.0Q730 147 730 105Q730 43 694.0 7.0Q658 -29 605 -29Q545 -29 487 10Q331 120 231.5 293.0Q132 466 132 682ZM1411 1449Q1449 1427 1460.5 1386.5Q1472 1346 1450 1307L1333 1105Q1312 1068 1271.0 1057.5Q1230 1047 1193 1068Q1155 1090 1143.0 1130.5Q1131 1171 1153 1209L1270 1411Q1292 1448 1333.0 1459.5Q1374 1471 1411 1449ZM1721 1134Q1743 1097 1731.5 1056.0Q1720 1015 1683 993L1480 877Q1443 856 1401.5 866.0Q1360 876 1339 915Q1319 953 1329.5 993.5Q1340 1034 1377 1056L1580 1172Q1617 1194 1658.0 1183.0Q1699 1172 1721 1134ZM1829 683Q1829 640 1799.0 610.0Q1769 580 1726 580H1494Q1451 580 1421.0 610.0Q1391 640 1391 683Q1391 726 1421.0 756.0Q1451 786 1494 786H1726Q1769 786 1799.0 756.0Q1829 726 1829 683ZM1721 232Q1699 194 1658.0 183.0Q1617 172 1580 194L1377 310Q1340 332 1329.5 372.5Q1319 413 1339 451Q1360 490 1401.5 500.0Q1443 510 1480 489L1683 373Q1720 351 1731.5 310.0Q1743 269 1721 232ZM1411 -83Q1374 -105 1333.0 -93.5Q1292 -82 1270 -45L1153 157Q1131 195 1143.0 235.5Q1155 276 1193 298Q1230 319 1271.0 308.5Q1312 298 1333 261L1450 59Q1472 20 1460.5 -20.5Q1449 -61 1411 -83ZM954 -159Q912 -159 881.5 -128.5Q851 -98 851 -56V177Q851 219 881.5 249.5Q912 280 954 280Q997 280 1027.5 249.5Q1058 219 1058 177V-56Q1058 -98 1027.5 -128.5Q997 -159 954 -159Z" transform="translate(-1.5469,17.5312) scale(0.011719,-0.011719)"/>
  </g>
</svg>
