<svg xmlns="http://www.w3.org/2000/svg" viewBox="0 0 16.4648 15.9258" width="24.8124" height="24.0000">
  <g fill="black" stroke="black" stroke-width="0.25">
    <path d="M636 -3Q685 -3 726 35L1081 387Q1115 421 1115 473Q1115 521 1078.0 558.5Q1041 596 990 596Q968 596 946.0 586.5Q924 577 908 557L809 433L762 366L767 454V820Q767 936 837.5 1009.5Q908 1083 1030 1083Q1150 1083 1222.0 1010.5Q1294 938 1294 822V633Q1294 568 1329.5 526.5Q1365 485 1425 485Q1487 485 1524.0 526.0Q1561 567 1561 633V822Q1561 980 1495.5 1100.5Q1430 1221 1311.5 1288.5Q1193 1356 1033 1356Q876 1356 760.0 1288.0Q644 1220 580.0 1099.0Q516 978 516 820V454L520 366L465 442L363 557Q346 575 324.5 584.5Q303 594 280 594Q231 594 193.5 556.0Q156 518 156 470Q156 447 164.5 425.5Q173 404 192 387L547 35Q587 -3 636 -3Z" transform="translate(-1.8281,15.8906) scale(0.011719,-0.011719)"/>
  </g>
</svg>
