<svg xmlns="http://www.w3.org/2000/svg" viewBox="0 0 38.5078 35.3438" width="26.1485" height="24.0000">
  <g fill="black" stroke="black" stroke-width="0.25">
    <path d="M2248 211H2808Q2911 211 2976.0 240.0Q3041 269 3071.5 323.0Q3102 377 3102 450Q3102 587 3007.5 662.0Q2913 737 2742 756Q2712 759 2716 789Q2722 838 2726.5 902.0Q2731 966 2728 1035Q2722 1159 2674.5 1266.5Q2627 1374 2545.0 1455.5Q2463 1537 2355.0 1583.0Q2247 1629 2121 1629Q1988 1629 1883.0 1587.0Q1778 1545 1699.0 1466.5Q1620 1388 1564 1280Q1553 1257 1526 1265Q1414 1296 1319.0 1283.5Q1224 1271 1154.5 1219.0Q1085 1167 1051.5 1077.0Q1018 987 1030 863Q1033 831 1001 831Q891 831 805.5 792.0Q720 753 671.0 678.5Q622 604 622 497Q622 420 660.5 354.5Q699 289 769.5 250.0Q840 211 937 211H1431V-181H935Q774 -181 642.5 -130.0Q511 -79 416.0 12.0Q321 103 270.0 222.5Q219 342 219 479Q219 636 275.0 767.5Q331 899 435.5 989.5Q540 1080 685 1113Q696 1245 758.0 1352.0Q820 1459 917.0 1531.5Q1014 1604 1132.0 1633.0Q1250 1662 1375 1639Q1463 1761 1579.5 1846.5Q1696 1932 1835.0 1976.5Q1974 2021 2127 2021Q2334 2021 2511.0 1948.0Q2688 1875 2820.0 1742.0Q2952 1609 3026.5 1427.5Q3101 1246 3102 1030Q3228 981 3318.5 891.0Q3409 801 3457.0 677.0Q3505 553 3505 405Q3505 228 3421.0 96.0Q3337 -36 3185.0 -108.5Q3033 -181 2830 -181H2248ZM1404 -314Q1469 -314 1514 -361L1635 -492L1839 -816L2043 -492L2165 -361Q2210 -314 2274 -314Q2330 -314 2375.0 -352.5Q2420 -391 2420 -453Q2420 -485 2408.5 -509.0Q2397 -533 2375 -554L1978 -935Q1944 -968 1909.0 -981.5Q1874 -995 1839 -995Q1804 -995 1769.5 -981.5Q1735 -968 1701 -935L1303 -554Q1282 -533 1270.5 -509.0Q1259 -485 1259 -453Q1259 -391 1303.5 -352.5Q1348 -314 1404 -314ZM1839 795Q1912 795 1961.0 744.5Q2010 694 2010 626V-409L1972 -839Q1967 -894 1930.5 -933.0Q1894 -972 1839 -972Q1784 -972 1747.5 -933.0Q1711 -894 1707 -839L1669 -409V626Q1669 694 1718.0 744.5Q1767 795 1839 795Z" transform="translate(-2.5664,23.6836) scale(0.011719,-0.011719)"/>
  </g>
</svg>
