<svg xmlns="http://www.w3.org/2000/svg" viewBox="0 0 12.4219 15.1289" width="19.7057" height="24.0000">
  <g fill="black" stroke="black" stroke-width="0.25">
    <path d="M685 351Q630 351 590 389L222 742Q202 761 191.5 785.0Q181 809 181 831Q181 888 216.0 923.0Q251 958 304 958Q334 958 355.5 946.5Q377 935 395 916L465 845L572 720L556 877V1202Q556 1263 591.5 1300.5Q627 1338 685 1338Q743 1338 778.5 1300.5Q814 1263 814 1202V877L799 720L904 845L976 916Q995 934 1017.5 946.0Q1040 958 1070 958Q1121 958 1156.0 922.5Q1191 887 1191 831Q1191 808 1181.5 784.5Q1172 761 1151 742L781 389Q763 372 738.5 361.5Q714 351 685 351ZM279 47Q228 47 192.0 83.0Q156 119 156 170Q156 221 192.0 257.5Q228 294 279 294H1092Q1144 294 1180.0 257.5Q1216 221 1216 170Q1216 119 1180.0 83.0Q1144 47 1092 47Z" transform="translate(-1.8281,15.6797) scale(0.011719,-0.011719)"/>
  </g>
</svg>
