<svg xmlns="http://www.w3.org/2000/svg" viewBox="0 0 32.3672 33.6881" width="23.0589" height="24.0000">
  <g fill="black" stroke="black" stroke-width="0.25">
    <path d="M1552 426 1225 305Q1198 295 1172.5 307.0Q1147 319 1133.5 344.0Q1120 369 1132 400L1254 725L2372 1844L2671 1545ZM2767 1641 2469 1939 2599 2067Q2655 2121 2730.0 2130.5Q2805 2140 2852 2092L2904 2039Q2959 1983 2952.5 1907.5Q2946 1832 2892 1774ZM218 916Q218 1170 304.0 1388.0Q390 1606 549.5 1769.0Q709 1932 931.5 2022.5Q1154 2113 1426 2113Q1603 2113 1782.5 2060.0Q1962 2007 2129 1910L1855 1637Q1745 1692 1627.0 1722.0Q1509 1752 1388 1752Q1211 1752 1063.0 1693.5Q915 1635 806.0 1525.5Q697 1416 637.5 1264.0Q578 1112 578 925Q578 800 605.5 670.5Q633 541 690.0 413.5Q747 286 837.0 166.5Q927 47 1051.0 -58.5Q1175 -164 1336.5 -249.5Q1498 -335 1699 -393Q1779 -418 1821.0 -459.0Q1863 -500 1863 -577Q1863 -648 1829.0 -686.5Q1795 -725 1740.5 -736.5Q1686 -748 1625 -738Q1475 -714 1313.5 -645.5Q1152 -577 994.5 -469.5Q837 -362 697.0 -218.0Q557 -74 449.0 102.0Q341 278 279.5 482.5Q218 687 218 916ZM2980 579Q2980 397 2920.0 245.0Q2860 93 2748.5 -18.5Q2637 -130 2482.0 -191.0Q2327 -252 2137 -252Q1982 -252 1827.5 -210.5Q1673 -169 1534.0 -91.5Q1395 -14 1286 94L1673 240Q1765 166 1880.0 121.5Q1995 77 2114 77Q2257 77 2373.5 141.0Q2490 205 2558.5 319.0Q2627 433 2627 582Q2627 692 2588.5 811.0Q2550 930 2481 1047L2750 1318Q2857 1151 2918.5 963.5Q2980 776 2980 579Z" transform="translate(-2.5547,24.9852) scale(0.011719,-0.011719)"/>
  </g>
</svg>
