<svg xmlns="http://www.w3.org/2000/svg" viewBox="0 0 52.3711 36.0938" width="34.8234" height="24.0000">
  <g fill="black" stroke="black" stroke-width="0.25">
    <path d="M1929 475Q1793 475 1750.5 554.0Q1708 633 1766 740L2079 1314Q2132 1412 2203.5 1461.5Q2275 1511 2409 1511H2690Q2816 1511 2887.0 1462.0Q2958 1413 3012 1314L3325 740Q3385 631 3341.0 553.0Q3297 475 3162 475ZM1183 -665Q1024 -719 896.0 -700.5Q768 -682 693.5 -587.5Q619 -493 619 -317V60Q619 117 651.0 155.5Q683 194 742 194H977Q1039 194 1070.0 155.5Q1101 117 1101 60V-132Q1101 -155 1113.5 -158.0Q1126 -161 1157 -151L1862 83L2125 -347ZM725 160V516Q725 571 763.0 612.0Q801 653 858 653Q915 653 954.0 612.0Q993 571 993 516V160ZM409 313Q364 313 337.5 344.0Q311 375 311 414Q311 454 337.5 485.5Q364 517 409 517H1311Q1355 517 1381.5 485.5Q1408 454 1408 414Q1408 375 1381.5 344.0Q1355 313 1311 313ZM2361 -910Q2298 -910 2261.0 -867.5Q2224 -825 2224 -762V-437H2867V-762Q2867 -825 2830.0 -867.5Q2793 -910 2731 -910ZM2546 -779Q2584 -779 2613.5 -750.5Q2643 -722 2643 -682Q2643 -642 2614.0 -614.0Q2585 -586 2546 -586Q2506 -586 2477.5 -614.0Q2449 -642 2449 -682Q2449 -722 2477.5 -750.5Q2506 -779 2546 -779ZM2269 -527Q2200 -527 2143.0 -502.5Q2086 -478 2054 -418L1742 149Q1716 196 1738.5 236.5Q1761 277 1813 277H3278Q3331 277 3353.5 236.5Q3376 196 3350 149L3037 -418Q3005 -479 2948.5 -503.0Q2892 -527 2823 -527ZM1630 886 1409 998Q1345 1029 1307.5 1065.0Q1270 1101 1254.0 1148.0Q1238 1195 1238 1259V1583Q1238 1641 1270.5 1679.0Q1303 1717 1362 1717H1597Q1658 1717 1689.5 1679.0Q1721 1641 1721 1583V1420Q1721 1401 1727.0 1391.5Q1733 1382 1746 1374L1860 1308ZM3908 -665 2963 -345 3236 81 3934 -151Q3965 -161 3977.5 -158.0Q3990 -155 3990 -132V60Q3990 117 4021.5 155.5Q4053 194 4114 194H4349Q4409 194 4441.0 155.5Q4473 117 4473 60V-317Q4473 -493 4398.5 -587.5Q4324 -682 4196.0 -700.5Q4068 -719 3908 -665ZM1344 1658V2033Q1344 2088 1382.0 2129.0Q1420 2170 1477 2170Q1534 2170 1573.0 2129.0Q1612 2088 1612 2033V1658ZM1028 1834Q983 1834 956.5 1865.5Q930 1897 930 1936Q930 1975 956.5 2006.5Q983 2038 1028 2038H1930Q1974 2038 2000.5 2006.5Q2027 1975 2027 1936Q2027 1897 2000.5 1865.5Q1974 1834 1930 1834ZM3780 313Q3736 313 3709.5 344.0Q3683 375 3683 414Q3683 454 3709.5 485.5Q3736 517 3780 517H4682Q4727 517 4753.5 485.5Q4780 454 4780 414Q4780 375 4753.5 344.0Q4727 313 4682 313ZM4099 168V516Q4099 571 4137.5 612.0Q4176 653 4233 653Q4290 653 4328.5 612.0Q4367 571 4367 516V168ZM3462 882 3225 1316 3342 1374Q3355 1381 3361.5 1391.0Q3368 1401 3368 1420V1581Q3368 1640 3399.5 1678.5Q3431 1717 3493 1717H3730Q3790 1717 3822.5 1678.5Q3855 1640 3855 1581V1258Q3855 1194 3839.5 1147.0Q3824 1100 3786.5 1063.5Q3749 1027 3683 995ZM3479 1658V2033Q3479 2088 3518.0 2129.0Q3557 2170 3614 2170Q3671 2170 3709.0 2129.0Q3747 2088 3747 2033V1658ZM3161 1834Q3117 1834 3090.5 1865.5Q3064 1897 3064 1936Q3064 1975 3090.5 2006.5Q3117 2038 3161 2038H4063Q4108 2038 4134.5 2006.5Q4161 1975 4161 1936Q4161 1897 4134.5 1865.5Q4108 1834 4063 1834Z" transform="translate(-3.6445,25.4297) scale(0.011719,-0.011719)"/>
  </g>
</svg>
