<svg xmlns="http://www.w3.org/2000/svg" viewBox="0 0 9.9961 14.1328" width="16.9751" height="24.0000">
  <g fill="black" stroke="black" stroke-width="0.25">
    <path d="M583 102Q454 102 358.0 154.0Q262 206 209.0 299.5Q156 393 156 519Q156 595 181.5 671.5Q207 748 242 822Q289 923 354.5 1032.0Q420 1141 486 1241Q532 1308 583 1308Q633 1308 679 1241Q744 1141 810.0 1032.5Q876 924 923 823Q958 749 983.5 672.0Q1009 595 1009 519Q1009 393 956.0 299.5Q903 206 807.0 154.0Q711 102 583 102Z" transform="translate(-1.8281,15.3281) scale(0.011719,-0.011719)"/>
  </g>
</svg>
