<svg xmlns="http://www.w3.org/2000/svg" viewBox="0 0 23.8477 32.3438" width="17.6957" height="24.0000">
  <g fill="black" stroke="black" stroke-width="0.25">
    <path d="M951 -667Q751 -667 608.0 -592.0Q465 -517 388.5 -373.5Q312 -230 312 -25V1057Q312 1290 384.5 1480.5Q457 1671 592.0 1808.0Q727 1945 914.5 2019.0Q1102 2093 1331 2093Q1560 2093 1746.5 2019.5Q1933 1946 2067.5 1811.0Q2202 1676 2274.5 1488.0Q2347 1300 2347 1070Q2347 997 2339.0 932.5Q2331 868 2315 811Q2230 823 2141.0 816.5Q2052 810 1969 787Q1995 846 2010.0 916.0Q2025 986 2025 1070Q2025 1280 1938.0 1437.5Q1851 1595 1695.0 1682.5Q1539 1770 1331 1770Q1122 1770 965.0 1681.0Q808 1592 721.0 1432.0Q634 1272 634 1057V-20Q634 -122 673.5 -194.0Q713 -266 787.0 -304.5Q861 -343 965 -343Q1096 -343 1180.0 -279.0Q1264 -215 1325 -98L1342 -67Q1346 -174 1376.5 -273.5Q1407 -373 1458 -460Q1362 -561 1235.0 -614.0Q1108 -667 951 -667ZM902 451Q849 451 815.0 485.5Q781 520 781 574V1060Q781 1228 850.0 1354.0Q919 1480 1042.5 1550.0Q1166 1620 1331 1620Q1500 1620 1626.5 1551.0Q1753 1482 1823.0 1358.0Q1893 1234 1893 1069Q1893 1018 1857.5 982.0Q1822 946 1772 946Q1720 946 1684.5 982.0Q1649 1018 1649 1069Q1649 1162 1609.5 1231.5Q1570 1301 1498.5 1339.0Q1427 1377 1331 1377Q1239 1377 1170.0 1337.5Q1101 1298 1063.0 1226.5Q1025 1155 1025 1060V574Q1025 520 990.5 485.5Q956 451 902 451ZM882 762V1003H1196Q1356 1003 1455.0 912.5Q1554 822 1554 675Q1554 615 1529.5 546.5Q1505 478 1463 426L1338 268Q1298 218 1241 218Q1189 218 1154.0 252.0Q1119 286 1119 335Q1119 378 1152 421L1265 562Q1285 586 1296.0 612.0Q1307 638 1307 667Q1307 709 1278.0 735.5Q1249 762 1200 762Z" transform="translate(-3.6562,24.5273) scale(0.011719,-0.011719)"/>
  </g>
</svg>
