<svg xmlns="http://www.w3.org/2000/svg" viewBox="0 0 25.2422 13.2114" width="45.8551" height="24.0000">
  <g fill="black" stroke="black" stroke-width="0.25">
    <path d="M156 549V768H375L543 1180Q563 1227 606.5 1242.5Q650 1258 691.5 1242.5Q733 1227 748 1181L937 608L965 685Q994 768 1080 768H1302L1470 1180Q1490 1227 1533.0 1242.5Q1576 1258 1617.5 1242.5Q1659 1227 1674 1181L1863 608L1892 685Q1920 768 2007 768H2310V549H2076L1965 195Q1949 147 1904.5 131.0Q1860 115 1816.0 130.5Q1772 146 1758 193L1567 821L1485 630Q1467 591 1440.0 570.0Q1413 549 1370 549H1150L1039 195Q1023 147 978.5 131.0Q934 115 890.0 130.5Q846 146 832 193L640 819L565 630Q548 591 520.5 570.0Q493 549 450 549Z" transform="translate(-1.8281,14.6514) scale(0.011719,-0.011719)"/>
  </g>
</svg>
