<svg xmlns="http://www.w3.org/2000/svg" viewBox="0 0 18.5508 4.8633" width="91.5470" height="24.0000">
  <g fill="black" stroke="black" stroke-width="0.25">
    <path d="M363 476Q278 476 217.0 537.0Q156 598 156 683Q156 769 217.0 830.0Q278 891 363 891Q449 891 510.0 830.0Q571 769 571 683Q571 598 510.0 537.0Q449 476 363 476ZM947 476Q862 476 801.0 537.0Q740 598 740 683Q740 769 801.0 830.0Q862 891 947 891Q1033 891 1094.0 830.0Q1155 769 1155 683Q1155 598 1094.0 537.0Q1033 476 947 476ZM1531 476Q1446 476 1385.0 537.0Q1324 598 1324 683Q1324 769 1385.0 830.0Q1446 891 1531 891Q1617 891 1678.0 830.0Q1739 769 1739 683Q1739 598 1678.0 537.0Q1617 476 1531 476Z" transform="translate(-1.8281,10.4414) scale(0.011719,-0.011719)"/>
  </g>
</svg>
