<svg xmlns="http://www.w3.org/2000/svg" viewBox="0 0 23.5195 19.9453" width="28.3008" height="24.0000">
  <g fill="black" stroke="black" stroke-width="0.25">
    <path d="M619 -167Q397 -167 276.5 -46.5Q156 74 156 295V1074Q156 1294 276.5 1414.5Q397 1535 619 1535H1700Q1922 1535 2042.5 1414.5Q2163 1294 2163 1074V295Q2163 74 2042.5 -46.5Q1922 -167 1700 -167ZM669 221H1652Q1713 221 1744.5 250.5Q1776 280 1776 347V1022Q1776 1088 1744.5 1117.5Q1713 1147 1651 1147H669Q607 1147 575.5 1117.5Q544 1088 544 1022V347Q544 280 575.5 250.5Q607 221 669 221Z" transform="translate(-1.8281,17.9883) scale(0.011719,-0.011719)"/>
  </g>
</svg>
