<svg xmlns="http://www.w3.org/2000/svg" viewBox="0 0 16.5469 11.9883" width="33.1261" height="24.0000">
  <g fill="black" stroke="black" stroke-width="0.25">
    <path d="M862 653Q873 653 883.5 658.0Q894 663 906 675L1465 1173Q1421 1194 1361 1194H364Q303 1194 259 1173L818 675Q830 663 840.5 658.0Q851 653 862 653ZM167 295 579 706 169 1073Q162 1058 159.0 1036.0Q156 1014 156 987V377Q156 330 167 295ZM357 171H1367Q1397 171 1422.5 176.0Q1448 181 1469 191L1043 615L984 564Q954 536 925.0 524.5Q896 513 862 513Q828 513 799.0 524.5Q770 536 740 564L681 615L255 191Q275 181 301.0 176.0Q327 171 357 171ZM1558 295Q1568 331 1568 377V987Q1568 1014 1564.5 1036.0Q1561 1058 1556 1073L1144 706Z" transform="translate(-1.8281,13.9922) scale(0.011719,-0.011719)"/>
  </g>
</svg>
