<svg xmlns="http://www.w3.org/2000/svg" viewBox="0 0 14.1680 11.2617" width="30.1935" height="24.0000">
  <g fill="black" stroke="black" stroke-width="0.25">
    <path d="M156 318V622Q156 691 167.5 737.0Q179 783 216 827L263 881Q277 946 297.0 1005.5Q317 1065 329 1091Q350 1138 391.5 1166.5Q433 1195 488 1202Q509 1205 547.0 1207.0Q585 1209 638.5 1210.0Q692 1211 761 1211Q830 1211 884.0 1210.0Q938 1209 976.0 1207.0Q1014 1205 1034 1202Q1089 1195 1130.0 1166.5Q1171 1138 1194 1091Q1206 1065 1226.0 1005.5Q1246 946 1260 881L1306 827Q1344 783 1354.5 737.0Q1365 691 1365 622V318Q1365 290 1345.5 270.0Q1326 250 1297 250H1237Q1208 250 1188.5 270.0Q1169 290 1169 318V408Q1089 402 976.5 398.5Q864 395 761 395Q658 395 545.5 399.0Q433 403 353 408V318Q353 290 333.5 270.0Q314 250 285 250H224Q196 250 176.0 270.0Q156 290 156 318ZM565 761Q565 733 597 733H729L668 573Q656 542 680.5 529.5Q705 517 726 541L948 806Q958 818 958 831Q958 861 927 861H794L855 1020Q866 1052 842.5 1064.0Q819 1076 799 1052L576 786Q565 775 565 761Z" transform="translate(-1.8281,14.1914) scale(0.011719,-0.011719)"/>
  </g>
</svg>
