<svg xmlns="http://www.w3.org/2000/svg" viewBox="0 0 35.4375 38.1211" width="22.3105" height="24.0000">
  <g fill="black" stroke="black" stroke-width="0.25">
    <path d="M737 -246Q605 -246 509.5 -198.0Q414 -150 362.5 -61.5Q311 27 311 149V1223Q311 1345 362.5 1434.0Q414 1523 509.5 1571.0Q605 1619 737 1619H1161V1265H818Q749 1265 709.0 1225.5Q669 1186 669 1121V252Q669 186 709.0 146.5Q749 107 818 107H1161V-246ZM2909 -246H2485V107H2829Q2898 107 2938.0 146.5Q2978 186 2978 252V1121Q2978 1186 2938.0 1225.5Q2898 1265 2829 1265H2485V1619H2909Q3042 1619 3137.0 1571.0Q3232 1523 3283.5 1434.0Q3335 1345 3335 1223V149Q3335 27 3283.5 -61.5Q3232 -150 3137.0 -198.0Q3042 -246 2909 -246ZM1823 2313Q1880 2313 1933 2262L2313 1903Q2335 1883 2344.5 1860.0Q2354 1837 2354 1810Q2354 1752 2313.5 1712.5Q2273 1673 2215 1673Q2186 1673 2160.5 1685.0Q2135 1697 2120 1715L2010 1845L1924 1967H1722L1635 1844L1526 1715Q1492 1673 1431 1673Q1372 1673 1332.0 1712.5Q1292 1752 1292 1810Q1292 1837 1301.5 1860.5Q1311 1884 1332 1903L1712 2262Q1765 2313 1823 2313ZM1823 2082Q1880 2082 1918.5 2042.0Q1957 2002 1960 1945L1976 1729V1416Q1976 1348 1933.0 1305.0Q1890 1262 1823 1262Q1756 1262 1713.5 1305.0Q1671 1348 1671 1416V1729L1686 1945Q1689 2002 1727.5 2042.0Q1766 2082 1823 2082ZM1824 -940Q1766 -940 1713 -890L1333 -531Q1312 -511 1302.5 -487.5Q1293 -464 1293 -438Q1293 -380 1333.0 -340.0Q1373 -300 1432 -300Q1493 -300 1527 -342L1636 -472L1724 -594H1925L2011 -473L2121 -342Q2136 -324 2161.5 -312.0Q2187 -300 2216 -300Q2274 -300 2314.5 -340.0Q2355 -380 2355 -438Q2355 -464 2345.5 -487.5Q2336 -511 2314 -531L1934 -890Q1881 -940 1824 -940ZM1824 -709Q1767 -709 1728.5 -669.0Q1690 -629 1687 -572L1672 -357V-43Q1672 24 1714.5 67.5Q1757 111 1824 111Q1891 111 1934.0 67.5Q1977 24 1977 -43V-357L1961 -572Q1958 -629 1919.5 -669.0Q1881 -709 1824 -709Z" transform="translate(-3.6445,27.1055) scale(0.011719,-0.011719)"/>
  </g>
</svg>
