<svg xmlns="http://www.w3.org/2000/svg" viewBox="0 0 41.1445 37.2070" width="26.5398" height="24.0000">
  <g fill="black" stroke="black" stroke-width="0.25">
    <path d="M3626 506 3070 283 3301 -314Q3319 -357 3319 -400Q3319 -468 3272.0 -517.5Q3225 -567 3151 -567Q3127 -567 3100.0 -561.5Q3073 -556 3049 -542L2430 -182L2194 -778Q2165 -852 2110.0 -881.0Q2055 -910 2005 -910Q1956 -910 1901.0 -881.0Q1846 -852 1816 -778L1581 -182L962 -542Q938 -556 911.0 -561.5Q884 -567 860 -567Q786 -567 739.0 -517.0Q692 -467 692 -400Q692 -356 709 -314L941 283L384 506Q316 533 283.0 583.0Q250 633 250 684Q250 736 283.5 785.5Q317 835 384 859L947 1063L730 1624Q714 1666 714 1708Q714 1778 762.5 1829.0Q811 1880 888 1880Q911 1880 937.5 1875.0Q964 1870 988 1857L1556 1541L1813 2135Q1843 2209 1899.5 2237.0Q1956 2265 2005 2265Q2055 2265 2111.5 2237.0Q2168 2209 2198 2135L2455 1541L3023 1857Q3047 1870 3073.5 1875.0Q3100 1880 3123 1880Q3200 1880 3248.5 1829.0Q3297 1778 3297 1708Q3297 1666 3280 1624L3063 1063L3626 859Q3694 834 3727.5 785.0Q3761 736 3761 685Q3761 633 3727.5 583.0Q3694 533 3626 506ZM3203 683 2733 836Q2690 850 2668.5 877.5Q2647 905 2647 935Q2647 957 2656 975L2884 1432L2882 1434L2405 1163Q2391 1155 2371.0 1146.0Q2351 1137 2330 1137Q2306 1137 2283.5 1150.5Q2261 1164 2251 1191L2006 1829H2003L1760 1191Q1750 1164 1727.0 1150.5Q1704 1137 1680 1137Q1660 1137 1640.0 1146.0Q1620 1155 1605 1163L1127 1433L1125 1431L1355 975Q1363 957 1363 935Q1363 905 1342.0 877.5Q1321 850 1278 836L807 683V680L1271 510Q1314 495 1335.0 467.5Q1356 440 1356 410Q1356 388 1348 371L1112 -111L1115 -114L1634 200Q1648 209 1668.5 217.5Q1689 226 1709 226Q1733 226 1756.0 212.0Q1779 198 1788 171L2004 -460H2007L2223 171Q2232 198 2254.5 212.0Q2277 226 2301 226Q2322 226 2342.0 217.5Q2362 209 2377 200L2897 -112L2900 -110L2663 371Q2655 388 2655 410Q2655 440 2676.0 467.5Q2697 495 2739 510L3203 680Z" transform="translate(-2.9297,26.5430) scale(0.011719,-0.011719)"/>
  </g>
</svg>
