<svg xmlns="http://www.w3.org/2000/svg" viewBox="0 0 25.1840 37.4297" width="16.1480" height="24.0000">
  <g fill="black" stroke="black" stroke-width="0.25">
    <path d="M1173 1729Q1096 1729 1033.0 1766.0Q970 1803 933.0 1865.5Q896 1928 896 2005Q896 2082 933.0 2144.5Q970 2207 1033.0 2243.5Q1096 2280 1173 2280Q1250 2280 1312.0 2243.5Q1374 2207 1411.0 2144.5Q1448 2082 1448 2005Q1448 1928 1411.0 1865.5Q1374 1803 1312.0 1766.0Q1250 1729 1173 1729ZM1173 1931Q1203 1931 1224.0 1952.5Q1245 1974 1245 2005Q1245 2035 1224.0 2056.0Q1203 2077 1173 2077Q1141 2077 1120.0 2056.0Q1099 2035 1099 2005Q1099 1974 1120.0 1952.5Q1141 1931 1173 1931ZM563 1270Q548 1236 515.5 1214.5Q483 1193 443 1193Q393 1193 359.5 1222.0Q326 1251 315.0 1294.0Q304 1337 323 1379Q395 1540 524.0 1660.0Q653 1780 829.5 1846.0Q1006 1912 1222 1912H1706V1648H1222Q1060 1648 931.0 1602.5Q802 1557 709.0 1472.5Q616 1388 563 1270ZM1533 1872Q1533 1925 1568.5 1963.5Q1604 2002 1656 2007L2309 2061Q2372 2067 2416.0 2026.5Q2460 1986 2460 1922V1638Q2460 1573 2416.0 1533.0Q2372 1493 2309 1499L1656 1553Q1604 1558 1568.5 1596.5Q1533 1635 1533 1688ZM1069 1712H1364V1357H1069ZM926 -914Q827 -914 749.5 -869.5Q672 -825 627.5 -747.5Q583 -670 583 -570V855Q583 1040 664.5 1183.0Q746 1326 888.5 1407.0Q1031 1488 1216 1488Q1401 1488 1544.0 1407.0Q1687 1326 1768.0 1183.0Q1849 1040 1849 855V-570Q1849 -670 1805.0 -747.5Q1761 -825 1683.5 -869.5Q1606 -914 1506 -914ZM980 -567H1452Q1474 -567 1488.0 -552.5Q1502 -538 1502 -517V855Q1502 939 1465.5 1003.5Q1429 1068 1364.5 1104.5Q1300 1141 1216 1141Q1132 1141 1067.5 1104.5Q1003 1068 966.5 1003.5Q930 939 930 855V-517Q930 -538 944.5 -552.5Q959 -567 980 -567Z" transform="translate(-3.6441,26.7188) scale(0.011719,-0.011719)"/>
  </g>
</svg>
