<svg xmlns="http://www.w3.org/2000/svg" viewBox="0 0 18.8906 12.0234" width="37.7076" height="24.0000">
  <g fill="black" stroke="black" stroke-width="0.25">
    <path d="M962 169Q1111 169 1236.0 210.0Q1361 251 1459.5 315.5Q1558 380 1627.0 451.0Q1696 522 1732.0 584.5Q1768 647 1768 683Q1768 718 1732.0 780.5Q1696 843 1627.0 914.0Q1558 985 1459.5 1049.0Q1361 1113 1236.0 1154.0Q1111 1195 962 1195Q816 1195 691.0 1154.0Q566 1113 467.5 1049.0Q369 985 299.5 914.0Q230 843 193.0 780.5Q156 718 156 683Q156 647 193.0 584.5Q230 522 299.5 451.0Q369 380 467.5 315.5Q566 251 691.0 210.0Q816 169 962 169ZM962 361Q874 361 800.5 405.0Q727 449 683.0 522.0Q639 595 639 682Q639 771 683.0 844.0Q727 917 800.5 960.0Q874 1003 962 1003Q1051 1003 1124.5 960.0Q1198 917 1241.5 844.0Q1285 771 1285 682Q1285 595 1241.5 522.0Q1198 449 1124.5 405.0Q1051 361 962 361ZM963 541Q1021 541 1062.5 582.5Q1104 624 1104 682Q1104 740 1062.5 782.0Q1021 824 963 824Q903 824 862.5 782.0Q822 740 822 682Q822 624 862.5 582.5Q903 541 963 541Z" transform="translate(-1.8281,14.0039) scale(0.011719,-0.011719)"/>
  </g>
</svg>
