<svg xmlns="http://www.w3.org/2000/svg" viewBox="0 0 48.0469 24.8555" width="46.3932" height="24.0000">
  <g fill="black" stroke="black" stroke-width="0.25">
    <path d="M2270 -378Q1961 -378 1705.0 -319.5Q1449 -261 1263.5 -154.0Q1078 -47 977.0 101.0Q876 249 876 428V1043Q876 1204 971.5 1333.0Q1067 1462 1248.0 1553.5Q1429 1645 1687.0 1694.0Q1945 1743 2270 1743Q2594 1743 2852.0 1694.0Q3110 1645 3291.5 1553.5Q3473 1462 3568.5 1333.0Q3664 1204 3664 1043V428Q3664 249 3563.0 101.0Q3462 -47 3276.0 -154.0Q3090 -261 2834.5 -319.5Q2579 -378 2270 -378ZM2270 -8Q2490 -8 2677.0 26.0Q2864 60 3002.5 120.5Q3141 181 3217.5 260.0Q3294 339 3294 428V1043Q3294 1145 3171.5 1219.0Q3049 1293 2819.5 1333.0Q2590 1373 2270 1373Q1950 1373 1720.5 1333.0Q1491 1293 1368.0 1219.0Q1245 1145 1245 1043V428Q1245 339 1321.5 260.0Q1398 181 1536.5 120.5Q1675 60 1862.0 26.0Q2049 -8 2270 -8ZM1585 942Q1585 997 1625.5 1037.0Q1666 1077 1721 1077H2820Q2875 1077 2915.5 1037.0Q2956 997 2956 942Q2956 886 2916.0 846.0Q2876 806 2820 806H1721Q1665 806 1625.0 846.0Q1585 886 1585 942ZM1585 470Q1585 526 1625.0 566.0Q1665 606 1721 606H2820Q2876 606 2916.0 566.0Q2956 526 2956 470Q2956 414 2915.5 374.5Q2875 335 2820 335H1721Q1666 335 1625.5 374.5Q1585 414 1585 470ZM219 820Q219 970 278.0 1082.0Q337 1194 444.5 1255.5Q552 1317 699 1317H1111V985H699Q630 985 590.5 940.0Q551 895 551 820Q551 699 608.0 605.0Q665 511 768.5 455.5Q872 400 1010 395L1175 388V56L1028 63Q786 73 603.5 171.5Q421 270 320.0 437.0Q219 604 219 820ZM4319 820Q4319 604 4217.5 437.0Q4116 270 3934.0 171.5Q3752 73 3509 63L3362 56V388L3528 395Q3665 400 3768.5 455.5Q3872 511 3929.5 605.0Q3987 699 3987 820Q3987 895 3947.0 940.0Q3907 985 3838 985H3427V1317H3838Q3985 1317 4093.0 1255.5Q4201 1194 4260.0 1082.0Q4319 970 4319 820Z" transform="translate(-2.5664,20.4258) scale(0.011719,-0.011719)"/>
  </g>
</svg>
