<svg xmlns="http://www.w3.org/2000/svg" viewBox="0 0 14.9297 14.9297" width="24.0000" height="24.0000">
  <g fill="black" stroke="black" stroke-width="0.25">
    <path d="M793 403Q783 403 776 404Q734 251 669.0 169.5Q604 88 495 88Q428 88 367.0 119.0Q306 150 258.5 203.5Q211 257 183.5 324.5Q156 392 156 464Q156 548 203.5 594.5Q251 641 337 641H514Q513 650 512.0 661.5Q511 673 511 683Q511 687 511.0 691.0Q511 695 511 699Q361 740 279.5 805.5Q198 871 198 981Q198 1047 229.5 1108.0Q261 1169 314.5 1216.5Q368 1264 435.5 1291.5Q503 1319 575 1319Q659 1319 705.0 1272.0Q751 1225 751 1138V961Q760 962 771.5 963.0Q783 964 793 964Q804 964 810 963Q851 1114 916.5 1195.0Q982 1276 1092 1276Q1158 1276 1219.0 1245.0Q1280 1214 1327.5 1160.5Q1375 1107 1402.5 1039.5Q1430 972 1430 900Q1430 815 1383.0 769.0Q1336 723 1249 723H1072Q1074 707 1074 683Q1074 673 1073 665Q1224 624 1305.5 558.5Q1387 493 1387 384Q1387 317 1356.0 256.0Q1325 195 1271.5 147.5Q1218 100 1150.5 72.5Q1083 45 1011 45Q926 45 880.0 93.0Q834 141 834 227V406Q824 404 813.5 403.5Q803 403 793 403ZM793 551Q848 551 887.0 589.5Q926 628 926 683Q926 738 887.0 777.0Q848 816 793 816Q738 816 699.5 777.0Q661 738 661 683Q661 628 699.5 589.5Q738 551 793 551Z" transform="translate(-1.8281,15.4570) scale(0.011719,-0.011719)"/>
  </g>
</svg>
