<svg xmlns="http://www.w3.org/2000/svg" viewBox="0 0 15.0808 16.5472" width="21.8732" height="24.0000">
  <g fill="black" stroke="black" stroke-width="0.25">
    <path d="M691 61Q670 35 642.5 35.0Q615 35 594.0 52.0Q573 69 569.0 96.5Q565 124 590 154L777 376L805 504L918 359L912 341Q906 324 901.5 315.0Q897 306 882 288ZM1142 81 1009 351Q1006 359 1002.0 365.0Q998 371 989 382L861 543Q822 593 808.5 628.0Q795 663 799 715L809 842Q810 854 800.0 857.5Q790 861 781 853L743 819L729 658Q723 585 660 590Q630 592 612.5 613.0Q595 634 597 666L610 816Q612 850 622.5 873.5Q633 897 656 919L754 1015Q800 1060 841.0 1086.5Q882 1113 935 1113Q1004 1113 1043.5 1066.5Q1083 1020 1078 949L1065 765Q1062 716 1053.5 680.0Q1045 644 1030 591L1026 580L1106 467Q1116 452 1125.0 436.5Q1134 421 1142 407L1272 143Q1290 107 1279.0 80.5Q1268 54 1241.5 42.0Q1215 30 1186.5 38.5Q1158 47 1142 81ZM1370 863Q1402 863 1422.5 845.5Q1443 828 1443 798Q1443 768 1423.0 750.5Q1403 733 1370 733H1234Q1204 733 1186.5 739.5Q1169 746 1151 761L1135 777L1149 952L1228 863ZM1015 1166Q957 1166 915.0 1207.5Q873 1249 873 1306Q873 1365 915.0 1406.0Q957 1447 1015 1447Q1074 1447 1114.5 1406.0Q1155 1365 1155 1306Q1155 1249 1114.5 1207.5Q1074 1166 1015 1166ZM332 483Q353 514 383.0 519.5Q413 525 444 503L567 417Q599 394 604.5 364.5Q610 335 588 303L431 79Q409 48 378.5 42.5Q348 37 317 59L195 145Q162 168 157.0 197.5Q152 227 175 258ZM602 677 688 617 465 299 379 359Z" transform="translate(-1.8294,16.9570) scale(0.011719,-0.011719)"/>
  </g>
</svg>
