<svg xmlns="http://www.w3.org/2000/svg" viewBox="0 0 12.0045 15.7405" width="18.3036" height="24.0000">
  <g fill="black" stroke="black" stroke-width="0.25">
    <path d="M799 1080Q741 1080 700.0 1121.5Q659 1163 659 1220Q659 1278 700.0 1319.0Q741 1360 799 1360Q857 1360 898.0 1319.0Q939 1278 939 1220Q939 1163 898.0 1121.5Q857 1080 799 1080ZM584 553Q558 568 530.5 586.0Q503 604 489.5 635.5Q476 667 491 721L540 894Q543 906 536.0 913.0Q529 920 519 919L440 912L416 743Q406 677 346 682Q317 686 301.5 707.0Q286 728 291 759L320 974Q328 1034 389 1040L601 1055Q685 1061 742.0 1037.0Q799 1013 841 955L940 816L1086 880Q1147 908 1173 852Q1186 826 1176.0 802.0Q1166 778 1137 765L947 680Q925 671 903.0 677.0Q881 683 867 702L800 800Q793 810 783.0 809.0Q773 808 770 796L727 645L948 502Q977 483 981.0 447.5Q985 412 960 391L752 214Q725 192 698.0 192.0Q671 192 652 214Q634 234 637.0 260.5Q640 287 664 309L803 429ZM180 34Q157 54 156.0 83.5Q155 113 180 137L382 337L449 580Q468 554 495.5 534.5Q523 515 553 498L581 482L506 284Q499 265 493.0 256.5Q487 248 474 235L278 42Q255 19 228.0 17.0Q201 15 180 34Z" transform="translate(-1.8277,15.9375) scale(0.011719,-0.011719)"/>
  </g>
</svg>
