<svg xmlns="http://www.w3.org/2000/svg" viewBox="0 0 11.6602 15.5625" width="17.9819" height="24.0000">
  <g fill="black" stroke="black" stroke-width="0.25">
    <path d="M868 1103Q809 1103 768.5 1144.0Q728 1185 728 1243Q728 1301 768.5 1342.0Q809 1383 868 1383Q925 1383 966.5 1342.0Q1008 1301 1008 1243Q1008 1185 966.5 1144.0Q925 1103 868 1103ZM629 55Q488 55 384.0 113.5Q280 172 223.0 275.0Q166 378 166 513Q166 567 178.5 617.5Q191 668 215 713Q232 747 258.0 755.0Q284 763 307.0 751.5Q330 740 339.5 716.5Q349 693 334 664Q315 631 305.0 593.0Q295 555 295 513Q295 417 336.5 343.0Q378 269 453.0 226.5Q528 184 629 184Q725 184 798.0 224.0Q871 264 912.5 333.5Q954 403 954 492Q954 525 933.0 543.5Q912 562 878 562H688Q620 562 587.0 612.5Q554 663 578 732L645 919Q658 953 622 963L494 997L276 882Q251 868 227.0 873.0Q203 878 189 899Q172 921 177.0 947.5Q182 974 205 987L444 1121Q462 1132 476.5 1134.5Q491 1137 509 1132L755 1070Q820 1054 847.0 1007.0Q874 960 854 899L798 733Q792 711 812 711H892Q984 711 1033.5 654.5Q1083 598 1083 492Q1083 364 1026.0 265.5Q969 167 866.5 111.0Q764 55 629 55ZM1088 55Q1057 55 1036.0 76.0Q1015 97 1015 128Q1015 158 1036.0 179.0Q1057 200 1088 200Q1118 200 1139.5 179.0Q1161 158 1161 128Q1161 97 1139.5 76.0Q1118 55 1088 55Z" transform="translate(-1.9453,16.2070) scale(0.011719,-0.011719)"/>
  </g>
</svg>
