<svg xmlns="http://www.w3.org/2000/svg" viewBox="0 0 13.8544 13.5623" width="24.5168" height="24.0000">
  <g fill="black" stroke="black" stroke-width="0.25">
    <path d="M394 955Q336 955 295.0 996.0Q254 1037 254 1094Q254 1152 295.0 1193.0Q336 1234 394 1234Q452 1234 493.0 1193.0Q534 1152 534 1094Q534 1037 493.0 996.0Q452 955 394 955ZM157 703Q146 769 203 792L713 1017L769 1212Q782 1256 816.0 1262.5Q850 1269 875.5 1246.0Q901 1223 889 1180L830 976Q823 952 811.5 940.0Q800 928 775 916L682 874Q660 864 672 837L774 630Q780 615 797 626L923 699Q947 712 972.0 714.5Q997 717 1021 705L1291 577Q1327 560 1334.5 534.0Q1342 508 1330.5 484.5Q1319 461 1294.0 450.5Q1269 440 1239 455L991 573L802 465Q794 461 794.0 453.5Q794 446 800 441L1083 234Q1113 212 1115.0 184.5Q1117 157 1101.0 135.5Q1085 114 1058.5 108.0Q1032 102 1005 122L641 389Q621 404 598.5 425.5Q576 447 549 499L438 719Q429 739 405 730L289 685L318 505Q325 461 296.5 441.5Q268 422 234.0 432.5Q200 443 193 488Z" transform="translate(-1.8190,14.8117) scale(0.011719,-0.011719)"/>
  </g>
</svg>
