<svg xmlns="http://www.w3.org/2000/svg" viewBox="0 0 10.2016 16.4648" width="14.8703" height="24.0000">
  <g fill="black" stroke="black" stroke-width="0.25">
    <path d="M277 53Q256 27 229.0 27.0Q202 27 181.0 43.5Q160 60 156.0 87.5Q152 115 178 145L363 367L390 489L503 347L498 331Q492 315 487.0 305.5Q482 296 468 278ZM726 72 594 341Q590 349 586.5 355.0Q583 361 574 372L447 532Q408 581 394.5 616.5Q381 652 386 703L394 830Q396 842 385.5 845.5Q375 849 366 841L329 807L315 646Q309 574 246 580Q216 582 199.0 602.0Q182 622 184 655L196 805Q199 838 209.0 861.0Q219 884 243 907L340 1002Q387 1047 427.0 1073.0Q467 1099 519 1099Q589 1099 628.0 1053.0Q667 1007 662 937L649 754Q646 705 638.0 668.5Q630 632 614 581L611 569L689 456Q700 441 709.5 426.0Q719 411 726 397L855 135Q872 99 861.0 72.5Q850 46 824.0 34.5Q798 23 770.0 31.0Q742 39 726 72ZM953 851Q986 851 1006.0 833.0Q1026 815 1026 786Q1026 756 1006.0 738.5Q986 721 953 721H818Q788 721 770.5 727.5Q753 734 735 749L722 763L734 937L811 851ZM600 1152Q542 1152 500.5 1193.0Q459 1234 459 1292Q459 1349 500.5 1390.5Q542 1432 600 1432Q658 1432 699.0 1390.5Q740 1349 740 1292Q740 1234 699.0 1193.0Q658 1152 600 1152Z" transform="translate(-1.8219,16.7812) scale(0.011719,-0.011719)"/>
  </g>
</svg>
