<svg xmlns="http://www.w3.org/2000/svg" viewBox="0 0 38.9766 35.3224" width="26.4829" height="24.0000">
  <g fill="black" stroke="black" stroke-width="0.25">
    <path d="M1001 1640Q959 1640 930.0 1671.0Q901 1702 901 1745Q901 1788 930.0 1819.0Q959 1850 1001 1850H1731Q1772 1850 1801.0 1819.0Q1830 1788 1830 1745Q1830 1702 1801.0 1671.0Q1772 1640 1731 1640ZM409 1000Q368 1000 339.5 1031.5Q311 1063 311 1105Q311 1148 339.5 1179.0Q368 1210 409 1210H1385Q1426 1210 1455.0 1179.0Q1484 1148 1484 1105Q1484 1062 1455.0 1031.0Q1426 1000 1385 1000ZM898 361Q858 361 828.5 392.0Q799 423 799 466Q799 508 828.5 539.0Q858 570 898 570H1419Q1460 570 1489.0 539.0Q1518 508 1518 466Q1518 423 1489.0 392.0Q1460 361 1419 361ZM483 -276Q441 -276 412.0 -245.0Q383 -214 383 -171Q383 -129 412.0 -98.0Q441 -67 483 -67H1229Q1270 -67 1299.0 -98.0Q1328 -129 1328 -171Q1328 -214 1299.0 -245.0Q1270 -276 1229 -276ZM2032 -729Q1996 -772 1950.0 -780.5Q1904 -789 1862.0 -770.5Q1820 -752 1794.0 -714.5Q1768 -677 1770.5 -628.5Q1773 -580 1817 -528L2215 -55L2273 218L2520 -92L2506 -131Q2492 -167 2482.0 -186.5Q2472 -206 2440 -244ZM3481 986Q3550 986 3593.5 947.0Q3637 908 3637 845Q3637 780 3594.5 741.5Q3552 703 3481 703H3190Q3125 703 3087.5 717.5Q3050 732 3013 766L2980 798L3005 1174L3178 986ZM2724 1629Q2641 1629 2572.5 1669.5Q2504 1710 2463.5 1778.5Q2423 1847 2423 1930Q2423 2013 2463.5 2081.5Q2504 2150 2572.5 2190.5Q2641 2231 2724 2231Q2806 2231 2874.5 2190.5Q2943 2150 2984.0 2081.5Q3025 2013 3025 1930Q3025 1847 2984.0 1778.5Q2943 1710 2874.5 1669.5Q2806 1629 2724 1629ZM1964 402Q1900 404 1863.0 449.0Q1826 494 1832 563L1857 884Q1863 955 1885.0 1005.5Q1907 1056 1959 1106L2167 1309Q2266 1406 2352.5 1461.0Q2439 1516 2552 1516Q2701 1516 2784.5 1417.5Q2868 1319 2858 1168L2830 775Q2826 705 2816.5 649.0Q2807 593 2791.5 535.5Q2776 478 2755 406L2747 379L2916 139Q2921 133 2925.5 126.5Q2930 120 2935 113L2756 -205L2709 -110Q2700 -92 2693.5 -79.5Q2687 -67 2668 -43L2394 301Q2338 371 2307.5 426.0Q2277 481 2266.5 537.0Q2256 593 2262 666L2282 937Q2285 962 2263.5 970.0Q2242 978 2224 961L2143 889L2114 545Q2108 474 2068.5 435.5Q2029 397 1964 402Z" transform="translate(-3.6445,26.1445) scale(0.011719,-0.011719)"/>
  </g>
</svg>
