<svg xmlns="http://www.w3.org/2000/svg" viewBox="0 0 16.4531 13.2891" width="29.7143" height="24.0000">
  <g fill="black" stroke="black" stroke-width="0.25">
    <path d="M1415 1017Q1362 1017 1325.5 1053.5Q1289 1090 1289 1142Q1289 1194 1325.5 1231.0Q1362 1268 1415 1268Q1466 1268 1502.0 1231.0Q1538 1194 1538 1142Q1538 1090 1502.0 1053.5Q1466 1017 1415 1017ZM1077 134Q952 134 857.5 188.0Q763 242 709.5 336.0Q656 430 656 550Q656 600 668.0 646.0Q680 692 701 732Q722 775 756.0 774.5Q790 774 810.5 748.0Q831 722 813 686Q778 626 778 550Q778 467 816.0 400.0Q854 333 921.5 294.5Q989 256 1077 256Q1160 256 1225.5 292.0Q1291 328 1329.0 389.5Q1367 451 1367 526Q1367 565 1325 577L1122 634Q1062 652 1038.0 703.0Q1014 754 1053 809L1142 938Q1157 960 1134 976L1027 1051L871 944Q844 926 820.0 931.5Q796 937 782.0 956.5Q768 976 771.5 1000.5Q775 1025 804 1044L994 1172Q1033 1197 1072 1170L1278 1028Q1382 954 1316 859L1262 779Q1250 765 1267 759L1354 730Q1489 685 1489 531Q1489 417 1436.0 327.5Q1383 238 1290.0 186.0Q1197 134 1077 134ZM1490 134Q1462 134 1442.5 153.5Q1423 173 1423 202Q1423 230 1442.5 250.0Q1462 270 1490 270Q1519 270 1539.5 250.0Q1560 230 1560 202Q1560 173 1539.5 153.5Q1519 134 1490 134ZM257 812Q236 812 223.0 827.0Q210 842 210 862Q210 881 223.0 896.5Q236 912 257 912H528Q549 912 563.5 897.5Q578 883 578 862Q578 841 563.5 826.5Q549 812 528 812ZM204 601Q185 601 170.5 615.0Q156 629 156 650Q156 669 170.5 684.5Q185 700 204 700H528Q549 700 563.5 685.5Q578 671 578 650Q578 629 563.5 615.0Q549 601 528 601ZM374 388Q327 388 327 439Q327 459 340.0 473.0Q353 487 374 487H528Q549 487 563.5 473.0Q578 459 578 439Q578 416 563.5 402.0Q549 388 528 388Z" transform="translate(-1.8281,14.8594) scale(0.011719,-0.011719)"/>
  </g>
</svg>
