<svg xmlns="http://www.w3.org/2000/svg" viewBox="0 0 8.3209 17.1680" width="11.6323" height="24.0000">
  <g fill="black" stroke="black" stroke-width="0.25">
    <path d="M156 1336 167 1110Q169 1078 181.5 1056.5Q194 1035 218 1017L359 915Q371 906 374.5 898.5Q378 891 378 876V22Q378 -8 399.0 -29.0Q420 -50 450 -50Q481 -50 501.0 -28.5Q521 -7 521 22V483Q521 499 539 499Q558 499 558 483V22Q558 -7 578.5 -28.5Q599 -50 628 -50Q658 -50 679.5 -29.0Q701 -8 701 22V776Q701 793 718 793Q735 793 735 776V529Q735 502 755.0 481.5Q775 461 802 461Q830 461 848.0 481.5Q866 502 866 529V805Q866 916 788.5 983.5Q711 1051 591 1051H451Q424 1051 404.5 1057.5Q385 1064 363 1079L300 1124L288 1343Q286 1371 265.5 1389.5Q245 1408 217 1406Q190 1404 172.5 1383.5Q155 1363 156 1336ZM539 1116Q602 1116 645.5 1159.5Q689 1203 689 1264Q689 1326 645.5 1370.5Q602 1415 539 1415Q478 1415 434.0 1370.5Q390 1326 390 1264Q390 1203 434.0 1159.5Q478 1116 539 1116Z" transform="translate(-1.8275,16.5820) scale(0.011719,-0.011719)"/>
  </g>
</svg>
