<svg xmlns="http://www.w3.org/2000/svg" viewBox="0 0 13.3477 15.1641" width="21.1252" height="24.0000">
  <g fill="black" stroke="black" stroke-width="0.25">
    <path d="M250 16Q290 16 316.0 43.0Q342 70 342 110V437Q361 443 388.5 447.5Q416 452 448 452Q526 452 593.5 436.0Q661 420 725.0 399.5Q789 379 858.0 363.0Q927 347 1007 347Q1076 347 1117.5 353.5Q1159 360 1198 379Q1295 426 1295 534V1131Q1295 1176 1267.5 1202.0Q1240 1228 1189 1228Q1156 1228 1113.5 1215.5Q1071 1203 1002 1203Q930 1203 865.5 1219.0Q801 1235 736.0 1256.5Q671 1278 599.5 1294.0Q528 1310 443 1310Q374 1310 333.5 1302.0Q293 1294 253 1276Q156 1234 156 1124V110Q156 71 184.5 43.5Q213 16 250 16Z" transform="translate(-1.8281,15.3516) scale(0.011719,-0.011719)"/>
  </g>
</svg>
