<svg xmlns="http://www.w3.org/2000/svg" viewBox="0 0 16.2891 12.8086" width="30.5215" height="24.0000">
  <g fill="black" stroke="black" stroke-width="0.25">
    <path d="M290 135H1411Q1472 135 1509.0 171.0Q1546 207 1546 266V1098Q1546 1157 1509.0 1192.5Q1472 1228 1411 1228H290Q230 1228 193.0 1192.5Q156 1157 156 1098V266Q156 207 193.0 171.0Q230 135 290 135ZM299 247Q262 247 262 283V354Q262 371 271.0 381.5Q280 392 299 392H380Q395 392 405.0 381.5Q415 371 415 354V283Q415 247 380 247ZM299 494Q280 494 271.0 504.5Q262 515 262 530V600Q262 636 299 636H380Q415 636 415 600V530Q415 515 405.0 504.5Q395 494 380 494ZM299 736Q280 736 271.0 745.5Q262 755 262 770V842Q262 877 299 877H380Q415 877 415 842V770Q415 755 405.0 745.5Q395 736 380 736ZM299 974Q280 974 271.0 984.5Q262 995 262 1009V1080Q262 1118 299 1118H380Q395 1118 405.0 1107.0Q415 1096 415 1080V1009Q415 995 405.0 984.5Q395 974 380 974ZM1323 247Q1287 247 1287 283V354Q1287 371 1297.0 381.5Q1307 392 1323 392H1405Q1422 392 1431.0 381.5Q1440 371 1440 354V283Q1440 247 1405 247ZM1323 494Q1307 494 1297.0 504.5Q1287 515 1287 530V600Q1287 636 1323 636H1405Q1440 636 1440 600V530Q1440 515 1431.0 504.5Q1422 494 1405 494ZM1323 736Q1307 736 1297.0 745.5Q1287 755 1287 770V842Q1287 877 1323 877H1405Q1440 877 1440 842V770Q1440 755 1431.0 745.5Q1422 736 1405 736ZM1323 974Q1307 974 1297.0 984.5Q1287 995 1287 1009V1080Q1287 1096 1297.0 1107.0Q1307 1118 1323 1118H1405Q1440 1118 1440 1080V1009Q1440 995 1431.0 984.5Q1422 974 1405 974ZM554 736Q536 736 527.0 746.0Q518 756 518 770V1080Q518 1118 554 1118H1150Q1166 1118 1175.0 1107.0Q1184 1096 1184 1080V770Q1184 756 1175.0 746.0Q1166 736 1150 736ZM554 247Q518 247 518 282V592Q518 629 554 629H1150Q1184 629 1184 592V282Q1184 247 1150 247Z" transform="translate(-1.8281,14.3906) scale(0.011719,-0.011719)"/>
  </g>
</svg>
