<svg xmlns="http://www.w3.org/2000/svg" viewBox="0 0 33.6732 33.1442" width="24.3830" height="24.0000">
  <g fill="black" stroke="black" stroke-width="0.25">
    <path d="M404 225Q362 212 325.5 232.0Q289 252 276 296Q251 385 237.5 464.5Q224 544 220.5 618.0Q217 692 221 766Q225 815 257.5 841.0Q290 867 336 861Q374 856 398.0 827.0Q422 798 421 757Q420 672 424.5 605.0Q429 538 440.0 477.5Q451 417 467 351Q476 308 458.5 272.5Q441 237 404 225ZM339 1009Q297 1024 280.5 1069.0Q264 1114 285 1168Q371 1389 505.0 1561.5Q639 1734 813.0 1853.0Q987 1972 1195.0 2034.0Q1403 2096 1638 2096Q1815 2096 1963.5 2063.5Q2112 2031 2262 1943Q2304 1918 2317.5 1884.0Q2331 1850 2314 1813Q2293 1769 2251.5 1766.0Q2210 1763 2159 1786Q2046 1840 1921.0 1868.5Q1796 1897 1638 1897Q1443 1897 1264.5 1841.0Q1086 1785 934.5 1678.0Q783 1571 666.0 1419.0Q549 1267 477 1076Q460 1032 422.0 1012.0Q384 992 339 1009ZM3000 514Q2959 514 2932.0 542.5Q2905 571 2900 615Q2871 935 2757.5 1165.0Q2644 1395 2450 1588Q2416 1622 2411.5 1661.0Q2407 1700 2435 1730Q2461 1762 2502.5 1766.0Q2544 1770 2577 1738Q2725 1599 2831.5 1441.5Q2938 1284 3003.0 1085.0Q3068 886 3092 621Q3095 577 3069.0 545.5Q3043 514 3000 514ZM521 -136Q499 -104 504.5 -66.5Q510 -29 540 2Q577 39 600.0 91.5Q623 144 623 207Q622 270 601.5 339.5Q581 409 561.0 492.5Q541 576 541 680Q541 906 627.0 1104.5Q713 1303 864.0 1454.0Q1015 1605 1213.5 1690.5Q1412 1776 1638 1776Q1898 1776 2111.5 1676.5Q2325 1577 2478.5 1392.0Q2632 1207 2715.0 950.0Q2798 693 2798 379Q2798 134 2761.5 -33.0Q2725 -200 2691 -290Q2676 -331 2633.5 -346.5Q2591 -362 2552 -343Q2516 -326 2503.5 -287.0Q2491 -248 2508 -209Q2539 -136 2569.0 9.5Q2599 155 2599 377Q2599 648 2530.5 868.5Q2462 1089 2335.0 1248.0Q2208 1407 2031.0 1492.5Q1854 1578 1638 1578Q1452 1578 1289.5 1508.0Q1127 1438 1003.5 1314.5Q880 1191 810.5 1028.0Q741 865 741 680Q741 604 752.0 544.5Q763 485 778.0 433.0Q793 381 804.5 326.5Q816 272 816 205Q816 96 778.0 2.0Q740 -92 669 -152Q634 -181 590.5 -176.0Q547 -171 521 -136ZM858 -380Q814 -403 774.0 -391.0Q734 -379 718 -341Q703 -306 715.5 -270.0Q728 -234 768 -206Q831 -161 871.5 -106.5Q912 -52 938 19Q953 60 988.0 80.0Q1023 100 1062 87Q1099 73 1117.0 36.0Q1135 -1 1122 -41Q1103 -103 1060.5 -171.5Q1018 -240 964.5 -296.5Q911 -353 858 -380ZM1132 376Q1146 333 1132.0 295.0Q1118 257 1079 241Q1033 224 993.5 240.5Q954 257 937 301Q911 371 886.0 470.5Q861 570 861 680Q861 840 922.0 980.5Q983 1121 1090.0 1228.0Q1197 1335 1337.5 1396.0Q1478 1457 1638 1457Q1739 1457 1821.5 1437.0Q1904 1417 1969 1379Q2011 1356 2022.0 1315.5Q2033 1275 2013 1238Q1997 1206 1963.5 1196.0Q1930 1186 1890 1204Q1840 1225 1806.0 1236.5Q1772 1248 1734.5 1252.5Q1697 1257 1638 1257Q1519 1257 1414.5 1212.0Q1310 1167 1231.0 1087.5Q1152 1008 1107.0 903.5Q1062 799 1062 680Q1062 584 1085.5 511.0Q1109 438 1132 376ZM2116 1011Q2089 1053 2096.5 1098.0Q2104 1143 2145 1163Q2181 1183 2222.5 1170.0Q2264 1157 2287 1117Q2339 1025 2382.5 920.5Q2426 816 2452.0 672.5Q2478 529 2478 320Q2478 144 2445.5 -25.5Q2413 -195 2353.5 -341.5Q2294 -488 2214 -597Q2188 -632 2143.0 -635.5Q2098 -639 2065 -608Q2037 -582 2036.0 -542.0Q2035 -502 2060 -469Q2128 -388 2178.0 -265.0Q2228 -142 2255.0 7.0Q2282 156 2282 316Q2282 539 2239.5 709.5Q2197 880 2116 1011ZM1129 -548Q1095 -577 1052.5 -573.0Q1010 -569 983 -531Q960 -497 966.5 -459.0Q973 -421 1006 -393Q1131 -292 1198.0 -135.0Q1265 22 1264 208Q1263 295 1243.5 382.0Q1224 469 1205.0 552.5Q1186 636 1186 712Q1186 836 1244.5 931.5Q1303 1027 1405.0 1081.0Q1507 1135 1638 1135Q1810 1135 1922.0 1039.5Q2034 944 2088.0 765.5Q2142 587 2143 339Q2144 127 2095.5 -76.0Q2047 -279 1963.0 -443.5Q1879 -608 1771 -705Q1738 -737 1693.5 -731.5Q1649 -726 1623 -689Q1602 -657 1608.5 -619.0Q1615 -581 1646 -555Q1744 -471 1816.0 -335.0Q1888 -199 1925.5 -29.0Q1963 141 1956 325Q1950 516 1915.0 653.0Q1880 790 1812.0 863.5Q1744 937 1638 937Q1522 937 1452.0 871.0Q1382 805 1382 696Q1382 637 1402.0 568.5Q1422 500 1442.5 412.0Q1463 324 1463 208Q1465 -21 1377.5 -220.0Q1290 -419 1129 -548ZM1434 -651Q1397 -677 1353.0 -670.5Q1309 -664 1287 -629Q1266 -596 1273.0 -557.0Q1280 -518 1312 -491Q1377 -436 1424.5 -369.5Q1472 -303 1509 -216Q1527 -175 1561.5 -155.0Q1596 -135 1641 -151Q1680 -164 1694.5 -203.5Q1709 -243 1693 -284Q1651 -396 1580.0 -495.5Q1509 -595 1434 -651ZM1786 77Q1779 32 1744.5 8.0Q1710 -16 1667 -9Q1624 -2 1604.0 31.5Q1584 65 1591 107Q1603 188 1603.5 269.5Q1604 351 1592.0 436.5Q1580 522 1553 616Q1541 658 1559.5 692.5Q1578 727 1618 739Q1659 752 1694.0 732.0Q1729 712 1744 666Q1774 567 1788.5 466.5Q1803 366 1802.0 267.5Q1801 169 1786 77Z" transform="translate(-2.5648,24.5625) scale(0.011719,-0.011719)"/>
  </g>
</svg>
