<svg xmlns="http://www.w3.org/2000/svg" viewBox="0 0 38.6484 34.2188" width="27.1068" height="24.0000">
  <g fill="black" stroke="black" stroke-width="0.25">
    <path d="M504 1214Q423 1214 372.0 1265.0Q321 1316 321 1397V1963Q321 2043 372.0 2093.5Q423 2144 504 2144H3415Q3495 2144 3546.0 2093.5Q3597 2043 3597 1963V1397Q3597 1316 3546.0 1265.0Q3495 1214 3415 1214ZM709 1572H3210Q3222 1572 3230.5 1580.5Q3239 1589 3239 1602V1755Q3239 1769 3230.5 1777.5Q3222 1786 3210 1786H709Q696 1786 688.0 1777.5Q680 1769 680 1755V1602Q680 1589 688.0 1580.5Q696 1572 709 1572ZM650 -580V1391H1008V-580ZM2912 -580V1391H3270V-580ZM1196 -580V880Q1196 958 1243.5 1004.5Q1291 1051 1369 1051H2551Q2629 1051 2676.5 1004.5Q2724 958 2724 880V-580H2488V765Q2488 817 2437 817H1483Q1432 817 1432 765V-580ZM507 -776Q426 -776 368.5 -718.5Q311 -661 311 -580Q311 -499 368.5 -441.5Q426 -384 507 -384H3413Q3494 -384 3551.5 -441.5Q3609 -499 3609 -580Q3609 -661 3551.5 -718.5Q3494 -776 3413 -776ZM1946 -281Q1796 -281 1703.5 -200.0Q1611 -119 1611 14Q1611 91 1628.5 142.5Q1646 194 1663.5 236.5Q1681 279 1681 331Q1681 343 1681.0 356.5Q1681 370 1681 377Q1681 408 1713 408Q1743 408 1772.0 386.0Q1801 364 1820 329Q1819 409 1787.0 463.5Q1755 518 1720 564Q1694 598 1712.0 622.0Q1730 646 1779 646Q1862 646 1957.0 615.0Q2052 584 2136.0 518.5Q2220 453 2273.5 350.0Q2327 247 2327 103Q2327 -69 2223.0 -175.0Q2119 -281 1946 -281ZM1960 -162Q2038 -162 2075.5 -113.0Q2113 -64 2113 1Q2113 59 2089.0 107.0Q2065 155 2030.0 186.5Q1995 218 1962 229Q1974 166 1964.0 121.5Q1954 77 1936 52Q1927 76 1916.0 92.5Q1905 109 1887 120Q1883 93 1867.5 71.5Q1852 50 1837.5 24.5Q1823 -1 1823 -39Q1823 -95 1861.0 -128.5Q1899 -162 1960 -162Z" transform="translate(-3.6445,25.1250) scale(0.011719,-0.011719)"/>
  </g>
</svg>
