<svg xmlns="http://www.w3.org/2000/svg" viewBox="0 0 39.3398 37.2188" width="25.3678" height="24.0000">
  <g fill="black" stroke="black" stroke-width="0.25">
    <path d="M1331 867Q1289 867 1260.5 895.0Q1232 923 1232 964V1022L1192 981Q1162 951 1121.5 952.5Q1081 954 1053 981Q1024 1010 1023.5 1050.0Q1023 1090 1053 1120L1093 1161H1034Q994 1161 965.0 1189.5Q936 1218 936 1259Q936 1300 965.0 1329.0Q994 1358 1034 1358H1092L1051 1399Q1022 1427 1022.5 1468.5Q1023 1510 1051 1538Q1081 1567 1121.0 1566.5Q1161 1566 1190 1538L1232 1497L1231 1553Q1229 1596 1259.5 1624.0Q1290 1652 1329 1652Q1372 1652 1400.0 1624.0Q1428 1596 1428 1555L1429 1497L1469 1538Q1498 1568 1539.0 1566.5Q1580 1565 1608 1538Q1636 1509 1637.0 1469.0Q1638 1429 1608 1399L1567 1358H1626Q1666 1358 1695.0 1329.0Q1724 1300 1724 1259Q1724 1218 1695.0 1189.5Q1666 1161 1626 1161H1569L1609 1120Q1638 1092 1637.5 1050.5Q1637 1009 1609 981Q1579 952 1539.5 952.5Q1500 953 1470 981L1428 1022L1430 965Q1431 923 1400.5 895.0Q1370 867 1331 867ZM1331 1765Q1283 1765 1249.0 1799.0Q1215 1833 1215 1881V2154Q1215 2202 1249.0 2236.0Q1283 2270 1331 2270Q1379 2270 1413.0 2236.0Q1447 2202 1447 2154V1881Q1447 1833 1413.0 1799.0Q1379 1765 1331 1765ZM1588 1697Q1547 1720 1533.5 1766.5Q1520 1813 1545 1855L1683 2090Q1707 2132 1753.0 2144.5Q1799 2157 1841 2132Q1881 2109 1894.5 2063.0Q1908 2017 1883 1974L1746 1739Q1722 1697 1675.5 1684.5Q1629 1672 1588 1697ZM1776 1508Q1752 1549 1765.0 1596.5Q1778 1644 1818 1667L2055 1802Q2095 1825 2142.0 1813.5Q2189 1802 2213 1760Q2237 1720 2224.0 1672.5Q2211 1625 2171 1602L1934 1466Q1894 1443 1847.0 1454.5Q1800 1466 1776 1508ZM1844 1252Q1844 1298 1879.0 1333.0Q1914 1368 1960 1368L2235 1366Q2281 1366 2315.5 1332.5Q2350 1299 2351 1250Q2350 1203 2315.5 1168.5Q2281 1134 2233 1134L1960 1136Q1914 1136 1879.0 1169.5Q1844 1203 1844 1252ZM1775 995Q1799 1036 1847.0 1048.0Q1895 1060 1934 1037L2171 899Q2210 876 2223.5 830.0Q2237 784 2213 740Q2189 701 2142.5 688.0Q2096 675 2053 700L1818 837Q1779 860 1765.5 905.5Q1752 951 1775 995ZM1588 807Q1629 830 1676.0 817.0Q1723 804 1746 764L1881 526Q1904 486 1893.5 439.5Q1883 393 1841 368Q1800 344 1752.0 357.5Q1704 371 1681 411L1545 648Q1522 688 1533.5 734.0Q1545 780 1588 807ZM1331 737Q1379 737 1413.0 703.0Q1447 669 1447 621V348Q1447 300 1413.0 266.0Q1379 232 1331 232Q1283 232 1249.0 266.0Q1215 300 1215 348V621Q1215 669 1249.0 703.0Q1283 737 1331 737ZM1074 805Q1115 782 1128.0 735.5Q1141 689 1116 647L979 411Q955 370 909.0 357.0Q863 344 821 369Q781 392 767.5 438.5Q754 485 779 528L916 763Q940 804 986.5 817.0Q1033 830 1074 805ZM886 993Q910 953 897.0 905.5Q884 858 844 835L607 700Q567 677 520.0 688.0Q473 699 449 742Q425 782 437.5 829.5Q450 877 491 900L728 1036Q768 1059 815.0 1047.5Q862 1036 886 993ZM818 1250Q818 1203 783.0 1168.5Q748 1134 702 1134L427 1136Q381 1136 346.5 1169.5Q312 1203 311 1252Q312 1298 346.5 1333.0Q381 1368 429 1368L702 1366Q748 1366 782.5 1332.5Q817 1299 818 1250ZM887 1507Q863 1466 815.0 1454.0Q767 1442 728 1465L491 1603Q452 1626 438.5 1672.0Q425 1718 449 1762Q473 1801 519.5 1814.0Q566 1827 608 1802L844 1665Q883 1642 896.5 1596.0Q910 1550 887 1507ZM1074 1695Q1033 1671 986.0 1684.5Q939 1698 916 1737L780 1976Q757 2017 768.5 2063.0Q780 2109 821 2134Q862 2157 909.5 2144.0Q957 2131 981 2090L1116 1853Q1139 1813 1128.0 1767.0Q1117 1721 1074 1695ZM2961 -406Q2924 -406 2899.0 -380.5Q2874 -355 2874 -319V-205L2825 -254Q2798 -281 2763.0 -281.0Q2728 -281 2703 -254Q2676 -229 2676.0 -194.0Q2676 -159 2703 -132L2751 -83H2638Q2601 -83 2576.0 -57.5Q2551 -32 2551 4Q2551 40 2576.0 65.5Q2601 91 2638 91H2753L2702 140Q2677 166 2676.5 201.5Q2676 237 2702 262Q2728 289 2763.5 288.5Q2799 288 2825 262L2874 212V327Q2874 363 2899.0 388.5Q2924 414 2961 414Q2997 414 3022.0 388.5Q3047 363 3047 327V213L3097 262Q3122 288 3158.0 288.5Q3194 289 3219 262Q3245 237 3245.0 201.5Q3245 166 3219 140L3168 91H3284Q3320 91 3345.0 65.5Q3370 40 3370 4Q3370 -32 3345.0 -57.5Q3320 -83 3284 -83H3171L3219 -132Q3245 -159 3245.0 -194.0Q3245 -229 3219 -254Q3194 -281 3158.5 -280.5Q3123 -280 3097 -254L3047 -206V-319Q3047 -355 3022.0 -380.5Q2997 -406 2961 -406ZM2961 484Q2914 484 2881.0 518.0Q2848 552 2848 598Q2848 645 2881.0 678.0Q2914 711 2961 711Q3008 711 3040.5 678.0Q3073 645 3073 598Q3073 552 3040.5 518.0Q3008 484 2961 484ZM3360 301Q3317 301 3286.5 332.0Q3256 363 3256 406Q3256 449 3286.5 479.5Q3317 510 3360 510Q3403 510 3434.0 479.5Q3465 449 3465 406Q3465 363 3434.0 332.0Q3403 301 3360 301ZM3555 -109Q3508 -109 3475.0 -76.0Q3442 -43 3442 4Q3442 51 3475.0 84.0Q3508 117 3555 117Q3602 117 3635.0 84.0Q3668 51 3668 4Q3668 -43 3635.0 -76.0Q3602 -109 3555 -109ZM3360 -502Q3317 -502 3286.5 -471.5Q3256 -441 3256 -398Q3256 -355 3286.5 -324.0Q3317 -293 3360 -293Q3403 -293 3434.0 -324.0Q3465 -355 3465 -398Q3465 -441 3434.0 -471.5Q3403 -502 3360 -502ZM2961 -703Q2914 -703 2881.0 -670.5Q2848 -638 2848 -590Q2848 -544 2881.0 -510.0Q2914 -476 2961 -476Q3008 -476 3040.5 -510.0Q3073 -544 3073 -590Q3073 -638 3040.5 -670.5Q3008 -703 2961 -703ZM2561 -502Q2518 -502 2487.0 -471.5Q2456 -441 2456 -398Q2456 -355 2487.0 -324.0Q2518 -293 2561 -293Q2605 -293 2635.0 -324.0Q2665 -355 2665 -398Q2665 -441 2635.0 -471.5Q2605 -502 2561 -502ZM2366 -109Q2319 -109 2286.5 -76.0Q2254 -43 2254 4Q2254 51 2286.5 84.0Q2319 117 2366 117Q2413 117 2446.5 84.0Q2480 51 2479 4Q2480 -43 2446.5 -76.0Q2413 -109 2366 -109ZM2561 301Q2518 301 2487.0 332.0Q2456 363 2456 406Q2456 449 2487.0 479.5Q2518 510 2561 510Q2605 510 2635.0 479.5Q2665 449 2665 406Q2665 363 2635.0 332.0Q2605 301 2561 301ZM3130 1024Q3073 1024 3067 1081Q3051 1195 3035.5 1257.5Q3020 1320 2987.0 1351.0Q2954 1382 2888.0 1399.5Q2822 1417 2705 1440Q2649 1451 2649 1503Q2649 1528 2665.5 1546.0Q2682 1564 2706 1567Q2821 1583 2887.0 1598.0Q2953 1613 2986.0 1645.0Q3019 1677 3035.0 1742.5Q3051 1808 3067 1925Q3073 1982 3130 1982Q3185 1982 3193 1924Q3208 1811 3223.0 1748.5Q3238 1686 3270.5 1655.5Q3303 1625 3370.0 1608.0Q3437 1591 3556 1567Q3580 1562 3595.5 1545.0Q3611 1528 3611 1503Q3611 1449 3550 1440Q3434 1423 3369.0 1407.0Q3304 1391 3271.5 1359.0Q3239 1327 3224.0 1262.5Q3209 1198 3193 1084Q3186 1024 3130 1024ZM1777 -906Q1757 -906 1744.0 -893.0Q1731 -880 1728 -862Q1713 -777 1701.0 -729.5Q1689 -682 1665.5 -657.5Q1642 -633 1592.0 -619.0Q1542 -605 1452 -588Q1408 -579 1408 -538Q1408 -497 1453 -490Q1543 -475 1594.0 -462.5Q1645 -450 1669.5 -426.0Q1694 -402 1705.5 -353.0Q1717 -304 1728 -216Q1730 -197 1743.5 -183.5Q1757 -170 1777 -170Q1819 -170 1826 -217Q1839 -301 1851.0 -348.0Q1863 -395 1887.5 -419.0Q1912 -443 1962.0 -457.0Q2012 -471 2103 -490Q2145 -497 2145 -538Q2145 -579 2098 -588Q2010 -603 1960.0 -616.0Q1910 -629 1885.0 -653.0Q1860 -677 1848.5 -725.0Q1837 -773 1826 -860Q1824 -879 1811.0 -892.5Q1798 -906 1777 -906ZM1065 -517Q1030 -517 1025 -481Q1013 -412 1003.0 -373.5Q993 -335 973.5 -315.0Q954 -295 914.0 -283.5Q874 -272 801 -257Q766 -250 766 -217Q766 -181 802 -178Q875 -166 916.0 -156.0Q957 -146 977.0 -126.5Q997 -107 1006.5 -67.0Q1016 -27 1025 45Q1030 82 1065 82Q1099 82 1105 45Q1116 -24 1125.0 -62.5Q1134 -101 1154.0 -120.5Q1174 -140 1214.5 -151.5Q1255 -163 1329 -178Q1365 -183 1365 -217Q1365 -250 1327 -257Q1255 -270 1214.0 -280.5Q1173 -291 1153.0 -311.0Q1133 -331 1123.5 -370.0Q1114 -409 1105 -480Q1101 -517 1065 -517Z" transform="translate(-3.6445,26.6016) scale(0.011719,-0.011719)"/>
  </g>
</svg>
