<svg xmlns="http://www.w3.org/2000/svg" viewBox="0 0 16.9653 13.2790" width="30.6624" height="24.0000">
  <g fill="black" stroke="black" stroke-width="0.25">
    <path d="M158 394Q150 472 179.5 550.5Q209 629 261 683Q209 738 179.5 816.0Q150 894 158 973Q160 998 176.5 1012.0Q193 1026 219 1025Q309 1024 387.0 984.5Q465 945 531 872Q582 921 637.0 955.0Q692 989 751 1011Q745 1040 732.0 1066.0Q719 1092 691 1129Q651 1183 703 1209Q778 1251 862.5 1255.5Q947 1260 1026.0 1231.5Q1105 1203 1164.5 1146.5Q1224 1090 1249 1010Q1342 979 1423.0 930.5Q1504 882 1554.0 819.5Q1604 757 1604 683Q1604 610 1554.0 547.5Q1504 485 1423.0 436.5Q1342 388 1249 356Q1192 272 1092.0 206.0Q992 140 894 125Q846 117 822.5 140.5Q799 164 804 205L820 334Q742 355 669.5 394.0Q597 433 531 493Q465 421 387.0 382.0Q309 343 219 341Q193 341 176.5 355.0Q160 369 158 394ZM1310 645Q1336 645 1353.5 663.5Q1371 682 1371 708Q1371 733 1353.5 751.0Q1336 769 1310 769Q1285 769 1266.5 751.0Q1248 733 1248 708Q1248 682 1266.5 663.5Q1285 645 1310 645Z" transform="translate(-1.8316,14.7201) scale(0.011719,-0.011719)"/>
  </g>
</svg>
