<svg xmlns="http://www.w3.org/2000/svg" viewBox="0 0 19.1735 11.2449" width="40.9223" height="24.0000">
  <g fill="black" stroke="black" stroke-width="0.25">
    <path d="M1214 217Q1194 203 1170.5 209.5Q1147 216 1134 239L870 696Q855 690 839.5 683.5Q824 677 807 665Q757 637 721.0 598.0Q685 559 646.5 518.0Q608 477 549 443Q524 428 495.0 416.5Q466 405 433 405Q372 405 339 462L167 756Q149 788 159.0 816.0Q169 844 195 858Q210 867 238.0 877.5Q266 888 301 908Q351 936 387.0 975.0Q423 1014 461.5 1054.5Q500 1095 559 1130Q584 1144 611.5 1155.5Q639 1167 662 1167Q691 1167 718.5 1155.5Q746 1144 766 1109L1236 299Q1249 278 1242.5 253.5Q1236 229 1214 217ZM1514 405Q1481 405 1452.0 416.5Q1423 428 1398 443Q1355 468 1322.0 499.0Q1289 530 1259.5 562.0Q1230 594 1199.0 622.5Q1168 651 1128 672L1028 845L1181 1109Q1201 1144 1228.5 1155.5Q1256 1167 1285 1167Q1308 1167 1335.5 1155.5Q1363 1144 1388 1130Q1447 1095 1485.5 1054.5Q1524 1014 1560.0 975.0Q1596 936 1646 908Q1681 888 1708.5 877.5Q1736 867 1752 858Q1778 844 1788.0 816.0Q1798 788 1780 756L1608 462Q1575 405 1514 405ZM733 217Q710 229 704.0 253.5Q698 278 711 299L852 541L921 423L813 239Q800 216 776.5 209.5Q753 203 733 217Z" transform="translate(-1.8214,13.6758) scale(0.011719,-0.011719)"/>
  </g>
</svg>
