<svg xmlns="http://www.w3.org/2000/svg" viewBox="0 0 12.3516 15.6445" width="18.9483" height="24.0000">
  <g fill="black" stroke="black" stroke-width="0.25">
    <path d="M653 3Q504 3 392.5 57.5Q281 112 218.5 209.5Q156 307 156 437Q156 523 172.0 580.0Q188 637 209.0 679.0Q230 721 245.5 761.0Q261 801 261 854Q261 883 259.5 902.0Q258 921 258 940Q258 1010 323 1010Q348 1010 373.0 998.0Q398 986 422.5 956.0Q447 926 469 873L449 866Q453 875 453.5 881.5Q454 888 454 895Q454 973 415.5 1038.0Q377 1103 317 1177Q290 1210 290 1244Q290 1289 326.0 1313.5Q362 1338 420 1338Q515 1338 623.0 1309.5Q731 1281 835.0 1222.0Q939 1163 1024.0 1071.0Q1109 979 1159.5 852.0Q1210 725 1210 561Q1210 394 1140.5 268.5Q1071 143 946.0 73.0Q821 3 653 3ZM671 233Q766 233 820.5 292.0Q875 351 875 441Q875 536 824.0 617.5Q773 699 681 737Q671 741 663.5 736.0Q656 731 659 719Q668 663 665.5 611.0Q663 559 642 517Q632 546 620.5 568.5Q609 591 592 608Q584 616 575.5 612.0Q567 608 567 598Q562 557 543.0 529.0Q524 501 507.0 471.0Q490 441 490 392Q490 321 540.0 277.0Q590 233 671 233Z" transform="translate(-1.8281,15.6797) scale(0.011719,-0.011719)"/>
  </g>
</svg>
