<svg xmlns="http://www.w3.org/2000/svg" viewBox="0 0 7.3828 17.2031" width="10.2997" height="24.0000">
  <g fill="black" stroke="black" stroke-width="0.25">
    <path d="M156 1266V1279Q156 1418 291 1418H651Q786 1418 786 1279V1266ZM414 -50Q348 -50 313.0 -15.5Q278 19 278 87V795Q278 843 268.5 876.5Q259 910 242 936L208 990Q185 1025 170.5 1060.0Q156 1095 156 1138V1174H786V1138Q786 1095 771.5 1060.0Q757 1025 735 990L701 936Q683 910 673.5 876.5Q664 843 664 795V87Q664 19 629.5 -15.5Q595 -50 528 -50ZM355 743V538Q355 489 389.0 455.5Q423 422 472 422Q520 422 554.0 455.5Q588 489 588 538V743Q588 792 554.0 825.5Q520 859 472 859Q423 859 389.0 825.5Q355 792 355 743ZM472 462Q439 462 417.5 484.0Q396 506 396 538Q396 569 417.5 591.0Q439 613 472 613Q503 613 525.0 591.0Q547 569 547 538Q547 506 525.5 484.0Q504 462 472 462Z" transform="translate(-1.8281,16.6172) scale(0.011719,-0.011719)"/>
  </g>
</svg>
