<svg xmlns="http://www.w3.org/2000/svg" viewBox="0 0 30.2344 33.0703" width="21.9419" height="24.0000">
  <g fill="black" stroke="black" stroke-width="0.25">
    <path d="M629 -725Q516 -725 430.5 -673.0Q345 -621 297.5 -534.0Q250 -447 250 -344Q250 -296 264.0 -245.0Q278 -194 308 -146L1021 1044L1276 825L635 -248Q628 -260 626.5 -273.5Q625 -287 625 -296Q625 -333 650.5 -362.0Q676 -391 717 -391H2363Q2404 -391 2429.5 -362.0Q2455 -333 2455 -296Q2455 -287 2453.5 -273.5Q2452 -260 2445 -248L1804 825L2059 1044L2769 -140Q2800 -191 2815.0 -243.5Q2830 -296 2830 -344Q2830 -447 2782.5 -534.0Q2735 -621 2649.5 -673.0Q2564 -725 2451 -725ZM941 825V1935H1276V825ZM2139 825H1804V1935H2139ZM998 1753Q924 1753 874.5 1803.0Q825 1853 825 1925Q825 1998 874.0 2047.5Q923 2097 998 2097H2083Q2157 2097 2206.0 2047.5Q2255 1998 2255 1925Q2255 1853 2205.5 1803.0Q2156 1753 2083 1753ZM1127 1400V1582H1489Q1528 1582 1554.5 1556.0Q1581 1530 1581 1493Q1581 1453 1555.0 1426.5Q1529 1400 1489 1400ZM1128 1074V1256H1489Q1528 1256 1554.5 1230.0Q1581 1204 1581 1167Q1581 1128 1555.0 1101.0Q1529 1074 1490 1074ZM1128 748V931H1490Q1529 931 1555.0 905.0Q1581 879 1581 842Q1581 802 1555.0 775.0Q1529 748 1490 748Z" transform="translate(-2.9297,24.5742) scale(0.011719,-0.011719)"/>
  </g>
</svg>
