<svg xmlns="http://www.w3.org/2000/svg" viewBox="0 0 17.7918 16.3242" width="26.1576" height="24.0000">
  <g fill="black" stroke="black" stroke-width="0.25">
    <path d="M163 401Q205 282 289.5 184.5Q374 87 490.0 20.0Q606 -47 741 -75Q737 -62 733.5 -47.5Q730 -33 730 -19V308Q637 399 510.0 450.5Q383 502 232 502Q185 502 166.0 473.0Q147 444 163 401ZM478 1022Q478 910 522.5 818.5Q567 727 647.5 666.5Q728 606 836 589V-19Q836 -50 859.0 -72.5Q882 -95 916 -95Q1084 -95 1236.0 -31.5Q1388 32 1501.5 144.0Q1615 256 1666 401Q1683 444 1663.5 473.0Q1644 502 1598 502Q1466 502 1352.0 463.0Q1238 424 1148.0 353.5Q1058 283 996 188V589Q1103 606 1183.5 666.5Q1264 727 1308.5 818.5Q1353 910 1353 1022Q1353 1077 1343.5 1132.0Q1334 1187 1308 1241Q1289 1276 1252.0 1282.5Q1215 1289 1186 1259L1073 1142L974 1268Q952 1298 916.5 1298.0Q881 1298 858 1268L761 1142L646 1259Q617 1289 580.5 1283.0Q544 1277 526 1241Q499 1186 488.5 1131.0Q478 1076 478 1022Z" transform="translate(-1.8244,15.2109) scale(0.011719,-0.011719)"/>
  </g>
</svg>
