<svg xmlns="http://www.w3.org/2000/svg" viewBox="0 0 17.8262 17.6719" width="24.2096" height="24.0000">
  <g fill="black" stroke="black" stroke-width="0.25">
    <path d="M267 810Q344 833 419.5 843.5Q495 854 570 854Q631 854 685.5 849.0Q740 844 794.5 839.5Q849 835 909 835Q1013 835 1081.0 901.0Q1149 967 1149 1068Q1149 1169 1081.5 1235.0Q1014 1301 916 1301Q852 1301 796.5 1265.5Q741 1230 711 1174Q695 1144 700.5 1112.0Q706 1080 736 1062Q768 1044 802.0 1054.0Q836 1064 854 1100Q864 1116 881.0 1126.0Q898 1136 916 1136Q947 1136 965.5 1118.0Q984 1100 984 1068Q984 1035 964.5 1017.5Q945 1000 909 1000Q854 1000 800.5 1004.5Q747 1009 691.0 1014.0Q635 1019 570 1019Q485 1019 396.5 1006.0Q308 993 222 969Q185 960 167.0 930.0Q149 900 160 868Q170 832 200.5 816.0Q231 800 267 810ZM1366 450Q1456 450 1526.5 487.0Q1597 524 1637.0 588.5Q1677 653 1677 735Q1677 816 1639.5 879.5Q1602 943 1538.5 980.0Q1475 1017 1396 1017Q1304 1017 1230.0 964.0Q1156 911 1129 826Q1117 791 1130.5 760.0Q1144 729 1176 718Q1208 705 1241.0 721.5Q1274 738 1287 776Q1299 810 1329.5 831.0Q1360 852 1396 852Q1447 852 1480.0 820.0Q1513 788 1513 735Q1513 679 1473.5 646.5Q1434 614 1366 614Q1288 614 1204.5 632.5Q1121 651 1030.5 675.0Q940 699 842.0 717.5Q744 736 638 736Q530 736 424.5 719.5Q319 703 219 672Q185 659 167.0 630.0Q149 601 160 569Q171 533 202.0 516.5Q233 500 272 514Q358 544 448.5 558.0Q539 572 638 572Q740 572 832.0 553.5Q924 535 1011.5 511.0Q1099 487 1186.0 468.5Q1273 450 1366 450ZM909 -71Q1006 -71 1071.5 -5.5Q1137 60 1137 159Q1137 301 999.5 377.0Q862 453 613 453Q518 453 415.0 435.5Q312 418 219 389Q185 376 167.0 346.5Q149 317 160 286Q171 250 202.0 234.0Q233 218 272 231Q351 259 437.0 273.5Q523 288 613 288Q786 288 878.5 252.5Q971 217 971 159Q971 127 954.0 110.5Q937 94 909 94Q885 94 870.0 107.0Q855 120 845 148Q831 181 801.0 194.5Q771 208 738 195Q703 183 691.5 150.5Q680 118 695 83Q719 17 776.0 -27.0Q833 -71 909 -71ZM1396 1092Q1417 1092 1429.0 1108.0Q1441 1124 1438 1145L1427 1209L1480 1167Q1496 1154 1514.5 1157.0Q1533 1160 1543 1178Q1555 1195 1547.5 1215.0Q1540 1235 1519 1243L1462 1264L1520 1289Q1540 1296 1547.0 1315.0Q1554 1334 1543 1351Q1534 1368 1514.5 1371.0Q1495 1374 1480 1360L1427 1322L1438 1383Q1441 1405 1429.0 1421.0Q1417 1437 1396 1437Q1374 1437 1361.5 1421.0Q1349 1405 1353 1383L1361 1322L1312 1361Q1296 1375 1276.0 1371.5Q1256 1368 1248 1351Q1236 1335 1243.0 1316.0Q1250 1297 1271 1288L1329 1266L1270 1242Q1250 1233 1243.0 1214.0Q1236 1195 1247 1176Q1257 1159 1276.5 1156.5Q1296 1154 1312 1167L1361 1208L1353 1145Q1349 1124 1361.5 1108.0Q1374 1092 1396 1092ZM1387 19Q1408 19 1420.0 35.0Q1432 51 1429 72L1418 136L1471 95Q1487 82 1505.5 84.5Q1524 87 1534 103Q1546 121 1538.5 141.5Q1531 162 1510 170L1453 191L1511 214Q1531 223 1538.0 241.5Q1545 260 1534 279Q1525 295 1505.5 298.0Q1486 301 1471 288L1418 249L1429 310Q1432 332 1420.0 348.5Q1408 365 1387 365Q1365 365 1352.5 348.5Q1340 332 1344 311L1352 249L1303 289Q1287 301 1267.0 298.5Q1247 296 1239 279Q1228 261 1234.5 242.5Q1241 224 1262 214L1320 192L1261 168Q1241 161 1234.0 141.5Q1227 122 1238 103Q1248 86 1267.5 84.0Q1287 82 1303 95L1352 135L1344 72Q1341 51 1353.0 35.0Q1365 19 1387 19Z" transform="translate(-1.8261,16.8398) scale(0.011719,-0.011719)"/>
  </g>
</svg>
