<svg xmlns="http://www.w3.org/2000/svg" viewBox="0 0 15.7734 13.5469" width="27.9446" height="24.0000">
  <g fill="black" stroke="black" stroke-width="0.25">
    <path d="M370 120H1295Q1393 120 1447.5 175.5Q1502 231 1502 332V957Q1502 1059 1446.5 1114.0Q1391 1169 1288 1169H814Q779 1169 755.0 1178.5Q731 1188 702 1209L673 1228Q637 1252 608.0 1264.0Q579 1276 527 1276H365Q268 1276 212.0 1219.5Q156 1163 156 1061V332Q156 231 211.5 175.5Q267 120 370 120ZM282 901V943Q282 974 302.5 993.0Q323 1012 356 1012H1301Q1335 1012 1355.5 993.0Q1376 974 1376 943V901Z" transform="translate(-1.8281,14.9531) scale(0.011719,-0.011719)"/>
  </g>
</svg>
