<svg xmlns="http://www.w3.org/2000/svg" viewBox="0 0 14.2337 14.2407" width="23.9883" height="24.0000">
  <g fill="black" stroke="black" stroke-width="0.25">
    <path d="M307 101Q449 61 601 84L164 521Q153 445 157.5 370.5Q162 296 181 228Q199 172 225.5 145.5Q252 119 307 101ZM1109 339Q1182 409 1234.0 492.5Q1286 576 1318 665L745 1239Q656 1206 572.5 1154.0Q489 1102 418 1029Q345 958 292.5 874.5Q240 791 208 703L783 128Q871 161 954.5 213.0Q1038 265 1109 339ZM695 418Q667 392 638 418L498 558Q487 570 486.5 586.5Q486 603 498 615Q511 627 527.5 627.0Q544 627 556 615L596 574L623 601L582 641Q569 653 569.0 670.0Q569 687 582 700Q593 711 610.5 711.0Q628 711 640 700L681 657L706 684L665 725Q654 737 653.5 753.0Q653 769 665 782Q678 794 694.0 794.0Q710 794 723 782L764 741L791 768L749 810Q737 821 737.0 838.0Q737 855 749 866Q761 879 778.0 879.0Q795 879 806 866L847 826L874 851L832 893Q821 904 821.0 921.0Q821 938 832 950Q845 961 861.5 961.5Q878 962 890 950L1029 812Q1042 799 1041.5 782.0Q1041 765 1029 754Q1018 741 1001.0 741.0Q984 741 972 754L931 794L905 768L946 727Q959 715 959.0 698.0Q959 681 946 669Q934 657 917.5 657.5Q901 658 889 669L847 711L821 684L862 643Q874 630 873.5 614.0Q873 598 862 586Q849 574 833.0 574.0Q817 574 804 586L764 626L736 601L779 560Q791 548 791.0 531.0Q791 514 779 502Q767 490 750.0 490.0Q733 490 721 502L681 543L654 517L695 476Q707 464 707.0 447.5Q707 431 695 418ZM1345 1139Q1327 1195 1300.5 1221.0Q1274 1247 1219 1265Q1151 1285 1076.5 1289.5Q1002 1294 925 1283L1363 845Q1385 1000 1345 1139Z" transform="translate(-1.8304,15.1266) scale(0.011719,-0.011719)"/>
  </g>
</svg>
