<svg xmlns="http://www.w3.org/2000/svg" viewBox="0 0 11.6122 35.8242" width="7.7794" height="24.0000">
  <g fill="black" stroke="black" stroke-width="0.25">
    <path d="M964 -753Q871 -753 816.0 -702.5Q761 -652 763 -565L790 862Q791 915 778.0 938.0Q765 961 729 978Q636 1021 576.0 1073.5Q516 1126 489.0 1208.5Q462 1291 469 1425L506 2168Q510 2221 539.0 2252.0Q568 2283 616 2283Q665 2283 691.5 2251.0Q718 2219 717 2165L706 1448Q705 1411 723.5 1390.0Q742 1369 773 1369Q806 1369 825.0 1389.5Q844 1410 844 1445L858 2191Q859 2243 887.5 2273.5Q916 2304 964 2304Q1012 2304 1040.0 2273.5Q1068 2243 1069 2191L1083 1445Q1084 1409 1102.0 1389.0Q1120 1369 1154 1369Q1185 1369 1203.0 1390.0Q1221 1411 1221 1448L1210 2165Q1209 2219 1236.0 2251.0Q1263 2283 1311 2283Q1360 2283 1388.5 2252.5Q1417 2222 1420 2168L1457 1425Q1464 1291 1437.5 1208.5Q1411 1126 1351.0 1073.5Q1291 1021 1199 978Q1162 961 1149.5 938.0Q1137 915 1138 862L1163 -565Q1164 -652 1111.0 -702.5Q1058 -753 964 -753Z" transform="translate(-5.4792,27.0000) scale(0.011719,-0.011719)"/>
  </g>
</svg>
