<svg xmlns="http://www.w3.org/2000/svg" viewBox="0 0 9.7701 16.5352" width="14.1808" height="24.0000">
  <g fill="black" stroke="black" stroke-width="0.25">
    <path d="M382 -24Q341 -24 315.5 -1.0Q290 22 291 62L304 727Q304 761 275 776Q211 805 181.0 846.5Q151 888 156 980L172 1324Q175 1378 223 1378Q270 1378 270 1323L264 990Q264 953 295 953Q310 953 319.5 962.5Q329 972 329 988L334 1335Q334 1387 382 1387Q431 1387 431 1335L436 988Q436 972 445.5 962.5Q455 953 470 953Q502 953 502 990L497 1323Q497 1378 543 1378Q589 1378 592 1324L610 980Q615 888 584.5 846.5Q554 805 490 776Q463 761 463 727L474 62Q476 23 451.0 -0.5Q426 -24 382 -24ZM815 486Q816 533 784 553L764 566Q733 585 721.0 609.0Q709 633 709 667V707Q709 818 732.0 940.5Q755 1063 794.0 1171.0Q833 1279 881 1345Q910 1387 942 1387Q962 1387 975.5 1373.5Q989 1360 989 1337V61Q989 22 965.0 -1.0Q941 -24 897 -24Q855 -24 829.5 -1.0Q804 22 805 62Z" transform="translate(-1.8198,16.2539) scale(0.011719,-0.011719)"/>
  </g>
</svg>
