<svg xmlns="http://www.w3.org/2000/svg" viewBox="0 0 38.5312 31.9922" width="28.9055" height="24.0000">
  <g fill="black" stroke="black" stroke-width="0.25">
    <path d="M507 -683Q426 -683 368.5 -625.5Q311 -568 311 -487V1638Q311 1829 420.5 1938.0Q530 2047 722 2047H3189Q3381 2047 3490.0 1938.0Q3599 1829 3599 1638V-487Q3599 -568 3541.5 -625.5Q3484 -683 3403 -683Q3322 -683 3264.5 -625.5Q3207 -568 3207 -487V1583Q3207 1616 3188.0 1635.5Q3169 1655 3136 1655H775Q742 1655 722.5 1635.5Q703 1616 703 1583V-487Q703 -568 645.5 -625.5Q588 -683 507 -683ZM859 -562V1469Q859 1496 877.0 1507.0Q895 1518 927 1511L1620 1363Q1669 1353 1669 1306V-400Q1669 -447 1620 -457L927 -605Q895 -612 877.0 -601.0Q859 -590 859 -562ZM1452 72 1077 43Q1025 38 1025 -13V-346Q1025 -399 1077 -390L1452 -321Q1504 -312 1504 -262V21Q1504 46 1489.5 60.0Q1475 74 1452 72ZM1025 269Q1025 216 1077 218L1452 239Q1504 242 1504 296V608Q1504 662 1452 664L1077 686Q1025 688 1025 634ZM1451 832Q1475 830 1489.5 845.0Q1504 860 1504 886V1168Q1504 1218 1454 1228L1077 1296Q1054 1301 1039.5 1289.0Q1025 1277 1025 1252V914Q1025 865 1077 861ZM3051 -562Q3051 -590 3033.0 -601.0Q3015 -612 2984 -605L2290 -457Q2242 -447 2242 -400V1306Q2242 1353 2290 1363L2984 1511Q3015 1518 3033.0 1507.0Q3051 1496 3051 1469ZM2458 72Q2435 74 2420.5 60.0Q2406 46 2406 21V-262Q2406 -312 2458 -321L2833 -390Q2886 -399 2886 -346V-13Q2886 38 2833 43ZM2886 269V634Q2886 688 2833 686L2458 664Q2406 662 2406 608V296Q2406 242 2458 239L2833 218Q2886 216 2886 269ZM2459 832 2833 861Q2886 865 2886 914V1252Q2886 1277 2871.5 1289.0Q2857 1301 2833 1296L2456 1228Q2406 1218 2406 1168V886Q2406 860 2420.5 845.0Q2435 830 2459 832Z" transform="translate(-3.6445,23.9883) scale(0.011719,-0.011719)"/>
  </g>
</svg>
