<svg xmlns="http://www.w3.org/2000/svg" viewBox="0 0 24.2344 35.4023" width="16.4290" height="24.0000">
  <g fill="black" stroke="black" stroke-width="0.25">
    <path d="M682 -828Q573 -828 489.5 -779.5Q406 -731 358.5 -645.5Q311 -560 311 -449V1814Q311 1925 358.5 2010.5Q406 2096 489.5 2144.5Q573 2193 682 2193H2007Q2116 2193 2200.0 2144.5Q2284 2096 2331.5 2010.5Q2379 1925 2379 1814V-449Q2379 -560 2331.5 -645.5Q2284 -731 2200.0 -779.5Q2116 -828 2007 -828ZM729 -469H1972Q1994 -469 2007.0 -456.5Q2020 -444 2020 -423V1788Q2020 1809 2007.0 1821.5Q1994 1834 1972 1834H729Q703 1834 687.0 1818.5Q671 1803 671 1777V-412Q671 -438 687.0 -453.5Q703 -469 729 -469ZM920 1234Q879 1234 851.0 1261.5Q823 1289 823 1332V1613Q823 1655 851.0 1682.5Q879 1710 920 1710Q963 1710 991.0 1682.5Q1019 1655 1019 1613V1332Q1019 1289 991.0 1261.5Q963 1234 920 1234ZM590 896V1106H2127V896ZM920 336Q879 336 851.0 363.5Q823 391 823 433V714Q823 757 851.0 785.0Q879 813 920 813Q963 813 991.0 785.0Q1019 757 1019 714V433Q1019 391 991.0 363.5Q963 336 920 336ZM590 -305V-95H2127V-305Z" transform="translate(-3.6445,25.6992) scale(0.011719,-0.011719)"/>
  </g>
</svg>
