<svg xmlns="http://www.w3.org/2000/svg" viewBox="0 0 16.5586 10.5703" width="37.5965" height="24.0000">
  <g fill="black" stroke="black" stroke-width="0.25">
    <path d="M352 303Q268 303 212.0 355.0Q156 407 156 502Q156 544 163.5 589.0Q171 634 185 682Q207 755 242.0 844.5Q277 934 311 1008Q332 1050 352.0 1082.0Q372 1114 404.0 1136.0Q436 1158 492 1171Q562 1186 656.0 1195.5Q750 1205 863 1205Q975 1205 1069.0 1195.5Q1163 1186 1233 1171Q1290 1158 1321.5 1136.0Q1353 1114 1373.0 1082.0Q1393 1050 1414 1008Q1449 934 1483.5 844.5Q1518 755 1540 682Q1554 634 1561.5 589.0Q1569 544 1569 502Q1569 407 1513.0 355.0Q1457 303 1373 303Q1309 303 1264.0 326.5Q1219 350 1182 386L1105 464Q1089 481 1071 481H654Q636 481 621 464L543 386Q507 349 461.5 326.0Q416 303 352 303ZM450 836Q450 778 509 778H572V720Q572 660 631 660Q689 660 689 720V778H748Q810 778 810 836Q810 893 748 893H689V952Q689 1012 631 1012Q572 1012 572 952V893H509Q450 893 450 836ZM1176 835Q1210 835 1233.0 857.5Q1256 880 1256 914Q1256 948 1233.0 971.0Q1210 994 1176 994Q1143 994 1119.0 971.0Q1095 948 1095 914Q1095 880 1119.0 857.5Q1143 835 1176 835ZM1027 680Q1060 680 1083.5 703.5Q1107 727 1107 760Q1107 794 1083.5 817.0Q1060 840 1027 840Q993 840 969.5 817.0Q946 794 946 760Q946 727 969.5 703.5Q993 680 1027 680Z" transform="translate(-1.8281,14.1211) scale(0.011719,-0.011719)"/>
  </g>
</svg>
