<svg xmlns="http://www.w3.org/2000/svg" viewBox="0 0 29.9883 33.7734" width="21.3102" height="24.0000">
  <g fill="black" stroke="black" stroke-width="0.25">
    <path d="M1114 -145Q1065 -145 1033.5 -114.5Q1002 -84 1001 -35L966 1149Q964 1199 994.0 1229.5Q1024 1260 1075 1260Q1126 1260 1158.0 1229.5Q1190 1199 1191 1150L1226 -32Q1227 -82 1196.5 -113.5Q1166 -145 1114 -145ZM1467 -145Q1416 -145 1385.0 -115.0Q1354 -85 1354 -36V1151Q1354 1200 1385.0 1230.0Q1416 1260 1467 1260Q1517 1260 1548.0 1230.0Q1579 1200 1579 1151V-36Q1579 -85 1548.0 -115.0Q1517 -145 1467 -145ZM1820 -145Q1767 -145 1736.5 -113.5Q1706 -82 1707 -32L1743 1150Q1744 1199 1775.5 1229.5Q1807 1260 1859 1260Q1910 1260 1939.5 1229.5Q1969 1199 1968 1149L1932 -35Q1931 -84 1900.0 -114.5Q1869 -145 1820 -145ZM846 1674V1910Q846 2076 946.0 2164.5Q1046 2253 1235 2253H1698Q1887 2253 1986.5 2164.5Q2086 2076 2086 1910V1674H1747V1901Q1747 1931 1727.0 1948.0Q1707 1965 1672 1965H1261Q1225 1965 1205.5 1948.0Q1186 1931 1186 1901V1674ZM355 1417Q283 1417 235.0 1462.5Q187 1508 187 1581Q187 1651 235.0 1696.5Q283 1742 355 1742H2579Q2651 1742 2698.5 1696.5Q2746 1651 2746 1581Q2746 1508 2698.5 1462.5Q2651 1417 2579 1417ZM900 -629Q784 -629 701.5 -590.0Q619 -551 573.0 -473.0Q527 -395 522 -278L445 1442H779L854 -187Q856 -241 880.5 -269.5Q905 -298 949 -298H1984Q2029 -298 2053.0 -269.5Q2077 -241 2080 -187L2153 1442H2489L2411 -278Q2406 -395 2360.0 -473.0Q2314 -551 2231.5 -590.0Q2149 -629 2033 -629Z" transform="translate(-2.1914,26.4023) scale(0.011719,-0.011719)"/>
  </g>
</svg>
