<svg xmlns="http://www.w3.org/2000/svg" viewBox="0 0 33.7383 33.5977" width="24.1005" height="24.0000">
  <g fill="black" stroke="black" stroke-width="0.25">
    <path d="M527 -647V1750Q527 1926 622.0 2021.0Q717 2116 892 2116H1985Q2161 2116 2256.0 2021.0Q2351 1926 2351 1750V-647H2007V1707Q2007 1737 1991.0 1755.0Q1975 1773 1948 1773H929Q869 1773 869 1707V-647ZM1107 942Q1061 942 1031.5 969.0Q1002 996 1002 1037V1546Q1002 1588 1031.0 1614.0Q1060 1640 1107 1640H1770Q1817 1640 1846.0 1614.0Q1875 1588 1875 1546V1037Q1875 996 1845.5 969.0Q1816 942 1770 942ZM312 -583Q312 -514 361.0 -465.0Q410 -416 479 -416H2399Q2468 -416 2517.5 -465.0Q2567 -514 2567 -583Q2567 -653 2517.5 -702.0Q2468 -751 2399 -751H479Q410 -751 361.0 -702.0Q312 -653 312 -583ZM2817 -335Q2653 -335 2555.5 -237.0Q2458 -139 2458 27Q2458 133 2465.5 240.5Q2473 348 2480.5 452.0Q2488 556 2488 654Q2488 764 2423.0 846.5Q2358 929 2197 971L2274 1150Q2495 1083 2588.5 955.0Q2682 827 2682 654Q2682 543 2674.5 434.0Q2667 325 2659.5 222.5Q2652 120 2652 27Q2652 -53 2696.0 -97.0Q2740 -141 2817 -141Q2905 -141 2951.0 -79.0Q2997 -17 2997 105Q2997 220 2987.0 354.5Q2977 489 2956.0 639.0Q2935 789 2901 950L2656 1211Q2615 1256 2609.5 1293.5Q2604 1331 2629 1378L2727 1560Q2735 1571 2734.0 1581.5Q2733 1592 2727 1600L2557 1814Q2525 1854 2532.5 1892.5Q2540 1931 2570.5 1954.5Q2601 1978 2640.0 1977.0Q2679 1976 2709 1938L2840 1774Q2899 1701 2934.5 1612.0Q2970 1523 2994 1419L3015 1323Q3076 1052 3115.0 835.0Q3154 618 3172.5 439.0Q3191 260 3191 105Q3191 -105 3093.5 -220.0Q2996 -335 2817 -335Z" transform="translate(-3.6562,24.7969) scale(0.011719,-0.011719)"/>
  </g>
</svg>
