<svg xmlns="http://www.w3.org/2000/svg" viewBox="0 0 14.6953 14.9766" width="23.5493" height="24.0000">
  <g fill="black" stroke="black" stroke-width="0.25">
    <path d="M445 823H842Q868 823 884.0 837.0Q900 851 900 874V1151Q900 1173 884.5 1186.5Q869 1200 842 1200H445Q419 1200 403.5 1186.5Q388 1173 388 1151V874Q388 851 403.5 837.0Q419 823 445 823ZM156 133Q156 164 178.0 185.5Q200 207 230 207H252V1175Q252 1253 294.0 1295.0Q336 1337 414 1337H873Q951 1337 993.5 1295.0Q1036 1253 1036 1175V893Q1115 862 1149.0 808.5Q1183 755 1183 685Q1183 610 1176.5 538.5Q1170 467 1170 405Q1170 369 1189.5 349.0Q1209 329 1243 329Q1324 329 1324 439Q1324 517 1314.0 613.0Q1304 709 1282 816L1172 934Q1154 953 1151.5 969.5Q1149 986 1159 1007L1203 1088Q1210 1098 1203 1107L1128 1202Q1108 1226 1119.0 1247.0Q1130 1268 1153.5 1273.5Q1177 1279 1195 1256L1254 1184Q1280 1151 1295.5 1111.5Q1311 1072 1322 1026L1331 982Q1372 801 1391.0 672.0Q1410 543 1410 439Q1410 345 1366.5 294.5Q1323 244 1243 244Q1170 244 1127.0 287.5Q1084 331 1084 405Q1084 475 1090.5 547.0Q1097 619 1097 685Q1097 719 1083.0 748.0Q1069 777 1036 798V207H1058Q1089 207 1110.5 185.5Q1132 164 1132 133Q1132 103 1110.5 81.0Q1089 59 1058 59H230Q200 59 178.0 81.0Q156 103 156 133Z" transform="translate(-1.8281,15.6680) scale(0.011719,-0.011719)"/>
  </g>
</svg>
