<svg xmlns="http://www.w3.org/2000/svg" viewBox="0 0 30.9023 30.9023" width="24.0000" height="24.0000">
  <g fill="black" stroke="black" stroke-width="0.25">
    <path d="M945 674Q882 674 838.0 718.5Q794 763 794 825Q794 888 838.0 932.0Q882 976 945 976Q1007 976 1051.0 932.0Q1095 888 1095 825Q1095 763 1051.0 718.5Q1007 674 945 674ZM1161 1014Q1099 1014 1055.0 1058.5Q1011 1103 1011 1165Q1011 1227 1055.0 1271.5Q1099 1316 1161 1316Q1224 1316 1268.0 1271.5Q1312 1227 1312 1165Q1312 1103 1268.0 1058.5Q1224 1014 1161 1014ZM1537 1137Q1474 1137 1430.0 1181.0Q1386 1225 1386 1287Q1386 1350 1430.0 1394.0Q1474 1438 1537 1438Q1599 1438 1643.0 1394.0Q1687 1350 1687 1287Q1687 1225 1643.0 1181.0Q1599 1137 1537 1137ZM1912 1014Q1849 1014 1805.0 1058.5Q1761 1103 1761 1165Q1761 1227 1805.0 1271.5Q1849 1316 1912 1316Q1974 1316 2018.5 1271.5Q2063 1227 2063 1165Q2063 1103 2018.5 1058.5Q1974 1014 1912 1014ZM2129 674Q2066 674 2022.0 718.5Q1978 763 1978 825Q1978 888 2022.0 932.0Q2066 976 2129 976Q2191 976 2235.0 932.0Q2279 888 2279 825Q2279 763 2235.0 718.5Q2191 674 2129 674ZM1537 -64Q1448 -64 1400.5 -20.0Q1353 24 1316 99L1131 481Q1093 556 1142 602Q1166 624 1197.0 625.0Q1228 626 1263 604L1614 371Q1693 323 1724.5 271.0Q1756 219 1756 154Q1756 64 1692.0 0.0Q1628 -64 1537 -64ZM1537 -635Q1319 -635 1121.0 -568.5Q923 -502 758.5 -381.0Q594 -260 473.0 -95.0Q352 70 285.5 267.5Q219 465 219 683Q219 902 285.5 1099.5Q352 1297 473.0 1462.0Q594 1627 758.5 1748.0Q923 1869 1121.0 1935.5Q1319 2002 1537 2002Q1755 2002 1953.0 1935.5Q2151 1869 2315.5 1748.0Q2480 1627 2601.0 1462.0Q2722 1297 2789.0 1099.5Q2856 902 2856 683Q2856 465 2789.0 267.5Q2722 70 2601.0 -95.0Q2480 -260 2315.5 -381.0Q2151 -502 1953.0 -568.5Q1755 -635 1537 -635ZM1537 -239Q1728 -239 1895.5 -167.5Q2063 -96 2189.5 31.0Q2316 158 2388.0 325.0Q2460 492 2460 683Q2460 875 2388.0 1042.0Q2316 1209 2189.5 1336.0Q2063 1463 1895.5 1534.5Q1728 1606 1537 1606Q1346 1606 1178.5 1534.5Q1011 1463 884.5 1336.0Q758 1209 686.0 1042.0Q614 875 614 683Q614 492 686.0 325.0Q758 158 884.5 31.0Q1011 -96 1178.5 -167.5Q1346 -239 1537 -239Z" transform="translate(-2.5664,23.4609) scale(0.011719,-0.011719)"/>
  </g>
</svg>
