<svg xmlns="http://www.w3.org/2000/svg" viewBox="0 0 15.5273 15.5039" width="24.0363" height="24.0000">
  <g fill="black" stroke="black" stroke-width="0.25">
    <path d="M766 22Q728 22 700.0 44.0Q672 66 663 102L638 211Q631 213 624.0 215.5Q617 218 610 222L516 164Q484 143 448.0 147.0Q412 151 385 179L312 251Q286 278 282.5 314.5Q279 351 299 383L357 476Q354 483 351.0 488.5Q348 494 346 501L238 528Q201 536 178.5 564.5Q156 593 156 630V733Q156 771 178.0 799.0Q200 827 238 836L343 861Q347 867 349.5 874.0Q352 881 356 886L297 982Q276 1014 280.0 1051.5Q284 1089 312 1114L386 1186Q412 1212 447.0 1216.5Q482 1221 512 1203L608 1143Q616 1146 623.0 1149.5Q630 1153 638 1155L663 1263Q673 1300 700.5 1322.5Q728 1345 766 1345H870Q908 1345 936.0 1322.5Q964 1300 973 1264L999 1154Q1006 1151 1012.5 1148.5Q1019 1146 1027 1143L1123 1203Q1155 1222 1189.5 1216.5Q1224 1211 1249 1186L1325 1114Q1352 1088 1355.5 1051.0Q1359 1014 1340 982L1280 886Q1283 881 1286.5 874.5Q1290 868 1292 861L1399 836Q1435 827 1458.0 799.0Q1481 771 1481 733V630Q1481 593 1458.5 564.5Q1436 536 1399 528L1291 501Q1288 494 1285.5 488.5Q1283 483 1279 476L1336 384Q1357 351 1353.5 314.5Q1350 278 1324 251L1252 179Q1223 150 1187.0 146.5Q1151 143 1119 164L1027 222Q1016 217 998 211L973 102Q964 66 936.0 44.0Q908 22 870 22ZM818 491Q897 491 954.0 547.5Q1011 604 1011 683Q1011 763 954.0 819.5Q897 876 818 876Q739 876 682.5 819.5Q626 763 626 683Q626 604 682.5 547.5Q739 491 818 491Z" transform="translate(-1.8281,15.7617) scale(0.011719,-0.011719)"/>
  </g>
</svg>
