<svg xmlns="http://www.w3.org/2000/svg" viewBox="0 0 14.2383 15.3750" width="22.2256" height="24.0000">
  <g fill="black" stroke="black" stroke-width="0.25">
    <path d="M228 233Q228 152 273.5 106.5Q319 61 403 61H684V541H228ZM843 61H1124Q1208 61 1253.5 106.5Q1299 152 1299 233V541H843ZM156 760Q156 704 187.0 673.0Q218 642 272 642H684V1016H603Q541 1016 508.5 1046.0Q476 1076 476 1123Q476 1163 501.0 1190.5Q526 1218 571 1218Q616 1218 650.0 1181.0Q684 1144 684 1091V1016H843V1091Q843 1144 877.0 1181.0Q911 1218 956 1218Q1001 1218 1026.0 1190.5Q1051 1163 1051 1123Q1051 1076 1018.5 1046.0Q986 1016 924 1016H843V642H1255Q1310 642 1340.5 673.0Q1371 704 1371 760V855Q1371 934 1329.0 975.0Q1287 1016 1211 1016H1161Q1186 1043 1199.5 1077.0Q1213 1111 1213 1150Q1213 1249 1145.0 1311.0Q1077 1373 982 1373Q905 1373 844.5 1329.0Q784 1285 764 1202Q744 1285 683.0 1329.0Q622 1373 545 1373Q450 1373 382.0 1311.0Q314 1249 314 1150Q314 1111 327.5 1077.0Q341 1043 366 1016H316Q241 1016 198.5 975.0Q156 934 156 855Z" transform="translate(-1.8281,16.0898) scale(0.011719,-0.011719)"/>
  </g>
</svg>
