<svg xmlns="http://www.w3.org/2000/svg" viewBox="0 0 52.3594 20.6836" width="60.7547" height="24.0000">
  <g fill="black" stroke="black" stroke-width="0.25">
    <path d="M1393 -200Q1209 -200 1049.0 -131.5Q889 -63 767.5 58.0Q646 179 577.5 339.5Q509 500 509 683Q509 866 577.5 1026.0Q646 1186 767.5 1307.0Q889 1428 1049.0 1496.5Q1209 1565 1393 1565Q1576 1565 1735.5 1496.5Q1895 1428 2016.5 1307.0Q2138 1186 2206.5 1026.0Q2275 866 2275 683Q2275 500 2206.5 339.5Q2138 179 2016.5 58.0Q1895 -63 1735.5 -131.5Q1576 -200 1393 -200ZM1393 206Q1491 206 1577.0 243.0Q1663 280 1728.5 345.5Q1794 411 1831.0 497.5Q1868 584 1868 683Q1868 782 1831.0 868.0Q1794 954 1728.5 1019.5Q1663 1085 1577.0 1122.0Q1491 1159 1393 1159Q1294 1159 1207.5 1122.0Q1121 1085 1055.5 1019.5Q990 954 953.0 868.0Q916 782 916 683Q916 584 953.0 497.5Q990 411 1055.5 345.5Q1121 280 1207.5 243.0Q1294 206 1393 206ZM3513 -200Q3330 -200 3170.0 -131.5Q3010 -63 2889.0 58.0Q2768 179 2699.5 339.5Q2631 500 2631 683Q2631 866 2699.5 1026.0Q2768 1186 2889.0 1307.0Q3010 1428 3170.0 1496.5Q3330 1565 3513 1565Q3697 1565 3857.0 1496.5Q4017 1428 4138.5 1307.0Q4260 1186 4328.5 1026.0Q4397 866 4397 683Q4397 500 4328.5 339.5Q4260 179 4138.5 58.0Q4017 -63 3857.0 -131.5Q3697 -200 3513 -200ZM3513 206Q3612 206 3698.5 243.0Q3785 280 3850.5 345.5Q3916 411 3953.0 497.5Q3990 584 3990 683Q3990 782 3953.0 868.0Q3916 954 3850.5 1019.5Q3785 1085 3698.5 1122.0Q3612 1159 3513 1159Q3415 1159 3328.5 1122.0Q3242 1085 3177.0 1019.5Q3112 954 3075.0 868.0Q3038 782 3038 683Q3038 584 3075.0 497.5Q3112 411 3177.0 345.5Q3242 280 3328.5 243.0Q3415 206 3513 206ZM613 929V516H326Q219 516 219 628V821Q219 929 326 929ZM4292 516V929H4579Q4687 929 4687 821V628Q4687 516 4579 516ZM2179 546V918Q2239 952 2314.0 967.0Q2389 982 2453 982Q2517 982 2592.0 967.0Q2667 952 2727 918V546Q2671 588 2595.0 605.0Q2519 622 2453 622Q2386 622 2310.0 605.0Q2234 588 2179 546Z" transform="translate(-2.5664,18.3398) scale(0.011719,-0.011719)"/>
  </g>
</svg>
