<svg xmlns="http://www.w3.org/2000/svg" viewBox="0 0 30.9023 30.9023" width="24.0000" height="24.0000">
  <g fill="black" stroke="black" stroke-width="0.25">
    <path d="M1667 -65Q1609 -65 1570.0 -23.0Q1531 19 1500.5 121.0Q1470 223 1439 402Q1429 458 1408.0 484.5Q1387 511 1360.5 528.0Q1334 545 1307.5 571.0Q1281 597 1261 653L1221 763Q1208 800 1179 800Q1158 800 1139.0 784.0Q1120 768 1076 768Q1036 768 998.5 795.5Q961 823 899 875Q853 914 838.5 926.0Q824 938 809 938Q789 938 775.0 922.0Q761 906 761 886Q761 868 776 855L854 787Q899 748 935.5 716.5Q972 685 993.5 656.5Q1015 628 1015 597Q1015 555 998.0 530.0Q981 505 958.5 484.0Q936 463 919.0 434.0Q902 405 902 355Q902 269 876.0 216.0Q850 163 791.5 132.5Q733 102 635 84Q540 227 494.0 376.5Q448 526 448 683Q448 901 518.0 1082.5Q588 1264 726 1392Q750 1309 789.0 1262.5Q828 1216 861 1216Q886 1216 905.0 1232.0Q924 1248 931 1281Q937 1311 953.5 1331.0Q970 1351 989.5 1367.0Q1009 1383 1023.0 1400.5Q1037 1418 1037 1443Q1037 1462 1032.0 1479.5Q1027 1497 1010.5 1522.0Q994 1547 960 1590Q1101 1693 1250.5 1746.0Q1400 1799 1557 1802Q1732 1804 1894.5 1749.0Q2057 1694 2195.5 1591.5Q2334 1489 2438.5 1348.5Q2543 1208 2603.0 1038.0Q2663 868 2667 680Q2669 585 2648.5 479.0Q2628 373 2588 249Q2476 249 2404.0 284.0Q2332 319 2286.5 370.0Q2241 421 2212.5 472.0Q2184 523 2161.0 558.0Q2138 593 2109 593Q2086 593 2042.5 566.5Q1999 540 1953.5 494.0Q1908 448 1876.5 390.0Q1845 332 1845 268Q1845 100 1800.0 17.5Q1755 -65 1667 -65ZM1537 -635Q1319 -635 1121.0 -568.5Q923 -502 758.5 -381.0Q594 -260 473.0 -95.0Q352 70 285.5 267.5Q219 465 219 683Q219 902 285.5 1099.5Q352 1297 473.0 1462.0Q594 1627 758.5 1748.0Q923 1869 1121.0 1935.5Q1319 2002 1537 2002Q1755 2002 1953.0 1935.5Q2151 1869 2315.5 1748.0Q2480 1627 2601.0 1462.0Q2722 1297 2789.0 1099.5Q2856 902 2856 683Q2856 465 2789.0 267.5Q2722 70 2601.0 -95.0Q2480 -260 2315.5 -381.0Q2151 -502 1953.0 -568.5Q1755 -635 1537 -635ZM1537 -333Q1747 -333 1931.5 -254.0Q2116 -175 2255.5 -35.0Q2395 105 2474.0 289.0Q2553 473 2553 683Q2553 894 2474.0 1078.0Q2395 1262 2255.5 1401.5Q2116 1541 1931.5 1620.5Q1747 1700 1537 1700Q1327 1700 1142.5 1620.5Q958 1541 818.5 1401.5Q679 1262 600.0 1078.0Q521 894 521 683Q521 473 600.0 289.0Q679 105 818.5 -35.0Q958 -175 1142.5 -254.0Q1327 -333 1537 -333Z" transform="translate(-2.5664,23.4609) scale(0.011719,-0.011719)"/>
  </g>
</svg>
