<svg xmlns="http://www.w3.org/2000/svg" viewBox="0 0 30.9023 30.9023" width="24.0000" height="24.0000">
  <g fill="black" stroke="black" stroke-width="0.25">
    <path d="M1566 -199Q1468 -199 1417.5 -149.0Q1367 -99 1348.0 -22.0Q1329 55 1327.0 137.0Q1325 219 1325 283Q1325 359 1271.0 408.0Q1217 457 1134 457Q982 457 896.5 541.0Q811 625 811 775Q811 886 876.5 977.5Q942 1069 1053.5 1122.5Q1165 1176 1301 1176Q1361 1176 1419.0 1165.0Q1477 1154 1521.5 1143.0Q1566 1132 1583 1132Q1604 1132 1617.5 1152.0Q1631 1172 1631 1203Q1631 1221 1612.0 1250.5Q1593 1280 1561.5 1303.5Q1530 1327 1492 1327Q1480 1327 1472.0 1320.0Q1464 1313 1462 1300Q1456 1272 1439.5 1260.5Q1423 1249 1401 1249Q1356 1249 1328.0 1266.5Q1300 1284 1280.0 1301.0Q1260 1318 1240 1319Q1218 1319 1195.0 1298.5Q1172 1278 1146.0 1252.0Q1120 1226 1087.0 1205.5Q1054 1185 1013 1185Q965 1185 937.0 1210.0Q909 1235 909 1278Q909 1319 927.5 1351.5Q946 1384 970.5 1418.0Q995 1452 1013.5 1498.0Q1032 1544 1032 1612Q1032 1700 1088.0 1769.0Q1144 1838 1256.0 1877.5Q1368 1917 1537 1917Q1740 1917 1925.0 1854.5Q2110 1792 2264.5 1678.0Q2419 1564 2533.0 1409.5Q2647 1255 2709.5 1070.0Q2772 885 2772 682Q2772 574 2726.5 496.5Q2681 419 2623 388Q2550 431 2501.0 492.0Q2452 553 2420.5 619.0Q2389 685 2368.5 742.5Q2348 800 2333.5 836.0Q2319 872 2304 872Q2290 872 2285.0 857.0Q2280 842 2271.0 827.0Q2262 812 2239 812Q2214 812 2178.0 841.0Q2142 870 2104.0 907.5Q2066 945 2033.0 974.0Q2000 1003 1981 1003Q1965 1003 1949.0 982.0Q1933 961 1933 940Q1933 916 1969.5 888.5Q2006 861 2054.5 830.0Q2103 799 2139.5 766.5Q2176 734 2176 702Q2176 663 2157.5 627.5Q2139 592 2114.5 561.5Q2090 531 2071.5 508.5Q2053 486 2053 473Q2053 445 2058.0 404.5Q2063 364 2057.0 315.5Q2051 267 2020 216Q2006 193 1976.0 144.5Q1946 96 1903.5 37.5Q1861 -21 1808.0 -75.0Q1755 -129 1693.5 -164.0Q1632 -199 1566 -199ZM1899 1348Q1912 1348 1929.0 1337.5Q1946 1327 1981 1327Q2007 1327 2024.5 1347.0Q2042 1367 2042 1397Q2042 1443 1998.5 1474.5Q1955 1506 1891 1506Q1815 1506 1773.0 1480.0Q1731 1454 1731 1406Q1731 1374 1753.0 1352.0Q1775 1330 1808 1330Q1843 1330 1858.5 1339.0Q1874 1348 1899 1348ZM1537 -635Q1319 -635 1121.0 -568.5Q923 -502 758.5 -381.0Q594 -260 473.0 -95.0Q352 70 285.5 267.5Q219 465 219 683Q219 902 285.5 1099.5Q352 1297 473.0 1462.0Q594 1627 758.5 1748.0Q923 1869 1121.0 1935.5Q1319 2002 1537 2002Q1755 2002 1953.0 1935.5Q2151 1869 2315.5 1748.0Q2480 1627 2601.0 1462.0Q2722 1297 2789.0 1099.5Q2856 902 2856 683Q2856 465 2789.0 267.5Q2722 70 2601.0 -95.0Q2480 -260 2315.5 -381.0Q2151 -502 1953.0 -568.5Q1755 -635 1537 -635ZM1537 -333Q1747 -333 1931.5 -254.0Q2116 -175 2255.5 -35.0Q2395 105 2474.0 289.0Q2553 473 2553 683Q2553 894 2474.0 1078.0Q2395 1262 2255.5 1401.5Q2116 1541 1931.5 1620.5Q1747 1700 1537 1700Q1327 1700 1142.5 1620.5Q958 1541 818.5 1401.5Q679 1262 600.0 1078.0Q521 894 521 683Q521 473 600.0 289.0Q679 105 818.5 -35.0Q958 -175 1142.5 -254.0Q1327 -333 1537 -333Z" transform="translate(-2.5664,23.4609) scale(0.011719,-0.011719)"/>
  </g>
</svg>
