<svg xmlns="http://www.w3.org/2000/svg" viewBox="0 0 30.9023 30.9023" width="24.0000" height="24.0000">
  <g fill="black" stroke="black" stroke-width="0.25">
    <path d="M604 158Q516 257 470.0 391.0Q424 525 425 674Q427 864 478.5 1029.0Q530 1194 625.5 1328.5Q721 1463 855.5 1561.5Q990 1660 1158.5 1717.0Q1327 1774 1523 1784Q1664 1784 1772.0 1756.5Q1880 1729 1960.0 1684.0Q2040 1639 2096 1587Q2045 1572 2026.5 1562.5Q2008 1553 2008 1540Q2008 1528 2031.5 1507.5Q2055 1487 2086.0 1460.5Q2117 1434 2140.5 1403.5Q2164 1373 2164 1341Q2164 1300 2134.0 1255.5Q2104 1211 2049.5 1166.5Q1995 1122 1921 1082Q1873 1057 1858.5 1035.0Q1844 1013 1839 995Q1831 967 1807.0 943.0Q1783 919 1739.5 923.5Q1696 928 1629 984Q1618 992 1606.5 996.0Q1595 1000 1585 1000Q1567 1000 1554.0 989.5Q1541 979 1541 962Q1541 942 1561.0 919.0Q1581 896 1607.5 870.0Q1634 844 1654.5 816.0Q1675 788 1675 758Q1675 714 1647.5 670.0Q1620 626 1574.5 590.5Q1529 555 1473.0 533.5Q1417 512 1360 512Q1327 512 1327 489Q1327 475 1343.5 455.0Q1360 435 1377.0 414.0Q1394 393 1394 376Q1394 333 1369.0 289.5Q1344 246 1307.0 217.0Q1270 188 1234 188Q1177 188 1117.0 242.0Q1057 296 975 400Q928 461 899.0 486.5Q870 512 844 512Q822 512 806.0 475.0Q790 438 768.0 382.0Q746 326 708.0 265.5Q670 205 604 158ZM2051 -291Q2010 -235 1977.0 -201.5Q1944 -168 1890 -168Q1853 -168 1815.0 -182.0Q1777 -196 1720 -196Q1589 -196 1545 -10Q1522 95 1542.0 151.0Q1562 207 1633 234L1681 252Q1740 274 1761.0 291.5Q1782 309 1792 342Q1832 459 1890.5 512.0Q1949 565 2041 565Q2091 565 2126.0 548.5Q2161 532 2197 492Q2220 466 2231.0 462.0Q2242 458 2269 467Q2291 475 2315.5 478.5Q2340 482 2360 482Q2440 482 2493.0 417.5Q2546 353 2559 241Q2403 -63 2051 -291ZM1813 735Q1786 735 1766.0 749.0Q1746 763 1746 794Q1746 821 1761.0 836.5Q1776 852 1813 863Q1860 877 1882.5 891.5Q1905 906 1916 932Q1962 1028 2034 1028Q2067 1028 2082.0 1005.5Q2097 983 2097 953Q2097 916 2074.5 878.5Q2052 841 2010 829Q1967 816 1937.0 793.5Q1907 771 1879.0 753.0Q1851 735 1813 735ZM1471 213Q1414 213 1414 259Q1414 282 1424.5 294.0Q1435 306 1445.0 318.0Q1455 330 1455 354Q1455 413 1475.0 449.0Q1495 485 1528 485Q1558 485 1581.0 454.5Q1604 424 1604 360Q1604 308 1563.0 260.5Q1522 213 1471 213ZM1242 -15Q1184 -15 1155.5 0.5Q1127 16 1113.5 36.0Q1100 56 1087.0 72.0Q1074 88 1046 88Q1020 88 1002.0 101.5Q984 115 984 135Q984 159 1002.5 174.0Q1021 189 1049 189Q1075 189 1092.5 177.0Q1110 165 1129.5 149.0Q1149 133 1180.5 121.0Q1212 109 1265 109Q1292 109 1309.0 94.5Q1326 80 1326 56Q1326 22 1303.5 3.5Q1281 -15 1242 -15ZM1537 -635Q1319 -635 1121.0 -568.5Q923 -502 758.5 -381.0Q594 -260 473.0 -95.0Q352 70 285.5 267.5Q219 465 219 683Q219 902 285.5 1099.5Q352 1297 473.0 1462.0Q594 1627 758.5 1748.0Q923 1869 1121.0 1935.5Q1319 2002 1537 2002Q1755 2002 1953.0 1935.5Q2151 1869 2315.5 1748.0Q2480 1627 2601.0 1462.0Q2722 1297 2789.0 1099.5Q2856 902 2856 683Q2856 465 2789.0 267.5Q2722 70 2601.0 -95.0Q2480 -260 2315.5 -381.0Q2151 -502 1953.0 -568.5Q1755 -635 1537 -635ZM1537 -333Q1747 -333 1931.5 -254.0Q2116 -175 2255.5 -35.0Q2395 105 2474.0 289.0Q2553 473 2553 683Q2553 894 2474.0 1078.0Q2395 1262 2255.5 1401.5Q2116 1541 1931.5 1620.5Q1747 1700 1537 1700Q1327 1700 1142.5 1620.5Q958 1541 818.5 1401.5Q679 1262 600.0 1078.0Q521 894 521 683Q521 473 600.0 289.0Q679 105 818.5 -35.0Q958 -175 1142.5 -254.0Q1327 -333 1537 -333Z" transform="translate(-2.5664,23.4609) scale(0.011719,-0.011719)"/>
  </g>
</svg>
