<svg xmlns="http://www.w3.org/2000/svg" viewBox="0 0 30.9023 30.9023" width="24.0000" height="24.0000">
  <g fill="black" stroke="black" stroke-width="0.25">
    <path d="M1574 -181Q1536 -181 1498.5 -159.5Q1461 -138 1436.0 -106.0Q1411 -74 1411 -41Q1411 14 1434.5 63.0Q1458 112 1457 170Q1457 192 1438.5 211.5Q1420 231 1368.5 268.0Q1317 305 1217 380Q1126 448 1126 539Q1126 572 1142.0 596.0Q1158 620 1174.0 641.5Q1190 663 1190 691Q1190 714 1166.5 736.5Q1143 759 1099 797L927 946Q810 1048 760.5 1130.0Q711 1212 711 1298Q710 1389 776.0 1479.0Q842 1569 957.0 1642.5Q1072 1716 1218.5 1759.5Q1365 1803 1524 1803Q1672 1803 1796.0 1773.0Q1920 1743 2005.5 1688.5Q2091 1634 2124 1562Q2092 1505 2036.5 1457.0Q1981 1409 1916.0 1370.0Q1851 1331 1789.0 1300.5Q1727 1270 1681 1248Q1701 1209 1716.5 1172.0Q1732 1135 1732 1097Q1732 1047 1705.5 1016.5Q1679 986 1621 986Q1572 986 1526.0 1009.0Q1480 1032 1440.0 1054.5Q1400 1077 1371 1077Q1347 1077 1330.5 1065.0Q1314 1053 1314 1029Q1314 1007 1338.0 975.0Q1362 943 1397.0 911.5Q1432 880 1468.5 858.5Q1505 837 1530 837Q1565 837 1605.0 858.5Q1645 880 1683.5 901.0Q1722 922 1752 922Q1804 922 1871.0 885.5Q1938 849 2001.5 793.5Q2065 738 2107.0 679.5Q2149 621 2149 578Q2149 526 2117.5 450.5Q2086 375 2034.0 289.5Q1982 204 1919.0 121.0Q1856 38 1791.0 -30.5Q1726 -99 1669.0 -140.0Q1612 -181 1574 -181ZM1537 -635Q1319 -635 1121.0 -568.5Q923 -502 758.5 -381.0Q594 -260 473.0 -95.0Q352 70 285.5 267.5Q219 465 219 683Q219 902 285.5 1099.5Q352 1297 473.0 1462.0Q594 1627 758.5 1748.0Q923 1869 1121.0 1935.5Q1319 2002 1537 2002Q1755 2002 1953.0 1935.5Q2151 1869 2315.5 1748.0Q2480 1627 2601.0 1462.0Q2722 1297 2789.0 1099.5Q2856 902 2856 683Q2856 465 2789.0 267.5Q2722 70 2601.0 -95.0Q2480 -260 2315.5 -381.0Q2151 -502 1953.0 -568.5Q1755 -635 1537 -635ZM1537 -333Q1747 -333 1931.5 -254.0Q2116 -175 2255.5 -35.0Q2395 105 2474.0 289.0Q2553 473 2553 683Q2553 894 2474.0 1078.0Q2395 1262 2255.5 1401.5Q2116 1541 1931.5 1620.5Q1747 1700 1537 1700Q1327 1700 1142.5 1620.5Q958 1541 818.5 1401.5Q679 1262 600.0 1078.0Q521 894 521 683Q521 473 600.0 289.0Q679 105 818.5 -35.0Q958 -175 1142.5 -254.0Q1327 -333 1537 -333Z" transform="translate(-2.5664,23.4609) scale(0.011719,-0.011719)"/>
  </g>
</svg>
