<svg xmlns="http://www.w3.org/2000/svg" viewBox="0 0 14.3320 13.8984" width="24.7487" height="24.0000">
  <g fill="black" stroke="black" stroke-width="0.25">
    <path d="M281 952Q249 952 231.0 972.0Q213 992 213 1016Q213 1052 253 1075L699 1331Q732 1353 774 1353Q792 1353 811.5 1347.5Q831 1342 848 1331L1293 1075Q1333 1052 1333 1016Q1333 992 1315.5 972.0Q1298 952 1266 952ZM156 231Q156 256 174.5 275.0Q193 294 219 294H1315Q1342 294 1360.5 275.0Q1379 256 1379 231Q1379 204 1360.5 185.5Q1342 167 1315 167H219Q193 167 174.5 185.5Q156 204 156 231ZM257 373V381Q257 426 304 426H318V820H304Q257 820 257 864V872Q257 918 304 918H444Q490 918 490 872V864Q490 820 444 820H430V426H444Q490 426 490 381V373Q490 328 444 328H304Q257 328 257 373ZM524 373V381Q524 402 536.5 414.0Q549 426 570 426H584V820H570Q524 820 524 864V872Q524 918 570 918H711Q756 918 756 872V864Q756 820 711 820H695V426H711Q731 426 743.5 414.0Q756 402 756 381V373Q756 328 711 328H570Q524 328 524 373ZM790 373V381Q790 426 836 426H851V820H836Q790 820 790 864V872Q790 918 836 918H977Q1022 918 1022 872V864Q1022 820 977 820H962V426H977Q998 426 1010.0 414.0Q1022 402 1022 381V373Q1022 328 977 328H836Q790 328 790 373ZM1056 373V381Q1056 402 1069.0 414.0Q1082 426 1103 426H1117V820H1103Q1056 820 1056 864V872Q1056 918 1103 918H1243Q1289 918 1289 872V864Q1289 820 1243 820H1229V426H1243Q1289 426 1289 381V373Q1289 328 1243 328H1103Q1056 328 1056 373Z" transform="translate(-1.8281,15.8555) scale(0.011719,-0.011719)"/>
  </g>
</svg>
