<svg xmlns="http://www.w3.org/2000/svg" viewBox="0 0 18.5859 16.5234" width="26.9957" height="24.0000">
  <g fill="black" stroke="black" stroke-width="0.25">
    <path d="M156 934Q156 855 235 821L407 746L802 928Q802 930 802 934Q802 978 847.5 1003.0Q893 1028 950 1028Q1007 1028 1052.5 1003.0Q1098 978 1098 934Q1098 890 1052.5 864.0Q1007 838 950 838Q913 838 881 849L525 688L782 570Q828 549 869.5 538.5Q911 528 949 529Q987 528 1028.5 538.5Q1070 549 1117 570L1663 821Q1742 856 1742 934Q1742 970 1721.0 1000.5Q1700 1031 1663 1047L1117 1296Q1069 1318 1028.0 1329.0Q987 1340 949 1340Q911 1340 870.0 1329.0Q829 1318 782 1296L235 1047Q198 1031 177.0 1000.5Q156 970 156 934ZM355 527Q355 452 408 382V630L355 654ZM343 30Q343 -16 370.0 -43.0Q397 -70 442 -70H489Q533 -70 561.5 -43.0Q590 -16 590 30V135Q590 209 525 230V283Q451 324 408 382V230Q343 210 343 135ZM525 283Q605 236 715.0 209.5Q825 183 949 183Q1114 183 1249.0 227.0Q1384 271 1464.0 349.0Q1544 427 1544 527V654L1159 477Q1103 451 1050.0 438.5Q997 426 949 428Q901 426 848.5 438.0Q796 450 740 477L525 575Z" transform="translate(-1.8281,15.7031) scale(0.011719,-0.011719)"/>
  </g>
</svg>
