<svg xmlns="http://www.w3.org/2000/svg" viewBox="0 0 41.3405 32.8242" width="30.2268" height="24.0000">
  <g fill="black" stroke="black" stroke-width="0.25">
    <path d="M334 -429 913 868V1461Q913 1499 902.5 1519.5Q892 1540 862.5 1556.5Q833 1573 778 1598Q743 1613 737.0 1647.0Q731 1681 756 1710L1033 2028Q1059 2057 1080.0 2070.0Q1101 2083 1125 2083Q1161 2083 1183.5 2060.0Q1206 2037 1206 2001Q1206 1978 1194.0 1904.0Q1182 1830 1170.0 1716.0Q1158 1602 1158 1461V870L1738 -429Q1766 -492 1759.5 -558.5Q1753 -625 1706.0 -671.5Q1659 -718 1566 -718Q1519 -718 1475.0 -697.0Q1431 -676 1371 -626L1055 -366Q1046 -357 1035 -357Q1026 -357 1017 -366L701 -626Q641 -676 597.0 -697.0Q553 -718 506 -718Q413 -718 366.0 -671.5Q319 -625 312.5 -558.5Q306 -492 334 -429ZM529 -479Q523 -493 531.0 -498.5Q539 -504 549 -494L922 -181Q955 -154 983.5 -141.0Q1012 -128 1035 -128Q1060 -128 1089.0 -141.0Q1118 -154 1150 -181L1523 -494Q1533 -504 1541.0 -498.5Q1549 -493 1543 -479L1035 668ZM1272 -203Q1242 -203 1220.5 -181.5Q1199 -160 1199 -130Q1199 -101 1220.5 -79.0Q1242 -57 1272 -57Q1301 -57 1323.0 -78.5Q1345 -100 1345 -130Q1345 -159 1323.5 -181.0Q1302 -203 1272 -203ZM1193 -32Q1163 -32 1141.0 -10.5Q1119 11 1119 41Q1119 70 1141.0 92.0Q1163 114 1193 114Q1222 114 1244.0 92.0Q1266 70 1266 41Q1266 11 1244.0 -10.5Q1222 -32 1193 -32ZM1118 140Q1089 140 1066.5 162.0Q1044 184 1044 212Q1044 242 1066.0 263.5Q1088 285 1118 285Q1147 285 1168.5 264.0Q1190 243 1190 212Q1190 183 1168.5 161.5Q1147 140 1118 140ZM1628 150Q1643 176 1655.5 198.0Q1668 220 1675.5 239.5Q1683 259 1683 276Q1683 331 1661.0 376.5Q1639 422 1616.5 472.5Q1594 523 1594 591Q1594 672 1648.0 725.0Q1702 778 1782 778Q1835 778 1867.0 759.0Q1899 740 1922 718Q1942 698 1959.5 685.5Q1977 673 1991 673Q2000 673 2006.5 678.5Q2013 684 2017.0 694.5Q2021 705 2021 719L2020 1508Q2020 1521 2016.5 1526.5Q2013 1532 2003 1538Q1959 1562 1955 1615L1930 1881Q1925 1934 1965 1964L2072 2058Q2102 2083 2140 2083Q2177 2083 2206 2058L2314 1964Q2353 1934 2349 1881L2324 1615Q2319 1561 2277 1538Q2266 1532 2263.0 1526.5Q2260 1521 2260 1508L2259 721Q2259 705 2262.0 694.5Q2265 684 2271.5 679.0Q2278 674 2288 674Q2306 674 2322.0 687.5Q2338 701 2357 718Q2378 742 2411.0 761.0Q2444 780 2498 780Q2578 780 2631.5 726.5Q2685 673 2685 592Q2685 524 2663.0 473.5Q2641 423 2618.5 377.5Q2596 332 2596 278Q2596 240 2619.5 203.0Q2643 166 2673.5 118.5Q2704 71 2727.5 2.5Q2751 -66 2751 -168Q2751 -334 2674.5 -457.5Q2598 -581 2460.5 -649.5Q2323 -718 2140 -718Q2067 -718 2000.5 -706.0Q1934 -694 1870 -668Q1890 -623 1895.5 -573.0Q1901 -523 1890 -466Q1944 -490 2006.0 -503.0Q2068 -516 2140 -516Q2330 -516 2439.0 -423.0Q2548 -330 2548 -168Q2548 -84 2525.5 -24.0Q2503 36 2473.0 84.0Q2443 132 2420.5 177.5Q2398 223 2398 277Q2398 344 2417.5 396.0Q2437 448 2457.0 490.0Q2477 532 2477 570Q2477 581 2467 581Q2456 581 2441.5 564.5Q2427 548 2406.0 526.5Q2385 505 2354.5 489.0Q2324 473 2281 473Q2234 473 2199.0 491.0Q2164 509 2141 544H2138Q2116 509 2081.0 490.0Q2046 471 1998 471Q1954 471 1924.0 487.5Q1894 504 1873.0 525.5Q1852 547 1837.5 563.0Q1823 579 1812 579Q1802 579 1802 569Q1802 531 1822.0 489.0Q1842 447 1862.0 395.0Q1882 343 1882 276Q1882 229 1864.0 188.5Q1846 148 1820.0 106.5Q1794 65 1771.0 16.0Q1748 -33 1738 -97ZM1913 -137Q1886 -128 1873.0 -102.5Q1860 -77 1867 -52L1938 184Q1947 212 1972.0 226.5Q1997 241 2025 231Q2052 222 2065.0 197.0Q2078 172 2071 145L2001 -91Q1993 -118 1966.5 -132.0Q1940 -146 1913 -137ZM2362 -138Q2335 -145 2310.5 -130.5Q2286 -116 2279 -91L2209 145Q2201 174 2215.0 200.0Q2229 226 2256 232Q2284 238 2308.0 224.0Q2332 210 2340 184L2411 -52Q2419 -80 2404.5 -106.5Q2390 -133 2362 -138ZM3229 -712Q3082 -712 2963.5 -674.5Q2845 -637 2765 -567Q2795 -524 2818.5 -476.5Q2842 -429 2857 -374Q2956 -511 3229 -511Q3422 -511 3530.0 -439.5Q3638 -368 3638 -242Q3638 -169 3612.5 -114.0Q3587 -59 3553.0 -12.0Q3519 35 3493.0 83.5Q3467 132 3467 193Q3467 260 3486.5 327.0Q3506 394 3506 455Q3506 539 3434.5 577.5Q3363 616 3229 616Q3095 616 3023.5 577.5Q2952 539 2952 455Q2952 394 2971.5 327.0Q2991 260 2991 193Q2991 119 2953.5 62.5Q2916 6 2877 -52Q2862 37 2832.5 102.0Q2803 167 2778 207Q2782 216 2783.0 221.5Q2784 227 2784 230Q2784 278 2766.5 331.0Q2749 384 2749 455Q2749 597 2846.0 687.0Q2943 777 3107 802V1564Q3107 1596 3102.5 1607.0Q3098 1618 3081 1631Q3036 1662 3038 1706L3057 2017Q3059 2047 3078.5 2065.0Q3098 2083 3125 2083H3332Q3360 2083 3379.0 2065.0Q3398 2047 3400 2017L3419 1706Q3421 1662 3376 1631Q3359 1618 3355.0 1607.0Q3351 1596 3351 1564V802Q3515 777 3612.0 687.0Q3709 597 3709 455Q3709 366 3690.0 305.5Q3671 245 3671 190Q3671 145 3696.5 109.5Q3722 74 3755.0 31.5Q3788 -11 3813.5 -75.5Q3839 -140 3839 -242Q3839 -386 3764.0 -491.5Q3689 -597 3551.5 -654.5Q3414 -712 3229 -712ZM3229 84Q3171 84 3129.0 125.5Q3087 167 3087 225Q3087 284 3129.0 325.5Q3171 367 3229 367Q3286 367 3327.5 325.0Q3369 283 3369 225Q3369 168 3327.5 126.0Q3286 84 3229 84ZM3083 -279Q3054 -279 3034.0 -259.0Q3014 -239 3014 -211Q3014 -184 3034.0 -163.5Q3054 -143 3083 -143H3373Q3401 -143 3421.0 -163.0Q3441 -183 3441 -211Q3441 -239 3421.0 -259.0Q3401 -279 3373 -279Z" transform="translate(-3.6478,24.4102) scale(0.011719,-0.011719)"/>
  </g>
</svg>
