<svg xmlns="http://www.w3.org/2000/svg" viewBox="0 0 30.9023 30.9023" width="24.0000" height="24.0000">
  <g fill="black" stroke="black" stroke-width="0.25">
    <path d="M824 -31Q745 49 730.5 166.0Q716 283 763.0 425.5Q810 568 915.0 724.5Q1020 881 1178 1040Q1338 1199 1495.0 1304.0Q1652 1409 1794.0 1456.0Q1936 1503 2053.0 1488.5Q2170 1474 2250 1394Q2329 1315 2343.5 1198.0Q2358 1081 2311.0 939.0Q2264 797 2159.0 640.0Q2054 483 1895 324Q1736 165 1579.0 60.0Q1422 -45 1280.0 -92.0Q1138 -139 1021.0 -125.0Q904 -111 824 -31ZM1011 156Q1049 118 1118.5 124.5Q1188 131 1280.5 178.0Q1373 225 1482.0 309.5Q1591 394 1708 511Q1826 629 1910.0 738.0Q1994 847 2041.0 939.5Q2088 1032 2094.5 1101.5Q2101 1171 2063 1209Q2025 1246 1955.5 1239.5Q1886 1233 1793.5 1186.0Q1701 1139 1592.0 1055.0Q1483 971 1366 854Q1249 736 1164.5 627.0Q1080 518 1033.0 425.5Q986 333 979.5 264.0Q973 195 1011 156ZM2250 -30Q2170 -110 2053.0 -124.5Q1936 -139 1794.0 -92.0Q1652 -45 1495.5 60.0Q1339 165 1180 324Q1021 483 916.0 640.0Q811 797 763.5 939.0Q716 1081 730.0 1198.0Q744 1315 823 1395Q904 1475 1021.0 1489.0Q1138 1503 1280.5 1456.0Q1423 1409 1579.5 1304.0Q1736 1199 1895 1040Q2054 881 2159.0 724.0Q2264 567 2311.0 425.0Q2358 283 2344.0 166.0Q2330 49 2250 -30ZM2062 156Q2101 194 2094.5 263.0Q2088 332 2041.0 424.5Q1994 517 1910.0 626.0Q1826 735 1708 853Q1591 970 1482.0 1054.5Q1373 1139 1280.0 1186.0Q1187 1233 1117.5 1239.5Q1048 1246 1010 1209Q972 1171 979.0 1101.5Q986 1032 1033.0 939.5Q1080 847 1164.0 737.5Q1248 628 1366 511Q1484 394 1593.0 309.5Q1702 225 1794.5 178.0Q1887 131 1956.0 124.5Q2025 118 2062 156ZM2460 1447 2296 1599 2631 1934Q2664 1967 2711.0 1967.0Q2758 1967 2790 1934Q2822 1902 2822.0 1855.0Q2822 1808 2790 1776ZM683 -13 867 -145 443 -569Q410 -601 363.5 -601.0Q317 -601 285 -568Q254 -536 253.5 -490.0Q253 -444 285 -411ZM1537 -635Q1319 -635 1121.0 -568.5Q923 -502 758.5 -381.0Q594 -260 473.0 -95.0Q352 70 285.5 267.5Q219 465 219 683Q219 902 285.5 1099.5Q352 1297 473.0 1462.0Q594 1627 758.5 1748.0Q923 1869 1121.0 1935.5Q1319 2002 1537 2002Q1755 2002 1953.0 1935.5Q2151 1869 2315.5 1748.0Q2480 1627 2601.0 1462.0Q2722 1297 2789.0 1099.5Q2856 902 2856 683Q2856 465 2789.0 267.5Q2722 70 2601.0 -95.0Q2480 -260 2315.5 -381.0Q2151 -502 1953.0 -568.5Q1755 -635 1537 -635ZM1537 -239Q1728 -239 1895.5 -167.5Q2063 -96 2189.5 31.0Q2316 158 2388.0 325.0Q2460 492 2460 683Q2460 875 2388.0 1042.0Q2316 1209 2189.5 1336.0Q2063 1463 1895.5 1534.5Q1728 1606 1537 1606Q1346 1606 1178.5 1534.5Q1011 1463 884.5 1336.0Q758 1209 686.0 1042.0Q614 875 614 683Q614 492 686.0 325.0Q758 158 884.5 31.0Q1011 -96 1178.5 -167.5Q1346 -239 1537 -239Z" transform="translate(-2.5664,23.4609) scale(0.011719,-0.011719)"/>
  </g>
</svg>
