<svg xmlns="http://www.w3.org/2000/svg" viewBox="0 0 14.3320 15.8203" width="21.7422" height="24.0000">
  <g fill="black" stroke="black" stroke-width="0.25">
    <path d="M425 541Q303 541 229.5 612.5Q156 684 156 792Q156 875 202.0 936.5Q248 998 325 1027Q340 1126 395.0 1202.5Q450 1279 534.0 1322.0Q618 1365 719 1365Q835 1365 922.0 1314.0Q1009 1263 1059 1165Q1151 1165 1223.5 1124.0Q1296 1083 1337.5 1011.5Q1379 940 1379 851Q1379 764 1337.5 693.5Q1296 623 1225.0 582.0Q1154 541 1065 541ZM518 249Q506 228 481.0 221.0Q456 214 434 226Q410 239 404.0 264.5Q398 290 410 311L466 410Q478 431 503.5 438.0Q529 445 552 432Q574 419 580.0 393.5Q586 368 574 347ZM801 246Q790 225 764.5 218.0Q739 211 717 224Q694 237 688.0 262.5Q682 288 694 309L750 408Q762 429 787.0 436.0Q812 443 835 430Q858 417 863.5 391.5Q869 366 858 345ZM1084 249Q1073 228 1048.0 221.0Q1023 214 1000 226Q977 239 971.0 264.5Q965 290 977 311L1033 410Q1045 431 1070.0 438.0Q1095 445 1118 432Q1141 419 1146.5 393.5Q1152 368 1141 347ZM363 17Q329 17 304.5 41.0Q280 65 280 99Q280 133 304.5 157.0Q329 181 363 181Q396 181 420.0 157.0Q444 133 444 99Q444 65 420.0 41.0Q396 17 363 17ZM646 15Q612 15 588.0 39.0Q564 63 564 97Q564 131 588.0 154.5Q612 178 646 178Q680 178 703.5 154.5Q727 131 727 97Q727 63 703.5 39.0Q680 15 646 15ZM930 17Q895 17 871.0 41.0Q847 65 847 99Q847 133 871.0 157.0Q895 181 930 181Q963 181 987.0 157.0Q1011 133 1011 99Q1011 65 987.0 41.0Q963 17 930 17Z" transform="translate(-1.8281,15.9961) scale(0.011719,-0.011719)"/>
  </g>
</svg>
