<svg xmlns="http://www.w3.org/2000/svg" viewBox="0 0 30.9023 30.9023" width="24.0000" height="24.0000">
  <g fill="black" stroke="black" stroke-width="0.25">
    <path d="M1979 389V241ZM2126 1275H2273V1128H2126ZM1979 1128H2126V980H1979ZM1831 980H1979V833H1831ZM1683 833H1831V686H1683ZM1534 686H1683V537H1534ZM1387 537H1534V389H1387ZM1240 389H1387V241H1240ZM1092 241H1240V94H1092ZM945 94H1092V-53H945ZM1092 -175V-53H1240V-201H1126ZM1240 94H1387V-53H1240ZM1387 241H1534V94H1387ZM1534 389H1683V241H1534ZM1683 537H1831V389H1683ZM1831 686H1979V537H1831ZM1979 833H2126V686H1979ZM2126 980H2273V833H2126ZM2421 980H2569V833H2421ZM2273 833H2421V686H2273ZM2126 686H2273V537H2126ZM1979 537H2126V389H1979ZM1831 389H1979V241H1831ZM1683 241H1831V94H1683ZM1534 94H1683V-53H1534ZM1387 -53H1534V-201H1387ZM1240 -201H1387V-349H1240ZM1534 -201H1683V-349H1534ZM1683 -53H1831V-201H1683ZM1831 94H1979V-53H1831ZM1979 241H2126V94H1979ZM2126 389H2273V241H2126ZM2273 537H2421V389H2273ZM2421 686H2569V537H2421ZM2273 241H2421V94H2273ZM2126 94H2273V-53H2126ZM1979 -53H2126V-201H1979ZM2421 1094V980H2273V1128H2386ZM1537 -635Q1319 -635 1121.0 -568.5Q923 -502 758.5 -381.0Q594 -260 473.0 -95.0Q352 70 285.5 267.5Q219 465 219 683Q219 902 285.5 1099.5Q352 1297 473.0 1462.0Q594 1627 758.5 1748.0Q923 1869 1121.0 1935.5Q1319 2002 1537 2002Q1755 2002 1953.0 1935.5Q2151 1869 2315.5 1748.0Q2480 1627 2601.0 1462.0Q2722 1297 2789.0 1099.5Q2856 902 2856 683Q2856 465 2789.0 267.5Q2722 70 2601.0 -95.0Q2480 -260 2315.5 -381.0Q2151 -502 1953.0 -568.5Q1755 -635 1537 -635ZM1537 -239Q1728 -239 1895.5 -167.5Q2063 -96 2189.5 31.0Q2316 158 2388.0 325.0Q2460 492 2460 683Q2460 875 2388.0 1042.0Q2316 1209 2189.5 1336.0Q2063 1463 1895.5 1534.5Q1728 1606 1537 1606Q1346 1606 1178.5 1534.5Q1011 1463 884.5 1336.0Q758 1209 686.0 1042.0Q614 875 614 683Q614 492 686.0 325.0Q758 158 884.5 31.0Q1011 -96 1178.5 -167.5Q1346 -239 1537 -239Z" transform="translate(-2.5664,23.4609) scale(0.011719,-0.011719)"/>
  </g>
</svg>
