<svg xmlns="http://www.w3.org/2000/svg" viewBox="0 0 25.5703 29.8828" width="20.5365" height="24.0000">
  <g fill="black" stroke="black" stroke-width="0.25">
    <path d="M2493 437Q2493 302 2459.5 192.0Q2426 82 2353.5 -13.5Q2281 -109 2165.0 -199.5Q2049 -290 1884.0 -384.0Q1719 -478 1501 -586Q1476 -599 1449.5 -606.5Q1423 -614 1402 -614Q1382 -614 1355.5 -606.5Q1329 -599 1304 -586Q1085 -478 920.5 -384.0Q756 -290 639.5 -199.5Q523 -109 450.5 -13.5Q378 82 344.5 192.0Q311 302 311 437V1323Q311 1424 334.0 1491.0Q357 1558 409.5 1604.0Q462 1650 551 1689Q582 1702 647.0 1725.0Q712 1748 793.0 1775.0Q874 1802 954.5 1828.5Q1035 1855 1098.5 1875.0Q1162 1895 1189 1904Q1238 1919 1296.0 1927.5Q1354 1936 1402 1936Q1450 1936 1508.5 1926.5Q1567 1917 1616 1904Q1643 1897 1706.0 1877.0Q1769 1857 1849.5 1830.5Q1930 1804 2011.5 1776.5Q2093 1749 2158.0 1725.5Q2223 1702 2253 1689Q2343 1650 2395.5 1604.0Q2448 1558 2470.5 1491.0Q2493 1424 2493 1323ZM1394 -227V1584Q1373 1584 1350.0 1578.5Q1327 1573 1289 1562Q1261 1552 1209.5 1534.0Q1158 1516 1093.5 1494.0Q1029 1472 960.5 1448.0Q892 1424 827.5 1401.0Q763 1378 712 1358Q687 1348 677.0 1330.5Q667 1313 667 1279V487Q667 372 702.5 290.0Q738 208 817.0 137.0Q896 66 1026.5 -14.0Q1157 -94 1349 -206Q1369 -218 1378.0 -222.0Q1387 -226 1394 -227Z" transform="translate(-3.6445,22.6875) scale(0.011719,-0.011719)"/>
  </g>
</svg>
