<svg xmlns="http://www.w3.org/2000/svg" viewBox="0 0 16.8296 15.7338" width="25.6714" height="24.0000">
  <g fill="black" stroke="black" stroke-width="0.25">
    <path d="M1342 739Q1367 716 1394.0 715.0Q1421 714 1443 737L1570 865Q1592 886 1591.0 913.5Q1590 941 1568 964L1539 994Q1522 1012 1507.5 1016.0Q1493 1020 1473 1018L1436 1016L1409 1040L1419 1088Q1427 1117 1416.0 1146.0Q1405 1175 1376 1205L1274 1306Q1223 1356 1153.0 1377.5Q1083 1399 1009.0 1395.5Q935 1392 870.0 1366.5Q805 1341 764 1298Q742 1277 741.0 1252.5Q740 1228 751 1210Q762 1193 784.5 1188.0Q807 1183 832 1194Q886 1219 939.0 1228.0Q992 1237 1040 1223L1003 1125Q989 1090 995.0 1062.5Q1001 1035 1024 1011L1109 925Q1160 875 1217 887L1267 897L1294 873L1289 832Q1286 814 1290.5 799.0Q1295 784 1314 766ZM200 157 259 96Q305 51 361.0 53.5Q417 56 460 109L1083 840Q1061 854 1047 871L965 952Q950 967 942 982L211 359Q157 313 155.0 258.5Q153 204 200 157Z" transform="translate(-1.8154,16.3593) scale(0.011719,-0.011719)"/>
  </g>
</svg>
