<svg xmlns="http://www.w3.org/2000/svg" viewBox="0 0 15.3746 15.7266" width="23.4628" height="24.0000">
  <g fill="black" stroke="black" stroke-width="0.25">
    <path d="M811 688Q968 688 1083.0 759.0Q1198 830 1274 987Q1263 993 1248.0 996.0Q1233 999 1218 999H1214V1036Q1214 1154 1163.5 1242.5Q1113 1331 1022.5 1380.0Q932 1429 811 1429Q690 1429 599.0 1380.0Q508 1331 457.5 1242.5Q407 1154 407 1036V999H404Q389 999 374.0 996.0Q359 993 348 987Q423 830 538.0 759.0Q653 688 811 688ZM572 1000V1036Q572 1104 602.0 1155.5Q632 1207 685.5 1235.5Q739 1264 811 1264Q882 1264 936.0 1235.5Q990 1207 1020.0 1155.5Q1050 1104 1050 1036V1000ZM157 364Q143 244 208.0 165.5Q273 87 388 87H1234Q1348 87 1413.0 165.5Q1478 244 1464 364L1412 805Q1408 842 1394 874Q1313 731 1204.5 652.5Q1096 574 955 548V524Q955 479 933.5 457.0Q912 435 866 435H755Q709 435 688.0 457.0Q667 479 667 524V548Q526 574 418.0 652.5Q310 731 229 874Q221 859 216.5 842.0Q212 825 209 805Z" transform="translate(-1.8108,16.7461) scale(0.011719,-0.011719)"/>
  </g>
</svg>
