<svg xmlns="http://www.w3.org/2000/svg" viewBox="0 0 23.7250 20.7536" width="27.4363" height="24.0000">
  <g fill="black" stroke="black" stroke-width="0.25">
    <path d="M2007 -109Q1862 -254 1694.0 -302.5Q1526 -351 1358.0 -302.5Q1190 -254 1045 -108L547 390Q482 454 482.0 540.5Q482 627 547 692Q554 699 561.0 704.0Q568 709 575 715L570 720Q509 781 511.5 863.0Q514 945 579 1010Q596 1027 616 1039Q599 1095 614.5 1151.0Q630 1207 675 1252Q721 1299 777.0 1314.5Q833 1330 889 1311Q897 1323 905.0 1334.0Q913 1345 923 1354Q993 1424 1079.5 1426.0Q1166 1428 1233 1361L1557 1037Q1560 1035 1562 1037Q1564 1039 1563 1042L1562 1044Q1548 1086 1562.5 1130.5Q1577 1175 1609 1206Q1672 1270 1753.5 1267.0Q1835 1264 1894 1204Q1931 1167 1954 1117L2132 742Q2247 498 2216.0 283.5Q2185 69 2007 -109ZM1837 53Q1971 187 1991.5 326.0Q2012 465 1931 647L1762 1027Q1758 1036 1750.0 1038.5Q1742 1041 1735 1039Q1728 1036 1723.5 1028.0Q1719 1020 1724 1008L1820 761Q1834 724 1824.5 689.5Q1815 655 1792 632Q1764 602 1721.5 597.5Q1679 593 1642 630L1090 1182Q1084 1188 1075.5 1187.5Q1067 1187 1061 1181Q1055 1175 1055.5 1167.5Q1056 1160 1062 1154L1421 795Q1448 767 1448.0 728.5Q1448 690 1421 663Q1393 635 1354.0 634.5Q1315 634 1287 662L856 1093Q850 1099 842.0 1099.0Q834 1099 828 1093Q822 1087 822.0 1079.0Q822 1071 828 1065L1295 598Q1323 570 1323.0 531.5Q1323 493 1295 465Q1268 438 1229.0 437.5Q1190 437 1162 465L768 859Q762 865 754.0 865.0Q746 865 740 859Q734 853 734.0 845.0Q734 837 740 831L1164 406Q1192 379 1192.0 340.5Q1192 302 1164 274Q1137 246 1098.0 246.0Q1059 246 1031 273L752 553Q746 559 738.0 559.0Q730 559 724 553Q718 547 718.0 539.0Q718 531 724 525L1188 60Q1291 -43 1403.5 -77.5Q1516 -112 1627.0 -79.0Q1738 -46 1837 53ZM1264 1374Q1337 1440 1422.0 1444.0Q1507 1448 1574 1380L1771 1183L1620 1011L1438 1193Q1426 1204 1412.5 1204.5Q1399 1205 1389 1197Q1379 1189 1379.5 1173.0Q1380 1157 1389 1136L1231 1341Q1239 1349 1247.0 1357.5Q1255 1366 1264 1374ZM2291 -109Q2129 -271 1939.0 -312.5Q1749 -354 1567 -274L1829 -95Q1985 -83 2121 53Q2254 186 2274.5 325.5Q2295 465 2214 647L2046 1027Q2040 1041 2027 1041Q2017 1041 2010.5 1035.0Q2004 1029 2004 1019Q2004 1009 2007 1001L1864 1081Q1864 1085 1864.0 1088.5Q1864 1092 1864 1095Q1864 1167 1896.0 1204.0Q1928 1241 1967.5 1253.5Q2007 1266 2031 1267Q2100 1268 2154.0 1224.0Q2208 1180 2238 1117L2415 743Q2531 498 2500.0 283.5Q2469 69 2291 -109Z" transform="translate(-5.6484,16.9245) scale(0.011719,-0.011719)"/>
  </g>
</svg>
