<svg xmlns="http://www.w3.org/2000/svg" viewBox="0 0 37.7695 31.1602" width="29.0906" height="24.0000">
  <g fill="black" stroke="black" stroke-width="0.25">
    <path d="M250 -191Q250 -92 302.0 -4.0Q354 84 459 142L1862 932L3265 142Q3369 84 3421.0 -4.0Q3473 -92 3473 -191Q3473 -282 3431.5 -355.5Q3390 -429 3313.0 -472.5Q3236 -516 3131 -516H593Q487 -516 410.0 -472.5Q333 -429 291.5 -355.5Q250 -282 250 -191ZM669 -149Q669 -159 675.5 -166.5Q682 -174 696 -174H3027Q3041 -174 3047.5 -166.5Q3054 -159 3054 -149Q3054 -130 3034 -119L1862 540L689 -119Q669 -130 669 -149ZM1694 683V887Q1694 984 1725.0 1056.0Q1756 1128 1803.5 1180.5Q1851 1233 1901.5 1272.5Q1952 1312 1991 1343Q2031 1376 2062.0 1412.5Q2093 1449 2110.5 1490.0Q2128 1531 2128 1578Q2128 1683 2055.5 1748.0Q1983 1813 1863 1813Q1789 1813 1731.5 1780.0Q1674 1747 1639.5 1688.0Q1605 1629 1600 1551Q1594 1482 1551.5 1438.0Q1509 1394 1436 1394Q1363 1394 1317.0 1443.0Q1271 1492 1271 1578Q1271 1748 1345.0 1875.0Q1419 2002 1552.5 2072.5Q1686 2143 1863 2143Q2041 2143 2174.5 2072.0Q2308 2001 2382.0 1873.0Q2456 1745 2456 1574Q2456 1470 2418.0 1382.0Q2380 1294 2314.5 1219.0Q2249 1144 2169 1078Q2119 1037 2088.0 1004.0Q2057 971 2043.0 936.5Q2029 902 2029 859V683Z" transform="translate(-2.9297,25.1133) scale(0.011719,-0.011719)"/>
  </g>
</svg>
