<svg xmlns="http://www.w3.org/2000/svg" viewBox="0 0 52.0084 35.0273" width="35.6351" height="24.0000">
  <g fill="black" stroke="black" stroke-width="0.25">
    <path d="M1932 -405Q1599 -493 1324.0 -423.0Q1049 -353 854.0 -138.5Q659 76 567 423L334 1297Q277 1514 361.0 1658.0Q445 1802 666 1862L1898 2190Q2116 2248 2262.5 2165.5Q2409 2083 2467 1869L2700 992Q2792 647 2730.5 364.0Q2669 81 2466.5 -116.5Q2264 -314 1932 -405ZM1836 -43Q2059 16 2192.5 146.5Q2326 277 2364.0 467.0Q2402 657 2338 895L2107 1758Q2095 1809 2067.0 1826.0Q2039 1843 1989 1830L764 1499Q716 1486 700.5 1458.5Q685 1431 699 1381L929 517Q993 281 1121.0 136.0Q1249 -9 1430.5 -55.5Q1612 -102 1836 -43ZM1771 186Q1592 140 1435.0 194.5Q1278 249 1187 390Q1162 429 1184.0 459.0Q1206 489 1256 484Q1392 471 1506.5 493.5Q1621 516 1680 532Q1719 542 1782.5 562.0Q1846 582 1920.5 615.5Q1995 649 2068 699Q2108 730 2142.5 716.0Q2177 702 2176 655Q2169 488 2060.0 361.5Q1951 235 1771 186ZM1212 914Q1171 902 1149.0 883.5Q1127 865 1112.5 848.0Q1098 831 1080 826Q1059 822 1043.0 838.0Q1027 854 1017 888Q995 963 1036.5 1033.0Q1078 1103 1158 1124Q1211 1139 1261.0 1125.0Q1311 1111 1348.0 1075.0Q1385 1039 1398 988Q1406 955 1399.0 933.0Q1392 911 1372 905Q1354 901 1333.5 908.5Q1313 916 1284.0 921.0Q1255 926 1212 914ZM1891 1098Q1848 1086 1826.0 1067.5Q1804 1049 1789.5 1032.5Q1775 1016 1757 1011Q1737 1005 1720.5 1021.5Q1704 1038 1695 1072Q1672 1147 1713.5 1217.5Q1755 1288 1835 1308Q1914 1328 1984.5 1288.0Q2055 1248 2075 1171Q2083 1139 2076.0 1116.5Q2069 1094 2049 1088Q2031 1084 2010.5 1092.0Q1990 1100 1961.5 1104.5Q1933 1109 1891 1098ZM3128 -727Q2792 -635 2585.5 -431.5Q2379 -228 2325 64L2684 381Q2658 99 2797.5 -93.5Q2937 -286 3222 -363Q3445 -423 3626.0 -377.5Q3807 -332 3934.5 -187.0Q4062 -42 4126 195L4359 1059Q4373 1111 4357.5 1139.5Q4342 1168 4293 1181L3068 1507Q3019 1521 2991.5 1504.5Q2964 1488 2951 1439L2717 567L2431 946L2592 1547Q2652 1764 2797.0 1846.0Q2942 1928 3160 1870L4392 1540Q4612 1481 4698.0 1335.5Q4784 1190 4725 977L4489 101Q4396 -244 4202.0 -458.5Q4008 -673 3734.0 -743.5Q3460 -814 3128 -727ZM3134 652Q3066 670 3031.5 730.0Q2997 790 3015 857Q3033 924 3092.5 959.5Q3152 995 3219 978Q3287 958 3322.0 897.5Q3357 837 3340 771Q3321 703 3260.5 668.0Q3200 633 3134 652ZM3811 471Q3743 490 3708.0 550.0Q3673 610 3692 677Q3711 745 3771.0 779.5Q3831 814 3897 795Q3964 777 3999.0 717.5Q4034 658 4018 591Q3998 523 3938.0 488.5Q3878 454 3811 471ZM3326 30Q3234 54 3135.0 53.0Q3036 52 2941 35Q2894 27 2872.5 56.5Q2851 86 2874 122Q2955 249 3099.0 298.5Q3243 348 3399 305Q3558 263 3657.5 149.0Q3757 35 3764 -116Q3767 -160 3733.5 -174.5Q3700 -189 3663 -158Q3586 -95 3502.0 -45.5Q3418 4 3326 30Z" transform="translate(-3.6440,25.9446) scale(0.011719,-0.011719)"/>
  </g>
</svg>
