<svg xmlns="http://www.w3.org/2000/svg" viewBox="0 0 18.6562 13.2656" width="33.7527" height="24.0000">
  <g fill="black" stroke="black" stroke-width="0.25">
    <path d="M991 177Q958 177 922.5 187.0Q887 197 848 231L638 409Q631 409 624.0 409.0Q617 409 609 409Q488 409 406.5 449.0Q325 489 267 590Q218 589 187.0 613.5Q156 638 156 680Q156 717 184.0 740.5Q212 764 253 761Q304 919 405.0 989.5Q506 1060 628 1060Q717 1060 786.5 1035.5Q856 1011 923.0 969.5Q990 928 1072 875Q1110 855 1148.5 834.0Q1187 813 1221 813Q1247 813 1261.0 821.5Q1275 830 1290 842L1016 1026Q984 1048 950.0 1073.0Q916 1098 892.0 1122.0Q868 1146 868 1165Q868 1194 905.5 1216.5Q943 1239 992.5 1251.5Q1042 1264 1079 1264Q1150 1264 1219.5 1227.5Q1289 1191 1340 1113L1453 941Q1547 946 1613.0 905.0Q1679 864 1713.5 794.5Q1748 725 1748 645Q1748 542 1701.0 502.0Q1654 462 1574 462Q1491 462 1439.0 487.0Q1387 512 1342 541Q1318 529 1291.5 517.0Q1265 505 1240 494Q1217 500 1195.0 502.0Q1173 504 1151 504Q1123 504 1096.0 501.0Q1069 498 1044 494L1011 566Q951 694 853.0 755.0Q755 816 634 816Q594 816 563.0 805.5Q532 795 532 764Q532 725 576 725H639Q728 725 807.0 679.0Q886 633 931 538L991 406Q1028 413 1060.5 422.0Q1093 431 1155 431Q1234 431 1285.5 407.5Q1337 384 1363.0 346.5Q1389 309 1389 267Q1389 223 1357.0 200.0Q1325 177 1270 177Q1232 177 1206.5 185.5Q1181 194 1131 194Q1081 194 1049.0 185.5Q1017 177 991 177ZM584 132Q505 132 456.5 162.5Q408 193 408 243Q408 275 432.0 295.0Q456 315 498 315Q528 315 560.0 310.5Q592 306 610 306Q616 306 622.0 307.0Q628 308 633 308L783 180Q746 155 698.5 143.5Q651 132 584 132ZM1521 658Q1543 658 1559.0 674.5Q1575 691 1575 715Q1575 737 1559.5 752.5Q1544 768 1521 768Q1499 768 1483.0 751.5Q1467 735 1467 712Q1467 689 1483.0 673.5Q1499 658 1521 658Z" transform="translate(-1.8281,14.8125) scale(0.011719,-0.011719)"/>
  </g>
</svg>
