<svg xmlns="http://www.w3.org/2000/svg" viewBox="0 0 14.5557 15.7731" width="22.1476" height="24.0000">
  <g fill="black" stroke="black" stroke-width="0.25">
    <path d="M776 1180Q651 1180 559.0 1130.5Q467 1081 416.5 991.0Q366 901 366 777L365 771Q377 772 382 772Q430 772 461.5 741.0Q493 710 492 663V349Q493 302 461.5 271.0Q430 240 382 240Q352 240 327.5 253.5Q303 267 289 291Q245 292 201.0 322.0Q157 352 156 421V614Q157 643 166.5 668.5Q176 694 195 710V774Q196 946 269.0 1076.0Q342 1206 472.5 1278.5Q603 1351 776 1351Q950 1351 1081.5 1278.5Q1213 1206 1286.0 1076.0Q1359 946 1358 774V710Q1377 694 1388.0 669.0Q1399 644 1398 614V407Q1400 323 1319 296V280Q1320 200 1282.0 164.0Q1244 128 1188 118L909 71Q898 54 881.0 41.5Q864 29 844 27L744 7Q704 -1 671.5 23.5Q639 48 632 86Q625 125 648.0 158.0Q671 191 710 198L811 216Q850 223 884 198L1123 241Q1134 242 1138.0 243.0Q1142 244 1147 246Q1142 248 1138.0 248.5Q1134 249 1127 252Q1098 261 1080.5 288.0Q1063 315 1062 349V663Q1063 709 1093.5 740.5Q1124 772 1170 772Q1180 772 1189 770L1188 778Q1188 901 1137.5 991.5Q1087 1082 994.5 1131.0Q902 1180 776 1180Z" transform="translate(-1.8281,15.8320) scale(0.011719,-0.011719)"/>
  </g>
</svg>
