<svg xmlns="http://www.w3.org/2000/svg" viewBox="0 0 14.5547 14.7680" width="23.6534" height="24.0000">
  <g fill="black" stroke="black" stroke-width="0.25">
    <path d="M173 676Q173 873 250.5 1022.0Q328 1171 467.5 1253.5Q607 1336 792 1336Q978 1336 1118.0 1253.0Q1258 1170 1336.5 1021.5Q1415 873 1415 676Q1415 512 1377.5 389.0Q1340 266 1274 149Q1254 115 1216.5 105.5Q1179 96 1145 117Q1111 134 1100.5 171.5Q1090 209 1110 244Q1165 342 1195.0 438.5Q1225 535 1225 676Q1225 818 1171.0 924.0Q1117 1030 1020.0 1088.5Q923 1147 792 1147Q662 1147 565.5 1089.0Q469 1031 416.0 924.5Q363 818 363 676Q363 535 392.5 439.0Q422 343 475 244Q495 208 485.5 171.0Q476 134 442 117Q406 96 369.5 105.5Q333 115 312 149Q247 261 210.0 385.0Q173 509 173 676ZM399 178 322 454Q304 512 331.0 559.5Q358 607 417 623Q476 641 523.5 614.0Q571 587 588 527L665 252Q683 193 656.5 146.5Q630 100 570 83Q512 65 463.5 92.0Q415 119 399 178ZM1186 178Q1170 119 1122.5 92.5Q1075 66 1016 83Q956 100 929.5 146.0Q903 192 920 251L999 527Q1016 587 1063.0 614.0Q1110 641 1168 623Q1228 607 1254.5 560.0Q1281 513 1263 454Z" transform="translate(-2.0273,15.6562) scale(0.011719,-0.011719)"/>
  </g>
</svg>
