<svg xmlns="http://www.w3.org/2000/svg" viewBox="0 0 13.4180 15.3104" width="21.0335" height="24.0000">
  <g fill="black" stroke="black" stroke-width="0.25">
    <path d="M500 683Q500 616 478.0 564.0Q456 512 427.5 471.0Q399 430 377.0 395.0Q355 360 355 327Q355 284 366.5 258.5Q378 233 406 193Q438 151 429.5 112.5Q421 74 389.5 51.0Q358 28 318.0 30.5Q278 33 246 73Q200 132 178.0 190.5Q156 249 156 316Q156 386 177.5 437.0Q199 488 227.0 528.5Q255 569 276.5 605.5Q298 642 298 683Q298 724 276.5 761.0Q255 798 227.0 838.5Q199 879 177.5 930.0Q156 981 156 1051Q156 1117 178.0 1176.0Q200 1235 246 1294Q278 1334 318.0 1336.5Q358 1339 389.5 1316.0Q421 1293 429.5 1254.5Q438 1216 406 1174Q378 1134 366.5 1108.0Q355 1082 355 1040Q355 1007 377.0 972.0Q399 937 427.5 895.5Q456 854 478.0 802.0Q500 750 500 683ZM900 683Q900 616 878.0 564.0Q856 512 827.5 471.0Q799 430 777.0 395.0Q755 360 755 327Q755 284 766.5 258.5Q778 233 807 193Q838 151 829.5 112.5Q821 74 789.5 51.0Q758 28 718.0 30.5Q678 33 647 73Q601 132 578.5 190.5Q556 249 556 316Q556 386 577.5 437.0Q599 488 627.0 528.5Q655 569 676.5 605.5Q698 642 698 683Q698 724 676.5 761.0Q655 798 627.0 838.5Q599 879 577.5 930.0Q556 981 556 1051Q556 1117 578.5 1176.0Q601 1235 647 1294Q678 1334 718.0 1336.5Q758 1339 789.5 1316.0Q821 1293 829.5 1254.5Q838 1216 807 1174Q778 1134 766.5 1108.0Q755 1082 755 1040Q755 1007 777.0 972.0Q799 937 827.5 895.5Q856 854 878.0 802.0Q900 750 900 683ZM1301 683Q1301 616 1279.0 564.0Q1257 512 1228.0 471.0Q1199 430 1177.5 395.0Q1156 360 1156 327Q1156 284 1167.5 258.5Q1179 233 1207 193Q1239 151 1230.5 112.5Q1222 74 1190.0 51.0Q1158 28 1118.5 30.5Q1079 33 1047 73Q1001 132 979.0 190.5Q957 249 957 316Q957 386 978.5 437.0Q1000 488 1028.0 528.5Q1056 569 1077.5 605.5Q1099 642 1099 683Q1099 724 1077.5 761.0Q1056 798 1028.0 838.5Q1000 879 978.5 930.0Q957 981 957 1051Q957 1117 979.0 1176.0Q1001 1235 1047 1294Q1079 1334 1118.5 1336.5Q1158 1339 1190.0 1316.0Q1222 1293 1230.5 1254.5Q1239 1216 1207 1174Q1179 1134 1167.5 1108.0Q1156 1082 1156 1040Q1156 1007 1177.5 972.0Q1199 937 1228.0 895.5Q1257 854 1279.0 802.0Q1301 750 1301 683Z" transform="translate(-1.8281,15.6650) scale(0.011719,-0.011719)"/>
  </g>
</svg>
