<svg xmlns="http://www.w3.org/2000/svg" viewBox="0 0 14.1106 13.1862" width="25.6825" height="24.0000">
  <g fill="black" stroke="black" stroke-width="0.25">
    <path d="M170 1070 287 1229Q313 1263 347.5 1261.5Q382 1260 405 1229L518 1070Q541 1037 524.0 1000.5Q507 964 463 964H427V971Q427 922 442.5 889.5Q458 857 478.5 828.0Q499 799 514.5 762.5Q530 726 530 670Q530 614 510.5 573.5Q491 533 465.0 500.5Q439 468 419.5 435.5Q400 403 400 363Q400 336 408.0 317.0Q416 298 436 269Q462 235 455.0 204.0Q448 173 422.0 154.5Q396 136 363.0 138.0Q330 140 304 171Q270 216 253.5 261.5Q237 307 237 356Q237 430 256.5 477.0Q276 524 301.5 555.5Q327 587 346.5 613.0Q366 639 366 670Q366 702 350.5 726.0Q335 750 315.0 779.0Q295 808 280.0 853.0Q265 898 265 971V964H225Q180 964 163.5 1002.0Q147 1040 170 1070ZM591 1071 705 1229Q730 1264 764.5 1262.5Q799 1261 821 1229L934 1071Q958 1038 940.0 1001.5Q922 965 880 965H844V972Q844 923 859.5 890.5Q875 858 895.5 828.5Q916 799 931.5 762.5Q947 726 947 671Q947 614 927.5 574.0Q908 534 882.5 501.0Q857 468 838.0 435.5Q819 403 819 364Q819 337 825.5 317.5Q832 298 853 270Q879 235 871.5 204.0Q864 173 838.0 155.0Q812 137 779.5 139.0Q747 141 722 172Q688 217 671.0 262.0Q654 307 654 356Q654 430 673.5 477.5Q693 525 718.5 556.5Q744 588 763.5 613.5Q783 639 783 671Q783 702 767.5 726.0Q752 750 732.0 779.0Q712 808 697.0 853.0Q682 898 682 972V965H646Q602 965 586.0 1002.5Q570 1040 591 1071ZM1003 1071 1117 1230Q1142 1264 1176.5 1263.0Q1211 1262 1234 1230L1347 1071Q1371 1039 1353.0 1002.5Q1335 966 1293 966H1257V972Q1257 924 1272.5 891.0Q1288 858 1308.0 829.0Q1328 800 1343.5 763.5Q1359 727 1359 671Q1359 615 1340.0 574.5Q1321 534 1295.5 501.5Q1270 469 1250.5 436.5Q1231 404 1231 364Q1231 338 1238.0 318.5Q1245 299 1266 270Q1292 236 1285.0 204.5Q1278 173 1252.0 154.5Q1226 136 1193.0 138.5Q1160 141 1134 173Q1100 217 1083.0 262.0Q1066 307 1066 357Q1066 431 1085.5 478.5Q1105 526 1131.0 557.5Q1157 589 1176.5 614.5Q1196 640 1196 671Q1196 703 1180.5 727.0Q1165 751 1145.0 780.0Q1125 809 1110.0 854.0Q1095 899 1095 972V966H1059Q1014 966 998.5 1003.0Q983 1040 1003 1071Z" transform="translate(-1.8352,14.8011) scale(0.011719,-0.011719)"/>
  </g>
</svg>
