<svg xmlns="http://www.w3.org/2000/svg" viewBox="0 0 15.3281 16.5131" width="22.2778" height="24.0000">
  <g fill="black" stroke="black" stroke-width="0.25">
    <path d="M444 549H1127Q1223 549 1299.0 592.5Q1375 636 1419.5 711.0Q1464 786 1464 879Q1464 975 1419.5 1051.5Q1375 1128 1297.5 1172.0Q1220 1216 1122 1216Q1067 1320 975.0 1374.5Q883 1429 758 1429Q651 1429 561.0 1383.0Q471 1337 411.5 1255.5Q352 1174 338 1068Q254 1038 205.0 971.5Q156 905 156 817Q156 701 235.0 625.0Q314 549 444 549ZM613 53 776 338Q789 362 782.5 388.5Q776 415 752 429Q728 443 701.5 436.0Q675 429 661 406L498 119Q485 97 491.5 70.0Q498 43 523 29Q547 15 573.5 22.5Q600 30 613 53ZM1142 53 1306 338Q1319 362 1312.5 388.5Q1306 415 1282 429Q1257 443 1230.5 436.0Q1204 429 1191 406L1028 119Q1015 97 1021.0 70.0Q1027 43 1053 29Q1077 15 1103.5 22.5Q1130 30 1142 53ZM878 55 1041 340Q1055 364 1048.0 391.0Q1041 418 1018 432Q993 445 966.0 438.0Q939 431 926 408L763 123Q750 99 756.5 72.0Q763 45 788 31Q811 17 837.5 25.0Q864 33 878 55ZM348 55 511 340Q524 364 518.0 391.0Q512 418 487 432Q462 445 435.5 438.0Q409 431 396 408L233 123Q220 99 226.5 72.0Q233 45 257 31Q282 17 308.5 25.0Q335 33 348 55Z" transform="translate(-1.8281,16.7461) scale(0.011719,-0.011719)"/>
  </g>
</svg>
