<svg xmlns="http://www.w3.org/2000/svg" viewBox="0 0 14.6484 11.5430" width="30.4569" height="24.0000">
  <g fill="black" stroke="black" stroke-width="0.25">
    <path d="M781 582Q608 582 466.0 621.5Q324 661 240.0 729.0Q156 797 156 882Q156 966 240.0 1032.5Q324 1099 466.0 1137.5Q608 1176 781 1176Q954 1176 1095.5 1137.5Q1237 1099 1321.5 1032.5Q1406 966 1406 882Q1406 797 1321.5 729.0Q1237 661 1095.5 621.5Q954 582 781 582ZM781 191Q607 191 465.0 239.5Q323 288 239.5 371.5Q156 455 156 558V679Q218 617 314.5 574.5Q411 532 530.5 510.0Q650 488 781 488Q911 488 1030.5 510.0Q1150 532 1246.5 574.5Q1343 617 1406 679V558Q1406 455 1322.0 371.5Q1238 288 1096.5 239.5Q955 191 781 191Z" transform="translate(-1.8281,13.7812) scale(0.011719,-0.011719)"/>
  </g>
</svg>
