<svg xmlns="http://www.w3.org/2000/svg" viewBox="0 0 55.2773 28.5340" width="46.4939" height="24.0000">
  <g fill="black" stroke="black" stroke-width="0.25">
    <path d="M3810 1217Q3777 1275 3794.0 1340.5Q3811 1406 3869 1440L4633 1879Q4690 1912 4755.5 1894.5Q4821 1877 4854 1820Q4887 1762 4870.0 1696.5Q4853 1631 4795 1597L4031 1158Q3974 1125 3908.5 1142.5Q3843 1160 3810 1217ZM3823 683Q3823 750 3871.0 797.5Q3919 845 3985 845H4865Q4932 845 4980.0 797.5Q5028 750 5028 683Q5028 617 4980.0 569.0Q4932 521 4865 521H3985Q3919 521 3871.0 569.0Q3823 617 3823 683ZM3810 150Q3844 208 3909.5 225.0Q3975 242 4031 208L4795 -232Q4853 -266 4870.0 -331.0Q4887 -396 4854 -453Q4820 -511 4754.5 -528.5Q4689 -546 4633 -511L3869 -72Q3811 -38 3794.0 27.0Q3777 92 3810 150ZM507 201V570H1557Q1711 570 1872.0 544.0Q2033 518 2194.0 466.0Q2355 414 2509.5 338.0Q2664 262 2807.0 163.0Q2950 64 3074 -57Q3109 -92 3134.5 -83.0Q3160 -74 3160 -31V1398Q3160 1440 3134.5 1449.0Q3109 1458 3074 1424Q2950 1303 2807.0 1203.5Q2664 1104 2509.5 1028.0Q2355 952 2194.0 900.5Q2033 849 1872.0 822.5Q1711 796 1557 796H507V1166H1557Q1695 1166 1834.5 1192.0Q1974 1218 2112.0 1269.5Q2250 1321 2385.5 1395.0Q2521 1469 2651.5 1565.0Q2782 1661 2906 1777Q3006 1870 3115.0 1891.5Q3224 1913 3318.0 1872.5Q3412 1832 3471.0 1739.5Q3530 1647 3530 1513V-147Q3530 -281 3471.0 -373.0Q3412 -465 3318.0 -505.5Q3224 -546 3115.0 -525.0Q3006 -504 2906 -411Q2826 -335 2742.0 -268.0Q2658 -201 2571.5 -143.5Q2485 -86 2397.0 -38.0Q2309 10 2221 48Q2170 69 2098.0 105.5Q2026 142 1952.0 171.5Q1878 201 1821 201ZM496 1Q419 1 365.0 55.0Q311 109 311 186V1182Q311 1259 365.0 1313.0Q419 1367 496 1367Q573 1367 627.0 1313.0Q681 1259 681 1182V186Q681 109 627.0 55.0Q573 1 496 1ZM787 88Q787 202 843.5 296.5Q900 391 994.5 447.5Q1089 504 1204 504H1896Q2010 504 2104.5 447.5Q2199 391 2255.5 296.5Q2312 202 2312 88Q2312 -26 2255.5 -121.0Q2199 -216 2104.5 -272.5Q2010 -329 1896 -329H1204Q1089 -329 994.5 -272.5Q900 -216 843.5 -121.0Q787 -26 787 88ZM1100 88Q1100 60 1114.0 37.0Q1128 14 1152.0 0.0Q1176 -14 1204 -14H1896Q1924 -14 1947.5 0.0Q1971 14 1985.0 37.0Q1999 60 1999 88Q1999 116 1985.0 139.5Q1971 163 1947.5 177.5Q1924 192 1896 192H1204Q1176 192 1152.0 177.5Q1128 163 1114.0 139.5Q1100 116 1100 88Z" transform="translate(-3.6445,22.2722) scale(0.011719,-0.011719)"/>
  </g>
</svg>
