<svg xmlns="http://www.w3.org/2000/svg" viewBox="0 0 32.5547 32.3759" width="24.1326" height="24.0000">
  <g fill="black" stroke="black" stroke-width="0.25">
    <path d="M1415 -700Q1165 -700 961.5 -616.0Q758 -532 612.5 -379.5Q467 -227 389.0 -18.0Q311 191 311 441V704Q311 832 394.0 935.5Q477 1039 631.5 1113.0Q786 1187 1001.0 1226.5Q1216 1266 1480 1266Q1743 1266 1958.0 1226.5Q2173 1187 2327.5 1113.0Q2482 1039 2565.0 935.5Q2648 832 2648 704V441Q2648 188 2569.5 -21.5Q2491 -231 2345.5 -382.5Q2200 -534 1996.5 -617.0Q1793 -700 1543 -700ZM1480 458Q1657 458 1811.0 478.0Q1965 498 2081.5 532.5Q2198 567 2264.0 611.0Q2330 655 2330 704Q2330 751 2264.5 795.0Q2199 839 2082.0 873.5Q1965 908 1811.0 927.5Q1657 947 1480 947Q1302 947 1148.0 927.5Q994 908 877.0 873.5Q760 839 694.5 795.0Q629 751 629 704Q629 655 695.0 611.0Q761 567 877.5 532.5Q994 498 1148.5 478.0Q1303 458 1480 458ZM2468 -104V195H2602Q2694 195 2741.5 228.5Q2789 262 2789 324Q2789 384 2742.0 417.0Q2695 450 2602 450H2468V749H2602Q2828 749 2958.5 635.0Q3089 521 3089 324Q3089 124 2959.0 10.0Q2829 -104 2602 -104ZM1264 1409Q1264 1342 1242.0 1290.0Q1220 1238 1191.5 1197.0Q1163 1156 1141.0 1121.0Q1119 1086 1119 1052Q1119 1010 1130.5 984.0Q1142 958 1170 918Q1202 877 1193.5 838.5Q1185 800 1153.5 776.5Q1122 753 1082.0 756.0Q1042 759 1010 799Q964 857 942.0 916.0Q920 975 920 1041Q920 1111 941.5 1162.5Q963 1214 991.0 1254.5Q1019 1295 1040.5 1331.5Q1062 1368 1062 1409Q1062 1450 1040.5 1487.0Q1019 1524 991.0 1564.0Q963 1604 941.5 1655.5Q920 1707 920 1777Q920 1843 942.0 1902.0Q964 1961 1010 2019Q1042 2060 1082.0 2062.5Q1122 2065 1153.5 2041.5Q1185 2018 1193.5 1980.0Q1202 1942 1170 1900Q1142 1860 1130.5 1834.0Q1119 1808 1119 1766Q1119 1733 1141.0 1698.0Q1163 1663 1191.5 1621.5Q1220 1580 1242.0 1528.0Q1264 1476 1264 1409ZM1664 1409Q1664 1342 1642.0 1290.0Q1620 1238 1591.5 1197.0Q1563 1156 1541.0 1121.0Q1519 1086 1519 1052Q1519 1010 1530.5 984.0Q1542 958 1571 918Q1602 877 1593.5 838.5Q1585 800 1553.5 776.5Q1522 753 1482.0 756.0Q1442 759 1411 799Q1365 857 1342.5 916.0Q1320 975 1320 1041Q1320 1111 1341.5 1162.5Q1363 1214 1391.0 1254.5Q1419 1295 1440.5 1331.5Q1462 1368 1462 1409Q1462 1450 1440.5 1487.0Q1419 1524 1391.0 1564.0Q1363 1604 1341.5 1655.5Q1320 1707 1320 1777Q1320 1843 1342.5 1902.0Q1365 1961 1411 2019Q1442 2060 1482.0 2062.5Q1522 2065 1553.5 2041.5Q1585 2018 1593.5 1980.0Q1602 1942 1571 1900Q1542 1860 1530.5 1834.0Q1519 1808 1519 1766Q1519 1733 1541.0 1698.0Q1563 1663 1591.5 1621.5Q1620 1580 1642.0 1528.0Q1664 1476 1664 1409ZM2065 1409Q2065 1342 2043.0 1290.0Q2021 1238 1992.0 1197.0Q1963 1156 1941.5 1121.0Q1920 1086 1920 1052Q1920 1010 1931.5 984.0Q1943 958 1971 918Q2003 877 1994.5 838.5Q1986 800 1954.0 776.5Q1922 753 1882.5 756.0Q1843 759 1811 799Q1765 857 1743.0 916.0Q1721 975 1721 1041Q1721 1111 1742.5 1162.5Q1764 1214 1792.0 1254.5Q1820 1295 1841.5 1331.5Q1863 1368 1863 1409Q1863 1450 1841.5 1487.0Q1820 1524 1792.0 1564.0Q1764 1604 1742.5 1655.5Q1721 1707 1721 1777Q1721 1843 1743.0 1902.0Q1765 1961 1811 2019Q1843 2060 1882.5 2062.5Q1922 2065 1954.0 2041.5Q1986 2018 1994.5 1980.0Q2003 1942 1971 1900Q1943 1860 1931.5 1834.0Q1920 1808 1920 1766Q1920 1733 1941.5 1698.0Q1963 1663 1992.0 1621.5Q2021 1580 2043.0 1528.0Q2065 1476 2065 1409Z" transform="translate(-3.6445,24.1727) scale(0.011719,-0.011719)"/>
  </g>
</svg>
