<svg xmlns="http://www.w3.org/2000/svg" viewBox="0 0 14.8008 17.9062" width="19.8377" height="24.0000">
  <g fill="black" stroke="black" stroke-width="0.25">
    <path d="M504 -62Q408 -62 329.0 -16.5Q250 29 203.0 106.5Q156 184 156 280Q156 350 181.5 411.0Q207 472 257 519Q267 526 268.5 532.0Q270 538 270 549V999Q270 1111 335.0 1180.5Q400 1250 504 1250Q608 1250 673.0 1180.5Q738 1111 738 999V549Q738 531 749 519Q800 470 825.5 410.0Q851 350 851 280Q851 184 804.5 106.5Q758 29 679.0 -16.5Q600 -62 504 -62ZM504 82Q560 82 606.0 109.5Q652 137 679.5 183.0Q707 229 707 285Q707 341 682.5 383.5Q658 426 615 455Q591 468 591 496V994Q591 1044 567.5 1073.5Q544 1103 504 1103Q465 1103 440.5 1073.5Q416 1044 416 994V496Q416 468 394 455Q351 426 326.5 383.5Q302 341 302 285Q302 229 329.5 183.0Q357 137 402.5 109.5Q448 82 504 82ZM504 157Q451 157 414.0 194.5Q377 232 377 286Q377 323 396.0 352.0Q415 381 444 397Q458 404 463.0 412.0Q468 420 468 440V951Q468 971 478.5 982.5Q489 994 504 994Q519 994 529.5 982.5Q540 971 540 951V440Q540 420 545.0 412.0Q550 404 562 397Q594 381 612.5 352.0Q631 323 631 286Q631 233 594.0 195.0Q557 157 504 157ZM815 1232Q787 1232 767.0 1252.5Q747 1273 747 1301V1397Q747 1426 767.0 1446.0Q787 1466 815 1466Q842 1466 862.0 1446.0Q882 1426 882 1397V1301Q882 1273 862.0 1252.5Q842 1232 815 1232ZM1078 1122Q1058 1143 1058.5 1171.5Q1059 1200 1079 1220L1148 1287Q1168 1307 1195.5 1307.5Q1223 1308 1243 1288Q1263 1268 1263.0 1240.0Q1263 1212 1243 1192L1174 1123Q1154 1104 1125.5 1103.5Q1097 1103 1078 1122ZM1255 793Q1226 793 1206.0 812.5Q1186 832 1186 859Q1186 887 1206.0 908.0Q1226 929 1255 929H1351Q1378 929 1398.5 908.5Q1419 888 1419 860Q1419 833 1398.5 813.0Q1378 793 1351 793ZM1148 432 1079 501Q1059 520 1058.5 548.0Q1058 576 1078 596Q1097 616 1125.0 616.0Q1153 616 1173 596L1242 527Q1262 508 1262.0 479.5Q1262 451 1243 432Q1223 411 1195.0 411.5Q1167 412 1148 432ZM832 559 833 999Q833 1086 796 1159Q802 1160 815 1160Q897 1160 965.0 1120.0Q1033 1080 1073.0 1011.5Q1113 943 1113 859Q1113 779 1075.5 711.5Q1038 644 974.0 602.5Q910 561 832 559Z" transform="translate(-1.8281,17.1797) scale(0.011719,-0.011719)"/>
  </g>
</svg>
