<svg xmlns="http://www.w3.org/2000/svg" viewBox="0 0 10.1484 15.5508" width="15.6624" height="24.0000">
  <g fill="black" stroke="black" stroke-width="0.25">
    <path d="M304 20Q235 20 195.5 59.0Q156 98 156 168V178Q156 246 185.0 312.0Q214 378 256.5 435.0Q299 492 340.5 536.5Q382 581 408 606Q444 642 444.0 684.5Q444 727 408 762Q382 788 340.5 832.0Q299 876 256.5 933.0Q214 990 185.0 1055.5Q156 1121 156 1190V1199Q156 1269 195.5 1308.0Q235 1347 304 1347H875Q944 1347 983.0 1308.0Q1022 1269 1022 1199V1190Q1022 1121 993.0 1055.5Q964 990 921.5 933.0Q879 876 837.5 832.0Q796 788 770 762Q735 727 734.5 684.5Q734 642 770 606Q796 581 837.5 536.5Q879 492 921.5 435.0Q964 378 993.0 312.0Q1022 246 1022 178V168Q1022 98 983.0 59.0Q944 20 875 20ZM378 172H800Q829 172 836.5 197.5Q844 223 824 242L653 417Q640 432 635.0 440.5Q630 449 630 473V726Q630 784 671 824Q697 847 729.5 879.5Q762 912 787 940Q806 960 799.0 981.5Q792 1003 764 1003H414Q386 1003 379.0 981.5Q372 960 391 940Q416 912 448.5 879.5Q481 847 507 824Q548 784 548 726V473Q548 449 543.5 440.5Q539 432 525 417L354 242Q334 223 342.0 197.5Q350 172 378 172Z" transform="translate(-1.8281,15.7852) scale(0.011719,-0.011719)"/>
  </g>
</svg>
