<svg xmlns="http://www.w3.org/2000/svg" viewBox="0 0 16.3125 11.7070" width="33.4414" height="24.0000">
  <g fill="black" stroke="black" stroke-width="0.25">
    <path d="M270 677Q235 660 209.0 669.0Q183 678 170.5 701.5Q158 725 164.0 751.5Q170 778 200 794L635 1027Q703 1064 771 1027L1205 794Q1235 778 1241.0 751.5Q1247 725 1235.0 701.5Q1223 678 1197.0 669.0Q1171 660 1136 677L714 899Q704 905 692 899ZM206 206Q187 206 171.5 220.5Q156 235 156 255Q156 276 171.5 290.5Q187 305 206 305H293Q291 311 291 324V612Q299 615 309.0 619.0Q319 623 329 628L704 820L1078 628Q1087 623 1096.0 619.0Q1105 615 1115 612V324Q1115 311 1114 305H1451Q1471 305 1486.0 290.5Q1501 276 1501 255Q1501 235 1486.0 220.5Q1471 206 1451 206ZM573 331H835V571Q835 606 800 606H608Q573 606 573 571ZM1189 279V1147Q1189 1181 1219 1195Q1233 1201 1245.5 1203.0Q1258 1205 1280 1205Q1333 1205 1372.0 1188.0Q1411 1171 1457 1171Q1478 1171 1491.5 1175.5Q1505 1180 1515 1180Q1548 1180 1548 1150V960Q1548 925 1518 912Q1506 907 1493.0 904.5Q1480 902 1459 902Q1411 902 1374.5 919.0Q1338 936 1295 936Q1293 936 1291.5 936.0Q1290 936 1289 936V279Z" transform="translate(-1.8281,14.1211) scale(0.011719,-0.011719)"/>
  </g>
</svg>
