<svg xmlns="http://www.w3.org/2000/svg" viewBox="0 0 17.0156 14.6484" width="27.8784" height="24.0000">
  <g fill="black" stroke="black" stroke-width="0.25">
    <path d="M358 239V602L845 1010Q882 1042 919 1010L1406 602V239Q1406 172 1363.5 132.5Q1321 93 1250 93H514Q443 93 400.5 132.5Q358 172 358 239ZM1034 247V560Q1034 606 989 606H775Q729 606 729 560V247ZM156 745Q156 786 191 814L770 1300Q821 1343 883.0 1343.0Q945 1343 995 1300L1574 816Q1608 787 1608 745Q1608 707 1584.0 685.0Q1560 663 1521 663Q1504 663 1486.5 670.5Q1469 678 1454 691L918 1142Q901 1155 882.5 1155.5Q864 1156 847 1142L310 691Q295 678 278.0 670.5Q261 663 243 663Q203 663 179.5 686.0Q156 709 156 745ZM1198 1078V1200Q1198 1245 1244 1245H1368Q1413 1245 1413 1200V897Z" transform="translate(-1.8281,15.7383) scale(0.011719,-0.011719)"/>
  </g>
</svg>
