<svg xmlns="http://www.w3.org/2000/svg" viewBox="0 0 10.6406 17.2383" width="14.8144" height="24.0000">
  <g fill="black" stroke="black" stroke-width="0.25">
    <path d="M236 682Q236 844 294.0 979.0Q352 1114 453.5 1212.0Q555 1310 688.5 1364.0Q822 1418 972 1418Q1012 1418 1038.0 1391.5Q1064 1365 1064 1328Q1064 1290 1038.0 1263.5Q1012 1237 972 1237Q883 1237 801.5 1214.5Q720 1192 650.5 1149.0Q581 1106 528 1046Q548 1052 568.5 1054.5Q589 1057 610 1057Q712 1057 797.0 1006.0Q882 955 933.5 870.0Q985 785 985 682Q985 520 927.0 385.0Q869 250 767.0 152.0Q665 54 531.5 0.5Q398 -53 248 -53Q208 -53 182.0 -26.5Q156 0 156 36Q156 74 182.0 100.5Q208 127 248 127Q337 127 418.5 149.5Q500 172 569.5 215.0Q639 258 692 319Q672 313 652.0 310.0Q632 307 610 307Q508 307 423.0 358.0Q338 409 287.0 494.5Q236 580 236 682ZM500 682Q500 637 532.5 604.5Q565 572 610 572Q656 572 688.0 605.0Q720 638 720 682Q720 728 688.0 760.5Q656 793 610 793Q565 793 532.5 760.5Q500 728 500 682Z" transform="translate(-1.8281,16.6172) scale(0.011719,-0.011719)"/>
  </g>
</svg>
