<svg xmlns="http://www.w3.org/2000/svg" viewBox="0 0 41.6721 35.6719" width="28.0369" height="24.0000">
  <g fill="black" stroke="black" stroke-width="0.25">
    <path d="M1507 -630Q1463 -630 1439.5 -604.5Q1416 -579 1413.5 -543.0Q1411 -507 1428.5 -475.5Q1446 -444 1486 -431L1637 -382L1532 72Q1520 125 1528.5 168.5Q1537 212 1560 251L1742 560Q1612 612 1491.0 692.0Q1370 772 1280.5 878.5Q1191 985 1156 1116Q1151 1133 1138.0 1139.5Q1125 1146 1097 1141L497 1031Q420 1016 372.0 1057.5Q324 1099 313 1157Q304 1213 333.5 1266.5Q363 1320 437 1333L2485 1708Q2560 1721 2608.0 1681.5Q2656 1642 2668 1587Q2680 1531 2650.0 1474.5Q2620 1418 2541 1404L1805 1273Q1787 1270 1779.5 1257.0Q1772 1244 1780 1224Q1798 1178 1844.5 1138.0Q1891 1098 1951.5 1065.5Q2012 1033 2074.5 1011.0Q2137 989 2189 979L2675 954L3452 1092Q3503 1101 3537.5 1078.5Q3572 1056 3581 1002L3643 651Q3651 608 3629.5 580.5Q3608 553 3573.0 544.5Q3538 536 3503.5 548.5Q3469 561 3450 596L3363 760L2232 555L1852 86L1980 -474Q1997 -547 1965.0 -588.5Q1933 -630 1872 -630ZM1286 1603Q1203 1603 1135.0 1644.0Q1067 1685 1026.5 1753.5Q986 1822 986 1905Q986 1988 1026.5 2056.0Q1067 2124 1135.0 2164.5Q1203 2205 1286 2205Q1369 2205 1437.5 2164.5Q1506 2124 1546.5 2056.0Q1587 1988 1587 1905Q1587 1822 1546.5 1753.5Q1506 1685 1437.5 1644.0Q1369 1603 1286 1603ZM1414 -839Q1390 -839 1373.0 -822.0Q1356 -805 1356 -781Q1356 -756 1373.0 -739.5Q1390 -723 1414 -723H1933Q1957 -723 1974.0 -739.5Q1991 -756 1991 -781Q1991 -805 1974.0 -822.0Q1957 -839 1933 -839ZM3866 586Q3870 562 3856.5 542.5Q3843 523 3820 519Q3795 514 3775.5 527.5Q3756 541 3751 566L3662 1077Q3657 1101 3671.0 1120.0Q3685 1139 3709 1144Q3733 1148 3752.5 1134.5Q3772 1121 3776 1098Z" transform="translate(-3.6433,25.8398) scale(0.011719,-0.011719)"/>
  </g>
</svg>
