<svg xmlns="http://www.w3.org/2000/svg" viewBox="0 0 34.9570 33.3750" width="25.1376" height="24.0000">
  <g fill="black" stroke="black" stroke-width="0.25">
    <path d="M774 -741Q553 -741 432.0 -621.5Q311 -502 311 -285V621L691 401H1591Q1591 358 1615.0 311.5Q1639 265 1686.5 232.5Q1734 200 1803 200Q1871 200 1918.5 232.5Q1966 265 1990.5 311.5Q2015 358 2015 401H2915L3294 621V-285Q3294 -500 3172.5 -620.5Q3051 -741 2830 -741ZM1803 -158Q1681 -158 1581.5 -115.5Q1482 -73 1411.0 0.5Q1340 74 1306 167H691V-252Q691 -319 722.0 -348.0Q753 -377 815 -377H2791Q2852 -377 2883.5 -348.0Q2915 -319 2915 -252V167H2300Q2265 74 2194.5 0.5Q2124 -73 2024.0 -115.5Q1924 -158 1803 -158ZM775 166Q554 166 432.5 286.0Q311 406 311 621V1307Q311 1431 345.5 1511.5Q380 1592 468 1652L871 1945Q955 2004 1030.0 2040.0Q1105 2076 1183.5 2091.5Q1262 2107 1357 2107H2249Q2343 2107 2422.0 2091.5Q2501 2076 2576.0 2040.0Q2651 2004 2735 1945L3137 1652Q3225 1592 3259.5 1511.5Q3294 1431 3294 1307V621Q3294 406 3173.0 286.0Q3052 166 2830 166ZM1803 1106Q1871 1106 1918.5 1139.0Q1966 1172 1990.5 1221.5Q2015 1271 2015 1321V1324Q2015 1356 2037.0 1379.5Q2059 1403 2111 1403H2854Q2880 1403 2883.0 1423.5Q2886 1444 2869 1457L2464 1750Q2430 1776 2398.5 1789.5Q2367 1803 2314 1803H1291Q1239 1803 1207.5 1789.5Q1176 1776 1141 1750L736 1457Q719 1444 722.5 1423.5Q726 1403 751 1403H1495Q1547 1403 1569.0 1379.5Q1591 1356 1591 1324V1321Q1591 1271 1615.0 1221.5Q1639 1172 1686.5 1139.0Q1734 1106 1803 1106ZM1803 749Q1681 749 1581.5 791.5Q1482 834 1411.0 907.5Q1340 981 1306 1073H691V654Q691 588 722.0 558.5Q753 529 815 529H2791Q2852 529 2883.5 558.5Q2915 588 2915 654V1073H2300Q2265 981 2194.5 907.5Q2124 834 2024.0 791.5Q1924 749 1803 749Z" transform="translate(-3.6445,24.6914) scale(0.011719,-0.011719)"/>
  </g>
</svg>
