<svg xmlns="http://www.w3.org/2000/svg" viewBox="0 0 37.4182 36.9033" width="24.3348" height="24.0000">
  <g fill="black" stroke="black" stroke-width="0.25">
    <path d="M330 -821Q280 -774 281.0 -707.5Q282 -641 329 -594L815 -108L1039 -330L551 -816Q504 -862 440.5 -864.0Q377 -866 330 -821ZM709 -155Q591 -38 595.0 108.5Q599 255 722 378L1968 1624L2201 1392L977 167Q948 139 948.0 104.0Q948 69 977 42L1191 -170Q1219 -199 1253.0 -200.0Q1287 -201 1315 -174L2541 1052L2773 819L1529 -425Q1405 -548 1258.5 -552.0Q1112 -556 995 -440ZM966 419 1071 523 1350 244Q1372 222 1373.0 191.5Q1374 161 1351 139Q1328 117 1297.5 116.5Q1267 116 1245 139ZM1228 680 1331 784 1612 505Q1634 484 1634.5 453.0Q1635 422 1613 400Q1590 378 1560.0 378.0Q1530 378 1507 400ZM1489 942 1593 1047 1873 766Q1894 744 1894.5 714.0Q1895 684 1874 662Q1851 640 1821.5 640.5Q1792 641 1769 662ZM1751 1203 1855 1307 2135 1028Q2157 1006 2157.5 975.0Q2158 944 2135 923Q2113 901 2082.0 900.5Q2051 900 2030 923ZM1762 1694Q1701 1754 1701.5 1838.0Q1702 1922 1762 1982Q1822 2042 1905.5 2043.0Q1989 2044 2051 1982L3131 902Q3191 842 3190.5 757.5Q3190 673 3131 614Q3070 553 2986.0 553.0Q2902 553 2842 614ZM2020 1677 2252 1909Q2312 1970 2396.0 1970.0Q2480 1970 2541 1909L2687 1763L2779 1855L2697 1937Q2637 1996 2637.5 2081.0Q2638 2166 2697 2225Q2757 2285 2841.0 2285.0Q2925 2285 2986 2225L3414 1797Q3474 1736 3474.0 1652.0Q3474 1568 3414 1508Q3355 1449 3270.0 1448.5Q3185 1448 3126 1508L3045 1590L2953 1496L3056 1394Q3117 1333 3117.0 1249.0Q3117 1165 3056 1105L2824 872Z" transform="translate(-3.2927,26.7773) scale(0.011719,-0.011719)"/>
  </g>
</svg>
