<svg xmlns="http://www.w3.org/2000/svg" viewBox="0 0 19.3125 15.1172" width="30.6605" height="24.0000">
  <g fill="black" stroke="black" stroke-width="0.25">
    <path d="M573 212V1155Q573 1230 625.0 1279.0Q677 1328 756 1328H1204Q1283 1328 1334.5 1279.0Q1386 1230 1386 1155V212Q1386 136 1334.5 87.0Q1283 38 1204 38H756Q677 38 625.0 87.0Q573 136 573 212ZM724 284H1236V1083H724ZM981 118Q1002 118 1017.0 133.5Q1032 149 1032 171Q1032 193 1017.0 208.0Q1002 223 981 223Q959 223 943.5 208.0Q928 193 928 171Q928 149 943.5 133.5Q959 118 981 118ZM853 1200Q853 1189 859.5 1183.0Q866 1177 875 1177H1084Q1095 1177 1101.0 1183.0Q1107 1189 1107 1200Q1107 1224 1084 1224H875Q853 1224 853 1200ZM344 387Q332 369 308.5 369.0Q285 369 266 387Q213 447 184.5 523.0Q156 599 156 683Q156 767 184.5 843.5Q213 920 266 979Q285 997 308.5 997.0Q332 997 344 980Q359 964 357.0 943.5Q355 923 338 903Q256 811 256 683Q256 555 338 463Q355 443 357.0 422.5Q359 402 344 387ZM496 506Q481 486 456.0 487.5Q431 489 416 511Q358 587 358 683Q358 779 416 855Q431 877 456.0 878.5Q481 880 496 860Q521 830 492 785Q461 744 461 683Q461 623 492 582Q521 536 496 506ZM1464 506Q1439 536 1468 582Q1499 623 1499 683Q1499 744 1468 785Q1439 830 1464 860Q1479 880 1504.0 878.5Q1529 877 1544 855Q1602 779 1602 683Q1602 587 1544 511Q1529 489 1504.0 487.5Q1479 486 1464 506ZM1616 387Q1601 402 1603.5 422.5Q1606 443 1622 463Q1704 555 1704 683Q1704 811 1622 903Q1606 923 1603.5 943.5Q1601 964 1616 980Q1628 997 1651.5 997.0Q1675 997 1694 979Q1747 920 1775.5 843.5Q1804 767 1804 683Q1804 599 1775.5 523.0Q1747 447 1694 387Q1675 369 1651.5 369.0Q1628 369 1616 387Z" transform="translate(-1.8281,15.5625) scale(0.011719,-0.011719)"/>
  </g>
</svg>
