<svg xmlns="http://www.w3.org/2000/svg" viewBox="0 0 8.4492 8.7188" width="23.2581" height="24.0000">
  <g fill="black" stroke="black" stroke-width="0.25">
    <path d="M307 938Q307 1000 350.5 1044.0Q394 1088 457 1088Q519 1088 562.5 1044.0Q606 1000 606 938Q606 889 577.5 850.0Q549 811 505 796V607Q505 573 487.5 537.0Q470 501 457 501Q443 501 425.5 537.0Q408 573 408 607V796Q364 812 335.5 850.5Q307 889 307 938ZM415 929Q436 929 451.0 944.0Q466 959 466 980Q466 1001 451.0 1016.0Q436 1031 415 1031Q395 1031 379.5 1016.0Q364 1001 364 980Q364 959 379.5 944.0Q395 929 415 929ZM456 344Q350 344 268.5 367.5Q187 391 141.0 432.0Q95 473 95 527Q95 570 126.5 607.0Q158 644 214.5 669.0Q271 694 344 702V604Q302 599 269.0 587.5Q236 576 217.5 560.5Q199 545 199 527Q199 489 270.5 465.5Q342 442 456 442Q569 442 640.5 465.5Q712 489 712 527Q712 545 693.5 560.5Q675 576 642.0 587.5Q609 599 567 604V702Q640 694 696.5 669.0Q753 644 784.5 607.0Q816 570 816 527Q816 473 770.0 432.0Q724 391 643.0 367.5Q562 344 456 344Z" transform="translate(-1.1133,12.7500) scale(0.011719,-0.011719)"/>
  </g>
</svg>
