<svg xmlns="http://www.w3.org/2000/svg" viewBox="0 0 17.2097 13.0122" width="31.7419" height="24.0000">
  <g fill="black" stroke="black" stroke-width="0.25">
    <path d="M722 1044 614 1169Q587 1202 617 1229L674 1275Q706 1298 736 1270L844 1153Q857 1138 855.0 1122.0Q853 1106 842 1096L781 1039Q765 1026 750.0 1026.5Q735 1027 722 1044ZM1060 1044Q1046 1027 1031.0 1026.5Q1016 1026 1000 1039L939 1096Q929 1106 926.5 1122.0Q924 1138 938 1153L1046 1270Q1075 1298 1107 1275L1163 1229Q1194 1202 1167 1169ZM602 175Q560 175 532.5 186.5Q505 198 489 219L484 225L479 217Q462 198 436.0 194.5Q410 191 377 199L240 238Q186 251 167.0 288.5Q148 326 162 379L339 1010Q353 1061 379.5 1092.5Q406 1124 457 1141L508 1161L674 954Q703 918 739.5 915.0Q776 912 809 948L841 979V175ZM652 455 736 516Q751 526 754.0 543.5Q757 561 746 578Q735 592 716.5 595.0Q698 598 684 586L601 526Q585 515 583.0 497.5Q581 480 590 464Q601 449 619.0 446.0Q637 443 652 455ZM940 175V979L971 948Q1005 912 1041.5 915.0Q1078 918 1107 954L1273 1161L1324 1141Q1374 1124 1400.5 1092.5Q1427 1061 1441 1010L1618 379Q1633 326 1614.0 288.5Q1595 251 1541 238L1404 199Q1371 191 1345.0 194.5Q1319 198 1302 217L1296 225L1292 219Q1276 198 1248.0 186.5Q1220 175 1179 175ZM1130 455Q1145 443 1163.0 446.0Q1181 449 1192 464Q1202 480 1199.5 497.5Q1197 515 1181 526L1098 586Q1084 598 1065.5 595.0Q1047 592 1036 578Q1025 561 1028.0 543.5Q1031 526 1046 516Z" transform="translate(-1.8288,15.0630) scale(0.011719,-0.011719)"/>
  </g>
</svg>
