<svg xmlns="http://www.w3.org/2000/svg" viewBox="0 0 44.5118 28.8633" width="37.0119" height="24.0000">
  <g fill="black" stroke="black" stroke-width="0.25">
    <path d="M954 -549Q597 -549 436.5 -351.0Q276 -153 321 214L455 1323Q490 1616 645.0 1765.0Q800 1914 1069 1914H3351Q3621 1914 3776.0 1765.0Q3931 1616 3966 1323L4100 214Q4144 -153 3984.0 -351.0Q3824 -549 3467 -549ZM954 -157H3467Q3605 -157 3666.5 -66.5Q3728 24 3709 180L3576 1275Q3561 1397 3504.5 1459.5Q3448 1522 3351 1522H1069Q972 1522 915.5 1459.5Q859 1397 844 1275L711 180Q692 24 754.0 -66.5Q816 -157 954 -157ZM1384 357Q1333 357 1299.5 379.0Q1266 401 1266 437V746Q1183 780 1130.5 856.0Q1078 932 1078 1027Q1078 1111 1119.5 1180.0Q1161 1249 1230.5 1290.0Q1300 1331 1384 1331Q1468 1331 1537.0 1290.0Q1606 1249 1647.0 1180.0Q1688 1111 1688 1027Q1688 932 1636.5 856.5Q1585 781 1503 747V437Q1503 401 1469.5 379.0Q1436 357 1384 357ZM1385 55Q1250 55 1146.0 100.0Q1042 145 983.0 224.5Q924 304 924 407Q924 509 982.5 588.5Q1041 668 1141 712V497Q1126 478 1118.0 455.0Q1110 432 1110 407Q1110 324 1186.5 272.0Q1263 220 1385 220Q1507 220 1583.0 272.0Q1659 324 1659 407Q1659 432 1651.0 454.0Q1643 476 1628 495V713Q1728 668 1786.5 588.5Q1845 509 1845 407Q1845 304 1786.5 224.5Q1728 145 1624.0 100.0Q1520 55 1385 55ZM2101 749Q2018 749 1960.0 806.5Q1902 864 1902 947Q1902 1031 1960.0 1089.0Q2018 1147 2101 1147Q2185 1147 2243.0 1089.0Q2301 1031 2301 947Q2301 864 2243.0 806.5Q2185 749 2101 749ZM2636 749Q2553 749 2495.0 806.5Q2437 864 2437 947Q2437 1031 2495.0 1089.0Q2553 1147 2636 1147Q2720 1147 2778.0 1089.0Q2836 1031 2836 947Q2836 864 2778.0 806.5Q2720 749 2636 749ZM3169 749Q3085 749 3027.0 806.5Q2969 864 2969 947Q2969 1031 3027.0 1089.0Q3085 1147 3169 1147Q3252 1147 3310.0 1089.0Q3368 1031 3368 947Q3368 864 3310.0 806.5Q3252 749 3169 749ZM2258 217Q2175 217 2117.0 274.0Q2059 331 2059 415Q2059 499 2117.0 557.0Q2175 615 2258 615Q2342 615 2399.5 557.0Q2457 499 2457 415Q2457 331 2399.5 274.0Q2342 217 2258 217ZM2793 217Q2710 217 2652.0 274.0Q2594 331 2594 415Q2594 499 2652.0 557.0Q2710 615 2793 615Q2877 615 2934.5 557.0Q2992 499 2992 415Q2992 331 2934.5 274.0Q2877 217 2793 217ZM3326 217Q3243 217 3184.5 274.0Q3126 331 3126 415Q3126 499 3184.5 557.0Q3243 615 3326 615Q3410 615 3467.5 557.0Q3525 499 3525 415Q3525 331 3467.5 274.0Q3410 217 3326 217Z" transform="translate(-3.6462,22.4297) scale(0.011719,-0.011719)"/>
  </g>
</svg>
