<svg xmlns="http://www.w3.org/2000/svg" viewBox="0 0 9.3867 17.1505" width="13.1355" height="24.0000">
  <g fill="black" stroke="black" stroke-width="0.25">
    <path d="M556 1366Q668 1366 759.0 1312.5Q850 1259 903.5 1168.5Q957 1078 957 967Q957 853 895.5 759.0Q834 665 720 605L825 499Q847 477 846.5 448.0Q846 419 826 397L707 278L785 200Q805 178 805.5 149.0Q806 120 785 98L607 -79Q588 -98 563.0 -97.5Q538 -97 521 -82L411 15Q384 42 384 82V605Q278 654 217.0 752.0Q156 850 156 967Q156 1078 210.0 1168.5Q264 1259 354.5 1312.5Q445 1366 556 1366ZM556 1000Q600 1000 631.0 1030.5Q662 1061 662 1105Q662 1149 631.0 1180.0Q600 1211 556 1211Q512 1211 481.5 1180.0Q451 1149 451 1105Q451 1061 481.5 1030.5Q512 1000 556 1000Z" transform="translate(-1.8281,16.0078) scale(0.011719,-0.011719)"/>
  </g>
</svg>
