<svg xmlns="http://www.w3.org/2000/svg" viewBox="0 0 37.9570 24.9961" width="36.4444" height="24.0000">
  <g fill="black" stroke="black" stroke-width="0.25">
    <path d="M774 -382Q553 -382 432.0 -262.0Q311 -142 311 79V1290Q311 1510 432.0 1630.5Q553 1751 774 1751H3087Q3309 1751 3429.5 1630.5Q3550 1510 3550 1290V79Q3550 -142 3429.5 -262.0Q3309 -382 3087 -382ZM827 10H3035Q3096 10 3127.0 39.0Q3158 68 3158 135V1234Q3158 1300 3127.0 1329.5Q3096 1359 3035 1359H827Q766 1359 734.5 1329.5Q703 1300 703 1234V135Q703 68 734.5 39.0Q766 10 827 10ZM965 933Q900 933 900 999V1115Q900 1180 965 1180H1080Q1145 1180 1145 1115V999Q1145 933 1080 933ZM1328 933Q1263 933 1263 999V1115Q1263 1180 1328 1180H1443Q1508 1180 1508 1115V999Q1508 933 1443 933ZM1691 933Q1626 933 1626 999V1115Q1626 1180 1691 1180H1806Q1871 1180 1871 1115V999Q1871 933 1806 933ZM2054 933Q1989 933 1989 999V1115Q1989 1180 2054 1180H2169Q2235 1180 2235 1115V999Q2235 933 2169 933ZM2429 933Q2352 933 2352 999V1115Q2352 1180 2429 1180H2533Q2598 1180 2598 1115V999Q2598 933 2533 933ZM2781 933Q2716 933 2716 999V1115Q2716 1180 2781 1180H2896Q2961 1180 2961 1115V999Q2961 933 2896 933ZM965 559Q900 559 900 624V740Q900 805 965 805H1080Q1145 805 1145 740V624Q1145 559 1080 559ZM1328 559Q1263 559 1263 624V740Q1263 805 1328 805H1443Q1508 805 1508 740V624Q1508 559 1443 559ZM1691 559Q1626 559 1626 624V740Q1626 805 1691 805H1806Q1871 805 1871 740V624Q1871 559 1806 559ZM2054 559Q1989 559 1989 624V740Q1989 805 2054 805H2169Q2235 805 2235 740V624Q2235 559 2169 559ZM2429 559Q2352 559 2352 624V740Q2352 805 2429 805H2533Q2598 805 2598 740V624Q2598 559 2533 559ZM2781 559Q2716 559 2716 624V740Q2716 805 2781 805H2896Q2961 805 2961 740V624Q2961 559 2896 559ZM965 184Q900 184 900 250V366Q900 431 965 431H1080Q1145 431 1145 366V250Q1145 184 1080 184ZM1332 184Q1263 184 1263 254V361Q1263 431 1332 431H2528Q2598 431 2598 361V254Q2598 184 2528 184ZM2781 184Q2716 184 2716 250V366Q2716 431 2781 431H2896Q2961 431 2961 366V250Q2961 184 2896 184Z" transform="translate(-3.6445,20.5195) scale(0.011719,-0.011719)"/>
  </g>
</svg>
