<svg xmlns="http://www.w3.org/2000/svg" viewBox="0 0 27.1709 38.3047" width="17.0240" height="24.0000">
  <g fill="black" stroke="black" stroke-width="0.25">
    <path d="M2207 -863 2007 -789Q1966 -775 1938.5 -741.0Q1911 -707 1898 -672L1585 192Q1447 208 1327.5 273.0Q1208 338 1119.0 440.5Q1030 543 982 674Q929 820 936.5 966.0Q944 1112 1005.0 1242.5Q1066 1373 1173.5 1472.5Q1281 1572 1427 1626Q1572 1679 1718.0 1671.0Q1864 1663 1995.0 1602.0Q2126 1541 2226.0 1434.5Q2326 1328 2379 1184Q2447 996 2409.0 804.5Q2371 613 2231 442L2421 355Q2485 324 2507.0 261.0Q2529 198 2500 134L2394 -97L2534 -164Q2596 -194 2619.0 -257.0Q2642 -320 2615 -381L2428 -783Q2398 -846 2336.5 -866.5Q2275 -887 2207 -863ZM2218 -549 2302 -372 2170 -310 2083 -72 2187 146 1976 246 1874 523Q1984 580 2048.5 673.0Q2113 766 2128.5 874.5Q2144 983 2106 1086Q2074 1175 2013.0 1240.5Q1952 1306 1871.5 1343.0Q1791 1380 1702.0 1385.0Q1613 1390 1525 1358Q1435 1326 1369.5 1264.5Q1304 1203 1266.5 1122.5Q1229 1042 1224.5 953.0Q1220 864 1252 775Q1290 671 1368.0 598.0Q1446 525 1547.0 493.5Q1648 462 1757 483L2115 -502ZM658 -863Q595 -893 534.5 -869.0Q474 -845 439 -783L331 -597Q311 -560 311.0 -517.0Q311 -474 324 -438L640 426Q545 527 495.0 652.5Q445 778 442.0 914.0Q439 1050 486 1183Q539 1328 639.0 1435.0Q739 1542 869.5 1602.5Q1000 1663 1146.5 1670.5Q1293 1678 1439 1625Q1480 1611 1518.0 1592.0Q1556 1573 1590 1550L1274 1377Q1192 1392 1113.0 1378.5Q1034 1365 964.0 1326.0Q894 1287 841.0 1226.0Q788 1165 759 1086Q722 982 734.0 876.0Q746 770 803.5 680.5Q861 591 958 538L599 -447L648 -551L825 -467L765 -337L852 -97L1071 4L973 215L1073 493Q1133 479 1189.5 480.0Q1246 481 1297 496L1572 305Q1512 269 1442.0 243.0Q1372 217 1295 201L1384 12Q1414 -53 1391.0 -115.0Q1368 -177 1304 -207L1072 -318L1138 -457Q1166 -519 1143.5 -583.5Q1121 -648 1059 -676ZM1676 942Q1610 919 1549.0 949.0Q1488 979 1464 1043Q1441 1106 1469.5 1167.0Q1498 1228 1562 1252Q1627 1275 1688.0 1246.0Q1749 1217 1771 1155Q1795 1091 1767.0 1029.0Q1739 967 1676 942ZM719 1671Q719 1819 774.0 1949.5Q829 2080 927.5 2178.5Q1026 2277 1155.5 2333.0Q1285 2389 1434 2389Q1584 2389 1714.5 2333.0Q1845 2277 1944.0 2178.0Q2043 2079 2099.0 1949.0Q2155 1819 2155 1671Q2155 1529 2100.0 1397.5Q2045 1266 1942.5 1163.0Q1840 1060 1697 1003L1632 1222Q1730 1264 1795.5 1335.5Q1861 1407 1894.0 1494.5Q1927 1582 1927 1671Q1927 1807 1860.5 1918.5Q1794 2030 1682.0 2096.0Q1570 2162 1434 2162Q1297 2162 1186.5 2096.0Q1076 2030 1011.0 1918.5Q946 1807 946 1671Q946 1631 951.5 1592.5Q957 1554 969 1519L774 1391Q747 1455 733.0 1525.5Q719 1596 719 1671Z" transform="translate(-3.6445,27.9961) scale(0.011719,-0.011719)"/>
  </g>
</svg>
