<svg xmlns="http://www.w3.org/2000/svg" viewBox="0 0 7.1016 35.8242" width="4.7576" height="24.0000">
  <g fill="black" stroke="black" stroke-width="0.25">
    <path d="M690 386Q691 430 677.5 454.5Q664 479 628 504L586 532Q518 578 492.5 627.0Q467 676 467 749V831Q467 1011 495.5 1208.0Q524 1405 574.5 1595.0Q625 1785 692.0 1946.0Q759 2107 837 2215Q871 2262 901.0 2283.0Q931 2304 969 2304Q1015 2304 1044.0 2275.0Q1073 2246 1073 2196V-567Q1073 -653 1020.5 -703.0Q968 -753 873 -753Q780 -753 725.5 -702.5Q671 -652 672 -565Z" transform="translate(-5.4727,27.0000) scale(0.011719,-0.011719)"/>
  </g>
</svg>
