<svg xmlns="http://www.w3.org/2000/svg" viewBox="0 0 15.9961 16.5443" width="23.2048" height="24.0000">
  <g fill="black" stroke="black" stroke-width="0.25">
    <path d="M839 919Q761 919 691.0 932.0Q621 945 574 971Q535 992 523.0 1010.5Q511 1029 511 1053Q511 1113 542.5 1164.5Q574 1216 633 1250L636 1261Q638 1270 633.5 1277.0Q629 1284 614 1287L584 1293Q552 1301 542.5 1324.0Q533 1347 541.5 1372.0Q550 1397 572.0 1411.5Q594 1426 626 1415L665 1403Q705 1389 729.0 1363.0Q753 1337 759 1299L760 1293Q778 1296 798.0 1297.5Q818 1299 839 1299Q860 1299 879.0 1297.5Q898 1296 917 1293L918 1299Q923 1337 947.0 1363.0Q971 1389 1011 1403L1051 1415Q1083 1426 1105.0 1411.5Q1127 1397 1135.0 1372.0Q1143 1347 1133.5 1324.0Q1124 1301 1092 1293L1062 1287Q1048 1284 1043.5 1277.0Q1039 1270 1040 1261L1043 1251Q1103 1217 1134.5 1165.0Q1166 1113 1166 1053Q1166 1029 1154.0 1010.5Q1142 992 1104 971Q1056 945 986.5 932.0Q917 919 839 919ZM839 725Q816 725 801.5 710.0Q787 695 787 673V53Q787 28 768.0 16.5Q749 5 720 9Q636 25 565.5 63.5Q495 102 442 160L379 107Q355 86 327.5 86.5Q300 87 280 109Q262 131 266.0 159.5Q270 188 294 209L367 269Q341 322 326.0 382.0Q311 442 307 508H226Q195 508 175.5 526.0Q156 544 156 573Q156 603 175.5 621.0Q195 639 226 640L315 642Q322 691 338.0 739.5Q354 788 378 830L273 913Q248 932 244.0 961.0Q240 990 259 1012Q278 1034 305.0 1034.0Q332 1034 358 1014L494 908Q504 913 512.5 912.5Q521 912 528 908Q591 879 669.5 863.5Q748 848 839 848Q929 848 1007.0 863.5Q1085 879 1149 908Q1157 912 1165.0 912.5Q1173 913 1184 908L1320 1014Q1345 1034 1372.0 1034.0Q1399 1034 1419 1012Q1437 990 1433.5 961.0Q1430 932 1405 913L1299 830Q1323 788 1339.0 739.5Q1355 691 1362 642L1451 640Q1483 639 1502.0 621.0Q1521 603 1521 573Q1521 544 1502.0 526.0Q1483 508 1451 508H1370Q1367 442 1352.0 382.0Q1337 322 1311 269L1383 209Q1408 188 1411.5 159.5Q1415 131 1397 109Q1379 87 1351.0 86.5Q1323 86 1298 107L1235 160Q1182 102 1112.0 63.5Q1042 25 958 9Q929 5 910.0 16.5Q891 28 891 53V673Q891 695 876.0 710.0Q861 725 839 725ZM468 643Q468 605 496.0 576.0Q524 547 562 547Q601 547 629.5 576.0Q658 605 658 643Q658 681 629.5 709.5Q601 738 562 738Q524 738 496.0 709.5Q468 681 468 643ZM475 346Q475 302 506.5 270.5Q538 239 582 239Q625 239 656.5 270.5Q688 302 688 346Q688 388 657.0 420.0Q626 452 582 452Q538 452 506.5 420.0Q475 388 475 346ZM1209 643Q1209 681 1181.5 709.5Q1154 738 1115 738Q1076 738 1047.5 709.5Q1019 681 1019 643Q1019 605 1047.5 576.0Q1076 547 1115 547Q1154 547 1181.5 576.0Q1209 605 1209 643ZM1203 346Q1203 388 1171.5 420.0Q1140 452 1096 452Q1052 452 1021.0 420.0Q990 388 990 346Q990 302 1021.5 270.5Q1053 239 1096 239Q1140 239 1171.5 270.5Q1203 302 1203 346Z" transform="translate(-1.8281,16.6376) scale(0.011719,-0.011719)"/>
  </g>
</svg>
