<svg xmlns="http://www.w3.org/2000/svg" viewBox="0 0 34.4531 37.4766" width="22.0638" height="24.0000">
  <g fill="black" stroke="black" stroke-width="0.25">
    <path d="M1756 -334Q1639 -334 1539 -298Q1512 -299 1485.0 -300.0Q1458 -301 1431 -301Q1287 -301 1141.5 -275.5Q996 -250 860.5 -197.5Q725 -145 609.0 -63.5Q493 18 406.5 130.5Q320 243 271.5 387.5Q223 532 225 712Q254 673 298.5 650.0Q343 627 396 627Q452 627 498.0 651.5Q544 676 578 716Q573 605 604.5 510.0Q636 415 698.0 338.5Q760 262 848.0 205.0Q936 148 1045.0 111.5Q1154 75 1278 61Q1276 172 1323.0 262.0Q1370 352 1455.5 416.5Q1541 481 1657.5 515.0Q1774 549 1912 549Q2075 549 2209.5 492.0Q2344 435 2436 332Q2500 400 2546.5 477.5Q2593 555 2619.0 639.0Q2645 723 2645 810Q2645 974 2583.0 1109.5Q2521 1245 2407.5 1345.0Q2294 1445 2137.5 1503.0Q1981 1561 1791 1571Q1859 1632 1859 1729Q1859 1786 1836.0 1836.5Q1813 1887 1773 1924Q2044 1917 2268.5 1834.0Q2493 1751 2656.0 1603.5Q2819 1456 2908.0 1254.5Q2997 1053 2997 808Q2997 654 2947.5 508.0Q2898 362 2808.5 232.5Q2719 103 2600 -3Q2613 -71 2613 -150Q2613 -265 2569.0 -378.5Q2525 -492 2444.5 -591.5Q2364 -691 2254 -765Q2198 -804 2138 -804Q2061 -804 2010.0 -756.5Q1959 -709 1959 -637Q1959 -584 1985.5 -543.5Q2012 -503 2061 -469Q2125 -425 2168.0 -368.5Q2211 -312 2231 -252Q2232 -247 2234.0 -242.5Q2236 -238 2237 -232Q2124 -281 2002.0 -307.5Q1880 -334 1756 -334ZM1756 17Q1859 17 1959.5 42.5Q2060 68 2152 115Q2110 153 2054.0 174.0Q1998 195 1930 195Q1863 195 1807.5 185.0Q1752 175 1712.5 157.0Q1673 139 1651.5 115.0Q1630 91 1630 64Q1630 50 1666.5 33.5Q1703 17 1756 17ZM996 1063Q971 1063 953.5 1079.5Q936 1096 932 1121Q910 1247 886.0 1332.5Q862 1418 827.0 1473.5Q792 1529 737.0 1563.0Q682 1597 598.0 1619.5Q514 1642 392 1662Q365 1666 348.0 1684.5Q331 1703 331 1729Q331 1754 348.0 1772.0Q365 1790 392 1794Q517 1810 603.0 1832.0Q689 1854 745.0 1889.0Q801 1924 835.5 1981.0Q870 2038 891.5 2124.0Q913 2210 932 2335Q935 2361 953.0 2377.5Q971 2394 996 2394Q1021 2394 1039.0 2377.0Q1057 2360 1061 2334Q1082 2209 1105.5 2122.5Q1129 2036 1163.5 1979.0Q1198 1922 1253.5 1887.0Q1309 1852 1393.0 1831.0Q1477 1810 1600 1794Q1627 1790 1644.0 1772.0Q1661 1754 1661 1729Q1661 1703 1644.0 1684.0Q1627 1665 1600 1662Q1473 1645 1387.0 1623.5Q1301 1602 1246.0 1566.5Q1191 1531 1157.5 1474.5Q1124 1418 1102.5 1331.5Q1081 1245 1061 1121Q1057 1096 1039.0 1079.5Q1021 1063 996 1063ZM396 825Q355 825 348 869Q336 948 326.0 992.0Q316 1036 294.5 1058.0Q273 1080 228.5 1091.5Q184 1103 102 1116Q57 1124 57 1164Q57 1203 98 1211Q182 1226 227.5 1238.5Q273 1251 295.0 1273.0Q317 1295 327.0 1338.0Q337 1381 348 1458Q355 1502 396 1502Q437 1502 443 1458Q455 1378 465.0 1333.5Q475 1289 497.0 1267.0Q519 1245 564.5 1234.0Q610 1223 693 1211Q734 1205 734 1164Q734 1124 693 1116Q609 1101 563.5 1089.0Q518 1077 496.5 1055.0Q475 1033 465.0 989.5Q455 946 443 867Q440 850 426.5 837.5Q413 825 396 825Z" transform="translate(-0.6680,28.0547) scale(0.011719,-0.011719)"/>
  </g>
</svg>
