<svg xmlns="http://www.w3.org/2000/svg" viewBox="0 0 32.5664 31.9805" width="24.4397" height="24.0000">
  <g fill="black" stroke="black" stroke-width="0.25">
    <path d="M219 699Q219 919 294.0 1108.0Q369 1297 506.5 1447.5Q644 1598 831.5 1705.0Q1019 1812 1245.0 1868.5Q1471 1925 1723 1925Q2005 1925 2238.5 1845.0Q2472 1765 2642.0 1617.0Q2812 1469 2905.0 1263.5Q2998 1058 2998 808Q2998 627 2930.5 458.5Q2863 290 2744.0 146.0Q2625 2 2468.0 -105.5Q2311 -213 2129.0 -273.5Q1947 -334 1756 -334Q1614 -334 1505.5 -283.5Q1397 -233 1336.5 -143.5Q1276 -54 1276 65Q1276 173 1322.5 261.5Q1369 350 1453.5 414.5Q1538 479 1655.0 514.0Q1772 549 1912 549Q2117 549 2275.5 460.5Q2434 372 2523.5 214.0Q2613 56 2613 -150Q2613 -265 2569.5 -378.5Q2526 -492 2445.5 -591.5Q2365 -691 2254 -765Q2198 -804 2138 -804Q2061 -804 2010.0 -756.5Q1959 -709 1959 -637Q1959 -584 1985.5 -543.5Q2012 -503 2062 -469Q2154 -404 2207.0 -319.0Q2260 -234 2260 -151Q2260 -46 2219.0 31.5Q2178 109 2103.5 152.0Q2029 195 1930 195Q1863 195 1808.0 185.0Q1753 175 1713.0 157.0Q1673 139 1651.5 115.0Q1630 91 1630 64Q1630 46 1667.0 31.5Q1704 17 1756 17Q1889 17 2018.0 60.0Q2147 103 2260.0 179.0Q2373 255 2460.0 355.5Q2547 456 2596.0 572.0Q2645 688 2645 810Q2645 981 2577.5 1121.5Q2510 1262 2387.0 1363.0Q2264 1464 2095.5 1518.5Q1927 1573 1725 1573Q1535 1573 1362.5 1532.0Q1190 1491 1045.5 1415.0Q901 1339 794.5 1231.0Q688 1123 629.5 988.5Q571 854 571 698Q571 546 635.0 426.0Q699 306 816.0 222.5Q933 139 1094.0 95.0Q1255 51 1451 51Q1487 51 1504.5 51.0Q1522 51 1561 51Q1613 52 1649.5 19.0Q1686 -14 1703.0 -64.0Q1720 -114 1714.0 -165.5Q1708 -217 1676.0 -254.0Q1644 -291 1583 -296Q1556 -299 1526.0 -300.0Q1496 -301 1432 -301Q1168 -301 946.0 -230.0Q724 -159 561.0 -26.5Q398 106 308.5 289.5Q219 473 219 699Z" transform="translate(-2.5664,22.5586) scale(0.011719,-0.011719)"/>
  </g>
</svg>
