<svg xmlns="http://www.w3.org/2000/svg" viewBox="0 0 37.4601 32.8400" width="27.3764" height="24.0000">
  <g fill="black" stroke="black" stroke-width="0.25">
    <path d="M1137 -456Q1202 -460 1271.0 -492.0Q1340 -524 1387 -573Q1417 -602 1385 -632Q1333 -676 1259.5 -697.5Q1186 -719 1118 -712Q1053 -705 984.0 -672.5Q915 -640 869 -592Q834 -556 875 -526Q929 -489 1001.0 -469.5Q1073 -450 1137 -456ZM1396 -20Q1427 21 1461 -15Q1509 -62 1540.5 -131.0Q1572 -200 1576 -266Q1584 -336 1559.0 -409.0Q1534 -482 1487 -531Q1458 -562 1428 -532Q1383 -487 1353.0 -417.5Q1323 -348 1318 -280Q1315 -215 1336.5 -143.5Q1358 -72 1396 -20ZM786 -114Q850 -135 908.0 -183.5Q966 -232 997 -291Q1018 -327 980 -347Q917 -378 840.5 -381.0Q764 -384 702 -358Q639 -335 581.0 -285.5Q523 -236 490 -177Q467 -134 513 -117Q576 -94 651.0 -93.5Q726 -93 786 -114ZM1148 240Q1165 255 1183.0 252.0Q1201 249 1212 228Q1244 171 1257.0 96.5Q1270 22 1258 -44Q1247 -112 1204.5 -175.5Q1162 -239 1104 -276Q1088 -287 1072.0 -283.0Q1056 -279 1047 -261Q1013 -204 1002.0 -129.5Q991 -55 1005 10Q1019 73 1058.5 137.0Q1098 201 1148 240ZM219 373Q215 422 264 419Q330 416 399.0 386.0Q468 356 514 310Q563 267 596.0 200.5Q629 134 635 66Q640 21 596 20Q527 17 455.5 45.0Q384 73 337 123Q290 169 257.5 237.5Q225 306 219 373ZM990 489Q1038 502 1042 453Q1050 386 1031.5 313.0Q1013 240 975 186Q939 128 874.5 86.5Q810 45 741 34Q696 28 694 70Q687 136 706.0 209.0Q725 282 764 336Q802 389 864.0 431.5Q926 474 990 489ZM747 775Q795 816 866.0 841.5Q937 867 1004 867Q1052 867 1046 819Q1036 753 999.0 686.5Q962 620 911 576Q860 530 786.5 506.5Q713 483 645 490Q603 494 609 536Q618 601 655.5 666.5Q693 732 747 775ZM227 950Q230 973 246.0 982.5Q262 992 283 984Q346 962 405.5 915.5Q465 869 498 816Q533 759 548.0 685.0Q563 611 553 546Q546 503 504 513Q436 526 374.0 571.5Q312 617 278 678Q244 736 230.0 810.5Q216 885 227 950ZM822 1202Q883 1225 958.0 1224.5Q1033 1224 1095 1202Q1141 1185 1118 1142Q1086 1084 1028.0 1033.5Q970 983 907 959Q843 933 766.0 936.0Q689 939 628 971Q590 990 611 1027Q643 1086 701.0 1134.0Q759 1182 822 1202ZM394 1544Q420 1587 459 1558Q509 1518 549.0 1454.5Q589 1391 603 1326Q617 1262 605.5 1187.0Q594 1112 561 1055Q541 1017 504 1040Q446 1076 404.0 1140.0Q362 1204 350 1272Q338 1337 349.5 1412.0Q361 1487 394 1544ZM1056 1569Q1121 1581 1195.0 1570.0Q1269 1559 1326 1528Q1346 1518 1350.0 1501.0Q1354 1484 1340 1465Q1300 1414 1236.0 1373.0Q1172 1332 1107 1318Q1040 1299 965.0 1312.0Q890 1325 833 1365Q798 1388 822 1422Q863 1476 927.0 1516.5Q991 1557 1056 1569ZM681 1968Q711 2007 746 1971Q791 1924 821.5 1855.0Q852 1786 857 1721Q862 1655 839.5 1582.5Q817 1510 777 1458Q751 1423 717 1452Q664 1497 631.5 1566.0Q599 1635 598 1702Q594 1768 617.5 1841.5Q641 1915 681 1968ZM1360 2088Q1409 2094 1408 2043Q1403 1977 1372.0 1907.5Q1341 1838 1295 1791Q1249 1740 1179.0 1709.0Q1109 1678 1040 1680Q997 1679 1001 1722Q1004 1787 1034.5 1855.5Q1065 1924 1112 1971Q1159 2018 1227.5 2050.0Q1296 2082 1360 2088ZM2496 -456Q2560 -450 2632.0 -469.5Q2704 -489 2758 -526Q2799 -556 2765 -592Q2718 -640 2649.5 -672.5Q2581 -705 2515 -712Q2447 -719 2374.0 -697.5Q2301 -676 2249 -632Q2216 -602 2247 -573Q2293 -524 2362.0 -492.0Q2431 -460 2496 -456ZM2238 -20Q2275 -72 2296.5 -143.5Q2318 -215 2315 -280Q2311 -348 2281.0 -417.5Q2251 -487 2205 -532Q2176 -562 2147 -531Q2100 -482 2075.0 -409.0Q2050 -336 2057 -266Q2062 -200 2093.5 -131.0Q2125 -62 2172 -15Q2207 21 2238 -20ZM2847 -114Q2908 -93 2983.0 -93.5Q3058 -94 3120 -117Q3167 -134 3143 -177Q3110 -236 3052.0 -285.5Q2994 -335 2932 -358Q2869 -384 2793.0 -381.0Q2717 -378 2654 -347Q2616 -327 2637 -291Q2668 -232 2726.0 -183.5Q2784 -135 2847 -114ZM2486 240Q2536 201 2575.5 137.0Q2615 73 2629 10Q2643 -55 2631.5 -129.5Q2620 -204 2587 -261Q2578 -279 2561.5 -283.0Q2545 -287 2529 -276Q2472 -239 2429.5 -175.5Q2387 -112 2376 -44Q2364 22 2377.0 96.5Q2390 171 2422 228Q2433 249 2450.5 252.0Q2468 255 2486 240ZM3415 373Q3409 306 3376.5 237.5Q3344 169 3296 123Q3249 73 3178.0 45.0Q3107 17 3037 20Q2993 21 2999 66Q3005 134 3038.0 200.5Q3071 267 3119 310Q3166 356 3235.0 386.0Q3304 416 3369 419Q3419 422 3415 373ZM2644 489Q2707 474 2769.0 431.5Q2831 389 2869 336Q2908 282 2927.0 209.0Q2946 136 2940 70Q2937 28 2892 34Q2824 45 2759.5 86.5Q2695 128 2659 186Q2621 240 2602.0 313.0Q2583 386 2592 453Q2595 502 2644 489ZM2887 775Q2941 732 2978.0 666.5Q3015 601 3024 536Q3030 494 2989 490Q2920 483 2847.0 506.5Q2774 530 2722 576Q2672 620 2635.0 686.5Q2598 753 2588 819Q2582 867 2629 867Q2696 867 2767.5 841.5Q2839 816 2887 775ZM3406 950Q3417 885 3403.0 810.5Q3389 736 3355 678Q3321 617 3259.0 571.5Q3197 526 3130 513Q3087 503 3080 546Q3070 611 3085.0 685.0Q3100 759 3136 816Q3169 869 3228.0 915.5Q3287 962 3350 984Q3372 992 3387.5 982.5Q3403 973 3406 950ZM2812 1202Q2875 1182 2933.0 1134.0Q2991 1086 3022 1027Q3044 990 3005 971Q2944 939 2867.5 936.0Q2791 933 2726 959Q2663 983 2605.0 1033.5Q2547 1084 2516 1142Q2492 1185 2539 1202Q2601 1224 2676.0 1224.5Q2751 1225 2812 1202ZM3239 1544Q3272 1487 3284.0 1412.0Q3296 1337 3284 1272Q3272 1204 3229.5 1140.0Q3187 1076 3129 1040Q3093 1017 3072 1055Q3039 1112 3027.5 1187.0Q3016 1262 3031 1326Q3045 1391 3084.5 1454.5Q3124 1518 3175 1558Q3213 1587 3239 1544ZM2578 1569Q2643 1557 2707.0 1516.5Q2771 1476 2811 1422Q2836 1388 2801 1365Q2744 1325 2668.5 1312.0Q2593 1299 2527 1318Q2462 1332 2398.0 1373.0Q2334 1414 2293 1465Q2280 1484 2283.5 1501.0Q2287 1518 2307 1528Q2365 1559 2439.0 1570.0Q2513 1581 2578 1569ZM2952 1968Q2993 1915 3016.0 1841.5Q3039 1768 3036 1702Q3035 1635 3002.0 1566.0Q2969 1497 2916 1452Q2883 1423 2857 1458Q2816 1510 2793.5 1582.5Q2771 1655 2777 1721Q2781 1786 2811.5 1855.0Q2842 1924 2887 1971Q2922 2007 2952 1968ZM2273 2088Q2338 2082 2406.0 2050.0Q2474 2018 2521 1971Q2569 1924 2599.5 1855.5Q2630 1787 2633 1722Q2636 1679 2593 1680Q2524 1678 2454.5 1709.0Q2385 1740 2338 1791Q2292 1838 2261.0 1907.5Q2230 1977 2226 2043Q2224 2094 2273 2088Z" transform="translate(-2.5629,24.4762) scale(0.011719,-0.011719)"/>
  </g>
</svg>
