<svg xmlns="http://www.w3.org/2000/svg" viewBox="0 0 13.3477 11.2763" width="28.4087" height="24.0000">
  <g fill="black" stroke="black" stroke-width="0.25">
    <path d="M174 1116Q181 1151 208.0 1157.0Q235 1163 259 1140Q316 1085 377.0 1074.0Q438 1063 494 1063Q549 1063 619.0 1075.0Q689 1087 753 1087Q951 1087 1068.0 985.5Q1185 884 1185 699Q1185 682 1184.5 666.5Q1184 651 1182 640Q1176 618 1155.5 611.5Q1135 605 1115 624Q1053 682 990.0 708.0Q927 734 864.0 743.5Q801 753 738.0 760.0Q675 767 613.0 786.5Q551 806 489 854Q482 860 476.0 856.0Q470 852 472 843Q495 775 547.0 743.5Q599 712 670.0 698.0Q741 684 821.5 671.0Q902 658 982.5 628.5Q1063 599 1133 534Q1160 509 1198.0 464.0Q1236 419 1265.5 370.5Q1295 322 1295 286Q1295 248 1271.0 222.0Q1247 196 1213 196Q1195 196 1181.0 206.5Q1167 217 1160 237Q1141 292 1124.5 336.0Q1108 380 1084.0 420.5Q1060 461 1019 504L1132 493Q1121 479 1095.0 448.0Q1069 417 1024.5 383.0Q980 349 912.5 325.5Q845 302 750 302Q571 302 437.5 382.5Q304 463 230.0 608.5Q156 754 156 948Q156 984 161.0 1031.0Q166 1078 174 1116Z" transform="translate(-1.8281,13.5731) scale(0.011719,-0.011719)"/>
  </g>
</svg>
