<svg xmlns="http://www.w3.org/2000/svg" viewBox="0 0 16.9336 10.3242" width="39.3644" height="24.0000">
  <g fill="black" stroke="black" stroke-width="0.25">
    <path d="M156 683Q156 753 208 802L505 1085Q527 1106 550.5 1115.0Q574 1124 598 1124Q649 1124 680.5 1090.0Q712 1056 712 1002Q712 973 698.5 946.5Q685 920 662 906L639 886L345 683L639 481L662 460Q685 447 698.5 420.5Q712 394 712 365Q712 311 680.5 277.0Q649 243 598 243Q574 243 550.5 251.5Q527 260 505 281L208 565Q156 613 156 683ZM1495 683Q1495 631 1458.0 595.0Q1421 559 1369 557L1006 541H751L389 557Q336 559 299.0 595.0Q262 631 262 683Q262 736 299.0 772.0Q336 808 389 810L751 826H1006L1369 810Q1421 808 1458.0 772.0Q1495 736 1495 683ZM1601 683Q1601 613 1549 565L1252 281Q1230 260 1206.5 251.5Q1183 243 1160 243Q1108 243 1076.5 277.0Q1045 311 1045 365Q1045 394 1059.0 420.5Q1073 447 1095 460L1118 481L1413 683L1118 886L1095 906Q1073 920 1059.0 946.5Q1045 973 1045 1002Q1045 1056 1076.5 1090.0Q1108 1124 1160 1124Q1183 1124 1206.5 1115.0Q1230 1106 1252 1085L1549 802Q1601 753 1601 683Z" transform="translate(-1.8281,13.1719) scale(0.011719,-0.011719)"/>
  </g>
</svg>
