<svg xmlns="http://www.w3.org/2000/svg" viewBox="0 0 30.9023 30.9023" width="24.0000" height="24.0000">
  <g fill="black" stroke="black" stroke-width="0.25">
    <path d="M1537 1907V1838H1310Q1367 1855 1424.0 1872.0Q1481 1889 1537 1907ZM1537 1656V1587H886Q886 1605 886.0 1622.0Q886 1639 886 1656ZM1537 1388V1319H703Q703 1337 703.0 1354.0Q703 1371 703 1388ZM1537 1122V1053H428Q428 1070 428.0 1087.0Q428 1104 428 1122ZM1537 854V785H428Q428 802 428.0 819.0Q428 836 428 854ZM1537 589V520H428Q428 538 428.0 555.0Q428 572 428 589ZM1537 321V252H428Q428 270 428.0 287.0Q428 304 428 321ZM1537 55V-14H703Q703 3 703.0 20.0Q703 37 703 55ZM1537 -220V-289H886Q886 -272 886.0 -255.0Q886 -238 886 -220ZM1537 -471V-540Q1481 -523 1424.0 -506.0Q1367 -489 1310 -471ZM1537 -635Q1319 -635 1121.0 -568.5Q923 -502 758.5 -381.0Q594 -260 473.0 -95.0Q352 70 285.5 267.5Q219 465 219 683Q219 902 285.5 1099.5Q352 1297 473.0 1462.0Q594 1627 758.5 1748.0Q923 1869 1121.0 1935.5Q1319 2002 1537 2002Q1755 2002 1953.0 1935.5Q2151 1869 2315.5 1748.0Q2480 1627 2601.0 1462.0Q2722 1297 2789.0 1099.5Q2856 902 2856 683Q2856 465 2789.0 267.5Q2722 70 2601.0 -95.0Q2480 -260 2315.5 -381.0Q2151 -502 1953.0 -568.5Q1755 -635 1537 -635ZM1537 -239Q1728 -239 1895.5 -167.5Q2063 -96 2189.5 31.0Q2316 158 2388.0 325.0Q2460 492 2460 683Q2460 875 2388.0 1042.0Q2316 1209 2189.5 1336.0Q2063 1463 1895.5 1534.5Q1728 1606 1537 1606Q1346 1606 1178.5 1534.5Q1011 1463 884.5 1336.0Q758 1209 686.0 1042.0Q614 875 614 683Q614 492 686.0 325.0Q758 158 884.5 31.0Q1011 -96 1178.5 -167.5Q1346 -239 1537 -239Z" transform="translate(-2.5664,23.4609) scale(0.011719,-0.011719)"/>
  </g>
</svg>
