<svg xmlns="http://www.w3.org/2000/svg" viewBox="0 0 13.6172 16.9336" width="19.2997" height="24.0000">
  <g fill="black" stroke="black" stroke-width="0.25">
    <path d="M1318 1020Q1318 977 1289.5 948.5Q1261 920 1218 920H534L394 921Q354 921 324.5 950.5Q295 980 295 1020Q295 1060 324.5 1089.5Q354 1119 394 1119L534 1120H1218Q1261 1120 1289.5 1091.0Q1318 1062 1318 1020ZM550 636Q509 636 479 665L189 946Q158 976 158.0 1019.5Q158 1063 189 1094L479 1374Q511 1404 550 1404Q593 1404 620.5 1376.0Q648 1348 648 1305Q648 1262 620 1236L441 1066L388 1020L441 974L620 803Q648 777 648 734Q648 690 620.5 663.0Q593 636 550 636ZM156 344Q156 386 185.0 414.5Q214 443 256 443H940H1080Q1120 442 1149.5 413.0Q1179 384 1179 344Q1179 303 1149.5 274.0Q1120 245 1080 245L941 243H256Q214 243 185.0 271.5Q156 300 156 344ZM924 -41Q882 -41 854.5 -13.5Q827 14 827 57Q827 101 854 127L1033 298L1086 344L1033 389L854 560Q827 585 827 628Q827 672 854.5 699.5Q882 727 924 727Q964 727 995 698L1285 417Q1317 386 1316.5 343.0Q1316 300 1285 270L995 -11Q965 -41 924 -41Z" transform="translate(-1.8281,16.4531) scale(0.011719,-0.011719)"/>
  </g>
</svg>
