<svg xmlns="http://www.w3.org/2000/svg" viewBox="0 0 15.1289 12.4102" width="29.2578" height="24.0000">
  <g fill="black" stroke="black" stroke-width="0.25">
    <path d="M280 140Q228 140 192.0 176.0Q156 212 156 263V1076Q156 1128 192.0 1163.5Q228 1199 280 1199Q331 1199 367.0 1163.5Q403 1128 403 1076V263Q403 212 367.0 176.0Q331 140 280 140ZM1447 669Q1447 611 1409.5 575.5Q1372 540 1312 540H987L830 556L954 449L1026 379Q1044 361 1056.0 339.0Q1068 317 1068 286Q1068 234 1032.5 199.5Q997 165 940 165Q918 165 893.5 175.0Q869 185 851 204L499 574Q460 613 460 669Q460 698 471.0 722.5Q482 747 499 765L851 1134Q890 1174 940 1174Q997 1174 1032.5 1139.5Q1068 1105 1068 1052Q1068 1023 1056.5 1000.5Q1045 978 1026 960L954 888L830 783L987 798H1312Q1372 798 1409.5 762.5Q1447 727 1447 669Z" transform="translate(-1.8281,14.0508) scale(0.011719,-0.011719)"/>
  </g>
</svg>
