<svg xmlns="http://www.w3.org/2000/svg" viewBox="0 0 30.9023 30.9023" width="24.0000" height="24.0000">
  <g fill="black" stroke="black" stroke-width="0.25">
    <path d="M1538 74Q1413 74 1302.5 121.5Q1192 169 1107.5 253.0Q1023 337 975.5 447.5Q928 558 928 683Q928 809 975.5 919.5Q1023 1030 1107.0 1114.0Q1191 1198 1301.5 1246.0Q1412 1294 1537 1294Q1663 1294 1773.5 1246.0Q1884 1198 1968.5 1114.0Q2053 1030 2101.0 919.5Q2149 809 2149 683Q2149 558 2101.0 447.5Q2053 337 1968.5 253.0Q1884 169 1773.5 121.5Q1663 74 1538 74ZM1538 349Q1608 349 1669.0 375.0Q1730 401 1776.0 447.0Q1822 493 1847.5 553.5Q1873 614 1873 683Q1873 753 1847.0 814.0Q1821 875 1775.0 921.0Q1729 967 1668.5 993.0Q1608 1019 1538 1019Q1468 1019 1407.5 993.0Q1347 967 1301.0 921.0Q1255 875 1229.0 814.0Q1203 753 1203 683Q1203 614 1229.0 553.5Q1255 493 1301.0 447.0Q1347 401 1407.5 375.0Q1468 349 1538 349ZM620 53 1082 515 1375 222 913 -240ZM608 1317 902 1610 1375 1136 1082 843ZM2470 1317 1995 843 1702 1136 2176 1610ZM2457 53 2164 -240 1702 222 1995 515ZM1537 -635Q1319 -635 1121.0 -568.5Q923 -502 758.5 -381.0Q594 -260 473.0 -95.0Q352 70 285.5 267.5Q219 465 219 683Q219 902 285.5 1099.5Q352 1297 473.0 1462.0Q594 1627 758.5 1748.0Q923 1869 1121.0 1935.5Q1319 2002 1537 2002Q1755 2002 1953.0 1935.5Q2151 1869 2315.5 1748.0Q2480 1627 2601.0 1462.0Q2722 1297 2789.0 1099.5Q2856 902 2856 683Q2856 465 2789.0 267.5Q2722 70 2601.0 -95.0Q2480 -260 2315.5 -381.0Q2151 -502 1953.0 -568.5Q1755 -635 1537 -635ZM1537 -239Q1728 -239 1895.5 -167.5Q2063 -96 2189.5 31.0Q2316 158 2388.0 325.0Q2460 492 2460 683Q2460 875 2388.0 1042.0Q2316 1209 2189.5 1336.0Q2063 1463 1895.5 1534.5Q1728 1606 1537 1606Q1346 1606 1178.5 1534.5Q1011 1463 884.5 1336.0Q758 1209 686.0 1042.0Q614 875 614 683Q614 492 686.0 325.0Q758 158 884.5 31.0Q1011 -96 1178.5 -167.5Q1346 -239 1537 -239Z" transform="translate(-2.5664,23.4609) scale(0.011719,-0.011719)"/>
  </g>
</svg>
