<svg xmlns="http://www.w3.org/2000/svg" viewBox="0 0 42.0820 23.0273" width="43.8595" height="24.0000">
  <g fill="black" stroke="black" stroke-width="0.25">
    <path d="M409 -249Q332 -249 275.5 -193.0Q219 -137 219 -61Q219 16 275.5 72.0Q332 128 409 128H828Q904 128 960.5 71.5Q1017 15 1017 -61Q1017 -137 961.0 -193.0Q905 -249 828 -249ZM1272 614Q1218 560 1139.5 560.0Q1061 560 1006 615L710 912Q656 966 655.5 1045.5Q655 1125 709 1178Q764 1233 843.0 1233.0Q922 1233 977 1178L1272 881Q1326 827 1326.0 747.5Q1326 668 1272 614ZM2016 876Q1938 876 1882.0 931.5Q1826 987 1826 1064V1482Q1826 1560 1882.5 1617.0Q1939 1674 2016 1674Q2092 1674 2148.0 1617.5Q2204 1561 2204 1482V1064Q2204 987 2148.5 931.5Q2093 876 2016 876ZM2757 614Q2703 668 2703.0 747.5Q2703 827 2757 881L3052 1178Q3107 1233 3186.0 1233.0Q3265 1233 3320 1178Q3374 1125 3373.5 1045.5Q3373 966 3319 912L3023 615Q2968 560 2889.5 560.0Q2811 560 2757 614ZM3201 -249Q3124 -249 3068.0 -193.0Q3012 -137 3012 -61Q3012 15 3068.5 71.5Q3125 128 3201 128H3620Q3697 128 3753.5 72.0Q3810 16 3810 -61Q3810 -137 3753.5 -193.0Q3697 -249 3620 -249ZM1530 -291Q1467 -291 1415.0 -260.0Q1363 -229 1331.5 -176.5Q1300 -124 1300 -61Q1300 1 1331.5 53.5Q1363 106 1415.0 137.5Q1467 169 1530 169H2499Q2562 169 2614.0 137.5Q2666 106 2697.5 53.5Q2729 1 2729 -61Q2729 -124 2697.5 -176.5Q2666 -229 2614.0 -260.0Q2562 -291 2499 -291Z" transform="translate(-2.5664,19.6172) scale(0.011719,-0.011719)"/>
  </g>
</svg>
