<svg xmlns="http://www.w3.org/2000/svg" viewBox="0 0 9.1875 16.1602" width="13.6447" height="24.0000">
  <g fill="black" stroke="black" stroke-width="0.25">
    <path d="M156 1013Q156 1118 209.0 1199.5Q262 1281 351.0 1328.0Q440 1375 547 1375Q655 1375 744.0 1327.5Q833 1280 886.5 1197.5Q940 1115 940 1011Q940 949 926.5 899.5Q913 850 893.0 802.5Q873 755 852.5 699.5Q832 644 816.5 572.0Q801 500 797 401Q796 367 774.0 348.5Q752 330 719 330H375Q342 330 321.0 348.5Q300 367 299 401Q295 500 279.5 572.5Q264 645 243.0 700.5Q222 756 202.5 804.5Q183 853 169.5 902.5Q156 952 156 1013ZM370 167Q350 167 335.0 181.5Q320 196 320 216Q320 235 335.0 250.0Q350 265 370 265H725Q746 265 761.0 250.0Q776 235 776 216Q776 196 761.0 181.5Q746 167 725 167ZM549 -4Q482 -4 437.5 25.0Q393 54 388 101H707Q702 54 659.0 25.0Q616 -4 549 -4Z" transform="translate(-1.8281,16.1133) scale(0.011719,-0.011719)"/>
  </g>
</svg>
