<svg xmlns="http://www.w3.org/2000/svg" viewBox="0 0 14.3203 12.7031" width="27.0554" height="24.0000">
  <g fill="black" stroke="black" stroke-width="0.25">
    <path d="M156 289V1136Q156 1180 185.0 1210.5Q214 1241 259 1241Q304 1241 333.0 1210.5Q362 1180 362 1136V353Q362 350 355.5 356.5Q349 363 352 363H1274Q1318 363 1348.0 334.0Q1378 305 1378 260Q1378 215 1348.0 186.0Q1318 157 1274 157H288Q229 157 192.5 193.5Q156 230 156 289ZM316 492 185 623 436 881Q483 930 540 930Q599 930 644 881L795 717Q802 711 809 718L968 883L919 931Q884 965 899.0 1007.5Q914 1050 961 1063L1266 1145Q1310 1157 1343.5 1124.5Q1377 1092 1365 1047L1282 742Q1269 695 1225.5 679.0Q1182 663 1150 698L1099 752L906 555Q860 507 801 507Q743 507 697 556L546 718Q539 725 532 718Z" transform="translate(-1.8281,14.5430) scale(0.011719,-0.011719)"/>
  </g>
</svg>
