<svg xmlns="http://www.w3.org/2000/svg" viewBox="0 0 14.3203 12.7031" width="27.0554" height="24.0000">
  <g fill="black" stroke="black" stroke-width="0.25">
    <path d="M156 289V1136Q156 1180 185.0 1210.5Q214 1241 259 1241Q304 1241 333.0 1210.5Q362 1180 362 1136V353Q362 350 355.5 356.5Q349 363 352 363H1274Q1318 363 1348.0 334.0Q1378 305 1378 260Q1378 215 1348.0 186.0Q1318 157 1274 157H288Q229 157 192.5 193.5Q156 230 156 289ZM316 1117 532 891Q539 884 546 891L697 1053Q743 1102 801 1102Q860 1102 906 1055L1099 857L1150 911Q1182 946 1225.5 930.0Q1269 914 1282 867L1365 562Q1377 518 1343.5 485.0Q1310 452 1266 464L961 546Q914 559 899.0 601.5Q884 644 919 678L968 726L809 891Q802 898 795 892L644 728Q599 679 540 679Q483 679 436 728L185 986Z" transform="translate(-1.8281,14.5430) scale(0.011719,-0.011719)"/>
  </g>
</svg>
