<svg xmlns="http://www.w3.org/2000/svg" viewBox="0 0 38.1658 19.8281" width="46.1960" height="24.0000">
  <g fill="black" stroke="black" stroke-width="0.25">
    <path d="M316 715Q227 824 219.0 929.0Q211 1034 273.5 1108.0Q336 1182 459 1196Q558 1208 638.5 1245.0Q719 1282 793.0 1329.5Q867 1377 945.5 1422.0Q1024 1467 1117.5 1497.0Q1211 1527 1333 1527Q1450 1527 1542.5 1493.0Q1635 1459 1700.5 1414.0Q1766 1369 1803.0 1335.0Q1840 1301 1846 1301Q1853 1301 1890.0 1335.0Q1927 1369 1992.5 1414.0Q2058 1459 2150.5 1493.0Q2243 1527 2360 1527Q2481 1527 2575.0 1497.5Q2669 1468 2747.5 1422.5Q2826 1377 2900.0 1329.5Q2974 1282 3054.5 1245.0Q3135 1208 3234 1196Q3357 1182 3419.5 1107.5Q3482 1033 3474.0 928.0Q3466 823 3377 715Q3129 414 2890.0 219.0Q2651 24 2396.5 -70.5Q2142 -165 1846 -165Q1551 -165 1295.5 -71.0Q1040 23 801.0 218.0Q562 413 316 715ZM639 801Q747 735 858.0 706.5Q969 678 1069.0 672.5Q1169 667 1244.5 672.0Q1320 677 1357 677Q1462 677 1527.5 653.5Q1593 630 1640.0 599.5Q1687 569 1733.5 546.0Q1780 523 1848 523Q1915 523 1961.5 546.0Q2008 569 2055.0 599.5Q2102 630 2167.5 653.5Q2233 677 2338 677Q2375 677 2450.5 672.5Q2526 668 2625.5 673.5Q2725 679 2836.0 707.5Q2947 736 3056 801Q3104 830 3105.5 871.0Q3107 912 3076.5 936.5Q3046 961 2997 940Q2921 908 2842.0 893.5Q2763 879 2670.5 882.0Q2578 885 2463 903Q2417 910 2370.0 916.0Q2323 922 2276 922Q2174 922 2101.5 901.5Q2029 881 1979.0 854.5Q1929 828 1897 809Q1866 791 1858.5 787.0Q1851 783 1848 783Q1844 783 1836.5 787.0Q1829 791 1798 808Q1766 829 1716.5 855.5Q1667 882 1593.5 902.0Q1520 922 1419 922Q1372 922 1325.0 916.0Q1278 910 1233 903Q1123 890 1031.5 886.0Q940 882 859.0 894.0Q778 906 698 940Q649 961 618.5 936.5Q588 912 589.5 871.0Q591 830 639 801Z" transform="translate(-2.5558,17.8945) scale(0.011719,-0.011719)"/>
  </g>
</svg>
