<svg xmlns="http://www.w3.org/2000/svg" viewBox="0 0 17.6936 16.4301" width="25.8457" height="24.0000">
  <g fill="black" stroke="black" stroke-width="0.25">
    <path d="M1080 20Q1228 20 1338.0 77.5Q1448 135 1521.0 222.5Q1594 310 1630.0 403.5Q1666 497 1666 569Q1666 612 1639.0 627.5Q1612 643 1583.5 630.0Q1555 617 1549 577Q1535 467 1478.5 382.0Q1422 297 1338.0 249.0Q1254 201 1157 201Q1075 201 1004.0 233.0Q933 265 883 318L939 411L999 391L1005 294Q1010 262 1036.0 255.0Q1062 248 1083.5 263.5Q1105 279 1097 316Q1094 326 1101.0 330.5Q1108 335 1119 327Q1148 306 1169.0 323.0Q1190 340 1192.5 367.5Q1195 395 1166 406Q1155 411 1157.0 420.5Q1159 430 1174 434Q1203 444 1204.0 470.5Q1205 497 1186.0 514.5Q1167 532 1137 518L1059 481L954 545Q928 562 896.0 557.0Q864 552 847 526L805 465Q801 483 799.0 501.0Q797 519 797 538Q797 601 816.0 663.5Q835 726 869 778L870 744Q870 710 893.0 690.0Q916 670 947 666L1065 651L1109 575Q1126 545 1151.5 549.0Q1177 553 1191.0 575.0Q1205 597 1187 622Q1179 634 1183.0 642.0Q1187 650 1199 648Q1230 642 1243.5 666.0Q1257 690 1249.0 716.0Q1241 742 1206 741Q1192 741 1189.0 748.0Q1186 755 1196 764Q1224 790 1215.0 815.0Q1206 840 1180.5 848.5Q1155 857 1134 833L1067 758L1010 782L1019 901Q1040 909 1059.5 912.5Q1079 916 1093 916Q1126 916 1143.5 909.5Q1161 903 1179.0 896.5Q1197 890 1229 890Q1266 890 1319.0 913.0Q1372 936 1422.5 973.0Q1473 1010 1507.0 1054.5Q1541 1099 1541 1142Q1541 1202 1460.5 1234.5Q1380 1267 1252 1267Q1156 1267 1113.5 1240.0Q1071 1213 1063 1167Q1056 1114 1009 1114Q987 1114 964.5 1113.0Q942 1112 920 1108L803 1164L816 1225L915 1244Q945 1250 950.0 1276.0Q955 1302 938.0 1322.0Q921 1342 885 1330Q874 1327 869.5 1333.0Q865 1339 871 1350Q888 1379 869.5 1399.5Q851 1420 823.5 1420.5Q796 1421 786 1390Q783 1380 774.0 1380.5Q765 1381 760 1394Q747 1423 720.5 1422.0Q694 1421 677.5 1400.5Q661 1380 679 1350L724 1275L671 1169Q658 1142 664.5 1111.0Q671 1080 700 1063L733 1042Q613 973 539.0 852.5Q465 732 465 582Q465 564 466.0 546.0Q467 528 470 511L464 514Q435 529 403.5 520.5Q372 512 354 484L292 385L203 386Q169 387 160.0 362.5Q151 338 163.0 314.5Q175 291 206 293Q221 295 225.0 288.5Q229 282 222 274Q200 250 214.5 225.5Q229 201 256.0 195.0Q283 189 300 220Q305 232 314.0 231.0Q323 230 324 219Q333 180 360.0 175.5Q387 171 408.0 189.0Q429 207 418 236L383 329L427 372L542 292Q619 166 758.5 93.0Q898 20 1080 20Z" transform="translate(-1.8298,16.6645) scale(0.011719,-0.011719)"/>
  </g>
</svg>
