<svg xmlns="http://www.w3.org/2000/svg" viewBox="0 0 8.1797 17.9766" width="10.9205" height="24.0000">
  <g fill="black" stroke="black" stroke-width="0.25">
    <path d="M156 1085Q156 977 215.0 890.5Q274 804 367 764V209Q367 143 386.0 71.5Q405 0 436.5 -50.0Q468 -100 505 -100Q540 -100 571.5 -50.5Q603 -1 622.5 70.5Q642 142 642 209V763Q736 803 795.0 890.0Q854 977 854 1085Q854 1182 806.5 1261.5Q759 1341 680.0 1387.5Q601 1434 505 1434Q408 1433 329.0 1385.5Q250 1338 203.0 1259.5Q156 1181 156 1085ZM319 1182Q319 1228 352.0 1261.0Q385 1294 429 1294Q475 1294 508.0 1261.0Q541 1228 541 1182Q541 1137 508.0 1103.5Q475 1070 429 1070Q385 1070 352.0 1103.5Q319 1137 319 1182Z" transform="translate(-1.8281,16.8047) scale(0.011719,-0.011719)"/>
  </g>
</svg>
