<svg xmlns="http://www.w3.org/2000/svg" viewBox="0 0 14.8572 14.8689" width="23.9811" height="24.0000">
  <g fill="black" stroke="black" stroke-width="0.25">
    <path d="M279 631Q231 631 199.5 656.5Q168 682 159.0 719.5Q150 757 170.0 795.0Q190 833 246 858L1220 1302Q1283 1331 1336.5 1307.5Q1390 1284 1413.5 1230.5Q1437 1177 1408 1114L965 139Q941 83 903.0 63.0Q865 43 827.5 52.0Q790 61 764.5 93.0Q739 125 739 173V584Q739 631 692 631Z" transform="translate(-1.8305,15.4455) scale(0.011719,-0.011719)"/>
  </g>
</svg>
