<svg xmlns="http://www.w3.org/2000/svg" viewBox="0 0 10.8984 15.4336" width="16.9476" height="24.0000">
  <g fill="black" stroke="black" stroke-width="0.25">
    <path d="M316 24Q156 24 156 193V671Q156 756 196.5 797.5Q237 839 316 839H927Q1006 839 1046.0 797.5Q1086 756 1086 671V193Q1086 24 927 24ZM272 770V983Q272 1143 369.0 1242.0Q466 1341 621 1341Q777 1341 873.5 1242.0Q970 1143 970 983V770H780V990Q780 1063 736.0 1109.0Q692 1155 621 1155Q550 1155 506.5 1109.0Q463 1063 463 990V770Z" transform="translate(-1.8281,15.7148) scale(0.011719,-0.011719)"/>
  </g>
</svg>
