<svg xmlns="http://www.w3.org/2000/svg" viewBox="0 0 18.7185 9.1758" width="48.9597" height="24.0000">
  <g fill="black" stroke="black" stroke-width="0.25">
    <path d="M511 659Q475 629 444.5 642.5Q414 656 405.5 687.5Q397 719 428 746L875 1115Q911 1144 954 1144Q998 1144 1035 1115L1480 746Q1512 719 1503.5 687.0Q1495 655 1464.0 642.0Q1433 629 1398 659L980 1004Q968 1014 954 1014Q940 1014 928 1004ZM596 361Q545 361 515.0 390.0Q485 419 485 469V578Q501 580 517.0 588.0Q533 596 551 610L954 943L1358 610Q1375 596 1391.0 588.0Q1407 580 1424 578V469Q1424 419 1394.0 390.0Q1364 361 1312 361ZM842 482H1066V643Q1066 674 1035 674H874Q842 674 842 643ZM388 795Q346 760 342.0 717.5Q338 675 359 641H218Q186 641 170.0 660.5Q154 680 156.5 706.0Q159 732 183 749L443 937Q455 946 469.5 951.0Q484 956 499 956L582 955ZM422 469Q422 405 456 361H342Q289 361 259.5 390.0Q230 419 230 469V577L422 576ZM1520 795 1326 955 1410 956Q1425 956 1439.5 951.0Q1454 946 1466 937L1727 749Q1750 731 1753.0 705.5Q1756 680 1740.0 660.5Q1724 641 1692 641H1550Q1571 675 1566.5 718.0Q1562 761 1520 795ZM1488 469V576L1680 577V469Q1680 419 1650.0 390.0Q1620 361 1567 361H1453Q1488 406 1488 469Z" transform="translate(-1.8300,13.4062) scale(0.011719,-0.011719)"/>
  </g>
</svg>
