<svg xmlns="http://www.w3.org/2000/svg" viewBox="0 0 14.6367 15.5977" width="22.5214" height="24.0000">
  <g fill="black" stroke="black" stroke-width="0.25">
    <path d="M156 410H365V552Q365 663 432.0 729.5Q499 796 609 796H632Q649 867 706.0 908.0Q763 949 849 949H1021Q1025 949 1029.0 949.0Q1033 949 1038 948L1037 957Q1030 1017 989.5 1055.0Q949 1093 886 1093H849V1239Q849 1305 809.0 1341.5Q769 1378 694 1378H503Q427 1378 387.5 1341.5Q348 1305 348 1239V1093H309Q241 1093 198.5 1049.5Q156 1006 156 937ZM485 1093V1220Q485 1236 494.5 1245.0Q504 1254 522 1254H677Q694 1254 703.5 1245.0Q713 1236 713 1220V1093ZM309 48 405 47Q365 110 365 190V282H156V203Q156 135 198.5 91.5Q241 48 309 48ZM609 49H618V697H609Q541 697 503.0 659.5Q465 622 465 552V190Q465 123 503.0 86.0Q541 49 609 49ZM719 49H1152V697H1148V736Q1148 792 1115.0 820.5Q1082 849 1021 849H849Q788 849 756.0 820.5Q724 792 724 736V697H719ZM829 690V723Q829 753 862 753H1010Q1041 753 1041 723V690ZM1251 49H1259Q1328 49 1366.5 86.0Q1405 123 1405 190V552Q1405 622 1366.5 659.5Q1328 697 1259 697H1251Z" transform="translate(-1.8281,16.1484) scale(0.011719,-0.011719)"/>
  </g>
</svg>
