<svg xmlns="http://www.w3.org/2000/svg" viewBox="0 0 42.3242 29.2691" width="34.7049" height="24.0000">
  <g fill="black" stroke="black" stroke-width="0.25">
    <path d="M902 -530Q743 -561 620.0 -530.5Q497 -500 419.5 -420.0Q342 -340 319.0 -218.5Q296 -97 336 54L724 1518Q761 1657 836.5 1754.0Q912 1851 1021.5 1901.5Q1131 1952 1271 1952Q1424 1952 1541.0 1890.5Q1658 1829 1724.0 1718.0Q1790 1607 1790 1458V111Q1790 -128 1679.5 -265.0Q1569 -402 1342 -446ZM1413 1438Q1413 1500 1372.0 1537.5Q1331 1575 1265 1575Q1202 1575 1157.0 1538.0Q1112 1501 1095 1439L710 -13Q699 -56 710.0 -93.0Q721 -130 756.0 -148.5Q791 -167 852 -155L1273 -74Q1324 -64 1355.0 -43.0Q1386 -22 1399.5 15.0Q1413 52 1413 111ZM1142 98Q1066 82 999.0 126.0Q932 170 918 247Q904 321 947.0 386.5Q990 452 1065 467L1231 502L1079 637Q1021 688 1016.5 767.0Q1012 846 1064 905Q1115 961 1194.5 965.0Q1274 969 1330 918L1683 598L1790 621V237ZM2116 306 1790 237V621L1929 651V1707Q1929 1783 1984.0 1839.0Q2039 1895 2116 1895Q2194 1895 2249.0 1839.0Q2304 1783 2304 1707V651L2443 621V237ZM3331 -530 2891 -446Q2664 -402 2553.5 -265.0Q2443 -128 2443 111V1458Q2443 1607 2509.0 1718.0Q2575 1829 2692.0 1890.5Q2809 1952 2962 1952Q3102 1952 3211.5 1901.5Q3321 1851 3396.5 1754.0Q3472 1657 3509 1518L3896 54Q3937 -97 3914.0 -218.5Q3891 -340 3813.5 -420.0Q3736 -500 3613.0 -530.5Q3490 -561 3331 -530ZM2820 1438V111Q2820 52 2833.5 15.0Q2847 -22 2877.5 -43.0Q2908 -64 2960 -74L3381 -155Q3442 -167 3477.0 -148.5Q3512 -130 3523.0 -93.0Q3534 -56 3523 -13L3138 1439Q3121 1501 3076.0 1538.0Q3031 1575 2968 1575Q2902 1575 2861.0 1537.5Q2820 1500 2820 1438ZM3091 98 2443 237V621L2550 598L2903 918Q2959 969 3038.5 965.0Q3118 961 3169 905Q3221 846 3216.5 767.0Q3212 688 3154 637L3002 502L3168 467Q3243 452 3286.0 386.5Q3329 321 3315 247Q3301 170 3233.5 126.0Q3166 82 3091 98Z" transform="translate(-3.6399,22.8750) scale(0.011719,-0.011719)"/>
  </g>
</svg>
