<svg xmlns="http://www.w3.org/2000/svg" viewBox="0 0 29.5781 29.5781" width="24.0000" height="24.0000">
  <g fill="black" stroke="black" stroke-width="0.25">
    <path d="M1869 -389Q1760 -389 1688.5 -349.5Q1617 -310 1582.0 -237.0Q1547 -164 1547 -62V397H1479Q1407 397 1348.5 432.0Q1290 467 1266.0 537.5Q1242 608 1273 715L1499 1498Q1526 1592 1567.0 1652.5Q1608 1713 1669.0 1742.5Q1730 1772 1815 1772L1812 1552Q1761 1552 1738.0 1526.0Q1715 1500 1700 1446L1478 651Q1472 632 1481.0 620.0Q1490 608 1507 608H1758V-75Q1758 -117 1774.0 -141.5Q1790 -166 1815.5 -177.0Q1841 -188 1869 -188ZM1096 859Q1058 859 1031.0 885.5Q1004 912 1004 951V1143Q1004 1182 1031.0 1209.0Q1058 1236 1096 1236Q1135 1236 1161.0 1209.0Q1187 1182 1187 1143V951Q1187 912 1161.0 885.5Q1135 859 1096 859ZM2060 859Q2022 859 1995.0 885.5Q1968 912 1968 951V1143Q1968 1182 1995.0 1209.0Q2022 1236 2060 1236Q2098 1236 2125.0 1209.0Q2152 1182 2152 1143V951Q2152 912 2125.0 885.5Q2098 859 2060 859ZM1606 -20Q1430 -20 1264.5 35.0Q1099 90 997 199Q965 235 968.0 271.5Q971 308 992 332Q1014 354 1054.0 359.5Q1094 365 1130 333Q1226 246 1351.5 204.0Q1477 162 1609 162Q1742 162 1866.5 205.0Q1991 248 2083 333Q2119 366 2158.5 360.5Q2198 355 2222 330Q2243 305 2246.0 269.5Q2249 234 2217 199Q2115 90 1948.5 35.0Q1782 -20 1606 -20ZM992 -580Q832 -580 705.5 -533.0Q579 -486 493 -399Q405 -312 358.0 -185.5Q311 -59 311 101V1263Q311 1423 358.0 1549.0Q405 1675 493 1762Q579 1850 705.5 1897.0Q832 1944 992 1944H2154Q2314 1944 2440.5 1897.0Q2567 1850 2654 1762Q2742 1675 2788.5 1549.0Q2835 1423 2835 1263V101Q2835 -59 2788.5 -185.5Q2742 -312 2654 -399Q2567 -486 2440.5 -533.0Q2314 -580 2154 -580ZM1024 -188H2122Q2300 -188 2371 -117Q2443 -46 2443 133V1231Q2443 1409 2371 1480Q2300 1552 2122 1552H1024Q847 1552 775 1480Q703 1409 703 1231V133Q703 -46 775 -117Q847 -188 1024 -188Z" transform="translate(-3.6445,22.7812) scale(0.011719,-0.011719)"/>
  </g>
</svg>
