<svg xmlns="http://www.w3.org/2000/svg" viewBox="0 0 34.6406 34.5938" width="24.0325" height="24.0000">
  <g fill="black" stroke="black" stroke-width="0.25">
    <path d="M1877 -238V-606Q1877 -680 1823.5 -734.0Q1770 -788 1696 -788Q1623 -788 1569.5 -734.0Q1516 -680 1516 -606V-238Q1516 -164 1569.5 -110.5Q1623 -57 1696 -57Q1770 -57 1823.5 -110.5Q1877 -164 1877 -238ZM654 -94 903 154Q954 205 1030.5 204.0Q1107 203 1159 151Q1210 100 1209.0 23.5Q1208 -53 1156 -104L907 -352Q856 -403 779.5 -401.5Q703 -400 650 -348Q600 -297 601.0 -221.0Q602 -145 654 -94ZM399 868H768Q842 868 896.0 814.5Q950 761 950 688Q950 614 896.0 560.5Q842 507 768 507H399Q326 507 272.5 560.5Q219 614 219 688Q219 761 272.5 814.5Q326 868 399 868ZM901 1224 654 1473Q603 1524 604.0 1600.5Q605 1677 657 1729Q708 1780 784.0 1778.5Q860 1777 911 1725L1159 1476Q1210 1425 1209.0 1349.0Q1208 1273 1156 1220Q1105 1170 1029.0 1170.5Q953 1171 901 1224ZM1877 1982V1613Q1877 1540 1823.5 1486.5Q1770 1433 1696 1433Q1623 1433 1569.5 1486.5Q1516 1540 1516 1613V1982Q1516 2055 1569.5 2109.5Q1623 2164 1696 2164Q1770 2164 1823.5 2109.5Q1877 2055 1877 1982ZM2233 1476 2482 1726Q2533 1777 2609.5 1778.5Q2686 1780 2736 1729Q2789 1677 2789.5 1600.0Q2790 1523 2740 1473L2492 1224Q2440 1171 2363.5 1170.5Q2287 1170 2237 1220Q2184 1273 2183.5 1349.0Q2183 1425 2233 1476ZM2994 507H2625Q2552 507 2498.5 560.5Q2445 614 2445 688Q2445 761 2498.5 814.5Q2552 868 2625 868H2994Q3067 868 3121.0 814.5Q3175 761 3175 688Q3175 614 3121.0 560.5Q3067 507 2994 507ZM2622 -565 1456 609Q1411 654 1396.5 712.5Q1382 771 1396.5 829.5Q1411 888 1455 933Q1499 977 1558.0 992.0Q1617 1007 1676.0 992.0Q1735 977 1779 933L2946 -241Q2991 -286 3005.5 -344.5Q3020 -403 3005.0 -461.5Q2990 -520 2946 -565Q2902 -609 2843.0 -623.5Q2784 -638 2725.0 -623.5Q2666 -609 2622 -565ZM1972 315 2070 417 1679 810Q1658 832 1628.0 832.0Q1598 832 1577 810Q1556 790 1556.0 760.5Q1556 731 1577 710Z" transform="translate(-2.5664,25.3594) scale(0.011719,-0.011719)"/>
  </g>
</svg>
