<svg xmlns="http://www.w3.org/2000/svg" viewBox="0 0 14.6133 14.7188" width="23.8280" height="24.0000">
  <g fill="black" stroke="black" stroke-width="0.25">
    <path d="M671 282Q530 282 413.0 352.0Q296 422 226.0 539.0Q156 656 156 797Q156 902 196.5 995.0Q237 1088 308.0 1159.0Q379 1230 472.0 1270.5Q565 1311 671 1311Q811 1311 928.0 1241.0Q1045 1171 1114.5 1054.0Q1184 937 1184 797Q1184 656 1114.5 539.0Q1045 422 928.0 352.0Q811 282 671 282ZM671 519Q746 519 809.0 556.5Q872 594 909.5 657.0Q947 720 947 797Q947 873 909.5 935.5Q872 998 809.0 1035.0Q746 1072 671 1072Q595 1072 532.0 1035.0Q469 998 431.0 935.5Q393 873 393 797Q393 720 431.0 657.0Q469 594 532.0 556.5Q595 519 671 519ZM1244 55Q1177 55 1127 103L830 398L1059 625L1356 328Q1380 304 1391.5 275.0Q1403 246 1403 216Q1403 146 1357.5 100.5Q1312 55 1244 55Z" transform="translate(-1.8281,15.3633) scale(0.011719,-0.011719)"/>
  </g>
</svg>
