<svg xmlns="http://www.w3.org/2000/svg" viewBox="0 0 13.8633 12.8555" width="25.8815" height="24.0000">
  <g fill="black" stroke="black" stroke-width="0.25">
    <path d="M156 244V966Q156 1007 173.0 1037.0Q190 1067 227 1087L437 1202Q480 1226 506 1231V255L325 157Q294 139 259 139Q218 139 187.0 164.5Q156 190 156 244ZM603 281V1230Q635 1215 646.0 1209.5Q657 1204 681 1191L890 1071V134Q869 137 853.0 143.5Q837 150 819 161ZM986 139V1117L1145 1204Q1162 1214 1182.5 1220.0Q1203 1226 1222 1226Q1272 1226 1305.5 1200.5Q1339 1175 1339 1119V412Q1339 370 1322.0 340.5Q1305 311 1263 289L1012 149Q997 141 986 139Z" transform="translate(-1.8281,14.4258) scale(0.011719,-0.011719)"/>
  </g>
</svg>
