<svg xmlns="http://www.w3.org/2000/svg" viewBox="0 0 14.1328 15.1055" width="22.4546" height="24.0000">
  <g fill="black" stroke="black" stroke-width="0.25">
    <path d="M509 1126Q509 1196 542.5 1253.0Q576 1310 633.5 1344.0Q691 1378 761 1378Q831 1378 888.0 1344.0Q945 1310 979.0 1253.0Q1013 1196 1013 1126Q1013 1043 964.0 977.0Q915 911 840 886V568Q840 509 827.0 458.0Q814 407 795.5 375.5Q777 344 761 344Q745 344 726.0 375.5Q707 407 693.5 458.5Q680 510 680 568V886Q605 912 557.0 977.5Q509 1043 509 1126ZM691 1110Q726 1110 751.5 1135.5Q777 1161 777 1196Q777 1231 751.5 1256.0Q726 1281 691 1281Q657 1281 631.5 1256.0Q606 1231 606 1196Q606 1161 631.5 1135.5Q657 1110 691 1110ZM760 89Q578 89 442.0 128.5Q306 168 231.0 235.5Q156 303 156 387Q156 446 191.0 496.0Q226 546 285.5 584.5Q345 623 421.5 647.5Q498 672 582 679V528Q533 523 487.0 511.0Q441 499 405.0 481.0Q369 463 348.0 440.5Q327 418 327 393Q327 349 382.0 315.0Q437 281 534.5 261.5Q632 242 760 242Q886 242 983.5 261.5Q1081 281 1136.0 315.0Q1191 349 1191 393Q1191 418 1170.0 440.5Q1149 463 1113.0 481.0Q1077 499 1031.5 511.0Q986 523 936 528V679Q1020 672 1096.5 647.5Q1173 623 1233.0 584.5Q1293 546 1327.5 496.0Q1362 446 1362 387Q1362 303 1287.5 235.5Q1213 168 1077.5 128.5Q942 89 760 89Z" transform="translate(-1.8281,16.1484) scale(0.011719,-0.011719)"/>
  </g>
</svg>
