<svg xmlns="http://www.w3.org/2000/svg" viewBox="0 0 30.6492 35.2266" width="20.8814" height="24.0000">
  <g fill="black" stroke="black" stroke-width="0.25">
    <path d="M874 353 338 1320Q309 1373 311.5 1431.5Q314 1490 346 1539L709 2079Q771 2172 890 2172H2348Q2466 2172 2529 2079L2892 1539Q2924 1490 2926.5 1431.5Q2929 1373 2900 1320L2364 353L2118 625L2540 1430L2420 1606L1955 713L1620 855L2156 1818H1082L1618 855L1283 713L818 1606L698 1430L1120 625ZM1095 1270V1601H2145V1270ZM1619 -834Q1433 -834 1269.5 -764.0Q1106 -694 982.5 -570.0Q859 -446 789.0 -283.0Q719 -120 719 66Q719 253 789.0 416.0Q859 579 982.5 702.5Q1106 826 1269.5 896.0Q1433 966 1619 966Q1805 966 1968.0 896.0Q2131 826 2255.0 702.5Q2379 579 2449.0 416.0Q2519 253 2519 66Q2519 -120 2449.0 -283.0Q2379 -446 2255.0 -570.0Q2131 -694 1968.0 -764.0Q1805 -834 1619 -834ZM1619 -480Q1732 -480 1831.0 -437.5Q1930 -395 2005.0 -319.5Q2080 -244 2122.5 -145.0Q2165 -46 2165 66Q2165 179 2122.5 278.0Q2080 377 2005.0 452.0Q1930 527 1831.0 569.5Q1732 612 1619 612Q1506 612 1407.0 569.5Q1308 527 1233.0 452.0Q1158 377 1115.5 278.0Q1073 179 1073 66Q1073 -47 1115.5 -145.5Q1158 -244 1233.0 -319.5Q1308 -395 1407.0 -437.5Q1506 -480 1619 -480ZM1427 -314Q1385 -345 1350.0 -320.0Q1315 -295 1332 -245L1408 -21L1215 119Q1189 137 1186.0 164.0Q1183 191 1200.0 211.0Q1217 231 1251 230L1488 227L1561 454Q1577 504 1618.5 504.0Q1660 504 1676 454L1750 227L1987 230Q2021 231 2037.5 211.0Q2054 191 2051.0 164.0Q2048 137 2022 119L1829 -20L1904 -245Q1920 -296 1886.0 -320.5Q1852 -345 1810 -314L1619 -173Z" transform="translate(-3.6481,25.4531) scale(0.011719,-0.011719)"/>
  </g>
</svg>
