<svg xmlns="http://www.w3.org/2000/svg" viewBox="0 0 26.2031 31.9922" width="19.6571" height="24.0000">
  <g fill="black" stroke="black" stroke-width="0.25">
    <path d="M1030 951Q997 951 974.0 973.5Q951 996 951 1029Q951 1060 974.5 1083.0Q998 1106 1030 1106H1147L1224 1427Q1234 1467 1266.5 1480.0Q1299 1493 1330.5 1479.0Q1362 1465 1371 1424L1444 1074L1515 1292Q1528 1331 1560.5 1345.0Q1593 1359 1624.0 1347.0Q1655 1335 1665 1296L1714 1106H1828Q1861 1106 1883.5 1083.5Q1906 1061 1906 1029Q1906 996 1883.0 973.5Q1860 951 1828 951H1665Q1611 951 1592 997L1586 1017L1507 758Q1495 718 1462.0 705.0Q1429 692 1397.0 706.0Q1365 720 1357 761L1293 1065L1279 1012Q1264 951 1200 951ZM1036 333Q997 333 972.0 358.5Q947 384 947 422Q947 458 972.0 482.5Q997 507 1036 507H1821Q1859 507 1884.0 482.5Q1909 458 1909 422Q1909 384 1884.0 358.5Q1859 333 1821 333ZM1411 19Q1373 19 1348.0 43.5Q1323 68 1323 105Q1323 142 1348.0 167.5Q1373 193 1411 193H1821Q1859 193 1884.0 167.5Q1909 142 1909 105Q1909 68 1884.0 43.5Q1859 19 1821 19ZM311 -220V1584Q311 1805 431.5 1926.0Q552 2047 773 2047H2085Q2306 2047 2426.5 1926.0Q2547 1805 2547 1584V-220Q2547 -441 2426.5 -562.0Q2306 -683 2085 -683H773Q552 -683 431.5 -562.0Q311 -441 311 -220ZM703 -167Q703 -228 732.5 -259.0Q762 -290 828 -290H2030Q2096 -290 2125.0 -259.0Q2154 -228 2154 -167V1531Q2154 1592 2125.0 1623.5Q2096 1655 2030 1655H828Q762 1655 732.5 1623.5Q703 1592 703 1531Z" transform="translate(-3.6445,23.9883) scale(0.011719,-0.011719)"/>
  </g>
</svg>
