<svg xmlns="http://www.w3.org/2000/svg" viewBox="0 0 21.8438 36.9961" width="14.1704" height="24.0000">
  <g fill="black" stroke="black" stroke-width="0.25">
    <path d="M538 1797V1984Q538 2115 610.0 2188.0Q682 2261 811 2261H1676Q1805 2261 1876.5 2188.0Q1948 2115 1948 1984V1797Q1948 1665 1876.5 1591.5Q1805 1518 1676 1518H811Q682 1518 610.0 1591.5Q538 1665 538 1797ZM873 1864Q873 1848 881.5 1840.0Q890 1832 905 1832H1602Q1618 1832 1626.5 1840.0Q1635 1848 1635 1864V1918Q1635 1932 1626.5 1940.5Q1618 1949 1602 1949H905Q890 1949 881.5 1940.5Q873 1932 873 1918ZM1019 1276H736V1639H1019ZM1750 1276H1467V1639H1750ZM311 -411V939Q311 1084 371.5 1193.5Q432 1303 540.5 1364.5Q649 1426 792 1426H1695Q1837 1426 1945.5 1364.5Q2054 1303 2114.5 1193.5Q2175 1084 2175 939V-411Q2175 -555 2114.5 -664.0Q2054 -773 1945.5 -834.5Q1837 -896 1695 -896H792Q649 -896 540.5 -834.5Q432 -773 371.5 -664.0Q311 -555 311 -411ZM656 -407Q656 -474 695.5 -513.5Q735 -553 803 -553H1683Q1751 -553 1790.5 -513.5Q1830 -474 1830 -407V936Q1830 1003 1790.5 1041.5Q1751 1080 1683 1080H803Q735 1080 695.5 1041.5Q656 1003 656 936ZM807 209V318Q807 370 838.0 400.5Q869 431 920 431H1074V587Q1074 638 1105.5 669.0Q1137 700 1188 700H1298Q1348 700 1379.5 669.0Q1411 638 1411 587V431H1566Q1617 431 1648.0 400.5Q1679 370 1679 318V209Q1679 158 1648.0 127.0Q1617 96 1566 96H1411V-59Q1411 -110 1379.5 -141.0Q1348 -172 1298 -172H1188Q1137 -172 1105.5 -141.0Q1074 -110 1074 -59V96H920Q869 96 838.0 127.0Q807 158 807 209Z" transform="translate(-3.6445,26.4961) scale(0.011719,-0.011719)"/>
  </g>
</svg>
