<svg xmlns="http://www.w3.org/2000/svg" viewBox="0 0 35.0508 32.6602" width="25.7567" height="24.0000">
  <g fill="black" stroke="black" stroke-width="0.25">
    <path d="M881 178Q606 178 458.5 321.0Q311 464 311 728V885Q311 1149 458.5 1292.5Q606 1436 881 1436H1073V178ZM1282 176V1436Q1409 1450 1559.5 1481.5Q1710 1513 1869.5 1560.0Q2029 1607 2186.0 1667.0Q2343 1727 2483 1797Q2482 1783 2481.0 1769.0Q2480 1755 2480 1740V-119Q2480 -135 2481.0 -151.5Q2482 -168 2484 -184Q2285 -86 2077.5 -13.5Q1870 59 1667.5 106.5Q1465 154 1282 176ZM2991 -451Q2903 -451 2832.5 -409.0Q2762 -367 2720.5 -296.0Q2679 -225 2679 -137V1763Q2679 1851 2720.5 1922.0Q2762 1993 2832.5 2034.5Q2903 2076 2991 2076Q3078 2076 3148.5 2034.5Q3219 1993 3260.5 1922.0Q3302 1851 3302 1763V-137Q3302 -225 3260.5 -296.0Q3219 -367 3148.5 -409.0Q3078 -451 2991 -451ZM1411 -711Q1281 -711 1208.5 -649.5Q1136 -588 1077 -475L838 -19Q850 -20 862.0 -20.5Q874 -21 886 -21Q1055 -22 1184.5 -30.0Q1314 -38 1415.5 -52.5Q1517 -67 1601 -87L1674 -352Q1702 -455 1672.0 -536.0Q1642 -617 1571.5 -664.0Q1501 -711 1411 -711Z" transform="translate(-3.6445,24.3281) scale(0.011719,-0.011719)"/>
  </g>
</svg>
