<svg xmlns="http://www.w3.org/2000/svg" viewBox="0 0 19.2422 32.1856" width="14.3484" height="24.0000">
  <g fill="black" stroke="black" stroke-width="0.25">
    <path d="M745 1309Q656 1309 634.0 1374.0Q612 1439 669 1516L1022 1997Q1067 2058 1132.0 2058.5Q1197 2059 1243 1997L1595 1516Q1653 1438 1629.5 1373.5Q1606 1309 1519 1309ZM1780 -687Q1711 -687 1645 -645L1588 -607Q1512 -558 1426.5 -479.5Q1341 -401 1258.0 -300.5Q1175 -200 1107.0 -84.5Q1039 31 998.5 154.5Q958 278 958 402V1471Q958 1543 1009.0 1594.5Q1060 1646 1132 1646Q1204 1646 1255.0 1594.5Q1306 1543 1306 1471V402Q1306 299 1352.5 192.5Q1399 86 1471.0 -11.5Q1543 -109 1624.0 -186.0Q1705 -263 1775 -308L1864 -364Q1907 -392 1930.0 -432.5Q1953 -473 1953 -516Q1953 -586 1908.5 -636.5Q1864 -687 1780 -687ZM484 -688Q400 -688 355.5 -637.5Q311 -587 311 -517Q311 -474 334.0 -433.5Q357 -393 400 -366L489 -309Q559 -264 640.0 -187.0Q721 -110 793.0 -12.5Q865 85 911.5 191.5Q958 298 958 401V1470Q958 1542 1009.0 1593.5Q1060 1645 1132 1645Q1204 1645 1255.0 1593.5Q1306 1542 1306 1470V401Q1306 277 1265.5 153.5Q1225 30 1157.0 -85.5Q1089 -201 1006.0 -301.5Q923 -402 837.5 -480.5Q752 -559 676 -608L619 -646Q553 -688 484 -688Z" transform="translate(-3.6445,24.1231) scale(0.011719,-0.011719)"/>
  </g>
</svg>
