<svg xmlns="http://www.w3.org/2000/svg" viewBox="0 0 26.7070 22.8633" width="28.0349" height="24.0000">
  <g fill="black" stroke="black" stroke-width="0.25">
    <path d="M1334 -131Q1178 -131 1037 -75Q996 -142 926.0 -183.5Q856 -225 772 -225Q687 -225 617.0 -183.5Q547 -142 505.5 -72.0Q464 -2 464 83Q464 162 500.5 229.0Q537 296 597 338Q560 416 540.0 503.0Q520 590 520 682Q520 850 583.5 997.5Q647 1145 759.0 1257.0Q871 1369 1018.5 1432.5Q1166 1496 1334 1496Q1502 1496 1649.5 1432.5Q1797 1369 1909.0 1257.0Q2021 1145 2084.0 997.5Q2147 850 2147 682Q2147 514 2084.0 366.5Q2021 219 1909.0 107.0Q1797 -5 1649.5 -68.0Q1502 -131 1334 -131ZM1334 122Q1449 122 1550.5 165.5Q1652 209 1729.5 286.0Q1807 363 1850.5 464.5Q1894 566 1894 682Q1894 798 1850.5 899.5Q1807 1001 1729.5 1078.0Q1652 1155 1550.5 1198.5Q1449 1242 1334 1242Q1218 1242 1116.5 1198.5Q1015 1155 938.0 1078.0Q861 1001 817.5 899.5Q774 798 774 682Q774 608 796.0 531.5Q818 455 865 378Q891 335 888.5 286.5Q886 238 856.5 203.5Q827 169 773 169Q737 169 712.5 144.5Q688 120 688 84Q688 49 712.5 24.0Q737 -1 773 -1Q808 -1 832.0 23.0Q856 47 860 83Q870 168 939.0 193.5Q1008 219 1082 184Q1147 152 1209.0 137.0Q1271 122 1334 122ZM355 -455Q290 -455 244.5 -409.0Q199 -363 199 -299Q199 -234 244.5 -188.0Q290 -142 355 -142Q420 -142 466.0 -188.0Q512 -234 512 -299Q512 -363 466.0 -409.0Q420 -455 355 -455ZM132 83Q132 162 169.0 229.0Q206 296 266 338Q229 416 209.0 503.0Q189 590 189 682Q189 869 267.5 1030.5Q346 1192 481.5 1306.0Q617 1420 790 1467Q665 1381 572.5 1259.5Q480 1138 429.0 991.5Q378 845 378 682Q378 522 429 376Q322 248 322 83Q322 43 329 -1Q284 -4 244.0 -21.0Q204 -38 170 -64Q132 3 132 83ZM-132 -299Q-132 -234 -86.5 -188.0Q-41 -142 24 -142Q42 -142 59.5 -146.0Q77 -150 93 -158Q57 -224 57 -299Q57 -374 92 -440Q76 -447 59.0 -451.0Q42 -455 24 -455Q-41 -455 -86.5 -409.0Q-132 -363 -132 -299Z" transform="translate(1.5469,17.5312) scale(0.011719,-0.011719)"/>
  </g>
</svg>
