<svg xmlns="http://www.w3.org/2000/svg" viewBox="0 0 31.1250 28.4062" width="26.2970" height="24.0000">
  <g fill="black" stroke="black" stroke-width="0.25">
    <path d="M1701 260H1456V1057Q1456 1113 1489.0 1147.5Q1522 1182 1578 1182Q1636 1182 1668.5 1147.5Q1701 1113 1701 1057ZM529 89 703 381H2441L2634 90ZM1457 137 440 1163Q396 1207 394.5 1263.0Q393 1319 440 1367Q486 1410 540.5 1409.0Q595 1408 638 1364L1657 337ZM2854 45Q2881 -1 2893.5 -51.0Q2906 -101 2906 -150Q2906 -256 2856.0 -347.0Q2806 -438 2717.0 -493.0Q2628 -548 2511 -548H646Q529 -548 439.5 -493.0Q350 -438 300.0 -347.0Q250 -256 250 -150Q250 -101 262.5 -51.5Q275 -2 301 44L656 664L925 392L667 -62Q662 -71 660.5 -82.0Q659 -93 659 -102Q659 -133 679.5 -156.5Q700 -180 734 -180H2423Q2456 -180 2477.0 -156.5Q2498 -133 2498 -102Q2498 -82 2489 -65L1642 1430Q1632 1448 1614.5 1456.0Q1597 1464 1578 1464Q1560 1464 1541.5 1456.5Q1523 1449 1513 1431L1273 1006L1005 1275L1235 1676Q1291 1775 1384.0 1825.5Q1477 1876 1578 1876Q1679 1876 1771.0 1826.5Q1863 1777 1921 1676Z" transform="translate(-2.9297,21.9844) scale(0.011719,-0.011719)"/>
  </g>
</svg>
