<svg xmlns="http://www.w3.org/2000/svg" viewBox="0 0 14.3438 16.6523" width="20.6728" height="24.0000">
  <g fill="black" stroke="black" stroke-width="0.25">
    <path d="M1253 160 190 1221Q167 1244 167.0 1278.0Q167 1312 190 1335Q214 1359 248.0 1359.0Q282 1359 306 1335L1367 274Q1391 250 1391.0 216.5Q1391 183 1367 160Q1344 136 1310.5 136.5Q1277 137 1253 160ZM842 416 976 283Q894 243 801 230V159H1003Q1041 159 1069.0 131.5Q1097 104 1097 66Q1097 30 1068.5 2.5Q1040 -25 1003 -25H426Q388 -25 360.0 2.0Q332 29 332 66Q332 104 360.0 131.5Q388 159 426 159H628V230Q507 246 411.0 307.0Q315 368 259.0 466.0Q203 564 203 690V827Q203 863 230.0 889.0Q257 915 295 915Q333 915 361.0 889.0Q389 863 389 827V693Q389 608 433.5 540.0Q478 472 552.0 432.0Q626 392 714 392Q779 392 842 416ZM489 769 761 498Q737 493 715 493Q627 493 558.0 555.0Q489 617 489 718ZM939 857 525 1270 530 1280Q557 1333 606.0 1364.5Q655 1396 715 1396Q803 1396 871.0 1333.5Q939 1271 939 1171ZM1213 582 1038 758Q1039 761 1039.0 764.5Q1039 768 1039 771V827Q1039 863 1067.0 889.0Q1095 915 1133 915Q1171 915 1198.5 889.0Q1226 863 1226 827V690Q1226 637 1213 582Z" transform="translate(-1.9570,16.3594) scale(0.011719,-0.011719)"/>
  </g>
</svg>
