<svg xmlns="http://www.w3.org/2000/svg" viewBox="0 0 37.6641 25.7695" width="35.0778" height="24.0000">
  <g fill="black" stroke="black" stroke-width="0.25">
    <path d="M684 -418Q574 -418 490.0 -370.0Q406 -322 358.5 -237.0Q311 -152 311 -41V1404Q311 1515 358.5 1600.0Q406 1685 490.0 1733.0Q574 1781 684 1781H3150Q3261 1781 3345.0 1733.0Q3429 1685 3477.0 1600.0Q3525 1515 3525 1404V-41Q3525 -152 3477.0 -237.0Q3429 -322 3345.0 -370.0Q3261 -418 3150 -418ZM728 -60H3118Q3139 -60 3152.0 -46.5Q3165 -33 3165 -13V1376Q3165 1397 3152.0 1410.0Q3139 1423 3118 1423H728Q702 1423 686.5 1407.0Q671 1391 671 1365V-1Q671 -27 686.5 -43.5Q702 -60 728 -60ZM923 112Q876 112 848.0 140.5Q820 169 820 215V1148Q820 1194 848.0 1222.5Q876 1251 923 1251H2062Q2108 1251 2136.0 1222.5Q2164 1194 2164 1148V215Q2164 169 2136.0 140.5Q2108 112 2062 112ZM1053 326H1930Q1952 326 1952 347V1016Q1952 1038 1930 1038H1053Q1032 1038 1032 1016V347Q1032 326 1053 326ZM2318 -109V1474H2542V-109ZM2433 173V397H3242V173ZM2677 1020Q2658 1020 2645.0 1033.0Q2632 1046 2632 1064V1206Q2632 1224 2645.0 1237.5Q2658 1251 2677 1251H2998Q3016 1251 3029.5 1237.5Q3043 1224 3043 1206V1064Q3043 1046 3029.5 1033.0Q3016 1020 2998 1020ZM2720 784Q2681 784 2656.5 809.0Q2632 834 2632 872Q2632 911 2656.5 936.0Q2681 961 2720 961H2954Q2993 961 3018.0 936.0Q3043 911 3043 872Q3043 834 3018.0 809.0Q2993 784 2954 784ZM2720 546Q2681 546 2656.5 570.5Q2632 595 2632 635Q2632 673 2656.5 697.5Q2681 722 2720 722H2954Q2993 722 3018.0 697.5Q3043 673 3043 635Q3043 595 3018.0 570.5Q2993 546 2954 546Z" transform="translate(-3.6445,20.8711) scale(0.011719,-0.011719)"/>
  </g>
</svg>
