<svg xmlns="http://www.w3.org/2000/svg" viewBox="0 0 15.4336 15.4336" width="24.0000" height="24.0000">
  <g fill="black" stroke="black" stroke-width="0.25">
    <path d="M814 338Q719 338 641.0 384.5Q563 431 516.5 509.0Q470 587 470 682Q470 777 516.5 855.0Q563 933 641.0 979.5Q719 1026 814 1026Q909 1026 987.0 979.5Q1065 933 1111.5 855.0Q1158 777 1158 682Q1158 587 1111.5 509.0Q1065 431 987.0 384.5Q909 338 814 338ZM815 1132Q770 1132 740.0 1162.5Q710 1193 710 1237Q710 1281 740.0 1311.5Q770 1342 815 1342Q859 1342 889.0 1311.5Q919 1281 919 1237Q919 1193 889.0 1162.5Q859 1132 815 1132ZM1092 1058Q1047 1058 1017.0 1088.0Q987 1118 987 1163Q987 1207 1017.0 1237.5Q1047 1268 1092 1268Q1136 1268 1166.0 1237.5Q1196 1207 1196 1163Q1196 1118 1166.0 1088.0Q1136 1058 1092 1058ZM1295 854Q1251 854 1220.5 884.5Q1190 915 1190 959Q1190 1004 1220.5 1034.0Q1251 1064 1295 1064Q1340 1064 1370.0 1034.0Q1400 1004 1400 959Q1400 915 1370.0 884.5Q1340 854 1295 854ZM1368 578Q1324 578 1294.0 608.5Q1264 639 1264 683Q1264 728 1294.0 758.0Q1324 788 1368 788Q1413 788 1443.0 758.0Q1473 728 1473 683Q1473 639 1443.0 608.5Q1413 578 1368 578ZM1295 303Q1251 303 1220.5 333.0Q1190 363 1190 407Q1190 452 1220.5 482.0Q1251 512 1295 512Q1340 512 1370.0 482.0Q1400 452 1400 407Q1400 363 1370.0 333.0Q1340 303 1295 303ZM1092 99Q1047 99 1017.0 129.0Q987 159 987 204Q987 248 1017.0 278.5Q1047 309 1092 309Q1136 309 1166.0 278.5Q1196 248 1196 204Q1196 159 1166.0 129.0Q1136 99 1092 99ZM815 25Q770 25 740.0 55.0Q710 85 710 130Q710 174 740.0 204.0Q770 234 815 234Q859 234 889.0 204.0Q919 174 919 130Q919 85 889.0 55.0Q859 25 815 25ZM538 99Q493 99 463.0 129.0Q433 159 433 204Q433 248 463.0 278.5Q493 309 538 309Q582 309 612.0 278.5Q642 248 642 204Q642 159 612.0 129.0Q582 99 538 99ZM334 303Q290 303 259.5 333.0Q229 363 229 407Q229 452 259.5 482.0Q290 512 334 512Q378 512 408.5 482.0Q439 452 439 407Q439 363 408.5 333.0Q378 303 334 303ZM261 578Q217 578 186.5 608.5Q156 639 156 683Q156 728 186.5 758.0Q217 788 261 788Q305 788 335.5 758.0Q366 728 366 683Q366 639 335.5 608.5Q305 578 261 578ZM334 854Q290 854 259.5 884.5Q229 915 229 959Q229 1004 259.5 1034.0Q290 1064 334 1064Q378 1064 408.5 1034.0Q439 1004 439 959Q439 915 408.5 884.5Q378 854 334 854ZM538 1058Q493 1058 463.0 1088.0Q433 1118 433 1163Q433 1207 463.0 1237.5Q493 1268 538 1268Q582 1268 612.0 1237.5Q642 1207 642 1163Q642 1118 612.0 1088.0Q582 1058 538 1058Z" transform="translate(-1.8281,15.7266) scale(0.011719,-0.011719)"/>
  </g>
</svg>
