<svg xmlns="http://www.w3.org/2000/svg" viewBox="0 0 11.9883 16.9570" width="16.9675" height="24.0000">
  <g fill="black" stroke="black" stroke-width="0.25">
    <path d="M380 -40Q341 -40 313.0 -13.5Q285 13 285 50Q285 89 313.0 116.5Q341 144 380 144H582V215Q461 231 364.5 292.0Q268 353 212.0 451.0Q156 549 156 675V794Q156 831 183.5 856.5Q211 882 249 882Q287 882 315.0 856.5Q343 831 343 794V678Q343 593 387.0 525.0Q431 457 505.0 417.0Q579 377 668 377Q757 377 830.5 417.0Q904 457 948.5 525.0Q993 593 993 678V794Q993 831 1021.0 856.5Q1049 882 1087 882Q1124 882 1151.5 856.5Q1179 831 1179 794V675Q1179 549 1123.0 451.0Q1067 353 971.0 292.5Q875 232 754 215V144H956Q995 144 1022.5 116.5Q1050 89 1050 50Q1050 13 1022.5 -13.5Q995 -40 956 -40ZM669 489Q578 489 516.0 551.0Q454 613 454 703V1193Q454 1283 516.0 1345.0Q578 1407 669 1407Q758 1407 819.5 1344.5Q881 1282 881 1192V703Q881 614 820.0 551.5Q759 489 669 489Z" transform="translate(-1.8281,16.4883) scale(0.011719,-0.011719)"/>
  </g>
</svg>
