<svg xmlns="http://www.w3.org/2000/svg" viewBox="0 0 37.9336 24.7148" width="36.8364" height="24.0000">
  <g fill="black" stroke="black" stroke-width="0.25">
    <path d="M311 -241V1605Q311 1664 347.5 1700.5Q384 1737 443 1737H3416Q3475 1737 3511.5 1700.5Q3548 1664 3548 1605V-241Q3548 -300 3511.5 -336.0Q3475 -372 3416 -372H443Q384 -372 347.5 -336.0Q311 -300 311 -241ZM703 53Q703 20 737 20H3122Q3156 20 3156 53V1311Q3156 1345 3122 1345H737Q703 1345 703 1311ZM783 146V1218Q783 1265 827 1265H3032Q3076 1265 3076 1218V146Q3076 99 3032 99H827Q783 99 783 146ZM935 273Q935 253 955 253H2904Q2923 253 2923 273V1092Q2923 1111 2904 1111H955Q935 1111 935 1092ZM1924 99Q1805 99 1713.5 173.5Q1622 248 1570.5 380.0Q1519 512 1519 684Q1519 855 1570.5 986.0Q1622 1117 1713.5 1191.0Q1805 1265 1924 1265Q2047 1265 2141.0 1191.0Q2235 1117 2288.5 986.0Q2342 855 2342 684Q2342 512 2288.5 380.0Q2235 248 2141.0 173.5Q2047 99 1924 99ZM1924 290Q1993 290 2047.5 339.0Q2102 388 2134.0 477.0Q2166 566 2166 684Q2166 801 2134.0 889.0Q2102 977 2047.5 1026.0Q1993 1075 1924 1075Q1860 1075 1808.0 1026.0Q1756 977 1725.0 889.0Q1694 801 1694 684Q1694 566 1725.0 477.0Q1756 388 1808.0 339.0Q1860 290 1924 290Z" transform="translate(-3.6445,20.3555) scale(0.011719,-0.011719)"/>
  </g>
</svg>
