<svg xmlns="http://www.w3.org/2000/svg" viewBox="0 0 14.0977 14.7656" width="22.9143" height="24.0000">
  <g fill="black" stroke="black" stroke-width="0.25">
    <path d="M747 53Q620 53 512.0 96.5Q404 140 324.0 218.5Q244 297 200.0 404.0Q156 511 156 639Q156 758 201.0 867.0Q246 976 328.0 1059.5Q410 1143 520 1187Q565 1205 597.5 1178.5Q630 1152 601 1100Q585 1067 574.5 1012.5Q564 958 564 906Q564 766 621.0 665.0Q678 564 782.0 509.5Q886 455 1029 455Q1078 455 1123.5 463.5Q1169 472 1196 485Q1249 511 1276.5 478.5Q1304 446 1281 400Q1247 323 1192.5 259.5Q1138 196 1068.5 149.5Q999 103 917.5 78.0Q836 53 747 53ZM1084 764Q1054 764 1050 796Q1041 860 1032.5 896.0Q1024 932 1005.0 950.5Q986 969 947.5 979.5Q909 990 840 1003Q809 1010 809 1038Q809 1069 841 1073Q910 1082 948.5 1090.5Q987 1099 1006.0 1118.0Q1025 1137 1033.0 1175.0Q1041 1213 1050 1280Q1054 1313 1084 1313Q1114 1313 1119 1279Q1126 1215 1134.5 1179.5Q1143 1144 1162.5 1125.5Q1182 1107 1220.5 1097.0Q1259 1087 1328 1073Q1359 1067 1359 1038Q1359 1009 1325 1003Q1258 993 1220.0 983.5Q1182 974 1163.0 955.5Q1144 937 1135.5 899.5Q1127 862 1119 796Q1114 764 1084 764Z" transform="translate(-1.8281,15.3867) scale(0.011719,-0.011719)"/>
  </g>
</svg>
