<svg xmlns="http://www.w3.org/2000/svg" viewBox="0 0 15.6094 16.2688" width="23.0273" height="24.0000">
  <g fill="black" stroke="black" stroke-width="0.25">
    <path d="M397 683H1337Q1346 695 1353 714Q1381 779 1347 812Q1313 841 1257 818Q1228 804 1190.5 797.5Q1153 791 1112 791Q939 791 836.5 888.5Q734 986 734 1153Q734 1196 741.5 1240.0Q749 1284 765 1320Q791 1378 763 1411Q732 1445 667 1419Q569 1381 495.5 1306.5Q422 1232 381.0 1134.0Q340 1036 340 927Q340 861 354.5 799.0Q369 737 397 683ZM247 459H1406Q1432 459 1450.0 476.5Q1468 494 1468 520Q1468 547 1450.0 564.5Q1432 582 1406 582H247Q221 582 203.0 564.5Q185 547 185 520Q185 494 203.0 476.5Q221 459 247 459ZM296 250H1455Q1481 250 1499.0 268.0Q1517 286 1517 312Q1517 338 1499.0 356.0Q1481 374 1455 374H296Q270 374 252.0 356.0Q234 338 234 312Q234 286 252.0 268.0Q270 250 296 250ZM247 42H1406Q1432 42 1450.0 60.5Q1468 79 1468 105Q1468 130 1450.0 148.5Q1432 167 1406 167H247Q221 167 203.0 148.5Q185 130 185 105Q185 79 203.0 60.5Q221 42 247 42Z" transform="translate(-2.1680,16.7609) scale(0.011719,-0.011719)"/>
  </g>
</svg>
