<svg xmlns="http://www.w3.org/2000/svg" viewBox="0 0 30.9023 30.9023" width="24.0000" height="24.0000">
  <g fill="black" stroke="black" stroke-width="0.25">
    <path d="M2460 682Q2459 872 2389.0 1039.0Q2319 1206 2195.0 1333.0Q2071 1460 1906.5 1532.5Q1742 1605 1554 1605Q1545 1605 1537.5 1604.5Q1530 1604 1522 1603Q1614 1518 1686.0 1416.0Q1758 1314 1808.0 1197.0Q1858 1080 1884.0 951.0Q1910 822 1910 682Q1910 543 1884.0 413.5Q1858 284 1808.0 167.5Q1758 51 1686.0 -51.5Q1614 -154 1522 -239Q1529 -240 1536.0 -240.0Q1543 -240 1551 -240Q1740 -240 1905.0 -168.0Q2070 -96 2194.5 31.0Q2319 158 2389.5 325.0Q2460 492 2460 682ZM1537 -635Q1319 -635 1121.0 -568.5Q923 -502 758.5 -381.0Q594 -260 473.0 -95.0Q352 70 285.5 267.5Q219 465 219 683Q219 902 285.5 1099.5Q352 1297 473.0 1462.0Q594 1627 758.5 1748.0Q923 1869 1121.0 1935.5Q1319 2002 1537 2002Q1755 2002 1953.0 1935.5Q2151 1869 2315.5 1748.0Q2480 1627 2601.0 1462.0Q2722 1297 2789.0 1099.5Q2856 902 2856 683Q2856 465 2789.0 267.5Q2722 70 2601.0 -95.0Q2480 -260 2315.5 -381.0Q2151 -502 1953.0 -568.5Q1755 -635 1537 -635Z" transform="translate(-2.5664,23.4609) scale(0.011719,-0.011719)"/>
  </g>
</svg>
