<svg xmlns="http://www.w3.org/2000/svg" viewBox="0 0 31.9453 34.1836" width="22.4285" height="24.0000">
  <g fill="black" stroke="black" stroke-width="0.25">
    <path d="M1561 -629Q1356 -629 1170.5 -566.5Q985 -504 830.5 -390.5Q676 -277 562.0 -122.0Q448 33 385.5 218.5Q323 404 323 609Q323 798 375.5 971.5Q428 1145 525.5 1293.5Q623 1442 757.5 1557.5Q892 1673 1057 1746Q1136 1781 1194.5 1762.5Q1253 1744 1273.0 1689.0Q1293 1634 1259 1560Q1221 1477 1198.0 1371.5Q1175 1266 1175 1175Q1175 869 1286.5 656.0Q1398 443 1611.0 331.5Q1824 220 2129 220Q2222 220 2326.5 242.0Q2431 264 2514 301Q2580 332 2634.5 314.5Q2689 297 2709.0 241.5Q2729 186 2691 101Q2593 -116 2422.5 -280.5Q2252 -445 2031.0 -537.0Q1810 -629 1561 -629ZM1561 -278Q1653 -278 1737.5 -260.0Q1822 -242 1898.5 -208.0Q1975 -174 2043 -127Q2029 -127 2015.5 -126.0Q2002 -125 1990 -124Q1650 -99 1398.0 49.0Q1146 197 999.5 450.5Q853 704 830 1046Q829 1058 829.0 1067.5Q829 1077 828 1090Q792 1040 763.0 983.5Q734 927 714.0 866.0Q694 805 683.5 740.5Q673 676 673 609Q673 426 742.5 265.0Q812 104 934.0 -18.0Q1056 -140 1217.0 -209.0Q1378 -278 1561 -278ZM2547 768Q2522 768 2504.0 784.0Q2486 800 2483 825Q2471 919 2459.5 979.0Q2448 1039 2427.5 1074.5Q2407 1110 2369.0 1131.0Q2331 1152 2266.5 1167.5Q2202 1183 2102 1204Q2045 1216 2045 1268Q2045 1293 2061.5 1311.0Q2078 1329 2103 1332Q2202 1345 2266.0 1357.5Q2330 1370 2368.5 1390.5Q2407 1411 2427.5 1448.5Q2448 1486 2459.5 1549.0Q2471 1612 2483 1710Q2486 1736 2504.0 1752.5Q2522 1769 2547 1769Q2604 1769 2612 1708Q2623 1614 2634.0 1555.0Q2645 1496 2666.0 1460.5Q2687 1425 2725.5 1404.5Q2764 1384 2828.5 1368.5Q2893 1353 2993 1332Q3049 1320 3049 1268Q3049 1213 2986 1204Q2888 1190 2825.0 1176.5Q2762 1163 2724.0 1142.0Q2686 1121 2665.5 1083.5Q2645 1046 2634.0 984.5Q2623 923 2612 828Q2604 768 2547 768ZM1953 1666Q1919 1666 1913 1702Q1901 1775 1891.5 1815.5Q1882 1856 1861.0 1876.5Q1840 1897 1797.0 1909.5Q1754 1922 1676 1937Q1641 1944 1641 1977Q1641 2012 1678 2017Q1755 2029 1798.0 2039.5Q1841 2050 1861.5 2071.0Q1882 2092 1892.0 2134.0Q1902 2176 1913 2251Q1919 2288 1953 2288Q1987 2288 1993 2250Q2003 2178 2012.5 2138.0Q2022 2098 2043.0 2077.5Q2064 2057 2107.5 2045.0Q2151 2033 2229 2017Q2265 2010 2265 1977Q2265 1944 2226 1937Q2150 1924 2107.5 1912.5Q2065 1901 2044.5 1880.5Q2024 1860 2014.0 1818.5Q2004 1777 1993 1703Q1987 1666 1953 1666Z" transform="translate(-3.7852,26.8125) scale(0.011719,-0.011719)"/>
  </g>
</svg>
