<svg xmlns="http://www.w3.org/2000/svg" viewBox="0 0 30.9023 30.9023" width="24.0000" height="24.0000">
  <g fill="black" stroke="black" stroke-width="0.25">
    <path d="M1914 682Q1914 826 1890.0 957.0Q1866 1088 1819.5 1204.0Q1773 1320 1703.5 1420.0Q1634 1520 1543 1603Q1344 1599 1174.5 1527.5Q1005 1456 879.5 1331.0Q754 1206 684.5 1040.5Q615 875 614 682Q614 490 683.5 324.5Q753 159 878.5 34.0Q1004 -91 1174.0 -163.0Q1344 -235 1545 -238Q1665 -129 1747.5 11.5Q1830 152 1872.0 320.5Q1914 489 1914 682ZM1537 -635Q1319 -635 1121.0 -568.5Q923 -502 758.5 -381.0Q594 -260 473.0 -95.0Q352 70 285.5 267.5Q219 465 219 683Q219 902 285.5 1099.5Q352 1297 473.0 1462.0Q594 1627 758.5 1748.0Q923 1869 1121.0 1935.5Q1319 2002 1537 2002Q1755 2002 1953.0 1935.5Q2151 1869 2315.5 1748.0Q2480 1627 2601.0 1462.0Q2722 1297 2789.0 1099.5Q2856 902 2856 683Q2856 465 2789.0 267.5Q2722 70 2601.0 -95.0Q2480 -260 2315.5 -381.0Q2151 -502 1953.0 -568.5Q1755 -635 1537 -635Z" transform="translate(-2.5664,23.4609) scale(0.011719,-0.011719)"/>
  </g>
</svg>
