<svg xmlns="http://www.w3.org/2000/svg" viewBox="0 0 30.9023 30.9023" width="24.0000" height="24.0000">
  <g fill="black" stroke="black" stroke-width="0.25">
    <path d="M1537 -243V1603Q1346 1603 1178.5 1531.0Q1011 1459 884.5 1332.5Q758 1206 686.0 1038.5Q614 871 614 680Q614 489 686.0 321.5Q758 154 884.5 27.5Q1011 -99 1178.5 -171.0Q1346 -243 1537 -243ZM1537 -635Q1319 -635 1121.0 -568.5Q923 -502 758.5 -381.0Q594 -260 473.0 -95.0Q352 70 285.5 267.5Q219 465 219 683Q219 902 285.5 1099.5Q352 1297 473.0 1462.0Q594 1627 758.5 1748.0Q923 1869 1121.0 1935.5Q1319 2002 1537 2002Q1755 2002 1953.0 1935.5Q2151 1869 2315.5 1748.0Q2480 1627 2601.0 1462.0Q2722 1297 2789.0 1099.5Q2856 902 2856 683Q2856 465 2789.0 267.5Q2722 70 2601.0 -95.0Q2480 -260 2315.5 -381.0Q2151 -502 1953.0 -568.5Q1755 -635 1537 -635Z" transform="translate(-2.5664,23.4609) scale(0.011719,-0.011719)"/>
  </g>
</svg>
