<svg xmlns="http://www.w3.org/2000/svg" viewBox="0 0 14.6783 14.7078" width="23.9519" height="24.0000">
  <g fill="black" stroke="black" stroke-width="0.25">
    <path d="M805 16Q936 16 1051.0 64.5Q1166 113 1255.0 198.5Q1344 284 1396 397Q1424 462 1389.5 491.5Q1355 521 1305 498Q1264 479 1209.0 467.5Q1154 456 1106 456Q863 456 731.0 588.0Q599 720 599 963Q599 1011 611.5 1066.5Q624 1122 643 1164Q669 1222 636.5 1253.5Q604 1285 544 1260Q457 1221 386.0 1160.5Q315 1100 263.5 1022.0Q212 944 184.0 853.5Q156 763 156 664Q156 530 206.5 412.5Q257 295 346.0 206.0Q435 117 552.5 66.5Q670 16 805 16Z" transform="translate(-1.8281,14.8953) scale(0.011719,-0.011719)"/>
  </g>
</svg>
