<svg xmlns="http://www.w3.org/2000/svg" viewBox="0 0 15.0000 14.4961" width="24.8343" height="24.0000">
  <g fill="black" stroke="black" stroke-width="0.25">
    <path d="M1069 835Q1037 835 1013.5 859.5Q990 884 990 916V1120L993 1145L1000 1156L955 1105Q943 1091 928.0 1081.0Q913 1071 892 1071Q862 1071 840.0 1092.5Q818 1114 818 1143Q818 1163 827.5 1178.5Q837 1194 851 1207L1010 1357Q1038 1383 1069 1383Q1099 1383 1127 1357L1286 1207Q1300 1194 1309.5 1178.5Q1319 1163 1319 1143Q1319 1114 1297.5 1092.5Q1276 1071 1245 1071Q1224 1071 1208.5 1081.0Q1193 1091 1182 1105L1140 1154L1144 1146L1147 1120V916Q1147 884 1124.0 859.5Q1101 835 1069 835ZM249 146Q211 146 183.5 174.5Q156 203 156 240Q156 278 183.0 306.5Q210 335 249 335H1343Q1382 335 1409.0 306.5Q1436 278 1436 240Q1436 202 1409.0 174.0Q1382 146 1343 146ZM349 427Q323 479 309.0 537.0Q295 595 295 656Q295 758 333.5 850.0Q372 942 441.0 1011.5Q510 1081 601 1117Q661 1141 691 1109Q717 1078 693 1024Q678 991 670.5 949.5Q663 908 663 868Q663 711 758.5 620.0Q854 529 1017 529Q1055 529 1090.5 535.0Q1126 541 1153 554Q1206 576 1236 548Q1268 517 1243 457Q1239 449 1235.5 442.0Q1232 435 1227 427Z" transform="translate(-1.8281,16.2070) scale(0.011719,-0.011719)"/>
  </g>
</svg>
