<svg xmlns="http://www.w3.org/2000/svg" viewBox="0 0 30.9023 30.9023" width="24.0000" height="24.0000">
  <g fill="black" stroke="black" stroke-width="0.25">
    <path d="M1160 682Q1160 489 1202.0 320.5Q1244 152 1326.5 11.5Q1409 -129 1530 -238Q1730 -235 1900.0 -163.0Q2070 -91 2195.5 34.0Q2321 159 2390.5 324.5Q2460 490 2460 682Q2459 875 2389.5 1040.5Q2320 1206 2194.5 1331.0Q2069 1456 1899.5 1527.5Q1730 1599 1531 1603Q1440 1520 1371.0 1420.0Q1302 1320 1255.0 1204.0Q1208 1088 1184.0 957.0Q1160 826 1160 682ZM1537 -635Q1319 -635 1121.0 -568.5Q923 -502 758.5 -381.0Q594 -260 473.0 -95.0Q352 70 285.5 267.5Q219 465 219 683Q219 902 285.5 1099.5Q352 1297 473.0 1462.0Q594 1627 758.5 1748.0Q923 1869 1121.0 1935.5Q1319 2002 1537 2002Q1755 2002 1953.0 1935.5Q2151 1869 2315.5 1748.0Q2480 1627 2601.0 1462.0Q2722 1297 2789.0 1099.5Q2856 902 2856 683Q2856 465 2789.0 267.5Q2722 70 2601.0 -95.0Q2480 -260 2315.5 -381.0Q2151 -502 1953.0 -568.5Q1755 -635 1537 -635Z" transform="translate(-2.5664,23.4609) scale(0.011719,-0.011719)"/>
  </g>
</svg>
