<svg xmlns="http://www.w3.org/2000/svg" viewBox="0 0 30.9023 30.9023" width="24.0000" height="24.0000">
  <g fill="black" stroke="black" stroke-width="0.25">
    <path d="M614 682Q614 492 684.5 325.0Q755 158 879.5 31.0Q1004 -96 1169.0 -168.0Q1334 -240 1523 -240Q1531 -240 1538.0 -240.0Q1545 -240 1552 -239Q1460 -154 1388.0 -51.5Q1316 51 1266.0 167.5Q1216 284 1190.0 413.5Q1164 543 1164 682Q1164 822 1190.0 951.0Q1216 1080 1266.0 1197.0Q1316 1314 1388.0 1416.0Q1460 1518 1552 1603Q1544 1604 1536.5 1604.5Q1529 1605 1521 1605Q1332 1605 1167.5 1532.5Q1003 1460 879.0 1333.0Q755 1206 685.0 1039.0Q615 872 614 682ZM1537 -635Q1319 -635 1121.0 -568.5Q923 -502 758.5 -381.0Q594 -260 473.0 -95.0Q352 70 285.5 267.5Q219 465 219 683Q219 902 285.5 1099.5Q352 1297 473.0 1462.0Q594 1627 758.5 1748.0Q923 1869 1121.0 1935.5Q1319 2002 1537 2002Q1755 2002 1953.0 1935.5Q2151 1869 2315.5 1748.0Q2480 1627 2601.0 1462.0Q2722 1297 2789.0 1099.5Q2856 902 2856 683Q2856 465 2789.0 267.5Q2722 70 2601.0 -95.0Q2480 -260 2315.5 -381.0Q2151 -502 1953.0 -568.5Q1755 -635 1537 -635Z" transform="translate(-2.5664,23.4609) scale(0.011719,-0.011719)"/>
  </g>
</svg>
