<svg xmlns="http://www.w3.org/2000/svg" viewBox="0 0 15.7852 16.4914" width="22.9722" height="24.0000">
  <g fill="black" stroke="black" stroke-width="0.25">
    <path d="M382 704Q355 756 340.5 815.5Q326 875 326 938Q326 1043 365.5 1136.5Q405 1230 475.5 1301.0Q546 1372 639 1408Q700 1434 730 1400Q756 1369 732 1315Q717 1281 709.5 1238.5Q702 1196 702 1155Q702 995 799.5 901.5Q897 808 1064 808Q1103 808 1139.0 814.0Q1175 820 1203 833Q1256 855 1287 827Q1319 796 1294 734Q1290 727 1286.5 719.0Q1283 711 1278 704ZM254 412Q214 412 185.0 442.0Q156 472 156 511Q156 550 184.0 580.0Q212 610 254 610H1405Q1447 610 1475.0 580.5Q1503 551 1503 511Q1503 472 1474.5 442.0Q1446 412 1405 412ZM278 184Q248 184 227.0 205.5Q206 227 206 257Q206 287 227.0 308.0Q248 329 278 329Q308 329 329.5 308.0Q351 287 351 257Q351 227 329.5 205.5Q308 184 278 184ZM556 184Q526 184 504.5 205.5Q483 227 483 257Q483 287 504.5 308.0Q526 329 556 329Q586 329 607.0 308.0Q628 287 628 257Q628 227 607.0 205.5Q586 184 556 184ZM831 184Q801 184 780.0 205.5Q759 227 759 257Q759 287 780.0 308.0Q801 329 831 329Q861 329 882.5 308.0Q904 287 904 257Q904 227 882.5 205.5Q861 184 831 184ZM1109 184Q1079 184 1057.5 205.5Q1036 227 1036 257Q1036 287 1057.5 308.0Q1079 329 1109 329Q1139 329 1160.0 308.0Q1181 287 1181 257Q1181 227 1160.0 205.5Q1139 184 1109 184ZM1384 184Q1354 184 1333.0 205.5Q1312 227 1312 257Q1312 287 1333.0 308.0Q1354 329 1384 329Q1414 329 1435.5 308.0Q1457 287 1457 257Q1457 227 1435.5 205.5Q1414 184 1384 184ZM417 12Q387 12 366.0 33.0Q345 54 345 84Q345 114 366.0 135.5Q387 157 417 157Q447 157 468.5 135.5Q490 114 490 84Q490 54 468.5 33.0Q447 12 417 12ZM695 12Q665 12 643.5 33.0Q622 54 622 84Q622 114 643.5 135.5Q665 157 695 157Q725 157 746.0 135.5Q767 114 767 84Q767 54 746.0 33.0Q725 12 695 12ZM970 12Q940 12 919.0 33.0Q898 54 898 84Q898 114 919.0 135.5Q940 157 970 157Q1000 157 1021.5 135.5Q1043 114 1043 84Q1043 54 1021.5 33.0Q1000 12 970 12ZM1245 12Q1215 12 1194.0 33.0Q1173 54 1173 84Q1173 114 1194.0 135.5Q1215 157 1245 157Q1275 157 1296.5 135.5Q1318 114 1318 84Q1318 54 1296.5 33.0Q1275 12 1245 12Z" transform="translate(-1.8281,16.6320) scale(0.011719,-0.011719)"/>
  </g>
</svg>
