<svg xmlns="http://www.w3.org/2000/svg" viewBox="0 0 15.0000 14.4961" width="24.8343" height="24.0000">
  <g fill="black" stroke="black" stroke-width="0.25">
    <path d="M1069 1383Q1101 1383 1124.0 1358.5Q1147 1334 1147 1302V1098L1144 1071L1140 1064L1182 1113Q1193 1127 1208.5 1137.0Q1224 1147 1245 1147Q1276 1147 1297.5 1125.5Q1319 1104 1319 1075Q1319 1055 1309.5 1039.5Q1300 1024 1286 1011L1127 861Q1099 835 1069 835Q1038 835 1010 861L851 1011Q837 1024 827.5 1039.5Q818 1055 818 1075Q818 1104 840.0 1125.5Q862 1147 892 1147Q913 1147 928.0 1137.0Q943 1127 955 1113L1000 1062L993 1073L990 1098V1302Q990 1334 1013.5 1358.5Q1037 1383 1069 1383ZM249 146Q211 146 183.5 174.5Q156 203 156 240Q156 278 183.0 306.5Q210 335 249 335H1343Q1382 335 1409.0 306.5Q1436 278 1436 240Q1436 202 1409.0 174.0Q1382 146 1343 146ZM349 427Q323 479 309.0 537.0Q295 595 295 656Q295 758 333.5 850.0Q372 942 441.0 1011.5Q510 1081 601 1117Q661 1141 691 1109Q717 1078 693 1024Q678 991 670.5 949.5Q663 908 663 868Q663 711 758.5 620.0Q854 529 1017 529Q1055 529 1090.5 535.0Q1126 541 1153 554Q1206 576 1236 548Q1268 517 1243 457Q1239 449 1235.5 442.0Q1232 435 1227 427Z" transform="translate(-1.8281,16.2070) scale(0.011719,-0.011719)"/>
  </g>
</svg>
