<svg xmlns="http://www.w3.org/2000/svg" viewBox="0 0 52.6992 32.4023" width="39.0336" height="24.0000">
  <g fill="black" stroke="black" stroke-width="0.25">
    <path d="M1145 -59 969 173 1961 944Q2161 1100 2317.5 1189.0Q2474 1278 2609.5 1314.5Q2745 1351 2881 1350Q3061 1348 3185.5 1278.5Q3310 1209 3374.5 1088.0Q3439 967 3439 812Q3439 630 3350.0 496.0Q3261 362 3099.5 288.5Q2938 215 2719 215Q2524 215 2362.5 270.5Q2201 326 2070.0 423.5Q1939 521 1834 647L2092 841Q2195 727 2294.5 654.0Q2394 581 2501.5 545.5Q2609 510 2736 510Q2863 510 2949.5 552.0Q3036 594 3080.0 662.0Q3124 730 3124 808Q3124 904 3057.0 979.0Q2990 1054 2848 1054Q2748 1054 2645.0 1020.0Q2542 986 2409.0 903.5Q2276 821 2088 674ZM1057 -697Q902 -697 766.5 -639.0Q631 -581 529.0 -479.0Q427 -377 369.0 -242.0Q311 -107 311 47Q311 201 369.0 336.0Q427 471 529.0 573.5Q631 676 766.5 734.0Q902 792 1057 792Q1211 792 1345.5 734.0Q1480 676 1581.5 573.5Q1683 471 1741.0 336.0Q1799 201 1799 47Q1799 -107 1741.0 -242.0Q1683 -377 1581.5 -479.0Q1480 -581 1345.5 -639.0Q1211 -697 1057 -697ZM1055 -402Q1179 -402 1281.5 -341.0Q1384 -280 1445.0 -178.0Q1506 -76 1506 50Q1506 174 1445.0 275.5Q1384 377 1281.5 437.5Q1179 498 1055 498Q931 498 828.5 437.5Q726 377 665.0 275.0Q604 173 604 50Q604 -76 665.0 -178.5Q726 -281 828.0 -341.5Q930 -402 1055 -402ZM1198 1046Q1135 1046 1090.5 1090.5Q1046 1135 1046 1198Q1046 1260 1091.0 1304.5Q1136 1349 1198 1349H1820Q1883 1349 1927.5 1304.5Q1972 1260 1972 1198Q1972 1135 1927.5 1090.5Q1883 1046 1820 1046ZM4066 -697Q3911 -697 3776.0 -639.0Q3641 -581 3538.5 -479.0Q3436 -377 3378.5 -242.0Q3321 -107 3321 47Q3321 201 3378.5 336.0Q3436 471 3538.5 573.5Q3641 676 3776.0 734.0Q3911 792 4066 792Q4220 792 4354.5 734.0Q4489 676 4591.0 573.5Q4693 471 4750.5 336.0Q4808 201 4808 47Q4808 -107 4750.5 -242.0Q4693 -377 4591.0 -479.0Q4489 -581 4354.5 -639.0Q4220 -697 4066 -697ZM4065 -402Q4189 -402 4291.0 -341.0Q4393 -280 4454.0 -178.0Q4515 -76 4515 50Q4515 174 4454.0 275.5Q4393 377 4291.0 437.5Q4189 498 4065 498Q3940 498 3838.0 437.5Q3736 377 3675.0 275.0Q3614 173 3614 50Q3614 -76 3674.5 -178.5Q3735 -281 3837.5 -341.5Q3940 -402 4065 -402ZM4065 -171Q3971 -171 3908.0 -107.0Q3845 -43 3846 50Q3847 142 3909.5 205.0Q3972 268 4065 268Q4157 268 4220.5 204.5Q4284 141 4284 48Q4284 -43 4220.0 -107.0Q4156 -171 4065 -171ZM3932 -42 3415 1749Q3411 1765 3392 1765H3051Q2988 1765 2943.5 1809.5Q2899 1854 2899 1917Q2899 1979 2943.5 2023.5Q2988 2068 3051 2068H3464Q3538 2068 3588.5 2039.5Q3639 2011 3657 1949L4221 40ZM4243 1024Q4163 1030 4096 1075Q4023 1122 3986.0 1199.0Q3949 1276 3952.5 1362.0Q3956 1448 4006 1520Q4049 1586 4118 1624Q4158 1646 4188.5 1628.5Q4219 1611 4227 1568L4319 1123Q4328 1080 4308.5 1049.5Q4289 1019 4243 1024ZM1055 -171Q962 -171 898.5 -107.0Q835 -43 836 50Q838 142 900.5 205.0Q963 268 1055 268Q1148 268 1211.0 204.5Q1274 141 1274 48Q1274 -43 1210.5 -107.0Q1147 -171 1055 -171ZM2127 -275Q2064 -275 2019.5 -230.5Q1975 -186 1975 -123Q1975 -60 2019.5 -15.5Q2064 29 2127 29H2425Q2453 29 2467 47L2756 410L3171 468L2656 -198Q2626 -237 2590.0 -256.0Q2554 -275 2495 -275Z" transform="translate(-3.6445,24.2344) scale(0.011719,-0.011719)"/>
  </g>
</svg>
