<svg xmlns="http://www.w3.org/2000/svg" viewBox="0 0 18.8006 12.0586" width="37.4186" height="24.0000">
  <g fill="black" stroke="black" stroke-width="0.25">
    <path d="M860 976Q840 976 837 994Q831 1033 823.5 1057.5Q816 1082 802.0 1096.0Q788 1110 763.5 1118.0Q739 1126 699 1132Q679 1137 679 1155Q679 1176 699 1179Q739 1185 763.0 1193.0Q787 1201 800.0 1215.5Q813 1230 821.0 1254.5Q829 1279 837 1317Q840 1336 860 1336Q877 1336 882 1316Q888 1278 895.5 1253.5Q903 1229 916.5 1215.0Q930 1201 954.5 1193.0Q979 1185 1019 1179Q1041 1176 1041 1155Q1041 1139 1019 1132Q966 1124 940.5 1112.0Q915 1100 904.0 1072.5Q893 1045 882 993Q877 976 860 976ZM758 307Q703 307 673.0 337.0Q643 367 642.0 410.0Q641 453 673 491L1087 981Q1143 1046 1201 1046Q1260 1046 1314 982L1729 491Q1761 453 1760.0 410.0Q1759 367 1729.0 337.0Q1699 307 1643 307ZM610 545Q558 486 561 411H257Q213 411 186.0 438.5Q159 466 156.0 504.5Q153 543 181 575L492 932Q519 963 547.0 979.0Q575 995 605 995Q637 995 664.0 979.0Q691 963 718 932L830 806Z" transform="translate(-1.8247,15.6562) scale(0.011719,-0.011719)"/>
  </g>
</svg>
