<svg xmlns="http://www.w3.org/2000/svg" viewBox="0 0 17.3530 9.3926" width="44.3403" height="24.0000">
  <g fill="black" stroke="black" stroke-width="0.25">
    <path d="M790 864 950 1072Q1004 1141 1072.5 1141.5Q1141 1142 1195 1073L1357 864Q1314 857 1284.0 831.0Q1254 805 1223 805Q1200 805 1178.0 820.0Q1156 835 1130.5 850.0Q1105 865 1072 865Q1041 865 1015.5 850.0Q990 835 967.0 820.0Q944 805 922 805Q891 805 860.0 830.5Q829 856 790 864ZM627 340Q568 340 538.0 372.5Q508 405 507.5 450.0Q507 495 537 535L700 747Q734 778 759.5 778.5Q785 779 808.0 765.5Q831 752 858.0 737.0Q885 722 922 722Q964 722 991.5 737.5Q1019 753 1037.5 768.5Q1056 784 1072 784Q1088 784 1106.5 768.5Q1125 753 1152.0 737.5Q1179 722 1222 722Q1259 722 1285.5 737.0Q1312 752 1335.5 765.5Q1359 779 1384.5 778.5Q1410 778 1444 747L1607 535Q1637 495 1636.5 450.0Q1636 405 1606.0 372.5Q1576 340 1517 340ZM263 340Q215 340 187.0 369.0Q159 398 156.0 439.5Q153 481 182 518L476 898Q524 960 586.5 968.0Q649 976 699 923L706 915L459 594Q412 534 409.0 464.5Q406 395 440 340Z" transform="translate(-1.8248,13.3770) scale(0.011719,-0.011719)"/>
  </g>
</svg>
