<svg xmlns="http://www.w3.org/2000/svg" viewBox="0 0 33.0319 33.0741" width="23.9694" height="24.0000">
  <g fill="black" stroke="black" stroke-width="0.25">
    <path d="M332 1292Q280 1487 358.5 1621.5Q437 1756 632 1809L2413 2288Q2602 2339 2739.0 2268.0Q2876 2197 2926 2012L2985 1796Q3012 1693 2968.0 1616.0Q2924 1539 2821 1512L2312 1375H2899Q3007 1375 3068.5 1313.0Q3130 1251 3130 1145V-90Q3130 -292 3019.5 -402.5Q2909 -513 2706 -513H863Q661 -513 550.5 -402.5Q440 -292 440 -90V896ZM797 -40Q797 -101 826.0 -127.5Q855 -154 912 -154H2659Q2715 -154 2743.5 -127.5Q2772 -101 2772 -40V401H797ZM841 1203 1117 1276 1191 1605 917 1529ZM1463 1369 1745 1445 1821 1772 1538 1697ZM2093 1539 2369 1613 2443 1940Q2424 1935 2405.5 1930.0Q2387 1925 2369 1920L2169 1865ZM906 675H1192L1370 988H1318H1085ZM1552 675H1844L2023 988H1730ZM2204 675H2488L2667 988H2383Z" transform="translate(-3.6478,27.0623) scale(0.011719,-0.011719)"/>
  </g>
</svg>
