<svg xmlns="http://www.w3.org/2000/svg" viewBox="0 0 29.5078 34.0857" width="20.7767" height="24.0000">
  <g fill="black" stroke="black" stroke-width="0.25">
    <path d="M1373 578Q1335 570 1299.0 544.0Q1263 518 1237 495Q1213 474 1191.0 478.0Q1169 482 1169 511Q1169 585 1202.5 649.5Q1236 714 1293.0 758.5Q1350 803 1420 817Q1525 840 1592.0 787.5Q1659 735 1659 626Q1659 538 1615.5 463.0Q1572 388 1495.0 334.5Q1418 281 1316 260Q1132 221 1020.5 290.0Q909 359 909 517Q909 610 942.5 686.0Q976 762 1028.0 825.5Q1080 889 1139.0 943.5Q1198 998 1250.0 1047.5Q1302 1097 1335.5 1146.0Q1369 1195 1369 1247Q1369 1262 1355 1258Q1299 1247 1259.0 1189.0Q1219 1131 1223 1049Q1225 1021 1244.0 960.0Q1263 899 1291.5 817.5Q1320 736 1352.0 646.0Q1384 556 1412.0 468.0Q1440 380 1458.0 306.0Q1476 232 1476 185Q1476 97 1427.0 32.5Q1378 -32 1298 -49Q1220 -65 1168.5 -35.0Q1117 -5 1117 55Q1117 105 1145.5 142.5Q1174 180 1222 189Q1265 199 1291.0 179.5Q1317 160 1317 120Q1317 94 1306.0 76.5Q1295 59 1295 46Q1295 41 1299.0 39.0Q1303 37 1309 37Q1346 45 1368.5 81.0Q1391 117 1391 167Q1391 230 1365.0 320.5Q1339 411 1301.5 515.0Q1264 619 1226.0 724.0Q1188 829 1162.5 923.0Q1137 1017 1137 1087Q1137 1174 1167.0 1247.0Q1197 1320 1247.5 1368.0Q1298 1416 1358 1429Q1407 1439 1431.5 1406.0Q1456 1373 1456 1306Q1456 1194 1420.0 1105.5Q1384 1017 1331.0 943.0Q1278 869 1224.5 801.0Q1171 733 1135.0 662.5Q1099 592 1099 510Q1099 416 1160.0 370.0Q1221 324 1321 345Q1398 361 1444.0 405.5Q1490 450 1490 506Q1490 550 1458.0 569.5Q1426 589 1373 578ZM311 -286V1534Q311 1717 405.5 1810.5Q500 1904 678 1917Q874 1932 1073.0 1959.0Q1272 1986 1459.0 2021.5Q1646 2057 1806 2097Q2017 2149 2144.5 2056.0Q2272 1963 2272 1739V-24Q2272 -196 2213.0 -303.0Q2154 -410 1991 -460Q1806 -517 1597.0 -561.0Q1388 -605 1172.0 -634.0Q956 -663 751 -676Q539 -689 425.0 -582.5Q311 -476 311 -286ZM658 -231Q658 -282 687.0 -307.0Q716 -332 765 -329Q956 -317 1150.0 -291.5Q1344 -266 1522.5 -229.5Q1701 -193 1846 -146Q1897 -130 1911.0 -98.5Q1925 -67 1925 -15V1665Q1925 1714 1897.0 1738.5Q1869 1763 1821 1751Q1656 1710 1471.0 1675.0Q1286 1640 1100.5 1614.5Q915 1589 749 1579Q710 1576 684.0 1554.5Q658 1533 658 1495ZM1443 -793Q1602 -765 1756.0 -729.0Q1910 -693 2050 -649Q2178 -609 2275.0 -540.5Q2372 -472 2426.5 -349.5Q2481 -227 2481 -24V1708Q2481 1751 2476.0 1794.5Q2471 1838 2463 1905Q2644 1878 2736.5 1761.0Q2829 1644 2829 1445V-334Q2829 -560 2714.0 -676.5Q2599 -793 2377 -793Z" transform="translate(-3.6445,24.7928) scale(0.011719,-0.011719)"/>
  </g>
</svg>
