<svg xmlns="http://www.w3.org/2000/svg" viewBox="0 0 13.8659 14.1341" width="23.5445" height="24.0000">
  <g fill="black" stroke="black" stroke-width="0.25">
    <path d="M764 970Q755 1076 850 1170L1196 823Q1153 777 1102.5 754.5Q1052 732 997 737L842 593V181Q842 149 819.5 126.0Q797 103 765 103Q732 103 709.0 125.5Q686 148 686 181V447L434 213Q386 167 336 200L255 140Q223 116 190 144L173 160Q139 191 167 227L227 307Q195 357 239 407ZM351 344 374 323 861 791Q855 797 849.0 802.0Q843 807 839 811Q834 818 828.5 823.0Q823 828 818 835ZM1261 1234Q1340 1155 1337.5 1055.5Q1335 956 1251 877L905 1224Q984 1306 1083.0 1309.0Q1182 1312 1261 1234Z" transform="translate(-1.8088,15.3411) scale(0.011719,-0.011719)"/>
  </g>
</svg>
