<svg xmlns="http://www.w3.org/2000/svg" viewBox="0 0 34.4297 28.0195" width="29.4906" height="24.0000">
  <g fill="black" stroke="black" stroke-width="0.25">
    <path d="M1348 1619V611Q1348 549 1314.5 523.0Q1281 497 1240 497H1083Q1042 497 1009.0 523.0Q976 549 976 611V1619ZM1966 1619V611Q1966 549 1933.0 523.0Q1900 497 1859 497H1702Q1669 497 1632.0 522.5Q1595 548 1595 611V1619ZM2584 1619V611Q2584 549 2551.0 523.0Q2518 497 2477 497H2320Q2279 497 2245.5 523.0Q2212 549 2212 611V1619ZM1095 684H1229V-265H1095ZM1714 684H1846V-265H1714ZM2332 684H2465V-265H2332ZM774 -514Q553 -514 432.0 -393.5Q311 -273 311 -52V1416Q311 1637 432.0 1757.0Q553 1877 774 1877H2786Q3008 1877 3128.5 1757.0Q3249 1637 3249 1416V-52Q3249 -273 3128.5 -393.5Q3008 -514 2786 -514ZM827 -122H2733Q2794 -122 2825.5 -92.5Q2857 -63 2857 3V1360Q2857 1426 2825.5 1455.5Q2794 1485 2733 1485H827Q766 1485 734.5 1455.5Q703 1426 703 1360V3Q703 -63 734.5 -92.5Q766 -122 827 -122Z" transform="translate(-3.6445,21.9961) scale(0.011719,-0.011719)"/>
  </g>
</svg>
