<svg xmlns="http://www.w3.org/2000/svg" viewBox="0 0 11.4492 15.0072" width="18.3099" height="24.0000">
  <g fill="black" stroke="black" stroke-width="0.25">
    <path d="M1038 871 740 798Q724 795 718.5 786.0Q713 777 713 748V377Q713 230 621.5 136.5Q530 43 385 43Q283 43 219.5 99.5Q156 156 156 247Q156 339 217.5 400.5Q279 462 383 489L498 519Q539 531 547.5 540.5Q556 550 556 588V1102Q556 1163 574.0 1186.0Q592 1209 647 1222L1026 1317Q1081 1332 1107.0 1313.0Q1133 1294 1133 1246V991Q1133 932 1113.0 908.5Q1093 885 1038 871Z" transform="translate(-1.8281,15.5111) scale(0.011719,-0.011719)"/>
  </g>
</svg>
