<svg xmlns="http://www.w3.org/2000/svg" viewBox="0 0 42.4453 14.9180" width="68.2859" height="24.0000">
  <g fill="black" stroke="black" stroke-width="0.25">
    <path d="M219 730Q219 848 258.5 922.5Q298 997 382 997Q414 997 443.0 980.0Q472 963 493 935Q596 806 768 806Q856 806 926.5 838.5Q997 871 1059.5 922.5Q1122 974 1186.0 1031.5Q1250 1089 1323.0 1140.0Q1396 1191 1487.5 1223.5Q1579 1256 1698 1256Q1839 1256 1945.5 1199.0Q2052 1142 2112.0 1037.0Q2172 932 2176 789H1884Q1887 932 1947.5 1037.0Q2008 1142 2114.5 1199.0Q2221 1256 2361 1256Q2480 1256 2571.5 1223.5Q2663 1191 2736.0 1140.0Q2809 1089 2873.0 1031.5Q2937 974 3000.0 922.5Q3063 871 3133.5 838.5Q3204 806 3291 806Q3480 806 3563 931Q3583 961 3613.0 979.0Q3643 997 3677 997Q3761 997 3801.0 922.5Q3841 848 3841 730Q3841 572 3767.0 436.5Q3693 301 3561.5 199.0Q3430 97 3254.5 40.0Q3079 -17 2876 -17Q2604 -17 2387.0 72.5Q2170 162 2030 332Q1889 162 1672.0 72.5Q1455 -17 1184 -17Q981 -17 805.5 40.0Q630 97 498.0 199.0Q366 301 292.5 436.5Q219 572 219 730Z" transform="translate(-2.5664,14.7188) scale(0.011719,-0.011719)"/>
  </g>
</svg>
