<svg xmlns="http://www.w3.org/2000/svg" viewBox="0 0 45.4219 33.7031" width="32.3449" height="24.0000">
  <g fill="black" stroke="black" stroke-width="0.25">
    <path d="M775 -514Q553 -514 432.5 -393.5Q312 -273 312 -52V1416Q312 1637 432.5 1757.0Q553 1877 775 1877H2468Q2386 1809 2386 1698Q2386 1597 2452.5 1522.0Q2519 1447 2620 1434Q2715 1422 2775.0 1411.5Q2835 1401 2870.5 1381.5Q2906 1362 2926.0 1324.5Q2946 1287 2959.0 1223.5Q2972 1160 2988 1059Q3003 963 3076.5 898.5Q3150 834 3249 834V-52Q3249 -273 3128.5 -393.5Q3008 -514 2786 -514ZM3249 1032Q3224 1032 3206.0 1048.0Q3188 1064 3184 1090Q3165 1214 3143.5 1300.0Q3122 1386 3088.0 1443.0Q3054 1500 2999.0 1535.5Q2944 1571 2858.0 1592.5Q2772 1614 2645 1630Q2618 1634 2601.0 1653.0Q2584 1672 2584 1697Q2584 1722 2601.0 1740.5Q2618 1759 2645 1762Q2768 1778 2852.5 1799.5Q2937 1821 2992.0 1856.0Q3047 1891 3082.0 1948.0Q3117 2005 3140.0 2091.5Q3163 2178 3184 2303Q3188 2329 3206.0 2345.5Q3224 2362 3249 2362Q3274 2362 3292.0 2345.5Q3310 2329 3313 2303Q3332 2179 3354.0 2093.0Q3376 2007 3410.5 1950.0Q3445 1893 3500.5 1857.5Q3556 1822 3642.0 1800.5Q3728 1779 3853 1762Q3880 1759 3897.0 1740.5Q3914 1722 3914 1697Q3914 1672 3897.0 1653.5Q3880 1635 3853 1630Q3731 1610 3647.0 1588.0Q3563 1566 3508.0 1531.5Q3453 1497 3418.0 1442.0Q3383 1387 3359.0 1301.5Q3335 1216 3313 1090Q3309 1065 3291.5 1048.5Q3274 1032 3249 1032ZM3849 794Q3832 794 3818.5 806.0Q3805 818 3802 836Q3790 914 3780.0 958.0Q3770 1002 3748.5 1024.0Q3727 1046 3681.5 1058.0Q3636 1070 3552 1085Q3511 1093 3511 1132Q3511 1173 3552 1179Q3635 1192 3680.5 1202.5Q3726 1213 3748.0 1235.0Q3770 1257 3780.0 1302.0Q3790 1347 3802 1427Q3809 1470 3849 1470Q3890 1470 3897 1427Q3908 1349 3918.0 1306.0Q3928 1263 3950.0 1241.0Q3972 1219 4018.0 1207.0Q4064 1195 4147 1179Q4188 1172 4188 1132Q4188 1092 4143 1085Q4061 1072 4016.5 1060.5Q3972 1049 3950.5 1027.0Q3929 1005 3919.0 961.0Q3909 917 3897 838Q3890 794 3849 794Z" transform="translate(-3.6562,27.6797) scale(0.011719,-0.011719)"/>
  </g>
</svg>
