<svg xmlns="http://www.w3.org/2000/svg" viewBox="0 0 43.1250 33.7031" width="30.7093" height="24.0000">
  <g fill="black" stroke="black" stroke-width="0.25">
    <path d="M775 -514Q553 -514 432.5 -393.5Q312 -273 312 -52V1416Q312 1637 432.5 1757.0Q553 1877 775 1877H2272Q2235 1845 2212.5 1798.0Q2190 1751 2190 1698Q2190 1631 2221.5 1575.0Q2253 1519 2305 1485H828Q766 1485 735.0 1455.5Q704 1426 704 1360V3Q704 -63 735.0 -92.5Q766 -122 828 -122H2733Q2795 -122 2826.0 -92.5Q2857 -63 2857 3V930Q2891 886 2942.5 860.0Q2994 834 3053 834Q3122 834 3164.0 856.0Q3206 878 3249 890V-52Q3249 -273 3128.5 -393.5Q3008 -514 2786 -514ZM3053 1032Q3028 1032 3010.0 1048.0Q2992 1064 2988 1090Q2968 1214 2946.5 1300.0Q2925 1386 2891.5 1443.0Q2858 1500 2803.0 1535.5Q2748 1571 2662.0 1592.5Q2576 1614 2449 1630Q2422 1634 2405.0 1653.0Q2388 1672 2388 1697Q2388 1722 2405.0 1740.5Q2422 1759 2449 1762Q2572 1778 2656.5 1799.5Q2741 1821 2796.0 1856.0Q2851 1891 2885.5 1948.0Q2920 2005 2943.5 2091.5Q2967 2178 2988 2303Q2992 2329 3010.0 2345.5Q3028 2362 3053 2362Q3078 2362 3096.0 2345.5Q3114 2329 3117 2303Q3136 2179 3157.5 2093.0Q3179 2007 3213.5 1950.0Q3248 1893 3304.0 1857.5Q3360 1822 3446.0 1800.5Q3532 1779 3657 1762Q3684 1759 3701.0 1740.5Q3718 1722 3718 1697Q3718 1672 3701.0 1653.5Q3684 1635 3657 1630Q3535 1610 3451.0 1588.0Q3367 1566 3312.0 1531.5Q3257 1497 3222.0 1442.0Q3187 1387 3163.0 1301.5Q3139 1216 3117 1090Q3113 1065 3095.5 1048.5Q3078 1032 3053 1032ZM3653 794Q3636 794 3622.5 806.0Q3609 818 3606 836Q3594 914 3584.0 958.0Q3574 1002 3552.5 1024.0Q3531 1046 3485.5 1058.0Q3440 1070 3356 1085Q3315 1093 3315 1132Q3315 1173 3356 1179Q3439 1192 3484.5 1202.5Q3530 1213 3552.0 1235.0Q3574 1257 3584.0 1302.0Q3594 1347 3606 1427Q3612 1470 3653 1470Q3694 1470 3701 1427Q3712 1349 3722.0 1306.0Q3732 1263 3754.0 1241.0Q3776 1219 3821.5 1207.0Q3867 1195 3951 1179Q3992 1172 3992 1132Q3992 1092 3947 1085Q3865 1072 3820.5 1060.5Q3776 1049 3754.5 1027.0Q3733 1005 3723.0 961.0Q3713 917 3701 838Q3694 794 3653 794Z" transform="translate(-3.6562,27.6797) scale(0.011719,-0.011719)"/>
  </g>
</svg>
