<svg xmlns="http://www.w3.org/2000/svg" viewBox="0 0 53.1828 26.7422" width="47.7294" height="24.0000">
  <g fill="black" stroke="black" stroke-width="0.25">
    <path d="M1025 -481Q781 -481 612.5 -384.5Q444 -288 367.0 -109.5Q290 69 320 315L429 1194Q466 1494 635.5 1647.5Q805 1801 1103 1801H1771L1557 1452H1103Q948 1452 872.5 1383.0Q797 1314 778 1155L669 278Q645 86 743.0 -22.5Q841 -131 1025 -131Q1135 -131 1217.5 -92.0Q1300 -53 1346.0 17.5Q1392 88 1392 184V549L1744 597V184Q1744 -18 1654.5 -167.5Q1565 -317 1403.5 -399.0Q1242 -481 1025 -481ZM1771 102Q1661 102 1575.5 153.5Q1490 205 1441.0 294.0Q1392 383 1392 496V1408Q1392 1521 1441.0 1610.0Q1490 1699 1575.5 1750.0Q1661 1801 1771 1801H3391Q3501 1801 3586.5 1750.0Q3672 1699 3721.0 1610.0Q3770 1521 3770 1408V496Q3770 383 3721.0 294.0Q3672 205 3586.5 153.5Q3501 102 3391 102ZM1818 452H3344Q3378 452 3398.0 473.0Q3418 494 3418 530V1373Q3418 1409 3398.0 1430.5Q3378 1452 3344 1452H1818Q1784 1452 1764.0 1430.5Q1744 1409 1744 1373V530Q1744 494 1764.0 473.0Q1784 452 1818 452ZM3770 549V184Q3770 88 3816.0 17.5Q3862 -53 3944.5 -92.0Q4027 -131 4137 -131Q4321 -131 4418.5 -22.5Q4516 86 4492 278L4384 1155Q4364 1314 4288.5 1383.0Q4213 1452 4059 1452H3605L3391 1801H4059Q4356 1801 4526.0 1647.5Q4696 1494 4733 1194L4841 315Q4872 69 4794.5 -109.5Q4717 -288 4548.5 -384.5Q4380 -481 4137 -481Q3920 -481 3758.0 -399.0Q3596 -317 3507.0 -167.5Q3418 -18 3418 184V597ZM1029 4Q987 4 960.5 31.0Q934 58 934 100V190H838Q797 190 770.0 215.0Q743 240 743 281Q743 321 770.0 346.0Q797 371 838 371H934V460Q934 502 960.5 529.0Q987 556 1029 556Q1070 556 1096.5 529.0Q1123 502 1123 460V371H1210Q1255 371 1283.5 346.0Q1312 321 1312 281Q1312 240 1283.5 215.0Q1255 190 1210 190H1123V100Q1123 58 1096.5 31.0Q1070 4 1029 4ZM4257 275Q4196 275 4153.5 316.5Q4111 358 4111 420Q4111 481 4153.5 524.0Q4196 567 4257 567Q4318 567 4361.5 524.0Q4405 481 4405 420Q4405 359 4361.5 317.0Q4318 275 4257 275ZM4005 26Q3944 26 3901.0 69.0Q3858 112 3858 172Q3858 233 3901.0 275.5Q3944 318 4005 318Q4066 318 4109.0 275.5Q4152 233 4152 172Q4152 112 4109.0 69.0Q4066 26 4005 26Z" transform="translate(-3.6514,21.1055) scale(0.011719,-0.011719)"/>
  </g>
</svg>
