<svg xmlns="http://www.w3.org/2000/svg" viewBox="0 0 14.5664 15.9492" width="21.9192" height="24.0000">
  <g fill="black" stroke="black" stroke-width="0.25">
    <path d="M535 1199Q557 1214 590 1226Q614 1288 665.0 1325.5Q716 1363 784 1363Q853 1363 903.5 1325.5Q954 1288 979 1226Q1088 1185 1147.0 1078.5Q1206 972 1222 822Q1230 770 1237.5 725.0Q1245 680 1258.0 647.0Q1271 614 1295 595Q1341 559 1373.5 515.5Q1406 472 1406 415Q1406 378 1388 348ZM904 294H295Q234 294 198.5 328.0Q163 362 163 415Q163 472 195.5 515.0Q228 558 273 595Q293 610 305.0 635.0Q317 660 324.0 691.0Q331 722 336 758Q338 782 340.0 805.5Q342 829 345 851ZM784 2Q693 2 632.0 56.0Q571 110 566 185H1002Q998 110 937.0 56.0Q876 2 784 2ZM1252 100 201 1149Q178 1173 178.0 1206.5Q178 1240 201 1264Q225 1287 259.0 1287.0Q293 1287 317 1264L1367 214Q1390 190 1390.0 156.5Q1390 123 1367 100Q1343 76 1309.5 76.5Q1276 77 1252 100Z" transform="translate(-1.9102,15.9727) scale(0.011719,-0.011719)"/>
  </g>
</svg>
