<svg xmlns="http://www.w3.org/2000/svg" viewBox="0 0 14.2148 17.7978" width="19.1685" height="24.0000">
  <g fill="black" stroke="black" stroke-width="0.25">
    <path d="M1031 1339 849 864 626 1087 897 1414Q929 1454 967.5 1452.0Q1006 1450 1028.0 1418.5Q1050 1387 1031 1339ZM868 845H1199Q1230 845 1251.5 824.5Q1273 804 1273 774Q1273 759 1267.0 744.0Q1261 729 1250 716L1135 578ZM635 541H329Q299 541 277.5 561.0Q256 581 256 611Q256 626 262.0 641.0Q268 656 279 669L382 795ZM891 284 631 -29Q599 -69 560.5 -66.5Q522 -64 500.5 -33.0Q479 -2 497 46L672 504ZM1230 100 179 1149Q155 1173 155.0 1206.5Q155 1240 179 1264Q202 1287 236.5 1287.0Q271 1287 295 1264L1344 214Q1368 190 1368.0 156.5Q1368 123 1344 100Q1321 76 1287.0 76.5Q1253 77 1230 100Z" transform="translate(-1.8164,17.0167) scale(0.011719,-0.011719)"/>
  </g>
</svg>
