<svg xmlns="http://www.w3.org/2000/svg" viewBox="0 0 18.7500 14.1857" width="31.7222" height="24.0000">
  <g fill="black" stroke="black" stroke-width="0.25">
    <path d="M1171 198Q1121 186 1067.0 179.5Q1013 173 956 173Q811 173 687.5 213.5Q564 254 465.5 317.5Q367 381 298.0 452.0Q229 523 192.5 585.0Q156 647 156 683Q156 713 183.0 762.5Q210 812 260.5 871.0Q311 930 383 987L640 729Q635 709 635 682Q635 596 679.0 523.5Q723 451 796.0 407.0Q869 363 956 363Q969 363 980.0 364.0Q991 365 1002 368ZM882 488Q852 493 826.5 509.5Q801 526 784.5 551.5Q768 577 764 607ZM1272 635Q1277 655 1277 682Q1277 771 1234.0 843.5Q1191 916 1118.0 958.5Q1045 1001 956 1001Q944 1001 933.0 1000.0Q922 999 911 996L741 1166Q792 1178 845.5 1185.0Q899 1192 956 1192Q1104 1192 1228.0 1151.5Q1352 1111 1450.0 1047.0Q1548 983 1616.5 912.5Q1685 842 1720.5 780.0Q1756 718 1756 683Q1756 653 1730.0 602.5Q1704 552 1653.5 492.5Q1603 433 1531 376ZM1031 875Q1061 871 1086.0 854.5Q1111 838 1127.5 812.5Q1144 787 1149 757ZM1424 100 373 1149Q350 1173 350.0 1206.5Q350 1240 373 1264Q397 1287 431.0 1287.0Q465 1287 489 1264L1538 214Q1562 190 1562.0 156.5Q1562 123 1538 100Q1515 76 1481.5 76.5Q1448 77 1424 100Z" transform="translate(-1.8281,15.0820) scale(0.011719,-0.011719)"/>
  </g>
</svg>
