<svg xmlns="http://www.w3.org/2000/svg" viewBox="0 0 15.1758 15.3984" width="23.6530" height="24.0000">
  <g fill="black" stroke="black" stroke-width="0.25">
    <path d="M464 1308 1343 430Q1358 450 1365.0 476.0Q1372 502 1372 534V1130Q1372 1175 1344.5 1201.5Q1317 1228 1266 1228Q1234 1228 1191.0 1215.0Q1148 1202 1079 1202Q1007 1202 942.5 1218.5Q878 1235 813.0 1256.0Q748 1277 677.0 1293.5Q606 1310 520 1310Q505 1310 491.0 1309.5Q477 1309 464 1308ZM798 398 233 965V110Q233 71 261.5 43.0Q290 15 327 15Q367 15 393.5 42.5Q420 70 420 110V436Q438 443 466.0 447.5Q494 452 526 452Q577 452 623.0 444.0Q669 436 712.5 424.0Q756 412 798 398ZM1301 61Q1327 36 1363.0 36.0Q1399 36 1425 61Q1450 87 1450.0 122.5Q1450 158 1425 183L305 1304Q279 1329 242.0 1329.0Q205 1329 179 1304Q155 1278 155.0 1242.0Q155 1206 179 1181Z" transform="translate(-1.8164,15.5742) scale(0.011719,-0.011719)"/>
  </g>
</svg>
