<svg xmlns="http://www.w3.org/2000/svg" viewBox="0 0 14.2148 14.1857" width="24.0494" height="24.0000">
  <g fill="black" stroke="black" stroke-width="0.25">
    <path d="M538 1179Q550 1177 557 1175Q630 1161 683.0 1118.5Q736 1076 766 1023Q803 1085 871.5 1134.5Q940 1184 1040 1184Q1132 1184 1207.5 1139.0Q1283 1094 1327.5 1013.0Q1372 932 1372 824Q1372 726 1336.0 638.5Q1300 551 1244 473ZM971 210Q928 179 893.5 157.5Q859 136 841 124Q824 115 804.0 105.0Q784 95 767 95Q750 95 729.0 105.0Q708 115 691 124Q659 142 596.0 184.5Q533 227 458.5 290.5Q384 354 316.0 436.0Q248 518 204.0 615.5Q160 713 160 824Q160 869 169.0 910.5Q178 952 194 986ZM1234 100 183 1149Q160 1173 160.0 1206.5Q160 1240 183 1264Q207 1287 241.5 1287.0Q276 1287 299 1264L1349 214Q1373 190 1373.0 156.5Q1373 123 1349 100Q1325 76 1291.5 76.5Q1258 77 1234 100Z" transform="translate(-1.8750,15.0820) scale(0.011719,-0.011719)"/>
  </g>
</svg>
