<svg xmlns="http://www.w3.org/2000/svg" viewBox="0 0 13.3639 15.6153" width="20.5398" height="24.0000">
  <g fill="black" stroke="black" stroke-width="0.25">
    <path d="M170 225Q147 168 160.0 127.0Q173 86 207.0 66.5Q241 47 284.0 53.5Q327 60 365 97L691 423Q725 458 760 423L1085 97Q1123 60 1166.0 53.5Q1209 47 1243.5 66.5Q1278 86 1291.0 127.0Q1304 168 1281 225L861 1289Q835 1353 780.0 1374.0Q725 1395 670.0 1373.5Q615 1352 590 1288Z" transform="translate(-1.8200,16.2232) scale(0.011719,-0.011719)"/>
  </g>
</svg>
