<svg xmlns="http://www.w3.org/2000/svg" viewBox="0 0 31.3008 29.4961" width="25.4684" height="24.0000">
  <g fill="black" stroke="black" stroke-width="0.25">
    <path d="M853 -583Q664 -583 521.0 -505.0Q378 -427 298.5 -288.0Q219 -149 219 34Q219 213 298.0 351.0Q377 489 507.5 571.0Q638 653 792 662Q829 752 861.0 839.0Q893 926 921.5 1010.0Q950 1094 974.0 1173.5Q998 1253 1018.0 1329.0Q1038 1405 1055 1477Q1108 1702 1234.0 1818.0Q1360 1934 1554 1934Q1749 1934 1874.5 1818.0Q2000 1702 2054 1477Q2070 1405 2090.5 1329.0Q2111 1253 2135.0 1173.5Q2159 1094 2187.0 1010.0Q2215 926 2247.5 839.0Q2280 752 2316 662Q2470 653 2600.5 571.0Q2731 489 2810.5 351.0Q2890 213 2890 34Q2890 -149 2810.5 -288.0Q2731 -427 2588.0 -505.0Q2445 -583 2255 -583Q2141 -583 2026.5 -536.5Q1912 -490 1820 -397L2046 -162Q2093 -208 2144.5 -231.0Q2196 -254 2254 -254Q2336 -254 2401.0 -217.5Q2466 -181 2503.0 -116.0Q2540 -51 2540 32Q2540 152 2469.5 232.0Q2399 312 2289.0 340.5Q2179 369 2060 335Q1988 507 1929.5 706.0Q1871 905 1821.5 1101.0Q1772 1297 1728 1459Q1708 1531 1665.0 1570.0Q1622 1609 1554 1609Q1487 1609 1444.0 1570.0Q1401 1531 1381 1459Q1337 1297 1287.5 1101.0Q1238 905 1179.0 706.0Q1120 507 1048 335Q929 369 819.0 340.5Q709 312 639.0 232.0Q569 152 569 32Q569 -51 606.0 -116.0Q643 -181 707.5 -217.5Q772 -254 855 -254Q912 -254 964.0 -231.0Q1016 -208 1062 -162L1289 -397Q1197 -490 1082.0 -536.5Q967 -583 853 -583ZM1554 -518Q1391 -518 1282.5 -473.5Q1174 -429 1101.0 -363.5Q1028 -298 971 -233Q934 -249 897 -249Q826 -249 774.5 -202.0Q723 -155 723 -82Q723 -5 774.0 43.0Q825 91 900 91Q956 91 1001.0 63.0Q1046 35 1100 -20Q1157 -78 1225.5 -119.0Q1294 -160 1376.0 -181.0Q1458 -202 1554 -202Q1651 -202 1732.5 -181.0Q1814 -160 1883.0 -119.5Q1952 -79 2009 -20Q2063 35 2108.0 63.0Q2153 91 2209 91Q2283 91 2334.5 43.0Q2386 -5 2386 -82Q2386 -155 2334.5 -202.0Q2283 -249 2212 -249Q2175 -249 2138 -233Q2081 -298 2007.5 -363.5Q1934 -429 1825.5 -473.5Q1717 -518 1554 -518Z" transform="translate(-2.5664,22.6641) scale(0.011719,-0.011719)"/>
  </g>
</svg>
