<svg xmlns="http://www.w3.org/2000/svg" viewBox="0 0 24.3516 34.5352" width="16.9230" height="24.0000">
  <g fill="black" stroke="black" stroke-width="0.25">
    <path d="M1351 -798Q1027 -798 794.0 -678.5Q561 -559 436.0 -334.5Q311 -110 311 206V1953Q311 2034 368.5 2091.5Q426 2149 507 2149Q588 2149 645.5 2091.5Q703 2034 703 1953V1734H1993Q2112 1734 2201.0 1683.5Q2290 1633 2339.5 1542.0Q2389 1451 2389 1330V206Q2389 -110 2264.5 -334.5Q2140 -559 1907.5 -678.5Q1675 -798 1351 -798ZM1351 -408Q1551 -408 1695.5 -336.5Q1840 -265 1918.0 -131.0Q1996 3 1996 191V1223Q1996 1278 1963.0 1310.0Q1930 1342 1876 1342H703V191Q703 3 781.5 -131.0Q860 -265 1005.0 -336.5Q1150 -408 1351 -408ZM896 420Q853 420 827.0 444.5Q801 469 801 513V1150Q801 1194 827.0 1219.0Q853 1244 896 1244H1805Q1847 1244 1873.0 1218.5Q1899 1193 1899 1149V515Q1899 471 1873.0 445.5Q1847 420 1805 420ZM1149 -197Q1105 -197 1072.0 -164.0Q1039 -131 1039 -86Q1039 -41 1072.0 -7.5Q1105 26 1149 26H1544Q1589 26 1621.5 -7.5Q1654 -41 1654 -86Q1654 -131 1621.5 -164.0Q1589 -197 1544 -197Z" transform="translate(-3.6445,25.1836) scale(0.011719,-0.011719)"/>
  </g>
</svg>
