<svg xmlns="http://www.w3.org/2000/svg" viewBox="0 0 34.4297 34.2595" width="24.1192" height="24.0000">
  <g fill="black" stroke="black" stroke-width="0.25">
    <path d="M2476 893Q2398 892 2341.5 947.5Q2285 1003 2285 1082Q2285 1162 2341.5 1218.5Q2398 1275 2476 1274Q2556 1273 2612.0 1217.0Q2668 1161 2668 1082Q2668 1004 2612.5 949.0Q2557 894 2476 893ZM2476 384Q2398 384 2341.5 441.0Q2285 498 2285 576Q2285 655 2341.5 711.5Q2398 768 2476 768Q2556 768 2612.0 712.0Q2668 656 2668 576Q2668 497 2611.5 440.5Q2555 384 2476 384ZM1505 1113Q1465 1113 1436.5 1142.0Q1408 1171 1408 1212Q1408 1251 1436.5 1279.5Q1465 1308 1505 1308Q1545 1308 1573.0 1279.5Q1601 1251 1601 1212Q1601 1171 1573.0 1142.0Q1545 1113 1505 1113ZM1769 1036Q1730 1036 1702.0 1065.0Q1674 1094 1674 1134Q1674 1175 1701.5 1203.0Q1729 1231 1769 1231Q1810 1231 1838.0 1203.0Q1866 1175 1866 1134Q1866 1094 1837.5 1065.0Q1809 1036 1769 1036ZM1966 842Q1927 842 1899.5 870.0Q1872 898 1872 938Q1872 979 1899.5 1008.0Q1927 1037 1966 1037Q2007 1037 2036.0 1008.0Q2065 979 2065 938Q2065 898 2036.0 870.0Q2007 842 1966 842ZM2035 587Q1995 587 1967.0 615.0Q1939 643 1939 683Q1939 723 1967.0 751.0Q1995 779 2035 779Q2075 779 2103.0 751.0Q2131 723 2131 683Q2131 643 2103.0 615.0Q2075 587 2035 587ZM1966 329Q1927 329 1899.5 358.0Q1872 387 1872 429Q1872 469 1899.5 497.0Q1927 525 1966 525Q2007 525 2036.0 497.0Q2065 469 2065 429Q2065 388 2035.5 358.5Q2006 329 1966 329ZM1769 135Q1729 135 1701.5 163.5Q1674 192 1674 233Q1674 273 1702.0 302.0Q1730 331 1769 331Q1809 331 1837.5 302.0Q1866 273 1866 233Q1866 192 1838.0 163.5Q1810 135 1769 135ZM1505 58Q1465 58 1436.5 86.5Q1408 115 1408 154Q1408 195 1436.5 224.0Q1465 253 1505 253Q1545 253 1573.0 224.0Q1601 195 1601 154Q1601 115 1573.0 86.5Q1545 58 1505 58ZM1241 135Q1200 135 1172.0 163.5Q1144 192 1144 233Q1144 273 1172.5 302.0Q1201 331 1241 331Q1280 331 1307.5 302.0Q1335 273 1335 233Q1335 192 1308.0 163.5Q1281 135 1241 135ZM1044 329Q1004 329 975.0 358.5Q946 388 946 429Q946 469 975.0 497.0Q1004 525 1044 525Q1083 525 1110.5 497.0Q1138 469 1138 429Q1138 387 1110.5 358.0Q1083 329 1044 329ZM975 587Q935 587 907.0 615.0Q879 643 879 683Q879 723 907.0 751.0Q935 779 975 779Q1015 779 1043.0 751.0Q1071 723 1071 683Q1071 643 1043.0 615.0Q1015 587 975 587ZM1044 842Q1004 842 975.0 870.0Q946 898 946 938Q946 979 975.0 1008.0Q1004 1037 1044 1037Q1083 1037 1110.5 1008.0Q1138 979 1138 938Q1138 898 1110.5 870.0Q1083 842 1044 842ZM1241 1036Q1201 1036 1172.5 1065.0Q1144 1094 1144 1134Q1144 1175 1172.0 1203.0Q1200 1231 1241 1231Q1281 1231 1308.0 1203.0Q1335 1175 1335 1134Q1335 1094 1307.5 1065.0Q1280 1036 1241 1036ZM1505 842Q1465 842 1436.5 870.0Q1408 898 1408 938Q1408 979 1436.5 1008.0Q1465 1037 1505 1037Q1545 1037 1573.0 1008.0Q1601 979 1601 938Q1601 898 1573.0 870.0Q1545 842 1505 842ZM1744 734Q1705 734 1676.0 763.0Q1647 792 1647 831Q1647 870 1676.0 899.5Q1705 929 1744 929Q1784 929 1812.0 900.0Q1840 871 1840 831Q1840 792 1812.0 763.0Q1784 734 1744 734ZM1744 437Q1704 437 1675.5 465.5Q1647 494 1647 534Q1647 574 1675.5 602.5Q1704 631 1744 631Q1784 631 1812.0 602.5Q1840 574 1840 534Q1840 494 1812.0 465.5Q1784 437 1744 437ZM1505 329Q1465 329 1436.5 359.0Q1408 389 1408 429Q1408 469 1436.5 497.0Q1465 525 1505 525Q1545 525 1573.0 497.0Q1601 469 1601 429Q1601 389 1573.0 359.0Q1545 329 1505 329ZM1265 437Q1225 437 1197.5 465.5Q1170 494 1170 534Q1170 574 1197.5 602.5Q1225 631 1265 631Q1305 631 1334.0 602.5Q1363 574 1363 534Q1363 494 1334.0 465.5Q1305 437 1265 437ZM1265 734Q1226 734 1198.0 763.0Q1170 792 1170 831Q1170 871 1198.0 900.0Q1226 929 1265 929Q1304 929 1333.5 899.5Q1363 870 1363 831Q1363 792 1333.5 763.0Q1304 734 1265 734ZM1505 587Q1465 587 1436.5 615.0Q1408 643 1408 683Q1408 723 1436.5 751.0Q1465 779 1505 779Q1545 779 1573.0 751.0Q1601 723 1601 683Q1601 643 1573.0 615.0Q1545 587 1505 587ZM2670 1530 937 2092Q873 2113 843.0 2173.5Q813 2234 834 2297Q853 2360 913.5 2391.0Q974 2422 1038 2401L2769 1839ZM774 -514Q553 -514 432.0 -393.5Q311 -273 311 -52V1416Q311 1637 432.0 1757.0Q553 1877 774 1877H2786Q3008 1877 3128.5 1757.0Q3249 1637 3249 1416V-52Q3249 -273 3128.5 -393.5Q3008 -514 2786 -514ZM827 -122H2733Q2794 -122 2825.5 -92.5Q2857 -63 2857 3V1360Q2857 1426 2825.5 1455.5Q2794 1485 2733 1485H827Q766 1485 734.5 1455.5Q703 1426 703 1360V3Q703 -63 734.5 -92.5Q766 -122 827 -122Z" transform="translate(-3.6445,28.2361) scale(0.011719,-0.011719)"/>
  </g>
</svg>
