<svg xmlns="http://www.w3.org/2000/svg" viewBox="0 0 16.4531 16.3594" width="24.1375" height="24.0000">
  <g fill="black" stroke="black" stroke-width="0.25">
    <path d="M156 117V1250Q156 1309 192.5 1345.0Q229 1381 288 1381H1429Q1488 1381 1524.0 1345.0Q1560 1309 1560 1250V117Q1560 58 1524.0 21.5Q1488 -15 1429 -15H288Q229 -15 192.5 21.5Q156 58 156 117ZM492 355Q492 321 526 321H1190Q1225 321 1225 355V1011Q1225 1046 1190 1046H526Q492 1046 492 1011Z" transform="translate(-1.8281,16.1836) scale(0.011719,-0.011719)"/>
  </g>
</svg>
