<svg xmlns="http://www.w3.org/2000/svg" viewBox="0 0 16.9570 16.7292" width="24.3269" height="24.0000">
  <g fill="black" stroke="black" stroke-width="0.25">
    <path d="M880 60Q872 60 863.5 60.0Q855 60 847 60L816 1Q797 -36 754 -30Q712 -21 705 21L696 87Q680 92 665.5 97.5Q651 103 637 109L586 63Q556 35 518 56Q481 79 489 120L503 186Q491 196 478.5 206.0Q466 216 454 227L392 202Q353 185 325 219Q297 253 320 288L357 345Q348 358 339.5 372.0Q331 386 324 401L256 398Q214 397 200 436Q185 477 219 504L272 545Q269 560 266.5 575.0Q264 590 261 606L198 626Q156 639 156 683Q156 726 198 739L261 759Q266 791 272 822L220 863Q184 890 200 931Q214 970 259 969L324 966Q331 981 339.5 995.0Q348 1009 357 1022L321 1078Q311 1093 312.0 1113.0Q313 1133 326 1148Q353 1180 394 1164L456 1140Q479 1162 504 1181L490 1245Q482 1288 519 1310Q557 1331 588 1301L637 1257Q651 1264 666.5 1269.5Q682 1275 697 1280L706 1345Q712 1388 755 1396Q796 1401 817 1364L848 1306Q856 1306 864.0 1306.5Q872 1307 880 1307Q888 1307 896.0 1306.5Q904 1306 911 1306L943 1364Q953 1380 969.5 1389.5Q986 1399 1006 1396Q1047 1387 1055 1344L1064 1280Q1078 1275 1093.0 1269.0Q1108 1263 1122 1257L1172 1301Q1186 1313 1205.5 1316.0Q1225 1319 1242 1310Q1276 1287 1270 1244L1257 1180Q1269 1171 1281.0 1160.5Q1293 1150 1304 1140L1367 1164Q1384 1170 1403.0 1166.5Q1422 1163 1435 1148Q1460 1114 1438 1077L1403 1022Q1412 1009 1420.0 995.5Q1428 982 1435 967L1502 969Q1520 969 1537.0 958.5Q1554 948 1561 929Q1572 891 1539 862L1488 821Q1491 806 1493.5 790.5Q1496 775 1498 759L1562 739Q1603 726 1603 683Q1603 639 1562 626L1498 606Q1494 575 1488 544L1540 503Q1575 476 1560 436Q1545 396 1501 397L1435 399Q1418 367 1403 344L1439 287Q1448 272 1447.5 252.5Q1447 233 1435 218Q1405 186 1365 202L1304 225Q1292 215 1280.0 205.0Q1268 195 1255 185L1269 120Q1278 78 1242 56Q1202 35 1171 64L1122 108Q1107 103 1092.0 97.5Q1077 92 1062 87L1053 21Q1048 -22 1006 -30Q964 -36 942 2L910 60Q902 60 895.0 60.0Q888 60 880 60ZM880 233Q973 233 1054.5 268.0Q1136 303 1198.0 365.0Q1260 427 1295.0 508.5Q1330 590 1330 683Q1330 777 1295.0 858.5Q1260 940 1198.0 1002.0Q1136 1064 1054.5 1099.0Q973 1134 880 1134Q786 1134 704.5 1099.0Q623 1064 561.0 1002.0Q499 940 464.0 858.5Q429 777 429 683Q429 590 464.0 508.5Q499 427 561.0 365.0Q623 303 704.5 268.0Q786 233 880 233ZM731 785 539 1115 677 1182 862 863ZM1020 762H1411V606H1020ZM859 503 667 188 532 257 731 586ZM880 477Q795 477 734.0 537.5Q673 598 673 683Q673 768 734.0 829.0Q795 890 880 890Q965 890 1025.5 829.0Q1086 768 1086 683Q1086 598 1025.5 537.5Q965 477 880 477ZM880 618Q907 618 926.5 637.0Q946 656 946 683Q946 711 926.5 730.0Q907 749 880 749Q852 749 833.0 730.0Q814 711 814 683Q814 656 833.0 637.0Q852 618 880 618Z" transform="translate(-1.8281,16.3678) scale(0.011719,-0.011719)"/>
  </g>
</svg>
