<svg xmlns="http://www.w3.org/2000/svg" viewBox="0 0 25.7344 31.9922" width="19.3055" height="24.0000">
  <g fill="black" stroke="black" stroke-width="0.25">
    <path d="M311 -487V1638Q311 1829 420.5 1938.0Q530 2047 722 2047H2097Q2289 2047 2398.0 1938.0Q2507 1829 2507 1638V-487Q2507 -568 2449.5 -625.5Q2392 -683 2311 -683Q2230 -683 2172.5 -625.5Q2115 -568 2115 -487V1583Q2115 1616 2096.0 1635.5Q2077 1655 2044 1655H775Q742 1655 722.5 1635.5Q703 1616 703 1583V-487Q703 -568 645.5 -625.5Q588 -683 507 -683Q426 -683 368.5 -625.5Q311 -568 311 -487ZM859 -555V1459Q859 1487 878.0 1498.0Q897 1509 927 1497L1286 1349Q1311 1339 1323.0 1325.0Q1335 1311 1335 1288V-384Q1335 -407 1323.0 -421.0Q1311 -435 1286 -445L927 -593Q897 -605 878.0 -594.0Q859 -583 859 -555Z" transform="translate(-3.6445,23.9883) scale(0.011719,-0.011719)"/>
  </g>
</svg>
