<svg xmlns="http://www.w3.org/2000/svg" viewBox="0 0 32.6432 36.2629" width="21.6044" height="24.0000">
  <g fill="black" stroke="black" stroke-width="0.25">
    <path d="M463 -702Q281 -522 280.0 -320.5Q279 -119 456 60Q507 110 582.0 161.5Q657 213 741.0 263.0Q825 313 903.5 359.5Q982 406 1038 447L810 676Q712 774 711.0 884.5Q710 995 805 1090L975 1260Q1070 1355 1181.5 1354.5Q1293 1354 1390 1256L2421 225Q2517 129 2518.5 18.0Q2520 -93 2426 -188L2255 -360Q2161 -455 2048.5 -454.0Q1936 -453 1841 -356L1611 -125Q1571 -182 1524.5 -260.5Q1478 -339 1428.0 -423.5Q1378 -508 1326.5 -583.5Q1275 -659 1224 -709Q1046 -887 844.5 -885.0Q643 -883 463 -702ZM1099 874Q1088 863 1088.0 851.5Q1088 840 1099 830L1397 532Q1447 482 1443.5 417.5Q1440 353 1387 297Q1359 268 1300.5 232.5Q1242 197 1166.0 154.0Q1090 111 1007.0 62.0Q924 13 846.5 -41.0Q769 -95 710 -154Q641 -222 642.0 -301.5Q643 -381 713 -452Q784 -522 862.5 -522.5Q941 -523 1010 -455Q1069 -395 1123.5 -318.0Q1178 -241 1227.0 -158.0Q1276 -75 1318.5 1.0Q1361 77 1397.0 135.5Q1433 194 1461 221Q1518 276 1582.0 279.5Q1646 283 1696 233L1992 -64Q2003 -76 2014.5 -75.5Q2026 -75 2037 -64L2116 15Q2137 37 2116 58L1222 953Q1211 963 1200.0 963.0Q1189 963 1179 952ZM862 -432Q810 -432 772.5 -394.5Q735 -357 735 -304Q735 -252 772.5 -214.5Q810 -177 862 -177Q915 -177 952.5 -214.5Q990 -252 990 -304Q990 -357 952.5 -394.5Q915 -432 862 -432ZM2318 -11 2084 224 2691 832Q2709 851 2709.0 868.5Q2709 886 2686 909L1808 1787Q1799 1796 1789.5 1797.0Q1780 1798 1773.0 1792.0Q1766 1786 1763 1774Q1728 1650 1703.0 1554.5Q1678 1459 1653.0 1379.0Q1628 1299 1593.5 1223.5Q1559 1148 1505.5 1066.0Q1452 984 1370 883L1132 1119Q1194 1206 1233.5 1264.5Q1273 1323 1299.0 1376.5Q1325 1430 1346.5 1500.0Q1368 1570 1394.0 1679.0Q1420 1788 1460 1960Q1482 2054 1538.5 2114.5Q1595 2175 1671.0 2197.5Q1747 2220 1826.0 2200.0Q1905 2180 1971 2114L2937 1147Q3063 1020 3065.5 879.0Q3068 738 2945 615ZM2107 758Q2098 766 2098.0 779.5Q2098 793 2110 805Q2212 908 2288.5 1030.0Q2365 1152 2382 1314L2650 1046Q2613 1000 2553.0 951.5Q2493 903 2424.0 860.0Q2355 817 2289.5 787.5Q2224 758 2175.0 748.5Q2126 739 2107 758Z" transform="translate(-3.2812,25.8915) scale(0.011719,-0.011719)"/>
  </g>
</svg>
