<svg xmlns="http://www.w3.org/2000/svg" viewBox="0 0 34.3888 37.2716" width="22.1437" height="24.0000">
  <g fill="black" stroke="black" stroke-width="0.25">
    <path d="M474 -51Q313 112 311.5 300.0Q310 488 469 648L1508 1687Q1669 1848 1858.0 1846.5Q2047 1845 2209 1683L2876 1016Q3039 853 3040.5 665.0Q3042 477 2881 316L1840 -725Q1680 -885 1491.5 -883.5Q1303 -882 1140 -719ZM798 222 1417 -395Q1453 -430 1493.5 -429.5Q1534 -429 1571 -392L2550 587Q2587 624 2586.0 664.5Q2585 705 2549 741L1933 1357Q1897 1393 1856.5 1392.5Q1816 1392 1779 1354L801 376Q763 339 762.5 298.5Q762 258 798 222ZM1891 344Q1798 344 1721.5 389.0Q1645 434 1600.0 510.5Q1555 587 1555 680Q1555 772 1600.0 848.0Q1645 924 1721.5 969.0Q1798 1014 1891 1014Q1983 1014 2059.0 969.0Q2135 924 2180.0 848.0Q2225 772 2225 680Q2225 587 2180.0 510.5Q2135 434 2059.0 389.0Q1983 344 1891 344ZM1892 577Q1932 577 1962.0 607.5Q1992 638 1992 681Q1992 721 1962.0 751.0Q1932 781 1892 781Q1849 781 1818.5 751.0Q1788 721 1788 681Q1788 638 1818.5 607.5Q1849 577 1892 577ZM1759 868V1789Q1759 1899 1701.0 1963.5Q1643 2028 1546 2028Q1450 2028 1392.0 1963.5Q1334 1899 1334 1789V1184L1070 920V1805Q1070 1950 1130.5 2061.0Q1191 2172 1298.0 2234.5Q1405 2297 1546 2297Q1687 2297 1794.5 2234.5Q1902 2172 1962.5 2061.0Q2023 1950 2023 1805V868ZM2284 1271 2417 1398Q2464 1444 2528.0 1458.0Q2592 1472 2657.5 1453.5Q2723 1435 2776 1383L3086 1073Q3172 987 3209.0 878.5Q3246 770 3246 641V-57Q3246 -137 3239.5 -188.0Q3233 -239 3214.5 -283.0Q3196 -327 3160 -384L2948 -724Q2914 -779 2862.0 -798.5Q2810 -818 2757.5 -805.5Q2705 -793 2669.5 -752.5Q2634 -712 2634 -646V413L2792 588V730Z" transform="translate(-3.6502,26.9180) scale(0.011719,-0.011719)"/>
  </g>
</svg>
