<svg xmlns="http://www.w3.org/2000/svg" viewBox="0 0 22.1133 31.2539" width="16.9809" height="24.0000">
  <g fill="black" stroke="black" stroke-width="0.25">
    <path d="M1175 -280Q1025 -280 916.5 -236.0Q808 -192 737.0 -117.5Q666 -43 628.0 49.5Q590 142 581.5 240.0Q573 338 588 428Q622 435 652.0 438.0Q682 441 709 441Q802 441 869.5 420.0Q937 399 993.0 368.0Q1049 337 1103.5 305.5Q1158 274 1223.5 253.0Q1289 232 1377 232Q1470 232 1538.0 262.5Q1606 293 1659.5 334.0Q1713 375 1764 408Q1764 341 1750.0 251.5Q1736 162 1700.5 69.5Q1665 -23 1599.0 -102.5Q1533 -182 1429.0 -231.0Q1325 -280 1175 -280ZM1162 -649Q879 -648 666.5 -532.5Q454 -417 336.5 -209.5Q219 -2 219 275Q219 396 246.5 523.0Q274 650 321.5 777.5Q369 905 428 1027Q491 1164 570.0 1305.0Q649 1446 736.0 1587.0Q823 1728 912 1864Q958 1936 1019.5 1977.0Q1081 2018 1162 2018Q1244 2018 1305.0 1977.0Q1366 1936 1413 1864Q1499 1733 1583.5 1596.5Q1668 1460 1745.0 1323.0Q1822 1186 1885 1053Q1947 926 1997.0 794.0Q2047 662 2076.5 531.0Q2106 400 2106 275Q2106 -2 1988.5 -209.5Q1871 -417 1658.5 -532.5Q1446 -648 1162 -649ZM1162 -253Q1328 -253 1451.0 -187.0Q1574 -121 1642.5 -2.0Q1711 117 1711 275Q1711 409 1661.0 558.0Q1611 707 1540 853Q1461 1020 1365.0 1174.5Q1269 1329 1172 1472Q1166 1480 1161.5 1478.0Q1157 1476 1154 1472Q1055 1326 956.5 1168.5Q858 1011 778 840Q710 697 662.0 552.0Q614 407 614 275Q614 117 682.0 -2.0Q750 -121 873.5 -187.0Q997 -253 1162 -253Z" transform="translate(-2.5664,23.6484) scale(0.011719,-0.011719)"/>
  </g>
</svg>
