<svg xmlns="http://www.w3.org/2000/svg" viewBox="0 0 15.8320 15.8203" width="24.0178" height="24.0000">
  <g fill="black" stroke="black" stroke-width="0.25">
    <path d="M956 -54Q906 -54 879.0 -21.0Q852 12 837 62L752 331Q727 411 776 464L1425 1183Q1432 1190 1432.0 1199.0Q1432 1208 1425 1215Q1410 1229 1393 1215L674 565Q641 536 611.5 533.5Q582 531 540 544L270 628Q220 643 188.0 669.5Q156 696 156 746Q156 790 183.5 820.0Q211 850 255 866L1344 1283Q1380 1296 1414 1296Q1456 1296 1481.5 1271.0Q1507 1246 1507 1204Q1507 1170 1493 1134L1077 47Q1060 1 1030.0 -26.5Q1000 -54 956 -54Z" transform="translate(-1.8281,15.1875) scale(0.011719,-0.011719)"/>
  </g>
</svg>
