<svg xmlns="http://www.w3.org/2000/svg" viewBox="0 0 14.3265 16.0371" width="21.4399" height="24.0000">
  <g fill="black" stroke="black" stroke-width="0.25">
    <path d="M270 113Q195 188 169.0 285.0Q143 382 169.0 481.0Q195 580 275 661L882 1270Q977 1365 1092.0 1365.5Q1207 1366 1294 1280Q1380 1194 1378.5 1080.0Q1377 966 1282 871L679 266Q623 209 550.0 208.0Q477 207 422 262Q371 314 371.0 389.5Q371 465 427 521L843 938Q867 962 898.0 962.5Q929 963 952 940Q977 916 976.5 885.0Q976 854 950 829L537 414Q526 403 526.5 392.5Q527 382 534 376Q542 368 551.5 367.0Q561 366 572 378L1171 977Q1213 1019 1221.5 1073.0Q1230 1127 1187 1170Q1146 1211 1091.0 1202.5Q1036 1194 996 1154L393 553Q317 477 317.5 386.0Q318 295 386 227Q453 160 544.5 159.5Q636 159 711 234L1145 668Q1168 691 1201.0 691.0Q1234 691 1257 670Q1281 647 1281.5 612.5Q1282 578 1258 554L819 116Q739 36 641.0 10.0Q543 -16 445.5 10.0Q348 36 270 113Z" transform="translate(-1.8281,16.0020) scale(0.011719,-0.011719)"/>
  </g>
</svg>
