<svg xmlns="http://www.w3.org/2000/svg" viewBox="0 0 19.4766 13.8164" width="33.8321" height="24.0000">
  <g fill="black" stroke="black" stroke-width="0.25">
    <path d="M398 180H1032Q1113 180 1176.5 218.0Q1240 256 1277.0 321.0Q1314 386 1314 469Q1314 553 1275.5 620.0Q1237 687 1169.5 725.5Q1102 764 1015 764Q973 841 892.0 899.0Q811 957 686 957Q589 957 508.5 914.0Q428 871 376.0 796.5Q324 722 313 629Q242 606 199.0 547.0Q156 488 156 410Q156 306 223.0 243.0Q290 180 398 180ZM890 1021Q910 1001 941.0 1001.5Q972 1002 992 1021Q1012 1041 1011.0 1071.0Q1010 1101 992 1121L927 1189Q904 1208 874.5 1207.5Q845 1207 826 1189Q803 1168 805.5 1138.0Q808 1108 827 1087ZM1236 1124Q1266 1124 1286.0 1144.5Q1306 1165 1306 1195V1285Q1306 1316 1286.0 1337.5Q1266 1359 1236 1359Q1207 1359 1186.5 1337.5Q1166 1316 1166 1285V1195Q1166 1165 1186.5 1144.5Q1207 1124 1236 1124ZM1485 1021Q1504 1002 1534.5 1001.0Q1565 1000 1583 1020L1648 1086Q1669 1107 1669.5 1137.5Q1670 1168 1649 1187Q1630 1208 1600.0 1208.0Q1570 1208 1549 1187L1485 1122Q1464 1101 1463.5 1071.0Q1463 1041 1485 1021ZM1657 706H1748Q1778 706 1798.0 727.0Q1818 748 1818 776Q1818 806 1798.0 826.5Q1778 847 1748 847H1657Q1628 847 1606.5 826.5Q1585 806 1585 776Q1585 748 1606.5 727.0Q1628 706 1657 706ZM1549 362Q1570 342 1599.5 342.5Q1629 343 1649 364Q1669 386 1669.0 415.0Q1669 444 1648 464L1586 527Q1564 548 1533.5 548.5Q1503 549 1483 528Q1462 509 1462.5 479.5Q1463 450 1484 428ZM1521 776Q1521 855 1483.0 919.0Q1445 983 1381.0 1020.5Q1317 1058 1237 1058Q1164 1058 1102.5 1025.0Q1041 992 1006 938Q1025 920 1042.5 900.5Q1060 881 1073 860Q1202 843 1292.5 757.5Q1383 672 1407 549Q1459 586 1490.0 646.0Q1521 706 1521 776Z" transform="translate(-1.8281,15.9258) scale(0.011719,-0.011719)"/>
  </g>
</svg>
