<svg xmlns="http://www.w3.org/2000/svg" viewBox="0 0 15.4570 16.0312" width="23.1404" height="24.0000">
  <g fill="black" stroke="black" stroke-width="0.25">
    <path d="M516 329Q619 226 733.0 143.5Q847 61 959.5 12.5Q1072 -36 1172 -36Q1242 -36 1301.0 -9.5Q1360 17 1401 62Q1440 105 1457.5 139.5Q1475 174 1475 203Q1475 225 1460.0 247.0Q1445 269 1411 292L1239 416Q1207 439 1188.5 445.5Q1170 452 1149 452Q1134 452 1118.0 448.0Q1102 444 1075 428L963 367Q949 358 933 358Q924 358 916.5 361.0Q909 364 898 368Q859 386 806.0 427.0Q753 468 703 516Q603 617 559 705Q556 712 553.0 719.5Q550 727 550 735Q550 742 553.0 749.5Q556 757 561 764L623 876Q647 915 647 947Q647 967 640.0 990.0Q633 1013 611 1042L492 1207Q468 1242 443.0 1260.5Q418 1279 389 1279Q355 1279 315.5 1256.0Q276 1233 245 1203Q201 1162 178.5 1104.0Q156 1046 156 981Q156 880 203.0 769.0Q250 658 331.5 545.5Q413 433 516 329ZM934 720H1020Q1086 720 1086 797V1266Q1086 1332 1020 1332H934Q865 1332 865 1266V797Q865 720 934 720ZM1262 720H1349Q1416 720 1416 797V1266Q1416 1332 1349 1332H1262Q1195 1332 1195 1266V797Q1195 720 1262 720Z" transform="translate(-1.8281,15.6094) scale(0.011719,-0.011719)"/>
  </g>
</svg>
