<svg xmlns="http://www.w3.org/2000/svg" viewBox="0 0 14.8711 14.3672" width="24.8418" height="24.0000">
  <g fill="black" stroke="black" stroke-width="0.25">
    <path d="M156 767Q156 676 202.0 612.5Q248 549 312 549Q377 549 422.5 612.5Q468 676 468 767Q468 856 422.5 920.0Q377 984 312 984Q248 984 202.0 920.0Q156 856 156 767ZM444 1110Q444 1021 489.5 957.0Q535 893 599 893Q664 893 710.0 957.0Q756 1021 756 1110Q756 1200 710.0 1263.5Q664 1327 599 1327Q534 1327 489.0 1263.5Q444 1200 444 1110ZM825 1110Q825 1021 871.0 957.0Q917 893 982 893Q1046 893 1091.5 957.0Q1137 1021 1137 1110Q1137 1200 1092.0 1263.5Q1047 1327 982 1327Q917 1327 871.0 1263.5Q825 1200 825 1110ZM1113 767Q1113 676 1158.5 612.5Q1204 549 1269 549Q1334 549 1379.5 612.5Q1425 676 1425 767Q1425 856 1379.5 920.0Q1334 984 1269 984Q1204 984 1158.5 920.0Q1113 856 1113 767ZM347 321Q347 225 404.5 163.0Q462 101 556 101Q600 101 634.5 110.5Q669 120 697 130Q720 138 742.0 143.5Q764 149 791 149Q817 149 839.0 143.5Q861 138 884 130Q913 120 947.0 110.5Q981 101 1026 101Q1119 101 1176.5 163.0Q1234 225 1234 321Q1234 398 1196.5 443.5Q1159 489 1116 522Q1094 541 1072.5 559.5Q1051 578 1037 601Q1025 618 1014.5 637.5Q1004 657 993 679Q973 723 950.5 763.5Q928 804 891.0 829.5Q854 855 791 855Q727 855 690.0 829.5Q653 804 631.0 763.5Q609 723 588 679Q577 657 567.0 637.5Q557 618 545 601Q530 578 508.5 559.5Q487 541 465 522Q423 489 385.0 443.5Q347 398 347 321Z" transform="translate(-1.8281,15.5508) scale(0.011719,-0.011719)"/>
  </g>
</svg>
