<svg xmlns="http://www.w3.org/2000/svg" viewBox="0 0 13.7935 13.7833" width="24.0178" height="24.0000">
  <g fill="black" stroke="black" stroke-width="0.25">
    <path d="M418 96Q296 96 225.5 166.0Q155 236 155 355V913Q155 1033 225.5 1103.5Q296 1174 418 1174H965L794 1004H419Q376 1004 350.5 977.5Q325 951 325 906V363Q325 318 350.5 292.0Q376 266 419 266H989Q1023 266 1043.0 292.0Q1063 318 1063 363V727L1232 895V355Q1232 236 1166.5 166.0Q1101 96 990 96ZM572 468Q551 458 533.0 476.0Q515 494 526 516L583 633L1078 1131L1195 1017L697 519ZM1256 1079 1140 1195 1198 1252Q1218 1270 1247.0 1272.0Q1276 1274 1297 1253L1313 1238Q1333 1218 1332.0 1190.0Q1331 1162 1313 1141Z" transform="translate(-1.8164,14.9083) scale(0.011719,-0.011719)"/>
  </g>
</svg>
