<svg xmlns="http://www.w3.org/2000/svg" viewBox="0 0 17.5312 12.4336" width="33.8398" height="24.0000">
  <g fill="black" stroke="black" stroke-width="0.25">
    <path d="M361 153H884Q871 184 871 220Q871 276 899 325H384Q357 325 343.5 338.0Q330 351 330 381V986Q330 1015 343.5 1028.5Q357 1042 384 1042H1235Q1260 1042 1275.0 1029.5Q1290 1017 1290 990V979Q1314 982 1364.0 976.5Q1414 971 1461 937V1009Q1461 1107 1408.0 1160.5Q1355 1214 1258 1214H361Q263 1214 209.5 1160.5Q156 1107 156 1009V358Q156 260 209.5 206.5Q263 153 361 153ZM451 422H968Q994 453 1029.0 478.0Q1064 503 1107 521Q1078 558 1061.5 603.0Q1045 648 1045 700Q1045 752 1062.0 796.5Q1079 841 1108.5 876.0Q1138 911 1175 934Q1168 944 1154 944H451Q425 944 425 919V448Q425 435 432.5 428.5Q440 422 451 422ZM1316 523Q1383 523 1430.5 575.0Q1478 627 1478 700Q1478 773 1430.0 824.0Q1382 875 1316 875Q1248 875 1200.0 824.0Q1152 773 1152 700Q1152 627 1200.0 575.0Q1248 523 1316 523ZM1060 153H1570Q1607 153 1629.5 170.5Q1652 188 1652 220Q1652 270 1610.0 324.5Q1568 379 1492.5 417.5Q1417 456 1316 456Q1214 456 1138.0 417.5Q1062 379 1020.0 324.5Q978 270 978 220Q978 188 1000.5 170.5Q1023 153 1060 153Z" transform="translate(-1.8281,14.2266) scale(0.011719,-0.011719)"/>
  </g>
</svg>
