<svg xmlns="http://www.w3.org/2000/svg" viewBox="0 0 14.4492 14.3906" width="24.0977" height="24.0000">
  <g fill="black" stroke="black" stroke-width="0.25">
    <path d="M493 409Q397 506 320.5 611.0Q244 716 200.0 820.0Q156 924 156 1018Q156 1148 240 1227Q269 1255 305.5 1276.0Q342 1297 374 1297Q401 1297 424.0 1279.5Q447 1262 471 1230L582 1076Q602 1049 608.5 1028.0Q615 1007 615 988Q615 959 593 920L534 816Q529 809 526.5 802.0Q524 795 524 789Q524 781 527.0 774.0Q530 767 532 761Q552 723 586.5 677.5Q621 632 667 585Q714 539 763.0 501.0Q812 463 850 446Q870 437 882 437Q896 437 910 445L1014 502Q1040 516 1055.5 520.0Q1071 524 1085 524Q1104 524 1121.0 518.0Q1138 512 1168 491L1329 375Q1389 333 1389 291Q1389 265 1372.5 232.5Q1356 200 1320 160Q1281 118 1226.5 93.5Q1172 69 1106 69Q1012 69 907.0 114.0Q802 159 696.0 236.0Q590 313 493 409Z" transform="translate(-1.8281,15.1992) scale(0.011719,-0.011719)"/>
  </g>
</svg>
