<svg xmlns="http://www.w3.org/2000/svg" viewBox="0 0 15.9023 13.5000" width="28.2708" height="24.0000">
  <g fill="black" stroke="black" stroke-width="0.25">
    <path d="M835 1265Q958 1265 1073.5 1248.0Q1189 1231 1283.0 1194.5Q1377 1158 1437 1098Q1474 1061 1493.5 1015.0Q1513 969 1513 916Q1513 862 1492.5 816.5Q1472 771 1414 771Q1404 771 1394.5 772.0Q1385 773 1375 774L1210 801Q1165 809 1142.5 828.0Q1120 847 1108 890L1081 989Q1077 1004 1069.0 1011.5Q1061 1019 1046 1025Q1010 1037 958.0 1043.5Q906 1050 835 1050Q764 1051 711.5 1044.0Q659 1037 623 1025Q608 1019 600.0 1011.5Q592 1004 588 989L561 890Q549 847 526.5 828.0Q504 809 459 801L294 774Q283 773 273.5 772.0Q264 771 255 771Q197 771 176.5 816.5Q156 862 156 916Q156 969 175.5 1015.0Q195 1061 233 1098Q292 1158 386.0 1194.5Q480 1231 595.5 1248.0Q711 1265 835 1265ZM313 426Q244 426 244 493V611Q244 677 313 677H430Q497 677 497 611V493Q497 426 430 426ZM626 426Q557 426 557 493V611Q557 677 626 677H744Q810 677 810 611V493Q810 426 744 426ZM939 426Q870 426 870 493V611Q870 677 939 677H1055Q1123 677 1123 611V493Q1123 426 1055 426ZM1250 426Q1183 426 1183 493V611Q1183 677 1250 677H1368Q1436 677 1436 611V493Q1436 426 1368 426ZM311 113Q244 113 244 180V298Q244 366 311 366H429Q497 366 497 298V180Q497 113 429 113ZM624 113Q557 113 557 180V298Q557 366 624 366H1058Q1124 366 1124 298V180Q1124 113 1058 113ZM1252 113Q1185 113 1185 180V298Q1185 366 1252 366H1370Q1436 366 1436 298V180Q1436 113 1370 113Z" transform="translate(-1.8281,14.8242) scale(0.011719,-0.011719)"/>
  </g>
</svg>
