<svg xmlns="http://www.w3.org/2000/svg" viewBox="0 0 16.2773 13.2305" width="29.5270" height="24.0000">
  <g fill="black" stroke="black" stroke-width="0.25">
    <path d="M375 116H1327Q1432 116 1488.5 172.5Q1545 229 1545 333V1027Q1545 1132 1488.5 1188.5Q1432 1245 1327 1245H375Q271 1245 213.5 1188.5Q156 1132 156 1027V333Q156 229 213.5 172.5Q271 116 375 116ZM407 303Q377 303 360.5 320.0Q344 337 344 367V450L456 548Q492 580 531 580Q573 580 610 547L719 451L982 687Q1021 721 1069 721Q1118 721 1155 687L1358 500V367Q1358 337 1339.5 320.0Q1321 303 1296 303ZM664 678Q603 678 559.5 721.5Q516 765 516 827Q516 887 559.5 931.0Q603 975 664 975Q726 975 769.5 931.0Q813 887 813 827Q813 765 769.5 721.5Q726 678 664 678Z" transform="translate(-1.8281,14.5898) scale(0.011719,-0.011719)"/>
  </g>
</svg>
