<svg xmlns="http://www.w3.org/2000/svg" viewBox="0 0 30.9023 30.8320" width="24.0547" height="24.0000">
  <g fill="black" stroke="black" stroke-width="0.25">
    <path d="M1537 -636Q1320 -636 1122.5 -569.5Q925 -503 760.0 -381.5Q595 -260 473.5 -95.0Q352 70 285.5 267.5Q219 465 219 682Q219 881 275.0 1063.5Q331 1246 434.0 1402.5Q537 1559 678.5 1681.0Q820 1803 991.5 1882.0Q1163 1961 1355 1988V629Q1355 586 1367.0 563.0Q1379 540 1401 518L2323 -374Q2156 -499 1955.5 -567.5Q1755 -636 1537 -636ZM2856 682Q2856 444 2774.5 228.5Q2693 13 2551 -157L1781 590L2767 1153Q2810 1044 2833.0 925.0Q2856 806 2856 682ZM1660 873V1995Q1809 1981 1948.0 1934.5Q2087 1888 2211.0 1813.5Q2335 1739 2439.5 1641.0Q2544 1543 2624 1425Z" transform="translate(-2.5664,23.3789) scale(0.011719,-0.011719)"/>
  </g>
</svg>
