<svg xmlns="http://www.w3.org/2000/svg" viewBox="0 0 17.0865 14.8478" width="27.6186" height="24.0000">
  <g fill="black" stroke="black" stroke-width="0.25">
    <path d="M883 688 1045 850Q1136 939 1136.5 1050.0Q1137 1161 1050 1245Q964 1332 854.0 1331.0Q744 1330 653 1238L494 1078ZM800 605 411 995 248 830Q158 739 156.0 629.0Q154 519 240 433Q326 348 436.5 350.0Q547 352 638 443ZM1614 462Q1600 542 1552.5 605.5Q1505 669 1434.0 706.0Q1363 743 1279 743Q1196 743 1125.0 706.0Q1054 669 1006.5 605.5Q959 542 945 462ZM1614 345H945Q959 266 1006.5 202.5Q1054 139 1125.0 101.5Q1196 64 1279 64Q1363 64 1434.0 101.5Q1505 139 1552.5 202.5Q1600 266 1614 345Z" transform="translate(-1.8276,15.5978) scale(0.011719,-0.011719)"/>
  </g>
</svg>
