<svg xmlns="http://www.w3.org/2000/svg" viewBox="0 0 36.5923 28.6053" width="30.7012" height="24.0000">
  <g fill="black" stroke="black" stroke-width="0.25">
    <path d="M2766 -453Q2525 -541 2273.0 -519.0Q2021 -497 1787.0 -379.0Q1553 -261 1367 -62L947 388Q864 476 843.0 561.0Q822 646 847.5 717.5Q873 789 931.5 839.5Q990 890 1067.5 911.5Q1145 933 1227.5 917.0Q1310 901 1382 839L1658 605Q1706 564 1753.0 541.0Q1800 518 1845 518Q1954 518 2008.5 566.0Q2063 614 2063 704Q2063 747 2042.0 816.0Q2021 885 1987.5 956.0Q1954 1027 1917 1077Q1898 1102 1871.0 1108.5Q1844 1115 1806 1105L1523 1036Q1397 1005 1303.5 1028.0Q1210 1051 1151.5 1109.0Q1093 1167 1071.0 1243.5Q1049 1320 1065.0 1398.5Q1081 1477 1136.0 1540.0Q1191 1603 1287 1632L1735 1769Q1927 1827 2083.0 1781.0Q2239 1735 2363.5 1611.0Q2488 1487 2583 1311Q2617 1250 2598.0 1203.5Q2579 1157 2533.0 1134.0Q2487 1111 2435.5 1121.5Q2384 1132 2352 1186Q2276 1311 2199.0 1395.0Q2122 1479 2017.5 1506.0Q1913 1533 1753 1487L1368 1377Q1345 1370 1338.0 1354.0Q1331 1338 1336.5 1321.0Q1342 1304 1358.0 1294.5Q1374 1285 1396 1290L1702 1367Q1855 1406 1962.5 1386.5Q2070 1367 2151 1259Q2203 1191 2246.5 1093.5Q2290 996 2316.5 895.5Q2343 795 2343 719Q2343 585 2290.0 477.5Q2237 370 2134.5 306.5Q2032 243 1885 243Q1757 243 1645.5 307.5Q1534 372 1408 472L1196 641Q1179 654 1162.5 653.5Q1146 653 1136.0 642.5Q1126 632 1126.5 616.5Q1127 601 1143 585L1580 122Q1741 -49 1928.0 -134.5Q2115 -220 2306.5 -227.0Q2498 -234 2672 -170Q2825 -115 2927.5 -11.5Q3030 92 3083.5 225.5Q3137 359 3144.0 507.0Q3151 655 3113 801L3007 1211Q2998 1245 2983.5 1272.5Q2969 1300 2944.5 1316.5Q2920 1333 2883.5 1334.5Q2847 1336 2793 1318L2662 1546Q2804 1604 2928.0 1603.5Q3052 1603 3145.0 1524.0Q3238 1445 3286 1266L3393 865Q3444 675 3430.0 475.0Q3416 275 3337.5 91.5Q3259 -92 3116.0 -235.0Q2973 -378 2766 -453ZM2690 1268Q2661 1363 2601.0 1400.0Q2541 1437 2474.5 1431.0Q2408 1425 2361 1391L2194 1605Q2253 1650 2334.0 1672.0Q2415 1694 2503.5 1688.0Q2592 1682 2675.5 1644.0Q2759 1606 2824.5 1531.0Q2890 1456 2924 1340Q2943 1274 2916.5 1233.5Q2890 1193 2843.0 1181.5Q2796 1170 2751.5 1191.0Q2707 1212 2690 1268ZM646 1861Q689 1908 736.0 1915.5Q783 1923 824.0 1903.5Q865 1884 889.5 1845.5Q914 1807 912.0 1760.0Q910 1713 869 1667Q770 1553 704.0 1433.0Q638 1313 601 1187Q582 1124 543.0 1096.0Q504 1068 458.5 1068.5Q413 1069 375.5 1093.5Q338 1118 320.0 1161.0Q302 1204 318 1259Q362 1415 444.0 1569.0Q526 1723 646 1861ZM646 -62Q526 76 444.0 229.0Q362 382 318 539Q302 596 320.0 639.0Q338 682 376.0 706.0Q414 730 459.0 730.5Q504 731 543.0 702.5Q582 674 601 611Q638 485 704.0 365.0Q770 245 869 133Q910 86 912.0 38.5Q914 -9 889.5 -47.0Q865 -85 823.5 -105.0Q782 -125 735.0 -116.5Q688 -108 646 -62Z" transform="translate(-3.6383,22.4717) scale(0.011719,-0.011719)"/>
  </g>
</svg>
