<svg xmlns="http://www.w3.org/2000/svg" viewBox="0 0 14.5664 13.7812" width="25.3673" height="24.0000">
  <g fill="black" stroke="black" stroke-width="0.25">
    <path d="M767 268Q734 268 711.0 291.5Q688 315 688 347V567Q561 581 478.5 636.0Q396 691 349.0 766.0Q302 841 281.5 918.5Q261 996 256 1055Q255 1090 271.0 1110.5Q287 1131 320 1131Q390 1131 454.0 1116.0Q518 1101 573.5 1072.5Q629 1044 675.0 1003.5Q721 963 756 911Q806 1022 887.5 1101.5Q969 1181 1078.0 1223.5Q1187 1266 1318 1266Q1354 1266 1376.5 1244.5Q1399 1223 1399 1188Q1399 1011 1330.5 877.0Q1262 743 1137.0 662.5Q1012 582 842 567V347Q842 315 820.0 291.5Q798 268 767 268ZM671 729Q658 774 635.0 810.5Q612 847 581.5 876.5Q551 906 512.5 926.0Q474 946 430 957Q444 910 467.0 872.0Q490 834 520.5 805.5Q551 777 589.0 758.0Q627 739 671 729ZM864 727Q965 744 1043.5 794.5Q1122 845 1171.5 922.5Q1221 1000 1234 1098Q1137 1079 1062.0 1029.0Q987 979 937.0 902.5Q887 826 864 727ZM234 90Q202 90 179.0 113.0Q156 136 156 168Q156 199 179.0 222.5Q202 246 234 246Q266 246 289.5 222.5Q313 199 313 168Q313 136 289.5 113.0Q266 90 234 90ZM398 190Q366 190 343.0 213.5Q320 237 320 267Q320 299 342.5 322.0Q365 345 398 345Q430 345 453.0 322.0Q476 299 476 267Q476 237 453.0 213.5Q430 190 398 190ZM579 250Q546 250 522.5 273.0Q499 296 499 326Q499 359 522.5 381.5Q546 404 579 404Q610 404 632.5 381.5Q655 359 655 326Q655 296 632.5 273.0Q610 250 579 250ZM951 250Q918 250 895.0 273.0Q872 296 872 326Q872 359 895.0 381.5Q918 404 951 404Q982 404 1005.0 381.5Q1028 359 1028 326Q1028 296 1005.0 273.0Q982 250 951 250ZM1129 190Q1097 190 1074.0 213.5Q1051 237 1051 267Q1051 299 1074.0 322.0Q1097 345 1129 345Q1161 345 1184.5 322.0Q1208 299 1208 267Q1208 237 1184.5 213.5Q1161 190 1129 190ZM1294 90Q1261 90 1238.0 113.0Q1215 136 1215 168Q1215 199 1238.0 222.5Q1261 246 1294 246Q1325 246 1348.0 222.5Q1371 199 1371 168Q1371 136 1348.0 113.0Q1325 90 1294 90Z" transform="translate(-1.8281,14.8359) scale(0.011719,-0.011719)"/>
  </g>
</svg>
