<svg xmlns="http://www.w3.org/2000/svg" viewBox="0 0 37.8909 29.2969" width="31.0402" height="24.0000">
  <g fill="black" stroke="black" stroke-width="0.25">
    <path d="M1524 1934V-401L2049 -566V1391Q2049 1455 2076.0 1494.0Q2103 1533 2157 1515Q2222 1495 2237.5 1441.0Q2253 1387 2253 1320V543Q2376 484 2487 484Q2648 484 2747.5 605.5Q2847 727 2847 961Q2847 1176 2789.0 1319.0Q2731 1462 2599.0 1558.5Q2467 1655 2244 1730Q2155 1760 2029.0 1798.5Q1903 1837 1769.5 1873.5Q1636 1910 1524 1934ZM2147 -227 2993 76Q3068 104 3074.5 133.5Q3081 163 3023 183Q2961 204 2872.0 201.0Q2783 198 2711 172L2147 -32V291Q2238 321 2354.0 350.0Q2470 379 2574 387Q2742 400 2940.5 378.5Q3139 357 3319 295Q3435 256 3487.5 205.5Q3540 155 3544.0 105.5Q3548 56 3518 18Q3459 -61 3221 -144L2147 -527ZM505 -172Q402 -135 353.5 -83.0Q305 -31 312.0 23.0Q319 77 381 119Q465 177 540.0 205.0Q615 233 689 260L1418 523V222L887 32Q805 3 793.0 -32.5Q781 -68 843 -89Q872 -99 929.5 -99.5Q987 -100 1052.0 -91.5Q1117 -83 1169 -65L1418 27V-244Q1231 -284 1068.0 -280.5Q905 -277 764.5 -245.5Q624 -214 505 -172Z" transform="translate(-3.6459,22.6641) scale(0.011719,-0.011719)"/>
  </g>
</svg>
