<svg xmlns="http://www.w3.org/2000/svg" viewBox="0 0 39.5156 27.2461" width="34.8077" height="24.0000">
  <g fill="black" stroke="black" stroke-width="0.25">
    <path d="M2680 276Q2567 276 2459.5 308.5Q2352 341 2259.5 403.5Q2167 466 2098 556Q2060 605 2037.0 617.5Q2014 630 1959 630H1692Q1564 630 1490.0 702.5Q1416 775 1416 901V1220Q1416 1344 1490.0 1418.0Q1564 1492 1692 1492H1959Q1995 1492 2016.5 1496.5Q2038 1501 2055.5 1516.5Q2073 1532 2098 1565Q2167 1653 2259.5 1716.0Q2352 1779 2459.5 1812.5Q2567 1846 2680 1846H2983Q3055 1846 3102.5 1798.0Q3150 1750 3150 1679V442Q3150 370 3102.5 323.0Q3055 276 2983 276ZM2680 563H2827Q2862 563 2862 598V1524Q2862 1559 2827 1559H2680Q2607 1559 2542.5 1539.5Q2478 1520 2423.0 1482.5Q2368 1445 2324 1388Q2249 1288 2163.0 1245.5Q2077 1203 1959 1203H1737Q1702 1203 1702 1168V956Q1702 919 1740 919H1959Q2077 919 2163.0 876.0Q2249 833 2324 733Q2368 677 2423.0 639.0Q2478 601 2542.5 582.0Q2607 563 2680 563ZM2999 1170V1512H3512Q3584 1512 3633.5 1461.5Q3683 1411 3683 1341Q3683 1270 3633.5 1220.0Q3584 1170 3512 1170ZM2999 593V937H3512Q3584 937 3633.5 887.0Q3683 837 3683 766Q3683 695 3633.5 644.0Q3584 593 3512 593ZM311 -479V-146H1448Q1546 -146 1599.5 -99.0Q1653 -52 1653 30Q1653 113 1599.5 160.5Q1546 208 1448 208H870Q699 208 573.5 275.0Q448 342 379.5 457.5Q311 573 311 719Q311 864 379.5 979.0Q448 1094 573.5 1161.0Q699 1228 870 1228H1561V895H849Q750 895 696.5 848.0Q643 801 643 719Q643 636 696.5 588.5Q750 541 849 541H1427Q1597 541 1722.5 474.0Q1848 407 1916.5 291.5Q1985 176 1985 30Q1985 -114 1916.5 -229.5Q1848 -345 1722.5 -412.0Q1597 -479 1427 -479Z" transform="translate(-3.6445,21.6328) scale(0.011719,-0.011719)"/>
  </g>
</svg>
