<svg xmlns="http://www.w3.org/2000/svg" viewBox="0 0 11.4258 15.9141" width="17.2312" height="24.0000">
  <g fill="black" stroke="black" stroke-width="0.25">
    <path d="M295 779H505V583Q505 521 544.0 482.0Q583 443 645 443Q707 443 745.5 481.5Q784 520 784 580V779H992Q1054 779 1092.5 818.0Q1131 857 1131 919Q1131 981 1092.5 1020.0Q1054 1059 992 1059H784V1257Q784 1319 745.5 1358.0Q707 1397 645 1397Q583 1397 544.0 1358.0Q505 1319 505 1257V1059H295Q234 1059 195.0 1020.0Q156 981 156 919Q156 857 195.0 818.0Q234 779 295 779ZM307 39H981Q1046 39 1088.5 79.5Q1131 120 1131 179Q1131 240 1088.5 280.5Q1046 321 981 321H307Q242 321 199.0 280.5Q156 240 156 179Q156 120 199.0 79.5Q242 39 307 39Z" transform="translate(-1.8281,16.3711) scale(0.011719,-0.011719)"/>
  </g>
</svg>
