<svg xmlns="http://www.w3.org/2000/svg" viewBox="0 0 10.9453 14.9297" width="17.5950" height="24.0000">
  <g fill="black" stroke="black" stroke-width="0.25">
    <path d="M437 921Q407 954 364.5 973.0Q322 992 274 992Q212 992 162 964Q156 980 156 997Q156 1064 202.5 1111.0Q249 1158 315 1159Q318 1183 338.0 1203.0Q358 1223 384 1225Q394 1266 434.5 1295.5Q475 1325 533 1325Q577 1325 615.0 1302.5Q653 1280 674 1240Q685 1242 704 1238Q725 1256 751.0 1265.0Q777 1274 806 1274Q849 1274 883.0 1251.0Q917 1228 938 1188Q1007 1183 1048.5 1135.0Q1090 1087 1090 1012Q1090 987 1079 963Q1029 992 967 992Q918 992 875.5 973.0Q833 954 803 921Q770 958 722.0 978.0Q674 998 621 998Q567 998 519.0 978.0Q471 958 437 921ZM416 51Q351 51 316.0 89.5Q281 128 269 193L162 753Q150 816 186.5 851.5Q223 887 274 887Q317 887 348.5 861.0Q380 835 384 788L452 51ZM552 51 488 760Q484 806 503.5 835.5Q523 865 555.0 879.0Q587 893 621 893Q654 893 686.0 879.0Q718 865 738.0 835.5Q758 806 753 760L689 51ZM824 51H788L856 788Q860 835 891.5 861.0Q923 887 967 887Q1017 887 1053.5 851.5Q1090 816 1078 753L971 193Q959 128 924.0 89.5Q889 51 824 51Z" transform="translate(-1.8281,15.5273) scale(0.011719,-0.011719)"/>
  </g>
</svg>
