<svg xmlns="http://www.w3.org/2000/svg" viewBox="0 0 14.6367 16.0430" width="21.8963" height="24.0000">
  <g fill="black" stroke="black" stroke-width="0.25">
    <path d="M269 57H1293Q1349 57 1377.0 92.5Q1405 128 1405 177Q1405 217 1382.0 277.0Q1359 337 1311.0 401.5Q1263 466 1189.0 523.0Q1115 580 1013.5 615.5Q912 651 781 651Q650 651 548.0 615.5Q446 580 372.0 523.0Q298 466 250.0 401.5Q202 337 179.0 277.0Q156 217 156 177Q156 128 184.5 92.5Q213 57 269 57ZM781 740Q868 740 940.5 785.5Q1013 831 1056.0 909.5Q1099 988 1099 1087Q1099 1180 1056.0 1257.0Q1013 1334 940.5 1380.0Q868 1426 781 1426Q693 1426 621.0 1380.0Q549 1334 506.0 1257.0Q463 1180 463 1087Q463 988 506.0 909.5Q549 831 621.0 786.0Q693 741 781 740Z" transform="translate(-1.8281,16.7109) scale(0.011719,-0.011719)"/>
  </g>
</svg>
