<svg xmlns="http://www.w3.org/2000/svg" viewBox="0 0 14.3672 14.7773" width="23.3339" height="24.0000">
  <g fill="black" stroke="black" stroke-width="0.25">
    <path d="M769 71Q643 71 532.0 118.5Q421 166 336.5 250.5Q252 335 204.0 446.0Q156 557 156 683Q156 799 199.0 908.0Q242 1017 320 1097Q363 1144 411.0 1144.0Q459 1144 493.5 1113.0Q528 1082 533.0 1034.5Q538 987 495 938Q446 886 420.5 820.5Q395 755 395 683Q395 605 424.0 537.0Q453 469 504.0 418.0Q555 367 623.0 338.0Q691 309 769 309Q847 309 915.0 338.0Q983 367 1034.5 418.0Q1086 469 1115.0 537.0Q1144 605 1144 683Q1143 755 1117.5 820.5Q1092 886 1043 938Q1000 986 1005.0 1034.0Q1010 1082 1044.5 1113.0Q1079 1144 1127.0 1144.0Q1175 1144 1218 1097Q1296 1017 1339.0 908.0Q1382 799 1382 683Q1382 557 1334.0 446.0Q1286 335 1201.5 250.5Q1117 166 1006.0 118.5Q895 71 769 71ZM769 626Q713 626 677.0 663.0Q641 700 641 760V1199Q641 1258 677.0 1295.0Q713 1332 769 1332Q826 1332 861.5 1295.0Q897 1258 897 1199V760Q897 700 861.5 663.0Q826 626 769 626Z" transform="translate(-1.8281,15.6094) scale(0.011719,-0.011719)"/>
  </g>
</svg>
