<svg xmlns="http://www.w3.org/2000/svg" viewBox="0 0 33.5273 33.1406" width="24.2801" height="24.0000">
  <g fill="black" stroke="black" stroke-width="0.25">
    <path d="M1186 -721Q1011 -721 926.5 -637.5Q842 -554 842 -377V-243H758Q545 -243 428.0 -127.0Q311 -11 311 202V1138Q311 1351 429.5 1467.0Q548 1583 758 1583H2725Q2938 1583 3055.0 1467.0Q3172 1351 3172 1138V202Q3172 -11 3055.0 -127.0Q2938 -243 2725 -243H2641V-377Q2641 -554 2556.5 -637.5Q2472 -721 2297 -721ZM1220 -413H2264Q2288 -413 2301.5 -399.5Q2315 -386 2315 -361V458Q2315 483 2301.5 496.0Q2288 509 2264 509H1220Q1195 509 1181.5 496.0Q1168 483 1168 458V-361Q1168 -386 1181.5 -399.5Q1195 -413 1220 -413ZM845 1803V1808Q845 1906 900.5 1972.5Q956 2039 1048.0 2073.0Q1140 2107 1250 2107H2232Q2345 2107 2436.5 2073.0Q2528 2039 2583.0 1972.5Q2638 1906 2638 1808V1803ZM1441 215Q1392 215 1357.0 250.0Q1322 285 1322 334Q1322 384 1357.0 419.0Q1392 454 1441 454Q1491 454 1526.0 419.0Q1561 384 1561 334Q1561 285 1526.0 250.0Q1491 215 1441 215ZM1441 -72Q1392 -72 1357.0 -37.0Q1322 -2 1322 48Q1322 97 1357.0 132.0Q1392 167 1441 167Q1491 167 1526.0 132.0Q1561 97 1561 48Q1561 -2 1526.0 -37.0Q1491 -72 1441 -72ZM1441 -358Q1392 -358 1357.0 -323.5Q1322 -289 1322 -239Q1322 -189 1357.0 -154.5Q1392 -120 1441 -120Q1491 -120 1526.0 -154.5Q1561 -189 1561 -239Q1561 -289 1526.0 -323.5Q1491 -358 1441 -358ZM2045 215Q1996 215 1961.0 250.0Q1926 285 1926 334Q1926 384 1961.0 419.0Q1996 454 2045 454Q2095 454 2130.0 419.0Q2165 384 2165 334Q2165 285 2130.0 250.0Q2095 215 2045 215ZM2045 -72Q1996 -72 1961.0 -38.5Q1926 -5 1926 48Q1926 97 1961.0 132.0Q1996 167 2045 167Q2095 167 2130.0 132.0Q2165 97 2165 48Q2165 -2 2130.0 -37.0Q2095 -72 2045 -72ZM2045 -358Q1996 -358 1961.0 -323.5Q1926 -289 1926 -239Q1926 -189 1961.0 -154.5Q1996 -120 2045 -120Q2095 -120 2130.0 -154.5Q2165 -189 2165 -239Q2165 -289 2130.0 -323.5Q2095 -358 2045 -358Z" transform="translate(-3.6445,24.6914) scale(0.011719,-0.011719)"/>
  </g>
</svg>
