<svg xmlns="http://www.w3.org/2000/svg" viewBox="0 0 33.5273 33.1406" width="24.2801" height="24.0000">
  <g fill="black" stroke="black" stroke-width="0.25">
    <path d="M1186 -721Q1011 -721 926.5 -637.5Q842 -554 842 -377V-243H758Q545 -243 428.0 -127.0Q311 -11 311 202V1138Q311 1351 429.5 1467.0Q548 1583 758 1583H2725Q2938 1583 3055.0 1467.0Q3172 1351 3172 1138V202Q3172 -11 3055.0 -127.0Q2938 -243 2725 -243H2641V-377Q2641 -554 2556.5 -637.5Q2472 -721 2297 -721ZM1207 -413H2276Q2301 -413 2314.5 -399.5Q2328 -386 2328 -361V458Q2328 483 2314.5 496.0Q2301 509 2276 509H1207Q1183 509 1169.0 496.0Q1155 483 1155 458V-361Q1155 -386 1169.0 -399.5Q1183 -413 1207 -413ZM845 1803V1808Q845 1906 900.5 1972.5Q956 2039 1048.0 2073.0Q1140 2107 1250 2107H2232Q2345 2107 2436.5 2073.0Q2528 2039 2583.0 1972.5Q2638 1906 2638 1808V1803ZM1410 128Q1363 128 1331.0 160.5Q1299 193 1299 240Q1299 285 1331.0 316.5Q1363 348 1410 348H2075Q2122 348 2153.5 316.5Q2185 285 2185 240Q2185 193 2153.5 160.5Q2122 128 2075 128ZM1410 -250Q1363 -250 1331.0 -219.0Q1299 -188 1299 -142Q1299 -95 1331.0 -63.0Q1363 -31 1410 -31H2075Q2122 -31 2153.5 -63.0Q2185 -95 2185 -142Q2185 -188 2153.5 -219.0Q2122 -250 2075 -250Z" transform="translate(-3.6445,24.6914) scale(0.011719,-0.011719)"/>
  </g>
</svg>
