<svg xmlns="http://www.w3.org/2000/svg" viewBox="0 0 13.1484 15.6797" width="20.1256" height="24.0000">
  <g fill="black" stroke="black" stroke-width="0.25">
    <path d="M156 365Q156 413 189.0 443.0Q222 473 264 473Q317 473 358 426L388 392L430 338L416 460V897Q416 1112 533.5 1233.5Q651 1355 860 1355Q985 1355 1079.0 1300.5Q1173 1246 1225.5 1152.0Q1278 1058 1278 939Q1278 760 1170.5 651.5Q1063 543 886 543Q851 543 820.5 551.0Q790 559 767 575Q715 609 715 668Q715 706 740.5 733.0Q766 760 812 760Q824 760 841.5 759.0Q859 758 885 758Q962 758 1010.0 808.0Q1058 858 1059 939Q1059 1025 1004.0 1079.0Q949 1133 860 1133Q760 1133 702.0 1067.0Q644 1001 644 866V461L631 338L672 393L705 427Q728 450 747.0 461.5Q766 473 796 473Q839 473 871.5 443.0Q904 413 904 365Q904 316 863 276L645 64Q597 17 531 17Q465 17 415 64L198 275Q156 316 156 365Z" transform="translate(-1.8281,15.8789) scale(0.011719,-0.011719)"/>
  </g>
</svg>
