<svg xmlns="http://www.w3.org/2000/svg" viewBox="0 0 11.8945 17.1211" width="16.6735" height="24.0000">
  <g fill="black" stroke="black" stroke-width="0.25">
    <path d="M156 467Q156 418 186.0 388.5Q216 359 264 359H553V150Q553 117 565.5 75.0Q578 33 596.0 -7.0Q614 -47 632.5 -73.0Q651 -99 663 -99Q675 -99 693.5 -73.0Q712 -47 730.5 -7.0Q749 33 761.5 75.0Q774 117 774 150V359H1063Q1111 359 1141.0 388.5Q1171 418 1171 467Q1171 566 1087.0 652.5Q1003 739 878 788L859 1065Q930 1105 978.5 1142.5Q1027 1180 1048 1208Q1075 1246 1075 1279Q1075 1316 1049.5 1339.0Q1024 1362 986 1362H340Q303 1362 277.5 1339.0Q252 1316 252 1279Q252 1242 279 1208Q301 1181 349.0 1143.0Q397 1105 468 1065L448 788Q324 739 240.0 652.5Q156 566 156 467Z" transform="translate(-1.8281,15.9609) scale(0.011719,-0.011719)"/>
  </g>
</svg>
