<svg xmlns="http://www.w3.org/2000/svg" viewBox="0 0 43.8281 29.4023" width="35.7752" height="24.0000">
  <g fill="black" stroke="black" stroke-width="0.25">
    <path d="M1487 -570Q1285 -570 1168.0 -454.5Q1051 -339 1051 -140V188Q1051 203 1041.5 207.0Q1032 211 1014 203Q987 188 955.5 178.5Q924 169 889.0 164.0Q854 159 817 159Q689 159 573.5 222.0Q458 285 384.5 403.0Q311 521 311 685Q311 849 384.5 967.0Q458 1085 573.5 1148.0Q689 1211 817 1211Q854 1211 889.0 1206.0Q924 1201 955.5 1191.5Q987 1182 1014 1167Q1032 1159 1041.5 1163.0Q1051 1167 1051 1182V1510Q1051 1708 1168.0 1823.5Q1285 1939 1487 1939H1886Q1990 1939 2057.5 1875.0Q2125 1811 2125 1716Q2125 1659 2107.0 1617.5Q2089 1576 2063 1540Q2035 1502 2015.0 1463.5Q1995 1425 1995 1377Q1995 1297 2046.0 1244.5Q2097 1192 2181 1192Q2266 1192 2317.0 1244.5Q2368 1297 2368 1377Q2368 1425 2347.5 1463.5Q2327 1502 2300 1540Q2274 1576 2256.0 1617.5Q2238 1659 2238 1716Q2238 1811 2305.0 1875.0Q2372 1939 2477 1939H2875Q3077 1939 3194.0 1823.5Q3311 1708 3311 1510V1182Q3311 1167 3321.0 1163.0Q3331 1159 3348 1167Q3376 1182 3407.5 1191.5Q3439 1201 3474.0 1206.0Q3509 1211 3545 1211Q3673 1211 3789.0 1148.0Q3905 1085 3978.0 967.0Q4051 849 4051 685Q4051 521 3978.0 403.0Q3905 285 3789.0 222.0Q3673 159 3545 159Q3509 159 3474.0 164.0Q3439 169 3407.5 178.5Q3376 188 3348 203Q3331 211 3321.0 207.0Q3311 203 3311 188V-140Q3311 -339 3194.0 -454.5Q3077 -570 2875 -570H2477Q2372 -570 2305.0 -506.0Q2238 -442 2238 -347Q2238 -289 2256.0 -247.5Q2274 -206 2300 -170Q2327 -132 2347.5 -93.5Q2368 -55 2368 -7Q2368 72 2317.0 125.0Q2266 178 2181 178Q2097 178 2046.0 125.0Q1995 72 1995 -7Q1995 -55 2015.0 -93.5Q2035 -132 2063 -170Q2089 -206 2107.0 -247.5Q2125 -289 2125 -347Q2125 -442 2057.5 -506.0Q1990 -570 1886 -570ZM1490 -223H1672Q1702 -223 1701.5 -211.0Q1701 -199 1694 -180Q1681 -149 1672.5 -117.0Q1664 -85 1659.5 -53.0Q1655 -21 1655 11Q1655 139 1718.0 255.0Q1781 371 1899.0 444.0Q2017 517 2181 517Q2345 517 2463.0 444.0Q2581 371 2644.0 255.0Q2707 139 2707 11Q2707 -21 2702.5 -53.0Q2698 -85 2689.5 -117.0Q2681 -149 2669 -180Q2662 -199 2661.0 -211.0Q2660 -223 2690 -223H2872Q2915 -223 2939.5 -198.0Q2964 -173 2964 -128V390Q2964 494 3028.0 561.0Q3092 628 3188 628Q3245 628 3286.5 610.0Q3328 592 3364 566Q3402 539 3440.5 518.5Q3479 498 3527 498Q3607 498 3659.5 549.0Q3712 600 3712 685Q3712 769 3659.5 820.0Q3607 871 3527 871Q3479 871 3440.5 851.0Q3402 831 3364 803Q3328 777 3286.5 759.0Q3245 741 3188 741Q3092 741 3028.0 808.5Q2964 876 2964 980V1497Q2964 1542 2939.5 1567.5Q2915 1593 2872 1593H2690Q2660 1593 2661.0 1581.0Q2662 1569 2669 1550Q2681 1519 2689.5 1487.0Q2698 1455 2702.5 1422.5Q2707 1390 2707 1358Q2707 1231 2644.0 1115.0Q2581 999 2463.0 926.0Q2345 853 2181 853Q2017 853 1899.0 926.0Q1781 999 1718.0 1115.0Q1655 1231 1655 1358Q1655 1390 1659.5 1422.5Q1664 1455 1672.5 1487.0Q1681 1519 1694 1550Q1701 1569 1701.5 1581.0Q1702 1593 1672 1593H1490Q1448 1593 1423.0 1567.5Q1398 1542 1398 1497V980Q1398 876 1334.0 808.5Q1270 741 1175 741Q1118 741 1076.0 759.0Q1034 777 998 803Q961 831 922.0 851.0Q883 871 835 871Q756 871 703.0 820.0Q650 769 650 685Q650 600 703.0 549.0Q756 498 835 498Q883 498 922.0 518.5Q961 539 998 566Q1034 592 1076.0 610.0Q1118 628 1175 628Q1270 628 1334.0 561.0Q1398 494 1398 390V-128Q1398 -173 1423.0 -198.0Q1448 -223 1490 -223Z" transform="translate(-3.6445,22.7227) scale(0.011719,-0.011719)"/>
  </g>
</svg>
