<svg xmlns="http://www.w3.org/2000/svg" viewBox="0 0 36.6797 29.4023" width="29.9402" height="24.0000">
  <g fill="black" stroke="black" stroke-width="0.25">
    <path d="M312 -140V389Q312 494 376.0 561.0Q440 628 535 628Q592 628 633.5 610.0Q675 592 711 566Q749 538 787.5 518.0Q826 498 875 498Q954 498 1006.5 549.0Q1059 600 1059 684Q1059 769 1006.5 820.0Q954 871 875 871Q826 871 787.5 851.0Q749 831 711 803Q675 777 633.5 759.0Q592 741 535 741Q440 741 376.0 808.0Q312 875 312 980V1510Q312 1708 429.0 1823.5Q546 1939 747 1939H2266Q2468 1939 2585.0 1823.5Q2702 1708 2702 1510V1182Q2702 1167 2712.0 1163.0Q2722 1159 2739 1167Q2766 1182 2798.0 1192.0Q2830 1202 2864.5 1206.5Q2899 1211 2936 1211Q3064 1211 3180.0 1148.0Q3296 1085 3369.0 967.0Q3442 849 3442 685Q3442 521 3369.0 403.0Q3296 285 3180.0 222.0Q3064 159 2936 159Q2899 159 2864.5 163.5Q2830 168 2798.0 178.0Q2766 188 2739 203Q2722 211 2712.0 207.0Q2702 203 2702 188V-140Q2702 -339 2585.0 -454.5Q2468 -570 2266 -570H747Q546 -570 429.0 -454.5Q312 -339 312 -140ZM658 -128Q658 -173 683.0 -198.0Q708 -223 751 -223H2263Q2306 -223 2330.5 -198.0Q2355 -173 2355 -128V390Q2355 494 2419.0 561.0Q2483 628 2579 628Q2636 628 2677.5 610.0Q2719 592 2755 566Q2793 539 2831.5 518.5Q2870 498 2918 498Q2998 498 3050.5 549.0Q3103 600 3103 685Q3103 769 3050.5 820.0Q2998 871 2918 871Q2870 871 2831.5 851.0Q2793 831 2755 803Q2719 777 2677.5 759.0Q2636 741 2579 741Q2483 741 2419.0 808.5Q2355 876 2355 980V1497Q2355 1542 2330.5 1567.5Q2306 1593 2263 1593H751Q708 1593 683.0 1567.5Q658 1542 658 1497V1189Q658 1164 671.0 1163.0Q684 1162 702 1171Q728 1184 758.5 1193.0Q789 1202 823.0 1206.5Q857 1211 893 1211Q1021 1211 1136.5 1147.5Q1252 1084 1325.0 966.5Q1398 849 1398 684Q1398 520 1325.0 402.5Q1252 285 1136.5 221.5Q1021 158 893 158Q857 158 823.0 162.5Q789 167 758.5 176.0Q728 185 702 198Q684 207 671.0 206.0Q658 205 658 180Z" transform="translate(-3.6562,22.7227) scale(0.011719,-0.011719)"/>
  </g>
</svg>
