<svg xmlns="http://www.w3.org/2000/svg" viewBox="0 0 13.5000 13.5000" width="24.0000" height="24.0000">
  <g fill="black" stroke="black" stroke-width="0.25">
    <path d="M209 106Q186 106 171.0 121.0Q156 136 156 159V577Q156 600 171.0 614.5Q186 629 209 629H628Q650 629 665.0 614.5Q680 600 680 577V159Q680 136 665.0 121.0Q650 106 628 106ZM260 211H574V525H260ZM352 303V434H483V303ZM209 734Q186 734 171.0 749.0Q156 764 156 786V1205Q156 1228 171.0 1243.0Q186 1258 209 1258H628Q650 1258 665.0 1243.0Q680 1228 680 1205V786Q680 764 665.0 749.0Q650 734 628 734ZM260 840H574V1153H260ZM352 931V1061H483V931ZM836 734Q814 734 799.5 749.0Q785 764 785 786V1205Q785 1228 799.5 1243.0Q814 1258 836 1258H1255Q1278 1258 1293.0 1243.0Q1308 1228 1308 1205V786Q1308 764 1293.0 749.0Q1278 734 1255 734ZM889 840H1203V1153H889ZM980 931V1061H1111V931ZM799 121V251H931V121ZM1163 121V251H1293V121ZM980 302V433H1111V302ZM799 483V615H931V483ZM1163 483V615H1293V483Z" transform="translate(-1.8281,14.7422) scale(0.011719,-0.011719)"/>
  </g>
</svg>
