<svg xmlns="http://www.w3.org/2000/svg" viewBox="0 0 25.5703 29.8828" width="20.5365" height="24.0000">
  <g fill="black" stroke="black" stroke-width="0.25">
    <path d="M311 437V1323Q311 1424 334.0 1491.0Q357 1558 409.5 1604.0Q462 1650 551 1689Q582 1702 647.0 1725.5Q712 1749 793.0 1776.5Q874 1804 954.5 1830.5Q1035 1857 1098.5 1877.0Q1162 1897 1189 1904Q1238 1917 1296.0 1926.5Q1354 1936 1402 1936Q1450 1936 1508.5 1927.5Q1567 1919 1616 1904Q1643 1895 1706.0 1875.0Q1769 1855 1849.5 1828.5Q1930 1802 2011.5 1775.0Q2093 1748 2158.0 1725.0Q2223 1702 2253 1689Q2343 1650 2395.5 1604.0Q2448 1558 2470.5 1491.0Q2493 1424 2493 1323V437Q2493 302 2459.5 192.0Q2426 82 2353.5 -13.5Q2281 -109 2165.0 -199.5Q2049 -290 1884.0 -384.0Q1719 -478 1501 -586Q1476 -599 1449.5 -606.5Q1423 -614 1402 -614Q1382 -614 1355.5 -606.5Q1329 -599 1304 -586Q1085 -478 920.5 -384.0Q756 -290 639.5 -199.5Q523 -109 450.5 -13.5Q378 82 344.5 192.0Q311 302 311 437ZM667 487Q667 398 687.0 332.0Q707 266 752.5 210.5Q798 155 876.5 97.0Q955 39 1071.5 -33.5Q1188 -106 1349 -206Q1374 -221 1384.0 -224.5Q1394 -228 1402 -228V683H2137V1279Q2137 1313 2127.0 1330.5Q2117 1348 2092 1358Q2041 1378 1977.0 1401.0Q1913 1424 1844.0 1448.0Q1775 1472 1711.0 1494.0Q1647 1516 1595.5 1534.0Q1544 1552 1515 1562Q1475 1574 1450.0 1580.0Q1425 1586 1401 1586V683H667Z" transform="translate(-3.6445,22.6875) scale(0.011719,-0.011719)"/>
  </g>
</svg>
