<svg xmlns="http://www.w3.org/2000/svg" viewBox="0 0 26.2031 31.9922" width="19.6571" height="24.0000">
  <g fill="black" stroke="black" stroke-width="0.25">
    <path d="M1148 1406Q1249 1406 1318.0 1335.5Q1387 1265 1387 1138Q1387 1073 1366.0 1012.0Q1345 951 1299 904Q1256 860 1198.0 831.0Q1140 802 1085 802Q1036 802 1036 844Q1036 864 1046.5 875.5Q1057 887 1082 892Q1119 899 1149.0 913.5Q1179 928 1202 947Q1227 968 1243.0 991.5Q1259 1015 1265 1039H1240Q1218 1012 1187.0 999.0Q1156 986 1114 986Q1034 986 981.0 1042.0Q928 1098 928 1190Q928 1255 956.5 1303.5Q985 1352 1034.5 1379.0Q1084 1406 1148 1406ZM1689 1407Q1790 1407 1858.5 1336.0Q1927 1265 1927 1139Q1927 1073 1906.0 1012.0Q1885 951 1840 905Q1793 857 1736.0 829.5Q1679 802 1625 802Q1576 802 1576 844Q1576 866 1589.0 877.5Q1602 889 1623 893Q1662 898 1693.0 913.5Q1724 929 1748 950Q1771 970 1786.0 993.5Q1801 1017 1806 1039H1781Q1759 1013 1727.5 999.5Q1696 986 1654 986Q1574 986 1521.0 1042.5Q1468 1099 1468 1190Q1468 1255 1496.5 1304.0Q1525 1353 1575.0 1380.0Q1625 1407 1689 1407ZM1036 333Q997 333 972.0 358.5Q947 384 947 422Q947 458 972.0 482.5Q997 507 1036 507H1821Q1859 507 1884.0 482.5Q1909 458 1909 422Q1909 384 1884.0 358.5Q1859 333 1821 333ZM1411 19Q1373 19 1348.0 43.5Q1323 68 1323 105Q1323 142 1348.0 167.5Q1373 193 1411 193H1821Q1859 193 1884.0 167.5Q1909 142 1909 105Q1909 68 1884.0 43.5Q1859 19 1821 19ZM311 -220V1584Q311 1805 431.5 1926.0Q552 2047 773 2047H2085Q2306 2047 2426.5 1926.0Q2547 1805 2547 1584V-220Q2547 -441 2426.5 -562.0Q2306 -683 2085 -683H773Q552 -683 431.5 -562.0Q311 -441 311 -220ZM703 -167Q703 -228 732.5 -259.0Q762 -290 828 -290H2030Q2096 -290 2125.0 -259.0Q2154 -228 2154 -167V1531Q2154 1592 2125.0 1623.5Q2096 1655 2030 1655H828Q762 1655 732.5 1623.5Q703 1592 703 1531Z" transform="translate(-3.6445,23.9883) scale(0.011719,-0.011719)"/>
  </g>
</svg>
