<svg xmlns="http://www.w3.org/2000/svg" viewBox="0 0 14.5781 9.1289" width="38.3261" height="24.0000">
  <g fill="black" stroke="black" stroke-width="0.25">
    <path d="M156 801Q156 921 233.5 997.5Q311 1074 431 1074Q525 1074 591.5 1028.5Q658 983 693.5 906.5Q729 830 729 736Q729 639 693.0 558.0Q657 477 599.5 418.0Q542 359 477.0 327.0Q412 295 354 295Q324 295 303.0 310.5Q282 326 282 355Q282 378 296.5 394.0Q311 410 337 416Q399 430 447.0 458.0Q495 486 526.5 522.5Q558 559 570 600H544Q518 569 478.5 554.5Q439 540 389 540Q286 540 221.0 614.0Q156 688 156 801ZM826 801Q826 921 904.0 997.5Q982 1074 1101 1074Q1195 1074 1261.5 1028.5Q1328 983 1364.0 906.5Q1400 830 1400 736Q1400 639 1363.5 558.0Q1327 477 1269.5 418.0Q1212 359 1147.0 327.0Q1082 295 1024 295Q994 295 973.0 310.5Q952 326 952 355Q952 378 966.5 394.0Q981 410 1007 416Q1069 430 1117.0 458.0Q1165 486 1196.5 522.5Q1228 559 1241 600H1214Q1188 569 1148.5 554.5Q1109 540 1059 540Q956 540 891.0 614.0Q826 688 826 801Z" transform="translate(-1.8281,12.5859) scale(0.011719,-0.011719)"/>
  </g>
</svg>
