<svg xmlns="http://www.w3.org/2000/svg" viewBox="0 0 35.4844 27.6914" width="30.7541" height="24.0000">
  <g fill="black" stroke="black" stroke-width="0.25">
    <path d="M774 -511Q553 -511 432.0 -391.0Q311 -271 311 -50V746Q311 907 354.0 1030.0Q397 1153 484 1241L895 1655Q1000 1761 1093.0 1806.5Q1186 1852 1303 1852H2348Q2465 1852 2558.0 1806.5Q2651 1761 2756 1655L3167 1241Q3248 1160 3293.5 1028.5Q3339 897 3339 746V-50Q3339 -271 3218.5 -391.0Q3098 -511 2876 -511ZM814 -142H2837Q2961 -142 2961 -17V528Q2961 640 2850 640H801Q690 640 690 528V-17Q690 -142 814 -142ZM767 947H2884Q2914 947 2921.0 968.0Q2928 989 2911 1008L2468 1471Q2435 1506 2403.0 1526.0Q2371 1546 2321 1546H1329Q1280 1546 1248.0 1526.0Q1216 1506 1182 1471L740 1008Q722 989 729.5 968.0Q737 947 767 947ZM956 -34Q918 -34 891.5 -7.5Q865 19 865 57V429Q865 466 891.5 492.5Q918 519 956 519Q993 519 1020.0 492.5Q1047 466 1047 429V57Q1047 19 1020.0 -7.5Q993 -34 956 -34ZM1225 -34Q1187 -34 1160.5 -7.5Q1134 19 1134 57V429Q1134 466 1160.5 492.5Q1187 519 1225 519Q1262 519 1289.0 492.5Q1316 466 1316 429V57Q1316 19 1289.0 -7.5Q1262 -34 1225 -34ZM1494 -34Q1456 -34 1429.5 -7.5Q1403 19 1403 57V429Q1403 466 1429.5 492.5Q1456 519 1494 519Q1531 519 1558.0 492.5Q1585 466 1585 429V57Q1585 19 1558.0 -7.5Q1531 -34 1494 -34ZM1833 363Q1799 363 1775.0 386.5Q1751 410 1751 444Q1751 478 1775.0 501.5Q1799 525 1833 525Q1866 525 1889.5 501.5Q1913 478 1913 444Q1913 410 1889.5 386.5Q1866 363 1833 363ZM1833 162Q1799 162 1775.0 185.5Q1751 209 1751 243Q1751 277 1775.0 300.5Q1799 324 1833 324Q1866 324 1889.5 300.5Q1913 277 1913 243Q1913 209 1889.5 185.5Q1866 162 1833 162ZM1833 -37Q1799 -37 1775.0 -13.5Q1751 10 1751 44Q1751 78 1775.0 101.5Q1799 125 1833 125Q1866 125 1889.5 101.5Q1913 78 1913 44Q1913 10 1889.5 -13.5Q1866 -37 1833 -37ZM2153 -34Q2115 -34 2088.5 -7.5Q2062 19 2062 57V429Q2062 466 2088.5 492.5Q2115 519 2153 519Q2190 519 2217.0 492.5Q2244 466 2244 429V57Q2244 19 2217.0 -7.5Q2190 -34 2153 -34ZM2422 -34Q2384 -34 2357.5 -7.5Q2331 19 2331 57V429Q2331 466 2357.5 492.5Q2384 519 2422 519Q2460 519 2486.5 492.5Q2513 466 2513 429V57Q2513 19 2486.5 -7.5Q2460 -34 2422 -34ZM2691 -34Q2653 -34 2627.0 -7.5Q2601 19 2601 57V429Q2601 466 2627.0 492.5Q2653 519 2691 519Q2729 519 2756.0 492.5Q2783 466 2783 429V57Q2783 19 2756.0 -7.5Q2729 -34 2691 -34Z" transform="translate(-3.6445,21.7031) scale(0.011719,-0.011719)"/>
  </g>
</svg>
