<svg xmlns="http://www.w3.org/2000/svg" viewBox="0 0 35.4844 24.6094" width="34.6057" height="24.0000">
  <g fill="black" stroke="black" stroke-width="0.25">
    <path d="M774 -367Q634 -367 530.0 -310.0Q426 -253 368.5 -149.5Q311 -46 311 94V627Q311 788 354.0 910.5Q397 1033 484 1122L827 1468Q918 1559 983.5 1617.5Q1049 1676 1121.0 1704.5Q1193 1733 1303 1733H2348Q2458 1733 2530.0 1704.5Q2602 1676 2667.5 1617.5Q2733 1559 2824 1468L3167 1122Q3248 1040 3293.5 908.5Q3339 777 3339 627V94Q3339 -46 3282.0 -149.5Q3225 -253 3121.0 -310.0Q3017 -367 2876 -367ZM814 2H2837Q2893 2 2927.0 35.5Q2961 69 2961 127V409Q2961 521 2850 521H801Q690 521 690 409V127Q690 69 723.5 35.5Q757 2 814 2ZM767 827H2884Q2914 827 2921.0 848.5Q2928 870 2911 888L2468 1352Q2435 1387 2403.0 1406.5Q2371 1426 2321 1426H1329Q1280 1426 1248.0 1406.5Q1216 1387 1182 1352L740 888Q722 870 729.5 848.5Q737 827 767 827ZM926 147Q878 147 843.5 181.5Q809 216 809 264Q809 312 843.5 346.5Q878 381 926 381Q973 381 1007.5 346.5Q1042 312 1042 264Q1042 216 1007.5 181.5Q973 147 926 147ZM1229 105Q1191 105 1164.5 131.5Q1138 158 1138 196V329Q1138 366 1164.5 392.5Q1191 419 1229 419Q1266 419 1293.0 392.5Q1320 366 1320 329V196Q1320 158 1293.0 131.5Q1266 105 1229 105ZM1475 105Q1437 105 1410.5 131.5Q1384 158 1384 196V329Q1384 366 1410.5 392.5Q1437 419 1475 419Q1512 419 1539.0 392.5Q1566 366 1566 329V196Q1566 158 1539.0 131.5Q1512 105 1475 105ZM1717 188Q1685 188 1663.0 210.0Q1641 232 1641 264Q1641 296 1663.0 318.0Q1685 340 1717 340Q1748 340 1770.0 318.0Q1792 296 1792 264Q1792 232 1770.0 210.0Q1748 188 1717 188ZM1958 105Q1920 105 1893.0 131.5Q1866 158 1866 196V329Q1866 366 1893.0 392.5Q1920 419 1958 419Q1996 419 2022.0 392.5Q2048 366 2048 329V196Q2048 158 2022.0 131.5Q1996 105 1958 105ZM2204 105Q2166 105 2139.0 131.5Q2112 158 2112 196V329Q2112 366 2139.0 392.5Q2166 419 2204 419Q2241 419 2267.5 392.5Q2294 366 2294 329V196Q2294 158 2267.5 131.5Q2241 105 2204 105ZM2476 171Q2436 171 2410.5 197.0Q2385 223 2385 262Q2385 302 2410.5 327.5Q2436 353 2476 353H2753Q2791 353 2817.0 327.5Q2843 302 2843 262Q2843 223 2817.0 197.0Q2791 171 2753 171Z" transform="translate(-3.6445,20.3086) scale(0.011719,-0.011719)"/>
  </g>
</svg>
