<svg xmlns="http://www.w3.org/2000/svg" viewBox="0 0 11.9883 16.6641" width="17.2658" height="24.0000">
  <g fill="black" stroke="black" stroke-width="0.25">
    <path d="M375 -24Q337 -24 308.5 3.0Q280 30 280 67Q280 105 308.5 132.5Q337 160 375 160H577V231Q456 248 359.5 309.0Q263 370 207.0 467.5Q151 565 151 692V828Q151 865 178.5 890.5Q206 916 244 916Q282 916 310.0 890.5Q338 865 338 828V694Q338 610 382.5 541.5Q427 473 500.5 433.0Q574 393 663 393Q752 393 826.0 433.0Q900 473 944.0 541.5Q988 610 988 694V828Q988 865 1016.0 890.5Q1044 916 1082 916Q1120 916 1147.0 890.5Q1174 865 1174 828V692Q1174 565 1118.5 467.5Q1063 370 966.5 309.0Q870 248 749 231V160H951Q989 160 1017.0 132.5Q1045 105 1045 67Q1045 31 1017.0 3.5Q989 -24 951 -24ZM664 494Q576 494 507.0 556.0Q438 618 438 720V1173Q438 1240 470.0 1290.5Q502 1341 553.5 1369.5Q605 1398 664 1398Q752 1398 820.0 1335.0Q888 1272 888 1172V720Q888 618 820.0 556.0Q752 494 664 494Z" transform="translate(-1.7695,16.3828) scale(0.011719,-0.011719)"/>
  </g>
</svg>
