<svg xmlns="http://www.w3.org/2000/svg" viewBox="0 0 30.9023 30.9023" width="24.0000" height="24.0000">
  <g fill="black" stroke="black" stroke-width="0.25">
    <path d="M219 682Q219 900 285.5 1097.0Q352 1294 473.5 1459.0Q595 1624 760.0 1745.5Q925 1867 1122.0 1934.0Q1319 2001 1537 2001Q1754 2001 1951.5 1934.0Q2149 1867 2314.0 1745.5Q2479 1624 2600.5 1459.0Q2722 1294 2789.0 1097.0Q2856 900 2856 682Q2856 465 2789.0 267.5Q2722 70 2600.5 -95.0Q2479 -260 2314.0 -381.5Q2149 -503 1951.5 -569.5Q1754 -636 1537 -636Q1320 -636 1122.5 -569.5Q925 -503 760.0 -381.5Q595 -260 473.5 -95.0Q352 70 285.5 267.5Q219 465 219 682ZM615 682Q615 511 672.5 358.5Q730 206 834.0 84.5Q938 -37 1075 -117L1536 682L1999 -117Q2137 -38 2241.0 84.0Q2345 206 2402.5 358.5Q2460 511 2460 682H1536L1998 1482Q1896 1540 1779.5 1572.5Q1663 1605 1537 1605Q1410 1605 1293.5 1572.5Q1177 1540 1076 1482L1536 682Z" transform="translate(-2.5664,23.4492) scale(0.011719,-0.011719)"/>
  </g>
</svg>
