<svg xmlns="http://www.w3.org/2000/svg" viewBox="0 0 34.7578 30.2812" width="27.5480" height="24.0000">
  <g fill="black" stroke="black" stroke-width="0.25">
    <path d="M1701 1437Q1627 1437 1574.0 1490.0Q1521 1543 1521 1617V1986Q1521 2060 1574.0 2113.0Q1627 2166 1701 2166Q1775 2166 1828.5 2113.0Q1882 2060 1882 1986V1617Q1882 1543 1828.5 1490.0Q1775 1437 1701 1437ZM2234 1216Q2181 1268 2181.0 1343.0Q2181 1418 2234 1471L2494 1732Q2547 1785 2622.0 1785.0Q2697 1785 2750 1732Q2802 1679 2802.0 1604.0Q2802 1529 2750 1477L2489 1216Q2436 1163 2361.0 1163.0Q2286 1163 2234 1216ZM2454 683Q2454 758 2507.5 811.0Q2561 864 2635 864H3004Q3078 864 3131.0 811.0Q3184 758 3184 683Q3184 609 3131.0 556.0Q3078 503 3004 503H2635Q2561 503 2507.5 556.0Q2454 609 2454 683ZM1169 151Q1221 98 1221.0 23.0Q1221 -52 1169 -104L908 -366Q856 -418 780.5 -418.0Q705 -418 652 -366Q600 -312 600.0 -237.0Q600 -162 652 -110L914 151Q966 203 1041.0 203.0Q1116 203 1169 151ZM948 683Q948 609 895.0 556.0Q842 503 767 503H399Q324 503 271.0 556.0Q218 609 218 683Q218 758 271.0 811.0Q324 864 399 864H767Q842 864 895.0 811.0Q948 758 948 683ZM1169 1216Q1116 1163 1041.0 1163.0Q966 1163 914 1216L652 1477Q600 1529 600.0 1604.0Q600 1679 652 1732Q705 1785 780.5 1785.0Q856 1785 908 1732L1169 1471Q1221 1418 1221.0 1343.0Q1221 1268 1169 1216Z" transform="translate(-2.5547,25.3828) scale(0.011719,-0.011719)"/>
  </g>
</svg>
