<svg xmlns="http://www.w3.org/2000/svg" viewBox="0 0 24.3998 35.4609" width="16.5138" height="24.0000">
  <g fill="black" stroke="black" stroke-width="0.25">
    <path d="M1044 1870Q977 1870 929.0 1918.5Q881 1967 881 2034Q881 2102 929.0 2149.5Q977 2197 1044 2197Q1111 2197 1159.0 2149.5Q1207 2102 1207 2034Q1207 1967 1159.0 1918.5Q1111 1870 1044 1870ZM463 1340Q396 1340 348.0 1388.0Q300 1436 300 1504Q300 1571 348.0 1619.0Q396 1667 463 1667Q531 1667 579.0 1619.0Q627 1571 627 1504Q627 1436 579.0 1388.0Q531 1340 463 1340ZM1631 1344Q1564 1344 1516.0 1392.0Q1468 1440 1468 1507Q1468 1575 1516.0 1623.0Q1564 1671 1631 1671Q1699 1671 1747.0 1623.0Q1795 1575 1795 1507Q1795 1440 1747.0 1392.0Q1699 1344 1631 1344ZM2139 1344Q2071 1344 2023.0 1392.0Q1975 1440 1975 1507Q1975 1575 2023.0 1623.0Q2071 1671 2139 1671Q2206 1671 2254.5 1623.0Q2303 1575 2303 1507Q2303 1440 2254.5 1392.0Q2206 1344 2139 1344ZM2139 1870Q2071 1870 2023.0 1918.5Q1975 1967 1975 2034Q1975 2102 2023.0 2149.5Q2071 2197 2139 2197Q2206 2197 2254.5 2149.5Q2303 2102 2303 2034Q2303 1967 2254.5 1918.5Q2206 1870 2139 1870ZM447 -145 247 401Q235 435 227.5 473.5Q220 512 221 548Q221 669 299.0 742.5Q377 816 496 816Q561 816 611.0 785.5Q661 755 704 710L720 678Q724 675 728.0 676.0Q732 677 732 683V1369Q732 1509 818.5 1595.5Q905 1682 1044 1682Q1178 1682 1261.5 1595.5Q1345 1509 1345 1369L1344 1162Q1350 1163 1355.0 1163.5Q1360 1164 1365 1164Q1442 1164 1499.0 1126.0Q1556 1088 1590 1019Q1606 1023 1623.0 1024.5Q1640 1026 1658 1026Q1735 1026 1797.0 990.0Q1859 954 1890 891Q2066 882 2167.5 757.5Q2269 633 2269 428V382Q2201 394 2128 394Q2054 394 1987 382Q1986 502 1967.0 542.0Q1948 582 1909 584V528Q1909 479 1875.0 446.0Q1841 413 1794 413Q1747 413 1712.5 446.0Q1678 479 1678 528V702Q1678 720 1666.5 731.0Q1655 742 1638 742Q1623 742 1605 739V570Q1605 523 1572.0 491.0Q1539 459 1493 459Q1446 459 1413.0 491.0Q1380 523 1380 570V838Q1380 856 1368.0 867.0Q1356 878 1340 878Q1323 878 1307 875V619Q1307 571 1272.5 538.0Q1238 505 1191 505Q1144 505 1109.5 538.0Q1075 571 1075 619V1385Q1075 1400 1064.5 1410.5Q1054 1421 1038 1421Q1022 1421 1012.5 1410.5Q1003 1400 1003 1385L1002 245Q1002 180 963.0 144.0Q924 108 873 108Q835 108 800.0 127.0Q765 146 742 191L568 525Q556 548 539 548Q521 548 513.0 538.5Q505 529 505 517Q505 510 506.0 505.0Q507 500 510 493L727 -39Q815 -256 949.5 -375.0Q1084 -494 1274 -519Q1279 -601 1300.0 -679.0Q1321 -757 1357 -829Q1032 -824 799.5 -650.0Q567 -476 447 -145Z" transform="translate(-2.5885,25.7461) scale(0.011719,-0.011719)"/>
  </g>
</svg>
