<svg xmlns="http://www.w3.org/2000/svg" viewBox="0 0 26.2031 33.0753" width="19.0134" height="24.0000">
  <g fill="black" stroke="black" stroke-width="0.25">
    <path d="M311 -491V1586Q311 1806 432.0 1926.5Q553 2047 774 2047H2083Q2305 2047 2426.0 1926.5Q2547 1806 2547 1586V-491Q2547 -581 2503.5 -646.5Q2460 -712 2389.5 -745.5Q2319 -779 2236.0 -775.0Q2153 -771 2073 -723L1988 -669L1865 -746Q1802 -784 1739 -746L1615 -669L1492 -746Q1428 -785 1366 -746L1242 -669L1119 -746Q1056 -784 993 -746L869 -670L784 -723Q704 -771 621.0 -775.0Q538 -779 468.0 -745.5Q398 -712 354.5 -646.5Q311 -581 311 -491ZM669 -335 795 -250Q824 -230 859.0 -229.0Q894 -228 929 -249L1054 -327L1178 -250Q1241 -211 1305 -250L1427 -327L1551 -250Q1614 -211 1678 -250L1800 -327L1924 -250Q1954 -231 1985.0 -230.5Q2016 -230 2051 -250L2188 -335V1564Q2188 1689 2065 1689H793Q669 1689 669 1564ZM979 1201Q940 1201 915.0 1226.5Q890 1252 890 1289Q890 1325 915.0 1350.0Q940 1375 979 1375H1450Q1488 1375 1513.0 1350.0Q1538 1325 1538 1289Q1538 1252 1513.0 1226.5Q1488 1201 1450 1201ZM1771 1201Q1733 1201 1707.5 1226.5Q1682 1252 1682 1289Q1682 1325 1707.5 1350.0Q1733 1375 1771 1375H1846Q1884 1375 1909.0 1350.0Q1934 1325 1934 1289Q1934 1252 1909.0 1226.5Q1884 1201 1846 1201ZM979 810Q940 810 915.0 835.5Q890 861 890 898Q890 934 915.0 959.0Q940 984 979 984H1450Q1488 984 1513.0 959.0Q1538 934 1538 898Q1538 861 1513.0 835.5Q1488 810 1450 810ZM1771 810Q1733 810 1707.5 835.5Q1682 861 1682 898Q1682 934 1707.5 959.0Q1733 984 1771 984H1846Q1884 984 1909.0 959.0Q1934 934 1934 898Q1934 861 1909.0 835.5Q1884 810 1846 810ZM979 422Q940 422 915.0 446.5Q890 471 890 507Q890 545 915.0 570.5Q940 596 979 596H1450Q1488 596 1513.0 570.5Q1538 545 1538 507Q1538 471 1513.0 446.5Q1488 422 1450 422ZM1771 422Q1733 422 1707.5 446.5Q1682 471 1682 507Q1682 545 1707.5 570.5Q1733 596 1771 596H1846Q1884 596 1909.0 570.5Q1934 545 1934 507Q1934 471 1909.0 446.5Q1884 422 1846 422ZM979 31Q940 31 915.0 55.5Q890 80 890 116Q890 154 915.0 179.5Q940 205 979 205H1450Q1488 205 1513.0 179.5Q1538 154 1538 116Q1538 80 1513.0 55.5Q1488 31 1450 31ZM1771 31Q1733 31 1707.5 55.5Q1682 80 1682 116Q1682 154 1707.5 179.5Q1733 205 1771 205H1846Q1884 205 1909.0 179.5Q1934 154 1934 116Q1934 80 1909.0 55.5Q1884 31 1846 31Z" transform="translate(-3.6445,23.9883) scale(0.011719,-0.011719)"/>
  </g>
</svg>
