<svg xmlns="http://www.w3.org/2000/svg" viewBox="0 0 16.5352 14.5664" width="27.2438" height="24.0000">
  <g fill="black" stroke="black" stroke-width="0.25">
    <path d="M765 1184Q765 1219 786.5 1240.0Q808 1261 843 1261Q880 1261 901 1240L1149 1031Q1178 1006 1178.0 974.0Q1178 942 1149 917L901 708Q878 687 843 687Q808 687 786.5 708.0Q765 729 765 764ZM813 95Q813 61 792.0 39.5Q771 18 735 18Q702 18 677 39L430 248Q402 272 401.0 305.0Q400 338 429 362L677 572Q700 592 735 592Q771 592 792.0 571.0Q813 550 813 515ZM1471 769Q1426 769 1399.0 796.0Q1372 823 1372 867V1047H1377L1350 1024Q1327 1006 1301 1006Q1270 1006 1248.0 1027.0Q1226 1048 1226 1078Q1226 1117 1259 1142L1344 1208Q1400 1251 1457 1251Q1506 1251 1536.5 1219.5Q1567 1188 1567 1138V867Q1567 823 1541.0 796.0Q1515 769 1471 769ZM861 884H498Q428 884 385.5 844.0Q343 804 343 738V675Q343 636 315.5 608.5Q288 581 249 581Q210 581 183.0 609.0Q156 637 156 675V749Q156 895 253.5 983.0Q351 1071 511 1071H861Q899 1071 926.5 1043.5Q954 1016 954 978Q954 939 926.5 911.5Q899 884 861 884ZM730 397H1220Q1291 397 1333.5 437.0Q1376 477 1376 543V606Q1376 644 1403.5 671.0Q1431 698 1470 698Q1509 698 1536.5 671.0Q1564 644 1564 606V532Q1564 386 1466.5 298.0Q1369 210 1207 210H730Q691 210 663.5 237.5Q636 265 636 305Q636 343 663.5 370.0Q691 397 730 397Z" transform="translate(-1.8281,14.7773) scale(0.011719,-0.011719)"/>
  </g>
</svg>
