<svg xmlns="http://www.w3.org/2000/svg" viewBox="0 0 17.3320 15.2930" width="27.2000" height="24.0000">
  <g fill="black" stroke="black" stroke-width="0.25">
    <path d="M940 1247Q940 1287 964.0 1311.0Q988 1335 1027 1335Q1061 1335 1088 1311L1346 1093Q1379 1066 1379.5 1028.5Q1380 991 1346 964L1088 747Q1062 725 1027 725Q988 725 964.0 748.5Q940 772 940 812ZM1032 930H518Q447 930 405.0 890.0Q363 850 363 784V718Q363 676 333.0 646.5Q303 617 260 617Q217 617 186.5 646.5Q156 676 156 718V794Q156 948 259.0 1041.5Q362 1135 532 1135H1032Q1075 1135 1104.5 1105.0Q1134 1075 1134 1032Q1134 990 1104.5 960.0Q1075 930 1032 930ZM851 117Q851 77 827.5 53.5Q804 30 764 30Q730 30 704 53L445 271Q413 298 412.5 335.5Q412 373 445 400L704 618Q729 639 764 639Q804 639 827.5 615.5Q851 592 851 552ZM759 434H1273Q1344 434 1386.5 474.0Q1429 514 1429 580V646Q1429 688 1459.0 717.5Q1489 747 1532 747Q1574 747 1604.5 717.5Q1635 688 1635 646V570Q1635 416 1532.0 322.5Q1429 229 1259 229H759Q717 229 687.0 259.0Q657 289 657 332Q657 375 687.0 404.5Q717 434 759 434Z" transform="translate(-1.8281,15.6445) scale(0.011719,-0.011719)"/>
  </g>
</svg>
