<svg xmlns="http://www.w3.org/2000/svg" viewBox="0 0 12.7034 12.8830" width="23.6654" height="24.0000">
  <g fill="black" stroke="black" stroke-width="0.25">
    <path d="M286 126Q227 126 191.5 165.5Q156 205 156 262V716Q156 875 252.5 968.5Q349 1062 513 1062H922Q975 1062 1013.5 1024.5Q1052 987 1052 932Q1052 879 1013.5 841.0Q975 803 922 803H514Q468 803 441.0 779.0Q414 755 414 714V262Q414 205 378.5 165.5Q343 126 286 126ZM794 1138Q794 1201 841.0 1219.5Q888 1238 940 1198L1198 1012Q1239 981 1240.0 935.5Q1241 890 1198 858L940 671Q886 633 840.0 652.5Q794 672 794 733Z" transform="translate(-1.8281,14.3596) scale(0.011719,-0.011719)"/>
  </g>
</svg>
