<svg xmlns="http://www.w3.org/2000/svg" viewBox="0 0 16.1953 13.2773" width="29.2745" height="24.0000">
  <g fill="black" stroke="black" stroke-width="0.25">
    <path d="M156 669Q156 607 196.5 569.0Q237 531 302 531H647L815 547L683 435L607 360Q587 340 574.5 316.0Q562 292 562 259Q562 204 599.5 167.0Q637 130 698 130Q722 130 748.5 140.0Q775 150 794 172L1170 567Q1211 610 1211 669Q1211 700 1199.5 726.0Q1188 752 1170 771L794 1166Q773 1189 748.0 1199.0Q723 1209 698 1209Q638 1209 600.0 1172.0Q562 1135 562 1079Q562 1047 574.0 1023.5Q586 1000 607 980L683 903L815 791L647 807H302Q237 807 196.5 769.0Q156 731 156 669ZM1405 103Q1460 103 1499.0 141.5Q1538 180 1538 236V1104Q1538 1159 1499.0 1197.5Q1460 1236 1405 1236Q1350 1236 1311.0 1197.5Q1272 1159 1272 1104V236Q1272 180 1311.0 141.5Q1350 103 1405 103Z" transform="translate(-1.8281,14.4844) scale(0.011719,-0.011719)"/>
  </g>
</svg>
