<svg xmlns="http://www.w3.org/2000/svg" viewBox="0 0 15.0938 15.0938" width="24.0000" height="24.0000">
  <g fill="black" stroke="black" stroke-width="0.25">
    <path d="M515 574Q350 588 253.0 616.0Q156 644 156 682Q156 790 189.5 887.0Q223 984 283.0 1065.0Q343 1146 425.0 1205.0Q507 1264 603 1295Q561 1188 537.0 1030.5Q513 873 513 682Q513 655 513.5 628.0Q514 601 515 574ZM682 566Q681 594 681.0 623.0Q681 652 681 682Q681 871 696.0 1016.5Q711 1162 738.0 1244.0Q765 1326 800 1326Q933 1326 1049.5 1276.0Q1166 1226 1255.0 1137.0Q1344 1048 1394.0 931.5Q1444 815 1444 682Q1444 648 1362.0 621.0Q1280 594 1134.5 579.0Q989 564 800 564Q770 564 740.0 564.5Q710 565 682 566ZM528 411Q538 308 557.5 221.5Q577 135 604 69Q505 100 422.0 160.5Q339 221 278.5 304.5Q218 388 187 487Q253 461 339.0 441.5Q425 422 528 411ZM691 399Q718 398 745.0 397.5Q772 397 800 397Q992 397 1149.0 421.0Q1306 445 1413 487Q1382 390 1323.0 308.0Q1264 226 1183.0 165.5Q1102 105 1004.5 71.5Q907 38 800 38Q762 38 733.5 136.0Q705 234 691 399Z" transform="translate(-1.8281,15.5391) scale(0.011719,-0.011719)"/>
  </g>
</svg>
