<svg xmlns="http://www.w3.org/2000/svg" viewBox="0 0 28.9688 34.1250" width="20.3736" height="24.0000">
  <g fill="black" stroke="black" stroke-width="0.25">
    <path d="M1145 1538Q1062 1538 993.5 1578.5Q925 1619 884.5 1687.5Q844 1756 844 1839Q844 1922 884.5 1990.0Q925 2058 993.5 2099.0Q1062 2140 1145 2140Q1227 2140 1295.5 2099.0Q1364 2058 1404.5 1990.0Q1445 1922 1445 1839Q1445 1756 1404.5 1687.5Q1364 1619 1295.5 1578.5Q1227 1538 1145 1538ZM1153 -290Q1112 -281 1061.5 -277.5Q1011 -274 953 -276L2199 1103H1214Q1169 1103 1136.0 1078.0Q1103 1053 1091 1010L999 689L1477 896Q1572 937 1662 892L1763 840L1507 557L880 224Q838 201 794.0 190.5Q750 180 708 180Q619 180 547.5 226.5Q476 273 444.5 357.0Q413 441 443 555L570 1027Q601 1143 679.5 1230.0Q758 1317 871.0 1365.0Q984 1413 1117 1413H2342Q2408 1413 2452.5 1368.0Q2497 1323 2497 1258Q2497 1232 2486.0 1203.0Q2475 1174 2459 1156ZM1966 391 2183 630 2470 486Q2547 447 2565.5 384.0Q2584 321 2558 271Q2533 218 2471.0 194.0Q2409 170 2329 210ZM964 -45 760 -268H423Q377 -268 344.0 -235.5Q311 -203 311 -157Q311 -110 344.0 -77.5Q377 -45 423 -45ZM2672 -45Q2718 -45 2750.5 -77.5Q2783 -110 2783 -157Q2783 -203 2750.5 -235.5Q2718 -268 2672 -268H1370L1573 -45ZM1547 -772Q1437 -772 1363.0 -745.5Q1289 -719 1233.0 -683.5Q1177 -648 1123.0 -621.5Q1069 -595 998 -595Q927 -595 873.5 -621.5Q820 -648 764.0 -683.5Q708 -719 634.0 -745.5Q560 -772 449 -772H387Q355 -772 333.0 -750.5Q311 -729 311 -697Q311 -664 333.0 -642.5Q355 -621 387 -621H449Q521 -621 576.5 -594.0Q632 -567 688.0 -532.0Q744 -497 817.5 -470.0Q891 -443 998 -443Q1105 -443 1177.5 -470.0Q1250 -497 1306.0 -532.0Q1362 -567 1418.0 -594.0Q1474 -621 1547 -621Q1620 -621 1676.0 -594.0Q1732 -567 1788.5 -532.0Q1845 -497 1917.5 -470.0Q1990 -443 2096 -443Q2204 -443 2277.0 -470.0Q2350 -497 2406.5 -532.0Q2463 -567 2518.0 -594.0Q2573 -621 2645 -621H2708Q2740 -621 2761.5 -642.5Q2783 -664 2783 -697Q2783 -729 2761.5 -750.5Q2740 -772 2708 -772H2645Q2534 -772 2460.0 -745.5Q2386 -719 2330.5 -683.5Q2275 -648 2221.0 -621.5Q2167 -595 2096 -595Q2025 -595 1971.5 -621.5Q1918 -648 1862.0 -683.5Q1806 -719 1732.0 -745.5Q1658 -772 1547 -772Z" transform="translate(-3.6445,25.0781) scale(0.011719,-0.011719)"/>
  </g>
</svg>
