<svg xmlns="http://www.w3.org/2000/svg" viewBox="0 0 38.4141 17.9766" width="51.2855" height="24.0000">
  <g fill="black" stroke="black" stroke-width="0.25">
    <path d="M3589 1058V309Q3589 125 3483.0 20.0Q3377 -85 3192 -85H709Q523 -85 417.0 20.0Q311 125 311 309V1058Q311 1241 416.0 1345.0Q521 1449 707 1449H3191Q3375 1449 3482.0 1345.0Q3589 1241 3589 1058ZM3242 1008Q3242 1053 3218.0 1078.0Q3194 1103 3151 1103H749Q707 1103 682.0 1078.0Q657 1053 657 1008V358Q657 313 681.5 287.5Q706 262 748 262H3151Q3193 262 3217.5 287.5Q3242 313 3242 358ZM891 1183V616Q891 586 872.5 566.0Q854 546 823 546Q794 546 773.0 565.5Q752 585 752 615V1183ZM1116 1183V786Q1116 756 1097.5 736.0Q1079 716 1048 716Q1019 716 998.0 735.5Q977 755 977 785V1183ZM1341 1183V786Q1341 756 1322.5 736.0Q1304 716 1273 716Q1244 716 1223.0 735.5Q1202 755 1202 785V1183ZM1566 1183V786Q1566 756 1547.0 736.0Q1528 716 1498 716Q1469 716 1447.5 735.5Q1426 755 1426 785V1183ZM1791 1183V786Q1791 756 1772.0 736.0Q1753 716 1723 716Q1694 716 1673.0 735.5Q1652 755 1652 785V1183ZM2016 1183V616Q2016 586 1997.5 566.0Q1979 546 1948 546Q1919 546 1898.0 565.5Q1877 585 1877 615V1183ZM2241 1183V786Q2241 756 2222.0 736.0Q2203 716 2173 716Q2144 716 2122.5 735.5Q2101 755 2101 785V1183ZM2466 1183V786Q2466 756 2447.5 736.0Q2429 716 2398 716Q2369 716 2348.0 735.5Q2327 755 2327 785V1183ZM2691 1183V786Q2691 756 2672.0 736.0Q2653 716 2623 716Q2594 716 2572.5 735.5Q2551 755 2551 785V1183ZM2916 1183V786Q2916 756 2897.5 736.0Q2879 716 2848 716Q2819 716 2798.0 735.5Q2777 755 2777 785V1183ZM3141 1183V616Q3141 586 3122.5 566.0Q3104 546 3073 546Q3044 546 3023.0 565.5Q3002 585 3002 615V1183Z" transform="translate(-3.6445,16.9805) scale(0.011719,-0.011719)"/>
  </g>
</svg>
