<svg xmlns="http://www.w3.org/2000/svg" viewBox="0 0 13.3396 17.4727" width="18.3230" height="24.0000">
  <g fill="black" stroke="black" stroke-width="0.25">
    <path d="M355 -35H904Q962 -35 998.0 -22.0Q1034 -9 1076 25Q1104 48 1137.0 92.0Q1170 136 1193.5 181.5Q1217 227 1217 254Q1217 284 1194.5 303.0Q1172 322 1127 317Q1037 307 926.0 299.0Q815 291 698 287L705 377Q816 368 919.0 371.0Q1022 374 1094 384Q1159 394 1195.0 424.0Q1231 454 1254 513Q1275 568 1284.5 630.5Q1294 693 1294 761Q1294 877 1250.0 1002.0Q1206 1127 1112.5 1239.5Q1019 1352 870 1430Q818 1456 774 1456Q729 1456 698.0 1429.0Q667 1402 663 1354L643 1142L189 508Q157 463 172.5 423.5Q188 384 242 380Q323 370 406.0 368.5Q489 367 572 374L564 281Q478 278 395.5 277.0Q313 276 239 276Q191 276 168.5 246.0Q146 216 163 172L206 55Q223 9 260.5 -13.0Q298 -35 355 -35ZM706 517 769 1255Q770 1269 782.5 1271.5Q795 1274 801 1261Q825 1192 837.0 1111.0Q849 1030 849 948Q849 824 814.5 709.5Q780 595 706 517Z" transform="translate(-1.8244,17.0625) scale(0.011719,-0.011719)"/>
  </g>
</svg>
