<svg xmlns="http://www.w3.org/2000/svg" viewBox="0 0 35.1328 29.5195" width="28.5637" height="24.0000">
  <g fill="black" stroke="black" stroke-width="0.25">
    <path d="M311 -116V375Q311 455 341.5 536.0Q372 617 426 677L871 1150Q939 1223 1000.5 1270.0Q1062 1317 1125.5 1339.0Q1189 1361 1265 1361H2340Q2422 1361 2489.0 1339.0Q2556 1317 2618.0 1270.5Q2680 1224 2750 1150L3194 677Q3249 617 3279.0 536.0Q3309 455 3309 375V-116Q3309 -337 3188.0 -457.0Q3067 -577 2846 -577H774Q553 -577 432.0 -457.0Q311 -337 311 -116ZM690 -60Q690 -127 721.0 -156.0Q752 -185 814 -185H2807Q2868 -185 2899.0 -156.0Q2930 -127 2930 -60V136H690ZM714 497Q703 485 708.5 473.0Q714 461 737 461H2884Q2906 461 2911.5 473.0Q2917 485 2906 497L2494 963Q2449 1014 2421.0 1034.0Q2393 1054 2360 1054H1260Q1227 1054 1199.0 1034.0Q1171 1014 1126 963ZM496 1643Q457 1682 448.5 1733.0Q440 1784 458.0 1831.5Q476 1879 516.5 1910.5Q557 1942 617 1942H3003Q3063 1942 3103.5 1910.5Q3144 1879 3162.0 1831.5Q3180 1784 3171.5 1733.0Q3163 1682 3124 1643L2730 1248Q2666 1185 2616.0 1149.5Q2566 1114 2511.0 1099.5Q2456 1085 2380 1085H1240Q1164 1085 1109.5 1099.5Q1055 1114 1004.5 1149.5Q954 1185 890 1248ZM927 1618 1167 1384Q1180 1372 1194.0 1366.5Q1208 1361 1234 1361H2387Q2412 1361 2426.0 1366.5Q2440 1372 2453 1384L2693 1618ZM1123 580Q1111 609 1124.5 634.5Q1138 660 1168 671L1646 846Q1676 857 1702.0 845.5Q1728 834 1739 805Q1750 776 1736.5 750.5Q1723 725 1694 714L1215 539Q1186 528 1160.0 540.0Q1134 552 1123 580ZM1126 791Q1115 820 1127.5 846.0Q1140 872 1170 882L1497 1001Q1527 1011 1553.0 1000.0Q1579 989 1589 959Q1599 931 1586.0 904.5Q1573 878 1544 868L1217 751Q1188 741 1162.5 752.0Q1137 763 1126 791Z" transform="translate(-3.6445,22.7578) scale(0.011719,-0.011719)"/>
  </g>
</svg>
