<svg xmlns="http://www.w3.org/2000/svg" viewBox="0 0 15.7969 11.8477" width="32.0000" height="24.0000">
  <g fill="black" stroke="black" stroke-width="0.25">
    <path d="M379 178Q317 178 266.5 208.0Q216 238 186.0 289.0Q156 340 156 402Q156 464 186.0 515.0Q216 566 266.5 596.5Q317 627 379 627Q431 627 456.5 617.5Q482 608 498.5 598.5Q515 589 539 589Q553 589 573 601L600 614Q637 634 650.5 647.0Q664 660 671 683L683 722Q698 769 724.0 798.0Q750 827 801 846L1244 1005Q1351 1044 1420.5 1025.0Q1490 1006 1504 935L649 483Q620 468 612.0 451.0Q604 434 604 402Q604 340 574.0 289.0Q544 238 493.0 208.0Q442 178 379 178ZM379 312Q416 312 442.5 339.0Q469 366 469 403Q469 440 442.5 466.5Q416 493 379 493Q342 493 316.0 466.5Q290 440 290 403Q290 366 316.0 339.0Q342 312 379 312ZM811 680Q828 680 840.0 692.0Q852 704 852 722Q852 738 840.0 750.0Q828 762 811 762Q794 762 781.5 750.0Q769 738 769 722Q769 704 781.5 692.0Q794 680 811 680ZM704 856Q675 832 658.0 803.5Q641 775 630 737L573 766Q554 777 540 777Q514 777 497.5 768.0Q481 759 456.0 750.0Q431 741 379 741Q317 741 266.5 771.0Q216 801 186.0 851.5Q156 902 156 964Q156 1027 186.0 1078.0Q216 1129 266.5 1159.0Q317 1189 379 1189Q441 1189 492.0 1159.0Q543 1129 573.5 1078.0Q604 1027 604 964Q604 930 612.5 914.5Q621 899 652 883ZM379 875Q416 875 442.5 901.5Q469 928 469 964Q469 1003 442.5 1029.5Q416 1056 379 1056Q342 1056 316.0 1029.5Q290 1003 290 964Q290 928 316.0 901.5Q342 875 379 875ZM832 518 1093 655 1504 437Q1489 365 1420.0 347.0Q1351 329 1244 367Z" transform="translate(-1.8281,13.9336) scale(0.011719,-0.011719)"/>
  </g>
</svg>
