<svg xmlns="http://www.w3.org/2000/svg" viewBox="0 0 47.3906 32.4023" width="35.1016" height="24.0000">
  <g fill="black" stroke="black" stroke-width="0.25">
    <path d="M1319 -697Q1170 -697 1040.0 -641.5Q910 -586 811.5 -487.5Q713 -389 658.0 -259.5Q603 -130 603 18L899 19Q899 -97 955.0 -192.0Q1011 -287 1106.0 -343.5Q1201 -400 1317 -400Q1432 -400 1527.0 -343.5Q1622 -287 1678.5 -192.0Q1735 -97 1735 19L2031 18Q2031 -130 1976.0 -259.5Q1921 -389 1823.0 -487.5Q1725 -586 1595.5 -641.5Q1466 -697 1319 -697ZM480 -141Q407 -141 369.5 -108.0Q332 -75 323 -22Q293 181 338.0 373.0Q383 565 497.5 719.5Q612 874 791.5 964.5Q971 1055 1211 1055H2019Q2108 1055 2151.5 1008.5Q2195 962 2195 867V165H3041V-141ZM1267 1182Q1204 1182 1159.5 1226.5Q1115 1271 1115 1333Q1115 1396 1159.5 1440.5Q1204 1485 1267 1485H2045Q2107 1485 2152.0 1440.5Q2197 1396 2197 1333Q2197 1271 2152.5 1226.5Q2108 1182 2045 1182ZM2751 -21V1167Q2751 1353 2926 1353H3337V1047L3429 603L3283 400L3158 207L3057 -21ZM3853 1024Q3772 1030 3706 1075Q3633 1122 3595.5 1199.0Q3558 1276 3562.0 1362.0Q3566 1448 3616 1520Q3659 1586 3728 1624Q3768 1646 3798.5 1628.5Q3829 1611 3837 1568L3929 1123Q3938 1080 3918.0 1049.5Q3898 1019 3853 1024ZM3642 -697Q3493 -697 3363.5 -641.5Q3234 -586 3135.5 -487.5Q3037 -389 2981.5 -259.5Q2926 -130 2926 18Q2926 166 2981.5 295.5Q3037 425 3135.5 523.5Q3234 622 3363.5 678.0Q3493 734 3642 734Q3790 734 3919.0 678.0Q4048 622 4146.0 523.5Q4244 425 4299.5 295.5Q4355 166 4355 18Q4355 -130 4299.5 -259.5Q4244 -389 4146.0 -487.5Q4048 -586 3919.0 -641.5Q3790 -697 3642 -697ZM3641 -400Q3727 -400 3803.0 -367.5Q3879 -335 3936.5 -277.5Q3994 -220 4026.5 -144.0Q4059 -68 4059 19Q4059 106 4026.5 181.5Q3994 257 3936.5 314.0Q3879 371 3803.0 403.5Q3727 436 3641 436Q3554 436 3478.0 403.5Q3402 371 3344.5 314.0Q3287 257 3255.0 181.5Q3223 106 3223 19Q3223 -68 3255.0 -144.0Q3287 -220 3344.5 -277.5Q3402 -335 3478.0 -367.5Q3554 -400 3641 -400ZM3641 -200Q3547 -200 3484.0 -136.0Q3421 -72 3422 20Q3423 113 3485.5 176.0Q3548 239 3641 239Q3734 239 3797.0 175.5Q3860 112 3860 19Q3860 -72 3796.0 -136.0Q3732 -200 3641 -200ZM3508 -42 3077 1750Q3073 1765 3055 1765H2742Q2680 1765 2635.5 1809.5Q2591 1854 2591 1917Q2591 1979 2635.5 2023.5Q2680 2068 2742 2068H3126Q3200 2068 3250.5 2039.5Q3301 2011 3317 1949L3795 40Z" transform="translate(-3.6445,24.2344) scale(0.011719,-0.011719)"/>
  </g>
</svg>
