<svg xmlns="http://www.w3.org/2000/svg" viewBox="0 0 16.7695 15.3984" width="26.1370" height="24.0000">
  <g fill="black" stroke="black" stroke-width="0.25">
    <path d="M339 248H1404Q1487 248 1537.0 297.0Q1587 346 1587 428V1083Q1587 1164 1537.0 1213.0Q1487 1262 1404 1262H339Q256 1262 206.0 1213.0Q156 1164 156 1083V428Q156 346 206.0 297.0Q256 248 339 248ZM409 456Q392 456 381.5 466.5Q371 477 371 494V1015Q371 1033 381.5 1043.0Q392 1053 409 1053H1334Q1351 1053 1361.5 1043.0Q1372 1033 1372 1015V494Q1372 477 1361.5 466.5Q1351 456 1334 456ZM534 -52H1212Q1256 -52 1284.5 -23.5Q1313 5 1313 51Q1313 96 1284.5 124.5Q1256 153 1212 153H534Q489 153 460.5 124.5Q432 96 432 51Q432 5 460.5 -23.5Q489 -52 534 -52Z" transform="translate(-1.8281,14.7891) scale(0.011719,-0.011719)"/>
  </g>
</svg>
