<svg xmlns="http://www.w3.org/2000/svg" viewBox="0 0 33.1055 31.9922" width="24.8352" height="24.0000">
  <g fill="black" stroke="black" stroke-width="0.25">
    <path d="M311 1381V1635Q311 1757 361.5 1850.0Q412 1943 501.5 1995.0Q591 2047 709 2047H2382Q2603 2047 2723.0 1926.0Q2843 1805 2843 1584V377H2936Q3024 377 3080.0 322.0Q3136 267 3136 180V-208Q3136 -349 3078.0 -456.0Q3020 -563 2916.0 -623.0Q2812 -683 2676 -683H1172Q947 -683 831.0 -566.5Q715 -450 715 -224V1184H511Q423 1184 367.0 1239.0Q311 1294 311 1381ZM1107 -180Q1107 -228 1138.0 -259.0Q1169 -290 1217 -290Q1264 -290 1294.5 -259.5Q1325 -229 1325 -180V180Q1325 267 1381.0 322.0Q1437 377 1525 377H2451V1531Q2451 1592 2421.5 1623.5Q2392 1655 2326 1655H1107Q1107 1634 1107.0 1613.0Q1107 1592 1107 1571ZM658 1531H760V1635Q760 1667 746.0 1683.5Q732 1700 709 1700Q686 1700 672.0 1683.5Q658 1667 658 1635ZM1701 -290H2630Q2683 -290 2713.5 -256.5Q2744 -223 2744 -163V-15H1718V-163Q1718 -229 1701 -290ZM1405 791Q1367 791 1341.5 815.5Q1316 840 1316 876Q1316 914 1341.5 939.5Q1367 965 1405 965H1812Q1849 965 1874.0 939.5Q1899 914 1899 876Q1899 840 1874.0 815.5Q1849 791 1812 791ZM1405 1178Q1367 1178 1341.5 1204.0Q1316 1230 1316 1267Q1316 1303 1341.5 1328.0Q1367 1353 1405 1353H2154Q2192 1353 2217.0 1328.0Q2242 1303 2242 1267Q2242 1230 2217.0 1204.0Q2192 1178 2154 1178Z" transform="translate(-3.6445,23.9883) scale(0.011719,-0.011719)"/>
  </g>
</svg>
