<svg xmlns="http://www.w3.org/2000/svg" viewBox="0 0 36.7148 27.0703" width="32.5506" height="24.0000">
  <g fill="black" stroke="black" stroke-width="0.25">
    <path d="M775 -425Q553 -425 432.5 -304.5Q312 -184 312 37V1327Q312 1547 432.5 1667.5Q553 1788 775 1788H2809Q3031 1788 3151.5 1667.5Q3272 1547 3272 1327V607Q3230 621 3185.0 627.5Q3140 634 3093 634Q2983 634 2880 595V1271Q2880 1337 2848.5 1366.5Q2817 1396 2756 1396H828Q766 1396 735.0 1366.5Q704 1337 704 1271V92Q704 26 735.0 -3.0Q766 -32 828 -32H1513V-425ZM582 890V1204H3002V890ZM1843 -522Q1794 -522 1762.0 -490.0Q1730 -458 1730 -407V114H1725L1666 75Q1632 53 1599 53Q1554 53 1524.5 81.5Q1495 110 1495 154Q1495 214 1555 254L1731 371Q1786 407 1835 407Q1890 407 1924.5 373.5Q1959 340 1959 286V-407Q1959 -458 1927.0 -490.0Q1895 -522 1843 -522ZM2155 -508Q2106 -508 2074.5 -477.0Q2043 -446 2043 -398Q2043 -343 2095 -292L2352 -41Q2399 5 2423.5 33.0Q2448 61 2457.0 81.0Q2466 101 2466 124Q2466 153 2437.0 176.0Q2408 199 2370 199Q2337 199 2311.0 186.0Q2285 173 2270 148Q2266 143 2263.0 136.5Q2260 130 2257 123Q2242 81 2218.0 60.0Q2194 39 2153 39Q2108 39 2078.0 69.0Q2048 99 2048 146Q2048 163 2050.5 177.5Q2053 192 2058 207Q2088 299 2174.0 356.0Q2260 413 2370 413Q2462 413 2535.5 376.0Q2609 339 2652.0 275.5Q2695 212 2695 132Q2695 80 2677.0 32.5Q2659 -15 2618.5 -67.5Q2578 -120 2509 -186L2405 -286V-291H2610Q2656 -291 2687.0 -322.0Q2718 -353 2718 -401Q2718 -447 2687.0 -477.5Q2656 -508 2610 -508ZM3090 -522Q2984 -522 2903.0 -482.0Q2822 -442 2775 -366Q2763 -344 2756.5 -320.5Q2750 -297 2750 -275Q2750 -228 2781.5 -197.5Q2813 -167 2861 -167Q2899 -167 2924.0 -184.5Q2949 -202 2961 -231Q2977 -268 3010.5 -287.5Q3044 -307 3092 -307Q3147 -307 3178.0 -286.5Q3209 -266 3209 -230Q3209 -190 3176.5 -169.0Q3144 -148 3084 -148H3026Q2981 -148 2951.0 -118.5Q2921 -89 2921 -44Q2921 0 2951.0 29.5Q2981 59 3026 59H3083Q3130 59 3155.5 78.5Q3181 98 3181 132Q3181 165 3157.5 182.0Q3134 199 3086 199Q3047 199 3018.0 179.0Q2989 159 2973 124Q2961 94 2937.0 76.5Q2913 59 2874 59Q2828 59 2798.5 89.0Q2769 119 2769 164Q2769 187 2774.5 211.5Q2780 236 2791 257Q2830 330 2910.0 371.5Q2990 413 3090 413Q3229 413 3320.0 338.0Q3411 263 3411 149Q3411 60 3357.0 -4.0Q3303 -68 3209 -88V12Q3311 10 3378.0 -59.5Q3445 -129 3445 -230Q3445 -314 3399.0 -380.0Q3353 -446 3272.5 -484.0Q3192 -522 3090 -522Z" transform="translate(-3.6562,20.9531) scale(0.011719,-0.011719)"/>
  </g>
</svg>
