<svg xmlns="http://www.w3.org/2000/svg" viewBox="0 0 15.7031 15.7266" width="23.9642" height="24.0000">
  <g fill="black" stroke="black" stroke-width="0.25">
    <path d="M156 955Q156 912 184.5 882.0Q213 852 255 852Q296 852 326.5 882.0Q357 912 357 955V1073Q357 1111 376.5 1132.0Q396 1153 435 1153H558Q600 1153 630.0 1182.0Q660 1211 660 1253Q660 1295 630.0 1324.0Q600 1353 558 1353H435Q307 1353 231.5 1276.5Q156 1200 156 1073ZM1496 955V1073Q1496 1200 1420.5 1276.5Q1345 1353 1217 1353H1094Q1053 1353 1023.0 1324.0Q993 1295 993 1253Q993 1211 1023.0 1182.0Q1053 1153 1094 1153H1217Q1256 1153 1276.0 1132.0Q1296 1111 1296 1073V955Q1296 912 1326.0 882.0Q1356 852 1397 852Q1439 852 1467.5 882.0Q1496 912 1496 955ZM156 409V290Q156 163 231.5 87.0Q307 11 435 11H558Q600 11 630.0 39.5Q660 68 660 110Q660 152 630.0 181.5Q600 211 558 211H435Q396 211 376.5 231.5Q357 252 357 290V409Q357 451 326.5 481.5Q296 512 255 512Q213 512 184.5 481.5Q156 451 156 409ZM1496 409Q1496 451 1467.5 481.5Q1439 512 1397 512Q1356 512 1326.0 481.5Q1296 451 1296 409V290Q1296 252 1276.0 231.5Q1256 211 1217 211H1094Q1053 211 1023.0 181.5Q993 152 993 110Q993 68 1023.0 39.5Q1053 11 1094 11H1217Q1345 11 1420.5 87.0Q1496 163 1496 290Z" transform="translate(-1.8281,15.8555) scale(0.011719,-0.011719)"/>
  </g>
</svg>
