<svg xmlns="http://www.w3.org/2000/svg" viewBox="0 0 32.3051 40.2070" width="19.2833" height="24.0000">
  <g fill="black" stroke="black" stroke-width="0.25">
    <path d="M761 484Q575 484 473.0 586.0Q371 688 371 875V2009Q371 2197 471.5 2298.5Q572 2400 752 2400H2619Q2805 2400 2907.0 2298.5Q3009 2197 3009 2009V875Q3009 688 2908.5 586.0Q2808 484 2629 484ZM781 803H2599Q2647 803 2673.5 828.5Q2700 854 2700 903V1980Q2700 2030 2673.5 2056.0Q2647 2082 2599 2082H781Q733 2082 706.5 2056.0Q680 2030 680 1980V904Q680 854 706.5 828.5Q733 803 781 803ZM732 687 544 875 1257 1591 1449 1407ZM1690 1121Q1568 1121 1457 1220L521 2062L709 2249L1622 1426Q1654 1395 1690 1395Q1726 1395 1758 1426L2671 2249L2859 2062L1923 1220Q1865 1167 1810.0 1144.0Q1755 1121 1690 1121ZM2649 687 1931 1407 2123 1591 2837 875ZM1132 203Q1197 203 1239.5 158.5Q1282 114 1282 47Q1282 -66 1216.0 -177.0Q1150 -288 1025.5 -371.5Q901 -455 726 -486Q639 -505 588.5 -471.5Q538 -438 525 -388Q512 -336 539.0 -285.0Q566 -234 635 -222Q791 -201 879.0 -129.0Q967 -57 980 50Q985 118 1026.0 160.5Q1067 203 1132 203ZM890 -566Q912 -625 880.0 -656.5Q848 -688 777 -671L387 -574Q335 -561 318.0 -519.0Q301 -477 330 -432L539 -88Q574 -31 620.5 -28.0Q667 -25 691 -84ZM1690 203Q1747 203 1783.0 165.0Q1819 127 1819 68V-597Q1819 -650 1781.0 -688.0Q1743 -726 1690 -726Q1637 -726 1599.0 -688.0Q1561 -650 1561 -597V68Q1561 127 1597.0 165.0Q1633 203 1690 203ZM1975 -459Q2043 -459 2064.5 -508.5Q2086 -558 2045 -619L1777 -982Q1741 -1031 1690.0 -1031.0Q1639 -1031 1603 -982L1336 -619Q1294 -558 1315.5 -508.5Q1337 -459 1405 -459ZM2249 203Q2313 203 2354.5 160.5Q2396 118 2401 50Q2413 -57 2501.0 -129.0Q2589 -201 2746 -222Q2814 -234 2841.5 -285.0Q2869 -336 2855 -388Q2842 -438 2791.5 -471.5Q2741 -505 2654 -486Q2479 -455 2355.0 -371.5Q2231 -288 2164.5 -177.0Q2098 -66 2098 47Q2098 114 2140.5 158.5Q2183 203 2249 203ZM2491 -566 2689 -84Q2714 -25 2760.0 -28.0Q2806 -31 2841 -88L3051 -432Q3079 -477 3062.0 -519.0Q3045 -561 2993 -574L2604 -671Q2532 -688 2500.0 -656.5Q2468 -625 2491 -566Z" transform="translate(-3.6529,28.1250) scale(0.011719,-0.011719)"/>
  </g>
</svg>
