<svg xmlns="http://www.w3.org/2000/svg" viewBox="0 0 27.7969 27.8320" width="23.9697" height="24.0000">
  <g fill="black" stroke="black" stroke-width="0.25">
    <path d="M311 942V1191Q311 1351 358.0 1477.5Q405 1604 493 1691Q579 1778 705.5 1825.0Q832 1872 992 1872H2002Q2162 1872 2288.5 1825.0Q2415 1778 2501 1691Q2589 1604 2636.0 1477.5Q2683 1351 2683 1191V942ZM311 320V592H2683V320ZM381 -161Q360 -118 345.0 -69.5Q330 -21 322 33H2671Q2663 -21 2648.0 -69.5Q2633 -118 2613 -161ZM992 -503Q866 -503 759.5 -473.0Q653 -443 571 -386H2422Q2340 -443 2234.0 -473.0Q2128 -503 2002 -503Z" transform="translate(-3.6445,21.9375) scale(0.011719,-0.011719)"/>
  </g>
</svg>
