<svg xmlns="http://www.w3.org/2000/svg" viewBox="0 0 23.0625 34.8398" width="15.8870" height="24.0000">
  <g fill="black" stroke="black" stroke-width="0.25">
    <path d="M747 1374 1253 1799H1457L747 1203ZM747 901 1816 1799H2019L747 732ZM747 430 2041 1516V1346L747 260ZM747 -42 2041 1044V875L747 -212ZM814 -457 2041 573V403L1018 -457ZM1377 -457 2041 100V-69L1580 -457ZM411 -398V1770Q411 1890 463.5 1980.5Q516 2071 610.5 2121.5Q705 2172 830 2172H1984Q2102 2172 2191.0 2121.5Q2280 2071 2329.5 1980.0Q2379 1889 2379 1769V-397Q2379 -518 2329.5 -608.5Q2280 -699 2191.0 -750.0Q2102 -801 1984 -801H830Q705 -801 610.5 -750.0Q516 -699 463.5 -608.5Q411 -518 411 -398ZM803 -262Q803 -317 836.0 -348.0Q869 -379 924 -379H1867Q1921 -379 1954.0 -347.0Q1987 -315 1987 -260V1632Q1987 1687 1954.0 1719.0Q1921 1751 1867 1751H924Q869 1751 836.0 1720.0Q803 1689 803 1633Z" transform="translate(-4.8164,25.4531) scale(0.011719,-0.011719)"/>
  </g>
</svg>
