<svg xmlns="http://www.w3.org/2000/svg" viewBox="0 0 12.1758 15.4688" width="18.8909" height="24.0000">
  <g fill="black" stroke="black" stroke-width="0.25">
    <path d="M852 1059H926Q991 1059 1041.0 1040.0Q1091 1021 1124 987Q1195 919 1195 791V391Q1195 263 1124 192Q1091 159 1041.0 140.5Q991 122 926 122H425Q299 122 227 192Q156 266 156 391V791Q156 916 227 987Q261 1020 311.5 1039.5Q362 1059 425 1059H499V896H437Q369 896 344 871Q318 843 318 778V403Q318 339 344 311Q373 284 437 284H914Q978 284 1007 311Q1021 326 1027.0 346.5Q1033 367 1033 403V778Q1033 845 1006 872Q979 896 914 896H852ZM489 1121Q457 1121 436.5 1140.0Q416 1159 416 1190Q416 1223 441 1245L620 1416Q647 1442 675 1442Q704 1442 731 1416L910 1245Q922 1234 928.5 1220.5Q935 1207 935 1190Q935 1159 914.5 1140.0Q894 1121 862 1121Q826 1121 805 1144L785 1166L675 1289L566 1166L546 1144Q525 1121 489 1121ZM675 584Q643 584 620.5 606.0Q598 628 598 660V1159L618 1300Q621 1322 636.5 1336.5Q652 1351 675 1351Q699 1351 714.5 1336.5Q730 1322 733 1300L753 1159V660Q753 628 730.5 606.0Q708 584 675 584Z" transform="translate(-1.8281,16.8984) scale(0.011719,-0.011719)"/>
  </g>
</svg>
