<svg xmlns="http://www.w3.org/2000/svg" viewBox="0 0 13.2305 15.3817" width="20.6435" height="24.0000">
  <g fill="black" stroke="black" stroke-width="0.25">
    <path d="M156 568V1012Q156 1091 184.0 1136.5Q212 1182 286 1214Q305 1222 350.0 1237.5Q395 1253 448.0 1270.5Q501 1288 545.0 1302.0Q589 1316 605 1321Q662 1338 720.0 1339.0Q778 1340 833 1322Q850 1317 894.0 1302.5Q938 1288 991.5 1270.5Q1045 1253 1090.5 1237.5Q1136 1222 1155 1214Q1229 1183 1257.0 1137.0Q1285 1091 1285 1012V568Q1285 480 1257.0 412.0Q1229 344 1169.0 284.5Q1109 225 1012.0 166.5Q915 108 776 40Q749 26 719.0 26.5Q689 27 665 40Q527 110 430.0 168.5Q333 227 272.5 286.0Q212 345 184.0 412.5Q156 480 156 568Z" transform="translate(-1.8281,15.6920) scale(0.011719,-0.011719)"/>
  </g>
</svg>
