<svg xmlns="http://www.w3.org/2000/svg" viewBox="0 0 15.1875 16.0664" width="22.6871" height="24.0000">
  <g fill="black" stroke="black" stroke-width="0.25">
    <path d="M860 -2Q869 0 877.5 3.5Q886 7 894 10L1352 257Q1404 285 1428.0 321.5Q1452 358 1452 423V950Q1452 963 1450 975L860 653ZM747 -2V653L157 975Q156 968 156.0 962.5Q156 957 156 950V423Q156 358 179.5 321.5Q203 285 255 257L713 10Q722 7 730.0 3.5Q738 0 747 -2ZM804 755 1060 893 459 1222 252 1109Q238 1101 226.5 1094.0Q215 1087 206 1078ZM1185 960 1403 1078Q1393 1087 1381.0 1094.0Q1369 1101 1355 1109L937 1334Q871 1369 804 1369Q736 1369 671 1334L579 1286Z" transform="translate(-1.8281,16.0430) scale(0.011719,-0.011719)"/>
  </g>
</svg>
