<svg xmlns="http://www.w3.org/2000/svg" viewBox="0 0 55.9922 29.3493" width="45.7868" height="24.0000">
  <g fill="black" stroke="black" stroke-width="0.25">
    <path d="M936 -75Q835 -75 726.0 -45.0Q617 -15 522.5 59.0Q428 133 369.5 264.0Q311 395 311 597V1170Q311 1290 362.5 1375.0Q414 1460 498.0 1505.0Q582 1550 682.5 1550.0Q783 1550 882 1500Q954 1463 1015.0 1445.5Q1076 1428 1165 1428Q1261 1428 1347.5 1478.0Q1434 1528 1534 1654Q1702 1874 1909.0 1900.0Q2116 1926 2331 1801L3016 1401Q3068 1371 3095.5 1358.0Q3123 1345 3150.0 1342.5Q3177 1340 3227 1340Q3267 1340 3339.0 1347.5Q3411 1355 3496.0 1365.0Q3581 1375 3661.0 1383.0Q3741 1391 3797 1391Q3974 1391 4112.0 1314.0Q4250 1237 4329.0 1102.0Q4408 967 4408 792Q4408 741 4398 693H4065Q4085 739 4085 792Q4085 925 4010.0 992.0Q3935 1059 3794 1059Q3749 1059 3674.5 1051.5Q3600 1044 3515.0 1034.0Q3430 1024 3353.0 1016.5Q3276 1009 3227 1009Q3155 1009 3100.5 1016.5Q3046 1024 2988.5 1046.5Q2931 1069 2852 1115L2163 1515Q2076 1565 2016.5 1577.5Q1957 1590 1907.0 1560.0Q1857 1530 1796 1453Q1661 1276 1496.0 1186.5Q1331 1097 1165 1097Q1026 1097 918.0 1130.5Q810 1164 714 1212Q697 1220 681.0 1218.5Q665 1217 654.0 1205.5Q643 1194 643 1171V597Q643 450 678.5 377.5Q714 305 779.0 281.0Q844 257 934 257H1173V-75ZM866 389Q792 389 739.0 401.5Q686 414 636 441V648Q661 615 714.0 600.5Q767 586 866 586H1173V389ZM3013 1276 3697 877Q3750 846 3777.5 833.5Q3805 821 3832.0 818.0Q3859 815 3908 815Q3949 815 4021.0 823.0Q4093 831 4178.0 841.0Q4263 851 4343.0 858.5Q4423 866 4479 866Q4656 866 4794.0 789.0Q4932 712 5010.5 577.0Q5089 442 5089 268Q5089 86 4982.0 -70.5Q4875 -227 4662 -345Q4536 -415 4419.5 -464.0Q4303 -513 4182.0 -542.5Q4061 -572 3923.0 -586.0Q3785 -600 3616 -600H1617Q1516 -600 1407.0 -570.0Q1298 -540 1204.0 -465.5Q1110 -391 1051.5 -260.0Q993 -129 993 72V645Q993 765 1044.0 850.5Q1095 936 1179.5 981.0Q1264 1026 1364.5 1025.5Q1465 1025 1563 975Q1636 938 1697.0 920.5Q1758 903 1846 903Q1943 903 2029.5 953.0Q2116 1003 2216 1129Q2383 1349 2590.5 1375.0Q2798 1401 3013 1276ZM1325 114Q1352 86 1404.0 73.5Q1456 61 1548 61H3616Q3778 61 3889.0 76.0Q4000 91 4088.5 122.5Q4177 154 4273 206L4479 317Q4538 349 4564.5 383.0Q4591 417 4591 447Q4591 488 4555.5 511.0Q4520 534 4476 534Q4431 534 4356.0 526.5Q4281 519 4196.5 509.0Q4112 499 4035.0 491.5Q3958 484 3908 484Q3837 484 3782.0 491.5Q3727 499 3670.0 522.0Q3613 545 3533 591L2844 990Q2757 1040 2698.0 1052.5Q2639 1065 2588.5 1035.5Q2538 1006 2478 929Q2342 751 2177.0 661.5Q2012 572 1846 572Q1708 572 1600.0 606.0Q1492 640 1396 687Q1379 696 1362.5 694.0Q1346 692 1335.5 680.5Q1325 669 1325 647V134Q1325 129 1325.0 123.5Q1325 118 1325 114ZM1343 -97Q1371 -205 1442.0 -236.5Q1513 -268 1616 -268H3616Q3767 -268 3884.5 -257.5Q4002 -247 4101.5 -223.0Q4201 -199 4297.0 -158.0Q4393 -117 4502 -57Q4635 16 4695.5 93.5Q4756 171 4756 268Q4756 292 4753.5 314.5Q4751 337 4746 357Q4732 292 4678.0 233.5Q4624 175 4520 120L4351 29Q4244 -28 4140.0 -64.5Q4036 -101 3911.5 -118.0Q3787 -135 3616 -135H1548Q1427 -135 1343 -97ZM2920 1116 3079 983 2839 657Q2813 621 2769.0 618.5Q2725 616 2693 643Q2660 670 2657.0 712.5Q2654 755 2679 789ZM3214 973 3372 840 3132 513Q3104 475 3062.0 472.0Q3020 469 2983 499Q2950 525 2946.0 566.0Q2942 607 2969 643ZM3505 827 3662 696 3421 369Q3393 331 3350.5 328.0Q3308 325 3274 356Q3242 382 3238.5 423.0Q3235 464 3261 500Z" transform="translate(-3.6445,22.3181) scale(0.011719,-0.011719)"/>
  </g>
</svg>
