<svg xmlns="http://www.w3.org/2000/svg" viewBox="0 0 19.0078 9.2922" width="49.0934" height="24.0000">
  <g fill="black" stroke="black" stroke-width="0.25">
    <path d="M329 473 1211 474Q1315 474 1372.5 488.5Q1430 503 1490 535L1670 632Q1718 657 1733.5 696.0Q1749 735 1721 768Q1700 792 1672.5 809.5Q1645 827 1610.5 837.0Q1576 847 1537 847Q1507 847 1462.5 842.0Q1418 837 1375.5 831.5Q1333 826 1311 826Q1288 826 1278.0 827.5Q1268 829 1250 838L1138 689Q1128 674 1111.5 673.0Q1095 672 1083 684Q1070 694 1068.5 710.0Q1067 726 1077 740L1180 879L1139 903L1027 750Q1017 736 1000.0 735.0Q983 734 968 746Q956 755 954.5 772.0Q953 789 963 803L1067 944L1027 967L913 813Q904 799 886.0 798.0Q868 797 854 807Q843 818 842.0 835.0Q841 852 850 864L955 1007L938 1017Q871 1078 789.5 1058.0Q708 1038 648 959Q603 902 567.5 882.0Q532 862 493 862Q457 862 433.0 870.0Q409 878 381 893Q326 922 274.5 914.0Q223 906 190.0 868.0Q157 830 157 770V556Q157 552 156.5 548.0Q156 544 156 541Q184 510 226.0 491.5Q268 473 329 473ZM402 270H1194Q1285 270 1353.5 279.5Q1422 289 1482.5 310.5Q1543 332 1609 370Q1693 417 1735.0 478.0Q1777 539 1778 611Q1778 617 1778.0 622.0Q1778 627 1777 631Q1767 608 1746.0 588.5Q1725 569 1688 550L1523 459Q1453 422 1386.5 406.0Q1320 390 1211 390L329 392Q282 392 249.0 399.5Q216 407 167 437Q195 339 265.5 304.5Q336 270 402 270Z" transform="translate(-1.8281,12.4563) scale(0.011719,-0.011719)"/>
  </g>
</svg>
