<svg xmlns="http://www.w3.org/2000/svg" viewBox="0 0 35.5664 33.3536" width="25.5922" height="24.0000">
  <g fill="black" stroke="black" stroke-width="0.25">
    <path d="M311 748V1011Q311 1124 379.5 1194.5Q448 1265 564 1265H3092Q3207 1265 3276.5 1194.5Q3346 1124 3346 1011V748Q3346 635 3276.5 566.0Q3207 497 3092 497H564Q449 497 380.0 566.0Q311 635 311 748ZM653 944Q631 944 631 921V839Q631 817 653 817H3004Q3027 817 3027 839V921Q3027 944 3004 944ZM1185 -729Q1054 -729 966.0 -692.5Q878 -656 823.5 -596.0Q769 -536 739.5 -463.5Q710 -391 694 -317L495 631L808 696L996 -207Q1013 -287 1034.5 -330.0Q1056 -373 1100.0 -389.5Q1144 -406 1229 -406H2429Q2513 -406 2557.5 -389.5Q2602 -373 2623.5 -330.0Q2645 -287 2662 -207L2850 696L3163 631L2963 -317Q2948 -391 2918.0 -463.5Q2888 -536 2834.0 -596.0Q2780 -656 2692.0 -692.5Q2604 -729 2472 -729ZM1304 -324Q1258 -331 1225.5 -309.0Q1193 -287 1185 -245L1089 316Q1081 357 1106.5 388.0Q1132 419 1178 428Q1223 435 1256.5 413.0Q1290 391 1297 349L1392 -212Q1400 -253 1375.5 -284.0Q1351 -315 1304 -324ZM1655 -313Q1610 -316 1579.0 -290.0Q1548 -264 1545 -221L1513 327Q1510 371 1538.0 400.0Q1566 429 1611 431Q1658 435 1688.5 408.5Q1719 382 1721 339L1754 -211Q1756 -254 1728.5 -282.5Q1701 -311 1655 -313ZM2004 -313Q1958 -311 1930.5 -282.5Q1903 -254 1905 -211L1938 339Q1940 382 1970.5 408.5Q2001 435 2048 431Q2093 429 2121.0 400.0Q2149 371 2146 327L2114 -221Q2111 -264 2080.0 -290.0Q2049 -316 2004 -313ZM2353 -324Q2307 -315 2282.5 -284.0Q2258 -253 2265 -212L2360 349Q2368 391 2401.5 413.0Q2435 435 2479 428Q2526 419 2551.0 388.0Q2576 357 2569 316L2472 -245Q2464 -287 2431.0 -309.0Q2398 -331 2353 -324ZM711 1165 1229 2037Q1267 2101 1331.0 2113.5Q1395 2126 1451 2096Q1512 2065 1533.0 2002.0Q1554 1939 1516 1873L1109 1165ZM2548 1165 2141 1873Q2103 1939 2124.5 2002.0Q2146 2065 2207 2097Q2265 2125 2328.5 2112.0Q2392 2099 2428 2037L2947 1165Z" transform="translate(-3.6445,24.8107) scale(0.011719,-0.011719)"/>
  </g>
</svg>
