<svg xmlns="http://www.w3.org/2000/svg" viewBox="0 0 15.2930 13.3711" width="27.4496" height="24.0000">
  <g fill="black" stroke="black" stroke-width="0.25">
    <path d="M639 306Q563 306 519.0 346.5Q475 387 464 461L389 975H244Q208 975 182.0 1001.0Q156 1027 156 1064Q156 1102 182.0 1128.0Q208 1154 244 1154H425Q480 1154 509.5 1127.5Q539 1101 547 1054L554 1012H1371Q1416 1012 1438.5 989.5Q1461 967 1461 932Q1461 921 1458 903L1426 678Q1415 605 1375.0 565.0Q1335 525 1263 525H629L635 487Q637 474 644.5 467.5Q652 461 663 461H1240Q1273 461 1296.5 440.5Q1320 420 1320 384Q1320 348 1296.5 327.0Q1273 306 1240 306ZM676 13Q628 13 593.5 46.5Q559 80 559 129Q559 177 593.5 211.5Q628 246 676 246Q724 246 758.0 211.5Q792 177 792 129Q792 80 758.0 46.5Q724 13 676 13ZM1146 13Q1098 13 1063.5 46.5Q1029 80 1029 129Q1029 177 1063.5 211.5Q1098 246 1146 246Q1194 246 1228.0 211.5Q1262 177 1262 129Q1262 80 1228.0 46.5Q1194 13 1146 13Z" transform="translate(-1.8281,13.5234) scale(0.011719,-0.011719)"/>
  </g>
</svg>
