<svg xmlns="http://www.w3.org/2000/svg" viewBox="0 0 26.8477 35.0156" width="18.4016" height="24.0000">
  <g fill="black" stroke="black" stroke-width="0.25">
    <path d="M1874 2142Q2096 2142 2259.5 2048.0Q2423 1954 2512.5 1782.5Q2602 1611 2602 1378V-615Q2602 -682 2557.5 -728.5Q2513 -775 2444 -775Q2375 -775 2330.0 -729.0Q2285 -683 2285 -615V1378Q2285 1520 2236.5 1620.0Q2188 1720 2096.0 1772.5Q2004 1825 1874 1825H1485Q1426 1825 1400.0 1800.5Q1374 1776 1374 1721V1448H1057V1721Q1057 1913 1173.0 2027.5Q1289 2142 1485 2142ZM1215 1402Q1176 1402 1152.0 1378.0Q1128 1354 1128 1317V1047Q992 1019 895.5 950.0Q799 881 748.5 771.5Q698 662 698 510H410Q410 672 463.0 814.5Q516 957 613.0 1069.0Q710 1181 843 1251V1317Q843 1423 891.0 1506.5Q939 1590 1022.5 1638.0Q1106 1686 1215 1686Q1323 1686 1407.0 1638.0Q1491 1590 1538.5 1506.5Q1586 1423 1586 1317V1251Q1720 1181 1817.0 1069.0Q1914 957 1966.5 814.5Q2019 672 2019 510H1732Q1732 662 1681.0 771.5Q1630 881 1534.0 950.0Q1438 1019 1302 1047V1317Q1302 1354 1277.5 1378.0Q1253 1402 1215 1402ZM453 627H1977Q2035 627 2077.0 585.5Q2119 544 2119 485Q2119 426 2077.0 384.5Q2035 343 1977 343H453Q394 343 352.5 384.5Q311 426 311 485Q311 544 352.5 585.5Q394 627 453 627ZM778 -53Q727 -53 691.5 -17.5Q656 18 656 69Q656 119 691.5 154.5Q727 190 778 190Q828 190 864.0 154.5Q900 119 900 69Q900 18 864.0 -17.5Q828 -53 778 -53ZM778 -450Q727 -450 691.5 -414.0Q656 -378 656 -328Q656 -277 691.5 -241.5Q727 -206 778 -206Q828 -206 864.0 -241.5Q900 -277 900 -328Q900 -378 864.0 -414.0Q828 -450 778 -450ZM778 -846Q727 -846 691.5 -810.5Q656 -775 656 -724Q656 -674 691.5 -638.5Q727 -603 778 -603Q828 -603 864.0 -638.5Q900 -674 900 -724Q900 -775 864.0 -810.5Q828 -846 778 -846ZM1214 -53Q1164 -53 1128.5 -17.5Q1093 18 1093 69Q1093 119 1128.5 154.5Q1164 190 1214 190Q1265 190 1300.5 154.5Q1336 119 1336 69Q1336 18 1300.5 -17.5Q1265 -53 1214 -53ZM1214 -450Q1164 -450 1128.5 -414.0Q1093 -378 1093 -328Q1093 -277 1128.5 -241.5Q1164 -206 1214 -206Q1265 -206 1300.5 -241.5Q1336 -277 1336 -328Q1336 -378 1300.5 -414.0Q1265 -450 1214 -450ZM1214 -846Q1164 -846 1128.5 -810.5Q1093 -775 1093 -724Q1093 -674 1128.5 -638.5Q1164 -603 1214 -603Q1265 -603 1300.5 -638.5Q1336 -674 1336 -724Q1336 -775 1300.5 -810.5Q1265 -846 1214 -846ZM1651 -53Q1600 -53 1564.5 -17.5Q1529 18 1529 69Q1529 119 1564.5 154.5Q1600 190 1651 190Q1701 190 1737.0 154.5Q1773 119 1773 69Q1773 18 1737.0 -17.5Q1701 -53 1651 -53ZM1651 -450Q1600 -450 1564.5 -414.0Q1529 -378 1529 -328Q1529 -277 1564.5 -241.5Q1600 -206 1651 -206Q1701 -206 1737.0 -241.5Q1773 -277 1773 -328Q1773 -378 1737.0 -414.0Q1701 -450 1651 -450ZM1651 -846Q1600 -846 1564.5 -810.5Q1529 -775 1529 -724Q1529 -674 1564.5 -638.5Q1600 -603 1651 -603Q1701 -603 1737.0 -638.5Q1773 -674 1773 -724Q1773 -775 1737.0 -810.5Q1701 -846 1651 -846Z" transform="translate(-3.6445,25.1016) scale(0.011719,-0.011719)"/>
  </g>
</svg>
