<svg xmlns="http://www.w3.org/2000/svg" viewBox="0 0 17.5372 13.9453" width="30.1817" height="24.0000">
  <g fill="black" stroke="black" stroke-width="0.25">
    <path d="M1260 1198Q1260 1233 1281.5 1253.5Q1303 1274 1338 1274Q1371 1274 1393 1256L1626 1059Q1652 1036 1651.0 1002.0Q1650 968 1623 945L1396 754Q1370 730 1338 730Q1304 730 1282.0 752.5Q1260 775 1260 809ZM1364 907H1166Q1125 907 1096.0 892.0Q1067 877 1035 839L659 403Q597 334 537.0 305.5Q477 277 393 277H254Q211 277 183.5 303.0Q156 329 156 368Q156 407 184.0 433.5Q212 460 254 460H396Q434 460 461.0 474.5Q488 489 521 527L894 964Q956 1033 1016.0 1061.5Q1076 1090 1160 1090H1364Q1402 1090 1429.0 1063.0Q1456 1036 1456 998Q1456 960 1429.0 933.5Q1402 907 1364 907ZM1262 160V550Q1262 584 1284.0 606.0Q1306 628 1339 628Q1371 628 1398 605L1625 414Q1652 390 1652.5 356.5Q1653 323 1628 300L1395 103Q1372 84 1339 84Q1304 84 1283.0 105.0Q1262 126 1262 160ZM1366 452Q1404 452 1430.5 425.5Q1457 399 1457 360Q1457 322 1430.5 295.5Q1404 269 1366 269H1162Q1077 269 1017.5 297.5Q958 326 896 395L522 831Q489 870 462.5 884.5Q436 899 397 899H256Q214 899 186.0 925.5Q158 952 158 990Q158 1030 185.5 1056.0Q213 1082 256 1082H394Q478 1082 538.0 1053.5Q598 1025 660 956L1036 520Q1069 481 1097.5 466.5Q1126 452 1168 452Z" transform="translate(-1.8281,14.9297) scale(0.011719,-0.011719)"/>
  </g>
</svg>
