<svg xmlns="http://www.w3.org/2000/svg" viewBox="0 0 15.0000 8.2031" width="43.8857" height="24.0000">
  <g fill="black" stroke="black" stroke-width="0.25">
    <path d="M1436 693Q1436 596 1389.0 516.5Q1342 437 1263.0 390.0Q1184 343 1088 343Q988 343 905.5 397.5Q823 452 771 552L677 459Q658 440 632.5 440.0Q607 440 590 458L485 562L415 495Q396 478 371.5 476.5Q347 475 328 494L173 649Q156 666 156.0 688.0Q156 710 170 724L256 818Q278 842 313 842H771Q814 935 899.5 989.0Q985 1043 1088 1043Q1184 1043 1263.0 996.0Q1342 949 1389.0 869.5Q1436 790 1436 693ZM1256 694Q1256 735 1227.0 764.5Q1198 794 1155 794Q1114 794 1084.5 764.5Q1055 735 1055 694Q1055 652 1084.5 622.0Q1114 592 1155 592Q1198 592 1227.0 622.0Q1256 652 1256 694Z" transform="translate(-1.8281,12.2227) scale(0.011719,-0.011719)"/>
  </g>
</svg>
