<svg xmlns="http://www.w3.org/2000/svg" viewBox="0 0 48.6898 34.1953" width="34.1730" height="24.0000">
  <g fill="black" stroke="black" stroke-width="0.25">
    <path d="M450 -557Q392 -557 351.5 -513.0Q311 -469 311 -414Q311 -357 351.0 -314.5Q391 -272 450 -272H4252Q4310 -272 4350.0 -314.0Q4390 -356 4390 -414Q4390 -470 4350.0 -513.5Q4310 -557 4252 -557ZM371 -88Q337 -53 336.5 -7.0Q336 39 371 74L789 491Q823 525 870.0 525.0Q917 525 951 490Q985 455 985.5 409.0Q986 363 951 328L534 -89Q500 -123 452.5 -123.0Q405 -123 371 -88ZM789 -88 371 327Q336 361 336.0 408.5Q336 456 371 490Q406 524 452.5 524.0Q499 524 534 490L951 75Q986 41 986.0 -6.5Q986 -54 951 -88Q916 -122 869.5 -122.0Q823 -122 789 -88ZM1476 -1018Q1283 -1018 1173.0 -866.5Q1063 -715 1063 -456Q1063 -300 1110.5 -117.0Q1158 66 1243.0 262.0Q1328 458 1441.5 654.0Q1555 850 1688.0 1033.5Q1821 1217 1963.5 1374.0Q2106 1531 2249.0 1649.5Q2392 1768 2527.0 1834.0Q2662 1900 2778 1900Q2973 1900 3072.5 1779.0Q3172 1658 3160.5 1441.5Q3149 1225 3011 938L2563 11Q2536 -47 2490.0 -71.0Q2444 -95 2395.5 -89.5Q2347 -84 2310.5 -53.0Q2274 -22 2264.0 29.0Q2254 80 2286 146L2757 1128Q2822 1263 2841.5 1367.5Q2861 1472 2840.0 1531.5Q2819 1591 2763 1591Q2671 1591 2552.0 1512.0Q2433 1433 2301.0 1296.0Q2169 1159 2036.5 983.0Q1904 807 1784.5 612.0Q1665 417 1572.0 222.5Q1479 28 1425.0 -147.0Q1371 -322 1371 -456Q1371 -583 1399.5 -646.5Q1428 -710 1476 -710Q1547 -710 1601.0 -644.0Q1655 -578 1684.5 -453.5Q1714 -329 1714 -153Q1714 256 1595.0 474.5Q1476 693 1251 716Q1187 722 1144.5 765.0Q1102 808 1102 870Q1102 939 1151.5 984.0Q1201 1029 1275 1024Q1510 1008 1677.5 863.0Q1845 718 1934.0 460.5Q2023 203 2023 -153Q2023 -421 1957.5 -615.0Q1892 -809 1769.5 -913.5Q1647 -1018 1476 -1018ZM3136 -87Q3046 -87 3001.5 -39.0Q2957 9 2957 74Q2957 128 2986.5 186.0Q3016 244 3055.0 297.0Q3094 350 3123.5 389.5Q3153 429 3153 445Q3153 449 3151.0 451.0Q3149 453 3144 453Q3088 453 3055.5 483.0Q3023 513 3016.5 558.5Q3010 604 3030.0 650.0Q3050 696 3098.5 728.5Q3147 761 3226 764Q3322 771 3385.0 722.0Q3448 673 3448 588Q3448 554 3436.0 518.0Q3424 482 3408.5 450.0Q3393 418 3380.5 394.5Q3368 371 3368 362Q3368 354 3375 354Q3383 354 3406.0 368.5Q3429 383 3460.5 404.5Q3492 426 3524 448Q3686 555 3791.0 616.5Q3896 678 3968.5 704.5Q4041 731 4106 731Q4229 732 4275.0 649.5Q4321 567 4291 412Q4281 360 4280.0 335.0Q4279 310 4288.5 299.5Q4298 289 4318 281Q4378 255 4397.0 207.0Q4416 159 4399.5 110.0Q4383 61 4334.0 29.0Q4285 -3 4209 4Q4138 8 4083.0 46.5Q4028 85 3997.0 153.0Q3966 221 3970 313Q3971 328 3969.0 333.5Q3967 339 3963 339Q3955 339 3919.5 318.0Q3884 297 3834.0 264.5Q3784 232 3731.5 197.5Q3679 163 3637 136Q3528 68 3439.0 18.0Q3350 -32 3276.0 -59.5Q3202 -87 3136 -87ZM4255 1411Q4311 1433 4356.5 1417.5Q4402 1402 4431.0 1363.5Q4460 1325 4465.0 1277.5Q4470 1230 4446.0 1187.0Q4422 1144 4361 1121Q4199 1058 4047.5 989.5Q3896 921 3756 844Q3700 814 3652.0 823.5Q3604 833 3571.5 867.5Q3539 902 3527.0 947.5Q3515 993 3530.5 1037.0Q3546 1081 3596 1107Q3757 1193 3926.0 1271.0Q4095 1349 4255 1411Z" transform="translate(-3.6445,22.2656) scale(0.011719,-0.011719)"/>
  </g>
</svg>
