<svg xmlns="http://www.w3.org/2000/svg" viewBox="0 0 36.7512 32.5502" width="27.0975" height="24.0000">
  <g fill="black" stroke="black" stroke-width="0.25">
    <path d="M1715 -542Q1556 -701 1369.0 -697.0Q1182 -693 1015 -526L450 37Q284 204 280.0 391.5Q276 579 435 738L1662 1964Q1779 2082 1919.5 2080.5Q2060 2079 2178 1961L2937 1201Q3042 1097 3055.0 974.0Q3068 851 2988 742L2985 738Q2929 798 2855.5 829.0Q2782 860 2703 860Q2650 860 2599.5 845.5Q2549 831 2505 802L2608 905Q2623 922 2623.0 941.0Q2623 960 2608 975L1953 1631Q1937 1647 1917.5 1647.0Q1898 1647 1883 1630L731 480Q691 439 694.5 391.5Q698 344 744 299L1276 -233Q1321 -278 1369.0 -282.0Q1417 -286 1456 -245L2358 657L1868 -219Q1837 -275 1823.0 -330.0Q1809 -385 1809 -446ZM765 748 996 978 1956 19 1724 -212ZM2181 -672Q2096 -672 2042.5 -613.5Q1989 -555 1989 -478Q1989 -428 2016 -384L2536 551Q2564 602 2609.0 627.0Q2654 652 2703 652Q2753 652 2797.0 627.5Q2841 603 2870 551L3391 -384Q3416 -427 3416 -478Q3416 -555 3362.5 -613.5Q3309 -672 3224 -672ZM2702 -493Q2761 -493 2799.0 -457.0Q2837 -421 2837 -366Q2837 -312 2798.0 -277.0Q2759 -242 2702 -242Q2645 -242 2607.0 -276.5Q2569 -311 2569 -366Q2569 -421 2607.0 -457.0Q2645 -493 2702 -493ZM2702 -172Q2749 -172 2779.5 -143.5Q2810 -115 2812 -71L2823 232Q2825 285 2790.5 317.5Q2756 350 2702 350Q2649 350 2614.5 317.0Q2580 284 2582 232L2593 -71Q2595 -115 2625.5 -143.5Q2656 -172 2702 -172Z" transform="translate(-3.2801,24.3811) scale(0.011719,-0.011719)"/>
  </g>
</svg>
