<svg xmlns="http://www.w3.org/2000/svg" viewBox="0 0 14.0273 16.0430" width="20.9847" height="24.0000">
  <g fill="black" stroke="black" stroke-width="0.25">
    <path d="M564 811Q521 811 495.0 837.0Q469 863 469 906V1132Q469 1176 495.0 1202.0Q521 1228 565 1228H669V1295Q669 1331 694.5 1356.5Q720 1382 756 1382Q792 1382 818.0 1356.5Q844 1331 844 1295V1228H1121Q1170 1228 1202 1197L1318 1082Q1353 1049 1353.0 1018.5Q1353 988 1320 956L1202 842Q1185 826 1165.5 818.5Q1146 811 1121 811H844V734H944Q988 734 1014.0 708.0Q1040 682 1040 638V413Q1040 370 1014.0 343.5Q988 317 944 317H844V187H971Q1008 187 1033.5 161.0Q1059 135 1059 99Q1059 63 1033.0 38.0Q1007 13 971 13H541Q505 13 480.0 38.0Q455 63 455 99Q455 136 480.0 161.5Q505 187 541 187H669V317H388Q339 317 307 348L190 462Q156 495 156.0 525.5Q156 556 190 589L307 703Q324 720 343.5 727.0Q363 734 388 734H669V811Z" transform="translate(-1.8281,16.1953) scale(0.011719,-0.011719)"/>
  </g>
</svg>
