<svg xmlns="http://www.w3.org/2000/svg" viewBox="0 0 13.4766 14.4961" width="22.3120" height="24.0000">
  <g fill="black" stroke="black" stroke-width="0.25">
    <path d="M1160 529H880V240H1006Q1042 240 1068.5 214.5Q1095 189 1095 152Q1095 116 1068.5 90.5Q1042 65 1006 65H576Q540 65 514.5 90.5Q489 116 489 152Q489 189 514.5 214.5Q540 240 576 240H705V529H469Q430 529 403.5 541.0Q377 553 349 580L211 713Q156 767 156.0 821.0Q156 875 211 928L349 1062Q377 1089 403.5 1100.5Q430 1112 469 1112H705V1214Q705 1251 730.0 1276.5Q755 1302 791 1302Q828 1302 854.0 1276.5Q880 1251 880 1214V1112H1160Q1229 1112 1267.5 1074.0Q1306 1036 1306 967V674Q1306 606 1267.5 567.5Q1229 529 1160 529Z" transform="translate(-1.8281,15.2578) scale(0.011719,-0.011719)"/>
  </g>
</svg>
