<svg xmlns="http://www.w3.org/2000/svg" viewBox="0 0 34.6523 30.1055" width="27.6248" height="24.0000">
  <g fill="black" stroke="black" stroke-width="0.25">
    <path d="M311 -216Q311 -49 416.5 58.5Q522 166 726 211L920 254Q944 259 944 297V1196Q944 1257 988.0 1300.5Q1032 1344 1094 1344Q1155 1344 1198.5 1300.5Q1242 1257 1242 1196V-44Q1242 -194 1190.0 -300.0Q1138 -406 1057.5 -472.5Q977 -539 888.5 -570.0Q800 -601 726 -601Q606 -601 512.0 -551.5Q418 -502 364.5 -415.0Q311 -328 311 -216ZM1433 408Q1433 574 1538.5 681.5Q1644 789 1847 834L2042 877Q2065 882 2065 920V1819Q2065 1880 2109.5 1924.0Q2154 1968 2216 1968Q2277 1968 2320.5 1924.0Q2364 1880 2364 1819V579Q2364 429 2312.0 323.0Q2260 217 2179.5 150.5Q2099 84 2010.0 53.0Q1921 22 1848 22Q1728 22 1634.0 72.0Q1540 122 1486.5 209.0Q1433 296 1433 408ZM2337 -216Q2337 -49 2442.0 58.5Q2547 166 2751 211L2946 254Q2969 259 2969 297V1196Q2969 1257 3013.5 1300.5Q3058 1344 3119 1344Q3180 1344 3224.0 1300.5Q3268 1257 3268 1196V-44Q3268 -194 3216.0 -300.0Q3164 -406 3083.0 -472.5Q3002 -539 2913.5 -570.0Q2825 -601 2751 -601Q2631 -601 2537.5 -551.5Q2444 -502 2390.5 -415.0Q2337 -328 2337 -216Z" transform="translate(-3.6445,23.0625) scale(0.011719,-0.011719)"/>
  </g>
</svg>
