<svg xmlns="http://www.w3.org/2000/svg" viewBox="0 0 37.0781 32.9531" width="27.0043" height="24.0000">
  <g fill="black" stroke="black" stroke-width="0.25">
    <path d="M1708 526V1663Q1708 1790 1768.0 1886.0Q1828 1982 1929.5 2036.0Q2031 2090 2157 2090Q2283 2090 2385.0 2036.0Q2487 1982 2546.5 1886.0Q2606 1790 2606 1663V1436Q2606 1359 2552.0 1305.0Q2498 1251 2421 1251Q2345 1251 2291.0 1305.0Q2237 1359 2237 1436V1648Q2237 1681 2214.0 1704.0Q2191 1727 2157 1727Q2123 1727 2100.5 1704.5Q2078 1682 2078 1648V526ZM1229 526V767Q1229 783 1213 783H992Q925 783 877.5 830.5Q830 878 830 944Q830 1011 877.5 1058.5Q925 1106 992 1106H1390Q1460 1106 1506.0 1060.0Q1552 1014 1552 944V526ZM2234 526V944Q2234 1014 2280.0 1060.0Q2326 1106 2396 1106H2795Q2861 1106 2908.5 1058.5Q2956 1011 2956 944Q2956 878 2908.5 830.5Q2861 783 2795 783H2573Q2557 783 2557 767V526ZM496 291Q420 291 365.5 345.0Q311 399 311 475Q311 551 365.5 605.5Q420 660 496 660H3290Q3366 660 3420.5 605.5Q3475 551 3475 475Q3475 399 3420.5 345.0Q3366 291 3290 291ZM1205 -722Q999 -722 849.5 -646.0Q700 -570 619.5 -429.0Q539 -288 539 -92V503H908V-92Q908 -236 973.0 -294.5Q1038 -353 1205 -353H2581Q2748 -353 2813.0 -294.5Q2878 -236 2878 -92V503H3247V-92Q3247 -288 3166.5 -429.0Q3086 -570 2936.5 -646.0Q2787 -722 2581 -722Z" transform="translate(-3.6445,24.4922) scale(0.011719,-0.011719)"/>
  </g>
</svg>
