<svg xmlns="http://www.w3.org/2000/svg" viewBox="0 0 29.0889 29.1496" width="23.9501" height="24.0000">
  <g fill="black" stroke="black" stroke-width="0.25">
    <path d="M2070 473Q2126 416 2136.5 348.5Q2147 281 2117.5 220.5Q2088 160 2024.5 121.0Q1961 82 1869 82H1861L312 1630V1654Q312 1741 353.0 1800.0Q394 1859 458.5 1884.0Q523 1909 594.5 1893.5Q666 1878 726 1816ZM312 809 1120 1 736 -383Q669 -450 595.0 -469.0Q521 -488 456.5 -467.0Q392 -446 352.0 -391.0Q312 -336 312 -254ZM-312 1684Q-343 1716 -343.0 1763.0Q-343 1810 -312 1841Q-279 1874 -232.5 1874.0Q-186 1874 -153 1841L2089 -398Q2122 -431 2121.5 -477.0Q2121 -523 2089 -555Q2058 -588 2011.5 -588.0Q1965 -588 1932 -555Z" transform="translate(4.0195,22.2590) scale(0.011719,-0.011719)"/>
  </g>
</svg>
