<svg xmlns="http://www.w3.org/2000/svg" viewBox="0 0 40.1367 25.6172" width="37.6029" height="24.0000">
  <g fill="black" stroke="black" stroke-width="0.25">
    <path d="M1962 -413Q1703 -413 1475.5 -350.5Q1248 -288 1057.5 -186.0Q867 -84 717.5 39.0Q568 162 463.5 285.5Q359 409 304.5 513.0Q250 617 250 681Q250 744 304.5 848.0Q359 952 463.5 1075.0Q568 1198 717.5 1321.0Q867 1444 1057.5 1546.0Q1248 1648 1475.5 1710.5Q1703 1773 1962 1773Q2226 1773 2455.0 1710.5Q2684 1648 2874.5 1546.0Q3065 1444 3213.5 1321.0Q3362 1198 3465.0 1075.0Q3568 952 3621.5 848.0Q3675 744 3675 681Q3675 617 3621.5 513.0Q3568 409 3465.0 285.5Q3362 162 3213.5 39.0Q3065 -84 2874.5 -186.0Q2684 -288 2455.0 -350.5Q2226 -413 1962 -413ZM1962 -31Q2136 -31 2293.0 10.0Q2450 51 2585.5 117.5Q2721 184 2830.0 264.0Q2939 344 3016.5 424.5Q3094 505 3135.0 572.5Q3176 640 3176 681Q3176 713 3135.0 777.5Q3094 842 3016.5 922.5Q2939 1003 2830.0 1085.0Q2721 1167 2585.5 1236.5Q2450 1306 2293.0 1348.5Q2136 1391 1962 1391Q1788 1391 1630.5 1348.5Q1473 1306 1338.0 1236.5Q1203 1167 1094.0 1085.0Q985 1003 908.0 922.5Q831 842 789.5 777.5Q748 713 748 681Q748 640 789.5 572.5Q831 505 908.0 424.5Q985 344 1094.0 264.0Q1203 184 1338.0 117.5Q1473 51 1630.5 10.0Q1788 -31 1962 -31ZM1963 111Q1845 111 1741.0 156.0Q1637 201 1558.5 280.0Q1480 359 1436.0 462.5Q1392 566 1392 683Q1392 743 1404 796L1831 782Q1815 760 1806.0 735.0Q1797 710 1797 681Q1797 613 1845.0 563.5Q1893 514 1961 514Q2031 514 2079.5 563.5Q2128 613 2128 681Q2128 713 2116.5 742.0Q2105 771 2085 793L2517 816Q2525 784 2529.0 750.5Q2533 717 2533 683Q2533 566 2489.0 462.5Q2445 359 2367.0 280.0Q2289 201 2185.5 156.0Q2082 111 1963 111ZM600 618V971Q817 1004 1033.5 1033.5Q1250 1063 1479.0 1081.5Q1708 1100 1963 1100Q2219 1100 2449.5 1081.0Q2680 1062 2898.0 1032.5Q3116 1003 3333 970V617Q2996 664 2646.0 684.0Q2296 704 1963 704Q1632 704 1284.0 684.0Q936 664 600 618Z" transform="translate(-2.9297,20.7773) scale(0.011719,-0.011719)"/>
  </g>
</svg>
