<svg xmlns="http://www.w3.org/2000/svg" viewBox="0 0 32.2617 36.1641" width="21.4102" height="24.0000">
  <g fill="black" stroke="black" stroke-width="0.25">
    <path d="M1479 -764Q1274 -764 1088.5 -701.5Q903 -639 748.0 -525.5Q593 -412 479.5 -257.0Q366 -102 303.0 83.5Q240 269 240 475Q240 663 293.0 836.5Q346 1010 443.0 1158.5Q540 1307 675.0 1422.5Q810 1538 974 1611Q1054 1646 1112.0 1627.5Q1170 1609 1190.5 1554.5Q1211 1500 1177 1425Q1139 1342 1115.5 1236.5Q1092 1131 1092 1040Q1092 734 1203.5 521.0Q1315 308 1528.0 196.5Q1741 85 2047 85Q2139 85 2243.5 107.0Q2348 129 2431 167Q2497 197 2551.5 179.5Q2606 162 2626.0 106.5Q2646 51 2608 -34Q2510 -251 2339.5 -415.5Q2169 -580 1948.5 -672.0Q1728 -764 1479 -764ZM1479 -413Q1570 -413 1654.5 -395.0Q1739 -377 1816.0 -343.0Q1893 -309 1960 -262Q1947 -262 1933.5 -261.0Q1920 -260 1907 -259Q1567 -234 1315.0 -86.0Q1063 62 917.0 315.5Q771 569 747 911Q746 924 746.0 933.0Q746 942 746 955Q709 905 680.5 848.5Q652 792 632.0 731.0Q612 670 601.5 605.5Q591 541 591 475Q591 291 660.0 130.0Q729 -31 851.0 -153.0Q973 -275 1134.0 -344.0Q1295 -413 1479 -413ZM2266 1750Q2316 1750 2345.0 1724.5Q2374 1699 2374 1654Q2374 1610 2344.0 1584.0Q2314 1558 2266 1558H1838Q1791 1558 1761.5 1586.0Q1732 1614 1732 1659Q1732 1687 1742.0 1711.5Q1752 1736 1776 1766L2069 2122V2129H1826Q1777 2129 1747.0 2155.0Q1717 2181 1717 2226Q1717 2270 1746.5 2296.0Q1776 2322 1826 2322H2246Q2294 2322 2324.0 2294.0Q2354 2266 2354 2221Q2354 2191 2344.0 2168.0Q2334 2145 2309 2115L2014 1756V1750ZM2891 1245Q2938 1245 2965.5 1222.0Q2993 1199 2993 1159Q2993 1119 2965.0 1096.5Q2937 1074 2891 1074H2589Q2545 1074 2517.5 1100.0Q2490 1126 2490 1168Q2490 1197 2501.5 1223.0Q2513 1249 2538 1277L2714 1481V1487H2577Q2531 1487 2503.0 1510.5Q2475 1534 2475 1574Q2475 1615 2502.5 1638.0Q2530 1661 2577 1661H2872Q2916 1661 2944.5 1634.5Q2973 1608 2973 1565Q2973 1536 2963.0 1512.5Q2953 1489 2929 1463L2746 1251V1245ZM2304 806Q2347 806 2371.5 784.5Q2396 763 2396 725Q2396 688 2370.5 666.0Q2345 644 2304 644H2015Q1974 644 1949.0 667.5Q1924 691 1925 728Q1926 756 1935.5 778.5Q1945 801 1970 828L2125 1005V1011H2004Q1963 1011 1938.0 1032.5Q1913 1054 1913 1092Q1913 1130 1937.5 1152.0Q1962 1174 2004 1174H2286Q2326 1174 2351.5 1150.0Q2377 1126 2377 1088Q2377 1062 2368.5 1040.5Q2360 1019 2339 995L2177 811V806Z" transform="translate(-2.8125,27.2109) scale(0.011719,-0.011719)"/>
  </g>
</svg>
