<svg xmlns="http://www.w3.org/2000/svg" viewBox="0 0 30.9023 30.9023" width="24.0000" height="24.0000">
  <g fill="black" stroke="black" stroke-width="0.25">
    <path d="M1537 -635Q1319 -635 1121.0 -568.5Q923 -502 758.5 -381.0Q594 -260 473.0 -95.0Q352 70 285.5 267.5Q219 465 219 683Q219 902 285.5 1099.5Q352 1297 473.0 1462.0Q594 1627 758.5 1748.0Q923 1869 1121.0 1935.5Q1319 2002 1537 2002Q1755 2002 1953.0 1935.5Q2151 1869 2315.5 1748.0Q2480 1627 2601.0 1462.0Q2722 1297 2789.0 1099.5Q2856 902 2856 683Q2856 465 2789.0 267.5Q2722 70 2601.0 -95.0Q2480 -260 2315.5 -381.0Q2151 -502 1953.0 -568.5Q1755 -635 1537 -635ZM1537 -239Q1728 -239 1895.5 -167.5Q2063 -96 2189.5 31.0Q2316 158 2388.0 325.0Q2460 492 2460 683Q2460 875 2388.0 1042.0Q2316 1209 2189.5 1336.0Q2063 1463 1895.5 1534.5Q1728 1606 1537 1606Q1346 1606 1178.5 1534.5Q1011 1463 884.5 1336.0Q758 1209 686.0 1042.0Q614 875 614 683Q614 492 686.0 325.0Q758 158 884.5 31.0Q1011 -96 1178.5 -167.5Q1346 -239 1537 -239ZM1537 118Q1439 118 1359.0 145.0Q1279 172 1221.5 213.5Q1164 255 1133.0 298.0Q1102 341 1102 373Q1102 398 1122.5 408.5Q1143 419 1167 408Q1235 375 1319.0 343.5Q1403 312 1537 312Q1671 312 1754.0 344.5Q1837 377 1907 408Q1931 418 1951.5 408.0Q1972 398 1972 373Q1972 341 1941.0 298.0Q1910 255 1852.5 213.5Q1795 172 1715.0 145.0Q1635 118 1537 118ZM1183 797Q1126 797 1085.0 842.0Q1044 887 1044 958Q1044 1029 1085.0 1074.5Q1126 1120 1183 1120Q1240 1120 1282.5 1074.5Q1325 1029 1325 958Q1325 887 1282.5 842.0Q1240 797 1183 797ZM1890 797Q1833 797 1791.5 842.0Q1750 887 1750 958Q1750 1029 1791.5 1074.5Q1833 1120 1890 1120Q1946 1120 1989.0 1074.5Q2032 1029 2032 958Q2032 887 1989.0 842.0Q1946 797 1890 797Z" transform="translate(-2.5664,23.4609) scale(0.011719,-0.011719)"/>
  </g>
</svg>
