<svg xmlns="http://www.w3.org/2000/svg" viewBox="0 0 17.8008 13.3945" width="31.8950" height="24.0000">
  <g fill="black" stroke="black" stroke-width="0.25">
    <path d="M641 170H1374Q1507 170 1591.0 252.0Q1675 334 1675 457Q1675 552 1620.0 627.0Q1565 702 1477 731Q1464 808 1418.5 870.0Q1373 932 1305.0 968.0Q1237 1004 1158 1004Q1084 1004 1019.5 972.0Q955 940 912 882Q897 884 881.5 886.0Q866 888 851 888Q761 888 687.5 833.5Q614 779 589 693Q525 683 475.0 646.0Q425 609 396.0 554.5Q367 500 367 436Q367 322 444.0 246.0Q521 170 641 170ZM156 767Q156 699 183.5 637.5Q211 576 279 524Q300 613 363.0 680.5Q426 748 513 779Q559 872 651.0 930.0Q743 988 851 988Q859 988 871 987Q940 1056 1027.5 1081.5Q1115 1107 1194 1101Q1170 1147 1116.0 1175.5Q1062 1204 996 1204Q977 1204 958.5 1201.0Q940 1198 921 1193Q874 1254 811.0 1283.5Q748 1313 674 1313Q594 1313 526.0 1277.0Q458 1241 412.5 1179.5Q367 1118 355 1041Q266 1013 211.0 937.0Q156 861 156 767Z" transform="translate(-1.8281,15.3867) scale(0.011719,-0.011719)"/>
  </g>
</svg>
