<svg xmlns="http://www.w3.org/2000/svg" viewBox="0 0 15.8217 17.9180" width="21.1921" height="24.0000">
  <g fill="black" stroke="black" stroke-width="0.25">
    <path d="M830 -81Q869 -81 894.0 -55.5Q919 -30 919 12V110L991 69Q1022 51 1051.0 58.0Q1080 65 1097 94Q1113 122 1104.5 151.5Q1096 181 1064 198L919 282V355L903 555L1069 441L1133 404V238Q1133 201 1154.5 179.0Q1176 157 1209 159Q1241 157 1262.0 179.0Q1283 201 1282 238L1283 319L1366 270Q1403 249 1438.0 258.5Q1473 268 1493 302Q1512 334 1502.0 369.5Q1492 405 1456 425L1372 473L1443 515Q1474 532 1482.5 561.0Q1491 590 1475 619Q1459 647 1428.5 654.0Q1398 661 1367 643L1223 560L1159 597L978 683L1159 770L1224 807L1367 725Q1398 706 1428.5 713.5Q1459 721 1475 749Q1491 778 1482.5 806.5Q1474 835 1443 853L1372 893L1456 942Q1492 962 1502.0 997.5Q1512 1033 1493 1066Q1473 1099 1438.0 1108.5Q1403 1118 1366 1097L1283 1048L1282 1130Q1283 1167 1262.0 1188.5Q1241 1210 1209 1209Q1176 1210 1154.5 1188.5Q1133 1167 1133 1130V962L1069 926L903 811L919 1011V1085L1064 1169Q1096 1187 1104.5 1216.0Q1113 1245 1097 1274Q1080 1303 1051.0 1309.5Q1022 1316 991 1299L919 1258V1355Q919 1397 894.0 1422.5Q869 1448 830 1448Q791 1448 766.0 1422.5Q741 1397 741 1355V1258L670 1299Q639 1316 609.5 1309.5Q580 1303 564 1274Q548 1245 556.5 1216.0Q565 1187 596 1169L741 1085V1011L757 811L591 926L528 962V1130Q528 1167 506.5 1188.5Q485 1210 452 1209Q419 1210 398.5 1188.5Q378 1167 378 1130V1048L295 1097Q257 1118 222.5 1108.5Q188 1099 168 1066Q149 1033 158.5 997.5Q168 962 205 942L288 893L218 853Q187 835 178.0 806.5Q169 778 185 749Q202 721 232.5 713.5Q263 706 294 725L436 807L501 770L682 683L501 597L437 560L294 642Q263 661 232.5 654.0Q202 647 185 618Q169 590 178.0 561.0Q187 532 218 515L288 473L205 425Q168 405 158.5 369.5Q149 334 168 302Q188 268 222.5 258.5Q257 249 295 270L378 319V237Q378 200 398.5 178.5Q419 157 452 158Q485 157 506.5 179.0Q528 201 528 238V404L591 441L757 555L741 355V282L596 198Q565 181 556.5 151.5Q548 122 564 94Q580 65 609.5 58.0Q639 51 670 69L741 110V12Q741 -30 766.0 -55.5Q791 -81 830 -81Z" transform="translate(-1.8203,16.9688) scale(0.011719,-0.011719)"/>
  </g>
</svg>
