<svg xmlns="http://www.w3.org/2000/svg" viewBox="0 0 33.8922 31.9688" width="25.4440" height="24.0000">
  <g fill="black" stroke="black" stroke-width="0.25">
    <path d="M2242 1446Q2159 1446 2090.5 1487.0Q2022 1528 1981.5 1596.0Q1941 1664 1941 1747Q1941 1830 1981.5 1898.5Q2022 1967 2090.5 2007.5Q2159 2048 2242 2048Q2324 2048 2392.5 2007.5Q2461 1967 2501.5 1898.5Q2542 1830 2542 1747Q2542 1664 2501.5 1596.0Q2461 1528 2392.5 1487.0Q2324 1446 2242 1446ZM1201 -289Q1144 -253 1129.5 -189.5Q1115 -126 1150 -69L1369 281Q1262 302 1187.5 366.0Q1113 430 1077.5 519.5Q1042 609 1051.5 707.0Q1061 805 1121 895L1409 1325Q1417 1338 1413.5 1351.5Q1410 1365 1395 1373L1173 1507H679Q613 1507 567.0 1553.0Q521 1599 521 1664Q521 1729 567.0 1774.0Q613 1819 679 1819H1207Q1263 1819 1306 1793L2980 789Q3037 755 3051.5 692.0Q3066 629 3034 572Q3004 517 2939.0 501.5Q2874 486 2820 519L1977 1026Q1964 1034 1950.5 1031.0Q1937 1028 1929 1016L1700 674Q1685 651 1693.5 629.0Q1702 607 1731 604L2292 542Q2362 535 2402.0 494.5Q2442 454 2447.5 399.0Q2453 344 2422 293L2090 -237Q2055 -293 1993.0 -307.0Q1931 -321 1875 -289Q1818 -257 1803.0 -191.5Q1788 -126 1824 -69L2019 241L1727 257L1418 -239Q1384 -292 1319.5 -306.5Q1255 -321 1201 -289ZM733 -680Q622 -680 526.0 -653.0Q430 -626 356 -561Q309 -521 311.5 -473.0Q314 -425 343 -393Q371 -366 413.5 -360.5Q456 -355 498 -388Q546 -425 597.0 -441.0Q648 -457 733 -457H2782Q2867 -457 2918.0 -441.0Q2969 -425 3017 -388Q3062 -352 3108.5 -361.5Q3155 -371 3180 -404Q3203 -437 3203.5 -480.5Q3204 -524 3158 -561Q3085 -626 2989.0 -653.0Q2893 -680 2782 -680Z" transform="translate(-3.6489,24.0000) scale(0.011719,-0.011719)"/>
  </g>
</svg>
