<svg xmlns="http://www.w3.org/2000/svg" viewBox="0 0 14.3086 14.3086" width="24.0000" height="24.0000">
  <g fill="black" stroke="black" stroke-width="0.25">
    <path d="M767 72Q640 72 529.5 119.0Q419 166 335.0 250.0Q251 334 203.5 445.0Q156 556 156 682Q156 809 203.5 919.5Q251 1030 335.0 1114.0Q419 1198 529.5 1245.5Q640 1293 767 1293Q893 1293 1003.5 1245.5Q1114 1198 1198.0 1114.0Q1282 1030 1329.5 919.5Q1377 809 1377 682Q1377 556 1329.5 445.0Q1282 334 1198.0 250.0Q1114 166 1003.5 119.0Q893 72 767 72ZM369 421 503 423 603 553 567 664 385 738 290 685Q290 610 311.0 543.5Q332 477 369 421ZM392 978 428 859 602 789 703 867V1051L605 1131Q542 1108 488.0 1068.5Q434 1029 392 978ZM1142 978Q1100 1029 1046.5 1068.5Q993 1108 929 1131L831 1053V867L933 789L1106 859ZM1164 420Q1202 475 1223.0 542.5Q1244 610 1244 685L1149 738L968 664L931 551L1030 420ZM767 207Q837 207 902 225L930 341L834 466H698L604 346L632 226Q697 207 767 207Z" transform="translate(-1.8281,15.1523) scale(0.011719,-0.011719)"/>
  </g>
</svg>
