<svg xmlns="http://www.w3.org/2000/svg" viewBox="0 0 46.8047 27.2578" width="41.2107" height="24.0000">
  <g fill="black" stroke="black" stroke-width="0.25">
    <path d="M705 1005V1486Q705 1646 802.5 1746.0Q900 1846 1058 1846H2113Q2271 1846 2369.0 1746.0Q2467 1646 2467 1486V450H2150V1471Q2150 1497 2132.5 1513.5Q2115 1530 2089 1530H1082Q1057 1530 1040.0 1513.5Q1023 1497 1023 1471V1005ZM3946 1005H3628V1471Q3628 1499 3611.5 1514.5Q3595 1530 3568 1530H2526Q2501 1530 2484.0 1513.5Q2467 1497 2467 1471V450H2150V1486Q2150 1646 2247.5 1746.0Q2345 1846 2503 1846H3592Q3749 1846 3847.5 1746.0Q3946 1646 3946 1486ZM311 137V900Q311 1060 408.5 1160.0Q506 1260 664 1260H831Q989 1260 1087.0 1160.0Q1185 1060 1185 900V668H3432V900Q3432 1060 3529.5 1160.0Q3627 1260 3785 1260H3951Q4109 1260 4207.0 1160.0Q4305 1060 4305 900V137Q4305 -23 4207.0 -122.5Q4109 -222 3951 -222H664Q506 -222 408.5 -122.5Q311 -23 311 137ZM629 140Q629 118 641.5 106.0Q654 94 677 94H3939Q3962 94 3975.0 106.0Q3988 118 3988 140V897Q3988 919 3975.0 931.5Q3962 944 3939 944H3799Q3775 944 3762.0 931.5Q3749 919 3749 897V352H867V897Q867 919 854.0 931.5Q841 944 817 944H677Q654 944 641.5 931.5Q629 919 629 897ZM826 -480Q758 -480 714.5 -437.0Q671 -394 671 -327V-9H1062V-327Q1062 -394 1019.0 -437.0Q976 -480 908 -480ZM3712 -480Q3644 -480 3601.0 -437.0Q3558 -394 3558 -327V-9H3949V-327Q3949 -394 3905.5 -437.0Q3862 -480 3794 -480Z" transform="translate(-3.6445,21.6328) scale(0.011719,-0.011719)"/>
  </g>
</svg>
