<svg xmlns="http://www.w3.org/2000/svg" viewBox="0 0 18.7969 18.3750" width="24.5510" height="24.0000">
  <g fill="black" stroke="black" stroke-width="0.25">
    <path d="M1095 18Q1070 18 1052.5 34.5Q1035 51 1031 76Q1009 202 985.0 287.5Q961 373 926.0 428.5Q891 484 836.0 518.0Q781 552 697.0 574.0Q613 596 491 616Q464 621 447.0 639.5Q430 658 430 683Q430 708 447.0 726.5Q464 745 491 749Q616 765 702.0 787.0Q788 809 844.0 844.0Q900 879 934.5 936.0Q969 993 990.5 1079.0Q1012 1165 1031 1289Q1034 1316 1052.0 1332.0Q1070 1348 1095 1348Q1120 1348 1138.0 1331.5Q1156 1315 1160 1289Q1181 1164 1204.5 1077.5Q1228 991 1262.5 934.0Q1297 877 1352.5 842.0Q1408 807 1492.0 786.0Q1576 765 1699 749Q1726 745 1743.0 726.5Q1760 708 1760 683Q1760 658 1743.0 639.0Q1726 620 1699 616Q1572 600 1486.0 578.5Q1400 557 1345.0 521.5Q1290 486 1256.5 429.0Q1223 372 1201.5 286.0Q1180 200 1160 76Q1156 51 1138.0 34.5Q1120 18 1095 18ZM495 -220Q454 -220 447 -176Q435 -97 425.0 -53.0Q415 -9 393.5 13.0Q372 35 327.5 46.5Q283 58 201 71Q156 78 156 118Q156 158 197 165Q281 181 326.5 193.5Q372 206 394.0 227.5Q416 249 426.0 292.0Q436 335 447 413Q454 456 495 456Q536 456 542 413Q554 333 564.0 288.5Q574 244 596.0 221.5Q618 199 663.5 188.5Q709 178 792 165Q833 159 833 118Q833 79 792 71Q708 56 662.5 44.0Q617 32 595.5 10.0Q574 -12 564.0 -56.0Q554 -100 542 -178Q539 -196 525.5 -208.0Q512 -220 495 -220Z" transform="translate(-1.8281,15.7969) scale(0.011719,-0.011719)"/>
  </g>
</svg>
