<svg xmlns="http://www.w3.org/2000/svg" viewBox="0 0 16.9922 12.3164" width="33.1113" height="24.0000">
  <g fill="black" stroke="black" stroke-width="0.25">
    <path d="M802 157Q844 157 874.0 187.0Q904 217 904 260V1105Q904 1148 874.0 1178.0Q844 1208 801 1208Q773 1208 749.5 1196.0Q726 1184 697 1158L466 951Q464 947 458 947H316Q238 947 197.0 904.5Q156 862 156 781V585Q156 504 197.0 461.0Q238 418 316 418H458Q464 418 466 416L697 205Q724 181 748.0 169.0Q772 157 802 157ZM1096 398Q1127 378 1160.0 386.0Q1193 394 1212 420Q1250 473 1272.5 540.5Q1295 608 1295 683Q1295 757 1272.5 825.0Q1250 893 1212 947Q1194 972 1160.5 979.5Q1127 987 1096 969Q1062 949 1056.0 910.5Q1050 872 1078 826Q1116 768 1116 683Q1116 605 1078 540Q1024 445 1096 398ZM1363 236Q1397 218 1430.5 225.5Q1464 233 1482 264Q1541 357 1573.5 462.5Q1606 568 1606 682Q1606 798 1574.0 904.0Q1542 1010 1482 1101Q1463 1132 1429.5 1139.5Q1396 1147 1363 1128Q1328 1107 1323.5 1069.0Q1319 1031 1342 992Q1384 927 1406.0 847.0Q1428 767 1428 682Q1428 598 1406.0 518.0Q1384 438 1342 373Q1319 334 1323.5 295.5Q1328 257 1363 236Z" transform="translate(-1.8281,14.1562) scale(0.011719,-0.011719)"/>
  </g>
</svg>
