<svg xmlns="http://www.w3.org/2000/svg" viewBox="0 0 15.1875 15.1700" width="24.0276" height="24.0000">
  <g fill="black" stroke="black" stroke-width="0.25">
    <path d="M508 418H650Q657 418 659 416L889 205Q917 181 941.0 169.0Q965 157 994 157Q1003 157 1010.0 158.5Q1017 160 1025 164L1030 168L357 843Q353 830 350.5 814.5Q348 799 348 782V585Q348 504 389.5 461.0Q431 418 508 418ZM747 1029 1097 677V1105Q1097 1148 1066.5 1178.0Q1036 1208 993 1208Q966 1208 942.0 1196.0Q918 1184 889 1158ZM1304 60Q1329 35 1365.0 34.5Q1401 34 1427 60Q1452 85 1452.0 121.0Q1452 157 1427 182L305 1304Q280 1329 243.5 1329.0Q207 1329 181 1304Q156 1278 156.0 1242.0Q156 1206 181 1181Z" transform="translate(-1.8281,15.5742) scale(0.011719,-0.011719)"/>
  </g>
</svg>
