<svg xmlns="http://www.w3.org/2000/svg" viewBox="0 0 13.9922 11.8242" width="28.4004" height="24.0000">
  <g fill="black" stroke="black" stroke-width="0.25">
    <path d="M752 178Q585 178 452 236Q413 208 362.5 193.0Q312 178 259 178Q224 178 213.5 200.5Q203 223 226 245Q249 265 257.0 284.0Q265 303 265 331Q265 361 248.5 390.5Q232 420 210.5 457.5Q189 495 172.5 549.0Q156 603 156 683Q156 829 233.5 943.0Q311 1057 446.0 1122.0Q581 1187 752 1187Q923 1187 1058.5 1122.0Q1194 1057 1272.0 943.0Q1350 829 1350 683Q1350 537 1272.5 423.0Q1195 309 1060.0 243.5Q925 178 752 178Z" transform="translate(-1.8281,13.9102) scale(0.011719,-0.011719)"/>
  </g>
</svg>
