<svg xmlns="http://www.w3.org/2000/svg" viewBox="0 0 30.3096 31.8398" width="22.8465" height="24.0000">
  <g fill="black" stroke="black" stroke-width="0.25">
    <path d="M713 1205Q660 1133 594.5 1153.5Q529 1174 500 1265L319 1834Q296 1906 334.0 1959.0Q372 2012 449 2012L1045 2015Q1142 2015 1180.0 1959.0Q1218 1903 1168 1832ZM1430 -527V296Q1430 573 1347.0 792.0Q1264 1011 1100.0 1184.5Q936 1358 693 1501Q623 1543 614.0 1609.5Q605 1676 636 1731Q668 1787 731.5 1813.0Q795 1839 867 1794Q1154 1625 1358.0 1409.0Q1562 1193 1670.0 917.5Q1778 642 1778 296V-527Q1778 -599 1727.0 -650.5Q1676 -702 1604 -702Q1532 -702 1481.0 -650.5Q1430 -599 1430 -527ZM2495 1205 2040 1832Q1989 1903 2027.0 1959.0Q2065 2015 2162 2015L2759 2012Q2836 2012 2873.5 1959.0Q2911 1906 2888 1834L2707 1265Q2678 1174 2612.5 1153.5Q2547 1133 2495 1205ZM1778 -527Q1778 -599 1727.0 -650.5Q1676 -702 1604 -702Q1532 -702 1481.0 -650.5Q1430 -599 1430 -527V296Q1430 642 1538.0 917.5Q1646 1193 1850.0 1409.0Q2054 1625 2341 1794Q2413 1839 2476.5 1813.0Q2540 1787 2572 1731Q2603 1676 2594.0 1609.5Q2585 1543 2515 1501Q2272 1358 2108.0 1184.5Q1944 1011 1861.0 792.0Q1778 573 1778 296Z" transform="translate(-3.6367,23.6133) scale(0.011719,-0.011719)"/>
  </g>
</svg>
