<svg xmlns="http://www.w3.org/2000/svg" viewBox="0 0 12.7969 36.6680" width="8.3758" height="24.0000">
  <g fill="black" stroke="black" stroke-width="0.25">
    <path d="M857 -753Q748 -753 701.0 -682.0Q654 -611 654 -513V575Q654 704 619.5 805.5Q585 907 534.0 1000.0Q483 1093 432.0 1195.0Q381 1297 346.0 1425.0Q311 1553 311 1727Q311 1908 377.5 2055.5Q444 2203 566.5 2289.5Q689 2376 857 2376Q1025 2376 1147.5 2289.5Q1270 2203 1336.5 2055.5Q1403 1908 1403 1727Q1403 1553 1368.5 1425.0Q1334 1297 1283.0 1195.0Q1232 1093 1181.0 1000.0Q1130 907 1095.0 805.5Q1060 704 1060 575V-513Q1060 -611 1013.0 -682.0Q966 -753 857 -753Z" transform="translate(-3.6445,27.8438) scale(0.011719,-0.011719)"/>
  </g>
</svg>
