<svg xmlns="http://www.w3.org/2000/svg" viewBox="0 0 16.0312 11.5430" width="33.3320" height="24.0000">
  <g fill="black" stroke="black" stroke-width="0.25">
    <path d="M156 517V848H288Q319 848 319 818V548Q319 517 288 517ZM378 191Q270 191 213.0 247.0Q156 303 156 408V416H289Q353 416 386.5 449.5Q420 483 420 546V819Q420 883 386.5 917.0Q353 951 289 951H156V957Q156 1064 213.0 1120.0Q270 1176 378 1176H786V926Q703 908 647.0 840.5Q591 773 591 683Q591 594 647.0 526.5Q703 459 786 441V191ZM786 549Q746 565 720.0 601.0Q694 637 694 683Q694 730 720.0 766.0Q746 802 786 817ZM894 550V816Q934 801 959.5 765.0Q985 729 985 683Q985 638 959.5 602.0Q934 566 894 550ZM894 191V441Q977 460 1033.0 527.5Q1089 595 1089 683Q1089 772 1033.0 839.5Q977 907 894 926V1176H1303Q1410 1176 1467.0 1120.0Q1524 1064 1524 957V951H1392Q1328 951 1294.5 917.0Q1261 883 1261 819V546Q1261 483 1294.5 449.5Q1328 416 1392 416H1524V408Q1524 303 1467.0 247.0Q1410 191 1303 191ZM1524 517H1393Q1362 517 1362 548V818Q1362 848 1393 848H1524Z" transform="translate(-1.8281,13.7812) scale(0.011719,-0.011719)"/>
  </g>
</svg>
