<svg xmlns="http://www.w3.org/2000/svg" viewBox="0 0 14.9766 14.9648" width="24.0188" height="24.0000">
  <g fill="black" stroke="black" stroke-width="0.25">
    <path d="M156 1057V1230Q156 1271 181.0 1296.0Q206 1321 248 1321H418Q460 1321 485.5 1296.0Q511 1271 511 1230V1057Q511 1016 485.5 991.0Q460 966 418 966H248Q206 966 181.0 991.0Q156 1016 156 1057ZM619 1057V1230Q619 1272 644.0 1296.5Q669 1321 711 1321H881Q922 1321 947.5 1296.5Q973 1272 973 1230V1057Q973 1016 947.5 991.0Q922 966 881 966H711Q669 966 644.0 991.0Q619 1016 619 1057ZM1079 1057V1230Q1079 1271 1104.5 1296.0Q1130 1321 1172 1321H1342Q1384 1321 1409.0 1296.0Q1434 1271 1434 1230V1057Q1434 1016 1409.0 991.0Q1384 966 1342 966H1172Q1130 966 1104.5 991.0Q1079 1016 1079 1057ZM156 596V769Q156 810 181.0 834.5Q206 859 248 859H418Q460 859 485.5 834.5Q511 810 511 769V596Q511 555 485.5 530.5Q460 506 418 506H248Q206 506 181.0 530.5Q156 555 156 596ZM619 596V769Q619 810 643.5 834.5Q668 859 711 859H881Q923 859 948.0 834.5Q973 810 973 769V596Q973 555 948.0 530.5Q923 506 881 506H711Q668 506 643.5 530.5Q619 555 619 596ZM1079 596V769Q1079 810 1104.5 834.5Q1130 859 1172 859H1342Q1384 859 1409.0 834.5Q1434 810 1434 769V596Q1434 555 1409.0 530.5Q1384 506 1342 506H1172Q1130 506 1104.5 530.5Q1079 555 1079 596ZM156 135V308Q156 349 181.0 374.0Q206 399 248 399H418Q460 399 485.5 374.0Q511 349 511 308V135Q511 94 485.5 69.0Q460 44 418 44H248Q206 44 181.0 69.0Q156 94 156 135ZM619 135V308Q619 349 644.0 374.0Q669 399 711 399H881Q922 399 947.5 374.0Q973 349 973 308V135Q973 93 947.5 68.5Q922 44 881 44H711Q669 44 644.0 68.5Q619 93 619 135ZM1079 135V308Q1079 349 1104.5 374.0Q1130 399 1172 399H1342Q1384 399 1409.0 374.0Q1434 349 1434 308V135Q1434 94 1409.0 69.0Q1384 44 1342 44H1172Q1130 44 1104.5 69.0Q1079 94 1079 135Z" transform="translate(-1.8281,15.4805) scale(0.011719,-0.011719)"/>
  </g>
</svg>
