<svg xmlns="http://www.w3.org/2000/svg" viewBox="0 0 28.0195 28.0195" width="24.0000" height="24.0000">
  <g fill="black" stroke="black" stroke-width="0.25">
    <path d="M774 -513Q553 -513 432.0 -392.5Q311 -272 311 -51V1417Q311 1638 432.0 1758.0Q553 1878 774 1878H2239Q2461 1878 2581.5 1758.0Q2702 1638 2702 1417V-51Q2702 -272 2581.5 -392.5Q2461 -513 2239 -513ZM827 -120H2186Q2248 -120 2279.0 -91.0Q2310 -62 2310 4V1361Q2310 1428 2279.0 1457.0Q2248 1486 2186 1486H827Q766 1486 734.5 1457.0Q703 1428 703 1361V4Q703 -62 734.5 -91.0Q766 -120 827 -120ZM1295 50Q1243 50 1207.0 83.5Q1171 117 1171 172Q1171 222 1207.0 256.5Q1243 291 1295 291H1414V621H1320Q1267 621 1231.0 654.5Q1195 688 1195 743Q1195 793 1231.0 828.0Q1267 863 1320 863H1550Q1618 863 1652.5 820.0Q1687 777 1687 705V291H1768Q1819 291 1855.0 256.5Q1891 222 1891 172Q1891 117 1855.0 83.5Q1819 50 1768 50ZM1510 1001Q1434 1001 1377.5 1057.5Q1321 1114 1321 1190Q1321 1270 1377.5 1325.5Q1434 1381 1510 1381Q1589 1381 1644.5 1325.5Q1700 1270 1700 1190Q1700 1114 1644.5 1057.5Q1589 1001 1510 1001Z" transform="translate(-3.6445,22.0078) scale(0.011719,-0.011719)"/>
  </g>
</svg>
