<svg xmlns="http://www.w3.org/2000/svg" viewBox="0 0 30.8203 30.8320" width="23.9909" height="24.0000">
  <g fill="black" stroke="black" stroke-width="0.25">
    <path d="M1564 -632Q1506 -632 1462.0 -593.0Q1418 -554 1406 -491Q1373 -290 1338.0 -143.0Q1303 4 1256.5 106.5Q1210 209 1141.5 278.0Q1073 347 973.0 391.5Q873 436 731.0 466.5Q589 497 395 524Q331 533 290.5 578.0Q250 623 250 683Q250 745 291.5 789.5Q333 834 396 843Q591 865 734.0 893.0Q877 921 978.5 965.5Q1080 1010 1149.5 1080.0Q1219 1150 1265.0 1254.0Q1311 1358 1344.0 1506.5Q1377 1655 1406 1857Q1416 1919 1460.0 1959.0Q1504 1999 1564 1999Q1623 1999 1666.5 1959.5Q1710 1920 1721 1858Q1755 1656 1790.0 1509.0Q1825 1362 1872.0 1258.5Q1919 1155 1987.5 1086.5Q2056 1018 2156.5 973.5Q2257 929 2398.5 899.0Q2540 869 2734 843Q2796 834 2838.0 789.0Q2880 744 2880 683Q2880 623 2837.5 577.5Q2795 532 2733 524Q2538 502 2395.0 473.5Q2252 445 2150.5 400.5Q2049 356 1979.5 286.5Q1910 217 1863.0 112.5Q1816 8 1783.0 -140.0Q1750 -288 1721 -490Q1712 -553 1668.0 -592.5Q1624 -632 1564 -632Z" transform="translate(-2.9297,23.4258) scale(0.011719,-0.011719)"/>
  </g>
</svg>
