<svg xmlns="http://www.w3.org/2000/svg" viewBox="0 0 28.3125 33.7734" width="20.1194" height="24.0000">
  <g fill="black" stroke="black" stroke-width="0.25">
    <path d="M1652 -683Q1610 -683 1578.5 -654.5Q1547 -626 1539 -581Q1513 -423 1485.5 -308.5Q1458 -194 1421.0 -113.0Q1384 -32 1330.5 22.0Q1277 76 1198.0 111.0Q1119 146 1007.5 170.0Q896 194 744 216Q697 223 668.0 255.0Q639 287 639 331Q639 375 669.0 408.0Q699 441 745 446Q929 467 1055.0 496.0Q1181 525 1263.0 575.5Q1345 626 1396.0 710.0Q1447 794 1479.5 923.5Q1512 1053 1539 1243Q1546 1288 1577.5 1316.5Q1609 1345 1652 1345Q1695 1345 1726.5 1316.5Q1758 1288 1766 1243Q1798 1053 1831.5 924.5Q1865 796 1915.5 713.5Q1966 631 2047.0 581.0Q2128 531 2253.0 501.0Q2378 471 2561 446Q2608 439 2637.0 407.0Q2666 375 2666 331Q2666 286 2636.0 253.5Q2606 221 2560 216Q2376 195 2250.0 166.0Q2124 137 2042.0 86.5Q1960 36 1909.0 -48.0Q1858 -132 1825.5 -262.0Q1793 -392 1766 -581Q1759 -626 1727.5 -654.5Q1696 -683 1652 -683ZM752 679Q695 679 688 739Q676 834 665.0 895.5Q654 957 633.5 994.0Q613 1031 575.0 1052.5Q537 1074 474.0 1087.5Q411 1101 313 1115Q250 1124 250 1179Q250 1233 306 1243Q406 1261 471.0 1275.5Q536 1290 574.5 1311.0Q613 1332 633.5 1368.5Q654 1405 665.0 1465.0Q676 1525 688 1619Q695 1679 752 1679Q777 1679 795.0 1662.5Q813 1646 816 1621Q828 1523 839.5 1460.0Q851 1397 872.0 1359.5Q893 1322 931.0 1301.5Q969 1281 1033.0 1268.5Q1097 1256 1196 1243Q1221 1240 1237.5 1222.0Q1254 1204 1254 1179Q1254 1125 1198 1115Q1097 1097 1032.5 1082.5Q968 1068 929.5 1046.5Q891 1025 871.0 988.5Q851 952 839.5 891.0Q828 830 816 736Q813 711 795.0 695.0Q777 679 752 679ZM1346 1577Q1312 1577 1306 1614Q1295 1688 1285.0 1729.5Q1275 1771 1254.5 1791.5Q1234 1812 1191.5 1823.5Q1149 1835 1073 1848Q1034 1855 1034 1888Q1034 1921 1070 1928Q1148 1944 1191.5 1956.0Q1235 1968 1256.0 1988.5Q1277 2009 1286.5 2049.0Q1296 2089 1306 2161Q1312 2199 1346 2199Q1380 2199 1386 2162Q1397 2087 1407.0 2045.0Q1417 2003 1437.5 1982.0Q1458 1961 1501.0 1950.5Q1544 1940 1621 1928Q1658 1922 1658 1888Q1658 1855 1623 1848Q1545 1832 1502.0 1820.0Q1459 1808 1438.0 1787.5Q1417 1767 1407.5 1726.5Q1398 1686 1386 1613Q1380 1577 1346 1577Z" transform="translate(-2.9297,25.7695) scale(0.011719,-0.011719)"/>
  </g>
</svg>
