<svg xmlns="http://www.w3.org/2000/svg" viewBox="0 0 15.4219 15.4219" width="24.0000" height="24.0000">
  <g fill="black" stroke="black" stroke-width="0.25">
    <path d="M814 25Q679 25 560.0 77.0Q441 129 350.0 220.0Q259 311 207.5 430.0Q156 549 156 684Q156 819 207.5 938.0Q259 1057 350.0 1147.5Q441 1238 560.0 1289.5Q679 1341 814 1341Q949 1341 1068.5 1289.5Q1188 1238 1278.5 1147.5Q1369 1057 1420.5 938.0Q1472 819 1472 684Q1472 550 1420.5 430.5Q1369 311 1278.0 220.0Q1187 129 1068.0 77.0Q949 25 814 25ZM813 1118Q709 1118 619.0 1073.5Q529 1029 471 951Q456 931 461.5 915.5Q467 900 488 900H1139Q1160 900 1166.0 915.5Q1172 931 1156 953Q1097 1030 1007.0 1074.0Q917 1118 813 1118ZM814 557Q859 557 889.0 588.0Q919 619 919 664Q919 708 889.0 738.0Q859 768 814 768Q769 768 738.0 738.0Q707 708 707 664Q707 619 738.0 588.0Q769 557 814 557ZM397 556Q423 469 480.5 401.0Q538 333 620 292Q638 283 649.0 291.0Q660 299 659 317Q656 384 626.0 441.0Q596 498 544.5 537.5Q493 577 427 589Q409 593 400.5 584.5Q392 576 397 556ZM1231 556Q1235 576 1227.0 584.5Q1219 593 1200 589Q1134 577 1083.0 537.5Q1032 498 1001.5 441.0Q971 384 969 317Q968 299 978.5 291.0Q989 283 1007 292Q1089 333 1146.5 401.0Q1204 469 1231 556Z" transform="translate(-1.8281,15.7148) scale(0.011719,-0.011719)"/>
  </g>
</svg>
