<svg xmlns="http://www.w3.org/2000/svg" viewBox="0 0 16.6289 13.3828" width="29.8214" height="24.0000">
  <g fill="black" stroke="black" stroke-width="0.25">
    <path d="M156 980Q156 1079 210.0 1133.0Q264 1187 365 1187H436V1018H364Q324 1018 324 980Q324 925 349.0 861.0Q374 797 413.0 739.5Q452 682 495.5 645.5Q539 609 576 609Q613 609 657.0 646.0Q701 683 740.5 740.0Q780 797 805.0 861.0Q830 925 830 980Q830 1018 790 1018H717V1187H789Q889 1187 943.5 1133.0Q998 1079 998 980Q998 890 960.5 795.5Q923 701 862.0 620.5Q801 540 729.5 491.0Q658 442 589 442H565Q496 442 424.5 491.0Q353 540 292.0 620.5Q231 701 193.5 795.5Q156 890 156 980ZM787 73Q636 73 561.0 197.0Q486 321 493 556H660Q656 399 689.0 320.0Q722 241 790 241Q830 241 858.0 265.0Q886 289 905.0 344.0Q924 399 938 491Q960 647 1027.5 724.0Q1095 801 1208 801Q1337 801 1399.5 702.5Q1462 604 1464 400H1295Q1299 522 1277.0 578.0Q1255 634 1204 634Q1164 634 1140.0 589.5Q1116 545 1103 445Q1085 318 1045.0 235.5Q1005 153 941.0 113.0Q877 73 787 73ZM440 991Q393 991 360.5 1023.5Q328 1056 328 1104Q328 1149 361.0 1182.0Q394 1215 440 1215Q485 1215 518.0 1182.0Q551 1149 551 1104Q551 1056 518.5 1023.5Q486 991 440 991ZM714 991Q667 991 634.5 1023.5Q602 1056 602 1104Q602 1149 635.0 1182.0Q668 1215 714 1215Q759 1215 792.0 1182.0Q825 1149 825 1104Q825 1056 792.5 1023.5Q760 991 714 991ZM1381 134Q1302 134 1245.5 190.5Q1189 247 1189 327Q1189 406 1246.0 462.5Q1303 519 1381 519Q1461 519 1518.0 462.0Q1575 405 1575 327Q1575 246 1518.5 190.0Q1462 134 1381 134ZM1383 281Q1401 281 1414.5 294.5Q1428 308 1428 327Q1428 346 1415.0 359.5Q1402 373 1383 373Q1364 373 1350.5 359.5Q1337 346 1337 327Q1337 308 1350.5 294.5Q1364 281 1383 281Z" transform="translate(-1.8281,14.2383) scale(0.011719,-0.011719)"/>
  </g>
</svg>
