<svg xmlns="http://www.w3.org/2000/svg" viewBox="0 0 12.2540 16.0547" width="18.3184" height="24.0000">
  <g fill="black" stroke="black" stroke-width="0.25">
    <path d="M156 474V1086Q156 1123 180.0 1146.5Q204 1170 240 1170Q274 1170 297.5 1146.5Q321 1123 321 1086V709Q330 713 339.0 717.5Q348 722 359 726V1270Q359 1305 382.0 1328.5Q405 1352 440 1352Q475 1352 499.0 1328.5Q523 1305 523 1270V768Q532 769 541.5 770.0Q551 771 560 772V1315Q560 1351 583.5 1374.5Q607 1398 642 1398Q677 1398 700.0 1374.5Q723 1351 723 1315V765Q734 764 743.5 761.5Q753 759 761 756V1239Q761 1273 784.5 1297.0Q808 1321 844 1321Q879 1321 902.5 1297.5Q926 1274 926 1239V604Q926 594 929.0 590.0Q932 586 937 586Q942 586 945.5 590.0Q949 594 953 603L1037 791Q1053 826 1080.0 843.5Q1107 861 1143 854Q1175 848 1190.5 822.0Q1206 796 1200 762Q1194 732 1174.5 669.5Q1155 607 1138 551Q1125 513 1102.5 448.5Q1080 384 1047.5 315.0Q1015 246 971 194Q902 110 814.0 69.0Q726 28 609 28Q481 28 378.5 82.5Q276 137 216.0 237.0Q156 337 156 474Z" transform="translate(-1.8281,16.3828) scale(0.011719,-0.011719)"/>
  </g>
</svg>
