<svg xmlns="http://www.w3.org/2000/svg" viewBox="0 0 14.7070 14.6133" width="24.1540" height="24.0000">
  <g fill="black" stroke="black" stroke-width="0.25">
    <path d="M168 917 339 1214Q393 1307 500 1307H1067Q1174 1307 1227 1214L1399 917ZM349 646Q268 646 212.0 699.5Q156 753 156 823V833H1411V828Q1411 757 1354.5 701.5Q1298 646 1218 646Q1174 646 1136.5 663.5Q1099 681 1073 710Q1046 681 1008.5 663.5Q971 646 928 646Q884 646 847.5 663.5Q811 681 783 711Q757 681 719.5 663.5Q682 646 640 646Q596 646 558.0 663.5Q520 681 494 711Q467 681 429.5 663.5Q392 646 349 646ZM387 60Q316 60 275.5 99.0Q235 138 235 205V586Q262 574 290.5 567.5Q319 561 349 561Q390 561 426.5 572.5Q463 584 494 604Q526 584 562.5 572.5Q599 561 640 561Q716 561 783 604Q850 561 928 561Q1006 561 1073 604Q1104 584 1140.5 572.5Q1177 561 1218 561Q1248 561 1276.5 568.0Q1305 575 1332 587V205Q1332 138 1291.5 99.0Q1251 60 1179 60ZM583 193H982V411Q982 453 940 453H627Q583 453 583 411Z" transform="translate(-1.8281,15.3164) scale(0.011719,-0.011719)"/>
  </g>
</svg>
