<svg xmlns="http://www.w3.org/2000/svg" viewBox="0 0 36.8906 30.4453" width="29.0808" height="24.0000">
  <g fill="black" stroke="black" stroke-width="0.25">
    <path d="M710 -617Q592 -617 502.5 -566.0Q413 -515 362.0 -424.0Q311 -333 311 -215V1578Q311 1697 362.0 1787.5Q413 1878 502.5 1929.5Q592 1981 710 1981H3059Q3177 1981 3267.0 1929.5Q3357 1878 3408.0 1787.5Q3459 1697 3459 1578V-215Q3459 -333 3408.0 -424.0Q3357 -515 3267.0 -566.0Q3177 -617 3059 -617ZM754 -259H3027Q3060 -259 3080.0 -239.5Q3100 -220 3100 -186V1550Q3100 1584 3080.0 1603.0Q3060 1622 3027 1622H754Q716 1622 693.5 1599.5Q671 1577 671 1538V-175Q671 -214 693.5 -236.5Q716 -259 754 -259ZM1220 758Q1119 758 1037.5 806.5Q956 855 908.0 936.5Q860 1018 860 1118Q860 1218 908.0 1299.5Q956 1381 1037.5 1429.0Q1119 1477 1220 1477Q1319 1477 1400.5 1429.0Q1482 1381 1530.0 1299.5Q1578 1218 1578 1118Q1578 1018 1530.0 936.5Q1482 855 1400.5 806.5Q1319 758 1220 758ZM1220 907Q1278 907 1325.5 935.5Q1373 964 1401.0 1011.5Q1429 1059 1429 1118Q1429 1176 1401.0 1224.0Q1373 1272 1325.5 1300.0Q1278 1328 1220 1328Q1161 1328 1113.0 1300.0Q1065 1272 1037.0 1224.0Q1009 1176 1009 1118Q1009 1059 1037.0 1011.5Q1065 964 1113.0 935.5Q1161 907 1220 907ZM1220 971Q1157 971 1114.5 1013.5Q1072 1056 1072 1118Q1072 1180 1114.5 1222.5Q1157 1265 1220 1265Q1281 1265 1323.5 1222.5Q1366 1180 1366 1118Q1366 1056 1323.5 1013.5Q1281 971 1220 971ZM2115 758Q2015 758 1933.5 806.5Q1852 855 1804.0 936.5Q1756 1018 1756 1118Q1756 1218 1804.0 1299.5Q1852 1381 1933.5 1429.0Q2015 1477 2115 1477Q2215 1477 2296.0 1429.0Q2377 1381 2425.5 1299.5Q2474 1218 2474 1118Q2474 1018 2425.5 936.5Q2377 855 2296.0 806.5Q2215 758 2115 758ZM2115 907Q2173 907 2220.5 935.5Q2268 964 2296.5 1011.5Q2325 1059 2325 1118Q2325 1176 2296.5 1224.0Q2268 1272 2220.5 1300.0Q2173 1328 2115 1328Q2057 1328 2009.0 1300.0Q1961 1272 1933.0 1224.0Q1905 1176 1905 1118Q1905 1059 1933.0 1011.5Q1961 964 2009.0 935.5Q2057 907 2115 907ZM2115 971Q2053 971 2010.5 1013.5Q1968 1056 1968 1118Q1968 1180 2010.5 1222.5Q2053 1265 2115 1265Q2177 1265 2219.5 1222.5Q2262 1180 2262 1118Q2262 1056 2219.5 1013.5Q2177 971 2115 971ZM1220 -109Q1119 -109 1037.5 -60.5Q956 -12 908.0 69.5Q860 151 860 251Q860 351 908.0 432.5Q956 514 1037.5 562.0Q1119 610 1220 610Q1319 610 1400.5 562.0Q1482 514 1530.0 432.5Q1578 351 1578 251Q1578 151 1530.0 69.5Q1482 -12 1400.5 -60.5Q1319 -109 1220 -109ZM1220 40Q1278 40 1325.5 68.5Q1373 97 1401.0 144.5Q1429 192 1429 251Q1429 310 1401.0 357.5Q1373 405 1325.5 433.0Q1278 461 1220 461Q1161 461 1113.0 433.0Q1065 405 1037.0 357.5Q1009 310 1009 251Q1009 192 1037.0 144.5Q1065 97 1113.0 68.5Q1161 40 1220 40ZM1220 104Q1157 104 1114.5 146.5Q1072 189 1072 251Q1072 313 1114.5 355.5Q1157 398 1220 398Q1281 398 1323.5 355.5Q1366 313 1366 251Q1366 189 1323.5 146.5Q1281 104 1220 104ZM2115 -109Q2015 -109 1933.5 -60.5Q1852 -12 1804.0 69.5Q1756 151 1756 251Q1756 351 1804.0 432.5Q1852 514 1933.5 562.0Q2015 610 2115 610Q2215 610 2296.0 562.0Q2377 514 2425.5 432.5Q2474 351 2474 251Q2474 151 2425.5 69.5Q2377 -12 2296.0 -60.5Q2215 -109 2115 -109ZM2115 40Q2173 40 2220.5 68.5Q2268 97 2296.5 144.5Q2325 192 2325 251Q2325 310 2296.5 357.5Q2268 405 2220.5 433.0Q2173 461 2115 461Q2057 461 2009.0 433.0Q1961 405 1933.0 357.5Q1905 310 1905 251Q1905 192 1933.0 144.5Q1961 97 2009.0 68.5Q2057 40 2115 40ZM2115 104Q2053 104 2010.5 146.5Q1968 189 1968 251Q1968 313 2010.5 355.5Q2053 398 2115 398Q2177 398 2219.5 355.5Q2262 313 2262 251Q2262 189 2219.5 146.5Q2177 104 2115 104ZM2827 1076Q2775 1076 2739.0 1112.0Q2703 1148 2703 1199Q2703 1251 2739.0 1286.5Q2775 1322 2827 1322Q2878 1322 2914.0 1286.5Q2950 1251 2950 1199Q2950 1148 2914.0 1112.0Q2878 1076 2827 1076ZM2827 732Q2775 732 2739.0 768.0Q2703 804 2703 856Q2703 907 2739.0 943.0Q2775 979 2827 979Q2878 979 2914.0 943.0Q2950 907 2950 856Q2950 804 2914.0 768.0Q2878 732 2827 732ZM2827 388Q2775 388 2739.0 424.0Q2703 460 2703 512Q2703 563 2739.0 599.0Q2775 635 2827 635Q2878 635 2914.0 599.0Q2950 563 2950 512Q2950 460 2914.0 424.0Q2878 388 2827 388ZM2827 45Q2775 45 2739.0 81.0Q2703 117 2703 168Q2703 220 2739.0 256.0Q2775 292 2827 292Q2878 292 2914.0 256.0Q2950 220 2950 168Q2950 117 2914.0 81.0Q2878 45 2827 45Z" transform="translate(-3.6445,23.2148) scale(0.011719,-0.011719)"/>
  </g>
</svg>
