<svg xmlns="http://www.w3.org/2000/svg" viewBox="0 0 39.0006 26.2617" width="35.6417" height="24.0000">
  <g fill="black" stroke="black" stroke-width="0.25">
    <path d="M3107 688V1197Q3107 1253 3073.5 1285.5Q3040 1318 2981 1318H1432V1676H3061Q3199 1676 3299.5 1624.5Q3400 1573 3455.0 1479.0Q3510 1385 3510 1257V688ZM2518 -303H889Q751 -303 650.5 -252.0Q550 -201 495.0 -107.0Q440 -13 440 115V547H843V176Q843 120 876.5 87.0Q910 54 969 54H2518ZM500 1800 1026 1809Q1092 1808 1129.0 1765.5Q1166 1723 1166 1670Q1166 1609 1122.0 1567.0Q1078 1525 1024 1531L879 1545L683 1578L540 1436L574 1237L587 1094Q593 1046 554.5 1000.5Q516 955 451 955Q392 955 351.0 995.0Q310 1035 311 1093L319 1618Q318 1697 363.0 1747.5Q408 1798 500 1800ZM717 1598 927 1410 1136 1203Q1160 1178 1172.5 1149.0Q1185 1120 1185 1090Q1185 1028 1137.0 981.0Q1089 934 1027 934Q963 935 916 983L709 1192L521 1403Q484 1446 482.5 1502.0Q481 1558 521 1598Q562 1639 618.5 1637.5Q675 1636 717 1598ZM2924 -432Q2858 -431 2821.0 -388.5Q2784 -346 2784 -293Q2784 -232 2828.0 -190.5Q2872 -149 2926 -154L3071 -168L3267 -202L3410 -59L3376 140L3363 282Q3357 330 3395.5 376.0Q3434 422 3499 422Q3558 422 3599.0 382.0Q3640 342 3639 284L3631 -242Q3632 -320 3587.0 -371.0Q3542 -422 3450 -423ZM3233 -222 3023 -33 2814 174Q2790 199 2777.5 228.0Q2765 257 2765 287Q2765 349 2813.0 396.0Q2861 443 2923 443Q2987 442 3034 394L3241 185L3429 -26Q3466 -69 3467.5 -125.0Q3469 -181 3429 -222Q3388 -262 3331.5 -261.0Q3275 -260 3233 -222Z" transform="translate(-3.6443,21.1992) scale(0.011719,-0.011719)"/>
  </g>
</svg>
