<svg xmlns="http://www.w3.org/2000/svg" viewBox="0 0 31.9219 32.6953" width="23.4323" height="24.0000">
  <g fill="black" stroke="black" stroke-width="0.25">
    <path d="M1077 986 1137 683Q1158 577 1250.0 519.0Q1342 461 1523 461H2297Q2449 461 2536.5 513.5Q2624 566 2666.5 649.5Q2709 733 2721.5 828.5Q2734 924 2734 1009Q2734 1190 2676.5 1331.0Q2619 1472 2524.5 1569.5Q2430 1667 2316.5 1718.0Q2203 1769 2092 1769Q2051 1769 2051 1730V1049H1758V1847Q1758 1944 1820.5 2008.5Q1883 2073 1980 2073Q2229 2073 2423.5 1984.0Q2618 1895 2753.0 1743.0Q2888 1591 2958.0 1401.0Q3028 1211 3028 1009Q3028 908 3013.0 793.5Q2998 679 2955.5 568.0Q2913 457 2832.0 366.5Q2751 276 2620.5 222.0Q2490 168 2297 168H1523Q1236 168 1062.0 291.5Q888 415 848 629L782 986ZM2844 1165 2846 872H820Q760 872 717.0 915.0Q674 958 674 1018Q674 1079 717.0 1122.0Q760 1165 820 1165ZM1126 1008 700 1433H466Q402 1433 356.5 1478.5Q311 1524 311 1587Q311 1650 356.5 1696.0Q402 1742 466 1742H743Q783 1742 818.0 1727.0Q853 1712 884 1683L1560 1008ZM1199 -44 1688 446 1930 254 1423 -253ZM2386 -251 1883 252 2131 438 2609 -42ZM1150 -717Q1044 -717 957.0 -665.5Q870 -614 818.5 -527.0Q767 -440 767 -334Q767 -228 818.5 -141.0Q870 -54 957.0 -2.5Q1044 49 1150 49Q1256 49 1343.0 -2.5Q1430 -54 1481.5 -141.0Q1533 -228 1533 -334Q1533 -440 1481.5 -527.0Q1430 -614 1343.0 -665.5Q1256 -717 1150 -717ZM1150 -499Q1220 -499 1267.5 -451.0Q1315 -403 1315 -334Q1315 -264 1267.5 -216.0Q1220 -168 1150 -168Q1081 -168 1033.0 -216.0Q985 -264 985 -334Q985 -403 1033.0 -451.0Q1081 -499 1150 -499ZM2660 -708Q2557 -708 2472.0 -657.5Q2387 -607 2336.5 -522.0Q2286 -437 2286 -334Q2286 -230 2336.5 -145.5Q2387 -61 2472.0 -10.0Q2557 41 2660 41Q2764 41 2848.5 -10.0Q2933 -61 2984.0 -145.5Q3035 -230 3035 -334Q3035 -437 2984.0 -522.0Q2933 -607 2848.5 -657.5Q2764 -708 2660 -708ZM2660 -499Q2730 -499 2778.0 -451.0Q2826 -403 2826 -334Q2826 -264 2778.0 -216.0Q2730 -168 2660 -168Q2591 -168 2543.0 -216.0Q2495 -264 2495 -334Q2495 -403 2543.0 -451.0Q2591 -499 2660 -499ZM1380 -471V-194H2436V-471Z" transform="translate(-3.6445,24.2930) scale(0.011719,-0.011719)"/>
  </g>
</svg>
