<svg xmlns="http://www.w3.org/2000/svg" viewBox="0 0 14.9883 12.8438" width="28.0073" height="24.0000">
  <g fill="black" stroke="black" stroke-width="0.25">
    <path d="M500 1046V1149Q500 1224 542.5 1261.5Q585 1299 665 1299H925Q1007 1299 1049.0 1261.5Q1091 1224 1091 1149V1046H951V1119Q951 1165 906 1165H685Q640 1165 640 1119V1046ZM356 203H344Q254 203 205.0 251.0Q156 299 156 390V893Q156 984 205.0 1033.0Q254 1082 344 1082H356ZM467 203V1082H1125V203ZM1235 203V1082H1247Q1338 1082 1386.5 1033.0Q1435 984 1435 893V390Q1435 299 1386.5 251.0Q1338 203 1247 203Z" transform="translate(-1.8281,15.2227) scale(0.011719,-0.011719)"/>
  </g>
</svg>
