<svg xmlns="http://www.w3.org/2000/svg" viewBox="0 0 16.6992 16.6758" width="24.0337" height="24.0000">
  <g fill="black" stroke="black" stroke-width="0.25">
    <path d="M868 1395Q909 1395 938.5 1365.5Q968 1336 968 1296V1192Q968 1151 938.5 1121.0Q909 1091 868 1091Q827 1091 797.5 1121.0Q768 1151 768 1192V1296Q768 1336 797.5 1365.5Q827 1395 868 1395ZM1371 1186Q1400 1158 1400.5 1116.0Q1401 1074 1373 1046L1297 971Q1268 943 1227.0 942.0Q1186 941 1158 969Q1129 998 1129.0 1038.5Q1129 1079 1157 1109L1232 1185Q1260 1213 1301.0 1214.0Q1342 1215 1371 1186ZM1581 683Q1581 643 1551.5 613.5Q1522 584 1482 584H1377Q1337 584 1307.0 613.5Q1277 643 1277 683Q1277 723 1307.0 753.0Q1337 783 1377 783H1482Q1522 783 1551.5 753.5Q1581 724 1581 683ZM1373 183Q1345 155 1303.5 154.0Q1262 153 1234 180L1158 255Q1129 283 1128.0 325.0Q1127 367 1157 395Q1185 424 1226.5 424.0Q1268 424 1296 396L1372 321Q1401 293 1401.0 251.5Q1401 210 1373 183ZM868 -28Q827 -28 797.5 1.0Q768 30 768 70V175Q768 216 797.5 246.0Q827 276 868 276Q909 276 938.5 246.0Q968 216 968 175V70Q968 30 938.5 1.0Q909 -28 868 -28ZM363 183Q335 210 335.5 252.0Q336 294 364 321L440 396Q468 424 509.5 424.0Q551 424 580 395Q609 367 608.0 325.5Q607 284 579 255L503 180Q475 152 434.0 153.0Q393 154 363 183ZM156 683Q156 724 185.0 753.5Q214 783 254 783H359Q400 783 430.0 753.0Q460 723 460 683Q460 643 430.0 613.5Q400 584 359 584H254Q214 584 185.0 613.5Q156 643 156 683ZM365 1186Q394 1214 435.5 1213.5Q477 1213 505 1185L580 1109Q608 1081 607.5 1040.0Q607 999 579 969Q550 940 508.5 941.5Q467 943 439 971L364 1046Q336 1074 336.5 1116.0Q337 1158 365 1186ZM868 349Q775 349 699.5 394.0Q624 439 579.0 515.0Q534 591 534 683Q534 776 579.0 851.5Q624 927 699.5 972.0Q775 1017 868 1017Q960 1017 1036.0 972.0Q1112 927 1157.0 851.5Q1202 776 1202 683Q1202 591 1157.0 515.0Q1112 439 1036.0 394.0Q960 349 868 349Z" transform="translate(-1.8281,16.3477) scale(0.011719,-0.011719)"/>
  </g>
</svg>
