<svg xmlns="http://www.w3.org/2000/svg" viewBox="0 0 16.8750 18.1289" width="22.3400" height="24.0000">
  <g fill="black" stroke="black" stroke-width="0.25">
    <path d="M447 803Q447 839 420.0 865.0Q393 891 354 891H248Q210 891 183.0 865.0Q156 839 156 803Q156 767 183.0 741.0Q210 715 248 715H354Q393 715 420.0 741.0Q447 767 447 803ZM573 1057Q598 1084 598.0 1120.5Q598 1157 571 1185L494 1262Q466 1290 429.5 1290.0Q393 1290 367 1264Q341 1238 341.0 1200.5Q341 1163 369 1136L445 1060Q473 1034 509.5 1032.5Q546 1031 573 1057ZM876 1199Q912 1199 938.0 1226.5Q964 1254 964 1291V1398Q964 1436 937.5 1463.0Q911 1490 876 1490Q840 1490 813.5 1463.0Q787 1436 787 1398V1291Q787 1254 813.5 1226.5Q840 1199 876 1199ZM1179 1057Q1207 1032 1243.0 1033.0Q1279 1034 1307 1060L1383 1136Q1411 1163 1411.0 1200.5Q1411 1238 1385 1264Q1359 1290 1322.0 1289.5Q1285 1289 1259 1262L1181 1185Q1154 1157 1154.0 1120.5Q1154 1084 1179 1057ZM1305 803Q1305 767 1332.5 741.0Q1360 715 1398 715H1504Q1543 715 1569.5 741.0Q1596 767 1596 803Q1596 839 1569.5 865.0Q1543 891 1504 891H1398Q1360 891 1332.5 865.0Q1305 839 1305 803ZM533 684H1219Q1223 701 1224.5 719.5Q1226 738 1226 756Q1226 853 1178.5 933.0Q1131 1013 1051.5 1060.5Q972 1108 876 1108Q780 1108 700.5 1060.5Q621 1013 573.5 933.0Q526 853 526 756Q526 738 527.5 719.5Q529 701 533 684ZM262 371H1490Q1535 371 1565.5 403.5Q1596 436 1596 478Q1596 521 1566.0 552.0Q1536 583 1490 583H262Q216 583 186.0 551.5Q156 520 156 478Q156 436 187.0 403.5Q218 371 262 371ZM287 128Q319 128 341.5 151.0Q364 174 364 206Q364 237 341.5 260.0Q319 283 287 283Q255 283 232.0 260.0Q209 237 209 206Q209 174 232.0 151.0Q255 128 287 128ZM583 128Q615 128 638.0 151.0Q661 174 661 206Q661 237 638.0 260.0Q615 283 583 283Q551 283 528.5 260.0Q506 237 506 206Q506 174 528.5 151.0Q551 128 583 128ZM878 128Q910 128 933.0 151.0Q956 174 956 206Q956 237 933.0 260.0Q910 283 878 283Q846 283 823.0 260.0Q800 237 800 206Q800 174 823.0 151.0Q846 128 878 128ZM1175 128Q1206 128 1229.0 151.0Q1252 174 1252 206Q1252 237 1229.0 260.0Q1206 283 1175 283Q1143 283 1120.0 260.0Q1097 237 1097 206Q1097 174 1120.0 151.0Q1143 128 1175 128ZM1469 128Q1501 128 1524.0 151.0Q1547 174 1547 206Q1547 237 1524.0 260.0Q1501 283 1469 283Q1437 283 1414.0 260.0Q1391 237 1391 206Q1391 174 1414.0 151.0Q1437 128 1469 128ZM435 -57Q467 -57 490.0 -34.5Q513 -12 513 21Q513 53 490.0 76.0Q467 99 435 99Q403 99 380.0 76.0Q357 53 357 21Q357 -12 380.0 -34.5Q403 -57 435 -57ZM732 -57Q764 -57 786.5 -34.5Q809 -12 809 21Q809 53 786.5 76.0Q764 99 732 99Q700 99 677.0 76.0Q654 53 654 21Q654 -12 677.0 -34.5Q700 -57 732 -57ZM1026 -57Q1058 -57 1081.0 -34.5Q1104 -12 1104 21Q1104 53 1081.0 76.0Q1058 99 1026 99Q994 99 971.0 76.0Q948 53 948 21Q948 -12 971.0 -34.5Q994 -57 1026 -57ZM1321 -57Q1352 -57 1375.0 -34.5Q1398 -12 1398 21Q1398 53 1375.0 76.0Q1352 99 1321 99Q1289 99 1266.0 76.0Q1243 53 1243 21Q1243 -12 1266.0 -34.5Q1289 -57 1321 -57Z" transform="translate(-1.8281,17.4609) scale(0.011719,-0.011719)"/>
  </g>
</svg>
