<svg xmlns="http://www.w3.org/2000/svg" viewBox="0 0 49.5820 17.6250" width="67.5160" height="24.0000">
  <g fill="black" stroke="black" stroke-width="0.25">
    <path d="M2334 820Q2315 820 2299.5 809.0Q2284 798 2275 777L2152 498Q2063 293 1931.5 168.5Q1800 44 1642.5 -12.5Q1485 -69 1317 -69Q1070 -69 882.0 34.0Q694 137 567.5 336.0Q441 535 378 823L348 964Q333 1039 301.5 1088.0Q270 1137 244.5 1179.0Q219 1221 219 1275Q219 1343 268.0 1389.0Q317 1435 414 1435Q622 1435 818.5 1428.5Q1015 1422 1180.0 1409.5Q1345 1397 1459 1380Q1627 1355 1755.5 1322.5Q1884 1290 1984.5 1260.0Q2085 1230 2169.5 1210.0Q2254 1190 2334 1190Q2415 1190 2499.5 1210.0Q2584 1230 2684.5 1260.0Q2785 1290 2913.5 1322.5Q3042 1355 3210 1380Q3324 1397 3488.5 1409.5Q3653 1422 3849.5 1428.5Q4046 1435 4255 1435Q4352 1435 4401.0 1389.0Q4450 1343 4450 1275Q4450 1221 4424.5 1179.0Q4399 1137 4367.5 1088.0Q4336 1039 4321 964L4290 823Q4228 535 4101.5 336.0Q3975 137 3787.0 34.0Q3599 -69 3352 -69Q3184 -69 3026.5 -12.5Q2869 44 2737.5 168.5Q2606 293 2517 498L2394 777Q2385 798 2369.0 809.0Q2353 820 2334 820Z" transform="translate(-2.5664,16.8164) scale(0.011719,-0.011719)"/>
  </g>
</svg>
