<svg xmlns="http://www.w3.org/2000/svg" viewBox="0 0 16.8750 16.9570" width="23.8839" height="24.0000">
  <g fill="black" stroke="black" stroke-width="0.25">
    <path d="M447 799Q447 836 420.0 862.0Q393 888 354 888H248Q210 888 183.0 862.0Q156 836 156 799Q156 763 183.0 736.5Q210 710 248 710H354Q393 710 420.0 736.5Q447 763 447 799ZM573 1054Q598 1081 598.0 1117.0Q598 1153 571 1181L494 1259Q466 1286 429.5 1286.0Q393 1286 367 1261Q341 1235 341.0 1197.5Q341 1160 369 1132L445 1057Q473 1030 509.5 1029.0Q546 1028 573 1054ZM876 1195Q912 1195 938.0 1222.5Q964 1250 964 1288V1394Q964 1433 937.5 1460.0Q911 1487 876 1487Q840 1487 813.5 1460.0Q787 1433 787 1394V1288Q787 1250 813.5 1222.5Q840 1195 876 1195ZM1179 1054Q1207 1028 1243.0 1029.0Q1279 1030 1307 1057L1383 1132Q1411 1160 1411.0 1197.5Q1411 1235 1385 1261Q1359 1286 1322.0 1285.5Q1285 1285 1259 1259L1181 1181Q1154 1153 1154.0 1117.0Q1154 1081 1179 1054ZM1305 799Q1305 763 1332.5 736.5Q1360 710 1398 710H1504Q1543 710 1569.5 736.5Q1596 763 1596 799Q1596 836 1569.5 862.0Q1543 888 1504 888H1398Q1360 888 1332.5 862.0Q1305 836 1305 799ZM533 681H1219Q1223 698 1224.5 717.0Q1226 736 1226 753Q1226 850 1178.5 929.5Q1131 1009 1051.5 1056.5Q972 1104 876 1104Q780 1104 700.5 1056.5Q621 1009 573.5 929.5Q526 850 526 753Q526 736 527.5 717.0Q529 698 533 681ZM272 456H1431Q1457 456 1475.0 474.5Q1493 493 1493 519Q1493 544 1475.0 562.5Q1457 581 1431 581H272Q246 581 228.0 562.5Q210 544 210 519Q210 493 228.0 474.5Q246 456 272 456ZM321 248H1480Q1506 248 1524.0 266.5Q1542 285 1542 311Q1542 337 1524.0 355.0Q1506 373 1480 373H321Q295 373 277.0 355.0Q259 337 259 311Q259 285 277.0 266.5Q295 248 321 248ZM272 40H1431Q1457 40 1475.0 58.5Q1493 77 1493 102Q1493 128 1475.0 146.5Q1457 165 1431 165H272Q246 165 228.0 146.5Q210 128 210 102Q210 77 228.0 58.5Q246 40 272 40Z" transform="translate(-1.8281,17.4258) scale(0.011719,-0.011719)"/>
  </g>
</svg>
