<svg xmlns="http://www.w3.org/2000/svg" viewBox="0 0 15.7852 12.2578" width="30.9063" height="24.0000">
  <g fill="black" stroke="black" stroke-width="0.25">
    <path d="M241 567Q207 567 181.5 591.5Q156 616 156 649Q156 683 181.5 708.0Q207 733 241 733H342Q378 733 403.0 708.5Q428 684 428 649Q428 616 403.0 591.5Q378 567 342 567ZM427 891 355 962Q329 987 329.5 1022.0Q330 1057 353 1082Q378 1105 412.0 1105.0Q446 1105 472 1079L543 1007Q569 981 569.5 947.0Q570 913 546 888Q521 864 487.0 865.0Q453 866 427 891ZM1114 888Q1089 913 1089.5 947.0Q1090 981 1116 1007L1187 1079Q1213 1105 1247.0 1105.5Q1281 1106 1306 1082Q1330 1057 1330.0 1022.0Q1330 987 1304 962L1232 891Q1206 866 1172.5 865.0Q1139 864 1114 888ZM1317 567Q1283 567 1257.0 591.5Q1231 616 1231 649Q1231 684 1257.0 708.5Q1283 733 1317 733H1418Q1453 733 1478.0 708.0Q1503 683 1503 649Q1503 616 1478.0 591.5Q1453 567 1418 567ZM1158 607Q1158 590 1156.5 572.0Q1155 554 1151 539H508Q504 554 502.5 572.0Q501 590 501 607Q501 697 545.5 772.0Q590 847 665.0 891.0Q740 935 830 935Q920 935 994.5 891.0Q1069 847 1113.5 772.0Q1158 697 1158 607ZM254 247Q214 247 185.0 277.5Q156 308 156 346Q156 385 184.0 415.0Q212 445 254 445H1405Q1447 445 1475.0 415.5Q1503 386 1503 346Q1503 307 1474.5 277.0Q1446 247 1405 247ZM912 1106Q912 1072 887.5 1046.0Q863 1020 830 1020Q795 1020 770.5 1046.0Q746 1072 746 1106V1207Q746 1243 770.5 1268.0Q795 1293 830 1293Q863 1293 887.5 1268.0Q912 1243 912 1207Z" transform="translate(-1.8281,15.1523) scale(0.011719,-0.011719)"/>
  </g>
</svg>
