<svg xmlns="http://www.w3.org/2000/svg" viewBox="0 0 15.0000 14.4961" width="24.8343" height="24.0000">
  <g fill="black" stroke="black" stroke-width="0.25">
    <path d="M237 475Q204 475 180.0 498.0Q156 521 156 553Q156 586 180.0 609.5Q204 633 237 633H333Q366 633 390.5 609.5Q415 586 415 553Q415 521 390.5 498.0Q366 475 333 475ZM414 783 345 850Q320 873 320.5 906.5Q321 940 343 963Q366 986 399.0 986.0Q432 986 456 961L524 893Q548 869 549.0 836.5Q550 804 527 780Q503 757 470.5 758.0Q438 759 414 783ZM796 906Q764 906 741.0 930.5Q718 955 718 987V1144L721 1169L728 1180L682 1129Q671 1115 655.5 1105.0Q640 1095 619 1095Q589 1095 567.5 1116.5Q546 1138 546 1167Q546 1187 555.5 1202.5Q565 1218 578 1231L738 1381Q765 1407 796 1407Q827 1407 855 1381L1014 1231Q1027 1218 1036.5 1202.5Q1046 1187 1046 1167Q1046 1138 1024.5 1116.5Q1003 1095 973 1095Q952 1095 936.5 1105.0Q921 1115 910 1129L867 1178L871 1171L875 1144V987Q875 955 851.5 930.5Q828 906 796 906ZM1066 780Q1043 804 1043.0 836.0Q1043 868 1068 893L1136 961Q1160 985 1193.0 985.5Q1226 986 1249 963Q1271 940 1271.5 906.5Q1272 873 1247 850L1179 783Q1154 759 1121.5 758.5Q1089 758 1066 780ZM1259 475Q1227 475 1202.5 498.0Q1178 521 1178 553Q1178 586 1202.5 609.5Q1227 633 1259 633H1355Q1389 633 1412.5 609.5Q1436 586 1436 553Q1436 521 1412.5 498.0Q1389 475 1355 475ZM1108 512Q1108 497 1106.5 480.0Q1105 463 1101 448H491Q487 463 485.5 480.0Q484 497 484 512Q484 598 526.5 669.0Q569 740 640.0 782.5Q711 825 796 825Q882 825 952.5 782.5Q1023 740 1065.5 669.0Q1108 598 1108 512ZM249 170Q211 170 183.5 198.5Q156 227 156 265Q156 302 183.0 330.5Q210 359 249 359H1343Q1382 359 1409.0 331.0Q1436 303 1436 265Q1436 227 1409.0 198.5Q1382 170 1343 170Z" transform="translate(-1.8281,16.4883) scale(0.011719,-0.011719)"/>
  </g>
</svg>
