<svg xmlns="http://www.w3.org/2000/svg" viewBox="0 0 16.8750 19.3607" width="20.9186" height="24.0000">
  <g fill="black" stroke="black" stroke-width="0.25">
    <path d="M1226 795Q1226 892 1178.5 971.5Q1131 1051 1051.5 1099.0Q972 1147 876 1147Q780 1147 700.5 1099.0Q621 1051 573.5 971.5Q526 892 526 795Q526 777 527.5 758.0Q529 739 533 722H1219Q1223 739 1224.5 758.0Q1226 777 1226 795ZM248 752H354Q393 752 420.0 778.5Q447 805 447 841Q447 877 420.0 903.5Q393 930 354 930H248Q210 930 183.0 903.5Q156 877 156 841Q156 805 183.0 778.5Q210 752 248 752ZM445 1098Q473 1072 509.5 1070.5Q546 1069 573 1096Q598 1122 598.0 1158.5Q598 1195 571 1222L494 1300Q466 1328 429.5 1328.0Q393 1328 367 1303Q341 1276 341.0 1238.5Q341 1201 369 1174ZM964 1329V1436Q964 1475 937.5 1501.5Q911 1528 876 1528Q840 1528 813.5 1501.5Q787 1475 787 1436V1329Q787 1292 813.5 1264.0Q840 1236 876 1236Q912 1236 938.0 1264.0Q964 1292 964 1329ZM1179 1096Q1207 1070 1243.0 1071.0Q1279 1072 1307 1098L1383 1174Q1411 1201 1411.0 1238.5Q1411 1276 1385 1303Q1359 1329 1322.0 1328.5Q1285 1328 1259 1300L1181 1222Q1154 1195 1154.0 1158.5Q1154 1122 1179 1096ZM1398 752H1504Q1543 752 1569.5 778.5Q1596 805 1596 841Q1596 877 1569.5 903.5Q1543 930 1504 930H1398Q1360 930 1332.5 903.5Q1305 877 1305 841Q1305 805 1332.5 778.5Q1360 752 1398 752ZM262 410H1490Q1535 410 1565.5 442.0Q1596 474 1596 516Q1596 558 1566.0 590.0Q1536 622 1490 622H262Q216 622 186.0 589.5Q156 557 156 516Q156 475 187.0 442.5Q218 410 262 410ZM505 75 577 203Q591 226 584.5 252.0Q578 278 553 293Q528 306 501.5 299.5Q475 293 462 269L389 142Q375 118 382.0 91.5Q389 65 413 51Q438 38 464.0 44.5Q490 51 505 75ZM676 -92 842 200Q855 223 848.5 249.5Q842 276 818 290Q794 304 767.0 296.5Q740 289 727 266L560 -24Q547 -47 554.0 -74.0Q561 -101 586 -115Q610 -129 636.5 -121.5Q663 -114 676 -92ZM1034 75 1107 203Q1121 226 1114.0 252.0Q1107 278 1084 293Q1059 306 1032.5 299.5Q1006 293 992 269L920 142Q906 118 912.5 91.5Q919 65 944 51Q967 38 993.5 44.5Q1020 51 1034 75ZM1205 -92 1372 200Q1385 223 1378.5 249.5Q1372 276 1349 290Q1323 304 1296.5 296.5Q1270 289 1257 266L1091 -24Q1078 -47 1084.5 -74.0Q1091 -101 1116 -115Q1140 -129 1166.5 -121.5Q1193 -114 1205 -92Z" transform="translate(-1.8281,17.9062) scale(0.011719,-0.011719)"/>
  </g>
</svg>
