<svg xmlns="http://www.w3.org/2000/svg" viewBox="0 0 16.0547 15.5039" width="24.8526" height="24.0000">
  <g fill="black" stroke="black" stroke-width="0.25">
    <path d="M244 453H345Q382 453 407.5 478.0Q433 503 433 537Q433 573 407.5 598.0Q382 623 345 623H244Q208 623 182.0 598.0Q156 573 156 537Q156 504 182.0 478.5Q208 453 244 453ZM432 782Q458 758 493.0 757.0Q528 756 553 780Q578 805 577.0 839.5Q576 874 550 901L478 973Q451 999 416.5 999.5Q382 1000 357 975Q333 951 332.5 915.0Q332 879 359 853ZM841 1450Q807 1450 782.0 1424.0Q757 1398 757 1362V1196L760 1168L767 1157L720 1212Q708 1226 691.5 1237.0Q675 1248 652 1248Q620 1248 596.5 1225.0Q573 1202 573 1171Q573 1149 583.5 1132.5Q594 1116 608 1102L779 941Q808 914 841 914Q874 914 903 941L1074 1102Q1088 1116 1098.5 1132.5Q1109 1149 1109 1171Q1109 1202 1085.5 1225.0Q1062 1248 1030 1248Q1007 1248 990.5 1237.0Q974 1226 962 1212L918 1159L922 1167L925 1196V1362Q925 1398 900.0 1424.0Q875 1450 841 1450ZM1130 780Q1154 756 1189.0 756.5Q1224 757 1251 782L1323 853Q1350 879 1350.0 915.0Q1350 951 1325 975Q1300 1000 1265.5 999.5Q1231 999 1204 973L1132 901Q1106 874 1105.5 839.5Q1105 805 1130 780ZM1337 453H1438Q1475 453 1500.5 478.5Q1526 504 1526 537Q1526 573 1500.5 598.0Q1475 623 1438 623H1337Q1301 623 1275.0 598.0Q1249 573 1249 537Q1249 503 1275.0 478.0Q1301 453 1337 453ZM1175 494Q1175 586 1129.5 661.5Q1084 737 1008.5 782.0Q933 827 841 827Q749 827 673.5 782.0Q598 737 552.5 661.5Q507 586 507 494Q507 477 508.5 458.5Q510 440 515 425H1167Q1172 440 1173.5 458.5Q1175 477 1175 494ZM257 127H1425Q1467 127 1496.5 157.5Q1526 188 1526 228Q1526 269 1497.0 299.5Q1468 330 1425 330H257Q214 330 185.0 299.0Q156 268 156 228Q156 188 186.0 157.5Q216 127 257 127Z" transform="translate(-1.8281,16.9922) scale(0.011719,-0.011719)"/>
  </g>
</svg>
