<svg xmlns="http://www.w3.org/2000/svg" viewBox="0 0 15.7852 16.8398" width="22.4969" height="24.0000">
  <g fill="black" stroke="black" stroke-width="0.25">
    <path d="M1158 745Q1158 728 1156.5 710.5Q1155 693 1151 677H508Q504 693 502.5 710.5Q501 728 501 745Q501 836 545.5 910.5Q590 985 665.0 1029.5Q740 1074 830 1074Q920 1074 994.5 1029.5Q1069 985 1113.5 910.5Q1158 836 1158 745ZM241 705Q207 705 181.5 729.5Q156 754 156 788Q156 822 181.5 846.5Q207 871 241 871H342Q378 871 403.0 846.5Q428 822 428 788Q428 754 403.0 729.5Q378 705 342 705ZM427 1029 355 1100Q329 1125 329.5 1160.0Q330 1195 353 1220Q378 1244 412.0 1244.0Q446 1244 472 1218L543 1145Q569 1119 569.5 1085.0Q570 1051 546 1026Q521 1002 487.0 1003.0Q453 1004 427 1029ZM912 1245Q912 1210 887.5 1184.5Q863 1159 830 1159Q795 1159 770.5 1184.5Q746 1210 746 1245V1345Q746 1381 770.5 1406.5Q795 1432 830 1432Q863 1432 887.5 1406.5Q912 1381 912 1345ZM1114 1026Q1089 1051 1089.5 1085.0Q1090 1119 1116 1145L1187 1218Q1213 1243 1247.0 1243.5Q1281 1244 1306 1220Q1330 1195 1330.0 1160.0Q1330 1125 1304 1100L1232 1029Q1206 1004 1172.5 1003.5Q1139 1003 1114 1026ZM1317 705Q1283 705 1257.0 729.5Q1231 754 1231 788Q1231 822 1257.0 846.5Q1283 871 1317 871H1418Q1453 871 1478.0 846.5Q1503 822 1503 788Q1503 754 1478.0 729.5Q1453 705 1418 705ZM254 385Q214 385 185.0 415.5Q156 446 156 485Q156 523 184.0 553.5Q212 584 254 584H1405Q1447 584 1475.0 554.0Q1503 524 1503 485Q1503 445 1474.5 415.0Q1446 385 1405 385ZM464 -5Q444 -5 432.5 10.0Q421 25 424 44L431 102L385 65Q370 53 352.0 55.0Q334 57 325 73Q314 91 321.0 109.0Q328 127 346 134L401 156L347 177Q328 186 321.5 203.5Q315 221 325 237Q334 253 352.0 256.0Q370 259 385 247L431 209L423 267Q420 287 432.0 302.0Q444 317 464 317Q483 317 495.0 302.0Q507 287 503 267L494 209L542 246Q556 258 574.5 255.0Q593 252 602 237Q612 221 605.5 203.0Q599 185 580 178L526 155L579 135Q599 128 605.5 109.5Q612 91 601 74Q592 58 575.0 55.5Q558 53 542 65L494 103L503 44Q507 25 495.0 10.0Q483 -5 464 -5ZM830 -5Q809 -5 797.5 10.0Q786 25 789 44L797 102L750 65Q735 53 717.0 55.0Q699 57 690 73Q680 91 686.5 109.0Q693 127 712 134L767 156L713 177Q694 186 687.0 203.5Q680 221 690 237Q699 253 717.0 256.0Q735 259 750 247L797 209L789 267Q786 287 797.5 302.0Q809 317 830 317Q849 317 860.5 302.0Q872 287 868 267L859 209L907 246Q922 258 940.0 255.0Q958 252 967 237Q977 221 970.5 203.0Q964 185 945 178L891 155L944 135Q964 128 971.0 109.5Q978 91 967 74Q958 58 940.5 55.5Q923 53 907 65L859 103L868 44Q872 25 860.5 10.0Q849 -5 830 -5ZM1195 -5Q1175 -5 1163.0 10.0Q1151 25 1155 44L1162 102L1116 65Q1101 53 1083.0 55.0Q1065 57 1055 73Q1045 91 1052.0 109.0Q1059 127 1077 134L1132 156L1078 177Q1059 186 1052.0 203.5Q1045 221 1056 237Q1065 253 1083.0 256.0Q1101 259 1116 247L1162 209L1154 267Q1150 287 1162.5 302.0Q1175 317 1195 317Q1214 317 1225.5 302.0Q1237 287 1234 267L1225 209L1273 246Q1287 258 1305.5 255.0Q1324 252 1333 237Q1343 221 1336.5 203.0Q1330 185 1311 178L1256 155L1310 135Q1330 128 1336.5 109.5Q1343 91 1332 74Q1323 58 1306.0 56.0Q1289 54 1273 65L1225 103L1234 44Q1237 25 1225.5 10.0Q1214 -5 1195 -5Z" transform="translate(-1.8281,16.7812) scale(0.011719,-0.011719)"/>
  </g>
</svg>
