<svg xmlns="http://www.w3.org/2000/svg" viewBox="0 0 36.3974 37.5530" width="23.2615" height="24.0000">
  <g fill="black" stroke="black" stroke-width="0.25">
    <path d="M2341 1507Q2258 1507 2189.5 1548.0Q2121 1589 2080.5 1657.0Q2040 1725 2040 1808Q2040 1891 2080.5 1959.0Q2121 2027 2189.5 2068.0Q2258 2109 2341 2109Q2423 2109 2491.5 2068.0Q2560 2027 2600.5 1959.0Q2641 1891 2641 1808Q2641 1725 2600.5 1657.0Q2560 1589 2491.5 1548.0Q2423 1507 2341 1507ZM1408 -173Q1354 -137 1344.5 -73.5Q1335 -10 1372 42L1577 330L1515 340Q1407 357 1337.5 414.0Q1268 471 1238.0 550.5Q1208 630 1219.0 717.5Q1230 805 1284 884L1610 1359Q1616 1368 1614.5 1379.0Q1613 1390 1603 1396L1213 1663Q1167 1695 1151.5 1742.5Q1136 1790 1151.0 1837.5Q1166 1885 1210 1917L1670 2245Q1721 2282 1784.0 2271.0Q1847 2260 1884 2208Q1922 2158 1911.5 2095.5Q1901 2033 1848 1994L1567 1792L2608 1083L3297 958Q3359 947 3394.5 894.0Q3430 841 3421 779Q3410 710 3353.5 677.0Q3297 644 3241 654L2520 786Q2487 793 2460 811L2138 1031Q2115 1047 2100 1025L1879 693Q1865 671 1872.5 652.0Q1880 633 1906 627L2432 500Q2495 485 2527.0 441.0Q2559 397 2560.0 343.5Q2561 290 2532 246L2149 -329Q2117 -379 2059.0 -394.5Q2001 -410 1937 -373Q1880 -340 1868.5 -276.0Q1857 -212 1892 -159L2155 234L1917 274L1621 -139Q1585 -189 1521.5 -198.5Q1458 -208 1408 -173ZM348 240Q375 271 419.0 277.0Q463 283 504 246Q678 91 902.0 -51.0Q1126 -193 1389.5 -312.5Q1653 -432 1945.5 -521.0Q2238 -610 2549.0 -659.0Q2860 -708 3178 -708Q3224 -708 3257.0 -740.5Q3290 -773 3290 -820Q3290 -866 3257.0 -898.5Q3224 -931 3178 -931Q2844 -931 2516.5 -879.0Q2189 -827 1880.5 -732.5Q1572 -638 1293.5 -511.5Q1015 -385 778.0 -235.0Q541 -85 358 77Q315 115 317.0 161.5Q319 208 348 240ZM437 -430Q394 -430 365.5 -410.5Q337 -391 326 -363Q313 -329 326.0 -290.5Q339 -252 381 -226Q442 -189 481.0 -161.0Q520 -133 551.5 -99.0Q583 -65 621 -9L879 -281Q761 -358 641.0 -394.0Q521 -430 437 -430Z" transform="translate(-3.7138,26.6428) scale(0.011719,-0.011719)"/>
  </g>
</svg>
