<svg xmlns="http://www.w3.org/2000/svg" viewBox="0 0 36.0000 21.5713" width="40.0532" height="24.0000">
  <g fill="black" stroke="black" stroke-width="0.25">
    <path d="M2579 920Q2496 920 2427.5 961.0Q2359 1002 2318.5 1070.0Q2278 1138 2278 1221Q2278 1304 2318.5 1372.5Q2359 1441 2427.5 1481.5Q2496 1522 2579 1522Q2662 1522 2730.0 1481.5Q2798 1441 2839.0 1372.5Q2880 1304 2880 1221Q2880 1138 2839.0 1070.0Q2798 1002 2730.0 961.0Q2662 920 2579 920ZM1382 733 1679 926Q1704 943 1705.0 965.0Q1706 987 1686 1007L1480 1219L1087 942Q1024 898 964.0 908.5Q904 919 868 960Q825 1007 825.0 1077.0Q825 1147 900 1199L1403 1557Q1463 1599 1529.5 1593.0Q1596 1587 1644 1537L2401 751Q2303 739 2230.5 707.0Q2158 675 2098.5 638.5Q2039 602 1979.5 576.0Q1920 550 1847 550Q1763 550 1695.0 584.5Q1627 619 1553.5 662.5Q1480 706 1382 733ZM414 158Q371 158 341.0 187.5Q311 217 311 260Q311 303 341.0 333.0Q371 363 414 363H558Q625 363 678.0 384.0Q731 405 781.5 435.5Q832 466 889.5 497.0Q947 528 1022.5 549.0Q1098 570 1203 570Q1321 570 1406.0 538.5Q1491 507 1559.5 466.5Q1628 426 1696.0 394.5Q1764 363 1847 363Q1931 363 1998.5 394.5Q2066 426 2135.0 466.5Q2204 507 2289.0 538.5Q2374 570 2492 570Q2596 570 2671.5 549.0Q2747 528 2805.0 497.0Q2863 466 2913.5 435.5Q2964 405 3016.5 384.0Q3069 363 3136 363H3281Q3323 363 3353.0 333.0Q3383 303 3383 260Q3383 217 3353.0 187.5Q3323 158 3281 158H3136Q3027 158 2949.5 178.5Q2872 199 2814.0 230.0Q2756 261 2707.0 291.5Q2658 322 2607.0 343.0Q2556 364 2492 364Q2438 364 2390.0 343.0Q2342 322 2291.5 291.5Q2241 261 2179.5 230.0Q2118 199 2037.0 178.5Q1956 158 1847 158Q1738 158 1657.5 178.5Q1577 199 1515.5 230.0Q1454 261 1403.5 291.5Q1353 322 1305.0 343.0Q1257 364 1203 364Q1139 364 1088.0 343.0Q1037 322 987.5 291.5Q938 261 880.0 230.0Q822 199 744.5 178.5Q667 158 558 158ZM430 -247Q393 -247 367.0 -221.0Q341 -195 341 -158Q341 -121 367.0 -95.0Q393 -69 430 -69Q467 -69 493.5 -95.0Q520 -121 520 -158Q520 -195 493.5 -221.0Q467 -247 430 -247ZM674 -204Q637 -204 611.0 -178.0Q585 -152 585 -115Q585 -78 611.0 -52.0Q637 -26 674 -26Q711 -26 737.0 -52.0Q763 -78 763 -115Q763 -152 737.0 -178.0Q711 -204 674 -204ZM899 -98Q862 -98 835.5 -72.0Q809 -46 809 -9Q809 28 835.5 54.0Q862 80 899 80Q936 80 962.0 54.0Q988 28 988 -9Q988 -46 962.0 -72.0Q936 -98 899 -98ZM1139 -28Q1102 -28 1076.0 -2.0Q1050 24 1050 61Q1050 98 1076.0 124.0Q1102 150 1139 150Q1176 150 1202.0 124.0Q1228 98 1228 61Q1228 24 1202.0 -2.0Q1176 -28 1139 -28ZM1379 -98Q1342 -98 1315.5 -72.0Q1289 -46 1289 -9Q1289 28 1315.5 54.0Q1342 80 1379 80Q1415 80 1441.5 54.0Q1468 28 1468 -9Q1468 -46 1441.5 -72.0Q1415 -98 1379 -98ZM1603 -204Q1566 -204 1540.0 -178.0Q1514 -152 1514 -115Q1514 -78 1540.0 -52.0Q1566 -26 1603 -26Q1640 -26 1666.5 -52.0Q1693 -78 1693 -115Q1693 -152 1666.5 -178.0Q1640 -204 1603 -204ZM1848 -247Q1811 -247 1784.5 -221.0Q1758 -195 1758 -158Q1758 -121 1784.5 -95.0Q1811 -69 1848 -69Q1885 -69 1911.0 -95.0Q1937 -121 1937 -158Q1937 -195 1911.0 -221.0Q1885 -247 1848 -247ZM2092 -204Q2055 -204 2029.0 -178.0Q2003 -152 2003 -115Q2003 -78 2029.0 -52.0Q2055 -26 2092 -26Q2129 -26 2155.0 -52.0Q2181 -78 2181 -115Q2181 -152 2155.0 -178.0Q2129 -204 2092 -204ZM2317 -98Q2280 -98 2254.0 -72.0Q2228 -46 2228 -9Q2228 28 2254.0 54.0Q2280 80 2317 80Q2354 80 2380.0 54.0Q2406 28 2406 -9Q2406 -46 2380.0 -72.0Q2354 -98 2317 -98ZM2556 -28Q2519 -28 2493.0 -2.0Q2467 24 2467 61Q2467 98 2493.0 124.0Q2519 150 2556 150Q2593 150 2619.0 124.0Q2645 98 2645 61Q2645 24 2619.0 -2.0Q2593 -28 2556 -28ZM2797 -98Q2760 -98 2734.0 -72.0Q2708 -46 2708 -9Q2708 28 2734.0 54.0Q2760 80 2797 80Q2834 80 2860.0 54.0Q2886 28 2886 -9Q2886 -46 2860.0 -72.0Q2834 -98 2797 -98ZM3021 -204Q2984 -204 2958.0 -178.0Q2932 -152 2932 -115Q2932 -78 2958.0 -52.0Q2984 -26 3021 -26Q3058 -26 3084.0 -52.0Q3110 -78 3110 -115Q3110 -152 3084.0 -178.0Q3058 -204 3021 -204ZM3265 -247Q3228 -247 3202.0 -221.0Q3176 -195 3176 -158Q3176 -121 3202.0 -95.0Q3228 -69 3265 -69Q3302 -69 3328.0 -95.0Q3354 -121 3354 -158Q3354 -195 3328.0 -221.0Q3302 -247 3265 -247Z" transform="translate(-3.6445,18.6768) scale(0.011719,-0.011719)"/>
  </g>
</svg>
