<svg xmlns="http://www.w3.org/2000/svg" viewBox="0 0 16.1295 16.1318" width="23.9966" height="24.0000">
  <g fill="black" stroke="black" stroke-width="0.25">
    <path d="M556 43Q629 -28 707.5 -37.5Q786 -47 860 27L1461 626Q1495 660 1513.5 690.0Q1532 720 1532 776V1006Q1532 1055 1519.5 1086.5Q1507 1118 1473 1153L1348 1278Q1314 1311 1282.5 1324.5Q1251 1338 1202 1338H968Q913 1338 882.5 1320.0Q852 1302 818 1268L221 669Q148 596 156.5 516.5Q165 437 236 365ZM1019 828Q985 861 985.0 910.5Q985 960 1020 994Q1055 1028 1103.5 1028.0Q1152 1028 1186 994Q1220 961 1220.5 912.0Q1221 863 1186 829Q1151 794 1102.0 793.5Q1053 793 1019 828Z" transform="translate(-1.8236,15.6797) scale(0.011719,-0.011719)"/>
  </g>
</svg>
