<svg xmlns="http://www.w3.org/2000/svg" viewBox="0 0 32.8789 37.6172" width="20.9769" height="24.0000">
  <g fill="black" stroke="black" stroke-width="0.25">
    <path d="M1712 419Q1525 419 1360.0 489.5Q1195 560 1069.0 684.5Q943 809 870.0 973.0Q797 1137 795 1324Q795 1328 795.0 1333.0Q795 1338 795 1343Q690 1367 608.5 1433.5Q527 1500 480.5 1595.5Q434 1691 434 1804Q434 1936 499.5 2045.0Q565 2154 674.0 2218.5Q783 2283 915 2283Q1015 2283 1105.5 2244.5Q1196 2206 1262 2134Q1366 2192 1481.5 2222.0Q1597 2252 1712 2252Q1827 2252 1942.5 2222.0Q2058 2192 2162 2134Q2228 2206 2318.5 2244.5Q2409 2283 2509 2283Q2641 2283 2750.0 2218.5Q2859 2154 2924.5 2045.0Q2990 1936 2990 1804Q2990 1691 2943.5 1595.5Q2897 1500 2815.5 1433.5Q2734 1367 2629 1343Q2629 1338 2629.0 1333.0Q2629 1328 2629 1324Q2627 1137 2554.5 973.0Q2482 809 2355.5 684.5Q2229 560 2064.0 489.5Q1899 419 1712 419ZM1712 699Q1843 699 1958.5 748.5Q2074 798 2161.5 886.0Q2249 974 2298.5 1089.0Q2348 1204 2348 1335Q2348 1364 2343.0 1415.5Q2338 1467 2308 1569L2356 1612Q2396 1598 2430.0 1592.5Q2464 1587 2502 1587Q2560 1587 2608.0 1615.5Q2656 1644 2684.5 1692.0Q2713 1740 2713 1798Q2713 1855 2684.5 1902.0Q2656 1949 2608.0 1977.5Q2560 2006 2502 2006Q2417 2006 2355.5 1944.5Q2294 1883 2294 1798Q2294 1777 2296.5 1762.0Q2299 1747 2302 1733L2227 1712Q2129 1839 1997.0 1906.0Q1865 1973 1712 1973Q1559 1973 1427.0 1906.0Q1295 1839 1197 1712L1122 1733Q1125 1747 1127.5 1762.0Q1130 1777 1130 1798Q1130 1883 1068.5 1944.5Q1007 2006 922 2006Q864 2006 816.0 1977.5Q768 1949 739.5 1902.0Q711 1855 711 1798Q711 1740 739.5 1692.0Q768 1644 816.0 1615.5Q864 1587 922 1587Q960 1587 994.0 1592.5Q1028 1598 1068 1612L1116 1569Q1086 1467 1081.0 1415.5Q1076 1364 1076 1335Q1076 1204 1125.5 1089.0Q1175 974 1262.5 886.0Q1350 798 1465.5 748.5Q1581 699 1712 699ZM1715 523Q1594 523 1495.5 581.0Q1397 639 1338.5 737.5Q1280 836 1280 956Q1280 1075 1339.0 1174.0Q1398 1273 1496.5 1332.0Q1595 1391 1715 1391Q1835 1391 1933.5 1332.5Q2032 1274 2091.0 1175.0Q2150 1076 2150 956Q2150 837 2091.0 738.5Q2032 640 1933.0 581.5Q1834 523 1715 523ZM1715 727Q1778 727 1829.5 758.0Q1881 789 1912.0 841.0Q1943 893 1943 956Q1943 1019 1912.0 1071.0Q1881 1123 1829.5 1154.0Q1778 1185 1715 1185Q1651 1185 1599.0 1154.0Q1547 1123 1516.5 1071.0Q1486 1019 1486 956Q1486 893 1516.5 841.0Q1547 789 1599.0 758.0Q1651 727 1715 727ZM1409 1389Q1364 1389 1330.0 1422.5Q1296 1456 1296 1504Q1296 1550 1330.0 1584.0Q1364 1618 1409 1618Q1455 1618 1489.0 1584.0Q1523 1550 1523 1504Q1523 1456 1489.0 1422.5Q1455 1389 1409 1389ZM2017 1389Q1970 1389 1936.0 1422.5Q1902 1456 1902 1504Q1902 1550 1936.0 1584.0Q1970 1618 2017 1618Q2062 1618 2096.0 1584.0Q2130 1550 2130 1504Q2130 1456 2096.0 1422.5Q2062 1389 2017 1389ZM1712 925Q1688 925 1660.5 939.0Q1633 953 1608.5 973.0Q1584 993 1568.0 1011.5Q1552 1030 1552 1040Q1552 1060 1573.0 1083.0Q1594 1106 1630.5 1122.0Q1667 1138 1712 1138Q1757 1138 1792.5 1122.0Q1828 1106 1848.5 1083.0Q1869 1060 1869 1040Q1869 1030 1853.5 1011.5Q1838 993 1814.0 973.0Q1790 953 1763.0 939.0Q1736 925 1712 925ZM1128 -927Q1018 -927 922.5 -875.5Q827 -824 755.0 -732.5Q683 -641 642.5 -519.5Q602 -398 602 -259Q602 -121 642.5 0.0Q683 121 755.0 212.0Q827 303 922.5 354.5Q1018 406 1128 406Q1238 406 1333.5 354.5Q1429 303 1500.5 212.0Q1572 121 1612.5 0.0Q1653 -121 1653 -259Q1653 -398 1612.5 -519.5Q1572 -641 1500.5 -732.5Q1429 -824 1333.5 -875.5Q1238 -927 1128 -927ZM1128 -630Q1188 -630 1240.0 -579.5Q1292 -529 1324.0 -444.5Q1356 -360 1356 -259Q1356 -159 1324.0 -75.0Q1292 9 1240.0 59.0Q1188 109 1128 109Q1068 109 1016.0 59.0Q964 9 932.0 -75.0Q900 -159 900 -259Q900 -360 932.0 -444.5Q964 -529 1016.0 -579.5Q1068 -630 1128 -630ZM2299 -927Q2189 -927 2093.5 -875.5Q1998 -824 1926.5 -732.5Q1855 -641 1814.5 -519.5Q1774 -398 1774 -259Q1774 -121 1814.5 0.0Q1855 121 1926.5 212.0Q1998 303 2093.5 354.5Q2189 406 2299 406Q2409 406 2504.5 354.5Q2600 303 2672.0 212.0Q2744 121 2784.5 0.0Q2825 -121 2825 -259Q2825 -398 2784.5 -519.5Q2744 -641 2672.0 -732.5Q2600 -824 2504.5 -875.5Q2409 -927 2299 -927ZM2299 -630Q2359 -630 2411.0 -579.5Q2463 -529 2495.0 -444.5Q2527 -360 2527 -259Q2527 -159 2495.0 -75.0Q2463 9 2411.0 59.0Q2359 109 2299 109Q2239 109 2187.0 59.0Q2135 9 2103.5 -75.0Q2072 -159 2072 -259Q2072 -360 2103.5 -444.5Q2135 -529 2187.0 -579.5Q2239 -630 2299 -630ZM806 -215Q664 -213 542.5 -136.0Q421 -59 359 74Q300 199 313.5 332.0Q327 465 402.5 575.5Q478 686 605 743L1108 973L1244 677L742 449Q695 428 668.5 389.0Q642 350 637.5 303.5Q633 257 654 211Q674 165 716.0 138.0Q758 111 806 108ZM2621 -216V108Q2670 111 2711.5 138.0Q2753 165 2773 211Q2794 257 2789.5 303.5Q2785 350 2758.5 389.0Q2732 428 2685 449L2183 677L2319 973L2822 743Q2949 686 3024.5 575.5Q3100 465 3114.0 332.0Q3128 199 3068 74Q3005 -59 2883.5 -136.5Q2762 -214 2621 -216ZM1394 -778 1403 -444Q1709 -529 2020 -443L2029 -777Q1864 -811 1711.0 -811.0Q1558 -811 1394 -778Z" transform="translate(-3.6444,26.7539) scale(0.011719,-0.011719)"/>
  </g>
</svg>
