<svg xmlns="http://www.w3.org/2000/svg" viewBox="0 0 14.5624 14.5564" width="24.0099" height="24.0000">
  <g fill="black" stroke="black" stroke-width="0.25">
    <path d="M1301 1229Q1374 1157 1392.5 1056.5Q1411 956 1378.0 852.0Q1345 748 1262 664Q1190 594 1104.0 562.5Q1018 531 929 527Q842 523 777.0 512.5Q712 502 649.5 465.5Q587 429 508 348L420 434Q501 513 538.0 576.0Q575 639 586.0 704.5Q597 770 600 858Q602 946 634.5 1032.5Q667 1119 736 1190Q819 1273 923.0 1306.0Q1027 1339 1127.5 1320.5Q1228 1302 1301 1229ZM1206 1134Q1159 1183 1094.0 1193.5Q1029 1204 960.5 1179.0Q892 1154 834 1096Q774 1036 748.5 967.0Q723 898 733.5 833.0Q744 768 792 721Q840 673 905.0 662.0Q970 651 1038.5 676.0Q1107 701 1167 760Q1226 819 1251.0 888.0Q1276 957 1265.0 1022.0Q1254 1087 1206 1134ZM181 147Q156 172 156.5 204.0Q157 236 181 261L396 478Q421 503 453.5 503.0Q486 503 511 478L547 441Q572 415 572.0 383.5Q572 352 547 325L333 110Q308 85 274.5 85.0Q241 85 216 110ZM1251 764 847 1169 909 1231 1314 827ZM1108 621 704 1026 766 1088 1171 684ZM704 827 1108 1231 1185 1183 742 740ZM829 663 1264 1103 1314 1026 909 621Z" transform="translate(-1.8339,15.5525) scale(0.011719,-0.011719)"/>
  </g>
</svg>
