<svg xmlns="http://www.w3.org/2000/svg" viewBox="0 0 16.9545 12.1641" width="33.4517" height="24.0000">
  <g fill="black" stroke="black" stroke-width="0.25">
    <path d="M653 241Q598 241 576.0 284.5Q554 328 578 377L1004 1227Q1031 1279 1083 1279Q1137 1279 1165 1226L1590 377Q1614 328 1592.5 284.5Q1571 241 1514 241ZM838 361H1006L1083 686L1160 361H1329L1130 797Q1116 827 1084.0 827.0Q1052 827 1039 797ZM596 528H682L622 407H235Q185 407 165.5 445.5Q146 484 166 528L478 1149Q502 1197 551 1197Q598 1197 624 1149L809 779L698 559L583 810Q574 832 551.5 833.0Q529 834 519 810L388 528H503L551 722Z" transform="translate(-1.8266,14.9883) scale(0.011719,-0.011719)"/>
  </g>
</svg>
