<svg xmlns="http://www.w3.org/2000/svg" viewBox="0 0 15.1389 15.0088" width="24.2081" height="24.0000">
  <g fill="black" stroke="black" stroke-width="0.25">
    <path d="M266 124H1337Q1407 124 1434.5 178.0Q1462 232 1431 293L908 1338Q885 1383 843.0 1397.5Q801 1412 759.5 1397.5Q718 1383 695 1338L172 293Q141 232 168.5 178.0Q196 124 266 124ZM496 274 744 814Q763 854 801 854Q842 854 859 814L1106 274H896L801 677L706 274Z" transform="translate(-1.8231,16.4619) scale(0.011719,-0.011719)"/>
  </g>
</svg>
