<svg xmlns="http://www.w3.org/2000/svg" viewBox="0 0 14.4961 11.7773" width="29.5403" height="24.0000">
  <g fill="black" stroke="black" stroke-width="0.25">
    <path d="M349 179Q257 179 206.5 229.0Q156 279 156 372V992Q156 1084 206.5 1134.0Q257 1184 349 1184H1200Q1293 1184 1343.0 1134.0Q1393 1084 1393 992V372Q1393 279 1343.0 229.0Q1293 179 1200 179ZM378 769Q346 750 349.0 720.0Q352 690 377.5 673.0Q403 656 438 678L583 769Q615 790 614.5 828.0Q614 866 583 886L438 977Q403 999 377.5 982.0Q352 965 348.5 934.5Q345 904 377 885L473 827ZM630 691Q630 670 645.5 654.0Q661 638 683 638H879Q902 638 918.0 654.0Q934 670 934 691Q934 713 918.0 729.0Q902 745 879 745H683Q661 745 645.5 729.0Q630 713 630 691Z" transform="translate(-1.8281,13.8750) scale(0.011719,-0.011719)"/>
  </g>
</svg>
