<svg xmlns="http://www.w3.org/2000/svg" viewBox="0 0 35.8828 33.0820" width="26.0319" height="24.0000">
  <g fill="black" stroke="black" stroke-width="0.25">
    <path d="M484 1753Q410 1753 360.5 1803.0Q311 1853 311 1925Q311 1998 360.5 2047.5Q410 2097 484 2097H1569Q1641 2097 1691.5 2046.5Q1742 1996 1742 1925Q1742 1855 1691.0 1804.0Q1640 1753 1569 1753ZM1026 -726Q845 -726 714.5 -657.5Q584 -589 514.0 -462.0Q444 -335 444 -159V1974H778V-159Q778 -269 844.0 -333.0Q910 -397 1026 -397Q1140 -397 1206.5 -333.0Q1273 -269 1273 -159V1974H1604V-159Q1604 -335 1534.5 -462.0Q1465 -589 1335.5 -657.5Q1206 -726 1026 -726ZM1346 1462V-159Q1346 -300 1258.0 -385.0Q1170 -470 1026 -470Q880 -470 792.0 -385.0Q704 -300 704 -159V1462ZM778 1021H993Q1032 1021 1058.0 1048.0Q1084 1075 1084 1114Q1084 1151 1057.5 1177.0Q1031 1203 992 1203H778ZM778 625H993Q1032 625 1058.0 651.5Q1084 678 1084 718Q1084 756 1058.0 782.0Q1032 808 993 808H778ZM778 228H992Q1032 228 1058.0 254.0Q1084 280 1084 318Q1084 357 1057.5 383.5Q1031 410 992 410H778ZM2115 1753Q2041 1753 1991.5 1803.0Q1942 1853 1942 1925Q1942 1998 1991.0 2047.5Q2040 2097 2115 2097H3200Q3271 2097 3322.0 2046.5Q3373 1996 3373 1925Q3373 1855 3321.5 1804.0Q3270 1753 3200 1753ZM2657 -726Q2475 -726 2345.0 -657.5Q2215 -589 2145.0 -462.0Q2075 -335 2075 -159V1974H2408V-159Q2408 -269 2474.5 -333.0Q2541 -397 2657 -397Q2771 -397 2837.0 -333.0Q2903 -269 2903 -159V1974H3235V-159Q3235 -335 3165.0 -462.0Q3095 -589 2965.5 -657.5Q2836 -726 2657 -726ZM2977 15V-159Q2977 -300 2889.0 -385.0Q2801 -470 2657 -470Q2511 -470 2423.0 -385.0Q2335 -300 2335 -159V15ZM2346 1021V1203H2623Q2662 1203 2688.5 1177.0Q2715 1151 2715 1114Q2715 1075 2688.5 1048.0Q2662 1021 2623 1021ZM2346 625V808H2623Q2662 808 2688.5 782.0Q2715 756 2715 718Q2715 678 2688.5 651.5Q2662 625 2623 625ZM2346 228V410H2623Q2662 410 2688.0 383.5Q2714 357 2714 318Q2715 280 2689.0 254.0Q2663 228 2623 228Z" transform="translate(-3.6445,24.5742) scale(0.011719,-0.011719)"/>
  </g>
</svg>
