<svg xmlns="http://www.w3.org/2000/svg" viewBox="0 0 33.8789 32.0391" width="25.3782" height="24.0000">
  <g fill="black" stroke="black" stroke-width="0.25">
    <path d="M1225 -748Q1117 -748 1054.5 -679.5Q992 -611 992 -492V-249H906Q741 -249 606.5 -171.5Q472 -94 391.5 47.0Q311 188 311 379V1358Q311 1550 388.0 1691.0Q465 1832 606.0 1909.0Q747 1986 939 1986H2574Q2766 1986 2907.0 1909.0Q3048 1832 3125.0 1691.0Q3202 1550 3202 1358V379Q3202 188 3125.0 47.0Q3048 -94 2907.0 -171.5Q2766 -249 2574 -249H1933L1528 -602Q1436 -682 1367.5 -715.0Q1299 -748 1225 -748ZM1318 -315 1693 54Q1746 106 1787.0 124.5Q1828 143 1900 143H2544Q2633 143 2692.0 172.0Q2751 201 2780.5 260.0Q2810 319 2810 409V1329Q2810 1418 2780.5 1477.0Q2751 1536 2692.0 1565.0Q2633 1594 2544 1594H969Q880 1594 821.0 1565.0Q762 1536 732.5 1477.0Q703 1418 703 1329V409Q703 319 732.5 260.0Q762 201 821.0 172.0Q880 143 969 143H1189Q1249 143 1283.5 113.5Q1318 84 1318 14ZM1042 716Q999 716 968.5 749.0Q938 782 938 826Q938 869 968.5 901.5Q999 934 1042 934H1399Q1444 934 1475.0 902.0Q1506 870 1506 826Q1506 782 1475.0 749.0Q1444 716 1399 716ZM1665 716Q1623 716 1592.5 749.0Q1562 782 1562 826Q1562 869 1592.0 901.5Q1622 934 1665 934H2469Q2514 934 2545.0 902.0Q2576 870 2576 826Q2576 782 2545.0 749.0Q2514 716 2469 716ZM1042 386Q999 386 968.5 418.5Q938 451 938 494Q938 538 968.5 571.0Q999 604 1042 604H1213Q1257 604 1288.5 571.5Q1320 539 1320 494Q1320 451 1288.5 418.5Q1257 386 1213 386ZM1479 386Q1436 386 1405.5 418.5Q1375 451 1375 494Q1375 538 1405.0 571.0Q1435 604 1479 604H1974Q2018 604 2049.5 571.5Q2081 539 2081 494Q2081 451 2049.5 418.5Q2018 386 1974 386ZM2240 386Q2198 386 2167.0 418.5Q2136 451 2136 494Q2136 538 2166.5 571.0Q2197 604 2240 604H2469Q2513 604 2544.5 571.5Q2576 539 2576 494Q2576 451 2544.5 418.5Q2513 386 2469 386Z" transform="translate(-3.6445,23.2734) scale(0.011719,-0.011719)"/>
  </g>
</svg>
