<svg xmlns="http://www.w3.org/2000/svg" viewBox="0 0 17.7149 12.9722" width="32.7745" height="24.0000">
  <g fill="black" stroke="black" stroke-width="0.25">
    <path d="M752 237Q569 188 437.0 268.0Q305 348 255 539L165 877Q123 1028 274 1067L752 1194Q903 1232 941 1087L1034 748Q1085 556 1010.5 421.5Q936 287 752 237ZM703 420Q780 439 826.0 493.0Q872 547 876 619Q878 634 867.0 639.5Q856 645 844 635Q809 612 760.5 591.0Q712 570 666 557Q620 546 567.5 540.0Q515 534 473 538Q459 538 452.0 528.0Q445 518 454 507Q493 449 560.5 424.5Q628 400 703 420ZM457 738Q483 746 498.5 738.0Q514 730 529 735Q535 738 537.0 745.0Q539 752 535 764Q526 794 498.0 810.0Q470 826 438 818Q406 811 388.5 782.0Q371 753 381 720Q389 699 400 702Q413 704 421.5 717.0Q430 730 457 738ZM755 818Q780 826 796.0 818.0Q812 810 825 815Q830 817 833.0 824.5Q836 832 831 842Q823 875 795.0 890.5Q767 906 734 899Q703 892 686.0 862.0Q669 832 677 802Q682 793 687.5 786.5Q693 780 698 783Q710 783 718.5 797.0Q727 811 755 818ZM1550 941Q1701 902 1658 753L1569 415Q1517 224 1385.5 144.5Q1254 65 1072 113Q968 142 902 194Q1035 265 1096 389Q1107 388 1117.5 385.0Q1128 382 1137 379Q1175 368 1207.0 351.0Q1239 334 1275 300Q1286 288 1298.5 293.5Q1311 299 1311 315Q1307 371 1267.0 414.0Q1227 457 1164 473Q1157 475 1148.0 476.0Q1139 477 1131 479Q1168 616 1123 773L1041 1076Q1047 1075 1055.5 1073.5Q1064 1072 1072 1070ZM1344 560Q1369 554 1391.5 567.5Q1414 581 1424 606Q1430 632 1416.5 654.5Q1403 677 1378 684Q1351 691 1328.5 678.0Q1306 665 1300 640Q1292 614 1305.5 590.0Q1319 566 1344 560Z" transform="translate(-1.8265,14.0847) scale(0.011719,-0.011719)"/>
  </g>
</svg>
