<svg xmlns="http://www.w3.org/2000/svg" viewBox="0 0 8.9297 12.8086" width="16.7319" height="24.0000">
  <g fill="black" stroke="black" stroke-width="0.25">
    <path d="M415 134Q343 134 284.0 169.0Q225 204 190.5 262.5Q156 321 156 394Q156 469 194.0 526.5Q232 584 286 617Q311 632 321.0 651.5Q331 671 331 701V1141Q331 1179 355.5 1203.0Q380 1227 415 1227Q449 1227 473.5 1203.0Q498 1179 498 1141V701Q498 671 508.5 651.5Q519 632 543 617Q597 584 635.0 526.5Q673 469 673 394Q673 321 638.5 262.5Q604 204 545.5 169.0Q487 134 415 134ZM686 1047Q660 1047 642.5 1064.5Q625 1082 625 1109Q625 1135 642.5 1152.5Q660 1170 686 1170H856Q883 1170 900.5 1153.0Q918 1136 918 1109Q918 1082 900.0 1064.5Q882 1047 856 1047ZM686 855Q660 855 642.5 872.5Q625 890 625 916Q625 942 642.5 960.0Q660 978 686 978H856Q883 978 900.5 960.5Q918 943 918 916Q918 890 900.5 872.5Q883 855 856 855ZM686 659Q660 659 642.5 676.5Q625 694 625 721Q625 747 642.5 764.5Q660 782 686 782H856Q883 782 900.5 765.0Q918 748 918 721Q918 693 900.5 676.0Q883 659 856 659Z" transform="translate(-1.8281,14.3789) scale(0.011719,-0.011719)"/>
  </g>
</svg>
