<svg xmlns="http://www.w3.org/2000/svg" viewBox="0 0 33.9232 33.9173" width="24.0041" height="24.0000">
  <g fill="black" stroke="black" stroke-width="0.25">
    <path d="M584 -127 683 -29Q769 56 811.5 150.5Q854 245 879.5 348.0Q905 451 936.5 560.0Q968 669 1029.5 783.5Q1091 898 1208 1016L2115 1924Q2241 2050 2393.0 2091.0Q2545 2132 2698.0 2088.0Q2851 2044 2979 1914Q3109 1786 3153.0 1633.5Q3197 1481 3156.0 1329.0Q3115 1177 2989 1050L2082 143Q1972 33 1859.5 -26.0Q1747 -85 1636.0 -117.5Q1525 -150 1419.0 -178.0Q1313 -206 1215.5 -251.0Q1118 -296 1033 -382L937 -480ZM1204 273 1352 125Q1432 155 1511.5 186.0Q1591 217 1670.5 265.0Q1750 313 1830 393L2738 1300Q2790 1352 2806.0 1416.0Q2822 1480 2802.5 1545.0Q2783 1610 2729 1664Q2675 1718 2610.0 1737.5Q2545 1757 2481.5 1740.5Q2418 1724 2365 1672L1458 765Q1379 686 1333.0 604.5Q1287 523 1258.5 440.0Q1230 357 1204 273ZM361 -351 421 -291 773 -644 716 -703Q636 -783 538.0 -783.5Q440 -784 361 -705Q281 -625 281.0 -528.0Q281 -431 361 -351ZM1711 644Q1650 704 1650.0 781.0Q1650 858 1711 918L2074 1281Q2135 1342 2210.5 1342.0Q2286 1342 2345 1281Q2406 1222 2406.0 1147.0Q2406 1072 2345 1010L1982 645Q1922 586 1846.0 585.5Q1770 585 1711 644ZM1823 757Q1833 747 1847.5 747.0Q1862 747 1872 758L2234 1122Q2240 1129 2242.5 1137.0Q2245 1145 2242.5 1153.0Q2240 1161 2234 1168Q2223 1179 2209.5 1180.0Q2196 1181 2186 1170L1823 805Q1812 795 1812.0 781.5Q1812 768 1823 757ZM1458 519Q1432 545 1434.0 579.5Q1436 614 1458 636Q1482 661 1515.0 661.5Q1548 662 1575 636L1700 513Q1728 485 1726.0 451.5Q1724 418 1700 395Q1678 372 1644.5 370.0Q1611 368 1583 396ZM2061 1679 2217 1839 2901 1155 2743 997Z" transform="translate(-3.2930,24.7357) scale(0.011719,-0.011719)"/>
  </g>
</svg>
