<svg xmlns="http://www.w3.org/2000/svg" viewBox="0 0 46.5996 24.7564" width="45.1759" height="24.0000">
  <g fill="black" stroke="black" stroke-width="0.25">
    <path d="M408 67Q344 112 322.0 174.5Q300 237 321.5 300.0Q343 363 408 408L972 801Q1041 849 1126.0 849.0Q1211 849 1280 801L1844 408Q1909 363 1930.0 300.0Q1951 237 1929.5 174.5Q1908 112 1844 67L1288 -321Q1215 -371 1128.0 -372.5Q1041 -374 972 -326ZM1582 957Q1517 1002 1495.5 1065.0Q1474 1128 1495.5 1190.5Q1517 1253 1582 1299L2146 1692Q2215 1740 2299.5 1740.0Q2384 1740 2453 1692L3017 1299Q3082 1253 3103.5 1190.5Q3125 1128 3103.0 1065.0Q3081 1002 3017 957L2461 570Q2388 519 2301.5 518.0Q2215 517 2146 565ZM2755 67Q2691 112 2669.5 174.5Q2648 237 2669.0 300.0Q2690 363 2755 408L3319 801Q3388 849 3472.5 849.0Q3557 849 3627 801L4191 408Q4256 363 4277.0 300.0Q4298 237 4276.5 174.5Q4255 112 4191 67L3627 -326Q3557 -374 3470.5 -372.5Q3384 -371 3311 -321Z" transform="translate(-3.6430,20.3906) scale(0.011719,-0.011719)"/>
  </g>
</svg>
