<svg xmlns="http://www.w3.org/2000/svg" viewBox="0 0 31.1250 32.1682" width="23.2217" height="24.0000">
  <g fill="black" stroke="black" stroke-width="0.25">
    <path d="M663 -473Q530 -473 437.5 -417.0Q345 -361 297.5 -268.5Q250 -176 250 -65Q250 -3 270.5 49.0Q291 101 320 152L585 626Q622 692 695.0 715.5Q768 739 837 700Q907 660 926.0 585.5Q945 511 908 445L672 19Q664 6 658.0 -10.5Q652 -27 652 -41Q652 -69 671.5 -87.0Q691 -105 723 -105H1169Q1249 -105 1301.5 -157.0Q1354 -209 1354 -289Q1354 -369 1301.5 -421.0Q1249 -473 1169 -473ZM1042 208Q978 190 921.5 224.0Q865 258 849 329L782 607L508 523Q441 502 384.5 534.0Q328 566 309 629Q291 690 322.5 746.0Q354 802 421 821L809 932Q853 945 890.0 941.0Q927 937 962 916Q997 897 1018.5 866.5Q1040 836 1051 792L1149 401Q1166 334 1134.5 280.0Q1103 226 1042 208ZM1892 1092 1641 1541Q1631 1559 1613.5 1567.5Q1596 1576 1577 1576Q1559 1576 1540.5 1568.0Q1522 1560 1512 1543L1289 1140Q1251 1070 1180.0 1051.5Q1109 1033 1038 1072Q967 1111 951.0 1182.0Q935 1253 975 1324L1235 1788Q1293 1890 1385.0 1938.5Q1477 1987 1578 1987Q1679 1987 1771.5 1937.5Q1864 1888 1921 1788L2208 1275Q2247 1205 2228.0 1133.0Q2209 1061 2143 1021Q2074 980 2003.0 1000.0Q1932 1020 1892 1092ZM2116 779 1728 890Q1661 909 1630.0 963.5Q1599 1018 1614 1080Q1630 1145 1688.0 1176.0Q1746 1207 1815 1187L2088 1106L2154 1385Q2169 1454 2224.5 1487.0Q2280 1520 2344 1504Q2407 1489 2439.5 1434.0Q2472 1379 2455 1311L2357 920Q2346 876 2324.0 846.0Q2302 816 2267 795Q2232 775 2195.0 771.5Q2158 768 2116 779ZM1915 -473Q1834 -473 1781.0 -421.0Q1728 -369 1728 -289Q1728 -209 1781.0 -157.0Q1834 -105 1915 -105H2433Q2465 -105 2484.5 -87.0Q2504 -69 2504 -41Q2504 -27 2497.5 -10.5Q2491 6 2484 19L2278 391Q2241 458 2260.5 531.0Q2280 604 2349 643Q2419 682 2490.0 663.0Q2561 644 2601 573L2836 152Q2866 99 2886.0 48.0Q2906 -3 2906 -65Q2906 -176 2858.5 -268.5Q2811 -361 2718.5 -417.0Q2626 -473 2492 -473ZM1887 -715 1592 -429Q1560 -398 1544.5 -364.0Q1529 -330 1529 -289Q1529 -249 1544.5 -215.0Q1560 -181 1592 -150L1882 130Q1931 178 1994.0 178.0Q2057 178 2102 133Q2150 88 2148.5 22.0Q2147 -44 2095 -94L1887 -289L2096 -486Q2147 -535 2148.5 -599.5Q2150 -664 2104 -711Q2060 -757 1996.5 -758.0Q1933 -759 1887 -715Z" transform="translate(-2.9297,23.2852) scale(0.011719,-0.011719)"/>
  </g>
</svg>
