<svg xmlns="http://www.w3.org/2000/svg" viewBox="0 0 13.8867 14.2969" width="23.3115" height="24.0000">
  <g fill="black" stroke="black" stroke-width="0.25">
    <path d="M156 521Q156 615 187.5 690.0Q219 765 274.0 809.0Q329 853 398 853H461Q415 784 388.5 705.0Q362 626 361 526Q359 425 396.0 338.5Q433 252 505 189H418Q342 189 283.0 233.0Q224 277 190.0 352.5Q156 428 156 521ZM451 525Q453 624 480.0 699.0Q507 774 568 853Q633 940 710.0 1043.5Q787 1147 852 1272Q874 1312 896.0 1332.5Q918 1353 951 1353Q993 1353 1020.5 1324.5Q1048 1296 1048 1250Q1048 1210 1033.5 1165.0Q1019 1120 1000.0 1076.0Q981 1032 966.5 993.5Q952 955 952 927Q952 904 971.0 889.5Q990 875 1022 875H1224Q1274 875 1307.5 841.0Q1341 807 1341 756Q1341 705 1315 676Q1306 671 1313 667Q1323 653 1329.0 633.0Q1335 613 1335 591Q1335 531 1290 496Q1285 491 1289 485Q1296 470 1301.0 453.5Q1306 437 1306 418Q1306 385 1288.5 358.5Q1271 332 1241 317Q1235 313 1240 307Q1244 297 1247.5 284.5Q1251 272 1251 258Q1251 214 1222.0 185.5Q1193 157 1148 147Q1121 140 1078.0 136.5Q1035 133 983 133L904 134Q768 135 665.5 185.5Q563 236 506.0 324.0Q449 412 451 525Z" transform="translate(-1.8281,15.8555) scale(0.011719,-0.011719)"/>
  </g>
</svg>
