<svg xmlns="http://www.w3.org/2000/svg" viewBox="0 0 13.8867 14.2990" width="23.3080" height="24.0000">
  <g fill="black" stroke="black" stroke-width="0.25">
    <path d="M1341 855Q1341 762 1309.5 686.5Q1278 611 1223.5 567.0Q1169 523 1099 523H1037Q1083 592 1109.5 671.0Q1136 750 1136 850Q1139 952 1102.0 1038.5Q1065 1125 992 1187H1080Q1155 1187 1214.0 1143.0Q1273 1099 1307.0 1024.0Q1341 949 1341 855ZM1046 852Q1045 752 1017.5 677.0Q990 602 930 524Q865 436 787.5 332.5Q710 229 646 105Q624 64 601.5 44.0Q579 24 547 24Q504 24 476.5 52.0Q449 80 449 126Q449 167 464.0 211.5Q479 256 498.0 300.0Q517 344 531.5 382.5Q546 421 546 449Q546 473 527.0 487.0Q508 501 475 501H274Q223 501 189.5 535.5Q156 570 156 620Q156 672 183 700Q191 706 185 710Q174 723 168.5 743.5Q163 764 163 786Q163 845 207 880Q213 886 209 892Q201 907 196.5 923.5Q192 940 192 959Q192 991 209.0 1017.5Q226 1044 256 1060Q262 1063 257 1069Q253 1080 249.5 1092.5Q246 1105 246 1118Q246 1162 275.5 1190.5Q305 1219 349 1230Q376 1236 419.5 1240.5Q463 1245 515 1244L593 1242Q729 1240 832.0 1189.5Q935 1139 991.5 1051.5Q1048 964 1046 852Z" transform="translate(-1.8281,14.5803) scale(0.011719,-0.011719)"/>
  </g>
</svg>
