<svg xmlns="http://www.w3.org/2000/svg" viewBox="0 0 14.3320 17.2048" width="19.9926" height="24.0000">
  <g fill="black" stroke="black" stroke-width="0.25">
    <path d="M425 595Q303 595 229.5 666.0Q156 737 156 845Q156 928 202.0 990.0Q248 1052 325 1080Q340 1180 395.0 1256.0Q450 1332 534.0 1375.5Q618 1419 719 1419Q835 1419 922.0 1367.5Q1009 1316 1059 1218Q1151 1218 1223.5 1177.0Q1296 1136 1337.5 1065.0Q1379 994 1379 904Q1379 817 1337.5 747.0Q1296 677 1225.0 636.0Q1154 595 1065 595ZM515 234 621 478Q631 501 656 501H877Q890 501 894.0 493.0Q898 485 892 473L832 358H1003Q1020 358 1023.5 344.5Q1027 331 1014 320L605 -41Q599 -47 593.0 -48.5Q587 -50 582 -48Q570 -42 578 -27L673 205H533Q518 205 513.5 213.5Q509 222 515 234ZM351 269Q338 247 313.5 240.5Q289 234 267 247Q244 260 237.5 284.5Q231 309 244 331L312 450Q325 473 349.5 479.0Q374 485 397 473Q420 460 426.0 435.0Q432 410 419 388ZM1226 269Q1213 247 1188.5 240.5Q1164 234 1142 247Q1118 260 1111.5 284.5Q1105 309 1118 331L1186 450Q1199 473 1224.0 479.0Q1249 485 1272 473Q1294 460 1300.5 435.0Q1307 410 1294 388Z" transform="translate(-1.8281,16.6289) scale(0.011719,-0.011719)"/>
  </g>
</svg>
