<svg xmlns="http://www.w3.org/2000/svg" viewBox="0 0 14.8008 14.7891" width="24.0190" height="24.0000">
  <g fill="black" stroke="black" stroke-width="0.25">
    <path d="M787 52Q656 52 541.5 100.5Q427 149 340.0 236.0Q253 323 204.5 437.5Q156 552 156 683Q156 787 189.0 882.0Q222 977 279 1054Q313 1103 363.5 1108.5Q414 1114 450 1079Q488 1044 483.5 1004.0Q479 964 450 922Q415 870 395.0 809.0Q375 748 375 683Q375 597 406.5 522.5Q438 448 494.0 391.0Q550 334 625.0 302.5Q700 271 787 271Q875 271 950.0 302.5Q1025 334 1081.0 391.0Q1137 448 1168.0 522.5Q1199 597 1199 683Q1199 760 1174.5 828.0Q1150 896 1105.0 951.0Q1060 1006 999.5 1042.5Q939 1079 867 1093V1057Q867 1018 840.5 991.0Q814 964 775 964Q736 964 710.0 991.0Q684 1018 684 1057V1218Q684 1261 713.5 1287.5Q743 1314 788 1314Q919 1314 1033.5 1265.5Q1148 1217 1234.5 1130.5Q1321 1044 1370.0 929.5Q1419 815 1419 683Q1419 552 1370.0 437.5Q1321 323 1234.5 236.0Q1148 149 1033.5 100.5Q919 52 787 52ZM892 567Q846 521 786.0 529.0Q726 537 695 592L572 811Q555 845 566.5 870.0Q578 895 604.5 903.0Q631 911 659 895L870 767Q924 735 931.5 675.5Q939 616 892 567Z" transform="translate(-1.8281,15.3984) scale(0.011719,-0.011719)"/>
  </g>
</svg>
