<svg xmlns="http://www.w3.org/2000/svg" viewBox="0 0 15.2227 15.2227" width="24.0000" height="24.0000">
  <g fill="black" stroke="black" stroke-width="0.25">
    <path d="M156 683Q156 785 188.0 883.0Q220 981 281 1064Q320 1116 377.0 1125.5Q434 1135 478 1094Q515 1057 515.5 1012.5Q516 968 481 913Q445 862 426.0 803.0Q407 744 407 683Q407 600 437.5 528.0Q468 456 523.0 401.0Q578 346 650.5 315.0Q723 284 806 284Q888 284 960.5 315.0Q1033 346 1088.0 401.0Q1143 456 1173.5 528.0Q1204 600 1204 683Q1204 754 1182.0 819.0Q1160 884 1119.0 937.5Q1078 991 1022.5 1028.0Q967 1065 901 1081V1038Q901 993 870.0 961.5Q839 930 795 930Q749 930 717.5 961.5Q686 993 686 1038V1221Q686 1270 719.5 1301.5Q753 1333 806 1333Q942 1333 1059.5 1283.0Q1177 1233 1266.0 1144.0Q1355 1055 1405.0 937.0Q1455 819 1455 683Q1455 547 1405.0 429.5Q1355 312 1266.0 223.0Q1177 134 1059.0 84.0Q941 34 806 34Q670 34 552.0 84.0Q434 134 345.0 223.0Q256 312 206.0 429.5Q156 547 156 683ZM919 557Q870 508 803.0 515.0Q736 522 702 583L563 826Q543 861 552.5 887.0Q562 913 589.0 921.0Q616 929 648 912L895 776Q956 744 962.5 676.0Q969 608 919 557Z" transform="translate(-1.8281,15.6211) scale(0.011719,-0.011719)"/>
  </g>
</svg>
