<svg xmlns="http://www.w3.org/2000/svg" viewBox="0 0 17.0216 15.4219" width="26.4895" height="24.0000">
  <g fill="black" stroke="black" stroke-width="0.25">
    <path d="M947 24Q797 24 658.5 92.0Q520 160 429 281Q397 322 404.5 372.5Q412 423 454 450Q493 474 537.5 465.0Q582 456 613 419Q670 348 756.0 302.5Q842 257 947 257Q1063 257 1159.5 315.0Q1256 373 1314.0 470.0Q1372 567 1372 683Q1372 770 1339.0 847.0Q1306 924 1247.0 982.5Q1188 1041 1111.0 1074.5Q1034 1108 947 1108Q859 1108 782.0 1074.5Q705 1041 646.5 982.5Q588 924 554.5 847.0Q521 770 521 683H288Q288 818 339.5 937.0Q391 1056 482.0 1146.5Q573 1237 692.0 1288.5Q811 1340 947 1340Q1082 1340 1201.0 1288.5Q1320 1237 1411.0 1146.5Q1502 1056 1553.5 937.0Q1605 818 1605 683Q1605 549 1553.0 429.5Q1501 310 1410.0 219.0Q1319 128 1200.0 76.0Q1081 24 947 24ZM348 552 183 730Q152 764 152.5 799.5Q153 835 178.5 860.0Q204 885 249 885H605Q650 885 676.0 860.0Q702 835 703.0 799.0Q704 763 673 730L508 552Q468 511 428.0 511.0Q388 511 348 552ZM1096 385Q1064 361 1025.0 367.5Q986 374 961 407L839 570Q815 603 815 636V916Q815 953 843.5 980.0Q872 1007 911 1007Q950 1007 977.0 980.5Q1004 954 1004 916V525L939 759L1112 519Q1136 484 1132.0 446.5Q1128 409 1096 385Z" transform="translate(-1.7870,15.7031) scale(0.011719,-0.011719)"/>
  </g>
</svg>
