<svg xmlns="http://www.w3.org/2000/svg" viewBox="0 0 34.4297 28.0195" width="29.4906" height="24.0000">
  <g fill="black" stroke="black" stroke-width="0.25">
    <path d="M1043 1058Q996 1058 961.5 1092.0Q927 1126 927 1172Q927 1219 961.5 1253.5Q996 1288 1043 1288Q1090 1288 1124.0 1254.0Q1158 1220 1158 1172Q1158 1125 1124.0 1091.5Q1090 1058 1043 1058ZM1043 736Q996 736 961.5 770.5Q927 805 927 852Q927 899 961.5 933.0Q996 967 1043 967Q1090 967 1124.0 933.0Q1158 899 1158 852Q1158 805 1124.0 770.5Q1090 736 1043 736ZM1043 418Q995 418 961.0 451.0Q927 484 927 532Q927 579 961.0 612.5Q995 646 1043 646Q1091 646 1124.5 612.5Q1158 579 1158 532Q1158 484 1124.0 451.0Q1090 418 1043 418ZM1043 79Q996 79 961.5 113.0Q927 147 927 194Q927 241 961.5 274.5Q996 308 1043 308Q1090 308 1124.0 275.0Q1158 242 1158 194Q1158 146 1124.0 112.5Q1090 79 1043 79ZM1326 1080Q1287 1080 1260.0 1107.5Q1233 1135 1233 1172Q1233 1210 1260.5 1238.0Q1288 1266 1326 1266H2537Q2575 1266 2603.0 1238.0Q2631 1210 2631 1172Q2631 1135 2603.5 1107.5Q2576 1080 2537 1080ZM1326 758Q1288 758 1260.5 786.0Q1233 814 1233 852Q1233 889 1260.0 917.5Q1287 946 1326 946H2026Q2065 946 2092.0 917.5Q2119 889 2119 852Q2119 814 2091.5 786.0Q2064 758 2026 758ZM1326 439Q1287 439 1260.0 466.5Q1233 494 1233 532Q1233 571 1260.0 597.5Q1287 624 1326 624H2537Q2576 624 2603.5 597.5Q2631 571 2631 532Q2631 494 2603.5 466.5Q2576 439 2537 439ZM1326 101Q1288 101 1260.5 128.5Q1233 156 1233 194Q1233 232 1260.0 259.5Q1287 287 1326 287H2026Q2065 287 2092.0 259.5Q2119 232 2119 194Q2119 156 2091.5 128.5Q2064 101 2026 101ZM774 -514Q553 -514 432.0 -393.5Q311 -273 311 -52V1416Q311 1637 432.0 1757.0Q553 1877 774 1877H2786Q3008 1877 3128.5 1757.0Q3249 1637 3249 1416V-52Q3249 -273 3128.5 -393.5Q3008 -514 2786 -514ZM827 -122H2733Q2794 -122 2825.5 -92.5Q2857 -63 2857 3V1360Q2857 1426 2825.5 1455.5Q2794 1485 2733 1485H827Q766 1485 734.5 1455.5Q703 1426 703 1360V3Q703 -63 734.5 -92.5Q766 -122 827 -122Z" transform="translate(-3.6445,21.9961) scale(0.011719,-0.011719)"/>
  </g>
</svg>
