<svg xmlns="http://www.w3.org/2000/svg" viewBox="0 0 10.9922 17.9648" width="14.6849" height="24.0000">
  <g fill="black" stroke="black" stroke-width="0.25">
    <path d="M240 1255H1018Q1051 1255 1074.5 1278.5Q1098 1302 1098 1335Q1098 1368 1074.5 1392.0Q1051 1416 1018 1416H240Q207 1416 183.5 1392.0Q160 1368 160 1335Q160 1302 183.5 1278.5Q207 1255 240 1255ZM629 957Q747 957 845.0 936.0Q943 915 1012 879L1031 1181H227L247 879Q316 915 413.5 936.0Q511 957 629 957ZM629 512Q754 512 854.0 536.5Q954 561 1012.5 603.0Q1071 645 1071 698Q1071 750 1012.5 791.5Q954 833 854.0 857.5Q754 882 629 882Q504 882 404.0 857.5Q304 833 245.5 791.5Q187 750 187 698Q187 645 245.5 603.0Q304 561 404.0 536.5Q504 512 629 512ZM629 627Q509 627 433.5 647.0Q358 667 358 698Q358 728 433.5 747.0Q509 766 629 766Q749 766 825.0 747.0Q901 728 901 698Q901 667 825.0 647.0Q749 627 629 627ZM616 235H642Q799 235 906.0 315.0Q1013 395 1048 542Q981 493 872.5 466.5Q764 440 629 440Q494 440 385.5 466.5Q277 493 211 542Q246 395 353.0 315.0Q460 235 616 235ZM629 -117Q717 -117 812.0 -94.5Q907 -72 957 -21Q971 -5 975.0 16.5Q979 38 972 59L919 231Q861 197 790.5 178.5Q720 160 643 160H614Q538 160 468.0 178.5Q398 197 339 231L286 59Q279 38 283.0 16.5Q287 -5 301 -21Q351 -72 446.0 -94.5Q541 -117 629 -117Z" transform="translate(-1.8750,16.5938) scale(0.011719,-0.011719)"/>
  </g>
</svg>
