<svg xmlns="http://www.w3.org/2000/svg" viewBox="0 0 14.0156 16.5533" width="20.3208" height="24.0000">
  <g fill="black" stroke="black" stroke-width="0.25">
    <path d="M746 783Q461 783 308.5 858.5Q156 934 156 1076Q156 1172 235.5 1256.0Q315 1340 476 1381Q516 1391 544.5 1379.0Q573 1367 583 1335Q593 1305 578.5 1276.5Q564 1248 527 1238Q419 1207 371.0 1167.5Q323 1128 323 1079Q323 1009 424.0 973.0Q525 937 740 937Q859 937 960.5 949.5Q1062 962 1123.5 981.5Q1185 1001 1185 1023Q1185 1047 1107.5 1065.0Q1030 1083 911 1083Q792 1083 704.5 1063.5Q617 1044 546 1020Q511 1008 481.0 1018.5Q451 1029 439 1058Q428 1084 437.5 1115.5Q447 1147 482 1161Q569 1195 678.0 1213.5Q787 1232 918 1232Q1051 1232 1148.5 1207.5Q1246 1183 1299.0 1136.0Q1352 1089 1352 1023Q1352 949 1278.5 895.0Q1205 841 1069.5 812.0Q934 783 746 783ZM762 576Q662 576 551.5 589.0Q441 602 347 631Q313 640 297.0 665.5Q281 691 290 721Q298 751 324.0 761.5Q350 772 382 763Q439 746 503.5 735.5Q568 725 633.5 720.0Q699 715 762 715Q884 715 997.0 732.0Q1110 749 1192 777Q1223 788 1251.0 780.5Q1279 773 1292 746Q1304 720 1293.0 691.5Q1282 663 1250 650Q1158 616 1031.5 596.0Q905 576 762 576ZM807 370Q748 370 700.0 373.0Q652 376 616 382Q578 386 562.5 412.0Q547 438 552 466Q557 492 579.5 508.0Q602 524 637 518Q671 514 714.5 511.5Q758 509 801 509Q907 509 1004.5 523.5Q1102 538 1202 568Q1235 577 1260.0 567.0Q1285 557 1295 530Q1305 502 1292.5 474.0Q1280 446 1244 435Q1141 404 1032.5 388.0Q924 372 807 370ZM743 175Q706 179 691.0 204.0Q676 229 679 253Q682 281 704.0 298.0Q726 315 763 312Q839 307 919.5 311.0Q1000 315 1067 330Q1100 337 1125.5 325.0Q1151 313 1159 283Q1166 256 1152.5 230.0Q1139 204 1105 195Q1027 177 926.5 171.5Q826 166 743 175ZM705 -23Q673 -20 655.0 0.0Q637 20 640 50Q643 78 664.5 95.5Q686 113 719 109Q742 107 767.5 107.0Q793 107 819 110Q853 115 874.5 97.0Q896 79 898 50Q901 19 883.0 -0.5Q865 -20 835 -23Q800 -27 768.0 -27.0Q736 -27 705 -23Z" transform="translate(-1.8281,16.2369) scale(0.011719,-0.011719)"/>
  </g>
</svg>
