<svg xmlns="http://www.w3.org/2000/svg" viewBox="0 0 42.9492 27.5039" width="37.4776" height="24.0000">
  <g fill="black" stroke="black" stroke-width="0.25">
    <path d="M2052 -491Q1746 -491 1470.5 -433.0Q1195 -375 966.0 -268.0Q737 -161 569.5 -15.0Q402 131 310.5 308.0Q219 485 219 683Q219 881 310.5 1057.5Q402 1234 569.5 1380.5Q737 1527 966.0 1633.5Q1195 1740 1470.5 1798.0Q1746 1856 2052 1856Q2358 1856 2633.0 1798.0Q2908 1740 3136.5 1633.5Q3365 1527 3532.5 1380.5Q3700 1234 3792.0 1057.5Q3884 881 3884 683Q3884 485 3792.5 308.0Q3701 131 3533.5 -15.0Q3366 -161 3137.5 -268.0Q2909 -375 2633.5 -433.0Q2358 -491 2052 -491ZM2052 -99Q2287 -99 2502.0 -58.0Q2717 -17 2897.5 56.0Q3078 129 3211.5 227.5Q3345 326 3418.5 442.0Q3492 558 3492 683Q3492 808 3418.0 923.5Q3344 1039 3210.5 1137.5Q3077 1236 2896.5 1309.0Q2716 1382 2501.5 1423.0Q2287 1464 2052 1464Q1817 1464 1602.0 1423.0Q1387 1382 1206.5 1309.0Q1026 1236 892.0 1137.5Q758 1039 684.5 923.5Q611 808 611 683Q611 558 684.5 442.0Q758 326 891.5 227.5Q1025 129 1205.5 56.0Q1386 -17 1601.0 -58.0Q1816 -99 2052 -99ZM2891 729 2707 530Q2587 651 2416.5 716.5Q2246 782 2052 782Q1858 782 1687.5 716.5Q1517 651 1397 530L1213 729Q1368 882 1589.0 966.5Q1810 1051 2052 1051Q2294 1051 2515.0 966.5Q2736 882 2891 729ZM1072 707Q1051 749 1063.0 784.0Q1075 819 1106.0 838.5Q1137 858 1176.0 853.5Q1215 849 1250 812Q1303 753 1394.0 713.5Q1485 674 1597.5 650.5Q1710 627 1827.5 617.0Q1945 607 2052 607Q2160 607 2278.5 617.0Q2397 627 2508.5 650.5Q2620 674 2710.5 713.5Q2801 753 2854 812Q2889 849 2928.0 853.5Q2967 858 2998.0 838.5Q3029 819 3041.0 784.0Q3053 749 3032 707Q2975 592 2838.0 509.5Q2701 427 2500.0 382.0Q2299 337 2052 337Q1805 337 1604.0 382.0Q1403 427 1266.0 509.5Q1129 592 1072 707Z" transform="translate(-2.5664,21.7500) scale(0.011719,-0.011719)"/>
  </g>
</svg>
