<svg xmlns="http://www.w3.org/2000/svg" viewBox="0 0 11.7422 16.4531" width="17.1282" height="24.0000">
  <g fill="black" stroke="black" stroke-width="0.25">
    <path d="M362 215Q266 215 211.0 270.0Q156 325 156 423V821Q156 926 162.5 988.5Q169 1051 181 1107Q205 1228 265.5 1290.5Q326 1353 441 1371Q477 1376 533.0 1379.5Q589 1383 657 1383Q725 1383 781.0 1379.5Q837 1376 874 1371Q989 1353 1049.5 1290.5Q1110 1228 1134 1107Q1145 1051 1151.5 988.5Q1158 926 1158 821V423Q1158 325 1103.0 270.0Q1048 215 953 215ZM657 583Q746 583 818.5 586.0Q891 589 939 595Q966 598 980.5 616.0Q995 634 995 660V796Q995 870 989.0 931.5Q983 993 979 1014Q971 1063 924 1068Q883 1073 819.0 1076.0Q755 1079 657 1079Q558 1078 494.5 1075.5Q431 1073 390 1068Q344 1063 335 1014Q332 993 325.5 931.5Q319 870 319 796V660Q319 634 333.5 616.0Q348 598 375 595Q415 590 487.0 587.0Q559 584 657 583ZM405 348Q437 348 458.5 368.5Q480 389 480 422Q480 454 458.5 474.5Q437 495 405 495Q374 495 352.5 474.5Q331 454 331 422Q331 389 352.0 368.5Q373 348 405 348ZM909 347Q940 347 961.5 368.5Q983 390 983 422Q983 454 962.0 475.0Q941 496 909 496Q877 496 855.5 475.0Q834 454 834 422Q834 390 855.5 368.5Q877 347 909 347ZM524 1163H790Q811 1163 825.5 1176.5Q840 1190 840 1211Q840 1232 825.5 1245.5Q811 1259 790 1259H524Q503 1259 489.0 1245.5Q475 1232 475 1211Q475 1190 489.0 1176.5Q503 1163 524 1163ZM255 -21Q225 -21 216.5 2.5Q208 26 221 47L370 285H516L343 5Q327 -21 296 -21ZM317 47V156H985V47ZM1005 -21Q976 -21 960 5L786 285H933L1077 52Q1093 27 1080.5 3.0Q1068 -21 1038 -21Z" transform="translate(-1.8281,16.2070) scale(0.011719,-0.011719)"/>
  </g>
</svg>
