<svg xmlns="http://www.w3.org/2000/svg" viewBox="0 0 14.2158 16.0078" width="21.3133" height="24.0000">
  <g fill="black" stroke="black" stroke-width="0.25">
    <path d="M507 23Q428 23 385.0 62.0Q342 101 339 179L301 998H238Q203 998 179.0 1020.0Q155 1042 156 1076Q157 1111 180.0 1132.0Q203 1153 238 1153H464V1209Q464 1294 518.0 1341.5Q572 1389 672 1389H853Q953 1389 1007.0 1341.5Q1061 1294 1061 1209V1153H1287Q1323 1153 1346.5 1132.0Q1370 1111 1369 1076Q1369 1042 1346.0 1020.0Q1323 998 1287 998H1225L1187 179Q1183 101 1140.5 62.0Q1098 23 1019 23ZM569 202Q591 202 605.0 215.5Q619 229 618 251L601 875Q599 924 552 924Q502 924 504 873L521 250Q523 202 569 202ZM764 202Q812 202 812 250V877Q812 924 764 924Q714 924 714 877V250Q714 202 764 202ZM957 202Q1003 202 1005 250L1022 873Q1024 924 975 924Q927 924 925 875L908 251Q907 229 921.0 215.5Q935 202 957 202ZM622 1153H904L903 1211Q902 1230 888.5 1242.5Q875 1255 853 1255H673Q652 1255 638.0 1242.5Q624 1230 624 1211Z" transform="translate(-1.8277,16.2773) scale(0.011719,-0.011719)"/>
  </g>
</svg>
