<svg xmlns="http://www.w3.org/2000/svg" viewBox="0 0 18.6094 22.6289" width="19.7369" height="24.0000">
  <g fill="black" stroke="black" stroke-width="0.25">
    <path d="M506 -283Q419 -283 347.5 -240.0Q276 -197 233.0 -125.0Q190 -53 190 34Q190 121 233.0 193.0Q276 265 347.5 307.5Q419 350 506 350Q594 350 665.5 307.5Q737 265 780.0 193.0Q823 121 823 34Q823 -53 780.0 -125.0Q737 -197 665.5 -240.0Q594 -283 506 -283ZM506 -49Q542 -49 565.5 -25.0Q589 -1 589 34Q589 70 565.5 93.0Q542 116 506 116Q471 116 447.5 93.0Q424 70 424 34Q424 -1 447.5 -25.0Q471 -49 506 -49ZM934 -18Q897 -18 870.5 8.5Q844 35 844 72Q844 109 870.5 135.5Q897 162 934 162Q971 162 997.5 135.5Q1024 109 1024 72Q1024 35 997.5 8.5Q971 -18 934 -18ZM1151 -18Q1114 -18 1087.5 8.5Q1061 35 1061 72Q1061 109 1087.5 135.5Q1114 162 1151 162Q1188 162 1214.5 135.5Q1241 109 1241 72Q1241 35 1214.5 8.5Q1188 -18 1151 -18ZM1369 -18Q1332 -18 1305.5 8.5Q1279 35 1279 72Q1279 109 1305.5 135.5Q1332 162 1369 162Q1406 162 1432.5 135.5Q1459 109 1459 72Q1459 35 1432.5 8.5Q1406 -18 1369 -18ZM1566 59Q1530 59 1503.5 85.5Q1477 112 1477 149Q1477 185 1503.5 211.5Q1530 238 1566 238Q1603 238 1629.5 211.5Q1656 185 1656 149Q1656 112 1629.5 85.5Q1603 59 1566 59ZM1647 264Q1610 264 1583.5 290.5Q1557 317 1557 354Q1557 391 1583.5 417.5Q1610 444 1647 444Q1684 444 1710.5 417.5Q1737 391 1737 354Q1737 317 1710.5 290.5Q1684 264 1647 264ZM1521 448Q1484 448 1457.5 474.5Q1431 501 1431 538Q1431 575 1457.5 601.5Q1484 628 1521 628Q1558 628 1584.5 601.5Q1611 575 1611 538Q1611 501 1584.5 474.5Q1558 448 1521 448ZM1319 533Q1282 533 1255.5 559.5Q1229 586 1229 622Q1229 659 1255.5 685.5Q1282 712 1319 712Q1356 712 1382.5 685.5Q1409 659 1409 622Q1409 586 1382.5 559.5Q1356 533 1319 533ZM1096 582Q1059 582 1032.5 608.5Q1006 635 1006 672Q1006 709 1032.5 735.0Q1059 761 1096 761Q1133 761 1159.5 735.0Q1186 709 1186 672Q1186 635 1159.5 608.5Q1133 582 1096 582ZM869 604Q832 604 805.5 630.5Q779 657 779 694Q779 731 805.5 757.5Q832 784 869 784Q906 784 932.5 757.5Q959 731 959 694Q959 657 932.5 630.5Q906 604 869 604ZM647 654Q610 654 583.5 680.5Q557 707 557 744Q557 780 583.5 806.5Q610 833 647 833Q684 833 710.5 806.5Q737 780 737 744Q737 707 710.5 680.5Q684 654 647 654ZM445 738Q408 738 381.5 764.5Q355 791 355 828Q355 865 381.5 891.5Q408 918 445 918Q481 918 507.5 891.5Q534 865 534 828Q534 791 507.5 764.5Q481 738 445 738ZM319 922Q282 922 255.5 948.5Q229 975 229 1012Q229 1049 255.5 1075.5Q282 1102 319 1102Q356 1102 382.5 1075.5Q409 1049 409 1012Q409 975 382.5 948.5Q356 922 319 922ZM399 1128Q362 1128 335.5 1154.5Q309 1181 309 1217Q309 1254 335.5 1280.5Q362 1307 399 1307Q436 1307 462.5 1280.5Q489 1254 489 1217Q489 1181 462.5 1154.5Q436 1128 399 1128ZM597 1204Q560 1204 533.5 1230.5Q507 1257 507 1294Q507 1331 533.5 1357.5Q560 1384 597 1384Q634 1384 660.5 1357.5Q687 1331 687 1294Q687 1257 660.5 1230.5Q634 1204 597 1204ZM814 1204Q778 1204 751.5 1230.5Q725 1257 725 1294Q725 1331 751.5 1357.5Q778 1384 814 1384Q851 1384 877.5 1357.5Q904 1331 904 1294Q904 1257 877.5 1230.5Q851 1204 814 1204ZM1032 1204Q995 1204 968.5 1230.5Q942 1257 942 1294Q942 1331 968.5 1357.5Q995 1384 1032 1384Q1069 1384 1095.5 1357.5Q1122 1331 1122 1294Q1122 1257 1095.5 1230.5Q1069 1204 1032 1204ZM1461 1015Q1374 1015 1302.5 1058.0Q1231 1101 1188.5 1172.5Q1146 1244 1146 1332Q1146 1419 1188.5 1490.5Q1231 1562 1302.5 1605.0Q1374 1648 1461 1648Q1549 1648 1621.0 1605.0Q1693 1562 1735.5 1490.5Q1778 1419 1778 1332Q1778 1244 1735.5 1172.5Q1693 1101 1621.0 1058.0Q1549 1015 1461 1015ZM1461 1249Q1497 1249 1521.0 1272.5Q1545 1296 1545 1332Q1545 1368 1521.5 1391.0Q1498 1414 1461 1414Q1426 1414 1402.5 1390.5Q1379 1367 1379 1332Q1379 1297 1403.0 1273.0Q1427 1249 1461 1249Z" transform="translate(-2.2266,19.3125) scale(0.011719,-0.011719)"/>
  </g>
</svg>
