<svg xmlns="http://www.w3.org/2000/svg" viewBox="0 0 15.7383 12.3164" width="30.6679" height="24.0000">
  <g fill="black" stroke="black" stroke-width="0.25">
    <path d="M366 201Q266 201 211.0 256.0Q156 311 156 412V737Q156 810 166.5 849.0Q177 888 212 928L376 1120Q418 1169 449.0 1198.0Q480 1227 514.5 1239.5Q549 1252 604 1252H1051Q1106 1252 1140.5 1239.5Q1175 1227 1205.5 1198.0Q1236 1169 1278 1120L1443 928Q1477 888 1488.0 849.0Q1499 810 1499 737V412Q1499 311 1444.0 256.0Q1389 201 1288 201ZM375 796H641Q667 796 679.5 779.5Q692 763 692 743V728Q692 671 728.0 639.0Q764 607 827 607Q891 607 927.0 639.0Q963 671 963 728V743Q963 763 975.5 779.5Q988 796 1014 796H1280Q1300 796 1303.5 810.0Q1307 824 1297 836L1099 1072Q1087 1087 1072.0 1095.0Q1057 1103 1036 1103H619Q598 1103 583.0 1095.5Q568 1088 556 1072L358 836Q348 824 351.5 810.0Q355 796 375 796Z" transform="translate(-1.8281,14.6719) scale(0.011719,-0.011719)"/>
  </g>
</svg>
