<svg xmlns="http://www.w3.org/2000/svg" viewBox="0 0 15.0234 15.0469" width="23.9626" height="24.0000">
  <g fill="black" stroke="black" stroke-width="0.25">
    <path d="M156 557Q156 600 173.0 644.5Q190 689 226 729Q199 764 186.5 802.0Q174 840 174 877Q174 935 199.5 988.5Q225 1042 269.5 1079.5Q314 1117 370 1128Q379 1184 420.0 1226.5Q461 1269 518.5 1293.0Q576 1317 635 1317Q680 1317 722.0 1303.0Q764 1289 797 1259Q830 1289 872.0 1303.0Q914 1317 959 1317Q1018 1317 1075.5 1293.0Q1133 1269 1173.5 1226.5Q1214 1184 1224 1128Q1280 1117 1324.0 1079.5Q1368 1042 1394.0 988.5Q1420 935 1420 877Q1420 840 1407.5 802.0Q1395 764 1368 729Q1403 689 1420.5 644.5Q1438 600 1438 557Q1438 464 1378.5 403.0Q1319 342 1228 342Q1172 342 1118 367Q1102 355 1076.0 341.5Q1050 328 1015.5 317.0Q981 306 938 303Q950 356 981.5 425.5Q1013 495 1041 548Q980 551 943.0 579.0Q906 607 890 648Q869 636 846.0 629.5Q823 623 797 623Q770 623 747.0 629.5Q724 636 704 648Q688 607 651.0 579.0Q614 551 553 548Q581 495 612.5 425.5Q644 356 656 303Q613 306 578.5 317.0Q544 328 518.0 341.5Q492 355 476 367Q422 342 366 342Q274 342 215.0 403.0Q156 464 156 557ZM797 33Q759 33 735.0 46.5Q711 60 711 81Q711 97 713.5 130.5Q716 164 718.0 201.0Q720 238 720 267Q720 304 704.0 355.0Q688 406 664.0 458.0Q640 510 618.0 553.0Q596 596 584 617L653 671Q679 626 700.5 586.0Q722 546 751 484L750 665L841 664L842 485Q871 546 892.5 586.0Q914 626 943 677L1017 634Q1002 607 978.0 560.5Q954 514 930.0 460.0Q906 406 889.5 355.0Q873 304 873 267Q873 238 875.0 201.0Q877 164 879.5 130.5Q882 97 882 81Q882 60 858.0 46.5Q834 33 797 33Z" transform="translate(-1.8281,15.4336) scale(0.011719,-0.011719)"/>
  </g>
</svg>
