<svg xmlns="http://www.w3.org/2000/svg" viewBox="0 0 31.4883 27.4805" width="27.5002" height="24.0000">
  <g fill="black" stroke="black" stroke-width="0.25">
    <path d="M608 247Q492 247 432.0 312.0Q372 377 368 495L340 1505Q339 1523 338.0 1541.5Q337 1560 337 1574Q337 1701 410.0 1772.0Q483 1843 608 1843Q734 1843 805.5 1772.0Q877 1701 877 1574Q877 1560 876.5 1541.5Q876 1523 875 1505L847 495Q843 377 783.0 312.0Q723 247 608 247ZM607 -502Q525 -502 458.0 -464.5Q391 -427 351.0 -363.0Q311 -299 311 -220Q311 -142 351.0 -78.5Q391 -15 458.0 22.5Q525 60 607 60Q688 60 755.0 22.5Q822 -15 862.0 -78.5Q902 -142 902 -220Q902 -299 862.0 -363.0Q822 -427 755.0 -464.5Q688 -502 607 -502ZM1656 247Q1540 247 1480.0 312.0Q1420 377 1416 495L1388 1505Q1387 1523 1386.0 1541.5Q1385 1560 1385 1574Q1385 1701 1458.0 1772.0Q1531 1843 1656 1843Q1782 1843 1853.5 1772.0Q1925 1701 1925 1574Q1925 1560 1924.5 1541.5Q1924 1523 1923 1505L1895 495Q1891 377 1831.0 312.0Q1771 247 1656 247ZM1655 -502Q1573 -502 1506.0 -464.5Q1439 -427 1399.0 -363.0Q1359 -299 1359 -220Q1359 -142 1399.0 -78.5Q1439 -15 1506.0 22.5Q1573 60 1655 60Q1736 60 1803.0 22.5Q1870 -15 1910.0 -78.5Q1950 -142 1950 -220Q1950 -299 1910.0 -363.0Q1870 -427 1803.0 -464.5Q1736 -502 1655 -502ZM2704 247Q2588 247 2528.0 312.0Q2468 377 2464 495L2436 1505Q2435 1523 2434.0 1541.5Q2433 1560 2433 1574Q2433 1701 2506.0 1772.0Q2579 1843 2704 1843Q2830 1843 2901.5 1772.0Q2973 1701 2973 1574Q2973 1560 2972.5 1541.5Q2972 1523 2971 1505L2943 495Q2939 377 2879.0 312.0Q2819 247 2704 247ZM2703 -502Q2621 -502 2554.0 -464.5Q2487 -427 2447.0 -363.0Q2407 -299 2407 -220Q2407 -142 2447.0 -78.5Q2487 -15 2554.0 22.5Q2621 60 2703 60Q2784 60 2851.0 22.5Q2918 -15 2958.0 -78.5Q2998 -142 2998 -220Q2998 -299 2958.0 -363.0Q2918 -427 2851.0 -464.5Q2784 -502 2703 -502Z" transform="translate(-3.6445,21.5977) scale(0.011719,-0.011719)"/>
  </g>
</svg>
