<svg xmlns="http://www.w3.org/2000/svg" viewBox="0 0 16.7380 14.1387" width="28.4122" height="24.0000">
  <g fill="black" stroke="black" stroke-width="0.25">
    <path d="M603 62Q520 62 474.5 106.5Q429 151 427 234L421 688L348 674Q289 662 250.0 685.0Q211 708 200 762L159 954Q135 1068 245 1114L591 1258Q639 1279 681 1258Q737 1232 777.0 1222.0Q817 1212 869 1212Q920 1212 960.5 1222.0Q1001 1232 1057 1258Q1099 1279 1146 1258L1493 1114Q1602 1068 1579 954L1538 762Q1527 708 1488.0 685.0Q1449 662 1390 674L1316 688L1309 234Q1308 151 1263.0 106.5Q1218 62 1134 62ZM869 1011Q920 1011 961.0 1035.0Q1002 1059 1018 1095Q983 1085 946.0 1080.0Q909 1075 869 1075Q829 1075 791.5 1080.0Q754 1085 719 1095Q736 1059 777.0 1035.0Q818 1011 869 1011Z" transform="translate(-1.8129,14.8652) scale(0.011719,-0.011719)"/>
  </g>
</svg>
