<svg xmlns="http://www.w3.org/2000/svg" viewBox="0 0 32.7481 32.6441" width="24.0765" height="24.0000">
  <g fill="black" stroke="black" stroke-width="0.25">
    <path d="M969 718Q969 788 993.5 858.0Q1018 928 1070 980L2070 1997Q2114 2042 2172.0 2056.5Q2230 2071 2287.5 2056.0Q2345 2041 2388 1997Q2451 1932 2451.0 1839.5Q2451 1747 2387 1682L1436 730Q1425 719 1419.5 705.0Q1414 691 1414 674V401L1434 382H1668Q1684 382 1698.5 388.0Q1713 394 1724 405L2695 1374Q2739 1418 2796.5 1432.5Q2854 1447 2911.5 1432.5Q2969 1418 3011 1374Q3075 1308 3075.5 1215.5Q3076 1123 3010 1058L1992 58Q1944 10 1872.5 -16.5Q1801 -43 1730 -43H1275L832 -485L517 -170L969 284ZM635 -722Q538 -722 457.5 -674.0Q377 -626 329.0 -545.5Q281 -465 281 -366Q281 -268 329.0 -187.0Q377 -106 457.5 -58.5Q538 -11 635 -11Q734 -11 814.5 -58.5Q895 -106 943.0 -187.0Q991 -268 991 -366Q991 -465 943.0 -545.5Q895 -626 814.5 -674.0Q734 -722 635 -722Z" transform="translate(-3.2930,24.1831) scale(0.011719,-0.011719)"/>
  </g>
</svg>
