<svg xmlns="http://www.w3.org/2000/svg" viewBox="0 0 38.3907 28.0195" width="32.8834" height="24.0000">
  <g fill="black" stroke="black" stroke-width="0.25">
    <path d="M2685 98V1360Q2685 1426 2654.0 1455.5Q2623 1485 2562 1485H1807Q1717 1485 1661.0 1539.5Q1605 1594 1604 1681Q1604 1768 1660.5 1822.5Q1717 1877 1807 1877H2614Q2836 1877 2956.5 1757.0Q3077 1637 3077 1416V98Q3077 17 3019.5 -40.5Q2962 -98 2881 -98Q2800 -98 2742.5 -40.5Q2685 17 2685 98ZM3212 429 3249 465Q3311 527 3389.0 527.0Q3467 527 3527 466Q3587 405 3587.5 327.0Q3588 249 3526 188L3096 -242Q2995 -343 2881.5 -343.5Q2768 -344 2667 -242L2236 188Q2174 249 2174.5 327.0Q2175 405 2235 466Q2296 527 2373.5 527.0Q2451 527 2513 465L2550 429L2881 24ZM1214 1266V3Q1214 -63 1245.0 -92.5Q1276 -122 1337 -122H2092Q2182 -122 2238.0 -176.5Q2294 -231 2294 -318Q2295 -404 2238.5 -459.0Q2182 -514 2092 -514H1285Q1063 -514 942.0 -393.5Q821 -273 821 -52V1266Q821 1347 879.0 1404.5Q937 1462 1018 1462Q1099 1462 1156.5 1404.5Q1214 1347 1214 1266ZM687 935 650 899Q588 837 510.0 837.0Q432 837 372 898Q312 959 311.5 1036.5Q311 1114 373 1176L803 1606Q904 1706 1017.0 1706.5Q1130 1707 1232 1606L1662 1176Q1724 1114 1723.5 1036.5Q1723 959 1663 898Q1603 837 1525.0 837.0Q1447 837 1385 899L1349 935L1018 1340Z" transform="translate(-3.6503,21.9961) scale(0.011719,-0.011719)"/>
  </g>
</svg>
