<svg xmlns="http://www.w3.org/2000/svg" viewBox="0 0 40.9688 32.5898" width="30.1704" height="24.0000">
  <g fill="black" stroke="black" stroke-width="0.25">
    <path d="M1125 81Q1056 81 1002.5 121.0Q949 161 937 227L927 275Q927 339 926.0 349.0Q925 359 925 357L801 284Q743 251 680.0 258.0Q617 265 570 312L445 439Q395 488 387.5 552.5Q380 617 417 674L517 831Q517 801 517.0 793.0Q517 785 517 769L363 807Q298 823 258.5 875.0Q219 927 219 995V1160Q219 1229 258.5 1281.0Q298 1333 363 1348L517 1386Q517 1366 517.0 1364.0Q517 1362 517.0 1364.0Q517 1366 517.0 1359.5Q517 1353 517 1324L417 1481Q380 1538 388.0 1603.0Q396 1668 445 1717L570 1843Q616 1890 681.0 1897.5Q746 1905 802 1871L968 1772Q936 1772 928.0 1772.0Q920 1772 904 1772L937 1928Q950 1993 1003.0 2033.5Q1056 2074 1125 2074H1305Q1374 2074 1427.0 2033.5Q1480 1993 1493 1928L1524 1772Q1504 1772 1502.0 1772.0Q1500 1772 1502.0 1772.0Q1504 1772 1497.5 1772.0Q1491 1772 1461 1772L1627 1871Q1684 1905 1749.0 1897.5Q1814 1890 1860 1843L1985 1717Q2034 1667 2042.0 1602.5Q2050 1538 2013 1481L1913 1324Q1913 1354 1913.0 1362.0Q1913 1370 1913 1386L2067 1348Q2131 1333 2171.0 1281.0Q2211 1229 2211 1160V995Q2211 927 2170.5 875.0Q2130 823 2067 807L1913 769Q1913 789 1913.0 791.5Q1913 794 1913.0 791.5Q1913 789 1913.0 795.5Q1913 802 1913 831L2013 674Q2050 617 2042.0 552.5Q2034 488 1985 439L1860 312Q1814 265 1749.0 258.0Q1684 251 1627 284L1505 357Q1504 352 1503.5 334.5Q1503 317 1503 275L1493 227Q1481 161 1427.5 121.0Q1374 81 1305 81ZM1153 327H1277Q1283 327 1274.0 320.5Q1265 314 1267 320L1325 558Q1380 567 1427.0 589.5Q1474 612 1511 633L1719 509Q1723 507 1713.0 505.0Q1703 503 1707 506L1794 592Q1798 595 1796.0 584.5Q1794 574 1791 579L1668 781Q1677 813 1703.5 861.5Q1730 910 1738 971L1974 1027Q1980 1029 1973.5 1020.0Q1967 1011 1967 1017V1138Q1967 1144 1973.5 1135.5Q1980 1127 1974 1128L1738 1184Q1730 1245 1703.5 1293.5Q1677 1342 1668 1374L1791 1577Q1794 1581 1796.0 1570.5Q1798 1560 1794 1563L1707 1649Q1703 1653 1713.0 1650.5Q1723 1648 1719 1646L1511 1522Q1474 1543 1427.0 1565.5Q1380 1588 1325 1597L1267 1835Q1265 1841 1274.0 1834.5Q1283 1828 1277 1828H1153Q1147 1828 1155.5 1834.5Q1164 1841 1163 1835L1105 1597Q1050 1588 1003.0 1565.5Q956 1543 919 1522L711 1646Q707 1648 716.5 1650.5Q726 1653 723 1649L636 1563Q632 1560 634.0 1570.5Q636 1581 639 1577L761 1374Q753 1342 726.0 1293.5Q699 1245 692 1184L456 1128Q450 1127 456.5 1135.5Q463 1144 463 1138V1017Q463 1011 456.5 1020.0Q450 1029 456 1027L692 971Q699 910 726.0 861.5Q753 813 761 781L639 579Q636 574 634.0 584.5Q632 595 636 592L723 506Q726 503 716.5 505.0Q707 507 711 509L919 633Q956 612 1003.0 589.5Q1050 567 1105 558L1163 320Q1164 314 1155.5 320.5Q1147 327 1153 327ZM2799 -707Q2735 -707 2685.5 -670.5Q2636 -634 2626 -576L2604 -457Q2624 -457 2626.0 -457.0Q2628 -457 2626.0 -457.0Q2624 -457 2630.5 -457.0Q2637 -457 2666 -457L2538 -536Q2486 -568 2426.0 -561.0Q2366 -554 2322 -509L2221 -406Q2176 -360 2169.0 -299.5Q2162 -239 2196 -188L2276 -68Q2276 -97 2276.0 -104.5Q2276 -112 2276 -128L2159 -104Q2101 -93 2064.0 -43.5Q2027 6 2027 68V208Q2027 270 2064.0 319.5Q2101 369 2159 380L2276 404Q2276 383 2276.0 381.0Q2276 379 2276.0 381.5Q2276 384 2276.0 378.0Q2276 372 2276 343L2196 464Q2162 515 2169.0 575.0Q2176 635 2221 682L2322 785Q2366 830 2426.0 837.0Q2486 844 2538 811L2666 733Q2635 733 2627.5 733.0Q2620 733 2604 733L2626 851Q2636 909 2685.5 946.0Q2735 983 2799 983H2943Q3007 983 3056.5 946.0Q3106 909 3117 851L3138 733Q3118 733 3116.0 733.0Q3114 733 3116.5 733.0Q3119 733 3112.0 733.0Q3105 733 3076 733L3204 811Q3256 844 3316.0 837.0Q3376 830 3420 785L3521 682Q3566 635 3573.0 575.0Q3580 515 3546 464L3466 343Q3466 373 3466.0 380.5Q3466 388 3466 404L3583 380Q3641 369 3678.0 319.5Q3715 270 3715 208V68Q3715 6 3678.0 -43.5Q3641 -93 3583 -104L3466 -128Q3466 -108 3466.0 -106.0Q3466 -104 3466.0 -106.0Q3466 -108 3466.0 -102.0Q3466 -96 3466 -68L3546 -188Q3580 -239 3573.0 -299.5Q3566 -360 3521 -406L3420 -509Q3376 -554 3316.0 -561.0Q3256 -568 3204 -536L3076 -457Q3107 -457 3115.0 -457.0Q3123 -457 3138 -457L3117 -576Q3106 -634 3056.5 -670.5Q3007 -707 2943 -707ZM2838 -472H2904Q2911 -472 2905.5 -475.0Q2900 -478 2901 -472L2950 -284Q3037 -268 3115 -214L3283 -317Q3283 -316 3279.5 -318.5Q3276 -321 3279 -318L3329 -267Q3332 -264 3330.0 -267.5Q3328 -271 3329 -271L3232 -114Q3233 -90 3260.0 -42.5Q3287 5 3293 61L3484 108Q3488 109 3484.5 103.0Q3481 97 3481 102V174Q3481 179 3484.5 173.0Q3488 167 3484 168L3293 215Q3287 271 3260.0 318.5Q3233 366 3232 390L3329 546Q3328 546 3330.0 542.5Q3332 539 3329 543L3279 594Q3276 597 3279.5 594.5Q3283 592 3283 592L3115 489Q3037 544 2950 560L2901 748Q2900 753 2905.5 750.5Q2911 748 2904 748H2838Q2831 748 2837.0 750.5Q2843 753 2841 748L2793 560Q2705 544 2628 489L2459 592Q2459 592 2462.5 594.5Q2466 597 2463 594L2413 543Q2410 539 2412.0 542.5Q2414 546 2414 546L2510 390Q2509 366 2482.0 318.5Q2455 271 2449 215L2259 168Q2254 167 2257.5 173.0Q2261 179 2261 174V102Q2261 97 2257.5 103.0Q2254 109 2259 108L2449 61Q2455 5 2482.0 -42.5Q2509 -90 2510 -114L2414 -271Q2414 -271 2412.0 -267.5Q2410 -264 2413 -267L2463 -318Q2466 -321 2462.5 -318.5Q2459 -316 2459 -317L2628 -214Q2705 -268 2793 -284L2841 -472Q2843 -478 2837.0 -475.0Q2831 -472 2838 -472ZM1215 717Q1116 717 1034.0 766.0Q952 815 903.0 896.5Q854 978 854 1078Q854 1177 903.0 1259.0Q952 1341 1034.0 1389.5Q1116 1438 1215 1438Q1314 1438 1396.0 1389.5Q1478 1341 1526.5 1259.0Q1575 1177 1575 1078Q1575 978 1526.5 896.5Q1478 815 1396.0 766.0Q1314 717 1215 717ZM1215 951Q1250 951 1278.5 968.0Q1307 985 1324.0 1014.0Q1341 1043 1341 1078Q1341 1113 1324.0 1141.5Q1307 1170 1278.5 1187.0Q1250 1204 1215 1204Q1180 1204 1151.5 1187.0Q1123 1170 1106.0 1141.5Q1089 1113 1089 1078Q1089 1043 1106.0 1014.0Q1123 985 1151.5 968.0Q1180 951 1215 951ZM2871 -149Q2791 -149 2726.0 -110.0Q2661 -71 2622.5 -6.0Q2584 59 2584 138Q2584 217 2622.5 282.0Q2661 347 2726.0 385.5Q2791 424 2871 424Q2950 424 3015.0 385.5Q3080 347 3118.5 282.0Q3157 217 3157 138Q3157 59 3118.5 -6.0Q3080 -71 3015.0 -110.0Q2950 -149 2871 -149ZM2871 55Q2905 55 2929.5 79.5Q2954 104 2954 138Q2954 172 2929.5 196.5Q2905 221 2871 221Q2837 221 2812.0 196.5Q2787 172 2787 138Q2787 104 2812.0 79.5Q2837 55 2871 55Z" transform="translate(-2.5664,24.3047) scale(0.011719,-0.011719)"/>
  </g>
</svg>
