<svg xmlns="http://www.w3.org/2000/svg" viewBox="0 0 17.4141 13.6875" width="30.5342" height="24.0000">
  <g fill="black" stroke="black" stroke-width="0.25">
    <path d="M899 857Q869 858 837.0 856.0Q805 854 785 850Q754 845 752 810Q752 790 752.0 744.0Q752 698 754.0 648.0Q756 598 761 567Q764 548 773.5 504.5Q783 461 795.5 408.0Q808 355 819.5 305.0Q831 255 839.0 221.0Q847 187 848 183Q858 151 840.0 125.5Q822 100 788 100Q737 100 724 157Q718 181 706.5 227.0Q695 273 682.0 325.5Q669 378 657.0 421.5Q645 465 639 483Q632 507 626.5 514.5Q621 522 613 522Q607 522 602.5 515.0Q598 508 591 483Q584 464 572.0 420.5Q560 377 546.5 324.5Q533 272 522.0 226.0Q511 180 505 157Q488 100 437 100Q405 100 386.5 126.0Q368 152 378 183Q379 187 387.0 221.0Q395 255 407.0 305.0Q419 355 431.0 408.0Q443 461 452.5 504.5Q462 548 465 567Q471 598 473.5 648.0Q476 698 476.5 745.0Q477 792 477 813Q475 847 451 850Q441 853 406.5 858.0Q372 863 329.5 869.0Q287 875 251.5 880.0Q216 885 205 888Q183 893 169.5 910.5Q156 928 156 952Q156 979 173.5 997.5Q191 1016 217 1016Q222 1016 229.0 1015.5Q236 1015 244 1012Q284 1004 348.5 997.5Q413 991 483.5 986.0Q554 981 614 979Q690 977 769.0 975.0Q848 973 902 973Q955 973 1031.5 975.0Q1108 977 1182 979Q1244 982 1315.0 987.0Q1386 992 1450.0 998.5Q1514 1005 1555 1013Q1560 1014 1567.5 1015.0Q1575 1016 1581 1016Q1606 1016 1624.0 997.0Q1642 978 1642 952Q1642 904 1595 888Q1584 883 1547.5 878.0Q1511 873 1467.5 868.0Q1424 863 1389.5 858.5Q1355 854 1347 852Q1334 850 1328.0 840.0Q1322 830 1322 813Q1322 792 1322.5 745.0Q1323 698 1324.5 648.0Q1326 598 1331 567Q1334 548 1343.5 504.5Q1353 461 1365.5 408.0Q1378 355 1389.5 305.0Q1401 255 1409.0 221.0Q1417 187 1418 183Q1428 152 1410.0 126.0Q1392 100 1359 100Q1308 100 1293 157Q1288 181 1276.5 227.0Q1265 273 1251.5 325.5Q1238 378 1226.5 421.5Q1215 465 1209 484Q1202 507 1197.0 514.5Q1192 522 1183 522Q1177 522 1172.5 515.5Q1168 509 1160 483Q1153 464 1141.5 420.5Q1130 377 1116.5 324.5Q1103 272 1091.5 226.0Q1080 180 1074 157Q1058 100 1008 100Q975 100 956.5 126.0Q938 152 949 183Q950 187 958.0 221.0Q966 255 977.5 305.0Q989 355 1001.5 408.0Q1014 461 1023.0 504.5Q1032 548 1035 567Q1041 598 1043.5 648.0Q1046 698 1046.5 744.0Q1047 790 1046 810Q1046 844 1014 850Q994 854 964.0 855.5Q934 857 899 857ZM613 1013Q561 1013 523.5 1051.0Q486 1089 486 1141Q486 1194 523.0 1231.0Q560 1268 613 1268Q667 1268 704.0 1231.0Q741 1194 741 1141Q741 1089 703.0 1051.0Q665 1013 613 1013ZM1183 1013Q1131 1013 1093.5 1051.0Q1056 1089 1056 1141Q1056 1194 1093.5 1231.0Q1131 1268 1183 1268Q1237 1268 1274.0 1231.0Q1311 1194 1311 1141Q1311 1089 1273.5 1051.0Q1236 1013 1183 1013Z" transform="translate(-1.8281,14.8594) scale(0.011719,-0.011719)"/>
  </g>
</svg>
