<svg xmlns="http://www.w3.org/2000/svg" viewBox="0 0 13.6875 15.9492" width="20.5966" height="24.0000">
  <g fill="black" stroke="black" stroke-width="0.25">
    <path d="M655 1175V1312Q655 1348 680.0 1372.0Q705 1396 740 1396Q775 1396 800.0 1372.0Q825 1348 825 1312V1175ZM231 622Q199 622 177.5 645.0Q156 668 156 701Q156 783 191.0 878.5Q226 974 298.0 1059.5Q370 1145 480.0 1199.0Q590 1253 740 1253Q890 1253 1000.0 1199.0Q1110 1145 1182.0 1059.5Q1254 974 1289.0 878.5Q1324 783 1324 701Q1324 668 1302.5 645.0Q1281 622 1249 622Q1224 622 1203.5 634.0Q1183 646 1154 672Q1120 713 1073 713Q1029 713 983 657Q954 622 918 622Q883 622 854 656Q831 683 800.0 698.5Q769 714 740 714Q711 714 680.0 698.5Q649 683 626 656Q597 622 562 622Q526 622 497 657Q451 713 407 713Q360 713 326 672Q297 646 276.5 634.0Q256 622 231 622ZM609 35Q517 35 454.0 94.0Q391 153 391 240Q391 279 415.5 304.5Q440 330 478 330Q514 330 537.0 305.0Q560 280 560 243Q560 222 573.5 207.5Q587 193 608 193Q629 193 642.0 206.5Q655 220 655 240V748H825V235Q825 139 762.5 87.0Q700 35 609 35Z" transform="translate(-1.8281,16.3594) scale(0.011719,-0.011719)"/>
  </g>
</svg>
