<svg xmlns="http://www.w3.org/2000/svg" viewBox="0 0 15.4336 15.4336" width="24.0000" height="24.0000">
  <g fill="black" stroke="black" stroke-width="0.25">
    <path d="M316 24Q156 24 156 193V671Q156 756 196.5 797.5Q237 839 316 839H927Q1006 839 1046.0 797.5Q1086 756 1086 671V193Q1086 24 927 24ZM776 770V983Q776 1143 872.5 1242.0Q969 1341 1124 1341Q1280 1341 1376.5 1242.0Q1473 1143 1473 983V872Q1473 833 1445.5 805.5Q1418 778 1379 778Q1339 778 1311.5 805.5Q1284 833 1284 872V990Q1284 1063 1239.5 1109.0Q1195 1155 1124 1155Q1053 1155 1009.0 1109.0Q965 1063 965 990V770Z" transform="translate(-1.8281,15.7148) scale(0.011719,-0.011719)"/>
  </g>
</svg>
