<svg xmlns="http://www.w3.org/2000/svg" viewBox="0 0 17.2148 13.7227" width="30.1076" height="24.0000">
  <g fill="black" stroke="black" stroke-width="0.25">
    <path d="M546 98Q502 98 473.0 127.0Q444 156 444 199V883L445 1025Q445 1068 475.0 1098.0Q505 1128 546 1128Q588 1128 617.5 1098.0Q647 1068 648 1025L649 884V199Q649 156 619.5 127.0Q590 98 546 98ZM939 868Q939 824 911.0 795.5Q883 767 839 767Q796 767 769 796L595 978L546 1031L502 978L328 796Q300 767 256 767Q212 767 184.0 795.5Q156 824 156 868Q156 911 187 940L473 1235Q504 1267 548.0 1267.5Q592 1268 624 1235L909 940Q939 908 939 868ZM1234 1269Q1277 1269 1306.5 1240.0Q1336 1211 1336 1168V484L1335 342Q1335 300 1305.0 270.0Q1275 240 1234 240Q1192 240 1162.5 270.0Q1133 300 1132 342L1131 484V1168Q1131 1211 1160.5 1240.0Q1190 1269 1234 1269ZM1625 499Q1625 457 1596 428L1310 132Q1278 99 1234.0 99.5Q1190 100 1159 132L874 428Q842 460 842 499Q842 543 870.5 571.5Q899 600 942 600Q987 600 1014 571L1188 389L1233 336L1281 389L1455 571Q1483 600 1525 600Q1570 600 1597.5 571.5Q1625 543 1625 499Z" transform="translate(-1.8281,14.8711) scale(0.011719,-0.011719)"/>
  </g>
</svg>
