<svg xmlns="http://www.w3.org/2000/svg" viewBox="0 0 10.3242 16.9336" width="14.6325" height="24.0000">
  <g fill="black" stroke="black" stroke-width="0.25">
    <path d="M597 1406Q666 1406 715 1354L998 1057Q1020 1035 1028.5 1011.5Q1037 988 1037 964Q1037 913 1003.0 881.5Q969 850 915 850Q886 850 859.5 863.5Q833 877 820 900L799 923L597 1217L394 923L373 900Q360 877 333.5 863.5Q307 850 278 850Q224 850 190.0 881.5Q156 913 156 964Q156 988 164.5 1011.5Q173 1035 195 1057L478 1354Q527 1406 597 1406ZM597 66Q544 66 508.0 103.5Q472 141 470 193L454 556V811L470 1173Q472 1226 508.0 1263.0Q544 1300 597 1300Q649 1300 685.0 1263.0Q721 1226 723 1173L739 811V556L723 193Q721 141 685.0 103.5Q649 66 597 66ZM597 -39Q527 -39 478 13L195 309Q173 332 164.5 355.0Q156 378 156 402Q156 454 190.0 485.5Q224 517 278 517Q307 517 333.5 503.0Q360 489 373 467L394 444L597 149L799 444L820 467Q833 489 859.5 503.0Q886 517 915 517Q969 517 1003.0 485.5Q1037 454 1037 402Q1037 378 1028.5 355.0Q1020 332 998 309L715 13Q666 -39 597 -39Z" transform="translate(-1.8281,16.4766) scale(0.011719,-0.011719)"/>
  </g>
</svg>
