<svg xmlns="http://www.w3.org/2000/svg" viewBox="0 0 13.2773 16.1836" width="19.6901" height="24.0000">
  <g fill="black" stroke="black" stroke-width="0.25">
    <path d="M722 -30Q784 -30 822.0 10.0Q860 50 860 116V461L844 628L956 496L1032 420Q1052 401 1076.5 388.0Q1101 375 1134 375Q1188 375 1225.0 413.0Q1262 451 1262 512Q1262 536 1252.5 561.5Q1243 587 1220 607L824 984Q805 1001 778.5 1013.0Q752 1025 722 1025Q662 1025 620 984L226 607Q204 587 193.5 561.5Q183 536 183 512Q183 451 220.0 413.0Q257 375 314 375Q346 375 369.5 387.5Q393 400 412 420L487 496L600 629L583 461V116Q583 50 621.0 10.0Q659 -30 722 -30ZM288 1086H1157Q1212 1086 1250.5 1124.5Q1289 1163 1289 1218Q1289 1273 1250.5 1312.0Q1212 1351 1157 1351H288Q233 1351 194.5 1312.0Q156 1273 156 1218Q156 1163 194.5 1124.5Q233 1086 288 1086Z" transform="translate(-1.8281,15.8320) scale(0.011719,-0.011719)"/>
  </g>
</svg>
