<svg xmlns="http://www.w3.org/2000/svg" viewBox="0 0 15.3984 14.8828" width="24.8315" height="24.0000">
  <g fill="black" stroke="black" stroke-width="0.25">
    <path d="M1021 1319Q1067 1319 1104 1284L1436 956Q1470 924 1470 878Q1470 833 1435.0 797.5Q1400 762 1354 762Q1307 762 1276 797L1181 904L1015 1139L860 913L766 797Q751 778 730.5 769.0Q710 760 689 760Q642 760 608.0 795.0Q574 830 574 875Q574 923 605 955L938 1284Q973 1319 1021 1319ZM283 864Q339 864 372.0 825.0Q405 786 405 725V549Q405 440 472.5 372.0Q540 304 653 304Q766 304 832.5 373.0Q899 442 899 551V893L910 1112Q912 1156 942.5 1187.0Q973 1218 1017 1218Q1060 1218 1090.0 1187.0Q1120 1156 1122 1112L1133 893V551Q1133 403 1073.0 290.0Q1013 177 904.5 113.0Q796 49 649 49Q500 49 389.5 112.5Q279 176 217.5 288.5Q156 401 156 549V725Q156 787 190.5 825.5Q225 864 283 864Z" transform="translate(-1.8281,15.4570) scale(0.011719,-0.011719)"/>
  </g>
</svg>
