<svg xmlns="http://www.w3.org/2000/svg" viewBox="0 0 15.2227 12.3750" width="29.5227" height="24.0000">
  <g fill="black" stroke="black" stroke-width="0.25">
    <path d="M401 154Q277 154 216.5 214.5Q156 275 156 399V965Q156 1089 216.5 1149.5Q277 1210 401 1210H1210Q1334 1210 1394.5 1149.5Q1455 1089 1455 965V399Q1455 275 1394.5 214.5Q1334 154 1210 154ZM308 960H1303V978Q1303 1016 1279.0 1038.5Q1255 1061 1214 1061H397Q357 1061 332.5 1038.5Q308 1016 308 978ZM308 804H1303V844Q1303 905 1235 905H376Q308 905 308 844ZM308 648H591Q617 648 636.0 640.0Q655 632 671 607Q703 558 734.0 536.0Q765 514 806 514Q846 514 877.0 536.0Q908 558 940 607Q956 632 975.0 640.0Q994 648 1020 648H1303V688Q1303 749 1235 749H376Q308 749 308 688Z" transform="translate(-1.8281,14.1797) scale(0.011719,-0.011719)"/>
  </g>
</svg>
