<svg xmlns="http://www.w3.org/2000/svg" viewBox="0 0 12.2461 14.5547" width="20.1932" height="24.0000">
  <g fill="black" stroke="black" stroke-width="0.25">
    <path d="M1041 1305Q1112 1305 1156.5 1259.5Q1201 1214 1201 1142V1000H156V1142Q156 1214 200.5 1259.5Q245 1305 316 1305ZM383 1073Q408 1073 426.5 1091.5Q445 1110 445 1136Q445 1162 426.5 1180.5Q408 1199 383 1199Q357 1199 338.5 1180.5Q320 1162 320 1136Q320 1110 338.5 1091.5Q357 1073 383 1073ZM552 1073Q578 1073 596.5 1091.5Q615 1110 615 1136Q615 1162 596.5 1180.5Q578 1199 552 1199Q526 1199 507.5 1180.5Q489 1162 489 1136Q489 1110 507.5 1091.5Q526 1073 552 1073ZM879 1093H997Q1015 1093 1027.0 1105.0Q1039 1117 1039 1136Q1039 1154 1027.0 1166.0Q1015 1178 997 1178H879Q860 1178 848.0 1166.0Q836 1154 836 1136Q836 1093 879 1093ZM316 63Q245 63 200.5 108.5Q156 154 156 226V898H1201V226Q1201 154 1156.5 108.5Q1112 63 1041 63ZM678 179Q766 179 838.0 222.0Q910 265 953.0 336.5Q996 408 996 496Q996 583 953.0 655.0Q910 727 838.0 770.0Q766 813 678 813Q591 813 519.0 770.0Q447 727 404.0 655.0Q361 583 361 496Q361 408 404.0 336.5Q447 265 519.0 222.0Q591 179 678 179ZM678 277Q618 277 568.0 306.5Q518 336 488.5 385.5Q459 435 459 496Q459 556 488.5 606.0Q518 656 568.0 685.5Q618 715 678 715Q739 715 788.5 685.5Q838 656 868.0 606.0Q898 556 898 496Q898 435 868.0 385.5Q838 336 788.5 306.5Q739 277 678 277Z" transform="translate(-1.8281,15.2930) scale(0.011719,-0.011719)"/>
  </g>
</svg>
