<svg xmlns="http://www.w3.org/2000/svg" viewBox="0 0 16.3945 14.7539" width="26.6688" height="24.0000">
  <g fill="black" stroke="black" stroke-width="0.25">
    <path d="M239 447Q205 447 180.5 471.5Q156 496 156 530V836Q156 871 180.5 895.5Q205 920 239 920Q274 920 298.5 895.5Q323 871 323 836V530Q323 496 298.5 471.5Q274 447 239 447ZM547 278Q513 278 488.0 302.5Q463 327 463 362V1005Q463 1039 488.0 1063.5Q513 1088 547 1088Q581 1088 606.0 1063.5Q631 1039 631 1005V362Q631 327 606.0 302.5Q581 278 547 278ZM857 53Q822 53 797.5 77.5Q773 102 773 137V1228Q773 1263 797.5 1287.5Q822 1312 857 1312Q891 1312 915.5 1287.5Q940 1263 940 1228V137Q940 103 915.5 78.0Q891 53 857 53ZM1163 206Q1129 206 1104.5 230.5Q1080 255 1080 289V1078Q1080 1112 1104.5 1136.5Q1129 1161 1163 1161Q1198 1161 1222.5 1136.5Q1247 1112 1247 1078V289Q1247 255 1222.5 230.5Q1198 206 1163 206ZM1471 477Q1437 477 1412.5 501.5Q1388 526 1388 560V807Q1388 841 1412.5 865.5Q1437 890 1471 890Q1506 890 1530.5 865.5Q1555 841 1555 807V560Q1555 525 1530.5 501.0Q1506 477 1471 477Z" transform="translate(-1.8281,15.3750) scale(0.011719,-0.011719)"/>
  </g>
</svg>
