<svg xmlns="http://www.w3.org/2000/svg" viewBox="0 0 27.7969 27.8320" width="23.9697" height="24.0000">
  <g fill="black" stroke="black" stroke-width="0.25">
    <path d="M1406 1636H1588V-266H1406ZM2447 776V594H547V776ZM2187 1503 2316 1376 807 -133 678 -6ZM2316 -6 2187 -133 678 1376 807 1503ZM1495 -3Q1353 -3 1228.0 50.0Q1103 103 1008.0 197.5Q913 292 859.5 417.0Q806 542 806 684Q806 828 859.5 952.5Q913 1077 1008.0 1172.0Q1103 1267 1228.0 1320.0Q1353 1373 1495 1373Q1638 1373 1763.0 1320.0Q1888 1267 1982.5 1172.0Q2077 1077 2130.5 952.5Q2184 828 2184 684Q2184 542 2130.5 417.0Q2077 292 1982.5 197.5Q1888 103 1763.0 50.0Q1638 -3 1495 -3ZM1496 196Q1599 196 1688.0 233.5Q1777 271 1844.0 338.0Q1911 405 1948.5 493.5Q1986 582 1986 684Q1986 787 1948.5 876.0Q1911 965 1844.0 1032.0Q1777 1099 1688.0 1136.5Q1599 1174 1496 1174Q1394 1174 1305.0 1136.5Q1216 1099 1149.0 1032.0Q1082 965 1044.0 876.0Q1006 787 1006 684Q1006 582 1044.0 493.5Q1082 405 1149.0 338.0Q1216 271 1305.0 233.5Q1394 196 1496 196ZM992 -503Q832 -503 705.5 -455.5Q579 -408 493 -321Q405 -234 358.0 -107.5Q311 19 311 179V1191Q311 1351 358.0 1477.5Q405 1604 493 1691Q579 1778 705.5 1825.0Q832 1872 992 1872H2002Q2162 1872 2288.5 1825.0Q2415 1778 2501 1691Q2589 1604 2636.0 1477.5Q2683 1351 2683 1191V179Q2683 19 2636.0 -107.5Q2589 -234 2501 -321Q2415 -408 2288.5 -455.5Q2162 -503 2002 -503ZM1024 -110H1970Q2147 -110 2219 -39Q2291 32 2291 210V1159Q2291 1337 2219 1409Q2147 1480 1970 1480H1024Q847 1480 775 1409Q703 1337 703 1159V210Q703 32 775 -39Q847 -110 1024 -110Z" transform="translate(-3.6445,21.9375) scale(0.011719,-0.011719)"/>
  </g>
</svg>
