<svg xmlns="http://www.w3.org/2000/svg" viewBox="0 0 35.0508 32.4023" width="25.9617" height="24.0000">
  <g fill="black" stroke="black" stroke-width="0.25">
    <path d="M1199 -699Q1015 -699 854.0 -630.0Q693 -561 571.0 -439.0Q449 -317 380.0 -156.5Q311 4 311 188Q311 372 380.0 532.5Q449 693 571.0 815.0Q693 937 854.0 1006.0Q1015 1075 1199 1075Q1384 1075 1544.5 1006.0Q1705 937 1826.5 815.0Q1948 693 2016.5 532.5Q2085 372 2085 188Q2085 5 2016.0 -156.0Q1947 -317 1825.5 -439.0Q1704 -561 1543.5 -630.0Q1383 -699 1199 -699ZM1199 -397Q1320 -397 1426.0 -351.5Q1532 -306 1612.0 -225.5Q1692 -145 1737.5 -39.0Q1783 67 1783 188Q1783 309 1737.5 415.0Q1692 521 1612.0 601.5Q1532 682 1426.0 727.5Q1320 773 1199 773Q1077 773 971.0 727.5Q865 682 785.0 601.5Q705 521 659.5 415.0Q614 309 614 188Q614 66 659.0 -40.0Q704 -146 784.0 -226.0Q864 -306 970.5 -351.5Q1077 -397 1199 -397ZM1199 -36Q1104 -36 1038.5 29.5Q973 95 974 189Q975 285 1040.0 349.0Q1105 413 1199 413Q1294 413 1359.0 348.0Q1424 283 1424 188Q1424 94 1358.5 29.0Q1293 -36 1199 -36ZM1228 800 1027 1748Q1023 1763 1005 1763H667Q604 1763 559.5 1807.0Q515 1851 515 1914Q515 1977 559.5 2021.5Q604 2066 667 2066H1094Q1167 2066 1213.5 2035.5Q1260 2005 1273 1942L1512 803ZM1275 1202 1224 1501H2215Q2277 1501 2320.5 1457.0Q2364 1413 2364 1351Q2364 1290 2320.5 1246.0Q2277 1202 2215 1202ZM1894 119V414H2409Q2443 414 2465.5 436.0Q2488 458 2488 491Q2488 523 2465.5 545.5Q2443 568 2409 568H1830L1496 862H2422Q2527 862 2610.5 812.0Q2694 762 2742.5 677.5Q2791 593 2791 488Q2791 386 2742.5 302.0Q2694 218 2610.5 168.5Q2527 119 2422 119ZM2427 -269 2214 278 2501 280 2675 -170ZM2627 -699Q2540 -699 2468.0 -656.0Q2396 -613 2353.0 -541.5Q2310 -470 2310 -382Q2310 -295 2352.5 -223.5Q2395 -152 2467.0 -109.5Q2539 -67 2627 -67Q2714 -67 2786.0 -109.5Q2858 -152 2900.5 -223.5Q2943 -295 2943 -382Q2943 -470 2900.5 -541.5Q2858 -613 2786.0 -656.0Q2714 -699 2627 -699ZM2627 -476Q2666 -476 2693.0 -448.5Q2720 -421 2720 -382Q2720 -344 2693.0 -317.0Q2666 -290 2627 -290Q2588 -290 2560.5 -317.0Q2533 -344 2533 -382Q2533 -421 2560.5 -448.5Q2588 -476 2627 -476ZM2819 -556 2816 -253H3151Q3213 -253 3257.5 -297.5Q3302 -342 3302 -404Q3302 -467 3257.5 -511.5Q3213 -556 3151 -556Z" transform="translate(-3.6445,24.2109) scale(0.011719,-0.011719)"/>
  </g>
</svg>
