<svg xmlns="http://www.w3.org/2000/svg" viewBox="0 0 33.5156 33.5099" width="24.0041" height="24.0000">
  <g fill="black" stroke="black" stroke-width="0.25">
    <path d="M915 -420Q728 -420 634.5 -327.0Q541 -234 541 -46V202Q541 227 524 245L349 420Q216 553 216.0 684.5Q216 816 349 949L524 1124Q541 1142 541 1167V1415Q541 1604 634.0 1696.5Q727 1789 915 1789H1163Q1189 1789 1206 1807L1382 1980Q1516 2113 1646.5 2114.0Q1777 2115 1910 1982L2085 1807Q2103 1789 2128 1789H2377Q2564 1789 2657.0 1696.0Q2750 1603 2750 1415V1167Q2750 1142 2768 1124L2943 949Q3076 816 3076.0 684.5Q3076 553 2943 420L2768 245Q2750 227 2750 202V-46Q2750 -233 2657.0 -326.5Q2564 -420 2377 -420H2128Q2103 -420 2085 -438L1910 -613Q1777 -745 1645.5 -745.5Q1514 -746 1382 -613L1206 -438Q1189 -420 1163 -420ZM986 -97 1273 -98Q1299 -98 1318.5 -105.0Q1338 -112 1357 -132L1561 -335Q1616 -391 1646.0 -391.0Q1676 -391 1731 -335L1934 -132Q1954 -112 1973.5 -105.0Q1993 -98 2019 -98L2305 -97Q2383 -97 2404.5 -75.5Q2426 -54 2426 24L2427 311Q2427 361 2461 395L2665 598Q2720 654 2720.0 683.5Q2720 713 2665 769L2461 972Q2428 1005 2426 1056V1343Q2426 1420 2404.5 1441.5Q2383 1463 2305 1463L2019 1464Q1968 1464 1934 1498L1731 1702Q1675 1758 1645.5 1757.5Q1616 1757 1561 1702L1357 1498Q1324 1464 1273 1464L986 1463Q908 1463 887.0 1442.5Q866 1422 866 1343V1056Q864 1005 831 972L627 769Q572 713 572.0 683.5Q572 654 627 598L831 395Q865 361 865 311V24Q866 -54 887.5 -75.5Q909 -97 986 -97Z" transform="translate(-2.5312,24.7735) scale(0.011719,-0.011719)"/>
  </g>
</svg>
