<svg xmlns="http://www.w3.org/2000/svg" viewBox="0 0 31.0430 34.5469" width="21.5658" height="24.0000">
  <g fill="black" stroke="black" stroke-width="0.25">
    <path d="M499 -190Q411 -140 361.0 -54.0Q311 32 311 135V1232Q311 1334 361.0 1420.5Q411 1507 499 1557L1447 2105Q1537 2157 1636.0 2157.0Q1735 2157 1824 2105L2773 1557Q2860 1507 2910.0 1420.5Q2960 1334 2960 1232V135Q2960 32 2910.0 -54.0Q2860 -140 2773 -190L1824 -739Q1735 -791 1636.0 -791.0Q1537 -791 1447 -739ZM692 209Q692 140 753 104L1575 -372Q1636 -408 1696 -372L2519 104Q2580 140 2580 209V1157Q2580 1227 2519 1262L1696 1739Q1636 1774 1575 1739L753 1262Q692 1227 692 1157ZM1331 90Q1292 61 1255.0 66.5Q1218 72 1199.5 104.5Q1181 137 1198 187L1318 544L1010 765Q976 790 969.5 828.0Q963 866 985.5 895.5Q1008 925 1061 924L1439 919L1554 1281Q1569 1329 1602.5 1345.0Q1636 1361 1669.0 1345.0Q1702 1329 1718 1281L1834 919L2212 924Q2267 925 2288.5 895.5Q2310 866 2302.5 828.0Q2295 790 2261 765L1955 545L2074 187Q2091 135 2073.0 103.0Q2055 71 2018.0 66.0Q1981 61 1941 90L1636 314Z" transform="translate(-3.6445,25.2773) scale(0.011719,-0.011719)"/>
  </g>
</svg>
