<svg xmlns="http://www.w3.org/2000/svg" viewBox="0 0 35.9835 36.8972" width="23.4057" height="24.0000">
  <g fill="black" stroke="black" stroke-width="0.25">
    <path d="M460 -681Q340 -561 300.0 -412.0Q260 -263 305.5 -114.0Q351 35 487 155Q587 244 720.5 337.0Q854 430 1002.0 530.0Q1150 630 1295.0 740.0Q1440 850 1564 973Q1620 1029 1638.0 1100.5Q1656 1172 1657.0 1257.0Q1658 1342 1659.5 1437.5Q1661 1533 1682.0 1636.0Q1703 1739 1762.0 1848.0Q1821 1957 1938 2068Q2058 2182 2210.5 2237.5Q2363 2293 2525.5 2289.5Q2688 2286 2840.5 2223.5Q2993 2161 3113 2039Q3173 1978 3210.0 1903.5Q3247 1829 3263 1772L2717 1623Q2686 1614 2674.0 1589.5Q2662 1565 2672 1531L2708 1403Q2718 1370 2739.5 1353.5Q2761 1337 2793 1345L3331 1493Q3372 1334 3332.5 1179.5Q3293 1025 3193.0 899.0Q3093 773 2952 702Q2865 651 2785.5 627.0Q2706 603 2633.5 594.0Q2561 585 2494.0 580.5Q2427 576 2365.5 566.0Q2304 556 2247.0 529.5Q2190 503 2136 450Q2003 316 1888.0 166.0Q1773 16 1671.5 -133.5Q1570 -283 1477.5 -417.0Q1385 -551 1296 -652Q1177 -789 1028.0 -834.5Q879 -880 730.0 -840.5Q581 -801 460 -681ZM671 -472Q729 -532 802.5 -551.0Q876 -570 951.0 -544.5Q1026 -519 1089 -447Q1174 -350 1268.5 -213.0Q1363 -76 1467.0 78.5Q1571 233 1686.0 384.0Q1801 535 1926 660Q2012 746 2100.0 788.5Q2188 831 2275.5 847.0Q2363 863 2448.5 868.0Q2534 873 2616.0 883.5Q2698 894 2776.0 925.5Q2854 957 2925 1027Q2980 1080 3017.5 1146.0Q3055 1212 3074 1288L3278 1187L2834 1068Q2683 1027 2580.0 1091.0Q2477 1155 2427 1328L2392 1450Q2345 1613 2410.5 1732.0Q2476 1851 2634 1892L3056 2003L2944 1809Q2865 1894 2761.0 1939.0Q2657 1984 2545.5 1989.5Q2434 1995 2330.5 1961.5Q2227 1928 2149 1857Q2052 1767 2009.5 1676.0Q1967 1585 1956.5 1492.5Q1946 1400 1947.5 1307.5Q1949 1215 1941.5 1123.0Q1934 1031 1897.5 941.0Q1861 851 1774 763Q1681 670 1568.0 581.0Q1455 492 1334.5 407.5Q1214 323 1096.0 243.5Q978 164 874.5 90.0Q771 16 694 -52Q624 -114 599.0 -188.5Q574 -263 592.5 -337.0Q611 -411 671 -472ZM2128 980Q2111 975 2093.5 984.0Q2076 993 2073 1012Q2071 1030 2079.5 1045.0Q2088 1060 2105 1065L2353 1131Q2371 1136 2386.5 1127.0Q2402 1118 2406 1102Q2411 1084 2402.0 1068.0Q2393 1052 2376 1047ZM2097 1105Q2055 1094 2042 1137Q2038 1154 2046.5 1169.5Q2055 1185 2073 1190L2321 1256Q2337 1259 2352.0 1251.0Q2367 1243 2373 1225Q2379 1206 2369.5 1190.5Q2360 1175 2342 1170ZM2067 1230Q2047 1225 2031.0 1233.5Q2015 1242 2011 1262Q2007 1279 2016.0 1294.5Q2025 1310 2042 1315L2291 1381Q2307 1384 2322.0 1376.0Q2337 1368 2342 1350Q2348 1331 2339.0 1315.5Q2330 1300 2312 1295ZM2603 672 2427 1328 2619 1382 2795 725ZM874 -395Q822 -395 784.5 -357.5Q747 -320 747 -267Q747 -215 784.5 -177.5Q822 -140 874 -140Q928 -140 965.0 -177.5Q1002 -215 1002 -267Q1002 -320 965.0 -357.5Q928 -395 874 -395Z" transform="translate(-3.2963,26.8325) scale(0.011719,-0.011719)"/>
  </g>
</svg>
