<svg xmlns="http://www.w3.org/2000/svg" viewBox="0 0 30.9023 30.9023" width="24.0000" height="24.0000">
  <g fill="black" stroke="black" stroke-width="0.25">
    <path d="M1537 -635Q1319 -635 1121.0 -568.5Q923 -502 758.5 -381.0Q594 -260 473.0 -95.0Q352 70 285.5 267.5Q219 465 219 683Q219 902 285.5 1099.5Q352 1297 473.0 1462.0Q594 1627 758.5 1748.0Q923 1869 1121.0 1935.5Q1319 2002 1537 2002Q1755 2002 1953.0 1935.5Q2151 1869 2315.5 1748.0Q2480 1627 2601.0 1462.0Q2722 1297 2789.0 1099.5Q2856 902 2856 683Q2856 465 2789.0 267.5Q2722 70 2601.0 -95.0Q2480 -260 2315.5 -381.0Q2151 -502 1953.0 -568.5Q1755 -635 1537 -635ZM1537 -239Q1728 -239 1895.5 -167.5Q2063 -96 2189.5 31.0Q2316 158 2388.0 325.0Q2460 492 2460 683Q2460 875 2388.0 1042.0Q2316 1209 2189.5 1336.0Q2063 1463 1895.5 1534.5Q1728 1606 1537 1606Q1346 1606 1178.5 1534.5Q1011 1463 884.5 1336.0Q758 1209 686.0 1042.0Q614 875 614 683Q614 492 686.0 325.0Q758 158 884.5 31.0Q1011 -96 1178.5 -167.5Q1346 -239 1537 -239ZM1117 58Q1082 58 1055.5 84.0Q1029 110 1029 145V1094Q1029 1197 1120 1237Q1157 1254 1195.0 1261.0Q1233 1268 1297 1268Q1377 1268 1444.0 1253.0Q1511 1238 1571.5 1218.0Q1632 1198 1693.0 1183.0Q1754 1168 1821 1168Q1885 1168 1925.0 1179.5Q1965 1191 1996 1191Q2044 1191 2069.0 1167.0Q2094 1143 2094 1101V542Q2094 437 2005 398Q1967 381 1929.0 374.0Q1891 367 1826 367Q1751 367 1686.5 382.0Q1622 397 1561.5 416.5Q1501 436 1438.0 451.0Q1375 466 1303 466Q1272 466 1246.5 462.0Q1221 458 1203 451V145Q1203 108 1178.5 83.0Q1154 58 1117 58Z" transform="translate(-2.5664,23.4609) scale(0.011719,-0.011719)"/>
  </g>
</svg>
