<svg xmlns="http://www.w3.org/2000/svg" viewBox="0 0 38.5781 28.7227" width="32.2350" height="24.0000">
  <g fill="black" stroke="black" stroke-width="0.25">
    <path d="M219 683Q219 959 309.0 1184.5Q399 1410 566.5 1572.0Q734 1734 966.0 1821.5Q1198 1909 1483 1909H2247Q2531 1909 2763.5 1821.5Q2996 1734 3163.5 1572.0Q3331 1410 3421.0 1184.5Q3511 959 3511 683Q3511 407 3421.0 182.0Q3331 -43 3163.5 -205.0Q2996 -367 2763.5 -454.5Q2531 -542 2247 -542H1483Q1198 -542 966.0 -454.5Q734 -367 566.5 -205.0Q399 -43 309.0 182.0Q219 407 219 683ZM611 683Q611 494 672.5 340.5Q734 187 848.5 77.5Q963 -32 1123.5 -91.0Q1284 -150 1483 -150H2247Q2445 -150 2606.0 -91.0Q2767 -32 2881.5 77.5Q2996 187 3057.5 340.5Q3119 494 3119 683Q3119 873 3057.5 1026.0Q2996 1179 2881.5 1289.0Q2767 1399 2606.0 1458.0Q2445 1517 2247 1517H1483Q1284 1517 1123.5 1458.0Q963 1399 848.5 1289.0Q734 1179 672.5 1026.0Q611 873 611 683ZM2024 278Q2024 211 1978.5 167.5Q1933 124 1865 124Q1797 124 1751.5 167.5Q1706 211 1706 278V1089Q1706 1156 1751.5 1200.0Q1797 1244 1865 1244Q1933 1244 1978.5 1200.0Q2024 1156 2024 1089ZM1460 525Q1393 525 1349.0 570.0Q1305 615 1305 683Q1305 752 1349.0 797.5Q1393 843 1460 843H2271Q2337 843 2381.0 797.5Q2425 752 2425 683Q2425 615 2381.0 570.0Q2337 525 2271 525Z" transform="translate(-2.5664,22.3711) scale(0.011719,-0.011719)"/>
  </g>
</svg>
