<svg xmlns="http://www.w3.org/2000/svg" viewBox="0 0 31.9102 30.4922" width="25.1161" height="24.0000">
  <g fill="black" stroke="black" stroke-width="0.25">
    <path d="M1285 -618Q1203 -618 1134.0 -598.5Q1065 -579 1007.0 -540.0Q949 -501 900 -445L436 92Q386 150 359.0 199.0Q332 248 321.5 303.0Q311 358 311 434V932Q311 1009 321.5 1063.5Q332 1118 359.0 1167.0Q386 1216 436 1274L900 1811Q949 1867 1007.0 1906.0Q1065 1945 1134.0 1964.5Q1203 1984 1285 1984H2060Q2142 1984 2212.0 1965.0Q2282 1946 2340.0 1907.0Q2398 1868 2445 1811L2886 1274Q2939 1209 2971.5 1161.0Q3004 1113 3019.0 1061.0Q3034 1009 3034 932V434Q3034 358 3023.5 303.0Q3013 248 2986.0 199.0Q2959 150 2909 92L2445 -445Q2396 -501 2338.0 -540.0Q2280 -579 2211.0 -598.5Q2142 -618 2060 -618ZM1325 -237H2020Q2066 -237 2099.0 -228.0Q2132 -219 2157.5 -200.5Q2183 -182 2208 -153L2574 264Q2609 305 2621.0 343.5Q2633 382 2633 450V916Q2633 984 2621.0 1023.0Q2609 1062 2574 1102L2208 1519Q2183 1548 2157.5 1566.5Q2132 1585 2099.0 1594.5Q2066 1604 2020 1604H1325Q1279 1604 1246.0 1594.5Q1213 1585 1187.5 1566.5Q1162 1548 1137 1519L771 1102Q736 1062 724.0 1023.0Q712 984 712 916V450Q712 382 724.0 343.5Q736 305 771 264L1137 -153Q1162 -182 1187.5 -200.5Q1213 -219 1246.0 -228.0Q1279 -237 1325 -237Z" transform="translate(-3.6445,23.2500) scale(0.011719,-0.011719)"/>
  </g>
</svg>
