<svg xmlns="http://www.w3.org/2000/svg" viewBox="0 0 27.0352 29.4141" width="22.0590" height="24.0000">
  <g fill="black" stroke="black" stroke-width="0.25">
    <path d="M534 -572Q459 -572 405.0 -518.0Q351 -464 351 -388V1632Q351 1718 387.5 1769.5Q424 1821 496 1855Q556 1882 617.5 1900.5Q679 1919 749.0 1928.5Q819 1938 904 1938Q1061 1938 1210.5 1904.0Q1360 1870 1506.0 1825.0Q1652 1780 1799.5 1746.0Q1947 1712 2101 1712Q2178 1712 2239.5 1720.0Q2301 1728 2353.0 1736.5Q2405 1745 2455 1745Q2546 1745 2602.0 1685.0Q2658 1625 2658 1531V380Q2658 290 2624.5 221.5Q2591 153 2517 118Q2467 94 2406.0 75.5Q2345 57 2270.5 47.0Q2196 37 2105 37Q1943 37 1794.5 71.0Q1646 105 1502.0 150.0Q1358 195 1212.0 229.0Q1066 263 908 263Q867 263 831.0 259.0Q795 255 766.5 249.0Q738 243 718 238V-388Q718 -465 663.5 -518.5Q609 -572 534 -572ZM2087 417Q2154 417 2199.5 428.5Q2245 440 2270 455V1355Q2234 1346 2186.0 1342.5Q2138 1339 2083 1339Q1924 1339 1775.5 1372.5Q1627 1406 1484.0 1450.0Q1341 1494 1201.0 1527.5Q1061 1561 920 1561Q854 1561 810.0 1548.0Q766 1535 739 1520V619Q772 629 820.0 634.5Q868 640 924 640Q1088 640 1239.0 606.0Q1390 572 1532.5 528.0Q1675 484 1812.5 450.5Q1950 417 2087 417Z" transform="translate(-4.1133,22.7109) scale(0.011719,-0.011719)"/>
  </g>
</svg>
