<svg xmlns="http://www.w3.org/2000/svg" viewBox="0 0 33.5156 33.5099" width="24.0041" height="24.0000">
  <g fill="black" stroke="black" stroke-width="0.25">
    <path d="M915 -418Q728 -418 634.5 -325.0Q541 -232 541 -44V204Q541 229 524 247L349 422Q216 555 216.0 686.5Q216 818 349 951L524 1126Q541 1144 541 1169V1417Q541 1606 634.0 1698.5Q727 1791 915 1791H1163Q1189 1791 1206 1809L1382 1982Q1516 2115 1646.5 2116.0Q1777 2117 1910 1984L2085 1809Q2103 1791 2128 1791H2377Q2564 1791 2657.0 1698.0Q2750 1605 2750 1417V1169Q2750 1144 2768 1126L2943 951Q3076 818 3076.0 686.5Q3076 555 2943 422L2768 247Q2750 229 2750 204V-44Q2750 -231 2657.0 -324.5Q2564 -418 2377 -418H2128Q2103 -418 2085 -436L1910 -611Q1777 -743 1645.5 -743.5Q1514 -744 1382 -611L1206 -436Q1189 -418 1163 -418ZM986 -95 1273 -96Q1299 -96 1318.5 -103.0Q1338 -110 1357 -130L1561 -333Q1616 -389 1646.0 -389.0Q1676 -389 1731 -333L1934 -130Q1954 -110 1973.5 -103.0Q1993 -96 2019 -96L2305 -95Q2383 -95 2404.5 -73.5Q2426 -52 2426 26L2427 313Q2427 363 2461 397L2665 600Q2720 656 2720.0 685.5Q2720 715 2665 771L2461 974Q2428 1007 2426 1058V1345Q2426 1422 2404.5 1443.5Q2383 1465 2305 1465L2019 1466Q1968 1466 1934 1500L1731 1704Q1675 1760 1645.5 1759.5Q1616 1759 1561 1704L1357 1500Q1324 1466 1273 1466L986 1465Q908 1465 887.0 1444.5Q866 1424 866 1345V1058Q864 1007 831 974L627 771Q572 715 572.0 685.5Q572 656 627 600L831 397Q865 363 865 313V26Q866 -52 887.5 -73.5Q909 -95 986 -95ZM1521 104Q1476 104 1440.0 124.0Q1404 144 1374 180L1121 478Q1077 531 1077 586Q1077 649 1122.0 692.5Q1167 736 1229 736Q1264 736 1292.0 721.5Q1320 707 1345 678L1519 469L1910 1101Q1962 1187 2043 1187Q2104 1187 2151.0 1146.5Q2198 1106 2198 1044Q2198 1020 2189.0 994.5Q2180 969 2163 944L1664 183Q1612 104 1521 104Z" transform="translate(-2.5312,24.7970) scale(0.011719,-0.011719)"/>
  </g>
</svg>
