<svg xmlns="http://www.w3.org/2000/svg" viewBox="0 0 38.5781 28.7227" width="32.2350" height="24.0000">
  <g fill="black" stroke="black" stroke-width="0.25">
    <path d="M219 683Q219 959 309.0 1184.5Q399 1410 566.5 1572.0Q734 1734 966.0 1821.5Q1198 1909 1483 1909H2247Q2531 1909 2763.5 1821.5Q2996 1734 3163.5 1572.0Q3331 1410 3421.0 1184.5Q3511 959 3511 683Q3511 407 3421.0 182.0Q3331 -43 3163.5 -205.0Q2996 -367 2763.5 -454.5Q2531 -542 2247 -542H1483Q1198 -542 966.0 -454.5Q734 -367 566.5 -205.0Q399 -43 309.0 182.0Q219 407 219 683ZM611 683H3119Q3119 873 3057.5 1026.0Q2996 1179 2881.5 1289.0Q2767 1399 2606.0 1458.0Q2445 1517 2247 1517H1483Q1284 1517 1123.5 1458.0Q963 1399 848.5 1289.0Q734 1179 672.5 1026.0Q611 873 611 683Z" transform="translate(-2.5664,22.3711) scale(0.011719,-0.011719)"/>
  </g>
</svg>
