<svg xmlns="http://www.w3.org/2000/svg" viewBox="0 0 38.4023 38.5078" width="23.9343" height="24.0000">
  <g fill="black" stroke="black" stroke-width="0.25">
    <path d="M1639 -281Q1519 -281 1419.5 -253.5Q1320 -226 1245.5 -188.0Q1171 -150 1128 -118Q1055 -151 984.0 -166.0Q913 -181 849 -181Q692 -181 570.5 -110.0Q449 -39 380.0 86.0Q311 211 311 372Q311 481 354.0 594.0Q397 707 489 812Q419 899 387.0 997.5Q355 1096 355 1191Q355 1303 393.0 1408.0Q431 1513 499.5 1601.0Q568 1689 659.5 1749.5Q751 1810 859 1832Q876 1941 940.5 2029.5Q1005 2118 1101.0 2181.5Q1197 2245 1309.0 2279.5Q1421 2314 1535 2314Q1650 2314 1757.0 2279.0Q1864 2244 1950 2166Q2036 2244 2143.0 2279.0Q2250 2314 2365 2314Q2478 2314 2590.5 2279.5Q2703 2245 2798.5 2181.5Q2894 2118 2958.5 2029.5Q3023 1941 3041 1832Q3148 1810 3240.0 1749.5Q3332 1689 3400.0 1601.0Q3468 1513 3506.0 1408.0Q3544 1303 3544 1191Q3544 1096 3512.5 997.5Q3481 899 3410 812Q3502 707 3545.0 594.0Q3588 481 3588 372Q3588 211 3519.0 86.0Q3450 -39 3328.5 -110.0Q3207 -181 3051 -181Q2986 -181 2915.5 -166.0Q2845 -151 2772 -118Q2728 -150 2653.5 -188.0Q2579 -226 2479.5 -253.5Q2380 -281 2260 -281Q2192 -281 2111.5 -268.0Q2031 -255 1950 -227Q1868 -255 1788.0 -268.0Q1708 -281 1639 -281ZM1639 30Q1710 30 1777.5 46.0Q1845 62 1950 107Q2055 62 2122.0 46.0Q2189 30 2260 30Q2369 30 2454.0 60.0Q2539 90 2606.0 142.0Q2673 194 2728 263Q2799 202 2863.0 177.0Q2927 152 2995 152Q3104 152 3177.0 221.5Q3250 291 3250 399Q3250 469 3212.5 542.5Q3175 616 3081 701Q3029 747 3032.5 811.0Q3036 875 3076 914Q3154 995 3184.5 1068.0Q3215 1141 3215 1212Q3215 1304 3169.5 1378.0Q3124 1452 3043.5 1494.5Q2963 1537 2857 1533Q2787 1533 2764.0 1563.5Q2741 1594 2742 1617Q2746 1709 2715.5 1779.5Q2685 1850 2628.0 1899.0Q2571 1948 2495.5 1973.0Q2420 1998 2334 1998Q2224 1998 2125.0 1957.0Q2026 1916 1950 1840Q1873 1916 1774.5 1957.0Q1676 1998 1566 1998Q1479 1998 1403.5 1973.0Q1328 1948 1271.0 1899.0Q1214 1850 1183.5 1779.5Q1153 1709 1157 1617Q1158 1594 1135.0 1563.5Q1112 1533 1043 1533Q937 1537 856.0 1494.5Q775 1452 730.0 1378.0Q685 1304 685 1212Q685 1141 715.0 1068.0Q745 995 824 914Q863 875 866.5 811.0Q870 747 818 701Q724 616 686.5 542.5Q649 469 649 399Q649 291 722.5 221.5Q796 152 904 152Q972 152 1036.0 177.0Q1100 202 1171 263Q1226 194 1293.0 142.0Q1360 90 1445.0 60.0Q1530 30 1639 30ZM1284 343Q1246 343 1218.0 370.0Q1190 397 1190 437Q1190 476 1218.0 504.0Q1246 532 1284 532Q1384 533 1449.5 568.5Q1515 604 1547.0 669.5Q1579 735 1579 827Q1579 864 1606.5 883.5Q1634 903 1667.5 900.0Q1701 897 1720 866Q1761 802 1817.0 771.0Q1873 740 1950 740Q2026 740 2082.0 771.0Q2138 802 2179 866Q2198 897 2231.5 900.0Q2265 903 2292.5 883.5Q2320 864 2320 827Q2320 735 2352.0 669.5Q2384 604 2449.5 568.5Q2515 533 2615 532Q2654 532 2681.5 504.0Q2709 476 2709 437Q2709 397 2681.5 370.0Q2654 343 2615 343Q2443 343 2336.0 414.0Q2229 485 2183 596Q2134 566 2075.0 551.0Q2016 536 1950 536Q1884 536 1825.0 551.0Q1766 566 1717 596Q1670 485 1563.0 414.0Q1456 343 1284 343ZM1950 -972Q1851 -972 1791.5 -936.5Q1732 -901 1732 -848Q1732 -817 1735.5 -760.0Q1739 -703 1743.0 -633.5Q1747 -564 1750.5 -494.5Q1754 -425 1754 -370Q1754 -288 1722.5 -179.5Q1691 -71 1643.5 43.0Q1596 157 1546.5 257.5Q1497 358 1460.0 427.0Q1423 496 1414 513L1603 632Q1630 582 1663.0 523.0Q1696 464 1737.5 383.0Q1779 302 1833 184V580H2066V186Q2120 303 2162.0 383.5Q2204 464 2236.5 522.5Q2269 581 2296 632L2487 513Q2477 496 2439.5 427.0Q2402 358 2352.5 257.5Q2303 157 2255.5 43.0Q2208 -71 2176.5 -179.5Q2145 -288 2145 -370Q2145 -425 2148.5 -494.5Q2152 -564 2156.5 -633.5Q2161 -703 2164.0 -760.0Q2167 -817 2167 -848Q2167 -901 2107.5 -936.5Q2048 -972 1950 -972Z" transform="translate(-3.6445,27.1172) scale(0.011719,-0.011719)"/>
  </g>
</svg>
