<svg xmlns="http://www.w3.org/2000/svg" viewBox="0 0 9.0000 8.7422" width="24.7078" height="24.0000">
  <g fill="black" stroke="black" stroke-width="0.25">
    <path d="M451 185Q557 185 644.0 235.5Q731 286 783.0 371.0Q835 456 835 558Q835 661 783.0 745.5Q731 830 644.0 880.5Q557 931 451 931Q345 931 258.0 880.5Q171 830 119.0 745.5Q67 661 67 558Q67 456 119.0 371.0Q171 286 258.0 235.5Q345 185 451 185ZM451 448Q406 448 372.5 481.5Q339 515 339 558Q339 602 372.5 635.0Q406 668 451 668Q496 668 529.5 635.0Q563 602 563 558Q563 515 529.5 481.5Q496 448 451 448Z" transform="translate(-0.7852,10.9102) scale(0.011719,-0.011719)"/>
  </g>
</svg>
