<svg xmlns="http://www.w3.org/2000/svg" viewBox="0 0 39.5166 37.0615" width="25.5899" height="24.0000">
  <g fill="black" stroke="black" stroke-width="0.25">
    <path d="M374 -591Q273 -491 280.5 -372.0Q288 -253 399 -151L2170 1464L2385 1248L678 -367Q661 -383 659.0 -397.5Q657 -412 677 -431L775 -530Q794 -550 809.5 -548.0Q825 -546 841 -529L2414 1166L2629 950L1055 -807Q954 -920 834.0 -926.5Q714 -933 615 -834ZM1560 1974Q1694 2108 1866.0 2173.5Q2038 2239 2223.5 2235.5Q2409 2232 2587.0 2159.0Q2765 2086 2910 1941L3143 1708Q3220 1632 3243.0 1570.0Q3266 1508 3248 1428L3231 1348L3260 1320L3306 1325Q3354 1330 3403.0 1309.0Q3452 1288 3501 1239L3589 1150Q3650 1088 3652.0 1012.5Q3654 937 3595 878L3255 537Q3196 477 3120.5 479.5Q3045 482 2982 544L2894 631Q2843 680 2822.0 728.5Q2801 777 2807 827L2812 873L2783 902L2706 886Q2629 868 2565.5 889.0Q2502 910 2427 986L2191 1224Q2129 1287 2115.0 1359.5Q2101 1432 2136 1520L2208 1669Q2138 1706 2061.0 1716.0Q1984 1726 1903.5 1716.5Q1823 1707 1742 1685Q1665 1664 1610.5 1687.5Q1556 1711 1527 1764Q1501 1811 1507.5 1869.5Q1514 1928 1560 1974ZM1870 1916Q1865 1912 1866.5 1908.0Q1868 1904 1874 1906Q1980 1931 2099.5 1918.5Q2219 1906 2331.0 1855.0Q2443 1804 2529 1713L2425 1459Q2414 1432 2421.0 1411.5Q2428 1391 2448 1371L2620 1198Q2641 1178 2660.0 1173.5Q2679 1169 2707 1174L2867 1199L3069 997L3063 888Q3063 863 3080 847L3102 825L3302 1023L3278 1046Q3268 1056 3260.5 1059.0Q3253 1062 3239 1061L3129 1056L2926 1259L2954 1418Q2958 1446 2953.5 1465.5Q2949 1485 2929 1505L2661 1770Q2586 1845 2487.0 1894.0Q2388 1943 2279.5 1963.5Q2171 1984 2065.0 1972.5Q1959 1961 1870 1916Z" transform="translate(-3.2810,26.1993) scale(0.011719,-0.011719)"/>
  </g>
</svg>
