<svg xmlns="http://www.w3.org/2000/svg" viewBox="0 0 15.4102 15.4102" width="24.0000" height="24.0000">
  <g fill="black" stroke="black" stroke-width="0.25">
    <path d="M814 25Q678 25 559.0 76.5Q440 128 349.5 218.5Q259 309 207.5 428.0Q156 547 156 682Q156 818 207.0 937.5Q258 1057 349.0 1147.5Q440 1238 559.0 1289.0Q678 1340 814 1340Q949 1340 1068.0 1289.0Q1187 1238 1278.0 1147.5Q1369 1057 1420.0 937.5Q1471 818 1471 682Q1471 547 1420.0 428.0Q1369 309 1278.5 218.5Q1188 128 1069.0 76.5Q950 25 814 25ZM814 235Q907 235 988.0 269.5Q1069 304 1130.5 365.5Q1192 427 1227.0 508.0Q1262 589 1262 682Q1262 775 1227.0 856.5Q1192 938 1130.5 999.5Q1069 1061 988.0 1096.0Q907 1131 814 1131Q721 1131 640.0 1096.0Q559 1061 497.0 999.5Q435 938 400.5 856.5Q366 775 366 682Q366 589 400.5 508.0Q435 427 497.0 365.5Q559 304 640.0 269.5Q721 235 814 235ZM814 355Q725 355 650.5 399.5Q576 444 531.0 518.5Q486 593 486 683Q486 772 530.5 847.0Q575 922 649.5 966.5Q724 1011 814 1011Q904 1011 978.5 966.5Q1053 922 1097.5 847.0Q1142 772 1142 683Q1142 593 1097.5 518.5Q1053 444 978.5 399.5Q904 355 814 355Z" transform="translate(-1.8281,15.7031) scale(0.011719,-0.011719)"/>
  </g>
</svg>
