<svg xmlns="http://www.w3.org/2000/svg" viewBox="0 0 37.8114 37.8056" width="24.0037" height="24.0000">
  <g fill="black" stroke="black" stroke-width="0.25">
    <path d="M1414 1072 1683 1339Q1732 1307 1784.5 1310.5Q1837 1314 1874 1350Q1912 1388 1915.0 1441.0Q1918 1494 1885 1541L2444 2099Q2613 2268 2788.0 2271.5Q2963 2275 3127 2111L3346 1893Q3510 1729 3506.5 1553.5Q3503 1378 3334 1209L2776 651Q2729 684 2676.5 680.0Q2624 676 2586 638Q2550 601 2546.0 549.0Q2542 497 2574 449L2307 179Q2242 114 2162.0 114.0Q2082 114 2017 179L1415 781Q1350 847 1349.0 927.0Q1348 1007 1414 1072ZM1755 980Q1728 952 1727.0 924.0Q1726 896 1752 870L2105 517Q2131 491 2159.0 492.0Q2187 493 2215 520L2263 569Q2258 641 2288.0 712.0Q2318 783 2378 843Q2435 899 2503.5 926.5Q2572 954 2642 945L3132 1438Q3194 1500 3195.0 1555.5Q3196 1611 3138 1669L2904 1903Q2846 1962 2790.5 1961.0Q2735 1960 2672 1897L2180 1408Q2189 1338 2162.0 1268.5Q2135 1199 2078 1142Q2018 1082 1946.5 1052.5Q1875 1023 1804 1029ZM2381 1455 2664 1737Q2691 1764 2728.0 1763.0Q2765 1762 2791 1736Q2818 1708 2818.5 1671.5Q2819 1635 2792 1609L2511 1324Q2485 1299 2446.5 1299.0Q2408 1299 2384 1324Q2356 1352 2355.5 1390.0Q2355 1428 2381 1455ZM2562 1274 2843 1557Q2870 1583 2909.5 1583.0Q2949 1583 2974 1555Q2999 1527 2999.5 1490.5Q3000 1454 2973 1428L2690 1145Q2664 1119 2626.0 1119.5Q2588 1120 2562 1146Q2536 1172 2535.5 1210.0Q2535 1248 2562 1274ZM590 -28Q616 13 656.5 39.0Q697 65 744 72L847 89L1631 871L1824 680L961 -182L816 -208L588 -509L725 -645L1027 -419L1052 -273L1914 589L2107 396L1323 -388L1308 -492Q1300 -538 1274.0 -578.5Q1248 -619 1208 -646L783 -925Q741 -954 694.5 -954.5Q648 -955 613 -921L314 -622Q280 -587 280.0 -541.5Q280 -496 309 -453Z" transform="translate(-3.2812,26.6200) scale(0.011719,-0.011719)"/>
  </g>
</svg>
