<svg xmlns="http://www.w3.org/2000/svg" viewBox="0 0 26.9297 36.3398" width="17.7852" height="24.0000">
  <g fill="black" stroke="black" stroke-width="0.25">
    <path d="M774 -869Q553 -869 432.0 -748.5Q311 -628 311 -408V967Q311 1188 432.0 1308.5Q553 1429 774 1429H2146Q2367 1429 2488.0 1308.5Q2609 1188 2609 967V-408Q2609 -628 2489.5 -748.5Q2370 -869 2158 -869ZM827 -477H2105Q2157 -477 2187.0 -447.5Q2217 -418 2217 -352V912Q2217 978 2185.5 1007.0Q2154 1036 2093 1036H827Q766 1036 734.5 1007.0Q703 978 703 912V-352Q703 -418 734.5 -447.5Q766 -477 827 -477ZM596 1609Q607 1713 669.5 1773.5Q732 1834 856 1834H2028Q2151 1834 2213.5 1773.5Q2276 1713 2288 1609ZM799 2024Q808 2124 870.0 2178.0Q932 2232 1038 2232H1846Q1951 2232 2013.5 2178.0Q2076 2124 2085 2024Z" transform="translate(-3.6445,26.1562) scale(0.011719,-0.011719)"/>
  </g>
</svg>
