<svg xmlns="http://www.w3.org/2000/svg" viewBox="0 0 28.0195 28.0195" width="24.0000" height="24.0000">
  <g fill="black" stroke="black" stroke-width="0.25">
    <path d="M774 -513Q553 -513 432.0 -392.5Q311 -272 311 -51V1417Q311 1638 432.0 1758.0Q553 1878 774 1878H2239Q2461 1878 2581.5 1758.0Q2702 1638 2702 1417V-51Q2702 -272 2581.5 -392.5Q2461 -513 2239 -513ZM827 -120H2186Q2248 -120 2279.0 -91.0Q2310 -62 2310 4V1361Q2310 1428 2279.0 1457.0Q2248 1486 2186 1486H827Q766 1486 734.5 1457.0Q703 1428 703 1361V4Q703 -62 734.5 -91.0Q766 -120 827 -120ZM1088 58Q1053 58 1026.5 84.0Q1000 110 1000 145V1094Q1000 1197 1091 1237Q1128 1254 1166.0 1261.0Q1204 1268 1268 1268Q1348 1268 1415.0 1253.0Q1482 1238 1542.5 1218.0Q1603 1198 1664.0 1183.0Q1725 1168 1792 1168Q1856 1168 1896.0 1179.5Q1936 1191 1967 1191Q2015 1191 2040.0 1167.0Q2065 1143 2065 1101V542Q2065 437 1976 398Q1938 381 1900.0 374.0Q1862 367 1797 367Q1722 367 1657.5 382.0Q1593 397 1532.5 416.5Q1472 436 1409.0 451.0Q1346 466 1274 466Q1243 466 1217.5 462.0Q1192 458 1174 451V145Q1174 108 1149.5 83.0Q1125 58 1088 58Z" transform="translate(-3.6445,22.0078) scale(0.011719,-0.011719)"/>
  </g>
</svg>
