<svg xmlns="http://www.w3.org/2000/svg" viewBox="0 0 27.7969 27.8320" width="23.9697" height="24.0000">
  <g fill="black" stroke="black" stroke-width="0.25">
    <path d="M992 -503Q832 -503 705.5 -455.5Q579 -408 493 -321Q405 -234 358.0 -107.5Q311 19 311 179V1191Q311 1351 358.0 1477.5Q405 1604 493 1691Q579 1778 705.5 1825.0Q832 1872 992 1872H2002Q2162 1872 2288.5 1825.0Q2415 1778 2501 1691Q2589 1604 2636.0 1477.5Q2683 1351 2683 1191V179Q2683 19 2636.0 -107.5Q2589 -234 2501 -321Q2415 -408 2288.5 -455.5Q2162 -503 2002 -503ZM1024 -110H1970Q2147 -110 2219 -39Q2291 32 2291 210V1159Q2291 1337 2219 1409Q2147 1480 1970 1480H1024Q847 1480 775 1409Q703 1337 703 1159V210Q703 32 775 -39Q847 -110 1024 -110Z" transform="translate(-3.6445,21.9375) scale(0.011719,-0.011719)"/>
  </g>
</svg>
