<svg xmlns="http://www.w3.org/2000/svg" viewBox="0 0 30.9023 30.9023" width="24.0000" height="24.0000">
  <g fill="black" stroke="black" stroke-width="0.25">
    <path d="M1537 -428Q1401 -428 1282.5 -342.5Q1164 -257 1075.0 -105.0Q986 47 936.0 248.0Q886 449 886 680Q886 912 936.0 1114.0Q986 1316 1075.0 1468.0Q1164 1620 1282.5 1706.0Q1401 1792 1537 1792Q1673 1792 1791.5 1706.0Q1910 1620 1999.0 1468.0Q2088 1316 2138.0 1114.0Q2188 912 2188 680Q2188 449 2138.0 248.0Q2088 47 1999.0 -105.0Q1910 -257 1791.5 -342.5Q1673 -428 1537 -428ZM1537 -226Q1620 -226 1698.0 -150.5Q1776 -75 1838.5 53.5Q1901 182 1937.0 344.0Q1973 506 1973 680Q1973 855 1937.0 1018.0Q1901 1181 1838.5 1310.0Q1776 1439 1698.0 1514.5Q1620 1590 1537 1590Q1454 1590 1376.0 1514.5Q1298 1439 1236.0 1310.0Q1174 1181 1137.5 1018.0Q1101 855 1101 680Q1101 505 1137.5 343.0Q1174 181 1236.0 52.5Q1298 -76 1376.0 -151.0Q1454 -226 1537 -226ZM1537 -504Q1493 -504 1462.0 -473.0Q1431 -442 1431 -398V1763Q1431 1807 1462.0 1838.0Q1493 1869 1537 1869Q1581 1869 1612.0 1838.0Q1643 1807 1643 1763V-398Q1643 -442 1612.0 -473.0Q1581 -504 1537 -504ZM775 -26Q742 -53 699.0 -51.0Q656 -49 627 -18Q599 14 602.0 57.5Q605 101 637 130Q720 201 858.0 253.0Q996 305 1170.0 334.0Q1344 363 1537 363Q1730 363 1904.0 334.0Q2078 305 2216.0 253.0Q2354 201 2437 130Q2469 101 2472.0 57.5Q2475 14 2447 -18Q2418 -49 2375.5 -51.0Q2333 -53 2300 -26Q2227 29 2110.0 69.0Q1993 109 1846.0 130.0Q1699 151 1537 151Q1375 151 1228.0 130.0Q1081 109 964.0 69.0Q847 29 775 -26ZM465 577Q421 577 390.0 608.5Q359 640 359 683Q359 727 390.0 758.0Q421 789 465 789H2618Q2661 789 2692.5 758.0Q2724 727 2724 683Q2724 640 2692.5 608.5Q2661 577 2618 577ZM1537 997Q1344 997 1170.0 1026.0Q996 1055 858.0 1107.0Q720 1159 637 1230Q605 1259 602.0 1302.5Q599 1346 627 1378Q656 1410 699.0 1411.5Q742 1413 775 1386Q847 1331 964.0 1291.5Q1081 1252 1228.0 1230.5Q1375 1209 1537 1209Q1699 1209 1846.0 1230.5Q1993 1252 2110.0 1291.5Q2227 1331 2300 1386Q2333 1413 2375.5 1411.5Q2418 1410 2447 1378Q2475 1346 2472.0 1302.5Q2469 1259 2437 1230Q2354 1159 2216.0 1107.0Q2078 1055 1904.0 1026.0Q1730 997 1537 997ZM1537 -635Q1319 -635 1121.0 -568.5Q923 -502 758.5 -381.0Q594 -260 473.0 -95.0Q352 70 285.5 267.5Q219 465 219 683Q219 902 285.5 1099.5Q352 1297 473.0 1462.0Q594 1627 758.5 1748.0Q923 1869 1121.0 1935.5Q1319 2002 1537 2002Q1755 2002 1953.0 1935.5Q2151 1869 2315.5 1748.0Q2480 1627 2601.0 1462.0Q2722 1297 2789.0 1099.5Q2856 902 2856 683Q2856 465 2789.0 267.5Q2722 70 2601.0 -95.0Q2480 -260 2315.5 -381.0Q2151 -502 1953.0 -568.5Q1755 -635 1537 -635ZM1537 -333Q1747 -333 1931.5 -254.0Q2116 -175 2255.5 -35.0Q2395 105 2474.0 289.0Q2553 473 2553 683Q2553 894 2474.0 1078.0Q2395 1262 2255.5 1401.5Q2116 1541 1931.5 1620.5Q1747 1700 1537 1700Q1327 1700 1142.5 1620.5Q958 1541 818.5 1401.5Q679 1262 600.0 1078.0Q521 894 521 683Q521 473 600.0 289.0Q679 105 818.5 -35.0Q958 -175 1142.5 -254.0Q1327 -333 1537 -333Z" transform="translate(-2.5664,23.4609) scale(0.011719,-0.011719)"/>
  </g>
</svg>
