<svg xmlns="http://www.w3.org/2000/svg" viewBox="0 0 27.7969 27.8320" width="23.9697" height="24.0000">
  <g fill="black" stroke="black" stroke-width="0.25">
    <path d="M454 756H961Q914 789 880.0 833.5Q846 878 827.5 931.0Q809 984 809 1043Q809 1123 847.5 1188.0Q886 1253 952.5 1291.5Q1019 1330 1104 1330Q1165 1330 1218.5 1309.5Q1272 1289 1316.5 1251.0Q1361 1213 1394 1161V1683H1600V1161Q1633 1213 1677.5 1251.0Q1722 1289 1775.5 1309.5Q1829 1330 1890 1330Q1975 1330 2041.5 1291.5Q2108 1253 2146.5 1188.0Q2185 1123 2185 1043Q2185 984 2166.5 931.0Q2148 878 2114.0 833.5Q2080 789 2034 756H2540V563H1732Q1753 526 1788.5 487.0Q1824 448 1868.5 413.0Q1913 378 1962.0 351.5Q2011 325 2058 314Q2120 297 2153.5 262.5Q2187 228 2187 173Q2187 117 2146.0 71.5Q2105 26 2029 39Q1967 50 1904.0 82.5Q1841 115 1783.5 165.5Q1726 216 1680.5 280.5Q1635 345 1608 420H1600V-372H1394V420H1386Q1360 345 1314.5 280.5Q1269 216 1211.5 165.5Q1154 115 1091.0 82.5Q1028 50 966 39Q889 26 848.0 71.5Q807 117 807 173Q807 228 840.5 262.5Q874 297 936 314Q983 325 1032.0 351.5Q1081 378 1125.5 413.0Q1170 448 1206.0 487.0Q1242 526 1262 563H454ZM1352 762H1374V787Q1374 848 1355.5 904.0Q1337 960 1304.0 1004.0Q1271 1048 1228.5 1074.0Q1186 1100 1138 1100Q1092 1100 1065.0 1074.0Q1038 1048 1038 1001Q1038 960 1062.5 917.5Q1087 875 1130.5 840.0Q1174 805 1231.0 783.5Q1288 762 1352 762ZM1642 762Q1706 762 1763.0 783.5Q1820 805 1863.5 840.0Q1907 875 1931.5 917.5Q1956 960 1956 1001Q1956 1048 1929.0 1074.0Q1902 1100 1856 1100Q1808 1100 1765.5 1074.0Q1723 1048 1690.0 1004.0Q1657 960 1638.5 904.0Q1620 848 1620 787V762ZM992 -503Q832 -503 705.5 -455.5Q579 -408 493 -321Q405 -234 358.0 -107.5Q311 19 311 179V1191Q311 1351 358.0 1477.5Q405 1604 493 1691Q579 1778 705.5 1825.0Q832 1872 992 1872H2002Q2162 1872 2288.5 1825.0Q2415 1778 2501 1691Q2589 1604 2636.0 1477.5Q2683 1351 2683 1191V179Q2683 19 2636.0 -107.5Q2589 -234 2501 -321Q2415 -408 2288.5 -455.5Q2162 -503 2002 -503ZM1024 -110H1970Q2147 -110 2219 -39Q2291 32 2291 210V1159Q2291 1337 2219 1409Q2147 1480 1970 1480H1024Q847 1480 775 1409Q703 1337 703 1159V210Q703 32 775 -39Q847 -110 1024 -110Z" transform="translate(-3.6445,21.9375) scale(0.011719,-0.011719)"/>
  </g>
</svg>
