<svg xmlns="http://www.w3.org/2000/svg" viewBox="0 0 38.5781 28.7227" width="32.2350" height="24.0000">
  <g fill="black" stroke="black" stroke-width="0.25">
    <path d="M2557 553H2151Q2098 553 2060.0 591.0Q2022 629 2022 683Q2022 737 2060.0 774.5Q2098 812 2151 812H2557Q2611 812 2649.0 774.5Q2687 737 2687 683Q2687 629 2649.0 591.0Q2611 553 2557 553ZM1115 553Q1061 553 1023.0 591.0Q985 629 985 683Q985 737 1023.0 774.5Q1061 812 1115 812H1613Q1666 812 1704.0 774.5Q1742 737 1742 683Q1742 629 1704.0 591.0Q1666 553 1613 553ZM1492 435Q1492 381 1454.0 343.0Q1416 305 1362 305Q1309 305 1271.5 343.0Q1234 381 1234 435V933Q1234 987 1272.0 1025.0Q1310 1063 1363 1063Q1416 1063 1454.0 1025.0Q1492 987 1492 933ZM219 683Q219 959 309.0 1184.5Q399 1410 566.5 1572.0Q734 1734 966.0 1821.5Q1198 1909 1483 1909H2247Q2531 1909 2763.5 1821.5Q2996 1734 3163.5 1572.0Q3331 1410 3421.0 1184.5Q3511 959 3511 683Q3511 407 3421.0 182.0Q3331 -43 3163.5 -205.0Q2996 -367 2763.5 -454.5Q2531 -542 2247 -542H1483Q1198 -542 966.0 -454.5Q734 -367 566.5 -205.0Q399 -43 309.0 182.0Q219 407 219 683ZM611 683Q611 494 672.5 340.5Q734 187 848.5 77.5Q963 -32 1123.5 -91.0Q1284 -150 1483 -150H2247Q2445 -150 2606.0 -91.0Q2767 -32 2881.5 77.5Q2996 187 3057.5 340.5Q3119 494 3119 683Q3119 873 3057.5 1026.0Q2996 1179 2881.5 1289.0Q2767 1399 2606.0 1458.0Q2445 1517 2247 1517H1483Q1284 1517 1123.5 1458.0Q963 1399 848.5 1289.0Q734 1179 672.5 1026.0Q611 873 611 683Z" transform="translate(-2.5664,22.3711) scale(0.011719,-0.011719)"/>
  </g>
</svg>
