<svg xmlns="http://www.w3.org/2000/svg" viewBox="0 0 30.9023 30.8906" width="24.0091" height="24.0000">
  <g fill="black" stroke="black" stroke-width="0.25">
    <path d="M219 683Q219 875 272.0 1052.0Q325 1229 421 1381V-14Q325 137 272.0 314.0Q219 491 219 683ZM490 -116V1482Q534 1540 584.5 1592.5Q635 1645 691 1692V-325Q635 -278 584.5 -225.5Q534 -173 490 -116ZM760 -380V1747Q807 1782 857.5 1812.5Q908 1843 962 1869V-502Q908 -476 857.5 -445.5Q807 -415 760 -380ZM1031 -534V1900Q1079 1921 1129.0 1937.5Q1179 1954 1231 1966V-599Q1179 -587 1129.0 -570.5Q1079 -554 1031 -534ZM1301 -614V1980Q1351 1989 1401.0 1994.5Q1451 2000 1502 2001V-635Q1451 -634 1401.0 -628.5Q1351 -623 1301 -614ZM1572 -635V2001Q1624 2000 1673.5 1994.5Q1723 1989 1773 1980V-614Q1723 -623 1673.5 -628.5Q1624 -634 1572 -635ZM1842 -599V1965Q1894 1953 1944.5 1937.0Q1995 1921 2043 1900V-534Q1995 -554 1944.5 -570.5Q1894 -587 1842 -599ZM2112 -502V1868Q2166 1842 2216.5 1811.5Q2267 1781 2314 1747V-380Q2267 -415 2216.5 -445.5Q2166 -476 2112 -502ZM2383 -325V1691Q2439 1645 2489.5 1592.0Q2540 1539 2584 1482V-116Q2540 -173 2489.5 -225.5Q2439 -278 2383 -325ZM2856 683Q2856 491 2802.5 314.0Q2749 137 2653 -14V1380Q2749 1229 2802.5 1052.0Q2856 875 2856 683Z" transform="translate(-2.5664,23.4492) scale(0.011719,-0.011719)"/>
  </g>
</svg>
