<svg xmlns="http://www.w3.org/2000/svg" viewBox="0 0 17.7751 12.9492" width="32.9442" height="24.0000">
  <g fill="black" stroke="black" stroke-width="0.25">
    <path d="M913 130Q898 130 884.0 137.5Q870 145 848 166L693 317Q662 347 682 373Q723 427 786.0 458.5Q849 490 913 490Q978 490 1042.5 459.5Q1107 429 1145 373Q1163 346 1133 317L979 166Q957 145 942.5 137.5Q928 130 913 130ZM527 483 425 584Q411 596 410.5 613.0Q410 630 422 644Q502 742 633.0 802.5Q764 863 913 863Q1063 863 1194.5 803.0Q1326 743 1405 644Q1432 612 1402 584L1300 483Q1267 450 1225 486Q1159 543 1080.0 585.0Q1001 627 913 627Q826 627 743.0 589.0Q660 551 601 486Q565 445 527 483ZM262 748 170 842Q141 873 168 904Q250 1002 369.0 1076.5Q488 1151 628.0 1193.0Q768 1235 913 1235Q1059 1235 1198.5 1193.0Q1338 1151 1457.5 1076.5Q1577 1002 1659 904Q1686 873 1656 842L1565 748Q1550 732 1528.5 733.5Q1507 735 1494 750Q1385 877 1235.5 937.5Q1086 998 913 998Q740 998 595.0 934.0Q450 870 333 750Q318 736 297.5 734.0Q277 732 262 748Z" transform="translate(-1.8162,14.4727) scale(0.011719,-0.011719)"/>
  </g>
</svg>
