<svg xmlns="http://www.w3.org/2000/svg" viewBox="0 0 17.8262 16.0781" width="26.6094" height="24.0000">
  <g fill="black" stroke="black" stroke-width="0.25">
    <path d="M267 879Q344 902 419.5 912.5Q495 923 570 923Q631 923 685.5 918.5Q740 914 794.5 909.5Q849 905 909 905Q1013 905 1081.0 971.0Q1149 1037 1149 1137Q1149 1238 1081.5 1304.0Q1014 1370 916 1370Q852 1370 796.5 1335.0Q741 1300 711 1244Q695 1213 700.5 1181.5Q706 1150 736 1131Q768 1113 802.0 1123.5Q836 1134 854 1169Q864 1185 881.0 1195.0Q898 1205 916 1205Q947 1205 965.5 1187.5Q984 1170 984 1137Q984 1104 964.5 1086.5Q945 1069 909 1069Q854 1069 800.5 1074.0Q747 1079 691.0 1083.5Q635 1088 570 1088Q485 1088 396.5 1075.0Q308 1062 222 1039Q185 1029 167.0 999.5Q149 970 160 937Q170 902 200.5 885.5Q231 869 267 879ZM1366 519Q1456 519 1526.5 556.0Q1597 593 1637.0 657.5Q1677 722 1677 804Q1677 885 1639.5 948.5Q1602 1012 1538.5 1049.0Q1475 1086 1396 1086Q1304 1086 1230.0 1033.0Q1156 980 1129 895Q1117 860 1130.5 829.0Q1144 798 1176 787Q1208 774 1241.0 790.5Q1274 807 1287 845Q1299 880 1329.5 901.0Q1360 922 1396 922Q1447 922 1480.0 889.5Q1513 857 1513 804Q1513 748 1473.5 716.0Q1434 684 1366 684Q1288 684 1204.5 702.0Q1121 720 1030.5 744.5Q940 769 842.0 787.0Q744 805 638 805Q530 805 424.5 788.5Q319 772 219 741Q185 728 167.0 699.0Q149 670 160 638Q171 602 202.0 585.5Q233 569 272 583Q358 613 448.5 627.0Q539 641 638 641Q740 641 832.0 622.5Q924 604 1011.5 580.0Q1099 556 1186.0 537.5Q1273 519 1366 519ZM909 -2Q1006 -2 1071.5 63.5Q1137 129 1137 228Q1137 370 999.5 446.0Q862 522 613 522Q518 522 415.0 504.5Q312 487 219 458Q185 445 167.0 415.5Q149 386 160 355Q171 320 202.0 303.0Q233 286 272 300Q351 328 437.0 342.5Q523 357 613 357Q786 357 878.5 322.0Q971 287 971 228Q971 196 954.0 179.5Q937 163 909 163Q885 163 870.0 176.0Q855 189 845 217Q831 250 801.0 263.5Q771 277 738 264Q703 252 691.5 219.5Q680 187 695 152Q719 86 776.0 42.0Q833 -2 909 -2Z" transform="translate(-1.8261,16.0547) scale(0.011719,-0.011719)"/>
  </g>
</svg>
