<svg xmlns="http://www.w3.org/2000/svg" viewBox="0 0 23.3203 37.2070" width="15.0425" height="24.0000">
  <g fill="black" stroke="black" stroke-width="0.25">
    <path d="M1305 269Q1082 269 899.5 333.0Q717 397 585.0 516.5Q453 636 382.0 801.5Q311 967 311 1169Q311 1308 346.0 1466.0Q381 1624 444.0 1779.0Q507 1934 590 2061Q656 2164 841.0 2217.5Q1026 2271 1305 2271Q1584 2271 1768.5 2217.5Q1953 2164 2020 2061Q2104 1933 2167.0 1778.5Q2230 1624 2265.5 1465.5Q2301 1307 2301 1169Q2301 967 2230.0 801.5Q2159 636 2027.0 516.5Q1895 397 1712.0 333.0Q1529 269 1305 269ZM1305 585Q1517 585 1669.0 656.0Q1821 727 1903.0 857.5Q1985 988 1985 1169Q1985 1252 1968.0 1346.5Q1951 1441 1919.0 1539.0Q1887 1637 1842 1731Q1749 1695 1612.5 1676.0Q1476 1657 1305 1657Q1135 1657 998.5 1676.0Q862 1695 769 1731Q724 1639 692.5 1541.5Q661 1444 644.5 1349.0Q628 1254 628 1169Q628 988 709.5 857.0Q791 726 942.5 655.5Q1094 585 1305 585ZM1305 1885Q1393 1885 1470.0 1891.0Q1547 1897 1605.5 1908.0Q1664 1919 1697.5 1934.0Q1731 1949 1731 1965Q1731 1981 1697.5 1995.5Q1664 2010 1605.0 2020.5Q1546 2031 1469.0 2037.5Q1392 2044 1305 2044Q1218 2044 1141.5 2037.5Q1065 2031 1006.0 2020.5Q947 2010 913.5 1995.5Q880 1981 880 1965Q880 1949 913.5 1934.0Q947 1919 1005.5 1908.0Q1064 1897 1141.0 1891.0Q1218 1885 1305 1885ZM1305 -519Q1241 -519 1195.0 -472.5Q1149 -426 1149 -362V478H1463V-362Q1463 -426 1416.5 -472.5Q1370 -519 1305 -519ZM1305 -904Q922 -903 709.0 -804.5Q496 -706 496 -524Q496 -402 592.0 -317.5Q688 -233 869.0 -189.0Q1050 -145 1305 -145Q1560 -145 1741.5 -189.0Q1923 -233 2019.5 -317.5Q2116 -402 2116 -524Q2116 -706 1903.0 -804.5Q1690 -903 1305 -904ZM1305 -616Q1455 -616 1562.0 -605.0Q1669 -594 1726.0 -573.5Q1783 -553 1783 -524Q1783 -495 1726.0 -474.0Q1669 -453 1562.0 -442.0Q1455 -431 1305 -431Q1156 -431 1049.5 -442.0Q943 -453 886.0 -474.0Q829 -495 829 -524Q829 -553 886.0 -573.5Q943 -594 1049.5 -605.0Q1156 -616 1305 -616Z" transform="translate(-3.6445,26.6133) scale(0.011719,-0.011719)"/>
  </g>
</svg>
