<svg xmlns="http://www.w3.org/2000/svg" viewBox="0 0 35.4409 34.4913" width="24.6607" height="24.0000">
  <g fill="black" stroke="black" stroke-width="0.25">
    <path d="M1142 394 474 1063Q314 1223 311.5 1388.5Q309 1554 463 1710L668 1916Q823 2071 990.0 2068.0Q1157 2065 1317 1905L1993 1227L1809 993L1094 1708Q1037 1764 988.0 1765.5Q939 1767 886 1714L666 1492Q614 1439 614.5 1391.0Q615 1343 673 1285L1360 593ZM1185 905 781 1309Q755 1335 755.5 1372.0Q756 1409 783 1434Q808 1457 843.0 1457.5Q878 1458 902 1433L1308 1025Q1334 999 1333.5 963.5Q1333 928 1307 904Q1282 880 1246.0 879.5Q1210 879 1185 905ZM1352 1072 949 1477Q924 1503 924.0 1540.0Q924 1577 951 1601Q977 1625 1011.0 1625.0Q1045 1625 1070 1600L1476 1194Q1502 1168 1501.5 1131.5Q1501 1095 1474 1071Q1450 1048 1413.5 1046.5Q1377 1045 1352 1072ZM2880 -781Q2845 -816 2800.0 -816.5Q2755 -817 2712 -789L2312 -523Q2230 -469 2214 -374L2199 -278L1760 161L1961 372L2483 -150L2507 -285L2766 -481L2860 -388L2665 -126L2529 -104L2005 419L2205 632L2658 180L2754 165Q2850 149 2904 68L3167 -330Q3195 -373 3195.5 -419.0Q3196 -465 3162 -499ZM589 -620Q472 -503 436.0 -364.5Q400 -226 439.0 -91.0Q478 44 587 152Q650 215 730.0 270.5Q810 326 907.0 385.5Q1004 445 1117.5 518.5Q1231 592 1361.0 688.0Q1491 784 1636.5 913.5Q1782 1043 1944 1216L2146 1013Q1977 843 1835.5 717.5Q1694 592 1576.5 500.0Q1459 408 1361.5 341.0Q1264 274 1183.0 223.5Q1102 173 1034.0 130.5Q966 88 906.5 44.5Q847 1 793 -53Q717 -130 711.0 -227.5Q705 -325 794 -415Q883 -502 981.0 -496.5Q1079 -491 1155 -415Q1209 -361 1252.5 -301.5Q1296 -242 1339.0 -174.0Q1382 -106 1432.0 -25.0Q1482 56 1548.5 153.5Q1615 251 1707.0 369.0Q1799 487 1925.0 628.0Q2051 769 2220 939L2423 736Q2256 580 2129.0 436.5Q2002 293 1905.5 163.0Q1809 33 1734.5 -82.0Q1660 -197 1598.0 -295.5Q1536 -394 1478.5 -475.5Q1421 -557 1358 -621Q1251 -729 1116.0 -768.0Q981 -807 843.0 -771.5Q705 -736 589 -620ZM970 -367Q918 -367 880.5 -329.5Q843 -292 843 -239Q843 -187 880.5 -149.5Q918 -112 970 -112Q1023 -112 1060.5 -149.5Q1098 -187 1098 -239Q1098 -292 1060.5 -329.5Q1023 -367 970 -367ZM2064 856Q1951 968 1893.0 1106.5Q1835 1245 1832.0 1391.5Q1829 1538 1881.0 1674.5Q1933 1811 2041 1919Q2135 2014 2254.5 2066.0Q2374 2118 2504.5 2125.5Q2635 2133 2764.5 2095.5Q2894 2058 3009 1973L2803 1767Q2710 1824 2608.0 1836.0Q2506 1848 2411.0 1817.5Q2316 1787 2244 1715Q2178 1649 2147.0 1565.5Q2116 1482 2118.5 1391.5Q2121 1301 2158.5 1215.0Q2196 1129 2267 1058Q2337 987 2423.5 950.0Q2510 913 2600.5 909.5Q2691 906 2775.0 937.5Q2859 969 2925 1034Q2996 1106 3026.5 1201.0Q3057 1296 3044.5 1398.5Q3032 1501 2975 1595L3182 1802Q3267 1686 3304.5 1556.5Q3342 1427 3334.5 1296.0Q3327 1165 3274.5 1045.5Q3222 926 3128 832Q3020 724 2883.0 672.0Q2746 620 2599.5 623.5Q2453 627 2314.5 685.0Q2176 743 2064 856ZM2455 1414Q2383 1485 2380.5 1570.5Q2378 1656 2447 1725L2730 2008L2887 1851L2661 1624Q2627 1589 2663 1552L2764 1453Q2798 1421 2833 1453L3059 1678L3217 1521L2933 1238Q2866 1171 2781.5 1173.0Q2697 1175 2626 1245Z" transform="translate(-3.6499,24.9229) scale(0.011719,-0.011719)"/>
  </g>
</svg>
