<svg xmlns="http://www.w3.org/2000/svg" viewBox="0 0 29.6484 29.6484" width="24.0000" height="24.0000">
  <g fill="black" stroke="black" stroke-width="0.25">
    <path d="M717 647Q653 546 602.0 436.0Q551 326 505 194Q474 96 474 -2Q474 -23 476.5 -44.5Q479 -66 483 -79Q485 -82 481.5 -83.5Q478 -85 476 -82Q219 262 219 683Q219 812 244.5 934.5Q270 1057 320 1179Q369 1291 439.5 1395.0Q510 1499 596 1582Q605 1592 633 1592Q683 1592 738.5 1565.5Q794 1539 846.5 1501.5Q899 1464 941 1431Q983 1398 1032.0 1353.5Q1081 1309 1135 1255Q1140 1250 1135 1244Q1019 1104 919.5 958.5Q820 813 717 647ZM1833 1244Q1827 1250 1833 1255Q1886 1309 1935.0 1353.5Q1984 1398 2026 1431Q2068 1464 2121.0 1501.5Q2174 1539 2229.0 1565.5Q2284 1592 2334 1592Q2362 1592 2372 1582Q2457 1499 2527.5 1395.0Q2598 1291 2647 1179Q2698 1057 2723.5 934.5Q2749 812 2749 683Q2749 262 2492 -82Q2489 -85 2486.0 -83.5Q2483 -82 2484 -79Q2488 -66 2490.5 -44.5Q2493 -23 2493 -2Q2493 96 2462 194Q2416 326 2365.0 436.0Q2314 546 2250 647Q2147 813 2047.5 958.5Q1948 1104 1833 1244ZM829 1766Q902 1808 977.0 1841.5Q1052 1875 1131 1897Q1293 1948 1484 1948Q1674 1948 1836 1897Q1915 1875 1990.0 1841.5Q2065 1808 2138 1766Q2143 1764 2142.0 1759.0Q2141 1754 2135 1755Q2093 1763 2051 1763Q1971 1763 1892.5 1743.0Q1814 1723 1720 1687Q1642 1657 1579 1623Q1549 1609 1527.5 1597.0Q1506 1585 1493 1578Q1484 1573 1474 1578Q1461 1585 1439.5 1597.0Q1418 1609 1389 1623Q1326 1657 1247 1687Q1153 1723 1074.5 1743.0Q996 1763 916 1763Q874 1763 832 1755Q827 1754 826.0 1759.0Q825 1764 829 1766ZM613 -169Q613 -97 656 -10Q700 88 773.5 194.0Q847 300 923 390Q1052 540 1190.5 679.5Q1329 819 1470 923Q1480 931 1484 931Q1487 931 1498 923Q1638 819 1776.5 679.5Q1915 540 2044 390Q2120 300 2194.0 194.0Q2268 88 2311 -10Q2354 -97 2354 -169Q2354 -198 2342.5 -224.0Q2331 -250 2297 -281Q2200 -371 2070.5 -438.5Q1941 -506 1791.0 -544.0Q1641 -582 1484 -582Q1326 -582 1176.0 -544.0Q1026 -506 896.5 -438.5Q767 -371 670 -281Q636 -250 624.5 -224.0Q613 -198 613 -169Z" transform="translate(-2.5664,22.8281) scale(0.011719,-0.011719)"/>
  </g>
</svg>
