<svg xmlns="http://www.w3.org/2000/svg" viewBox="0 0 26.2031 33.9375" width="18.5304" height="24.0000">
  <g fill="black" stroke="black" stroke-width="0.25">
    <path d="M311 -220V1584Q311 1805 431.5 1926.0Q552 2047 773 2047H2085Q2306 2047 2426.5 1926.0Q2547 1805 2547 1584V-220Q2547 -441 2426.5 -562.0Q2306 -683 2085 -683H773Q552 -683 431.5 -562.0Q311 -441 311 -220ZM703 -167Q703 -228 732.5 -259.0Q762 -290 828 -290H2030Q2096 -290 2125.0 -259.0Q2154 -228 2154 -167V1531Q2154 1592 2125.0 1623.5Q2096 1655 2030 1655H828Q762 1655 732.5 1623.5Q703 1592 703 1531ZM1429 1210Q1345 1210 1280.0 1249.0Q1215 1288 1180.5 1354.5Q1146 1421 1153 1503L1191 1989Q1200 2103 1272.0 2158.0Q1344 2213 1429 2213Q1514 2213 1585.5 2158.0Q1657 2103 1667 1989L1705 1503Q1712 1421 1677.0 1354.5Q1642 1288 1577.5 1249.0Q1513 1210 1429 1210ZM1429 1361Q1481 1361 1519.0 1399.0Q1557 1437 1557 1489Q1557 1542 1519.0 1579.0Q1481 1616 1429 1616Q1376 1616 1339.0 1579.0Q1302 1542 1302 1489Q1302 1437 1339.0 1399.0Q1376 1361 1429 1361ZM1429 927V1108H1688Q1727 1108 1753.0 1082.5Q1779 1057 1779 1019Q1779 981 1753.0 954.0Q1727 927 1688 927ZM1429 747H1170Q1130 747 1104.5 773.5Q1079 800 1079 838Q1079 876 1104.5 901.5Q1130 927 1170 927H1429ZM1429 565V747H1688Q1727 747 1753.0 721.5Q1779 696 1779 658Q1779 619 1753.0 592.0Q1727 565 1688 565ZM1429 384H1170Q1130 384 1104.5 411.0Q1079 438 1079 476Q1079 514 1104.5 539.5Q1130 565 1170 565H1429ZM1429 204V384H1688Q1727 384 1753.0 359.0Q1779 334 1779 296Q1779 258 1753.0 231.0Q1727 204 1688 204ZM1429 23H1170Q1130 23 1104.5 50.0Q1079 77 1079 115Q1079 153 1104.5 178.5Q1130 204 1170 204H1429Z" transform="translate(-3.6445,25.9336) scale(0.011719,-0.011719)"/>
  </g>
</svg>
