<svg xmlns="http://www.w3.org/2000/svg" viewBox="0 0 15.1758 21.1406" width="17.2284" height="24.0000">
  <g fill="black" stroke="black" stroke-width="0.25">
    <path d="M1352 1054Q1395 1054 1423.0 1026.5Q1451 999 1451 957Q1451 913 1423.0 885.0Q1395 857 1352 857H897Q852 857 823.5 884.0Q795 911 795 952Q795 978 804.5 1001.5Q814 1025 838 1056L1139 1445V1421H889Q845 1421 817.5 1449.0Q790 1477 790 1520Q790 1563 817.5 1590.0Q845 1617 889 1617H1321Q1366 1617 1395.5 1591.0Q1425 1565 1425 1524Q1425 1501 1414.0 1477.0Q1403 1453 1380 1423L1086 1033V1054ZM595 507Q637 507 664.0 480.5Q691 454 691 412Q691 369 664.5 343.5Q638 318 595 318H252Q212 318 184.5 343.5Q157 369 157 408Q157 432 166.5 454.5Q176 477 198 506L393 764V740H249Q208 740 182.0 766.0Q156 792 156 836Q156 876 182.5 902.0Q209 928 249 928H565Q609 928 637.0 903.0Q665 878 665 839Q665 817 655.0 794.0Q645 771 623 741L426 482V507ZM1162 -7Q1200 -7 1225.0 -32.0Q1250 -57 1250 -96Q1250 -137 1225.0 -162.0Q1200 -187 1162 -187H853Q814 -187 788.0 -162.0Q762 -137 762 -101Q762 -79 771.0 -58.0Q780 -37 801 -8L968 220V195H849Q807 195 782.5 219.5Q758 244 758 285Q758 326 783.0 350.5Q808 375 849 375H1134Q1174 375 1200.5 351.0Q1227 327 1227 289Q1227 269 1217.5 248.0Q1208 227 1187 197L1018 -31V-7Z" transform="translate(-1.8281,18.9492) scale(0.011719,-0.011719)"/>
  </g>
</svg>
