<?xml version="1.0" encoding="UTF-8" standalone="no"?>
<!DOCTYPE svg PUBLIC "-//W3C//DTD SVG 1.1//EN" "http://www.w3.org/Graphics/SVG/1.1/DTD/svg11.dtd">
<svg width="100%" height="100%" viewBox="0 0 93 93" version="1.1" xmlns="http://www.w3.org/2000/svg" xmlns:xlink="http://www.w3.org/1999/xlink" xml:space="preserve" xmlns:serif="http://www.serif.com/" style="fill-rule:evenodd;clip-rule:evenodd;stroke-linejoin:round;stroke-miterlimit:2;">
    <g transform="matrix(1,0,0,1,-1569.68,-5268.47)">
        <g transform="matrix(1,0,0,1,-504.034,-1124.47)">
            <path d="M2166.11,6439.14L2146.21,6419.14L2126.31,6439.14L2146.21,6459.04L2166.11,6439.14ZM2139.91,6465.44L2119.91,6445.54L2100.01,6465.44L2119.91,6485.34L2139.91,6465.44ZM2093.61,6459.14L2113.51,6439.14L2093.61,6419.24L2073.71,6439.14L2093.61,6459.14ZM2139.81,6412.84L2119.91,6392.94L2100.01,6412.84L2119.91,6432.74L2139.81,6412.84ZM2131.81,6412.84L2119.91,6424.74L2108.01,6412.84L2119.91,6400.94L2131.81,6412.84ZM2131.81,6465.44L2119.91,6477.34L2108.01,6465.44L2119.91,6453.54L2131.81,6465.44ZM2105.51,6439.14L2093.61,6451.04L2081.71,6439.14L2093.61,6427.24L2105.51,6439.14ZM2158.11,6439.14L2146.21,6451.04L2134.31,6439.14L2146.21,6427.24L2158.11,6439.14Z" style="fill-rule:nonzero;"/>
        </g>
    </g>
</svg>
