<?xml version="1.0" encoding="UTF-8" standalone="no"?>
<!DOCTYPE svg PUBLIC "-//W3C//DTD SVG 1.1//EN" "http://www.w3.org/Graphics/SVG/1.1/DTD/svg11.dtd">
<svg width="100%" height="100%" viewBox="0 0 99 99" version="1.1" xmlns="http://www.w3.org/2000/svg" xmlns:xlink="http://www.w3.org/1999/xlink" xml:space="preserve" xmlns:serif="http://www.serif.com/" style="fill-rule:evenodd;clip-rule:evenodd;stroke-linejoin:round;stroke-miterlimit:2;">
    <g transform="matrix(1,0,0,1,-1866.48,-5265.27)">
        <g transform="matrix(1,0,0,1,-504.034,-1124.47)">
            <path d="M2419.81,6455.74L2436.31,6439.14L2419.81,6422.64L2403.21,6439.14L2419.81,6455.74ZM2469.31,6439.14L2452.81,6422.74L2436.41,6439.14L2452.81,6455.54L2469.31,6439.14ZM2436.21,6406.14L2419.91,6389.74L2403.51,6406.24L2419.81,6422.54L2436.21,6406.14ZM2436.21,6472.24L2419.81,6455.84L2403.51,6472.14L2419.91,6488.54L2436.21,6472.24ZM2386.81,6455.54L2403.11,6439.14L2386.81,6422.84L2370.51,6439.14L2386.81,6455.54Z" style="fill-rule:nonzero;"/>
        </g>
    </g>
</svg>
