<?xml version="1.0" encoding="UTF-8" standalone="no"?>
<!DOCTYPE svg PUBLIC "-//W3C//DTD SVG 1.1//EN" "http://www.w3.org/Graphics/SVG/1.1/DTD/svg11.dtd">
<svg width="100%" height="100%" viewBox="0 0 100 100" version="1.1" xmlns="http://www.w3.org/2000/svg" xmlns:xlink="http://www.w3.org/1999/xlink" xml:space="preserve" xmlns:serif="http://www.serif.com/" style="fill-rule:evenodd;clip-rule:evenodd;stroke-linejoin:round;stroke-miterlimit:2;">
    <g transform="matrix(1,0,0,1,-1665.78,-5264.77)">
        <g transform="matrix(1,0,0,1,-504.034,-1124.47)">
            <path d="M2269.31,6438.94L2250.81,6420.44L2235.41,6435.94L2222.91,6423.34L2238.31,6407.94L2219.61,6389.24L2201.01,6407.84L2216.51,6423.34L2203.91,6435.94L2188.41,6420.44L2169.81,6439.14L2188.51,6457.74L2203.91,6442.34L2216.41,6454.84L2201.01,6470.24L2219.51,6488.74L2238.11,6470.04L2222.81,6454.84L2235.41,6442.24L2250.71,6457.54L2269.31,6438.94ZM2232.21,6439.14L2219.61,6451.64L2207.11,6439.14L2219.71,6426.54L2232.21,6439.14ZM2200.71,6439.14L2188.51,6451.34L2176.21,6439.14L2188.51,6426.84L2200.71,6439.14ZM2231.91,6407.94L2219.71,6420.14L2207.41,6407.84L2219.61,6395.64L2231.91,6407.94ZM2231.81,6470.04L2219.51,6482.34L2207.41,6470.24L2219.61,6458.04L2231.81,6470.04ZM2262.91,6438.94L2250.71,6451.14L2238.61,6439.04L2250.81,6426.84L2262.91,6438.94Z" style="fill-rule:nonzero;"/>
        </g>
    </g>
</svg>
