<?xml version="1.0" encoding="UTF-8" standalone="no"?>
<!DOCTYPE svg PUBLIC "-//W3C//DTD SVG 1.1//EN" "http://www.w3.org/Graphics/SVG/1.1/DTD/svg11.dtd">
<svg width="100%" height="100%" viewBox="0 0 95 91" version="1.1" xmlns="http://www.w3.org/2000/svg" xmlns:xlink="http://www.w3.org/1999/xlink" xml:space="preserve" xmlns:serif="http://www.serif.com/" style="fill-rule:evenodd;clip-rule:evenodd;stroke-linejoin:round;stroke-miterlimit:2;">
    <g transform="matrix(1,0,0,1,-1268.48,-5419.57)">
        <g transform="matrix(1,0,0,1,-504.034,-1124.47)">
            <path d="M1819.91,6583.04C1822.71,6583.04 1835.31,6563.04 1835.31,6548.24C1835.31,6546.04 1835.21,6544.04 1832.51,6544.04C1831.01,6544.04 1829.11,6544.74 1826.81,6545.74C1823.61,6547.14 1821.21,6548.74 1819.91,6548.74C1818.61,6548.74 1816.21,6547.14 1813.01,6545.74C1810.71,6544.74 1808.81,6544.04 1807.31,6544.04C1804.71,6544.04 1804.51,6546.04 1804.51,6548.24C1804.51,6563.04 1817.21,6583.04 1819.91,6583.04ZM1826.11,6587.44C1826.51,6588.84 1837.11,6593.04 1850.81,6593.04C1855.81,6593.04 1867.31,6592.34 1867.31,6588.54C1867.31,6586.94 1865.61,6584.94 1863.61,6582.54C1861.41,6579.94 1859.11,6578.14 1858.71,6576.94C1858.61,6576.64 1858.61,6576.34 1858.61,6575.94C1858.61,6574.54 1859.21,6572.14 1859.41,6569.34C1859.51,6568.14 1859.61,6566.94 1859.61,6565.94C1859.61,6563.94 1859.31,6562.54 1858.11,6561.94C1857.81,6561.74 1857.41,6561.64 1856.91,6561.64C1853.31,6561.64 1844.51,6566.34 1836.91,6573.34C1830.41,6579.34 1826.11,6585.74 1826.11,6587.24L1826.11,6587.44ZM1813.71,6587.24C1813.71,6585.74 1809.41,6579.34 1802.91,6573.34C1795.31,6566.34 1786.51,6561.64 1782.91,6561.64C1782.41,6561.64 1782.01,6561.74 1781.71,6561.94C1780.51,6562.54 1780.21,6563.94 1780.21,6565.94C1780.21,6566.94 1780.31,6568.14 1780.41,6569.34C1780.61,6572.14 1781.21,6574.54 1781.21,6575.94C1781.21,6576.34 1781.21,6576.64 1781.11,6576.94C1780.71,6578.14 1778.41,6579.94 1776.21,6582.54C1774.21,6584.94 1772.51,6586.94 1772.51,6588.54C1772.51,6592.34 1784.01,6593.04 1789.01,6593.04C1802.71,6593.04 1813.31,6588.84 1813.71,6587.44L1813.71,6587.24ZM1857.91,6616.94C1857.91,6613.94 1850.41,6606.14 1840.41,6600.54C1833.51,6596.64 1826.71,6594.54 1824.41,6594.54C1824.11,6594.54 1823.81,6594.64 1823.71,6594.74C1823.21,6595.04 1822.81,6597.14 1822.81,6600.44C1822.81,6617.34 1830.91,6634.04 1834.51,6634.34L1834.61,6634.34C1836.51,6634.34 1838.01,6631.84 1840.01,6628.84C1841.71,6625.94 1842.81,6623.24 1843.81,6622.44C1844.71,6621.64 1847.81,6621.64 1851.21,6620.84C1854.71,6620.04 1857.51,6619.24 1857.91,6617.34L1857.91,6616.94ZM1805.31,6634.34C1808.91,6634.04 1817.01,6617.64 1817.01,6600.44C1817.01,6597.14 1816.71,6595.04 1816.11,6594.74C1816.01,6594.64 1815.71,6594.54 1815.41,6594.54C1813.11,6594.54 1806.31,6596.64 1799.41,6600.54C1789.41,6606.14 1781.91,6613.94 1781.91,6616.94L1781.91,6617.34C1782.31,6619.24 1785.11,6620.04 1788.61,6620.84C1792.01,6621.64 1795.11,6621.64 1796.01,6622.44C1797.01,6623.24 1798.11,6625.94 1799.81,6628.84C1801.81,6631.84 1803.31,6634.34 1805.21,6634.34L1805.31,6634.34ZM1819.91,6578.44C1817.71,6578.44 1807.61,6559.34 1807.61,6548.74C1807.61,6548.04 1807.61,6547.64 1807.81,6547.54C1808.01,6547.34 1808.31,6547.24 1808.61,6547.24C1809.71,6547.24 1811.41,6548.24 1813.31,6549.14C1815.91,6550.44 1818.81,6552.04 1819.91,6552.04C1821.01,6552.04 1823.91,6550.44 1826.51,6549.14C1828.41,6548.24 1830.11,6547.24 1831.21,6547.24C1831.51,6547.24 1831.81,6547.34 1832.01,6547.54C1832.21,6547.64 1832.21,6548.04 1832.21,6548.74C1832.21,6559.34 1822.21,6578.44 1819.91,6578.44ZM1860.31,6583.24C1861.91,6585.04 1863.61,6586.54 1863.61,6587.64C1863.61,6587.74 1863.61,6587.94 1863.51,6588.04C1863.21,6588.84 1857.41,6589.94 1850.81,6589.94C1839.01,6589.94 1830.41,6586.74 1830.41,6585.94C1830.41,6584.94 1834.11,6580.14 1839.41,6575.14C1845.61,6569.44 1854.11,6564.94 1855.81,6564.94C1856.01,6564.94 1856.01,6565.04 1856.11,6565.04C1856.51,6565.24 1856.71,6565.84 1856.71,6566.74C1856.71,6567.84 1856.41,6569.24 1856.21,6570.74C1855.91,6573.04 1855.41,6575.54 1855.41,6577.04C1855.41,6578.14 1856.01,6579.14 1860.31,6583.24ZM1779.51,6583.24C1783.81,6579.14 1784.41,6578.14 1784.41,6577.04C1784.41,6575.54 1783.91,6573.04 1783.61,6570.74C1783.41,6569.24 1783.11,6567.84 1783.11,6566.74C1783.11,6565.84 1783.31,6565.24 1783.71,6565.04C1783.81,6565.04 1783.81,6564.94 1784.01,6564.94C1785.71,6564.94 1794.21,6569.44 1800.41,6575.14C1805.71,6580.14 1809.41,6584.94 1809.41,6585.94C1809.41,6586.74 1800.81,6589.94 1789.01,6589.94C1782.41,6589.94 1776.61,6588.84 1776.31,6588.04C1776.21,6587.94 1776.21,6587.74 1776.21,6587.64C1776.21,6586.54 1777.91,6585.04 1779.51,6583.24ZM1839.41,6603.54C1847.11,6607.94 1854.21,6614.94 1854.21,6616.24C1854.21,6617.24 1853.01,6617.54 1848.81,6618.14C1845.91,6618.74 1842.71,6619.04 1841.81,6619.74C1841.01,6620.44 1839.61,6623.34 1838.31,6625.94C1837.01,6628.24 1835.91,6630.44 1834.81,6630.44C1833.11,6630.44 1825.91,6614.44 1825.91,6600.94C1825.91,6599.54 1826.01,6598.64 1826.31,6598.44C1826.41,6598.34 1826.51,6598.34 1826.71,6598.34C1828.41,6598.34 1833.71,6600.44 1839.41,6603.54ZM1801.51,6625.94C1800.21,6623.34 1798.81,6620.44 1798.01,6619.74C1797.11,6619.04 1793.91,6618.74 1791.01,6618.14C1786.81,6617.54 1785.61,6617.24 1785.61,6616.24C1785.61,6614.94 1792.71,6607.94 1800.41,6603.54C1806.11,6600.44 1811.41,6598.34 1813.11,6598.34C1813.31,6598.34 1813.41,6598.34 1813.51,6598.44C1813.81,6598.64 1813.91,6599.54 1813.91,6600.94C1813.91,6613.14 1807.11,6630.44 1805.01,6630.44C1803.91,6630.44 1802.81,6628.24 1801.51,6625.94Z" style="fill-rule:nonzero;"/>
        </g>
    </g>
</svg>
