<?xml version="1.0" encoding="UTF-8" standalone="no"?>
<!DOCTYPE svg PUBLIC "-//W3C//DTD SVG 1.1//EN" "http://www.w3.org/Graphics/SVG/1.1/DTD/svg11.dtd">
<svg width="100%" height="100%" viewBox="0 0 96 96" version="1.1" xmlns="http://www.w3.org/2000/svg" xmlns:xlink="http://www.w3.org/1999/xlink" xml:space="preserve" xmlns:serif="http://www.serif.com/" style="fill-rule:evenodd;clip-rule:evenodd;stroke-linejoin:round;stroke-miterlimit:2;">
    <g transform="matrix(1,0,0,1,-109.628,-2723.28)">
        <g transform="matrix(1,0,0,1,-110.019,-3591.86)">
            <path d="M315.248,6362.94C315.248,6336.55 293.848,6315.15 267.448,6315.15C241.048,6315.15 219.648,6336.55 219.648,6362.94C219.648,6389.35 241.048,6410.65 267.448,6410.65C293.848,6410.65 315.248,6389.35 315.248,6362.94ZM311.148,6362.94C311.148,6387.05 291.548,6406.55 267.448,6406.55C243.348,6406.55 223.748,6387.05 223.748,6362.94C223.748,6338.85 243.348,6319.24 267.448,6319.24C291.548,6319.24 311.148,6338.85 311.148,6362.94ZM281.148,6372.05C286.848,6384.65 288.448,6388.24 289.348,6391.15C289.548,6391.74 290.548,6392.05 291.548,6392.05C293.148,6392.05 295.148,6391.35 295.148,6390.24C295.148,6390.05 295.048,6389.74 294.848,6389.44C287.848,6379.74 271.548,6339.94 271.548,6337.85L271.548,6337.15C271.548,6334.74 268.648,6333.94 267.348,6333.94C266.848,6333.94 266.448,6334.05 266.148,6334.35C265.448,6335.05 265.248,6337.65 264.848,6338.65C261.948,6345.35 255.948,6358.15 250.348,6369.35L248.748,6369.35C247.648,6369.35 246.748,6369.35 245.848,6369.24L245.648,6369.24C245.148,6369.24 244.848,6369.65 244.848,6370.15C244.848,6371.44 246.248,6373.65 247.348,6373.65L247.448,6373.65C247.748,6373.65 247.948,6373.55 248.248,6373.55C242.248,6385.65 241.048,6387.74 239.748,6389.74C239.548,6390.15 239.448,6390.44 239.448,6390.65C239.448,6391.55 240.648,6391.94 241.848,6391.94C243.248,6391.94 244.848,6391.44 245.148,6390.55C245.748,6388.74 247.348,6385.15 248.248,6383.35C249.748,6380.35 251.548,6376.85 253.348,6373.05L281.148,6372.05ZM255.148,6369.24C260.348,6358.65 265.748,6347.24 268.248,6341.24C270.348,6346.94 274.848,6357.74 279.448,6368.24L255.148,6369.24Z" style="fill-rule:nonzero;"/>
        </g>
    </g>
</svg>
