<?xml version="1.0" encoding="UTF-8" standalone="no"?>
<!DOCTYPE svg PUBLIC "-//W3C//DTD SVG 1.1//EN" "http://www.w3.org/Graphics/SVG/1.1/DTD/svg11.dtd">
<svg width="100%" height="100%" viewBox="0 0 89 89" version="1.1" xmlns="http://www.w3.org/2000/svg" xmlns:xlink="http://www.w3.org/1999/xlink" xml:space="preserve" xmlns:serif="http://www.serif.com/" style="fill-rule:evenodd;clip-rule:evenodd;stroke-linejoin:round;stroke-miterlimit:2;">
    <g transform="matrix(1,0,0,1,-158.78,-2371.63)">
        <g transform="matrix(1.41414,0,0,1.41429,-177.055,-770.755)">
            <path d="M299.847,2284.25L299.847,2221.89L237.483,2221.89L237.483,2284.25L299.847,2284.25ZM259.402,2261.34C258.2,2263.82 256.998,2266.08 256.009,2268.06C255.443,2269.26 254.312,2271.74 253.887,2273.01C253.604,2273.93 252.049,2274.71 250.564,2274.71C249.079,2274.71 247.806,2273.86 247.806,2272.73C247.806,2272.3 248.019,2271.88 248.16,2271.6C249.998,2268.7 252.756,2262.97 253.463,2261.49C252.332,2260.85 251.625,2259.08 251.625,2258.23C251.625,2257.45 252.12,2256.54 253.251,2256.54C253.958,2256.54 254.736,2256.61 255.443,2256.61L255.938,2256.61C259.756,2248.83 263.857,2240.13 265.837,2235.54C265.908,2235.47 266.19,2234.12 266.19,2234.12C266.332,2233.27 266.685,2232.5 266.968,2232.14C267.463,2231.65 268.099,2231.58 268.594,2231.58C269.16,2231.58 272.625,2232.14 272.625,2234.9L272.625,2235.61C276.019,2244.59 284.928,2265.66 288.887,2271.24C289.17,2271.6 289.312,2272.02 289.312,2272.45C289.312,2273.65 287.402,2274.78 285.705,2274.78C284.503,2274.78 283.372,2274.14 283.16,2273.43C282.382,2270.89 281.11,2268.13 277.645,2260.64L259.402,2261.34ZM275.524,2255.9C273.12,2250.24 270.716,2244.59 269.16,2240.63C267.322,2244.73 264.493,2250.67 261.736,2256.47L275.524,2255.9Z" style="fill-rule:nonzero;"/>
        </g>
    </g>
</svg>
