<?xml version="1.0" encoding="UTF-8" standalone="no"?>
<!DOCTYPE svg PUBLIC "-//W3C//DTD SVG 1.1//EN" "http://www.w3.org/Graphics/SVG/1.1/DTD/svg11.dtd">
<svg width="100%" height="100%" viewBox="0 0 96 96" version="1.1" xmlns="http://www.w3.org/2000/svg" xmlns:xlink="http://www.w3.org/1999/xlink" xml:space="preserve" xmlns:serif="http://www.serif.com/" style="fill-rule:evenodd;clip-rule:evenodd;stroke-linejoin:round;stroke-miterlimit:2;">
    <g transform="matrix(1,0,0,1,-509.628,-3923.28)">
        <g transform="matrix(1,0,0,1,-110.019,-3591.86)">
            <path d="M715.248,7562.94C715.248,7536.55 693.848,7515.15 667.448,7515.15C641.048,7515.15 619.648,7536.55 619.648,7562.94C619.648,7589.35 641.048,7610.65 667.448,7610.65C693.848,7610.65 715.248,7589.35 715.248,7562.94ZM654.348,7574.55C652.648,7578.05 650.948,7581.24 649.548,7584.05C648.748,7585.74 647.148,7589.24 646.548,7591.05C646.148,7592.35 643.948,7593.44 641.848,7593.44C639.748,7593.44 637.948,7592.24 637.948,7590.65C637.948,7590.05 638.248,7589.44 638.448,7589.05C641.048,7584.94 644.948,7576.85 645.948,7574.74C644.348,7573.85 643.348,7571.35 643.348,7570.15C643.348,7569.05 644.048,7567.74 645.648,7567.74C646.648,7567.74 647.748,7567.85 648.748,7567.85L649.448,7567.85C654.848,7556.85 660.648,7544.55 663.448,7538.05C663.548,7537.94 663.948,7536.05 663.948,7536.05C664.148,7534.85 664.648,7533.74 665.048,7533.24C665.748,7532.55 666.648,7532.44 667.348,7532.44C668.148,7532.44 673.048,7533.24 673.048,7537.15L673.048,7538.15C677.848,7550.85 690.448,7580.65 696.048,7588.55C696.448,7589.05 696.648,7589.65 696.648,7590.24C696.648,7591.94 693.948,7593.55 691.548,7593.55C689.848,7593.55 688.248,7592.65 687.948,7591.65C686.848,7588.05 685.048,7584.15 680.148,7573.55L654.348,7574.55ZM677.148,7566.85C673.748,7558.85 670.348,7550.85 668.148,7545.24C665.548,7551.05 661.548,7559.44 657.648,7567.65L677.148,7566.85Z" style="fill-rule:nonzero;"/>
        </g>
    </g>
</svg>
