<?xml version="1.0" encoding="UTF-8" standalone="no"?>
<!DOCTYPE svg PUBLIC "-//W3C//DTD SVG 1.1//EN" "http://www.w3.org/Graphics/SVG/1.1/DTD/svg11.dtd">
<svg width="100%" height="100%" viewBox="0 0 89 89" version="1.1" xmlns="http://www.w3.org/2000/svg" xmlns:xlink="http://www.w3.org/1999/xlink" xml:space="preserve" xmlns:serif="http://www.serif.com/" style="fill-rule:evenodd;clip-rule:evenodd;stroke-linejoin:round;stroke-miterlimit:2;">
    <g transform="matrix(1,0,0,1,-1502.52,-2342.27)">
        <g transform="matrix(1.41414,0,0,1.41429,-1052.39,-837.704)">
            <path d="M1863.53,2310.83C1866.92,2310.83 1869.04,2308.29 1869.04,2305.32L1869.04,2253.98C1869.04,2250.52 1866.57,2248.47 1863.53,2248.47L1812.2,2248.47C1808.73,2248.47 1806.68,2250.8 1806.68,2253.98L1806.68,2305.32C1806.68,2308.5 1809.15,2310.83 1812.2,2310.83L1863.53,2310.83ZM1828.6,2287.92C1827.4,2290.4 1826.2,2292.66 1825.21,2294.64C1824.64,2295.84 1823.51,2298.32 1823.09,2299.59C1822.8,2300.51 1821.25,2301.29 1819.76,2301.29C1818.28,2301.29 1817,2300.44 1817,2299.31C1817,2298.88 1817.22,2298.46 1817.36,2298.18C1819.2,2295.28 1821.95,2289.55 1822.66,2288.07C1821.53,2287.43 1820.82,2285.66 1820.82,2284.81C1820.82,2284.03 1821.32,2283.12 1822.45,2283.12C1823.15,2283.12 1823.93,2283.19 1824.64,2283.19L1825.13,2283.19C1828.95,2275.41 1833.05,2266.71 1835.03,2262.12C1835.11,2262.05 1835.39,2260.7 1835.39,2260.7C1835.53,2259.85 1835.88,2259.08 1836.17,2258.72C1836.66,2258.23 1837.3,2258.16 1837.79,2258.16C1838.36,2258.16 1841.82,2258.72 1841.82,2261.48L1841.82,2262.19C1845.22,2271.17 1854.12,2292.24 1858.09,2297.82C1858.37,2298.18 1858.51,2298.6 1858.51,2299.03C1858.51,2300.23 1856.6,2301.36 1854.9,2301.36C1853.7,2301.36 1852.57,2300.72 1852.36,2300.01C1851.58,2297.47 1850.31,2294.71 1846.84,2287.22L1828.6,2287.92ZM1844.72,2282.48C1842.32,2276.82 1839.91,2271.17 1838.36,2267.21C1836.52,2271.31 1833.69,2277.25 1830.93,2283.05L1844.72,2282.48Z" style="fill-rule:nonzero;"/>
        </g>
    </g>
</svg>
