<?xml version="1.0" encoding="UTF-8" standalone="no"?>
<!DOCTYPE svg PUBLIC "-//W3C//DTD SVG 1.1//EN" "http://www.w3.org/Graphics/SVG/1.1/DTD/svg11.dtd">
<svg width="100%" height="100%" viewBox="0 0 98 90" version="1.1" xmlns="http://www.w3.org/2000/svg" xmlns:xlink="http://www.w3.org/1999/xlink" xml:space="preserve" xmlns:serif="http://www.serif.com/" style="fill-rule:evenodd;clip-rule:evenodd;stroke-linejoin:round;stroke-miterlimit:2;">
    <g transform="matrix(1,0,0,1,-5137.45,-2285.56)">
        <g transform="matrix(1,0,0,1,1,0)">
            <path d="M5199.04,2339.26C5204.74,2351.86 5206.34,2355.46 5207.24,2358.36C5207.44,2358.96 5208.44,2359.26 5209.44,2359.26C5211.04,2359.26 5213.04,2358.56 5213.04,2357.46C5213.04,2357.26 5212.94,2356.96 5212.74,2356.66C5205.74,2346.96 5189.44,2307.16 5189.44,2305.06L5189.44,2304.36C5189.44,2301.96 5186.54,2301.16 5185.24,2301.16C5184.74,2301.16 5184.34,2301.26 5184.04,2301.56C5183.34,2302.26 5183.14,2304.86 5182.74,2305.86C5179.84,2312.56 5173.84,2325.36 5168.24,2336.56L5166.65,2336.56C5165.55,2336.56 5164.65,2336.56 5163.74,2336.46L5163.55,2336.46C5163.05,2336.46 5162.74,2336.86 5162.74,2337.36C5162.74,2338.66 5164.15,2340.86 5165.24,2340.86L5165.35,2340.86C5165.65,2340.86 5165.85,2340.76 5166.15,2340.76C5160.15,2352.86 5158.95,2354.96 5157.65,2356.96C5157.45,2357.36 5157.35,2357.66 5157.35,2357.86C5157.35,2358.76 5158.55,2359.16 5159.75,2359.16C5161.15,2359.16 5162.74,2358.66 5163.05,2357.76C5163.65,2355.96 5165.24,2352.36 5166.15,2350.56C5167.65,2347.56 5169.44,2344.06 5171.24,2340.26L5199.04,2339.26ZM5156.65,2373.56C5156.65,2373.16 5156.55,2372.66 5156.15,2372.26C5146.35,2360.56 5141.75,2344.36 5141.75,2330.16C5141.75,2315.96 5146.35,2299.76 5156.15,2288.06C5156.55,2287.66 5156.65,2287.16 5156.65,2286.76C5156.65,2286.06 5156.15,2285.56 5155.45,2285.56C5153.15,2285.56 5136.45,2302.96 5136.45,2330.16C5136.45,2357.26 5153.15,2374.76 5155.45,2374.76C5156.15,2374.76 5156.65,2374.26 5156.65,2373.56ZM5215.14,2374.76C5217.44,2374.76 5234.14,2357.26 5234.14,2330.16C5234.14,2302.96 5217.44,2285.56 5215.14,2285.56C5214.44,2285.56 5213.94,2286.06 5213.94,2286.76C5213.94,2287.16 5214.04,2287.66 5214.44,2288.06C5224.24,2299.76 5228.84,2315.96 5228.84,2330.16C5228.84,2344.36 5224.24,2360.56 5214.44,2372.26C5214.04,2372.66 5213.94,2373.16 5213.94,2373.56C5213.94,2374.26 5214.44,2374.76 5215.14,2374.76ZM5173.04,2336.46C5178.24,2325.86 5183.64,2314.46 5186.14,2308.46C5188.24,2314.16 5192.74,2324.96 5197.34,2335.46L5173.04,2336.46Z" style="fill-rule:nonzero;"/>
        </g>
    </g>
</svg>
