<?xml version="1.0" encoding="UTF-8" standalone="no"?>
<!DOCTYPE svg PUBLIC "-//W3C//DTD SVG 1.1//EN" "http://www.w3.org/Graphics/SVG/1.1/DTD/svg11.dtd">
<svg width="100%" height="100%" viewBox="0 0 89 89" version="1.1" xmlns="http://www.w3.org/2000/svg" xmlns:xlink="http://www.w3.org/1999/xlink" xml:space="preserve" xmlns:serif="http://www.serif.com/" style="fill-rule:evenodd;clip-rule:evenodd;stroke-linejoin:round;stroke-miterlimit:2;">
    <g transform="matrix(1,0,0,1,-2793.35,-2331.51)">
        <g transform="matrix(1.41414,0,0,1.41429,-1389.33,-1046.26)">
            <path d="M3014.6,2450.69C3018,2450.69 3020.12,2448.14 3020.12,2445.17L3020.12,2393.84C3020.12,2390.38 3017.64,2388.32 3014.6,2388.32L2963.27,2388.32C2959.8,2388.32 2957.76,2390.66 2957.76,2393.84L2957.76,2445.17C2957.76,2448.35 2960.23,2450.69 2963.27,2450.69L3014.6,2450.69ZM3017.22,2445.45C3017.22,2447.01 3016.16,2447.79 3014.96,2447.79L2962.92,2447.79C2961.43,2447.79 2960.65,2446.73 2960.65,2445.45L2960.65,2393.49C2960.65,2392.07 2961.57,2391.22 2962.92,2391.22L3014.96,2391.22C3016.37,2391.22 3017.22,2392.28 3017.22,2393.49L3017.22,2445.45ZM2998.62,2426.01C3002.65,2434.92 3003.78,2437.47 3004.42,2439.52C3004.56,2439.94 3005.27,2440.15 3005.98,2440.15C3007.11,2440.15 3008.52,2439.66 3008.52,2438.88C3008.52,2438.74 3008.45,2438.53 3008.31,2438.31C3003.36,2431.45 2991.84,2403.31 2991.84,2401.83L2991.84,2401.33C2991.84,2399.64 2989.78,2399.07 2988.87,2399.07C2988.51,2399.07 2988.23,2399.14 2988.02,2399.35C2987.52,2399.85 2987.38,2401.69 2987.1,2402.39C2985.05,2407.13 2980.8,2416.18 2976.85,2424.1L2975.71,2424.1C2974.94,2424.1 2974.3,2424.1 2973.66,2424.03L2973.52,2424.03C2973.17,2424.03 2972.96,2424.31 2972.96,2424.67C2972.96,2425.59 2973.95,2427.14 2974.72,2427.14L2974.8,2427.14C2975.01,2427.14 2975.15,2427.07 2975.36,2427.07C2971.12,2435.63 2970.27,2437.11 2969.35,2438.53C2969.21,2438.81 2969.14,2439.02 2969.14,2439.16C2969.14,2439.8 2969.99,2440.08 2970.84,2440.08C2971.83,2440.08 2972.96,2439.73 2973.17,2439.09C2973.59,2437.82 2974.72,2435.27 2975.36,2434C2976.42,2431.88 2977.69,2429.41 2978.97,2426.72L2998.62,2426.01ZM2980.24,2424.03C2983.92,2416.54 2987.73,2408.48 2989.5,2404.23C2990.99,2408.26 2994.17,2415.9 2997.42,2423.32L2980.24,2424.03Z" style="fill-rule:nonzero;"/>
        </g>
    </g>
</svg>
