<?xml version="1.0" encoding="UTF-8" standalone="no"?>
<!DOCTYPE svg PUBLIC "-//W3C//DTD SVG 1.1//EN" "http://www.w3.org/Graphics/SVG/1.1/DTD/svg11.dtd">
<svg width="100%" height="100%" viewBox="0 0 89 89" version="1.1" xmlns="http://www.w3.org/2000/svg" xmlns:xlink="http://www.w3.org/1999/xlink" xml:space="preserve" xmlns:serif="http://www.serif.com/" style="fill-rule:evenodd;clip-rule:evenodd;stroke-linejoin:round;stroke-miterlimit:2;">
    <g transform="matrix(1,0,0,1,-2040.22,-1788.66)">
        <g transform="matrix(1,0,0,1,-1072.97,-2735.12)">
            <path d="M3201.38,4611.99L3201.38,4523.79L3113.18,4523.79L3113.18,4611.99L3201.38,4611.99ZM3197.28,4607.89L3117.28,4607.89L3117.28,4527.89L3197.28,4527.89L3197.28,4607.89ZM3170.98,4577.09C3176.68,4589.69 3178.28,4593.29 3179.18,4596.19C3179.38,4596.79 3180.38,4597.09 3181.38,4597.09C3182.98,4597.09 3184.98,4596.39 3184.98,4595.29C3184.98,4595.09 3184.88,4594.79 3184.68,4594.49C3177.68,4584.79 3161.38,4544.99 3161.38,4542.89L3161.38,4542.19C3161.38,4539.79 3158.48,4538.99 3157.18,4538.99C3156.68,4538.99 3156.28,4539.09 3155.98,4539.39C3155.28,4540.09 3155.08,4542.69 3154.68,4543.69C3151.78,4550.39 3145.78,4563.19 3140.18,4574.39L3138.58,4574.39C3137.48,4574.39 3136.58,4574.39 3135.68,4574.29L3135.48,4574.29C3134.98,4574.29 3134.68,4574.69 3134.68,4575.19C3134.68,4576.49 3136.08,4578.69 3137.18,4578.69L3137.28,4578.69C3137.58,4578.69 3137.78,4578.59 3138.08,4578.59C3132.08,4590.69 3130.88,4592.79 3129.58,4594.79C3129.38,4595.19 3129.28,4595.49 3129.28,4595.69C3129.28,4596.59 3130.48,4596.99 3131.68,4596.99C3133.08,4596.99 3134.68,4596.49 3134.98,4595.59C3135.58,4593.79 3137.18,4590.19 3138.08,4588.39C3139.58,4585.39 3141.38,4581.89 3143.18,4578.09L3170.98,4577.09ZM3144.98,4574.29C3150.18,4563.69 3155.58,4552.29 3158.08,4546.29C3160.18,4551.99 3164.68,4562.79 3169.28,4573.29L3144.98,4574.29Z" style="fill-rule:nonzero;"/>
        </g>
    </g>
</svg>
