<?xml version="1.0" encoding="UTF-8" standalone="no"?>
<!DOCTYPE svg PUBLIC "-//W3C//DTD SVG 1.1//EN" "http://www.w3.org/Graphics/SVG/1.1/DTD/svg11.dtd">
<svg width="100%" height="100%" viewBox="0 0 69 72" version="1.1" xmlns="http://www.w3.org/2000/svg" xmlns:xlink="http://www.w3.org/1999/xlink" xml:space="preserve" xmlns:serif="http://www.serif.com/" style="fill-rule:evenodd;clip-rule:evenodd;stroke-linejoin:round;stroke-miterlimit:2;">
    <g transform="matrix(1,0,0,1,-4031.55,-2472.77)">
        <g transform="matrix(1.41414,0,0,1.41429,-1534.59,-78.5653)">
            <path d="M3972.47,1837.21C3974.03,1840.74 3975.58,1844.21 3977,1847.17C3977.78,1848.87 3979.05,1852.2 3979.61,1853.89C3979.75,1854.46 3980.6,1854.67 3981.59,1854.67C3983.01,1854.67 3984.7,1854.11 3984.7,1853.12C3984.7,1852.9 3984.56,1852.69 3984.42,1852.41C3982.87,1850.22 3981.03,1846.96 3980.32,1845.41C3974.81,1833.81 3968.23,1818.96 3964.13,1808.07C3964.06,1807.79 3963.99,1807.51 3963.99,1807.3L3963.99,1806.8C3963.99,1806.52 3963.99,1806.16 3963.85,1805.88C3963.49,1804.96 3961.8,1803.97 3960.45,1803.97C3960.03,1803.97 3959.67,1804.12 3959.39,1804.33C3958.75,1804.89 3958.54,1807.15 3958.19,1808.07C3955.71,1813.94 3950.41,1825.12 3945.53,1834.87L3944.26,1834.87C3943.27,1834.87 3942.49,1834.8 3941.64,1834.73L3941.5,1834.73C3941.01,1834.73 3940.8,1835.08 3940.8,1835.51C3940.8,1836.71 3941.93,1838.62 3942.99,1838.62L3943.06,1838.62C3943.27,1838.62 3943.48,1838.55 3943.76,1838.55C3937.4,1850.92 3937.12,1851.42 3936.34,1852.62C3936.13,1852.9 3936.06,1853.18 3936.06,1853.47C3936.06,1854.25 3937.05,1854.6 3938.18,1854.6C3939.38,1854.6 3940.72,1854.17 3941.01,1853.4C3941.57,1851.77 3942.92,1848.66 3943.69,1847.11C3945.04,1844.42 3946.59,1841.38 3948.15,1838.12L3972.47,1837.21ZM3949.78,1834.8C3954.3,1825.47 3958.97,1815.57 3961.16,1810.34C3963,1815.29 3966.96,1824.69 3970.99,1833.88L3949.78,1834.8Z" style="fill-rule:nonzero;"/>
        </g>
    </g>
</svg>
