<?xml version="1.0" encoding="UTF-8" standalone="no"?>
<!DOCTYPE svg PUBLIC "-//W3C//DTD SVG 1.1//EN" "http://www.w3.org/Graphics/SVG/1.1/DTD/svg11.dtd">
<svg width="100%" height="100%" viewBox="0 0 49 73" version="1.1" xmlns="http://www.w3.org/2000/svg" xmlns:xlink="http://www.w3.org/1999/xlink" xml:space="preserve" xmlns:serif="http://www.serif.com/" style="fill-rule:evenodd;clip-rule:evenodd;stroke-linejoin:round;stroke-miterlimit:2;">
    <g transform="matrix(1,0,0,1,-4418.11,-1422.87)">
        <g transform="matrix(1.41414,0,0,1.41429,-1534.59,-78.5653)">
            <path d="M4232.18,1105.95C4236.77,1112.17 4239.32,1112.67 4242.5,1112.67C4243.56,1112.67 4243.99,1112.46 4243.99,1112.17C4243.99,1111.68 4243,1110.97 4241.58,1110.41C4238.82,1109.21 4236.28,1105.6 4234.23,1102.91C4237.69,1097.26 4240.73,1088.35 4240.73,1086.23C4240.73,1085.24 4239.04,1084.11 4238.05,1084.11C4237.13,1084.11 4236.99,1085.1 4236.77,1086.23C4236.07,1090.26 4234.16,1095.63 4231.97,1099.73C4228.78,1095.35 4224.97,1089.69 4222.14,1084.32C4227.09,1080.5 4231.97,1075.76 4231.97,1070.25C4231.97,1064.66 4228.36,1061.62 4223.34,1061.62C4218.04,1061.62 4214.22,1066.07 4214.22,1072.37C4214.22,1075.27 4215.63,1079.15 4217.68,1083.33C4212.38,1087.57 4209.41,1093.58 4209.41,1100.93C4209.41,1107.23 4213.3,1112.81 4220.51,1112.81C4224.75,1112.81 4228.15,1111.26 4232.18,1105.95ZM4220.51,1081.13C4218.96,1077.74 4217.9,1074.7 4217.9,1072.44C4217.9,1067.84 4220.23,1064.94 4223.34,1064.94C4226.38,1064.94 4228.36,1066.71 4228.36,1070.53C4228.36,1073.85 4224.9,1077.74 4220.51,1081.13ZM4229.99,1102.91C4226.88,1107.37 4223.84,1109.42 4220.37,1109.42C4215.56,1109.42 4213.02,1105.46 4213.02,1100.79C4213.02,1095.21 4214.93,1090.26 4219.31,1086.44C4222.56,1092.38 4226.73,1098.39 4229.99,1102.91Z" style="fill-rule:nonzero;"/>
        </g>
    </g>
</svg>
