<?xml version="1.0" encoding="UTF-8" standalone="no"?>
<!DOCTYPE svg PUBLIC "-//W3C//DTD SVG 1.1//EN" "http://www.w3.org/Graphics/SVG/1.1/DTD/svg11.dtd">
<svg width="100%" height="100%" viewBox="0 0 78 21" version="1.1" xmlns="http://www.w3.org/2000/svg" xmlns:xlink="http://www.w3.org/1999/xlink" xml:space="preserve" xmlns:serif="http://www.serif.com/" style="fill-rule:evenodd;clip-rule:evenodd;stroke-linejoin:round;stroke-miterlimit:2;">
    <g transform="matrix(1,0,0,1,-4327.72,-2045.57)">
        <g transform="matrix(1.41414,0,0,1.41429,-1534.59,-78.5653)">
            <path d="M4170.88,1509.97C4176.6,1513.51 4181.48,1516.41 4186.36,1516.41C4192.8,1516.41 4197.25,1514.07 4200.29,1507.22C4200.5,1506.72 4200.57,1506.3 4200.57,1505.94C4200.57,1505.38 4200.36,1505.1 4199.94,1505.1C4199.51,1505.1 4198.95,1505.45 4198.38,1506.3C4195.13,1511.46 4191.66,1512.87 4186.57,1512.87C4182.68,1512.87 4179.71,1510.96 4175.19,1508.35C4169.46,1504.81 4164.58,1501.91 4159.7,1501.91C4153.27,1501.91 4148.82,1504.25 4145.77,1511.11C4145.56,1511.6 4145.49,1512.02 4145.49,1512.38C4145.49,1512.94 4145.7,1513.23 4146.13,1513.23C4146.55,1513.23 4147.12,1512.87 4147.68,1512.02C4150.94,1506.86 4154.26,1505.45 4159.49,1505.45C4163.31,1505.45 4166.56,1507.43 4170.88,1509.97Z" style="fill-rule:nonzero;"/>
        </g>
    </g>
</svg>
