<?xml version="1.0" encoding="UTF-8" standalone="no"?>
<!DOCTYPE svg PUBLIC "-//W3C//DTD SVG 1.1//EN" "http://www.w3.org/Graphics/SVG/1.1/DTD/svg11.dtd">
<svg width="100%" height="100%" viewBox="0 0 70 78" version="1.1" xmlns="http://www.w3.org/2000/svg" xmlns:xlink="http://www.w3.org/1999/xlink" xml:space="preserve" xmlns:serif="http://www.serif.com/" style="fill-rule:evenodd;clip-rule:evenodd;stroke-linejoin:round;stroke-miterlimit:2;">
    <g transform="matrix(1,0,0,1,-681.08,-5276.67)">
        <g transform="matrix(1,0,0,1,-504.034,-1124.47)">
            <path d="M1224.21,6476.64C1224.21,6472.44 1223.41,6464.94 1223.31,6461.54L1222.61,6444.54L1236.11,6453.14C1240.21,6455.74 1246.31,6459.54 1249.41,6461.64C1249.71,6461.84 1250.11,6461.94 1250.51,6461.94C1252.61,6461.94 1255.01,6458.64 1255.01,6456.44C1255.01,6455.74 1254.71,6455.04 1254.01,6454.74C1250.01,6452.84 1244.01,6449.84 1240.41,6447.94L1225.21,6440.04L1239.11,6432.54C1243.81,6430.04 1249.51,6427.04 1253.21,6425.24C1254.11,6424.84 1254.41,6423.94 1254.41,6422.94C1254.41,6420.54 1252.51,6417.34 1250.71,6417.34C1250.41,6417.34 1250.11,6417.44 1249.81,6417.64C1246.31,6420.24 1240.21,6424.24 1237.11,6426.24L1222.61,6435.44L1223.21,6419.74C1223.41,6415.14 1224.11,6408.04 1224.11,6404.04L1224.11,6403.94C1224.11,6402.14 1221.61,6401.14 1219.31,6401.14C1217.41,6401.14 1215.61,6401.84 1215.61,6403.34L1215.61,6403.44C1215.61,6407.94 1216.31,6414.64 1216.51,6418.54L1217.21,6435.44L1203.81,6427.04C1200.21,6424.84 1193.61,6420.44 1190.51,6418.34C1190.21,6418.14 1189.91,6418.04 1189.51,6418.04C1187.51,6418.04 1185.11,6421.24 1185.11,6423.54C1185.11,6424.34 1185.41,6425.04 1186.21,6425.44C1190.01,6427.24 1196.61,6430.44 1199.81,6432.14L1214.81,6440.04L1200.51,6447.44C1196.41,6449.54 1189.81,6452.94 1186.51,6454.54C1185.71,6454.94 1185.31,6455.74 1185.31,6456.74C1185.31,6459.14 1187.31,6462.34 1189.21,6462.34C1189.51,6462.34 1189.81,6462.24 1190.11,6462.04L1202.91,6453.74L1217.21,6444.54L1216.61,6460.44C1216.41,6465.04 1215.71,6472.04 1215.71,6476.14L1215.71,6476.24C1215.71,6478.04 1218.11,6479.04 1220.41,6479.04C1222.31,6479.04 1224.21,6478.24 1224.21,6476.74L1224.21,6476.64Z" style="fill-rule:nonzero;"/>
        </g>
    </g>
</svg>
