<?xml version="1.0" encoding="UTF-8" standalone="no"?>
<!DOCTYPE svg PUBLIC "-//W3C//DTD SVG 1.1//EN" "http://www.w3.org/Graphics/SVG/1.1/DTD/svg11.dtd">
<svg width="100%" height="100%" viewBox="0 0 96 96" version="1.1" xmlns="http://www.w3.org/2000/svg" xmlns:xlink="http://www.w3.org/1999/xlink" xml:space="preserve" xmlns:serif="http://www.serif.com/" style="fill-rule:evenodd;clip-rule:evenodd;stroke-linejoin:round;stroke-miterlimit:2;">
    <g transform="matrix(1,0,0,1,-209.628,-2723.28)">
        <g transform="matrix(1,0,0,1,-110.019,-3591.86)">
            <path d="M415.248,6362.94C415.248,6336.55 393.848,6315.15 367.448,6315.15C341.048,6315.15 319.648,6336.55 319.648,6362.94C319.648,6389.35 341.048,6410.65 367.448,6410.65C393.848,6410.65 415.248,6389.35 415.248,6362.94ZM411.148,6362.94C411.148,6387.05 391.548,6406.55 367.448,6406.55C343.348,6406.55 323.748,6387.05 323.748,6362.94C323.748,6338.85 343.348,6319.24 367.448,6319.24C391.548,6319.24 411.148,6338.85 411.148,6362.94ZM349.448,6388.44C349.448,6388.44 347.648,6388.65 346.748,6388.65C345.748,6388.65 345.148,6389.24 345.148,6389.94C345.148,6390.44 345.348,6392.05 356.748,6392.05C369.048,6392.05 389.048,6391.05 389.048,6373.94C389.048,6365.74 381.848,6359.74 373.848,6359.24C378.548,6357.65 384.548,6353.24 384.548,6346.24C384.548,6339.35 379.348,6333.94 366.648,6333.94C360.248,6333.94 350.648,6335.05 347.448,6336.35C346.948,6336.55 346.748,6336.94 346.748,6337.44C346.748,6338.65 348.048,6340.35 349.448,6340.55L349.448,6388.44ZM354.148,6358.74L354.148,6339.44C357.448,6338.55 361.948,6338.05 365.648,6338.05C374.848,6338.05 379.848,6340.74 379.848,6346.74C379.848,6352.94 372.148,6356.94 366.148,6358.05C363.548,6358.44 358.448,6358.74 355.248,6358.74L354.148,6358.74ZM368.748,6361.94C375.148,6362.15 384.348,6365.35 384.348,6374.24C384.348,6387.15 367.148,6388.74 354.148,6388.74L354.148,6362.55C357.748,6362.24 363.248,6361.94 367.148,6361.94L368.748,6361.94Z" style="fill-rule:nonzero;"/>
        </g>
    </g>
</svg>
