<?xml version="1.0" encoding="UTF-8" standalone="no"?>
<!DOCTYPE svg PUBLIC "-//W3C//DTD SVG 1.1//EN" "http://www.w3.org/Graphics/SVG/1.1/DTD/svg11.dtd">
<svg width="100%" height="100%" viewBox="0 0 89 89" version="1.1" xmlns="http://www.w3.org/2000/svg" xmlns:xlink="http://www.w3.org/1999/xlink" xml:space="preserve" xmlns:serif="http://www.serif.com/" style="fill-rule:evenodd;clip-rule:evenodd;stroke-linejoin:round;stroke-miterlimit:2;">
    <g transform="matrix(1,0,0,1,-258.769,-2371.63)">
        <g transform="matrix(1.41414,0,0,1.41429,-177.055,-770.755)">
            <path d="M370.554,2284.25L370.554,2221.89L308.19,2221.89L308.19,2284.25L370.554,2284.25ZM325.584,2238.08C324.453,2237.45 323.675,2236.17 323.675,2235.11C323.675,2234.41 324.029,2233.7 324.806,2233.34C327.281,2232.35 334.281,2231.58 338.806,2231.58C348.069,2231.58 352.524,2235.61 352.524,2241.33C352.524,2245.43 349.978,2248.33 347.221,2250.1C351.958,2251.59 355.705,2255.62 355.705,2260.92C355.705,2274.43 339.867,2274.78 331.806,2274.78C322.685,2274.78 322.544,2273.36 322.544,2272.23C322.544,2271.03 323.604,2270.25 324.736,2270.25C324.948,2270.25 325.301,2270.25 325.584,2270.18L325.584,2238.08ZM331.029,2270.32C337.251,2270.18 350.261,2269.69 350.261,2261.13C350.261,2255.83 344.746,2253.64 340.291,2253.5L339.16,2253.5C336.756,2253.5 333.503,2253.64 331.029,2253.85L331.029,2270.32ZM331.029,2249.11C333.221,2249.11 336.544,2248.9 338.241,2248.62C342.554,2247.91 347.079,2245.15 347.079,2241.69C347.079,2238.43 344.604,2236.6 338.099,2236.6C335.837,2236.6 333.15,2236.88 331.029,2237.38L331.029,2249.11Z" style="fill-rule:nonzero;"/>
        </g>
    </g>
</svg>
