<?xml version="1.0" encoding="UTF-8" standalone="no"?>
<!DOCTYPE svg PUBLIC "-//W3C//DTD SVG 1.1//EN" "http://www.w3.org/Graphics/SVG/1.1/DTD/svg11.dtd">
<svg width="100%" height="100%" viewBox="0 0 96 96" version="1.1" xmlns="http://www.w3.org/2000/svg" xmlns:xlink="http://www.w3.org/1999/xlink" xml:space="preserve" xmlns:serif="http://www.serif.com/" style="fill-rule:evenodd;clip-rule:evenodd;stroke-linejoin:round;stroke-miterlimit:2;">
    <g transform="matrix(1,0,0,1,-609.628,-3923.28)">
        <g transform="matrix(1,0,0,1,-110.019,-3591.86)">
            <path d="M815.248,7562.94C815.248,7536.55 793.848,7515.15 767.448,7515.15C741.048,7515.15 719.648,7536.55 719.648,7562.94C719.648,7589.35 741.048,7610.65 767.448,7610.65C793.848,7610.65 815.248,7589.35 815.248,7562.94ZM747.948,7541.65C746.348,7540.74 745.248,7538.94 745.248,7537.44C745.248,7536.44 745.748,7535.44 746.848,7534.94C750.348,7533.55 760.248,7532.44 766.648,7532.44C779.748,7532.44 786.048,7538.15 786.048,7546.24C786.048,7552.05 782.448,7556.15 778.548,7558.65C785.248,7560.74 790.548,7566.44 790.548,7573.94C790.548,7593.05 768.148,7593.55 756.748,7593.55C743.848,7593.55 743.648,7591.55 743.648,7589.94C743.648,7588.24 745.148,7587.15 746.748,7587.15C747.048,7587.15 747.548,7587.15 747.948,7587.05L747.948,7541.65ZM755.648,7557.24C758.748,7557.24 763.448,7556.94 765.848,7556.55C771.948,7555.55 778.348,7551.65 778.348,7546.74C778.348,7542.15 774.848,7539.55 765.648,7539.55C762.448,7539.55 758.648,7539.94 755.648,7540.65L755.648,7557.24ZM755.648,7587.24C764.448,7587.05 782.848,7586.35 782.848,7574.24C782.848,7566.74 775.048,7563.65 768.748,7563.44L767.148,7563.44C763.748,7563.44 759.148,7563.65 755.648,7563.94L755.648,7587.24Z" style="fill-rule:nonzero;"/>
        </g>
    </g>
</svg>
