<?xml version="1.0" encoding="UTF-8" standalone="no"?>
<!DOCTYPE svg PUBLIC "-//W3C//DTD SVG 1.1//EN" "http://www.w3.org/Graphics/SVG/1.1/DTD/svg11.dtd">
<svg width="100%" height="100%" viewBox="0 0 89 89" version="1.1" xmlns="http://www.w3.org/2000/svg" xmlns:xlink="http://www.w3.org/1999/xlink" xml:space="preserve" xmlns:serif="http://www.serif.com/" style="fill-rule:evenodd;clip-rule:evenodd;stroke-linejoin:round;stroke-miterlimit:2;">
    <g transform="matrix(1,0,0,1,-1602.51,-2342.27)">
        <g transform="matrix(1.41414,0,0,1.41429,-1052.39,-837.704)">
            <path d="M1934.24,2310.83C1937.63,2310.83 1939.75,2308.29 1939.75,2305.32L1939.75,2253.98C1939.75,2250.52 1937.28,2248.47 1934.24,2248.47L1882.9,2248.47C1879.44,2248.47 1877.39,2250.8 1877.39,2253.98L1877.39,2305.32C1877.39,2308.5 1879.86,2310.83 1882.9,2310.83L1934.24,2310.83ZM1894.78,2264.66C1893.65,2264.03 1892.87,2262.75 1892.87,2261.69C1892.87,2260.98 1893.23,2260.28 1894,2259.92C1896.48,2258.93 1903.48,2258.16 1908,2258.16C1917.27,2258.16 1921.72,2262.19 1921.72,2267.91C1921.72,2272.01 1919.18,2274.91 1916.42,2276.68C1921.15,2278.17 1924.9,2282.2 1924.9,2287.5C1924.9,2301.01 1909.07,2301.36 1901,2301.36C1891.88,2301.36 1891.74,2299.94 1891.74,2298.81C1891.74,2297.61 1892.8,2296.83 1893.93,2296.83C1894.14,2296.83 1894.5,2296.83 1894.78,2296.76L1894.78,2264.66ZM1900.23,2275.69C1902.42,2275.69 1905.74,2275.48 1907.44,2275.2C1911.75,2274.49 1916.28,2271.73 1916.28,2268.27C1916.28,2265.01 1913.8,2263.18 1907.3,2263.18C1905.03,2263.18 1902.35,2263.46 1900.23,2263.95L1900.23,2275.69ZM1900.23,2296.9C1906.45,2296.76 1919.46,2296.27 1919.46,2287.71C1919.46,2282.41 1913.94,2280.22 1909.49,2280.08L1908.36,2280.08C1905.95,2280.08 1902.7,2280.22 1900.23,2280.43L1900.23,2296.9Z" style="fill-rule:nonzero;"/>
        </g>
    </g>
</svg>
