<?xml version="1.0" encoding="UTF-8" standalone="no"?>
<!DOCTYPE svg PUBLIC "-//W3C//DTD SVG 1.1//EN" "http://www.w3.org/Graphics/SVG/1.1/DTD/svg11.dtd">
<svg width="100%" height="100%" viewBox="0 0 98 90" version="1.1" xmlns="http://www.w3.org/2000/svg" xmlns:xlink="http://www.w3.org/1999/xlink" xml:space="preserve" xmlns:serif="http://www.serif.com/" style="fill-rule:evenodd;clip-rule:evenodd;stroke-linejoin:round;stroke-miterlimit:2;">
    <g transform="matrix(1,0,0,1,-5237.44,-2285.56)">
        <g transform="matrix(1,0,0,1,1,0)">
            <path d="M5315.13,2374.76C5317.43,2374.76 5334.13,2357.26 5334.13,2330.16C5334.13,2302.96 5317.43,2285.56 5315.13,2285.56C5314.43,2285.56 5313.93,2286.06 5313.93,2286.76C5313.93,2287.16 5314.03,2287.66 5314.43,2288.06C5324.23,2299.76 5328.83,2315.96 5328.83,2330.16C5328.83,2344.36 5324.23,2360.56 5314.43,2372.26C5314.03,2372.66 5313.93,2373.16 5313.93,2373.56C5313.93,2374.26 5314.43,2374.76 5315.13,2374.76ZM5256.64,2373.56C5256.64,2373.16 5256.54,2372.66 5256.14,2372.26C5246.34,2360.56 5241.74,2344.36 5241.74,2330.16C5241.74,2315.96 5246.34,2299.76 5256.14,2288.06C5256.54,2287.66 5256.64,2287.16 5256.64,2286.76C5256.64,2286.06 5256.14,2285.56 5255.44,2285.56C5253.14,2285.56 5236.44,2302.96 5236.44,2330.16C5236.44,2357.26 5253.14,2374.76 5255.44,2374.76C5256.14,2374.76 5256.64,2374.26 5256.64,2373.56ZM5267.34,2355.66C5267.34,2355.66 5265.53,2355.86 5264.64,2355.86C5263.64,2355.86 5263.03,2356.46 5263.03,2357.16C5263.03,2357.66 5263.23,2359.26 5274.63,2359.26C5286.93,2359.26 5306.93,2358.26 5306.93,2341.16C5306.93,2332.96 5299.73,2326.96 5291.73,2326.46C5296.43,2324.86 5302.43,2320.46 5302.43,2313.46C5302.43,2306.56 5297.23,2301.16 5284.53,2301.16C5278.13,2301.16 5268.53,2302.26 5265.34,2303.56C5264.84,2303.76 5264.64,2304.16 5264.64,2304.66C5264.64,2305.86 5265.94,2307.56 5267.34,2307.76L5267.34,2355.66ZM5272.03,2325.96L5272.03,2306.66C5275.33,2305.76 5279.83,2305.26 5283.53,2305.26C5292.73,2305.26 5297.73,2307.96 5297.73,2313.96C5297.73,2320.16 5290.03,2324.16 5284.03,2325.26C5281.43,2325.66 5276.33,2325.96 5273.13,2325.96L5272.03,2325.96ZM5286.63,2329.16C5293.03,2329.36 5302.23,2332.56 5302.23,2341.46C5302.23,2354.36 5285.03,2355.96 5272.03,2355.96L5272.03,2329.76C5275.63,2329.46 5281.13,2329.16 5285.03,2329.16L5286.63,2329.16Z" style="fill-rule:nonzero;"/>
        </g>
    </g>
</svg>
