<?xml version="1.0" encoding="UTF-8" standalone="no"?>
<!DOCTYPE svg PUBLIC "-//W3C//DTD SVG 1.1//EN" "http://www.w3.org/Graphics/SVG/1.1/DTD/svg11.dtd">
<svg width="100%" height="100%" viewBox="0 0 89 89" version="1.1" xmlns="http://www.w3.org/2000/svg" xmlns:xlink="http://www.w3.org/1999/xlink" xml:space="preserve" xmlns:serif="http://www.serif.com/" style="fill-rule:evenodd;clip-rule:evenodd;stroke-linejoin:round;stroke-miterlimit:2;">
    <g transform="matrix(1,0,0,1,-2140.22,-1788.66)">
        <g transform="matrix(1,0,0,1,-1072.97,-2735.12)">
            <path d="M3301.38,4611.99L3301.38,4523.79L3213.18,4523.79L3213.18,4611.99L3301.38,4611.99ZM3297.28,4607.89L3217.28,4607.89L3217.28,4527.89L3297.28,4527.89L3297.28,4607.89ZM3239.28,4593.49C3239.28,4593.49 3237.48,4593.69 3236.58,4593.69C3235.58,4593.69 3234.98,4594.29 3234.98,4594.99C3234.98,4595.49 3235.18,4597.09 3246.58,4597.09C3258.88,4597.09 3278.88,4596.09 3278.88,4578.99C3278.88,4570.79 3271.68,4564.79 3263.68,4564.29C3268.38,4562.69 3274.38,4558.29 3274.38,4551.29C3274.38,4544.39 3269.18,4538.99 3256.48,4538.99C3250.08,4538.99 3240.48,4540.09 3237.28,4541.39C3236.78,4541.59 3236.58,4541.99 3236.58,4542.49C3236.58,4543.69 3237.88,4545.39 3239.28,4545.59L3239.28,4593.49ZM3258.58,4566.99C3264.98,4567.19 3274.18,4570.39 3274.18,4579.29C3274.18,4592.19 3256.98,4593.79 3243.98,4593.79L3243.98,4567.59C3247.58,4567.29 3253.08,4566.99 3256.98,4566.99L3258.58,4566.99ZM3243.98,4563.79L3243.98,4544.49C3247.28,4543.59 3251.78,4543.09 3255.48,4543.09C3264.68,4543.09 3269.68,4545.79 3269.68,4551.79C3269.68,4557.99 3261.98,4561.99 3255.98,4563.09C3253.38,4563.49 3248.28,4563.79 3245.08,4563.79L3243.98,4563.79Z" style="fill-rule:nonzero;"/>
        </g>
    </g>
</svg>
