<?xml version="1.0" encoding="UTF-8" standalone="no"?>
<!DOCTYPE svg PUBLIC "-//W3C//DTD SVG 1.1//EN" "http://www.w3.org/Graphics/SVG/1.1/DTD/svg11.dtd">
<svg width="100%" height="100%" viewBox="0 0 89 89" version="1.1" xmlns="http://www.w3.org/2000/svg" xmlns:xlink="http://www.w3.org/1999/xlink" xml:space="preserve" xmlns:serif="http://www.serif.com/" style="fill-rule:evenodd;clip-rule:evenodd;stroke-linejoin:round;stroke-miterlimit:2;">
    <g transform="matrix(1,0,0,1,-2893.34,-2331.51)">
        <g transform="matrix(1.41414,0,0,1.41429,-1389.33,-1046.26)">
            <path d="M3085.31,2450.69C3088.7,2450.69 3090.83,2448.14 3090.83,2445.17L3090.83,2393.84C3090.83,2390.38 3088.35,2388.32 3085.31,2388.32L3033.98,2388.32C3030.51,2388.32 3028.46,2390.66 3028.46,2393.84L3028.46,2445.17C3028.46,2448.35 3030.94,2450.69 3033.98,2450.69L3085.31,2450.69ZM3087.93,2445.45C3087.93,2447.01 3086.87,2447.79 3085.66,2447.79L3033.62,2447.79C3032.14,2447.79 3031.36,2446.73 3031.36,2445.45L3031.36,2393.49C3031.36,2392.07 3032.28,2391.22 3033.62,2391.22L3085.66,2391.22C3087.08,2391.22 3087.93,2392.28 3087.93,2393.49L3087.93,2445.45ZM3046.92,2437.61C3046.92,2437.61 3045.64,2437.75 3045.01,2437.75C3044.3,2437.75 3043.88,2438.17 3043.88,2438.67C3043.88,2439.02 3044.02,2440.15 3052.08,2440.15C3060.78,2440.15 3074.92,2439.45 3074.92,2427.35C3074.92,2421.56 3069.83,2417.31 3064.17,2416.96C3067.49,2415.83 3071.73,2412.72 3071.73,2407.77C3071.73,2402.89 3068.06,2399.07 3059.08,2399.07C3054.55,2399.07 3047.76,2399.85 3045.5,2400.77C3045.15,2400.91 3045.01,2401.19 3045.01,2401.55C3045.01,2402.39 3045.93,2403.6 3046.92,2403.74L3046.92,2437.61ZM3060.56,2418.87C3065.09,2419.01 3071.59,2421.27 3071.59,2427.57C3071.59,2436.69 3059.43,2437.82 3050.24,2437.82L3050.24,2419.29C3052.78,2419.08 3056.67,2418.87 3059.43,2418.87L3060.56,2418.87ZM3050.24,2416.61L3050.24,2402.96C3052.57,2402.32 3055.76,2401.97 3058.37,2401.97C3064.88,2401.97 3068.41,2403.88 3068.41,2408.12C3068.41,2412.51 3062.97,2415.33 3058.72,2416.11C3056.89,2416.39 3053.28,2416.61 3051.02,2416.61L3050.24,2416.61Z" style="fill-rule:nonzero;"/>
        </g>
    </g>
</svg>
