<?xml version="1.0" encoding="UTF-8" standalone="no"?>
<!DOCTYPE svg PUBLIC "-//W3C//DTD SVG 1.1//EN" "http://www.w3.org/Graphics/SVG/1.1/DTD/svg11.dtd">
<svg width="100%" height="100%" viewBox="0 0 90 93" version="1.1" xmlns="http://www.w3.org/2000/svg" xmlns:xlink="http://www.w3.org/1999/xlink" xml:space="preserve" xmlns:serif="http://www.serif.com/" style="fill-rule:evenodd;clip-rule:evenodd;stroke-linejoin:round;stroke-miterlimit:2;">
    <g transform="matrix(1,0,0,1,-4220.93,-2008.87)">
        <g transform="matrix(1.41414,0,0,1.41429,-1534.59,-78.5653)">
            <path d="M4124.99,1534.37C4126.82,1536.21 4129.02,1538.68 4130.86,1540.8C4131.14,1541.08 4131.42,1541.23 4131.63,1541.23C4132.62,1541.23 4133.4,1539.67 4133.4,1538.47C4133.4,1538.04 4133.33,1537.62 4133.05,1537.41C4131.21,1535.85 4129.23,1534.01 4127.25,1532.03L4078.39,1482.89C4076.62,1481.05 4074.29,1478.72 4072.52,1476.46C4072.24,1476.11 4071.96,1475.96 4071.74,1475.96C4070.83,1475.96 4069.98,1477.59 4069.98,1478.79C4069.98,1479.22 4070.05,1479.64 4070.33,1479.85C4072.03,1481.48 4074.22,1483.25 4076.13,1485.23L4124.99,1534.37Z" style="fill-rule:nonzero;"/>
        </g>
    </g>
</svg>
