<?xml version="1.0" encoding="UTF-8" standalone="no"?>
<!DOCTYPE svg PUBLIC "-//W3C//DTD SVG 1.1//EN" "http://www.w3.org/Graphics/SVG/1.1/DTD/svg11.dtd">
<svg width="100%" height="100%" viewBox="0 0 55 72" version="1.1" xmlns="http://www.w3.org/2000/svg" xmlns:xlink="http://www.w3.org/1999/xlink" xml:space="preserve" xmlns:serif="http://www.serif.com/" style="fill-rule:evenodd;clip-rule:evenodd;stroke-linejoin:round;stroke-miterlimit:2;">
    <g transform="matrix(1,0,0,1,-4139.24,-2472.87)">
        <g transform="matrix(1.41414,0,0,1.41429,-1534.59,-78.5653)">
            <path d="M4015.96,1851.63C4015.96,1851.63 4014.4,1851.77 4013.62,1851.77C4012.78,1851.77 4012.21,1852.34 4012.21,1852.97C4012.21,1853.47 4012.63,1853.96 4013.48,1854.11C4016.03,1854.53 4020.2,1854.74 4022.32,1854.74C4032.29,1854.74 4050.53,1854.32 4050.53,1838.97C4050.53,1831.76 4044.24,1826.53 4037.24,1826.11C4041.34,1824.76 4046.57,1820.87 4046.57,1814.79C4046.57,1808.78 4042.05,1804.04 4030.95,1804.04C4025.36,1804.04 4017.02,1805.03 4014.26,1806.16C4013.84,1806.38 4013.69,1806.73 4013.69,1807.08C4013.69,1808.14 4014.83,1809.63 4015.96,1809.84L4015.96,1851.63ZM4020.06,1825.68L4020.06,1808.85C4022.96,1808.07 4026.85,1807.65 4030.1,1807.65C4038.16,1807.65 4042.47,1809.98 4042.47,1815.22C4042.47,1820.66 4035.75,1824.12 4030.52,1825.04C4028.33,1825.4 4023.88,1825.68 4020.98,1825.68L4020.06,1825.68ZM4032.79,1828.51C4038.37,1828.65 4046.43,1831.48 4046.43,1839.18C4046.43,1851.35 4028.19,1851.84 4020.06,1851.84L4020.06,1829C4023.17,1828.72 4028.05,1828.51 4031.37,1828.51L4032.79,1828.51Z" style="fill-rule:nonzero;"/>
        </g>
    </g>
</svg>
