<?xml version="1.0" encoding="UTF-8" standalone="no"?>
<!DOCTYPE svg PUBLIC "-//W3C//DTD SVG 1.1//EN" "http://www.w3.org/Graphics/SVG/1.1/DTD/svg11.dtd">
<svg width="100%" height="100%" viewBox="0 0 88 88" version="1.1" xmlns="http://www.w3.org/2000/svg" xmlns:xlink="http://www.w3.org/1999/xlink" xml:space="preserve" xmlns:serif="http://www.serif.com/" style="fill-rule:evenodd;clip-rule:evenodd;stroke-linejoin:round;stroke-miterlimit:2;">
    <g transform="matrix(1,0,0,1,-1372.28,-5271.07)">
        <g transform="matrix(1,0,0,1,-504.034,-1124.47)">
            <path d="M1963.51,6439.14C1963.51,6415.14 1943.91,6395.54 1919.91,6395.54C1895.91,6395.54 1876.31,6415.14 1876.31,6439.14C1876.31,6463.14 1895.91,6482.74 1919.91,6482.74C1943.91,6482.74 1963.51,6463.14 1963.51,6439.14ZM1955.21,6439.14C1955.21,6458.64 1939.41,6474.44 1919.91,6474.44C1900.41,6474.44 1884.61,6458.64 1884.61,6439.14C1884.61,6419.64 1900.41,6403.84 1919.91,6403.84C1939.41,6403.84 1955.21,6419.64 1955.21,6439.14ZM1945.11,6439.14C1945.11,6425.34 1933.71,6413.94 1919.91,6413.94C1906.11,6413.94 1894.71,6425.34 1894.71,6439.14C1894.71,6452.94 1906.11,6464.34 1919.91,6464.34C1933.71,6464.34 1945.11,6452.94 1945.11,6439.14ZM1936.81,6439.14C1936.81,6448.54 1929.31,6456.04 1919.91,6456.04C1910.51,6456.04 1903.01,6448.54 1903.01,6439.14C1903.01,6429.74 1910.51,6422.24 1919.91,6422.24C1929.31,6422.24 1936.81,6429.74 1936.81,6439.14Z" style="fill-rule:nonzero;"/>
        </g>
    </g>
</svg>
