<?xml version="1.0" encoding="UTF-8" standalone="no"?>
<!DOCTYPE svg PUBLIC "-//W3C//DTD SVG 1.1//EN" "http://www.w3.org/Graphics/SVG/1.1/DTD/svg11.dtd">
<svg width="100%" height="100%" viewBox="0 0 96 96" version="1.1" xmlns="http://www.w3.org/2000/svg" xmlns:xlink="http://www.w3.org/1999/xlink" xml:space="preserve" xmlns:serif="http://www.serif.com/" style="fill-rule:evenodd;clip-rule:evenodd;stroke-linejoin:round;stroke-miterlimit:2;">
    <g transform="matrix(1,0,0,1,-309.628,-2723.28)">
        <g transform="matrix(1,0,0,1,-110.019,-3591.86)">
            <path d="M515.248,6362.94C515.248,6336.55 493.848,6315.15 467.448,6315.15C441.048,6315.15 419.648,6336.55 419.648,6362.94C419.648,6389.35 441.048,6410.65 467.448,6410.65C493.848,6410.65 515.248,6389.35 515.248,6362.94ZM511.148,6362.94C511.148,6387.05 491.548,6406.55 467.448,6406.55C443.348,6406.55 423.748,6387.05 423.748,6362.94C423.748,6338.85 443.348,6319.24 467.448,6319.24C491.548,6319.24 511.148,6338.85 511.148,6362.94ZM493.048,6376.24C493.048,6375.55 492.648,6375.05 492.048,6375.05C491.548,6375.05 490.948,6375.35 490.348,6376.15C485.148,6382.94 476.948,6388.24 468.048,6388.24C456.348,6388.24 447.648,6381.94 447.648,6367.24C447.648,6350.85 458.048,6337.85 471.348,6337.85C475.048,6337.85 482.548,6338.74 485.648,6343.85C485.948,6344.35 486.348,6344.55 486.748,6344.55C488.048,6344.55 489.648,6342.65 489.648,6341.24C489.648,6340.94 489.548,6340.65 489.348,6340.44C484.448,6333.65 472.648,6333.65 471.648,6333.65C455.448,6333.65 442.948,6348.55 442.948,6367.44C442.948,6385.15 453.448,6392.44 467.548,6392.44C485.048,6392.44 493.048,6378.15 493.048,6376.24Z" style="fill-rule:nonzero;"/>
        </g>
    </g>
</svg>
