<?xml version="1.0" encoding="UTF-8" standalone="no"?>
<!DOCTYPE svg PUBLIC "-//W3C//DTD SVG 1.1//EN" "http://www.w3.org/Graphics/SVG/1.1/DTD/svg11.dtd">
<svg width="100%" height="100%" viewBox="0 0 96 96" version="1.1" xmlns="http://www.w3.org/2000/svg" xmlns:xlink="http://www.w3.org/1999/xlink" xml:space="preserve" xmlns:serif="http://www.serif.com/" style="fill-rule:evenodd;clip-rule:evenodd;stroke-linejoin:round;stroke-miterlimit:2;">
    <g transform="matrix(1,0,0,1,-709.628,-3923.28)">
        <g transform="matrix(1,0,0,1,-110.019,-3591.86)">
            <path d="M915.248,7562.94C915.248,7536.55 893.848,7515.15 867.448,7515.15C841.048,7515.15 819.648,7536.55 819.648,7562.94C819.648,7589.35 841.048,7610.65 867.448,7610.65C893.848,7610.65 915.248,7589.35 915.248,7562.94ZM893.948,7578.35C889.048,7587.74 878.548,7593.94 867.548,7593.94C852.748,7593.94 841.448,7586.05 841.448,7567.44C841.448,7547.94 854.348,7532.15 871.648,7532.15C880.748,7532.15 887.348,7535.15 890.548,7539.44C890.948,7540.05 891.148,7540.65 891.148,7541.24C891.148,7543.24 889.048,7546.05 886.748,7546.05C885.748,7546.05 884.948,7545.55 884.348,7544.65C882.448,7541.55 876.948,7539.35 871.348,7539.35C859.148,7539.35 849.148,7551.35 849.148,7567.24C849.148,7581.05 857.048,7586.74 868.048,7586.74C876.348,7586.74 884.148,7581.74 889.148,7575.24C889.948,7574.24 890.848,7573.55 892.048,7573.55C893.748,7573.55 894.548,7575.05 894.548,7576.24C894.548,7576.94 894.348,7577.65 893.948,7578.35Z" style="fill-rule:nonzero;"/>
        </g>
    </g>
</svg>
