<?xml version="1.0" encoding="UTF-8" standalone="no"?>
<!DOCTYPE svg PUBLIC "-//W3C//DTD SVG 1.1//EN" "http://www.w3.org/Graphics/SVG/1.1/DTD/svg11.dtd">
<svg width="100%" height="100%" viewBox="0 0 89 89" version="1.1" xmlns="http://www.w3.org/2000/svg" xmlns:xlink="http://www.w3.org/1999/xlink" xml:space="preserve" xmlns:serif="http://www.serif.com/" style="fill-rule:evenodd;clip-rule:evenodd;stroke-linejoin:round;stroke-miterlimit:2;">
    <g transform="matrix(1,0,0,1,-358.759,-2371.63)">
        <g transform="matrix(1.41414,0,0,1.41429,-177.055,-770.755)">
            <path d="M441.261,2284.25L441.261,2221.89L378.897,2221.89L378.897,2284.25L441.261,2284.25ZM428.817,2264.03C425.352,2270.68 417.928,2275.06 410.15,2275.06C399.685,2275.06 391.695,2269.48 391.695,2256.32C391.695,2242.54 400.817,2231.36 413.049,2231.36C419.483,2231.36 424.15,2233.49 426.413,2236.53C426.695,2236.95 426.837,2237.38 426.837,2237.8C426.837,2239.21 425.352,2241.19 423.726,2241.19C423.019,2241.19 422.453,2240.84 422.029,2240.2C420.685,2238.01 416.796,2236.45 412.837,2236.45C404.211,2236.45 397.14,2244.94 397.14,2256.18C397.14,2265.94 402.726,2269.97 410.503,2269.97C416.372,2269.97 421.887,2266.43 425.423,2261.84C425.988,2261.13 426.625,2260.64 427.473,2260.64C428.675,2260.64 429.241,2261.7 429.241,2262.55C429.241,2263.04 429.099,2263.54 428.817,2264.03Z" style="fill-rule:nonzero;"/>
        </g>
    </g>
</svg>
