<?xml version="1.0" encoding="UTF-8" standalone="no"?>
<!DOCTYPE svg PUBLIC "-//W3C//DTD SVG 1.1//EN" "http://www.w3.org/Graphics/SVG/1.1/DTD/svg11.dtd">
<svg width="100%" height="100%" viewBox="0 0 89 89" version="1.1" xmlns="http://www.w3.org/2000/svg" xmlns:xlink="http://www.w3.org/1999/xlink" xml:space="preserve" xmlns:serif="http://www.serif.com/" style="fill-rule:evenodd;clip-rule:evenodd;stroke-linejoin:round;stroke-miterlimit:2;">
    <g transform="matrix(1,0,0,1,-1702.49,-2342.27)">
        <g transform="matrix(1.41414,0,0,1.41429,-1052.39,-837.704)">
            <path d="M2004.94,2310.83C2008.34,2310.83 2010.46,2308.29 2010.46,2305.32L2010.46,2253.98C2010.46,2250.52 2007.98,2248.47 2004.94,2248.47L1953.61,2248.47C1950.14,2248.47 1948.1,2250.8 1948.1,2253.98L1948.1,2305.32C1948.1,2308.5 1950.57,2310.83 1953.61,2310.83L2004.94,2310.83ZM1998.01,2290.61C1994.55,2297.26 1987.12,2301.64 1979.35,2301.64C1968.88,2301.64 1960.89,2296.05 1960.89,2282.9C1960.89,2269.12 1970.01,2257.94 1982.25,2257.94C1988.68,2257.94 1993.35,2260.07 1995.61,2263.11C1995.89,2263.53 1996.03,2263.95 1996.03,2264.38C1996.03,2265.79 1994.55,2267.77 1992.92,2267.77C1992.22,2267.77 1991.65,2267.42 1991.23,2266.78C1989.88,2264.59 1985.99,2263.03 1982.03,2263.03C1973.41,2263.03 1966.34,2271.52 1966.34,2282.76C1966.34,2292.52 1971.92,2296.55 1979.7,2296.55C1985.57,2296.55 1991.09,2293.01 1994.62,2288.42C1995.19,2287.71 1995.82,2287.22 1996.67,2287.22C1997.87,2287.22 1998.44,2288.28 1998.44,2289.13C1998.44,2289.62 1998.3,2290.12 1998.01,2290.61Z" style="fill-rule:nonzero;"/>
        </g>
    </g>
</svg>
