<?xml version="1.0" encoding="UTF-8" standalone="no"?>
<!DOCTYPE svg PUBLIC "-//W3C//DTD SVG 1.1//EN" "http://www.w3.org/Graphics/SVG/1.1/DTD/svg11.dtd">
<svg width="100%" height="100%" viewBox="0 0 98 90" version="1.1" xmlns="http://www.w3.org/2000/svg" xmlns:xlink="http://www.w3.org/1999/xlink" xml:space="preserve" xmlns:serif="http://www.serif.com/" style="fill-rule:evenodd;clip-rule:evenodd;stroke-linejoin:round;stroke-miterlimit:2;">
    <g transform="matrix(1,0,0,1,-5337.43,-2285.56)">
        <g transform="matrix(1,0,0,1,1,0)">
            <path d="M5415.12,2374.76C5417.42,2374.76 5434.12,2357.26 5434.12,2330.16C5434.12,2302.96 5417.42,2285.56 5415.12,2285.56C5414.42,2285.56 5413.92,2286.06 5413.92,2286.76C5413.92,2287.16 5414.02,2287.66 5414.42,2288.06C5424.22,2299.76 5428.82,2315.96 5428.82,2330.16C5428.82,2344.36 5424.22,2360.56 5414.42,2372.26C5414.02,2372.66 5413.92,2373.16 5413.92,2373.56C5413.92,2374.26 5414.42,2374.76 5415.12,2374.76ZM5356.63,2373.56C5356.63,2373.16 5356.53,2372.66 5356.13,2372.26C5346.33,2360.56 5341.73,2344.36 5341.73,2330.16C5341.73,2315.96 5346.33,2299.76 5356.13,2288.06C5356.53,2287.66 5356.63,2287.16 5356.63,2286.76C5356.63,2286.06 5356.13,2285.56 5355.43,2285.56C5353.13,2285.56 5336.43,2302.96 5336.43,2330.16C5336.43,2357.26 5353.13,2374.76 5355.43,2374.76C5356.13,2374.76 5356.63,2374.26 5356.63,2373.56ZM5410.92,2343.46C5410.92,2342.76 5410.52,2342.26 5409.92,2342.26C5409.42,2342.26 5408.82,2342.56 5408.22,2343.36C5403.02,2350.16 5394.82,2355.46 5385.92,2355.46C5374.22,2355.46 5365.53,2349.16 5365.53,2334.46C5365.53,2318.06 5375.92,2305.06 5389.22,2305.06C5392.92,2305.06 5400.42,2305.96 5403.52,2311.06C5403.82,2311.56 5404.22,2311.76 5404.62,2311.76C5405.92,2311.76 5407.52,2309.86 5407.52,2308.46C5407.52,2308.16 5407.42,2307.86 5407.22,2307.66C5402.32,2300.86 5390.52,2300.86 5389.52,2300.86C5373.32,2300.86 5360.82,2315.76 5360.82,2334.66C5360.82,2352.36 5371.32,2359.66 5385.42,2359.66C5402.92,2359.66 5410.92,2345.36 5410.92,2343.46Z" style="fill-rule:nonzero;"/>
        </g>
    </g>
</svg>
