<?xml version="1.0" encoding="UTF-8" standalone="no"?>
<!DOCTYPE svg PUBLIC "-//W3C//DTD SVG 1.1//EN" "http://www.w3.org/Graphics/SVG/1.1/DTD/svg11.dtd">
<svg width="100%" height="100%" viewBox="0 0 89 89" version="1.1" xmlns="http://www.w3.org/2000/svg" xmlns:xlink="http://www.w3.org/1999/xlink" xml:space="preserve" xmlns:serif="http://www.serif.com/" style="fill-rule:evenodd;clip-rule:evenodd;stroke-linejoin:round;stroke-miterlimit:2;">
    <g transform="matrix(1,0,0,1,-2240.22,-1788.66)">
        <g transform="matrix(1,0,0,1,-1072.97,-2735.12)">
            <path d="M3401.38,4611.99L3401.38,4523.79L3313.18,4523.79L3313.18,4611.99L3401.38,4611.99ZM3397.28,4607.89L3317.28,4607.89L3317.28,4527.89L3397.28,4527.89L3397.28,4607.89ZM3382.88,4581.29C3382.88,4580.59 3382.48,4580.09 3381.88,4580.09C3381.38,4580.09 3380.78,4580.39 3380.18,4581.19C3374.98,4587.99 3366.78,4593.29 3357.88,4593.29C3346.18,4593.29 3337.48,4586.99 3337.48,4572.29C3337.48,4555.89 3347.88,4542.89 3361.18,4542.89C3364.88,4542.89 3372.38,4543.79 3375.48,4548.89C3375.78,4549.39 3376.18,4549.59 3376.58,4549.59C3377.88,4549.59 3379.48,4547.69 3379.48,4546.29C3379.48,4545.99 3379.38,4545.69 3379.18,4545.49C3374.28,4538.69 3362.48,4538.69 3361.48,4538.69C3345.28,4538.69 3332.78,4553.59 3332.78,4572.49C3332.78,4590.19 3343.28,4597.49 3357.38,4597.49C3374.88,4597.49 3382.88,4583.19 3382.88,4581.29Z" style="fill-rule:nonzero;"/>
        </g>
    </g>
</svg>
