<?xml version="1.0" encoding="UTF-8" standalone="no"?>
<!DOCTYPE svg PUBLIC "-//W3C//DTD SVG 1.1//EN" "http://www.w3.org/Graphics/SVG/1.1/DTD/svg11.dtd">
<svg width="100%" height="100%" viewBox="0 0 89 89" version="1.1" xmlns="http://www.w3.org/2000/svg" xmlns:xlink="http://www.w3.org/1999/xlink" xml:space="preserve" xmlns:serif="http://www.serif.com/" style="fill-rule:evenodd;clip-rule:evenodd;stroke-linejoin:round;stroke-miterlimit:2;">
    <g transform="matrix(1,0,0,1,-2993.33,-2331.51)">
        <g transform="matrix(1.41414,0,0,1.41429,-1389.33,-1046.26)">
            <path d="M3156.02,2450.69C3159.41,2450.69 3161.53,2448.14 3161.53,2445.17L3161.53,2393.84C3161.53,2390.38 3159.06,2388.32 3156.02,2388.32L3104.68,2388.32C3101.22,2388.32 3099.17,2390.66 3099.17,2393.84L3099.17,2445.17C3099.17,2448.35 3101.64,2450.69 3104.68,2450.69L3156.02,2450.69ZM3158.63,2445.45C3158.63,2447.01 3157.57,2447.79 3156.37,2447.79L3104.33,2447.79C3102.85,2447.79 3102.07,2446.73 3102.07,2445.45L3102.07,2393.49C3102.07,2392.07 3102.99,2391.22 3104.33,2391.22L3156.37,2391.22C3157.78,2391.22 3158.63,2392.28 3158.63,2393.49L3158.63,2445.45ZM3148.45,2428.98C3148.45,2428.49 3148.17,2428.13 3147.74,2428.13C3147.39,2428.13 3146.97,2428.34 3146.54,2428.91C3142.87,2433.72 3137.07,2437.47 3130.78,2437.47C3122.5,2437.47 3116.35,2433.01 3116.35,2422.62C3116.35,2411.02 3123.7,2401.83 3133.11,2401.83C3135.72,2401.83 3141.03,2402.47 3143.22,2406.07C3143.43,2406.43 3143.71,2406.57 3144,2406.57C3144.92,2406.57 3146.05,2405.22 3146.05,2404.23C3146.05,2404.02 3145.98,2403.81 3145.84,2403.67C3142.37,2398.86 3134.03,2398.86 3133.32,2398.86C3121.87,2398.86 3113.03,2409.39 3113.03,2422.76C3113.03,2435.27 3120.45,2440.43 3130.42,2440.43C3142.8,2440.43 3148.45,2430.32 3148.45,2428.98Z" style="fill-rule:nonzero;"/>
        </g>
    </g>
</svg>
