<?xml version="1.0" encoding="UTF-8" standalone="no"?>
<!DOCTYPE svg PUBLIC "-//W3C//DTD SVG 1.1//EN" "http://www.w3.org/Graphics/SVG/1.1/DTD/svg11.dtd">
<svg width="100%" height="100%" viewBox="0 0 45 66" version="1.1" xmlns="http://www.w3.org/2000/svg" xmlns:xlink="http://www.w3.org/1999/xlink" xml:space="preserve" xmlns:serif="http://www.serif.com/" style="fill-rule:evenodd;clip-rule:evenodd;stroke-linejoin:round;stroke-miterlimit:2;">
    <g transform="matrix(1,0,0,1,-4198.54,-1586.37)">
        <g transform="matrix(1.41414,0,0,1.41429,-1534.59,-78.5653)">
            <path d="M4078.04,1187.69C4078.46,1187.83 4080.58,1188.61 4082.28,1191.65C4082.42,1191.93 4082.7,1192.07 4082.99,1192.07C4083.98,1192.07 4085.46,1190.59 4085.46,1189.25C4085.46,1187.97 4082.99,1185.43 4079.38,1184.23C4079.88,1182.95 4080.37,1181.68 4080.87,1180.62C4080.94,1180.41 4081.01,1180.27 4081.01,1180.05C4081.01,1178.71 4079.31,1177.23 4078.32,1177.23C4078.04,1177.23 4077.83,1177.37 4077.68,1177.72C4077.12,1179.77 4076.55,1181.61 4075.92,1183.45C4075.14,1183.38 4074.43,1183.31 4073.65,1183.31C4064.96,1183.31 4054.14,1192.57 4054.14,1203.88C4054.14,1210.81 4058.03,1215.48 4062.98,1217.6C4062.62,1218.59 4062.2,1219.58 4061.78,1220.5C4061.7,1220.71 4061.63,1220.92 4061.63,1221.06C4061.63,1222.34 4063.19,1223.61 4064.25,1223.61C4064.6,1223.61 4064.82,1223.47 4064.96,1223.12C4065.38,1221.7 4065.95,1220.14 4066.44,1218.59C4067.36,1218.73 4068.28,1218.8 4069.2,1218.8C4082.21,1218.8 4085.67,1210.88 4085.67,1210.03C4085.67,1209.54 4085.39,1209.26 4084.97,1209.26C4084.61,1209.26 4084.05,1209.54 4083.34,1210.17C4079.73,1213.64 4075.49,1215.12 4069.2,1215.12C4068.7,1215.12 4068.21,1215.05 4067.71,1214.98L4078.04,1187.69ZM4064.46,1213.99C4061.14,1212.37 4058.24,1208.9 4058.24,1203.53C4058.24,1194.69 4067.08,1186.98 4073.8,1186.98L4074.57,1186.98L4064.46,1213.99Z" style="fill-rule:nonzero;"/>
        </g>
    </g>
</svg>
