<?xml version="1.0" encoding="UTF-8" standalone="no"?>
<!DOCTYPE svg PUBLIC "-//W3C//DTD SVG 1.1//EN" "http://www.w3.org/Graphics/SVG/1.1/DTD/svg11.dtd">
<svg width="100%" height="100%" viewBox="0 0 59 72" version="1.1" xmlns="http://www.w3.org/2000/svg" xmlns:xlink="http://www.w3.org/1999/xlink" xml:space="preserve" xmlns:serif="http://www.serif.com/" style="fill-rule:evenodd;clip-rule:evenodd;stroke-linejoin:round;stroke-miterlimit:2;">
    <g transform="matrix(1,0,0,1,-4536.9,-2773.17)">
        <g transform="matrix(1.41414,0,0,1.41429,-1534.59,-78.5653)">
            <path d="M4325.37,2060.22C4326.78,2062.27 4328.41,2064.88 4329.19,2066.23C4329.47,2066.72 4330.11,2066.93 4330.89,2066.93C4332.44,2066.93 4334.49,2065.94 4334.49,2065.1C4334.49,2064.88 4334.42,2064.74 4334.28,2064.6C4332.51,2062.9 4329.97,2060.07 4328.48,2057.88L4316.67,2040.56L4328.13,2024.37C4329.33,2022.67 4330.89,2020.69 4332.51,2019.13C4332.65,2018.99 4332.72,2018.78 4332.72,2018.57C4332.72,2017.58 4330.67,2016.38 4329.33,2016.38C4328.84,2016.38 4328.48,2016.52 4328.27,2016.87C4327.56,2018.14 4326.01,2020.55 4324.81,2022.25L4314.34,2037.1L4304.51,2022.67C4303.38,2020.97 4301.97,2018.78 4301.19,2017.3C4300.98,2016.94 4300.41,2016.73 4299.7,2016.73C4298.22,2016.73 4296.31,2017.51 4296.31,2018.5C4296.31,2018.71 4296.38,2018.92 4296.59,2019.13C4298.22,2020.69 4300.2,2023.24 4301.26,2024.79L4311.94,2040.49L4299.63,2057.88C4298.01,2060.14 4296.1,2062.12 4293.76,2064.6C4293.55,2064.81 4293.41,2065.1 4293.41,2065.31C4293.41,2066.23 4295.32,2066.93 4296.95,2066.93C4297.8,2066.93 4298.57,2066.72 4298.86,2066.23C4300.06,2064.32 4301.54,2061.91 4302.74,2060.22L4314.27,2043.95L4325.37,2060.22Z" style="fill-rule:nonzero;"/>
        </g>
    </g>
</svg>
