<?xml version="1.0" encoding="UTF-8" standalone="no"?>
<!DOCTYPE svg PUBLIC "-//W3C//DTD SVG 1.1//EN" "http://www.w3.org/Graphics/SVG/1.1/DTD/svg11.dtd">
<svg width="100%" height="100%" viewBox="0 0 96 96" version="1.1" xmlns="http://www.w3.org/2000/svg" xmlns:xlink="http://www.w3.org/1999/xlink" xml:space="preserve" xmlns:serif="http://www.serif.com/" style="fill-rule:evenodd;clip-rule:evenodd;stroke-linejoin:round;stroke-miterlimit:2;">
    <g transform="matrix(1,0,0,1,-791.528,-1565.55)">
        <g transform="matrix(2,0,0,2,-952.938,-710.212)">
            <path d="M920.033,1161.78C920.033,1148.58 909.333,1137.88 896.133,1137.88C882.933,1137.88 872.233,1148.58 872.233,1161.78C872.233,1174.98 882.933,1185.63 896.133,1185.63C909.333,1185.63 920.033,1174.98 920.033,1161.78ZM917.983,1161.78C917.983,1173.83 908.183,1183.58 896.133,1183.58C884.083,1183.58 874.283,1173.83 874.283,1161.78C874.283,1149.73 884.083,1139.93 896.133,1139.93C908.183,1139.93 917.983,1149.73 917.983,1161.78ZM889.833,1176.03C890.683,1175.98 891.183,1175.73 891.233,1175.23C891.333,1173.88 892.683,1163.18 894.983,1151.48C895.033,1151.23 895.283,1150.58 895.433,1150.03L895.433,1149.88C895.433,1149.28 894.733,1148.53 893.983,1148.53C893.283,1148.53 893.433,1149.78 893.183,1150.83C892.733,1149.73 891.133,1147.43 887.833,1147.43C883.133,1147.43 879.583,1152.73 879.583,1158.08C879.583,1162.58 881.783,1165.18 884.933,1165.18C887.433,1165.18 890.033,1163.33 891.483,1160.58C890.883,1164.13 890.183,1168.28 889.733,1171.38C889.633,1172.08 889.383,1173.28 889.183,1174.43C889.133,1174.78 889.033,1175.13 889.033,1175.38C889.033,1175.78 889.183,1176.03 889.783,1176.03L889.833,1176.03ZM900.733,1162.38C901.833,1161.08 903.333,1160.23 905.083,1160.23C908.133,1160.23 910.133,1162.68 910.133,1166.73C910.133,1170.53 908.333,1174.08 903.933,1174.08C901.383,1174.08 899.783,1172.23 898.583,1170.13C898.483,1169.93 898.383,1169.83 898.233,1169.83C897.783,1169.83 897.233,1170.88 897.233,1171.78C897.233,1173.13 900.483,1176.23 903.933,1176.23C909.733,1176.23 912.083,1171.73 912.083,1166.68C912.083,1161.28 909.033,1158.18 905.433,1158.18C903.133,1158.18 901.583,1158.98 900.233,1160.38L901.083,1150.78L907.783,1150.28C908.733,1150.18 909.733,1150.13 910.383,1150.13C910.633,1150.13 910.733,1149.88 910.733,1149.58C910.733,1148.93 910.233,1147.93 909.783,1147.93L909.683,1147.93C909.083,1148.08 908.133,1148.13 907.533,1148.18L901.133,1148.58C900.683,1148.38 900.183,1148.18 899.833,1148.18C899.533,1148.18 899.383,1148.28 899.383,1148.58C899.383,1149.08 899.333,1149.78 899.283,1150.33L898.483,1159.98L898.183,1161.33C898.133,1161.48 898.133,1161.63 898.133,1161.78C898.133,1162.78 898.983,1163.48 899.533,1163.48C899.633,1163.48 899.733,1163.48 899.783,1163.38L900.733,1162.38ZM892.533,1154.53C891.133,1159.63 888.233,1163.03 884.883,1163.03C882.683,1163.03 881.533,1161.28 881.533,1157.93C881.533,1154.28 883.883,1149.48 887.983,1149.48C890.433,1149.48 891.433,1151.38 891.883,1152.48C892.033,1152.83 892.183,1152.98 892.383,1152.98C892.583,1152.98 892.733,1152.83 892.883,1152.63L892.533,1154.53Z" style="fill-rule:nonzero;"/>
        </g>
    </g>
</svg>
