<?xml version="1.0" encoding="UTF-8" standalone="no"?>
<!DOCTYPE svg PUBLIC "-//W3C//DTD SVG 1.1//EN" "http://www.w3.org/Graphics/SVG/1.1/DTD/svg11.dtd">
<svg width="100%" height="100%" viewBox="0 0 96 96" version="1.1" xmlns="http://www.w3.org/2000/svg" xmlns:xlink="http://www.w3.org/1999/xlink" xml:space="preserve" xmlns:serif="http://www.serif.com/" style="fill-rule:evenodd;clip-rule:evenodd;stroke-linejoin:round;stroke-miterlimit:2;">
    <g transform="matrix(1,0,0,1,-191.528,-1265.55)">
        <g transform="matrix(2,0,0,2,-952.938,-710.212)">
            <path d="M620.033,1011.78C620.033,998.581 609.333,987.881 596.133,987.881C582.933,987.881 572.233,998.581 572.233,1011.78C572.233,1024.98 582.933,1035.63 596.133,1035.63C609.333,1035.63 620.033,1024.98 620.033,1011.78ZM617.983,1011.78C617.983,1023.83 608.183,1033.58 596.133,1033.58C584.083,1033.58 574.283,1023.83 574.283,1011.78C574.283,999.731 584.083,989.931 596.133,989.931C608.183,989.931 617.983,999.731 617.983,1011.78ZM583.683,1011.53C586.083,1005.88 587.333,1003.03 590.233,999.081C590.333,998.881 590.583,998.531 590.583,998.281C590.583,997.731 589.733,997.381 589.133,997.381C588.733,997.381 588.383,997.531 588.233,997.881C588.133,998.081 587.833,998.581 587.733,998.681C586.333,1001.03 584.883,1003.98 583.333,1007.53C581.733,1011.18 580.883,1014.53 580.883,1017.88C580.883,1022.48 584.133,1026.23 588.433,1026.23C593.133,1026.23 595.983,1022.13 595.983,1016.78C595.983,1011.98 593.183,1008.43 589.033,1008.43C586.733,1008.43 584.833,1009.63 583.683,1011.53ZM588.433,1024.23C585.183,1024.23 582.883,1021.43 582.883,1017.83C582.883,1013.88 585.283,1010.48 588.983,1010.48C592.083,1010.48 593.983,1013.48 593.983,1016.88C593.983,1021.18 591.633,1024.23 588.433,1024.23ZM612.233,999.481C612.233,998.781 611.333,997.931 610.783,997.831L610.683,997.831C610.183,997.831 609.683,998.081 609.133,998.131L599.133,998.831L598.633,998.831C598.033,998.831 597.633,998.781 597.233,998.781C597.083,998.781 597.033,998.881 597.033,999.031C597.033,999.531 597.683,1001.03 598.833,1001.03C599.183,1001.03 599.533,1000.98 599.933,1000.93L609.533,1000.08C604.883,1011.23 601.633,1021.28 600.733,1024.23C600.683,1024.48 600.483,1024.83 600.483,1025.18C600.483,1025.48 600.683,1025.83 601.433,1025.93C601.583,1025.93 601.783,1025.98 601.933,1025.98C602.533,1025.98 602.833,1025.83 602.933,1025.38C604.183,1019.53 608.433,1008.23 611.383,1001.48C611.583,1000.98 612.183,1000.28 612.233,999.631L612.233,999.481Z" style="fill-rule:nonzero;"/>
        </g>
    </g>
</svg>
