<?xml version="1.0" encoding="UTF-8" standalone="no"?>
<!DOCTYPE svg PUBLIC "-//W3C//DTD SVG 1.1//EN" "http://www.w3.org/Graphics/SVG/1.1/DTD/svg11.dtd">
<svg width="100%" height="100%" viewBox="0 0 96 96" version="1.1" xmlns="http://www.w3.org/2000/svg" xmlns:xlink="http://www.w3.org/1999/xlink" xml:space="preserve" xmlns:serif="http://www.serif.com/" style="fill-rule:evenodd;clip-rule:evenodd;stroke-linejoin:round;stroke-miterlimit:2;">
    <g transform="matrix(1,0,0,1,-891.528,-815.55)">
        <g transform="matrix(2,0,0,2,-952.938,-710.212)">
            <path d="M970.033,786.781C970.033,773.581 959.333,762.881 946.133,762.881C932.933,762.881 922.233,773.581 922.233,786.781C922.233,799.981 932.933,810.631 946.133,810.631C959.333,810.631 970.033,799.981 970.033,786.781ZM967.983,786.781C967.983,798.831 958.183,808.581 946.133,808.581C934.083,808.581 924.283,798.831 924.283,786.781C924.283,774.731 934.083,764.931 946.133,764.931C958.183,764.931 967.983,774.731 967.983,786.781ZM944.783,794.231C945.733,794.231 947.083,794.331 947.533,794.331C947.833,794.331 947.883,794.081 947.883,793.781C947.883,793.081 947.383,791.981 946.783,791.981C946.333,791.981 945.333,792.181 944.733,792.231L944.083,792.281L944.083,784.081C944.083,783.131 944.183,781.181 944.183,780.581C944.183,779.881 943.233,779.431 942.533,779.431C942.183,779.431 941.933,779.581 941.933,779.831C941.933,780.731 942.033,783.281 942.033,784.081L942.033,792.381L933.633,792.581C936.133,787.881 939.333,781.481 941.333,777.131C941.633,776.481 942.183,775.581 942.583,774.931C942.683,774.831 942.683,774.681 942.683,774.531C942.683,773.681 941.683,772.531 941.083,772.531C940.933,772.531 940.783,772.581 940.733,772.781C938.983,777.531 935.433,784.781 932.433,790.481C932.133,790.981 931.633,791.581 931.233,792.281C931.033,792.531 931.033,792.831 931.033,793.031C931.033,793.981 931.833,794.881 932.533,794.881C932.633,794.881 932.683,794.831 932.783,794.831C933.333,794.681 933.833,794.581 934.083,794.581L942.033,794.331L942.033,796.481C942.033,797.081 941.933,799.331 941.933,799.981C941.933,800.631 942.933,801.081 943.633,801.081C944.033,801.081 944.283,800.931 944.283,800.681C944.283,799.781 944.083,798.181 944.083,796.581L944.083,794.231L944.783,794.231ZM955.533,796.531C955.533,797.381 955.483,799.381 955.483,800.031C955.483,800.631 956.433,801.081 957.133,801.081C957.483,801.081 957.733,800.981 957.733,800.681C957.683,799.681 957.633,797.381 957.633,796.281L957.633,776.531C957.633,775.431 957.833,774.731 957.833,774.081C957.833,773.331 957.083,772.631 956.533,772.631C955.983,772.631 955.233,773.781 954.983,773.981C953.883,774.931 952.183,775.981 950.433,776.731C950.183,776.831 950.083,776.981 950.083,777.131C950.083,777.581 950.883,778.031 951.483,778.031C951.633,778.031 951.733,778.031 951.833,777.981C953.083,777.581 954.533,776.931 955.533,776.231L955.533,796.531Z" style="fill-rule:nonzero;"/>
        </g>
    </g>
</svg>
