<?xml version="1.0" encoding="UTF-8" standalone="no"?>
<!DOCTYPE svg PUBLIC "-//W3C//DTD SVG 1.1//EN" "http://www.w3.org/Graphics/SVG/1.1/DTD/svg11.dtd">
<svg width="100%" height="100%" viewBox="0 0 96 96" version="1.1" xmlns="http://www.w3.org/2000/svg" xmlns:xlink="http://www.w3.org/1999/xlink" xml:space="preserve" xmlns:serif="http://www.serif.com/" style="fill-rule:evenodd;clip-rule:evenodd;stroke-linejoin:round;stroke-miterlimit:2;">
    <g transform="matrix(1,0,0,1,-591.528,-665.55)">
        <g transform="matrix(2,0,0,2,-952.938,-710.212)">
            <path d="M820.033,711.781C820.033,698.581 809.333,687.881 796.133,687.881C782.933,687.881 772.233,698.581 772.233,711.781C772.233,724.981 782.933,735.631 796.133,735.631C809.333,735.631 820.033,724.981 820.033,711.781ZM817.983,711.781C817.983,723.831 808.183,733.581 796.133,733.581C784.083,733.581 774.283,723.831 774.283,711.781C774.283,699.731 784.083,689.931 796.133,689.931C808.183,689.931 817.983,699.731 817.983,711.781ZM781.633,725.731C783.183,725.331 785.433,725.231 787.233,725.231C790.783,725.231 794.483,725.481 795.033,725.531C795.283,725.531 795.433,725.331 795.433,725.031C795.433,724.331 794.883,723.231 794.333,723.231C793.833,723.231 792.633,723.281 792.033,723.281C790.533,723.281 789.383,723.231 787.633,723.231C786.233,723.231 784.183,723.331 782.833,723.481C784.083,720.831 786.283,716.881 789.433,713.731C792.783,710.431 795.133,707.631 795.133,703.981C795.133,700.181 792.633,697.431 788.683,697.431C784.983,697.431 782.483,699.431 781.033,702.331C780.883,702.531 780.883,702.781 780.883,703.031C780.883,703.881 781.833,704.631 782.183,704.631C782.533,704.631 782.833,704.231 782.983,703.681C783.783,701.331 785.733,699.481 788.583,699.481C791.333,699.481 792.933,701.531 792.933,703.981C792.933,706.581 791.033,709.031 788.083,712.081C785.033,715.181 782.533,719.431 781.133,722.281C780.933,722.631 780.733,722.981 780.383,723.431C780.283,723.581 780.233,723.781 780.233,724.031C780.233,724.831 780.883,725.731 781.533,725.731L781.633,725.731ZM812.583,699.481C812.583,698.781 811.633,697.931 811.083,697.831L810.983,697.831C810.533,697.831 809.983,698.081 809.433,698.131L799.433,698.831L798.933,698.831C798.333,698.831 797.933,698.781 797.533,698.781C797.383,698.781 797.333,698.881 797.333,699.031C797.333,699.531 797.983,701.031 799.133,701.031C799.483,701.031 799.833,700.981 800.233,700.931L809.883,700.081C805.783,709.681 802.833,718.281 801.033,724.231C800.983,724.481 800.783,724.831 800.783,725.181C800.783,725.481 800.983,725.831 801.733,725.931C801.883,725.931 802.083,725.981 802.233,725.981C802.833,725.981 803.183,725.831 803.233,725.381C804.483,719.581 809.233,707.081 811.683,701.481C811.883,700.981 812.483,700.281 812.583,699.631L812.583,699.481Z" style="fill-rule:nonzero;"/>
        </g>
    </g>
</svg>
