<?xml version="1.0" encoding="UTF-8" standalone="no"?>
<!DOCTYPE svg PUBLIC "-//W3C//DTD SVG 1.1//EN" "http://www.w3.org/Graphics/SVG/1.1/DTD/svg11.dtd">
<svg width="100%" height="100%" viewBox="0 0 96 96" version="1.1" xmlns="http://www.w3.org/2000/svg" xmlns:xlink="http://www.w3.org/1999/xlink" xml:space="preserve" xmlns:serif="http://www.serif.com/" style="fill-rule:evenodd;clip-rule:evenodd;stroke-linejoin:round;stroke-miterlimit:2;">
    <g transform="matrix(1,0,0,1,-491.528,-1265.55)">
        <g transform="matrix(2,0,0,2,-952.938,-710.212)">
            <path d="M770.033,1011.78C770.033,998.581 759.333,987.881 746.133,987.881C732.933,987.881 722.233,998.581 722.233,1011.78C722.233,1024.98 732.933,1035.63 746.133,1035.63C759.333,1035.63 770.033,1024.98 770.033,1011.78ZM767.983,1011.78C767.983,1023.83 758.183,1033.58 746.133,1033.58C734.083,1033.58 724.283,1023.83 724.283,1011.78C724.283,999.731 734.083,989.931 746.133,989.931C758.183,989.931 767.983,999.731 767.983,1011.78ZM750.583,999.631C750.483,999.581 750.333,999.531 750.233,999.531C749.233,999.531 746.933,1005.23 746.933,1012.23C746.933,1020.33 749.283,1026.23 754.133,1026.23C759.233,1026.23 761.733,1019.33 761.733,1011.18C761.733,1003.23 759.333,997.381 754.983,997.381C753.233,997.381 751.783,998.331 750.733,999.831L750.583,999.631ZM753.983,1024.13C750.233,1024.13 748.983,1018.63 748.983,1012.18C748.983,1003.63 752.283,999.381 754.833,999.381C758.433,999.381 759.683,1005.43 759.683,1010.88C759.683,1017.63 758.083,1024.13 753.983,1024.13ZM733.683,1024.23C733.633,1024.48 733.483,1024.83 733.483,1025.18C733.483,1025.48 733.633,1025.83 734.383,1025.93C734.583,1025.93 734.783,1025.98 734.883,1025.98C735.533,1025.98 735.833,1025.83 735.933,1025.38C737.283,1019.03 741.383,1008.18 744.333,1001.48C744.583,1000.98 745.133,1000.28 745.233,999.631L745.233,999.481C745.233,998.781 744.283,997.931 743.733,997.831L743.633,997.831C743.183,997.831 742.683,998.081 742.133,998.131L732.133,998.831L731.583,998.831C730.983,998.831 730.633,998.781 730.183,998.781C730.083,998.781 730.033,998.881 730.033,999.031C730.033,999.381 730.333,1000.13 730.833,1000.68C731.183,1000.98 731.483,1001.03 731.833,1001.03C732.133,1001.03 732.533,1000.98 732.883,1000.93L742.533,1000.08C739.583,1007.13 736.733,1014.73 734.633,1021.33L733.683,1024.23Z" style="fill-rule:nonzero;"/>
        </g>
    </g>
</svg>
