<?xml version="1.0" encoding="UTF-8" standalone="no"?>
<!DOCTYPE svg PUBLIC "-//W3C//DTD SVG 1.1//EN" "http://www.w3.org/Graphics/SVG/1.1/DTD/svg11.dtd">
<svg width="100%" height="100%" viewBox="0 0 96 96" version="1.1" xmlns="http://www.w3.org/2000/svg" xmlns:xlink="http://www.w3.org/1999/xlink" xml:space="preserve" xmlns:serif="http://www.serif.com/" style="fill-rule:evenodd;clip-rule:evenodd;stroke-linejoin:round;stroke-miterlimit:2;">
    <g transform="matrix(1,0,0,1,-891.528,-965.55)">
        <g transform="matrix(2,0,0,2,-952.938,-710.212)">
            <path d="M970.033,861.781C970.033,848.581 959.333,837.881 946.133,837.881C932.933,837.881 922.233,848.581 922.233,861.781C922.233,874.981 932.933,885.631 946.133,885.631C959.333,885.631 970.033,874.981 970.033,861.781ZM967.983,861.781C967.983,873.831 958.183,883.581 946.133,883.581C934.083,883.581 924.283,873.831 924.283,861.781C924.283,849.731 934.083,839.931 946.133,839.931C958.183,839.931 967.983,849.731 967.983,861.781ZM931.533,861.331C931.483,861.481 931.483,861.631 931.483,861.781C931.483,862.781 932.333,863.481 932.883,863.481C933.183,863.481 933.733,862.881 934.083,862.381C935.233,861.081 936.683,860.231 938.433,860.231C941.483,860.231 943.483,862.681 943.483,866.731C943.483,870.531 941.683,874.081 937.283,874.081C934.733,874.081 933.183,872.231 931.933,870.131C931.883,869.931 931.733,869.831 931.633,869.831C931.133,869.831 930.583,870.881 930.583,871.781C930.583,873.131 933.833,876.231 937.283,876.231C943.083,876.231 945.433,871.731 945.433,866.681C945.433,861.281 942.383,858.181 938.783,858.181C936.533,858.181 934.983,858.981 933.583,860.381L934.433,850.781L941.133,850.281C942.083,850.181 943.083,850.131 943.733,850.131C943.983,850.131 944.083,849.881 944.083,849.581C944.083,848.931 943.583,847.931 943.133,847.931L943.033,847.931C942.483,848.081 941.483,848.131 940.883,848.181L934.483,848.581C934.033,848.381 933.533,848.181 933.183,848.181C932.883,848.181 932.733,848.281 932.733,848.581C932.733,849.081 932.683,849.781 932.633,850.331L931.833,859.981L931.533,861.331ZM948.583,875.731C950.383,875.281 952.233,875.281 953.883,875.281C958.183,875.281 959.183,875.331 961.283,875.531C961.533,875.531 961.683,875.331 961.683,875.031C961.683,874.331 961.133,873.231 960.583,873.231C960.183,873.231 959.033,873.281 958.433,873.281C957.033,873.281 955.933,873.231 954.233,873.231C952.933,873.231 950.983,873.331 949.733,873.481C950.883,870.831 952.983,866.881 955.983,863.731C959.133,860.431 961.383,857.631 961.383,853.981C961.383,850.181 959.033,847.431 955.283,847.431C951.783,847.431 949.383,849.431 948.033,852.331C947.883,852.531 947.833,852.781 947.833,853.031C947.833,853.431 948.083,853.881 948.583,854.381C948.783,854.581 948.933,854.631 949.083,854.631C949.433,854.631 949.733,854.231 949.883,853.681C950.633,851.331 952.483,849.481 955.183,849.481C957.783,849.481 959.283,851.531 959.283,853.981C959.283,856.581 957.533,859.031 954.683,862.081C951.833,865.181 949.433,869.431 948.133,872.281C947.933,872.681 947.733,872.981 947.433,873.431C947.333,873.581 947.283,873.781 947.283,874.031C947.283,874.831 947.833,875.731 948.483,875.731L948.583,875.731Z" style="fill-rule:nonzero;"/>
        </g>
    </g>
</svg>
