<?xml version="1.0" encoding="UTF-8" standalone="no"?>
<!DOCTYPE svg PUBLIC "-//W3C//DTD SVG 1.1//EN" "http://www.w3.org/Graphics/SVG/1.1/DTD/svg11.dtd">
<svg width="100%" height="100%" viewBox="0 0 96 96" version="1.1" xmlns="http://www.w3.org/2000/svg" xmlns:xlink="http://www.w3.org/1999/xlink" xml:space="preserve" xmlns:serif="http://www.serif.com/" style="fill-rule:evenodd;clip-rule:evenodd;stroke-linejoin:round;stroke-miterlimit:2;">
    <g transform="matrix(1,0,0,1,-391.528,-665.55)">
        <g transform="matrix(2,0,0,2,-952.938,-710.212)">
            <path d="M720.033,711.781C720.033,698.581 709.333,687.881 696.133,687.881C682.933,687.881 672.233,698.581 672.233,711.781C672.233,724.981 682.933,735.631 696.133,735.631C709.333,735.631 720.033,724.981 720.033,711.781ZM717.983,711.781C717.983,723.831 708.183,733.581 696.133,733.581C684.083,733.581 674.283,723.831 674.283,711.781C674.283,699.731 684.083,689.931 696.133,689.931C708.183,689.931 717.983,699.731 717.983,711.781ZM697.583,711.331C697.583,711.481 697.533,711.631 697.533,711.781C697.533,712.781 698.433,713.481 699.033,713.481C699.333,713.481 700.133,712.581 700.283,712.381C701.483,711.081 703.033,710.231 704.883,710.231C708.133,710.231 710.183,712.681 710.183,716.731C710.183,720.531 708.333,724.081 703.683,724.081C700.983,724.081 699.333,722.231 698.033,720.131C697.933,719.931 697.833,719.831 697.683,719.831C697.183,719.831 696.633,720.881 696.633,721.781C696.633,723.081 699.933,726.231 703.683,726.231C709.783,726.231 712.283,721.731 712.283,716.681C712.283,711.281 709.033,708.181 705.233,708.181C702.883,708.181 701.233,708.981 699.783,710.381L700.683,700.781L707.733,700.281C708.733,700.181 709.783,700.131 710.483,700.131C710.733,700.131 710.883,699.881 710.883,699.581C710.883,698.931 710.333,697.931 709.833,697.931L709.783,697.931C709.133,698.081 708.133,698.131 707.483,698.181L700.733,698.581C700.233,698.381 699.733,698.181 699.383,698.181C699.083,698.181 698.883,698.281 698.883,698.581C698.883,699.081 698.833,699.781 698.783,700.331L697.933,709.981L697.583,711.331ZM680.983,725.731C682.533,725.331 683.983,725.281 686.533,725.281C691.133,725.281 692.133,725.331 694.333,725.531C694.683,725.531 694.883,725.181 694.883,724.681C694.883,724.031 694.533,723.231 694.083,723.231C693.633,723.231 691.933,723.281 691.333,723.281C689.833,723.281 688.683,723.231 686.933,723.231C685.533,723.231 683.483,723.331 682.133,723.481C683.383,720.831 685.583,716.881 688.733,713.731C692.083,710.431 694.483,707.631 694.483,703.981C694.483,700.181 691.933,697.431 687.983,697.431C682.333,697.431 680.183,702.231 680.183,703.031C680.183,703.431 680.383,703.881 680.983,704.381C681.133,704.581 681.283,704.631 681.483,704.631C681.833,704.631 682.133,704.231 682.333,703.681C683.083,701.331 685.033,699.481 687.883,699.481C690.633,699.481 692.233,701.531 692.233,703.981C692.233,706.581 690.383,709.031 687.383,712.081C684.333,715.181 681.833,719.431 680.433,722.281C680.233,722.681 680.033,722.981 679.683,723.431C679.583,723.581 679.583,723.781 679.583,724.031C679.583,724.831 680.183,725.731 680.833,725.731L680.983,725.731Z" style="fill-rule:nonzero;"/>
        </g>
    </g>
</svg>
