<?xml version="1.0" encoding="UTF-8" standalone="no"?>
<!DOCTYPE svg PUBLIC "-//W3C//DTD SVG 1.1//EN" "http://www.w3.org/Graphics/SVG/1.1/DTD/svg11.dtd">
<svg width="100%" height="100%" viewBox="0 0 96 96" version="1.1" xmlns="http://www.w3.org/2000/svg" xmlns:xlink="http://www.w3.org/1999/xlink" xml:space="preserve" xmlns:serif="http://www.serif.com/" style="fill-rule:evenodd;clip-rule:evenodd;stroke-linejoin:round;stroke-miterlimit:2;">
    <g transform="matrix(1,0,0,1,-191.528,-1715.55)">
        <g transform="matrix(2,0,0,2,-952.938,-710.212)">
            <path d="M620.033,1236.78C620.033,1223.58 609.333,1212.88 596.133,1212.88C582.933,1212.88 572.233,1223.58 572.233,1236.78C572.233,1249.98 582.933,1260.63 596.133,1260.63C609.333,1260.63 620.033,1249.98 620.033,1236.78ZM617.983,1236.78C617.983,1248.83 608.183,1258.58 596.133,1258.58C584.083,1258.58 574.283,1248.83 574.283,1236.78C574.283,1224.73 584.083,1214.93 596.133,1214.93C608.183,1214.93 617.983,1224.73 617.983,1236.78ZM602.183,1225.33C600.883,1228.28 600.183,1233.03 600.183,1237.53C600.183,1245.58 601.933,1251.58 605.583,1251.58C609.433,1251.58 611.283,1244.58 611.283,1236.48C611.283,1228.53 609.533,1222.63 606.183,1222.63C604.933,1222.63 603.983,1223.58 603.183,1225.03C603.083,1224.88 602.983,1224.78 602.783,1224.78C602.533,1224.78 602.383,1224.98 602.183,1225.33ZM590.533,1225.03C590.433,1224.88 590.333,1224.78 590.083,1224.78C589.183,1224.78 587.583,1230.63 587.583,1237.53C587.583,1245.58 589.333,1251.58 592.883,1251.58C596.633,1251.58 598.483,1244.58 598.483,1236.48C598.483,1228.53 596.733,1222.63 593.483,1222.63C592.233,1222.63 591.333,1223.58 590.533,1225.03ZM583.183,1246.83C583.183,1247.68 583.083,1249.68 583.083,1250.33C583.083,1250.98 584.133,1251.43 584.833,1251.43C585.183,1251.43 585.483,1251.33 585.483,1250.98C585.433,1249.98 585.383,1247.68 585.383,1246.58L585.383,1226.83C585.383,1225.73 585.633,1225.03 585.633,1224.38C585.633,1223.63 584.783,1222.88 584.233,1222.88C583.783,1222.88 583.183,1223.58 582.883,1223.93C582.783,1224.08 582.683,1224.18 582.583,1224.23C581.483,1225.18 580.233,1226.13 578.433,1226.88C578.183,1227.03 578.033,1227.13 578.033,1227.33C578.033,1227.83 578.933,1228.28 579.533,1228.28C579.683,1228.28 579.833,1228.28 579.933,1228.23C581.183,1227.83 582.183,1227.28 583.183,1226.63L583.183,1246.83ZM605.533,1249.33C603.083,1249.33 602.333,1243.98 602.333,1237.48C602.333,1228.93 604.483,1224.78 606.083,1224.78C608.433,1224.78 609.133,1230.68 609.133,1236.18C609.133,1242.93 608.183,1249.33 605.533,1249.33ZM592.833,1249.33C590.433,1249.33 589.733,1243.98 589.733,1237.48C589.733,1228.93 591.783,1224.78 593.383,1224.78C595.633,1224.78 596.383,1230.68 596.383,1236.18C596.383,1242.93 595.433,1249.33 592.833,1249.33Z" style="fill-rule:nonzero;"/>
        </g>
    </g>
</svg>
