<?xml version="1.0" encoding="UTF-8" standalone="no"?>
<!DOCTYPE svg PUBLIC "-//W3C//DTD SVG 1.1//EN" "http://www.w3.org/Graphics/SVG/1.1/DTD/svg11.dtd">
<svg width="100%" height="100%" viewBox="0 0 96 96" version="1.1" xmlns="http://www.w3.org/2000/svg" xmlns:xlink="http://www.w3.org/1999/xlink" xml:space="preserve" xmlns:serif="http://www.serif.com/" style="fill-rule:evenodd;clip-rule:evenodd;stroke-linejoin:round;stroke-miterlimit:2;">
    <g transform="matrix(1,0,0,1,-591.528,-1115.55)">
        <g transform="matrix(2,0,0,2,-952.938,-710.212)">
            <path d="M820.033,936.781C820.033,923.581 809.333,912.881 796.133,912.881C782.933,912.881 772.233,923.581 772.233,936.781C772.233,949.981 782.933,960.631 796.133,960.631C809.333,960.631 820.033,949.981 820.033,936.781ZM817.983,936.781C817.983,948.831 808.183,958.581 796.133,958.581C784.083,958.581 774.283,948.831 774.283,936.781C774.283,924.731 784.083,914.931 796.133,914.931C808.183,914.931 817.983,924.731 817.983,936.781ZM801.183,924.831C801.133,924.731 801.083,924.681 800.983,924.631C800.933,924.581 800.783,924.531 800.683,924.531C799.683,924.531 797.583,930.181 797.583,937.231C797.583,945.331 799.783,951.231 804.383,951.231C809.233,951.231 811.583,944.331 811.583,936.181C811.583,928.231 809.333,922.381 805.183,922.381C803.583,922.381 802.183,923.331 801.183,924.831ZM786.883,923.681C785.533,926.031 784.083,928.981 782.483,932.531C780.883,936.181 780.083,939.531 780.083,942.881C780.083,947.481 783.283,951.231 787.583,951.231C792.283,951.231 795.133,947.131 795.133,941.781C795.133,936.981 792.333,933.431 788.183,933.431C785.883,933.431 783.983,934.631 782.833,936.531C785.133,931.131 786.283,928.331 789.383,924.081C789.483,923.881 789.733,923.531 789.733,923.281C789.733,923.081 789.483,922.381 788.283,922.381C787.883,922.381 787.583,922.531 787.383,922.881C787.283,923.081 786.983,923.581 786.883,923.681ZM804.283,949.131C800.733,949.131 799.483,943.631 799.483,937.181C799.483,928.631 802.633,924.381 805.083,924.381C808.483,924.381 809.683,930.431 809.683,935.881C809.683,942.631 808.183,949.131 804.283,949.131ZM787.583,949.231C784.333,949.231 782.033,946.431 782.033,942.831C782.033,938.881 784.433,935.481 788.133,935.481C791.233,935.481 793.133,938.481 793.133,941.881C793.133,946.181 790.783,949.231 787.583,949.231Z" style="fill-rule:nonzero;"/>
        </g>
    </g>
</svg>
