<?xml version="1.0" encoding="UTF-8" standalone="no"?>
<!DOCTYPE svg PUBLIC "-//W3C//DTD SVG 1.1//EN" "http://www.w3.org/Graphics/SVG/1.1/DTD/svg11.dtd">
<svg width="100%" height="100%" viewBox="0 0 96 96" version="1.1" xmlns="http://www.w3.org/2000/svg" xmlns:xlink="http://www.w3.org/1999/xlink" xml:space="preserve" xmlns:serif="http://www.serif.com/" style="fill-rule:evenodd;clip-rule:evenodd;stroke-linejoin:round;stroke-miterlimit:2;">
    <g transform="matrix(1,0,0,1,-191.528,-1415.55)">
        <g transform="matrix(2,0,0,2,-952.938,-710.212)">
            <path d="M620.033,1086.78C620.033,1073.58 609.333,1062.88 596.133,1062.88C582.933,1062.88 572.233,1073.58 572.233,1086.78C572.233,1099.98 582.933,1110.63 596.133,1110.63C609.333,1110.63 620.033,1099.98 620.033,1086.78ZM617.983,1086.78C617.983,1098.83 608.183,1108.58 596.133,1108.58C584.083,1108.58 574.283,1098.83 574.283,1086.78C574.283,1074.73 584.083,1064.93 596.133,1064.93C608.183,1064.93 617.983,1074.73 617.983,1086.78ZM605.333,1084.68C608.833,1081.98 611.833,1078.48 611.833,1077.58C611.833,1077.13 611.533,1076.83 611.183,1076.83C610.933,1076.83 610.683,1076.93 610.333,1077.28L610.183,1077.48C610.333,1077.23 610.383,1076.93 610.383,1076.73C610.383,1076.58 610.333,1076.43 610.333,1076.33C608.933,1074.23 606.933,1072.48 604.183,1072.48C599.833,1072.48 597.333,1075.58 597.333,1079.03C597.333,1081.63 598.233,1083.28 601.533,1085.08C598.183,1087.53 596.183,1090.23 596.183,1093.78C596.183,1097.98 598.933,1101.23 603.533,1101.23C608.633,1101.23 611.983,1098.08 611.983,1093.23C611.983,1089.43 609.983,1086.93 605.783,1084.88L605.333,1084.68ZM603.483,1086.03C607.183,1087.88 609.933,1089.28 609.933,1093.43C609.933,1096.83 607.233,1099.13 603.533,1099.13C599.883,1099.13 598.283,1096.38 598.283,1093.68C598.283,1090.83 600.183,1088.53 603.483,1086.03ZM594.733,1074.48C594.733,1073.78 593.783,1072.93 593.233,1072.83L593.133,1072.83C592.683,1072.83 592.183,1073.08 591.583,1073.13L581.583,1073.83L581.083,1073.83C580.483,1073.83 580.083,1073.78 579.683,1073.78C579.533,1073.78 579.483,1073.88 579.483,1074.03C579.483,1074.43 580.083,1076.03 581.333,1076.03C581.633,1076.03 582.033,1075.98 582.383,1075.93L592.033,1075.08C589.333,1081.43 585.883,1090.38 583.183,1099.23C583.133,1099.48 582.933,1099.83 582.933,1100.18C582.933,1100.48 583.133,1100.83 583.883,1100.93C584.083,1100.93 584.233,1100.98 584.383,1100.98C584.983,1100.98 585.333,1100.83 585.433,1100.38C586.083,1096.73 589.983,1085.28 593.833,1076.48C594.033,1075.98 594.633,1075.28 594.733,1074.63L594.733,1074.48ZM603.433,1083.68C600.333,1082.18 599.383,1081.08 599.383,1079.03C599.383,1076.73 600.983,1074.48 604.233,1074.48C606.283,1074.48 607.533,1075.73 608.583,1077.63C608.783,1078.03 609.033,1078.18 609.233,1078.18C609.333,1078.18 609.483,1078.18 609.533,1078.13C607.783,1080.08 605.783,1082.03 603.433,1083.68Z" style="fill-rule:nonzero;"/>
        </g>
    </g>
</svg>
