<?xml version="1.0" encoding="UTF-8" standalone="no"?>
<!DOCTYPE svg PUBLIC "-//W3C//DTD SVG 1.1//EN" "http://www.w3.org/Graphics/SVG/1.1/DTD/svg11.dtd">
<svg width="100%" height="100%" viewBox="0 0 96 96" version="1.1" xmlns="http://www.w3.org/2000/svg" xmlns:xlink="http://www.w3.org/1999/xlink" xml:space="preserve" xmlns:serif="http://www.serif.com/" style="fill-rule:evenodd;clip-rule:evenodd;stroke-linejoin:round;stroke-miterlimit:2;">
    <g transform="matrix(1,0,0,1,-591.528,-1265.55)">
        <g transform="matrix(2,0,0,2,-952.938,-710.212)">
            <path d="M820.033,1011.78C820.033,998.581 809.333,987.881 796.133,987.881C782.933,987.881 772.233,998.581 772.233,1011.78C772.233,1024.98 782.933,1035.63 796.133,1035.63C809.333,1035.63 820.033,1024.98 820.033,1011.78ZM817.983,1011.78C817.983,1023.83 808.183,1033.58 796.133,1033.58C784.083,1033.58 774.283,1023.83 774.283,1011.78C774.283,999.731 784.083,989.931 796.133,989.931C808.183,989.931 817.983,999.731 817.983,1011.78ZM784.733,1024.23C784.683,1024.48 784.533,1024.83 784.533,1025.18C784.533,1025.48 784.683,1025.83 785.433,1025.93C785.633,1025.93 785.833,1025.98 785.933,1025.98C786.533,1025.98 786.883,1025.83 786.983,1025.38C788.333,1019.03 792.433,1008.18 795.383,1001.48C795.633,1000.98 796.183,1000.28 796.283,999.631L796.283,999.481C796.283,998.781 795.333,997.931 794.783,997.831L794.683,997.831C794.233,997.831 793.733,998.081 793.183,998.131L783.183,998.831L782.633,998.831C782.033,998.831 781.683,998.781 781.233,998.781C781.133,998.781 781.083,998.881 781.083,999.031C781.083,999.381 781.383,1000.13 781.883,1000.68C782.233,1000.98 782.533,1001.03 782.883,1001.03C783.183,1001.03 783.583,1000.98 783.933,1000.93L793.583,1000.08C790.583,1007.13 787.783,1014.73 785.683,1021.33L784.733,1024.23ZM805.833,1021.53C805.833,1022.38 805.733,1024.38 805.733,1025.03C805.733,1025.63 806.783,1026.08 807.483,1026.08C807.833,1026.08 808.133,1025.98 808.133,1025.68C808.083,1024.68 808.033,1022.38 808.033,1021.28L808.033,1001.53C808.033,1000.43 808.233,999.731 808.233,999.081C808.233,998.381 807.433,997.631 806.833,997.631C806.283,997.631 805.533,998.781 805.233,998.981C804.083,999.931 802.283,1000.98 800.433,1001.73C800.133,1001.83 800.083,1001.98 800.083,1002.13C800.083,1002.58 800.883,1003.03 801.533,1003.03C801.683,1003.03 801.833,1003.03 801.933,1002.98C803.233,1002.58 804.783,1001.93 805.833,1001.23L805.833,1021.53Z" style="fill-rule:nonzero;"/>
        </g>
    </g>
</svg>
