<?xml version="1.0" encoding="UTF-8" standalone="no"?>
<!DOCTYPE svg PUBLIC "-//W3C//DTD SVG 1.1//EN" "http://www.w3.org/Graphics/SVG/1.1/DTD/svg11.dtd">
<svg width="100%" height="100%" viewBox="0 0 96 96" version="1.1" xmlns="http://www.w3.org/2000/svg" xmlns:xlink="http://www.w3.org/1999/xlink" xml:space="preserve" xmlns:serif="http://www.serif.com/" style="fill-rule:evenodd;clip-rule:evenodd;stroke-linejoin:round;stroke-miterlimit:2;">
    <g transform="matrix(1,0,0,1,-691.528,-815.55)">
        <g transform="matrix(2,0,0,2,-952.938,-710.212)">
            <path d="M870.033,786.781C870.033,773.581 859.333,762.881 846.133,762.881C832.933,762.881 822.233,773.581 822.233,786.781C822.233,799.981 832.933,810.631 846.133,810.631C859.333,810.631 870.033,799.981 870.033,786.781ZM867.983,786.781C867.983,798.831 858.183,808.581 846.133,808.581C834.083,808.581 824.283,798.831 824.283,786.781C824.283,774.731 834.083,764.931 846.133,764.931C858.183,764.931 867.983,774.731 867.983,786.781ZM856.483,801.031C857.333,800.981 857.833,800.731 857.883,800.231C858.233,796.131 860.633,780.281 862.083,775.031L862.083,774.881C862.083,774.281 861.383,773.531 860.633,773.531C859.933,773.531 860.133,774.781 859.833,775.831C859.383,774.731 857.783,772.431 854.483,772.431C849.783,772.431 846.233,777.731 846.233,783.081C846.233,787.581 848.433,790.181 851.583,790.181C854.083,790.181 856.683,788.331 858.133,785.581L856.383,796.381C856.283,797.081 856.033,798.281 855.833,799.431C855.783,799.781 855.683,800.131 855.683,800.381C855.683,800.781 855.833,801.031 856.433,801.031L856.483,801.031ZM838.633,785.181C841.533,784.281 843.683,781.831 843.683,778.481C843.683,774.681 841.283,772.431 837.633,772.431C834.783,772.431 832.583,773.731 830.783,775.931C830.633,776.181 830.533,776.381 830.533,776.731C830.533,777.131 830.633,777.581 831.033,778.131C831.233,778.331 831.333,778.381 831.533,778.381C831.833,778.381 832.133,777.931 832.233,777.781C833.933,775.531 835.633,774.481 837.683,774.481C840.233,774.481 841.733,776.081 841.733,778.731C841.733,782.281 837.483,784.531 834.183,784.781C833.933,784.831 833.833,785.081 833.833,785.381C833.833,785.981 834.283,786.931 834.883,786.931C834.933,786.931 834.983,786.881 835.083,786.881C835.433,786.781 836.183,786.631 836.833,786.581C837.133,786.531 837.383,786.531 837.633,786.531C840.583,786.531 842.733,788.781 842.733,792.031C842.733,795.631 840.933,799.131 836.383,799.131C834.033,799.131 832.583,797.781 831.133,795.681C831.033,795.531 830.933,795.431 830.783,795.431C830.283,795.431 829.833,796.481 829.833,797.281C829.833,797.631 829.883,797.881 830.033,798.031C831.833,800.131 833.883,801.231 836.383,801.231C842.333,801.231 844.733,796.981 844.733,791.981C844.733,787.781 842.083,785.181 839.033,785.181L838.633,785.181ZM859.583,777.631C858.883,780.731 858.733,781.331 858.233,782.331C856.433,785.781 854.583,788.031 851.583,788.031C849.333,788.031 848.233,786.281 848.233,782.931C848.233,779.281 850.533,774.481 854.683,774.481C857.083,774.481 858.133,776.381 858.583,777.481C858.683,777.831 858.833,777.981 859.083,777.981C859.233,777.981 859.383,777.831 859.583,777.631Z" style="fill-rule:nonzero;"/>
        </g>
    </g>
</svg>
