<?xml version="1.0" encoding="UTF-8" standalone="no"?>
<!DOCTYPE svg PUBLIC "-//W3C//DTD SVG 1.1//EN" "http://www.w3.org/Graphics/SVG/1.1/DTD/svg11.dtd">
<svg width="100%" height="100%" viewBox="0 0 96 96" version="1.1" xmlns="http://www.w3.org/2000/svg" xmlns:xlink="http://www.w3.org/1999/xlink" xml:space="preserve" xmlns:serif="http://www.serif.com/" style="fill-rule:evenodd;clip-rule:evenodd;stroke-linejoin:round;stroke-miterlimit:2;">
    <g transform="matrix(1,0,0,1,-91.5285,-1415.55)">
        <g transform="matrix(2,0,0,2,-952.938,-710.212)">
            <path d="M570.033,1086.78C570.033,1073.58 559.333,1062.88 546.133,1062.88C532.933,1062.88 522.233,1073.58 522.233,1086.78C522.233,1099.98 532.933,1110.63 546.133,1110.63C559.333,1110.63 570.033,1099.98 570.033,1086.78ZM567.983,1086.78C567.983,1098.83 558.183,1108.58 546.133,1108.58C534.083,1108.58 524.283,1098.83 524.283,1086.78C524.283,1074.73 534.083,1064.93 546.133,1064.93C558.183,1064.93 567.983,1074.73 567.983,1086.78ZM545.233,1074.48C545.233,1073.78 544.283,1072.93 543.733,1072.83L543.633,1072.83C543.183,1072.83 542.633,1073.08 542.083,1073.13L532.083,1073.83L531.583,1073.83C530.983,1073.83 530.583,1073.78 530.183,1073.78C530.033,1073.78 529.983,1073.88 529.983,1074.03C529.983,1074.53 530.633,1076.03 531.783,1076.03C532.133,1076.03 532.483,1075.98 532.883,1075.93L542.533,1075.08C538.433,1084.68 535.483,1093.28 533.683,1099.23C533.633,1099.48 533.433,1099.83 533.433,1100.18C533.433,1100.48 533.633,1100.83 534.383,1100.93C534.533,1100.93 534.733,1100.98 534.883,1100.98C535.483,1100.98 535.833,1100.83 535.883,1100.38C537.133,1094.58 541.883,1082.08 544.333,1076.48C544.533,1075.98 545.133,1075.28 545.233,1074.63L545.233,1074.48ZM562.533,1074.48C562.533,1073.78 561.583,1072.93 561.033,1072.83L560.933,1072.83C560.483,1072.83 559.983,1073.08 559.433,1073.13L549.383,1073.83L548.883,1073.83C548.283,1073.83 547.933,1073.78 547.483,1073.78C547.333,1073.78 547.283,1073.88 547.283,1074.03C547.283,1074.43 547.883,1076.03 549.133,1076.03C549.433,1076.03 549.833,1075.98 550.183,1075.93L559.833,1075.08C556.533,1082.88 552.433,1094.53 550.983,1099.23C550.933,1099.48 550.733,1099.83 550.733,1100.18C550.733,1100.48 550.933,1100.83 551.683,1100.93C551.883,1100.93 552.033,1100.98 552.183,1100.98C552.783,1100.98 553.133,1100.83 553.233,1100.38C553.883,1096.73 557.783,1085.28 561.633,1076.48C561.883,1075.98 562.433,1075.28 562.533,1074.63L562.533,1074.48Z" style="fill-rule:nonzero;"/>
        </g>
    </g>
</svg>
