<?xml version="1.0" encoding="UTF-8" standalone="no"?>
<!DOCTYPE svg PUBLIC "-//W3C//DTD SVG 1.1//EN" "http://www.w3.org/Graphics/SVG/1.1/DTD/svg11.dtd">
<svg width="100%" height="100%" viewBox="0 0 96 96" version="1.1" xmlns="http://www.w3.org/2000/svg" xmlns:xlink="http://www.w3.org/1999/xlink" xml:space="preserve" xmlns:serif="http://www.serif.com/" style="fill-rule:evenodd;clip-rule:evenodd;stroke-linejoin:round;stroke-miterlimit:2;">
    <g transform="matrix(1,0,0,1,-709.628,-2573.28)">
        <g transform="matrix(1,0,0,1,-110.019,-3591.86)">
            <path d="M915.248,6212.94C915.248,6186.55 893.848,6165.15 867.448,6165.15C841.048,6165.15 819.648,6186.55 819.648,6212.94C819.648,6239.35 841.048,6260.65 867.448,6260.65C893.848,6260.65 915.248,6239.35 915.248,6212.94ZM911.148,6212.94C911.148,6237.05 891.548,6256.55 867.448,6256.55C843.348,6256.55 823.748,6237.05 823.748,6212.94C823.748,6188.85 843.348,6169.24 867.448,6169.24C891.548,6169.24 911.148,6188.85 911.148,6212.94ZM866.748,6228.55L856.548,6199.94C855.948,6198.15 855.148,6195.94 854.848,6194.65C854.648,6193.85 853.348,6193.55 852.148,6193.55C850.648,6193.55 849.248,6193.94 849.248,6194.85C849.248,6194.94 849.248,6195.05 849.348,6195.24C850.348,6197.35 851.248,6199.24 851.948,6201.15L862.848,6230.24C863.748,6232.44 863.748,6233.15 864.648,6234.15C865.348,6234.85 866.548,6235.55 867.648,6235.55C868.448,6235.55 869.248,6235.15 869.648,6233.74C870.148,6232.05 870.848,6230.24 871.548,6228.65L883.048,6201.35C883.648,6199.94 884.948,6197.35 885.748,6195.85C885.848,6195.65 885.948,6195.44 885.948,6195.35C885.948,6194.15 883.848,6193.15 882.248,6193.15C881.448,6193.15 880.848,6193.35 880.648,6193.94C880.048,6196.05 879.348,6198.05 878.548,6199.94L866.748,6228.55Z" style="fill-rule:nonzero;"/>
        </g>
    </g>
</svg>
