<?xml version="1.0" encoding="UTF-8" standalone="no"?>
<!DOCTYPE svg PUBLIC "-//W3C//DTD SVG 1.1//EN" "http://www.w3.org/Graphics/SVG/1.1/DTD/svg11.dtd">
<svg width="100%" height="100%" viewBox="0 0 96 96" version="1.1" xmlns="http://www.w3.org/2000/svg" xmlns:xlink="http://www.w3.org/1999/xlink" xml:space="preserve" xmlns:serif="http://www.serif.com/" style="fill-rule:evenodd;clip-rule:evenodd;stroke-linejoin:round;stroke-miterlimit:2;">
    <g transform="matrix(1,0,0,1,-791.528,-665.55)">
        <g transform="matrix(2,0,0,2,-952.938,-710.212)">
            <path d="M920.033,711.781C920.033,698.581 909.333,687.881 896.133,687.881C882.933,687.881 872.233,698.581 872.233,711.781C872.233,724.981 882.933,735.631 896.133,735.631C909.333,735.631 920.033,724.981 920.033,711.781ZM917.983,711.781C917.983,723.831 908.183,733.581 896.133,733.581C884.083,733.581 874.283,723.831 874.283,711.781C874.283,699.731 884.083,689.931 896.133,689.931C908.183,689.931 917.983,699.731 917.983,711.781ZM880.783,725.731C881.733,725.481 883.533,725.231 886.083,725.231C889.633,725.231 892.983,725.481 893.483,725.531C893.733,725.531 893.883,725.331 893.883,725.031C893.883,724.331 893.333,723.231 892.783,723.231C892.383,723.231 891.233,723.281 890.633,723.281C889.233,723.281 888.133,723.231 886.433,723.231C885.133,723.231 883.183,723.331 881.883,723.481C883.083,720.831 885.133,716.881 888.183,713.731C891.333,710.431 893.583,707.631 893.583,703.981C893.583,700.181 891.233,697.431 887.433,697.431C882.033,697.431 880.033,702.381 880.033,703.031C880.033,703.431 880.233,703.881 880.783,704.381C880.933,704.581 881.083,704.631 881.283,704.631C881.633,704.631 881.883,704.231 882.083,703.681C882.833,701.331 884.683,699.481 887.383,699.481C889.983,699.481 891.483,701.531 891.483,703.981C891.483,706.581 889.733,709.031 886.883,712.081C883.983,715.181 881.633,719.431 880.283,722.281C880.133,722.631 879.883,722.981 879.583,723.431C879.483,723.581 879.433,723.781 879.433,724.031C879.433,724.831 880.033,725.731 880.633,725.731L880.783,725.731ZM906.683,726.031C907.583,725.981 908.083,725.731 908.133,725.181C908.633,719.631 910.933,707.281 912.133,701.481C912.183,701.231 912.433,700.581 912.583,700.031L912.583,699.881C912.583,699.281 911.883,698.531 911.083,698.531C910.333,698.531 910.483,699.781 910.233,700.831C909.733,699.731 908.033,697.431 904.583,697.431C899.633,697.431 895.833,702.731 895.833,708.081C895.833,712.581 898.133,715.181 901.533,715.181C904.133,715.181 906.883,713.331 908.433,710.531C907.783,714.131 907.033,718.281 906.533,721.381C906.433,722.081 906.183,723.281 905.983,724.431C905.933,724.781 905.783,725.131 905.783,725.381C905.783,725.781 905.983,726.031 906.583,726.031L906.683,726.031ZM909.533,704.531C909.233,705.431 908.883,706.631 908.483,707.331C906.633,710.781 904.633,712.981 901.483,712.981C899.133,712.981 897.933,711.281 897.933,707.931C897.933,704.281 900.383,699.481 904.733,699.481C907.283,699.481 908.383,701.381 908.833,702.481C908.983,702.831 909.183,702.981 909.383,702.981C909.583,702.981 909.733,702.831 909.933,702.631C909.783,703.231 909.633,703.881 909.533,704.531Z" style="fill-rule:nonzero;"/>
        </g>
    </g>
</svg>
