<?xml version="1.0" encoding="UTF-8" standalone="no"?>
<!DOCTYPE svg PUBLIC "-//W3C//DTD SVG 1.1//EN" "http://www.w3.org/Graphics/SVG/1.1/DTD/svg11.dtd">
<svg width="100%" height="100%" viewBox="0 0 96 96" version="1.1" xmlns="http://www.w3.org/2000/svg" xmlns:xlink="http://www.w3.org/1999/xlink" xml:space="preserve" xmlns:serif="http://www.serif.com/" style="fill-rule:evenodd;clip-rule:evenodd;stroke-linejoin:round;stroke-miterlimit:2;">
    <g transform="matrix(1,0,0,1,-791.528,-1115.55)">
        <g transform="matrix(2,0,0,2,-952.938,-710.212)">
            <path d="M920.033,936.781C920.033,923.581 909.333,912.881 896.133,912.881C882.933,912.881 872.233,923.581 872.233,936.781C872.233,949.981 882.933,960.631 896.133,960.631C909.333,960.631 920.033,949.981 920.033,936.781ZM917.983,936.781C917.983,948.831 908.183,958.581 896.133,958.581C884.083,958.581 874.283,948.831 874.283,936.781C874.283,924.731 884.083,914.931 896.133,914.931C908.183,914.931 917.983,924.731 917.983,936.781ZM898.833,950.731C900.483,950.281 902.433,950.281 904.133,950.281C907.233,950.281 908.983,950.281 911.483,950.531C911.733,950.531 911.883,950.331 911.883,950.031C911.883,949.331 911.333,948.231 910.833,948.231C910.383,948.231 909.233,948.281 908.683,948.281C907.233,948.281 906.133,948.231 904.483,948.231C903.133,948.231 901.233,948.331 899.933,948.481C901.133,945.831 903.183,941.881 906.183,938.731C909.383,935.431 911.633,932.631 911.633,928.981C911.633,925.181 909.233,922.431 905.483,922.431C900.383,922.431 898.083,927.031 898.083,928.031C898.083,928.431 898.283,928.881 898.833,929.381C898.983,929.581 899.133,929.631 899.333,929.631C899.683,929.631 899.933,929.231 900.083,928.681C900.883,926.331 902.683,924.481 905.383,924.481C907.983,924.481 909.483,926.531 909.483,928.981C909.483,931.581 907.733,934.031 904.933,937.081C902.033,940.181 899.683,944.431 898.333,947.281C898.183,947.681 897.933,947.981 897.633,948.431C897.533,948.581 897.483,948.781 897.483,949.031C897.483,949.831 898.083,950.731 898.683,950.731L898.833,950.731ZM888.133,922.881C886.483,925.081 883.483,931.981 883.233,932.531C881.583,936.181 880.783,939.531 880.783,942.881C880.783,947.481 884.033,951.231 888.333,951.231C893.033,951.231 895.883,947.131 895.883,941.781C895.883,936.981 893.083,933.431 888.933,933.431C886.633,933.431 884.733,934.631 883.533,936.531C885.533,931.831 887.533,927.581 890.083,924.081C890.233,923.881 890.483,923.531 890.483,923.281C890.483,922.931 889.833,922.381 888.983,922.381C888.633,922.381 888.283,922.531 888.133,922.881ZM888.333,949.231C885.083,949.231 882.783,946.431 882.783,942.831C882.783,938.881 885.133,935.481 888.883,935.481C891.983,935.481 893.883,938.481 893.883,941.881C893.883,946.181 891.533,949.231 888.333,949.231Z" style="fill-rule:nonzero;"/>
        </g>
    </g>
</svg>
