<?xml version="1.0" encoding="UTF-8" standalone="no"?>
<!DOCTYPE svg PUBLIC "-//W3C//DTD SVG 1.1//EN" "http://www.w3.org/Graphics/SVG/1.1/DTD/svg11.dtd">
<svg width="100%" height="100%" viewBox="0 0 96 96" version="1.1" xmlns="http://www.w3.org/2000/svg" xmlns:xlink="http://www.w3.org/1999/xlink" xml:space="preserve" xmlns:serif="http://www.serif.com/" style="fill-rule:evenodd;clip-rule:evenodd;stroke-linejoin:round;stroke-miterlimit:2;">
    <g transform="matrix(1,0,0,1,-491.528,-1415.55)">
        <g transform="matrix(2,0,0,2,-952.938,-710.212)">
            <path d="M770.033,1086.78C770.033,1073.58 759.333,1062.88 746.133,1062.88C732.933,1062.88 722.233,1073.58 722.233,1086.78C722.233,1099.98 732.933,1110.63 746.133,1110.63C759.333,1110.63 770.033,1099.98 770.033,1086.78ZM767.983,1086.78C767.983,1098.83 758.183,1108.58 746.133,1108.58C734.083,1108.58 724.283,1098.83 724.283,1086.78C724.283,1074.73 734.083,1064.93 746.133,1064.93C758.183,1064.93 767.983,1074.73 767.983,1086.78ZM741.233,1084.68C744.083,1082.53 747.733,1078.63 747.733,1077.58C747.733,1077.13 747.483,1076.83 747.133,1076.83C746.883,1076.83 746.583,1076.93 746.283,1077.28L746.133,1077.48C746.233,1077.23 746.333,1076.93 746.333,1076.73C746.333,1076.58 746.283,1076.43 746.233,1076.33C744.883,1074.23 742.883,1072.48 740.083,1072.48C735.783,1072.48 733.233,1075.58 733.233,1079.03C733.233,1081.63 734.183,1083.28 737.433,1085.08C734.133,1087.53 732.133,1090.23 732.133,1093.78C732.133,1097.98 734.883,1101.23 739.483,1101.23C744.583,1101.23 747.933,1098.08 747.933,1093.23C747.933,1089.43 745.933,1086.93 741.683,1084.88L741.233,1084.68ZM740.283,1086.43C744.533,1088.48 745.833,1090.53 745.833,1093.43C745.833,1096.83 743.133,1099.13 739.483,1099.13C735.783,1099.13 734.233,1096.38 734.233,1093.68C734.233,1090.83 736.133,1088.53 739.383,1086.03C739.583,1086.13 739.983,1086.33 740.283,1086.43ZM758.433,1100.68C758.433,1099.68 758.383,1097.38 758.383,1096.28L758.383,1076.53C758.383,1075.43 758.583,1074.73 758.583,1074.08C758.583,1073.38 757.783,1072.63 757.233,1072.63C756.733,1072.63 755.983,1073.78 755.683,1073.98C754.633,1074.93 752.933,1075.98 751.133,1076.73C750.883,1076.83 750.783,1076.98 750.783,1077.13C750.783,1077.58 751.583,1078.03 752.233,1078.03C752.333,1078.03 752.483,1078.03 752.583,1077.98C753.783,1077.58 755.283,1076.93 756.283,1076.23L756.283,1096.53C756.283,1097.38 756.183,1099.38 756.183,1100.03C756.183,1100.63 757.183,1101.08 757.883,1101.08C758.183,1101.08 758.433,1100.98 758.433,1100.73L758.433,1100.68ZM745.533,1078.08C743.783,1080.03 741.733,1082.03 739.333,1083.68C736.233,1082.18 735.333,1081.08 735.333,1079.03C735.333,1076.73 736.933,1074.48 740.133,1074.48C742.233,1074.48 743.433,1075.73 744.533,1077.63C744.733,1078.03 744.983,1078.18 745.183,1078.18C745.333,1078.18 745.433,1078.13 745.533,1078.08Z" style="fill-rule:nonzero;"/>
        </g>
    </g>
</svg>
