<?xml version="1.0" encoding="UTF-8" standalone="no"?>
<!DOCTYPE svg PUBLIC "-//W3C//DTD SVG 1.1//EN" "http://www.w3.org/Graphics/SVG/1.1/DTD/svg11.dtd">
<svg width="100%" height="100%" viewBox="0 0 96 96" version="1.1" xmlns="http://www.w3.org/2000/svg" xmlns:xlink="http://www.w3.org/1999/xlink" xml:space="preserve" xmlns:serif="http://www.serif.com/" style="fill-rule:evenodd;clip-rule:evenodd;stroke-linejoin:round;stroke-miterlimit:2;">
    <g transform="matrix(1,0,0,1,-91.5285,-365.55)">
        <g transform="matrix(2,0,0,2,-952.938,-710.212)">
            <path d="M570.033,561.781C570.033,548.581 559.333,537.881 546.133,537.881C532.933,537.881 522.233,548.581 522.233,561.781C522.233,574.981 532.933,585.631 546.133,585.631C559.333,585.631 570.033,574.981 570.033,561.781ZM567.983,561.781C567.983,573.831 558.183,583.581 546.133,583.581C534.083,583.581 524.283,573.831 524.283,561.781C524.283,549.731 534.083,539.931 546.133,539.931C558.183,539.931 567.983,549.731 567.983,561.781ZM545.783,571.731C545.783,572.581 545.683,574.631 545.683,575.281C545.683,575.931 546.783,576.381 547.583,576.381C547.933,576.381 548.233,576.281 548.233,575.981C548.183,574.931 548.133,572.581 548.133,571.481L548.133,551.681C548.133,550.531 548.383,549.481 548.383,548.831C548.383,548.081 547.483,547.331 546.883,547.331C546.283,547.331 545.483,548.481 545.133,548.731C543.883,549.781 541.483,551.081 539.433,551.881C539.133,551.981 539.033,552.131 539.033,552.281C539.033,552.681 539.933,553.181 540.683,553.181C540.833,553.181 540.933,553.181 541.033,553.131C542.333,552.781 544.533,551.831 545.783,551.031L545.783,571.731Z" style="fill-rule:nonzero;"/>
        </g>
    </g>
</svg>
