<?xml version="1.0" encoding="UTF-8" standalone="no"?>
<!DOCTYPE svg PUBLIC "-//W3C//DTD SVG 1.1//EN" "http://www.w3.org/Graphics/SVG/1.1/DTD/svg11.dtd">
<svg width="100%" height="100%" viewBox="0 0 96 96" version="1.1" xmlns="http://www.w3.org/2000/svg" xmlns:xlink="http://www.w3.org/1999/xlink" xml:space="preserve" xmlns:serif="http://www.serif.com/" style="fill-rule:evenodd;clip-rule:evenodd;stroke-linejoin:round;stroke-miterlimit:2;">
    <g transform="matrix(1,0,0,1,-491.528,-965.55)">
        <g transform="matrix(2,0,0,2,-952.938,-710.212)">
            <path d="M770.033,861.781C770.033,848.581 759.333,837.881 746.133,837.881C732.933,837.881 722.233,848.581 722.233,861.781C722.233,874.981 732.933,885.631 746.133,885.631C759.333,885.631 770.033,874.981 770.033,861.781ZM767.983,861.781C767.983,873.831 758.183,883.581 746.133,883.581C734.083,883.581 724.283,873.831 724.283,861.781C724.283,849.731 734.083,839.931 746.133,839.931C758.183,839.931 767.983,849.731 767.983,861.781ZM755.433,859.681C758.583,857.181 761.583,853.681 761.583,852.581C761.583,852.131 761.333,851.831 761.033,851.831C760.783,851.831 760.483,851.931 760.233,852.281L760.033,852.481C760.183,852.231 760.233,851.931 760.233,851.731C760.233,851.581 760.233,851.431 760.183,851.331C758.883,849.231 756.983,847.481 754.333,847.481C750.233,847.481 747.833,850.581 747.833,854.031C747.833,856.631 748.733,858.281 751.833,860.081C748.683,862.531 746.833,865.231 746.833,868.781C746.833,872.981 749.383,876.231 753.783,876.231C758.583,876.231 761.783,873.081 761.783,868.231C761.783,864.431 759.883,861.931 755.833,859.881L755.433,859.681ZM742.133,869.231C743.033,869.231 744.333,869.331 744.783,869.331C745.033,869.331 745.083,869.081 745.083,868.781C745.083,868.081 744.583,866.981 744.033,866.981C743.633,866.981 742.683,867.181 742.083,867.231L741.483,867.281L741.483,859.081C741.483,858.131 741.583,856.181 741.583,855.581C741.583,854.881 740.683,854.431 740.033,854.431C739.683,854.431 739.433,854.581 739.433,854.831C739.433,855.731 739.533,858.281 739.533,859.081L739.533,867.381L731.583,867.581C733.983,862.881 736.983,856.481 738.883,852.131C739.183,851.481 739.683,850.581 740.083,849.931C740.183,849.831 740.183,849.681 740.183,849.531C740.183,848.681 739.183,847.531 738.633,847.531C738.483,847.531 738.383,847.581 738.333,847.781C737.283,850.531 735.433,855.581 730.433,865.481C730.183,865.981 729.683,866.581 729.333,867.281C729.133,867.531 729.083,867.831 729.083,868.031C729.083,868.981 729.883,869.881 730.583,869.881C730.633,869.881 730.683,869.831 730.783,869.831C731.283,869.681 731.783,869.581 732.033,869.581L739.533,869.331L739.533,871.481C739.533,872.081 739.433,874.331 739.433,874.981C739.433,875.631 740.433,876.081 741.083,876.081C741.433,876.081 741.683,875.931 741.683,875.681C741.683,874.781 741.483,873.181 741.483,871.581L741.483,869.231L742.133,869.231ZM754.533,861.431C758.533,863.481 759.783,865.531 759.783,868.431C759.783,871.831 757.233,874.131 753.783,874.131C750.283,874.131 748.783,871.381 748.783,868.681C748.783,865.831 750.583,863.531 753.683,861.031L754.533,861.431ZM753.633,858.681C750.683,857.181 749.833,856.081 749.833,854.031C749.833,851.731 751.333,849.481 754.383,849.481C756.383,849.481 757.533,850.731 758.533,852.631C758.733,853.031 758.933,853.181 759.183,853.181C759.233,853.181 759.383,853.181 759.433,853.131C757.783,855.081 755.883,857.031 753.633,858.681Z" style="fill-rule:nonzero;"/>
        </g>
    </g>
</svg>
