<?xml version="1.0" encoding="UTF-8" standalone="no"?>
<!DOCTYPE svg PUBLIC "-//W3C//DTD SVG 1.1//EN" "http://www.w3.org/Graphics/SVG/1.1/DTD/svg11.dtd">
<svg width="100%" height="100%" viewBox="0 0 96 96" version="1.1" xmlns="http://www.w3.org/2000/svg" xmlns:xlink="http://www.w3.org/1999/xlink" xml:space="preserve" xmlns:serif="http://www.serif.com/" style="fill-rule:evenodd;clip-rule:evenodd;stroke-linejoin:round;stroke-miterlimit:2;">
    <g transform="matrix(1,0,0,1,-391.528,-515.55)">
        <g transform="matrix(2,0,0,2,-952.938,-710.212)">
            <path d="M720.033,636.781C720.033,623.581 709.333,612.881 696.133,612.881C682.933,612.881 672.233,623.581 672.233,636.781C672.233,649.981 682.933,660.631 696.133,660.631C709.333,660.631 720.033,649.981 720.033,636.781ZM717.983,636.781C717.983,648.831 708.183,658.581 696.133,658.581C684.083,658.581 674.283,648.831 674.283,636.781C674.283,624.731 684.083,614.931 696.133,614.931C708.183,614.931 717.983,624.731 717.983,636.781ZM687.383,650.681C687.383,649.681 687.333,647.381 687.333,646.281L687.333,626.531C687.333,625.431 687.533,624.731 687.533,624.081C687.533,623.381 686.733,622.631 686.183,622.631C685.683,622.631 684.933,623.781 684.633,623.981C683.583,624.931 681.883,625.981 680.083,626.731C679.833,626.831 679.733,626.981 679.733,627.131C679.733,627.581 680.533,628.031 681.183,628.031C681.283,628.031 681.433,628.031 681.533,627.981C682.733,627.581 684.233,626.931 685.233,626.231L685.233,646.531C685.233,647.381 685.133,649.381 685.133,650.031C685.133,650.631 686.133,651.081 686.833,651.081C687.133,651.081 687.383,650.981 687.383,650.731L687.383,650.681ZM705.533,625.131C706.583,625.031 707.633,625.031 708.283,624.981C708.583,624.981 708.683,624.731 708.683,624.431C708.683,623.781 708.183,622.781 707.683,622.781L707.583,622.781C706.983,622.931 705.933,622.981 705.283,623.031L698.133,623.581C697.633,623.381 697.133,623.181 696.733,623.181C696.433,623.181 696.283,623.281 696.283,623.581C696.283,624.081 696.233,624.781 696.183,625.331L694.833,634.981C694.783,635.331 694.683,635.781 694.533,636.331C694.483,636.481 694.483,636.631 694.483,636.781C694.483,637.781 695.383,638.481 695.983,638.481C696.283,638.481 697.083,637.581 697.233,637.381C698.433,636.081 700.183,635.231 702.083,635.231C705.283,635.231 707.583,637.681 707.583,641.731C707.583,645.531 705.533,649.081 700.833,649.081C698.183,649.081 696.283,647.231 694.983,645.131C694.883,644.931 694.783,644.831 694.633,644.831C694.133,644.831 693.583,645.881 693.583,646.781C693.583,648.181 697.083,651.231 700.833,651.231C707.083,651.231 709.683,646.731 709.683,641.681C709.683,636.281 706.233,633.181 702.433,633.181C700.033,633.181 698.183,633.981 696.733,635.381L698.083,625.781L705.533,625.131Z" style="fill-rule:nonzero;"/>
        </g>
    </g>
</svg>
