<?xml version="1.0" encoding="UTF-8" standalone="no"?>
<!DOCTYPE svg PUBLIC "-//W3C//DTD SVG 1.1//EN" "http://www.w3.org/Graphics/SVG/1.1/DTD/svg11.dtd">
<svg width="100%" height="100%" viewBox="0 0 96 96" version="1.1" xmlns="http://www.w3.org/2000/svg" xmlns:xlink="http://www.w3.org/1999/xlink" xml:space="preserve" xmlns:serif="http://www.serif.com/" style="fill-rule:evenodd;clip-rule:evenodd;stroke-linejoin:round;stroke-miterlimit:2;">
    <g transform="matrix(1,0,0,1,-1309.63,-2423.28)">
        <g transform="matrix(1,0,0,1,-110.019,-3591.86)">
            <path d="M1515.25,6062.94C1515.25,6036.55 1493.85,6015.15 1467.45,6015.15C1441.05,6015.15 1419.65,6036.55 1419.65,6062.94C1419.65,6089.35 1441.05,6110.65 1467.45,6110.65C1493.85,6110.65 1515.25,6089.35 1515.25,6062.94ZM1511.15,6062.94C1511.15,6087.05 1491.55,6106.55 1467.45,6106.55C1443.35,6106.55 1423.75,6087.05 1423.75,6062.94C1423.75,6038.85 1443.35,6019.24 1467.45,6019.24C1491.55,6019.24 1511.15,6038.85 1511.15,6062.94ZM1489.95,6074.44C1489.95,6076.44 1489.75,6080.55 1489.75,6081.94C1489.75,6083.24 1491.95,6084.24 1493.45,6084.24C1494.15,6084.24 1494.75,6083.94 1494.75,6083.44C1494.75,6081.55 1494.55,6075.44 1494.55,6074.44L1494.55,6058.15C1494.55,6050.24 1490.95,6042.24 1482.25,6042.24C1477.15,6042.24 1471.95,6045.15 1469.15,6050.44C1468.25,6046.24 1465.25,6042.24 1458.75,6042.24C1453.55,6042.24 1448.35,6045.15 1445.75,6051.15C1445.75,6048.65 1445.85,6046.15 1445.85,6044.74C1445.85,6043.44 1443.65,6042.44 1442.15,6042.44C1441.45,6042.44 1440.85,6042.74 1440.85,6043.24C1440.85,6045.24 1441.05,6051.55 1441.05,6053.15L1441.05,6074.44C1441.05,6075.65 1440.95,6080.55 1440.95,6081.94C1440.95,6083.24 1443.15,6084.24 1444.65,6084.24C1445.35,6084.24 1445.95,6083.94 1445.95,6083.44C1445.95,6081.55 1445.65,6077.94 1445.65,6074.44C1445.75,6068.65 1445.65,6062.94 1447.05,6058.24C1449.85,6048.74 1455.45,6046.44 1458.75,6046.44C1463.95,6046.44 1465.45,6051.74 1465.45,6058.44L1465.45,6074.44C1465.45,6076.44 1465.25,6080.55 1465.25,6081.94C1465.25,6083.24 1467.45,6084.24 1468.95,6084.24C1469.65,6084.24 1470.25,6083.94 1470.25,6083.44C1470.25,6081.55 1469.95,6077.65 1469.95,6074.44L1469.95,6060.65C1469.95,6053.05 1476.65,6046.44 1481.95,6046.44C1487.05,6046.44 1489.95,6051.55 1489.95,6058.44L1489.95,6074.44Z" style="fill-rule:nonzero;"/>
        </g>
    </g>
</svg>
