<?xml version="1.0" encoding="UTF-8" standalone="no"?>
<!DOCTYPE svg PUBLIC "-//W3C//DTD SVG 1.1//EN" "http://www.w3.org/Graphics/SVG/1.1/DTD/svg11.dtd">
<svg width="100%" height="100%" viewBox="0 0 96 96" version="1.1" xmlns="http://www.w3.org/2000/svg" xmlns:xlink="http://www.w3.org/1999/xlink" xml:space="preserve" xmlns:serif="http://www.serif.com/" style="fill-rule:evenodd;clip-rule:evenodd;stroke-linejoin:round;stroke-miterlimit:2;">
    <g transform="matrix(1,0,0,1,-91.5285,-1715.55)">
        <g transform="matrix(2,0,0,2,-952.938,-710.212)">
            <path d="M570.033,1236.78C570.033,1223.58 559.333,1212.88 546.133,1212.88C532.933,1212.88 522.233,1223.58 522.233,1236.78C522.233,1249.98 532.933,1260.63 546.133,1260.63C559.333,1260.63 570.033,1249.98 570.033,1236.78ZM567.983,1236.78C567.983,1248.83 558.183,1258.58 546.133,1258.58C534.083,1258.58 524.283,1248.83 524.283,1236.78C524.283,1224.73 534.083,1214.93 546.133,1214.93C558.183,1214.93 567.983,1224.73 567.983,1236.78ZM556.933,1251.03C557.733,1250.98 558.233,1250.73 558.283,1250.18C558.483,1247.73 560.133,1236.08 562.083,1226.48C562.133,1226.23 562.383,1225.58 562.483,1225.03L562.483,1224.88C562.483,1224.28 561.833,1223.53 561.083,1223.53C560.333,1223.53 560.533,1224.78 560.283,1225.83C559.783,1224.73 558.233,1222.43 554.883,1222.43C550.233,1222.43 546.633,1227.73 546.633,1233.08C546.633,1237.58 548.833,1240.18 552.033,1240.18C554.483,1240.18 557.083,1238.33 558.533,1235.53C558.183,1237.98 557.433,1242.53 556.233,1249.43C556.183,1249.78 556.083,1250.13 556.083,1250.38C556.083,1250.78 556.233,1251.03 556.833,1251.03L556.933,1251.03ZM539.683,1251.03C540.533,1250.98 541.033,1250.73 541.083,1250.18C541.683,1243.28 543.883,1231.23 544.833,1226.48C544.883,1226.23 545.133,1225.58 545.283,1225.03L545.283,1224.88C545.283,1224.28 544.583,1223.53 543.833,1223.53C543.133,1223.53 543.283,1224.78 543.033,1225.83C542.583,1224.73 540.983,1222.43 537.683,1222.43C532.983,1222.43 529.433,1227.73 529.433,1233.08C529.433,1237.58 531.633,1240.18 534.783,1240.18C537.283,1240.18 539.883,1238.33 541.333,1235.53C540.733,1239.13 540.033,1243.28 539.583,1246.38C539.483,1247.08 539.233,1248.28 539.033,1249.43C538.983,1249.78 538.833,1250.13 538.833,1250.38C538.833,1250.78 539.033,1251.03 539.633,1251.03L539.683,1251.03ZM542.383,1229.53C541.233,1233.63 538.783,1237.98 534.733,1237.98C532.533,1237.98 531.383,1236.28 531.383,1232.93C531.383,1229.28 533.733,1224.48 537.833,1224.48C540.283,1224.48 541.283,1226.38 541.733,1227.48C541.883,1227.83 542.033,1227.98 542.233,1227.98C542.433,1227.98 542.583,1227.83 542.733,1227.63L542.383,1229.53ZM559.583,1229.53C557.883,1235.63 554.783,1237.98 551.983,1237.98C549.733,1237.98 548.633,1236.28 548.633,1232.93C548.633,1229.28 550.983,1224.48 555.083,1224.48C557.483,1224.48 558.533,1226.38 558.983,1227.48C559.083,1227.83 559.283,1227.98 559.483,1227.98C559.633,1227.98 559.783,1227.83 559.983,1227.63L559.583,1229.53Z" style="fill-rule:nonzero;"/>
        </g>
    </g>
</svg>
