<?xml version="1.0" encoding="UTF-8" standalone="no"?>
<!DOCTYPE svg PUBLIC "-//W3C//DTD SVG 1.1//EN" "http://www.w3.org/Graphics/SVG/1.1/DTD/svg11.dtd">
<svg width="100%" height="100%" viewBox="0 0 96 96" version="1.1" xmlns="http://www.w3.org/2000/svg" xmlns:xlink="http://www.w3.org/1999/xlink" xml:space="preserve" xmlns:serif="http://www.serif.com/" style="fill-rule:evenodd;clip-rule:evenodd;stroke-linejoin:round;stroke-miterlimit:2;">
    <g transform="matrix(1,0,0,1,-91.5285,-1265.55)">
        <g transform="matrix(2,0,0,2,-952.938,-710.212)">
            <path d="M570.033,1011.78C570.033,998.581 559.333,987.881 546.133,987.881C532.933,987.881 522.233,998.581 522.233,1011.78C522.233,1024.98 532.933,1035.63 546.133,1035.63C559.333,1035.63 570.033,1024.98 570.033,1011.78ZM567.983,1011.78C567.983,1023.83 558.183,1033.58 546.133,1033.58C534.083,1033.58 524.283,1023.83 524.283,1011.78C524.283,999.731 534.083,989.931 546.133,989.931C558.183,989.931 567.983,999.731 567.983,1011.78ZM555.333,997.881C553.683,1000.08 550.683,1006.98 550.433,1007.53C548.783,1011.18 547.983,1014.53 547.983,1017.88C547.983,1022.48 551.233,1026.23 555.533,1026.23C560.233,1026.23 563.083,1022.13 563.083,1016.78C563.083,1011.98 560.283,1008.43 556.133,1008.43C553.833,1008.43 551.933,1009.63 550.733,1011.53C552.733,1006.83 554.733,1002.58 557.283,999.081C557.433,998.881 557.683,998.531 557.683,998.281C557.683,997.931 557.033,997.381 556.183,997.381C555.833,997.381 555.483,997.531 555.333,997.881ZM537.983,997.881C536.333,1000.08 533.333,1006.98 533.083,1007.53C531.433,1011.18 530.633,1014.53 530.633,1017.88C530.633,1022.48 533.883,1026.23 538.183,1026.23C542.883,1026.23 545.733,1022.13 545.733,1016.78C545.733,1011.98 542.933,1008.43 538.783,1008.43C536.483,1008.43 534.583,1009.63 533.383,1011.53C535.383,1006.83 537.383,1002.58 539.933,999.081C540.083,998.881 540.333,998.531 540.333,998.281C540.333,997.931 539.683,997.381 538.833,997.381C538.483,997.381 538.133,997.531 537.983,997.881ZM555.533,1024.23C552.283,1024.23 549.983,1021.43 549.983,1017.83C549.983,1013.88 552.333,1010.48 556.083,1010.48C559.183,1010.48 561.083,1013.48 561.083,1016.88C561.083,1021.18 558.733,1024.23 555.533,1024.23ZM538.183,1024.23C534.933,1024.23 532.633,1021.43 532.633,1017.83C532.633,1013.88 534.983,1010.48 538.733,1010.48C541.833,1010.48 543.733,1013.48 543.733,1016.88C543.733,1021.18 541.383,1024.23 538.183,1024.23Z" style="fill-rule:nonzero;"/>
        </g>
    </g>
</svg>
