<?xml version="1.0" encoding="UTF-8" standalone="no"?>
<!DOCTYPE svg PUBLIC "-//W3C//DTD SVG 1.1//EN" "http://www.w3.org/Graphics/SVG/1.1/DTD/svg11.dtd">
<svg width="100%" height="100%" viewBox="0 0 96 96" version="1.1" xmlns="http://www.w3.org/2000/svg" xmlns:xlink="http://www.w3.org/1999/xlink" xml:space="preserve" xmlns:serif="http://www.serif.com/" style="fill-rule:evenodd;clip-rule:evenodd;stroke-linejoin:round;stroke-miterlimit:2;">
    <g transform="matrix(1,0,0,1,-1091.53,-1265.55)">
        <g transform="matrix(2,0,0,2,-952.938,-710.212)">
            <path d="M1070.03,1011.78C1070.03,998.581 1059.33,987.881 1046.13,987.881C1032.93,987.881 1022.23,998.581 1022.23,1011.78C1022.23,1024.98 1032.93,1035.63 1046.13,1035.63C1059.33,1035.63 1070.03,1024.98 1070.03,1011.78ZM1067.98,1011.78C1067.98,1023.83 1058.18,1033.58 1046.13,1033.58C1034.08,1033.58 1024.28,1023.83 1024.28,1011.78C1024.28,999.731 1034.08,989.931 1046.13,989.931C1058.18,989.931 1067.98,999.731 1067.98,1011.78ZM1049.53,1011.53C1050.13,1010.23 1050.38,1009.48 1050.88,1008.48C1052.23,1005.68 1054.03,1002.18 1056.43,999.081C1056.58,998.881 1056.83,998.531 1056.83,998.281C1056.83,997.531 1055.58,997.381 1055.28,997.381C1054.88,997.381 1054.53,997.531 1054.33,997.881C1054.23,998.081 1053.93,998.581 1053.83,998.681C1052.38,1001.03 1050.83,1003.98 1049.18,1007.53C1047.48,1011.18 1046.63,1014.53 1046.63,1017.88C1046.63,1022.48 1050.03,1026.23 1054.58,1026.23C1059.53,1026.23 1062.53,1022.13 1062.53,1016.78C1062.53,1011.98 1059.58,1008.43 1055.18,1008.43C1052.78,1008.43 1050.78,1009.63 1049.53,1011.53ZM1054.58,1024.23C1051.13,1024.23 1048.68,1021.43 1048.68,1017.83C1048.68,1013.88 1051.23,1010.48 1055.13,1010.48C1058.43,1010.48 1060.43,1013.48 1060.43,1016.88C1060.43,1021.18 1057.93,1024.23 1054.58,1024.23ZM1045.73,999.481C1045.73,998.781 1044.78,997.931 1044.23,997.831L1044.13,997.831C1043.68,997.831 1043.18,998.081 1042.58,998.131L1032.58,998.831L1032.08,998.831C1031.48,998.831 1031.08,998.781 1030.68,998.781C1030.53,998.781 1030.48,998.881 1030.48,999.031C1030.48,999.431 1031.08,1001.03 1032.33,1001.03C1032.63,1001.03 1033.03,1000.98 1033.38,1000.93L1043.03,1000.08C1039.73,1007.88 1035.63,1019.53 1034.18,1024.23C1034.13,1024.48 1033.93,1024.83 1033.93,1025.18C1033.93,1025.48 1034.13,1025.83 1034.88,1025.93C1035.08,1025.93 1035.23,1025.98 1035.38,1025.98C1035.98,1025.98 1036.33,1025.83 1036.43,1025.38C1037.08,1021.73 1040.98,1010.28 1044.83,1001.48C1045.03,1000.98 1045.63,1000.28 1045.73,999.631L1045.73,999.481Z" style="fill-rule:nonzero;"/>
        </g>
    </g>
</svg>
