<?xml version="1.0" encoding="UTF-8" standalone="no"?>
<!DOCTYPE svg PUBLIC "-//W3C//DTD SVG 1.1//EN" "http://www.w3.org/Graphics/SVG/1.1/DTD/svg11.dtd">
<svg width="100%" height="100%" viewBox="0 0 96 96" version="1.1" xmlns="http://www.w3.org/2000/svg" xmlns:xlink="http://www.w3.org/1999/xlink" xml:space="preserve" xmlns:serif="http://www.serif.com/" style="fill-rule:evenodd;clip-rule:evenodd;stroke-linejoin:round;stroke-miterlimit:2;">
    <g transform="matrix(1,0,0,1,-991.528,-515.55)">
        <g transform="matrix(2,0,0,2,-952.938,-710.212)">
            <path d="M1020.03,636.781C1020.03,623.581 1009.33,612.881 996.133,612.881C982.933,612.881 972.233,623.581 972.233,636.781C972.233,649.981 982.933,660.631 996.133,660.631C1009.33,660.631 1020.03,649.981 1020.03,636.781ZM1017.98,636.781C1017.98,648.831 1008.18,658.581 996.133,658.581C984.083,658.581 974.283,648.831 974.283,636.781C974.283,624.731 984.083,614.931 996.133,614.931C1008.18,614.931 1017.98,624.731 1017.98,636.781ZM982.883,650.731C983.733,650.531 985.433,650.231 988.433,650.231C990.883,650.231 994.283,650.331 996.433,650.531C996.733,650.531 996.883,650.331 996.883,650.031C996.883,649.331 996.333,648.231 995.733,648.231C995.283,648.231 994.083,648.281 993.483,648.281C991.983,648.281 990.583,648.231 988.833,648.231C987.433,648.231 985.383,648.331 984.033,648.481C985.283,645.831 987.683,641.881 990.883,638.731C994.233,635.431 996.583,632.631 996.583,628.981C996.583,625.181 994.083,622.431 990.133,622.431C986.433,622.431 983.933,624.431 982.483,627.331C982.333,627.531 982.283,627.781 982.283,628.031C982.283,628.231 982.833,629.631 983.583,629.631C983.983,629.631 984.283,629.231 984.433,628.681C985.233,626.331 987.183,624.481 990.033,624.481C992.783,624.481 994.333,626.531 994.333,628.981C994.333,631.581 992.483,634.031 989.533,637.081C986.483,640.181 983.733,644.431 982.333,647.281C982.133,647.681 981.933,647.981 981.583,648.431C981.483,648.581 981.483,648.781 981.483,649.031C981.483,649.831 982.083,650.731 982.733,650.731L982.883,650.731ZM1005.83,646.531C1005.83,647.381 1005.73,649.381 1005.73,650.031C1005.73,650.631 1006.78,651.081 1007.53,651.081C1007.83,651.081 1008.13,650.981 1008.13,650.681C1008.08,649.681 1008.03,647.381 1008.03,646.281L1008.03,626.531C1008.03,625.431 1008.23,624.731 1008.23,624.081C1008.23,623.331 1007.43,622.631 1006.83,622.631C1006.28,622.631 1005.53,623.781 1005.23,623.981C1004.08,624.931 1002.28,625.981 1000.43,626.731C1000.18,626.831 1000.08,626.981 1000.08,627.131C1000.08,627.581 1000.88,628.031 1001.53,628.031C1001.68,628.031 1001.83,628.031 1001.93,627.981C1003.23,627.581 1004.78,626.931 1005.83,626.231L1005.83,646.531Z" style="fill-rule:nonzero;"/>
        </g>
    </g>
</svg>
