<?xml version="1.0" encoding="UTF-8" standalone="no"?>
<!DOCTYPE svg PUBLIC "-//W3C//DTD SVG 1.1//EN" "http://www.w3.org/Graphics/SVG/1.1/DTD/svg11.dtd">
<svg width="100%" height="100%" viewBox="0 0 96 96" version="1.1" xmlns="http://www.w3.org/2000/svg" xmlns:xlink="http://www.w3.org/1999/xlink" xml:space="preserve" xmlns:serif="http://www.serif.com/" style="fill-rule:evenodd;clip-rule:evenodd;stroke-linejoin:round;stroke-miterlimit:2;">
    <g transform="matrix(1,0,0,1,-191.528,-365.55)">
        <g transform="matrix(2,0,0,2,-952.938,-710.212)">
            <path d="M620.033,561.781C620.033,548.581 609.333,537.881 596.133,537.881C582.933,537.881 572.233,548.581 572.233,561.781C572.233,574.981 582.933,585.631 596.133,585.631C609.333,585.631 620.033,574.981 620.033,561.781ZM617.983,561.781C617.983,573.831 608.183,583.581 596.133,583.581C584.083,583.581 574.283,573.831 574.283,561.781C574.283,549.731 584.083,539.931 596.133,539.931C608.183,539.931 617.983,549.731 617.983,561.781ZM587.133,575.981C590.933,575.531 591.483,575.531 595.333,575.531C597.783,575.531 600.383,575.531 602.233,575.631C603.783,575.731 605.383,575.881 605.933,575.881C606.383,575.881 606.533,575.631 606.533,575.281C606.533,574.531 605.833,573.431 605.083,573.431C604.483,573.431 603.033,573.481 602.233,573.481C600.333,573.481 597.933,573.431 595.633,573.431C593.933,573.431 590.133,573.481 588.383,573.631C590.683,570.281 594.083,566.881 598.633,563.631C603.133,560.331 605.883,557.431 605.883,553.781C605.883,549.731 602.883,547.131 597.283,547.131C589.733,547.131 587.033,552.131 587.033,552.881C587.033,553.881 588.183,554.481 588.433,554.481C588.933,554.481 589.283,553.981 589.483,553.581C590.883,550.681 593.233,549.281 597.183,549.281C601.383,549.281 603.333,551.031 603.333,553.781C603.333,556.681 600.783,558.981 596.833,561.931C591.983,565.531 588.183,569.731 586.433,572.381C586.183,572.781 585.783,573.081 585.433,573.631C585.333,573.731 585.283,573.931 585.283,574.131C585.283,574.881 585.983,575.981 586.933,575.981L587.133,575.981Z" style="fill-rule:nonzero;"/>
        </g>
    </g>
</svg>
