<?xml version="1.0" encoding="UTF-8" standalone="no"?>
<!DOCTYPE svg PUBLIC "-//W3C//DTD SVG 1.1//EN" "http://www.w3.org/Graphics/SVG/1.1/DTD/svg11.dtd">
<svg width="100%" height="100%" viewBox="0 0 96 96" version="1.1" xmlns="http://www.w3.org/2000/svg" xmlns:xlink="http://www.w3.org/1999/xlink" xml:space="preserve" xmlns:serif="http://www.serif.com/" style="fill-rule:evenodd;clip-rule:evenodd;stroke-linejoin:round;stroke-miterlimit:2;">
    <g transform="matrix(1,0,0,1,-509.628,-2573.28)">
        <g transform="matrix(1,0,0,1,-110.019,-3591.86)">
            <path d="M715.248,6212.94C715.248,6186.55 693.848,6165.15 667.448,6165.15C641.048,6165.15 619.648,6186.55 619.648,6212.94C619.648,6239.35 641.048,6260.65 667.448,6260.65C693.848,6260.65 715.248,6239.35 715.248,6212.94ZM711.148,6212.94C711.148,6237.05 691.548,6256.55 667.448,6256.55C643.348,6256.55 623.748,6237.05 623.748,6212.94C623.748,6188.85 643.348,6169.24 667.448,6169.24C691.548,6169.24 711.148,6188.85 711.148,6212.94ZM662.248,6230.74C662.248,6237.94 663.848,6241.44 669.648,6241.44C675.348,6241.44 681.248,6234.35 681.248,6232.65C681.248,6232.24 681.048,6231.94 680.548,6231.94C680.048,6231.94 679.348,6232.24 678.448,6232.94C675.448,6235.24 672.448,6236.85 670.048,6236.85C667.448,6236.85 666.748,6235.74 666.748,6230.94L666.748,6203.24L670.248,6203.05C672.448,6202.94 676.348,6202.94 677.548,6202.94C678.148,6202.94 678.448,6202.55 678.448,6201.94C678.448,6200.74 677.348,6198.94 675.948,6198.94L675.848,6198.94C674.648,6198.94 671.348,6199.35 669.348,6199.44L666.748,6199.55L666.748,6195.24C666.748,6193.24 666.948,6189.05 666.948,6187.65C666.948,6186.35 664.748,6185.35 663.348,6185.35C662.548,6185.35 662.048,6185.65 662.048,6186.15C662.048,6188.15 662.248,6193.65 662.248,6195.24L662.248,6199.74L654.648,6199.74C654.048,6199.74 653.748,6200.15 653.748,6200.65C653.748,6201.85 654.948,6203.74 656.348,6203.74L656.448,6203.74C658.048,6203.65 660.648,6203.44 662.248,6203.44L662.248,6230.74Z" style="fill-rule:nonzero;"/>
        </g>
    </g>
</svg>
