<?xml version="1.0" encoding="UTF-8" standalone="no"?>
<!DOCTYPE svg PUBLIC "-//W3C//DTD SVG 1.1//EN" "http://www.w3.org/Graphics/SVG/1.1/DTD/svg11.dtd">
<svg width="100%" height="100%" viewBox="0 0 96 96" version="1.1" xmlns="http://www.w3.org/2000/svg" xmlns:xlink="http://www.w3.org/1999/xlink" xml:space="preserve" xmlns:serif="http://www.serif.com/" style="fill-rule:evenodd;clip-rule:evenodd;stroke-linejoin:round;stroke-miterlimit:2;">
    <g transform="matrix(1,0,0,1,-1091.53,-1415.55)">
        <g transform="matrix(2,0,0,2,-952.938,-710.212)">
            <path d="M1070.03,1086.78C1070.03,1073.58 1059.33,1062.88 1046.13,1062.88C1032.93,1062.88 1022.23,1073.58 1022.23,1086.78C1022.23,1099.98 1032.93,1110.63 1046.13,1110.63C1059.33,1110.63 1070.03,1099.98 1070.03,1086.78ZM1067.98,1086.78C1067.98,1098.83 1058.18,1108.58 1046.13,1108.58C1034.08,1108.58 1024.28,1098.83 1024.28,1086.78C1024.28,1074.73 1034.08,1064.93 1046.13,1064.93C1058.18,1064.93 1067.98,1074.73 1067.98,1086.78ZM1039.33,1084.68C1042.83,1081.93 1045.53,1078.33 1045.53,1077.58C1045.53,1077.13 1045.28,1076.83 1044.93,1076.83C1044.68,1076.83 1044.43,1076.93 1044.13,1077.28L1043.98,1077.48C1044.08,1077.23 1044.18,1076.93 1044.18,1076.73C1044.18,1076.58 1044.13,1076.43 1044.08,1076.33C1042.78,1074.23 1040.88,1072.48 1038.23,1072.48C1034.13,1072.48 1031.73,1075.58 1031.73,1079.03C1031.73,1081.63 1032.63,1083.28 1035.73,1085.08C1032.58,1087.53 1030.68,1090.23 1030.68,1093.78C1030.68,1097.98 1033.28,1101.23 1037.68,1101.23C1042.48,1101.23 1045.68,1098.08 1045.68,1093.23C1045.68,1089.43 1043.78,1086.93 1039.78,1084.88L1039.33,1084.68ZM1038.43,1086.43C1042.43,1088.48 1043.73,1090.53 1043.73,1093.43C1043.73,1096.83 1041.13,1099.13 1037.68,1099.13C1034.18,1099.13 1032.68,1096.38 1032.68,1093.68C1032.68,1090.83 1034.48,1088.53 1037.58,1086.03L1038.43,1086.43ZM1061.93,1074.48C1061.93,1073.78 1061.08,1072.93 1060.53,1072.83L1060.43,1072.83C1059.98,1072.83 1059.53,1073.08 1058.98,1073.13L1049.48,1073.83L1048.98,1073.83C1048.43,1073.83 1048.08,1073.78 1047.68,1073.78C1047.53,1073.78 1047.48,1073.88 1047.48,1074.03C1047.48,1074.38 1047.98,1076.03 1049.23,1076.03C1049.53,1076.03 1049.88,1075.98 1050.23,1075.93L1059.38,1075.08C1055.13,1085.53 1052.33,1094.78 1050.98,1099.23C1050.93,1099.48 1050.78,1099.83 1050.78,1100.18C1050.78,1100.48 1050.93,1100.83 1051.63,1100.93C1051.83,1100.93 1051.98,1100.98 1052.13,1100.98C1052.68,1100.98 1053.03,1100.83 1053.08,1100.38C1054.38,1094.38 1058.48,1082.73 1061.13,1076.48C1061.33,1075.98 1061.88,1075.28 1061.93,1074.63L1061.93,1074.48ZM1043.43,1078.08C1041.73,1080.03 1039.78,1082.03 1037.53,1083.68C1034.58,1082.18 1033.73,1081.08 1033.73,1079.03C1033.73,1076.73 1035.23,1074.48 1038.28,1074.48C1040.28,1074.48 1041.43,1075.73 1042.43,1077.63C1042.68,1078.03 1042.88,1078.18 1043.08,1078.18C1043.23,1078.18 1043.33,1078.13 1043.43,1078.08Z" style="fill-rule:nonzero;"/>
        </g>
    </g>
</svg>
