<?xml version="1.0" encoding="UTF-8" standalone="no"?>
<!DOCTYPE svg PUBLIC "-//W3C//DTD SVG 1.1//EN" "http://www.w3.org/Graphics/SVG/1.1/DTD/svg11.dtd">
<svg width="100%" height="100%" viewBox="0 0 96 96" version="1.1" xmlns="http://www.w3.org/2000/svg" xmlns:xlink="http://www.w3.org/1999/xlink" xml:space="preserve" xmlns:serif="http://www.serif.com/" style="fill-rule:evenodd;clip-rule:evenodd;stroke-linejoin:round;stroke-miterlimit:2;">
    <g transform="matrix(1,0,0,1,-209.628,-2423.28)">
        <g transform="matrix(1,0,0,1,-110.019,-3591.86)">
            <path d="M415.248,6062.94C415.248,6036.55 393.848,6015.15 367.448,6015.15C341.048,6015.15 319.648,6036.55 319.648,6062.94C319.648,6089.35 341.048,6110.65 367.448,6110.65C393.848,6110.65 415.248,6089.35 415.248,6062.94ZM411.148,6062.94C411.148,6087.05 391.548,6106.55 367.448,6106.55C343.348,6106.55 323.748,6087.05 323.748,6062.94C323.748,6038.85 343.348,6019.24 367.448,6019.24C391.548,6019.24 411.148,6038.85 411.148,6062.94ZM352.248,6082.94C352.248,6085.94 352.148,6089.35 352.148,6090.65C352.148,6091.85 352.648,6092.24 353.248,6092.24C354.448,6092.24 356.148,6090.74 356.348,6089.74C356.548,6088.55 356.648,6087.55 356.648,6086.74C358.548,6090.85 362.848,6093.24 367.448,6093.24C378.848,6093.24 388.048,6082.55 388.048,6068.35C388.048,6056.85 382.148,6050.85 373.748,6050.85C367.448,6050.85 361.348,6053.74 356.848,6061.65L356.848,6041.65C356.848,6038.65 357.048,6035.44 357.048,6034.05C357.048,6032.74 354.848,6031.74 353.348,6031.74C352.648,6031.74 352.048,6032.05 352.048,6032.55C352.048,6034.44 352.248,6038.05 352.248,6041.55L352.248,6082.94ZM356.748,6083.65C356.748,6080.05 356.748,6073.44 357.348,6070.44C359.248,6061.35 366.348,6055.05 373.748,6055.05C379.048,6055.05 383.048,6059.44 383.048,6068.44C383.048,6081.85 374.648,6089.15 367.648,6089.15C364.648,6089.15 361.748,6087.74 359.448,6084.55C358.848,6083.65 358.148,6083.24 357.548,6083.24C357.248,6083.24 356.948,6083.35 356.748,6083.65Z" style="fill-rule:nonzero;"/>
        </g>
    </g>
</svg>
