<?xml version="1.0" encoding="UTF-8" standalone="no"?>
<!DOCTYPE svg PUBLIC "-//W3C//DTD SVG 1.1//EN" "http://www.w3.org/Graphics/SVG/1.1/DTD/svg11.dtd">
<svg width="100%" height="100%" viewBox="0 0 96 96" version="1.1" xmlns="http://www.w3.org/2000/svg" xmlns:xlink="http://www.w3.org/1999/xlink" xml:space="preserve" xmlns:serif="http://www.serif.com/" style="fill-rule:evenodd;clip-rule:evenodd;stroke-linejoin:round;stroke-miterlimit:2;">
    <g transform="matrix(1,0,0,1,-409.628,-2573.28)">
        <g transform="matrix(1,0,0,1,-110.019,-3591.86)">
            <path d="M615.248,6212.94C615.248,6186.55 593.848,6165.15 567.448,6165.15C541.048,6165.15 519.648,6186.55 519.648,6212.94C519.648,6239.35 541.048,6260.65 567.448,6260.65C593.848,6260.65 615.248,6239.35 615.248,6212.94ZM611.148,6212.94C611.148,6237.05 591.548,6256.55 567.448,6256.55C543.348,6256.55 523.748,6237.05 523.748,6212.94C523.748,6188.85 543.348,6169.24 567.448,6169.24C591.548,6169.24 611.148,6188.85 611.148,6212.94ZM570.048,6213.94C576.448,6215.55 578.648,6218.05 578.648,6222.15C578.648,6226.15 574.048,6229.94 567.148,6229.94C558.448,6229.94 555.648,6226.94 553.748,6222.55C553.548,6222.15 553.348,6221.94 552.948,6221.94C551.848,6221.94 550.148,6223.94 550.148,6225.44C550.148,6225.74 550.248,6226.05 550.348,6226.35C553.648,6232.15 560.348,6234.24 567.148,6234.24C577.048,6234.24 583.248,6228.74 583.248,6221.94C583.248,6215.05 578.748,6211.74 571.548,6210.05L563.348,6208.05C558.548,6206.94 556.748,6205.15 556.748,6202.74C556.748,6198.74 560.948,6195.74 567.648,6195.74C568.748,6195.74 575.148,6195.74 577.848,6200.05C578.248,6200.65 578.548,6201.05 578.948,6201.05C580.148,6201.05 581.348,6199.44 581.348,6197.85C581.348,6197.55 581.348,6197.24 581.148,6197.05C578.848,6194.15 574.048,6191.74 567.648,6191.74C559.248,6191.74 552.248,6196.15 552.248,6202.65C552.248,6207.74 555.348,6210.55 561.548,6211.94L570.048,6213.94Z" style="fill-rule:nonzero;"/>
        </g>
    </g>
</svg>
