<?xml version="1.0" encoding="UTF-8" standalone="no"?>
<!DOCTYPE svg PUBLIC "-//W3C//DTD SVG 1.1//EN" "http://www.w3.org/Graphics/SVG/1.1/DTD/svg11.dtd">
<svg width="100%" height="100%" viewBox="0 0 96 96" version="1.1" xmlns="http://www.w3.org/2000/svg" xmlns:xlink="http://www.w3.org/1999/xlink" xml:space="preserve" xmlns:serif="http://www.serif.com/" style="fill-rule:evenodd;clip-rule:evenodd;stroke-linejoin:round;stroke-miterlimit:2;">
    <g transform="matrix(1,0,0,1,-391.528,-1565.55)">
        <g transform="matrix(2,0,0,2,-952.938,-710.212)">
            <path d="M720.033,1161.78C720.033,1148.58 709.333,1137.88 696.133,1137.88C682.933,1137.88 672.233,1148.58 672.233,1161.78C672.233,1174.98 682.933,1185.63 696.133,1185.63C709.333,1185.63 720.033,1174.98 720.033,1161.78ZM717.983,1161.78C717.983,1173.83 708.183,1183.58 696.133,1183.58C684.083,1183.58 674.283,1173.83 674.283,1161.78C674.283,1149.73 684.083,1139.93 696.133,1139.93C708.183,1139.93 717.983,1149.73 717.983,1161.78ZM691.683,1176.03C692.533,1175.98 693.083,1175.73 693.133,1175.23C693.483,1171.13 695.483,1159.13 697.083,1151.48C697.183,1151.23 697.433,1150.58 697.533,1150.03L697.533,1149.88C697.533,1149.28 696.833,1148.53 696.033,1148.53C695.283,1148.53 695.483,1149.78 695.183,1150.83C694.733,1149.73 693.033,1147.43 689.533,1147.43C684.583,1147.43 680.833,1152.73 680.833,1158.08C680.833,1162.58 683.133,1165.18 686.483,1165.18C689.083,1165.18 691.833,1163.33 693.383,1160.53L690.983,1174.43C690.883,1174.78 690.783,1175.13 690.783,1175.38C690.783,1175.78 690.983,1176.03 691.583,1176.03L691.683,1176.03ZM694.883,1152.63C693.933,1158.38 690.683,1162.98 686.433,1162.98C684.083,1162.98 682.933,1161.28 682.933,1157.93C682.933,1154.28 685.383,1149.48 689.733,1149.48C692.283,1149.48 693.383,1151.38 693.833,1152.48C693.983,1152.83 694.133,1152.98 694.383,1152.98C694.533,1152.98 694.733,1152.83 694.883,1152.63ZM708.633,1175.68C708.633,1174.68 708.583,1172.38 708.583,1171.28L708.583,1151.53C708.583,1150.43 708.783,1149.73 708.783,1149.08C708.783,1148.33 707.983,1147.63 707.433,1147.63C706.933,1147.63 706.183,1148.78 705.933,1148.98C704.833,1149.93 703.133,1150.98 701.333,1151.73C701.083,1151.83 700.983,1151.98 700.983,1152.13C700.983,1152.58 701.783,1153.03 702.433,1153.03C702.533,1153.03 702.683,1153.03 702.783,1152.98C703.983,1152.58 705.483,1151.93 706.483,1151.23L706.483,1171.53C706.483,1172.38 706.383,1174.38 706.383,1175.03C706.383,1175.63 707.383,1176.08 708.083,1176.08C708.383,1176.08 708.633,1175.98 708.633,1175.73L708.633,1175.68Z" style="fill-rule:nonzero;"/>
        </g>
    </g>
</svg>
