<?xml version="1.0" encoding="UTF-8" standalone="no"?>
<!DOCTYPE svg PUBLIC "-//W3C//DTD SVG 1.1//EN" "http://www.w3.org/Graphics/SVG/1.1/DTD/svg11.dtd">
<svg width="100%" height="100%" viewBox="0 0 96 96" version="1.1" xmlns="http://www.w3.org/2000/svg" xmlns:xlink="http://www.w3.org/1999/xlink" xml:space="preserve" xmlns:serif="http://www.serif.com/" style="fill-rule:evenodd;clip-rule:evenodd;stroke-linejoin:round;stroke-miterlimit:2;">
    <g transform="matrix(1,0,0,1,-991.528,-1265.55)">
        <g transform="matrix(2,0,0,2,-952.938,-710.212)">
            <path d="M1020.03,1011.78C1020.03,998.581 1009.33,987.881 996.133,987.881C982.933,987.881 972.233,998.581 972.233,1011.78C972.233,1024.98 982.933,1035.63 996.133,1035.63C1009.33,1035.63 1020.03,1024.98 1020.03,1011.78ZM1017.98,1011.78C1017.98,1023.83 1008.18,1033.58 996.133,1033.58C984.083,1033.58 974.283,1023.83 974.283,1011.78C974.283,999.731 984.083,989.931 996.133,989.931C1008.18,989.931 1017.98,999.731 1017.98,1011.78ZM1000.78,1012.38C1001.93,1011.08 1003.48,1010.23 1005.33,1010.23C1008.58,1010.23 1010.63,1012.68 1010.63,1016.73C1010.63,1020.58 1008.78,1024.08 1004.13,1024.08C1001.48,1024.08 999.783,1022.23 998.533,1020.13C998.433,1019.93 998.283,1019.83 998.183,1019.83C997.683,1019.83 997.083,1020.88 997.083,1021.78C997.083,1022.13 997.183,1022.43 997.383,1022.63C999.033,1024.68 1001.18,1026.23 1004.13,1026.23C1010.23,1026.23 1012.73,1021.73 1012.73,1016.68C1012.73,1011.28 1009.48,1008.18 1005.68,1008.18C1003.33,1008.18 1001.68,1008.98 1000.23,1010.38L1001.13,1000.78L1008.18,1000.28C1009.18,1000.18 1010.23,1000.18 1010.88,1000.13C1011.18,1000.13 1011.28,999.881 1011.28,999.581C1011.28,998.931 1010.78,997.931 1010.28,997.931L1010.18,997.931C1009.58,998.081 1008.58,998.131 1007.88,998.181L1001.18,998.581C1000.73,998.381 1000.18,998.181 999.833,998.181C999.533,998.181 999.333,998.281 999.333,998.581C999.333,999.081 999.333,999.781 999.283,1000.33L998.383,1009.98C998.383,1010.03 998.033,1011.23 998.033,1011.78C998.033,1012.78 998.933,1013.48 999.483,1013.48C999.633,1013.48 999.683,1013.48 999.783,1013.38L1000.78,1012.38ZM994.983,999.481C994.983,998.781 994.083,997.931 993.533,997.831L993.433,997.831C992.933,997.831 992.433,998.081 991.883,998.131L981.883,998.831L981.383,998.831C980.733,998.831 980.383,998.781 979.983,998.781C979.833,998.781 979.783,998.881 979.783,999.031C979.783,999.531 980.433,1001.03 981.583,1001.03C981.933,1001.03 982.283,1000.98 982.683,1000.98L992.283,1000.08C989.333,1007.13 986.483,1014.73 984.383,1021.33C984.183,1022.03 983.833,1023.08 983.433,1024.23C983.433,1024.48 983.233,1024.83 983.233,1025.18C983.233,1025.48 983.433,1025.83 984.133,1025.93C984.333,1025.93 984.533,1025.98 984.683,1025.98C985.283,1025.98 985.583,1025.83 985.683,1025.43C986.733,1020.33 990.583,1009.58 994.133,1001.48C994.333,1000.98 994.883,1000.28 994.983,999.631L994.983,999.481Z" style="fill-rule:nonzero;"/>
        </g>
    </g>
</svg>
