<?xml version="1.0" encoding="UTF-8" standalone="no"?>
<!DOCTYPE svg PUBLIC "-//W3C//DTD SVG 1.1//EN" "http://www.w3.org/Graphics/SVG/1.1/DTD/svg11.dtd">
<svg width="100%" height="100%" viewBox="0 0 96 96" version="1.1" xmlns="http://www.w3.org/2000/svg" xmlns:xlink="http://www.w3.org/1999/xlink" xml:space="preserve" xmlns:serif="http://www.serif.com/" style="fill-rule:evenodd;clip-rule:evenodd;stroke-linejoin:round;stroke-miterlimit:2;">
    <g transform="matrix(1,0,0,1,-991.528,-1115.55)">
        <g transform="matrix(2,0,0,2,-952.938,-710.212)">
            <path d="M1020.03,936.781C1020.03,923.581 1009.33,912.881 996.133,912.881C982.933,912.881 972.233,923.581 972.233,936.781C972.233,949.981 982.933,960.631 996.133,960.631C1009.33,960.631 1020.03,949.981 1020.03,936.781ZM1017.98,936.781C1017.98,948.831 1008.18,958.581 996.133,958.581C984.083,958.581 974.283,948.831 974.283,936.781C974.283,924.731 984.083,914.931 996.133,914.931C1008.18,914.931 1017.98,924.731 1017.98,936.781ZM1010.68,944.231C1011.58,944.231 1012.83,944.331 1013.28,944.331C1013.53,944.331 1013.63,944.081 1013.63,943.781C1013.63,943.081 1013.13,941.981 1012.58,941.981C1012.18,941.981 1011.23,942.181 1010.63,942.231L1010.03,942.281L1010.03,934.081C1010.03,933.131 1010.13,931.181 1010.13,930.581C1010.13,929.881 1009.18,929.431 1008.58,929.431C1008.23,929.431 1007.98,929.581 1007.98,929.831C1007.98,930.731 1008.08,933.281 1008.08,934.081L1008.08,942.381L1000.08,942.581C1002.48,937.881 1005.53,931.481 1007.43,927.131C1007.73,926.481 1008.23,925.581 1008.63,924.931C1008.68,924.831 1008.68,924.681 1008.68,924.531C1008.68,923.681 1007.73,922.531 1007.18,922.531C1007.03,922.531 1006.88,922.581 1006.83,922.781C1004.93,928.531 1000.43,937.631 998.983,940.481C998.683,940.981 998.233,941.581 997.833,942.281C997.683,942.531 997.633,942.831 997.633,943.031C997.633,943.981 998.433,944.881 999.083,944.881C999.183,944.881 999.233,944.831 999.333,944.831C999.833,944.681 1000.33,944.581 1000.58,944.581L1008.08,944.331L1008.08,946.481C1008.08,947.081 1007.98,949.331 1007.98,949.981C1007.98,950.631 1008.93,951.081 1009.63,951.081C1009.93,951.081 1010.18,950.931 1010.18,950.681C1010.18,949.781 1010.03,948.181 1010.03,946.581L1010.03,944.231L1010.68,944.231ZM983.233,936.531C983.783,935.231 984.033,934.481 984.483,933.481C985.833,930.681 987.533,927.181 989.783,924.081C989.933,923.881 990.133,923.531 990.133,923.281C990.133,922.381 988.733,922.381 988.683,922.381C988.333,922.381 987.983,922.531 987.833,922.881C987.683,923.081 987.383,923.581 987.283,923.681C985.933,926.031 984.483,928.981 982.883,932.531C981.283,936.181 980.483,939.531 980.483,942.881C980.483,947.481 983.683,951.231 988.033,951.231C992.733,951.231 995.583,947.131 995.583,941.781C995.583,936.981 992.733,933.431 988.583,933.431C986.283,933.431 984.433,934.631 983.233,936.531ZM988.033,949.231C984.733,949.231 982.433,946.431 982.433,942.831C982.433,938.881 984.833,935.481 988.583,935.481C991.683,935.481 993.533,938.481 993.533,941.881C993.533,946.181 991.183,949.231 988.033,949.231Z" style="fill-rule:nonzero;"/>
        </g>
    </g>
</svg>
