<?xml version="1.0" encoding="UTF-8" standalone="no"?>
<!DOCTYPE svg PUBLIC "-//W3C//DTD SVG 1.1//EN" "http://www.w3.org/Graphics/SVG/1.1/DTD/svg11.dtd">
<svg width="100%" height="100%" viewBox="0 0 96 96" version="1.1" xmlns="http://www.w3.org/2000/svg" xmlns:xlink="http://www.w3.org/1999/xlink" xml:space="preserve" xmlns:serif="http://www.serif.com/" style="fill-rule:evenodd;clip-rule:evenodd;stroke-linejoin:round;stroke-miterlimit:2;">
    <g transform="matrix(1,0,0,1,-1109.63,-2423.28)">
        <g transform="matrix(1,0,0,1,-110.019,-3591.86)">
            <path d="M1315.25,6062.94C1315.25,6036.55 1293.85,6015.15 1267.45,6015.15C1241.05,6015.15 1219.65,6036.55 1219.65,6062.94C1219.65,6089.35 1241.05,6110.65 1267.45,6110.65C1293.85,6110.65 1315.25,6089.35 1315.25,6062.94ZM1311.15,6062.94C1311.15,6087.05 1291.55,6106.55 1267.45,6106.55C1243.35,6106.55 1223.75,6087.05 1223.75,6062.94C1223.75,6038.85 1243.35,6019.24 1267.45,6019.24C1291.55,6019.24 1311.15,6038.85 1311.15,6062.94ZM1253.55,6083.05C1253.55,6084.24 1253.35,6089.15 1253.35,6090.44C1253.35,6091.85 1255.55,6092.85 1257.05,6092.85C1257.85,6092.85 1258.35,6092.55 1258.35,6092.05C1258.35,6090.05 1258.15,6084.05 1258.15,6083.05L1258.15,6071.55L1261.05,6069.55C1266.15,6074.24 1275.25,6084.24 1279.85,6089.05C1281.05,6090.35 1282.85,6091.74 1284.25,6092.85C1284.45,6093.05 1284.75,6093.05 1285.05,6093.05C1286.55,6093.05 1288.85,6091.35 1288.85,6090.35C1288.85,6090.05 1288.65,6089.85 1288.35,6089.65C1286.55,6088.85 1284.75,6087.65 1283.45,6086.35C1277.95,6080.85 1269.55,6071.85 1264.75,6067.05L1277.85,6057.74C1279.25,6056.74 1281.55,6055.35 1283.95,6053.65C1284.25,6053.44 1284.35,6053.24 1284.35,6053.05C1284.35,6052.15 1281.85,6050.94 1280.05,6050.94C1279.45,6050.94 1278.85,6051.15 1278.55,6051.44C1277.95,6052.15 1276.25,6053.65 1274.85,6054.74L1258.15,6066.44L1258.15,6041.85C1258.15,6039.85 1258.25,6035.65 1258.25,6034.35C1258.25,6032.94 1256.05,6031.94 1254.55,6031.94C1253.75,6031.94 1253.25,6032.24 1253.25,6032.74C1253.25,6034.74 1253.55,6040.24 1253.55,6041.85L1253.55,6083.05Z" style="fill-rule:nonzero;"/>
        </g>
    </g>
</svg>
