<?xml version="1.0" encoding="UTF-8" standalone="no"?>
<!DOCTYPE svg PUBLIC "-//W3C//DTD SVG 1.1//EN" "http://www.w3.org/Graphics/SVG/1.1/DTD/svg11.dtd">
<svg width="100%" height="100%" viewBox="0 0 96 96" version="1.1" xmlns="http://www.w3.org/2000/svg" xmlns:xlink="http://www.w3.org/1999/xlink" xml:space="preserve" xmlns:serif="http://www.serif.com/" style="fill-rule:evenodd;clip-rule:evenodd;stroke-linejoin:round;stroke-miterlimit:2;">
    <g transform="matrix(1,0,0,1,-1209.63,-2423.28)">
        <g transform="matrix(1,0,0,1,-110.019,-3591.86)">
            <path d="M1415.25,6062.94C1415.25,6036.55 1393.85,6015.15 1367.45,6015.15C1341.05,6015.15 1319.65,6036.55 1319.65,6062.94C1319.65,6089.35 1341.05,6110.65 1367.45,6110.65C1393.85,6110.65 1415.25,6089.35 1415.25,6062.94ZM1411.15,6062.94C1411.15,6087.05 1391.55,6106.55 1367.45,6106.55C1343.35,6106.55 1323.75,6087.05 1323.75,6062.94C1323.75,6038.85 1343.35,6019.24 1367.45,6019.24C1391.55,6019.24 1411.15,6038.85 1411.15,6062.94ZM1365.05,6083.55C1365.05,6084.74 1364.85,6089.65 1364.85,6090.94C1364.85,6092.35 1367.15,6093.35 1368.65,6093.35C1369.35,6093.35 1369.95,6093.05 1369.95,6092.55C1369.95,6090.55 1369.75,6084.55 1369.75,6083.55L1369.75,6042.24C1369.75,6040.24 1369.85,6036.05 1369.85,6034.74C1369.85,6033.35 1367.65,6032.44 1366.15,6032.44C1365.45,6032.44 1364.85,6032.65 1364.85,6033.24C1364.85,6035.15 1365.05,6040.65 1365.05,6042.24L1365.05,6083.55Z" style="fill-rule:nonzero;"/>
        </g>
    </g>
</svg>
