<?xml version="1.0" encoding="UTF-8" standalone="no"?>
<!DOCTYPE svg PUBLIC "-//W3C//DTD SVG 1.1//EN" "http://www.w3.org/Graphics/SVG/1.1/DTD/svg11.dtd">
<svg width="100%" height="100%" viewBox="0 0 96 96" version="1.1" xmlns="http://www.w3.org/2000/svg" xmlns:xlink="http://www.w3.org/1999/xlink" xml:space="preserve" xmlns:serif="http://www.serif.com/" style="fill-rule:evenodd;clip-rule:evenodd;stroke-linejoin:round;stroke-miterlimit:2;">
    <g transform="matrix(1,0,0,1,-909.628,-2423.28)">
        <g transform="matrix(1,0,0,1,-110.019,-3591.86)">
            <path d="M1115.25,6062.94C1115.25,6036.55 1093.85,6015.15 1067.45,6015.15C1041.05,6015.15 1019.65,6036.55 1019.65,6062.94C1019.65,6089.35 1041.05,6110.65 1067.45,6110.65C1093.85,6110.65 1115.25,6089.35 1115.25,6062.94ZM1111.15,6062.94C1111.15,6087.05 1091.55,6106.55 1067.45,6106.55C1043.35,6106.55 1023.75,6087.05 1023.75,6062.94C1023.75,6038.85 1043.35,6019.24 1067.45,6019.24C1091.55,6019.24 1111.15,6038.85 1111.15,6062.94ZM1067.75,6040.85C1069.75,6040.85 1070.95,6039.55 1070.95,6037.55C1070.95,6035.35 1068.85,6032.85 1066.95,6032.85C1064.85,6032.85 1063.65,6034.24 1063.65,6036.35C1063.65,6038.44 1065.65,6040.85 1067.75,6040.85ZM1065.05,6083.15C1065.05,6084.35 1064.85,6089.24 1064.85,6090.55C1064.85,6091.94 1067.15,6092.85 1068.75,6092.85C1069.45,6092.85 1069.95,6092.65 1069.95,6092.15C1069.95,6090.15 1069.75,6084.15 1069.75,6083.15L1069.75,6060.74C1069.75,6058.74 1069.85,6054.55 1069.85,6053.15C1069.85,6051.85 1067.55,6050.94 1066.05,6050.94C1065.35,6050.94 1064.85,6051.15 1064.85,6051.65C1064.85,6053.65 1065.05,6059.15 1065.05,6060.74L1065.05,6083.15Z" style="fill-rule:nonzero;"/>
        </g>
    </g>
</svg>
