<?xml version="1.0" encoding="UTF-8" standalone="no"?>
<!DOCTYPE svg PUBLIC "-//W3C//DTD SVG 1.1//EN" "http://www.w3.org/Graphics/SVG/1.1/DTD/svg11.dtd">
<svg width="100%" height="100%" viewBox="0 0 96 96" version="1.1" xmlns="http://www.w3.org/2000/svg" xmlns:xlink="http://www.w3.org/1999/xlink" xml:space="preserve" xmlns:serif="http://www.serif.com/" style="fill-rule:evenodd;clip-rule:evenodd;stroke-linejoin:round;stroke-miterlimit:2;">
    <g transform="matrix(1,0,0,1,-591.528,-515.55)">
        <g transform="matrix(2,0,0,2,-952.938,-710.212)">
            <path d="M820.033,636.781C820.033,623.581 809.333,612.881 796.133,612.881C782.933,612.881 772.233,623.581 772.233,636.781C772.233,649.981 782.933,660.631 796.133,660.631C809.333,660.631 820.033,649.981 820.033,636.781ZM817.983,636.781C817.983,648.831 808.183,658.581 796.133,658.581C784.083,658.581 774.283,648.831 774.283,636.781C774.283,624.731 784.083,614.931 796.133,614.931C808.183,614.931 817.983,624.731 817.983,636.781ZM810.383,624.481C810.383,623.781 809.483,622.931 808.933,622.831L808.883,622.831C808.433,622.831 807.933,623.081 807.383,623.131L796.583,623.981L796.083,623.981C795.533,623.981 795.133,623.931 794.783,623.931C794.633,623.931 794.583,624.031 794.583,624.181C794.583,625.231 795.583,626.181 796.283,626.181C796.633,626.181 796.983,626.081 797.333,626.081L807.783,625.081C802.283,637.081 798.183,649.731 798.183,650.181C798.183,650.481 798.383,650.831 799.083,650.931C799.283,650.931 799.433,650.981 799.633,650.981C800.133,650.981 800.533,650.831 800.533,650.381C801.833,645.531 803.983,638.281 809.533,626.481C809.783,626.031 810.283,625.281 810.383,624.631L810.383,624.481ZM786.933,646.531C786.933,647.381 786.833,649.381 786.833,650.031C786.833,650.631 787.833,651.081 788.533,651.081C788.833,651.081 789.083,650.981 789.083,650.681C789.083,649.681 789.033,647.381 789.033,646.281L789.033,626.531C789.033,625.431 789.233,624.731 789.233,624.081C789.233,623.381 788.433,622.631 787.883,622.631C787.383,622.631 786.633,623.781 786.333,623.981C785.233,624.931 783.583,625.981 781.783,626.731C781.533,626.831 781.433,626.981 781.433,627.131C781.433,627.581 782.233,628.031 782.883,628.031C782.983,628.031 783.133,628.031 783.233,627.981C784.433,627.581 785.933,626.931 786.933,626.231L786.933,646.531Z" style="fill-rule:nonzero;"/>
        </g>
    </g>
</svg>
