<?xml version="1.0" encoding="UTF-8" standalone="no"?>
<!DOCTYPE svg PUBLIC "-//W3C//DTD SVG 1.1//EN" "http://www.w3.org/Graphics/SVG/1.1/DTD/svg11.dtd">
<svg width="100%" height="100%" viewBox="0 0 96 96" version="1.1" xmlns="http://www.w3.org/2000/svg" xmlns:xlink="http://www.w3.org/1999/xlink" xml:space="preserve" xmlns:serif="http://www.serif.com/" style="fill-rule:evenodd;clip-rule:evenodd;stroke-linejoin:round;stroke-miterlimit:2;">
    <g transform="matrix(1,0,0,1,-1009.63,-2423.28)">
        <g transform="matrix(1,0,0,1,-110.019,-3591.86)">
            <path d="M1215.25,6062.94C1215.25,6036.55 1193.85,6015.15 1167.45,6015.15C1141.05,6015.15 1119.65,6036.55 1119.65,6062.94C1119.65,6089.35 1141.05,6110.65 1167.45,6110.65C1193.85,6110.65 1215.25,6089.35 1215.25,6062.94ZM1211.15,6062.94C1211.15,6087.05 1191.55,6106.55 1167.45,6106.55C1143.35,6106.55 1123.75,6087.05 1123.75,6062.94C1123.75,6038.85 1143.35,6019.24 1167.45,6019.24C1191.55,6019.24 1211.15,6038.85 1211.15,6062.94ZM1171.75,6035.05C1173.75,6035.05 1174.95,6033.74 1174.95,6031.65C1174.95,6029.44 1172.85,6027.05 1170.95,6027.05C1168.85,6027.05 1167.75,6028.35 1167.75,6030.55C1167.75,6032.55 1169.65,6035.05 1171.75,6035.05ZM1169.05,6088.85C1169.05,6091.44 1168.25,6095.35 1165.05,6095.35C1163.65,6095.35 1161.55,6095.15 1159.85,6093.15C1159.45,6092.65 1159.05,6092.44 1158.55,6092.44C1157.45,6092.44 1156.35,6094.24 1156.35,6095.65C1156.35,6096.24 1156.55,6096.74 1156.95,6097.05C1159.85,6099.65 1162.75,6099.74 1165.05,6099.74C1172.15,6099.74 1173.65,6093.44 1173.65,6088.74L1173.65,6055.24C1173.65,6053.15 1173.85,6048.65 1173.85,6047.35C1173.85,6045.94 1171.65,6045.05 1170.15,6045.05C1169.45,6045.05 1168.85,6045.24 1168.85,6045.85C1168.85,6047.74 1169.05,6053.65 1169.05,6055.24L1169.05,6088.85Z" style="fill-rule:nonzero;"/>
        </g>
    </g>
</svg>
