<?xml version="1.0" encoding="UTF-8" standalone="no"?>
<!DOCTYPE svg PUBLIC "-//W3C//DTD SVG 1.1//EN" "http://www.w3.org/Graphics/SVG/1.1/DTD/svg11.dtd">
<svg width="100%" height="100%" viewBox="0 0 96 96" version="1.1" xmlns="http://www.w3.org/2000/svg" xmlns:xlink="http://www.w3.org/1999/xlink" xml:space="preserve" xmlns:serif="http://www.serif.com/" style="fill-rule:evenodd;clip-rule:evenodd;stroke-linejoin:round;stroke-miterlimit:2;">
    <g transform="matrix(1,0,0,1,-809.628,-2573.28)">
        <g transform="matrix(1,0,0,1,-110.019,-3591.86)">
            <path d="M1015.25,6212.94C1015.25,6186.55 993.848,6165.15 967.448,6165.15C941.048,6165.15 919.648,6186.55 919.648,6212.94C919.648,6239.35 941.048,6260.65 967.448,6260.65C993.848,6260.65 1015.25,6239.35 1015.25,6212.94ZM1011.15,6212.94C1011.15,6237.05 991.548,6256.55 967.448,6256.55C943.348,6256.55 923.748,6237.05 923.748,6212.94C923.748,6188.85 943.348,6169.24 967.448,6169.24C991.548,6169.24 1011.15,6188.85 1011.15,6212.94ZM979.948,6228.85L971.248,6200.15C970.948,6198.94 970.648,6197.74 970.448,6196.55C970.348,6195.55 968.048,6194.65 966.348,6194.65C965.448,6194.65 964.748,6194.85 964.648,6195.55C964.348,6197.44 964.048,6199.15 963.548,6200.94L953.748,6228.85L945.748,6199.74L944.848,6195.44C944.548,6194.35 942.848,6193.74 941.348,6193.74C940.048,6193.74 939.048,6194.15 939.048,6194.94C939.048,6195.05 939.048,6195.15 939.148,6195.35C940.048,6197.35 940.548,6199.05 941.048,6200.35L949.648,6230.35C950.348,6232.44 950.248,6233.24 951.148,6234.15C951.848,6234.85 953.248,6235.65 954.448,6235.65C955.348,6235.65 956.248,6235.24 956.648,6233.85C957.148,6232.05 957.448,6230.65 958.148,6228.74L967.548,6202.35L975.848,6230.35C976.248,6231.85 976.248,6233.24 977.148,6234.15C977.848,6234.85 979.348,6235.65 980.648,6235.65C981.648,6235.65 982.648,6235.24 982.948,6233.85C983.448,6231.94 984.048,6230.05 984.548,6228.74L994.148,6201.35C994.648,6199.94 995.648,6197.35 996.448,6195.65C996.448,6195.55 996.548,6195.44 996.548,6195.24C996.548,6194.15 994.348,6193.15 992.848,6193.15C992.048,6193.15 991.448,6193.44 991.348,6194.05C990.848,6196.15 990.248,6198.35 989.748,6199.94L979.948,6228.85Z" style="fill-rule:nonzero;"/>
        </g>
    </g>
</svg>
