<?xml version="1.0" encoding="UTF-8" standalone="no"?>
<!DOCTYPE svg PUBLIC "-//W3C//DTD SVG 1.1//EN" "http://www.w3.org/Graphics/SVG/1.1/DTD/svg11.dtd">
<svg width="100%" height="100%" viewBox="0 0 96 96" version="1.1" xmlns="http://www.w3.org/2000/svg" xmlns:xlink="http://www.w3.org/1999/xlink" xml:space="preserve" xmlns:serif="http://www.serif.com/" style="fill-rule:evenodd;clip-rule:evenodd;stroke-linejoin:round;stroke-miterlimit:2;">
    <g transform="matrix(1,0,0,1,-891.528,-1565.55)">
        <g transform="matrix(2,0,0,2,-952.938,-710.212)">
            <path d="M970.033,1161.78C970.033,1148.58 959.333,1137.88 946.133,1137.88C932.933,1137.88 922.233,1148.58 922.233,1161.78C922.233,1174.98 932.933,1185.63 946.133,1185.63C959.333,1185.63 970.033,1174.98 970.033,1161.78ZM967.983,1161.78C967.983,1173.83 958.183,1183.58 946.133,1183.58C934.083,1183.58 924.283,1173.83 924.283,1161.78C924.283,1149.73 934.083,1139.93 946.133,1139.93C958.183,1139.93 967.983,1149.73 967.983,1161.78ZM950.033,1161.53C952.683,1154.68 955.433,1150.58 956.533,1149.08C956.683,1148.88 956.933,1148.53 956.933,1148.28C956.933,1147.93 956.283,1147.38 955.433,1147.38C955.083,1147.38 954.733,1147.53 954.583,1147.88C954.433,1148.08 954.183,1148.58 954.083,1148.68C952.683,1151.03 951.233,1153.98 949.683,1157.53C948.083,1161.18 947.233,1164.53 947.233,1167.88C947.233,1172.48 950.483,1176.23 954.783,1176.23C959.483,1176.23 962.333,1172.13 962.333,1166.78C962.333,1161.98 959.533,1158.43 955.383,1158.43C953.083,1158.43 951.183,1159.63 950.033,1161.53ZM940.333,1176.03C941.183,1175.98 941.683,1175.73 941.733,1175.23C942.033,1171.58 943.833,1159.88 945.483,1151.48C945.533,1151.23 945.783,1150.58 945.933,1150.03L945.933,1149.88C945.933,1149.28 945.233,1148.53 944.483,1148.53C943.783,1148.53 943.933,1149.78 943.683,1150.83C943.233,1149.73 941.633,1147.43 938.333,1147.43C933.633,1147.43 930.083,1152.73 930.083,1158.08C930.083,1162.58 932.283,1165.18 935.433,1165.18C937.933,1165.18 940.533,1163.33 941.983,1160.58C941.383,1164.13 940.683,1168.28 940.233,1171.38C940.133,1172.08 939.883,1173.28 939.683,1174.43C939.633,1174.78 939.533,1175.13 939.533,1175.38C939.533,1175.78 939.683,1176.03 940.283,1176.03L940.333,1176.03ZM954.783,1174.23C951.533,1174.23 949.233,1171.43 949.233,1167.83C949.233,1163.88 951.583,1160.48 955.333,1160.48C958.433,1160.48 960.333,1163.48 960.333,1166.88C960.333,1171.18 957.983,1174.23 954.783,1174.23ZM943.033,1154.53C941.383,1160.48 938.283,1163.03 935.433,1163.03C933.183,1163.03 932.033,1161.28 932.033,1157.93C932.033,1154.28 934.383,1149.48 938.533,1149.48C940.933,1149.48 941.933,1151.38 942.383,1152.48C942.533,1152.83 942.683,1152.98 942.883,1152.98C943.083,1152.98 943.233,1152.83 943.433,1152.63L943.033,1154.53Z" style="fill-rule:nonzero;"/>
        </g>
    </g>
</svg>
