<?xml version="1.0" encoding="UTF-8" standalone="no"?>
<!DOCTYPE svg PUBLIC "-//W3C//DTD SVG 1.1//EN" "http://www.w3.org/Graphics/SVG/1.1/DTD/svg11.dtd">
<svg width="100%" height="100%" viewBox="0 0 96 96" version="1.1" xmlns="http://www.w3.org/2000/svg" xmlns:xlink="http://www.w3.org/1999/xlink" xml:space="preserve" xmlns:serif="http://www.serif.com/" style="fill-rule:evenodd;clip-rule:evenodd;stroke-linejoin:round;stroke-miterlimit:2;">
    <g transform="matrix(1,0,0,1,-491.528,-665.55)">
        <g transform="matrix(2,0,0,2,-952.938,-710.212)">
            <path d="M770.033,711.781C770.033,698.581 759.333,687.881 746.133,687.881C732.933,687.881 722.233,698.581 722.233,711.781C722.233,724.981 732.933,735.631 746.133,735.631C759.333,735.631 770.033,724.981 770.033,711.781ZM767.983,711.781C767.983,723.831 758.183,733.581 746.133,733.581C734.083,733.581 724.283,723.831 724.283,711.781C724.283,699.731 734.083,689.931 746.133,689.931C758.183,689.931 767.983,699.731 767.983,711.781ZM731.433,725.731C732.533,725.431 733.433,725.281 737.033,725.281C741.633,725.281 744.333,725.481 744.783,725.531C745.083,725.531 745.233,725.331 745.233,725.031C745.233,724.331 744.683,723.231 744.083,723.231C743.633,723.231 742.433,723.281 741.833,723.281C740.333,723.281 739.183,723.231 737.383,723.231C735.983,723.231 733.933,723.331 732.583,723.481C733.883,720.831 736.033,716.881 739.233,713.731C742.583,710.431 744.933,707.631 744.933,703.981C744.933,700.181 742.433,697.431 738.483,697.431C734.783,697.431 732.283,699.431 730.833,702.331C730.683,702.531 730.633,702.781 730.633,703.031C730.633,703.231 731.183,704.631 731.933,704.631C732.333,704.631 732.633,704.231 732.783,703.681C733.583,701.331 735.533,699.481 738.383,699.481C741.133,699.481 742.683,701.531 742.683,703.981C742.683,706.581 740.833,709.031 737.883,712.081C734.833,715.181 732.333,719.431 730.933,722.281C730.733,722.681 730.483,722.981 730.183,723.431C730.083,723.581 730.033,723.781 730.033,724.031C730.033,724.831 730.633,725.731 731.283,725.731L731.433,725.731ZM749.283,711.531C749.883,710.231 750.133,709.481 750.633,708.481C751.983,705.681 753.833,702.181 756.183,699.081C756.333,698.881 756.583,698.531 756.583,698.281C756.583,697.531 755.333,697.381 755.033,697.381C754.633,697.381 754.283,697.531 754.133,697.881C753.983,698.081 753.683,698.581 753.583,698.681C752.133,701.031 750.583,703.981 748.933,707.531C747.233,711.181 746.383,714.531 746.383,717.881C746.383,722.481 749.783,726.231 754.333,726.231C759.283,726.231 762.283,722.131 762.283,716.781C762.283,711.981 759.333,708.431 754.933,708.431C752.533,708.431 750.533,709.631 749.283,711.531ZM754.333,724.231C750.883,724.231 748.433,721.431 748.433,717.831C748.433,713.881 750.983,710.481 754.883,710.481C758.183,710.481 760.183,713.481 760.183,716.881C760.183,721.181 757.683,724.231 754.333,724.231Z" style="fill-rule:nonzero;"/>
        </g>
    </g>
</svg>
