<?xml version="1.0" encoding="UTF-8" standalone="no"?>
<!DOCTYPE svg PUBLIC "-//W3C//DTD SVG 1.1//EN" "http://www.w3.org/Graphics/SVG/1.1/DTD/svg11.dtd">
<svg width="100%" height="100%" viewBox="0 0 96 96" version="1.1" xmlns="http://www.w3.org/2000/svg" xmlns:xlink="http://www.w3.org/1999/xlink" xml:space="preserve" xmlns:serif="http://www.serif.com/" style="fill-rule:evenodd;clip-rule:evenodd;stroke-linejoin:round;stroke-miterlimit:2;">
    <g transform="matrix(1,0,0,1,-991.528,-365.55)">
        <g transform="matrix(2,0,0,2,-952.938,-710.212)">
            <path d="M1020.03,561.781C1020.03,548.581 1009.33,537.881 996.133,537.881C982.933,537.881 972.233,548.581 972.233,561.781C972.233,574.981 982.933,585.631 996.133,585.631C1009.33,585.631 1020.03,574.981 1020.03,561.781ZM1017.98,561.781C1017.98,573.831 1008.18,583.581 996.133,583.581C984.083,583.581 974.283,573.831 974.283,561.781C974.283,549.731 984.083,539.931 996.133,539.931C1008.18,539.931 1017.98,549.731 1017.98,561.781ZM997.383,549.831C997.283,549.681 997.083,549.531 996.783,549.531C995.783,549.531 993.133,554.881 993.133,562.231C993.133,570.331 995.733,576.231 1001.13,576.231C1006.78,576.231 1009.43,569.331 1009.43,561.181C1009.43,553.231 1006.88,547.381 1002.08,547.381C1000.18,547.381 998.533,548.331 997.383,549.831ZM984.983,571.531C984.983,572.381 984.883,574.381 984.883,575.031C984.883,575.631 985.883,576.081 986.583,576.081C986.883,576.081 987.183,575.981 987.183,575.681C987.133,574.681 987.083,572.381 987.083,571.281L987.083,551.531C987.083,550.431 987.283,549.731 987.283,549.081C987.283,548.331 986.483,547.631 985.983,547.631C985.433,547.631 984.683,548.781 984.433,548.981C983.333,549.931 981.633,550.981 979.883,551.731C979.583,551.831 979.533,551.981 979.533,552.131C979.533,552.581 980.333,553.031 980.933,553.031C981.083,553.031 981.183,553.031 981.283,552.981C982.533,552.581 983.983,551.931 984.983,551.231L984.983,571.531ZM1000.98,574.131C996.783,574.131 995.183,568.631 995.183,562.181C995.183,553.631 999.033,549.381 1001.93,549.381C1005.88,549.381 1007.43,555.431 1007.43,560.881C1007.43,567.631 1005.58,574.131 1000.98,574.131Z" style="fill-rule:nonzero;"/>
        </g>
    </g>
</svg>
