<?xml version="1.0" encoding="UTF-8" standalone="no"?>
<!DOCTYPE svg PUBLIC "-//W3C//DTD SVG 1.1//EN" "http://www.w3.org/Graphics/SVG/1.1/DTD/svg11.dtd">
<svg width="100%" height="100%" viewBox="0 0 96 96" version="1.1" xmlns="http://www.w3.org/2000/svg" xmlns:xlink="http://www.w3.org/1999/xlink" xml:space="preserve" xmlns:serif="http://www.serif.com/" style="fill-rule:evenodd;clip-rule:evenodd;stroke-linejoin:round;stroke-miterlimit:2;">
    <g transform="matrix(1,0,0,1,-609.628,-2423.28)">
        <g transform="matrix(1,0,0,1,-110.019,-3591.86)">
            <path d="M815.248,6062.94C815.248,6036.55 793.848,6015.15 767.448,6015.15C741.048,6015.15 719.648,6036.55 719.648,6062.94C719.648,6089.35 741.048,6110.65 767.448,6110.65C793.848,6110.65 815.248,6089.35 815.248,6062.94ZM811.148,6062.94C811.148,6087.05 791.548,6106.55 767.448,6106.55C743.348,6106.55 723.748,6087.05 723.748,6062.94C723.748,6038.85 743.348,6019.24 767.448,6019.24C791.548,6019.24 811.148,6038.85 811.148,6062.94ZM763.248,6082.35C763.248,6085.24 763.048,6089.35 763.048,6090.74C763.048,6092.05 765.248,6093.05 766.748,6093.05C767.448,6093.05 768.048,6092.74 768.048,6092.24C768.048,6090.24 767.848,6086.74 767.848,6083.24L767.848,6055.35L771.148,6055.15L779.348,6055.15C779.948,6055.15 780.248,6054.74 780.248,6054.15C780.248,6052.94 779.048,6051.05 777.648,6051.05L777.548,6051.05L770.248,6051.55L767.848,6051.65L767.848,6042.05C767.848,6038.35 770.248,6036.55 772.548,6036.55C774.448,6036.55 777.048,6037.24 778.448,6039.74C778.848,6040.44 779.248,6040.65 779.648,6040.65C780.748,6040.65 781.848,6038.65 781.848,6037.15C781.848,6036.65 781.748,6036.24 781.548,6035.94C779.048,6033.05 775.648,6032.15 772.648,6032.15C767.748,6032.15 763.248,6035.65 763.248,6042.15L763.248,6051.74L760.648,6051.85L754.348,6051.85C753.748,6051.85 753.448,6052.24 753.448,6052.74C753.448,6053.94 754.748,6055.85 756.148,6055.85C756.148,6055.85 759.048,6055.65 761.548,6055.55L763.248,6055.44L763.248,6082.35Z" style="fill-rule:nonzero;"/>
        </g>
    </g>
</svg>
