<?xml version="1.0" encoding="UTF-8" standalone="no"?>
<!DOCTYPE svg PUBLIC "-//W3C//DTD SVG 1.1//EN" "http://www.w3.org/Graphics/SVG/1.1/DTD/svg11.dtd">
<svg width="100%" height="100%" viewBox="0 0 96 96" version="1.1" xmlns="http://www.w3.org/2000/svg" xmlns:xlink="http://www.w3.org/1999/xlink" xml:space="preserve" xmlns:serif="http://www.serif.com/" style="fill-rule:evenodd;clip-rule:evenodd;stroke-linejoin:round;stroke-miterlimit:2;">
    <g transform="matrix(1,0,0,1,-1091.53,-1565.55)">
        <g transform="matrix(2,0,0,2,-952.938,-710.212)">
            <path d="M1070.03,1161.78C1070.03,1148.58 1059.33,1137.88 1046.13,1137.88C1032.93,1137.88 1022.23,1148.58 1022.23,1161.78C1022.23,1174.98 1032.93,1185.63 1046.13,1185.63C1059.33,1185.63 1070.03,1174.98 1070.03,1161.78ZM1067.98,1161.78C1067.98,1173.83 1058.18,1183.58 1046.13,1183.58C1034.08,1183.58 1024.28,1173.83 1024.28,1161.78C1024.28,1149.73 1034.08,1139.93 1046.13,1139.93C1058.18,1139.93 1067.98,1149.73 1067.98,1161.78ZM1055.68,1159.68C1058.83,1157.18 1061.83,1153.68 1061.83,1152.58C1061.83,1152.13 1061.58,1151.83 1061.28,1151.83C1061.03,1151.83 1060.78,1151.93 1060.48,1152.28L1060.28,1152.48C1060.43,1152.23 1060.53,1151.93 1060.53,1151.73C1060.53,1151.58 1060.48,1151.43 1060.43,1151.33C1059.13,1149.23 1057.23,1147.48 1054.58,1147.48C1050.48,1147.48 1048.13,1150.58 1048.13,1154.03C1048.13,1156.63 1048.98,1158.28 1052.08,1160.08C1048.93,1162.53 1047.08,1165.23 1047.08,1168.78C1047.08,1172.98 1049.68,1176.23 1054.03,1176.23C1058.83,1176.23 1062.03,1173.08 1062.03,1168.23C1062.03,1164.43 1060.13,1161.93 1056.13,1159.88L1055.68,1159.68ZM1039.88,1176.03C1040.68,1175.98 1041.18,1175.73 1041.23,1175.23C1041.58,1171.18 1043.63,1158.38 1045.03,1151.48C1045.08,1151.23 1045.33,1150.58 1045.43,1150.03L1045.43,1149.88C1045.43,1149.28 1044.78,1148.53 1044.03,1148.53C1043.28,1148.53 1043.48,1149.78 1043.23,1150.83C1042.73,1149.73 1041.18,1147.43 1037.83,1147.43C1033.18,1147.43 1029.58,1152.73 1029.58,1158.08C1029.58,1162.58 1031.78,1165.18 1034.98,1165.18C1037.43,1165.18 1040.03,1163.33 1041.48,1160.58C1040.88,1164.58 1039.93,1170.13 1039.18,1174.43C1039.13,1174.78 1039.03,1175.13 1039.03,1175.38C1039.03,1175.78 1039.18,1176.03 1039.78,1176.03L1039.88,1176.03ZM1042.93,1152.63C1042.23,1155.73 1042.08,1156.33 1041.58,1157.33C1039.83,1160.78 1037.93,1163.03 1034.93,1163.03C1032.68,1163.03 1031.58,1161.28 1031.58,1157.93C1031.58,1154.28 1033.93,1149.48 1038.03,1149.48C1040.43,1149.48 1041.48,1151.38 1041.93,1152.48C1042.03,1152.83 1042.23,1152.98 1042.43,1152.98C1042.58,1152.98 1042.73,1152.83 1042.93,1152.63ZM1054.78,1161.43C1058.78,1163.48 1060.03,1165.53 1060.03,1168.43C1060.03,1171.83 1057.48,1174.13 1054.03,1174.13C1050.53,1174.13 1049.03,1171.38 1049.03,1168.68C1049.03,1165.83 1050.83,1163.53 1053.93,1161.03L1054.78,1161.43ZM1053.88,1158.68C1050.93,1157.18 1050.08,1156.08 1050.08,1154.03C1050.08,1151.73 1051.58,1149.48 1054.63,1149.48C1056.63,1149.48 1057.78,1150.73 1058.78,1152.63C1058.98,1153.03 1059.23,1153.18 1059.43,1153.18C1059.48,1153.18 1059.63,1153.18 1059.68,1153.13C1058.03,1155.08 1056.13,1157.03 1053.88,1158.68Z" style="fill-rule:nonzero;"/>
        </g>
    </g>
</svg>
