<?xml version="1.0" encoding="UTF-8" standalone="no"?>
<!DOCTYPE svg PUBLIC "-//W3C//DTD SVG 1.1//EN" "http://www.w3.org/Graphics/SVG/1.1/DTD/svg11.dtd">
<svg width="100%" height="100%" viewBox="0 0 96 96" version="1.1" xmlns="http://www.w3.org/2000/svg" xmlns:xlink="http://www.w3.org/1999/xlink" xml:space="preserve" xmlns:serif="http://www.serif.com/" style="fill-rule:evenodd;clip-rule:evenodd;stroke-linejoin:round;stroke-miterlimit:2;">
    <g transform="matrix(1,0,0,1,-991.528,-815.55)">
        <g transform="matrix(2,0,0,2,-952.938,-710.212)">
            <path d="M1020.03,786.781C1020.03,773.581 1009.33,762.881 996.133,762.881C982.933,762.881 972.233,773.581 972.233,786.781C972.233,799.981 982.933,810.631 996.133,810.631C1009.33,810.631 1020.03,799.981 1020.03,786.781ZM1017.98,786.781C1017.98,798.831 1008.18,808.581 996.133,808.581C984.083,808.581 974.283,798.831 974.283,786.781C974.283,774.731 984.083,764.931 996.133,764.931C1008.18,764.931 1017.98,774.731 1017.98,786.781ZM998.533,800.731C999.333,800.531 1000.98,800.231 1003.83,800.231C1007.18,800.231 1010.08,800.381 1011.18,800.531C1011.48,800.531 1011.58,800.331 1011.58,800.031C1011.58,799.331 1011.08,798.231 1010.53,798.231C1010.08,798.231 1008.93,798.281 1008.38,798.281C1006.98,798.281 1005.88,798.231 1004.18,798.231C1002.88,798.231 1000.93,798.331 999.633,798.481C1000.83,795.831 1002.93,791.881 1005.93,788.731C1009.08,785.431 1011.33,782.631 1011.33,778.981C1011.33,775.181 1008.93,772.431 1005.18,772.431C1001.73,772.431 999.333,774.431 997.983,777.331C997.833,777.531 997.783,777.781 997.783,778.031C997.783,778.431 998.033,778.881 998.533,779.381C998.733,779.581 998.833,779.631 999.033,779.631C999.383,779.631 999.633,779.231 999.833,778.681C1000.58,776.331 1002.43,774.481 1005.13,774.481C1007.73,774.481 1009.23,776.531 1009.23,778.981C1009.23,781.581 1007.43,784.031 1004.63,787.081C1001.78,790.181 999.383,794.431 998.083,797.281C997.883,797.681 997.633,797.981 997.333,798.431C997.283,798.581 997.233,798.781 997.233,799.031C997.233,799.831 997.783,800.731 998.433,800.731L998.533,800.731ZM993.083,794.231C993.983,794.231 995.233,794.331 995.733,794.331C995.983,794.331 996.033,794.081 996.033,793.781C996.033,793.081 995.533,791.981 994.983,791.981C994.583,791.981 993.633,792.181 993.033,792.231L992.433,792.281L992.433,784.081C992.433,783.081 992.533,781.181 992.533,780.581C992.533,779.881 991.633,779.431 990.983,779.431C990.633,779.431 990.383,779.581 990.383,779.831C990.383,780.731 990.483,783.281 990.483,784.081L990.483,792.381L982.533,792.581C984.883,787.881 987.933,781.481 989.833,777.131C990.133,776.481 990.633,775.581 991.033,774.931C991.083,774.831 991.083,774.681 991.083,774.531C991.083,773.681 990.133,772.531 989.583,772.531C989.433,772.531 989.283,772.581 989.283,772.781C986.983,779.031 983.433,786.381 981.383,790.431C981.083,790.981 980.633,791.581 980.233,792.281C980.083,792.531 980.033,792.831 980.033,793.031C980.033,793.981 980.833,794.881 981.533,794.881C981.583,794.881 981.633,794.831 981.733,794.831C982.233,794.681 982.733,794.581 982.983,794.581L990.483,794.331L990.483,796.481C990.483,797.081 990.383,799.331 990.383,799.981C990.383,800.631 991.383,801.081 992.033,801.081C992.383,801.081 992.633,800.931 992.633,800.681C992.633,799.781 992.433,798.181 992.433,796.581L992.433,794.231L993.083,794.231Z" style="fill-rule:nonzero;"/>
        </g>
    </g>
</svg>
