<?xml version="1.0" encoding="UTF-8" standalone="no"?>
<!DOCTYPE svg PUBLIC "-//W3C//DTD SVG 1.1//EN" "http://www.w3.org/Graphics/SVG/1.1/DTD/svg11.dtd">
<svg width="100%" height="100%" viewBox="0 0 96 96" version="1.1" xmlns="http://www.w3.org/2000/svg" xmlns:xlink="http://www.w3.org/1999/xlink" xml:space="preserve" xmlns:serif="http://www.serif.com/" style="fill-rule:evenodd;clip-rule:evenodd;stroke-linejoin:round;stroke-miterlimit:2;">
    <g transform="matrix(1,0,0,1,-691.528,-1115.55)">
        <g transform="matrix(2,0,0,2,-952.938,-710.212)">
            <path d="M870.033,936.781C870.033,923.581 859.333,912.881 846.133,912.881C832.933,912.881 822.233,923.581 822.233,936.781C822.233,949.981 832.933,960.631 846.133,960.631C859.333,960.631 870.033,949.981 870.033,936.781ZM867.983,936.781C867.983,948.831 858.183,958.581 846.133,958.581C834.083,958.581 824.283,948.831 824.283,936.781C824.283,924.731 834.083,914.931 846.133,914.931C858.183,914.931 867.983,924.731 867.983,936.781ZM835.183,936.531C835.783,935.231 836.033,934.481 836.533,933.481C837.883,930.681 839.733,927.181 842.083,924.081C842.233,923.881 842.483,923.531 842.483,923.281C842.483,922.531 841.233,922.381 840.933,922.381C840.533,922.381 840.183,922.531 840.033,922.881C839.883,923.081 839.583,923.581 839.483,923.681C838.033,926.031 836.483,928.981 834.833,932.531C833.133,936.181 832.283,939.531 832.283,942.881C832.283,947.481 835.683,951.231 840.233,951.231C845.183,951.231 848.183,947.131 848.183,941.781C848.183,936.981 845.233,933.431 840.833,933.431C838.433,933.431 836.433,934.631 835.183,936.531ZM855.983,946.531C855.983,947.381 855.883,949.381 855.883,950.031C855.883,950.631 856.883,951.081 857.583,951.081C857.883,951.081 858.183,950.981 858.183,950.681C858.133,949.681 858.083,947.381 858.083,946.281L858.083,926.531C858.083,925.431 858.283,924.731 858.283,924.081C858.283,923.331 857.483,922.631 856.983,922.631C856.433,922.631 855.683,923.781 855.433,923.981C854.333,924.931 852.633,925.981 850.883,926.731C850.583,926.831 850.533,926.981 850.533,927.131C850.533,927.581 851.333,928.031 851.933,928.031C852.083,928.031 852.183,928.031 852.283,927.981C853.533,927.581 854.983,926.931 855.983,926.231L855.983,946.531ZM840.233,949.231C836.783,949.231 834.333,946.431 834.333,942.831C834.333,938.881 836.883,935.481 840.783,935.481C844.083,935.481 846.083,938.481 846.083,941.881C846.083,946.181 843.583,949.231 840.233,949.231Z" style="fill-rule:nonzero;"/>
        </g>
    </g>
</svg>
