<?xml version="1.0" encoding="UTF-8" standalone="no"?>
<!DOCTYPE svg PUBLIC "-//W3C//DTD SVG 1.1//EN" "http://www.w3.org/Graphics/SVG/1.1/DTD/svg11.dtd">
<svg width="100%" height="100%" viewBox="0 0 96 96" version="1.1" xmlns="http://www.w3.org/2000/svg" xmlns:xlink="http://www.w3.org/1999/xlink" xml:space="preserve" xmlns:serif="http://www.serif.com/" style="fill-rule:evenodd;clip-rule:evenodd;stroke-linejoin:round;stroke-miterlimit:2;">
    <g transform="matrix(1,0,0,1,-1009.63,-2573.28)">
        <g transform="matrix(1,0,0,1,-110.019,-3591.86)">
            <path d="M1215.25,6212.94C1215.25,6186.55 1193.85,6165.15 1167.45,6165.15C1141.05,6165.15 1119.65,6186.55 1119.65,6212.94C1119.65,6239.35 1141.05,6260.65 1167.45,6260.65C1193.85,6260.65 1215.25,6239.35 1215.25,6212.94ZM1211.15,6212.94C1211.15,6237.05 1191.55,6256.55 1167.45,6256.55C1143.35,6256.55 1123.75,6237.05 1123.75,6212.94C1123.75,6188.85 1143.35,6169.24 1167.45,6169.24C1191.55,6169.24 1211.15,6188.85 1211.15,6212.94ZM1156.85,6242.35C1161.15,6242.35 1163.75,6240.24 1166.05,6235.44L1183.95,6197.74C1184.95,6195.65 1186.35,6193.24 1187.25,6191.55C1187.45,6191.24 1187.55,6190.85 1187.55,6190.55C1187.55,6188.85 1185.45,6187.44 1184.05,6187.44C1183.45,6187.44 1183.05,6187.65 1182.85,6188.15C1181.95,6190.85 1180.75,6193.74 1179.65,6196.05L1168.45,6219.44L1157.85,6195.24L1155.25,6188.94C1155.05,6188.24 1153.65,6187.85 1152.25,6187.85C1150.85,6187.85 1149.55,6188.24 1149.55,6189.05C1149.55,6189.15 1149.65,6189.35 1149.75,6189.55C1150.75,6191.24 1152.45,6194.74 1153.25,6196.44L1166.05,6224.94L1162.25,6232.85C1160.65,6236.24 1158.35,6237.85 1156.55,6237.85C1155.05,6237.85 1153.05,6237.65 1151.55,6236.05C1151.15,6235.65 1150.85,6235.44 1150.45,6235.44C1149.15,6235.44 1148.05,6237.55 1148.05,6238.94C1148.05,6239.44 1148.15,6239.85 1148.45,6240.05C1150.95,6242.24 1153.65,6242.35 1155.85,6242.35L1156.85,6242.35Z" style="fill-rule:nonzero;"/>
        </g>
    </g>
</svg>
