<?xml version="1.0" encoding="UTF-8" standalone="no"?>
<!DOCTYPE svg PUBLIC "-//W3C//DTD SVG 1.1//EN" "http://www.w3.org/Graphics/SVG/1.1/DTD/svg11.dtd">
<svg width="100%" height="100%" viewBox="0 0 96 96" version="1.1" xmlns="http://www.w3.org/2000/svg" xmlns:xlink="http://www.w3.org/1999/xlink" xml:space="preserve" xmlns:serif="http://www.serif.com/" style="fill-rule:evenodd;clip-rule:evenodd;stroke-linejoin:round;stroke-miterlimit:2;">
    <g transform="matrix(1,0,0,1,-291.528,-1415.55)">
        <g transform="matrix(2,0,0,2,-952.938,-710.212)">
            <path d="M670.033,1086.78C670.033,1073.58 659.333,1062.88 646.133,1062.88C632.933,1062.88 622.233,1073.58 622.233,1086.78C622.233,1099.98 632.933,1110.63 646.133,1110.63C659.333,1110.63 670.033,1099.98 670.033,1086.78ZM667.983,1086.78C667.983,1098.83 658.183,1108.58 646.133,1108.58C634.083,1108.58 624.283,1098.83 624.283,1086.78C624.283,1074.73 634.083,1064.93 646.133,1064.93C658.183,1064.93 667.983,1074.73 667.983,1086.78ZM656.583,1101.03C657.483,1100.98 658.033,1100.73 658.083,1100.18C658.233,1096.98 661.033,1081.13 662.033,1076.48C662.083,1076.23 662.333,1075.58 662.483,1075.03L662.483,1074.88C662.483,1074.28 661.783,1073.53 660.983,1073.53C660.233,1073.53 660.383,1074.78 660.133,1075.83C659.633,1074.73 657.983,1072.43 654.483,1072.43C649.533,1072.43 645.783,1077.73 645.783,1083.08C645.783,1087.58 648.083,1090.18 651.433,1090.18C654.033,1090.18 656.783,1088.33 658.333,1085.53C657.733,1089.13 656.983,1093.28 656.483,1096.38C655.733,1099.88 655.733,1100.28 655.733,1100.38C655.733,1100.78 655.883,1101.03 656.533,1101.03L656.583,1101.03ZM659.433,1079.53C659.283,1080.18 657.083,1087.98 651.383,1087.98C649.033,1087.98 647.833,1086.28 647.833,1082.93C647.833,1079.28 650.333,1074.48 654.633,1074.48C657.233,1074.48 658.283,1076.38 658.783,1077.48C658.933,1077.83 659.083,1077.98 659.283,1077.98C659.483,1077.98 659.633,1077.83 659.833,1077.63L659.433,1079.53ZM644.483,1074.48C644.483,1073.78 643.583,1072.93 643.033,1072.83L642.933,1072.83C642.433,1072.83 641.933,1073.08 641.383,1073.13L631.383,1073.83L630.883,1073.83C630.283,1073.83 629.883,1073.78 629.483,1073.78C629.333,1073.78 629.283,1073.88 629.283,1074.03C629.283,1074.53 629.933,1076.03 631.083,1076.03C631.433,1076.03 631.783,1075.98 632.183,1075.93L641.783,1075.08C637.133,1086.23 633.883,1096.28 632.983,1099.23C632.933,1099.48 632.733,1099.83 632.733,1100.18C632.733,1100.48 632.933,1100.83 633.633,1100.93C633.833,1100.93 634.033,1100.98 634.183,1100.98C634.783,1100.98 635.083,1100.83 635.183,1100.38C636.433,1094.53 640.683,1083.23 643.633,1076.48C643.833,1075.98 644.433,1075.28 644.483,1074.63L644.483,1074.48Z" style="fill-rule:nonzero;"/>
        </g>
    </g>
</svg>
