<?xml version="1.0" encoding="UTF-8" standalone="no"?>
<!DOCTYPE svg PUBLIC "-//W3C//DTD SVG 1.1//EN" "http://www.w3.org/Graphics/SVG/1.1/DTD/svg11.dtd">
<svg width="100%" height="100%" viewBox="0 0 96 96" version="1.1" xmlns="http://www.w3.org/2000/svg" xmlns:xlink="http://www.w3.org/1999/xlink" xml:space="preserve" xmlns:serif="http://www.serif.com/" style="fill-rule:evenodd;clip-rule:evenodd;stroke-linejoin:round;stroke-miterlimit:2;">
    <g transform="matrix(1,0,0,1,-591.528,-1415.55)">
        <g transform="matrix(2,0,0,2,-952.938,-710.212)">
            <path d="M820.033,1086.78C820.033,1073.58 809.333,1062.88 796.133,1062.88C782.933,1062.88 772.233,1073.58 772.233,1086.78C772.233,1099.98 782.933,1110.63 796.133,1110.63C809.333,1110.63 820.033,1099.98 820.033,1086.78ZM817.983,1086.78C817.983,1098.83 808.183,1108.58 796.133,1108.58C784.083,1108.58 774.283,1098.83 774.283,1086.78C774.283,1074.73 784.083,1064.93 796.133,1064.93C808.183,1064.93 817.983,1074.73 817.983,1086.78ZM789.883,1084.68C793.333,1081.93 796.033,1078.38 796.033,1077.58C796.033,1077.13 795.783,1076.83 795.433,1076.83C795.183,1076.83 794.933,1076.93 794.633,1077.28L794.483,1077.48C794.583,1077.23 794.683,1076.93 794.683,1076.73C794.683,1075.83 792.133,1072.48 788.783,1072.48C784.683,1072.48 782.283,1075.58 782.283,1079.03C782.283,1081.63 783.183,1083.28 786.283,1085.08C783.133,1087.53 781.233,1090.23 781.233,1093.78C781.233,1097.98 783.833,1101.23 788.183,1101.23C793.033,1101.23 796.183,1098.08 796.183,1093.23C796.183,1089.43 794.333,1086.93 790.283,1084.88L789.883,1084.68ZM799.583,1100.73C801.233,1100.28 803.183,1100.28 804.883,1100.28C809.083,1100.28 810.233,1100.33 812.233,1100.53C812.483,1100.53 812.633,1100.33 812.633,1100.03C812.633,1099.33 812.083,1098.23 811.583,1098.23C811.133,1098.23 809.983,1098.28 809.383,1098.28C807.983,1098.28 806.883,1098.23 805.233,1098.23C803.883,1098.23 801.933,1098.33 800.683,1098.48C801.883,1095.83 803.933,1091.88 806.933,1088.73C810.133,1085.43 812.383,1082.63 812.383,1078.98C812.383,1075.18 809.983,1072.43 806.233,1072.43C801.133,1072.43 798.833,1077.03 798.833,1078.03C798.833,1078.43 799.033,1078.88 799.583,1079.38C799.733,1079.58 799.883,1079.63 800.033,1079.63C800.433,1079.63 800.683,1079.23 800.833,1078.68C801.583,1076.33 803.433,1074.48 806.133,1074.48C808.733,1074.48 810.233,1076.53 810.233,1078.98C810.233,1081.58 808.483,1084.03 805.633,1087.08C802.783,1090.18 800.383,1094.43 799.083,1097.28C798.883,1097.68 798.683,1097.98 798.383,1098.43C798.283,1098.58 798.233,1098.78 798.233,1099.03C798.233,1099.83 798.833,1100.73 799.433,1100.73L799.583,1100.73ZM788.933,1086.43C792.983,1088.48 794.233,1090.53 794.233,1093.43C794.233,1096.83 791.683,1099.13 788.183,1099.13C784.733,1099.13 783.233,1096.38 783.233,1093.68C783.233,1090.83 785.033,1088.53 788.133,1086.03L788.933,1086.43ZM793.933,1078.08C792.283,1080.03 790.333,1082.03 788.083,1083.68C785.133,1082.18 784.283,1081.08 784.283,1079.03C784.283,1076.73 785.783,1074.48 788.833,1074.48C790.783,1074.48 791.983,1075.73 792.983,1077.63C793.183,1078.03 793.383,1078.18 793.583,1078.18C793.733,1078.18 793.833,1078.13 793.933,1078.08Z" style="fill-rule:nonzero;"/>
        </g>
    </g>
</svg>
