<?xml version="1.0" encoding="UTF-8" standalone="no"?>
<!DOCTYPE svg PUBLIC "-//W3C//DTD SVG 1.1//EN" "http://www.w3.org/Graphics/SVG/1.1/DTD/svg11.dtd">
<svg width="100%" height="100%" viewBox="0 0 96 96" version="1.1" xmlns="http://www.w3.org/2000/svg" xmlns:xlink="http://www.w3.org/1999/xlink" xml:space="preserve" xmlns:serif="http://www.serif.com/" style="fill-rule:evenodd;clip-rule:evenodd;stroke-linejoin:round;stroke-miterlimit:2;">
    <g transform="matrix(1,0,0,1,-391.528,-965.55)">
        <g transform="matrix(2,0,0,2,-952.938,-710.212)">
            <path d="M720.033,861.781C720.033,848.581 709.333,837.881 696.133,837.881C682.933,837.881 672.233,848.581 672.233,861.781C672.233,874.981 682.933,885.631 696.133,885.631C709.333,885.631 720.033,874.981 720.033,861.781ZM717.983,861.781C717.983,873.831 708.183,883.581 696.133,883.581C684.083,883.581 674.283,873.831 674.283,861.781C674.283,849.731 684.083,839.931 696.133,839.931C708.183,839.931 717.983,849.731 717.983,861.781ZM693.583,869.231C694.533,869.231 695.883,869.331 696.333,869.331C696.633,869.331 696.683,869.081 696.683,868.781C696.683,868.081 696.183,866.981 695.583,866.981C695.133,866.981 694.133,867.181 693.533,867.231L692.883,867.281L692.883,859.081C692.883,858.131 692.983,856.181 692.983,855.581C692.983,854.881 692.033,854.431 691.383,854.431C691.033,854.431 690.733,854.581 690.733,854.831C690.733,855.731 690.833,858.281 690.833,859.081L690.833,867.381L682.433,867.581C684.983,862.881 688.183,856.481 690.183,852.131C690.483,851.481 691.033,850.581 691.383,849.931C691.483,849.831 691.483,849.681 691.483,849.531C691.483,848.681 690.483,847.531 689.883,847.531C689.733,847.531 689.583,847.581 689.533,847.781C688.183,851.831 683.983,860.431 681.283,865.481C680.983,865.981 680.483,866.581 680.083,867.281C679.883,867.531 679.833,867.831 679.833,868.031C679.833,868.981 680.683,869.881 681.383,869.881C681.483,869.881 681.533,869.831 681.633,869.831C682.133,869.681 682.683,869.581 682.933,869.581L690.833,869.331L690.833,871.481C690.833,872.081 690.733,874.331 690.733,874.981C690.733,875.631 691.783,876.081 692.483,876.081C692.833,876.081 693.083,875.931 693.083,875.681C693.083,874.781 692.883,873.181 692.883,871.581L692.883,869.231L693.583,869.231ZM712.383,849.481C712.383,848.781 711.483,847.931 710.933,847.831L710.883,847.831C710.433,847.831 709.933,848.081 709.433,848.131L699.933,848.831L699.433,848.831C698.883,848.831 698.533,848.781 698.133,848.781C697.983,848.781 697.933,848.881 697.933,849.031C697.933,849.381 698.433,851.031 699.683,851.031C699.983,851.031 700.333,850.981 700.683,850.931L709.783,850.081C706.533,858.181 704.133,865.281 701.433,874.231C701.383,874.481 701.183,874.831 701.183,875.181C701.183,875.481 701.383,875.831 702.083,875.931C702.283,875.931 702.433,875.981 702.583,875.981C703.133,875.981 703.483,875.831 703.533,875.381C705.533,866.131 710.733,853.431 711.533,851.481C711.733,850.981 712.283,850.281 712.383,849.631L712.383,849.481Z" style="fill-rule:nonzero;"/>
        </g>
    </g>
</svg>
