<?xml version="1.0" encoding="UTF-8" standalone="no"?>
<!DOCTYPE svg PUBLIC "-//W3C//DTD SVG 1.1//EN" "http://www.w3.org/Graphics/SVG/1.1/DTD/svg11.dtd">
<svg width="100%" height="100%" viewBox="0 0 96 96" version="1.1" xmlns="http://www.w3.org/2000/svg" xmlns:xlink="http://www.w3.org/1999/xlink" xml:space="preserve" xmlns:serif="http://www.serif.com/" style="fill-rule:evenodd;clip-rule:evenodd;stroke-linejoin:round;stroke-miterlimit:2;">
    <g transform="matrix(1,0,0,1,-1091.53,-1115.55)">
        <g transform="matrix(2,0,0,2,-952.938,-710.212)">
            <path d="M1070.03,936.781C1070.03,923.581 1059.33,912.881 1046.13,912.881C1032.93,912.881 1022.23,923.581 1022.23,936.781C1022.23,949.981 1032.93,960.631 1046.13,960.631C1059.33,960.631 1070.03,949.981 1070.03,936.781ZM1067.98,936.781C1067.98,948.831 1058.18,958.581 1046.13,958.581C1034.08,958.581 1024.28,948.831 1024.28,936.781C1024.28,924.731 1034.08,914.931 1046.13,914.931C1058.18,914.931 1067.98,924.731 1067.98,936.781ZM1037.38,923.681C1036.03,926.031 1034.58,928.981 1032.98,932.531C1031.38,936.181 1030.58,939.531 1030.58,942.881C1030.58,947.481 1033.78,951.231 1038.08,951.231C1042.78,951.231 1045.63,947.131 1045.63,941.781C1045.63,936.981 1042.83,933.431 1038.68,933.431C1036.38,933.431 1034.48,934.631 1033.33,936.531C1035.63,931.131 1036.78,928.331 1039.88,924.081C1039.98,923.881 1040.23,923.531 1040.23,923.281C1040.23,923.081 1039.98,922.381 1038.78,922.381C1038.38,922.381 1038.08,922.531 1037.88,922.881C1037.78,923.081 1037.48,923.581 1037.38,923.681ZM1048.58,934.981C1048.53,935.181 1048.23,936.431 1048.23,936.781C1048.23,937.781 1049.08,938.481 1049.63,938.481C1049.93,938.481 1050.48,937.881 1050.83,937.381C1051.98,936.081 1053.43,935.231 1055.18,935.231C1058.28,935.231 1060.23,937.681 1060.23,941.731C1060.23,945.531 1058.48,949.081 1054.03,949.081C1051.53,949.081 1049.93,947.231 1048.73,945.131C1048.63,944.931 1048.48,944.831 1048.38,944.831C1047.93,944.831 1047.38,945.881 1047.38,946.781C1047.38,947.131 1047.48,947.381 1047.63,947.631C1049.23,949.681 1051.28,951.231 1054.03,951.231C1059.83,951.231 1062.18,946.731 1062.18,941.681C1062.18,936.281 1059.13,933.131 1055.53,933.131C1053.28,933.131 1051.73,933.981 1050.33,935.381L1051.23,925.781L1057.88,925.281C1058.83,925.181 1059.83,925.131 1060.48,925.131C1060.73,925.081 1060.88,924.881 1060.88,924.581C1060.88,923.931 1060.33,922.931 1059.88,922.931L1059.83,922.931C1059.23,923.081 1058.28,923.131 1057.63,923.181L1051.28,923.581C1050.78,923.331 1050.28,923.181 1049.98,923.181C1049.68,923.181 1049.48,923.281 1049.48,923.581C1049.48,924.081 1049.48,924.781 1049.43,925.331L1048.58,934.981ZM1038.08,949.231C1034.83,949.231 1032.53,946.431 1032.53,942.831C1032.53,938.881 1034.93,935.481 1038.63,935.481C1041.73,935.481 1043.63,938.481 1043.63,941.881C1043.63,946.181 1041.28,949.231 1038.08,949.231Z" style="fill-rule:nonzero;"/>
        </g>
    </g>
</svg>
