<?xml version="1.0" encoding="UTF-8" standalone="no"?>
<!DOCTYPE svg PUBLIC "-//W3C//DTD SVG 1.1//EN" "http://www.w3.org/Graphics/SVG/1.1/DTD/svg11.dtd">
<svg width="100%" height="100%" viewBox="0 0 96 96" version="1.1" xmlns="http://www.w3.org/2000/svg" xmlns:xlink="http://www.w3.org/1999/xlink" xml:space="preserve" xmlns:serif="http://www.serif.com/" style="fill-rule:evenodd;clip-rule:evenodd;stroke-linejoin:round;stroke-miterlimit:2;">
    <g transform="matrix(1,0,0,1,-109.628,-2573.28)">
        <g transform="matrix(1,0,0,1,-110.019,-3591.86)">
            <path d="M315.248,6212.94C315.248,6186.55 293.848,6165.15 267.448,6165.15C241.048,6165.15 219.648,6186.55 219.648,6212.94C219.648,6239.35 241.048,6260.65 267.448,6260.65C293.848,6260.65 315.248,6239.35 315.248,6212.94ZM311.148,6212.94C311.148,6237.05 291.548,6256.55 267.448,6256.55C243.348,6256.55 223.748,6237.05 223.748,6212.94C223.748,6188.85 243.348,6169.24 267.448,6169.24C291.548,6169.24 311.148,6188.85 311.148,6212.94ZM251.648,6232.35C251.648,6235.35 251.448,6238.55 251.448,6239.94C251.448,6241.24 253.648,6242.24 255.148,6242.24C255.848,6242.24 256.448,6241.94 256.448,6241.44C256.448,6239.44 256.148,6235.94 256.148,6232.44L256.148,6223.05C258.448,6226.94 263.348,6228.94 267.648,6228.94C279.248,6228.94 287.348,6216.85 287.348,6204.05C287.348,6193.05 282.148,6186.55 272.948,6186.55C266.348,6186.55 259.048,6190.74 256.248,6197.05C256.248,6197.05 256.448,6190.44 256.448,6189.05C256.448,6187.74 254.148,6186.74 252.648,6186.74C251.848,6186.74 251.348,6187.05 251.348,6187.55C251.448,6189.55 251.648,6192.94 251.648,6196.44L251.648,6232.35ZM256.548,6206.24C258.348,6197.35 265.748,6190.74 272.948,6190.74C278.748,6190.74 282.348,6195.35 282.348,6204.44C282.348,6214.85 276.148,6224.85 267.048,6224.85C264.048,6224.85 260.948,6223.44 258.648,6220.24C258.048,6219.35 257.348,6218.94 256.748,6218.94C256.548,6218.94 256.348,6219.05 256.148,6219.15C256.148,6213.35 256.148,6207.74 256.548,6206.24Z" style="fill-rule:nonzero;"/>
        </g>
    </g>
</svg>
