<?xml version="1.0" encoding="UTF-8" standalone="no"?>
<!DOCTYPE svg PUBLIC "-//W3C//DTD SVG 1.1//EN" "http://www.w3.org/Graphics/SVG/1.1/DTD/svg11.dtd">
<svg width="100%" height="100%" viewBox="0 0 96 96" version="1.1" xmlns="http://www.w3.org/2000/svg" xmlns:xlink="http://www.w3.org/1999/xlink" xml:space="preserve" xmlns:serif="http://www.serif.com/" style="fill-rule:evenodd;clip-rule:evenodd;stroke-linejoin:round;stroke-miterlimit:2;">
    <g transform="matrix(1,0,0,1,-91.5285,-515.55)">
        <g transform="matrix(2,0,0,2,-952.938,-710.212)">
            <path d="M570.033,636.781C570.033,623.581 559.333,612.881 546.133,612.881C532.933,612.881 522.233,623.581 522.233,636.781C522.233,649.981 532.933,660.631 546.133,660.631C559.333,660.631 570.033,649.981 570.033,636.781ZM567.983,636.781C567.983,648.831 558.183,658.581 546.133,658.581C534.083,658.581 524.283,648.831 524.283,636.781C524.283,624.731 534.083,614.931 546.133,614.931C558.183,614.931 567.983,624.731 567.983,636.781ZM551.283,648.231C549.933,648.231 547.183,648.231 545.783,648.431C547.383,645.331 550.133,641.981 553.633,638.631C557.033,635.381 559.133,632.331 559.133,628.931C559.133,625.081 556.583,622.431 552.533,622.431C547.183,622.431 544.633,626.931 544.633,628.031C544.633,628.481 544.883,628.981 545.433,629.531C545.633,629.681 545.733,629.731 545.883,629.731C546.233,629.731 546.533,629.281 546.683,628.781C547.483,626.481 549.633,624.581 552.433,624.581C555.333,624.581 556.933,626.531 556.933,628.931C556.933,631.531 555.183,634.181 552.133,637.081C548.383,640.581 545.483,644.581 544.133,647.231C543.933,647.631 543.633,647.831 543.333,648.381C543.233,648.531 543.183,648.731 543.183,648.931C543.183,649.781 543.833,650.731 544.533,650.731L544.683,650.731C546.633,650.281 548.233,650.281 551.033,650.281C552.933,650.281 554.883,650.281 556.333,650.331C557.533,650.431 558.733,650.581 559.183,650.581C559.533,650.581 559.683,650.331 559.683,650.031C559.683,649.331 559.133,648.231 558.533,648.231L551.283,648.231ZM535.733,646.531C535.733,647.381 535.633,649.381 535.633,650.031C535.633,650.631 536.583,651.081 537.283,651.081C537.633,651.081 537.883,650.981 537.883,650.681C537.833,649.681 537.783,647.381 537.783,646.281L537.783,626.531C537.783,625.431 538.033,624.731 538.033,624.081C538.033,623.331 537.233,622.631 536.683,622.631C536.133,622.631 535.433,623.781 535.133,623.981C534.033,624.931 532.383,625.981 530.583,626.731C530.333,626.831 530.233,626.981 530.233,627.131C530.233,627.581 531.033,628.031 531.633,628.031C531.783,628.031 531.933,628.031 531.983,627.981C533.233,627.581 534.683,626.931 535.733,626.231L535.733,646.531Z" style="fill-rule:nonzero;"/>
        </g>
    </g>
</svg>
