<?xml version="1.0" encoding="UTF-8" standalone="no"?>
<!DOCTYPE svg PUBLIC "-//W3C//DTD SVG 1.1//EN" "http://www.w3.org/Graphics/SVG/1.1/DTD/svg11.dtd">
<svg width="100%" height="100%" viewBox="0 0 96 96" version="1.1" xmlns="http://www.w3.org/2000/svg" xmlns:xlink="http://www.w3.org/1999/xlink" xml:space="preserve" xmlns:serif="http://www.serif.com/" style="fill-rule:evenodd;clip-rule:evenodd;stroke-linejoin:round;stroke-miterlimit:2;">
    <g transform="matrix(1,0,0,1,-409.628,-2423.28)">
        <g transform="matrix(1,0,0,1,-110.019,-3591.86)">
            <path d="M615.248,6062.94C615.248,6036.55 593.848,6015.15 567.448,6015.15C541.048,6015.15 519.648,6036.55 519.648,6062.94C519.648,6089.35 541.048,6110.65 567.448,6110.65C593.848,6110.65 615.248,6089.35 615.248,6062.94ZM611.148,6062.94C611.148,6087.05 591.548,6106.55 567.448,6106.55C543.348,6106.55 523.748,6087.05 523.748,6062.94C523.748,6038.85 543.348,6019.24 567.448,6019.24C591.548,6019.24 611.148,6038.85 611.148,6062.94ZM578.848,6081.05C578.848,6085.24 580.148,6088.85 581.448,6091.35C581.948,6092.35 582.548,6092.85 583.248,6092.85C584.748,6092.85 586.248,6090.65 586.248,6089.35C586.248,6089.05 586.148,6088.85 586.048,6088.65C584.148,6086.35 583.148,6081.15 583.148,6076.15L583.148,6041.55C583.148,6038.65 583.348,6035.35 583.348,6034.05C583.348,6032.65 581.148,6031.65 579.648,6031.65C578.848,6031.65 578.348,6031.94 578.348,6032.44C578.348,6034.44 578.548,6038.05 578.548,6041.55L578.548,6056.35C576.348,6052.35 572.548,6050.74 568.148,6050.74C557.648,6050.74 547.148,6062.85 547.148,6076.05C547.148,6087.15 552.748,6093.24 560.948,6093.24C567.648,6093.24 573.748,6089.44 578.848,6080.65L578.848,6081.05ZM578.548,6068.44C578.548,6079.35 568.748,6089.05 560.948,6089.05C556.048,6089.05 552.048,6084.85 552.048,6075.85C552.048,6065.85 559.048,6054.85 568.248,6054.85C571.348,6054.85 574.348,6056.15 576.548,6059.55C576.748,6059.85 576.948,6059.94 577.348,6059.94C577.748,6059.94 578.348,6059.65 578.548,6059.24L578.548,6068.44Z" style="fill-rule:nonzero;"/>
        </g>
    </g>
</svg>
