<?xml version="1.0" encoding="UTF-8" standalone="no"?>
<!DOCTYPE svg PUBLIC "-//W3C//DTD SVG 1.1//EN" "http://www.w3.org/Graphics/SVG/1.1/DTD/svg11.dtd">
<svg width="100%" height="100%" viewBox="0 0 96 96" version="1.1" xmlns="http://www.w3.org/2000/svg" xmlns:xlink="http://www.w3.org/1999/xlink" xml:space="preserve" xmlns:serif="http://www.serif.com/" style="fill-rule:evenodd;clip-rule:evenodd;stroke-linejoin:round;stroke-miterlimit:2;">
    <g transform="matrix(1,0,0,1,-391.528,-815.55)">
        <g transform="matrix(2,0,0,2,-952.938,-710.212)">
            <path d="M720.033,786.781C720.033,773.581 709.333,762.881 696.133,762.881C682.933,762.881 672.233,773.581 672.233,786.781C672.233,799.981 682.933,810.631 696.133,810.631C709.333,810.631 720.033,799.981 720.033,786.781ZM717.983,786.781C717.983,798.831 708.183,808.581 696.133,808.581C684.083,808.581 674.283,798.831 674.283,786.781C674.283,774.731 684.083,764.931 696.133,764.931C708.183,764.931 717.983,774.731 717.983,786.781ZM700.033,786.531C702.333,781.131 703.483,778.331 706.583,774.081C706.683,773.881 706.933,773.531 706.933,773.281C706.933,773.081 706.683,772.381 705.483,772.381C705.083,772.381 704.783,772.531 704.583,772.881C704.483,773.081 704.183,773.581 704.083,773.681C702.683,776.031 701.233,778.981 699.683,782.531C698.083,786.181 697.283,789.531 697.283,792.881C697.283,797.481 700.483,801.231 704.783,801.231C709.483,801.231 712.333,797.131 712.333,791.781C712.333,786.981 709.533,783.431 705.383,783.431C703.083,783.431 701.183,784.631 700.033,786.531ZM688.983,785.181C691.883,784.281 694.033,781.831 694.033,778.481C694.033,774.681 691.633,772.431 687.983,772.431C685.133,772.431 682.883,773.731 681.133,775.931C680.983,776.181 680.833,776.381 680.833,776.731C680.833,777.131 680.983,777.581 681.383,778.131C681.583,778.331 681.683,778.381 681.833,778.381C682.183,778.381 682.433,777.931 682.583,777.781C684.233,775.531 685.933,774.481 687.983,774.481C690.583,774.481 692.083,776.081 692.083,778.731C692.083,782.281 687.833,784.531 684.533,784.781C684.283,784.831 684.133,785.081 684.133,785.381C684.133,785.981 684.633,786.931 685.183,786.931C685.283,786.931 685.333,786.881 685.433,786.881C685.783,786.781 686.533,786.631 687.183,786.581C687.483,786.531 687.733,786.531 687.983,786.531C690.933,786.531 693.083,788.781 693.083,792.031C693.083,795.631 691.283,799.131 686.733,799.131C684.383,799.131 682.883,797.781 681.483,795.681C681.333,795.531 681.283,795.431 681.133,795.431C680.633,795.431 680.183,796.481 680.183,797.281C680.183,797.631 680.233,797.881 680.383,798.031C682.183,800.131 684.183,801.231 686.733,801.231C692.683,801.231 695.083,796.981 695.083,791.981C695.083,787.781 692.383,785.181 689.383,785.181L688.983,785.181ZM704.783,799.231C701.533,799.231 699.233,796.431 699.233,792.831C699.233,788.881 701.633,785.481 705.333,785.481C708.433,785.481 710.333,788.481 710.333,791.881C710.333,796.181 707.983,799.231 704.783,799.231Z" style="fill-rule:nonzero;"/>
        </g>
    </g>
</svg>
