<?xml version="1.0" encoding="UTF-8" standalone="no"?>
<!DOCTYPE svg PUBLIC "-//W3C//DTD SVG 1.1//EN" "http://www.w3.org/Graphics/SVG/1.1/DTD/svg11.dtd">
<svg width="100%" height="100%" viewBox="0 0 96 96" version="1.1" xmlns="http://www.w3.org/2000/svg" xmlns:xlink="http://www.w3.org/1999/xlink" xml:space="preserve" xmlns:serif="http://www.serif.com/" style="fill-rule:evenodd;clip-rule:evenodd;stroke-linejoin:round;stroke-miterlimit:2;">
    <g transform="matrix(1,0,0,1,-709.628,-2423.28)">
        <g transform="matrix(1,0,0,1,-110.019,-3591.86)">
            <path d="M915.248,6062.94C915.248,6036.55 893.848,6015.15 867.448,6015.15C841.048,6015.15 819.648,6036.55 819.648,6062.94C819.648,6089.35 841.048,6110.65 867.448,6110.65C893.848,6110.65 915.248,6089.35 915.248,6062.94ZM911.148,6062.94C911.148,6087.05 891.548,6106.55 867.448,6106.55C843.348,6106.55 823.748,6087.05 823.748,6062.94C823.748,6038.85 843.348,6019.24 867.448,6019.24C891.548,6019.24 911.148,6038.85 911.148,6062.94ZM879.848,6072.05C879.848,6081.85 872.548,6086.74 863.748,6086.74C857.848,6086.74 854.648,6084.94 852.548,6080.15C852.348,6079.55 851.948,6079.35 851.448,6079.35C850.248,6079.35 848.548,6081.24 848.548,6082.74C848.548,6083.05 848.648,6083.24 848.748,6083.55C851.648,6088.44 856.048,6091.15 863.748,6091.15C874.948,6091.15 884.448,6084.44 884.448,6072.15L884.448,6045.94C884.448,6043.05 884.748,6039.74 884.848,6037.55L884.848,6037.44C884.848,6036.24 882.548,6035.24 881.048,6035.24C880.248,6035.24 879.648,6035.55 879.648,6036.05C879.648,6037.35 879.748,6039.24 879.748,6041.85C877.548,6037.24 873.248,6035.24 868.448,6035.24C857.448,6035.24 848.148,6047.05 848.148,6058.44C848.148,6069.74 853.848,6075.65 862.648,6075.65C868.748,6075.65 874.848,6073.24 879.848,6065.05L879.848,6072.05ZM879.848,6047.55C879.848,6051.85 879.848,6055.94 879.348,6057.35C877.348,6066.44 868.848,6071.44 862.648,6071.44C856.748,6071.44 852.848,6067.55 852.848,6058.44C852.848,6049.44 860.148,6039.44 868.548,6039.44C871.648,6039.44 874.848,6040.85 877.248,6044.15C877.448,6044.44 877.748,6044.55 878.048,6044.55C878.748,6044.55 879.448,6043.85 879.848,6043.24L879.848,6047.55Z" style="fill-rule:nonzero;"/>
        </g>
    </g>
</svg>
