<?xml version="1.0" encoding="UTF-8" standalone="no"?>
<!DOCTYPE svg PUBLIC "-//W3C//DTD SVG 1.1//EN" "http://www.w3.org/Graphics/SVG/1.1/DTD/svg11.dtd">
<svg width="100%" height="100%" viewBox="0 0 96 96" version="1.1" xmlns="http://www.w3.org/2000/svg" xmlns:xlink="http://www.w3.org/1999/xlink" xml:space="preserve" xmlns:serif="http://www.serif.com/" style="fill-rule:evenodd;clip-rule:evenodd;stroke-linejoin:round;stroke-miterlimit:2;">
    <g transform="matrix(1,0,0,1,-691.528,-1265.55)">
        <g transform="matrix(2,0,0,2,-952.938,-710.212)">
            <path d="M870.033,1011.78C870.033,998.581 859.333,987.881 846.133,987.881C832.933,987.881 822.233,998.581 822.233,1011.78C822.233,1024.98 832.933,1035.63 846.133,1035.63C859.333,1035.63 870.033,1024.98 870.033,1011.78ZM867.983,1011.78C867.983,1023.83 858.183,1033.58 846.133,1033.58C834.083,1033.58 824.283,1023.83 824.283,1011.78C824.283,999.731 834.083,989.931 846.133,989.931C858.183,989.931 867.983,999.731 867.983,1011.78ZM848.633,1025.73C849.583,1025.48 851.383,1025.23 853.933,1025.23C857.483,1025.23 860.833,1025.48 861.333,1025.53C861.583,1025.53 861.733,1025.33 861.733,1025.03C861.733,1024.33 861.183,1023.23 860.683,1023.23C860.233,1023.23 859.083,1023.28 858.483,1023.28C857.083,1023.28 855.983,1023.23 854.283,1023.23C852.983,1023.23 851.033,1023.33 849.733,1023.48C850.933,1020.83 853.033,1016.88 856.033,1013.73C859.183,1010.43 861.433,1007.63 861.433,1003.98C861.433,1000.18 859.083,997.431 855.333,997.431C850.333,997.431 847.883,1001.98 847.883,1003.03C847.883,1003.88 848.883,1004.63 849.133,1004.63C849.483,1004.63 849.733,1004.23 849.933,1003.68C850.683,1001.33 852.533,999.481 855.233,999.481C857.833,999.481 859.333,1001.53 859.333,1003.98C859.333,1006.58 857.583,1009.03 854.733,1012.08C851.883,1015.18 849.483,1019.43 848.133,1022.28C847.983,1022.63 847.733,1022.98 847.433,1023.43C847.333,1023.58 847.283,1023.78 847.283,1024.03C847.283,1024.83 847.883,1025.73 848.483,1025.73L848.633,1025.73ZM844.983,999.481C844.983,998.781 844.133,997.931 843.583,997.831L843.483,997.831C843.083,997.831 842.583,998.081 842.033,998.131L832.533,998.831L832.033,998.831C831.483,998.831 831.133,998.781 830.733,998.781C830.583,998.781 830.533,998.881 830.533,999.031C830.533,999.381 831.033,1001.03 832.283,1001.03C832.583,1001.03 832.933,1000.98 833.283,1000.93L842.433,1000.08C841.083,1003.48 837.733,1012.03 834.033,1024.23C833.983,1024.48 833.833,1024.83 833.833,1025.18C833.833,1025.48 833.983,1025.83 834.683,1025.93C834.883,1025.93 835.033,1025.98 835.183,1025.98C835.783,1025.98 836.083,1025.83 836.183,1025.38C837.033,1020.53 841.033,1008.93 844.183,1001.48C844.383,1000.98 844.933,1000.28 844.983,999.631L844.983,999.481Z" style="fill-rule:nonzero;"/>
        </g>
    </g>
</svg>
