<?xml version="1.0" encoding="UTF-8" standalone="no"?>
<!DOCTYPE svg PUBLIC "-//W3C//DTD SVG 1.1//EN" "http://www.w3.org/Graphics/SVG/1.1/DTD/svg11.dtd">
<svg width="100%" height="100%" viewBox="0 0 96 96" version="1.1" xmlns="http://www.w3.org/2000/svg" xmlns:xlink="http://www.w3.org/1999/xlink" xml:space="preserve" xmlns:serif="http://www.serif.com/" style="fill-rule:evenodd;clip-rule:evenodd;stroke-linejoin:round;stroke-miterlimit:2;">
    <g transform="matrix(1,0,0,1,-291.528,-1265.55)">
        <g transform="matrix(2,0,0,2,-952.938,-710.212)">
            <path d="M670.033,1011.78C670.033,998.581 659.333,987.881 646.133,987.881C632.933,987.881 622.233,998.581 622.233,1011.78C622.233,1024.98 632.933,1035.63 646.133,1035.63C659.333,1035.63 670.033,1024.98 670.033,1011.78ZM667.983,1011.78C667.983,1023.83 658.183,1033.58 646.133,1033.58C634.083,1033.58 624.283,1023.83 624.283,1011.78C624.283,999.731 634.083,989.931 646.133,989.931C658.183,989.931 667.983,999.731 667.983,1011.78ZM656.183,1009.68C659.683,1006.93 662.383,1003.33 662.383,1002.58C662.383,1002.13 662.133,1001.83 661.783,1001.83C661.533,1001.83 661.283,1001.93 660.983,1002.28L660.833,1002.48C660.933,1002.23 661.033,1001.93 661.033,1001.73C661.033,1001.58 660.983,1001.43 660.933,1001.33C659.633,999.231 657.733,997.481 655.133,997.481C650.983,997.481 648.633,1000.58 648.633,1004.03C648.633,1006.63 649.483,1008.28 652.583,1010.08C649.433,1012.53 647.583,1015.23 647.583,1018.78C647.583,1022.98 650.183,1026.23 654.533,1026.23C659.333,1026.23 662.533,1023.08 662.533,1018.23C662.533,1014.43 660.633,1011.93 656.633,1009.88L656.183,1009.68ZM637.483,997.881C635.833,1000.08 632.833,1006.98 632.583,1007.53C630.933,1011.18 630.133,1014.53 630.133,1017.88C630.133,1022.48 633.383,1026.23 637.683,1026.23C642.383,1026.23 645.233,1022.13 645.233,1016.78C645.233,1011.98 642.433,1008.43 638.283,1008.43C635.983,1008.43 634.083,1009.63 632.883,1011.53C634.883,1006.83 636.883,1002.58 639.433,999.081C639.583,998.881 639.833,998.531 639.833,998.281C639.833,997.931 639.183,997.381 638.333,997.381C637.983,997.381 637.633,997.531 637.483,997.881ZM637.683,1024.23C634.433,1024.23 632.083,1021.43 632.083,1017.83C632.083,1013.88 634.483,1010.48 638.233,1010.48C641.333,1010.48 643.233,1013.48 643.233,1016.88C643.233,1021.18 640.883,1024.23 637.683,1024.23ZM655.283,1011.43C659.283,1013.48 660.583,1015.53 660.583,1018.43C660.583,1021.83 657.983,1024.13 654.533,1024.13C651.033,1024.13 649.533,1021.38 649.533,1018.68C649.533,1015.83 651.333,1013.53 654.433,1011.03L655.283,1011.43ZM660.283,1003.08C658.583,1005.03 656.683,1007.03 654.383,1008.68C651.483,1007.18 650.583,1006.08 650.583,1004.03C650.583,1001.73 652.083,999.481 655.133,999.481C657.133,999.481 658.283,1000.73 659.283,1002.63C659.533,1003.03 659.733,1003.18 659.933,1003.18C660.033,1003.18 660.183,1003.13 660.283,1003.08Z" style="fill-rule:nonzero;"/>
        </g>
    </g>
</svg>
