<?xml version="1.0" encoding="UTF-8" standalone="no"?>
<!DOCTYPE svg PUBLIC "-//W3C//DTD SVG 1.1//EN" "http://www.w3.org/Graphics/SVG/1.1/DTD/svg11.dtd">
<svg width="100%" height="100%" viewBox="0 0 96 96" version="1.1" xmlns="http://www.w3.org/2000/svg" xmlns:xlink="http://www.w3.org/1999/xlink" xml:space="preserve" xmlns:serif="http://www.serif.com/" style="fill-rule:evenodd;clip-rule:evenodd;stroke-linejoin:round;stroke-miterlimit:2;">
    <g transform="matrix(1,0,0,1,-909.628,-2573.28)">
        <g transform="matrix(1,0,0,1,-110.019,-3591.86)">
            <path d="M1115.25,6212.94C1115.25,6186.55 1093.85,6165.15 1067.45,6165.15C1041.05,6165.15 1019.65,6186.55 1019.65,6212.94C1019.65,6239.35 1041.05,6260.65 1067.45,6260.65C1093.85,6260.65 1115.25,6239.35 1115.25,6212.94ZM1111.15,6212.94C1111.15,6237.05 1091.55,6256.55 1067.45,6256.55C1043.35,6256.55 1023.75,6237.05 1023.75,6212.94C1023.75,6188.85 1043.35,6169.24 1067.45,6169.24C1091.55,6169.24 1111.15,6188.85 1111.15,6212.94ZM1076.95,6228.05C1078.05,6229.55 1079.55,6231.65 1080.35,6232.94C1080.65,6233.44 1081.45,6233.65 1082.35,6233.65C1084.05,6233.65 1085.85,6233.05 1085.85,6232.15C1085.85,6231.94 1085.85,6231.74 1085.65,6231.55C1084.05,6229.85 1081.75,6227.44 1080.25,6225.35L1070.35,6212.24L1080.05,6199.35C1081.15,6197.74 1082.85,6195.94 1084.55,6194.24C1084.75,6194.15 1084.75,6193.94 1084.75,6193.74C1084.75,6192.94 1082.35,6192.05 1080.75,6192.05C1080.05,6192.05 1079.55,6192.24 1079.35,6192.55C1078.75,6193.65 1077.85,6195.24 1076.75,6196.74L1067.75,6208.74L1058.95,6197.05C1057.85,6195.55 1056.95,6194.05 1056.35,6192.94C1056.15,6192.55 1055.55,6192.44 1054.85,6192.44C1053.25,6192.44 1050.95,6193.35 1050.95,6194.24C1050.95,6194.35 1051.05,6194.55 1051.15,6194.65C1052.85,6196.35 1054.55,6198.15 1055.65,6199.65L1065.15,6212.24L1055.15,6225.44C1053.65,6227.65 1051.35,6229.94 1049.75,6231.65C1049.55,6231.85 1049.55,6232.05 1049.55,6232.24C1049.55,6233.15 1051.45,6233.85 1053.05,6233.85C1053.95,6233.85 1054.75,6233.65 1055.05,6233.15C1055.85,6231.85 1057.35,6229.74 1058.45,6228.24L1067.75,6215.74L1076.95,6228.05Z" style="fill-rule:nonzero;"/>
        </g>
    </g>
</svg>
