<?xml version="1.0" encoding="UTF-8" standalone="no"?>
<!DOCTYPE svg PUBLIC "-//W3C//DTD SVG 1.1//EN" "http://www.w3.org/Graphics/SVG/1.1/DTD/svg11.dtd">
<svg width="100%" height="100%" viewBox="0 0 96 96" version="1.1" xmlns="http://www.w3.org/2000/svg" xmlns:xlink="http://www.w3.org/1999/xlink" xml:space="preserve" xmlns:serif="http://www.serif.com/" style="fill-rule:evenodd;clip-rule:evenodd;stroke-linejoin:round;stroke-miterlimit:2;">
    <g transform="matrix(1,0,0,1,-191.528,-1115.55)">
        <g transform="matrix(2,0,0,2,-952.938,-710.212)">
            <path d="M620.033,936.781C620.033,923.581 609.333,912.881 596.133,912.881C582.933,912.881 572.233,923.581 572.233,936.781C572.233,949.981 582.933,960.631 596.133,960.631C609.333,960.631 620.033,949.981 620.033,936.781ZM617.983,936.781C617.983,948.831 608.183,958.581 596.133,958.581C584.083,958.581 574.283,948.831 574.283,936.781C574.283,924.731 584.083,914.931 596.133,914.931C608.183,914.931 617.983,924.731 617.983,936.781ZM604.833,922.881C603.183,925.081 600.183,931.981 599.933,932.531C598.283,936.181 597.483,939.531 597.483,942.881C597.483,947.481 600.733,951.231 605.033,951.231C609.733,951.231 612.583,947.131 612.583,941.781C612.583,936.981 609.783,933.431 605.633,933.431C603.333,933.431 601.433,934.631 600.233,936.531C602.233,931.831 604.233,927.581 606.783,924.081C606.933,923.881 607.183,923.531 607.183,923.281C607.183,922.931 606.533,922.381 605.683,922.381C605.333,922.381 604.983,922.531 604.833,922.881ZM583.483,937.381C584.583,936.081 586.083,935.231 587.833,935.231C590.883,935.231 592.833,937.681 592.833,941.731C592.833,945.531 591.083,949.081 586.633,949.081C584.133,949.081 582.533,947.231 581.333,945.131C581.233,944.931 581.133,944.831 580.983,944.831C580.533,944.831 579.983,945.881 579.983,946.781C579.983,947.131 580.083,947.381 580.233,947.631C581.833,949.681 583.883,951.231 586.633,951.231C592.483,951.231 594.833,946.731 594.833,941.681C594.833,936.281 591.783,933.131 588.183,933.131C585.883,933.131 584.333,933.981 582.983,935.381L583.833,925.781L590.533,925.281C591.483,925.181 592.483,925.131 593.083,925.131C593.333,925.081 593.483,924.881 593.483,924.581C593.483,923.931 592.983,922.931 592.533,922.931L592.433,922.931C591.833,923.081 590.883,923.131 590.233,923.181L583.883,923.581C583.433,923.331 582.933,923.181 582.583,923.181C582.283,923.181 582.133,923.281 582.133,923.581C582.133,924.081 582.083,924.781 582.033,925.331L581.183,934.981L580.933,936.331C580.883,936.481 580.883,936.631 580.883,936.781C580.883,937.781 581.733,938.481 582.233,938.481C582.383,938.481 582.483,938.481 582.533,938.381L583.483,937.381ZM605.033,949.231C601.783,949.231 599.483,946.431 599.483,942.831C599.483,938.881 601.833,935.481 605.583,935.481C608.683,935.481 610.583,938.481 610.583,941.881C610.583,946.181 608.233,949.231 605.033,949.231Z" style="fill-rule:nonzero;"/>
        </g>
    </g>
</svg>
