<?xml version="1.0" encoding="UTF-8" standalone="no"?>
<!DOCTYPE svg PUBLIC "-//W3C//DTD SVG 1.1//EN" "http://www.w3.org/Graphics/SVG/1.1/DTD/svg11.dtd">
<svg width="100%" height="100%" viewBox="0 0 96 96" version="1.1" xmlns="http://www.w3.org/2000/svg" xmlns:xlink="http://www.w3.org/1999/xlink" xml:space="preserve" xmlns:serif="http://www.serif.com/" style="fill-rule:evenodd;clip-rule:evenodd;stroke-linejoin:round;stroke-miterlimit:2;">
    <g transform="matrix(1,0,0,1,-791.528,-1415.55)">
        <g transform="matrix(2,0,0,2,-952.938,-710.212)">
            <path d="M920.033,1086.78C920.033,1073.58 909.333,1062.88 896.133,1062.88C882.933,1062.88 872.233,1073.58 872.233,1086.78C872.233,1099.98 882.933,1110.63 896.133,1110.63C909.333,1110.63 920.033,1099.98 920.033,1086.78ZM917.983,1086.78C917.983,1098.83 908.183,1108.58 896.133,1108.58C884.083,1108.58 874.283,1098.83 874.283,1086.78C874.283,1074.73 884.083,1064.93 896.133,1064.93C908.183,1064.93 917.983,1074.73 917.983,1086.78ZM889.033,1084.68C892.683,1081.78 895.183,1078.33 895.183,1077.58C895.183,1077.13 894.933,1076.83 894.583,1076.83C894.333,1076.83 894.083,1076.93 893.783,1077.28L893.633,1077.48C893.783,1077.23 893.833,1076.93 893.833,1076.73C893.833,1076.58 893.783,1076.43 893.783,1076.33C892.483,1074.23 890.583,1072.48 887.933,1072.48C883.833,1072.48 881.433,1075.58 881.433,1079.03C881.433,1081.63 882.333,1083.28 885.433,1085.08C882.283,1087.53 880.383,1090.23 880.383,1093.78C880.383,1097.98 882.983,1101.23 887.333,1101.23C892.183,1101.23 895.383,1098.08 895.383,1093.23C895.383,1089.43 893.483,1086.93 889.433,1084.88L889.033,1084.68ZM910.683,1094.23C911.633,1094.23 912.883,1094.33 913.333,1094.33C913.583,1094.33 913.683,1094.08 913.683,1093.78C913.683,1093.08 913.183,1091.98 912.633,1091.98C912.183,1091.98 911.233,1092.18 910.633,1092.23L910.083,1092.28L910.083,1084.08C910.083,1083.13 910.133,1081.18 910.133,1080.58C910.133,1079.88 909.233,1079.43 908.583,1079.43C908.283,1079.43 908.033,1079.58 908.033,1079.83C908.033,1080.73 908.083,1083.28 908.083,1084.08L908.083,1092.38L900.133,1092.58C902.533,1087.88 905.583,1081.48 907.483,1077.13C907.733,1076.48 908.283,1075.58 908.633,1074.93C908.733,1074.83 908.733,1074.68 908.733,1074.53C908.733,1073.68 907.733,1072.53 907.233,1072.53C907.033,1072.53 906.933,1072.58 906.883,1072.78C905.683,1076.38 901.983,1084.58 898.983,1090.48C898.733,1090.98 898.233,1091.58 897.883,1092.28C897.683,1092.53 897.683,1092.83 897.683,1093.03C897.683,1093.98 898.433,1094.88 899.133,1094.88C899.233,1094.88 899.233,1094.83 899.333,1094.83C899.833,1094.68 900.333,1094.58 900.583,1094.58L908.083,1094.33L908.083,1096.48C908.083,1097.08 908.033,1099.33 908.033,1099.98C908.033,1100.63 908.983,1101.08 909.633,1101.08C909.983,1101.08 910.233,1100.93 910.233,1100.68C910.233,1099.78 910.083,1098.18 910.083,1096.58L910.083,1094.23L910.683,1094.23ZM888.133,1086.43C892.133,1088.48 893.383,1090.53 893.383,1093.43C893.383,1096.83 890.833,1099.13 887.333,1099.13C883.883,1099.13 882.383,1096.38 882.383,1093.68C882.383,1090.83 884.183,1088.53 887.283,1086.03C887.483,1086.13 887.833,1086.33 888.133,1086.43ZM887.233,1083.68C884.283,1082.18 883.433,1081.08 883.433,1079.03C883.433,1076.73 884.933,1074.48 887.983,1074.48C889.933,1074.48 891.133,1075.73 892.133,1077.63C892.333,1078.03 892.533,1078.18 892.783,1078.18C892.833,1078.18 892.983,1078.18 893.033,1078.13C891.383,1080.08 889.483,1082.03 887.233,1083.68Z" style="fill-rule:nonzero;"/>
        </g>
    </g>
</svg>
