<?xml version="1.0" encoding="UTF-8" standalone="no"?>
<!DOCTYPE svg PUBLIC "-//W3C//DTD SVG 1.1//EN" "http://www.w3.org/Graphics/SVG/1.1/DTD/svg11.dtd">
<svg width="100%" height="100%" viewBox="0 0 96 96" version="1.1" xmlns="http://www.w3.org/2000/svg" xmlns:xlink="http://www.w3.org/1999/xlink" xml:space="preserve" xmlns:serif="http://www.serif.com/" style="fill-rule:evenodd;clip-rule:evenodd;stroke-linejoin:round;stroke-miterlimit:2;">
    <g transform="matrix(1,0,0,1,-309.628,-2423.28)">
        <g transform="matrix(1,0,0,1,-110.019,-3591.86)">
            <path d="M515.248,6062.94C515.248,6036.55 493.848,6015.15 467.448,6015.15C441.048,6015.15 419.648,6036.55 419.648,6062.94C419.648,6089.35 441.048,6110.65 467.448,6110.65C493.848,6110.65 515.248,6089.35 515.248,6062.94ZM511.148,6062.94C511.148,6087.05 491.548,6106.55 467.448,6106.55C443.348,6106.55 423.748,6087.05 423.748,6062.94C423.748,6038.85 443.348,6019.24 467.448,6019.24C491.548,6019.24 511.148,6038.85 511.148,6062.94ZM483.848,6070.85C483.848,6070.35 483.548,6069.94 483.148,6069.94C482.648,6069.94 482.048,6070.24 481.348,6071.05C477.348,6075.15 472.048,6079.94 464.048,6079.94C458.548,6079.94 452.448,6075.65 452.448,6065.94C452.448,6055.24 461.448,6045.94 469.548,6045.94C474.148,6045.94 476.548,6048.94 477.848,6051.65C478.048,6051.94 478.348,6052.15 478.648,6052.15C479.748,6052.15 481.448,6050.44 481.448,6048.85C481.448,6048.15 478.948,6041.74 469.348,6041.74C458.948,6041.74 447.748,6052.85 447.748,6066.35C447.748,6077.94 455.148,6084.24 464.048,6084.24C477.548,6084.24 483.848,6072.15 483.848,6070.85Z" style="fill-rule:nonzero;"/>
        </g>
    </g>
</svg>
