<?xml version="1.0" encoding="UTF-8" standalone="no"?>
<!DOCTYPE svg PUBLIC "-//W3C//DTD SVG 1.1//EN" "http://www.w3.org/Graphics/SVG/1.1/DTD/svg11.dtd">
<svg width="100%" height="100%" viewBox="0 0 96 96" version="1.1" xmlns="http://www.w3.org/2000/svg" xmlns:xlink="http://www.w3.org/1999/xlink" xml:space="preserve" xmlns:serif="http://www.serif.com/" style="fill-rule:evenodd;clip-rule:evenodd;stroke-linejoin:round;stroke-miterlimit:2;">
    <g transform="matrix(1,0,0,1,-891.528,-515.55)">
        <g transform="matrix(2,0,0,2,-952.938,-710.212)">
            <path d="M970.033,636.781C970.033,623.581 959.333,612.881 946.133,612.881C932.933,612.881 922.233,623.581 922.233,636.781C922.233,649.981 932.933,660.631 946.133,660.631C959.333,660.631 970.033,649.981 970.033,636.781ZM967.983,636.781C967.983,648.831 958.183,658.581 946.133,658.581C934.083,658.581 924.283,648.831 924.283,636.781C924.283,624.731 934.083,614.931 946.133,614.931C958.183,614.931 967.983,624.731 967.983,636.781ZM930.683,650.731C931.783,650.431 932.683,650.281 936.283,650.281C941.083,650.281 942.283,650.331 944.283,650.531C944.583,650.531 944.733,650.331 944.733,650.031C944.733,649.331 944.133,648.231 943.583,648.231C943.133,648.231 941.933,648.281 941.333,648.281C939.833,648.281 938.433,648.231 936.633,648.231C935.283,648.231 933.233,648.331 931.883,648.481C933.133,645.831 935.533,641.881 938.683,638.731C942.033,635.431 944.433,632.631 944.433,628.981C944.433,625.181 941.933,622.431 937.983,622.431C934.283,622.431 931.783,624.431 930.333,627.331C930.183,627.531 930.133,627.781 930.133,628.031C930.133,628.581 930.983,629.631 931.433,629.631C931.833,629.631 932.083,629.231 932.283,628.681C933.083,626.331 935.033,624.481 937.883,624.481C940.633,624.481 942.183,626.531 942.183,628.981C942.183,631.581 940.333,634.031 937.333,637.081C934.333,640.181 931.583,644.431 930.183,647.281C929.983,647.681 929.783,647.981 929.433,648.431C929.333,648.581 929.283,648.781 929.283,649.031C929.283,649.831 929.883,650.731 930.533,650.731L930.683,650.731ZM950.483,624.831C950.483,624.531 950.033,624.531 949.983,624.531C949.033,624.531 946.683,630.131 946.683,637.231C946.683,645.331 949.033,651.231 953.933,651.231C959.033,651.231 961.533,644.331 961.533,636.181C961.533,628.231 959.133,622.381 954.733,622.381C953.033,622.381 951.583,623.331 950.483,624.831ZM953.783,649.131C950.033,649.131 948.733,643.631 948.733,637.181C948.733,628.631 952.033,624.381 954.633,624.381C958.183,624.381 959.483,630.431 959.483,635.881C959.483,642.631 957.883,649.131 953.783,649.131Z" style="fill-rule:nonzero;"/>
        </g>
    </g>
</svg>
