<?xml version="1.0" encoding="UTF-8" standalone="no"?>
<!DOCTYPE svg PUBLIC "-//W3C//DTD SVG 1.1//EN" "http://www.w3.org/Graphics/SVG/1.1/DTD/svg11.dtd">
<svg width="100%" height="100%" viewBox="0 0 96 96" version="1.1" xmlns="http://www.w3.org/2000/svg" xmlns:xlink="http://www.w3.org/1999/xlink" xml:space="preserve" xmlns:serif="http://www.serif.com/" style="fill-rule:evenodd;clip-rule:evenodd;stroke-linejoin:round;stroke-miterlimit:2;">
    <g transform="matrix(1,0,0,1,-191.528,-965.55)">
        <g transform="matrix(2,0,0,2,-952.938,-710.212)">
            <path d="M620.033,861.781C620.033,848.581 609.333,837.881 596.133,837.881C582.933,837.881 572.233,848.581 572.233,861.781C572.233,874.981 582.933,885.631 596.133,885.631C609.333,885.631 620.033,874.981 620.033,861.781ZM617.983,861.781C617.983,873.831 608.183,883.581 596.133,883.581C584.083,883.581 574.283,873.831 574.283,861.781C574.283,849.731 584.083,839.931 596.133,839.931C608.183,839.931 617.983,849.731 617.983,861.781ZM601.033,862.381C602.133,861.081 603.583,860.231 605.383,860.231C608.433,860.231 610.383,862.681 610.383,866.731C610.383,870.531 608.633,874.081 604.183,874.081C601.683,874.081 600.083,872.231 598.883,870.131C598.783,869.931 598.683,869.831 598.533,869.831C598.083,869.831 597.533,870.881 597.533,871.781C597.533,873.181 600.833,876.231 604.183,876.231C610.033,876.231 612.383,871.731 612.383,866.681C612.383,861.281 609.283,858.181 605.683,858.181C603.433,858.181 601.883,858.981 600.483,860.381L601.383,850.781L608.033,850.281C609.033,850.181 610.033,850.181 610.633,850.131C610.883,850.131 611.033,849.881 611.033,849.581C611.033,848.931 610.533,847.931 610.083,847.931L609.983,847.931C609.383,848.081 608.433,848.131 607.783,848.181L601.433,848.581C600.983,848.381 600.483,848.181 600.133,848.181C599.833,848.181 599.683,848.281 599.683,848.581C599.683,849.081 599.633,849.781 599.583,850.331L598.733,859.981C598.683,860.331 598.583,860.781 598.433,861.331L598.433,861.781C598.433,862.781 599.233,863.481 599.783,863.481C599.933,863.481 599.983,863.481 600.083,863.381L601.033,862.381ZM593.083,869.231C593.983,869.231 595.283,869.331 595.733,869.331C595.983,869.331 596.033,869.081 596.033,868.781C596.033,868.081 595.533,866.981 595.033,866.981C594.583,866.981 593.633,867.181 593.033,867.231L592.433,867.281L592.433,859.081C592.433,858.131 592.533,856.181 592.533,855.581C592.533,854.881 591.633,854.431 590.983,854.431C590.633,854.431 590.383,854.581 590.383,854.831C590.383,855.781 590.483,858.281 590.483,859.081L590.483,867.381L582.533,867.581C584.933,862.881 587.933,856.481 589.833,852.131C590.133,851.481 590.633,850.581 591.033,849.931C591.133,849.831 591.133,849.681 591.133,849.531C591.133,848.681 590.133,847.531 589.583,847.531C589.433,847.531 589.333,847.581 589.283,847.781C587.433,853.381 581.683,864.831 581.383,865.481C581.133,866.031 580.633,866.581 580.283,867.281C580.083,867.531 580.033,867.831 580.033,868.031C580.033,868.981 580.833,869.881 581.533,869.881C581.583,869.881 581.633,869.831 581.733,869.831C582.233,869.681 582.733,869.581 582.983,869.581L590.483,869.331L590.483,871.481C590.483,872.081 590.383,874.331 590.383,874.981C590.383,875.631 591.383,876.081 592.033,876.081C592.383,876.081 592.633,875.931 592.633,875.681C592.633,874.781 592.433,873.181 592.433,871.581L592.433,869.231L593.083,869.231Z" style="fill-rule:nonzero;"/>
        </g>
    </g>
</svg>
