<?xml version="1.0" encoding="UTF-8" standalone="no"?>
<!DOCTYPE svg PUBLIC "-//W3C//DTD SVG 1.1//EN" "http://www.w3.org/Graphics/SVG/1.1/DTD/svg11.dtd">
<svg width="100%" height="100%" viewBox="0 0 96 96" version="1.1" xmlns="http://www.w3.org/2000/svg" xmlns:xlink="http://www.w3.org/1999/xlink" xml:space="preserve" xmlns:serif="http://www.serif.com/" style="fill-rule:evenodd;clip-rule:evenodd;stroke-linejoin:round;stroke-miterlimit:2;">
    <g transform="matrix(1,0,0,1,-291.528,-965.55)">
        <g transform="matrix(2,0,0,2,-952.938,-710.212)">
            <path d="M670.033,861.781C670.033,848.581 659.333,837.881 646.133,837.881C632.933,837.881 622.233,848.581 622.233,861.781C622.233,874.981 632.933,885.631 646.133,885.631C659.333,885.631 670.033,874.981 670.033,861.781ZM667.983,861.781C667.983,873.831 658.183,883.581 646.133,883.581C634.083,883.581 624.283,873.831 624.283,861.781C624.283,849.731 634.083,839.931 646.133,839.931C658.183,839.931 667.983,849.731 667.983,861.781ZM650.233,861.531C652.583,855.981 653.833,853.081 656.733,849.081C656.883,848.881 657.133,848.531 657.133,848.281C657.133,847.481 655.883,847.381 655.683,847.381C655.283,847.381 654.933,847.531 654.783,847.881C654.633,848.081 654.383,848.581 654.283,848.681C652.883,851.031 651.433,853.981 649.883,857.531C648.283,861.181 647.433,864.531 647.433,867.881C647.433,872.481 650.683,876.231 654.983,876.231C659.683,876.231 662.533,872.131 662.533,866.781C662.533,861.981 659.733,858.431 655.583,858.431C653.283,858.431 651.383,859.631 650.233,861.531ZM642.433,869.231C643.333,869.231 644.583,869.331 645.033,869.331C645.283,869.331 645.383,869.081 645.383,868.781C645.383,868.081 644.883,866.981 644.333,866.981C643.933,866.981 642.933,867.181 642.383,867.231L641.783,867.281L641.783,859.081C641.783,858.131 641.883,856.181 641.883,855.581C641.883,854.881 640.933,854.431 640.333,854.431C639.983,854.431 639.733,854.581 639.733,854.831C639.733,855.731 639.833,858.281 639.833,859.081L639.833,867.381L631.833,867.581C634.233,862.881 637.283,856.481 639.183,852.131C639.483,851.481 639.983,850.581 640.383,849.931C640.433,849.831 640.433,849.681 640.433,849.531C640.433,848.681 639.483,847.531 638.933,847.531C638.783,847.531 638.633,847.581 638.583,847.781C636.683,853.531 632.183,862.631 630.733,865.481C630.433,865.981 629.983,866.581 629.583,867.281C629.433,867.531 629.383,867.831 629.383,868.031C629.383,868.981 630.183,869.881 630.833,869.881C630.933,869.881 630.983,869.831 631.083,869.831C631.583,869.681 632.083,869.581 632.333,869.581L639.833,869.331L639.833,871.481C639.833,872.081 639.733,874.331 639.733,874.981C639.733,875.631 640.683,876.081 641.383,876.081C641.683,876.081 641.933,875.931 641.933,875.681C641.933,874.781 641.783,873.181 641.783,871.581L641.783,869.231L642.433,869.231ZM654.983,874.231C651.733,874.231 649.433,871.431 649.433,867.831C649.433,863.881 651.783,860.481 655.533,860.481C658.633,860.481 660.533,863.481 660.533,866.881C660.533,871.181 658.183,874.231 654.983,874.231Z" style="fill-rule:nonzero;"/>
        </g>
    </g>
</svg>
