<?xml version="1.0" encoding="UTF-8" standalone="no"?>
<!DOCTYPE svg PUBLIC "-//W3C//DTD SVG 1.1//EN" "http://www.w3.org/Graphics/SVG/1.1/DTD/svg11.dtd">
<svg width="100%" height="100%" viewBox="0 0 96 96" version="1.1" xmlns="http://www.w3.org/2000/svg" xmlns:xlink="http://www.w3.org/1999/xlink" xml:space="preserve" xmlns:serif="http://www.serif.com/" style="fill-rule:evenodd;clip-rule:evenodd;stroke-linejoin:round;stroke-miterlimit:2;">
    <g transform="matrix(1,0,0,1,-191.528,-815.55)">
        <g transform="matrix(2,0,0,2,-952.938,-710.212)">
            <path d="M620.033,786.781C620.033,773.581 609.333,762.881 596.133,762.881C582.933,762.881 572.233,773.581 572.233,786.781C572.233,799.981 582.933,810.631 596.133,810.631C609.333,810.631 620.033,799.981 620.033,786.781ZM617.983,786.781C617.983,798.831 608.183,808.581 596.133,808.581C584.083,808.581 574.283,798.831 574.283,786.781C574.283,774.731 584.083,764.931 596.133,764.931C608.183,764.931 617.983,774.731 617.983,786.781ZM610.433,794.231C611.333,794.231 612.583,794.331 613.033,794.331C613.283,794.331 613.383,794.081 613.383,793.781C613.383,793.081 612.883,791.981 612.333,791.981C611.933,791.981 610.933,792.181 610.383,792.231L609.783,792.281L609.783,784.081C609.783,783.131 609.883,781.181 609.883,780.581C609.883,779.881 608.933,779.431 608.333,779.431C607.983,779.431 607.733,779.581 607.733,779.831C607.733,780.731 607.833,783.281 607.833,784.081L607.833,792.381L599.833,792.581C602.233,787.881 605.283,781.481 607.183,777.131C607.483,776.481 607.983,775.581 608.333,774.931C608.433,774.831 608.433,774.681 608.433,774.531C608.433,773.681 607.483,772.531 606.933,772.531C606.783,772.531 606.633,772.581 606.583,772.781C604.533,778.981 599.533,788.831 598.733,790.481C598.433,790.981 597.983,791.581 597.583,792.281C597.433,792.531 597.383,792.831 597.383,793.031C597.383,793.981 598.183,794.881 598.833,794.881C598.933,794.881 598.983,794.831 599.033,794.831C599.583,794.681 600.083,794.581 600.333,794.581L607.833,794.331L607.833,796.481C607.833,797.081 607.733,799.331 607.733,799.981C607.733,800.631 608.683,801.081 609.383,801.081C609.683,801.081 609.933,800.931 609.933,800.681C609.933,799.781 609.783,798.181 609.783,796.581L609.783,794.231L610.433,794.231ZM588.833,785.181C591.733,784.281 593.883,781.831 593.883,778.481C593.883,774.681 591.483,772.431 587.833,772.431C584.983,772.431 582.783,773.731 580.983,775.931C580.833,776.181 580.683,776.381 580.683,776.731C580.683,777.131 580.833,777.581 581.233,778.131C581.433,778.331 581.533,778.381 581.683,778.381C582.033,778.381 582.283,777.931 582.433,777.781C584.083,775.531 585.833,774.481 587.883,774.481C590.433,774.481 591.933,776.081 591.933,778.731C591.933,782.281 587.683,784.531 584.383,784.781C584.133,784.831 584.033,785.081 584.033,785.381C584.033,785.981 584.483,786.931 585.083,786.931C585.133,786.931 585.183,786.881 585.283,786.881C585.633,786.781 586.383,786.631 587.033,786.581C587.333,786.531 587.583,786.531 587.833,786.531C590.783,786.531 592.933,788.781 592.933,792.031C592.933,795.631 591.133,799.131 586.583,799.131C584.233,799.131 582.733,797.781 581.333,795.681C581.183,795.531 581.133,795.431 580.983,795.431C580.483,795.431 580.033,796.481 580.033,797.281C580.033,797.631 580.083,797.881 580.233,798.031C582.033,800.131 584.033,801.231 586.583,801.231C592.533,801.231 594.933,796.981 594.933,791.981C594.933,787.781 592.283,785.181 589.233,785.181L588.833,785.181Z" style="fill-rule:nonzero;"/>
        </g>
    </g>
</svg>
