<?xml version="1.0" encoding="UTF-8" standalone="no"?>
<!DOCTYPE svg PUBLIC "-//W3C//DTD SVG 1.1//EN" "http://www.w3.org/Graphics/SVG/1.1/DTD/svg11.dtd">
<svg width="100%" height="100%" viewBox="0 0 96 96" version="1.1" xmlns="http://www.w3.org/2000/svg" xmlns:xlink="http://www.w3.org/1999/xlink" xml:space="preserve" xmlns:serif="http://www.serif.com/" style="fill-rule:evenodd;clip-rule:evenodd;stroke-linejoin:round;stroke-miterlimit:2;">
    <g transform="matrix(1,0,0,1,-791.528,-515.55)">
        <g transform="matrix(2,0,0,2,-952.938,-710.212)">
            <path d="M920.033,636.781C920.033,623.581 909.333,612.881 896.133,612.881C882.933,612.881 872.233,623.581 872.233,636.781C872.233,649.981 882.933,660.631 896.133,660.631C909.333,660.631 920.033,649.981 920.033,636.781ZM917.983,636.781C917.983,648.831 908.183,658.581 896.133,658.581C884.083,658.581 874.283,648.831 874.283,636.781C874.283,624.731 884.083,614.931 896.133,614.931C908.183,614.931 917.983,624.731 917.983,636.781ZM903.783,651.031C904.683,650.981 905.233,650.731 905.233,650.231C905.683,644.931 908.533,628.231 909.683,625.031L909.683,624.881C909.683,624.281 908.733,623.631 908.183,623.531L908.083,623.531C907.433,623.531 907.583,624.731 907.333,625.831L906.983,625.231C906.183,624.031 904.283,622.431 901.383,622.431C896.383,622.431 892.283,627.731 892.283,633.081C892.283,637.581 894.933,640.181 898.333,640.181C900.933,640.181 903.983,638.331 905.533,635.531C904.883,639.131 904.183,643.281 903.683,646.381C902.933,649.881 902.933,650.281 902.933,650.381C902.933,650.781 903.083,651.031 903.683,651.031L903.783,651.031ZM906.633,629.531C906.333,630.431 905.983,631.631 905.583,632.331C903.733,635.781 901.433,637.981 898.283,637.981C895.933,637.981 894.383,636.281 894.383,632.931C894.383,629.281 897.183,624.481 901.533,624.481C904.083,624.481 905.483,626.381 905.983,627.481C906.083,627.831 906.283,627.981 906.483,627.981C906.683,627.981 906.833,627.831 907.033,627.631C906.883,628.231 906.733,628.881 906.633,629.531ZM884.783,646.531C884.783,647.381 884.683,649.381 884.683,650.031C884.683,650.631 885.683,651.081 886.383,651.081C886.683,651.081 886.933,650.981 886.933,650.681C886.883,649.681 886.833,647.381 886.833,646.281L886.833,626.531C886.833,625.431 887.083,624.731 887.083,624.081C887.083,623.331 886.283,622.631 885.733,622.631C885.233,622.631 884.483,623.781 884.183,623.981C883.083,624.931 881.433,625.981 879.633,626.731C879.383,626.831 879.283,626.981 879.283,627.131C879.283,627.581 880.083,628.031 880.683,628.031C880.833,628.031 880.983,628.031 881.083,627.981C882.283,627.581 883.733,626.931 884.783,626.231L884.783,646.531Z" style="fill-rule:nonzero;"/>
        </g>
    </g>
</svg>
