<?xml version="1.0" encoding="UTF-8" standalone="no"?>
<!DOCTYPE svg PUBLIC "-//W3C//DTD SVG 1.1//EN" "http://www.w3.org/Graphics/SVG/1.1/DTD/svg11.dtd">
<svg width="100%" height="100%" viewBox="0 0 96 96" version="1.1" xmlns="http://www.w3.org/2000/svg" xmlns:xlink="http://www.w3.org/1999/xlink" xml:space="preserve" xmlns:serif="http://www.serif.com/" style="fill-rule:evenodd;clip-rule:evenodd;stroke-linejoin:round;stroke-miterlimit:2;">
    <g transform="matrix(1,0,0,1,-291.528,-365.55)">
        <g transform="matrix(2,0,0,2,-952.938,-710.212)">
            <path d="M670.033,561.781C670.033,548.581 659.333,537.881 646.133,537.881C632.933,537.881 622.233,548.581 622.233,561.781C622.233,574.981 632.933,585.631 646.133,585.631C659.333,585.631 670.033,574.981 670.033,561.781ZM667.983,561.781C667.983,573.831 658.183,583.581 646.133,583.581C634.083,583.581 624.283,573.831 624.283,561.781C624.283,549.731 634.083,539.931 646.133,539.931C658.183,539.931 667.983,549.731 667.983,561.781ZM648.433,560.131L648.433,559.981C652.383,559.231 655.083,556.831 655.083,553.331C655.083,549.331 652.083,547.131 646.733,547.131C641.033,547.131 636.983,550.431 636.983,551.631C636.983,551.981 637.133,552.431 637.633,552.931C637.833,553.131 638.033,553.231 638.233,553.231C638.683,553.231 639.033,552.731 639.183,552.581C641.583,550.181 643.483,549.231 646.833,549.231C650.733,549.231 652.733,550.731 652.733,553.631C652.733,557.781 645.933,559.381 642.033,559.831C641.683,559.831 641.533,560.081 641.533,560.431C641.533,561.081 642.133,562.081 642.983,562.081C643.083,562.081 643.183,562.081 643.283,562.031C643.433,561.981 644.833,561.531 646.983,561.531C651.083,561.531 654.133,563.631 654.133,567.281C654.133,571.231 651.133,574.381 644.783,574.381C641.183,574.381 638.733,572.981 637.133,570.431C636.983,570.181 636.783,570.081 636.633,570.081C636.033,570.081 635.383,571.231 635.383,572.081C635.383,572.331 635.483,572.631 635.633,572.781C637.933,575.181 640.483,576.531 644.783,576.531C653.083,576.531 656.533,572.481 656.533,567.231C656.533,562.631 652.883,560.131 648.883,560.131L648.433,560.131Z" style="fill-rule:nonzero;"/>
        </g>
    </g>
</svg>
