<?xml version="1.0" encoding="UTF-8" standalone="no"?>
<!DOCTYPE svg PUBLIC "-//W3C//DTD SVG 1.1//EN" "http://www.w3.org/Graphics/SVG/1.1/DTD/svg11.dtd">
<svg width="100%" height="100%" viewBox="0 0 68 68" version="1.1" xmlns="http://www.w3.org/2000/svg" xmlns:xlink="http://www.w3.org/1999/xlink" xml:space="preserve" xmlns:serif="http://www.serif.com/" style="fill-rule:evenodd;clip-rule:evenodd;stroke-linejoin:round;stroke-miterlimit:2;">
    <g transform="matrix(1,0,0,1,-882.28,-5280.97)">
        <g transform="matrix(1,0,0,1,-504.034,-1124.47)">
            <path d="M1453.51,6439.04C1453.51,6420.44 1438.51,6405.44 1419.91,6405.44C1401.31,6405.44 1386.31,6420.44 1386.31,6439.04C1386.31,6457.64 1401.31,6472.64 1419.91,6472.64C1438.51,6472.64 1453.51,6457.64 1453.51,6439.04ZM1447.51,6439.04C1447.51,6454.34 1435.21,6466.64 1419.91,6466.64C1404.61,6466.64 1392.31,6454.34 1392.31,6439.04C1392.31,6423.74 1404.61,6411.44 1419.91,6411.44C1435.21,6411.44 1447.51,6423.74 1447.51,6439.04Z" style="fill-rule:nonzero;"/>
        </g>
    </g>
</svg>
