<?xml version="1.0" encoding="UTF-8" standalone="no"?>
<!DOCTYPE svg PUBLIC "-//W3C//DTD SVG 1.1//EN" "http://www.w3.org/Graphics/SVG/1.1/DTD/svg11.dtd">
<svg width="100%" height="100%" viewBox="0 0 96 96" version="1.1" xmlns="http://www.w3.org/2000/svg" xmlns:xlink="http://www.w3.org/1999/xlink" xml:space="preserve" xmlns:serif="http://www.serif.com/" style="fill-rule:evenodd;clip-rule:evenodd;stroke-linejoin:round;stroke-miterlimit:2;">
    <g transform="matrix(1,0,0,1,-791.528,-965.55)">
        <g transform="matrix(2,0,0,2,-952.938,-710.212)">
            <path d="M920.033,861.781C920.033,848.581 909.333,837.881 896.133,837.881C882.933,837.881 872.233,848.581 872.233,861.781C872.233,874.981 882.933,885.631 896.133,885.631C909.333,885.631 920.033,874.981 920.033,861.781ZM917.983,861.781C917.983,873.831 908.183,883.581 896.133,883.581C884.083,883.581 874.283,873.831 874.283,861.781C874.283,849.731 884.083,839.931 896.133,839.931C908.183,839.931 917.983,849.731 917.983,861.781ZM907.783,875.681C907.783,874.681 907.733,872.381 907.733,871.281L907.733,851.531C907.733,850.431 907.933,849.731 907.933,849.081C907.933,848.381 907.083,847.631 906.533,847.631C905.983,847.631 905.183,848.781 904.933,848.981C903.783,849.931 901.983,850.981 900.133,851.731C899.833,851.831 899.733,851.981 899.733,852.131C899.733,852.581 900.583,853.031 901.233,853.031C901.383,853.031 901.533,853.031 901.633,852.981C902.933,852.581 904.433,851.931 905.533,851.231L905.533,871.531C905.533,872.381 905.433,874.381 905.433,875.031C905.433,875.631 906.433,876.081 907.183,876.081C907.483,876.081 907.783,875.981 907.783,875.731L907.783,875.681ZM885.083,862.381C886.333,861.081 887.983,860.231 889.933,860.231C893.333,860.231 895.533,862.681 895.533,866.731C895.533,870.531 893.583,874.081 888.633,874.081C885.833,874.081 884.083,872.231 882.733,870.131C882.633,869.931 882.483,869.831 882.333,869.831C881.833,869.831 881.233,870.881 881.233,871.781C881.233,873.181 884.883,876.231 888.633,876.231C895.083,876.231 897.683,871.731 897.683,866.681C897.683,861.281 894.283,858.181 890.283,858.181C887.783,858.181 886.083,858.981 884.533,860.381L885.483,850.781L892.883,850.281C893.983,850.181 895.083,850.181 895.783,850.131C896.083,850.131 896.233,849.881 896.233,849.581C896.233,848.931 895.633,847.931 895.133,847.931L895.033,847.931C894.383,848.081 893.333,848.131 892.633,848.181L885.533,848.581C885.033,848.381 884.483,848.181 884.133,848.181C883.783,848.181 883.583,848.281 883.583,848.581C883.583,849.081 883.533,849.781 883.483,850.331L882.583,859.981C882.183,861.381 882.183,861.581 882.183,861.781C882.183,862.781 883.133,863.481 883.733,863.481C883.883,863.481 883.983,863.481 884.083,863.381L885.083,862.381Z" style="fill-rule:nonzero;"/>
        </g>
    </g>
</svg>
