<?xml version="1.0" encoding="UTF-8" standalone="no"?>
<!DOCTYPE svg PUBLIC "-//W3C//DTD SVG 1.1//EN" "http://www.w3.org/Graphics/SVG/1.1/DTD/svg11.dtd">
<svg width="100%" height="100%" viewBox="0 0 96 96" version="1.1" xmlns="http://www.w3.org/2000/svg" xmlns:xlink="http://www.w3.org/1999/xlink" xml:space="preserve" xmlns:serif="http://www.serif.com/" style="fill-rule:evenodd;clip-rule:evenodd;stroke-linejoin:round;stroke-miterlimit:2;">
    <g transform="matrix(1,0,0,1,-691.528,-365.55)">
        <g transform="matrix(2,0,0,2,-952.938,-710.212)">
            <path d="M870.033,561.781C870.033,548.581 859.333,537.881 846.133,537.881C832.933,537.881 822.233,548.581 822.233,561.781C822.233,574.981 832.933,585.631 846.133,585.631C859.333,585.631 870.033,574.981 870.033,561.781ZM867.983,561.781C867.983,573.831 858.183,583.581 846.133,583.581C834.083,583.581 824.283,573.831 824.283,561.781C824.283,549.731 834.083,539.931 846.133,539.931C858.183,539.931 867.983,549.731 867.983,561.781ZM855.983,549.131C855.983,548.481 854.983,547.531 854.033,547.431L853.883,547.431C853.483,547.431 853.333,547.631 852.183,547.731L838.633,548.631C838.283,548.681 837.933,548.681 837.633,548.681C837.033,548.681 836.533,548.631 836.083,548.631C835.933,548.631 835.833,548.731 835.833,548.881C835.833,549.281 836.883,550.981 838.083,550.981C838.583,550.981 839.033,550.831 839.533,550.781L853.033,549.681C848.883,556.581 845.633,563.731 842.383,571.431C842.133,571.981 840.783,574.781 840.783,575.331C840.783,575.681 841.033,576.031 841.833,576.131C842.083,576.131 842.283,576.181 842.483,576.181C843.183,576.181 843.633,576.031 843.733,575.581C845.883,567.231 854.483,551.781 854.833,551.131C855.083,550.681 855.833,549.931 855.983,549.281L855.983,549.131Z" style="fill-rule:nonzero;"/>
        </g>
    </g>
</svg>
