<?xml version="1.0" encoding="UTF-8" standalone="no"?>
<!DOCTYPE svg PUBLIC "-//W3C//DTD SVG 1.1//EN" "http://www.w3.org/Graphics/SVG/1.1/DTD/svg11.dtd">
<svg width="100%" height="100%" viewBox="0 0 96 96" version="1.1" xmlns="http://www.w3.org/2000/svg" xmlns:xlink="http://www.w3.org/1999/xlink" xml:space="preserve" xmlns:serif="http://www.serif.com/" style="fill-rule:evenodd;clip-rule:evenodd;stroke-linejoin:round;stroke-miterlimit:2;">
    <g transform="matrix(1,0,0,1,-291.528,-1565.55)">
        <g transform="matrix(2,0,0,2,-952.938,-710.212)">
            <path d="M670.033,1161.78C670.033,1148.58 659.333,1137.88 646.133,1137.88C632.933,1137.88 622.233,1148.58 622.233,1161.78C622.233,1174.98 632.933,1185.63 646.133,1185.63C659.333,1185.63 670.033,1174.98 670.033,1161.78ZM667.983,1161.78C667.983,1173.83 658.183,1183.58 646.133,1183.58C634.083,1183.58 624.283,1173.83 624.283,1161.78C624.283,1149.73 634.083,1139.93 646.133,1139.93C658.183,1139.93 667.983,1149.73 667.983,1161.78ZM651.233,1149.83C651.083,1149.53 650.783,1149.53 650.683,1149.53C649.783,1149.53 647.433,1154.98 647.433,1162.23C647.433,1170.33 649.783,1176.23 654.633,1176.23C659.733,1176.23 662.183,1169.33 662.183,1161.18C662.183,1153.23 659.833,1147.38 655.433,1147.38C653.733,1147.38 652.283,1148.33 651.233,1149.83ZM640.333,1176.03C641.183,1175.98 641.683,1175.73 641.733,1175.23C642.083,1171.13 644.483,1155.28 645.933,1150.03L645.933,1149.88C645.933,1149.28 645.283,1148.53 644.483,1148.53C643.783,1148.53 643.983,1149.78 643.733,1150.83C643.233,1149.73 641.633,1147.43 638.333,1147.43C633.633,1147.43 630.083,1152.73 630.083,1158.08C630.083,1162.58 632.283,1165.18 635.433,1165.18C637.933,1165.18 640.533,1163.33 641.983,1160.58L640.233,1171.38C640.133,1172.08 639.883,1173.28 639.683,1174.43C639.633,1174.78 639.533,1175.13 639.533,1175.38C639.533,1175.78 639.683,1176.03 640.283,1176.03L640.333,1176.03ZM654.483,1174.13C650.733,1174.13 649.433,1168.63 649.433,1162.18C649.433,1153.63 652.783,1149.38 655.333,1149.38C658.883,1149.38 660.183,1155.43 660.183,1160.88C660.183,1167.63 658.583,1174.13 654.483,1174.13ZM643.033,1154.53C641.383,1160.48 638.283,1163.03 635.433,1163.03C633.183,1163.03 632.083,1161.28 632.083,1157.93C632.083,1154.28 634.433,1149.48 638.533,1149.48C640.933,1149.48 641.983,1151.38 642.433,1152.48C642.533,1152.83 642.683,1152.98 642.933,1152.98C643.083,1152.98 643.233,1152.83 643.433,1152.63L643.033,1154.53Z" style="fill-rule:nonzero;"/>
        </g>
    </g>
</svg>
