<?xml version="1.0" encoding="UTF-8" standalone="no"?>
<!DOCTYPE svg PUBLIC "-//W3C//DTD SVG 1.1//EN" "http://www.w3.org/Graphics/SVG/1.1/DTD/svg11.dtd">
<svg width="100%" height="100%" viewBox="0 0 96 96" version="1.1" xmlns="http://www.w3.org/2000/svg" xmlns:xlink="http://www.w3.org/1999/xlink" xml:space="preserve" xmlns:serif="http://www.serif.com/" style="fill-rule:evenodd;clip-rule:evenodd;stroke-linejoin:round;stroke-miterlimit:2;">
    <g transform="matrix(1,0,0,1,-591.528,-965.55)">
        <g transform="matrix(2,0,0,2,-952.938,-710.212)">
            <path d="M820.033,861.781C820.033,848.581 809.333,837.881 796.133,837.881C782.933,837.881 772.233,848.581 772.233,861.781C772.233,874.981 782.933,885.631 796.133,885.631C809.333,885.631 820.033,874.981 820.033,861.781ZM817.983,861.781C817.983,873.831 808.183,883.581 796.133,883.581C784.083,883.581 774.283,873.831 774.283,861.781C774.283,849.731 784.083,839.931 796.133,839.931C808.183,839.931 817.983,849.731 817.983,861.781ZM806.683,876.031C807.533,875.981 808.033,875.731 808.083,875.231C808.183,874.331 808.733,867.231 811.833,851.481C811.883,851.231 812.133,850.581 812.283,850.031L812.283,849.881C812.283,849.281 811.583,848.531 810.833,848.531C810.133,848.531 810.283,849.781 810.033,850.831C809.583,849.731 807.983,847.431 804.683,847.431C799.983,847.431 796.433,852.731 796.433,858.081C796.433,862.581 798.633,865.181 801.783,865.181C804.283,865.181 806.883,863.331 808.333,860.531C807.733,864.131 807.033,868.281 806.583,871.381C806.483,872.081 806.233,873.281 806.033,874.431C805.983,874.781 805.883,875.131 805.883,875.381C805.883,875.781 806.033,876.031 806.633,876.031L806.683,876.031ZM792.683,869.231C793.633,869.231 794.983,869.331 795.483,869.331C795.733,869.331 795.833,869.081 795.833,868.781C795.833,868.081 795.283,866.981 794.733,866.981C794.283,866.981 793.283,867.181 792.633,867.231L792.033,867.281L792.033,859.081C792.033,858.081 792.133,856.181 792.133,855.581C792.133,854.881 791.133,854.431 790.483,854.431C790.133,854.431 789.883,854.581 789.883,854.831C789.883,855.731 789.933,858.281 789.933,859.081L789.933,867.381L781.583,867.581C784.083,862.881 787.283,856.481 789.283,852.131C789.583,851.481 790.133,850.581 790.533,849.931C790.633,849.831 790.633,849.681 790.633,849.531C790.633,848.681 789.583,847.531 789.033,847.531C788.833,847.531 788.733,847.581 788.683,847.781C787.983,849.631 785.783,855.381 780.383,865.431C780.083,865.981 779.583,866.581 779.183,867.281C779.033,867.531 778.983,867.831 778.983,868.031C778.983,868.981 779.833,869.881 780.533,869.881C780.583,869.881 780.633,869.831 780.733,869.831C781.283,869.681 781.783,869.581 782.033,869.581L789.933,869.331L789.933,871.481C789.933,872.081 789.883,874.331 789.883,874.981C789.883,875.631 790.883,876.081 791.583,876.081C791.933,876.081 792.183,875.931 792.183,875.681C792.183,874.781 792.033,873.181 792.033,871.581L792.033,869.231L792.683,869.231ZM809.383,854.531C808.233,858.631 805.783,862.981 801.733,862.981C799.533,862.981 798.383,861.281 798.383,857.931C798.383,854.281 800.733,849.481 804.833,849.481C807.283,849.481 808.283,851.381 808.733,852.481C808.883,852.831 809.033,852.981 809.233,852.981C809.433,852.981 809.583,852.831 809.733,852.631L809.383,854.531Z" style="fill-rule:nonzero;"/>
        </g>
    </g>
</svg>
