<?xml version="1.0" encoding="UTF-8" standalone="no"?>
<!DOCTYPE svg PUBLIC "-//W3C//DTD SVG 1.1//EN" "http://www.w3.org/Graphics/SVG/1.1/DTD/svg11.dtd">
<svg width="100%" height="100%" viewBox="0 0 96 96" version="1.1" xmlns="http://www.w3.org/2000/svg" xmlns:xlink="http://www.w3.org/1999/xlink" xml:space="preserve" xmlns:serif="http://www.serif.com/" style="fill-rule:evenodd;clip-rule:evenodd;stroke-linejoin:round;stroke-miterlimit:2;">
    <g transform="matrix(1,0,0,1,-491.528,-515.55)">
        <g transform="matrix(2,0,0,2,-952.938,-710.212)">
            <path d="M770.033,636.781C770.033,623.581 759.333,612.881 746.133,612.881C732.933,612.881 722.233,623.581 722.233,636.781C722.233,649.981 732.933,660.631 746.133,660.631C759.333,660.631 770.033,649.981 770.033,636.781ZM767.983,636.781C767.983,648.831 758.183,658.581 746.133,658.581C734.083,658.581 724.283,648.831 724.283,636.781C724.283,624.731 734.083,614.931 746.133,614.931C758.183,614.931 767.983,624.731 767.983,636.781ZM751.933,623.681C744.783,634.881 744.283,640.531 744.283,642.881C744.283,647.481 747.383,651.231 752.433,651.231C757.933,651.231 760.633,647.131 760.633,641.781C760.633,636.981 757.583,633.431 753.083,633.431C750.633,633.431 748.633,634.581 747.383,636.631C748.533,633.881 750.383,629.431 754.533,624.081C754.683,623.881 754.933,623.531 754.933,623.281C754.933,622.531 753.683,622.381 753.383,622.381C753.183,622.381 752.583,622.381 751.933,623.681ZM735.783,646.531C735.783,647.381 735.683,649.381 735.683,650.031C735.683,650.631 736.633,651.081 737.383,651.081C737.683,651.081 737.933,650.981 737.933,650.681C737.883,649.681 737.833,647.381 737.833,646.281L737.833,626.531C737.833,625.431 738.083,624.731 738.083,624.081C738.083,623.331 737.283,622.631 736.733,622.631C736.233,622.631 735.483,623.781 735.183,623.981C734.083,624.931 732.433,625.981 730.633,626.731C730.383,626.831 730.283,626.981 730.283,627.131C730.283,627.581 731.083,628.031 731.683,628.031C731.833,628.031 731.983,628.031 732.033,627.981C733.283,627.581 734.733,626.931 735.783,626.231L735.783,646.531ZM752.433,649.231C748.583,649.231 746.333,646.431 746.333,642.831C746.333,638.881 748.933,635.481 753.033,635.481C756.383,635.481 758.483,638.481 758.483,641.881C758.483,646.181 756.183,649.231 752.433,649.231Z" style="fill-rule:nonzero;"/>
        </g>
    </g>
</svg>
