<?xml version="1.0" encoding="UTF-8" standalone="no"?>
<!DOCTYPE svg PUBLIC "-//W3C//DTD SVG 1.1//EN" "http://www.w3.org/Graphics/SVG/1.1/DTD/svg11.dtd">
<svg width="100%" height="100%" viewBox="0 0 96 96" version="1.1" xmlns="http://www.w3.org/2000/svg" xmlns:xlink="http://www.w3.org/1999/xlink" xml:space="preserve" xmlns:serif="http://www.serif.com/" style="fill-rule:evenodd;clip-rule:evenodd;stroke-linejoin:round;stroke-miterlimit:2;">
    <g transform="matrix(1,0,0,1,-791.528,-365.55)">
        <g transform="matrix(2,0,0,2,-952.938,-710.212)">
            <path d="M920.033,561.781C920.033,548.581 909.333,537.881 896.133,537.881C882.933,537.881 872.233,548.581 872.233,561.781C872.233,574.981 882.933,585.631 896.133,585.631C909.333,585.631 920.033,574.981 920.033,561.781ZM917.983,561.781C917.983,573.831 908.183,583.581 896.133,583.581C884.083,583.581 874.283,573.831 874.283,561.781C874.283,549.731 884.083,539.931 896.133,539.931C908.183,539.931 917.983,549.731 917.983,561.781ZM897.283,559.481C899.733,558.031 906.533,553.831 906.533,552.381C906.533,551.931 906.183,551.631 905.733,551.631C905.483,551.631 905.233,551.731 904.933,551.981C904.933,551.981 904.733,552.181 904.583,552.231C904.733,552.031 904.783,551.781 904.783,551.581C904.783,550.331 901.283,547.131 896.033,547.131C890.483,547.131 887.383,549.931 887.383,553.631C887.383,557.031 889.633,558.681 892.533,559.931C888.483,562.281 885.883,565.231 885.883,568.881C885.883,573.431 889.633,576.531 895.733,576.531C902.783,576.531 906.983,573.581 906.983,568.381C906.983,562.881 901.933,561.031 897.283,559.481ZM894.883,560.831C899.533,562.531 904.583,563.931 904.583,568.531C904.583,572.281 900.833,574.381 895.733,574.381C890.883,574.381 888.233,571.731 888.233,568.781C888.233,565.981 890.633,563.331 894.883,560.831ZM903.583,552.981C901.083,554.881 897.133,557.331 894.783,558.531C891.883,557.381 889.733,556.281 889.733,553.681C889.733,551.081 892.083,549.131 895.983,549.131C898.783,549.131 901.433,550.481 902.733,552.481C902.933,552.831 903.233,552.981 903.483,552.981L903.583,552.981Z" style="fill-rule:nonzero;"/>
        </g>
    </g>
</svg>
