<?xml version="1.0" encoding="UTF-8" standalone="no"?>
<!DOCTYPE svg PUBLIC "-//W3C//DTD SVG 1.1//EN" "http://www.w3.org/Graphics/SVG/1.1/DTD/svg11.dtd">
<svg width="100%" height="100%" viewBox="0 0 96 96" version="1.1" xmlns="http://www.w3.org/2000/svg" xmlns:xlink="http://www.w3.org/1999/xlink" xml:space="preserve" xmlns:serif="http://www.serif.com/" style="fill-rule:evenodd;clip-rule:evenodd;stroke-linejoin:round;stroke-miterlimit:2;">
    <g transform="matrix(1,0,0,1,-991.528,-1415.55)">
        <g transform="matrix(2,0,0,2,-952.938,-710.212)">
            <path d="M1020.03,1086.78C1020.03,1073.58 1009.33,1062.88 996.133,1062.88C982.933,1062.88 972.233,1073.58 972.233,1086.78C972.233,1099.98 982.933,1110.63 996.133,1110.63C1009.33,1110.63 1020.03,1099.98 1020.03,1086.78ZM1017.98,1086.78C1017.98,1098.83 1008.18,1108.58 996.133,1108.58C984.083,1108.58 974.283,1098.83 974.283,1086.78C974.283,1074.73 984.083,1064.93 996.133,1064.93C1008.18,1064.93 1017.98,1074.73 1017.98,1086.78ZM989.483,1084.68C992.933,1081.93 995.633,1078.38 995.633,1077.58C995.633,1077.13 995.383,1076.83 995.033,1076.83C994.783,1076.83 994.533,1076.93 994.233,1077.28L994.083,1077.48C994.233,1077.23 994.283,1076.93 994.283,1076.73C994.283,1076.58 994.233,1076.43 994.233,1076.33C992.933,1074.23 991.033,1072.48 988.383,1072.48C984.283,1072.48 981.883,1075.58 981.883,1079.03C981.883,1081.63 982.783,1083.28 985.883,1085.08C982.733,1087.53 980.833,1090.23 980.833,1093.78C980.833,1097.98 983.433,1101.23 987.783,1101.23C992.633,1101.23 995.783,1098.08 995.783,1093.23C995.783,1089.43 993.933,1086.93 989.883,1084.88L989.483,1084.68ZM1005.58,1072.88C1003.93,1075.08 1000.93,1081.98 1000.68,1082.53C999.033,1086.18 998.233,1089.53 998.233,1092.88C998.233,1097.48 1001.48,1101.23 1005.78,1101.23C1010.48,1101.23 1013.33,1097.13 1013.33,1091.78C1013.33,1086.98 1010.53,1083.43 1006.38,1083.43C1004.08,1083.43 1002.18,1084.63 1000.98,1086.53C1002.98,1081.83 1004.98,1077.58 1007.53,1074.08C1007.68,1073.88 1007.93,1073.53 1007.93,1073.28C1007.93,1072.93 1007.28,1072.38 1006.43,1072.38C1006.08,1072.38 1005.73,1072.53 1005.58,1072.88ZM1005.78,1099.23C1002.53,1099.23 1000.18,1096.43 1000.18,1092.83C1000.18,1088.88 1002.58,1085.48 1006.33,1085.48C1009.43,1085.48 1011.33,1088.48 1011.33,1091.88C1011.33,1096.18 1008.98,1099.23 1005.78,1099.23ZM988.533,1086.43C992.583,1088.48 993.833,1090.53 993.833,1093.43C993.833,1096.83 991.283,1099.13 987.783,1099.13C984.333,1099.13 982.833,1096.38 982.833,1093.68C982.833,1090.83 984.633,1088.53 987.733,1086.03L988.533,1086.43ZM993.533,1078.08C991.883,1080.03 989.933,1082.03 987.683,1083.68C984.733,1082.18 983.883,1081.08 983.883,1079.03C983.883,1076.73 985.383,1074.48 988.433,1074.48C990.383,1074.48 991.583,1075.73 992.583,1077.63C992.783,1078.03 992.983,1078.18 993.183,1078.18C993.333,1078.18 993.433,1078.13 993.533,1078.08Z" style="fill-rule:nonzero;"/>
        </g>
    </g>
</svg>
