<?xml version="1.0" encoding="UTF-8" standalone="no"?>
<!DOCTYPE svg PUBLIC "-//W3C//DTD SVG 1.1//EN" "http://www.w3.org/Graphics/SVG/1.1/DTD/svg11.dtd">
<svg width="100%" height="100%" viewBox="0 0 96 96" version="1.1" xmlns="http://www.w3.org/2000/svg" xmlns:xlink="http://www.w3.org/1999/xlink" xml:space="preserve" xmlns:serif="http://www.serif.com/" style="fill-rule:evenodd;clip-rule:evenodd;stroke-linejoin:round;stroke-miterlimit:2;">
    <g transform="matrix(1,0,0,1,-691.528,-665.55)">
        <g transform="matrix(2,0,0,2,-952.938,-710.212)">
            <path d="M870.033,711.781C870.033,698.581 859.333,687.881 846.133,687.881C832.933,687.881 822.233,698.581 822.233,711.781C822.233,724.981 832.933,735.631 846.133,735.631C859.333,735.631 870.033,724.981 870.033,711.781ZM867.983,711.781C867.983,723.831 858.183,733.581 846.133,733.581C834.083,733.581 824.283,723.831 824.283,711.781C824.283,699.731 834.083,689.931 846.133,689.931C858.183,689.931 867.983,699.731 867.983,711.781ZM854.883,709.681C858.383,707.031 861.383,703.531 861.383,702.581C861.383,702.131 861.133,701.831 860.783,701.831C860.533,701.831 860.233,701.931 859.933,702.281L859.783,702.481C859.883,702.231 859.983,701.931 859.983,701.731C859.983,701.581 859.933,701.431 859.883,701.331C858.533,699.231 856.533,697.481 853.733,697.481C849.433,697.481 846.883,700.581 846.883,704.031C846.883,706.631 847.833,708.281 851.083,710.081C847.783,712.531 845.783,715.231 845.783,718.781C845.783,722.981 848.533,726.231 853.133,726.231C858.233,726.231 861.583,723.081 861.583,718.231C861.583,714.431 859.583,711.931 855.333,709.881L854.883,709.681ZM831.233,725.731C832.883,725.281 834.833,725.281 836.533,725.281C841.133,725.281 843.533,725.481 843.883,725.531C844.183,725.531 844.283,725.331 844.283,725.031C844.283,724.331 843.783,723.231 843.233,723.231C842.783,723.231 841.633,723.281 841.083,723.281C839.633,723.281 838.533,723.231 836.883,723.231C835.533,723.231 833.583,723.331 832.333,723.481C833.533,720.831 835.583,716.881 838.583,713.731C841.783,710.431 844.033,707.631 844.033,703.981C844.033,700.181 841.633,697.431 837.883,697.431C834.383,697.431 831.983,699.431 830.633,702.331C830.483,702.531 830.483,702.781 830.483,703.031C830.483,703.431 830.683,703.881 831.233,704.381C831.383,704.581 831.533,704.631 831.683,704.631C832.033,704.631 832.333,704.231 832.483,703.681C833.233,701.331 835.083,699.481 837.783,699.481C840.433,699.481 841.933,701.531 841.933,703.981C841.933,706.581 840.133,709.031 837.333,712.081C834.433,715.181 832.033,719.431 830.733,722.281C830.533,722.681 830.333,722.981 830.033,723.431C829.933,723.581 829.883,723.781 829.883,724.031C829.883,724.831 830.483,725.731 831.083,725.731L831.233,725.731ZM853.033,711.031C858.783,713.331 859.483,716.331 859.483,718.431C859.483,721.831 856.783,724.131 853.133,724.131C849.483,724.131 847.883,721.381 847.883,718.681C847.883,715.831 849.783,713.531 853.033,711.031ZM859.183,703.081C857.433,705.031 855.383,707.031 852.983,708.681C849.883,707.181 848.983,706.081 848.983,704.031C848.983,701.731 850.583,699.481 853.783,699.481C855.883,699.481 857.133,700.731 858.183,702.631C858.383,703.031 858.633,703.181 858.833,703.181C858.983,703.181 859.083,703.131 859.183,703.081Z" style="fill-rule:nonzero;"/>
        </g>
    </g>
</svg>
