<?xml version="1.0" encoding="UTF-8" standalone="no"?>
<!DOCTYPE svg PUBLIC "-//W3C//DTD SVG 1.1//EN" "http://www.w3.org/Graphics/SVG/1.1/DTD/svg11.dtd">
<svg width="100%" height="100%" viewBox="0 0 96 96" version="1.1" xmlns="http://www.w3.org/2000/svg" xmlns:xlink="http://www.w3.org/1999/xlink" xml:space="preserve" xmlns:serif="http://www.serif.com/" style="fill-rule:evenodd;clip-rule:evenodd;stroke-linejoin:round;stroke-miterlimit:2;">
    <g transform="matrix(1,0,0,1,-491.528,-365.55)">
        <g transform="matrix(2,0,0,2,-952.938,-710.212)">
            <path d="M770.033,561.781C770.033,548.581 759.333,537.881 746.133,537.881C732.933,537.881 722.233,548.581 722.233,561.781C722.233,574.981 732.933,585.631 746.133,585.631C759.333,585.631 770.033,574.981 770.033,561.781ZM767.983,561.781C767.983,573.831 758.183,583.581 746.133,583.581C734.083,583.581 724.283,573.831 724.283,561.781C724.283,549.731 734.083,539.931 746.133,539.931C758.183,539.931 767.983,549.731 767.983,561.781ZM753.983,547.431C753.183,547.581 752.133,547.681 750.983,547.731L741.583,548.381C740.983,548.081 740.333,547.881 739.833,547.881C739.483,547.881 739.233,548.031 739.233,548.331C739.233,548.831 739.233,549.531 739.133,550.081L737.433,559.931C737.233,560.581 736.933,561.481 736.933,561.731C736.933,562.681 737.983,563.531 738.583,563.531C738.733,563.531 738.833,563.481 738.933,563.381C740.983,561.331 742.283,560.181 746.833,560.181C751.183,560.181 754.333,562.581 754.333,566.831C754.333,571.231 751.433,574.331 745.233,574.331C741.883,574.331 739.583,573.181 737.533,570.281C737.333,569.981 737.083,569.881 736.883,569.881C736.233,569.881 735.783,570.881 735.783,571.731C735.783,572.081 735.883,572.431 736.083,572.631C738.883,575.431 741.433,576.531 745.233,576.531C753.133,576.531 756.733,572.281 756.733,566.781C756.733,561.081 752.083,558.081 747.183,558.081C743.583,558.081 741.533,558.681 739.583,560.281L741.333,550.531L751.383,549.881C752.733,549.781 754.083,549.781 754.883,549.781C755.233,549.781 755.383,549.531 755.383,549.231C755.383,548.531 754.683,547.431 754.083,547.431L753.983,547.431Z" style="fill-rule:nonzero;"/>
        </g>
    </g>
</svg>
