<?xml version="1.0" encoding="UTF-8" standalone="no"?>
<!DOCTYPE svg PUBLIC "-//W3C//DTD SVG 1.1//EN" "http://www.w3.org/Graphics/SVG/1.1/DTD/svg11.dtd">
<svg width="100%" height="100%" viewBox="0 0 96 96" version="1.1" xmlns="http://www.w3.org/2000/svg" xmlns:xlink="http://www.w3.org/1999/xlink" xml:space="preserve" xmlns:serif="http://www.serif.com/" style="fill-rule:evenodd;clip-rule:evenodd;stroke-linejoin:round;stroke-miterlimit:2;">
    <g transform="matrix(1,0,0,1,-891.528,-1415.55)">
        <g transform="matrix(2,0,0,2,-952.938,-710.212)">
            <path d="M970.033,1086.78C970.033,1073.58 959.333,1062.88 946.133,1062.88C932.933,1062.88 922.233,1073.58 922.233,1086.78C922.233,1099.98 932.933,1110.63 946.133,1110.63C959.333,1110.63 970.033,1099.98 970.033,1086.78ZM967.983,1086.78C967.983,1098.83 958.183,1108.58 946.133,1108.58C934.083,1108.58 924.283,1098.83 924.283,1086.78C924.283,1074.73 934.083,1064.93 946.133,1064.93C958.183,1064.93 967.983,1074.73 967.983,1086.78ZM939.383,1084.68C941.483,1083.03 945.533,1078.93 945.533,1077.58C945.533,1077.13 945.283,1076.83 944.983,1076.83C944.733,1076.83 944.483,1076.93 944.183,1077.28L943.983,1077.48C944.133,1077.23 944.233,1076.93 944.233,1076.73C944.233,1076.58 944.183,1076.43 944.133,1076.33C942.833,1074.23 940.933,1072.48 938.283,1072.48C934.183,1072.48 931.833,1075.58 931.833,1079.03C931.833,1081.63 932.683,1083.28 935.783,1085.08C932.633,1087.53 930.783,1090.23 930.783,1093.78C930.783,1097.98 933.383,1101.23 937.733,1101.23C942.533,1101.23 945.733,1098.08 945.733,1093.23C945.733,1089.43 943.833,1086.93 939.833,1084.88L939.383,1084.68ZM948.783,1084.98C948.733,1085.18 948.433,1086.43 948.433,1086.78C948.433,1087.78 949.283,1088.48 949.833,1088.48C950.133,1088.48 950.683,1087.88 951.033,1087.38C952.183,1086.08 953.633,1085.23 955.383,1085.23C958.483,1085.23 960.433,1087.68 960.433,1091.73C960.433,1095.53 958.683,1099.08 954.233,1099.08C951.733,1099.08 950.133,1097.23 948.933,1095.13C948.833,1094.93 948.683,1094.83 948.583,1094.83C948.133,1094.83 947.583,1095.88 947.583,1096.78C947.583,1098.18 950.883,1101.23 954.233,1101.23C960.033,1101.23 962.383,1096.73 962.383,1091.68C962.383,1086.28 959.333,1083.18 955.733,1083.18C953.483,1083.18 951.933,1083.98 950.533,1085.38L951.433,1075.78L958.083,1075.28C959.033,1075.18 960.033,1075.13 960.683,1075.13C960.933,1075.13 961.083,1074.88 961.083,1074.58C961.083,1073.93 960.533,1072.93 960.083,1072.93L960.033,1072.93C959.433,1073.08 958.483,1073.13 957.833,1073.18L951.483,1073.58C950.983,1073.38 950.483,1073.18 950.183,1073.18C949.883,1073.18 949.683,1073.28 949.683,1073.58C949.683,1074.08 949.683,1074.78 949.633,1075.33L948.783,1084.98ZM938.483,1086.43C942.483,1088.48 943.733,1090.53 943.733,1093.43C943.733,1096.83 941.183,1099.13 937.733,1099.13C934.233,1099.13 932.733,1096.38 932.733,1093.68C932.733,1090.83 934.533,1088.53 937.633,1086.03L938.483,1086.43ZM943.483,1078.08C941.783,1080.03 939.833,1082.03 937.583,1083.68C934.683,1082.18 933.783,1081.08 933.783,1079.03C933.783,1076.73 935.283,1074.48 938.333,1074.48C940.333,1074.48 941.483,1075.73 942.483,1077.63C942.683,1078.03 942.933,1078.18 943.133,1078.18C943.233,1078.18 943.383,1078.13 943.483,1078.08Z" style="fill-rule:nonzero;"/>
        </g>
    </g>
</svg>
