<?xml version="1.0" encoding="UTF-8" standalone="no"?>
<!DOCTYPE svg PUBLIC "-//W3C//DTD SVG 1.1//EN" "http://www.w3.org/Graphics/SVG/1.1/DTD/svg11.dtd">
<svg width="100%" height="100%" viewBox="0 0 96 96" version="1.1" xmlns="http://www.w3.org/2000/svg" xmlns:xlink="http://www.w3.org/1999/xlink" xml:space="preserve" xmlns:serif="http://www.serif.com/" style="fill-rule:evenodd;clip-rule:evenodd;stroke-linejoin:round;stroke-miterlimit:2;">
    <g transform="matrix(1,0,0,1,-291.528,-1115.55)">
        <g transform="matrix(2,0,0,2,-952.938,-710.212)">
            <path d="M670.033,936.781C670.033,923.581 659.333,912.881 646.133,912.881C632.933,912.881 622.233,923.581 622.233,936.781C622.233,949.981 632.933,960.631 646.133,960.631C659.333,960.631 670.033,949.981 670.033,936.781ZM667.983,936.781C667.983,948.831 658.183,958.581 646.133,958.581C634.083,958.581 624.283,948.831 624.283,936.781C624.283,924.731 634.083,914.931 646.133,914.931C658.183,914.931 667.983,924.731 667.983,936.781ZM632.383,934.981C632.383,935.031 632.033,936.231 632.033,936.781C632.033,937.781 632.883,938.481 633.433,938.481C633.733,938.481 634.283,937.881 634.633,937.381C635.783,936.081 637.233,935.231 638.983,935.231C642.033,935.231 644.033,937.681 644.033,941.731C644.033,945.581 642.283,949.081 637.833,949.081C635.333,949.081 633.733,947.231 632.483,945.131C632.433,944.931 632.283,944.831 632.183,944.831C631.683,944.831 631.183,945.881 631.183,946.781C631.183,947.131 631.233,947.431 631.433,947.631C633.033,949.681 635.033,951.231 637.833,951.231C643.633,951.231 645.983,946.731 645.983,941.681C645.983,936.281 642.933,933.181 639.333,933.181C637.083,933.181 635.533,933.981 634.133,935.381L635.033,925.781L641.683,925.281C642.633,925.181 643.633,925.181 644.283,925.131C644.533,925.131 644.633,924.881 644.633,924.581C644.633,923.931 644.133,922.931 643.683,922.931L643.583,922.931C643.033,923.081 642.033,923.131 641.433,923.181L635.033,923.581C634.583,923.381 634.083,923.181 633.783,923.181C633.483,923.181 633.283,923.281 633.283,923.581C633.283,924.081 633.283,924.781 633.233,925.331L632.383,934.981ZM662.183,924.481C662.183,923.781 661.283,922.931 660.783,922.831L660.683,922.831C660.233,922.831 659.733,923.081 659.233,923.131L649.733,923.831L649.233,923.831C648.633,923.831 648.283,923.781 647.883,923.781C647.783,923.781 647.733,923.881 647.733,924.031C647.733,925.081 648.733,926.031 649.433,926.031C649.733,926.031 650.133,925.981 650.483,925.981L659.633,925.081C655.583,935.081 654.133,939.681 651.233,949.231C651.183,949.481 650.983,949.831 650.983,950.181C650.983,950.481 651.183,950.831 651.883,950.931C652.033,950.931 652.233,950.981 652.383,950.981C652.933,950.981 653.233,950.831 653.333,950.431C654.283,945.081 658.533,933.331 661.333,926.481C661.533,925.981 662.083,925.281 662.183,924.631L662.183,924.481Z" style="fill-rule:nonzero;"/>
        </g>
    </g>
</svg>
