<?xml version="1.0" encoding="UTF-8" standalone="no"?>
<!DOCTYPE svg PUBLIC "-//W3C//DTD SVG 1.1//EN" "http://www.w3.org/Graphics/SVG/1.1/DTD/svg11.dtd">
<svg width="100%" height="100%" viewBox="0 0 96 96" version="1.1" xmlns="http://www.w3.org/2000/svg" xmlns:xlink="http://www.w3.org/1999/xlink" xml:space="preserve" xmlns:serif="http://www.serif.com/" style="fill-rule:evenodd;clip-rule:evenodd;stroke-linejoin:round;stroke-miterlimit:2;">
    <g transform="matrix(1,0,0,1,-691.528,-1565.55)">
        <g transform="matrix(2,0,0,2,-952.938,-710.212)">
            <path d="M870.033,1161.78C870.033,1148.58 859.333,1137.88 846.133,1137.88C832.933,1137.88 822.233,1148.58 822.233,1161.78C822.233,1174.98 832.933,1185.63 846.133,1185.63C859.333,1185.63 870.033,1174.98 870.033,1161.78ZM867.983,1161.78C867.983,1173.83 858.183,1183.58 846.133,1183.58C834.083,1183.58 824.283,1173.83 824.283,1161.78C824.283,1149.73 834.083,1139.93 846.133,1139.93C858.183,1139.93 867.983,1149.73 867.983,1161.78ZM840.583,1176.03C841.383,1175.98 841.933,1175.73 841.933,1175.23C842.283,1171.18 844.333,1158.38 845.733,1151.48C845.783,1151.23 846.033,1150.58 846.133,1150.03L846.133,1149.88C846.133,1149.28 845.483,1148.53 844.733,1148.53C843.983,1148.53 844.183,1149.78 843.933,1150.83C843.483,1149.73 841.883,1147.43 838.533,1147.43C833.883,1147.43 830.283,1152.73 830.283,1158.08C830.283,1162.58 832.483,1165.18 835.683,1165.18C838.133,1165.18 840.733,1163.33 842.183,1160.53C841.833,1162.98 841.083,1167.53 839.883,1174.43C839.833,1174.78 839.733,1175.13 839.733,1175.38C839.733,1175.78 839.883,1176.03 840.483,1176.03L840.583,1176.03ZM859.583,1169.23C860.533,1169.23 861.783,1169.33 862.233,1169.33C862.483,1169.33 862.583,1169.08 862.583,1168.78C862.583,1168.08 862.083,1166.98 861.533,1166.98C861.083,1166.98 860.133,1167.18 859.533,1167.23L858.983,1167.28L858.983,1159.08C858.983,1158.08 859.033,1156.18 859.033,1155.58C859.033,1154.88 858.133,1154.43 857.483,1154.43C857.133,1154.43 856.883,1154.58 856.883,1154.83C856.883,1155.73 856.983,1158.28 856.983,1159.08L856.983,1167.38L849.033,1167.58C851.433,1162.88 854.483,1156.48 856.383,1152.13C856.633,1151.48 857.133,1150.58 857.533,1149.93C857.633,1149.83 857.633,1149.68 857.633,1149.53C857.633,1148.68 856.633,1147.53 856.133,1147.53C855.933,1147.53 855.833,1147.58 855.783,1147.78C853.883,1153.53 847.983,1165.23 847.883,1165.43C847.633,1165.98 847.133,1166.58 846.783,1167.28C846.583,1167.53 846.533,1167.83 846.533,1168.03C846.533,1168.98 847.333,1169.88 848.033,1169.88C848.083,1169.88 848.133,1169.83 848.233,1169.83C848.733,1169.68 849.233,1169.58 849.483,1169.58L856.983,1169.33L856.983,1171.48C856.983,1172.08 856.883,1174.33 856.883,1174.98C856.883,1175.63 857.883,1176.08 858.533,1176.08C858.883,1176.08 859.133,1175.93 859.133,1175.68C859.133,1174.78 858.983,1173.18 858.983,1171.58L858.983,1169.23L859.583,1169.23ZM843.233,1154.53C841.533,1160.63 838.433,1162.98 835.633,1162.98C833.383,1162.98 832.283,1161.28 832.283,1157.93C832.283,1154.28 834.633,1149.48 838.733,1149.48C841.133,1149.48 842.183,1151.38 842.633,1152.48C842.783,1152.83 842.933,1152.98 843.133,1152.98C843.283,1152.98 843.483,1152.83 843.633,1152.63L843.233,1154.53Z" style="fill-rule:nonzero;"/>
        </g>
    </g>
</svg>
