<?xml version="1.0" encoding="UTF-8" standalone="no"?>
<!DOCTYPE svg PUBLIC "-//W3C//DTD SVG 1.1//EN" "http://www.w3.org/Graphics/SVG/1.1/DTD/svg11.dtd">
<svg width="100%" height="100%" viewBox="0 0 96 96" version="1.1" xmlns="http://www.w3.org/2000/svg" xmlns:xlink="http://www.w3.org/1999/xlink" xml:space="preserve" xmlns:serif="http://www.serif.com/" style="fill-rule:evenodd;clip-rule:evenodd;stroke-linejoin:round;stroke-miterlimit:2;">
    <g transform="matrix(1,0,0,1,-891.528,-1115.55)">
        <g transform="matrix(2,0,0,2,-952.938,-710.212)">
            <path d="M970.033,936.781C970.033,923.581 959.333,912.881 946.133,912.881C932.933,912.881 922.233,923.581 922.233,936.781C922.233,949.981 932.933,960.631 946.133,960.631C959.333,960.631 970.033,949.981 970.033,936.781ZM967.983,936.781C967.983,948.831 958.183,958.581 946.133,958.581C934.083,958.581 924.283,948.831 924.283,936.781C924.283,924.731 934.083,914.931 946.133,914.931C958.183,914.931 967.983,924.731 967.983,936.781ZM956.033,935.181C958.883,934.281 961.083,931.831 961.083,928.481C961.083,924.681 958.633,922.431 954.983,922.431C952.183,922.431 949.933,923.731 948.183,925.931C948.033,926.181 947.883,926.381 947.883,926.731C947.883,927.381 948.333,928.381 948.883,928.381C949.233,928.381 949.483,927.931 949.583,927.781C951.283,925.531 952.983,924.481 955.033,924.481C957.583,924.481 959.133,926.081 959.133,928.731C959.133,931.931 955.683,934.431 951.583,934.781C951.333,934.831 951.183,935.081 951.183,935.381C951.183,935.981 951.633,936.931 952.233,936.931C952.333,936.931 952.383,936.881 952.433,936.881C952.833,936.781 953.583,936.631 954.233,936.581C954.483,936.531 954.733,936.531 954.983,936.531C957.983,936.531 960.133,938.781 960.133,942.031C960.133,945.631 958.333,949.131 953.733,949.131C951.383,949.131 949.933,947.781 948.533,945.681C948.383,945.531 948.283,945.431 948.183,945.431C947.683,945.431 947.233,946.481 947.233,947.281C947.233,947.631 947.233,947.881 947.433,948.031C949.233,950.131 951.233,951.231 953.733,951.231C959.683,951.231 962.133,946.981 962.133,941.981C962.133,937.781 959.433,935.181 956.433,935.181L956.033,935.181ZM938.133,922.881C936.483,925.081 933.483,931.981 933.233,932.531C931.583,936.181 930.783,939.531 930.783,942.881C930.783,947.481 934.033,951.231 938.333,951.231C943.033,951.231 945.883,947.131 945.883,941.781C945.883,936.981 943.083,933.431 938.933,933.431C936.633,933.431 934.733,934.631 933.533,936.531C935.533,931.831 937.533,927.581 940.083,924.081C940.233,923.881 940.483,923.531 940.483,923.281C940.483,922.931 939.833,922.381 938.983,922.381C938.633,922.381 938.283,922.531 938.133,922.881ZM938.333,949.231C935.083,949.231 932.733,946.431 932.733,942.831C932.733,938.881 935.133,935.481 938.883,935.481C941.983,935.481 943.883,938.481 943.883,941.881C943.883,946.181 941.533,949.231 938.333,949.231Z" style="fill-rule:nonzero;"/>
        </g>
    </g>
</svg>
