<?xml version="1.0" encoding="UTF-8" standalone="no"?>
<!DOCTYPE svg PUBLIC "-//W3C//DTD SVG 1.1//EN" "http://www.w3.org/Graphics/SVG/1.1/DTD/svg11.dtd">
<svg width="100%" height="100%" viewBox="0 0 96 96" version="1.1" xmlns="http://www.w3.org/2000/svg" xmlns:xlink="http://www.w3.org/1999/xlink" xml:space="preserve" xmlns:serif="http://www.serif.com/" style="fill-rule:evenodd;clip-rule:evenodd;stroke-linejoin:round;stroke-miterlimit:2;">
    <g transform="matrix(1,0,0,1,-691.528,-965.55)">
        <g transform="matrix(2,0,0,2,-952.938,-710.212)">
            <path d="M870.033,861.781C870.033,848.581 859.333,837.881 846.133,837.881C832.933,837.881 822.233,848.581 822.233,861.781C822.233,874.981 832.933,885.631 846.133,885.631C859.333,885.631 870.033,874.981 870.033,861.781ZM867.983,861.781C867.983,873.831 858.183,883.581 846.133,883.581C834.083,883.581 824.283,873.831 824.283,861.781C824.283,849.731 834.083,839.931 846.133,839.931C858.183,839.931 867.983,849.731 867.983,861.781ZM851.233,849.831C851.083,849.531 850.783,849.531 850.683,849.531C849.783,849.531 847.433,854.981 847.433,862.231C847.433,870.331 849.733,876.231 854.583,876.231C859.733,876.231 862.183,869.331 862.183,861.181C862.183,853.231 859.833,847.381 855.433,847.381C853.733,847.381 852.283,848.331 851.233,849.831ZM831.183,859.981C831.133,860.181 830.833,861.431 830.833,861.781C830.833,862.781 831.683,863.481 832.233,863.481C832.633,863.481 833.433,862.381 833.433,862.381C834.583,861.081 836.033,860.231 837.783,860.231C840.883,860.231 842.833,862.681 842.833,866.731C842.833,870.531 841.083,874.081 836.633,874.081C834.133,874.081 832.533,872.231 831.333,870.131C831.233,869.931 831.083,869.831 830.983,869.831C830.533,869.831 829.983,870.881 829.983,871.781C829.983,872.131 830.083,872.381 830.233,872.631C831.833,874.681 833.883,876.231 836.633,876.231C842.433,876.231 844.783,871.731 844.783,866.681C844.783,861.281 841.733,858.131 838.133,858.131C835.883,858.131 834.333,858.981 832.933,860.381L833.833,850.781L840.483,850.281C841.433,850.181 842.433,850.131 843.083,850.131C843.333,850.081 843.483,849.881 843.483,849.581C843.483,848.931 842.983,847.931 842.483,847.931L842.433,847.931C841.833,848.081 840.883,848.131 840.233,848.181L833.883,848.581C833.433,848.331 832.883,848.181 832.583,848.181C832.283,848.181 832.133,848.281 832.133,848.581C832.133,849.081 832.083,849.781 832.033,850.331L831.183,859.981ZM854.483,874.131C850.733,874.131 849.433,868.631 849.433,862.181C849.433,853.631 852.733,849.381 855.333,849.381C858.883,849.381 860.183,855.431 860.183,860.881C860.183,867.631 858.583,874.131 854.483,874.131Z" style="fill-rule:nonzero;"/>
        </g>
    </g>
</svg>
