<?xml version="1.0" encoding="UTF-8" standalone="no"?>
<!DOCTYPE svg PUBLIC "-//W3C//DTD SVG 1.1//EN" "http://www.w3.org/Graphics/SVG/1.1/DTD/svg11.dtd">
<svg width="100%" height="100%" viewBox="0 0 96 96" version="1.1" xmlns="http://www.w3.org/2000/svg" xmlns:xlink="http://www.w3.org/1999/xlink" xml:space="preserve" xmlns:serif="http://www.serif.com/" style="fill-rule:evenodd;clip-rule:evenodd;stroke-linejoin:round;stroke-miterlimit:2;">
    <g transform="matrix(1,0,0,1,-491.528,-1115.55)">
        <g transform="matrix(2,0,0,2,-952.938,-710.212)">
            <path d="M770.033,936.781C770.033,923.581 759.333,912.881 746.133,912.881C732.933,912.881 722.233,923.581 722.233,936.781C722.233,949.981 732.933,960.631 746.133,960.631C759.333,960.631 770.033,949.981 770.033,936.781ZM767.983,936.781C767.983,948.831 758.183,958.581 746.133,958.581C734.083,958.581 724.283,948.831 724.283,936.781C724.283,924.731 734.083,914.931 746.133,914.931C758.183,914.931 767.983,924.731 767.983,936.781ZM756.733,951.031C757.583,950.981 758.083,950.731 758.133,950.231C758.433,946.581 760.233,934.881 761.883,926.481C761.933,926.231 762.183,925.581 762.333,925.031L762.333,924.881C762.333,924.281 761.633,923.531 760.883,923.531C760.183,923.531 760.333,924.781 760.083,925.831C759.633,924.731 758.033,922.431 754.733,922.431C750.033,922.431 746.483,927.731 746.483,933.081C746.483,937.581 748.683,940.181 751.833,940.181C754.333,940.181 756.933,938.331 758.383,935.581C757.783,939.131 757.083,943.281 756.633,946.381C756.533,947.081 756.283,948.281 756.083,949.431C756.033,949.781 755.933,950.131 755.933,950.381C755.933,950.781 756.083,951.031 756.683,951.031L756.733,951.031ZM733.233,937.381C734.333,936.081 735.833,935.231 737.583,935.231C740.633,935.231 742.583,937.681 742.583,941.731C742.583,945.531 740.833,949.081 736.383,949.081C733.883,949.081 732.283,947.231 731.083,945.131C730.983,944.931 730.883,944.831 730.733,944.831C730.283,944.831 729.733,945.881 729.733,946.781C729.733,948.181 733.033,951.231 736.383,951.231C742.233,951.231 744.583,946.731 744.583,941.681C744.583,936.281 741.533,933.181 737.933,933.181C735.633,933.181 734.083,933.981 732.733,935.381L733.583,925.781L740.283,925.281C741.233,925.181 742.233,925.131 742.833,925.131C743.083,925.131 743.233,924.881 743.233,924.581C743.233,923.931 742.733,922.931 742.283,922.931L742.183,922.931C741.583,923.081 740.633,923.131 739.983,923.181L733.633,923.581C733.183,923.381 732.683,923.181 732.333,923.181C732.033,923.181 731.883,923.281 731.883,923.581C731.883,924.081 731.833,924.781 731.783,925.331L730.933,934.981L730.683,936.331C730.633,936.481 730.633,936.631 730.633,936.781C730.633,937.781 731.483,938.481 731.983,938.481C732.133,938.481 732.233,938.481 732.283,938.381L733.233,937.381ZM759.433,929.531C758.033,934.631 755.133,938.031 751.783,938.031C749.583,938.031 748.433,936.281 748.433,932.931C748.433,929.281 750.783,924.481 754.883,924.481C757.333,924.481 758.333,926.381 758.783,927.481C758.933,927.831 759.083,927.981 759.283,927.981C759.483,927.981 759.633,927.831 759.833,927.631C759.683,928.281 759.533,928.881 759.433,929.531Z" style="fill-rule:nonzero;"/>
        </g>
    </g>
</svg>
