<?xml version="1.0" encoding="UTF-8" standalone="no"?>
<!DOCTYPE svg PUBLIC "-//W3C//DTD SVG 1.1//EN" "http://www.w3.org/Graphics/SVG/1.1/DTD/svg11.dtd">
<svg width="100%" height="100%" viewBox="0 0 96 96" version="1.1" xmlns="http://www.w3.org/2000/svg" xmlns:xlink="http://www.w3.org/1999/xlink" xml:space="preserve" xmlns:serif="http://www.serif.com/" style="fill-rule:evenodd;clip-rule:evenodd;stroke-linejoin:round;stroke-miterlimit:2;">
    <g transform="matrix(1,0,0,1,-91.5285,-965.55)">
        <g transform="matrix(2,0,0,2,-952.938,-710.212)">
            <path d="M570.033,861.781C570.033,848.581 559.333,837.881 546.133,837.881C532.933,837.881 522.233,848.581 522.233,861.781C522.233,874.981 532.933,885.631 546.133,885.631C559.333,885.631 570.033,874.981 570.033,861.781ZM567.983,861.781C567.983,873.831 558.183,883.581 546.133,883.581C534.083,883.581 524.283,873.831 524.283,861.781C524.283,849.731 534.083,839.931 546.133,839.931C558.183,839.931 567.983,849.731 567.983,861.781ZM560.133,869.231C561.083,869.231 562.333,869.331 562.783,869.331C563.033,869.331 563.133,869.081 563.133,868.781C563.133,868.081 562.633,866.981 562.083,866.981C561.633,866.981 560.683,867.181 560.083,867.231L559.533,867.281L559.533,859.081C559.533,858.131 559.583,856.181 559.583,855.581C559.583,854.881 558.683,854.431 558.033,854.431C557.733,854.431 557.483,854.581 557.483,854.831C557.483,855.731 557.533,858.281 557.533,859.081L557.533,867.381L549.583,867.581C551.983,862.881 555.033,856.481 556.933,852.131C557.183,851.481 557.733,850.581 558.083,849.931C558.183,849.831 558.183,849.681 558.183,849.531C558.183,848.681 557.233,847.531 556.683,847.531C556.483,847.531 556.383,847.581 556.333,847.781C555.133,851.381 551.433,859.581 548.433,865.481C548.183,865.981 547.683,866.581 547.333,867.281C547.133,867.531 547.133,867.831 547.133,868.031C547.133,868.981 547.933,869.881 548.583,869.881C548.683,869.881 548.683,869.831 548.783,869.831C549.283,869.681 549.783,869.581 550.033,869.581L557.533,869.331L557.533,871.481C557.533,872.081 557.483,874.331 557.483,874.981C557.483,875.631 558.433,876.081 559.083,876.081C559.433,876.081 559.683,875.931 559.683,875.681C559.683,874.781 559.533,873.181 559.533,871.581L559.533,869.231L560.133,869.231ZM542.483,869.231C543.383,869.231 544.633,869.331 545.133,869.331C545.383,869.331 545.433,869.081 545.433,868.781C545.433,868.081 544.933,866.981 544.383,866.981C543.983,866.981 543.033,867.181 542.433,867.231L541.833,867.281L541.833,859.081C541.833,858.131 541.933,856.181 541.933,855.581C541.933,854.881 541.033,854.431 540.383,854.431C540.033,854.431 539.783,854.581 539.783,854.831C539.783,855.731 539.883,858.281 539.883,859.081L539.883,867.381L531.933,867.581C534.283,862.881 537.333,856.481 539.233,852.131C539.533,851.481 540.033,850.581 540.433,849.931C540.483,849.831 540.483,849.681 540.483,849.531C540.483,848.681 539.533,847.531 538.983,847.531C538.833,847.531 538.683,847.581 538.683,847.781C537.633,850.531 535.783,855.581 530.783,865.481C530.533,865.981 530.033,866.581 529.633,867.281C529.483,867.531 529.433,867.831 529.433,868.031C529.433,868.981 530.233,869.881 530.933,869.881C530.983,869.881 531.033,869.831 531.133,869.831C531.633,869.681 532.133,869.581 532.383,869.581L539.883,869.331L539.883,871.481C539.883,872.081 539.783,874.331 539.783,874.981C539.783,875.631 540.783,876.081 541.433,876.081C541.783,876.081 542.033,875.931 542.033,875.681C542.033,874.781 541.833,873.181 541.833,871.581L541.833,869.231L542.483,869.231Z" style="fill-rule:nonzero;"/>
        </g>
    </g>
</svg>
