<?xml version="1.0" encoding="UTF-8" standalone="no"?>
<!DOCTYPE svg PUBLIC "-//W3C//DTD SVG 1.1//EN" "http://www.w3.org/Graphics/SVG/1.1/DTD/svg11.dtd">
<svg width="100%" height="100%" viewBox="0 0 96 96" version="1.1" xmlns="http://www.w3.org/2000/svg" xmlns:xlink="http://www.w3.org/1999/xlink" xml:space="preserve" xmlns:serif="http://www.serif.com/" style="fill-rule:evenodd;clip-rule:evenodd;stroke-linejoin:round;stroke-miterlimit:2;">
    <g transform="matrix(1,0,0,1,-691.528,-1415.55)">
        <g transform="matrix(2,0,0,2,-952.938,-710.212)">
            <path d="M870.033,1086.78C870.033,1073.58 859.333,1062.88 846.133,1062.88C832.933,1062.88 822.233,1073.58 822.233,1086.78C822.233,1099.98 832.933,1110.63 846.133,1110.63C859.333,1110.63 870.033,1099.98 870.033,1086.78ZM867.983,1086.78C867.983,1098.83 858.183,1108.58 846.133,1108.58C834.083,1108.58 824.283,1098.83 824.283,1086.78C824.283,1074.73 834.083,1064.93 846.133,1064.93C858.183,1064.93 867.983,1074.73 867.983,1086.78ZM839.133,1084.68C842.283,1082.18 845.283,1078.68 845.283,1077.58C845.283,1077.13 845.033,1076.83 844.733,1076.83C844.483,1076.83 844.233,1076.93 843.933,1077.28L843.733,1077.48C843.883,1077.23 843.933,1076.93 843.933,1076.73C843.933,1076.58 843.933,1076.43 843.883,1076.33C842.583,1074.23 840.683,1072.48 838.033,1072.48C833.933,1072.48 831.533,1075.58 831.533,1079.03C831.533,1081.63 832.433,1083.28 835.533,1085.08C832.383,1087.53 830.533,1090.23 830.533,1093.78C830.533,1097.98 833.083,1101.23 837.483,1101.23C842.283,1101.23 845.483,1098.08 845.483,1093.23C845.483,1089.43 843.583,1086.93 839.583,1084.88L839.133,1084.68ZM855.733,1085.18C858.633,1084.28 860.833,1081.83 860.833,1078.48C860.833,1074.68 858.383,1072.43 854.733,1072.43C851.883,1072.43 849.683,1073.73 847.883,1075.93C847.733,1076.18 847.633,1076.38 847.633,1076.73C847.633,1077.13 847.733,1077.58 848.133,1078.13C848.333,1078.33 848.433,1078.38 848.633,1078.38C848.933,1078.38 849.233,1077.93 849.333,1077.78C851.033,1075.53 852.733,1074.48 854.783,1074.48C857.333,1074.48 858.833,1076.08 858.833,1078.73C858.833,1082.28 854.583,1084.53 851.283,1084.78C851.033,1084.83 850.933,1085.08 850.933,1085.38C850.933,1085.98 851.383,1086.93 851.983,1086.93C852.033,1086.93 852.083,1086.88 852.183,1086.88C852.333,1086.83 853.483,1086.53 854.733,1086.53C857.733,1086.53 859.833,1088.78 859.833,1092.03C859.833,1095.63 858.033,1099.13 853.483,1099.13C851.133,1099.13 849.683,1097.78 848.233,1095.68C848.133,1095.53 848.033,1095.43 847.883,1095.43C847.383,1095.43 846.933,1096.48 846.933,1097.28C846.933,1097.63 846.983,1097.88 847.133,1098.03C848.933,1100.13 850.983,1101.23 853.483,1101.23C859.433,1101.23 861.833,1096.98 861.833,1091.98C861.833,1087.78 859.183,1085.18 856.183,1085.18L855.733,1085.18ZM838.233,1086.43C842.233,1088.48 843.483,1090.53 843.483,1093.43C843.483,1096.83 840.933,1099.13 837.483,1099.13C833.983,1099.13 832.483,1096.38 832.483,1093.68C832.483,1090.83 834.283,1088.53 837.383,1086.03L838.233,1086.43ZM837.333,1083.68C834.383,1082.18 833.533,1081.08 833.533,1079.03C833.533,1076.73 835.033,1074.48 838.083,1074.48C840.083,1074.48 841.233,1075.73 842.233,1077.63C842.433,1078.03 842.683,1078.18 842.883,1078.18C842.933,1078.18 843.083,1078.18 843.133,1078.13C841.483,1080.08 839.583,1082.03 837.333,1083.68Z" style="fill-rule:nonzero;"/>
        </g>
    </g>
</svg>
