<?xml version="1.0" encoding="UTF-8" standalone="no"?>
<!DOCTYPE svg PUBLIC "-//W3C//DTD SVG 1.1//EN" "http://www.w3.org/Graphics/SVG/1.1/DTD/svg11.dtd">
<svg width="100%" height="100%" viewBox="0 0 96 96" version="1.1" xmlns="http://www.w3.org/2000/svg" xmlns:xlink="http://www.w3.org/1999/xlink" xml:space="preserve" xmlns:serif="http://www.serif.com/" style="fill-rule:evenodd;clip-rule:evenodd;stroke-linejoin:round;stroke-miterlimit:2;">
    <g transform="matrix(1,0,0,1,-209.628,-2573.28)">
        <g transform="matrix(1,0,0,1,-110.019,-3591.86)">
            <path d="M415.248,6212.94C415.248,6186.55 393.848,6165.15 367.448,6165.15C341.048,6165.15 319.648,6186.55 319.648,6212.94C319.648,6239.35 341.048,6260.65 367.448,6260.65C393.848,6260.65 415.248,6239.35 415.248,6212.94ZM411.148,6212.94C411.148,6237.05 391.548,6256.55 367.448,6256.55C343.348,6256.55 323.748,6237.05 323.748,6212.94C323.748,6188.85 343.348,6169.24 367.448,6169.24C391.548,6169.24 411.148,6188.85 411.148,6212.94ZM378.848,6232.35C378.848,6235.35 378.748,6238.55 378.748,6239.85C378.748,6241.24 380.948,6242.24 382.448,6242.24C383.248,6242.24 383.748,6241.94 383.748,6241.44C383.748,6239.44 383.448,6235.85 383.448,6232.44L383.448,6196.05C383.448,6193.05 383.648,6189.85 383.648,6188.44C383.648,6187.15 381.448,6186.15 380.048,6186.15C379.248,6186.15 378.748,6186.44 378.748,6186.94C378.748,6188.05 378.748,6189.74 378.848,6191.65C376.548,6187.74 372.748,6186.15 368.348,6186.15C357.548,6186.15 347.448,6198.24 347.448,6211.55C347.448,6222.24 353.048,6228.65 361.248,6228.65C368.048,6228.65 374.448,6225.05 378.848,6216.65L378.848,6232.35ZM378.848,6204.05C378.848,6214.55 369.248,6224.44 361.248,6224.44C356.248,6224.44 352.348,6220.05 352.348,6211.24C352.348,6201.05 359.048,6190.24 368.448,6190.24C371.548,6190.24 374.748,6191.55 376.948,6194.94C377.148,6195.24 377.348,6195.35 377.648,6195.35C378.148,6195.35 378.648,6195.05 378.848,6194.65L378.848,6204.05Z" style="fill-rule:nonzero;"/>
        </g>
    </g>
</svg>
