<?xml version="1.0" encoding="UTF-8" standalone="no"?>
<!DOCTYPE svg PUBLIC "-//W3C//DTD SVG 1.1//EN" "http://www.w3.org/Graphics/SVG/1.1/DTD/svg11.dtd">
<svg width="100%" height="100%" viewBox="0 0 96 96" version="1.1" xmlns="http://www.w3.org/2000/svg" xmlns:xlink="http://www.w3.org/1999/xlink" xml:space="preserve" xmlns:serif="http://www.serif.com/" style="fill-rule:evenodd;clip-rule:evenodd;stroke-linejoin:round;stroke-miterlimit:2;">
    <g transform="matrix(1,0,0,1,-1409.63,-2423.28)">
        <g transform="matrix(1,0,0,1,-110.019,-3591.86)">
            <path d="M1615.25,6062.94C1615.25,6036.55 1593.85,6015.15 1567.45,6015.15C1541.05,6015.15 1519.65,6036.55 1519.65,6062.94C1519.65,6089.35 1541.05,6110.65 1567.45,6110.65C1593.85,6110.65 1615.25,6089.35 1615.25,6062.94ZM1611.15,6062.94C1611.15,6087.05 1591.55,6106.55 1567.45,6106.55C1543.35,6106.55 1523.75,6087.05 1523.75,6062.94C1523.75,6038.85 1543.35,6019.24 1567.45,6019.24C1591.55,6019.24 1611.15,6038.85 1611.15,6062.94ZM1579.75,6074.24C1579.75,6076.24 1579.55,6080.44 1579.55,6081.74C1579.55,6083.15 1581.75,6084.05 1583.25,6084.05C1583.95,6084.05 1584.55,6083.85 1584.55,6083.24C1584.55,6081.35 1584.35,6075.35 1584.35,6074.24L1584.35,6057.85C1584.35,6051.05 1582.75,6042.05 1571.95,6042.05C1565.65,6042.05 1558.35,6045.85 1554.95,6052.74C1554.95,6050.35 1555.05,6045.94 1555.05,6044.65C1555.05,6043.24 1552.85,6042.24 1551.35,6042.24C1550.55,6042.24 1550.05,6042.55 1550.05,6043.05C1550.05,6045.05 1550.35,6050.55 1550.35,6052.15L1550.35,6074.24C1550.35,6075.44 1550.15,6080.44 1550.15,6081.74C1550.15,6083.15 1552.35,6084.05 1553.85,6084.05C1554.55,6084.05 1555.15,6083.85 1555.15,6083.24C1555.15,6081.65 1554.95,6078.85 1554.95,6075.74L1554.95,6074.24C1554.95,6069.35 1554.95,6063.24 1556.25,6058.74C1558.85,6050.15 1565.95,6046.44 1571.95,6046.44C1578.25,6046.44 1579.75,6051.55 1579.75,6058.24L1579.75,6074.24Z" style="fill-rule:nonzero;"/>
        </g>
    </g>
</svg>
