<?xml version="1.0" encoding="UTF-8" standalone="no"?>
<!DOCTYPE svg PUBLIC "-//W3C//DTD SVG 1.1//EN" "http://www.w3.org/Graphics/SVG/1.1/DTD/svg11.dtd">
<svg width="100%" height="100%" viewBox="0 0 96 96" version="1.1" xmlns="http://www.w3.org/2000/svg" xmlns:xlink="http://www.w3.org/1999/xlink" xml:space="preserve" xmlns:serif="http://www.serif.com/" style="fill-rule:evenodd;clip-rule:evenodd;stroke-linejoin:round;stroke-miterlimit:2;">
    <g transform="matrix(1,0,0,1,-91.5285,-1115.55)">
        <g transform="matrix(2,0,0,2,-952.938,-710.212)">
            <path d="M570.033,936.781C570.033,923.581 559.333,912.881 546.133,912.881C532.933,912.881 522.233,923.581 522.233,936.781C522.233,949.981 532.933,960.631 546.133,960.631C559.333,960.631 570.033,949.981 570.033,936.781ZM567.983,936.781C567.983,948.831 558.183,958.581 546.133,958.581C534.083,958.581 524.283,948.831 524.283,936.781C524.283,924.731 534.083,914.931 546.133,914.931C558.183,914.931 567.983,924.731 567.983,936.781ZM551.033,937.381C552.133,936.081 553.633,935.231 555.383,935.231C558.433,935.231 560.383,937.681 560.383,941.731C560.383,945.581 558.633,949.081 554.183,949.081C551.683,949.081 550.083,947.231 548.883,945.131C548.783,944.931 548.683,944.831 548.533,944.831C548.083,944.831 547.533,945.881 547.533,946.781C547.533,948.181 550.833,951.231 554.183,951.231C560.033,951.231 562.383,946.731 562.383,941.681C562.383,936.281 559.333,933.181 555.733,933.181C553.433,933.181 551.883,933.981 550.533,935.381L551.383,925.781L558.033,925.281C559.033,925.181 560.033,925.181 560.633,925.131C560.883,925.131 561.033,924.881 561.033,924.581C561.033,923.931 560.533,922.931 560.083,922.931L559.983,922.931C559.383,923.081 558.433,923.131 557.783,923.181L551.433,923.631C550.983,923.381 550.483,923.181 550.133,923.181C549.833,923.181 549.683,923.281 549.683,923.631C549.683,924.081 549.633,924.781 549.583,925.331L548.733,934.981L548.483,936.331C548.433,936.481 548.433,936.631 548.433,936.781C548.433,937.781 549.283,938.481 549.783,938.481C549.933,938.481 550.033,938.481 550.083,938.381L551.033,937.381ZM533.933,937.381C535.033,936.081 536.533,935.231 538.283,935.231C541.333,935.231 543.283,937.681 543.283,941.731C543.283,945.581 541.533,949.081 537.083,949.081C534.583,949.081 532.983,947.231 531.783,945.131C531.683,944.931 531.583,944.831 531.433,944.831C530.983,944.831 530.433,945.881 530.433,946.781C530.433,948.181 533.733,951.231 537.083,951.231C542.933,951.231 545.283,946.731 545.283,941.681C545.283,936.281 542.233,933.181 538.633,933.181C536.333,933.181 534.783,933.981 533.433,935.381L534.283,925.781L540.983,925.281C541.933,925.181 542.933,925.181 543.533,925.131C543.783,925.131 543.933,924.881 543.933,924.581C543.933,923.931 543.433,922.931 542.983,922.931L542.883,922.931C542.283,923.081 541.333,923.131 540.733,923.181L534.333,923.631C533.883,923.381 533.383,923.181 533.033,923.181C532.733,923.181 532.583,923.281 532.583,923.631C532.583,924.081 532.533,924.781 532.483,925.331L531.683,934.981L531.383,936.331C531.333,936.481 531.333,936.631 531.333,936.781C531.333,937.781 532.183,938.481 532.683,938.481C532.833,938.481 532.933,938.481 532.983,938.381L533.933,937.381Z" style="fill-rule:nonzero;"/>
        </g>
    </g>
</svg>
