<?xml version="1.0" encoding="UTF-8" standalone="no"?>
<!DOCTYPE svg PUBLIC "-//W3C//DTD SVG 1.1//EN" "http://www.w3.org/Graphics/SVG/1.1/DTD/svg11.dtd">
<svg width="100%" height="100%" viewBox="0 0 96 96" version="1.1" xmlns="http://www.w3.org/2000/svg" xmlns:xlink="http://www.w3.org/1999/xlink" xml:space="preserve" xmlns:serif="http://www.serif.com/" style="fill-rule:evenodd;clip-rule:evenodd;stroke-linejoin:round;stroke-miterlimit:2;">
    <g transform="matrix(1,0,0,1,-809.628,-2423.28)">
        <g transform="matrix(1,0,0,1,-110.019,-3591.86)">
            <path d="M1015.25,6062.94C1015.25,6036.55 993.848,6015.15 967.448,6015.15C941.048,6015.15 919.648,6036.55 919.648,6062.94C919.648,6089.35 941.048,6110.65 967.448,6110.65C993.848,6110.65 1015.25,6089.35 1015.25,6062.94ZM1011.15,6062.94C1011.15,6087.05 991.548,6106.55 967.448,6106.55C943.348,6106.55 923.748,6087.05 923.748,6062.94C923.748,6038.85 943.348,6019.24 967.448,6019.24C991.548,6019.24 1011.15,6038.85 1011.15,6062.94ZM980.448,6090.74C980.448,6092.05 982.648,6093.05 984.148,6093.05C984.848,6093.05 985.448,6092.74 985.448,6092.24C985.448,6090.24 985.248,6084.24 985.248,6083.24L985.248,6066.94C985.248,6060.05 983.548,6051.05 972.848,6051.05C966.548,6051.05 959.248,6054.85 955.848,6061.74L955.848,6042.85C955.848,6040.85 955.948,6035.74 955.948,6034.44C955.948,6033.05 953.748,6032.15 952.248,6032.15C951.548,6032.15 950.948,6032.35 950.948,6032.94C950.948,6034.85 951.248,6040.35 951.248,6041.94L951.248,6082.35C951.248,6083.55 951.048,6089.35 951.048,6090.65C951.048,6092.05 953.348,6093.05 954.848,6093.05C955.548,6093.05 956.048,6092.74 956.048,6092.24C955.948,6090.15 955.848,6087.65 955.848,6085.05L955.848,6083.24C955.848,6079.24 955.848,6072.05 957.148,6067.74C959.748,6059.15 966.848,6055.55 972.848,6055.55C979.348,6055.55 980.648,6060.55 980.648,6067.24L980.648,6082.35C980.648,6084.35 980.548,6089.35 980.448,6090.65L980.448,6090.74Z" style="fill-rule:nonzero;"/>
        </g>
    </g>
</svg>
