<?xml version="1.0" encoding="UTF-8" standalone="no"?>
<!DOCTYPE svg PUBLIC "-//W3C//DTD SVG 1.1//EN" "http://www.w3.org/Graphics/SVG/1.1/DTD/svg11.dtd">
<svg width="100%" height="100%" viewBox="0 0 96 96" version="1.1" xmlns="http://www.w3.org/2000/svg" xmlns:xlink="http://www.w3.org/1999/xlink" xml:space="preserve" xmlns:serif="http://www.serif.com/" style="fill-rule:evenodd;clip-rule:evenodd;stroke-linejoin:round;stroke-miterlimit:2;">
    <g transform="matrix(1,0,0,1,-1091.53,-965.55)">
        <g transform="matrix(2,0,0,2,-952.938,-710.212)">
            <path d="M1070.03,861.781C1070.03,848.581 1059.33,837.881 1046.13,837.881C1032.93,837.881 1022.23,848.581 1022.23,861.781C1022.23,874.981 1032.93,885.631 1046.13,885.631C1059.33,885.631 1070.03,874.981 1070.03,861.781ZM1067.98,861.781C1067.98,873.831 1058.18,883.581 1046.13,883.581C1034.08,883.581 1024.28,873.831 1024.28,861.781C1024.28,849.731 1034.08,839.931 1046.13,839.931C1058.18,839.931 1067.98,849.731 1067.98,861.781ZM1034.03,862.381C1035.13,861.081 1036.63,860.231 1038.38,860.231C1041.43,860.231 1043.38,862.681 1043.38,866.731C1043.38,870.531 1041.63,874.081 1037.18,874.081C1034.68,874.081 1033.08,872.231 1031.88,870.131C1031.78,869.931 1031.68,869.831 1031.53,869.831C1031.08,869.831 1030.53,870.881 1030.53,871.781C1030.53,873.181 1033.83,876.231 1037.18,876.231C1043.03,876.231 1045.38,871.731 1045.38,866.681C1045.38,861.281 1042.33,858.181 1038.73,858.181C1036.43,858.181 1034.88,858.981 1033.53,860.381L1034.38,850.781L1041.03,850.281C1042.03,850.181 1043.03,850.181 1043.63,850.131C1043.88,850.131 1044.03,849.881 1044.03,849.581C1044.03,848.931 1043.53,847.931 1043.08,847.931L1042.98,847.931C1042.38,848.081 1041.43,848.131 1040.78,848.181L1034.43,848.581C1033.98,848.381 1033.48,848.181 1033.13,848.181C1032.83,848.181 1032.68,848.281 1032.68,848.581C1032.68,849.081 1032.63,849.781 1032.58,850.331L1031.73,859.981L1031.48,861.331C1031.43,861.481 1031.43,861.631 1031.43,861.781C1031.43,862.781 1032.28,863.481 1032.78,863.481C1032.93,863.481 1033.03,863.481 1033.08,863.381L1034.03,862.381ZM1060.48,869.231C1061.43,869.231 1062.68,869.331 1063.13,869.331C1063.38,869.331 1063.48,869.081 1063.48,868.781C1063.48,868.081 1062.98,866.981 1062.43,866.981C1062.03,866.981 1061.03,867.181 1060.48,867.231L1059.88,867.281L1059.88,859.081C1059.88,858.131 1059.93,856.181 1059.93,855.581C1059.93,854.881 1059.03,854.431 1058.38,854.431C1058.08,854.431 1057.83,854.581 1057.83,854.831C1057.83,855.781 1057.88,858.281 1057.88,859.081L1057.88,867.381L1049.93,867.581C1052.33,862.881 1055.38,856.481 1057.28,852.131C1057.53,851.481 1058.08,850.581 1058.43,849.931C1058.53,849.831 1058.53,849.681 1058.53,849.531C1058.53,848.681 1057.58,847.531 1057.03,847.531C1056.83,847.531 1056.73,847.581 1056.68,847.781C1055.38,851.731 1051.43,860.331 1048.83,865.481C1048.53,866.031 1048.03,866.581 1047.68,867.281C1047.53,867.531 1047.48,867.831 1047.48,868.031C1047.48,868.981 1048.28,869.881 1048.93,869.881C1049.03,869.881 1049.08,869.831 1049.13,869.831C1049.63,869.681 1050.13,869.581 1050.38,869.581L1057.88,869.331L1057.88,871.481C1057.88,872.081 1057.83,874.331 1057.83,874.981C1057.83,875.631 1058.78,876.081 1059.43,876.081C1059.78,876.081 1060.03,875.931 1060.03,875.681C1060.03,874.781 1059.88,873.181 1059.88,871.581L1059.88,869.231L1060.48,869.231Z" style="fill-rule:nonzero;"/>
        </g>
    </g>
</svg>
