<?xml version="1.0" encoding="UTF-8" standalone="no"?>
<!DOCTYPE svg PUBLIC "-//W3C//DTD SVG 1.1//EN" "http://www.w3.org/Graphics/SVG/1.1/DTD/svg11.dtd">
<svg width="100%" height="100%" viewBox="0 0 96 96" version="1.1" xmlns="http://www.w3.org/2000/svg" xmlns:xlink="http://www.w3.org/1999/xlink" xml:space="preserve" xmlns:serif="http://www.serif.com/" style="fill-rule:evenodd;clip-rule:evenodd;stroke-linejoin:round;stroke-miterlimit:2;">
    <g transform="matrix(1,0,0,1,-891.528,-365.55)">
        <g transform="matrix(2,0,0,2,-952.938,-710.212)">
            <path d="M970.033,561.781C970.033,548.581 959.333,537.881 946.133,537.881C932.933,537.881 922.233,548.581 922.233,561.781C922.233,574.981 932.933,585.631 946.133,585.631C959.333,585.631 970.033,574.981 970.033,561.781ZM967.983,561.781C967.983,573.831 958.183,583.581 946.133,583.581C934.083,583.581 924.283,573.831 924.283,561.781C924.283,549.731 934.083,539.931 946.133,539.931C958.183,539.931 967.983,549.731 967.983,561.781ZM949.433,576.331C950.433,576.281 950.933,576.031 950.983,575.481C951.283,573.081 954.233,554.781 956.033,549.781L956.033,549.631C956.033,549.031 954.983,548.381 954.333,548.281L954.233,548.281C953.483,548.281 953.683,549.481 953.433,550.631C952.833,549.481 950.233,547.131 945.833,547.131C939.683,547.131 934.833,552.531 934.833,557.981C934.833,562.581 938.333,565.231 942.383,565.231C945.633,565.231 949.483,563.431 951.333,560.531C950.783,563.531 949.483,570.531 948.583,574.681C948.533,575.031 948.433,575.381 948.433,575.631C948.433,576.031 948.633,576.331 949.333,576.331L949.433,576.331ZM952.633,554.381C950.833,559.831 946.833,563.031 942.383,563.031C939.383,563.031 937.133,561.281 937.133,557.831C937.133,554.131 940.683,549.231 946.033,549.231C949.183,549.231 951.333,551.181 951.833,552.281C952.033,552.631 952.233,552.781 952.433,552.781C952.633,552.781 952.833,552.631 953.033,552.431L952.633,554.381Z" style="fill-rule:nonzero;"/>
        </g>
    </g>
</svg>
