<?xml version="1.0" encoding="UTF-8" standalone="no"?>
<!DOCTYPE svg PUBLIC "-//W3C//DTD SVG 1.1//EN" "http://www.w3.org/Graphics/SVG/1.1/DTD/svg11.dtd">
<svg width="100%" height="100%" viewBox="0 0 96 96" version="1.1" xmlns="http://www.w3.org/2000/svg" xmlns:xlink="http://www.w3.org/1999/xlink" xml:space="preserve" xmlns:serif="http://www.serif.com/" style="fill-rule:evenodd;clip-rule:evenodd;stroke-linejoin:round;stroke-miterlimit:2;">
    <g transform="matrix(1,0,0,1,-109.628,-2423.28)">
        <g transform="matrix(1,0,0,1,-110.019,-3591.86)">
            <path d="M315.248,6062.94C315.248,6036.55 293.848,6015.15 267.448,6015.15C241.048,6015.15 219.648,6036.55 219.648,6062.94C219.648,6089.35 241.048,6110.65 267.448,6110.65C293.848,6110.65 315.248,6089.35 315.248,6062.94ZM311.148,6062.94C311.148,6087.05 291.548,6106.55 267.448,6106.55C243.348,6106.55 223.748,6087.05 223.748,6062.94C223.748,6038.85 243.348,6019.24 267.448,6019.24C291.548,6019.24 311.148,6038.85 311.148,6062.94ZM284.248,6043.74C284.248,6042.55 281.948,6041.65 280.348,6041.65C279.548,6041.65 278.948,6041.94 278.948,6042.44C278.948,6043.24 278.848,6045.44 278.848,6047.94C277.048,6043.74 272.748,6041.65 268.648,6041.65C258.548,6041.65 247.748,6053.55 247.748,6067.94C247.748,6078.55 253.148,6084.15 261.248,6084.15C267.748,6084.15 274.548,6080.44 278.648,6072.05C278.848,6075.44 280.848,6083.74 283.348,6083.74C284.748,6083.74 286.348,6081.65 286.348,6080.44C286.348,6080.24 286.248,6080.05 286.148,6079.94C284.848,6077.94 283.148,6074.24 283.148,6066.24C283.148,6060.35 283.648,6047.35 284.248,6043.94L284.248,6043.74ZM278.848,6050.05C278.748,6052.85 278.748,6056.35 278.648,6058.05C278.048,6071.24 269.748,6079.94 261.248,6079.94C256.248,6079.94 252.648,6076.24 252.648,6067.55C252.648,6055.35 261.148,6045.74 268.648,6045.74C271.348,6045.74 274.348,6047.15 276.548,6050.55C276.648,6050.74 276.948,6050.85 277.248,6050.85C277.748,6050.85 278.548,6050.55 278.848,6050.05Z" style="fill-rule:nonzero;"/>
        </g>
    </g>
</svg>
