<?xml version="1.0" encoding="UTF-8" standalone="no"?>
<!DOCTYPE svg PUBLIC "-//W3C//DTD SVG 1.1//EN" "http://www.w3.org/Graphics/SVG/1.1/DTD/svg11.dtd">
<svg width="100%" height="100%" viewBox="0 0 96 96" version="1.1" xmlns="http://www.w3.org/2000/svg" xmlns:xlink="http://www.w3.org/1999/xlink" xml:space="preserve" xmlns:serif="http://www.serif.com/" style="fill-rule:evenodd;clip-rule:evenodd;stroke-linejoin:round;stroke-miterlimit:2;">
    <g transform="matrix(1,0,0,1,-391.528,-365.55)">
        <g transform="matrix(2,0,0,2,-952.938,-710.212)">
            <path d="M720.033,561.781C720.033,548.581 709.333,537.881 696.133,537.881C682.933,537.881 672.233,548.581 672.233,561.781C672.233,574.981 682.933,585.631 696.133,585.631C709.333,585.631 720.033,574.981 720.033,561.781ZM717.983,561.781C717.983,573.831 708.183,583.581 696.133,583.581C684.083,583.581 674.283,573.831 674.283,561.781C674.283,549.731 684.083,539.931 696.133,539.931C708.183,539.931 717.983,549.731 717.983,561.781ZM702.183,569.231C703.933,569.231 705.633,569.331 706.233,569.331C706.533,569.331 706.683,569.131 706.683,568.781C706.683,568.131 706.033,566.981 705.283,566.981C704.733,566.981 703.333,567.181 702.133,567.231C701.733,567.231 701.333,567.281 700.933,567.281L700.933,558.931C700.933,557.931 701.033,555.981 701.033,555.331C701.033,554.631 699.933,554.181 699.183,554.181C698.833,554.181 698.533,554.331 698.533,554.581C698.533,555.531 698.683,558.131 698.683,558.931L698.683,567.381C692.983,567.631 686.533,567.831 686.533,567.831C690.283,562.881 694.883,556.031 697.733,551.831C699.383,549.481 699.433,549.331 699.433,549.081C699.433,548.281 698.383,547.131 697.783,547.131C697.583,547.131 697.483,547.181 697.383,547.381C696.483,549.631 694.683,552.781 685.483,565.681L684.083,567.531C683.883,567.831 683.783,568.081 683.783,568.381C683.783,569.281 684.783,570.131 685.633,570.131C685.733,570.131 685.833,570.131 685.933,570.081C686.583,569.931 687.283,569.831 687.583,569.831L698.683,569.381L698.683,571.581C698.683,572.181 698.583,574.481 698.583,575.131C698.583,575.831 699.683,576.281 700.433,576.281C700.783,576.281 701.083,576.131 701.083,575.881C701.083,574.931 700.983,573.331 700.933,571.681L700.933,569.281L702.183,569.231Z" style="fill-rule:nonzero;"/>
        </g>
    </g>
</svg>
