<?xml version="1.0" encoding="UTF-8" standalone="no"?>
<!DOCTYPE svg PUBLIC "-//W3C//DTD SVG 1.1//EN" "http://www.w3.org/Graphics/SVG/1.1/DTD/svg11.dtd">
<svg width="100%" height="100%" viewBox="0 0 96 96" version="1.1" xmlns="http://www.w3.org/2000/svg" xmlns:xlink="http://www.w3.org/1999/xlink" xml:space="preserve" xmlns:serif="http://www.serif.com/" style="fill-rule:evenodd;clip-rule:evenodd;stroke-linejoin:round;stroke-miterlimit:2;">
    <g transform="matrix(1,0,0,1,-491.528,-815.55)">
        <g transform="matrix(2,0,0,2,-952.938,-710.212)">
            <path d="M770.033,786.781C770.033,773.581 759.333,762.881 746.133,762.881C732.933,762.881 722.233,773.581 722.233,786.781C722.233,799.981 732.933,810.631 746.133,810.631C759.333,810.631 770.033,799.981 770.033,786.781ZM767.983,786.781C767.983,798.831 758.183,808.581 746.133,808.581C734.083,808.581 724.283,798.831 724.283,786.781C724.283,774.731 734.083,764.931 746.133,764.931C758.183,764.931 767.983,774.731 767.983,786.781ZM739.683,785.181C742.583,784.281 744.783,781.831 744.783,778.481C744.783,774.681 742.333,772.431 738.683,772.431C734.783,772.431 731.583,775.581 731.583,776.731C731.583,776.781 731.833,778.381 732.583,778.381C732.883,778.381 733.183,777.931 733.283,777.781C734.983,775.531 736.683,774.481 738.733,774.481C741.283,774.481 742.783,776.081 742.783,778.731C742.783,782.281 738.533,784.531 735.233,784.781C734.983,784.831 734.883,785.081 734.883,785.381C734.883,785.981 735.333,786.931 735.933,786.931C735.983,786.931 736.033,786.881 736.133,786.881C736.883,786.681 737.633,786.531 738.683,786.531C741.683,786.531 743.783,788.781 743.783,792.031C743.783,795.631 741.983,799.131 737.433,799.131C735.083,799.131 733.633,797.781 732.183,795.681C732.083,795.531 731.983,795.431 731.883,795.431C731.333,795.431 730.883,796.481 730.883,797.281C730.883,797.631 730.933,797.881 731.083,798.031C732.883,800.131 734.933,801.231 737.433,801.231C743.383,801.231 745.833,796.981 745.833,791.981C745.833,787.781 743.133,785.181 740.133,785.181L739.683,785.181ZM762.483,774.481C762.483,773.781 761.583,772.931 761.033,772.831L760.933,772.831C760.433,772.831 759.933,773.081 759.383,773.131L749.383,773.831L748.883,773.831C748.233,773.831 747.883,773.781 747.483,773.781C747.333,773.781 747.283,773.881 747.283,774.031C747.283,774.531 747.933,776.031 749.083,776.031C749.433,776.031 749.783,775.981 750.183,775.931L759.783,775.081C756.833,782.131 753.983,789.731 751.883,796.331C751.683,797.031 751.333,798.081 750.933,799.231C750.933,799.481 750.733,799.831 750.733,800.181C750.733,800.481 750.933,800.831 751.633,800.931C751.833,800.931 752.033,800.981 752.183,800.981C752.783,800.981 753.083,800.831 753.183,800.381C754.433,794.531 758.683,783.231 761.633,776.481C761.833,775.981 762.433,775.281 762.483,774.631L762.483,774.481Z" style="fill-rule:nonzero;"/>
        </g>
    </g>
</svg>
