<?xml version="1.0" encoding="UTF-8" standalone="no"?>
<!DOCTYPE svg PUBLIC "-//W3C//DTD SVG 1.1//EN" "http://www.w3.org/Graphics/SVG/1.1/DTD/svg11.dtd">
<svg width="100%" height="100%" viewBox="0 0 96 96" version="1.1" xmlns="http://www.w3.org/2000/svg" xmlns:xlink="http://www.w3.org/1999/xlink" xml:space="preserve" xmlns:serif="http://www.serif.com/" style="fill-rule:evenodd;clip-rule:evenodd;stroke-linejoin:round;stroke-miterlimit:2;">
    <g transform="matrix(1,0,0,1,-891.528,-665.55)">
        <g transform="matrix(2,0,0,2,-952.938,-710.212)">
            <path d="M970.033,711.781C970.033,698.581 959.333,687.881 946.133,687.881C932.933,687.881 922.233,698.581 922.233,711.781C922.233,724.981 932.933,735.631 946.133,735.631C959.333,735.631 970.033,724.981 970.033,711.781ZM967.983,711.781C967.983,723.831 958.183,733.581 946.133,733.581C934.083,733.581 924.283,723.831 924.283,711.781C924.283,699.731 934.083,689.931 946.133,689.931C958.183,689.931 967.983,699.731 967.983,711.781ZM950.433,699.831C950.433,699.531 949.983,699.531 949.933,699.531C948.933,699.531 946.833,705.831 946.833,712.231C946.833,720.331 949.083,726.231 953.683,726.231C958.533,726.231 960.883,719.331 960.883,711.181C960.883,703.231 958.633,697.381 954.483,697.381C952.833,697.381 951.433,698.331 950.433,699.831ZM938.083,710.181C940.983,709.281 943.183,706.831 943.183,703.481C943.183,699.681 940.733,697.431 937.083,697.431C934.233,697.431 932.033,698.731 930.283,700.931C930.133,701.181 929.983,701.381 929.983,701.731C929.983,702.381 930.433,703.381 930.983,703.381C931.333,703.381 931.583,702.931 931.683,702.781C933.383,700.531 935.083,699.481 937.133,699.481C939.683,699.481 941.183,701.081 941.183,703.731C941.183,707.281 937.133,709.481 933.683,709.781C933.433,709.831 933.283,710.081 933.283,710.381C933.283,710.981 933.733,711.931 934.333,711.931C934.433,711.931 934.483,711.881 934.533,711.881C935.283,711.681 936.033,711.531 937.083,711.531C940.083,711.531 942.233,713.781 942.233,717.031C942.233,720.631 940.433,724.131 936.033,724.131C933.583,724.131 932.133,722.781 930.733,720.681C930.583,720.531 930.533,720.431 930.383,720.431C929.883,720.431 929.433,721.481 929.433,722.281C929.433,722.631 929.483,722.881 929.633,723.031C931.433,725.131 933.433,726.231 936.033,726.231C941.883,726.231 944.233,721.981 944.233,716.981C944.233,712.781 941.533,710.181 938.533,710.181L938.083,710.181ZM953.533,724.131C949.983,724.131 948.783,718.631 948.783,712.181C948.783,703.631 951.933,699.381 954.333,699.381C957.733,699.381 958.933,705.431 958.933,710.881C958.933,717.631 957.433,724.131 953.533,724.131Z" style="fill-rule:nonzero;"/>
        </g>
    </g>
</svg>
