<?xml version="1.0" encoding="UTF-8" standalone="no"?>
<!DOCTYPE svg PUBLIC "-//W3C//DTD SVG 1.1//EN" "http://www.w3.org/Graphics/SVG/1.1/DTD/svg11.dtd">
<svg width="100%" height="100%" viewBox="0 0 96 96" version="1.1" xmlns="http://www.w3.org/2000/svg" xmlns:xlink="http://www.w3.org/1999/xlink" xml:space="preserve" xmlns:serif="http://www.serif.com/" style="fill-rule:evenodd;clip-rule:evenodd;stroke-linejoin:round;stroke-miterlimit:2;">
    <g transform="matrix(1,0,0,1,-1091.53,-365.55)">
        <g transform="matrix(2,0,0,2,-952.938,-710.212)">
            <path d="M1070.03,561.781C1070.03,548.581 1059.33,537.881 1046.13,537.881C1032.93,537.881 1022.23,548.581 1022.23,561.781C1022.23,574.981 1032.93,585.631 1046.13,585.631C1059.33,585.631 1070.03,574.981 1070.03,561.781ZM1067.98,561.781C1067.98,573.831 1058.18,583.581 1046.13,583.581C1034.08,583.581 1024.28,573.831 1024.28,561.781C1024.28,549.731 1034.08,539.931 1046.13,539.931C1058.18,539.931 1067.98,549.731 1067.98,561.781ZM1053.83,571.531C1053.83,572.381 1053.73,574.381 1053.73,575.031C1053.73,575.631 1054.83,576.081 1055.58,576.081C1055.93,576.081 1056.23,575.981 1056.23,575.681C1056.18,574.681 1056.13,572.381 1056.13,571.281L1056.13,551.531C1056.13,550.431 1056.38,549.731 1056.38,549.081C1056.38,548.381 1055.48,547.631 1054.93,547.631C1054.33,547.631 1053.48,548.781 1053.18,548.981C1051.98,549.931 1050.13,550.981 1048.13,551.731C1047.88,551.831 1047.73,551.981 1047.73,552.131C1047.73,552.581 1048.63,553.031 1049.33,553.031C1049.48,553.031 1049.63,553.031 1049.73,552.981C1051.08,552.581 1052.68,551.931 1053.83,551.231L1053.83,571.531ZM1037.63,571.531C1037.63,572.381 1037.53,574.381 1037.53,575.031C1037.53,575.631 1038.58,576.081 1039.38,576.081C1039.73,576.081 1040.03,575.981 1040.03,575.681C1039.98,574.681 1039.93,572.381 1039.93,571.281L1039.93,551.531C1039.93,550.431 1040.18,549.731 1040.18,549.081C1040.18,548.381 1039.28,547.631 1038.68,547.631C1038.08,547.631 1037.28,548.781 1036.98,548.981C1035.78,549.931 1033.88,550.981 1031.93,551.731C1031.63,551.831 1031.53,551.981 1031.53,552.131C1031.53,552.581 1032.43,553.031 1033.08,553.031C1033.23,553.031 1033.38,553.031 1033.48,552.981C1034.88,552.581 1036.48,551.931 1037.63,551.231L1037.63,571.531Z" style="fill-rule:nonzero;"/>
        </g>
    </g>
</svg>
