<?xml version="1.0" encoding="UTF-8" standalone="no"?>
<!DOCTYPE svg PUBLIC "-//W3C//DTD SVG 1.1//EN" "http://www.w3.org/Graphics/SVG/1.1/DTD/svg11.dtd">
<svg width="100%" height="100%" viewBox="0 0 96 96" version="1.1" xmlns="http://www.w3.org/2000/svg" xmlns:xlink="http://www.w3.org/1999/xlink" xml:space="preserve" xmlns:serif="http://www.serif.com/" style="fill-rule:evenodd;clip-rule:evenodd;stroke-linejoin:round;stroke-miterlimit:2;">
    <g transform="matrix(1,0,0,1,-491.528,-1565.55)">
        <g transform="matrix(2,0,0,2,-952.938,-710.212)">
            <path d="M770.033,1161.78C770.033,1148.58 759.333,1137.88 746.133,1137.88C732.933,1137.88 722.233,1148.58 722.233,1161.78C722.233,1174.98 732.933,1185.63 746.133,1185.63C759.333,1185.63 770.033,1174.98 770.033,1161.78ZM767.983,1161.78C767.983,1173.83 758.183,1183.58 746.133,1183.58C734.083,1183.58 724.283,1173.83 724.283,1161.78C724.283,1149.73 734.083,1139.93 746.133,1139.93C758.183,1139.93 767.983,1149.73 767.983,1161.78ZM740.433,1176.03C741.283,1175.98 741.783,1175.73 741.833,1175.18C742.433,1168.28 744.633,1156.23 745.583,1151.48C745.633,1151.23 745.883,1150.58 746.033,1150.03L746.033,1149.88C746.033,1149.28 745.333,1148.53 744.583,1148.53C743.883,1148.53 744.033,1149.78 743.783,1150.83C743.333,1149.73 741.733,1147.43 738.433,1147.43C733.733,1147.43 730.183,1152.73 730.183,1158.08C730.183,1162.58 732.383,1165.18 735.533,1165.18C738.033,1165.18 740.633,1163.33 742.083,1160.53C741.483,1164.13 740.783,1168.28 740.333,1171.38C740.233,1172.08 739.983,1173.28 739.783,1174.43C739.733,1174.78 739.633,1175.13 739.633,1175.38C739.633,1175.78 739.783,1176.03 740.383,1176.03L740.433,1176.03ZM748.733,1175.73C749.583,1175.53 751.283,1175.23 754.283,1175.23C754.783,1175.23 759.233,1175.23 762.083,1175.53C762.333,1175.53 762.483,1175.33 762.483,1175.03C762.483,1174.33 761.933,1173.23 761.383,1173.23C760.933,1173.23 759.683,1173.28 759.083,1173.28C757.583,1173.28 756.433,1173.23 754.683,1173.23C753.283,1173.23 751.233,1173.33 749.883,1173.48C751.133,1170.83 753.333,1166.88 756.483,1163.73C759.833,1160.43 762.233,1157.63 762.233,1153.98C762.233,1150.18 759.683,1147.43 755.733,1147.43C752.083,1147.43 749.533,1149.43 748.133,1152.33C747.983,1152.53 747.933,1152.78 747.933,1153.03C747.933,1153.43 748.183,1153.88 748.733,1154.38C748.883,1154.58 749.033,1154.63 749.233,1154.63C749.583,1154.63 749.883,1154.23 750.083,1153.68C750.883,1151.33 752.833,1149.48 755.633,1149.48C758.383,1149.48 759.983,1151.53 759.983,1153.98C759.983,1156.58 758.133,1159.03 755.133,1162.08C752.133,1165.18 749.583,1169.43 748.183,1172.28C748.033,1172.63 747.783,1172.98 747.483,1173.43C747.383,1173.58 747.333,1173.78 747.333,1174.03C747.333,1174.83 747.933,1175.73 748.583,1175.73L748.733,1175.73ZM743.133,1154.53C741.983,1158.63 739.533,1162.98 735.483,1162.98C733.283,1162.98 732.133,1161.28 732.133,1157.93C732.133,1154.28 734.483,1149.48 738.583,1149.48C741.033,1149.48 742.033,1151.38 742.483,1152.48C742.633,1152.83 742.783,1152.98 742.983,1152.98C743.183,1152.98 743.333,1152.83 743.483,1152.63L743.133,1154.53Z" style="fill-rule:nonzero;"/>
        </g>
    </g>
</svg>
