<?xml version="1.0" encoding="UTF-8" standalone="no"?>
<!DOCTYPE svg PUBLIC "-//W3C//DTD SVG 1.1//EN" "http://www.w3.org/Graphics/SVG/1.1/DTD/svg11.dtd">
<svg width="100%" height="100%" viewBox="0 0 96 96" version="1.1" xmlns="http://www.w3.org/2000/svg" xmlns:xlink="http://www.w3.org/1999/xlink" xml:space="preserve" xmlns:serif="http://www.serif.com/" style="fill-rule:evenodd;clip-rule:evenodd;stroke-linejoin:round;stroke-miterlimit:2;">
    <g transform="matrix(1,0,0,1,-291.528,-815.55)">
        <g transform="matrix(2,0,0,2,-952.938,-710.212)">
            <path d="M670.033,786.781C670.033,773.581 659.333,762.881 646.133,762.881C632.933,762.881 622.233,773.581 622.233,786.781C622.233,799.981 632.933,810.631 646.133,810.631C659.333,810.631 670.033,799.981 670.033,786.781ZM667.983,786.781C667.983,798.831 658.183,808.581 646.133,808.581C634.083,808.581 624.283,798.831 624.283,786.781C624.283,774.731 634.083,764.931 646.133,764.931C658.183,764.931 667.983,774.731 667.983,786.781ZM638.883,785.181C641.783,784.281 643.933,781.831 643.933,778.481C643.933,774.681 641.483,772.431 637.883,772.431C635.033,772.431 632.783,773.731 631.033,775.931C630.883,776.181 630.733,776.381 630.733,776.731C630.733,777.131 630.883,777.581 631.283,778.131C631.483,778.331 631.583,778.381 631.733,778.381C632.083,778.381 632.333,777.931 632.483,777.781C634.133,775.531 635.833,774.481 637.883,774.481C640.483,774.481 641.983,776.081 641.983,778.731C641.983,781.931 638.533,784.431 634.433,784.781C634.183,784.831 634.033,785.081 634.033,785.381C634.033,785.981 634.533,786.931 635.083,786.931C635.183,786.931 635.233,786.881 635.283,786.881C635.683,786.781 636.433,786.631 637.083,786.581C637.383,786.531 637.633,786.531 637.883,786.531C640.833,786.531 642.983,788.781 642.983,792.031C642.983,795.631 641.183,799.131 636.583,799.131C634.283,799.131 632.783,797.781 631.383,795.681C631.233,795.531 631.183,795.431 631.033,795.431C630.533,795.431 630.083,796.481 630.083,797.281C630.083,797.631 630.133,797.881 630.283,798.031C632.083,800.131 634.083,801.231 636.583,801.231C642.533,801.231 644.983,796.981 644.983,791.981C644.983,787.781 642.283,785.181 639.283,785.181L638.883,785.181ZM648.283,784.981C648.233,785.181 647.933,786.431 647.933,786.781C647.933,787.781 648.783,788.481 649.333,788.481C649.633,788.481 650.183,787.881 650.533,787.381C651.683,786.081 653.133,785.231 654.883,785.231C657.933,785.231 659.933,787.681 659.933,791.731C659.933,795.531 658.183,799.081 653.733,799.081C651.233,799.081 649.633,797.231 648.383,795.131C648.333,794.931 648.183,794.831 648.083,794.831C647.633,794.831 647.083,795.881 647.083,796.781C647.083,797.131 647.133,797.431 647.333,797.631C648.933,799.681 650.983,801.231 653.733,801.231C659.533,801.231 661.883,796.731 661.883,791.681C661.883,786.281 658.833,783.181 655.233,783.181C652.983,783.181 651.433,783.981 650.033,785.381L650.933,775.781L657.583,775.281C658.533,775.181 659.533,775.131 660.183,775.131C660.433,775.131 660.533,774.881 660.533,774.581C660.533,773.931 660.033,772.931 659.583,772.931L659.483,772.931C658.933,773.081 657.933,773.131 657.333,773.181L650.983,773.581C650.483,773.381 649.983,773.181 649.683,773.181C649.383,773.181 649.183,773.281 649.183,773.581C649.183,774.081 649.183,774.781 649.133,775.331L648.283,784.981Z" style="fill-rule:nonzero;"/>
        </g>
    </g>
</svg>
