<?xml version="1.0" encoding="UTF-8" standalone="no"?>
<!DOCTYPE svg PUBLIC "-//W3C//DTD SVG 1.1//EN" "http://www.w3.org/Graphics/SVG/1.1/DTD/svg11.dtd">
<svg width="100%" height="100%" viewBox="0 0 96 96" version="1.1" xmlns="http://www.w3.org/2000/svg" xmlns:xlink="http://www.w3.org/1999/xlink" xml:space="preserve" xmlns:serif="http://www.serif.com/" style="fill-rule:evenodd;clip-rule:evenodd;stroke-linejoin:round;stroke-miterlimit:2;">
    <g transform="matrix(1,0,0,1,-1091.53,-815.55)">
        <g transform="matrix(2,0,0,2,-952.938,-710.212)">
            <path d="M1070.03,786.781C1070.03,773.581 1059.33,762.881 1046.13,762.881C1032.93,762.881 1022.23,773.581 1022.23,786.781C1022.23,799.981 1032.93,810.631 1046.13,810.631C1059.33,810.631 1070.03,799.981 1070.03,786.781ZM1067.98,786.781C1067.98,798.831 1058.18,808.581 1046.13,808.581C1034.08,808.581 1024.28,798.831 1024.28,786.781C1024.28,774.731 1034.08,764.931 1046.13,764.931C1058.18,764.931 1067.98,774.731 1067.98,786.781ZM1055.73,785.181C1058.63,784.281 1060.78,781.831 1060.78,778.481C1060.78,774.681 1058.38,772.431 1054.73,772.431C1051.88,772.431 1049.68,773.731 1047.88,775.931C1047.73,776.181 1047.58,776.381 1047.58,776.731C1047.58,777.131 1047.73,777.581 1048.13,778.131C1048.33,778.331 1048.43,778.381 1048.63,778.381C1048.93,778.381 1049.23,777.931 1049.33,777.781C1051.03,775.531 1052.73,774.481 1054.78,774.481C1057.33,774.481 1058.83,776.081 1058.83,778.731C1058.83,782.281 1054.58,784.531 1051.28,784.781C1051.03,784.831 1050.93,785.081 1050.93,785.381C1050.93,785.981 1051.38,786.931 1051.98,786.931C1052.03,786.931 1052.08,786.881 1052.18,786.881C1052.53,786.781 1053.28,786.631 1053.93,786.581C1054.23,786.531 1054.48,786.531 1054.73,786.531C1057.68,786.531 1059.83,788.781 1059.83,792.031C1059.83,795.631 1058.03,799.131 1053.48,799.131C1051.13,799.131 1049.68,797.781 1048.23,795.681C1048.13,795.531 1048.03,795.431 1047.88,795.431C1047.38,795.431 1046.93,796.481 1046.93,797.281C1046.93,797.631 1046.98,797.881 1047.13,798.031C1048.93,800.131 1050.98,801.231 1053.48,801.231C1059.43,801.231 1061.83,796.981 1061.83,791.981C1061.83,787.781 1059.18,785.181 1056.13,785.181L1055.73,785.181ZM1043.03,794.231C1043.98,794.231 1045.23,794.331 1045.68,794.331C1045.93,794.331 1046.03,794.081 1046.03,793.781C1046.03,793.081 1045.53,791.981 1044.98,791.981C1044.53,791.981 1043.58,792.181 1042.98,792.231L1042.43,792.281L1042.43,784.081C1042.43,783.131 1042.48,781.181 1042.48,780.581C1042.48,779.881 1041.58,779.431 1040.93,779.431C1040.63,779.431 1040.38,779.581 1040.38,779.831C1040.38,780.731 1040.43,783.281 1040.43,784.081L1040.43,792.381L1032.48,792.581C1034.88,787.881 1037.93,781.481 1039.83,777.131C1040.08,776.481 1040.63,775.581 1040.98,774.931C1041.08,774.831 1041.08,774.681 1041.08,774.531C1041.08,773.681 1040.13,772.531 1039.58,772.531C1039.38,772.531 1039.28,772.581 1039.23,772.781C1038.03,776.381 1034.33,784.581 1031.33,790.481C1031.08,790.981 1030.58,791.581 1030.23,792.281C1030.03,792.531 1030.03,792.831 1030.03,793.031C1030.03,793.981 1030.83,794.881 1031.48,794.881C1031.58,794.881 1031.58,794.831 1031.68,794.831C1032.18,794.681 1032.68,794.581 1032.93,794.581L1040.43,794.331L1040.43,796.481C1040.43,797.081 1040.38,799.331 1040.38,799.981C1040.38,800.631 1041.33,801.081 1041.98,801.081C1042.33,801.081 1042.58,800.931 1042.58,800.681C1042.58,799.781 1042.43,798.181 1042.43,796.581L1042.43,794.231L1043.03,794.231Z" style="fill-rule:nonzero;"/>
        </g>
    </g>
</svg>
