<?xml version="1.0" encoding="UTF-8" standalone="no"?>
<!DOCTYPE svg PUBLIC "-//W3C//DTD SVG 1.1//EN" "http://www.w3.org/Graphics/SVG/1.1/DTD/svg11.dtd">
<svg width="100%" height="100%" viewBox="0 0 96 96" version="1.1" xmlns="http://www.w3.org/2000/svg" xmlns:xlink="http://www.w3.org/1999/xlink" xml:space="preserve" xmlns:serif="http://www.serif.com/" style="fill-rule:evenodd;clip-rule:evenodd;stroke-linejoin:round;stroke-miterlimit:2;">
    <g transform="matrix(1,0,0,1,-391.528,-1115.55)">
        <g transform="matrix(2,0,0,2,-952.938,-710.212)">
            <path d="M720.033,936.781C720.033,923.581 709.333,912.881 696.133,912.881C682.933,912.881 672.233,923.581 672.233,936.781C672.233,949.981 682.933,960.631 696.133,960.631C709.333,960.631 720.033,949.981 720.033,936.781ZM717.983,936.781C717.983,948.831 708.183,958.581 696.133,958.581C684.083,958.581 674.283,948.831 674.283,936.781C674.283,924.731 684.083,914.931 696.133,914.931C708.183,914.931 717.983,924.731 717.983,936.781ZM705.733,934.681C709.183,931.931 711.883,928.381 711.883,927.581C711.883,927.131 711.633,926.831 711.283,926.831C711.033,926.831 710.783,926.931 710.483,927.281L710.333,927.481C710.483,927.231 710.533,926.931 710.533,926.731C710.533,926.581 710.483,926.431 710.483,926.331C709.183,924.231 707.283,922.481 704.633,922.481C700.533,922.481 698.133,925.581 698.133,929.031C698.133,931.631 699.033,933.281 702.133,935.081C698.983,937.531 697.083,940.231 697.083,943.781C697.083,947.981 699.683,951.231 704.033,951.231C708.883,951.231 712.033,948.081 712.033,943.231C712.033,939.431 710.183,936.931 706.133,934.881L705.733,934.681ZM681.183,934.981C681.133,935.181 680.833,936.431 680.833,936.781C680.833,937.781 681.683,938.481 682.233,938.481C682.533,938.481 683.083,937.881 683.433,937.381C684.583,936.081 686.033,935.231 687.783,935.231C690.833,935.231 692.833,937.681 692.833,941.731C692.833,945.531 691.083,949.081 686.633,949.081C684.083,949.081 682.533,947.231 681.283,945.131C681.233,944.931 681.083,944.831 680.983,944.831C680.483,944.831 679.983,945.881 679.983,946.781C679.983,947.131 680.033,947.431 680.233,947.631C681.833,949.681 683.833,951.231 686.633,951.231C692.433,951.231 694.783,946.731 694.783,941.681C694.783,936.281 691.733,933.181 688.133,933.181C685.883,933.181 684.333,933.981 682.933,935.381L683.833,925.781L690.483,925.281C691.433,925.181 692.433,925.131 693.083,925.131C693.333,925.131 693.433,924.881 693.433,924.581C693.433,923.931 692.933,922.931 692.483,922.931L692.383,922.931C691.833,923.081 690.833,923.131 690.233,923.181L683.833,923.581C683.383,923.381 682.883,923.181 682.533,923.181C682.283,923.181 682.083,923.281 682.083,923.581C682.083,924.081 682.083,924.781 682.033,925.331L681.183,934.981ZM704.833,936.431C708.833,938.481 710.083,940.531 710.083,943.431C710.083,946.831 707.533,949.131 704.033,949.131C700.583,949.131 699.083,946.381 699.083,943.681C699.083,940.831 700.883,938.531 703.983,936.031C704.183,936.131 704.533,936.331 704.833,936.431ZM703.933,933.681C700.983,932.181 700.133,931.081 700.133,929.031C700.133,926.731 701.633,924.481 704.683,924.481C706.633,924.481 707.833,925.731 708.833,927.631C709.033,928.031 709.233,928.181 709.483,928.181C709.533,928.181 709.683,928.181 709.733,928.131C708.083,930.081 706.183,932.031 703.933,933.681Z" style="fill-rule:nonzero;"/>
        </g>
    </g>
</svg>
