<?xml version="1.0" encoding="UTF-8" standalone="no"?>
<!DOCTYPE svg PUBLIC "-//W3C//DTD SVG 1.1//EN" "http://www.w3.org/Graphics/SVG/1.1/DTD/svg11.dtd">
<svg width="100%" height="100%" viewBox="0 0 96 96" version="1.1" xmlns="http://www.w3.org/2000/svg" xmlns:xlink="http://www.w3.org/1999/xlink" xml:space="preserve" xmlns:serif="http://www.serif.com/" style="fill-rule:evenodd;clip-rule:evenodd;stroke-linejoin:round;stroke-miterlimit:2;">
    <g transform="matrix(1,0,0,1,-391.528,-1415.55)">
        <g transform="matrix(2,0,0,2,-952.938,-710.212)">
            <path d="M720.033,1086.78C720.033,1073.58 709.333,1062.88 696.133,1062.88C682.933,1062.88 672.233,1073.58 672.233,1086.78C672.233,1099.98 682.933,1110.63 696.133,1110.63C709.333,1110.63 720.033,1099.98 720.033,1086.78ZM717.983,1086.78C717.983,1098.83 708.183,1108.58 696.133,1108.58C684.083,1108.58 674.283,1098.83 674.283,1086.78C674.283,1074.73 684.083,1064.93 696.133,1064.93C708.183,1064.93 717.983,1074.73 717.983,1086.78ZM701.233,1074.83C701.133,1074.63 700.983,1074.53 700.733,1074.53C699.733,1074.53 697.633,1080.83 697.633,1087.23C697.633,1095.33 699.883,1101.23 704.483,1101.23C709.333,1101.23 711.683,1094.33 711.683,1086.18C711.683,1078.23 709.433,1072.38 705.283,1072.38C703.633,1072.38 702.233,1073.33 701.233,1074.83ZM688.833,1084.68C692.283,1081.93 694.983,1078.38 694.983,1077.58C694.983,1077.13 694.733,1076.83 694.383,1076.83C694.133,1076.83 693.883,1076.93 693.583,1077.28L693.433,1077.48C693.533,1077.23 693.633,1076.93 693.633,1076.73C693.633,1076.58 693.583,1076.43 693.533,1076.33C692.233,1074.23 690.383,1072.48 687.733,1072.48C683.633,1072.48 681.233,1075.58 681.233,1079.03C681.233,1081.63 682.133,1083.28 685.233,1085.08C682.083,1087.53 680.183,1090.23 680.183,1093.78C680.183,1097.98 682.783,1101.23 687.133,1101.23C691.983,1101.23 695.133,1098.08 695.133,1093.23C695.133,1089.43 693.283,1086.93 689.233,1084.88L688.833,1084.68ZM704.333,1099.13C700.783,1099.13 699.583,1093.63 699.583,1087.18C699.583,1078.63 702.733,1074.38 705.133,1074.38C708.533,1074.38 709.733,1080.43 709.733,1085.88C709.733,1092.63 708.233,1099.13 704.333,1099.13ZM687.883,1086.43C691.933,1088.48 693.183,1090.53 693.183,1093.43C693.183,1096.83 690.633,1099.13 687.133,1099.13C683.683,1099.13 682.133,1096.38 682.133,1093.68C682.133,1090.83 683.983,1088.53 687.083,1086.03L687.883,1086.43ZM692.883,1078.08C691.183,1080.03 689.283,1082.03 687.033,1083.68C684.083,1082.18 683.183,1081.08 683.183,1079.03C683.183,1076.73 684.733,1074.48 687.783,1074.48C689.733,1074.48 690.933,1075.73 691.933,1077.63C692.133,1078.03 692.333,1078.18 692.533,1078.18C692.683,1078.18 692.783,1078.13 692.883,1078.08Z" style="fill-rule:nonzero;"/>
        </g>
    </g>
</svg>
