<?xml version="1.0" encoding="UTF-8" standalone="no"?>
<!DOCTYPE svg PUBLIC "-//W3C//DTD SVG 1.1//EN" "http://www.w3.org/Graphics/SVG/1.1/DTD/svg11.dtd">
<svg width="100%" height="100%" viewBox="0 0 96 96" version="1.1" xmlns="http://www.w3.org/2000/svg" xmlns:xlink="http://www.w3.org/1999/xlink" xml:space="preserve" xmlns:serif="http://www.serif.com/" style="fill-rule:evenodd;clip-rule:evenodd;stroke-linejoin:round;stroke-miterlimit:2;">
    <g transform="matrix(1,0,0,1,-591.528,-365.55)">
        <g transform="matrix(2,0,0,2,-952.938,-710.212)">
            <path d="M820.033,561.781C820.033,548.581 809.333,537.881 796.133,537.881C782.933,537.881 772.233,548.581 772.233,561.781C772.233,574.981 782.933,585.631 796.133,585.631C809.333,585.631 820.033,574.981 820.033,561.781ZM817.983,561.781C817.983,573.831 808.183,583.581 796.133,583.581C784.083,583.581 774.283,573.831 774.283,561.781C774.283,549.731 784.083,539.931 796.133,539.931C808.183,539.931 817.983,549.731 817.983,561.781ZM789.633,561.431C791.933,556.281 797.633,549.931 798.683,548.881C798.933,548.631 799.233,548.331 799.233,547.981C799.233,547.231 797.983,547.131 797.333,547.131C796.833,547.131 796.283,547.231 796.083,547.631C795.933,547.831 795.633,548.331 795.583,548.481C793.833,550.831 791.183,553.931 789.333,557.031C787.033,560.831 785.633,564.031 785.633,568.031C785.633,573.031 789.583,576.531 796.183,576.531C803.433,576.531 806.783,572.381 806.783,566.731C806.783,561.731 802.533,558.431 797.033,558.431C793.933,558.431 791.183,559.531 789.633,561.431ZM804.383,566.881C804.383,571.481 801.733,574.481 796.183,574.481C790.833,574.481 788.083,571.981 788.083,567.931C788.083,563.481 792.683,560.481 796.933,560.481C801.483,560.481 804.383,563.231 804.383,566.881Z" style="fill-rule:nonzero;"/>
        </g>
    </g>
</svg>
