<?xml version="1.0" encoding="UTF-8" standalone="no"?>
<!DOCTYPE svg PUBLIC "-//W3C//DTD SVG 1.1//EN" "http://www.w3.org/Graphics/SVG/1.1/DTD/svg11.dtd">
<svg width="100%" height="100%" viewBox="0 0 96 96" version="1.1" xmlns="http://www.w3.org/2000/svg" xmlns:xlink="http://www.w3.org/1999/xlink" xml:space="preserve" xmlns:serif="http://www.serif.com/" style="fill-rule:evenodd;clip-rule:evenodd;stroke-linejoin:round;stroke-miterlimit:2;">
    <g transform="matrix(1,0,0,1,-1509.63,-2423.28)">
        <g transform="matrix(1,0,0,1,-110.019,-3591.86)">
            <path d="M1715.25,6062.94C1715.25,6036.55 1693.85,6015.15 1667.45,6015.15C1641.05,6015.15 1619.65,6036.55 1619.65,6062.94C1619.65,6089.35 1641.05,6110.65 1667.45,6110.65C1693.85,6110.65 1715.25,6089.35 1715.25,6062.94ZM1711.15,6062.94C1711.15,6087.05 1691.55,6106.55 1667.45,6106.55C1643.35,6106.55 1623.75,6087.05 1623.75,6062.94C1623.75,6038.85 1643.35,6019.24 1667.45,6019.24C1691.55,6019.24 1711.15,6038.85 1711.15,6062.94ZM1659.75,6045.24C1659.55,6044.94 1659.15,6044.65 1658.75,6044.55C1658.55,6044.44 1658.45,6044.44 1658.25,6044.44C1656.45,6044.44 1648.25,6054.94 1648.25,6065.24C1648.25,6076.94 1654.65,6084.24 1665.95,6084.24C1679.05,6084.24 1686.15,6072.85 1686.15,6062.05C1686.15,6049.24 1679.45,6041.74 1669.85,6041.74C1665.05,6041.74 1661.95,6043.55 1659.75,6045.24ZM1665.95,6079.85C1657.85,6079.85 1652.95,6074.65 1652.95,6065.15C1652.95,6056.24 1659.75,6045.94 1669.35,6045.94C1677.15,6045.94 1681.45,6052.55 1681.45,6062.05C1681.45,6071.85 1674.35,6079.85 1665.95,6079.85Z" style="fill-rule:nonzero;"/>
        </g>
    </g>
</svg>
