<?xml version="1.0" encoding="UTF-8" standalone="no"?>
<!DOCTYPE svg PUBLIC "-//W3C//DTD SVG 1.1//EN" "http://www.w3.org/Graphics/SVG/1.1/DTD/svg11.dtd">
<svg width="100%" height="100%" viewBox="0 0 96 96" version="1.1" xmlns="http://www.w3.org/2000/svg" xmlns:xlink="http://www.w3.org/1999/xlink" xml:space="preserve" xmlns:serif="http://www.serif.com/" style="fill-rule:evenodd;clip-rule:evenodd;stroke-linejoin:round;stroke-miterlimit:2;">
    <g transform="matrix(1,0,0,1,-591.528,-1565.55)">
        <g transform="matrix(2,0,0,2,-952.938,-710.212)">
            <path d="M820.033,1161.78C820.033,1148.58 809.333,1137.88 796.133,1137.88C782.933,1137.88 772.233,1148.58 772.233,1161.78C772.233,1174.98 782.933,1185.63 796.133,1185.63C809.333,1185.63 820.033,1174.98 820.033,1161.78ZM817.983,1161.78C817.983,1173.83 808.183,1183.58 796.133,1183.58C784.083,1183.58 774.283,1173.83 774.283,1161.78C774.283,1149.73 784.083,1139.93 796.133,1139.93C808.183,1139.93 817.983,1149.73 817.983,1161.78ZM790.133,1176.03C790.933,1175.98 791.433,1175.73 791.483,1175.23C791.833,1171.13 794.233,1155.28 795.683,1150.03L795.683,1149.88C795.683,1149.28 795.033,1148.53 794.233,1148.53C793.533,1148.53 793.733,1149.78 793.483,1150.83C792.983,1149.73 791.433,1147.43 788.083,1147.43C783.383,1147.43 779.833,1152.73 779.833,1158.08C779.833,1162.58 782.033,1165.18 785.233,1165.18C787.683,1165.18 790.283,1163.33 791.733,1160.58L789.983,1171.38C789.883,1172.08 789.633,1173.28 789.433,1174.43C789.383,1174.78 789.283,1175.13 789.283,1175.38C789.283,1175.78 789.433,1176.03 790.033,1176.03L790.133,1176.03ZM805.883,1160.18C808.783,1159.28 810.983,1156.83 810.983,1153.48C810.983,1149.68 808.533,1147.43 804.883,1147.43C802.033,1147.43 799.833,1148.73 798.083,1150.93C797.933,1151.18 797.783,1151.38 797.783,1151.73C797.783,1152.38 798.233,1153.38 798.783,1153.38C799.133,1153.38 799.383,1152.93 799.483,1152.78C801.183,1150.53 802.883,1149.48 804.933,1149.48C807.483,1149.48 808.983,1151.08 808.983,1153.73C808.983,1157.28 804.933,1159.48 801.483,1159.78C801.233,1159.83 801.083,1160.08 801.083,1160.38C801.083,1160.98 801.533,1161.93 802.133,1161.93C802.233,1161.93 802.283,1161.88 802.333,1161.88C803.083,1161.68 803.833,1161.53 804.883,1161.53C807.883,1161.53 810.033,1163.78 810.033,1167.03C810.033,1170.63 808.183,1174.13 803.633,1174.13C801.283,1174.13 799.833,1172.78 798.383,1170.68C798.283,1170.53 798.183,1170.43 798.083,1170.43C797.583,1170.43 797.083,1171.48 797.083,1172.28C797.083,1172.63 797.133,1172.88 797.333,1173.03C799.133,1175.13 801.133,1176.23 803.633,1176.23C809.583,1176.23 812.033,1171.98 812.033,1166.98C812.033,1162.78 809.333,1160.18 806.333,1160.18L805.883,1160.18ZM793.183,1152.63C792.483,1155.73 792.333,1156.33 791.833,1157.33C790.033,1160.78 788.183,1163.03 785.183,1163.03C782.933,1163.03 781.833,1161.28 781.833,1157.93C781.833,1154.28 784.183,1149.48 788.283,1149.48C790.683,1149.48 791.733,1151.38 792.183,1152.48C792.283,1152.83 792.433,1152.98 792.683,1152.98C792.833,1152.98 792.983,1152.83 793.183,1152.63Z" style="fill-rule:nonzero;"/>
        </g>
    </g>
</svg>
