<?xml version="1.0" encoding="UTF-8" standalone="no"?>
<!DOCTYPE svg PUBLIC "-//W3C//DTD SVG 1.1//EN" "http://www.w3.org/Graphics/SVG/1.1/DTD/svg11.dtd">
<svg width="100%" height="100%" viewBox="0 0 96 96" version="1.1" xmlns="http://www.w3.org/2000/svg" xmlns:xlink="http://www.w3.org/1999/xlink" xml:space="preserve" xmlns:serif="http://www.serif.com/" style="fill-rule:evenodd;clip-rule:evenodd;stroke-linejoin:round;stroke-miterlimit:2;">
    <g transform="matrix(1,0,0,1,-191.528,-665.55)">
        <g transform="matrix(2,0,0,2,-952.938,-710.212)">
            <path d="M620.033,711.781C620.033,698.581 609.333,687.881 596.133,687.881C582.933,687.881 572.233,698.581 572.233,711.781C572.233,724.981 582.933,735.631 596.133,735.631C609.333,735.631 620.033,724.981 620.033,711.781ZM617.983,711.781C617.983,723.831 608.183,733.581 596.133,733.581C584.083,733.581 574.283,723.831 574.283,711.781C574.283,699.731 584.083,689.931 596.133,689.931C608.183,689.931 617.983,699.731 617.983,711.781ZM581.283,725.731C582.933,725.281 584.883,725.281 586.583,725.281C590.883,725.281 591.883,725.331 593.983,725.531C594.233,725.531 594.383,725.331 594.383,725.031C594.383,724.331 593.833,723.231 593.333,723.231C592.883,723.231 591.733,723.281 591.133,723.281C589.733,723.281 588.633,723.231 586.933,723.231C585.633,723.231 583.683,723.331 582.383,723.481C583.583,720.831 585.683,716.881 588.683,713.731C591.833,710.431 594.083,707.631 594.083,703.981C594.083,700.181 591.733,697.431 587.983,697.431C582.983,697.431 580.533,701.981 580.533,703.031C580.533,703.881 581.533,704.631 581.783,704.631C582.133,704.631 582.383,704.231 582.583,703.681C583.333,701.331 585.183,699.481 587.883,699.481C590.483,699.481 591.983,701.531 591.983,703.981C591.983,706.581 590.233,709.031 587.383,712.081C584.533,715.181 582.133,719.431 580.783,722.281C580.633,722.681 580.383,722.981 580.083,723.431C579.983,723.581 579.933,723.781 579.933,724.031C579.933,724.831 580.533,725.731 581.133,725.731L581.283,725.731ZM605.283,710.181C608.183,709.281 610.383,706.831 610.383,703.481C610.383,699.681 607.933,697.431 604.283,697.431C601.433,697.431 599.183,698.731 597.433,700.931C597.283,701.181 597.133,701.381 597.133,701.731C597.133,702.381 597.583,703.381 598.133,703.381C598.483,703.381 598.733,702.931 598.833,702.781C600.533,700.531 602.233,699.481 604.333,699.481C606.883,699.481 608.383,701.081 608.383,703.731C608.383,707.281 604.133,709.531 600.833,709.781C600.583,709.831 600.433,710.081 600.433,710.381C600.433,710.981 600.933,711.931 601.483,711.931C601.583,711.931 601.633,711.881 601.733,711.881C602.083,711.781 602.833,711.631 603.483,711.581C603.783,711.531 604.033,711.531 604.283,711.531C607.233,711.531 609.383,713.781 609.383,717.031C609.383,720.631 607.583,724.131 603.033,724.131C600.683,724.131 599.183,722.781 597.783,720.681C597.633,720.531 597.533,720.431 597.433,720.431C596.933,720.431 596.483,721.481 596.483,722.281C596.483,722.631 596.483,722.881 596.683,723.031C598.483,725.131 600.483,726.231 603.033,726.231C608.983,726.231 611.433,721.981 611.433,716.981C611.433,712.781 608.733,710.181 605.683,710.181L605.283,710.181Z" style="fill-rule:nonzero;"/>
        </g>
    </g>
</svg>
