<?xml version="1.0" encoding="UTF-8" standalone="no"?>
<!DOCTYPE svg PUBLIC "-//W3C//DTD SVG 1.1//EN" "http://www.w3.org/Graphics/SVG/1.1/DTD/svg11.dtd">
<svg width="100%" height="100%" viewBox="0 0 96 96" version="1.1" xmlns="http://www.w3.org/2000/svg" xmlns:xlink="http://www.w3.org/1999/xlink" xml:space="preserve" xmlns:serif="http://www.serif.com/" style="fill-rule:evenodd;clip-rule:evenodd;stroke-linejoin:round;stroke-miterlimit:2;">
    <g transform="matrix(1,0,0,1,-791.528,-1265.55)">
        <g transform="matrix(2,0,0,2,-952.938,-710.212)">
            <path d="M920.033,1011.78C920.033,998.581 909.333,987.881 896.133,987.881C882.933,987.881 872.233,998.581 872.233,1011.78C872.233,1024.98 882.933,1035.63 896.133,1035.63C909.333,1035.63 920.033,1024.98 920.033,1011.78ZM917.983,1011.78C917.983,1023.83 908.183,1033.58 896.133,1033.58C884.083,1033.58 874.283,1023.83 874.283,1011.78C874.283,999.731 884.083,989.931 896.133,989.931C908.183,989.931 917.983,999.731 917.983,1011.78ZM905.483,1010.18C908.333,1009.28 910.533,1006.83 910.533,1003.48C910.533,999.681 908.083,997.431 904.433,997.431C901.583,997.431 899.383,998.731 897.633,1000.93C897.483,1001.18 897.333,1001.38 897.333,1001.73C897.333,1002.38 897.783,1003.38 898.333,1003.38C898.683,1003.38 898.933,1002.93 899.033,1002.78C900.733,1000.53 902.433,999.481 904.483,999.481C907.033,999.481 908.583,1001.08 908.583,1003.73C908.583,1007.58 903.683,1009.58 901.033,1009.78C900.783,1009.83 900.633,1010.08 900.633,1010.38C900.633,1010.98 901.083,1011.93 901.683,1011.93C901.783,1011.93 901.833,1011.88 901.883,1011.88C902.283,1011.78 903.033,1011.63 903.683,1011.58C903.933,1011.53 904.183,1011.53 904.433,1011.53C907.433,1011.53 909.583,1013.78 909.583,1017.03C909.583,1020.63 907.783,1024.13 903.183,1024.13C900.833,1024.13 899.383,1022.78 897.983,1020.68C897.833,1020.53 897.733,1020.43 897.633,1020.43C897.133,1020.43 896.683,1021.48 896.683,1022.28C896.683,1022.63 896.683,1022.88 896.883,1023.03C898.683,1025.13 900.683,1026.23 903.183,1026.23C909.133,1026.23 911.583,1021.98 911.583,1016.98C911.583,1012.78 908.883,1010.18 905.883,1010.18L905.483,1010.18ZM894.583,999.481C894.583,998.781 893.683,997.931 893.133,997.831L893.083,997.831C892.633,997.831 892.133,998.081 891.583,998.131L882.083,998.831L881.633,998.831C881.033,998.831 880.683,998.781 880.283,998.781C880.133,998.781 880.133,998.881 880.133,999.031C880.133,999.481 880.633,1001.03 881.833,1001.03C882.133,1001.03 882.483,1000.98 882.833,1000.93L891.983,1000.08C890.633,1003.48 887.283,1012.03 883.583,1024.23C883.533,1024.48 883.383,1024.83 883.383,1025.18C883.383,1025.48 883.533,1025.83 884.283,1025.93C884.433,1025.93 884.633,1025.98 884.733,1025.98C885.333,1025.98 885.633,1025.83 885.733,1025.38C886.733,1019.68 892.233,1005.13 893.733,1001.48C893.933,1000.98 894.483,1000.28 894.583,999.631L894.583,999.481Z" style="fill-rule:nonzero;"/>
        </g>
    </g>
</svg>
