<?xml version="1.0" encoding="UTF-8" standalone="no"?>
<!DOCTYPE svg PUBLIC "-//W3C//DTD SVG 1.1//EN" "http://www.w3.org/Graphics/SVG/1.1/DTD/svg11.dtd">
<svg width="100%" height="100%" viewBox="0 0 96 96" version="1.1" xmlns="http://www.w3.org/2000/svg" xmlns:xlink="http://www.w3.org/1999/xlink" xml:space="preserve" xmlns:serif="http://www.serif.com/" style="fill-rule:evenodd;clip-rule:evenodd;stroke-linejoin:round;stroke-miterlimit:2;">
    <g transform="matrix(1,0,0,1,-191.528,-515.55)">
        <g transform="matrix(2,0,0,2,-952.938,-710.212)">
            <path d="M620.033,636.781C620.033,623.581 609.333,612.881 596.133,612.881C582.933,612.881 572.233,623.581 572.233,636.781C572.233,649.981 582.933,660.631 596.133,660.631C609.333,660.631 620.033,649.981 620.033,636.781ZM617.983,636.781C617.983,648.831 608.183,658.581 596.133,658.581C584.083,658.581 574.283,648.831 574.283,636.781C574.283,624.731 584.083,614.931 596.133,614.931C608.183,614.931 617.983,624.731 617.983,636.781ZM603.183,635.181C606.233,634.281 608.533,631.831 608.533,628.481C608.533,624.681 605.983,622.431 602.133,622.431C597.133,622.431 594.583,626.081 594.583,626.731C594.583,627.131 594.733,627.581 595.183,628.131C595.383,628.331 595.483,628.381 595.683,628.381C596.033,628.381 596.283,627.931 596.433,627.781C598.183,625.531 599.983,624.481 602.183,624.481C604.883,624.481 606.433,626.081 606.433,628.731C606.433,632.631 601.533,634.531 598.483,634.781C598.233,634.831 598.083,635.081 598.083,635.381C598.083,635.981 598.583,636.931 599.183,636.931C599.283,636.931 599.333,636.881 599.433,636.881C599.833,636.781 600.633,636.631 601.283,636.581C601.583,636.531 601.833,636.531 602.133,636.531C605.283,636.531 607.533,638.781 607.533,642.031C607.533,645.631 605.383,649.131 600.583,649.131C597.883,649.131 596.233,647.781 594.733,645.681C594.583,645.531 594.533,645.431 594.383,645.431C593.833,645.431 593.383,646.481 593.383,647.281C593.383,647.631 593.383,647.881 593.583,648.031C595.483,650.131 597.633,651.231 600.583,651.231C606.833,651.231 609.633,646.981 609.633,641.981C609.633,637.781 606.783,635.181 603.633,635.181L603.183,635.181ZM585.733,646.531C585.733,647.381 585.633,649.381 585.633,650.031C585.633,650.631 586.583,651.081 587.283,651.081C587.633,651.081 587.883,650.981 587.883,650.681C587.833,649.681 587.783,647.381 587.783,646.281L587.783,626.531C587.783,625.431 588.033,624.731 588.033,624.081C588.033,623.381 587.233,622.631 586.683,622.631C586.133,622.631 585.433,623.781 585.133,623.981C584.033,624.931 582.333,625.981 580.583,626.731C580.333,626.831 580.233,626.981 580.233,627.131C580.233,627.581 581.033,628.031 581.633,628.031C581.783,628.031 581.933,628.031 581.983,627.981C583.233,627.581 584.683,626.931 585.733,626.231L585.733,646.531Z" style="fill-rule:nonzero;"/>
        </g>
    </g>
</svg>
