<?xml version="1.0" encoding="UTF-8" standalone="no"?>
<!DOCTYPE svg PUBLIC "-//W3C//DTD SVG 1.1//EN" "http://www.w3.org/Graphics/SVG/1.1/DTD/svg11.dtd">
<svg width="100%" height="100%" viewBox="0 0 96 96" version="1.1" xmlns="http://www.w3.org/2000/svg" xmlns:xlink="http://www.w3.org/1999/xlink" xml:space="preserve" xmlns:serif="http://www.serif.com/" style="fill-rule:evenodd;clip-rule:evenodd;stroke-linejoin:round;stroke-miterlimit:2;">
    <g transform="matrix(1,0,0,1,-1109.63,-2573.28)">
        <g transform="matrix(1,0,0,1,-110.019,-3591.86)">
            <path d="M1315.25,6212.94C1315.25,6186.55 1293.85,6165.15 1267.45,6165.15C1241.05,6165.15 1219.65,6186.55 1219.65,6212.94C1219.65,6239.35 1241.05,6260.65 1267.45,6260.65C1293.85,6260.65 1315.25,6239.35 1315.25,6212.94ZM1311.15,6212.94C1311.15,6237.05 1291.55,6256.55 1267.45,6256.55C1243.35,6256.55 1223.75,6237.05 1223.75,6212.94C1223.75,6188.85 1243.35,6169.24 1267.45,6169.24C1291.55,6169.24 1311.15,6188.85 1311.15,6212.94ZM1281.25,6228.94C1279.45,6229.05 1277.25,6229.15 1275.95,6229.15C1273.05,6229.05 1267.75,6229.05 1264.55,6229.05C1262.15,6229.05 1257.25,6229.24 1255.15,6229.44C1262.15,6219.94 1272.15,6207.44 1279.75,6199.44C1280.45,6198.65 1282.05,6198.05 1282.05,6197.05C1282.05,6195.65 1280.15,6192.94 1278.45,6192.74L1278.05,6192.74C1277.05,6192.74 1275.75,6193.24 1275.05,6193.24L1261.75,6194.15C1260.45,6194.24 1258.95,6194.24 1257.45,6194.24C1255.95,6194.24 1254.55,6194.24 1253.25,6194.15L1253.15,6194.15C1252.65,6194.15 1252.55,6194.44 1252.55,6194.94C1252.55,6196.35 1254.25,6199.05 1255.95,6199.05L1256.05,6199.05L1261.85,6198.44L1275.55,6197.55C1269.25,6204.15 1259.25,6216.35 1252.15,6225.94C1251.25,6227.15 1249.95,6227.94 1249.55,6229.05C1249.35,6229.44 1249.25,6230.05 1249.25,6230.55C1249.25,6232.24 1250.15,6234.15 1251.25,6234.15L1251.35,6234.15C1255.45,6233.55 1263.95,6233.35 1264.55,6233.35L1275.95,6233.35C1278.35,6233.44 1280.55,6233.74 1282.85,6233.85C1283.45,6233.85 1283.75,6233.35 1283.75,6232.74C1283.75,6231.24 1282.55,6228.94 1281.35,6228.94L1281.25,6228.94Z" style="fill-rule:nonzero;"/>
        </g>
    </g>
</svg>
