<?xml version="1.0" encoding="UTF-8" standalone="no"?>
<!DOCTYPE svg PUBLIC "-//W3C//DTD SVG 1.1//EN" "http://www.w3.org/Graphics/SVG/1.1/DTD/svg11.dtd">
<svg width="100%" height="100%" viewBox="0 0 96 96" version="1.1" xmlns="http://www.w3.org/2000/svg" xmlns:xlink="http://www.w3.org/1999/xlink" xml:space="preserve" xmlns:serif="http://www.serif.com/" style="fill-rule:evenodd;clip-rule:evenodd;stroke-linejoin:round;stroke-miterlimit:2;">
    <g transform="matrix(1,0,0,1,-591.528,-815.55)">
        <g transform="matrix(2,0,0,2,-952.938,-710.212)">
            <path d="M820.033,786.781C820.033,773.581 809.333,762.881 796.133,762.881C782.933,762.881 772.233,773.581 772.233,786.781C772.233,799.981 782.933,810.631 796.133,810.631C809.333,810.631 820.033,799.981 820.033,786.781ZM817.983,786.781C817.983,798.831 808.183,808.581 796.133,808.581C784.083,808.581 774.283,798.831 774.283,786.781C774.283,774.731 784.083,764.931 796.133,764.931C808.183,764.931 817.983,774.731 817.983,786.781ZM805.683,784.681C809.133,781.931 811.833,778.381 811.833,777.581C811.833,777.131 811.583,776.831 811.233,776.831C810.983,776.831 810.733,776.931 810.433,777.281L810.283,777.481C810.433,777.231 810.483,776.931 810.483,776.731C810.483,776.581 810.433,776.431 810.433,776.331C809.133,774.231 807.233,772.481 804.583,772.481C800.483,772.481 798.083,775.581 798.083,779.031C798.083,781.631 798.983,783.281 802.083,785.081C798.933,787.531 797.033,790.231 797.033,793.781C797.033,797.981 799.633,801.231 803.983,801.231C808.833,801.231 811.983,798.081 811.983,793.231C811.983,789.431 810.133,786.931 806.083,784.881L805.683,784.681ZM788.433,785.181C791.283,784.281 793.483,781.831 793.483,778.481C793.483,774.681 791.033,772.431 787.383,772.431C784.533,772.431 782.333,773.731 780.583,775.931C780.433,776.181 780.283,776.381 780.283,776.731C780.283,777.381 780.733,778.381 781.283,778.381C781.633,778.381 781.883,777.931 781.983,777.781C783.683,775.531 785.383,774.481 787.433,774.481C789.983,774.481 791.533,776.081 791.533,778.731C791.533,782.581 786.633,784.581 783.983,784.781C783.733,784.831 783.583,785.081 783.583,785.381C783.583,785.981 784.033,786.931 784.633,786.931C784.733,786.931 784.783,786.881 784.833,786.881C785.583,786.681 786.333,786.531 787.383,786.531C790.383,786.531 792.533,788.781 792.533,792.031C792.533,795.631 790.733,799.131 786.133,799.131C783.783,799.131 782.333,797.781 780.933,795.681C780.783,795.531 780.683,795.431 780.583,795.431C780.083,795.431 779.633,796.481 779.633,797.281C779.633,797.631 779.633,797.881 779.833,798.031C781.633,800.131 783.633,801.231 786.133,801.231C792.083,801.231 794.533,796.981 794.533,791.981C794.533,787.781 791.833,785.181 788.833,785.181L788.433,785.181ZM804.733,786.431C808.783,788.481 810.033,790.531 810.033,793.431C810.033,796.831 807.483,799.131 803.983,799.131C800.533,799.131 799.033,796.381 799.033,793.681C799.033,790.831 800.833,788.531 803.933,786.031L804.733,786.431ZM803.883,783.681C800.933,782.181 800.083,781.081 800.083,779.031C800.083,776.731 801.583,774.481 804.633,774.481C806.583,774.481 807.783,775.731 808.783,777.631C808.983,778.031 809.183,778.181 809.433,778.181C809.483,778.181 809.633,778.181 809.683,778.131C808.033,780.081 806.133,782.031 803.883,783.681Z" style="fill-rule:nonzero;"/>
        </g>
    </g>
</svg>
