<?xml version="1.0" encoding="UTF-8" standalone="no"?>
<!DOCTYPE svg PUBLIC "-//W3C//DTD SVG 1.1//EN" "http://www.w3.org/Graphics/SVG/1.1/DTD/svg11.dtd">
<svg width="100%" height="100%" viewBox="0 0 96 96" version="1.1" xmlns="http://www.w3.org/2000/svg" xmlns:xlink="http://www.w3.org/1999/xlink" xml:space="preserve" xmlns:serif="http://www.serif.com/" style="fill-rule:evenodd;clip-rule:evenodd;stroke-linejoin:round;stroke-miterlimit:2;">
    <g transform="matrix(1,0,0,1,-1091.53,-665.55)">
        <g transform="matrix(2,0,0,2,-952.938,-710.212)">
            <path d="M1070.03,711.781C1070.03,698.581 1059.33,687.881 1046.13,687.881C1032.93,687.881 1022.23,698.581 1022.23,711.781C1022.23,724.981 1032.93,735.631 1046.13,735.631C1059.33,735.631 1070.03,724.981 1070.03,711.781ZM1067.98,711.781C1067.98,723.831 1058.18,733.581 1046.13,733.581C1034.08,733.581 1024.28,723.831 1024.28,711.781C1024.28,699.731 1034.08,689.931 1046.13,689.931C1058.18,689.931 1067.98,699.731 1067.98,711.781ZM1039.13,710.181C1042.03,709.281 1044.18,706.831 1044.18,703.481C1044.18,699.681 1041.78,697.431 1038.13,697.431C1035.28,697.431 1033.08,698.731 1031.28,700.931C1031.13,701.181 1030.98,701.381 1030.98,701.731C1030.98,702.131 1031.13,702.581 1031.53,703.131C1031.73,703.331 1031.83,703.381 1032.03,703.381C1032.33,703.381 1032.58,702.931 1032.73,702.781C1034.43,700.531 1036.13,699.481 1038.18,699.481C1040.73,699.481 1042.23,701.081 1042.23,703.731C1042.23,707.281 1037.98,709.531 1034.68,709.781C1034.43,709.831 1034.33,710.081 1034.33,710.381C1034.33,710.981 1034.78,711.931 1035.38,711.931C1035.43,711.931 1035.48,711.881 1035.58,711.881C1035.93,711.781 1036.68,711.631 1037.33,711.581C1037.63,711.581 1037.88,711.531 1038.13,711.531C1041.08,711.531 1043.23,713.781 1043.23,717.031C1043.23,720.631 1041.43,724.131 1036.88,724.131C1034.53,724.131 1033.08,722.781 1031.63,720.681C1031.53,720.531 1031.43,720.481 1031.28,720.481C1030.78,720.481 1030.33,721.481 1030.33,722.281C1030.33,722.631 1030.38,722.881 1030.53,723.031C1032.33,725.131 1034.33,726.231 1036.88,726.231C1042.83,726.231 1045.23,721.981 1045.23,716.981C1045.23,712.781 1042.58,710.181 1039.53,710.181L1039.13,710.181ZM1049.68,723.481C1050.88,720.831 1052.93,716.881 1055.93,713.731C1059.13,710.431 1061.38,707.631 1061.38,703.981C1061.38,700.181 1058.98,697.431 1055.23,697.431C1050.13,697.431 1047.83,702.031 1047.83,703.031C1047.83,703.431 1048.03,703.881 1048.58,704.381C1048.73,704.581 1048.88,704.631 1049.08,704.631C1049.43,704.631 1049.68,704.231 1049.83,703.681C1050.63,701.331 1052.48,699.481 1055.13,699.481C1057.73,699.481 1059.23,701.531 1059.23,703.981C1059.23,706.581 1057.48,709.031 1054.68,712.081C1051.78,715.181 1049.43,719.431 1048.08,722.281C1047.93,722.681 1047.68,722.981 1047.38,723.431C1047.28,723.581 1047.23,723.781 1047.23,724.031C1047.23,724.831 1047.83,725.731 1048.43,725.731C1048.48,725.731 1048.88,726.481 1048.93,726.481C1049.48,726.331 1049.73,725.481 1050.13,725.431C1051.53,725.281 1052.68,725.281 1053.88,725.281C1057.38,725.281 1059.48,725.331 1061.23,725.531C1061.48,725.531 1061.63,725.381 1061.63,725.031C1061.63,724.331 1061.08,723.231 1060.58,723.231C1060.13,723.231 1058.98,723.281 1058.43,723.281C1056.98,723.281 1055.88,723.231 1054.23,723.231C1052.88,723.231 1050.98,723.331 1049.68,723.481Z" style="fill-rule:nonzero;"/>
        </g>
    </g>
</svg>
