<?xml version="1.0" encoding="UTF-8" standalone="no"?>
<!DOCTYPE svg PUBLIC "-//W3C//DTD SVG 1.1//EN" "http://www.w3.org/Graphics/SVG/1.1/DTD/svg11.dtd">
<svg width="100%" height="100%" viewBox="0 0 67 67" version="1.1" xmlns="http://www.w3.org/2000/svg" xmlns:xlink="http://www.w3.org/1999/xlink" xml:space="preserve" xmlns:serif="http://www.serif.com/" style="fill-rule:evenodd;clip-rule:evenodd;stroke-linejoin:round;stroke-miterlimit:2;">
    <g transform="matrix(1,0,0,1,-982.48,-5281.17)">
        <g transform="matrix(1,0,0,1,-504.034,-1124.47)">
            <path d="M1553.31,6439.04C1553.31,6420.54 1538.41,6405.64 1519.91,6405.64C1501.41,6405.64 1486.51,6420.54 1486.51,6439.04C1486.51,6457.54 1501.41,6472.44 1519.91,6472.44C1538.41,6472.44 1553.31,6457.54 1553.31,6439.04ZM1547.71,6439.04C1547.71,6454.44 1535.31,6466.84 1519.91,6466.84C1504.51,6466.84 1492.11,6454.44 1492.11,6439.04C1492.11,6423.64 1504.51,6411.24 1519.91,6411.24C1535.31,6411.24 1547.71,6423.64 1547.71,6439.04ZM1540.01,6439.04C1540.01,6427.94 1531.01,6418.94 1519.91,6418.94C1508.81,6418.94 1499.81,6427.94 1499.81,6439.04C1499.81,6450.14 1508.81,6459.14 1519.91,6459.14C1531.01,6459.14 1540.01,6450.14 1540.01,6439.04ZM1534.61,6439.04C1534.61,6447.14 1528.01,6453.74 1519.91,6453.74C1511.81,6453.74 1505.21,6447.14 1505.21,6439.04C1505.21,6430.94 1511.81,6424.34 1519.91,6424.34C1528.01,6424.34 1534.61,6430.94 1534.61,6439.04Z" style="fill-rule:nonzero;"/>
        </g>
    </g>
</svg>
