<?xml version="1.0" encoding="UTF-8" standalone="no"?>
<!DOCTYPE svg PUBLIC "-//W3C//DTD SVG 1.1//EN" "http://www.w3.org/Graphics/SVG/1.1/DTD/svg11.dtd">
<svg width="100%" height="100%" viewBox="0 0 96 96" version="1.1" xmlns="http://www.w3.org/2000/svg" xmlns:xlink="http://www.w3.org/1999/xlink" xml:space="preserve" xmlns:serif="http://www.serif.com/" style="fill-rule:evenodd;clip-rule:evenodd;stroke-linejoin:round;stroke-miterlimit:2;">
    <g transform="matrix(1,0,0,1,-991.528,-665.55)">
        <g transform="matrix(2,0,0,2,-952.938,-710.212)">
            <path d="M1020.03,711.781C1020.03,698.581 1009.33,687.881 996.133,687.881C982.933,687.881 972.233,698.581 972.233,711.781C972.233,724.981 982.933,735.631 996.133,735.631C1009.33,735.631 1020.03,724.981 1020.03,711.781ZM1017.98,711.781C1017.98,723.831 1008.18,733.581 996.133,733.581C984.083,733.581 974.283,723.831 974.283,711.781C974.283,699.731 984.083,689.931 996.133,689.931C1008.18,689.931 1017.98,699.731 1017.98,711.781ZM990.733,710.181C993.783,709.281 996.083,706.831 996.083,703.481C996.083,699.681 993.483,697.431 989.633,697.431C986.633,697.431 984.333,698.731 982.433,700.931C982.283,701.181 982.133,701.381 982.133,701.731C982.133,702.531 982.783,703.381 983.183,703.381C983.533,703.381 983.833,702.931 983.933,702.781C985.733,700.531 987.533,699.481 989.683,699.481C992.383,699.481 993.983,701.081 993.983,703.731C993.983,707.631 989.083,709.531 986.033,709.781C985.783,709.831 985.633,710.081 985.633,710.381C985.633,710.981 986.133,711.931 986.733,711.931C986.833,711.931 986.883,711.881 986.933,711.881C987.333,711.781 988.133,711.631 988.833,711.581C989.133,711.531 989.383,711.531 989.633,711.531C992.783,711.531 995.033,713.781 995.033,717.031C995.033,720.631 993.183,724.131 988.533,724.131C985.933,724.131 984.433,722.781 982.933,720.681C982.783,720.531 982.733,720.431 982.583,720.431C982.033,720.431 981.583,721.481 981.583,722.281C981.583,722.631 981.583,722.881 981.783,723.031C983.683,725.131 985.783,726.231 988.533,726.231C994.683,726.231 997.183,721.981 997.183,716.981C997.183,712.781 994.333,710.181 991.133,710.181L990.733,710.181ZM1005.88,721.531C1005.88,722.381 1005.83,724.381 1005.83,725.031C1005.83,725.631 1006.78,726.081 1007.48,726.081C1007.78,726.081 1008.08,725.981 1008.08,725.681C1008.03,724.681 1007.98,722.381 1007.98,721.281L1007.98,701.531C1007.98,700.431 1008.18,699.731 1008.18,699.081C1008.18,698.381 1007.43,697.631 1006.88,697.631C1006.33,697.631 1005.58,698.781 1005.33,698.981C1004.23,699.931 1002.53,700.981 1000.78,701.731C1000.53,701.831 1000.43,701.981 1000.43,702.131C1000.43,702.581 1001.23,703.031 1001.83,703.031C1001.98,703.031 1002.08,703.031 1002.18,702.981C1003.43,702.581 1004.88,701.931 1005.88,701.231L1005.88,721.531Z" style="fill-rule:nonzero;"/>
        </g>
    </g>
</svg>
