<?xml version="1.0" encoding="UTF-8" standalone="no"?>
<!DOCTYPE svg PUBLIC "-//W3C//DTD SVG 1.1//EN" "http://www.w3.org/Graphics/SVG/1.1/DTD/svg11.dtd">
<svg width="100%" height="100%" viewBox="0 0 96 96" version="1.1" xmlns="http://www.w3.org/2000/svg" xmlns:xlink="http://www.w3.org/1999/xlink" xml:space="preserve" xmlns:serif="http://www.serif.com/" style="fill-rule:evenodd;clip-rule:evenodd;stroke-linejoin:round;stroke-miterlimit:2;">
    <g transform="matrix(1,0,0,1,-891.528,-1265.55)">
        <g transform="matrix(2,0,0,2,-952.938,-710.212)">
            <path d="M970.033,1011.78C970.033,998.581 959.333,987.881 946.133,987.881C932.933,987.881 922.233,998.581 922.233,1011.78C922.233,1024.98 932.933,1035.63 946.133,1035.63C959.333,1035.63 970.033,1024.98 970.033,1011.78ZM967.983,1011.78C967.983,1023.83 958.183,1033.58 946.133,1033.58C934.083,1033.58 924.283,1023.83 924.283,1011.78C924.283,999.731 934.083,989.931 946.133,989.931C958.183,989.931 967.983,999.731 967.983,1011.78ZM959.483,1019.23C960.483,1019.23 961.783,1019.33 962.283,1019.33C962.533,1019.33 962.633,1019.08 962.633,1018.78C962.633,1018.08 962.083,1016.98 961.533,1016.98C961.083,1016.98 960.083,1017.18 959.433,1017.23L958.833,1017.28L958.833,1009.08C958.833,1008.13 958.933,1006.18 958.933,1005.58C958.933,1004.88 957.933,1004.43 957.283,1004.43C956.933,1004.43 956.683,1004.58 956.683,1004.83C956.683,1005.73 956.733,1008.28 956.733,1009.08L956.733,1017.38L948.333,1017.58C950.883,1012.88 954.083,1006.48 956.083,1002.13C956.383,1001.48 956.933,1000.58 957.333,999.931C957.433,999.831 957.433,999.681 957.433,999.531C957.433,998.681 956.383,997.531 955.833,997.531C955.633,997.531 955.533,997.581 955.483,997.781C953.233,1003.88 948.383,1013.18 947.133,1015.48C946.833,1015.98 946.333,1016.58 945.933,1017.28C945.783,1017.53 945.733,1017.83 945.733,1018.03C945.733,1018.98 946.583,1019.88 947.283,1019.88C947.383,1019.88 947.433,1019.83 947.483,1019.83C948.033,1019.68 948.583,1019.58 948.833,1019.58L956.733,1019.33L956.733,1021.48C956.733,1022.08 956.683,1024.33 956.683,1024.98C956.683,1025.63 957.683,1026.08 958.383,1026.08C958.733,1026.08 958.983,1025.93 958.983,1025.68C958.983,1024.78 958.833,1023.18 958.833,1021.58L958.833,1019.23L959.483,1019.23ZM945.233,999.481C945.233,998.781 944.383,997.931 943.833,997.831L943.733,997.831C943.283,997.831 942.833,998.081 942.283,998.131L932.783,998.831L932.283,998.831C931.733,998.831 931.383,998.781 930.983,998.781C930.833,998.781 930.783,998.881 930.783,999.031C930.783,999.381 931.283,1001.03 932.533,1001.03C932.833,1001.03 933.183,1000.98 933.533,1000.93L942.683,1000.08C938.433,1010.53 935.633,1019.78 934.283,1024.23C934.233,1024.48 934.083,1024.83 934.083,1025.18C934.083,1025.48 934.233,1025.83 934.933,1025.93C935.133,1025.93 935.283,1025.98 935.433,1025.98C935.983,1025.98 936.333,1025.83 936.383,1025.38C937.883,1018.33 941.983,1007.33 944.383,1001.48C944.633,1000.98 945.183,1000.28 945.233,999.631L945.233,999.481Z" style="fill-rule:nonzero;"/>
        </g>
    </g>
</svg>
