<?xml version="1.0" encoding="UTF-8" standalone="no"?>
<!DOCTYPE svg PUBLIC "-//W3C//DTD SVG 1.1//EN" "http://www.w3.org/Graphics/SVG/1.1/DTD/svg11.dtd">
<svg width="100%" height="100%" viewBox="0 0 96 96" version="1.1" xmlns="http://www.w3.org/2000/svg" xmlns:xlink="http://www.w3.org/1999/xlink" xml:space="preserve" xmlns:serif="http://www.serif.com/" style="fill-rule:evenodd;clip-rule:evenodd;stroke-linejoin:round;stroke-miterlimit:2;">
    <g transform="matrix(1,0,0,1,-791.528,-815.55)">
        <g transform="matrix(2,0,0,2,-952.938,-710.212)">
            <path d="M920.033,786.781C920.033,773.581 909.333,762.881 896.133,762.881C882.933,762.881 872.233,773.581 872.233,786.781C872.233,799.981 882.933,810.631 896.133,810.631C909.333,810.631 920.033,799.981 920.033,786.781ZM917.983,786.781C917.983,798.831 908.183,808.581 896.133,808.581C884.083,808.581 874.283,798.831 874.283,786.781C874.283,774.731 884.083,764.931 896.133,764.931C908.183,764.931 917.983,774.731 917.983,786.781ZM900.883,774.831C900.883,774.531 900.433,774.531 900.383,774.531C899.383,774.531 897.283,780.831 897.283,787.231C897.283,795.331 899.533,801.231 904.133,801.231C908.983,801.231 911.333,794.331 911.333,786.181C911.333,778.231 909.083,772.381 904.933,772.381C903.283,772.381 901.933,773.331 900.883,774.831ZM892.283,794.231C893.233,794.231 894.483,794.331 894.933,794.331C895.183,794.331 895.283,794.081 895.283,793.781C895.283,793.081 894.783,791.981 894.233,791.981C893.833,791.981 892.833,792.181 892.283,792.231L891.683,792.281L891.683,784.081C891.683,783.131 891.783,781.181 891.783,780.581C891.783,779.881 890.833,779.431 890.233,779.431C889.883,779.431 889.633,779.581 889.633,779.831C889.633,780.731 889.733,783.281 889.733,784.081L889.733,792.381L881.733,792.581C884.133,787.881 887.183,781.481 889.083,777.131C889.383,776.481 889.883,775.581 890.233,774.931C890.333,774.831 890.333,774.681 890.333,774.531C890.333,773.681 889.383,772.531 888.833,772.531C888.683,772.531 888.533,772.581 888.483,772.781C887.183,776.731 883.233,785.331 880.633,790.481C880.333,790.981 879.883,791.581 879.483,792.281C879.333,792.531 879.283,792.831 879.283,793.031C879.283,793.981 880.083,794.881 880.733,794.881C880.833,794.881 880.883,794.831 880.933,794.831C881.433,794.681 881.983,794.581 882.233,794.581L889.733,794.331L889.733,796.481C889.733,797.081 889.633,799.331 889.633,799.981C889.633,800.631 890.583,801.081 891.283,801.081C891.583,801.081 891.833,800.931 891.833,800.681C891.833,799.781 891.683,798.181 891.683,796.581L891.683,794.231L892.283,794.231ZM903.983,799.131C900.433,799.131 899.233,793.631 899.233,787.181C899.233,778.631 902.383,774.381 904.783,774.381C908.183,774.381 909.433,780.431 909.433,785.881C909.433,792.631 907.883,799.131 903.983,799.131Z" style="fill-rule:nonzero;"/>
        </g>
    </g>
</svg>
