<?xml version="1.0" encoding="UTF-8" standalone="no"?>
<!DOCTYPE svg PUBLIC "-//W3C//DTD SVG 1.1//EN" "http://www.w3.org/Graphics/SVG/1.1/DTD/svg11.dtd">
<svg width="100%" height="100%" viewBox="0 0 96 96" version="1.1" xmlns="http://www.w3.org/2000/svg" xmlns:xlink="http://www.w3.org/1999/xlink" xml:space="preserve" xmlns:serif="http://www.serif.com/" style="fill-rule:evenodd;clip-rule:evenodd;stroke-linejoin:round;stroke-miterlimit:2;">
    <g transform="matrix(1,0,0,1,-91.5285,-665.55)">
        <g transform="matrix(2,0,0,2,-952.938,-710.212)">
            <path d="M570.033,711.781C570.033,698.581 559.333,687.881 546.133,687.881C532.933,687.881 522.233,698.581 522.233,711.781C522.233,724.981 532.933,735.631 546.133,735.631C559.333,735.631 570.033,724.981 570.033,711.781ZM567.983,711.781C567.983,723.831 558.183,733.581 546.133,733.581C534.083,733.581 524.283,723.831 524.283,711.781C524.283,699.731 534.083,689.931 546.133,689.931C558.183,689.931 567.983,699.731 567.983,711.781ZM531.033,725.731C532.833,725.281 535.433,725.231 536.633,725.231C537.283,725.231 541.433,725.231 544.383,725.531C544.683,725.531 544.833,725.331 544.833,725.031C544.833,724.331 544.283,723.231 543.683,723.231C543.233,723.231 542.033,723.281 541.433,723.281C539.933,723.281 538.783,723.231 536.983,723.231C535.583,723.231 533.533,723.331 532.183,723.481C533.483,720.831 535.633,716.881 538.833,713.731C542.183,710.431 544.533,707.631 544.533,703.981C544.533,700.181 542.033,697.431 538.083,697.431C534.383,697.431 531.883,699.431 530.433,702.331C530.283,702.531 530.233,702.781 530.233,703.031C530.233,703.231 530.783,704.631 531.533,704.631C531.933,704.631 532.183,704.231 532.383,703.681C533.183,701.331 535.133,699.481 537.983,699.481C540.733,699.481 542.283,701.531 542.283,703.981C542.283,706.581 540.433,709.031 537.483,712.081C534.433,715.181 531.933,719.431 530.533,722.281L529.783,723.431C529.683,723.581 529.633,723.781 529.633,724.031C529.633,724.831 530.233,725.731 530.883,725.731L531.033,725.731ZM548.483,725.731C550.033,725.331 552.283,725.231 554.083,725.231C554.733,725.231 558.883,725.231 561.833,725.531C562.133,725.531 562.283,725.331 562.283,725.031C562.283,724.331 561.733,723.231 561.133,723.231C560.683,723.231 559.483,723.281 558.883,723.281C557.383,723.281 556.233,723.231 554.433,723.231C553.033,723.231 551.033,723.331 549.683,723.481C550.933,720.831 553.083,716.881 556.283,713.731C559.633,710.431 561.983,707.631 561.983,703.981C561.983,700.181 559.483,697.431 555.533,697.431C551.833,697.431 549.333,699.431 547.883,702.331C547.733,702.531 547.683,702.781 547.683,703.031C547.683,703.231 548.233,704.631 548.983,704.631C549.383,704.631 549.683,704.231 549.833,703.681C550.633,701.331 552.583,699.481 555.433,699.481C558.183,699.481 559.783,701.531 559.783,703.981C559.783,706.581 557.883,709.031 554.933,712.081C551.883,715.181 549.383,719.431 547.983,722.281L547.233,723.431C547.133,723.581 547.083,723.781 547.083,724.031C547.083,724.831 547.683,725.731 548.333,725.731L548.483,725.731Z" style="fill-rule:nonzero;"/>
        </g>
    </g>
</svg>
