<?xml version="1.0" encoding="UTF-8" standalone="no"?>
<!DOCTYPE svg PUBLIC "-//W3C//DTD SVG 1.1//EN" "http://www.w3.org/Graphics/SVG/1.1/DTD/svg11.dtd">
<svg width="100%" height="100%" viewBox="0 0 96 96" version="1.1" xmlns="http://www.w3.org/2000/svg" xmlns:xlink="http://www.w3.org/1999/xlink" xml:space="preserve" xmlns:serif="http://www.serif.com/" style="fill-rule:evenodd;clip-rule:evenodd;stroke-linejoin:round;stroke-miterlimit:2;">
    <g transform="matrix(1,0,0,1,-91.5285,-815.55)">
        <g transform="matrix(2,0,0,2,-952.938,-710.212)">
            <path d="M570.033,786.781C570.033,773.581 559.333,762.881 546.133,762.881C532.933,762.881 522.233,773.581 522.233,786.781C522.233,799.981 532.933,810.631 546.133,810.631C559.333,810.631 570.033,799.981 570.033,786.781ZM567.983,786.781C567.983,798.831 558.183,808.581 546.133,808.581C534.083,808.581 524.283,798.831 524.283,786.781C524.283,774.731 534.083,764.931 546.133,764.931C558.183,764.931 567.983,774.731 567.983,786.781ZM555.283,785.181C558.183,784.281 560.333,781.831 560.333,778.481C560.333,774.681 557.933,772.431 554.283,772.431C551.433,772.431 549.183,773.731 547.433,775.931C547.283,776.181 547.133,776.381 547.133,776.731C547.133,777.131 547.283,777.581 547.683,778.131C547.883,778.331 547.983,778.381 548.133,778.381C548.483,778.381 548.733,777.931 548.883,777.781C550.533,775.531 552.233,774.481 554.333,774.481C556.883,774.481 558.383,776.081 558.383,778.731C558.383,782.281 554.133,784.531 550.833,784.781C550.583,784.831 550.433,785.081 550.433,785.381C550.433,785.981 550.933,786.931 551.483,786.931C551.583,786.931 551.633,786.881 551.733,786.881C552.083,786.781 552.833,786.631 553.483,786.581C553.783,786.531 554.033,786.531 554.283,786.531C557.233,786.531 559.383,788.781 559.383,792.031C559.383,795.631 557.583,799.131 553.033,799.131C550.683,799.131 549.183,797.781 547.783,795.681C547.633,795.531 547.583,795.431 547.433,795.431C546.933,795.431 546.483,796.481 546.483,797.281C546.483,797.631 546.533,797.881 546.683,798.031C548.483,800.131 550.483,801.231 553.033,801.231C558.983,801.231 561.383,796.981 561.383,791.981C561.383,787.781 558.733,785.181 555.683,785.181L555.283,785.181ZM538.683,785.181C541.583,784.281 543.733,781.831 543.733,778.481C543.733,774.681 541.333,772.431 537.683,772.431C534.833,772.431 532.583,773.731 530.833,775.931C530.683,776.181 530.533,776.381 530.533,776.731C530.533,777.131 530.683,777.581 531.083,778.131C531.283,778.331 531.383,778.381 531.533,778.381C531.883,778.381 532.133,777.931 532.283,777.781C533.933,775.531 535.633,774.481 537.733,774.481C540.283,774.481 541.783,776.081 541.783,778.731C541.783,782.281 537.533,784.531 534.233,784.781C533.983,784.831 533.833,785.081 533.833,785.381C533.833,785.981 534.333,786.931 534.883,786.931C534.983,786.931 535.033,786.881 535.133,786.881C535.483,786.781 536.233,786.631 536.883,786.581C537.183,786.531 537.433,786.531 537.683,786.531C540.633,786.531 542.783,788.781 542.783,792.031C542.783,795.631 540.983,799.131 536.433,799.131C534.083,799.131 532.583,797.781 531.183,795.681C531.033,795.531 530.983,795.431 530.833,795.431C530.333,795.431 529.883,796.481 529.883,797.281C529.883,797.631 529.933,797.881 530.083,798.031C531.883,800.131 533.883,801.231 536.433,801.231C542.383,801.231 544.783,796.981 544.783,791.981C544.783,787.781 542.133,785.181 539.083,785.181L538.683,785.181Z" style="fill-rule:nonzero;"/>
        </g>
    </g>
</svg>
