<?xml version="1.0" encoding="UTF-8" standalone="no"?>
<!DOCTYPE svg PUBLIC "-//W3C//DTD SVG 1.1//EN" "http://www.w3.org/Graphics/SVG/1.1/DTD/svg11.dtd">
<svg width="100%" height="100%" viewBox="0 0 96 96" version="1.1" xmlns="http://www.w3.org/2000/svg" xmlns:xlink="http://www.w3.org/1999/xlink" xml:space="preserve" xmlns:serif="http://www.serif.com/" style="fill-rule:evenodd;clip-rule:evenodd;stroke-linejoin:round;stroke-miterlimit:2;">
    <g transform="matrix(1,0,0,1,-691.528,-515.55)">
        <g transform="matrix(2,0,0,2,-952.938,-710.212)">
            <path d="M870.033,636.781C870.033,623.581 859.333,612.881 846.133,612.881C832.933,612.881 822.233,623.581 822.233,636.781C822.233,649.981 832.933,660.631 846.133,660.631C859.333,660.631 870.033,649.981 870.033,636.781ZM867.983,636.781C867.983,648.831 858.183,658.581 846.133,658.581C834.083,658.581 824.283,648.831 824.283,636.781C824.283,624.731 834.083,614.931 846.133,614.931C858.183,614.931 867.983,624.731 867.983,636.781ZM852.533,634.681C856.383,631.831 859.283,628.531 859.283,627.581C859.283,627.131 858.983,626.831 858.633,626.831C858.383,626.831 858.133,626.931 857.783,627.281L857.633,627.481C857.783,627.231 857.833,626.931 857.833,626.731C857.833,626.581 857.783,626.431 857.783,626.331C856.383,624.231 854.333,622.481 851.383,622.481C846.833,622.481 844.383,625.581 844.383,629.031C844.383,631.631 845.483,633.281 848.733,635.081C845.433,637.531 843.233,640.231 843.233,643.781C843.233,647.981 845.933,651.231 850.783,651.231C856.133,651.231 859.433,648.081 859.433,643.231C859.433,639.431 857.233,636.931 852.983,634.881L852.533,634.681ZM851.583,636.431C855.783,638.481 857.383,640.531 857.383,643.431C857.383,646.831 854.633,649.131 850.783,649.131C846.933,649.131 845.283,646.381 845.283,643.681C845.283,640.831 847.433,638.531 850.683,636.031C850.883,636.131 851.283,636.331 851.583,636.431ZM834.783,646.531C834.783,647.381 834.683,649.381 834.683,650.031C834.683,650.631 835.633,651.081 836.333,651.081C836.683,651.081 836.933,650.981 836.933,650.681C836.883,649.681 836.833,647.381 836.833,646.281L836.833,626.531C836.833,625.431 837.083,624.731 837.083,624.081C837.083,623.381 836.283,622.631 835.733,622.631C835.183,622.631 834.483,623.781 834.183,623.981C833.083,624.931 831.383,625.981 829.633,626.731C829.383,626.831 829.283,626.981 829.283,627.131C829.283,627.581 830.083,628.031 830.683,628.031C830.833,628.031 830.933,628.031 831.033,627.981C832.283,627.581 833.733,626.931 834.783,626.231L834.783,646.531ZM850.633,633.681C847.533,632.181 846.483,631.081 846.483,629.031C846.483,626.731 848.033,624.481 851.433,624.481C853.633,624.481 854.983,625.731 856.033,627.631C856.233,628.031 856.483,628.181 856.683,628.181C856.783,628.181 856.933,628.181 856.983,628.131C855.233,630.081 853.033,632.031 850.633,633.681Z" style="fill-rule:nonzero;"/>
        </g>
    </g>
</svg>
