<?xml version="1.0" encoding="UTF-8" standalone="no"?>
<!DOCTYPE svg PUBLIC "-//W3C//DTD SVG 1.1//EN" "http://www.w3.org/Graphics/SVG/1.1/DTD/svg11.dtd">
<svg width="100%" height="100%" viewBox="0 0 96 96" version="1.1" xmlns="http://www.w3.org/2000/svg" xmlns:xlink="http://www.w3.org/1999/xlink" xml:space="preserve" xmlns:serif="http://www.serif.com/" style="fill-rule:evenodd;clip-rule:evenodd;stroke-linejoin:round;stroke-miterlimit:2;">
    <g transform="matrix(1,0,0,1,-291.528,-665.55)">
        <g transform="matrix(2,0,0,2,-952.938,-710.212)">
            <path d="M670.033,711.781C670.033,698.581 659.333,687.881 646.133,687.881C632.933,687.881 622.233,698.581 622.233,711.781C622.233,724.981 632.933,735.631 646.133,735.631C659.333,735.631 670.033,724.981 670.033,711.781ZM667.983,711.781C667.983,723.831 658.183,733.581 646.133,733.581C634.083,733.581 624.283,723.831 624.283,711.781C624.283,699.731 634.083,689.931 646.133,689.931C658.183,689.931 667.983,699.731 667.983,711.781ZM631.833,725.731C632.683,725.531 634.383,725.231 637.383,725.231C637.883,725.231 642.333,725.231 645.183,725.531C645.483,725.531 645.633,725.231 645.633,724.881C645.633,724.181 645.233,723.231 644.683,723.231C644.233,723.231 642.783,723.281 642.183,723.281C640.683,723.281 639.533,723.231 637.783,723.231C636.383,723.231 634.333,723.331 632.983,723.481C634.233,720.831 636.433,716.881 639.583,713.731C642.933,710.431 645.333,707.631 645.333,703.981C645.333,700.181 642.783,697.431 638.833,697.431C635.183,697.431 632.633,699.431 631.233,702.331C631.083,702.531 631.033,702.781 631.033,703.031C631.033,703.431 631.233,703.881 631.833,704.381C631.983,704.581 632.133,704.631 632.333,704.631C632.683,704.631 632.983,704.231 633.183,703.681C633.983,701.331 635.933,699.481 638.733,699.481C641.483,699.481 643.083,701.531 643.083,703.981C643.083,706.581 641.233,709.031 638.233,712.081C635.233,715.181 632.683,719.431 631.283,722.281C631.133,722.681 630.883,722.981 630.533,723.431C630.433,723.581 630.433,723.781 630.433,724.031C630.433,724.831 631.033,725.731 631.683,725.731L631.833,725.731ZM660.283,719.181C661.283,719.181 662.633,719.281 663.033,719.281C663.283,719.281 663.383,719.081 663.383,718.731C663.383,718.031 662.833,716.981 662.283,716.981C661.833,716.981 660.383,717.181 659.733,717.231L658.933,717.281L658.933,709.081C658.933,708.081 658.983,706.181 658.983,705.581C658.983,704.881 658.033,704.431 657.383,704.431C657.033,704.431 656.733,704.581 656.733,704.831C656.733,705.731 656.833,708.281 656.833,709.081L656.833,717.381L648.633,717.581C651.183,713.031 654.483,706.431 656.533,702.131C656.883,701.381 657.233,700.781 657.783,699.931C657.833,699.831 657.833,699.681 657.833,699.531C657.833,698.681 656.833,697.531 656.283,697.531C656.083,697.531 655.983,697.581 655.933,697.781C655.283,699.931 650.633,709.631 647.483,715.431C647.183,715.981 646.683,716.581 646.283,717.281C646.083,717.531 646.033,717.831 646.033,718.031C646.033,718.981 646.883,719.881 647.583,719.881C647.683,719.881 647.733,719.831 647.833,719.831C648.333,719.681 648.883,719.581 649.133,719.581L656.833,719.331L656.833,721.481C656.833,722.081 656.733,724.331 656.733,724.981C656.733,725.631 657.783,726.081 658.483,726.081C658.833,726.081 659.083,725.931 659.083,725.681C659.083,724.781 658.933,723.181 658.933,721.581L658.933,719.231L659.783,719.181L660.283,719.181Z" style="fill-rule:nonzero;"/>
        </g>
    </g>
</svg>
