<?xml version="1.0" encoding="UTF-8" standalone="no"?>
<!DOCTYPE svg PUBLIC "-//W3C//DTD SVG 1.1//EN" "http://www.w3.org/Graphics/SVG/1.1/DTD/svg11.dtd">
<svg width="100%" height="100%" viewBox="0 0 96 96" version="1.1" xmlns="http://www.w3.org/2000/svg" xmlns:xlink="http://www.w3.org/1999/xlink" xml:space="preserve" xmlns:serif="http://www.serif.com/" style="fill-rule:evenodd;clip-rule:evenodd;stroke-linejoin:round;stroke-miterlimit:2;">
    <g transform="matrix(1,0,0,1,-91.5285,-1565.55)">
        <g transform="matrix(2,0,0,2,-952.938,-710.212)">
            <path d="M570.033,1161.78C570.033,1148.58 559.333,1137.88 546.133,1137.88C532.933,1137.88 522.233,1148.58 522.233,1161.78C522.233,1174.98 532.933,1185.63 546.133,1185.63C559.333,1185.63 570.033,1174.98 570.033,1161.78ZM567.983,1161.78C567.983,1173.83 558.183,1183.58 546.133,1183.58C534.083,1183.58 524.283,1173.83 524.283,1161.78C524.283,1149.73 534.083,1139.93 546.133,1139.93C558.183,1139.93 567.983,1149.73 567.983,1161.78ZM556.233,1159.68C558.483,1157.88 560.483,1155.73 562.083,1153.48C562.283,1153.13 562.383,1152.83 562.383,1152.58C562.383,1152.13 562.133,1151.83 561.833,1151.83C561.583,1151.83 561.283,1151.93 561.033,1152.28L560.833,1152.48C560.983,1152.23 561.033,1151.93 561.033,1151.73C561.033,1151.58 561.033,1151.43 560.983,1151.33C559.683,1149.23 557.783,1147.48 555.133,1147.48C551.033,1147.48 548.633,1150.58 548.633,1154.03C548.633,1156.63 549.533,1158.28 552.633,1160.08C549.483,1162.53 547.583,1165.23 547.583,1168.78C547.583,1172.98 550.183,1176.23 554.583,1176.23C559.383,1176.23 562.583,1173.08 562.583,1168.23C562.583,1164.43 560.683,1161.93 556.633,1159.88L556.233,1159.68ZM539.183,1159.68C542.833,1156.78 545.333,1153.33 545.333,1152.58C545.333,1152.13 545.083,1151.83 544.733,1151.83C544.483,1151.83 544.233,1151.93 543.983,1152.28L543.783,1152.48C543.933,1152.23 543.983,1151.93 543.983,1151.73C543.983,1151.58 543.983,1151.43 543.933,1151.33C542.633,1149.23 540.733,1147.48 538.083,1147.48C533.983,1147.48 531.583,1150.58 531.583,1154.03C531.583,1156.63 532.483,1158.28 535.583,1160.08C532.433,1162.53 530.533,1165.23 530.533,1168.78C530.533,1172.98 533.133,1176.23 537.483,1176.23C542.333,1176.23 545.533,1173.08 545.533,1168.23C545.533,1164.43 543.633,1161.93 539.583,1159.88L539.183,1159.68ZM538.283,1161.43C542.283,1163.48 543.533,1165.53 543.533,1168.43C543.533,1171.83 540.983,1174.13 537.483,1174.13C534.033,1174.13 532.533,1171.38 532.533,1168.68C532.533,1165.83 534.333,1163.53 537.433,1161.03C537.633,1161.13 537.983,1161.33 538.283,1161.43ZM555.333,1161.43C559.333,1163.48 560.583,1165.53 560.583,1168.43C560.583,1171.83 558.033,1174.13 554.583,1174.13C551.083,1174.13 549.583,1171.38 549.583,1168.68C549.583,1165.83 551.383,1163.53 554.483,1161.03L555.333,1161.43ZM554.433,1158.68C551.483,1157.18 550.633,1156.08 550.633,1154.03C550.633,1151.73 552.133,1149.48 555.183,1149.48C557.183,1149.48 558.333,1150.73 559.333,1152.63C559.533,1153.03 559.733,1153.18 559.983,1153.18C560.033,1153.18 560.183,1153.18 560.233,1153.13C558.583,1155.08 556.683,1157.03 554.433,1158.68ZM537.383,1158.68C534.433,1157.18 533.583,1156.08 533.583,1154.03C533.583,1151.73 535.083,1149.48 538.133,1149.48C540.083,1149.48 541.283,1150.73 542.283,1152.63C542.483,1153.03 542.683,1153.18 542.933,1153.18C542.983,1153.18 543.133,1153.18 543.183,1153.13C541.533,1155.08 539.633,1157.03 537.383,1158.68Z" style="fill-rule:nonzero;"/>
        </g>
    </g>
</svg>
