<?xml version="1.0" encoding="UTF-8" standalone="no"?>
<!DOCTYPE svg PUBLIC "-//W3C//DTD SVG 1.1//EN" "http://www.w3.org/Graphics/SVG/1.1/DTD/svg11.dtd">
<svg width="100%" height="100%" viewBox="0 0 96 96" version="1.1" xmlns="http://www.w3.org/2000/svg" xmlns:xlink="http://www.w3.org/1999/xlink" xml:space="preserve" xmlns:serif="http://www.serif.com/" style="fill-rule:evenodd;clip-rule:evenodd;stroke-linejoin:round;stroke-miterlimit:2;">
    <g transform="matrix(1,0,0,1,-391.528,-1265.55)">
        <g transform="matrix(2,0,0,2,-952.938,-710.212)">
            <path d="M720.033,1011.78C720.033,998.581 709.333,987.881 696.133,987.881C682.933,987.881 672.233,998.581 672.233,1011.78C672.233,1024.98 682.933,1035.63 696.133,1035.63C709.333,1035.63 720.033,1024.98 720.033,1011.78ZM717.983,1011.78C717.983,1023.83 708.183,1033.58 696.133,1033.58C684.083,1033.58 674.283,1023.83 674.283,1011.78C674.283,999.731 684.083,989.931 696.133,989.931C708.183,989.931 717.983,999.731 717.983,1011.78ZM686.883,998.681C685.533,1001.03 684.083,1003.98 682.483,1007.53C680.883,1011.18 680.083,1014.53 680.083,1017.88C680.083,1022.48 683.283,1026.23 687.633,1026.23C692.283,1026.23 695.133,1022.13 695.133,1016.78C695.133,1011.98 692.333,1008.43 688.183,1008.43C685.883,1008.43 684.033,1009.63 682.833,1011.53C685.133,1006.13 686.283,1003.33 689.383,999.081C689.533,998.881 689.733,998.531 689.733,998.281C689.733,997.381 688.333,997.381 688.283,997.381C687.933,997.381 687.583,997.531 687.383,997.881C687.283,998.081 686.983,998.581 686.883,998.681ZM706.533,1026.03C707.333,1025.98 707.883,1025.73 707.883,1025.23C708.233,1021.18 710.283,1008.38 711.683,1001.48C711.733,1001.23 711.983,1000.58 712.083,1000.03L712.083,999.881C712.083,999.281 711.433,998.531 710.683,998.531C709.933,998.531 710.133,999.781 709.883,1000.83C709.433,999.731 707.833,997.431 704.533,997.431C699.833,997.431 696.233,1002.73 696.233,1008.08C696.233,1012.58 698.433,1015.18 701.633,1015.18C704.083,1015.18 706.683,1013.33 708.133,1010.58C707.533,1014.58 706.583,1020.13 705.833,1024.43C705.783,1024.78 705.683,1025.13 705.683,1025.38C705.683,1025.78 705.833,1026.03 706.433,1026.03L706.533,1026.03ZM687.633,1024.23C684.333,1024.23 682.033,1021.43 682.033,1017.83C682.033,1013.88 684.433,1010.48 688.183,1010.48C691.283,1010.48 693.133,1013.48 693.133,1016.88C693.133,1021.18 690.783,1024.23 687.633,1024.23ZM709.183,1004.53C707.533,1010.38 704.483,1013.03 701.583,1013.03C699.333,1013.03 697.783,1011.28 697.783,1007.93C697.783,1004.28 700.583,999.481 704.683,999.481C707.083,999.481 708.133,1001.38 708.583,1002.48C708.733,1002.83 708.883,1002.98 709.083,1002.98C709.233,1002.98 709.433,1002.83 709.583,1002.63L709.183,1004.53Z" style="fill-rule:nonzero;"/>
        </g>
    </g>
</svg>
