<?xml version="1.0" encoding="UTF-8" standalone="no"?>
<!DOCTYPE svg PUBLIC "-//W3C//DTD SVG 1.1//EN" "http://www.w3.org/Graphics/SVG/1.1/DTD/svg11.dtd">
<svg width="100%" height="100%" viewBox="0 0 96 96" version="1.1" xmlns="http://www.w3.org/2000/svg" xmlns:xlink="http://www.w3.org/1999/xlink" xml:space="preserve" xmlns:serif="http://www.serif.com/" style="fill-rule:evenodd;clip-rule:evenodd;stroke-linejoin:round;stroke-miterlimit:2;">
    <g transform="matrix(1,0,0,1,-991.528,-1565.55)">
        <g transform="matrix(2,0,0,2,-952.938,-710.212)">
            <path d="M1020.03,1161.78C1020.03,1148.58 1009.33,1137.88 996.133,1137.88C982.933,1137.88 972.233,1148.58 972.233,1161.78C972.233,1174.98 982.933,1185.63 996.133,1185.63C1009.33,1185.63 1020.03,1174.98 1020.03,1161.78ZM1017.98,1161.78C1017.98,1173.83 1008.18,1183.58 996.133,1183.58C984.083,1183.58 974.283,1173.83 974.283,1161.78C974.283,1149.73 984.083,1139.93 996.133,1139.93C1008.18,1139.93 1017.98,1149.73 1017.98,1161.78ZM990.083,1176.03C990.983,1175.98 991.483,1175.73 991.533,1175.18C991.833,1172.03 993.583,1160.58 995.483,1151.48C995.533,1151.23 995.833,1150.58 995.933,1150.03L995.933,1149.88C995.933,1149.28 995.233,1148.53 994.433,1148.53C993.683,1148.53 993.883,1149.78 993.583,1150.83C993.133,1149.73 991.433,1147.43 987.983,1147.43C983.033,1147.43 979.283,1152.73 979.283,1158.08C979.283,1162.58 981.583,1165.18 984.933,1165.18C987.533,1165.18 990.233,1163.33 991.783,1160.53L989.383,1174.43C989.333,1174.78 989.183,1175.13 989.183,1175.38C989.183,1175.78 989.383,1176.03 989.983,1176.03L990.083,1176.03ZM993.283,1152.63C992.333,1158.48 988.983,1162.98 984.883,1162.98C982.533,1162.98 981.333,1161.28 981.333,1157.93C981.333,1154.28 983.833,1149.48 988.133,1149.48C990.683,1149.48 991.783,1151.38 992.233,1152.48C992.383,1152.83 992.533,1152.98 992.783,1152.98C992.933,1152.98 993.133,1152.83 993.283,1152.63ZM1013.23,1149.48C1013.23,1148.78 1012.28,1147.93 1011.73,1147.83L1011.63,1147.83C1011.18,1147.83 1010.68,1148.08 1010.13,1148.13L1000.08,1148.83L999.583,1148.83C998.983,1148.83 998.633,1148.78 998.183,1148.78C998.033,1148.78 997.983,1148.88 997.983,1149.03C997.983,1149.43 998.583,1151.03 999.833,1151.03C1000.13,1151.03 1000.53,1150.98 1000.88,1150.93L1010.53,1150.08C1007.23,1157.88 1003.13,1169.53 1001.68,1174.23C1001.63,1174.48 1001.43,1174.83 1001.43,1175.18C1001.43,1175.48 1001.63,1175.83 1002.38,1175.93C1002.58,1175.93 1002.73,1175.98 1002.88,1175.98C1003.48,1175.98 1003.83,1175.83 1003.93,1175.38C1004.58,1171.73 1008.48,1160.28 1012.33,1151.48C1012.58,1150.98 1013.13,1150.28 1013.23,1149.63L1013.23,1149.48Z" style="fill-rule:nonzero;"/>
        </g>
    </g>
</svg>
