<?xml version="1.0" encoding="UTF-8" standalone="no"?>
<!DOCTYPE svg PUBLIC "-//W3C//DTD SVG 1.1//EN" "http://www.w3.org/Graphics/SVG/1.1/DTD/svg11.dtd">
<svg width="100%" height="100%" viewBox="0 0 96 96" version="1.1" xmlns="http://www.w3.org/2000/svg" xmlns:xlink="http://www.w3.org/1999/xlink" xml:space="preserve" xmlns:serif="http://www.serif.com/" style="fill-rule:evenodd;clip-rule:evenodd;stroke-linejoin:round;stroke-miterlimit:2;">
    <g transform="matrix(1,0,0,1,-991.528,-965.55)">
        <g transform="matrix(2,0,0,2,-952.938,-710.212)">
            <path d="M1020.03,861.781C1020.03,848.581 1009.33,837.881 996.133,837.881C982.933,837.881 972.233,848.581 972.233,861.781C972.233,874.981 982.933,885.631 996.133,885.631C1009.33,885.631 1020.03,874.981 1020.03,861.781ZM1017.98,861.781C1017.98,873.831 1008.18,883.581 996.133,883.581C984.083,883.581 974.283,873.831 974.283,861.781C974.283,849.731 984.083,839.931 996.133,839.931C1008.18,839.931 1017.98,849.731 1017.98,861.781ZM981.333,861.331C981.283,861.481 981.283,861.631 981.283,861.781C981.283,862.781 982.133,863.481 982.683,863.481C982.783,863.481 982.883,863.481 982.933,863.381C983.283,863.031 983.733,862.581 983.883,862.381C984.983,861.081 986.483,860.231 988.233,860.231C991.283,860.231 993.283,862.681 993.283,866.731C993.283,870.531 991.483,874.081 987.083,874.081C984.533,874.081 982.933,872.231 981.733,870.131C981.683,869.931 981.533,869.831 981.383,869.831C980.933,869.831 980.383,870.881 980.383,871.781C980.383,873.131 983.633,876.231 987.083,876.231C992.883,876.231 995.233,871.731 995.233,866.681C995.233,861.281 992.183,858.181 988.583,858.181C986.333,858.181 984.783,858.981 983.383,860.381L984.233,850.781L990.933,850.281C991.883,850.181 992.883,850.131 993.533,850.131C993.783,850.131 993.883,849.881 993.883,849.581C993.883,848.931 993.383,847.931 992.933,847.931L992.833,847.931C992.283,848.081 991.283,848.131 990.683,848.181L984.283,848.581C983.833,848.381 983.333,848.181 982.983,848.181C982.683,848.181 982.533,848.281 982.533,848.581C982.533,849.081 982.483,849.781 982.433,850.331L981.633,859.981L981.333,861.331ZM1005.48,860.181C1008.38,859.281 1010.58,856.831 1010.58,853.481C1010.58,849.681 1008.13,847.431 1004.48,847.431C1000.58,847.431 997.383,850.581 997.383,851.731C997.383,851.781 997.633,853.381 998.383,853.381C998.733,853.381 998.983,852.931 999.083,852.781C1000.78,850.531 1002.48,849.481 1004.53,849.481C1007.08,849.481 1008.58,851.081 1008.58,853.731C1008.58,857.281 1004.33,859.531 1001.03,859.781C1000.78,859.831 1000.68,860.081 1000.68,860.381C1000.68,860.981 1001.13,861.931 1001.73,861.931C1001.83,861.931 1001.83,861.881 1001.93,861.881C1002.68,861.681 1003.43,861.531 1004.48,861.531C1007.48,861.531 1009.58,863.781 1009.58,867.031C1009.58,870.631 1007.78,874.131 1003.23,874.131C1000.88,874.131 999.433,872.781 997.983,870.681C997.883,870.531 997.783,870.431 997.683,870.431C997.183,870.431 996.683,871.481 996.683,872.281C996.683,872.631 996.733,872.881 996.933,873.031C998.733,875.131 1000.73,876.231 1003.23,876.231C1009.18,876.231 1011.63,871.981 1011.63,866.981C1011.63,862.781 1008.93,860.181 1005.93,860.181L1005.48,860.181Z" style="fill-rule:nonzero;"/>
        </g>
    </g>
</svg>
