<?xml version="1.0" encoding="UTF-8" standalone="no"?>
<!DOCTYPE svg PUBLIC "-//W3C//DTD SVG 1.1//EN" "http://www.w3.org/Graphics/SVG/1.1/DTD/svg11.dtd">
<svg width="100%" height="100%" viewBox="0 0 96 96" version="1.1" xmlns="http://www.w3.org/2000/svg" xmlns:xlink="http://www.w3.org/1999/xlink" xml:space="preserve" xmlns:serif="http://www.serif.com/" style="fill-rule:evenodd;clip-rule:evenodd;stroke-linejoin:round;stroke-miterlimit:2;">
    <g transform="matrix(1,0,0,1,-509.628,-2423.28)">
        <g transform="matrix(1,0,0,1,-110.019,-3591.86)">
            <path d="M715.248,6062.94C715.248,6036.55 693.848,6015.15 667.448,6015.15C641.048,6015.15 619.648,6036.55 619.648,6062.94C619.648,6089.35 641.048,6110.65 667.448,6110.65C693.848,6110.65 715.248,6089.35 715.248,6062.94ZM711.148,6062.94C711.148,6087.05 691.548,6106.55 667.448,6106.55C643.348,6106.55 623.748,6087.05 623.748,6062.94C623.748,6038.85 643.348,6019.24 667.448,6019.24C691.548,6019.24 711.148,6038.85 711.148,6062.94ZM655.648,6066.05C664.948,6066.05 672.448,6064.85 677.448,6063.35C684.248,6061.24 685.548,6059.15 685.548,6054.24C685.548,6048.24 681.948,6042.05 671.648,6042.05C660.548,6042.05 651.948,6053.55 650.548,6061.65C650.548,6061.65 649.748,6061.74 649.648,6061.74C648.548,6061.74 648.148,6062.15 648.148,6062.74C648.148,6063.55 648.948,6064.55 649.948,6065.24L649.948,6066.44C649.948,6077.65 656.548,6084.44 665.248,6084.44C672.948,6084.44 680.448,6081.35 685.148,6074.15C685.548,6073.44 685.748,6072.85 685.748,6072.35C685.748,6071.85 685.448,6071.44 685.048,6071.44C684.548,6071.44 683.948,6071.85 683.248,6072.55C678.648,6077.55 672.548,6080.24 665.248,6080.24C659.448,6080.24 654.548,6075.55 654.548,6066.35L654.548,6066.05L655.648,6066.05ZM655.148,6061.85C656.348,6055.74 663.048,6046.05 671.548,6046.05C677.448,6046.05 680.948,6049.15 680.948,6054.15C680.948,6057.24 680.548,6058.24 675.348,6059.65C671.548,6060.74 665.648,6061.85 657.248,6061.85L655.148,6061.85Z" style="fill-rule:nonzero;"/>
        </g>
    </g>
</svg>
