<?xml version="1.0" encoding="UTF-8" standalone="no"?>
<!DOCTYPE svg PUBLIC "-//W3C//DTD SVG 1.1//EN" "http://www.w3.org/Graphics/SVG/1.1/DTD/svg11.dtd">
<svg width="100%" height="100%" viewBox="0 0 96 96" version="1.1" xmlns="http://www.w3.org/2000/svg" xmlns:xlink="http://www.w3.org/1999/xlink" xml:space="preserve" xmlns:serif="http://www.serif.com/" style="fill-rule:evenodd;clip-rule:evenodd;stroke-linejoin:round;stroke-miterlimit:2;">
    <g transform="matrix(1,0,0,1,-191.528,-1565.55)">
        <g transform="matrix(2,0,0,2,-952.938,-710.212)">
            <path d="M620.033,1161.78C620.033,1148.58 609.333,1137.88 596.133,1137.88C582.933,1137.88 572.233,1148.58 572.233,1161.78C572.233,1174.98 582.933,1185.63 596.133,1185.63C609.333,1185.63 620.033,1174.98 620.033,1161.78ZM617.983,1161.78C617.983,1173.83 608.183,1183.58 596.133,1183.58C584.083,1183.58 574.283,1173.83 574.283,1161.78C574.283,1149.73 584.083,1139.93 596.133,1139.93C608.183,1139.93 617.983,1149.73 617.983,1161.78ZM588.933,1159.68C592.433,1156.93 595.133,1153.33 595.133,1152.58C595.133,1152.13 594.883,1151.83 594.533,1151.83C594.283,1151.83 594.033,1151.93 593.733,1152.28L593.583,1152.48C593.683,1152.23 593.783,1151.93 593.783,1151.73C593.783,1151.58 593.733,1151.43 593.683,1151.33C592.383,1149.23 590.483,1147.48 587.883,1147.48C583.783,1147.48 581.383,1150.58 581.383,1154.03C581.383,1156.63 582.233,1158.28 585.333,1160.08C582.233,1162.53 580.333,1165.23 580.333,1168.78C580.333,1172.98 582.933,1176.23 587.283,1176.23C592.083,1176.23 595.283,1173.08 595.283,1168.23C595.283,1164.43 593.383,1161.93 589.383,1159.88L588.933,1159.68ZM607.033,1176.03C607.833,1175.98 608.383,1175.73 608.383,1175.23C608.733,1171.18 610.783,1158.38 612.183,1151.48C612.233,1151.23 612.483,1150.58 612.583,1150.03L612.583,1149.88C612.583,1149.28 611.933,1148.53 611.183,1148.53C610.433,1148.53 610.633,1149.78 610.383,1150.83C609.933,1149.73 608.333,1147.43 604.983,1147.43C600.333,1147.43 596.733,1152.73 596.733,1158.08C596.733,1162.58 598.933,1165.18 602.133,1165.18C604.583,1165.18 607.183,1163.33 608.633,1160.58C608.033,1164.58 607.083,1170.13 606.333,1174.43C606.283,1174.78 606.183,1175.13 606.183,1175.38C606.183,1175.78 606.333,1176.03 606.933,1176.03L607.033,1176.03ZM610.083,1152.63C609.383,1155.73 609.233,1156.33 608.733,1157.33C606.983,1160.78 605.083,1163.03 602.083,1163.03C599.833,1163.03 598.733,1161.28 598.733,1157.93C598.733,1154.28 601.083,1149.48 605.183,1149.48C607.583,1149.48 608.633,1151.38 609.083,1152.48C609.233,1152.83 609.383,1152.98 609.583,1152.98C609.733,1152.98 609.933,1152.83 610.083,1152.63ZM588.033,1161.43C592.033,1163.48 593.333,1165.53 593.333,1168.43C593.333,1171.83 590.783,1174.13 587.283,1174.13C583.783,1174.13 582.283,1171.38 582.283,1168.68C582.283,1165.83 584.083,1163.53 587.183,1161.03L588.033,1161.43ZM593.033,1153.08C591.333,1155.03 589.433,1157.03 587.133,1158.68C584.233,1157.18 583.333,1156.08 583.333,1154.03C583.333,1151.73 584.833,1149.48 587.933,1149.48C589.883,1149.48 591.033,1150.73 592.033,1152.63C592.283,1153.03 592.483,1153.18 592.683,1153.18C592.833,1153.18 592.933,1153.13 593.033,1153.08Z" style="fill-rule:nonzero;"/>
        </g>
    </g>
</svg>
