<?xml version="1.0" encoding="UTF-8" standalone="no"?>
<!DOCTYPE svg PUBLIC "-//W3C//DTD SVG 1.1//EN" "http://www.w3.org/Graphics/SVG/1.1/DTD/svg11.dtd">
<svg width="100%" height="100%" viewBox="0 0 84 89" version="1.1" xmlns="http://www.w3.org/2000/svg" xmlns:xlink="http://www.w3.org/1999/xlink" xml:space="preserve" xmlns:serif="http://www.serif.com/" style="fill-rule:evenodd;clip-rule:evenodd;stroke-linejoin:round;stroke-miterlimit:2;">
    <g transform="matrix(1,0,0,1,-1074.08,-5720.07)">
        <g transform="matrix(1,0,0,1,-504.034,-1124.47)">
            <path d="M1623.11,6910.24C1627.21,6916.14 1633.61,6918.94 1640.11,6918.94C1650.91,6918.94 1661.71,6911.14 1661.71,6897.14C1661.71,6872.94 1627.41,6868.74 1619.91,6844.54C1612.31,6868.84 1578.11,6872.94 1578.11,6897.14C1578.11,6911.14 1588.91,6918.94 1599.71,6918.94C1606.21,6918.94 1612.61,6916.14 1616.71,6910.24L1617.41,6910.24C1617.41,6919.84 1615.91,6927.34 1604.91,6932.94C1611.81,6931.64 1614.01,6931.44 1619.91,6931.44C1625.81,6931.44 1628.01,6931.64 1634.91,6932.94C1623.91,6927.34 1622.41,6919.84 1622.41,6910.24L1623.11,6910.24Z" style="fill-rule:nonzero;"/>
        </g>
    </g>
</svg>
