<?xml version="1.0" encoding="UTF-8" standalone="no"?>
<!DOCTYPE svg PUBLIC "-//W3C//DTD SVG 1.1//EN" "http://www.w3.org/Graphics/SVG/1.1/DTD/svg11.dtd">
<svg width="100%" height="100%" viewBox="0 0 87 85" version="1.1" xmlns="http://www.w3.org/2000/svg" xmlns:xlink="http://www.w3.org/1999/xlink" xml:space="preserve" xmlns:serif="http://www.serif.com/" style="fill-rule:evenodd;clip-rule:evenodd;stroke-linejoin:round;stroke-miterlimit:2;">
    <g transform="matrix(1,0,0,1,-1272.88,-5723.57)">
        <g transform="matrix(1,0,0,1,-504.034,-1124.47)">
            <path d="M1817.71,6910.24C1817.21,6920.04 1815.91,6927.34 1804.91,6932.94C1811.81,6931.64 1814.01,6931.64 1819.91,6931.64C1825.81,6931.64 1828.21,6931.64 1835.11,6932.94C1823.61,6927.14 1822.01,6919.64 1822.01,6900.54C1824.71,6900.94 1827.21,6902.24 1828.31,6904.14C1832.31,6911.04 1837.21,6916.44 1845.31,6916.44C1856.11,6916.44 1863.01,6908.44 1863.01,6898.74C1863.01,6889.04 1856.11,6881.04 1845.31,6881.04C1837.21,6881.04 1832.31,6886.54 1828.31,6893.34C1827.11,6895.34 1824.81,6896.84 1822.01,6897.14C1822.31,6888.84 1823.51,6884.74 1826.71,6882.74C1833.61,6878.44 1838.21,6873.84 1838.21,6865.74C1838.21,6854.94 1829.71,6848.04 1820.01,6848.04C1810.31,6848.04 1801.81,6854.94 1801.81,6865.74C1801.81,6873.84 1806.21,6878.24 1813.31,6882.74C1816.81,6884.94 1817.91,6888.84 1818.11,6897.04C1815.21,6896.54 1812.91,6895.54 1811.61,6893.34C1807.61,6886.54 1802.71,6881.04 1794.61,6881.04C1783.81,6881.04 1776.91,6889.04 1776.91,6898.74C1776.91,6908.44 1783.81,6916.44 1794.61,6916.44C1802.71,6916.44 1807.61,6911.04 1811.61,6904.14C1812.81,6902.04 1815.11,6901.04 1818.11,6900.54L1817.71,6910.24Z" style="fill-rule:nonzero;"/>
        </g>
    </g>
</svg>
