<?xml version="1.0" encoding="UTF-8" standalone="no"?>
<!DOCTYPE svg PUBLIC "-//W3C//DTD SVG 1.1//EN" "http://www.w3.org/Graphics/SVG/1.1/DTD/svg11.dtd">
<svg width="100%" height="100%" viewBox="0 0 68 68" version="1.1" xmlns="http://www.w3.org/2000/svg" xmlns:xlink="http://www.w3.org/1999/xlink" xml:space="preserve" xmlns:serif="http://www.serif.com/" style="fill-rule:evenodd;clip-rule:evenodd;stroke-linejoin:round;stroke-miterlimit:2;">
    <g transform="matrix(1,0,0,1,-4338.42,-1876.27)">
        <g transform="matrix(1.41414,0,0,1.41429,-1534.59,-78.5653)">
            <path d="M4201.07,1406.17C4201.07,1392.95 4190.25,1382.21 4177.03,1382.21C4163.81,1382.21 4153.06,1392.95 4153.06,1406.17C4153.06,1419.4 4163.81,1430.14 4177.03,1430.14C4190.25,1430.14 4201.07,1419.4 4201.07,1406.17ZM4197.89,1406.17C4197.89,1417.63 4188.55,1426.96 4177.1,1426.96C4165.64,1426.96 4156.31,1417.63 4156.31,1406.17C4156.31,1394.72 4165.64,1385.39 4177.1,1385.39C4188.55,1385.39 4197.89,1394.72 4197.89,1406.17ZM4188.2,1414.87C4188.55,1414.38 4188.69,1413.88 4188.69,1413.53C4188.69,1413.11 4188.48,1412.82 4188.13,1412.82C4187.77,1412.82 4187.28,1413.11 4186.71,1413.67C4183.53,1416.71 4180.99,1417.98 4175.47,1417.98C4171.44,1417.98 4167.13,1414.8 4167.13,1407.94C4167.13,1400.16 4173.63,1393.66 4179.57,1393.66C4183.18,1393.66 4184.81,1396.42 4185.58,1397.76C4185.72,1398.04 4185.94,1398.12 4186.22,1398.12C4187.07,1398.12 4188.34,1396.84 4188.34,1395.71C4188.34,1395.07 4186.22,1390.41 4179.43,1390.41C4171.72,1390.41 4163.45,1398.33 4163.45,1408.3C4163.45,1416.43 4168.97,1421.24 4175.47,1421.24C4181.55,1421.24 4185.16,1419.47 4188.2,1414.87Z" style="fill-rule:nonzero;"/>
        </g>
    </g>
</svg>
