<?xml version="1.0" encoding="UTF-8" standalone="no"?>
<!DOCTYPE svg PUBLIC "-//W3C//DTD SVG 1.1//EN" "http://www.w3.org/Graphics/SVG/1.1/DTD/svg11.dtd">
<svg width="100%" height="100%" viewBox="0 0 44 40" version="1.1" xmlns="http://www.w3.org/2000/svg" xmlns:xlink="http://www.w3.org/1999/xlink" xml:space="preserve" xmlns:serif="http://www.serif.com/" style="fill-rule:evenodd;clip-rule:evenodd;stroke-linejoin:round;stroke-miterlimit:2;">
    <g transform="matrix(1,0,0,1,-4486.31,-1741.27)">
        <g transform="matrix(1.41414,0,0,1.41429,-1534.59,-78.5653)">
            <path d="M4280.9,1310.15C4282.73,1311.85 4284.01,1313.27 4285.07,1314.61C4285.21,1314.82 4285.49,1314.89 4285.77,1314.89C4286.91,1314.89 4288.67,1313.55 4288.67,1312.49C4288.67,1312.28 4288.6,1312.06 4288.39,1311.85C4286.55,1310.37 4285.14,1309.1 4283.51,1307.47C4284.86,1305.49 4285.7,1303.08 4285.7,1300.47C4285.7,1297.99 4284.93,1295.66 4283.65,1293.68C4285.14,1292.27 4286.41,1291.13 4288.04,1289.79C4288.25,1289.58 4288.32,1289.37 4288.32,1289.15C4288.32,1288.1 4286.55,1286.75 4285.42,1286.75C4285.14,1286.75 4284.86,1286.82 4284.71,1287.03C4283.72,1288.24 4282.59,1289.51 4281.11,1290.99C4279.06,1289.23 4276.37,1288.24 4273.47,1288.24C4270.43,1288.24 4267.6,1289.37 4265.48,1291.21C4263.78,1289.65 4262.58,1288.31 4261.59,1287.03C4261.45,1286.82 4261.17,1286.75 4260.89,1286.75C4259.75,1286.75 4257.99,1288.1 4257.99,1289.15C4257.99,1289.37 4258.06,1289.58 4258.27,1289.79C4260.04,1291.28 4261.45,1292.48 4263.08,1294.11C4261.88,1295.94 4261.24,1298.13 4261.24,1300.47C4261.24,1302.87 4261.95,1305.21 4263.22,1307.12C4261.38,1308.95 4259.82,1310.23 4257.92,1311.85C4257.7,1312.06 4257.63,1312.28 4257.63,1312.49C4257.63,1313.55 4259.4,1314.89 4260.53,1314.89C4260.82,1314.89 4261.1,1314.82 4261.24,1314.61C4262.37,1313.12 4263.71,1311.71 4265.69,1309.87C4267.82,1311.64 4270.5,1312.7 4273.47,1312.7C4276.23,1312.7 4278.85,1311.78 4280.9,1310.15ZM4282.24,1300.47C4282.24,1305.35 4278.35,1309.24 4273.47,1309.24C4268.59,1309.24 4264.7,1305.35 4264.7,1300.47C4264.7,1295.59 4268.59,1291.7 4273.47,1291.7C4278.35,1291.7 4282.24,1295.59 4282.24,1300.47Z" style="fill-rule:nonzero;"/>
        </g>
    </g>
</svg>
