<?xml version="1.0" encoding="UTF-8" standalone="no"?>
<!DOCTYPE svg PUBLIC "-//W3C//DTD SVG 1.1//EN" "http://www.w3.org/Graphics/SVG/1.1/DTD/svg11.dtd">
<svg width="100%" height="100%" viewBox="0 0 96 96" version="1.1" xmlns="http://www.w3.org/2000/svg" xmlns:xlink="http://www.w3.org/1999/xlink" xml:space="preserve" xmlns:serif="http://www.serif.com/" style="fill-rule:evenodd;clip-rule:evenodd;stroke-linejoin:round;stroke-miterlimit:2;">
    <g transform="matrix(1,0,0,1,-409.628,-2723.28)">
        <g transform="matrix(1,0,0,1,-110.019,-3591.86)">
            <path d="M615.248,6362.94C615.248,6336.55 593.848,6315.15 567.448,6315.15C541.048,6315.15 519.648,6336.55 519.648,6362.94C519.648,6389.35 541.048,6410.65 567.448,6410.65C593.848,6410.65 615.248,6389.35 615.248,6362.94ZM611.148,6362.94C611.148,6387.05 591.548,6406.55 567.448,6406.55C543.348,6406.55 523.748,6387.05 523.748,6362.94C523.748,6338.85 543.348,6319.24 567.448,6319.24C591.548,6319.24 611.148,6338.85 611.148,6362.94ZM553.848,6392.05C558.748,6391.94 563.748,6391.74 569.248,6390.74C581.048,6388.65 593.348,6380.15 593.348,6362.65C593.348,6345.24 579.548,6334.05 563.548,6334.05C557.948,6334.05 548.948,6335.15 545.748,6336.44C545.248,6336.65 545.048,6337.05 545.048,6337.55C545.048,6338.85 546.348,6340.55 547.748,6340.74L547.748,6388.85C547.748,6388.85 545.748,6388.85 544.948,6388.94C543.948,6389.05 543.348,6389.65 543.348,6390.24C543.348,6390.85 543.848,6391.35 544.848,6391.44C547.348,6391.74 550.048,6392.05 552.648,6392.05L553.848,6392.05ZM552.448,6339.55C555.748,6338.65 559.548,6338.24 563.148,6338.24C576.048,6338.24 588.548,6347.44 588.548,6362.55C588.548,6377.35 577.548,6384.74 568.548,6386.85C563.348,6388.05 557.648,6388.74 552.448,6388.85L552.448,6339.55Z" style="fill-rule:nonzero;"/>
        </g>
    </g>
</svg>
