<?xml version="1.0" encoding="UTF-8" standalone="no"?>
<!DOCTYPE svg PUBLIC "-//W3C//DTD SVG 1.1//EN" "http://www.w3.org/Graphics/SVG/1.1/DTD/svg11.dtd">
<svg width="100%" height="100%" viewBox="0 0 96 96" version="1.1" xmlns="http://www.w3.org/2000/svg" xmlns:xlink="http://www.w3.org/1999/xlink" xml:space="preserve" xmlns:serif="http://www.serif.com/" style="fill-rule:evenodd;clip-rule:evenodd;stroke-linejoin:round;stroke-miterlimit:2;">
    <g transform="matrix(1,0,0,1,-809.628,-3923.28)">
        <g transform="matrix(1,0,0,1,-110.019,-3591.86)">
            <path d="M1015.25,7562.94C1015.25,7536.55 993.848,7515.15 967.448,7515.15C941.048,7515.15 919.648,7536.55 919.648,7562.94C919.648,7589.35 941.048,7610.65 967.448,7610.65C993.848,7610.65 1015.25,7589.35 1015.25,7562.94ZM952.648,7593.55C944.448,7593.55 941.848,7592.55 941.848,7590.24C941.848,7588.55 943.448,7587.65 944.748,7587.44C945.148,7587.44 945.748,7587.35 946.248,7587.35L946.248,7541.85C944.648,7540.94 943.548,7539.15 943.548,7537.55C943.548,7536.55 944.048,7535.55 945.148,7535.05C948.648,7533.65 957.948,7532.55 963.548,7532.55C980.248,7532.55 994.848,7544.24 994.848,7562.65C994.848,7581.05 981.748,7590.05 969.548,7592.24C963.948,7593.24 958.848,7593.44 953.848,7593.55L952.648,7593.55ZM953.948,7587.35C958.648,7587.15 963.648,7586.44 968.248,7585.35C976.848,7583.35 987.048,7576.44 987.048,7562.55C987.048,7548.44 975.448,7539.74 963.148,7539.74C960.048,7539.74 956.848,7540.05 953.948,7540.74L953.948,7587.35Z" style="fill-rule:nonzero;"/>
        </g>
    </g>
</svg>
