<?xml version="1.0" encoding="UTF-8" standalone="no"?>
<!DOCTYPE svg PUBLIC "-//W3C//DTD SVG 1.1//EN" "http://www.w3.org/Graphics/SVG/1.1/DTD/svg11.dtd">
<svg width="100%" height="100%" viewBox="0 0 89 89" version="1.1" xmlns="http://www.w3.org/2000/svg" xmlns:xlink="http://www.w3.org/1999/xlink" xml:space="preserve" xmlns:serif="http://www.serif.com/" style="fill-rule:evenodd;clip-rule:evenodd;stroke-linejoin:round;stroke-miterlimit:2;">
    <g transform="matrix(1,0,0,1,-458.749,-2371.63)">
        <g transform="matrix(1.41414,0,0,1.41429,-177.055,-770.755)">
            <path d="M511.968,2284.25L511.968,2221.89L449.604,2221.89L449.604,2284.25L511.968,2284.25ZM470.322,2274.78C464.524,2274.78 462.685,2274.07 462.685,2272.45C462.685,2271.24 463.817,2270.61 464.736,2270.47C465.019,2270.47 465.443,2270.39 465.796,2270.39L465.796,2238.22C464.665,2237.59 463.887,2236.31 463.887,2235.18C463.887,2234.48 464.241,2233.77 465.019,2233.41C467.493,2232.43 474.069,2231.65 478.029,2231.65C489.837,2231.65 500.16,2239.92 500.16,2252.93C500.16,2265.94 490.897,2272.3 482.271,2273.86C478.312,2274.57 474.705,2274.71 471.17,2274.78L470.322,2274.78ZM471.241,2270.39C474.564,2270.25 478.099,2269.76 481.352,2268.98C487.433,2267.57 494.645,2262.69 494.645,2252.86C494.645,2242.89 486.443,2236.74 477.746,2236.74C475.554,2236.74 473.291,2236.95 471.241,2237.45L471.241,2270.39Z" style="fill-rule:nonzero;"/>
        </g>
    </g>
</svg>
