<?xml version="1.0" encoding="UTF-8" standalone="no"?>
<!DOCTYPE svg PUBLIC "-//W3C//DTD SVG 1.1//EN" "http://www.w3.org/Graphics/SVG/1.1/DTD/svg11.dtd">
<svg width="100%" height="100%" viewBox="0 0 89 89" version="1.1" xmlns="http://www.w3.org/2000/svg" xmlns:xlink="http://www.w3.org/1999/xlink" xml:space="preserve" xmlns:serif="http://www.serif.com/" style="fill-rule:evenodd;clip-rule:evenodd;stroke-linejoin:round;stroke-miterlimit:2;">
    <g transform="matrix(1,0,0,1,-1802.48,-2342.27)">
        <g transform="matrix(1.41414,0,0,1.41429,-1052.39,-837.704)">
            <path d="M2075.65,2310.83C2079.04,2310.83 2081.17,2308.29 2081.17,2305.32L2081.17,2253.98C2081.17,2250.52 2078.69,2248.47 2075.65,2248.47L2024.32,2248.47C2020.85,2248.47 2018.8,2250.8 2018.8,2253.98L2018.8,2305.32C2018.8,2308.5 2021.28,2310.83 2024.32,2310.83L2075.65,2310.83ZM2039.52,2301.36C2033.72,2301.36 2031.88,2300.65 2031.88,2299.03C2031.88,2297.82 2033.01,2297.19 2033.93,2297.05C2034.22,2297.05 2034.64,2296.97 2034.99,2296.97L2034.99,2264.8C2033.86,2264.17 2033.09,2262.89 2033.09,2261.76C2033.09,2261.05 2033.44,2260.35 2034.22,2259.99C2036.69,2259.01 2043.27,2258.23 2047.23,2258.23C2059.03,2258.23 2069.36,2266.5 2069.36,2279.51C2069.36,2292.52 2060.1,2298.88 2051.47,2300.44C2047.51,2301.15 2043.9,2301.29 2040.37,2301.36L2039.52,2301.36ZM2040.44,2296.97C2043.76,2296.83 2047.3,2296.34 2050.55,2295.56C2056.63,2294.15 2063.84,2289.27 2063.84,2279.44C2063.84,2269.47 2055.64,2263.32 2046.94,2263.32C2044.75,2263.32 2042.49,2263.53 2040.44,2264.03L2040.44,2296.97Z" style="fill-rule:nonzero;"/>
        </g>
    </g>
</svg>
