<?xml version="1.0" encoding="UTF-8" standalone="no"?>
<!DOCTYPE svg PUBLIC "-//W3C//DTD SVG 1.1//EN" "http://www.w3.org/Graphics/SVG/1.1/DTD/svg11.dtd">
<svg width="100%" height="100%" viewBox="0 0 98 90" version="1.1" xmlns="http://www.w3.org/2000/svg" xmlns:xlink="http://www.w3.org/1999/xlink" xml:space="preserve" xmlns:serif="http://www.serif.com/" style="fill-rule:evenodd;clip-rule:evenodd;stroke-linejoin:round;stroke-miterlimit:2;">
    <g transform="matrix(1,0,0,1,-5437.42,-2285.56)">
        <g transform="matrix(1,0,0,1,1,0)">
            <path d="M5515.11,2374.76C5517.41,2374.76 5534.11,2357.26 5534.11,2330.16C5534.11,2302.96 5517.41,2285.56 5515.11,2285.56C5514.41,2285.56 5513.91,2286.06 5513.91,2286.76C5513.91,2287.16 5514.01,2287.66 5514.41,2288.06C5524.21,2299.76 5528.81,2315.96 5528.81,2330.16C5528.81,2344.36 5524.21,2360.56 5514.41,2372.26C5514.01,2372.66 5513.91,2373.16 5513.91,2373.56C5513.91,2374.26 5514.41,2374.76 5515.11,2374.76ZM5456.61,2373.56C5456.61,2373.16 5456.52,2372.66 5456.11,2372.26C5446.32,2360.56 5441.72,2344.36 5441.72,2330.16C5441.72,2315.96 5446.32,2299.76 5456.11,2288.06C5456.52,2287.66 5456.61,2287.16 5456.61,2286.76C5456.61,2286.06 5456.11,2285.56 5455.41,2285.56C5453.12,2285.56 5436.42,2302.96 5436.42,2330.16C5436.42,2357.26 5453.12,2374.76 5455.41,2374.76C5456.11,2374.76 5456.61,2374.26 5456.61,2373.56ZM5471.71,2359.26C5476.61,2359.16 5481.61,2358.96 5487.11,2357.96C5498.91,2355.86 5511.21,2347.36 5511.21,2329.86C5511.21,2312.46 5497.41,2301.26 5481.41,2301.26C5475.81,2301.26 5466.81,2302.36 5463.61,2303.66C5463.11,2303.86 5462.91,2304.26 5462.91,2304.76C5462.91,2306.06 5464.22,2307.76 5465.61,2307.96L5465.61,2356.06C5465.61,2356.06 5463.61,2356.06 5462.82,2356.16C5461.82,2356.26 5461.22,2356.86 5461.22,2357.46C5461.22,2358.06 5461.72,2358.56 5462.72,2358.66C5465.21,2358.96 5467.91,2359.26 5470.51,2359.26L5471.71,2359.26ZM5470.31,2306.76C5473.61,2305.86 5477.41,2305.46 5481.01,2305.46C5493.91,2305.46 5506.41,2314.66 5506.41,2329.76C5506.41,2344.56 5495.41,2351.96 5486.41,2354.06C5481.21,2355.26 5475.51,2355.96 5470.31,2356.06L5470.31,2306.76Z" style="fill-rule:nonzero;"/>
        </g>
    </g>
</svg>
