<?xml version="1.0" encoding="UTF-8" standalone="no"?>
<!DOCTYPE svg PUBLIC "-//W3C//DTD SVG 1.1//EN" "http://www.w3.org/Graphics/SVG/1.1/DTD/svg11.dtd">
<svg width="100%" height="100%" viewBox="0 0 89 89" version="1.1" xmlns="http://www.w3.org/2000/svg" xmlns:xlink="http://www.w3.org/1999/xlink" xml:space="preserve" xmlns:serif="http://www.serif.com/" style="fill-rule:evenodd;clip-rule:evenodd;stroke-linejoin:round;stroke-miterlimit:2;">
    <g transform="matrix(1,0,0,1,-3093.32,-2331.51)">
        <g transform="matrix(1.41414,0,0,1.41429,-1389.33,-1046.26)">
            <path d="M3226.72,2450.69C3230.12,2450.69 3232.24,2448.14 3232.24,2445.17L3232.24,2393.84C3232.24,2390.38 3229.76,2388.32 3226.72,2388.32L3175.39,2388.32C3171.93,2388.32 3169.88,2390.66 3169.88,2393.84L3169.88,2445.17C3169.88,2448.35 3172.35,2450.69 3175.39,2450.69L3226.72,2450.69ZM3229.34,2445.45C3229.34,2447.01 3228.28,2447.79 3227.08,2447.79L3175.04,2447.79C3173.55,2447.79 3172.78,2446.73 3172.78,2445.45L3172.78,2393.49C3172.78,2392.07 3173.69,2391.22 3175.04,2391.22L3227.08,2391.22C3228.49,2391.22 3229.34,2392.28 3229.34,2393.49L3229.34,2445.45ZM3191.44,2440.15C3194.91,2440.08 3198.44,2439.94 3202.33,2439.23C3210.67,2437.75 3219.37,2431.74 3219.37,2419.36C3219.37,2407.06 3209.61,2399.14 3198.3,2399.14C3194.34,2399.14 3187.98,2399.92 3185.71,2400.84C3185.36,2400.98 3185.22,2401.26 3185.22,2401.62C3185.22,2402.54 3186.14,2403.74 3187.13,2403.88L3187.13,2437.89C3187.13,2437.89 3185.71,2437.89 3185.15,2437.96C3184.44,2438.03 3184.02,2438.45 3184.02,2438.88C3184.02,2439.3 3184.37,2439.66 3185.08,2439.73C3186.85,2439.94 3188.76,2440.15 3190.59,2440.15L3191.44,2440.15ZM3190.45,2403.03C3192.78,2402.39 3195.47,2402.11 3198.02,2402.11C3207.14,2402.11 3215.98,2408.62 3215.98,2419.29C3215.98,2429.76 3208.2,2434.99 3201.84,2436.48C3198.16,2437.32 3194.13,2437.82 3190.45,2437.89L3190.45,2403.03Z" style="fill-rule:nonzero;"/>
        </g>
    </g>
</svg>
