<?xml version="1.0" encoding="UTF-8" standalone="no"?>
<!DOCTYPE svg PUBLIC "-//W3C//DTD SVG 1.1//EN" "http://www.w3.org/Graphics/SVG/1.1/DTD/svg11.dtd">
<svg width="100%" height="100%" viewBox="0 0 89 89" version="1.1" xmlns="http://www.w3.org/2000/svg" xmlns:xlink="http://www.w3.org/1999/xlink" xml:space="preserve" xmlns:serif="http://www.serif.com/" style="fill-rule:evenodd;clip-rule:evenodd;stroke-linejoin:round;stroke-miterlimit:2;">
    <g transform="matrix(1,0,0,1,-958.698,-1771.63)">
        <g transform="matrix(1.41414,0,0,1.41429,-177.055,-770.755)">
            <path d="M865.503,1860.01L865.503,1797.65L803.14,1797.65L803.14,1860.01L865.503,1860.01ZM856.736,1813.49C857.726,1813.49 858.503,1814.4 858.503,1815.61C858.503,1818.15 852.423,1824.16 850.514,1825.65C855.887,1828.62 858.716,1832.43 858.716,1838.23C858.716,1845.94 853.554,1850.82 846.271,1850.82C839.483,1850.82 835.312,1845.73 835.312,1839.01C835.312,1833.85 837.857,1829.96 841.746,1826.57C838.069,1824.16 836.867,1821.55 836.867,1817.73C836.867,1812.07 840.756,1807.19 847.12,1807.19C851.291,1807.19 854.261,1810.02 856.312,1813.27C856.312,1813.34 856.382,1813.41 856.382,1813.49L856.736,1813.49ZM822.938,1842.55C823.433,1839.22 824.14,1835.05 824.847,1831.02C822.584,1833.35 819.756,1834.84 816.928,1834.84C811.766,1834.84 808.301,1830.53 808.301,1823.53C808.301,1815.39 813.746,1807.12 821.099,1807.12C824.635,1807.12 826.968,1808.82 828.312,1810.44C828.453,1809.74 828.877,1808.75 830.009,1808.75C831.423,1808.75 832.978,1810.09 832.978,1811.72L832.978,1812.07C832.766,1812.99 832.413,1813.98 832.342,1814.26C829.443,1828.9 827.18,1845.23 826.897,1848.34C826.756,1850.11 824.988,1850.54 823.928,1850.54C822.726,1850.54 821.877,1849.9 821.877,1848.56C821.877,1847.99 822.089,1847.5 822.16,1846.93L822.938,1842.55ZM827.18,1817.16C826.685,1816.95 826.332,1816.38 826.19,1815.96C825.554,1814.48 824.352,1812.21 821.382,1812.21C816.15,1812.21 812.968,1818.43 812.968,1823.31C812.968,1827.91 814.382,1829.61 816.857,1829.61C820.746,1829.61 823.221,1826.85 825.695,1821.9C826.19,1821.05 826.615,1819.42 827.039,1818.15L827.18,1817.16ZM846.271,1829.04C842.029,1832.51 839.978,1835.48 839.978,1838.87C839.978,1842.26 841.817,1845.66 846.271,1845.66C851.009,1845.66 854.049,1842.62 854.049,1838.52C854.049,1834.98 852.635,1832.22 846.978,1829.39L846.271,1829.04ZM852.776,1816.88C852.635,1816.67 852.493,1816.45 852.423,1816.24C851.009,1813.63 849.594,1812.21 847.19,1812.21C843.231,1812.21 841.463,1815.04 841.463,1817.73C841.463,1819.92 842.241,1821.19 845.988,1823.24C848.534,1821.33 850.796,1819.07 852.776,1816.88Z" style="fill-rule:nonzero;"/>
        </g>
    </g>
</svg>
