<?xml version="1.0" encoding="UTF-8" standalone="no"?>
<!DOCTYPE svg PUBLIC "-//W3C//DTD SVG 1.1//EN" "http://www.w3.org/Graphics/SVG/1.1/DTD/svg11.dtd">
<svg width="100%" height="100%" viewBox="0 0 89 89" version="1.1" xmlns="http://www.w3.org/2000/svg" xmlns:xlink="http://www.w3.org/1999/xlink" xml:space="preserve" xmlns:serif="http://www.serif.com/" style="fill-rule:evenodd;clip-rule:evenodd;stroke-linejoin:round;stroke-miterlimit:2;">
    <g transform="matrix(1,0,0,1,-1058.69,-1621.63)">
        <g transform="matrix(1.41414,0,0,1.41429,-177.055,-770.755)">
            <path d="M936.211,1753.95L936.211,1691.59L873.847,1691.59L873.847,1753.95L936.211,1753.95ZM901.493,1707.42C902.554,1707.42 903.261,1708.34 903.261,1709.55C903.261,1712.3 896.332,1718.81 895.342,1719.59C900.716,1722.56 903.473,1726.38 903.473,1732.17C903.473,1739.88 898.382,1744.76 891.029,1744.76C884.312,1744.76 880.14,1739.67 880.14,1732.95C880.14,1727.79 882.615,1723.9 886.503,1720.51C882.897,1718.1 881.625,1715.49 881.625,1711.67C881.625,1706.01 885.514,1701.13 891.877,1701.13C896.12,1701.13 899.089,1703.96 901.069,1707.21C901.14,1707.28 901.14,1707.35 901.14,1707.42L901.493,1707.42ZM930.837,1706.01C930.625,1706.93 930.271,1707.92 930.271,1708.2C927.867,1719.94 925.392,1736.06 924.827,1742.28C924.685,1744.05 922.918,1744.48 921.786,1744.48C920.655,1744.48 919.806,1743.84 919.806,1742.5C919.806,1741.93 919.948,1741.43 920.089,1740.87C921.079,1735.07 922.423,1726.8 922.705,1724.96C920.514,1727.29 917.615,1728.78 914.857,1728.78C909.695,1728.78 906.231,1724.47 906.231,1717.47C906.231,1709.33 911.604,1701.06 919.029,1701.06C922.564,1701.06 924.827,1702.76 926.241,1704.38C926.382,1703.68 926.806,1702.69 927.938,1702.69C929.352,1702.69 930.837,1704.03 930.837,1705.66L930.837,1706.01ZM925.11,1711.1C924.615,1710.89 924.261,1710.32 924.049,1709.9C923.483,1708.41 922.211,1706.15 919.241,1706.15C914.009,1706.15 910.827,1712.38 910.827,1717.25C910.827,1721.85 912.312,1723.55 914.786,1723.55C921.716,1723.55 924.544,1713.43 924.897,1712.09L925.11,1711.1ZM891.029,1722.98C886.857,1726.44 884.736,1729.41 884.736,1732.81C884.736,1736.2 886.574,1739.6 891.029,1739.6C895.766,1739.6 898.877,1736.56 898.877,1732.45C898.877,1728.92 897.392,1726.16 891.806,1723.33C891.594,1723.19 891.312,1723.05 891.029,1722.98ZM897.604,1710.82C897.392,1710.61 897.322,1710.39 897.18,1710.18C895.837,1707.57 894.352,1706.15 891.948,1706.15C887.988,1706.15 886.291,1708.98 886.291,1711.67C886.291,1713.86 886.998,1715.13 890.817,1717.18C893.362,1715.27 895.554,1713.01 897.604,1710.82Z" style="fill-rule:nonzero;"/>
        </g>
    </g>
</svg>
