<?xml version="1.0" encoding="UTF-8" standalone="no"?>
<!DOCTYPE svg PUBLIC "-//W3C//DTD SVG 1.1//EN" "http://www.w3.org/Graphics/SVG/1.1/DTD/svg11.dtd">
<svg width="100%" height="100%" viewBox="0 0 89 89" version="1.1" xmlns="http://www.w3.org/2000/svg" xmlns:xlink="http://www.w3.org/1999/xlink" xml:space="preserve" xmlns:serif="http://www.serif.com/" style="fill-rule:evenodd;clip-rule:evenodd;stroke-linejoin:round;stroke-miterlimit:2;">
    <g transform="matrix(1,0,0,1,-258.769,-871.632)">
        <g transform="matrix(1.41414,0,0,1.41429,-177.055,-770.755)">
            <path d="M370.554,1223.65L370.554,1161.28L308.19,1161.28L308.19,1223.65L370.554,1223.65ZM333.998,1189.71C337.887,1190.7 341.069,1194.66 341.069,1200.03C341.069,1207.74 336.827,1214.45 326.645,1214.45C322.332,1214.45 318.796,1212.69 315.756,1209.58C315.19,1208.94 315.12,1208.23 315.12,1207.67C315.12,1206.54 315.897,1203.99 317.665,1203.99C318.16,1203.99 318.514,1204.2 319.009,1204.7C321.2,1207.53 323.322,1209.29 326.645,1209.29C333.291,1209.29 335.837,1204.84 335.837,1200.1C335.837,1196.14 332.938,1193.24 328.625,1193.24C328.271,1193.24 327.918,1193.24 327.493,1193.31C326.574,1193.38 325.514,1193.53 324.524,1193.74C324.382,1193.81 324.382,1193.81 324.241,1193.81C322.402,1193.81 321.554,1191.62 321.554,1190.49C321.554,1189.71 321.978,1188.79 323.039,1188.58C329.261,1188.08 334.211,1184.83 334.211,1180.94C334.211,1177.83 332.372,1175.85 328.695,1175.85C325.796,1175.85 323.322,1177.12 320.705,1180.23C320.211,1180.87 319.786,1181.51 318.867,1181.51C317.736,1181.51 316.251,1179.81 316.251,1178.04C316.251,1175.57 321.908,1170.76 328.625,1170.76C334.847,1170.76 339.372,1174.29 339.372,1180.59C339.372,1186.03 335.554,1189 333.998,1189.71ZM358.817,1206.25C358.817,1207.81 358.887,1211.13 358.958,1212.55C358.958,1213.61 358.18,1214.24 357.049,1214.24C355.493,1214.24 353.514,1212.97 353.514,1211.63C353.514,1210.71 353.655,1207.81 353.655,1206.61L353.655,1179.1C352.453,1179.74 349.554,1180.94 348.493,1180.94C347.009,1180.94 345.312,1179.6 345.312,1178.61C345.312,1177.69 345.948,1177.26 346.514,1177.05C349.13,1175.99 351.604,1174.51 353.16,1173.23L353.443,1172.88L354.079,1172.24C354.716,1171.54 355.493,1171.04 356.13,1171.04C357.402,1171.04 359.17,1172.53 359.17,1174.22C359.17,1175.14 358.817,1176.13 358.817,1177.76L358.817,1206.25Z" style="fill-rule:nonzero;"/>
        </g>
    </g>
</svg>
