<?xml version="1.0" encoding="UTF-8" standalone="no"?>
<!DOCTYPE svg PUBLIC "-//W3C//DTD SVG 1.1//EN" "http://www.w3.org/Graphics/SVG/1.1/DTD/svg11.dtd">
<svg width="100%" height="100%" viewBox="0 0 89 89" version="1.1" xmlns="http://www.w3.org/2000/svg" xmlns:xlink="http://www.w3.org/1999/xlink" xml:space="preserve" xmlns:serif="http://www.serif.com/" style="fill-rule:evenodd;clip-rule:evenodd;stroke-linejoin:round;stroke-miterlimit:2;">
    <g transform="matrix(1,0,0,1,-858.708,-421.632)">
        <g transform="matrix(1.41414,0,0,1.41429,-177.055,-770.755)">
            <path d="M794.796,905.465L794.796,843.102L732.433,843.102L732.433,905.465L794.796,905.465ZM745.867,856.112C747.564,854.203 749.756,852.93 752.372,852.93C759.938,852.93 763.473,862.546 763.473,873.93C763.473,885.526 759.867,896.698 751.17,896.698C742.897,896.698 739.433,886.94 739.433,875.415C739.433,867.354 742.19,856.041 745.372,856.041C745.514,856.041 745.726,856.041 745.867,856.112ZM750.958,891.536C755.978,891.536 758.453,883.546 758.453,873.506C758.453,866.223 757.18,857.95 752.16,857.95C749.402,857.95 744.453,863.041 744.453,875.344C744.453,885.031 746.503,891.536 750.958,891.536ZM787.019,853.425C788.291,853.637 790.271,855.263 790.271,856.89C790.271,857.667 789.918,858.375 789.493,859.082C785.251,867.566 777.827,886.516 776.13,894.506C775.776,895.991 774.503,896.203 773.514,896.203C773.301,896.203 773.019,896.132 772.665,896.132C771.11,895.92 770.261,895.142 770.261,893.94C770.261,893.375 770.544,892.88 770.615,892.314C771.251,890.617 771.746,889.061 772.099,888.072C775.14,879.021 779.17,868.698 783.413,858.94L770.544,860.072C769.978,860.142 769.342,860.213 768.847,860.213C766.16,860.213 765.029,856.89 765.029,856.253C765.029,855.829 765.241,854.839 766.372,854.839C767.009,854.839 767.574,854.91 768.493,854.91L769.2,854.91L784.402,853.849C784.756,853.849 785.11,853.708 785.463,853.637C785.887,853.496 786.382,853.425 786.806,853.425L787.019,853.425Z" style="fill-rule:nonzero;"/>
        </g>
    </g>
</svg>
