<?xml version="1.0" encoding="UTF-8" standalone="no"?>
<!DOCTYPE svg PUBLIC "-//W3C//DTD SVG 1.1//EN" "http://www.w3.org/Graphics/SVG/1.1/DTD/svg11.dtd">
<svg width="100%" height="100%" viewBox="0 0 89 89" version="1.1" xmlns="http://www.w3.org/2000/svg" xmlns:xlink="http://www.w3.org/1999/xlink" xml:space="preserve" xmlns:serif="http://www.serif.com/" style="fill-rule:evenodd;clip-rule:evenodd;stroke-linejoin:round;stroke-miterlimit:2;">
    <g transform="matrix(1,0,0,1,-1602.51,-1742.27)">
        <g transform="matrix(1.41414,0,0,1.41429,-1052.39,-837.704)">
            <path d="M1934.24,1886.59C1937.63,1886.59 1939.75,1884.05 1939.75,1881.08L1939.75,1829.74C1939.75,1826.28 1937.28,1824.23 1934.24,1824.23L1882.9,1824.23C1879.44,1824.23 1877.39,1826.56 1877.39,1829.74L1877.39,1881.08C1877.39,1884.26 1879.86,1886.59 1882.9,1886.59L1934.24,1886.59ZM1910.9,1838.65C1908.14,1847.49 1904.33,1871.53 1904.19,1874.92C1904.04,1876.69 1902.07,1877.12 1900.79,1877.12C1899.52,1877.12 1898.6,1876.48 1898.6,1875.14C1898.6,1874.57 1898.74,1874.08 1898.88,1873.51C1899.17,1871.88 1899.59,1870.12 1899.73,1869.13C1900.3,1865.8 1901.08,1861.63 1901.85,1857.6C1899.38,1859.93 1896.2,1861.42 1893.09,1861.42C1887.36,1861.42 1883.47,1857.11 1883.47,1850.11C1883.47,1841.97 1889.48,1833.7 1897.68,1833.7C1901.64,1833.7 1904.19,1835.4 1905.74,1837.03C1905.88,1836.32 1906.31,1835.33 1907.58,1835.33C1909.21,1835.33 1910.9,1836.67 1910.9,1838.3L1910.9,1838.65ZM1929,1875.63C1929,1876.62 1928.15,1877.19 1927.17,1877.19C1925.54,1877.19 1923.56,1875.91 1923.56,1874.57C1923.56,1873.65 1923.7,1870.75 1923.7,1869.55L1923.7,1842.05C1922.14,1842.82 1919.46,1843.88 1918.54,1843.88C1917.05,1843.88 1915.36,1842.54 1915.36,1841.55C1915.36,1840.63 1916.07,1840.21 1916.56,1840C1919.18,1838.93 1921.65,1837.45 1923.21,1836.18L1923.56,1835.82C1923.7,1835.61 1923.91,1835.4 1924.2,1835.19C1924.83,1834.48 1925.61,1833.98 1926.18,1833.98C1927.52,1833.98 1929.22,1835.47 1929.22,1837.17C1929.22,1838.09 1928.86,1839.08 1928.86,1840.7L1928.86,1869.2C1928.86,1870.75 1928.93,1874.08 1929,1875.49L1929,1875.63ZM1904.47,1843.74C1903.9,1843.53 1903.55,1842.96 1903.34,1842.54C1902.63,1841.06 1901.29,1838.79 1897.96,1838.79C1892.17,1838.79 1888.63,1845.02 1888.63,1849.89C1888.63,1854.49 1890.26,1856.19 1893.01,1856.19C1897.26,1856.19 1900.01,1853.43 1902.84,1848.48C1903.34,1847.63 1903.83,1846.01 1904.26,1844.73L1904.47,1843.74Z" style="fill-rule:nonzero;"/>
        </g>
    </g>
</svg>
