<?xml version="1.0" encoding="UTF-8" standalone="no"?>
<!DOCTYPE svg PUBLIC "-//W3C//DTD SVG 1.1//EN" "http://www.w3.org/Graphics/SVG/1.1/DTD/svg11.dtd">
<svg width="100%" height="100%" viewBox="0 0 89 89" version="1.1" xmlns="http://www.w3.org/2000/svg" xmlns:xlink="http://www.w3.org/1999/xlink" xml:space="preserve" xmlns:serif="http://www.serif.com/" style="fill-rule:evenodd;clip-rule:evenodd;stroke-linejoin:round;stroke-miterlimit:2;">
    <g transform="matrix(1,0,0,1,-758.718,-871.632)">
        <g transform="matrix(1.41414,0,0,1.41429,-177.055,-770.755)">
            <path d="M724.089,1223.65L724.089,1161.28L661.726,1161.28L661.726,1223.65L724.089,1223.65ZM702.17,1188.01C703.584,1187.16 705.281,1186.67 707.19,1186.67C713.695,1186.67 718.079,1192.25 718.079,1199.75C718.079,1207.95 713.695,1214.45 706.342,1214.45C699.625,1214.45 694.534,1208.59 694.534,1201.3C694.534,1196.28 695.736,1191.26 698.14,1185.89C700.402,1180.73 702.524,1176.49 704.574,1172.95C704.716,1172.88 704.786,1172.67 704.857,1172.53C704.998,1172.24 705.14,1172.03 705.281,1171.89C705.705,1170.97 706.554,1170.69 707.261,1170.69C707.544,1170.69 710.301,1170.83 710.301,1173.02C710.301,1173.66 709.806,1174.51 709.524,1174.93C706.413,1179.17 704.009,1184.05 702.17,1188.01ZM684.988,1189.71C688.524,1190.7 691.423,1194.66 691.423,1200.03C691.423,1207.74 687.534,1214.45 678.413,1214.45C674.524,1214.45 671.413,1212.69 668.655,1209.58C668.16,1208.94 668.089,1208.23 668.089,1207.67C668.089,1206.54 668.796,1203.99 670.352,1203.99C670.776,1203.99 671.13,1204.2 671.554,1204.7C673.534,1207.53 675.443,1209.29 678.413,1209.29C684.423,1209.29 686.685,1204.84 686.685,1200.1C686.685,1196.14 684.069,1193.24 680.251,1193.24C678.908,1193.24 677.423,1193.53 676.574,1193.74C676.362,1193.81 676.362,1193.81 676.221,1193.81C674.594,1193.81 673.817,1191.62 673.817,1190.49C673.817,1189.71 674.241,1188.79 675.16,1188.58C678.978,1188.22 685.271,1185.82 685.271,1180.94C685.271,1177.83 683.574,1175.85 680.251,1175.85C677.635,1175.85 675.443,1177.12 673.11,1180.23C672.615,1180.87 672.19,1181.51 671.413,1181.51C669.645,1181.51 669.009,1178.46 669.009,1178.04C669.009,1177.19 669.362,1176.56 669.716,1176.2C672.402,1172.74 675.867,1170.76 680.251,1170.76C685.837,1170.76 689.867,1174.29 689.867,1180.59C689.867,1186.03 686.473,1189 684.988,1189.71ZM706.342,1209.43C710.301,1209.43 713.413,1205.62 713.413,1199.89C713.413,1195.43 710.938,1191.69 707.12,1191.69C702.312,1191.69 699.2,1196.07 699.2,1201.23C699.2,1205.9 702.099,1209.43 706.342,1209.43Z" style="fill-rule:nonzero;"/>
        </g>
    </g>
</svg>
