<?xml version="1.0" encoding="UTF-8" standalone="no"?>
<!DOCTYPE svg PUBLIC "-//W3C//DTD SVG 1.1//EN" "http://www.w3.org/Graphics/SVG/1.1/DTD/svg11.dtd">
<svg width="100%" height="100%" viewBox="0 0 96 96" version="1.1" xmlns="http://www.w3.org/2000/svg" xmlns:xlink="http://www.w3.org/1999/xlink" xml:space="preserve" xmlns:serif="http://www.serif.com/" style="fill-rule:evenodd;clip-rule:evenodd;stroke-linejoin:round;stroke-miterlimit:2;">
    <g transform="matrix(1,0,0,1,-1409.63,-3623.28)">
        <g transform="matrix(1,0,0,1,-110.019,-3591.86)">
            <path d="M1615.25,7262.94C1615.25,7236.55 1593.85,7215.15 1567.45,7215.15C1541.05,7215.15 1519.65,7236.55 1519.65,7262.94C1519.65,7289.35 1541.05,7310.65 1567.45,7310.65C1593.85,7310.65 1615.25,7289.35 1615.25,7262.94ZM1567.55,7239.65C1565.05,7249.74 1559.55,7282.15 1559.25,7289.94C1559.05,7292.35 1556.55,7292.94 1555.05,7292.94C1553.35,7292.94 1552.25,7292.05 1552.25,7290.15C1552.25,7289.35 1552.45,7288.74 1552.65,7287.94C1552.95,7285.65 1553.45,7283.24 1553.65,7281.85C1554.45,7277.24 1555.35,7271.44 1556.25,7265.85C1553.25,7269.15 1549.25,7271.15 1545.35,7271.15C1538.25,7271.15 1533.45,7265.15 1533.45,7255.55C1533.45,7244.24 1540.95,7232.74 1551.15,7232.74C1556.05,7232.74 1559.25,7235.05 1561.15,7237.44C1561.35,7236.44 1561.95,7235.05 1563.45,7235.05C1565.45,7235.05 1567.55,7236.94 1567.55,7239.15L1567.55,7239.65ZM1595.95,7282.55C1595.95,7285.74 1596.35,7288.94 1596.35,7290.74C1596.35,7291.94 1595.45,7293.05 1593.85,7293.05C1591.95,7293.05 1589.35,7291.35 1589.35,7289.35C1589.35,7288.05 1589.55,7283.55 1589.55,7282.35L1589.55,7279.55L1575.85,7280.05C1575.45,7280.05 1574.55,7280.15 1572.85,7280.65L1573.05,7280.55L1572.85,7280.55C1570.85,7280.55 1568.65,7278.15 1568.65,7275.44C1568.65,7273.94 1569.55,7272.65 1570.55,7271.15C1575.25,7262.94 1585.05,7241.65 1587.15,7234.44C1587.55,7233.15 1588.55,7232.94 1589.05,7232.94C1590.95,7232.94 1593.35,7236.15 1593.35,7238.44C1593.35,7239.05 1593.15,7239.65 1592.85,7240.15C1592.15,7241.35 1591.15,7243.05 1590.65,7244.35C1587.15,7252.35 1581.65,7263.85 1577.15,7272.94L1589.55,7272.65L1589.55,7257.55C1589.55,7255.94 1589.35,7250.85 1589.35,7249.05C1589.35,7247.94 1590.25,7246.74 1591.85,7246.74C1593.65,7246.74 1596.15,7248.44 1596.15,7250.55C1596.15,7251.74 1595.95,7255.55 1595.95,7257.55L1595.95,7272.35C1597.25,7272.24 1599.05,7271.85 1599.85,7271.85C1602.15,7271.85 1603.15,7275.44 1603.15,7276.94C1603.15,7277.65 1602.95,7279.55 1601.25,7279.55C1600.35,7279.55 1597.85,7279.35 1595.95,7279.35L1595.95,7282.55ZM1559.65,7246.65C1558.85,7246.35 1558.45,7245.65 1558.15,7244.94C1557.35,7242.94 1555.65,7239.85 1551.55,7239.85C1544.25,7239.85 1539.85,7248.44 1539.85,7255.24C1539.85,7261.55 1541.85,7263.94 1545.25,7263.94C1554.95,7263.94 1558.95,7249.55 1559.35,7248.05L1559.65,7246.65Z" style="fill-rule:nonzero;"/>
        </g>
    </g>
</svg>
