<?xml version="1.0" encoding="UTF-8" standalone="no"?>
<!DOCTYPE svg PUBLIC "-//W3C//DTD SVG 1.1//EN" "http://www.w3.org/Graphics/SVG/1.1/DTD/svg11.dtd">
<svg width="100%" height="100%" viewBox="0 0 96 96" version="1.1" xmlns="http://www.w3.org/2000/svg" xmlns:xlink="http://www.w3.org/1999/xlink" xml:space="preserve" xmlns:serif="http://www.serif.com/" style="fill-rule:evenodd;clip-rule:evenodd;stroke-linejoin:round;stroke-miterlimit:2;">
    <g transform="matrix(1,0,0,1,-109.628,-3923.28)">
        <g transform="matrix(1,0,0,1,-110.019,-3591.86)">
            <path d="M315.248,7562.94C315.248,7536.55 293.848,7515.15 267.448,7515.15C241.048,7515.15 219.648,7536.55 219.648,7562.94C219.648,7589.35 241.048,7610.65 267.448,7610.65C293.848,7610.65 315.248,7589.35 315.248,7562.94ZM285.948,7579.24C285.548,7580.55 284.848,7582.35 284.448,7584.24C283.848,7586.44 282.148,7587.15 280.648,7587.15C278.848,7587.15 277.048,7586.15 276.048,7585.24C275.348,7584.44 275.048,7583.55 274.848,7582.85C274.748,7582.15 274.648,7581.44 274.448,7580.74L267.448,7557.15L259.548,7579.24C258.848,7581.15 258.548,7582.44 258.048,7584.24C257.448,7586.35 255.948,7587.15 254.448,7587.15C252.748,7587.15 250.948,7586.05 250.048,7585.24C249.248,7584.35 249.048,7583.74 248.248,7580.74L239.648,7550.85C239.248,7549.55 238.648,7547.94 237.748,7545.94C237.648,7545.55 237.548,7545.24 237.548,7544.94C237.548,7543.55 239.048,7542.24 241.348,7542.24C242.748,7542.24 245.748,7542.74 246.348,7545.15C246.548,7546.15 246.848,7548.15 247.148,7549.35L253.948,7573.85L262.148,7550.44C262.748,7548.74 262.948,7547.05 263.148,7545.35C263.348,7543.94 264.548,7543.15 266.348,7543.15C268.748,7543.15 271.748,7544.94 271.948,7546.35C272.048,7547.44 272.348,7548.65 272.648,7549.74L280.048,7573.94L288.348,7549.44C288.848,7547.94 289.448,7545.74 289.848,7543.74C290.248,7542.15 291.748,7541.65 292.848,7541.65C295.048,7541.65 298.048,7543.65 298.048,7545.24C298.048,7545.74 297.848,7545.94 297.848,7546.24C297.048,7547.94 296.048,7550.44 295.548,7551.85L285.948,7579.24Z" style="fill-rule:nonzero;"/>
        </g>
    </g>
</svg>
