<?xml version="1.0" encoding="UTF-8" standalone="no"?>
<!DOCTYPE svg PUBLIC "-//W3C//DTD SVG 1.1//EN" "http://www.w3.org/Graphics/SVG/1.1/DTD/svg11.dtd">
<svg width="100%" height="100%" viewBox="0 0 89 89" version="1.1" xmlns="http://www.w3.org/2000/svg" xmlns:xlink="http://www.w3.org/1999/xlink" xml:space="preserve" xmlns:serif="http://www.serif.com/" style="fill-rule:evenodd;clip-rule:evenodd;stroke-linejoin:round;stroke-miterlimit:2;">
    <g transform="matrix(1,0,0,1,-1802.48,-242.274)">
        <g transform="matrix(1.41414,0,0,1.41429,-1052.39,-837.704)">
            <path d="M2075.65,825.984C2079.04,825.984 2081.17,823.439 2081.17,820.469L2081.17,769.136C2081.17,765.671 2078.69,763.621 2075.65,763.621L2024.32,763.621C2020.85,763.621 2018.8,765.954 2018.8,769.136L2018.8,820.469C2018.8,823.651 2021.28,825.984 2024.32,825.984L2075.65,825.984ZM2057.62,792.045C2063.35,793.318 2065.75,798.126 2065.75,802.58C2065.75,810.712 2060.24,816.793 2048.07,816.793C2041.71,816.793 2037.82,814.742 2034.36,811.136C2033.93,810.712 2033.72,810.005 2033.72,809.439C2033.72,808.166 2034.71,805.55 2036.55,805.55C2037.26,805.55 2037.82,805.974 2038.18,806.54C2040.23,809.793 2043.34,811.631 2048.07,811.631C2056.63,811.631 2060.24,807.459 2060.24,802.651C2060.24,798.338 2056.7,795.58 2051.19,795.58C2050.05,795.58 2048,795.58 2046.31,796.217C2046.1,796.358 2045.81,796.358 2045.53,796.358C2043.48,796.358 2042.42,794.166 2042.42,792.964C2042.42,792.186 2042.84,791.126 2044.12,791.055C2046.45,790.914 2058.26,789.005 2058.26,783.348C2058.26,780.096 2056.21,778.186 2050.97,778.186C2046.59,778.186 2043.69,779.53 2040.72,782.782C2040.23,783.348 2039.59,783.843 2038.81,783.843C2038.18,783.843 2037.61,783.49 2037.19,783.136C2036.34,782.217 2035.98,781.368 2035.98,780.52C2035.98,779.601 2036.41,778.894 2036.9,778.469C2040.58,775.005 2044.75,773.096 2050.83,773.096C2058.68,773.096 2063.7,776.419 2063.7,782.924C2063.7,787.096 2061.3,790.207 2057.62,792.045Z" style="fill-rule:nonzero;"/>
        </g>
    </g>
</svg>
