<?xml version="1.0" encoding="UTF-8" standalone="no"?>
<!DOCTYPE svg PUBLIC "-//W3C//DTD SVG 1.1//EN" "http://www.w3.org/Graphics/SVG/1.1/DTD/svg11.dtd">
<svg width="100%" height="100%" viewBox="0 0 89 89" version="1.1" xmlns="http://www.w3.org/2000/svg" xmlns:xlink="http://www.w3.org/1999/xlink" xml:space="preserve" xmlns:serif="http://www.serif.com/" style="fill-rule:evenodd;clip-rule:evenodd;stroke-linejoin:round;stroke-miterlimit:2;">
    <g transform="matrix(1,0,0,1,-2402.42,-1142.27)">
        <g transform="matrix(1.41414,0,0,1.41429,-1052.39,-837.704)">
            <path d="M2499.89,1462.35C2503.29,1462.35 2505.41,1459.8 2505.41,1456.83L2505.41,1405.5C2505.41,1402.04 2502.93,1399.98 2499.89,1399.98L2448.56,1399.98C2445.1,1399.98 2443.04,1402.32 2443.04,1405.5L2443.04,1456.83C2443.04,1460.02 2445.52,1462.35 2448.56,1462.35L2499.89,1462.35ZM2489.36,1444.88C2489.85,1441.56 2490.56,1437.39 2491.27,1433.36C2489,1435.69 2486.18,1437.18 2483.35,1437.18C2478.19,1437.18 2474.72,1432.86 2474.72,1425.86C2474.72,1417.73 2480.17,1409.46 2487.52,1409.46C2491.05,1409.46 2493.39,1411.16 2494.73,1412.78C2494.94,1412.08 2495.3,1411.09 2496.43,1411.09C2497.84,1411.09 2499.4,1412.43 2499.4,1414.06L2499.4,1414.41C2499.19,1415.33 2498.83,1416.32 2498.76,1416.6C2495.86,1431.24 2493.6,1447.57 2493.32,1450.68C2493.25,1452.45 2491.41,1452.87 2490.35,1452.87C2489.14,1452.87 2488.3,1452.24 2488.3,1450.89C2488.3,1450.33 2488.51,1449.83 2488.58,1449.27L2489.36,1444.88ZM2454.71,1434.35C2454.36,1434.7 2454.08,1434.77 2453.65,1434.77C2452.45,1434.77 2450.75,1433.29 2450.75,1431.24C2450.75,1431.03 2450.75,1430.67 2450.82,1430.32C2451.03,1429.61 2451.18,1428.9 2451.25,1428.41L2452.45,1414.55C2452.52,1413.84 2452.59,1412.92 2452.59,1412.22C2452.59,1410.87 2453.51,1410.52 2454.14,1410.52C2454.78,1410.52 2455.56,1410.8 2456.2,1411.16L2465.18,1410.52C2466.02,1410.45 2467.37,1410.38 2468.29,1410.17L2468.5,1410.17C2469.98,1410.17 2470.76,1412.64 2470.76,1413.63C2470.76,1414.41 2470.41,1415.4 2469.35,1415.47L2465.6,1415.68L2456.76,1416.32L2455.77,1426.92C2457.54,1425.65 2459.59,1424.94 2462.21,1424.94C2467.93,1424.94 2472.67,1429.96 2472.67,1438.31C2472.67,1446.02 2468.99,1453.16 2460.01,1453.16C2454.78,1453.16 2449.48,1448.35 2449.48,1445.66C2449.48,1444.32 2450.33,1441.77 2451.81,1441.77C2452.45,1441.77 2452.87,1442.2 2453.09,1442.69C2454.78,1445.66 2456.83,1447.92 2460.01,1447.92C2465.81,1447.92 2468.08,1443.47 2468.08,1438.38C2468.08,1433.01 2465.53,1430.04 2461.71,1430.04C2459.45,1430.04 2457.54,1431.17 2456.05,1432.86L2454.71,1434.35ZM2493.67,1419.5C2493.11,1419.29 2492.82,1418.72 2492.61,1418.3C2491.97,1416.81 2490.77,1414.55 2487.8,1414.55C2482.57,1414.55 2479.39,1420.77 2479.39,1425.65C2479.39,1430.25 2480.8,1431.94 2483.28,1431.94C2487.17,1431.94 2489.64,1429.19 2492.12,1424.24C2492.61,1423.39 2493.03,1421.76 2493.46,1420.49L2493.67,1419.5Z" style="fill-rule:nonzero;"/>
        </g>
    </g>
</svg>
