<?xml version="1.0" encoding="UTF-8" standalone="no"?>
<!DOCTYPE svg PUBLIC "-//W3C//DTD SVG 1.1//EN" "http://www.w3.org/Graphics/SVG/1.1/DTD/svg11.dtd">
<svg width="100%" height="100%" viewBox="0 0 89 89" version="1.1" xmlns="http://www.w3.org/2000/svg" xmlns:xlink="http://www.w3.org/1999/xlink" xml:space="preserve" xmlns:serif="http://www.serif.com/" style="fill-rule:evenodd;clip-rule:evenodd;stroke-linejoin:round;stroke-miterlimit:2;">
    <g transform="matrix(1,0,0,1,-858.708,-1171.63)">
        <g transform="matrix(1.41414,0,0,1.41429,-177.055,-770.755)">
            <path d="M794.796,1435.77L794.796,1373.4L732.433,1373.4L732.433,1435.77L794.796,1435.77ZM744.665,1407.77C744.312,1408.12 744.029,1408.19 743.534,1408.19C742.261,1408.19 740.493,1406.71 740.493,1404.66C740.493,1404.44 740.493,1404.09 740.635,1403.74L740.988,1401.83L742.261,1387.97C742.332,1387.26 742.402,1386.34 742.402,1385.64C742.402,1384.29 743.392,1383.94 744.099,1383.94C744.736,1383.94 745.514,1384.22 746.221,1384.58L755.625,1383.94C756.544,1383.87 757.958,1383.8 758.948,1383.59L759.16,1383.59C760.716,1383.59 761.564,1386.06 761.564,1387.05C761.564,1387.83 761.14,1388.82 760.079,1388.89L756.12,1389.1L746.857,1389.74L745.796,1400.34C747.635,1399.07 749.756,1398.36 752.514,1398.36C758.524,1398.36 763.615,1403.38 763.615,1411.73C763.615,1419.43 759.726,1426.58 750.251,1426.58C744.736,1426.58 739.15,1421.84 739.15,1419.08C739.15,1417.74 739.998,1415.19 741.625,1415.19C742.261,1415.19 742.756,1415.62 742.968,1416.11C744.736,1419.08 746.928,1421.34 750.251,1421.34C756.332,1421.34 758.665,1416.89 758.665,1411.8C758.665,1406.42 756.049,1403.45 752.019,1403.45C749.615,1403.45 747.635,1404.59 746.079,1406.28L744.665,1407.77ZM770.968,1422.55L770.968,1422.33C777.615,1402.39 780.655,1394.9 783.13,1388.96L770.897,1390.09C770.332,1390.16 769.766,1390.23 769.271,1390.23C766.867,1390.23 765.665,1387.4 765.665,1386.27C765.665,1385.85 765.877,1384.86 766.938,1384.86C767.574,1384.86 768.069,1384.93 768.918,1384.93L769.625,1384.93L784.049,1383.87C784.402,1383.87 784.756,1383.73 785.039,1383.66C785.463,1383.52 785.958,1383.44 786.382,1383.44L786.594,1383.44C787.796,1383.66 789.635,1385.28 789.635,1386.91L789.635,1387.19C789.564,1387.97 789.211,1388.61 788.928,1389.1C784.827,1397.3 777.332,1418.3 776.2,1424.53C775.918,1426.01 774.645,1426.22 773.726,1426.22C773.514,1426.22 773.231,1426.15 772.948,1426.15C771.463,1425.94 770.615,1425.16 770.615,1423.96C770.615,1423.54 770.756,1423.11 770.827,1422.9L770.968,1422.55Z" style="fill-rule:nonzero;"/>
        </g>
    </g>
</svg>
