<?xml version="1.0" encoding="UTF-8" standalone="no"?>
<!DOCTYPE svg PUBLIC "-//W3C//DTD SVG 1.1//EN" "http://www.w3.org/Graphics/SVG/1.1/DTD/svg11.dtd">
<svg width="100%" height="100%" viewBox="0 0 96 96" version="1.1" xmlns="http://www.w3.org/2000/svg" xmlns:xlink="http://www.w3.org/1999/xlink" xml:space="preserve" xmlns:serif="http://www.serif.com/" style="fill-rule:evenodd;clip-rule:evenodd;stroke-linejoin:round;stroke-miterlimit:2;">
    <g transform="matrix(1,0,0,1,-1609.63,-3023.28)">
        <g transform="matrix(1,0,0,1,-110.019,-3591.86)">
            <path d="M1815.25,6662.94C1815.25,6636.55 1793.85,6615.15 1767.45,6615.15C1741.05,6615.15 1719.65,6636.55 1719.65,6662.94C1719.65,6689.35 1741.05,6710.65 1767.45,6710.65C1793.85,6710.65 1815.25,6689.35 1815.25,6662.94ZM1771.45,6656.94C1774.45,6655.24 1777.95,6654.24 1782.15,6654.24C1791.35,6654.24 1799.65,6661.15 1799.65,6672.74C1799.65,6683.55 1793.35,6693.35 1778.55,6693.35C1770.25,6693.35 1761.05,6686.94 1761.05,6682.94C1761.05,6681.15 1762.35,6677.55 1764.85,6677.55C1765.85,6677.55 1766.55,6678.15 1766.95,6678.85C1769.65,6682.85 1773.45,6686.05 1778.55,6686.05C1788.05,6686.05 1792.05,6679.85 1792.05,6672.85C1792.05,6665.44 1787.65,6661.24 1781.35,6661.24C1777.65,6661.24 1774.05,6662.85 1771.65,6665.15C1769.15,6667.65 1768.95,6667.85 1767.75,6667.85C1765.75,6667.85 1763.05,6665.85 1763.05,6662.94C1763.05,6662.65 1763.15,6662.15 1763.25,6661.65L1763.95,6659.05L1766.85,6639.85C1766.95,6638.74 1767.05,6637.55 1767.05,6636.55C1767.05,6634.74 1768.55,6634.24 1769.55,6634.24C1770.55,6634.24 1771.85,6634.65 1772.85,6635.15L1788.35,6633.94C1789.75,6633.85 1791.95,6633.74 1793.45,6633.44L1793.75,6633.44C1796.15,6633.44 1797.45,6636.85 1797.45,6638.24C1797.45,6639.35 1796.85,6640.74 1795.25,6640.85C1793.75,6640.85 1791.45,6640.94 1789.15,6641.05L1773.75,6642.24L1771.45,6656.94ZM1750.45,6690.94C1750.45,6692.24 1749.25,6693.05 1747.75,6693.05C1745.35,6693.05 1742.55,6691.24 1742.55,6689.44C1742.55,6688.15 1742.75,6684.15 1742.75,6682.44L1742.75,6644.35C1739.65,6645.65 1736.75,6646.85 1735.15,6646.85C1733.05,6646.85 1730.55,6645.05 1730.55,6643.65C1730.55,6642.44 1731.55,6641.74 1732.25,6641.44C1736.15,6639.94 1739.75,6637.94 1742.05,6636.24L1742.45,6635.74L1743.35,6634.74C1744.35,6633.85 1745.45,6633.15 1746.35,6633.15C1748.25,6633.15 1750.75,6635.24 1750.75,6637.55C1750.75,6638.85 1750.25,6640.24 1750.25,6642.44L1750.25,6681.94C1750.25,6684.15 1750.35,6688.65 1750.45,6690.74L1750.45,6690.94Z" style="fill-rule:nonzero;"/>
        </g>
    </g>
</svg>
