<?xml version="1.0" encoding="UTF-8" standalone="no"?>
<!DOCTYPE svg PUBLIC "-//W3C//DTD SVG 1.1//EN" "http://www.w3.org/Graphics/SVG/1.1/DTD/svg11.dtd">
<svg width="100%" height="100%" viewBox="0 0 96 96" version="1.1" xmlns="http://www.w3.org/2000/svg" xmlns:xlink="http://www.w3.org/1999/xlink" xml:space="preserve" xmlns:serif="http://www.serif.com/" style="fill-rule:evenodd;clip-rule:evenodd;stroke-linejoin:round;stroke-miterlimit:2;">
    <g transform="matrix(1,0,0,1,-1709.63,-3173.28)">
        <g transform="matrix(1,0,0,1,-110.019,-3591.86)">
            <path d="M1915.25,6812.94C1915.25,6786.55 1893.85,6765.15 1867.45,6765.15C1841.05,6765.15 1819.65,6786.55 1819.65,6812.94C1819.65,6839.35 1841.05,6860.65 1867.45,6860.65C1893.85,6860.65 1915.25,6839.35 1915.25,6812.94ZM1857.65,6808.94C1862.75,6810.44 1866.95,6815.85 1866.95,6823.35C1866.95,6834.05 1861.35,6843.35 1847.95,6843.35C1842.25,6843.35 1837.75,6840.85 1833.75,6836.55C1832.95,6835.74 1832.85,6834.74 1832.85,6833.94C1832.85,6832.35 1833.95,6828.85 1836.25,6828.85C1836.85,6828.85 1837.35,6829.15 1837.95,6829.85C1840.85,6833.74 1843.65,6836.15 1847.95,6836.15C1856.75,6836.15 1860.05,6830.05 1860.05,6823.44C1860.05,6817.94 1856.25,6813.94 1850.65,6813.94C1848.65,6813.94 1846.25,6814.44 1845.25,6814.65C1845.05,6814.74 1845.05,6814.74 1844.85,6814.74C1842.45,6814.74 1841.25,6811.65 1841.25,6810.15C1841.25,6809.05 1841.85,6807.74 1843.25,6807.44C1848.65,6807.05 1857.95,6803.74 1857.95,6796.85C1857.95,6792.55 1855.45,6789.85 1850.75,6789.85C1846.85,6789.85 1843.65,6791.65 1840.25,6795.85C1839.55,6796.74 1838.95,6797.65 1837.75,6797.65C1836.65,6797.65 1834.35,6795.94 1834.35,6792.85C1834.35,6791.65 1834.85,6790.85 1835.25,6790.24C1839.25,6785.55 1844.25,6782.74 1850.65,6782.74C1858.75,6782.74 1864.75,6787.74 1864.75,6796.35C1864.75,6803.94 1859.75,6808.05 1857.65,6808.94ZM1877.15,6837.74C1877.15,6837.65 1877.15,6837.65 1877.25,6837.44C1878.95,6831.85 1884.35,6814.15 1894.05,6791.24L1877.05,6792.74C1876.35,6792.85 1875.55,6792.94 1874.85,6792.94C1873.95,6792.94 1872.85,6792.74 1871.95,6791.74C1870.65,6790.55 1869.85,6788.65 1869.85,6787.44C1869.85,6786.85 1870.15,6785.55 1871.55,6785.55C1872.45,6785.55 1873.15,6785.65 1874.35,6785.65L1875.25,6785.65L1895.35,6784.15C1895.75,6784.15 1896.25,6783.94 1896.65,6783.85C1897.35,6783.65 1897.95,6783.55 1898.45,6783.55L1898.75,6783.55C1900.45,6783.85 1903.05,6786.05 1903.05,6788.35L1903.05,6788.74C1902.85,6789.85 1902.45,6790.74 1902.05,6791.35C1895.55,6804.24 1886.15,6832.15 1884.35,6840.44C1883.95,6842.55 1882.25,6842.85 1880.95,6842.85C1880.65,6842.85 1880.35,6842.74 1879.85,6842.74C1877.85,6842.44 1876.65,6841.35 1876.65,6839.74C1876.65,6839.15 1876.85,6838.55 1876.95,6838.24L1877.15,6837.74Z" style="fill-rule:nonzero;"/>
        </g>
    </g>
</svg>
