<?xml version="1.0" encoding="UTF-8" standalone="no"?>
<!DOCTYPE svg PUBLIC "-//W3C//DTD SVG 1.1//EN" "http://www.w3.org/Graphics/SVG/1.1/DTD/svg11.dtd">
<svg width="100%" height="100%" viewBox="0 0 89 89" version="1.1" xmlns="http://www.w3.org/2000/svg" xmlns:xlink="http://www.w3.org/1999/xlink" xml:space="preserve" xmlns:serif="http://www.serif.com/" style="fill-rule:evenodd;clip-rule:evenodd;stroke-linejoin:round;stroke-miterlimit:2;">
    <g transform="matrix(1,0,0,1,-258.769,-1471.63)">
        <g transform="matrix(1.41414,0,0,1.41429,-177.055,-770.755)">
            <path d="M370.554,1647.89L370.554,1585.53L308.19,1585.53L308.19,1647.89L370.554,1647.89ZM321.2,1634.67L321.2,1634.45C321.837,1632.76 322.332,1631.2 322.685,1630.21C325.726,1621.16 329.756,1610.84 333.998,1601.08L321.13,1602.21C320.564,1602.28 319.928,1602.35 319.433,1602.35C316.746,1602.35 315.615,1599.03 315.615,1598.39C315.615,1597.97 315.827,1596.98 316.958,1596.98C317.594,1596.98 318.16,1597.05 319.079,1597.05L319.786,1597.05L334.988,1595.99C335.342,1595.99 335.695,1595.85 336.049,1595.78C336.473,1595.64 336.968,1595.57 337.392,1595.57L337.604,1595.57C338.877,1595.78 340.857,1597.4 340.857,1599.03L340.857,1599.31C340.716,1600.09 340.362,1600.73 340.079,1601.22C335.837,1609.71 328.413,1628.66 326.716,1636.65C326.362,1638.13 325.089,1638.34 324.099,1638.34C323.887,1638.34 323.604,1638.27 323.251,1638.27C321.695,1638.06 320.847,1637.28 320.847,1636.08C320.847,1635.66 320.988,1635.23 321.059,1635.02L321.2,1634.67ZM358.746,1636.93C358.746,1637.92 357.897,1638.49 356.766,1638.49C355.069,1638.49 353.019,1637.21 353.019,1635.87C353.019,1634.95 353.16,1632.05 353.16,1630.85L353.16,1603.34C350.544,1604.62 347.786,1605.18 347.716,1605.18C346.16,1605.18 344.392,1603.84 344.392,1602.85C344.392,1601.93 345.099,1601.51 345.665,1601.29C348.423,1600.23 350.968,1598.75 352.665,1597.48L352.948,1597.12L353.655,1596.49C354.291,1595.78 355.14,1595.28 355.776,1595.28C357.12,1595.28 358.958,1596.77 358.958,1598.47C358.958,1599.38 358.604,1600.38 358.604,1602L358.604,1630.5C358.604,1632.05 358.675,1635.38 358.746,1636.79L358.746,1636.93Z" style="fill-rule:nonzero;"/>
        </g>
    </g>
</svg>
