<?xml version="1.0" encoding="UTF-8" standalone="no"?>
<!DOCTYPE svg PUBLIC "-//W3C//DTD SVG 1.1//EN" "http://www.w3.org/Graphics/SVG/1.1/DTD/svg11.dtd">
<svg width="100%" height="100%" viewBox="0 0 89 89" version="1.1" xmlns="http://www.w3.org/2000/svg" xmlns:xlink="http://www.w3.org/1999/xlink" xml:space="preserve" xmlns:serif="http://www.serif.com/" style="fill-rule:evenodd;clip-rule:evenodd;stroke-linejoin:round;stroke-miterlimit:2;">
    <g transform="matrix(1,0,0,1,-2102.45,-392.274)">
        <g transform="matrix(1.41414,0,0,1.41429,-1052.39,-837.704)">
            <path d="M2287.77,932.045C2291.17,932.045 2293.29,929.5 2293.29,926.53L2293.29,875.197C2293.29,871.732 2290.81,869.681 2287.77,869.681L2236.44,869.681C2232.97,869.681 2230.92,872.015 2230.92,875.197L2230.92,926.53C2230.92,929.712 2233.4,932.045 2236.44,932.045L2287.77,932.045ZM2271.79,896.692C2273.28,895.843 2274.97,895.348 2276.81,895.348C2283.32,895.348 2287.77,900.934 2287.77,908.429C2287.77,916.631 2283.32,923.136 2275.96,923.136C2269.25,923.136 2264.16,917.267 2264.16,909.984C2264.16,904.964 2265.43,899.944 2267.76,894.57C2270.02,889.409 2272.14,885.166 2274.2,881.631C2274.41,881.419 2274.76,880.853 2274.9,880.57C2275.4,879.651 2276.25,879.368 2276.95,879.368C2277.1,879.368 2279.92,879.439 2279.92,881.702C2279.92,882.338 2279.5,883.186 2279.22,883.611C2276.03,887.853 2273.7,892.732 2271.79,896.692ZM2244.08,882.692C2245.7,880.782 2247.75,879.51 2250.23,879.51C2257.44,879.51 2260.76,889.126 2260.76,900.51C2260.76,912.106 2257.3,923.277 2249.1,923.277C2241.25,923.277 2237.99,913.52 2237.99,901.995C2237.99,892.025 2241.03,882.621 2243.58,882.621C2243.72,882.621 2243.93,882.621 2244.08,882.692ZM2248.88,918.116C2253.62,918.116 2255.95,910.126 2255.95,900.085C2255.95,892.803 2254.75,884.53 2250.09,884.53C2247.4,884.53 2242.73,889.621 2242.73,901.924C2242.73,911.611 2244.64,918.116 2248.88,918.116ZM2275.96,918.116C2279.92,918.116 2283.03,914.298 2283.03,908.57C2283.03,904.116 2280.56,900.368 2276.74,900.368C2271.93,900.368 2268.82,904.752 2268.82,909.914C2268.82,914.58 2271.72,918.116 2275.96,918.116Z" style="fill-rule:nonzero;"/>
        </g>
    </g>
</svg>
