<?xml version="1.0" encoding="UTF-8" standalone="no"?>
<!DOCTYPE svg PUBLIC "-//W3C//DTD SVG 1.1//EN" "http://www.w3.org/Graphics/SVG/1.1/DTD/svg11.dtd">
<svg width="100%" height="100%" viewBox="0 0 96 96" version="1.1" xmlns="http://www.w3.org/2000/svg" xmlns:xlink="http://www.w3.org/1999/xlink" xml:space="preserve" xmlns:serif="http://www.serif.com/" style="fill-rule:evenodd;clip-rule:evenodd;stroke-linejoin:round;stroke-miterlimit:2;">
    <g transform="matrix(1,0,0,1,-309.628,-3773.28)">
        <g transform="matrix(1,0,0,1,-110.019,-3591.86)">
            <path d="M515.248,7412.94C515.248,7386.55 493.848,7365.15 467.448,7365.15C441.048,7365.15 419.648,7386.55 419.648,7412.94C419.648,7439.35 441.048,7460.65 467.448,7460.65C493.848,7460.65 515.248,7439.35 515.248,7412.94ZM476.548,7402.44C474.548,7398.24 472.148,7397.44 469.548,7397.44C462.448,7397.44 453.948,7405.94 453.948,7415.94C453.948,7424.85 459.448,7428.44 464.048,7428.44C471.348,7428.44 476.348,7424.15 480.248,7420.05C481.048,7419.24 481.948,7418.44 483.148,7418.44C484.748,7418.44 485.348,7419.94 485.348,7420.85C485.348,7423.35 478.148,7435.74 464.048,7435.74C454.248,7435.74 446.248,7428.74 446.248,7416.35C446.248,7402.15 458.048,7390.24 469.348,7390.24C479.348,7390.24 482.948,7397.05 482.948,7398.85C482.948,7401.15 480.748,7403.65 478.648,7403.65C477.648,7403.65 476.948,7403.05 476.548,7402.44Z" style="fill-rule:nonzero;"/>
        </g>
    </g>
</svg>
