<?xml version="1.0" encoding="UTF-8" standalone="no"?>
<!DOCTYPE svg PUBLIC "-//W3C//DTD SVG 1.1//EN" "http://www.w3.org/Graphics/SVG/1.1/DTD/svg11.dtd">
<svg width="100%" height="100%" viewBox="0 0 96 96" version="1.1" xmlns="http://www.w3.org/2000/svg" xmlns:xlink="http://www.w3.org/1999/xlink" xml:space="preserve" xmlns:serif="http://www.serif.com/" style="fill-rule:evenodd;clip-rule:evenodd;stroke-linejoin:round;stroke-miterlimit:2;">
    <g transform="matrix(1,0,0,1,-109.628,-3023.28)">
        <g transform="matrix(1,0,0,1,-110.019,-3591.86)">
            <path d="M315.248,6662.94C315.248,6636.55 293.848,6615.15 267.448,6615.15C241.048,6615.15 219.648,6636.55 219.648,6662.94C219.648,6689.35 241.048,6710.65 267.448,6710.65C293.848,6710.65 315.248,6689.35 315.248,6662.94ZM257.848,6636.65C260.548,6633.94 263.948,6632.05 268.948,6632.05C283.448,6632.05 289.948,6644.85 289.948,6662.44C289.948,6679.94 283.148,6693.94 267.748,6693.94C251.048,6693.94 245.648,6680.24 245.648,6663.85C245.648,6649.24 252.548,6636.35 256.448,6636.35C256.948,6636.35 257.448,6636.44 257.848,6636.65ZM267.548,6686.65C276.948,6686.65 282.048,6677.65 282.048,6661.94C282.048,6648.74 277.948,6639.35 268.648,6639.35C263.048,6639.35 253.548,6646.55 253.548,6663.65C253.548,6677.94 257.048,6686.65 267.548,6686.65Z" style="fill-rule:nonzero;"/>
        </g>
    </g>
</svg>
