<?xml version="1.0" encoding="UTF-8" standalone="no"?>
<!DOCTYPE svg PUBLIC "-//W3C//DTD SVG 1.1//EN" "http://www.w3.org/Graphics/SVG/1.1/DTD/svg11.dtd">
<svg width="100%" height="100%" viewBox="0 0 89 89" version="1.1" xmlns="http://www.w3.org/2000/svg" xmlns:xlink="http://www.w3.org/1999/xlink" xml:space="preserve" xmlns:serif="http://www.serif.com/" style="fill-rule:evenodd;clip-rule:evenodd;stroke-linejoin:round;stroke-miterlimit:2;">
    <g transform="matrix(1,0,0,1,-1802.48,-542.274)">
        <g transform="matrix(1.41414,0,0,1.41429,-1052.39,-837.704)">
            <path d="M2075.65,1038.11C2079.04,1038.11 2081.17,1035.56 2081.17,1032.59L2081.17,981.257C2081.17,977.793 2078.69,975.742 2075.65,975.742L2024.32,975.742C2020.85,975.742 2018.8,978.075 2018.8,981.257L2018.8,1032.59C2018.8,1035.77 2021.28,1038.11 2024.32,1038.11L2075.65,1038.11ZM2065.33,1004.17C2069.5,1005.16 2072.82,1009.12 2072.82,1014.49C2072.82,1022.2 2068.3,1028.91 2057.62,1028.91C2053.02,1028.91 2049.42,1027.15 2046.24,1024.04C2045.6,1023.4 2045.53,1022.69 2045.53,1022.13C2045.53,1021 2046.31,1018.45 2048.22,1018.45C2048.71,1018.45 2049.14,1018.66 2049.56,1019.16C2051.89,1021.98 2054.16,1023.75 2057.62,1023.75C2064.62,1023.75 2067.31,1019.3 2067.31,1014.56C2067.31,1010.6 2064.27,1007.7 2059.74,1007.7C2057.83,1007.7 2055.78,1008.13 2055.43,1008.2C2055.29,1008.27 2055.22,1008.27 2055.07,1008.27C2053.17,1008.27 2052.25,1006.08 2052.25,1004.94C2052.25,1004.17 2052.74,1003.25 2053.8,1003.03C2058.54,1002.68 2065.61,1000.21 2065.61,995.399C2065.61,992.287 2063.63,990.308 2059.81,990.308C2056.7,990.308 2054.09,991.58 2051.4,994.692C2050.83,995.328 2050.41,995.964 2049.42,995.964C2048.22,995.964 2046.66,994.338 2046.66,992.5C2046.66,990.025 2052.67,985.217 2059.74,985.217C2066.32,985.217 2071.05,988.752 2071.05,995.045C2071.05,1000.49 2067.02,1003.46 2065.33,1004.17ZM2038.11,1027.15C2038.11,1028.14 2037.26,1028.7 2036.12,1028.7C2034.43,1028.7 2032.38,1027.43 2032.38,1026.09C2032.38,1025.17 2032.52,1022.27 2032.52,1021.07L2032.52,993.56C2029.9,994.833 2027.14,995.399 2027.08,995.399C2025.52,995.399 2023.75,994.055 2023.75,993.065C2023.75,992.146 2024.46,991.722 2025.02,991.51C2027.78,990.449 2030.33,988.964 2032.02,987.692L2032.31,987.338L2033.01,986.702C2033.65,985.995 2034.5,985.5 2035.13,985.5C2036.48,985.5 2038.32,986.984 2038.32,988.681C2038.32,989.601 2037.96,990.591 2037.96,992.217L2037.96,1020.71C2037.96,1022.27 2038.03,1025.59 2038.11,1027.01L2038.11,1027.15Z" style="fill-rule:nonzero;"/>
        </g>
    </g>
</svg>
