<?xml version="1.0" encoding="UTF-8" standalone="no"?>
<!DOCTYPE svg PUBLIC "-//W3C//DTD SVG 1.1//EN" "http://www.w3.org/Graphics/SVG/1.1/DTD/svg11.dtd">
<svg width="100%" height="100%" viewBox="0 0 89 89" version="1.1" xmlns="http://www.w3.org/2000/svg" xmlns:xlink="http://www.w3.org/1999/xlink" xml:space="preserve" xmlns:serif="http://www.serif.com/" style="fill-rule:evenodd;clip-rule:evenodd;stroke-linejoin:round;stroke-miterlimit:2;">
    <g transform="matrix(1,0,0,1,-2202.44,-1892.27)">
        <g transform="matrix(1.41414,0,0,1.41429,-1052.39,-837.704)">
            <path d="M2358.48,1992.65C2361.87,1992.65 2363.99,1990.11 2363.99,1987.14L2363.99,1935.8C2363.99,1932.34 2361.52,1930.29 2358.48,1930.29L2307.14,1930.29C2303.68,1930.29 2301.63,1932.62 2301.63,1935.8L2301.63,1987.14C2301.63,1990.32 2304.11,1992.65 2307.14,1992.65L2358.48,1992.65ZM2346.46,1975.89C2346.46,1976.6 2346.6,1980.84 2346.6,1982.26C2346.6,1983.67 2345.12,1983.88 2344.62,1983.88C2343.14,1983.88 2340.94,1982.61 2340.94,1981.2L2340.94,1981.06C2341.01,1980.14 2341.09,1976.67 2341.09,1975.26L2341.09,1964.58C2341.09,1959.77 2340.17,1957.37 2336.63,1957.37C2332.81,1957.37 2328.22,1959.63 2326.52,1965.22C2325.67,1968.12 2325.67,1973 2325.67,1975.89L2325.67,1977.17C2325.67,1979.01 2325.74,1980.77 2325.81,1982.19L2325.81,1982.26C2325.81,1983.6 2324.47,1983.88 2323.9,1983.88C2322.91,1983.88 2320.16,1983.18 2320.16,1981.13C2320.16,1980.21 2320.3,1976.11 2320.3,1975.26L2320.3,1946.69C2320.3,1945.56 2320.09,1941.67 2320.09,1940.33C2320.09,1939.34 2320.86,1938.7 2322.07,1938.7C2323.62,1938.7 2325.74,1939.9 2325.74,1941.39C2325.74,1942.31 2325.67,1945.91 2325.67,1947.33L2325.67,1957.23C2328.57,1953.83 2332.81,1952.07 2336.63,1952.07C2345.26,1952.07 2346.46,1959.49 2346.46,1964.37L2346.46,1975.89Z" style="fill-rule:nonzero;"/>
        </g>
    </g>
</svg>
