<?xml version="1.0" encoding="UTF-8" standalone="no"?>
<!DOCTYPE svg PUBLIC "-//W3C//DTD SVG 1.1//EN" "http://www.w3.org/Graphics/SVG/1.1/DTD/svg11.dtd">
<svg width="100%" height="100%" viewBox="0 0 96 96" version="1.1" xmlns="http://www.w3.org/2000/svg" xmlns:xlink="http://www.w3.org/1999/xlink" xml:space="preserve" xmlns:serif="http://www.serif.com/" style="fill-rule:evenodd;clip-rule:evenodd;stroke-linejoin:round;stroke-miterlimit:2;">
    <g transform="matrix(1,0,0,1,-409.628,-3773.28)">
        <g transform="matrix(1,0,0,1,-110.019,-3591.86)">
            <path d="M615.248,7412.94C615.248,7386.55 593.848,7365.15 567.448,7365.15C541.048,7365.15 519.648,7386.55 519.648,7412.94C519.648,7439.35 541.048,7460.65 567.448,7460.65C593.848,7460.65 615.248,7439.35 615.248,7412.94ZM584.648,7426.15C584.648,7431.15 585.648,7435.85 587.348,7437.85C587.548,7438.35 587.748,7438.74 587.748,7439.35C587.748,7441.15 585.848,7444.35 583.248,7444.35C579.548,7444.35 577.948,7436.44 577.748,7435.15C572.948,7441.65 567.248,7444.74 560.948,7444.74C551.648,7444.74 545.648,7437.74 545.648,7426.05C545.648,7412.24 556.548,7399.24 568.148,7399.24C571.448,7399.24 574.548,7400.15 577.048,7402.15L577.048,7391.55C577.048,7388.05 576.848,7384.44 576.848,7382.44C576.848,7380.55 578.748,7380.15 579.648,7380.15C581.148,7380.15 584.848,7381.15 584.848,7384.05C584.848,7385.35 584.648,7388.65 584.648,7391.55L584.648,7426.15ZM577.048,7411.44C576.348,7411.35 575.748,7411.05 575.248,7410.35C573.348,7407.44 570.848,7406.35 568.248,7406.35C560.248,7406.35 553.548,7416.15 553.548,7425.85C553.548,7434.44 557.248,7437.55 560.948,7437.55C567.748,7437.55 577.048,7428.65 577.048,7418.44L577.048,7411.44Z" style="fill-rule:nonzero;"/>
        </g>
    </g>
</svg>
