<?xml version="1.0" encoding="UTF-8" standalone="no"?>
<!DOCTYPE svg PUBLIC "-//W3C//DTD SVG 1.1//EN" "http://www.w3.org/Graphics/SVG/1.1/DTD/svg11.dtd">
<svg width="100%" height="100%" viewBox="0 0 89 89" version="1.1" xmlns="http://www.w3.org/2000/svg" xmlns:xlink="http://www.w3.org/1999/xlink" xml:space="preserve" xmlns:serif="http://www.serif.com/" style="fill-rule:evenodd;clip-rule:evenodd;stroke-linejoin:round;stroke-miterlimit:2;">
    <g transform="matrix(1,0,0,1,-2202.44,-1142.27)">
        <g transform="matrix(1.41414,0,0,1.41429,-1052.39,-837.704)">
            <path d="M2358.48,1462.35C2361.87,1462.35 2363.99,1459.8 2363.99,1456.83L2363.99,1405.5C2363.99,1402.04 2361.52,1399.98 2358.48,1399.98L2307.14,1399.98C2303.68,1399.98 2301.63,1402.32 2301.63,1405.5L2301.63,1456.83C2301.63,1460.02 2304.11,1462.35 2307.14,1462.35L2358.48,1462.35ZM2313.86,1434.35C2313.51,1434.7 2313.23,1434.77 2312.73,1434.77C2311.46,1434.77 2309.69,1433.29 2309.69,1431.24C2309.69,1431.03 2309.69,1430.67 2309.83,1430.32L2310.19,1428.41L2311.46,1414.55C2311.53,1413.84 2311.6,1412.92 2311.6,1412.22C2311.6,1410.87 2312.59,1410.52 2313.3,1410.52C2313.93,1410.52 2314.71,1410.8 2315.42,1411.16L2324.82,1410.52C2325.74,1410.45 2327.16,1410.38 2328.14,1410.17L2328.36,1410.17C2329.91,1410.17 2330.76,1412.64 2330.76,1413.63C2330.76,1414.41 2330.34,1415.4 2329.28,1415.47L2325.32,1415.68L2316.05,1416.32L2314.99,1426.92C2316.83,1425.65 2318.95,1424.94 2321.71,1424.94C2327.72,1424.94 2332.81,1429.96 2332.81,1438.31C2332.81,1446.02 2328.92,1453.16 2319.45,1453.16C2313.93,1453.16 2308.35,1448.42 2308.35,1445.66C2308.35,1444.32 2309.2,1441.77 2310.82,1441.77C2311.46,1441.77 2311.95,1442.2 2312.17,1442.69C2313.93,1445.66 2316.12,1447.92 2319.45,1447.92C2325.53,1447.92 2327.86,1443.47 2327.86,1438.38C2327.86,1433.01 2325.25,1430.04 2321.22,1430.04C2318.81,1430.04 2316.83,1431.17 2315.28,1432.86L2313.86,1434.35ZM2340.17,1449.13L2340.17,1448.91C2346.81,1428.97 2349.85,1421.48 2352.33,1415.54L2340.1,1416.67C2339.53,1416.74 2338.96,1416.81 2338.47,1416.81C2336.07,1416.81 2334.86,1413.98 2334.86,1412.85C2334.86,1412.43 2335.08,1411.44 2336.14,1411.44C2336.77,1411.44 2337.27,1411.51 2338.12,1411.51L2338.82,1411.51L2353.25,1410.45C2353.6,1410.45 2353.95,1410.31 2354.24,1410.24C2354.66,1410.1 2355.16,1410.03 2355.58,1410.03L2355.79,1410.03C2356.99,1410.24 2358.83,1411.86 2358.83,1413.49L2358.83,1413.77C2358.76,1414.55 2358.41,1415.19 2358.12,1415.68C2354.02,1423.88 2346.53,1444.88 2345.4,1451.11C2345.12,1452.59 2343.84,1452.8 2342.92,1452.8C2342.71,1452.8 2342.43,1452.73 2342.14,1452.73C2340.66,1452.52 2339.81,1451.74 2339.81,1450.54C2339.81,1450.12 2339.95,1449.69 2340.02,1449.48L2340.17,1449.13Z" style="fill-rule:nonzero;"/>
        </g>
    </g>
</svg>
