<?xml version="1.0" encoding="UTF-8" standalone="no"?>
<!DOCTYPE svg PUBLIC "-//W3C//DTD SVG 1.1//EN" "http://www.w3.org/Graphics/SVG/1.1/DTD/svg11.dtd">
<svg width="100%" height="100%" viewBox="0 0 89 89" version="1.1" xmlns="http://www.w3.org/2000/svg" xmlns:xlink="http://www.w3.org/1999/xlink" xml:space="preserve" xmlns:serif="http://www.serif.com/" style="fill-rule:evenodd;clip-rule:evenodd;stroke-linejoin:round;stroke-miterlimit:2;">
    <g transform="matrix(1,0,0,1,-1058.69,-871.632)">
        <g transform="matrix(1.41414,0,0,1.41429,-177.055,-770.755)">
            <path d="M936.211,1223.65L936.211,1161.28L873.847,1161.28L873.847,1223.65L936.211,1223.65ZM919.806,1206.18C920.372,1202.86 921.009,1198.69 921.716,1194.66C919.453,1196.99 916.625,1198.48 913.867,1198.48C908.635,1198.48 905.17,1194.16 905.17,1187.16C905.17,1179.03 910.615,1170.76 918.039,1170.76C921.503,1170.76 923.837,1172.45 925.251,1174.08C925.392,1173.38 925.746,1172.38 926.877,1172.38C928.362,1172.38 929.847,1173.73 929.847,1175.35L929.847,1175.71C929.635,1176.63 929.281,1177.62 929.211,1177.9C928.645,1180.87 924.12,1205.12 923.837,1211.98C923.695,1213.75 921.928,1214.17 920.796,1214.17C919.594,1214.17 918.817,1213.54 918.817,1212.19C918.817,1211.63 918.958,1211.13 919.029,1210.57L919.806,1206.18ZM895.978,1189.71C899.514,1190.7 902.342,1194.66 902.342,1200.03C902.342,1207.74 898.453,1214.45 889.332,1214.45C885.443,1214.45 882.332,1212.69 879.574,1209.58C879.079,1208.94 879.009,1208.23 879.009,1207.67C879.009,1206.54 879.716,1203.99 881.271,1203.99C881.695,1203.99 882.049,1204.2 882.473,1204.7C884.453,1207.53 886.362,1209.29 889.332,1209.29C895.342,1209.29 897.604,1204.84 897.604,1200.1C897.604,1196.14 894.988,1193.24 891.17,1193.24C890.817,1193.24 890.463,1193.24 890.11,1193.31C889.261,1193.38 888.342,1193.53 887.493,1193.74C887.352,1193.81 887.281,1193.81 887.14,1193.81C885.514,1193.81 884.736,1191.62 884.736,1190.49C884.736,1189.71 885.16,1188.79 886.079,1188.58C889.968,1188.22 896.19,1185.89 896.19,1180.94C896.19,1177.83 894.493,1175.85 891.241,1175.85C888.554,1175.85 886.362,1177.12 884.029,1180.23C883.534,1180.87 883.18,1181.51 882.332,1181.51C880.847,1181.51 879.998,1179.24 879.998,1178.04C879.998,1175.57 884.948,1170.76 891.17,1170.76C896.756,1170.76 900.857,1174.29 900.857,1180.59C900.857,1186.03 897.392,1189 895.978,1189.71ZM924.12,1180.8C923.554,1180.59 923.271,1180.02 923.059,1179.6C922.493,1178.11 921.221,1175.85 918.251,1175.85C913.019,1175.85 909.837,1182.07 909.837,1186.95C909.837,1191.55 911.251,1193.24 913.796,1193.24C920.726,1193.24 923.554,1183.13 923.908,1181.79L924.12,1180.8Z" style="fill-rule:nonzero;"/>
        </g>
    </g>
</svg>
