<?xml version="1.0" encoding="UTF-8" standalone="no"?>
<!DOCTYPE svg PUBLIC "-//W3C//DTD SVG 1.1//EN" "http://www.w3.org/Graphics/SVG/1.1/DTD/svg11.dtd">
<svg width="100%" height="100%" viewBox="0 0 89 89" version="1.1" xmlns="http://www.w3.org/2000/svg" xmlns:xlink="http://www.w3.org/1999/xlink" xml:space="preserve" xmlns:serif="http://www.serif.com/" style="fill-rule:evenodd;clip-rule:evenodd;stroke-linejoin:round;stroke-miterlimit:2;">
    <g transform="matrix(1,0,0,1,-658.729,-871.632)">
        <g transform="matrix(1.41414,0,0,1.41429,-177.055,-770.755)">
            <path d="M653.382,1223.65L653.382,1161.28L591.019,1161.28L591.019,1223.65L653.382,1223.65ZM628.776,1195.65C628.423,1196 628.14,1196.07 627.645,1196.07C626.372,1196.07 624.604,1194.59 624.604,1192.54C624.604,1192.32 624.604,1191.97 624.746,1191.62L625.17,1189.71L626.372,1175.85C626.443,1175.14 626.514,1174.22 626.514,1173.52C626.514,1172.17 627.503,1171.82 628.211,1171.82C628.847,1171.82 629.625,1172.1 630.332,1172.45L639.736,1171.82C640.655,1171.75 642.069,1171.68 643.059,1171.46L643.271,1171.46C644.827,1171.46 645.675,1173.94 645.675,1174.93C645.675,1175.71 645.251,1176.7 644.19,1176.77L640.231,1176.98L630.968,1177.62L629.908,1188.22C631.746,1186.95 633.867,1186.24 636.625,1186.24C642.635,1186.24 647.726,1191.26 647.726,1199.61C647.726,1207.31 643.837,1214.45 634.362,1214.45C628.847,1214.45 623.261,1209.72 623.261,1206.96C623.261,1205.62 624.18,1203.07 625.736,1203.07C626.372,1203.07 626.867,1203.5 627.079,1203.99C628.847,1206.96 631.039,1209.22 634.362,1209.22C640.443,1209.22 642.847,1204.77 642.847,1199.68C642.847,1194.3 640.16,1191.33 636.13,1191.33C633.726,1191.33 631.746,1192.46 630.19,1194.16L628.776,1195.65ZM614.069,1189.71C617.817,1190.7 620.857,1194.66 620.857,1200.03C620.857,1207.74 616.756,1214.45 607.14,1214.45C603.039,1214.45 599.716,1212.69 596.887,1209.58C596.322,1208.94 596.251,1208.23 596.251,1207.67C596.251,1206.54 596.958,1203.99 598.655,1203.99C599.079,1203.99 599.503,1204.2 599.928,1204.7C601.978,1207.53 604.029,1209.29 607.14,1209.29C613.433,1209.29 615.837,1204.84 615.837,1200.1C615.837,1196.14 613.15,1193.24 609.049,1193.24C607.493,1193.24 605.796,1193.6 605.16,1193.74C605.019,1193.81 605.019,1193.81 604.877,1193.81C603.18,1193.81 602.332,1191.62 602.332,1190.49C602.332,1189.71 602.756,1188.79 603.746,1188.58C611.382,1187.94 614.352,1183.56 614.352,1180.94C614.352,1177.83 612.584,1175.85 609.12,1175.85C606.362,1175.85 603.958,1177.12 601.554,1180.23C601.059,1180.87 600.635,1181.51 599.786,1181.51C598.655,1181.51 597.312,1179.95 597.312,1178.04C597.312,1175.64 602.473,1170.76 609.049,1170.76C614.918,1170.76 619.231,1174.29 619.231,1180.59C619.231,1186.03 615.625,1189 614.069,1189.71Z" style="fill-rule:nonzero;"/>
        </g>
    </g>
</svg>
