<?xml version="1.0" encoding="UTF-8" standalone="no"?>
<!DOCTYPE svg PUBLIC "-//W3C//DTD SVG 1.1//EN" "http://www.w3.org/Graphics/SVG/1.1/DTD/svg11.dtd">
<svg width="100%" height="100%" viewBox="0 0 96 96" version="1.1" xmlns="http://www.w3.org/2000/svg" xmlns:xlink="http://www.w3.org/1999/xlink" xml:space="preserve" xmlns:serif="http://www.serif.com/" style="fill-rule:evenodd;clip-rule:evenodd;stroke-linejoin:round;stroke-miterlimit:2;">
    <g transform="matrix(1,0,0,1,-1709.63,-3473.28)">
        <g transform="matrix(1,0,0,1,-110.019,-3591.86)">
            <path d="M1915.25,7112.94C1915.25,7086.55 1893.85,7065.15 1867.45,7065.15C1841.05,7065.15 1819.65,7086.55 1819.65,7112.94C1819.65,7139.35 1841.05,7160.65 1867.45,7160.65C1893.85,7160.65 1915.25,7139.35 1915.25,7112.94ZM1877.05,7137.74C1877.15,7137.65 1877.15,7137.65 1877.15,7137.44C1877.95,7135.15 1878.65,7132.94 1879.05,7131.55C1883.05,7119.05 1888.35,7104.74 1893.95,7091.24L1877.05,7092.74C1876.25,7092.85 1875.45,7092.94 1874.85,7092.94C1871.75,7092.94 1869.75,7089.15 1869.75,7087.44C1869.75,7086.85 1870.05,7085.55 1871.55,7085.55C1872.35,7085.55 1873.15,7085.65 1874.35,7085.65L1875.25,7085.65L1895.25,7084.15C1895.75,7084.15 1896.25,7083.94 1896.65,7083.85C1897.25,7083.65 1897.85,7083.55 1898.45,7083.55L1898.75,7083.55C1900.45,7083.85 1903.05,7086.05 1903.05,7088.35L1903.05,7088.74C1902.85,7089.85 1902.35,7090.74 1902.05,7091.35C1899.65,7094.94 1887.25,7126.85 1884.35,7140.55C1883.95,7142.55 1882.25,7142.85 1880.95,7142.85C1880.65,7142.85 1880.25,7142.74 1879.85,7142.74C1877.75,7142.44 1876.65,7141.35 1876.65,7139.74C1876.65,7139.15 1876.85,7138.55 1876.95,7138.24L1877.05,7137.74ZM1839.25,7137.74L1839.25,7137.44C1840.05,7135.15 1840.75,7132.94 1841.15,7131.55C1845.15,7119.05 1850.45,7104.74 1856.05,7091.24L1839.15,7092.74C1838.35,7092.85 1837.65,7092.94 1836.95,7092.94C1833.85,7092.94 1831.85,7089.15 1831.85,7087.44C1831.85,7086.85 1832.25,7085.55 1833.65,7085.55C1834.45,7085.55 1835.25,7085.65 1836.45,7085.65L1837.35,7085.65L1857.35,7084.15C1857.85,7084.15 1858.35,7083.94 1858.75,7083.85C1859.35,7083.65 1859.95,7083.55 1860.55,7083.55L1860.85,7083.55C1862.55,7083.85 1865.15,7086.05 1865.15,7088.35L1865.15,7088.74C1864.95,7089.85 1864.55,7090.74 1864.15,7091.35C1861.75,7094.94 1849.35,7126.85 1846.45,7140.55C1846.05,7142.55 1844.35,7142.85 1843.05,7142.85C1842.75,7142.85 1842.45,7142.74 1841.95,7142.74C1839.85,7142.44 1838.75,7141.35 1838.75,7139.74C1838.75,7139.15 1838.95,7138.55 1839.05,7138.24L1839.25,7137.74Z" style="fill-rule:nonzero;"/>
        </g>
    </g>
</svg>
