<?xml version="1.0" encoding="UTF-8" standalone="no"?>
<!DOCTYPE svg PUBLIC "-//W3C//DTD SVG 1.1//EN" "http://www.w3.org/Graphics/SVG/1.1/DTD/svg11.dtd">
<svg width="100%" height="100%" viewBox="0 0 89 89" version="1.1" xmlns="http://www.w3.org/2000/svg" xmlns:xlink="http://www.w3.org/1999/xlink" xml:space="preserve" xmlns:serif="http://www.serif.com/" style="fill-rule:evenodd;clip-rule:evenodd;stroke-linejoin:round;stroke-miterlimit:2;">
    <g transform="matrix(1,0,0,1,-658.729,-1321.63)">
        <g transform="matrix(1.41414,0,0,1.41429,-177.055,-770.755)">
            <path d="M653.382,1541.83L653.382,1479.46L591.019,1479.46L591.019,1541.83L653.382,1541.83ZM605.16,1506.19C606.645,1505.34 608.342,1504.85 610.18,1504.85C616.685,1504.85 621.14,1510.43 621.14,1517.93C621.14,1526.13 616.685,1532.64 609.332,1532.64C602.615,1532.64 597.524,1526.77 597.524,1519.49C597.524,1514.46 598.726,1509.44 601.13,1504.07C603.392,1498.91 605.514,1494.67 607.564,1491.13C607.705,1491.06 607.776,1490.85 607.847,1490.71C608.695,1488.94 609.897,1488.87 610.251,1488.87C610.534,1488.87 613.291,1489.01 613.291,1491.2C613.291,1491.84 612.867,1492.69 612.514,1493.11C609.402,1497.35 606.998,1502.23 605.16,1506.19ZM628.847,1513.83C628.564,1514.18 628.281,1514.25 627.857,1514.25C626.584,1514.25 624.958,1512.77 624.958,1510.72C624.958,1510.01 625.241,1508.6 625.453,1507.89L626.655,1494.03C626.655,1493.32 626.726,1492.4 626.726,1491.7C626.726,1490.35 627.645,1490 628.281,1490C628.918,1490 629.695,1490.28 630.332,1490.64L639.312,1490C640.16,1489.93 641.503,1489.86 642.423,1489.65L642.635,1489.65C644.12,1489.65 644.968,1492.12 644.968,1493.11C644.968,1493.89 644.544,1494.88 643.554,1494.95L639.806,1495.16L630.968,1495.8L629.978,1506.4C631.746,1505.13 633.726,1504.42 636.342,1504.42C642.069,1504.42 646.877,1509.44 646.877,1517.79C646.877,1525.5 643.2,1532.64 634.15,1532.64C629.837,1532.64 626.655,1530.16 624.251,1527.05C623.827,1526.56 623.685,1525.85 623.685,1525.14C623.685,1523.8 624.463,1521.25 626.019,1521.25C626.584,1521.25 627.079,1521.68 627.291,1522.17C628.988,1525.14 631.039,1527.4 634.15,1527.4C639.948,1527.4 642.211,1522.95 642.211,1517.86C642.211,1512.49 639.736,1509.52 635.847,1509.52C633.584,1509.52 631.675,1510.65 630.19,1512.34L628.847,1513.83ZM609.332,1527.62C613.291,1527.62 616.402,1523.8 616.402,1518.07C616.402,1513.62 613.928,1509.87 610.11,1509.87C605.301,1509.87 602.19,1514.25 602.19,1519.41C602.19,1524.08 605.089,1527.62 609.332,1527.62Z" style="fill-rule:nonzero;"/>
        </g>
    </g>
</svg>
