<?xml version="1.0" encoding="UTF-8" standalone="no"?>
<!DOCTYPE svg PUBLIC "-//W3C//DTD SVG 1.1//EN" "http://www.w3.org/Graphics/SVG/1.1/DTD/svg11.dtd">
<svg width="100%" height="100%" viewBox="0 0 89 89" version="1.1" xmlns="http://www.w3.org/2000/svg" xmlns:xlink="http://www.w3.org/1999/xlink" xml:space="preserve" xmlns:serif="http://www.serif.com/" style="fill-rule:evenodd;clip-rule:evenodd;stroke-linejoin:round;stroke-miterlimit:2;">
    <g transform="matrix(1,0,0,1,-2502.41,-2042.27)">
        <g transform="matrix(1.41414,0,0,1.41429,-1052.39,-837.704)">
            <path d="M2570.6,2098.71C2573.99,2098.71 2576.12,2096.17 2576.12,2093.2L2576.12,2041.86C2576.12,2038.4 2573.64,2036.35 2570.6,2036.35L2519.27,2036.35C2515.8,2036.35 2513.75,2038.68 2513.75,2041.86L2513.75,2093.2C2513.75,2096.38 2516.23,2098.71 2519.27,2098.71L2570.6,2098.71ZM2548.82,2079.13C2548.33,2080.19 2547.83,2081.46 2547.48,2082.59C2547.12,2084.01 2546.14,2084.64 2545.08,2084.64C2543.94,2084.64 2542.81,2084.01 2542.18,2083.3C2541.33,2082.45 2541.12,2081.32 2540.69,2080.19L2532.98,2059.61C2532.49,2058.34 2531.85,2056.99 2531.14,2055.51C2531,2055.23 2531,2055.01 2531,2054.8C2531,2053.74 2532.35,2052.82 2534.12,2052.82C2535.46,2052.82 2536.8,2053.53 2537.09,2054.45C2537.3,2055.3 2537.79,2056.85 2538.22,2058.05L2544.51,2075.66L2551.79,2057.98C2552.36,2056.71 2552.85,2055.3 2553.28,2053.88C2553.63,2052.68 2554.83,2052.54 2555.4,2052.54C2556.46,2052.54 2559.08,2053.25 2559.08,2055.16C2559.08,2055.3 2559,2055.65 2558.79,2056.01C2558.23,2057.07 2557.38,2058.83 2556.95,2059.82L2548.82,2079.13Z" style="fill-rule:nonzero;"/>
        </g>
    </g>
</svg>
