<?xml version="1.0" encoding="UTF-8" standalone="no"?>
<!DOCTYPE svg PUBLIC "-//W3C//DTD SVG 1.1//EN" "http://www.w3.org/Graphics/SVG/1.1/DTD/svg11.dtd">
<svg width="100%" height="100%" viewBox="0 0 89 89" version="1.1" xmlns="http://www.w3.org/2000/svg" xmlns:xlink="http://www.w3.org/1999/xlink" xml:space="preserve" xmlns:serif="http://www.serif.com/" style="fill-rule:evenodd;clip-rule:evenodd;stroke-linejoin:round;stroke-miterlimit:2;">
    <g transform="matrix(1,0,0,1,-1502.52,-992.274)">
        <g transform="matrix(1.41414,0,0,1.41429,-1052.39,-837.704)">
            <path d="M1863.53,1356.29C1866.92,1356.29 1869.04,1353.74 1869.04,1350.77L1869.04,1299.44C1869.04,1295.97 1866.57,1293.92 1863.53,1293.92L1812.2,1293.92C1808.73,1293.92 1806.68,1296.26 1806.68,1299.44L1806.68,1350.77C1806.68,1353.95 1809.15,1356.29 1812.2,1356.29L1863.53,1356.29ZM1845.14,1306.51C1846.7,1304.6 1848.75,1303.33 1851.15,1303.33C1858.01,1303.33 1861.27,1312.94 1861.27,1324.33C1861.27,1335.92 1857.94,1347.1 1849.95,1347.1C1842.39,1347.1 1839.21,1337.41 1839.21,1325.81C1839.21,1315.63 1842.25,1306.44 1844.58,1306.44C1844.79,1306.44 1845,1306.44 1845.14,1306.51ZM1831.5,1339.32C1831.5,1341.65 1831.71,1343.91 1831.71,1345.26C1831.71,1346.04 1831.08,1346.88 1829.94,1346.88C1828.53,1346.88 1826.69,1345.61 1826.69,1344.2C1826.69,1343.28 1826.83,1340.03 1826.83,1339.18L1826.83,1337.13L1816.93,1337.48C1816.65,1337.48 1816.09,1337.62 1814.95,1337.9L1814.81,1337.9C1813.33,1337.9 1811.77,1336.14 1811.77,1334.23C1811.77,1333.73 1811.84,1333.1 1812.2,1332.46C1813.54,1330.55 1813.75,1329.98 1813.82,1329.91C1817.92,1322 1823.72,1308.91 1825.13,1304.6C1825.42,1303.68 1826.05,1303.54 1826.48,1303.54C1827.82,1303.54 1829.52,1305.8 1829.52,1307.5C1829.52,1307.92 1829.45,1308.35 1829.24,1308.7C1828.67,1309.55 1828.03,1310.82 1827.61,1311.74C1825.07,1317.54 1821.18,1325.81 1817.85,1332.39L1826.83,1332.18L1826.83,1321.29C1826.83,1320.16 1826.69,1316.48 1826.69,1315.14C1826.69,1314.36 1827.33,1313.51 1828.46,1313.51C1829.8,1313.51 1831.57,1314.71 1831.57,1316.2C1831.57,1317.12 1831.5,1319.87 1831.5,1321.29L1831.5,1331.96C1832.35,1331.89 1833.69,1331.61 1834.26,1331.61C1835.88,1331.61 1836.66,1334.23 1836.66,1335.29C1836.66,1335.78 1836.45,1337.13 1835.25,1337.13C1834.61,1337.13 1832.77,1336.98 1831.5,1336.98L1831.5,1339.32ZM1849.81,1341.93C1854.41,1341.93 1856.67,1333.94 1856.67,1323.9C1856.67,1315.56 1854.76,1308.35 1850.94,1308.35C1848.33,1308.35 1843.8,1313.51 1843.8,1325.74C1843.8,1335.43 1845.71,1341.93 1849.81,1341.93Z" style="fill-rule:nonzero;"/>
        </g>
    </g>
</svg>
