<?xml version="1.0" encoding="UTF-8" standalone="no"?>
<!DOCTYPE svg PUBLIC "-//W3C//DTD SVG 1.1//EN" "http://www.w3.org/Graphics/SVG/1.1/DTD/svg11.dtd">
<svg width="100%" height="100%" viewBox="0 0 89 89" version="1.1" xmlns="http://www.w3.org/2000/svg" xmlns:xlink="http://www.w3.org/1999/xlink" xml:space="preserve" xmlns:serif="http://www.serif.com/" style="fill-rule:evenodd;clip-rule:evenodd;stroke-linejoin:round;stroke-miterlimit:2;">
    <g transform="matrix(1,0,0,1,-1802.48,-842.274)">
        <g transform="matrix(1.41414,0,0,1.41429,-1052.39,-837.704)">
            <path d="M2067.59,1216.29C2071.34,1217.28 2074.31,1221.24 2074.31,1226.61C2074.31,1234.32 2070.28,1241.04 2060.66,1241.04C2056.56,1241.04 2053.24,1239.27 2050.41,1236.16C2049.84,1235.52 2049.77,1234.81 2049.77,1234.25C2049.77,1233.12 2050.48,1230.57 2052.18,1230.57C2052.6,1230.57 2053.02,1230.78 2053.45,1231.28C2055.5,1234.11 2057.55,1235.87 2060.66,1235.87C2066.95,1235.87 2069.36,1231.42 2069.36,1226.68C2069.36,1222.72 2066.67,1219.82 2062.57,1219.82C2061.01,1219.82 2059.32,1220.18 2058.68,1220.32C2058.54,1220.39 2058.54,1220.39 2058.4,1220.39C2056.7,1220.39 2055.85,1218.2 2055.85,1217.07C2055.85,1216.29 2056.28,1215.37 2057.27,1215.16C2064.9,1214.52 2067.87,1210.14 2067.87,1207.52C2067.87,1204.41 2066.11,1202.43 2062.64,1202.43C2059.88,1202.43 2057.48,1203.7 2055.07,1206.81C2054.58,1207.45 2054.16,1208.09 2053.31,1208.09C2052.18,1208.09 2050.76,1206.39 2050.76,1204.62C2050.76,1202.36 2055.92,1197.34 2062.57,1197.34C2068.44,1197.34 2072.75,1200.87 2072.75,1207.17C2072.75,1212.61 2069.14,1215.58 2067.59,1216.29ZM2041.36,1216.29C2045.11,1217.28 2048.07,1221.24 2048.07,1226.61C2048.07,1234.32 2044.04,1241.04 2034.36,1241.04C2030.26,1241.04 2027,1239.27 2024.11,1236.16C2023.54,1235.52 2023.54,1234.81 2023.54,1234.25C2023.54,1233.12 2024.25,1230.57 2025.94,1230.57C2026.37,1230.57 2026.72,1230.78 2027.14,1231.28C2029.2,1234.11 2031.25,1235.87 2034.36,1235.87C2040.72,1235.87 2043.12,1231.42 2043.12,1226.68C2043.12,1222.72 2040.37,1219.82 2036.27,1219.82C2035.91,1219.82 2035.56,1219.82 2035.21,1219.89C2034.36,1219.96 2033.3,1220.11 2032.45,1220.32C2032.24,1220.39 2032.24,1220.39 2032.1,1220.39C2030.4,1220.39 2029.55,1218.2 2029.55,1217.07C2029.55,1216.29 2029.97,1215.37 2030.96,1215.16C2036.55,1214.73 2041.57,1211.55 2041.57,1207.52C2041.57,1204.41 2039.8,1202.43 2036.34,1202.43C2033.58,1202.43 2031.25,1203.7 2028.77,1206.81C2028.28,1207.45 2027.85,1208.09 2027,1208.09C2025.73,1208.09 2024.53,1206.18 2024.53,1204.62C2024.53,1203.77 2024.88,1203.14 2025.24,1202.78C2028.07,1199.32 2031.67,1197.34 2036.27,1197.34C2042.21,1197.34 2046.45,1200.87 2046.45,1207.17C2046.45,1212.61 2042.84,1215.58 2041.36,1216.29ZM2075.65,1250.23C2079.04,1250.23 2081.17,1247.68 2081.17,1244.71L2081.17,1193.38C2081.17,1189.91 2078.69,1187.86 2075.65,1187.86L2024.32,1187.86C2020.85,1187.86 2018.8,1190.2 2018.8,1193.38L2018.8,1244.71C2018.8,1247.89 2021.28,1250.23 2024.32,1250.23L2075.65,1250.23Z" style="fill-rule:nonzero;"/>
        </g>
    </g>
</svg>
