<?xml version="1.0" encoding="UTF-8" standalone="no"?>
<!DOCTYPE svg PUBLIC "-//W3C//DTD SVG 1.1//EN" "http://www.w3.org/Graphics/SVG/1.1/DTD/svg11.dtd">
<svg width="100%" height="100%" viewBox="0 0 96 96" version="1.1" xmlns="http://www.w3.org/2000/svg" xmlns:xlink="http://www.w3.org/1999/xlink" xml:space="preserve" xmlns:serif="http://www.serif.com/" style="fill-rule:evenodd;clip-rule:evenodd;stroke-linejoin:round;stroke-miterlimit:2;">
    <g transform="matrix(1,0,0,1,-609.628,-3773.28)">
        <g transform="matrix(1,0,0,1,-110.019,-3591.86)">
            <path d="M815.248,7412.94C815.248,7386.55 793.848,7365.15 767.448,7365.15C741.048,7365.15 719.648,7386.55 719.648,7412.94C719.648,7439.35 741.048,7460.65 767.448,7460.65C793.848,7460.65 815.248,7439.35 815.248,7412.94ZM769.348,7433.24C769.348,7436.74 769.548,7440.24 769.548,7442.24C769.548,7444.24 767.448,7444.55 766.748,7444.55C765.248,7444.55 761.548,7443.55 761.548,7440.74C761.548,7439.35 761.748,7435.24 761.748,7432.35L761.648,7407.05C759.148,7407.15 756.248,7407.35 756.248,7407.35L756.148,7407.35C753.448,7407.35 751.948,7404.35 751.948,7402.74C751.948,7401.55 752.848,7400.35 754.348,7400.35L761.748,7400.35L761.748,7392.15C761.748,7384.74 766.948,7380.65 772.648,7380.65C775.948,7380.65 779.848,7381.74 782.748,7385.05C783.148,7385.65 783.348,7386.44 783.348,7387.15C783.348,7388.74 782.148,7392.15 779.648,7392.15C778.548,7392.15 777.748,7391.55 777.148,7390.44C776.148,7388.65 774.148,7388.05 772.548,7388.05C771.148,7388.05 769.348,7389.15 769.348,7392.05L769.348,7400.05L770.148,7400.05C772.248,7399.94 776.448,7399.55 777.648,7399.55C780.248,7399.55 781.748,7402.55 781.748,7404.15C781.748,7405.35 780.948,7406.65 779.348,7406.65L771.248,7406.65L769.348,7406.74L769.348,7433.24Z" style="fill-rule:nonzero;"/>
        </g>
    </g>
</svg>
