<?xml version="1.0" encoding="UTF-8" standalone="no"?>
<!DOCTYPE svg PUBLIC "-//W3C//DTD SVG 1.1//EN" "http://www.w3.org/Graphics/SVG/1.1/DTD/svg11.dtd">
<svg width="100%" height="100%" viewBox="0 0 89 89" version="1.1" xmlns="http://www.w3.org/2000/svg" xmlns:xlink="http://www.w3.org/1999/xlink" xml:space="preserve" xmlns:serif="http://www.serif.com/" style="fill-rule:evenodd;clip-rule:evenodd;stroke-linejoin:round;stroke-miterlimit:2;">
    <g transform="matrix(1,0,0,1,-2402.42,-692.274)">
        <g transform="matrix(1.41414,0,0,1.41429,-1052.39,-837.704)">
            <path d="M2499.89,1144.17C2503.29,1144.17 2505.41,1141.62 2505.41,1138.65L2505.41,1087.32C2505.41,1083.85 2502.93,1081.8 2499.89,1081.8L2448.56,1081.8C2445.1,1081.8 2443.04,1084.14 2443.04,1087.32L2443.04,1138.65C2443.04,1141.83 2445.52,1144.17 2448.56,1144.17L2499.89,1144.17ZM2500.81,1096.23C2500.6,1097.15 2500.25,1098.14 2500.18,1098.42C2498.05,1108.11 2495.09,1125.01 2494.45,1132.5C2494.31,1134.27 2492.47,1134.69 2491.27,1134.69C2490.07,1134.69 2489.14,1134.06 2489.14,1132.71C2489.14,1132.29 2489.92,1128.33 2490.28,1126.7C2490.77,1123.38 2491.55,1119.21 2492.26,1115.18C2489.92,1117.51 2486.88,1119 2483.91,1119C2478.47,1119 2474.79,1114.68 2474.79,1107.68C2474.79,1099.55 2480.52,1091.28 2488.3,1091.28C2492.04,1091.28 2494.52,1092.97 2495.93,1094.6C2496.08,1093.89 2496.5,1092.9 2497.7,1092.9C2499.26,1092.9 2500.81,1094.25 2500.81,1095.87L2500.81,1096.23ZM2451.53,1134.27C2449.76,1134.27 2448.7,1132.15 2448.7,1130.73C2448.7,1130.31 2448.77,1129.74 2449.12,1129.25L2450.12,1127.69C2452.1,1123.52 2455.84,1117.3 2460.3,1112.7C2464.61,1108.32 2466.94,1105.07 2466.94,1101.81C2466.94,1098.84 2465.11,1096.37 2461.71,1096.37C2458.11,1096.37 2455.63,1098.7 2454.64,1101.74C2454.36,1102.52 2453.72,1103.79 2452.45,1103.79C2451.46,1103.79 2449.55,1102.17 2449.55,1100.4C2449.55,1099.97 2449.62,1099.34 2449.97,1098.84C2452.24,1094.39 2456.2,1091.28 2461.85,1091.28C2468.14,1091.28 2472.18,1095.66 2472.18,1101.81C2472.18,1107.54 2468.43,1111.92 2463.62,1116.66C2459.8,1120.41 2456.97,1125.08 2455.14,1128.75C2456.83,1128.61 2458.81,1128.54 2460.3,1128.54C2462.84,1128.54 2464.54,1128.61 2466.73,1128.61C2467.58,1128.61 2469.35,1128.54 2469.98,1128.54C2471.75,1128.54 2472.6,1131.09 2472.6,1132.15C2472.6,1133 2472.11,1133.98 2470.97,1133.98C2466.52,1133.56 2461.71,1133.56 2459.8,1133.56C2458.03,1133.56 2456.27,1133.56 2454.14,1133.84C2453.65,1133.84 2452.24,1134.2 2451.88,1134.27L2451.53,1134.27ZM2494.73,1101.32C2494.24,1101.11 2493.88,1100.54 2493.67,1100.12C2493.03,1098.63 2491.76,1096.37 2488.58,1096.37C2483.07,1096.37 2479.74,1102.59 2479.74,1107.47C2479.74,1112.07 2481.23,1113.76 2483.84,1113.76C2490.7,1113.76 2493.67,1105.14 2494.59,1102.31L2494.73,1101.32Z" style="fill-rule:nonzero;"/>
        </g>
    </g>
</svg>
