<?xml version="1.0" encoding="UTF-8" standalone="no"?>
<!DOCTYPE svg PUBLIC "-//W3C//DTD SVG 1.1//EN" "http://www.w3.org/Graphics/SVG/1.1/DTD/svg11.dtd">
<svg width="100%" height="100%" viewBox="0 0 89 89" version="1.1" xmlns="http://www.w3.org/2000/svg" xmlns:xlink="http://www.w3.org/1999/xlink" xml:space="preserve" xmlns:serif="http://www.serif.com/" style="fill-rule:evenodd;clip-rule:evenodd;stroke-linejoin:round;stroke-miterlimit:2;">
    <g transform="matrix(1,0,0,1,-958.698,-1321.63)">
        <g transform="matrix(1.41414,0,0,1.41429,-177.055,-770.755)">
            <path d="M865.503,1541.83L865.503,1479.46L803.14,1479.46L803.14,1541.83L865.503,1541.83ZM857.443,1495.3C858.433,1495.3 859.211,1496.22 859.211,1497.42C859.211,1499.9 853.13,1505.98 851.221,1507.46C856.594,1510.43 859.423,1514.25 859.423,1520.05C859.423,1527.76 854.261,1532.64 846.978,1532.64C840.19,1532.64 836.019,1527.55 836.019,1520.83C836.019,1515.67 838.493,1511.78 842.453,1508.38C838.776,1505.98 837.574,1503.36 837.574,1499.55C837.574,1493.89 841.463,1489.01 847.827,1489.01C851.998,1489.01 854.968,1491.84 857.019,1495.09C857.019,1495.16 857.089,1495.23 857.089,1495.3L857.443,1495.3ZM817.069,1506.19C818.554,1505.34 820.18,1504.85 822.089,1504.85C828.594,1504.85 832.978,1510.43 832.978,1517.93C832.978,1526.13 828.594,1532.64 821.241,1532.64C814.524,1532.64 809.433,1526.77 809.433,1519.49C809.433,1514.46 810.635,1509.44 813.039,1504.07C815.301,1498.91 817.423,1494.67 819.473,1491.13C819.615,1491.06 819.685,1490.85 819.756,1490.71C819.897,1490.42 820.039,1490.21 820.18,1490.07C820.675,1489.15 821.524,1488.87 822.16,1488.87C822.443,1488.87 825.2,1489.01 825.2,1491.2C825.2,1491.84 824.776,1492.69 824.423,1493.11C821.312,1497.35 818.908,1502.23 817.069,1506.19ZM821.241,1527.62C825.2,1527.62 828.312,1523.8 828.312,1518.07C828.312,1513.62 825.837,1509.87 822.019,1509.87C817.211,1509.87 814.099,1514.25 814.099,1519.41C814.099,1524.08 816.998,1527.62 821.241,1527.62ZM846.978,1510.86C842.736,1514.32 840.685,1517.29 840.685,1520.69C840.685,1524.08 842.524,1527.48 846.978,1527.48C851.716,1527.48 854.756,1524.43 854.756,1520.33C854.756,1516.8 853.342,1514.04 847.685,1511.21L846.978,1510.86ZM853.059,1498.06C851.716,1495.44 850.301,1494.03 847.897,1494.03C843.938,1494.03 842.17,1496.86 842.17,1499.55C842.17,1501.74 842.948,1503.01 846.695,1505.06C849.241,1503.15 851.503,1500.89 853.483,1498.7L853.059,1498.06Z" style="fill-rule:nonzero;"/>
        </g>
    </g>
</svg>
