<?xml version="1.0" encoding="UTF-8" standalone="no"?>
<!DOCTYPE svg PUBLIC "-//W3C//DTD SVG 1.1//EN" "http://www.w3.org/Graphics/SVG/1.1/DTD/svg11.dtd">
<svg width="100%" height="100%" viewBox="0 0 96 96" version="1.1" xmlns="http://www.w3.org/2000/svg" xmlns:xlink="http://www.w3.org/1999/xlink" xml:space="preserve" xmlns:serif="http://www.serif.com/" style="fill-rule:evenodd;clip-rule:evenodd;stroke-linejoin:round;stroke-miterlimit:2;">
    <g transform="matrix(1,0,0,1,-1809.63,-3173.28)">
        <g transform="matrix(1,0,0,1,-110.019,-3591.86)">
            <path d="M2015.25,6812.94C2015.25,6786.55 1993.85,6765.15 1967.45,6765.15C1941.05,6765.15 1919.65,6786.55 1919.65,6812.94C1919.65,6839.35 1941.05,6860.65 1967.45,6860.65C1993.85,6860.65 2015.25,6839.35 2015.25,6812.94ZM1955.25,6808.94C1960.15,6810.44 1964.15,6815.85 1964.15,6823.35C1964.15,6834.05 1958.75,6843.35 1946.05,6843.35C1940.65,6843.35 1936.35,6840.85 1932.55,6836.55C1931.85,6835.74 1931.75,6834.74 1931.75,6833.94C1931.75,6832.35 1932.75,6828.85 1934.95,6828.85C1935.55,6828.85 1936.05,6829.15 1936.55,6829.85C1939.35,6833.74 1941.95,6836.15 1946.05,6836.15C1954.45,6836.15 1957.55,6830.05 1957.55,6823.44C1957.55,6817.94 1953.95,6813.94 1948.65,6813.94C1948.15,6813.94 1947.65,6813.94 1947.15,6814.05C1946.05,6814.15 1944.75,6814.35 1943.55,6814.65C1943.35,6814.74 1943.25,6814.74 1943.05,6814.74C1940.85,6814.74 1939.75,6811.65 1939.75,6810.15C1939.75,6809.05 1940.35,6807.74 1941.55,6807.44C1946.95,6807.05 1955.55,6803.65 1955.55,6796.85C1955.55,6792.55 1953.25,6789.85 1948.65,6789.85C1945.05,6789.85 1941.95,6791.65 1938.75,6795.85C1938.05,6796.74 1937.55,6797.65 1936.35,6797.65C1935.45,6797.65 1933.15,6795.94 1933.15,6792.85C1933.15,6789.85 1939.75,6782.74 1948.65,6782.74C1956.35,6782.74 1962.05,6787.74 1962.05,6796.35C1962.05,6803.94 1957.25,6808.05 1955.25,6808.94ZM1989.95,6808.44C1997.45,6812.55 2001.35,6817.85 2001.35,6825.85C2001.35,6836.65 1994.25,6843.35 1984.05,6843.35C1974.75,6843.35 1968.95,6836.24 1968.95,6826.94C1968.95,6819.85 1972.35,6814.35 1977.85,6809.74C1972.75,6806.35 1971.05,6802.74 1971.05,6797.44C1971.05,6789.55 1976.45,6782.85 1985.25,6782.85C1991.05,6782.85 1995.15,6786.74 1997.95,6791.35C1998.05,6791.44 1998.05,6791.55 1998.05,6791.65C1998.25,6791.65 1998.45,6791.55 1998.55,6791.55C1999.95,6791.55 2000.95,6792.94 2000.95,6794.55C2000.95,6798.55 1991.15,6807.55 1989.95,6808.44ZM1993.15,6796.24C1992.95,6795.94 1992.75,6795.74 1992.55,6795.35C1990.65,6791.74 1988.65,6789.85 1985.35,6789.85C1979.85,6789.85 1977.45,6793.74 1977.45,6797.44C1977.45,6800.55 1978.45,6802.24 1983.75,6805.15C1987.25,6802.44 1990.35,6799.35 1993.15,6796.24ZM1984.05,6813.15C1978.25,6817.94 1975.35,6822.05 1975.35,6826.74C1975.35,6831.44 1977.85,6836.15 1984.05,6836.15C1990.65,6836.15 1994.85,6831.94 1994.85,6826.24C1994.85,6821.35 1992.85,6817.55 1985.05,6813.65C1984.75,6813.44 1984.45,6813.24 1984.05,6813.15Z" style="fill-rule:nonzero;"/>
        </g>
    </g>
</svg>
