<?xml version="1.0" encoding="UTF-8" standalone="no"?>
<!DOCTYPE svg PUBLIC "-//W3C//DTD SVG 1.1//EN" "http://www.w3.org/Graphics/SVG/1.1/DTD/svg11.dtd">
<svg width="100%" height="100%" viewBox="0 0 89 89" version="1.1" xmlns="http://www.w3.org/2000/svg" xmlns:xlink="http://www.w3.org/1999/xlink" xml:space="preserve" xmlns:serif="http://www.serif.com/" style="fill-rule:evenodd;clip-rule:evenodd;stroke-linejoin:round;stroke-miterlimit:2;">
    <g transform="matrix(1,0,0,1,-958.698,-721.632)">
        <g transform="matrix(1.41414,0,0,1.41429,-177.055,-770.755)">
            <path d="M865.503,1117.59L865.503,1055.22L803.14,1055.22L803.14,1117.59L865.503,1117.59ZM857.726,1071.06C858.857,1071.06 859.635,1071.98 859.635,1073.18C859.635,1075.94 852.281,1082.44 851.221,1083.22C856.877,1086.19 859.847,1090.01 859.847,1095.81C859.847,1103.52 854.402,1108.39 846.695,1108.39C839.625,1108.39 835.17,1103.3 835.17,1096.59C835.17,1091.42 837.786,1087.54 841.958,1084.14C838.069,1081.74 836.796,1079.12 836.796,1075.3C836.796,1069.65 840.897,1064.77 847.615,1064.77C852.069,1064.77 855.18,1067.6 857.301,1070.85C857.372,1070.92 857.372,1070.99 857.372,1071.06L857.726,1071.06ZM811.2,1107.69C809.503,1107.69 808.443,1105.57 808.443,1104.15C808.443,1103.73 808.443,1103.16 808.796,1102.67C809.291,1102.03 809.574,1101.61 809.786,1101.11C811.837,1096.94 815.514,1090.72 819.968,1086.12C824.352,1081.74 826.685,1078.49 826.685,1075.23C826.685,1072.26 824.776,1069.79 821.453,1069.79C817.847,1069.79 815.372,1072.12 814.312,1075.16C814.099,1075.94 813.463,1077.21 812.19,1077.21C811.2,1077.21 809.291,1075.73 809.291,1073.82C809.291,1073.39 809.362,1072.76 809.716,1072.26C811.908,1067.81 815.867,1064.7 821.594,1064.7C827.817,1064.7 831.918,1069.08 831.918,1075.23C831.918,1080.96 828.17,1085.34 823.362,1090.08C819.544,1093.83 816.716,1098.5 814.877,1102.17C816.574,1102.03 818.554,1101.96 820.039,1101.96C822.584,1101.96 824.281,1102.03 826.402,1102.03C827.251,1102.03 829.019,1101.96 829.726,1101.96C831.423,1101.96 832.342,1104.51 832.342,1105.57C832.342,1106.41 831.847,1107.4 830.645,1107.4C829.16,1107.26 825.625,1106.98 819.473,1106.98C817.705,1106.98 815.938,1106.98 813.887,1107.26C813.534,1107.26 812.685,1107.4 811.554,1107.69L811.2,1107.69ZM846.695,1086.62C842.312,1090.08 840.12,1093.05 840.12,1096.44C840.12,1099.84 842.029,1103.23 846.695,1103.23C851.716,1103.23 854.968,1100.19 854.968,1096.09C854.968,1092.56 853.413,1089.8 847.473,1086.97C847.261,1086.83 846.978,1086.69 846.695,1086.62ZM853.625,1074.45C853.413,1074.24 853.271,1074.03 853.2,1073.82C851.716,1071.2 850.231,1069.79 847.685,1069.79C843.514,1069.79 841.675,1072.62 841.675,1075.3C841.675,1077.5 842.453,1078.77 846.483,1080.82C849.099,1078.91 851.503,1076.65 853.625,1074.45Z" style="fill-rule:nonzero;"/>
        </g>
    </g>
</svg>
