<?xml version="1.0" encoding="UTF-8" standalone="no"?>
<!DOCTYPE svg PUBLIC "-//W3C//DTD SVG 1.1//EN" "http://www.w3.org/Graphics/SVG/1.1/DTD/svg11.dtd">
<svg width="100%" height="100%" viewBox="0 0 89 89" version="1.1" xmlns="http://www.w3.org/2000/svg" xmlns:xlink="http://www.w3.org/1999/xlink" xml:space="preserve" xmlns:serif="http://www.serif.com/" style="fill-rule:evenodd;clip-rule:evenodd;stroke-linejoin:round;stroke-miterlimit:2;">
    <g transform="matrix(1,0,0,1,-2102.45,-1142.27)">
        <g transform="matrix(1.41414,0,0,1.41429,-1052.39,-837.704)">
            <path d="M2287.77,1462.35C2291.17,1462.35 2293.29,1459.8 2293.29,1456.83L2293.29,1405.5C2293.29,1402.04 2290.81,1399.98 2287.77,1399.98L2236.44,1399.98C2232.97,1399.98 2230.92,1402.32 2230.92,1405.5L2230.92,1456.83C2230.92,1460.02 2233.4,1462.35 2236.44,1462.35L2287.77,1462.35ZM2274.69,1411.23C2274.83,1410.94 2274.97,1410.73 2275.12,1410.59C2275.61,1409.67 2276.46,1409.39 2277.24,1409.39C2277.38,1409.39 2280.42,1409.6 2280.42,1411.72C2280.42,1412.36 2279.92,1413.21 2279.64,1413.63C2276.32,1417.87 2273.77,1422.75 2271.86,1426.71C2273.35,1425.86 2275.12,1425.37 2277.1,1425.37C2283.95,1425.37 2288.62,1430.95 2288.62,1438.45C2288.62,1446.65 2283.95,1453.16 2276.18,1453.16C2269.18,1453.16 2263.8,1447.29 2263.8,1440.01C2263.8,1434.98 2265.08,1429.96 2267.62,1424.59C2270.02,1419.43 2272.22,1415.19 2274.41,1411.65L2274.69,1411.23ZM2243.37,1426.92C2245.21,1425.65 2247.33,1424.94 2250.09,1424.94C2256.1,1424.94 2261.19,1429.96 2261.19,1438.31C2261.19,1446.02 2257.3,1453.16 2247.82,1453.16C2242.31,1453.16 2236.72,1448.42 2236.72,1445.66C2236.72,1444.32 2237.57,1441.77 2239.2,1441.77C2239.83,1441.77 2240.26,1442.2 2240.54,1442.69C2242.31,1445.66 2244.5,1447.92 2247.82,1447.92C2253.9,1447.92 2256.24,1443.47 2256.24,1438.38C2256.24,1433.01 2253.62,1430.04 2249.59,1430.04C2247.19,1430.04 2245.21,1431.17 2243.65,1432.86C2243.37,1433.15 2242.73,1433.85 2242.17,1434.35C2241.88,1434.7 2241.6,1434.77 2241.11,1434.77C2239.83,1434.77 2238.07,1433.29 2238.07,1431.24C2238.07,1431.03 2238.07,1430.67 2238.14,1430.32C2238.35,1429.61 2238.49,1428.9 2238.56,1428.41L2239.83,1414.55C2239.9,1413.84 2239.97,1412.92 2239.97,1412.22C2239.97,1410.87 2240.96,1410.52 2241.6,1410.52C2242.31,1410.52 2243.09,1410.8 2243.79,1411.16L2253.2,1410.52C2254.12,1410.45 2255.53,1410.38 2256.45,1410.17L2256.73,1410.17C2258.29,1410.17 2259.14,1412.64 2259.14,1413.63C2259.14,1414.41 2258.71,1415.4 2257.65,1415.47L2253.69,1415.68L2244.43,1416.32L2243.37,1426.92ZM2276.18,1448.14C2280.42,1448.14 2283.67,1444.32 2283.67,1438.59C2283.67,1434.14 2281.05,1430.39 2277.02,1430.39C2272,1430.39 2268.68,1434.77 2268.68,1439.93C2268.68,1444.6 2271.79,1448.14 2276.18,1448.14Z" style="fill-rule:nonzero;"/>
        </g>
    </g>
</svg>
