<?xml version="1.0" encoding="UTF-8" standalone="no"?>
<!DOCTYPE svg PUBLIC "-//W3C//DTD SVG 1.1//EN" "http://www.w3.org/Graphics/SVG/1.1/DTD/svg11.dtd">
<svg width="100%" height="100%" viewBox="0 0 89 89" version="1.1" xmlns="http://www.w3.org/2000/svg" xmlns:xlink="http://www.w3.org/1999/xlink" xml:space="preserve" xmlns:serif="http://www.serif.com/" style="fill-rule:evenodd;clip-rule:evenodd;stroke-linejoin:round;stroke-miterlimit:2;">
    <g transform="matrix(1,0,0,1,-2102.45,-2042.27)">
        <g transform="matrix(1.41414,0,0,1.41429,-1052.39,-837.704)">
            <path d="M2287.77,2098.71C2291.17,2098.71 2293.29,2096.17 2293.29,2093.2L2293.29,2041.86C2293.29,2038.4 2290.81,2036.35 2287.77,2036.35L2236.44,2036.35C2232.97,2036.35 2230.92,2038.68 2230.92,2041.86L2230.92,2093.2C2230.92,2096.38 2233.4,2098.71 2236.44,2098.71L2287.77,2098.71ZM2259.14,2055.79C2261.19,2053.81 2264.16,2052.4 2267.48,2052.4C2269.74,2052.4 2272.99,2053.39 2274.9,2055.58C2275.19,2056.01 2275.33,2056.57 2275.33,2056.99C2275.33,2058.2 2274.41,2060.74 2272.57,2060.74C2271.72,2060.74 2271.16,2060.11 2270.87,2059.54C2270.31,2058.48 2268.4,2057.84 2267.34,2057.84C2264.37,2057.84 2261.26,2059.54 2259.91,2063.85C2259.14,2066.47 2258.99,2071.49 2258.99,2076.16C2258.99,2078.63 2259.21,2081.18 2259.21,2082.52C2259.21,2083.93 2257.72,2084.15 2257.23,2084.15C2255.67,2084.15 2253.48,2082.8 2253.48,2081.46C2253.48,2080.47 2253.62,2077.01 2253.62,2076.16L2253.62,2060.46C2253.62,2059.33 2253.48,2055.44 2253.48,2054.03C2253.48,2052.68 2254.82,2052.4 2255.46,2052.4C2256.52,2052.4 2259.14,2053.11 2259.14,2055.16L2259.14,2055.79Z" style="fill-rule:nonzero;"/>
        </g>
    </g>
</svg>
