<?xml version="1.0" encoding="UTF-8" standalone="no"?>
<!DOCTYPE svg PUBLIC "-//W3C//DTD SVG 1.1//EN" "http://www.w3.org/Graphics/SVG/1.1/DTD/svg11.dtd">
<svg width="100%" height="100%" viewBox="0 0 89 89" version="1.1" xmlns="http://www.w3.org/2000/svg" xmlns:xlink="http://www.w3.org/1999/xlink" xml:space="preserve" xmlns:serif="http://www.serif.com/" style="fill-rule:evenodd;clip-rule:evenodd;stroke-linejoin:round;stroke-miterlimit:2;">
    <g transform="matrix(1,0,0,1,-1802.48,-392.274)">
        <g transform="matrix(1.41414,0,0,1.41429,-1052.39,-837.704)">
            <path d="M2075.65,932.045C2079.04,932.045 2081.17,929.5 2081.17,926.53L2081.17,875.197C2081.17,871.732 2078.69,869.681 2075.65,869.681L2024.32,869.681C2020.85,869.681 2018.8,872.015 2018.8,875.197L2018.8,926.53C2018.8,929.712 2021.28,932.045 2024.32,932.045L2075.65,932.045ZM2068.79,898.389C2072.54,899.378 2075.58,903.338 2075.58,908.712C2075.58,916.419 2071.48,923.136 2061.86,923.136C2057.69,923.136 2054.44,921.368 2051.54,918.257C2050.97,917.621 2050.9,916.914 2050.9,916.348C2050.9,915.217 2051.68,912.671 2053.31,912.671C2053.73,912.671 2054.16,912.883 2054.58,913.378C2056.63,916.207 2058.68,917.974 2061.86,917.974C2068.16,917.974 2070.56,913.52 2070.56,908.782C2070.56,904.823 2067.8,901.924 2063.77,901.924C2062.22,901.924 2060.52,902.277 2059.88,902.419C2059.74,902.49 2059.67,902.49 2059.53,902.49C2057.83,902.49 2056.98,900.298 2056.98,899.166C2056.98,898.389 2057.41,897.469 2058.4,897.257C2063.98,896.833 2069.07,893.58 2069.07,889.621C2069.07,886.51 2067.24,884.53 2063.77,884.53C2061.01,884.53 2058.68,885.803 2056.21,888.914C2055.71,889.55 2055.29,890.186 2054.44,890.186C2053.31,890.186 2051.96,888.631 2051.96,886.722C2051.96,885.873 2052.32,885.237 2052.67,884.883C2055.5,881.419 2059.11,879.439 2063.77,879.439C2069.64,879.439 2073.95,882.974 2073.95,889.267C2073.95,894.712 2070.35,897.681 2068.79,898.389ZM2031.25,882.692C2032.87,880.782 2035.13,879.51 2037.75,879.51C2045.32,879.51 2048.78,889.126 2048.78,900.51C2048.78,912.106 2045.18,923.277 2036.55,923.277C2028.21,923.277 2024.74,913.52 2024.74,901.995C2024.74,892.378 2027.92,882.621 2030.68,882.621C2030.89,882.621 2031.03,882.621 2031.25,882.692ZM2036.34,918.116C2041.29,918.116 2043.76,910.126 2043.76,900.085C2043.76,892.803 2042.49,884.53 2037.54,884.53C2034.71,884.53 2029.83,889.621 2029.83,901.924C2029.83,911.611 2031.81,918.116 2036.34,918.116Z" style="fill-rule:nonzero;"/>
        </g>
    </g>
</svg>
