<?xml version="1.0" encoding="UTF-8" standalone="no"?>
<!DOCTYPE svg PUBLIC "-//W3C//DTD SVG 1.1//EN" "http://www.w3.org/Graphics/SVG/1.1/DTD/svg11.dtd">
<svg width="100%" height="100%" viewBox="0 0 89 89" version="1.1" xmlns="http://www.w3.org/2000/svg" xmlns:xlink="http://www.w3.org/1999/xlink" xml:space="preserve" xmlns:serif="http://www.serif.com/" style="fill-rule:evenodd;clip-rule:evenodd;stroke-linejoin:round;stroke-miterlimit:2;">
    <g transform="matrix(1,0,0,1,-2302.43,-2042.27)">
        <g transform="matrix(1.41414,0,0,1.41429,-1052.39,-837.704)">
            <path d="M2429.19,2098.71C2432.58,2098.71 2434.7,2096.17 2434.7,2093.2L2434.7,2041.86C2434.7,2038.4 2432.23,2036.35 2429.19,2036.35L2377.85,2036.35C2374.39,2036.35 2372.34,2038.68 2372.34,2041.86L2372.34,2093.2C2372.34,2096.38 2374.81,2098.71 2377.85,2098.71L2429.19,2098.71ZM2404.09,2080.33C2404.09,2082.73 2404.09,2083.44 2405.36,2083.44C2406.7,2083.44 2408.54,2082.52 2410.66,2080.89C2411.3,2080.4 2412.08,2079.97 2412.78,2079.97C2413.84,2079.97 2414.34,2080.75 2414.34,2081.53C2414.34,2083.58 2409.32,2088.81 2405.08,2088.81C2399.98,2088.81 2398.78,2085.35 2398.78,2080.19L2398.78,2061.94L2395.81,2062.16L2395.67,2062.16C2393.83,2062.16 2392.77,2060.03 2392.77,2058.9C2392.77,2058.05 2393.41,2057.21 2394.47,2057.21L2398.78,2057.21L2398.78,2055.09C2398.78,2053.95 2398.64,2050.07 2398.64,2048.65C2398.64,2047.31 2399.98,2047.03 2400.62,2047.03C2401.61,2047.03 2404.23,2047.73 2404.23,2049.71C2404.23,2050.7 2404.09,2053.67 2404.09,2055.09L2404.09,2056.99L2404.79,2056.99C2406.28,2056.92 2408.68,2056.64 2409.53,2056.64C2411.37,2056.64 2412.36,2058.69 2412.36,2059.82C2412.36,2060.67 2411.79,2061.59 2410.66,2061.59C2409.81,2061.59 2407.12,2061.59 2405.57,2061.66L2404.09,2061.73L2404.09,2080.33Z" style="fill-rule:nonzero;"/>
        </g>
    </g>
</svg>
