<?xml version="1.0" encoding="UTF-8" standalone="no"?>
<!DOCTYPE svg PUBLIC "-//W3C//DTD SVG 1.1//EN" "http://www.w3.org/Graphics/SVG/1.1/DTD/svg11.dtd">
<svg width="100%" height="100%" viewBox="0 0 96 96" version="1.1" xmlns="http://www.w3.org/2000/svg" xmlns:xlink="http://www.w3.org/1999/xlink" xml:space="preserve" xmlns:serif="http://www.serif.com/" style="fill-rule:evenodd;clip-rule:evenodd;stroke-linejoin:round;stroke-miterlimit:2;">
    <g transform="matrix(1,0,0,1,-309.628,-3173.28)">
        <g transform="matrix(1,0,0,1,-110.019,-3591.86)">
            <path d="M515.248,6812.94C515.248,6786.55 493.848,6765.15 467.448,6765.15C441.048,6765.15 419.648,6786.55 419.648,6812.94C419.648,6839.35 441.048,6860.65 467.448,6860.65C493.848,6860.65 515.248,6839.35 515.248,6812.94ZM434.648,6842.35C432.248,6842.35 430.748,6839.35 430.748,6837.44C430.748,6836.85 430.848,6836.05 431.348,6835.35C431.948,6834.44 432.348,6833.94 432.648,6833.24C435.548,6827.44 440.648,6818.85 446.848,6812.44C452.848,6806.35 456.048,6801.85 456.048,6797.35C456.048,6793.24 453.448,6789.85 448.848,6789.85C443.848,6789.85 440.348,6793.05 438.948,6797.24C438.648,6798.35 437.748,6800.15 435.948,6800.15C434.848,6800.15 431.948,6798.05 431.948,6795.44C431.948,6794.74 432.048,6793.94 432.548,6793.24C435.648,6787.15 441.148,6782.74 449.048,6782.74C457.648,6782.74 463.348,6788.85 463.348,6797.35C463.348,6805.35 458.148,6811.35 451.448,6817.94C446.148,6823.15 442.248,6829.65 439.648,6834.65C442.048,6834.55 444.848,6834.44 446.848,6834.44C450.448,6834.44 452.748,6834.55 455.748,6834.55C456.948,6834.55 459.348,6834.44 460.248,6834.44C462.648,6834.44 463.948,6837.94 463.948,6839.44C463.948,6840.55 463.248,6841.94 461.648,6841.94C457.648,6841.55 451.948,6841.35 446.148,6841.35C443.648,6841.35 441.248,6841.35 438.348,6841.74C437.648,6841.74 435.648,6842.24 435.148,6842.35L434.648,6842.35ZM492.448,6808.94C497.648,6810.44 501.848,6815.85 501.848,6823.35C501.848,6834.05 496.148,6843.35 482.848,6843.35C477.148,6843.35 472.548,6840.85 468.548,6836.55C467.748,6835.74 467.648,6834.74 467.648,6833.94C467.648,6832.35 468.648,6828.85 471.048,6828.85C471.648,6828.85 472.148,6829.15 472.748,6829.85C475.648,6833.74 478.448,6836.15 482.848,6836.15C491.548,6836.15 494.948,6830.05 494.948,6823.44C494.948,6817.94 491.148,6813.94 485.448,6813.94C484.948,6813.94 484.448,6813.94 483.948,6814.05C482.748,6814.15 481.348,6814.35 480.048,6814.65C479.848,6814.74 479.848,6814.74 479.648,6814.74C477.248,6814.74 476.048,6811.65 476.048,6810.15C476.048,6809.05 476.648,6807.74 478.048,6807.44C483.648,6807.05 492.848,6803.65 492.848,6796.85C492.848,6792.55 490.348,6789.85 485.548,6789.85C481.648,6789.85 478.448,6791.65 475.048,6795.85C474.348,6796.74 473.748,6797.65 472.548,6797.65C471.148,6797.65 469.048,6795.44 469.048,6792.85C469.048,6791.65 469.648,6790.85 470.048,6790.24C474.048,6785.55 479.048,6782.74 485.448,6782.74C493.648,6782.74 499.648,6787.74 499.648,6796.35C499.648,6803.94 494.548,6808.05 492.448,6808.94Z" style="fill-rule:nonzero;"/>
        </g>
    </g>
</svg>
