<?xml version="1.0" encoding="UTF-8" standalone="no"?>
<!DOCTYPE svg PUBLIC "-//W3C//DTD SVG 1.1//EN" "http://www.w3.org/Graphics/SVG/1.1/DTD/svg11.dtd">
<svg width="100%" height="100%" viewBox="0 0 96 96" version="1.1" xmlns="http://www.w3.org/2000/svg" xmlns:xlink="http://www.w3.org/1999/xlink" xml:space="preserve" xmlns:serif="http://www.serif.com/" style="fill-rule:evenodd;clip-rule:evenodd;stroke-linejoin:round;stroke-miterlimit:2;">
    <g transform="matrix(1,0,0,1,-809.628,-3473.28)">
        <g transform="matrix(1,0,0,1,-110.019,-3591.86)">
            <path d="M1015.25,7112.94C1015.25,7086.55 993.848,7065.15 967.448,7065.15C941.048,7065.15 919.648,7086.55 919.648,7112.94C919.648,7139.35 941.048,7160.65 967.448,7160.65C993.848,7160.65 1015.25,7139.35 1015.25,7112.94ZM999.048,7091.65C999.148,7091.65 999.348,7091.55 999.448,7091.55C1000.95,7091.55 1001.95,7092.94 1001.95,7094.55C1001.95,7098.44 991.648,7107.85 990.848,7108.44C998.348,7112.55 1002.25,7117.85 1002.25,7125.85C1002.25,7136.65 995.148,7143.35 984.948,7143.35C975.648,7143.35 969.848,7136.24 969.848,7126.94C969.848,7119.85 973.248,7114.35 978.748,7109.74C973.648,7106.35 971.948,7102.74 971.948,7097.44C971.948,7089.55 977.348,7082.85 986.148,7082.85C991.948,7082.85 996.048,7086.74 998.848,7091.35L999.048,7091.65ZM943.548,7106.74C945.548,7105.44 947.848,7104.85 950.448,7104.85C959.448,7104.85 965.648,7112.55 965.648,7122.94C965.648,7134.24 959.448,7143.35 949.248,7143.35C940.048,7143.35 932.948,7135.15 932.948,7125.15C932.948,7118.15 934.648,7111.24 937.948,7103.74C941.148,7096.55 944.048,7090.65 946.848,7085.85C947.048,7085.65 947.148,7085.44 947.248,7085.24C948.348,7083.15 949.548,7082.65 950.648,7082.65C950.848,7082.65 954.848,7082.74 954.848,7085.94C954.848,7086.85 954.148,7087.94 953.748,7088.55C949.448,7094.44 946.148,7101.15 943.548,7106.74ZM949.248,7136.35C954.848,7136.35 959.048,7131.15 959.048,7123.15C959.048,7116.94 955.748,7111.74 950.348,7111.74C943.748,7111.74 939.448,7117.85 939.448,7125.05C939.448,7131.44 943.448,7136.35 949.248,7136.35ZM984.948,7113.15C979.148,7117.94 976.248,7122.05 976.248,7126.74C976.248,7131.44 978.848,7136.15 984.948,7136.15C991.548,7136.15 995.748,7131.94 995.748,7126.24C995.748,7121.35 993.848,7117.55 985.948,7113.65C985.648,7113.44 985.348,7113.24 984.948,7113.15ZM994.048,7096.24C993.848,7095.94 993.648,7095.74 993.448,7095.35C991.548,7091.74 989.548,7089.85 986.248,7089.85C980.748,7089.85 978.348,7093.74 978.348,7097.44C978.348,7100.55 979.348,7102.24 984.648,7105.15C988.148,7102.44 991.248,7099.35 994.048,7096.24Z" style="fill-rule:nonzero;"/>
        </g>
    </g>
</svg>
