<?xml version="1.0" encoding="UTF-8" standalone="no"?>
<!DOCTYPE svg PUBLIC "-//W3C//DTD SVG 1.1//EN" "http://www.w3.org/Graphics/SVG/1.1/DTD/svg11.dtd">
<svg width="100%" height="100%" viewBox="0 0 89 89" version="1.1" xmlns="http://www.w3.org/2000/svg" xmlns:xlink="http://www.w3.org/1999/xlink" xml:space="preserve" xmlns:serif="http://www.serif.com/" style="fill-rule:evenodd;clip-rule:evenodd;stroke-linejoin:round;stroke-miterlimit:2;">
    <g transform="matrix(1,0,0,1,-1502.52,-2192.27)">
        <g transform="matrix(1.41414,0,0,1.41429,-1052.39,-837.704)">
            <path d="M1863.53,2204.77C1866.92,2204.77 1869.04,2202.23 1869.04,2199.26L1869.04,2147.92C1869.04,2144.46 1866.57,2142.41 1863.53,2142.41L1812.2,2142.41C1808.73,2142.41 1806.68,2144.74 1806.68,2147.92L1806.68,2199.26C1806.68,2202.44 1809.15,2204.77 1812.2,2204.77L1863.53,2204.77ZM1850.94,2185.19C1850.66,2186.11 1850.17,2187.38 1849.88,2188.72C1849.46,2190.28 1848.26,2190.77 1847.2,2190.77C1845.92,2190.77 1844.65,2190.07 1843.94,2189.43C1843.45,2188.86 1843.24,2188.23 1843.1,2187.73C1843.02,2187.24 1842.95,2186.74 1842.81,2186.25L1837.86,2169.56L1832.28,2185.19C1831.78,2186.53 1831.57,2187.45 1831.22,2188.72C1830.79,2190.21 1829.73,2190.77 1828.67,2190.77C1827.47,2190.77 1826.2,2189.99 1825.56,2189.43C1824.99,2188.79 1824.85,2188.37 1824.29,2186.25L1818.21,2165.11C1817.92,2164.19 1817.5,2163.05 1816.86,2161.64C1816.79,2161.36 1816.72,2161.15 1816.72,2160.93C1816.72,2159.94 1817.78,2159.03 1819.41,2159.03C1820.4,2159.03 1822.52,2159.38 1822.94,2161.07C1823.09,2161.78 1823.3,2163.2 1823.51,2164.05L1828.32,2181.37L1834.12,2164.82C1834.54,2163.62 1834.68,2162.42 1834.82,2161.22C1834.96,2160.23 1835.81,2159.66 1837.09,2159.66C1838.78,2159.66 1840.9,2160.93 1841.04,2161.92C1841.12,2162.7 1841.33,2163.55 1841.54,2164.33L1846.77,2181.44L1852.64,2164.12C1852.99,2163.05 1853.42,2161.5 1853.7,2160.09C1853.98,2158.95 1855.04,2158.6 1855.82,2158.6C1857.38,2158.6 1859.5,2160.01 1859.5,2161.15C1859.5,2161.5 1859.36,2161.64 1859.36,2161.85C1858.79,2163.05 1858.09,2164.82 1857.73,2165.81L1850.94,2185.19Z" style="fill-rule:nonzero;"/>
        </g>
    </g>
</svg>
