<?xml version="1.0" encoding="UTF-8" standalone="no"?>
<!DOCTYPE svg PUBLIC "-//W3C//DTD SVG 1.1//EN" "http://www.w3.org/Graphics/SVG/1.1/DTD/svg11.dtd">
<svg width="100%" height="100%" viewBox="0 0 89 89" version="1.1" xmlns="http://www.w3.org/2000/svg" xmlns:xlink="http://www.w3.org/1999/xlink" xml:space="preserve" xmlns:serif="http://www.serif.com/" style="fill-rule:evenodd;clip-rule:evenodd;stroke-linejoin:round;stroke-miterlimit:2;">
    <g transform="matrix(1,0,0,1,-1902.47,-392.274)">
        <g transform="matrix(1.41414,0,0,1.41429,-1052.39,-837.704)">
            <path d="M2146.36,932.045C2149.75,932.045 2151.87,929.5 2151.87,926.53L2151.87,875.197C2151.87,871.732 2149.4,869.681 2146.36,869.681L2095.02,869.681C2091.56,869.681 2089.51,872.015 2089.51,875.197L2089.51,926.53C2089.51,929.712 2091.98,932.045 2095.02,932.045L2146.36,932.045ZM2142.33,915.358C2142.33,917.692 2142.61,919.954 2142.61,921.298C2142.61,922.075 2141.9,922.924 2140.77,922.924C2139.29,922.924 2137.31,921.651 2137.31,920.237C2137.31,919.318 2137.45,916.065 2137.45,915.217L2137.45,913.166L2126.98,913.52C2126.7,913.52 2124.93,913.944 2124.72,913.944C2123.17,913.944 2121.54,912.176 2121.54,910.267C2121.54,909.772 2121.68,909.136 2122.03,908.5C2122.39,908.005 2122.67,907.51 2123.02,907.085C2123.31,906.661 2123.59,906.308 2123.73,905.954C2124.86,903.904 2133.21,888.207 2135.61,880.641C2135.96,879.722 2136.67,879.58 2137.1,879.58C2138.51,879.58 2140.35,881.843 2140.35,883.54C2140.35,883.964 2140.21,884.389 2139.99,884.742C2139.43,885.591 2138.72,886.863 2138.3,887.782C2135.61,893.58 2131.44,901.853 2127.97,908.429L2137.45,908.217L2137.45,897.328C2137.45,896.197 2137.31,892.52 2137.31,891.176C2137.31,890.399 2138.01,889.55 2139.14,889.55C2140.56,889.55 2142.47,890.752 2142.47,892.237C2142.47,893.156 2142.33,895.914 2142.33,897.328L2142.33,908.005C2143.25,907.934 2144.66,907.651 2145.3,907.651C2146.99,907.651 2147.84,910.267 2147.84,911.328C2147.84,911.823 2147.63,913.166 2146.36,913.166C2145.65,913.166 2143.74,913.025 2142.33,913.025L2142.33,915.358ZM2102.59,882.692C2104.22,880.782 2106.34,879.51 2108.81,879.51C2116.02,879.51 2119.35,889.126 2119.35,900.51C2119.35,912.106 2115.88,923.277 2107.68,923.277C2099.76,923.277 2096.51,913.52 2096.51,901.995C2096.51,892.025 2099.55,882.621 2102.1,882.621C2102.31,882.621 2102.45,882.621 2102.59,882.692ZM2107.47,918.116C2112.21,918.116 2114.54,910.126 2114.54,900.085C2114.54,892.803 2113.34,884.53 2108.6,884.53C2105.98,884.53 2101.25,889.621 2101.25,901.924C2101.25,911.611 2103.23,918.116 2107.47,918.116Z" style="fill-rule:nonzero;"/>
        </g>
    </g>
</svg>
