<?xml version="1.0" encoding="UTF-8" standalone="no"?>
<!DOCTYPE svg PUBLIC "-//W3C//DTD SVG 1.1//EN" "http://www.w3.org/Graphics/SVG/1.1/DTD/svg11.dtd">
<svg width="100%" height="100%" viewBox="0 0 96 96" version="1.1" xmlns="http://www.w3.org/2000/svg" xmlns:xlink="http://www.w3.org/1999/xlink" xml:space="preserve" xmlns:serif="http://www.serif.com/" style="fill-rule:evenodd;clip-rule:evenodd;stroke-linejoin:round;stroke-miterlimit:2;">
    <g transform="matrix(1,0,0,1,-209.628,-3773.28)">
        <g transform="matrix(1,0,0,1,-110.019,-3591.86)">
            <path d="M415.248,7412.94C415.248,7386.55 393.848,7365.15 367.448,7365.15C341.048,7365.15 319.648,7386.55 319.648,7412.94C319.648,7439.35 341.048,7460.65 367.448,7460.65C393.848,7460.65 415.248,7439.35 415.248,7412.94ZM358.348,7406.85C362.748,7401.44 368.148,7399.35 373.748,7399.35C383.148,7399.35 389.548,7406.24 389.548,7418.35C389.548,7433.15 379.948,7444.74 367.448,7444.74C363.748,7444.74 360.148,7443.35 357.548,7440.74C356.848,7442.24 354.948,7443.74 353.248,7443.74C351.548,7443.74 350.648,7442.35 350.648,7440.65C350.648,7439.35 350.748,7435.94 350.748,7432.94L350.748,7391.55C350.748,7388.05 350.548,7384.44 350.548,7382.55C350.548,7380.55 352.648,7380.24 353.348,7380.24C354.848,7380.24 358.548,7381.24 358.548,7384.05C358.548,7385.44 358.348,7388.65 358.348,7391.65L358.348,7406.85ZM358.248,7431.85C359.248,7432.05 360.048,7432.85 360.648,7433.65C362.648,7436.55 365.148,7437.65 367.648,7437.65C373.648,7437.65 381.548,7431.24 381.548,7418.44C381.548,7409.85 377.848,7406.55 373.748,7406.55C369.848,7406.55 358.348,7409.85 358.348,7426.85C358.248,7428.55 358.248,7430.35 358.248,7431.85Z" style="fill-rule:nonzero;"/>
        </g>
    </g>
</svg>
