<?xml version="1.0" encoding="UTF-8" standalone="no"?>
<!DOCTYPE svg PUBLIC "-//W3C//DTD SVG 1.1//EN" "http://www.w3.org/Graphics/SVG/1.1/DTD/svg11.dtd">
<svg width="100%" height="100%" viewBox="0 0 89 89" version="1.1" xmlns="http://www.w3.org/2000/svg" xmlns:xlink="http://www.w3.org/1999/xlink" xml:space="preserve" xmlns:serif="http://www.serif.com/" style="fill-rule:evenodd;clip-rule:evenodd;stroke-linejoin:round;stroke-miterlimit:2;">
    <g transform="matrix(1,0,0,1,-1802.48,-1592.27)">
        <g transform="matrix(1.41414,0,0,1.41429,-1052.39,-837.704)">
            <path d="M2068.79,1746.59C2072.33,1747.58 2075.23,1751.54 2075.23,1756.91C2075.23,1764.62 2071.34,1771.34 2062.14,1771.34C2058.26,1771.34 2055.14,1769.57 2052.39,1766.46C2051.89,1765.82 2051.82,1765.12 2051.82,1764.55C2051.82,1763.42 2052.53,1760.87 2054.09,1760.87C2054.51,1760.87 2054.86,1761.09 2055.29,1761.58C2057.27,1764.41 2059.18,1766.18 2062.14,1766.18C2068.23,1766.18 2070.49,1761.72 2070.49,1756.98C2070.49,1753.03 2067.87,1750.13 2063.98,1750.13C2062.64,1750.13 2061.09,1750.41 2060.31,1750.62C2060.17,1750.69 2060.17,1750.69 2060.02,1750.69C2058.4,1750.69 2057.55,1748.5 2057.55,1747.37C2057.55,1746.59 2057.97,1745.67 2058.89,1745.46C2064.05,1745.04 2069,1741.85 2069,1737.82C2069,1734.71 2067.38,1732.73 2064.05,1732.73C2061.44,1732.73 2059.18,1734.01 2056.84,1737.12C2056.35,1737.75 2055.99,1738.39 2055.14,1738.39C2053.66,1738.39 2052.81,1736.13 2052.81,1734.92C2052.81,1732.45 2057.76,1727.64 2063.98,1727.64C2069.64,1727.64 2073.67,1731.18 2073.67,1737.47C2073.67,1742.91 2070.28,1745.88 2068.79,1746.59ZM2047.51,1734.01C2048.57,1734.01 2049.35,1734.92 2049.35,1736.13C2049.35,1738.88 2042.56,1744.96 2040.93,1746.17C2046.66,1749.14 2049.63,1752.95 2049.63,1758.75C2049.63,1766.46 2044.19,1771.34 2036.48,1771.34C2029.34,1771.34 2024.95,1766.25 2024.95,1759.53C2024.95,1754.37 2027.57,1750.48 2031.67,1747.09C2027.85,1744.68 2026.51,1742.07 2026.51,1738.25C2026.51,1732.59 2030.68,1727.71 2037.4,1727.71C2041.78,1727.71 2044.96,1730.54 2047.09,1733.79C2047.09,1733.86 2047.15,1733.93 2047.15,1734.01L2047.51,1734.01ZM2042.91,1736.76C2041.5,1734.15 2039.94,1732.73 2037.4,1732.73C2033.23,1732.73 2031.46,1735.56 2031.46,1738.25C2031.46,1740.44 2032.17,1741.71 2036.2,1743.76C2038.88,1741.85 2041.22,1739.59 2043.34,1737.4L2042.91,1736.76ZM2036.48,1749.56C2032.02,1753.03 2029.83,1756 2029.83,1759.39C2029.83,1762.78 2031.74,1766.18 2036.48,1766.18C2041.43,1766.18 2044.68,1763.14 2044.68,1759.04C2044.68,1755.5 2043.2,1752.74 2037.26,1749.91C2037.04,1749.77 2036.76,1749.63 2036.48,1749.56ZM2075.65,1780.53C2079.04,1780.53 2081.17,1777.98 2081.17,1775.02L2081.17,1723.68C2081.17,1720.22 2078.69,1718.17 2075.65,1718.17L2024.32,1718.17C2020.85,1718.17 2018.8,1720.5 2018.8,1723.68L2018.8,1775.02C2018.8,1778.2 2021.28,1780.53 2024.32,1780.53L2075.65,1780.53Z" style="fill-rule:nonzero;"/>
        </g>
    </g>
</svg>
