<?xml version="1.0" encoding="UTF-8" standalone="no"?>
<!DOCTYPE svg PUBLIC "-//W3C//DTD SVG 1.1//EN" "http://www.w3.org/Graphics/SVG/1.1/DTD/svg11.dtd">
<svg width="100%" height="100%" viewBox="0 0 89 89" version="1.1" xmlns="http://www.w3.org/2000/svg" xmlns:xlink="http://www.w3.org/1999/xlink" xml:space="preserve" xmlns:serif="http://www.serif.com/" style="fill-rule:evenodd;clip-rule:evenodd;stroke-linejoin:round;stroke-miterlimit:2;">
    <g transform="matrix(1,0,0,1,-2402.42,-842.274)">
        <g transform="matrix(1.41414,0,0,1.41429,-1052.39,-837.704)">
            <path d="M2499.89,1250.23C2503.29,1250.23 2505.41,1247.68 2505.41,1244.71L2505.41,1193.38C2505.41,1189.91 2502.93,1187.86 2499.89,1187.86L2448.56,1187.86C2445.1,1187.86 2443.04,1190.2 2443.04,1193.38L2443.04,1244.71C2443.04,1247.89 2445.52,1250.23 2448.56,1250.23L2499.89,1250.23ZM2489,1232.76C2489.57,1229.44 2490.21,1225.27 2490.91,1221.24C2488.65,1223.57 2485.82,1225.06 2483.07,1225.06C2477.83,1225.06 2474.37,1220.74 2474.37,1213.74C2474.37,1205.61 2479.81,1197.34 2487.24,1197.34C2490.7,1197.34 2493.03,1199.04 2494.45,1200.66C2494.59,1199.95 2494.94,1198.96 2496.08,1198.96C2497.56,1198.96 2499.04,1200.31 2499.04,1201.93L2499.04,1202.29C2498.83,1203.21 2498.48,1204.2 2498.41,1204.48C2497.84,1207.45 2493.32,1231.7 2493.03,1238.56C2492.89,1240.33 2491.12,1240.75 2489.99,1240.75C2488.79,1240.75 2488.01,1240.12 2488.01,1238.77C2488.01,1238.21 2488.16,1237.71 2488.23,1237.15L2489,1232.76ZM2465.18,1216.29C2468.71,1217.28 2471.54,1221.24 2471.54,1226.61C2471.54,1234.32 2467.65,1241.04 2458.53,1241.04C2454.64,1241.04 2451.53,1239.27 2448.77,1236.16C2448.28,1235.52 2448.21,1234.81 2448.21,1234.25C2448.21,1233.12 2448.91,1230.57 2450.47,1230.57C2450.89,1230.57 2451.25,1230.78 2451.67,1231.28C2453.65,1234.11 2455.56,1235.87 2458.53,1235.87C2464.54,1235.87 2466.8,1231.42 2466.8,1226.68C2466.8,1222.72 2464.19,1219.82 2460.37,1219.82C2460.01,1219.82 2459.66,1219.82 2459.31,1219.89C2458.46,1219.96 2457.54,1220.11 2456.69,1220.32C2456.55,1220.39 2456.48,1220.39 2456.34,1220.39C2454.71,1220.39 2453.93,1218.2 2453.93,1217.07C2453.93,1216.29 2454.36,1215.37 2455.28,1215.16C2459.17,1214.8 2465.39,1212.47 2465.39,1207.52C2465.39,1204.41 2463.69,1202.43 2460.44,1202.43C2457.75,1202.43 2455.56,1203.7 2453.23,1206.81C2452.73,1207.45 2452.38,1208.09 2451.53,1208.09C2450.04,1208.09 2449.2,1205.82 2449.2,1204.62C2449.2,1202.15 2454.14,1197.34 2460.37,1197.34C2465.95,1197.34 2470.05,1200.87 2470.05,1207.17C2470.05,1212.61 2466.59,1215.58 2465.18,1216.29ZM2493.32,1207.38C2492.75,1207.17 2492.47,1206.6 2492.26,1206.18C2491.69,1204.69 2490.42,1202.43 2487.45,1202.43C2482.22,1202.43 2479.03,1208.65 2479.03,1213.53C2479.03,1218.13 2480.45,1219.82 2482.99,1219.82C2489.92,1219.82 2492.75,1209.71 2493.11,1208.37L2493.32,1207.38Z" style="fill-rule:nonzero;"/>
        </g>
    </g>
</svg>
