<?xml version="1.0" encoding="UTF-8" standalone="no"?>
<!DOCTYPE svg PUBLIC "-//W3C//DTD SVG 1.1//EN" "http://www.w3.org/Graphics/SVG/1.1/DTD/svg11.dtd">
<svg width="100%" height="100%" viewBox="0 0 96 96" version="1.1" xmlns="http://www.w3.org/2000/svg" xmlns:xlink="http://www.w3.org/1999/xlink" xml:space="preserve" xmlns:serif="http://www.serif.com/" style="fill-rule:evenodd;clip-rule:evenodd;stroke-linejoin:round;stroke-miterlimit:2;">
    <g transform="matrix(1,0,0,1,-409.628,-3323.28)">
        <g transform="matrix(1,0,0,1,-110.019,-3591.86)">
            <path d="M615.248,6962.94C615.248,6936.55 593.848,6915.15 567.448,6915.15C541.048,6915.15 519.648,6936.55 519.648,6962.94C519.648,6989.35 541.048,7010.65 567.448,7010.65C593.848,7010.65 615.248,6989.35 615.248,6962.94ZM597.248,6982.55C597.248,6985.74 597.548,6988.94 597.548,6990.74C597.548,6991.94 596.648,6993.05 595.048,6993.05C592.948,6993.05 590.248,6991.35 590.248,6989.35C590.248,6988.05 590.448,6983.55 590.448,6982.35L590.448,6979.55L576.048,6980.05C575.648,6980.05 574.648,6980.15 572.948,6980.65L573.148,6980.55L572.848,6980.55C570.748,6980.55 568.448,6978.15 568.448,6975.44C568.448,6974.85 568.648,6973.94 569.148,6973.05C571.748,6969.35 584.048,6946.05 587.948,6934.44C588.348,6933.15 589.348,6932.94 589.948,6932.94C591.948,6932.94 594.448,6936.15 594.448,6938.44C594.448,6939.05 594.248,6939.65 593.948,6940.15C593.148,6941.35 592.148,6943.05 591.648,6944.35C587.948,6952.35 582.148,6963.85 577.348,6972.94L590.448,6972.65L590.448,6957.55C590.448,6955.94 590.248,6950.85 590.248,6949.05C590.248,6947.94 591.248,6946.74 592.848,6946.74C594.748,6946.74 597.448,6948.44 597.448,6950.55C597.448,6951.74 597.248,6955.65 597.248,6957.55L597.248,6972.35C598.548,6972.24 600.448,6971.85 601.248,6971.85C603.648,6971.85 604.848,6975.44 604.848,6976.94C604.848,6977.65 604.548,6979.55 602.748,6979.55C601.848,6979.55 599.148,6979.35 597.248,6979.35L597.248,6982.55ZM558.448,6982.55C558.448,6985.74 558.748,6988.94 558.748,6990.74C558.748,6991.94 557.848,6993.05 556.248,6993.05C554.148,6993.05 551.448,6991.35 551.448,6989.35C551.448,6988.05 551.648,6983.55 551.648,6982.35L551.648,6979.55L537.248,6980.05C536.848,6980.05 535.848,6980.15 534.148,6980.65L534.348,6980.55L534.048,6980.55C531.948,6980.55 529.648,6978.15 529.648,6975.44C529.648,6974.55 529.948,6973.74 531.648,6971.15C534.048,6967.74 546.448,6942.65 549.148,6934.44C549.548,6933.15 550.548,6932.94 551.148,6932.94C553.148,6932.94 555.648,6936.15 555.648,6938.44C555.648,6939.05 555.448,6939.65 555.148,6940.15C554.348,6941.35 553.348,6943.05 552.848,6944.35C549.148,6952.35 543.348,6963.85 538.548,6972.94L551.648,6972.65L551.648,6957.55C551.648,6955.94 551.448,6950.85 551.448,6949.05C551.448,6947.94 552.448,6946.74 554.048,6946.74C555.948,6946.74 558.648,6948.44 558.648,6950.55C558.648,6951.74 558.448,6955.65 558.448,6957.55L558.448,6972.35C559.748,6972.24 561.648,6971.85 562.448,6971.85C564.848,6971.85 566.048,6975.44 566.048,6976.94C566.048,6977.65 565.748,6979.55 563.948,6979.55C563.048,6979.55 560.348,6979.35 558.448,6979.35L558.448,6982.55Z" style="fill-rule:nonzero;"/>
        </g>
    </g>
</svg>
