<?xml version="1.0" encoding="UTF-8" standalone="no"?>
<!DOCTYPE svg PUBLIC "-//W3C//DTD SVG 1.1//EN" "http://www.w3.org/Graphics/SVG/1.1/DTD/svg11.dtd">
<svg width="100%" height="100%" viewBox="0 0 89 89" version="1.1" xmlns="http://www.w3.org/2000/svg" xmlns:xlink="http://www.w3.org/1999/xlink" xml:space="preserve" xmlns:serif="http://www.serif.com/" style="fill-rule:evenodd;clip-rule:evenodd;stroke-linejoin:round;stroke-miterlimit:2;">
    <g transform="matrix(1,0,0,1,-558.739,-1921.63)">
        <g transform="matrix(1.41414,0,0,1.41429,-177.055,-770.755)">
            <path d="M582.675,1966.07L582.675,1903.71L520.312,1903.71L520.312,1966.07L582.675,1966.07ZM538.059,1937.08C537.423,1936.52 536.786,1935.74 536.786,1934.82C536.786,1933.62 537.705,1933.12 538.695,1933.05C540.11,1927.11 546.261,1919.12 554.463,1919.12C562.382,1919.12 565.352,1924 565.352,1928.81C565.352,1932.84 564.009,1934.68 558.847,1936.23C555.312,1937.36 549.938,1938.21 543.433,1938.21C543.716,1943.73 546.756,1946.13 549.938,1946.13C554.817,1946.13 558.847,1944.29 561.887,1941.04C562.382,1940.48 563.089,1939.91 563.938,1939.91C565.069,1939.91 565.493,1940.97 565.493,1941.61C565.493,1944.08 559.978,1951.22 549.938,1951.22C543.079,1951.22 538.059,1945.78 538.059,1937.43L538.059,1937.08ZM544.281,1933.12C550.15,1933.12 554.18,1932.34 556.796,1931.64C559.625,1930.79 559.978,1930.43 559.978,1928.74C559.978,1925.91 558.14,1924.07 554.392,1924.07C549.655,1924.07 545.625,1929.09 544.281,1933.12Z" style="fill-rule:nonzero;"/>
        </g>
    </g>
</svg>
