<?xml version="1.0" encoding="UTF-8" standalone="no"?>
<!DOCTYPE svg PUBLIC "-//W3C//DTD SVG 1.1//EN" "http://www.w3.org/Graphics/SVG/1.1/DTD/svg11.dtd">
<svg width="100%" height="100%" viewBox="0 0 89 89" version="1.1" xmlns="http://www.w3.org/2000/svg" xmlns:xlink="http://www.w3.org/1999/xlink" xml:space="preserve" xmlns:serif="http://www.serif.com/" style="fill-rule:evenodd;clip-rule:evenodd;stroke-linejoin:round;stroke-miterlimit:2;">
    <g transform="matrix(1,0,0,1,-1902.47,-2042.27)">
        <g transform="matrix(1.41414,0,0,1.41429,-1052.39,-837.704)">
            <path d="M2146.36,2098.71C2149.75,2098.71 2151.87,2096.17 2151.87,2093.2L2151.87,2041.86C2151.87,2038.4 2149.4,2036.35 2146.36,2036.35L2095.02,2036.35C2091.56,2036.35 2089.51,2038.68 2089.51,2041.86L2089.51,2093.2C2089.51,2096.38 2091.98,2098.71 2095.02,2098.71L2146.36,2098.71ZM2113.76,2081.39C2113.76,2083.86 2113.97,2086.34 2113.97,2087.75C2113.97,2089.17 2112.49,2089.38 2111.99,2089.38C2110.93,2089.38 2108.32,2088.67 2108.32,2086.69C2108.32,2085.7 2108.46,2083.44 2108.46,2081.32L2108.46,2055.93C2108.46,2053.46 2108.32,2051.05 2108.25,2049.71L2108.25,2049.64C2108.25,2048.3 2109.66,2048.01 2110.23,2048.01C2111.78,2048.01 2113.97,2049.36 2113.97,2050.7C2113.97,2051.05 2113.97,2051.83 2113.9,2052.68C2116.66,2049.71 2120.76,2047.87 2124.58,2047.87C2131.86,2047.87 2135.82,2053.18 2135.82,2061.31C2135.82,2070.64 2129.88,2079.97 2120.83,2079.97C2118.43,2079.97 2115.74,2079.2 2113.76,2077.57L2113.76,2081.39ZM2113.76,2070.85C2114.4,2071.07 2114.96,2071.56 2115.32,2072.13C2116.73,2074.18 2118.64,2074.95 2120.41,2074.95C2125.92,2074.95 2130.17,2068.73 2130.17,2061.59C2130.17,2055.37 2127.76,2052.96 2124.58,2052.96C2120.12,2052.96 2115.25,2057.14 2114.04,2063.07C2113.83,2063.92 2113.76,2067.18 2113.76,2070.85Z" style="fill-rule:nonzero;"/>
        </g>
    </g>
</svg>
