<?xml version="1.0" encoding="UTF-8" standalone="no"?>
<!DOCTYPE svg PUBLIC "-//W3C//DTD SVG 1.1//EN" "http://www.w3.org/Graphics/SVG/1.1/DTD/svg11.dtd">
<svg width="100%" height="100%" viewBox="0 0 89 89" version="1.1" xmlns="http://www.w3.org/2000/svg" xmlns:xlink="http://www.w3.org/1999/xlink" xml:space="preserve" xmlns:serif="http://www.serif.com/" style="fill-rule:evenodd;clip-rule:evenodd;stroke-linejoin:round;stroke-miterlimit:2;">
    <g transform="matrix(1,0,0,1,-558.739,-1171.63)">
        <g transform="matrix(1.41414,0,0,1.41429,-177.055,-770.755)">
            <path d="M582.675,1435.77L582.675,1373.4L520.312,1373.4L520.312,1435.77L582.675,1435.77ZM531.908,1407.77C531.625,1408.12 531.342,1408.19 530.918,1408.19C529.645,1408.19 528.019,1406.71 528.019,1404.66C528.019,1404.44 528.019,1404.09 528.089,1403.74C528.301,1403.03 528.372,1402.32 528.514,1401.83L529.716,1387.97C529.786,1387.26 529.786,1386.34 529.786,1385.64C529.786,1384.29 530.776,1383.94 531.413,1383.94C532.049,1383.94 532.827,1384.22 533.463,1384.58L542.372,1383.94C543.291,1383.87 544.635,1383.8 545.483,1383.59L545.695,1383.59C547.251,1383.59 548.029,1386.06 548.029,1387.05C548.029,1387.83 547.604,1388.82 546.615,1388.89L542.867,1389.1L534.029,1389.74L533.039,1400.34C534.806,1399.07 536.857,1398.36 539.402,1398.36C545.13,1398.36 549.938,1403.38 549.938,1411.73C549.938,1419.43 546.261,1426.58 537.281,1426.58C531.978,1426.58 526.746,1421.84 526.746,1419.08C526.746,1417.74 527.594,1415.19 529.079,1415.19C529.716,1415.19 530.14,1415.62 530.352,1416.11C532.049,1419.08 534.099,1421.34 537.281,1421.34C543.009,1421.34 545.271,1416.89 545.271,1411.8C545.271,1406.42 542.796,1403.45 538.978,1403.45C536.716,1403.45 534.806,1404.59 533.322,1406.28L531.908,1407.77ZM573.13,1418.8C573.13,1421.13 573.413,1423.39 573.413,1424.74C573.413,1425.52 572.705,1426.36 571.574,1426.36C570.089,1426.36 568.11,1425.09 568.11,1423.68C568.11,1422.76 568.251,1419.51 568.251,1418.66L568.251,1416.61L557.857,1416.96C557.574,1416.96 556.867,1417.1 555.594,1417.45L555.736,1417.38L555.594,1417.38C554.039,1417.38 552.413,1415.62 552.413,1413.71C552.413,1412.72 552.695,1412.29 553.827,1410.53C555.665,1408.26 564.857,1389.03 566.483,1384.08C566.766,1383.16 567.473,1383.02 567.897,1383.02C569.312,1383.02 571.15,1385.28 571.15,1386.98C571.15,1387.4 571.009,1387.83 570.796,1388.18C570.231,1389.03 569.524,1390.3 569.099,1391.22C566.413,1397.02 562.312,1405.29 558.776,1411.87L568.251,1411.66L568.251,1400.77C568.251,1399.64 568.11,1395.96 568.11,1394.62C568.11,1393.84 568.817,1392.99 569.948,1392.99C571.362,1392.99 573.271,1394.19 573.271,1395.68C573.271,1396.6 573.13,1399.35 573.13,1400.77L573.13,1411.44C574.049,1411.38 575.463,1411.09 576.099,1411.09C577.796,1411.09 578.645,1413.71 578.645,1414.77C578.645,1415.26 578.433,1416.61 577.16,1416.61C576.453,1416.61 574.544,1416.46 573.13,1416.46L573.13,1418.8Z" style="fill-rule:nonzero;"/>
        </g>
    </g>
</svg>
