<?xml version="1.0" encoding="UTF-8" standalone="no"?>
<!DOCTYPE svg PUBLIC "-//W3C//DTD SVG 1.1//EN" "http://www.w3.org/Graphics/SVG/1.1/DTD/svg11.dtd">
<svg width="100%" height="100%" viewBox="0 0 96 96" version="1.1" xmlns="http://www.w3.org/2000/svg" xmlns:xlink="http://www.w3.org/1999/xlink" xml:space="preserve" xmlns:serif="http://www.serif.com/" style="fill-rule:evenodd;clip-rule:evenodd;stroke-linejoin:round;stroke-miterlimit:2;">
    <g transform="matrix(1,0,0,1,-1409.63,-3023.28)">
        <g transform="matrix(1,0,0,1,-110.019,-3591.86)">
            <path d="M1615.25,6662.94C1615.25,6636.55 1593.85,6615.15 1567.45,6615.15C1541.05,6615.15 1519.65,6636.55 1519.65,6662.94C1519.65,6689.35 1541.05,6710.65 1567.45,6710.65C1593.85,6710.65 1615.25,6689.35 1615.25,6662.94ZM1588.75,6658.94C1594.45,6660.44 1599.05,6665.85 1599.05,6673.35C1599.05,6684.05 1592.85,6693.35 1577.95,6693.35C1571.65,6693.35 1566.65,6690.85 1562.15,6686.55C1561.35,6685.74 1561.25,6684.74 1561.25,6683.94C1561.25,6682.35 1562.35,6678.85 1564.95,6678.85C1565.65,6678.85 1566.15,6679.15 1566.85,6679.85C1570.05,6683.74 1573.15,6686.15 1577.95,6686.15C1587.75,6686.15 1591.45,6680.05 1591.45,6673.44C1591.45,6667.94 1587.25,6663.94 1580.95,6663.94C1579.55,6663.94 1576.95,6664.24 1574.95,6664.65C1574.75,6664.74 1574.65,6664.74 1574.45,6664.74C1571.85,6664.74 1570.55,6661.65 1570.55,6660.15C1570.55,6659.05 1571.25,6657.74 1572.75,6657.44C1578.65,6657.05 1589.05,6653.85 1589.05,6646.85C1589.05,6642.55 1586.35,6639.85 1581.05,6639.85C1576.75,6639.85 1573.15,6641.65 1569.35,6645.85C1568.65,6646.74 1567.95,6647.65 1566.65,6647.65C1565.05,6647.65 1562.75,6645.35 1562.75,6642.85C1562.75,6639.85 1570.25,6632.74 1580.95,6632.74C1590.05,6632.74 1596.65,6637.74 1596.65,6646.35C1596.65,6653.94 1591.05,6658.05 1588.75,6658.94ZM1550.75,6681.94C1550.75,6684.15 1550.85,6688.65 1550.95,6690.74C1550.95,6692.15 1549.85,6693.05 1548.15,6693.05C1545.85,6693.05 1543.05,6691.24 1543.05,6689.44C1543.05,6688.15 1543.15,6684.15 1543.15,6682.44L1543.15,6644.35C1540.35,6645.65 1537.15,6646.85 1535.65,6646.85C1533.55,6646.85 1531.05,6645.05 1531.05,6643.65C1531.05,6642.44 1532.05,6641.74 1532.75,6641.44C1536.55,6639.94 1540.15,6637.94 1542.45,6636.24C1542.65,6636.15 1543.45,6635.24 1543.85,6634.74C1544.85,6633.85 1545.95,6633.15 1546.85,6633.15C1548.75,6633.15 1551.25,6635.24 1551.25,6637.55C1551.25,6638.85 1550.75,6640.24 1550.75,6642.44L1550.75,6681.94Z" style="fill-rule:nonzero;"/>
        </g>
    </g>
</svg>
