<?xml version="1.0" encoding="UTF-8" standalone="no"?>
<!DOCTYPE svg PUBLIC "-//W3C//DTD SVG 1.1//EN" "http://www.w3.org/Graphics/SVG/1.1/DTD/svg11.dtd">
<svg width="100%" height="100%" viewBox="0 0 89 89" version="1.1" xmlns="http://www.w3.org/2000/svg" xmlns:xlink="http://www.w3.org/1999/xlink" xml:space="preserve" xmlns:serif="http://www.serif.com/" style="fill-rule:evenodd;clip-rule:evenodd;stroke-linejoin:round;stroke-miterlimit:2;">
    <g transform="matrix(1,0,0,1,-458.749,-1021.63)">
        <g transform="matrix(1.41414,0,0,1.41429,-177.055,-770.755)">
            <path d="M511.968,1329.71L511.968,1267.34L449.604,1267.34L449.604,1329.71L511.968,1329.71ZM498.887,1295.77C502.423,1296.76 505.251,1300.72 505.251,1306.09C505.251,1313.8 501.362,1320.52 492.241,1320.52C488.352,1320.52 485.241,1318.75 482.483,1315.64C481.988,1315 481.918,1314.29 481.918,1313.73C481.918,1312.6 482.625,1310.05 484.18,1310.05C484.604,1310.05 484.958,1310.26 485.382,1310.76C487.362,1313.59 489.271,1315.35 492.241,1315.35C498.251,1315.35 500.514,1310.9 500.514,1306.16C500.514,1302.2 497.897,1299.3 494.079,1299.3C493.726,1299.3 493.372,1299.3 493.019,1299.38C492.17,1299.44 491.251,1299.59 490.402,1299.8C490.261,1299.87 490.19,1299.87 490.049,1299.87C488.423,1299.87 487.645,1297.68 487.645,1296.55C487.645,1295.77 488.069,1294.85 488.988,1294.64C492.877,1294.28 499.099,1291.95 499.099,1287C499.099,1283.89 497.402,1281.91 494.15,1281.91C491.463,1281.91 489.271,1283.18 486.938,1286.29C486.443,1286.93 486.089,1287.57 485.241,1287.57C483.756,1287.57 482.908,1285.3 482.908,1284.1C482.908,1281.63 487.857,1276.82 494.079,1276.82C499.665,1276.82 503.766,1280.35 503.766,1286.65C503.766,1292.09 500.301,1295.06 498.887,1295.77ZM475.554,1312.74C475.554,1315.07 475.766,1317.33 475.766,1318.68C475.766,1319.45 475.13,1320.3 473.928,1320.3C472.443,1320.3 470.534,1319.03 470.534,1317.62C470.534,1316.7 470.675,1313.44 470.675,1312.6L470.675,1310.55L460.211,1310.9C459.928,1310.9 459.291,1311.04 458.019,1311.39L458.16,1311.32L457.948,1311.32C456.392,1311.32 454.766,1309.56 454.766,1307.65C454.766,1307.15 454.908,1306.52 455.261,1305.88C455.615,1305.38 455.897,1304.89 456.251,1304.46C456.534,1304.04 456.817,1303.69 456.958,1303.33C458.089,1301.28 466.433,1285.59 468.837,1278.02C469.12,1277.1 469.897,1276.96 470.251,1276.96C471.665,1276.96 473.503,1279.22 473.503,1280.92C473.503,1281.34 473.433,1281.77 473.15,1282.12C472.584,1282.97 471.877,1284.24 471.524,1285.16C468.837,1290.96 464.665,1299.23 461.2,1305.81L470.675,1305.6L470.675,1294.71C470.675,1293.58 470.534,1289.9 470.534,1288.56C470.534,1287.78 471.17,1286.93 472.372,1286.93C473.786,1286.93 475.695,1288.13 475.695,1289.62C475.695,1290.54 475.554,1293.29 475.554,1294.71L475.554,1305.38C476.473,1305.31 477.817,1305.03 478.453,1305.03C480.221,1305.03 480.998,1307.65 480.998,1308.71C480.998,1309.2 480.786,1310.55 479.514,1310.55C478.877,1310.55 476.968,1310.4 475.554,1310.4L475.554,1312.74Z" style="fill-rule:nonzero;"/>
        </g>
    </g>
</svg>
