<?xml version="1.0" encoding="UTF-8" standalone="no"?>
<!DOCTYPE svg PUBLIC "-//W3C//DTD SVG 1.1//EN" "http://www.w3.org/Graphics/SVG/1.1/DTD/svg11.dtd">
<svg width="100%" height="100%" viewBox="0 0 89 89" version="1.1" xmlns="http://www.w3.org/2000/svg" xmlns:xlink="http://www.w3.org/1999/xlink" xml:space="preserve" xmlns:serif="http://www.serif.com/" style="fill-rule:evenodd;clip-rule:evenodd;stroke-linejoin:round;stroke-miterlimit:2;">
    <g transform="matrix(1,0,0,1,-2202.44,-2042.27)">
        <g transform="matrix(1.41414,0,0,1.41429,-1052.39,-837.704)">
            <path d="M2358.48,2098.71C2361.87,2098.71 2363.99,2096.17 2363.99,2093.2L2363.99,2041.86C2363.99,2038.4 2361.52,2036.35 2358.48,2036.35L2307.14,2036.35C2303.68,2036.35 2301.63,2038.68 2301.63,2041.86L2301.63,2093.2C2301.63,2096.38 2304.11,2098.71 2307.14,2098.71L2358.48,2098.71ZM2335.99,2064.49C2341.23,2065.83 2345.04,2068.38 2345.04,2073.96C2345.04,2079.55 2339.95,2083.72 2332.6,2083.72C2327.65,2083.72 2322.42,2082.17 2319.73,2077.5C2319.59,2077.07 2319.52,2076.79 2319.52,2076.44C2319.52,2075.03 2321,2072.9 2322.56,2072.9C2323.41,2072.9 2323.83,2073.4 2324.12,2073.96C2325.53,2077.36 2327.37,2078.56 2332.6,2078.56C2337.27,2078.56 2339.67,2076.09 2339.67,2074.11C2339.67,2071.91 2338.68,2070.36 2334.44,2069.37L2328.43,2067.95C2323.76,2066.82 2321,2064.63 2321,2060.32C2321,2054.8 2326.8,2051.55 2332.95,2051.55C2337.69,2051.55 2341.44,2053.32 2343.28,2055.65C2343.56,2056.01 2343.7,2056.43 2343.7,2056.92C2343.7,2058.27 2342.78,2060.25 2340.94,2060.25C2340.38,2060.25 2339.81,2059.89 2339.25,2059.05C2338.68,2058.13 2336.91,2056.5 2332.95,2056.5C2328.36,2056.5 2326.31,2058.48 2326.31,2060.39C2326.31,2061.31 2326.87,2062.3 2330.2,2063.07L2335.99,2064.49Z" style="fill-rule:nonzero;"/>
        </g>
    </g>
</svg>
