<?xml version="1.0" encoding="UTF-8" standalone="no"?>
<!DOCTYPE svg PUBLIC "-//W3C//DTD SVG 1.1//EN" "http://www.w3.org/Graphics/SVG/1.1/DTD/svg11.dtd">
<svg width="100%" height="100%" viewBox="0 0 89 89" version="1.1" xmlns="http://www.w3.org/2000/svg" xmlns:xlink="http://www.w3.org/1999/xlink" xml:space="preserve" xmlns:serif="http://www.serif.com/" style="fill-rule:evenodd;clip-rule:evenodd;stroke-linejoin:round;stroke-miterlimit:2;">
    <g transform="matrix(1,0,0,1,-1902.47,-242.274)">
        <g transform="matrix(1.41414,0,0,1.41429,-1052.39,-837.704)">
            <path d="M2146.36,825.984C2149.75,825.984 2151.87,823.439 2151.87,820.469L2151.87,769.136C2151.87,765.671 2149.4,763.621 2146.36,763.621L2095.02,763.621C2091.56,763.621 2089.51,765.954 2089.51,769.136L2089.51,820.469C2089.51,823.651 2091.98,825.984 2095.02,825.984L2146.36,825.984ZM2128.54,808.873C2128.54,811.207 2128.75,813.469 2128.75,814.813C2128.75,816.227 2127.27,816.439 2126.77,816.439C2125.22,816.439 2123.1,815.237 2123.1,813.752C2123.1,812.833 2123.24,809.58 2123.24,808.732L2123.24,806.752L2108.67,807.318C2108.25,807.318 2107.4,807.459 2106.62,807.601C2106.34,807.742 2106.12,807.742 2105.84,807.742C2104.14,807.742 2102.17,806.186 2102.17,804.207C2102.17,803.5 2102.38,802.934 2102.8,802.368L2104.78,799.752C2117.86,781.58 2120.2,777.055 2121.47,774.085C2121.82,773.308 2122.46,773.096 2123.02,773.096C2124.58,773.096 2126.42,775.358 2126.42,776.914C2126.42,777.621 2126.28,777.762 2123.8,781.368C2120.12,786.883 2114.33,795.51 2109.31,802.298L2123.24,801.803L2123.24,790.843C2123.24,789.712 2123.02,786.035 2123.02,784.692C2123.02,783.277 2124.51,783.065 2125,783.065C2126.56,783.065 2128.68,784.267 2128.68,785.752C2128.68,786.671 2128.54,789.429 2128.54,790.843L2128.54,801.52L2129.18,801.52C2130.87,801.449 2132.85,801.166 2133.63,801.166C2135.61,801.166 2136.67,803.641 2136.67,804.772C2136.67,805.621 2136.18,806.611 2134.97,806.611C2134.27,806.611 2132.36,806.469 2130.38,806.469L2128.54,806.469L2128.54,808.873Z" style="fill-rule:nonzero;"/>
        </g>
    </g>
</svg>
