<?xml version="1.0" encoding="UTF-8" standalone="no"?>
<!DOCTYPE svg PUBLIC "-//W3C//DTD SVG 1.1//EN" "http://www.w3.org/Graphics/SVG/1.1/DTD/svg11.dtd">
<svg width="100%" height="100%" viewBox="0 0 89 89" version="1.1" xmlns="http://www.w3.org/2000/svg" xmlns:xlink="http://www.w3.org/1999/xlink" xml:space="preserve" xmlns:serif="http://www.serif.com/" style="fill-rule:evenodd;clip-rule:evenodd;stroke-linejoin:round;stroke-miterlimit:2;">
    <g transform="matrix(1,0,0,1,-558.739,-271.632)">
        <g transform="matrix(1.41414,0,0,1.41429,-177.055,-770.755)">
            <path d="M582.675,799.405L582.675,737.041L520.312,737.041L520.312,799.405L582.675,799.405ZM559.342,782.294C559.342,784.627 559.554,786.89 559.554,788.233C559.554,789.647 558.069,789.859 557.574,789.859C556.019,789.859 553.897,788.657 553.897,787.173C553.897,786.253 554.039,783.001 554.039,782.152L554.039,780.173L539.473,780.738C539.049,780.738 538.2,780.88 537.423,781.021C537.14,781.162 536.928,781.162 536.645,781.162C534.948,781.162 532.968,779.607 532.968,777.627C532.968,776.92 533.18,776.354 533.604,775.789L535.584,773.173C548.665,755.001 550.998,750.476 552.271,747.506C552.625,746.728 553.261,746.516 553.827,746.516C555.382,746.516 557.221,748.779 557.221,750.334C557.221,751.041 557.079,751.183 554.604,754.789C550.928,760.304 545.13,768.93 540.11,775.718L554.039,775.223L554.039,764.263C554.039,763.132 553.827,759.455 553.827,758.112C553.827,756.698 555.312,756.486 555.806,756.486C557.362,756.486 559.483,757.688 559.483,759.173C559.483,760.092 559.342,762.849 559.342,764.263L559.342,774.94L559.978,774.94C561.675,774.87 563.655,774.587 564.433,774.587C566.413,774.587 567.473,777.061 567.473,778.193C567.473,779.041 566.978,780.031 565.776,780.031C565.069,780.031 563.16,779.89 561.18,779.89L559.342,779.89L559.342,782.294Z" style="fill-rule:nonzero;"/>
        </g>
    </g>
</svg>
