<?xml version="1.0" encoding="UTF-8" standalone="no"?>
<!DOCTYPE svg PUBLIC "-//W3C//DTD SVG 1.1//EN" "http://www.w3.org/Graphics/SVG/1.1/DTD/svg11.dtd">
<svg width="100%" height="100%" viewBox="0 0 89 89" version="1.1" xmlns="http://www.w3.org/2000/svg" xmlns:xlink="http://www.w3.org/1999/xlink" xml:space="preserve" xmlns:serif="http://www.serif.com/" style="fill-rule:evenodd;clip-rule:evenodd;stroke-linejoin:round;stroke-miterlimit:2;">
    <g transform="matrix(1,0,0,1,-1602.51,-392.274)">
        <g transform="matrix(1.41414,0,0,1.41429,-1052.39,-837.704)">
            <path d="M1934.24,932.045C1937.63,932.045 1939.75,929.5 1939.75,926.53L1939.75,875.197C1939.75,871.732 1937.28,869.681 1934.24,869.681L1882.9,869.681C1879.44,869.681 1877.39,872.015 1877.39,875.197L1877.39,926.53C1877.39,929.712 1879.86,932.045 1882.9,932.045L1934.24,932.045ZM1891.95,882.692C1893.72,880.782 1896.05,879.51 1898.81,879.51C1906.8,879.51 1910.48,889.126 1910.48,900.51C1910.48,912.106 1906.66,923.277 1897.54,923.277C1888.84,923.277 1885.17,913.52 1885.17,901.995C1885.17,893.58 1888.21,882.621 1891.39,882.621C1891.6,882.621 1891.81,882.621 1891.95,882.692ZM1897.33,918.116C1902.56,918.116 1905.18,910.126 1905.18,900.085C1905.18,892.803 1903.83,884.53 1898.6,884.53C1895.7,884.53 1890.47,889.621 1890.47,901.924C1890.47,911.611 1892.59,918.116 1897.33,918.116ZM1928.93,921.368C1928.93,922.358 1928.09,922.924 1926.95,922.924C1925.26,922.924 1923.21,921.651 1923.21,920.308C1923.21,919.389 1923.35,916.49 1923.35,915.287L1923.35,887.782C1920.73,889.055 1917.97,889.621 1917.9,889.621C1916.35,889.621 1914.58,888.277 1914.58,887.287C1914.58,886.368 1915.29,885.944 1915.85,885.732C1918.61,884.671 1921.15,883.186 1922.85,881.914L1923.13,881.56L1923.84,880.924C1924.48,880.217 1925.33,879.722 1925.96,879.722C1927.31,879.722 1929.14,881.207 1929.14,882.904C1929.14,883.823 1928.79,884.813 1928.79,886.439L1928.79,914.934C1928.79,916.49 1928.86,919.813 1928.93,921.227L1928.93,921.368Z" style="fill-rule:nonzero;"/>
        </g>
    </g>
</svg>
