<?xml version="1.0" encoding="UTF-8" standalone="no"?>
<!DOCTYPE svg PUBLIC "-//W3C//DTD SVG 1.1//EN" "http://www.w3.org/Graphics/SVG/1.1/DTD/svg11.dtd">
<svg width="100%" height="100%" viewBox="0 0 89 89" version="1.1" xmlns="http://www.w3.org/2000/svg" xmlns:xlink="http://www.w3.org/1999/xlink" xml:space="preserve" xmlns:serif="http://www.serif.com/" style="fill-rule:evenodd;clip-rule:evenodd;stroke-linejoin:round;stroke-miterlimit:2;">
    <g transform="matrix(1,0,0,1,-2402.42,-992.274)">
        <g transform="matrix(1.41414,0,0,1.41429,-1052.39,-837.704)">
            <path d="M2499.89,1356.29C2503.29,1356.29 2505.41,1353.74 2505.41,1350.77L2505.41,1299.44C2505.41,1295.97 2502.93,1293.92 2499.89,1293.92L2448.56,1293.92C2445.1,1293.92 2443.04,1296.26 2443.04,1299.44L2443.04,1350.77C2443.04,1353.95 2445.52,1356.29 2448.56,1356.29L2499.89,1356.29ZM2489,1338.82C2489.5,1335.5 2490.21,1331.33 2490.91,1327.3C2488.65,1329.63 2485.82,1331.12 2482.99,1331.12C2477.83,1331.12 2474.37,1326.8 2474.37,1319.8C2474.37,1311.67 2479.81,1303.4 2487.17,1303.4C2490.7,1303.4 2493.03,1305.1 2494.38,1306.72C2494.59,1306.02 2494.94,1305.03 2496.08,1305.03C2497.49,1305.03 2499.04,1306.37 2499.04,1308L2499.04,1308.35C2498.83,1309.27 2498.48,1310.26 2498.41,1310.54C2495.51,1325.18 2493.25,1341.51 2492.96,1344.62C2492.89,1346.39 2491.05,1346.81 2489.99,1346.81C2488.79,1346.81 2487.94,1346.18 2487.94,1344.83C2487.94,1344.27 2488.16,1343.77 2488.23,1343.21L2489,1338.82ZM2468.64,1339.32C2468.64,1341.65 2468.92,1343.91 2468.92,1345.26C2468.92,1346.04 2468.22,1346.88 2467.09,1346.88C2465.6,1346.88 2463.62,1345.61 2463.62,1344.2C2463.62,1343.28 2463.76,1340.03 2463.76,1339.18L2463.76,1337.13L2453.37,1337.48C2453.09,1337.48 2452.38,1337.62 2451.11,1337.97L2451.25,1337.9L2451.11,1337.9C2449.55,1337.9 2447.92,1336.14 2447.92,1334.23C2447.92,1333.24 2448.21,1332.81 2449.34,1331.05C2451.18,1328.78 2460.37,1309.55 2461.99,1304.6C2462.28,1303.68 2462.98,1303.54 2463.41,1303.54C2464.82,1303.54 2466.66,1305.8 2466.66,1307.5C2466.66,1307.92 2466.52,1308.35 2466.31,1308.7C2465.74,1309.55 2465.03,1310.82 2464.61,1311.74C2461.92,1317.54 2457.82,1325.81 2454.29,1332.39L2463.76,1332.18L2463.76,1321.29C2463.76,1320.16 2463.62,1316.48 2463.62,1315.14C2463.62,1314.36 2464.33,1313.51 2465.46,1313.51C2466.87,1313.51 2468.78,1314.71 2468.78,1316.2C2468.78,1317.12 2468.64,1319.87 2468.64,1321.29L2468.64,1331.96C2469.56,1331.89 2470.97,1331.61 2471.61,1331.61C2473.31,1331.61 2474.16,1334.23 2474.16,1335.29C2474.16,1335.78 2473.94,1337.13 2472.67,1337.13C2471.96,1337.13 2470.05,1336.98 2468.64,1336.98L2468.64,1339.32ZM2493.25,1313.44C2492.75,1313.23 2492.47,1312.66 2492.26,1312.24C2491.62,1310.75 2490.42,1308.49 2487.45,1308.49C2482.22,1308.49 2479.03,1314.71 2479.03,1319.59C2479.03,1324.19 2480.45,1325.88 2482.92,1325.88C2486.81,1325.88 2489.29,1323.13 2491.76,1318.18C2492.26,1317.33 2492.68,1315.7 2493.11,1314.43L2493.25,1313.44Z" style="fill-rule:nonzero;"/>
        </g>
    </g>
</svg>
