<?xml version="1.0" encoding="UTF-8" standalone="no"?>
<!DOCTYPE svg PUBLIC "-//W3C//DTD SVG 1.1//EN" "http://www.w3.org/Graphics/SVG/1.1/DTD/svg11.dtd">
<svg width="100%" height="100%" viewBox="0 0 89 89" version="1.1" xmlns="http://www.w3.org/2000/svg" xmlns:xlink="http://www.w3.org/1999/xlink" xml:space="preserve" xmlns:serif="http://www.serif.com/" style="fill-rule:evenodd;clip-rule:evenodd;stroke-linejoin:round;stroke-miterlimit:2;">
    <g transform="matrix(1,0,0,1,-1802.48,-1142.27)">
        <g transform="matrix(1.41414,0,0,1.41429,-1052.39,-837.704)">
            <path d="M2075.65,1462.35C2079.04,1462.35 2081.17,1459.8 2081.17,1456.83L2081.17,1405.5C2081.17,1402.04 2078.69,1399.98 2075.65,1399.98L2024.32,1399.98C2020.85,1399.98 2018.8,1402.32 2018.8,1405.5L2018.8,1456.83C2018.8,1460.02 2021.28,1462.35 2024.32,1462.35L2075.65,1462.35ZM2030.96,1434.35C2030.68,1434.7 2030.4,1434.77 2029.97,1434.77C2028.7,1434.77 2027.08,1433.29 2027.08,1431.24C2027.08,1431.03 2027.08,1430.67 2027.14,1430.32C2027.36,1429.61 2027.43,1428.9 2027.57,1428.41L2028.77,1414.55C2028.84,1413.84 2028.84,1412.92 2028.84,1412.22C2028.84,1410.87 2029.76,1410.52 2030.47,1410.52C2031.03,1410.52 2031.81,1410.8 2032.45,1411.16L2041.43,1410.52C2042.35,1410.45 2043.62,1410.38 2044.54,1410.17L2044.75,1410.17C2046.24,1410.17 2047.09,1412.64 2047.09,1413.63C2047.09,1414.41 2046.66,1415.4 2045.67,1415.47L2041.92,1415.68L2033.09,1416.32L2032.1,1426.92C2033.86,1425.65 2035.84,1424.94 2038.46,1424.94C2044.19,1424.94 2048.99,1429.96 2048.99,1438.31C2048.99,1446.02 2045.32,1453.16 2036.34,1453.16C2030.96,1453.16 2025.8,1448.35 2025.8,1445.66C2025.8,1444.32 2026.58,1441.77 2028.13,1441.77C2028.77,1441.77 2029.2,1442.2 2029.41,1442.69C2031.11,1445.66 2033.15,1447.92 2036.34,1447.92C2042.07,1447.92 2044.33,1443.47 2044.33,1438.38C2044.33,1433.01 2041.85,1430.04 2037.96,1430.04C2035.77,1430.04 2033.86,1431.17 2032.31,1432.86L2030.96,1434.35ZM2068.16,1428.41C2071.69,1429.4 2074.52,1433.36 2074.52,1438.73C2074.52,1446.44 2070.7,1453.16 2061.51,1453.16C2057.62,1453.16 2054.51,1451.39 2051.75,1448.28C2051.26,1447.64 2051.19,1446.93 2051.19,1446.37C2051.19,1445.24 2051.89,1442.69 2053.52,1442.69C2053.87,1442.69 2054.23,1442.9 2054.65,1443.4C2056.63,1446.23 2058.54,1448 2061.51,1448C2067.52,1448 2069.85,1443.54 2069.85,1438.8C2069.85,1434.84 2067.24,1431.94 2063.35,1431.94C2062,1431.94 2060.45,1432.23 2059.67,1432.44C2059.53,1432.51 2059.53,1432.51 2059.39,1432.51C2057.76,1432.51 2056.91,1430.32 2056.91,1429.19C2056.91,1428.41 2057.34,1427.49 2058.26,1427.28C2063.42,1426.85 2068.37,1423.67 2068.37,1419.64C2068.37,1416.53 2066.67,1414.55 2063.42,1414.55C2060.8,1414.55 2058.54,1415.82 2056.21,1418.93C2055.78,1419.57 2055.36,1420.21 2054.51,1420.21C2052.95,1420.21 2052.18,1417.94 2052.18,1416.74C2052.18,1414.2 2057.34,1409.46 2063.35,1409.46C2068.93,1409.46 2073.03,1413 2073.03,1419.29C2073.03,1424.73 2069.57,1427.7 2068.16,1428.41Z" style="fill-rule:nonzero;"/>
        </g>
    </g>
</svg>
