<?xml version="1.0" encoding="UTF-8" standalone="no"?>
<!DOCTYPE svg PUBLIC "-//W3C//DTD SVG 1.1//EN" "http://www.w3.org/Graphics/SVG/1.1/DTD/svg11.dtd">
<svg width="100%" height="100%" viewBox="0 0 89 89" version="1.1" xmlns="http://www.w3.org/2000/svg" xmlns:xlink="http://www.w3.org/1999/xlink" xml:space="preserve" xmlns:serif="http://www.serif.com/" style="fill-rule:evenodd;clip-rule:evenodd;stroke-linejoin:round;stroke-miterlimit:2;">
    <g transform="matrix(1,0,0,1,-1702.49,-1292.27)">
        <g transform="matrix(1.41414,0,0,1.41429,-1052.39,-837.704)">
            <path d="M1983.87,1558.51C1982.11,1558.51 1981.04,1556.39 1981.04,1554.97C1981.04,1554.55 1981.12,1553.98 1981.4,1553.49C1981.89,1552.85 1982.18,1552.43 1982.39,1551.93C1984.44,1547.76 1988.12,1541.54 1992.64,1536.94C1996.95,1532.56 1999.29,1529.31 1999.29,1526.06C1999.29,1523.09 1997.38,1520.61 1994.05,1520.61C1990.45,1520.61 1987.97,1522.94 1986.91,1525.98C1986.7,1526.76 1986.07,1528.04 1984.79,1528.04C1983.8,1528.04 1981.89,1526.55 1981.89,1524.64C1981.89,1524.22 1981.96,1523.58 1982.32,1523.09C1984.58,1518.63 1988.47,1515.52 1994.2,1515.52C2000.42,1515.52 2004.52,1519.9 2004.52,1526.06C2004.52,1531.78 2000.77,1536.17 1995.96,1540.9C1992.14,1544.65 1989.32,1549.32 1987.48,1553C1989.18,1552.85 1991.15,1552.78 1992.64,1552.78C1995.19,1552.78 1996.88,1552.85 1999,1552.85C1999.92,1552.85 2001.62,1552.78 2002.33,1552.78C2004.1,1552.78 2004.94,1555.33 2004.94,1556.39C2004.94,1557.24 2004.45,1558.23 2003.25,1558.23C2000.35,1557.94 1996.11,1557.8 1992.08,1557.8C1990.31,1557.8 1988.61,1557.8 1986.49,1558.09C1985.92,1558.09 1984.37,1558.44 1984.15,1558.51L1983.87,1558.51ZM1962.38,1532.77C1963.93,1531.92 1965.7,1531.43 1967.61,1531.43C1974.54,1531.43 1979.21,1537.02 1979.21,1544.51C1979.21,1552.71 1974.54,1559.22 1966.76,1559.22C1959.69,1559.22 1954.32,1553.35 1954.32,1546.07C1954.32,1541.05 1955.59,1536.03 1958.13,1530.65C1960.54,1525.49 1962.73,1521.25 1964.92,1517.71C1965.07,1517.64 1965.13,1517.43 1965.21,1517.29C1965.49,1516.65 1966.2,1515.45 1967.75,1515.45C1968.46,1515.45 1970.93,1515.73 1970.93,1517.78C1970.93,1518.42 1970.51,1519.27 1970.15,1519.69C1966.9,1523.93 1964.36,1528.81 1962.38,1532.77ZM1966.76,1554.2C1970.93,1554.2 1974.19,1550.38 1974.19,1544.65C1974.19,1540.2 1971.64,1536.45 1967.61,1536.45C1962.52,1536.45 1959.2,1540.83 1959.2,1546C1959.2,1550.66 1962.31,1554.2 1966.76,1554.2ZM2004.94,1568.41C2008.34,1568.41 2010.46,1565.86 2010.46,1562.89L2010.46,1511.56C2010.46,1508.1 2007.98,1506.05 2004.94,1506.05L1953.61,1506.05C1950.14,1506.05 1948.1,1508.38 1948.1,1511.56L1948.1,1562.89C1948.1,1566.08 1950.57,1568.41 1953.61,1568.41L2004.94,1568.41Z" style="fill-rule:nonzero;"/>
        </g>
    </g>
</svg>
