<?xml version="1.0" encoding="UTF-8" standalone="no"?>
<!DOCTYPE svg PUBLIC "-//W3C//DTD SVG 1.1//EN" "http://www.w3.org/Graphics/SVG/1.1/DTD/svg11.dtd">
<svg width="100%" height="100%" viewBox="0 0 96 96" version="1.1" xmlns="http://www.w3.org/2000/svg" xmlns:xlink="http://www.w3.org/1999/xlink" xml:space="preserve" xmlns:serif="http://www.serif.com/" style="fill-rule:evenodd;clip-rule:evenodd;stroke-linejoin:round;stroke-miterlimit:2;">
    <g transform="matrix(1,0,0,1,-209.628,-3023.28)">
        <g transform="matrix(1,0,0,1,-110.019,-3591.86)">
            <path d="M415.248,6662.94C415.248,6636.55 393.848,6615.15 367.448,6615.15C341.048,6615.15 319.648,6636.55 319.648,6662.94C319.648,6689.35 341.048,6710.65 367.448,6710.65C393.848,6710.65 415.248,6689.35 415.248,6662.94ZM344.448,6637.74C346.848,6635.05 350.048,6633.24 353.848,6633.24C364.948,6633.24 370.048,6646.55 370.048,6662.35C370.048,6678.44 364.748,6693.94 352.148,6693.94C340.048,6693.94 334.948,6680.44 334.948,6664.44C334.948,6650.74 339.648,6637.55 343.548,6637.55C343.848,6637.55 344.148,6637.65 344.448,6637.74ZM351.848,6686.74C359.048,6686.74 362.748,6675.74 362.748,6661.74C362.748,6651.65 360.848,6640.24 353.548,6640.24C349.548,6640.24 342.348,6647.35 342.348,6664.35C342.348,6677.74 345.248,6686.74 351.848,6686.74ZM395.448,6682.35C395.448,6684.55 395.548,6689.05 395.648,6691.15C395.648,6692.55 394.548,6693.44 392.848,6693.44C390.548,6693.44 387.648,6691.65 387.648,6689.85C387.648,6688.55 387.848,6684.55 387.848,6682.85L387.848,6644.74C384.848,6646.05 381.648,6647.24 380.348,6647.24C378.148,6647.24 375.748,6645.44 375.748,6644.05C375.748,6642.85 376.748,6642.15 377.448,6641.85C381.248,6640.35 384.848,6638.35 387.148,6636.65L387.648,6636.15L388.548,6635.15C389.548,6634.24 390.648,6633.55 391.548,6633.55C393.448,6633.55 395.948,6635.65 395.948,6637.94C395.948,6639.24 395.448,6640.65 395.448,6642.85L395.448,6682.35Z" style="fill-rule:nonzero;"/>
        </g>
    </g>
</svg>
