<?xml version="1.0" encoding="UTF-8" standalone="no"?>
<!DOCTYPE svg PUBLIC "-//W3C//DTD SVG 1.1//EN" "http://www.w3.org/Graphics/SVG/1.1/DTD/svg11.dtd">
<svg width="100%" height="100%" viewBox="0 0 96 96" version="1.1" xmlns="http://www.w3.org/2000/svg" xmlns:xlink="http://www.w3.org/1999/xlink" xml:space="preserve" xmlns:serif="http://www.serif.com/" style="fill-rule:evenodd;clip-rule:evenodd;stroke-linejoin:round;stroke-miterlimit:2;">
    <g transform="matrix(1,0,0,1,-1809.63,-3023.28)">
        <g transform="matrix(1,0,0,1,-110.019,-3591.86)">
            <path d="M2015.25,6662.94C2015.25,6636.55 1993.85,6615.15 1967.45,6615.15C1941.05,6615.15 1919.65,6636.55 1919.65,6662.94C1919.65,6689.35 1941.05,6710.65 1967.45,6710.65C1993.85,6710.65 2015.25,6689.35 2015.25,6662.94ZM1978.15,6690.55C1977.85,6692.55 1975.85,6692.85 1974.65,6692.85C1974.25,6692.85 1973.85,6692.74 1973.45,6692.74C1971.35,6692.44 1969.95,6691.44 1969.95,6689.74C1969.95,6689.05 1970.15,6688.55 1970.25,6688.15L1970.65,6687.35C1981.15,6659.94 1985.65,6650.44 1990.25,6641.24L1969.65,6643.05C1968.85,6643.05 1968.05,6643.24 1967.35,6643.24C1964.15,6643.24 1962.05,6639.55 1962.05,6637.74C1962.05,6637.15 1962.35,6635.85 1963.85,6635.85C1964.75,6635.85 1965.55,6635.94 1966.85,6635.94L1967.85,6635.94L1991.85,6634.15C1992.35,6634.15 1992.75,6633.94 1993.25,6633.85C1993.95,6633.65 1994.55,6633.55 1995.15,6633.55L1995.45,6633.55C1997.25,6633.85 1999.95,6636.05 1999.95,6638.35L1999.95,6638.74C1999.75,6639.85 1999.35,6640.65 1998.95,6641.35C1998.55,6641.94 1998.15,6642.55 1997.95,6643.05C1991.55,6655.35 1984.65,6670.74 1980.05,6683.94L1978.15,6690.55ZM1951.75,6681.94C1951.75,6684.15 1951.85,6688.65 1951.95,6690.74C1951.95,6692.15 1950.85,6693.05 1949.15,6693.05C1946.85,6693.05 1943.95,6691.24 1943.95,6689.44C1943.95,6688.15 1944.15,6684.15 1944.15,6682.44L1944.15,6644.35C1941.35,6645.65 1938.15,6646.85 1936.65,6646.85C1934.55,6646.85 1932.05,6645.05 1932.05,6643.65C1932.05,6642.44 1933.05,6641.74 1933.75,6641.44C1937.55,6639.94 1941.15,6637.94 1943.45,6636.24C1943.65,6636.15 1944.45,6635.24 1944.85,6634.74C1945.85,6633.85 1946.95,6633.15 1947.85,6633.15C1949.75,6633.15 1952.25,6635.24 1952.25,6637.55C1952.25,6638.85 1951.75,6640.24 1951.75,6642.44L1951.75,6681.94Z" style="fill-rule:nonzero;"/>
        </g>
    </g>
</svg>
