<?xml version="1.0" encoding="UTF-8" standalone="no"?>
<!DOCTYPE svg PUBLIC "-//W3C//DTD SVG 1.1//EN" "http://www.w3.org/Graphics/SVG/1.1/DTD/svg11.dtd">
<svg width="100%" height="100%" viewBox="0 0 89 89" version="1.1" xmlns="http://www.w3.org/2000/svg" xmlns:xlink="http://www.w3.org/1999/xlink" xml:space="preserve" xmlns:serif="http://www.serif.com/" style="fill-rule:evenodd;clip-rule:evenodd;stroke-linejoin:round;stroke-miterlimit:2;">
    <g transform="matrix(1,0,0,1,-2002.46,-2042.27)">
        <g transform="matrix(1.41414,0,0,1.41429,-1052.39,-837.704)">
            <path d="M2217.07,2098.71C2220.46,2098.71 2222.58,2096.17 2222.58,2093.2L2222.58,2041.86C2222.58,2038.4 2220.11,2036.35 2217.07,2036.35L2165.73,2036.35C2162.27,2036.35 2160.22,2038.68 2160.22,2041.86L2160.22,2093.2C2160.22,2096.38 2162.69,2098.71 2165.73,2098.71L2217.07,2098.71ZM2203.77,2081.39C2203.77,2083.79 2203.98,2086.34 2203.98,2087.75C2203.98,2089.1 2202.64,2089.38 2202,2089.38C2200.94,2089.38 2198.33,2088.67 2198.33,2086.62C2198.33,2085.7 2198.4,2083.44 2198.4,2081.32L2198.4,2073.89C2195.29,2077.92 2191.26,2079.76 2187.01,2079.76C2180.44,2079.76 2176.2,2074.53 2176.2,2066.61C2176.2,2056.85 2183.62,2047.59 2192.03,2047.59C2194.37,2047.59 2196.56,2048.16 2198.33,2049.57L2198.33,2049.22C2198.33,2047.87 2199.67,2047.59 2200.31,2047.59C2201.3,2047.59 2203.91,2048.3 2203.91,2050.28C2203.91,2051.27 2203.77,2053.53 2203.77,2055.65L2203.77,2081.39ZM2198.4,2056.22C2197.9,2056.15 2197.48,2055.86 2197.2,2055.44C2195.85,2053.39 2193.94,2052.61 2192.11,2052.61C2186.31,2052.61 2181.78,2059.4 2181.78,2066.4C2181.78,2072.34 2184.33,2074.67 2187.01,2074.67C2191.96,2074.67 2198.4,2068.24 2198.4,2061.31L2198.4,2056.22Z" style="fill-rule:nonzero;"/>
        </g>
    </g>
</svg>
