<?xml version="1.0" encoding="UTF-8" standalone="no"?>
<!DOCTYPE svg PUBLIC "-//W3C//DTD SVG 1.1//EN" "http://www.w3.org/Graphics/SVG/1.1/DTD/svg11.dtd">
<svg width="100%" height="100%" viewBox="0 0 89 89" version="1.1" xmlns="http://www.w3.org/2000/svg" xmlns:xlink="http://www.w3.org/1999/xlink" xml:space="preserve" xmlns:serif="http://www.serif.com/" style="fill-rule:evenodd;clip-rule:evenodd;stroke-linejoin:round;stroke-miterlimit:2;">
    <g transform="matrix(1,0,0,1,-1902.47,-1292.27)">
        <g transform="matrix(1.41414,0,0,1.41429,-1052.39,-837.704)">
            <path d="M2146.36,1568.41C2149.75,1568.41 2151.87,1565.86 2151.87,1562.89L2151.87,1511.56C2151.87,1508.1 2149.4,1506.05 2146.36,1506.05L2095.02,1506.05C2091.56,1506.05 2089.51,1508.38 2089.51,1511.56L2089.51,1562.89C2089.51,1566.08 2091.98,1568.41 2095.02,1568.41L2146.36,1568.41ZM2103.93,1532.77C2105.35,1531.92 2107.04,1531.43 2108.88,1531.43C2115.46,1531.43 2119.84,1537.02 2119.84,1544.51C2119.84,1552.71 2115.46,1559.22 2108.03,1559.22C2101.39,1559.22 2096.3,1553.35 2096.3,1546.07C2096.3,1541.05 2097.5,1536.03 2099.9,1530.65C2102.17,1525.49 2104.29,1521.25 2106.34,1517.71C2106.48,1517.57 2106.9,1516.79 2106.97,1516.65C2107.47,1515.73 2108.32,1515.45 2109.02,1515.45C2109.59,1515.45 2110.23,1515.66 2110.51,1515.8C2111.43,1516.16 2112.07,1516.72 2112.07,1517.78C2112.07,1518.42 2111.57,1519.27 2111.29,1519.69C2108.18,1523.93 2105.77,1528.81 2103.93,1532.77ZM2142.54,1551.44C2142.54,1553.77 2142.75,1556.04 2142.75,1557.38C2142.75,1558.16 2142.12,1559.01 2140.98,1559.01C2139.57,1559.01 2137.73,1557.73 2137.73,1556.32C2137.73,1555.4 2137.87,1552.15 2137.87,1551.3L2137.87,1549.25L2127.97,1549.6C2127.69,1549.6 2127.12,1549.74 2125.99,1550.03L2125.85,1550.03C2124.37,1550.03 2122.81,1548.26 2122.81,1546.35C2122.81,1546 2122.81,1545.15 2124.16,1543.17C2124.51,1542.74 2124.72,1542.39 2124.86,1542.04C2128.04,1535.95 2134.12,1523.02 2136.18,1516.72C2136.46,1515.8 2137.17,1515.66 2137.52,1515.66C2138.86,1515.66 2140.56,1517.92 2140.56,1519.62C2140.56,1520.05 2140.49,1520.47 2140.28,1520.82C2139.71,1521.67 2139.07,1522.94 2138.65,1523.86C2136.18,1529.66 2132.22,1537.93 2128.89,1544.51L2137.87,1544.3L2137.87,1533.41C2137.87,1532.28 2137.73,1528.6 2137.73,1527.26C2137.73,1526.48 2138.37,1525.63 2139.5,1525.63C2140.84,1525.63 2142.61,1526.83 2142.61,1528.32C2142.61,1529.24 2142.54,1532 2142.54,1533.41L2142.54,1544.09C2143.39,1544.02 2144.73,1543.73 2145.3,1543.73C2146.92,1543.73 2147.7,1546.35 2147.7,1547.41C2147.7,1547.9 2147.56,1549.25 2146.36,1549.25C2145.65,1549.25 2143.88,1549.11 2142.54,1549.11L2142.54,1551.44ZM2108.03,1554.2C2112.07,1554.2 2115.11,1550.38 2115.11,1544.65C2115.11,1540.2 2112.7,1536.45 2108.88,1536.45C2104,1536.45 2100.96,1540.83 2100.96,1546C2100.96,1550.66 2103.86,1554.2 2108.03,1554.2Z" style="fill-rule:nonzero;"/>
        </g>
    </g>
</svg>
