<?xml version="1.0" encoding="UTF-8" standalone="no"?>
<!DOCTYPE svg PUBLIC "-//W3C//DTD SVG 1.1//EN" "http://www.w3.org/Graphics/SVG/1.1/DTD/svg11.dtd">
<svg width="100%" height="100%" viewBox="0 0 89 89" version="1.1" xmlns="http://www.w3.org/2000/svg" xmlns:xlink="http://www.w3.org/1999/xlink" xml:space="preserve" xmlns:serif="http://www.serif.com/" style="fill-rule:evenodd;clip-rule:evenodd;stroke-linejoin:round;stroke-miterlimit:2;">
    <g transform="matrix(1,0,0,1,-1702.49,-842.274)">
        <g transform="matrix(1.41414,0,0,1.41429,-1052.39,-837.704)">
            <path d="M2004.94,1250.23C2008.34,1250.23 2010.46,1247.68 2010.46,1244.71L2010.46,1193.38C2010.46,1189.91 2007.98,1187.86 2004.94,1187.86L1953.61,1187.86C1950.14,1187.86 1948.1,1190.2 1948.1,1193.38L1948.1,1244.71C1948.1,1247.89 1950.57,1250.23 1953.61,1250.23L2004.94,1250.23ZM1971.92,1216.29C1975.6,1217.28 1978.64,1221.24 1978.64,1226.61C1978.64,1234.32 1974.54,1241.04 1964.92,1241.04C1960.82,1241.04 1957.57,1239.27 1954.67,1236.16C1954.11,1235.52 1954.03,1234.81 1954.03,1234.25C1954.03,1233.12 1954.81,1230.57 1956.51,1230.57C1956.86,1230.57 1957.29,1230.78 1957.71,1231.28C1959.76,1234.11 1961.81,1235.87 1964.92,1235.87C1971.29,1235.87 1973.62,1231.42 1973.62,1226.68C1973.62,1222.72 1970.93,1219.82 1966.83,1219.82C1965.28,1219.82 1963.58,1220.18 1962.94,1220.32C1962.8,1220.39 1962.8,1220.39 1962.66,1220.39C1960.96,1220.39 1960.12,1218.2 1960.12,1217.07C1960.12,1216.29 1960.54,1215.37 1961.53,1215.16C1966.41,1214.8 1972.13,1211.76 1972.13,1207.52C1972.13,1204.41 1970.37,1202.43 1966.9,1202.43C1964.14,1202.43 1961.81,1203.7 1959.34,1206.81C1958.84,1207.45 1958.42,1208.09 1957.57,1208.09C1956.3,1208.09 1955.1,1206.18 1955.1,1204.62C1955.1,1203.77 1955.45,1203.14 1955.8,1202.78C1958.63,1199.32 1962.24,1197.34 1966.83,1197.34C1972.77,1197.34 1977.01,1200.87 1977.01,1207.17C1977.01,1212.61 1973.41,1215.58 1971.92,1216.29ZM1983.52,1240.33C1981.75,1240.33 1980.69,1238.21 1980.69,1236.79C1980.69,1236.37 1980.76,1235.8 1981.12,1235.31L1982.11,1233.75C1984.09,1229.58 1987.83,1223.36 1992.29,1218.76C1996.6,1214.38 1998.93,1211.13 1998.93,1207.87C1998.93,1204.9 1997.1,1202.43 1993.7,1202.43C1990.1,1202.43 1987.62,1204.76 1986.63,1207.8C1986.35,1208.58 1985.71,1209.85 1984.44,1209.85C1983.45,1209.85 1981.54,1208.23 1981.54,1206.46C1981.54,1206.04 1981.61,1205.4 1981.96,1204.9C1984.23,1200.45 1988.12,1197.34 1993.84,1197.34C2000.13,1197.34 2004.17,1201.72 2004.17,1207.87C2004.17,1213.6 2000.42,1217.98 1995.61,1222.72C1991.79,1226.47 1988.96,1231.14 1987.12,1234.81C1988.82,1234.67 1990.8,1234.6 1992.29,1234.6C1994.83,1234.6 1996.53,1234.67 1998.65,1234.67C1999.57,1234.67 2001.34,1234.6 2001.97,1234.6C2003.74,1234.6 2004.59,1237.15 2004.59,1238.21C2004.59,1239.06 2004.1,1240.05 2002.96,1240.05C1998.51,1239.62 1993.7,1239.62 1991.79,1239.62C1990.02,1239.62 1988.26,1239.62 1986.13,1239.9C1985.64,1239.9 1984.23,1240.26 1983.87,1240.33L1983.52,1240.33Z" style="fill-rule:nonzero;"/>
        </g>
    </g>
</svg>
