<?xml version="1.0" encoding="UTF-8" standalone="no"?>
<!DOCTYPE svg PUBLIC "-//W3C//DTD SVG 1.1//EN" "http://www.w3.org/Graphics/SVG/1.1/DTD/svg11.dtd">
<svg width="100%" height="100%" viewBox="0 0 89 89" version="1.1" xmlns="http://www.w3.org/2000/svg" xmlns:xlink="http://www.w3.org/1999/xlink" xml:space="preserve" xmlns:serif="http://www.serif.com/" style="fill-rule:evenodd;clip-rule:evenodd;stroke-linejoin:round;stroke-miterlimit:2;">
    <g transform="matrix(1,0,0,1,-758.718,-1021.63)">
        <g transform="matrix(1.41414,0,0,1.41429,-177.055,-770.755)">
            <path d="M724.089,1329.71L724.089,1267.34L661.726,1267.34L661.726,1329.71L724.089,1329.71ZM702.382,1294.07C703.867,1293.22 705.564,1292.73 707.402,1292.73C713.908,1292.73 718.362,1298.31 718.362,1305.81C718.362,1314.01 713.908,1320.52 706.554,1320.52C699.908,1320.52 694.817,1314.65 694.817,1307.36C694.817,1302.34 696.019,1297.32 698.423,1291.95C700.685,1286.79 702.806,1282.55 704.857,1279.01C704.998,1278.87 705.423,1278.09 705.493,1277.95C705.988,1277.03 706.837,1276.75 707.544,1276.75C708.604,1276.75 710.584,1277.45 710.584,1279.08C710.584,1279.72 710.089,1280.57 709.806,1280.99C706.695,1285.23 704.291,1290.11 702.382,1294.07ZM687.039,1312.74C687.039,1315.07 687.251,1317.33 687.251,1318.68C687.251,1319.45 686.615,1320.3 685.483,1320.3C684.069,1320.3 682.231,1319.03 682.231,1317.62C682.231,1316.7 682.372,1313.44 682.372,1312.6L682.372,1310.55L672.473,1310.9C672.19,1310.9 671.625,1311.04 670.493,1311.32L670.352,1311.32C668.867,1311.32 667.312,1309.56 667.312,1307.65C667.312,1307.29 667.312,1306.44 668.655,1304.46C668.938,1304.04 669.221,1303.69 669.362,1303.33C673.463,1295.41 679.261,1282.33 680.675,1278.02C680.958,1277.1 681.594,1276.96 682.019,1276.96C683.362,1276.96 685.059,1279.22 685.059,1280.92C685.059,1281.34 684.988,1281.77 684.776,1282.12C684.211,1282.97 683.574,1284.24 683.15,1285.16C680.604,1290.96 676.716,1299.23 673.392,1305.81L682.372,1305.6L682.372,1294.71C682.372,1293.58 682.231,1289.9 682.231,1288.56C682.231,1287.78 682.867,1286.93 683.998,1286.93C685.342,1286.93 687.11,1288.13 687.11,1289.62C687.11,1290.54 687.039,1293.29 687.039,1294.71L687.039,1305.38C687.887,1305.31 689.231,1305.03 689.796,1305.03C691.423,1305.03 692.2,1307.65 692.2,1308.71C692.2,1309.2 692.059,1310.55 690.857,1310.55C690.15,1310.55 688.312,1310.4 687.039,1310.4L687.039,1312.74ZM706.554,1315.5C710.584,1315.5 713.625,1311.68 713.625,1305.95C713.625,1301.5 711.221,1297.75 707.332,1297.75C702.524,1297.75 699.413,1302.13 699.413,1307.29C699.413,1311.96 702.382,1315.5 706.554,1315.5Z" style="fill-rule:nonzero;"/>
        </g>
    </g>
</svg>
