<?xml version="1.0" encoding="UTF-8" standalone="no"?>
<!DOCTYPE svg PUBLIC "-//W3C//DTD SVG 1.1//EN" "http://www.w3.org/Graphics/SVG/1.1/DTD/svg11.dtd">
<svg width="100%" height="100%" viewBox="0 0 89 89" version="1.1" xmlns="http://www.w3.org/2000/svg" xmlns:xlink="http://www.w3.org/1999/xlink" xml:space="preserve" xmlns:serif="http://www.serif.com/" style="fill-rule:evenodd;clip-rule:evenodd;stroke-linejoin:round;stroke-miterlimit:2;">
    <g transform="matrix(1,0,0,1,-1802.48,-2192.27)">
        <g transform="matrix(1.41414,0,0,1.41429,-1052.39,-837.704)">
            <path d="M2075.65,2204.77C2079.04,2204.77 2081.17,2202.23 2081.17,2199.26L2081.17,2147.92C2081.17,2144.46 2078.69,2142.41 2075.65,2142.41L2024.32,2142.41C2020.85,2142.41 2018.8,2144.74 2018.8,2147.92L2018.8,2199.26C2018.8,2202.44 2021.28,2204.77 2024.32,2204.77L2075.65,2204.77ZM2060.8,2189.5C2059.25,2189.43 2057.69,2189.22 2055.99,2189.15L2047.93,2189.15C2045.53,2189.15 2041.57,2189.36 2038.53,2189.71C2037.33,2189.71 2036.05,2187.94 2036.05,2186.11C2036.05,2185.82 2036.05,2184.55 2037.4,2183.21L2038.32,2182.22C2042.7,2176.28 2048.71,2168.92 2053.1,2163.97L2046.1,2164.47C2044.54,2164.54 2043.27,2164.75 2041.85,2164.89C2039.8,2164.89 2038.39,2162.21 2038.39,2160.93C2038.39,2160.51 2038.6,2159.31 2039.94,2159.31C2041.14,2159.31 2042.49,2159.38 2043.9,2159.38C2044.54,2159.38 2045.25,2159.38 2045.88,2159.31L2055.29,2158.67C2055.36,2158.67 2055.5,2158.67 2055.57,2158.6C2056.42,2158.46 2056.98,2158.32 2057.83,2158.32C2059.74,2158.53 2061.37,2161.01 2061.37,2162.42C2061.37,2163.05 2060.94,2163.69 2060.31,2164.19C2060.1,2164.4 2059.67,2164.61 2059.46,2164.82C2054.58,2169.98 2048.29,2177.76 2043.48,2184.13C2045.03,2184.05 2046.87,2183.98 2047.93,2183.98C2050.2,2183.98 2053.94,2183.98 2055.99,2184.05C2056.91,2184.05 2058.4,2183.98 2059.67,2183.91L2059.81,2183.91C2061.79,2183.91 2062.57,2186.6 2062.57,2187.66C2062.57,2188.3 2062.14,2189.5 2060.94,2189.5L2060.8,2189.5Z" style="fill-rule:nonzero;"/>
        </g>
    </g>
</svg>
