<?xml version="1.0" encoding="UTF-8" standalone="no"?>
<!DOCTYPE svg PUBLIC "-//W3C//DTD SVG 1.1//EN" "http://www.w3.org/Graphics/SVG/1.1/DTD/svg11.dtd">
<svg width="100%" height="100%" viewBox="0 0 89 89" version="1.1" xmlns="http://www.w3.org/2000/svg" xmlns:xlink="http://www.w3.org/1999/xlink" xml:space="preserve" xmlns:serif="http://www.serif.com/" style="fill-rule:evenodd;clip-rule:evenodd;stroke-linejoin:round;stroke-miterlimit:2;">
    <g transform="matrix(1,0,0,1,-1702.49,-992.274)">
        <g transform="matrix(1.41414,0,0,1.41429,-1052.39,-837.704)">
            <path d="M2004.94,1356.29C2008.34,1356.29 2010.46,1353.74 2010.46,1350.77L2010.46,1299.44C2010.46,1295.97 2007.98,1293.92 2004.94,1293.92L1953.61,1293.92C1950.14,1293.92 1948.1,1296.26 1948.1,1299.44L1948.1,1350.77C1948.1,1353.95 1950.57,1356.29 1953.61,1356.29L2004.94,1356.29ZM1974.26,1339.32C1974.26,1341.65 1974.54,1343.91 1974.54,1345.26C1974.54,1346.04 1973.83,1346.88 1972.7,1346.88C1971.22,1346.88 1969.24,1345.61 1969.24,1344.2C1969.24,1343.28 1969.38,1340.03 1969.38,1339.18L1969.38,1337.13L1958.91,1337.48C1958.63,1337.48 1957.99,1337.62 1956.86,1337.9L1956.65,1337.9C1955.1,1337.9 1953.47,1336.14 1953.47,1334.23C1953.47,1333.73 1953.61,1333.1 1953.96,1332.46C1954.32,1331.96 1954.6,1331.47 1954.95,1331.05C1955.66,1329.98 1964.99,1312.59 1967.54,1304.6C1967.89,1303.68 1968.6,1303.54 1968.95,1303.54C1970.44,1303.54 1972.21,1305.8 1972.21,1307.5C1972.21,1307.92 1972.13,1308.35 1971.92,1308.7C1971.36,1309.55 1970.65,1310.82 1970.23,1311.74C1967.54,1317.54 1963.37,1325.81 1959.9,1332.39L1969.38,1332.18L1969.38,1321.29C1969.38,1320.16 1969.24,1316.48 1969.24,1315.14C1969.24,1314.36 1969.94,1313.51 1971.08,1313.51C1972.49,1313.51 1974.4,1314.71 1974.4,1316.2C1974.4,1317.12 1974.26,1319.87 1974.26,1321.29L1974.26,1331.96C1975.18,1331.89 1976.59,1331.61 1977.23,1331.61C1978.92,1331.61 1979.77,1334.23 1979.77,1335.29C1979.77,1335.78 1979.56,1337.13 1978.29,1337.13C1977.58,1337.13 1975.67,1336.98 1974.26,1336.98L1974.26,1339.32ZM1983.52,1346.39C1981.89,1346.39 1980.9,1344.27 1980.9,1342.85C1980.9,1342.43 1980.9,1341.86 1981.26,1341.37C1981.68,1340.73 1981.96,1340.31 1982.18,1339.81C1984.15,1335.64 1987.62,1329.42 1991.86,1324.82C1996.03,1320.44 1998.23,1317.19 1998.23,1313.93C1998.23,1310.96 1996.46,1308.49 1993.28,1308.49C1989.81,1308.49 1987.48,1310.82 1986.49,1313.86C1986.28,1314.64 1985.64,1315.91 1984.44,1315.91C1983.02,1315.91 1981.68,1313.72 1981.68,1312.52C1981.68,1312.1 1981.75,1311.46 1982.11,1310.96C1984.23,1306.51 1987.97,1303.4 1993.35,1303.4C1999.29,1303.4 2003.18,1307.78 2003.18,1313.93C2003.18,1319.66 1999.64,1324.05 1995.04,1328.78C1991.44,1332.53 1988.75,1337.2 1986.98,1340.87C1988.61,1340.73 1990.52,1340.66 1991.93,1340.66C1994.34,1340.66 1995.96,1340.73 1997.94,1340.73C1998.79,1340.73 2000.49,1340.66 2001.12,1340.66C2002.75,1340.66 2003.6,1343.21 2003.6,1344.27C2003.6,1345.12 2003.11,1346.11 2002.04,1346.11C2000.98,1345.96 1997.24,1345.68 1991.37,1345.68C1989.74,1345.68 1988.04,1345.68 1986.07,1345.96C1985.64,1345.96 1984.23,1346.32 1983.87,1346.39L1983.52,1346.39Z" style="fill-rule:nonzero;"/>
        </g>
    </g>
</svg>
