<?xml version="1.0" encoding="UTF-8" standalone="no"?>
<!DOCTYPE svg PUBLIC "-//W3C//DTD SVG 1.1//EN" "http://www.w3.org/Graphics/SVG/1.1/DTD/svg11.dtd">
<svg width="100%" height="100%" viewBox="0 0 89 89" version="1.1" xmlns="http://www.w3.org/2000/svg" xmlns:xlink="http://www.w3.org/1999/xlink" xml:space="preserve" xmlns:serif="http://www.serif.com/" style="fill-rule:evenodd;clip-rule:evenodd;stroke-linejoin:round;stroke-miterlimit:2;">
    <g transform="matrix(1,0,0,1,-558.739,-1021.63)">
        <g transform="matrix(1.41414,0,0,1.41429,-177.055,-770.755)">
            <path d="M582.675,1329.71L582.675,1267.34L520.312,1267.34L520.312,1329.71L582.675,1329.71ZM572.988,1312.74C572.988,1315.07 573.271,1317.33 573.271,1318.68C573.271,1319.45 572.564,1320.3 571.362,1320.3C569.877,1320.3 567.968,1319.03 567.968,1317.62C567.968,1316.7 568.11,1313.44 568.11,1312.6L568.11,1310.55L557.645,1310.9C557.362,1310.9 556.726,1311.04 555.453,1311.39L555.594,1311.32L555.453,1311.32C553.897,1311.32 552.271,1309.56 552.271,1307.65C552.271,1306.52 553.19,1305.1 553.685,1304.46C553.968,1304.04 554.251,1303.69 554.392,1303.33C555.524,1301.28 563.867,1285.59 566.271,1278.02C566.625,1277.1 567.332,1276.96 567.685,1276.96C569.17,1276.96 570.938,1279.22 570.938,1280.92C570.938,1281.34 570.867,1281.77 570.655,1282.12C570.089,1282.97 569.312,1284.24 568.958,1285.16C566.271,1290.96 562.099,1299.23 558.635,1305.81L568.11,1305.6L568.11,1294.71C568.11,1293.58 567.968,1289.9 567.968,1288.56C567.968,1287.78 568.604,1286.93 569.806,1286.93C571.221,1286.93 573.13,1288.13 573.13,1289.62C573.13,1290.54 572.988,1293.29 572.988,1294.71L572.988,1305.38C573.908,1305.31 575.322,1305.03 575.887,1305.03C577.655,1305.03 578.433,1307.65 578.433,1308.71C578.433,1309.2 578.291,1310.55 577.019,1310.55C576.312,1310.55 574.402,1310.4 572.988,1310.4L572.988,1312.74ZM544.988,1312.74C544.988,1315.07 545.271,1317.33 545.271,1318.68C545.271,1319.45 544.564,1320.3 543.433,1320.3C541.948,1320.3 539.968,1319.03 539.968,1317.62C539.968,1316.7 540.11,1313.44 540.11,1312.6L540.11,1310.55L529.645,1310.9C529.362,1310.9 528.726,1311.04 527.453,1311.39L527.594,1311.32L527.453,1311.32C525.897,1311.32 524.271,1309.56 524.271,1307.65C524.271,1306.52 525.19,1305.1 525.685,1304.46C525.968,1304.04 526.251,1303.69 526.392,1303.33C527.524,1301.28 535.867,1285.59 538.271,1278.02C538.625,1277.1 539.332,1276.96 539.685,1276.96C541.17,1276.96 542.938,1279.22 542.938,1280.92C542.938,1281.34 542.867,1281.77 542.655,1282.12C542.089,1282.97 541.312,1284.24 540.958,1285.16C538.271,1290.96 534.099,1299.23 530.635,1305.81L540.11,1305.6L540.11,1294.71C540.11,1293.58 539.968,1289.9 539.968,1288.56C539.968,1287.78 540.604,1286.93 541.806,1286.93C543.221,1286.93 545.13,1288.13 545.13,1289.62C545.13,1290.54 544.988,1293.29 544.988,1294.71L544.988,1305.38C545.908,1305.31 547.322,1305.03 547.887,1305.03C549.655,1305.03 550.433,1307.65 550.433,1308.71C550.433,1309.2 550.291,1310.55 549.019,1310.55C548.312,1310.55 546.402,1310.4 544.988,1310.4L544.988,1312.74Z" style="fill-rule:nonzero;"/>
        </g>
    </g>
</svg>
