<?xml version="1.0" encoding="UTF-8" standalone="no"?>
<!DOCTYPE svg PUBLIC "-//W3C//DTD SVG 1.1//EN" "http://www.w3.org/Graphics/SVG/1.1/DTD/svg11.dtd">
<svg width="100%" height="100%" viewBox="0 0 89 89" version="1.1" xmlns="http://www.w3.org/2000/svg" xmlns:xlink="http://www.w3.org/1999/xlink" xml:space="preserve" xmlns:serif="http://www.serif.com/" style="fill-rule:evenodd;clip-rule:evenodd;stroke-linejoin:round;stroke-miterlimit:2;">
    <g transform="matrix(1,0,0,1,-158.78,-1171.63)">
        <g transform="matrix(1.41414,0,0,1.41429,-177.055,-770.755)">
            <path d="M299.847,1435.77L299.847,1373.4L237.483,1373.4L237.483,1435.77L299.847,1435.77ZM276.089,1385.99C277.716,1384.08 279.837,1382.81 282.382,1382.81C289.665,1382.81 293.059,1392.42 293.059,1403.81C293.059,1415.4 289.524,1426.58 281.18,1426.58C273.19,1426.58 269.867,1416.89 269.867,1405.29C269.867,1395.18 272.978,1385.92 275.524,1385.92C275.736,1385.92 275.948,1385.92 276.089,1385.99ZM248.301,1407.77C248.019,1408.12 247.736,1408.19 247.241,1408.19C246.039,1408.19 244.342,1406.71 244.342,1404.66C244.342,1404.44 244.342,1404.09 244.483,1403.74L244.837,1401.83L246.039,1387.97C246.11,1387.26 246.18,1386.34 246.18,1385.64C246.18,1384.29 247.099,1383.94 247.736,1383.94C248.372,1383.94 249.15,1384.22 249.786,1384.58L258.766,1383.94C259.615,1383.87 260.958,1383.8 261.877,1383.59L262.089,1383.59C263.574,1383.59 264.352,1386.06 264.352,1387.05C264.352,1387.83 263.998,1388.82 262.938,1388.89L259.261,1389.1L250.352,1389.74L249.433,1400.34C251.13,1399.07 253.18,1398.36 255.796,1398.36C261.524,1398.36 266.332,1403.38 266.332,1411.73C266.332,1419.43 262.655,1426.58 253.604,1426.58C248.372,1426.58 243.069,1421.77 243.069,1419.08C243.069,1417.74 243.918,1415.19 245.473,1415.19C246.039,1415.19 246.463,1415.62 246.746,1416.11C248.443,1419.08 250.493,1421.34 253.604,1421.34C259.402,1421.34 261.665,1416.89 261.665,1411.8C261.665,1406.42 259.12,1403.45 255.301,1403.45C253.039,1403.45 251.13,1404.59 249.645,1406.28L248.301,1407.77ZM280.968,1421.41C285.847,1421.41 288.251,1413.42 288.251,1403.38C288.251,1395.04 286.271,1387.83 282.17,1387.83C279.413,1387.83 274.675,1392.99 274.675,1405.22C274.675,1414.91 276.655,1421.41 280.968,1421.41Z" style="fill-rule:nonzero;"/>
        </g>
    </g>
</svg>
