<?xml version="1.0" encoding="UTF-8" standalone="no"?>
<!DOCTYPE svg PUBLIC "-//W3C//DTD SVG 1.1//EN" "http://www.w3.org/Graphics/SVG/1.1/DTD/svg11.dtd">
<svg width="100%" height="100%" viewBox="0 0 89 89" version="1.1" xmlns="http://www.w3.org/2000/svg" xmlns:xlink="http://www.w3.org/1999/xlink" xml:space="preserve" xmlns:serif="http://www.serif.com/" style="fill-rule:evenodd;clip-rule:evenodd;stroke-linejoin:round;stroke-miterlimit:2;">
    <g transform="matrix(1,0,0,1,-958.698,-1621.63)">
        <g transform="matrix(1.41414,0,0,1.41429,-177.055,-770.755)">
            <path d="M865.503,1753.95L865.503,1691.59L803.14,1691.59L803.14,1753.95L865.503,1753.95ZM830.786,1707.42C831.847,1707.42 832.554,1708.34 832.554,1709.55C832.554,1712.3 825.625,1718.81 824.635,1719.59C830.009,1722.56 832.837,1726.38 832.837,1732.17C832.837,1739.88 827.675,1744.76 820.392,1744.76C813.604,1744.76 809.433,1739.67 809.433,1732.95C809.433,1727.79 811.908,1723.9 815.867,1720.51C812.19,1718.1 810.918,1715.49 810.918,1711.67C810.918,1706.01 814.877,1701.13 821.17,1701.13C825.413,1701.13 828.382,1703.96 830.362,1707.21L830.503,1707.42L830.786,1707.42ZM858.079,1707.42C859.14,1707.42 859.847,1708.34 859.847,1709.55C859.847,1712.09 853.766,1718.1 851.857,1719.59C857.231,1722.56 860.059,1726.38 860.059,1732.17C860.059,1739.88 854.897,1744.76 847.615,1744.76C840.897,1744.76 836.655,1739.67 836.655,1732.95C836.655,1727.79 839.2,1723.9 843.089,1720.51C839.483,1718.1 838.211,1715.49 838.211,1711.67C838.211,1706.01 842.099,1701.13 848.463,1701.13C852.705,1701.13 855.604,1703.96 857.655,1707.21C857.655,1707.28 857.726,1707.35 857.726,1707.42L858.079,1707.42ZM847.615,1722.98C843.443,1726.44 841.322,1729.41 841.322,1732.81C841.322,1736.2 843.16,1739.6 847.615,1739.6C852.352,1739.6 855.392,1736.56 855.392,1732.45C855.392,1728.92 853.978,1726.16 848.322,1723.33C848.11,1723.19 847.897,1723.05 847.615,1722.98ZM820.392,1722.98C816.15,1726.44 814.099,1729.41 814.099,1732.81C814.099,1736.2 815.938,1739.6 820.392,1739.6C825.059,1739.6 828.17,1736.56 828.17,1732.45C828.17,1728.92 826.685,1726.16 821.099,1723.33L820.392,1722.98ZM826.473,1710.18C825.13,1707.57 823.645,1706.15 821.241,1706.15C817.281,1706.15 815.584,1708.98 815.584,1711.67C815.584,1713.86 816.291,1715.13 820.11,1717.18C822.655,1715.27 824.847,1713.01 826.897,1710.82L826.473,1710.18ZM854.12,1710.82C853.978,1710.61 853.837,1710.39 853.766,1710.18C852.352,1707.57 850.938,1706.15 848.534,1706.15C844.574,1706.15 842.877,1708.98 842.877,1711.67C842.877,1713.86 843.584,1715.13 847.332,1717.18C849.877,1715.27 852.14,1713.01 854.12,1710.82Z" style="fill-rule:nonzero;"/>
        </g>
    </g>
</svg>
