<?xml version="1.0" encoding="UTF-8" standalone="no"?>
<!DOCTYPE svg PUBLIC "-//W3C//DTD SVG 1.1//EN" "http://www.w3.org/Graphics/SVG/1.1/DTD/svg11.dtd">
<svg width="100%" height="100%" viewBox="0 0 96 96" version="1.1" xmlns="http://www.w3.org/2000/svg" xmlns:xlink="http://www.w3.org/1999/xlink" xml:space="preserve" xmlns:serif="http://www.serif.com/" style="fill-rule:evenodd;clip-rule:evenodd;stroke-linejoin:round;stroke-miterlimit:2;">
    <g transform="matrix(1,0,0,1,-509.628,-3473.28)">
        <g transform="matrix(1,0,0,1,-110.019,-3591.86)">
            <path d="M715.248,7112.94C715.248,7086.55 693.848,7065.15 667.448,7065.15C641.048,7065.15 619.648,7086.55 619.648,7112.94C619.648,7139.35 641.048,7160.65 667.448,7160.65C693.848,7160.65 715.248,7139.35 715.248,7112.94ZM647.648,7085.24C647.648,7085.15 648.448,7082.65 650.948,7082.65C651.148,7082.65 655.148,7082.74 655.148,7085.94C655.148,7086.85 654.448,7087.94 654.048,7088.55C649.748,7094.44 646.448,7101.15 643.848,7106.74C645.848,7105.44 648.148,7104.85 650.748,7104.85C659.848,7104.85 665.948,7112.55 665.948,7122.94C665.948,7134.24 659.748,7143.35 649.548,7143.35C640.348,7143.35 633.248,7135.15 633.248,7125.15C633.248,7118.15 634.948,7111.24 638.248,7103.74C641.448,7096.55 644.348,7090.65 647.148,7085.85L647.648,7085.24ZM676.648,7117.24C676.248,7117.74 675.848,7117.85 675.248,7117.85C673.548,7117.85 671.248,7115.85 671.248,7112.94C671.248,7112.65 671.248,7112.15 671.348,7111.65C671.648,7110.65 671.748,7109.74 671.948,7109.05L673.548,7089.85C673.648,7088.85 673.748,7087.55 673.748,7086.55C673.748,7084.74 675.048,7084.24 675.948,7084.24C676.748,7084.24 677.848,7084.65 678.748,7085.15L691.148,7084.24C692.348,7084.15 694.248,7084.05 695.448,7083.74L695.748,7083.74C697.848,7083.74 698.948,7087.15 698.948,7088.55C698.948,7089.65 698.448,7091.05 697.048,7091.05L691.848,7091.35L679.548,7092.24L678.248,7106.94C680.648,7105.24 683.448,7104.24 687.048,7104.24C694.948,7104.24 701.648,7111.15 701.648,7122.74C701.648,7133.44 696.548,7143.35 684.048,7143.35C678.048,7143.35 673.648,7139.85 670.348,7135.65C669.748,7134.85 669.448,7133.94 669.448,7132.94C669.448,7131.15 670.648,7127.55 672.748,7127.55C673.548,7127.55 674.148,7128.15 674.448,7128.85C676.848,7132.94 679.648,7136.05 684.048,7136.05C692.048,7136.05 695.148,7129.94 695.148,7122.85C695.148,7115.35 691.748,7111.24 686.348,7111.24C683.248,7111.24 680.648,7112.85 678.548,7115.15L676.648,7117.24ZM649.548,7136.35C655.148,7136.35 659.348,7131.15 659.348,7123.15C659.348,7116.94 656.048,7111.74 650.648,7111.74C644.048,7111.74 639.748,7117.85 639.748,7125.05C639.748,7131.44 643.748,7136.35 649.548,7136.35Z" style="fill-rule:nonzero;"/>
        </g>
    </g>
</svg>
