<?xml version="1.0" encoding="UTF-8" standalone="no"?>
<!DOCTYPE svg PUBLIC "-//W3C//DTD SVG 1.1//EN" "http://www.w3.org/Graphics/SVG/1.1/DTD/svg11.dtd">
<svg width="100%" height="100%" viewBox="0 0 96 96" version="1.1" xmlns="http://www.w3.org/2000/svg" xmlns:xlink="http://www.w3.org/1999/xlink" xml:space="preserve" xmlns:serif="http://www.serif.com/" style="fill-rule:evenodd;clip-rule:evenodd;stroke-linejoin:round;stroke-miterlimit:2;">
    <g transform="matrix(1,0,0,1,-109.628,-3623.28)">
        <g transform="matrix(1,0,0,1,-110.019,-3591.86)">
            <path d="M315.248,7262.94C315.248,7236.55 293.848,7215.15 267.448,7215.15C241.048,7215.15 219.648,7236.55 219.648,7262.94C219.648,7289.35 241.048,7310.65 267.448,7310.65C293.848,7310.65 315.248,7289.35 315.248,7262.94ZM267.248,7241.65C267.348,7241.65 267.548,7241.55 267.748,7241.55C269.348,7241.55 270.448,7242.94 270.448,7244.55C270.448,7248.05 260.948,7256.44 258.148,7258.44C266.448,7262.55 270.848,7267.85 270.848,7275.85C270.848,7286.65 262.848,7293.35 251.648,7293.35C241.248,7293.35 234.748,7286.24 234.748,7276.94C234.748,7269.85 238.648,7264.35 244.648,7259.74C239.048,7256.35 237.148,7252.74 237.148,7247.44C237.148,7239.55 243.148,7232.85 252.948,7232.85C259.448,7232.85 263.948,7236.74 267.048,7241.35L267.248,7241.65ZM294.548,7281.94C294.548,7284.15 294.648,7288.65 294.748,7290.74C294.748,7292.15 293.648,7293.05 292.148,7293.05C289.948,7293.05 287.148,7291.24 287.148,7289.44C287.148,7288.15 287.348,7284.15 287.348,7282.44L287.348,7244.35C285.948,7244.94 281.948,7246.85 280.248,7246.85C278.148,7246.85 275.848,7245.05 275.848,7243.65C275.848,7242.44 276.748,7241.74 277.448,7241.44C281.148,7239.94 284.548,7237.94 286.748,7236.24L287.148,7235.74C288.448,7233.85 290.048,7233.15 290.848,7233.15C292.648,7233.15 295.048,7235.24 295.048,7237.55C295.048,7238.85 294.548,7240.24 294.548,7242.44L294.548,7281.94ZM251.648,7263.15C245.148,7267.94 241.948,7272.05 241.948,7276.74C241.948,7281.44 244.748,7286.15 251.648,7286.15C258.948,7286.15 263.648,7281.94 263.648,7276.24C263.648,7271.35 261.448,7267.55 252.748,7263.65C252.448,7263.44 252.048,7263.24 251.648,7263.15ZM261.648,7246.24C259.148,7242.55 257.348,7239.85 253.048,7239.85C246.948,7239.85 244.248,7243.74 244.248,7247.44C244.248,7250.55 245.348,7252.24 251.248,7255.15C255.148,7252.44 258.548,7249.35 261.648,7246.24Z" style="fill-rule:nonzero;"/>
        </g>
    </g>
</svg>
