<?xml version="1.0" encoding="UTF-8" standalone="no"?>
<!DOCTYPE svg PUBLIC "-//W3C//DTD SVG 1.1//EN" "http://www.w3.org/Graphics/SVG/1.1/DTD/svg11.dtd">
<svg width="100%" height="100%" viewBox="0 0 96 96" version="1.1" xmlns="http://www.w3.org/2000/svg" xmlns:xlink="http://www.w3.org/1999/xlink" xml:space="preserve" xmlns:serif="http://www.serif.com/" style="fill-rule:evenodd;clip-rule:evenodd;stroke-linejoin:round;stroke-miterlimit:2;">
    <g transform="matrix(1,0,0,1,-909.628,-3173.28)">
        <g transform="matrix(1,0,0,1,-110.019,-3591.86)">
            <path d="M1115.25,6812.94C1115.25,6786.55 1093.85,6765.15 1067.45,6765.15C1041.05,6765.15 1019.65,6786.55 1019.65,6812.94C1019.65,6839.35 1041.05,6860.65 1067.45,6860.65C1093.85,6860.65 1115.25,6839.35 1115.25,6812.94ZM1092.45,6815.85C1089.15,6819.15 1085.05,6821.15 1080.95,6821.15C1073.35,6821.15 1068.25,6815.15 1068.25,6805.55C1068.25,6794.24 1076.25,6782.74 1087.05,6782.74C1092.15,6782.74 1095.55,6785.05 1097.55,6787.44C1097.75,6786.44 1098.35,6785.05 1100.05,6785.05C1102.15,6785.05 1104.35,6786.94 1104.35,6789.15L1104.35,6789.65L1103.45,6792.74C1101.45,6801.94 1095.95,6830.85 1095.55,6839.94C1095.35,6842.35 1092.75,6842.94 1091.05,6842.94C1089.35,6842.94 1088.15,6842.05 1088.15,6840.15C1088.15,6839.35 1088.45,6838.74 1088.55,6837.94C1088.95,6835.65 1089.45,6833.24 1089.65,6831.85L1092.45,6815.85ZM1035.95,6842.35C1033.55,6842.35 1032.05,6839.35 1032.05,6837.44C1032.05,6836.85 1032.15,6836.05 1032.65,6835.35C1033.25,6834.44 1033.65,6833.94 1034.05,6833.24C1036.85,6827.44 1041.95,6818.85 1048.15,6812.44C1054.15,6806.35 1057.45,6801.85 1057.45,6797.35C1057.45,6793.24 1054.75,6789.85 1050.15,6789.85C1045.15,6789.85 1041.75,6793.05 1040.25,6797.24C1039.95,6798.35 1039.05,6800.15 1037.25,6800.15C1035.05,6800.15 1033.25,6796.94 1033.25,6795.44C1033.25,6792.94 1038.35,6782.74 1050.35,6782.74C1058.95,6782.74 1064.65,6788.85 1064.65,6797.35C1064.65,6805.35 1059.45,6811.35 1052.75,6817.94C1047.45,6823.15 1043.55,6829.65 1041.05,6834.65C1043.35,6834.55 1046.15,6834.44 1048.15,6834.44C1051.75,6834.44 1054.05,6834.55 1057.05,6834.55C1058.25,6834.55 1060.65,6834.44 1061.55,6834.44C1064.05,6834.44 1065.25,6837.94 1065.25,6839.44C1065.25,6840.55 1064.55,6841.94 1062.95,6841.94C1056.95,6841.35 1048.15,6841.35 1047.45,6841.35C1044.95,6841.35 1042.55,6841.35 1039.65,6841.74C1038.95,6841.74 1036.95,6842.24 1036.45,6842.35L1035.95,6842.35ZM1095.95,6796.65C1095.15,6796.35 1094.65,6795.65 1094.35,6794.94C1093.55,6792.94 1091.75,6789.85 1087.35,6789.85C1079.75,6789.85 1075.05,6798.44 1075.05,6805.24C1075.05,6811.55 1077.15,6813.94 1080.85,6813.94C1086.45,6813.94 1090.05,6810.05 1093.75,6803.24C1094.45,6802.05 1095.05,6799.85 1095.65,6798.05L1095.95,6796.65Z" style="fill-rule:nonzero;"/>
        </g>
    </g>
</svg>
