<?xml version="1.0" encoding="UTF-8" standalone="no"?>
<!DOCTYPE svg PUBLIC "-//W3C//DTD SVG 1.1//EN" "http://www.w3.org/Graphics/SVG/1.1/DTD/svg11.dtd">
<svg width="100%" height="100%" viewBox="0 0 96 96" version="1.1" xmlns="http://www.w3.org/2000/svg" xmlns:xlink="http://www.w3.org/1999/xlink" xml:space="preserve" xmlns:serif="http://www.serif.com/" style="fill-rule:evenodd;clip-rule:evenodd;stroke-linejoin:round;stroke-miterlimit:2;">
    <g transform="matrix(1,0,0,1,-1609.63,-3773.28)">
        <g transform="matrix(1,0,0,1,-110.019,-3591.86)">
            <path d="M1815.25,7412.94C1815.25,7386.55 1793.85,7365.15 1767.45,7365.15C1741.05,7365.15 1719.65,7386.55 1719.65,7412.94C1719.65,7439.35 1741.05,7460.65 1767.45,7460.65C1793.85,7460.65 1815.25,7439.35 1815.25,7412.94ZM1757.65,7432.44C1757.65,7435.94 1757.95,7439.44 1757.95,7441.44C1757.95,7443.44 1755.85,7443.74 1755.15,7443.74C1753.65,7443.74 1749.95,7442.74 1749.95,7439.94C1749.95,7438.55 1750.15,7435.35 1750.15,7432.35L1750.15,7396.44C1750.15,7392.94 1749.95,7389.55 1749.85,7387.65L1749.85,7387.55C1749.85,7385.65 1751.85,7385.24 1752.65,7385.24C1754.85,7385.24 1757.95,7387.15 1757.95,7389.05C1757.95,7389.55 1757.95,7390.65 1757.85,7391.85C1761.75,7387.65 1767.55,7385.05 1772.95,7385.05C1783.25,7385.05 1788.85,7392.55 1788.85,7404.05C1788.85,7417.24 1780.45,7430.44 1767.65,7430.44C1764.25,7430.44 1760.45,7429.35 1757.65,7427.05L1757.65,7432.44ZM1757.65,7417.55C1758.55,7417.85 1759.35,7418.55 1759.85,7419.35C1761.85,7422.24 1764.55,7423.35 1767.05,7423.35C1774.85,7423.35 1780.85,7414.55 1780.85,7404.44C1780.85,7395.65 1777.45,7392.24 1772.95,7392.24C1766.65,7392.24 1759.75,7398.15 1758.05,7406.55C1757.75,7407.74 1757.65,7412.35 1757.65,7417.55Z" style="fill-rule:nonzero;"/>
        </g>
    </g>
</svg>
