<?xml version="1.0" encoding="UTF-8" standalone="no"?>
<!DOCTYPE svg PUBLIC "-//W3C//DTD SVG 1.1//EN" "http://www.w3.org/Graphics/SVG/1.1/DTD/svg11.dtd">
<svg width="100%" height="100%" viewBox="0 0 89 89" version="1.1" xmlns="http://www.w3.org/2000/svg" xmlns:xlink="http://www.w3.org/1999/xlink" xml:space="preserve" xmlns:serif="http://www.serif.com/" style="fill-rule:evenodd;clip-rule:evenodd;stroke-linejoin:round;stroke-miterlimit:2;">
    <g transform="matrix(1,0,0,1,-958.698,-871.632)">
        <g transform="matrix(1.41414,0,0,1.41429,-177.055,-770.755)">
            <path d="M865.503,1223.65L865.503,1161.28L803.14,1161.28L803.14,1223.65L865.503,1223.65ZM856.806,1177.12C857.796,1177.12 858.503,1178.04 858.503,1179.24C858.503,1182.35 850.655,1189.21 850.584,1189.28C855.958,1192.25 858.786,1196.07 858.786,1201.87C858.786,1209.58 853.625,1214.45 846.342,1214.45C839.554,1214.45 835.382,1209.36 835.382,1202.65C835.382,1197.49 837.857,1193.6 841.817,1190.2C838.14,1187.8 836.867,1185.18 836.867,1181.36C836.867,1175.71 840.827,1170.83 847.19,1170.83C851.362,1170.83 854.332,1173.66 856.382,1176.91C856.382,1176.98 856.382,1177.05 856.453,1177.12L856.806,1177.12ZM825.554,1189.71C829.089,1190.7 831.918,1194.66 831.918,1200.03C831.918,1207.74 828.099,1214.45 818.908,1214.45C815.019,1214.45 811.908,1212.69 809.15,1209.58C808.655,1208.94 808.584,1208.23 808.584,1207.67C808.584,1206.54 809.291,1203.99 810.918,1203.99C811.271,1203.99 811.625,1204.2 812.049,1204.7C814.029,1207.53 815.938,1209.29 818.908,1209.29C824.918,1209.29 827.18,1204.84 827.18,1200.1C827.18,1196.14 824.635,1193.24 820.746,1193.24C820.392,1193.24 820.039,1193.24 819.685,1193.31C818.908,1193.38 817.918,1193.53 817.069,1193.74C816.928,1193.81 816.857,1193.81 816.786,1193.81C815.16,1193.81 814.312,1191.62 814.312,1190.49C814.312,1189.71 814.736,1188.79 815.655,1188.58C819.544,1188.22 825.766,1185.89 825.766,1180.94C825.766,1177.83 824.069,1175.85 820.817,1175.85C818.13,1175.85 815.938,1177.12 813.604,1180.23C813.11,1180.87 812.756,1181.51 811.908,1181.51C810.423,1181.51 809.574,1179.24 809.574,1178.04C809.574,1175.57 814.524,1170.76 820.746,1170.76C826.332,1170.76 830.433,1174.29 830.433,1180.59C830.433,1186.03 826.968,1189 825.554,1189.71ZM846.342,1192.68C842.099,1196.14 840.049,1199.11 840.049,1202.51C840.049,1205.9 841.887,1209.29 846.342,1209.29C851.079,1209.29 854.12,1206.25 854.12,1202.15C854.12,1198.62 852.705,1195.86 847.049,1193.03L846.342,1192.68ZM852.423,1179.88C851.079,1177.26 849.665,1175.85 847.261,1175.85C843.301,1175.85 841.534,1178.68 841.534,1181.36C841.534,1183.56 842.241,1184.83 846.059,1186.88C848.604,1184.97 850.867,1182.71 852.847,1180.52L852.423,1179.88Z" style="fill-rule:nonzero;"/>
        </g>
    </g>
</svg>
