<?xml version="1.0" encoding="UTF-8" standalone="no"?>
<!DOCTYPE svg PUBLIC "-//W3C//DTD SVG 1.1//EN" "http://www.w3.org/Graphics/SVG/1.1/DTD/svg11.dtd">
<svg width="100%" height="100%" viewBox="0 0 96 96" version="1.1" xmlns="http://www.w3.org/2000/svg" xmlns:xlink="http://www.w3.org/1999/xlink" xml:space="preserve" xmlns:serif="http://www.serif.com/" style="fill-rule:evenodd;clip-rule:evenodd;stroke-linejoin:round;stroke-miterlimit:2;">
    <g transform="matrix(1,0,0,1,-209.628,-3173.28)">
        <g transform="matrix(1,0,0,1,-110.019,-3591.86)">
            <path d="M415.248,6812.94C415.248,6786.55 393.848,6765.15 367.448,6765.15C341.048,6765.15 319.648,6786.55 319.648,6812.94C319.648,6839.35 341.048,6860.65 367.448,6860.65C393.848,6860.65 415.248,6839.35 415.248,6812.94ZM373.248,6842.35C370.848,6842.35 369.348,6839.35 369.348,6837.44C369.348,6836.85 369.448,6836.05 369.948,6835.35L371.348,6833.24C374.148,6827.44 379.248,6818.85 385.448,6812.44C391.448,6806.35 394.748,6801.85 394.748,6797.35C394.748,6793.15 392.048,6789.85 387.448,6789.85C382.448,6789.85 379.048,6793.05 377.548,6797.24C377.248,6798.35 376.348,6800.15 374.548,6800.15C372.348,6800.15 370.548,6796.94 370.548,6795.44C370.548,6792.94 375.648,6782.74 387.648,6782.74C396.248,6782.74 401.948,6788.85 401.948,6797.35C401.948,6805.35 396.748,6811.35 390.048,6817.94C384.748,6823.15 380.848,6829.65 378.348,6834.65C380.648,6834.55 383.448,6834.44 385.448,6834.44C389.048,6834.44 391.348,6834.55 394.348,6834.55C395.548,6834.55 397.948,6834.44 398.848,6834.44C401.348,6834.44 402.548,6837.94 402.548,6839.44C402.548,6840.55 401.848,6841.94 400.248,6841.94C394.248,6841.35 385.448,6841.35 384.748,6841.35C382.248,6841.35 379.848,6841.35 376.948,6841.74C376.248,6841.74 374.248,6842.24 373.748,6842.35L373.248,6842.35ZM335.548,6842.35C333.148,6842.35 331.648,6839.35 331.648,6837.44C331.648,6836.85 331.748,6836.05 332.248,6835.35C332.848,6834.44 333.248,6833.85 333.548,6833.24C336.448,6827.44 341.548,6818.85 347.748,6812.44C353.748,6806.35 356.948,6801.85 356.948,6797.35C356.948,6793.15 354.348,6789.85 349.748,6789.85C344.748,6789.85 341.348,6793.05 339.848,6797.24C339.548,6798.35 338.648,6800.15 336.848,6800.15C334.648,6800.15 332.848,6796.94 332.848,6795.44C332.848,6794.74 332.948,6793.94 333.448,6793.24C336.548,6787.15 342.048,6782.74 349.948,6782.74C358.548,6782.74 364.248,6788.85 364.248,6797.35C364.248,6805.35 359.048,6811.35 352.348,6817.94C347.048,6823.15 343.148,6829.65 340.548,6834.65C342.948,6834.55 345.748,6834.44 347.748,6834.44C351.348,6834.44 353.648,6834.55 356.648,6834.55C357.848,6834.55 360.248,6834.44 361.148,6834.44C363.648,6834.44 364.848,6837.94 364.848,6839.44C364.848,6840.55 364.148,6841.94 362.548,6841.94C356.548,6841.35 347.748,6841.35 347.048,6841.35C344.548,6841.35 342.148,6841.35 339.248,6841.74C338.548,6841.74 336.548,6842.24 336.048,6842.35L335.548,6842.35Z" style="fill-rule:nonzero;"/>
        </g>
    </g>
</svg>
