<?xml version="1.0" encoding="UTF-8" standalone="no"?>
<!DOCTYPE svg PUBLIC "-//W3C//DTD SVG 1.1//EN" "http://www.w3.org/Graphics/SVG/1.1/DTD/svg11.dtd">
<svg width="100%" height="100%" viewBox="0 0 89 89" version="1.1" xmlns="http://www.w3.org/2000/svg" xmlns:xlink="http://www.w3.org/1999/xlink" xml:space="preserve" xmlns:serif="http://www.serif.com/" style="fill-rule:evenodd;clip-rule:evenodd;stroke-linejoin:round;stroke-miterlimit:2;">
    <g transform="matrix(1,0,0,1,-1502.52,-1742.27)">
        <g transform="matrix(1.41414,0,0,1.41429,-1052.39,-837.704)">
            <path d="M1863.53,1886.59C1866.92,1886.59 1869.04,1884.05 1869.04,1881.08L1869.04,1829.74C1869.04,1826.28 1866.57,1824.23 1863.53,1824.23L1812.2,1824.23C1808.73,1824.23 1806.68,1826.56 1806.68,1829.74L1806.68,1881.08C1806.68,1884.26 1809.15,1886.59 1812.2,1886.59L1863.53,1886.59ZM1845.78,1836.81C1847.34,1834.9 1849.39,1833.63 1851.79,1833.63C1858.72,1833.63 1861.97,1843.25 1861.97,1854.63C1861.97,1866.23 1858.58,1877.4 1850.66,1877.4C1843.1,1877.4 1839.84,1867.71 1839.84,1856.12C1839.84,1848.62 1842.32,1836.74 1845.29,1836.74C1845.43,1836.74 1845.64,1836.74 1845.78,1836.81ZM1828.67,1857.6C1826.48,1859.93 1823.58,1861.42 1820.82,1861.42C1815.66,1861.42 1812.12,1857.11 1812.12,1850.11C1812.12,1841.97 1817.57,1833.7 1824.99,1833.7C1828.53,1833.7 1830.79,1835.4 1832.21,1837.03C1832.35,1836.32 1832.7,1835.33 1833.83,1835.33C1835.32,1835.33 1836.8,1836.67 1836.8,1838.3L1836.8,1838.65C1836.59,1839.57 1836.24,1840.56 1836.17,1840.84C1833.97,1851.73 1831,1869.97 1830.79,1874.92C1830.65,1876.69 1828.88,1877.12 1827.75,1877.12C1826.55,1877.12 1825.77,1876.48 1825.77,1875.14C1825.77,1874.36 1826.48,1870.68 1826.83,1869.13L1828.67,1857.6ZM1850.45,1872.24C1855.04,1872.24 1857.38,1864.25 1857.38,1854.21C1857.38,1845.86 1855.47,1838.65 1851.58,1838.65C1848.96,1838.65 1844.44,1843.81 1844.44,1856.05C1844.44,1865.73 1846.35,1872.24 1850.45,1872.24ZM1831.08,1843.74C1830.58,1843.53 1830.23,1842.96 1830.01,1842.54C1829.45,1841.06 1828.18,1838.79 1825.21,1838.79C1819.97,1838.79 1816.79,1845.02 1816.79,1849.89C1816.79,1854.49 1818.28,1856.19 1820.75,1856.19C1827.68,1856.19 1830.51,1846.08 1830.86,1844.73L1831.08,1843.74Z" style="fill-rule:nonzero;"/>
        </g>
    </g>
</svg>
