<?xml version="1.0" encoding="UTF-8" standalone="no"?>
<!DOCTYPE svg PUBLIC "-//W3C//DTD SVG 1.1//EN" "http://www.w3.org/Graphics/SVG/1.1/DTD/svg11.dtd">
<svg width="100%" height="100%" viewBox="0 0 89 89" version="1.1" xmlns="http://www.w3.org/2000/svg" xmlns:xlink="http://www.w3.org/1999/xlink" xml:space="preserve" xmlns:serif="http://www.serif.com/" style="fill-rule:evenodd;clip-rule:evenodd;stroke-linejoin:round;stroke-miterlimit:2;">
    <g transform="matrix(1,0,0,1,-2202.44,-1742.27)">
        <g transform="matrix(1.41414,0,0,1.41429,-1052.39,-837.704)">
            <path d="M2358.48,1886.59C2361.87,1886.59 2363.99,1884.05 2363.99,1881.08L2363.99,1829.74C2363.99,1826.28 2361.52,1824.23 2358.48,1824.23L2307.14,1824.23C2303.68,1824.23 2301.63,1826.56 2301.63,1829.74L2301.63,1881.08C2301.63,1884.26 2304.11,1886.59 2307.14,1886.59L2358.48,1886.59ZM2324.04,1857.6C2321.85,1859.93 2318.95,1861.42 2316.2,1861.42C2311.03,1861.42 2307.5,1857.11 2307.5,1850.11C2307.5,1841.97 2312.94,1833.7 2320.37,1833.7C2323.9,1833.7 2326.17,1835.4 2327.58,1837.03C2327.72,1836.32 2328.08,1835.33 2329.21,1835.33C2330.69,1835.33 2332.18,1836.67 2332.18,1838.3L2332.18,1838.65C2331.96,1839.57 2331.61,1840.56 2331.54,1840.84C2329.35,1851.73 2326.38,1869.97 2326.17,1874.92C2326.02,1876.69 2324.26,1877.12 2323.12,1877.12C2321.92,1877.12 2321.14,1876.48 2321.14,1875.14C2321.14,1874.36 2321.85,1870.68 2322.21,1869.13L2324.04,1857.6ZM2340.94,1873.37C2340.94,1873.3 2341.01,1873.3 2341.01,1873.16C2344.12,1862.41 2348.23,1850.6 2352.47,1839.78L2340.94,1840.91C2340.38,1840.98 2339.88,1841.06 2339.39,1841.06C2337.34,1841.06 2335.92,1838.3 2335.92,1837.1C2335.92,1836.67 2336.21,1835.68 2337.2,1835.68C2337.76,1835.68 2338.26,1835.75 2339.11,1835.75L2339.74,1835.75L2353.39,1834.69C2353.74,1834.69 2354.02,1834.55 2354.31,1834.48C2354.73,1834.34 2355.16,1834.27 2355.58,1834.27L2355.79,1834.27C2356.92,1834.48 2358.69,1836.11 2358.69,1837.73L2358.69,1838.02C2358.55,1838.79 2358.27,1839.43 2357.98,1839.92C2354.1,1847.7 2347.94,1865.87 2345.89,1875.35C2345.68,1876.83 2344.48,1877.05 2343.56,1877.05C2343.42,1877.05 2343.14,1876.97 2342.85,1876.97C2341.44,1876.76 2340.66,1875.98 2340.66,1874.78C2340.66,1874.36 2340.8,1873.93 2340.87,1873.72L2340.94,1873.37ZM2326.45,1843.74C2325.88,1843.53 2325.6,1842.96 2325.39,1842.54C2324.82,1841.06 2323.55,1838.79 2320.58,1838.79C2315.35,1838.79 2312.17,1845.02 2312.17,1849.89C2312.17,1854.49 2313.65,1856.19 2316.12,1856.19C2323.05,1856.19 2325.88,1846.08 2326.24,1844.73L2326.45,1843.74Z" style="fill-rule:nonzero;"/>
        </g>
    </g>
</svg>
