<?xml version="1.0" encoding="UTF-8" standalone="no"?>
<!DOCTYPE svg PUBLIC "-//W3C//DTD SVG 1.1//EN" "http://www.w3.org/Graphics/SVG/1.1/DTD/svg11.dtd">
<svg width="100%" height="100%" viewBox="0 0 89 89" version="1.1" xmlns="http://www.w3.org/2000/svg" xmlns:xlink="http://www.w3.org/1999/xlink" xml:space="preserve" xmlns:serif="http://www.serif.com/" style="fill-rule:evenodd;clip-rule:evenodd;stroke-linejoin:round;stroke-miterlimit:2;">
    <g transform="matrix(1,0,0,1,-1602.51,-2042.27)">
        <g transform="matrix(1.41414,0,0,1.41429,-1052.39,-837.704)">
            <path d="M1934.24,2098.71C1937.63,2098.71 1939.75,2096.17 1939.75,2093.2L1939.75,2041.86C1939.75,2038.4 1937.28,2036.35 1934.24,2036.35L1882.9,2036.35C1879.44,2036.35 1877.39,2038.68 1877.39,2041.86L1877.39,2093.2C1877.39,2096.38 1879.86,2098.71 1882.9,2098.71L1934.24,2098.71ZM1928.79,2075.73C1928.79,2076.44 1928.93,2080.75 1928.93,2082.1C1928.93,2083.51 1927.45,2083.72 1926.95,2083.72C1925.89,2083.72 1923.28,2083.01 1923.28,2081.03C1923.28,2080.05 1923.42,2077.15 1923.42,2075.73L1923.42,2064.42C1923.42,2059.68 1921.44,2056.99 1918.82,2056.99C1915.78,2056.99 1911.4,2061.1 1911.4,2065.97L1911.4,2075.73C1911.4,2077.99 1911.61,2080.75 1911.61,2082.1C1911.61,2083.51 1910.12,2083.72 1909.63,2083.72C1908.57,2083.72 1905.95,2083.01 1905.95,2081.03C1905.95,2080.05 1906.1,2077.15 1906.1,2075.73L1906.1,2064.42C1906.1,2059.47 1904.96,2056.99 1902.42,2056.99C1901.14,2056.99 1895.28,2057.84 1894.36,2069.79C1894.22,2071.7 1894.22,2073.68 1894.22,2075.73C1894.22,2078.21 1894.43,2080.75 1894.43,2082.1C1894.43,2083.51 1892.94,2083.72 1892.45,2083.72C1891.39,2083.72 1888.77,2083.01 1888.77,2081.03C1888.77,2080.05 1888.84,2076.58 1888.84,2075.73L1888.84,2060.67C1888.84,2059.54 1888.7,2055.09 1888.7,2053.67C1888.7,2052.26 1890.19,2052.05 1890.68,2052.05C1891.74,2052.05 1894.36,2052.75 1894.36,2054.73L1894.36,2055.51C1896.48,2053.11 1899.45,2051.9 1902.42,2051.9C1906.45,2051.9 1908.85,2053.88 1910.05,2056.36C1912.32,2053.46 1915.71,2051.9 1919.03,2051.9C1926.11,2051.9 1928.79,2058.48 1928.79,2064.21L1928.79,2075.73Z" style="fill-rule:nonzero;"/>
        </g>
    </g>
</svg>
