<?xml version="1.0" encoding="UTF-8" standalone="no"?>
<!DOCTYPE svg PUBLIC "-//W3C//DTD SVG 1.1//EN" "http://www.w3.org/Graphics/SVG/1.1/DTD/svg11.dtd">
<svg width="100%" height="100%" viewBox="0 0 96 96" version="1.1" xmlns="http://www.w3.org/2000/svg" xmlns:xlink="http://www.w3.org/1999/xlink" xml:space="preserve" xmlns:serif="http://www.serif.com/" style="fill-rule:evenodd;clip-rule:evenodd;stroke-linejoin:round;stroke-miterlimit:2;">
    <g transform="matrix(1,0,0,1,-1509.63,-3773.28)">
        <g transform="matrix(1,0,0,1,-110.019,-3591.86)">
            <path d="M1715.25,7412.94C1715.25,7386.55 1693.85,7365.15 1667.45,7365.15C1641.05,7365.15 1619.65,7386.55 1619.65,7412.94C1619.65,7439.35 1641.05,7460.65 1667.45,7460.65C1693.85,7460.65 1715.25,7439.35 1715.25,7412.94ZM1659.85,7393.35C1662.15,7391.74 1665.25,7390.24 1669.85,7390.24C1680.55,7390.24 1687.65,7398.74 1687.65,7412.05C1687.65,7423.35 1680.15,7435.74 1665.95,7435.74C1653.75,7435.74 1646.75,7427.65 1646.75,7415.24C1646.75,7405.44 1654.45,7392.94 1658.25,7392.94C1658.85,7392.94 1659.35,7393.15 1659.85,7393.35ZM1665.95,7428.35C1673.35,7428.35 1679.95,7421.24 1679.95,7412.05C1679.95,7402.85 1675.95,7397.44 1669.35,7397.44C1660.85,7397.44 1654.45,7406.74 1654.45,7415.15C1654.45,7423.94 1658.85,7428.35 1665.95,7428.35Z" style="fill-rule:nonzero;"/>
        </g>
    </g>
</svg>
