<?xml version="1.0" encoding="UTF-8" standalone="no"?>
<!DOCTYPE svg PUBLIC "-//W3C//DTD SVG 1.1//EN" "http://www.w3.org/Graphics/SVG/1.1/DTD/svg11.dtd">
<svg width="100%" height="100%" viewBox="0 0 89 89" version="1.1" xmlns="http://www.w3.org/2000/svg" xmlns:xlink="http://www.w3.org/1999/xlink" xml:space="preserve" xmlns:serif="http://www.serif.com/" style="fill-rule:evenodd;clip-rule:evenodd;stroke-linejoin:round;stroke-miterlimit:2;">
    <g transform="matrix(1,0,0,1,-458.749,-1771.63)">
        <g transform="matrix(1.41414,0,0,1.41429,-177.055,-770.755)">
            <path d="M511.968,1860.01L511.968,1797.65L449.604,1797.65L449.604,1860.01L511.968,1860.01ZM471.665,1831.02C469.473,1833.35 466.574,1834.84 463.817,1834.84C458.584,1834.84 455.12,1830.53 455.12,1823.53C455.12,1815.39 460.564,1807.12 467.988,1807.12C471.453,1807.12 473.786,1808.82 475.2,1810.44C475.342,1809.74 475.695,1808.75 476.827,1808.75C478.312,1808.75 479.796,1810.09 479.796,1811.72L479.796,1812.07C479.584,1812.99 479.231,1813.98 479.16,1814.26C476.968,1825.15 473.998,1843.39 473.786,1848.34C473.645,1850.11 471.877,1850.54 470.746,1850.54C469.544,1850.54 468.766,1849.9 468.766,1848.56C468.766,1847.78 469.473,1844.1 469.827,1842.55L471.665,1831.02ZM499.099,1826.07C502.635,1827.06 505.534,1831.02 505.534,1836.39C505.534,1844.1 501.645,1850.82 492.524,1850.82C488.635,1850.82 485.453,1849.05 482.766,1845.94C482.2,1845.3 482.2,1844.6 482.2,1844.03C482.2,1842.9 482.837,1840.35 484.463,1840.35C484.887,1840.35 485.241,1840.57 485.594,1841.06C487.574,1843.89 489.554,1845.66 492.524,1845.66C498.534,1845.66 500.796,1841.2 500.796,1836.47C500.796,1832.51 498.18,1829.61 494.291,1829.61C493.726,1829.61 492.736,1829.61 490.615,1830.1C490.473,1830.17 490.473,1830.17 490.332,1830.17C488.705,1830.17 487.928,1827.98 487.928,1826.85C487.928,1826.07 488.352,1825.15 489.271,1824.94C494.998,1824.44 499.312,1821.12 499.312,1817.3C499.312,1814.19 497.685,1812.21 494.362,1812.21C491.746,1812.21 489.483,1813.49 487.221,1816.6C486.726,1817.23 486.301,1817.87 485.524,1817.87C483.756,1817.87 483.12,1814.83 483.12,1814.4C483.12,1813.56 483.473,1812.92 483.827,1812.57C486.514,1809.1 489.908,1807.12 494.291,1807.12C499.948,1807.12 503.978,1810.66 503.978,1816.95C503.978,1822.39 500.584,1825.36 499.099,1826.07ZM474.069,1817.16C473.503,1816.95 473.221,1816.38 473.009,1815.96C472.443,1814.48 471.17,1812.21 468.2,1812.21C462.968,1812.21 459.786,1818.43 459.786,1823.31C459.786,1827.91 461.2,1829.61 463.746,1829.61C470.675,1829.61 473.503,1819.5 473.857,1818.15L474.069,1817.16Z" style="fill-rule:nonzero;"/>
        </g>
    </g>
</svg>
