<?xml version="1.0" encoding="UTF-8" standalone="no"?>
<!DOCTYPE svg PUBLIC "-//W3C//DTD SVG 1.1//EN" "http://www.w3.org/Graphics/SVG/1.1/DTD/svg11.dtd">
<svg width="100%" height="100%" viewBox="0 0 89 89" version="1.1" xmlns="http://www.w3.org/2000/svg" xmlns:xlink="http://www.w3.org/1999/xlink" xml:space="preserve" xmlns:serif="http://www.serif.com/" style="fill-rule:evenodd;clip-rule:evenodd;stroke-linejoin:round;stroke-miterlimit:2;">
    <g transform="matrix(1,0,0,1,-658.729,-1471.63)">
        <g transform="matrix(1.41414,0,0,1.41429,-177.055,-770.755)">
            <path d="M653.382,1647.89L653.382,1585.53L591.019,1585.53L591.019,1647.89L653.382,1647.89ZM628.847,1619.89C628.493,1620.24 628.211,1620.31 627.716,1620.31C626.443,1620.31 624.675,1618.83 624.675,1616.78C624.675,1616.57 624.675,1616.21 624.817,1615.86L625.17,1613.95L626.443,1600.09C626.514,1599.38 626.584,1598.47 626.584,1597.76C626.584,1596.41 627.574,1596.06 628.281,1596.06C628.918,1596.06 629.695,1596.34 630.402,1596.7L639.806,1596.06C640.726,1595.99 642.14,1595.92 643.13,1595.71L643.342,1595.71C644.897,1595.71 645.746,1598.18 645.746,1599.17C645.746,1599.95 645.322,1600.94 644.261,1601.01L640.301,1601.22L631.039,1601.86L629.978,1612.47C631.817,1611.19 633.938,1610.49 636.695,1610.49C642.705,1610.49 647.796,1615.51 647.796,1623.85C647.796,1631.56 643.908,1638.7 634.433,1638.7C628.918,1638.7 623.332,1633.96 623.332,1631.2C623.332,1629.86 624.18,1627.31 625.806,1627.31C626.443,1627.31 626.938,1627.74 627.15,1628.23C628.918,1631.2 631.11,1633.47 634.433,1633.47C640.514,1633.47 642.847,1629.01 642.847,1623.92C642.847,1618.55 640.231,1615.58 636.2,1615.58C633.796,1615.58 631.817,1616.71 630.261,1618.4L628.847,1619.89ZM602.544,1634.67L602.544,1634.45C609.19,1614.52 612.231,1607.02 614.705,1601.08L602.473,1602.21C601.908,1602.28 601.342,1602.35 600.847,1602.35C598.443,1602.35 597.241,1599.53 597.241,1598.39C597.241,1597.97 597.453,1596.98 598.514,1596.98C599.15,1596.98 599.645,1597.05 600.493,1597.05L601.2,1597.05L615.625,1595.99C615.978,1595.99 616.332,1595.85 616.615,1595.78C617.039,1595.64 617.534,1595.57 617.958,1595.57L618.17,1595.57C619.372,1595.78 621.211,1597.4 621.211,1599.03L621.211,1599.31C621.14,1600.09 620.786,1600.73 620.503,1601.22C616.402,1609.42 608.908,1630.42 607.776,1636.65C607.493,1638.13 606.221,1638.34 605.301,1638.34C605.089,1638.34 604.806,1638.27 604.524,1638.27C603.039,1638.06 602.19,1637.28 602.19,1636.08C602.19,1635.66 602.332,1635.23 602.402,1635.02L602.544,1634.67Z" style="fill-rule:nonzero;"/>
        </g>
    </g>
</svg>
