<?xml version="1.0" encoding="UTF-8" standalone="no"?>
<!DOCTYPE svg PUBLIC "-//W3C//DTD SVG 1.1//EN" "http://www.w3.org/Graphics/SVG/1.1/DTD/svg11.dtd">
<svg width="100%" height="100%" viewBox="0 0 96 96" version="1.1" xmlns="http://www.w3.org/2000/svg" xmlns:xlink="http://www.w3.org/1999/xlink" xml:space="preserve" xmlns:serif="http://www.serif.com/" style="fill-rule:evenodd;clip-rule:evenodd;stroke-linejoin:round;stroke-miterlimit:2;">
    <g transform="matrix(1,0,0,1,-309.628,-3923.28)">
        <g transform="matrix(1,0,0,1,-110.019,-3591.86)">
            <path d="M515.248,7562.94C515.248,7536.55 493.848,7515.15 467.448,7515.15C441.048,7515.15 419.648,7536.55 419.648,7562.94C419.648,7589.35 441.048,7610.65 467.448,7610.65C493.848,7610.65 515.248,7589.35 515.248,7562.94ZM467.448,7586.05C464.948,7591.24 461.948,7593.85 456.848,7593.85L455.848,7593.85C449.248,7593.85 446.548,7591.15 446.548,7588.94C446.548,7587.44 447.748,7583.94 450.448,7583.94C451.448,7583.94 452.148,7584.44 452.648,7585.05C453.748,7586.15 455.148,7586.35 456.548,7586.35C457.448,7586.35 459.348,7585.35 460.848,7582.15L464.348,7574.94L451.848,7547.05C451.148,7545.35 449.448,7541.94 448.448,7540.35C448.148,7539.85 448.048,7539.24 448.048,7539.05C448.048,7537.74 450.448,7536.94 452.748,7536.94C454.548,7536.94 456.248,7537.44 456.648,7538.44C457.348,7540.44 458.348,7542.55 459.248,7544.65L468.548,7565.85L478.248,7545.44C479.348,7543.15 480.548,7540.35 481.448,7537.65C481.648,7536.94 482.048,7536.65 482.448,7536.44C482.948,7536.05 483.348,7535.94 484.048,7535.94C485.948,7535.94 489.048,7537.74 489.048,7540.55C489.048,7541.05 488.848,7541.74 488.548,7542.35C487.648,7543.94 486.248,7546.35 485.348,7548.35L467.448,7586.05Z" style="fill-rule:nonzero;"/>
        </g>
    </g>
</svg>
