<?xml version="1.0" encoding="UTF-8" standalone="no"?>
<!DOCTYPE svg PUBLIC "-//W3C//DTD SVG 1.1//EN" "http://www.w3.org/Graphics/SVG/1.1/DTD/svg11.dtd">
<svg width="100%" height="100%" viewBox="0 0 96 96" version="1.1" xmlns="http://www.w3.org/2000/svg" xmlns:xlink="http://www.w3.org/1999/xlink" xml:space="preserve" xmlns:serif="http://www.serif.com/" style="fill-rule:evenodd;clip-rule:evenodd;stroke-linejoin:round;stroke-miterlimit:2;">
    <g transform="matrix(1,0,0,1,-809.628,-3323.28)">
        <g transform="matrix(1,0,0,1,-110.019,-3591.86)">
            <path d="M1015.25,6962.94C1015.25,6936.55 993.848,6915.15 967.448,6915.15C941.048,6915.15 919.648,6936.55 919.648,6962.94C919.648,6989.35 941.048,7010.65 967.448,7010.65C993.848,7010.65 1015.25,6989.35 1015.25,6962.94ZM990.748,6958.44C998.248,6962.55 1002.15,6967.85 1002.15,6975.85C1002.15,6986.65 995.048,6993.35 984.948,6993.35C975.548,6993.35 969.748,6986.24 969.748,6976.94C969.748,6969.85 973.148,6964.35 978.648,6959.74C973.548,6956.35 971.848,6952.74 971.848,6947.44C971.848,6939.55 977.248,6932.85 986.048,6932.85C991.948,6932.85 996.048,6936.74 998.848,6941.35C998.848,6941.44 998.848,6941.55 998.948,6941.65C999.048,6941.65 999.248,6941.55 999.348,6941.55C1000.85,6941.55 1001.85,6942.94 1001.85,6944.55C1001.85,6948.35 991.848,6957.55 990.748,6958.44ZM958.748,6982.55C958.748,6985.74 959.048,6988.94 959.048,6990.74C959.048,6991.94 958.148,6993.05 956.648,6993.05C954.748,6993.05 952.148,6991.35 952.148,6989.35C952.148,6988.05 952.248,6983.55 952.248,6982.35L952.248,6979.55L938.548,6980.05C938.248,6980.05 937.348,6980.15 935.648,6980.65L935.848,6980.55L935.648,6980.55C933.548,6980.55 931.448,6978.15 931.448,6975.44C931.448,6974.85 931.548,6973.94 932.048,6973.05C932.148,6972.85 933.848,6970.55 934.248,6969.55C945.048,6948.55 948.748,6938.15 949.948,6934.44C950.348,6933.15 951.248,6932.94 951.748,6932.94C953.648,6932.94 956.048,6936.15 956.048,6938.44C956.048,6939.05 955.948,6939.65 955.648,6940.15C954.848,6941.35 953.948,6943.05 953.448,6944.35C949.948,6952.35 944.448,6963.85 939.848,6972.94L952.248,6972.65L952.248,6957.55C952.248,6955.94 952.148,6950.85 952.148,6949.05C952.148,6947.94 953.048,6946.74 954.548,6946.74C956.448,6946.74 958.948,6948.44 958.948,6950.55C958.948,6951.74 958.748,6955.65 958.748,6957.55L958.748,6972.35C959.948,6972.24 961.748,6971.85 962.648,6971.85C964.848,6971.85 965.948,6975.44 965.948,6976.94C965.948,6977.65 965.648,6979.55 964.048,6979.55C963.148,6979.55 960.548,6979.35 958.748,6979.35L958.748,6982.55ZM984.948,6963.15C979.048,6967.94 976.148,6972.05 976.148,6976.74C976.148,6981.44 978.748,6986.15 984.948,6986.15C991.448,6986.15 995.748,6981.94 995.748,6976.24C995.748,6971.35 993.748,6967.55 985.948,6963.65L984.948,6963.15ZM993.948,6946.24C993.748,6945.94 993.548,6945.74 993.348,6945.35C991.448,6941.85 989.448,6939.85 986.148,6939.85C980.648,6939.85 978.248,6943.74 978.248,6947.44C978.248,6950.55 979.248,6952.24 984.548,6955.15C988.048,6952.44 991.148,6949.35 993.948,6946.24Z" style="fill-rule:nonzero;"/>
        </g>
    </g>
</svg>
