<?xml version="1.0" encoding="UTF-8" standalone="no"?>
<!DOCTYPE svg PUBLIC "-//W3C//DTD SVG 1.1//EN" "http://www.w3.org/Graphics/SVG/1.1/DTD/svg11.dtd">
<svg width="100%" height="100%" viewBox="0 0 89 89" version="1.1" xmlns="http://www.w3.org/2000/svg" xmlns:xlink="http://www.w3.org/1999/xlink" xml:space="preserve" xmlns:serif="http://www.serif.com/" style="fill-rule:evenodd;clip-rule:evenodd;stroke-linejoin:round;stroke-miterlimit:2;">
    <g transform="matrix(1,0,0,1,-2202.44,-1292.27)">
        <g transform="matrix(1.41414,0,0,1.41429,-1052.39,-837.704)">
            <path d="M2317.54,1532.77C2319.02,1531.92 2320.72,1531.43 2322.56,1531.43C2329.07,1531.43 2333.52,1537.02 2333.52,1544.51C2333.52,1552.71 2329.07,1559.22 2321.71,1559.22C2314.99,1559.22 2309.9,1553.35 2309.9,1546.07C2309.9,1541.05 2311.18,1536.03 2313.51,1530.65C2315.84,1525.49 2317.89,1521.25 2320.01,1517.71C2320.09,1517.64 2320.16,1517.43 2320.3,1517.29C2320.93,1515.94 2321.78,1515.45 2322.7,1515.45C2322.84,1515.45 2325.67,1515.52 2325.67,1517.78C2325.67,1518.42 2325.25,1519.27 2324.96,1519.69C2321.85,1523.93 2319.45,1528.81 2317.54,1532.77ZM2339.81,1555.19L2339.81,1554.97C2346.46,1535.04 2349.5,1527.54 2351.97,1521.6L2339.74,1522.73C2339.18,1522.8 2338.61,1522.87 2338.12,1522.87C2335.71,1522.87 2334.51,1520.05 2334.51,1518.91C2334.51,1518.49 2334.72,1517.5 2335.78,1517.5C2336.42,1517.5 2336.91,1517.57 2337.76,1517.57L2338.47,1517.57L2352.89,1516.51C2353.25,1516.51 2353.6,1516.37 2353.88,1516.3C2354.31,1516.16 2354.8,1516.09 2355.23,1516.09L2355.44,1516.09C2356.64,1516.3 2358.48,1517.92 2358.48,1519.55L2358.48,1519.83C2358.41,1520.61 2358.05,1521.25 2357.77,1521.74C2353.67,1529.94 2346.18,1550.94 2345.04,1557.17C2344.76,1558.65 2343.49,1558.86 2342.57,1558.86C2342.36,1558.86 2342.08,1558.79 2341.79,1558.79C2340.31,1558.58 2339.46,1557.8 2339.46,1556.6C2339.46,1556.18 2339.6,1555.75 2339.67,1555.54L2339.81,1555.19ZM2321.71,1554.2C2325.67,1554.2 2328.78,1550.38 2328.78,1544.65C2328.78,1540.2 2326.31,1536.45 2322.49,1536.45C2317.68,1536.45 2314.57,1540.83 2314.57,1546C2314.57,1550.66 2317.47,1554.2 2321.71,1554.2ZM2358.48,1568.41C2361.87,1568.41 2363.99,1565.86 2363.99,1562.89L2363.99,1511.56C2363.99,1508.1 2361.52,1506.05 2358.48,1506.05L2307.14,1506.05C2303.68,1506.05 2301.63,1508.38 2301.63,1511.56L2301.63,1562.89C2301.63,1566.08 2304.11,1568.41 2307.14,1568.41L2358.48,1568.41Z" style="fill-rule:nonzero;"/>
        </g>
    </g>
</svg>
