<?xml version="1.0" encoding="UTF-8" standalone="no"?>
<!DOCTYPE svg PUBLIC "-//W3C//DTD SVG 1.1//EN" "http://www.w3.org/Graphics/SVG/1.1/DTD/svg11.dtd">
<svg width="100%" height="100%" viewBox="0 0 96 96" version="1.1" xmlns="http://www.w3.org/2000/svg" xmlns:xlink="http://www.w3.org/1999/xlink" xml:space="preserve" xmlns:serif="http://www.serif.com/" style="fill-rule:evenodd;clip-rule:evenodd;stroke-linejoin:round;stroke-miterlimit:2;">
    <g transform="matrix(1,0,0,1,-1609.63,-3473.28)">
        <g transform="matrix(1,0,0,1,-110.019,-3591.86)">
            <path d="M1815.25,7112.94C1815.25,7086.55 1793.85,7065.15 1767.45,7065.15C1741.05,7065.15 1719.65,7086.55 1719.65,7112.94C1719.65,7139.35 1741.05,7160.65 1767.45,7160.65C1793.85,7160.65 1815.25,7139.35 1815.25,7112.94ZM1779.15,7106.74C1781.25,7105.44 1783.75,7104.85 1786.45,7104.85C1795.95,7104.85 1802.35,7112.55 1802.35,7122.94C1802.35,7134.24 1795.95,7143.35 1785.15,7143.35C1775.45,7143.35 1767.95,7135.15 1767.95,7125.15C1767.95,7118.15 1769.75,7111.24 1773.25,7103.74C1776.55,7096.55 1779.65,7090.65 1782.65,7085.85C1782.85,7085.65 1782.95,7085.44 1783.05,7085.24C1784.35,7082.65 1786.35,7082.65 1786.55,7082.65C1788.95,7082.65 1791.05,7084.05 1791.05,7085.94C1791.05,7086.85 1790.35,7087.94 1789.85,7088.55C1785.35,7094.44 1781.85,7101.15 1779.15,7106.74ZM1739.65,7137.74C1739.75,7137.65 1739.75,7137.65 1739.75,7137.44C1740.55,7135.15 1741.25,7132.94 1741.65,7131.55C1745.65,7119.05 1750.95,7104.74 1756.55,7091.24L1739.65,7092.74C1738.85,7092.85 1738.05,7092.94 1737.35,7092.94C1733.75,7092.94 1732.35,7088.55 1732.35,7087.44C1732.35,7086.85 1732.65,7085.55 1734.15,7085.55C1734.95,7085.55 1735.75,7085.65 1736.95,7085.65L1737.85,7085.65L1757.85,7084.15C1758.35,7084.15 1758.75,7083.94 1759.25,7083.85C1759.85,7083.65 1760.45,7083.55 1761.05,7083.55L1761.35,7083.55C1763.05,7083.85 1765.55,7086.05 1765.55,7088.35L1765.55,7088.74C1765.45,7089.85 1764.95,7090.74 1764.65,7091.35C1761.35,7096.35 1748.95,7129.65 1746.95,7140.44C1746.55,7142.55 1744.85,7142.85 1743.55,7142.85C1743.25,7142.85 1742.85,7142.74 1742.45,7142.74C1740.35,7142.44 1739.25,7141.35 1739.25,7139.74C1739.25,7139.15 1739.45,7138.55 1739.55,7138.24L1739.65,7137.74ZM1785.15,7136.35C1791.05,7136.35 1795.55,7131.15 1795.55,7123.15C1795.55,7116.94 1791.95,7111.74 1786.35,7111.74C1779.35,7111.74 1774.75,7117.85 1774.75,7125.05C1774.75,7131.44 1779.05,7136.35 1785.15,7136.35Z" style="fill-rule:nonzero;"/>
        </g>
    </g>
</svg>
