<?xml version="1.0" encoding="UTF-8" standalone="no"?>
<!DOCTYPE svg PUBLIC "-//W3C//DTD SVG 1.1//EN" "http://www.w3.org/Graphics/SVG/1.1/DTD/svg11.dtd">
<svg width="100%" height="100%" viewBox="0 0 96 96" version="1.1" xmlns="http://www.w3.org/2000/svg" xmlns:xlink="http://www.w3.org/1999/xlink" xml:space="preserve" xmlns:serif="http://www.serif.com/" style="fill-rule:evenodd;clip-rule:evenodd;stroke-linejoin:round;stroke-miterlimit:2;">
    <g transform="matrix(1,0,0,1,-1509.63,-3173.28)">
        <g transform="matrix(1,0,0,1,-110.019,-3591.86)">
            <path d="M1715.25,6812.94C1715.25,6786.55 1693.85,6765.15 1667.45,6765.15C1641.05,6765.15 1619.65,6786.55 1619.65,6812.94C1619.65,6839.35 1641.05,6860.65 1667.45,6860.65C1693.85,6860.65 1715.25,6839.35 1715.25,6812.94ZM1676.55,6817.24C1676.05,6817.74 1675.65,6817.85 1675.05,6817.85C1673.25,6817.85 1670.75,6815.85 1670.75,6812.94C1670.75,6811.85 1671.45,6809.24 1671.55,6809.05L1673.25,6789.85C1673.35,6788.85 1673.45,6787.55 1673.45,6786.55C1673.45,6784.74 1674.75,6784.24 1675.75,6784.24C1676.65,6784.24 1677.75,6784.65 1678.75,6785.15L1691.75,6784.24C1693.05,6784.15 1694.95,6784.05 1696.35,6783.74L1696.65,6783.74C1698.85,6783.74 1699.95,6787.15 1699.95,6788.55C1699.95,6789.65 1699.45,6791.05 1697.95,6791.05L1692.45,6791.35L1679.55,6792.24L1678.15,6806.94C1680.75,6805.24 1683.65,6804.24 1687.45,6804.24C1695.85,6804.24 1702.85,6811.15 1702.85,6822.74C1702.85,6833.44 1697.45,6843.35 1684.25,6843.35C1677.95,6843.35 1673.35,6839.85 1669.85,6835.65C1669.25,6834.85 1668.95,6833.94 1668.95,6832.94C1668.95,6831.15 1670.15,6827.55 1672.35,6827.55C1673.25,6827.55 1673.85,6828.15 1674.25,6828.85C1676.65,6832.94 1679.65,6836.05 1684.25,6836.05C1692.75,6836.05 1696.05,6829.94 1696.05,6822.85C1696.05,6815.35 1692.35,6811.24 1686.75,6811.24C1683.45,6811.24 1680.65,6812.85 1678.55,6815.15L1676.55,6817.24ZM1656.25,6808.94C1661.35,6810.44 1665.55,6815.85 1665.55,6823.35C1665.55,6834.05 1659.95,6843.35 1646.55,6843.35C1640.85,6843.35 1636.35,6840.85 1632.35,6836.55C1631.55,6835.74 1631.45,6834.74 1631.45,6833.94C1631.45,6832.35 1632.55,6828.85 1634.85,6828.85C1635.45,6828.85 1635.95,6829.15 1636.55,6829.85C1639.45,6833.74 1642.25,6836.15 1646.55,6836.15C1655.35,6836.15 1658.65,6830.05 1658.65,6823.44C1658.65,6817.94 1654.85,6813.94 1649.25,6813.94C1646.95,6813.94 1644.45,6814.55 1643.85,6814.65C1643.65,6814.74 1643.65,6814.74 1643.35,6814.74C1641.05,6814.74 1639.85,6811.65 1639.85,6810.15C1639.85,6809.05 1640.45,6807.74 1641.85,6807.44C1647.25,6807.05 1656.55,6803.74 1656.55,6796.85C1656.55,6792.55 1654.05,6789.85 1649.35,6789.85C1645.45,6789.85 1642.25,6791.65 1638.85,6795.85C1638.15,6796.74 1637.55,6797.65 1636.35,6797.65C1635.25,6797.65 1632.95,6795.94 1632.95,6792.85C1632.95,6791.65 1633.45,6790.85 1633.85,6790.24C1637.85,6785.55 1642.85,6782.74 1649.25,6782.74C1657.35,6782.74 1663.35,6787.74 1663.35,6796.35C1663.35,6803.94 1658.35,6808.05 1656.25,6808.94Z" style="fill-rule:nonzero;"/>
        </g>
    </g>
</svg>
