<?xml version="1.0" encoding="UTF-8" standalone="no"?>
<!DOCTYPE svg PUBLIC "-//W3C//DTD SVG 1.1//EN" "http://www.w3.org/Graphics/SVG/1.1/DTD/svg11.dtd">
<svg width="100%" height="100%" viewBox="0 0 89 89" version="1.1" xmlns="http://www.w3.org/2000/svg" xmlns:xlink="http://www.w3.org/1999/xlink" xml:space="preserve" xmlns:serif="http://www.serif.com/" style="fill-rule:evenodd;clip-rule:evenodd;stroke-linejoin:round;stroke-miterlimit:2;">
    <g transform="matrix(1,0,0,1,-558.739,-871.632)">
        <g transform="matrix(1.41414,0,0,1.41429,-177.055,-770.755)">
            <path d="M582.675,1223.65L582.675,1161.28L520.312,1161.28L520.312,1223.65L582.675,1223.65ZM543.009,1189.71C546.544,1190.7 549.372,1194.66 549.372,1200.03C549.372,1207.74 545.483,1214.45 536.362,1214.45C532.473,1214.45 529.362,1212.69 526.604,1209.58C526.11,1208.94 526.039,1208.23 526.039,1207.67C526.039,1206.54 526.746,1203.99 528.301,1203.99C528.726,1203.99 529.079,1204.2 529.503,1204.7C531.483,1207.53 533.392,1209.29 536.362,1209.29C542.372,1209.29 544.635,1204.84 544.635,1200.1C544.635,1196.14 542.089,1193.24 538.2,1193.24C537.847,1193.24 537.493,1193.24 537.14,1193.31C536.291,1193.38 535.372,1193.53 534.524,1193.74C534.382,1193.81 534.312,1193.81 534.17,1193.81C532.615,1193.81 531.766,1191.62 531.766,1190.49C531.766,1189.71 532.19,1188.79 533.11,1188.58C536.998,1188.22 543.221,1185.89 543.221,1180.94C543.221,1177.83 541.524,1175.85 538.271,1175.85C535.584,1175.85 533.392,1177.12 531.059,1180.23C530.564,1180.87 530.211,1181.51 529.362,1181.51C527.877,1181.51 527.029,1179.24 527.029,1178.04C527.029,1175.57 531.978,1170.76 538.2,1170.76C543.786,1170.76 547.887,1174.29 547.887,1180.59C547.887,1186.03 544.423,1189 543.009,1189.71ZM572.988,1206.68C572.988,1209.01 573.271,1211.27 573.271,1212.62C573.271,1213.39 572.564,1214.24 571.433,1214.24C569.948,1214.24 567.968,1212.97 567.968,1211.56C567.968,1210.64 568.11,1207.38 568.11,1206.54L568.11,1204.49L557.716,1204.84C557.433,1204.84 556.726,1204.98 555.453,1205.33L555.594,1205.26L555.453,1205.26C553.897,1205.26 552.271,1203.5 552.271,1201.59C552.271,1200.6 552.554,1200.17 553.685,1198.4C555.524,1196.14 564.716,1176.91 566.342,1171.96C566.625,1171.04 567.332,1170.9 567.756,1170.9C569.17,1170.9 571.009,1173.16 571.009,1174.86C571.009,1175.28 570.867,1175.71 570.655,1176.06C570.089,1176.91 569.382,1178.18 568.958,1179.1C566.271,1184.9 562.17,1193.17 558.635,1199.75L568.11,1199.54L568.11,1188.65C568.11,1187.52 567.968,1183.84 567.968,1182.5C567.968,1181.72 568.675,1180.87 569.806,1180.87C571.221,1180.87 573.13,1182.07 573.13,1183.56C573.13,1184.48 572.988,1187.23 572.988,1188.65L572.988,1199.32C573.908,1199.25 575.322,1198.97 575.958,1198.97C577.655,1198.97 578.503,1201.59 578.503,1202.65C578.503,1203.14 578.291,1204.49 577.019,1204.49C576.312,1204.49 574.402,1204.34 572.988,1204.34L572.988,1206.68Z" style="fill-rule:nonzero;"/>
        </g>
    </g>
</svg>
