<?xml version="1.0" encoding="UTF-8" standalone="no"?>
<!DOCTYPE svg PUBLIC "-//W3C//DTD SVG 1.1//EN" "http://www.w3.org/Graphics/SVG/1.1/DTD/svg11.dtd">
<svg width="100%" height="100%" viewBox="0 0 89 89" version="1.1" xmlns="http://www.w3.org/2000/svg" xmlns:xlink="http://www.w3.org/1999/xlink" xml:space="preserve" xmlns:serif="http://www.serif.com/" style="fill-rule:evenodd;clip-rule:evenodd;stroke-linejoin:round;stroke-miterlimit:2;">
    <g transform="matrix(1,0,0,1,-2402.42,-242.274)">
        <g transform="matrix(1.41414,0,0,1.41429,-1052.39,-837.704)">
            <path d="M2499.89,825.984C2503.29,825.984 2505.41,823.439 2505.41,820.469L2505.41,769.136C2505.41,765.671 2502.93,763.621 2499.89,763.621L2448.56,763.621C2445.1,763.621 2443.04,765.954 2443.04,769.136L2443.04,820.469C2443.04,823.651 2445.52,825.984 2448.56,825.984L2499.89,825.984ZM2489.29,778.116C2487.24,783.419 2483.07,806.894 2482.14,814.389C2481.93,816.156 2480.1,816.51 2478.75,816.51C2477.27,816.51 2476.42,815.732 2476.42,814.459C2476.42,813.964 2476.56,813.399 2476.63,812.904C2477.41,809.227 2479.11,800.247 2479.81,796.641C2476.77,799.328 2472.6,800.813 2468.92,800.813C2462.7,800.813 2457.19,796.712 2457.19,789.5C2457.19,781.227 2464.47,773.096 2473.8,773.096C2478.47,773.096 2481.86,774.863 2483.84,776.631C2484.05,775.287 2484.55,774.722 2485.89,774.722C2486.95,774.863 2489.29,775.924 2489.29,777.692L2489.29,778.116ZM2482.57,783.136C2482,782.924 2481.58,782.358 2481.37,781.934C2480.8,780.732 2478.12,778.186 2474.09,778.186C2467.16,778.186 2462.56,784.55 2462.56,789.287C2462.56,793.53 2465.18,795.58 2468.92,795.58C2472.74,795.58 2479.32,793.53 2482.43,784.126C2482.5,783.772 2482.57,783.419 2482.57,783.136Z" style="fill-rule:nonzero;"/>
        </g>
    </g>
</svg>
