<?xml version="1.0" encoding="UTF-8" standalone="no"?>
<!DOCTYPE svg PUBLIC "-//W3C//DTD SVG 1.1//EN" "http://www.w3.org/Graphics/SVG/1.1/DTD/svg11.dtd">
<svg width="100%" height="100%" viewBox="0 0 89 89" version="1.1" xmlns="http://www.w3.org/2000/svg" xmlns:xlink="http://www.w3.org/1999/xlink" xml:space="preserve" xmlns:serif="http://www.serif.com/" style="fill-rule:evenodd;clip-rule:evenodd;stroke-linejoin:round;stroke-miterlimit:2;">
    <g transform="matrix(1,0,0,1,-258.769,-1621.63)">
        <g transform="matrix(1.41414,0,0,1.41429,-177.055,-770.755)">
            <path d="M370.554,1753.95L370.554,1691.59L308.19,1691.59L308.19,1753.95L370.554,1753.95ZM339.584,1707.42C340.786,1707.42 341.564,1708.34 341.564,1709.55C341.564,1712.44 333.221,1719.23 332.726,1719.59C338.665,1722.56 341.847,1726.38 341.847,1732.17C341.847,1739.88 336.12,1744.76 327.988,1744.76C320.493,1744.76 315.827,1739.67 315.827,1732.95C315.827,1727.79 318.584,1723.9 322.968,1720.51C318.938,1718.1 317.524,1715.49 317.524,1711.67C317.524,1706.01 321.837,1701.13 328.908,1701.13C333.645,1701.13 336.897,1703.96 339.16,1707.21C339.16,1707.28 339.231,1707.35 339.231,1707.42L339.584,1707.42ZM358.958,1736.56C358.958,1738.11 359.029,1741.43 359.099,1742.85C359.099,1743.91 358.322,1744.55 357.19,1744.55C355.635,1744.55 353.655,1743.27 353.655,1741.93C353.655,1741.01 353.796,1738.11 353.796,1736.91L353.796,1709.4C352.594,1710.04 349.695,1711.24 348.635,1711.24C347.15,1711.24 345.453,1709.9 345.453,1708.91C345.453,1707.99 346.089,1707.57 346.655,1707.35C349.271,1706.29 351.746,1704.81 353.301,1703.54L353.584,1703.18L354.221,1702.55C354.928,1701.84 355.705,1701.34 356.271,1701.34C357.544,1701.34 359.312,1702.83 359.312,1704.53C359.312,1705.44 358.958,1706.43 358.958,1708.06L358.958,1736.56ZM327.988,1722.98C323.322,1726.44 320.988,1729.41 320.988,1732.81C320.988,1736.2 323.039,1739.6 327.988,1739.6C333.221,1739.6 336.685,1736.56 336.685,1732.45C336.685,1728.92 335.059,1726.16 328.837,1723.33C328.554,1723.19 328.271,1723.05 327.988,1722.98ZM335.271,1710.82C335.059,1710.61 334.918,1710.39 334.776,1710.18C333.291,1707.57 331.665,1706.15 328.978,1706.15C324.594,1706.15 322.685,1708.98 322.685,1711.67C322.685,1713.86 323.463,1715.13 327.705,1717.18C330.534,1715.27 333.009,1713.01 335.271,1710.82Z" style="fill-rule:nonzero;"/>
        </g>
    </g>
</svg>
