<?xml version="1.0" encoding="UTF-8" standalone="no"?>
<!DOCTYPE svg PUBLIC "-//W3C//DTD SVG 1.1//EN" "http://www.w3.org/Graphics/SVG/1.1/DTD/svg11.dtd">
<svg width="100%" height="100%" viewBox="0 0 96 96" version="1.1" xmlns="http://www.w3.org/2000/svg" xmlns:xlink="http://www.w3.org/1999/xlink" xml:space="preserve" xmlns:serif="http://www.serif.com/" style="fill-rule:evenodd;clip-rule:evenodd;stroke-linejoin:round;stroke-miterlimit:2;">
    <g transform="matrix(1,0,0,1,-1309.63,-3623.28)">
        <g transform="matrix(1,0,0,1,-110.019,-3591.86)">
            <path d="M1515.25,7262.94C1515.25,7236.55 1493.85,7215.15 1467.45,7215.15C1441.05,7215.15 1419.65,7236.55 1419.65,7262.94C1419.65,7289.35 1441.05,7310.65 1467.45,7310.65C1493.85,7310.65 1515.25,7289.35 1515.25,7262.94ZM1466.05,7239.65C1463.25,7250.74 1458.05,7282.35 1457.75,7289.94C1457.55,7292.35 1455.05,7292.94 1453.55,7292.94C1451.85,7292.94 1450.75,7292.05 1450.75,7290.15C1450.75,7289.35 1450.95,7288.74 1451.15,7287.94C1451.45,7285.65 1451.95,7283.24 1452.15,7281.85C1452.95,7277.24 1453.85,7271.44 1454.75,7265.85C1451.75,7269.15 1447.75,7271.15 1443.85,7271.15C1436.75,7271.15 1431.95,7265.15 1431.95,7255.55C1431.95,7244.24 1439.45,7232.74 1449.65,7232.74C1454.55,7232.74 1457.75,7235.05 1459.65,7237.44C1459.85,7236.44 1460.45,7235.05 1461.95,7235.05C1463.95,7235.05 1466.05,7236.94 1466.05,7239.15L1466.05,7239.65ZM1492.85,7258.94C1497.75,7260.44 1501.65,7265.85 1501.65,7273.35C1501.65,7284.05 1496.35,7293.35 1483.65,7293.35C1478.25,7293.35 1473.95,7290.85 1470.15,7286.55C1469.45,7285.74 1469.35,7284.74 1469.35,7283.94C1469.35,7282.35 1470.35,7278.85 1472.55,7278.85C1473.05,7278.85 1473.55,7279.15 1474.15,7279.85C1476.85,7283.74 1479.55,7286.15 1483.65,7286.15C1492.05,7286.15 1495.15,7280.05 1495.15,7273.44C1495.15,7267.94 1491.55,7263.94 1486.15,7263.94C1485.75,7263.94 1485.25,7263.94 1484.75,7264.05C1483.65,7264.15 1482.25,7264.35 1481.05,7264.65C1480.85,7264.74 1480.85,7264.74 1480.65,7264.74C1478.45,7264.74 1477.35,7261.65 1477.35,7260.15C1477.35,7259.05 1477.85,7257.74 1479.15,7257.44C1484.55,7257.05 1493.15,7253.65 1493.15,7246.85C1493.15,7242.55 1490.85,7239.85 1486.25,7239.85C1482.65,7239.85 1479.55,7241.65 1476.35,7245.85C1475.65,7246.74 1475.15,7247.65 1473.95,7247.65C1471.95,7247.65 1470.65,7244.44 1470.65,7242.85C1470.65,7239.85 1477.35,7232.74 1486.15,7232.74C1493.95,7232.74 1499.65,7237.74 1499.65,7246.35C1499.65,7253.94 1494.85,7258.05 1492.85,7258.94ZM1458.15,7246.65C1457.35,7246.35 1456.95,7245.65 1456.65,7244.94C1455.85,7242.94 1454.15,7239.85 1450.05,7239.85C1442.75,7239.85 1438.35,7248.44 1438.35,7255.24C1438.35,7261.55 1440.35,7263.94 1443.75,7263.94C1453.45,7263.94 1457.45,7249.55 1457.85,7248.05L1458.15,7246.65Z" style="fill-rule:nonzero;"/>
        </g>
    </g>
</svg>
