<?xml version="1.0" encoding="UTF-8" standalone="no"?>
<!DOCTYPE svg PUBLIC "-//W3C//DTD SVG 1.1//EN" "http://www.w3.org/Graphics/SVG/1.1/DTD/svg11.dtd">
<svg width="100%" height="100%" viewBox="0 0 96 96" version="1.1" xmlns="http://www.w3.org/2000/svg" xmlns:xlink="http://www.w3.org/1999/xlink" xml:space="preserve" xmlns:serif="http://www.serif.com/" style="fill-rule:evenodd;clip-rule:evenodd;stroke-linejoin:round;stroke-miterlimit:2;">
    <g transform="matrix(1,0,0,1,-1109.63,-3173.28)">
        <g transform="matrix(1,0,0,1,-110.019,-3591.86)">
            <path d="M1315.25,6812.94C1315.25,6786.55 1293.85,6765.15 1267.45,6765.15C1241.05,6765.15 1219.65,6786.55 1219.65,6812.94C1219.65,6839.35 1241.05,6860.65 1267.45,6860.65C1293.85,6860.65 1315.25,6839.35 1315.25,6812.94ZM1259.95,6808.94C1265.35,6810.44 1269.75,6815.85 1269.75,6823.35C1269.75,6834.05 1263.85,6843.35 1249.75,6843.35C1243.75,6843.35 1238.95,6840.85 1234.65,6836.55C1233.85,6835.74 1233.85,6834.74 1233.85,6833.94C1233.85,6832.35 1234.85,6828.85 1237.35,6828.85C1237.95,6828.85 1238.55,6829.15 1239.15,6829.85C1242.15,6833.74 1245.15,6836.15 1249.75,6836.15C1258.95,6836.15 1262.45,6830.05 1262.45,6823.44C1262.45,6817.94 1258.45,6813.94 1252.55,6813.94C1251.65,6813.94 1249.05,6814.15 1246.85,6814.65C1246.65,6814.74 1246.55,6814.74 1246.35,6814.74C1243.85,6814.74 1242.65,6811.65 1242.65,6810.15C1242.65,6809.05 1243.25,6807.74 1244.75,6807.44C1251.55,6806.94 1260.25,6802.94 1260.25,6796.85C1260.25,6792.55 1257.65,6789.85 1252.65,6789.85C1248.55,6789.85 1245.15,6791.65 1241.55,6795.85C1240.85,6796.74 1240.15,6797.65 1238.95,6797.65C1236.15,6797.65 1235.25,6793.65 1235.25,6792.85C1235.25,6789.94 1242.55,6782.74 1252.55,6782.74C1261.15,6782.74 1267.45,6787.74 1267.45,6796.35C1267.45,6803.94 1262.15,6808.05 1259.95,6808.94ZM1294.35,6831.94C1294.35,6834.15 1294.45,6838.65 1294.55,6840.74C1294.55,6842.15 1293.45,6843.05 1291.95,6843.05C1289.75,6843.05 1286.95,6841.24 1286.95,6839.44C1286.95,6838.15 1287.15,6834.15 1287.15,6832.44L1287.15,6794.35C1284.35,6795.65 1281.25,6796.85 1279.95,6796.85C1277.95,6796.85 1275.65,6795.05 1275.65,6793.65C1275.65,6792.44 1276.55,6791.74 1277.25,6791.44C1280.85,6789.94 1284.35,6787.94 1286.45,6786.24L1286.95,6785.74L1287.75,6784.74C1288.65,6783.85 1289.75,6783.15 1290.65,6783.15C1292.45,6783.15 1294.75,6785.24 1294.75,6787.55C1294.75,6788.85 1294.35,6790.24 1294.35,6792.44L1294.35,6831.94Z" style="fill-rule:nonzero;"/>
        </g>
    </g>
</svg>
