<?xml version="1.0" encoding="UTF-8" standalone="no"?>
<!DOCTYPE svg PUBLIC "-//W3C//DTD SVG 1.1//EN" "http://www.w3.org/Graphics/SVG/1.1/DTD/svg11.dtd">
<svg width="100%" height="100%" viewBox="0 0 89 89" version="1.1" xmlns="http://www.w3.org/2000/svg" xmlns:xlink="http://www.w3.org/1999/xlink" xml:space="preserve" xmlns:serif="http://www.serif.com/" style="fill-rule:evenodd;clip-rule:evenodd;stroke-linejoin:round;stroke-miterlimit:2;">
    <g transform="matrix(1,0,0,1,-458.749,-1621.63)">
        <g transform="matrix(1.41414,0,0,1.41429,-177.055,-770.755)">
            <path d="M511.968,1753.95L511.968,1691.59L449.604,1691.59L449.604,1753.95L511.968,1753.95ZM478.312,1707.42C479.372,1707.42 480.15,1708.34 480.15,1709.55C480.15,1712.3 473.362,1718.38 471.736,1719.59C477.463,1722.56 480.433,1726.38 480.433,1732.17C480.433,1739.88 474.988,1744.76 467.281,1744.76C460.14,1744.76 455.756,1739.67 455.756,1732.95C455.756,1727.79 458.372,1723.9 462.473,1720.51C458.655,1718.1 457.312,1715.49 457.312,1711.67C457.312,1706.01 461.483,1701.13 468.2,1701.13C472.584,1701.13 475.766,1703.96 477.887,1707.21C477.887,1707.28 477.958,1707.35 477.958,1707.42L478.312,1707.42ZM499.594,1720.01C503.13,1721 506.029,1724.96 506.029,1730.33C506.029,1738.04 502.14,1744.76 492.948,1744.76C489.059,1744.76 485.948,1742.99 483.19,1739.88C482.695,1739.24 482.625,1738.54 482.625,1737.97C482.625,1736.84 483.332,1734.29 484.887,1734.29C485.312,1734.29 485.665,1734.51 486.089,1735C488.069,1737.83 489.978,1739.6 492.948,1739.6C499.029,1739.6 501.291,1735.14 501.291,1730.4C501.291,1726.44 498.675,1723.55 494.786,1723.55C493.443,1723.55 491.887,1723.83 491.11,1724.04C490.968,1724.11 490.968,1724.11 490.827,1724.11C489.2,1724.11 488.352,1721.92 488.352,1720.79C488.352,1720.01 488.776,1719.09 489.695,1718.88C494.857,1718.45 499.806,1715.27 499.806,1711.24C499.806,1708.13 498.18,1706.15 494.857,1706.15C492.241,1706.15 489.978,1707.42 487.645,1710.54C487.15,1711.17 486.796,1711.81 485.948,1711.81C484.463,1711.81 483.615,1709.55 483.615,1708.34C483.615,1705.87 488.564,1701.06 494.786,1701.06C500.443,1701.06 504.473,1704.6 504.473,1710.89C504.473,1716.33 501.079,1719.3 499.594,1720.01ZM467.281,1722.98C462.827,1726.44 460.635,1729.41 460.635,1732.81C460.635,1736.2 462.544,1739.6 467.281,1739.6C472.231,1739.6 475.483,1736.56 475.483,1732.45C475.483,1728.92 473.998,1726.16 468.059,1723.33C467.847,1723.19 467.564,1723.05 467.281,1722.98ZM473.716,1710.18C472.301,1707.57 470.746,1706.15 468.2,1706.15C464.029,1706.15 462.261,1708.98 462.261,1711.67C462.261,1713.86 462.968,1715.13 466.998,1717.18C469.685,1715.27 472.019,1713.01 474.14,1710.82L473.716,1710.18Z" style="fill-rule:nonzero;"/>
        </g>
    </g>
</svg>
