<?xml version="1.0" encoding="UTF-8" standalone="no"?>
<!DOCTYPE svg PUBLIC "-//W3C//DTD SVG 1.1//EN" "http://www.w3.org/Graphics/SVG/1.1/DTD/svg11.dtd">
<svg width="100%" height="100%" viewBox="0 0 96 96" version="1.1" xmlns="http://www.w3.org/2000/svg" xmlns:xlink="http://www.w3.org/1999/xlink" xml:space="preserve" xmlns:serif="http://www.serif.com/" style="fill-rule:evenodd;clip-rule:evenodd;stroke-linejoin:round;stroke-miterlimit:2;">
    <g transform="matrix(1,0,0,1,-1109.63,-3623.28)">
        <g transform="matrix(1,0,0,1,-110.019,-3591.86)">
            <path d="M1315.25,7262.94C1315.25,7236.55 1293.85,7215.15 1267.45,7215.15C1241.05,7215.15 1219.65,7236.55 1219.65,7262.94C1219.65,7289.35 1241.05,7310.65 1267.45,7310.65C1293.85,7310.65 1315.25,7289.35 1315.25,7262.94ZM1258.05,7265.85C1254.65,7269.15 1250.25,7271.15 1245.95,7271.15C1237.95,7271.15 1232.55,7265.15 1232.55,7255.55C1232.55,7244.24 1240.95,7232.74 1252.35,7232.74C1257.75,7232.74 1261.35,7235.05 1263.45,7237.44C1263.65,7236.44 1264.25,7235.05 1266.05,7235.05C1268.25,7235.05 1270.55,7236.94 1270.55,7239.15L1270.55,7239.65L1269.65,7242.74C1268.55,7247.55 1262.25,7278.85 1261.25,7289.94C1261.05,7292.35 1258.35,7292.94 1256.65,7292.94C1254.85,7292.94 1253.55,7292.05 1253.55,7290.15C1253.55,7289.35 1253.85,7288.74 1253.95,7287.94C1254.35,7285.65 1254.95,7283.24 1255.15,7281.85L1258.05,7265.85ZM1295.55,7281.94C1295.55,7284.15 1295.65,7288.65 1295.75,7290.74C1295.75,7292.15 1294.65,7293.05 1293.15,7293.05C1290.95,7293.05 1288.15,7291.24 1288.15,7289.44C1288.15,7288.15 1288.35,7284.15 1288.35,7282.44L1288.35,7244.35C1285.55,7245.65 1282.45,7246.85 1281.15,7246.85C1279.15,7246.85 1276.85,7245.05 1276.85,7243.65C1276.85,7242.44 1277.75,7241.74 1278.45,7241.44C1282.05,7239.94 1285.55,7237.94 1287.65,7236.24C1287.85,7236.15 1287.95,7235.94 1288.15,7235.74L1288.95,7234.74C1289.85,7233.85 1290.95,7233.15 1291.85,7233.15C1293.65,7233.15 1296.05,7235.15 1296.05,7237.55C1296.05,7238.85 1295.55,7240.24 1295.55,7242.44L1295.55,7281.94ZM1261.75,7246.65C1260.95,7246.35 1260.45,7245.65 1260.15,7244.94C1259.15,7242.94 1257.25,7239.85 1252.75,7239.85C1244.65,7239.85 1239.75,7248.44 1239.75,7255.24C1239.75,7261.55 1241.95,7263.94 1245.85,7263.94C1251.75,7263.94 1255.55,7260.05 1259.45,7253.24C1260.15,7252.05 1260.85,7249.85 1261.45,7248.05L1261.75,7246.65Z" style="fill-rule:nonzero;"/>
        </g>
    </g>
</svg>
