<?xml version="1.0" encoding="UTF-8" standalone="no"?>
<!DOCTYPE svg PUBLIC "-//W3C//DTD SVG 1.1//EN" "http://www.w3.org/Graphics/SVG/1.1/DTD/svg11.dtd">
<svg width="100%" height="100%" viewBox="0 0 89 89" version="1.1" xmlns="http://www.w3.org/2000/svg" xmlns:xlink="http://www.w3.org/1999/xlink" xml:space="preserve" xmlns:serif="http://www.serif.com/" style="fill-rule:evenodd;clip-rule:evenodd;stroke-linejoin:round;stroke-miterlimit:2;">
    <g transform="matrix(1,0,0,1,-158.78,-1921.63)">
        <g transform="matrix(1.41414,0,0,1.41429,-177.055,-770.755)">
            <path d="M299.847,1966.07L299.847,1903.71L237.483,1903.71L237.483,1966.07L299.847,1966.07ZM275.736,1920.47C275.736,1919.69 276.514,1918.84 277.786,1918.84C279.413,1918.84 281.604,1920.11 281.604,1921.38C280.827,1928.88 280.827,1936.09 280.827,1937.29C280.827,1939.41 280.968,1943.38 282.736,1946.34C282.948,1946.63 283.089,1946.98 283.089,1947.33C283.089,1948.61 281.604,1950.73 279.908,1950.73C279.13,1950.73 277.362,1950.52 275.948,1944.58C272.837,1948.96 268.524,1951.01 264.281,1951.01C257.847,1951.01 253.675,1946.41 253.675,1938.5C253.675,1927.89 261.594,1918.84 269.514,1918.84C271.705,1918.84 273.968,1919.62 275.736,1921.17L275.736,1920.47ZM275.594,1927.47C275.312,1927.47 274.604,1927.39 274.18,1926.76C272.837,1924.64 270.998,1923.86 269.514,1923.86C265.059,1923.86 259.261,1929.94 259.261,1938.21C259.261,1944.08 261.594,1945.92 264.281,1945.92C269.514,1945.92 275.099,1940.4 275.524,1931.42C275.594,1930.58 275.594,1929.02 275.594,1927.47Z" style="fill-rule:nonzero;"/>
        </g>
    </g>
</svg>
