<?xml version="1.0" encoding="UTF-8" standalone="no"?>
<!DOCTYPE svg PUBLIC "-//W3C//DTD SVG 1.1//EN" "http://www.w3.org/Graphics/SVG/1.1/DTD/svg11.dtd">
<svg width="100%" height="100%" viewBox="0 0 89 89" version="1.1" xmlns="http://www.w3.org/2000/svg" xmlns:xlink="http://www.w3.org/1999/xlink" xml:space="preserve" xmlns:serif="http://www.serif.com/" style="fill-rule:evenodd;clip-rule:evenodd;stroke-linejoin:round;stroke-miterlimit:2;">
    <g transform="matrix(1,0,0,1,-358.759,-1771.63)">
        <g transform="matrix(1.41414,0,0,1.41429,-177.055,-770.755)">
            <path d="M441.261,1860.01L441.261,1797.65L378.897,1797.65L378.897,1860.01L441.261,1860.01ZM399.473,1842.55L401.453,1831.02C399.12,1833.35 396.15,1834.84 393.18,1834.84C387.736,1834.84 384.059,1830.53 384.059,1823.53C384.059,1815.39 389.786,1807.12 397.564,1807.12C401.312,1807.12 403.716,1808.82 405.2,1810.44C405.342,1809.74 405.766,1808.75 406.897,1808.75C408.453,1808.75 410.079,1810.09 410.079,1811.72L410.079,1812.07C407.958,1818.93 403.928,1843.89 403.716,1848.34C403.574,1850.11 401.665,1850.54 400.534,1850.54C399.261,1850.54 398.413,1849.9 398.413,1848.56C398.413,1847.99 398.554,1847.5 398.695,1846.93L399.473,1842.55ZM415.029,1850.11C413.261,1850.11 412.2,1847.99 412.2,1846.58C412.2,1846.15 412.271,1845.59 412.625,1845.09L413.615,1843.54C415.594,1839.36 419.342,1833.14 423.796,1828.55C428.11,1824.16 430.443,1820.91 430.443,1817.66C430.443,1814.69 428.604,1812.21 425.211,1812.21C421.604,1812.21 419.13,1814.55 418.14,1817.59C417.857,1818.36 417.221,1819.64 415.948,1819.64C414.958,1819.64 413.049,1818.01 413.049,1816.24C413.049,1815.82 413.12,1815.18 413.473,1814.69C415.736,1810.23 419.625,1807.12 425.352,1807.12C431.645,1807.12 435.675,1811.51 435.675,1817.66C435.675,1823.38 431.928,1827.77 427.12,1832.51C423.301,1836.25 420.473,1840.92 418.635,1844.6C420.332,1844.45 422.312,1844.38 423.796,1844.38C426.342,1844.38 428.039,1844.45 430.16,1844.45C431.079,1844.45 432.847,1844.38 433.483,1844.38C435.251,1844.38 436.099,1846.93 436.099,1847.99C436.099,1848.84 435.604,1849.83 434.473,1849.83C430.019,1849.4 425.211,1849.4 423.301,1849.4C421.534,1849.4 419.766,1849.4 417.645,1849.69C417.15,1849.69 415.736,1850.04 415.382,1850.11L415.029,1850.11ZM403.998,1817.16C403.433,1816.95 403.079,1816.38 402.867,1815.96C402.231,1814.48 400.958,1812.21 397.847,1812.21C392.332,1812.21 389.009,1818.43 389.009,1823.31C389.009,1827.91 390.493,1829.61 393.11,1829.61C397.14,1829.61 399.756,1826.85 402.443,1821.9C402.938,1821.05 403.362,1819.42 403.786,1818.15L403.998,1817.16Z" style="fill-rule:nonzero;"/>
        </g>
    </g>
</svg>
