<?xml version="1.0" encoding="UTF-8" standalone="no"?>
<!DOCTYPE svg PUBLIC "-//W3C//DTD SVG 1.1//EN" "http://www.w3.org/Graphics/SVG/1.1/DTD/svg11.dtd">
<svg width="100%" height="100%" viewBox="0 0 89 89" version="1.1" xmlns="http://www.w3.org/2000/svg" xmlns:xlink="http://www.w3.org/1999/xlink" xml:space="preserve" xmlns:serif="http://www.serif.com/" style="fill-rule:evenodd;clip-rule:evenodd;stroke-linejoin:round;stroke-miterlimit:2;">
    <g transform="matrix(1,0,0,1,-258.769,-721.632)">
        <g transform="matrix(1.41414,0,0,1.41429,-177.055,-770.755)">
            <path d="M370.554,1117.59L370.554,1055.22L308.19,1055.22L308.19,1117.59L370.554,1117.59ZM318.796,1107.69C316.958,1107.69 315.827,1105.57 315.827,1104.15C315.827,1103.73 315.897,1103.16 316.251,1102.67C316.746,1102.03 317.029,1101.61 317.312,1101.11C319.433,1096.94 323.675,1090.72 328.413,1086.12C332.938,1081.74 335.413,1078.49 335.413,1075.23C335.413,1072.26 333.433,1069.79 329.897,1069.79C326.079,1069.79 323.463,1072.12 322.402,1075.16C322.12,1075.94 321.483,1077.21 320.14,1077.21C318.867,1077.21 317.099,1075.52 317.099,1073.82C317.099,1073.39 317.17,1072.76 317.524,1072.26C319.928,1067.81 324.029,1064.7 330.039,1064.7C336.615,1064.7 340.928,1069.08 340.928,1075.23C340.928,1080.96 336.968,1085.34 331.877,1090.08C327.847,1093.9 324.665,1098.57 322.615,1102.17C324.453,1102.03 326.503,1101.96 328.059,1101.96C330.746,1101.96 332.867,1102.03 335.13,1102.03C336.049,1102.03 337.887,1101.96 338.594,1101.96C340.433,1101.96 341.352,1104.51 341.352,1105.57C341.352,1106.41 340.857,1107.4 339.584,1107.4C335.554,1107.05 333.574,1106.98 327.493,1106.98C325.655,1106.98 323.817,1106.98 321.554,1107.26C321.13,1107.26 319.928,1107.55 319.15,1107.69L318.796,1107.69ZM359.099,1106.63C359.099,1107.62 358.251,1108.18 357.12,1108.18C355.423,1108.18 353.372,1106.91 353.372,1105.57C353.372,1104.65 353.514,1101.75 353.514,1100.55L353.514,1073.04C350.897,1074.31 348.14,1074.88 348.069,1074.88C346.514,1074.88 344.746,1073.54 344.746,1072.55C344.746,1071.63 345.453,1071.2 346.019,1070.99C348.776,1069.93 351.322,1068.44 353.019,1067.17L353.301,1066.82L354.009,1066.18C354.645,1065.48 355.493,1064.98 356.13,1064.98C357.473,1064.98 359.312,1066.46 359.312,1068.16C359.312,1069.08 358.958,1070.07 358.958,1071.7L358.958,1100.19C358.958,1101.75 359.029,1105.07 359.099,1106.49L359.099,1106.63Z" style="fill-rule:nonzero;"/>
        </g>
    </g>
</svg>
