<?xml version="1.0" encoding="UTF-8" standalone="no"?>
<!DOCTYPE svg PUBLIC "-//W3C//DTD SVG 1.1//EN" "http://www.w3.org/Graphics/SVG/1.1/DTD/svg11.dtd">
<svg width="100%" height="100%" viewBox="0 0 96 96" version="1.1" xmlns="http://www.w3.org/2000/svg" xmlns:xlink="http://www.w3.org/1999/xlink" xml:space="preserve" xmlns:serif="http://www.serif.com/" style="fill-rule:evenodd;clip-rule:evenodd;stroke-linejoin:round;stroke-miterlimit:2;">
    <g transform="matrix(1,0,0,1,-709.628,-3473.28)">
        <g transform="matrix(1,0,0,1,-110.019,-3591.86)">
            <path d="M915.248,7112.94C915.248,7086.55 893.848,7065.15 867.448,7065.15C841.048,7065.15 819.648,7086.55 819.648,7112.94C819.648,7139.35 841.048,7160.65 867.448,7160.65C893.848,7160.65 915.248,7139.35 915.248,7112.94ZM846.348,7106.74C848.348,7105.44 850.748,7104.85 853.248,7104.85C862.348,7104.85 868.448,7112.55 868.448,7122.94C868.448,7134.24 862.348,7143.35 852.148,7143.35C842.848,7143.35 835.748,7135.15 835.748,7125.15C835.748,7118.15 837.448,7111.24 840.748,7103.74C845.248,7093.55 849.148,7086.24 850.148,7085.24C850.748,7084.15 851.548,7082.65 853.448,7082.65C853.648,7082.65 857.648,7082.74 857.648,7085.94C857.648,7086.85 856.948,7087.94 856.548,7088.55C852.248,7094.44 848.948,7101.15 846.348,7106.74ZM877.148,7137.74C877.148,7137.65 877.248,7137.65 877.248,7137.44C878.048,7135.15 878.648,7132.94 879.148,7131.55C883.148,7119.05 888.448,7104.74 894.048,7091.24L877.148,7092.74C876.348,7092.85 875.548,7092.94 874.848,7092.94C871.248,7092.94 869.848,7088.55 869.848,7087.44C869.848,7086.85 870.148,7085.55 871.648,7085.55C872.448,7085.55 873.148,7085.65 874.348,7085.65L875.348,7085.65L895.348,7084.15C895.848,7084.15 896.248,7083.94 896.648,7083.85C897.348,7083.65 897.948,7083.55 898.548,7083.55L898.848,7083.55C900.548,7083.85 903.048,7086.05 903.048,7088.35L903.048,7088.74C902.948,7089.85 902.448,7090.74 902.048,7091.35C895.848,7103.65 886.148,7131.44 884.448,7140.44C884.048,7142.55 882.348,7142.85 881.048,7142.85C880.748,7142.85 880.348,7142.74 879.848,7142.74C877.848,7142.44 876.748,7141.35 876.748,7139.74C876.748,7139.15 876.848,7138.55 876.948,7138.24L877.148,7137.74ZM852.148,7136.35C857.648,7136.35 861.948,7131.15 861.948,7123.15C861.948,7116.94 858.548,7111.74 853.148,7111.74C846.548,7111.74 842.248,7117.85 842.248,7125.05C842.248,7131.44 846.248,7136.35 852.148,7136.35Z" style="fill-rule:nonzero;"/>
        </g>
    </g>
</svg>
