<?xml version="1.0" encoding="UTF-8" standalone="no"?>
<!DOCTYPE svg PUBLIC "-//W3C//DTD SVG 1.1//EN" "http://www.w3.org/Graphics/SVG/1.1/DTD/svg11.dtd">
<svg width="100%" height="100%" viewBox="0 0 89 89" version="1.1" xmlns="http://www.w3.org/2000/svg" xmlns:xlink="http://www.w3.org/1999/xlink" xml:space="preserve" xmlns:serif="http://www.serif.com/" style="fill-rule:evenodd;clip-rule:evenodd;stroke-linejoin:round;stroke-miterlimit:2;">
    <g transform="matrix(1,0,0,1,-2202.44,-1592.27)">
        <g transform="matrix(1.41414,0,0,1.41429,-1052.39,-837.704)">
            <path d="M2340.52,1767.31L2340.52,1767.1C2347.17,1747.16 2350.21,1739.66 2352.68,1733.72L2340.45,1734.85C2339.88,1734.92 2339.32,1735 2338.82,1735C2336.42,1735 2335.22,1732.17 2335.22,1731.04C2335.22,1730.61 2335.43,1729.62 2336.49,1729.62C2337.12,1729.62 2337.62,1729.69 2338.47,1729.69L2339.18,1729.69L2353.6,1728.63C2353.95,1728.63 2354.31,1728.49 2354.59,1728.42C2355.01,1728.28 2355.51,1728.21 2355.93,1728.21L2356.14,1728.21C2357.35,1728.42 2359.19,1730.05 2359.19,1731.67L2359.19,1731.95C2359.12,1732.73 2358.76,1733.37 2358.48,1733.86C2354.38,1742.07 2346.88,1763.07 2345.75,1769.29C2345.47,1770.77 2344.2,1770.98 2343.28,1770.98C2343.07,1770.98 2342.78,1770.91 2342.5,1770.91C2341.01,1770.7 2340.17,1769.92 2340.17,1768.72C2340.17,1768.3 2340.31,1767.87 2340.38,1767.66L2340.52,1767.31ZM2330.69,1734.01C2331.75,1734.01 2332.53,1734.92 2332.53,1736.13C2332.53,1738.95 2325.32,1745.25 2324.19,1746.17C2329.84,1749.14 2332.81,1752.95 2332.81,1758.75C2332.81,1766.46 2327.37,1771.34 2319.66,1771.34C2312.59,1771.34 2308.14,1766.25 2308.14,1759.53C2308.14,1754.37 2310.82,1750.48 2314.92,1747.09C2311.11,1744.68 2309.76,1742.07 2309.76,1738.25C2309.76,1732.59 2313.86,1727.71 2320.58,1727.71C2324.96,1727.71 2328.14,1730.54 2330.27,1733.79C2330.27,1733.86 2330.27,1733.93 2330.34,1734.01L2330.69,1734.01ZM2326.1,1736.76C2324.68,1734.15 2323.12,1732.73 2320.65,1732.73C2316.48,1732.73 2314.64,1735.56 2314.64,1738.25C2314.64,1740.44 2315.42,1741.71 2319.38,1743.76C2322.07,1741.85 2324.4,1739.59 2326.52,1737.4L2326.1,1736.76ZM2319.66,1749.56C2315.28,1753.03 2313.09,1756 2313.09,1759.39C2313.09,1762.78 2314.99,1766.18 2319.66,1766.18C2324.68,1766.18 2327.86,1763.14 2327.86,1759.04C2327.86,1755.5 2326.38,1752.74 2320.44,1749.91C2320.23,1749.77 2319.94,1749.63 2319.66,1749.56ZM2358.48,1780.53C2361.87,1780.53 2363.99,1777.98 2363.99,1775.02L2363.99,1723.68C2363.99,1720.22 2361.52,1718.17 2358.48,1718.17L2307.14,1718.17C2303.68,1718.17 2301.63,1720.5 2301.63,1723.68L2301.63,1775.02C2301.63,1778.2 2304.11,1780.53 2307.14,1780.53L2358.48,1780.53Z" style="fill-rule:nonzero;"/>
        </g>
    </g>
</svg>
