<?xml version="1.0" encoding="UTF-8" standalone="no"?>
<!DOCTYPE svg PUBLIC "-//W3C//DTD SVG 1.1//EN" "http://www.w3.org/Graphics/SVG/1.1/DTD/svg11.dtd">
<svg width="100%" height="100%" viewBox="0 0 89 89" version="1.1" xmlns="http://www.w3.org/2000/svg" xmlns:xlink="http://www.w3.org/1999/xlink" xml:space="preserve" xmlns:serif="http://www.serif.com/" style="fill-rule:evenodd;clip-rule:evenodd;stroke-linejoin:round;stroke-miterlimit:2;">
    <g transform="matrix(1,0,0,1,-1502.52,-842.274)">
        <g transform="matrix(1.41414,0,0,1.41429,-1052.39,-837.704)">
            <path d="M1845.36,1200.45C1846.98,1198.54 1849.18,1197.27 1851.72,1197.27C1859,1197.27 1862.4,1206.88 1862.4,1218.27C1862.4,1229.86 1858.86,1241.04 1850.52,1241.04C1842.46,1241.04 1839.13,1231.35 1839.13,1219.75C1839.13,1209.64 1842.25,1200.38 1844.79,1200.38C1845,1200.38 1845.22,1200.38 1845.36,1200.45ZM1850.31,1235.87C1855.12,1235.87 1857.59,1227.88 1857.59,1217.84C1857.59,1209.5 1855.54,1202.29 1851.51,1202.29C1848.75,1202.29 1843.94,1207.45 1843.94,1219.68C1843.94,1229.37 1845.99,1235.87 1850.31,1235.87ZM1829.1,1216.29C1832.63,1217.28 1835.46,1221.24 1835.46,1226.61C1835.46,1234.32 1831.57,1241.04 1822.45,1241.04C1818.56,1241.04 1815.45,1239.27 1812.69,1236.16C1812.2,1235.52 1812.12,1234.81 1812.12,1234.25C1812.12,1233.12 1812.83,1230.57 1814.39,1230.57C1814.81,1230.57 1815.17,1230.78 1815.59,1231.28C1817.57,1234.11 1819.48,1235.87 1822.45,1235.87C1828.46,1235.87 1830.72,1231.42 1830.72,1226.68C1830.72,1222.72 1828.11,1219.82 1824.29,1219.82C1823.93,1219.82 1823.58,1219.82 1823.23,1219.89C1822.38,1219.96 1821.46,1220.11 1820.61,1220.32C1820.47,1220.39 1820.4,1220.39 1820.26,1220.39C1818.7,1220.39 1817.85,1218.2 1817.85,1217.07C1817.85,1216.29 1818.28,1215.37 1819.2,1215.16C1823.09,1214.8 1829.31,1212.47 1829.31,1207.52C1829.31,1204.41 1827.61,1202.43 1824.36,1202.43C1821.67,1202.43 1819.48,1203.7 1817.14,1206.81C1816.65,1207.45 1816.3,1208.09 1815.45,1208.09C1813.96,1208.09 1813.12,1205.82 1813.12,1204.62C1813.12,1202.15 1818.07,1197.34 1824.29,1197.34C1829.87,1197.34 1833.97,1200.87 1833.97,1207.17C1833.97,1212.61 1830.51,1215.58 1829.1,1216.29ZM1863.53,1250.23C1866.92,1250.23 1869.04,1247.68 1869.04,1244.71L1869.04,1193.38C1869.04,1189.91 1866.57,1187.86 1863.53,1187.86L1812.2,1187.86C1808.73,1187.86 1806.68,1190.2 1806.68,1193.38L1806.68,1244.71C1806.68,1247.89 1809.15,1250.23 1812.2,1250.23L1863.53,1250.23Z" style="fill-rule:nonzero;"/>
        </g>
    </g>
</svg>
