<?xml version="1.0" encoding="UTF-8" standalone="no"?>
<!DOCTYPE svg PUBLIC "-//W3C//DTD SVG 1.1//EN" "http://www.w3.org/Graphics/SVG/1.1/DTD/svg11.dtd">
<svg width="100%" height="100%" viewBox="0 0 89 89" version="1.1" xmlns="http://www.w3.org/2000/svg" xmlns:xlink="http://www.w3.org/1999/xlink" xml:space="preserve" xmlns:serif="http://www.serif.com/" style="fill-rule:evenodd;clip-rule:evenodd;stroke-linejoin:round;stroke-miterlimit:2;">
    <g transform="matrix(1,0,0,1,-458.749,-1471.63)">
        <g transform="matrix(1.41414,0,0,1.41429,-177.055,-770.755)">
            <path d="M511.968,1647.89L511.968,1585.53L449.604,1585.53L449.604,1647.89L511.968,1647.89ZM499.594,1613.95C503.342,1614.94 506.382,1618.9 506.382,1624.27C506.382,1631.98 502.281,1638.7 492.665,1638.7C488.493,1638.7 485.241,1636.93 482.342,1633.82C481.776,1633.18 481.705,1632.48 481.705,1631.91C481.705,1630.78 482.483,1628.23 484.11,1628.23C484.534,1628.23 484.958,1628.44 485.382,1628.94C487.433,1631.77 489.483,1633.54 492.665,1633.54C498.958,1633.54 501.362,1629.08 501.362,1624.34C501.362,1620.38 498.604,1617.49 494.574,1617.49C493.019,1617.49 491.322,1617.84 490.685,1617.98C490.473,1618.05 490.473,1618.05 490.332,1618.05C488.635,1618.05 487.786,1615.86 487.786,1614.73C487.786,1613.95 488.211,1613.03 489.2,1612.82C494.786,1612.39 499.806,1609.21 499.806,1605.18C499.806,1602.07 498.039,1600.09 494.574,1600.09C491.817,1600.09 489.483,1601.36 487.009,1604.48C486.514,1605.11 486.089,1605.75 485.241,1605.75C484.11,1605.75 482.766,1604.19 482.766,1602.28C482.766,1601.43 483.12,1600.8 483.473,1600.44C486.301,1596.98 489.908,1595 494.574,1595C500.443,1595 504.756,1598.54 504.756,1604.83C504.756,1610.27 501.15,1613.24 499.594,1613.95ZM460.776,1634.67L460.776,1634.45C466.503,1617.2 468.059,1612.75 472.938,1601.08L460.705,1602.21C460.14,1602.28 459.574,1602.35 459.079,1602.35C456.675,1602.35 455.473,1599.53 455.473,1598.39C455.473,1597.97 455.685,1596.98 456.746,1596.98C457.312,1596.98 457.877,1597.05 458.726,1597.05L459.433,1597.05L473.857,1595.99C474.211,1595.99 474.564,1595.85 474.847,1595.78C475.271,1595.64 475.766,1595.57 476.12,1595.57L476.332,1595.57C477.604,1595.78 479.443,1597.4 479.443,1599.03L479.443,1599.31C479.301,1600.09 479.019,1600.73 478.736,1601.22C477.817,1602.57 467.776,1626.96 466.009,1636.65C465.726,1638.13 464.453,1638.34 463.534,1638.34C463.322,1638.34 463.039,1638.27 462.685,1638.27C461.2,1638.06 460.423,1637.28 460.423,1636.08C460.423,1635.66 460.564,1635.23 460.635,1635.02L460.776,1634.67Z" style="fill-rule:nonzero;"/>
        </g>
    </g>
</svg>
