<?xml version="1.0" encoding="UTF-8" standalone="no"?>
<!DOCTYPE svg PUBLIC "-//W3C//DTD SVG 1.1//EN" "http://www.w3.org/Graphics/SVG/1.1/DTD/svg11.dtd">
<svg width="100%" height="100%" viewBox="0 0 89 89" version="1.1" xmlns="http://www.w3.org/2000/svg" xmlns:xlink="http://www.w3.org/1999/xlink" xml:space="preserve" xmlns:serif="http://www.serif.com/" style="fill-rule:evenodd;clip-rule:evenodd;stroke-linejoin:round;stroke-miterlimit:2;">
    <g transform="matrix(1,0,0,1,-558.739,-1471.63)">
        <g transform="matrix(1.41414,0,0,1.41429,-177.055,-770.755)">
            <path d="M582.675,1647.89L582.675,1585.53L520.312,1585.53L520.312,1647.89L582.675,1647.89ZM572.352,1630.92C572.352,1633.25 572.564,1635.52 572.564,1636.86C572.564,1637.64 571.928,1638.49 570.726,1638.49C569.241,1638.49 567.332,1637.21 567.332,1635.8C567.332,1634.88 567.402,1631.63 567.402,1630.78L567.402,1628.73L557.009,1629.08C556.726,1629.08 556.019,1629.22 554.746,1629.58L554.887,1629.51L554.746,1629.51C553.19,1629.51 551.564,1627.74 551.564,1625.83C551.564,1624.84 551.847,1624.41 552.978,1622.65C553.261,1622.22 553.544,1621.87 553.685,1621.52C557.221,1615.08 563.938,1601.58 565.635,1596.2C565.918,1595.28 566.625,1595.14 567.049,1595.14C568.463,1595.14 570.301,1597.4 570.301,1599.1C570.301,1599.53 570.231,1599.95 569.948,1600.3C569.382,1601.15 568.675,1602.42 568.251,1603.34C565.635,1609.14 561.463,1617.41 557.928,1623.99L567.402,1623.78L567.402,1612.89C567.402,1611.76 567.332,1608.08 567.332,1606.74C567.332,1605.96 567.968,1605.11 569.17,1605.11C570.584,1605.11 572.493,1606.31 572.493,1607.8C572.493,1608.72 572.352,1611.48 572.352,1612.89L572.352,1623.57C573.271,1623.5 574.685,1623.21 575.251,1623.21C577.019,1623.21 577.796,1625.83 577.796,1626.89C577.796,1627.38 577.655,1628.73 576.382,1628.73C575.675,1628.73 573.766,1628.59 572.352,1628.59L572.352,1630.92ZM532.756,1634.67C532.827,1634.6 532.827,1634.6 532.827,1634.45C538.554,1617.2 540.11,1612.75 544.988,1601.08L532.756,1602.21C532.19,1602.28 531.625,1602.35 531.13,1602.35C528.726,1602.35 527.524,1599.53 527.524,1598.39C527.524,1597.97 527.736,1596.98 528.796,1596.98C529.362,1596.98 529.928,1597.05 530.776,1597.05L531.483,1597.05L545.908,1595.99C546.261,1595.99 546.544,1595.85 546.897,1595.78C547.322,1595.64 547.746,1595.57 548.17,1595.57L548.382,1595.57C549.655,1595.78 551.493,1597.4 551.493,1599.03L551.493,1599.31C551.352,1600.09 551.069,1600.73 550.786,1601.22C548.948,1603.98 539.544,1628.44 538.059,1636.65C537.705,1638.13 536.503,1638.34 535.584,1638.34C535.372,1638.34 535.089,1638.27 534.736,1638.27C533.251,1638.06 532.473,1637.28 532.473,1636.08C532.473,1635.66 532.615,1635.23 532.685,1635.02L532.756,1634.67Z" style="fill-rule:nonzero;"/>
        </g>
    </g>
</svg>
