<?xml version="1.0" encoding="UTF-8" standalone="no"?>
<!DOCTYPE svg PUBLIC "-//W3C//DTD SVG 1.1//EN" "http://www.w3.org/Graphics/SVG/1.1/DTD/svg11.dtd">
<svg width="100%" height="100%" viewBox="0 0 89 89" version="1.1" xmlns="http://www.w3.org/2000/svg" xmlns:xlink="http://www.w3.org/1999/xlink" xml:space="preserve" xmlns:serif="http://www.serif.com/" style="fill-rule:evenodd;clip-rule:evenodd;stroke-linejoin:round;stroke-miterlimit:2;">
    <g transform="matrix(1,0,0,1,-358.759,-571.632)">
        <g transform="matrix(1.41414,0,0,1.41429,-177.055,-770.755)">
            <path d="M441.261,1011.53L441.261,949.162L378.897,949.162L378.897,1011.53L441.261,1011.53ZM430.796,995.9C432.635,995.9 433.695,998.375 433.695,999.506C433.695,1000.35 433.2,1001.42 431.857,1001.42C431.15,1001.42 429.17,1001.13 427.19,1001.06C426.978,1001.06 424.857,1000.99 416.019,1000.99C414.322,1000.99 412.908,1000.99 411.423,1001.2C411.352,1001.2 410.716,1001.2 408.806,1001.63L408.382,1001.63C406.402,1001.63 405.2,999.435 405.2,997.95C405.2,997.526 405.342,997.031 405.554,996.607L406.332,995.546C406.615,995.334 406.685,995.122 406.827,994.981C409.019,991.021 413.827,985.152 419.837,980.061C424.716,975.89 427.19,972.354 427.19,969.102C427.19,966.274 425.211,963.87 421.039,963.87C417.009,963.87 413.968,966.344 412.837,969.243C412.413,970.445 411.493,971.294 410.574,971.294C410.079,971.294 409.655,971.152 409.16,970.799C408.099,969.88 407.534,968.89 407.534,967.758C407.534,965.849 411.635,958.637 421.18,958.637C428.18,958.637 432.847,962.809 432.847,969.102C432.847,974.476 429.099,979.213 423.655,983.88C418.847,988.051 414.958,992.152 412.413,996.041C414.746,995.9 417.645,995.9 419.2,995.9L430.796,995.9ZM398.2,1000.57C398.2,1001.56 397.352,1002.12 396.221,1002.12C394.524,1002.12 392.473,1000.85 392.473,999.506C392.473,998.587 392.615,995.688 392.615,994.486L392.615,966.981C389.998,968.253 387.241,968.819 387.17,968.819C385.615,968.819 383.847,967.476 383.847,966.486C383.847,965.566 384.554,965.142 385.12,964.93C387.877,963.87 390.423,962.385 392.12,961.112L392.402,960.758L393.11,960.122C393.746,959.415 394.594,958.92 395.231,958.92C396.574,958.92 398.413,960.405 398.413,962.102C398.413,963.021 398.059,964.011 398.059,965.637L398.059,994.132C398.059,995.688 398.13,999.011 398.2,1000.43L398.2,1000.57Z" style="fill-rule:nonzero;"/>
        </g>
    </g>
</svg>
