<?xml version="1.0" encoding="UTF-8" standalone="no"?>
<!DOCTYPE svg PUBLIC "-//W3C//DTD SVG 1.1//EN" "http://www.w3.org/Graphics/SVG/1.1/DTD/svg11.dtd">
<svg width="100%" height="100%" viewBox="0 0 89 89" version="1.1" xmlns="http://www.w3.org/2000/svg" xmlns:xlink="http://www.w3.org/1999/xlink" xml:space="preserve" xmlns:serif="http://www.serif.com/" style="fill-rule:evenodd;clip-rule:evenodd;stroke-linejoin:round;stroke-miterlimit:2;">
    <g transform="matrix(1,0,0,1,-158.78,-571.632)">
        <g transform="matrix(1.41414,0,0,1.41429,-177.055,-770.755)">
            <path d="M299.847,1011.53L299.847,949.162L237.483,949.162L237.483,1011.53L299.847,1011.53ZM271.211,961.819C273.12,959.839 275.594,958.566 278.493,958.566C286.837,958.566 290.726,968.041 290.726,979.566C290.726,991.233 286.695,1002.33 277.079,1002.33C267.958,1002.33 263.928,992.718 263.928,981.051C263.928,972.566 267.18,961.678 270.503,961.678C270.786,961.678 270.998,961.748 271.211,961.819ZM276.938,997.173C282.736,997.173 285.635,989.041 285.635,979.142C285.635,970.94 283.16,963.587 278.352,963.587C274.746,963.587 269.019,968.89 269.019,980.981C269.019,990.526 271.635,997.173 276.938,997.173ZM256.221,1000.57C256.221,1001.56 255.443,1002.12 254.382,1002.12C252.827,1002.12 250.847,1000.85 250.847,999.506C250.847,998.587 250.918,995.688 250.918,994.486L250.918,966.981C248.584,968.183 246.18,968.819 245.756,968.819C244.271,968.819 242.645,967.476 242.645,966.486C242.645,965.566 243.281,965.142 243.776,964.93C246.392,963.87 248.867,962.385 250.493,961.112L250.776,960.758L251.413,960.122C252.049,959.415 252.827,958.92 253.463,958.92C254.736,958.92 256.433,960.405 256.433,962.102C256.433,963.021 256.15,964.011 256.15,965.637L256.15,994.132C256.15,995.688 256.221,999.011 256.221,1000.43L256.221,1000.57Z" style="fill-rule:nonzero;"/>
        </g>
    </g>
</svg>
