<?xml version="1.0" encoding="UTF-8" standalone="no"?>
<!DOCTYPE svg PUBLIC "-//W3C//DTD SVG 1.1//EN" "http://www.w3.org/Graphics/SVG/1.1/DTD/svg11.dtd">
<svg width="100%" height="100%" viewBox="0 0 89 89" version="1.1" xmlns="http://www.w3.org/2000/svg" xmlns:xlink="http://www.w3.org/1999/xlink" xml:space="preserve" xmlns:serif="http://www.serif.com/" style="fill-rule:evenodd;clip-rule:evenodd;stroke-linejoin:round;stroke-miterlimit:2;">
    <g transform="matrix(1,0,0,1,-1702.49,-692.274)">
        <g transform="matrix(1.41414,0,0,1.41429,-1052.39,-837.704)">
            <path d="M2004.94,1144.17C2008.34,1144.17 2010.46,1141.62 2010.46,1138.65L2010.46,1087.32C2010.46,1083.85 2007.98,1081.8 2004.94,1081.8L1953.61,1081.8C1950.14,1081.8 1948.1,1084.14 1948.1,1087.32L1948.1,1138.65C1948.1,1141.83 1950.57,1144.17 1953.61,1144.17L2004.94,1144.17ZM1956.3,1134.27C1954.53,1134.27 1953.47,1132.15 1953.47,1130.73C1953.47,1130.31 1953.54,1129.74 1953.89,1129.25L1954.88,1127.69C1956.86,1123.52 1960.61,1117.3 1965.07,1112.7C1969.38,1108.32 1971.71,1105.07 1971.71,1101.81C1971.71,1098.84 1969.87,1096.37 1966.48,1096.37C1962.87,1096.37 1960.4,1098.7 1959.41,1101.74C1959.12,1102.52 1958.49,1103.79 1957.22,1103.79C1956.23,1103.79 1954.32,1102.17 1954.32,1100.4C1954.32,1098.7 1957.92,1091.28 1966.62,1091.28C1972.91,1091.28 1977.01,1095.66 1977.01,1101.81C1977.01,1107.54 1973.2,1111.92 1968.39,1116.66C1964.57,1120.41 1961.74,1125.08 1959.9,1128.75C1961.67,1128.61 1963.58,1128.54 1965.07,1128.54C1967.61,1128.54 1969.31,1128.61 1971.5,1128.61C1972.35,1128.61 1974.12,1128.54 1974.75,1128.54C1976.52,1128.54 1977.37,1131.09 1977.37,1132.15C1977.37,1133 1976.87,1133.98 1975.74,1133.98C1971.29,1133.56 1966.48,1133.56 1964.57,1133.56C1962.8,1133.56 1961.03,1133.56 1958.91,1133.84C1958.42,1133.84 1957,1134.2 1956.65,1134.27L1956.3,1134.27ZM1983.52,1134.27C1981.75,1134.27 1980.69,1132.15 1980.69,1130.73C1980.69,1130.31 1980.76,1129.74 1981.04,1129.25C1981.54,1128.61 1981.82,1128.19 1982.03,1127.69C1984.09,1123.52 1987.76,1117.3 1992.29,1112.7C1996.6,1108.32 1998.93,1105.07 1998.93,1101.81C1998.93,1098.84 1997.1,1096.37 1993.7,1096.37C1990.1,1096.37 1987.62,1098.7 1986.56,1101.74C1986.35,1102.52 1985.71,1103.79 1984.44,1103.79C1983.45,1103.79 1981.54,1102.17 1981.54,1100.4C1981.54,1099.97 1981.61,1099.34 1981.96,1098.84C1984.23,1094.39 1988.12,1091.28 1993.84,1091.28C2000.07,1091.28 2004.17,1095.66 2004.17,1101.81C2004.17,1107.54 2000.42,1111.92 1995.61,1116.66C1991.79,1120.41 1988.96,1125.08 1987.12,1128.75C1988.82,1128.61 1990.8,1128.54 1992.29,1128.54C1994.83,1128.54 1996.53,1128.61 1998.65,1128.61C1999.57,1128.61 2001.27,1128.54 2001.97,1128.54C2003.74,1128.54 2004.59,1131.09 2004.59,1132.15C2004.59,1133 2004.1,1133.98 2002.96,1133.98C1998.51,1133.56 1993.7,1133.56 1991.79,1133.56C1989.95,1133.56 1988.26,1133.56 1986.13,1133.84C1985.64,1133.84 1984.23,1134.2 1983.87,1134.27L1983.52,1134.27Z" style="fill-rule:nonzero;"/>
        </g>
    </g>
</svg>
