<?xml version="1.0" encoding="UTF-8" standalone="no"?>
<!DOCTYPE svg PUBLIC "-//W3C//DTD SVG 1.1//EN" "http://www.w3.org/Graphics/SVG/1.1/DTD/svg11.dtd">
<svg width="100%" height="100%" viewBox="0 0 96 96" version="1.1" xmlns="http://www.w3.org/2000/svg" xmlns:xlink="http://www.w3.org/1999/xlink" xml:space="preserve" xmlns:serif="http://www.serif.com/" style="fill-rule:evenodd;clip-rule:evenodd;stroke-linejoin:round;stroke-miterlimit:2;">
    <g transform="matrix(1,0,0,1,-1309.63,-3473.28)">
        <g transform="matrix(1,0,0,1,-110.019,-3591.86)">
            <path d="M1515.25,7112.94C1515.25,7086.55 1493.85,7065.15 1467.45,7065.15C1441.05,7065.15 1419.65,7086.55 1419.65,7112.94C1419.65,7139.35 1441.05,7160.65 1467.45,7160.65C1493.85,7160.65 1515.25,7139.35 1515.25,7112.94ZM1493.55,7108.94C1498.75,7110.44 1502.85,7115.85 1502.85,7123.35C1502.85,7134.05 1497.25,7143.35 1483.85,7143.35C1478.15,7143.35 1473.55,7140.85 1469.55,7136.55C1468.85,7135.74 1468.75,7134.74 1468.75,7133.94C1468.75,7132.35 1469.75,7128.85 1472.15,7128.85C1472.65,7128.85 1473.25,7129.15 1473.75,7129.85C1476.65,7133.74 1479.45,7136.15 1483.85,7136.15C1492.65,7136.15 1495.95,7130.05 1495.95,7123.44C1495.95,7117.94 1492.15,7113.94 1486.55,7113.94C1484.75,7113.94 1482.55,7114.35 1481.15,7114.65C1480.95,7114.74 1480.85,7114.74 1480.65,7114.74C1478.35,7114.74 1477.15,7111.65 1477.15,7110.15C1477.15,7109.05 1477.75,7107.74 1479.15,7107.44C1484.55,7107.05 1493.85,7103.74 1493.85,7096.85C1493.85,7092.55 1491.45,7089.85 1486.65,7089.85C1482.75,7089.85 1479.45,7091.65 1476.15,7095.85C1475.45,7096.74 1474.85,7097.65 1473.65,7097.65C1472.25,7097.65 1470.15,7095.44 1470.15,7092.85C1470.15,7089.74 1477.15,7082.74 1486.55,7082.74C1494.75,7082.74 1500.65,7087.74 1500.65,7096.35C1500.65,7103.94 1495.65,7108.05 1493.55,7108.94ZM1439.65,7137.74C1439.65,7137.65 1439.75,7137.65 1439.75,7137.44C1440.55,7135.15 1441.25,7132.94 1441.65,7131.55C1445.65,7119.05 1450.95,7104.74 1456.55,7091.24L1439.65,7092.74C1438.85,7092.85 1438.05,7092.94 1437.35,7092.94C1433.75,7092.94 1432.35,7088.55 1432.35,7087.44C1432.35,7086.85 1432.65,7085.55 1434.15,7085.55C1434.95,7085.55 1435.75,7085.65 1436.95,7085.65L1437.85,7085.65L1457.85,7084.15C1458.35,7084.15 1458.75,7083.94 1459.25,7083.85C1459.85,7083.65 1460.45,7083.55 1461.05,7083.55L1461.35,7083.55C1463.05,7083.85 1465.55,7086.05 1465.55,7088.35L1465.55,7088.74C1465.45,7089.85 1464.95,7090.74 1464.65,7091.35C1460.95,7096.94 1448.65,7131.05 1446.95,7140.44C1446.55,7142.55 1444.85,7142.85 1443.55,7142.85C1443.25,7142.85 1442.85,7142.74 1442.45,7142.74C1440.35,7142.44 1439.25,7141.35 1439.25,7139.74C1439.25,7139.15 1439.35,7138.55 1439.55,7138.24L1439.65,7137.74Z" style="fill-rule:nonzero;"/>
        </g>
    </g>
</svg>
