<?xml version="1.0" encoding="UTF-8" standalone="no"?>
<!DOCTYPE svg PUBLIC "-//W3C//DTD SVG 1.1//EN" "http://www.w3.org/Graphics/SVG/1.1/DTD/svg11.dtd">
<svg width="100%" height="100%" viewBox="0 0 96 96" version="1.1" xmlns="http://www.w3.org/2000/svg" xmlns:xlink="http://www.w3.org/1999/xlink" xml:space="preserve" xmlns:serif="http://www.serif.com/" style="fill-rule:evenodd;clip-rule:evenodd;stroke-linejoin:round;stroke-miterlimit:2;">
    <g transform="matrix(1,0,0,1,-1309.63,-3173.28)">
        <g transform="matrix(1,0,0,1,-110.019,-3591.86)">
            <path d="M1515.25,6812.94C1515.25,6786.55 1493.85,6765.15 1467.45,6765.15C1441.05,6765.15 1419.65,6786.55 1419.65,6812.94C1419.65,6839.35 1441.05,6860.65 1467.45,6860.65C1493.85,6860.65 1515.25,6839.35 1515.25,6812.94ZM1491.85,6808.94C1497.05,6810.44 1501.15,6815.85 1501.15,6823.35C1501.15,6834.05 1495.55,6843.35 1482.25,6843.35C1476.55,6843.35 1471.95,6840.85 1467.95,6836.55C1467.25,6835.74 1467.15,6834.74 1467.15,6833.94C1467.15,6832.35 1468.15,6828.85 1470.45,6828.85C1471.05,6828.85 1471.55,6829.15 1472.15,6829.85C1475.05,6833.74 1477.85,6836.15 1482.25,6836.15C1490.95,6836.15 1494.35,6830.05 1494.35,6823.44C1494.35,6817.94 1490.55,6813.94 1484.85,6813.94C1484.35,6813.94 1483.85,6813.94 1483.35,6814.05C1482.15,6814.15 1480.75,6814.35 1479.45,6814.65C1479.25,6814.74 1479.25,6814.74 1479.05,6814.74C1476.65,6814.74 1475.55,6811.65 1475.55,6810.15C1475.55,6809.05 1476.15,6807.74 1477.45,6807.44C1486.65,6806.74 1492.15,6801.74 1492.15,6796.85C1492.15,6792.55 1489.75,6789.85 1484.95,6789.85C1481.15,6789.85 1477.85,6791.65 1474.45,6795.85C1473.75,6796.74 1473.15,6797.65 1471.95,6797.65C1469.75,6797.65 1468.55,6794.24 1468.55,6792.85C1468.55,6789.55 1475.85,6782.74 1484.85,6782.74C1493.05,6782.74 1498.95,6787.74 1498.95,6796.35C1498.95,6803.94 1493.95,6808.05 1491.85,6808.94ZM1455.45,6808.94C1460.65,6810.44 1464.75,6815.85 1464.75,6823.35C1464.75,6834.05 1459.15,6843.35 1445.85,6843.35C1440.15,6843.35 1435.55,6840.85 1431.55,6836.55C1430.85,6835.74 1430.75,6834.74 1430.75,6833.94C1430.75,6832.35 1431.75,6828.85 1434.05,6828.85C1434.65,6828.85 1435.15,6829.15 1435.75,6829.85C1438.65,6833.74 1441.45,6836.15 1445.85,6836.15C1454.55,6836.15 1457.85,6830.05 1457.85,6823.44C1457.85,6817.94 1454.05,6813.94 1448.45,6813.94C1446.45,6813.94 1444.05,6814.44 1443.05,6814.65C1442.85,6814.74 1442.85,6814.74 1442.65,6814.74C1440.25,6814.74 1439.05,6811.65 1439.05,6810.15C1439.05,6809.05 1439.75,6807.74 1441.05,6807.44C1447.35,6806.94 1455.75,6803.24 1455.75,6796.85C1455.75,6792.55 1453.35,6789.85 1448.55,6789.85C1444.65,6789.85 1441.45,6791.65 1438.05,6795.85C1437.35,6796.74 1436.75,6797.65 1435.55,6797.65C1433.35,6797.65 1432.15,6794.24 1432.15,6792.85C1432.15,6791.65 1432.65,6790.85 1433.05,6790.24C1437.05,6785.55 1442.05,6782.74 1448.45,6782.74C1456.65,6782.74 1462.55,6787.74 1462.55,6796.35C1462.55,6803.94 1457.55,6808.05 1455.45,6808.94Z" style="fill-rule:nonzero;"/>
        </g>
    </g>
</svg>
