<?xml version="1.0" encoding="UTF-8" standalone="no"?>
<!DOCTYPE svg PUBLIC "-//W3C//DTD SVG 1.1//EN" "http://www.w3.org/Graphics/SVG/1.1/DTD/svg11.dtd">
<svg width="100%" height="100%" viewBox="0 0 89 89" version="1.1" xmlns="http://www.w3.org/2000/svg" xmlns:xlink="http://www.w3.org/1999/xlink" xml:space="preserve" xmlns:serif="http://www.serif.com/" style="fill-rule:evenodd;clip-rule:evenodd;stroke-linejoin:round;stroke-miterlimit:2;">
    <g transform="matrix(1,0,0,1,-358.759,-421.632)">
        <g transform="matrix(1.41414,0,0,1.41429,-177.055,-770.755)">
            <path d="M441.261,905.465L441.261,843.102L378.897,843.102L378.897,905.465L441.261,905.465ZM391.271,856.112C392.968,854.203 395.16,852.93 397.776,852.93C405.342,852.93 408.877,862.546 408.877,873.93C408.877,885.526 405.2,896.698 396.574,896.698C388.301,896.698 384.837,886.94 384.837,875.415C384.837,867.284 387.665,856.041 390.705,856.041C390.918,856.041 391.13,856.041 391.271,856.112ZM414.322,895.849C412.554,895.849 411.493,893.728 411.493,892.314C411.493,891.89 411.564,891.324 411.918,890.829L412.908,889.274C414.887,885.102 418.635,878.88 423.089,874.284C427.402,869.9 429.736,866.647 429.736,863.395C429.736,860.425 427.897,857.95 424.503,857.95C420.897,857.95 418.423,860.284 417.433,863.324C417.15,864.102 416.514,865.375 415.241,865.375C414.251,865.375 412.342,863.748 412.342,861.981C412.342,861.556 412.413,860.92 412.766,860.425C415.029,855.971 418.988,852.859 424.645,852.859C430.938,852.859 434.968,857.243 434.968,863.395C434.968,869.122 431.221,873.506 426.413,878.243C422.594,881.991 419.766,886.657 417.928,890.334C419.625,890.193 421.604,890.122 423.089,890.122C425.635,890.122 427.332,890.193 429.524,890.193C430.372,890.193 432.14,890.122 432.776,890.122C434.544,890.122 435.392,892.667 435.392,893.728C435.392,894.577 434.897,895.566 433.766,895.566C429.312,895.142 424.503,895.142 422.594,895.142C420.827,895.142 419.059,895.142 416.938,895.425C416.443,895.425 415.029,895.779 414.675,895.849L414.322,895.849ZM396.362,891.536C401.312,891.536 403.857,883.546 403.857,873.506C403.857,866.223 402.584,857.95 397.564,857.95C394.806,857.95 389.857,863.041 389.857,875.344C389.857,885.031 391.908,891.536 396.362,891.536Z" style="fill-rule:nonzero;"/>
        </g>
    </g>
</svg>
