<?xml version="1.0" encoding="UTF-8" standalone="no"?>
<!DOCTYPE svg PUBLIC "-//W3C//DTD SVG 1.1//EN" "http://www.w3.org/Graphics/SVG/1.1/DTD/svg11.dtd">
<svg width="100%" height="100%" viewBox="0 0 89 89" version="1.1" xmlns="http://www.w3.org/2000/svg" xmlns:xlink="http://www.w3.org/1999/xlink" xml:space="preserve" xmlns:serif="http://www.serif.com/" style="fill-rule:evenodd;clip-rule:evenodd;stroke-linejoin:round;stroke-miterlimit:2;">
    <g transform="matrix(1,0,0,1,-1602.51,-992.274)">
        <g transform="matrix(1.41414,0,0,1.41429,-1052.39,-837.704)">
            <path d="M1934.24,1356.29C1937.63,1356.29 1939.75,1353.74 1939.75,1350.77L1939.75,1299.44C1939.75,1295.97 1937.28,1293.92 1934.24,1293.92L1882.9,1293.92C1879.44,1293.92 1877.39,1296.26 1877.39,1299.44L1877.39,1350.77C1877.39,1353.95 1879.86,1356.29 1882.9,1356.29L1934.24,1356.29ZM1906.02,1339.32C1906.02,1341.65 1906.31,1343.91 1906.31,1345.26C1906.31,1346.04 1905.53,1346.88 1904.26,1346.88C1902.63,1346.88 1900.44,1345.61 1900.44,1344.2C1900.44,1343.28 1900.58,1340.03 1900.58,1339.18L1900.58,1337.13L1888.98,1337.48C1888.7,1337.48 1887.99,1337.62 1886.65,1337.9L1886.51,1337.9C1884.74,1337.9 1882.97,1336.14 1882.97,1334.23C1882.97,1333.52 1883.47,1332.39 1884.6,1331.05C1888.91,1324.54 1896.83,1309.55 1898.6,1304.6C1898.88,1303.68 1899.73,1303.54 1900.15,1303.54C1901.78,1303.54 1903.76,1305.8 1903.76,1307.5C1903.76,1307.92 1903.62,1308.35 1903.41,1308.7C1902.77,1309.55 1901.99,1310.82 1901.5,1311.74C1898.53,1317.54 1893.93,1325.81 1890.12,1332.39L1900.58,1332.18L1900.58,1321.29C1900.58,1320.16 1900.44,1316.48 1900.44,1315.14C1900.44,1314.36 1901.22,1313.51 1902.49,1313.51C1904.04,1313.51 1906.17,1314.71 1906.17,1316.2C1906.17,1317.12 1906.02,1319.87 1906.02,1321.29L1906.02,1331.96C1907.01,1331.89 1908.57,1331.61 1909.28,1331.61C1911.19,1331.61 1912.11,1334.23 1912.11,1335.29C1912.11,1335.78 1911.89,1337.13 1910.48,1337.13C1909.7,1337.13 1907.58,1336.98 1906.02,1336.98L1906.02,1339.32ZM1927.73,1345.33C1927.73,1346.32 1926.88,1346.88 1925.75,1346.88C1924.05,1346.88 1922,1345.61 1922,1344.27C1922,1343.35 1922.14,1340.45 1922.14,1339.25L1922.14,1311.74C1919.53,1313.02 1916.77,1313.58 1916.7,1313.58C1915.14,1313.58 1913.38,1312.24 1913.38,1311.25C1913.38,1310.33 1914.09,1309.9 1914.65,1309.69C1917.41,1308.63 1919.95,1307.15 1921.65,1305.87L1921.93,1305.52L1922.64,1304.88C1923.28,1304.18 1924.12,1303.68 1924.76,1303.68C1926.11,1303.68 1927.94,1305.17 1927.94,1306.86C1927.94,1307.78 1927.59,1308.77 1927.59,1310.4L1927.59,1338.89C1927.59,1340.45 1927.66,1343.77 1927.73,1345.19L1927.73,1345.33Z" style="fill-rule:nonzero;"/>
        </g>
    </g>
</svg>
