<?xml version="1.0" encoding="UTF-8" standalone="no"?>
<!DOCTYPE svg PUBLIC "-//W3C//DTD SVG 1.1//EN" "http://www.w3.org/Graphics/SVG/1.1/DTD/svg11.dtd">
<svg width="100%" height="100%" viewBox="0 0 96 96" version="1.1" xmlns="http://www.w3.org/2000/svg" xmlns:xlink="http://www.w3.org/1999/xlink" xml:space="preserve" xmlns:serif="http://www.serif.com/" style="fill-rule:evenodd;clip-rule:evenodd;stroke-linejoin:round;stroke-miterlimit:2;">
    <g transform="matrix(1,0,0,1,-409.628,-3173.28)">
        <g transform="matrix(1,0,0,1,-110.019,-3591.86)">
            <path d="M615.248,6812.94C615.248,6786.55 593.848,6765.15 567.448,6765.15C541.048,6765.15 519.648,6786.55 519.648,6812.94C519.648,6839.35 541.048,6860.65 567.448,6860.65C593.848,6860.65 615.248,6839.35 615.248,6812.94ZM595.248,6832.55C595.248,6835.74 595.548,6838.94 595.548,6840.74C595.548,6841.94 594.648,6843.05 593.048,6843.05C590.948,6843.05 588.248,6841.35 588.248,6839.35C588.248,6838.05 588.448,6833.55 588.448,6832.35L588.448,6829.55L574.448,6830.05C574.048,6830.05 573.048,6830.15 571.248,6830.65L571.448,6830.55L571.248,6830.55C569.148,6830.55 566.848,6828.15 566.848,6825.44C566.848,6824.15 567.248,6823.55 568.848,6821.15C569.248,6820.55 569.648,6820.05 569.848,6819.55C571.948,6815.65 584.448,6791.74 586.648,6784.35C587.148,6783.35 587.748,6782.94 588.648,6782.94C590.648,6782.94 593.148,6786.15 593.148,6788.44C593.148,6789.05 592.948,6789.55 592.748,6789.94C591.648,6791.74 590.948,6792.85 590.348,6794.35L588.648,6797.74C589.048,6797.24 589.848,6796.74 590.848,6796.74C592.748,6796.74 595.448,6798.44 595.448,6800.55C595.448,6801.74 595.248,6805.55 595.248,6807.55L595.248,6822.35L595.548,6822.35C596.748,6822.24 599.748,6821.85 600.648,6821.85C603.048,6821.85 604.148,6825.35 604.148,6826.85C604.148,6827.74 603.848,6829.44 602.148,6829.44C601.348,6829.44 598.648,6829.24 596.648,6829.24L595.248,6829.24L595.248,6832.55ZM537.148,6842.35C534.648,6842.35 533.248,6839.35 533.248,6837.44C533.248,6836.85 533.348,6836.05 533.748,6835.35C534.448,6834.44 534.848,6833.94 535.148,6833.24C537.948,6827.44 543.048,6818.85 549.248,6812.44C555.348,6806.35 558.548,6801.85 558.548,6797.35C558.548,6793.24 555.948,6789.85 551.248,6789.85C546.248,6789.85 542.848,6793.05 541.448,6797.24C541.048,6798.35 540.148,6800.15 538.448,6800.15C535.948,6800.15 534.448,6796.74 534.448,6795.44C534.448,6794.74 534.548,6793.94 535.048,6793.24C538.148,6787.15 543.548,6782.74 551.448,6782.74C560.148,6782.74 565.848,6788.85 565.848,6797.35C565.848,6805.35 560.548,6811.35 553.948,6817.94C548.648,6823.15 544.748,6829.65 542.148,6834.65C544.548,6834.55 547.248,6834.44 549.348,6834.44C552.848,6834.44 555.148,6834.55 558.148,6834.55C559.348,6834.55 562.248,6834.44 563.148,6834.44C565.648,6834.44 566.448,6837.74 566.448,6839.15C566.448,6840.05 565.948,6841.94 564.048,6841.94C558.148,6841.35 549.848,6841.35 548.548,6841.35C546.148,6841.35 543.648,6841.35 540.748,6841.74C540.248,6841.74 538.548,6842.05 537.648,6842.35L537.148,6842.35ZM588.448,6822.65L588.448,6807.55C588.448,6805.94 588.248,6800.85 588.248,6799.05L588.348,6798.44C584.648,6806.05 579.848,6815.55 575.748,6822.94L588.448,6822.65Z" style="fill-rule:nonzero;"/>
        </g>
    </g>
</svg>
