<?xml version="1.0" encoding="UTF-8" standalone="no"?>
<!DOCTYPE svg PUBLIC "-//W3C//DTD SVG 1.1//EN" "http://www.w3.org/Graphics/SVG/1.1/DTD/svg11.dtd">
<svg width="100%" height="100%" viewBox="0 0 89 89" version="1.1" xmlns="http://www.w3.org/2000/svg" xmlns:xlink="http://www.w3.org/1999/xlink" xml:space="preserve" xmlns:serif="http://www.serif.com/" style="fill-rule:evenodd;clip-rule:evenodd;stroke-linejoin:round;stroke-miterlimit:2;">
    <g transform="matrix(1,0,0,1,-2102.45,-1592.27)">
        <g transform="matrix(1.41414,0,0,1.41429,-1052.39,-837.704)">
            <path d="M2272.36,1744.89C2273.84,1744.05 2275.54,1743.55 2277.38,1743.55C2283.88,1743.55 2288.34,1749.14 2288.34,1756.63C2288.34,1764.83 2283.88,1771.34 2276.53,1771.34C2269.81,1771.34 2264.72,1765.47 2264.72,1758.19C2264.72,1753.17 2265.92,1748.15 2268.33,1742.77C2270.59,1737.61 2272.71,1733.37 2274.76,1729.83C2274.9,1729.76 2274.97,1729.55 2275.04,1729.41C2275.89,1727.64 2277.1,1727.57 2277.45,1727.57C2277.73,1727.57 2280.49,1727.71 2280.49,1729.9C2280.49,1730.54 2280.07,1731.39 2279.71,1731.81C2276.6,1736.06 2274.2,1740.93 2272.36,1744.89ZM2276.53,1766.32C2280.49,1766.32 2283.6,1762.5 2283.6,1756.77C2283.6,1752.32 2281.12,1748.57 2277.31,1748.57C2272.5,1748.57 2269.39,1752.95 2269.39,1758.12C2269.39,1762.78 2272.29,1766.32 2276.53,1766.32ZM2259.28,1734.01C2260.34,1734.01 2261.04,1734.92 2261.04,1736.13C2261.04,1738.67 2254.96,1744.68 2253.05,1746.17C2258.43,1749.14 2261.26,1752.95 2261.26,1758.75C2261.26,1766.46 2256.17,1771.34 2248.81,1771.34C2242.1,1771.34 2237.85,1766.25 2237.85,1759.53C2237.85,1754.37 2240.4,1750.48 2244.29,1747.09C2240.68,1744.68 2239.41,1742.07 2239.41,1738.25C2239.41,1732.59 2243.3,1727.71 2249.66,1727.71C2253.9,1727.71 2256.87,1730.54 2258.85,1733.79C2258.85,1733.86 2258.92,1733.93 2258.92,1734.01L2259.28,1734.01ZM2255.32,1737.4C2255.18,1737.19 2255.03,1736.97 2254.96,1736.76C2253.55,1734.15 2252.14,1732.73 2249.73,1732.73C2245.77,1732.73 2244.08,1735.56 2244.08,1738.25C2244.08,1740.44 2244.78,1741.71 2248.6,1743.76C2251.08,1741.85 2253.34,1739.59 2255.32,1737.4ZM2248.81,1749.56C2244.64,1753.03 2242.52,1756 2242.52,1759.39C2242.52,1762.78 2244.36,1766.18 2248.81,1766.18C2253.55,1766.18 2256.66,1763.14 2256.66,1759.04C2256.66,1755.5 2255.18,1752.74 2249.59,1749.91C2249.31,1749.77 2249.1,1749.63 2248.81,1749.56ZM2287.77,1780.53C2291.17,1780.53 2293.29,1777.98 2293.29,1775.02L2293.29,1723.68C2293.29,1720.22 2290.81,1718.17 2287.77,1718.17L2236.44,1718.17C2232.97,1718.17 2230.92,1720.5 2230.92,1723.68L2230.92,1775.02C2230.92,1778.2 2233.4,1780.53 2236.44,1780.53L2287.77,1780.53Z" style="fill-rule:nonzero;"/>
        </g>
    </g>
</svg>
