<?xml version="1.0" encoding="UTF-8" standalone="no"?>
<!DOCTYPE svg PUBLIC "-//W3C//DTD SVG 1.1//EN" "http://www.w3.org/Graphics/SVG/1.1/DTD/svg11.dtd">
<svg width="100%" height="100%" viewBox="0 0 89 89" version="1.1" xmlns="http://www.w3.org/2000/svg" xmlns:xlink="http://www.w3.org/1999/xlink" xml:space="preserve" xmlns:serif="http://www.serif.com/" style="fill-rule:evenodd;clip-rule:evenodd;stroke-linejoin:round;stroke-miterlimit:2;">
    <g transform="matrix(1,0,0,1,-1502.52,-692.274)">
        <g transform="matrix(1.41414,0,0,1.41429,-1052.39,-837.704)">
            <path d="M1863.53,1144.17C1866.92,1144.17 1869.04,1141.62 1869.04,1138.65L1869.04,1087.32C1869.04,1083.85 1866.57,1081.8 1863.53,1081.8L1812.2,1081.8C1808.73,1081.8 1806.68,1084.14 1806.68,1087.32L1806.68,1138.65C1806.68,1141.83 1809.15,1144.17 1812.2,1144.17L1863.53,1144.17ZM1845.14,1094.39C1846.84,1092.48 1849.11,1091.21 1851.72,1091.21C1859.43,1091.21 1863.03,1100.82 1863.03,1112.21C1863.03,1123.8 1859.36,1134.97 1850.45,1134.97C1842.03,1134.97 1838.5,1125.29 1838.5,1113.69C1838.5,1106.06 1841.33,1094.32 1844.51,1094.32C1844.72,1094.32 1844.93,1094.32 1845.14,1094.39ZM1814.74,1134.27C1812.97,1134.27 1811.91,1132.15 1811.91,1130.73C1811.91,1130.31 1811.98,1129.74 1812.34,1129.25L1813.33,1127.69C1815.38,1123.52 1819.41,1117.3 1823.86,1112.7C1828.18,1108.32 1830.51,1105.07 1830.51,1101.81C1830.51,1098.84 1828.6,1096.37 1825.28,1096.37C1821.67,1096.37 1819.2,1098.7 1818.13,1101.74C1817.92,1102.52 1817.29,1103.79 1816.01,1103.79C1815.02,1103.79 1813.12,1102.31 1813.12,1100.4C1813.12,1099.97 1813.19,1099.34 1813.54,1098.84C1815.8,1094.39 1819.69,1091.28 1825.42,1091.28C1831.64,1091.28 1835.74,1095.66 1835.74,1101.81C1835.74,1107.54 1831.99,1111.92 1827.19,1116.66C1823.37,1120.48 1820.26,1125.15 1818.35,1128.75C1820.12,1128.61 1822.02,1128.54 1823.51,1128.54C1826.05,1128.54 1828.11,1128.61 1830.23,1128.61C1831.14,1128.61 1832.84,1128.54 1833.55,1128.54C1835.25,1128.54 1836.17,1131.09 1836.17,1132.15C1836.17,1133 1835.67,1133.98 1834.47,1133.98C1830.44,1133.56 1826.69,1133.56 1823.01,1133.56C1821.25,1133.56 1819.48,1133.56 1817.36,1133.84C1816.86,1133.84 1815.45,1134.2 1815.1,1134.27L1814.74,1134.27ZM1850.31,1129.81C1855.4,1129.81 1857.94,1121.82 1857.94,1111.78C1857.94,1103.44 1855.82,1096.23 1851.58,1096.23C1848.61,1096.23 1843.66,1101.39 1843.66,1113.62C1843.66,1123.31 1845.71,1129.81 1850.31,1129.81Z" style="fill-rule:nonzero;"/>
        </g>
    </g>
</svg>
