<?xml version="1.0" encoding="UTF-8" standalone="no"?>
<!DOCTYPE svg PUBLIC "-//W3C//DTD SVG 1.1//EN" "http://www.w3.org/Graphics/SVG/1.1/DTD/svg11.dtd">
<svg width="100%" height="100%" viewBox="0 0 89 89" version="1.1" xmlns="http://www.w3.org/2000/svg" xmlns:xlink="http://www.w3.org/1999/xlink" xml:space="preserve" xmlns:serif="http://www.serif.com/" style="fill-rule:evenodd;clip-rule:evenodd;stroke-linejoin:round;stroke-miterlimit:2;">
    <g transform="matrix(1,0,0,1,-1802.48,-992.274)">
        <g transform="matrix(1.41414,0,0,1.41429,-1052.39,-837.704)">
            <path d="M2075.65,1356.29C2079.04,1356.29 2081.17,1353.74 2081.17,1350.77L2081.17,1299.44C2081.17,1295.97 2078.69,1293.92 2075.65,1293.92L2024.32,1293.92C2020.85,1293.92 2018.8,1296.26 2018.8,1299.44L2018.8,1350.77C2018.8,1353.95 2021.28,1356.29 2024.32,1356.29L2075.65,1356.29ZM2068.09,1322.35C2071.62,1323.34 2074.45,1327.3 2074.45,1332.67C2074.45,1340.38 2070.56,1347.1 2061.44,1347.1C2057.55,1347.1 2054.44,1345.33 2051.68,1342.22C2051.19,1341.58 2051.12,1340.87 2051.12,1340.31C2051.12,1339.18 2051.82,1336.63 2053.38,1336.63C2053.8,1336.63 2054.16,1336.84 2054.58,1337.34C2056.56,1340.17 2058.47,1341.93 2061.44,1341.93C2067.45,1341.93 2069.71,1337.48 2069.71,1332.74C2069.71,1328.78 2067.1,1325.88 2063.28,1325.88C2062.92,1325.88 2062.57,1325.88 2062.22,1325.95C2061.37,1326.03 2060.45,1326.17 2059.6,1326.38C2059.46,1326.45 2059.39,1326.45 2059.25,1326.45C2057.62,1326.45 2056.84,1324.26 2056.84,1323.13C2056.84,1322.35 2057.27,1321.43 2058.19,1321.22C2062.07,1320.86 2068.3,1318.53 2068.3,1313.58C2068.3,1310.47 2066.6,1308.49 2063.35,1308.49C2060.66,1308.49 2058.47,1309.76 2056.14,1312.87C2055.64,1313.51 2055.29,1314.15 2054.44,1314.15C2052.95,1314.15 2052.11,1311.88 2052.11,1310.68C2052.11,1308.21 2057.05,1303.4 2063.28,1303.4C2068.86,1303.4 2072.96,1306.93 2072.96,1313.23C2072.96,1318.67 2069.5,1321.64 2068.09,1322.35ZM2044.75,1339.32C2044.75,1341.65 2044.96,1343.91 2044.96,1345.26C2044.96,1346.04 2044.33,1346.88 2043.12,1346.88C2041.64,1346.88 2039.73,1345.61 2039.73,1344.2C2039.73,1343.28 2039.87,1340.03 2039.87,1339.18L2039.87,1337.13L2029.41,1337.48C2029.12,1337.48 2028.56,1337.62 2027.36,1337.9L2027.14,1337.9C2025.59,1337.9 2023.96,1336.14 2023.96,1334.23C2023.96,1333.73 2024.11,1333.1 2024.46,1332.46C2024.81,1331.96 2025.1,1331.47 2025.45,1331.05C2025.73,1330.62 2026.01,1330.27 2026.15,1329.91C2027.29,1327.86 2035.63,1312.17 2038.03,1304.6C2038.32,1303.68 2039.1,1303.54 2039.45,1303.54C2040.86,1303.54 2042.7,1305.8 2042.7,1307.5C2042.7,1307.92 2042.63,1308.35 2042.35,1308.7C2041.78,1309.55 2041.08,1310.82 2040.72,1311.74C2038.03,1317.54 2033.86,1325.81 2030.4,1332.39L2039.87,1332.18L2039.87,1321.29C2039.87,1320.16 2039.73,1316.48 2039.73,1315.14C2039.73,1314.36 2040.37,1313.51 2041.57,1313.51C2042.98,1313.51 2044.89,1314.71 2044.89,1316.2C2044.89,1317.12 2044.75,1319.87 2044.75,1321.29L2044.75,1331.96C2045.67,1331.89 2047.01,1331.61 2047.65,1331.61C2049.42,1331.61 2050.2,1334.23 2050.2,1335.29C2050.2,1335.78 2049.98,1337.13 2048.71,1337.13C2048.07,1337.13 2046.17,1336.98 2044.75,1336.98L2044.75,1339.32Z" style="fill-rule:nonzero;"/>
        </g>
    </g>
</svg>
