<?xml version="1.0" encoding="UTF-8" standalone="no"?>
<!DOCTYPE svg PUBLIC "-//W3C//DTD SVG 1.1//EN" "http://www.w3.org/Graphics/SVG/1.1/DTD/svg11.dtd">
<svg width="100%" height="100%" viewBox="0 0 89 89" version="1.1" xmlns="http://www.w3.org/2000/svg" xmlns:xlink="http://www.w3.org/1999/xlink" xml:space="preserve" xmlns:serif="http://www.serif.com/" style="fill-rule:evenodd;clip-rule:evenodd;stroke-linejoin:round;stroke-miterlimit:2;">
    <g transform="matrix(1,0,0,1,-1058.69,-1321.63)">
        <g transform="matrix(1.41414,0,0,1.41429,-177.055,-770.755)">
            <path d="M936.211,1541.83L936.211,1479.46L873.847,1479.46L873.847,1541.83L936.211,1541.83ZM887.705,1506.19C889.19,1505.34 890.887,1504.85 892.726,1504.85C899.231,1504.85 903.685,1510.43 903.685,1517.93C903.685,1526.13 899.231,1532.64 891.877,1532.64C885.231,1532.64 880.14,1526.77 880.14,1519.49C880.14,1514.46 881.342,1509.44 883.746,1504.07C886.009,1498.91 888.13,1494.67 890.18,1491.13C890.322,1490.99 890.746,1490.21 890.817,1490.07C891.312,1489.15 892.16,1488.87 892.867,1488.87C893.928,1488.87 895.908,1489.58 895.908,1491.2C895.908,1491.84 895.413,1492.69 895.13,1493.11C892.019,1497.35 889.615,1502.23 887.705,1506.19ZM921.998,1512.84C919.806,1515.17 916.908,1516.66 914.15,1516.66C908.988,1516.66 905.524,1512.34 905.524,1505.34C905.524,1497.21 910.897,1488.94 918.322,1488.94C921.857,1488.94 924.12,1490.64 925.534,1492.26C925.675,1491.56 926.099,1490.57 927.231,1490.57C928.645,1490.57 930.13,1491.91 930.13,1493.54L930.13,1493.89C929.918,1494.81 929.564,1495.8 929.564,1496.08C927.16,1507.82 924.685,1523.94 924.12,1530.16C923.978,1531.93 922.211,1532.35 921.079,1532.35C919.948,1532.35 919.099,1531.72 919.099,1530.38C919.099,1529.45 920.019,1524.86 920.16,1524.36L921.998,1512.84ZM891.877,1527.62C895.908,1527.62 898.948,1523.8 898.948,1518.07C898.948,1513.62 896.544,1509.87 892.655,1509.87C887.847,1509.87 884.736,1514.25 884.736,1519.41C884.736,1524.08 887.705,1527.62 891.877,1527.62ZM924.402,1498.98C923.908,1498.77 923.554,1498.2 923.342,1497.78C922.776,1496.29 921.503,1494.03 918.534,1494.03C913.301,1494.03 910.12,1500.25 910.12,1505.13C910.12,1509.73 911.604,1511.42 914.079,1511.42C921.009,1511.42 923.837,1501.31 924.19,1499.97L924.402,1498.98Z" style="fill-rule:nonzero;"/>
        </g>
    </g>
</svg>
