<?xml version="1.0" encoding="UTF-8" standalone="no"?>
<!DOCTYPE svg PUBLIC "-//W3C//DTD SVG 1.1//EN" "http://www.w3.org/Graphics/SVG/1.1/DTD/svg11.dtd">
<svg width="100%" height="100%" viewBox="0 0 96 96" version="1.1" xmlns="http://www.w3.org/2000/svg" xmlns:xlink="http://www.w3.org/1999/xlink" xml:space="preserve" xmlns:serif="http://www.serif.com/" style="fill-rule:evenodd;clip-rule:evenodd;stroke-linejoin:round;stroke-miterlimit:2;">
    <g transform="matrix(1,0,0,1,-1709.63,-3623.28)">
        <g transform="matrix(1,0,0,1,-110.019,-3591.86)">
            <path d="M1915.25,7262.94C1915.25,7236.55 1893.85,7215.15 1867.45,7215.15C1841.05,7215.15 1819.65,7236.55 1819.65,7262.94C1819.65,7289.35 1841.05,7310.65 1867.45,7310.65C1893.85,7310.65 1915.25,7289.35 1915.25,7262.94ZM1865.75,7242.74C1862.65,7257.74 1858.55,7282.35 1858.25,7289.94C1858.05,7292.35 1855.55,7292.94 1854.05,7292.94C1852.45,7292.94 1851.25,7292.05 1851.25,7290.15C1851.25,7289.35 1851.45,7288.74 1851.65,7287.94C1852.05,7285.65 1852.55,7283.24 1852.75,7281.85C1853.45,7277.24 1854.35,7271.44 1855.35,7265.85C1852.25,7269.15 1848.25,7271.15 1844.35,7271.15C1837.25,7271.15 1832.45,7265.15 1832.45,7255.55C1832.45,7244.24 1839.95,7232.74 1850.15,7232.74C1855.05,7232.74 1858.25,7235.05 1860.15,7237.44C1860.35,7236.44 1860.95,7235.05 1862.45,7235.05C1864.45,7235.05 1866.65,7236.94 1866.65,7239.15L1866.65,7239.65L1865.75,7242.74ZM1878.75,7287.74C1878.75,7287.65 1878.75,7287.65 1878.85,7287.44C1886.35,7262.94 1889.15,7255.44 1894.75,7241.24L1878.75,7242.74C1877.95,7242.85 1877.25,7242.94 1876.55,7242.94C1873.85,7242.94 1871.85,7239.35 1871.85,7237.44C1871.85,7236.85 1872.15,7235.55 1873.45,7235.55C1874.25,7235.55 1874.95,7235.65 1876.15,7235.65L1877.05,7235.65L1895.95,7234.15C1896.45,7234.15 1896.85,7233.94 1897.25,7233.85C1897.85,7233.65 1898.45,7233.55 1898.95,7233.55L1899.25,7233.55C1900.85,7233.85 1903.35,7236.05 1903.35,7238.35L1903.35,7238.74C1903.15,7239.85 1902.75,7240.74 1902.35,7241.35C1902.05,7241.94 1901.65,7242.55 1901.55,7242.94C1893.85,7261.55 1887.05,7282.74 1885.65,7290.44C1885.25,7292.55 1883.65,7292.85 1882.35,7292.85C1882.15,7292.85 1881.75,7292.74 1881.35,7292.74C1879.35,7292.44 1878.35,7291.35 1878.35,7289.74C1878.35,7289.15 1878.45,7288.55 1878.65,7288.24L1878.75,7287.74ZM1858.65,7246.65C1857.95,7246.35 1857.45,7245.65 1857.15,7244.94C1856.35,7242.94 1854.65,7239.85 1850.55,7239.85C1843.25,7239.85 1838.85,7248.44 1838.85,7255.24C1838.85,7261.55 1840.85,7263.94 1844.35,7263.94C1850.45,7263.94 1855.75,7257.55 1858.35,7248.05L1858.65,7246.65Z" style="fill-rule:nonzero;"/>
        </g>
    </g>
</svg>
