<?xml version="1.0" encoding="UTF-8" standalone="no"?>
<!DOCTYPE svg PUBLIC "-//W3C//DTD SVG 1.1//EN" "http://www.w3.org/Graphics/SVG/1.1/DTD/svg11.dtd">
<svg width="100%" height="100%" viewBox="0 0 89 89" version="1.1" xmlns="http://www.w3.org/2000/svg" xmlns:xlink="http://www.w3.org/1999/xlink" xml:space="preserve" xmlns:serif="http://www.serif.com/" style="fill-rule:evenodd;clip-rule:evenodd;stroke-linejoin:round;stroke-miterlimit:2;">
    <g transform="matrix(1,0,0,1,-2302.43,-1142.27)">
        <g transform="matrix(1.41414,0,0,1.41429,-1052.39,-837.704)">
            <path d="M2429.19,1462.35C2432.58,1462.35 2434.7,1459.8 2434.7,1456.83L2434.7,1405.5C2434.7,1402.04 2432.23,1399.98 2429.19,1399.98L2377.85,1399.98C2374.39,1399.98 2372.34,1402.32 2372.34,1405.5L2372.34,1456.83C2372.34,1460.02 2374.81,1462.35 2377.85,1462.35L2429.19,1462.35ZM2426.29,1415.82C2427.35,1415.82 2428.05,1416.74 2428.05,1417.94C2428.05,1420.7 2421.12,1427.21 2420.14,1427.98C2425.51,1430.95 2428.34,1434.77 2428.34,1440.57C2428.34,1448.28 2423.18,1453.16 2415.89,1453.16C2409.11,1453.16 2404.93,1448.07 2404.93,1441.35C2404.93,1436.19 2407.41,1432.3 2411.37,1428.9C2407.69,1426.5 2406.42,1423.88 2406.42,1420.07C2406.42,1414.41 2410.38,1409.53 2416.74,1409.53C2420.91,1409.53 2423.88,1412.36 2425.86,1415.61L2426,1415.82L2426.29,1415.82ZM2384.71,1426.92C2386.41,1425.65 2388.46,1424.94 2391.08,1424.94C2396.8,1424.94 2401.61,1429.96 2401.61,1438.31C2401.61,1446.02 2397.93,1453.16 2388.88,1453.16C2383.65,1453.16 2378.35,1448.35 2378.35,1445.66C2378.35,1444.32 2379.2,1441.77 2380.75,1441.77C2381.32,1441.77 2381.74,1442.2 2382.02,1442.69C2383.72,1445.66 2385.77,1447.92 2388.88,1447.92C2394.68,1447.92 2396.94,1443.47 2396.94,1438.38C2396.94,1433.01 2394.4,1430.04 2390.58,1430.04C2388.32,1430.04 2386.41,1431.17 2384.92,1432.86C2383.58,1434.7 2383.09,1434.77 2382.52,1434.77C2381.32,1434.77 2379.62,1433.29 2379.62,1431.24C2379.62,1431.03 2379.62,1430.67 2379.76,1430.32L2380.12,1428.41L2381.32,1414.55C2381.39,1413.84 2381.46,1412.92 2381.46,1412.22C2381.46,1410.87 2382.38,1410.52 2383.01,1410.52C2383.65,1410.52 2384.43,1410.8 2385.07,1411.16L2394.04,1410.52C2394.89,1410.45 2396.24,1410.38 2397.16,1410.17L2397.37,1410.17C2398.85,1410.17 2399.63,1412.64 2399.63,1413.63C2399.63,1414.41 2399.28,1415.4 2398.22,1415.47L2394.54,1415.68L2385.63,1416.32L2384.71,1426.92ZM2415.89,1431.38C2411.65,1434.84 2409.6,1437.81 2409.6,1441.21C2409.6,1444.6 2411.44,1448 2415.89,1448C2420.56,1448 2423.67,1444.95 2423.67,1440.85C2423.67,1437.32 2422.26,1434.56 2416.6,1431.73L2415.89,1431.38ZM2421.97,1418.58C2420.63,1415.96 2419.14,1414.55 2416.74,1414.55C2412.85,1414.55 2411.09,1417.38 2411.09,1420.07C2411.09,1422.26 2411.79,1423.53 2415.61,1425.58C2418.16,1423.67 2420.35,1421.41 2422.4,1419.22L2421.97,1418.58Z" style="fill-rule:nonzero;"/>
        </g>
    </g>
</svg>
