<?xml version="1.0" encoding="UTF-8" standalone="no"?>
<!DOCTYPE svg PUBLIC "-//W3C//DTD SVG 1.1//EN" "http://www.w3.org/Graphics/SVG/1.1/DTD/svg11.dtd">
<svg width="100%" height="100%" viewBox="0 0 89 89" version="1.1" xmlns="http://www.w3.org/2000/svg" xmlns:xlink="http://www.w3.org/1999/xlink" xml:space="preserve" xmlns:serif="http://www.serif.com/" style="fill-rule:evenodd;clip-rule:evenodd;stroke-linejoin:round;stroke-miterlimit:2;">
    <g transform="matrix(1,0,0,1,-2102.45,-992.274)">
        <g transform="matrix(1.41414,0,0,1.41429,-1052.39,-837.704)">
            <path d="M2287.77,1356.29C2291.17,1356.29 2293.29,1353.74 2293.29,1350.77L2293.29,1299.44C2293.29,1295.97 2290.81,1293.92 2287.77,1293.92L2236.44,1293.92C2232.97,1293.92 2230.92,1296.26 2230.92,1299.44L2230.92,1350.77C2230.92,1353.95 2233.4,1356.29 2236.44,1356.29L2287.77,1356.29ZM2271.58,1320.65C2273.07,1319.8 2274.76,1319.31 2276.6,1319.31C2283.11,1319.31 2287.56,1324.89 2287.56,1332.39C2287.56,1340.59 2283.11,1347.1 2275.75,1347.1C2269.11,1347.1 2264.01,1341.23 2264.01,1333.94C2264.01,1328.92 2265.22,1323.9 2267.62,1318.53C2269.88,1313.37 2272,1309.13 2274.05,1305.59C2274.2,1305.45 2274.62,1304.67 2274.69,1304.53C2275.19,1303.61 2276.03,1303.33 2276.74,1303.33C2277.8,1303.33 2279.78,1304.04 2279.78,1305.66C2279.78,1306.3 2279.29,1307.15 2279,1307.57C2275.89,1311.81 2273.49,1316.69 2271.58,1320.65ZM2256.24,1339.32C2256.24,1341.65 2256.45,1343.91 2256.45,1345.26C2256.45,1346.04 2255.81,1346.88 2254.68,1346.88C2253.27,1346.88 2251.43,1345.61 2251.43,1344.2C2251.43,1343.28 2251.57,1340.03 2251.57,1339.18L2251.57,1337.13L2241.67,1337.48C2241.39,1337.48 2240.75,1337.62 2239.55,1337.97L2239.69,1337.9L2239.55,1337.9C2238.07,1337.9 2236.51,1336.14 2236.51,1334.23C2236.51,1333.87 2236.51,1333.03 2237.85,1331.05C2238.14,1330.62 2238.42,1330.27 2238.56,1329.91C2242.66,1322 2248.46,1308.91 2249.87,1304.6C2250.16,1303.68 2250.79,1303.54 2251.22,1303.54C2252.56,1303.54 2254.26,1305.8 2254.26,1307.5C2254.26,1307.92 2254.19,1308.35 2253.97,1308.7C2253.41,1309.55 2252.77,1310.82 2252.35,1311.74C2249.8,1317.54 2245.91,1325.81 2242.59,1332.39L2251.57,1332.18L2251.57,1321.29C2251.57,1320.16 2251.43,1316.48 2251.43,1315.14C2251.43,1314.36 2252.07,1313.51 2253.2,1313.51C2254.54,1313.51 2256.31,1314.71 2256.31,1316.2C2256.31,1317.12 2256.24,1319.87 2256.24,1321.29L2256.24,1331.96C2257.09,1331.89 2258.43,1331.61 2258.99,1331.61C2260.62,1331.61 2261.4,1334.23 2261.4,1335.29C2261.4,1335.78 2261.26,1337.13 2260.05,1337.13C2259.35,1337.13 2257.51,1336.98 2256.24,1336.98L2256.24,1339.32ZM2275.75,1342.08C2279.78,1342.08 2282.82,1338.26 2282.82,1332.53C2282.82,1328.08 2280.42,1324.33 2276.53,1324.33C2271.72,1324.33 2268.61,1328.71 2268.61,1333.87C2268.61,1338.54 2271.58,1342.08 2275.75,1342.08Z" style="fill-rule:nonzero;"/>
        </g>
    </g>
</svg>
