<?xml version="1.0" encoding="UTF-8" standalone="no"?>
<!DOCTYPE svg PUBLIC "-//W3C//DTD SVG 1.1//EN" "http://www.w3.org/Graphics/SVG/1.1/DTD/svg11.dtd">
<svg width="100%" height="100%" viewBox="0 0 89 89" version="1.1" xmlns="http://www.w3.org/2000/svg" xmlns:xlink="http://www.w3.org/1999/xlink" xml:space="preserve" xmlns:serif="http://www.serif.com/" style="fill-rule:evenodd;clip-rule:evenodd;stroke-linejoin:round;stroke-miterlimit:2;">
    <g transform="matrix(1,0,0,1,-2402.42,-1892.27)">
        <g transform="matrix(1.41414,0,0,1.41429,-1052.39,-837.704)">
            <path d="M2499.89,1992.65C2503.29,1992.65 2505.41,1990.11 2505.41,1987.14L2505.41,1935.8C2505.41,1932.34 2502.93,1930.29 2499.89,1930.29L2448.56,1930.29C2445.1,1930.29 2443.04,1932.62 2443.04,1935.8L2443.04,1987.14C2443.04,1990.32 2445.52,1992.65 2448.56,1992.65L2499.89,1992.65ZM2477.27,1942.87C2475,1942.87 2473.38,1940.47 2473.38,1938.63C2473.38,1936.58 2474.51,1935.1 2476.7,1935.1C2478.75,1935.1 2480.59,1937.43 2480.59,1939.41C2480.59,1941.39 2479.32,1942.87 2477.27,1942.87ZM2479.67,1979.78C2479.67,1983.11 2478.61,1988.62 2472.53,1988.62C2468.22,1988.62 2465.32,1986.5 2465.32,1984.66C2465.32,1983.53 2466.24,1981.34 2467.93,1981.34C2468.71,1981.34 2469.21,1981.69 2469.63,1982.19C2470.55,1983.25 2471.61,1983.39 2472.53,1983.39C2474.16,1983.39 2474.3,1981.2 2474.3,1979.85L2474.3,1956.1C2474.3,1954.96 2474.16,1950.79 2474.16,1949.45C2474.16,1948.46 2474.93,1947.82 2476.14,1947.82C2477.69,1947.82 2479.81,1949.03 2479.81,1950.51C2479.81,1951.43 2479.67,1954.61 2479.67,1956.1L2479.67,1979.78Z" style="fill-rule:nonzero;"/>
        </g>
    </g>
</svg>
