<?xml version="1.0" encoding="UTF-8" standalone="no"?>
<!DOCTYPE svg PUBLIC "-//W3C//DTD SVG 1.1//EN" "http://www.w3.org/Graphics/SVG/1.1/DTD/svg11.dtd">
<svg width="100%" height="100%" viewBox="0 0 89 89" version="1.1" xmlns="http://www.w3.org/2000/svg" xmlns:xlink="http://www.w3.org/1999/xlink" xml:space="preserve" xmlns:serif="http://www.serif.com/" style="fill-rule:evenodd;clip-rule:evenodd;stroke-linejoin:round;stroke-miterlimit:2;">
    <g transform="matrix(1,0,0,1,-1702.49,-1742.27)">
        <g transform="matrix(1.41414,0,0,1.41429,-1052.39,-837.704)">
            <path d="M2004.94,1886.59C2008.34,1886.59 2010.46,1884.05 2010.46,1881.08L2010.46,1829.74C2010.46,1826.28 2007.98,1824.23 2004.94,1824.23L1953.61,1824.23C1950.14,1824.23 1948.1,1826.56 1948.1,1829.74L1948.1,1881.08C1948.1,1884.26 1950.57,1886.59 1953.61,1886.59L2004.94,1886.59ZM1968.67,1869.13L1970.65,1857.6C1968.32,1859.93 1965.35,1861.42 1962.38,1861.42C1956.93,1861.42 1953.26,1857.11 1953.26,1850.11C1953.26,1841.97 1958.98,1833.7 1966.76,1833.7C1970.51,1833.7 1972.91,1835.4 1974.4,1837.03C1974.54,1836.32 1974.96,1835.33 1976.1,1835.33C1977.65,1835.33 1979.28,1836.67 1979.28,1838.3L1979.28,1838.65C1977.15,1845.51 1973.12,1870.47 1972.91,1874.92C1972.77,1876.69 1970.86,1877.12 1969.73,1877.12C1968.46,1877.12 1967.61,1876.48 1967.61,1875.14C1967.61,1874.57 1967.75,1874.08 1967.89,1873.51L1968.67,1869.13ZM1984.23,1876.69C1982.46,1876.69 1981.4,1874.57 1981.4,1873.16C1981.4,1872.73 1981.47,1872.17 1981.82,1871.67L1982.81,1870.12C1984.79,1865.94 1988.54,1859.72 1992.99,1855.13C1997.31,1850.74 1999.64,1847.49 1999.64,1844.24C1999.64,1841.27 1997.8,1838.79 1994.41,1838.79C1990.8,1838.79 1988.33,1841.13 1987.34,1844.17C1987.05,1844.94 1986.42,1846.22 1985.14,1846.22C1984.15,1846.22 1982.25,1844.59 1982.25,1842.82C1982.25,1842.4 1982.32,1841.76 1982.67,1841.27C1984.93,1836.81 1988.82,1833.7 1994.55,1833.7C2000.84,1833.7 2004.87,1838.09 2004.87,1844.24C2004.87,1849.96 2001.12,1854.35 1996.32,1859.09C1992.5,1862.83 1989.67,1867.5 1987.83,1871.18C1989.53,1871.04 1991.51,1870.96 1992.99,1870.96C1995.54,1870.96 1997.24,1871.04 1999.36,1871.04C2000.28,1871.04 2002.04,1870.96 2002.68,1870.96C2004.45,1870.96 2005.3,1873.51 2005.3,1874.57C2005.3,1875.42 2004.8,1876.41 2003.67,1876.41C1999.22,1875.98 1994.41,1875.98 1992.5,1875.98C1990.73,1875.98 1988.96,1875.98 1986.84,1876.27C1986.35,1876.27 1984.93,1876.62 1984.58,1876.69L1984.23,1876.69ZM1973.2,1843.74C1972.63,1843.53 1972.28,1842.96 1972.07,1842.54C1971.43,1841.06 1970.15,1838.79 1967.04,1838.79C1961.53,1838.79 1958.21,1845.02 1958.21,1849.89C1958.21,1854.49 1959.69,1856.19 1962.31,1856.19C1966.41,1856.19 1968.95,1853.43 1971.64,1848.48C1972.13,1847.63 1972.56,1846.01 1972.98,1844.73L1973.2,1843.74Z" style="fill-rule:nonzero;"/>
        </g>
    </g>
</svg>
