<?xml version="1.0" encoding="UTF-8" standalone="no"?>
<!DOCTYPE svg PUBLIC "-//W3C//DTD SVG 1.1//EN" "http://www.w3.org/Graphics/SVG/1.1/DTD/svg11.dtd">
<svg width="100%" height="100%" viewBox="0 0 89 89" version="1.1" xmlns="http://www.w3.org/2000/svg" xmlns:xlink="http://www.w3.org/1999/xlink" xml:space="preserve" xmlns:serif="http://www.serif.com/" style="fill-rule:evenodd;clip-rule:evenodd;stroke-linejoin:round;stroke-miterlimit:2;">
    <g transform="matrix(1,0,0,1,-2002.46,-242.274)">
        <g transform="matrix(1.41414,0,0,1.41429,-1052.39,-837.704)">
            <path d="M2217.07,825.984C2220.46,825.984 2222.58,823.439 2222.58,820.469L2222.58,769.136C2222.58,765.671 2220.11,763.621 2217.07,763.621L2165.73,763.621C2162.27,763.621 2160.22,765.954 2160.22,769.136L2160.22,820.469C2160.22,823.651 2162.69,825.984 2165.73,825.984L2217.07,825.984ZM2200.52,773.803C2201.23,773.732 2201.93,773.52 2202.64,773.52C2204.41,773.52 2205.54,775.924 2205.54,777.126C2205.54,777.904 2205.04,778.964 2203.77,778.964C2202.64,778.964 2200.8,778.964 2198.89,779.106L2185.53,779.954L2183.62,790.419C2186.1,789.075 2188.85,788.58 2192.88,788.58C2200.17,788.58 2207.45,793.106 2207.45,801.944C2207.45,810.358 2201.79,816.793 2190.12,816.793C2184.47,816.793 2180.58,815.096 2176.41,810.995C2175.84,810.429 2175.7,809.58 2175.7,808.944C2175.7,807.176 2176.97,805.267 2178.32,805.267C2179.02,805.267 2179.66,805.621 2180.09,806.257C2182.77,810.075 2185.74,811.56 2190.12,811.56C2198.47,811.56 2201.93,807.53 2201.93,802.015C2201.93,796.712 2198.12,793.671 2192.39,793.671C2188.85,793.671 2186.1,794.166 2183.69,796.217C2183.34,796.358 2182.07,797.843 2181.99,797.914C2181.64,798.197 2181.29,798.409 2180.72,798.409C2179.31,798.409 2177.33,796.782 2177.33,794.803C2177.33,794.449 2178.03,791.974 2178.03,791.974L2180.44,778.116C2180.58,777.409 2180.58,776.49 2180.58,775.853C2180.58,774.51 2181.78,774.156 2182.49,774.156C2183.34,774.156 2184.33,774.439 2185.18,774.863L2198.19,773.944L2200.52,773.803Z" style="fill-rule:nonzero;"/>
        </g>
    </g>
</svg>
