<?xml version="1.0" encoding="UTF-8" standalone="no"?>
<!DOCTYPE svg PUBLIC "-//W3C//DTD SVG 1.1//EN" "http://www.w3.org/Graphics/SVG/1.1/DTD/svg11.dtd">
<svg width="100%" height="100%" viewBox="0 0 89 89" version="1.1" xmlns="http://www.w3.org/2000/svg" xmlns:xlink="http://www.w3.org/1999/xlink" xml:space="preserve" xmlns:serif="http://www.serif.com/" style="fill-rule:evenodd;clip-rule:evenodd;stroke-linejoin:round;stroke-miterlimit:2;">
    <g transform="matrix(1,0,0,1,-2302.43,-1292.27)">
        <g transform="matrix(1.41414,0,0,1.41429,-1052.39,-837.704)">
            <path d="M2429.19,1568.41C2432.58,1568.41 2434.7,1565.86 2434.7,1562.89L2434.7,1511.56C2434.7,1508.1 2432.23,1506.05 2429.19,1506.05L2377.85,1506.05C2374.39,1506.05 2372.34,1508.38 2372.34,1511.56L2372.34,1562.89C2372.34,1566.08 2374.81,1568.41 2377.85,1568.41L2429.19,1568.41ZM2426.64,1521.88C2427.63,1521.88 2428.41,1522.8 2428.41,1524.01C2428.41,1526.48 2422.33,1532.56 2420.42,1534.05C2425.79,1537.02 2428.62,1540.83 2428.62,1546.63C2428.62,1554.34 2423.46,1559.22 2416.18,1559.22C2409.39,1559.22 2405.22,1554.13 2405.22,1547.41C2405.22,1542.25 2407.69,1538.36 2411.65,1534.96C2407.97,1532.56 2406.77,1529.94 2406.77,1526.13C2406.77,1520.47 2410.66,1515.59 2417.02,1515.59C2421.2,1515.59 2424.17,1518.42 2426.22,1521.67C2426.22,1521.74 2426.29,1521.81 2426.29,1521.88L2426.64,1521.88ZM2386.27,1532.77C2387.75,1531.92 2389.38,1531.43 2391.29,1531.43C2397.79,1531.43 2402.18,1537.02 2402.18,1544.51C2402.18,1552.71 2397.79,1559.22 2390.44,1559.22C2383.72,1559.22 2378.63,1553.35 2378.63,1546.07C2378.63,1541.05 2379.83,1536.03 2382.24,1530.65C2384.5,1525.49 2386.62,1521.25 2388.67,1517.71C2388.81,1517.64 2388.88,1517.43 2388.95,1517.29C2389.1,1517.01 2389.24,1516.79 2389.38,1516.65C2389.87,1515.73 2390.72,1515.45 2391.36,1515.45C2391.64,1515.45 2394.4,1515.59 2394.4,1517.78C2394.4,1518.42 2393.97,1519.27 2393.62,1519.69C2390.51,1523.93 2388.11,1528.81 2386.27,1532.77ZM2390.44,1554.2C2394.4,1554.2 2397.51,1550.38 2397.51,1544.65C2397.51,1540.2 2395.03,1536.45 2391.22,1536.45C2386.41,1536.45 2383.3,1540.83 2383.3,1546C2383.3,1550.66 2386.2,1554.2 2390.44,1554.2ZM2416.18,1537.44C2411.93,1540.9 2409.88,1543.87 2409.88,1547.27C2409.88,1550.66 2411.72,1554.06 2416.18,1554.06C2420.91,1554.06 2423.95,1551.02 2423.95,1546.91C2423.95,1543.38 2422.54,1540.62 2416.88,1537.79L2416.18,1537.44ZM2422.26,1524.64C2420.91,1522.03 2419.5,1520.61 2417.1,1520.61C2413.14,1520.61 2411.37,1523.44 2411.37,1526.13C2411.37,1528.32 2412.14,1529.59 2415.89,1531.64C2418.44,1529.73 2420.7,1527.47 2422.68,1525.28L2422.26,1524.64Z" style="fill-rule:nonzero;"/>
        </g>
    </g>
</svg>
