<?xml version="1.0" encoding="UTF-8" standalone="no"?>
<!DOCTYPE svg PUBLIC "-//W3C//DTD SVG 1.1//EN" "http://www.w3.org/Graphics/SVG/1.1/DTD/svg11.dtd">
<svg width="100%" height="100%" viewBox="0 0 89 89" version="1.1" xmlns="http://www.w3.org/2000/svg" xmlns:xlink="http://www.w3.org/1999/xlink" xml:space="preserve" xmlns:serif="http://www.serif.com/" style="fill-rule:evenodd;clip-rule:evenodd;stroke-linejoin:round;stroke-miterlimit:2;">
    <g transform="matrix(1,0,0,1,-758.718,-2071.63)">
        <g transform="matrix(1.41414,0,0,1.41429,-177.055,-770.755)">
            <path d="M724.089,2072.13L724.089,2009.77L661.726,2009.77L661.726,2072.13L724.089,2072.13ZM689.938,2029.21C691.988,2027.23 694.958,2025.82 698.281,2025.82C700.544,2025.82 703.796,2026.81 705.705,2029C705.988,2029.42 706.13,2029.99 706.13,2030.41C706.13,2031.62 705.211,2034.16 703.372,2034.16C702.524,2034.16 701.958,2033.53 701.675,2032.96C701.11,2031.9 699.2,2031.26 698.14,2031.26C695.17,2031.26 692.059,2032.96 690.716,2037.27C689.938,2039.89 689.796,2044.91 689.796,2049.58C689.796,2052.05 690.009,2054.6 690.009,2055.94C690.009,2057.35 688.524,2057.57 688.029,2057.57C686.473,2057.57 684.281,2056.22 684.281,2054.88C684.281,2053.89 684.423,2050.43 684.423,2049.58L684.423,2033.88C684.423,2032.75 684.281,2028.86 684.281,2027.44C684.281,2026.1 685.625,2025.82 686.261,2025.82C687.322,2025.82 689.938,2026.53 689.938,2028.58L689.938,2029.21Z" style="fill-rule:nonzero;"/>
        </g>
    </g>
</svg>
