<?xml version="1.0" encoding="UTF-8" standalone="no"?>
<!DOCTYPE svg PUBLIC "-//W3C//DTD SVG 1.1//EN" "http://www.w3.org/Graphics/SVG/1.1/DTD/svg11.dtd">
<svg width="100%" height="100%" viewBox="0 0 89 89" version="1.1" xmlns="http://www.w3.org/2000/svg" xmlns:xlink="http://www.w3.org/1999/xlink" xml:space="preserve" xmlns:serif="http://www.serif.com/" style="fill-rule:evenodd;clip-rule:evenodd;stroke-linejoin:round;stroke-miterlimit:2;">
    <g transform="matrix(1,0,0,1,-2202.44,-542.274)">
        <g transform="matrix(1.41414,0,0,1.41429,-1052.39,-837.704)">
            <path d="M2358.48,1038.11C2361.87,1038.11 2363.99,1035.56 2363.99,1032.59L2363.99,981.257C2363.99,977.793 2361.52,975.742 2358.48,975.742L2307.14,975.742C2303.68,975.742 2301.63,978.075 2301.63,981.257L2301.63,1032.59C2301.63,1035.77 2304.11,1038.11 2307.14,1038.11L2358.48,1038.11ZM2335.14,1024.6C2338.82,1014.91 2343.07,1003.88 2349.29,991.298L2334.44,992.641C2333.87,992.641 2333.24,992.782 2332.74,992.782C2330.05,992.782 2328.92,989.459 2328.92,988.823C2328.92,988.399 2329.14,987.409 2330.27,987.409C2330.9,987.409 2331.47,987.479 2332.39,987.479L2333.1,987.479L2350.42,986.207C2350.77,986.207 2351.12,986.065 2351.48,985.995C2351.9,985.853 2352.4,985.782 2352.82,985.782L2353.03,985.782C2354.31,985.995 2356.29,987.621 2356.29,989.247L2356.29,989.53C2356.14,990.378 2355.86,990.873 2354.8,992.641C2351.34,999.287 2343.98,1014.28 2340.59,1026.86C2340.31,1028.35 2338.89,1028.56 2338.04,1028.56C2337.76,1028.56 2337.48,1028.49 2337.12,1028.49C2335.64,1028.28 2334.65,1027.57 2334.65,1026.3C2334.65,1025.87 2334.79,1025.45 2334.86,1025.17L2335.14,1024.6ZM2321.64,1027.15C2321.64,1028.14 2320.79,1028.7 2319.66,1028.7C2317.96,1028.7 2315.91,1027.43 2315.91,1026.09C2315.91,1025.17 2316.05,1022.27 2316.05,1021.07L2316.05,993.56C2313.44,994.833 2310.68,995.399 2310.61,995.399C2309.05,995.399 2307.29,994.055 2307.29,993.065C2307.29,992.146 2307.99,991.722 2308.56,991.51C2311.32,990.449 2313.86,988.964 2315.56,987.692L2315.84,987.338L2316.55,986.702C2317.19,985.995 2318.03,985.5 2318.67,985.5C2320.01,985.5 2321.85,986.984 2321.85,988.681C2321.85,989.601 2321.5,990.591 2321.5,992.217L2321.5,1020.71C2321.5,1022.27 2321.57,1025.59 2321.64,1027.01L2321.64,1027.15Z" style="fill-rule:nonzero;"/>
        </g>
    </g>
</svg>
