<?xml version="1.0" encoding="UTF-8" standalone="no"?>
<!DOCTYPE svg PUBLIC "-//W3C//DTD SVG 1.1//EN" "http://www.w3.org/Graphics/SVG/1.1/DTD/svg11.dtd">
<svg width="100%" height="100%" viewBox="0 0 96 96" version="1.1" xmlns="http://www.w3.org/2000/svg" xmlns:xlink="http://www.w3.org/1999/xlink" xml:space="preserve" xmlns:serif="http://www.serif.com/" style="fill-rule:evenodd;clip-rule:evenodd;stroke-linejoin:round;stroke-miterlimit:2;">
    <g transform="matrix(1,0,0,1,-609.628,-3323.28)">
        <g transform="matrix(1,0,0,1,-110.019,-3591.86)">
            <path d="M815.248,6962.94C815.248,6936.55 793.848,6915.15 767.448,6915.15C741.048,6915.15 719.648,6936.55 719.648,6962.94C719.648,6989.35 741.048,7010.65 767.448,7010.65C793.848,7010.65 815.248,6989.35 815.248,6962.94ZM784.448,6935.24C784.448,6935.15 785.248,6932.65 787.748,6932.65C787.948,6932.65 791.948,6932.74 791.948,6935.94C791.948,6936.85 791.248,6937.94 790.848,6938.55C786.548,6944.44 783.248,6951.15 780.648,6956.74C782.648,6955.44 784.948,6954.85 787.548,6954.85C796.648,6954.85 802.748,6962.55 802.748,6972.94C802.748,6984.24 796.548,6993.35 786.348,6993.35C777.148,6993.35 770.048,6985.15 770.048,6975.15C770.048,6968.15 771.748,6961.24 775.048,6953.74C778.248,6946.55 781.148,6940.65 783.948,6935.85L784.448,6935.24ZM759.248,6982.55C759.248,6985.74 759.648,6988.94 759.648,6990.74C759.648,6991.94 758.748,6993.05 757.148,6993.05C755.248,6993.05 752.648,6991.35 752.648,6989.35C752.648,6988.05 752.848,6983.55 752.848,6982.35L752.848,6979.55L739.148,6980.05C738.748,6980.05 737.848,6980.15 736.148,6980.65L736.348,6980.55L736.148,6980.55C734.148,6980.55 731.948,6978.15 731.948,6975.44C731.948,6973.94 734.148,6970.44 734.848,6969.55C739.848,6959.65 748.448,6941.24 750.448,6934.44C750.848,6933.15 751.848,6932.94 752.348,6932.94C754.248,6932.94 756.648,6936.15 756.648,6938.44C756.648,6939.05 756.448,6939.65 756.148,6940.15C755.448,6941.35 754.448,6943.05 753.948,6944.35C750.448,6952.35 744.948,6963.85 740.348,6972.94L752.848,6972.65L752.848,6957.55C752.848,6955.94 752.648,6950.85 752.648,6949.05C752.648,6947.94 753.548,6946.74 755.048,6946.74C756.948,6946.74 759.448,6948.44 759.448,6950.55C759.448,6951.74 759.248,6955.65 759.248,6957.55L759.248,6972.35C760.448,6972.24 762.348,6971.85 763.148,6971.85C765.448,6971.85 766.448,6975.44 766.448,6976.94C766.448,6977.65 766.248,6979.55 764.548,6979.55C763.648,6979.55 761.148,6979.35 759.248,6979.35L759.248,6982.55ZM786.348,6986.35C791.948,6986.35 796.148,6981.15 796.148,6973.15C796.148,6966.94 792.848,6961.74 787.448,6961.74C780.848,6961.74 776.548,6967.85 776.548,6975.05C776.548,6981.44 780.548,6986.35 786.348,6986.35Z" style="fill-rule:nonzero;"/>
        </g>
    </g>
</svg>
