<?xml version="1.0" encoding="UTF-8" standalone="no"?>
<!DOCTYPE svg PUBLIC "-//W3C//DTD SVG 1.1//EN" "http://www.w3.org/Graphics/SVG/1.1/DTD/svg11.dtd">
<svg width="100%" height="100%" viewBox="0 0 89 89" version="1.1" xmlns="http://www.w3.org/2000/svg" xmlns:xlink="http://www.w3.org/1999/xlink" xml:space="preserve" xmlns:serif="http://www.serif.com/" style="fill-rule:evenodd;clip-rule:evenodd;stroke-linejoin:round;stroke-miterlimit:2;">
    <g transform="matrix(1,0,0,1,-1702.49,-392.274)">
        <g transform="matrix(1.41414,0,0,1.41429,-1052.39,-837.704)">
            <path d="M2004.94,932.045C2008.34,932.045 2010.46,929.5 2010.46,926.53L2010.46,875.197C2010.46,871.732 2007.98,869.681 2004.94,869.681L1953.61,869.681C1950.14,869.681 1948.1,872.015 1948.1,875.197L1948.1,926.53C1948.1,929.712 1950.57,932.045 1953.61,932.045L2004.94,932.045ZM1960.47,882.692C1962.17,880.782 1964.36,879.51 1966.97,879.51C1974.54,879.51 1978.08,889.126 1978.08,900.51C1978.08,912.106 1974.4,923.277 1965.77,923.277C1957.5,923.277 1954.03,913.52 1954.03,901.995C1954.03,893.863 1956.86,882.621 1959.9,882.621C1960.12,882.621 1960.33,882.621 1960.47,882.692ZM1983.52,922.429C1981.75,922.429 1980.69,920.308 1980.69,918.894C1980.69,918.469 1980.76,917.904 1981.12,917.409L1982.11,915.853C1984.09,911.681 1987.83,905.459 1992.29,900.863C1996.6,896.479 1998.93,893.227 1998.93,889.974C1998.93,887.005 1997.1,884.53 1993.7,884.53C1990.1,884.53 1987.62,886.863 1986.63,889.904C1986.35,890.681 1985.71,891.954 1984.44,891.954C1983.45,891.954 1981.54,890.328 1981.54,888.56C1981.54,888.136 1981.61,887.5 1981.96,887.005C1984.23,882.55 1988.19,879.439 1993.84,879.439C2000.13,879.439 2004.17,883.823 2004.17,889.974C2004.17,895.702 2000.42,900.085 1995.61,904.823C1991.79,908.57 1988.96,913.237 1987.12,916.914C1988.82,916.772 1990.8,916.702 1992.29,916.702C1994.83,916.702 1996.53,916.772 1998.72,916.772C1999.57,916.772 2001.34,916.702 2001.97,916.702C2003.74,916.702 2004.59,919.247 2004.59,920.308C2004.59,921.156 2004.1,922.146 2002.96,922.146C1998.51,921.722 1993.7,921.722 1991.79,921.722C1990.02,921.722 1988.26,921.722 1986.13,922.005C1985.64,922.005 1984.23,922.358 1983.87,922.429L1983.52,922.429ZM1965.56,918.116C1970.51,918.116 1973.05,910.126 1973.05,900.085C1973.05,892.803 1971.78,884.53 1966.76,884.53C1964,884.53 1959.05,889.621 1959.05,901.924C1959.05,911.611 1961.11,918.116 1965.56,918.116Z" style="fill-rule:nonzero;"/>
        </g>
    </g>
</svg>
