<?xml version="1.0" encoding="UTF-8" standalone="no"?>
<!DOCTYPE svg PUBLIC "-//W3C//DTD SVG 1.1//EN" "http://www.w3.org/Graphics/SVG/1.1/DTD/svg11.dtd">
<svg width="100%" height="100%" viewBox="0 0 89 89" version="1.1" xmlns="http://www.w3.org/2000/svg" xmlns:xlink="http://www.w3.org/1999/xlink" xml:space="preserve" xmlns:serif="http://www.serif.com/" style="fill-rule:evenodd;clip-rule:evenodd;stroke-linejoin:round;stroke-miterlimit:2;">
    <g transform="matrix(1,0,0,1,-758.718,-1321.63)">
        <g transform="matrix(1.41414,0,0,1.41429,-177.055,-770.755)">
            <path d="M724.089,1541.83L724.089,1479.46L661.726,1479.46L661.726,1541.83L724.089,1541.83ZM702.453,1506.19C703.938,1505.34 705.635,1504.85 707.473,1504.85C713.978,1504.85 718.433,1510.43 718.433,1517.93C718.433,1526.13 713.978,1532.64 706.625,1532.64C699.908,1532.64 694.817,1526.77 694.817,1519.49C694.817,1514.46 696.019,1509.44 698.423,1504.07C700.685,1498.91 702.806,1494.67 704.857,1491.13C704.998,1491.06 705.069,1490.85 705.211,1490.71C705.281,1490.35 705.988,1488.87 707.615,1488.87C707.756,1488.87 710.584,1488.94 710.584,1491.2C710.584,1491.84 710.16,1492.69 709.877,1493.11C706.695,1497.35 704.362,1502.23 702.453,1506.19ZM675.655,1506.19C677.14,1505.34 678.837,1504.85 680.675,1504.85C687.18,1504.85 691.635,1510.43 691.635,1517.93C691.635,1526.13 687.18,1532.64 679.827,1532.64C673.11,1532.64 668.019,1526.77 668.019,1519.49C668.019,1516.8 668.019,1508.6 678.13,1491.13C678.2,1491.06 678.271,1490.85 678.413,1490.71C679.049,1489.36 679.897,1488.87 680.817,1488.87C681.948,1488.87 683.857,1489.65 683.857,1491.2C683.857,1491.84 683.362,1492.69 683.079,1493.11C679.968,1497.35 677.564,1502.23 675.655,1506.19ZM679.827,1527.62C683.857,1527.62 686.897,1523.8 686.897,1518.07C686.897,1513.62 684.493,1509.87 680.604,1509.87C675.796,1509.87 672.685,1514.25 672.685,1519.41C672.685,1524.08 675.655,1527.62 679.827,1527.62ZM706.625,1527.62C710.584,1527.62 713.695,1523.8 713.695,1518.07C713.695,1513.62 711.221,1509.87 707.402,1509.87C702.594,1509.87 699.483,1514.25 699.483,1519.41C699.483,1524.08 702.382,1527.62 706.625,1527.62Z" style="fill-rule:nonzero;"/>
        </g>
    </g>
</svg>
