<?xml version="1.0" encoding="UTF-8" standalone="no"?>
<!DOCTYPE svg PUBLIC "-//W3C//DTD SVG 1.1//EN" "http://www.w3.org/Graphics/SVG/1.1/DTD/svg11.dtd">
<svg width="100%" height="100%" viewBox="0 0 96 96" version="1.1" xmlns="http://www.w3.org/2000/svg" xmlns:xlink="http://www.w3.org/1999/xlink" xml:space="preserve" xmlns:serif="http://www.serif.com/" style="fill-rule:evenodd;clip-rule:evenodd;stroke-linejoin:round;stroke-miterlimit:2;">
    <g transform="matrix(1,0,0,1,-1209.63,-3623.28)">
        <g transform="matrix(1,0,0,1,-110.019,-3591.86)">
            <path d="M1415.25,7262.94C1415.25,7236.55 1393.85,7215.15 1367.45,7215.15C1341.05,7215.15 1319.65,7236.55 1319.65,7262.94C1319.65,7289.35 1341.05,7310.65 1367.45,7310.65C1393.85,7310.65 1415.25,7289.35 1415.25,7262.94ZM1355.55,7265.85C1352.25,7269.15 1348.15,7271.15 1344.05,7271.15C1336.45,7271.15 1331.45,7265.15 1331.45,7255.55C1331.45,7244.24 1339.35,7232.74 1350.15,7232.74C1355.25,7232.74 1358.65,7235.05 1360.65,7237.44C1360.85,7236.44 1361.45,7235.05 1363.05,7235.05C1365.15,7235.05 1367.45,7236.94 1367.45,7239.15L1367.45,7239.65C1367.15,7240.85 1366.55,7242.24 1366.45,7242.74C1364.55,7251.74 1359.55,7278.65 1358.55,7289.94C1358.45,7292.35 1355.85,7292.94 1354.15,7292.94C1352.45,7292.94 1351.25,7292.05 1351.25,7290.15C1351.25,7289.35 1351.55,7288.74 1351.65,7287.94C1352.05,7285.65 1352.55,7283.24 1352.75,7281.85L1355.55,7265.85ZM1374.25,7292.35C1371.85,7292.35 1370.35,7289.35 1370.35,7287.44C1370.35,7286.85 1370.45,7286.05 1370.95,7285.35C1371.55,7284.44 1371.95,7283.94 1372.35,7283.24C1375.15,7277.44 1380.25,7268.85 1386.45,7262.44C1392.45,7256.35 1395.75,7251.85 1395.75,7247.35C1395.75,7243.24 1393.05,7239.85 1388.45,7239.85C1383.45,7239.85 1380.05,7243.05 1378.55,7247.24C1378.25,7248.35 1377.35,7250.15 1375.55,7250.15C1373.35,7250.15 1371.55,7246.94 1371.55,7245.44C1371.55,7242.94 1376.65,7232.74 1388.65,7232.74C1397.25,7232.74 1402.95,7238.85 1402.95,7247.35C1402.95,7255.35 1397.75,7261.35 1391.05,7267.94C1385.75,7273.15 1381.85,7279.65 1379.35,7284.65C1381.65,7284.55 1384.45,7284.44 1386.45,7284.44C1390.05,7284.44 1392.35,7284.55 1395.35,7284.55C1396.55,7284.55 1398.95,7284.44 1399.85,7284.44C1402.35,7284.44 1403.55,7287.94 1403.55,7289.44C1403.55,7290.55 1402.85,7291.94 1401.25,7291.94C1395.25,7291.35 1386.45,7291.35 1385.75,7291.35C1383.25,7291.35 1380.85,7291.35 1377.95,7291.74C1377.25,7291.74 1375.25,7292.24 1374.75,7292.35L1374.25,7292.35ZM1359.05,7246.65C1358.25,7246.35 1357.75,7245.65 1357.45,7244.94C1356.65,7242.94 1354.85,7239.85 1350.45,7239.85C1342.85,7239.85 1338.25,7248.44 1338.25,7255.24C1338.25,7261.55 1340.35,7263.94 1343.95,7263.94C1349.55,7263.94 1353.15,7260.05 1356.85,7253.24C1357.55,7252.05 1358.15,7249.85 1358.75,7248.05L1359.05,7246.65Z" style="fill-rule:nonzero;"/>
        </g>
    </g>
</svg>
