<?xml version="1.0" encoding="UTF-8" standalone="no"?>
<!DOCTYPE svg PUBLIC "-//W3C//DTD SVG 1.1//EN" "http://www.w3.org/Graphics/SVG/1.1/DTD/svg11.dtd">
<svg width="100%" height="100%" viewBox="0 0 96 96" version="1.1" xmlns="http://www.w3.org/2000/svg" xmlns:xlink="http://www.w3.org/1999/xlink" xml:space="preserve" xmlns:serif="http://www.serif.com/" style="fill-rule:evenodd;clip-rule:evenodd;stroke-linejoin:round;stroke-miterlimit:2;">
    <g transform="matrix(1,0,0,1,-709.628,-3023.28)">
        <g transform="matrix(1,0,0,1,-110.019,-3591.86)">
            <path d="M915.248,6662.94C915.248,6636.55 893.848,6615.15 867.448,6615.15C841.048,6615.15 819.648,6636.55 819.648,6662.94C819.648,6689.35 841.048,6710.65 867.448,6710.65C893.848,6710.65 915.248,6689.35 915.248,6662.94ZM880.948,6657.15C882.948,6655.85 885.248,6655.24 887.848,6655.24C896.848,6655.24 903.048,6662.94 903.048,6673.35C903.048,6684.65 896.848,6693.74 886.648,6693.74C877.348,6693.74 870.348,6685.55 870.348,6675.55C870.348,6669.15 871.748,6658.15 884.248,6636.24C884.548,6635.94 884.948,6635.15 885.248,6634.74C885.848,6633.44 887.048,6633.05 888.048,6633.05C888.648,6633.05 892.148,6633.35 892.148,6636.35C892.148,6637.24 891.548,6638.35 891.148,6638.94C886.848,6644.85 883.448,6651.55 880.948,6657.15ZM842.548,6637.74C844.748,6635.05 847.648,6633.24 851.048,6633.24C860.948,6633.24 865.548,6646.55 865.548,6662.35C865.548,6678.44 860.848,6693.94 849.448,6693.94C838.548,6693.94 834.048,6680.44 834.048,6664.44C834.048,6652.94 837.748,6637.55 841.748,6637.55C842.048,6637.55 842.248,6637.65 842.548,6637.74ZM849.148,6686.74C855.648,6686.74 858.948,6675.74 858.948,6661.74C858.948,6651.65 857.248,6640.24 850.748,6640.24C847.148,6640.24 840.648,6647.35 840.648,6664.35C840.648,6677.74 843.248,6686.74 849.148,6686.74ZM886.648,6686.74C892.248,6686.74 896.448,6681.55 896.448,6673.55C896.448,6667.35 893.048,6662.15 887.748,6662.15C881.048,6662.15 876.748,6668.24 876.748,6675.44C876.748,6681.85 880.848,6686.74 886.648,6686.74Z" style="fill-rule:nonzero;"/>
        </g>
    </g>
</svg>
