<?xml version="1.0" encoding="UTF-8" standalone="no"?>
<!DOCTYPE svg PUBLIC "-//W3C//DTD SVG 1.1//EN" "http://www.w3.org/Graphics/SVG/1.1/DTD/svg11.dtd">
<svg width="100%" height="100%" viewBox="0 0 89 89" version="1.1" xmlns="http://www.w3.org/2000/svg" xmlns:xlink="http://www.w3.org/1999/xlink" xml:space="preserve" xmlns:serif="http://www.serif.com/" style="fill-rule:evenodd;clip-rule:evenodd;stroke-linejoin:round;stroke-miterlimit:2;">
    <g transform="matrix(1,0,0,1,-358.759,-1171.63)">
        <g transform="matrix(1.41414,0,0,1.41429,-177.055,-770.755)">
            <path d="M441.261,1435.77L441.261,1373.4L378.897,1373.4L378.897,1435.77L441.261,1435.77ZM390.352,1407.77C389.998,1408.12 389.716,1408.19 389.221,1408.19C387.948,1408.19 386.18,1406.71 386.18,1404.66C386.18,1404.44 386.18,1404.09 386.322,1403.74L386.746,1401.83L387.948,1387.97C388.019,1387.26 388.089,1386.34 388.089,1385.64C388.089,1384.29 389.079,1383.94 389.786,1383.94C390.423,1383.94 391.271,1384.22 391.908,1384.58L401.382,1383.94C402.301,1383.87 403.716,1383.8 404.635,1383.59L404.918,1383.59C406.473,1383.59 407.322,1386.06 407.322,1387.05C407.322,1387.83 406.897,1388.82 405.837,1388.89L401.877,1389.1L392.544,1389.74L391.483,1400.34C393.392,1399.07 395.514,1398.36 398.271,1398.36C404.281,1398.36 409.372,1403.38 409.372,1411.73C409.372,1419.43 405.483,1426.58 395.938,1426.58C390.493,1426.58 384.837,1421.84 384.837,1419.08C384.837,1417.74 385.685,1415.19 387.312,1415.19C387.948,1415.19 388.443,1415.62 388.655,1416.11C390.493,1419.08 392.615,1421.34 395.938,1421.34C402.019,1421.34 404.423,1416.89 404.423,1411.8C404.423,1406.42 401.806,1403.45 397.705,1403.45C395.372,1403.45 393.322,1404.59 391.766,1406.28L390.352,1407.77ZM414.322,1425.87C412.554,1425.87 411.493,1423.75 411.493,1422.33C411.493,1421.91 411.564,1421.34 411.847,1420.85C412.342,1420.21 412.625,1419.79 412.837,1419.29C414.887,1415.12 418.564,1408.9 423.089,1404.3C427.402,1399.92 429.736,1396.67 429.736,1393.41C429.736,1390.44 427.897,1387.97 424.503,1387.97C420.897,1387.97 418.423,1390.3 417.362,1393.34C417.15,1394.12 416.514,1395.39 415.241,1395.39C414.251,1395.39 412.342,1393.77 412.342,1392C412.342,1391.58 412.413,1390.94 412.766,1390.44C415.029,1385.99 418.918,1382.88 424.645,1382.88C430.867,1382.88 434.968,1387.26 434.968,1393.41C434.968,1399.14 431.221,1403.53 426.413,1408.26C422.594,1412.01 419.766,1416.68 417.928,1420.35C419.625,1420.21 421.604,1420.14 423.089,1420.14C425.635,1420.14 427.332,1420.21 429.453,1420.21C430.372,1420.21 432.069,1420.14 432.776,1420.14C434.544,1420.14 435.392,1422.69 435.392,1423.75C435.392,1424.6 434.897,1425.59 433.766,1425.59C429.099,1425.16 426.483,1425.16 422.524,1425.16C420.756,1425.16 419.059,1425.16 416.938,1425.44C416.372,1425.44 414.817,1425.8 414.604,1425.87L414.322,1425.87Z" style="fill-rule:nonzero;"/>
        </g>
    </g>
</svg>
