<?xml version="1.0" encoding="UTF-8" standalone="no"?>
<!DOCTYPE svg PUBLIC "-//W3C//DTD SVG 1.1//EN" "http://www.w3.org/Graphics/SVG/1.1/DTD/svg11.dtd">
<svg width="100%" height="100%" viewBox="0 0 89 89" version="1.1" xmlns="http://www.w3.org/2000/svg" xmlns:xlink="http://www.w3.org/1999/xlink" xml:space="preserve" xmlns:serif="http://www.serif.com/" style="fill-rule:evenodd;clip-rule:evenodd;stroke-linejoin:round;stroke-miterlimit:2;">
    <g transform="matrix(1,0,0,1,-458.749,-421.632)">
        <g transform="matrix(1.41414,0,0,1.41429,-177.055,-770.755)">
            <path d="M511.968,905.465L511.968,843.102L449.604,843.102L449.604,905.465L511.968,905.465ZM462.049,856.112C463.675,854.203 465.938,852.93 468.554,852.93C476.12,852.93 479.584,862.546 479.584,873.93C479.584,885.526 475.978,896.698 467.352,896.698C459.009,896.698 455.544,886.94 455.544,875.415C455.544,865.799 458.726,856.041 461.483,856.041C461.695,856.041 461.837,856.041 462.049,856.112ZM499.594,871.809C503.342,872.799 506.382,876.758 506.382,882.132C506.382,889.839 502.281,896.556 492.665,896.556C488.493,896.556 485.241,894.789 482.342,891.678C481.776,891.041 481.705,890.334 481.705,889.769C481.705,888.637 482.483,886.092 484.11,886.092C484.534,886.092 484.958,886.304 485.382,886.799C487.433,889.627 489.483,891.395 492.665,891.395C498.958,891.395 501.362,886.94 501.362,882.203C501.362,878.243 498.604,875.344 494.574,875.344C493.019,875.344 491.322,875.698 490.685,875.839C490.544,875.91 490.473,875.91 490.332,875.91C488.635,875.91 487.786,873.718 487.786,872.587C487.786,871.809 488.211,870.89 489.2,870.678C494.786,870.253 499.877,867.001 499.877,863.041C499.877,859.93 498.039,857.95 494.574,857.95C491.817,857.95 489.483,859.223 487.009,862.334C486.514,862.971 486.089,863.607 485.241,863.607C484.11,863.607 482.766,862.051 482.766,860.142C482.766,859.294 483.12,858.657 483.473,858.304C486.301,854.839 489.908,852.859 494.574,852.859C500.443,852.859 504.756,856.395 504.756,862.688C504.756,868.132 501.15,871.102 499.594,871.809ZM467.14,891.536C472.089,891.536 474.564,883.546 474.564,873.506C474.564,866.223 473.291,857.95 468.342,857.95C465.514,857.95 460.635,863.041 460.635,875.344C460.635,885.031 462.615,891.536 467.14,891.536Z" style="fill-rule:nonzero;"/>
        </g>
    </g>
</svg>
