<?xml version="1.0" encoding="UTF-8" standalone="no"?>
<!DOCTYPE svg PUBLIC "-//W3C//DTD SVG 1.1//EN" "http://www.w3.org/Graphics/SVG/1.1/DTD/svg11.dtd">
<svg width="100%" height="100%" viewBox="0 0 89 89" version="1.1" xmlns="http://www.w3.org/2000/svg" xmlns:xlink="http://www.w3.org/1999/xlink" xml:space="preserve" xmlns:serif="http://www.serif.com/" style="fill-rule:evenodd;clip-rule:evenodd;stroke-linejoin:round;stroke-miterlimit:2;">
    <g transform="matrix(1,0,0,1,-858.708,-1471.63)">
        <g transform="matrix(1.41414,0,0,1.41429,-177.055,-770.755)">
            <path d="M794.796,1647.89L794.796,1585.53L732.433,1585.53L732.433,1647.89L794.796,1647.89ZM770.544,1634.67C770.615,1634.6 770.615,1634.6 770.615,1634.45C776.342,1617.2 777.897,1612.75 782.776,1601.08L770.544,1602.21C769.978,1602.28 769.413,1602.35 768.918,1602.35C766.514,1602.35 765.312,1599.53 765.312,1598.39C765.312,1597.97 765.524,1596.98 766.584,1596.98C767.15,1596.98 767.716,1597.05 768.564,1597.05L769.271,1597.05L783.695,1595.99C784.049,1595.99 784.332,1595.85 784.685,1595.78C785.11,1595.64 785.534,1595.57 785.958,1595.57L786.17,1595.57C787.443,1595.78 789.281,1597.4 789.281,1599.03L789.281,1599.31C789.14,1600.09 788.857,1600.73 788.574,1601.22C786.736,1603.98 777.332,1628.44 775.847,1636.65C775.564,1638.13 774.291,1638.34 773.372,1638.34C773.16,1638.34 772.877,1638.27 772.524,1638.27C771.039,1638.06 770.261,1637.28 770.261,1636.08C770.261,1635.66 770.402,1635.23 770.473,1635.02L770.544,1634.67ZM743.251,1634.67C743.251,1634.6 743.251,1634.6 743.322,1634.45C743.887,1632.76 744.312,1631.2 744.665,1630.21C747.564,1621.16 751.382,1610.84 755.413,1601.08L743.18,1602.21C742.615,1602.28 742.049,1602.35 741.554,1602.35C738.726,1602.35 737.948,1598.89 737.948,1598.39C737.948,1597.97 738.16,1596.98 739.221,1596.98C739.857,1596.98 740.352,1597.05 741.271,1597.05L741.908,1597.05L756.332,1595.99C756.685,1595.99 757.039,1595.85 757.322,1595.78C757.817,1595.64 758.241,1595.57 758.665,1595.57L758.877,1595.57C760.079,1595.78 761.918,1597.4 761.918,1599.03L761.918,1599.31C761.847,1600.09 761.493,1600.73 761.211,1601.22C757.039,1609.57 750.322,1628.02 748.483,1636.65C748.2,1638.13 746.998,1638.34 746.009,1638.34C745.796,1638.34 745.514,1638.27 745.231,1638.27C743.746,1638.06 742.897,1637.28 742.897,1636.08C742.897,1635.66 743.039,1635.23 743.11,1635.02L743.251,1634.67Z" style="fill-rule:nonzero;"/>
        </g>
    </g>
</svg>
