<?xml version="1.0" encoding="UTF-8" standalone="no"?>
<!DOCTYPE svg PUBLIC "-//W3C//DTD SVG 1.1//EN" "http://www.w3.org/Graphics/SVG/1.1/DTD/svg11.dtd">
<svg width="100%" height="100%" viewBox="0 0 89 89" version="1.1" xmlns="http://www.w3.org/2000/svg" xmlns:xlink="http://www.w3.org/1999/xlink" xml:space="preserve" xmlns:serif="http://www.serif.com/" style="fill-rule:evenodd;clip-rule:evenodd;stroke-linejoin:round;stroke-miterlimit:2;">
    <g transform="matrix(1,0,0,1,-858.708,-721.632)">
        <g transform="matrix(1.41414,0,0,1.41429,-177.055,-770.755)">
            <path d="M794.796,1117.59L794.796,1055.22L732.433,1055.22L732.433,1117.59L794.796,1117.59ZM741.554,1107.69C739.786,1107.69 738.726,1105.57 738.726,1104.15C738.726,1103.73 738.796,1103.16 739.15,1102.67L740.14,1101.11C742.12,1096.94 745.867,1090.72 750.322,1086.12C754.635,1081.74 756.968,1078.49 756.968,1075.23C756.968,1072.26 755.13,1069.79 751.736,1069.79C748.13,1069.79 745.655,1072.12 744.665,1075.16C744.382,1075.94 743.746,1077.21 742.473,1077.21C741.483,1077.21 739.574,1075.59 739.574,1073.82C739.574,1072.12 743.18,1064.7 751.877,1064.7C758.17,1064.7 762.271,1069.08 762.271,1075.23C762.271,1080.96 758.453,1085.34 753.645,1090.08C749.827,1093.83 746.998,1098.5 745.16,1102.17C746.928,1102.03 748.908,1101.96 750.322,1101.96C752.938,1101.96 754.564,1102.03 756.756,1102.03C757.604,1102.03 759.372,1101.96 760.009,1101.96C761.776,1101.96 762.625,1104.51 762.625,1105.57C762.625,1106.41 762.13,1107.4 760.998,1107.4C756.544,1106.98 751.736,1106.98 749.827,1106.98C748.059,1106.98 746.291,1106.98 744.17,1107.26C743.675,1107.26 742.261,1107.62 741.908,1107.69L741.554,1107.69ZM770.544,1104.36C770.615,1104.29 770.615,1104.29 770.615,1104.15C776.342,1086.9 777.897,1082.44 782.776,1070.78L770.544,1071.91C769.978,1071.98 769.413,1072.05 768.918,1072.05C766.514,1072.05 765.312,1069.22 765.312,1068.09C765.312,1067.67 765.524,1066.68 766.584,1066.68C767.15,1066.68 767.716,1066.75 768.564,1066.75L769.271,1066.75L783.695,1065.69C784.049,1065.69 784.332,1065.55 784.685,1065.48C785.11,1065.33 785.604,1065.26 785.958,1065.26L786.17,1065.26C787.443,1065.48 789.281,1067.1 789.281,1068.73L789.281,1069.01C789.14,1069.79 788.857,1070.42 788.574,1070.92C786.736,1073.68 777.332,1098.14 775.847,1106.34C775.564,1107.83 774.291,1108.04 773.372,1108.04C773.16,1108.04 772.877,1107.97 772.524,1107.97C771.039,1107.76 770.261,1106.98 770.261,1105.78C770.261,1105.35 770.402,1104.93 770.473,1104.72L770.544,1104.36Z" style="fill-rule:nonzero;"/>
        </g>
    </g>
</svg>
