<?xml version="1.0" encoding="UTF-8" standalone="no"?>
<!DOCTYPE svg PUBLIC "-//W3C//DTD SVG 1.1//EN" "http://www.w3.org/Graphics/SVG/1.1/DTD/svg11.dtd">
<svg width="100%" height="100%" viewBox="0 0 89 89" version="1.1" xmlns="http://www.w3.org/2000/svg" xmlns:xlink="http://www.w3.org/1999/xlink" xml:space="preserve" xmlns:serif="http://www.serif.com/" style="fill-rule:evenodd;clip-rule:evenodd;stroke-linejoin:round;stroke-miterlimit:2;">
    <g transform="matrix(1,0,0,1,-1602.51,-542.274)">
        <g transform="matrix(1.41414,0,0,1.41429,-1052.39,-837.704)">
            <path d="M1934.24,1038.11C1937.63,1038.11 1939.75,1035.56 1939.75,1032.59L1939.75,981.257C1939.75,977.793 1937.28,975.742 1934.24,975.742L1882.9,975.742C1879.44,975.742 1877.39,978.075 1877.39,981.257L1877.39,1032.59C1877.39,1035.77 1879.86,1038.11 1882.9,1038.11L1934.24,1038.11ZM1925.68,1027.15C1925.68,1028.14 1924.83,1028.7 1923.7,1028.7C1922,1028.7 1919.95,1027.43 1919.95,1026.09C1919.95,1025.17 1920.1,1022.27 1920.1,1021.07L1920.1,993.56C1917.48,994.833 1914.72,995.399 1914.65,995.399C1913.1,995.399 1911.33,994.055 1911.33,993.065C1911.33,992.146 1912.03,991.722 1912.6,991.51C1915.36,990.449 1917.9,988.964 1919.6,987.692L1919.88,987.338L1920.59,986.702C1921.23,985.995 1922.08,985.5 1922.71,985.5C1924.05,985.5 1925.89,986.984 1925.89,988.681C1925.89,989.601 1925.54,990.591 1925.54,992.217L1925.54,1020.71C1925.54,1022.27 1925.61,1025.59 1925.68,1027.01L1925.68,1027.15ZM1899.1,1027.15C1899.1,1028.14 1898.25,1028.7 1897.12,1028.7C1895.42,1028.7 1893.37,1027.43 1893.37,1026.09C1893.37,1025.17 1893.51,1022.27 1893.51,1021.07L1893.51,993.56C1890.89,994.833 1888.13,995.399 1888.07,995.399C1886.51,995.399 1884.74,994.055 1884.74,993.065C1884.74,992.146 1885.45,991.722 1886.01,991.51C1888.77,990.449 1891.32,988.964 1893.01,987.692L1893.3,987.338L1894,986.702C1894.64,985.995 1895.49,985.5 1896.12,985.5C1897.47,985.5 1899.31,986.984 1899.31,988.681C1899.31,989.601 1898.95,990.591 1898.95,992.217L1898.95,1020.71C1898.95,1022.27 1899.02,1025.59 1899.1,1027.01L1899.1,1027.15Z" style="fill-rule:nonzero;"/>
        </g>
    </g>
</svg>
