<?xml version="1.0" encoding="UTF-8" standalone="no"?>
<!DOCTYPE svg PUBLIC "-//W3C//DTD SVG 1.1//EN" "http://www.w3.org/Graphics/SVG/1.1/DTD/svg11.dtd">
<svg width="100%" height="100%" viewBox="0 0 89 89" version="1.1" xmlns="http://www.w3.org/2000/svg" xmlns:xlink="http://www.w3.org/1999/xlink" xml:space="preserve" xmlns:serif="http://www.serif.com/" style="fill-rule:evenodd;clip-rule:evenodd;stroke-linejoin:round;stroke-miterlimit:2;">
    <g transform="matrix(1,0,0,1,-1602.51,-1442.27)">
        <g transform="matrix(1.41414,0,0,1.41429,-1052.39,-837.704)">
            <path d="M1934.24,1674.47C1937.63,1674.47 1939.75,1671.92 1939.75,1668.95L1939.75,1617.62C1939.75,1614.16 1937.28,1612.11 1934.24,1612.11L1882.9,1612.11C1879.44,1612.11 1877.39,1614.44 1877.39,1617.62L1877.39,1668.95C1877.39,1672.14 1879.86,1674.47 1882.9,1674.47L1934.24,1674.47ZM1890.4,1661.25L1890.4,1661.04C1891.03,1659.34 1891.53,1657.78 1891.88,1656.79C1894.92,1647.74 1898.95,1637.42 1903.2,1627.66L1890.33,1628.79C1889.76,1628.86 1889.12,1628.93 1888.63,1628.93C1885.94,1628.93 1884.81,1625.61 1884.81,1624.97C1884.81,1624.55 1885.02,1623.56 1886.15,1623.56C1886.79,1623.56 1887.36,1623.63 1888.28,1623.63L1888.98,1623.63L1904.19,1622.57C1904.54,1622.57 1904.89,1622.43 1905.25,1622.36C1905.67,1622.22 1906.17,1622.15 1906.59,1622.15L1906.8,1622.15C1908.08,1622.36 1910.05,1623.98 1910.05,1625.61L1910.05,1625.89C1909.91,1626.67 1909.56,1627.31 1909.28,1627.8C1905.03,1636.29 1897.61,1655.24 1895.91,1663.23C1895.56,1664.71 1894.29,1664.92 1893.3,1664.92C1893.09,1664.92 1892.8,1664.85 1892.45,1664.85C1890.89,1664.64 1890.04,1663.86 1890.04,1662.66C1890.04,1662.24 1890.19,1661.81 1890.26,1661.6L1890.4,1661.25ZM1927.94,1663.51C1927.94,1664.5 1927.1,1665.07 1925.96,1665.07C1924.27,1665.07 1922.22,1663.79 1922.22,1662.45C1922.22,1661.53 1922.36,1658.63 1922.36,1657.43L1922.36,1629.92C1919.74,1631.2 1916.98,1631.76 1916.91,1631.76C1915.36,1631.76 1913.59,1630.42 1913.59,1629.43C1913.59,1628.51 1914.3,1628.09 1914.86,1627.87C1917.62,1626.81 1920.17,1625.33 1921.86,1624.06L1922.14,1623.7L1922.85,1623.07C1923.49,1622.36 1924.34,1621.86 1924.97,1621.86C1926.32,1621.86 1928.15,1623.35 1928.15,1625.05C1928.15,1625.96 1927.8,1626.95 1927.8,1628.58L1927.8,1657.08C1927.8,1658.63 1927.87,1661.95 1927.94,1663.37L1927.94,1663.51Z" style="fill-rule:nonzero;"/>
        </g>
    </g>
</svg>
