<?xml version="1.0" encoding="UTF-8" standalone="no"?>
<!DOCTYPE svg PUBLIC "-//W3C//DTD SVG 1.1//EN" "http://www.w3.org/Graphics/SVG/1.1/DTD/svg11.dtd">
<svg width="100%" height="100%" viewBox="0 0 96 96" version="1.1" xmlns="http://www.w3.org/2000/svg" xmlns:xlink="http://www.w3.org/1999/xlink" xml:space="preserve" xmlns:serif="http://www.serif.com/" style="fill-rule:evenodd;clip-rule:evenodd;stroke-linejoin:round;stroke-miterlimit:2;">
    <g transform="matrix(1,0,0,1,-2009.63,-3623.28)">
        <g transform="matrix(1,0,0,1,-110.019,-3591.86)">
            <path d="M2215.25,7262.94C2215.25,7236.55 2193.85,7215.15 2167.45,7215.15C2141.05,7215.15 2119.65,7236.55 2119.65,7262.94C2119.65,7289.35 2141.05,7310.65 2167.45,7310.65C2193.85,7310.65 2215.25,7289.35 2215.25,7262.94ZM2183.75,7237.55C2185.45,7234.94 2187.65,7233.15 2190.45,7233.15C2198.95,7233.15 2201.95,7246.94 2201.95,7262.35C2201.95,7278.15 2198.75,7294.05 2189.25,7294.05C2180.15,7294.05 2177.15,7280.15 2177.15,7264.44C2177.15,7255.85 2179.05,7237.44 2183.35,7237.44C2183.45,7237.44 2183.65,7237.44 2183.75,7237.55ZM2156.85,7237.55C2158.55,7235.05 2160.15,7233.15 2162.95,7233.15C2171.25,7233.15 2174.25,7246.94 2174.25,7262.35C2174.25,7278.05 2171.15,7294.05 2161.75,7294.05C2152.85,7294.05 2149.85,7280.15 2149.85,7264.44C2149.85,7255.85 2152.35,7237.44 2156.45,7237.44C2156.55,7237.44 2156.75,7237.44 2156.85,7237.55ZM2146.25,7291.55C2146.25,7292.85 2145.25,7293.74 2143.65,7293.74C2141.65,7293.74 2138.85,7291.94 2138.85,7290.05C2138.85,7288.74 2139.05,7284.74 2139.05,7283.05L2139.05,7245.15C2137.85,7245.85 2136.55,7246.35 2134.95,7246.85C2134.75,7246.94 2134.55,7246.94 2134.35,7246.94C2133.15,7246.94 2130.05,7245.85 2130.05,7243.35C2130.05,7242.05 2130.95,7241.44 2131.65,7241.15C2134.55,7239.74 2136.75,7238.15 2138.55,7236.65C2138.75,7236.55 2138.95,7236.24 2139.15,7236.05C2140.45,7234.74 2141.65,7233.65 2142.55,7233.65C2144.35,7233.65 2146.55,7235.74 2146.55,7238.15C2146.55,7239.44 2146.15,7240.85 2146.15,7243.05L2146.15,7282.55C2146.15,7284.74 2146.25,7289.24 2146.25,7291.35L2146.25,7291.55ZM2189.15,7286.55C2194.35,7286.55 2195.05,7274.44 2195.05,7261.74C2195.05,7251.55 2194.75,7240.44 2190.25,7240.44C2188.25,7240.44 2184.05,7246.85 2184.05,7264.35C2184.05,7276.44 2184.35,7286.55 2189.15,7286.55ZM2161.65,7286.55C2166.75,7286.55 2167.45,7274.44 2167.45,7261.74C2167.45,7251.55 2167.15,7240.44 2162.75,7240.44C2160.85,7240.44 2156.75,7246.74 2156.75,7264.35C2156.75,7276.44 2156.95,7286.55 2161.65,7286.55Z" style="fill-rule:nonzero;"/>
        </g>
    </g>
</svg>
