<?xml version="1.0" encoding="UTF-8" standalone="no"?>
<!DOCTYPE svg PUBLIC "-//W3C//DTD SVG 1.1//EN" "http://www.w3.org/Graphics/SVG/1.1/DTD/svg11.dtd">
<svg width="100%" height="100%" viewBox="0 0 96 96" version="1.1" xmlns="http://www.w3.org/2000/svg" xmlns:xlink="http://www.w3.org/1999/xlink" xml:space="preserve" xmlns:serif="http://www.serif.com/" style="fill-rule:evenodd;clip-rule:evenodd;stroke-linejoin:round;stroke-miterlimit:2;">
    <g transform="matrix(1,0,0,1,-2109.63,-3773.28)">
        <g transform="matrix(1,0,0,1,-110.019,-3591.86)">
            <path d="M2315.25,7412.94C2315.25,7386.55 2293.85,7365.15 2267.45,7365.15C2241.05,7365.15 2219.65,7386.55 2219.65,7412.94C2219.65,7439.35 2241.05,7460.65 2267.45,7460.65C2293.85,7460.65 2315.25,7439.35 2315.25,7412.94ZM2256.35,7419.15C2256.35,7425.74 2258.75,7429.55 2262.85,7429.55C2269.35,7429.55 2277.15,7421.05 2277.75,7408.35C2277.95,7404.85 2277.95,7395.55 2277.95,7393.65C2277.95,7392.55 2279.05,7391.35 2280.85,7391.35C2283.05,7391.35 2286.05,7393.15 2286.05,7394.94C2285.05,7407.74 2285.05,7407.94 2285.05,7413.65C2285.05,7418.05 2285.75,7424.05 2286.25,7425.65C2286.65,7427.44 2287.25,7429.15 2288.05,7430.24C2288.25,7430.74 2288.45,7431.15 2288.45,7431.74C2288.45,7433.55 2286.55,7436.35 2284.05,7436.35C2281.65,7436.35 2279.95,7434.05 2278.45,7427.55C2274.65,7433.55 2269.25,7436.85 2262.85,7436.85C2251.75,7436.85 2248.75,7427.85 2248.75,7419.44L2248.75,7402.74C2248.75,7401.65 2248.45,7395.65 2248.45,7393.74C2248.45,7392.35 2249.55,7391.44 2251.25,7391.44C2253.45,7391.44 2256.45,7393.15 2256.45,7395.24C2256.45,7396.55 2256.35,7400.74 2256.35,7402.74L2256.35,7419.15Z" style="fill-rule:nonzero;"/>
        </g>
    </g>
</svg>
