<?xml version="1.0" encoding="UTF-8" standalone="no"?>
<!DOCTYPE svg PUBLIC "-//W3C//DTD SVG 1.1//EN" "http://www.w3.org/Graphics/SVG/1.1/DTD/svg11.dtd">
<svg width="100%" height="100%" viewBox="0 0 89 89" version="1.1" xmlns="http://www.w3.org/2000/svg" xmlns:xlink="http://www.w3.org/1999/xlink" xml:space="preserve" xmlns:serif="http://www.serif.com/" style="fill-rule:evenodd;clip-rule:evenodd;stroke-linejoin:round;stroke-miterlimit:2;">
    <g transform="matrix(1,0,0,1,-2302.43,-1592.27)">
        <g transform="matrix(1.41414,0,0,1.41429,-1052.39,-837.704)">
            <path d="M2429.19,1780.53C2432.58,1780.53 2434.7,1777.98 2434.7,1775.02L2434.7,1723.68C2434.7,1720.22 2432.23,1718.17 2429.19,1718.17L2377.85,1718.17C2374.39,1718.17 2372.34,1720.5 2372.34,1723.68L2372.34,1775.02C2372.34,1778.2 2374.81,1780.53 2377.85,1780.53L2429.19,1780.53ZM2399.98,1734.01C2401.04,1734.01 2401.75,1734.92 2401.75,1736.13C2401.75,1738.88 2394.82,1745.39 2393.83,1746.17C2399.21,1749.14 2402.03,1752.95 2402.03,1758.75C2402.03,1766.46 2396.87,1771.34 2389.59,1771.34C2382.8,1771.34 2378.63,1766.25 2378.63,1759.53C2378.63,1754.37 2381.11,1750.48 2385.07,1747.09C2381.39,1744.68 2380.12,1742.07 2380.12,1738.25C2380.12,1732.59 2384.08,1727.71 2390.37,1727.71C2394.61,1727.71 2397.58,1730.54 2399.56,1733.79L2399.7,1734.01L2399.98,1734.01ZM2427.28,1734.01C2428.34,1734.01 2429.04,1734.92 2429.04,1736.13C2429.04,1738.67 2422.96,1744.68 2421.05,1746.17C2426.43,1749.14 2429.26,1752.95 2429.26,1758.75C2429.26,1766.46 2424.1,1771.34 2416.81,1771.34C2410.1,1771.34 2405.85,1766.25 2405.85,1759.53C2405.85,1754.37 2408.4,1750.48 2412.29,1747.09C2408.68,1744.68 2407.41,1742.07 2407.41,1738.25C2407.41,1732.59 2411.3,1727.71 2417.66,1727.71C2421.9,1727.71 2424.8,1730.54 2426.85,1733.79C2426.85,1733.86 2426.92,1733.93 2426.92,1734.01L2427.28,1734.01ZM2416.81,1749.56C2412.64,1753.03 2410.52,1756 2410.52,1759.39C2410.52,1762.78 2412.36,1766.18 2416.81,1766.18C2421.55,1766.18 2424.59,1763.14 2424.59,1759.04C2424.59,1755.5 2423.18,1752.74 2417.52,1749.91C2417.31,1749.77 2417.1,1749.63 2416.81,1749.56ZM2389.59,1749.56C2385.35,1753.03 2383.3,1756 2383.3,1759.39C2383.3,1762.78 2385.14,1766.18 2389.59,1766.18C2394.26,1766.18 2397.37,1763.14 2397.37,1759.04C2397.37,1755.5 2395.88,1752.74 2390.3,1749.91L2389.59,1749.56ZM2395.67,1736.76C2394.33,1734.15 2392.84,1732.73 2390.44,1732.73C2386.48,1732.73 2384.78,1735.56 2384.78,1738.25C2384.78,1740.44 2385.49,1741.71 2389.31,1743.76C2391.85,1741.85 2394.04,1739.59 2396.1,1737.4L2395.67,1736.76ZM2423.32,1737.4C2423.18,1737.19 2423.03,1736.97 2422.96,1736.76C2421.55,1734.15 2420.14,1732.73 2417.73,1732.73C2413.77,1732.73 2412.08,1735.56 2412.08,1738.25C2412.08,1740.44 2412.78,1741.71 2416.53,1743.76C2419.08,1741.85 2421.34,1739.59 2423.32,1737.4Z" style="fill-rule:nonzero;"/>
        </g>
    </g>
</svg>
