<?xml version="1.0" encoding="UTF-8" standalone="no"?>
<!DOCTYPE svg PUBLIC "-//W3C//DTD SVG 1.1//EN" "http://www.w3.org/Graphics/SVG/1.1/DTD/svg11.dtd">
<svg width="100%" height="100%" viewBox="0 0 96 96" version="1.1" xmlns="http://www.w3.org/2000/svg" xmlns:xlink="http://www.w3.org/1999/xlink" xml:space="preserve" xmlns:serif="http://www.serif.com/" style="fill-rule:evenodd;clip-rule:evenodd;stroke-linejoin:round;stroke-miterlimit:2;">
    <g transform="matrix(1,0,0,1,-709.628,-3173.28)">
        <g transform="matrix(1,0,0,1,-110.019,-3591.86)">
            <path d="M915.248,6812.94C915.248,6786.55 893.848,6765.15 867.448,6765.15C841.048,6765.15 819.648,6786.55 819.648,6812.94C819.648,6839.35 841.048,6860.65 867.448,6860.65C893.848,6860.65 915.248,6839.35 915.248,6812.94ZM836.848,6842.35C834.448,6842.35 832.948,6839.35 832.948,6837.44C832.948,6836.85 833.048,6836.05 833.548,6835.35C834.148,6834.44 834.548,6833.94 834.848,6833.24C837.748,6827.44 842.848,6818.85 849.048,6812.44C855.048,6806.35 858.248,6801.85 858.248,6797.35C858.248,6793.24 855.648,6789.85 851.048,6789.85C846.048,6789.85 842.648,6793.05 841.148,6797.24C840.848,6798.35 839.948,6800.15 838.148,6800.15C835.948,6800.15 834.148,6796.94 834.148,6795.44C834.148,6794.74 834.248,6793.94 834.748,6793.24C837.848,6787.15 843.348,6782.74 851.248,6782.74C859.848,6782.74 865.548,6788.85 865.548,6797.35C865.548,6805.35 860.348,6811.35 853.648,6817.94C848.348,6823.15 844.448,6829.65 841.848,6834.65C844.248,6834.55 847.048,6834.44 849.048,6834.44C852.648,6834.44 854.948,6834.55 857.948,6834.55C859.148,6834.55 861.548,6834.44 862.448,6834.44C864.948,6834.44 866.148,6837.94 866.148,6839.44C866.148,6840.55 865.448,6841.94 863.848,6841.94C857.848,6841.35 849.048,6841.35 848.348,6841.35C845.848,6841.35 843.448,6841.35 840.548,6841.74C839.848,6841.74 837.848,6842.24 837.348,6842.35L836.848,6842.35ZM877.148,6837.74L877.148,6837.44C877.948,6835.15 878.648,6832.94 879.048,6831.55C883.048,6819.05 888.348,6804.74 894.048,6791.24L877.048,6792.74C876.248,6792.85 875.548,6792.94 874.848,6792.94C873.948,6792.94 872.848,6792.74 871.948,6791.74C870.648,6790.55 869.748,6788.65 869.748,6787.44C869.748,6786.85 870.148,6785.55 871.548,6785.55C872.348,6785.55 873.148,6785.65 874.348,6785.65L875.248,6785.65L895.248,6784.15C895.748,6784.15 896.248,6783.94 896.648,6783.85C897.248,6783.65 897.848,6783.55 898.448,6783.55L898.748,6783.55C900.448,6783.85 903.048,6786.05 903.048,6788.35L903.048,6788.74C902.848,6789.85 902.448,6790.74 902.048,6791.35C895.548,6804.24 886.148,6832.15 884.348,6840.44C883.948,6842.44 882.248,6842.85 880.948,6842.85C880.648,6842.85 880.348,6842.74 879.848,6842.74C877.748,6842.44 876.648,6841.35 876.648,6839.74C876.648,6839.15 876.848,6838.55 876.948,6838.24L877.148,6837.74Z" style="fill-rule:nonzero;"/>
        </g>
    </g>
</svg>
