<?xml version="1.0" encoding="UTF-8" standalone="no"?>
<!DOCTYPE svg PUBLIC "-//W3C//DTD SVG 1.1//EN" "http://www.w3.org/Graphics/SVG/1.1/DTD/svg11.dtd">
<svg width="100%" height="100%" viewBox="0 0 96 96" version="1.1" xmlns="http://www.w3.org/2000/svg" xmlns:xlink="http://www.w3.org/1999/xlink" xml:space="preserve" xmlns:serif="http://www.serif.com/" style="fill-rule:evenodd;clip-rule:evenodd;stroke-linejoin:round;stroke-miterlimit:2;">
    <g transform="matrix(1,0,0,1,-1709.63,-3023.28)">
        <g transform="matrix(1,0,0,1,-110.019,-3591.86)">
            <path d="M1915.25,6662.94C1915.25,6636.55 1893.85,6615.15 1867.45,6615.15C1841.05,6615.15 1819.65,6636.55 1819.65,6662.94C1819.65,6689.35 1841.05,6710.65 1867.45,6710.65C1893.85,6710.65 1915.25,6689.35 1915.25,6662.94ZM1878.55,6635.24L1879.05,6634.35C1879.85,6633.05 1881.15,6632.65 1882.25,6632.65C1882.55,6632.65 1886.85,6632.85 1886.85,6635.94C1886.85,6636.85 1886.15,6637.94 1885.75,6638.55C1880.85,6644.44 1876.75,6651.24 1873.85,6656.65C1876.15,6655.44 1878.75,6654.85 1881.55,6654.85C1891.85,6654.85 1898.85,6662.55 1898.85,6672.94C1898.85,6684.24 1892.75,6693.35 1880.25,6693.35C1868.85,6693.35 1861.65,6685.15 1861.65,6675.15C1861.65,6668.24 1863.85,6657.05 1878.05,6635.85L1878.55,6635.24ZM1851.05,6681.94C1851.05,6684.15 1851.15,6688.65 1851.25,6690.74C1851.25,6692.15 1850.15,6693.05 1848.65,6693.05C1846.45,6693.05 1843.65,6691.24 1843.65,6689.44C1843.65,6688.15 1843.85,6684.15 1843.85,6682.44L1843.85,6644.35C1841.05,6645.65 1837.95,6646.85 1836.65,6646.85C1834.65,6646.85 1832.35,6645.05 1832.35,6643.65C1832.35,6642.44 1833.25,6641.74 1833.95,6641.44C1837.55,6639.94 1841.05,6637.94 1843.15,6636.24L1843.65,6635.74L1844.45,6634.74C1845.35,6633.85 1846.45,6633.15 1847.35,6633.15C1849.15,6633.15 1851.45,6635.15 1851.45,6637.55C1851.45,6638.85 1851.05,6640.24 1851.05,6642.44L1851.05,6681.94ZM1880.25,6686.35C1887.25,6686.35 1891.65,6681.15 1891.65,6673.15C1891.65,6667.05 1887.65,6661.74 1881.45,6661.74C1873.75,6661.74 1868.85,6667.94 1868.85,6675.05C1868.85,6681.44 1872.95,6686.35 1880.25,6686.35Z" style="fill-rule:nonzero;"/>
        </g>
    </g>
</svg>
