<?xml version="1.0" encoding="UTF-8" standalone="no"?>
<!DOCTYPE svg PUBLIC "-//W3C//DTD SVG 1.1//EN" "http://www.w3.org/Graphics/SVG/1.1/DTD/svg11.dtd">
<svg width="100%" height="100%" viewBox="0 0 89 89" version="1.1" xmlns="http://www.w3.org/2000/svg" xmlns:xlink="http://www.w3.org/1999/xlink" xml:space="preserve" xmlns:serif="http://www.serif.com/" style="fill-rule:evenodd;clip-rule:evenodd;stroke-linejoin:round;stroke-miterlimit:2;">
    <g transform="matrix(1,0,0,1,-2002.46,-992.274)">
        <g transform="matrix(1.41414,0,0,1.41429,-1052.39,-837.704)">
            <path d="M2217.07,1356.29C2220.46,1356.29 2222.58,1353.74 2222.58,1350.77L2222.58,1299.44C2222.58,1295.97 2220.11,1293.92 2217.07,1293.92L2165.73,1293.92C2162.27,1293.92 2160.22,1296.26 2160.22,1299.44L2160.22,1350.77C2160.22,1353.95 2162.69,1356.29 2165.73,1356.29L2217.07,1356.29ZM2197.9,1328.29C2197.55,1328.64 2197.27,1328.71 2196.84,1328.71C2195.64,1328.71 2193.94,1327.23 2193.94,1325.18C2193.94,1324.96 2193.94,1324.61 2194.01,1324.26C2194.23,1323.55 2194.3,1322.84 2194.44,1322.35L2195.64,1308.49C2195.71,1307.78 2195.78,1306.86 2195.78,1306.16C2195.78,1304.81 2196.7,1304.46 2197.34,1304.46C2197.97,1304.46 2198.75,1304.74 2199.39,1305.1L2208.37,1304.46C2209.22,1304.39 2210.56,1304.32 2211.41,1304.11L2211.69,1304.11C2213.18,1304.11 2213.95,1306.58 2213.95,1307.57C2213.95,1308.35 2213.6,1309.34 2212.54,1309.41L2208.79,1309.62L2199.95,1310.26L2198.96,1320.86C2200.73,1319.59 2202.78,1318.88 2205.4,1318.88C2211.12,1318.88 2215.86,1323.9 2215.86,1332.25C2215.86,1339.95 2212.19,1347.1 2203.21,1347.1C2197.97,1347.1 2192.67,1342.29 2192.67,1339.6C2192.67,1338.26 2193.52,1335.71 2195,1335.71C2195.64,1335.71 2196.07,1336.14 2196.28,1336.63C2197.97,1339.6 2200.02,1341.86 2203.21,1341.86C2209,1341.86 2211.27,1337.41 2211.27,1332.32C2211.27,1326.94 2208.72,1323.97 2204.9,1323.97C2202.64,1323.97 2200.73,1325.11 2199.25,1326.8L2197.9,1328.29ZM2185.46,1339.32C2185.46,1341.65 2185.74,1343.91 2185.74,1345.26C2185.74,1346.04 2185.03,1346.88 2183.9,1346.88C2182.42,1346.88 2180.44,1345.61 2180.44,1344.2C2180.44,1343.28 2180.58,1340.03 2180.58,1339.18L2180.58,1337.13L2170.19,1337.48C2169.9,1337.48 2169.2,1337.62 2167.92,1337.97L2168.07,1337.9L2167.92,1337.9C2166.37,1337.9 2164.74,1336.14 2164.74,1334.23C2164.74,1333.24 2165.02,1332.81 2166.16,1331.05C2167.99,1328.78 2177.19,1309.55 2178.81,1304.6C2179.1,1303.68 2179.8,1303.54 2180.23,1303.54C2181.64,1303.54 2183.48,1305.8 2183.48,1307.5C2183.48,1307.92 2183.34,1308.35 2183.12,1308.7C2182.56,1309.55 2181.85,1310.82 2181.43,1311.74C2178.74,1317.54 2174.64,1325.81 2171.11,1332.39L2180.58,1332.18L2180.58,1321.29C2180.58,1320.16 2180.44,1316.48 2180.44,1315.14C2180.44,1314.36 2181.14,1313.51 2182.28,1313.51C2183.69,1313.51 2185.6,1314.71 2185.6,1316.2C2185.6,1317.12 2185.46,1319.87 2185.46,1321.29L2185.46,1331.96C2186.38,1331.89 2187.79,1331.61 2188.43,1331.61C2190.12,1331.61 2190.97,1334.23 2190.97,1335.29C2190.97,1335.78 2190.76,1337.13 2189.49,1337.13C2188.78,1337.13 2186.87,1336.98 2185.46,1336.98L2185.46,1339.32Z" style="fill-rule:nonzero;"/>
        </g>
    </g>
</svg>
