<?xml version="1.0" encoding="UTF-8" standalone="no"?>
<!DOCTYPE svg PUBLIC "-//W3C//DTD SVG 1.1//EN" "http://www.w3.org/Graphics/SVG/1.1/DTD/svg11.dtd">
<svg width="100%" height="100%" viewBox="0 0 96 96" version="1.1" xmlns="http://www.w3.org/2000/svg" xmlns:xlink="http://www.w3.org/1999/xlink" xml:space="preserve" xmlns:serif="http://www.serif.com/" style="fill-rule:evenodd;clip-rule:evenodd;stroke-linejoin:round;stroke-miterlimit:2;">
    <g transform="matrix(1,0,0,1,-1209.63,-3023.28)">
        <g transform="matrix(1,0,0,1,-110.019,-3591.86)">
            <path d="M1415.25,6662.94C1415.25,6636.55 1393.85,6615.15 1367.45,6615.15C1341.05,6615.15 1319.65,6636.55 1319.65,6662.94C1319.65,6689.35 1341.05,6710.65 1367.45,6710.65C1393.85,6710.65 1415.25,6689.35 1415.25,6662.94ZM1354.05,6681.94C1354.05,6684.15 1354.15,6688.65 1354.25,6690.74C1354.25,6692.15 1353.15,6693.05 1351.45,6693.05C1349.15,6693.05 1346.25,6691.24 1346.25,6689.44C1346.25,6688.15 1346.45,6684.15 1346.45,6682.44L1346.45,6644.35C1343.45,6645.65 1340.25,6646.85 1338.95,6646.85C1336.75,6646.85 1334.35,6645.05 1334.35,6643.65C1334.35,6642.44 1335.25,6641.74 1336.05,6641.44C1339.85,6639.94 1343.45,6637.94 1345.75,6636.24L1346.25,6635.74C1346.45,6635.44 1346.85,6635.15 1347.15,6634.74C1348.05,6633.85 1349.25,6633.15 1350.15,6633.15C1352.05,6633.15 1354.55,6635.24 1354.55,6637.55C1354.55,6638.85 1354.05,6640.24 1354.05,6642.44L1354.05,6681.94ZM1391.05,6690.94C1391.05,6692.24 1389.85,6693.05 1388.35,6693.05C1386.05,6693.05 1383.15,6691.24 1383.15,6689.44C1383.15,6688.15 1383.35,6684.15 1383.35,6682.44L1383.35,6644.35C1380.25,6645.74 1377.15,6646.85 1375.75,6646.85C1373.65,6646.85 1371.15,6645.05 1371.15,6643.65C1371.15,6642.44 1372.15,6641.74 1372.85,6641.44C1376.75,6639.94 1380.35,6637.94 1382.65,6636.24L1383.05,6635.74L1383.95,6634.74C1384.95,6633.85 1386.05,6633.15 1386.95,6633.15C1388.85,6633.15 1391.35,6635.24 1391.35,6637.55C1391.35,6638.85 1390.85,6640.24 1390.85,6642.44L1390.85,6681.94C1390.85,6684.15 1390.95,6688.65 1391.05,6690.74L1391.05,6690.94Z" style="fill-rule:nonzero;"/>
        </g>
    </g>
</svg>
