<?xml version="1.0" encoding="UTF-8" standalone="no"?>
<!DOCTYPE svg PUBLIC "-//W3C//DTD SVG 1.1//EN" "http://www.w3.org/Graphics/SVG/1.1/DTD/svg11.dtd">
<svg width="100%" height="100%" viewBox="0 0 89 89" version="1.1" xmlns="http://www.w3.org/2000/svg" xmlns:xlink="http://www.w3.org/1999/xlink" xml:space="preserve" xmlns:serif="http://www.serif.com/" style="fill-rule:evenodd;clip-rule:evenodd;stroke-linejoin:round;stroke-miterlimit:2;">
    <g transform="matrix(1,0,0,1,-2302.43,-392.274)">
        <g transform="matrix(1.41414,0,0,1.41429,-1052.39,-837.704)">
            <path d="M2429.19,932.045C2432.58,932.045 2434.7,929.5 2434.7,926.53L2434.7,875.197C2434.7,871.732 2432.23,869.681 2429.19,869.681L2377.85,869.681C2374.39,869.681 2372.34,872.015 2372.34,875.197L2372.34,926.53C2372.34,929.712 2374.81,932.045 2377.85,932.045L2429.19,932.045ZM2426.71,885.803C2427.77,885.803 2428.48,886.722 2428.48,887.924C2428.48,890.681 2421.55,897.186 2420.56,897.964C2425.93,900.934 2428.69,904.752 2428.69,910.55C2428.69,918.257 2423.6,923.136 2416.25,923.136C2409.53,923.136 2405.36,918.045 2405.36,911.328C2405.36,906.166 2407.83,902.277 2411.72,898.883C2408.12,896.479 2406.84,893.863 2406.84,890.045C2406.84,884.389 2410.73,879.51 2417.1,879.51C2421.34,879.51 2424.31,882.338 2426.29,885.591C2426.36,885.661 2426.36,885.732 2426.36,885.803L2426.71,885.803ZM2385.49,882.692C2387.12,880.782 2389.17,879.51 2391.71,879.51C2398.85,879.51 2402.18,889.126 2402.18,900.51C2402.18,912.106 2398.71,923.277 2390.51,923.277C2382.66,923.277 2379.41,913.52 2379.41,901.995C2379.41,892.025 2382.45,882.621 2384.99,882.621C2385.21,882.621 2385.35,882.621 2385.49,882.692ZM2422.82,889.197C2422.61,888.984 2422.54,888.772 2422.4,888.56C2421.05,885.944 2419.57,884.53 2417.17,884.53C2413.21,884.53 2411.51,887.358 2411.51,890.045C2411.51,892.237 2412.22,893.51 2416.03,895.56C2418.58,893.651 2420.77,891.389 2422.82,889.197ZM2390.37,918.116C2395.03,918.116 2397.44,910.126 2397.44,900.085C2397.44,892.803 2396.17,884.53 2391.5,884.53C2388.81,884.53 2384.14,889.621 2384.14,901.924C2384.14,911.611 2386.12,918.116 2390.37,918.116ZM2416.25,901.358C2412.08,904.823 2409.95,907.793 2409.95,911.186C2409.95,914.58 2411.79,917.974 2416.25,917.974C2420.98,917.974 2424.1,914.934 2424.1,910.833C2424.1,907.298 2422.61,904.54 2417.02,901.712C2416.81,901.57 2416.53,901.429 2416.25,901.358Z" style="fill-rule:nonzero;"/>
        </g>
    </g>
</svg>
