<?xml version="1.0" encoding="UTF-8" standalone="no"?>
<!DOCTYPE svg PUBLIC "-//W3C//DTD SVG 1.1//EN" "http://www.w3.org/Graphics/SVG/1.1/DTD/svg11.dtd">
<svg width="100%" height="100%" viewBox="0 0 89 89" version="1.1" xmlns="http://www.w3.org/2000/svg" xmlns:xlink="http://www.w3.org/1999/xlink" xml:space="preserve" xmlns:serif="http://www.serif.com/" style="fill-rule:evenodd;clip-rule:evenodd;stroke-linejoin:round;stroke-miterlimit:2;">
    <g transform="matrix(1,0,0,1,-2402.42,-1742.27)">
        <g transform="matrix(1.41414,0,0,1.41429,-1052.39,-837.704)">
            <path d="M2499.89,1886.59C2503.29,1886.59 2505.41,1884.05 2505.41,1881.08L2505.41,1829.74C2505.41,1826.28 2502.93,1824.23 2499.89,1824.23L2448.56,1824.23C2445.1,1824.23 2443.04,1826.56 2443.04,1829.74L2443.04,1881.08C2443.04,1884.26 2445.52,1886.59 2448.56,1886.59L2499.89,1886.59ZM2462.98,1869.13C2463.48,1865.8 2464.19,1861.63 2464.89,1857.6C2462.63,1859.93 2459.8,1861.42 2456.97,1861.42C2451.81,1861.42 2448.35,1857.11 2448.35,1850.11C2448.35,1841.97 2453.79,1833.7 2461.14,1833.7C2464.68,1833.7 2467.01,1835.4 2468.36,1837.03C2468.5,1836.32 2468.92,1835.33 2470.05,1835.33C2471.47,1835.33 2473.02,1836.67 2473.02,1838.3L2473.02,1838.65C2472.81,1839.57 2472.46,1840.56 2472.39,1840.84C2469.49,1855.48 2467.23,1871.81 2466.94,1874.92C2466.8,1876.69 2465.03,1877.12 2463.97,1877.12C2462.77,1877.12 2461.92,1876.48 2461.92,1875.14C2461.92,1874.57 2462.14,1874.08 2462.21,1873.51L2462.98,1869.13ZM2489.92,1869.13C2490.49,1865.8 2491.12,1861.63 2491.83,1857.6C2489.57,1859.93 2486.74,1861.42 2483.98,1861.42C2478.75,1861.42 2475.29,1857.11 2475.29,1850.11C2475.29,1841.97 2480.73,1833.7 2488.16,1833.7C2491.62,1833.7 2493.95,1835.4 2495.37,1837.03C2495.51,1836.32 2495.86,1835.33 2496.99,1835.33C2498.41,1835.33 2499.96,1836.67 2499.96,1838.3L2499.96,1838.65C2499.75,1839.57 2499.4,1840.56 2499.33,1840.84C2498.76,1843.81 2494.24,1868.07 2493.95,1874.92C2493.81,1876.69 2492.04,1877.12 2490.91,1877.12C2489.71,1877.12 2488.93,1876.48 2488.93,1875.14C2488.93,1874.57 2489.08,1874.08 2489.14,1873.51L2489.92,1869.13ZM2494.24,1843.74C2493.67,1843.53 2493.39,1842.96 2493.18,1842.54C2492.54,1841.06 2491.34,1838.79 2488.37,1838.79C2483.14,1838.79 2479.95,1845.02 2479.95,1849.89C2479.95,1854.49 2481.37,1856.19 2483.91,1856.19C2490.84,1856.19 2493.67,1846.08 2494.02,1844.73L2494.24,1843.74ZM2467.23,1843.74C2466.73,1843.53 2466.38,1842.96 2466.24,1842.54C2465.6,1841.06 2464.4,1838.79 2461.43,1838.79C2456.2,1838.79 2453.01,1845.02 2453.01,1849.89C2453.01,1854.49 2454.43,1856.19 2456.9,1856.19C2460.79,1856.19 2463.27,1853.43 2465.74,1848.48C2466.24,1847.63 2466.66,1846.01 2467.09,1844.73L2467.23,1843.74Z" style="fill-rule:nonzero;"/>
        </g>
    </g>
</svg>
