<?xml version="1.0" encoding="UTF-8" standalone="no"?>
<!DOCTYPE svg PUBLIC "-//W3C//DTD SVG 1.1//EN" "http://www.w3.org/Graphics/SVG/1.1/DTD/svg11.dtd">
<svg width="100%" height="100%" viewBox="0 0 89 89" version="1.1" xmlns="http://www.w3.org/2000/svg" xmlns:xlink="http://www.w3.org/1999/xlink" xml:space="preserve" xmlns:serif="http://www.serif.com/" style="fill-rule:evenodd;clip-rule:evenodd;stroke-linejoin:round;stroke-miterlimit:2;">
    <g transform="matrix(1,0,0,1,-1602.51,-2192.27)">
        <g transform="matrix(1.41414,0,0,1.41429,-1052.39,-837.704)">
            <path d="M1934.24,2204.77C1937.63,2204.77 1939.75,2202.23 1939.75,2199.26L1939.75,2147.92C1939.75,2144.46 1937.28,2142.41 1934.24,2142.41L1882.9,2142.41C1879.44,2142.41 1877.39,2144.74 1877.39,2147.92L1877.39,2199.26C1877.39,2202.44 1879.86,2204.77 1882.9,2204.77L1934.24,2204.77ZM1918.47,2181.79C1919.53,2183.21 1921.09,2184.9 1922.22,2186.11C1922.57,2186.46 1922.64,2186.81 1922.64,2187.24C1922.64,2188.23 1920.94,2189.36 1919.11,2189.36C1918.47,2189.36 1917.34,2189.22 1916.77,2188.37C1916.21,2187.45 1915.22,2186.03 1914.44,2184.97L1908.78,2177.41L1903.05,2185.12C1902.28,2186.18 1901.29,2187.59 1900.72,2188.51C1900.15,2189.36 1899.02,2189.5 1898.39,2189.5C1896.69,2189.5 1894.85,2188.3 1894.85,2187.31C1894.85,2186.88 1894.92,2186.53 1895.28,2186.18C1896.41,2184.97 1897.89,2183.35 1899.02,2181.86L1905.6,2173.17L1899.38,2164.89C1898.6,2163.9 1897.47,2162.63 1896.27,2161.5C1896.12,2161.29 1895.84,2160.86 1895.84,2160.44C1895.84,2159.52 1897.96,2158.11 1899.66,2158.11C1900.65,2158.11 1901.36,2158.46 1901.64,2159.03C1902.07,2159.73 1902.63,2160.79 1903.41,2161.78L1908.78,2168.92L1914.3,2161.57C1915,2160.58 1915.64,2159.45 1916.07,2158.67C1916.49,2158.03 1917.41,2157.82 1917.97,2157.82C1919.6,2157.82 1921.86,2159.24 1921.86,2160.09C1921.86,2160.58 1921.72,2161.01 1921.3,2161.29C1920.17,2162.42 1919.11,2163.69 1918.33,2164.68L1911.96,2173.17L1918.47,2181.79Z" style="fill-rule:nonzero;"/>
        </g>
    </g>
</svg>
