<?xml version="1.0" encoding="UTF-8" standalone="no"?>
<!DOCTYPE svg PUBLIC "-//W3C//DTD SVG 1.1//EN" "http://www.w3.org/Graphics/SVG/1.1/DTD/svg11.dtd">
<svg width="100%" height="100%" viewBox="0 0 89 89" version="1.1" xmlns="http://www.w3.org/2000/svg" xmlns:xlink="http://www.w3.org/1999/xlink" xml:space="preserve" xmlns:serif="http://www.serif.com/" style="fill-rule:evenodd;clip-rule:evenodd;stroke-linejoin:round;stroke-miterlimit:2;">
    <g transform="matrix(1,0,0,1,-758.718,-1771.63)">
        <g transform="matrix(1.41414,0,0,1.41429,-177.055,-770.755)">
            <path d="M724.089,1860.01L724.089,1797.65L661.726,1797.65L661.726,1860.01L724.089,1860.01ZM701.746,1824.38C703.231,1823.53 704.928,1823.03 706.766,1823.03C713.271,1823.03 717.726,1828.62 717.726,1836.11C717.726,1844.31 713.271,1850.82 705.918,1850.82C699.2,1850.82 694.11,1844.95 694.11,1837.67C694.11,1834.98 694.11,1826.78 704.221,1809.31C704.291,1809.24 704.362,1809.03 704.503,1808.89C705.14,1807.55 705.988,1807.05 706.908,1807.05C708.039,1807.05 709.948,1807.83 709.948,1809.38C709.948,1810.02 709.453,1810.87 709.17,1811.29C706.059,1815.54 703.655,1820.41 701.746,1824.38ZM682.231,1842.55C682.796,1839.22 683.433,1835.05 684.14,1831.02C681.877,1833.35 679.049,1834.84 676.221,1834.84C671.059,1834.84 667.594,1830.53 667.594,1823.53C667.594,1815.39 673.039,1807.12 680.392,1807.12C683.928,1807.12 686.261,1808.82 687.604,1810.44C687.817,1809.74 688.17,1808.75 689.301,1808.75C690.716,1808.75 692.271,1810.09 692.271,1811.72L692.271,1812.07C692.059,1812.99 691.705,1813.98 691.635,1814.26C688.736,1828.9 686.473,1845.23 686.19,1848.34C686.12,1850.11 684.281,1850.54 683.221,1850.54C682.019,1850.54 681.17,1849.9 681.17,1848.56C681.17,1847.99 681.382,1847.5 681.453,1846.93L682.231,1842.55ZM705.918,1845.8C709.948,1845.8 712.988,1841.98 712.988,1836.25C712.988,1831.8 710.584,1828.05 706.695,1828.05C701.887,1828.05 698.776,1832.43 698.776,1837.6C698.776,1842.26 701.746,1845.8 705.918,1845.8ZM686.544,1817.16C685.978,1816.95 685.695,1816.38 685.483,1815.96C684.847,1814.48 683.645,1812.21 680.675,1812.21C675.443,1812.21 672.261,1818.43 672.261,1823.31C672.261,1827.91 673.675,1829.61 676.221,1829.61C682.796,1829.61 685.766,1820.2 686.332,1818.15L686.544,1817.16Z" style="fill-rule:nonzero;"/>
        </g>
    </g>
</svg>
