<?xml version="1.0" encoding="UTF-8" standalone="no"?>
<!DOCTYPE svg PUBLIC "-//W3C//DTD SVG 1.1//EN" "http://www.w3.org/Graphics/SVG/1.1/DTD/svg11.dtd">
<svg width="100%" height="100%" viewBox="0 0 96 96" version="1.1" xmlns="http://www.w3.org/2000/svg" xmlns:xlink="http://www.w3.org/1999/xlink" xml:space="preserve" xmlns:serif="http://www.serif.com/" style="fill-rule:evenodd;clip-rule:evenodd;stroke-linejoin:round;stroke-miterlimit:2;">
    <g transform="matrix(1,0,0,1,-1509.63,-3023.28)">
        <g transform="matrix(1,0,0,1,-110.019,-3591.86)">
            <path d="M1715.25,6662.94C1715.25,6636.55 1693.85,6615.15 1667.45,6615.15C1641.05,6615.15 1619.65,6636.55 1619.65,6662.94C1619.65,6689.35 1641.05,6710.65 1667.45,6710.65C1693.85,6710.65 1715.25,6689.35 1715.25,6662.94ZM1692.05,6682.55C1692.05,6685.74 1692.45,6688.94 1692.45,6690.74C1692.45,6691.94 1691.35,6693.05 1689.55,6693.05C1687.25,6693.05 1684.25,6691.35 1684.25,6689.35C1684.25,6688.05 1684.45,6683.55 1684.45,6682.35L1684.45,6679.55L1667.55,6680.44C1666.95,6680.55 1665.95,6680.65 1663.95,6681.15L1664.25,6681.05L1664.05,6681.05C1661.55,6681.05 1659.15,6678.65 1659.15,6675.94C1659.15,6675.35 1659.25,6674.44 1659.85,6673.55C1660.75,6672.24 1661.75,6671.05 1662.45,6670.05C1679.95,6641.65 1681.55,6637.35 1682.55,6634.35C1683.05,6633.35 1683.75,6632.94 1684.65,6632.94C1686.85,6632.94 1689.65,6636.15 1689.65,6638.44C1689.65,6639.05 1689.45,6639.55 1689.25,6639.94C1688.05,6641.74 1687.35,6642.94 1686.55,6644.35C1682.05,6652.05 1674.95,6663.94 1668.85,6673.44L1684.45,6672.74L1684.45,6657.55C1684.45,6655.94 1684.25,6650.85 1684.25,6649.05C1684.25,6647.94 1685.35,6646.74 1687.15,6646.74C1689.35,6646.74 1692.25,6648.44 1692.25,6650.55C1692.25,6651.74 1692.05,6655.65 1692.05,6657.55L1692.05,6672.35L1692.35,6672.35C1694.45,6672.24 1697.05,6671.85 1698.05,6671.85C1700.65,6671.85 1701.95,6675.35 1701.95,6676.85C1701.95,6677.74 1701.55,6679.44 1699.65,6679.44C1698.85,6679.44 1696.75,6679.15 1694.35,6679.15C1693.75,6679.15 1693.15,6679.24 1692.55,6679.24L1692.05,6679.24L1692.05,6682.55ZM1650.95,6690.94C1650.95,6692.24 1649.75,6693.05 1648.25,6693.05C1645.95,6693.05 1643.05,6691.24 1643.05,6689.44C1643.05,6688.15 1643.25,6684.15 1643.25,6682.44L1643.25,6644.35C1640.15,6645.74 1637.05,6646.85 1635.65,6646.85C1633.55,6646.85 1631.05,6645.05 1631.05,6643.65C1631.05,6642.44 1632.05,6641.74 1632.75,6641.44C1636.65,6639.94 1640.25,6637.94 1642.55,6636.24L1642.95,6635.74L1643.85,6634.74C1644.85,6633.85 1645.95,6633.15 1646.85,6633.15C1648.75,6633.15 1651.25,6635.15 1651.25,6637.55C1651.25,6638.85 1650.75,6640.24 1650.75,6642.44L1650.75,6681.94C1650.75,6684.15 1650.85,6688.65 1650.95,6690.74L1650.95,6690.94Z" style="fill-rule:nonzero;"/>
        </g>
    </g>
</svg>
