<?xml version="1.0" encoding="UTF-8" standalone="no"?>
<!DOCTYPE svg PUBLIC "-//W3C//DTD SVG 1.1//EN" "http://www.w3.org/Graphics/SVG/1.1/DTD/svg11.dtd">
<svg width="100%" height="100%" viewBox="0 0 96 96" version="1.1" xmlns="http://www.w3.org/2000/svg" xmlns:xlink="http://www.w3.org/1999/xlink" xml:space="preserve" xmlns:serif="http://www.serif.com/" style="fill-rule:evenodd;clip-rule:evenodd;stroke-linejoin:round;stroke-miterlimit:2;">
    <g transform="matrix(1,0,0,1,-809.628,-3173.28)">
        <g transform="matrix(1,0,0,1,-110.019,-3591.86)">
            <path d="M1015.25,6812.94C1015.25,6786.55 993.848,6765.15 967.448,6765.15C941.048,6765.15 919.648,6786.55 919.648,6812.94C919.648,6839.35 941.048,6860.65 967.448,6860.65C993.848,6860.65 1015.25,6839.35 1015.25,6812.94ZM990.848,6808.44C998.748,6812.55 1002.85,6817.85 1002.85,6825.85C1002.85,6836.65 995.348,6843.35 984.648,6843.35C974.748,6843.35 968.648,6836.24 968.648,6826.94C968.648,6819.85 972.248,6814.35 978.048,6809.74C972.648,6806.35 970.848,6802.74 970.848,6797.44C970.848,6789.55 976.548,6782.85 985.848,6782.85C992.048,6782.85 996.348,6786.74 999.348,6791.35C999.348,6791.44 999.348,6791.55 999.448,6791.65C999.548,6791.65 999.748,6791.55 999.948,6791.55C1001.45,6791.55 1002.45,6792.94 1002.45,6794.55C1002.45,6798.44 992.148,6807.44 990.848,6808.44ZM935.448,6842.35C933.048,6842.35 931.548,6839.35 931.548,6837.44C931.548,6836.85 931.648,6836.05 932.048,6835.35C932.748,6834.44 933.148,6833.94 933.448,6833.24C936.248,6827.44 941.348,6818.85 947.548,6812.44C953.648,6806.35 956.848,6801.85 956.848,6797.35C956.848,6793.24 954.248,6789.85 949.548,6789.85C944.548,6789.85 941.148,6793.05 939.748,6797.24C939.348,6798.35 938.548,6800.15 936.748,6800.15C935.148,6800.15 932.748,6797.94 932.748,6795.44C932.748,6794.74 932.848,6793.94 933.348,6793.24C936.448,6787.15 941.848,6782.74 949.748,6782.74C958.448,6782.74 964.148,6788.85 964.148,6797.35C964.148,6805.35 958.848,6811.35 952.248,6817.94C946.948,6823.15 943.048,6829.65 940.448,6834.65C942.848,6834.55 945.548,6834.44 947.648,6834.44C951.148,6834.44 953.548,6834.55 956.448,6834.55C957.648,6834.55 960.148,6834.44 961.048,6834.44C963.448,6834.44 964.648,6837.94 964.648,6839.44C964.648,6840.55 963.948,6841.94 962.348,6841.94C956.448,6841.35 948.148,6841.35 946.848,6841.35C944.448,6841.35 942.048,6841.35 939.048,6841.74C939.048,6841.74 937.948,6841.74 935.948,6842.35L935.448,6842.35ZM984.648,6813.15C978.448,6817.94 975.448,6822.05 975.448,6826.74C975.448,6831.44 978.148,6836.15 984.648,6836.15C991.548,6836.15 996.048,6831.94 996.048,6826.24C996.048,6821.35 993.948,6817.55 985.648,6813.65L984.648,6813.15ZM994.148,6796.24C993.948,6795.94 993.748,6795.74 993.548,6795.35C991.548,6791.74 989.448,6789.85 985.948,6789.85C980.148,6789.85 977.648,6793.74 977.648,6797.44C977.648,6800.55 978.748,6802.24 984.248,6805.15C987.948,6802.44 991.248,6799.35 994.148,6796.24Z" style="fill-rule:nonzero;"/>
        </g>
    </g>
</svg>
