<?xml version="1.0" encoding="UTF-8" standalone="no"?>
<!DOCTYPE svg PUBLIC "-//W3C//DTD SVG 1.1//EN" "http://www.w3.org/Graphics/SVG/1.1/DTD/svg11.dtd">
<svg width="100%" height="100%" viewBox="0 0 89 89" version="1.1" xmlns="http://www.w3.org/2000/svg" xmlns:xlink="http://www.w3.org/1999/xlink" xml:space="preserve" xmlns:serif="http://www.serif.com/" style="fill-rule:evenodd;clip-rule:evenodd;stroke-linejoin:round;stroke-miterlimit:2;">
    <g transform="matrix(1,0,0,1,-2002.46,-1292.27)">
        <g transform="matrix(1.41414,0,0,1.41429,-1052.39,-837.704)">
            <path d="M2217.07,1568.41C2220.46,1568.41 2222.58,1565.86 2222.58,1562.89L2222.58,1511.56C2222.58,1508.1 2220.11,1506.05 2217.07,1506.05L2165.73,1506.05C2162.27,1506.05 2160.22,1508.38 2160.22,1511.56L2160.22,1562.89C2160.22,1566.08 2162.69,1568.41 2165.73,1568.41L2217.07,1568.41ZM2174.36,1532.77C2175.84,1531.92 2177.54,1531.43 2179.38,1531.43C2185.88,1531.43 2190.34,1537.02 2190.34,1544.51C2190.34,1552.71 2185.88,1559.22 2178.53,1559.22C2171.81,1559.22 2166.72,1553.35 2166.72,1546.07C2166.72,1541.05 2167.92,1536.03 2170.33,1530.65C2172.59,1525.49 2174.71,1521.25 2176.76,1517.71C2176.9,1517.64 2176.97,1517.43 2177.04,1517.29C2177.89,1515.52 2179.1,1515.45 2179.45,1515.45C2179.73,1515.45 2182.49,1515.59 2182.49,1517.78C2182.49,1518.42 2182.07,1519.27 2181.71,1519.69C2178.6,1523.93 2176.2,1528.81 2174.36,1532.77ZM2198.04,1540.41C2197.76,1540.76 2197.48,1540.83 2197.05,1540.83C2195.78,1540.83 2194.16,1539.35 2194.16,1537.3C2194.16,1536.59 2194.44,1535.18 2194.65,1534.47L2195.85,1520.61C2195.85,1519.9 2195.92,1518.98 2195.92,1518.28C2195.92,1516.93 2196.84,1516.58 2197.48,1516.58C2198.12,1516.58 2198.89,1516.86 2199.53,1517.22L2208.51,1516.58C2209.36,1516.51 2210.7,1516.44 2211.62,1516.23L2211.83,1516.23C2213.32,1516.23 2214.17,1518.7 2214.17,1519.69C2214.17,1520.47 2213.74,1521.46 2212.75,1521.53L2209,1521.74L2200.17,1522.38L2199.18,1532.98C2200.94,1531.71 2202.92,1531.01 2205.54,1531.01C2211.27,1531.01 2216.08,1536.03 2216.08,1544.37C2216.08,1552.08 2212.4,1559.22 2203.35,1559.22C2199.03,1559.22 2195.85,1556.74 2193.45,1553.63C2193.02,1553.14 2192.88,1552.43 2192.88,1551.72C2192.88,1550.38 2193.66,1547.83 2195.22,1547.83C2195.78,1547.83 2196.28,1548.26 2196.49,1548.75C2198.19,1551.72 2200.24,1553.98 2203.35,1553.98C2209.14,1553.98 2211.41,1549.53 2211.41,1544.44C2211.41,1539.07 2208.93,1536.1 2205.04,1536.1C2202.78,1536.1 2200.87,1537.23 2199.39,1538.92L2198.04,1540.41ZM2178.53,1554.2C2182.49,1554.2 2185.6,1550.38 2185.6,1544.65C2185.6,1540.2 2183.12,1536.45 2179.31,1536.45C2174.5,1536.45 2171.39,1540.83 2171.39,1546C2171.39,1550.66 2174.29,1554.2 2178.53,1554.2Z" style="fill-rule:nonzero;"/>
        </g>
    </g>
</svg>
