<?xml version="1.0" encoding="UTF-8" standalone="no"?>
<!DOCTYPE svg PUBLIC "-//W3C//DTD SVG 1.1//EN" "http://www.w3.org/Graphics/SVG/1.1/DTD/svg11.dtd">
<svg width="100%" height="100%" viewBox="0 0 89 89" version="1.1" xmlns="http://www.w3.org/2000/svg" xmlns:xlink="http://www.w3.org/1999/xlink" xml:space="preserve" xmlns:serif="http://www.serif.com/" style="fill-rule:evenodd;clip-rule:evenodd;stroke-linejoin:round;stroke-miterlimit:2;">
    <g transform="matrix(1,0,0,1,-1502.52,-1142.27)">
        <g transform="matrix(1.41414,0,0,1.41429,-1052.39,-837.704)">
            <path d="M1863.53,1462.35C1866.92,1462.35 1869.04,1459.8 1869.04,1456.83L1869.04,1405.5C1869.04,1402.04 1866.57,1399.98 1863.53,1399.98L1812.2,1399.98C1808.73,1399.98 1806.68,1402.32 1806.68,1405.5L1806.68,1456.83C1806.68,1460.02 1809.15,1462.35 1812.2,1462.35L1863.53,1462.35ZM1845.29,1412.57C1846.91,1410.66 1849.03,1409.39 1851.58,1409.39C1858.86,1409.39 1862.26,1419.01 1862.26,1430.39C1862.26,1441.98 1858.72,1453.16 1850.38,1453.16C1842.39,1453.16 1839.07,1443.47 1839.07,1431.87C1839.07,1421.76 1842.18,1412.5 1844.72,1412.5C1844.93,1412.5 1845.14,1412.5 1845.29,1412.57ZM1817.5,1434.35C1817.22,1434.7 1816.93,1434.77 1816.44,1434.77C1815.24,1434.77 1813.54,1433.29 1813.54,1431.24C1813.54,1431.03 1813.54,1430.67 1813.68,1430.32L1814.03,1428.41L1815.24,1414.55C1815.31,1413.84 1815.38,1412.92 1815.38,1412.22C1815.38,1410.87 1816.3,1410.52 1816.93,1410.52C1817.57,1410.52 1818.35,1410.8 1818.98,1411.16L1827.96,1410.52C1828.81,1410.45 1830.15,1410.38 1831.08,1410.17L1831.29,1410.17C1832.77,1410.17 1833.55,1412.64 1833.55,1413.63C1833.55,1414.41 1833.2,1415.4 1832.13,1415.47L1828.46,1415.68L1819.55,1416.32L1818.63,1426.92C1820.33,1425.65 1822.38,1424.94 1824.99,1424.94C1830.72,1424.94 1835.53,1429.96 1835.53,1438.31C1835.53,1446.02 1831.85,1453.16 1822.8,1453.16C1817.57,1453.16 1812.27,1448.35 1812.27,1445.66C1812.27,1444.32 1813.12,1441.77 1814.67,1441.77C1815.24,1441.77 1815.66,1442.2 1815.94,1442.69C1817.64,1445.66 1819.69,1447.92 1822.8,1447.92C1828.6,1447.92 1830.86,1443.47 1830.86,1438.38C1830.86,1433.01 1828.32,1430.04 1824.5,1430.04C1822.24,1430.04 1820.33,1431.17 1818.84,1432.86L1817.5,1434.35ZM1850.17,1448C1855.04,1448 1857.45,1440.01 1857.45,1429.96C1857.45,1421.62 1855.47,1414.41 1851.37,1414.41C1848.61,1414.41 1843.87,1419.57 1843.87,1431.8C1843.87,1441.49 1845.85,1448 1850.17,1448Z" style="fill-rule:nonzero;"/>
        </g>
    </g>
</svg>
