<?xml version="1.0" encoding="UTF-8" standalone="no"?>
<!DOCTYPE svg PUBLIC "-//W3C//DTD SVG 1.1//EN" "http://www.w3.org/Graphics/SVG/1.1/DTD/svg11.dtd">
<svg width="100%" height="100%" viewBox="0 0 89 89" version="1.1" xmlns="http://www.w3.org/2000/svg" xmlns:xlink="http://www.w3.org/1999/xlink" xml:space="preserve" xmlns:serif="http://www.serif.com/" style="fill-rule:evenodd;clip-rule:evenodd;stroke-linejoin:round;stroke-miterlimit:2;">
    <g transform="matrix(1,0,0,1,-458.749,-571.632)">
        <g transform="matrix(1.41414,0,0,1.41429,-177.055,-770.755)">
            <path d="M511.968,1011.53L511.968,949.162L449.604,949.162L449.604,1011.53L511.968,1011.53ZM496.13,977.587C500.301,978.577 503.625,982.536 503.625,987.91C503.625,995.617 499.099,1002.33 488.423,1002.33C483.827,1002.33 480.221,1000.57 477.039,997.455C476.402,996.819 476.332,996.112 476.332,995.546C476.332,994.415 477.11,991.87 479.019,991.87C479.514,991.87 479.938,992.082 480.362,992.577C482.695,995.405 484.958,997.173 488.423,997.173C495.423,997.173 498.11,992.718 498.11,987.981C498.11,984.021 495.069,981.122 490.544,981.122C488.635,981.122 486.584,981.546 486.231,981.617C486.089,981.688 486.019,981.688 485.877,981.688C483.968,981.688 483.049,979.496 483.049,978.364C483.049,977.587 483.544,976.667 484.604,976.455C489.342,976.102 496.413,973.627 496.413,968.819C496.413,965.708 494.433,963.728 490.615,963.728C487.503,963.728 484.887,965.001 482.2,968.112C481.635,968.748 481.211,969.385 480.221,969.385C479.019,969.385 477.463,967.758 477.463,965.92C477.463,963.445 483.473,958.637 490.544,958.637C497.12,958.637 501.857,962.173 501.857,968.465C501.857,973.91 497.827,976.88 496.13,977.587ZM468.908,1000.57C468.908,1001.56 468.059,1002.12 466.928,1002.12C465.231,1002.12 463.18,1000.85 463.18,999.506C463.18,998.587 463.322,995.688 463.322,994.486L463.322,966.981C460.705,968.253 457.948,968.819 457.877,968.819C456.322,968.819 454.554,967.476 454.554,966.486C454.554,965.566 455.261,965.142 455.827,964.93C458.584,963.87 461.13,962.385 462.827,961.112L463.11,960.758L463.817,960.122C464.453,959.415 465.301,958.92 465.938,958.92C467.281,958.92 469.12,960.405 469.12,962.102C469.12,963.021 468.766,964.011 468.766,965.637L468.766,994.132C468.766,995.688 468.837,999.011 468.908,1000.43L468.908,1000.57Z" style="fill-rule:nonzero;"/>
        </g>
    </g>
</svg>
