<?xml version="1.0" encoding="UTF-8" standalone="no"?>
<!DOCTYPE svg PUBLIC "-//W3C//DTD SVG 1.1//EN" "http://www.w3.org/Graphics/SVG/1.1/DTD/svg11.dtd">
<svg width="100%" height="100%" viewBox="0 0 96 96" version="1.1" xmlns="http://www.w3.org/2000/svg" xmlns:xlink="http://www.w3.org/1999/xlink" xml:space="preserve" xmlns:serif="http://www.serif.com/" style="fill-rule:evenodd;clip-rule:evenodd;stroke-linejoin:round;stroke-miterlimit:2;">
    <g transform="matrix(1,0,0,1,-1709.63,-3773.28)">
        <g transform="matrix(1,0,0,1,-110.019,-3591.86)">
            <path d="M1915.25,7412.94C1915.25,7386.55 1893.85,7365.15 1867.45,7365.15C1841.05,7365.15 1819.65,7386.55 1819.65,7412.94C1819.65,7439.35 1841.05,7460.65 1867.45,7460.65C1893.85,7460.65 1915.25,7439.35 1915.25,7412.94ZM1884.95,7432.44C1884.95,7435.85 1885.25,7439.44 1885.25,7441.44C1885.25,7443.35 1883.35,7443.74 1882.45,7443.74C1880.95,7443.74 1877.25,7442.74 1877.25,7439.85C1877.25,7438.55 1877.35,7435.35 1877.35,7432.35L1877.35,7421.85C1872.95,7427.55 1867.25,7430.15 1861.25,7430.15C1851.95,7430.15 1845.95,7422.74 1845.95,7411.55C1845.95,7397.74 1856.45,7384.65 1868.35,7384.65C1871.65,7384.65 1874.75,7385.44 1877.25,7387.44L1877.25,7386.94C1877.25,7385.05 1879.15,7384.65 1880.05,7384.65C1881.45,7384.65 1885.15,7385.65 1885.15,7388.44C1885.15,7389.85 1884.95,7393.05 1884.95,7396.05L1884.95,7432.44ZM1877.35,7396.85C1876.65,7396.74 1876.05,7396.35 1875.65,7395.74C1873.75,7392.85 1871.05,7391.74 1868.45,7391.74C1860.25,7391.74 1853.85,7401.35 1853.85,7411.24C1853.85,7419.65 1857.45,7422.94 1861.25,7422.94C1868.25,7422.94 1877.35,7413.85 1877.35,7404.05L1877.35,7396.85Z" style="fill-rule:nonzero;"/>
        </g>
    </g>
</svg>
