<?xml version="1.0" encoding="UTF-8" standalone="no"?>
<!DOCTYPE svg PUBLIC "-//W3C//DTD SVG 1.1//EN" "http://www.w3.org/Graphics/SVG/1.1/DTD/svg11.dtd">
<svg width="100%" height="100%" viewBox="0 0 89 89" version="1.1" xmlns="http://www.w3.org/2000/svg" xmlns:xlink="http://www.w3.org/1999/xlink" xml:space="preserve" xmlns:serif="http://www.serif.com/" style="fill-rule:evenodd;clip-rule:evenodd;stroke-linejoin:round;stroke-miterlimit:2;">
    <g transform="matrix(1,0,0,1,-1702.49,-242.274)">
        <g transform="matrix(1.41414,0,0,1.41429,-1052.39,-837.704)">
            <path d="M2004.94,825.984C2008.34,825.984 2010.46,823.439 2010.46,820.469L2010.46,769.136C2010.46,765.671 2007.98,763.621 2004.94,763.621L1953.61,763.621C1950.14,763.621 1948.1,765.954 1948.1,769.136L1948.1,820.469C1948.1,823.651 1950.57,825.984 1953.61,825.984L2004.94,825.984ZM1970.51,810.712C1973.2,810.641 1976.73,810.57 1978.57,810.57C1981.82,810.57 1985.22,810.641 1987.9,810.641C1989.03,810.641 1991.09,810.57 1991.93,810.57C1993.84,810.57 1995.04,812.904 1995.04,814.247C1995.04,815.166 1994.48,816.156 1993.13,816.156C1992.36,816.156 1990.02,815.944 1987.83,815.803C1985.22,815.661 1981.61,815.661 1978.14,815.661C1974.68,815.661 1972.35,815.661 1969.73,815.944C1968.6,816.085 1967.33,816.298 1966.27,816.298C1964.14,816.298 1962.87,814.035 1962.87,812.621C1962.87,812.267 1962.94,811.702 1963.3,811.277C1963.58,810.853 1963.86,810.5 1964.14,810.217C1969.59,802.015 1978.5,795.368 1979.63,794.52C1985.36,790.277 1988.4,787.308 1988.4,783.843C1988.4,780.803 1986.42,778.54 1980.76,778.54C1975.53,778.54 1972.56,780.378 1970.79,784.055C1970.37,784.974 1969.73,785.894 1968.39,785.894C1966.83,785.894 1965.42,784.197 1965.42,782.57C1965.42,780.944 1969.73,773.378 1980.9,773.378C1989.18,773.378 1994.12,777.338 1994.12,783.843C1994.12,789.57 1989.81,794.025 1983.45,798.621C1977.93,802.651 1973.62,806.681 1970.51,810.712Z" style="fill-rule:nonzero;"/>
        </g>
    </g>
</svg>
