<?xml version="1.0" encoding="UTF-8" standalone="no"?>
<!DOCTYPE svg PUBLIC "-//W3C//DTD SVG 1.1//EN" "http://www.w3.org/Graphics/SVG/1.1/DTD/svg11.dtd">
<svg width="100%" height="100%" viewBox="0 0 96 96" version="1.1" xmlns="http://www.w3.org/2000/svg" xmlns:xlink="http://www.w3.org/1999/xlink" xml:space="preserve" xmlns:serif="http://www.serif.com/" style="fill-rule:evenodd;clip-rule:evenodd;stroke-linejoin:round;stroke-miterlimit:2;">
    <g transform="matrix(1,0,0,1,-1209.63,-3473.28)">
        <g transform="matrix(1,0,0,1,-110.019,-3591.86)">
            <path d="M1415.25,7112.94C1415.25,7086.55 1393.85,7065.15 1367.45,7065.15C1341.05,7065.15 1319.65,7086.55 1319.65,7112.94C1319.65,7139.35 1341.05,7160.65 1367.45,7160.65C1393.85,7160.65 1415.25,7139.35 1415.25,7112.94ZM1373.25,7142.35C1370.85,7142.35 1369.35,7139.35 1369.35,7137.44C1369.35,7136.85 1369.45,7136.05 1369.95,7135.35C1370.55,7134.44 1370.95,7133.94 1371.35,7133.24C1374.15,7127.44 1379.25,7118.85 1385.45,7112.44C1391.45,7106.35 1394.75,7101.85 1394.75,7097.35C1394.75,7093.24 1392.05,7089.85 1387.45,7089.85C1382.45,7089.85 1379.05,7093.05 1377.55,7097.24C1377.25,7098.35 1376.35,7100.15 1374.55,7100.15C1372.35,7100.15 1370.55,7096.94 1370.55,7095.44C1370.55,7092.94 1375.65,7082.74 1387.65,7082.74C1396.25,7082.74 1401.95,7088.85 1401.95,7097.35C1401.95,7105.35 1396.75,7111.35 1390.05,7117.94C1384.75,7123.15 1380.85,7129.65 1378.35,7134.65C1380.65,7134.55 1383.45,7134.44 1385.45,7134.44C1389.05,7134.44 1391.35,7134.55 1394.35,7134.55C1395.55,7134.55 1397.95,7134.44 1398.85,7134.44C1401.35,7134.44 1402.55,7137.94 1402.55,7139.44C1402.55,7140.55 1401.85,7141.94 1400.25,7141.94C1394.25,7141.35 1385.45,7141.35 1384.75,7141.35C1382.25,7141.35 1379.85,7141.35 1376.95,7141.74C1376.25,7141.74 1374.25,7142.24 1373.75,7142.35L1373.25,7142.35ZM1339.65,7137.74C1339.75,7137.65 1339.75,7137.65 1339.75,7137.44C1340.55,7135.15 1341.25,7132.94 1341.65,7131.55C1345.65,7119.05 1350.95,7104.74 1356.55,7091.24L1339.65,7092.74C1338.85,7092.85 1338.05,7092.94 1337.45,7092.94C1334.35,7092.94 1332.35,7089.15 1332.35,7087.44C1332.35,7086.85 1332.65,7085.55 1334.15,7085.55C1334.95,7085.55 1335.75,7085.65 1336.95,7085.65L1337.85,7085.65L1357.85,7084.15C1358.35,7084.15 1358.85,7083.94 1359.25,7083.85C1359.85,7083.65 1360.45,7083.55 1361.05,7083.55L1361.35,7083.55C1363.05,7083.85 1365.65,7086.05 1365.65,7088.35L1365.65,7088.74C1365.45,7089.85 1364.95,7090.74 1364.65,7091.35C1361.55,7095.94 1349.55,7128.55 1346.95,7140.44C1346.55,7142.44 1344.85,7142.85 1343.55,7142.85C1343.25,7142.85 1342.85,7142.74 1342.45,7142.74C1340.35,7142.44 1339.25,7141.35 1339.25,7139.74C1339.25,7139.15 1339.45,7138.55 1339.55,7138.24L1339.65,7137.74Z" style="fill-rule:nonzero;"/>
        </g>
    </g>
</svg>
