<?xml version="1.0" encoding="UTF-8" standalone="no"?>
<!DOCTYPE svg PUBLIC "-//W3C//DTD SVG 1.1//EN" "http://www.w3.org/Graphics/SVG/1.1/DTD/svg11.dtd">
<svg width="100%" height="100%" viewBox="0 0 89 89" version="1.1" xmlns="http://www.w3.org/2000/svg" xmlns:xlink="http://www.w3.org/1999/xlink" xml:space="preserve" xmlns:serif="http://www.serif.com/" style="fill-rule:evenodd;clip-rule:evenodd;stroke-linejoin:round;stroke-miterlimit:2;">
    <g transform="matrix(1,0,0,1,-758.718,-421.632)">
        <g transform="matrix(1.41414,0,0,1.41429,-177.055,-770.755)">
            <path d="M724.089,905.465L724.089,843.102L661.726,843.102L661.726,905.465L724.089,905.465ZM674.877,856.112C676.503,854.203 678.554,852.93 681.029,852.93C688.241,852.93 691.564,862.546 691.564,873.93C691.564,885.526 688.099,896.698 679.897,896.698C672.049,896.698 668.796,886.94 668.796,875.415C668.796,865.445 671.837,856.041 674.382,856.041C674.524,856.041 674.736,856.041 674.877,856.112ZM702.594,870.112C704.079,869.263 705.776,868.769 707.615,868.769C714.12,868.769 718.574,874.354 718.574,881.849C718.574,890.051 714.12,896.556 706.766,896.556C700.049,896.556 694.958,890.688 694.958,883.405C694.958,878.385 696.231,873.364 698.564,867.991C700.827,862.829 702.948,858.587 704.998,855.051C705.211,854.839 705.564,854.274 705.705,853.991C706.2,853.072 707.049,852.789 707.756,852.789C707.897,852.789 710.726,852.859 710.726,855.122C710.726,855.758 710.301,856.607 710.019,857.031C706.837,861.274 704.503,866.152 702.594,870.112ZM679.685,891.536C684.423,891.536 686.756,883.546 686.756,873.506C686.756,866.223 685.554,857.95 680.887,857.95C678.2,857.95 673.534,863.041 673.534,875.344C673.534,885.031 675.443,891.536 679.685,891.536ZM706.766,891.536C710.726,891.536 713.837,887.718 713.837,881.991C713.837,877.536 711.362,873.789 707.544,873.789C702.736,873.789 699.625,878.173 699.625,883.334C699.625,888.001 702.524,891.536 706.766,891.536Z" style="fill-rule:nonzero;"/>
        </g>
    </g>
</svg>
