<?xml version="1.0" encoding="UTF-8" standalone="no"?>
<!DOCTYPE svg PUBLIC "-//W3C//DTD SVG 1.1//EN" "http://www.w3.org/Graphics/SVG/1.1/DTD/svg11.dtd">
<svg width="100%" height="100%" viewBox="0 0 89 89" version="1.1" xmlns="http://www.w3.org/2000/svg" xmlns:xlink="http://www.w3.org/1999/xlink" xml:space="preserve" xmlns:serif="http://www.serif.com/" style="fill-rule:evenodd;clip-rule:evenodd;stroke-linejoin:round;stroke-miterlimit:2;">
    <g transform="matrix(1,0,0,1,-2302.43,-1742.27)">
        <g transform="matrix(1.41414,0,0,1.41429,-1052.39,-837.704)">
            <path d="M2429.19,1886.59C2432.58,1886.59 2434.7,1884.05 2434.7,1881.08L2434.7,1829.74C2434.7,1826.28 2432.23,1824.23 2429.19,1824.23L2377.85,1824.23C2374.39,1824.23 2372.34,1826.56 2372.34,1829.74L2372.34,1881.08C2372.34,1884.26 2374.81,1886.59 2377.85,1886.59L2429.19,1886.59ZM2425.93,1840.07C2426.92,1840.07 2427.7,1840.98 2427.7,1842.19C2427.7,1844.73 2421.62,1850.74 2419.71,1852.23C2425.09,1855.2 2427.91,1859.02 2427.91,1864.81C2427.91,1872.52 2422.75,1877.4 2415.47,1877.4C2408.68,1877.4 2404.51,1872.31 2404.51,1865.59C2404.51,1860.43 2407.05,1856.54 2410.94,1853.15C2407.27,1850.74 2406.07,1848.13 2406.07,1844.31C2406.07,1838.65 2409.95,1833.77 2416.32,1833.77C2420.49,1833.77 2423.46,1836.6 2425.51,1839.85C2425.51,1839.92 2425.58,1840 2425.58,1840.07L2425.93,1840.07ZM2392.14,1869.13C2392.63,1865.8 2393.34,1861.63 2394.04,1857.6C2391.78,1859.93 2388.95,1861.42 2386.12,1861.42C2380.96,1861.42 2377.5,1857.11 2377.5,1850.11C2377.5,1841.97 2382.94,1833.7 2390.3,1833.7C2393.83,1833.7 2396.17,1835.4 2397.51,1837.03C2397.65,1836.32 2398.08,1835.33 2399.21,1835.33C2400.62,1835.33 2402.18,1836.67 2402.18,1838.3L2402.18,1838.65C2401.96,1839.57 2401.61,1840.56 2401.54,1840.84C2398.64,1855.48 2396.38,1871.81 2396.1,1874.92C2395.95,1876.69 2394.19,1877.12 2393.12,1877.12C2391.92,1877.12 2391.08,1876.48 2391.08,1875.14C2391.08,1874.57 2391.29,1874.08 2391.36,1873.51L2392.14,1869.13ZM2396.38,1843.74C2395.88,1843.53 2395.53,1842.96 2395.39,1842.54C2394.75,1841.06 2393.55,1838.79 2390.58,1838.79C2385.35,1838.79 2382.17,1845.02 2382.17,1849.89C2382.17,1854.49 2383.58,1856.19 2386.05,1856.19C2389.94,1856.19 2392.42,1853.43 2394.89,1848.48C2395.39,1847.63 2395.81,1846.01 2396.24,1844.73L2396.38,1843.74ZM2415.47,1855.62C2411.23,1859.09 2409.18,1862.06 2409.18,1865.45C2409.18,1868.84 2411.01,1872.24 2415.47,1872.24C2420.21,1872.24 2423.25,1869.2 2423.25,1865.1C2423.25,1861.56 2421.83,1858.8 2416.18,1855.97L2415.47,1855.62ZM2421.97,1843.46C2421.83,1843.25 2421.69,1843.04 2421.62,1842.82C2420.21,1840.21 2418.79,1838.79 2416.39,1838.79C2412.43,1838.79 2410.66,1841.62 2410.66,1844.31C2410.66,1846.5 2411.44,1847.77 2415.19,1849.82C2417.73,1847.91 2419.99,1845.65 2421.97,1843.46Z" style="fill-rule:nonzero;"/>
        </g>
    </g>
</svg>
