<?xml version="1.0" encoding="UTF-8" standalone="no"?>
<!DOCTYPE svg PUBLIC "-//W3C//DTD SVG 1.1//EN" "http://www.w3.org/Graphics/SVG/1.1/DTD/svg11.dtd">
<svg width="100%" height="100%" viewBox="0 0 89 89" version="1.1" xmlns="http://www.w3.org/2000/svg" xmlns:xlink="http://www.w3.org/1999/xlink" xml:space="preserve" xmlns:serif="http://www.serif.com/" style="fill-rule:evenodd;clip-rule:evenodd;stroke-linejoin:round;stroke-miterlimit:2;">
    <g transform="matrix(1,0,0,1,-2402.42,-1592.27)">
        <g transform="matrix(1.41414,0,0,1.41429,-1052.39,-837.704)">
            <path d="M2499.89,1780.53C2503.29,1780.53 2505.41,1777.98 2505.41,1775.02L2505.41,1723.68C2505.41,1720.22 2502.93,1718.17 2499.89,1718.17L2448.56,1718.17C2445.1,1718.17 2443.04,1720.5 2443.04,1723.68L2443.04,1775.02C2443.04,1778.2 2445.52,1780.53 2448.56,1780.53L2499.89,1780.53ZM2470.69,1734.01C2471.75,1734.01 2472.46,1734.92 2472.46,1736.13C2472.46,1738.88 2465.53,1745.39 2464.54,1746.17C2469.91,1749.14 2472.67,1752.95 2472.67,1758.75C2472.67,1766.46 2467.58,1771.34 2460.23,1771.34C2453.51,1771.34 2449.34,1766.25 2449.34,1759.53C2449.34,1754.37 2451.81,1750.48 2455.7,1747.09C2452.1,1744.68 2450.82,1742.07 2450.82,1738.25C2450.82,1732.59 2454.71,1727.71 2461.08,1727.71C2465.32,1727.71 2468.29,1730.54 2470.27,1733.79C2470.34,1733.86 2470.34,1733.93 2470.34,1734.01L2470.69,1734.01ZM2500.03,1732.59C2499.82,1733.51 2499.47,1734.5 2499.47,1734.78C2497.07,1746.52 2494.59,1762.64 2494.02,1768.86C2493.88,1770.63 2492.12,1771.06 2490.98,1771.06C2489.85,1771.06 2489,1770.42 2489,1769.08C2489,1768.51 2489.14,1768.02 2489.29,1767.45C2490.28,1761.65 2491.62,1753.38 2491.9,1751.54C2489.71,1753.87 2486.81,1755.36 2484.05,1755.36C2478.89,1755.36 2475.43,1751.05 2475.43,1744.05C2475.43,1735.91 2480.8,1727.64 2488.23,1727.64C2491.76,1727.64 2494.02,1729.34 2495.44,1730.96C2495.58,1730.26 2496,1729.27 2497.14,1729.27C2498.55,1729.27 2500.03,1730.61 2500.03,1732.24L2500.03,1732.59ZM2494.31,1737.68C2493.81,1737.47 2493.46,1736.9 2493.25,1736.48C2492.68,1735 2491.41,1732.73 2488.44,1732.73C2483.21,1732.73 2480.02,1738.95 2480.02,1743.83C2480.02,1748.43 2481.51,1750.13 2483.98,1750.13C2490.91,1750.13 2493.74,1740.02 2494.1,1738.67L2494.31,1737.68ZM2460.23,1749.56C2456.05,1753.03 2453.93,1756 2453.93,1759.39C2453.93,1762.78 2455.77,1766.18 2460.23,1766.18C2464.96,1766.18 2468.08,1763.14 2468.08,1759.04C2468.08,1755.5 2466.59,1752.74 2461,1749.91C2460.79,1749.77 2460.51,1749.63 2460.23,1749.56ZM2466.8,1737.4C2466.59,1737.19 2466.52,1736.97 2466.38,1736.76C2465.03,1734.15 2463.55,1732.73 2461.14,1732.73C2457.19,1732.73 2455.49,1735.56 2455.49,1738.25C2455.49,1740.44 2456.2,1741.71 2460.01,1743.76C2462.56,1741.85 2464.75,1739.59 2466.8,1737.4Z" style="fill-rule:nonzero;"/>
        </g>
    </g>
</svg>
