<?xml version="1.0" encoding="UTF-8" standalone="no"?>
<!DOCTYPE svg PUBLIC "-//W3C//DTD SVG 1.1//EN" "http://www.w3.org/Graphics/SVG/1.1/DTD/svg11.dtd">
<svg width="100%" height="100%" viewBox="0 0 96 96" version="1.1" xmlns="http://www.w3.org/2000/svg" xmlns:xlink="http://www.w3.org/1999/xlink" xml:space="preserve" xmlns:serif="http://www.serif.com/" style="fill-rule:evenodd;clip-rule:evenodd;stroke-linejoin:round;stroke-miterlimit:2;">
    <g transform="matrix(1,0,0,1,-409.628,-3023.28)">
        <g transform="matrix(1,0,0,1,-110.019,-3591.86)">
            <path d="M615.248,6662.94C615.248,6636.55 593.848,6615.15 567.448,6615.15C541.048,6615.15 519.648,6636.55 519.648,6662.94C519.648,6689.35 541.048,6710.65 567.448,6710.65C593.848,6710.65 615.248,6689.35 615.248,6662.94ZM593.548,6659.35C598.748,6660.85 602.848,6666.24 602.848,6673.74C602.848,6684.44 597.248,6693.74 583.848,6693.74C578.148,6693.74 573.548,6691.24 569.548,6686.94C568.848,6686.15 568.748,6685.15 568.748,6684.35C568.748,6682.74 569.748,6679.24 572.148,6679.24C572.648,6679.24 573.248,6679.55 573.848,6680.24C576.648,6684.15 579.548,6686.55 583.848,6686.55C592.648,6686.55 595.948,6680.44 595.948,6673.85C595.948,6668.35 592.148,6664.35 586.548,6664.35C584.248,6664.35 581.748,6664.94 581.148,6665.05C580.948,6665.15 580.848,6665.15 580.648,6665.15C578.348,6665.15 577.148,6662.05 577.148,6660.55C577.148,6659.44 577.748,6658.15 579.148,6657.85C584.548,6657.44 593.848,6654.15 593.848,6647.24C593.848,6642.94 591.448,6640.24 586.648,6640.24C582.748,6640.24 579.448,6642.05 576.148,6646.24C575.448,6647.15 574.848,6648.05 573.648,6648.05C572.248,6648.05 570.148,6645.85 570.148,6643.24C570.148,6642.05 570.648,6641.24 571.148,6640.74C575.048,6635.94 580.148,6633.15 586.548,6633.15C594.748,6633.15 600.648,6638.15 600.648,6646.74C600.648,6654.35 595.648,6658.44 593.548,6659.35ZM541.448,6637.74C543.748,6635.05 546.848,6633.24 550.448,6633.24C560.948,6633.24 565.848,6646.55 565.848,6662.35C565.848,6678.44 560.748,6693.94 548.748,6693.94C537.248,6693.94 532.448,6680.44 532.448,6664.44C532.448,6652.55 536.648,6637.55 540.648,6637.55C540.948,6637.55 541.248,6637.65 541.448,6637.74ZM548.548,6686.74C555.348,6686.74 558.848,6675.74 558.848,6661.74C558.848,6651.65 557.048,6640.24 550.148,6640.24C546.348,6640.24 539.448,6647.35 539.448,6664.35C539.448,6677.74 542.248,6686.74 548.548,6686.74Z" style="fill-rule:nonzero;"/>
        </g>
    </g>
</svg>
