<?xml version="1.0" encoding="UTF-8" standalone="no"?>
<!DOCTYPE svg PUBLIC "-//W3C//DTD SVG 1.1//EN" "http://www.w3.org/Graphics/SVG/1.1/DTD/svg11.dtd">
<svg width="100%" height="100%" viewBox="0 0 89 89" version="1.1" xmlns="http://www.w3.org/2000/svg" xmlns:xlink="http://www.w3.org/1999/xlink" xml:space="preserve" xmlns:serif="http://www.serif.com/" style="fill-rule:evenodd;clip-rule:evenodd;stroke-linejoin:round;stroke-miterlimit:2;">
    <g transform="matrix(1,0,0,1,-858.708,-271.632)">
        <g transform="matrix(1.41414,0,0,1.41429,-177.055,-770.755)">
            <path d="M794.796,799.405L794.796,737.041L732.433,737.041L732.433,799.405L794.796,799.405ZM778.604,748.991C778.392,749.981 777.756,750.758 777.12,751.536C777.049,751.748 776.908,751.89 776.837,751.96C771.322,761.647 762.908,779.041 761.281,786.324C760.857,787.738 759.443,787.95 758.453,787.95C758.17,787.95 757.887,787.88 757.463,787.88C755.978,787.667 754.988,786.96 754.988,785.688C754.988,785.051 755.271,784.486 755.483,783.92C756.12,782.647 756.897,780.738 757.322,779.748C761.705,769.496 766.019,759.88 771.392,750.617L754.352,752.031C753.645,752.102 753.009,752.314 752.231,752.314C749.685,752.314 747.988,749.061 747.988,748.284C747.988,747.506 748.625,746.87 749.402,746.87C750.039,746.87 750.746,746.94 751.594,746.94C752.019,746.94 752.443,746.87 752.938,746.87L772.099,745.597L773.514,745.385C773.867,745.243 774.15,745.173 774.574,745.173C776.271,745.173 778.604,746.799 778.604,748.637L778.604,748.991Z" style="fill-rule:nonzero;"/>
        </g>
    </g>
</svg>
