<?xml version="1.0" encoding="UTF-8" standalone="no"?>
<!DOCTYPE svg PUBLIC "-//W3C//DTD SVG 1.1//EN" "http://www.w3.org/Graphics/SVG/1.1/DTD/svg11.dtd">
<svg width="100%" height="100%" viewBox="0 0 89 89" version="1.1" xmlns="http://www.w3.org/2000/svg" xmlns:xlink="http://www.w3.org/1999/xlink" xml:space="preserve" xmlns:serif="http://www.serif.com/" style="fill-rule:evenodd;clip-rule:evenodd;stroke-linejoin:round;stroke-miterlimit:2;">
    <g transform="matrix(1,0,0,1,-858.708,-871.632)">
        <g transform="matrix(1.41414,0,0,1.41429,-177.055,-770.755)">
            <path d="M794.796,1223.65L794.796,1161.28L732.433,1161.28L732.433,1223.65L794.796,1223.65ZM756.544,1189.71C760.221,1190.7 763.261,1194.66 763.261,1200.03C763.261,1207.74 759.16,1214.45 749.544,1214.45C745.443,1214.45 742.19,1212.69 739.291,1209.58C738.726,1208.94 738.655,1208.23 738.655,1207.67C738.655,1206.54 739.433,1203.99 741.13,1203.99C741.483,1203.99 741.908,1204.2 742.332,1204.7C744.382,1207.53 746.433,1209.29 749.544,1209.29C755.908,1209.29 758.241,1204.84 758.241,1200.1C758.241,1196.14 755.554,1193.24 751.453,1193.24C749.897,1193.24 748.2,1193.6 747.564,1193.74C747.423,1193.81 747.423,1193.81 747.281,1193.81C745.584,1193.81 744.736,1191.62 744.736,1190.49C744.736,1189.71 745.16,1188.79 746.15,1188.58C751.029,1188.22 756.756,1185.18 756.756,1180.94C756.756,1177.83 754.988,1175.85 751.524,1175.85C748.766,1175.85 746.433,1177.12 743.958,1180.23C743.463,1180.87 743.039,1181.51 742.19,1181.51C740.918,1181.51 739.716,1179.6 739.716,1178.04C739.716,1177.19 740.069,1176.56 740.423,1176.2C743.251,1172.74 746.857,1170.76 751.453,1170.76C757.392,1170.76 761.635,1174.29 761.635,1180.59C761.635,1186.03 758.029,1189 756.544,1189.71ZM770.615,1210.42L770.615,1210.21C777.261,1190.27 780.301,1182.78 782.776,1176.84L770.544,1177.97C769.978,1178.04 769.413,1178.11 768.918,1178.11C766.514,1178.11 765.312,1175.28 765.312,1174.15C765.312,1173.73 765.524,1172.74 766.584,1172.74C767.221,1172.74 767.716,1172.81 768.564,1172.81L769.271,1172.81L783.695,1171.75C784.049,1171.75 784.402,1171.61 784.685,1171.54C785.11,1171.39 785.604,1171.32 786.029,1171.32L786.241,1171.32C787.443,1171.54 789.281,1173.16 789.281,1174.79L789.281,1175.07C789.211,1175.85 788.857,1176.49 788.574,1176.98C784.473,1185.18 776.978,1206.18 775.847,1212.4C775.564,1213.89 774.291,1214.1 773.372,1214.1C773.16,1214.1 772.877,1214.03 772.594,1214.03C771.11,1213.82 770.261,1213.04 770.261,1211.84C770.261,1211.41 770.402,1210.99 770.473,1210.78L770.615,1210.42Z" style="fill-rule:nonzero;"/>
        </g>
    </g>
</svg>
