<?xml version="1.0" encoding="UTF-8" standalone="no"?>
<!DOCTYPE svg PUBLIC "-//W3C//DTD SVG 1.1//EN" "http://www.w3.org/Graphics/SVG/1.1/DTD/svg11.dtd">
<svg width="100%" height="100%" viewBox="0 0 96 96" version="1.1" xmlns="http://www.w3.org/2000/svg" xmlns:xlink="http://www.w3.org/1999/xlink" xml:space="preserve" xmlns:serif="http://www.serif.com/" style="fill-rule:evenodd;clip-rule:evenodd;stroke-linejoin:round;stroke-miterlimit:2;">
    <g transform="matrix(1,0,0,1,-609.628,-3473.28)">
        <g transform="matrix(1,0,0,1,-110.019,-3591.86)">
            <path d="M815.248,7112.94C815.248,7086.55 793.848,7065.15 767.448,7065.15C741.048,7065.15 719.648,7086.55 719.648,7112.94C719.648,7139.35 741.048,7160.65 767.448,7160.65C793.848,7160.65 815.248,7139.35 815.248,7112.94ZM747.348,7085.24C747.948,7084.05 748.948,7082.65 750.648,7082.65C751.648,7082.65 754.848,7083.15 754.848,7085.94C754.848,7086.85 754.248,7087.94 753.848,7088.55C749.448,7094.44 746.148,7101.15 743.548,7106.74C745.648,7105.44 747.948,7104.85 750.548,7104.85C759.548,7104.85 765.648,7112.55 765.648,7122.94C765.648,7134.24 759.548,7143.35 749.348,7143.35C740.048,7143.35 733.048,7135.15 733.048,7125.15C733.048,7118.15 734.748,7111.24 738.048,7103.74C741.148,7096.55 744.048,7090.65 746.948,7085.85L747.348,7085.24ZM780.648,7106.74C782.748,7105.44 785.048,7104.85 787.648,7104.85C796.648,7104.85 802.748,7112.55 802.748,7122.94C802.748,7134.24 796.648,7143.35 786.448,7143.35C777.148,7143.35 770.148,7135.15 770.148,7125.15C770.148,7121.55 770.248,7109.55 784.048,7085.85C784.348,7085.55 784.948,7084.35 784.948,7084.35C785.648,7083.05 786.848,7082.65 787.748,7082.65C788.348,7082.65 791.948,7083.05 791.948,7085.94C791.948,7086.85 791.348,7087.94 790.948,7088.55C786.648,7094.44 783.248,7101.15 780.648,7106.74ZM749.348,7136.35C754.848,7136.35 759.148,7131.15 759.148,7123.15C759.148,7116.94 755.748,7111.74 750.448,7111.74C743.748,7111.74 739.448,7117.85 739.448,7125.05C739.448,7131.44 743.448,7136.35 749.348,7136.35ZM786.448,7136.35C791.948,7136.35 796.248,7131.15 796.248,7123.15C796.248,7116.94 792.848,7111.74 787.548,7111.74C780.848,7111.74 776.548,7117.85 776.548,7125.05C776.548,7131.44 780.648,7136.35 786.448,7136.35Z" style="fill-rule:nonzero;"/>
        </g>
    </g>
</svg>
