<?xml version="1.0" encoding="UTF-8" standalone="no"?>
<!DOCTYPE svg PUBLIC "-//W3C//DTD SVG 1.1//EN" "http://www.w3.org/Graphics/SVG/1.1/DTD/svg11.dtd">
<svg width="100%" height="100%" viewBox="0 0 96 96" version="1.1" xmlns="http://www.w3.org/2000/svg" xmlns:xlink="http://www.w3.org/1999/xlink" xml:space="preserve" xmlns:serif="http://www.serif.com/" style="fill-rule:evenodd;clip-rule:evenodd;stroke-linejoin:round;stroke-miterlimit:2;">
    <g transform="matrix(1,0,0,1,-709.628,-3773.28)">
        <g transform="matrix(1,0,0,1,-110.019,-3591.86)">
            <path d="M915.248,7412.94C915.248,7386.55 893.848,7365.15 867.448,7365.15C841.048,7365.15 819.648,7386.55 819.648,7412.94C819.648,7439.35 841.048,7460.65 867.448,7460.65C893.848,7460.65 915.248,7439.35 915.248,7412.94ZM885.948,7422.15C885.948,7435.44 875.548,7442.65 863.748,7442.65C855.548,7442.65 850.648,7439.74 847.348,7434.15C847.248,7433.65 847.048,7433.35 847.048,7432.74C847.048,7430.65 849.248,7427.85 851.448,7427.85C852.448,7427.85 853.448,7428.35 853.948,7429.65C855.648,7433.74 858.348,7435.24 863.748,7435.24C871.948,7435.24 878.348,7430.74 878.348,7422.05L878.348,7419.74C873.648,7425.35 868.148,7427.15 862.648,7427.15C852.848,7427.15 846.648,7420.35 846.648,7408.44C846.648,7396.44 856.348,7383.74 868.448,7383.74C872.048,7383.74 875.548,7384.85 878.148,7387.24L878.148,7386.05C878.148,7384.94 879.248,7383.74 881.048,7383.74C883.248,7383.74 886.348,7385.65 886.348,7387.55L886.348,7387.65C886.248,7389.85 885.948,7393.05 885.948,7395.94L885.948,7422.15ZM878.348,7396.05L877.948,7396.05C877.148,7396.05 876.448,7395.65 876.048,7395.05C873.948,7392.15 871.148,7390.94 868.548,7390.94C861.248,7390.94 854.348,7399.94 854.348,7408.44C854.348,7417.05 857.848,7419.94 862.648,7419.94C868.248,7419.94 876.048,7415.35 877.948,7406.94C878.348,7405.74 878.348,7402.05 878.348,7397.55L878.348,7396.05Z" style="fill-rule:nonzero;"/>
        </g>
    </g>
</svg>
