<?xml version="1.0" encoding="UTF-8" standalone="no"?>
<!DOCTYPE svg PUBLIC "-//W3C//DTD SVG 1.1//EN" "http://www.w3.org/Graphics/SVG/1.1/DTD/svg11.dtd">
<svg width="100%" height="100%" viewBox="0 0 89 89" version="1.1" xmlns="http://www.w3.org/2000/svg" xmlns:xlink="http://www.w3.org/1999/xlink" xml:space="preserve" xmlns:serif="http://www.serif.com/" style="fill-rule:evenodd;clip-rule:evenodd;stroke-linejoin:round;stroke-miterlimit:2;">
    <g transform="matrix(1,0,0,1,-2102.45,-842.274)">
        <g transform="matrix(1.41414,0,0,1.41429,-1052.39,-837.704)">
            <path d="M2271.37,1214.59C2272.78,1213.74 2274.48,1213.25 2276.39,1213.25C2282.89,1213.25 2287.28,1218.83 2287.28,1226.33C2287.28,1234.53 2282.89,1241.04 2275.54,1241.04C2268.82,1241.04 2263.73,1235.17 2263.73,1227.88C2263.73,1222.86 2264.93,1217.84 2267.34,1212.47C2269.6,1207.31 2271.72,1203.07 2273.77,1199.53C2273.91,1199.46 2273.98,1199.25 2274.05,1199.11C2274.2,1198.82 2274.34,1198.61 2274.48,1198.47C2274.9,1197.55 2275.75,1197.27 2276.46,1197.27C2276.74,1197.27 2279.5,1197.41 2279.5,1199.6C2279.5,1200.24 2279,1201.09 2278.72,1201.51C2275.61,1205.75 2273.21,1210.63 2271.37,1214.59ZM2275.54,1236.02C2279.5,1236.02 2282.61,1232.2 2282.61,1226.47C2282.61,1222.02 2280.14,1218.27 2276.32,1218.27C2271.51,1218.27 2268.4,1222.65 2268.4,1227.81C2268.4,1232.48 2271.3,1236.02 2275.54,1236.02ZM2254.19,1216.29C2257.72,1217.28 2260.62,1221.24 2260.62,1226.61C2260.62,1234.32 2256.73,1241.04 2247.61,1241.04C2243.72,1241.04 2240.61,1239.27 2237.85,1236.16C2237.36,1235.52 2237.29,1234.81 2237.29,1234.25C2237.29,1233.12 2237.99,1230.57 2239.55,1230.57C2239.97,1230.57 2240.33,1230.78 2240.75,1231.28C2242.73,1234.11 2244.64,1235.87 2247.61,1235.87C2253.62,1235.87 2255.88,1231.42 2255.88,1226.68C2255.88,1222.72 2253.27,1219.82 2249.45,1219.82C2248.11,1219.82 2246.62,1220.11 2245.77,1220.32C2245.56,1220.39 2245.56,1220.39 2245.42,1220.39C2243.79,1220.39 2243.01,1218.2 2243.01,1217.07C2243.01,1216.29 2243.44,1215.37 2244.36,1215.16C2248.18,1214.8 2254.47,1212.4 2254.47,1207.52C2254.47,1204.41 2252.77,1202.43 2249.45,1202.43C2246.83,1202.43 2244.64,1203.7 2242.31,1206.81C2241.81,1207.45 2241.39,1208.09 2240.61,1208.09C2238.84,1208.09 2238.21,1205.05 2238.21,1204.62C2238.21,1203.77 2238.56,1203.14 2238.91,1202.78C2241.6,1199.32 2245.07,1197.34 2249.45,1197.34C2255.03,1197.34 2259.07,1200.87 2259.07,1207.17C2259.07,1212.61 2255.67,1215.58 2254.19,1216.29ZM2287.77,1250.23C2291.17,1250.23 2293.29,1247.68 2293.29,1244.71L2293.29,1193.38C2293.29,1189.91 2290.81,1187.86 2287.77,1187.86L2236.44,1187.86C2232.97,1187.86 2230.92,1190.2 2230.92,1193.38L2230.92,1244.71C2230.92,1247.89 2233.4,1250.23 2236.44,1250.23L2287.77,1250.23Z" style="fill-rule:nonzero;"/>
        </g>
    </g>
</svg>
