<?xml version="1.0" encoding="UTF-8" standalone="no"?>
<!DOCTYPE svg PUBLIC "-//W3C//DTD SVG 1.1//EN" "http://www.w3.org/Graphics/SVG/1.1/DTD/svg11.dtd">
<svg width="100%" height="100%" viewBox="0 0 89 89" version="1.1" xmlns="http://www.w3.org/2000/svg" xmlns:xlink="http://www.w3.org/1999/xlink" xml:space="preserve" xmlns:serif="http://www.serif.com/" style="fill-rule:evenodd;clip-rule:evenodd;stroke-linejoin:round;stroke-miterlimit:2;">
    <g transform="matrix(1,0,0,1,-1902.47,-1742.27)">
        <g transform="matrix(1.41414,0,0,1.41429,-1052.39,-837.704)">
            <path d="M2146.36,1886.59C2149.75,1886.59 2151.87,1884.05 2151.87,1881.08L2151.87,1829.74C2151.87,1826.28 2149.4,1824.23 2146.36,1824.23L2095.02,1824.23C2091.56,1824.23 2089.51,1826.56 2089.51,1829.74L2089.51,1881.08C2089.51,1884.26 2091.98,1886.59 2095.02,1886.59L2146.36,1886.59ZM2112.63,1857.6C2110.44,1859.93 2107.54,1861.42 2104.78,1861.42C2099.55,1861.42 2096.09,1857.11 2096.09,1850.11C2096.09,1841.97 2101.53,1833.7 2108.95,1833.7C2112.42,1833.7 2114.75,1835.4 2116.17,1837.03C2116.31,1836.32 2116.66,1835.33 2117.79,1835.33C2119.28,1835.33 2120.76,1836.67 2120.76,1838.3L2120.76,1838.65C2120.55,1839.57 2120.2,1840.56 2120.12,1840.84C2117.93,1851.73 2114.96,1869.97 2114.75,1874.92C2114.61,1876.69 2112.84,1877.12 2111.71,1877.12C2110.51,1877.12 2109.73,1876.48 2109.73,1875.14C2109.73,1874.36 2110.44,1870.68 2110.79,1869.13L2112.63,1857.6ZM2141.27,1869.62C2141.27,1871.95 2141.48,1874.22 2141.48,1875.56C2141.48,1876.34 2140.84,1877.19 2139.78,1877.19C2138.37,1877.19 2136.53,1875.91 2136.53,1874.5C2136.53,1873.58 2136.6,1870.33 2136.6,1869.48L2136.6,1867.43L2126.7,1867.78C2126.49,1867.78 2125.78,1867.92 2124.58,1868.28L2124.72,1868.21L2124.58,1868.21C2123.1,1868.21 2121.54,1866.44 2121.54,1864.53C2121.54,1863.26 2122.39,1862.06 2122.95,1861.35C2123.38,1860.78 2132.92,1841.69 2134.9,1834.9C2135.19,1833.98 2135.89,1833.84 2136.25,1833.84C2137.59,1833.84 2139.36,1836.11 2139.36,1837.8C2139.36,1838.23 2139.22,1838.65 2139,1839.01C2138.51,1839.85 2137.8,1841.13 2137.45,1842.05C2134.9,1847.84 2130.94,1856.12 2127.62,1862.69L2136.6,1862.48L2136.6,1851.59C2136.6,1850.46 2136.53,1846.78 2136.53,1845.44C2136.53,1844.66 2137.17,1843.81 2138.23,1843.81C2139.57,1843.81 2141.41,1845.02 2141.41,1846.5C2141.41,1847.42 2141.27,1850.18 2141.27,1851.59L2141.27,1862.27C2142.12,1862.2 2143.46,1861.91 2144.02,1861.91C2145.72,1861.91 2146.5,1864.53 2146.5,1865.59C2146.5,1866.09 2146.29,1867.43 2145.09,1867.43C2144.45,1867.43 2142.61,1867.29 2141.27,1867.29L2141.27,1869.62ZM2115.03,1843.74C2114.47,1843.53 2114.19,1842.96 2113.97,1842.54C2113.41,1841.06 2112.14,1838.79 2109.17,1838.79C2103.93,1838.79 2100.75,1845.02 2100.75,1849.89C2100.75,1854.49 2102.17,1856.19 2104.71,1856.19C2111.64,1856.19 2114.47,1846.08 2114.82,1844.73L2115.03,1843.74Z" style="fill-rule:nonzero;"/>
        </g>
    </g>
</svg>
