<?xml version="1.0" encoding="UTF-8" standalone="no"?>
<!DOCTYPE svg PUBLIC "-//W3C//DTD SVG 1.1//EN" "http://www.w3.org/Graphics/SVG/1.1/DTD/svg11.dtd">
<svg width="100%" height="100%" viewBox="0 0 89 89" version="1.1" xmlns="http://www.w3.org/2000/svg" xmlns:xlink="http://www.w3.org/1999/xlink" xml:space="preserve" xmlns:serif="http://www.serif.com/" style="fill-rule:evenodd;clip-rule:evenodd;stroke-linejoin:round;stroke-miterlimit:2;">
    <g transform="matrix(1,0,0,1,-258.769,-421.632)">
        <g transform="matrix(1.41414,0,0,1.41429,-177.055,-770.755)">
            <path d="M370.554,905.465L370.554,843.102L308.19,843.102L308.19,905.465L370.554,905.465ZM322.756,856.112C324.524,854.203 326.857,852.93 329.615,852.93C337.604,852.93 341.281,862.546 341.281,873.93C341.281,885.526 337.463,896.698 328.342,896.698C319.645,896.698 315.968,886.94 315.968,875.415C315.968,867.001 319.009,856.041 322.19,856.041C322.402,856.041 322.615,856.041 322.756,856.112ZM328.13,891.536C333.362,891.536 335.978,883.546 335.978,873.506C335.978,866.223 334.635,857.95 329.402,857.95C326.503,857.95 321.271,863.041 321.271,875.344C321.271,885.031 323.392,891.536 328.13,891.536ZM359.736,894.789C359.736,895.779 358.887,896.344 357.756,896.344C356.059,896.344 354.009,895.072 354.009,893.728C354.009,892.809 354.15,889.91 354.15,888.708L354.15,861.203C351.534,862.476 348.776,863.041 348.705,863.041C347.15,863.041 345.382,861.698 345.382,860.708C345.382,859.789 346.089,859.364 346.655,859.152C349.413,858.092 351.958,856.607 353.655,855.334L353.938,854.981L354.645,854.344C355.281,853.637 356.13,853.142 356.766,853.142C358.11,853.142 359.948,854.627 359.948,856.324C359.948,857.243 359.594,858.233 359.594,859.859L359.594,888.354C359.594,889.91 359.665,893.233 359.736,894.647L359.736,894.789Z" style="fill-rule:nonzero;"/>
        </g>
    </g>
</svg>
