<?xml version="1.0" encoding="UTF-8" standalone="no"?>
<!DOCTYPE svg PUBLIC "-//W3C//DTD SVG 1.1//EN" "http://www.w3.org/Graphics/SVG/1.1/DTD/svg11.dtd">
<svg width="100%" height="100%" viewBox="0 0 89 89" version="1.1" xmlns="http://www.w3.org/2000/svg" xmlns:xlink="http://www.w3.org/1999/xlink" xml:space="preserve" xmlns:serif="http://www.serif.com/" style="fill-rule:evenodd;clip-rule:evenodd;stroke-linejoin:round;stroke-miterlimit:2;">
    <g transform="matrix(1,0,0,1,-2302.43,-1442.27)">
        <g transform="matrix(1.41414,0,0,1.41429,-1052.39,-837.704)">
            <path d="M2382.8,1661.25L2382.8,1661.04C2389.45,1641.1 2392.49,1633.6 2394.96,1627.66L2382.73,1628.79C2382.17,1628.86 2381.6,1628.93 2381.11,1628.93C2378.7,1628.93 2377.5,1626.11 2377.5,1624.97C2377.5,1624.55 2377.71,1623.56 2378.77,1623.56C2379.41,1623.56 2379.9,1623.63 2380.75,1623.63L2381.46,1623.63L2395.88,1622.57C2396.24,1622.57 2396.59,1622.43 2396.87,1622.36C2397.3,1622.22 2397.79,1622.15 2398.22,1622.15L2398.43,1622.15C2399.63,1622.36 2401.47,1623.98 2401.47,1625.61L2401.47,1625.89C2401.4,1626.67 2401.04,1627.31 2400.76,1627.8C2396.66,1636.01 2389.17,1657.01 2388.03,1663.23C2387.75,1664.71 2386.48,1664.92 2385.56,1664.92C2385.35,1664.92 2385.07,1664.85 2384.78,1664.85C2383.3,1664.64 2382.45,1663.86 2382.45,1662.66C2382.45,1662.24 2382.59,1661.81 2382.66,1661.6L2382.8,1661.25ZM2426.57,1627.94C2427.63,1627.94 2428.41,1628.86 2428.41,1630.07C2428.41,1632.89 2421.2,1639.19 2420.07,1640.11C2425.72,1643.08 2428.69,1646.89 2428.69,1652.69C2428.69,1660.4 2423.25,1665.28 2415.54,1665.28C2408.47,1665.28 2404.01,1660.19 2404.01,1653.47C2404.01,1648.31 2406.7,1644.42 2410.8,1641.03C2406.98,1638.62 2405.64,1636.01 2405.64,1632.19C2405.64,1626.53 2409.74,1621.65 2416.46,1621.65C2420.84,1621.65 2424.02,1624.48 2426.14,1627.73C2426.14,1627.8 2426.14,1627.87 2426.22,1627.94L2426.57,1627.94ZM2421.97,1630.7C2420.56,1628.09 2419,1626.67 2416.53,1626.67C2412.36,1626.67 2410.52,1629.5 2410.52,1632.19C2410.52,1634.38 2411.3,1635.65 2415.26,1637.7C2417.94,1635.79 2420.28,1633.53 2422.4,1631.34L2421.97,1630.7ZM2415.54,1643.5C2411.16,1646.96 2408.96,1649.93 2408.96,1653.33C2408.96,1656.72 2410.87,1660.12 2415.54,1660.12C2420.56,1660.12 2423.74,1657.08 2423.74,1652.97C2423.74,1649.44 2422.26,1646.68 2416.32,1643.85C2416.11,1643.71 2415.82,1643.57 2415.54,1643.5ZM2429.19,1674.47C2432.58,1674.47 2434.7,1671.92 2434.7,1668.95L2434.7,1617.62C2434.7,1614.16 2432.23,1612.11 2429.19,1612.11L2377.85,1612.11C2374.39,1612.11 2372.34,1614.44 2372.34,1617.62L2372.34,1668.95C2372.34,1672.14 2374.81,1674.47 2377.85,1674.47L2429.19,1674.47Z" style="fill-rule:nonzero;"/>
        </g>
    </g>
</svg>
