<?xml version="1.0" encoding="UTF-8" standalone="no"?>
<!DOCTYPE svg PUBLIC "-//W3C//DTD SVG 1.1//EN" "http://www.w3.org/Graphics/SVG/1.1/DTD/svg11.dtd">
<svg width="100%" height="100%" viewBox="0 0 89 89" version="1.1" xmlns="http://www.w3.org/2000/svg" xmlns:xlink="http://www.w3.org/1999/xlink" xml:space="preserve" xmlns:serif="http://www.serif.com/" style="fill-rule:evenodd;clip-rule:evenodd;stroke-linejoin:round;stroke-miterlimit:2;">
    <g transform="matrix(1,0,0,1,-2002.46,-1592.27)">
        <g transform="matrix(1.41414,0,0,1.41429,-1052.39,-837.704)">
            <path d="M2217.07,1780.53C2220.46,1780.53 2222.58,1777.98 2222.58,1775.02L2222.58,1723.68C2222.58,1720.22 2220.11,1718.17 2217.07,1718.17L2165.73,1718.17C2162.27,1718.17 2160.22,1720.5 2160.22,1723.68L2160.22,1775.02C2160.22,1778.2 2162.69,1780.53 2165.73,1780.53L2217.07,1780.53ZM2188.64,1734.01C2189.7,1734.01 2190.48,1734.92 2190.48,1736.13C2190.48,1739.17 2182.14,1746.1 2182.07,1746.17C2187.72,1749.14 2190.76,1752.95 2190.76,1758.75C2190.76,1766.46 2185.32,1771.34 2177.61,1771.34C2170.54,1771.34 2166.09,1766.25 2166.09,1759.53C2166.09,1754.37 2168.7,1750.48 2172.87,1747.09C2169.05,1744.68 2167.71,1742.07 2167.71,1738.25C2167.71,1732.59 2171.81,1727.71 2178.53,1727.71C2182.91,1727.71 2186.02,1730.54 2188.14,1733.79L2188.29,1734.01L2188.64,1734.01ZM2198.61,1752.53C2198.33,1752.88 2198.04,1752.95 2197.62,1752.95C2196.35,1752.95 2194.72,1751.47 2194.72,1749.42C2194.72,1749.21 2194.72,1748.85 2194.79,1748.5C2195,1747.79 2195.08,1747.09 2195.22,1746.59L2196.42,1732.73C2196.49,1732.03 2196.49,1731.11 2196.49,1730.4C2196.49,1729.06 2197.48,1728.7 2198.12,1728.7C2198.75,1728.7 2199.46,1728.98 2200.17,1729.34L2209.08,1728.7C2209.99,1728.63 2211.27,1728.56 2212.19,1728.35L2212.4,1728.35C2213.88,1728.35 2214.73,1730.82 2214.73,1731.81C2214.73,1732.59 2214.31,1733.58 2213.32,1733.65L2209.57,1733.86L2200.73,1734.5L2199.74,1745.11C2201.51,1743.83 2203.49,1743.13 2206.11,1743.13C2211.83,1743.13 2216.64,1748.15 2216.64,1756.49C2216.64,1764.2 2212.96,1771.34 2203.98,1771.34C2198.61,1771.34 2193.45,1766.53 2193.45,1763.84C2193.45,1762.5 2194.3,1759.95 2195.78,1759.95C2196.42,1759.95 2196.84,1760.38 2197.05,1760.87C2198.75,1763.84 2200.8,1766.11 2203.98,1766.11C2209.71,1766.11 2211.97,1761.65 2211.97,1756.56C2211.97,1751.19 2209.5,1748.22 2205.68,1748.22C2203.42,1748.22 2201.51,1749.35 2200.02,1751.05L2198.61,1752.53ZM2177.61,1749.56C2173.16,1753.03 2171.03,1756 2171.03,1759.39C2171.03,1762.78 2172.94,1766.18 2177.61,1766.18C2182.56,1766.18 2185.81,1763.14 2185.81,1759.04C2185.81,1755.5 2184.33,1752.74 2178.39,1749.91C2178.18,1749.77 2177.89,1749.63 2177.61,1749.56ZM2184.04,1736.76C2182.63,1734.15 2181.07,1732.73 2178.6,1732.73C2174.43,1732.73 2172.59,1735.56 2172.59,1738.25C2172.59,1740.44 2173.37,1741.71 2177.33,1743.76C2180.01,1741.85 2182.35,1739.59 2184.47,1737.4L2184.04,1736.76Z" style="fill-rule:nonzero;"/>
        </g>
    </g>
</svg>
