<?xml version="1.0" encoding="UTF-8" standalone="no"?>
<!DOCTYPE svg PUBLIC "-//W3C//DTD SVG 1.1//EN" "http://www.w3.org/Graphics/SVG/1.1/DTD/svg11.dtd">
<svg width="100%" height="100%" viewBox="0 0 89 89" version="1.1" xmlns="http://www.w3.org/2000/svg" xmlns:xlink="http://www.w3.org/1999/xlink" xml:space="preserve" xmlns:serif="http://www.serif.com/" style="fill-rule:evenodd;clip-rule:evenodd;stroke-linejoin:round;stroke-miterlimit:2;">
    <g transform="matrix(1,0,0,1,-1058.69,-1771.63)">
        <g transform="matrix(1.41414,0,0,1.41429,-177.055,-770.755)">
            <path d="M936.211,1860.01L936.211,1797.65L873.847,1797.65L873.847,1860.01L936.211,1860.01ZM893.786,1842.55C894.281,1839.22 894.988,1835.05 895.695,1831.02C893.433,1833.35 890.604,1834.84 887.776,1834.84C882.615,1834.84 879.15,1830.53 879.15,1823.53C879.15,1815.39 884.594,1807.12 891.948,1807.12C895.483,1807.12 897.817,1808.82 899.16,1810.44C899.301,1809.74 899.726,1808.75 900.857,1808.75C902.271,1808.75 903.827,1810.09 903.827,1811.72L903.827,1812.07C903.615,1812.99 903.261,1813.98 903.19,1814.26C900.291,1828.9 898.029,1845.23 897.746,1848.34C897.604,1850.11 895.837,1850.54 894.776,1850.54C893.574,1850.54 892.726,1849.9 892.726,1848.56C892.726,1847.99 892.938,1847.5 893.009,1846.93L893.786,1842.55ZM920.726,1842.55C921.291,1839.22 921.928,1835.05 922.635,1831.02C920.372,1833.35 917.544,1834.84 914.786,1834.84C909.554,1834.84 906.089,1830.53 906.089,1823.53C906.089,1815.39 911.534,1807.12 918.958,1807.12C922.423,1807.12 924.756,1808.82 926.17,1810.44C926.312,1809.74 926.665,1808.75 927.796,1808.75C929.211,1808.75 930.766,1810.09 930.766,1811.72L930.766,1812.07C930.554,1812.99 930.2,1813.98 930.13,1814.26C929.564,1817.23 925.039,1841.49 924.756,1848.34C924.615,1850.11 922.847,1850.54 921.716,1850.54C920.514,1850.54 919.736,1849.9 919.736,1848.56C919.736,1847.99 919.877,1847.5 919.948,1846.93L920.726,1842.55ZM925.039,1817.16C924.473,1816.95 924.19,1816.38 923.978,1815.96C923.342,1814.48 922.14,1812.21 919.17,1812.21C913.938,1812.21 910.756,1818.43 910.756,1823.31C910.756,1827.91 912.17,1829.61 914.716,1829.61C921.645,1829.61 924.473,1819.5 924.827,1818.15L925.039,1817.16ZM898.029,1817.16C897.534,1816.95 897.18,1816.38 897.039,1815.96C896.402,1814.48 895.2,1812.21 892.231,1812.21C886.998,1812.21 883.817,1818.43 883.817,1823.31C883.817,1827.91 885.231,1829.61 887.705,1829.61C891.594,1829.61 894.069,1826.85 896.544,1821.9C897.039,1821.05 897.463,1819.42 897.887,1818.15L898.029,1817.16Z" style="fill-rule:nonzero;"/>
        </g>
    </g>
</svg>
