<?xml version="1.0" encoding="UTF-8" standalone="no"?>
<!DOCTYPE svg PUBLIC "-//W3C//DTD SVG 1.1//EN" "http://www.w3.org/Graphics/SVG/1.1/DTD/svg11.dtd">
<svg width="100%" height="100%" viewBox="0 0 96 96" version="1.1" xmlns="http://www.w3.org/2000/svg" xmlns:xlink="http://www.w3.org/1999/xlink" xml:space="preserve" xmlns:serif="http://www.serif.com/" style="fill-rule:evenodd;clip-rule:evenodd;stroke-linejoin:round;stroke-miterlimit:2;">
    <g transform="matrix(1,0,0,1,-1009.63,-3623.28)">
        <g transform="matrix(1,0,0,1,-110.019,-3591.86)">
            <path d="M1215.25,7262.94C1215.25,7236.55 1193.85,7215.15 1167.45,7215.15C1141.05,7215.15 1119.65,7236.55 1119.65,7262.94C1119.65,7289.35 1141.05,7310.65 1167.45,7310.65C1193.85,7310.65 1215.25,7289.35 1215.25,7262.94ZM1178.45,7237.15C1180.55,7234.44 1183.35,7232.65 1186.75,7232.65C1196.35,7232.65 1200.85,7245.94 1200.85,7261.74C1200.85,7277.85 1196.15,7293.35 1185.15,7293.35C1174.65,7293.35 1170.25,7279.85 1170.25,7263.85C1170.25,7250.05 1174.35,7236.94 1177.65,7236.94C1177.95,7236.94 1178.25,7237.05 1178.45,7237.15ZM1165.95,7239.65C1163.25,7250.44 1158.25,7281.65 1157.55,7289.94C1157.45,7292.35 1154.95,7292.94 1153.45,7292.94C1151.75,7292.94 1150.65,7292.05 1150.65,7290.15C1150.65,7289.35 1150.85,7288.74 1151.05,7287.94C1151.35,7285.65 1151.85,7283.24 1152.05,7281.85C1152.85,7277.24 1153.75,7271.44 1154.65,7265.85C1151.65,7269.15 1147.65,7271.15 1143.75,7271.15C1136.65,7271.15 1131.75,7265.15 1131.75,7255.55C1131.75,7244.24 1139.35,7232.74 1149.55,7232.74C1154.45,7232.74 1157.65,7235.05 1159.55,7237.44C1159.75,7236.44 1160.35,7235.05 1161.85,7235.05C1163.85,7235.05 1165.95,7236.94 1165.95,7239.15L1165.95,7239.65ZM1184.85,7286.15C1191.25,7286.15 1194.45,7275.05 1194.45,7261.15C1194.45,7249.65 1191.85,7239.65 1186.45,7239.65C1182.85,7239.65 1176.55,7246.74 1176.55,7263.74C1176.55,7277.15 1179.15,7286.15 1184.85,7286.15ZM1158.05,7246.65C1157.25,7246.35 1156.85,7245.65 1156.55,7244.94C1155.75,7242.94 1154.05,7239.85 1149.85,7239.85C1142.65,7239.85 1138.25,7248.44 1138.25,7255.24C1138.25,7261.55 1140.25,7263.94 1143.65,7263.94C1153.35,7263.94 1157.35,7249.55 1157.75,7248.05L1158.05,7246.65Z" style="fill-rule:nonzero;"/>
        </g>
    </g>
</svg>
