<?xml version="1.0" encoding="UTF-8" standalone="no"?>
<!DOCTYPE svg PUBLIC "-//W3C//DTD SVG 1.1//EN" "http://www.w3.org/Graphics/SVG/1.1/DTD/svg11.dtd">
<svg width="100%" height="100%" viewBox="0 0 96 96" version="1.1" xmlns="http://www.w3.org/2000/svg" xmlns:xlink="http://www.w3.org/1999/xlink" xml:space="preserve" xmlns:serif="http://www.serif.com/" style="fill-rule:evenodd;clip-rule:evenodd;stroke-linejoin:round;stroke-miterlimit:2;">
    <g transform="matrix(1,0,0,1,-1909.63,-3773.28)">
        <g transform="matrix(1,0,0,1,-110.019,-3591.86)">
            <path d="M2115.25,7412.94C2115.25,7386.55 2093.85,7365.15 2067.45,7365.15C2041.05,7365.15 2019.65,7386.55 2019.65,7412.94C2019.65,7439.35 2041.05,7460.65 2067.45,7460.65C2093.85,7460.65 2115.25,7439.35 2115.25,7412.94ZM2071.95,7408.55C2079.35,7410.44 2084.75,7414.05 2084.75,7421.94C2084.75,7429.85 2077.55,7435.74 2067.15,7435.74C2060.15,7435.74 2052.75,7433.55 2048.95,7426.94C2048.75,7426.35 2048.65,7425.94 2048.65,7425.44C2048.65,7423.44 2050.75,7420.44 2052.95,7420.44C2054.15,7420.44 2054.75,7421.15 2055.15,7421.94C2057.15,7426.74 2059.75,7428.44 2067.15,7428.44C2073.75,7428.44 2077.15,7424.94 2077.15,7422.15C2077.15,7419.05 2075.75,7416.85 2069.75,7415.44L2061.25,7413.44C2054.65,7411.85 2050.75,7408.74 2050.75,7402.65C2050.75,7394.85 2058.95,7390.24 2067.65,7390.24C2074.35,7390.24 2079.65,7392.74 2082.25,7396.05C2082.65,7396.55 2082.85,7397.15 2082.85,7397.85C2082.85,7399.74 2081.55,7402.55 2078.95,7402.55C2078.15,7402.55 2077.35,7402.05 2076.55,7400.85C2075.75,7399.55 2073.25,7397.24 2067.65,7397.24C2061.15,7397.24 2058.25,7400.05 2058.25,7402.74C2058.25,7404.05 2059.05,7405.44 2063.75,7406.55L2071.95,7408.55Z" style="fill-rule:nonzero;"/>
        </g>
    </g>
</svg>
