<?xml version="1.0" encoding="UTF-8" standalone="no"?>
<!DOCTYPE svg PUBLIC "-//W3C//DTD SVG 1.1//EN" "http://www.w3.org/Graphics/SVG/1.1/DTD/svg11.dtd">
<svg width="100%" height="100%" viewBox="0 0 89 89" version="1.1" xmlns="http://www.w3.org/2000/svg" xmlns:xlink="http://www.w3.org/1999/xlink" xml:space="preserve" xmlns:serif="http://www.serif.com/" style="fill-rule:evenodd;clip-rule:evenodd;stroke-linejoin:round;stroke-miterlimit:2;">
    <g transform="matrix(1,0,0,1,-1702.49,-542.274)">
        <g transform="matrix(1.41414,0,0,1.41429,-1052.39,-837.704)">
            <path d="M2004.94,1038.11C2008.34,1038.11 2010.46,1035.56 2010.46,1032.59L2010.46,981.257C2010.46,977.793 2007.98,975.742 2004.94,975.742L1953.61,975.742C1950.14,975.742 1948.1,978.075 1948.1,981.257L1948.1,1032.59C1948.1,1035.77 1950.57,1038.11 1953.61,1038.11L2004.94,1038.11ZM1999.99,1022.48C2001.83,1022.48 2002.89,1024.95 2002.89,1026.09C2002.89,1026.93 2002.4,1028 2001.05,1028C2000.35,1028 1998.37,1027.71 1996.39,1027.64C1996.18,1027.64 1994.05,1027.57 1985.22,1027.57C1983.52,1027.57 1982.11,1027.57 1980.62,1027.78C1980.55,1027.78 1979.91,1027.78 1978,1028.21L1977.58,1028.21C1975.6,1028.21 1974.4,1026.02 1974.4,1024.53C1974.4,1024.11 1974.54,1023.61 1974.75,1023.19L1975.53,1022.13C1975.81,1021.91 1975.88,1021.7 1976.02,1021.56C1978.22,1017.6 1983.02,1011.73 1989.03,1006.64C1993.91,1002.47 1996.39,998.934 1996.39,995.681C1996.39,992.853 1994.41,990.449 1990.24,990.449C1986.21,990.449 1983.17,992.924 1982.03,995.823C1981.61,997.025 1980.69,997.873 1979.77,997.873C1979.28,997.873 1978.85,997.732 1978.36,997.378C1977.3,996.459 1976.73,995.469 1976.73,994.338C1976.73,992.429 1980.83,985.217 1990.38,985.217C1997.38,985.217 2002.04,989.389 2002.04,995.681C2002.04,1001.06 1998.3,1005.79 1992.85,1010.46C1988.04,1014.63 1984.15,1018.73 1981.61,1022.62C1983.94,1022.48 1986.84,1022.48 1988.4,1022.48L1999.99,1022.48ZM1967.4,1027.15C1967.4,1028.14 1966.55,1028.7 1965.42,1028.7C1963.72,1028.7 1961.67,1027.43 1961.67,1026.09C1961.67,1025.17 1961.81,1022.27 1961.81,1021.07L1961.81,993.56C1959.2,994.833 1956.44,995.399 1956.37,995.399C1954.81,995.399 1953.04,994.055 1953.04,993.065C1953.04,992.146 1953.75,991.722 1954.32,991.51C1957.08,990.449 1959.62,988.964 1961.32,987.692L1961.6,987.338L1962.31,986.702C1962.94,985.995 1963.79,985.5 1964.43,985.5C1965.77,985.5 1967.61,986.984 1967.61,988.681C1967.61,989.601 1967.26,990.591 1967.26,992.217L1967.26,1020.71C1967.26,1022.27 1967.33,1025.59 1967.4,1027.01L1967.4,1027.15Z" style="fill-rule:nonzero;"/>
        </g>
    </g>
</svg>
