<?xml version="1.0" encoding="UTF-8" standalone="no"?>
<!DOCTYPE svg PUBLIC "-//W3C//DTD SVG 1.1//EN" "http://www.w3.org/Graphics/SVG/1.1/DTD/svg11.dtd">
<svg width="100%" height="100%" viewBox="0 0 96 96" version="1.1" xmlns="http://www.w3.org/2000/svg" xmlns:xlink="http://www.w3.org/1999/xlink" xml:space="preserve" xmlns:serif="http://www.serif.com/" style="fill-rule:evenodd;clip-rule:evenodd;stroke-linejoin:round;stroke-miterlimit:2;">
    <g transform="matrix(1,0,0,1,-909.628,-3323.28)">
        <g transform="matrix(1,0,0,1,-110.019,-3591.86)">
            <path d="M1115.25,6962.94C1115.25,6936.55 1093.85,6915.15 1067.45,6915.15C1041.05,6915.15 1019.65,6936.55 1019.65,6962.94C1019.65,6989.35 1041.05,7010.65 1067.45,7010.65C1093.85,7010.65 1115.25,6989.35 1115.25,6962.94ZM1100.95,6942.74C1099.05,6951.85 1093.85,6981.24 1093.45,6989.94C1093.25,6992.35 1090.75,6992.94 1089.25,6992.94C1087.65,6992.94 1086.45,6992.05 1086.45,6990.15C1086.45,6989.35 1086.75,6988.74 1086.85,6987.94C1087.25,6985.65 1087.75,6983.24 1087.95,6981.85C1088.65,6977.24 1089.55,6971.44 1090.55,6965.85C1087.45,6969.15 1083.45,6971.15 1079.65,6971.15C1072.45,6971.15 1067.65,6965.15 1067.65,6955.55C1067.65,6944.24 1075.15,6932.74 1085.35,6932.74C1090.25,6932.74 1093.45,6935.05 1095.35,6937.44C1095.65,6936.44 1096.15,6935.05 1097.75,6935.05C1099.65,6935.05 1101.85,6936.94 1101.85,6939.15L1101.85,6939.65L1100.95,6942.74ZM1059.75,6982.55C1059.75,6985.74 1060.05,6988.94 1060.05,6990.74C1060.05,6991.94 1059.15,6993.05 1057.55,6993.05C1055.45,6993.05 1052.75,6991.35 1052.75,6989.35C1052.75,6988.05 1052.95,6983.55 1052.95,6982.35L1052.95,6979.55L1038.55,6980.05C1038.15,6980.05 1037.15,6980.15 1035.35,6980.65L1035.55,6980.55L1035.35,6980.55C1033.25,6980.55 1030.95,6978.15 1030.95,6975.44C1030.95,6974.55 1031.25,6973.74 1032.95,6971.15C1035.75,6966.24 1046.95,6944.85 1050.45,6934.44C1050.85,6933.15 1051.85,6932.94 1052.45,6932.94C1054.35,6932.94 1056.85,6936.15 1056.85,6938.44C1056.85,6939.05 1056.75,6939.65 1056.45,6940.15C1055.65,6941.35 1054.65,6943.05 1054.15,6944.35C1050.45,6952.35 1044.65,6963.85 1039.85,6972.94L1052.95,6972.65L1052.95,6957.55C1052.95,6955.94 1052.75,6950.85 1052.75,6949.05C1052.75,6947.94 1053.65,6946.74 1055.35,6946.74C1057.25,6946.74 1059.85,6948.44 1059.85,6950.55C1059.85,6951.74 1059.75,6955.55 1059.75,6957.55L1059.75,6972.35C1060.95,6972.24 1062.95,6971.85 1063.75,6971.85C1066.15,6971.85 1067.35,6975.44 1067.35,6976.94C1067.35,6977.65 1067.05,6979.55 1065.25,6979.55C1064.35,6979.55 1061.65,6979.35 1059.75,6979.35L1059.75,6982.55ZM1093.85,6946.65C1093.15,6946.35 1092.65,6945.65 1092.35,6944.94C1091.55,6942.94 1089.85,6939.85 1085.75,6939.85C1078.45,6939.85 1074.05,6948.44 1074.05,6955.24C1074.05,6961.55 1076.05,6963.94 1079.55,6963.94C1085.65,6963.94 1090.95,6957.55 1093.55,6948.05L1093.85,6946.65Z" style="fill-rule:nonzero;"/>
        </g>
    </g>
</svg>
