<?xml version="1.0" encoding="UTF-8" standalone="no"?>
<!DOCTYPE svg PUBLIC "-//W3C//DTD SVG 1.1//EN" "http://www.w3.org/Graphics/SVG/1.1/DTD/svg11.dtd">
<svg width="100%" height="100%" viewBox="0 0 89 89" version="1.1" xmlns="http://www.w3.org/2000/svg" xmlns:xlink="http://www.w3.org/1999/xlink" xml:space="preserve" xmlns:serif="http://www.serif.com/" style="fill-rule:evenodd;clip-rule:evenodd;stroke-linejoin:round;stroke-miterlimit:2;">
    <g transform="matrix(1,0,0,1,-258.769,-2071.63)">
        <g transform="matrix(1.41414,0,0,1.41429,-177.055,-770.755)">
            <path d="M370.554,2072.13L370.554,2009.77L308.19,2009.77L308.19,2072.13L370.554,2072.13ZM359.594,2049.15C359.594,2049.86 359.736,2054.17 359.736,2055.52C359.736,2056.93 358.251,2057.14 357.756,2057.14C356.695,2057.14 354.079,2056.43 354.079,2054.45C354.079,2053.47 354.221,2050.57 354.221,2049.15L354.221,2037.84C354.221,2033.1 352.241,2030.41 349.625,2030.41C346.584,2030.41 342.2,2034.52 342.2,2039.39L342.2,2049.15C342.2,2051.41 342.413,2054.17 342.413,2055.52C342.413,2056.93 340.928,2057.14 340.433,2057.14C339.372,2057.14 336.756,2056.43 336.756,2054.45C336.756,2053.47 336.897,2050.57 336.897,2049.15L336.897,2037.84C336.897,2032.89 335.766,2030.41 333.221,2030.41C331.948,2030.41 326.079,2031.26 325.16,2043.21C325.019,2045.12 325.019,2047.1 325.019,2049.15C325.019,2051.63 325.231,2054.17 325.231,2055.52C325.231,2056.93 323.746,2057.14 323.251,2057.14C322.19,2057.14 319.574,2056.43 319.574,2054.45C319.574,2053.47 319.645,2050 319.645,2049.15L319.645,2034.09C319.645,2032.96 319.503,2028.51 319.503,2027.09C319.503,2025.68 320.988,2025.47 321.483,2025.47C322.544,2025.47 325.16,2026.17 325.16,2028.15L325.16,2028.93C327.281,2026.53 330.251,2025.32 333.221,2025.32C337.251,2025.32 339.655,2027.3 340.857,2029.78C343.12,2026.88 346.514,2025.32 349.837,2025.32C356.908,2025.32 359.594,2031.9 359.594,2037.63L359.594,2049.15Z" style="fill-rule:nonzero;"/>
        </g>
    </g>
</svg>
