<?xml version="1.0" encoding="UTF-8" standalone="no"?>
<!DOCTYPE svg PUBLIC "-//W3C//DTD SVG 1.1//EN" "http://www.w3.org/Graphics/SVG/1.1/DTD/svg11.dtd">
<svg width="100%" height="100%" viewBox="0 0 96 96" version="1.1" xmlns="http://www.w3.org/2000/svg" xmlns:xlink="http://www.w3.org/1999/xlink" xml:space="preserve" xmlns:serif="http://www.serif.com/" style="fill-rule:evenodd;clip-rule:evenodd;stroke-linejoin:round;stroke-miterlimit:2;">
    <g transform="matrix(1,0,0,1,-909.628,-3773.28)">
        <g transform="matrix(1,0,0,1,-110.019,-3591.86)">
            <path d="M1115.25,7412.94C1115.25,7386.55 1093.85,7365.15 1067.45,7365.15C1041.05,7365.15 1019.65,7386.55 1019.65,7412.94C1019.65,7439.35 1041.05,7460.65 1067.45,7460.65C1093.85,7460.65 1115.25,7439.35 1115.25,7412.94ZM1067.75,7392.35C1064.65,7392.35 1062.15,7389.05 1062.15,7386.35C1062.15,7383.55 1063.95,7381.35 1066.95,7381.35C1069.95,7381.35 1072.45,7384.74 1072.45,7387.55C1072.45,7390.35 1070.65,7392.35 1067.75,7392.35ZM1071.25,7433.15C1071.25,7434.15 1071.45,7440.15 1071.45,7442.15C1071.45,7443.44 1070.55,7444.35 1068.75,7444.35C1066.45,7444.35 1063.35,7442.55 1063.35,7440.55C1063.35,7439.24 1063.55,7434.35 1063.55,7433.15L1063.55,7410.74C1063.55,7409.15 1063.35,7403.65 1063.35,7401.65C1063.35,7400.35 1064.25,7399.44 1066.05,7399.44C1068.25,7399.44 1071.35,7401.24 1071.35,7403.15C1071.35,7404.55 1071.25,7408.74 1071.25,7410.74L1071.25,7433.15Z" style="fill-rule:nonzero;"/>
        </g>
    </g>
</svg>
