<?xml version="1.0" encoding="UTF-8" standalone="no"?>
<!DOCTYPE svg PUBLIC "-//W3C//DTD SVG 1.1//EN" "http://www.w3.org/Graphics/SVG/1.1/DTD/svg11.dtd">
<svg width="100%" height="100%" viewBox="0 0 89 89" version="1.1" xmlns="http://www.w3.org/2000/svg" xmlns:xlink="http://www.w3.org/1999/xlink" xml:space="preserve" xmlns:serif="http://www.serif.com/" style="fill-rule:evenodd;clip-rule:evenodd;stroke-linejoin:round;stroke-miterlimit:2;">
    <g transform="matrix(1,0,0,1,-358.759,-1321.63)">
        <g transform="matrix(1.41414,0,0,1.41429,-177.055,-770.755)">
            <path d="M441.261,1541.83L441.261,1479.46L378.897,1479.46L378.897,1541.83L441.261,1541.83ZM393.18,1506.19C394.736,1505.34 396.503,1504.85 398.413,1504.85C405.342,1504.85 410.009,1510.43 410.009,1517.93C410.009,1526.13 405.342,1532.64 397.564,1532.64C390.493,1532.64 385.12,1526.77 385.12,1519.49C385.12,1514.46 386.392,1509.44 388.938,1504.07C391.342,1498.91 393.534,1494.67 395.726,1491.13C395.867,1491.06 395.938,1490.85 396.009,1490.71C396.291,1490.07 396.998,1488.87 398.554,1488.87C399.261,1488.87 401.736,1489.15 401.736,1491.2C401.736,1491.84 401.312,1492.69 400.958,1493.11C397.705,1497.35 395.16,1502.23 393.18,1506.19ZM414.675,1531.93C412.908,1531.93 411.847,1529.81 411.847,1528.39C411.847,1527.97 411.918,1527.4 412.2,1526.91C412.695,1526.27 412.978,1525.85 413.19,1525.35C415.241,1521.18 418.918,1514.96 423.443,1510.36C427.756,1505.98 430.089,1502.73 430.089,1499.48C430.089,1496.51 428.18,1494.03 424.857,1494.03C421.251,1494.03 418.776,1496.36 417.716,1499.4C417.503,1500.18 416.867,1501.45 415.594,1501.45C414.604,1501.45 412.695,1499.97 412.695,1498.06C412.695,1497.64 412.766,1497 413.12,1496.51C415.382,1492.05 419.271,1488.94 424.998,1488.94C431.221,1488.94 435.322,1493.32 435.322,1499.48C435.322,1505.2 431.574,1509.59 426.766,1514.32C422.948,1518.07 420.12,1522.74 418.281,1526.41C419.978,1526.27 421.958,1526.2 423.443,1526.2C425.988,1526.2 427.685,1526.27 429.806,1526.27C430.726,1526.27 432.423,1526.2 433.13,1526.2C434.897,1526.2 435.746,1528.75 435.746,1529.81C435.746,1530.66 435.251,1531.65 434.049,1531.65C431.15,1531.36 426.908,1531.22 422.877,1531.22C421.11,1531.22 419.413,1531.22 417.291,1531.51C416.726,1531.51 415.17,1531.86 414.958,1531.93L414.675,1531.93ZM397.564,1527.62C401.736,1527.62 404.988,1523.8 404.988,1518.07C404.988,1513.62 402.443,1509.87 398.413,1509.87C393.322,1509.87 389.998,1514.25 389.998,1519.41C389.998,1524.08 393.11,1527.62 397.564,1527.62Z" style="fill-rule:nonzero;"/>
        </g>
    </g>
</svg>
