<?xml version="1.0" encoding="UTF-8" standalone="no"?>
<!DOCTYPE svg PUBLIC "-//W3C//DTD SVG 1.1//EN" "http://www.w3.org/Graphics/SVG/1.1/DTD/svg11.dtd">
<svg width="100%" height="100%" viewBox="0 0 89 89" version="1.1" xmlns="http://www.w3.org/2000/svg" xmlns:xlink="http://www.w3.org/1999/xlink" xml:space="preserve" xmlns:serif="http://www.serif.com/" style="fill-rule:evenodd;clip-rule:evenodd;stroke-linejoin:round;stroke-miterlimit:2;">
    <g transform="matrix(1,0,0,1,-1602.51,-1292.27)">
        <g transform="matrix(1.41414,0,0,1.41429,-1052.39,-837.704)">
            <path d="M1934.24,1568.41C1937.63,1568.41 1939.75,1565.86 1939.75,1562.89L1939.75,1511.56C1939.75,1508.1 1937.28,1506.05 1934.24,1506.05L1882.9,1506.05C1879.44,1506.05 1877.39,1508.38 1877.39,1511.56L1877.39,1562.89C1877.39,1566.08 1879.86,1568.41 1882.9,1568.41L1934.24,1568.41ZM1896.76,1517.71L1897.47,1516.65C1898.03,1515.73 1898.95,1515.45 1899.73,1515.45C1900.86,1515.45 1903.12,1516.16 1903.12,1517.78C1903.12,1518.42 1902.56,1519.27 1902.28,1519.69C1898.81,1523.93 1896.12,1528.81 1894.08,1532.77C1895.7,1531.92 1897.54,1531.43 1899.59,1531.43C1906.87,1531.43 1911.75,1537.02 1911.75,1544.51C1911.75,1552.71 1906.87,1559.22 1898.67,1559.22C1891.25,1559.22 1885.59,1553.35 1885.59,1546.07C1885.59,1541.05 1886.93,1536.03 1889.55,1530.65C1892.1,1525.49 1894.43,1521.25 1896.76,1517.71ZM1927.52,1557.45C1927.52,1558.44 1926.74,1559.01 1925.68,1559.01C1924.05,1559.01 1922.08,1557.73 1922.08,1556.39C1922.08,1555.47 1922.22,1552.57 1922.22,1551.37L1922.22,1523.86C1919.88,1525.07 1917.48,1525.7 1917.05,1525.7C1915.57,1525.7 1913.94,1524.36 1913.94,1523.37C1913.94,1522.45 1914.58,1522.03 1915.08,1521.81C1917.69,1520.75 1920.17,1519.27 1921.79,1518L1922.08,1517.64L1922.71,1517.01C1923.35,1516.3 1924.12,1515.8 1924.76,1515.8C1926.03,1515.8 1927.73,1517.29 1927.73,1518.98C1927.73,1519.9 1927.45,1520.89 1927.45,1522.52L1927.45,1551.02C1927.45,1552.57 1927.52,1555.89 1927.52,1557.31L1927.52,1557.45ZM1898.67,1554.2C1903.12,1554.2 1906.52,1550.38 1906.52,1544.65C1906.52,1540.2 1903.83,1536.45 1899.52,1536.45C1894.22,1536.45 1890.75,1540.83 1890.75,1546C1890.75,1550.66 1894,1554.2 1898.67,1554.2Z" style="fill-rule:nonzero;"/>
        </g>
    </g>
</svg>
