<?xml version="1.0" encoding="UTF-8" standalone="no"?>
<!DOCTYPE svg PUBLIC "-//W3C//DTD SVG 1.1//EN" "http://www.w3.org/Graphics/SVG/1.1/DTD/svg11.dtd">
<svg width="100%" height="100%" viewBox="0 0 89 89" version="1.1" xmlns="http://www.w3.org/2000/svg" xmlns:xlink="http://www.w3.org/1999/xlink" xml:space="preserve" xmlns:serif="http://www.serif.com/" style="fill-rule:evenodd;clip-rule:evenodd;stroke-linejoin:round;stroke-miterlimit:2;">
    <g transform="matrix(1,0,0,1,-358.759,-1021.63)">
        <g transform="matrix(1.41414,0,0,1.41429,-177.055,-770.755)">
            <path d="M441.261,1329.71L441.261,1267.34L378.897,1267.34L378.897,1329.71L441.261,1329.71ZM405.059,1312.74C405.059,1315.07 405.342,1317.33 405.342,1318.68C405.342,1319.45 404.635,1320.3 403.503,1320.3C402.019,1320.3 400.039,1319.03 400.039,1317.62C400.039,1316.7 400.18,1313.44 400.18,1312.6L400.18,1310.55L389.716,1310.9C389.433,1310.9 388.726,1311.04 387.524,1311.39L387.665,1311.32L387.453,1311.32C385.897,1311.32 384.271,1309.56 384.271,1307.65C384.271,1307.15 384.413,1306.52 384.766,1305.88C385.12,1305.38 385.402,1304.89 385.756,1304.46C386.463,1303.4 395.796,1286.01 398.342,1278.02C398.695,1277.1 399.402,1276.96 399.756,1276.96C401.241,1276.96 403.009,1279.22 403.009,1280.92C403.009,1281.34 402.938,1281.77 402.726,1282.12C402.16,1282.97 401.453,1284.24 401.029,1285.16C398.342,1290.96 394.17,1299.23 390.705,1305.81L400.18,1305.6L400.18,1294.71C400.18,1293.58 400.039,1289.9 400.039,1288.56C400.039,1287.78 400.746,1286.93 401.877,1286.93C403.291,1286.93 405.2,1288.13 405.2,1289.62C405.2,1290.54 405.059,1293.29 405.059,1294.71L405.059,1305.38C405.978,1305.31 407.392,1305.03 408.029,1305.03C409.726,1305.03 410.574,1307.65 410.574,1308.71C410.574,1309.2 410.362,1310.55 409.089,1310.55C408.382,1310.55 406.473,1310.4 405.059,1310.4L405.059,1312.74ZM414.322,1319.81C412.695,1319.81 411.705,1317.69 411.705,1316.27C411.705,1315.85 411.705,1315.28 412.059,1314.79C412.483,1314.15 412.766,1313.73 412.978,1313.23C414.958,1309.06 418.423,1302.84 422.665,1298.24C426.837,1293.86 429.029,1290.61 429.029,1287.35C429.029,1284.38 427.261,1281.91 424.079,1281.91C420.615,1281.91 418.281,1284.24 417.291,1287.28C417.079,1288.06 416.443,1289.33 415.241,1289.33C413.827,1289.33 412.483,1287.14 412.483,1285.94C412.483,1285.52 412.554,1284.88 412.908,1284.38C415.029,1279.93 418.776,1276.82 424.15,1276.82C430.089,1276.82 433.978,1281.2 433.978,1287.35C433.978,1293.08 430.443,1297.46 425.847,1302.2C422.241,1305.95 419.554,1310.62 417.786,1314.29C419.413,1314.15 421.322,1314.08 422.736,1314.08C425.14,1314.08 426.766,1314.15 428.746,1314.15C429.594,1314.15 431.291,1314.08 431.928,1314.08C433.554,1314.08 434.402,1316.63 434.402,1317.69C434.402,1318.54 433.908,1319.53 432.847,1319.53C431.786,1319.38 428.039,1319.1 422.17,1319.1C420.544,1319.1 418.847,1319.1 416.867,1319.38C416.443,1319.38 415.029,1319.74 414.675,1319.81L414.322,1319.81Z" style="fill-rule:nonzero;"/>
        </g>
    </g>
</svg>
