<?xml version="1.0" encoding="UTF-8" standalone="no"?>
<!DOCTYPE svg PUBLIC "-//W3C//DTD SVG 1.1//EN" "http://www.w3.org/Graphics/SVG/1.1/DTD/svg11.dtd">
<svg width="100%" height="100%" viewBox="0 0 89 89" version="1.1" xmlns="http://www.w3.org/2000/svg" xmlns:xlink="http://www.w3.org/1999/xlink" xml:space="preserve" xmlns:serif="http://www.serif.com/" style="fill-rule:evenodd;clip-rule:evenodd;stroke-linejoin:round;stroke-miterlimit:2;">
    <g transform="matrix(1,0,0,1,-2302.43,-542.274)">
        <g transform="matrix(1.41414,0,0,1.41429,-1052.39,-837.704)">
            <path d="M2429.19,1038.11C2432.58,1038.11 2434.7,1035.56 2434.7,1032.59L2434.7,981.257C2434.7,977.793 2432.23,975.742 2429.19,975.742L2377.85,975.742C2374.39,975.742 2372.34,978.075 2372.34,981.257L2372.34,1032.59C2372.34,1035.77 2374.81,1038.11 2377.85,1038.11L2429.19,1038.11ZM2424.17,991.58C2425.37,991.58 2426.22,992.5 2426.22,993.702C2426.22,996.459 2418.37,1002.75 2416.88,1003.74C2423.18,1006.71 2426.5,1010.53 2426.5,1016.33C2426.5,1024.04 2420.49,1028.91 2411.93,1028.91C2404.01,1028.91 2399.14,1023.82 2399.14,1017.11C2399.14,1011.94 2402.03,1008.06 2406.63,1004.66C2402.39,1002.26 2400.9,999.641 2400.9,995.823C2400.9,990.166 2405.5,985.287 2412.92,985.287C2417.87,985.287 2421.34,988.116 2423.67,991.368C2423.67,991.439 2423.74,991.51 2423.74,991.58L2424.17,991.58ZM2390.93,1027.15C2390.93,1028.14 2390.09,1028.7 2388.95,1028.7C2387.26,1028.7 2385.21,1027.43 2385.21,1026.09C2385.21,1025.17 2385.35,1022.27 2385.35,1021.07L2385.35,993.56C2382.73,994.833 2379.97,995.399 2379.9,995.399C2378.35,995.399 2376.58,994.055 2376.58,993.065C2376.58,992.146 2377.29,991.722 2377.85,991.51C2380.61,990.449 2383.16,988.964 2384.85,987.692L2385.14,987.338L2385.84,986.702C2386.48,985.995 2387.33,985.5 2387.96,985.5C2389.31,985.5 2391.14,986.984 2391.14,988.681C2391.14,989.601 2390.79,990.591 2390.79,992.217L2390.79,1020.71C2390.79,1022.27 2390.86,1025.59 2390.93,1027.01L2390.93,1027.15ZM2411.93,1007.14C2406.98,1010.6 2404.58,1013.57 2404.58,1016.96C2404.58,1020.36 2406.7,1023.75 2411.93,1023.75C2417.45,1023.75 2421.05,1020.71 2421.05,1016.61C2421.05,1013.08 2419.36,1010.32 2412.78,1007.49C2412.57,1007.35 2412.22,1007.21 2411.93,1007.14ZM2419.57,994.974C2419.36,994.762 2419.22,994.55 2419.08,994.338C2417.52,991.722 2415.82,990.308 2412.99,990.308C2408.4,990.308 2406.35,993.136 2406.35,995.823C2406.35,998.015 2407.2,999.287 2411.65,1001.34C2414.62,999.429 2417.24,997.166 2419.57,994.974Z" style="fill-rule:nonzero;"/>
        </g>
    </g>
</svg>
