<?xml version="1.0" encoding="UTF-8" standalone="no"?>
<!DOCTYPE svg PUBLIC "-//W3C//DTD SVG 1.1//EN" "http://www.w3.org/Graphics/SVG/1.1/DTD/svg11.dtd">
<svg width="100%" height="100%" viewBox="0 0 89 89" version="1.1" xmlns="http://www.w3.org/2000/svg" xmlns:xlink="http://www.w3.org/1999/xlink" xml:space="preserve" xmlns:serif="http://www.serif.com/" style="fill-rule:evenodd;clip-rule:evenodd;stroke-linejoin:round;stroke-miterlimit:2;">
    <g transform="matrix(1,0,0,1,-1902.47,-542.274)">
        <g transform="matrix(1.41414,0,0,1.41429,-1052.39,-837.704)">
            <path d="M2146.36,1038.11C2149.75,1038.11 2151.87,1035.56 2151.87,1032.59L2151.87,981.257C2151.87,977.793 2149.4,975.742 2146.36,975.742L2095.02,975.742C2091.56,975.742 2089.51,978.075 2089.51,981.257L2089.51,1032.59C2089.51,1035.77 2091.98,1038.11 2095.02,1038.11L2146.36,1038.11ZM2138.44,1021.14C2138.44,1023.47 2138.72,1025.73 2138.72,1027.08C2138.72,1027.85 2137.94,1028.7 2136.67,1028.7C2135.04,1028.7 2132.85,1027.43 2132.85,1026.02C2132.85,1025.1 2132.99,1021.84 2132.99,1021L2132.99,1019.01L2120.76,1019.65C2120.34,1019.65 2119.7,1019.79 2118.36,1020.08L2118.22,1020.08C2116.45,1020.08 2114.68,1018.31 2114.68,1016.4C2114.68,1015.9 2114.82,1015.27 2115.25,1014.63C2115.88,1013.71 2116.66,1012.86 2117.09,1012.09C2128.96,992.712 2130.45,989.671 2131.58,986.348C2131.93,985.641 2132.5,985.358 2133.14,985.358C2134.76,985.358 2136.74,987.621 2136.74,989.318C2136.74,989.742 2136.6,990.096 2136.46,990.449C2135.61,991.722 2135.12,992.57 2134.48,993.631C2131.23,999.146 2126.07,1007.77 2121.68,1014.56L2132.99,1014.07L2132.99,1003.11C2132.99,1001.97 2132.85,998.298 2132.85,996.954C2132.85,996.176 2133.63,995.328 2134.9,995.328C2136.46,995.328 2138.58,996.53 2138.58,998.015C2138.58,998.934 2138.44,1001.69 2138.44,1003.11L2138.44,1013.78L2138.65,1013.78C2140.14,1013.71 2142.04,1013.43 2142.75,1013.43C2144.66,1013.43 2145.58,1015.9 2145.58,1017.03C2145.58,1017.67 2145.3,1018.87 2143.95,1018.87C2143.32,1018.87 2141.83,1018.66 2140.14,1018.66C2139.71,1018.66 2139.29,1018.73 2138.86,1018.73L2138.44,1018.73L2138.44,1021.14ZM2108.81,1027.15C2108.81,1028.14 2107.96,1028.7 2106.83,1028.7C2105.14,1028.7 2103.09,1027.43 2103.09,1026.09C2103.09,1025.17 2103.23,1022.27 2103.23,1021.07L2103.23,993.56C2100.61,994.833 2097.85,995.399 2097.78,995.399C2096.23,995.399 2094.46,994.055 2094.46,993.065C2094.46,992.146 2095.17,991.722 2095.73,991.51C2098.49,990.449 2101.03,988.964 2102.73,987.692L2103.01,987.338L2103.72,986.702C2104.36,985.995 2105.21,985.5 2105.84,985.5C2107.19,985.5 2109.02,986.984 2109.02,988.681C2109.02,989.601 2108.67,990.591 2108.67,992.217L2108.67,1020.71C2108.67,1022.27 2108.74,1025.59 2108.81,1027.01L2108.81,1027.15Z" style="fill-rule:nonzero;"/>
        </g>
    </g>
</svg>
