<?xml version="1.0" encoding="UTF-8" standalone="no"?>
<!DOCTYPE svg PUBLIC "-//W3C//DTD SVG 1.1//EN" "http://www.w3.org/Graphics/SVG/1.1/DTD/svg11.dtd">
<svg width="100%" height="100%" viewBox="0 0 96 96" version="1.1" xmlns="http://www.w3.org/2000/svg" xmlns:xlink="http://www.w3.org/1999/xlink" xml:space="preserve" xmlns:serif="http://www.serif.com/" style="fill-rule:evenodd;clip-rule:evenodd;stroke-linejoin:round;stroke-miterlimit:2;">
    <g transform="matrix(1,0,0,1,-109.628,-3773.28)">
        <g transform="matrix(1,0,0,1,-110.019,-3591.86)">
            <path d="M315.248,7412.94C315.248,7386.55 293.848,7365.15 267.448,7365.15C241.048,7365.15 219.648,7386.55 219.648,7412.94C219.648,7439.35 241.048,7460.65 267.448,7460.65C293.848,7460.65 315.248,7439.35 315.248,7412.94ZM277.448,7392.44C277.448,7391.35 278.548,7390.15 280.348,7390.15C282.648,7390.15 285.748,7391.94 285.748,7393.74C284.648,7404.35 284.648,7414.55 284.648,7416.24C284.648,7419.24 284.848,7424.85 287.348,7429.05C287.648,7429.44 287.848,7429.94 287.848,7430.44C287.848,7432.24 285.748,7435.24 283.348,7435.24C282.248,7435.24 279.748,7434.94 277.748,7426.55C273.348,7432.74 267.248,7435.65 261.248,7435.65C252.148,7435.65 246.248,7429.15 246.248,7417.94C246.248,7402.94 257.448,7390.15 268.648,7390.15C271.748,7390.15 274.948,7391.24 277.448,7393.44L277.448,7392.44ZM277.248,7402.35C276.848,7402.35 275.848,7402.24 275.248,7401.35C273.348,7398.35 270.748,7397.24 268.648,7397.24C262.348,7397.24 254.148,7405.85 254.148,7417.55C254.148,7425.85 257.448,7428.44 261.248,7428.44C268.648,7428.44 276.548,7420.65 277.148,7407.94C277.248,7406.74 277.248,7404.55 277.248,7402.35Z" style="fill-rule:nonzero;"/>
        </g>
    </g>
</svg>
