<?xml version="1.0" encoding="UTF-8" standalone="no"?>
<!DOCTYPE svg PUBLIC "-//W3C//DTD SVG 1.1//EN" "http://www.w3.org/Graphics/SVG/1.1/DTD/svg11.dtd">
<svg width="100%" height="100%" viewBox="0 0 89 89" version="1.1" xmlns="http://www.w3.org/2000/svg" xmlns:xlink="http://www.w3.org/1999/xlink" xml:space="preserve" xmlns:serif="http://www.serif.com/" style="fill-rule:evenodd;clip-rule:evenodd;stroke-linejoin:round;stroke-miterlimit:2;">
    <g transform="matrix(1,0,0,1,-2302.43,-992.274)">
        <g transform="matrix(1.41414,0,0,1.41429,-1052.39,-837.704)">
            <path d="M2429.19,1356.29C2432.58,1356.29 2434.7,1353.74 2434.7,1350.77L2434.7,1299.44C2434.7,1295.97 2432.23,1293.92 2429.19,1293.92L2377.85,1293.92C2374.39,1293.92 2372.34,1296.26 2372.34,1299.44L2372.34,1350.77C2372.34,1353.95 2374.81,1356.29 2377.85,1356.29L2429.19,1356.29ZM2426.57,1309.76C2427.63,1309.76 2428.34,1310.68 2428.34,1311.88C2428.34,1314.43 2422.26,1320.44 2420.35,1321.92C2425.72,1324.89 2428.55,1328.71 2428.55,1334.51C2428.55,1342.22 2423.46,1347.1 2416.11,1347.1C2409.39,1347.1 2405.14,1342.01 2405.14,1335.29C2405.14,1330.13 2407.69,1326.24 2411.58,1322.84C2407.97,1320.44 2406.7,1317.82 2406.7,1314.01C2406.7,1308.35 2410.59,1303.47 2416.95,1303.47C2421.2,1303.47 2424.17,1306.3 2426.14,1309.55C2426.14,1309.62 2426.22,1309.69 2426.22,1309.76L2426.57,1309.76ZM2397.23,1339.32C2397.23,1341.65 2397.51,1343.91 2397.51,1345.26C2397.51,1346.04 2396.87,1346.88 2395.74,1346.88C2394.33,1346.88 2392.49,1345.61 2392.49,1344.2C2392.49,1343.28 2392.63,1340.03 2392.63,1339.18L2392.63,1337.13L2382.73,1337.48C2382.45,1337.48 2381.81,1337.62 2380.61,1337.97L2380.75,1337.9L2380.54,1337.9C2379.05,1337.9 2377.57,1336.14 2377.57,1334.23C2377.57,1333.73 2377.64,1333.1 2377.99,1332.46C2380.89,1328.43 2389.24,1310.33 2390.86,1304.6C2391.14,1303.68 2391.85,1303.54 2392.21,1303.54C2393.62,1303.54 2395.32,1305.8 2395.32,1307.5C2395.32,1307.92 2395.25,1308.35 2395.03,1308.7C2394.47,1309.55 2393.76,1310.82 2393.41,1311.74C2390.86,1317.54 2386.9,1325.81 2383.65,1332.39L2392.63,1332.18L2392.63,1321.29C2392.63,1320.16 2392.49,1316.48 2392.49,1315.14C2392.49,1314.36 2393.12,1313.51 2394.26,1313.51C2395.6,1313.51 2397.37,1314.71 2397.37,1316.2C2397.37,1317.12 2397.23,1319.87 2397.23,1321.29L2397.23,1331.96C2398.14,1331.89 2399.42,1331.61 2400.05,1331.61C2401.68,1331.61 2402.46,1334.23 2402.46,1335.29C2402.46,1335.78 2402.25,1337.13 2401.04,1337.13C2400.41,1337.13 2398.57,1336.98 2397.23,1336.98L2397.23,1339.32ZM2416.11,1325.32C2411.93,1328.78 2409.81,1331.75 2409.81,1335.15C2409.81,1338.54 2411.65,1341.93 2416.11,1341.93C2420.84,1341.93 2423.95,1338.89 2423.95,1334.79C2423.95,1331.26 2422.47,1328.5 2416.88,1325.67C2416.67,1325.53 2416.39,1325.39 2416.11,1325.32ZM2422.61,1313.16C2422.47,1312.94 2422.33,1312.73 2422.26,1312.52C2420.84,1309.9 2419.43,1308.49 2417.02,1308.49C2413.07,1308.49 2411.37,1311.32 2411.37,1314.01C2411.37,1316.2 2412.08,1317.47 2415.89,1319.52C2418.37,1317.61 2420.63,1315.35 2422.61,1313.16Z" style="fill-rule:nonzero;"/>
        </g>
    </g>
</svg>
