<?xml version="1.0" encoding="UTF-8" standalone="no"?>
<!DOCTYPE svg PUBLIC "-//W3C//DTD SVG 1.1//EN" "http://www.w3.org/Graphics/SVG/1.1/DTD/svg11.dtd">
<svg width="100%" height="100%" viewBox="0 0 89 89" version="1.1" xmlns="http://www.w3.org/2000/svg" xmlns:xlink="http://www.w3.org/1999/xlink" xml:space="preserve" xmlns:serif="http://www.serif.com/" style="fill-rule:evenodd;clip-rule:evenodd;stroke-linejoin:round;stroke-miterlimit:2;">
    <g transform="matrix(1,0,0,1,-1058.69,-1921.63)">
        <g transform="matrix(1.41414,0,0,1.41429,-177.055,-770.755)">
            <path d="M936.211,1966.07L936.211,1903.71L873.847,1903.71L873.847,1966.07L936.211,1966.07ZM910.473,1953.2C910.473,1956.53 909.413,1962.04 903.332,1962.04C899.019,1962.04 896.12,1959.92 896.12,1958.08C896.12,1956.95 897.039,1954.76 898.736,1954.76C899.514,1954.76 900.009,1955.11 900.433,1955.61C901.352,1956.67 902.413,1956.81 903.332,1956.81C904.958,1956.81 905.099,1954.62 905.099,1953.27L905.099,1929.52C905.099,1928.38 904.958,1924.21 904.958,1922.87C904.958,1921.88 905.736,1921.24 906.938,1921.24C908.493,1921.24 910.615,1922.44 910.615,1923.93C910.615,1924.85 910.473,1928.03 910.473,1929.52L910.473,1953.2ZM908.069,1916.29C905.806,1916.29 904.18,1913.89 904.18,1912.05C904.18,1910 905.312,1908.52 907.503,1908.52C909.554,1908.52 911.392,1910.85 911.392,1912.83C911.392,1914.81 910.12,1916.29 908.069,1916.29Z" style="fill-rule:nonzero;"/>
        </g>
    </g>
</svg>
