<?xml version="1.0" encoding="UTF-8" standalone="no"?>
<!DOCTYPE svg PUBLIC "-//W3C//DTD SVG 1.1//EN" "http://www.w3.org/Graphics/SVG/1.1/DTD/svg11.dtd">
<svg width="100%" height="100%" viewBox="0 0 96 96" version="1.1" xmlns="http://www.w3.org/2000/svg" xmlns:xlink="http://www.w3.org/1999/xlink" xml:space="preserve" xmlns:serif="http://www.serif.com/" style="fill-rule:evenodd;clip-rule:evenodd;stroke-linejoin:round;stroke-miterlimit:2;">
    <g transform="matrix(1,0,0,1,-1209.63,-3773.28)">
        <g transform="matrix(1,0,0,1,-110.019,-3591.86)">
            <path d="M1415.25,7412.94C1415.25,7386.55 1393.85,7365.15 1367.45,7365.15C1341.05,7365.15 1319.65,7386.55 1319.65,7412.94C1319.65,7439.35 1341.05,7460.65 1367.45,7460.65C1393.85,7460.65 1415.25,7439.35 1415.25,7412.94ZM1371.25,7433.55C1371.25,7434.55 1371.45,7440.55 1371.45,7442.55C1371.45,7444.55 1369.35,7444.85 1368.65,7444.85C1367.25,7444.85 1363.35,7443.85 1363.35,7440.94C1363.35,7439.65 1363.55,7434.74 1363.55,7433.55L1363.55,7392.24C1363.55,7390.65 1363.35,7385.15 1363.35,7383.24C1363.35,7381.85 1364.45,7380.94 1366.15,7380.94C1368.35,7380.94 1371.35,7382.65 1371.35,7384.74C1371.35,7386.05 1371.25,7390.24 1371.25,7392.24L1371.25,7433.55Z" style="fill-rule:nonzero;"/>
        </g>
    </g>
</svg>
