<?xml version="1.0" encoding="UTF-8" standalone="no"?>
<!DOCTYPE svg PUBLIC "-//W3C//DTD SVG 1.1//EN" "http://www.w3.org/Graphics/SVG/1.1/DTD/svg11.dtd">
<svg width="100%" height="100%" viewBox="0 0 89 89" version="1.1" xmlns="http://www.w3.org/2000/svg" xmlns:xlink="http://www.w3.org/1999/xlink" xml:space="preserve" xmlns:serif="http://www.serif.com/" style="fill-rule:evenodd;clip-rule:evenodd;stroke-linejoin:round;stroke-miterlimit:2;">
    <g transform="matrix(1,0,0,1,-158.78,-2221.63)">
        <g transform="matrix(1.41414,0,0,1.41429,-177.055,-770.755)">
            <path d="M299.847,2178.19L299.847,2115.83L237.483,2115.83L237.483,2178.19L299.847,2178.19ZM281.746,2158.61C281.463,2159.53 280.968,2160.8 280.685,2162.14C280.261,2163.7 279.059,2164.19 277.998,2164.19C276.726,2164.19 275.453,2163.49 274.746,2162.85C274.251,2162.28 274.039,2161.65 273.897,2161.15C273.827,2160.66 273.756,2160.16 273.615,2159.67L268.665,2142.98L263.079,2158.61C262.584,2159.95 262.372,2160.87 262.019,2162.14C261.594,2163.63 260.534,2164.19 259.473,2164.19C258.271,2164.19 256.998,2163.41 256.362,2162.85C255.796,2162.21 255.655,2161.79 255.089,2159.67L249.009,2138.53C248.726,2137.61 248.301,2136.48 247.665,2135.06C247.594,2134.78 247.524,2134.57 247.524,2134.35C247.524,2133.36 248.584,2132.45 250.211,2132.45C251.2,2132.45 253.322,2132.8 253.746,2134.5C253.887,2135.2 254.099,2136.62 254.312,2137.47L259.12,2154.79L264.918,2138.24C265.342,2137.04 265.483,2135.84 265.625,2134.64C265.766,2133.65 266.615,2133.08 267.887,2133.08C269.584,2133.08 271.705,2134.35 271.847,2135.34C271.918,2136.12 272.13,2136.97 272.342,2137.75L277.574,2154.86L283.443,2137.54C283.796,2136.48 284.221,2134.92 284.503,2133.51C284.786,2132.38 285.847,2132.02 286.625,2132.02C288.18,2132.02 290.301,2133.43 290.301,2134.57C290.301,2134.92 290.16,2135.06 290.16,2135.27C289.594,2136.48 288.887,2138.24 288.534,2139.23L281.746,2158.61Z" style="fill-rule:nonzero;"/>
        </g>
    </g>
</svg>
