<?xml version="1.0" encoding="UTF-8" standalone="no"?>
<!DOCTYPE svg PUBLIC "-//W3C//DTD SVG 1.1//EN" "http://www.w3.org/Graphics/SVG/1.1/DTD/svg11.dtd">
<svg width="100%" height="100%" viewBox="0 0 89 89" version="1.1" xmlns="http://www.w3.org/2000/svg" xmlns:xlink="http://www.w3.org/1999/xlink" xml:space="preserve" xmlns:serif="http://www.serif.com/" style="fill-rule:evenodd;clip-rule:evenodd;stroke-linejoin:round;stroke-miterlimit:2;">
    <g transform="matrix(1,0,0,1,-2402.42,-392.274)">
        <g transform="matrix(1.41414,0,0,1.41429,-1052.39,-837.704)">
            <path d="M2499.89,932.045C2503.29,932.045 2505.41,929.5 2505.41,926.53L2505.41,875.197C2505.41,871.732 2502.93,869.681 2499.89,869.681L2448.56,869.681C2445.1,869.681 2443.04,872.015 2443.04,875.197L2443.04,926.53C2443.04,929.712 2445.52,932.045 2448.56,932.045L2499.89,932.045ZM2455.91,882.692C2457.4,880.782 2459.38,879.51 2461.78,879.51C2468.57,879.51 2471.75,889.126 2471.75,900.51C2471.75,912.106 2468.43,923.277 2460.65,923.277C2453.23,923.277 2450.12,913.52 2450.12,901.995C2450.12,893.227 2452.73,882.621 2455.42,882.621C2455.56,882.621 2455.77,882.621 2455.91,882.692ZM2491.62,903.338C2489.43,905.671 2486.53,907.156 2483.77,907.156C2478.61,907.156 2475.14,902.843 2475.14,895.843C2475.14,887.712 2480.52,879.439 2487.94,879.439C2491.48,879.439 2493.74,881.136 2495.16,882.762C2495.3,882.055 2495.72,881.065 2496.85,881.065C2498.27,881.065 2499.75,882.409 2499.75,884.035L2499.75,884.389C2499.54,885.308 2499.19,886.298 2499.19,886.58C2496.78,898.318 2494.31,914.439 2493.74,920.661C2493.6,922.429 2491.83,922.853 2490.7,922.853C2489.57,922.853 2488.72,922.217 2488.72,920.873C2488.72,919.954 2489.64,915.358 2489.78,914.863L2491.62,903.338ZM2460.51,918.116C2464.96,918.116 2467.23,910.126 2467.23,900.085C2467.23,892.803 2466.02,884.53 2461.57,884.53C2459.1,884.53 2454.64,889.621 2454.64,901.924C2454.64,911.611 2456.48,918.116 2460.51,918.116ZM2494.02,889.479C2493.53,889.267 2493.18,888.702 2492.96,888.277C2492.4,886.793 2491.12,884.53 2488.16,884.53C2482.92,884.53 2479.74,890.752 2479.74,895.631C2479.74,900.227 2481.23,901.924 2483.7,901.924C2490.63,901.924 2493.46,891.813 2493.81,890.469L2494.02,889.479Z" style="fill-rule:nonzero;"/>
        </g>
    </g>
</svg>
