<?xml version="1.0" encoding="UTF-8" standalone="no"?>
<!DOCTYPE svg PUBLIC "-//W3C//DTD SVG 1.1//EN" "http://www.w3.org/Graphics/SVG/1.1/DTD/svg11.dtd">
<svg width="100%" height="100%" viewBox="0 0 96 96" version="1.1" xmlns="http://www.w3.org/2000/svg" xmlns:xlink="http://www.w3.org/1999/xlink" xml:space="preserve" xmlns:serif="http://www.serif.com/" style="fill-rule:evenodd;clip-rule:evenodd;stroke-linejoin:round;stroke-miterlimit:2;">
    <g transform="matrix(1,0,0,1,-1909.63,-3473.28)">
        <g transform="matrix(1,0,0,1,-110.019,-3591.86)">
            <path d="M2115.25,7112.94C2115.25,7086.55 2093.85,7065.15 2067.45,7065.15C2041.05,7065.15 2019.65,7086.55 2019.65,7112.94C2019.65,7139.35 2041.05,7160.65 2067.45,7160.65C2093.85,7160.65 2115.25,7139.35 2115.25,7112.94ZM2102.35,7092.74C2100.45,7101.74 2095.45,7128.65 2094.45,7139.94C2094.25,7142.35 2091.65,7142.94 2090.05,7142.94C2088.35,7142.94 2087.15,7142.05 2087.15,7140.15C2087.15,7139.35 2087.35,7138.74 2087.55,7137.94C2090.85,7119.15 2091.15,7116.85 2091.35,7115.85C2088.15,7119.15 2083.95,7121.15 2079.85,7121.15C2072.35,7121.15 2067.25,7115.15 2067.25,7105.55C2067.25,7094.24 2075.25,7082.74 2085.95,7082.74C2091.15,7082.74 2094.55,7085.05 2096.55,7087.44C2096.75,7086.44 2097.35,7085.05 2098.95,7085.05C2101.05,7085.05 2103.25,7086.94 2103.25,7089.15L2103.25,7089.65L2102.35,7092.74ZM2038.25,7137.74L2038.25,7137.44C2039.05,7135.15 2039.75,7132.94 2040.15,7131.55C2044.15,7119.05 2049.45,7104.74 2055.05,7091.24L2038.15,7092.74C2037.35,7092.85 2036.55,7092.94 2035.95,7092.94C2032.85,7092.94 2030.85,7089.15 2030.85,7087.44C2030.85,7086.85 2031.25,7085.55 2032.65,7085.55C2033.45,7085.55 2034.25,7085.65 2035.45,7085.65L2036.35,7085.65L2056.35,7084.15C2056.85,7084.15 2057.35,7083.94 2057.75,7083.85C2058.35,7083.65 2058.95,7083.55 2059.55,7083.55L2059.85,7083.55C2061.55,7083.85 2064.15,7086.05 2064.15,7088.35L2064.15,7088.74C2063.95,7089.85 2063.45,7090.74 2063.15,7091.35C2060.05,7095.94 2048.05,7128.55 2045.45,7140.44C2045.05,7142.55 2043.35,7142.85 2042.05,7142.85C2041.75,7142.85 2041.45,7142.74 2040.95,7142.74C2038.85,7142.44 2037.75,7141.35 2037.75,7139.74C2037.75,7139.15 2037.95,7138.55 2038.05,7138.24L2038.25,7137.74ZM2094.85,7096.65C2094.15,7096.35 2093.65,7095.65 2093.35,7094.94C2092.45,7092.94 2090.65,7089.85 2086.35,7089.85C2078.75,7089.85 2074.05,7098.44 2074.05,7105.24C2074.05,7111.55 2076.15,7113.94 2079.85,7113.94C2089.25,7113.94 2093.55,7101.44 2094.55,7098.05L2094.85,7096.65Z" style="fill-rule:nonzero;"/>
        </g>
    </g>
</svg>
