<?xml version="1.0" encoding="UTF-8" standalone="no"?>
<!DOCTYPE svg PUBLIC "-//W3C//DTD SVG 1.1//EN" "http://www.w3.org/Graphics/SVG/1.1/DTD/svg11.dtd">
<svg width="100%" height="100%" viewBox="0 0 89 89" version="1.1" xmlns="http://www.w3.org/2000/svg" xmlns:xlink="http://www.w3.org/1999/xlink" xml:space="preserve" xmlns:serif="http://www.serif.com/" style="fill-rule:evenodd;clip-rule:evenodd;stroke-linejoin:round;stroke-miterlimit:2;">
    <g transform="matrix(1,0,0,1,-758.718,-271.632)">
        <g transform="matrix(1.41414,0,0,1.41429,-177.055,-770.755)">
            <path d="M724.089,799.405L724.089,737.041L661.726,737.041L661.726,799.405L724.089,799.405ZM686.968,763.981C689.089,762.991 691.564,762.496 694.18,762.496C702.382,762.496 709.029,767.445 709.029,775.294C709.029,783.849 703.796,790.213 692.978,790.213C683.221,790.213 676.998,784.981 676.998,777.132C676.998,770.486 679.685,764.051 686.897,754.506C688.453,752.455 690.009,750.617 691.211,748.92C691.352,748.566 691.705,748.001 691.918,747.718C692.413,746.87 693.544,746.516 694.604,746.516C695.382,746.516 698.352,746.587 698.352,748.779C698.352,749.556 697.786,750.263 697.291,750.829C693.12,754.93 689.867,759.738 686.968,763.981ZM703.514,775.506C703.514,771.051 700.049,767.516 694.039,767.516C688.382,767.516 682.584,771.546 682.584,776.991C682.584,781.94 685.837,785.193 692.978,785.193C700.261,785.193 703.514,781.375 703.514,775.506Z" style="fill-rule:nonzero;"/>
        </g>
    </g>
</svg>
