<?xml version="1.0" encoding="UTF-8" standalone="no"?>
<!DOCTYPE svg PUBLIC "-//W3C//DTD SVG 1.1//EN" "http://www.w3.org/Graphics/SVG/1.1/DTD/svg11.dtd">
<svg width="100%" height="100%" viewBox="0 0 89 89" version="1.1" xmlns="http://www.w3.org/2000/svg" xmlns:xlink="http://www.w3.org/1999/xlink" xml:space="preserve" xmlns:serif="http://www.serif.com/" style="fill-rule:evenodd;clip-rule:evenodd;stroke-linejoin:round;stroke-miterlimit:2;">
    <g transform="matrix(1,0,0,1,-258.769,-2221.63)">
        <g transform="matrix(1.41414,0,0,1.41429,-177.055,-770.755)">
            <path d="M370.554,2178.19L370.554,2115.83L308.19,2115.83L308.19,2178.19L370.554,2178.19ZM349.271,2155.21C350.332,2156.63 351.887,2158.32 353.019,2159.53C353.372,2159.88 353.443,2160.23 353.443,2160.66C353.443,2161.65 351.746,2162.78 349.908,2162.78C349.271,2162.78 348.14,2162.64 347.574,2161.79C347.009,2160.87 346.019,2159.45 345.241,2158.39L339.584,2150.83L333.857,2158.54C333.079,2159.6 332.089,2161.01 331.524,2161.93C330.958,2162.78 329.827,2162.92 329.19,2162.92C327.493,2162.92 325.655,2161.72 325.655,2160.73C325.655,2160.3 325.726,2159.95 326.079,2159.6C327.211,2158.39 328.695,2156.77 329.827,2155.28L336.402,2146.59L330.18,2138.31C329.402,2137.32 328.271,2136.05 327.069,2134.92C326.928,2134.71 326.645,2134.28 326.645,2133.86C326.645,2132.94 328.766,2131.53 330.463,2131.53C331.453,2131.53 332.16,2131.88 332.443,2132.45C332.867,2133.15 333.433,2134.21 334.211,2135.2L339.584,2142.34L345.099,2134.99C345.806,2134 346.443,2132.87 346.867,2132.09C347.291,2131.45 348.211,2131.24 348.776,2131.24C350.402,2131.24 352.665,2132.66 352.665,2133.51C352.665,2134 352.524,2134.43 352.099,2134.71C350.968,2135.84 349.908,2137.11 349.13,2138.1L342.766,2146.59L349.271,2155.21Z" style="fill-rule:nonzero;"/>
        </g>
    </g>
</svg>
