<?xml version="1.0" encoding="UTF-8" standalone="no"?>
<!DOCTYPE svg PUBLIC "-//W3C//DTD SVG 1.1//EN" "http://www.w3.org/Graphics/SVG/1.1/DTD/svg11.dtd">
<svg width="100%" height="100%" viewBox="0 0 89 89" version="1.1" xmlns="http://www.w3.org/2000/svg" xmlns:xlink="http://www.w3.org/1999/xlink" xml:space="preserve" xmlns:serif="http://www.serif.com/" style="fill-rule:evenodd;clip-rule:evenodd;stroke-linejoin:round;stroke-miterlimit:2;">
    <g transform="matrix(1,0,0,1,-1702.49,-1142.27)">
        <g transform="matrix(1.41414,0,0,1.41429,-1052.39,-837.704)">
            <path d="M2004.94,1462.35C2008.34,1462.35 2010.46,1459.8 2010.46,1456.83L2010.46,1405.5C2010.46,1402.04 2007.98,1399.98 2004.94,1399.98L1953.61,1399.98C1950.14,1399.98 1948.1,1402.32 1948.1,1405.5L1948.1,1456.83C1948.1,1460.02 1950.57,1462.35 1953.61,1462.35L2004.94,1462.35ZM1959.55,1434.35C1959.2,1434.7 1958.91,1434.77 1958.42,1434.77C1957.14,1434.77 1955.38,1433.29 1955.38,1431.24C1955.38,1431.03 1955.38,1430.67 1955.52,1430.32L1955.94,1428.41L1957.14,1414.55C1957.22,1413.84 1957.29,1412.92 1957.29,1412.22C1957.29,1410.87 1958.28,1410.52 1958.98,1410.52C1959.62,1410.52 1960.47,1410.8 1961.11,1411.16L1970.58,1410.52C1971.5,1410.45 1972.91,1410.38 1973.83,1410.17L1974.12,1410.17C1975.67,1410.17 1976.52,1412.64 1976.52,1413.63C1976.52,1414.41 1976.1,1415.4 1975.03,1415.47L1971.08,1415.68L1961.74,1416.32L1960.68,1426.92C1962.59,1425.65 1964.71,1424.94 1967.47,1424.94C1973.48,1424.94 1978.57,1429.96 1978.57,1438.31C1978.57,1446.02 1974.68,1453.16 1965.13,1453.16C1959.69,1453.16 1954.03,1448.42 1954.03,1445.66C1954.03,1444.32 1954.88,1441.77 1956.51,1441.77C1957.14,1441.77 1957.64,1442.2 1957.85,1442.69C1959.69,1445.66 1961.81,1447.92 1965.13,1447.92C1971.22,1447.92 1973.62,1443.47 1973.62,1438.38C1973.62,1433.01 1971,1430.04 1966.9,1430.04C1964.57,1430.04 1962.52,1431.17 1960.96,1432.86L1959.55,1434.35ZM1983.52,1452.45C1981.75,1452.45 1980.69,1450.33 1980.69,1448.91C1980.69,1448.49 1980.76,1447.92 1981.04,1447.43C1981.54,1446.79 1981.82,1446.37 1982.03,1445.87C1984.09,1441.7 1987.76,1435.48 1992.29,1430.88C1996.6,1426.5 1998.93,1423.25 1998.93,1420C1998.93,1417.03 1997.1,1414.55 1993.7,1414.55C1990.1,1414.55 1987.62,1416.88 1986.56,1419.92C1986.35,1420.7 1985.71,1421.97 1984.44,1421.97C1983.45,1421.97 1981.54,1420.35 1981.54,1418.58C1981.54,1418.16 1981.61,1417.52 1981.96,1417.03C1984.23,1412.57 1988.12,1409.46 1993.84,1409.46C2000.07,1409.46 2004.17,1413.84 2004.17,1420C2004.17,1425.72 2000.42,1430.11 1995.61,1434.84C1991.79,1438.59 1988.96,1443.26 1987.12,1446.93C1988.82,1446.79 1990.8,1446.72 1992.29,1446.72C1994.83,1446.72 1996.53,1446.79 1998.65,1446.79C1999.57,1446.79 2001.27,1446.72 2001.97,1446.72C2003.74,1446.72 2004.59,1449.27 2004.59,1450.33C2004.59,1451.18 2004.1,1452.17 2002.96,1452.17C1998.3,1451.74 1995.68,1451.74 1991.72,1451.74C1989.95,1451.74 1988.26,1451.74 1986.13,1452.03C1985.57,1452.03 1984.01,1452.38 1983.8,1452.45L1983.52,1452.45Z" style="fill-rule:nonzero;"/>
        </g>
    </g>
</svg>
