<?xml version="1.0" encoding="UTF-8" standalone="no"?>
<!DOCTYPE svg PUBLIC "-//W3C//DTD SVG 1.1//EN" "http://www.w3.org/Graphics/SVG/1.1/DTD/svg11.dtd">
<svg width="100%" height="100%" viewBox="0 0 96 96" version="1.1" xmlns="http://www.w3.org/2000/svg" xmlns:xlink="http://www.w3.org/1999/xlink" xml:space="preserve" xmlns:serif="http://www.serif.com/" style="fill-rule:evenodd;clip-rule:evenodd;stroke-linejoin:round;stroke-miterlimit:2;">
    <g transform="matrix(1,0,0,1,-1309.63,-3773.28)">
        <g transform="matrix(1,0,0,1,-110.019,-3591.86)">
            <path d="M1515.25,7412.94C1515.25,7386.55 1493.85,7365.15 1467.45,7365.15C1441.05,7365.15 1419.65,7386.55 1419.65,7412.94C1419.65,7439.35 1441.05,7460.65 1467.45,7460.65C1493.85,7460.65 1515.25,7439.35 1515.25,7412.94ZM1496.05,7424.44C1496.05,7425.44 1496.25,7431.55 1496.25,7433.44C1496.25,7435.44 1494.15,7435.74 1493.45,7435.74C1491.95,7435.74 1488.25,7434.74 1488.25,7431.94C1488.25,7430.55 1488.45,7426.44 1488.45,7424.44L1488.45,7408.44C1488.45,7401.74 1485.65,7397.94 1481.95,7397.94C1477.65,7397.94 1471.45,7403.74 1471.45,7410.65L1471.45,7424.44C1471.45,7427.65 1471.75,7431.55 1471.75,7433.44C1471.75,7435.44 1469.65,7435.74 1468.95,7435.74C1467.45,7435.74 1463.75,7434.74 1463.75,7431.94C1463.75,7430.55 1463.95,7426.44 1463.95,7424.44L1463.95,7408.44C1463.95,7401.44 1462.35,7397.94 1458.75,7397.94C1456.95,7397.94 1448.65,7399.15 1447.35,7416.05C1447.15,7418.74 1447.15,7421.55 1447.15,7424.44C1447.15,7427.94 1447.45,7431.55 1447.45,7433.44C1447.45,7435.44 1445.35,7435.74 1444.65,7435.74C1443.15,7435.74 1439.45,7434.74 1439.45,7431.94C1439.45,7430.55 1439.55,7425.65 1439.55,7424.44L1439.55,7403.15C1439.55,7401.55 1439.35,7395.24 1439.35,7393.24C1439.35,7391.24 1441.45,7390.94 1442.15,7390.94C1443.65,7390.94 1447.35,7391.94 1447.35,7394.74L1447.35,7395.85C1450.35,7392.44 1454.55,7390.74 1458.75,7390.74C1464.45,7390.74 1467.85,7393.55 1469.55,7397.05C1472.75,7392.94 1477.55,7390.74 1482.25,7390.74C1492.25,7390.74 1496.05,7400.05 1496.05,7408.15L1496.05,7424.44Z" style="fill-rule:nonzero;"/>
        </g>
    </g>
</svg>
