<?xml version="1.0" encoding="UTF-8" standalone="no"?>
<!DOCTYPE svg PUBLIC "-//W3C//DTD SVG 1.1//EN" "http://www.w3.org/Graphics/SVG/1.1/DTD/svg11.dtd">
<svg width="100%" height="100%" viewBox="0 0 96 96" version="1.1" xmlns="http://www.w3.org/2000/svg" xmlns:xlink="http://www.w3.org/1999/xlink" xml:space="preserve" xmlns:serif="http://www.serif.com/" style="fill-rule:evenodd;clip-rule:evenodd;stroke-linejoin:round;stroke-miterlimit:2;">
    <g transform="matrix(1,0,0,1,-109.628,-3323.28)">
        <g transform="matrix(1,0,0,1,-110.019,-3591.86)">
            <path d="M315.248,6962.94C315.248,6936.55 293.848,6915.15 267.448,6915.15C241.048,6915.15 219.648,6936.55 219.648,6962.94C219.648,6989.35 241.048,7010.65 267.448,7010.65C293.848,7010.65 315.248,6989.35 315.248,6962.94ZM263.848,6982.55C263.848,6985.74 264.248,6988.94 264.248,6990.74C264.248,6991.94 263.148,6993.05 261.348,6993.05C259.048,6993.05 256.048,6991.35 256.048,6989.35C256.048,6988.05 256.248,6983.55 256.248,6982.35L256.248,6979.55L240.248,6980.05C239.848,6980.05 238.748,6980.15 236.848,6980.65L237.048,6980.55L236.748,6980.55C234.348,6980.55 231.848,6978.15 231.848,6975.44C231.848,6974.85 232.048,6973.94 232.648,6973.05L234.048,6971.15L235.248,6969.55C241.148,6959.55 250.848,6941.74 253.548,6934.44C253.948,6933.15 255.048,6932.94 255.748,6932.94C257.948,6932.94 260.648,6936.15 260.648,6938.44C260.648,6939.05 260.548,6939.65 260.148,6940.15C259.348,6941.35 258.248,6943.05 257.548,6944.35C253.448,6952.35 247.148,6963.85 241.748,6972.94L256.248,6972.65L256.248,6957.55C256.248,6955.94 256.048,6950.85 256.048,6949.05C256.048,6947.94 257.148,6946.74 258.948,6946.74C261.148,6946.74 264.048,6948.44 264.048,6950.55C264.048,6951.74 263.848,6955.65 263.848,6957.55L263.848,6972.35C265.248,6972.24 267.348,6971.85 268.348,6971.85C270.948,6971.85 272.248,6975.44 272.248,6976.94C272.248,6977.65 271.948,6979.55 270.048,6979.55C268.948,6979.55 265.948,6979.35 263.848,6979.35L263.848,6982.55ZM293.748,6981.94C293.748,6984.15 293.848,6988.65 293.948,6990.74C293.948,6992.15 292.848,6993.05 291.148,6993.05C288.848,6993.05 285.948,6991.24 285.948,6989.44C285.948,6988.15 286.148,6984.15 286.148,6982.44L286.148,6944.35C283.148,6945.65 279.948,6946.85 278.648,6946.85C276.448,6946.85 274.048,6945.05 274.048,6943.65C274.048,6942.44 274.948,6941.74 275.748,6941.44C279.548,6939.94 283.148,6937.94 285.448,6936.24L285.948,6935.74C286.148,6935.44 286.548,6935.15 286.848,6934.74C287.748,6933.85 288.948,6933.15 289.848,6933.15C291.748,6933.15 294.248,6935.15 294.248,6937.55C294.248,6938.85 293.748,6940.24 293.748,6942.44L293.748,6981.94Z" style="fill-rule:nonzero;"/>
        </g>
    </g>
</svg>
