<?xml version="1.0" encoding="UTF-8" standalone="no"?>
<!DOCTYPE svg PUBLIC "-//W3C//DTD SVG 1.1//EN" "http://www.w3.org/Graphics/SVG/1.1/DTD/svg11.dtd">
<svg width="100%" height="100%" viewBox="0 0 89 89" version="1.1" xmlns="http://www.w3.org/2000/svg" xmlns:xlink="http://www.w3.org/1999/xlink" xml:space="preserve" xmlns:serif="http://www.serif.com/" style="fill-rule:evenodd;clip-rule:evenodd;stroke-linejoin:round;stroke-miterlimit:2;">
    <g transform="matrix(1,0,0,1,-958.698,-1021.63)">
        <g transform="matrix(1.41414,0,0,1.41429,-177.055,-770.755)">
            <path d="M865.503,1329.71L865.503,1267.34L803.14,1267.34L803.14,1329.71L865.503,1329.71ZM857.372,1283.18C858.433,1283.18 859.14,1284.1 859.14,1285.3C859.14,1287.85 853.059,1293.86 851.15,1295.34C856.524,1298.31 859.352,1302.13 859.352,1307.93C859.352,1315.64 854.261,1320.52 846.908,1320.52C840.19,1320.52 835.948,1315.42 835.948,1308.71C835.948,1303.55 838.493,1299.66 842.382,1296.26C838.776,1293.86 837.503,1291.24 837.503,1287.42C837.503,1281.77 841.392,1276.89 847.756,1276.89C851.998,1276.89 854.968,1279.72 856.948,1282.97C856.948,1283.04 857.019,1283.11 857.019,1283.18L857.372,1283.18ZM828.029,1312.74C828.029,1315.07 828.312,1317.33 828.312,1318.68C828.312,1319.45 827.675,1320.3 826.544,1320.3C825.13,1320.3 823.291,1319.03 823.291,1317.62C823.291,1316.7 823.433,1313.44 823.433,1312.6L823.433,1310.55L813.534,1310.9C813.251,1310.9 812.615,1311.04 811.413,1311.39L811.554,1311.32L811.342,1311.32C809.857,1311.32 808.372,1309.56 808.372,1307.65C808.372,1307.15 808.443,1306.52 808.796,1305.88C811.695,1301.85 820.039,1283.75 821.665,1278.02C821.948,1277.1 822.655,1276.96 823.009,1276.96C824.423,1276.96 826.12,1279.22 826.12,1280.92C826.12,1281.34 826.049,1281.77 825.837,1282.12C825.271,1282.97 824.564,1284.24 824.211,1285.16C821.665,1290.96 817.705,1299.23 814.453,1305.81L823.433,1305.6L823.433,1294.71C823.433,1293.58 823.291,1289.9 823.291,1288.56C823.291,1287.78 823.928,1286.93 825.059,1286.93C826.402,1286.93 828.17,1288.13 828.17,1289.62C828.17,1290.54 828.029,1293.29 828.029,1294.71L828.029,1305.38C828.948,1305.31 830.221,1305.03 830.857,1305.03C832.483,1305.03 833.261,1307.65 833.261,1308.71C833.261,1309.2 833.049,1310.55 831.847,1310.55C831.211,1310.55 829.372,1310.4 828.029,1310.4L828.029,1312.74ZM846.908,1298.74C842.736,1302.2 840.615,1305.17 840.615,1308.57C840.615,1311.96 842.453,1315.35 846.908,1315.35C851.645,1315.35 854.756,1312.31 854.756,1308.21C854.756,1304.68 853.271,1301.92 847.685,1299.09C847.473,1298.95 847.19,1298.81 846.908,1298.74ZM853.413,1286.58C853.271,1286.36 853.13,1286.15 853.059,1285.94C851.645,1283.32 850.231,1281.91 847.827,1281.91C843.867,1281.91 842.17,1284.74 842.17,1287.42C842.17,1289.62 842.877,1290.89 846.695,1292.94C849.17,1291.03 851.433,1288.77 853.413,1286.58Z" style="fill-rule:nonzero;"/>
        </g>
    </g>
</svg>
