<?xml version="1.0" encoding="UTF-8" standalone="no"?>
<!DOCTYPE svg PUBLIC "-//W3C//DTD SVG 1.1//EN" "http://www.w3.org/Graphics/SVG/1.1/DTD/svg11.dtd">
<svg width="100%" height="100%" viewBox="0 0 96 96" version="1.1" xmlns="http://www.w3.org/2000/svg" xmlns:xlink="http://www.w3.org/1999/xlink" xml:space="preserve" xmlns:serif="http://www.serif.com/" style="fill-rule:evenodd;clip-rule:evenodd;stroke-linejoin:round;stroke-miterlimit:2;">
    <g transform="matrix(1,0,0,1,-809.628,-3023.28)">
        <g transform="matrix(1,0,0,1,-110.019,-3591.86)">
            <path d="M1015.25,6662.94C1015.25,6636.55 993.848,6615.15 967.448,6615.15C941.048,6615.15 919.648,6636.55 919.648,6662.94C919.648,6689.35 941.048,6710.65 967.448,6710.65C993.848,6710.65 1015.25,6689.35 1015.25,6662.94ZM999.948,6633.94C1001.75,6634.24 1004.45,6636.44 1004.45,6638.74C1004.45,6639.85 1003.95,6640.85 1003.35,6641.74C995.648,6657.05 986.548,6682.44 984.748,6690.94C984.348,6692.94 982.548,6693.24 981.248,6693.24C980.948,6693.24 980.548,6693.15 980.048,6693.15C977.848,6692.85 976.648,6691.74 976.648,6690.15C976.648,6689.24 977.048,6688.65 977.248,6687.85C982.848,6671.65 987.048,6659.65 994.948,6641.65L977.148,6643.15C976.248,6643.24 975.448,6643.35 974.748,6643.35C971.548,6643.35 969.448,6639.65 969.448,6637.85C969.448,6637.24 969.748,6635.94 971.348,6635.94C972.148,6635.94 972.948,6636.05 974.248,6636.05L975.248,6636.05L996.248,6634.55C996.748,6634.55 997.248,6634.35 997.748,6634.24C998.348,6634.05 999.048,6633.94 999.648,6633.94L999.948,6633.94ZM942.948,6637.74C945.248,6635.05 948.348,6633.24 951.948,6633.24C962.448,6633.24 967.248,6646.55 967.248,6662.35C967.248,6678.44 962.248,6693.94 950.248,6693.94C938.748,6693.94 933.948,6680.44 933.948,6664.44C933.948,6653.44 937.848,6637.55 942.148,6637.55C942.448,6637.55 942.648,6637.65 942.948,6637.74ZM949.948,6686.74C956.848,6686.74 960.348,6675.74 960.348,6661.74C960.348,6651.65 958.548,6640.24 951.648,6640.24C947.748,6640.24 940.948,6647.35 940.948,6664.35C940.948,6677.74 943.748,6686.74 949.948,6686.74Z" style="fill-rule:nonzero;"/>
        </g>
    </g>
</svg>
