<?xml version="1.0" encoding="UTF-8" standalone="no"?>
<!DOCTYPE svg PUBLIC "-//W3C//DTD SVG 1.1//EN" "http://www.w3.org/Graphics/SVG/1.1/DTD/svg11.dtd">
<svg width="100%" height="100%" viewBox="0 0 96 96" version="1.1" xmlns="http://www.w3.org/2000/svg" xmlns:xlink="http://www.w3.org/1999/xlink" xml:space="preserve" xmlns:serif="http://www.serif.com/" style="fill-rule:evenodd;clip-rule:evenodd;stroke-linejoin:round;stroke-miterlimit:2;">
    <g transform="matrix(1,0,0,1,-1009.63,-3773.28)">
        <g transform="matrix(1,0,0,1,-110.019,-3591.86)">
            <path d="M1215.25,7412.94C1215.25,7386.55 1193.85,7365.15 1167.45,7365.15C1141.05,7365.15 1119.65,7386.55 1119.65,7412.94C1119.65,7439.35 1141.05,7460.65 1167.45,7460.65C1193.85,7460.65 1215.25,7439.35 1215.25,7412.94ZM1171.75,7386.55C1168.55,7386.55 1166.25,7383.15 1166.25,7380.55C1166.25,7377.65 1167.85,7375.55 1170.95,7375.55C1173.85,7375.55 1176.45,7378.85 1176.45,7381.65C1176.45,7384.44 1174.65,7386.55 1171.75,7386.55ZM1175.15,7438.74C1175.15,7443.44 1173.65,7451.24 1165.05,7451.24C1158.95,7451.24 1154.85,7448.24 1154.85,7445.65C1154.85,7444.05 1156.15,7440.94 1158.55,7440.94C1159.65,7440.94 1160.35,7441.44 1160.95,7442.15C1162.25,7443.65 1163.75,7443.85 1165.05,7443.85C1167.35,7443.85 1167.55,7440.74 1167.55,7438.85L1167.55,7405.24C1167.55,7403.65 1167.35,7397.74 1167.35,7395.85C1167.35,7394.44 1168.45,7393.55 1170.15,7393.55C1172.35,7393.55 1175.35,7395.24 1175.35,7397.35C1175.35,7398.65 1175.15,7403.15 1175.15,7405.24L1175.15,7438.74Z" style="fill-rule:nonzero;"/>
        </g>
    </g>
</svg>
