<?xml version="1.0" encoding="UTF-8" standalone="no"?>
<!DOCTYPE svg PUBLIC "-//W3C//DTD SVG 1.1//EN" "http://www.w3.org/Graphics/SVG/1.1/DTD/svg11.dtd">
<svg width="100%" height="100%" viewBox="0 0 96 96" version="1.1" xmlns="http://www.w3.org/2000/svg" xmlns:xlink="http://www.w3.org/1999/xlink" xml:space="preserve" xmlns:serif="http://www.serif.com/" style="fill-rule:evenodd;clip-rule:evenodd;stroke-linejoin:round;stroke-miterlimit:2;">
    <g transform="matrix(1,0,0,1,-2009.63,-3773.28)">
        <g transform="matrix(1,0,0,1,-110.019,-3591.86)">
            <path d="M2215.25,7412.94C2215.25,7386.55 2193.85,7365.15 2167.45,7365.15C2141.05,7365.15 2119.65,7386.55 2119.65,7412.94C2119.65,7439.35 2141.05,7460.65 2167.45,7460.65C2193.85,7460.65 2215.25,7439.35 2215.25,7412.94ZM2168.25,7430.94C2168.25,7434.35 2168.25,7435.35 2170.05,7435.35C2171.95,7435.35 2174.55,7434.05 2177.55,7431.74C2178.45,7431.05 2179.55,7430.44 2180.55,7430.44C2182.05,7430.44 2182.75,7431.55 2182.75,7432.65C2182.75,7435.55 2175.65,7442.94 2169.65,7442.94C2162.45,7442.94 2160.75,7438.05 2160.75,7430.74L2160.75,7404.94L2156.55,7405.24L2156.35,7405.24C2153.75,7405.24 2152.25,7402.24 2152.25,7400.65C2152.25,7399.44 2153.15,7398.24 2154.65,7398.24L2160.75,7398.24L2160.75,7395.24C2160.75,7393.65 2160.55,7388.15 2160.55,7386.15C2160.55,7384.24 2162.45,7383.85 2163.35,7383.85C2164.75,7383.85 2168.45,7384.85 2168.45,7387.65C2168.45,7389.05 2168.25,7393.24 2168.25,7395.24L2168.25,7397.94L2169.25,7397.94C2171.35,7397.85 2174.75,7397.44 2175.95,7397.44C2178.55,7397.44 2179.95,7400.35 2179.95,7401.94C2179.95,7403.15 2179.15,7404.44 2177.55,7404.44C2176.35,7404.44 2172.55,7404.44 2170.35,7404.55L2168.25,7404.65L2168.25,7430.94Z" style="fill-rule:nonzero;"/>
        </g>
    </g>
</svg>
