<?xml version="1.0" encoding="UTF-8" standalone="no"?>
<!DOCTYPE svg PUBLIC "-//W3C//DTD SVG 1.1//EN" "http://www.w3.org/Graphics/SVG/1.1/DTD/svg11.dtd">
<svg width="100%" height="100%" viewBox="0 0 96 96" version="1.1" xmlns="http://www.w3.org/2000/svg" xmlns:xlink="http://www.w3.org/1999/xlink" xml:space="preserve" xmlns:serif="http://www.serif.com/" style="fill-rule:evenodd;clip-rule:evenodd;stroke-linejoin:round;stroke-miterlimit:2;">
    <g transform="matrix(1,0,0,1,-1309.63,-3023.28)">
        <g transform="matrix(1,0,0,1,-110.019,-3591.86)">
            <path d="M1515.25,6662.94C1515.25,6636.55 1493.85,6615.15 1467.45,6615.15C1441.05,6615.15 1419.65,6636.55 1419.65,6662.94C1419.65,6689.35 1441.05,6710.65 1467.45,6710.65C1493.85,6710.65 1515.25,6689.35 1515.25,6662.94ZM1496.15,6684.44C1498.65,6684.44 1500.15,6687.85 1500.15,6689.44C1500.15,6690.65 1499.45,6692.05 1497.55,6692.05C1496.65,6692.05 1493.85,6691.65 1491.15,6691.55C1490.05,6691.55 1487.15,6691.44 1475.65,6691.44C1473.35,6691.44 1471.35,6691.44 1469.25,6691.74C1468.45,6691.74 1466.35,6692.15 1465.65,6692.35L1465.05,6692.35C1462.35,6692.35 1460.65,6689.35 1460.65,6687.24C1460.65,6686.65 1460.85,6685.94 1461.15,6685.35C1461.55,6684.74 1461.95,6684.35 1462.25,6683.94L1462.85,6683.15C1465.95,6677.65 1472.65,6669.55 1480.95,6662.44C1487.75,6656.65 1491.15,6651.74 1491.15,6647.24C1491.15,6643.35 1488.35,6640.05 1482.65,6640.05C1477.05,6640.05 1472.75,6643.44 1471.25,6647.55C1470.65,6649.15 1469.35,6650.35 1468.05,6650.35C1466.75,6650.35 1463.85,6648.24 1463.85,6645.44C1463.85,6642.65 1469.75,6632.74 1482.75,6632.74C1492.45,6632.74 1498.95,6638.55 1498.95,6647.24C1498.95,6654.74 1493.75,6661.24 1486.25,6667.74C1479.55,6673.55 1474.25,6679.24 1470.65,6684.55C1473.85,6684.44 1477.85,6684.44 1480.05,6684.44L1496.15,6684.44ZM1450.95,6690.94C1450.95,6692.24 1449.75,6693.05 1448.25,6693.05C1445.85,6693.05 1443.05,6691.24 1443.05,6689.44C1443.05,6688.15 1443.25,6684.15 1443.25,6682.44L1443.25,6644.35C1440.15,6645.65 1437.25,6646.85 1435.65,6646.85C1433.55,6646.85 1431.05,6645.05 1431.05,6643.65C1431.05,6642.44 1432.05,6641.74 1432.75,6641.44C1436.65,6639.94 1440.25,6637.94 1442.55,6636.24L1442.95,6635.74L1443.85,6634.74C1444.85,6633.85 1445.95,6633.15 1446.85,6633.15C1448.75,6633.15 1451.25,6635.15 1451.25,6637.55C1451.25,6638.85 1450.75,6640.24 1450.75,6642.44L1450.75,6681.94C1450.75,6684.15 1450.85,6688.65 1450.95,6690.74L1450.95,6690.94Z" style="fill-rule:nonzero;"/>
        </g>
    </g>
</svg>
