<?xml version="1.0" encoding="UTF-8" standalone="no"?>
<!DOCTYPE svg PUBLIC "-//W3C//DTD SVG 1.1//EN" "http://www.w3.org/Graphics/SVG/1.1/DTD/svg11.dtd">
<svg width="100%" height="100%" viewBox="0 0 89 89" version="1.1" xmlns="http://www.w3.org/2000/svg" xmlns:xlink="http://www.w3.org/1999/xlink" xml:space="preserve" xmlns:serif="http://www.serif.com/" style="fill-rule:evenodd;clip-rule:evenodd;stroke-linejoin:round;stroke-miterlimit:2;">
    <g transform="matrix(1,0,0,1,-358.759,-1921.63)">
        <g transform="matrix(1.41414,0,0,1.41429,-177.055,-770.755)">
            <path d="M441.261,1966.07L441.261,1903.71L378.897,1903.71L378.897,1966.07L441.261,1966.07ZM416.514,1927.54C415.099,1924.57 413.402,1924 411.564,1924C406.544,1924 400.534,1930.01 400.534,1937.08C400.534,1943.38 404.423,1945.92 407.675,1945.92C412.837,1945.92 416.372,1942.88 419.13,1939.98C419.695,1939.41 420.332,1938.85 421.18,1938.85C422.312,1938.85 422.736,1939.91 422.736,1940.55C422.736,1942.31 417.645,1951.08 407.675,1951.08C400.746,1951.08 395.089,1946.13 395.089,1937.36C395.089,1927.32 403.433,1918.91 411.423,1918.91C418.493,1918.91 421.039,1923.72 421.039,1924.99C421.039,1926.62 419.483,1928.38 417.998,1928.38C417.291,1928.38 416.796,1927.96 416.514,1927.54Z" style="fill-rule:nonzero;"/>
        </g>
    </g>
</svg>
