<?xml version="1.0" encoding="UTF-8" standalone="no"?>
<!DOCTYPE svg PUBLIC "-//W3C//DTD SVG 1.1//EN" "http://www.w3.org/Graphics/SVG/1.1/DTD/svg11.dtd">
<svg width="100%" height="100%" viewBox="0 0 96 96" version="1.1" xmlns="http://www.w3.org/2000/svg" xmlns:xlink="http://www.w3.org/1999/xlink" xml:space="preserve" xmlns:serif="http://www.serif.com/" style="fill-rule:evenodd;clip-rule:evenodd;stroke-linejoin:round;stroke-miterlimit:2;">
    <g transform="matrix(1,0,0,1,-409.628,-3923.28)">
        <g transform="matrix(1,0,0,1,-110.019,-3591.86)">
            <path d="M615.248,7562.94C615.248,7536.55 593.848,7515.15 567.448,7515.15C541.048,7515.15 519.648,7536.55 519.648,7562.94C519.648,7589.35 541.048,7610.65 567.448,7610.65C593.848,7610.65 615.248,7589.35 615.248,7562.94ZM582.748,7585.35C580.548,7585.24 578.348,7584.94 575.948,7584.85L564.548,7584.85C561.148,7584.85 555.548,7585.15 551.248,7585.65C549.548,7585.65 547.748,7583.15 547.748,7580.55C547.748,7580.15 547.748,7578.35 549.648,7576.44L550.948,7575.05C557.148,7566.65 565.648,7556.24 571.848,7549.24L561.948,7549.94C559.748,7550.05 557.948,7550.35 555.948,7550.55C553.048,7550.55 551.048,7546.74 551.048,7544.94C551.048,7544.35 551.348,7542.65 553.248,7542.65C554.948,7542.65 556.848,7542.74 558.848,7542.74C559.748,7542.74 560.748,7542.74 561.648,7542.65L574.948,7541.74C575.048,7541.74 575.248,7541.74 575.348,7541.65C576.548,7541.44 577.348,7541.24 578.548,7541.24C581.248,7541.55 583.548,7545.05 583.548,7547.05C583.548,7547.94 582.948,7548.85 582.048,7549.55C581.748,7549.85 581.148,7550.15 580.848,7550.44C573.948,7557.74 565.048,7568.74 558.248,7577.74C560.448,7577.65 563.048,7577.55 564.548,7577.55C567.748,7577.55 573.048,7577.55 575.948,7577.65C577.248,7577.65 579.348,7577.55 581.148,7577.44L581.348,7577.44C584.148,7577.44 585.248,7581.24 585.248,7582.74C585.248,7583.65 584.648,7585.35 582.948,7585.35L582.748,7585.35Z" style="fill-rule:nonzero;"/>
        </g>
    </g>
</svg>
