<?xml version="1.0" encoding="UTF-8" standalone="no"?>
<!DOCTYPE svg PUBLIC "-//W3C//DTD SVG 1.1//EN" "http://www.w3.org/Graphics/SVG/1.1/DTD/svg11.dtd">
<svg width="100%" height="100%" viewBox="0 0 89 89" version="1.1" xmlns="http://www.w3.org/2000/svg" xmlns:xlink="http://www.w3.org/1999/xlink" xml:space="preserve" xmlns:serif="http://www.serif.com/" style="fill-rule:evenodd;clip-rule:evenodd;stroke-linejoin:round;stroke-miterlimit:2;">
    <g transform="matrix(1,0,0,1,-158.78,-1021.63)">
        <g transform="matrix(1.41414,0,0,1.41429,-177.055,-770.755)">
            <path d="M299.847,1329.71L299.847,1267.34L237.483,1267.34L237.483,1329.71L299.847,1329.71ZM275.948,1279.93C277.503,1278.02 279.554,1276.75 281.958,1276.75C288.817,1276.75 292.069,1286.36 292.069,1297.75C292.069,1309.34 288.746,1320.52 280.756,1320.52C273.19,1320.52 270.009,1310.83 270.009,1299.23C270.009,1289.05 273.049,1279.86 275.382,1279.86C275.594,1279.86 275.806,1279.86 275.948,1279.93ZM262.301,1312.74C262.301,1315.07 262.514,1317.33 262.514,1318.68C262.514,1319.45 261.877,1320.3 260.746,1320.3C259.332,1320.3 257.493,1319.03 257.493,1317.62C257.493,1316.7 257.635,1313.44 257.635,1312.6L257.635,1310.55L247.736,1310.9C247.453,1310.9 246.887,1311.04 245.756,1311.32L245.615,1311.32C244.13,1311.32 242.574,1309.56 242.574,1307.65C242.574,1307.15 242.645,1306.52 242.998,1305.88C244.342,1303.97 244.554,1303.4 244.625,1303.33C248.726,1295.41 254.524,1282.33 255.938,1278.02C256.221,1277.1 256.857,1276.96 257.281,1276.96C258.625,1276.96 260.322,1279.22 260.322,1280.92C260.322,1281.34 260.251,1281.77 260.039,1282.12C259.473,1282.97 258.837,1284.24 258.413,1285.16C255.867,1290.96 251.978,1299.23 248.655,1305.81L257.635,1305.6L257.635,1294.71C257.635,1293.58 257.493,1289.9 257.493,1288.56C257.493,1287.78 258.13,1286.93 259.261,1286.93C260.604,1286.93 262.372,1288.13 262.372,1289.62C262.372,1290.54 262.301,1293.29 262.301,1294.71L262.301,1305.38C263.15,1305.31 264.493,1305.03 265.059,1305.03C266.685,1305.03 267.463,1307.65 267.463,1308.71C267.463,1309.2 267.251,1310.55 266.049,1310.55C265.413,1310.55 263.574,1310.4 262.301,1310.4L262.301,1312.74ZM280.615,1315.35C285.211,1315.35 287.473,1307.36 287.473,1297.32C287.473,1288.98 285.564,1281.77 281.746,1281.77C279.13,1281.77 274.604,1286.93 274.604,1299.16C274.604,1308.85 276.514,1315.35 280.615,1315.35Z" style="fill-rule:nonzero;"/>
        </g>
    </g>
</svg>
