<?xml version="1.0" encoding="UTF-8" standalone="no"?>
<!DOCTYPE svg PUBLIC "-//W3C//DTD SVG 1.1//EN" "http://www.w3.org/Graphics/SVG/1.1/DTD/svg11.dtd">
<svg width="100%" height="100%" viewBox="0 0 89 89" version="1.1" xmlns="http://www.w3.org/2000/svg" xmlns:xlink="http://www.w3.org/1999/xlink" xml:space="preserve" xmlns:serif="http://www.serif.com/" style="fill-rule:evenodd;clip-rule:evenodd;stroke-linejoin:round;stroke-miterlimit:2;">
    <g transform="matrix(1,0,0,1,-2202.44,-1442.27)">
        <g transform="matrix(1.41414,0,0,1.41429,-1052.39,-837.704)">
            <path d="M2339.74,1661.25C2339.81,1661.18 2339.81,1661.18 2339.81,1661.04C2345.54,1643.78 2347.1,1639.33 2351.97,1627.66L2339.74,1628.79C2339.18,1628.86 2338.61,1628.93 2338.12,1628.93C2335.71,1628.93 2334.51,1626.11 2334.51,1624.97C2334.51,1624.55 2334.72,1623.56 2335.78,1623.56C2336.35,1623.56 2336.91,1623.63 2337.76,1623.63L2338.47,1623.63L2352.89,1622.57C2353.25,1622.57 2353.53,1622.43 2353.88,1622.36C2354.31,1622.22 2354.73,1622.15 2355.16,1622.15L2355.37,1622.15C2356.64,1622.36 2358.48,1623.98 2358.48,1625.61L2358.48,1625.89C2358.34,1626.67 2358.05,1627.31 2357.77,1627.8C2355.93,1630.56 2346.53,1655.03 2345.04,1663.23C2344.76,1664.71 2343.49,1664.92 2342.57,1664.92C2342.36,1664.92 2342.08,1664.85 2341.72,1664.85C2340.24,1664.64 2339.46,1663.86 2339.46,1662.66C2339.46,1662.24 2339.6,1661.81 2339.67,1661.6L2339.74,1661.25ZM2312.45,1661.25C2312.45,1661.18 2312.45,1661.18 2312.52,1661.04C2313.09,1659.34 2313.51,1657.78 2313.86,1656.79C2316.76,1647.74 2320.58,1637.42 2324.61,1627.66L2312.38,1628.79C2311.81,1628.86 2311.25,1628.93 2310.75,1628.93C2307.92,1628.93 2307.14,1625.47 2307.14,1624.97C2307.14,1624.55 2307.36,1623.56 2308.42,1623.56C2309.05,1623.56 2309.55,1623.63 2310.47,1623.63L2311.11,1623.63L2325.53,1622.57C2325.88,1622.57 2326.24,1622.43 2326.52,1622.36C2327.01,1622.22 2327.44,1622.15 2327.86,1622.15L2328.08,1622.15C2329.28,1622.36 2331.12,1623.98 2331.12,1625.61L2331.12,1625.89C2331.04,1626.67 2330.69,1627.31 2330.41,1627.8C2326.24,1636.15 2319.52,1654.6 2317.68,1663.23C2317.4,1664.71 2316.2,1664.92 2315.21,1664.92C2314.99,1664.92 2314.71,1664.85 2314.43,1664.85C2312.94,1664.64 2312.1,1663.86 2312.1,1662.66C2312.1,1662.24 2312.24,1661.81 2312.31,1661.6L2312.45,1661.25ZM2358.48,1674.47C2361.87,1674.47 2363.99,1671.92 2363.99,1668.95L2363.99,1617.62C2363.99,1614.16 2361.52,1612.11 2358.48,1612.11L2307.14,1612.11C2303.68,1612.11 2301.63,1614.44 2301.63,1617.62L2301.63,1668.95C2301.63,1672.14 2304.11,1674.47 2307.14,1674.47L2358.48,1674.47Z" style="fill-rule:nonzero;"/>
        </g>
    </g>
</svg>
