<?xml version="1.0" encoding="UTF-8" standalone="no"?>
<!DOCTYPE svg PUBLIC "-//W3C//DTD SVG 1.1//EN" "http://www.w3.org/Graphics/SVG/1.1/DTD/svg11.dtd">
<svg width="100%" height="100%" viewBox="0 0 89 89" version="1.1" xmlns="http://www.w3.org/2000/svg" xmlns:xlink="http://www.w3.org/1999/xlink" xml:space="preserve" xmlns:serif="http://www.serif.com/" style="fill-rule:evenodd;clip-rule:evenodd;stroke-linejoin:round;stroke-miterlimit:2;">
    <g transform="matrix(1,0,0,1,-658.729,-571.632)">
        <g transform="matrix(1.41414,0,0,1.41429,-177.055,-770.755)">
            <path d="M653.382,1011.53L653.382,949.162L591.019,949.162L591.019,1011.53L653.382,1011.53ZM625.099,976.031C627.291,974.829 629.837,974.122 632.806,974.122C639.453,974.122 645.463,979.072 645.463,987.486C645.463,995.263 640.938,1002.33 630.261,1002.33C625.241,1002.33 621.14,999.859 618.312,996.748C617.817,996.253 617.604,995.546 617.604,994.839C617.604,993.496 618.594,990.95 620.362,990.95C621.069,990.95 621.564,991.375 621.847,991.87C623.827,994.769 626.514,997.102 630.261,997.102C637.049,997.102 640.019,992.577 640.019,987.556C640.019,982.253 636.766,979.213 632.241,979.213C629.554,979.213 627.009,980.344 625.241,982.041C623.968,983.314 623.332,983.95 622.483,983.95C621.069,983.95 619.089,982.465 619.089,980.415C619.089,980.203 619.089,979.849 619.231,979.496C619.443,978.718 619.514,978.082 619.655,977.587L621.776,963.728C621.918,962.95 621.918,962.031 621.918,961.395C621.918,960.051 622.978,959.698 623.756,959.698C624.463,959.698 625.382,959.981 626.16,960.334L637.332,959.486C638.322,959.415 639.877,959.344 640.938,959.132L641.221,959.132C642.988,959.132 643.908,961.607 643.908,962.597C643.908,963.375 643.483,964.364 642.281,964.435C641.221,964.506 639.524,964.506 637.897,964.647L626.796,965.496L625.099,976.031ZM609.968,1000.57C609.968,1001.56 609.12,1002.12 607.988,1002.12C606.291,1002.12 604.241,1000.85 604.241,999.506C604.241,998.587 604.382,995.688 604.382,994.486L604.382,966.981C601.766,968.253 599.009,968.819 598.938,968.819C597.382,968.819 595.615,967.476 595.615,966.486C595.615,965.566 596.322,965.142 596.887,964.93C599.645,963.87 602.19,962.385 603.887,961.112L604.17,960.758L604.877,960.122C605.514,959.415 606.362,958.92 606.998,958.92C608.342,958.92 610.18,960.405 610.18,962.102C610.18,963.021 609.827,964.011 609.827,965.637L609.827,994.132C609.827,995.688 609.897,999.011 609.968,1000.43L609.968,1000.57Z" style="fill-rule:nonzero;"/>
        </g>
    </g>
</svg>
