<?xml version="1.0" encoding="UTF-8" standalone="no"?>
<!DOCTYPE svg PUBLIC "-//W3C//DTD SVG 1.1//EN" "http://www.w3.org/Graphics/SVG/1.1/DTD/svg11.dtd">
<svg width="100%" height="100%" viewBox="0 0 89 89" version="1.1" xmlns="http://www.w3.org/2000/svg" xmlns:xlink="http://www.w3.org/1999/xlink" xml:space="preserve" xmlns:serif="http://www.serif.com/" style="fill-rule:evenodd;clip-rule:evenodd;stroke-linejoin:round;stroke-miterlimit:2;">
    <g transform="matrix(1,0,0,1,-1502.52,-1592.27)">
        <g transform="matrix(1.41414,0,0,1.41429,-1052.39,-837.704)">
            <path d="M1863.53,1780.53C1866.92,1780.53 1869.04,1777.98 1869.04,1775.02L1869.04,1723.68C1869.04,1720.22 1866.57,1718.17 1863.53,1718.17L1812.2,1718.17C1808.73,1718.17 1806.68,1720.5 1806.68,1723.68L1806.68,1775.02C1806.68,1778.2 1809.15,1780.53 1812.2,1780.53L1863.53,1780.53ZM1845.64,1730.75C1847.27,1728.84 1849.39,1727.57 1851.93,1727.57C1859.22,1727.57 1862.61,1737.19 1862.61,1748.57C1862.61,1760.17 1859.08,1771.34 1850.73,1771.34C1842.74,1771.34 1839.42,1761.65 1839.42,1750.06C1839.42,1741.15 1842.25,1730.68 1845.08,1730.68C1845.29,1730.68 1845.43,1730.68 1845.64,1730.75ZM1834.04,1734.01C1835.11,1734.01 1835.88,1734.92 1835.88,1736.13C1835.88,1738.88 1828.53,1745.39 1827.47,1746.17C1833.12,1749.14 1836.1,1752.95 1836.1,1758.75C1836.1,1766.46 1830.72,1771.34 1823.01,1771.34C1815.87,1771.34 1811.49,1766.25 1811.49,1759.53C1811.49,1754.37 1814.11,1750.48 1818.21,1747.09C1814.39,1744.68 1813.04,1742.07 1813.04,1738.25C1813.04,1732.59 1817.22,1727.71 1823.86,1727.71C1828.32,1727.71 1831.43,1730.54 1833.55,1733.79C1833.62,1733.86 1833.62,1733.93 1833.62,1734.01L1834.04,1734.01ZM1850.52,1766.18C1855.33,1766.18 1857.8,1758.19 1857.8,1748.15C1857.8,1739.8 1855.82,1732.59 1851.72,1732.59C1848.96,1732.59 1844.23,1737.75 1844.23,1749.98C1844.23,1759.67 1846.21,1766.18 1850.52,1766.18ZM1823.01,1749.56C1818.56,1753.03 1816.37,1756 1816.37,1759.39C1816.37,1762.78 1818.28,1766.18 1823.01,1766.18C1827.96,1766.18 1831.22,1763.14 1831.22,1759.04C1831.22,1755.5 1829.73,1752.74 1823.79,1749.91L1823.01,1749.56ZM1829.45,1736.76C1828.03,1734.15 1826.48,1732.73 1823.93,1732.73C1819.83,1732.73 1817.99,1735.56 1817.99,1738.25C1817.99,1740.44 1818.7,1741.71 1822.73,1743.76C1825.42,1741.85 1827.75,1739.59 1829.87,1737.4L1829.45,1736.76Z" style="fill-rule:nonzero;"/>
        </g>
    </g>
</svg>
