<?xml version="1.0" encoding="UTF-8" standalone="no"?>
<!DOCTYPE svg PUBLIC "-//W3C//DTD SVG 1.1//EN" "http://www.w3.org/Graphics/SVG/1.1/DTD/svg11.dtd">
<svg width="100%" height="100%" viewBox="0 0 89 89" version="1.1" xmlns="http://www.w3.org/2000/svg" xmlns:xlink="http://www.w3.org/1999/xlink" xml:space="preserve" xmlns:serif="http://www.serif.com/" style="fill-rule:evenodd;clip-rule:evenodd;stroke-linejoin:round;stroke-miterlimit:2;">
    <g transform="matrix(1,0,0,1,-658.729,-1171.63)">
        <g transform="matrix(1.41414,0,0,1.41429,-177.055,-770.755)">
            <path d="M653.382,1435.77L653.382,1373.4L591.019,1373.4L591.019,1435.77L653.382,1435.77ZM603.746,1400.34C605.584,1399.07 607.705,1398.36 610.463,1398.36C616.473,1398.36 621.564,1403.38 621.564,1411.73C621.564,1419.43 617.675,1426.58 608.2,1426.58C602.685,1426.58 597.099,1421.84 597.099,1419.08C597.099,1417.74 597.948,1415.19 599.574,1415.19C600.211,1415.19 600.635,1415.62 600.918,1416.11C602.685,1419.08 604.877,1421.34 608.2,1421.34C614.281,1421.34 616.615,1416.89 616.615,1411.8C616.615,1406.42 613.998,1403.45 609.968,1403.45C607.564,1403.45 605.584,1404.59 604.029,1406.28C603.746,1406.57 603.11,1407.27 602.544,1407.77C602.261,1408.12 601.978,1408.19 601.483,1408.19C600.211,1408.19 598.443,1406.71 598.443,1404.66C598.443,1404.44 598.443,1404.09 598.514,1403.74C598.726,1403.03 598.867,1402.32 598.938,1401.83L600.211,1387.97C600.281,1387.26 600.352,1386.34 600.352,1385.64C600.352,1384.29 601.342,1383.94 601.978,1383.94C602.685,1383.94 603.463,1384.22 604.17,1384.58L613.574,1383.94C614.493,1383.87 615.908,1383.8 616.827,1383.59L617.11,1383.59C618.665,1383.59 619.514,1386.06 619.514,1387.05C619.514,1387.83 619.089,1388.82 618.029,1388.89L614.069,1389.1L604.806,1389.74L603.746,1400.34ZM629.13,1407.77C628.776,1408.12 628.493,1408.19 627.998,1408.19C626.726,1408.19 624.958,1406.71 624.958,1404.66C624.958,1404.44 624.958,1404.09 625.099,1403.74L625.524,1401.83L626.796,1387.97C626.796,1387.26 626.867,1386.34 626.867,1385.64C626.867,1384.29 627.857,1383.94 628.564,1383.94C629.2,1383.94 629.978,1384.22 630.685,1384.58L640.16,1383.94C641.009,1383.87 642.423,1383.8 643.413,1383.59L643.625,1383.59C645.18,1383.59 646.029,1386.06 646.029,1387.05C646.029,1387.83 645.604,1388.82 644.544,1388.89L640.655,1389.1L631.322,1389.74L630.261,1400.34C632.099,1399.07 634.291,1398.36 636.978,1398.36C643.059,1398.36 648.079,1403.38 648.079,1411.73C648.079,1419.43 644.19,1426.58 634.716,1426.58C629.271,1426.58 623.615,1421.84 623.615,1419.08C623.615,1417.74 624.534,1415.19 626.089,1415.19C626.726,1415.19 627.221,1415.62 627.433,1416.11C629.2,1419.08 631.392,1421.34 634.716,1421.34C640.796,1421.34 643.2,1416.89 643.2,1411.8C643.2,1406.42 640.514,1403.45 636.483,1403.45C634.079,1403.45 632.099,1404.59 630.544,1406.28L629.13,1407.77Z" style="fill-rule:nonzero;"/>
        </g>
    </g>
</svg>
