<?xml version="1.0" encoding="UTF-8" standalone="no"?>
<!DOCTYPE svg PUBLIC "-//W3C//DTD SVG 1.1//EN" "http://www.w3.org/Graphics/SVG/1.1/DTD/svg11.dtd">
<svg width="100%" height="100%" viewBox="0 0 89 89" version="1.1" xmlns="http://www.w3.org/2000/svg" xmlns:xlink="http://www.w3.org/1999/xlink" xml:space="preserve" xmlns:serif="http://www.serif.com/" style="fill-rule:evenodd;clip-rule:evenodd;stroke-linejoin:round;stroke-miterlimit:2;">
    <g transform="matrix(1,0,0,1,-2002.46,-1442.27)">
        <g transform="matrix(1.41414,0,0,1.41429,-1052.39,-837.704)">
            <path d="M2217.07,1674.47C2220.46,1674.47 2222.58,1671.92 2222.58,1668.95L2222.58,1617.62C2222.58,1614.16 2220.11,1612.11 2217.07,1612.11L2165.73,1612.11C2162.27,1612.11 2160.22,1614.44 2160.22,1617.62L2160.22,1668.95C2160.22,1672.14 2162.69,1674.47 2165.73,1674.47L2217.07,1674.47ZM2198.04,1646.47C2197.69,1646.82 2197.41,1646.89 2196.91,1646.89C2195.64,1646.89 2193.87,1645.41 2193.87,1643.36C2193.87,1643.15 2193.87,1642.79 2194.01,1642.44L2194.37,1640.53L2195.64,1626.67C2195.71,1625.96 2195.78,1625.05 2195.78,1624.34C2195.78,1623 2196.77,1622.64 2197.48,1622.64C2198.12,1622.64 2198.89,1622.92 2199.6,1623.28L2209,1622.64C2209.92,1622.57 2211.34,1622.5 2212.33,1622.29L2212.54,1622.29C2214.1,1622.29 2214.94,1624.76 2214.94,1625.75C2214.94,1626.53 2214.52,1627.52 2213.46,1627.59L2209.5,1627.8L2200.24,1628.44L2199.18,1639.05C2201.01,1637.77 2203.14,1637.07 2205.89,1637.07C2211.9,1637.07 2216.99,1642.09 2216.99,1650.43C2216.99,1658.14 2213.11,1665.28 2203.63,1665.28C2198.12,1665.28 2192.53,1660.54 2192.53,1657.78C2192.53,1656.44 2193.38,1653.89 2195,1653.89C2195.64,1653.89 2196.14,1654.32 2196.35,1654.81C2198.12,1657.78 2200.31,1660.05 2203.63,1660.05C2209.71,1660.05 2212.04,1655.59 2212.04,1650.5C2212.04,1645.13 2209.43,1642.16 2205.4,1642.16C2202.99,1642.16 2201.01,1643.29 2199.46,1644.98L2198.04,1646.47ZM2171.74,1661.25L2171.74,1661.04C2178.39,1641.1 2181.43,1633.6 2183.9,1627.66L2171.67,1628.79C2171.11,1628.86 2170.54,1628.93 2170.04,1628.93C2167.64,1628.93 2166.44,1626.11 2166.44,1624.97C2166.44,1624.55 2166.65,1623.56 2167.71,1623.56C2168.35,1623.56 2168.84,1623.63 2169.69,1623.63L2170.4,1623.63L2184.82,1622.57C2185.18,1622.57 2185.53,1622.43 2185.81,1622.36C2186.24,1622.22 2186.73,1622.15 2187.16,1622.15L2187.37,1622.15C2188.57,1622.36 2190.41,1623.98 2190.41,1625.61L2190.41,1625.89C2190.34,1626.67 2189.98,1627.31 2189.7,1627.8C2185.6,1636.01 2178.11,1657.01 2176.97,1663.23C2176.69,1664.71 2175.42,1664.92 2174.5,1664.92C2174.29,1664.92 2174,1664.85 2173.72,1664.85C2172.24,1664.64 2171.39,1663.86 2171.39,1662.66C2171.39,1662.24 2171.53,1661.81 2171.6,1661.6L2171.74,1661.25Z" style="fill-rule:nonzero;"/>
        </g>
    </g>
</svg>
