<?xml version="1.0" encoding="UTF-8" standalone="no"?>
<!DOCTYPE svg PUBLIC "-//W3C//DTD SVG 1.1//EN" "http://www.w3.org/Graphics/SVG/1.1/DTD/svg11.dtd">
<svg width="100%" height="100%" viewBox="0 0 89 89" version="1.1" xmlns="http://www.w3.org/2000/svg" xmlns:xlink="http://www.w3.org/1999/xlink" xml:space="preserve" xmlns:serif="http://www.serif.com/" style="fill-rule:evenodd;clip-rule:evenodd;stroke-linejoin:round;stroke-miterlimit:2;">
    <g transform="matrix(1,0,0,1,-258.769,-1321.63)">
        <g transform="matrix(1.41414,0,0,1.41429,-177.055,-770.755)">
            <path d="M370.554,1541.83L370.554,1479.46L308.19,1479.46L308.19,1541.83L370.554,1541.83ZM327.564,1491.13L328.271,1490.07C328.837,1489.15 329.756,1488.87 330.534,1488.87C331.665,1488.87 333.928,1489.58 333.928,1491.2C333.928,1491.84 333.362,1492.69 333.079,1493.11C329.615,1497.35 326.928,1502.23 324.877,1506.19C326.503,1505.34 328.342,1504.85 330.392,1504.85C337.675,1504.85 342.554,1510.43 342.554,1517.93C342.554,1526.13 337.675,1532.64 329.473,1532.64C322.049,1532.64 316.392,1526.77 316.392,1519.49C316.392,1514.46 317.736,1509.44 320.352,1504.07C322.897,1498.91 325.231,1494.67 327.564,1491.13ZM358.322,1530.87C358.322,1531.86 357.544,1532.42 356.483,1532.42C354.857,1532.42 352.877,1531.15 352.877,1529.81C352.877,1528.89 353.019,1525.99 353.019,1524.79L353.019,1497.28C350.685,1498.49 348.281,1499.12 347.857,1499.12C346.372,1499.12 344.746,1497.78 344.746,1496.79C344.746,1495.87 345.382,1495.44 345.877,1495.23C348.493,1494.17 350.968,1492.69 352.594,1491.41L352.877,1491.06L353.514,1490.42C354.15,1489.72 354.928,1489.22 355.564,1489.22C356.837,1489.22 358.534,1490.71 358.534,1492.4C358.534,1493.32 358.251,1494.31 358.251,1495.94L358.251,1524.43C358.251,1525.99 358.322,1529.31 358.322,1530.73L358.322,1530.87ZM329.473,1527.62C333.928,1527.62 337.322,1523.8 337.322,1518.07C337.322,1513.62 334.635,1509.87 330.322,1509.87C325.019,1509.87 321.554,1514.25 321.554,1519.41C321.554,1524.08 324.806,1527.62 329.473,1527.62Z" style="fill-rule:nonzero;"/>
        </g>
    </g>
</svg>
