<?xml version="1.0" encoding="UTF-8" standalone="no"?>
<!DOCTYPE svg PUBLIC "-//W3C//DTD SVG 1.1//EN" "http://www.w3.org/Graphics/SVG/1.1/DTD/svg11.dtd">
<svg width="100%" height="100%" viewBox="0 0 96 96" version="1.1" xmlns="http://www.w3.org/2000/svg" xmlns:xlink="http://www.w3.org/1999/xlink" xml:space="preserve" xmlns:serif="http://www.serif.com/" style="fill-rule:evenodd;clip-rule:evenodd;stroke-linejoin:round;stroke-miterlimit:2;">
    <g transform="matrix(1,0,0,1,-609.628,-3173.28)">
        <g transform="matrix(1,0,0,1,-110.019,-3591.86)">
            <path d="M815.248,6812.94C815.248,6786.55 793.848,6765.15 767.448,6765.15C741.048,6765.15 719.648,6786.55 719.648,6812.94C719.648,6839.35 741.048,6860.65 767.448,6860.65C793.848,6860.65 815.248,6839.35 815.248,6812.94ZM784.148,6784.35C784.948,6783.05 786.148,6782.65 787.148,6782.65C787.148,6782.65 791.548,6782.65 791.548,6785.94C791.548,6786.85 790.948,6787.94 790.448,6788.55C785.948,6794.44 782.348,6801.15 779.648,6806.74C781.748,6805.44 784.248,6804.85 786.948,6804.85C796.548,6804.85 802.948,6812.55 802.948,6822.94C802.948,6834.24 796.548,6843.35 785.748,6843.35C775.948,6843.35 768.448,6835.15 768.448,6825.15C768.448,6818.15 770.248,6811.24 773.748,6803.74C777.148,6796.55 780.248,6790.65 783.248,6785.85C783.348,6785.65 783.448,6785.44 783.648,6785.24L784.148,6784.35ZM736.848,6842.35C734.448,6842.35 732.948,6839.35 732.948,6837.44C732.948,6836.85 733.048,6836.05 733.548,6835.35C734.148,6834.44 734.548,6833.94 734.948,6833.24C737.748,6827.44 742.848,6818.85 749.048,6812.44C755.048,6806.35 758.348,6801.85 758.348,6797.35C758.348,6793.24 755.648,6789.85 751.048,6789.85C746.048,6789.85 742.648,6793.05 741.148,6797.24C740.848,6798.35 739.948,6800.15 738.148,6800.15C735.948,6800.15 734.148,6796.94 734.148,6795.44C734.148,6792.94 739.248,6782.74 751.248,6782.74C759.848,6782.74 765.548,6788.85 765.548,6797.35C765.548,6805.35 760.348,6811.35 753.648,6817.94C748.348,6823.15 744.448,6829.65 741.948,6834.65C744.248,6834.55 747.048,6834.44 749.048,6834.44C752.648,6834.44 754.948,6834.55 757.948,6834.55C759.148,6834.55 761.548,6834.44 762.448,6834.44C764.948,6834.44 766.148,6837.94 766.148,6839.44C766.148,6840.55 765.448,6841.94 763.848,6841.94C757.848,6841.35 749.048,6841.35 748.348,6841.35C745.848,6841.35 743.448,6841.35 740.548,6841.74C739.848,6841.74 737.848,6842.24 737.348,6842.35L736.848,6842.35ZM785.748,6836.35C791.548,6836.35 796.048,6831.15 796.048,6823.15C796.048,6816.94 792.548,6811.74 786.848,6811.74C779.848,6811.74 775.348,6817.85 775.348,6825.05C775.348,6831.44 779.548,6836.35 785.748,6836.35Z" style="fill-rule:nonzero;"/>
        </g>
    </g>
</svg>
