<?xml version="1.0" encoding="UTF-8" standalone="no"?>
<!DOCTYPE svg PUBLIC "-//W3C//DTD SVG 1.1//EN" "http://www.w3.org/Graphics/SVG/1.1/DTD/svg11.dtd">
<svg width="100%" height="100%" viewBox="0 0 89 89" version="1.1" xmlns="http://www.w3.org/2000/svg" xmlns:xlink="http://www.w3.org/1999/xlink" xml:space="preserve" xmlns:serif="http://www.serif.com/" style="fill-rule:evenodd;clip-rule:evenodd;stroke-linejoin:round;stroke-miterlimit:2;">
    <g transform="matrix(1,0,0,1,-1502.52,-242.274)">
        <g transform="matrix(1.41414,0,0,1.41429,-1052.39,-837.704)">
            <path d="M1863.53,825.984C1866.92,825.984 1869.04,823.439 1869.04,820.469L1869.04,769.136C1869.04,765.671 1866.57,763.621 1863.53,763.621L1812.2,763.621C1808.73,763.621 1806.68,765.954 1806.68,769.136L1806.68,820.469C1806.68,823.651 1809.15,825.984 1812.2,825.984L1863.53,825.984ZM1831.08,776.277C1832.98,774.368 1835.39,773.025 1838.92,773.025C1849.18,773.025 1853.77,782.075 1853.77,794.52C1853.77,806.894 1848.96,816.793 1838.08,816.793C1826.27,816.793 1822.45,807.106 1822.45,795.51C1822.45,785.186 1827.33,776.065 1830.09,776.065C1830.44,776.065 1830.79,776.136 1831.08,776.277ZM1837.93,811.631C1844.58,811.631 1848.19,805.267 1848.19,794.166C1848.19,784.833 1845.29,778.186 1838.71,778.186C1834.75,778.186 1828.03,783.277 1828.03,795.368C1828.03,805.479 1830.51,811.631 1837.93,811.631Z" style="fill-rule:nonzero;"/>
        </g>
    </g>
</svg>
