<?xml version="1.0" encoding="UTF-8" standalone="no"?>
<!DOCTYPE svg PUBLIC "-//W3C//DTD SVG 1.1//EN" "http://www.w3.org/Graphics/SVG/1.1/DTD/svg11.dtd">
<svg width="100%" height="100%" viewBox="0 0 96 96" version="1.1" xmlns="http://www.w3.org/2000/svg" xmlns:xlink="http://www.w3.org/1999/xlink" xml:space="preserve" xmlns:serif="http://www.serif.com/" style="fill-rule:evenodd;clip-rule:evenodd;stroke-linejoin:round;stroke-miterlimit:2;">
    <g transform="matrix(1,0,0,1,-2009.63,-3173.28)">
        <g transform="matrix(1,0,0,1,-110.019,-3591.86)">
            <path d="M2215.25,6812.94C2215.25,6786.55 2193.85,6765.15 2167.45,6765.15C2141.05,6765.15 2119.65,6786.55 2119.65,6812.94C2119.65,6839.35 2141.05,6860.65 2167.45,6860.65C2193.85,6860.65 2215.25,6839.35 2215.25,6812.94ZM2177.55,6787.15C2179.65,6784.44 2182.45,6782.65 2185.75,6782.65C2195.35,6782.65 2199.85,6795.94 2199.85,6811.74C2199.85,6827.85 2195.25,6843.35 2184.15,6843.35C2173.65,6843.35 2169.25,6829.85 2169.25,6813.85C2169.25,6799.74 2173.45,6786.94 2176.75,6786.94C2177.05,6786.94 2177.25,6787.05 2177.55,6787.15ZM2158.55,6832.55C2158.55,6835.74 2158.85,6838.94 2158.85,6840.74C2158.85,6841.94 2157.95,6843.05 2156.45,6843.05C2154.45,6843.05 2151.95,6841.35 2151.95,6839.35C2151.95,6838.05 2152.05,6833.55 2152.05,6832.35L2152.05,6829.55L2138.35,6830.05C2138.05,6830.05 2137.15,6830.15 2135.45,6830.65L2135.65,6830.55L2135.45,6830.55C2133.35,6830.55 2131.25,6828.15 2131.25,6825.44C2131.25,6824.05 2131.75,6823.24 2133.15,6821.15C2133.55,6820.44 2145.35,6797.65 2149.75,6784.44C2150.15,6783.15 2151.05,6782.94 2151.55,6782.94C2153.45,6782.94 2155.85,6786.15 2155.85,6788.44C2155.85,6789.05 2155.75,6789.65 2155.45,6790.15C2154.65,6791.35 2153.75,6793.05 2153.25,6794.35C2149.75,6802.35 2144.25,6813.85 2139.65,6822.94L2152.05,6822.65L2152.05,6807.55C2152.05,6805.94 2151.95,6800.85 2151.95,6799.05C2151.95,6797.94 2152.85,6796.74 2154.35,6796.74C2156.25,6796.74 2158.75,6798.44 2158.75,6800.55C2158.75,6801.74 2158.55,6805.65 2158.55,6807.55L2158.55,6822.35C2159.75,6822.24 2161.55,6821.85 2162.45,6821.85C2164.65,6821.85 2165.75,6825.44 2165.75,6826.94C2165.75,6827.65 2165.45,6829.55 2163.85,6829.55C2162.95,6829.55 2160.35,6829.35 2158.55,6829.35L2158.55,6832.55ZM2183.95,6836.15C2190.35,6836.15 2193.45,6825.05 2193.45,6811.15C2193.45,6799.65 2190.85,6789.65 2185.55,6789.65C2181.85,6789.65 2175.65,6796.74 2175.65,6813.74C2175.65,6827.15 2178.25,6836.15 2183.95,6836.15Z" style="fill-rule:nonzero;"/>
        </g>
    </g>
</svg>
