<?xml version="1.0" encoding="UTF-8" standalone="no"?>
<!DOCTYPE svg PUBLIC "-//W3C//DTD SVG 1.1//EN" "http://www.w3.org/Graphics/SVG/1.1/DTD/svg11.dtd">
<svg width="100%" height="100%" viewBox="0 0 89 89" version="1.1" xmlns="http://www.w3.org/2000/svg" xmlns:xlink="http://www.w3.org/1999/xlink" xml:space="preserve" xmlns:serif="http://www.serif.com/" style="fill-rule:evenodd;clip-rule:evenodd;stroke-linejoin:round;stroke-miterlimit:2;">
    <g transform="matrix(1,0,0,1,-1602.51,-842.274)">
        <g transform="matrix(1.41414,0,0,1.41429,-1052.39,-837.704)">
            <path d="M1934.24,1250.23C1937.63,1250.23 1939.75,1247.68 1939.75,1244.71L1939.75,1193.38C1939.75,1189.91 1937.28,1187.86 1934.24,1187.86L1882.9,1187.86C1879.44,1187.86 1877.39,1190.2 1877.39,1193.38L1877.39,1244.71C1877.39,1247.89 1879.86,1250.23 1882.9,1250.23L1934.24,1250.23ZM1903.2,1216.29C1907.09,1217.28 1910.27,1221.24 1910.27,1226.61C1910.27,1234.32 1906.02,1241.04 1895.84,1241.04C1891.53,1241.04 1887.99,1239.27 1884.95,1236.16C1884.39,1235.52 1884.32,1234.81 1884.32,1234.25C1884.32,1233.12 1885.1,1230.57 1886.86,1230.57C1887.36,1230.57 1887.71,1230.78 1888.21,1231.28C1890.4,1234.11 1892.52,1235.87 1895.84,1235.87C1902.49,1235.87 1905.03,1231.42 1905.03,1226.68C1905.03,1222.72 1902.13,1219.82 1897.82,1219.82C1897.47,1219.82 1897.12,1219.82 1896.69,1219.89C1895.77,1219.96 1894.71,1220.11 1893.72,1220.32C1893.58,1220.39 1893.58,1220.39 1893.44,1220.39C1891.6,1220.39 1890.75,1218.2 1890.75,1217.07C1890.75,1216.29 1891.18,1215.37 1892.24,1215.16C1898.46,1214.66 1903.41,1211.41 1903.41,1207.52C1903.41,1204.41 1901.57,1202.43 1897.89,1202.43C1894.99,1202.43 1892.52,1203.7 1889.9,1206.81C1889.41,1207.45 1888.98,1208.09 1888.07,1208.09C1886.93,1208.09 1885.45,1206.39 1885.45,1204.62C1885.45,1202.15 1891.11,1197.34 1897.82,1197.34C1904.04,1197.34 1908.57,1200.87 1908.57,1207.17C1908.57,1212.61 1904.75,1215.58 1903.2,1216.29ZM1928.01,1232.83C1928.01,1234.39 1928.09,1237.71 1928.15,1239.13C1928.15,1240.19 1927.38,1240.82 1926.25,1240.82C1924.69,1240.82 1922.71,1239.55 1922.71,1238.21C1922.71,1237.29 1922.85,1234.39 1922.85,1233.19L1922.85,1205.68C1921.65,1206.32 1918.75,1207.52 1917.69,1207.52C1916.21,1207.52 1914.51,1206.18 1914.51,1205.19C1914.51,1204.27 1915.14,1203.84 1915.71,1203.63C1918.33,1202.57 1920.8,1201.09 1922.36,1199.81L1922.64,1199.46L1923.28,1198.82C1923.91,1198.12 1924.69,1197.62 1925.33,1197.62C1926.6,1197.62 1928.37,1199.11 1928.37,1200.8C1928.37,1201.72 1928.01,1202.71 1928.01,1204.34L1928.01,1232.83Z" style="fill-rule:nonzero;"/>
        </g>
    </g>
</svg>
