<?xml version="1.0" encoding="UTF-8" standalone="no"?>
<!DOCTYPE svg PUBLIC "-//W3C//DTD SVG 1.1//EN" "http://www.w3.org/Graphics/SVG/1.1/DTD/svg11.dtd">
<svg width="100%" height="100%" viewBox="0 0 89 89" version="1.1" xmlns="http://www.w3.org/2000/svg" xmlns:xlink="http://www.w3.org/1999/xlink" xml:space="preserve" xmlns:serif="http://www.serif.com/" style="fill-rule:evenodd;clip-rule:evenodd;stroke-linejoin:round;stroke-miterlimit:2;">
    <g transform="matrix(1,0,0,1,-158.78,-1321.63)">
        <g transform="matrix(1.41414,0,0,1.41429,-177.055,-770.755)">
            <path d="M299.847,1541.83L299.847,1479.46L237.483,1479.46L237.483,1541.83L299.847,1541.83ZM276.443,1492.05C277.998,1490.14 280.19,1488.87 282.665,1488.87C290.019,1488.87 293.413,1498.49 293.413,1509.87C293.413,1521.46 289.877,1532.64 281.463,1532.64C273.544,1532.64 270.15,1522.95 270.15,1511.35C270.15,1501.24 273.261,1491.98 275.806,1491.98C276.019,1491.98 276.231,1491.98 276.443,1492.05ZM250.988,1506.19C252.473,1505.34 254.17,1504.85 256.009,1504.85C262.514,1504.85 266.968,1510.43 266.968,1517.93C266.968,1526.13 262.514,1532.64 255.16,1532.64C248.443,1532.64 243.352,1526.77 243.352,1519.49C243.352,1514.46 244.554,1509.44 246.958,1504.07C249.221,1498.91 251.342,1494.67 253.392,1491.13C253.534,1491.06 253.604,1490.85 253.746,1490.71C253.817,1490.35 254.524,1488.87 256.15,1488.87C256.291,1488.87 259.12,1488.94 259.12,1491.2C259.12,1491.84 258.695,1492.69 258.413,1493.11C255.231,1497.35 252.827,1502.23 250.988,1506.19ZM281.322,1527.48C286.13,1527.48 288.534,1519.49 288.534,1509.44C288.534,1501.1 286.554,1493.89 282.524,1493.89C279.695,1493.89 275.029,1499.05 275.029,1511.28C275.029,1520.97 277.009,1527.48 281.322,1527.48ZM255.16,1527.62C259.12,1527.62 262.231,1523.8 262.231,1518.07C262.231,1513.62 259.756,1509.87 255.938,1509.87C251.13,1509.87 248.019,1514.25 248.019,1519.41C248.019,1524.08 250.918,1527.62 255.16,1527.62Z" style="fill-rule:nonzero;"/>
        </g>
    </g>
</svg>
