<?xml version="1.0" encoding="UTF-8" standalone="no"?>
<!DOCTYPE svg PUBLIC "-//W3C//DTD SVG 1.1//EN" "http://www.w3.org/Graphics/SVG/1.1/DTD/svg11.dtd">
<svg width="100%" height="100%" viewBox="0 0 96 96" version="1.1" xmlns="http://www.w3.org/2000/svg" xmlns:xlink="http://www.w3.org/1999/xlink" xml:space="preserve" xmlns:serif="http://www.serif.com/" style="fill-rule:evenodd;clip-rule:evenodd;stroke-linejoin:round;stroke-miterlimit:2;">
    <g transform="matrix(1,0,0,1,-1209.63,-3173.28)">
        <g transform="matrix(1,0,0,1,-110.019,-3591.86)">
            <path d="M1415.25,6812.94C1415.25,6786.55 1393.85,6765.15 1367.45,6765.15C1341.05,6765.15 1319.65,6786.55 1319.65,6812.94C1319.65,6839.35 1341.05,6860.65 1367.45,6860.65C1393.85,6860.65 1415.25,6839.35 1415.25,6812.94ZM1373.35,6842.35C1370.85,6842.35 1369.45,6839.35 1369.45,6837.44C1369.45,6836.85 1369.45,6836.05 1369.95,6835.35C1370.65,6834.44 1371.05,6833.94 1371.35,6833.24C1374.15,6827.44 1379.25,6818.85 1385.45,6812.44C1391.45,6806.35 1394.75,6801.85 1394.75,6797.35C1394.75,6793.24 1392.15,6789.85 1387.45,6789.85C1382.45,6789.85 1379.05,6793.05 1377.65,6797.24C1377.25,6798.35 1376.35,6800.15 1374.65,6800.15C1372.15,6800.15 1370.65,6796.74 1370.65,6795.44C1370.65,6792.55 1375.85,6782.74 1387.65,6782.74C1396.35,6782.74 1401.95,6788.85 1401.95,6797.35C1401.95,6805.35 1396.75,6811.35 1390.05,6817.94C1384.85,6823.15 1380.85,6829.65 1378.35,6834.65C1380.75,6834.55 1383.45,6834.44 1385.55,6834.44C1389.05,6834.44 1391.35,6834.55 1394.35,6834.55C1395.55,6834.55 1397.95,6834.44 1398.95,6834.44C1401.35,6834.44 1402.55,6837.94 1402.55,6839.44C1402.55,6840.55 1401.85,6841.94 1400.25,6841.94C1394.35,6841.35 1386.05,6841.35 1384.75,6841.35C1382.35,6841.35 1379.85,6841.35 1376.95,6841.74C1376.25,6841.74 1374.25,6842.24 1373.75,6842.35L1373.35,6842.35ZM1357.25,6808.94C1362.35,6810.44 1366.55,6815.85 1366.55,6823.35C1366.55,6834.05 1360.95,6843.35 1347.55,6843.35C1341.85,6843.35 1337.35,6840.85 1333.35,6836.55C1332.55,6835.74 1332.45,6834.74 1332.45,6833.94C1332.45,6832.35 1333.55,6828.85 1335.85,6828.85C1336.45,6828.85 1336.95,6829.15 1337.55,6829.85C1340.45,6833.74 1343.25,6836.15 1347.55,6836.15C1356.35,6836.15 1359.65,6830.05 1359.65,6823.44C1359.65,6817.94 1355.85,6813.94 1350.25,6813.94C1348.25,6813.94 1345.85,6814.44 1344.85,6814.65C1344.65,6814.74 1344.65,6814.74 1344.45,6814.74C1342.05,6814.74 1340.85,6811.65 1340.85,6810.15C1340.85,6809.05 1341.45,6807.74 1342.85,6807.44C1348.25,6807.05 1357.55,6803.74 1357.55,6796.85C1357.55,6792.55 1355.05,6789.85 1350.35,6789.85C1346.45,6789.85 1343.25,6791.65 1339.85,6795.85C1339.15,6796.74 1338.55,6797.65 1337.35,6797.65C1336.25,6797.65 1333.95,6795.94 1333.95,6792.85C1333.95,6791.65 1334.45,6790.85 1334.85,6790.24C1338.85,6785.55 1343.85,6782.74 1350.25,6782.74C1358.35,6782.74 1364.35,6787.74 1364.35,6796.35C1364.35,6803.94 1359.35,6808.05 1357.25,6808.94Z" style="fill-rule:nonzero;"/>
        </g>
    </g>
</svg>
