<?xml version="1.0" encoding="UTF-8" standalone="no"?>
<!DOCTYPE svg PUBLIC "-//W3C//DTD SVG 1.1//EN" "http://www.w3.org/Graphics/SVG/1.1/DTD/svg11.dtd">
<svg width="100%" height="100%" viewBox="0 0 89 89" version="1.1" xmlns="http://www.w3.org/2000/svg" xmlns:xlink="http://www.w3.org/1999/xlink" xml:space="preserve" xmlns:serif="http://www.serif.com/" style="fill-rule:evenodd;clip-rule:evenodd;stroke-linejoin:round;stroke-miterlimit:2;">
    <g transform="matrix(1,0,0,1,-2402.42,-542.274)">
        <g transform="matrix(1.41414,0,0,1.41429,-1052.39,-837.704)">
            <path d="M2499.89,1038.11C2503.29,1038.11 2505.41,1035.56 2505.41,1032.59L2505.41,981.257C2505.41,977.793 2502.93,975.742 2499.89,975.742L2448.56,975.742C2445.1,975.742 2443.04,978.075 2443.04,981.257L2443.04,1032.59C2443.04,1035.77 2445.52,1038.11 2448.56,1038.11L2499.89,1038.11ZM2496.64,990.237C2494.24,998.156 2490.42,1020.57 2489.92,1026.44C2489.78,1028.21 2487.8,1028.63 2486.6,1028.63C2485.26,1028.63 2484.34,1028 2484.34,1026.65C2484.34,1026.09 2484.55,1025.59 2484.62,1025.03C2485.47,1021.21 2487.1,1011.73 2487.59,1008.97C2484.97,1011.45 2481.51,1012.93 2478.4,1012.93C2472.67,1012.93 2468.22,1008.69 2468.22,1001.62C2468.22,993.419 2474.86,985.217 2482.99,985.217C2486.95,985.217 2489.78,986.914 2491.48,988.611C2491.69,987.479 2492.26,986.843 2493.25,986.843L2493.46,986.843C2494.45,986.984 2496.64,988.045 2496.64,989.813L2496.64,990.237ZM2461.71,1020.71C2461.71,1022.27 2461.78,1025.59 2461.85,1027.01C2461.85,1028.07 2461.08,1028.7 2459.94,1028.7C2458.39,1028.7 2456.41,1027.43 2456.41,1026.09C2456.41,1025.17 2456.55,1022.27 2456.55,1021.07L2456.55,993.56C2455.35,994.197 2452.45,995.399 2451.39,995.399C2449.9,995.399 2448.21,994.055 2448.21,993.065C2448.21,992.146 2448.84,991.722 2449.41,991.51C2452.02,990.449 2454.5,988.964 2456.05,987.692L2456.34,987.338L2456.97,986.702C2457.61,985.995 2458.39,985.5 2459.02,985.5C2460.3,985.5 2462.07,986.984 2462.07,988.681C2462.07,989.601 2461.71,990.591 2461.71,992.217L2461.71,1020.71ZM2490.28,995.257C2489.64,995.045 2489.29,994.479 2489.08,994.055C2488.44,992.712 2486.67,990.308 2483.28,990.308C2477.41,990.308 2473.38,996.601 2473.38,1001.41C2473.38,1005.79 2475.43,1007.7 2478.33,1007.7C2485.61,1007.7 2488.93,999.641 2490.07,996.247L2490.28,995.257Z" style="fill-rule:nonzero;"/>
        </g>
    </g>
</svg>
