<?xml version="1.0" encoding="UTF-8" standalone="no"?>
<!DOCTYPE svg PUBLIC "-//W3C//DTD SVG 1.1//EN" "http://www.w3.org/Graphics/SVG/1.1/DTD/svg11.dtd">
<svg width="100%" height="100%" viewBox="0 0 89 89" version="1.1" xmlns="http://www.w3.org/2000/svg" xmlns:xlink="http://www.w3.org/1999/xlink" xml:space="preserve" xmlns:serif="http://www.serif.com/" style="fill-rule:evenodd;clip-rule:evenodd;stroke-linejoin:round;stroke-miterlimit:2;">
    <g transform="matrix(1,0,0,1,-1902.47,-1442.27)">
        <g transform="matrix(1.41414,0,0,1.41429,-1052.39,-837.704)">
            <path d="M2146.36,1674.47C2149.75,1674.47 2151.87,1671.92 2151.87,1668.95L2151.87,1617.62C2151.87,1614.16 2149.4,1612.11 2146.36,1612.11L2095.02,1612.11C2091.56,1612.11 2089.51,1614.44 2089.51,1617.62L2089.51,1668.95C2089.51,1672.14 2091.98,1674.47 2095.02,1674.47L2146.36,1674.47ZM2141.55,1657.5C2141.55,1659.83 2141.76,1662.1 2141.76,1663.44C2141.76,1664.22 2141.12,1665.07 2139.92,1665.07C2138.44,1665.07 2136.53,1663.79 2136.53,1662.38C2136.53,1661.46 2136.6,1658.21 2136.6,1657.36L2136.6,1655.31L2126.21,1655.66C2125.92,1655.66 2125.29,1655.8 2124.09,1656.09L2123.94,1656.09C2122.39,1656.09 2120.76,1654.32 2120.76,1652.41C2120.76,1651.42 2121.04,1651 2122.18,1649.23C2122.46,1648.8 2122.74,1648.45 2122.88,1648.1C2126.42,1641.66 2133.14,1628.16 2134.83,1622.78C2135.12,1621.86 2135.82,1621.72 2136.25,1621.72C2137.66,1621.72 2139.5,1623.98 2139.5,1625.68C2139.5,1626.11 2139.43,1626.53 2139.14,1626.88C2138.58,1627.73 2137.87,1629.01 2137.45,1629.92C2134.83,1635.72 2130.66,1644 2127.12,1650.57L2136.6,1650.36L2136.6,1639.47C2136.6,1638.34 2136.53,1634.66 2136.53,1633.32C2136.53,1632.54 2137.17,1631.69 2138.37,1631.69C2139.78,1631.69 2141.69,1632.89 2141.69,1634.38C2141.69,1635.3 2141.55,1638.06 2141.55,1639.47L2141.55,1650.15C2142.47,1650.08 2143.88,1649.79 2144.45,1649.79C2146.22,1649.79 2146.99,1652.41 2146.99,1653.47C2146.99,1653.96 2146.85,1655.31 2145.58,1655.31C2144.87,1655.31 2142.96,1655.17 2141.55,1655.17L2141.55,1657.5ZM2101.95,1661.25C2102.02,1661.18 2102.02,1661.18 2102.02,1661.04C2107.75,1643.78 2109.31,1639.33 2114.19,1627.66L2101.95,1628.79C2101.39,1628.86 2100.82,1628.93 2100.33,1628.93C2097.92,1628.93 2096.72,1626.11 2096.72,1624.97C2096.72,1624.55 2096.93,1623.56 2097.99,1623.56C2098.56,1623.56 2099.12,1623.63 2099.97,1623.63L2100.68,1623.63L2115.11,1622.57C2115.46,1622.57 2115.74,1622.43 2116.1,1622.36C2116.52,1622.22 2116.94,1622.15 2117.37,1622.15L2117.58,1622.15C2118.85,1622.36 2120.69,1623.98 2120.69,1625.61L2120.69,1625.89C2120.55,1626.67 2120.27,1627.31 2119.98,1627.8C2118.14,1630.56 2108.74,1655.03 2107.26,1663.23C2106.9,1664.71 2105.7,1664.92 2104.78,1664.92C2104.57,1664.92 2104.29,1664.85 2103.93,1664.85C2102.45,1664.64 2101.67,1663.86 2101.67,1662.66C2101.67,1662.24 2101.81,1661.81 2101.88,1661.6L2101.95,1661.25Z" style="fill-rule:nonzero;"/>
        </g>
    </g>
</svg>
