<?xml version="1.0" encoding="UTF-8" standalone="no"?>
<!DOCTYPE svg PUBLIC "-//W3C//DTD SVG 1.1//EN" "http://www.w3.org/Graphics/SVG/1.1/DTD/svg11.dtd">
<svg width="100%" height="100%" viewBox="0 0 96 96" version="1.1" xmlns="http://www.w3.org/2000/svg" xmlns:xlink="http://www.w3.org/1999/xlink" xml:space="preserve" xmlns:serif="http://www.serif.com/" style="fill-rule:evenodd;clip-rule:evenodd;stroke-linejoin:round;stroke-miterlimit:2;">
    <g transform="matrix(1,0,0,1,-1309.63,-3323.28)">
        <g transform="matrix(1,0,0,1,-110.019,-3591.86)">
            <path d="M1515.25,6962.94C1515.25,6936.55 1493.85,6915.15 1467.45,6915.15C1441.05,6915.15 1419.65,6936.55 1419.65,6962.94C1419.65,6989.35 1441.05,7010.65 1467.45,7010.65C1493.85,7010.65 1515.25,6989.35 1515.25,6962.94ZM1442.65,6956.94C1445.05,6955.24 1447.85,6954.24 1451.55,6954.24C1459.45,6954.24 1466.05,6961.15 1466.05,6972.74C1466.05,6983.44 1460.95,6993.35 1448.45,6993.35C1442.45,6993.35 1438.05,6989.85 1434.75,6985.65C1434.15,6984.85 1433.95,6983.94 1433.95,6982.94C1433.95,6981.15 1435.05,6977.55 1437.15,6977.55C1438.05,6977.55 1438.65,6978.15 1438.95,6978.85C1441.25,6982.94 1444.15,6986.05 1448.45,6986.05C1456.55,6986.05 1459.65,6979.94 1459.65,6972.85C1459.65,6965.35 1456.15,6961.24 1450.85,6961.24C1447.95,6961.24 1445.35,6962.35 1441.15,6967.24C1440.65,6967.74 1440.35,6967.85 1439.65,6967.85C1437.95,6967.85 1435.65,6965.85 1435.65,6962.94C1435.65,6962.65 1435.65,6962.15 1435.85,6961.65L1436.35,6959.05L1438.05,6939.85C1438.15,6938.85 1438.15,6937.55 1438.15,6936.55C1438.15,6934.74 1439.45,6934.24 1440.35,6934.24C1441.25,6934.24 1442.35,6934.65 1443.15,6935.15L1455.65,6934.24C1456.85,6934.15 1458.65,6934.05 1459.95,6933.74L1460.25,6933.74C1462.25,6933.74 1463.45,6937.15 1463.45,6938.55C1463.45,6939.65 1462.85,6941.05 1461.45,6941.05L1456.25,6941.35L1444.05,6942.24L1442.65,6956.94ZM1492.65,6958.94C1497.55,6960.44 1501.45,6965.85 1501.45,6973.35C1501.45,6984.05 1496.15,6993.35 1483.45,6993.35C1478.05,6993.35 1473.75,6990.85 1469.95,6986.55C1469.25,6985.74 1469.15,6984.74 1469.15,6983.94C1469.15,6982.35 1470.15,6978.85 1472.35,6978.85C1472.85,6978.85 1473.35,6979.15 1473.95,6979.85C1476.65,6983.74 1479.35,6986.15 1483.45,6986.15C1491.75,6986.15 1494.95,6980.05 1494.95,6973.44C1494.95,6967.94 1491.35,6963.94 1485.95,6963.94C1485.55,6963.94 1485.05,6963.94 1484.55,6964.05C1483.35,6964.15 1482.05,6964.35 1480.85,6964.65C1480.65,6964.74 1480.65,6964.74 1480.45,6964.74C1478.25,6964.74 1477.15,6961.65 1477.15,6960.15C1477.15,6959.05 1477.65,6957.74 1478.95,6957.44C1484.35,6957.05 1492.95,6953.65 1492.95,6946.85C1492.95,6942.55 1490.65,6939.85 1486.05,6939.85C1482.45,6939.85 1479.35,6941.65 1476.15,6945.85C1475.45,6946.74 1474.85,6947.65 1473.75,6947.65C1471.75,6947.65 1470.45,6944.44 1470.45,6942.85C1470.45,6939.85 1477.15,6932.74 1485.95,6932.74C1493.75,6932.74 1499.35,6937.74 1499.35,6946.35C1499.35,6953.94 1494.65,6958.05 1492.65,6958.94Z" style="fill-rule:nonzero;"/>
        </g>
    </g>
</svg>
