<?xml version="1.0" encoding="UTF-8" standalone="no"?>
<!DOCTYPE svg PUBLIC "-//W3C//DTD SVG 1.1//EN" "http://www.w3.org/Graphics/SVG/1.1/DTD/svg11.dtd">
<svg width="100%" height="100%" viewBox="0 0 89 89" version="1.1" xmlns="http://www.w3.org/2000/svg" xmlns:xlink="http://www.w3.org/1999/xlink" xml:space="preserve" xmlns:serif="http://www.serif.com/" style="fill-rule:evenodd;clip-rule:evenodd;stroke-linejoin:round;stroke-miterlimit:2;">
    <g transform="matrix(1,0,0,1,-358.759,-1621.63)">
        <g transform="matrix(1.41414,0,0,1.41429,-177.055,-770.755)">
            <path d="M441.261,1753.95L441.261,1691.59L378.897,1691.59L378.897,1753.95L441.261,1753.95ZM407.958,1707.42C409.019,1707.42 409.796,1708.34 409.796,1709.55C409.796,1712.3 403.009,1718.38 401.382,1719.59C407.11,1722.56 410.079,1726.38 410.079,1732.17C410.079,1739.88 404.635,1744.76 396.928,1744.76C389.786,1744.76 385.402,1739.67 385.402,1732.95C385.402,1727.79 388.019,1723.9 392.12,1720.51C388.301,1718.1 386.958,1715.49 386.958,1711.67C386.958,1706.01 391.13,1701.13 397.847,1701.13C402.231,1701.13 405.413,1703.96 407.534,1707.21C407.534,1707.28 407.604,1707.35 407.604,1707.42L407.958,1707.42ZM415.312,1744.05C413.544,1744.05 412.483,1741.93 412.483,1740.52C412.483,1740.09 412.554,1739.53 412.908,1739.03C413.402,1738.39 413.685,1737.97 413.897,1737.48C415.948,1733.3 419.625,1727.08 424.079,1722.49C428.463,1718.1 430.796,1714.85 430.796,1711.6C430.796,1708.63 428.887,1706.15 425.564,1706.15C421.958,1706.15 419.483,1708.49 418.423,1711.53C418.14,1712.3 417.574,1713.58 416.301,1713.58C415.312,1713.58 413.402,1712.09 413.402,1710.18C413.402,1709.76 413.473,1709.12 413.827,1708.63C416.019,1704.17 419.978,1701.06 425.705,1701.06C431.928,1701.06 436.029,1705.44 436.029,1711.6C436.029,1717.32 432.211,1721.71 427.473,1726.44C423.655,1730.19 420.827,1734.86 418.918,1738.54C420.685,1738.39 422.665,1738.32 424.15,1738.32C426.695,1738.32 428.392,1738.39 430.514,1738.39C431.362,1738.39 433.13,1738.32 433.837,1738.32C435.534,1738.32 436.453,1740.87 436.453,1741.93C436.453,1742.78 435.958,1743.77 434.756,1743.77C433.271,1743.63 429.736,1743.34 423.584,1743.34C421.817,1743.34 420.049,1743.34 417.998,1743.63C417.645,1743.63 416.796,1743.77 415.665,1744.05L415.312,1744.05ZM396.928,1722.98C392.473,1726.44 390.281,1729.41 390.281,1732.81C390.281,1736.2 392.19,1739.6 396.928,1739.6C401.877,1739.6 405.13,1736.56 405.13,1732.45C405.13,1728.92 403.645,1726.16 397.705,1723.33C397.493,1723.19 397.211,1723.05 396.928,1722.98ZM403.362,1710.18C401.948,1707.57 400.392,1706.15 397.847,1706.15C393.746,1706.15 391.908,1708.98 391.908,1711.67C391.908,1713.86 392.615,1715.13 396.645,1717.18C399.332,1715.27 401.665,1713.01 403.786,1710.82L403.362,1710.18Z" style="fill-rule:nonzero;"/>
        </g>
    </g>
</svg>
