<?xml version="1.0" encoding="UTF-8" standalone="no"?>
<!DOCTYPE svg PUBLIC "-//W3C//DTD SVG 1.1//EN" "http://www.w3.org/Graphics/SVG/1.1/DTD/svg11.dtd">
<svg width="100%" height="100%" viewBox="0 0 89 89" version="1.1" xmlns="http://www.w3.org/2000/svg" xmlns:xlink="http://www.w3.org/1999/xlink" xml:space="preserve" xmlns:serif="http://www.serif.com/" style="fill-rule:evenodd;clip-rule:evenodd;stroke-linejoin:round;stroke-miterlimit:2;">
    <g transform="matrix(1,0,0,1,-258.769,-1171.63)">
        <g transform="matrix(1.41414,0,0,1.41429,-177.055,-770.755)">
            <path d="M370.554,1435.77L370.554,1373.4L308.19,1373.4L308.19,1435.77L370.554,1435.77ZM322.402,1407.77C322.049,1408.12 321.695,1408.19 321.2,1408.19C319.857,1408.19 318.019,1406.71 318.019,1404.66C318.019,1404.44 318.019,1404.09 318.089,1403.74L318.584,1401.83L319.857,1387.97C319.928,1387.26 319.998,1386.34 319.998,1385.64C319.998,1384.29 321.059,1383.94 321.766,1383.94C322.473,1383.94 323.322,1384.22 324.029,1384.58L333.998,1383.94C334.988,1383.87 336.473,1383.8 337.463,1383.59L337.675,1383.59C339.372,1383.59 340.221,1386.06 340.221,1387.05C340.221,1387.83 339.796,1388.82 338.665,1388.89L334.493,1389.1L324.665,1389.74L323.604,1400.34C325.584,1399.07 327.776,1398.36 330.675,1398.36C337.039,1398.36 342.413,1403.38 342.413,1411.73C342.413,1419.43 338.312,1426.58 328.271,1426.58C323.463,1426.58 319.928,1424.1 317.241,1420.99C316.817,1420.5 316.604,1419.79 316.604,1419.08C316.604,1417.74 317.524,1415.19 319.221,1415.19C319.857,1415.19 320.352,1415.62 320.635,1416.11C322.473,1419.08 324.806,1421.34 328.271,1421.34C334.705,1421.34 337.251,1416.89 337.251,1411.8C337.251,1406.42 334.423,1403.45 330.18,1403.45C327.635,1403.45 325.514,1404.59 323.887,1406.28L322.402,1407.77ZM358.958,1424.81C358.958,1425.8 358.18,1426.36 357.12,1426.36C355.493,1426.36 353.514,1425.09 353.514,1423.75C353.514,1422.83 353.655,1419.93 353.655,1418.73L353.655,1391.22C351.322,1392.42 348.918,1393.06 348.493,1393.06C347.009,1393.06 345.312,1391.72 345.312,1390.73C345.312,1389.81 346.019,1389.38 346.514,1389.17C349.13,1388.11 351.604,1386.63 353.16,1385.35L353.514,1385C353.655,1384.79 353.867,1384.58 354.15,1384.36C354.786,1383.66 355.564,1383.16 356.13,1383.16C357.473,1383.16 359.17,1384.65 359.17,1386.34C359.17,1387.26 358.817,1388.25 358.817,1389.88L358.817,1418.38C358.817,1419.93 358.958,1423.25 358.958,1424.67L358.958,1424.81Z" style="fill-rule:nonzero;"/>
        </g>
    </g>
</svg>
