<?xml version="1.0" encoding="UTF-8" standalone="no"?>
<!DOCTYPE svg PUBLIC "-//W3C//DTD SVG 1.1//EN" "http://www.w3.org/Graphics/SVG/1.1/DTD/svg11.dtd">
<svg width="100%" height="100%" viewBox="0 0 89 89" version="1.1" xmlns="http://www.w3.org/2000/svg" xmlns:xlink="http://www.w3.org/1999/xlink" xml:space="preserve" xmlns:serif="http://www.serif.com/" style="fill-rule:evenodd;clip-rule:evenodd;stroke-linejoin:round;stroke-miterlimit:2;">
    <g transform="matrix(1,0,0,1,-1058.69,-571.632)">
        <g transform="matrix(1.41414,0,0,1.41429,-177.055,-770.755)">
            <path d="M936.211,1011.53L936.211,949.162L873.847,949.162L873.847,1011.53L936.211,1011.53ZM927.443,963.657C925.039,971.577 921.221,993.991 920.726,999.859C920.584,1001.63 918.604,1002.05 917.402,1002.05C916.059,1002.05 915.14,1001.42 915.14,1000.07C915.14,999.506 915.352,999.011 915.423,998.445C916.271,994.627 917.897,985.152 918.392,982.395C915.776,984.87 912.312,986.354 909.2,986.354C903.473,986.354 899.019,982.112 899.019,975.041C899.019,966.839 905.665,958.637 913.796,958.637C917.756,958.637 920.584,960.334 922.281,962.031C922.493,960.9 923.059,960.263 924.049,960.263L924.261,960.263C925.251,960.405 927.443,961.465 927.443,963.233L927.443,963.657ZM892.514,994.132C892.514,995.688 892.584,999.011 892.655,1000.43C892.655,1001.49 891.877,1002.12 890.746,1002.12C889.19,1002.12 887.211,1000.85 887.211,999.506C887.211,998.587 887.352,995.688 887.352,994.486L887.352,966.981C886.15,967.617 883.251,968.819 882.19,968.819C880.705,968.819 879.009,967.476 879.009,966.486C879.009,965.566 879.645,965.142 880.211,964.93C882.827,963.87 885.301,962.385 886.857,961.112L887.14,960.758L887.776,960.122C888.413,959.415 889.19,958.92 889.827,958.92C891.099,958.92 892.867,960.405 892.867,962.102C892.867,963.021 892.514,964.011 892.514,965.637L892.514,994.132ZM921.079,968.678C920.443,968.465 920.089,967.9 919.877,967.476C919.312,966.132 917.473,963.728 914.079,963.728C908.211,963.728 904.18,970.021 904.18,974.829C904.18,979.213 906.231,981.122 909.13,981.122C916.413,981.122 919.736,973.061 920.867,969.667L921.079,968.678Z" style="fill-rule:nonzero;"/>
        </g>
    </g>
</svg>
