<?xml version="1.0" encoding="UTF-8" standalone="no"?>
<!DOCTYPE svg PUBLIC "-//W3C//DTD SVG 1.1//EN" "http://www.w3.org/Graphics/SVG/1.1/DTD/svg11.dtd">
<svg width="100%" height="100%" viewBox="0 0 96 96" version="1.1" xmlns="http://www.w3.org/2000/svg" xmlns:xlink="http://www.w3.org/1999/xlink" xml:space="preserve" xmlns:serif="http://www.serif.com/" style="fill-rule:evenodd;clip-rule:evenodd;stroke-linejoin:round;stroke-miterlimit:2;">
    <g transform="matrix(1,0,0,1,-1009.63,-3323.28)">
        <g transform="matrix(1,0,0,1,-110.019,-3591.86)">
            <path d="M1215.25,6962.94C1215.25,6936.55 1193.85,6915.15 1167.45,6915.15C1141.05,6915.15 1119.65,6936.55 1119.65,6962.94C1119.65,6989.35 1141.05,7010.65 1167.45,7010.65C1193.85,7010.65 1215.25,6989.35 1215.25,6962.94ZM1177.75,6937.15C1179.95,6934.44 1182.95,6932.65 1186.45,6932.65C1196.55,6932.65 1201.25,6945.94 1201.25,6961.74C1201.25,6977.85 1196.35,6993.35 1184.75,6993.35C1173.75,6993.35 1169.05,6979.85 1169.05,6963.85C1169.05,6950.05 1173.35,6936.94 1176.95,6936.94C1177.25,6936.94 1177.45,6937.05 1177.75,6937.15ZM1140.75,6956.94C1143.15,6955.24 1145.95,6954.24 1149.55,6954.24C1157.55,6954.24 1164.15,6961.15 1164.15,6972.74C1164.15,6983.44 1159.05,6993.35 1146.55,6993.35C1140.55,6993.35 1136.15,6989.85 1132.85,6985.65C1132.25,6984.85 1131.95,6983.94 1131.95,6982.94C1131.95,6981.15 1133.15,6977.55 1135.25,6977.55C1136.05,6977.55 1136.65,6978.15 1137.05,6978.85C1139.35,6982.94 1142.25,6986.05 1146.55,6986.05C1154.55,6986.05 1157.75,6979.94 1157.75,6972.85C1157.75,6965.35 1154.25,6961.24 1148.95,6961.24C1145.75,6961.24 1143.15,6962.85 1141.05,6965.15C1139.25,6967.55 1138.75,6967.85 1137.75,6967.85C1136.05,6967.85 1133.75,6965.85 1133.75,6962.94C1133.75,6962.65 1133.75,6962.15 1133.85,6961.65C1134.15,6960.65 1134.25,6959.74 1134.45,6959.05L1136.15,6939.85C1136.15,6938.85 1136.25,6937.55 1136.25,6936.55C1136.25,6934.74 1137.55,6934.24 1138.45,6934.24C1139.35,6934.24 1140.35,6934.65 1141.25,6935.15L1153.75,6934.24C1154.95,6934.15 1156.75,6934.05 1158.05,6933.74L1158.35,6933.74C1160.35,6933.74 1161.45,6937.15 1161.45,6938.55C1161.45,6939.65 1160.95,6941.05 1159.55,6941.05L1154.35,6941.35L1142.05,6942.24L1140.75,6956.94ZM1184.55,6986.15C1191.25,6986.15 1194.55,6975.05 1194.55,6961.15C1194.55,6949.65 1191.85,6939.65 1186.15,6939.65C1182.35,6939.65 1175.75,6946.74 1175.75,6963.74C1175.75,6977.15 1178.55,6986.15 1184.55,6986.15Z" style="fill-rule:nonzero;"/>
        </g>
    </g>
</svg>
