<?xml version="1.0" encoding="UTF-8" standalone="no"?>
<!DOCTYPE svg PUBLIC "-//W3C//DTD SVG 1.1//EN" "http://www.w3.org/Graphics/SVG/1.1/DTD/svg11.dtd">
<svg width="100%" height="100%" viewBox="0 0 96 96" version="1.1" xmlns="http://www.w3.org/2000/svg" xmlns:xlink="http://www.w3.org/1999/xlink" xml:space="preserve" xmlns:serif="http://www.serif.com/" style="fill-rule:evenodd;clip-rule:evenodd;stroke-linejoin:round;stroke-miterlimit:2;">
    <g transform="matrix(1,0,0,1,-409.628,-3473.28)">
        <g transform="matrix(1,0,0,1,-110.019,-3591.86)">
            <path d="M615.248,7112.94C615.248,7086.55 593.848,7065.15 567.448,7065.15C541.048,7065.15 519.648,7086.55 519.648,7112.94C519.648,7139.35 541.048,7160.65 567.448,7160.65C593.848,7160.65 615.248,7139.35 615.248,7112.94ZM544.248,7106.74C546.248,7105.44 548.548,7104.85 551.148,7104.85C560.148,7104.85 566.348,7112.55 566.348,7122.94C566.348,7134.24 560.148,7143.35 549.948,7143.35C540.748,7143.35 533.648,7135.15 533.648,7125.15C533.648,7118.15 535.348,7111.24 538.648,7103.74C541.848,7096.55 544.748,7090.65 547.548,7085.85C547.748,7085.65 547.848,7085.44 547.948,7085.24C548.148,7084.85 548.348,7084.55 548.548,7084.35C549.148,7083.05 550.348,7082.65 551.348,7082.65C551.548,7082.65 555.548,7082.74 555.548,7085.94C555.548,7086.85 554.848,7087.94 554.448,7088.55C550.148,7094.44 546.848,7101.15 544.248,7106.74ZM597.748,7132.55C597.748,7135.74 598.048,7138.94 598.048,7140.74C598.048,7141.94 597.148,7143.05 595.648,7143.05C593.648,7143.05 591.148,7141.35 591.148,7139.35C591.148,7138.05 591.248,7133.55 591.248,7132.35L591.248,7129.55L577.548,7130.05C577.248,7130.05 576.348,7130.15 574.648,7130.65L574.848,7130.55L574.648,7130.55C572.548,7130.55 570.448,7128.15 570.448,7125.44C570.448,7124.05 570.948,7123.24 572.348,7121.15C572.748,7120.44 584.548,7097.65 588.948,7084.44C589.348,7083.15 590.248,7082.94 590.748,7082.94C592.648,7082.94 595.048,7086.15 595.048,7088.44C595.048,7089.05 594.948,7089.65 594.648,7090.15C593.848,7091.35 592.948,7093.05 592.448,7094.35C588.948,7102.35 583.448,7113.85 578.848,7122.94L591.248,7122.65L591.248,7107.55C591.248,7105.94 591.148,7100.85 591.148,7099.05C591.148,7097.94 592.048,7096.74 593.548,7096.74C595.448,7096.74 597.948,7098.44 597.948,7100.55C597.948,7101.74 597.748,7105.65 597.748,7107.55L597.748,7122.35C598.948,7122.24 600.748,7121.85 601.648,7121.85C603.848,7121.85 604.948,7125.44 604.948,7126.94C604.948,7127.65 604.648,7129.55 603.048,7129.55C602.148,7129.55 599.548,7129.35 597.748,7129.35L597.748,7132.55ZM549.948,7136.35C555.548,7136.35 559.748,7131.15 559.748,7123.15C559.748,7116.94 556.348,7111.74 551.048,7111.74C544.448,7111.74 540.048,7117.85 540.048,7125.05C540.048,7131.44 544.148,7136.35 549.948,7136.35Z" style="fill-rule:nonzero;"/>
        </g>
    </g>
</svg>
