<?xml version="1.0" encoding="UTF-8" standalone="no"?>
<!DOCTYPE svg PUBLIC "-//W3C//DTD SVG 1.1//EN" "http://www.w3.org/Graphics/SVG/1.1/DTD/svg11.dtd">
<svg width="100%" height="100%" viewBox="0 0 89 89" version="1.1" xmlns="http://www.w3.org/2000/svg" xmlns:xlink="http://www.w3.org/1999/xlink" xml:space="preserve" xmlns:serif="http://www.serif.com/" style="fill-rule:evenodd;clip-rule:evenodd;stroke-linejoin:round;stroke-miterlimit:2;">
    <g transform="matrix(1,0,0,1,-1158.68,-1771.63)">
        <g transform="matrix(1.41414,0,0,1.41429,-177.055,-770.755)">
            <path d="M1006.92,1860.01L1006.92,1797.65L944.554,1797.65L944.554,1860.01L1006.92,1860.01ZM987.473,1810.66C988.746,1808.82 990.301,1807.48 992.423,1807.48C998.574,1807.48 1000.84,1817.3 1000.84,1828.48C1000.84,1839.86 998.503,1851.24 991.503,1851.24C984.786,1851.24 982.594,1841.34 982.594,1829.96C982.594,1823.88 984.009,1810.59 987.12,1810.59C987.261,1810.59 987.332,1810.59 987.473,1810.66ZM967.463,1810.66C968.736,1808.82 969.867,1807.48 971.918,1807.48C978.069,1807.48 980.261,1817.3 980.261,1828.48C980.261,1839.86 977.928,1851.24 971.069,1851.24C964.493,1851.24 962.301,1841.27 962.301,1829.96C962.301,1824.38 964.069,1810.59 967.11,1810.59C967.251,1810.59 967.322,1810.59 967.463,1810.66ZM959.332,1843.04C959.332,1844.6 959.402,1847.92 959.473,1849.33C959.473,1850.32 958.837,1851.03 957.635,1851.03C956.15,1851.03 954.099,1849.76 954.099,1848.41C954.099,1847.5 954.241,1844.6 954.241,1843.39L954.241,1815.89C953.322,1816.45 952.332,1816.81 951.13,1817.23C950.988,1817.3 950.847,1817.3 950.705,1817.3C949.786,1817.3 947.594,1816.45 947.594,1814.76C947.594,1813.84 948.231,1813.41 948.655,1813.2C952.049,1811.65 952.968,1810.8 954.806,1808.96C955.443,1808.32 956.221,1807.83 956.786,1807.83C958.059,1807.83 959.685,1809.31 959.685,1811.01C959.685,1811.93 959.332,1812.92 959.332,1814.55L959.332,1843.04ZM991.433,1846.01C995.392,1846.01 995.887,1837.1 995.887,1828.05C995.887,1820.77 995.675,1812.57 992.211,1812.57C990.726,1812.57 987.544,1817.3 987.544,1829.89C987.544,1838.52 987.756,1846.01 991.433,1846.01ZM970.998,1846.01C974.887,1846.01 975.312,1837.1 975.312,1828.05C975.312,1820.77 975.17,1812.57 971.847,1812.57C970.291,1812.57 967.251,1817.23 967.251,1829.89C967.251,1838.52 967.392,1846.01 970.998,1846.01Z" style="fill-rule:nonzero;"/>
        </g>
    </g>
</svg>
