<?xml version="1.0" encoding="UTF-8" standalone="no"?>
<!DOCTYPE svg PUBLIC "-//W3C//DTD SVG 1.1//EN" "http://www.w3.org/Graphics/SVG/1.1/DTD/svg11.dtd">
<svg width="100%" height="100%" viewBox="0 0 89 89" version="1.1" xmlns="http://www.w3.org/2000/svg" xmlns:xlink="http://www.w3.org/1999/xlink" xml:space="preserve" xmlns:serif="http://www.serif.com/" style="fill-rule:evenodd;clip-rule:evenodd;stroke-linejoin:round;stroke-miterlimit:2;">
    <g transform="matrix(1,0,0,1,-1058.69,-271.632)">
        <g transform="matrix(1.41414,0,0,1.41429,-177.055,-770.755)">
            <path d="M936.211,799.405L936.211,737.041L873.847,737.041L873.847,799.405L936.211,799.405ZM920.089,751.536C918.039,756.839 913.867,780.314 912.948,787.809C912.736,789.577 910.897,789.93 909.554,789.93C908.069,789.93 907.221,789.152 907.221,787.88C907.221,787.385 907.362,786.819 907.433,786.324C908.211,782.647 909.908,773.667 910.615,770.061C907.574,772.748 903.402,774.233 899.726,774.233C893.503,774.233 887.988,770.132 887.988,762.92C887.988,754.647 895.271,746.516 904.604,746.516C909.271,746.516 912.665,748.284 914.645,750.051C914.857,748.708 915.352,748.142 916.695,748.142C917.756,748.284 920.089,749.344 920.089,751.112L920.089,751.536ZM913.372,756.556C912.806,756.344 912.382,755.779 912.17,755.354C911.604,754.152 908.918,751.607 904.887,751.607C897.958,751.607 893.362,757.971 893.362,762.708C893.362,766.95 895.978,769.001 899.726,769.001C903.544,769.001 910.12,766.95 913.231,757.546C913.301,757.193 913.372,756.839 913.372,756.556Z" style="fill-rule:nonzero;"/>
        </g>
    </g>
</svg>
