<?xml version="1.0" encoding="UTF-8" standalone="no"?>
<!DOCTYPE svg PUBLIC "-//W3C//DTD SVG 1.1//EN" "http://www.w3.org/Graphics/SVG/1.1/DTD/svg11.dtd">
<svg width="100%" height="100%" viewBox="0 0 89 89" version="1.1" xmlns="http://www.w3.org/2000/svg" xmlns:xlink="http://www.w3.org/1999/xlink" xml:space="preserve" xmlns:serif="http://www.serif.com/" style="fill-rule:evenodd;clip-rule:evenodd;stroke-linejoin:round;stroke-miterlimit:2;">
    <g transform="matrix(1,0,0,1,-1602.51,-1892.27)">
        <g transform="matrix(1.41414,0,0,1.41429,-1052.39,-837.704)">
            <path d="M1934.24,1992.65C1937.63,1992.65 1939.75,1990.11 1939.75,1987.14L1939.75,1935.8C1939.75,1932.34 1937.28,1930.29 1934.24,1930.29L1882.9,1930.29C1879.44,1930.29 1877.39,1932.62 1877.39,1935.8L1877.39,1987.14C1877.39,1990.32 1879.86,1992.65 1882.9,1992.65L1934.24,1992.65ZM1902.13,1957.23C1905.25,1953.41 1909.07,1951.92 1913.02,1951.92C1919.67,1951.92 1924.2,1956.8 1924.2,1965.36C1924.2,1975.82 1917.41,1984.03 1908.57,1984.03C1905.95,1984.03 1903.41,1983.04 1901.57,1981.2C1901.08,1982.26 1899.73,1983.32 1898.53,1983.32C1897.33,1983.32 1896.69,1982.33 1896.69,1981.13C1896.69,1980.21 1896.76,1977.8 1896.76,1975.68L1896.76,1946.41C1896.76,1943.93 1896.62,1941.39 1896.62,1940.05C1896.62,1938.63 1898.11,1938.42 1898.6,1938.42C1899.66,1938.42 1902.28,1939.13 1902.28,1941.11C1902.28,1942.1 1902.13,1944.36 1902.13,1946.48L1902.13,1957.23ZM1902.07,1974.9C1902.77,1975.05 1903.34,1975.61 1903.76,1976.18C1905.18,1978.23 1906.94,1979.01 1908.71,1979.01C1912.95,1979.01 1918.54,1974.48 1918.54,1965.43C1918.54,1959.35 1915.92,1957.02 1913.02,1957.02C1910.27,1957.02 1902.13,1959.35 1902.13,1971.37C1902.07,1972.57 1902.07,1973.84 1902.07,1974.9Z" style="fill-rule:nonzero;"/>
        </g>
    </g>
</svg>
