<?xml version="1.0" encoding="UTF-8" standalone="no"?>
<!DOCTYPE svg PUBLIC "-//W3C//DTD SVG 1.1//EN" "http://www.w3.org/Graphics/SVG/1.1/DTD/svg11.dtd">
<svg width="100%" height="100%" viewBox="0 0 89 89" version="1.1" xmlns="http://www.w3.org/2000/svg" xmlns:xlink="http://www.w3.org/1999/xlink" xml:space="preserve" xmlns:serif="http://www.serif.com/" style="fill-rule:evenodd;clip-rule:evenodd;stroke-linejoin:round;stroke-miterlimit:2;">
    <g transform="matrix(1,0,0,1,-958.698,-1171.63)">
        <g transform="matrix(1.41414,0,0,1.41429,-177.055,-770.755)">
            <path d="M865.503,1435.77L865.503,1373.4L803.14,1373.4L803.14,1435.77L865.503,1435.77ZM857.089,1389.24C858.15,1389.24 858.857,1390.16 858.857,1391.36C858.857,1394.12 851.928,1400.63 850.938,1401.4C856.312,1404.38 859.14,1408.19 859.14,1413.99C859.14,1421.7 853.978,1426.58 846.695,1426.58C839.908,1426.58 835.736,1421.49 835.736,1414.77C835.736,1409.61 838.211,1405.72 842.17,1402.32C838.493,1399.92 837.221,1397.3 837.221,1393.49C837.221,1387.83 841.18,1382.95 847.544,1382.95C851.716,1382.95 854.685,1385.78 856.665,1389.03L856.806,1389.24L857.089,1389.24ZM815.514,1400.34C817.211,1399.07 819.261,1398.36 821.877,1398.36C827.604,1398.36 832.413,1403.38 832.413,1411.73C832.413,1419.43 828.736,1426.58 819.685,1426.58C814.453,1426.58 809.15,1421.77 809.15,1419.08C809.15,1417.74 809.998,1415.19 811.554,1415.19C812.12,1415.19 812.544,1415.62 812.827,1416.11C814.524,1419.08 816.574,1421.34 819.685,1421.34C825.483,1421.34 827.746,1416.89 827.746,1411.8C827.746,1406.42 825.2,1403.45 821.382,1403.45C819.12,1403.45 817.211,1404.59 815.726,1406.28C814.382,1408.12 813.887,1408.19 813.322,1408.19C812.12,1408.19 810.423,1406.71 810.423,1404.66C810.423,1404.44 810.423,1404.09 810.564,1403.74L810.918,1401.83L812.12,1387.97C812.19,1387.26 812.261,1386.34 812.261,1385.64C812.261,1384.29 813.18,1383.94 813.817,1383.94C814.453,1383.94 815.231,1384.22 815.867,1384.58L824.847,1383.94C825.695,1383.87 827.039,1383.8 827.958,1383.59L828.17,1383.59C829.655,1383.59 830.433,1386.06 830.433,1387.05C830.433,1387.83 830.079,1388.82 829.019,1388.89L825.342,1389.1L816.433,1389.74L815.514,1400.34ZM846.695,1404.8C842.453,1408.26 840.402,1411.23 840.402,1414.63C840.402,1418.02 842.241,1421.41 846.695,1421.41C851.362,1421.41 854.473,1418.38 854.473,1414.27C854.473,1410.74 853.059,1407.98 847.402,1405.15L846.695,1404.8ZM852.776,1392C851.433,1389.38 849.948,1387.97 847.544,1387.97C843.655,1387.97 841.887,1390.8 841.887,1393.49C841.887,1395.68 842.594,1396.95 846.413,1399C848.958,1397.09 851.15,1394.83 853.2,1392.64L852.776,1392Z" style="fill-rule:nonzero;"/>
        </g>
    </g>
</svg>
