<?xml version="1.0" encoding="UTF-8" standalone="no"?>
<!DOCTYPE svg PUBLIC "-//W3C//DTD SVG 1.1//EN" "http://www.w3.org/Graphics/SVG/1.1/DTD/svg11.dtd">
<svg width="100%" height="100%" viewBox="0 0 96 96" version="1.1" xmlns="http://www.w3.org/2000/svg" xmlns:xlink="http://www.w3.org/1999/xlink" xml:space="preserve" xmlns:serif="http://www.serif.com/" style="fill-rule:evenodd;clip-rule:evenodd;stroke-linejoin:round;stroke-miterlimit:2;">
    <g transform="matrix(1,0,0,1,-1909.63,-3323.28)">
        <g transform="matrix(1,0,0,1,-110.019,-3591.86)">
            <path d="M2115.25,6962.94C2115.25,6936.55 2093.85,6915.15 2067.45,6915.15C2041.05,6915.15 2019.65,6936.55 2019.65,6962.94C2019.65,6989.35 2041.05,7010.65 2067.45,7010.65C2093.85,7010.65 2115.25,6989.35 2115.25,6962.94ZM2101.45,6942.74C2098.65,6956.65 2094.85,6980.15 2093.95,6989.94C2093.75,6992.35 2091.35,6992.94 2089.75,6992.94C2088.15,6992.94 2086.95,6992.05 2086.95,6990.15C2086.95,6989.35 2087.25,6988.74 2087.35,6987.94C2089.15,6977.55 2090.95,6966.35 2091.05,6965.85C2087.95,6969.15 2084.05,6971.15 2080.15,6971.15C2072.95,6971.15 2068.15,6965.15 2068.15,6955.55C2068.15,6944.24 2075.65,6932.74 2085.95,6932.74C2090.75,6932.74 2094.05,6935.05 2095.95,6937.44C2096.15,6936.44 2096.65,6935.05 2098.25,6935.05C2100.25,6935.05 2102.35,6936.94 2102.35,6939.15L2102.35,6939.65L2101.45,6942.74ZM2040.35,6967.24C2039.95,6967.74 2039.55,6967.85 2038.95,6967.85C2037.25,6967.85 2034.95,6965.85 2034.95,6962.94C2034.95,6962.65 2034.95,6962.15 2035.05,6961.65C2035.35,6960.65 2035.45,6959.74 2035.65,6959.05L2037.25,6939.85C2037.35,6938.85 2037.45,6937.55 2037.45,6936.55C2037.45,6934.74 2038.75,6934.24 2039.65,6934.24C2040.45,6934.24 2041.55,6934.65 2042.45,6935.15L2054.85,6934.24C2056.05,6934.15 2057.95,6934.05 2059.15,6933.74L2059.45,6933.74C2061.55,6933.74 2062.65,6937.15 2062.65,6938.55C2062.65,6939.65 2062.15,6941.05 2060.75,6941.05L2055.55,6941.35L2043.25,6942.24L2041.95,6956.94C2044.35,6955.24 2047.15,6954.24 2050.75,6954.24C2058.65,6954.24 2065.35,6961.15 2065.35,6972.74C2065.35,6983.44 2060.25,6993.35 2047.75,6993.35C2041.75,6993.35 2037.35,6989.85 2033.95,6985.65C2033.45,6984.85 2033.15,6983.94 2033.15,6982.94C2033.15,6981.15 2034.35,6977.55 2036.45,6977.55C2037.25,6977.55 2037.85,6978.15 2038.15,6978.85C2040.55,6982.94 2043.35,6986.05 2047.75,6986.05C2055.75,6986.05 2058.85,6979.94 2058.85,6972.85C2058.85,6965.35 2055.45,6961.24 2050.05,6961.24C2046.95,6961.24 2044.35,6962.85 2042.25,6965.15L2040.35,6967.24ZM2094.35,6946.65C2093.65,6946.35 2093.15,6945.65 2092.95,6944.94C2092.05,6942.94 2090.35,6939.85 2086.25,6939.85C2079.05,6939.85 2074.55,6948.44 2074.55,6955.24C2074.55,6961.55 2076.55,6963.94 2080.05,6963.94C2086.15,6963.94 2091.45,6957.55 2094.05,6948.05L2094.35,6946.65Z" style="fill-rule:nonzero;"/>
        </g>
    </g>
</svg>
