<?xml version="1.0" encoding="UTF-8" standalone="no"?>
<!DOCTYPE svg PUBLIC "-//W3C//DTD SVG 1.1//EN" "http://www.w3.org/Graphics/SVG/1.1/DTD/svg11.dtd">
<svg width="100%" height="100%" viewBox="0 0 96 96" version="1.1" xmlns="http://www.w3.org/2000/svg" xmlns:xlink="http://www.w3.org/1999/xlink" xml:space="preserve" xmlns:serif="http://www.serif.com/" style="fill-rule:evenodd;clip-rule:evenodd;stroke-linejoin:round;stroke-miterlimit:2;">
    <g transform="matrix(1,0,0,1,-509.628,-3173.28)">
        <g transform="matrix(1,0,0,1,-110.019,-3591.86)">
            <path d="M715.248,6812.94C715.248,6786.55 693.848,6765.15 667.448,6765.15C641.048,6765.15 619.648,6786.55 619.648,6812.94C619.648,6839.35 641.048,6860.65 667.448,6860.65C693.848,6860.65 715.248,6839.35 715.248,6812.94ZM676.148,6817.24C675.648,6817.74 675.248,6817.85 674.648,6817.85C672.848,6817.85 670.348,6815.85 670.348,6812.94C670.348,6811.85 671.048,6809.24 671.148,6809.05L672.848,6789.85C672.948,6788.85 673.048,6787.55 673.048,6786.55C673.048,6784.74 674.448,6784.24 675.348,6784.24C676.248,6784.24 677.348,6784.65 678.348,6785.15L691.448,6784.24C692.748,6784.15 694.648,6784.05 695.948,6783.74L696.348,6783.74C698.448,6783.74 699.648,6787.15 699.648,6788.55C699.648,6789.65 699.048,6791.05 697.648,6791.05L692.148,6791.35L679.148,6792.24L677.748,6806.94C680.348,6805.24 683.248,6804.24 687.148,6804.24C695.448,6804.24 702.448,6811.15 702.448,6822.74C702.448,6833.44 697.148,6843.35 683.948,6843.35C677.548,6843.35 672.948,6839.85 669.448,6835.65C668.848,6834.85 668.548,6833.94 668.548,6832.94C668.548,6831.15 669.748,6827.55 671.948,6827.55C672.848,6827.55 673.448,6828.15 673.848,6828.85C676.348,6832.94 679.348,6836.05 683.948,6836.05C692.348,6836.05 695.648,6829.94 695.648,6822.85C695.648,6815.35 692.048,6811.24 686.348,6811.24C683.048,6811.24 680.348,6812.85 678.148,6815.15L676.148,6817.24ZM635.448,6842.35C632.948,6842.35 631.448,6839.35 631.448,6837.44C631.448,6836.85 631.548,6836.05 632.048,6835.35C632.648,6834.44 633.048,6833.94 633.448,6833.24C636.248,6827.44 641.348,6818.85 647.548,6812.44C653.548,6806.35 656.848,6801.85 656.848,6797.35C656.848,6793.24 654.248,6789.85 649.548,6789.85C644.548,6789.85 641.148,6793.05 639.648,6797.24C639.348,6798.35 638.448,6800.15 636.748,6800.15C634.248,6800.15 632.748,6796.74 632.748,6795.44C632.748,6792.55 637.948,6782.74 649.748,6782.74C658.448,6782.74 664.048,6788.85 664.048,6797.35C664.048,6805.35 658.848,6811.35 652.148,6817.94C646.948,6823.15 642.948,6829.65 640.448,6834.65C642.848,6834.55 645.548,6834.44 647.548,6834.44C651.148,6834.44 653.448,6834.55 656.448,6834.55C657.648,6834.55 661.048,6834.44 661.948,6834.44C663.448,6834.44 664.948,6836.65 664.948,6838.74C664.948,6839.85 664.348,6841.94 662.348,6841.94C656.448,6841.35 648.148,6841.35 646.848,6841.35C644.348,6841.35 641.948,6841.35 639.048,6841.74C638.348,6841.74 636.348,6842.24 635.848,6842.35L635.448,6842.35Z" style="fill-rule:nonzero;"/>
        </g>
    </g>
</svg>
