<?xml version="1.0" encoding="UTF-8" standalone="no"?>
<!DOCTYPE svg PUBLIC "-//W3C//DTD SVG 1.1//EN" "http://www.w3.org/Graphics/SVG/1.1/DTD/svg11.dtd">
<svg width="100%" height="100%" viewBox="0 0 89 89" version="1.1" xmlns="http://www.w3.org/2000/svg" xmlns:xlink="http://www.w3.org/1999/xlink" xml:space="preserve" xmlns:serif="http://www.serif.com/" style="fill-rule:evenodd;clip-rule:evenodd;stroke-linejoin:round;stroke-miterlimit:2;">
    <g transform="matrix(1,0,0,1,-858.708,-1921.63)">
        <g transform="matrix(1.41414,0,0,1.41429,-177.055,-770.755)">
            <path d="M794.796,1966.07L794.796,1903.71L732.433,1903.71L732.433,1966.07L794.796,1966.07ZM777.261,1949.31C777.261,1950.02 777.402,1954.26 777.402,1955.68C777.402,1957.09 775.918,1957.3 775.423,1957.3C773.938,1957.3 771.746,1956.03 771.746,1954.62L771.746,1954.48C771.817,1953.56 771.887,1950.09 771.887,1948.68L771.887,1938C771.887,1933.19 770.968,1930.79 767.433,1930.79C763.615,1930.79 759.019,1933.05 757.322,1938.64C756.473,1941.54 756.473,1946.41 756.473,1949.31L756.473,1950.59C756.473,1952.42 756.544,1954.19 756.615,1955.61L756.615,1955.68C756.615,1957.02 755.271,1957.3 754.705,1957.3C753.716,1957.3 750.958,1956.6 750.958,1954.55C750.958,1953.63 751.099,1949.53 751.099,1948.68L751.099,1920.11C751.099,1918.98 750.887,1915.09 750.887,1913.75C750.887,1912.76 751.665,1912.12 752.867,1912.12C754.423,1912.12 756.544,1913.32 756.544,1914.81C756.544,1915.73 756.473,1919.33 756.473,1920.75L756.473,1930.65C759.372,1927.25 763.615,1925.49 767.433,1925.49C776.059,1925.49 777.261,1932.91 777.261,1937.79L777.261,1949.31Z" style="fill-rule:nonzero;"/>
        </g>
    </g>
</svg>
