<?xml version="1.0" encoding="UTF-8" standalone="no"?>
<!DOCTYPE svg PUBLIC "-//W3C//DTD SVG 1.1//EN" "http://www.w3.org/Graphics/SVG/1.1/DTD/svg11.dtd">
<svg width="100%" height="100%" viewBox="0 0 89 89" version="1.1" xmlns="http://www.w3.org/2000/svg" xmlns:xlink="http://www.w3.org/1999/xlink" xml:space="preserve" xmlns:serif="http://www.serif.com/" style="fill-rule:evenodd;clip-rule:evenodd;stroke-linejoin:round;stroke-miterlimit:2;">
    <g transform="matrix(1,0,0,1,-1802.48,-2042.27)">
        <g transform="matrix(1.41414,0,0,1.41429,-1052.39,-837.704)">
            <path d="M2075.65,2098.71C2079.04,2098.71 2081.17,2096.17 2081.17,2093.2L2081.17,2041.86C2081.17,2038.4 2078.69,2036.35 2075.65,2036.35L2024.32,2036.35C2020.85,2036.35 2018.8,2038.68 2018.8,2041.86L2018.8,2093.2C2018.8,2096.38 2021.28,2098.71 2024.32,2098.71L2075.65,2098.71ZM2044.61,2053.74C2046.24,2052.61 2048.43,2051.55 2051.68,2051.55C2059.25,2051.55 2064.27,2057.56 2064.27,2066.96C2064.27,2074.95 2058.96,2083.72 2048.92,2083.72C2040.3,2083.72 2035.35,2077.99 2035.35,2069.23C2035.35,2062.3 2040.79,2053.46 2043.48,2053.46C2043.9,2053.46 2044.26,2053.6 2044.61,2053.74ZM2048.92,2078.49C2054.16,2078.49 2058.82,2073.47 2058.82,2066.96C2058.82,2060.46 2055.99,2056.64 2051.33,2056.64C2045.32,2056.64 2040.79,2063.22 2040.79,2069.16C2040.79,2075.38 2043.9,2078.49 2048.92,2078.49Z" style="fill-rule:nonzero;"/>
        </g>
    </g>
</svg>
