<?xml version="1.0" encoding="UTF-8" standalone="no"?>
<!DOCTYPE svg PUBLIC "-//W3C//DTD SVG 1.1//EN" "http://www.w3.org/Graphics/SVG/1.1/DTD/svg11.dtd">
<svg width="100%" height="100%" viewBox="0 0 89 89" version="1.1" xmlns="http://www.w3.org/2000/svg" xmlns:xlink="http://www.w3.org/1999/xlink" xml:space="preserve" xmlns:serif="http://www.serif.com/" style="fill-rule:evenodd;clip-rule:evenodd;stroke-linejoin:round;stroke-miterlimit:2;">
    <g transform="matrix(1,0,0,1,-1058.69,-2071.63)">
        <g transform="matrix(1.41414,0,0,1.41429,-177.055,-770.755)">
            <path d="M936.211,2072.13L936.211,2009.77L873.847,2009.77L873.847,2072.13L936.211,2072.13ZM897.18,2045.4C897.18,2050.07 898.877,2052.76 901.776,2052.76C906.372,2052.76 911.887,2046.75 912.312,2037.77C912.453,2035.29 912.453,2028.72 912.453,2027.38C912.453,2026.6 913.231,2025.75 914.503,2025.75C916.059,2025.75 918.18,2027.02 918.18,2028.29C917.473,2037.34 917.473,2037.49 917.473,2041.52C917.473,2044.63 917.968,2048.87 918.322,2050C918.604,2051.27 919.029,2052.48 919.594,2053.25C919.736,2053.61 919.877,2053.89 919.877,2054.31C919.877,2055.59 918.534,2057.57 916.766,2057.57C915.069,2057.57 913.867,2055.94 912.806,2051.34C910.12,2055.59 906.301,2057.92 901.776,2057.92C893.928,2057.92 891.806,2051.56 891.806,2045.62L891.806,2033.81C891.806,2033.03 891.594,2028.79 891.594,2027.44C891.594,2026.46 892.372,2025.82 893.574,2025.82C895.13,2025.82 897.251,2027.02 897.251,2028.51C897.251,2029.42 897.18,2032.39 897.18,2033.81L897.18,2045.4Z" style="fill-rule:nonzero;"/>
        </g>
    </g>
</svg>
