<?xml version="1.0" encoding="UTF-8" standalone="no"?>
<!DOCTYPE svg PUBLIC "-//W3C//DTD SVG 1.1//EN" "http://www.w3.org/Graphics/SVG/1.1/DTD/svg11.dtd">
<svg width="100%" height="100%" viewBox="0 0 96 96" version="1.1" xmlns="http://www.w3.org/2000/svg" xmlns:xlink="http://www.w3.org/1999/xlink" xml:space="preserve" xmlns:serif="http://www.serif.com/" style="fill-rule:evenodd;clip-rule:evenodd;stroke-linejoin:round;stroke-miterlimit:2;">
    <g transform="matrix(1,0,0,1,-1709.63,-3323.28)">
        <g transform="matrix(1,0,0,1,-110.019,-3591.86)">
            <path d="M1915.25,6962.94C1915.25,6936.55 1893.85,6915.15 1867.45,6915.15C1841.05,6915.15 1819.65,6936.55 1819.65,6962.94C1819.65,6989.35 1841.05,7010.65 1867.45,7010.65C1893.85,7010.65 1915.25,6989.35 1915.25,6962.94ZM1841.15,6967.24C1840.75,6967.74 1840.35,6967.85 1839.65,6967.85C1837.85,6967.85 1835.45,6965.85 1835.45,6962.94C1835.45,6962.65 1835.45,6962.15 1835.55,6961.65C1835.85,6960.65 1835.95,6959.74 1836.15,6959.05L1837.95,6939.85C1838.05,6938.85 1838.05,6937.55 1838.05,6936.55C1838.05,6934.74 1839.45,6934.24 1840.35,6934.24C1841.25,6934.24 1842.45,6934.65 1843.35,6935.15L1856.45,6934.24C1857.65,6934.15 1859.65,6934.05 1860.95,6933.74L1861.25,6933.74C1863.45,6933.74 1864.65,6937.15 1864.65,6938.55C1864.65,6939.65 1864.05,6941.05 1862.55,6941.15C1861.25,6941.15 1859.15,6941.24 1857.15,6941.35L1844.25,6942.24L1842.85,6956.94C1845.35,6955.24 1848.25,6954.24 1852.15,6954.24C1860.45,6954.24 1867.45,6961.24 1867.45,6972.74C1867.45,6983.44 1862.05,6993.35 1848.95,6993.35C1842.65,6993.35 1837.95,6989.85 1834.45,6985.65C1833.85,6984.85 1833.55,6983.94 1833.55,6982.94C1833.55,6981.15 1834.75,6977.55 1837.05,6977.55C1837.85,6977.55 1838.55,6978.15 1838.85,6978.85C1841.35,6982.94 1844.35,6986.05 1848.95,6986.05C1857.35,6986.05 1860.65,6979.94 1860.65,6972.85C1860.65,6965.44 1856.95,6961.24 1851.45,6961.24C1848.15,6961.24 1845.35,6962.85 1843.15,6965.15L1841.15,6967.24ZM1877.65,6987.74C1877.65,6987.65 1877.65,6987.65 1877.75,6987.44C1881.05,6976.65 1886.15,6961.05 1894.55,6941.24L1877.55,6942.74C1876.85,6942.85 1876.05,6942.94 1875.35,6942.94C1874.45,6942.94 1873.35,6942.74 1872.45,6941.74C1871.15,6940.55 1870.35,6938.65 1870.35,6937.44C1870.35,6936.85 1870.65,6935.55 1872.05,6935.55C1872.95,6935.55 1873.65,6935.65 1874.85,6935.65L1875.75,6935.65L1895.85,6934.15C1896.25,6934.15 1896.75,6933.94 1897.15,6933.85C1897.85,6933.74 1898.45,6933.55 1898.95,6933.55L1899.25,6933.55C1900.95,6933.85 1903.55,6936.05 1903.55,6938.35L1903.55,6938.74C1903.35,6939.85 1902.95,6940.74 1902.55,6941.35C1896.65,6953.05 1887.15,6979.85 1884.85,6990.55C1884.45,6992.55 1882.75,6992.85 1881.45,6992.85C1881.15,6992.85 1880.85,6992.74 1880.35,6992.74C1878.35,6992.44 1877.15,6991.35 1877.15,6989.74C1877.15,6989.15 1877.35,6988.55 1877.45,6988.24L1877.65,6987.74Z" style="fill-rule:nonzero;"/>
        </g>
    </g>
</svg>
