<?xml version="1.0" encoding="UTF-8" standalone="no"?>
<!DOCTYPE svg PUBLIC "-//W3C//DTD SVG 1.1//EN" "http://www.w3.org/Graphics/SVG/1.1/DTD/svg11.dtd">
<svg width="100%" height="100%" viewBox="0 0 96 96" version="1.1" xmlns="http://www.w3.org/2000/svg" xmlns:xlink="http://www.w3.org/1999/xlink" xml:space="preserve" xmlns:serif="http://www.serif.com/" style="fill-rule:evenodd;clip-rule:evenodd;stroke-linejoin:round;stroke-miterlimit:2;">
    <g transform="matrix(1,0,0,1,-1109.63,-3773.28)">
        <g transform="matrix(1,0,0,1,-110.019,-3591.86)">
            <path d="M1315.25,7412.94C1315.25,7386.55 1293.85,7365.15 1267.45,7365.15C1241.05,7365.15 1219.65,7386.55 1219.65,7412.94C1219.65,7439.35 1241.05,7460.65 1267.45,7460.65C1293.85,7460.65 1315.25,7439.35 1315.25,7412.94ZM1259.65,7433.05C1259.65,7434.05 1259.85,7440.05 1259.85,7442.05C1259.85,7443.94 1257.95,7444.35 1257.05,7444.35C1255.55,7444.35 1251.85,7443.35 1251.85,7440.44C1251.85,7439.15 1252.05,7434.24 1252.05,7433.05L1252.05,7391.85C1252.05,7390.24 1251.75,7384.74 1251.75,7382.74C1251.75,7380.85 1253.65,7380.44 1254.55,7380.44C1256.05,7380.44 1259.75,7381.44 1259.75,7384.35C1259.75,7385.65 1259.65,7389.85 1259.65,7391.85L1259.65,7413.55L1273.95,7403.55C1275.35,7402.55 1276.85,7401.05 1277.45,7400.44C1278.15,7399.65 1279.25,7399.44 1280.05,7399.44C1282.65,7399.44 1285.85,7401.74 1285.85,7403.05C1285.85,7403.94 1285.35,7404.55 1284.85,7404.85C1282.45,7406.55 1280.15,7407.94 1278.75,7408.94L1267.05,7417.24C1271.95,7422.24 1279.45,7430.24 1284.55,7435.24C1285.65,7436.44 1287.35,7437.55 1289.05,7438.35C1289.55,7438.65 1290.35,7439.24 1290.35,7440.35C1290.35,7442.55 1286.85,7444.55 1285.05,7444.55C1284.35,7444.55 1283.75,7444.44 1283.35,7444.05C1281.95,7442.94 1280.05,7441.44 1278.75,7440.05C1274.45,7435.55 1266.05,7426.44 1260.95,7421.44L1259.65,7422.35L1259.65,7433.05Z" style="fill-rule:nonzero;"/>
        </g>
    </g>
</svg>
