<?xml version="1.0" encoding="UTF-8" standalone="no"?>
<!DOCTYPE svg PUBLIC "-//W3C//DTD SVG 1.1//EN" "http://www.w3.org/Graphics/SVG/1.1/DTD/svg11.dtd">
<svg width="100%" height="100%" viewBox="0 0 96 96" version="1.1" xmlns="http://www.w3.org/2000/svg" xmlns:xlink="http://www.w3.org/1999/xlink" xml:space="preserve" xmlns:serif="http://www.serif.com/" style="fill-rule:evenodd;clip-rule:evenodd;stroke-linejoin:round;stroke-miterlimit:2;">
    <g transform="matrix(1,0,0,1,-1809.63,-3773.28)">
        <g transform="matrix(1,0,0,1,-110.019,-3591.86)">
            <path d="M2015.25,7412.94C2015.25,7386.55 1993.85,7365.15 1967.45,7365.15C1941.05,7365.15 1919.65,7386.55 1919.65,7412.94C1919.65,7439.35 1941.05,7460.65 1967.45,7460.65C1993.85,7460.65 2015.25,7439.35 2015.25,7412.94ZM1963.25,7396.24C1966.15,7393.44 1970.35,7391.44 1975.05,7391.44C1978.25,7391.44 1982.85,7392.85 1985.55,7395.94C1985.95,7396.55 1986.15,7397.35 1986.15,7397.94C1986.15,7399.65 1984.85,7403.24 1982.25,7403.24C1981.05,7403.24 1980.25,7402.35 1979.85,7401.55C1979.05,7400.05 1976.35,7399.15 1974.85,7399.15C1970.65,7399.15 1966.25,7401.55 1964.35,7407.65C1963.25,7411.35 1963.05,7418.44 1963.05,7425.05C1963.05,7428.55 1963.35,7432.15 1963.35,7434.05C1963.35,7436.05 1961.25,7436.35 1960.55,7436.35C1958.35,7436.35 1955.25,7434.44 1955.25,7432.55C1955.25,7431.15 1955.45,7426.24 1955.45,7425.05L1955.45,7402.85C1955.45,7401.24 1955.25,7395.74 1955.25,7393.74C1955.25,7391.85 1957.15,7391.44 1958.05,7391.44C1959.55,7391.44 1963.25,7392.44 1963.25,7395.35L1963.25,7396.24Z" style="fill-rule:nonzero;"/>
        </g>
    </g>
</svg>
