<?xml version="1.0" encoding="UTF-8" standalone="no"?>
<!DOCTYPE svg PUBLIC "-//W3C//DTD SVG 1.1//EN" "http://www.w3.org/Graphics/SVG/1.1/DTD/svg11.dtd">
<svg width="100%" height="100%" viewBox="0 0 89 89" version="1.1" xmlns="http://www.w3.org/2000/svg" xmlns:xlink="http://www.w3.org/1999/xlink" xml:space="preserve" xmlns:serif="http://www.serif.com/" style="fill-rule:evenodd;clip-rule:evenodd;stroke-linejoin:round;stroke-miterlimit:2;">
    <g transform="matrix(1,0,0,1,-2102.45,-242.274)">
        <g transform="matrix(1.41414,0,0,1.41429,-1052.39,-837.704)">
            <path d="M2287.77,825.984C2291.17,825.984 2293.29,823.439 2293.29,820.469L2293.29,769.136C2293.29,765.671 2290.81,763.621 2287.77,763.621L2236.44,763.621C2232.97,763.621 2230.92,765.954 2230.92,769.136L2230.92,820.469C2230.92,823.651 2233.4,825.984 2236.44,825.984L2287.77,825.984ZM2256.17,790.56C2258.29,789.57 2260.76,789.075 2263.38,789.075C2271.58,789.075 2278.23,794.025 2278.23,801.873C2278.23,810.429 2272.99,816.793 2262.18,816.793C2252.42,816.793 2246.2,811.56 2246.2,803.712C2246.2,797.065 2248.88,790.631 2256.1,781.085C2257.65,779.035 2259.21,777.197 2260.41,775.5C2260.55,775.146 2260.9,774.58 2261.12,774.298C2261.61,773.449 2262.74,773.096 2263.8,773.096C2264.58,773.096 2267.55,773.166 2267.55,775.358C2267.55,776.136 2266.98,776.843 2266.49,777.409C2262.32,781.51 2259.07,786.318 2256.17,790.56ZM2272.71,802.085C2272.71,797.631 2269.25,794.096 2263.24,794.096C2257.58,794.096 2251.78,798.126 2251.78,803.57C2251.78,808.52 2255.03,811.772 2262.18,811.772C2269.46,811.772 2272.71,807.954 2272.71,802.085Z" style="fill-rule:nonzero;"/>
        </g>
    </g>
</svg>
