<?xml version="1.0" encoding="UTF-8" standalone="no"?>
<!DOCTYPE svg PUBLIC "-//W3C//DTD SVG 1.1//EN" "http://www.w3.org/Graphics/SVG/1.1/DTD/svg11.dtd">
<svg width="100%" height="100%" viewBox="0 0 96 96" version="1.1" xmlns="http://www.w3.org/2000/svg" xmlns:xlink="http://www.w3.org/1999/xlink" xml:space="preserve" xmlns:serif="http://www.serif.com/" style="fill-rule:evenodd;clip-rule:evenodd;stroke-linejoin:round;stroke-miterlimit:2;">
    <g transform="matrix(1,0,0,1,-709.628,-3623.28)">
        <g transform="matrix(1,0,0,1,-110.019,-3591.86)">
            <path d="M915.248,7262.94C915.248,7236.55 893.848,7215.15 867.448,7215.15C841.048,7215.15 819.648,7236.55 819.648,7262.94C819.648,7289.35 841.048,7310.65 867.448,7310.65C893.848,7310.65 915.248,7289.35 915.248,7262.94ZM855.448,7258.44C863.348,7262.55 867.448,7267.85 867.448,7275.85C867.448,7286.65 859.948,7293.35 849.248,7293.35C839.448,7293.35 833.348,7286.24 833.348,7276.94C833.348,7269.85 836.948,7264.35 842.648,7259.74C837.348,7256.35 835.548,7252.74 835.548,7247.44C835.548,7239.55 841.248,7232.85 850.548,7232.85C856.648,7232.85 860.948,7236.74 863.948,7241.35C863.948,7241.44 863.948,7241.55 864.048,7241.65C864.148,7241.65 864.348,7241.55 864.548,7241.55C866.048,7241.55 867.048,7242.94 867.048,7244.55C867.048,7248.44 856.748,7257.44 855.448,7258.44ZM878.148,7287.74L878.148,7287.44C878.948,7285.15 879.648,7282.94 880.048,7281.55C884.048,7269.05 889.348,7254.74 895.048,7241.24L878.048,7242.74C877.348,7242.85 876.548,7242.94 875.848,7242.94C874.948,7242.94 873.848,7242.74 872.948,7241.74C871.648,7240.55 870.748,7238.65 870.748,7237.44C870.748,7236.85 871.148,7235.55 872.548,7235.55C873.448,7235.55 874.148,7235.65 875.348,7235.65L876.248,7235.65L896.348,7234.15C896.748,7234.15 897.248,7233.94 897.648,7233.85C898.248,7233.65 898.848,7233.55 899.448,7233.55L899.748,7233.55C901.448,7233.85 904.048,7236.05 904.048,7238.35L904.048,7238.74C903.848,7239.85 903.448,7240.74 903.048,7241.35C896.548,7254.24 887.148,7282.15 885.348,7290.44C884.948,7292.55 883.248,7292.85 881.948,7292.85C881.648,7292.85 881.348,7292.74 880.848,7292.74C878.848,7292.44 877.648,7291.35 877.648,7289.74C877.648,7289.15 877.848,7288.55 877.948,7288.24L878.148,7287.74ZM849.248,7263.15C843.148,7267.94 840.048,7272.05 840.048,7276.74C840.048,7281.44 842.748,7286.15 849.248,7286.15C856.148,7286.15 860.648,7281.94 860.648,7276.24C860.648,7271.35 858.548,7267.55 850.348,7263.65C850.048,7263.44 849.648,7263.24 849.248,7263.15ZM858.748,7246.24C858.548,7245.94 858.348,7245.74 858.148,7245.35C856.248,7241.85 854.048,7239.85 850.548,7239.85C844.848,7239.85 842.348,7243.74 842.348,7247.44C842.348,7250.55 843.348,7252.24 848.848,7255.15C852.548,7252.44 855.848,7249.35 858.748,7246.24Z" style="fill-rule:nonzero;"/>
        </g>
    </g>
</svg>
