<?xml version="1.0" encoding="UTF-8" standalone="no"?>
<!DOCTYPE svg PUBLIC "-//W3C//DTD SVG 1.1//EN" "http://www.w3.org/Graphics/SVG/1.1/DTD/svg11.dtd">
<svg width="100%" height="100%" viewBox="0 0 89 89" version="1.1" xmlns="http://www.w3.org/2000/svg" xmlns:xlink="http://www.w3.org/1999/xlink" xml:space="preserve" xmlns:serif="http://www.serif.com/" style="fill-rule:evenodd;clip-rule:evenodd;stroke-linejoin:round;stroke-miterlimit:2;">
    <g transform="matrix(1,0,0,1,-2202.44,-842.274)">
        <g transform="matrix(1.41414,0,0,1.41429,-1052.39,-837.704)">
            <path d="M2339.81,1237.01L2339.81,1236.79C2346.46,1216.85 2349.5,1209.36 2351.97,1203.42L2339.74,1204.55C2339.18,1204.62 2338.61,1204.69 2338.12,1204.69C2335.71,1204.69 2334.51,1201.86 2334.51,1200.73C2334.51,1200.31 2334.72,1199.32 2335.78,1199.32C2336.42,1199.32 2336.91,1199.39 2337.76,1199.39L2338.47,1199.39L2352.89,1198.33C2353.25,1198.33 2353.6,1198.19 2353.88,1198.12C2354.31,1197.97 2354.8,1197.9 2355.23,1197.9L2355.44,1197.9C2356.64,1198.12 2358.48,1199.74 2358.48,1201.37L2358.48,1201.65C2358.41,1202.43 2358.05,1203.07 2357.77,1203.56C2353.67,1211.76 2346.18,1232.76 2345.04,1238.98C2344.76,1240.47 2343.49,1240.68 2342.57,1240.68C2342.36,1240.68 2342.08,1240.61 2341.79,1240.61C2340.31,1240.4 2339.46,1239.62 2339.46,1238.42C2339.46,1238 2339.6,1237.57 2339.67,1237.36L2339.81,1237.01ZM2325.74,1216.29C2329.42,1217.28 2332.46,1221.24 2332.46,1226.61C2332.46,1234.32 2328.36,1241.04 2318.74,1241.04C2314.64,1241.04 2311.39,1239.27 2308.49,1236.16C2307.92,1235.52 2307.85,1234.81 2307.85,1234.25C2307.85,1233.12 2308.63,1230.57 2310.33,1230.57C2310.68,1230.57 2311.11,1230.78 2311.53,1231.28C2313.58,1234.11 2315.63,1235.87 2318.74,1235.87C2325.11,1235.87 2327.44,1231.42 2327.44,1226.68C2327.44,1222.72 2324.75,1219.82 2320.65,1219.82C2319.1,1219.82 2317.4,1220.18 2316.76,1220.32C2316.62,1220.39 2316.62,1220.39 2316.48,1220.39C2314.78,1220.39 2313.93,1218.2 2313.93,1217.07C2313.93,1216.29 2314.36,1215.37 2315.35,1215.16C2320.23,1214.8 2325.95,1211.76 2325.95,1207.52C2325.95,1204.41 2324.19,1202.43 2320.72,1202.43C2317.96,1202.43 2315.63,1203.7 2313.16,1206.81C2312.66,1207.45 2312.24,1208.09 2311.39,1208.09C2310.12,1208.09 2308.91,1206.18 2308.91,1204.62C2308.91,1203.77 2309.27,1203.14 2309.62,1202.78C2312.45,1199.32 2316.05,1197.34 2320.65,1197.34C2326.59,1197.34 2330.83,1200.87 2330.83,1207.17C2330.83,1212.61 2327.23,1215.58 2325.74,1216.29ZM2358.48,1250.23C2361.87,1250.23 2363.99,1247.68 2363.99,1244.71L2363.99,1193.38C2363.99,1189.91 2361.52,1187.86 2358.48,1187.86L2307.14,1187.86C2303.68,1187.86 2301.63,1190.2 2301.63,1193.38L2301.63,1244.71C2301.63,1247.89 2304.11,1250.23 2307.14,1250.23L2358.48,1250.23Z" style="fill-rule:nonzero;"/>
        </g>
    </g>
</svg>
