<?xml version="1.0" encoding="UTF-8" standalone="no"?>
<!DOCTYPE svg PUBLIC "-//W3C//DTD SVG 1.1//EN" "http://www.w3.org/Graphics/SVG/1.1/DTD/svg11.dtd">
<svg width="100%" height="100%" viewBox="0 0 89 89" version="1.1" xmlns="http://www.w3.org/2000/svg" xmlns:xlink="http://www.w3.org/1999/xlink" xml:space="preserve" xmlns:serif="http://www.serif.com/" style="fill-rule:evenodd;clip-rule:evenodd;stroke-linejoin:round;stroke-miterlimit:2;">
    <g transform="matrix(1,0,0,1,-1902.47,-692.274)">
        <g transform="matrix(1.41414,0,0,1.41429,-1052.39,-837.704)">
            <path d="M2146.36,1144.17C2149.75,1144.17 2151.87,1141.62 2151.87,1138.65L2151.87,1087.32C2151.87,1083.85 2149.4,1081.8 2146.36,1081.8L2095.02,1081.8C2091.56,1081.8 2089.51,1084.14 2089.51,1087.32L2089.51,1138.65C2089.51,1141.83 2091.98,1144.17 2095.02,1144.17L2146.36,1144.17ZM2140.7,1127.2C2140.7,1129.53 2140.98,1131.79 2140.98,1133.14C2140.98,1133.91 2140.28,1134.76 2139.14,1134.76C2137.66,1134.76 2135.68,1133.49 2135.68,1132.08C2135.68,1131.16 2135.82,1127.9 2135.82,1127.06L2135.82,1125.01L2125.71,1125.36C2125.43,1125.36 2124.72,1125.5 2123.45,1125.85L2123.59,1125.78L2123.45,1125.78C2121.89,1125.78 2120.27,1124.02 2120.27,1122.11C2120.27,1121.12 2120.55,1120.69 2121.68,1118.92C2121.96,1118.57 2122.25,1118.15 2122.39,1117.79C2126.21,1110.79 2133.21,1096.86 2134.55,1092.41C2134.9,1091.7 2135.33,1091.42 2135.96,1091.42C2137.38,1091.42 2139.22,1093.68 2139.22,1095.38C2139.22,1095.8 2139.07,1096.16 2138.93,1096.51C2137.59,1098.7 2136.39,1101.25 2135.96,1102.17C2136.18,1101.81 2136.81,1101.39 2137.52,1101.39C2138.93,1101.39 2140.84,1102.59 2140.84,1104.08C2140.84,1105 2140.7,1107.75 2140.7,1109.17L2140.7,1119.84L2140.91,1119.84C2141.83,1119.77 2143.95,1119.49 2144.59,1119.49C2146.36,1119.49 2147.21,1121.96 2147.21,1123.1C2147.21,1123.73 2146.92,1124.93 2145.72,1124.93C2145.16,1124.93 2143.25,1124.79 2141.76,1124.79L2140.7,1124.79L2140.7,1127.2ZM2098.77,1134.27C2097.07,1134.27 2095.94,1132.15 2095.94,1130.73C2095.94,1130.31 2096.01,1129.74 2096.37,1129.25C2096.86,1128.61 2097.14,1128.19 2097.36,1127.69C2099.41,1123.52 2103.09,1117.3 2107.54,1112.7C2111.92,1108.32 2114.26,1105.07 2114.26,1101.81C2114.26,1098.84 2112.35,1096.37 2109.02,1096.37C2105.42,1096.37 2102.94,1098.7 2101.88,1101.74C2101.6,1102.52 2101.03,1103.79 2099.76,1103.79C2098.77,1103.79 2096.86,1102.31 2096.86,1100.4C2096.86,1099.97 2096.93,1099.34 2097.29,1098.84C2099.48,1094.39 2103.44,1091.28 2109.17,1091.28C2115.39,1091.28 2119.49,1095.66 2119.49,1101.81C2119.49,1107.54 2115.67,1111.92 2110.93,1116.66C2107.12,1120.41 2104.29,1125.08 2102.38,1128.75C2104.14,1128.61 2106.12,1128.54 2107.61,1128.54C2110.16,1128.54 2111.85,1128.61 2113.97,1128.61C2114.82,1128.61 2116.94,1128.54 2117.58,1128.54C2119.35,1128.54 2119.98,1131.02 2119.98,1131.93C2119.98,1132.64 2119.63,1133.98 2118.22,1133.98C2116.73,1133.84 2113.2,1133.56 2107.04,1133.56C2105.28,1133.56 2103.51,1133.56 2101.46,1133.84C2101.11,1133.84 2100.26,1133.98 2099.12,1134.27L2098.77,1134.27ZM2135.82,1120.06L2135.82,1109.17C2135.82,1108.04 2135.68,1104.36 2135.68,1103.02L2135.75,1102.59C2133.14,1108.04 2129.6,1114.89 2126.7,1120.27L2135.82,1120.06Z" style="fill-rule:nonzero;"/>
        </g>
    </g>
</svg>
