<?xml version="1.0" encoding="UTF-8" standalone="no"?>
<!DOCTYPE svg PUBLIC "-//W3C//DTD SVG 1.1//EN" "http://www.w3.org/Graphics/SVG/1.1/DTD/svg11.dtd">
<svg width="100%" height="100%" viewBox="0 0 89 89" version="1.1" xmlns="http://www.w3.org/2000/svg" xmlns:xlink="http://www.w3.org/1999/xlink" xml:space="preserve" xmlns:serif="http://www.serif.com/" style="fill-rule:evenodd;clip-rule:evenodd;stroke-linejoin:round;stroke-miterlimit:2;">
    <g transform="matrix(1,0,0,1,-1702.49,-1892.27)">
        <g transform="matrix(1.41414,0,0,1.41429,-1052.39,-837.704)">
            <path d="M2004.94,1992.65C2008.34,1992.65 2010.46,1990.11 2010.46,1987.14L2010.46,1935.8C2010.46,1932.34 2007.98,1930.29 2004.94,1930.29L1953.61,1930.29C1950.14,1930.29 1948.1,1932.62 1948.1,1935.8L1948.1,1987.14C1948.1,1990.32 1950.57,1992.65 1953.61,1992.65L2004.94,1992.65ZM1985.71,1954.12C1984.3,1951.15 1982.6,1950.58 1980.76,1950.58C1975.74,1950.58 1969.73,1956.59 1969.73,1963.66C1969.73,1969.95 1973.62,1972.5 1976.87,1972.5C1982.03,1972.5 1985.57,1969.46 1988.33,1966.56C1988.89,1966 1989.53,1965.43 1990.38,1965.43C1991.51,1965.43 1991.93,1966.49 1991.93,1967.13C1991.93,1968.89 1986.84,1977.66 1976.87,1977.66C1969.94,1977.66 1964.29,1972.71 1964.29,1963.94C1964.29,1953.9 1972.63,1945.49 1980.62,1945.49C1987.69,1945.49 1990.24,1950.3 1990.24,1951.57C1990.24,1953.2 1988.68,1954.96 1987.2,1954.96C1986.49,1954.96 1985.99,1954.54 1985.71,1954.12Z" style="fill-rule:nonzero;"/>
        </g>
    </g>
</svg>
