<?xml version="1.0" encoding="UTF-8" standalone="no"?>
<!DOCTYPE svg PUBLIC "-//W3C//DTD SVG 1.1//EN" "http://www.w3.org/Graphics/SVG/1.1/DTD/svg11.dtd">
<svg width="100%" height="100%" viewBox="0 0 89 89" version="1.1" xmlns="http://www.w3.org/2000/svg" xmlns:xlink="http://www.w3.org/1999/xlink" xml:space="preserve" xmlns:serif="http://www.serif.com/" style="fill-rule:evenodd;clip-rule:evenodd;stroke-linejoin:round;stroke-miterlimit:2;">
    <g transform="matrix(1,0,0,1,-158.78,-721.632)">
        <g transform="matrix(1.41414,0,0,1.41429,-177.055,-770.755)">
            <path d="M299.847,1117.59L299.847,1055.22L237.483,1055.22L237.483,1117.59L299.847,1117.59ZM275.948,1067.81C277.645,1065.9 279.908,1064.63 282.524,1064.63C290.231,1064.63 293.837,1074.24 293.837,1085.63C293.837,1097.22 290.16,1108.39 281.251,1108.39C272.837,1108.39 269.301,1098.71 269.301,1087.11C269.301,1079.48 272.13,1067.74 275.312,1067.74C275.524,1067.74 275.736,1067.74 275.948,1067.81ZM245.544,1107.69C243.776,1107.69 242.716,1105.57 242.716,1104.15C242.716,1103.73 242.786,1103.16 243.14,1102.67L244.13,1101.11C246.18,1096.94 250.211,1090.72 254.665,1086.12C258.978,1081.74 261.312,1078.49 261.312,1075.23C261.312,1072.26 259.402,1069.79 256.079,1069.79C252.473,1069.79 249.998,1072.12 248.938,1075.16C248.726,1075.94 248.089,1077.21 246.817,1077.21C245.827,1077.21 243.918,1075.73 243.918,1073.82C243.918,1073.39 243.988,1072.76 244.342,1072.26C246.604,1067.81 250.493,1064.7 256.221,1064.7C262.443,1064.7 266.544,1069.08 266.544,1075.23C266.544,1080.96 262.796,1085.34 257.988,1090.08C254.17,1093.9 251.059,1098.57 249.15,1102.17C250.918,1102.03 252.827,1101.96 254.312,1101.96C256.857,1101.96 258.908,1102.03 261.029,1102.03C261.948,1102.03 263.645,1101.96 264.352,1101.96C266.049,1101.96 266.968,1104.51 266.968,1105.57C266.968,1106.41 266.473,1107.4 265.271,1107.4C261.241,1106.98 257.493,1106.98 253.817,1106.98C252.049,1106.98 250.281,1106.98 248.16,1107.26C247.665,1107.26 246.251,1107.62 245.897,1107.69L245.544,1107.69ZM281.11,1103.23C286.2,1103.23 288.746,1095.24 288.746,1085.2C288.746,1076.86 286.625,1069.65 282.382,1069.65C279.413,1069.65 274.463,1074.81 274.463,1087.04C274.463,1096.73 276.514,1103.23 281.11,1103.23Z" style="fill-rule:nonzero;"/>
        </g>
    </g>
</svg>
