<?xml version="1.0" encoding="UTF-8" standalone="no"?>
<!DOCTYPE svg PUBLIC "-//W3C//DTD SVG 1.1//EN" "http://www.w3.org/Graphics/SVG/1.1/DTD/svg11.dtd">
<svg width="100%" height="100%" viewBox="0 0 89 89" version="1.1" xmlns="http://www.w3.org/2000/svg" xmlns:xlink="http://www.w3.org/1999/xlink" xml:space="preserve" xmlns:serif="http://www.serif.com/" style="fill-rule:evenodd;clip-rule:evenodd;stroke-linejoin:round;stroke-miterlimit:2;">
    <g transform="matrix(1,0,0,1,-2102.45,-1292.27)">
        <g transform="matrix(1.41414,0,0,1.41429,-1052.39,-837.704)">
            <path d="M2271.65,1532.77C2273.14,1531.92 2274.83,1531.43 2276.67,1531.43C2283.18,1531.43 2287.63,1537.02 2287.63,1544.51C2287.63,1552.71 2283.18,1559.22 2275.82,1559.22C2269.11,1559.22 2264.01,1553.35 2264.01,1546.07C2264.01,1541.05 2265.22,1536.03 2267.62,1530.65C2269.88,1525.49 2272,1521.25 2274.05,1517.71C2274.2,1517.64 2274.27,1517.43 2274.41,1517.29C2274.48,1516.93 2275.19,1515.45 2276.81,1515.45C2276.95,1515.45 2279.78,1515.52 2279.78,1517.78C2279.78,1518.42 2279.36,1519.27 2279.08,1519.69C2275.89,1523.93 2273.56,1528.81 2271.65,1532.77ZM2244.85,1532.77C2246.34,1531.92 2248.03,1531.43 2249.87,1531.43C2256.38,1531.43 2260.83,1537.02 2260.83,1544.51C2260.83,1552.71 2256.38,1559.22 2249.02,1559.22C2242.31,1559.22 2237.22,1553.35 2237.22,1546.07C2237.22,1543.38 2237.22,1535.18 2247.33,1517.71C2247.4,1517.64 2247.47,1517.43 2247.61,1517.29C2248.25,1515.94 2249.1,1515.45 2250.01,1515.45C2251.14,1515.45 2253.05,1516.23 2253.05,1517.78C2253.05,1518.42 2252.56,1519.27 2252.28,1519.69C2249.17,1523.93 2246.76,1528.81 2244.85,1532.77ZM2275.82,1554.2C2279.78,1554.2 2282.89,1550.38 2282.89,1544.65C2282.89,1540.2 2280.42,1536.45 2276.6,1536.45C2271.79,1536.45 2268.68,1540.83 2268.68,1546C2268.68,1550.66 2271.58,1554.2 2275.82,1554.2ZM2249.02,1554.2C2253.05,1554.2 2256.1,1550.38 2256.1,1544.65C2256.1,1540.2 2253.69,1536.45 2249.8,1536.45C2244.99,1536.45 2241.88,1540.83 2241.88,1546C2241.88,1550.66 2244.85,1554.2 2249.02,1554.2ZM2287.77,1568.41C2291.17,1568.41 2293.29,1565.86 2293.29,1562.89L2293.29,1511.56C2293.29,1508.1 2290.81,1506.05 2287.77,1506.05L2236.44,1506.05C2232.97,1506.05 2230.92,1508.38 2230.92,1511.56L2230.92,1562.89C2230.92,1566.08 2233.4,1568.41 2236.44,1568.41L2287.77,1568.41Z" style="fill-rule:nonzero;"/>
        </g>
    </g>
</svg>
