<?xml version="1.0" encoding="UTF-8" standalone="no"?>
<!DOCTYPE svg PUBLIC "-//W3C//DTD SVG 1.1//EN" "http://www.w3.org/Graphics/SVG/1.1/DTD/svg11.dtd">
<svg width="100%" height="100%" viewBox="0 0 89 89" version="1.1" xmlns="http://www.w3.org/2000/svg" xmlns:xlink="http://www.w3.org/1999/xlink" xml:space="preserve" xmlns:serif="http://www.serif.com/" style="fill-rule:evenodd;clip-rule:evenodd;stroke-linejoin:round;stroke-miterlimit:2;">
    <g transform="matrix(1,0,0,1,-458.749,-271.632)">
        <g transform="matrix(1.41414,0,0,1.41429,-177.055,-770.755)">
            <path d="M511.968,799.405L511.968,737.041L449.604,737.041L449.604,799.405L511.968,799.405ZM488.423,765.465C494.15,766.738 496.554,771.546 496.554,776.001C496.554,784.132 491.039,790.213 478.877,790.213C472.514,790.213 468.625,788.162 465.16,784.556C464.736,784.132 464.524,783.425 464.524,782.859C464.524,781.587 465.514,778.971 467.352,778.971C468.059,778.971 468.625,779.395 468.978,779.96C471.029,783.213 474.14,785.051 478.877,785.051C487.433,785.051 491.039,780.88 491.039,776.072C491.039,771.758 487.503,769.001 481.988,769.001C480.857,769.001 478.806,769.001 477.11,769.637C476.897,769.779 476.615,769.779 476.332,769.779C474.281,769.779 473.221,767.587 473.221,766.385C473.221,765.607 473.645,764.546 474.918,764.476C477.251,764.334 489.059,762.425 489.059,756.769C489.059,753.516 487.009,751.607 481.776,751.607C477.392,751.607 474.493,752.95 471.524,756.203C471.029,756.769 470.392,757.263 469.615,757.263C468.978,757.263 468.413,756.91 467.988,756.556C467.14,755.637 466.786,754.789 466.786,753.94C466.786,753.021 467.211,752.314 467.705,751.89C471.382,748.425 475.554,746.516 481.635,746.516C489.483,746.516 494.503,749.839 494.503,756.344C494.503,760.516 492.099,763.627 488.423,765.465Z" style="fill-rule:nonzero;"/>
        </g>
    </g>
</svg>
