<?xml version="1.0" encoding="UTF-8" standalone="no"?>
<!DOCTYPE svg PUBLIC "-//W3C//DTD SVG 1.1//EN" "http://www.w3.org/Graphics/SVG/1.1/DTD/svg11.dtd">
<svg width="100%" height="100%" viewBox="0 0 89 89" version="1.1" xmlns="http://www.w3.org/2000/svg" xmlns:xlink="http://www.w3.org/1999/xlink" xml:space="preserve" xmlns:serif="http://www.serif.com/" style="fill-rule:evenodd;clip-rule:evenodd;stroke-linejoin:round;stroke-miterlimit:2;">
    <g transform="matrix(1,0,0,1,-558.739,-571.632)">
        <g transform="matrix(1.41414,0,0,1.41429,-177.055,-770.755)">
            <path d="M582.675,1011.53L582.675,949.162L520.312,949.162L520.312,1011.53L582.675,1011.53ZM569.241,994.556C569.241,996.89 569.524,999.152 569.524,1000.5C569.524,1001.27 568.746,1002.12 567.473,1002.12C565.847,1002.12 563.655,1000.85 563.655,999.435C563.655,998.516 563.796,995.263 563.796,994.415L563.796,992.435L551.564,993.072C551.14,993.072 550.503,993.213 549.16,993.496L549.019,993.496C547.251,993.496 545.483,991.728 545.483,989.819C545.483,989.324 545.625,988.688 546.049,988.051C546.685,987.132 547.463,986.284 547.887,985.506C559.766,966.132 561.251,963.092 562.382,959.769C562.736,959.061 563.301,958.779 563.938,958.779C565.564,958.779 567.544,961.041 567.544,962.738C567.544,963.162 567.402,963.516 567.261,963.87C566.413,965.142 565.918,965.991 565.281,967.051C562.029,972.566 556.867,981.193 552.483,987.981L563.796,987.486L563.796,976.526C563.796,975.395 563.655,971.718 563.655,970.375C563.655,969.597 564.433,968.748 565.705,968.748C567.261,968.748 569.382,969.95 569.382,971.435C569.382,972.354 569.241,975.112 569.241,976.526L569.241,987.203L569.453,987.203C570.938,987.132 572.847,986.849 573.554,986.849C575.463,986.849 576.382,989.324 576.382,990.455C576.382,991.092 576.099,992.294 574.756,992.294C574.12,992.294 572.635,992.082 570.938,992.082C570.514,992.082 570.089,992.152 569.665,992.152L569.241,992.152L569.241,994.556ZM539.615,1000.57C539.615,1001.56 538.766,1002.12 537.635,1002.12C535.938,1002.12 533.887,1000.85 533.887,999.506C533.887,998.587 534.029,995.688 534.029,994.486L534.029,966.981C531.413,968.253 528.655,968.819 528.584,968.819C527.029,968.819 525.261,967.476 525.261,966.486C525.261,965.566 525.968,965.142 526.534,964.93C529.291,963.87 531.837,962.385 533.534,961.112L533.817,960.758L534.524,960.122C535.16,959.415 536.009,958.92 536.645,958.92C537.988,958.92 539.827,960.405 539.827,962.102C539.827,963.021 539.473,964.011 539.473,965.637L539.473,994.132C539.473,995.688 539.544,999.011 539.615,1000.43L539.615,1000.57Z" style="fill-rule:nonzero;"/>
        </g>
    </g>
</svg>
