<?xml version="1.0" encoding="UTF-8" standalone="no"?>
<!DOCTYPE svg PUBLIC "-//W3C//DTD SVG 1.1//EN" "http://www.w3.org/Graphics/SVG/1.1/DTD/svg11.dtd">
<svg width="100%" height="100%" viewBox="0 0 89 89" version="1.1" xmlns="http://www.w3.org/2000/svg" xmlns:xlink="http://www.w3.org/1999/xlink" xml:space="preserve" xmlns:serif="http://www.serif.com/" style="fill-rule:evenodd;clip-rule:evenodd;stroke-linejoin:round;stroke-miterlimit:2;">
    <g transform="matrix(1,0,0,1,-158.78,-2071.63)">
        <g transform="matrix(1.41414,0,0,1.41429,-177.055,-770.755)">
            <path d="M299.847,2072.13L299.847,2009.77L237.483,2009.77L237.483,2072.13L299.847,2072.13ZM271.352,2055.59C271.352,2056.29 271.493,2060.54 271.493,2061.95C271.493,2063.36 270.009,2063.58 269.514,2063.58C268.524,2063.58 265.766,2062.87 265.766,2060.82C265.766,2059.9 265.908,2056.43 265.908,2055.59L265.908,2026.38C265.908,2025.25 265.766,2021.36 265.766,2020.02C265.766,2019.03 266.544,2018.39 267.746,2018.39C269.301,2018.39 271.423,2019.6 271.423,2021.08C271.423,2022 271.352,2024.97 271.352,2026.38L271.352,2055.59Z" style="fill-rule:nonzero;"/>
        </g>
    </g>
</svg>
