<?xml version="1.0" encoding="UTF-8" standalone="no"?>
<!DOCTYPE svg PUBLIC "-//W3C//DTD SVG 1.1//EN" "http://www.w3.org/Graphics/SVG/1.1/DTD/svg11.dtd">
<svg width="100%" height="100%" viewBox="0 0 89 89" version="1.1" xmlns="http://www.w3.org/2000/svg" xmlns:xlink="http://www.w3.org/1999/xlink" xml:space="preserve" xmlns:serif="http://www.serif.com/" style="fill-rule:evenodd;clip-rule:evenodd;stroke-linejoin:round;stroke-miterlimit:2;">
    <g transform="matrix(1,0,0,1,-958.698,-571.632)">
        <g transform="matrix(1.41414,0,0,1.41429,-177.055,-770.755)">
            <path d="M865.503,1011.53L865.503,949.162L803.14,949.162L803.14,1011.53L865.503,1011.53ZM854.968,965.001C856.17,965.001 857.019,965.92 857.019,967.122C857.019,969.88 849.17,976.173 847.685,977.162C853.978,980.132 857.301,983.95 857.301,989.748C857.301,997.455 851.291,1002.33 842.736,1002.33C834.817,1002.33 829.938,997.243 829.938,990.526C829.938,985.364 832.837,981.476 837.433,978.082C833.19,975.678 831.705,973.061 831.705,969.243C831.705,963.587 836.301,958.708 843.726,958.708C848.675,958.708 852.14,961.536 854.473,964.789C854.473,964.859 854.544,964.93 854.544,965.001L854.968,965.001ZM821.736,1000.57C821.736,1001.56 820.887,1002.12 819.756,1002.12C818.059,1002.12 816.009,1000.85 816.009,999.506C816.009,998.587 816.15,995.688 816.15,994.486L816.15,966.981C813.534,968.253 810.776,968.819 810.705,968.819C809.15,968.819 807.382,967.476 807.382,966.486C807.382,965.566 808.089,965.142 808.655,964.93C811.413,963.87 813.958,962.385 815.655,961.112L815.938,960.758L816.645,960.122C817.281,959.415 818.13,958.92 818.766,958.92C820.11,958.92 821.948,960.405 821.948,962.102C821.948,963.021 821.594,964.011 821.594,965.637L821.594,994.132C821.594,995.688 821.665,999.011 821.736,1000.43L821.736,1000.57ZM842.736,980.556C837.786,984.021 835.382,986.991 835.382,990.385C835.382,993.779 837.503,997.173 842.736,997.173C848.251,997.173 851.857,994.132 851.857,990.031C851.857,986.496 850.16,983.738 843.584,980.91C843.372,980.769 843.019,980.627 842.736,980.556ZM850.372,968.395C850.16,968.183 850.019,967.971 849.877,967.758C848.322,965.142 846.625,963.728 843.796,963.728C839.2,963.728 837.15,966.556 837.15,969.243C837.15,971.435 837.998,972.708 842.453,974.758C845.423,972.849 848.039,970.587 850.372,968.395Z" style="fill-rule:nonzero;"/>
        </g>
    </g>
</svg>
