<?xml version="1.0" encoding="UTF-8" standalone="no"?>
<!DOCTYPE svg PUBLIC "-//W3C//DTD SVG 1.1//EN" "http://www.w3.org/Graphics/SVG/1.1/DTD/svg11.dtd">
<svg width="100%" height="100%" viewBox="0 0 89 89" version="1.1" xmlns="http://www.w3.org/2000/svg" xmlns:xlink="http://www.w3.org/1999/xlink" xml:space="preserve" xmlns:serif="http://www.serif.com/" style="fill-rule:evenodd;clip-rule:evenodd;stroke-linejoin:round;stroke-miterlimit:2;">
    <g transform="matrix(1,0,0,1,-658.729,-1621.63)">
        <g transform="matrix(1.41414,0,0,1.41429,-177.055,-770.755)">
            <path d="M653.382,1753.95L653.382,1691.59L591.019,1691.59L591.019,1753.95L653.382,1753.95ZM619.443,1707.42C620.503,1707.42 621.281,1708.34 621.281,1709.55C621.281,1712.59 612.938,1719.52 612.867,1719.59C618.524,1722.56 621.564,1726.38 621.564,1732.17C621.564,1739.88 616.12,1744.76 608.413,1744.76C601.342,1744.76 596.887,1739.67 596.887,1732.95C596.887,1727.79 599.503,1723.9 603.675,1720.51C599.857,1718.1 598.514,1715.49 598.514,1711.67C598.514,1706.01 602.615,1701.13 609.332,1701.13C613.716,1701.13 616.827,1703.96 618.948,1707.21L619.089,1707.42L619.443,1707.42ZM629.413,1725.95C629.13,1726.3 628.847,1726.38 628.423,1726.38C627.15,1726.38 625.524,1724.89 625.524,1722.84C625.524,1722.63 625.524,1722.27 625.594,1721.92C625.806,1721.21 625.877,1720.51 626.019,1720.01L627.221,1706.15C627.291,1705.44 627.291,1704.53 627.291,1703.82C627.291,1702.48 628.281,1702.12 628.918,1702.12C629.554,1702.12 630.261,1702.4 630.968,1702.76L639.877,1702.12C640.796,1702.05 642.069,1701.98 642.988,1701.77L643.2,1701.77C644.685,1701.77 645.534,1704.24 645.534,1705.23C645.534,1706.01 645.11,1707 644.12,1707.07L640.372,1707.28L631.534,1707.92L630.544,1718.53C632.312,1717.25 634.291,1716.55 636.908,1716.55C642.635,1716.55 647.443,1721.57 647.443,1729.91C647.443,1737.62 643.766,1744.76 634.786,1744.76C629.413,1744.76 624.251,1739.95 624.251,1737.26C624.251,1735.92 625.099,1733.38 626.584,1733.38C627.221,1733.38 627.645,1733.8 627.857,1734.29C629.554,1737.26 631.604,1739.53 634.786,1739.53C640.514,1739.53 642.776,1735.07 642.776,1729.98C642.776,1724.61 640.301,1721.64 636.483,1721.64C634.221,1721.64 632.312,1722.77 630.827,1724.47L629.413,1725.95ZM608.413,1722.98C603.958,1726.44 601.837,1729.41 601.837,1732.81C601.837,1736.2 603.746,1739.6 608.413,1739.6C613.362,1739.6 616.615,1736.56 616.615,1732.45C616.615,1728.92 615.13,1726.16 609.19,1723.33C608.978,1723.19 608.695,1723.05 608.413,1722.98ZM614.847,1710.18C613.433,1707.57 611.877,1706.15 609.402,1706.15C605.231,1706.15 603.392,1708.98 603.392,1711.67C603.392,1713.86 604.17,1715.13 608.13,1717.18C610.817,1715.27 613.15,1713.01 615.271,1710.82L614.847,1710.18Z" style="fill-rule:nonzero;"/>
        </g>
    </g>
</svg>
