<?xml version="1.0" encoding="UTF-8" standalone="no"?>
<!DOCTYPE svg PUBLIC "-//W3C//DTD SVG 1.1//EN" "http://www.w3.org/Graphics/SVG/1.1/DTD/svg11.dtd">
<svg width="100%" height="100%" viewBox="0 0 96 96" version="1.1" xmlns="http://www.w3.org/2000/svg" xmlns:xlink="http://www.w3.org/1999/xlink" xml:space="preserve" xmlns:serif="http://www.serif.com/" style="fill-rule:evenodd;clip-rule:evenodd;stroke-linejoin:round;stroke-miterlimit:2;">
    <g transform="matrix(1,0,0,1,-1909.63,-3173.28)">
        <g transform="matrix(1,0,0,1,-110.019,-3591.86)">
            <path d="M2115.25,6812.94C2115.25,6786.55 2093.85,6765.15 2067.45,6765.15C2041.05,6765.15 2019.65,6786.55 2019.65,6812.94C2019.65,6839.35 2041.05,6860.65 2067.45,6860.65C2093.85,6860.65 2115.25,6839.35 2115.25,6812.94ZM2100.95,6792.74C2098.15,6806.94 2094.45,6828.94 2093.45,6839.94C2093.25,6842.35 2090.85,6842.94 2089.25,6842.94C2087.65,6842.94 2086.55,6842.05 2086.55,6840.15C2086.55,6839.35 2086.75,6838.74 2086.85,6837.94C2088.65,6827.55 2090.45,6816.35 2090.55,6815.85C2087.45,6819.15 2083.55,6821.15 2079.65,6821.15C2072.45,6821.15 2067.65,6815.15 2067.65,6805.55C2067.65,6794.24 2075.15,6782.74 2085.45,6782.74C2090.35,6782.74 2093.55,6785.05 2095.45,6787.44C2095.65,6786.44 2096.15,6785.05 2097.75,6785.05C2099.75,6785.05 2101.85,6786.94 2101.85,6789.15L2101.85,6789.65L2100.95,6792.74ZM2054.85,6808.94C2059.75,6810.44 2063.65,6815.85 2063.65,6823.35C2063.65,6834.05 2058.35,6843.35 2045.65,6843.35C2040.25,6843.35 2035.95,6840.85 2032.15,6836.55C2031.45,6835.74 2031.35,6834.74 2031.35,6833.94C2031.35,6832.35 2032.35,6828.85 2034.55,6828.85C2035.05,6828.85 2035.55,6829.15 2036.15,6829.85C2038.85,6833.74 2041.55,6836.15 2045.65,6836.15C2054.05,6836.15 2057.15,6830.05 2057.15,6823.44C2057.15,6817.94 2053.55,6813.94 2048.15,6813.94C2047.75,6813.94 2047.25,6813.94 2046.75,6814.05C2045.65,6814.15 2044.25,6814.35 2043.05,6814.65C2042.85,6814.74 2042.85,6814.74 2042.65,6814.74C2040.45,6814.74 2039.35,6811.65 2039.35,6810.15C2039.35,6809.05 2039.85,6807.74 2041.15,6807.44C2046.55,6807.05 2055.15,6803.65 2055.15,6796.85C2055.15,6792.55 2052.85,6789.85 2048.25,6789.85C2044.65,6789.85 2041.55,6791.65 2038.35,6795.85C2037.65,6796.74 2037.15,6797.65 2035.95,6797.65C2033.95,6797.65 2032.65,6794.44 2032.65,6792.85C2032.65,6789.85 2039.35,6782.74 2048.15,6782.74C2055.95,6782.74 2061.65,6787.74 2061.65,6796.35C2061.65,6803.94 2056.85,6808.05 2054.85,6808.94ZM2093.85,6796.65C2093.15,6796.35 2092.65,6795.65 2092.45,6794.94C2091.55,6792.94 2089.85,6789.85 2085.75,6789.85C2078.55,6789.85 2074.15,6798.44 2074.15,6805.24C2074.15,6811.55 2076.05,6813.94 2079.55,6813.94C2089.05,6813.94 2092.95,6800.15 2093.55,6798.05L2093.85,6796.65Z" style="fill-rule:nonzero;"/>
        </g>
    </g>
</svg>
