<?xml version="1.0" encoding="UTF-8" standalone="no"?>
<!DOCTYPE svg PUBLIC "-//W3C//DTD SVG 1.1//EN" "http://www.w3.org/Graphics/SVG/1.1/DTD/svg11.dtd">
<svg width="100%" height="100%" viewBox="0 0 89 89" version="1.1" xmlns="http://www.w3.org/2000/svg" xmlns:xlink="http://www.w3.org/1999/xlink" xml:space="preserve" xmlns:serif="http://www.serif.com/" style="fill-rule:evenodd;clip-rule:evenodd;stroke-linejoin:round;stroke-miterlimit:2;">
    <g transform="matrix(1,0,0,1,-458.749,-1171.63)">
        <g transform="matrix(1.41414,0,0,1.41429,-177.055,-770.755)">
            <path d="M511.968,1435.77L511.968,1373.4L449.604,1373.4L449.604,1435.77L511.968,1435.77ZM461.766,1407.77C461.483,1408.12 461.2,1408.19 460.776,1408.19C459.503,1408.19 457.877,1406.71 457.877,1404.66C457.877,1404.44 457.877,1404.09 457.948,1403.74C458.16,1403.03 458.231,1402.32 458.372,1401.83L459.574,1387.97C459.645,1387.26 459.645,1386.34 459.645,1385.64C459.645,1384.29 460.564,1383.94 461.271,1383.94C461.837,1383.94 462.615,1384.22 463.251,1384.58L472.231,1383.94C473.15,1383.87 474.423,1383.8 475.342,1383.59L475.554,1383.59C477.039,1383.59 477.887,1386.06 477.887,1387.05C477.887,1387.83 477.463,1388.82 476.473,1388.89L472.726,1389.1L463.887,1389.74L462.897,1400.34C464.665,1399.07 466.645,1398.36 469.261,1398.36C474.988,1398.36 479.796,1403.38 479.796,1411.73C479.796,1419.43 476.12,1426.58 467.14,1426.58C461.766,1426.58 456.604,1421.77 456.604,1419.08C456.604,1417.74 457.382,1415.19 458.938,1415.19C459.574,1415.19 459.998,1415.62 460.211,1416.11C461.908,1419.08 463.958,1421.34 467.14,1421.34C472.867,1421.34 475.13,1416.89 475.13,1411.8C475.13,1406.42 472.655,1403.45 468.766,1403.45C466.574,1403.45 464.665,1404.59 463.11,1406.28L461.766,1407.77ZM498.958,1401.83C502.493,1402.82 505.322,1406.78 505.322,1412.15C505.322,1419.86 501.503,1426.58 492.312,1426.58C488.423,1426.58 485.312,1424.81 482.554,1421.7C482.059,1421.06 481.988,1420.35 481.988,1419.79C481.988,1418.66 482.695,1416.11 484.322,1416.11C484.675,1416.11 485.029,1416.32 485.453,1416.82C487.433,1419.65 489.342,1421.41 492.312,1421.41C498.322,1421.41 500.655,1416.96 500.655,1412.22C500.655,1408.26 498.039,1405.36 494.15,1405.36C492.806,1405.36 491.251,1405.65 490.473,1405.86C490.332,1405.93 490.332,1405.93 490.19,1405.93C488.564,1405.93 487.716,1403.74 487.716,1402.61C487.716,1401.83 488.14,1400.91 489.059,1400.7C494.221,1400.27 499.17,1397.09 499.17,1393.06C499.17,1389.95 497.473,1387.97 494.221,1387.97C491.604,1387.97 489.342,1389.24 487.009,1392.35C486.584,1392.99 486.16,1393.63 485.312,1393.63C483.756,1393.63 482.978,1391.36 482.978,1390.16C482.978,1387.62 488.14,1382.88 494.15,1382.88C499.736,1382.88 503.837,1386.41 503.837,1392.71C503.837,1398.15 500.372,1401.12 498.958,1401.83Z" style="fill-rule:nonzero;"/>
        </g>
    </g>
</svg>
