<?xml version="1.0" encoding="UTF-8" standalone="no"?>
<!DOCTYPE svg PUBLIC "-//W3C//DTD SVG 1.1//EN" "http://www.w3.org/Graphics/SVG/1.1/DTD/svg11.dtd">
<svg width="100%" height="100%" viewBox="0 0 89 89" version="1.1" xmlns="http://www.w3.org/2000/svg" xmlns:xlink="http://www.w3.org/1999/xlink" xml:space="preserve" xmlns:serif="http://www.serif.com/" style="fill-rule:evenodd;clip-rule:evenodd;stroke-linejoin:round;stroke-miterlimit:2;">
    <g transform="matrix(1,0,0,1,-2002.46,-692.274)">
        <g transform="matrix(1.41414,0,0,1.41429,-1052.39,-837.704)">
            <path d="M2217.07,1144.17C2220.46,1144.17 2222.58,1141.62 2222.58,1138.65L2222.58,1087.32C2222.58,1083.85 2220.11,1081.8 2217.07,1081.8L2165.73,1081.8C2162.27,1081.8 2160.22,1084.14 2160.22,1087.32L2160.22,1138.65C2160.22,1141.83 2162.69,1144.17 2165.73,1144.17L2217.07,1144.17ZM2197.69,1116.17C2197.34,1116.52 2197.05,1116.59 2196.56,1116.59C2195.29,1116.59 2193.52,1115.11 2193.52,1113.06C2193.52,1112.84 2193.52,1112.49 2193.66,1112.14L2194.09,1110.23L2195.29,1096.37C2195.36,1095.66 2195.43,1094.74 2195.43,1094.04C2195.43,1092.69 2196.42,1092.34 2197.12,1092.34C2197.76,1092.34 2198.61,1092.62 2199.25,1092.97L2208.72,1092.34C2209.64,1092.27 2211.05,1092.2 2211.97,1091.98L2212.26,1091.98C2213.81,1091.98 2214.66,1094.46 2214.66,1095.45C2214.66,1096.23 2214.24,1097.22 2213.18,1097.29L2209.22,1097.5L2199.88,1098.14L2198.82,1108.74C2200.73,1107.47 2202.85,1106.76 2205.61,1106.76C2211.62,1106.76 2216.71,1111.78 2216.71,1120.13C2216.71,1127.83 2212.82,1134.97 2203.28,1134.97C2197.83,1134.97 2192.18,1130.24 2192.18,1127.48C2192.18,1126.14 2193.02,1123.59 2194.65,1123.59C2195.29,1123.59 2195.78,1124.02 2195.99,1124.51C2197.83,1127.48 2199.95,1129.74 2203.28,1129.74C2209.36,1129.74 2211.76,1125.29 2211.76,1120.2C2211.76,1114.82 2209.14,1111.85 2205.04,1111.85C2202.71,1111.85 2200.66,1112.98 2199.11,1114.68L2197.69,1116.17ZM2168.28,1134.27C2166.51,1134.27 2165.45,1132.15 2165.45,1130.73C2165.45,1130.31 2165.52,1129.74 2165.87,1129.25C2166.3,1128.61 2166.65,1128.19 2166.86,1127.69C2168.91,1123.52 2172.59,1117.3 2177.04,1112.7C2181.43,1108.32 2183.76,1105.07 2183.76,1101.81C2183.76,1098.84 2181.85,1096.37 2178.46,1096.37C2174.85,1096.37 2172.38,1098.7 2171.39,1101.74C2171.11,1102.52 2170.47,1103.79 2169.2,1103.79C2167.99,1103.79 2166.37,1102.17 2166.37,1100.4C2166.37,1098.49 2169.97,1091.28 2178.6,1091.28C2184.89,1091.28 2188.99,1095.66 2188.99,1101.81C2188.99,1107.54 2185.18,1111.92 2180.37,1116.66C2176.55,1120.41 2173.72,1125.08 2171.88,1128.75C2173.65,1128.61 2175.63,1128.54 2177.12,1128.54C2179.66,1128.54 2181.29,1128.61 2183.48,1128.61C2184.33,1128.61 2186.73,1128.54 2187.44,1128.54C2188.5,1128.54 2189.56,1130.17 2189.56,1131.65C2189.56,1132.43 2189.21,1133.98 2187.72,1133.98C2186.24,1133.84 2182.7,1133.56 2176.55,1133.56C2174.78,1133.56 2173.01,1133.56 2170.89,1133.84C2170.4,1133.84 2168.98,1134.2 2168.63,1134.27L2168.28,1134.27Z" style="fill-rule:nonzero;"/>
        </g>
    </g>
</svg>
