<?xml version="1.0" encoding="UTF-8" standalone="no"?>
<!DOCTYPE svg PUBLIC "-//W3C//DTD SVG 1.1//EN" "http://www.w3.org/Graphics/SVG/1.1/DTD/svg11.dtd">
<svg width="100%" height="100%" viewBox="0 0 96 96" version="1.1" xmlns="http://www.w3.org/2000/svg" xmlns:xlink="http://www.w3.org/1999/xlink" xml:space="preserve" xmlns:serif="http://www.serif.com/" style="fill-rule:evenodd;clip-rule:evenodd;stroke-linejoin:round;stroke-miterlimit:2;">
    <g transform="matrix(1,0,0,1,-2009.63,-3323.28)">
        <g transform="matrix(1,0,0,1,-110.019,-3591.86)">
            <path d="M2215.25,6962.94C2215.25,6936.55 2193.85,6915.15 2167.45,6915.15C2141.05,6915.15 2119.65,6936.55 2119.65,6962.94C2119.65,6989.35 2141.05,7010.65 2167.45,7010.65C2193.85,7010.65 2215.25,6989.35 2215.25,6962.94ZM2178.15,6937.15C2180.45,6934.44 2183.35,6932.65 2186.85,6932.65C2196.95,6932.65 2201.75,6945.94 2201.75,6961.74C2201.75,6977.85 2196.85,6993.35 2185.25,6993.35C2174.15,6993.35 2169.55,6979.85 2169.55,6963.85C2169.55,6951.15 2173.65,6936.94 2177.35,6936.94C2177.65,6936.94 2177.95,6937.05 2178.15,6937.15ZM2142.95,6956.74C2144.95,6955.44 2147.35,6954.85 2149.85,6954.85C2158.95,6954.85 2165.05,6962.55 2165.05,6972.94C2165.05,6984.24 2158.95,6993.35 2148.75,6993.35C2139.45,6993.35 2132.35,6985.15 2132.35,6975.15C2132.35,6968.15 2134.05,6961.24 2137.35,6953.74C2141.85,6943.55 2145.75,6936.24 2146.75,6935.24C2147.35,6934.15 2148.15,6932.65 2150.05,6932.65C2150.25,6932.65 2154.25,6932.74 2154.25,6935.94C2154.25,6936.85 2153.65,6937.94 2153.15,6938.55C2148.85,6944.44 2145.55,6951.15 2142.95,6956.74ZM2184.95,6986.15C2191.65,6986.15 2195.05,6975.05 2195.05,6961.15C2195.05,6949.65 2192.25,6939.65 2186.65,6939.65C2182.75,6939.65 2176.25,6946.74 2176.25,6963.74C2176.25,6977.15 2178.95,6986.15 2184.95,6986.15ZM2148.75,6986.35C2154.25,6986.35 2158.55,6981.15 2158.55,6973.15C2158.55,6966.94 2155.15,6961.74 2149.75,6961.74C2143.15,6961.74 2138.85,6967.85 2138.85,6975.05C2138.85,6981.44 2142.85,6986.35 2148.75,6986.35Z" style="fill-rule:nonzero;"/>
        </g>
    </g>
</svg>
