<?xml version="1.0" encoding="UTF-8" standalone="no"?>
<!DOCTYPE svg PUBLIC "-//W3C//DTD SVG 1.1//EN" "http://www.w3.org/Graphics/SVG/1.1/DTD/svg11.dtd">
<svg width="100%" height="100%" viewBox="0 0 89 89" version="1.1" xmlns="http://www.w3.org/2000/svg" xmlns:xlink="http://www.w3.org/1999/xlink" xml:space="preserve" xmlns:serif="http://www.serif.com/" style="fill-rule:evenodd;clip-rule:evenodd;stroke-linejoin:round;stroke-miterlimit:2;">
    <g transform="matrix(1,0,0,1,-2002.46,-1742.27)">
        <g transform="matrix(1.41414,0,0,1.41429,-1052.39,-837.704)">
            <path d="M2217.07,1886.59C2220.46,1886.59 2222.58,1884.05 2222.58,1881.08L2222.58,1829.74C2222.58,1826.28 2220.11,1824.23 2217.07,1824.23L2165.73,1824.23C2162.27,1824.23 2160.22,1826.56 2160.22,1829.74L2160.22,1881.08C2160.22,1884.26 2162.69,1886.59 2165.73,1886.59L2217.07,1886.59ZM2180.37,1869.13C2180.93,1865.8 2181.57,1861.63 2182.28,1857.6C2180.01,1859.93 2177.19,1861.42 2174.36,1861.42C2169.2,1861.42 2165.73,1857.11 2165.73,1850.11C2165.73,1841.97 2171.18,1833.7 2178.53,1833.7C2182.07,1833.7 2184.4,1835.4 2185.81,1837.03C2185.95,1836.32 2186.31,1835.33 2187.44,1835.33C2188.85,1835.33 2190.41,1836.67 2190.41,1838.3L2190.41,1838.65C2190.2,1839.57 2189.84,1840.56 2189.77,1840.84C2189.21,1843.81 2184.68,1868.07 2184.4,1874.92C2184.26,1876.69 2182.49,1877.12 2181.36,1877.12C2180.16,1877.12 2179.38,1876.48 2179.38,1875.14C2179.38,1874.57 2179.52,1874.08 2179.59,1873.51L2180.37,1869.13ZM2198.19,1858.59C2197.9,1858.94 2197.62,1859.02 2197.12,1859.02C2195.92,1859.02 2194.23,1857.53 2194.23,1855.48C2194.23,1855.27 2194.3,1854.91 2194.37,1854.56L2194.72,1852.65L2195.92,1838.79C2195.99,1838.09 2196.07,1837.17 2196.07,1836.46C2196.07,1835.12 2196.98,1834.76 2197.62,1834.76C2198.26,1834.76 2199.03,1835.05 2199.67,1835.4L2208.65,1834.76C2209.5,1834.69 2210.84,1834.62 2211.76,1834.41L2211.97,1834.41C2213.46,1834.41 2214.24,1836.88 2214.24,1837.87C2214.24,1838.65 2213.88,1839.64 2212.82,1839.71L2209.14,1839.92L2200.31,1840.56L2199.32,1851.17C2201.09,1849.89 2203.07,1849.19 2205.68,1849.19C2211.41,1849.19 2216.22,1854.21 2216.22,1862.55C2216.22,1870.26 2212.54,1877.4 2203.49,1877.4C2198.26,1877.4 2192.95,1872.59 2192.95,1869.9C2192.95,1868.56 2193.8,1866.02 2195.36,1866.02C2195.92,1866.02 2196.35,1866.44 2196.63,1866.93C2198.33,1869.9 2200.38,1872.17 2203.49,1872.17C2209.29,1872.17 2211.55,1867.71 2211.55,1862.62C2211.55,1857.25 2209,1854.28 2205.19,1854.28C2202.92,1854.28 2201.01,1855.41 2199.53,1857.11L2198.19,1858.59ZM2184.68,1843.74C2184.12,1843.53 2183.83,1842.96 2183.62,1842.54C2182.98,1841.06 2181.78,1838.79 2178.81,1838.79C2173.58,1838.79 2170.4,1845.02 2170.4,1849.89C2170.4,1854.49 2171.81,1856.19 2174.36,1856.19C2181.29,1856.19 2184.12,1846.08 2184.47,1844.73L2184.68,1843.74Z" style="fill-rule:nonzero;"/>
        </g>
    </g>
</svg>
