<?xml version="1.0" encoding="UTF-8" standalone="no"?>
<!DOCTYPE svg PUBLIC "-//W3C//DTD SVG 1.1//EN" "http://www.w3.org/Graphics/SVG/1.1/DTD/svg11.dtd">
<svg width="100%" height="100%" viewBox="0 0 96 96" version="1.1" xmlns="http://www.w3.org/2000/svg" xmlns:xlink="http://www.w3.org/1999/xlink" xml:space="preserve" xmlns:serif="http://www.serif.com/" style="fill-rule:evenodd;clip-rule:evenodd;stroke-linejoin:round;stroke-miterlimit:2;">
    <g transform="matrix(1,0,0,1,-1009.63,-3473.28)">
        <g transform="matrix(1,0,0,1,-110.019,-3591.86)">
            <path d="M1215.25,7112.94C1215.25,7086.55 1193.85,7065.15 1167.45,7065.15C1141.05,7065.15 1119.65,7086.55 1119.65,7112.94C1119.65,7139.35 1141.05,7160.65 1167.45,7160.65C1193.85,7160.65 1215.25,7139.35 1215.25,7112.94ZM1177.95,7087.15C1180.15,7084.44 1183.15,7082.65 1186.65,7082.65C1196.75,7082.65 1201.55,7095.94 1201.55,7111.74C1201.55,7127.85 1196.65,7143.35 1184.95,7143.35C1173.85,7143.35 1169.25,7129.85 1169.25,7113.85C1169.25,7100.05 1173.55,7086.94 1177.15,7086.94C1177.35,7086.94 1177.65,7087.05 1177.95,7087.15ZM1184.75,7136.15C1191.45,7136.15 1194.75,7125.05 1194.75,7111.15C1194.75,7099.65 1192.05,7089.65 1186.35,7089.65C1182.55,7089.65 1175.95,7096.74 1175.95,7113.74C1175.95,7127.15 1178.75,7136.15 1184.75,7136.15ZM1140.15,7137.74C1140.15,7137.65 1140.15,7137.65 1140.25,7137.44C1144.35,7123.85 1151.05,7105.65 1157.05,7091.24L1140.15,7092.74C1139.35,7092.85 1138.55,7092.94 1137.85,7092.94C1134.25,7092.94 1132.85,7088.55 1132.85,7087.44C1132.85,7086.85 1133.15,7085.55 1134.55,7085.55C1135.45,7085.55 1136.15,7085.65 1137.35,7085.65L1138.35,7085.65L1158.35,7084.15C1158.75,7084.15 1159.25,7083.94 1159.65,7083.85C1160.35,7083.65 1160.95,7083.55 1161.45,7083.55L1161.75,7083.55C1163.45,7083.85 1166.05,7086.05 1166.05,7088.35L1166.05,7088.74C1165.95,7089.85 1165.45,7090.74 1165.05,7091.35C1158.85,7103.65 1149.15,7131.44 1147.45,7140.44C1147.05,7142.55 1145.35,7142.85 1143.95,7142.85C1143.75,7142.85 1143.35,7142.74 1142.85,7142.74C1140.85,7142.44 1139.75,7141.35 1139.75,7139.74C1139.75,7139.15 1139.85,7138.55 1139.95,7138.24L1140.15,7137.74Z" style="fill-rule:nonzero;"/>
        </g>
    </g>
</svg>
