<?xml version="1.0" encoding="UTF-8" standalone="no"?>
<!DOCTYPE svg PUBLIC "-//W3C//DTD SVG 1.1//EN" "http://www.w3.org/Graphics/SVG/1.1/DTD/svg11.dtd">
<svg width="100%" height="100%" viewBox="0 0 89 89" version="1.1" xmlns="http://www.w3.org/2000/svg" xmlns:xlink="http://www.w3.org/1999/xlink" xml:space="preserve" xmlns:serif="http://www.serif.com/" style="fill-rule:evenodd;clip-rule:evenodd;stroke-linejoin:round;stroke-miterlimit:2;">
    <g transform="matrix(1,0,0,1,-658.729,-1921.63)">
        <g transform="matrix(1.41414,0,0,1.41429,-177.055,-770.755)">
            <path d="M653.382,1966.07L653.382,1903.71L591.019,1903.71L591.019,1966.07L653.382,1966.07ZM623.544,1949.31C623.544,1951.79 623.685,1954.26 623.685,1955.68C623.685,1957.09 622.2,1957.3 621.705,1957.3C620.645,1957.3 618.029,1956.6 618.029,1954.62C618.029,1953.63 618.17,1950.73 618.17,1948.68L618.099,1930.79C616.332,1930.86 614.281,1931 614.281,1931L614.211,1931C612.301,1931 611.241,1928.88 611.241,1927.75C611.241,1926.9 611.877,1926.05 612.938,1926.05L618.17,1926.05L618.17,1920.25C618.17,1915.02 621.847,1912.12 625.877,1912.12C628.211,1912.12 630.968,1912.9 633.019,1915.23C633.301,1915.66 633.443,1916.22 633.443,1916.72C633.443,1917.85 632.594,1920.25 630.827,1920.25C630.049,1920.25 629.483,1919.83 629.059,1919.05C628.352,1917.78 626.938,1917.35 625.806,1917.35C624.817,1917.35 623.544,1918.13 623.544,1920.18L623.544,1925.84L624.11,1925.84C625.594,1925.77 628.564,1925.49 629.413,1925.49C631.251,1925.49 632.312,1927.61 632.312,1928.74C632.312,1929.59 631.746,1930.51 630.615,1930.51L624.887,1930.51L623.544,1930.58L623.544,1949.31Z" style="fill-rule:nonzero;"/>
        </g>
    </g>
</svg>
