<?xml version="1.0" encoding="UTF-8" standalone="no"?>
<!DOCTYPE svg PUBLIC "-//W3C//DTD SVG 1.1//EN" "http://www.w3.org/Graphics/SVG/1.1/DTD/svg11.dtd">
<svg width="100%" height="100%" viewBox="0 0 89 89" version="1.1" xmlns="http://www.w3.org/2000/svg" xmlns:xlink="http://www.w3.org/1999/xlink" xml:space="preserve" xmlns:serif="http://www.serif.com/" style="fill-rule:evenodd;clip-rule:evenodd;stroke-linejoin:round;stroke-miterlimit:2;">
    <g transform="matrix(1,0,0,1,-1702.49,-2192.27)">
        <g transform="matrix(1.41414,0,0,1.41429,-1052.39,-837.704)">
            <path d="M2004.94,2204.77C2008.34,2204.77 2010.46,2202.23 2010.46,2199.26L2010.46,2147.92C2010.46,2144.46 2007.98,2142.41 2004.94,2142.41L1953.61,2142.41C1950.14,2142.41 1948.1,2144.74 1948.1,2147.92L1948.1,2199.26C1948.1,2202.44 1950.57,2204.77 1953.61,2204.77L2004.94,2204.77ZM1979.28,2189.99C1977.51,2193.67 1975.39,2195.51 1971.78,2195.51L1971.08,2195.51C1966.41,2195.51 1964.5,2193.6 1964.5,2192.05C1964.5,2190.98 1965.35,2188.51 1967.26,2188.51C1967.96,2188.51 1968.46,2188.86 1968.81,2189.29C1969.59,2190.07 1970.58,2190.21 1971.57,2190.21C1972.21,2190.21 1973.55,2189.5 1974.61,2187.24L1977.09,2182.15L1968.25,2162.42C1967.75,2161.22 1966.55,2158.81 1965.84,2157.68C1965.63,2157.33 1965.56,2156.9 1965.56,2156.76C1965.56,2155.84 1967.26,2155.28 1968.88,2155.28C1970.15,2155.28 1971.36,2155.63 1971.64,2156.34C1972.13,2157.75 1972.84,2159.24 1973.48,2160.72L1980.05,2175.71L1986.91,2161.29C1987.69,2159.66 1988.54,2157.68 1989.18,2155.77C1989.32,2155.28 1989.6,2155.07 1989.88,2154.92C1990.24,2154.64 1990.52,2154.57 1991.01,2154.57C1992.36,2154.57 1994.55,2155.84 1994.55,2157.82C1994.55,2158.18 1994.41,2158.67 1994.2,2159.1C1993.56,2160.23 1992.57,2161.92 1991.93,2163.34L1979.28,2189.99Z" style="fill-rule:nonzero;"/>
        </g>
    </g>
</svg>
