<?xml version="1.0" encoding="UTF-8" standalone="no"?>
<!DOCTYPE svg PUBLIC "-//W3C//DTD SVG 1.1//EN" "http://www.w3.org/Graphics/SVG/1.1/DTD/svg11.dtd">
<svg width="100%" height="100%" viewBox="0 0 96 96" version="1.1" xmlns="http://www.w3.org/2000/svg" xmlns:xlink="http://www.w3.org/1999/xlink" xml:space="preserve" xmlns:serif="http://www.serif.com/" style="fill-rule:evenodd;clip-rule:evenodd;stroke-linejoin:round;stroke-miterlimit:2;">
    <g transform="matrix(1,0,0,1,-709.628,-3323.28)">
        <g transform="matrix(1,0,0,1,-110.019,-3591.86)">
            <path d="M915.248,6962.94C915.248,6936.55 893.848,6915.15 867.448,6915.15C841.048,6915.15 819.648,6936.55 819.648,6962.94C819.648,6989.35 841.048,7010.65 867.448,7010.65C893.848,7010.65 915.248,6989.35 915.248,6962.94ZM861.648,6982.55C861.648,6985.74 861.948,6988.94 861.948,6990.74C861.948,6991.94 861.048,6993.05 859.448,6993.05C857.348,6993.05 854.648,6991.35 854.648,6989.35C854.648,6988.05 854.848,6983.55 854.848,6982.35L854.848,6979.55L840.348,6980.05C839.948,6980.05 839.048,6980.15 837.448,6980.55L837.248,6980.55C835.048,6980.55 832.748,6978.15 832.748,6975.44C832.748,6974.85 832.948,6973.94 833.448,6973.05L834.748,6971.15L835.848,6969.55C839.448,6962.85 849.548,6942.85 852.348,6934.44C852.748,6933.15 853.748,6932.94 854.248,6932.94C856.248,6932.94 858.748,6936.15 858.748,6938.44C858.748,6939.05 858.648,6939.65 858.348,6940.15C857.548,6941.35 856.548,6943.05 855.948,6944.35C852.248,6952.35 846.548,6963.85 841.648,6972.94L854.848,6972.65L854.848,6957.55C854.848,6955.94 854.648,6950.85 854.648,6949.05C854.648,6947.94 855.548,6946.74 857.148,6946.74C859.148,6946.74 861.748,6948.44 861.748,6950.55C861.748,6951.74 861.648,6955.65 861.648,6957.55L861.648,6972.35C862.848,6972.24 864.848,6971.85 865.648,6971.85C868.048,6971.85 869.248,6975.44 869.248,6976.94C869.248,6977.65 868.948,6979.55 867.148,6979.55C866.248,6979.55 863.548,6979.35 861.648,6979.35L861.648,6982.55ZM877.048,6987.74C877.148,6987.65 877.148,6987.65 877.148,6987.44C877.948,6985.15 878.648,6982.94 879.048,6981.55C883.048,6969.05 888.348,6954.74 893.948,6941.24L877.048,6942.74C876.248,6942.85 875.448,6942.94 874.748,6942.94C871.148,6942.94 869.748,6938.55 869.748,6937.44C869.748,6936.85 870.048,6935.55 871.548,6935.55C872.348,6935.55 873.148,6935.65 874.348,6935.65L875.248,6935.65L895.248,6934.15C895.748,6934.15 896.148,6933.94 896.648,6933.85C897.248,6933.65 897.848,6933.55 898.448,6933.55L898.748,6933.55C900.448,6933.85 902.948,6936.05 902.948,6938.35L902.948,6938.74C902.848,6939.85 902.348,6940.74 902.048,6941.35L901.048,6942.94C896.548,6953.44 887.548,6975.85 884.348,6990.44C883.948,6992.55 882.248,6992.85 880.948,6992.85C880.648,6992.85 880.248,6992.74 879.848,6992.74C877.748,6992.44 876.648,6991.35 876.648,6989.74C876.648,6989.15 876.848,6988.55 876.948,6988.24L877.048,6987.74Z" style="fill-rule:nonzero;"/>
        </g>
    </g>
</svg>
