<?xml version="1.0" encoding="UTF-8" standalone="no"?>
<!DOCTYPE svg PUBLIC "-//W3C//DTD SVG 1.1//EN" "http://www.w3.org/Graphics/SVG/1.1/DTD/svg11.dtd">
<svg width="100%" height="100%" viewBox="0 0 96 96" version="1.1" xmlns="http://www.w3.org/2000/svg" xmlns:xlink="http://www.w3.org/1999/xlink" xml:space="preserve" xmlns:serif="http://www.serif.com/" style="fill-rule:evenodd;clip-rule:evenodd;stroke-linejoin:round;stroke-miterlimit:2;">
    <g transform="matrix(1,0,0,1,-1409.63,-3773.28)">
        <g transform="matrix(1,0,0,1,-110.019,-3591.86)">
            <path d="M1615.25,7412.94C1615.25,7386.55 1593.85,7365.15 1567.45,7365.15C1541.05,7365.15 1519.65,7386.55 1519.65,7412.94C1519.65,7439.35 1541.05,7460.65 1567.45,7460.65C1593.85,7460.65 1615.25,7439.35 1615.25,7412.94ZM1585.85,7424.24C1585.85,7425.35 1586.05,7431.35 1586.05,7433.24C1586.05,7434.65 1584.95,7435.55 1583.25,7435.55C1581.05,7435.55 1578.05,7433.85 1578.05,7431.74C1578.05,7430.44 1578.25,7426.24 1578.25,7424.24L1578.25,7408.24C1578.25,7401.44 1576.75,7397.94 1571.95,7397.94C1566.55,7397.94 1560.05,7401.24 1557.65,7409.15C1556.45,7413.35 1556.45,7418.65 1556.45,7424.24L1556.45,7425.74C1556.45,7428.85 1556.65,7431.65 1556.65,7433.24C1556.65,7434.65 1555.55,7435.55 1553.85,7435.55C1551.65,7435.55 1548.65,7433.85 1548.65,7431.74C1548.65,7430.44 1548.85,7425.44 1548.85,7424.24L1548.85,7402.15C1548.85,7400.55 1548.55,7395.05 1548.55,7393.05C1548.55,7391.15 1550.45,7390.74 1551.35,7390.74C1552.85,7390.74 1556.55,7391.74 1556.55,7394.65L1556.55,7397.74C1560.65,7393.05 1566.55,7390.55 1571.95,7390.55C1584.25,7390.55 1585.85,7401.05 1585.85,7407.85L1585.85,7424.24Z" style="fill-rule:nonzero;"/>
        </g>
    </g>
</svg>
