<?xml version="1.0" encoding="UTF-8" standalone="no"?>
<!DOCTYPE svg PUBLIC "-//W3C//DTD SVG 1.1//EN" "http://www.w3.org/Graphics/SVG/1.1/DTD/svg11.dtd">
<svg width="100%" height="100%" viewBox="0 0 96 96" version="1.1" xmlns="http://www.w3.org/2000/svg" xmlns:xlink="http://www.w3.org/1999/xlink" xml:space="preserve" xmlns:serif="http://www.serif.com/" style="fill-rule:evenodd;clip-rule:evenodd;stroke-linejoin:round;stroke-miterlimit:2;">
    <g transform="matrix(1,0,0,1,-1509.63,-3473.28)">
        <g transform="matrix(1,0,0,1,-110.019,-3591.86)">
            <path d="M1715.25,7112.94C1715.25,7086.55 1693.85,7065.15 1667.45,7065.15C1641.05,7065.15 1619.65,7086.55 1619.65,7112.94C1619.65,7139.35 1641.05,7160.65 1667.45,7160.65C1693.85,7160.65 1715.25,7139.35 1715.25,7112.94ZM1676.65,7117.24C1676.15,7117.74 1675.75,7117.85 1675.15,7117.85C1673.35,7117.85 1670.85,7115.85 1670.85,7112.94C1670.85,7111.85 1671.55,7109.24 1671.65,7109.05L1673.35,7089.85C1673.45,7088.85 1673.55,7087.55 1673.55,7086.55C1673.55,7084.74 1674.85,7084.24 1675.85,7084.24C1676.75,7084.24 1677.85,7084.65 1678.85,7085.15L1691.85,7084.24C1693.15,7084.15 1695.15,7084.05 1696.45,7083.74L1696.75,7083.74C1698.95,7083.74 1700.05,7087.15 1700.05,7088.55C1700.05,7089.65 1699.55,7091.05 1698.05,7091.15C1696.75,7091.15 1694.65,7091.24 1692.55,7091.35L1679.65,7092.24L1678.25,7106.94C1680.85,7105.24 1683.75,7104.24 1687.55,7104.24C1695.95,7104.24 1702.95,7111.24 1702.95,7122.74C1702.95,7133.44 1697.55,7143.35 1684.35,7143.35C1678.05,7143.35 1673.45,7139.85 1669.95,7135.65C1669.35,7134.85 1669.05,7133.94 1669.05,7132.94C1669.05,7131.15 1670.25,7127.55 1672.45,7127.55C1673.35,7127.55 1673.95,7128.15 1674.35,7128.85C1676.85,7132.94 1679.85,7136.05 1684.35,7136.05C1692.85,7136.05 1696.15,7129.94 1696.15,7122.85C1696.15,7115.44 1692.45,7111.24 1686.85,7111.24C1683.55,7111.24 1680.75,7112.85 1678.65,7115.15L1676.65,7117.24ZM1640.15,7137.74C1640.25,7137.65 1640.25,7137.65 1640.25,7137.44L1642.15,7131.65C1646.15,7119.05 1651.45,7104.74 1657.05,7091.24L1640.15,7092.74C1639.35,7092.85 1638.55,7092.94 1637.85,7092.94C1634.25,7092.94 1632.85,7088.55 1632.85,7087.44C1632.85,7086.85 1633.15,7085.55 1634.65,7085.55C1635.45,7085.55 1636.25,7085.65 1637.45,7085.65L1638.35,7085.65L1658.35,7084.15C1658.85,7084.15 1659.25,7083.94 1659.75,7083.85C1660.35,7083.74 1660.95,7083.55 1661.55,7083.55L1661.85,7083.55C1663.55,7083.85 1666.05,7086.05 1666.05,7088.35L1666.05,7088.74C1665.95,7089.85 1665.45,7090.74 1665.15,7091.35C1662.35,7095.55 1649.35,7130.15 1647.45,7140.55C1647.05,7142.55 1645.35,7142.85 1644.05,7142.85C1643.75,7142.85 1643.35,7142.74 1642.95,7142.74C1640.85,7142.44 1639.75,7141.35 1639.75,7139.74C1639.75,7139.15 1639.95,7138.55 1640.05,7138.24L1640.15,7137.74Z" style="fill-rule:nonzero;"/>
        </g>
    </g>
</svg>
