<?xml version="1.0" encoding="UTF-8" standalone="no"?>
<!DOCTYPE svg PUBLIC "-//W3C//DTD SVG 1.1//EN" "http://www.w3.org/Graphics/SVG/1.1/DTD/svg11.dtd">
<svg width="100%" height="100%" viewBox="0 0 89 89" version="1.1" xmlns="http://www.w3.org/2000/svg" xmlns:xlink="http://www.w3.org/1999/xlink" xml:space="preserve" xmlns:serif="http://www.serif.com/" style="fill-rule:evenodd;clip-rule:evenodd;stroke-linejoin:round;stroke-miterlimit:2;">
    <g transform="matrix(1,0,0,1,-358.759,-271.632)">
        <g transform="matrix(1.41414,0,0,1.41429,-177.055,-770.755)">
            <path d="M441.261,799.405L441.261,737.041L378.897,737.041L378.897,799.405L441.261,799.405ZM401.312,784.132C403.998,784.061 407.534,783.991 409.372,783.991C412.625,783.991 416.019,784.061 418.705,784.061C419.837,784.061 421.887,783.991 422.736,783.991C424.645,783.991 425.847,786.324 425.847,787.667C425.847,788.587 425.281,789.577 423.938,789.577C423.16,789.577 420.827,789.364 418.635,789.223C416.019,789.082 412.413,789.082 408.948,789.082C405.483,789.082 403.15,789.082 400.534,789.364C399.402,789.506 398.13,789.718 397.069,789.718C394.948,789.718 393.675,787.455 393.675,786.041C393.675,785.688 393.746,785.122 394.099,784.698C394.382,784.274 394.665,783.92 394.948,783.637C400.392,775.435 409.301,768.789 410.433,767.94C416.16,763.698 419.2,760.728 419.2,757.263C419.2,754.223 417.221,751.96 411.564,751.96C406.332,751.96 403.362,753.799 401.594,757.476C401.17,758.395 400.534,759.314 399.19,759.314C397.635,759.314 396.221,757.617 396.221,755.991C396.221,754.364 400.534,746.799 411.705,746.799C419.978,746.799 424.928,750.758 424.928,757.263C424.928,762.991 420.615,767.445 414.251,772.041C408.736,776.072 404.423,780.102 401.312,784.132Z" style="fill-rule:nonzero;"/>
        </g>
    </g>
</svg>
