<?xml version="1.0" encoding="UTF-8" standalone="no"?>
<!DOCTYPE svg PUBLIC "-//W3C//DTD SVG 1.1//EN" "http://www.w3.org/Graphics/SVG/1.1/DTD/svg11.dtd">
<svg width="100%" height="100%" viewBox="0 0 96 96" version="1.1" xmlns="http://www.w3.org/2000/svg" xmlns:xlink="http://www.w3.org/1999/xlink" xml:space="preserve" xmlns:serif="http://www.serif.com/" style="fill-rule:evenodd;clip-rule:evenodd;stroke-linejoin:round;stroke-miterlimit:2;">
    <g transform="matrix(1,0,0,1,-1609.63,-3623.28)">
        <g transform="matrix(1,0,0,1,-110.019,-3591.86)">
            <path d="M1815.25,7262.94C1815.25,7236.55 1793.85,7215.15 1767.45,7215.15C1741.05,7215.15 1719.65,7236.55 1719.65,7262.94C1719.65,7289.35 1741.05,7310.65 1767.45,7310.65C1793.85,7310.65 1815.25,7289.35 1815.25,7262.94ZM1779.75,7256.74C1781.75,7255.44 1784.05,7254.85 1786.65,7254.85C1795.65,7254.85 1801.85,7262.55 1801.85,7272.94C1801.85,7284.24 1795.65,7293.35 1785.45,7293.35C1776.25,7293.35 1769.15,7285.15 1769.15,7275.15C1769.15,7268.15 1770.85,7261.24 1774.15,7253.74C1777.35,7246.55 1780.25,7240.65 1783.05,7235.85C1783.25,7235.65 1783.35,7235.44 1783.45,7235.24C1784.55,7233.15 1785.75,7232.65 1786.85,7232.65C1787.05,7232.65 1791.05,7232.74 1791.05,7235.94C1791.05,7236.85 1790.35,7237.94 1789.95,7238.55C1785.65,7244.44 1782.35,7251.15 1779.75,7256.74ZM1765.65,7242.74C1761.95,7261.65 1758.55,7285.15 1758.15,7289.94C1757.95,7292.35 1755.55,7292.94 1753.95,7292.94C1752.35,7292.94 1751.25,7292.05 1751.25,7290.15C1751.25,7289.35 1751.45,7288.74 1751.55,7287.94C1753.35,7277.55 1755.15,7266.35 1755.25,7265.85C1752.15,7269.15 1748.25,7271.15 1744.35,7271.15C1737.15,7271.15 1732.35,7265.15 1732.35,7255.55C1732.35,7244.24 1739.85,7232.74 1750.15,7232.74C1755.05,7232.74 1758.25,7235.05 1760.15,7237.44C1760.35,7236.44 1760.85,7235.05 1762.45,7235.05C1764.45,7235.05 1766.55,7236.94 1766.55,7239.15L1766.55,7239.65L1765.65,7242.74ZM1785.45,7286.35C1791.05,7286.35 1795.25,7281.15 1795.25,7273.15C1795.25,7266.94 1791.95,7261.74 1786.55,7261.74C1779.95,7261.74 1775.65,7267.85 1775.65,7275.05C1775.65,7281.44 1779.65,7286.35 1785.45,7286.35ZM1758.55,7246.65C1757.85,7246.35 1757.45,7245.65 1757.15,7244.94C1756.35,7242.94 1754.55,7239.85 1750.45,7239.85C1743.25,7239.85 1738.85,7248.44 1738.85,7255.24C1738.85,7261.55 1740.85,7263.94 1744.25,7263.94C1749.65,7263.94 1753.05,7260.05 1756.55,7253.24C1757.15,7252.05 1757.75,7249.85 1758.35,7248.05L1758.55,7246.65Z" style="fill-rule:nonzero;"/>
        </g>
    </g>
</svg>
