<?xml version="1.0" encoding="UTF-8" standalone="no"?>
<!DOCTYPE svg PUBLIC "-//W3C//DTD SVG 1.1//EN" "http://www.w3.org/Graphics/SVG/1.1/DTD/svg11.dtd">
<svg width="100%" height="100%" viewBox="0 0 96 96" version="1.1" xmlns="http://www.w3.org/2000/svg" xmlns:xlink="http://www.w3.org/1999/xlink" xml:space="preserve" xmlns:serif="http://www.serif.com/" style="fill-rule:evenodd;clip-rule:evenodd;stroke-linejoin:round;stroke-miterlimit:2;">
    <g transform="matrix(1,0,0,1,-909.628,-3023.28)">
        <g transform="matrix(1,0,0,1,-110.019,-3591.86)">
            <path d="M1115.25,6662.94C1115.25,6636.55 1093.85,6615.15 1067.45,6615.15C1041.05,6615.15 1019.65,6636.55 1019.65,6662.94C1019.65,6689.35 1041.05,6710.65 1067.45,6710.65C1093.85,6710.65 1115.25,6689.35 1115.25,6662.94ZM1042.55,6637.74C1044.75,6635.05 1047.65,6633.24 1051.05,6633.24C1060.95,6633.24 1065.65,6646.55 1065.65,6662.35C1065.65,6678.44 1060.85,6693.94 1049.45,6693.94C1038.55,6693.94 1034.05,6680.44 1034.05,6664.44C1034.05,6650.65 1038.35,6637.55 1041.75,6637.55C1042.05,6637.55 1042.25,6637.65 1042.55,6637.74ZM1091.05,6658.85C1098.45,6662.94 1102.45,6668.24 1102.45,6676.24C1102.45,6687.05 1095.25,6693.74 1085.15,6693.74C1075.75,6693.74 1069.95,6686.65 1069.95,6677.35C1069.95,6670.24 1073.45,6664.74 1078.85,6660.15C1073.85,6656.74 1072.05,6653.15 1072.05,6647.85C1072.05,6640.05 1077.45,6633.24 1086.35,6633.24C1092.15,6633.24 1096.25,6637.15 1099.05,6641.74C1099.05,6641.85 1099.15,6641.94 1099.15,6642.05C1099.35,6642.05 1099.45,6641.94 1099.65,6641.94C1101.05,6641.94 1102.05,6643.35 1102.05,6644.94C1102.05,6648.94 1092.25,6657.94 1091.05,6658.85ZM1049.15,6686.74C1055.75,6686.74 1058.95,6675.74 1058.95,6661.74C1058.95,6651.65 1057.35,6640.24 1050.75,6640.24C1047.15,6640.24 1040.65,6647.35 1040.65,6664.35C1040.65,6677.74 1043.35,6686.74 1049.15,6686.74ZM1085.15,6663.55C1079.35,6668.35 1076.45,6672.44 1076.45,6677.15C1076.45,6681.85 1078.95,6686.55 1085.15,6686.55C1091.65,6686.55 1095.95,6682.35 1095.95,6676.65C1095.95,6671.74 1093.95,6667.94 1086.15,6664.05L1085.15,6663.55ZM1094.15,6646.65C1093.95,6646.35 1093.75,6646.15 1093.65,6645.85C1091.75,6642.24 1089.75,6640.24 1086.35,6640.24C1080.95,6640.24 1078.55,6644.15 1078.55,6647.85C1078.55,6650.94 1079.55,6652.74 1084.75,6655.55C1088.25,6652.85 1091.35,6649.74 1094.15,6646.65Z" style="fill-rule:nonzero;"/>
        </g>
    </g>
</svg>
