<?xml version="1.0" encoding="UTF-8" standalone="no"?>
<!DOCTYPE svg PUBLIC "-//W3C//DTD SVG 1.1//EN" "http://www.w3.org/Graphics/SVG/1.1/DTD/svg11.dtd">
<svg width="100%" height="100%" viewBox="0 0 89 89" version="1.1" xmlns="http://www.w3.org/2000/svg" xmlns:xlink="http://www.w3.org/1999/xlink" xml:space="preserve" xmlns:serif="http://www.serif.com/" style="fill-rule:evenodd;clip-rule:evenodd;stroke-linejoin:round;stroke-miterlimit:2;">
    <g transform="matrix(1,0,0,1,-1902.47,-1892.27)">
        <g transform="matrix(1.41414,0,0,1.41429,-1052.39,-837.704)">
            <path d="M2146.36,1992.65C2149.75,1992.65 2151.87,1990.11 2151.87,1987.14L2151.87,1935.8C2151.87,1932.34 2149.4,1930.29 2146.36,1930.29L2095.02,1930.29C2091.56,1930.29 2089.51,1932.62 2089.51,1935.8L2089.51,1987.14C2089.51,1990.32 2091.98,1992.65 2095.02,1992.65L2146.36,1992.65ZM2107.26,1963.66C2106.62,1963.1 2105.98,1962.32 2105.98,1961.4C2105.98,1960.2 2106.9,1959.7 2107.89,1959.63C2109.31,1953.69 2115.46,1945.7 2123.66,1945.7C2131.58,1945.7 2134.55,1950.58 2134.55,1955.39C2134.55,1959.42 2133.21,1961.26 2128.04,1962.81C2124.51,1963.94 2119.14,1964.79 2112.63,1964.79C2112.91,1970.31 2115.95,1972.71 2119.14,1972.71C2124.01,1972.71 2128.04,1970.87 2131.09,1967.62C2131.58,1967.06 2132.29,1966.49 2133.14,1966.49C2134.27,1966.49 2134.69,1967.55 2134.69,1968.19C2134.69,1970.66 2129.18,1977.8 2119.14,1977.8C2112.28,1977.8 2107.26,1972.36 2107.26,1964.02L2107.26,1963.66ZM2113.48,1959.7C2119.35,1959.7 2123.38,1958.92 2125.99,1958.22C2128.82,1957.37 2129.18,1957.02 2129.18,1955.32C2129.18,1952.49 2127.34,1950.65 2123.59,1950.65C2118.85,1950.65 2114.82,1955.67 2113.48,1959.7Z" style="fill-rule:nonzero;"/>
        </g>
    </g>
</svg>
