<?xml version="1.0" encoding="UTF-8" standalone="no"?>
<!DOCTYPE svg PUBLIC "-//W3C//DTD SVG 1.1//EN" "http://www.w3.org/Graphics/SVG/1.1/DTD/svg11.dtd">
<svg width="100%" height="100%" viewBox="0 0 89 89" version="1.1" xmlns="http://www.w3.org/2000/svg" xmlns:xlink="http://www.w3.org/1999/xlink" xml:space="preserve" xmlns:serif="http://www.serif.com/" style="fill-rule:evenodd;clip-rule:evenodd;stroke-linejoin:round;stroke-miterlimit:2;">
    <g transform="matrix(1,0,0,1,-2402.42,-2042.27)">
        <g transform="matrix(1.41414,0,0,1.41429,-1052.39,-837.704)">
            <path d="M2499.89,2098.71C2503.29,2098.71 2505.41,2096.17 2505.41,2093.2L2505.41,2041.86C2505.41,2038.4 2502.93,2036.35 2499.89,2036.35L2448.56,2036.35C2445.1,2036.35 2443.04,2038.68 2443.04,2041.86L2443.04,2093.2C2443.04,2096.38 2445.52,2098.71 2448.56,2098.71L2499.89,2098.71ZM2466.38,2071.98C2466.38,2076.65 2468.08,2079.34 2470.97,2079.34C2475.57,2079.34 2481.09,2073.33 2481.51,2064.35C2481.65,2061.87 2481.65,2055.3 2481.65,2053.95C2481.65,2053.18 2482.43,2052.33 2483.7,2052.33C2485.26,2052.33 2487.38,2053.6 2487.38,2054.87C2486.67,2063.92 2486.67,2064.07 2486.67,2068.1C2486.67,2071.21 2487.17,2075.45 2487.52,2076.58C2487.8,2077.85 2488.23,2079.05 2488.79,2079.83C2488.93,2080.19 2489.08,2080.47 2489.08,2080.89C2489.08,2082.17 2487.73,2084.15 2485.96,2084.15C2484.27,2084.15 2483.07,2082.52 2482,2077.92C2479.32,2082.17 2475.5,2084.5 2470.97,2084.5C2463.12,2084.5 2461,2078.14 2461,2072.2L2461,2060.39C2461,2059.61 2460.79,2055.37 2460.79,2054.03C2460.79,2053.03 2461.57,2052.4 2462.77,2052.4C2464.33,2052.4 2466.45,2053.6 2466.45,2055.09C2466.45,2056.01 2466.38,2058.97 2466.38,2060.39L2466.38,2071.98Z" style="fill-rule:nonzero;"/>
        </g>
    </g>
</svg>
