<?xml version="1.0" encoding="UTF-8" standalone="no"?>
<!DOCTYPE svg PUBLIC "-//W3C//DTD SVG 1.1//EN" "http://www.w3.org/Graphics/SVG/1.1/DTD/svg11.dtd">
<svg width="100%" height="100%" viewBox="0 0 89 89" version="1.1" xmlns="http://www.w3.org/2000/svg" xmlns:xlink="http://www.w3.org/1999/xlink" xml:space="preserve" xmlns:serif="http://www.serif.com/" style="fill-rule:evenodd;clip-rule:evenodd;stroke-linejoin:round;stroke-miterlimit:2;">
    <g transform="matrix(1,0,0,1,-358.759,-2221.63)">
        <g transform="matrix(1.41414,0,0,1.41429,-177.055,-770.755)">
            <path d="M441.261,2178.19L441.261,2115.83L378.897,2115.83L378.897,2178.19L441.261,2178.19ZM410.079,2163.41C408.312,2167.09 406.19,2168.93 402.584,2168.93L401.877,2168.93C397.211,2168.93 395.301,2167.02 395.301,2165.47C395.301,2164.41 396.15,2161.93 398.059,2161.93C398.766,2161.93 399.261,2162.28 399.615,2162.71C400.392,2163.49 401.382,2163.63 402.372,2163.63C403.009,2163.63 404.352,2162.92 405.413,2160.66L407.887,2155.57L399.049,2135.84C398.554,2134.64 397.352,2132.23 396.645,2131.1C396.433,2130.75 396.362,2130.32 396.362,2130.18C396.362,2129.26 398.059,2128.7 399.685,2128.7C400.958,2128.7 402.16,2129.05 402.443,2129.76C402.938,2131.17 403.645,2132.66 404.281,2134.14L410.857,2149.13L417.716,2134.71C418.493,2133.08 419.342,2131.1 419.978,2129.19C420.12,2128.7 420.402,2128.49 420.685,2128.34C421.039,2128.06 421.322,2127.99 421.817,2127.99C423.16,2127.99 425.352,2129.26 425.352,2131.24C425.352,2131.6 425.211,2132.09 424.998,2132.52C424.362,2133.65 423.372,2135.34 422.736,2136.76L410.079,2163.41Z" style="fill-rule:nonzero;"/>
        </g>
    </g>
</svg>
