<?xml version="1.0" encoding="UTF-8" standalone="no"?>
<!DOCTYPE svg PUBLIC "-//W3C//DTD SVG 1.1//EN" "http://www.w3.org/Graphics/SVG/1.1/DTD/svg11.dtd">
<svg width="100%" height="100%" viewBox="0 0 89 89" version="1.1" xmlns="http://www.w3.org/2000/svg" xmlns:xlink="http://www.w3.org/1999/xlink" xml:space="preserve" xmlns:serif="http://www.serif.com/" style="fill-rule:evenodd;clip-rule:evenodd;stroke-linejoin:round;stroke-miterlimit:2;">
    <g transform="matrix(1,0,0,1,-1058.69,-421.632)">
        <g transform="matrix(1.41414,0,0,1.41429,-177.055,-770.755)">
            <path d="M936.211,905.465L936.211,843.102L873.847,843.102L873.847,905.465L936.211,905.465ZM886.716,856.112C888.2,854.203 890.18,852.93 892.584,852.93C899.372,852.93 902.554,862.546 902.554,873.93C902.554,885.526 899.231,896.698 891.453,896.698C884.029,896.698 880.918,886.94 880.918,875.415C880.918,866.647 883.534,856.041 886.221,856.041C886.362,856.041 886.574,856.041 886.716,856.112ZM922.423,876.758C920.231,879.092 917.332,880.577 914.574,880.577C909.413,880.577 905.948,876.263 905.948,869.263C905.948,861.132 911.322,852.859 918.746,852.859C922.281,852.859 924.544,854.556 925.958,856.183C926.099,855.476 926.524,854.486 927.655,854.486C929.069,854.486 930.554,855.829 930.554,857.455L930.554,857.809C930.342,858.728 929.988,859.718 929.988,860.001C927.584,871.738 925.11,887.859 924.544,894.082C924.402,895.849 922.635,896.274 921.503,896.274C920.372,896.274 919.524,895.637 919.524,894.294C919.524,893.375 920.443,888.779 920.584,888.284L922.423,876.758ZM891.312,891.536C895.766,891.536 898.029,883.546 898.029,873.506C898.029,866.223 896.827,857.95 892.372,857.95C889.897,857.95 885.443,863.041 885.443,875.344C885.443,885.031 887.281,891.536 891.312,891.536ZM924.827,862.9C924.332,862.688 923.978,862.122 923.766,861.698C923.2,860.213 921.928,857.95 918.958,857.95C913.726,857.95 910.544,864.173 910.544,869.051C910.544,873.647 912.029,875.344 914.503,875.344C921.433,875.344 924.261,865.233 924.615,863.89L924.827,862.9Z" style="fill-rule:nonzero;"/>
        </g>
    </g>
</svg>
