<?xml version="1.0" encoding="UTF-8" standalone="no"?>
<!DOCTYPE svg PUBLIC "-//W3C//DTD SVG 1.1//EN" "http://www.w3.org/Graphics/SVG/1.1/DTD/svg11.dtd">
<svg width="100%" height="100%" viewBox="0 0 89 89" version="1.1" xmlns="http://www.w3.org/2000/svg" xmlns:xlink="http://www.w3.org/1999/xlink" xml:space="preserve" xmlns:serif="http://www.serif.com/" style="fill-rule:evenodd;clip-rule:evenodd;stroke-linejoin:round;stroke-miterlimit:2;">
    <g transform="matrix(1,0,0,1,-1702.49,-1592.27)">
        <g transform="matrix(1.41414,0,0,1.41429,-1052.39,-837.704)">
            <path d="M1984.51,1770.63C1982.74,1770.63 1981.68,1768.51 1981.68,1767.1C1981.68,1766.67 1981.75,1766.11 1982.11,1765.61C1982.6,1764.97 1982.88,1764.55 1983.1,1764.06C1985.14,1759.88 1988.82,1753.66 1993.28,1749.07C1997.66,1744.68 1999.99,1741.43 1999.99,1738.18C1999.99,1735.21 1998.09,1732.73 1994.76,1732.73C1991.15,1732.73 1988.68,1735.07 1987.62,1738.11C1987.34,1738.88 1986.77,1740.16 1985.5,1740.16C1984.51,1740.16 1982.6,1738.67 1982.6,1736.76C1982.6,1736.34 1982.67,1735.7 1983.02,1735.21C1985.22,1730.75 1989.18,1727.64 1994.9,1727.64C2001.12,1727.64 2005.23,1732.03 2005.23,1738.18C2005.23,1743.9 2001.41,1748.29 1996.67,1753.03C1992.85,1756.77 1990.02,1761.44 1988.12,1765.12C1989.88,1764.97 1991.86,1764.9 1993.35,1764.9C1995.89,1764.9 1997.59,1764.97 1999.71,1764.97C2000.56,1764.97 2002.33,1764.9 2003.03,1764.9C2004.73,1764.9 2005.65,1767.45 2005.65,1768.51C2005.65,1769.36 2005.15,1770.35 2003.95,1770.35C2002.47,1770.21 1998.93,1769.92 1992.78,1769.92C1991.01,1769.92 1989.25,1769.92 1987.2,1770.21C1986.84,1770.21 1985.99,1770.35 1984.86,1770.63L1984.51,1770.63ZM1977.15,1734.01C1978.22,1734.01 1978.99,1734.92 1978.99,1736.13C1978.99,1738.88 1972.21,1744.96 1970.58,1746.17C1976.31,1749.14 1979.28,1752.95 1979.28,1758.75C1979.28,1766.46 1973.83,1771.34 1966.12,1771.34C1958.98,1771.34 1954.6,1766.25 1954.6,1759.53C1954.6,1754.37 1957.22,1750.48 1961.32,1747.09C1957.5,1744.68 1956.15,1742.07 1956.15,1738.25C1956.15,1732.59 1960.33,1727.71 1967.04,1727.71C1971.43,1727.71 1974.61,1730.54 1976.73,1733.79C1976.73,1733.86 1976.8,1733.93 1976.8,1734.01L1977.15,1734.01ZM1972.56,1736.76C1971.14,1734.15 1969.59,1732.73 1967.04,1732.73C1962.87,1732.73 1961.11,1735.56 1961.11,1738.25C1961.11,1740.44 1961.81,1741.71 1965.84,1743.76C1968.53,1741.85 1970.86,1739.59 1972.98,1737.4L1972.56,1736.76ZM1966.12,1749.56C1961.67,1753.03 1959.48,1756 1959.48,1759.39C1959.48,1762.78 1961.39,1766.18 1966.12,1766.18C1971.08,1766.18 1974.33,1763.14 1974.33,1759.04C1974.33,1755.5 1972.84,1752.74 1966.9,1749.91C1966.69,1749.77 1966.41,1749.63 1966.12,1749.56ZM2004.94,1780.53C2008.34,1780.53 2010.46,1777.98 2010.46,1775.02L2010.46,1723.68C2010.46,1720.22 2007.98,1718.17 2004.94,1718.17L1953.61,1718.17C1950.14,1718.17 1948.1,1720.5 1948.1,1723.68L1948.1,1775.02C1948.1,1778.2 1950.57,1780.53 1953.61,1780.53L2004.94,1780.53Z" style="fill-rule:nonzero;"/>
        </g>
    </g>
</svg>
