<?xml version="1.0" encoding="UTF-8" standalone="no"?>
<!DOCTYPE svg PUBLIC "-//W3C//DTD SVG 1.1//EN" "http://www.w3.org/Graphics/SVG/1.1/DTD/svg11.dtd">
<svg width="100%" height="100%" viewBox="0 0 89 89" version="1.1" xmlns="http://www.w3.org/2000/svg" xmlns:xlink="http://www.w3.org/1999/xlink" xml:space="preserve" xmlns:serif="http://www.serif.com/" style="fill-rule:evenodd;clip-rule:evenodd;stroke-linejoin:round;stroke-miterlimit:2;">
    <g transform="matrix(1,0,0,1,-458.749,-1921.63)">
        <g transform="matrix(1.41414,0,0,1.41429,-177.055,-770.755)">
            <path d="M511.968,1966.07L511.968,1903.71L449.604,1903.71L449.604,1966.07L511.968,1966.07ZM492.948,1944.29C492.948,1947.83 493.655,1951.15 494.857,1952.57C494.998,1952.92 495.14,1953.2 495.14,1953.63C495.14,1954.9 493.796,1957.16 491.958,1957.16C489.342,1957.16 488.211,1951.58 488.069,1950.66C484.675,1955.25 480.645,1957.44 476.19,1957.44C469.615,1957.44 465.372,1952.5 465.372,1944.22C465.372,1934.47 473.079,1925.27 481.281,1925.27C483.615,1925.27 485.806,1925.91 487.574,1927.32L487.574,1919.83C487.574,1917.35 487.433,1914.81 487.433,1913.39C487.433,1912.05 488.776,1911.77 489.413,1911.77C490.473,1911.77 493.089,1912.48 493.089,1914.53C493.089,1915.44 492.948,1917.78 492.948,1919.83L492.948,1944.29ZM487.574,1933.9C487.079,1933.83 486.655,1933.62 486.301,1933.12C484.958,1931.07 483.19,1930.29 481.352,1930.29C475.695,1930.29 470.958,1937.22 470.958,1944.08C470.958,1950.16 473.574,1952.35 476.19,1952.35C480.998,1952.35 487.574,1946.06 487.574,1938.85L487.574,1933.9Z" style="fill-rule:nonzero;"/>
        </g>
    </g>
</svg>
