<?xml version="1.0" encoding="UTF-8" standalone="no"?>
<!DOCTYPE svg PUBLIC "-//W3C//DTD SVG 1.1//EN" "http://www.w3.org/Graphics/SVG/1.1/DTD/svg11.dtd">
<svg width="100%" height="100%" viewBox="0 0 89 89" version="1.1" xmlns="http://www.w3.org/2000/svg" xmlns:xlink="http://www.w3.org/1999/xlink" xml:space="preserve" xmlns:serif="http://www.serif.com/" style="fill-rule:evenodd;clip-rule:evenodd;stroke-linejoin:round;stroke-miterlimit:2;">
    <g transform="matrix(1,0,0,1,-258.769,-571.632)">
        <g transform="matrix(1.41414,0,0,1.41429,-177.055,-770.755)">
            <path d="M370.554,1011.53L370.554,949.162L308.19,949.162L308.19,1011.53L370.554,1011.53ZM329.897,1000.57C329.897,1001.56 329.049,1002.12 327.918,1002.12C326.221,1002.12 324.17,1000.85 324.17,999.506C324.17,998.587 324.312,995.688 324.312,994.486L324.312,966.981C321.695,968.253 318.938,968.819 318.867,968.819C317.312,968.819 315.544,967.476 315.544,966.486C315.544,965.566 316.251,965.142 316.817,964.93C319.574,963.87 322.12,962.385 323.817,961.112L324.099,960.758L324.806,960.122C325.443,959.415 326.291,958.92 326.928,958.92C328.271,958.92 330.11,960.405 330.11,962.102C330.11,963.021 329.756,964.011 329.756,965.637L329.756,994.132C329.756,995.688 329.827,999.011 329.897,1000.43L329.897,1000.57ZM356.483,1000.57C356.483,1001.56 355.635,1002.12 354.503,1002.12C352.806,1002.12 350.756,1000.85 350.756,999.506C350.756,998.587 350.897,995.688 350.897,994.486L350.897,966.981C348.281,968.253 345.524,968.819 345.453,968.819C343.897,968.819 342.13,967.476 342.13,966.486C342.13,965.566 342.837,965.142 343.402,964.93C346.16,963.87 348.705,962.385 350.402,961.112L350.685,960.758L351.392,960.122C352.029,959.415 352.877,958.92 353.514,958.92C354.857,958.92 356.695,960.405 356.695,962.102C356.695,963.021 356.342,964.011 356.342,965.637L356.342,994.132C356.342,995.688 356.413,999.011 356.483,1000.43L356.483,1000.57Z" style="fill-rule:nonzero;"/>
        </g>
    </g>
</svg>
