<?xml version="1.0" encoding="UTF-8" standalone="no"?>
<!DOCTYPE svg PUBLIC "-//W3C//DTD SVG 1.1//EN" "http://www.w3.org/Graphics/SVG/1.1/DTD/svg11.dtd">
<svg width="100%" height="100%" viewBox="0 0 96 96" version="1.1" xmlns="http://www.w3.org/2000/svg" xmlns:xlink="http://www.w3.org/1999/xlink" xml:space="preserve" xmlns:serif="http://www.serif.com/" style="fill-rule:evenodd;clip-rule:evenodd;stroke-linejoin:round;stroke-miterlimit:2;">
    <g transform="matrix(1,0,0,1,-509.628,-3773.28)">
        <g transform="matrix(1,0,0,1,-110.019,-3591.86)">
            <path d="M715.248,7412.94C715.248,7386.55 693.848,7365.15 667.448,7365.15C641.048,7365.15 619.648,7386.55 619.648,7412.94C619.648,7439.35 641.048,7460.65 667.448,7460.65C693.848,7460.65 715.248,7439.35 715.248,7412.94ZM648.448,7415.94C647.548,7415.15 646.648,7414.05 646.648,7412.74C646.648,7411.05 647.948,7410.35 649.348,7410.24C651.348,7401.85 660.048,7390.55 671.648,7390.55C682.848,7390.55 687.048,7397.44 687.048,7404.24C687.048,7409.94 685.148,7412.55 677.848,7414.74C672.848,7416.35 665.248,7417.55 656.048,7417.55C656.448,7425.35 660.748,7428.74 665.248,7428.74C672.148,7428.74 677.848,7426.15 682.148,7421.55C682.848,7420.74 683.848,7419.94 685.048,7419.94C686.648,7419.94 687.248,7421.44 687.248,7422.35C687.248,7425.85 679.448,7435.94 665.248,7435.94C655.548,7435.94 648.448,7428.24 648.448,7416.44L648.448,7415.94ZM657.248,7410.35C665.548,7410.35 671.248,7409.24 674.948,7408.24C678.948,7407.05 679.448,7406.55 679.448,7404.15C679.448,7400.15 676.848,7397.55 671.548,7397.55C664.848,7397.55 659.148,7404.65 657.248,7410.35Z" style="fill-rule:nonzero;"/>
        </g>
    </g>
</svg>
