<?xml version="1.0" encoding="UTF-8" standalone="no"?>
<!DOCTYPE svg PUBLIC "-//W3C//DTD SVG 1.1//EN" "http://www.w3.org/Graphics/SVG/1.1/DTD/svg11.dtd">
<svg width="100%" height="100%" viewBox="0 0 89 89" version="1.1" xmlns="http://www.w3.org/2000/svg" xmlns:xlink="http://www.w3.org/1999/xlink" xml:space="preserve" xmlns:serif="http://www.serif.com/" style="fill-rule:evenodd;clip-rule:evenodd;stroke-linejoin:round;stroke-miterlimit:2;">
    <g transform="matrix(1,0,0,1,-458.749,-721.632)">
        <g transform="matrix(1.41414,0,0,1.41429,-177.055,-770.755)">
            <path d="M511.968,1117.59L511.968,1055.22L449.604,1055.22L449.604,1117.59L511.968,1117.59ZM498.887,1083.65C502.564,1084.64 505.604,1088.6 505.604,1093.97C505.604,1101.68 501.503,1108.39 491.887,1108.39C487.786,1108.39 484.463,1106.63 481.564,1103.52C480.998,1102.88 480.998,1102.17 480.998,1101.61C480.998,1100.48 481.705,1097.93 483.402,1097.93C483.827,1097.93 484.18,1098.14 484.604,1098.64C486.726,1101.46 488.705,1103.23 491.887,1103.23C498.251,1103.23 500.655,1098.78 500.655,1094.04C500.655,1090.08 497.897,1087.18 493.796,1087.18C492.241,1087.18 490.544,1087.54 489.908,1087.68C489.766,1087.75 489.766,1087.75 489.554,1087.75C487.857,1087.75 487.009,1085.56 487.009,1084.42C487.009,1083.65 487.503,1082.73 488.423,1082.52C495.493,1081.95 499.099,1077.99 499.099,1074.88C499.099,1071.77 497.332,1069.79 493.867,1069.79C491.11,1069.79 488.705,1071.06 486.301,1074.17C485.806,1074.81 485.382,1075.44 484.463,1075.44C483.19,1075.44 481.988,1073.54 481.988,1071.98C481.988,1071.13 482.342,1070.5 482.695,1070.14C485.524,1066.68 489.2,1064.7 493.796,1064.7C499.736,1064.7 503.978,1068.23 503.978,1074.53C503.978,1079.97 500.372,1082.94 498.887,1083.65ZM457.17,1107.69C455.402,1107.69 454.342,1105.57 454.342,1104.15C454.342,1103.73 454.413,1103.16 454.766,1102.67C455.19,1102.03 455.473,1101.61 455.685,1101.11C457.736,1096.94 461.413,1090.72 465.938,1086.12C470.251,1081.74 472.584,1078.49 472.584,1075.23C472.584,1072.26 470.746,1069.79 467.352,1069.79C463.746,1069.79 461.271,1072.12 460.281,1075.16C459.998,1075.94 459.362,1077.21 458.089,1077.21C457.099,1077.21 455.19,1075.59 455.19,1073.82C455.19,1073.39 455.261,1072.76 455.615,1072.26C457.877,1067.81 461.766,1064.7 467.493,1064.7C473.716,1064.7 477.817,1069.08 477.817,1075.23C477.817,1080.96 474.069,1085.34 469.261,1090.08C465.443,1093.83 462.615,1098.5 460.776,1102.17C462.473,1102.03 464.453,1101.96 465.938,1101.96C468.483,1101.96 470.18,1102.03 472.301,1102.03C473.221,1102.03 474.988,1101.96 475.625,1101.96C477.392,1101.96 478.241,1104.51 478.241,1105.57C478.241,1106.41 477.746,1107.4 476.615,1107.4C472.16,1106.98 467.352,1106.98 465.443,1106.98C463.675,1106.98 461.908,1106.98 459.786,1107.26C459.291,1107.26 457.877,1107.62 457.524,1107.69L457.17,1107.69Z" style="fill-rule:nonzero;"/>
        </g>
    </g>
</svg>
