<?xml version="1.0" encoding="UTF-8" standalone="no"?>
<!DOCTYPE svg PUBLIC "-//W3C//DTD SVG 1.1//EN" "http://www.w3.org/Graphics/SVG/1.1/DTD/svg11.dtd">
<svg width="100%" height="100%" viewBox="0 0 96 96" version="1.1" xmlns="http://www.w3.org/2000/svg" xmlns:xlink="http://www.w3.org/1999/xlink" xml:space="preserve" xmlns:serif="http://www.serif.com/" style="fill-rule:evenodd;clip-rule:evenodd;stroke-linejoin:round;stroke-miterlimit:2;">
    <g transform="matrix(1,0,0,1,-309.628,-3473.28)">
        <g transform="matrix(1,0,0,1,-110.019,-3591.86)">
            <path d="M515.248,7112.94C515.248,7086.55 493.848,7065.15 467.448,7065.15C441.048,7065.15 419.648,7086.55 419.648,7112.94C419.648,7139.35 441.048,7160.65 467.448,7160.65C493.848,7160.65 515.248,7139.35 515.248,7112.94ZM447.648,7085.24C448.248,7084.05 449.248,7082.65 450.948,7082.65C451.948,7082.65 455.148,7083.15 455.148,7085.94C455.148,7086.85 454.548,7087.94 454.148,7088.55C449.848,7094.44 446.448,7101.15 443.848,7106.74C445.948,7105.44 448.248,7104.85 450.848,7104.85C459.848,7104.85 465.948,7112.55 465.948,7122.94C465.948,7134.24 459.848,7143.35 449.648,7143.35C440.348,7143.35 433.348,7135.15 433.348,7125.15C433.348,7118.15 435.048,7111.24 438.348,7103.74C441.448,7096.55 444.348,7090.65 447.248,7085.85L447.648,7085.24ZM492.548,7108.94C497.448,7110.44 501.348,7115.85 501.348,7123.35C501.348,7134.05 496.048,7143.35 483.348,7143.35C477.948,7143.35 473.648,7140.85 469.848,7136.55C469.148,7135.74 469.048,7134.74 469.048,7133.94C469.048,7132.35 470.048,7128.85 472.248,7128.85C472.748,7128.85 473.248,7129.15 473.848,7129.85C476.548,7133.74 479.248,7136.15 483.348,7136.15C491.648,7136.15 494.848,7130.05 494.848,7123.44C494.848,7117.94 491.248,7113.94 485.848,7113.94C485.448,7113.94 484.948,7113.94 484.448,7114.05C483.348,7114.15 481.948,7114.35 480.748,7114.65C480.548,7114.74 480.548,7114.74 480.348,7114.74C478.148,7114.74 477.048,7111.65 477.048,7110.15C477.048,7109.05 477.548,7107.74 478.848,7107.44C484.248,7107.05 492.848,7103.65 492.848,7096.85C492.848,7092.55 490.548,7089.85 485.948,7089.85C482.348,7089.85 479.248,7091.65 476.048,7095.85C475.348,7096.74 474.748,7097.65 473.648,7097.65C471.648,7097.65 470.348,7094.44 470.348,7092.85C470.348,7089.85 477.048,7082.74 485.848,7082.74C493.648,7082.74 499.248,7087.65 499.248,7096.35C499.248,7103.94 494.548,7108.05 492.548,7108.94ZM449.648,7136.35C455.148,7136.35 459.448,7131.15 459.448,7123.15C459.448,7116.94 456.048,7111.74 450.748,7111.74C444.048,7111.74 439.748,7117.85 439.748,7125.05C439.748,7131.44 443.848,7136.35 449.648,7136.35Z" style="fill-rule:nonzero;"/>
        </g>
    </g>
</svg>
