<?xml version="1.0" encoding="UTF-8" standalone="no"?>
<!DOCTYPE svg PUBLIC "-//W3C//DTD SVG 1.1//EN" "http://www.w3.org/Graphics/SVG/1.1/DTD/svg11.dtd">
<svg width="100%" height="100%" viewBox="0 0 89 89" version="1.1" xmlns="http://www.w3.org/2000/svg" xmlns:xlink="http://www.w3.org/1999/xlink" xml:space="preserve" xmlns:serif="http://www.serif.com/" style="fill-rule:evenodd;clip-rule:evenodd;stroke-linejoin:round;stroke-miterlimit:2;">
    <g transform="matrix(1,0,0,1,-1502.52,-2042.27)">
        <g transform="matrix(1.41414,0,0,1.41429,-1052.39,-837.704)">
            <path d="M1863.53,2098.71C1866.92,2098.71 1869.04,2096.17 1869.04,2093.2L1869.04,2041.86C1869.04,2038.4 1866.57,2036.35 1863.53,2036.35L1812.2,2036.35C1808.73,2036.35 1806.68,2038.68 1806.68,2041.86L1806.68,2093.2C1806.68,2096.38 1809.15,2098.71 1812.2,2098.71L1863.53,2098.71ZM1840.55,2082.17C1840.55,2082.87 1840.69,2087.12 1840.69,2088.53C1840.69,2089.94 1839.21,2090.16 1838.71,2090.16C1837.72,2090.16 1834.96,2089.45 1834.96,2087.4C1834.96,2086.48 1835.11,2083.01 1835.11,2082.17L1835.11,2052.96C1835.11,2051.83 1834.96,2047.94 1834.96,2046.6C1834.96,2045.61 1835.74,2044.97 1836.94,2044.97C1838.5,2044.97 1840.62,2046.18 1840.62,2047.66C1840.62,2048.58 1840.55,2051.55 1840.55,2052.96L1840.55,2082.17Z" style="fill-rule:nonzero;"/>
        </g>
    </g>
</svg>
