<?xml version="1.0" encoding="UTF-8" standalone="no"?>
<!DOCTYPE svg PUBLIC "-//W3C//DTD SVG 1.1//EN" "http://www.w3.org/Graphics/SVG/1.1/DTD/svg11.dtd">
<svg width="100%" height="100%" viewBox="0 0 89 89" version="1.1" xmlns="http://www.w3.org/2000/svg" xmlns:xlink="http://www.w3.org/1999/xlink" xml:space="preserve" xmlns:serif="http://www.serif.com/" style="fill-rule:evenodd;clip-rule:evenodd;stroke-linejoin:round;stroke-miterlimit:2;">
    <g transform="matrix(1,0,0,1,-2402.42,-1442.27)">
        <g transform="matrix(1.41414,0,0,1.41429,-1052.39,-837.704)">
            <path d="M2499.89,1674.47C2503.29,1674.47 2505.41,1671.92 2505.41,1668.95L2505.41,1617.62C2505.41,1614.16 2502.93,1612.11 2499.89,1612.11L2448.56,1612.11C2445.1,1612.11 2443.04,1614.44 2443.04,1617.62L2443.04,1668.95C2443.04,1672.14 2445.52,1674.47 2448.56,1674.47L2499.89,1674.47ZM2489.5,1657.01L2491.48,1645.48C2489.14,1647.81 2486.18,1649.3 2483.21,1649.3C2477.76,1649.3 2474.09,1644.98 2474.09,1637.98C2474.09,1629.85 2479.81,1621.58 2487.59,1621.58C2491.34,1621.58 2493.74,1623.28 2495.23,1624.9C2495.37,1624.2 2495.79,1623.21 2496.92,1623.21C2498.48,1623.21 2500.11,1624.55 2500.11,1626.18L2500.11,1626.53C2497.98,1633.39 2493.95,1658.35 2493.74,1662.8C2493.6,1664.57 2491.69,1665 2490.56,1665C2489.29,1665 2488.44,1664.36 2488.44,1663.02C2488.44,1662.45 2488.58,1661.95 2488.72,1661.39L2489.5,1657.01ZM2453.16,1661.25L2453.16,1661.04C2459.8,1641.1 2462.84,1633.6 2465.32,1627.66L2453.09,1628.79C2452.52,1628.86 2451.95,1628.93 2451.46,1628.93C2449.05,1628.93 2447.85,1626.11 2447.85,1624.97C2447.85,1624.55 2448.07,1623.56 2449.12,1623.56C2449.76,1623.56 2450.26,1623.63 2451.11,1623.63L2451.81,1623.63L2466.24,1622.57C2466.59,1622.57 2466.94,1622.43 2467.23,1622.36C2467.65,1622.22 2468.14,1622.15 2468.57,1622.15L2468.78,1622.15C2469.98,1622.36 2471.82,1623.98 2471.82,1625.61L2471.82,1625.89C2471.75,1626.67 2471.4,1627.31 2471.12,1627.8C2467.01,1636.01 2459.52,1657.01 2458.39,1663.23C2458.11,1664.71 2456.83,1664.92 2455.91,1664.92C2455.7,1664.92 2455.42,1664.85 2455.14,1664.85C2453.65,1664.64 2452.8,1663.86 2452.8,1662.66C2452.8,1662.24 2452.94,1661.81 2453.01,1661.6L2453.16,1661.25ZM2494.02,1631.62C2493.46,1631.41 2493.11,1630.84 2492.89,1630.42C2492.26,1628.93 2490.98,1626.67 2487.87,1626.67C2482.36,1626.67 2479.03,1632.89 2479.03,1637.77C2479.03,1642.37 2480.52,1644.07 2483.14,1644.07C2487.24,1644.07 2489.78,1641.31 2492.47,1636.36C2492.96,1635.51 2493.39,1633.88 2493.81,1632.61L2494.02,1631.62Z" style="fill-rule:nonzero;"/>
        </g>
    </g>
</svg>
