<?xml version="1.0" encoding="UTF-8" standalone="no"?>
<!DOCTYPE svg PUBLIC "-//W3C//DTD SVG 1.1//EN" "http://www.w3.org/Graphics/SVG/1.1/DTD/svg11.dtd">
<svg width="100%" height="100%" viewBox="0 0 89 89" version="1.1" xmlns="http://www.w3.org/2000/svg" xmlns:xlink="http://www.w3.org/1999/xlink" xml:space="preserve" xmlns:serif="http://www.serif.com/" style="fill-rule:evenodd;clip-rule:evenodd;stroke-linejoin:round;stroke-miterlimit:2;">
    <g transform="matrix(1,0,0,1,-2402.42,-1292.27)">
        <g transform="matrix(1.41414,0,0,1.41429,-1052.39,-837.704)">
            <path d="M2499.89,1568.41C2503.29,1568.41 2505.41,1565.86 2505.41,1562.89L2505.41,1511.56C2505.41,1508.1 2502.93,1506.05 2499.89,1506.05L2448.56,1506.05C2445.1,1506.05 2443.04,1508.38 2443.04,1511.56L2443.04,1562.89C2443.04,1566.08 2445.52,1568.41 2448.56,1568.41L2499.89,1568.41ZM2456.9,1532.77C2458.39,1531.92 2460.09,1531.43 2461.92,1531.43C2468.43,1531.43 2472.88,1537.02 2472.88,1544.51C2472.88,1552.71 2468.43,1559.22 2461.08,1559.22C2454.43,1559.22 2449.34,1553.35 2449.34,1546.07C2449.34,1541.05 2450.54,1536.03 2452.94,1530.65C2455.21,1525.49 2457.33,1521.25 2459.38,1517.71C2459.52,1517.57 2459.94,1516.79 2460.01,1516.65C2460.51,1515.73 2461.36,1515.45 2462.07,1515.45C2463.12,1515.45 2465.11,1516.16 2465.11,1517.78C2465.11,1518.42 2464.61,1519.27 2464.33,1519.69C2461.22,1523.93 2458.81,1528.81 2456.9,1532.77ZM2491.2,1539.42C2489,1541.75 2486.11,1543.24 2483.35,1543.24C2478.19,1543.24 2474.72,1538.92 2474.72,1531.92C2474.72,1523.79 2480.1,1515.52 2487.52,1515.52C2491.05,1515.52 2493.32,1517.22 2494.73,1518.84C2494.87,1518.14 2495.3,1517.15 2496.43,1517.15C2497.84,1517.15 2499.33,1518.49 2499.33,1520.12L2499.33,1520.47C2499.12,1521.39 2498.76,1522.38 2498.76,1522.66C2496.36,1534.4 2493.88,1550.52 2493.32,1556.74C2493.18,1558.51 2491.41,1558.93 2490.28,1558.93C2489.14,1558.93 2488.3,1558.3 2488.3,1556.95C2488.3,1556.04 2489.22,1551.44 2489.36,1550.94L2491.2,1539.42ZM2461.08,1554.2C2465.11,1554.2 2468.14,1550.38 2468.14,1544.65C2468.14,1540.2 2465.74,1536.45 2461.85,1536.45C2457.04,1536.45 2453.93,1540.83 2453.93,1546C2453.93,1550.66 2456.9,1554.2 2461.08,1554.2ZM2493.6,1525.56C2493.11,1525.35 2492.75,1524.78 2492.54,1524.36C2491.97,1522.87 2490.7,1520.61 2487.73,1520.61C2482.5,1520.61 2479.32,1526.83 2479.32,1531.71C2479.32,1536.31 2480.8,1538.01 2483.28,1538.01C2490.21,1538.01 2493.03,1527.89 2493.39,1526.55L2493.6,1525.56Z" style="fill-rule:nonzero;"/>
        </g>
    </g>
</svg>
