<?xml version="1.0" encoding="UTF-8" standalone="no"?>
<!DOCTYPE svg PUBLIC "-//W3C//DTD SVG 1.1//EN" "http://www.w3.org/Graphics/SVG/1.1/DTD/svg11.dtd">
<svg width="100%" height="100%" viewBox="0 0 89 89" version="1.1" xmlns="http://www.w3.org/2000/svg" xmlns:xlink="http://www.w3.org/1999/xlink" xml:space="preserve" xmlns:serif="http://www.serif.com/" style="fill-rule:evenodd;clip-rule:evenodd;stroke-linejoin:round;stroke-miterlimit:2;">
    <g transform="matrix(1,0,0,1,-2002.46,-1892.27)">
        <g transform="matrix(1.41414,0,0,1.41429,-1052.39,-837.704)">
            <path d="M2217.07,1992.65C2220.46,1992.65 2222.58,1990.11 2222.58,1987.14L2222.58,1935.8C2222.58,1932.34 2220.11,1930.29 2217.07,1930.29L2165.73,1930.29C2162.27,1930.29 2160.22,1932.62 2160.22,1935.8L2160.22,1987.14C2160.22,1990.32 2162.69,1992.65 2165.73,1992.65L2217.07,1992.65ZM2192.74,1975.89C2192.74,1978.37 2192.88,1980.84 2192.88,1982.26C2192.88,1983.67 2191.4,1983.88 2190.9,1983.88C2189.84,1983.88 2187.23,1983.18 2187.23,1981.2C2187.23,1980.21 2187.37,1977.31 2187.37,1975.26L2187.3,1957.37C2185.53,1957.44 2183.48,1957.58 2183.48,1957.58L2183.41,1957.58C2181.5,1957.58 2180.44,1955.46 2180.44,1954.33C2180.44,1953.48 2181.07,1952.63 2182.14,1952.63L2187.37,1952.63L2187.37,1946.83C2187.37,1941.6 2191.04,1938.7 2195.08,1938.7C2197.41,1938.7 2200.17,1939.48 2202.22,1941.81C2202.5,1942.24 2202.64,1942.8 2202.64,1943.3C2202.64,1944.43 2201.79,1946.83 2200.02,1946.83C2199.25,1946.83 2198.68,1946.41 2198.26,1945.63C2197.55,1944.36 2196.14,1943.93 2195,1943.93C2194.01,1943.93 2192.74,1944.71 2192.74,1946.76L2192.74,1952.42L2193.31,1952.42C2194.79,1952.35 2197.76,1952.07 2198.61,1952.07C2200.45,1952.07 2201.51,1954.19 2201.51,1955.32C2201.51,1956.17 2200.94,1957.09 2199.81,1957.09L2194.09,1957.09L2192.74,1957.16L2192.74,1975.89Z" style="fill-rule:nonzero;"/>
        </g>
    </g>
</svg>
