<?xml version="1.0" encoding="UTF-8" standalone="no"?>
<!DOCTYPE svg PUBLIC "-//W3C//DTD SVG 1.1//EN" "http://www.w3.org/Graphics/SVG/1.1/DTD/svg11.dtd">
<svg width="100%" height="100%" viewBox="0 0 89 89" version="1.1" xmlns="http://www.w3.org/2000/svg" xmlns:xlink="http://www.w3.org/1999/xlink" xml:space="preserve" xmlns:serif="http://www.serif.com/" style="fill-rule:evenodd;clip-rule:evenodd;stroke-linejoin:round;stroke-miterlimit:2;">
    <g transform="matrix(1,0,0,1,-558.739,-421.632)">
        <g transform="matrix(1.41414,0,0,1.41429,-177.055,-770.755)">
            <path d="M582.675,905.465L582.675,843.102L520.312,843.102L520.312,905.465L582.675,905.465ZM533.392,856.112C535.019,854.203 537.14,852.93 539.615,852.93C546.827,852.93 550.15,862.546 550.15,873.93C550.15,885.526 546.685,896.698 538.483,896.698C530.564,896.698 527.312,886.94 527.312,875.415C527.312,865.445 530.352,856.041 532.897,856.041C533.11,856.041 533.251,856.041 533.392,856.112ZM573.13,888.779C573.13,891.112 573.413,893.375 573.413,894.718C573.413,895.496 572.705,896.344 571.574,896.344C570.089,896.344 568.11,895.072 568.11,893.657C568.11,892.738 568.251,889.486 568.251,888.637L568.251,886.587L557.786,886.94C557.503,886.94 555.736,887.364 555.524,887.364C553.968,887.364 552.342,885.597 552.342,883.688C552.342,883.193 552.483,882.556 552.837,881.92C553.19,881.425 553.473,880.93 553.827,880.506C554.11,880.082 554.392,879.728 554.534,879.375C555.665,877.324 564.009,861.627 566.413,854.061C566.766,853.142 567.473,853.001 567.897,853.001C569.312,853.001 571.15,855.263 571.15,856.96C571.15,857.385 571.009,857.809 570.796,858.162C570.231,859.011 569.524,860.284 569.099,861.203C566.413,867.001 562.241,875.274 558.776,881.849L568.251,881.637L568.251,870.748C568.251,869.617 568.11,865.94 568.11,864.597C568.11,863.819 568.817,862.971 569.948,862.971C571.362,862.971 573.271,864.173 573.271,865.657C573.271,866.577 573.13,869.334 573.13,870.748L573.13,881.425C574.049,881.354 575.463,881.072 576.099,881.072C577.796,881.072 578.645,883.688 578.645,884.748C578.645,885.243 578.433,886.587 577.16,886.587C576.453,886.587 574.544,886.445 573.13,886.445L573.13,888.779ZM538.271,891.536C543.009,891.536 545.342,883.546 545.342,873.506C545.342,866.223 544.14,857.95 539.402,857.95C536.786,857.95 532.049,863.041 532.049,875.344C532.049,885.031 534.029,891.536 538.271,891.536Z" style="fill-rule:nonzero;"/>
        </g>
    </g>
</svg>
