<?xml version="1.0" encoding="UTF-8" standalone="no"?>
<!DOCTYPE svg PUBLIC "-//W3C//DTD SVG 1.1//EN" "http://www.w3.org/Graphics/SVG/1.1/DTD/svg11.dtd">
<svg width="100%" height="100%" viewBox="0 0 89 89" version="1.1" xmlns="http://www.w3.org/2000/svg" xmlns:xlink="http://www.w3.org/1999/xlink" xml:space="preserve" xmlns:serif="http://www.serif.com/" style="fill-rule:evenodd;clip-rule:evenodd;stroke-linejoin:round;stroke-miterlimit:2;">
    <g transform="matrix(1,0,0,1,-1058.69,-721.632)">
        <g transform="matrix(1.41414,0,0,1.41429,-177.055,-770.755)">
            <path d="M936.211,1117.59L936.211,1055.22L873.847,1055.22L873.847,1117.59L936.211,1117.59ZM931.615,1069.65C931.402,1070.57 931.049,1071.56 930.978,1071.84C928.857,1081.53 925.887,1098.42 925.251,1105.92C925.11,1107.69 923.271,1108.11 922.069,1108.11C920.867,1108.11 919.948,1107.48 919.948,1106.13C919.948,1105.71 920.726,1101.75 921.079,1100.12C921.574,1096.8 922.352,1092.63 923.059,1088.6C920.726,1090.93 917.685,1092.41 914.716,1092.41C909.271,1092.41 905.594,1088.1 905.594,1081.1C905.594,1072.97 911.322,1064.7 919.099,1064.7C922.847,1064.7 925.322,1066.39 926.736,1068.02C926.877,1067.31 927.301,1066.32 928.503,1066.32C930.059,1066.32 931.615,1067.67 931.615,1069.29L931.615,1069.65ZM882.332,1107.69C880.564,1107.69 879.503,1105.57 879.503,1104.15C879.503,1103.73 879.574,1103.16 879.928,1102.67L880.918,1101.11C882.897,1096.94 886.645,1090.72 891.099,1086.12C895.413,1081.74 897.746,1078.49 897.746,1075.23C897.746,1072.26 895.908,1069.79 892.514,1069.79C888.908,1069.79 886.433,1072.12 885.443,1075.16C885.16,1075.94 884.524,1077.21 883.251,1077.21C882.261,1077.21 880.352,1075.59 880.352,1073.82C880.352,1073.39 880.423,1072.76 880.776,1072.26C883.039,1067.81 886.998,1064.7 892.655,1064.7C898.948,1064.7 902.978,1069.08 902.978,1075.23C902.978,1080.96 899.231,1085.34 894.423,1090.08C890.604,1093.83 887.776,1098.5 885.938,1102.17C887.635,1102.03 889.615,1101.96 891.099,1101.96C893.645,1101.96 895.342,1102.03 897.534,1102.03C898.382,1102.03 900.15,1101.96 900.786,1101.96C902.554,1101.96 903.402,1104.51 903.402,1105.57C903.402,1106.41 902.908,1107.4 901.776,1107.4C897.322,1106.98 892.514,1106.98 890.604,1106.98C888.837,1106.98 887.069,1106.98 884.948,1107.26C884.453,1107.26 883.039,1107.62 882.685,1107.69L882.332,1107.69ZM925.534,1074.74C925.039,1074.53 924.685,1073.96 924.473,1073.54C923.837,1072.05 922.564,1069.79 919.382,1069.79C913.867,1069.79 910.544,1076.01 910.544,1080.89C910.544,1085.49 912.029,1087.18 914.645,1087.18C921.503,1087.18 924.473,1078.56 925.392,1075.73L925.534,1074.74Z" style="fill-rule:nonzero;"/>
        </g>
    </g>
</svg>
