<?xml version="1.0" encoding="UTF-8" standalone="no"?>
<!DOCTYPE svg PUBLIC "-//W3C//DTD SVG 1.1//EN" "http://www.w3.org/Graphics/SVG/1.1/DTD/svg11.dtd">
<svg width="100%" height="100%" viewBox="0 0 96 96" version="1.1" xmlns="http://www.w3.org/2000/svg" xmlns:xlink="http://www.w3.org/1999/xlink" xml:space="preserve" xmlns:serif="http://www.serif.com/" style="fill-rule:evenodd;clip-rule:evenodd;stroke-linejoin:round;stroke-miterlimit:2;">
    <g transform="matrix(1,0,0,1,-1909.63,-3023.28)">
        <g transform="matrix(1,0,0,1,-110.019,-3591.86)">
            <path d="M2115.25,6662.94C2115.25,6636.55 2093.85,6615.15 2067.45,6615.15C2041.05,6615.15 2019.65,6636.55 2019.65,6662.94C2019.65,6689.35 2041.05,6710.65 2067.45,6710.65C2093.85,6710.65 2115.25,6689.35 2115.25,6662.94ZM2085.95,6658.44C2094.65,6662.55 2099.25,6667.85 2099.25,6675.85C2099.25,6686.65 2090.95,6693.35 2079.05,6693.35C2068.15,6693.35 2061.35,6686.24 2061.35,6676.94C2061.35,6669.85 2065.35,6664.35 2071.75,6659.74C2065.85,6656.35 2063.75,6652.74 2063.75,6647.44C2063.75,6639.55 2070.15,6632.85 2080.45,6632.85C2087.25,6632.85 2092.05,6636.74 2095.35,6641.35C2095.35,6641.44 2095.45,6641.55 2095.45,6641.65C2095.65,6641.65 2095.85,6641.55 2096.05,6641.55C2097.65,6641.55 2098.85,6642.94 2098.85,6644.55C2098.85,6648.55 2086.55,6658.05 2085.95,6658.44ZM2049.95,6690.94C2049.95,6692.24 2048.75,6693.05 2047.25,6693.05C2044.85,6693.05 2042.05,6691.24 2042.05,6689.44C2042.05,6688.15 2042.25,6684.15 2042.25,6682.44L2042.25,6644.35C2039.15,6645.65 2036.25,6646.85 2034.65,6646.85C2032.55,6646.85 2030.05,6645.05 2030.05,6643.65C2030.05,6642.44 2031.05,6641.74 2031.75,6641.44C2035.65,6639.94 2039.25,6637.94 2041.55,6636.24L2041.95,6635.74L2042.85,6634.74C2043.85,6633.85 2044.95,6633.15 2045.85,6633.15C2047.75,6633.15 2050.25,6635.24 2050.25,6637.55C2050.25,6638.85 2049.75,6640.24 2049.75,6642.44L2049.75,6681.94C2049.75,6684.15 2049.85,6688.65 2049.95,6690.74L2049.95,6690.94ZM2079.05,6663.15C2072.25,6667.94 2068.85,6672.05 2068.85,6676.74C2068.85,6681.44 2071.85,6686.15 2079.05,6686.15C2086.75,6686.15 2091.65,6681.94 2091.65,6676.24C2091.65,6671.35 2089.35,6667.55 2080.25,6663.65C2079.85,6663.44 2079.45,6663.24 2079.05,6663.15ZM2089.65,6646.24C2089.35,6645.94 2089.15,6645.74 2088.95,6645.35C2086.75,6641.85 2084.45,6639.85 2080.55,6639.85C2074.15,6639.85 2071.35,6643.74 2071.35,6647.44C2071.35,6650.55 2072.45,6652.24 2078.65,6655.15C2082.75,6652.44 2086.35,6649.35 2089.65,6646.24Z" style="fill-rule:nonzero;"/>
        </g>
    </g>
</svg>
