<?xml version="1.0" encoding="UTF-8" standalone="no"?>
<!DOCTYPE svg PUBLIC "-//W3C//DTD SVG 1.1//EN" "http://www.w3.org/Graphics/SVG/1.1/DTD/svg11.dtd">
<svg width="100%" height="100%" viewBox="0 0 89 89" version="1.1" xmlns="http://www.w3.org/2000/svg" xmlns:xlink="http://www.w3.org/1999/xlink" xml:space="preserve" xmlns:serif="http://www.serif.com/" style="fill-rule:evenodd;clip-rule:evenodd;stroke-linejoin:round;stroke-miterlimit:2;">
    <g transform="matrix(1,0,0,1,-358.759,-2071.63)">
        <g transform="matrix(1.41414,0,0,1.41429,-177.055,-770.755)">
            <path d="M441.261,2072.13L441.261,2009.77L378.897,2009.77L378.897,2072.13L441.261,2072.13ZM423.089,2049.01C423.089,2049.79 423.231,2054.03 423.231,2055.38C423.231,2056.36 422.453,2057 421.251,2057C419.695,2057 417.574,2055.8 417.574,2054.31C417.574,2053.39 417.716,2050.43 417.716,2049.01L417.716,2037.7C417.716,2032.89 416.655,2030.41 413.261,2030.41C409.443,2030.41 404.847,2032.75 403.15,2038.33C402.301,2041.3 402.301,2045.05 402.301,2049.01L402.301,2050.07C402.301,2052.26 402.443,2054.24 402.443,2055.38C402.443,2056.36 401.665,2057 400.463,2057C398.908,2057 396.786,2055.8 396.786,2054.31C396.786,2053.39 396.928,2049.86 396.928,2049.01L396.928,2033.38C396.928,2032.25 396.716,2028.36 396.716,2026.95C396.716,2025.61 398.059,2025.32 398.695,2025.32C399.756,2025.32 402.372,2026.03 402.372,2028.08L402.372,2030.27C405.271,2026.95 409.443,2025.18 413.261,2025.18C421.958,2025.18 423.089,2032.61 423.089,2037.41L423.089,2049.01Z" style="fill-rule:nonzero;"/>
        </g>
    </g>
</svg>
