<?xml version="1.0" encoding="UTF-8" standalone="no"?>
<!DOCTYPE svg PUBLIC "-//W3C//DTD SVG 1.1//EN" "http://www.w3.org/Graphics/SVG/1.1/DTD/svg11.dtd">
<svg width="100%" height="100%" viewBox="0 0 89 89" version="1.1" xmlns="http://www.w3.org/2000/svg" xmlns:xlink="http://www.w3.org/1999/xlink" xml:space="preserve" xmlns:serif="http://www.serif.com/" style="fill-rule:evenodd;clip-rule:evenodd;stroke-linejoin:round;stroke-miterlimit:2;">
    <g transform="matrix(1,0,0,1,-1902.47,-1142.27)">
        <g transform="matrix(1.41414,0,0,1.41429,-1052.39,-837.704)">
            <path d="M2146.36,1462.35C2149.75,1462.35 2151.87,1459.8 2151.87,1456.83L2151.87,1405.5C2151.87,1402.04 2149.4,1399.98 2146.36,1399.98L2095.02,1399.98C2091.56,1399.98 2089.51,1402.32 2089.51,1405.5L2089.51,1456.83C2089.51,1460.02 2091.98,1462.35 2095.02,1462.35L2146.36,1462.35ZM2101.11,1434.35C2100.82,1434.7 2100.54,1434.77 2100.12,1434.77C2098.84,1434.77 2097.22,1433.29 2097.22,1431.24C2097.22,1431.03 2097.22,1430.67 2097.29,1430.32C2097.5,1429.61 2097.57,1428.9 2097.71,1428.41L2098.91,1414.55C2098.98,1413.84 2098.98,1412.92 2098.98,1412.22C2098.98,1410.87 2099.97,1410.52 2100.61,1410.52C2101.25,1410.52 2102.02,1410.8 2102.66,1411.16L2111.57,1410.52C2112.49,1410.45 2113.83,1410.38 2114.68,1410.17L2114.89,1410.17C2116.45,1410.17 2117.23,1412.64 2117.23,1413.63C2117.23,1414.41 2116.8,1415.4 2115.81,1415.47L2112.07,1415.68L2103.23,1416.32L2102.24,1426.92C2104,1425.65 2106.05,1424.94 2108.6,1424.94C2114.33,1424.94 2119.14,1429.96 2119.14,1438.31C2119.14,1446.02 2115.46,1453.16 2106.48,1453.16C2101.18,1453.16 2095.94,1448.42 2095.94,1445.66C2095.94,1444.32 2096.79,1441.77 2098.28,1441.77C2098.91,1441.77 2099.34,1442.2 2099.55,1442.69C2101.25,1445.66 2103.3,1447.92 2106.48,1447.92C2112.21,1447.92 2114.47,1443.47 2114.47,1438.38C2114.47,1433.01 2111.99,1430.04 2108.18,1430.04C2105.91,1430.04 2104,1431.17 2102.52,1432.86L2101.11,1434.35ZM2142.33,1445.38C2142.33,1447.71 2142.61,1449.97 2142.61,1451.32C2142.61,1452.1 2141.9,1452.94 2140.77,1452.94C2139.29,1452.94 2137.31,1451.67 2137.31,1450.26C2137.31,1449.34 2137.45,1446.09 2137.45,1445.24L2137.45,1443.19L2127.05,1443.54C2126.77,1443.54 2126.14,1443.68 2124.93,1443.96L2124.79,1443.96C2123.24,1443.96 2121.61,1442.2 2121.61,1440.29C2121.61,1439.3 2121.89,1438.87 2123.02,1437.11C2124.86,1434.84 2134.05,1415.61 2135.68,1410.66C2135.96,1409.74 2136.67,1409.6 2137.1,1409.6C2138.51,1409.6 2140.35,1411.86 2140.35,1413.56C2140.35,1413.98 2140.21,1414.41 2139.99,1414.76C2139.43,1415.61 2138.72,1416.88 2138.3,1417.8C2135.61,1423.6 2131.51,1431.87 2127.97,1438.45L2137.45,1438.24L2137.45,1427.35C2137.45,1426.22 2137.31,1422.54 2137.31,1421.2C2137.31,1420.42 2138.01,1419.57 2139.14,1419.57C2140.56,1419.57 2142.47,1420.77 2142.47,1422.26C2142.47,1423.18 2142.33,1425.93 2142.33,1427.35L2142.33,1438.03C2143.25,1437.95 2144.66,1437.67 2145.3,1437.67C2146.99,1437.67 2147.84,1440.29 2147.84,1441.35C2147.84,1441.84 2147.63,1443.19 2146.36,1443.19C2145.65,1443.19 2143.74,1443.05 2142.33,1443.05L2142.33,1445.38Z" style="fill-rule:nonzero;"/>
        </g>
    </g>
</svg>
