<?xml version="1.0" encoding="UTF-8" standalone="no"?>
<!DOCTYPE svg PUBLIC "-//W3C//DTD SVG 1.1//EN" "http://www.w3.org/Graphics/SVG/1.1/DTD/svg11.dtd">
<svg width="100%" height="100%" viewBox="0 0 89 89" version="1.1" xmlns="http://www.w3.org/2000/svg" xmlns:xlink="http://www.w3.org/1999/xlink" xml:space="preserve" xmlns:serif="http://www.serif.com/" style="fill-rule:evenodd;clip-rule:evenodd;stroke-linejoin:round;stroke-miterlimit:2;">
    <g transform="matrix(1,0,0,1,-358.759,-871.632)">
        <g transform="matrix(1.41414,0,0,1.41429,-177.055,-770.755)">
            <path d="M441.261,1223.65L441.261,1161.28L378.897,1161.28L378.897,1223.65L441.261,1223.65ZM402.726,1189.71C406.402,1190.7 409.443,1194.66 409.443,1200.03C409.443,1207.74 405.342,1214.45 395.726,1214.45C391.625,1214.45 388.372,1212.69 385.473,1209.58C384.908,1208.94 384.837,1208.23 384.837,1207.67C384.837,1206.54 385.615,1203.99 387.312,1203.99C387.665,1203.99 388.089,1204.2 388.514,1204.7C390.564,1207.53 392.615,1209.29 395.726,1209.29C402.089,1209.29 404.423,1204.84 404.423,1200.1C404.423,1196.14 401.736,1193.24 397.635,1193.24C396.079,1193.24 394.382,1193.6 393.746,1193.74C393.604,1193.81 393.604,1193.81 393.463,1193.81C391.766,1193.81 390.918,1191.62 390.918,1190.49C390.918,1189.71 391.342,1188.79 392.332,1188.58C397.211,1188.22 402.938,1185.18 402.938,1180.94C402.938,1177.83 401.17,1175.85 397.705,1175.85C394.948,1175.85 392.615,1177.12 390.14,1180.23C389.645,1180.87 389.221,1181.51 388.372,1181.51C387.099,1181.51 385.897,1179.6 385.897,1178.04C385.897,1177.19 386.251,1176.56 386.604,1176.2C389.433,1172.74 393.039,1170.76 397.635,1170.76C403.574,1170.76 407.817,1174.29 407.817,1180.59C407.817,1186.03 404.211,1189 402.726,1189.71ZM414.322,1213.75C412.554,1213.75 411.493,1211.63 411.493,1210.21C411.493,1209.79 411.564,1209.22 411.918,1208.73L412.908,1207.17C414.887,1203 418.635,1196.78 423.089,1192.18C427.402,1187.8 429.736,1184.55 429.736,1181.29C429.736,1178.32 427.897,1175.85 424.503,1175.85C420.897,1175.85 418.423,1178.18 417.433,1181.22C417.15,1182 416.514,1183.27 415.241,1183.27C414.251,1183.27 412.342,1181.65 412.342,1179.88C412.342,1179.45 412.413,1178.82 412.766,1178.32C415.029,1173.87 418.918,1170.76 424.645,1170.76C430.938,1170.76 434.968,1175.14 434.968,1181.29C434.968,1187.02 431.221,1191.4 426.413,1196.14C422.594,1199.89 419.766,1204.56 417.928,1208.23C419.625,1208.09 421.604,1208.02 423.089,1208.02C425.635,1208.02 427.332,1208.09 429.453,1208.09C430.372,1208.09 432.14,1208.02 432.776,1208.02C434.544,1208.02 435.392,1210.57 435.392,1211.63C435.392,1212.48 434.897,1213.46 433.766,1213.46C429.312,1213.04 424.503,1213.04 422.594,1213.04C420.827,1213.04 419.059,1213.04 416.938,1213.32C416.443,1213.32 415.029,1213.68 414.675,1213.75L414.322,1213.75Z" style="fill-rule:nonzero;"/>
        </g>
    </g>
</svg>
