<?xml version="1.0" encoding="UTF-8" standalone="no"?>
<!DOCTYPE svg PUBLIC "-//W3C//DTD SVG 1.1//EN" "http://www.w3.org/Graphics/SVG/1.1/DTD/svg11.dtd">
<svg width="100%" height="100%" viewBox="0 0 89 89" version="1.1" xmlns="http://www.w3.org/2000/svg" xmlns:xlink="http://www.w3.org/1999/xlink" xml:space="preserve" xmlns:serif="http://www.serif.com/" style="fill-rule:evenodd;clip-rule:evenodd;stroke-linejoin:round;stroke-miterlimit:2;">
    <g transform="matrix(1,0,0,1,-258.769,-1021.63)">
        <g transform="matrix(1.41414,0,0,1.41429,-177.055,-770.755)">
            <path d="M370.554,1329.71L370.554,1267.34L308.19,1267.34L308.19,1329.71L370.554,1329.71ZM336.827,1312.74C336.827,1315.07 337.11,1317.33 337.11,1318.68C337.11,1319.45 336.332,1320.3 335.059,1320.3C333.433,1320.3 331.241,1319.03 331.241,1317.62C331.241,1316.7 331.382,1313.44 331.382,1312.6L331.382,1310.55L319.786,1310.9C319.503,1310.9 318.796,1311.04 317.453,1311.32L317.312,1311.32C315.544,1311.32 313.776,1309.56 313.776,1307.65C313.776,1306.94 314.271,1305.81 315.402,1304.46C319.716,1297.96 327.635,1282.97 329.402,1278.02C329.685,1277.1 330.534,1276.96 330.958,1276.96C332.584,1276.96 334.564,1279.22 334.564,1280.92C334.564,1281.34 334.423,1281.77 334.211,1282.12C333.574,1282.97 332.796,1284.24 332.301,1285.16C329.332,1290.96 324.736,1299.23 320.918,1305.81L331.382,1305.6L331.382,1294.71C331.382,1293.58 331.241,1289.9 331.241,1288.56C331.241,1287.78 332.019,1286.93 333.291,1286.93C334.847,1286.93 336.968,1288.13 336.968,1289.62C336.968,1290.54 336.827,1293.29 336.827,1294.71L336.827,1305.38C337.817,1305.31 339.372,1305.03 340.079,1305.03C341.988,1305.03 342.908,1307.65 342.908,1308.71C342.908,1309.2 342.695,1310.55 341.281,1310.55C340.503,1310.55 338.382,1310.4 336.827,1310.4L336.827,1312.74ZM358.534,1318.75C358.534,1319.74 357.685,1320.3 356.554,1320.3C354.857,1320.3 352.806,1319.03 352.806,1317.69C352.806,1316.77 352.948,1313.87 352.948,1312.67L352.948,1285.16C350.332,1286.43 347.574,1287 347.503,1287C345.948,1287 344.18,1285.66 344.18,1284.67C344.18,1283.75 344.887,1283.32 345.453,1283.11C348.211,1282.05 350.756,1280.57 352.453,1279.29L352.736,1278.94L353.443,1278.3C354.079,1277.6 354.928,1277.1 355.564,1277.1C356.908,1277.1 358.746,1278.59 358.746,1280.28C358.746,1281.2 358.392,1282.19 358.392,1283.82L358.392,1312.31C358.392,1313.87 358.463,1317.19 358.534,1318.61L358.534,1318.75Z" style="fill-rule:nonzero;"/>
        </g>
    </g>
</svg>
