<?xml version="1.0" encoding="UTF-8" standalone="no"?>
<!DOCTYPE svg PUBLIC "-//W3C//DTD SVG 1.1//EN" "http://www.w3.org/Graphics/SVG/1.1/DTD/svg11.dtd">
<svg width="100%" height="100%" viewBox="0 0 89 89" version="1.1" xmlns="http://www.w3.org/2000/svg" xmlns:xlink="http://www.w3.org/1999/xlink" xml:space="preserve" xmlns:serif="http://www.serif.com/" style="fill-rule:evenodd;clip-rule:evenodd;stroke-linejoin:round;stroke-miterlimit:2;">
    <g transform="matrix(1,0,0,1,-658.729,-1021.63)">
        <g transform="matrix(1.41414,0,0,1.41429,-177.055,-770.755)">
            <path d="M653.382,1329.71L653.382,1267.34L591.019,1267.34L591.019,1329.71L653.382,1329.71ZM628.705,1301.71C628.352,1302.06 628.069,1302.13 627.645,1302.13C626.443,1302.13 624.746,1300.65 624.746,1298.6C624.746,1298.38 624.746,1298.03 624.817,1297.68C625.029,1296.97 625.099,1296.26 625.241,1295.77L626.443,1281.91C626.514,1281.2 626.584,1280.28 626.584,1279.58C626.584,1278.23 627.503,1277.88 628.14,1277.88C628.776,1277.88 629.554,1278.16 630.19,1278.52L639.17,1277.88C640.019,1277.81 641.362,1277.74 642.211,1277.53L642.493,1277.53C643.978,1277.53 644.756,1280 644.756,1280.99C644.756,1281.77 644.402,1282.76 643.342,1282.83L639.594,1283.04L630.756,1283.68L629.766,1294.28C631.534,1293.01 633.584,1292.3 636.2,1292.3C641.928,1292.3 646.665,1297.32 646.665,1305.67C646.665,1313.38 642.988,1320.52 634.009,1320.52C628.776,1320.52 623.473,1315.71 623.473,1313.02C623.473,1311.68 624.322,1309.13 625.806,1309.13C626.443,1309.13 626.867,1309.56 627.079,1310.05C628.776,1313.02 630.827,1315.28 634.009,1315.28C639.806,1315.28 642.069,1310.83 642.069,1305.74C642.069,1300.36 639.524,1297.39 635.705,1297.39C633.443,1297.39 631.534,1298.53 630.049,1300.22L628.705,1301.71ZM616.261,1312.74C616.261,1315.07 616.544,1317.33 616.544,1318.68C616.544,1319.45 615.837,1320.3 614.705,1320.3C613.221,1320.3 611.241,1319.03 611.241,1317.62C611.241,1316.7 611.382,1313.44 611.382,1312.6L611.382,1310.55L600.988,1310.9C600.705,1310.9 599.998,1311.04 598.726,1311.39L598.867,1311.32L598.726,1311.32C597.17,1311.32 595.544,1309.56 595.544,1307.65C595.544,1306.66 595.827,1306.23 596.958,1304.46C598.796,1302.2 607.988,1282.97 609.615,1278.02C609.897,1277.1 610.604,1276.96 611.029,1276.96C612.443,1276.96 614.281,1279.22 614.281,1280.92C614.281,1281.34 614.14,1281.77 613.928,1282.12C613.362,1282.97 612.655,1284.24 612.231,1285.16C609.544,1290.96 605.443,1299.23 601.908,1305.81L611.382,1305.6L611.382,1294.71C611.382,1293.58 611.241,1289.9 611.241,1288.56C611.241,1287.78 611.948,1286.93 613.079,1286.93C614.493,1286.93 616.402,1288.13 616.402,1289.62C616.402,1290.54 616.261,1293.29 616.261,1294.71L616.261,1305.38C617.18,1305.31 618.594,1305.03 619.231,1305.03C620.928,1305.03 621.776,1307.65 621.776,1308.71C621.776,1309.2 621.564,1310.55 620.291,1310.55C619.584,1310.55 617.675,1310.4 616.261,1310.4L616.261,1312.74Z" style="fill-rule:nonzero;"/>
        </g>
    </g>
</svg>
