<?xml version="1.0" encoding="UTF-8" standalone="no"?>
<!DOCTYPE svg PUBLIC "-//W3C//DTD SVG 1.1//EN" "http://www.w3.org/Graphics/SVG/1.1/DTD/svg11.dtd">
<svg width="100%" height="100%" viewBox="0 0 96 96" version="1.1" xmlns="http://www.w3.org/2000/svg" xmlns:xlink="http://www.w3.org/1999/xlink" xml:space="preserve" xmlns:serif="http://www.serif.com/" style="fill-rule:evenodd;clip-rule:evenodd;stroke-linejoin:round;stroke-miterlimit:2;">
    <g transform="matrix(1,0,0,1,-1909.63,-3623.28)">
        <g transform="matrix(1,0,0,1,-110.019,-3591.86)">
            <path d="M2115.25,7262.94C2115.25,7236.55 2093.85,7215.15 2067.45,7215.15C2041.05,7215.15 2019.65,7236.55 2019.65,7262.94C2019.65,7289.35 2041.05,7310.65 2067.45,7310.65C2093.85,7310.65 2115.25,7289.35 2115.25,7262.94ZM2064.85,7242.74C2064.15,7246.44 2058.55,7276.55 2057.35,7289.94C2057.15,7292.35 2054.75,7292.94 2053.15,7292.94C2051.55,7292.94 2050.45,7292.05 2050.45,7290.15C2050.45,7289.35 2050.65,7288.74 2050.75,7287.94C2052.55,7277.55 2054.35,7266.35 2054.45,7265.85C2051.35,7269.15 2047.45,7271.15 2043.55,7271.15C2036.35,7271.15 2031.55,7265.15 2031.55,7255.55C2031.55,7244.24 2039.05,7232.74 2049.35,7232.74C2054.25,7232.74 2057.45,7235.05 2059.35,7237.44C2059.55,7236.44 2060.05,7235.05 2061.65,7235.05C2063.65,7235.05 2065.75,7236.94 2065.75,7239.15L2065.75,7239.65L2064.85,7242.74ZM2102.25,7242.74C2099.95,7254.15 2095.95,7276.15 2094.75,7289.94C2094.55,7292.35 2092.15,7292.94 2090.55,7292.94C2088.95,7292.94 2087.75,7292.05 2087.75,7290.15C2087.75,7289.35 2088.05,7288.74 2088.15,7287.94C2089.95,7277.55 2091.75,7266.35 2091.85,7265.85C2088.75,7269.15 2084.85,7271.15 2080.95,7271.15C2073.75,7271.15 2068.95,7265.15 2068.95,7255.55C2068.95,7244.24 2076.45,7232.74 2086.75,7232.74C2091.55,7232.74 2094.85,7235.05 2096.75,7237.44C2096.95,7236.44 2097.45,7235.05 2099.05,7235.05C2101.05,7235.05 2103.15,7236.94 2103.15,7239.15L2103.15,7239.65L2102.25,7242.74ZM2095.15,7246.65C2094.45,7246.35 2093.95,7245.65 2093.75,7244.94C2092.85,7242.94 2091.15,7239.85 2087.05,7239.85C2079.75,7239.85 2075.35,7248.44 2075.35,7255.24C2075.35,7261.55 2077.35,7263.94 2080.85,7263.94C2086.95,7263.94 2092.25,7257.55 2094.85,7248.05L2095.15,7246.65ZM2057.75,7246.65C2057.05,7246.35 2056.65,7245.65 2056.35,7244.94C2055.55,7242.94 2053.75,7239.85 2049.65,7239.85C2042.45,7239.85 2038.05,7248.44 2038.05,7255.24C2038.05,7261.55 2040.05,7263.94 2043.45,7263.94C2048.85,7263.94 2052.25,7260.05 2055.75,7253.24C2056.35,7252.05 2056.95,7249.85 2057.55,7248.05L2057.75,7246.65Z" style="fill-rule:nonzero;"/>
        </g>
    </g>
</svg>
