<?xml version="1.0" encoding="UTF-8" standalone="no"?>
<!DOCTYPE svg PUBLIC "-//W3C//DTD SVG 1.1//EN" "http://www.w3.org/Graphics/SVG/1.1/DTD/svg11.dtd">
<svg width="100%" height="100%" viewBox="0 0 89 89" version="1.1" xmlns="http://www.w3.org/2000/svg" xmlns:xlink="http://www.w3.org/1999/xlink" xml:space="preserve" xmlns:serif="http://www.serif.com/" style="fill-rule:evenodd;clip-rule:evenodd;stroke-linejoin:round;stroke-miterlimit:2;">
    <g transform="matrix(1,0,0,1,-1802.48,-692.274)">
        <g transform="matrix(1.41414,0,0,1.41429,-1052.39,-837.704)">
            <path d="M2026.37,1134.27C2024.6,1134.27 2023.54,1132.15 2023.54,1130.73C2023.54,1130.31 2023.61,1129.74 2023.96,1129.25C2024.39,1128.61 2024.67,1128.19 2024.88,1127.69C2026.93,1123.52 2030.61,1117.3 2035.13,1112.7C2039.45,1108.32 2041.78,1105.07 2041.78,1101.81C2041.78,1098.84 2039.94,1096.37 2036.55,1096.37C2032.94,1096.37 2030.47,1098.7 2029.48,1101.74C2029.2,1102.52 2028.56,1103.79 2027.29,1103.79C2026.3,1103.79 2024.39,1102.17 2024.39,1100.4C2024.39,1099.97 2024.46,1099.34 2024.81,1098.84C2027.08,1094.39 2030.96,1091.28 2036.69,1091.28C2042.91,1091.28 2047.01,1095.66 2047.01,1101.81C2047.01,1107.54 2043.27,1111.92 2038.46,1116.66C2034.64,1120.41 2031.81,1125.08 2029.97,1128.75C2031.67,1128.61 2033.65,1128.54 2035.13,1128.54C2037.68,1128.54 2039.38,1128.61 2041.5,1128.61C2042.42,1128.61 2044.19,1128.54 2044.82,1128.54C2046.59,1128.54 2047.44,1131.09 2047.44,1132.15C2047.44,1133 2046.94,1133.98 2045.81,1133.98C2041.36,1133.56 2036.55,1133.56 2034.64,1133.56C2032.87,1133.56 2031.11,1133.56 2028.98,1133.84C2028.49,1133.84 2027.08,1134.2 2026.72,1134.27L2026.37,1134.27ZM2068.09,1110.23C2071.76,1111.22 2074.8,1115.18 2074.8,1120.55C2074.8,1128.26 2070.7,1134.97 2061.09,1134.97C2056.98,1134.97 2053.66,1133.21 2050.76,1130.1C2050.2,1129.46 2050.2,1128.75 2050.2,1128.19C2050.2,1127.06 2050.9,1124.51 2052.6,1124.51C2053.02,1124.51 2053.38,1124.72 2053.8,1125.22C2055.92,1128.05 2057.9,1129.81 2061.09,1129.81C2067.45,1129.81 2069.85,1125.36 2069.85,1120.62C2069.85,1116.66 2067.1,1113.76 2062.99,1113.76C2061.44,1113.76 2059.74,1114.12 2059.11,1114.26C2058.96,1114.33 2058.96,1114.33 2058.75,1114.33C2057.05,1114.33 2056.21,1112.14 2056.21,1111.01C2056.21,1110.23 2056.7,1109.31 2057.62,1109.1C2064.69,1108.53 2068.3,1104.57 2068.3,1101.46C2068.3,1098.35 2066.53,1096.37 2063.07,1096.37C2060.31,1096.37 2057.9,1097.64 2055.5,1100.75C2055,1101.39 2054.58,1102.03 2053.66,1102.03C2052.39,1102.03 2051.19,1100.12 2051.19,1098.56C2051.19,1097.71 2051.54,1097.08 2051.89,1096.72C2054.72,1093.26 2058.4,1091.28 2062.99,1091.28C2068.93,1091.28 2073.18,1094.81 2073.18,1101.11C2073.18,1106.55 2069.57,1109.52 2068.09,1110.23ZM2075.65,1144.17C2079.04,1144.17 2081.17,1141.62 2081.17,1138.65L2081.17,1087.32C2081.17,1083.85 2078.69,1081.8 2075.65,1081.8L2024.32,1081.8C2020.85,1081.8 2018.8,1084.14 2018.8,1087.32L2018.8,1138.65C2018.8,1141.83 2021.28,1144.17 2024.32,1144.17L2075.65,1144.17Z" style="fill-rule:nonzero;"/>
        </g>
    </g>
</svg>
