<?xml version="1.0" encoding="UTF-8" standalone="no"?>
<!DOCTYPE svg PUBLIC "-//W3C//DTD SVG 1.1//EN" "http://www.w3.org/Graphics/SVG/1.1/DTD/svg11.dtd">
<svg width="100%" height="100%" viewBox="0 0 89 89" version="1.1" xmlns="http://www.w3.org/2000/svg" xmlns:xlink="http://www.w3.org/1999/xlink" xml:space="preserve" xmlns:serif="http://www.serif.com/" style="fill-rule:evenodd;clip-rule:evenodd;stroke-linejoin:round;stroke-miterlimit:2;">
    <g transform="matrix(1,0,0,1,-1902.47,-1592.27)">
        <g transform="matrix(1.41414,0,0,1.41429,-1052.39,-837.704)">
            <path d="M2146.36,1780.53C2149.75,1780.53 2151.87,1777.98 2151.87,1775.02L2151.87,1723.68C2151.87,1720.22 2149.4,1718.17 2146.36,1718.17L2095.02,1718.17C2091.56,1718.17 2089.51,1720.5 2089.51,1723.68L2089.51,1775.02C2089.51,1778.2 2091.98,1780.53 2095.02,1780.53L2146.36,1780.53ZM2117.86,1734.01C2118.92,1734.01 2119.63,1734.92 2119.63,1736.13C2119.63,1738.88 2112.7,1745.39 2111.71,1746.17C2117.09,1749.14 2119.91,1752.95 2119.91,1758.75C2119.91,1766.46 2114.75,1771.34 2107.4,1771.34C2100.68,1771.34 2096.51,1766.25 2096.51,1759.53C2096.51,1754.37 2098.98,1750.48 2102.87,1747.09C2099.27,1744.68 2097.99,1742.07 2097.99,1738.25C2097.99,1732.59 2101.88,1727.71 2108.25,1727.71C2112.49,1727.71 2115.46,1730.54 2117.44,1733.79L2117.58,1734.01L2117.86,1734.01ZM2141.9,1763.56C2141.9,1765.89 2142.12,1768.16 2142.12,1769.5C2142.12,1770.28 2141.48,1771.13 2140.35,1771.13C2138.93,1771.13 2137.1,1769.85 2137.1,1768.44C2137.1,1767.52 2137.24,1764.27 2137.24,1763.42L2137.24,1761.37L2127.34,1761.72C2127.05,1761.72 2126.49,1761.86 2125.36,1762.15L2125.22,1762.15C2123.73,1762.15 2122.18,1760.38 2122.18,1758.47C2122.18,1758.12 2122.18,1757.27 2123.52,1755.29C2123.87,1754.86 2124.09,1754.51 2124.23,1754.16C2127.41,1748.08 2133.49,1735.14 2135.54,1728.84C2135.82,1727.92 2136.53,1727.78 2136.88,1727.78C2138.23,1727.78 2139.92,1730.05 2139.92,1731.74C2139.92,1732.17 2139.85,1732.59 2139.64,1732.94C2139.07,1733.79 2138.44,1735.07 2138.01,1735.98C2135.54,1741.78 2131.58,1750.06 2128.26,1756.63L2137.24,1756.42L2137.24,1745.53C2137.24,1744.4 2137.1,1740.72 2137.1,1739.38C2137.1,1738.6 2137.73,1737.75 2138.86,1737.75C2140.21,1737.75 2141.97,1738.95 2141.97,1740.44C2141.97,1741.36 2141.9,1744.12 2141.9,1745.53L2141.9,1756.21C2142.75,1756.14 2144.1,1755.85 2144.66,1755.85C2146.29,1755.85 2147.07,1758.47 2147.07,1759.53C2147.07,1760.03 2146.92,1761.37 2145.72,1761.37C2145.01,1761.37 2143.25,1761.23 2141.9,1761.23L2141.9,1763.56ZM2107.4,1749.56C2103.23,1753.03 2101.18,1756 2101.18,1759.39C2101.18,1762.78 2102.94,1766.18 2107.4,1766.18C2112.14,1766.18 2115.25,1763.14 2115.25,1759.04C2115.25,1755.5 2113.76,1752.74 2108.18,1749.91C2107.96,1749.77 2107.68,1749.63 2107.4,1749.56ZM2113.55,1736.76C2112.21,1734.15 2110.72,1732.73 2108.32,1732.73C2104.36,1732.73 2102.66,1735.56 2102.66,1738.25C2102.66,1740.44 2103.37,1741.71 2107.19,1743.76C2109.73,1741.85 2111.92,1739.59 2113.97,1737.4L2113.55,1736.76Z" style="fill-rule:nonzero;"/>
        </g>
    </g>
</svg>
