<?xml version="1.0" encoding="UTF-8" standalone="no"?>
<!DOCTYPE svg PUBLIC "-//W3C//DTD SVG 1.1//EN" "http://www.w3.org/Graphics/SVG/1.1/DTD/svg11.dtd">
<svg width="100%" height="100%" viewBox="0 0 89 89" version="1.1" xmlns="http://www.w3.org/2000/svg" xmlns:xlink="http://www.w3.org/1999/xlink" xml:space="preserve" xmlns:serif="http://www.serif.com/" style="fill-rule:evenodd;clip-rule:evenodd;stroke-linejoin:round;stroke-miterlimit:2;">
    <g transform="matrix(1,0,0,1,-1058.69,-1171.63)">
        <g transform="matrix(1.41414,0,0,1.41429,-177.055,-770.755)">
            <path d="M936.211,1435.77L936.211,1373.4L873.847,1373.4L873.847,1435.77L936.211,1435.77ZM920.16,1418.3C920.655,1414.98 921.362,1410.81 922.069,1406.78C919.806,1409.11 916.978,1410.6 914.15,1410.6C908.988,1410.6 905.524,1406.28 905.524,1399.28C905.524,1391.15 910.968,1382.88 918.322,1382.88C921.857,1382.88 924.19,1384.58 925.534,1386.2C925.746,1385.5 926.099,1384.51 927.231,1384.51C928.645,1384.51 930.2,1385.85 930.2,1387.48L930.2,1387.83C929.988,1388.75 929.635,1389.74 929.564,1390.02C926.665,1404.66 924.402,1420.99 924.12,1424.1C924.049,1425.87 922.211,1426.29 921.15,1426.29C919.948,1426.29 919.099,1425.66 919.099,1424.31C919.099,1423.75 919.312,1423.25 919.382,1422.69L920.16,1418.3ZM885.514,1407.77C885.16,1408.12 884.877,1408.19 884.453,1408.19C883.251,1408.19 881.554,1406.71 881.554,1404.66C881.554,1404.44 881.554,1404.09 881.625,1403.74C881.837,1403.03 881.978,1402.32 882.049,1401.83L883.251,1387.97C883.322,1387.26 883.392,1386.34 883.392,1385.64C883.392,1384.29 884.312,1383.94 884.948,1383.94C885.584,1383.94 886.362,1384.22 886.998,1384.58L895.978,1383.94C896.827,1383.87 898.17,1383.8 899.089,1383.59L899.301,1383.59C900.786,1383.59 901.564,1386.06 901.564,1387.05C901.564,1387.83 901.211,1388.82 900.15,1388.89L896.402,1389.1L887.564,1389.74L886.574,1400.34C888.342,1399.07 890.392,1398.36 893.009,1398.36C898.736,1398.36 903.473,1403.38 903.473,1411.73C903.473,1419.43 899.796,1426.58 890.817,1426.58C885.584,1426.58 880.281,1421.77 880.281,1419.08C880.281,1417.74 881.13,1415.19 882.615,1415.19C883.251,1415.19 883.675,1415.62 883.887,1416.11C885.584,1419.08 887.635,1421.34 890.817,1421.34C896.615,1421.34 898.877,1416.89 898.877,1411.8C898.877,1406.42 896.332,1403.45 892.514,1403.45C890.251,1403.45 888.342,1404.59 886.857,1406.28L885.514,1407.77ZM924.473,1392.92C923.908,1392.71 923.625,1392.14 923.413,1391.72C922.776,1390.23 921.574,1387.97 918.604,1387.97C913.372,1387.97 910.19,1394.19 910.19,1399.07C910.19,1403.67 911.604,1405.36 914.079,1405.36C917.968,1405.36 920.443,1402.61 922.918,1397.66C923.413,1396.81 923.837,1395.18 924.261,1393.91L924.473,1392.92Z" style="fill-rule:nonzero;"/>
        </g>
    </g>
</svg>
