<?xml version="1.0" encoding="UTF-8" standalone="no"?>
<!DOCTYPE svg PUBLIC "-//W3C//DTD SVG 1.1//EN" "http://www.w3.org/Graphics/SVG/1.1/DTD/svg11.dtd">
<svg width="100%" height="100%" viewBox="0 0 89 89" version="1.1" xmlns="http://www.w3.org/2000/svg" xmlns:xlink="http://www.w3.org/1999/xlink" xml:space="preserve" xmlns:serif="http://www.serif.com/" style="fill-rule:evenodd;clip-rule:evenodd;stroke-linejoin:round;stroke-miterlimit:2;">
    <g transform="matrix(1,0,0,1,-2202.44,-242.274)">
        <g transform="matrix(1.41414,0,0,1.41429,-1052.39,-837.704)">
            <path d="M2358.48,825.984C2361.87,825.984 2363.99,823.439 2363.99,820.469L2363.99,769.136C2363.99,765.671 2361.52,763.621 2358.48,763.621L2307.14,763.621C2303.68,763.621 2301.63,765.954 2301.63,769.136L2301.63,820.469C2301.63,823.651 2304.11,825.984 2307.14,825.984L2358.48,825.984ZM2347.8,775.57C2347.59,776.56 2346.95,777.338 2346.32,778.116C2346.25,778.328 2346.11,778.469 2346.03,778.54C2340.52,788.227 2332.11,805.621 2330.48,812.904C2330.05,814.318 2328.64,814.53 2327.65,814.53C2327.37,814.53 2327.09,814.459 2326.66,814.459C2325.18,814.247 2324.19,813.54 2324.19,812.267C2324.19,811.631 2324.47,811.065 2324.68,810.5C2325.32,809.227 2326.1,807.318 2326.52,806.328C2330.9,796.075 2335.22,786.459 2340.59,777.197L2323.55,778.611C2322.84,778.681 2322.21,778.894 2321.43,778.894C2318.88,778.894 2317.19,775.641 2317.19,774.863C2317.19,774.085 2317.82,773.449 2318.6,773.449C2319.24,773.449 2319.94,773.52 2320.79,773.52C2321.22,773.52 2321.64,773.449 2322.14,773.449L2341.3,772.176L2342.71,771.964C2343.07,771.823 2343.35,771.752 2343.77,771.752C2345.47,771.752 2347.8,773.378 2347.8,775.217L2347.8,775.57Z" style="fill-rule:nonzero;"/>
        </g>
    </g>
</svg>
