<?xml version="1.0" encoding="UTF-8" standalone="no"?>
<!DOCTYPE svg PUBLIC "-//W3C//DTD SVG 1.1//EN" "http://www.w3.org/Graphics/SVG/1.1/DTD/svg11.dtd">
<svg width="100%" height="100%" viewBox="0 0 89 89" version="1.1" xmlns="http://www.w3.org/2000/svg" xmlns:xlink="http://www.w3.org/1999/xlink" xml:space="preserve" xmlns:serif="http://www.serif.com/" style="fill-rule:evenodd;clip-rule:evenodd;stroke-linejoin:round;stroke-miterlimit:2;">
    <g transform="matrix(1,0,0,1,-958.698,-1921.63)">
        <g transform="matrix(1.41414,0,0,1.41429,-177.055,-770.755)">
            <path d="M865.503,1966.07L865.503,1903.71L803.14,1903.71L803.14,1966.07L865.503,1966.07ZM837.009,1949.24C837.009,1949.95 837.15,1954.19 837.15,1955.61C837.15,1956.53 836.514,1957.16 835.241,1957.16C833.615,1957.16 831.423,1955.89 831.423,1954.48C831.423,1953.56 831.564,1950.09 831.564,1949.24L831.564,1933.4C831.564,1932.27 831.423,1928.38 831.423,1926.97C831.423,1926.05 832.059,1925.41 833.332,1925.41C834.887,1925.41 837.079,1926.69 837.079,1928.03C837.079,1929.02 837.009,1931.99 837.009,1933.4L837.009,1949.24ZM834.534,1920.39C832.342,1920.39 830.574,1918.06 830.574,1916.15C830.574,1914.17 831.847,1912.62 833.968,1912.62C836.089,1912.62 837.857,1915.02 837.857,1917C837.857,1918.98 836.584,1920.39 834.534,1920.39Z" style="fill-rule:nonzero;"/>
        </g>
    </g>
</svg>
