<?xml version="1.0" encoding="UTF-8" standalone="no"?>
<!DOCTYPE svg PUBLIC "-//W3C//DTD SVG 1.1//EN" "http://www.w3.org/Graphics/SVG/1.1/DTD/svg11.dtd">
<svg width="100%" height="100%" viewBox="0 0 89 89" version="1.1" xmlns="http://www.w3.org/2000/svg" xmlns:xlink="http://www.w3.org/1999/xlink" xml:space="preserve" xmlns:serif="http://www.serif.com/" style="fill-rule:evenodd;clip-rule:evenodd;stroke-linejoin:round;stroke-miterlimit:2;">
    <g transform="matrix(1,0,0,1,-2202.44,-992.274)">
        <g transform="matrix(1.41414,0,0,1.41429,-1052.39,-837.704)">
            <path d="M2358.48,1356.29C2361.87,1356.29 2363.99,1353.74 2363.99,1350.77L2363.99,1299.44C2363.99,1295.97 2361.52,1293.92 2358.48,1293.92L2307.14,1293.92C2303.68,1293.92 2301.63,1296.26 2301.63,1299.44L2301.63,1350.77C2301.63,1353.95 2304.11,1356.29 2307.14,1356.29L2358.48,1356.29ZM2328.57,1339.32C2328.57,1341.65 2328.85,1343.91 2328.85,1345.26C2328.85,1346.04 2328.14,1346.88 2327.01,1346.88C2325.53,1346.88 2323.55,1345.61 2323.55,1344.2C2323.55,1343.28 2323.69,1340.03 2323.69,1339.18L2323.69,1337.13L2313.23,1337.48C2312.94,1337.48 2312.31,1337.62 2311.18,1337.9L2310.96,1337.9C2309.41,1337.9 2307.78,1336.14 2307.78,1334.23C2307.78,1333.73 2307.92,1333.1 2308.28,1332.46C2308.63,1331.96 2308.91,1331.47 2309.27,1331.05C2309.97,1329.98 2319.31,1312.59 2321.85,1304.6C2322.21,1303.68 2322.91,1303.54 2323.27,1303.54C2324.75,1303.54 2326.52,1305.8 2326.52,1307.5C2326.52,1307.92 2326.45,1308.35 2326.24,1308.7C2325.67,1309.55 2324.96,1310.82 2324.54,1311.74C2321.85,1317.54 2317.68,1325.81 2314.22,1332.39L2323.69,1332.18L2323.69,1321.29C2323.69,1320.16 2323.55,1316.48 2323.55,1315.14C2323.55,1314.36 2324.26,1313.51 2325.39,1313.51C2326.8,1313.51 2328.71,1314.71 2328.71,1316.2C2328.71,1317.12 2328.57,1319.87 2328.57,1321.29L2328.57,1331.96C2329.49,1331.89 2330.9,1331.61 2331.54,1331.61C2333.24,1331.61 2334.09,1334.23 2334.09,1335.29C2334.09,1335.78 2333.87,1337.13 2332.6,1337.13C2331.89,1337.13 2329.98,1336.98 2328.57,1336.98L2328.57,1339.32ZM2339.74,1343.07C2339.74,1343 2339.81,1343 2339.81,1342.85L2341.16,1338.61C2344.05,1329.56 2347.87,1319.24 2351.97,1309.48L2339.74,1310.61C2339.18,1310.68 2338.61,1310.75 2338.12,1310.75C2335.92,1310.75 2334.44,1308 2334.44,1306.79C2334.44,1306.37 2334.72,1305.38 2335.78,1305.38C2336.35,1305.38 2336.91,1305.45 2337.76,1305.45L2338.4,1305.45L2352.89,1304.39C2353.25,1304.39 2353.53,1304.25 2353.88,1304.18C2354.31,1304.04 2354.73,1303.96 2355.16,1303.96L2355.37,1303.96C2356.57,1304.18 2358.48,1305.8 2358.48,1307.43L2358.48,1307.71C2358.34,1308.49 2357.98,1309.13 2357.77,1309.62C2355.37,1313.16 2346.81,1336.56 2344.97,1345.05C2344.69,1346.53 2343.49,1346.74 2342.5,1346.74C2342.36,1346.74 2342.08,1346.67 2341.72,1346.67C2340.24,1346.46 2339.46,1345.68 2339.46,1344.48C2339.46,1344.06 2339.53,1343.63 2339.67,1343.42L2339.74,1343.07Z" style="fill-rule:nonzero;"/>
        </g>
    </g>
</svg>
