<?xml version="1.0" encoding="UTF-8" standalone="no"?>
<!DOCTYPE svg PUBLIC "-//W3C//DTD SVG 1.1//EN" "http://www.w3.org/Graphics/SVG/1.1/DTD/svg11.dtd">
<svg width="100%" height="100%" viewBox="0 0 96 96" version="1.1" xmlns="http://www.w3.org/2000/svg" xmlns:xlink="http://www.w3.org/1999/xlink" xml:space="preserve" xmlns:serif="http://www.serif.com/" style="fill-rule:evenodd;clip-rule:evenodd;stroke-linejoin:round;stroke-miterlimit:2;">
    <g transform="matrix(1,0,0,1,-209.628,-3923.28)">
        <g transform="matrix(1,0,0,1,-110.019,-3591.86)">
            <path d="M415.248,7562.94C415.248,7536.55 393.848,7515.15 367.448,7515.15C341.048,7515.15 319.648,7536.55 319.648,7562.94C319.648,7589.35 341.048,7610.65 367.448,7610.65C393.848,7610.65 415.248,7589.35 415.248,7562.94ZM381.448,7574.44C382.948,7576.44 385.148,7578.85 386.748,7580.55C387.248,7581.05 387.348,7581.55 387.348,7582.15C387.348,7583.55 384.948,7585.15 382.348,7585.15C381.448,7585.15 379.848,7584.94 379.048,7583.74C378.248,7582.44 376.848,7580.44 375.748,7578.94L367.748,7568.24L359.648,7579.15C358.548,7580.65 357.148,7582.65 356.348,7583.94C355.548,7585.15 353.948,7585.35 353.048,7585.35C350.648,7585.35 348.048,7583.65 348.048,7582.24C348.048,7581.65 348.148,7581.15 348.648,7580.65C350.248,7578.94 352.348,7576.65 353.948,7574.55L363.248,7562.24L354.448,7550.55C353.348,7549.15 351.748,7547.35 350.048,7545.74C349.848,7545.44 349.448,7544.85 349.448,7544.24C349.448,7542.94 352.448,7540.94 354.848,7540.94C356.248,7540.94 357.248,7541.44 357.648,7542.24C358.248,7543.24 359.048,7544.74 360.148,7546.15L367.748,7556.24L375.548,7545.85C376.548,7544.44 377.448,7542.85 378.048,7541.74C378.648,7540.85 379.948,7540.55 380.748,7540.55C383.048,7540.55 386.248,7542.55 386.248,7543.74C386.248,7544.44 386.048,7545.05 385.448,7545.44C383.848,7547.05 382.348,7548.85 381.248,7550.24L372.248,7562.24L381.448,7574.44Z" style="fill-rule:nonzero;"/>
        </g>
    </g>
</svg>
