<?xml version="1.0" encoding="UTF-8" standalone="no"?>
<!DOCTYPE svg PUBLIC "-//W3C//DTD SVG 1.1//EN" "http://www.w3.org/Graphics/SVG/1.1/DTD/svg11.dtd">
<svg width="100%" height="100%" viewBox="0 0 96 96" version="1.1" xmlns="http://www.w3.org/2000/svg" xmlns:xlink="http://www.w3.org/1999/xlink" xml:space="preserve" xmlns:serif="http://www.serif.com/" style="fill-rule:evenodd;clip-rule:evenodd;stroke-linejoin:round;stroke-miterlimit:2;">
    <g transform="matrix(1,0,0,1,-1409.63,-3173.28)">
        <g transform="matrix(1,0,0,1,-110.019,-3591.86)">
            <path d="M1615.25,6812.94C1615.25,6786.55 1593.85,6765.15 1567.45,6765.15C1541.05,6765.15 1519.65,6786.55 1519.65,6812.94C1519.65,6839.35 1541.05,6860.65 1567.45,6860.65C1593.85,6860.65 1615.25,6839.35 1615.25,6812.94ZM1597.25,6832.55C1597.25,6835.74 1597.65,6838.94 1597.65,6840.74C1597.65,6841.94 1596.75,6843.05 1595.05,6843.05C1593.05,6843.05 1590.35,6841.35 1590.35,6839.35C1590.35,6838.05 1590.55,6833.55 1590.55,6832.35L1590.55,6829.55L1576.05,6830.05C1575.65,6830.05 1574.75,6830.15 1572.95,6830.65L1573.15,6830.55L1572.95,6830.55C1570.75,6830.55 1568.55,6828.15 1568.55,6825.44C1568.55,6824.05 1569.05,6822.85 1570.55,6821.15C1570.95,6820.44 1571.35,6820.05 1571.55,6819.55C1583.15,6797.94 1587.05,6787.55 1588.05,6784.44C1588.45,6783.15 1589.45,6782.94 1589.95,6782.94C1591.95,6782.94 1594.45,6786.15 1594.45,6788.44C1594.45,6789.05 1594.35,6789.65 1594.05,6790.15C1593.25,6791.35 1592.25,6793.05 1591.65,6794.35C1587.95,6802.35 1582.25,6813.85 1577.45,6822.94L1590.55,6822.65L1590.55,6807.55C1590.55,6805.94 1590.35,6800.85 1590.35,6799.05C1590.35,6797.94 1591.25,6796.74 1592.85,6796.74C1594.85,6796.74 1597.45,6798.44 1597.45,6800.55C1597.45,6801.74 1597.25,6805.65 1597.25,6807.55L1597.25,6822.35C1598.55,6822.24 1600.45,6821.85 1601.35,6821.85C1603.75,6821.85 1604.85,6825.44 1604.85,6826.94C1604.85,6827.65 1604.65,6829.55 1602.85,6829.55C1601.85,6829.55 1599.25,6829.35 1597.25,6829.35L1597.25,6832.55ZM1555.65,6808.94C1560.55,6810.44 1564.55,6815.85 1564.55,6823.35C1564.55,6834.05 1559.15,6843.35 1546.55,6843.35C1541.15,6843.35 1536.75,6840.85 1532.95,6836.55C1532.25,6835.74 1532.15,6834.74 1532.15,6833.94C1532.15,6832.35 1533.15,6828.85 1535.35,6828.85C1535.95,6828.85 1536.45,6829.15 1536.95,6829.85C1539.75,6833.74 1542.35,6836.15 1546.55,6836.15C1554.85,6836.15 1557.95,6830.05 1557.95,6823.44C1557.95,6817.94 1554.35,6813.94 1549.05,6813.94C1548.55,6813.94 1548.05,6813.94 1547.55,6814.05C1546.45,6814.15 1545.15,6814.35 1543.95,6814.65C1543.75,6814.74 1543.65,6814.74 1543.45,6814.74C1541.25,6814.74 1540.15,6811.65 1540.15,6810.15C1540.15,6809.05 1540.75,6807.74 1542.05,6807.44C1549.05,6806.85 1555.95,6802.55 1555.95,6796.85C1555.95,6792.55 1553.65,6789.85 1549.15,6789.85C1545.45,6789.85 1542.35,6791.65 1539.15,6795.85C1538.45,6796.74 1537.95,6797.65 1536.75,6797.65C1536.05,6797.65 1533.55,6796.05 1533.55,6792.85C1533.55,6789.85 1540.15,6782.74 1549.05,6782.74C1556.75,6782.74 1562.45,6787.74 1562.45,6796.35C1562.45,6803.94 1557.65,6808.05 1555.65,6808.94Z" style="fill-rule:nonzero;"/>
        </g>
    </g>
</svg>
