<?xml version="1.0" encoding="UTF-8" standalone="no"?>
<!DOCTYPE svg PUBLIC "-//W3C//DTD SVG 1.1//EN" "http://www.w3.org/Graphics/SVG/1.1/DTD/svg11.dtd">
<svg width="100%" height="100%" viewBox="0 0 89 89" version="1.1" xmlns="http://www.w3.org/2000/svg" xmlns:xlink="http://www.w3.org/1999/xlink" xml:space="preserve" xmlns:serif="http://www.serif.com/" style="fill-rule:evenodd;clip-rule:evenodd;stroke-linejoin:round;stroke-miterlimit:2;">
    <g transform="matrix(1,0,0,1,-758.718,-721.632)">
        <g transform="matrix(1.41414,0,0,1.41429,-177.055,-770.755)">
            <path d="M724.089,1117.59L724.089,1055.22L661.726,1055.22L661.726,1117.59L724.089,1117.59ZM704.574,1066.46C704.716,1066.18 704.857,1065.97 704.998,1065.83C705.493,1064.91 706.413,1064.63 707.12,1064.63C708.817,1064.63 710.301,1065.62 710.301,1066.96C710.301,1067.6 709.806,1068.44 709.524,1068.87C706.2,1073.11 703.655,1077.99 701.675,1081.95C703.231,1081.1 705.069,1080.61 706.978,1080.61C713.908,1080.61 718.574,1086.19 718.574,1093.69C718.574,1101.89 713.908,1108.39 706.13,1108.39C699.059,1108.39 693.685,1102.53 693.685,1095.24C693.685,1090.22 694.958,1085.2 697.433,1079.83C699.837,1074.67 702.099,1070.42 704.291,1066.89L704.574,1066.46ZM670.847,1107.69C669.079,1107.69 668.019,1105.57 668.019,1104.15C668.019,1103.73 668.089,1103.16 668.443,1102.67C668.867,1102.03 669.221,1101.61 669.433,1101.11C671.483,1096.94 675.16,1090.72 679.615,1086.12C683.998,1081.74 686.332,1078.49 686.332,1075.23C686.332,1072.26 684.423,1069.79 681.029,1069.79C677.423,1069.79 674.948,1072.12 673.958,1075.16C673.675,1075.94 673.039,1077.21 671.766,1077.21C670.564,1077.21 668.938,1075.59 668.938,1073.82C668.938,1071.91 672.544,1064.7 681.17,1064.7C687.463,1064.7 691.564,1069.08 691.564,1075.23C691.564,1080.96 687.746,1085.34 682.938,1090.08C679.12,1093.83 676.291,1098.5 674.453,1102.17C676.221,1102.03 678.2,1101.96 679.685,1101.96C682.231,1101.96 683.857,1102.03 686.049,1102.03C686.897,1102.03 688.665,1101.96 689.301,1101.96C691.069,1101.96 691.918,1104.51 691.918,1105.57C691.918,1106.41 691.423,1107.4 690.291,1107.4C688.736,1107.26 684.493,1106.98 679.12,1106.98C677.352,1106.98 675.584,1106.98 673.463,1107.26C672.968,1107.26 671.554,1107.62 671.2,1107.69L670.847,1107.69ZM706.13,1103.38C710.301,1103.38 713.554,1099.56 713.554,1093.83C713.554,1089.38 711.009,1085.63 706.908,1085.63C701.817,1085.63 698.564,1090.01 698.564,1095.17C698.564,1099.84 701.675,1103.38 706.13,1103.38Z" style="fill-rule:nonzero;"/>
        </g>
    </g>
</svg>
