<?xml version="1.0" encoding="UTF-8" standalone="no"?>
<!DOCTYPE svg PUBLIC "-//W3C//DTD SVG 1.1//EN" "http://www.w3.org/Graphics/SVG/1.1/DTD/svg11.dtd">
<svg width="100%" height="100%" viewBox="0 0 96 96" version="1.1" xmlns="http://www.w3.org/2000/svg" xmlns:xlink="http://www.w3.org/1999/xlink" xml:space="preserve" xmlns:serif="http://www.serif.com/" style="fill-rule:evenodd;clip-rule:evenodd;stroke-linejoin:round;stroke-miterlimit:2;">
    <g transform="matrix(1,0,0,1,-109.628,-3173.28)">
        <g transform="matrix(1,0,0,1,-110.019,-3591.86)">
            <path d="M315.248,6812.94C315.248,6786.55 293.848,6765.15 267.448,6765.15C241.048,6765.15 219.648,6786.55 219.648,6812.94C219.648,6839.35 241.048,6860.65 267.448,6860.65C293.848,6860.65 315.248,6839.35 315.248,6812.94ZM238.848,6842.35C236.348,6842.35 234.748,6839.35 234.748,6837.44C234.748,6836.85 234.848,6836.05 235.348,6835.35C236.048,6834.44 236.448,6833.94 236.748,6833.24C239.748,6827.44 245.648,6818.74 252.148,6812.44C258.548,6806.35 261.948,6801.85 261.948,6797.35C261.948,6793.24 259.148,6789.85 254.248,6789.85C249.048,6789.85 245.348,6793.05 243.848,6797.24C243.548,6798.35 242.648,6800.15 240.748,6800.15C238.548,6800.15 236.548,6797.24 236.548,6795.44C236.548,6794.74 236.648,6793.94 237.148,6793.24C240.448,6787.15 246.148,6782.74 254.448,6782.74C263.548,6782.74 269.548,6788.85 269.548,6797.35C269.548,6805.35 264.048,6811.35 257.048,6817.94C251.448,6823.24 246.948,6829.65 244.148,6834.65C246.648,6834.55 249.548,6834.44 251.748,6834.44C255.448,6834.44 258.348,6834.55 261.548,6834.55C262.748,6834.55 265.348,6834.44 266.348,6834.44C268.848,6834.44 270.148,6837.94 270.148,6839.44C270.148,6840.55 269.448,6841.94 267.748,6841.94C265.848,6841.74 260.648,6841.35 250.948,6841.35C248.348,6841.35 245.748,6841.35 242.748,6841.74C242.148,6841.74 240.648,6842.05 239.348,6842.35L238.848,6842.35ZM294.548,6831.94C294.548,6834.15 294.648,6838.65 294.748,6840.74C294.748,6842.15 293.648,6843.05 291.948,6843.05C289.648,6843.05 286.848,6841.24 286.848,6839.44C286.848,6838.15 286.948,6834.15 286.948,6832.44L286.948,6794.35C284.148,6795.65 280.948,6796.85 279.448,6796.85C277.348,6796.85 274.848,6795.05 274.848,6793.65C274.848,6792.44 275.848,6791.74 276.548,6791.44C280.348,6789.94 283.948,6787.94 286.248,6786.24C286.448,6786.15 287.248,6785.24 287.648,6784.74C288.648,6783.85 289.748,6783.15 290.648,6783.15C292.548,6783.15 295.048,6785.15 295.048,6787.55C295.048,6788.85 294.548,6790.24 294.548,6792.44L294.548,6831.94Z" style="fill-rule:nonzero;"/>
        </g>
    </g>
</svg>
