<?xml version="1.0" encoding="UTF-8" standalone="no"?>
<!DOCTYPE svg PUBLIC "-//W3C//DTD SVG 1.1//EN" "http://www.w3.org/Graphics/SVG/1.1/DTD/svg11.dtd">
<svg width="100%" height="100%" viewBox="0 0 96 96" version="1.1" xmlns="http://www.w3.org/2000/svg" xmlns:xlink="http://www.w3.org/1999/xlink" xml:space="preserve" xmlns:serif="http://www.serif.com/" style="fill-rule:evenodd;clip-rule:evenodd;stroke-linejoin:round;stroke-miterlimit:2;">
    <g transform="matrix(1,0,0,1,-1109.63,-3473.28)">
        <g transform="matrix(1,0,0,1,-110.019,-3591.86)">
            <path d="M1315.25,7112.94C1315.25,7086.55 1293.85,7065.15 1267.45,7065.15C1241.05,7065.15 1219.65,7086.55 1219.65,7112.94C1219.65,7139.35 1241.05,7160.65 1267.45,7160.65C1293.85,7160.65 1315.25,7139.35 1315.25,7112.94ZM1242.15,7137.74C1242.15,7137.65 1242.25,7137.65 1242.25,7137.44C1247.85,7121.24 1252.05,7109.24 1259.95,7091.24L1242.15,7092.74C1241.35,7092.85 1240.45,7092.94 1239.75,7092.94C1235.25,7092.94 1234.45,7087.74 1234.45,7087.44C1234.45,7086.85 1234.85,7085.55 1236.35,7085.55C1237.25,7085.55 1237.95,7085.65 1239.25,7085.65L1240.25,7085.65L1261.35,7084.15C1261.85,7084.15 1262.25,7083.94 1262.75,7083.85C1263.45,7083.65 1264.05,7083.55 1264.65,7083.55L1264.95,7083.55C1266.75,7083.85 1269.45,7086.05 1269.45,7088.35L1269.45,7088.74C1269.25,7089.85 1268.75,7090.74 1268.45,7091.35C1265.25,7096.15 1252.95,7126.44 1249.85,7140.44C1249.35,7142.55 1247.65,7142.85 1246.25,7142.85C1245.95,7142.85 1245.55,7142.74 1245.05,7142.74C1242.85,7142.44 1241.75,7141.35 1241.75,7139.74C1241.75,7139.15 1241.85,7138.55 1242.05,7138.24L1242.15,7137.74ZM1294.05,7131.94C1294.05,7134.15 1294.15,7138.65 1294.25,7140.74C1294.25,7142.15 1293.15,7143.05 1291.45,7143.05C1289.15,7143.05 1286.35,7141.24 1286.35,7139.44C1286.35,7138.15 1286.55,7134.15 1286.55,7132.44L1286.55,7094.35C1283.45,7095.65 1280.55,7096.85 1278.95,7096.85C1276.85,7096.85 1274.35,7095.05 1274.35,7093.65C1274.35,7092.44 1275.35,7091.74 1276.05,7091.44C1279.95,7089.94 1283.45,7087.94 1285.75,7086.24C1285.95,7086.15 1286.75,7085.24 1287.15,7084.74C1288.15,7083.85 1289.25,7083.15 1290.15,7083.15C1292.05,7083.15 1294.55,7085.24 1294.55,7087.55C1294.55,7088.85 1294.05,7090.24 1294.05,7092.44L1294.05,7131.94Z" style="fill-rule:nonzero;"/>
        </g>
    </g>
</svg>
