<?xml version="1.0" encoding="UTF-8" standalone="no"?>
<!DOCTYPE svg PUBLIC "-//W3C//DTD SVG 1.1//EN" "http://www.w3.org/Graphics/SVG/1.1/DTD/svg11.dtd">
<svg width="100%" height="100%" viewBox="0 0 89 89" version="1.1" xmlns="http://www.w3.org/2000/svg" xmlns:xlink="http://www.w3.org/1999/xlink" xml:space="preserve" xmlns:serif="http://www.serif.com/" style="fill-rule:evenodd;clip-rule:evenodd;stroke-linejoin:round;stroke-miterlimit:2;">
    <g transform="matrix(1,0,0,1,-2002.46,-842.274)">
        <g transform="matrix(1.41414,0,0,1.41429,-1052.39,-837.704)">
            <path d="M2217.07,1250.23C2220.46,1250.23 2222.58,1247.68 2222.58,1244.71L2222.58,1193.38C2222.58,1189.91 2220.11,1187.86 2217.07,1187.86L2165.73,1187.86C2162.27,1187.86 2160.22,1190.2 2160.22,1193.38L2160.22,1244.71C2160.22,1247.89 2162.69,1250.23 2165.73,1250.23L2217.07,1250.23ZM2197.97,1222.23C2197.62,1222.58 2197.34,1222.65 2196.84,1222.65C2195.57,1222.65 2193.8,1221.17 2193.8,1219.12C2193.8,1218.9 2193.8,1218.55 2193.94,1218.2L2194.37,1216.29L2195.57,1202.43C2195.64,1201.72 2195.71,1200.8 2195.71,1200.1C2195.71,1198.75 2196.7,1198.4 2197.41,1198.4C2198.04,1198.4 2198.82,1198.68 2199.53,1199.04L2208.93,1198.4C2209.85,1198.33 2211.27,1198.26 2212.26,1198.05L2212.47,1198.05C2214.02,1198.05 2214.87,1200.52 2214.87,1201.51C2214.87,1202.29 2214.45,1203.28 2213.39,1203.35L2209.43,1203.56L2200.17,1204.2L2199.11,1214.8C2200.94,1213.53 2203.07,1212.82 2205.82,1212.82C2211.83,1212.82 2216.92,1217.84 2216.92,1226.19C2216.92,1233.89 2213.03,1241.04 2203.56,1241.04C2198.04,1241.04 2192.46,1236.3 2192.46,1233.54C2192.46,1232.2 2193.38,1229.65 2194.93,1229.65C2195.57,1229.65 2196.07,1230.08 2196.28,1230.57C2198.04,1233.54 2200.24,1235.8 2203.56,1235.8C2209.64,1235.8 2212.04,1231.35 2212.04,1226.26C2212.04,1220.88 2209.36,1217.91 2205.33,1217.91C2202.92,1217.91 2200.94,1219.05 2199.39,1220.74L2197.97,1222.23ZM2183.27,1216.29C2187.01,1217.28 2190.05,1221.24 2190.05,1226.61C2190.05,1234.32 2185.95,1241.04 2176.34,1241.04C2172.24,1241.04 2168.91,1239.27 2166.09,1236.16C2165.52,1235.52 2165.45,1234.81 2165.45,1234.25C2165.45,1233.12 2166.16,1230.57 2167.85,1230.57C2168.28,1230.57 2168.7,1230.78 2169.12,1231.28C2171.18,1234.11 2173.23,1235.87 2176.34,1235.87C2182.63,1235.87 2185.03,1231.42 2185.03,1226.68C2185.03,1222.72 2182.35,1219.82 2178.25,1219.82C2176.69,1219.82 2174.99,1220.18 2174.36,1220.32C2174.22,1220.39 2174.22,1220.39 2174.07,1220.39C2172.38,1220.39 2171.53,1218.2 2171.53,1217.07C2171.53,1216.29 2171.95,1215.37 2172.94,1215.16C2180.58,1214.52 2183.55,1210.14 2183.55,1207.52C2183.55,1204.41 2181.78,1202.43 2178.32,1202.43C2175.56,1202.43 2173.16,1203.7 2170.75,1206.81C2170.26,1207.45 2169.83,1208.09 2168.98,1208.09C2167.85,1208.09 2166.51,1206.53 2166.51,1204.62C2166.51,1202.22 2171.67,1197.34 2178.25,1197.34C2184.12,1197.34 2188.43,1200.87 2188.43,1207.17C2188.43,1212.61 2184.82,1215.58 2183.27,1216.29Z" style="fill-rule:nonzero;"/>
        </g>
    </g>
</svg>
