<?xml version="1.0" encoding="UTF-8" standalone="no"?>
<!DOCTYPE svg PUBLIC "-//W3C//DTD SVG 1.1//EN" "http://www.w3.org/Graphics/SVG/1.1/DTD/svg11.dtd">
<svg width="100%" height="100%" viewBox="0 0 96 96" version="1.1" xmlns="http://www.w3.org/2000/svg" xmlns:xlink="http://www.w3.org/1999/xlink" xml:space="preserve" xmlns:serif="http://www.serif.com/" style="fill-rule:evenodd;clip-rule:evenodd;stroke-linejoin:round;stroke-miterlimit:2;">
    <g transform="matrix(1,0,0,1,-509.628,-3023.28)">
        <g transform="matrix(1,0,0,1,-110.019,-3591.86)">
            <path d="M715.248,6662.94C715.248,6636.55 693.848,6615.15 667.448,6615.15C641.048,6615.15 619.648,6636.55 619.648,6662.94C619.648,6689.35 641.048,6710.65 667.448,6710.65C693.848,6710.65 715.248,6689.35 715.248,6662.94ZM642.448,6637.74C644.648,6635.05 647.548,6633.24 651.048,6633.24C660.948,6633.24 665.648,6646.55 665.648,6662.35C665.648,6678.44 660.848,6693.94 649.448,6693.94C638.448,6693.94 633.948,6680.44 633.948,6664.44C633.948,6651.15 638.048,6637.55 641.748,6637.55C641.948,6637.55 642.248,6637.65 642.448,6637.74ZM697.548,6682.94C697.548,6686.15 697.848,6689.35 697.848,6691.15C697.848,6692.35 696.948,6693.44 695.348,6693.44C693.248,6693.44 690.548,6691.74 690.548,6689.74C690.548,6688.44 690.748,6683.94 690.748,6682.74L690.748,6679.94L676.248,6680.44C675.848,6680.44 673.448,6680.94 673.148,6680.94C670.948,6680.94 668.648,6678.55 668.648,6675.85C668.648,6675.24 668.848,6674.35 669.348,6673.44L670.648,6671.55C673.548,6667.44 686.148,6641.05 688.248,6634.85C688.648,6633.55 689.648,6633.35 690.148,6633.35C692.148,6633.35 694.648,6636.55 694.648,6638.85C694.648,6639.44 694.548,6640.05 694.248,6640.55C693.448,6641.74 692.448,6643.44 691.848,6644.74C688.148,6652.74 682.448,6664.24 677.548,6673.35L690.748,6673.05L690.748,6657.94C690.748,6656.35 690.548,6651.35 690.548,6649.44C690.548,6648.35 691.448,6647.15 693.148,6647.15C695.048,6647.15 697.748,6648.85 697.748,6650.94C697.748,6652.15 697.548,6656.05 697.548,6657.94L697.548,6672.74C698.848,6672.65 700.748,6672.24 701.548,6672.24C703.948,6672.24 705.148,6675.85 705.148,6677.35C705.148,6678.05 704.848,6679.94 703.048,6679.94C702.148,6679.94 699.448,6679.74 697.548,6679.74L697.548,6682.94ZM649.148,6686.74C655.648,6686.74 658.948,6675.74 658.948,6661.74C658.948,6651.65 657.248,6640.24 650.748,6640.24C647.048,6640.24 640.548,6647.35 640.548,6664.35C640.548,6677.74 643.248,6686.74 649.148,6686.74Z" style="fill-rule:nonzero;"/>
        </g>
    </g>
</svg>
