<?xml version="1.0" encoding="UTF-8" standalone="no"?>
<!DOCTYPE svg PUBLIC "-//W3C//DTD SVG 1.1//EN" "http://www.w3.org/Graphics/SVG/1.1/DTD/svg11.dtd">
<svg width="100%" height="100%" viewBox="0 0 89 89" version="1.1" xmlns="http://www.w3.org/2000/svg" xmlns:xlink="http://www.w3.org/1999/xlink" xml:space="preserve" xmlns:serif="http://www.serif.com/" style="fill-rule:evenodd;clip-rule:evenodd;stroke-linejoin:round;stroke-miterlimit:2;">
    <g transform="matrix(1,0,0,1,-158.78,-1621.63)">
        <g transform="matrix(1.41414,0,0,1.41429,-177.055,-770.755)">
            <path d="M299.847,1753.95L299.847,1691.59L237.483,1691.59L237.483,1753.95L299.847,1753.95ZM276.443,1704.17C278.069,1702.26 280.19,1700.99 282.736,1700.99C290.019,1700.99 293.413,1710.61 293.413,1721.99C293.413,1733.59 289.877,1744.76 281.534,1744.76C273.544,1744.76 270.221,1735.07 270.221,1723.48C270.221,1714.57 273.049,1704.1 275.877,1704.1C276.089,1704.1 276.231,1704.1 276.443,1704.17ZM264.847,1707.42C265.908,1707.42 266.685,1708.34 266.685,1709.55C266.685,1712.3 259.332,1718.81 258.271,1719.59C263.928,1722.56 266.897,1726.38 266.897,1732.17C266.897,1739.88 261.524,1744.76 253.817,1744.76C246.675,1744.76 242.291,1739.67 242.291,1732.95C242.291,1727.79 244.908,1723.9 249.009,1720.51C245.19,1718.1 243.847,1715.49 243.847,1711.67C243.847,1706.01 248.019,1701.13 254.665,1701.13C259.12,1701.13 262.231,1703.96 264.352,1707.21C264.423,1707.28 264.423,1707.35 264.423,1707.42L264.847,1707.42ZM281.322,1739.6C286.13,1739.6 288.604,1731.61 288.604,1721.57C288.604,1713.22 286.625,1706.01 282.524,1706.01C279.766,1706.01 275.029,1711.17 275.029,1723.4C275.029,1733.09 277.009,1739.6 281.322,1739.6ZM253.817,1722.98C249.362,1726.44 247.17,1729.41 247.17,1732.81C247.17,1736.2 249.079,1739.6 253.817,1739.6C258.766,1739.6 262.019,1736.56 262.019,1732.45C262.019,1728.92 260.534,1726.16 254.594,1723.33L253.817,1722.98ZM260.251,1710.18C258.837,1707.57 257.281,1706.15 254.736,1706.15C250.635,1706.15 248.796,1708.98 248.796,1711.67C248.796,1713.86 249.503,1715.13 253.534,1717.18C256.221,1715.27 258.554,1713.01 260.675,1710.82L260.251,1710.18Z" style="fill-rule:nonzero;"/>
        </g>
    </g>
</svg>
