<?xml version="1.0" encoding="UTF-8" standalone="no"?>
<!DOCTYPE svg PUBLIC "-//W3C//DTD SVG 1.1//EN" "http://www.w3.org/Graphics/SVG/1.1/DTD/svg11.dtd">
<svg width="100%" height="100%" viewBox="0 0 89 89" version="1.1" xmlns="http://www.w3.org/2000/svg" xmlns:xlink="http://www.w3.org/1999/xlink" xml:space="preserve" xmlns:serif="http://www.serif.com/" style="fill-rule:evenodd;clip-rule:evenodd;stroke-linejoin:round;stroke-miterlimit:2;">
    <g transform="matrix(1,0,0,1,-2302.43,-842.274)">
        <g transform="matrix(1.41414,0,0,1.41429,-1052.39,-837.704)">
            <path d="M2429.19,1250.23C2432.58,1250.23 2434.7,1247.68 2434.7,1244.71L2434.7,1193.38C2434.7,1189.91 2432.23,1187.86 2429.19,1187.86L2377.85,1187.86C2374.39,1187.86 2372.34,1190.2 2372.34,1193.38L2372.34,1244.71C2372.34,1247.89 2374.81,1250.23 2377.85,1250.23L2429.19,1250.23ZM2426,1203.7C2426.99,1203.7 2427.7,1204.62 2427.7,1205.82C2427.7,1208.93 2419.85,1215.79 2419.78,1215.86C2425.16,1218.83 2427.98,1222.65 2427.98,1228.45C2427.98,1236.16 2422.82,1241.04 2415.54,1241.04C2408.75,1241.04 2404.58,1235.94 2404.58,1229.23C2404.58,1224.07 2407.05,1220.18 2411.01,1216.78C2407.34,1214.38 2406.07,1211.76 2406.07,1207.94C2406.07,1202.29 2410.02,1197.41 2416.39,1197.41C2420.56,1197.41 2423.53,1200.24 2425.58,1203.49C2425.58,1203.56 2425.58,1203.63 2425.65,1203.7L2426,1203.7ZM2394.75,1216.29C2398.29,1217.28 2401.12,1221.24 2401.12,1226.61C2401.12,1234.32 2397.3,1241.04 2388.11,1241.04C2384.22,1241.04 2381.11,1239.27 2378.35,1236.16C2377.85,1235.52 2377.78,1234.81 2377.78,1234.25C2377.78,1233.12 2378.49,1230.57 2380.12,1230.57C2380.47,1230.57 2380.82,1230.78 2381.25,1231.28C2383.23,1234.11 2385.14,1235.87 2388.11,1235.87C2394.12,1235.87 2396.38,1231.42 2396.38,1226.68C2396.38,1222.72 2393.83,1219.82 2389.94,1219.82C2389.59,1219.82 2389.24,1219.82 2388.88,1219.89C2388.11,1219.96 2387.12,1220.11 2386.27,1220.32C2386.12,1220.39 2386.05,1220.39 2385.98,1220.39C2384.36,1220.39 2383.51,1218.2 2383.51,1217.07C2383.51,1216.29 2383.93,1215.37 2384.85,1215.16C2388.74,1214.8 2394.96,1212.47 2394.96,1207.52C2394.96,1204.41 2393.27,1202.43 2390.01,1202.43C2387.33,1202.43 2385.14,1203.7 2382.8,1206.81C2382.31,1207.45 2381.95,1208.09 2381.11,1208.09C2379.62,1208.09 2378.77,1205.82 2378.77,1204.62C2378.77,1202.15 2383.72,1197.34 2389.94,1197.34C2395.53,1197.34 2399.63,1200.87 2399.63,1207.17C2399.63,1212.61 2396.17,1215.58 2394.75,1216.29ZM2415.54,1219.26C2411.3,1222.72 2409.25,1225.69 2409.25,1229.09C2409.25,1232.48 2411.09,1235.87 2415.54,1235.87C2420.28,1235.87 2423.32,1232.83 2423.32,1228.73C2423.32,1225.2 2421.9,1222.44 2416.25,1219.61L2415.54,1219.26ZM2421.62,1206.46C2420.28,1203.84 2418.86,1202.43 2416.46,1202.43C2412.5,1202.43 2410.73,1205.26 2410.73,1207.94C2410.73,1210.14 2411.44,1211.41 2415.26,1213.46C2417.8,1211.55 2420.07,1209.29 2422.04,1207.1L2421.62,1206.46Z" style="fill-rule:nonzero;"/>
        </g>
    </g>
</svg>
