<?xml version="1.0" encoding="UTF-8" standalone="no"?>
<!DOCTYPE svg PUBLIC "-//W3C//DTD SVG 1.1//EN" "http://www.w3.org/Graphics/SVG/1.1/DTD/svg11.dtd">
<svg width="100%" height="100%" viewBox="0 0 89 89" version="1.1" xmlns="http://www.w3.org/2000/svg" xmlns:xlink="http://www.w3.org/1999/xlink" xml:space="preserve" xmlns:serif="http://www.serif.com/" style="fill-rule:evenodd;clip-rule:evenodd;stroke-linejoin:round;stroke-miterlimit:2;">
    <g transform="matrix(1,0,0,1,-358.759,-1471.63)">
        <g transform="matrix(1.41414,0,0,1.41429,-177.055,-770.755)">
            <path d="M441.261,1647.89L441.261,1585.53L378.897,1585.53L378.897,1647.89L441.261,1647.89ZM414.322,1637.99C412.554,1637.99 411.493,1635.87 411.493,1634.45C411.493,1634.03 411.564,1633.47 411.847,1632.97C412.342,1632.33 412.625,1631.91 412.837,1631.41C414.887,1627.24 418.564,1621.02 423.089,1616.42C427.402,1612.04 429.736,1608.79 429.736,1605.54C429.736,1602.57 427.827,1600.09 424.503,1600.09C420.897,1600.09 418.423,1602.42 417.362,1605.47C417.15,1606.24 416.514,1607.52 415.241,1607.52C414.251,1607.52 412.342,1606.03 412.342,1604.12C412.342,1603.7 412.413,1603.06 412.766,1602.57C415.029,1598.11 418.918,1595 424.645,1595C430.867,1595 434.968,1599.38 434.968,1605.54C434.968,1611.26 431.221,1615.65 426.413,1620.38C422.594,1624.13 419.766,1628.8 417.928,1632.48C419.625,1632.33 421.604,1632.26 423.089,1632.26C425.635,1632.26 427.332,1632.33 429.453,1632.33C430.372,1632.33 432.069,1632.26 432.776,1632.26C434.544,1632.26 435.392,1634.81 435.392,1635.87C435.392,1636.72 434.897,1637.71 433.695,1637.71C430.796,1637.42 426.554,1637.28 422.524,1637.28C420.756,1637.28 419.059,1637.28 416.938,1637.57C416.372,1637.57 414.817,1637.92 414.604,1637.99L414.322,1637.99ZM390.069,1634.67C390.069,1634.6 390.069,1634.6 390.14,1634.45C390.705,1632.76 391.13,1631.2 391.483,1630.21C394.382,1621.16 398.2,1610.84 402.231,1601.08L389.998,1602.21C389.433,1602.28 388.867,1602.35 388.372,1602.35C385.544,1602.35 384.766,1598.89 384.766,1598.39C384.766,1597.97 384.978,1596.98 386.039,1596.98C386.675,1596.98 387.17,1597.05 388.089,1597.05L388.726,1597.05L403.15,1595.99C403.503,1595.99 403.857,1595.85 404.14,1595.78C404.635,1595.64 405.059,1595.57 405.483,1595.57L405.695,1595.57C406.897,1595.78 408.736,1597.4 408.736,1599.03L408.736,1599.31C408.665,1600.09 408.312,1600.73 408.029,1601.22C403.857,1609.57 397.14,1628.02 395.301,1636.65C395.019,1638.13 393.817,1638.34 392.827,1638.34C392.615,1638.34 392.332,1638.27 392.049,1638.27C390.564,1638.06 389.716,1637.28 389.716,1636.08C389.716,1635.66 389.857,1635.23 389.928,1635.02L390.069,1634.67Z" style="fill-rule:nonzero;"/>
        </g>
    </g>
</svg>
