<?xml version="1.0" encoding="UTF-8" standalone="no"?>
<!DOCTYPE svg PUBLIC "-//W3C//DTD SVG 1.1//EN" "http://www.w3.org/Graphics/SVG/1.1/DTD/svg11.dtd">
<svg width="100%" height="100%" viewBox="0 0 89 89" version="1.1" xmlns="http://www.w3.org/2000/svg" xmlns:xlink="http://www.w3.org/1999/xlink" xml:space="preserve" xmlns:serif="http://www.serif.com/" style="fill-rule:evenodd;clip-rule:evenodd;stroke-linejoin:round;stroke-miterlimit:2;">
    <g transform="matrix(1,0,0,1,-158.78,-1771.63)">
        <g transform="matrix(1.41414,0,0,1.41429,-177.055,-770.755)">
            <path d="M299.847,1860.01L299.847,1797.65L237.483,1797.65L237.483,1860.01L299.847,1860.01ZM276.584,1810.23C278.14,1808.32 280.19,1807.05 282.594,1807.05C289.524,1807.05 292.776,1816.67 292.776,1828.05C292.776,1839.65 289.382,1850.82 281.463,1850.82C273.897,1850.82 270.645,1841.13 270.645,1829.54C270.645,1822.04 273.12,1810.16 276.089,1810.16C276.231,1810.16 276.443,1810.16 276.584,1810.23ZM259.473,1831.02C257.281,1833.35 254.382,1834.84 251.625,1834.84C246.463,1834.84 242.928,1830.53 242.928,1823.53C242.928,1815.39 248.372,1807.12 255.796,1807.12C259.332,1807.12 261.594,1808.82 263.009,1810.44C263.15,1809.74 263.503,1808.75 264.635,1808.75C266.12,1808.75 267.604,1810.09 267.604,1811.72L267.604,1812.07C267.392,1812.99 267.039,1813.98 266.968,1814.26C264.776,1825.15 261.806,1843.39 261.594,1848.34C261.453,1850.11 259.685,1850.54 258.554,1850.54C257.352,1850.54 256.574,1849.9 256.574,1848.56C256.574,1847.78 257.281,1844.1 257.635,1842.55L259.473,1831.02ZM281.251,1845.66C285.847,1845.66 288.18,1837.67 288.18,1827.63C288.18,1819.28 286.271,1812.07 282.382,1812.07C279.766,1812.07 275.241,1817.23 275.241,1829.47C275.241,1839.15 277.15,1845.66 281.251,1845.66ZM261.877,1817.16C261.382,1816.95 261.029,1816.38 260.817,1815.96C260.251,1814.48 258.978,1812.21 256.009,1812.21C250.776,1812.21 247.594,1818.43 247.594,1823.31C247.594,1827.91 249.079,1829.61 251.554,1829.61C258.483,1829.61 261.312,1819.5 261.665,1818.15L261.877,1817.16Z" style="fill-rule:nonzero;"/>
        </g>
    </g>
</svg>
