<?xml version="1.0" encoding="UTF-8" standalone="no"?>
<!DOCTYPE svg PUBLIC "-//W3C//DTD SVG 1.1//EN" "http://www.w3.org/Graphics/SVG/1.1/DTD/svg11.dtd">
<svg width="100%" height="100%" viewBox="0 0 96 96" version="1.1" xmlns="http://www.w3.org/2000/svg" xmlns:xlink="http://www.w3.org/1999/xlink" xml:space="preserve" xmlns:serif="http://www.serif.com/" style="fill-rule:evenodd;clip-rule:evenodd;stroke-linejoin:round;stroke-miterlimit:2;">
    <g transform="matrix(1,0,0,1,-1509.63,-3323.28)">
        <g transform="matrix(1,0,0,1,-110.019,-3591.86)">
            <path d="M1715.25,6962.94C1715.25,6936.55 1693.85,6915.15 1667.45,6915.15C1641.05,6915.15 1619.65,6936.55 1619.65,6962.94C1619.65,6989.35 1641.05,7010.65 1667.45,7010.65C1693.85,7010.65 1715.25,6989.35 1715.25,6962.94ZM1677.05,6967.24C1676.55,6967.74 1676.15,6967.85 1675.55,6967.85C1673.75,6967.85 1671.35,6965.85 1671.35,6962.94C1671.35,6962.65 1671.35,6962.15 1671.45,6961.65C1671.75,6960.65 1671.85,6959.74 1672.05,6959.05L1673.75,6939.85C1673.85,6938.85 1673.95,6937.55 1673.95,6936.65C1673.95,6934.74 1675.35,6934.24 1676.25,6934.24C1677.15,6934.24 1678.25,6934.65 1679.25,6935.15L1692.35,6934.24C1693.55,6934.15 1695.55,6934.05 1696.85,6933.74L1697.15,6933.74C1699.35,6933.74 1700.55,6937.15 1700.55,6938.55C1700.55,6939.65 1699.95,6941.05 1698.45,6941.15C1697.15,6941.15 1695.05,6941.24 1692.95,6941.35L1680.05,6942.35L1678.65,6956.94C1681.25,6955.24 1684.15,6954.24 1687.95,6954.24C1696.35,6954.24 1703.35,6961.24 1703.35,6972.74C1703.35,6983.44 1697.95,6993.35 1684.85,6993.35C1678.45,6993.35 1673.85,6989.85 1670.35,6985.65C1669.75,6984.85 1669.45,6983.94 1669.45,6982.94C1669.45,6981.15 1670.65,6977.55 1672.85,6977.55C1673.75,6977.55 1674.35,6978.15 1674.75,6978.85C1677.25,6982.94 1680.25,6986.05 1684.85,6986.05C1693.25,6986.05 1696.55,6979.94 1696.55,6972.85C1696.55,6965.44 1692.85,6961.24 1687.25,6961.24C1683.95,6961.24 1681.15,6962.85 1679.05,6965.15L1677.05,6967.24ZM1640.25,6967.24C1639.85,6967.74 1639.45,6967.85 1638.75,6967.85C1636.95,6967.85 1634.55,6965.85 1634.55,6962.94C1634.55,6962.65 1634.55,6962.15 1634.65,6961.65C1634.95,6960.65 1635.05,6959.74 1635.25,6959.05L1637.05,6939.85C1637.05,6938.85 1637.15,6937.55 1637.15,6936.65C1637.15,6934.74 1638.55,6934.24 1639.45,6934.24C1640.35,6934.24 1641.55,6934.65 1642.45,6935.15L1655.55,6934.24C1656.75,6934.15 1658.75,6934.05 1660.05,6933.74L1660.35,6933.74C1662.55,6933.74 1663.75,6937.15 1663.75,6938.55C1663.75,6939.65 1663.15,6941.05 1661.65,6941.15C1660.35,6941.15 1658.25,6941.24 1656.25,6941.35L1643.35,6942.35L1641.85,6956.94C1644.45,6955.24 1647.35,6954.24 1651.15,6954.24C1659.55,6954.24 1666.55,6961.24 1666.55,6972.74C1666.55,6983.44 1661.15,6993.35 1648.05,6993.35C1641.75,6993.35 1637.05,6989.85 1633.55,6985.65C1632.95,6984.85 1632.65,6983.94 1632.65,6982.94C1632.65,6981.15 1633.85,6977.55 1636.15,6977.55C1636.95,6977.55 1637.65,6978.15 1637.95,6978.85C1640.45,6982.94 1643.45,6986.05 1648.05,6986.05C1656.45,6986.05 1659.75,6979.94 1659.75,6972.85C1659.75,6965.44 1656.05,6961.24 1650.45,6961.24C1647.15,6961.24 1644.45,6962.85 1642.25,6965.15L1640.25,6967.24Z" style="fill-rule:nonzero;"/>
        </g>
    </g>
</svg>
