<?xml version="1.0" encoding="UTF-8" standalone="no"?>
<!DOCTYPE svg PUBLIC "-//W3C//DTD SVG 1.1//EN" "http://www.w3.org/Graphics/SVG/1.1/DTD/svg11.dtd">
<svg width="100%" height="100%" viewBox="0 0 96 96" version="1.1" xmlns="http://www.w3.org/2000/svg" xmlns:xlink="http://www.w3.org/1999/xlink" xml:space="preserve" xmlns:serif="http://www.serif.com/" style="fill-rule:evenodd;clip-rule:evenodd;stroke-linejoin:round;stroke-miterlimit:2;">
    <g transform="matrix(1,0,0,1,-609.628,-3023.28)">
        <g transform="matrix(1,0,0,1,-110.019,-3591.86)">
            <path d="M815.248,6662.94C815.248,6636.55 793.848,6615.15 767.448,6615.15C741.048,6615.15 719.648,6636.55 719.648,6662.94C719.648,6689.35 741.048,6710.65 767.448,6710.65C793.848,6710.65 815.248,6689.35 815.248,6662.94ZM742.948,6637.74C745.148,6635.05 748.048,6633.24 751.448,6633.24C761.348,6633.24 766.048,6646.55 766.048,6662.35C766.048,6678.44 761.248,6693.94 749.848,6693.94C738.948,6693.94 734.448,6680.44 734.448,6664.44C734.448,6650.65 738.748,6637.55 742.148,6637.55C742.448,6637.55 742.648,6637.65 742.948,6637.74ZM777.648,6667.65C777.248,6668.15 776.848,6668.24 776.248,6668.24C774.448,6668.24 772.148,6666.24 772.148,6663.35C772.148,6663.05 772.148,6662.55 772.348,6662.05L772.848,6659.44L774.548,6640.24C774.648,6639.24 774.748,6637.94 774.748,6636.94C774.748,6635.15 775.948,6634.65 776.848,6634.65C777.748,6634.65 778.848,6635.05 779.748,6635.55L792.148,6634.65C793.348,6634.55 795.148,6634.44 796.448,6634.15C798.548,6634.15 799.948,6636.74 799.948,6638.94C799.948,6640.05 799.348,6641.44 797.948,6641.44L792.748,6641.74L780.548,6642.65L779.148,6657.35C781.648,6655.65 784.448,6654.65 788.048,6654.65C795.948,6654.65 802.648,6661.55 802.648,6673.15C802.648,6683.85 797.548,6693.74 785.048,6693.74C779.048,6693.74 774.648,6690.24 771.248,6686.05C770.748,6685.24 770.448,6684.35 770.448,6683.35C770.448,6681.55 771.548,6677.94 773.648,6677.94C774.548,6677.94 775.148,6678.55 775.448,6679.24C777.748,6683.35 780.648,6686.44 785.048,6686.44C793.048,6686.44 796.148,6680.35 796.148,6673.24C796.148,6665.85 792.648,6661.65 787.348,6661.65C784.248,6661.65 781.548,6663.24 779.548,6665.55L777.648,6667.65ZM749.648,6686.74C756.148,6686.74 759.348,6675.74 759.348,6661.74C759.348,6651.65 757.748,6640.24 751.148,6640.24C747.548,6640.24 741.048,6647.35 741.048,6664.35C741.048,6677.74 743.748,6686.74 749.648,6686.74Z" style="fill-rule:nonzero;"/>
        </g>
    </g>
</svg>
