<?xml version="1.0" encoding="UTF-8" standalone="no"?>
<!DOCTYPE svg PUBLIC "-//W3C//DTD SVG 1.1//EN" "http://www.w3.org/Graphics/SVG/1.1/DTD/svg11.dtd">
<svg width="100%" height="100%" viewBox="0 0 89 89" version="1.1" xmlns="http://www.w3.org/2000/svg" xmlns:xlink="http://www.w3.org/1999/xlink" xml:space="preserve" xmlns:serif="http://www.serif.com/" style="fill-rule:evenodd;clip-rule:evenodd;stroke-linejoin:round;stroke-miterlimit:2;">
    <g transform="matrix(1,0,0,1,-558.739,-721.632)">
        <g transform="matrix(1.41414,0,0,1.41429,-177.055,-770.755)">
            <path d="M582.675,1117.59L582.675,1055.22L520.312,1055.22L520.312,1117.59L582.675,1117.59ZM571.503,1100.62C571.503,1102.95 571.786,1105.21 571.786,1106.56C571.786,1107.33 571.079,1108.18 569.948,1108.18C568.463,1108.18 566.483,1106.91 566.483,1105.5C566.483,1104.58 566.625,1101.32 566.625,1100.48L566.625,1098.42L556.514,1098.78C556.231,1098.78 555.594,1098.92 554.392,1099.2L554.251,1099.2C552.695,1099.2 551.069,1097.43 551.069,1095.53C551.069,1094.54 551.352,1094.11 552.483,1092.34C552.766,1091.99 553.049,1091.57 553.19,1091.21C557.009,1084.21 564.009,1070.28 565.352,1065.83C565.705,1065.12 566.13,1064.84 566.766,1064.84C568.18,1064.84 570.019,1067.1 570.019,1068.8C570.019,1069.22 569.877,1069.58 569.736,1069.93C568.392,1072.12 567.19,1074.67 566.766,1075.59C567.049,1075.09 567.615,1074.81 568.322,1074.81C569.736,1074.81 571.645,1076.01 571.645,1077.5C571.645,1078.41 571.503,1081.17 571.503,1082.59L571.503,1093.26L571.716,1093.26C572.635,1093.19 574.756,1092.91 575.392,1092.91C577.16,1092.91 578.009,1095.38 578.009,1096.52C578.009,1097.15 577.726,1098.35 576.524,1098.35C575.958,1098.35 574.049,1098.21 572.564,1098.21L571.503,1098.21L571.503,1100.62ZM529.574,1107.69C527.877,1107.69 526.746,1105.57 526.746,1104.15C526.746,1103.73 526.817,1103.16 527.17,1102.67C527.665,1102.03 527.948,1101.61 528.16,1101.11C530.211,1096.94 533.887,1090.72 538.342,1086.12C542.726,1081.74 545.059,1078.49 545.059,1075.23C545.059,1072.26 543.15,1069.79 539.827,1069.79C536.221,1069.79 533.746,1072.12 532.685,1075.16C532.402,1075.94 531.837,1077.21 530.564,1077.21C529.574,1077.21 527.665,1075.73 527.665,1073.82C527.665,1073.39 527.736,1072.76 528.089,1072.26C530.281,1067.81 534.241,1064.7 539.968,1064.7C546.19,1064.7 550.291,1069.08 550.291,1075.23C550.291,1080.96 546.473,1085.34 541.736,1090.08C537.918,1093.83 535.089,1098.5 533.18,1102.17C534.948,1102.03 536.928,1101.96 538.413,1101.96C540.958,1101.96 542.655,1102.03 544.776,1102.03C545.625,1102.03 547.746,1101.96 548.382,1101.96C550.15,1101.96 550.786,1104.43 550.786,1105.35C550.786,1106.06 550.433,1107.4 549.019,1107.4C547.534,1107.26 543.998,1106.98 537.847,1106.98C536.079,1106.98 534.312,1106.98 532.261,1107.26C531.908,1107.26 531.059,1107.4 529.928,1107.69L529.574,1107.69ZM566.625,1093.48L566.625,1082.59C566.625,1081.45 566.483,1077.78 566.483,1076.43L566.554,1076.01C563.938,1081.45 560.402,1088.31 557.503,1093.69L566.625,1093.48Z" style="fill-rule:nonzero;"/>
        </g>
    </g>
</svg>
