<?xml version="1.0" encoding="UTF-8" standalone="no"?>
<!DOCTYPE svg PUBLIC "-//W3C//DTD SVG 1.1//EN" "http://www.w3.org/Graphics/SVG/1.1/DTD/svg11.dtd">
<svg width="100%" height="100%" viewBox="0 0 89 89" version="1.1" xmlns="http://www.w3.org/2000/svg" xmlns:xlink="http://www.w3.org/1999/xlink" xml:space="preserve" xmlns:serif="http://www.serif.com/" style="fill-rule:evenodd;clip-rule:evenodd;stroke-linejoin:round;stroke-miterlimit:2;">
    <g transform="matrix(1,0,0,1,-1502.52,-392.274)">
        <g transform="matrix(1.41414,0,0,1.41429,-1052.39,-837.704)">
            <path d="M1863.53,932.045C1866.92,932.045 1869.04,929.5 1869.04,926.53L1869.04,875.197C1869.04,871.732 1866.57,869.681 1863.53,869.681L1812.2,869.681C1808.73,869.681 1806.68,872.015 1806.68,875.197L1806.68,926.53C1806.68,929.712 1809.15,932.045 1812.2,932.045L1863.53,932.045ZM1846.13,882.692C1847.83,880.782 1850.1,879.51 1852.78,879.51C1860.49,879.51 1864.1,889.126 1864.1,900.51C1864.1,912.106 1860.35,923.277 1851.51,923.277C1843.1,923.277 1839.56,913.591 1839.56,901.995C1839.56,892.308 1842.81,882.621 1845.5,882.621C1845.78,882.621 1845.92,882.621 1846.13,882.692ZM1818.42,882.692C1820.12,880.782 1822.31,879.51 1824.92,879.51C1832.49,879.51 1836.02,889.126 1836.02,900.51C1836.02,912.106 1832.35,923.277 1823.72,923.277C1815.38,923.277 1811.91,913.52 1811.91,901.995C1811.91,893.156 1814.95,882.621 1817.85,882.621C1818.07,882.621 1818.21,882.621 1818.42,882.692ZM1851.3,918.116C1856.39,918.116 1858.93,910.126 1858.93,900.085C1858.93,891.742 1856.88,884.53 1852.57,884.53C1849.67,884.53 1844.65,889.692 1844.65,901.924C1844.65,911.611 1846.77,918.116 1851.3,918.116ZM1823.51,918.116C1828.46,918.116 1830.93,910.126 1830.93,900.085C1830.93,892.803 1829.66,884.53 1824.71,884.53C1821.88,884.53 1817,889.621 1817,901.924C1817,911.611 1818.98,918.116 1823.51,918.116Z" style="fill-rule:nonzero;"/>
        </g>
    </g>
</svg>
