<?xml version="1.0" encoding="UTF-8" standalone="no"?>
<!DOCTYPE svg PUBLIC "-//W3C//DTD SVG 1.1//EN" "http://www.w3.org/Graphics/SVG/1.1/DTD/svg11.dtd">
<svg width="100%" height="100%" viewBox="0 0 89 89" version="1.1" xmlns="http://www.w3.org/2000/svg" xmlns:xlink="http://www.w3.org/1999/xlink" xml:space="preserve" xmlns:serif="http://www.serif.com/" style="fill-rule:evenodd;clip-rule:evenodd;stroke-linejoin:round;stroke-miterlimit:2;">
    <g transform="matrix(1,0,0,1,-158.78,-271.632)">
        <g transform="matrix(1.41414,0,0,1.41429,-177.055,-770.755)">
            <path d="M299.847,799.405L299.847,737.041L237.483,737.041L237.483,799.405L299.847,799.405ZM261.877,749.698C263.786,747.789 266.19,746.445 269.726,746.445C279.978,746.445 284.574,755.496 284.574,767.94C284.574,780.314 279.766,790.213 268.877,790.213C257.069,790.213 253.251,780.526 253.251,768.93C253.251,758.607 258.13,749.486 260.887,749.486C261.241,749.486 261.594,749.556 261.877,749.698ZM268.736,785.051C275.382,785.051 278.988,778.688 278.988,767.587C278.988,758.253 276.089,751.607 269.514,751.607C265.554,751.607 258.837,756.698 258.837,768.789C258.837,778.9 261.312,785.051 268.736,785.051Z" style="fill-rule:nonzero;"/>
        </g>
    </g>
</svg>
