<?xml version="1.0" encoding="UTF-8" standalone="no"?>
<!DOCTYPE svg PUBLIC "-//W3C//DTD SVG 1.1//EN" "http://www.w3.org/Graphics/SVG/1.1/DTD/svg11.dtd">
<svg width="100%" height="100%" viewBox="0 0 89 89" version="1.1" xmlns="http://www.w3.org/2000/svg" xmlns:xlink="http://www.w3.org/1999/xlink" xml:space="preserve" xmlns:serif="http://www.serif.com/" style="fill-rule:evenodd;clip-rule:evenodd;stroke-linejoin:round;stroke-miterlimit:2;">
    <g transform="matrix(1,0,0,1,-2502.41,-1892.27)">
        <g transform="matrix(1.41414,0,0,1.41429,-1052.39,-837.704)">
            <path d="M2570.6,1992.65C2573.99,1992.65 2576.12,1990.11 2576.12,1987.14L2576.12,1935.8C2576.12,1932.34 2573.64,1930.29 2570.6,1930.29L2519.27,1930.29C2515.8,1930.29 2513.75,1932.62 2513.75,1935.8L2513.75,1987.14C2513.75,1990.32 2516.23,1992.65 2519.27,1992.65L2570.6,1992.65ZM2539.42,1975.75C2539.42,1976.46 2539.56,1980.7 2539.56,1982.12C2539.56,1983.46 2538.22,1983.74 2537.58,1983.74C2536.52,1983.74 2533.9,1983.04 2533.9,1980.98C2533.9,1980.07 2534.04,1976.6 2534.04,1975.75L2534.04,1946.62C2534.04,1945.49 2533.83,1941.6 2533.83,1940.19C2533.83,1938.84 2535.18,1938.56 2535.81,1938.56C2536.87,1938.56 2539.49,1939.27 2539.49,1941.32C2539.49,1942.24 2539.42,1945.21 2539.42,1946.62L2539.42,1961.96L2549.53,1954.89C2550.52,1954.19 2551.58,1953.13 2552,1952.7C2552.5,1952.14 2553.28,1952 2553.84,1952C2555.68,1952 2557.94,1953.62 2557.94,1954.54C2557.94,1955.18 2557.59,1955.6 2557.24,1955.81C2555.54,1957.02 2553.91,1958.01 2552.92,1958.71L2544.65,1964.58C2548.12,1968.12 2553.42,1973.77 2557.02,1977.31C2557.8,1978.16 2559,1978.93 2560.21,1979.5C2560.56,1979.71 2561.12,1980.14 2561.12,1980.91C2561.12,1982.47 2558.65,1983.88 2557.38,1983.88C2556.88,1983.88 2556.46,1983.81 2556.18,1983.53C2555.19,1982.75 2553.84,1981.69 2552.92,1980.7C2549.88,1977.52 2543.94,1971.09 2540.34,1967.55L2539.42,1968.19L2539.42,1975.75Z" style="fill-rule:nonzero;"/>
        </g>
    </g>
</svg>
