<?xml version="1.0" encoding="UTF-8" standalone="no"?>
<!DOCTYPE svg PUBLIC "-//W3C//DTD SVG 1.1//EN" "http://www.w3.org/Graphics/SVG/1.1/DTD/svg11.dtd">
<svg width="100%" height="100%" viewBox="0 0 89 89" version="1.1" xmlns="http://www.w3.org/2000/svg" xmlns:xlink="http://www.w3.org/1999/xlink" xml:space="preserve" xmlns:serif="http://www.serif.com/" style="fill-rule:evenodd;clip-rule:evenodd;stroke-linejoin:round;stroke-miterlimit:2;">
    <g transform="matrix(1,0,0,1,-2302.43,-692.274)">
        <g transform="matrix(1.41414,0,0,1.41429,-1052.39,-837.704)">
            <path d="M2380.4,1134.27C2378.7,1134.27 2377.64,1132.15 2377.64,1130.73C2377.64,1130.31 2377.64,1129.74 2377.99,1129.25C2378.49,1128.61 2378.77,1128.19 2378.98,1127.69C2381.03,1123.52 2384.71,1117.3 2389.17,1112.7C2393.55,1108.32 2395.88,1105.07 2395.88,1101.81C2395.88,1098.84 2393.97,1096.37 2390.65,1096.37C2387.04,1096.37 2384.57,1098.7 2383.51,1101.74C2383.3,1102.52 2382.66,1103.79 2381.39,1103.79C2380.4,1103.79 2378.49,1102.31 2378.49,1100.4C2378.49,1099.97 2378.56,1099.34 2378.91,1098.84C2381.11,1094.39 2385.07,1091.28 2390.79,1091.28C2397.01,1091.28 2401.12,1095.66 2401.12,1101.81C2401.12,1107.54 2397.37,1111.92 2392.56,1116.66C2388.74,1120.41 2385.91,1125.08 2384.08,1128.75C2385.77,1128.61 2387.75,1128.54 2389.24,1128.54C2391.78,1128.54 2393.48,1128.61 2395.6,1128.61C2396.45,1128.61 2398.22,1128.54 2398.92,1128.54C2400.62,1128.54 2401.54,1131.09 2401.54,1132.15C2401.54,1133 2401.04,1133.98 2399.84,1133.98C2398.36,1133.84 2394.82,1133.56 2388.67,1133.56C2386.9,1133.56 2385.14,1133.56 2383.09,1133.84C2382.73,1133.84 2381.88,1133.98 2380.75,1134.27L2380.4,1134.27ZM2426.92,1097.64C2428.05,1097.64 2428.83,1098.56 2428.83,1099.76C2428.83,1102.52 2421.48,1109.03 2420.42,1109.8C2426.08,1112.77 2429.04,1116.59 2429.04,1122.39C2429.04,1130.1 2423.6,1134.97 2415.89,1134.97C2408.82,1134.97 2404.37,1129.88 2404.37,1123.17C2404.37,1118.01 2406.98,1114.12 2411.16,1110.72C2407.27,1108.32 2405.99,1105.7 2405.99,1101.88C2405.99,1096.23 2410.1,1091.35 2416.81,1091.35C2421.27,1091.35 2424.38,1094.18 2426.5,1097.43C2426.57,1097.5 2426.57,1097.57 2426.57,1097.64L2426.92,1097.64ZM2422.82,1101.04C2422.61,1100.82 2422.47,1100.61 2422.4,1100.4C2420.91,1097.78 2419.43,1096.37 2416.88,1096.37C2412.71,1096.37 2410.87,1099.2 2410.87,1101.88C2410.87,1104.08 2411.65,1105.35 2415.68,1107.4C2418.3,1105.49 2420.7,1103.23 2422.82,1101.04ZM2415.89,1113.2C2411.51,1116.66 2409.32,1119.63 2409.32,1123.03C2409.32,1126.42 2411.23,1129.81 2415.89,1129.81C2420.91,1129.81 2424.17,1126.77 2424.17,1122.67C2424.17,1119.14 2422.61,1116.38 2416.67,1113.55C2416.46,1113.41 2416.18,1113.27 2415.89,1113.2ZM2429.19,1144.17C2432.58,1144.17 2434.7,1141.62 2434.7,1138.65L2434.7,1087.32C2434.7,1083.85 2432.23,1081.8 2429.19,1081.8L2377.85,1081.8C2374.39,1081.8 2372.34,1084.14 2372.34,1087.32L2372.34,1138.65C2372.34,1141.83 2374.81,1144.17 2377.85,1144.17L2429.19,1144.17Z" style="fill-rule:nonzero;"/>
        </g>
    </g>
</svg>
