<?xml version="1.0" encoding="UTF-8" standalone="no"?>
<!DOCTYPE svg PUBLIC "-//W3C//DTD SVG 1.1//EN" "http://www.w3.org/Graphics/SVG/1.1/DTD/svg11.dtd">
<svg width="100%" height="100%" viewBox="0 0 89 89" version="1.1" xmlns="http://www.w3.org/2000/svg" xmlns:xlink="http://www.w3.org/1999/xlink" xml:space="preserve" xmlns:serif="http://www.serif.com/" style="fill-rule:evenodd;clip-rule:evenodd;stroke-linejoin:round;stroke-miterlimit:2;">
    <g transform="matrix(1,0,0,1,-858.708,-571.632)">
        <g transform="matrix(1.41414,0,0,1.41429,-177.055,-770.755)">
            <path d="M794.796,1011.53L794.796,949.162L732.433,949.162L732.433,1011.53L794.796,1011.53ZM765.948,998.021C769.625,988.334 773.867,977.304 780.089,964.718L765.241,966.061C764.675,966.061 764.039,966.203 763.544,966.203C760.857,966.203 759.726,962.88 759.726,962.243C759.726,961.819 759.938,960.829 761.069,960.829C761.705,960.829 762.271,960.9 763.19,960.9L763.897,960.9L781.221,959.627C781.574,959.627 781.928,959.486 782.281,959.415C782.705,959.274 783.2,959.203 783.625,959.203L783.837,959.203C785.11,959.415 787.089,961.041 787.089,962.667L787.089,962.95C786.948,963.799 786.665,964.294 785.604,966.061C782.14,972.708 774.786,987.698 771.392,1000.28C771.11,1001.77 769.695,1001.98 768.847,1001.98C768.564,1001.98 768.281,1001.91 767.928,1001.91C766.443,1001.7 765.453,1000.99 765.453,999.718C765.453,999.294 765.594,998.87 765.665,998.587L765.948,998.021ZM752.443,1000.57C752.443,1001.56 751.594,1002.12 750.463,1002.12C748.766,1002.12 746.716,1000.85 746.716,999.506C746.716,998.587 746.857,995.688 746.857,994.486L746.857,966.981C744.241,968.253 741.483,968.819 741.413,968.819C739.857,968.819 738.089,967.476 738.089,966.486C738.089,965.566 738.796,965.142 739.362,964.93C742.12,963.87 744.665,962.385 746.362,961.112L746.645,960.758L747.352,960.122C747.988,959.415 748.837,958.92 749.473,958.92C750.817,958.92 752.655,960.405 752.655,962.102C752.655,963.021 752.301,964.011 752.301,965.637L752.301,994.132C752.301,995.688 752.372,999.011 752.443,1000.43L752.443,1000.57Z" style="fill-rule:nonzero;"/>
        </g>
    </g>
</svg>
