<?xml version="1.0" encoding="UTF-8" standalone="no"?>
<!DOCTYPE svg PUBLIC "-//W3C//DTD SVG 1.1//EN" "http://www.w3.org/Graphics/SVG/1.1/DTD/svg11.dtd">
<svg width="100%" height="100%" viewBox="0 0 96 96" version="1.1" xmlns="http://www.w3.org/2000/svg" xmlns:xlink="http://www.w3.org/1999/xlink" xml:space="preserve" xmlns:serif="http://www.serif.com/" style="fill-rule:evenodd;clip-rule:evenodd;stroke-linejoin:round;stroke-miterlimit:2;">
    <g transform="matrix(1,0,0,1,-309.628,-3323.28)">
        <g transform="matrix(1,0,0,1,-110.019,-3591.86)">
            <path d="M515.248,6962.94C515.248,6936.55 493.848,6915.15 467.448,6915.15C441.048,6915.15 419.648,6936.55 419.648,6962.94C419.648,6989.35 441.048,7010.65 467.448,7010.65C493.848,7010.65 515.248,6989.35 515.248,6962.94ZM492.448,6958.94C497.348,6960.44 501.348,6965.85 501.348,6973.35C501.348,6984.05 495.948,6993.35 483.348,6993.35C477.948,6993.35 473.548,6990.85 469.748,6986.55C469.048,6985.74 468.948,6984.74 468.948,6983.94C468.948,6982.35 469.948,6978.85 472.148,6978.85C472.748,6978.85 473.248,6979.15 473.748,6979.85C476.548,6983.74 479.148,6986.15 483.348,6986.15C491.648,6986.15 494.748,6980.05 494.748,6973.44C494.748,6967.94 491.148,6963.94 485.848,6963.94C485.348,6963.94 484.848,6963.94 484.348,6964.05C483.248,6964.15 481.948,6964.35 480.748,6964.65C480.548,6964.74 480.448,6964.74 480.248,6964.74C478.048,6964.74 476.948,6961.65 476.948,6960.15C476.948,6959.05 477.548,6957.74 478.848,6957.44C485.848,6956.85 492.748,6952.55 492.748,6946.85C492.748,6942.55 490.448,6939.85 485.948,6939.85C482.248,6939.85 479.148,6941.65 475.948,6945.85C475.248,6946.74 474.748,6947.65 473.548,6947.65C472.848,6947.65 470.348,6946.05 470.348,6942.85C470.348,6939.85 476.948,6932.74 485.848,6932.74C493.548,6932.74 499.248,6937.74 499.248,6946.35C499.248,6953.94 494.448,6958.05 492.448,6958.94ZM460.148,6982.55C460.148,6985.74 460.548,6988.94 460.548,6990.74C460.548,6991.94 459.548,6993.05 457.948,6993.05C455.848,6993.05 453.148,6991.35 453.148,6989.35C453.148,6988.05 453.348,6983.55 453.348,6982.35L453.348,6979.55L438.948,6980.05C438.548,6980.05 437.648,6980.15 436.048,6980.55L435.848,6980.55C433.648,6980.55 431.448,6978.15 431.448,6975.44C431.448,6974.85 431.548,6973.94 432.048,6973.05L433.348,6971.15C436.048,6967.35 448.348,6942.05 450.848,6934.44C451.248,6933.15 452.248,6932.94 452.848,6932.94C454.848,6932.94 457.348,6936.15 457.348,6938.44C457.348,6939.05 457.148,6939.65 456.848,6940.15C456.048,6941.35 455.148,6943.05 454.548,6944.35C450.848,6952.35 445.148,6963.85 440.248,6972.94L453.348,6972.65L453.348,6957.55C453.348,6955.94 453.148,6950.85 453.148,6949.05C453.148,6947.94 454.148,6946.74 455.748,6946.74C457.748,6946.74 460.348,6948.44 460.348,6950.55C460.348,6951.74 460.148,6955.65 460.148,6957.55L460.148,6972.35C461.448,6972.24 463.348,6971.85 464.248,6971.85C466.548,6971.85 467.748,6975.44 467.748,6976.94C467.748,6977.65 467.448,6979.55 465.748,6979.55C464.748,6979.55 462.048,6979.35 460.148,6979.35L460.148,6982.55Z" style="fill-rule:nonzero;"/>
        </g>
    </g>
</svg>
