<?xml version="1.0" encoding="UTF-8" standalone="no"?>
<!DOCTYPE svg PUBLIC "-//W3C//DTD SVG 1.1//EN" "http://www.w3.org/Graphics/SVG/1.1/DTD/svg11.dtd">
<svg width="100%" height="100%" viewBox="0 0 96 96" version="1.1" xmlns="http://www.w3.org/2000/svg" xmlns:xlink="http://www.w3.org/1999/xlink" xml:space="preserve" xmlns:serif="http://www.serif.com/" style="fill-rule:evenodd;clip-rule:evenodd;stroke-linejoin:round;stroke-miterlimit:2;">
    <g transform="matrix(1,0,0,1,-1409.63,-3323.28)">
        <g transform="matrix(1,0,0,1,-110.019,-3591.86)">
            <path d="M1615.25,6962.94C1615.25,6936.55 1593.85,6915.15 1567.45,6915.15C1541.05,6915.15 1519.65,6936.55 1519.65,6962.94C1519.65,6989.35 1541.05,7010.65 1567.45,7010.65C1593.85,7010.65 1615.25,6989.35 1615.25,6962.94ZM1540.35,6967.24C1539.95,6967.74 1539.55,6967.85 1538.95,6967.85C1537.25,6967.85 1534.95,6965.85 1534.95,6962.94C1534.95,6962.65 1534.95,6962.15 1535.05,6961.65C1535.35,6960.65 1535.45,6959.74 1535.65,6959.05L1537.25,6939.85C1537.35,6938.85 1537.45,6937.55 1537.45,6936.55C1537.45,6934.74 1538.75,6934.24 1539.65,6934.24C1540.45,6934.24 1541.55,6934.65 1542.45,6935.15L1554.85,6934.24C1556.05,6934.15 1557.95,6934.05 1559.15,6933.74L1559.45,6933.74C1561.55,6933.74 1562.65,6937.15 1562.65,6938.55C1562.65,6939.65 1562.15,6941.05 1560.75,6941.05L1555.55,6941.35L1543.25,6942.24L1541.95,6956.94C1544.35,6955.24 1547.15,6954.24 1550.75,6954.24C1558.65,6954.24 1565.35,6961.15 1565.35,6972.74C1565.35,6983.44 1560.25,6993.35 1547.75,6993.35C1541.75,6993.35 1537.35,6989.85 1534.05,6985.65C1533.45,6984.85 1533.15,6983.94 1533.15,6982.94C1533.15,6981.15 1534.35,6977.55 1536.45,6977.55C1537.25,6977.55 1537.85,6978.15 1538.15,6978.85C1540.55,6982.94 1543.35,6986.05 1547.75,6986.05C1555.75,6986.05 1558.85,6979.94 1558.85,6972.85C1558.85,6965.44 1555.45,6961.24 1550.05,6961.24C1546.95,6961.24 1544.35,6962.85 1542.25,6965.15L1540.35,6967.24ZM1597.55,6982.55C1597.55,6985.74 1597.85,6988.94 1597.85,6990.74C1597.85,6991.94 1596.95,6993.05 1595.35,6993.05C1593.25,6993.05 1590.55,6991.35 1590.55,6989.35C1590.55,6988.05 1590.75,6983.55 1590.75,6982.35L1590.75,6979.55L1576.25,6980.05C1575.85,6980.05 1574.95,6980.15 1573.15,6980.65L1573.35,6980.55L1573.15,6980.55C1570.95,6980.55 1568.75,6978.15 1568.75,6975.44C1568.75,6974.15 1569.15,6973.55 1570.75,6971.15C1571.15,6970.44 1571.55,6970.05 1571.75,6969.55C1583.35,6947.94 1587.25,6937.55 1588.25,6934.44C1588.65,6933.15 1589.65,6932.94 1590.15,6932.94C1592.15,6932.94 1594.65,6936.15 1594.65,6938.44C1594.65,6939.05 1594.55,6939.65 1594.25,6940.15C1593.45,6941.35 1592.45,6943.05 1591.85,6944.35C1588.15,6952.35 1582.45,6963.85 1577.65,6972.94L1590.75,6972.65L1590.75,6957.55C1590.75,6955.94 1590.55,6950.94 1590.55,6949.05C1590.55,6947.94 1591.45,6946.74 1593.05,6946.74C1595.05,6946.74 1597.65,6948.44 1597.65,6950.55C1597.65,6951.74 1597.55,6955.65 1597.55,6957.55L1597.55,6972.35C1598.75,6972.24 1600.75,6971.85 1601.55,6971.85C1603.95,6971.85 1605.05,6975.44 1605.05,6976.94C1605.05,6977.65 1604.85,6979.55 1603.05,6979.55C1602.05,6979.55 1599.45,6979.35 1597.55,6979.35L1597.55,6982.55Z" style="fill-rule:nonzero;"/>
        </g>
    </g>
</svg>
