<?xml version="1.0" encoding="UTF-8" standalone="no"?>
<!DOCTYPE svg PUBLIC "-//W3C//DTD SVG 1.1//EN" "http://www.w3.org/Graphics/SVG/1.1/DTD/svg11.dtd">
<svg width="100%" height="100%" viewBox="0 0 96 96" version="1.1" xmlns="http://www.w3.org/2000/svg" xmlns:xlink="http://www.w3.org/1999/xlink" xml:space="preserve" xmlns:serif="http://www.serif.com/" style="fill-rule:evenodd;clip-rule:evenodd;stroke-linejoin:round;stroke-miterlimit:2;">
    <g transform="matrix(1,0,0,1,-909.628,-3623.28)">
        <g transform="matrix(1,0,0,1,-110.019,-3591.86)">
            <path d="M1115.25,7262.94C1115.25,7236.55 1093.85,7215.15 1067.45,7215.15C1041.05,7215.15 1019.65,7236.55 1019.65,7262.94C1019.65,7289.35 1041.05,7310.65 1067.45,7310.65C1093.85,7310.65 1115.25,7289.35 1115.25,7262.94ZM1062.15,7241.65C1062.25,7241.65 1062.45,7241.55 1062.55,7241.55C1064.05,7241.55 1065.05,7242.94 1065.05,7244.55C1065.05,7248.44 1054.75,7257.85 1053.95,7258.44C1061.45,7262.55 1065.35,7267.85 1065.35,7275.85C1065.35,7286.65 1058.25,7293.35 1048.05,7293.35C1038.75,7293.35 1032.95,7286.24 1032.95,7276.94C1032.95,7269.85 1036.35,7264.35 1041.85,7259.74C1036.75,7256.35 1035.05,7252.74 1035.05,7247.44C1035.05,7239.55 1040.45,7232.85 1049.25,7232.85C1055.05,7232.85 1059.25,7236.74 1061.95,7241.35L1062.15,7241.65ZM1103.25,7239.65C1102.95,7240.85 1102.45,7242.24 1102.45,7242.74C1098.75,7260.85 1095.35,7283.85 1094.85,7289.94C1094.75,7292.35 1092.25,7292.94 1090.75,7292.94C1089.05,7292.94 1087.95,7292.05 1087.95,7290.15C1087.95,7289.35 1088.15,7288.74 1088.25,7287.94C1090.05,7277.55 1091.85,7266.35 1091.95,7265.85C1088.85,7269.15 1084.95,7271.15 1081.05,7271.15C1073.85,7271.15 1069.05,7265.15 1069.05,7255.55C1069.05,7244.24 1076.65,7232.74 1086.85,7232.74C1091.75,7232.74 1094.95,7235.05 1096.85,7237.44C1097.05,7236.44 1097.65,7235.05 1099.15,7235.05C1101.15,7235.05 1103.25,7236.94 1103.25,7239.15L1103.25,7239.65ZM1095.25,7246.65C1094.55,7246.35 1094.15,7245.65 1093.85,7244.94C1093.05,7242.94 1091.35,7239.85 1087.15,7239.85C1079.95,7239.85 1075.55,7248.44 1075.55,7255.24C1075.55,7261.55 1077.55,7263.94 1080.95,7263.94C1090.65,7263.94 1094.65,7249.55 1095.05,7248.05L1095.25,7246.65ZM1048.05,7263.15C1042.25,7267.94 1039.35,7272.05 1039.35,7276.74C1039.35,7281.44 1041.95,7286.15 1048.05,7286.15C1054.65,7286.15 1058.95,7281.94 1058.95,7276.24C1058.95,7271.35 1056.95,7267.55 1049.15,7263.65C1048.85,7263.44 1048.45,7263.24 1048.05,7263.15ZM1057.15,7246.24C1056.95,7245.94 1056.75,7245.74 1056.55,7245.35C1054.65,7241.74 1052.65,7239.85 1049.35,7239.85C1043.85,7239.85 1041.45,7243.74 1041.45,7247.44C1041.45,7250.55 1042.45,7252.24 1047.75,7255.15C1051.25,7252.44 1054.35,7249.35 1057.15,7246.24Z" style="fill-rule:nonzero;"/>
        </g>
    </g>
</svg>
