<?xml version="1.0" encoding="UTF-8" standalone="no"?>
<!DOCTYPE svg PUBLIC "-//W3C//DTD SVG 1.1//EN" "http://www.w3.org/Graphics/SVG/1.1/DTD/svg11.dtd">
<svg width="100%" height="100%" viewBox="0 0 89 89" version="1.1" xmlns="http://www.w3.org/2000/svg" xmlns:xlink="http://www.w3.org/1999/xlink" xml:space="preserve" xmlns:serif="http://www.serif.com/" style="fill-rule:evenodd;clip-rule:evenodd;stroke-linejoin:round;stroke-miterlimit:2;">
    <g transform="matrix(1,0,0,1,-958.698,-421.632)">
        <g transform="matrix(1.41414,0,0,1.41429,-177.055,-770.755)">
            <path d="M865.503,905.465L865.503,843.102L803.14,843.102L803.14,905.465L865.503,905.465ZM816.291,856.112C817.918,854.203 819.968,852.93 822.514,852.93C829.655,852.93 832.978,862.546 832.978,873.93C832.978,885.526 829.514,896.698 821.312,896.698C813.463,896.698 810.211,886.94 810.211,875.415C810.211,865.445 813.251,856.041 815.796,856.041C816.009,856.041 816.15,856.041 816.291,856.112ZM857.514,859.223C858.574,859.223 859.281,860.142 859.281,861.344C859.281,864.102 852.352,870.607 851.362,871.385C856.736,874.354 859.493,878.173 859.493,883.971C859.493,891.678 854.402,896.556 847.049,896.556C840.332,896.556 836.16,891.465 836.16,884.748C836.16,879.587 838.635,875.698 842.524,872.304C838.918,869.9 837.645,867.284 837.645,863.465C837.645,857.809 841.534,852.93 847.897,852.93C852.14,852.93 855.11,855.758 857.089,859.011C857.16,859.082 857.16,859.152 857.16,859.223L857.514,859.223ZM821.17,891.536C825.837,891.536 828.241,883.546 828.241,873.506C828.241,866.223 826.968,857.95 822.301,857.95C819.615,857.95 814.948,863.041 814.948,875.344C814.948,885.031 816.928,891.536 821.17,891.536ZM847.049,874.779C842.877,878.243 840.756,881.213 840.756,884.607C840.756,888.001 842.594,891.395 847.049,891.395C851.786,891.395 854.897,888.354 854.897,884.253C854.897,880.718 853.413,877.96 847.827,875.132C847.615,874.991 847.332,874.849 847.049,874.779ZM853.625,862.617C853.413,862.405 853.342,862.193 853.2,861.981C851.857,859.364 850.372,857.95 847.968,857.95C844.009,857.95 842.312,860.779 842.312,863.465C842.312,865.657 843.019,866.93 846.837,868.981C849.382,867.072 851.574,864.809 853.625,862.617Z" style="fill-rule:nonzero;"/>
        </g>
    </g>
</svg>
