<?xml version="1.0" encoding="UTF-8" standalone="no"?>
<!DOCTYPE svg PUBLIC "-//W3C//DTD SVG 1.1//EN" "http://www.w3.org/Graphics/SVG/1.1/DTD/svg11.dtd">
<svg width="100%" height="100%" viewBox="0 0 96 96" version="1.1" xmlns="http://www.w3.org/2000/svg" xmlns:xlink="http://www.w3.org/1999/xlink" xml:space="preserve" xmlns:serif="http://www.serif.com/" style="fill-rule:evenodd;clip-rule:evenodd;stroke-linejoin:round;stroke-miterlimit:2;">
    <g transform="matrix(1,0,0,1,-209.628,-3623.28)">
        <g transform="matrix(1,0,0,1,-110.019,-3591.86)">
            <path d="M415.248,7262.94C415.248,7236.55 393.848,7215.15 367.448,7215.15C341.048,7215.15 319.648,7236.55 319.648,7262.94C319.648,7289.35 341.048,7310.65 367.448,7310.65C393.848,7310.65 415.248,7289.35 415.248,7262.94ZM355.448,7258.44C363.348,7262.55 367.448,7267.85 367.448,7275.85C367.448,7286.65 359.948,7293.35 349.248,7293.35C339.348,7293.35 333.248,7286.24 333.248,7276.94C333.248,7269.85 336.848,7264.35 342.648,7259.74C337.248,7256.35 335.448,7252.74 335.448,7247.44C335.448,7239.55 341.148,7232.85 350.448,7232.85C356.648,7232.85 360.948,7236.74 363.948,7241.35C363.948,7241.44 363.948,7241.55 364.048,7241.65C364.248,7241.65 364.348,7241.55 364.548,7241.55C366.048,7241.55 367.148,7242.94 367.148,7244.55C367.148,7247.94 358.148,7256.35 355.448,7258.44ZM374.748,7292.35C372.348,7292.35 370.848,7289.35 370.848,7287.44C370.848,7286.85 370.948,7286.05 371.448,7285.35C372.048,7284.44 372.448,7283.94 372.748,7283.24C375.548,7277.44 380.748,7268.85 386.948,7262.44C392.948,7256.35 396.148,7251.85 396.148,7247.35C396.148,7243.24 393.548,7239.85 388.948,7239.85C383.948,7239.85 380.448,7243.05 379.048,7247.24C378.648,7248.35 377.848,7250.15 376.048,7250.15C374.448,7250.15 372.048,7247.94 372.048,7245.44C372.048,7244.74 372.148,7243.94 372.648,7243.24C375.748,7237.15 381.148,7232.74 389.048,7232.74C397.748,7232.74 403.448,7238.85 403.448,7247.35C403.448,7255.35 398.148,7261.35 391.548,7267.94C386.248,7273.15 382.348,7279.65 379.748,7284.65C382.148,7284.55 384.948,7284.44 386.948,7284.44C390.448,7284.44 392.848,7284.55 395.748,7284.55C397.048,7284.55 399.448,7284.44 400.348,7284.44C402.748,7284.44 403.948,7287.94 403.948,7289.44C403.948,7290.55 403.248,7291.94 401.648,7291.94C399.148,7291.65 393.148,7291.35 386.248,7291.35C383.748,7291.35 381.348,7291.35 378.448,7291.74C377.748,7291.74 375.748,7292.24 375.248,7292.35L374.748,7292.35ZM349.248,7263.15C343.048,7267.94 340.048,7272.05 340.048,7276.74C340.048,7281.44 342.748,7286.15 349.248,7286.15C356.148,7286.15 360.648,7281.94 360.648,7276.24C360.648,7271.35 358.548,7267.55 350.348,7263.65L349.248,7263.15ZM358.748,7246.24C358.548,7245.94 358.348,7245.74 358.148,7245.35C356.148,7241.74 354.048,7239.85 350.548,7239.85C344.748,7239.85 342.248,7243.74 342.248,7247.44C342.248,7250.55 343.348,7252.24 348.848,7255.15C352.548,7252.44 355.848,7249.35 358.748,7246.24Z" style="fill-rule:nonzero;"/>
        </g>
    </g>
</svg>
