<?xml version="1.0" encoding="UTF-8" standalone="no"?>
<!DOCTYPE svg PUBLIC "-//W3C//DTD SVG 1.1//EN" "http://www.w3.org/Graphics/SVG/1.1/DTD/svg11.dtd">
<svg width="100%" height="100%" viewBox="0 0 89 89" version="1.1" xmlns="http://www.w3.org/2000/svg" xmlns:xlink="http://www.w3.org/1999/xlink" xml:space="preserve" xmlns:serif="http://www.serif.com/" style="fill-rule:evenodd;clip-rule:evenodd;stroke-linejoin:round;stroke-miterlimit:2;">
    <g transform="matrix(1,0,0,1,-858.708,-1621.63)">
        <g transform="matrix(1.41414,0,0,1.41429,-177.055,-770.755)">
            <path d="M794.796,1753.95L794.796,1691.59L732.433,1691.59L732.433,1753.95L794.796,1753.95ZM761.493,1707.42C762.554,1707.42 763.332,1708.34 763.332,1709.55C763.332,1712.38 756.12,1718.67 754.988,1719.59C760.645,1722.56 763.615,1726.38 763.615,1732.17C763.615,1739.88 758.17,1744.76 750.463,1744.76C743.392,1744.76 738.938,1739.67 738.938,1732.95C738.938,1727.79 741.625,1723.9 745.726,1720.51C741.908,1718.1 740.564,1715.49 740.564,1711.67C740.564,1706.01 744.665,1701.13 751.382,1701.13C755.766,1701.13 758.948,1703.96 761.069,1707.21C761.069,1707.28 761.069,1707.35 761.14,1707.42L761.493,1707.42ZM771.322,1740.73L771.322,1740.52C777.968,1720.58 781.009,1713.08 783.483,1707.14L771.251,1708.27C770.685,1708.34 770.12,1708.41 769.625,1708.41C767.221,1708.41 766.019,1705.59 766.019,1704.45C766.019,1704.03 766.231,1703.04 767.291,1703.04C767.928,1703.04 768.423,1703.11 769.271,1703.11L769.978,1703.11L784.402,1702.05C784.756,1702.05 785.11,1701.91 785.392,1701.84C785.817,1701.7 786.312,1701.63 786.736,1701.63L786.948,1701.63C788.15,1701.84 789.988,1703.47 789.988,1705.09L789.988,1705.38C789.918,1706.15 789.564,1706.79 789.281,1707.28C785.18,1715.49 777.685,1736.49 776.554,1742.71C776.271,1744.19 774.998,1744.4 774.079,1744.4C773.867,1744.4 773.584,1744.33 773.301,1744.33C771.817,1744.12 770.968,1743.34 770.968,1742.14C770.968,1741.72 771.11,1741.29 771.18,1741.08L771.322,1740.73ZM750.463,1722.98C746.079,1726.44 743.887,1729.41 743.887,1732.81C743.887,1736.2 745.796,1739.6 750.463,1739.6C755.483,1739.6 758.665,1736.56 758.665,1732.45C758.665,1728.92 757.18,1726.16 751.241,1723.33C751.029,1723.19 750.746,1723.05 750.463,1722.98ZM756.897,1710.18C755.483,1707.57 753.928,1706.15 751.453,1706.15C747.281,1706.15 745.443,1708.98 745.443,1711.67C745.443,1713.86 746.221,1715.13 750.18,1717.18C752.867,1715.27 755.2,1713.01 757.322,1710.82L756.897,1710.18Z" style="fill-rule:nonzero;"/>
        </g>
    </g>
</svg>
