<?xml version="1.0" encoding="UTF-8" standalone="no"?>
<!DOCTYPE svg PUBLIC "-//W3C//DTD SVG 1.1//EN" "http://www.w3.org/Graphics/SVG/1.1/DTD/svg11.dtd">
<svg width="100%" height="100%" viewBox="0 0 89 89" version="1.1" xmlns="http://www.w3.org/2000/svg" xmlns:xlink="http://www.w3.org/1999/xlink" xml:space="preserve" xmlns:serif="http://www.serif.com/" style="fill-rule:evenodd;clip-rule:evenodd;stroke-linejoin:round;stroke-miterlimit:2;">
    <g transform="matrix(1,0,0,1,-2202.44,-692.274)">
        <g transform="matrix(1.41414,0,0,1.41429,-1052.39,-837.704)">
            <path d="M2358.48,1144.17C2361.87,1144.17 2363.99,1141.62 2363.99,1138.65L2363.99,1087.32C2363.99,1083.85 2361.52,1081.8 2358.48,1081.8L2307.14,1081.8C2303.68,1081.8 2301.63,1084.14 2301.63,1087.32L2301.63,1138.65C2301.63,1141.83 2304.11,1144.17 2307.14,1144.17L2358.48,1144.17ZM2310.75,1134.27C2308.98,1134.27 2307.92,1132.15 2307.92,1130.73C2307.92,1130.31 2307.99,1129.74 2308.35,1129.25L2309.34,1127.69C2311.32,1123.52 2315.07,1117.3 2319.52,1112.7C2323.83,1108.32 2326.17,1105.07 2326.17,1101.81C2326.17,1098.84 2324.33,1096.37 2320.93,1096.37C2317.33,1096.37 2314.85,1098.7 2313.86,1101.74C2313.58,1102.52 2312.94,1103.79 2311.67,1103.79C2310.68,1103.79 2308.77,1102.17 2308.77,1100.4C2308.77,1098.7 2312.38,1091.28 2321.08,1091.28C2327.37,1091.28 2331.47,1095.66 2331.47,1101.81C2331.47,1107.54 2327.65,1111.92 2322.84,1116.66C2319.02,1120.41 2316.2,1125.08 2314.36,1128.75C2316.12,1128.61 2318.11,1128.54 2319.52,1128.54C2322.14,1128.54 2323.76,1128.61 2325.95,1128.61C2326.8,1128.61 2328.57,1128.54 2329.21,1128.54C2330.97,1128.54 2331.82,1131.09 2331.82,1132.15C2331.82,1133 2331.33,1133.98 2330.2,1133.98C2325.74,1133.56 2320.93,1133.56 2319.02,1133.56C2317.26,1133.56 2315.49,1133.56 2313.37,1133.84C2312.87,1133.84 2311.46,1134.2 2311.11,1134.27L2310.75,1134.27ZM2339.74,1130.94C2339.81,1130.87 2339.81,1130.87 2339.81,1130.73C2345.54,1113.48 2347.1,1109.03 2351.97,1097.36L2339.74,1098.49C2339.18,1098.56 2338.61,1098.63 2338.12,1098.63C2335.71,1098.63 2334.51,1095.8 2334.51,1094.67C2334.51,1094.25 2334.72,1093.26 2335.78,1093.26C2336.35,1093.26 2336.91,1093.33 2337.76,1093.33L2338.47,1093.33L2352.89,1092.27C2353.25,1092.27 2353.53,1092.13 2353.88,1092.06C2354.31,1091.91 2354.8,1091.84 2355.16,1091.84L2355.37,1091.84C2356.64,1092.06 2358.48,1093.68 2358.48,1095.31L2358.48,1095.59C2358.34,1096.37 2358.05,1097.01 2357.77,1097.5C2355.93,1100.26 2346.53,1124.72 2345.04,1132.92C2344.76,1134.41 2343.49,1134.62 2342.57,1134.62C2342.36,1134.62 2342.08,1134.55 2341.72,1134.55C2340.24,1134.34 2339.46,1133.56 2339.46,1132.36C2339.46,1131.93 2339.6,1131.51 2339.67,1131.3L2339.74,1130.94Z" style="fill-rule:nonzero;"/>
        </g>
    </g>
</svg>
