<?xml version="1.0" encoding="UTF-8" standalone="no"?>
<!DOCTYPE svg PUBLIC "-//W3C//DTD SVG 1.1//EN" "http://www.w3.org/Graphics/SVG/1.1/DTD/svg11.dtd">
<svg width="100%" height="100%" viewBox="0 0 96 96" version="1.1" xmlns="http://www.w3.org/2000/svg" xmlns:xlink="http://www.w3.org/1999/xlink" xml:space="preserve" xmlns:serif="http://www.serif.com/" style="fill-rule:evenodd;clip-rule:evenodd;stroke-linejoin:round;stroke-miterlimit:2;">
    <g transform="matrix(1,0,0,1,-2009.63,-3473.28)">
        <g transform="matrix(1,0,0,1,-110.019,-3591.86)">
            <path d="M2215.25,7112.94C2215.25,7086.55 2193.85,7065.15 2167.45,7065.15C2141.05,7065.15 2119.65,7086.55 2119.65,7112.94C2119.65,7139.35 2141.05,7160.65 2167.45,7160.65C2193.85,7160.65 2215.25,7139.35 2215.25,7112.94ZM2178.25,7087.15C2180.45,7084.44 2183.45,7082.65 2186.95,7082.65C2197.05,7082.65 2201.75,7095.94 2201.75,7111.74C2201.75,7127.85 2196.85,7143.35 2185.25,7143.35C2174.15,7143.35 2169.55,7129.85 2169.55,7113.85C2169.55,7100.05 2173.95,7086.94 2177.35,7086.94C2177.65,7086.94 2177.95,7087.05 2178.25,7087.15ZM2153.05,7108.44C2160.85,7112.55 2164.95,7117.85 2164.95,7125.85C2164.95,7136.65 2157.45,7143.35 2146.85,7143.35C2136.95,7143.35 2130.85,7136.24 2130.85,7126.94C2130.85,7119.85 2134.55,7114.35 2140.25,7109.74C2134.95,7106.35 2133.05,7102.74 2133.05,7097.44C2133.05,7089.55 2138.75,7082.85 2148.05,7082.85C2154.15,7082.85 2158.55,7086.74 2161.45,7091.35C2161.55,7091.44 2161.55,7091.55 2161.55,7091.65C2161.75,7091.65 2161.95,7091.55 2162.05,7091.55C2163.55,7091.55 2164.65,7092.94 2164.65,7094.55C2164.65,7095.44 2164.35,7096.44 2163.65,7097.35C2160.15,7101.94 2155.25,7106.74 2153.05,7108.44ZM2184.95,7136.15C2191.65,7136.15 2195.05,7125.05 2195.05,7111.15C2195.05,7099.65 2192.25,7089.65 2186.65,7089.65C2182.85,7089.65 2176.25,7096.74 2176.25,7113.74C2176.25,7127.15 2178.95,7136.15 2184.95,7136.15ZM2146.85,7113.15C2140.65,7117.94 2137.65,7122.05 2137.65,7126.74C2137.65,7131.44 2140.35,7136.15 2146.85,7136.15C2153.75,7136.15 2158.25,7131.94 2158.25,7126.24C2158.25,7121.35 2156.15,7117.55 2147.85,7113.65L2146.85,7113.15ZM2156.35,7096.24C2156.15,7095.94 2155.95,7095.74 2155.75,7095.35C2153.75,7091.74 2151.65,7089.85 2148.15,7089.85C2142.35,7089.85 2139.85,7093.74 2139.85,7097.44C2139.85,7100.55 2140.95,7102.24 2146.45,7105.15C2150.15,7102.44 2153.45,7099.35 2156.35,7096.24Z" style="fill-rule:nonzero;"/>
        </g>
    </g>
</svg>
