<?xml version="1.0" encoding="UTF-8" standalone="no"?>
<!DOCTYPE svg PUBLIC "-//W3C//DTD SVG 1.1//EN" "http://www.w3.org/Graphics/SVG/1.1/DTD/svg11.dtd">
<svg width="100%" height="100%" viewBox="0 0 96 96" version="1.1" xmlns="http://www.w3.org/2000/svg" xmlns:xlink="http://www.w3.org/1999/xlink" xml:space="preserve" xmlns:serif="http://www.serif.com/" style="fill-rule:evenodd;clip-rule:evenodd;stroke-linejoin:round;stroke-miterlimit:2;">
    <g transform="matrix(1,0,0,1,-509.628,-3623.28)">
        <g transform="matrix(1,0,0,1,-110.019,-3591.86)">
            <path d="M715.248,7262.94C715.248,7236.55 693.848,7215.15 667.448,7215.15C641.048,7215.15 619.648,7236.55 619.648,7262.94C619.648,7289.35 641.048,7310.65 667.448,7310.65C693.848,7310.65 715.248,7289.35 715.248,7262.94ZM663.148,7241.65C663.248,7241.65 663.448,7241.55 663.648,7241.55C665.148,7241.55 666.148,7242.94 666.148,7244.55C666.148,7248.44 655.848,7257.44 654.548,7258.44C662.348,7262.55 666.548,7267.85 666.548,7275.85C666.548,7286.65 659.048,7293.35 648.348,7293.35C638.548,7293.35 632.348,7286.24 632.348,7276.94C632.348,7269.85 636.048,7264.35 641.748,7259.74C636.448,7256.35 634.548,7252.74 634.548,7247.44C634.548,7239.55 640.348,7232.85 649.548,7232.85C655.748,7232.85 660.048,7236.74 662.948,7241.35L663.148,7241.65ZM677.448,7267.24C677.048,7267.74 676.648,7267.85 676.048,7267.85C674.348,7267.85 672.048,7265.85 672.048,7262.94C672.048,7262.65 672.048,7262.15 672.148,7261.65C672.448,7260.65 672.548,7259.74 672.748,7259.05L674.348,7239.85C674.448,7238.85 674.548,7237.55 674.548,7236.55C674.548,7234.74 675.848,7234.24 676.748,7234.24C677.548,7234.24 678.648,7234.65 679.548,7235.15L691.948,7234.24C693.148,7234.15 695.048,7234.05 696.248,7233.74L696.548,7233.74C698.648,7233.74 699.748,7237.15 699.748,7238.55C699.748,7239.65 699.248,7241.05 697.848,7241.05L692.648,7241.35L680.348,7242.24L679.048,7256.94C681.448,7255.24 684.248,7254.24 687.848,7254.24C695.848,7254.24 702.448,7261.15 702.448,7272.74C702.448,7283.44 697.348,7293.35 684.848,7293.35C678.848,7293.35 674.448,7289.85 671.148,7285.65C670.548,7284.85 670.248,7283.94 670.248,7282.94C670.248,7281.15 671.448,7277.55 673.548,7277.55C674.348,7277.55 674.948,7278.15 675.248,7278.85C677.648,7282.94 680.448,7286.05 684.848,7286.05C692.848,7286.05 695.948,7279.94 695.948,7272.85C695.948,7265.35 692.548,7261.24 687.248,7261.24C684.048,7261.24 681.448,7262.85 679.348,7265.15L677.448,7267.24ZM648.348,7263.15C642.248,7267.94 639.148,7272.05 639.148,7276.74C639.148,7281.44 641.848,7286.15 648.348,7286.15C655.248,7286.15 659.748,7281.94 659.748,7276.24C659.748,7271.35 657.648,7267.55 649.448,7263.65C649.148,7263.44 648.748,7263.24 648.348,7263.15ZM657.848,7246.24C654.548,7241.35 653.448,7239.85 649.648,7239.85C643.948,7239.85 641.348,7243.74 641.348,7247.44C641.348,7250.55 642.448,7252.24 647.948,7255.15C651.648,7252.44 654.948,7249.35 657.848,7246.24Z" style="fill-rule:nonzero;"/>
        </g>
    </g>
</svg>
