<?xml version="1.0" encoding="UTF-8" standalone="no"?>
<!DOCTYPE svg PUBLIC "-//W3C//DTD SVG 1.1//EN" "http://www.w3.org/Graphics/SVG/1.1/DTD/svg11.dtd">
<svg width="100%" height="100%" viewBox="0 0 89 89" version="1.1" xmlns="http://www.w3.org/2000/svg" xmlns:xlink="http://www.w3.org/1999/xlink" xml:space="preserve" xmlns:serif="http://www.serif.com/" style="fill-rule:evenodd;clip-rule:evenodd;stroke-linejoin:round;stroke-miterlimit:2;">
    <g transform="matrix(1,0,0,1,-2102.45,-1892.27)">
        <g transform="matrix(1.41414,0,0,1.41429,-1052.39,-837.704)">
            <path d="M2287.77,1992.65C2291.17,1992.65 2293.29,1990.11 2293.29,1987.14L2293.29,1935.8C2293.29,1932.34 2290.81,1930.29 2287.77,1930.29L2236.44,1930.29C2232.97,1930.29 2230.92,1932.62 2230.92,1935.8L2230.92,1987.14C2230.92,1990.32 2233.4,1992.65 2236.44,1992.65L2287.77,1992.65ZM2275.19,1968.05C2275.19,1977.45 2267.83,1982.54 2259.49,1982.54C2253.69,1982.54 2250.23,1980.49 2247.89,1976.53C2247.82,1976.18 2247.68,1975.96 2247.68,1975.54C2247.68,1974.06 2249.24,1972.08 2250.79,1972.08C2251.5,1972.08 2252.21,1972.43 2252.56,1973.35C2253.76,1976.25 2255.67,1977.31 2259.49,1977.31C2265.29,1977.31 2269.81,1974.13 2269.81,1967.97L2269.81,1966.35C2266.49,1970.31 2262.6,1971.58 2258.71,1971.58C2251.78,1971.58 2247.4,1966.77 2247.4,1958.36C2247.4,1949.87 2254.26,1940.89 2262.81,1940.89C2265.36,1940.89 2267.83,1941.67 2269.67,1943.37L2269.67,1942.52C2269.67,1941.74 2270.45,1940.89 2271.72,1940.89C2273.28,1940.89 2275.47,1942.24 2275.47,1943.58L2275.47,1943.65C2275.4,1945.21 2275.19,1947.47 2275.19,1949.52L2275.19,1968.05ZM2269.81,1949.59L2269.53,1949.59C2268.96,1949.59 2268.47,1949.31 2268.19,1948.88C2266.7,1946.83 2264.72,1945.98 2262.88,1945.98C2257.72,1945.98 2252.84,1952.35 2252.84,1958.36C2252.84,1964.44 2255.32,1966.49 2258.71,1966.49C2262.67,1966.49 2268.19,1963.24 2269.53,1957.3C2269.81,1956.45 2269.81,1953.83 2269.81,1950.65L2269.81,1949.59Z" style="fill-rule:nonzero;"/>
        </g>
    </g>
</svg>
