<?xml version="1.0" encoding="UTF-8" standalone="no"?>
<!DOCTYPE svg PUBLIC "-//W3C//DTD SVG 1.1//EN" "http://www.w3.org/Graphics/SVG/1.1/DTD/svg11.dtd">
<svg width="100%" height="100%" viewBox="0 0 89 89" version="1.1" xmlns="http://www.w3.org/2000/svg" xmlns:xlink="http://www.w3.org/1999/xlink" xml:space="preserve" xmlns:serif="http://www.serif.com/" style="fill-rule:evenodd;clip-rule:evenodd;stroke-linejoin:round;stroke-miterlimit:2;">
    <g transform="matrix(1,0,0,1,-1158.68,-1921.63)">
        <g transform="matrix(1.41414,0,0,1.41429,-177.055,-770.755)">
            <path d="M1006.92,1966.07L1006.92,1903.71L944.554,1903.71L944.554,1966.07L1006.92,1966.07ZM970.221,1949.17C970.221,1949.88 970.362,1954.12 970.362,1955.54C970.362,1956.88 969.019,1957.16 968.382,1957.16C967.322,1957.16 964.705,1956.45 964.705,1954.4C964.705,1953.49 964.847,1950.02 964.847,1949.17L964.847,1920.04C964.847,1918.91 964.635,1915.02 964.635,1913.61C964.635,1912.26 965.978,1911.98 966.615,1911.98C967.675,1911.98 970.291,1912.69 970.291,1914.74C970.291,1915.66 970.221,1918.63 970.221,1920.04L970.221,1935.38L980.332,1928.31C981.322,1927.61 982.382,1926.55 982.806,1926.12C983.301,1925.56 984.079,1925.41 984.645,1925.41C986.483,1925.41 988.746,1927.04 988.746,1927.96C988.746,1928.6 988.392,1929.02 988.039,1929.23C986.342,1930.43 984.716,1931.42 983.726,1932.13L975.453,1938C978.918,1941.54 984.221,1947.19 987.827,1950.73C988.604,1951.58 989.806,1952.35 991.009,1952.92C991.362,1953.13 991.928,1953.56 991.928,1954.33C991.928,1955.89 989.453,1957.3 988.18,1957.3C987.685,1957.3 987.261,1957.23 986.978,1956.95C985.988,1956.17 984.645,1955.11 983.726,1954.12C980.685,1950.94 974.746,1944.51 971.14,1940.97L970.221,1941.61L970.221,1949.17Z" style="fill-rule:nonzero;"/>
        </g>
    </g>
</svg>
