<?xml version="1.0" encoding="UTF-8" standalone="no"?>
<!DOCTYPE svg PUBLIC "-//W3C//DTD SVG 1.1//EN" "http://www.w3.org/Graphics/SVG/1.1/DTD/svg11.dtd">
<svg width="100%" height="100%" viewBox="0 0 96 96" version="1.1" xmlns="http://www.w3.org/2000/svg" xmlns:xlink="http://www.w3.org/1999/xlink" xml:space="preserve" xmlns:serif="http://www.serif.com/" style="fill-rule:evenodd;clip-rule:evenodd;stroke-linejoin:round;stroke-miterlimit:2;">
    <g transform="matrix(1,0,0,1,-309.628,-3023.28)">
        <g transform="matrix(1,0,0,1,-110.019,-3591.86)">
            <path d="M515.248,6662.94C515.248,6636.55 493.848,6615.15 467.448,6615.15C441.048,6615.15 419.648,6636.55 419.648,6662.94C419.648,6689.35 441.048,6710.65 467.448,6710.65C493.848,6710.65 515.248,6689.35 515.248,6662.94ZM473.348,6692.74C470.848,6692.74 469.448,6689.74 469.448,6687.85C469.448,6687.24 469.448,6686.44 469.948,6685.74C470.648,6684.85 471.048,6684.35 471.348,6683.65C474.148,6677.85 479.248,6669.24 485.448,6662.85C491.448,6656.74 494.748,6652.24 494.748,6647.74C494.748,6643.65 492.148,6640.24 487.448,6640.24C482.448,6640.24 479.048,6643.44 477.648,6647.65C477.248,6648.74 476.348,6650.55 474.648,6650.55C472.148,6650.55 470.648,6647.15 470.648,6645.85C470.648,6642.94 475.848,6633.15 487.648,6633.15C496.348,6633.15 501.948,6639.24 501.948,6647.74C501.948,6655.74 496.748,6661.74 490.148,6668.35C484.848,6673.55 480.948,6680.05 478.348,6685.05C480.748,6684.94 483.448,6684.85 485.548,6684.85C489.048,6684.85 491.348,6684.94 494.348,6684.94C495.548,6684.94 497.948,6684.85 498.948,6684.85C501.348,6684.85 502.548,6688.35 502.548,6689.85C502.548,6690.94 501.848,6692.35 500.248,6692.35C494.348,6691.74 486.048,6691.74 484.748,6691.74C482.348,6691.74 479.848,6691.85 476.948,6692.15C476.248,6692.15 474.248,6692.65 473.748,6692.74L473.348,6692.74ZM441.448,6637.74C443.748,6635.05 446.748,6633.24 450.448,6633.24C460.948,6633.24 465.748,6646.55 465.748,6662.35C465.748,6678.44 460.748,6693.94 448.748,6693.94C437.248,6693.94 432.448,6680.44 432.448,6664.44C432.448,6653.44 436.348,6637.55 440.648,6637.55C440.948,6637.55 441.148,6637.65 441.448,6637.74ZM448.448,6686.74C455.348,6686.74 458.748,6675.74 458.748,6661.74C458.748,6651.65 457.048,6640.24 450.148,6640.24C446.248,6640.24 439.448,6647.35 439.448,6664.35C439.448,6677.74 442.248,6686.74 448.448,6686.74Z" style="fill-rule:nonzero;"/>
        </g>
    </g>
</svg>
