<?xml version="1.0" encoding="UTF-8" standalone="no"?>
<!DOCTYPE svg PUBLIC "-//W3C//DTD SVG 1.1//EN" "http://www.w3.org/Graphics/SVG/1.1/DTD/svg11.dtd">
<svg width="100%" height="100%" viewBox="0 0 89 89" version="1.1" xmlns="http://www.w3.org/2000/svg" xmlns:xlink="http://www.w3.org/1999/xlink" xml:space="preserve" xmlns:serif="http://www.serif.com/" style="fill-rule:evenodd;clip-rule:evenodd;stroke-linejoin:round;stroke-miterlimit:2;">
    <g transform="matrix(1,0,0,1,-558.739,-1771.63)">
        <g transform="matrix(1.41414,0,0,1.41429,-177.055,-770.755)">
            <path d="M582.675,1860.01L582.675,1797.65L520.312,1797.65L520.312,1860.01L582.675,1860.01ZM543.433,1831.02C541.241,1833.35 538.342,1834.84 535.584,1834.84C530.352,1834.84 526.887,1830.53 526.887,1823.53C526.887,1815.39 532.332,1807.12 539.756,1807.12C543.221,1807.12 545.554,1808.82 546.968,1810.44C547.11,1809.74 547.463,1808.75 548.594,1808.75C550.079,1808.75 551.564,1810.09 551.564,1811.72L551.564,1812.07C551.352,1812.99 550.998,1813.98 550.928,1814.26C548.736,1825.15 545.766,1843.39 545.554,1848.34C545.413,1850.11 543.645,1850.54 542.514,1850.54C541.312,1850.54 540.534,1849.9 540.534,1848.56C540.534,1847.78 541.241,1844.1 541.594,1842.55L543.433,1831.02ZM572.069,1843.04C572.069,1845.38 572.281,1847.64 572.281,1848.98C572.281,1849.76 571.645,1850.61 570.584,1850.61C569.17,1850.61 567.332,1849.33 567.332,1847.92C567.332,1847 567.402,1843.75 567.402,1842.9L567.402,1840.85L557.503,1841.2C557.291,1841.2 556.584,1841.34 555.382,1841.7L555.524,1841.63L555.382,1841.63C553.897,1841.63 552.342,1839.86 552.342,1837.95C552.342,1836.68 553.19,1835.48 553.756,1834.77C554.18,1834.2 563.726,1815.11 565.705,1808.32C565.988,1807.4 566.695,1807.26 567.049,1807.26C568.392,1807.26 570.16,1809.53 570.16,1811.22C570.16,1811.65 570.019,1812.07 569.806,1812.42C569.312,1813.27 568.604,1814.55 568.251,1815.47C565.705,1821.26 561.746,1829.54 558.423,1836.11L567.402,1835.9L567.402,1825.01C567.402,1823.88 567.332,1820.2 567.332,1818.86C567.332,1818.08 567.968,1817.23 569.029,1817.23C570.372,1817.23 572.211,1818.43 572.211,1819.92C572.211,1820.84 572.069,1823.6 572.069,1825.01L572.069,1835.69C572.918,1835.62 574.261,1835.33 574.827,1835.33C576.524,1835.33 577.301,1837.95 577.301,1839.01C577.301,1839.51 577.089,1840.85 575.887,1840.85C575.251,1840.85 573.413,1840.71 572.069,1840.71L572.069,1843.04ZM545.837,1817.16C545.271,1816.95 544.988,1816.38 544.776,1815.96C544.211,1814.48 542.938,1812.21 539.968,1812.21C534.736,1812.21 531.554,1818.43 531.554,1823.31C531.554,1827.91 532.968,1829.61 535.514,1829.61C542.443,1829.61 545.271,1819.5 545.625,1818.15L545.837,1817.16Z" style="fill-rule:nonzero;"/>
        </g>
    </g>
</svg>
