<?xml version="1.0" encoding="UTF-8" standalone="no"?>
<!DOCTYPE svg PUBLIC "-//W3C//DTD SVG 1.1//EN" "http://www.w3.org/Graphics/SVG/1.1/DTD/svg11.dtd">
<svg width="100%" height="100%" viewBox="0 0 96 96" version="1.1" xmlns="http://www.w3.org/2000/svg" xmlns:xlink="http://www.w3.org/1999/xlink" xml:space="preserve" xmlns:serif="http://www.serif.com/" style="fill-rule:evenodd;clip-rule:evenodd;stroke-linejoin:round;stroke-miterlimit:2;">
    <g transform="matrix(1,0,0,1,-609.628,-3623.28)">
        <g transform="matrix(1,0,0,1,-110.019,-3591.86)">
            <path d="M815.248,7262.94C815.248,7236.55 793.848,7215.15 767.448,7215.15C741.048,7215.15 719.648,7236.55 719.648,7262.94C719.648,7289.35 741.048,7310.65 767.448,7310.65C793.848,7310.65 815.248,7289.35 815.248,7262.94ZM754.948,7258.44C762.448,7262.55 766.348,7267.85 766.348,7275.85C766.348,7286.65 759.248,7293.35 749.048,7293.35C739.748,7293.35 733.948,7286.24 733.948,7276.94C733.948,7269.85 737.348,7264.35 742.848,7259.74C737.748,7256.35 736.048,7252.74 736.048,7247.44C736.048,7239.55 741.448,7232.85 750.248,7232.85C756.048,7232.85 760.148,7236.74 762.948,7241.35C763.048,7241.44 763.048,7241.55 763.048,7241.65C763.248,7241.65 763.448,7241.55 763.548,7241.55C764.948,7241.55 766.048,7242.94 766.048,7244.55C766.048,7247.94 757.548,7256.35 754.948,7258.44ZM785.448,7235.24C786.048,7234.05 787.048,7232.65 788.748,7232.65C789.748,7232.65 792.948,7233.15 792.948,7235.94C792.948,7236.85 792.348,7237.94 791.948,7238.55C787.648,7244.44 784.248,7251.15 781.648,7256.74C783.748,7255.44 786.048,7254.85 788.648,7254.85C797.648,7254.85 803.748,7262.55 803.748,7272.94C803.748,7284.24 797.648,7293.35 787.448,7293.35C778.148,7293.35 771.148,7285.15 771.148,7275.15C771.148,7271.55 771.248,7259.55 785.048,7235.85L785.448,7235.24ZM787.448,7286.35C792.948,7286.35 797.248,7281.15 797.248,7273.15C797.248,7266.94 793.848,7261.74 788.548,7261.74C781.848,7261.74 777.548,7267.85 777.548,7275.05C777.548,7281.44 781.648,7286.35 787.448,7286.35ZM749.048,7263.15C743.248,7267.94 740.348,7272.05 740.348,7276.74C740.348,7281.44 742.948,7286.15 749.048,7286.15C755.648,7286.15 759.848,7281.94 759.848,7276.24C759.848,7271.35 757.848,7267.55 750.048,7263.65C749.748,7263.44 749.448,7263.24 749.048,7263.15ZM758.148,7246.24C757.948,7245.94 757.748,7245.74 757.548,7245.35C755.648,7241.74 753.648,7239.85 750.348,7239.85C744.848,7239.85 742.448,7243.74 742.448,7247.44C742.448,7250.55 743.448,7252.24 748.748,7255.15C752.248,7252.44 755.348,7249.35 758.148,7246.24Z" style="fill-rule:nonzero;"/>
        </g>
    </g>
</svg>
