<?xml version="1.0" encoding="UTF-8" standalone="no"?>
<!DOCTYPE svg PUBLIC "-//W3C//DTD SVG 1.1//EN" "http://www.w3.org/Graphics/SVG/1.1/DTD/svg11.dtd">
<svg width="100%" height="100%" viewBox="0 0 89 89" version="1.1" xmlns="http://www.w3.org/2000/svg" xmlns:xlink="http://www.w3.org/1999/xlink" xml:space="preserve" xmlns:serif="http://www.serif.com/" style="fill-rule:evenodd;clip-rule:evenodd;stroke-linejoin:round;stroke-miterlimit:2;">
    <g transform="matrix(1,0,0,1,-658.729,-2071.63)">
        <g transform="matrix(1.41414,0,0,1.41429,-177.055,-770.755)">
            <path d="M653.382,2072.13L653.382,2009.77L591.019,2009.77L591.019,2072.13L653.382,2072.13ZM634.574,2054.81C634.574,2057.21 634.786,2059.76 634.786,2061.17C634.786,2062.52 633.443,2062.8 632.806,2062.8C631.746,2062.8 629.13,2062.09 629.13,2060.04C629.13,2059.12 629.2,2056.86 629.2,2054.74L629.2,2047.31C626.089,2051.34 622.059,2053.18 617.817,2053.18C611.241,2053.18 606.998,2047.95 606.998,2040.03C606.998,2030.27 614.423,2021.01 622.837,2021.01C625.17,2021.01 627.362,2021.58 629.13,2022.99L629.13,2022.64C629.13,2021.29 630.473,2021.01 631.11,2021.01C632.099,2021.01 634.716,2021.72 634.716,2023.7C634.716,2024.69 634.574,2026.95 634.574,2029.07L634.574,2054.81ZM629.2,2029.64C628.705,2029.57 628.281,2029.28 627.998,2028.86C626.655,2026.81 624.746,2026.03 622.908,2026.03C617.18,2026.03 612.584,2032.82 612.584,2039.82C612.584,2045.76 615.13,2048.09 617.817,2048.09C622.766,2048.09 629.2,2041.66 629.2,2034.73L629.2,2029.64Z" style="fill-rule:nonzero;"/>
        </g>
    </g>
</svg>
