<?xml version="1.0" encoding="UTF-8" standalone="no"?>
<!DOCTYPE svg PUBLIC "-//W3C//DTD SVG 1.1//EN" "http://www.w3.org/Graphics/SVG/1.1/DTD/svg11.dtd">
<svg width="100%" height="100%" viewBox="0 0 89 89" version="1.1" xmlns="http://www.w3.org/2000/svg" xmlns:xlink="http://www.w3.org/1999/xlink" xml:space="preserve" xmlns:serif="http://www.serif.com/" style="fill-rule:evenodd;clip-rule:evenodd;stroke-linejoin:round;stroke-miterlimit:2;">
    <g transform="matrix(1,0,0,1,-658.729,-421.632)">
        <g transform="matrix(1.41414,0,0,1.41429,-177.055,-770.755)">
            <path d="M653.382,905.465L653.382,843.102L591.019,843.102L591.019,905.465L653.382,905.465ZM604.453,856.112C606.079,854.203 608.13,852.93 610.675,852.93C617.817,852.93 621.14,862.546 621.14,873.93C621.14,885.526 617.675,896.698 609.473,896.698C601.625,896.698 598.372,886.94 598.372,875.415C598.372,865.445 601.413,856.041 603.958,856.041C604.17,856.041 604.312,856.041 604.453,856.112ZM629.554,877.748C629.2,878.102 628.988,878.173 628.493,878.173C627.291,878.173 625.594,876.688 625.594,874.637C625.594,874.425 625.594,874.072 625.665,873.718C625.877,873.011 626.019,872.304 626.089,871.809L627.291,857.95C627.362,857.243 627.433,856.324 627.433,855.617C627.433,854.274 628.352,853.92 628.988,853.92C629.625,853.92 630.402,854.203 631.039,854.556L640.019,853.92C640.867,853.849 642.211,853.779 643.13,853.566C644.615,853.566 645.604,855.405 645.604,857.031C645.604,857.809 645.251,858.799 644.19,858.87L640.443,859.082L631.604,859.718L630.685,870.324C632.382,869.051 634.433,868.344 637.049,868.344C642.776,868.344 647.584,873.364 647.584,881.708C647.584,889.415 643.837,896.556 634.857,896.556C629.625,896.556 624.322,891.748 624.322,889.061C624.322,887.718 625.17,885.173 626.726,885.173C627.291,885.173 627.716,885.597 627.928,886.092C629.625,889.061 631.675,891.324 634.857,891.324C640.655,891.324 642.918,886.87 642.918,881.779C642.918,876.405 640.372,873.435 636.554,873.435C634.291,873.435 632.382,874.566 630.897,876.263L629.554,877.748ZM609.332,891.536C613.998,891.536 616.402,883.546 616.402,873.506C616.402,866.223 615.13,857.95 610.463,857.95C607.847,857.95 603.11,863.041 603.11,875.344C603.11,885.031 605.089,891.536 609.332,891.536Z" style="fill-rule:nonzero;"/>
        </g>
    </g>
</svg>
