<?xml version="1.0" encoding="UTF-8" standalone="no"?>
<!DOCTYPE svg PUBLIC "-//W3C//DTD SVG 1.1//EN" "http://www.w3.org/Graphics/SVG/1.1/DTD/svg11.dtd">
<svg width="100%" height="100%" viewBox="0 0 89 89" version="1.1" xmlns="http://www.w3.org/2000/svg" xmlns:xlink="http://www.w3.org/1999/xlink" xml:space="preserve" xmlns:serif="http://www.serif.com/" style="fill-rule:evenodd;clip-rule:evenodd;stroke-linejoin:round;stroke-miterlimit:2;">
    <g transform="matrix(1,0,0,1,-1802.48,-1742.27)">
        <g transform="matrix(1.41414,0,0,1.41429,-1052.39,-837.704)">
            <path d="M2075.65,1886.59C2079.04,1886.59 2081.17,1884.05 2081.17,1881.08L2081.17,1829.74C2081.17,1826.28 2078.69,1824.23 2075.65,1824.23L2024.32,1824.23C2020.85,1824.23 2018.8,1826.56 2018.8,1829.74L2018.8,1881.08C2018.8,1884.26 2021.28,1886.59 2024.32,1886.59L2075.65,1886.59ZM2040.86,1857.6C2038.67,1859.93 2035.77,1861.42 2033.01,1861.42C2027.78,1861.42 2024.32,1857.11 2024.32,1850.11C2024.32,1841.97 2029.76,1833.7 2037.19,1833.7C2040.65,1833.7 2042.98,1835.4 2044.4,1837.03C2044.54,1836.32 2044.89,1835.33 2046.02,1835.33C2047.51,1835.33 2048.99,1836.67 2048.99,1838.3L2048.99,1838.65C2048.78,1839.57 2048.43,1840.56 2048.36,1840.84C2046.17,1851.73 2043.2,1869.97 2042.98,1874.92C2042.84,1876.69 2041.08,1877.12 2039.94,1877.12C2038.74,1877.12 2037.96,1876.48 2037.96,1875.14C2037.96,1874.36 2038.67,1870.68 2039.02,1869.13L2040.86,1857.6ZM2068.3,1852.65C2071.83,1853.64 2074.73,1857.6 2074.73,1862.97C2074.73,1870.68 2070.84,1877.4 2061.72,1877.4C2057.83,1877.4 2054.65,1875.63 2051.96,1872.52C2051.4,1871.88 2051.4,1871.18 2051.4,1870.61C2051.4,1869.48 2052.03,1866.93 2053.66,1866.93C2054.09,1866.93 2054.44,1867.15 2054.79,1867.64C2056.77,1870.47 2058.75,1872.24 2061.72,1872.24C2067.73,1872.24 2069.99,1867.78 2069.99,1863.05C2069.99,1859.09 2067.38,1856.19 2063.49,1856.19C2062.92,1856.19 2061.93,1856.19 2059.81,1856.68C2059.67,1856.75 2059.67,1856.75 2059.53,1856.75C2057.9,1856.75 2057.12,1854.56 2057.12,1853.43C2057.12,1852.65 2057.55,1851.73 2058.47,1851.52C2064.2,1851.03 2068.51,1847.7 2068.51,1843.88C2068.51,1840.77 2066.88,1838.79 2063.56,1838.79C2060.94,1838.79 2058.68,1840.07 2056.42,1843.18C2055.92,1843.81 2055.5,1844.45 2054.72,1844.45C2052.95,1844.45 2052.32,1841.41 2052.32,1840.98C2052.32,1840.14 2052.67,1839.5 2053.02,1839.15C2055.71,1835.68 2059.11,1833.7 2063.49,1833.7C2069.14,1833.7 2073.18,1837.24 2073.18,1843.53C2073.18,1848.97 2069.78,1851.94 2068.3,1852.65ZM2043.27,1843.74C2042.7,1843.53 2042.42,1842.96 2042.21,1842.54C2041.64,1841.06 2040.37,1838.79 2037.4,1838.79C2032.17,1838.79 2028.98,1845.02 2028.98,1849.89C2028.98,1854.49 2030.4,1856.19 2032.94,1856.19C2039.87,1856.19 2042.7,1846.08 2043.05,1844.73L2043.27,1843.74Z" style="fill-rule:nonzero;"/>
        </g>
    </g>
</svg>
