<?xml version="1.0" encoding="UTF-8" standalone="no"?>
<!DOCTYPE svg PUBLIC "-//W3C//DTD SVG 1.1//EN" "http://www.w3.org/Graphics/SVG/1.1/DTD/svg11.dtd">
<svg width="100%" height="100%" viewBox="0 0 89 89" version="1.1" xmlns="http://www.w3.org/2000/svg" xmlns:xlink="http://www.w3.org/1999/xlink" xml:space="preserve" xmlns:serif="http://www.serif.com/" style="fill-rule:evenodd;clip-rule:evenodd;stroke-linejoin:round;stroke-miterlimit:2;">
    <g transform="matrix(1,0,0,1,-858.708,-2071.63)">
        <g transform="matrix(1.41414,0,0,1.41429,-177.055,-770.755)">
            <path d="M794.796,2072.13L794.796,2009.77L732.433,2009.77L732.433,2072.13L794.796,2072.13ZM766.796,2037.91C772.029,2039.25 775.847,2041.8 775.847,2047.38C775.847,2052.97 770.756,2057.14 763.402,2057.14C758.453,2057.14 753.221,2055.59 750.534,2050.92C750.392,2050.5 750.322,2050.21 750.322,2049.86C750.322,2048.45 751.806,2046.32 753.362,2046.32C754.211,2046.32 754.635,2046.82 754.918,2047.38C756.332,2050.78 758.17,2051.98 763.402,2051.98C768.069,2051.98 770.473,2049.51 770.473,2047.53C770.473,2045.33 769.483,2043.78 765.241,2042.79L759.231,2041.38C754.564,2040.24 751.806,2038.05 751.806,2033.74C751.806,2028.22 757.604,2024.97 763.756,2024.97C768.493,2024.97 772.241,2026.74 774.079,2029.07C774.362,2029.42 774.503,2029.85 774.503,2030.34C774.503,2031.69 773.584,2033.67 771.746,2033.67C771.18,2033.67 770.615,2033.31 770.049,2032.47C769.483,2031.55 767.716,2029.92 763.756,2029.92C759.16,2029.92 757.11,2031.9 757.11,2033.81C757.11,2034.73 757.675,2035.72 760.998,2036.5L766.796,2037.91Z" style="fill-rule:nonzero;"/>
        </g>
    </g>
</svg>
