<?xml version="1.0" encoding="UTF-8" standalone="no"?>
<!DOCTYPE svg PUBLIC "-//W3C//DTD SVG 1.1//EN" "http://www.w3.org/Graphics/SVG/1.1/DTD/svg11.dtd">
<svg width="100%" height="100%" viewBox="0 0 89 89" version="1.1" xmlns="http://www.w3.org/2000/svg" xmlns:xlink="http://www.w3.org/1999/xlink" xml:space="preserve" xmlns:serif="http://www.serif.com/" style="fill-rule:evenodd;clip-rule:evenodd;stroke-linejoin:round;stroke-miterlimit:2;">
    <g transform="matrix(1,0,0,1,-758.718,-571.632)">
        <g transform="matrix(1.41414,0,0,1.41429,-177.055,-770.755)">
            <path d="M724.089,1011.53L724.089,949.162L661.726,949.162L661.726,1011.53L724.089,1011.53ZM700.897,960.405C701.039,960.122 701.251,959.91 701.322,959.769C701.887,958.849 702.806,958.566 703.584,958.566C704.716,958.566 706.978,959.203 706.978,960.9C706.978,961.536 706.413,962.385 706.13,962.809C702.594,967.122 699.625,971.93 697.574,975.89C699.2,975.041 701.039,974.546 703.089,974.546C710.514,974.546 715.604,980.132 715.604,987.627C715.604,995.829 711.15,1002.33 702.17,1002.33C693.897,1002.33 688.736,996.465 688.736,989.183C688.736,979.354 696.514,967.122 700.615,960.829L700.897,960.405ZM681.099,994.132C681.099,995.688 681.17,999.011 681.241,1000.43C681.241,1001.49 680.463,1002.12 679.332,1002.12C677.776,1002.12 675.796,1000.85 675.796,999.506C675.796,998.587 675.938,995.688 675.938,994.486L675.938,966.981C674.736,967.617 671.837,968.819 670.776,968.819C669.291,968.819 667.594,967.476 667.594,966.486C667.594,965.566 668.231,965.142 668.796,964.93C671.413,963.87 673.887,962.385 675.443,961.112L675.726,960.758L676.362,960.122C676.998,959.415 677.776,958.92 678.413,958.92C679.685,958.92 681.453,960.405 681.453,962.102C681.453,963.021 681.099,964.011 681.099,965.637L681.099,994.132ZM702.17,997.314C707.261,997.314 710.372,993.496 710.372,987.769C710.372,983.385 707.473,979.566 703.019,979.566C697.503,979.566 693.897,984.021 693.897,989.112C693.897,993.779 696.867,997.314 702.17,997.314Z" style="fill-rule:nonzero;"/>
        </g>
    </g>
</svg>
