<?xml version="1.0" encoding="UTF-8" standalone="no"?>
<!DOCTYPE svg PUBLIC "-//W3C//DTD SVG 1.1//EN" "http://www.w3.org/Graphics/SVG/1.1/DTD/svg11.dtd">
<svg width="100%" height="100%" viewBox="0 0 89 89" version="1.1" xmlns="http://www.w3.org/2000/svg" xmlns:xlink="http://www.w3.org/1999/xlink" xml:space="preserve" xmlns:serif="http://www.serif.com/" style="fill-rule:evenodd;clip-rule:evenodd;stroke-linejoin:round;stroke-miterlimit:2;">
    <g transform="matrix(1,0,0,1,-2302.43,-1892.27)">
        <g transform="matrix(1.41414,0,0,1.41429,-1052.39,-837.704)">
            <path d="M2429.19,1992.65C2432.58,1992.65 2434.7,1990.11 2434.7,1987.14L2434.7,1935.8C2434.7,1932.34 2432.23,1930.29 2429.19,1930.29L2377.85,1930.29C2374.39,1930.29 2372.34,1932.62 2372.34,1935.8L2372.34,1987.14C2372.34,1990.32 2374.81,1992.65 2377.85,1992.65L2429.19,1992.65ZM2403.73,1946.97C2401.54,1946.97 2399.77,1944.64 2399.77,1942.73C2399.77,1940.75 2401.04,1939.2 2403.17,1939.2C2405.29,1939.2 2407.05,1941.6 2407.05,1943.58C2407.05,1945.56 2405.78,1946.97 2403.73,1946.97ZM2406.21,1975.82C2406.21,1976.53 2406.35,1980.77 2406.35,1982.19C2406.35,1983.11 2405.71,1983.74 2404.44,1983.74C2402.81,1983.74 2400.62,1982.47 2400.62,1981.06C2400.62,1980.14 2400.76,1976.67 2400.76,1975.82L2400.76,1959.98C2400.76,1958.85 2400.62,1954.96 2400.62,1953.55C2400.62,1952.63 2401.26,1952 2402.53,1952C2404.09,1952 2406.28,1953.27 2406.28,1954.61C2406.28,1955.6 2406.21,1958.57 2406.21,1959.98L2406.21,1975.82Z" style="fill-rule:nonzero;"/>
        </g>
    </g>
</svg>
