<?xml version="1.0" encoding="UTF-8" standalone="no"?>
<!DOCTYPE svg PUBLIC "-//W3C//DTD SVG 1.1//EN" "http://www.w3.org/Graphics/SVG/1.1/DTD/svg11.dtd">
<svg width="100%" height="100%" viewBox="0 0 89 89" version="1.1" xmlns="http://www.w3.org/2000/svg" xmlns:xlink="http://www.w3.org/1999/xlink" xml:space="preserve" xmlns:serif="http://www.serif.com/" style="fill-rule:evenodd;clip-rule:evenodd;stroke-linejoin:round;stroke-miterlimit:2;">
    <g transform="matrix(1,0,0,1,-958.698,-1471.63)">
        <g transform="matrix(1.41414,0,0,1.41429,-177.055,-770.755)">
            <path d="M865.503,1647.89L865.503,1585.53L803.14,1585.53L803.14,1647.89L865.503,1647.89ZM857.372,1601.36C858.433,1601.36 859.211,1602.28 859.211,1603.49C859.211,1606.31 851.998,1612.61 850.867,1613.53C856.524,1616.5 859.493,1620.31 859.493,1626.11C859.493,1633.82 854.049,1638.7 846.342,1638.7C839.271,1638.7 834.817,1633.61 834.817,1626.89C834.817,1621.73 837.503,1617.84 841.604,1614.44C837.786,1612.04 836.443,1609.42 836.443,1605.61C836.443,1599.95 840.544,1595.07 847.261,1595.07C851.645,1595.07 854.827,1597.9 856.948,1601.15C856.948,1601.22 856.948,1601.29 857.019,1601.36L857.372,1601.36ZM813.604,1634.67L813.604,1634.45C820.251,1614.52 823.291,1607.02 825.766,1601.08L813.534,1602.21C812.968,1602.28 812.402,1602.35 811.908,1602.35C809.503,1602.35 808.301,1599.53 808.301,1598.39C808.301,1597.97 808.514,1596.98 809.574,1596.98C810.211,1596.98 810.705,1597.05 811.554,1597.05L812.261,1597.05L826.685,1595.99C827.039,1595.99 827.392,1595.85 827.675,1595.78C828.099,1595.64 828.594,1595.57 829.019,1595.57L829.231,1595.57C830.433,1595.78 832.271,1597.4 832.271,1599.03L832.271,1599.31C832.2,1600.09 831.847,1600.73 831.564,1601.22C827.463,1609.42 819.968,1630.42 818.837,1636.65C818.554,1638.13 817.281,1638.34 816.362,1638.34C816.15,1638.34 815.867,1638.27 815.584,1638.27C814.099,1638.06 813.251,1637.28 813.251,1636.08C813.251,1635.66 813.392,1635.23 813.463,1635.02L813.604,1634.67ZM846.342,1616.92C841.958,1620.38 839.766,1623.35 839.766,1626.75C839.766,1630.14 841.675,1633.54 846.342,1633.54C851.362,1633.54 854.544,1630.5 854.544,1626.39C854.544,1622.86 853.059,1620.1 847.12,1617.27C846.908,1617.13 846.625,1616.99 846.342,1616.92ZM852.776,1604.12C851.362,1601.51 849.806,1600.09 847.332,1600.09C843.16,1600.09 841.322,1602.92 841.322,1605.61C841.322,1607.8 842.099,1609.07 846.059,1611.12C848.746,1609.21 851.079,1606.95 853.2,1604.76L852.776,1604.12Z" style="fill-rule:nonzero;"/>
        </g>
    </g>
</svg>
