<?xml version="1.0" encoding="UTF-8" standalone="no"?>
<!DOCTYPE svg PUBLIC "-//W3C//DTD SVG 1.1//EN" "http://www.w3.org/Graphics/SVG/1.1/DTD/svg11.dtd">
<svg width="100%" height="100%" viewBox="0 0 89 89" version="1.1" xmlns="http://www.w3.org/2000/svg" xmlns:xlink="http://www.w3.org/1999/xlink" xml:space="preserve" xmlns:serif="http://www.serif.com/" style="fill-rule:evenodd;clip-rule:evenodd;stroke-linejoin:round;stroke-miterlimit:2;">
    <g transform="matrix(1,0,0,1,-158.78,-1471.63)">
        <g transform="matrix(1.41414,0,0,1.41429,-177.055,-770.755)">
            <path d="M299.847,1647.89L299.847,1585.53L237.483,1585.53L237.483,1647.89L299.847,1647.89ZM276.231,1598.11C277.857,1596.2 279.978,1594.93 282.524,1594.93C289.806,1594.93 293.271,1604.55 293.271,1615.93C293.271,1627.53 289.736,1638.7 281.322,1638.7C273.332,1638.7 269.938,1629.01 269.938,1617.41C269.938,1609.35 272.625,1598.04 275.665,1598.04C275.877,1598.04 276.019,1598.04 276.231,1598.11ZM281.11,1633.54C285.988,1633.54 288.392,1625.55 288.392,1615.51C288.392,1607.16 286.413,1599.95 282.312,1599.95C279.554,1599.95 274.817,1605.11 274.817,1617.34C274.817,1627.03 276.796,1633.54 281.11,1633.54ZM248.938,1634.67C249.009,1634.6 249.009,1634.6 249.009,1634.45L250.352,1630.21C253.251,1621.16 257.069,1610.84 261.17,1601.08L248.938,1602.21C248.372,1602.28 247.806,1602.35 247.312,1602.35C244.908,1602.35 243.705,1599.53 243.705,1598.39C243.705,1597.97 243.918,1596.98 244.978,1596.98C245.544,1596.98 246.11,1597.05 246.958,1597.05L247.665,1597.05L262.089,1595.99C262.443,1595.99 262.726,1595.85 263.079,1595.78C263.503,1595.64 263.928,1595.57 264.352,1595.57L264.564,1595.57C265.837,1595.78 267.675,1597.4 267.675,1599.03L267.675,1599.31C267.675,1599.45 267.392,1600.87 266.261,1602.35C260.817,1614.87 255.301,1630.78 254.241,1636.65C253.887,1638.13 252.685,1638.34 251.766,1638.34C251.554,1638.34 251.271,1638.27 250.918,1638.27C249.433,1638.06 248.655,1637.28 248.655,1636.08C248.655,1635.66 248.796,1635.23 248.867,1635.02L248.938,1634.67Z" style="fill-rule:nonzero;"/>
        </g>
    </g>
</svg>
