<?xml version="1.0" encoding="UTF-8" standalone="no"?>
<!DOCTYPE svg PUBLIC "-//W3C//DTD SVG 1.1//EN" "http://www.w3.org/Graphics/SVG/1.1/DTD/svg11.dtd">
<svg width="100%" height="100%" viewBox="0 0 96 96" version="1.1" xmlns="http://www.w3.org/2000/svg" xmlns:xlink="http://www.w3.org/1999/xlink" xml:space="preserve" xmlns:serif="http://www.serif.com/" style="fill-rule:evenodd;clip-rule:evenodd;stroke-linejoin:round;stroke-miterlimit:2;">
    <g transform="matrix(1,0,0,1,-809.628,-3623.28)">
        <g transform="matrix(1,0,0,1,-110.019,-3591.86)">
            <path d="M1015.25,7262.94C1015.25,7236.55 993.848,7215.15 967.448,7215.15C941.048,7215.15 919.648,7236.55 919.648,7262.94C919.648,7289.35 941.048,7310.65 967.448,7310.65C993.848,7310.65 1015.25,7289.35 1015.25,7262.94ZM954.048,7258.44C961.448,7262.55 965.348,7267.85 965.348,7275.85C965.348,7286.65 958.248,7293.35 948.148,7293.35C938.748,7293.35 932.948,7286.24 932.948,7276.94C932.948,7269.85 936.448,7264.35 941.848,7259.74C936.748,7256.35 935.048,7252.74 935.048,7247.44C935.048,7239.55 940.448,7232.85 949.248,7232.85C955.148,7232.85 959.248,7236.74 962.048,7241.35C962.048,7241.44 962.048,7241.55 962.148,7241.65C962.248,7241.65 962.448,7241.55 962.648,7241.55C964.048,7241.55 965.048,7242.94 965.048,7244.55C965.048,7248.15 955.948,7256.94 954.048,7258.44ZM999.948,7241.65C1000.05,7241.65 1000.25,7241.55 1000.35,7241.55C1001.85,7241.55 1002.85,7242.94 1002.85,7244.55C1002.85,7248.44 992.548,7257.85 991.748,7258.44C999.248,7262.55 1003.15,7267.85 1003.15,7275.85C1003.15,7286.65 996.048,7293.35 985.848,7293.35C976.548,7293.35 970.748,7286.24 970.748,7276.94C970.748,7269.85 974.148,7264.35 979.648,7259.74C974.548,7256.35 972.848,7252.74 972.848,7247.44C972.848,7239.55 978.248,7232.85 987.048,7232.85C992.848,7232.85 997.048,7236.74 999.748,7241.35L999.948,7241.65ZM985.848,7263.15C980.048,7267.94 977.148,7272.05 977.148,7276.74C977.148,7281.44 979.748,7286.15 985.848,7286.15C992.448,7286.15 996.748,7281.94 996.748,7276.24C996.748,7271.35 994.748,7267.55 986.948,7263.65C986.648,7263.44 986.248,7263.24 985.848,7263.15ZM948.148,7263.15C942.248,7267.94 939.348,7272.05 939.348,7276.74C939.348,7281.44 941.948,7286.15 948.148,7286.15C954.648,7286.15 958.948,7281.94 958.948,7276.24C958.948,7271.35 956.948,7267.55 949.148,7263.65L948.148,7263.15ZM957.148,7246.24C956.948,7245.94 956.748,7245.74 956.548,7245.35C954.648,7241.85 952.648,7239.85 949.348,7239.85C943.848,7239.85 941.448,7243.74 941.448,7247.44C941.448,7250.55 942.448,7252.24 947.748,7255.15C951.248,7252.44 954.348,7249.35 957.148,7246.24ZM994.948,7246.24C994.748,7245.94 994.548,7245.74 994.348,7245.35C992.448,7241.85 990.448,7239.85 987.148,7239.85C981.648,7239.85 979.248,7243.74 979.248,7247.44C979.248,7250.55 980.248,7252.24 985.548,7255.15C989.048,7252.44 992.148,7249.35 994.948,7246.24Z" style="fill-rule:nonzero;"/>
        </g>
    </g>
</svg>
