<?xml version="1.0" encoding="UTF-8" standalone="no"?>
<!DOCTYPE svg PUBLIC "-//W3C//DTD SVG 1.1//EN" "http://www.w3.org/Graphics/SVG/1.1/DTD/svg11.dtd">
<svg width="100%" height="100%" viewBox="0 0 96 96" version="1.1" xmlns="http://www.w3.org/2000/svg" xmlns:xlink="http://www.w3.org/1999/xlink" xml:space="preserve" xmlns:serif="http://www.serif.com/" style="fill-rule:evenodd;clip-rule:evenodd;stroke-linejoin:round;stroke-miterlimit:2;">
    <g transform="matrix(1,0,0,1,-409.628,-3623.28)">
        <g transform="matrix(1,0,0,1,-110.019,-3591.86)">
            <path d="M615.248,7262.94C615.248,7236.55 593.848,7215.15 567.448,7215.15C541.048,7215.15 519.648,7236.55 519.648,7262.94C519.648,7289.35 541.048,7310.65 567.448,7310.65C593.848,7310.65 615.248,7289.35 615.248,7262.94ZM563.148,7241.65C563.248,7241.65 563.448,7241.55 563.548,7241.55C565.048,7241.55 566.048,7242.94 566.048,7244.55C566.048,7248.35 556.048,7257.55 554.948,7258.44C562.448,7262.55 566.348,7267.85 566.348,7275.85C566.348,7286.65 559.248,7293.35 549.148,7293.35C539.748,7293.35 533.948,7286.24 533.948,7276.94C533.948,7269.85 537.348,7264.35 542.848,7259.74C537.748,7256.35 536.048,7252.74 536.048,7247.44C536.048,7239.55 541.448,7232.85 550.248,7232.85C556.148,7232.85 560.248,7236.74 562.948,7241.35L563.148,7241.65ZM596.848,7282.55C596.848,7285.74 597.148,7288.94 597.148,7290.74C597.148,7291.94 596.348,7293.05 594.748,7293.05C592.848,7293.05 590.248,7291.35 590.248,7289.35C590.248,7288.05 590.448,7283.55 590.448,7282.35L590.448,7279.55L576.748,7280.05C576.348,7280.05 575.448,7280.15 573.748,7280.65L573.948,7280.55L573.748,7280.55C571.648,7280.55 569.548,7278.15 569.548,7275.44C569.548,7274.85 569.648,7273.94 570.148,7273.05C573.548,7268.24 585.448,7243.24 588.048,7234.44C588.448,7233.15 589.348,7232.94 589.948,7232.94C591.848,7232.94 594.148,7236.15 594.148,7238.44C594.148,7239.05 594.048,7239.65 593.748,7240.15C593.048,7241.35 592.048,7243.05 591.548,7244.35C588.048,7252.35 582.548,7263.85 577.948,7272.94L590.448,7272.65L590.448,7257.55C590.448,7255.94 590.248,7250.85 590.248,7249.05C590.248,7247.94 591.148,7246.74 592.648,7246.74C594.548,7246.74 597.048,7248.44 597.048,7250.55C597.048,7251.74 596.848,7255.65 596.848,7257.55L596.848,7272.35C598.048,7272.24 599.848,7271.85 600.748,7271.85C602.948,7271.85 604.048,7275.44 604.048,7276.94C604.048,7277.65 603.848,7279.55 602.148,7279.55C601.248,7279.55 598.748,7279.35 596.848,7279.35L596.848,7282.55ZM549.048,7263.15C543.248,7267.94 540.348,7272.05 540.348,7276.74C540.348,7281.44 542.948,7286.15 549.148,7286.15C555.648,7286.15 559.948,7281.94 559.948,7276.24C559.948,7271.35 557.948,7267.55 550.148,7263.65C549.848,7263.44 549.448,7263.24 549.048,7263.15ZM558.148,7246.24C557.948,7245.94 557.748,7245.74 557.548,7245.35C555.648,7241.85 553.648,7239.85 550.348,7239.85C544.848,7239.85 542.448,7243.74 542.448,7247.44C542.448,7250.55 543.448,7252.24 548.748,7255.15C552.248,7252.44 555.348,7249.35 558.148,7246.24Z" style="fill-rule:nonzero;"/>
        </g>
    </g>
</svg>
