<?xml version="1.0" encoding="UTF-8" standalone="no"?>
<!DOCTYPE svg PUBLIC "-//W3C//DTD SVG 1.1//EN" "http://www.w3.org/Graphics/SVG/1.1/DTD/svg11.dtd">
<svg width="100%" height="100%" viewBox="0 0 96 96" version="1.1" xmlns="http://www.w3.org/2000/svg" xmlns:xlink="http://www.w3.org/1999/xlink" xml:space="preserve" xmlns:serif="http://www.serif.com/" style="fill-rule:evenodd;clip-rule:evenodd;stroke-linejoin:round;stroke-miterlimit:2;">
    <g transform="matrix(1,0,0,1,-1809.63,-3323.28)">
        <g transform="matrix(1,0,0,1,-110.019,-3591.86)">
            <path d="M2015.25,6962.94C2015.25,6936.55 1993.85,6915.15 1967.45,6915.15C1941.05,6915.15 1919.65,6936.55 1919.65,6962.94C1919.65,6989.35 1941.05,7010.65 1967.45,7010.65C1993.85,7010.65 2015.25,6989.35 2015.25,6962.94ZM1990.45,6958.44C1997.85,6962.55 2001.85,6967.85 2001.85,6975.85C2001.85,6986.65 1994.65,6993.35 1984.55,6993.35C1975.15,6993.35 1969.35,6986.24 1969.35,6976.94C1969.35,6969.85 1972.85,6964.35 1978.25,6959.74C1973.25,6956.35 1971.45,6952.74 1971.45,6947.44C1971.45,6939.55 1976.95,6932.85 1985.75,6932.85C1991.55,6932.85 1995.65,6936.74 1998.45,6941.35C1998.45,6941.44 1998.55,6941.55 1998.55,6941.65C1998.75,6941.65 1998.85,6941.55 1999.05,6941.55C2000.45,6941.55 2001.45,6942.94 2001.45,6944.55C2001.45,6948.55 1991.65,6957.55 1990.45,6958.44ZM1939.75,6967.24C1939.35,6967.74 1938.95,6967.85 1938.35,6967.85C1936.65,6967.85 1934.35,6965.85 1934.35,6962.94C1934.35,6962.65 1934.35,6962.15 1934.45,6961.65C1934.75,6960.65 1934.85,6959.74 1935.05,6959.05L1936.75,6939.85C1936.75,6938.85 1936.85,6937.55 1936.85,6936.55C1936.85,6934.74 1938.15,6934.24 1939.05,6934.24C1939.95,6934.24 1940.95,6934.65 1941.85,6935.15L1954.35,6934.24C1955.45,6934.15 1957.35,6934.05 1958.55,6933.74L1958.95,6933.74C1960.95,6933.74 1962.05,6937.15 1962.05,6938.55C1962.05,6939.65 1961.55,6941.05 1960.15,6941.05L1954.95,6941.35L1942.65,6942.24L1941.35,6956.94C1943.75,6955.24 1946.55,6954.24 1950.15,6954.24C1958.15,6954.24 1964.75,6961.15 1964.75,6972.74C1964.75,6983.44 1959.65,6993.35 1947.15,6993.35C1941.15,6993.35 1936.75,6989.85 1933.45,6985.65C1932.85,6984.85 1932.55,6983.94 1932.55,6982.94C1932.55,6981.15 1933.75,6977.55 1935.85,6977.55C1936.65,6977.55 1937.25,6978.15 1937.65,6978.85C1939.95,6982.94 1942.85,6986.05 1947.15,6986.05C1955.15,6986.05 1958.35,6979.94 1958.35,6972.85C1958.35,6965.35 1954.85,6961.24 1949.55,6961.24C1946.35,6961.24 1943.75,6962.85 1941.65,6965.15L1939.75,6967.24ZM1984.55,6963.15C1978.75,6967.94 1975.85,6972.05 1975.85,6976.74C1975.85,6981.44 1978.35,6986.15 1984.55,6986.15C1991.05,6986.15 1995.35,6981.94 1995.35,6976.24C1995.35,6971.35 1993.35,6967.55 1985.55,6963.65L1984.55,6963.15ZM1993.55,6946.24C1993.35,6945.94 1993.15,6945.74 1993.05,6945.35C1991.15,6941.85 1989.15,6939.85 1985.85,6939.85C1980.35,6939.85 1977.95,6943.74 1977.95,6947.44C1977.95,6950.55 1978.95,6952.24 1984.15,6955.15C1987.75,6952.44 1990.85,6949.35 1993.55,6946.24Z" style="fill-rule:nonzero;"/>
        </g>
    </g>
</svg>
