<?xml version="1.0" encoding="UTF-8" standalone="no"?>
<!DOCTYPE svg PUBLIC "-//W3C//DTD SVG 1.1//EN" "http://www.w3.org/Graphics/SVG/1.1/DTD/svg11.dtd">
<svg width="100%" height="100%" viewBox="0 0 96 96" version="1.1" xmlns="http://www.w3.org/2000/svg" xmlns:xlink="http://www.w3.org/1999/xlink" xml:space="preserve" xmlns:serif="http://www.serif.com/" style="fill-rule:evenodd;clip-rule:evenodd;stroke-linejoin:round;stroke-miterlimit:2;">
    <g transform="matrix(1,0,0,1,-1209.63,-3323.28)">
        <g transform="matrix(1,0,0,1,-110.019,-3591.86)">
            <path d="M1415.25,6962.94C1415.25,6936.55 1393.85,6915.15 1367.45,6915.15C1341.05,6915.15 1319.65,6936.55 1319.65,6962.94C1319.65,6989.35 1341.05,7010.65 1367.45,7010.65C1393.85,7010.65 1415.25,6989.35 1415.25,6962.94ZM1341.75,6956.94C1344.25,6955.24 1347.25,6954.24 1351.05,6954.24C1359.45,6954.24 1366.45,6961.15 1366.45,6972.74C1366.45,6983.44 1361.05,6993.35 1347.85,6993.35C1341.55,6993.35 1336.85,6989.85 1333.35,6985.65C1332.75,6984.85 1332.45,6983.94 1332.45,6982.94C1332.45,6981.15 1333.65,6977.55 1335.95,6977.55C1336.85,6977.55 1337.45,6978.15 1337.75,6978.85C1340.25,6982.94 1343.25,6986.05 1347.85,6986.05C1356.35,6986.05 1359.65,6979.94 1359.65,6972.85C1359.65,6965.35 1355.95,6961.24 1350.35,6961.24C1347.05,6961.24 1344.25,6962.85 1342.05,6965.15C1341.75,6965.55 1340.85,6966.55 1340.05,6967.24C1339.65,6967.74 1339.25,6967.85 1338.55,6967.85C1336.75,6967.85 1334.35,6965.85 1334.35,6962.94C1334.35,6962.65 1334.35,6962.15 1334.45,6961.65C1334.75,6960.65 1334.95,6959.74 1335.05,6959.05L1336.85,6939.85C1336.95,6938.85 1336.95,6937.55 1336.95,6936.55C1336.95,6934.74 1338.35,6934.24 1339.25,6934.24C1340.25,6934.24 1341.35,6934.65 1342.25,6935.15L1355.35,6934.24C1356.65,6934.15 1358.65,6934.05 1359.95,6933.74L1360.25,6933.74C1362.45,6933.74 1363.65,6937.15 1363.65,6938.55C1363.65,6939.65 1363.05,6941.05 1361.55,6941.05L1356.05,6941.35L1343.15,6942.24L1341.75,6956.94ZM1373.25,6992.35C1370.85,6992.35 1369.35,6989.35 1369.35,6987.44C1369.35,6986.85 1369.45,6986.05 1369.95,6985.35C1370.55,6984.44 1370.95,6983.94 1371.35,6983.24C1374.15,6977.44 1379.25,6968.85 1385.45,6962.44C1391.45,6956.35 1394.75,6951.85 1394.75,6947.35C1394.75,6943.24 1392.05,6939.85 1387.45,6939.85C1382.45,6939.85 1379.05,6943.05 1377.55,6947.24C1377.25,6948.35 1376.35,6950.15 1374.65,6950.15C1373.15,6950.15 1370.55,6947.85 1370.55,6945.44C1370.55,6942.94 1375.65,6932.74 1387.65,6932.74C1396.25,6932.74 1401.95,6938.85 1401.95,6947.35C1401.95,6955.35 1396.75,6961.35 1390.05,6967.94C1384.75,6973.15 1380.85,6979.65 1378.35,6984.65C1380.75,6984.55 1383.45,6984.44 1385.45,6984.44C1389.05,6984.44 1391.35,6984.55 1394.35,6984.55C1395.55,6984.55 1397.95,6984.44 1398.85,6984.44C1401.35,6984.44 1402.55,6987.94 1402.55,6989.44C1402.55,6990.55 1401.85,6991.94 1400.25,6991.94C1394.35,6991.35 1386.05,6991.35 1384.75,6991.35C1382.25,6991.35 1379.85,6991.35 1376.95,6991.74C1376.25,6991.74 1374.25,6992.24 1373.75,6992.35L1373.25,6992.35Z" style="fill-rule:nonzero;"/>
        </g>
    </g>
</svg>
