<?xml version="1.0" encoding="UTF-8" standalone="no"?>
<!DOCTYPE svg PUBLIC "-//W3C//DTD SVG 1.1//EN" "http://www.w3.org/Graphics/SVG/1.1/DTD/svg11.dtd">
<svg width="100%" height="100%" viewBox="0 0 89 89" version="1.1" xmlns="http://www.w3.org/2000/svg" xmlns:xlink="http://www.w3.org/1999/xlink" xml:space="preserve" xmlns:serif="http://www.serif.com/" style="fill-rule:evenodd;clip-rule:evenodd;stroke-linejoin:round;stroke-miterlimit:2;">
    <g transform="matrix(1,0,0,1,-858.708,-1771.63)">
        <g transform="matrix(1.41414,0,0,1.41429,-177.055,-770.755)">
            <path d="M794.796,1860.01L794.796,1797.65L732.433,1797.65L732.433,1860.01L794.796,1860.01ZM754.847,1831.02C752.655,1833.35 749.756,1834.84 746.998,1834.84C741.837,1834.84 738.301,1830.53 738.301,1823.53C738.301,1815.39 743.746,1807.12 751.17,1807.12C754.705,1807.12 756.968,1808.82 758.382,1810.44C758.524,1809.74 758.877,1808.75 760.009,1808.75C761.493,1808.75 762.978,1810.09 762.978,1811.72L762.978,1812.07C762.766,1812.99 762.413,1813.98 762.342,1814.26C760.15,1825.15 757.18,1843.39 756.968,1848.34C756.827,1850.11 755.059,1850.54 753.928,1850.54C752.726,1850.54 751.948,1849.9 751.948,1848.56C751.948,1847.78 752.655,1844.1 753.009,1842.55L754.847,1831.02ZM771.746,1846.79C771.746,1846.72 771.817,1846.72 771.817,1846.58C774.928,1835.83 779.029,1824.02 783.271,1813.2L771.746,1814.33C771.18,1814.4 770.685,1814.48 770.19,1814.48C768.14,1814.48 766.726,1811.72 766.726,1810.52C766.726,1810.09 767.009,1809.1 767.998,1809.1C768.564,1809.1 769.059,1809.17 769.908,1809.17L770.544,1809.17L784.19,1808.11C784.544,1808.11 784.827,1807.97 785.11,1807.9C785.534,1807.76 785.958,1807.69 786.382,1807.69L786.594,1807.69C787.726,1807.9 789.493,1809.53 789.493,1811.15L789.493,1811.43C789.352,1812.21 789.069,1812.85 788.786,1813.34C784.897,1821.12 778.746,1839.29 776.695,1848.77C776.483,1850.25 775.281,1850.47 774.362,1850.47C774.221,1850.47 773.938,1850.39 773.655,1850.39C772.241,1850.18 771.463,1849.4 771.463,1848.2C771.463,1847.78 771.604,1847.35 771.675,1847.14L771.746,1846.79ZM757.251,1817.16C756.685,1816.95 756.402,1816.38 756.19,1815.96C755.625,1814.48 754.352,1812.21 751.382,1812.21C746.15,1812.21 742.968,1818.43 742.968,1823.31C742.968,1827.91 744.453,1829.61 746.928,1829.61C753.857,1829.61 756.685,1819.5 757.039,1818.15L757.251,1817.16Z" style="fill-rule:nonzero;"/>
        </g>
    </g>
</svg>
