<?xml version="1.0" encoding="UTF-8" standalone="no"?>
<!DOCTYPE svg PUBLIC "-//W3C//DTD SVG 1.1//EN" "http://www.w3.org/Graphics/SVG/1.1/DTD/svg11.dtd">
<svg width="100%" height="100%" viewBox="0 0 89 89" version="1.1" xmlns="http://www.w3.org/2000/svg" xmlns:xlink="http://www.w3.org/1999/xlink" xml:space="preserve" xmlns:serif="http://www.serif.com/" style="fill-rule:evenodd;clip-rule:evenodd;stroke-linejoin:round;stroke-miterlimit:2;">
    <g transform="matrix(1,0,0,1,-958.698,-2071.63)">
        <g transform="matrix(1.41414,0,0,1.41429,-177.055,-770.755)">
            <path d="M865.503,2072.13L865.503,2009.77L803.14,2009.77L803.14,2072.13L865.503,2072.13ZM834.887,2053.75C834.887,2056.15 834.887,2056.86 836.16,2056.86C837.503,2056.86 839.342,2055.94 841.463,2054.31C842.099,2053.82 842.877,2053.39 843.584,2053.39C844.645,2053.39 845.14,2054.17 845.14,2054.95C845.14,2057 840.12,2062.23 835.877,2062.23C830.786,2062.23 829.584,2058.77 829.584,2053.61L829.584,2035.36L826.615,2035.58L826.473,2035.58C824.635,2035.58 823.574,2033.46 823.574,2032.32C823.574,2031.48 824.211,2030.63 825.271,2030.63L829.584,2030.63L829.584,2028.51C829.584,2027.38 829.443,2023.49 829.443,2022.07C829.443,2020.73 830.786,2020.44 831.423,2020.44C832.413,2020.44 835.029,2021.15 835.029,2023.13C835.029,2024.12 834.887,2027.09 834.887,2028.51L834.887,2030.41L835.594,2030.41C837.079,2030.34 839.483,2030.06 840.332,2030.06C842.17,2030.06 843.16,2032.11 843.16,2033.24C843.16,2034.09 842.594,2035.01 841.463,2035.01C840.615,2035.01 837.928,2035.01 836.372,2035.08L834.887,2035.15L834.887,2053.75Z" style="fill-rule:nonzero;"/>
        </g>
    </g>
</svg>
