<?xml version="1.0" encoding="UTF-8" standalone="no"?>
<!DOCTYPE svg PUBLIC "-//W3C//DTD SVG 1.1//EN" "http://www.w3.org/Graphics/SVG/1.1/DTD/svg11.dtd">
<svg width="100%" height="100%" viewBox="0 0 89 89" version="1.1" xmlns="http://www.w3.org/2000/svg" xmlns:xlink="http://www.w3.org/1999/xlink" xml:space="preserve" xmlns:serif="http://www.serif.com/" style="fill-rule:evenodd;clip-rule:evenodd;stroke-linejoin:round;stroke-miterlimit:2;">
    <g transform="matrix(1,0,0,1,-1602.51,-1592.27)">
        <g transform="matrix(1.41414,0,0,1.41429,-1052.39,-837.704)">
            <path d="M1934.24,1780.53C1937.63,1780.53 1939.75,1777.98 1939.75,1775.02L1939.75,1723.68C1939.75,1720.22 1937.28,1718.17 1934.24,1718.17L1882.9,1718.17C1879.44,1718.17 1877.39,1720.5 1877.39,1723.68L1877.39,1775.02C1877.39,1778.2 1879.86,1780.53 1882.9,1780.53L1934.24,1780.53ZM1908.78,1734.01C1909.98,1734.01 1910.76,1734.92 1910.76,1736.13C1910.76,1739.03 1902.42,1745.81 1901.92,1746.17C1907.86,1749.14 1911.04,1752.95 1911.04,1758.75C1911.04,1766.46 1905.32,1771.34 1897.19,1771.34C1889.69,1771.34 1885.02,1766.25 1885.02,1759.53C1885.02,1754.37 1887.78,1750.48 1892.17,1747.09C1888.13,1744.68 1886.72,1742.07 1886.72,1738.25C1886.72,1732.59 1891.03,1727.71 1898.11,1727.71C1902.84,1727.71 1906.1,1730.54 1908.36,1733.79C1908.36,1733.86 1908.43,1733.93 1908.43,1734.01L1908.78,1734.01ZM1928.15,1763.14C1928.15,1764.69 1928.23,1768.02 1928.3,1769.43C1928.3,1770.49 1927.52,1771.13 1926.39,1771.13C1924.83,1771.13 1922.85,1769.85 1922.85,1768.51C1922.85,1767.59 1922.99,1764.69 1922.99,1763.49L1922.99,1735.98C1921.79,1736.62 1918.89,1737.82 1917.83,1737.82C1916.35,1737.82 1914.65,1736.48 1914.65,1735.49C1914.65,1734.57 1915.29,1734.15 1915.85,1733.93C1918.47,1732.87 1920.94,1731.39 1922.5,1730.12L1922.78,1729.76L1923.42,1729.13C1924.12,1728.42 1924.9,1727.92 1925.47,1727.92C1926.74,1727.92 1928.51,1729.41 1928.51,1731.11C1928.51,1732.03 1928.15,1733.02 1928.15,1734.64L1928.15,1763.14ZM1897.19,1749.56C1892.52,1753.03 1890.19,1756 1890.19,1759.39C1890.19,1762.78 1892.24,1766.18 1897.19,1766.18C1902.42,1766.18 1905.88,1763.14 1905.88,1759.04C1905.88,1755.5 1904.26,1752.74 1898.03,1749.91C1897.75,1749.77 1897.47,1749.63 1897.19,1749.56ZM1904.47,1737.4C1904.26,1737.19 1904.12,1736.97 1903.97,1736.76C1902.49,1734.15 1900.86,1732.73 1898.18,1732.73C1893.79,1732.73 1891.88,1735.56 1891.88,1738.25C1891.88,1740.44 1892.66,1741.71 1896.9,1743.76C1899.73,1741.85 1902.21,1739.59 1904.47,1737.4Z" style="fill-rule:nonzero;"/>
        </g>
    </g>
</svg>
