<?xml version="1.0" encoding="UTF-8" standalone="no"?>
<!DOCTYPE svg PUBLIC "-//W3C//DTD SVG 1.1//EN" "http://www.w3.org/Graphics/SVG/1.1/DTD/svg11.dtd">
<svg width="100%" height="100%" viewBox="0 0 89 89" version="1.1" xmlns="http://www.w3.org/2000/svg" xmlns:xlink="http://www.w3.org/1999/xlink" xml:space="preserve" xmlns:serif="http://www.serif.com/" style="fill-rule:evenodd;clip-rule:evenodd;stroke-linejoin:round;stroke-miterlimit:2;">
    <g transform="matrix(1,0,0,1,-458.749,-871.632)">
        <g transform="matrix(1.41414,0,0,1.41429,-177.055,-770.755)">
            <path d="M511.968,1223.65L511.968,1161.28L449.604,1161.28L449.604,1223.65L511.968,1223.65ZM472.16,1189.71C475.908,1190.7 478.877,1194.66 478.877,1200.03C478.877,1207.74 474.847,1214.45 465.16,1214.45C461.059,1214.45 457.806,1212.69 454.908,1209.58C454.342,1208.94 454.342,1208.23 454.342,1207.67C454.342,1206.54 455.049,1203.99 456.746,1203.99C457.17,1203.99 457.524,1204.2 457.948,1204.7C459.998,1207.53 462.049,1209.29 465.16,1209.29C471.524,1209.29 473.928,1204.84 473.928,1200.1C473.928,1196.14 471.17,1193.24 467.069,1193.24C466.716,1193.24 466.362,1193.24 466.009,1193.31C465.16,1193.38 464.099,1193.53 463.251,1193.74C463.039,1193.81 463.039,1193.81 462.897,1193.81C461.2,1193.81 460.352,1191.62 460.352,1190.49C460.352,1189.71 460.776,1188.79 461.766,1188.58C467.352,1188.15 472.372,1184.97 472.372,1180.94C472.372,1177.83 470.604,1175.85 467.14,1175.85C464.382,1175.85 462.049,1177.12 459.574,1180.23C459.079,1180.87 458.655,1181.51 457.806,1181.51C456.534,1181.51 455.332,1179.6 455.332,1178.04C455.332,1177.19 455.685,1176.56 456.039,1176.2C458.867,1172.74 462.473,1170.76 467.069,1170.76C473.009,1170.76 477.251,1174.29 477.251,1180.59C477.251,1186.03 473.645,1189 472.16,1189.71ZM498.392,1189.71C502.14,1190.7 505.11,1194.66 505.11,1200.03C505.11,1207.74 501.079,1214.45 491.463,1214.45C487.362,1214.45 484.039,1212.69 481.211,1209.58C480.645,1208.94 480.574,1208.23 480.574,1207.67C480.574,1206.54 481.281,1203.99 482.978,1203.99C483.402,1203.99 483.827,1204.2 484.251,1204.7C486.301,1207.53 488.352,1209.29 491.463,1209.29C497.756,1209.29 500.16,1204.84 500.16,1200.1C500.16,1196.14 497.473,1193.24 493.372,1193.24C491.817,1193.24 490.12,1193.6 489.483,1193.74C489.342,1193.81 489.342,1193.81 489.2,1193.81C487.503,1193.81 486.655,1191.62 486.655,1190.49C486.655,1189.71 487.079,1188.79 488.069,1188.58C495.705,1187.94 498.675,1183.56 498.675,1180.94C498.675,1177.83 496.908,1175.85 493.443,1175.85C490.685,1175.85 488.281,1177.12 485.877,1180.23C485.382,1180.87 484.958,1181.51 484.11,1181.51C482.978,1181.51 481.564,1179.81 481.564,1178.04C481.564,1175.78 486.726,1170.76 493.372,1170.76C499.241,1170.76 503.554,1174.29 503.554,1180.59C503.554,1186.03 499.948,1189 498.392,1189.71Z" style="fill-rule:nonzero;"/>
        </g>
    </g>
</svg>
