<?xml version="1.0" encoding="UTF-8" standalone="no"?>
<!DOCTYPE svg PUBLIC "-//W3C//DTD SVG 1.1//EN" "http://www.w3.org/Graphics/SVG/1.1/DTD/svg11.dtd">
<svg width="100%" height="100%" viewBox="0 0 89 89" version="1.1" xmlns="http://www.w3.org/2000/svg" xmlns:xlink="http://www.w3.org/1999/xlink" xml:space="preserve" xmlns:serif="http://www.serif.com/" style="fill-rule:evenodd;clip-rule:evenodd;stroke-linejoin:round;stroke-miterlimit:2;">
    <g transform="matrix(1,0,0,1,-658.729,-271.632)">
        <g transform="matrix(1.41414,0,0,1.41429,-177.055,-770.755)">
            <path d="M653.382,799.405L653.382,737.041L591.019,737.041L591.019,799.405L653.382,799.405ZM631.322,747.223C632.029,747.152 632.736,746.94 633.443,746.94C635.211,746.94 636.342,749.344 636.342,750.546C636.342,751.324 635.847,752.385 634.574,752.385C633.443,752.385 631.604,752.385 629.695,752.526L616.332,753.375L614.423,763.839C616.897,762.496 619.655,762.001 623.685,762.001C630.968,762.001 638.251,766.526 638.251,775.364C638.251,783.779 632.594,790.213 620.928,790.213C615.271,790.213 611.382,788.516 607.211,784.415C606.645,783.849 606.503,783.001 606.503,782.364C606.503,780.597 607.776,778.688 609.12,778.688C609.827,778.688 610.463,779.041 610.887,779.678C613.574,783.496 616.544,784.981 620.928,784.981C629.271,784.981 632.736,780.95 632.736,775.435C632.736,770.132 628.918,767.092 623.19,767.092C619.655,767.092 616.897,767.587 614.493,769.637C614.14,769.779 612.867,771.263 612.796,771.334C612.443,771.617 612.089,771.829 611.524,771.829C610.11,771.829 608.13,770.203 608.13,768.223C608.13,767.87 608.837,765.395 608.837,765.395L611.241,751.536C611.382,750.829 611.382,749.91 611.382,749.274C611.382,747.93 612.584,747.577 613.291,747.577C614.14,747.577 615.13,747.859 615.978,748.284L628.988,747.364L631.322,747.223Z" style="fill-rule:nonzero;"/>
        </g>
    </g>
</svg>
