<?xml version="1.0" encoding="UTF-8" standalone="no"?>
<!DOCTYPE svg PUBLIC "-//W3C//DTD SVG 1.1//EN" "http://www.w3.org/Graphics/SVG/1.1/DTD/svg11.dtd">
<svg width="100%" height="100%" viewBox="0 0 96 96" version="1.1" xmlns="http://www.w3.org/2000/svg" xmlns:xlink="http://www.w3.org/1999/xlink" xml:space="preserve" xmlns:serif="http://www.serif.com/" style="fill-rule:evenodd;clip-rule:evenodd;stroke-linejoin:round;stroke-miterlimit:2;">
    <g transform="matrix(1,0,0,1,-1109.63,-3023.28)">
        <g transform="matrix(1,0,0,1,-110.019,-3591.86)">
            <path d="M1315.25,6662.94C1315.25,6636.55 1293.85,6615.15 1267.45,6615.15C1241.05,6615.15 1219.65,6636.55 1219.65,6662.94C1219.65,6689.35 1241.05,6710.65 1267.45,6710.65C1293.85,6710.65 1315.25,6689.35 1315.25,6662.94ZM1270.95,6637.15C1273.55,6634.44 1277.05,6632.65 1281.05,6632.65C1292.55,6632.65 1298.05,6645.85 1298.05,6661.74C1298.05,6677.94 1292.45,6693.35 1279.15,6693.35C1266.45,6693.35 1260.85,6680.05 1260.85,6663.85C1260.85,6651.85 1265.45,6636.94 1269.95,6636.94C1270.35,6636.94 1270.65,6637.05 1270.95,6637.15ZM1278.85,6686.15C1286.85,6686.15 1290.95,6674.94 1290.95,6661.15C1290.95,6649.85 1287.55,6639.65 1280.75,6639.65C1275.85,6639.65 1267.95,6646.94 1267.95,6663.74C1267.95,6676.94 1271.45,6686.15 1278.85,6686.15ZM1250.15,6690.94C1250.15,6692.24 1249.05,6693.05 1247.55,6693.05C1245.35,6693.05 1242.65,6691.24 1242.65,6689.44C1242.65,6688.15 1242.85,6684.15 1242.85,6682.44L1242.85,6644.35C1240.05,6645.65 1236.95,6646.85 1235.65,6646.85C1233.65,6646.85 1231.25,6645.05 1231.25,6643.65C1231.25,6642.44 1232.25,6641.74 1232.95,6641.44C1236.55,6639.94 1239.95,6637.94 1242.15,6636.24L1242.55,6635.74L1243.45,6634.74C1244.35,6633.85 1245.45,6633.15 1246.25,6633.15C1248.05,6633.15 1250.45,6635.15 1250.45,6637.55C1250.45,6638.85 1250.05,6640.24 1250.05,6642.44L1250.05,6681.94C1250.05,6684.15 1250.15,6688.65 1250.15,6690.74L1250.15,6690.94Z" style="fill-rule:nonzero;"/>
        </g>
    </g>
</svg>
