<?xml version="1.0" encoding="UTF-8" standalone="no"?>
<!DOCTYPE svg PUBLIC "-//W3C//DTD SVG 1.1//EN" "http://www.w3.org/Graphics/SVG/1.1/DTD/svg11.dtd">
<svg width="100%" height="100%" viewBox="0 0 96 96" version="1.1" xmlns="http://www.w3.org/2000/svg" xmlns:xlink="http://www.w3.org/1999/xlink" xml:space="preserve" xmlns:serif="http://www.serif.com/" style="fill-rule:evenodd;clip-rule:evenodd;stroke-linejoin:round;stroke-miterlimit:2;">
    <g transform="matrix(1,0,0,1,-309.628,-3623.28)">
        <g transform="matrix(1,0,0,1,-110.019,-3591.86)">
            <path d="M515.248,7262.94C515.248,7236.55 493.848,7215.15 467.448,7215.15C441.048,7215.15 419.648,7236.55 419.648,7262.94C419.648,7289.35 441.048,7310.65 467.448,7310.65C493.848,7310.65 515.248,7289.35 515.248,7262.94ZM463.548,7241.65C463.648,7241.65 463.848,7241.55 464.048,7241.55C465.548,7241.55 466.548,7242.94 466.548,7244.55C466.548,7248.44 456.248,7257.44 454.948,7258.44C462.848,7262.55 466.948,7267.85 466.948,7275.85C466.948,7286.65 459.448,7293.35 448.748,7293.35C438.848,7293.35 432.748,7286.24 432.748,7276.94C432.748,7269.85 436.348,7264.35 442.148,7259.74C436.748,7256.35 434.948,7252.74 434.948,7247.44C434.948,7239.55 440.648,7232.85 449.948,7232.85C456.148,7232.85 460.448,7236.74 463.348,7241.35L463.548,7241.65ZM493.548,7258.94C498.448,7260.44 502.448,7265.85 502.448,7273.35C502.448,7284.05 497.048,7293.35 484.348,7293.35C478.948,7293.35 474.548,7290.85 470.748,7286.55C470.048,7285.74 469.948,7284.74 469.948,7283.94C469.948,7282.35 470.948,7278.85 473.148,7278.85C473.748,7278.85 474.248,7279.15 474.748,7279.85C477.548,7283.74 480.248,7286.15 484.348,7286.15C492.648,7286.15 495.848,7280.05 495.848,7273.44C495.848,7267.94 492.248,7263.94 486.848,7263.94C486.148,7263.94 484.548,7263.94 481.748,7264.65C481.548,7264.74 481.548,7264.74 481.348,7264.74C479.048,7264.74 477.948,7261.65 477.948,7260.15C477.948,7259.05 478.548,7257.74 479.848,7257.44C485.248,7257.05 493.848,7253.65 493.848,7246.85C493.848,7242.55 491.548,7239.85 486.948,7239.85C483.248,7239.85 480.148,7241.65 476.948,7245.85C476.348,7246.74 475.748,7247.65 474.648,7247.65C473.648,7247.65 471.348,7245.94 471.348,7242.85C471.348,7241.65 471.848,7240.85 472.248,7240.24C476.048,7235.55 480.748,7232.74 486.848,7232.74C494.648,7232.74 500.348,7237.74 500.348,7246.35C500.348,7253.94 495.548,7258.05 493.548,7258.94ZM448.748,7263.15C442.548,7267.94 439.548,7272.05 439.548,7276.74C439.548,7281.44 442.248,7286.15 448.748,7286.15C455.648,7286.15 460.148,7281.94 460.148,7276.24C460.148,7271.35 458.048,7267.55 449.748,7263.65L448.748,7263.15ZM458.248,7246.24C458.048,7245.94 457.848,7245.74 457.648,7245.35C455.648,7241.74 453.548,7239.85 450.048,7239.85C444.248,7239.85 441.748,7243.74 441.748,7247.44C441.748,7250.55 442.748,7252.24 448.348,7255.15C452.048,7252.44 455.348,7249.35 458.248,7246.24Z" style="fill-rule:nonzero;"/>
        </g>
    </g>
</svg>
