<?xml version="1.0" encoding="UTF-8" standalone="no"?>
<!DOCTYPE svg PUBLIC "-//W3C//DTD SVG 1.1//EN" "http://www.w3.org/Graphics/SVG/1.1/DTD/svg11.dtd">
<svg width="100%" height="100%" viewBox="0 0 89 89" version="1.1" xmlns="http://www.w3.org/2000/svg" xmlns:xlink="http://www.w3.org/1999/xlink" xml:space="preserve" xmlns:serif="http://www.serif.com/" style="fill-rule:evenodd;clip-rule:evenodd;stroke-linejoin:round;stroke-miterlimit:2;">
    <g transform="matrix(1,0,0,1,-1158.68,-2071.63)">
        <g transform="matrix(1.41414,0,0,1.41429,-177.055,-770.755)">
            <path d="M1006.92,2072.13L1006.92,2009.77L944.554,2009.77L944.554,2072.13L1006.92,2072.13ZM979.625,2052.55C979.13,2053.61 978.635,2054.88 978.281,2056.01C977.928,2057.43 976.938,2058.06 975.877,2058.06C974.746,2058.06 973.615,2057.43 972.978,2056.72C972.13,2055.87 971.918,2054.74 971.493,2053.61L963.786,2033.03C963.291,2031.76 962.655,2030.41 961.948,2028.93C961.806,2028.65 961.806,2028.43 961.806,2028.22C961.806,2027.16 963.15,2026.24 964.918,2026.24C966.261,2026.24 967.604,2026.95 967.887,2027.87C968.099,2028.72 968.594,2030.27 969.019,2031.48L975.312,2049.08L982.594,2031.4C983.16,2030.13 983.655,2028.72 984.079,2027.3C984.433,2026.1 985.635,2025.96 986.2,2025.96C987.261,2025.96 989.877,2026.67 989.877,2028.58C989.877,2028.72 989.806,2029.07 989.594,2029.42C989.029,2030.49 988.18,2032.25 987.756,2033.24L979.625,2052.55Z" style="fill-rule:nonzero;"/>
        </g>
    </g>
</svg>
