<?xml version="1.0" encoding="UTF-8" standalone="no"?>
<!DOCTYPE svg PUBLIC "-//W3C//DTD SVG 1.1//EN" "http://www.w3.org/Graphics/SVG/1.1/DTD/svg11.dtd">
<svg width="100%" height="100%" viewBox="0 0 96 96" version="1.1" xmlns="http://www.w3.org/2000/svg" xmlns:xlink="http://www.w3.org/1999/xlink" xml:space="preserve" xmlns:serif="http://www.serif.com/" style="fill-rule:evenodd;clip-rule:evenodd;stroke-linejoin:round;stroke-miterlimit:2;">
    <g transform="matrix(1,0,0,1,-509.628,-3323.28)">
        <g transform="matrix(1,0,0,1,-110.019,-3591.86)">
            <path d="M715.248,6962.94C715.248,6936.55 693.848,6915.15 667.448,6915.15C641.048,6915.15 619.648,6936.55 619.648,6962.94C619.648,6989.35 641.048,7010.65 667.448,7010.65C693.848,7010.65 715.248,6989.35 715.248,6962.94ZM677.948,6956.94C680.348,6955.24 683.148,6954.24 686.748,6954.24C694.748,6954.24 701.348,6961.15 701.348,6972.74C701.348,6983.44 696.248,6993.35 683.748,6993.35C677.748,6993.35 673.348,6989.85 670.048,6985.65C669.448,6984.85 669.148,6983.94 669.148,6982.94C669.148,6981.15 670.348,6977.55 672.448,6977.55C673.248,6977.55 673.848,6978.15 674.248,6978.85C676.548,6982.94 679.448,6986.05 683.748,6986.05C691.748,6986.05 694.948,6979.94 694.948,6972.85C694.948,6965.44 691.448,6961.24 686.148,6961.24C682.948,6961.24 680.348,6962.85 678.248,6965.15C676.448,6967.55 675.948,6967.85 674.948,6967.85C673.248,6967.85 670.948,6965.85 670.948,6962.94C670.948,6962.65 670.948,6962.15 671.048,6961.65C671.348,6960.65 671.448,6959.74 671.648,6959.05L673.348,6939.85C673.348,6938.85 673.448,6937.55 673.448,6936.55C673.448,6934.74 674.748,6934.24 675.648,6934.24C676.548,6934.24 677.548,6934.65 678.448,6935.15L690.948,6934.24C692.148,6934.15 693.948,6934.05 695.248,6933.74L695.548,6933.74C697.548,6933.74 698.648,6937.15 698.648,6938.55C698.648,6939.65 698.148,6941.05 696.748,6941.05L691.548,6941.35L679.248,6942.24L677.948,6956.94ZM659.248,6982.55C659.248,6985.74 659.548,6988.94 659.548,6990.74C659.548,6991.94 658.648,6993.05 657.048,6993.05C654.948,6993.05 652.248,6991.35 652.248,6989.35C652.248,6988.05 652.448,6983.55 652.448,6982.35L652.448,6979.55L638.048,6980.05C637.648,6980.05 636.648,6980.15 634.848,6980.65L635.048,6980.55L634.848,6980.55C632.748,6980.55 630.448,6978.15 630.448,6975.44C630.448,6974.55 630.748,6973.74 632.448,6971.15C632.848,6970.44 633.248,6970.05 633.448,6969.55C645.048,6947.94 648.948,6937.55 649.948,6934.44C650.348,6933.15 651.348,6932.94 651.948,6932.94C653.848,6932.94 656.348,6936.15 656.348,6938.44C656.348,6939.05 656.248,6939.65 655.948,6940.15C655.148,6941.35 654.148,6943.05 653.648,6944.35C649.948,6952.35 644.148,6963.85 639.348,6972.94L652.448,6972.65L652.448,6957.55C652.448,6955.94 652.248,6950.94 652.248,6949.05C652.248,6947.94 653.148,6946.74 654.848,6946.74C656.748,6946.74 659.348,6948.44 659.348,6950.55C659.348,6951.74 659.248,6955.65 659.248,6957.55L659.248,6972.35C660.448,6972.24 662.448,6971.85 663.248,6971.85C665.648,6971.85 666.848,6975.44 666.848,6976.94C666.848,6977.65 666.548,6979.55 664.748,6979.55C663.848,6979.55 661.148,6979.35 659.248,6979.35L659.248,6982.55Z" style="fill-rule:nonzero;"/>
        </g>
    </g>
</svg>
