<?xml version="1.0" encoding="UTF-8" standalone="no"?>
<!DOCTYPE svg PUBLIC "-//W3C//DTD SVG 1.1//EN" "http://www.w3.org/Graphics/SVG/1.1/DTD/svg11.dtd">
<svg width="100%" height="100%" viewBox="0 0 96 96" version="1.1" xmlns="http://www.w3.org/2000/svg" xmlns:xlink="http://www.w3.org/1999/xlink" xml:space="preserve" xmlns:serif="http://www.serif.com/" style="fill-rule:evenodd;clip-rule:evenodd;stroke-linejoin:round;stroke-miterlimit:2;">
    <g transform="matrix(1,0,0,1,-1609.63,-3173.28)">
        <g transform="matrix(1,0,0,1,-110.019,-3591.86)">
            <path d="M1815.25,6812.94C1815.25,6786.55 1793.85,6765.15 1767.45,6765.15C1741.05,6765.15 1719.65,6786.55 1719.65,6812.94C1719.65,6839.35 1741.05,6860.65 1767.45,6860.65C1793.85,6860.65 1815.25,6839.35 1815.25,6812.94ZM1780.25,6806.74C1782.25,6805.44 1784.65,6804.85 1787.25,6804.85C1796.25,6804.85 1802.35,6812.55 1802.35,6822.94C1802.35,6834.24 1796.25,6843.35 1786.05,6843.35C1776.75,6843.35 1769.65,6835.15 1769.65,6825.15C1769.65,6818.15 1771.35,6811.24 1774.65,6803.74C1779.15,6793.55 1783.05,6786.24 1784.05,6785.24C1784.65,6784.05 1785.65,6782.65 1787.35,6782.65C1787.55,6782.65 1791.55,6782.74 1791.55,6785.94C1791.55,6786.85 1790.95,6787.94 1790.55,6788.55C1786.15,6794.44 1782.85,6801.15 1780.25,6806.74ZM1756.55,6808.94C1761.45,6810.44 1765.35,6815.85 1765.35,6823.35C1765.35,6834.05 1760.05,6843.35 1747.35,6843.35C1741.95,6843.35 1737.65,6840.85 1733.85,6836.55C1733.15,6835.74 1733.05,6834.74 1733.05,6833.94C1733.05,6832.35 1733.95,6828.85 1736.25,6828.85C1736.75,6828.85 1737.25,6829.15 1737.85,6829.85C1740.55,6833.74 1743.25,6836.15 1747.35,6836.15C1755.65,6836.15 1758.85,6830.05 1758.85,6823.44C1758.85,6817.94 1755.25,6813.94 1749.85,6813.94C1749.15,6813.94 1747.55,6813.94 1744.75,6814.65C1744.55,6814.74 1744.55,6814.74 1744.35,6814.74C1742.15,6814.74 1740.95,6811.65 1740.95,6810.15C1740.95,6809.05 1741.55,6807.74 1742.85,6807.44C1748.25,6807.05 1756.85,6803.65 1756.85,6796.85C1756.85,6792.55 1754.45,6789.85 1749.95,6789.85C1746.35,6789.85 1743.25,6791.65 1740.05,6795.85C1739.35,6796.74 1738.75,6797.65 1737.65,6797.65C1734.95,6797.65 1734.35,6792.85 1734.35,6792.85C1734.35,6791.65 1734.85,6790.85 1735.25,6790.24C1739.05,6785.55 1743.75,6782.74 1749.85,6782.74C1757.65,6782.74 1763.25,6787.65 1763.25,6796.35C1763.25,6803.94 1758.55,6808.05 1756.55,6808.94ZM1786.05,6836.35C1791.55,6836.35 1795.85,6831.15 1795.85,6823.15C1795.85,6816.94 1792.45,6811.74 1787.15,6811.74C1780.45,6811.74 1776.15,6817.85 1776.15,6825.05C1776.15,6831.44 1780.15,6836.35 1786.05,6836.35Z" style="fill-rule:nonzero;"/>
        </g>
    </g>
</svg>
