<?xml version="1.0" encoding="UTF-8" standalone="no"?>
<!DOCTYPE svg PUBLIC "-//W3C//DTD SVG 1.1//EN" "http://www.w3.org/Graphics/SVG/1.1/DTD/svg11.dtd">
<svg width="100%" height="100%" viewBox="0 0 89 89" version="1.1" xmlns="http://www.w3.org/2000/svg" xmlns:xlink="http://www.w3.org/1999/xlink" xml:space="preserve" xmlns:serif="http://www.serif.com/" style="fill-rule:evenodd;clip-rule:evenodd;stroke-linejoin:round;stroke-miterlimit:2;">
    <g transform="matrix(1,0,0,1,-2102.45,-692.274)">
        <g transform="matrix(1.41414,0,0,1.41429,-1052.39,-837.704)">
            <path d="M2287.77,1144.17C2291.17,1144.17 2293.29,1141.62 2293.29,1138.65L2293.29,1087.32C2293.29,1083.85 2290.81,1081.8 2287.77,1081.8L2236.44,1081.8C2232.97,1081.8 2230.92,1084.14 2230.92,1087.32L2230.92,1138.65C2230.92,1141.83 2233.4,1144.17 2236.44,1144.17L2287.77,1144.17ZM2273.77,1093.05C2273.91,1092.76 2274.05,1092.55 2274.2,1092.41C2274.69,1091.49 2275.61,1091.21 2276.32,1091.21C2278.01,1091.21 2279.5,1092.2 2279.5,1093.54C2279.5,1094.18 2279,1095.03 2278.72,1095.45C2275.4,1099.69 2272.85,1104.57 2270.87,1108.53C2272.43,1107.68 2274.27,1107.19 2276.18,1107.19C2283.11,1107.19 2287.77,1112.77 2287.77,1120.27C2287.77,1128.47 2283.03,1134.97 2275.33,1134.97C2268.26,1134.97 2262.88,1129.11 2262.88,1121.82C2262.88,1116.8 2264.16,1111.78 2266.63,1106.41C2269.03,1101.25 2271.3,1097.01 2273.49,1093.47L2273.77,1093.05ZM2240.04,1134.27C2238.28,1134.27 2237.22,1132.15 2237.22,1130.73C2237.22,1130.31 2237.29,1129.74 2237.64,1129.25C2238.07,1128.61 2238.42,1128.19 2238.63,1127.69C2240.68,1123.52 2244.36,1117.3 2248.81,1112.7C2253.2,1108.32 2255.53,1105.07 2255.53,1101.81C2255.53,1098.84 2253.62,1096.37 2250.23,1096.37C2246.62,1096.37 2244.14,1098.7 2243.16,1101.74C2242.87,1102.52 2242.24,1103.79 2240.96,1103.79C2239.76,1103.79 2238.14,1102.17 2238.14,1100.4C2238.14,1098.49 2241.74,1091.28 2250.37,1091.28C2256.66,1091.28 2260.76,1095.66 2260.76,1101.81C2260.76,1107.54 2256.94,1111.92 2252.14,1116.66C2248.32,1120.41 2245.49,1125.08 2243.65,1128.75C2245.42,1128.61 2247.4,1128.54 2248.88,1128.54C2251.43,1128.54 2253.05,1128.61 2255.25,1128.61C2256.1,1128.61 2257.86,1128.54 2258.5,1128.54C2260.27,1128.54 2261.12,1131.09 2261.12,1132.15C2261.12,1133 2260.62,1133.98 2259.49,1133.98C2258,1133.84 2254.47,1133.56 2248.32,1133.56C2246.55,1133.56 2244.78,1133.56 2242.66,1133.84C2242.17,1133.84 2240.75,1134.2 2240.4,1134.27L2240.04,1134.27ZM2275.33,1129.95C2279.5,1129.95 2282.75,1126.14 2282.75,1120.41C2282.75,1115.95 2280.21,1112.21 2276.11,1112.21C2271.01,1112.21 2267.76,1116.59 2267.76,1121.75C2267.76,1126.42 2270.87,1129.95 2275.33,1129.95Z" style="fill-rule:nonzero;"/>
        </g>
    </g>
</svg>
