<?xml version="1.0" encoding="UTF-8" standalone="no"?>
<!DOCTYPE svg PUBLIC "-//W3C//DTD SVG 1.1//EN" "http://www.w3.org/Graphics/SVG/1.1/DTD/svg11.dtd">
<svg width="100%" height="100%" viewBox="0 0 89 89" version="1.1" xmlns="http://www.w3.org/2000/svg" xmlns:xlink="http://www.w3.org/1999/xlink" xml:space="preserve" xmlns:serif="http://www.serif.com/" style="fill-rule:evenodd;clip-rule:evenodd;stroke-linejoin:round;stroke-miterlimit:2;">
    <g transform="matrix(1,0,0,1,-2302.43,-242.274)">
        <g transform="matrix(1.41414,0,0,1.41429,-1052.39,-837.704)">
            <path d="M2429.19,825.984C2432.58,825.984 2434.7,823.439 2434.7,820.469L2434.7,769.136C2434.7,765.671 2432.23,763.621 2429.19,763.621L2377.85,763.621C2374.39,763.621 2372.34,765.954 2372.34,769.136L2372.34,820.469C2372.34,823.651 2374.81,825.984 2377.85,825.984L2429.19,825.984ZM2407.62,791.338C2413.56,793.459 2419.92,796.5 2419.92,804.207C2419.92,812.409 2413.14,816.793 2402.95,816.793C2393.97,816.793 2387.96,812.126 2387.96,804.914C2387.96,799.752 2391.29,795.651 2396.24,792.399C2392.77,790.631 2390.09,788.015 2390.09,783.348C2390.09,777.338 2395.18,773.096 2403.38,773.096C2408.96,773.096 2414.05,775.57 2416.53,779.247C2416.53,779.318 2416.6,779.389 2416.67,779.53C2416.81,779.459 2416.95,779.459 2417.1,779.459C2418.23,779.459 2419.29,780.237 2419.29,781.58C2419.29,782.641 2418.58,784.692 2407.62,791.338ZM2411.93,782.287C2410.38,779.813 2406.98,778.045 2403.31,778.045C2398.08,778.045 2395.53,780.591 2395.53,783.419C2395.53,786.176 2397.58,787.52 2401.54,789.146C2404.44,787.591 2408.82,784.904 2412.14,782.5L2411.93,782.287ZM2401.89,794.732C2396.17,798.126 2393.41,801.52 2393.41,804.772C2393.41,808.166 2396.45,811.631 2402.95,811.631C2410.1,811.631 2414.41,808.732 2414.41,804.419C2414.41,799.116 2409.11,797.136 2401.89,794.732Z" style="fill-rule:nonzero;"/>
        </g>
    </g>
</svg>
