<?xml version="1.0" encoding="UTF-8" standalone="no"?>
<!DOCTYPE svg PUBLIC "-//W3C//DTD SVG 1.1//EN" "http://www.w3.org/Graphics/SVG/1.1/DTD/svg11.dtd">
<svg width="100%" height="100%" viewBox="0 0 89 89" version="1.1" xmlns="http://www.w3.org/2000/svg" xmlns:xlink="http://www.w3.org/1999/xlink" xml:space="preserve" xmlns:serif="http://www.serif.com/" style="fill-rule:evenodd;clip-rule:evenodd;stroke-linejoin:round;stroke-miterlimit:2;">
    <g transform="matrix(1,0,0,1,-358.759,-721.632)">
        <g transform="matrix(1.41414,0,0,1.41429,-177.055,-770.755)">
            <path d="M441.261,1117.59L441.261,1055.22L378.897,1055.22L378.897,1117.59L441.261,1117.59ZM387.099,1107.69C385.332,1107.69 384.271,1105.57 384.271,1104.15C384.271,1103.73 384.342,1103.16 384.695,1102.67L385.685,1101.11C387.665,1096.94 391.413,1090.72 395.867,1086.12C400.18,1081.74 402.514,1078.49 402.514,1075.23C402.514,1072.26 400.675,1069.79 397.281,1069.79C393.675,1069.79 391.2,1072.12 390.211,1075.16C389.928,1075.94 389.291,1077.21 388.019,1077.21C387.029,1077.21 385.12,1075.59 385.12,1073.82C385.12,1072.12 388.726,1064.7 397.423,1064.7C403.716,1064.7 407.817,1069.08 407.817,1075.23C407.817,1080.96 403.998,1085.34 399.19,1090.08C395.372,1093.83 392.544,1098.5 390.705,1102.17C392.473,1102.03 394.382,1101.96 395.867,1101.96C398.413,1101.96 400.11,1102.03 402.301,1102.03C403.15,1102.03 404.918,1101.96 405.554,1101.96C407.322,1101.96 408.17,1104.51 408.17,1105.57C408.17,1106.41 407.675,1107.4 406.544,1107.4C402.089,1106.98 397.281,1106.98 395.372,1106.98C393.604,1106.98 391.837,1106.98 389.716,1107.26C389.221,1107.26 387.806,1107.62 387.453,1107.69L387.099,1107.69ZM414.322,1107.69C412.554,1107.69 411.493,1105.57 411.493,1104.15C411.493,1103.73 411.564,1103.16 411.847,1102.67C412.342,1102.03 412.625,1101.61 412.837,1101.11C414.887,1096.94 418.564,1090.72 423.089,1086.12C427.402,1081.74 429.736,1078.49 429.736,1075.23C429.736,1072.26 427.897,1069.79 424.503,1069.79C420.897,1069.79 418.423,1072.12 417.362,1075.16C417.15,1075.94 416.514,1077.21 415.241,1077.21C414.251,1077.21 412.342,1075.59 412.342,1073.82C412.342,1073.39 412.413,1072.76 412.766,1072.26C415.029,1067.81 418.918,1064.7 424.645,1064.7C430.867,1064.7 434.968,1069.08 434.968,1075.23C434.968,1080.96 431.221,1085.34 426.413,1090.08C422.594,1093.83 419.766,1098.5 417.928,1102.17C419.625,1102.03 421.604,1101.96 423.089,1101.96C425.635,1101.96 427.332,1102.03 429.453,1102.03C430.372,1102.03 432.069,1101.96 432.776,1101.96C434.544,1101.96 435.392,1104.51 435.392,1105.57C435.392,1106.41 434.897,1107.4 433.766,1107.4C429.312,1106.98 424.503,1106.98 422.594,1106.98C420.756,1106.98 419.059,1106.98 416.938,1107.26C416.443,1107.26 415.029,1107.62 414.675,1107.69L414.322,1107.69Z" style="fill-rule:nonzero;"/>
        </g>
    </g>
</svg>
