<?xml version="1.0" encoding="UTF-8" standalone="no"?>
<!DOCTYPE svg PUBLIC "-//W3C//DTD SVG 1.1//EN" "http://www.w3.org/Graphics/SVG/1.1/DTD/svg11.dtd">
<svg width="100%" height="100%" viewBox="0 0 89 89" version="1.1" xmlns="http://www.w3.org/2000/svg" xmlns:xlink="http://www.w3.org/1999/xlink" xml:space="preserve" xmlns:serif="http://www.serif.com/" style="fill-rule:evenodd;clip-rule:evenodd;stroke-linejoin:round;stroke-miterlimit:2;">
    <g transform="matrix(1,0,0,1,-1702.49,-1442.27)">
        <g transform="matrix(1.41414,0,0,1.41429,-1052.39,-837.704)">
            <path d="M1983.52,1664.57C1981.75,1664.57 1980.69,1662.45 1980.69,1661.04C1980.69,1660.61 1980.76,1660.05 1981.04,1659.55C1981.54,1658.91 1981.82,1658.49 1982.03,1658C1984.09,1653.82 1987.76,1647.6 1992.29,1643.01C1996.6,1638.62 1998.93,1635.37 1998.93,1632.12C1998.93,1629.15 1997.02,1626.67 1993.7,1626.67C1990.1,1626.67 1987.62,1629.01 1986.56,1632.05C1986.35,1632.82 1985.71,1634.1 1984.44,1634.1C1983.45,1634.1 1981.54,1632.61 1981.54,1630.7C1981.54,1630.28 1981.61,1629.64 1981.96,1629.15C1984.23,1624.69 1988.12,1621.58 1993.84,1621.58C2000.07,1621.58 2004.17,1625.96 2004.17,1632.12C2004.17,1637.84 2000.42,1642.23 1995.61,1646.96C1991.79,1650.71 1988.96,1655.38 1987.12,1659.06C1988.82,1658.91 1990.8,1658.84 1992.29,1658.84C1994.83,1658.84 1996.53,1658.91 1998.65,1658.91C1999.57,1658.91 2001.27,1658.84 2001.97,1658.84C2003.74,1658.84 2004.59,1661.39 2004.59,1662.45C2004.59,1663.3 2004.1,1664.29 2002.89,1664.29C1999.99,1664.01 1995.75,1663.86 1991.72,1663.86C1989.95,1663.86 1988.26,1663.86 1986.13,1664.15C1985.57,1664.15 1984.01,1664.5 1983.8,1664.57L1983.52,1664.57ZM1959.27,1661.25C1959.27,1661.18 1959.27,1661.18 1959.34,1661.04C1959.9,1659.34 1960.33,1657.78 1960.68,1656.79C1963.58,1647.74 1967.4,1637.42 1971.43,1627.66L1959.2,1628.79C1958.63,1628.86 1958.07,1628.93 1957.57,1628.93C1954.74,1628.93 1953.96,1625.47 1953.96,1624.97C1953.96,1624.55 1954.18,1623.56 1955.24,1623.56C1955.87,1623.56 1956.37,1623.63 1957.29,1623.63L1957.92,1623.63L1972.35,1622.57C1972.7,1622.57 1973.05,1622.43 1973.34,1622.36C1973.83,1622.22 1974.26,1622.15 1974.68,1622.15L1974.89,1622.15C1976.1,1622.36 1977.93,1623.98 1977.93,1625.61L1977.93,1625.89C1977.86,1626.67 1977.51,1627.31 1977.23,1627.8C1973.05,1636.15 1966.34,1654.6 1964.5,1663.23C1964.22,1664.71 1963.01,1664.92 1962.02,1664.92C1961.81,1664.92 1961.53,1664.85 1961.25,1664.85C1959.76,1664.64 1958.91,1663.86 1958.91,1662.66C1958.91,1662.24 1959.05,1661.81 1959.12,1661.6L1959.27,1661.25ZM2004.94,1674.47C2008.34,1674.47 2010.46,1671.92 2010.46,1668.95L2010.46,1617.62C2010.46,1614.16 2007.98,1612.11 2004.94,1612.11L1953.61,1612.11C1950.14,1612.11 1948.1,1614.44 1948.1,1617.62L1948.1,1668.95C1948.1,1672.14 1950.57,1674.47 1953.61,1674.47L2004.94,1674.47Z" style="fill-rule:nonzero;"/>
        </g>
    </g>
</svg>
