<?xml version="1.0" encoding="UTF-8" standalone="no"?>
<!DOCTYPE svg PUBLIC "-//W3C//DTD SVG 1.1//EN" "http://www.w3.org/Graphics/SVG/1.1/DTD/svg11.dtd">
<svg width="100%" height="100%" viewBox="0 0 89 89" version="1.1" xmlns="http://www.w3.org/2000/svg" xmlns:xlink="http://www.w3.org/1999/xlink" xml:space="preserve" xmlns:serif="http://www.serif.com/" style="fill-rule:evenodd;clip-rule:evenodd;stroke-linejoin:round;stroke-miterlimit:2;">
    <g transform="matrix(1,0,0,1,-458.749,-2221.63)">
        <g transform="matrix(1.41414,0,0,1.41429,-177.055,-770.755)">
            <path d="M511.968,2178.19L511.968,2115.83L449.604,2115.83L449.604,2178.19L511.968,2178.19ZM491.604,2162.92C490.049,2162.85 488.493,2162.64 486.796,2162.57L478.736,2162.57C476.332,2162.57 472.372,2162.78 469.332,2163.13C468.13,2163.13 466.857,2161.36 466.857,2159.53C466.857,2159.24 466.857,2157.97 468.2,2156.63L469.12,2155.64C473.503,2149.7 479.514,2142.34 483.897,2137.39L476.897,2137.89C475.342,2137.96 474.069,2138.17 472.655,2138.31C470.604,2138.31 469.19,2135.63 469.19,2134.35C469.19,2133.93 469.402,2132.73 470.746,2132.73C471.948,2132.73 473.291,2132.8 474.705,2132.8C475.342,2132.8 476.049,2132.8 476.685,2132.73L486.089,2132.09C486.16,2132.09 486.301,2132.09 486.372,2132.02C487.221,2131.88 487.786,2131.74 488.635,2131.74C490.544,2131.95 492.17,2134.43 492.17,2135.84C492.17,2136.48 491.746,2137.11 491.11,2137.61C490.897,2137.82 490.473,2138.03 490.261,2138.24C485.382,2143.41 479.089,2151.18 474.281,2157.55C475.837,2157.48 477.675,2157.41 478.736,2157.41C480.998,2157.41 484.746,2157.41 486.796,2157.48C487.716,2157.48 489.2,2157.41 490.473,2157.33L490.615,2157.33C492.594,2157.33 493.372,2160.02 493.372,2161.08C493.372,2161.72 492.948,2162.92 491.746,2162.92L491.604,2162.92Z" style="fill-rule:nonzero;"/>
        </g>
    </g>
</svg>
