<?xml version="1.0" encoding="UTF-8" standalone="no"?>
<!DOCTYPE svg PUBLIC "-//W3C//DTD SVG 1.1//EN" "http://www.w3.org/Graphics/SVG/1.1/DTD/svg11.dtd">
<svg width="100%" height="100%" viewBox="0 0 89 89" version="1.1" xmlns="http://www.w3.org/2000/svg" xmlns:xlink="http://www.w3.org/1999/xlink" xml:space="preserve" xmlns:serif="http://www.serif.com/" style="fill-rule:evenodd;clip-rule:evenodd;stroke-linejoin:round;stroke-miterlimit:2;">
    <g transform="matrix(1,0,0,1,-2002.46,-1142.27)">
        <g transform="matrix(1.41414,0,0,1.41429,-1052.39,-837.704)">
            <path d="M2217.07,1462.35C2220.46,1462.35 2222.58,1459.8 2222.58,1456.83L2222.58,1405.5C2222.58,1402.04 2220.11,1399.98 2217.07,1399.98L2165.73,1399.98C2162.27,1399.98 2160.22,1402.32 2160.22,1405.5L2160.22,1456.83C2160.22,1460.02 2162.69,1462.35 2165.73,1462.35L2217.07,1462.35ZM2172.94,1426.92C2174.78,1425.65 2176.9,1424.94 2179.66,1424.94C2185.67,1424.94 2190.76,1429.96 2190.76,1438.31C2190.76,1446.02 2186.87,1453.16 2177.4,1453.16C2171.88,1453.16 2166.3,1448.42 2166.3,1445.66C2166.3,1444.32 2167.14,1441.77 2168.77,1441.77C2169.41,1441.77 2169.83,1442.2 2170.12,1442.69C2171.88,1445.66 2174.07,1447.92 2177.4,1447.92C2183.48,1447.92 2185.81,1443.47 2185.81,1438.38C2185.81,1433.01 2183.2,1430.04 2179.17,1430.04C2176.76,1430.04 2174.78,1431.17 2173.23,1432.86C2172.94,1433.15 2172.31,1433.85 2171.74,1434.35C2171.46,1434.7 2171.18,1434.77 2170.68,1434.77C2169.41,1434.77 2167.64,1433.29 2167.64,1431.24C2167.64,1431.03 2167.64,1430.67 2167.71,1430.32C2167.92,1429.61 2168.07,1428.9 2168.14,1428.41L2169.41,1414.55C2169.48,1413.84 2169.55,1412.92 2169.55,1412.22C2169.55,1410.87 2170.54,1410.52 2171.18,1410.52C2171.88,1410.52 2172.66,1410.8 2173.37,1411.16L2182.77,1410.52C2183.69,1410.45 2185.11,1410.38 2186.02,1410.17L2186.31,1410.17C2187.86,1410.17 2188.71,1412.64 2188.71,1413.63C2188.71,1414.41 2188.29,1415.4 2187.23,1415.47L2183.27,1415.68L2174,1416.32L2172.94,1426.92ZM2198.33,1434.35C2197.97,1434.7 2197.69,1434.77 2197.2,1434.77C2195.92,1434.77 2194.16,1433.29 2194.16,1431.24C2194.16,1431.03 2194.16,1430.67 2194.3,1430.32L2194.72,1428.41L2195.99,1414.55C2195.99,1413.84 2196.07,1412.92 2196.07,1412.22C2196.07,1410.87 2197.05,1410.52 2197.76,1410.52C2198.4,1410.52 2199.18,1410.8 2199.88,1411.16L2209.36,1410.52C2210.21,1410.45 2211.62,1410.38 2212.61,1410.17L2212.82,1410.17C2214.38,1410.17 2215.23,1412.64 2215.23,1413.63C2215.23,1414.41 2214.8,1415.4 2213.74,1415.47L2209.85,1415.68L2200.52,1416.32L2199.46,1426.92C2201.3,1425.65 2203.49,1424.94 2206.18,1424.94C2212.26,1424.94 2217.28,1429.96 2217.28,1438.31C2217.28,1446.02 2213.39,1453.16 2203.91,1453.16C2198.47,1453.16 2192.81,1448.42 2192.81,1445.66C2192.81,1444.32 2193.73,1441.77 2195.29,1441.77C2195.92,1441.77 2196.42,1442.2 2196.63,1442.69C2198.4,1445.66 2200.59,1447.92 2203.91,1447.92C2209.99,1447.92 2212.4,1443.47 2212.4,1438.38C2212.4,1433.01 2209.71,1430.04 2205.68,1430.04C2203.28,1430.04 2201.3,1431.17 2199.74,1432.86L2198.33,1434.35Z" style="fill-rule:nonzero;"/>
        </g>
    </g>
</svg>
