<?xml version="1.0" encoding="UTF-8" standalone="no"?>
<!DOCTYPE svg PUBLIC "-//W3C//DTD SVG 1.1//EN" "http://www.w3.org/Graphics/SVG/1.1/DTD/svg11.dtd">
<svg width="100%" height="100%" viewBox="0 0 89 89" version="1.1" xmlns="http://www.w3.org/2000/svg" xmlns:xlink="http://www.w3.org/1999/xlink" xml:space="preserve" xmlns:serif="http://www.serif.com/" style="fill-rule:evenodd;clip-rule:evenodd;stroke-linejoin:round;stroke-miterlimit:2;">
    <g transform="matrix(1,0,0,1,-1802.48,-1442.27)">
        <g transform="matrix(1.41414,0,0,1.41429,-1052.39,-837.704)">
            <path d="M2029.97,1661.25L2029.97,1661.04C2035.7,1643.78 2037.26,1639.33 2042.13,1627.66L2029.9,1628.79C2029.34,1628.86 2028.77,1628.93 2028.28,1628.93C2025.87,1628.93 2024.67,1626.11 2024.67,1624.97C2024.67,1624.55 2024.88,1623.56 2025.94,1623.56C2026.51,1623.56 2027.08,1623.63 2027.92,1623.63L2028.63,1623.63L2043.05,1622.57C2043.41,1622.57 2043.76,1622.43 2044.04,1622.36C2044.47,1622.22 2044.96,1622.15 2045.32,1622.15L2045.53,1622.15C2046.8,1622.36 2048.64,1623.98 2048.64,1625.61L2048.64,1625.89C2048.5,1626.67 2048.22,1627.31 2047.93,1627.8C2047.01,1629.15 2036.97,1653.54 2035.21,1663.23C2034.92,1664.71 2033.65,1664.92 2032.73,1664.92C2032.52,1664.92 2032.24,1664.85 2031.88,1664.85C2030.4,1664.64 2029.62,1663.86 2029.62,1662.66C2029.62,1662.24 2029.76,1661.81 2029.83,1661.6L2029.97,1661.25ZM2068.79,1640.53C2072.54,1641.52 2075.58,1645.48 2075.58,1650.85C2075.58,1658.56 2071.48,1665.28 2061.86,1665.28C2057.69,1665.28 2054.44,1663.51 2051.54,1660.4C2050.97,1659.76 2050.9,1659.06 2050.9,1658.49C2050.9,1657.36 2051.68,1654.81 2053.31,1654.81C2053.73,1654.81 2054.16,1655.03 2054.58,1655.52C2056.63,1658.35 2058.68,1660.12 2061.86,1660.12C2068.16,1660.12 2070.56,1655.66 2070.56,1650.92C2070.56,1646.96 2067.8,1644.07 2063.77,1644.07C2062.22,1644.07 2060.52,1644.42 2059.88,1644.56C2059.67,1644.63 2059.67,1644.63 2059.53,1644.63C2057.83,1644.63 2056.98,1642.44 2056.98,1641.31C2056.98,1640.53 2057.41,1639.61 2058.4,1639.4C2063.98,1638.97 2069,1635.79 2069,1631.76C2069,1628.65 2067.24,1626.67 2063.77,1626.67C2061.01,1626.67 2058.68,1627.94 2056.21,1631.06C2055.71,1631.69 2055.29,1632.33 2054.44,1632.33C2053.31,1632.33 2051.96,1630.77 2051.96,1628.86C2051.96,1628.02 2052.32,1627.38 2052.67,1627.03C2055.5,1623.56 2059.11,1621.58 2063.77,1621.58C2069.64,1621.58 2073.95,1625.12 2073.95,1631.41C2073.95,1636.85 2070.35,1639.82 2068.79,1640.53ZM2075.65,1674.47C2079.04,1674.47 2081.17,1671.92 2081.17,1668.95L2081.17,1617.62C2081.17,1614.16 2078.69,1612.11 2075.65,1612.11L2024.32,1612.11C2020.85,1612.11 2018.8,1614.44 2018.8,1617.62L2018.8,1668.95C2018.8,1672.14 2021.28,1674.47 2024.32,1674.47L2075.65,1674.47Z" style="fill-rule:nonzero;"/>
        </g>
    </g>
</svg>
