<?xml version="1.0" encoding="UTF-8" standalone="no"?>
<!DOCTYPE svg PUBLIC "-//W3C//DTD SVG 1.1//EN" "http://www.w3.org/Graphics/SVG/1.1/DTD/svg11.dtd">
<svg width="100%" height="100%" viewBox="0 0 89 89" version="1.1" xmlns="http://www.w3.org/2000/svg" xmlns:xlink="http://www.w3.org/1999/xlink" xml:space="preserve" xmlns:serif="http://www.serif.com/" style="fill-rule:evenodd;clip-rule:evenodd;stroke-linejoin:round;stroke-miterlimit:2;">
    <g transform="matrix(1,0,0,1,-2102.45,-542.274)">
        <g transform="matrix(1.41414,0,0,1.41429,-1052.39,-837.704)">
            <path d="M2287.77,1038.11C2291.17,1038.11 2293.29,1035.56 2293.29,1032.59L2293.29,981.257C2293.29,977.793 2290.81,975.742 2287.77,975.742L2236.44,975.742C2232.97,975.742 2230.92,978.075 2230.92,981.257L2230.92,1032.59C2230.92,1035.77 2233.4,1038.11 2236.44,1038.11L2287.77,1038.11ZM2270.1,986.984C2270.24,986.702 2270.45,986.49 2270.52,986.348C2271.09,985.429 2272,985.146 2272.78,985.146C2273.91,985.146 2276.18,985.782 2276.18,987.479C2276.18,988.116 2275.61,988.964 2275.33,989.389C2271.79,993.702 2268.82,998.51 2266.77,1002.47C2268.4,1001.62 2270.24,1001.13 2272.29,1001.13C2279.71,1001.13 2284.8,1006.71 2284.8,1014.21C2284.8,1022.41 2280.35,1028.91 2271.37,1028.91C2263.1,1028.91 2257.93,1023.05 2257.93,1015.76C2257.93,1005.93 2265.71,993.702 2269.81,987.409L2270.1,986.984ZM2250.3,1020.71C2250.3,1022.27 2250.37,1025.59 2250.44,1027.01C2250.44,1028.07 2249.66,1028.7 2248.53,1028.7C2246.97,1028.7 2244.99,1027.43 2244.99,1026.09C2244.99,1025.17 2245.14,1022.27 2245.14,1021.07L2245.14,993.56C2243.93,994.197 2241.03,995.399 2239.97,995.399C2238.49,995.399 2236.79,994.055 2236.79,993.065C2236.79,992.146 2237.43,991.722 2237.99,991.51C2240.61,990.449 2243.09,988.964 2244.64,987.692L2244.92,987.338L2245.56,986.702C2246.2,985.995 2246.97,985.5 2247.61,985.5C2248.88,985.5 2250.65,986.984 2250.65,988.681C2250.65,989.601 2250.3,990.591 2250.3,992.217L2250.3,1020.71ZM2271.37,1023.89C2276.46,1023.89 2279.57,1020.08 2279.57,1014.35C2279.57,1009.96 2276.67,1006.15 2272.22,1006.15C2266.7,1006.15 2263.1,1010.6 2263.1,1015.69C2263.1,1020.36 2266.07,1023.89 2271.37,1023.89Z" style="fill-rule:nonzero;"/>
        </g>
    </g>
</svg>
