<?xml version="1.0" encoding="UTF-8" standalone="no"?>
<!DOCTYPE svg PUBLIC "-//W3C//DTD SVG 1.1//EN" "http://www.w3.org/Graphics/SVG/1.1/DTD/svg11.dtd">
<svg width="100%" height="100%" viewBox="0 0 89 89" version="1.1" xmlns="http://www.w3.org/2000/svg" xmlns:xlink="http://www.w3.org/1999/xlink" xml:space="preserve" xmlns:serif="http://www.serif.com/" style="fill-rule:evenodd;clip-rule:evenodd;stroke-linejoin:round;stroke-miterlimit:2;">
    <g transform="matrix(1,0,0,1,-2202.44,-392.274)">
        <g transform="matrix(1.41414,0,0,1.41429,-1052.39,-837.704)">
            <path d="M2358.48,932.045C2361.87,932.045 2363.99,929.5 2363.99,926.53L2363.99,875.197C2363.99,871.732 2361.52,869.681 2358.48,869.681L2307.14,869.681C2303.68,869.681 2301.63,872.015 2301.63,875.197L2301.63,926.53C2301.63,929.712 2304.11,932.045 2307.14,932.045L2358.48,932.045ZM2356.22,880.005C2357.49,880.217 2359.47,881.843 2359.47,883.469C2359.47,884.247 2359.12,884.954 2358.69,885.661C2354.45,894.146 2347.02,913.096 2345.33,921.085C2344.97,922.57 2343.7,922.782 2342.71,922.782C2342.5,922.782 2342.22,922.712 2341.86,922.712C2340.31,922.5 2339.46,921.722 2339.46,920.52C2339.46,919.954 2339.74,919.459 2339.81,918.894C2340.45,917.197 2340.94,915.641 2341.3,914.651C2344.34,905.601 2348.37,895.277 2352.61,885.52L2339.74,886.651C2339.18,886.722 2338.54,886.793 2338.04,886.793C2335.36,886.793 2334.23,883.469 2334.23,882.833C2334.23,882.409 2334.44,881.419 2335.57,881.419C2336.21,881.419 2336.77,881.49 2337.69,881.49L2338.4,881.49L2353.6,880.429C2353.95,880.429 2354.31,880.287 2354.66,880.217C2355.09,880.075 2355.58,880.005 2356,880.005L2356.22,880.005ZM2315.07,882.692C2316.76,880.782 2318.95,879.51 2321.57,879.51C2329.14,879.51 2332.67,889.126 2332.67,900.51C2332.67,912.106 2329.07,923.277 2320.37,923.277C2312.1,923.277 2308.63,913.52 2308.63,901.995C2308.63,893.934 2311.39,882.621 2314.57,882.621C2314.71,882.621 2314.92,882.621 2315.07,882.692ZM2320.16,918.116C2325.18,918.116 2327.65,910.126 2327.65,900.085C2327.65,892.803 2326.38,884.53 2321.36,884.53C2318.6,884.53 2313.65,889.621 2313.65,901.924C2313.65,911.611 2315.7,918.116 2320.16,918.116Z" style="fill-rule:nonzero;"/>
        </g>
    </g>
</svg>
