<?xml version="1.0" encoding="UTF-8" standalone="no"?>
<!DOCTYPE svg PUBLIC "-//W3C//DTD SVG 1.1//EN" "http://www.w3.org/Graphics/SVG/1.1/DTD/svg11.dtd">
<svg width="100%" height="100%" viewBox="0 0 96 96" version="1.1" xmlns="http://www.w3.org/2000/svg" xmlns:xlink="http://www.w3.org/1999/xlink" xml:space="preserve" xmlns:serif="http://www.serif.com/" style="fill-rule:evenodd;clip-rule:evenodd;stroke-linejoin:round;stroke-miterlimit:2;">
    <g transform="matrix(1,0,0,1,-1409.63,-3473.28)">
        <g transform="matrix(1,0,0,1,-110.019,-3591.86)">
            <path d="M1615.25,7112.94C1615.25,7086.55 1593.85,7065.15 1567.45,7065.15C1541.05,7065.15 1519.65,7086.55 1519.65,7112.94C1519.65,7139.35 1541.05,7160.65 1567.45,7160.65C1593.85,7160.65 1615.25,7139.35 1615.25,7112.94ZM1596.35,7132.55C1596.35,7135.74 1596.75,7138.94 1596.75,7140.74C1596.75,7141.94 1595.75,7143.05 1594.15,7143.05C1592.15,7143.05 1589.35,7141.35 1589.35,7139.35C1589.35,7138.05 1589.55,7133.55 1589.55,7132.35L1589.55,7129.55L1575.15,7130.05C1574.75,7130.05 1573.75,7130.15 1571.95,7130.65L1572.15,7130.55L1571.95,7130.55C1569.75,7130.55 1567.55,7128.15 1567.55,7125.44C1567.55,7124.15 1567.95,7123.55 1569.55,7121.15C1570.35,7119.74 1583.15,7096.24 1587.05,7084.44C1587.45,7083.15 1588.45,7082.94 1589.05,7082.94C1591.05,7082.94 1593.55,7086.15 1593.55,7088.44C1593.55,7089.05 1593.45,7089.65 1593.05,7090.15C1592.35,7091.35 1591.35,7093.05 1590.75,7094.35C1587.05,7102.35 1581.25,7113.85 1576.45,7122.94L1589.55,7122.65L1589.55,7107.55C1589.55,7105.94 1589.35,7100.85 1589.35,7099.05C1589.35,7097.94 1590.35,7096.74 1591.95,7096.74C1593.95,7096.74 1596.55,7098.44 1596.55,7100.55C1596.55,7101.74 1596.35,7105.65 1596.35,7107.55L1596.35,7122.35C1597.65,7122.24 1599.55,7121.85 1600.45,7121.85C1602.85,7121.85 1603.95,7125.44 1603.95,7126.94C1603.95,7127.65 1603.75,7129.55 1601.95,7129.55C1600.95,7129.55 1598.35,7129.35 1596.35,7129.35L1596.35,7132.55ZM1541.55,7137.74C1541.55,7137.65 1541.65,7137.65 1541.65,7137.44C1542.45,7135.15 1543.05,7132.94 1543.55,7131.55C1547.55,7119.05 1552.85,7104.74 1558.45,7091.24L1541.55,7092.74C1540.75,7092.85 1539.95,7092.94 1539.25,7092.94C1535.65,7092.94 1534.25,7088.55 1534.25,7087.44C1534.25,7086.85 1534.55,7085.55 1536.05,7085.55C1536.85,7085.55 1537.55,7085.65 1538.75,7085.65L1539.75,7085.65L1559.75,7084.15C1560.25,7084.15 1560.65,7083.94 1561.05,7083.85C1561.75,7083.65 1562.35,7083.55 1562.95,7083.55L1563.25,7083.55C1564.95,7083.85 1567.45,7086.05 1567.45,7088.35L1567.45,7088.74C1567.35,7089.85 1566.85,7090.74 1566.45,7091.35C1560.25,7103.65 1550.55,7131.44 1548.85,7140.44C1548.45,7142.55 1546.75,7142.85 1545.45,7142.85C1545.15,7142.85 1544.75,7142.74 1544.25,7142.74C1542.25,7142.44 1541.15,7141.35 1541.15,7139.74C1541.15,7139.15 1541.25,7138.55 1541.35,7138.24L1541.55,7137.74Z" style="fill-rule:nonzero;"/>
        </g>
    </g>
</svg>
