<?xml version="1.0" encoding="UTF-8" standalone="no"?>
<!DOCTYPE svg PUBLIC "-//W3C//DTD SVG 1.1//EN" "http://www.w3.org/Graphics/SVG/1.1/DTD/svg11.dtd">
<svg width="100%" height="100%" viewBox="0 0 89 89" version="1.1" xmlns="http://www.w3.org/2000/svg" xmlns:xlink="http://www.w3.org/1999/xlink" xml:space="preserve" xmlns:serif="http://www.serif.com/" style="fill-rule:evenodd;clip-rule:evenodd;stroke-linejoin:round;stroke-miterlimit:2;">
    <g transform="matrix(1,0,0,1,-258.769,-1771.63)">
        <g transform="matrix(1.41414,0,0,1.41429,-177.055,-770.755)">
            <path d="M370.554,1860.01L370.554,1797.65L308.19,1797.65L308.19,1860.01L370.554,1860.01ZM341.705,1812.07C338.948,1820.91 335.13,1844.95 334.988,1848.34C334.847,1850.11 332.867,1850.54 331.594,1850.54C330.322,1850.54 329.402,1849.9 329.402,1848.56C329.402,1847.99 329.544,1847.5 329.685,1846.93C329.968,1845.3 330.392,1843.54 330.534,1842.55C331.099,1839.22 331.877,1835.05 332.655,1831.02C330.18,1833.35 326.998,1834.84 323.887,1834.84C318.16,1834.84 314.271,1830.53 314.271,1823.53C314.271,1815.39 320.281,1807.12 328.483,1807.12C332.443,1807.12 334.988,1808.82 336.544,1810.44C336.685,1809.74 337.11,1808.75 338.382,1808.75C340.009,1808.75 341.705,1810.09 341.705,1811.72L341.705,1812.07ZM359.806,1849.05C359.806,1850.04 358.958,1850.61 357.968,1850.61C356.342,1850.61 354.362,1849.33 354.362,1847.99C354.362,1847.07 354.503,1844.17 354.503,1842.97L354.503,1815.47C352.948,1816.24 350.261,1817.3 349.342,1817.3C347.857,1817.3 346.16,1815.96 346.16,1814.97C346.16,1814.05 346.867,1813.63 347.362,1813.41C349.978,1812.35 352.453,1810.87 354.009,1809.6L354.362,1809.24C354.503,1809.03 354.716,1808.82 354.998,1808.61C355.635,1807.9 356.413,1807.4 356.978,1807.4C358.322,1807.4 360.019,1808.89 360.019,1810.59C360.019,1811.51 359.665,1812.5 359.665,1814.12L359.665,1842.62C359.665,1844.17 359.736,1847.5 359.806,1848.91L359.806,1849.05ZM335.271,1817.16C334.705,1816.95 334.352,1816.38 334.14,1815.96C333.433,1814.48 332.089,1812.21 328.766,1812.21C322.968,1812.21 319.433,1818.43 319.433,1823.31C319.433,1827.91 321.059,1829.61 323.817,1829.61C328.059,1829.61 330.817,1826.85 333.645,1821.9C334.14,1821.05 334.635,1819.42 335.059,1818.15L335.271,1817.16Z" style="fill-rule:nonzero;"/>
        </g>
    </g>
</svg>
