<?xml version="1.0" encoding="UTF-8" standalone="no"?>
<!DOCTYPE svg PUBLIC "-//W3C//DTD SVG 1.1//EN" "http://www.w3.org/Graphics/SVG/1.1/DTD/svg11.dtd">
<svg width="100%" height="100%" viewBox="0 0 89 89" version="1.1" xmlns="http://www.w3.org/2000/svg" xmlns:xlink="http://www.w3.org/1999/xlink" xml:space="preserve" xmlns:serif="http://www.serif.com/" style="fill-rule:evenodd;clip-rule:evenodd;stroke-linejoin:round;stroke-miterlimit:2;">
    <g transform="matrix(1,0,0,1,-1602.51,-692.274)">
        <g transform="matrix(1.41414,0,0,1.41429,-1052.39,-837.704)">
            <path d="M1934.24,1144.17C1937.63,1144.17 1939.75,1141.62 1939.75,1138.65L1939.75,1087.32C1939.75,1083.85 1937.28,1081.8 1934.24,1081.8L1882.9,1081.8C1879.44,1081.8 1877.39,1084.14 1877.39,1087.32L1877.39,1138.65C1877.39,1141.83 1879.86,1144.17 1882.9,1144.17L1934.24,1144.17ZM1887.99,1134.27C1886.15,1134.27 1885.02,1132.15 1885.02,1130.73C1885.02,1130.31 1885.1,1129.74 1885.45,1129.25C1885.94,1128.61 1886.23,1128.19 1886.51,1127.69C1888.63,1123.52 1892.87,1117.3 1897.61,1112.7C1902.13,1108.32 1904.61,1105.07 1904.61,1101.81C1904.61,1098.84 1902.63,1096.37 1899.1,1096.37C1895.28,1096.37 1892.66,1098.7 1891.6,1101.74C1891.32,1102.52 1890.68,1103.79 1889.34,1103.79C1888.07,1103.79 1886.3,1102.1 1886.3,1100.4C1886.3,1099.97 1886.37,1099.34 1886.72,1098.84C1889.12,1094.39 1893.23,1091.28 1899.24,1091.28C1905.81,1091.28 1910.12,1095.66 1910.12,1101.81C1910.12,1107.54 1906.17,1111.92 1901.08,1116.66C1897.04,1120.48 1893.86,1125.15 1891.81,1128.75C1893.65,1128.61 1895.7,1128.54 1897.26,1128.54C1899.94,1128.54 1902.07,1128.61 1904.33,1128.61C1905.25,1128.61 1907.09,1128.54 1907.79,1128.54C1909.63,1128.54 1910.55,1131.09 1910.55,1132.15C1910.55,1133 1910.05,1133.98 1908.78,1133.98C1904.75,1133.63 1902.77,1133.56 1896.69,1133.56C1894.85,1133.56 1893.01,1133.56 1890.75,1133.84C1890.33,1133.84 1889.12,1134.13 1888.35,1134.27L1887.99,1134.27ZM1928.3,1133.21C1928.3,1134.2 1927.45,1134.76 1926.32,1134.76C1924.62,1134.76 1922.57,1133.49 1922.57,1132.15C1922.57,1131.23 1922.71,1128.33 1922.71,1127.13L1922.71,1099.62C1920.1,1100.89 1917.34,1101.46 1917.27,1101.46C1915.71,1101.46 1913.94,1100.12 1913.94,1099.13C1913.94,1098.21 1914.65,1097.78 1915.22,1097.57C1917.97,1096.51 1920.52,1095.03 1922.22,1093.75L1922.5,1093.4L1923.21,1092.76C1923.84,1092.06 1924.69,1091.56 1925.33,1091.56C1926.67,1091.56 1928.51,1093.05 1928.51,1094.74C1928.51,1095.66 1928.15,1096.65 1928.15,1098.28L1928.15,1126.77C1928.15,1128.33 1928.23,1131.65 1928.3,1133.07L1928.3,1133.21Z" style="fill-rule:nonzero;"/>
        </g>
    </g>
</svg>
