<?xml version="1.0" encoding="UTF-8" standalone="no"?>
<!DOCTYPE svg PUBLIC "-//W3C//DTD SVG 1.1//EN" "http://www.w3.org/Graphics/SVG/1.1/DTD/svg11.dtd">
<svg width="100%" height="100%" viewBox="0 0 89 89" version="1.1" xmlns="http://www.w3.org/2000/svg" xmlns:xlink="http://www.w3.org/1999/xlink" xml:space="preserve" xmlns:serif="http://www.serif.com/" style="fill-rule:evenodd;clip-rule:evenodd;stroke-linejoin:round;stroke-miterlimit:2;">
    <g transform="matrix(1,0,0,1,-158.78,-871.632)">
        <g transform="matrix(1.41414,0,0,1.41429,-177.055,-770.755)">
            <path d="M299.847,1223.65L299.847,1161.28L237.483,1161.28L237.483,1223.65L299.847,1223.65ZM276.16,1173.87C277.786,1171.96 279.978,1170.69 282.524,1170.69C289.806,1170.69 293.2,1180.3 293.2,1191.69C293.2,1203.28 289.665,1214.45 281.322,1214.45C273.261,1214.45 269.938,1204.77 269.938,1193.17C269.938,1183.06 273.049,1173.8 275.594,1173.8C275.806,1173.8 276.019,1173.8 276.16,1173.87ZM259.897,1189.71C263.433,1190.7 266.261,1194.66 266.261,1200.03C266.261,1207.74 262.372,1214.45 253.251,1214.45C249.362,1214.45 246.251,1212.69 243.493,1209.58C242.998,1208.94 242.928,1208.23 242.928,1207.67C242.928,1206.54 243.635,1203.99 245.19,1203.99C245.615,1203.99 245.968,1204.2 246.392,1204.7C248.372,1207.53 250.281,1209.29 253.251,1209.29C259.261,1209.29 261.524,1204.84 261.524,1200.1C261.524,1196.14 258.908,1193.24 255.089,1193.24C254.736,1193.24 254.382,1193.24 254.029,1193.31C253.18,1193.38 252.261,1193.53 251.413,1193.74C251.271,1193.81 251.2,1193.81 251.059,1193.81C249.503,1193.81 248.655,1191.62 248.655,1190.49C248.655,1189.71 249.079,1188.79 249.998,1188.58C253.887,1188.22 260.11,1185.89 260.11,1180.94C260.11,1177.83 258.413,1175.85 255.16,1175.85C252.473,1175.85 250.281,1177.12 247.948,1180.23C247.453,1180.87 247.099,1181.51 246.251,1181.51C244.766,1181.51 243.918,1179.24 243.918,1178.04C243.918,1175.57 248.867,1170.76 255.089,1170.76C260.675,1170.76 264.776,1174.29 264.776,1180.59C264.776,1186.03 261.312,1189 259.897,1189.71ZM281.11,1209.29C285.918,1209.29 288.392,1201.3 288.392,1191.26C288.392,1182.92 286.342,1175.71 282.312,1175.71C279.554,1175.71 274.746,1180.87 274.746,1193.1C274.746,1202.79 276.796,1209.29 281.11,1209.29Z" style="fill-rule:nonzero;"/>
        </g>
    </g>
</svg>
