<?xml version="1.0" encoding="UTF-8" standalone="no"?>
<!DOCTYPE svg PUBLIC "-//W3C//DTD SVG 1.1//EN" "http://www.w3.org/Graphics/SVG/1.1/DTD/svg11.dtd">
<svg width="100%" height="100%" viewBox="0 0 96 96" version="1.1" xmlns="http://www.w3.org/2000/svg" xmlns:xlink="http://www.w3.org/1999/xlink" xml:space="preserve" xmlns:serif="http://www.serif.com/" style="fill-rule:evenodd;clip-rule:evenodd;stroke-linejoin:round;stroke-miterlimit:2;">
    <g transform="matrix(1,0,0,1,-109.628,-3473.28)">
        <g transform="matrix(1,0,0,1,-110.019,-3591.86)">
            <path d="M315.248,7112.94C315.248,7086.55 293.848,7065.15 267.448,7065.15C241.048,7065.15 219.648,7086.55 219.648,7112.94C219.648,7139.35 241.048,7160.65 267.448,7160.65C293.848,7160.65 315.248,7139.35 315.248,7112.94ZM251.448,7085.24C252.548,7083.05 253.948,7082.65 255.148,7082.65C255.348,7082.65 259.848,7082.94 259.848,7085.94C259.848,7086.85 259.148,7087.94 258.648,7088.55C253.848,7094.44 250.148,7101.15 247.248,7106.74C249.548,7105.44 252.148,7104.85 254.948,7104.85C265.048,7104.85 271.848,7112.55 271.848,7122.94C271.848,7134.24 265.048,7143.35 253.648,7143.35C243.348,7143.35 235.548,7135.15 235.548,7125.15C235.548,7118.15 237.448,7111.24 241.048,7103.74C244.548,7096.55 247.848,7090.65 251.048,7085.85L251.448,7085.24ZM293.548,7131.94C293.548,7134.15 293.648,7138.65 293.748,7140.74C293.748,7142.15 292.648,7143.05 291.048,7143.05C288.948,7143.05 286.148,7141.24 286.148,7139.44C286.148,7138.15 286.348,7134.15 286.348,7132.44L286.348,7094.35C283.548,7095.65 280.448,7096.85 279.148,7096.85C277.148,7096.85 274.848,7095.05 274.848,7093.65C274.848,7092.44 275.748,7091.74 276.448,7091.44C280.048,7089.94 283.448,7087.94 285.648,7086.24L286.148,7085.74L286.948,7084.74C287.848,7083.85 288.948,7083.15 289.748,7083.15C291.548,7083.15 293.948,7085.15 293.948,7087.55C293.948,7088.85 293.548,7090.24 293.548,7092.44L293.548,7131.94ZM253.648,7136.35C259.848,7136.35 264.548,7131.15 264.548,7123.15C264.548,7116.94 260.748,7111.74 254.848,7111.74C247.448,7111.74 242.648,7117.85 242.648,7125.05C242.648,7131.44 247.148,7136.35 253.648,7136.35Z" style="fill-rule:nonzero;"/>
        </g>
    </g>
</svg>
