<?xml version="1.0" encoding="UTF-8" standalone="no"?>
<!DOCTYPE svg PUBLIC "-//W3C//DTD SVG 1.1//EN" "http://www.w3.org/Graphics/SVG/1.1/DTD/svg11.dtd">
<svg width="100%" height="100%" viewBox="0 0 89 89" version="1.1" xmlns="http://www.w3.org/2000/svg" xmlns:xlink="http://www.w3.org/1999/xlink" xml:space="preserve" xmlns:serif="http://www.serif.com/" style="fill-rule:evenodd;clip-rule:evenodd;stroke-linejoin:round;stroke-miterlimit:2;">
    <g transform="matrix(1,0,0,1,-158.78,-421.632)">
        <g transform="matrix(1.41414,0,0,1.41429,-177.055,-770.755)">
            <path d="M299.847,905.465L299.847,843.102L237.483,843.102L237.483,905.465L299.847,905.465ZM276.938,856.112C278.635,854.203 280.897,852.93 283.584,852.93C291.291,852.93 294.897,862.546 294.897,873.93C294.897,885.526 291.15,896.698 282.312,896.698C273.897,896.698 270.362,887.011 270.362,875.415C270.362,865.728 273.615,856.041 276.301,856.041C276.584,856.041 276.726,856.041 276.938,856.112ZM249.221,856.112C250.918,854.203 253.11,852.93 255.726,852.93C263.291,852.93 266.827,862.546 266.827,873.93C266.827,885.526 263.15,896.698 254.524,896.698C246.18,896.698 242.716,886.94 242.716,875.415C242.716,866.577 245.756,856.041 248.655,856.041C248.867,856.041 249.009,856.041 249.221,856.112ZM282.099,891.536C287.19,891.536 289.736,883.546 289.736,873.506C289.736,865.162 287.685,857.95 283.372,857.95C280.473,857.95 275.453,863.112 275.453,875.344C275.453,885.031 277.574,891.536 282.099,891.536ZM254.312,891.536C259.261,891.536 261.736,883.546 261.736,873.506C261.736,866.223 260.463,857.95 255.514,857.95C252.685,857.95 247.806,863.041 247.806,875.344C247.806,885.031 249.786,891.536 254.312,891.536Z" style="fill-rule:nonzero;"/>
        </g>
    </g>
</svg>
