<?xml version="1.0" encoding="UTF-8" standalone="no"?>
<!DOCTYPE svg PUBLIC "-//W3C//DTD SVG 1.1//EN" "http://www.w3.org/Graphics/SVG/1.1/DTD/svg11.dtd">
<svg width="100%" height="100%" viewBox="0 0 96 96" version="1.1" xmlns="http://www.w3.org/2000/svg" xmlns:xlink="http://www.w3.org/1999/xlink" xml:space="preserve" xmlns:serif="http://www.serif.com/" style="fill-rule:evenodd;clip-rule:evenodd;stroke-linejoin:round;stroke-miterlimit:2;">
    <g transform="matrix(1,0,0,1,-1009.63,-3173.28)">
        <g transform="matrix(1,0,0,1,-110.019,-3591.86)">
            <path d="M1215.25,6812.94C1215.25,6786.55 1193.85,6765.15 1167.45,6765.15C1141.05,6765.15 1119.65,6786.55 1119.65,6812.94C1119.65,6839.35 1141.05,6860.65 1167.45,6860.65C1193.85,6860.65 1215.25,6839.35 1215.25,6812.94ZM1177.85,6787.15C1180.15,6784.44 1183.05,6782.65 1186.65,6782.65C1196.75,6782.65 1201.45,6795.94 1201.45,6811.74C1201.45,6827.85 1196.55,6843.35 1184.95,6843.35C1173.85,6843.35 1169.15,6829.85 1169.15,6813.85C1169.15,6801.74 1173.25,6786.94 1177.05,6786.94C1177.35,6786.94 1177.65,6787.05 1177.85,6787.15ZM1155.25,6808.94C1160.15,6810.44 1164.05,6815.85 1164.05,6823.35C1164.05,6834.05 1158.75,6843.35 1146.05,6843.35C1140.65,6843.35 1136.35,6840.85 1132.55,6836.55C1131.85,6835.74 1131.75,6834.74 1131.75,6833.94C1131.75,6832.35 1132.75,6828.85 1134.95,6828.85C1135.45,6828.85 1135.95,6829.15 1136.55,6829.85C1139.25,6833.74 1141.95,6836.15 1146.05,6836.15C1154.35,6836.15 1157.55,6830.05 1157.55,6823.44C1157.55,6817.94 1153.95,6813.94 1148.55,6813.94C1148.15,6813.94 1147.65,6813.94 1147.15,6814.05C1146.05,6814.15 1144.65,6814.35 1143.45,6814.65C1143.25,6814.74 1143.25,6814.74 1143.05,6814.74C1140.85,6814.74 1139.75,6811.65 1139.75,6810.15C1139.75,6809.05 1140.25,6807.74 1141.55,6807.44C1146.95,6807.05 1155.55,6803.65 1155.55,6796.85C1155.55,6792.55 1153.25,6789.85 1148.65,6789.85C1145.05,6789.85 1141.95,6791.65 1138.75,6795.85C1138.05,6796.74 1137.45,6797.65 1136.35,6797.65C1134.35,6797.65 1133.05,6794.44 1133.05,6792.85C1133.05,6789.85 1139.75,6782.74 1148.55,6782.74C1156.35,6782.74 1161.95,6787.65 1161.95,6796.35C1161.95,6803.94 1157.25,6808.05 1155.25,6808.94ZM1184.65,6836.15C1191.35,6836.15 1194.75,6825.05 1194.75,6811.15C1194.75,6799.65 1191.95,6789.65 1186.35,6789.65C1182.45,6789.65 1175.95,6796.74 1175.95,6813.74C1175.95,6827.15 1178.65,6836.15 1184.65,6836.15Z" style="fill-rule:nonzero;"/>
        </g>
    </g>
</svg>
