<?xml version="1.0" encoding="UTF-8" standalone="no"?>
<!DOCTYPE svg PUBLIC "-//W3C//DTD SVG 1.1//EN" "http://www.w3.org/Graphics/SVG/1.1/DTD/svg11.dtd">
<svg width="100%" height="100%" viewBox="0 0 96 96" version="1.1" xmlns="http://www.w3.org/2000/svg" xmlns:xlink="http://www.w3.org/1999/xlink" xml:space="preserve" xmlns:serif="http://www.serif.com/" style="fill-rule:evenodd;clip-rule:evenodd;stroke-linejoin:round;stroke-miterlimit:2;">
    <g transform="matrix(1,0,0,1,-209.628,-3473.28)">
        <g transform="matrix(1,0,0,1,-110.019,-3591.86)">
            <path d="M415.248,7112.94C415.248,7086.55 393.848,7065.15 367.448,7065.15C341.048,7065.15 319.648,7086.55 319.648,7112.94C319.648,7139.35 341.048,7160.65 367.448,7160.65C393.848,7160.65 415.248,7139.35 415.248,7112.94ZM373.748,7142.35C371.348,7142.35 369.848,7139.35 369.848,7137.44C369.848,7136.85 369.948,7136.05 370.448,7135.35C371.048,7134.44 371.448,7133.94 371.848,7133.24C374.648,7127.44 379.748,7118.85 385.948,7112.44C391.948,7106.35 395.248,7101.85 395.248,7097.35C395.248,7093.24 392.548,7089.85 387.948,7089.85C382.948,7089.85 379.548,7093.05 378.048,7097.24C377.748,7098.35 376.848,7100.15 375.048,7100.15C372.848,7100.15 371.048,7096.94 371.048,7095.44C371.048,7092.94 376.148,7082.74 388.148,7082.74C396.748,7082.74 402.448,7088.85 402.448,7097.35C402.448,7105.35 397.248,7111.35 390.548,7117.94C385.248,7123.15 381.348,7129.65 378.848,7134.65C381.148,7134.55 383.948,7134.44 385.948,7134.44C389.548,7134.44 391.848,7134.55 394.848,7134.55C396.048,7134.55 398.448,7134.44 399.348,7134.44C401.848,7134.44 403.048,7137.94 403.048,7139.44C403.048,7140.55 402.348,7141.94 400.748,7141.94C394.748,7141.35 385.948,7141.35 385.248,7141.35C382.748,7141.35 380.348,7141.35 377.448,7141.74C376.748,7141.74 374.748,7142.24 374.248,7142.35L373.748,7142.35ZM344.048,7106.74C346.148,7105.44 348.648,7104.85 351.348,7104.85C360.848,7104.85 367.348,7112.55 367.348,7122.94C367.348,7134.24 360.848,7143.35 350.048,7143.35C340.348,7143.35 332.848,7135.15 332.848,7125.15C332.848,7118.15 334.648,7111.24 338.148,7103.74C341.448,7096.55 344.548,7090.65 347.548,7085.85C347.748,7085.65 347.848,7085.44 347.948,7085.24C349.148,7082.85 350.848,7082.65 351.548,7082.65C351.748,7082.65 355.948,7082.85 355.948,7085.94C355.948,7086.85 355.248,7087.94 354.848,7088.55C350.248,7094.44 346.748,7101.15 344.048,7106.74ZM350.048,7136.35C355.948,7136.35 360.448,7131.15 360.448,7123.15C360.448,7116.94 356.848,7111.74 351.248,7111.74C344.248,7111.74 339.648,7117.85 339.648,7125.05C339.648,7131.44 343.948,7136.35 350.048,7136.35Z" style="fill-rule:nonzero;"/>
        </g>
    </g>
</svg>
