<?xml version="1.0" encoding="UTF-8" standalone="no"?>
<!DOCTYPE svg PUBLIC "-//W3C//DTD SVG 1.1//EN" "http://www.w3.org/Graphics/SVG/1.1/DTD/svg11.dtd">
<svg width="100%" height="100%" viewBox="0 0 89 89" version="1.1" xmlns="http://www.w3.org/2000/svg" xmlns:xlink="http://www.w3.org/1999/xlink" xml:space="preserve" xmlns:serif="http://www.serif.com/" style="fill-rule:evenodd;clip-rule:evenodd;stroke-linejoin:round;stroke-miterlimit:2;">
    <g transform="matrix(1,0,0,1,-1502.52,-1442.27)">
        <g transform="matrix(1.41414,0,0,1.41429,-1052.39,-837.704)">
            <path d="M1863.53,1674.47C1866.92,1674.47 1869.04,1671.92 1869.04,1668.95L1869.04,1617.62C1869.04,1614.16 1866.57,1612.11 1863.53,1612.11L1812.2,1612.11C1808.73,1612.11 1806.68,1614.44 1806.68,1617.62L1806.68,1668.95C1806.68,1672.14 1809.15,1674.47 1812.2,1674.47L1863.53,1674.47ZM1845.43,1624.69C1847.05,1622.78 1849.18,1621.51 1851.72,1621.51C1859,1621.51 1862.47,1631.13 1862.47,1642.51C1862.47,1654.11 1858.93,1665.28 1850.52,1665.28C1842.53,1665.28 1839.13,1655.59 1839.13,1644C1839.13,1635.93 1841.82,1624.62 1844.86,1624.62C1845.08,1624.62 1845.22,1624.62 1845.43,1624.69ZM1850.31,1660.12C1855.19,1660.12 1857.59,1652.13 1857.59,1642.09C1857.59,1633.74 1855.61,1626.53 1851.51,1626.53C1848.75,1626.53 1844.01,1631.69 1844.01,1643.92C1844.01,1653.61 1845.99,1660.12 1850.31,1660.12ZM1818.13,1661.25C1818.21,1661.18 1818.21,1661.18 1818.21,1661.04L1819.55,1656.79C1822.45,1647.74 1826.27,1637.42 1830.37,1627.66L1818.13,1628.79C1817.57,1628.86 1817,1628.93 1816.51,1628.93C1814.11,1628.93 1812.9,1626.11 1812.9,1624.97C1812.9,1624.55 1813.12,1623.56 1814.18,1623.56C1814.74,1623.56 1815.31,1623.63 1816.15,1623.63L1816.86,1623.63L1831.29,1622.57C1831.64,1622.57 1831.92,1622.43 1832.28,1622.36C1832.7,1622.22 1833.12,1622.15 1833.55,1622.15L1833.76,1622.15C1835.03,1622.36 1836.87,1623.98 1836.87,1625.61L1836.87,1625.89C1836.87,1626.04 1836.59,1627.45 1835.46,1628.93C1830.01,1641.45 1824.5,1657.36 1823.44,1663.23C1823.09,1664.71 1821.88,1664.92 1820.96,1664.92C1820.75,1664.92 1820.47,1664.85 1820.12,1664.85C1818.63,1664.64 1817.85,1663.86 1817.85,1662.66C1817.85,1662.24 1817.99,1661.81 1818.07,1661.6L1818.13,1661.25Z" style="fill-rule:nonzero;"/>
        </g>
    </g>
</svg>
