<?xml version="1.0" encoding="UTF-8" standalone="no"?>
<!DOCTYPE svg PUBLIC "-//W3C//DTD SVG 1.1//EN" "http://www.w3.org/Graphics/SVG/1.1/DTD/svg11.dtd">
<svg width="100%" height="100%" viewBox="0 0 89 89" version="1.1" xmlns="http://www.w3.org/2000/svg" xmlns:xlink="http://www.w3.org/1999/xlink" xml:space="preserve" xmlns:serif="http://www.serif.com/" style="fill-rule:evenodd;clip-rule:evenodd;stroke-linejoin:round;stroke-miterlimit:2;">
    <g transform="matrix(1,0,0,1,-658.729,-721.632)">
        <g transform="matrix(1.41414,0,0,1.41429,-177.055,-770.755)">
            <path d="M653.382,1117.59L653.382,1055.22L591.019,1055.22L591.019,1117.59L653.382,1117.59ZM628.493,1089.59C628.14,1089.94 627.857,1090.01 627.362,1090.01C626.089,1090.01 624.322,1088.53 624.322,1086.48C624.322,1086.26 624.322,1085.91 624.463,1085.56L624.887,1083.65L626.089,1069.79C626.16,1069.08 626.231,1068.16 626.231,1067.45C626.231,1066.11 627.221,1065.76 627.928,1065.76C628.564,1065.76 629.413,1066.04 630.049,1066.39L639.524,1065.76C640.443,1065.69 641.857,1065.62 642.776,1065.4L643.059,1065.4C644.615,1065.4 645.463,1067.88 645.463,1068.87C645.463,1069.65 645.039,1070.64 643.978,1070.71L640.019,1070.92L630.685,1071.56L629.625,1082.16C631.534,1080.89 633.655,1080.18 636.413,1080.18C642.423,1080.18 647.514,1085.2 647.514,1093.55C647.514,1101.25 643.625,1108.39 634.079,1108.39C628.635,1108.39 622.978,1103.66 622.978,1100.9C622.978,1099.56 623.827,1097.01 625.453,1097.01C626.089,1097.01 626.584,1097.43 626.796,1097.93C628.635,1100.9 630.756,1103.16 634.079,1103.16C640.16,1103.16 642.564,1098.71 642.564,1093.62C642.564,1088.24 639.948,1085.27 635.847,1085.27C633.514,1085.27 631.463,1086.4 629.908,1088.1L628.493,1089.59ZM599.079,1107.69C597.312,1107.69 596.251,1105.57 596.251,1104.15C596.251,1103.73 596.322,1103.16 596.675,1102.67C597.099,1102.03 597.453,1101.61 597.665,1101.11C599.716,1096.94 603.392,1090.72 607.847,1086.12C612.231,1081.74 614.564,1078.49 614.564,1075.23C614.564,1072.26 612.655,1069.79 609.261,1069.79C605.655,1069.79 603.18,1072.12 602.19,1075.16C601.908,1075.94 601.271,1077.21 599.998,1077.21C598.796,1077.21 597.17,1075.59 597.17,1073.82C597.17,1071.91 600.776,1064.7 609.402,1064.7C615.695,1064.7 619.796,1069.08 619.796,1075.23C619.796,1080.96 615.978,1085.34 611.17,1090.08C607.352,1093.83 604.524,1098.5 602.685,1102.17C604.453,1102.03 606.433,1101.96 607.918,1101.96C610.463,1101.96 612.089,1102.03 614.281,1102.03C615.13,1102.03 617.534,1101.96 618.241,1101.96C619.301,1101.96 620.362,1103.59 620.362,1105.07C620.362,1105.85 620.009,1107.4 618.524,1107.4C616.968,1107.26 612.726,1106.98 607.352,1106.98C605.584,1106.98 603.817,1106.98 601.695,1107.26C601.2,1107.26 599.786,1107.62 599.433,1107.69L599.079,1107.69Z" style="fill-rule:nonzero;"/>
        </g>
    </g>
</svg>
