<?xml version="1.0" encoding="UTF-8" standalone="no"?>
<!DOCTYPE svg PUBLIC "-//W3C//DTD SVG 1.1//EN" "http://www.w3.org/Graphics/SVG/1.1/DTD/svg11.dtd">
<svg width="100%" height="100%" viewBox="0 0 89 89" version="1.1" xmlns="http://www.w3.org/2000/svg" xmlns:xlink="http://www.w3.org/1999/xlink" xml:space="preserve" xmlns:serif="http://www.serif.com/" style="fill-rule:evenodd;clip-rule:evenodd;stroke-linejoin:round;stroke-miterlimit:2;">
    <g transform="matrix(1,0,0,1,-758.718,-1921.63)">
        <g transform="matrix(1.41414,0,0,1.41429,-177.055,-770.755)">
            <path d="M724.089,1966.07L724.089,1903.71L661.726,1903.71L661.726,1966.07L724.089,1966.07ZM705.988,1941.47C705.988,1950.87 698.635,1955.96 690.291,1955.96C684.493,1955.96 681.029,1953.91 678.695,1949.95C678.625,1949.6 678.483,1949.38 678.483,1948.96C678.483,1947.48 680.039,1945.5 681.594,1945.5C682.301,1945.5 683.009,1945.85 683.362,1946.77C684.564,1949.67 686.473,1950.73 690.291,1950.73C696.089,1950.73 700.615,1947.55 700.615,1941.39L700.615,1939.77C697.291,1943.73 693.402,1945 689.514,1945C682.584,1945 678.2,1940.19 678.2,1931.78C678.2,1923.29 685.059,1914.31 693.615,1914.31C696.16,1914.31 698.635,1915.09 700.473,1916.79L700.473,1915.94C700.473,1915.16 701.251,1914.31 702.524,1914.31C704.079,1914.31 706.271,1915.66 706.271,1917L706.271,1917.07C706.2,1918.63 705.988,1920.89 705.988,1922.94L705.988,1941.47ZM700.615,1923.01L700.332,1923.01C699.766,1923.01 699.271,1922.73 698.988,1922.3C697.503,1920.25 695.524,1919.4 693.685,1919.4C688.524,1919.4 683.645,1925.77 683.645,1931.78C683.645,1937.86 686.12,1939.91 689.514,1939.91C693.473,1939.91 698.988,1936.66 700.332,1930.72C700.615,1929.87 700.615,1927.25 700.615,1924.07L700.615,1923.01Z" style="fill-rule:nonzero;"/>
        </g>
    </g>
</svg>
