<?xml version="1.0" encoding="UTF-8" standalone="no"?>
<!DOCTYPE svg PUBLIC "-//W3C//DTD SVG 1.1//EN" "http://www.w3.org/Graphics/SVG/1.1/DTD/svg11.dtd">
<svg width="100%" height="100%" viewBox="0 0 89 89" version="1.1" xmlns="http://www.w3.org/2000/svg" xmlns:xlink="http://www.w3.org/1999/xlink" xml:space="preserve" xmlns:serif="http://www.serif.com/" style="fill-rule:evenodd;clip-rule:evenodd;stroke-linejoin:round;stroke-miterlimit:2;">
    <g transform="matrix(1,0,0,1,-1502.52,-1892.27)">
        <g transform="matrix(1.41414,0,0,1.41429,-1052.39,-837.704)">
            <path d="M1863.53,1992.65C1866.92,1992.65 1869.04,1990.11 1869.04,1987.14L1869.04,1935.8C1869.04,1932.34 1866.57,1930.29 1863.53,1930.29L1812.2,1930.29C1808.73,1930.29 1806.68,1932.62 1806.68,1935.8L1806.68,1987.14C1806.68,1990.32 1809.15,1992.65 1812.2,1992.65L1863.53,1992.65ZM1844.93,1947.05C1844.93,1946.27 1845.71,1945.42 1846.98,1945.42C1848.61,1945.42 1850.8,1946.69 1850.8,1947.96C1850.02,1955.46 1850.02,1962.67 1850.02,1963.87C1850.02,1966 1850.17,1969.95 1851.93,1972.92C1852.14,1973.21 1852.29,1973.56 1852.29,1973.91C1852.29,1975.19 1850.8,1977.31 1849.11,1977.31C1848.33,1977.31 1846.56,1977.1 1845.14,1971.16C1842.03,1975.54 1837.72,1977.59 1833.48,1977.59C1827.04,1977.59 1822.87,1973 1822.87,1965.08C1822.87,1954.47 1830.79,1945.42 1838.71,1945.42C1840.9,1945.42 1843.17,1946.2 1844.93,1947.75L1844.93,1947.05ZM1844.79,1954.05C1844.51,1954.05 1843.8,1953.97 1843.38,1953.34C1842.03,1951.22 1840.2,1950.44 1838.71,1950.44C1834.26,1950.44 1828.46,1956.52 1828.46,1964.79C1828.46,1970.66 1830.79,1972.5 1833.48,1972.5C1838.71,1972.5 1844.3,1966.98 1844.72,1958.01C1844.79,1957.16 1844.79,1955.6 1844.79,1954.05Z" style="fill-rule:nonzero;"/>
        </g>
    </g>
</svg>
