<?xml version="1.0" encoding="UTF-8" standalone="no"?>
<!DOCTYPE svg PUBLIC "-//W3C//DTD SVG 1.1//EN" "http://www.w3.org/Graphics/SVG/1.1/DTD/svg11.dtd">
<svg width="100%" height="100%" viewBox="0 0 89 89" version="1.1" xmlns="http://www.w3.org/2000/svg" xmlns:xlink="http://www.w3.org/1999/xlink" xml:space="preserve" xmlns:serif="http://www.serif.com/" style="fill-rule:evenodd;clip-rule:evenodd;stroke-linejoin:round;stroke-miterlimit:2;">
    <g transform="matrix(1,0,0,1,-1702.49,-2042.27)">
        <g transform="matrix(1.41414,0,0,1.41429,-1052.39,-837.704)">
            <path d="M2004.94,2098.71C2008.34,2098.71 2010.46,2096.17 2010.46,2093.2L2010.46,2041.86C2010.46,2038.4 2007.98,2036.35 2004.94,2036.35L1953.61,2036.35C1950.14,2036.35 1948.1,2038.68 1948.1,2041.86L1948.1,2093.2C1948.1,2096.38 1950.57,2098.71 1953.61,2098.71L2004.94,2098.71ZM1992.29,2075.59C1992.29,2076.37 1992.43,2080.61 1992.43,2081.95C1992.43,2082.94 1991.65,2083.58 1990.45,2083.58C1988.89,2083.58 1986.77,2082.38 1986.77,2080.89C1986.77,2079.97 1986.91,2077.01 1986.91,2075.59L1986.91,2064.28C1986.91,2059.47 1985.85,2056.99 1982.46,2056.99C1978.64,2056.99 1974.04,2059.33 1972.35,2064.91C1971.5,2067.88 1971.5,2071.63 1971.5,2075.59L1971.5,2076.65C1971.5,2078.84 1971.64,2080.82 1971.64,2081.95C1971.64,2082.94 1970.86,2083.58 1969.66,2083.58C1968.11,2083.58 1965.98,2082.38 1965.98,2080.89C1965.98,2079.97 1966.12,2076.44 1966.12,2075.59L1966.12,2059.96C1966.12,2058.83 1965.91,2054.94 1965.91,2053.53C1965.91,2052.19 1967.26,2051.9 1967.89,2051.9C1968.95,2051.9 1971.57,2052.61 1971.57,2054.66L1971.57,2056.85C1974.47,2053.53 1978.64,2051.76 1982.46,2051.76C1991.15,2051.76 1992.29,2059.19 1992.29,2063.99L1992.29,2075.59Z" style="fill-rule:nonzero;"/>
        </g>
    </g>
</svg>
