<?xml version="1.0" encoding="UTF-8" standalone="no"?>
<!DOCTYPE svg PUBLIC "-//W3C//DTD SVG 1.1//EN" "http://www.w3.org/Graphics/SVG/1.1/DTD/svg11.dtd">
<svg width="100%" height="100%" viewBox="0 0 96 96" version="1.1" xmlns="http://www.w3.org/2000/svg" xmlns:xlink="http://www.w3.org/1999/xlink" xml:space="preserve" xmlns:serif="http://www.serif.com/" style="fill-rule:evenodd;clip-rule:evenodd;stroke-linejoin:round;stroke-miterlimit:2;">
    <g transform="matrix(1,0,0,1,-209.628,-3323.28)">
        <g transform="matrix(1,0,0,1,-110.019,-3591.86)">
            <path d="M415.248,6962.94C415.248,6936.55 393.848,6915.15 367.448,6915.15C341.048,6915.15 319.648,6936.55 319.648,6962.94C319.648,6989.35 341.048,7010.65 367.448,7010.65C393.848,7010.65 415.248,6989.35 415.248,6962.94ZM360.548,6982.55C360.548,6985.74 360.848,6988.94 360.848,6990.74C360.848,6991.94 359.948,6993.05 358.248,6993.05C356.248,6993.05 353.548,6991.35 353.548,6989.35C353.548,6988.05 353.648,6983.55 353.648,6982.35L353.648,6979.55L339.248,6980.05C338.848,6980.05 337.948,6980.15 336.348,6980.55L336.048,6980.55C333.948,6980.55 331.648,6978.15 331.648,6975.44C331.648,6974.55 331.948,6973.74 333.648,6971.15C336.048,6967.85 348.748,6942.44 351.148,6934.44C351.648,6933.15 352.648,6932.94 353.148,6932.94C355.148,6932.94 357.648,6936.15 357.648,6938.44C357.648,6939.05 357.548,6939.65 357.248,6940.15C356.448,6941.35 355.448,6943.05 354.848,6944.35C351.148,6952.35 345.448,6963.85 340.548,6972.94L353.648,6972.65L353.648,6957.55C353.648,6955.94 353.548,6950.85 353.548,6949.05C353.548,6947.94 354.448,6946.74 356.048,6946.74C358.048,6946.74 360.648,6948.44 360.648,6950.55C360.648,6951.74 360.548,6955.55 360.548,6957.55L360.548,6972.35C361.748,6972.24 363.748,6971.85 364.548,6971.85C366.948,6971.85 368.148,6975.44 368.148,6976.94C368.148,6977.65 367.848,6979.55 366.048,6979.55C365.148,6979.55 362.448,6979.35 360.548,6979.35L360.548,6982.55ZM373.348,6992.35C371.048,6992.35 369.648,6989.35 369.648,6987.44C369.648,6986.85 369.748,6986.05 370.148,6985.35C370.748,6984.44 371.148,6983.94 371.448,6983.24C374.148,6977.44 379.048,6968.85 384.948,6962.44C390.648,6956.35 393.648,6951.85 393.648,6947.35C393.648,6943.24 391.248,6939.85 386.748,6939.85C382.048,6939.85 378.748,6943.05 377.448,6947.24C377.048,6948.35 376.248,6950.15 374.548,6950.15C372.948,6950.15 370.748,6947.65 370.748,6945.44C370.748,6944.74 370.848,6943.94 371.348,6943.24C374.248,6937.15 379.448,6932.74 386.948,6932.74C395.248,6932.74 400.548,6938.85 400.548,6947.35C400.548,6955.35 395.648,6961.35 389.348,6967.94C384.248,6973.15 380.548,6979.65 378.148,6984.65C380.348,6984.55 382.948,6984.44 384.948,6984.44C388.348,6984.44 390.548,6984.55 393.348,6984.55C394.448,6984.55 396.748,6984.44 397.648,6984.44C399.948,6984.44 401.148,6987.94 401.148,6989.44C401.148,6990.55 400.448,6991.94 398.948,6991.94C394.048,6991.44 387.548,6991.35 384.248,6991.35C381.848,6991.35 379.548,6991.35 376.848,6991.74C376.248,6991.74 374.348,6992.24 373.848,6992.35L373.348,6992.35Z" style="fill-rule:nonzero;"/>
        </g>
    </g>
</svg>
