<?xml version="1.0" encoding="UTF-8" standalone="no"?>
<!DOCTYPE svg PUBLIC "-//W3C//DTD SVG 1.1//EN" "http://www.w3.org/Graphics/SVG/1.1/DTD/svg11.dtd">
<svg width="100%" height="100%" viewBox="0 0 96 96" version="1.1" xmlns="http://www.w3.org/2000/svg" xmlns:xlink="http://www.w3.org/1999/xlink" xml:space="preserve" xmlns:serif="http://www.serif.com/" style="fill-rule:evenodd;clip-rule:evenodd;stroke-linejoin:round;stroke-miterlimit:2;">
    <g transform="matrix(1,0,0,1,-1509.63,-3623.28)">
        <g transform="matrix(1,0,0,1,-110.019,-3591.86)">
            <path d="M1715.25,7262.94C1715.25,7236.55 1693.85,7215.15 1667.45,7215.15C1641.05,7215.15 1619.65,7236.55 1619.65,7262.94C1619.65,7289.35 1641.05,7310.65 1667.45,7310.65C1693.85,7310.65 1715.25,7289.35 1715.25,7262.94ZM1666.05,7239.65C1665.75,7240.85 1665.25,7242.24 1665.25,7242.74C1661.55,7260.85 1658.15,7283.85 1657.65,7289.94C1657.55,7292.35 1655.05,7292.94 1653.55,7292.94C1651.85,7292.94 1650.75,7292.05 1650.75,7290.15C1650.75,7289.35 1650.95,7288.74 1651.05,7287.94C1652.85,7277.55 1654.65,7266.35 1654.75,7265.85C1651.65,7269.15 1647.75,7271.15 1643.85,7271.15C1636.65,7271.15 1631.85,7265.15 1631.85,7255.55C1631.85,7244.24 1639.45,7232.74 1649.65,7232.74C1654.55,7232.74 1657.75,7235.05 1659.65,7237.44C1659.85,7236.44 1660.45,7235.05 1661.95,7235.05C1663.95,7235.05 1666.05,7236.94 1666.05,7239.15L1666.05,7239.65ZM1676.85,7267.24C1676.45,7267.74 1676.05,7267.85 1675.45,7267.85C1673.75,7267.85 1671.35,7265.85 1671.35,7262.94C1671.35,7262.65 1671.45,7262.15 1671.55,7261.65L1672.05,7259.05L1673.75,7239.85C1673.85,7238.85 1673.95,7237.55 1673.95,7236.55C1673.95,7234.74 1675.15,7234.24 1676.05,7234.24C1676.95,7234.24 1678.05,7234.65 1678.95,7235.15L1691.35,7234.24C1692.55,7234.15 1694.35,7234.05 1695.65,7233.74L1695.95,7233.74C1698.05,7233.74 1699.15,7237.15 1699.15,7238.55C1699.15,7239.65 1698.55,7241.05 1697.15,7241.05L1692.05,7241.35L1679.75,7242.24L1678.35,7256.94C1680.85,7255.24 1683.65,7254.24 1687.25,7254.24C1695.15,7254.24 1701.85,7261.15 1701.85,7272.74C1701.85,7283.44 1696.75,7293.35 1684.25,7293.35C1678.25,7293.35 1673.85,7289.85 1670.45,7285.65C1669.95,7284.85 1669.65,7283.94 1669.65,7282.94C1669.65,7281.15 1670.75,7277.55 1672.95,7277.55C1673.75,7277.55 1674.35,7278.15 1674.65,7278.85C1677.05,7282.94 1679.85,7286.05 1684.25,7286.05C1692.25,7286.05 1695.35,7279.94 1695.35,7272.85C1695.35,7265.35 1691.85,7261.24 1686.55,7261.24C1683.45,7261.24 1680.75,7262.85 1678.75,7265.15L1676.85,7267.24ZM1658.05,7246.65C1657.35,7246.35 1656.95,7245.65 1656.65,7244.94C1655.85,7242.94 1654.15,7239.85 1649.95,7239.85C1642.75,7239.85 1638.35,7248.44 1638.35,7255.24C1638.35,7261.55 1640.35,7263.94 1643.75,7263.94C1653.45,7263.94 1657.45,7249.55 1657.85,7248.05L1658.05,7246.65Z" style="fill-rule:nonzero;"/>
        </g>
    </g>
</svg>
