<?xml version="1.0" encoding="UTF-8" standalone="no"?>
<!DOCTYPE svg PUBLIC "-//W3C//DTD SVG 1.1//EN" "http://www.w3.org/Graphics/SVG/1.1/DTD/svg11.dtd">
<svg width="100%" height="100%" viewBox="0 0 96 96" version="1.1" xmlns="http://www.w3.org/2000/svg" xmlns:xlink="http://www.w3.org/1999/xlink" xml:space="preserve" xmlns:serif="http://www.serif.com/" style="fill-rule:evenodd;clip-rule:evenodd;stroke-linejoin:round;stroke-miterlimit:2;">
    <g transform="matrix(1,0,0,1,-1009.63,-3023.28)">
        <g transform="matrix(1,0,0,1,-110.019,-3591.86)">
            <path d="M1215.25,6662.94C1215.25,6636.55 1193.85,6615.15 1167.45,6615.15C1141.05,6615.15 1119.65,6636.55 1119.65,6662.94C1119.65,6689.35 1141.05,6710.65 1167.45,6710.65C1193.85,6710.65 1215.25,6689.35 1215.25,6662.94ZM1142.05,6637.74C1144.15,6635.05 1146.95,6633.24 1150.15,6633.24C1159.65,6633.24 1164.05,6646.55 1164.05,6662.35C1164.05,6678.44 1159.45,6693.94 1148.65,6693.94C1138.35,6693.94 1134.05,6680.44 1134.05,6664.44C1134.05,6650.35 1138.05,6637.55 1141.35,6637.55C1141.65,6637.55 1141.85,6637.65 1142.05,6637.74ZM1202.85,6640.05C1200.05,6651.15 1194.85,6682.74 1194.55,6690.35C1194.35,6692.74 1191.85,6693.35 1190.35,6693.35C1188.65,6693.35 1187.55,6692.44 1187.55,6690.55C1187.55,6689.74 1187.75,6689.15 1187.95,6688.35C1188.25,6686.05 1188.75,6683.65 1188.95,6682.24C1189.75,6677.65 1190.65,6671.85 1191.55,6666.24C1188.55,6669.55 1184.55,6671.55 1180.65,6671.55C1173.55,6671.55 1168.75,6665.55 1168.75,6655.94C1168.75,6644.65 1176.25,6633.15 1186.45,6633.15C1191.35,6633.15 1194.55,6635.44 1196.45,6637.85C1196.65,6636.85 1197.25,6635.44 1198.75,6635.44C1200.75,6635.44 1202.85,6637.35 1202.85,6639.55L1202.85,6640.05ZM1148.45,6686.74C1154.65,6686.74 1157.75,6675.74 1157.75,6661.74C1157.75,6651.65 1156.15,6640.24 1149.95,6640.24C1146.45,6640.24 1140.25,6647.35 1140.25,6664.35C1140.25,6677.74 1142.85,6686.74 1148.45,6686.74ZM1194.95,6647.05C1194.15,6646.74 1193.75,6646.05 1193.45,6645.35C1192.65,6643.35 1190.95,6640.24 1186.75,6640.24C1179.55,6640.24 1175.15,6648.85 1175.15,6655.65C1175.15,6661.94 1177.15,6664.35 1180.55,6664.35C1190.25,6664.35 1194.25,6649.94 1194.65,6648.44L1194.95,6647.05Z" style="fill-rule:nonzero;"/>
        </g>
    </g>
</svg>
