<?xml version="1.0" encoding="UTF-8" standalone="no"?>
<!DOCTYPE svg PUBLIC "-//W3C//DTD SVG 1.1//EN" "http://www.w3.org/Graphics/SVG/1.1/DTD/svg11.dtd">
<svg width="100%" height="100%" viewBox="0 0 89 89" version="1.1" xmlns="http://www.w3.org/2000/svg" xmlns:xlink="http://www.w3.org/1999/xlink" xml:space="preserve" xmlns:serif="http://www.serif.com/" style="fill-rule:evenodd;clip-rule:evenodd;stroke-linejoin:round;stroke-miterlimit:2;">
    <g transform="matrix(1,0,0,1,-2102.45,-1742.27)">
        <g transform="matrix(1.41414,0,0,1.41429,-1052.39,-837.704)">
            <path d="M2287.77,1886.59C2291.17,1886.59 2293.29,1884.05 2293.29,1881.08L2293.29,1829.74C2293.29,1826.28 2290.81,1824.23 2287.77,1824.23L2236.44,1824.23C2232.97,1824.23 2230.92,1826.56 2230.92,1829.74L2230.92,1881.08C2230.92,1884.26 2233.4,1886.59 2236.44,1886.59L2287.77,1886.59ZM2270.94,1850.95C2272.43,1850.11 2274.12,1849.61 2275.96,1849.61C2282.47,1849.61 2286.92,1855.2 2286.92,1862.69C2286.92,1870.89 2282.47,1877.4 2275.12,1877.4C2268.4,1877.4 2263.31,1871.53 2263.31,1864.25C2263.31,1861.56 2263.31,1853.36 2273.42,1835.89C2273.49,1835.82 2273.56,1835.61 2273.7,1835.47C2274.34,1834.13 2275.19,1833.63 2276.11,1833.63C2277.24,1833.63 2279.14,1834.41 2279.14,1835.96C2279.14,1836.6 2278.65,1837.45 2278.37,1837.87C2275.26,1842.12 2272.85,1847 2270.94,1850.95ZM2251.43,1869.13C2251.99,1865.8 2252.63,1861.63 2253.34,1857.6C2251.08,1859.93 2248.25,1861.42 2245.42,1861.42C2240.26,1861.42 2236.79,1857.11 2236.79,1850.11C2236.79,1841.97 2242.24,1833.7 2249.59,1833.7C2253.12,1833.7 2255.46,1835.4 2256.8,1837.03C2257.01,1836.32 2257.37,1835.33 2258.5,1835.33C2259.91,1835.33 2261.47,1836.67 2261.47,1838.3L2261.47,1838.65C2261.26,1839.57 2260.9,1840.56 2260.83,1840.84C2257.93,1855.48 2255.67,1871.81 2255.39,1874.92C2255.32,1876.69 2253.48,1877.12 2252.42,1877.12C2251.22,1877.12 2250.37,1876.48 2250.37,1875.14C2250.37,1874.57 2250.58,1874.08 2250.65,1873.51L2251.43,1869.13ZM2275.12,1872.38C2279.14,1872.38 2282.19,1868.56 2282.19,1862.83C2282.19,1858.38 2279.78,1854.63 2275.89,1854.63C2271.09,1854.63 2267.97,1859.02 2267.97,1864.18C2267.97,1868.84 2270.94,1872.38 2275.12,1872.38ZM2255.74,1843.74C2255.18,1843.53 2254.89,1842.96 2254.68,1842.54C2254.04,1841.06 2252.84,1838.79 2249.87,1838.79C2244.64,1838.79 2241.46,1845.02 2241.46,1849.89C2241.46,1854.49 2242.87,1856.19 2245.42,1856.19C2251.99,1856.19 2254.96,1846.78 2255.53,1844.73L2255.74,1843.74Z" style="fill-rule:nonzero;"/>
        </g>
    </g>
</svg>
