<?xml version="1.0" encoding="UTF-8" standalone="no"?>
<!DOCTYPE svg PUBLIC "-//W3C//DTD SVG 1.1//EN" "http://www.w3.org/Graphics/SVG/1.1/DTD/svg11.dtd">
<svg width="100%" height="100%" viewBox="0 0 89 89" version="1.1" xmlns="http://www.w3.org/2000/svg" xmlns:xlink="http://www.w3.org/1999/xlink" xml:space="preserve" xmlns:serif="http://www.serif.com/" style="fill-rule:evenodd;clip-rule:evenodd;stroke-linejoin:round;stroke-miterlimit:2;">
    <g transform="matrix(1,0,0,1,-1502.52,-542.274)">
        <g transform="matrix(1.41414,0,0,1.41429,-1052.39,-837.704)">
            <path d="M1863.53,1038.11C1866.92,1038.11 1869.04,1035.56 1869.04,1032.59L1869.04,981.257C1869.04,977.793 1866.57,975.742 1863.53,975.742L1812.2,975.742C1808.73,975.742 1806.68,978.075 1806.68,981.257L1806.68,1032.59C1806.68,1035.77 1809.15,1038.11 1812.2,1038.11L1863.53,1038.11ZM1840.41,988.399C1842.32,986.419 1844.79,985.146 1847.69,985.146C1856.03,985.146 1859.92,994.621 1859.92,1006.15C1859.92,1017.81 1855.89,1028.91 1846.28,1028.91C1837.15,1028.91 1833.12,1019.3 1833.12,1007.63C1833.12,999.146 1836.38,988.257 1839.7,988.257C1839.98,988.257 1840.2,988.328 1840.41,988.399ZM1846.13,1023.75C1851.93,1023.75 1854.83,1015.62 1854.83,1005.72C1854.83,997.52 1852.36,990.166 1847.55,990.166C1843.94,990.166 1838.22,995.469 1838.22,1007.56C1838.22,1017.11 1840.83,1023.75 1846.13,1023.75ZM1825.42,1027.15C1825.42,1028.14 1824.64,1028.7 1823.58,1028.7C1822.02,1028.7 1820.04,1027.43 1820.04,1026.09C1820.04,1025.17 1820.12,1022.27 1820.12,1021.07L1820.12,993.56C1817.78,994.762 1815.38,995.399 1814.95,995.399C1813.47,995.399 1811.84,994.055 1811.84,993.065C1811.84,992.146 1812.48,991.722 1812.97,991.51C1815.59,990.449 1818.07,988.964 1819.69,987.692L1819.97,987.338L1820.61,986.702C1821.25,985.995 1822.02,985.5 1822.66,985.5C1823.93,985.5 1825.63,986.984 1825.63,988.681C1825.63,989.601 1825.35,990.591 1825.35,992.217L1825.35,1020.71C1825.35,1022.27 1825.42,1025.59 1825.42,1027.01L1825.42,1027.15Z" style="fill-rule:nonzero;"/>
        </g>
    </g>
</svg>
