<?xml version="1.0" encoding="UTF-8" standalone="no"?>
<!DOCTYPE svg PUBLIC "-//W3C//DTD SVG 1.1//EN" "http://www.w3.org/Graphics/SVG/1.1/DTD/svg11.dtd">
<svg width="100%" height="100%" viewBox="0 0 89 89" version="1.1" xmlns="http://www.w3.org/2000/svg" xmlns:xlink="http://www.w3.org/1999/xlink" xml:space="preserve" xmlns:serif="http://www.serif.com/" style="fill-rule:evenodd;clip-rule:evenodd;stroke-linejoin:round;stroke-miterlimit:2;">
    <g transform="matrix(1,0,0,1,-658.729,-1771.63)">
        <g transform="matrix(1.41414,0,0,1.41429,-177.055,-770.755)">
            <path d="M653.382,1860.01L653.382,1797.65L591.019,1797.65L591.019,1860.01L653.382,1860.01ZM611.17,1842.55C611.736,1839.22 612.372,1835.05 613.079,1831.02C610.817,1833.35 607.988,1834.84 605.16,1834.84C599.998,1834.84 596.534,1830.53 596.534,1823.53C596.534,1815.39 601.978,1807.12 609.332,1807.12C612.867,1807.12 615.2,1808.82 616.615,1810.44C616.756,1809.74 617.11,1808.75 618.241,1808.75C619.655,1808.75 621.211,1810.09 621.211,1811.72L621.211,1812.07C620.998,1812.99 620.645,1813.98 620.574,1814.26C620.009,1817.23 615.483,1841.49 615.2,1848.34C615.059,1850.11 613.291,1850.54 612.16,1850.54C610.958,1850.54 610.18,1849.9 610.18,1848.56C610.18,1847.99 610.322,1847.5 610.392,1846.93L611.17,1842.55ZM628.988,1832.01C628.705,1832.36 628.423,1832.43 627.928,1832.43C626.726,1832.43 625.029,1830.95 625.029,1828.9C625.029,1828.69 625.099,1828.33 625.17,1827.98L625.524,1826.07L626.726,1812.21C626.796,1811.51 626.867,1810.59 626.867,1809.88C626.867,1808.54 627.786,1808.18 628.423,1808.18C629.059,1808.18 629.837,1808.47 630.473,1808.82L639.453,1808.18C640.301,1808.11 641.645,1808.04 642.564,1807.83L642.776,1807.83C644.261,1807.83 645.039,1810.3 645.039,1811.29C645.039,1812.07 644.685,1813.06 643.625,1813.13L639.948,1813.34L631.11,1813.98L630.12,1824.59C631.887,1823.31 633.867,1822.61 636.483,1822.61C642.211,1822.61 647.019,1827.63 647.019,1835.97C647.019,1843.68 643.342,1850.82 634.291,1850.82C629.059,1850.82 623.756,1846.01 623.756,1843.32C623.756,1841.98 624.604,1839.43 626.16,1839.43C626.726,1839.43 627.15,1839.86 627.433,1840.35C629.13,1843.32 631.18,1845.59 634.291,1845.59C640.089,1845.59 642.352,1841.13 642.352,1836.04C642.352,1830.67 639.806,1827.7 635.988,1827.7C633.726,1827.7 631.817,1828.83 630.332,1830.53L628.988,1832.01ZM615.483,1817.16C614.918,1816.95 614.635,1816.38 614.423,1815.96C613.786,1814.48 612.584,1812.21 609.615,1812.21C604.382,1812.21 601.2,1818.43 601.2,1823.31C601.2,1827.91 602.615,1829.61 605.16,1829.61C612.089,1829.61 614.918,1819.5 615.271,1818.15L615.483,1817.16Z" style="fill-rule:nonzero;"/>
        </g>
    </g>
</svg>
