<?xml version="1.0" encoding="UTF-8" standalone="no"?>
<!DOCTYPE svg PUBLIC "-//W3C//DTD SVG 1.1//EN" "http://www.w3.org/Graphics/SVG/1.1/DTD/svg11.dtd">
<svg width="100%" height="100%" viewBox="0 0 96 96" version="1.1" xmlns="http://www.w3.org/2000/svg" xmlns:xlink="http://www.w3.org/1999/xlink" xml:space="preserve" xmlns:serif="http://www.serif.com/" style="fill-rule:evenodd;clip-rule:evenodd;stroke-linejoin:round;stroke-miterlimit:2;">
    <g transform="matrix(1,0,0,1,-1809.63,-3623.28)">
        <g transform="matrix(1,0,0,1,-110.019,-3591.86)">
            <path d="M2015.25,7262.94C2015.25,7236.55 1993.85,7215.15 1967.45,7215.15C1941.05,7215.15 1919.65,7236.55 1919.65,7262.94C1919.65,7289.35 1941.05,7310.65 1967.45,7310.65C1993.85,7310.65 2015.25,7289.35 2015.25,7262.94ZM1998.05,7241.65C1998.15,7241.65 1998.35,7241.55 1998.45,7241.55C1999.95,7241.55 2000.95,7242.94 2000.95,7244.55C2000.95,7247.94 1992.45,7256.35 1989.85,7258.44C1997.35,7262.55 2001.25,7267.85 2001.25,7275.85C2001.25,7286.65 1994.15,7293.35 1983.95,7293.35C1974.65,7293.35 1968.85,7286.24 1968.85,7276.94C1968.85,7269.85 1972.25,7264.35 1977.75,7259.74C1972.65,7256.35 1970.95,7252.74 1970.95,7247.44C1970.95,7239.55 1976.35,7232.85 1985.15,7232.85C1990.95,7232.85 1995.05,7236.74 1997.85,7241.35L1998.05,7241.65ZM1964.65,7242.74C1961.85,7256.94 1958.15,7278.94 1957.15,7289.94C1956.95,7292.35 1954.55,7292.94 1952.95,7292.94C1951.35,7292.94 1950.25,7292.05 1950.25,7290.15C1950.25,7289.35 1950.45,7288.74 1950.55,7287.94C1952.35,7277.55 1954.15,7266.35 1954.25,7265.85C1951.15,7269.15 1947.25,7271.15 1943.35,7271.15C1936.15,7271.15 1931.35,7265.15 1931.35,7255.55C1931.35,7244.24 1938.85,7232.74 1949.15,7232.74C1954.05,7232.74 1957.25,7235.05 1959.15,7237.44C1959.35,7236.44 1959.85,7235.05 1961.45,7235.05C1963.45,7235.05 1965.55,7236.94 1965.55,7239.15L1965.55,7239.65L1964.65,7242.74ZM1957.55,7246.65C1956.85,7246.35 1956.35,7245.65 1956.15,7244.94C1955.25,7242.94 1953.55,7239.85 1949.45,7239.85C1942.25,7239.85 1937.85,7248.44 1937.85,7255.24C1937.85,7261.55 1939.75,7263.94 1943.25,7263.94C1952.75,7263.94 1956.65,7250.15 1957.25,7248.05L1957.55,7246.65ZM1983.95,7263.15C1978.15,7267.94 1975.25,7272.05 1975.25,7276.74C1975.25,7281.44 1977.85,7286.15 1983.95,7286.15C1990.55,7286.15 1994.75,7281.94 1994.75,7276.24C1994.75,7271.35 1992.85,7267.55 1984.95,7263.65C1984.65,7263.44 1984.35,7263.24 1983.95,7263.15ZM1993.05,7246.24C1992.85,7245.94 1992.65,7245.74 1992.45,7245.35C1990.55,7241.74 1988.55,7239.85 1985.25,7239.85C1979.75,7239.85 1977.35,7243.74 1977.35,7247.44C1977.35,7250.55 1978.35,7252.24 1983.65,7255.15C1987.15,7252.44 1990.25,7249.35 1993.05,7246.24Z" style="fill-rule:nonzero;"/>
        </g>
    </g>
</svg>
