<?xml version="1.0" encoding="UTF-8" standalone="no"?>
<!DOCTYPE svg PUBLIC "-//W3C//DTD SVG 1.1//EN" "http://www.w3.org/Graphics/SVG/1.1/DTD/svg11.dtd">
<svg width="100%" height="100%" viewBox="0 0 89 89" version="1.1" xmlns="http://www.w3.org/2000/svg" xmlns:xlink="http://www.w3.org/1999/xlink" xml:space="preserve" xmlns:serif="http://www.serif.com/" style="fill-rule:evenodd;clip-rule:evenodd;stroke-linejoin:round;stroke-miterlimit:2;">
    <g transform="matrix(1,0,0,1,-558.739,-1621.63)">
        <g transform="matrix(1.41414,0,0,1.41429,-177.055,-770.755)">
            <path d="M582.675,1753.95L582.675,1691.59L520.312,1691.59L520.312,1753.95L582.675,1753.95ZM548.665,1707.42C549.726,1707.42 550.433,1708.34 550.433,1709.55C550.433,1712.3 543.503,1718.81 542.514,1719.59C547.887,1722.56 550.716,1726.38 550.716,1732.17C550.716,1739.88 545.554,1744.76 538.2,1744.76C531.483,1744.76 527.312,1739.67 527.312,1732.95C527.312,1727.79 529.786,1723.9 533.675,1720.51C530.069,1718.1 528.796,1715.49 528.796,1711.67C528.796,1706.01 532.685,1701.13 539.049,1701.13C543.291,1701.13 546.261,1703.96 548.241,1707.21L548.382,1707.42L548.665,1707.42ZM572.705,1736.98C572.705,1739.31 572.918,1741.58 572.918,1742.92C572.918,1743.7 572.281,1744.55 571.15,1744.55C569.736,1744.55 567.897,1743.27 567.897,1741.86C567.897,1740.94 568.039,1737.69 568.039,1736.84L568.039,1734.79L558.14,1735.14C557.857,1735.14 557.291,1735.28 556.16,1735.57L556.019,1735.57C554.534,1735.57 552.978,1733.8 552.978,1731.89C552.978,1731.54 552.978,1730.69 554.322,1728.71C554.675,1728.28 554.887,1727.93 555.029,1727.58C558.211,1721.5 564.291,1708.56 566.342,1702.26C566.625,1701.34 567.332,1701.2 567.685,1701.2C569.029,1701.2 570.726,1703.47 570.726,1705.16C570.726,1705.59 570.655,1706.01 570.443,1706.36C569.877,1707.21 569.241,1708.49 568.817,1709.4C566.342,1715.2 562.382,1723.48 559.059,1730.05L568.039,1729.84L568.039,1718.95C568.039,1717.82 567.897,1714.14 567.897,1712.8C567.897,1712.02 568.534,1711.17 569.665,1711.17C571.009,1711.17 572.776,1712.38 572.776,1713.86C572.776,1714.78 572.705,1717.54 572.705,1718.95L572.705,1729.63C573.554,1729.56 574.897,1729.27 575.463,1729.27C577.089,1729.27 577.867,1731.89 577.867,1732.95C577.867,1733.44 577.726,1734.79 576.524,1734.79C575.817,1734.79 574.049,1734.65 572.705,1734.65L572.705,1736.98ZM538.2,1722.98C534.029,1726.44 531.978,1729.41 531.978,1732.81C531.978,1736.2 533.746,1739.6 538.2,1739.6C542.938,1739.6 546.049,1736.56 546.049,1732.45C546.049,1728.92 544.564,1726.16 538.978,1723.33C538.766,1723.19 538.483,1723.05 538.2,1722.98ZM544.352,1710.18C543.009,1707.57 541.524,1706.15 539.12,1706.15C535.16,1706.15 533.463,1708.98 533.463,1711.67C533.463,1713.86 534.17,1715.13 537.988,1717.18C540.534,1715.27 542.726,1713.01 544.776,1710.82L544.352,1710.18Z" style="fill-rule:nonzero;"/>
        </g>
    </g>
</svg>
