<?xml version="1.0" encoding="UTF-8" standalone="no"?>
<!DOCTYPE svg PUBLIC "-//W3C//DTD SVG 1.1//EN" "http://www.w3.org/Graphics/SVG/1.1/DTD/svg11.dtd">
<svg width="100%" height="100%" viewBox="0 0 89 89" version="1.1" xmlns="http://www.w3.org/2000/svg" xmlns:xlink="http://www.w3.org/1999/xlink" xml:space="preserve" xmlns:serif="http://www.serif.com/" style="fill-rule:evenodd;clip-rule:evenodd;stroke-linejoin:round;stroke-miterlimit:2;">
    <g transform="matrix(1,0,0,1,-758.718,-1621.63)">
        <g transform="matrix(1.41414,0,0,1.41429,-177.055,-770.755)">
            <path d="M724.089,1753.95L724.089,1691.59L661.726,1691.59L661.726,1753.95L724.089,1753.95ZM690.079,1707.42C691.14,1707.42 691.847,1708.34 691.847,1709.55C691.847,1712.09 685.766,1718.1 683.857,1719.59C689.231,1722.56 692.059,1726.38 692.059,1732.17C692.059,1739.88 686.968,1744.76 679.615,1744.76C672.897,1744.76 668.655,1739.67 668.655,1732.95C668.655,1727.79 671.2,1723.9 675.089,1720.51C671.483,1718.1 670.211,1715.49 670.211,1711.67C670.211,1706.01 674.099,1701.13 680.463,1701.13C684.705,1701.13 687.675,1703.96 689.655,1707.21C689.655,1707.28 689.726,1707.35 689.726,1707.42L690.079,1707.42ZM703.16,1718.31C704.645,1717.47 706.342,1716.97 708.18,1716.97C714.685,1716.97 719.14,1722.56 719.14,1730.05C719.14,1738.25 714.685,1744.76 707.332,1744.76C700.615,1744.76 695.524,1738.89 695.524,1731.61C695.524,1726.59 696.726,1721.57 699.13,1716.19C701.392,1711.03 703.514,1706.79 705.564,1703.25C705.705,1703.18 705.776,1702.97 705.847,1702.83C706.695,1701.06 707.897,1700.99 708.251,1700.99C708.534,1700.99 711.291,1701.13 711.291,1703.32C711.291,1703.96 710.867,1704.81 710.514,1705.23C707.402,1709.48 704.998,1714.35 703.16,1718.31ZM707.332,1739.74C711.291,1739.74 714.402,1735.92 714.402,1730.19C714.402,1725.74 711.928,1721.99 708.11,1721.99C703.301,1721.99 700.19,1726.38 700.19,1731.54C700.19,1736.2 703.089,1739.74 707.332,1739.74ZM679.615,1722.98C675.443,1726.44 673.322,1729.41 673.322,1732.81C673.322,1736.2 675.16,1739.6 679.615,1739.6C684.352,1739.6 687.463,1736.56 687.463,1732.45C687.463,1728.92 685.978,1726.16 680.392,1723.33C680.11,1723.19 679.897,1723.05 679.615,1722.98ZM686.12,1710.82C685.978,1710.61 685.837,1710.39 685.766,1710.18C684.352,1707.57 682.938,1706.15 680.534,1706.15C676.574,1706.15 674.877,1708.98 674.877,1711.67C674.877,1713.86 675.584,1715.13 679.402,1717.18C681.877,1715.27 684.14,1713.01 686.12,1710.82Z" style="fill-rule:nonzero;"/>
        </g>
    </g>
</svg>
