<?xml version="1.0" encoding="UTF-8" standalone="no"?>
<!DOCTYPE svg PUBLIC "-//W3C//DTD SVG 1.1//EN" "http://www.w3.org/Graphics/SVG/1.1/DTD/svg11.dtd">
<svg width="100%" height="100%" viewBox="0 0 96 96" version="1.1" xmlns="http://www.w3.org/2000/svg" xmlns:xlink="http://www.w3.org/1999/xlink" xml:space="preserve" xmlns:serif="http://www.serif.com/" style="fill-rule:evenodd;clip-rule:evenodd;stroke-linejoin:round;stroke-miterlimit:2;">
    <g transform="matrix(1,0,0,1,-1609.63,-3323.28)">
        <g transform="matrix(1,0,0,1,-110.019,-3591.86)">
            <path d="M1815.25,6962.94C1815.25,6936.55 1793.85,6915.15 1767.45,6915.15C1741.05,6915.15 1719.65,6936.55 1719.65,6962.94C1719.65,6989.35 1741.05,7010.65 1767.45,7010.65C1793.85,7010.65 1815.25,6989.35 1815.25,6962.94ZM1784.95,6935.24C1786.05,6933.05 1787.45,6932.65 1788.45,6932.65C1788.65,6932.65 1792.85,6932.85 1792.85,6935.94C1792.85,6936.85 1792.15,6937.94 1791.75,6938.55C1787.15,6944.44 1783.65,6951.15 1780.95,6956.74C1783.05,6955.44 1785.55,6954.85 1788.25,6954.85C1797.75,6954.85 1804.25,6962.55 1804.25,6972.94C1804.25,6984.24 1797.75,6993.35 1787.05,6993.35C1777.25,6993.35 1769.85,6985.15 1769.85,6975.15C1769.85,6968.15 1771.65,6961.24 1775.05,6953.74C1778.45,6946.55 1781.45,6940.65 1784.45,6935.85L1784.95,6935.24ZM1739.85,6967.24C1739.45,6967.74 1739.05,6967.85 1738.35,6967.85C1736.55,6967.85 1734.15,6965.85 1734.15,6962.94C1734.15,6962.65 1734.15,6962.15 1734.25,6961.65C1734.55,6960.65 1734.75,6959.74 1734.85,6959.05L1736.65,6939.85C1736.75,6938.85 1736.75,6937.55 1736.75,6936.55C1736.75,6934.74 1738.15,6934.24 1739.05,6934.24C1739.95,6934.24 1741.15,6934.65 1742.05,6935.15L1755.15,6934.24C1756.45,6934.15 1758.35,6934.05 1759.65,6933.74L1759.95,6933.74C1762.15,6933.74 1763.35,6937.15 1763.35,6938.55C1763.35,6939.65 1762.75,6941.05 1761.25,6941.05L1755.85,6941.35L1742.95,6942.24L1741.55,6956.94C1744.05,6955.24 1747.05,6954.24 1750.85,6954.24C1759.15,6954.24 1766.15,6961.15 1766.15,6972.74C1766.15,6983.44 1760.75,6993.35 1747.65,6993.35C1741.35,6993.35 1736.65,6989.85 1733.15,6985.65C1732.55,6984.85 1732.25,6983.94 1732.25,6982.94C1732.25,6981.15 1733.45,6977.55 1735.75,6977.55C1736.55,6977.55 1737.25,6978.15 1737.55,6978.85C1740.05,6982.94 1743.05,6986.05 1747.65,6986.05C1756.05,6986.05 1759.35,6979.94 1759.35,6972.85C1759.35,6965.35 1755.75,6961.24 1750.15,6961.24C1746.85,6961.24 1744.05,6962.85 1741.85,6965.15L1739.85,6967.24ZM1787.05,6986.35C1792.85,6986.35 1797.35,6981.15 1797.35,6973.15C1797.35,6966.94 1793.75,6961.74 1788.15,6961.74C1781.15,6961.74 1776.65,6967.85 1776.65,6975.05C1776.65,6981.44 1780.85,6986.35 1787.05,6986.35Z" style="fill-rule:nonzero;"/>
        </g>
    </g>
</svg>
