<?xml version="1.0" encoding="UTF-8" standalone="no"?>
<!DOCTYPE svg PUBLIC "-//W3C//DTD SVG 1.1//EN" "http://www.w3.org/Graphics/SVG/1.1/DTD/svg11.dtd">
<svg width="100%" height="100%" viewBox="0 0 89 89" version="1.1" xmlns="http://www.w3.org/2000/svg" xmlns:xlink="http://www.w3.org/1999/xlink" xml:space="preserve" xmlns:serif="http://www.serif.com/" style="fill-rule:evenodd;clip-rule:evenodd;stroke-linejoin:round;stroke-miterlimit:2;">
    <g transform="matrix(1,0,0,1,-1058.69,-1471.63)">
        <g transform="matrix(1.41414,0,0,1.41429,-177.055,-770.755)">
            <path d="M936.211,1647.89L936.211,1585.53L873.847,1585.53L873.847,1647.89L936.211,1647.89ZM920.301,1630.42L922.281,1618.9C919.948,1621.23 916.978,1622.72 914.009,1622.72C908.564,1622.72 904.887,1618.4 904.887,1611.4C904.887,1603.27 910.615,1595 918.392,1595C922.14,1595 924.544,1596.7 926.029,1598.32C926.17,1597.62 926.594,1596.63 927.726,1596.63C929.281,1596.63 930.908,1597.97 930.908,1599.6L930.908,1599.95C928.786,1606.81 924.756,1631.77 924.544,1636.22C924.402,1637.99 922.493,1638.41 921.362,1638.41C920.089,1638.41 919.241,1637.78 919.241,1636.43C919.241,1635.87 919.382,1635.38 919.524,1634.81L920.301,1630.42ZM883.958,1634.67L883.958,1634.45C890.604,1614.52 893.645,1607.02 896.12,1601.08L883.887,1602.21C883.322,1602.28 882.756,1602.35 882.261,1602.35C879.857,1602.35 878.655,1599.53 878.655,1598.39C878.655,1597.97 878.867,1596.98 879.928,1596.98C880.564,1596.98 881.059,1597.05 881.908,1597.05L882.615,1597.05L897.039,1595.99C897.392,1595.99 897.746,1595.85 898.029,1595.78C898.453,1595.64 898.948,1595.57 899.372,1595.57L899.584,1595.57C900.786,1595.78 902.625,1597.4 902.625,1599.03L902.625,1599.31C902.554,1600.09 902.2,1600.73 901.918,1601.22C897.817,1609.42 890.322,1630.42 889.19,1636.65C888.908,1638.13 887.635,1638.34 886.716,1638.34C886.503,1638.34 886.221,1638.27 885.938,1638.27C884.453,1638.06 883.604,1637.28 883.604,1636.08C883.604,1635.66 883.746,1635.23 883.817,1635.02L883.958,1634.67ZM924.827,1605.04C924.261,1604.83 923.908,1604.26 923.695,1603.84C923.059,1602.35 921.786,1600.09 918.675,1600.09C913.16,1600.09 909.837,1606.31 909.837,1611.19C909.837,1615.79 911.322,1617.49 913.938,1617.49C917.968,1617.49 920.584,1614.73 923.271,1609.78C923.766,1608.93 924.19,1607.3 924.615,1606.03L924.827,1605.04Z" style="fill-rule:nonzero;"/>
        </g>
    </g>
</svg>
