<?xml version="1.0" encoding="UTF-8" standalone="no"?>
<!DOCTYPE svg PUBLIC "-//W3C//DTD SVG 1.1//EN" "http://www.w3.org/Graphics/SVG/1.1/DTD/svg11.dtd">
<svg width="100%" height="100%" viewBox="0 0 89 89" version="1.1" xmlns="http://www.w3.org/2000/svg" xmlns:xlink="http://www.w3.org/1999/xlink" xml:space="preserve" xmlns:serif="http://www.serif.com/" style="fill-rule:evenodd;clip-rule:evenodd;stroke-linejoin:round;stroke-miterlimit:2;">
    <g transform="matrix(1,0,0,1,-258.769,-271.632)">
        <g transform="matrix(1.41414,0,0,1.41429,-177.055,-770.755)">
            <path d="M370.554,799.405L370.554,737.041L308.19,737.041L308.19,799.405L370.554,799.405ZM343.402,788.445C343.402,789.435 342.554,790.001 341.423,790.001C339.726,790.001 337.675,788.728 337.675,787.385C337.675,786.465 337.817,783.566 337.817,782.364L337.817,754.93C336.049,755.779 333.928,756.698 332.514,757.051C332.301,757.193 332.019,757.193 331.665,757.193C330.675,757.193 328.271,756.486 328.271,754.859C328.271,754.011 328.978,753.516 329.544,753.304C332.372,752.243 335.625,750.405 337.322,748.991C337.675,748.708 337.958,748.284 338.312,747.93C339.019,747.294 339.796,746.799 340.433,746.799C341.776,746.799 343.615,748.284 343.615,749.981C343.615,750.9 343.261,752.385 343.261,754.011L343.261,782.011C343.261,783.566 343.332,786.89 343.402,788.304L343.402,788.445Z" style="fill-rule:nonzero;"/>
        </g>
    </g>
</svg>
