<?xml version="1.0" encoding="UTF-8" standalone="no"?>
<!DOCTYPE svg PUBLIC "-//W3C//DTD SVG 1.1//EN" "http://www.w3.org/Graphics/SVG/1.1/DTD/svg11.dtd">
<svg width="100%" height="100%" viewBox="0 0 89 89" version="1.1" xmlns="http://www.w3.org/2000/svg" xmlns:xlink="http://www.w3.org/1999/xlink" xml:space="preserve" xmlns:serif="http://www.serif.com/" style="fill-rule:evenodd;clip-rule:evenodd;stroke-linejoin:round;stroke-miterlimit:2;">
    <g transform="matrix(1,0,0,1,-2502.41,-1742.27)">
        <g transform="matrix(1.41414,0,0,1.41429,-1052.39,-837.704)">
            <path d="M2556.67,1837.24C2557.94,1835.4 2559.5,1834.06 2561.62,1834.06C2567.77,1834.06 2570.03,1843.88 2570.03,1855.06C2570.03,1866.44 2567.7,1877.82 2560.7,1877.82C2553.98,1877.82 2551.79,1867.92 2551.79,1856.54C2551.79,1850.46 2553.21,1837.17 2556.32,1837.17C2556.46,1837.17 2556.53,1837.17 2556.67,1837.24ZM2536.66,1837.24C2537.93,1835.4 2539.07,1834.06 2541.12,1834.06C2547.27,1834.06 2549.46,1843.88 2549.46,1855.06C2549.46,1866.44 2547.12,1877.82 2540.27,1877.82C2533.69,1877.82 2531.5,1867.85 2531.5,1856.54C2531.5,1850.95 2533.27,1837.17 2536.31,1837.17C2536.45,1837.17 2536.52,1837.17 2536.66,1837.24ZM2528.53,1869.62C2528.53,1871.18 2528.6,1874.5 2528.67,1875.91C2528.67,1876.9 2528.03,1877.61 2526.83,1877.61C2525.35,1877.61 2523.3,1876.34 2523.3,1875C2523.3,1874.08 2523.44,1871.18 2523.44,1869.97L2523.44,1842.47C2522.52,1843.04 2521.53,1843.39 2520.33,1843.81C2520.19,1843.88 2520.04,1843.88 2519.9,1843.88C2518.98,1843.88 2516.79,1843.04 2516.79,1841.34C2516.79,1840.42 2517.43,1840 2517.85,1839.78C2521.25,1838.23 2522.17,1837.38 2524,1835.54C2524.64,1834.9 2525.42,1834.41 2525.98,1834.41C2527.26,1834.41 2528.88,1835.89 2528.88,1837.59C2528.88,1838.51 2528.53,1839.5 2528.53,1841.13L2528.53,1869.62ZM2560.63,1872.59C2564.59,1872.59 2565.09,1863.68 2565.09,1854.63C2565.09,1847.35 2564.87,1839.15 2561.41,1839.15C2559.92,1839.15 2556.74,1843.88 2556.74,1856.47C2556.74,1865.1 2556.95,1872.59 2560.63,1872.59ZM2540.2,1872.59C2544.09,1872.59 2544.51,1863.68 2544.51,1854.63C2544.51,1847.35 2544.37,1839.15 2541.04,1839.15C2539.49,1839.15 2536.45,1843.81 2536.45,1856.47C2536.45,1865.1 2536.59,1872.59 2540.2,1872.59ZM2570.6,1886.59C2573.99,1886.59 2576.12,1884.05 2576.12,1881.08L2576.12,1829.74C2576.12,1826.28 2573.64,1824.23 2570.6,1824.23L2519.27,1824.23C2515.8,1824.23 2513.75,1826.56 2513.75,1829.74L2513.75,1881.08C2513.75,1884.26 2516.23,1886.59 2519.27,1886.59L2570.6,1886.59Z" style="fill-rule:nonzero;"/>
        </g>
    </g>
</svg>
