<?xml version="1.0" encoding="UTF-8" standalone="no"?>
<!DOCTYPE svg PUBLIC "-//W3C//DTD SVG 1.1//EN" "http://www.w3.org/Graphics/SVG/1.1/DTD/svg11.dtd">
<svg width="100%" height="100%" viewBox="0 0 89 89" version="1.1" xmlns="http://www.w3.org/2000/svg" xmlns:xlink="http://www.w3.org/1999/xlink" xml:space="preserve" xmlns:serif="http://www.serif.com/" style="fill-rule:evenodd;clip-rule:evenodd;stroke-linejoin:round;stroke-miterlimit:2;">
    <g transform="matrix(1,0,0,1,-858.708,-1021.63)">
        <g transform="matrix(1.41414,0,0,1.41429,-177.055,-770.755)">
            <path d="M794.796,1329.71L794.796,1267.34L732.433,1267.34L732.433,1329.71L794.796,1329.71ZM759.372,1312.74C759.372,1315.07 759.655,1317.33 759.655,1318.68C759.655,1319.45 758.948,1320.3 757.817,1320.3C756.332,1320.3 754.352,1319.03 754.352,1317.62C754.352,1316.7 754.493,1313.44 754.493,1312.6L754.493,1310.55L744.029,1310.9C743.746,1310.9 743.11,1311.04 741.978,1311.32L741.766,1311.32C740.211,1311.32 738.584,1309.56 738.584,1307.65C738.584,1307.15 738.726,1306.52 739.079,1305.88C739.433,1305.38 739.716,1304.89 740.069,1304.46C740.776,1303.4 750.11,1286.01 752.655,1278.02C753.009,1277.1 753.716,1276.96 754.069,1276.96C755.554,1276.96 757.322,1279.22 757.322,1280.92C757.322,1281.34 757.251,1281.77 757.039,1282.12C756.473,1282.97 755.766,1284.24 755.342,1285.16C752.655,1290.96 748.483,1299.23 745.019,1305.81L754.493,1305.6L754.493,1294.71C754.493,1293.58 754.352,1289.9 754.352,1288.56C754.352,1287.78 755.059,1286.93 756.19,1286.93C757.604,1286.93 759.514,1288.13 759.514,1289.62C759.514,1290.54 759.372,1293.29 759.372,1294.71L759.372,1305.38C760.291,1305.31 761.705,1305.03 762.342,1305.03C764.039,1305.03 764.887,1307.65 764.887,1308.71C764.887,1309.2 764.675,1310.55 763.402,1310.55C762.695,1310.55 760.786,1310.4 759.372,1310.4L759.372,1312.74ZM770.544,1316.49C770.544,1316.41 770.615,1316.41 770.615,1316.27L771.958,1312.03C774.857,1302.98 778.675,1292.66 782.776,1282.9L770.544,1284.03C769.978,1284.1 769.413,1284.17 768.918,1284.17C766.726,1284.17 765.241,1281.41 765.241,1280.21C765.241,1279.79 765.524,1278.8 766.584,1278.8C767.15,1278.8 767.716,1278.87 768.564,1278.87L769.2,1278.87L783.695,1277.81C784.049,1277.81 784.332,1277.67 784.685,1277.6C785.11,1277.45 785.534,1277.38 785.958,1277.38L786.17,1277.38C787.372,1277.6 789.281,1279.22 789.281,1280.85L789.281,1281.13C789.14,1281.91 788.786,1282.55 788.574,1283.04C786.17,1286.58 777.615,1309.98 775.776,1318.46C775.493,1319.95 774.291,1320.16 773.301,1320.16C773.16,1320.16 772.877,1320.09 772.524,1320.09C771.039,1319.88 770.261,1319.1 770.261,1317.9C770.261,1317.48 770.332,1317.05 770.473,1316.84L770.544,1316.49Z" style="fill-rule:nonzero;"/>
        </g>
    </g>
</svg>
