<?xml version="1.0" encoding="UTF-8" standalone="no"?>
<!DOCTYPE svg PUBLIC "-//W3C//DTD SVG 1.1//EN" "http://www.w3.org/Graphics/SVG/1.1/DTD/svg11.dtd">
<svg width="100%" height="100%" viewBox="0 0 89 89" version="1.1" xmlns="http://www.w3.org/2000/svg" xmlns:xlink="http://www.w3.org/1999/xlink" xml:space="preserve" xmlns:serif="http://www.serif.com/" style="fill-rule:evenodd;clip-rule:evenodd;stroke-linejoin:round;stroke-miterlimit:2;">
    <g transform="matrix(1,0,0,1,-558.739,-1321.63)">
        <g transform="matrix(1.41414,0,0,1.41429,-177.055,-770.755)">
            <path d="M582.675,1541.83L582.675,1479.46L520.312,1479.46L520.312,1541.83L582.675,1541.83ZM534.736,1506.19C536.15,1505.34 537.847,1504.85 539.685,1504.85C546.261,1504.85 550.645,1510.43 550.645,1517.93C550.645,1526.13 546.261,1532.64 538.837,1532.64C532.19,1532.64 527.099,1526.77 527.099,1519.49C527.099,1514.46 528.301,1509.44 530.705,1504.07C532.968,1498.91 535.089,1494.67 537.14,1491.13C537.281,1490.99 537.705,1490.21 537.776,1490.07C538.271,1489.15 539.12,1488.87 539.827,1488.87C540.392,1488.87 541.029,1489.08 541.312,1489.22C542.231,1489.58 542.867,1490.14 542.867,1491.2C542.867,1491.84 542.372,1492.69 542.089,1493.11C538.978,1497.35 536.574,1502.23 534.736,1506.19ZM573.342,1524.86C573.342,1527.19 573.554,1529.45 573.554,1530.8C573.554,1531.58 572.918,1532.42 571.786,1532.42C570.372,1532.42 568.534,1531.15 568.534,1529.74C568.534,1528.82 568.675,1525.57 568.675,1524.72L568.675,1522.67L558.776,1523.02C558.493,1523.02 557.857,1523.16 556.655,1523.52L556.796,1523.44L556.655,1523.44C555.17,1523.44 553.615,1521.68 553.615,1519.77C553.615,1519.41 553.615,1518.57 554.958,1516.59C555.312,1516.16 555.524,1515.81 555.665,1515.45C558.847,1509.38 564.928,1496.43 566.978,1490.14C567.261,1489.22 567.968,1489.08 568.322,1489.08C569.665,1489.08 571.362,1491.34 571.362,1493.04C571.362,1493.46 571.291,1493.89 571.079,1494.24C570.514,1495.09 569.877,1496.36 569.453,1497.28C566.978,1503.08 563.019,1511.35 559.695,1517.93L568.675,1517.72L568.675,1506.83C568.675,1505.7 568.534,1502.02 568.534,1500.68C568.534,1499.9 569.17,1499.05 570.301,1499.05C571.645,1499.05 573.413,1500.25 573.413,1501.74C573.413,1502.66 573.342,1505.41 573.342,1506.83L573.342,1517.51C574.19,1517.43 575.534,1517.15 576.099,1517.15C577.726,1517.15 578.503,1519.77 578.503,1520.83C578.503,1521.32 578.362,1522.67 577.16,1522.67C576.453,1522.67 574.685,1522.53 573.342,1522.53L573.342,1524.86ZM538.837,1527.62C542.867,1527.62 545.908,1523.8 545.908,1518.07C545.908,1513.62 543.503,1509.87 539.685,1509.87C534.806,1509.87 531.766,1514.25 531.766,1519.41C531.766,1524.08 534.665,1527.62 538.837,1527.62Z" style="fill-rule:nonzero;"/>
        </g>
    </g>
</svg>
