<?xml version="1.0" encoding="UTF-8" standalone="no"?>
<!DOCTYPE svg PUBLIC "-//W3C//DTD SVG 1.1//EN" "http://www.w3.org/Graphics/SVG/1.1/DTD/svg11.dtd">
<svg width="100%" height="100%" viewBox="0 0 96 96" version="1.1" xmlns="http://www.w3.org/2000/svg" xmlns:xlink="http://www.w3.org/1999/xlink" xml:space="preserve" xmlns:serif="http://www.serif.com/" style="fill-rule:evenodd;clip-rule:evenodd;stroke-linejoin:round;stroke-miterlimit:2;">
    <g transform="matrix(1,0,0,1,-2009.63,-3023.28)">
        <g transform="matrix(1,0,0,1,-110.019,-3591.86)">
            <path d="M2215.25,6662.94C2215.25,6636.55 2193.85,6615.15 2167.45,6615.15C2141.05,6615.15 2119.65,6636.55 2119.65,6662.94C2119.65,6689.35 2141.05,6710.65 2167.45,6710.65C2193.85,6710.65 2215.25,6689.35 2215.25,6662.94ZM2185.95,6665.74C2182.35,6669.15 2177.45,6671.15 2173.15,6671.15C2165.25,6671.15 2159.05,6665.35 2159.05,6655.55C2159.05,6644.15 2168.25,6632.74 2179.55,6632.74C2185.05,6632.74 2188.95,6635.15 2191.25,6637.55C2191.65,6635.85 2192.35,6635.05 2193.75,6635.05L2194.05,6635.05C2195.35,6635.24 2198.45,6636.74 2198.45,6639.15L2198.45,6639.65C2195.45,6649.35 2190.05,6679.55 2189.15,6689.94C2188.95,6692.35 2186.25,6692.94 2184.55,6692.94C2182.75,6692.94 2181.45,6692.05 2181.45,6690.15C2181.45,6689.35 2181.65,6688.74 2181.85,6687.94C2182.25,6685.65 2182.85,6683.24 2183.05,6681.85L2185.95,6665.74ZM2150.05,6681.94C2150.05,6684.15 2150.15,6688.65 2150.25,6690.74C2150.25,6692.15 2149.15,6693.05 2147.65,6693.05C2145.45,6693.05 2142.65,6691.24 2142.65,6689.44C2142.65,6688.15 2142.85,6684.15 2142.85,6682.44L2142.85,6644.35C2141.35,6645.05 2137.35,6646.85 2135.75,6646.85C2133.65,6646.85 2131.35,6645.05 2131.35,6643.65C2131.35,6642.44 2132.25,6641.74 2132.95,6641.44C2136.55,6639.94 2140.05,6637.94 2142.25,6636.24L2142.65,6635.74C2144.15,6633.55 2145.65,6633.15 2146.35,6633.15C2148.15,6633.15 2150.55,6635.15 2150.55,6637.55C2150.55,6638.85 2150.05,6640.24 2150.05,6642.44L2150.05,6681.94ZM2189.65,6646.65C2188.85,6646.35 2188.35,6645.65 2188.05,6644.94C2187.15,6643.15 2184.65,6639.85 2179.95,6639.85C2171.85,6639.85 2166.25,6648.55 2166.25,6655.24C2166.25,6661.35 2169.05,6663.94 2173.05,6663.94C2179.05,6663.94 2183.45,6659.94 2187.35,6653.24C2188.05,6652.05 2188.75,6649.85 2189.35,6648.05L2189.65,6646.65Z" style="fill-rule:nonzero;"/>
        </g>
    </g>
</svg>
