<?xml version="1.0" encoding="UTF-8" standalone="no"?>
<!DOCTYPE svg PUBLIC "-//W3C//DTD SVG 1.1//EN" "http://www.w3.org/Graphics/SVG/1.1/DTD/svg11.dtd">
<svg width="100%" height="100%" viewBox="0 0 89 89" version="1.1" xmlns="http://www.w3.org/2000/svg" xmlns:xlink="http://www.w3.org/1999/xlink" xml:space="preserve" xmlns:serif="http://www.serif.com/" style="fill-rule:evenodd;clip-rule:evenodd;stroke-linejoin:round;stroke-miterlimit:2;">
    <g transform="matrix(1,0,0,1,-2002.46,-392.274)">
        <g transform="matrix(1.41414,0,0,1.41429,-1052.39,-837.704)">
            <path d="M2217.07,932.045C2220.46,932.045 2222.58,929.5 2222.58,926.53L2222.58,875.197C2222.58,871.732 2220.11,869.681 2217.07,869.681L2165.73,869.681C2162.27,869.681 2160.22,872.015 2160.22,875.197L2160.22,926.53C2160.22,929.712 2162.69,932.045 2165.73,932.045L2217.07,932.045ZM2173.65,882.692C2175.28,880.782 2177.33,879.51 2179.87,879.51C2187.01,879.51 2190.34,889.126 2190.34,900.51C2190.34,912.106 2186.87,923.277 2178.67,923.277C2170.82,923.277 2167.57,913.52 2167.57,901.995C2167.57,892.025 2170.61,882.621 2173.16,882.621C2173.37,882.621 2173.51,882.621 2173.65,882.692ZM2198.75,904.328C2198.4,904.681 2198.19,904.752 2197.69,904.752C2196.49,904.752 2194.79,903.267 2194.79,901.217C2194.79,901.005 2194.79,900.651 2194.86,900.298C2195.08,899.591 2195.22,898.883 2195.29,898.389L2196.49,884.53C2196.56,883.823 2196.63,882.904 2196.63,882.197C2196.63,880.853 2197.55,880.5 2198.19,880.5C2198.82,880.5 2199.6,880.782 2200.24,881.136L2209.22,880.5C2210.07,880.429 2211.41,880.358 2212.33,880.146C2213.81,880.146 2214.8,881.984 2214.8,883.611C2214.8,884.389 2214.45,885.378 2213.39,885.449L2209.64,885.661L2200.8,886.298L2199.88,896.904C2201.58,895.631 2203.63,894.924 2206.25,894.924C2211.97,894.924 2216.78,899.944 2216.78,908.287C2216.78,915.995 2213.03,923.136 2204.05,923.136C2198.82,923.136 2193.52,918.328 2193.52,915.641C2193.52,914.298 2194.37,911.752 2195.92,911.752C2196.49,911.752 2196.91,912.176 2197.12,912.671C2198.82,915.641 2200.87,917.904 2204.05,917.904C2209.85,917.904 2212.12,913.449 2212.12,908.358C2212.12,902.984 2209.57,900.015 2205.75,900.015C2203.49,900.015 2201.58,901.146 2200.1,902.843L2198.75,904.328ZM2178.53,918.116C2183.2,918.116 2185.6,910.126 2185.6,900.085C2185.6,892.803 2184.33,884.53 2179.66,884.53C2177.04,884.53 2172.31,889.621 2172.31,901.924C2172.31,911.611 2174.29,918.116 2178.53,918.116Z" style="fill-rule:nonzero;"/>
        </g>
    </g>
</svg>
