<?xml version="1.0" encoding="UTF-8" standalone="no"?>
<!DOCTYPE svg PUBLIC "-//W3C//DTD SVG 1.1//EN" "http://www.w3.org/Graphics/SVG/1.1/DTD/svg11.dtd">
<svg width="100%" height="100%" viewBox="0 0 89 89" version="1.1" xmlns="http://www.w3.org/2000/svg" xmlns:xlink="http://www.w3.org/1999/xlink" xml:space="preserve" xmlns:serif="http://www.serif.com/" style="fill-rule:evenodd;clip-rule:evenodd;stroke-linejoin:round;stroke-miterlimit:2;">
    <g transform="matrix(1,0,0,1,-758.718,-1171.63)">
        <g transform="matrix(1.41414,0,0,1.41429,-177.055,-770.755)">
            <path d="M724.089,1435.77L724.089,1373.4L661.726,1373.4L661.726,1435.77L724.089,1435.77ZM705.493,1384.65C705.635,1384.36 705.776,1384.15 705.918,1384.01C706.413,1383.09 707.261,1382.81 708.039,1382.81C708.18,1382.81 711.221,1383.02 711.221,1385.14C711.221,1385.78 710.726,1386.63 710.443,1387.05C707.12,1391.29 704.574,1396.17 702.665,1400.13C704.15,1399.28 705.918,1398.79 707.897,1398.79C714.756,1398.79 719.423,1404.38 719.423,1411.87C719.423,1420.07 714.756,1426.58 706.978,1426.58C699.978,1426.58 694.604,1420.71 694.604,1413.42C694.604,1408.4 695.877,1403.38 698.423,1398.01C700.827,1392.85 703.019,1388.61 705.211,1385.07L705.493,1384.65ZM674.17,1400.34C676.009,1399.07 678.13,1398.36 680.887,1398.36C686.897,1398.36 691.988,1403.38 691.988,1411.73C691.988,1419.43 688.099,1426.58 678.625,1426.58C673.11,1426.58 667.524,1421.84 667.524,1419.08C667.524,1417.74 668.372,1415.19 669.998,1415.19C670.635,1415.19 671.059,1415.62 671.342,1416.11C673.11,1419.08 675.301,1421.34 678.625,1421.34C684.705,1421.34 687.039,1416.89 687.039,1411.8C687.039,1406.42 684.423,1403.45 680.392,1403.45C677.988,1403.45 676.009,1404.59 674.453,1406.28C674.17,1406.57 673.534,1407.27 672.968,1407.77C672.685,1408.12 672.402,1408.19 671.908,1408.19C670.635,1408.19 668.867,1406.71 668.867,1404.66C668.867,1404.44 668.867,1404.09 668.938,1403.74C669.15,1403.03 669.291,1402.32 669.362,1401.83L670.635,1387.97C670.705,1387.26 670.776,1386.34 670.776,1385.64C670.776,1384.29 671.766,1383.94 672.402,1383.94C673.11,1383.94 673.887,1384.22 674.594,1384.58L683.998,1383.94C684.918,1383.87 686.332,1383.8 687.251,1383.59L687.534,1383.59C689.089,1383.59 689.938,1386.06 689.938,1387.05C689.938,1387.83 689.514,1388.82 688.453,1388.89L684.493,1389.1L675.231,1389.74L674.17,1400.34ZM706.978,1421.56C711.221,1421.56 714.473,1417.74 714.473,1412.01C714.473,1407.56 711.857,1403.81 707.827,1403.81C702.806,1403.81 699.483,1408.19 699.483,1413.35C699.483,1418.02 702.594,1421.56 706.978,1421.56Z" style="fill-rule:nonzero;"/>
        </g>
    </g>
</svg>
