<?xml version="1.0" encoding="UTF-8" standalone="no"?>
<!DOCTYPE svg PUBLIC "-//W3C//DTD SVG 1.1//EN" "http://www.w3.org/Graphics/SVG/1.1/DTD/svg11.dtd">
<svg width="100%" height="100%" viewBox="0 0 89 89" version="1.1" xmlns="http://www.w3.org/2000/svg" xmlns:xlink="http://www.w3.org/1999/xlink" xml:space="preserve" xmlns:serif="http://www.serif.com/" style="fill-rule:evenodd;clip-rule:evenodd;stroke-linejoin:round;stroke-miterlimit:2;">
    <g transform="matrix(1,0,0,1,-758.718,-1471.63)">
        <g transform="matrix(1.41414,0,0,1.41429,-177.055,-770.755)">
            <path d="M724.089,1647.89L724.089,1585.53L661.726,1585.53L661.726,1647.89L724.089,1647.89ZM701.322,1612.25C702.877,1611.4 704.645,1610.91 706.625,1610.91C713.483,1610.91 718.079,1616.5 718.079,1623.99C718.079,1632.19 713.483,1638.7 705.705,1638.7C698.635,1638.7 693.332,1632.83 693.332,1625.55C693.332,1619.61 695.099,1611.83 703.867,1597.19C704.009,1597.12 704.079,1596.91 704.221,1596.77C704.998,1595.21 705.988,1594.93 706.695,1594.93C707.402,1594.93 709.877,1595.21 709.877,1597.26C709.877,1597.9 709.453,1598.75 709.099,1599.17C705.847,1603.41 703.301,1608.29 701.322,1612.25ZM672.897,1634.67L672.897,1634.45C679.544,1614.52 682.584,1607.02 685.059,1601.08L672.827,1602.21C672.261,1602.28 671.695,1602.35 671.2,1602.35C668.796,1602.35 667.594,1599.53 667.594,1598.39C667.594,1597.97 667.806,1596.98 668.867,1596.98C669.503,1596.98 669.998,1597.05 670.847,1597.05L671.554,1597.05L685.978,1595.99C686.332,1595.99 686.685,1595.85 686.968,1595.78C687.392,1595.64 687.887,1595.57 688.312,1595.57L688.524,1595.57C689.726,1595.78 691.564,1597.4 691.564,1599.03L691.564,1599.31C691.493,1600.09 691.14,1600.73 690.857,1601.22C686.756,1609.42 679.261,1630.42 678.13,1636.65C677.847,1638.13 676.574,1638.34 675.655,1638.34C675.443,1638.34 675.16,1638.27 674.877,1638.27C673.392,1638.06 672.544,1637.28 672.544,1636.08C672.544,1635.66 672.685,1635.23 672.756,1635.02L672.897,1634.67ZM705.705,1633.68C709.877,1633.68 713.13,1629.86 713.13,1624.13C713.13,1619.68 710.584,1615.93 706.554,1615.93C701.463,1615.93 698.211,1620.31 698.211,1625.48C698.211,1630.14 701.251,1633.68 705.705,1633.68Z" style="fill-rule:nonzero;"/>
        </g>
    </g>
</svg>
