<?xml version="1.0" encoding="UTF-8" standalone="no"?>
<!DOCTYPE svg PUBLIC "-//W3C//DTD SVG 1.1//EN" "http://www.w3.org/Graphics/SVG/1.1/DTD/svg11.dtd">
<svg width="100%" height="100%" viewBox="0 0 89 89" version="1.1" xmlns="http://www.w3.org/2000/svg" xmlns:xlink="http://www.w3.org/1999/xlink" xml:space="preserve" xmlns:serif="http://www.serif.com/" style="fill-rule:evenodd;clip-rule:evenodd;stroke-linejoin:round;stroke-miterlimit:2;">
    <g transform="matrix(1,0,0,1,-858.708,-1321.63)">
        <g transform="matrix(1.41414,0,0,1.41429,-177.055,-770.755)">
            <path d="M794.796,1541.83L794.796,1479.46L732.433,1479.46L732.433,1541.83L794.796,1541.83ZM748.342,1506.19C749.827,1505.34 751.524,1504.85 753.362,1504.85C759.867,1504.85 764.322,1510.43 764.322,1517.93C764.322,1526.13 759.867,1532.64 752.514,1532.64C745.796,1532.64 740.705,1526.77 740.705,1519.49C740.705,1514.46 741.978,1509.44 744.312,1504.07C746.645,1498.91 748.695,1494.67 750.817,1491.13C750.887,1491.06 750.958,1490.85 751.099,1490.71C751.736,1489.36 752.584,1488.87 753.503,1488.87C753.645,1488.87 756.473,1488.94 756.473,1491.2C756.473,1491.84 756.049,1492.69 755.766,1493.11C752.655,1497.35 750.251,1502.23 748.342,1506.19ZM770.615,1528.61L770.615,1528.39C777.261,1508.45 780.301,1500.96 782.776,1495.02L770.544,1496.15C769.978,1496.22 769.413,1496.29 768.918,1496.29C766.514,1496.29 765.312,1493.46 765.312,1492.33C765.312,1491.91 765.524,1490.92 766.584,1490.92C767.221,1490.92 767.716,1490.99 768.564,1490.99L769.271,1490.99L783.695,1489.93C784.049,1489.93 784.402,1489.79 784.685,1489.72C785.11,1489.58 785.604,1489.51 786.029,1489.51L786.241,1489.51C787.443,1489.72 789.281,1491.34 789.281,1492.97L789.281,1493.25C789.211,1494.03 788.857,1494.67 788.574,1495.16C784.473,1503.36 776.978,1524.36 775.847,1530.59C775.564,1532.07 774.291,1532.28 773.372,1532.28C773.16,1532.28 772.877,1532.21 772.594,1532.21C771.11,1532 770.261,1531.22 770.261,1530.02C770.261,1529.6 770.402,1529.17 770.473,1528.96L770.615,1528.61ZM752.514,1527.62C756.473,1527.62 759.584,1523.8 759.584,1518.07C759.584,1513.62 757.11,1509.87 753.291,1509.87C748.483,1509.87 745.372,1514.25 745.372,1519.41C745.372,1524.08 748.271,1527.62 752.514,1527.62Z" style="fill-rule:nonzero;"/>
        </g>
    </g>
</svg>
