<?xml version="1.0" encoding="UTF-8" standalone="no"?>
<!DOCTYPE svg PUBLIC "-//W3C//DTD SVG 1.1//EN" "http://www.w3.org/Graphics/SVG/1.1/DTD/svg11.dtd">
<svg width="100%" height="100%" viewBox="0 0 89 89" version="1.1" xmlns="http://www.w3.org/2000/svg" xmlns:xlink="http://www.w3.org/1999/xlink" xml:space="preserve" xmlns:serif="http://www.serif.com/" style="fill-rule:evenodd;clip-rule:evenodd;stroke-linejoin:round;stroke-miterlimit:2;">
    <g transform="matrix(1,0,0,1,-958.698,-271.632)">
        <g transform="matrix(1.41414,0,0,1.41429,-177.055,-770.755)">
            <path d="M865.503,799.405L865.503,737.041L803.14,737.041L803.14,799.405L865.503,799.405ZM838.423,764.758C844.362,766.88 850.726,769.92 850.726,777.627C850.726,785.829 843.938,790.213 833.756,790.213C824.776,790.213 818.766,785.546 818.766,778.334C818.766,773.173 822.089,769.072 827.039,765.819C823.574,764.051 820.887,761.435 820.887,756.769C820.887,750.758 825.978,746.516 834.18,746.516C839.766,746.516 844.857,748.991 847.332,752.667C847.332,752.738 847.402,752.809 847.473,752.95C847.615,752.88 847.756,752.88 847.897,752.88C849.029,752.88 850.089,753.657 850.089,755.001C850.089,756.061 849.382,758.112 838.423,764.758ZM832.695,768.152C826.968,771.546 824.211,774.94 824.211,778.193C824.211,781.587 827.251,785.051 833.756,785.051C840.897,785.051 845.211,782.152 845.211,777.839C845.211,772.536 839.908,770.556 832.695,768.152ZM842.736,755.708C841.18,753.233 837.786,751.465 834.11,751.465C828.877,751.465 826.332,754.011 826.332,756.839C826.332,759.597 828.382,760.94 832.342,762.566C835.241,761.011 839.625,758.324 842.948,755.92L842.736,755.708Z" style="fill-rule:nonzero;"/>
        </g>
    </g>
</svg>
