<?xml version="1.0" encoding="UTF-8" standalone="no"?>
<!DOCTYPE svg PUBLIC "-//W3C//DTD SVG 1.1//EN" "http://www.w3.org/Graphics/SVG/1.1/DTD/svg11.dtd">
<svg width="100%" height="100%" viewBox="0 0 89 89" version="1.1" xmlns="http://www.w3.org/2000/svg" xmlns:xlink="http://www.w3.org/1999/xlink" xml:space="preserve" xmlns:serif="http://www.serif.com/" style="fill-rule:evenodd;clip-rule:evenodd;stroke-linejoin:round;stroke-miterlimit:2;">
    <g transform="matrix(1,0,0,1,-458.749,-1321.63)">
        <g transform="matrix(1.41414,0,0,1.41429,-177.055,-770.755)">
            <path d="M511.968,1541.83L511.968,1479.46L449.604,1479.46L449.604,1541.83L511.968,1541.83ZM463.817,1506.19C465.231,1505.34 466.928,1504.85 468.766,1504.85C475.342,1504.85 479.726,1510.43 479.726,1517.93C479.726,1526.13 475.271,1532.64 467.918,1532.64C461.271,1532.64 456.18,1526.77 456.18,1519.49C456.18,1514.46 457.382,1509.44 459.786,1504.07C462.049,1498.91 464.17,1494.67 466.221,1491.13C466.362,1490.99 466.786,1490.21 466.857,1490.07C467.352,1489.15 468.2,1488.87 468.908,1488.87C469.968,1488.87 471.948,1489.58 471.948,1491.2C471.948,1491.84 471.453,1492.69 471.17,1493.11C468.059,1497.35 465.655,1502.23 463.817,1506.19ZM498.887,1507.89C502.423,1508.88 505.251,1512.84 505.251,1518.21C505.251,1525.92 501.433,1532.64 492.312,1532.64C488.352,1532.64 485.241,1530.87 482.483,1527.76C481.988,1527.12 481.918,1526.41 481.918,1525.85C481.918,1524.72 482.625,1522.17 484.251,1522.17C484.604,1522.17 485.029,1522.38 485.382,1522.88C487.362,1525.71 489.271,1527.48 492.312,1527.48C498.251,1527.48 500.584,1523.02 500.584,1518.28C500.584,1514.32 497.968,1511.42 494.079,1511.42C492.736,1511.42 491.18,1511.71 490.402,1511.92C490.261,1511.99 490.261,1511.99 490.12,1511.99C488.493,1511.99 487.716,1509.8 487.716,1508.67C487.716,1507.89 488.069,1506.97 489.059,1506.76C492.948,1506.4 499.099,1504 499.099,1499.12C499.099,1496.01 497.402,1494.03 494.15,1494.03C491.534,1494.03 489.271,1495.3 487.009,1498.41C486.514,1499.05 486.089,1499.69 485.241,1499.69C484.675,1499.69 484.322,1499.4 483.897,1498.91C483.261,1497.99 482.908,1497.14 482.908,1496.22C482.908,1493.68 488.069,1488.94 494.079,1488.94C499.665,1488.94 503.766,1492.48 503.766,1498.77C503.766,1504.21 500.301,1507.18 498.887,1507.89ZM467.918,1527.62C471.948,1527.62 474.988,1523.8 474.988,1518.07C474.988,1513.62 472.584,1509.87 468.695,1509.87C463.887,1509.87 460.776,1514.25 460.776,1519.41C460.776,1524.08 463.746,1527.62 467.918,1527.62Z" style="fill-rule:nonzero;"/>
        </g>
    </g>
</svg>
