<?xml version="1.0" encoding="UTF-8" standalone="no"?>
<!DOCTYPE svg PUBLIC "-//W3C//DTD SVG 1.1//EN" "http://www.w3.org/Graphics/SVG/1.1/DTD/svg11.dtd">
<svg width="100%" height="100%" viewBox="0 0 96 96" version="1.1" xmlns="http://www.w3.org/2000/svg" xmlns:xlink="http://www.w3.org/1999/xlink" xml:space="preserve" xmlns:serif="http://www.serif.com/" style="fill-rule:evenodd;clip-rule:evenodd;stroke-linejoin:round;stroke-miterlimit:2;">
    <g transform="matrix(1,0,0,1,-2209.63,-3773.28)">
        <g transform="matrix(1,0,0,1,-110.019,-3591.86)">
            <path d="M2415.25,7412.94C2415.25,7386.55 2393.85,7365.15 2367.45,7365.15C2341.05,7365.15 2319.65,7386.55 2319.65,7412.94C2319.65,7439.35 2341.05,7460.65 2367.45,7460.65C2393.85,7460.65 2415.25,7439.35 2415.25,7412.94ZM2372.95,7429.24C2372.25,7430.74 2371.55,7432.55 2371.05,7434.15C2370.55,7436.15 2369.15,7437.05 2367.65,7437.05C2366.05,7437.05 2364.45,7436.15 2363.55,7435.15C2362.35,7433.94 2362.05,7432.35 2361.45,7430.74L2350.55,7401.65C2349.85,7399.85 2348.95,7397.94 2347.95,7395.85C2347.75,7395.44 2347.75,7395.15 2347.75,7394.85C2347.75,7393.35 2349.65,7392.05 2352.15,7392.05C2354.05,7392.05 2355.95,7393.05 2356.35,7394.35C2356.65,7395.55 2357.35,7397.74 2357.95,7399.44L2366.85,7424.35L2377.15,7399.35C2377.95,7397.55 2378.65,7395.55 2379.25,7393.55C2379.75,7391.85 2381.45,7391.65 2382.25,7391.65C2383.75,7391.65 2387.45,7392.65 2387.45,7395.35C2387.45,7395.55 2387.35,7396.05 2387.05,7396.55C2386.25,7398.05 2385.05,7400.55 2384.45,7401.94L2372.95,7429.24Z" style="fill-rule:nonzero;"/>
        </g>
    </g>
</svg>
