<?xml version="1.0" encoding="UTF-8" standalone="no"?>
<!DOCTYPE svg PUBLIC "-//W3C//DTD SVG 1.1//EN" "http://www.w3.org/Graphics/SVG/1.1/DTD/svg11.dtd">
<svg width="100%" height="100%" viewBox="0 0 96 96" version="1.1" xmlns="http://www.w3.org/2000/svg" xmlns:xlink="http://www.w3.org/1999/xlink" xml:space="preserve" xmlns:serif="http://www.serif.com/" style="fill-rule:evenodd;clip-rule:evenodd;stroke-linejoin:round;stroke-miterlimit:2;">
    <g transform="matrix(1,0,0,1,-1809.63,-3473.28)">
        <g transform="matrix(1,0,0,1,-110.019,-3591.86)">
            <path d="M2015.25,7112.94C2015.25,7086.55 1993.85,7065.15 1967.45,7065.15C1941.05,7065.15 1919.65,7086.55 1919.65,7112.94C1919.65,7139.35 1941.05,7160.65 1967.45,7160.65C1993.85,7160.65 2015.25,7139.35 2015.25,7112.94ZM1990.35,7108.44C1998.15,7112.55 2002.25,7117.85 2002.25,7125.85C2002.25,7136.65 1994.75,7143.35 1984.15,7143.35C1974.25,7143.35 1968.15,7136.24 1968.15,7126.94C1968.15,7119.85 1971.85,7114.35 1977.55,7109.74C1972.25,7106.35 1970.35,7102.74 1970.35,7097.44C1970.35,7089.55 1976.05,7082.85 1985.35,7082.85C1991.45,7082.85 1995.85,7086.74 1998.75,7091.35C1998.75,7091.44 1998.85,7091.55 1998.85,7091.65C1999.05,7091.65 1999.25,7091.55 1999.35,7091.55C2000.85,7091.55 2001.95,7092.94 2001.95,7094.55C2001.95,7095.44 2001.65,7096.44 2000.95,7097.35C1997.45,7101.94 1992.55,7106.74 1990.35,7108.44ZM1938.65,7137.74C1938.75,7137.65 1938.75,7137.65 1938.75,7137.44C1939.55,7135.15 1940.25,7132.94 1940.65,7131.55C1944.65,7119.05 1949.95,7104.74 1955.55,7091.24L1938.65,7092.74C1937.85,7092.85 1937.05,7092.94 1936.35,7092.94C1932.75,7092.94 1931.35,7088.55 1931.35,7087.44C1931.35,7086.85 1931.65,7085.55 1933.15,7085.55C1933.95,7085.55 1934.75,7085.65 1935.95,7085.65L1936.85,7085.65L1956.85,7084.15C1957.35,7084.15 1957.75,7083.94 1958.25,7083.85C1958.85,7083.65 1959.45,7083.55 1960.05,7083.55L1960.35,7083.55C1962.05,7083.85 1964.65,7086.05 1964.65,7088.35L1964.65,7088.74C1964.45,7089.85 1963.95,7090.74 1963.65,7091.35C1962.35,7093.35 1949.65,7123.65 1945.95,7140.44C1945.55,7142.55 1943.85,7142.85 1942.55,7142.85C1942.25,7142.85 1941.85,7142.74 1941.45,7142.74C1939.35,7142.44 1938.25,7141.35 1938.25,7139.74C1938.25,7139.15 1938.45,7138.55 1938.55,7138.24L1938.65,7137.74ZM1984.15,7113.15C1977.95,7117.94 1974.95,7122.05 1974.95,7126.74C1974.95,7131.44 1977.65,7136.15 1984.15,7136.15C1991.05,7136.15 1995.45,7131.94 1995.45,7126.24C1995.45,7121.35 1993.45,7117.55 1985.15,7113.65L1984.15,7113.15ZM1993.65,7096.24C1993.45,7095.94 1993.25,7095.74 1993.05,7095.35C1991.05,7091.74 1988.95,7089.85 1985.45,7089.85C1979.65,7089.85 1977.15,7093.74 1977.15,7097.44C1977.15,7100.55 1978.25,7102.24 1983.75,7105.15C1987.45,7102.44 1990.75,7099.35 1993.65,7096.24Z" style="fill-rule:nonzero;"/>
        </g>
    </g>
</svg>
