<?xml version="1.0" encoding="UTF-8" standalone="no"?>
<!DOCTYPE svg PUBLIC "-//W3C//DTD SVG 1.1//EN" "http://www.w3.org/Graphics/SVG/1.1/DTD/svg11.dtd">
<svg width="100%" height="100%" viewBox="0 0 89 89" version="1.1" xmlns="http://www.w3.org/2000/svg" xmlns:xlink="http://www.w3.org/1999/xlink" xml:space="preserve" xmlns:serif="http://www.serif.com/" style="fill-rule:evenodd;clip-rule:evenodd;stroke-linejoin:round;stroke-miterlimit:2;">
    <g transform="matrix(1,0,0,1,-1602.51,-242.274)">
        <g transform="matrix(1.41414,0,0,1.41429,-1052.39,-837.704)">
            <path d="M1934.24,825.984C1937.63,825.984 1939.75,823.439 1939.75,820.469L1939.75,769.136C1939.75,765.671 1937.28,763.621 1934.24,763.621L1882.9,763.621C1879.44,763.621 1877.39,765.954 1877.39,769.136L1877.39,820.469C1877.39,823.651 1879.86,825.984 1882.9,825.984L1934.24,825.984ZM1912.6,815.025C1912.6,816.015 1911.75,816.58 1910.62,816.58C1908.92,816.58 1906.87,815.308 1906.87,813.964C1906.87,813.045 1907.01,810.146 1907.01,808.944L1907.01,781.51C1905.25,782.358 1903.12,783.277 1901.71,783.631C1901.5,783.772 1901.22,783.772 1900.86,783.772C1899.87,783.772 1897.47,783.065 1897.47,781.439C1897.47,780.591 1898.18,780.096 1898.74,779.883C1901.57,778.823 1904.82,776.984 1906.52,775.57C1906.87,775.287 1907.15,774.863 1907.51,774.51C1908.22,773.873 1908.99,773.378 1909.63,773.378C1910.97,773.378 1912.81,774.863 1912.81,776.56C1912.81,777.479 1912.46,778.964 1912.46,780.591L1912.46,808.591C1912.46,810.146 1912.53,813.469 1912.6,814.883L1912.6,815.025Z" style="fill-rule:nonzero;"/>
        </g>
    </g>
</svg>
