<?xml version="1.0" encoding="UTF-8" standalone="no"?>
<!DOCTYPE svg PUBLIC "-//W3C//DTD SVG 1.1//EN" "http://www.w3.org/Graphics/SVG/1.1/DTD/svg11.dtd">
<svg width="100%" height="100%" viewBox="0 0 89 89" version="1.1" xmlns="http://www.w3.org/2000/svg" xmlns:xlink="http://www.w3.org/1999/xlink" xml:space="preserve" xmlns:serif="http://www.serif.com/" style="fill-rule:evenodd;clip-rule:evenodd;stroke-linejoin:round;stroke-miterlimit:2;">
    <g transform="matrix(1,0,0,1,-1802.48,-1292.27)">
        <g transform="matrix(1.41414,0,0,1.41429,-1052.39,-837.704)">
            <path d="M2033.01,1532.77C2034.43,1531.92 2036.12,1531.43 2037.96,1531.43C2044.54,1531.43 2048.92,1537.02 2048.92,1544.51C2048.92,1552.71 2044.47,1559.22 2037.12,1559.22C2030.47,1559.22 2025.38,1553.35 2025.38,1546.07C2025.38,1541.05 2026.58,1536.03 2028.98,1530.65C2031.25,1525.49 2033.37,1521.25 2035.42,1517.71C2035.56,1517.57 2035.98,1516.79 2036.05,1516.65C2036.55,1515.73 2037.4,1515.45 2038.11,1515.45C2039.17,1515.45 2041.14,1516.16 2041.14,1517.78C2041.14,1518.42 2040.65,1519.27 2040.37,1519.69C2037.26,1523.93 2034.85,1528.81 2033.01,1532.77ZM2037.12,1554.2C2041.14,1554.2 2044.19,1550.38 2044.19,1544.65C2044.19,1540.2 2041.78,1536.45 2037.89,1536.45C2033.09,1536.45 2029.97,1540.83 2029.97,1546C2029.97,1550.66 2032.94,1554.2 2037.12,1554.2ZM2068.09,1534.47C2071.62,1535.46 2074.45,1539.42 2074.45,1544.79C2074.45,1552.5 2070.63,1559.22 2061.51,1559.22C2057.55,1559.22 2054.44,1557.45 2051.68,1554.34C2051.19,1553.7 2051.12,1553 2051.12,1552.43C2051.12,1551.3 2051.82,1548.75 2053.45,1548.75C2053.8,1548.75 2054.23,1548.96 2054.58,1549.46C2056.56,1552.29 2058.47,1554.06 2061.51,1554.06C2067.45,1554.06 2069.78,1549.6 2069.78,1544.86C2069.78,1540.9 2067.17,1538.01 2063.28,1538.01C2061.93,1538.01 2060.38,1538.29 2059.6,1538.5C2059.46,1538.57 2059.46,1538.57 2059.32,1538.57C2057.69,1538.57 2056.91,1536.38 2056.91,1535.25C2056.91,1534.47 2057.27,1533.55 2058.26,1533.34C2062.14,1532.98 2068.3,1530.58 2068.3,1525.7C2068.3,1522.59 2066.6,1520.61 2063.35,1520.61C2060.73,1520.61 2058.47,1521.88 2056.21,1525C2055.71,1525.63 2055.29,1526.27 2054.44,1526.27C2053.87,1526.27 2053.52,1525.98 2053.1,1525.49C2052.46,1524.57 2052.11,1523.72 2052.11,1522.8C2052.11,1520.26 2057.27,1515.52 2063.28,1515.52C2068.86,1515.52 2072.96,1519.06 2072.96,1525.35C2072.96,1530.79 2069.5,1533.76 2068.09,1534.47ZM2075.65,1568.41C2079.04,1568.41 2081.17,1565.86 2081.17,1562.89L2081.17,1511.56C2081.17,1508.1 2078.69,1506.05 2075.65,1506.05L2024.32,1506.05C2020.85,1506.05 2018.8,1508.38 2018.8,1511.56L2018.8,1562.89C2018.8,1566.08 2021.28,1568.41 2024.32,1568.41L2075.65,1568.41Z" style="fill-rule:nonzero;"/>
        </g>
    </g>
</svg>
