<?xml version="1.0" encoding="UTF-8" standalone="no"?>
<!DOCTYPE svg PUBLIC "-//W3C//DTD SVG 1.1//EN" "http://www.w3.org/Graphics/SVG/1.1/DTD/svg11.dtd">
<svg width="100%" height="100%" viewBox="0 0 89 89" version="1.1" xmlns="http://www.w3.org/2000/svg" xmlns:xlink="http://www.w3.org/1999/xlink" xml:space="preserve" xmlns:serif="http://www.serif.com/" style="fill-rule:evenodd;clip-rule:evenodd;stroke-linejoin:round;stroke-miterlimit:2;">
    <g transform="matrix(1,0,0,1,-2102.45,-1442.27)">
        <g transform="matrix(1.41414,0,0,1.41429,-1052.39,-837.704)">
            <path d="M2270.52,1638.83C2272.08,1637.98 2273.84,1637.49 2275.82,1637.49C2282.68,1637.49 2287.28,1643.08 2287.28,1650.57C2287.28,1658.77 2282.68,1665.28 2274.9,1665.28C2267.83,1665.28 2262.53,1659.41 2262.53,1652.13C2262.53,1646.19 2264.3,1638.41 2273.07,1623.77C2273.21,1623.7 2273.28,1623.49 2273.42,1623.35C2274.2,1621.79 2275.19,1621.51 2275.89,1621.51C2276.6,1621.51 2279.08,1621.79 2279.08,1623.84C2279.08,1624.48 2278.65,1625.33 2278.3,1625.75C2275.04,1630 2272.5,1634.87 2270.52,1638.83ZM2242.1,1661.25L2242.1,1661.04C2248.74,1641.1 2251.78,1633.6 2254.26,1627.66L2242.02,1628.79C2241.46,1628.86 2240.89,1628.93 2240.4,1628.93C2237.99,1628.93 2236.79,1626.11 2236.79,1624.97C2236.79,1624.55 2237,1623.56 2238.07,1623.56C2238.7,1623.56 2239.2,1623.63 2240.04,1623.63L2240.75,1623.63L2255.18,1622.57C2255.53,1622.57 2255.88,1622.43 2256.17,1622.36C2256.59,1622.22 2257.09,1622.15 2257.51,1622.15L2257.72,1622.15C2258.92,1622.36 2260.76,1623.98 2260.76,1625.61L2260.76,1625.89C2260.69,1626.67 2260.34,1627.31 2260.05,1627.8C2255.95,1636.01 2248.46,1657.01 2247.33,1663.23C2247.04,1664.71 2245.77,1664.92 2244.85,1664.92C2244.64,1664.92 2244.36,1664.85 2244.08,1664.85C2242.59,1664.64 2241.74,1663.86 2241.74,1662.66C2241.74,1662.24 2241.88,1661.81 2241.95,1661.6L2242.1,1661.25ZM2274.9,1660.26C2279.08,1660.26 2282.33,1656.44 2282.33,1650.71C2282.33,1646.26 2279.78,1642.51 2275.75,1642.51C2270.66,1642.51 2267.41,1646.89 2267.41,1652.06C2267.41,1656.72 2270.45,1660.26 2274.9,1660.26ZM2287.77,1674.47C2291.17,1674.47 2293.29,1671.92 2293.29,1668.95L2293.29,1617.62C2293.29,1614.16 2290.81,1612.11 2287.77,1612.11L2236.44,1612.11C2232.97,1612.11 2230.92,1614.44 2230.92,1617.62L2230.92,1668.95C2230.92,1672.14 2233.4,1674.47 2236.44,1674.47L2287.77,1674.47Z" style="fill-rule:nonzero;"/>
        </g>
    </g>
</svg>
