<?xml version="1.0" encoding="UTF-8" standalone="no"?>
<!DOCTYPE svg PUBLIC "-//W3C//DTD SVG 1.1//EN" "http://www.w3.org/Graphics/SVG/1.1/DTD/svg11.dtd">
<svg width="100%" height="100%" viewBox="0 0 89 89" version="1.1" xmlns="http://www.w3.org/2000/svg" xmlns:xlink="http://www.w3.org/1999/xlink" xml:space="preserve" xmlns:serif="http://www.serif.com/" style="fill-rule:evenodd;clip-rule:evenodd;stroke-linejoin:round;stroke-miterlimit:2;">
    <g transform="matrix(1,0,0,1,-1902.47,-842.274)">
        <g transform="matrix(1.41414,0,0,1.41429,-1052.39,-837.704)">
            <path d="M2146.36,1250.23C2149.75,1250.23 2151.87,1247.68 2151.87,1244.71L2151.87,1193.38C2151.87,1189.91 2149.4,1187.86 2146.36,1187.86L2095.02,1187.86C2091.56,1187.86 2089.51,1190.2 2089.51,1193.38L2089.51,1244.71C2089.51,1247.89 2091.98,1250.23 2095.02,1250.23L2146.36,1250.23ZM2112.21,1216.29C2115.74,1217.28 2118.57,1221.24 2118.57,1226.61C2118.57,1234.32 2114.68,1241.04 2105.56,1241.04C2101.67,1241.04 2098.56,1239.27 2095.8,1236.16C2095.31,1235.52 2095.24,1234.81 2095.24,1234.25C2095.24,1233.12 2095.94,1230.57 2097.5,1230.57C2097.92,1230.57 2098.28,1230.78 2098.7,1231.28C2100.68,1234.11 2102.59,1235.87 2105.56,1235.87C2111.57,1235.87 2113.83,1231.42 2113.83,1226.68C2113.83,1222.72 2111.29,1219.82 2107.4,1219.82C2107.04,1219.82 2106.69,1219.82 2106.34,1219.89C2105.49,1219.96 2104.57,1220.11 2103.72,1220.32C2103.58,1220.39 2103.51,1220.39 2103.37,1220.39C2101.81,1220.39 2100.96,1218.2 2100.96,1217.07C2100.96,1216.29 2101.39,1215.37 2102.31,1215.16C2106.2,1214.8 2112.42,1212.47 2112.42,1207.52C2112.42,1204.41 2110.72,1202.43 2107.47,1202.43C2104.78,1202.43 2102.59,1203.7 2100.26,1206.81C2099.76,1207.45 2099.41,1208.09 2098.56,1208.09C2097.07,1208.09 2096.23,1205.82 2096.23,1204.62C2096.23,1202.15 2101.18,1197.34 2107.4,1197.34C2112.98,1197.34 2117.09,1200.87 2117.09,1207.17C2117.09,1212.61 2113.62,1215.58 2112.21,1216.29ZM2142.19,1233.26C2142.19,1235.59 2142.47,1237.85 2142.47,1239.2C2142.47,1239.97 2141.76,1240.82 2140.63,1240.82C2139.14,1240.82 2137.17,1239.55 2137.17,1238.14C2137.17,1237.22 2137.31,1233.96 2137.31,1233.12L2137.31,1231.07L2126.91,1231.42C2126.63,1231.42 2125.99,1231.56 2124.79,1231.84L2124.65,1231.84C2123.1,1231.84 2121.47,1230.08 2121.47,1228.17C2121.47,1227.18 2121.75,1226.75 2122.88,1224.98C2124.72,1222.72 2133.91,1203.49 2135.54,1198.54C2135.82,1197.62 2136.53,1197.48 2136.95,1197.48C2138.37,1197.48 2140.21,1199.74 2140.21,1201.44C2140.21,1201.86 2140.07,1202.29 2139.85,1202.64C2139.29,1203.49 2138.58,1204.76 2138.16,1205.68C2135.47,1211.48 2131.37,1219.75 2127.83,1226.33L2137.31,1226.12L2137.31,1215.23C2137.31,1214.1 2137.17,1210.42 2137.17,1209.08C2137.17,1208.3 2137.87,1207.45 2139,1207.45C2140.42,1207.45 2142.33,1208.65 2142.33,1210.14C2142.33,1211.06 2142.19,1213.81 2142.19,1215.23L2142.19,1225.9C2143.11,1225.83 2144.52,1225.55 2145.16,1225.55C2146.85,1225.55 2147.7,1228.17 2147.7,1229.23C2147.7,1229.72 2147.49,1231.07 2146.22,1231.07C2145.51,1231.07 2143.6,1230.92 2142.19,1230.92L2142.19,1233.26Z" style="fill-rule:nonzero;"/>
        </g>
    </g>
</svg>
