<?xml version="1.0" encoding="UTF-8" standalone="no"?>
<!DOCTYPE svg PUBLIC "-//W3C//DTD SVG 1.1//EN" "http://www.w3.org/Graphics/SVG/1.1/DTD/svg11.dtd">
<svg width="100%" height="100%" viewBox="0 0 96 96" version="1.1" xmlns="http://www.w3.org/2000/svg" xmlns:xlink="http://www.w3.org/1999/xlink" xml:space="preserve" xmlns:serif="http://www.serif.com/" style="fill-rule:evenodd;clip-rule:evenodd;stroke-linejoin:round;stroke-miterlimit:2;">
    <g transform="matrix(1,0,0,1,-809.628,-3773.28)">
        <g transform="matrix(1,0,0,1,-110.019,-3591.86)">
            <path d="M1015.25,7412.94C1015.25,7386.55 993.848,7365.15 967.448,7365.15C941.048,7365.15 919.648,7386.55 919.648,7412.94C919.648,7439.35 941.048,7460.65 967.448,7460.65C993.848,7460.65 1015.25,7439.35 1015.25,7412.94ZM986.748,7433.24C986.748,7434.24 986.948,7440.24 986.948,7442.24C986.948,7444.24 984.848,7444.55 984.148,7444.55C982.048,7444.55 978.948,7442.74 978.948,7440.74L978.948,7440.55C979.048,7439.24 979.148,7434.35 979.148,7432.35L979.148,7417.24C979.148,7410.44 977.848,7407.05 972.848,7407.05C967.448,7407.05 960.948,7410.24 958.548,7418.15C957.348,7422.24 957.348,7429.15 957.348,7433.24L957.348,7435.05C957.348,7437.65 957.448,7440.15 957.548,7442.15L957.548,7442.24C957.548,7444.15 955.648,7444.55 954.848,7444.55C953.448,7444.55 949.548,7443.55 949.548,7440.65C949.548,7439.35 949.748,7433.55 949.748,7432.35L949.748,7391.94C949.748,7390.35 949.448,7384.85 949.448,7382.94C949.448,7381.55 950.548,7380.65 952.248,7380.65C954.448,7380.65 957.448,7382.35 957.448,7384.44C957.448,7385.74 957.348,7390.85 957.348,7392.85L957.348,7406.85C961.448,7402.05 967.448,7399.55 972.848,7399.55C985.048,7399.55 986.748,7410.05 986.748,7416.94L986.748,7433.24Z" style="fill-rule:nonzero;"/>
        </g>
    </g>
</svg>
