<?xml version="1.0" encoding="UTF-8" standalone="no"?>
<!DOCTYPE svg PUBLIC "-//W3C//DTD SVG 1.1//EN" "http://www.w3.org/Graphics/SVG/1.1/DTD/svg11.dtd">
<svg width="100%" height="100%" viewBox="0 0 89 89" version="1.1" xmlns="http://www.w3.org/2000/svg" xmlns:xlink="http://www.w3.org/1999/xlink" xml:space="preserve" xmlns:serif="http://www.serif.com/" style="fill-rule:evenodd;clip-rule:evenodd;stroke-linejoin:round;stroke-miterlimit:2;">
    <g transform="matrix(1,0,0,1,-1902.47,-992.274)">
        <g transform="matrix(1.41414,0,0,1.41429,-1052.39,-837.704)">
            <path d="M2146.36,1356.29C2149.75,1356.29 2151.87,1353.74 2151.87,1350.77L2151.87,1299.44C2151.87,1295.97 2149.4,1293.92 2146.36,1293.92L2095.02,1293.92C2091.56,1293.92 2089.51,1296.26 2089.51,1299.44L2089.51,1350.77C2089.51,1353.95 2091.98,1356.29 2095.02,1356.29L2146.36,1356.29ZM2142.19,1339.32C2142.19,1341.65 2142.47,1343.91 2142.47,1345.26C2142.47,1346.04 2141.76,1346.88 2140.56,1346.88C2139.07,1346.88 2137.17,1345.61 2137.17,1344.2C2137.17,1343.28 2137.31,1340.03 2137.31,1339.18L2137.31,1337.13L2126.84,1337.48C2126.56,1337.48 2125.99,1337.62 2124.79,1337.9L2124.65,1337.9C2123.1,1337.9 2121.47,1336.14 2121.47,1334.23C2121.47,1333.1 2122.39,1331.68 2122.88,1331.05C2123.17,1330.62 2123.45,1330.27 2123.59,1329.91C2124.72,1327.86 2133.07,1312.17 2135.47,1304.6C2135.82,1303.68 2136.53,1303.54 2136.88,1303.54C2138.37,1303.54 2140.14,1305.8 2140.14,1307.5C2140.14,1307.92 2140.07,1308.35 2139.85,1308.7C2139.29,1309.55 2138.51,1310.82 2138.16,1311.74C2135.47,1317.54 2131.3,1325.81 2127.83,1332.39L2137.31,1332.18L2137.31,1321.29C2137.31,1320.16 2137.17,1316.48 2137.17,1315.14C2137.17,1314.36 2137.8,1313.51 2139,1313.51C2140.42,1313.51 2142.33,1314.71 2142.33,1316.2C2142.33,1317.12 2142.19,1319.87 2142.19,1321.29L2142.19,1331.96C2143.11,1331.89 2144.52,1331.61 2145.09,1331.61C2146.85,1331.61 2147.63,1334.23 2147.63,1335.29C2147.63,1335.78 2147.49,1337.13 2146.22,1337.13C2145.51,1337.13 2143.6,1336.98 2142.19,1336.98L2142.19,1339.32ZM2114.19,1339.32C2114.19,1341.65 2114.47,1343.91 2114.47,1345.26C2114.47,1346.04 2113.76,1346.88 2112.63,1346.88C2111.14,1346.88 2109.17,1345.61 2109.17,1344.2C2109.17,1343.28 2109.31,1340.03 2109.31,1339.18L2109.31,1337.13L2098.84,1337.48C2098.56,1337.48 2097.99,1337.62 2096.79,1337.9L2096.65,1337.9C2095.1,1337.9 2093.47,1336.14 2093.47,1334.23C2093.47,1333.1 2094.39,1331.68 2094.88,1331.05C2095.17,1330.62 2095.45,1330.27 2095.59,1329.91C2096.72,1327.86 2105.07,1312.17 2107.47,1304.6C2107.82,1303.68 2108.53,1303.54 2108.88,1303.54C2110.37,1303.54 2112.14,1305.8 2112.14,1307.5C2112.14,1307.92 2112.07,1308.35 2111.85,1308.7C2111.29,1309.55 2110.51,1310.82 2110.16,1311.74C2107.47,1317.54 2103.3,1325.81 2099.83,1332.39L2109.31,1332.18L2109.31,1321.29C2109.31,1320.16 2109.17,1316.48 2109.17,1315.14C2109.17,1314.36 2109.8,1313.51 2111,1313.51C2112.42,1313.51 2114.33,1314.71 2114.33,1316.2C2114.33,1317.12 2114.19,1319.87 2114.19,1321.29L2114.19,1331.96C2115.11,1331.89 2116.52,1331.61 2117.09,1331.61C2118.85,1331.61 2119.63,1334.23 2119.63,1335.29C2119.63,1335.78 2119.49,1337.13 2118.22,1337.13C2117.51,1337.13 2115.6,1336.98 2114.19,1336.98L2114.19,1339.32Z" style="fill-rule:nonzero;"/>
        </g>
    </g>
</svg>
