<?xml version="1.0" encoding="UTF-8" standalone="no"?>
<!DOCTYPE svg PUBLIC "-//W3C//DTD SVG 1.1//EN" "http://www.w3.org/Graphics/SVG/1.1/DTD/svg11.dtd">
<svg width="100%" height="100%" viewBox="0 0 89 89" version="1.1" xmlns="http://www.w3.org/2000/svg" xmlns:xlink="http://www.w3.org/1999/xlink" xml:space="preserve" xmlns:serif="http://www.serif.com/" style="fill-rule:evenodd;clip-rule:evenodd;stroke-linejoin:round;stroke-miterlimit:2;">
    <g transform="matrix(1,0,0,1,-1058.69,-1021.63)">
        <g transform="matrix(1.41414,0,0,1.41429,-177.055,-770.755)">
            <path d="M936.211,1329.71L936.211,1267.34L873.847,1267.34L873.847,1329.71L936.211,1329.71ZM919.806,1312.24C920.301,1308.92 921.009,1304.75 921.716,1300.72C919.453,1303.05 916.625,1304.54 913.796,1304.54C908.635,1304.54 905.17,1300.22 905.17,1293.22C905.17,1285.09 910.615,1276.82 917.968,1276.82C921.503,1276.82 923.837,1278.52 925.18,1280.14C925.392,1279.43 925.746,1278.44 926.877,1278.44C928.291,1278.44 929.847,1279.79 929.847,1281.41L929.847,1281.77C929.635,1282.69 929.281,1283.68 929.211,1283.96C926.312,1298.6 924.049,1314.93 923.766,1318.04C923.695,1319.81 921.857,1320.23 920.796,1320.23C919.594,1320.23 918.746,1319.6 918.746,1318.25C918.746,1317.69 918.958,1317.19 919.029,1316.63L919.806,1312.24ZM899.443,1312.74C899.443,1315.07 899.726,1317.33 899.726,1318.68C899.726,1319.45 899.019,1320.3 897.887,1320.3C896.402,1320.3 894.423,1319.03 894.423,1317.62C894.423,1316.7 894.564,1313.44 894.564,1312.6L894.564,1310.55L884.17,1310.9C883.887,1310.9 883.18,1311.04 881.908,1311.39L882.049,1311.32L881.908,1311.32C880.352,1311.32 878.726,1309.56 878.726,1307.65C878.726,1306.66 879.009,1306.23 880.14,1304.46C881.978,1302.2 891.17,1282.97 892.796,1278.02C893.079,1277.1 893.786,1276.96 894.211,1276.96C895.625,1276.96 897.463,1279.22 897.463,1280.92C897.463,1281.34 897.322,1281.77 897.11,1282.12C896.544,1282.97 895.837,1284.24 895.413,1285.16C892.726,1290.96 888.625,1299.23 885.089,1305.81L894.564,1305.6L894.564,1294.71C894.564,1293.58 894.423,1289.9 894.423,1288.56C894.423,1287.78 895.13,1286.93 896.261,1286.93C897.675,1286.93 899.584,1288.13 899.584,1289.62C899.584,1290.54 899.443,1293.29 899.443,1294.71L899.443,1305.38C900.362,1305.31 901.776,1305.03 902.413,1305.03C904.11,1305.03 904.958,1307.65 904.958,1308.71C904.958,1309.2 904.746,1310.55 903.473,1310.55C902.766,1310.55 900.857,1310.4 899.443,1310.4L899.443,1312.74ZM924.049,1286.86C923.554,1286.65 923.271,1286.08 923.059,1285.66C922.423,1284.17 921.221,1281.91 918.251,1281.91C913.019,1281.91 909.837,1288.13 909.837,1293.01C909.837,1297.61 911.251,1299.3 913.726,1299.3C917.615,1299.3 920.089,1296.55 922.564,1291.6C923.059,1290.75 923.483,1289.12 923.908,1287.85L924.049,1286.86Z" style="fill-rule:nonzero;"/>
        </g>
    </g>
</svg>
