<?xml version="1.0" encoding="UTF-8" standalone="no"?>
<!DOCTYPE svg PUBLIC "-//W3C//DTD SVG 1.1//EN" "http://www.w3.org/Graphics/SVG/1.1/DTD/svg11.dtd">
<svg width="100%" height="100%" viewBox="0 0 89 89" version="1.1" xmlns="http://www.w3.org/2000/svg" xmlns:xlink="http://www.w3.org/1999/xlink" xml:space="preserve" xmlns:serif="http://www.serif.com/" style="fill-rule:evenodd;clip-rule:evenodd;stroke-linejoin:round;stroke-miterlimit:2;">
    <g transform="matrix(1,0,0,1,-1502.52,-1292.27)">
        <g transform="matrix(1.41414,0,0,1.41429,-1052.39,-837.704)">
            <path d="M1845.64,1518.63C1847.2,1516.72 1849.39,1515.45 1851.86,1515.45C1859.22,1515.45 1862.61,1525.07 1862.61,1536.45C1862.61,1548.05 1859.08,1559.22 1850.66,1559.22C1842.74,1559.22 1839.35,1549.53 1839.35,1537.93C1839.35,1527.82 1842.46,1518.56 1845,1518.56C1845.22,1518.56 1845.43,1518.56 1845.64,1518.63ZM1820.19,1532.77C1821.67,1531.92 1823.37,1531.43 1825.21,1531.43C1831.71,1531.43 1836.17,1537.02 1836.17,1544.51C1836.17,1552.71 1831.71,1559.22 1824.36,1559.22C1817.64,1559.22 1812.55,1553.35 1812.55,1546.07C1812.55,1541.05 1813.75,1536.03 1816.15,1530.65C1818.42,1525.49 1820.54,1521.25 1822.59,1517.71C1822.73,1517.64 1822.8,1517.43 1822.94,1517.29C1823.01,1516.93 1823.72,1515.45 1825.35,1515.45C1825.49,1515.45 1828.32,1515.52 1828.32,1517.78C1828.32,1518.42 1827.89,1519.27 1827.61,1519.69C1824.43,1523.93 1822.02,1528.81 1820.19,1532.77ZM1850.52,1554.06C1855.33,1554.06 1857.73,1546.07 1857.73,1536.03C1857.73,1527.68 1855.75,1520.47 1851.72,1520.47C1848.89,1520.47 1844.23,1525.63 1844.23,1537.86C1844.23,1547.55 1846.21,1554.06 1850.52,1554.06ZM1824.36,1554.2C1828.32,1554.2 1831.43,1550.38 1831.43,1544.65C1831.43,1540.2 1828.95,1536.45 1825.13,1536.45C1820.33,1536.45 1817.22,1540.83 1817.22,1546C1817.22,1550.66 1820.12,1554.2 1824.36,1554.2ZM1863.53,1568.41C1866.92,1568.41 1869.04,1565.86 1869.04,1562.89L1869.04,1511.56C1869.04,1508.1 1866.57,1506.05 1863.53,1506.05L1812.2,1506.05C1808.73,1506.05 1806.68,1508.38 1806.68,1511.56L1806.68,1562.89C1806.68,1566.08 1809.15,1568.41 1812.2,1568.41L1863.53,1568.41Z" style="fill-rule:nonzero;"/>
        </g>
    </g>
</svg>
