<?xml version="1.0" encoding="UTF-8" standalone="no"?>
<!DOCTYPE svg PUBLIC "-//W3C//DTD SVG 1.1//EN" "http://www.w3.org/Graphics/SVG/1.1/DTD/svg11.dtd">
<svg width="100%" height="100%" viewBox="0 0 88 89" version="1.1" xmlns="http://www.w3.org/2000/svg" xmlns:xlink="http://www.w3.org/1999/xlink" xml:space="preserve" xmlns:serif="http://www.serif.com/" style="fill-rule:evenodd;clip-rule:evenodd;stroke-linejoin:round;stroke-miterlimit:2;">
    <g transform="matrix(1,0,0,1,-571.88,-5721.67)">
        <g transform="matrix(1,0,0,1,-504.034,-1124.47)">
            <path d="M1084.51,6850.34L1084.51,6846.14L1075.91,6846.14L1075.91,6854.74L1080.11,6854.74L1080.11,6850.34L1084.51,6850.34ZM1084.51,6934.24L1084.51,6930.04L1080.11,6930.04L1080.11,6925.64L1075.91,6925.64L1075.91,6934.24L1084.51,6934.24ZM1163.81,6854.74L1163.81,6846.14L1155.41,6846.14L1155.41,6850.34L1159.81,6850.34L1159.81,6854.74L1163.81,6854.74ZM1163.81,6934.24L1163.81,6925.64L1159.81,6925.64L1159.81,6930.04L1155.41,6930.04L1155.41,6934.24L1163.81,6934.24ZM1129.71,6934.24L1129.71,6930.04L1121.51,6930.04L1121.51,6934.24L1129.71,6934.24ZM1141.01,6934.24L1141.01,6930.04L1132.81,6930.04L1132.81,6934.24L1141.01,6934.24ZM1152.31,6934.24L1152.31,6930.04L1144.11,6930.04L1144.11,6934.24L1152.31,6934.24ZM1141.01,6850.34L1141.01,6846.14L1132.81,6846.14L1132.81,6850.34L1141.01,6850.34ZM1080.11,6866.04L1080.11,6857.84L1075.91,6857.84L1075.91,6866.04L1080.11,6866.04ZM1080.11,6922.54L1080.11,6914.34L1075.91,6914.34L1075.91,6922.54L1080.11,6922.54ZM1118.41,6850.34L1118.41,6846.14L1110.21,6846.14L1110.21,6850.34L1118.41,6850.34ZM1080.11,6899.94L1080.11,6891.74L1075.91,6891.74L1075.91,6899.94L1080.11,6899.94ZM1080.11,6911.24L1080.11,6903.04L1075.91,6903.04L1075.91,6911.24L1080.11,6911.24ZM1107.11,6934.24L1107.11,6930.04L1098.91,6930.04L1098.91,6934.24L1107.11,6934.24ZM1107.11,6850.34L1107.11,6846.14L1098.91,6846.14L1098.91,6850.34L1107.11,6850.34ZM1080.11,6888.64L1080.11,6880.44L1075.91,6880.44L1075.91,6888.64L1080.11,6888.64ZM1118.41,6934.24L1118.41,6930.04L1110.21,6930.04L1110.21,6934.24L1118.41,6934.24ZM1080.11,6877.34L1080.11,6869.14L1075.91,6869.14L1075.91,6877.34L1080.11,6877.34ZM1095.81,6934.24L1095.81,6930.04L1087.61,6930.04L1087.61,6934.24L1095.81,6934.24ZM1152.31,6850.34L1152.31,6846.14L1144.11,6846.14L1144.11,6850.34L1152.31,6850.34ZM1095.81,6850.34L1095.81,6846.14L1087.61,6846.14L1087.61,6850.34L1095.81,6850.34ZM1129.71,6850.34L1129.71,6846.14L1121.51,6846.14L1121.51,6850.34L1129.71,6850.34ZM1163.81,6922.54L1163.81,6914.34L1159.81,6914.34L1159.81,6922.54L1163.81,6922.54ZM1163.81,6911.24L1163.81,6903.04L1159.81,6903.04L1159.81,6911.24L1163.81,6911.24ZM1163.81,6899.94L1163.81,6891.74L1159.81,6891.74L1159.81,6899.94L1163.81,6899.94ZM1163.81,6866.04L1163.81,6857.84L1159.81,6857.84L1159.81,6866.04L1163.81,6866.04ZM1163.81,6877.34L1163.81,6869.14L1159.81,6869.14L1159.81,6877.34L1163.81,6877.34ZM1163.81,6888.64L1163.81,6880.44L1159.81,6880.44L1159.81,6888.64L1163.81,6888.64Z" style="fill-rule:nonzero;"/>
        </g>
    </g>
</svg>
