<?xml version="1.0" encoding="UTF-8" standalone="no"?>
<!DOCTYPE svg PUBLIC "-//W3C//DTD SVG 1.1//EN" "http://www.w3.org/Graphics/SVG/1.1/DTD/svg11.dtd">
<svg width="100%" height="100%" viewBox="0 0 88 89" version="1.1" xmlns="http://www.w3.org/2000/svg" xmlns:xlink="http://www.w3.org/1999/xlink" xml:space="preserve" xmlns:serif="http://www.serif.com/" style="fill-rule:evenodd;clip-rule:evenodd;stroke-linejoin:round;stroke-miterlimit:2;">
    <g transform="matrix(1,0,0,1,-5842.28,-2586.06)">
        <g transform="matrix(1,0,0,1,1,0)">
            <path d="M5849.88,2590.26L5849.88,2586.06L5841.28,2586.06L5841.28,2594.66L5845.48,2594.66L5845.48,2590.26L5849.88,2590.26ZM5849.88,2674.16L5849.88,2669.96L5845.48,2669.96L5845.48,2665.56L5841.28,2665.56L5841.28,2674.16L5849.88,2674.16ZM5929.17,2594.66L5929.17,2586.06L5920.77,2586.06L5920.77,2590.26L5925.17,2590.26L5925.17,2594.66L5929.17,2594.66ZM5929.17,2674.16L5929.17,2665.56L5925.17,2665.56L5925.17,2669.96L5920.77,2669.96L5920.77,2674.16L5929.17,2674.16ZM5895.07,2674.16L5895.07,2669.96L5886.87,2669.96L5886.87,2674.16L5895.07,2674.16ZM5906.37,2674.16L5906.37,2669.96L5898.17,2669.96L5898.17,2674.16L5906.37,2674.16ZM5917.67,2674.16L5917.67,2669.96L5909.47,2669.96L5909.47,2674.16L5917.67,2674.16ZM5906.37,2590.26L5906.37,2586.06L5898.17,2586.06L5898.17,2590.26L5906.37,2590.26ZM5845.48,2605.96L5845.48,2597.76L5841.28,2597.76L5841.28,2605.96L5845.48,2605.96ZM5845.48,2662.46L5845.48,2654.26L5841.28,2654.26L5841.28,2662.46L5845.48,2662.46ZM5883.77,2590.26L5883.77,2586.06L5875.57,2586.06L5875.57,2590.26L5883.77,2590.26ZM5845.48,2639.86L5845.48,2631.66L5841.28,2631.66L5841.28,2639.86L5845.48,2639.86ZM5845.48,2651.16L5845.48,2642.96L5841.28,2642.96L5841.28,2651.16L5845.48,2651.16ZM5872.47,2674.16L5872.47,2669.96L5864.27,2669.96L5864.27,2674.16L5872.47,2674.16ZM5872.47,2590.26L5872.47,2586.06L5864.27,2586.06L5864.27,2590.26L5872.47,2590.26ZM5845.48,2628.56L5845.48,2620.36L5841.28,2620.36L5841.28,2628.56L5845.48,2628.56ZM5883.77,2674.16L5883.77,2669.96L5875.57,2669.96L5875.57,2674.16L5883.77,2674.16ZM5845.48,2617.26L5845.48,2609.06L5841.28,2609.06L5841.28,2617.26L5845.48,2617.26ZM5861.17,2674.16L5861.17,2669.96L5852.98,2669.96L5852.98,2674.16L5861.17,2674.16ZM5917.67,2590.26L5917.67,2586.06L5909.47,2586.06L5909.47,2590.26L5917.67,2590.26ZM5861.17,2590.26L5861.17,2586.06L5852.98,2586.06L5852.98,2590.26L5861.17,2590.26ZM5895.07,2590.26L5895.07,2586.06L5886.87,2586.06L5886.87,2590.26L5895.07,2590.26ZM5929.17,2662.46L5929.17,2654.26L5925.17,2654.26L5925.17,2662.46L5929.17,2662.46ZM5929.17,2651.16L5929.17,2642.96L5925.17,2642.96L5925.17,2651.16L5929.17,2651.16ZM5929.17,2639.86L5929.17,2631.66L5925.17,2631.66L5925.17,2639.86L5929.17,2639.86ZM5929.17,2605.96L5929.17,2597.76L5925.17,2597.76L5925.17,2605.96L5929.17,2605.96ZM5929.17,2617.26L5929.17,2609.06L5925.17,2609.06L5925.17,2617.26L5929.17,2617.26ZM5929.17,2628.56L5929.17,2620.36L5925.17,2620.36L5925.17,2628.56L5929.17,2628.56Z" style="fill-rule:nonzero;"/>
        </g>
    </g>
</svg>
