<?xml version="1.0" encoding="UTF-8" standalone="no"?>
<!DOCTYPE svg PUBLIC "-//W3C//DTD SVG 1.1//EN" "http://www.w3.org/Graphics/SVG/1.1/DTD/svg11.dtd">
<svg width="100%" height="100%" viewBox="0 0 96 96" version="1.1" xmlns="http://www.w3.org/2000/svg" xmlns:xlink="http://www.w3.org/1999/xlink" xml:space="preserve" xmlns:serif="http://www.serif.com/" style="fill-rule:evenodd;clip-rule:evenodd;stroke-linejoin:round;stroke-miterlimit:2;">
    <g transform="matrix(1,0,0,1,-5738.59,-2582.36)">
        <g transform="matrix(1,0,0,1,1,0)">
            <path d="M5828.58,2609.96C5827.28,2607.16 5825.78,2604.56 5823.98,2602.06L5820.68,2604.66C5822.28,2606.86 5823.58,2609.16 5824.78,2611.56L5828.58,2609.96ZM5821.78,2599.36C5819.78,2596.96 5817.68,2594.86 5815.28,2592.96L5812.78,2596.26C5814.78,2597.96 5816.78,2599.86 5818.48,2601.86L5821.78,2599.36ZM5832.88,2634.36C5832.98,2632.86 5833.08,2631.36 5833.08,2629.76C5833.08,2628.26 5832.98,2626.76 5832.88,2625.26L5828.78,2625.86C5828.88,2627.06 5828.98,2628.46 5828.98,2629.76C5828.98,2631.16 5828.88,2632.46 5828.78,2633.86L5832.88,2634.36ZM5789.48,2673.56C5788.28,2673.66 5786.88,2673.76 5785.58,2673.76C5784.18,2673.76 5782.88,2673.66 5781.48,2673.56L5780.98,2677.66C5782.58,2677.76 5784.08,2677.86 5785.58,2677.86C5787.08,2677.86 5788.58,2677.76 5790.08,2677.66L5789.48,2673.56ZM5812.48,2590.86C5809.98,2589.16 5807.38,2587.66 5804.58,2586.46L5803.08,2590.26C5805.48,2591.36 5807.78,2592.66 5809.98,2594.16L5812.48,2590.86ZM5832.38,2621.76C5831.98,2619.26 5831.38,2616.86 5830.48,2614.56C5830.38,2614.06 5830.18,2613.56 5829.98,2613.16C5829.98,2613.16 5826.38,2614.76 5826.18,2614.76C5827.08,2617.16 5827.78,2619.66 5828.28,2622.36L5832.38,2621.76ZM5830.18,2646.56C5831.18,2643.66 5831.98,2640.76 5832.48,2637.76L5828.38,2637.26C5827.98,2639.96 5827.28,2642.46 5826.38,2644.96L5830.18,2646.56ZM5776.78,2583.16C5773.78,2583.56 5770.88,2584.46 5768.18,2585.46L5769.78,2589.36C5772.18,2588.36 5774.78,2587.66 5777.38,2587.16L5776.78,2583.16ZM5815.98,2666.76C5818.38,2664.86 5820.48,2662.76 5822.28,2660.46L5818.98,2657.96C5817.28,2659.96 5815.48,2661.86 5813.48,2663.56L5815.98,2666.76ZM5759.68,2594.76C5761.78,2593.26 5764.08,2591.86 5766.48,2590.76L5764.88,2586.96C5762.18,2588.16 5759.58,2589.76 5757.19,2591.46L5759.68,2594.76ZM5801.38,2585.16C5798.58,2584.16 5795.58,2583.36 5792.58,2582.96L5792.18,2586.96C5794.78,2587.36 5797.38,2588.06 5799.88,2588.96L5801.38,2585.16ZM5744.39,2645.56C5743.49,2643.16 5742.79,2640.66 5742.29,2638.06L5738.19,2638.56C5738.69,2641.56 5739.59,2644.36 5740.59,2647.16L5744.39,2645.56ZM5824.38,2657.56C5826.18,2655.06 5827.68,2652.46 5828.88,2649.76L5825.08,2648.26C5823.98,2650.66 5822.68,2652.96 5821.18,2655.16L5824.38,2657.56ZM5767.08,2669.76C5764.68,2668.66 5762.48,2667.36 5760.38,2665.96L5757.89,2669.26C5760.28,2670.96 5762.88,2672.36 5765.58,2673.66L5767.08,2669.76ZM5777.98,2673.16C5775.38,2672.76 5772.88,2672.06 5770.38,2671.16L5768.88,2674.96C5771.68,2675.96 5774.58,2676.76 5777.48,2677.26L5777.98,2673.16ZM5757.48,2663.76C5755.48,2662.06 5753.69,2660.26 5751.98,2658.36L5748.78,2660.96C5750.69,2663.16 5752.78,2665.26 5754.98,2667.06L5757.48,2663.76ZM5805.48,2673.36C5808.28,2672.16 5810.78,2670.66 5813.18,2668.96L5810.58,2665.76C5808.48,2667.26 5806.28,2668.56 5803.88,2669.56L5805.48,2673.36ZM5800.58,2671.06C5798.18,2671.96 5795.68,2672.66 5793.08,2673.06L5793.68,2677.16C5796.58,2676.66 5799.48,2675.86 5802.18,2674.86L5800.58,2671.06ZM5749.69,2655.56C5748.19,2653.36 5746.89,2651.16 5745.79,2648.86L5741.99,2650.46C5743.29,2653.16 5744.79,2655.66 5746.49,2658.06L5749.69,2655.56ZM5789.18,2582.56C5787.78,2582.46 5786.28,2582.36 5784.78,2582.36C5783.28,2582.36 5781.88,2582.46 5780.38,2582.56L5780.98,2586.66C5782.48,2586.56 5784.18,2586.46 5785.78,2586.46C5786.78,2586.46 5787.68,2586.46 5788.68,2586.56L5789.18,2582.56ZM5741.79,2634.46C5741.69,2632.86 5741.59,2631.16 5741.59,2629.56C5741.59,2628.56 5741.59,2627.56 5741.69,2626.66L5737.69,2626.16C5737.59,2627.56 5737.59,2628.96 5737.59,2630.46C5737.59,2631.96 5737.59,2633.46 5737.69,2634.96L5741.79,2634.46ZM5751.39,2602.56C5752.98,2600.56 5754.78,2598.66 5756.78,2597.06L5754.39,2593.76C5752.19,2595.66 5750.09,2597.76 5748.19,2600.06L5751.39,2602.56ZM5745.39,2612.16C5746.49,2609.76 5747.79,2607.56 5749.19,2605.46L5745.99,2602.96C5744.29,2605.36 5742.89,2607.96 5741.69,2610.56L5745.39,2612.16ZM5742.09,2623.06C5742.49,2620.46 5743.19,2617.96 5743.99,2615.56L5740.29,2614.06C5739.29,2616.76 5738.59,2619.56 5738.09,2622.56L5742.09,2623.06Z" style="fill-rule:nonzero;"/>
        </g>
    </g>
</svg>
