<?xml version="1.0" encoding="UTF-8" standalone="no"?>
<!DOCTYPE svg PUBLIC "-//W3C//DTD SVG 1.1//EN" "http://www.w3.org/Graphics/SVG/1.1/DTD/svg11.dtd">
<svg width="100%" height="100%" viewBox="0 0 63 73" version="1.1" xmlns="http://www.w3.org/2000/svg" xmlns:xlink="http://www.w3.org/1999/xlink" xml:space="preserve" xmlns:serif="http://www.serif.com/" style="fill-rule:evenodd;clip-rule:evenodd;stroke-linejoin:round;stroke-miterlimit:2;">
    <g transform="matrix(1,0,0,1,-4335.02,-2472.77)">
        <g transform="matrix(1.41414,0,0,1.41429,-1534.59,-78.5653)">
            <path d="M4152.77,1848.45C4152.28,1849.58 4151.08,1850.14 4150.72,1851.21C4150.65,1851.42 4150.65,1851.56 4150.65,1851.77C4150.65,1853.26 4152.35,1854.95 4153.13,1854.95C4154.19,1854.95 4154.54,1854.53 4155.53,1854.46C4159.85,1854.25 4167.84,1853.82 4172.86,1853.82C4178.09,1853.82 4185.58,1854.17 4190.18,1854.46C4191.17,1854.53 4191.52,1854.95 4192.58,1854.95C4193.36,1854.95 4195.06,1853.26 4195.06,1851.77C4195.06,1851.56 4195.06,1851.42 4194.99,1851.21C4194.63,1850.14 4193.43,1849.58 4192.94,1848.45L4175.9,1808.07C4175.75,1807.79 4175.75,1807.58 4175.75,1807.3L4175.75,1806.66C4175.75,1805.17 4173.7,1803.97 4172.15,1803.97C4171.72,1803.97 4171.37,1804.12 4171.09,1804.33C4170.45,1804.89 4170.38,1806.73 4169.82,1808.07L4152.77,1848.45ZM4189.54,1850.64C4183.6,1850.14 4179.22,1850.07 4172.86,1850.07C4166.35,1850.07 4162.46,1850.22 4156.17,1850.64L4172.86,1810.27L4189.54,1850.64Z" style="fill-rule:nonzero;"/>
        </g>
    </g>
</svg>
