<?xml version="1.0" encoding="UTF-8" standalone="no"?>
<!DOCTYPE svg PUBLIC "-//W3C//DTD SVG 1.1//EN" "http://www.w3.org/Graphics/SVG/1.1/DTD/svg11.dtd">
<svg width="100%" height="100%" viewBox="0 0 67 57" version="1.1" xmlns="http://www.w3.org/2000/svg" xmlns:xlink="http://www.w3.org/1999/xlink" xml:space="preserve" xmlns:serif="http://www.serif.com/" style="fill-rule:evenodd;clip-rule:evenodd;stroke-linejoin:round;stroke-miterlimit:2;">
    <g transform="matrix(1,0,0,1,-4632.99,-2030.17)">
        <g transform="matrix(1.41414,0,0,1.41429,-1534.59,-78.5653)">
            <path d="M4385.4,1497.81C4387.1,1497.81 4388.09,1496.75 4388.09,1494.98C4388.09,1493.14 4386.32,1491.02 4384.69,1491.02C4382.86,1491.02 4381.94,1492.15 4381.94,1493.99C4381.94,1495.69 4383.56,1497.81 4385.4,1497.81ZM4406.97,1508.7C4404.99,1508.84 4402.65,1508.91 4401.59,1508.91L4368.57,1509.34C4366.31,1509.34 4363.84,1509.27 4362.42,1509.2C4361.64,1509.2 4361.36,1509.83 4361.36,1510.68C4361.36,1511.74 4361.86,1512.94 4362.63,1512.94L4362.77,1512.94C4363.91,1512.8 4366.73,1512.73 4368.5,1512.73L4401.52,1512.31C4402.65,1512.31 4405.2,1512.38 4407.39,1512.38C4408.1,1512.38 4408.45,1511.67 4408.45,1510.89C4408.45,1509.9 4407.89,1508.7 4407.04,1508.7L4406.97,1508.7ZM4385.4,1530.9C4387.1,1530.9 4388.09,1529.84 4388.09,1528.07C4388.09,1526.24 4386.32,1524.12 4384.69,1524.12C4382.86,1524.12 4381.94,1525.25 4381.94,1527.08C4381.94,1528.78 4383.56,1530.9 4385.4,1530.9Z" style="fill-rule:nonzero;"/>
        </g>
    </g>
</svg>
