<?xml version="1.0" encoding="UTF-8" standalone="no"?>
<!DOCTYPE svg PUBLIC "-//W3C//DTD SVG 1.1//EN" "http://www.w3.org/Graphics/SVG/1.1/DTD/svg11.dtd">
<svg width="100%" height="100%" viewBox="0 0 88 88" version="1.1" xmlns="http://www.w3.org/2000/svg" xmlns:xlink="http://www.w3.org/1999/xlink" xml:space="preserve" xmlns:serif="http://www.serif.com/" style="fill-rule:evenodd;clip-rule:evenodd;stroke-linejoin:round;stroke-miterlimit:2;">
    <g transform="matrix(1,0,0,1,-1472.28,-5271.07)">
        <g transform="matrix(1,0,0,1,-504.034,-1124.47)">
            <path d="M2063.51,6439.14C2063.51,6415.14 2043.91,6395.54 2019.91,6395.54C1995.91,6395.54 1976.31,6415.14 1976.31,6439.14C1976.31,6463.14 1995.91,6482.74 2019.91,6482.74C2043.91,6482.74 2063.51,6463.14 2063.51,6439.14ZM2055.21,6439.14C2055.21,6458.64 2039.41,6474.44 2019.91,6474.44C2000.41,6474.44 1984.61,6458.64 1984.61,6439.14C1984.61,6419.64 2000.41,6403.84 2019.91,6403.84C2039.41,6403.84 2055.21,6419.64 2055.21,6439.14ZM2035.91,6439.14C2035.91,6430.44 2028.61,6423.14 2019.91,6423.14C2011.21,6423.14 2003.91,6430.44 2003.91,6439.14C2003.91,6447.84 2011.21,6455.14 2019.91,6455.14C2028.61,6455.14 2035.91,6447.84 2035.91,6439.14Z" style="fill-rule:nonzero;"/>
        </g>
    </g>
</svg>
