<?xml version="1.0" encoding="UTF-8" standalone="no"?>
<!DOCTYPE svg PUBLIC "-//W3C//DTD SVG 1.1//EN" "http://www.w3.org/Graphics/SVG/1.1/DTD/svg11.dtd">
<svg width="100%" height="100%" viewBox="0 0 67 67" version="1.1" xmlns="http://www.w3.org/2000/svg" xmlns:xlink="http://www.w3.org/1999/xlink" xml:space="preserve" xmlns:serif="http://www.serif.com/" style="fill-rule:evenodd;clip-rule:evenodd;stroke-linejoin:round;stroke-miterlimit:2;">
    <g transform="matrix(1,0,0,1,-1082.48,-5281.17)">
        <g transform="matrix(1,0,0,1,-504.034,-1124.47)">
            <path d="M1653.31,6439.04C1653.31,6420.54 1638.41,6405.64 1619.91,6405.64C1601.41,6405.64 1586.51,6420.54 1586.51,6439.04C1586.51,6457.54 1601.41,6472.44 1619.91,6472.44C1638.41,6472.44 1653.31,6457.54 1653.31,6439.04ZM1647.71,6439.04C1647.71,6454.44 1635.31,6466.84 1619.91,6466.84C1604.51,6466.84 1592.11,6454.44 1592.11,6439.04C1592.11,6423.64 1604.51,6411.24 1619.91,6411.24C1635.31,6411.24 1647.71,6423.64 1647.71,6439.04ZM1638.81,6439.04C1638.81,6428.64 1630.31,6420.14 1619.91,6420.14C1609.51,6420.14 1601.01,6428.64 1601.01,6439.04C1601.01,6449.44 1609.51,6457.94 1619.91,6457.94C1630.31,6457.94 1638.81,6449.44 1638.81,6439.04Z" style="fill-rule:nonzero;"/>
        </g>
    </g>
</svg>
