<?xml version="1.0" encoding="UTF-8" standalone="no"?>
<!DOCTYPE svg PUBLIC "-//W3C//DTD SVG 1.1//EN" "http://www.w3.org/Graphics/SVG/1.1/DTD/svg11.dtd">
<svg width="100%" height="100%" viewBox="0 0 43 72" version="1.1" xmlns="http://www.w3.org/2000/svg" xmlns:xlink="http://www.w3.org/1999/xlink" xml:space="preserve" xmlns:serif="http://www.serif.com/" style="fill-rule:evenodd;clip-rule:evenodd;stroke-linejoin:round;stroke-miterlimit:2;">
    <g transform="matrix(1,0,0,1,-5265.83,-2745.76)">
        <g transform="matrix(1,0,0,1,1,0)">
            <path d="M5304.83,2794.56L5305.63,2755.96C5305.73,2753.56 5306.03,2750.96 5306.23,2748.86L5306.23,2748.66C5306.23,2747.16 5303.43,2745.76 5301.53,2745.76C5300.43,2745.76 5299.53,2746.26 5299.53,2747.36L5299.53,2747.56C5299.63,2748.36 5300.03,2752.76 5300.03,2755.46L5300.23,2794.16C5300.23,2795.46 5300.13,2797.06 5300.03,2798.06L5300.03,2798.16C5300.03,2799.36 5302.13,2800.26 5303.63,2800.26C5304.33,2800.26 5304.83,2800.06 5304.83,2799.56L5304.83,2794.56ZM5271.73,2794.56L5272.53,2755.96C5272.63,2753.56 5272.93,2750.96 5273.13,2748.86L5273.13,2748.66C5273.13,2747.16 5270.33,2745.76 5268.44,2745.76C5267.34,2745.76 5266.44,2746.26 5266.44,2747.36L5266.44,2747.56C5266.53,2748.36 5266.94,2752.76 5266.94,2755.46L5267.14,2794.16C5267.14,2795.46 5267.03,2797.06 5266.94,2798.06L5266.94,2798.16C5266.94,2799.36 5269.03,2800.26 5270.53,2800.26C5271.23,2800.26 5271.73,2800.06 5271.73,2799.56L5271.73,2794.56ZM5303.03,2817.36C5305.53,2817.36 5307.03,2815.76 5307.03,2813.16C5307.03,2810.46 5304.43,2807.36 5302.03,2807.36C5299.33,2807.36 5297.93,2809.06 5297.93,2811.76C5297.93,2814.26 5300.33,2817.36 5303.03,2817.36ZM5269.93,2817.36C5272.43,2817.36 5273.93,2815.76 5273.93,2813.16C5273.93,2810.46 5271.33,2807.36 5268.93,2807.36C5266.23,2807.36 5264.84,2809.06 5264.84,2811.76C5264.84,2814.26 5267.23,2817.36 5269.93,2817.36Z" style="fill-rule:nonzero;"/>
        </g>
    </g>
</svg>
