<?xml version="1.0" encoding="UTF-8" standalone="no"?>
<!DOCTYPE svg PUBLIC "-//W3C//DTD SVG 1.1//EN" "http://www.w3.org/Graphics/SVG/1.1/DTD/svg11.dtd">
<svg width="100%" height="100%" viewBox="0 0 43 89" version="1.1" xmlns="http://www.w3.org/2000/svg" xmlns:xlink="http://www.w3.org/1999/xlink" xml:space="preserve" xmlns:serif="http://www.serif.com/" style="fill-rule:evenodd;clip-rule:evenodd;stroke-linejoin:round;stroke-miterlimit:2;">
    <g transform="matrix(1,0,0,1,-4070.25,-2011.27)">
        <g transform="matrix(1.41414,0,0,1.41429,-1534.59,-78.5653)">
            <path d="M3967.03,1532.46C3965.97,1534.3 3964.84,1535.85 3963.56,1537.9C3963.49,1538.04 3963.42,1538.12 3963.42,1538.26C3963.42,1539.17 3964.84,1540.59 3965.9,1540.59C3966.25,1540.59 3966.6,1540.45 3966.82,1539.95C3967.95,1537.41 3968.87,1535.85 3970.07,1533.73L3981.66,1513.3C3982.65,1511.53 3983.08,1510.12 3983.08,1508.7C3983.08,1507.29 3982.65,1505.87 3981.66,1504.17L3970.14,1483.95C3968.94,1481.83 3968.3,1480.28 3967.31,1478.15C3967.17,1477.8 3966.67,1477.66 3966.18,1477.66C3965.05,1477.66 3963.63,1478.3 3963.63,1479.22C3963.63,1479.43 3963.7,1479.64 3963.85,1479.85C3965.4,1482.26 3966.11,1483.53 3967.45,1485.86L3978.48,1505.31C3979.19,1506.65 3979.54,1507.71 3979.54,1508.77C3979.54,1509.76 3979.19,1510.82 3978.48,1512.16L3967.03,1532.46ZM3977.56,1532.46C3976.57,1534.3 3975.37,1535.85 3974.1,1537.9C3974.03,1538.04 3973.96,1538.12 3973.96,1538.26C3973.96,1539.17 3975.37,1540.59 3976.43,1540.59C3976.79,1540.59 3977.14,1540.45 3977.35,1539.95C3978.48,1537.41 3979.4,1535.99 3980.6,1533.73L3991.78,1513.3C3992.76,1511.53 3993.19,1510.12 3993.19,1508.7C3993.19,1507.29 3992.76,1505.87 3991.78,1504.17L3980.67,1483.95C3979.47,1481.76 3978.84,1480.28 3977.85,1478.15C3977.7,1477.8 3977.21,1477.66 3976.71,1477.66C3975.58,1477.66 3974.17,1478.3 3974.17,1479.22C3974.17,1479.43 3974.24,1479.64 3974.38,1479.85C3975.94,1482.26 3976.64,1483.46 3977.99,1485.86L3988.59,1505.31C3989.3,1506.65 3989.65,1507.71 3989.65,1508.77C3989.65,1509.76 3989.3,1510.82 3988.59,1512.16L3977.56,1532.46Z" style="fill-rule:nonzero;"/>
        </g>
    </g>
</svg>
