<?xml version="1.0" encoding="UTF-8" standalone="no"?>
<!DOCTYPE svg PUBLIC "-//W3C//DTD SVG 1.1//EN" "http://www.w3.org/Graphics/SVG/1.1/DTD/svg11.dtd">
<svg width="100%" height="100%" viewBox="0 0 43 89" version="1.1" xmlns="http://www.w3.org/2000/svg" xmlns:xlink="http://www.w3.org/1999/xlink" xml:space="preserve" xmlns:serif="http://www.serif.com/" style="fill-rule:evenodd;clip-rule:evenodd;stroke-linejoin:round;stroke-miterlimit:2;">
    <g transform="matrix(1,0,0,1,-4020.45,-2011.27)">
        <g transform="matrix(1.41414,0,0,1.41429,-1534.59,-78.5653)">
            <path d="M3951.26,1534.3C3952.46,1536.42 3953.1,1537.97 3954.09,1540.1C3954.23,1540.45 3954.72,1540.59 3955.22,1540.59C3956.35,1540.59 3957.76,1539.95 3957.76,1539.03C3957.76,1538.82 3957.69,1538.61 3957.55,1538.4C3956,1535.99 3955.29,1534.72 3953.95,1532.39L3942.92,1512.94C3942.21,1511.6 3941.86,1510.54 3941.86,1509.48C3941.86,1508.49 3942.21,1507.43 3942.92,1506.08L3954.37,1485.79C3955.43,1483.95 3956.56,1482.4 3957.84,1480.35C3957.91,1480.21 3957.98,1480.13 3957.98,1479.99C3957.98,1479.07 3956.56,1477.66 3955.5,1477.66C3955.15,1477.66 3954.8,1477.8 3954.58,1478.3C3953.45,1480.84 3952.53,1482.4 3951.33,1484.52L3939.73,1504.95C3938.82,1506.65 3938.32,1508.13 3938.32,1509.55C3938.32,1510.96 3938.82,1512.38 3939.73,1514.07L3951.26,1534.3ZM3940.72,1534.3C3941.93,1536.49 3942.56,1537.97 3943.55,1540.1C3943.69,1540.45 3944.19,1540.59 3944.68,1540.59C3945.82,1540.59 3947.23,1539.95 3947.23,1539.03C3947.23,1538.82 3947.16,1538.61 3947.02,1538.4C3945.46,1535.99 3944.75,1534.79 3943.41,1532.39L3932.81,1512.94C3932.1,1511.6 3931.74,1510.54 3931.74,1509.48C3931.74,1508.49 3932.1,1507.43 3932.81,1506.08L3943.84,1485.79C3944.83,1483.95 3946.03,1482.4 3947.3,1480.35C3947.37,1480.21 3947.44,1480.13 3947.44,1479.99C3947.44,1479.07 3946.03,1477.66 3944.97,1477.66C3944.61,1477.66 3944.26,1477.8 3944.05,1478.3C3942.92,1480.84 3942,1482.26 3940.8,1484.52L3929.62,1504.95C3928.7,1506.65 3928.21,1508.13 3928.21,1509.55C3928.21,1510.96 3928.7,1512.38 3929.62,1514.07L3940.72,1534.3Z" style="fill-rule:nonzero;"/>
        </g>
    </g>
</svg>
