<?xml version="1.0" encoding="UTF-8" standalone="no"?>
<!DOCTYPE svg PUBLIC "-//W3C//DTD SVG 1.1//EN" "http://www.w3.org/Graphics/SVG/1.1/DTD/svg11.dtd">
<svg width="100%" height="100%" viewBox="0 0 69 90" version="1.1" xmlns="http://www.w3.org/2000/svg" xmlns:xlink="http://www.w3.org/1999/xlink" xml:space="preserve" xmlns:serif="http://www.serif.com/" style="fill-rule:evenodd;clip-rule:evenodd;stroke-linejoin:round;stroke-miterlimit:2;">
    <g transform="matrix(1,0,0,1,-1781.08,-5569.77)">
        <g transform="matrix(1,0,0,1,-504.034,-1124.47)">
            <path d="M2322.81,6735.34C2321.11,6731.94 2320.21,6731.24 2317.71,6730.24C2315.71,6729.44 2314.91,6727.74 2313.91,6725.74L2301.01,6699.74C2299.21,6696.24 2296.61,6694.24 2292.61,6694.24C2288.41,6694.24 2285.11,6697.94 2285.11,6703.94C2285.11,6709.34 2286.81,6718.64 2297.51,6718.64C2298.31,6718.64 2299.01,6718.64 2299.71,6718.54L2300.51,6718.54C2302.91,6718.54 2305.01,6719.74 2306.71,6722.34C2316.31,6736.94 2329.01,6760.14 2342.51,6782.94C2342.91,6783.74 2343.41,6784.04 2343.81,6784.04C2344.81,6784.04 2345.71,6782.24 2345.71,6780.74C2345.71,6780.34 2345.61,6779.94 2345.41,6779.54L2322.81,6735.34ZM2324.21,6734.94C2332.81,6720.44 2334.11,6718.54 2338.31,6718.54L2339.11,6718.54C2339.81,6718.64 2340.51,6718.64 2341.31,6718.64C2352.11,6718.64 2353.71,6709.34 2353.71,6703.94C2353.71,6697.94 2350.41,6694.24 2346.21,6694.24C2342.21,6694.24 2339.61,6696.24 2337.81,6699.74C2333.81,6707.74 2325.31,6724.94 2322.11,6731.24L2324.21,6734.94ZM2314.61,6738.04C2308.81,6749.54 2301.61,6763.64 2293.41,6779.54C2293.21,6779.94 2293.11,6780.34 2293.11,6780.74C2293.11,6782.24 2294.01,6784.04 2295.01,6784.04C2295.41,6784.04 2295.91,6783.74 2296.31,6782.94C2304.21,6769.74 2311.71,6756.44 2318.51,6744.64L2314.61,6738.04ZM2302.11,6711.64C2302.11,6713.74 2300.31,6715.04 2296.81,6715.04C2291.51,6715.04 2288.91,6709.24 2288.91,6703.84C2288.91,6700.24 2290.61,6697.74 2292.71,6697.74C2296.31,6697.74 2298.01,6701.34 2301.61,6709.44C2302.01,6710.24 2302.11,6710.94 2302.11,6711.64ZM2342.01,6715.04C2338.51,6715.04 2336.71,6713.74 2336.71,6711.64C2336.71,6710.54 2336.71,6710.54 2341.01,6701.54C2342.11,6699.24 2343.91,6697.74 2346.11,6697.74C2348.21,6697.74 2349.91,6700.24 2349.91,6703.84C2349.91,6709.24 2347.31,6715.04 2342.01,6715.04Z" style="fill-rule:nonzero;"/>
        </g>
    </g>
</svg>
