<?xml version="1.0" encoding="UTF-8" standalone="no"?>
<!DOCTYPE svg PUBLIC "-//W3C//DTD SVG 1.1//EN" "http://www.w3.org/Graphics/SVG/1.1/DTD/svg11.dtd">
<svg width="100%" height="100%" viewBox="0 0 69 88" version="1.1" xmlns="http://www.w3.org/2000/svg" xmlns:xlink="http://www.w3.org/1999/xlink" xml:space="preserve" xmlns:serif="http://www.serif.com/" style="fill-rule:evenodd;clip-rule:evenodd;stroke-linejoin:round;stroke-miterlimit:2;">
    <g transform="matrix(1,0,0,1,-4832.17,-3062.07)">
        <g transform="matrix(1.41414,0,0,1.41429,-1534.59,-78.5653)">
            <path d="M4537.21,2281.11C4537.21,2281.95 4538.06,2282.38 4538.84,2282.38C4539.68,2282.38 4540.46,2281.95 4540.46,2281.11L4540.46,2227.58C4543.01,2232.39 4545.91,2236.42 4547.53,2238.47C4547.74,2238.75 4548.1,2238.89 4548.45,2238.89C4549.37,2238.89 4550.5,2238.12 4550.5,2237.34C4550.5,2237.12 4550.43,2236.98 4550.29,2236.77C4549.51,2235.71 4548.38,2234.44 4547.89,2233.73C4545.41,2230.27 4542.3,2226.1 4540.25,2221.43C4540.04,2220.93 4539.4,2220.65 4538.84,2220.65C4538.27,2220.65 4537.63,2220.93 4537.42,2221.43C4535.3,2226.02 4532.26,2230.27 4529.78,2233.73C4529.29,2234.44 4528.16,2235.71 4527.38,2236.77C4527.24,2236.98 4527.17,2237.12 4527.17,2237.34C4527.17,2238.12 4528.3,2238.89 4529.22,2238.89C4529.57,2238.89 4529.93,2238.75 4530.14,2238.47C4531.76,2236.42 4534.66,2232.39 4537.21,2227.58L4537.21,2281.11ZM4512.25,2275.66C4509.7,2270.85 4506.81,2266.82 4505.18,2264.77C4504.97,2264.49 4504.61,2264.35 4504.26,2264.35C4503.34,2264.35 4502.21,2265.12 4502.21,2265.9C4502.21,2266.12 4502.28,2266.26 4502.42,2266.47C4503.2,2267.53 4504.33,2268.8 4504.82,2269.51C4507.3,2272.97 4510.41,2277.14 4512.46,2281.81C4512.67,2282.31 4513.31,2282.59 4513.88,2282.59C4514.44,2282.59 4515.08,2282.31 4515.29,2281.81C4517.41,2277.22 4520.45,2272.97 4522.93,2269.51C4523.42,2268.8 4524.55,2267.53 4525.33,2266.47C4525.47,2266.26 4525.54,2266.12 4525.54,2265.9C4525.54,2265.12 4524.41,2264.35 4523.49,2264.35C4523.14,2264.35 4522.78,2264.49 4522.57,2264.77C4520.95,2266.82 4518.05,2270.85 4515.5,2275.66L4515.5,2222.14C4515.5,2221.29 4514.65,2220.86 4513.88,2220.86C4513.03,2220.86 4512.25,2221.29 4512.25,2222.14L4512.25,2275.66Z" style="fill-rule:nonzero;"/>
        </g>
    </g>
</svg>
