<?xml version="1.0" encoding="UTF-8" standalone="no"?>
<!DOCTYPE svg PUBLIC "-//W3C//DTD SVG 1.1//EN" "http://www.w3.org/Graphics/SVG/1.1/DTD/svg11.dtd">
<svg width="100%" height="100%" viewBox="0 0 96 96" version="1.1" xmlns="http://www.w3.org/2000/svg" xmlns:xlink="http://www.w3.org/1999/xlink" xml:space="preserve" xmlns:serif="http://www.serif.com/" style="fill-rule:evenodd;clip-rule:evenodd;stroke-linejoin:round;stroke-miterlimit:2;">
    <g transform="matrix(1,0,0,1,-509.628,-2723.28)">
        <g transform="matrix(1,0,0,1,-110.019,-3591.86)">
            <path d="M715.248,6362.94C715.248,6336.55 693.848,6315.15 667.448,6315.15C641.048,6315.15 619.648,6336.55 619.648,6362.94C619.648,6389.35 641.048,6410.65 667.448,6410.65C693.848,6410.65 715.248,6389.35 715.248,6362.94ZM711.148,6362.94C711.148,6387.05 691.548,6406.55 667.448,6406.55C643.348,6406.55 623.748,6387.05 623.748,6362.94C623.748,6338.85 643.348,6319.24 667.448,6319.24C691.548,6319.24 711.148,6338.85 711.148,6362.94ZM686.748,6386.55C685.148,6386.65 682.348,6386.74 680.048,6386.74L655.248,6387.15L655.248,6363.15L673.048,6362.15C676.048,6362.05 680.348,6362.05 681.448,6362.05C682.048,6362.05 682.348,6361.55 682.348,6360.94C682.348,6359.65 681.148,6357.44 679.748,6357.44C678.748,6357.44 675.448,6357.94 672.948,6358.15L655.248,6359.15L655.248,6339.94L677.548,6338.55C679.048,6338.44 680.848,6338.44 682.448,6338.44L685.848,6338.44C686.448,6338.44 686.748,6337.94 686.748,6337.35C686.748,6336.05 685.548,6333.85 684.148,6333.85C683.148,6333.85 679.848,6334.35 677.448,6334.44L655.448,6335.94C655.448,6335.94 652.648,6334.85 651.248,6334.85C650.748,6334.85 650.448,6334.94 650.348,6335.15C650.248,6335.35 650.248,6335.55 650.248,6335.94C650.248,6336.35 650.248,6336.85 650.348,6337.74C650.548,6339.05 650.548,6340.74 650.548,6342.44L650.548,6359.24C649.948,6359.24 649.448,6359.15 649.048,6359.05L648.948,6359.05C648.448,6359.05 648.248,6359.35 648.248,6359.85C648.248,6360.85 649.348,6362.65 650.548,6363.24L650.548,6384.55C650.548,6385.85 649.948,6387.65 649.948,6388.35C649.948,6389.55 651.748,6391.94 653.248,6391.94C654.848,6391.94 655.848,6391.44 657.548,6391.44L680.148,6391.05C683.148,6391.05 687.448,6391.24 688.448,6391.35C689.048,6391.35 689.348,6390.85 689.348,6390.24C689.348,6388.74 688.248,6386.55 686.848,6386.55L686.748,6386.55Z" style="fill-rule:nonzero;"/>
        </g>
    </g>
</svg>
