<?xml version="1.0" encoding="UTF-8" standalone="no"?>
<!DOCTYPE svg PUBLIC "-//W3C//DTD SVG 1.1//EN" "http://www.w3.org/Graphics/SVG/1.1/DTD/svg11.dtd">
<svg width="100%" height="100%" viewBox="0 0 96 96" version="1.1" xmlns="http://www.w3.org/2000/svg" xmlns:xlink="http://www.w3.org/1999/xlink" xml:space="preserve" xmlns:serif="http://www.serif.com/" style="fill-rule:evenodd;clip-rule:evenodd;stroke-linejoin:round;stroke-miterlimit:2;">
    <g transform="matrix(1,0,0,1,-909.628,-3923.28)">
        <g transform="matrix(1,0,0,1,-110.019,-3591.86)">
            <path d="M1115.25,7562.94C1115.25,7536.55 1093.85,7515.15 1067.45,7515.15C1041.05,7515.15 1019.65,7536.55 1019.65,7562.94C1019.65,7589.35 1041.05,7610.65 1067.45,7610.65C1093.85,7610.65 1115.25,7589.35 1115.25,7562.94ZM1080.15,7592.55L1057.55,7592.94C1055.85,7592.94 1054.85,7593.44 1053.25,7593.44C1050.75,7593.44 1048.45,7590.15 1048.45,7588.35C1048.45,7587.74 1048.65,7586.94 1048.75,7586.35C1048.95,7585.65 1049.05,7585.05 1049.05,7584.55L1049.05,7564.05C1047.75,7562.94 1046.75,7561.15 1046.75,7559.85C1046.75,7558.85 1047.35,7557.55 1049.05,7557.55L1049.05,7542.44C1049.05,7540.85 1049.05,7539.15 1048.85,7537.94C1048.75,7536.94 1048.75,7536.35 1048.75,7535.85C1048.75,7535.35 1048.75,7534.94 1048.85,7534.74C1049.05,7534.05 1049.55,7533.74 1049.95,7533.65C1050.15,7533.55 1050.65,7533.35 1051.25,7533.35C1052.55,7533.35 1054.85,7534.15 1055.65,7534.44L1077.35,7532.94C1079.75,7532.74 1083.15,7532.35 1084.15,7532.35C1086.85,7532.35 1088.25,7535.85 1088.25,7537.35C1088.25,7538.35 1087.65,7539.94 1085.85,7539.94L1082.45,7539.94C1080.85,7539.94 1079.15,7539.94 1077.65,7540.05L1056.75,7541.35L1056.75,7557.55L1072.85,7556.65C1075.35,7556.55 1078.75,7555.94 1079.75,7555.94C1082.45,7555.94 1083.85,7559.44 1083.85,7560.94C1083.85,7561.94 1083.25,7563.55 1081.45,7563.55C1074.65,7563.55 1073.45,7563.65 1073.15,7563.65L1056.75,7564.55L1056.75,7585.65L1080.05,7585.24C1082.35,7585.24 1085.25,7585.05 1086.85,7585.05C1089.65,7585.05 1090.85,7588.65 1090.85,7590.24C1090.85,7591.24 1090.15,7592.85 1088.35,7592.85C1087.45,7592.74 1084.25,7592.55 1081.45,7592.55L1080.15,7592.55Z" style="fill-rule:nonzero;"/>
        </g>
    </g>
</svg>
