<?xml version="1.0" encoding="UTF-8" standalone="no"?>
<!DOCTYPE svg PUBLIC "-//W3C//DTD SVG 1.1//EN" "http://www.w3.org/Graphics/SVG/1.1/DTD/svg11.dtd">
<svg width="100%" height="100%" viewBox="0 0 89 89" version="1.1" xmlns="http://www.w3.org/2000/svg" xmlns:xlink="http://www.w3.org/1999/xlink" xml:space="preserve" xmlns:serif="http://www.serif.com/" style="fill-rule:evenodd;clip-rule:evenodd;stroke-linejoin:round;stroke-miterlimit:2;">
    <g transform="matrix(1,0,0,1,-1902.47,-2342.27)">
        <g transform="matrix(1.41414,0,0,1.41429,-1052.39,-837.704)">
            <path d="M2146.36,2310.83C2149.75,2310.83 2151.87,2308.29 2151.87,2305.32L2151.87,2253.98C2151.87,2250.52 2149.4,2248.47 2146.36,2248.47L2095.02,2248.47C2091.56,2248.47 2089.51,2250.8 2089.51,2253.98L2089.51,2305.32C2089.51,2308.5 2091.98,2310.83 2095.02,2310.83L2146.36,2310.83ZM2129.67,2300.65L2113.69,2300.93C2112.49,2300.93 2111.78,2301.29 2110.65,2301.29C2108.88,2301.29 2107.26,2298.95 2107.26,2297.68C2107.26,2297.26 2107.4,2296.69 2107.47,2296.27C2107.61,2295.77 2107.68,2295.35 2107.68,2294.99L2107.68,2280.5C2106.76,2279.72 2106.05,2278.45 2106.05,2277.53C2106.05,2276.82 2106.48,2275.9 2107.68,2275.9L2107.68,2265.23C2107.68,2264.1 2107.68,2262.89 2107.54,2262.05C2107.47,2261.34 2107.47,2260.91 2107.47,2260.56C2107.47,2260.21 2107.47,2259.92 2107.54,2259.78C2107.68,2259.29 2108.03,2259.08 2108.32,2259.01C2108.46,2258.93 2108.81,2258.79 2109.24,2258.79C2110.16,2258.79 2111.78,2259.36 2112.35,2259.57L2127.69,2258.51C2129.39,2258.37 2131.79,2258.09 2132.5,2258.09C2134.41,2258.09 2135.4,2260.56 2135.4,2261.62C2135.4,2262.33 2134.97,2263.46 2133.7,2263.46L2131.3,2263.46C2130.17,2263.46 2128.96,2263.46 2127.9,2263.53L2113.12,2264.45L2113.12,2275.9L2124.51,2275.27C2126.28,2275.2 2128.68,2274.77 2129.39,2274.77C2131.3,2274.77 2132.29,2277.25 2132.29,2278.31C2132.29,2279.01 2131.86,2280.15 2130.59,2280.15C2125.78,2280.15 2124.93,2280.22 2124.72,2280.22L2113.12,2280.85L2113.12,2295.77L2129.6,2295.49C2131.23,2295.49 2133.28,2295.35 2134.41,2295.35C2136.39,2295.35 2137.24,2297.89 2137.24,2299.03C2137.24,2299.73 2136.74,2300.86 2135.47,2300.86C2134.83,2300.79 2132.57,2300.65 2130.59,2300.65L2129.67,2300.65Z" style="fill-rule:nonzero;"/>
        </g>
    </g>
</svg>
