<?xml version="1.0" encoding="UTF-8" standalone="no"?>
<!DOCTYPE svg PUBLIC "-//W3C//DTD SVG 1.1//EN" "http://www.w3.org/Graphics/SVG/1.1/DTD/svg11.dtd">
<svg width="100%" height="100%" viewBox="0 0 89 89" version="1.1" xmlns="http://www.w3.org/2000/svg" xmlns:xlink="http://www.w3.org/1999/xlink" xml:space="preserve" xmlns:serif="http://www.serif.com/" style="fill-rule:evenodd;clip-rule:evenodd;stroke-linejoin:round;stroke-miterlimit:2;">
    <g transform="matrix(1,0,0,1,-558.739,-2371.63)">
        <g transform="matrix(1.41414,0,0,1.41429,-177.055,-770.755)">
            <path d="M582.675,2284.25L582.675,2221.89L520.312,2221.89L520.312,2284.25L582.675,2284.25ZM560.473,2274.07L544.493,2274.35C543.291,2274.35 542.584,2274.71 541.453,2274.71C539.685,2274.71 538.059,2272.38 538.059,2271.1C538.059,2270.68 538.2,2270.11 538.271,2269.69C538.413,2269.19 538.483,2268.77 538.483,2268.41L538.483,2253.92C537.564,2253.14 536.857,2251.87 536.857,2250.95C536.857,2250.24 537.281,2249.32 538.483,2249.32L538.483,2238.65C538.483,2237.52 538.483,2236.31 538.342,2235.47C538.271,2234.76 538.271,2234.33 538.271,2233.98C538.271,2233.63 538.271,2233.34 538.342,2233.2C538.483,2232.71 538.837,2232.5 539.12,2232.43C539.261,2232.35 539.615,2232.21 540.039,2232.21C540.958,2232.21 542.584,2232.78 543.15,2232.99L558.493,2231.93C560.19,2231.79 562.594,2231.51 563.301,2231.51C565.211,2231.51 566.2,2233.98 566.2,2235.04C566.2,2235.75 565.776,2236.88 564.503,2236.88L562.099,2236.88C560.968,2236.88 559.766,2236.88 558.705,2236.95L543.928,2237.87L543.928,2249.32L555.312,2248.69C557.079,2248.62 559.483,2248.19 560.19,2248.19C562.099,2248.19 563.089,2250.67 563.089,2251.73C563.089,2252.43 562.665,2253.57 561.392,2253.57C556.584,2253.57 555.736,2253.64 555.524,2253.64L543.928,2254.27L543.928,2269.19L560.402,2268.91C562.029,2268.91 564.079,2268.77 565.211,2268.77C567.19,2268.77 568.039,2271.31 568.039,2272.45C568.039,2273.15 567.544,2274.28 566.271,2274.28C565.635,2274.21 563.372,2274.07 561.392,2274.07L560.473,2274.07Z" style="fill-rule:nonzero;"/>
        </g>
    </g>
</svg>
