<?xml version="1.0" encoding="UTF-8" standalone="no"?>
<!DOCTYPE svg PUBLIC "-//W3C//DTD SVG 1.1//EN" "http://www.w3.org/Graphics/SVG/1.1/DTD/svg11.dtd">
<svg width="100%" height="100%" viewBox="0 0 98 90" version="1.1" xmlns="http://www.w3.org/2000/svg" xmlns:xlink="http://www.w3.org/1999/xlink" xml:space="preserve" xmlns:serif="http://www.serif.com/" style="fill-rule:evenodd;clip-rule:evenodd;stroke-linejoin:round;stroke-miterlimit:2;">
    <g transform="matrix(1,0,0,1,-5537.41,-2285.56)">
        <g transform="matrix(1,0,0,1,1,0)">
            <path d="M5615.1,2374.76C5617.4,2374.76 5634.1,2357.26 5634.1,2330.16C5634.1,2302.96 5617.4,2285.56 5615.1,2285.56C5614.4,2285.56 5613.9,2286.06 5613.9,2286.76C5613.9,2287.16 5614,2287.66 5614.4,2288.06C5624.2,2299.76 5628.8,2315.96 5628.8,2330.16C5628.8,2344.36 5624.2,2360.56 5614.4,2372.26C5614,2372.66 5613.9,2373.16 5613.9,2373.56C5613.9,2374.26 5614.4,2374.76 5615.1,2374.76ZM5604.6,2353.76C5603,2353.86 5600.2,2353.96 5597.9,2353.96L5573.1,2354.36L5573.1,2330.36L5590.9,2329.36C5593.9,2329.26 5598.2,2329.26 5599.3,2329.26C5599.9,2329.26 5600.2,2328.76 5600.2,2328.16C5600.2,2326.86 5599,2324.66 5597.6,2324.66C5596.6,2324.66 5593.3,2325.16 5590.8,2325.36L5573.1,2326.36L5573.1,2307.16L5595.4,2305.76C5596.9,2305.66 5598.7,2305.66 5600.3,2305.66L5603.7,2305.66C5604.3,2305.66 5604.6,2305.16 5604.6,2304.56C5604.6,2303.26 5603.4,2301.06 5602,2301.06C5601,2301.06 5597.7,2301.56 5595.3,2301.66L5573.3,2303.16C5573.3,2303.16 5570.5,2302.06 5569.1,2302.06C5568.6,2302.06 5568.3,2302.16 5568.2,2302.36C5568.1,2302.56 5568.1,2302.76 5568.1,2303.16C5568.1,2303.56 5568.1,2304.06 5568.2,2304.96C5568.4,2306.26 5568.4,2307.96 5568.4,2309.66L5568.4,2326.46C5567.8,2326.46 5567.3,2326.36 5566.9,2326.26L5566.8,2326.26C5566.3,2326.26 5566.1,2326.56 5566.1,2327.06C5566.1,2328.06 5567.2,2329.86 5568.4,2330.46L5568.4,2351.76C5568.4,2353.06 5567.8,2354.86 5567.8,2355.56C5567.8,2356.76 5569.6,2359.16 5571.1,2359.16C5572.7,2359.16 5573.7,2358.66 5575.4,2358.66L5598,2358.26C5601,2358.26 5605.3,2358.46 5606.3,2358.56C5606.9,2358.56 5607.2,2358.06 5607.2,2357.46C5607.2,2355.96 5606.1,2353.76 5604.7,2353.76L5604.6,2353.76ZM5556.61,2373.56C5556.61,2373.16 5556.51,2372.66 5556.11,2372.26C5546.31,2360.56 5541.71,2344.36 5541.71,2330.16C5541.71,2315.96 5546.31,2299.76 5556.11,2288.06C5556.51,2287.66 5556.61,2287.16 5556.61,2286.76C5556.61,2286.06 5556.11,2285.56 5555.4,2285.56C5553.11,2285.56 5536.41,2302.96 5536.41,2330.16C5536.41,2357.26 5553.11,2374.76 5555.4,2374.76C5556.11,2374.76 5556.61,2374.26 5556.61,2373.56Z" style="fill-rule:nonzero;"/>
        </g>
    </g>
</svg>
