<?xml version="1.0" encoding="UTF-8" standalone="no"?>
<!DOCTYPE svg PUBLIC "-//W3C//DTD SVG 1.1//EN" "http://www.w3.org/Graphics/SVG/1.1/DTD/svg11.dtd">
<svg width="100%" height="100%" viewBox="0 0 89 89" version="1.1" xmlns="http://www.w3.org/2000/svg" xmlns:xlink="http://www.w3.org/1999/xlink" xml:space="preserve" xmlns:serif="http://www.serif.com/" style="fill-rule:evenodd;clip-rule:evenodd;stroke-linejoin:round;stroke-miterlimit:2;">
    <g transform="matrix(1,0,0,1,-3193.31,-2331.51)">
        <g transform="matrix(1.41414,0,0,1.41429,-1389.33,-1046.26)">
            <path d="M3297.43,2450.69C3300.83,2450.69 3302.95,2448.14 3302.95,2445.17L3302.95,2393.84C3302.95,2390.38 3300.47,2388.32 3297.43,2388.32L3246.1,2388.32C3242.63,2388.32 3240.58,2390.66 3240.58,2393.84L3240.58,2445.17C3240.58,2448.35 3243.06,2450.69 3246.1,2450.69L3297.43,2450.69ZM3300.05,2445.45C3300.05,2447.01 3298.99,2447.79 3297.78,2447.79L3245.74,2447.79C3244.26,2447.79 3243.48,2446.73 3243.48,2445.45L3243.48,2393.49C3243.48,2392.07 3244.4,2391.22 3245.74,2391.22L3297.78,2391.22C3299.2,2391.22 3300.05,2392.28 3300.05,2393.49L3300.05,2445.45ZM3285.41,2436.26C3284.28,2436.33 3282.3,2436.41 3280.67,2436.41L3263.14,2436.69L3263.14,2419.72L3275.72,2419.01C3277.85,2418.94 3280.89,2418.94 3281.66,2418.94C3282.09,2418.94 3282.3,2418.59 3282.3,2418.16C3282.3,2417.24 3281.45,2415.69 3280.46,2415.69C3279.76,2415.69 3277.42,2416.04 3275.65,2416.18L3263.14,2416.89L3263.14,2403.31L3278.91,2402.32C3279.97,2402.25 3281.24,2402.25 3282.37,2402.25L3284.78,2402.25C3285.2,2402.25 3285.41,2401.9 3285.41,2401.48C3285.41,2400.56 3284.56,2399 3283.57,2399C3282.87,2399 3280.53,2399.35 3278.84,2399.43L3263.28,2400.49C3263.28,2400.49 3261.3,2399.71 3260.31,2399.71C3259.96,2399.71 3259.74,2399.78 3259.67,2399.92C3259.6,2400.06 3259.6,2400.2 3259.6,2400.49C3259.6,2400.77 3259.6,2401.12 3259.67,2401.76C3259.82,2402.68 3259.82,2403.88 3259.82,2405.08L3259.82,2416.96C3259.39,2416.96 3259.04,2416.89 3258.76,2416.82L3258.68,2416.82C3258.33,2416.82 3258.19,2417.03 3258.19,2417.39C3258.19,2418.09 3258.97,2419.36 3259.82,2419.79L3259.82,2434.85C3259.82,2435.77 3259.39,2437.04 3259.39,2437.54C3259.39,2438.39 3260.66,2440.08 3261.72,2440.08C3262.86,2440.08 3263.56,2439.73 3264.76,2439.73L3280.74,2439.45C3282.87,2439.45 3285.91,2439.59 3286.61,2439.66C3287.04,2439.66 3287.25,2439.3 3287.25,2438.88C3287.25,2437.82 3286.47,2436.26 3285.48,2436.26L3285.41,2436.26Z" style="fill-rule:nonzero;"/>
        </g>
    </g>
</svg>
