<?xml version="1.0" encoding="UTF-8" standalone="no"?>
<!DOCTYPE svg PUBLIC "-//W3C//DTD SVG 1.1//EN" "http://www.w3.org/Graphics/SVG/1.1/DTD/svg11.dtd">
<svg width="100%" height="100%" viewBox="0 0 89 89" version="1.1" xmlns="http://www.w3.org/2000/svg" xmlns:xlink="http://www.w3.org/1999/xlink" xml:space="preserve" xmlns:serif="http://www.serif.com/" style="fill-rule:evenodd;clip-rule:evenodd;stroke-linejoin:round;stroke-miterlimit:2;">
    <g transform="matrix(1,0,0,1,-2440.22,-1788.66)">
        <g transform="matrix(1,0,0,1,-1072.97,-2735.12)">
            <path d="M3601.38,4611.99L3601.38,4523.79L3513.18,4523.79L3513.18,4611.99L3601.38,4611.99ZM3597.28,4607.89L3517.28,4607.89L3517.28,4527.89L3597.28,4527.89L3597.28,4607.89ZM3576.58,4591.59C3574.98,4591.69 3572.18,4591.79 3569.88,4591.79L3545.08,4592.19L3545.08,4568.19L3562.88,4567.19C3565.88,4567.09 3570.18,4567.09 3571.28,4567.09C3571.88,4567.09 3572.18,4566.59 3572.18,4565.99C3572.18,4564.69 3570.98,4562.49 3569.58,4562.49C3568.58,4562.49 3565.28,4562.99 3562.78,4563.19L3545.08,4564.19L3545.08,4544.99L3567.38,4543.59C3568.88,4543.49 3570.68,4543.49 3572.28,4543.49L3575.68,4543.49C3576.28,4543.49 3576.58,4542.99 3576.58,4542.39C3576.58,4541.09 3575.38,4538.89 3573.98,4538.89C3572.98,4538.89 3569.68,4539.39 3567.28,4539.49L3545.28,4540.99C3545.28,4540.99 3542.48,4539.89 3541.08,4539.89C3540.58,4539.89 3540.28,4539.99 3540.18,4540.19C3540.08,4540.39 3540.08,4540.59 3540.08,4540.99C3540.08,4541.39 3540.08,4541.89 3540.18,4542.79C3540.38,4544.09 3540.38,4545.79 3540.38,4547.49L3540.38,4564.29C3539.78,4564.29 3539.28,4564.19 3538.88,4564.09L3538.78,4564.09C3538.28,4564.09 3538.08,4564.39 3538.08,4564.89C3538.08,4565.89 3539.18,4567.69 3540.38,4568.29L3540.38,4589.59C3540.38,4590.89 3539.78,4592.69 3539.78,4593.39C3539.78,4594.59 3541.58,4596.99 3543.08,4596.99C3544.68,4596.99 3545.68,4596.49 3547.38,4596.49L3569.98,4596.09C3572.98,4596.09 3577.28,4596.29 3578.28,4596.39C3578.88,4596.39 3579.18,4595.89 3579.18,4595.29C3579.18,4593.79 3578.08,4591.59 3576.68,4591.59L3576.58,4591.59Z" style="fill-rule:nonzero;"/>
        </g>
    </g>
</svg>
