<?xml version="1.0" encoding="UTF-8" standalone="no"?>
<!DOCTYPE svg PUBLIC "-//W3C//DTD SVG 1.1//EN" "http://www.w3.org/Graphics/SVG/1.1/DTD/svg11.dtd">
<svg width="100%" height="100%" viewBox="0 0 51 72" version="1.1" xmlns="http://www.w3.org/2000/svg" xmlns:xlink="http://www.w3.org/1999/xlink" xml:space="preserve" xmlns:serif="http://www.serif.com/" style="fill-rule:evenodd;clip-rule:evenodd;stroke-linejoin:round;stroke-miterlimit:2;">
    <g transform="matrix(1,0,0,1,-4443.21,-2472.77)">
        <g transform="matrix(1.41414,0,0,1.41429,-1534.59,-78.5653)">
            <path d="M4262.3,1854.17C4262.8,1854.17 4263.01,1853.75 4263.01,1853.18C4263.01,1851.98 4262.02,1850 4260.82,1850L4260.74,1850C4259.33,1850.07 4256.93,1850.22 4254.88,1850.22L4233.24,1850.57L4233.24,1829.57L4248.8,1828.72C4250.14,1828.65 4251.69,1828.65 4253.11,1828.65L4256.08,1828.65C4256.64,1828.65 4256.86,1828.23 4256.86,1827.66C4256.86,1826.53 4255.8,1824.62 4254.59,1824.62C4253.74,1824.62 4250.85,1825.04 4248.72,1825.18L4233.24,1826.11L4233.24,1809.35L4252.68,1808.07C4254.03,1808 4255.58,1808 4257,1808L4259.97,1808C4260.53,1808 4260.74,1807.58 4260.74,1807.01C4260.74,1805.88 4259.68,1803.97 4258.48,1803.97C4257.63,1803.97 4254.73,1804.4 4252.61,1804.54L4233.38,1805.81C4233.38,1805.81 4230.98,1804.82 4229.7,1804.82C4229.07,1804.82 4228.86,1805.03 4228.86,1805.81C4228.86,1806.16 4228.93,1806.66 4229,1807.44C4229.14,1808.57 4229.14,1809.98 4229.14,1811.47L4229.14,1826.17C4228.64,1826.17 4228.22,1826.11 4227.8,1826.03L4227.65,1826.03C4227.3,1826.03 4227.16,1826.25 4227.16,1826.6C4227.16,1827.52 4228.08,1829.07 4229.14,1829.64L4229.14,1848.24C4229.14,1849.37 4228.64,1850.92 4228.64,1851.56C4228.64,1852.62 4230.2,1854.74 4231.47,1854.74C4232.89,1854.74 4233.81,1854.25 4235.29,1854.25L4254.95,1853.96L4256.08,1853.96C4258.55,1853.96 4261.45,1854.11 4262.23,1854.17L4262.3,1854.17Z" style="fill-rule:nonzero;"/>
        </g>
    </g>
</svg>
