<?xml version="1.0" encoding="UTF-8" standalone="no"?>
<!DOCTYPE svg PUBLIC "-//W3C//DTD SVG 1.1//EN" "http://www.w3.org/Graphics/SVG/1.1/DTD/svg11.dtd">
<svg width="100%" height="100%" viewBox="0 0 55 72" version="1.1" xmlns="http://www.w3.org/2000/svg" xmlns:xlink="http://www.w3.org/1999/xlink" xml:space="preserve" xmlns:serif="http://www.serif.com/" style="fill-rule:evenodd;clip-rule:evenodd;stroke-linejoin:round;stroke-miterlimit:2;">
    <g transform="matrix(1,0,0,1,-4637.39,-2473.27)">
        <g transform="matrix(1.41414,0,0,1.41429,-1534.59,-78.5653)">
            <path d="M4398.76,1846.61C4398.76,1849.08 4398.62,1851.77 4398.62,1852.9C4398.62,1854.11 4400.53,1854.88 4401.88,1854.88C4402.58,1854.88 4403.08,1854.67 4403.08,1854.17C4403.08,1852.55 4402.86,1849.58 4402.86,1846.68L4402.86,1812.6C4402.86,1810.12 4403.01,1807.44 4403.01,1806.31C4403.01,1805.11 4401.1,1804.33 4399.75,1804.33C4399.05,1804.33 4398.55,1804.54 4398.55,1805.03C4398.55,1806.66 4398.76,1809.63 4398.76,1812.53L4398.76,1825.89C4398.34,1825.04 4397.78,1824.34 4397.07,1824.34L4396.86,1824.34C4395.72,1824.55 4393.18,1824.76 4390.99,1824.9L4372.53,1825.96L4371.47,1825.96L4371.47,1812.6C4371.47,1810.12 4371.61,1807.44 4371.61,1806.31C4371.61,1805.11 4369.7,1804.33 4368.36,1804.33C4367.65,1804.33 4367.16,1804.54 4367.16,1805.03C4367.16,1806.66 4367.37,1809.63 4367.37,1812.53L4367.37,1825.96C4366.38,1825.96 4365.6,1825.89 4365.25,1825.89L4365.18,1825.89C4364.68,1825.89 4364.47,1826.32 4364.47,1826.88C4364.47,1828.08 4365.46,1830.06 4366.66,1830.06L4366.73,1830.06C4366.88,1830.06 4367.16,1829.99 4367.37,1829.99L4367.37,1846.68C4367.37,1849.15 4367.23,1851.84 4367.23,1852.97C4367.23,1854.17 4369.14,1854.95 4370.48,1854.95C4371.19,1854.95 4371.68,1854.74 4371.68,1854.25C4371.68,1852.62 4371.47,1849.65 4371.47,1846.75L4371.47,1829.5C4371.82,1829.5 4372.25,1829.43 4372.6,1829.43L4391.06,1828.37C4391.55,1828.37 4392.12,1828.3 4392.68,1828.3C4394.95,1828.3 4397.35,1828.51 4398.34,1828.51C4398.48,1828.51 4398.62,1828.44 4398.76,1828.37L4398.76,1846.61Z" style="fill-rule:nonzero;"/>
        </g>
    </g>
</svg>
