<?xml version="1.0" encoding="UTF-8" standalone="no"?>
<!DOCTYPE svg PUBLIC "-//W3C//DTD SVG 1.1//EN" "http://www.w3.org/Graphics/SVG/1.1/DTD/svg11.dtd">
<svg width="100%" height="100%" viewBox="0 0 96 96" version="1.1" xmlns="http://www.w3.org/2000/svg" xmlns:xlink="http://www.w3.org/1999/xlink" xml:space="preserve" xmlns:serif="http://www.serif.com/" style="fill-rule:evenodd;clip-rule:evenodd;stroke-linejoin:round;stroke-miterlimit:2;">
    <g transform="matrix(1,0,0,1,-609.628,-2723.28)">
        <g transform="matrix(1,0,0,1,-110.019,-3591.86)">
            <path d="M815.248,6362.94C815.248,6336.55 793.848,6315.15 767.448,6315.15C741.048,6315.15 719.648,6336.55 719.648,6362.94C719.648,6389.35 741.048,6410.65 767.448,6410.65C793.848,6410.65 815.248,6389.35 815.248,6362.94ZM811.148,6362.94C811.148,6387.05 791.548,6406.55 767.448,6406.55C743.348,6406.55 723.748,6387.05 723.748,6362.94C723.748,6338.85 743.348,6319.24 767.448,6319.24C791.548,6319.24 811.148,6338.85 811.148,6362.94ZM783.748,6361.94C784.348,6361.94 784.648,6361.44 784.648,6360.85C784.648,6359.55 783.448,6357.35 782.048,6357.35C781.048,6357.35 777.748,6357.85 775.248,6357.94L757.548,6359.05L757.548,6339.85L779.848,6338.35L788.148,6338.35C788.748,6338.35 789.048,6337.85 789.048,6337.24C789.048,6335.85 787.848,6333.65 786.448,6333.65C785.448,6333.65 782.148,6334.15 779.748,6334.35L757.748,6335.85C757.748,6335.85 754.848,6334.65 753.448,6334.65C753.148,6334.65 752.548,6334.74 752.548,6335.85C752.548,6336.15 752.548,6336.74 752.648,6337.65C752.848,6338.94 752.848,6340.55 752.848,6342.24L752.848,6359.15C752.248,6359.15 751.748,6359.05 751.348,6358.94L751.248,6358.94C750.748,6358.94 750.548,6359.24 750.548,6359.74C750.548,6360.74 751.648,6362.55 752.848,6363.15L752.848,6382.44C752.848,6384.44 752.648,6388.35 752.648,6389.65C752.648,6390.94 754.948,6391.94 756.448,6391.94C757.148,6391.94 757.748,6391.65 757.748,6391.15C757.748,6389.24 757.548,6384.55 757.548,6382.55L757.548,6363.05L775.348,6362.05C776.848,6361.94 778.648,6361.94 780.248,6361.94L783.748,6361.94Z" style="fill-rule:nonzero;"/>
        </g>
    </g>
</svg>
