<?xml version="1.0" encoding="UTF-8" standalone="no"?>
<!DOCTYPE svg PUBLIC "-//W3C//DTD SVG 1.1//EN" "http://www.w3.org/Graphics/SVG/1.1/DTD/svg11.dtd">
<svg width="100%" height="100%" viewBox="0 0 89 89" version="1.1" xmlns="http://www.w3.org/2000/svg" xmlns:xlink="http://www.w3.org/1999/xlink" xml:space="preserve" xmlns:serif="http://www.serif.com/" style="fill-rule:evenodd;clip-rule:evenodd;stroke-linejoin:round;stroke-miterlimit:2;">
    <g transform="matrix(1,0,0,1,-658.729,-2371.63)">
        <g transform="matrix(1.41414,0,0,1.41429,-177.055,-770.755)">
            <path d="M653.382,2284.25L653.382,2221.89L591.019,2221.89L591.019,2284.25L653.382,2284.25ZM631.251,2253.5C630.12,2253.5 628.918,2253.5 627.857,2253.57L616.261,2254.2L616.261,2267C616.261,2268.41 616.402,2271.74 616.402,2273.08C616.402,2274.5 614.918,2274.71 614.423,2274.71C612.867,2274.71 610.675,2273.36 610.675,2272.02C610.675,2271.1 610.817,2268.34 610.817,2266.93L610.817,2253.85C609.897,2253.07 609.19,2251.8 609.19,2250.88C609.19,2250.17 609.615,2249.25 610.746,2249.25C610.746,2249.25 610.746,2249.39 610.817,2249.39L610.817,2238.51C610.817,2237.38 610.817,2236.24 610.675,2235.39C610.604,2234.76 610.534,2234.33 610.534,2233.91C610.534,2232.14 611.948,2232.07 612.301,2232.07C613.221,2232.07 614.847,2232.64 615.483,2232.92L630.827,2231.86C632.524,2231.72 634.928,2231.36 635.635,2231.36C637.544,2231.36 638.534,2233.84 638.534,2234.97C638.534,2235.68 638.11,2236.81 636.837,2236.81L631.039,2236.81L616.261,2237.8L616.261,2249.25L627.645,2248.55C629.413,2248.41 631.817,2248.12 632.524,2248.12C634.433,2248.12 635.423,2250.6 635.423,2251.66C635.423,2252.36 634.998,2253.5 633.726,2253.5L631.251,2253.5Z" style="fill-rule:nonzero;"/>
        </g>
    </g>
</svg>
