<?xml version="1.0" encoding="UTF-8" standalone="no"?>
<!DOCTYPE svg PUBLIC "-//W3C//DTD SVG 1.1//EN" "http://www.w3.org/Graphics/SVG/1.1/DTD/svg11.dtd">
<svg width="100%" height="100%" viewBox="0 0 96 96" version="1.1" xmlns="http://www.w3.org/2000/svg" xmlns:xlink="http://www.w3.org/1999/xlink" xml:space="preserve" xmlns:serif="http://www.serif.com/" style="fill-rule:evenodd;clip-rule:evenodd;stroke-linejoin:round;stroke-miterlimit:2;">
    <g transform="matrix(1,0,0,1,-1009.63,-3923.28)">
        <g transform="matrix(1,0,0,1,-110.019,-3591.86)">
            <path d="M1215.25,7562.94C1215.25,7536.55 1193.85,7515.15 1167.45,7515.15C1141.05,7515.15 1119.65,7536.55 1119.65,7562.94C1119.65,7589.35 1141.05,7610.65 1167.45,7610.65C1193.85,7610.65 1215.25,7589.35 1215.25,7562.94ZM1180.25,7563.44C1178.65,7563.44 1176.95,7563.44 1175.45,7563.55L1159.05,7564.44L1159.05,7582.55C1159.05,7584.55 1159.25,7589.24 1159.25,7591.15C1159.25,7593.15 1157.15,7593.44 1156.45,7593.44C1154.25,7593.44 1151.15,7591.55 1151.15,7589.65C1151.15,7588.35 1151.35,7584.44 1151.35,7582.44L1151.35,7563.94C1150.05,7562.85 1149.05,7561.05 1149.05,7559.74C1149.05,7558.74 1149.65,7557.44 1151.25,7557.44C1151.25,7557.44 1151.25,7557.65 1151.35,7557.65L1151.35,7542.24C1151.35,7540.65 1151.35,7539.05 1151.15,7537.85C1151.05,7536.94 1150.95,7536.35 1150.95,7535.74C1150.95,7533.24 1152.95,7533.15 1153.45,7533.15C1154.75,7533.15 1157.05,7533.94 1157.95,7534.35L1179.65,7532.85C1182.05,7532.65 1185.45,7532.15 1186.45,7532.15C1189.15,7532.15 1190.55,7535.65 1190.55,7537.24C1190.55,7538.24 1189.95,7539.85 1188.15,7539.85L1179.95,7539.85L1159.05,7541.24L1159.05,7557.44L1175.15,7556.44C1177.65,7556.24 1181.05,7555.85 1182.05,7555.85C1184.75,7555.85 1186.15,7559.35 1186.15,7560.85C1186.15,7561.85 1185.55,7563.44 1183.75,7563.44L1180.25,7563.44Z" style="fill-rule:nonzero;"/>
        </g>
    </g>
</svg>
