<?xml version="1.0" encoding="UTF-8" standalone="no"?>
<!DOCTYPE svg PUBLIC "-//W3C//DTD SVG 1.1//EN" "http://www.w3.org/Graphics/SVG/1.1/DTD/svg11.dtd">
<svg width="100%" height="100%" viewBox="0 0 89 89" version="1.1" xmlns="http://www.w3.org/2000/svg" xmlns:xlink="http://www.w3.org/1999/xlink" xml:space="preserve" xmlns:serif="http://www.serif.com/" style="fill-rule:evenodd;clip-rule:evenodd;stroke-linejoin:round;stroke-miterlimit:2;">
    <g transform="matrix(1,0,0,1,-2002.46,-2342.27)">
        <g transform="matrix(1.41414,0,0,1.41429,-1052.39,-837.704)">
            <path d="M2217.07,2310.83C2220.46,2310.83 2222.58,2308.29 2222.58,2305.32L2222.58,2253.98C2222.58,2250.52 2220.11,2248.47 2217.07,2248.47L2165.73,2248.47C2162.27,2248.47 2160.22,2250.8 2160.22,2253.98L2160.22,2305.32C2160.22,2308.5 2162.69,2310.83 2165.73,2310.83L2217.07,2310.83ZM2200.45,2280.08C2199.32,2280.08 2198.12,2280.08 2197.05,2280.15L2185.46,2280.78L2185.46,2293.58C2185.46,2294.99 2185.6,2298.32 2185.6,2299.66C2185.6,2301.08 2184.12,2301.29 2183.62,2301.29C2182.07,2301.29 2179.87,2299.94 2179.87,2298.6C2179.87,2297.68 2180.01,2294.92 2180.01,2293.51L2180.01,2280.43C2179.1,2279.65 2178.39,2278.38 2178.39,2277.46C2178.39,2276.75 2178.81,2275.83 2179.94,2275.83C2179.94,2275.83 2179.94,2275.97 2180.01,2275.97L2180.01,2265.09C2180.01,2263.95 2180.01,2262.82 2179.87,2261.97C2179.8,2261.34 2179.73,2260.91 2179.73,2260.49C2179.73,2258.72 2181.14,2258.65 2181.5,2258.65C2182.42,2258.65 2184.04,2259.22 2184.68,2259.5L2200.02,2258.44C2201.72,2258.3 2204.12,2257.94 2204.83,2257.94C2206.74,2257.94 2207.73,2260.42 2207.73,2261.55C2207.73,2262.26 2207.31,2263.39 2206.03,2263.39L2200.24,2263.39L2185.46,2264.38L2185.46,2275.83L2196.84,2275.13C2198.61,2274.98 2201.01,2274.7 2201.72,2274.7C2203.63,2274.7 2204.62,2277.18 2204.62,2278.24C2204.62,2278.94 2204.2,2280.08 2202.92,2280.08L2200.45,2280.08Z" style="fill-rule:nonzero;"/>
        </g>
    </g>
</svg>
