<?xml version="1.0" encoding="UTF-8" standalone="no"?>
<!DOCTYPE svg PUBLIC "-//W3C//DTD SVG 1.1//EN" "http://www.w3.org/Graphics/SVG/1.1/DTD/svg11.dtd">
<svg width="100%" height="100%" viewBox="0 0 98 90" version="1.1" xmlns="http://www.w3.org/2000/svg" xmlns:xlink="http://www.w3.org/1999/xlink" xml:space="preserve" xmlns:serif="http://www.serif.com/" style="fill-rule:evenodd;clip-rule:evenodd;stroke-linejoin:round;stroke-miterlimit:2;">
    <g transform="matrix(1,0,0,1,-5637.4,-2285.56)">
        <g transform="matrix(1,0,0,1,1,0)">
            <path d="M5701.59,2329.16C5702.19,2329.16 5702.49,2328.66 5702.49,2328.06C5702.49,2326.76 5701.29,2324.56 5699.89,2324.56C5698.89,2324.56 5695.59,2325.06 5693.09,2325.16L5675.39,2326.26L5675.39,2307.06L5697.69,2305.56L5705.99,2305.56C5706.59,2305.56 5706.89,2305.06 5706.89,2304.46C5706.89,2303.06 5705.69,2300.86 5704.29,2300.86C5703.29,2300.86 5699.99,2301.36 5697.59,2301.56L5675.59,2303.06C5675.59,2303.06 5672.69,2301.86 5671.29,2301.86C5670.99,2301.86 5670.39,2301.96 5670.39,2303.06C5670.39,2303.36 5670.39,2303.96 5670.49,2304.86C5670.69,2306.16 5670.69,2307.76 5670.69,2309.46L5670.69,2326.36C5670.09,2326.36 5669.59,2326.26 5669.19,2326.16L5669.09,2326.16C5668.59,2326.16 5668.39,2326.46 5668.39,2326.96C5668.39,2327.96 5669.49,2329.76 5670.69,2330.36L5670.69,2349.66C5670.69,2351.66 5670.49,2355.56 5670.49,2356.86C5670.49,2358.16 5672.79,2359.16 5674.29,2359.16C5674.99,2359.16 5675.59,2358.86 5675.59,2358.36C5675.59,2356.46 5675.39,2351.76 5675.39,2349.76L5675.39,2330.26L5693.19,2329.26C5694.69,2329.16 5696.49,2329.16 5698.09,2329.16L5701.59,2329.16ZM5715.09,2374.76C5717.39,2374.76 5734.09,2357.26 5734.09,2330.16C5734.09,2302.96 5717.39,2285.56 5715.09,2285.56C5714.39,2285.56 5713.89,2286.06 5713.89,2286.76C5713.89,2287.16 5713.99,2287.66 5714.39,2288.06C5724.19,2299.76 5728.79,2315.96 5728.79,2330.16C5728.79,2344.36 5724.19,2360.56 5714.39,2372.26C5713.99,2372.66 5713.89,2373.16 5713.89,2373.56C5713.89,2374.26 5714.39,2374.76 5715.09,2374.76ZM5656.6,2373.56C5656.6,2373.16 5656.49,2372.66 5656.1,2372.26C5646.3,2360.56 5641.7,2344.36 5641.7,2330.16C5641.7,2315.96 5646.3,2299.76 5656.1,2288.06C5656.49,2287.66 5656.6,2287.16 5656.6,2286.76C5656.6,2286.06 5656.1,2285.56 5655.4,2285.56C5653.1,2285.56 5636.4,2302.96 5636.4,2330.16C5636.4,2357.26 5653.1,2374.76 5655.4,2374.76C5656.1,2374.76 5656.6,2374.26 5656.6,2373.56Z" style="fill-rule:nonzero;"/>
        </g>
    </g>
</svg>
