<?xml version="1.0" encoding="UTF-8" standalone="no"?>
<!DOCTYPE svg PUBLIC "-//W3C//DTD SVG 1.1//EN" "http://www.w3.org/Graphics/SVG/1.1/DTD/svg11.dtd">
<svg width="100%" height="100%" viewBox="0 0 89 89" version="1.1" xmlns="http://www.w3.org/2000/svg" xmlns:xlink="http://www.w3.org/1999/xlink" xml:space="preserve" xmlns:serif="http://www.serif.com/" style="fill-rule:evenodd;clip-rule:evenodd;stroke-linejoin:round;stroke-miterlimit:2;">
    <g transform="matrix(1,0,0,1,-2540.22,-1788.66)">
        <g transform="matrix(1,0,0,1,-1072.97,-2735.12)">
            <path d="M3701.38,4611.99L3701.38,4523.79L3613.18,4523.79L3613.18,4611.99L3701.38,4611.99ZM3697.28,4607.89L3617.28,4607.89L3617.28,4527.89L3697.28,4527.89L3697.28,4607.89ZM3673.58,4566.99C3674.18,4566.99 3674.48,4566.49 3674.48,4565.89C3674.48,4564.59 3673.28,4562.39 3671.88,4562.39C3670.88,4562.39 3667.58,4562.89 3665.08,4562.99L3647.38,4564.09L3647.38,4544.89L3669.68,4543.39L3677.98,4543.39C3678.58,4543.39 3678.88,4542.89 3678.88,4542.29C3678.88,4540.89 3677.68,4538.69 3676.28,4538.69C3675.28,4538.69 3671.98,4539.19 3669.58,4539.39L3647.58,4540.89C3647.58,4540.89 3644.68,4539.69 3643.28,4539.69C3642.98,4539.69 3642.38,4539.79 3642.38,4540.89C3642.38,4541.19 3642.38,4541.79 3642.48,4542.69C3642.68,4543.99 3642.68,4545.59 3642.68,4547.29L3642.68,4564.19C3642.08,4564.19 3641.58,4564.09 3641.18,4563.99L3641.08,4563.99C3640.58,4563.99 3640.38,4564.29 3640.38,4564.79C3640.38,4565.79 3641.48,4567.59 3642.68,4568.19L3642.68,4587.49C3642.68,4589.49 3642.48,4593.39 3642.48,4594.69C3642.48,4595.99 3644.78,4596.99 3646.28,4596.99C3646.98,4596.99 3647.58,4596.69 3647.58,4596.19C3647.58,4594.29 3647.38,4589.59 3647.38,4587.59L3647.38,4568.09L3665.18,4567.09C3666.68,4566.99 3668.48,4566.99 3670.08,4566.99L3673.58,4566.99Z" style="fill-rule:nonzero;"/>
        </g>
    </g>
</svg>
