<?xml version="1.0" encoding="UTF-8" standalone="no"?>
<!DOCTYPE svg PUBLIC "-//W3C//DTD SVG 1.1//EN" "http://www.w3.org/Graphics/SVG/1.1/DTD/svg11.dtd">
<svg width="100%" height="100%" viewBox="0 0 89 89" version="1.1" xmlns="http://www.w3.org/2000/svg" xmlns:xlink="http://www.w3.org/1999/xlink" xml:space="preserve" xmlns:serif="http://www.serif.com/" style="fill-rule:evenodd;clip-rule:evenodd;stroke-linejoin:round;stroke-miterlimit:2;">
    <g transform="matrix(1,0,0,1,-3293.3,-2331.51)">
        <g transform="matrix(1.41414,0,0,1.41429,-1389.33,-1046.26)">
            <path d="M3368.14,2450.69C3371.53,2450.69 3373.65,2448.14 3373.65,2445.17L3373.65,2393.84C3373.65,2390.38 3371.18,2388.32 3368.14,2388.32L3316.81,2388.32C3313.34,2388.32 3311.29,2390.66 3311.29,2393.84L3311.29,2445.17C3311.29,2448.35 3313.76,2450.69 3316.81,2450.69L3368.14,2450.69ZM3370.76,2445.45C3370.76,2447.01 3369.69,2447.79 3368.49,2447.79L3316.45,2447.79C3314.97,2447.79 3314.19,2446.73 3314.19,2445.45L3314.19,2393.49C3314.19,2392.07 3315.11,2391.22 3316.45,2391.22L3368.49,2391.22C3369.91,2391.22 3370.76,2392.28 3370.76,2393.49L3370.76,2445.45ZM3354,2418.87C3354.42,2418.87 3354.63,2418.52 3354.63,2418.09C3354.63,2417.17 3353.78,2415.62 3352.8,2415.62C3352.09,2415.62 3349.76,2415.97 3347.99,2416.04L3335.47,2416.82L3335.47,2403.24L3351.24,2402.18L3357.11,2402.18C3357.53,2402.18 3357.74,2401.83 3357.74,2401.41C3357.74,2400.41 3356.9,2398.86 3355.91,2398.86C3355.2,2398.86 3352.87,2399.21 3351.17,2399.35L3335.61,2400.41C3335.61,2400.41 3333.56,2399.57 3332.57,2399.57C3332.36,2399.57 3331.94,2399.64 3331.94,2400.41C3331.94,2400.63 3331.94,2401.05 3332.01,2401.69C3332.15,2402.61 3332.15,2403.74 3332.15,2404.94L3332.15,2416.89C3331.72,2416.89 3331.37,2416.82 3331.09,2416.75L3331.02,2416.75C3330.66,2416.75 3330.52,2416.96 3330.52,2417.31C3330.52,2418.02 3331.3,2419.29 3332.15,2419.72L3332.15,2433.36C3332.15,2434.78 3332.01,2437.54 3332.01,2438.45C3332.01,2439.38 3333.63,2440.08 3334.69,2440.08C3335.19,2440.08 3335.61,2439.87 3335.61,2439.52C3335.61,2438.17 3335.47,2434.85 3335.47,2433.43L3335.47,2419.65L3348.06,2418.94C3349.12,2418.87 3350.39,2418.87 3351.52,2418.87L3354,2418.87Z" style="fill-rule:nonzero;"/>
        </g>
    </g>
</svg>
