<?xml version="1.0" encoding="UTF-8" standalone="no"?>
<!DOCTYPE svg PUBLIC "-//W3C//DTD SVG 1.1//EN" "http://www.w3.org/Graphics/SVG/1.1/DTD/svg11.dtd">
<svg width="100%" height="100%" viewBox="0 0 45 91" version="1.1" xmlns="http://www.w3.org/2000/svg" xmlns:xlink="http://www.w3.org/1999/xlink" xml:space="preserve" xmlns:serif="http://www.serif.com/" style="fill-rule:evenodd;clip-rule:evenodd;stroke-linejoin:round;stroke-miterlimit:2;">
    <g transform="matrix(1,0,0,1,-4604.69,-1721.37)">
        <g transform="matrix(1.41414,0,0,1.41429,-1534.59,-78.5653)">
            <path d="M4369.78,1292.83C4367.8,1292.97 4366.24,1293.04 4364.75,1293.04L4360.09,1293.04C4361.08,1280.25 4362.56,1276.5 4365.46,1276.5C4367.3,1276.5 4369,1277.21 4371.05,1280.25C4371.26,1280.53 4371.47,1280.67 4371.68,1280.67C4372.39,1280.67 4373.1,1279.26 4373.1,1277.91C4373.1,1275.72 4369.28,1272.68 4365.32,1272.68C4360.23,1272.68 4357.33,1277.77 4356.13,1293.04L4352.81,1293.04C4350.54,1293.04 4348.42,1292.97 4347.01,1292.9C4346.23,1292.9 4345.95,1293.54 4345.95,1294.39C4345.95,1295.45 4346.44,1296.65 4347.22,1296.65L4347.36,1296.65C4348.49,1296.51 4351.04,1296.44 4352.73,1296.44L4355.92,1296.44C4355.28,1304.57 4354.64,1314.82 4353.94,1321.26C4352.88,1331.08 4351.11,1332.99 4348.99,1332.99C4347.15,1332.99 4345.45,1332.29 4343.4,1329.25C4343.19,1328.96 4342.98,1328.82 4342.76,1328.82C4342.06,1328.82 4341.35,1330.24 4341.35,1331.58C4341.35,1333.77 4345.17,1336.81 4349.13,1336.81C4353.72,1336.81 4356.55,1332.5 4357.82,1321.18C4358.53,1314.4 4359.24,1304.36 4359.81,1296.44L4364.68,1296.44C4366.17,1296.44 4368.22,1296.58 4370.41,1296.58C4371.12,1296.58 4371.4,1295.94 4371.4,1295.24C4371.4,1294.17 4370.76,1292.83 4369.85,1292.83L4369.78,1292.83Z" style="fill-rule:nonzero;"/>
        </g>
    </g>
</svg>
