<?xml version="1.0" encoding="UTF-8" standalone="no"?>
<!DOCTYPE svg PUBLIC "-//W3C//DTD SVG 1.1//EN" "http://www.w3.org/Graphics/SVG/1.1/DTD/svg11.dtd">
<svg width="100%" height="100%" viewBox="0 0 96 96" version="1.1" xmlns="http://www.w3.org/2000/svg" xmlns:xlink="http://www.w3.org/1999/xlink" xml:space="preserve" xmlns:serif="http://www.serif.com/" style="fill-rule:evenodd;clip-rule:evenodd;stroke-linejoin:round;stroke-miterlimit:2;">
    <g transform="matrix(1,0,0,1,-709.628,-2723.28)">
        <g transform="matrix(1,0,0,1,-110.019,-3591.86)">
            <path d="M915.248,6362.94C915.248,6336.55 893.848,6315.15 867.448,6315.15C841.048,6315.15 819.648,6336.55 819.648,6362.94C819.648,6389.35 841.048,6410.65 867.448,6410.65C893.848,6410.65 915.248,6389.35 915.248,6362.94ZM911.148,6362.94C911.148,6387.05 891.548,6406.55 867.448,6406.55C843.348,6406.55 823.748,6387.05 823.748,6362.94C823.748,6338.85 843.348,6319.24 867.448,6319.24C891.548,6319.24 911.148,6338.85 911.148,6362.94ZM886.948,6389.85C886.948,6390.74 888.748,6391.55 890.248,6391.55C891.148,6391.55 891.848,6391.24 891.848,6390.55C891.848,6389.05 891.648,6384.55 891.648,6383.35L891.648,6366.65C891.648,6365.55 892.048,6365.24 892.048,6364.55C892.048,6363.35 889.548,6361.15 888.548,6361.15C887.548,6361.15 886.548,6361.44 885.648,6361.55L875.648,6362.05C874.248,6362.15 871.748,6362.24 869.948,6362.24L868.848,6362.24C868.148,6362.24 867.948,6362.65 867.948,6363.15C867.948,6364.55 869.348,6366.74 870.848,6366.74L871.048,6366.74C872.748,6366.55 875.348,6366.24 877.148,6366.15L886.848,6365.44C887.248,6365.44 887.248,6365.65 887.248,6365.85C887.248,6380.15 876.548,6388.05 866.848,6388.05C854.448,6388.05 846.148,6382.35 846.148,6367.24C846.148,6351.24 856.848,6337.74 869.848,6337.74C871.348,6337.74 880.248,6337.74 884.248,6343.85C884.548,6344.35 884.948,6344.55 885.348,6344.55C886.648,6344.55 888.148,6342.74 888.148,6341.24C888.148,6340.94 888.048,6340.65 887.848,6340.35C882.948,6334.05 873.848,6333.55 869.848,6333.55C853.348,6333.55 841.448,6349.44 841.448,6367.24C841.448,6385.55 852.348,6392.35 866.848,6392.35C874.248,6392.35 883.548,6388.24 887.348,6379.05C887.348,6384.55 887.148,6387.35 886.948,6389.74L886.948,6389.85Z" style="fill-rule:nonzero;"/>
        </g>
    </g>
</svg>
