<?xml version="1.0" encoding="UTF-8" standalone="no"?>
<!DOCTYPE svg PUBLIC "-//W3C//DTD SVG 1.1//EN" "http://www.w3.org/Graphics/SVG/1.1/DTD/svg11.dtd">
<svg width="100%" height="100%" viewBox="0 0 89 89" version="1.1" xmlns="http://www.w3.org/2000/svg" xmlns:xlink="http://www.w3.org/1999/xlink" xml:space="preserve" xmlns:serif="http://www.serif.com/" style="fill-rule:evenodd;clip-rule:evenodd;stroke-linejoin:round;stroke-miterlimit:2;">
    <g transform="matrix(1,0,0,1,-758.718,-2371.63)">
        <g transform="matrix(1.41414,0,0,1.41429,-177.055,-770.755)">
            <path d="M724.089,2284.25L724.089,2221.89L661.726,2221.89L661.726,2284.25L724.089,2284.25ZM711.079,2267.57C711.079,2268.41 711.221,2271.6 711.221,2272.66C711.221,2274.21 709.665,2274.43 709.029,2274.43C707.332,2274.43 705.635,2273.15 705.635,2272.09L705.635,2272.02L705.847,2268.56C702.382,2273.01 696.938,2274.99 692.483,2274.99C681.806,2274.99 673.463,2269.83 673.463,2256.18C673.463,2243.24 682.16,2231.29 694.604,2231.29C702.877,2231.29 706.978,2234.83 708.18,2236.53C708.463,2236.95 708.604,2237.38 708.604,2237.8C708.604,2239.28 707.261,2241.19 705.564,2241.19C704.857,2241.19 704.291,2240.77 703.867,2240.2C703.584,2239.71 701.251,2236.39 694.604,2236.39C686.19,2236.39 678.908,2245.22 678.908,2256.18C678.908,2266.15 684.211,2269.83 692.483,2269.83C697.857,2269.83 705.281,2265.8 705.847,2256.04L699.837,2256.47C698.352,2256.54 696.796,2256.82 695.312,2256.89C693.402,2256.89 692.2,2254.56 692.2,2253.28C692.2,2252.51 692.625,2251.59 693.897,2251.59L694.675,2251.59C695.948,2251.59 697.645,2251.52 698.635,2251.45L705.705,2251.09C706.413,2251.09 707.12,2250.81 707.827,2250.81C709.029,2250.81 711.362,2252.79 711.362,2254.27C711.362,2254.84 711.079,2255.26 711.079,2255.76L711.079,2267.57Z" style="fill-rule:nonzero;"/>
        </g>
    </g>
</svg>
