<?xml version="1.0" encoding="UTF-8" standalone="no"?>
<!DOCTYPE svg PUBLIC "-//W3C//DTD SVG 1.1//EN" "http://www.w3.org/Graphics/SVG/1.1/DTD/svg11.dtd">
<svg width="100%" height="100%" viewBox="0 0 89 89" version="1.1" xmlns="http://www.w3.org/2000/svg" xmlns:xlink="http://www.w3.org/1999/xlink" xml:space="preserve" xmlns:serif="http://www.serif.com/" style="fill-rule:evenodd;clip-rule:evenodd;stroke-linejoin:round;stroke-miterlimit:2;">
    <g transform="matrix(1,0,0,1,-2102.45,-2342.27)">
        <g transform="matrix(1.41414,0,0,1.41429,-1052.39,-837.704)">
            <path d="M2287.77,2310.83C2291.17,2310.83 2293.29,2308.29 2293.29,2305.32L2293.29,2253.98C2293.29,2250.52 2290.81,2248.47 2287.77,2248.47L2236.44,2248.47C2232.97,2248.47 2230.92,2250.8 2230.92,2253.98L2230.92,2305.32C2230.92,2308.5 2233.4,2310.83 2236.44,2310.83L2287.77,2310.83ZM2280.28,2294.15C2280.28,2294.99 2280.42,2298.18 2280.42,2299.24C2280.42,2300.79 2278.86,2301.01 2278.23,2301.01C2276.53,2301.01 2274.83,2299.73 2274.83,2298.67L2274.83,2298.6L2275.04,2295.14C2271.58,2299.59 2266.14,2301.57 2261.68,2301.57C2251,2301.57 2242.66,2296.41 2242.66,2282.76C2242.66,2269.82 2251.36,2257.87 2263.8,2257.87C2272.08,2257.87 2276.18,2261.41 2277.38,2263.11C2277.66,2263.53 2277.8,2263.95 2277.8,2264.38C2277.8,2265.86 2276.46,2267.77 2274.76,2267.77C2274.05,2267.77 2273.49,2267.35 2273.07,2266.78C2272.78,2266.29 2270.45,2262.96 2263.8,2262.96C2255.39,2262.96 2248.11,2271.8 2248.11,2282.76C2248.11,2292.73 2253.41,2296.41 2261.68,2296.41C2267.05,2296.41 2274.48,2292.38 2275.04,2282.62L2269.03,2283.05C2267.55,2283.12 2265.99,2283.4 2264.51,2283.47C2262.6,2283.47 2261.4,2281.14 2261.4,2279.86C2261.4,2279.09 2261.82,2278.17 2263.1,2278.17L2263.87,2278.17C2265.14,2278.17 2266.84,2278.1 2267.83,2278.03L2274.9,2277.67C2275.61,2277.67 2276.32,2277.39 2277.02,2277.39C2278.23,2277.39 2280.56,2279.37 2280.56,2280.85C2280.56,2281.42 2280.28,2281.84 2280.28,2282.34L2280.28,2294.15Z" style="fill-rule:nonzero;"/>
        </g>
    </g>
</svg>
