<?xml version="1.0" encoding="UTF-8" standalone="no"?>
<!DOCTYPE svg PUBLIC "-//W3C//DTD SVG 1.1//EN" "http://www.w3.org/Graphics/SVG/1.1/DTD/svg11.dtd">
<svg width="100%" height="100%" viewBox="0 0 96 96" version="1.1" xmlns="http://www.w3.org/2000/svg" xmlns:xlink="http://www.w3.org/1999/xlink" xml:space="preserve" xmlns:serif="http://www.serif.com/" style="fill-rule:evenodd;clip-rule:evenodd;stroke-linejoin:round;stroke-miterlimit:2;">
    <g transform="matrix(1,0,0,1,-1109.63,-3923.28)">
        <g transform="matrix(1,0,0,1,-110.019,-3591.86)">
            <path d="M1315.25,7562.94C1315.25,7536.55 1293.85,7515.15 1267.45,7515.15C1241.05,7515.15 1219.65,7536.55 1219.65,7562.94C1219.65,7589.35 1241.05,7610.65 1267.45,7610.65C1293.85,7610.65 1315.25,7589.35 1315.25,7562.94ZM1293.15,7583.35C1293.15,7584.55 1293.35,7589.05 1293.35,7590.55C1293.35,7592.74 1291.15,7593.05 1290.25,7593.05C1287.85,7593.05 1285.45,7591.24 1285.45,7589.74L1285.45,7589.65L1285.75,7584.74C1280.85,7591.05 1273.15,7593.85 1266.85,7593.85C1251.75,7593.85 1239.95,7586.55 1239.95,7567.24C1239.95,7548.94 1252.25,7532.05 1269.85,7532.05C1281.55,7532.05 1287.35,7537.05 1289.05,7539.44C1289.45,7540.05 1289.65,7540.65 1289.65,7541.24C1289.65,7543.35 1287.75,7546.05 1285.35,7546.05C1284.35,7546.05 1283.55,7545.44 1282.95,7544.65C1282.55,7543.94 1279.25,7539.24 1269.85,7539.24C1257.95,7539.24 1247.65,7551.74 1247.65,7567.24C1247.65,7581.35 1255.15,7586.55 1266.85,7586.55C1274.45,7586.55 1284.95,7580.85 1285.75,7567.05L1277.25,7567.65C1275.15,7567.74 1272.95,7568.15 1270.85,7568.24C1268.15,7568.24 1266.45,7564.94 1266.45,7563.15C1266.45,7562.05 1267.05,7560.74 1268.85,7560.74L1269.95,7560.74C1271.75,7560.74 1274.15,7560.65 1275.55,7560.55L1285.55,7560.05C1286.55,7560.05 1287.55,7559.65 1288.55,7559.65C1290.25,7559.65 1293.55,7562.44 1293.55,7564.55C1293.55,7565.35 1293.15,7565.94 1293.15,7566.65L1293.15,7583.35Z" style="fill-rule:nonzero;"/>
        </g>
    </g>
</svg>
