<?xml version="1.0" encoding="UTF-8" standalone="no"?>
<!DOCTYPE svg PUBLIC "-//W3C//DTD SVG 1.1//EN" "http://www.w3.org/Graphics/SVG/1.1/DTD/svg11.dtd">
<svg width="100%" height="100%" viewBox="0 0 98 90" version="1.1" xmlns="http://www.w3.org/2000/svg" xmlns:xlink="http://www.w3.org/1999/xlink" xml:space="preserve" xmlns:serif="http://www.serif.com/" style="fill-rule:evenodd;clip-rule:evenodd;stroke-linejoin:round;stroke-miterlimit:2;">
    <g transform="matrix(1,0,0,1,-5737.39,-2285.56)">
        <g transform="matrix(1,0,0,1,1,0)">
            <path d="M5815.08,2374.76C5817.38,2374.76 5834.08,2357.26 5834.08,2330.16C5834.08,2302.96 5817.38,2285.56 5815.08,2285.56C5814.38,2285.56 5813.88,2286.06 5813.88,2286.76C5813.88,2287.16 5813.98,2287.66 5814.38,2288.06C5824.18,2299.76 5828.78,2315.96 5828.78,2330.16C5828.78,2344.36 5824.18,2360.56 5814.38,2372.26C5813.98,2372.66 5813.88,2373.16 5813.88,2373.56C5813.88,2374.26 5814.38,2374.76 5815.08,2374.76ZM5804.78,2357.06C5804.78,2357.96 5806.58,2358.76 5808.08,2358.76C5808.98,2358.76 5809.68,2358.46 5809.68,2357.76C5809.68,2356.26 5809.48,2351.76 5809.48,2350.56L5809.48,2333.86C5809.48,2332.76 5809.88,2332.46 5809.88,2331.76C5809.88,2330.56 5807.38,2328.36 5806.38,2328.36C5805.38,2328.36 5804.38,2328.66 5803.48,2328.76L5793.48,2329.26C5792.08,2329.36 5789.58,2329.46 5787.78,2329.46L5786.68,2329.46C5785.98,2329.46 5785.78,2329.86 5785.78,2330.36C5785.78,2331.76 5787.18,2333.96 5788.68,2333.96L5788.88,2333.96C5790.58,2333.76 5793.18,2333.46 5794.98,2333.36L5804.68,2332.66C5805.08,2332.66 5805.08,2332.86 5805.08,2333.06C5805.08,2347.36 5794.38,2355.26 5784.68,2355.26C5772.28,2355.26 5763.98,2349.56 5763.98,2334.46C5763.98,2318.46 5774.68,2304.96 5787.68,2304.96C5789.18,2304.96 5798.08,2304.96 5802.08,2311.06C5802.38,2311.56 5802.78,2311.76 5803.18,2311.76C5804.48,2311.76 5805.98,2309.96 5805.98,2308.46C5805.98,2308.16 5805.88,2307.86 5805.68,2307.56C5800.78,2301.26 5791.68,2300.76 5787.68,2300.76C5771.18,2300.76 5759.28,2316.66 5759.28,2334.46C5759.28,2352.76 5770.18,2359.56 5784.68,2359.56C5792.08,2359.56 5801.38,2355.46 5805.18,2346.26C5805.18,2351.76 5804.98,2354.56 5804.78,2356.96L5804.78,2357.06ZM5756.59,2373.56C5756.59,2373.16 5756.48,2372.66 5756.09,2372.26C5746.29,2360.56 5741.69,2344.36 5741.69,2330.16C5741.69,2315.96 5746.29,2299.76 5756.09,2288.06C5756.48,2287.66 5756.59,2287.16 5756.59,2286.76C5756.59,2286.06 5756.09,2285.56 5755.39,2285.56C5753.09,2285.56 5736.39,2302.96 5736.39,2330.16C5736.39,2357.26 5753.09,2374.76 5755.39,2374.76C5756.09,2374.76 5756.59,2374.26 5756.59,2373.56Z" style="fill-rule:nonzero;"/>
        </g>
    </g>
</svg>
