<?xml version="1.0" encoding="UTF-8" standalone="no"?>
<!DOCTYPE svg PUBLIC "-//W3C//DTD SVG 1.1//EN" "http://www.w3.org/Graphics/SVG/1.1/DTD/svg11.dtd">
<svg width="100%" height="100%" viewBox="0 0 89 89" version="1.1" xmlns="http://www.w3.org/2000/svg" xmlns:xlink="http://www.w3.org/1999/xlink" xml:space="preserve" xmlns:serif="http://www.serif.com/" style="fill-rule:evenodd;clip-rule:evenodd;stroke-linejoin:round;stroke-miterlimit:2;">
    <g transform="matrix(1,0,0,1,-2640.22,-1788.66)">
        <g transform="matrix(1,0,0,1,-1072.97,-2735.12)">
            <path d="M3801.38,4611.99L3801.38,4523.79L3713.18,4523.79L3713.18,4611.99L3801.38,4611.99ZM3797.28,4607.89L3717.28,4607.89L3717.28,4527.89L3797.28,4527.89L3797.28,4607.89ZM3776.78,4594.89C3776.78,4595.79 3778.58,4596.59 3780.08,4596.59C3780.98,4596.59 3781.68,4596.29 3781.68,4595.59C3781.68,4594.09 3781.48,4589.59 3781.48,4588.39L3781.48,4571.69C3781.48,4570.59 3781.88,4570.29 3781.88,4569.59C3781.88,4568.39 3779.38,4566.19 3778.38,4566.19C3777.38,4566.19 3776.38,4566.49 3775.48,4566.59L3765.48,4567.09C3764.08,4567.19 3761.58,4567.29 3759.78,4567.29L3758.68,4567.29C3757.98,4567.29 3757.78,4567.69 3757.78,4568.19C3757.78,4569.59 3759.18,4571.79 3760.68,4571.79L3760.88,4571.79C3762.58,4571.59 3765.18,4571.29 3766.98,4571.19L3776.68,4570.49C3777.08,4570.49 3777.08,4570.69 3777.08,4570.89C3777.08,4585.19 3766.38,4593.09 3756.68,4593.09C3744.28,4593.09 3735.98,4587.39 3735.98,4572.29C3735.98,4556.29 3746.68,4542.79 3759.68,4542.79C3761.18,4542.79 3770.08,4542.79 3774.08,4548.89C3774.38,4549.39 3774.78,4549.59 3775.18,4549.59C3776.48,4549.59 3777.98,4547.79 3777.98,4546.29C3777.98,4545.99 3777.88,4545.69 3777.68,4545.39C3772.78,4539.09 3763.68,4538.59 3759.68,4538.59C3743.18,4538.59 3731.28,4554.49 3731.28,4572.29C3731.28,4590.59 3742.18,4597.39 3756.68,4597.39C3764.08,4597.39 3773.38,4593.29 3777.18,4584.09C3777.18,4589.59 3776.98,4592.39 3776.78,4594.79L3776.78,4594.89Z" style="fill-rule:nonzero;"/>
        </g>
    </g>
</svg>
