<?xml version="1.0" encoding="UTF-8" standalone="no"?>
<!DOCTYPE svg PUBLIC "-//W3C//DTD SVG 1.1//EN" "http://www.w3.org/Graphics/SVG/1.1/DTD/svg11.dtd">
<svg width="100%" height="100%" viewBox="0 0 89 89" version="1.1" xmlns="http://www.w3.org/2000/svg" xmlns:xlink="http://www.w3.org/1999/xlink" xml:space="preserve" xmlns:serif="http://www.serif.com/" style="fill-rule:evenodd;clip-rule:evenodd;stroke-linejoin:round;stroke-miterlimit:2;">
    <g transform="matrix(1,0,0,1,-3393.29,-2331.51)">
        <g transform="matrix(1.41414,0,0,1.41429,-1389.33,-1046.26)">
            <path d="M3438.85,2450.69C3442.24,2450.69 3444.36,2448.14 3444.36,2445.17L3444.36,2393.84C3444.36,2390.38 3441.89,2388.32 3438.85,2388.32L3387.51,2388.32C3384.05,2388.32 3382,2390.66 3382,2393.84L3382,2445.17C3382,2448.35 3384.47,2450.69 3387.51,2450.69L3438.85,2450.69ZM3441.46,2445.45C3441.46,2447.01 3440.4,2447.79 3439.2,2447.79L3387.16,2447.79C3385.67,2447.79 3384.9,2446.73 3384.9,2445.45L3384.9,2393.49C3384.9,2392.07 3385.82,2391.22 3387.16,2391.22L3439.2,2391.22C3440.61,2391.22 3441.46,2392.28 3441.46,2393.49L3441.46,2445.45ZM3426.97,2438.6C3426.97,2439.23 3428.24,2439.8 3429.3,2439.8C3429.94,2439.8 3430.43,2439.59 3430.43,2439.09C3430.43,2438.03 3430.29,2434.85 3430.29,2434L3430.29,2422.19C3430.29,2421.41 3430.57,2421.2 3430.57,2420.71C3430.57,2419.86 3428.81,2418.3 3428.1,2418.3C3427.39,2418.3 3426.68,2418.52 3426.05,2418.59L3418.98,2418.94C3417.99,2419.01 3416.22,2419.08 3414.95,2419.08L3414.17,2419.08C3413.67,2419.08 3413.53,2419.36 3413.53,2419.72C3413.53,2420.71 3414.52,2422.26 3415.58,2422.26L3415.72,2422.26C3416.93,2422.12 3418.76,2421.91 3420.04,2421.84L3426.9,2421.34C3427.18,2421.34 3427.18,2421.49 3427.18,2421.63C3427.18,2431.74 3419.61,2437.32 3412.76,2437.32C3403.99,2437.32 3398.12,2433.29 3398.12,2422.62C3398.12,2411.3 3405.68,2401.76 3414.88,2401.76C3415.94,2401.76 3422.23,2401.76 3425.06,2406.07C3425.27,2406.43 3425.55,2406.57 3425.84,2406.57C3426.76,2406.57 3427.82,2405.29 3427.82,2404.23C3427.82,2404.02 3427.74,2403.81 3427.6,2403.6C3424.14,2399.14 3417.7,2398.79 3414.88,2398.79C3403.21,2398.79 3394.8,2410.03 3394.8,2422.62C3394.8,2435.56 3402.5,2440.36 3412.76,2440.36C3417.99,2440.36 3424.56,2437.47 3427.25,2430.96C3427.25,2434.85 3427.11,2436.83 3426.97,2438.53L3426.97,2438.6Z" style="fill-rule:nonzero;"/>
        </g>
    </g>
</svg>
