<?xml version="1.0" encoding="UTF-8" standalone="no"?>
<!DOCTYPE svg PUBLIC "-//W3C//DTD SVG 1.1//EN" "http://www.w3.org/Graphics/SVG/1.1/DTD/svg11.dtd">
<svg width="100%" height="100%" viewBox="0 0 46 72" version="1.1" xmlns="http://www.w3.org/2000/svg" xmlns:xlink="http://www.w3.org/1999/xlink" xml:space="preserve" xmlns:serif="http://www.serif.com/" style="fill-rule:evenodd;clip-rule:evenodd;stroke-linejoin:round;stroke-miterlimit:2;">
    <g transform="matrix(1,0,0,1,-4247.73,-2472.77)">
        <g transform="matrix(1.41414,0,0,1.41429,-1534.59,-78.5653)">
            <path d="M4089.21,1846.54C4089.21,1848.24 4089.07,1851.7 4089.07,1852.83C4089.07,1854.03 4090.98,1854.81 4092.32,1854.81C4093.03,1854.81 4093.52,1854.6 4093.52,1854.11C4093.52,1852.48 4093.31,1848.38 4093.31,1846.61L4093.31,1809.35L4112.75,1808.07C4114.1,1808 4115.65,1808 4117.07,1808L4120.04,1808C4120.6,1808 4120.82,1807.58 4120.82,1807.01C4120.82,1805.88 4119.75,1803.97 4118.55,1803.97C4117.7,1803.97 4114.81,1804.4 4112.68,1804.54L4093.45,1805.81C4093.45,1805.81 4091.05,1804.82 4089.78,1804.82C4089.14,1804.82 4088.93,1805.03 4088.93,1805.81C4088.93,1806.16 4089,1806.66 4089.07,1807.44C4089.21,1808.57 4089.21,1809.98 4089.21,1811.47L4089.21,1846.54Z" style="fill-rule:nonzero;"/>
        </g>
    </g>
</svg>
