<?xml version="1.0" encoding="UTF-8" standalone="no"?>
<!DOCTYPE svg PUBLIC "-//W3C//DTD SVG 1.1//EN" "http://www.w3.org/Graphics/SVG/1.1/DTD/svg11.dtd">
<svg width="100%" height="100%" viewBox="0 0 66 73" version="1.1" xmlns="http://www.w3.org/2000/svg" xmlns:xlink="http://www.w3.org/1999/xlink" xml:space="preserve" xmlns:serif="http://www.serif.com/" style="fill-rule:evenodd;clip-rule:evenodd;stroke-linejoin:round;stroke-miterlimit:2;">
    <g transform="matrix(1,0,0,1,-4134.14,-2172.07)">
        <g transform="matrix(1.41414,0,0,1.41429,-1534.59,-78.5653)">
            <path d="M4047.85,1607.48C4040.21,1609.74 4023.45,1615.26 4016.38,1617.8C4014.9,1618.3 4013.27,1619 4011.15,1619.57C4010.72,1619.71 4010.58,1620.28 4010.58,1620.98C4010.58,1622.18 4011.15,1623.81 4012.07,1623.81C4012.21,1623.81 4012.35,1623.74 4012.49,1623.67C4014.4,1622.54 4016.52,1621.55 4018.22,1620.84C4023.81,1618.58 4042.12,1612.71 4048.48,1610.87C4051.24,1610.02 4051.88,1609.67 4051.88,1608.18C4051.88,1607.05 4051.38,1605.5 4050.6,1605C4049.97,1604.65 4049.19,1604.51 4048.41,1604.3C4047.63,1604.08 4020.69,1596.24 4012.28,1591.5C4012.14,1591.43 4012,1591.36 4011.86,1591.36C4011.08,1591.36 4010.65,1592.63 4010.65,1593.83C4010.65,1594.75 4010.94,1595.67 4011.43,1595.81C4013.98,1596.66 4016.03,1597.44 4017.44,1597.93C4024.23,1600.34 4040.07,1605.14 4047.85,1607.48ZM4053.15,1628.12C4051.17,1628.27 4048.84,1628.34 4047.78,1628.34L4015.82,1628.76C4013.55,1628.76 4011.08,1628.69 4009.66,1628.62C4008.89,1628.62 4008.6,1629.26 4008.6,1630.11C4008.6,1631.16 4009.1,1632.37 4009.88,1632.37L4010.02,1632.37C4011.15,1632.23 4013.98,1632.15 4015.74,1632.15L4047.7,1631.73C4048.84,1631.73 4051.38,1631.8 4053.57,1631.8C4054.28,1631.8 4054.63,1631.1 4054.63,1630.32C4054.63,1629.33 4054.07,1628.12 4053.22,1628.12L4053.15,1628.12ZM4053.15,1638.31C4051.17,1638.45 4048.84,1638.52 4047.78,1638.52L4015.82,1638.94C4013.55,1638.94 4011.08,1638.87 4009.66,1638.8C4008.89,1638.8 4008.6,1639.44 4008.6,1640.29C4008.6,1641.35 4009.1,1642.55 4009.88,1642.55L4010.02,1642.55C4011.15,1642.41 4013.98,1642.34 4015.74,1642.34L4047.7,1641.91C4048.84,1641.91 4051.38,1641.98 4053.57,1641.98C4054.28,1641.98 4054.63,1641.28 4054.63,1640.5C4054.63,1639.51 4054.07,1638.31 4053.22,1638.31L4053.15,1638.31Z" style="fill-rule:nonzero;"/>
        </g>
    </g>
</svg>
