<?xml version="1.0" encoding="UTF-8" standalone="no"?>
<!DOCTYPE svg PUBLIC "-//W3C//DTD SVG 1.1//EN" "http://www.w3.org/Graphics/SVG/1.1/DTD/svg11.dtd">
<svg width="100%" height="100%" viewBox="0 0 42 51" version="1.1" xmlns="http://www.w3.org/2000/svg" xmlns:xlink="http://www.w3.org/1999/xlink" xml:space="preserve" xmlns:serif="http://www.serif.com/" style="fill-rule:evenodd;clip-rule:evenodd;stroke-linejoin:round;stroke-miterlimit:2;">
    <g transform="matrix(1,0,0,1,-4120.04,-1444.67)">
        <g transform="matrix(1.41414,0,0,1.41429,-1534.59,-78.5653)">
            <path d="M4023.52,1094.71C4017.87,1097.54 4009.52,1102.28 4003.87,1105.74C4002.45,1106.59 4000.97,1107.44 3999.27,1108.36C3998.85,1108.57 3998.63,1109.21 3998.63,1109.91C3998.63,1111.18 3999.27,1112.67 4000.12,1112.67C4000.26,1112.67 4000.47,1112.6 4000.68,1112.46C4007.47,1107.08 4022.32,1099.31 4024.23,1098.32C4025.5,1097.68 4027.06,1097.4 4027.48,1096.69C4027.62,1096.41 4027.69,1096.05 4027.69,1095.63C4027.69,1094.36 4027.13,1092.59 4026.28,1092.1C4025.64,1091.74 4024.87,1091.67 4024.16,1091.32C4020.48,1089.41 4008.46,1083.04 4000.68,1077.25C4000.47,1077.11 4000.33,1077.03 4000.12,1077.03C3999.41,1077.03 3999.06,1078.31 3999.06,1079.58C3999.06,1080.43 3999.27,1081.28 3999.69,1081.56C4001.11,1082.34 4002.73,1083.33 4004.08,1084.11C4009.66,1087.43 4017.72,1091.81 4023.52,1094.71Z" style="fill-rule:nonzero;"/>
        </g>
    </g>
</svg>
