<?xml version="1.0" encoding="UTF-8" standalone="no"?>
<!DOCTYPE svg PUBLIC "-//W3C//DTD SVG 1.1//EN" "http://www.w3.org/Graphics/SVG/1.1/DTD/svg11.dtd">
<svg width="100%" height="100%" viewBox="0 0 54 69" version="1.1" xmlns="http://www.w3.org/2000/svg" xmlns:xlink="http://www.w3.org/1999/xlink" xml:space="preserve" xmlns:serif="http://www.serif.com/" style="fill-rule:evenodd;clip-rule:evenodd;stroke-linejoin:round;stroke-miterlimit:2;">
    <g transform="matrix(1,0,0,1,-4539.6,-2624.47)">
        <g transform="matrix(1.41414,0,0,1.41429,-1534.59,-78.5653)">
            <path d="M4332.51,1958.68C4333.08,1958.68 4333.29,1958.26 4333.29,1957.76C4333.29,1956.7 4332.23,1955.07 4331.1,1955.07C4330.04,1955.07 4326.86,1955.5 4325.23,1955.57L4304.16,1956.13C4302.82,1956.13 4301.33,1956.21 4299.92,1956.21C4298.5,1956.21 4297.16,1956.13 4296.1,1956.06L4295.96,1956.06C4295.53,1956.06 4295.32,1956.42 4295.32,1956.84C4295.32,1957.97 4296.45,1959.95 4297.65,1959.95L4297.72,1959.95C4299.63,1959.81 4302.04,1959.6 4304.23,1959.53L4325.3,1958.89L4332.51,1958.68ZM4331.38,1914.84C4331.95,1914.84 4332.16,1914.42 4332.16,1913.92C4332.16,1912.86 4331.1,1911.24 4329.97,1911.24C4328.91,1911.24 4325.86,1911.66 4324.24,1911.73L4305.29,1912.3C4303.95,1912.3 4302.46,1912.37 4301.12,1912.37C4299.7,1912.37 4298.43,1912.3 4297.37,1912.23L4297.23,1912.23C4296.81,1912.23 4296.59,1912.58 4296.59,1913C4296.59,1914.13 4297.72,1916.12 4298.93,1916.12L4299,1916.12C4300.91,1915.97 4303.17,1915.76 4305.36,1915.69L4324.31,1915.05L4331.38,1914.84ZM4329.47,1935.42C4330.04,1935.42 4330.25,1935.06 4330.25,1934.57C4330.25,1933.51 4329.19,1931.81 4328.06,1931.81C4327,1931.81 4323.89,1932.16 4322.19,1932.16L4307.48,1932.45C4306.21,1932.45 4304.72,1932.52 4303.24,1932.52C4301.82,1932.52 4300.48,1932.45 4299.42,1932.38L4299.28,1932.38C4298.86,1932.38 4298.64,1932.73 4298.64,1933.15C4298.64,1934.29 4299.77,1936.27 4300.98,1936.27L4301.05,1936.27C4302.89,1936.12 4305.36,1935.91 4307.55,1935.84L4322.26,1935.49C4323.6,1935.42 4325.86,1935.42 4327.63,1935.42L4329.47,1935.42Z" style="fill-rule:nonzero;"/>
        </g>
    </g>
</svg>
