<?xml version="1.0" encoding="UTF-8" standalone="no"?>
<!DOCTYPE svg PUBLIC "-//W3C//DTD SVG 1.1//EN" "http://www.w3.org/Graphics/SVG/1.1/DTD/svg11.dtd">
<svg width="100%" height="100%" viewBox="0 0 96 96" version="1.1" xmlns="http://www.w3.org/2000/svg" xmlns:xlink="http://www.w3.org/1999/xlink" xml:space="preserve" xmlns:serif="http://www.serif.com/" style="fill-rule:evenodd;clip-rule:evenodd;stroke-linejoin:round;stroke-miterlimit:2;">
    <g transform="matrix(1,0,0,1,-809.628,-2723.28)">
        <g transform="matrix(1,0,0,1,-110.019,-3591.86)">
            <path d="M1015.25,6362.94C1015.25,6336.55 993.848,6315.15 967.448,6315.15C941.048,6315.15 919.648,6336.55 919.648,6362.94C919.648,6389.35 941.048,6410.65 967.448,6410.65C993.848,6410.65 1015.25,6389.35 1015.25,6362.94ZM1011.15,6362.94C1011.15,6387.05 991.548,6406.55 967.448,6406.55C943.348,6406.55 923.748,6387.05 923.748,6362.94C923.748,6338.85 943.348,6319.24 967.448,6319.24C991.548,6319.24 1011.15,6338.85 1011.15,6362.94ZM983.248,6382.44C983.248,6385.24 983.048,6388.35 983.048,6389.65C983.048,6390.94 985.248,6391.85 986.748,6391.85C987.548,6391.85 988.148,6391.65 988.148,6391.05C988.148,6389.24 987.948,6385.85 987.948,6382.44L987.948,6343.44C987.948,6340.65 988.048,6337.55 988.048,6336.24C988.048,6334.94 985.748,6333.94 984.248,6333.94C983.548,6333.94 982.948,6334.24 982.948,6334.74C982.948,6336.65 983.248,6340.05 983.248,6343.35L983.248,6358.65C982.748,6357.74 982.048,6356.85 981.148,6356.85L981.048,6356.85C979.748,6357.15 976.848,6357.35 974.348,6357.55L953.148,6358.74L951.948,6358.74L951.948,6343.44C951.948,6340.65 952.148,6337.55 952.148,6336.24C952.148,6334.94 949.848,6333.94 948.348,6333.94C947.648,6333.94 947.048,6334.24 947.048,6334.74C947.048,6336.65 947.248,6340.05 947.248,6343.35L947.248,6358.74C946.148,6358.74 945.248,6358.65 944.848,6358.65C944.148,6358.65 943.848,6359.15 943.848,6359.85C943.848,6361.24 945.048,6363.44 946.448,6363.44L946.548,6363.44C946.648,6363.44 947.048,6363.35 947.248,6363.35L947.248,6382.44C947.248,6385.35 947.048,6388.35 947.048,6389.65C947.048,6391.05 949.248,6391.94 950.748,6391.94C951.548,6391.94 952.148,6391.65 952.148,6391.15C952.148,6389.24 951.948,6385.85 951.948,6382.55L951.948,6362.85C952.348,6362.85 952.848,6362.74 953.248,6362.74L974.348,6361.55C975.048,6361.44 975.848,6361.44 976.648,6361.44C979.148,6361.44 981.748,6361.65 982.748,6361.65C982.848,6361.65 983.048,6361.55 983.248,6361.55L983.248,6382.44Z" style="fill-rule:nonzero;"/>
        </g>
    </g>
</svg>
