<?xml version="1.0" encoding="UTF-8" standalone="no"?>
<!DOCTYPE svg PUBLIC "-//W3C//DTD SVG 1.1//EN" "http://www.w3.org/Graphics/SVG/1.1/DTD/svg11.dtd">
<svg width="100%" height="100%" viewBox="0 0 96 96" version="1.1" xmlns="http://www.w3.org/2000/svg" xmlns:xlink="http://www.w3.org/1999/xlink" xml:space="preserve" xmlns:serif="http://www.serif.com/" style="fill-rule:evenodd;clip-rule:evenodd;stroke-linejoin:round;stroke-miterlimit:2;">
    <g transform="matrix(1,0,0,1,-1209.63,-3923.28)">
        <g transform="matrix(1,0,0,1,-110.019,-3591.86)">
            <path d="M1415.25,7562.94C1415.25,7536.55 1393.85,7515.15 1367.45,7515.15C1341.05,7515.15 1319.65,7536.55 1319.65,7562.94C1319.65,7589.35 1341.05,7610.65 1367.45,7610.65C1393.85,7610.65 1415.25,7589.35 1415.25,7562.94ZM1389.45,7582.44C1389.45,7585.85 1389.65,7589.24 1389.65,7591.05C1389.65,7592.44 1388.55,7593.35 1386.75,7593.35C1384.55,7593.35 1381.55,7591.55 1381.55,7589.65C1381.55,7588.35 1381.75,7585.24 1381.75,7582.44C1381.75,7582.44 1382.05,7565.65 1382.05,7563.15C1381.85,7563.15 1381.55,7563.24 1381.15,7563.24C1379.75,7563.24 1377.75,7562.94 1376.65,7562.94C1375.85,7562.94 1375.15,7563.05 1374.45,7563.05L1353.45,7564.24L1353.45,7582.55C1353.45,7585.85 1353.65,7589.24 1353.65,7591.15C1353.65,7592.24 1352.55,7593.44 1350.75,7593.44C1348.55,7593.44 1345.55,7591.74 1345.55,7589.65C1345.55,7588.35 1345.75,7585.35 1345.75,7582.44C1345.75,7582.44 1345.85,7572.44 1345.85,7567.44L1345.85,7564.94C1343.65,7564.65 1342.35,7561.44 1342.35,7559.85C1342.35,7558.74 1342.95,7557.15 1344.85,7557.15L1345.75,7557.15L1345.75,7543.35C1345.75,7540.05 1345.55,7536.65 1345.55,7534.74C1345.55,7532.74 1347.65,7532.44 1348.35,7532.44C1350.55,7532.44 1353.65,7534.35 1353.65,7536.24C1353.65,7537.55 1353.45,7540.65 1353.45,7543.44L1353.45,7557.24L1374.25,7556.05C1376.75,7555.94 1379.55,7555.65 1381.15,7555.35C1381.35,7555.35 1381.55,7555.35 1381.75,7555.44L1381.75,7543.35C1381.75,7540.05 1381.45,7536.65 1381.45,7534.74C1381.45,7532.74 1383.55,7532.44 1384.25,7532.44C1386.45,7532.44 1389.55,7534.35 1389.55,7536.24C1389.55,7537.55 1389.45,7540.65 1389.45,7543.44L1389.45,7582.44Z" style="fill-rule:nonzero;"/>
        </g>
    </g>
</svg>
