<?xml version="1.0" encoding="UTF-8" standalone="no"?>
<!DOCTYPE svg PUBLIC "-//W3C//DTD SVG 1.1//EN" "http://www.w3.org/Graphics/SVG/1.1/DTD/svg11.dtd">
<svg width="100%" height="100%" viewBox="0 0 89 89" version="1.1" xmlns="http://www.w3.org/2000/svg" xmlns:xlink="http://www.w3.org/1999/xlink" xml:space="preserve" xmlns:serif="http://www.serif.com/" style="fill-rule:evenodd;clip-rule:evenodd;stroke-linejoin:round;stroke-miterlimit:2;">
    <g transform="matrix(1,0,0,1,-858.708,-2371.63)">
        <g transform="matrix(1.41414,0,0,1.41429,-177.055,-770.755)">
            <path d="M794.796,2284.25L794.796,2221.89L732.433,2221.89L732.433,2284.25L794.796,2284.25ZM779.17,2266.93C779.17,2269.33 779.312,2271.74 779.312,2273.01C779.312,2274 778.534,2274.64 777.261,2274.64C775.705,2274.64 773.584,2273.36 773.584,2272.02C773.584,2271.1 773.726,2268.91 773.726,2266.93C773.726,2266.93 773.938,2255.05 773.938,2253.28C773.796,2253.28 773.584,2253.35 773.301,2253.35C772.312,2253.35 770.897,2253.14 770.12,2253.14C769.554,2253.14 769.059,2253.21 768.564,2253.21L753.716,2254.06L753.716,2267C753.716,2269.33 753.857,2271.74 753.857,2273.08C753.857,2273.86 753.079,2274.71 751.806,2274.71C750.251,2274.71 748.13,2273.51 748.13,2272.02C748.13,2271.1 748.271,2268.98 748.271,2266.93C748.271,2266.93 748.342,2259.86 748.342,2256.32L748.342,2254.56C746.786,2254.34 745.867,2252.08 745.867,2250.95C745.867,2250.17 746.291,2249.04 747.635,2249.04L748.271,2249.04L748.271,2239.28C748.271,2236.95 748.13,2234.55 748.13,2233.2C748.13,2231.79 749.615,2231.58 750.11,2231.58C751.665,2231.58 753.857,2232.92 753.857,2234.26C753.857,2235.18 753.716,2237.38 753.716,2239.35L753.716,2249.11L768.423,2248.26C770.19,2248.19 772.17,2247.98 773.301,2247.77C773.443,2247.77 773.584,2247.77 773.726,2247.84L773.726,2239.28C773.726,2236.95 773.514,2234.55 773.514,2233.2C773.514,2231.79 774.998,2231.58 775.493,2231.58C777.049,2231.58 779.241,2232.92 779.241,2234.26C779.241,2235.18 779.17,2237.38 779.17,2239.35L779.17,2266.93Z" style="fill-rule:nonzero;"/>
        </g>
    </g>
</svg>
