<?xml version="1.0" encoding="UTF-8" standalone="no"?>
<!DOCTYPE svg PUBLIC "-//W3C//DTD SVG 1.1//EN" "http://www.w3.org/Graphics/SVG/1.1/DTD/svg11.dtd">
<svg width="100%" height="100%" viewBox="0 0 89 89" version="1.1" xmlns="http://www.w3.org/2000/svg" xmlns:xlink="http://www.w3.org/1999/xlink" xml:space="preserve" xmlns:serif="http://www.serif.com/" style="fill-rule:evenodd;clip-rule:evenodd;stroke-linejoin:round;stroke-miterlimit:2;">
    <g transform="matrix(1,0,0,1,-2202.44,-2342.27)">
        <g transform="matrix(1.41414,0,0,1.41429,-1052.39,-837.704)">
            <path d="M2358.48,2310.83C2361.87,2310.83 2363.99,2308.29 2363.99,2305.32L2363.99,2253.98C2363.99,2250.52 2361.52,2248.47 2358.48,2248.47L2307.14,2248.47C2303.68,2248.47 2301.63,2250.8 2301.63,2253.98L2301.63,2305.32C2301.63,2308.5 2304.11,2310.83 2307.14,2310.83L2358.48,2310.83ZM2348.37,2293.51C2348.37,2295.91 2348.51,2298.32 2348.51,2299.59C2348.51,2300.58 2347.73,2301.22 2346.46,2301.22C2344.9,2301.22 2342.78,2299.94 2342.78,2298.6C2342.78,2297.68 2342.92,2295.49 2342.92,2293.51C2342.92,2293.51 2343.14,2281.63 2343.14,2279.86C2342.99,2279.86 2342.78,2279.93 2342.5,2279.93C2341.51,2279.93 2340.1,2279.72 2339.32,2279.72C2338.75,2279.72 2338.26,2279.79 2337.76,2279.79L2322.91,2280.64L2322.91,2293.58C2322.91,2295.91 2323.05,2298.32 2323.05,2299.66C2323.05,2300.44 2322.28,2301.29 2321,2301.29C2319.45,2301.29 2317.33,2300.09 2317.33,2298.6C2317.33,2297.68 2317.47,2295.56 2317.47,2293.51C2317.47,2293.51 2317.54,2286.44 2317.54,2282.9L2317.54,2281.14C2315.98,2280.92 2315.07,2278.66 2315.07,2277.53C2315.07,2276.75 2315.49,2275.62 2316.83,2275.62L2317.47,2275.62L2317.47,2265.86C2317.47,2263.53 2317.33,2261.13 2317.33,2259.78C2317.33,2258.37 2318.81,2258.16 2319.31,2258.16C2320.86,2258.16 2323.05,2259.5 2323.05,2260.84C2323.05,2261.76 2322.91,2263.95 2322.91,2265.93L2322.91,2275.69L2337.62,2274.84C2339.39,2274.77 2341.37,2274.56 2342.5,2274.35C2342.64,2274.35 2342.78,2274.35 2342.92,2274.42L2342.92,2265.86C2342.92,2263.53 2342.71,2261.13 2342.71,2259.78C2342.71,2258.37 2344.2,2258.16 2344.69,2258.16C2346.25,2258.16 2348.44,2259.5 2348.44,2260.84C2348.44,2261.76 2348.37,2263.95 2348.37,2265.93L2348.37,2293.51Z" style="fill-rule:nonzero;"/>
        </g>
    </g>
</svg>
