<?xml version="1.0" encoding="UTF-8" standalone="no"?>
<!DOCTYPE svg PUBLIC "-//W3C//DTD SVG 1.1//EN" "http://www.w3.org/Graphics/SVG/1.1/DTD/svg11.dtd">
<svg width="100%" height="100%" viewBox="0 0 98 90" version="1.1" xmlns="http://www.w3.org/2000/svg" xmlns:xlink="http://www.w3.org/1999/xlink" xml:space="preserve" xmlns:serif="http://www.serif.com/" style="fill-rule:evenodd;clip-rule:evenodd;stroke-linejoin:round;stroke-miterlimit:2;">
    <g transform="matrix(1,0,0,1,-5837.38,-2285.56)">
        <g transform="matrix(1,0,0,1,1,0)">
            <path d="M5915.07,2374.76C5917.37,2374.76 5934.07,2357.26 5934.07,2330.16C5934.07,2302.96 5917.37,2285.56 5915.07,2285.56C5914.37,2285.56 5913.87,2286.06 5913.87,2286.76C5913.87,2287.16 5913.97,2287.66 5914.37,2288.06C5924.17,2299.76 5928.77,2315.96 5928.77,2330.16C5928.77,2344.36 5924.17,2360.56 5914.37,2372.26C5913.97,2372.66 5913.87,2373.16 5913.87,2373.56C5913.87,2374.26 5914.37,2374.76 5915.07,2374.76ZM5901.07,2349.66C5901.07,2352.46 5900.87,2355.56 5900.87,2356.86C5900.87,2358.16 5903.07,2359.06 5904.57,2359.06C5905.37,2359.06 5905.97,2358.86 5905.97,2358.26C5905.97,2356.46 5905.77,2353.06 5905.77,2349.66L5905.77,2310.66C5905.77,2307.86 5905.87,2304.76 5905.87,2303.46C5905.87,2302.16 5903.57,2301.16 5902.07,2301.16C5901.37,2301.16 5900.77,2301.46 5900.77,2301.96C5900.77,2303.86 5901.07,2307.26 5901.07,2310.56L5901.07,2325.86C5900.57,2324.96 5899.87,2324.06 5898.97,2324.06L5898.87,2324.06C5897.57,2324.36 5894.67,2324.56 5892.17,2324.76L5870.97,2325.96L5869.77,2325.96L5869.77,2310.66C5869.77,2307.86 5869.97,2304.76 5869.97,2303.46C5869.97,2302.16 5867.67,2301.16 5866.17,2301.16C5865.47,2301.16 5864.87,2301.46 5864.87,2301.96C5864.87,2303.86 5865.07,2307.26 5865.07,2310.56L5865.07,2325.96C5863.97,2325.96 5863.07,2325.86 5862.67,2325.86C5861.97,2325.86 5861.67,2326.36 5861.67,2327.06C5861.67,2328.46 5862.87,2330.66 5864.27,2330.66L5864.37,2330.66C5864.47,2330.66 5864.87,2330.56 5865.07,2330.56L5865.07,2349.66C5865.07,2352.56 5864.87,2355.56 5864.87,2356.86C5864.87,2358.26 5867.07,2359.16 5868.57,2359.16C5869.37,2359.16 5869.97,2358.86 5869.97,2358.36C5869.97,2356.46 5869.77,2353.06 5869.77,2349.76L5869.77,2330.06C5870.17,2330.06 5870.67,2329.96 5871.07,2329.96L5892.17,2328.76C5892.87,2328.66 5893.67,2328.66 5894.47,2328.66C5896.97,2328.66 5899.57,2328.86 5900.57,2328.86C5900.67,2328.86 5900.87,2328.76 5901.07,2328.76L5901.07,2349.66ZM5856.57,2373.56C5856.57,2373.16 5856.48,2372.66 5856.07,2372.26C5846.28,2360.56 5841.68,2344.36 5841.68,2330.16C5841.68,2315.96 5846.28,2299.76 5856.07,2288.06C5856.48,2287.66 5856.57,2287.16 5856.57,2286.76C5856.57,2286.06 5856.07,2285.56 5855.38,2285.56C5853.07,2285.56 5836.38,2302.96 5836.38,2330.16C5836.38,2357.26 5853.07,2374.76 5855.38,2374.76C5856.07,2374.76 5856.57,2374.26 5856.57,2373.56Z" style="fill-rule:nonzero;"/>
        </g>
    </g>
</svg>
