<?xml version="1.0" encoding="UTF-8" standalone="no"?>
<!DOCTYPE svg PUBLIC "-//W3C//DTD SVG 1.1//EN" "http://www.w3.org/Graphics/SVG/1.1/DTD/svg11.dtd">
<svg width="100%" height="100%" viewBox="0 0 89 89" version="1.1" xmlns="http://www.w3.org/2000/svg" xmlns:xlink="http://www.w3.org/1999/xlink" xml:space="preserve" xmlns:serif="http://www.serif.com/" style="fill-rule:evenodd;clip-rule:evenodd;stroke-linejoin:round;stroke-miterlimit:2;">
    <g transform="matrix(1,0,0,1,-1540.22,-1938.66)">
        <g transform="matrix(1,0,0,1,-1072.97,-2735.12)">
            <path d="M2701.38,4761.99L2701.38,4673.79L2613.18,4673.79L2613.18,4761.99L2701.38,4761.99ZM2697.28,4757.89L2617.28,4757.89L2617.28,4677.89L2697.28,4677.89L2697.28,4757.89ZM2673.08,4737.49C2673.08,4740.29 2672.88,4743.39 2672.88,4744.69C2672.88,4745.99 2675.08,4746.89 2676.58,4746.89C2677.38,4746.89 2677.98,4746.69 2677.98,4746.09C2677.98,4744.29 2677.78,4740.89 2677.78,4737.49L2677.78,4698.49C2677.78,4695.69 2677.88,4692.59 2677.88,4691.29C2677.88,4689.99 2675.58,4688.99 2674.08,4688.99C2673.38,4688.99 2672.78,4689.29 2672.78,4689.79C2672.78,4691.69 2673.08,4695.09 2673.08,4698.39L2673.08,4713.69C2672.58,4712.79 2671.88,4711.89 2670.98,4711.89L2670.88,4711.89C2669.58,4712.19 2666.68,4712.39 2664.18,4712.59L2642.98,4713.79L2641.78,4713.79L2641.78,4698.49C2641.78,4695.69 2641.98,4692.59 2641.98,4691.29C2641.98,4689.99 2639.68,4688.99 2638.18,4688.99C2637.48,4688.99 2636.88,4689.29 2636.88,4689.79C2636.88,4691.69 2637.08,4695.09 2637.08,4698.39L2637.08,4713.79C2635.98,4713.79 2635.08,4713.69 2634.68,4713.69C2633.98,4713.69 2633.68,4714.19 2633.68,4714.89C2633.68,4716.29 2634.88,4718.49 2636.28,4718.49L2636.38,4718.49C2636.48,4718.49 2636.88,4718.39 2637.08,4718.39L2637.08,4737.49C2637.08,4740.39 2636.88,4743.39 2636.88,4744.69C2636.88,4746.09 2639.08,4746.99 2640.58,4746.99C2641.38,4746.99 2641.98,4746.69 2641.98,4746.19C2641.98,4744.29 2641.78,4740.89 2641.78,4737.59L2641.78,4717.89C2642.18,4717.89 2642.68,4717.79 2643.08,4717.79L2664.18,4716.59C2664.88,4716.49 2665.68,4716.49 2666.48,4716.49C2668.98,4716.49 2671.58,4716.69 2672.58,4716.69C2672.68,4716.69 2672.88,4716.59 2673.08,4716.59L2673.08,4737.49Z" style="fill-rule:nonzero;"/>
        </g>
    </g>
</svg>
