<?xml version="1.0" encoding="UTF-8" standalone="no"?>
<!DOCTYPE svg PUBLIC "-//W3C//DTD SVG 1.1//EN" "http://www.w3.org/Graphics/SVG/1.1/DTD/svg11.dtd">
<svg width="100%" height="100%" viewBox="0 0 89 89" version="1.1" xmlns="http://www.w3.org/2000/svg" xmlns:xlink="http://www.w3.org/1999/xlink" xml:space="preserve" xmlns:serif="http://www.serif.com/" style="fill-rule:evenodd;clip-rule:evenodd;stroke-linejoin:round;stroke-miterlimit:2;">
    <g transform="matrix(1,0,0,1,-3493.28,-2331.51)">
        <g transform="matrix(1.41414,0,0,1.41429,-1389.33,-1046.26)">
            <path d="M3509.55,2450.69C3512.95,2450.69 3515.07,2448.14 3515.07,2445.17L3515.07,2393.84C3515.07,2390.38 3512.59,2388.32 3509.55,2388.32L3458.22,2388.32C3454.76,2388.32 3452.7,2390.66 3452.7,2393.84L3452.7,2445.17C3452.7,2448.35 3455.18,2450.69 3458.22,2450.69L3509.55,2450.69ZM3512.17,2445.45C3512.17,2447.01 3511.11,2447.79 3509.91,2447.79L3457.87,2447.79C3456.38,2447.79 3455.6,2446.73 3455.6,2445.45L3455.6,2393.49C3455.6,2392.07 3456.52,2391.22 3457.87,2391.22L3509.91,2391.22C3511.32,2391.22 3512.17,2392.28 3512.17,2393.49L3512.17,2445.45ZM3495.06,2433.36C3495.06,2435.34 3494.92,2437.54 3494.92,2438.45C3494.92,2439.38 3496.47,2440.01 3497.53,2440.01C3498.1,2440.01 3498.52,2439.87 3498.52,2439.45C3498.52,2438.17 3498.38,2435.77 3498.38,2433.36L3498.38,2405.79C3498.38,2403.81 3498.45,2401.62 3498.45,2400.7C3498.45,2399.78 3496.83,2399.07 3495.76,2399.07C3495.27,2399.07 3494.85,2399.28 3494.85,2399.64C3494.85,2400.98 3495.06,2403.39 3495.06,2405.72L3495.06,2416.54C3494.7,2415.9 3494.21,2415.26 3493.57,2415.26L3493.5,2415.26C3492.58,2415.48 3490.53,2415.62 3488.76,2415.76L3473.78,2416.61L3472.93,2416.61L3472.93,2405.79C3472.93,2403.81 3473.07,2401.62 3473.07,2400.7C3473.07,2399.78 3471.44,2399.07 3470.38,2399.07C3469.89,2399.07 3469.46,2399.28 3469.46,2399.64C3469.46,2400.98 3469.6,2403.39 3469.6,2405.72L3469.6,2416.61C3468.83,2416.61 3468.19,2416.54 3467.91,2416.54C3467.41,2416.54 3467.2,2416.89 3467.2,2417.39C3467.2,2418.38 3468.05,2419.93 3469.04,2419.93L3469.11,2419.93C3469.18,2419.93 3469.46,2419.86 3469.6,2419.86L3469.6,2433.36C3469.6,2435.41 3469.46,2437.54 3469.46,2438.45C3469.46,2439.45 3471.02,2440.08 3472.08,2440.08C3472.64,2440.08 3473.07,2439.87 3473.07,2439.52C3473.07,2438.17 3472.93,2435.77 3472.93,2433.43L3472.93,2419.51C3473.21,2419.51 3473.56,2419.43 3473.85,2419.43L3488.76,2418.59C3489.26,2418.52 3489.83,2418.52 3490.39,2418.52C3492.16,2418.52 3494,2418.66 3494.7,2418.66C3494.78,2418.66 3494.92,2418.59 3495.06,2418.59L3495.06,2433.36Z" style="fill-rule:nonzero;"/>
        </g>
    </g>
</svg>
