<?xml version="1.0" encoding="UTF-8" standalone="no"?>
<!DOCTYPE svg PUBLIC "-//W3C//DTD SVG 1.1//EN" "http://www.w3.org/Graphics/SVG/1.1/DTD/svg11.dtd">
<svg width="100%" height="100%" viewBox="0 0 49 73" version="1.1" xmlns="http://www.w3.org/2000/svg" xmlns:xlink="http://www.w3.org/1999/xlink" xml:space="preserve" xmlns:serif="http://www.serif.com/" style="fill-rule:evenodd;clip-rule:evenodd;stroke-linejoin:round;stroke-miterlimit:2;">
    <g transform="matrix(1,0,0,1,-4567.2,-1422.17)">
        <g transform="matrix(1.41414,0,0,1.41429,-1534.59,-78.5653)">
            <path d="M4333.22,1111.26C4333.22,1111.89 4334.07,1112.17 4334.99,1112.17C4335.98,1112.17 4337.11,1111.82 4337.18,1111.12C4337.32,1109.7 4337.39,1108.43 4337.6,1106.66L4338.95,1096.76L4340.57,1096.76C4342.69,1096.76 4343.97,1096.76 4346.09,1096.83C4346.8,1096.83 4347.15,1096.2 4347.15,1095.35C4347.15,1094.36 4346.58,1093.15 4345.73,1093.15L4345.66,1093.15C4343.68,1093.3 4342.06,1093.37 4340.64,1093.37L4339.44,1093.37L4341.42,1078.73L4342.41,1078.73C4343.54,1078.73 4345.81,1078.73 4347.93,1078.8C4348.63,1078.8 4348.99,1078.16 4348.99,1077.32C4348.99,1076.33 4348.42,1075.12 4347.57,1075.12L4347.5,1075.12C4345.52,1075.27 4343.75,1075.34 4342.48,1075.34L4341.85,1075.34L4343.26,1065.08C4343.33,1064.66 4343.61,1063.6 4343.9,1062.68C4343.9,1062.61 4343.97,1062.54 4343.97,1062.4C4343.97,1061.62 4342.69,1061.12 4341.63,1061.12C4340.86,1061.12 4340.15,1061.34 4340.15,1061.9C4340.08,1063.32 4339.94,1064.45 4339.86,1064.94L4338.45,1075.34L4328.34,1075.34L4329.75,1065.08C4329.82,1064.52 4330.18,1063.46 4330.39,1062.68C4330.39,1062.61 4330.46,1062.54 4330.46,1062.4C4330.46,1061.62 4329.19,1061.12 4328.06,1061.12C4327.35,1061.12 4326.64,1061.34 4326.64,1061.9C4326.57,1063.32 4326.43,1064.45 4326.36,1064.94L4324.95,1075.34L4323.53,1075.34C4321.27,1075.34 4319.15,1075.27 4317.73,1075.2C4316.96,1075.2 4316.67,1075.83 4316.67,1076.61C4316.67,1077.67 4317.24,1078.94 4318.02,1078.94L4318.09,1078.94C4319.29,1078.8 4321.76,1078.73 4323.46,1078.73L4324.45,1078.73L4322.47,1093.37L4321.69,1093.37C4319.43,1093.37 4317.31,1093.3 4315.9,1093.23C4315.12,1093.23 4314.84,1093.86 4314.84,1094.71C4314.84,1095.77 4315.33,1096.97 4316.11,1096.97L4316.25,1096.97C4317.38,1096.83 4319.93,1096.76 4321.62,1096.76L4322.05,1096.76L4320.7,1106.52C4320.42,1108.36 4320,1109.91 4319.71,1111.12L4319.71,1111.26C4319.71,1111.89 4320.56,1112.17 4321.48,1112.17C4322.47,1112.17 4323.6,1111.82 4323.67,1111.12C4323.82,1109.7 4323.89,1108.36 4324.1,1106.66L4325.44,1096.76L4335.48,1096.76L4334.21,1106.52C4334,1108.14 4333.5,1109.91 4333.22,1111.12L4333.22,1111.26ZM4335.98,1093.37L4325.86,1093.37L4327.92,1078.73L4337.96,1078.73L4335.98,1093.37Z" style="fill-rule:nonzero;"/>
        </g>
    </g>
</svg>
