<?xml version="1.0" encoding="UTF-8" standalone="no"?>
<!DOCTYPE svg PUBLIC "-//W3C//DTD SVG 1.1//EN" "http://www.w3.org/Graphics/SVG/1.1/DTD/svg11.dtd">
<svg width="100%" height="100%" viewBox="0 0 96 96" version="1.1" xmlns="http://www.w3.org/2000/svg" xmlns:xlink="http://www.w3.org/1999/xlink" xml:space="preserve" xmlns:serif="http://www.serif.com/" style="fill-rule:evenodd;clip-rule:evenodd;stroke-linejoin:round;stroke-miterlimit:2;">
    <g transform="matrix(1,0,0,1,-909.628,-2723.28)">
        <g transform="matrix(1,0,0,1,-110.019,-3591.86)">
            <path d="M1115.25,6362.94C1115.25,6336.55 1093.85,6315.15 1067.45,6315.15C1041.05,6315.15 1019.65,6336.55 1019.65,6362.94C1019.65,6389.35 1041.05,6410.65 1067.45,6410.65C1093.85,6410.65 1115.25,6389.35 1115.25,6362.94ZM1111.15,6362.94C1111.15,6387.05 1091.55,6406.55 1067.45,6406.55C1043.35,6406.55 1023.75,6387.05 1023.75,6362.94C1023.75,6338.85 1043.35,6319.24 1067.45,6319.24C1091.55,6319.24 1111.15,6338.85 1111.15,6362.94ZM1065.25,6382.44C1065.25,6385.35 1065.05,6388.44 1065.05,6389.65C1065.05,6391.05 1067.35,6391.94 1068.95,6391.94C1069.75,6391.94 1070.35,6391.65 1070.35,6391.15C1070.35,6389.24 1070.05,6385.85 1070.05,6382.55L1070.05,6343.55C1070.05,6340.65 1070.25,6337.65 1070.25,6336.35C1070.25,6334.94 1067.95,6334.05 1066.35,6334.05C1065.55,6334.05 1064.95,6334.35 1064.95,6334.85C1064.95,6336.74 1065.25,6340.15 1065.25,6343.44L1065.25,6382.44Z" style="fill-rule:nonzero;"/>
        </g>
    </g>
</svg>
