<?xml version="1.0" encoding="UTF-8" standalone="no"?>
<!DOCTYPE svg PUBLIC "-//W3C//DTD SVG 1.1//EN" "http://www.w3.org/Graphics/SVG/1.1/DTD/svg11.dtd">
<svg width="100%" height="100%" viewBox="0 0 89 89" version="1.1" xmlns="http://www.w3.org/2000/svg" xmlns:xlink="http://www.w3.org/1999/xlink" xml:space="preserve" xmlns:serif="http://www.serif.com/" style="fill-rule:evenodd;clip-rule:evenodd;stroke-linejoin:round;stroke-miterlimit:2;">
    <g transform="matrix(1,0,0,1,-2302.43,-2342.27)">
        <g transform="matrix(1.41414,0,0,1.41429,-1052.39,-837.704)">
            <path d="M2429.19,2310.83C2432.58,2310.83 2434.7,2308.29 2434.7,2305.32L2434.7,2253.98C2434.7,2250.52 2432.23,2248.47 2429.19,2248.47L2377.85,2248.47C2374.39,2248.47 2372.34,2250.8 2372.34,2253.98L2372.34,2305.32C2372.34,2308.5 2374.81,2310.83 2377.85,2310.83L2429.19,2310.83ZM2406.42,2293.58C2406.42,2295.91 2406.63,2298.32 2406.63,2299.66C2406.63,2300.44 2405.85,2301.29 2404.58,2301.29C2402.95,2301.29 2400.76,2300.01 2400.76,2298.6C2400.76,2297.75 2400.9,2295.56 2400.9,2293.51L2400.9,2265.93C2400.9,2263.6 2400.69,2261.2 2400.69,2259.85C2400.69,2259.08 2401.47,2258.23 2402.74,2258.23C2404.37,2258.23 2406.56,2259.5 2406.56,2260.91C2406.56,2261.83 2406.42,2263.95 2406.42,2266.01L2406.42,2293.58Z" style="fill-rule:nonzero;"/>
        </g>
    </g>
</svg>
