<?xml version="1.0" encoding="UTF-8" standalone="no"?>
<!DOCTYPE svg PUBLIC "-//W3C//DTD SVG 1.1//EN" "http://www.w3.org/Graphics/SVG/1.1/DTD/svg11.dtd">
<svg width="100%" height="100%" viewBox="0 0 96 96" version="1.1" xmlns="http://www.w3.org/2000/svg" xmlns:xlink="http://www.w3.org/1999/xlink" xml:space="preserve" xmlns:serif="http://www.serif.com/" style="fill-rule:evenodd;clip-rule:evenodd;stroke-linejoin:round;stroke-miterlimit:2;">
    <g transform="matrix(1,0,0,1,-1309.63,-3923.28)">
        <g transform="matrix(1,0,0,1,-110.019,-3591.86)">
            <path d="M1515.25,7562.94C1515.25,7536.55 1493.85,7515.15 1467.45,7515.15C1441.05,7515.15 1419.65,7536.55 1419.65,7562.94C1419.65,7589.35 1441.05,7610.65 1467.45,7610.65C1493.85,7610.65 1515.25,7589.35 1515.25,7562.94ZM1471.55,7582.55C1471.55,7585.85 1471.85,7589.24 1471.85,7591.15C1471.85,7592.24 1470.75,7593.44 1468.95,7593.44C1466.65,7593.44 1463.55,7591.65 1463.55,7589.65C1463.55,7588.44 1463.75,7585.35 1463.75,7582.44L1463.75,7543.44C1463.75,7540.15 1463.45,7536.74 1463.45,7534.85C1463.45,7533.74 1464.55,7532.55 1466.35,7532.55C1468.65,7532.55 1471.75,7534.35 1471.75,7536.35C1471.75,7537.65 1471.55,7540.65 1471.55,7543.55L1471.55,7582.55Z" style="fill-rule:nonzero;"/>
        </g>
    </g>
</svg>
