<?xml version="1.0" encoding="UTF-8" standalone="no"?>
<!DOCTYPE svg PUBLIC "-//W3C//DTD SVG 1.1//EN" "http://www.w3.org/Graphics/SVG/1.1/DTD/svg11.dtd">
<svg width="100%" height="100%" viewBox="0 0 89 89" version="1.1" xmlns="http://www.w3.org/2000/svg" xmlns:xlink="http://www.w3.org/1999/xlink" xml:space="preserve" xmlns:serif="http://www.serif.com/" style="fill-rule:evenodd;clip-rule:evenodd;stroke-linejoin:round;stroke-miterlimit:2;">
    <g transform="matrix(1,0,0,1,-958.698,-2371.63)">
        <g transform="matrix(1.41414,0,0,1.41429,-177.055,-770.755)">
            <path d="M865.503,2284.25L865.503,2221.89L803.14,2221.89L803.14,2284.25L865.503,2284.25ZM837.221,2267C837.221,2269.33 837.433,2271.74 837.433,2273.08C837.433,2273.86 836.655,2274.71 835.382,2274.71C833.756,2274.71 831.564,2273.43 831.564,2272.02C831.564,2271.17 831.705,2268.98 831.705,2266.93L831.705,2239.35C831.705,2237.02 831.493,2234.62 831.493,2233.27C831.493,2232.5 832.271,2231.65 833.544,2231.65C835.17,2231.65 837.362,2232.92 837.362,2234.33C837.362,2235.25 837.221,2237.38 837.221,2239.43L837.221,2267Z" style="fill-rule:nonzero;"/>
        </g>
    </g>
</svg>
