<?xml version="1.0" encoding="UTF-8" standalone="no"?>
<!DOCTYPE svg PUBLIC "-//W3C//DTD SVG 1.1//EN" "http://www.w3.org/Graphics/SVG/1.1/DTD/svg11.dtd">
<svg width="100%" height="100%" viewBox="0 0 98 90" version="1.1" xmlns="http://www.w3.org/2000/svg" xmlns:xlink="http://www.w3.org/1999/xlink" xml:space="preserve" xmlns:serif="http://www.serif.com/" style="fill-rule:evenodd;clip-rule:evenodd;stroke-linejoin:round;stroke-miterlimit:2;">
    <g transform="matrix(1,0,0,1,-5937.37,-2285.56)">
        <g transform="matrix(1,0,0,1,1,0)">
            <path d="M6015.06,2374.76C6017.36,2374.76 6034.06,2357.26 6034.06,2330.16C6034.06,2302.96 6017.36,2285.56 6015.06,2285.56C6014.36,2285.56 6013.86,2286.06 6013.86,2286.76C6013.86,2287.16 6013.96,2287.66 6014.36,2288.06C6024.16,2299.76 6028.76,2315.96 6028.76,2330.16C6028.76,2344.36 6024.16,2360.56 6014.36,2372.26C6013.96,2372.66 6013.86,2373.16 6013.86,2373.56C6013.86,2374.26 6014.36,2374.76 6015.06,2374.76ZM5956.56,2373.56C5956.56,2373.16 5956.46,2372.66 5956.06,2372.26C5946.27,2360.56 5941.67,2344.36 5941.67,2330.16C5941.67,2315.96 5946.27,2299.76 5956.06,2288.06C5956.46,2287.66 5956.56,2287.16 5956.56,2286.76C5956.56,2286.06 5956.06,2285.56 5955.36,2285.56C5953.07,2285.56 5936.37,2302.96 5936.37,2330.16C5936.37,2357.26 5953.07,2374.76 5955.36,2374.76C5956.06,2374.76 5956.56,2374.26 5956.56,2373.56ZM5983.06,2349.66C5983.06,2352.56 5982.86,2355.66 5982.86,2356.86C5982.86,2358.26 5985.16,2359.16 5986.76,2359.16C5987.56,2359.16 5988.16,2358.86 5988.16,2358.36C5988.16,2356.46 5987.86,2353.06 5987.86,2349.76L5987.86,2310.76C5987.86,2307.86 5988.06,2304.86 5988.06,2303.56C5988.06,2302.16 5985.76,2301.26 5984.16,2301.26C5983.36,2301.26 5982.76,2301.56 5982.76,2302.06C5982.76,2303.96 5983.06,2307.36 5983.06,2310.66L5983.06,2349.66Z" style="fill-rule:nonzero;"/>
        </g>
    </g>
</svg>
