<?xml version="1.0" encoding="UTF-8" standalone="no"?>
<!DOCTYPE svg PUBLIC "-//W3C//DTD SVG 1.1//EN" "http://www.w3.org/Graphics/SVG/1.1/DTD/svg11.dtd">
<svg width="100%" height="100%" viewBox="0 0 89 89" version="1.1" xmlns="http://www.w3.org/2000/svg" xmlns:xlink="http://www.w3.org/1999/xlink" xml:space="preserve" xmlns:serif="http://www.serif.com/" style="fill-rule:evenodd;clip-rule:evenodd;stroke-linejoin:round;stroke-miterlimit:2;">
    <g transform="matrix(1,0,0,1,-3593.27,-2331.51)">
        <g transform="matrix(1.41414,0,0,1.41429,-1389.33,-1046.26)">
            <path d="M3580.26,2450.69C3583.65,2450.69 3585.78,2448.14 3585.78,2445.17L3585.78,2393.84C3585.78,2390.38 3583.3,2388.32 3580.26,2388.32L3528.93,2388.32C3525.46,2388.32 3523.41,2390.66 3523.41,2393.84L3523.41,2445.17C3523.41,2448.35 3525.89,2450.69 3528.93,2450.69L3580.26,2450.69ZM3582.88,2445.45C3582.88,2447.01 3581.82,2447.79 3580.61,2447.79L3528.57,2447.79C3527.09,2447.79 3526.31,2446.73 3526.31,2445.45L3526.31,2393.49C3526.31,2392.07 3527.23,2391.22 3528.57,2391.22L3580.61,2391.22C3582.03,2391.22 3582.88,2392.28 3582.88,2393.49L3582.88,2445.45ZM3553.04,2433.36C3553.04,2435.41 3552.9,2437.61 3552.9,2438.45C3552.9,2439.45 3554.52,2440.08 3555.65,2440.08C3556.22,2440.08 3556.64,2439.87 3556.64,2439.52C3556.64,2438.17 3556.43,2435.77 3556.43,2433.43L3556.43,2405.86C3556.43,2403.81 3556.57,2401.69 3556.57,2400.77C3556.57,2399.78 3554.95,2399.14 3553.82,2399.14C3553.25,2399.14 3552.83,2399.35 3552.83,2399.71C3552.83,2401.05 3553.04,2403.45 3553.04,2405.79L3553.04,2433.36Z" style="fill-rule:nonzero;"/>
        </g>
    </g>
</svg>
