<?xml version="1.0" encoding="UTF-8" standalone="no"?>
<!DOCTYPE svg PUBLIC "-//W3C//DTD SVG 1.1//EN" "http://www.w3.org/Graphics/SVG/1.1/DTD/svg11.dtd">
<svg width="100%" height="100%" viewBox="0 0 89 89" version="1.1" xmlns="http://www.w3.org/2000/svg" xmlns:xlink="http://www.w3.org/1999/xlink" xml:space="preserve" xmlns:serif="http://www.serif.com/" style="fill-rule:evenodd;clip-rule:evenodd;stroke-linejoin:round;stroke-miterlimit:2;">
    <g transform="matrix(1,0,0,1,-1640.22,-1938.66)">
        <g transform="matrix(1,0,0,1,-1072.97,-2735.12)">
            <path d="M2801.38,4761.99L2801.38,4673.79L2713.18,4673.79L2713.18,4761.99L2801.38,4761.99ZM2797.28,4757.89L2717.28,4757.89L2717.28,4677.89L2797.28,4677.89L2797.28,4757.89ZM2755.08,4737.49C2755.08,4740.39 2754.88,4743.49 2754.88,4744.69C2754.88,4746.09 2757.18,4746.99 2758.78,4746.99C2759.58,4746.99 2760.18,4746.69 2760.18,4746.19C2760.18,4744.29 2759.88,4740.89 2759.88,4737.59L2759.88,4698.59C2759.88,4695.69 2760.08,4692.69 2760.08,4691.39C2760.08,4689.99 2757.78,4689.09 2756.18,4689.09C2755.38,4689.09 2754.78,4689.39 2754.78,4689.89C2754.78,4691.79 2755.08,4695.19 2755.08,4698.49L2755.08,4737.49Z" style="fill-rule:nonzero;"/>
        </g>
    </g>
</svg>
