<?xml version="1.0" encoding="UTF-8" standalone="no"?>
<!DOCTYPE svg PUBLIC "-//W3C//DTD SVG 1.1//EN" "http://www.w3.org/Graphics/SVG/1.1/DTD/svg11.dtd">
<svg width="100%" height="100%" viewBox="0 0 7 72" version="1.1" xmlns="http://www.w3.org/2000/svg" xmlns:xlink="http://www.w3.org/1999/xlink" xml:space="preserve" xmlns:serif="http://www.serif.com/" style="fill-rule:evenodd;clip-rule:evenodd;stroke-linejoin:round;stroke-miterlimit:2;">
    <g transform="matrix(1,0,0,1,-612.68,-5881.97)">
        <g transform="matrix(1,0,0,1,-504.034,-1124.47)">
            <path d="M1117.01,7066.24C1117.01,7069.74 1116.81,7073.54 1116.81,7075.14C1116.81,7076.84 1119.61,7077.94 1121.51,7077.94C1122.51,7077.94 1123.21,7077.64 1123.21,7076.94C1123.21,7074.64 1122.91,7070.44 1122.91,7066.34L1122.91,7018.14C1122.91,7014.64 1123.11,7010.84 1123.11,7009.24C1123.11,7007.54 1120.31,7006.44 1118.41,7006.44C1117.41,7006.44 1116.71,7006.74 1116.71,7007.44C1116.71,7009.74 1117.01,7013.94 1117.01,7018.04L1117.01,7066.24Z" style="fill-rule:nonzero;"/>
        </g>
    </g>
</svg>
