<?xml version="1.0" encoding="UTF-8" standalone="no"?>
<!DOCTYPE svg PUBLIC "-//W3C//DTD SVG 1.1//EN" "http://www.w3.org/Graphics/SVG/1.1/DTD/svg11.dtd">
<svg width="100%" height="100%" viewBox="0 0 36 72" version="1.1" xmlns="http://www.w3.org/2000/svg" xmlns:xlink="http://www.w3.org/1999/xlink" xml:space="preserve" xmlns:serif="http://www.serif.com/" style="fill-rule:evenodd;clip-rule:evenodd;stroke-linejoin:round;stroke-miterlimit:2;">
    <g transform="matrix(1,0,0,1,-698.18,-5881.97)">
        <g transform="matrix(1,0,0,1,-504.034,-1124.47)">
            <path d="M1231.41,7066.14C1231.41,7069.64 1231.21,7073.44 1231.21,7075.04C1231.21,7076.74 1233.91,7077.84 1235.81,7077.84C1236.81,7077.84 1237.61,7077.54 1237.61,7076.84C1237.61,7074.54 1237.31,7070.34 1237.31,7066.24L1237.31,7018.34C1237.31,7014.84 1237.51,7011.04 1237.51,7009.44C1237.51,7007.74 1234.81,7006.44 1232.91,7006.44C1231.91,7006.44 1231.11,7006.84 1231.11,7007.74C1231.11,7010.04 1231.41,7013.84 1231.41,7017.94L1231.41,7066.14ZM1202.51,7066.14C1202.51,7069.64 1202.31,7073.44 1202.31,7075.04C1202.31,7076.74 1205.01,7077.84 1206.91,7077.84C1207.91,7077.84 1208.71,7077.54 1208.71,7076.84C1208.71,7074.54 1208.41,7070.34 1208.41,7066.24L1208.41,7018.34C1208.41,7014.84 1208.61,7011.04 1208.61,7009.44C1208.61,7007.74 1205.91,7006.44 1204.01,7006.44C1203.01,7006.44 1202.21,7006.84 1202.21,7007.74C1202.21,7010.04 1202.51,7013.84 1202.51,7017.94L1202.51,7066.14Z" style="fill-rule:nonzero;"/>
        </g>
    </g>
</svg>
