<?xml version="1.0" encoding="UTF-8" standalone="no"?>
<!DOCTYPE svg PUBLIC "-//W3C//DTD SVG 1.1//EN" "http://www.w3.org/Graphics/SVG/1.1/DTD/svg11.dtd">
<svg width="100%" height="100%" viewBox="0 0 52 72" version="1.1" xmlns="http://www.w3.org/2000/svg" xmlns:xlink="http://www.w3.org/1999/xlink" xml:space="preserve" xmlns:serif="http://www.serif.com/" style="fill-rule:evenodd;clip-rule:evenodd;stroke-linejoin:round;stroke-miterlimit:2;">
    <g transform="matrix(1,0,0,1,-790.18,-5881.97)">
        <g transform="matrix(1,0,0,1,-504.034,-1124.47)">
            <path d="M1339.51,7066.14C1339.51,7069.64 1339.31,7073.44 1339.31,7075.04C1339.31,7076.74 1342.01,7077.84 1343.91,7077.84C1344.81,7077.84 1345.61,7077.54 1345.61,7076.84C1345.61,7074.54 1345.31,7070.34 1345.31,7066.24L1345.31,7018.34C1345.31,7014.84 1345.51,7011.04 1345.51,7009.44C1345.51,7007.74 1342.91,7006.44 1341.01,7006.44C1340.01,7006.44 1339.21,7006.84 1339.21,7007.74C1339.21,7010.04 1339.51,7013.84 1339.51,7017.94L1339.51,7066.14ZM1317.01,7066.14C1317.01,7069.64 1316.81,7073.44 1316.81,7075.04C1316.81,7076.74 1319.51,7077.84 1321.41,7077.84C1322.31,7077.84 1323.11,7077.54 1323.11,7076.84C1323.11,7074.54 1322.81,7070.34 1322.81,7066.24L1322.81,7018.34C1322.81,7014.84 1323.01,7011.04 1323.01,7009.44C1323.01,7007.74 1320.41,7006.44 1318.51,7006.44C1317.51,7006.44 1316.71,7006.84 1316.71,7007.74C1316.71,7010.04 1317.01,7013.84 1317.01,7017.94L1317.01,7066.14ZM1294.51,7066.14C1294.51,7069.64 1294.31,7073.44 1294.31,7075.04C1294.31,7076.74 1297.01,7077.84 1298.91,7077.84C1299.81,7077.84 1300.61,7077.54 1300.61,7076.84C1300.61,7074.54 1300.31,7070.34 1300.31,7066.24L1300.31,7018.34C1300.31,7014.84 1300.51,7011.04 1300.51,7009.44C1300.51,7007.74 1297.91,7006.44 1296.01,7006.44C1295.01,7006.44 1294.21,7006.84 1294.21,7007.74C1294.21,7010.04 1294.51,7013.84 1294.51,7017.94L1294.51,7066.14Z" style="fill-rule:nonzero;"/>
        </g>
    </g>
</svg>
