<?xml version="1.0" encoding="UTF-8" standalone="no"?>
<!DOCTYPE svg PUBLIC "-//W3C//DTD SVG 1.1//EN" "http://www.w3.org/Graphics/SVG/1.1/DTD/svg11.dtd">
<svg width="100%" height="100%" viewBox="0 0 81 41" version="1.1" xmlns="http://www.w3.org/2000/svg" xmlns:xlink="http://www.w3.org/1999/xlink" xml:space="preserve" xmlns:serif="http://www.serif.com/" style="fill-rule:evenodd;clip-rule:evenodd;stroke-linejoin:round;stroke-miterlimit:2;">
    <g transform="matrix(1,0,0,1,-4226.13,-2185.67)">
        <g transform="matrix(1.41414,0,0,1.41429,-1534.59,-78.5653)">
            <path d="M4102.01,1620.06C4103.7,1625.23 4107.45,1629.82 4114.88,1629.82C4123.78,1629.82 4130.64,1621.48 4130.64,1613.28C4130.64,1605.64 4125.48,1600.97 4117.63,1600.97C4110.42,1600.97 4105.05,1606.06 4102.15,1611.15C4100.03,1605.22 4096.77,1600.97 4089.49,1600.97C4081.15,1600.97 4073.65,1609.03 4073.65,1617.52C4073.65,1625.23 4078.67,1629.82 4086.59,1629.82C4093.95,1629.82 4099.18,1624.94 4102.01,1620.06ZM4104.76,1613.77C4107.17,1609.03 4111.62,1604.58 4117.63,1604.58C4123.36,1604.58 4126.97,1607.76 4126.97,1613.28C4126.97,1619.78 4120.96,1626.22 4114.88,1626.22C4108.86,1626.22 4106.89,1623.17 4104.62,1617.66C4104.34,1617.02 4104.06,1615.96 4103.92,1615.61L4104.76,1613.77ZM4100.24,1615.68C4099.82,1617.31 4095.43,1626.22 4086.59,1626.22C4080.72,1626.22 4077.33,1623.11 4077.33,1617.52C4077.33,1611.58 4083.2,1604.58 4089.49,1604.58C4094.87,1604.58 4097.62,1607.9 4100.24,1615.68Z" style="fill-rule:nonzero;"/>
        </g>
    </g>
</svg>
