<?xml version="1.0" encoding="UTF-8" standalone="no"?>
<!DOCTYPE svg PUBLIC "-//W3C//DTD SVG 1.1//EN" "http://www.w3.org/Graphics/SVG/1.1/DTD/svg11.dtd">
<svg width="100%" height="100%" viewBox="0 0 61 72" version="1.1" xmlns="http://www.w3.org/2000/svg" xmlns:xlink="http://www.w3.org/1999/xlink" xml:space="preserve" xmlns:serif="http://www.serif.com/" style="fill-rule:evenodd;clip-rule:evenodd;stroke-linejoin:round;stroke-miterlimit:2;">
    <g transform="matrix(1,0,0,1,-5360.93,-2745.76)">
        <g transform="matrix(1,0,0,1,1,0)">
            <path d="M5400.82,2798.66C5400.82,2798.46 5400.82,2798.36 5400.72,2798.16C5400.12,2795.96 5399.82,2794.36 5399.82,2792.56C5399.82,2791.86 5399.82,2791.06 5399.92,2790.26C5401.22,2779.16 5420.42,2776.76 5420.42,2759.46C5420.42,2750.86 5414.02,2745.76 5403.92,2745.76C5392.42,2745.76 5384.02,2750.36 5377.82,2761.26C5377.62,2761.56 5377.52,2761.86 5377.52,2762.16C5377.52,2763.86 5379.72,2765.56 5381.42,2765.56C5382.22,2765.56 5382.82,2765.16 5383.12,2764.26C5384.22,2760.36 5390.42,2750.66 5404.02,2750.66C5410.62,2750.66 5414.52,2754.06 5414.52,2760.06C5414.52,2773.96 5396.52,2776.26 5394.62,2789.36C5394.32,2791.26 5394.22,2792.96 5394.22,2794.46C5394.22,2797.16 5394.22,2800.06 5398.52,2800.06C5399.72,2800.06 5400.82,2799.56 5400.82,2798.66ZM5366.82,2794.56L5367.62,2755.96C5367.72,2753.56 5368.02,2750.96 5368.22,2748.86L5368.22,2748.66C5368.22,2747.16 5365.43,2745.76 5363.53,2745.76C5362.43,2745.76 5361.53,2746.26 5361.53,2747.36L5361.53,2747.56C5361.62,2748.36 5362.03,2752.76 5362.03,2755.46L5362.23,2794.16C5362.23,2795.46 5362.12,2797.06 5362.03,2798.06L5362.03,2798.16C5362.03,2799.36 5364.12,2800.26 5365.62,2800.26C5366.32,2800.26 5366.82,2800.06 5366.82,2799.56L5366.82,2794.56ZM5398.02,2817.36C5400.52,2817.36 5402.02,2815.76 5402.02,2813.16C5402.02,2810.46 5399.42,2807.36 5397.02,2807.36C5394.32,2807.36 5392.92,2809.06 5392.92,2811.76C5392.92,2814.26 5395.32,2817.36 5398.02,2817.36ZM5365.03,2817.36C5367.52,2817.36 5369.02,2815.76 5369.02,2813.16C5369.02,2810.46 5366.43,2807.36 5364.03,2807.36C5361.32,2807.36 5359.93,2809.06 5359.93,2811.76C5359.93,2814.26 5362.32,2817.36 5365.03,2817.36Z" style="fill-rule:nonzero;"/>
        </g>
    </g>
</svg>
