<?xml version="1.0" encoding="UTF-8" standalone="no"?>
<!DOCTYPE svg PUBLIC "-//W3C//DTD SVG 1.1//EN" "http://www.w3.org/Graphics/SVG/1.1/DTD/svg11.dtd">
<svg width="100%" height="100%" viewBox="0 0 7 72" version="1.1" xmlns="http://www.w3.org/2000/svg" xmlns:xlink="http://www.w3.org/1999/xlink" xml:space="preserve" xmlns:serif="http://www.serif.com/" style="fill-rule:evenodd;clip-rule:evenodd;stroke-linejoin:round;stroke-miterlimit:2;">
    <g transform="matrix(1,0,0,1,-4063.15,-2623.27)">
        <g transform="matrix(1.41414,0,0,1.41429,-1534.59,-78.5653)">
            <path d="M3958.61,1952.67C3958.61,1955.14 3958.47,1957.83 3958.47,1958.96C3958.47,1960.16 3960.45,1960.94 3961.87,1960.94C3962.5,1960.94 3963.07,1960.73 3963.07,1960.24C3963.07,1958.61 3962.86,1955.64 3962.86,1952.74L3962.86,1918.66C3962.86,1916.18 3963,1913.5 3963,1912.37C3963,1911.16 3961.02,1910.39 3959.6,1910.39C3958.97,1910.39 3958.4,1910.6 3958.4,1911.1C3958.4,1912.72 3958.61,1915.69 3958.61,1918.59L3958.61,1952.67Z" style="fill-rule:nonzero;"/>
        </g>
    </g>
</svg>
