<?xml version="1.0" encoding="UTF-8" standalone="no"?>
<!DOCTYPE svg PUBLIC "-//W3C//DTD SVG 1.1//EN" "http://www.w3.org/Graphics/SVG/1.1/DTD/svg11.dtd">
<svg width="100%" height="100%" viewBox="0 0 66 73" version="1.1" xmlns="http://www.w3.org/2000/svg" xmlns:xlink="http://www.w3.org/1999/xlink" xml:space="preserve" xmlns:serif="http://www.serif.com/" style="fill-rule:evenodd;clip-rule:evenodd;stroke-linejoin:round;stroke-miterlimit:2;">
    <g transform="matrix(1,0,0,1,-887.48,-5881.37)">
        <g transform="matrix(1,0,0,1,-504.034,-1124.47)">
            <path d="M1431.21,7069.14C1426.11,7050.34 1420.21,7031.44 1414.61,7015.24C1414.01,7013.54 1413.21,7010.44 1412.81,7008.54C1412.51,7007.24 1410.41,7006.64 1408.51,7006.64C1406.91,7006.64 1405.51,7007.14 1405.51,7008.04C1405.51,7008.14 1405.51,7008.24 1405.61,7008.44C1411.21,7020.14 1420.81,7051.14 1426.61,7072.14C1427.71,7076.34 1430.31,7078.44 1432.21,7078.44C1433.41,7078.44 1434.41,7077.64 1434.81,7076.14C1435.11,7074.84 1449.81,7023.04 1456.41,7009.94C1456.51,7009.74 1456.61,7009.44 1456.61,7009.24C1456.61,7007.44 1453.61,7005.84 1451.81,7005.84C1451.01,7005.84 1450.31,7006.14 1450.21,7006.84C1449.61,7009.84 1448.21,7014.44 1447.61,7016.24C1442.71,7030.54 1436.41,7050.54 1431.21,7069.14ZM1391.81,7066.14C1391.81,7069.64 1391.61,7073.44 1391.61,7075.04C1391.61,7076.74 1394.31,7077.84 1396.21,7077.84C1397.11,7077.84 1397.91,7077.54 1397.91,7076.84C1397.91,7074.54 1397.61,7070.34 1397.61,7066.24L1397.61,7018.34C1397.61,7014.84 1397.81,7011.04 1397.81,7009.44C1397.81,7007.74 1395.21,7006.44 1393.31,7006.44C1392.31,7006.44 1391.51,7006.84 1391.51,7007.74C1391.51,7010.04 1391.81,7013.84 1391.81,7017.94L1391.81,7066.14Z" style="fill-rule:nonzero;"/>
        </g>
    </g>
</svg>
