<?xml version="1.0" encoding="UTF-8" standalone="no"?>
<!DOCTYPE svg PUBLIC "-//W3C//DTD SVG 1.1//EN" "http://www.w3.org/Graphics/SVG/1.1/DTD/svg11.dtd">
<svg width="100%" height="100%" viewBox="0 0 66 72" version="1.1" xmlns="http://www.w3.org/2000/svg" xmlns:xlink="http://www.w3.org/1999/xlink" xml:space="preserve" xmlns:serif="http://www.serif.com/" style="fill-rule:evenodd;clip-rule:evenodd;stroke-linejoin:round;stroke-miterlimit:2;">
    <g transform="matrix(1,0,0,1,-1387.48,-5881.87)">
        <g transform="matrix(1,0,0,1,-504.034,-1124.47)">
            <path d="M1932.31,7044.84C1937.21,7053.34 1941.91,7061.44 1946.11,7068.34C1948.01,7071.44 1949.51,7074.34 1950.81,7076.94C1951.11,7077.64 1951.81,7077.94 1952.51,7077.94C1954.41,7077.94 1957.21,7076.14 1957.21,7074.64C1957.21,7074.34 1957.11,7074.04 1956.91,7073.84C1951.11,7066.74 1944.21,7054.84 1935.41,7039.74C1947.41,7019.34 1951.51,7013.64 1954.21,7010.34C1954.41,7010.14 1954.51,7009.84 1954.51,7009.64C1954.51,7008.04 1951.61,7006.34 1949.71,7006.34C1949.01,7006.34 1948.51,7006.54 1948.21,7007.04C1945.41,7012.54 1941.51,7019.04 1932.21,7034.34C1928.51,7027.84 1924.61,7021.14 1920.61,7014.74C1918.81,7011.94 1917.31,7009.34 1916.21,7007.14C1915.91,7006.64 1915.11,7006.34 1914.21,7006.34C1912.11,7006.34 1909.41,7007.44 1909.41,7008.84C1909.41,7009.14 1909.51,7009.44 1909.81,7009.74C1914.61,7014.94 1920.91,7024.94 1929.21,7039.44C1917.71,7058.74 1912.31,7067.34 1906.91,7074.44C1906.71,7074.74 1906.61,7074.94 1906.61,7075.24C1906.61,7076.64 1908.91,7077.94 1910.81,7077.94C1912.71,7077.94 1912.81,7077.64 1918.11,7068.34C1922.71,7060.44 1927.51,7052.64 1932.31,7044.84ZM1891.81,7066.14C1891.81,7069.64 1891.61,7073.44 1891.61,7075.04C1891.61,7076.74 1894.31,7077.84 1896.21,7077.84C1897.11,7077.84 1897.91,7077.54 1897.91,7076.84C1897.91,7074.54 1897.61,7070.34 1897.61,7066.24L1897.61,7018.34C1897.61,7014.84 1897.81,7011.04 1897.81,7009.44C1897.81,7007.74 1895.21,7006.44 1893.31,7006.44C1892.31,7006.44 1891.51,7006.84 1891.51,7007.74C1891.51,7010.04 1891.81,7013.84 1891.81,7017.94L1891.81,7066.14Z" style="fill-rule:nonzero;"/>
        </g>
    </g>
</svg>
