<?xml version="1.0" encoding="UTF-8" standalone="no"?>
<!DOCTYPE svg PUBLIC "-//W3C//DTD SVG 1.1//EN" "http://www.w3.org/Graphics/SVG/1.1/DTD/svg11.dtd">
<svg width="100%" height="100%" viewBox="0 0 96 96" version="1.1" xmlns="http://www.w3.org/2000/svg" xmlns:xlink="http://www.w3.org/1999/xlink" xml:space="preserve" xmlns:serif="http://www.serif.com/" style="fill-rule:evenodd;clip-rule:evenodd;stroke-linejoin:round;stroke-miterlimit:2;">
    <g transform="matrix(1,0,0,1,-1009.63,-2723.28)">
        <g transform="matrix(1,0,0,1,-110.019,-3591.86)">
            <path d="M1215.25,6362.94C1215.25,6336.55 1193.85,6315.15 1167.45,6315.15C1141.05,6315.15 1119.65,6336.55 1119.65,6362.94C1119.65,6389.35 1141.05,6410.65 1167.45,6410.65C1193.85,6410.65 1215.25,6389.35 1215.25,6362.94ZM1211.15,6362.94C1211.15,6387.05 1191.55,6406.55 1167.45,6406.55C1143.35,6406.55 1123.75,6387.05 1123.75,6362.94C1123.75,6338.85 1143.35,6319.24 1167.45,6319.24C1191.55,6319.24 1211.15,6338.85 1211.15,6362.94ZM1173.45,6376.65C1173.45,6385.35 1168.45,6387.94 1163.95,6387.94C1158.15,6387.94 1153.95,6382.85 1153.05,6378.15C1152.95,6377.55 1152.55,6377.35 1152.15,6377.35C1150.85,6377.35 1148.75,6379.24 1148.75,6381.15C1148.75,6381.44 1148.75,6381.74 1148.85,6381.94C1151.15,6388.74 1157.95,6392.44 1164.25,6392.44C1171.45,6392.44 1178.25,6389.05 1178.25,6376.85L1178.25,6343.65C1178.25,6340.74 1178.45,6337.65 1178.45,6336.35C1178.45,6335.05 1176.25,6334.15 1174.65,6334.15C1173.85,6334.15 1173.25,6334.35 1173.25,6334.94C1173.25,6336.74 1173.45,6340.24 1173.45,6343.55L1173.45,6376.65Z" style="fill-rule:nonzero;"/>
        </g>
    </g>
</svg>
