<?xml version="1.0" encoding="UTF-8" standalone="no"?>
<!DOCTYPE svg PUBLIC "-//W3C//DTD SVG 1.1//EN" "http://www.w3.org/Graphics/SVG/1.1/DTD/svg11.dtd">
<svg width="100%" height="100%" viewBox="0 0 89 89" version="1.1" xmlns="http://www.w3.org/2000/svg" xmlns:xlink="http://www.w3.org/1999/xlink" xml:space="preserve" xmlns:serif="http://www.serif.com/" style="fill-rule:evenodd;clip-rule:evenodd;stroke-linejoin:round;stroke-miterlimit:2;">
    <g transform="matrix(1,0,0,1,-2402.42,-2342.27)">
        <g transform="matrix(1.41414,0,0,1.41429,-1052.39,-837.704)">
            <path d="M2499.89,2310.83C2503.29,2310.83 2505.41,2308.29 2505.41,2305.32L2505.41,2253.98C2505.41,2250.52 2502.93,2248.47 2499.89,2248.47L2448.56,2248.47C2445.1,2248.47 2443.04,2250.8 2443.04,2253.98L2443.04,2305.32C2443.04,2308.5 2445.52,2310.83 2448.56,2310.83L2499.89,2310.83ZM2482.92,2289.55C2482.92,2298.88 2477.55,2301.64 2471.96,2301.64C2464.12,2301.64 2459.94,2294.99 2459.94,2292.59C2459.94,2290.68 2461.85,2288.84 2463.41,2288.84C2464.12,2288.84 2464.89,2289.27 2465.11,2290.26C2465.39,2292.24 2467.58,2296.34 2471.75,2296.34C2474.37,2296.34 2477.41,2294.92 2477.41,2289.41L2477.41,2266.01C2477.41,2263.67 2477.27,2261.2 2477.27,2259.92C2477.27,2258.93 2478.04,2258.3 2479.32,2258.3C2481.01,2258.3 2483.07,2259.57 2483.07,2260.91C2483.07,2261.83 2482.92,2264.03 2482.92,2266.08L2482.92,2289.55Z" style="fill-rule:nonzero;"/>
        </g>
    </g>
</svg>
