<?xml version="1.0" encoding="UTF-8" standalone="no"?>
<!DOCTYPE svg PUBLIC "-//W3C//DTD SVG 1.1//EN" "http://www.w3.org/Graphics/SVG/1.1/DTD/svg11.dtd">
<svg width="100%" height="100%" viewBox="0 0 89 89" version="1.1" xmlns="http://www.w3.org/2000/svg" xmlns:xlink="http://www.w3.org/1999/xlink" xml:space="preserve" xmlns:serif="http://www.serif.com/" style="fill-rule:evenodd;clip-rule:evenodd;stroke-linejoin:round;stroke-miterlimit:2;">
    <g transform="matrix(1,0,0,1,-1058.69,-2371.63)">
        <g transform="matrix(1.41414,0,0,1.41429,-177.055,-770.755)">
            <path d="M936.211,2284.25L936.211,2221.89L873.847,2221.89L873.847,2284.25L936.211,2284.25ZM913.726,2262.97C913.726,2272.3 908.352,2275.06 902.766,2275.06C894.918,2275.06 890.746,2268.41 890.746,2266.01C890.746,2264.1 892.655,2262.26 894.211,2262.26C894.918,2262.26 895.695,2262.69 895.908,2263.68C896.19,2265.66 898.382,2269.76 902.554,2269.76C905.17,2269.76 908.211,2268.34 908.211,2262.83L908.211,2239.43C908.211,2237.09 908.069,2234.62 908.069,2233.34C908.069,2232.35 908.847,2231.72 910.12,2231.72C911.817,2231.72 913.867,2232.99 913.867,2234.33C913.867,2235.25 913.726,2237.45 913.726,2239.5L913.726,2262.97Z" style="fill-rule:nonzero;"/>
        </g>
    </g>
</svg>
