<?xml version="1.0" encoding="UTF-8" standalone="no"?>
<!DOCTYPE svg PUBLIC "-//W3C//DTD SVG 1.1//EN" "http://www.w3.org/Graphics/SVG/1.1/DTD/svg11.dtd">
<svg width="100%" height="100%" viewBox="0 0 96 96" version="1.1" xmlns="http://www.w3.org/2000/svg" xmlns:xlink="http://www.w3.org/1999/xlink" xml:space="preserve" xmlns:serif="http://www.serif.com/" style="fill-rule:evenodd;clip-rule:evenodd;stroke-linejoin:round;stroke-miterlimit:2;">
    <g transform="matrix(1,0,0,1,-1409.63,-3923.28)">
        <g transform="matrix(1,0,0,1,-110.019,-3591.86)">
            <path d="M1615.25,7562.94C1615.25,7536.55 1593.85,7515.15 1567.45,7515.15C1541.05,7515.15 1519.65,7536.55 1519.65,7562.94C1519.65,7589.35 1541.05,7610.65 1567.45,7610.65C1593.85,7610.65 1615.25,7589.35 1615.25,7562.94ZM1579.75,7576.85C1579.75,7590.05 1572.15,7593.94 1564.25,7593.94C1553.15,7593.94 1547.25,7584.55 1547.25,7581.15C1547.25,7578.44 1549.95,7575.85 1552.15,7575.85C1553.15,7575.85 1554.25,7576.44 1554.55,7577.85C1554.95,7580.65 1558.05,7586.44 1563.95,7586.44C1567.65,7586.44 1571.95,7584.44 1571.95,7576.65L1571.95,7543.55C1571.95,7540.24 1571.75,7536.74 1571.75,7534.94C1571.75,7533.55 1572.85,7532.65 1574.65,7532.65C1577.05,7532.65 1579.95,7534.44 1579.95,7536.35C1579.95,7537.65 1579.75,7540.74 1579.75,7543.65L1579.75,7576.85Z" style="fill-rule:nonzero;"/>
        </g>
    </g>
</svg>
