<?xml version="1.0" encoding="UTF-8" standalone="no"?>
<!DOCTYPE svg PUBLIC "-//W3C//DTD SVG 1.1//EN" "http://www.w3.org/Graphics/SVG/1.1/DTD/svg11.dtd">
<svg width="100%" height="100%" viewBox="0 0 98 90" version="1.1" xmlns="http://www.w3.org/2000/svg" xmlns:xlink="http://www.w3.org/1999/xlink" xml:space="preserve" xmlns:serif="http://www.serif.com/" style="fill-rule:evenodd;clip-rule:evenodd;stroke-linejoin:round;stroke-miterlimit:2;">
    <g transform="matrix(1,0,0,1,-6037.36,-2285.56)">
        <g transform="matrix(1,0,0,1,1,0)">
            <path d="M6115.05,2374.76C6117.35,2374.76 6134.05,2357.26 6134.05,2330.16C6134.05,2302.96 6117.35,2285.56 6115.05,2285.56C6114.35,2285.56 6113.85,2286.06 6113.85,2286.76C6113.85,2287.16 6113.95,2287.66 6114.35,2288.06C6124.15,2299.76 6128.75,2315.96 6128.75,2330.16C6128.75,2344.36 6124.15,2360.56 6114.35,2372.26C6113.95,2372.66 6113.85,2373.16 6113.85,2373.56C6113.85,2374.26 6114.35,2374.76 6115.05,2374.76ZM6056.55,2373.56C6056.55,2373.16 6056.45,2372.66 6056.05,2372.26C6046.26,2360.56 6041.66,2344.36 6041.66,2330.16C6041.66,2315.96 6046.26,2299.76 6056.05,2288.06C6056.45,2287.66 6056.55,2287.16 6056.55,2286.76C6056.55,2286.06 6056.05,2285.56 6055.35,2285.56C6053.05,2285.56 6036.36,2302.96 6036.36,2330.16C6036.36,2357.26 6053.05,2374.76 6055.35,2374.76C6056.05,2374.76 6056.55,2374.26 6056.55,2373.56ZM6091.25,2343.86C6091.25,2352.56 6086.25,2355.16 6081.75,2355.16C6075.95,2355.16 6071.75,2350.06 6070.85,2345.36C6070.75,2344.76 6070.35,2344.56 6069.95,2344.56C6068.65,2344.56 6066.55,2346.46 6066.55,2348.36C6066.55,2348.66 6066.55,2348.96 6066.65,2349.16C6068.95,2355.96 6075.75,2359.66 6082.05,2359.66C6089.25,2359.66 6096.05,2356.26 6096.05,2344.06L6096.05,2310.86C6096.05,2307.96 6096.25,2304.86 6096.25,2303.56C6096.25,2302.26 6094.05,2301.36 6092.45,2301.36C6091.65,2301.36 6091.05,2301.56 6091.05,2302.16C6091.05,2303.96 6091.25,2307.46 6091.25,2310.76L6091.25,2343.86Z" style="fill-rule:nonzero;"/>
        </g>
    </g>
</svg>
