<?xml version="1.0" encoding="UTF-8" standalone="no"?>
<!DOCTYPE svg PUBLIC "-//W3C//DTD SVG 1.1//EN" "http://www.w3.org/Graphics/SVG/1.1/DTD/svg11.dtd">
<svg width="100%" height="100%" viewBox="0 0 89 89" version="1.1" xmlns="http://www.w3.org/2000/svg" xmlns:xlink="http://www.w3.org/1999/xlink" xml:space="preserve" xmlns:serif="http://www.serif.com/" style="fill-rule:evenodd;clip-rule:evenodd;stroke-linejoin:round;stroke-miterlimit:2;">
    <g transform="matrix(1,0,0,1,-3693.26,-2331.51)">
        <g transform="matrix(1.41414,0,0,1.41429,-1389.33,-1046.26)">
            <path d="M3650.97,2450.69C3654.36,2450.69 3656.48,2448.14 3656.48,2445.17L3656.48,2393.84C3656.48,2390.38 3654.01,2388.32 3650.97,2388.32L3599.63,2388.32C3596.17,2388.32 3594.12,2390.66 3594.12,2393.84L3594.12,2445.17C3594.12,2448.35 3596.59,2450.69 3599.63,2450.69L3650.97,2450.69ZM3653.58,2445.45C3653.58,2447.01 3652.52,2447.79 3651.32,2447.79L3599.28,2447.79C3597.8,2447.79 3597.02,2446.73 3597.02,2445.45L3597.02,2393.49C3597.02,2392.07 3597.94,2391.22 3599.28,2391.22L3651.32,2391.22C3652.73,2391.22 3653.58,2392.28 3653.58,2393.49L3653.58,2445.45ZM3629.54,2429.26C3629.54,2435.41 3626.01,2437.25 3622.83,2437.25C3618.72,2437.25 3615.76,2433.65 3615.12,2430.32C3615.05,2429.9 3614.76,2429.76 3614.48,2429.76C3613.56,2429.76 3612.08,2431.1 3612.08,2432.45C3612.08,2432.66 3612.08,2432.87 3612.15,2433.01C3613.78,2437.82 3618.58,2440.43 3623.04,2440.43C3628.13,2440.43 3632.94,2438.03 3632.94,2429.41L3632.94,2405.93C3632.94,2403.88 3633.08,2401.69 3633.08,2400.77C3633.08,2399.85 3631.52,2399.21 3630.39,2399.21C3629.83,2399.21 3629.4,2399.35 3629.4,2399.78C3629.4,2401.05 3629.54,2403.53 3629.54,2405.86L3629.54,2429.26Z" style="fill-rule:nonzero;"/>
        </g>
    </g>
</svg>
