<?xml version="1.0" encoding="UTF-8" standalone="no"?>
<!DOCTYPE svg PUBLIC "-//W3C//DTD SVG 1.1//EN" "http://www.w3.org/Graphics/SVG/1.1/DTD/svg11.dtd">
<svg width="100%" height="100%" viewBox="0 0 89 89" version="1.1" xmlns="http://www.w3.org/2000/svg" xmlns:xlink="http://www.w3.org/1999/xlink" xml:space="preserve" xmlns:serif="http://www.serif.com/" style="fill-rule:evenodd;clip-rule:evenodd;stroke-linejoin:round;stroke-miterlimit:2;">
    <g transform="matrix(1,0,0,1,-1740.22,-1938.66)">
        <g transform="matrix(1,0,0,1,-1072.97,-2735.12)">
            <path d="M2901.38,4761.99L2901.38,4673.79L2813.18,4673.79L2813.18,4761.99L2901.38,4761.99ZM2897.28,4757.89L2817.28,4757.89L2817.28,4677.89L2897.28,4677.89L2897.28,4757.89ZM2863.28,4731.69C2863.28,4740.39 2858.28,4742.99 2853.78,4742.99C2847.98,4742.99 2843.78,4737.89 2842.88,4733.19C2842.78,4732.59 2842.38,4732.39 2841.98,4732.39C2840.68,4732.39 2838.58,4734.29 2838.58,4736.19C2838.58,4736.49 2838.58,4736.79 2838.68,4736.99C2840.98,4743.79 2847.78,4747.49 2854.08,4747.49C2861.28,4747.49 2868.08,4744.09 2868.08,4731.89L2868.08,4698.69C2868.08,4695.79 2868.28,4692.69 2868.28,4691.39C2868.28,4690.09 2866.08,4689.19 2864.48,4689.19C2863.68,4689.19 2863.08,4689.39 2863.08,4689.99C2863.08,4691.79 2863.28,4695.29 2863.28,4698.59L2863.28,4731.69Z" style="fill-rule:nonzero;"/>
        </g>
    </g>
</svg>
