<?xml version="1.0" encoding="UTF-8" standalone="no"?>
<!DOCTYPE svg PUBLIC "-//W3C//DTD SVG 1.1//EN" "http://www.w3.org/Graphics/SVG/1.1/DTD/svg11.dtd">
<svg width="100%" height="100%" viewBox="0 0 96 96" version="1.1" xmlns="http://www.w3.org/2000/svg" xmlns:xlink="http://www.w3.org/1999/xlink" xml:space="preserve" xmlns:serif="http://www.serif.com/" style="fill-rule:evenodd;clip-rule:evenodd;stroke-linejoin:round;stroke-miterlimit:2;">
    <g transform="matrix(1,0,0,1,-1109.63,-2723.28)">
        <g transform="matrix(1,0,0,1,-110.019,-3591.86)">
            <path d="M1315.25,6362.94C1315.25,6336.55 1293.85,6315.15 1267.45,6315.15C1241.05,6315.15 1219.65,6336.55 1219.65,6362.94C1219.65,6389.35 1241.05,6410.65 1267.45,6410.65C1293.85,6410.65 1315.25,6389.35 1315.25,6362.94ZM1311.15,6362.94C1311.15,6387.05 1291.55,6406.55 1267.45,6406.55C1243.35,6406.55 1223.75,6387.05 1223.75,6362.94C1223.75,6338.85 1243.35,6319.24 1267.45,6319.24C1291.55,6319.24 1311.15,6338.85 1311.15,6362.94ZM1250.35,6381.94C1250.35,6385.15 1250.25,6388.35 1250.25,6389.65C1250.25,6391.05 1252.45,6391.94 1253.95,6391.94C1254.75,6391.94 1255.35,6391.65 1255.35,6391.15C1255.35,6389.24 1255.05,6385.74 1255.05,6382.05L1255.05,6364.15C1256.35,6363.24 1257.55,6362.35 1258.75,6361.35C1265.75,6369.35 1276.75,6381.05 1282.75,6387.35C1284.05,6388.74 1284.85,6389.74 1285.55,6390.65C1286.05,6391.35 1287.05,6391.65 1287.95,6391.65C1289.85,6391.65 1291.95,6390.65 1291.95,6389.65C1291.95,6389.44 1291.85,6389.24 1291.65,6389.05C1282.75,6381.65 1266.65,6363.85 1262.15,6358.65C1269.25,6352.85 1276.05,6346.94 1280.95,6342.55C1283.65,6340.15 1285.75,6338.44 1287.45,6337.05C1287.65,6336.85 1287.65,6336.74 1287.65,6336.55C1287.65,6335.44 1285.15,6333.94 1283.65,6333.94C1283.25,6333.94 1282.95,6334.05 1282.75,6334.24C1281.45,6335.44 1279.45,6337.55 1277.55,6339.35C1269.95,6346.44 1263.35,6352.55 1255.05,6358.94L1255.05,6343.44C1255.05,6340.55 1255.25,6337.55 1255.25,6336.24C1255.25,6334.94 1252.95,6333.94 1251.45,6333.94C1250.75,6333.94 1250.15,6334.24 1250.15,6334.74C1250.15,6336.65 1250.35,6340.05 1250.35,6343.35L1250.35,6381.94Z" style="fill-rule:nonzero;"/>
        </g>
    </g>
</svg>
