<?xml version="1.0" encoding="UTF-8" standalone="no"?>
<!DOCTYPE svg PUBLIC "-//W3C//DTD SVG 1.1//EN" "http://www.w3.org/Graphics/SVG/1.1/DTD/svg11.dtd">
<svg width="100%" height="100%" viewBox="0 0 96 96" version="1.1" xmlns="http://www.w3.org/2000/svg" xmlns:xlink="http://www.w3.org/1999/xlink" xml:space="preserve" xmlns:serif="http://www.serif.com/" style="fill-rule:evenodd;clip-rule:evenodd;stroke-linejoin:round;stroke-miterlimit:2;">
    <g transform="matrix(1,0,0,1,-1509.63,-3923.28)">
        <g transform="matrix(1,0,0,1,-110.019,-3591.86)">
            <path d="M1715.25,7562.94C1715.25,7536.55 1693.85,7515.15 1667.45,7515.15C1641.05,7515.15 1619.65,7536.55 1619.65,7562.94C1619.65,7589.35 1641.05,7610.65 1667.45,7610.65C1693.85,7610.65 1715.25,7589.35 1715.25,7562.94ZM1656.55,7582.05C1656.55,7585.74 1656.85,7589.24 1656.85,7591.15C1656.85,7592.24 1655.75,7593.44 1653.95,7593.44C1651.75,7593.44 1648.75,7591.74 1648.75,7589.65C1648.75,7588.35 1648.85,7585.15 1648.85,7581.94L1648.85,7543.35C1648.85,7540.05 1648.65,7536.65 1648.65,7534.74C1648.65,7532.74 1650.75,7532.44 1651.45,7532.44C1653.65,7532.44 1656.75,7534.35 1656.75,7536.24C1656.75,7537.55 1656.55,7540.55 1656.55,7543.44L1656.55,7555.85C1663.75,7550.15 1669.75,7544.65 1676.55,7538.24C1678.45,7536.44 1680.45,7534.35 1681.75,7533.15C1682.25,7532.65 1682.95,7532.44 1683.65,7532.44C1685.25,7532.44 1689.15,7534.05 1689.15,7536.55C1689.15,7536.94 1689.05,7537.55 1688.45,7538.15C1686.75,7539.55 1684.65,7541.24 1681.95,7543.65C1677.35,7547.85 1670.95,7553.35 1664.25,7558.85C1667.95,7563.05 1685.35,7581.85 1692.65,7587.94C1693.05,7588.35 1693.45,7588.94 1693.45,7589.65C1693.45,7591.15 1690.75,7593.15 1687.95,7593.15C1686.85,7593.15 1685.25,7592.74 1684.35,7591.55C1683.65,7590.65 1682.95,7589.74 1681.65,7588.35C1675.95,7582.35 1665.55,7571.35 1658.55,7563.44L1656.55,7564.94L1656.55,7582.05Z" style="fill-rule:nonzero;"/>
        </g>
    </g>
</svg>
