<?xml version="1.0" encoding="UTF-8" standalone="no"?>
<!DOCTYPE svg PUBLIC "-//W3C//DTD SVG 1.1//EN" "http://www.w3.org/Graphics/SVG/1.1/DTD/svg11.dtd">
<svg width="100%" height="100%" viewBox="0 0 89 89" version="1.1" xmlns="http://www.w3.org/2000/svg" xmlns:xlink="http://www.w3.org/1999/xlink" xml:space="preserve" xmlns:serif="http://www.serif.com/" style="fill-rule:evenodd;clip-rule:evenodd;stroke-linejoin:round;stroke-miterlimit:2;">
    <g transform="matrix(1,0,0,1,-2502.41,-2342.27)">
        <g transform="matrix(1.41414,0,0,1.41429,-1052.39,-837.704)">
            <path d="M2570.6,2310.83C2573.99,2310.83 2576.12,2308.29 2576.12,2305.32L2576.12,2253.98C2576.12,2250.52 2573.64,2248.47 2570.6,2248.47L2519.27,2248.47C2515.8,2248.47 2513.75,2250.8 2513.75,2253.98L2513.75,2305.32C2513.75,2308.5 2516.23,2310.83 2519.27,2310.83L2570.6,2310.83ZM2537.23,2293.23C2537.23,2295.84 2537.44,2298.32 2537.44,2299.66C2537.44,2300.44 2536.66,2301.29 2535.39,2301.29C2533.83,2301.29 2531.71,2300.09 2531.71,2298.6C2531.71,2297.68 2531.78,2295.42 2531.78,2293.16L2531.78,2265.86C2531.78,2263.53 2531.64,2261.13 2531.64,2259.78C2531.64,2258.37 2533.12,2258.16 2533.62,2258.16C2535.18,2258.16 2537.37,2259.5 2537.37,2260.84C2537.37,2261.76 2537.23,2263.88 2537.23,2265.93L2537.23,2274.7C2542.32,2270.67 2546.56,2266.78 2551.37,2262.26C2552.71,2260.98 2554.12,2259.5 2555.04,2258.65C2555.4,2258.3 2555.89,2258.16 2556.39,2258.16C2557.52,2258.16 2560.28,2259.29 2560.28,2261.05C2560.28,2261.34 2560.21,2261.76 2559.78,2262.19C2558.58,2263.18 2557.1,2264.38 2555.19,2266.08C2551.93,2269.05 2547.41,2272.93 2542.67,2276.82C2545.29,2279.79 2557.59,2293.09 2562.75,2297.4C2563.03,2297.68 2563.32,2298.11 2563.32,2298.6C2563.32,2299.66 2561.41,2301.08 2559.43,2301.08C2558.65,2301.08 2557.52,2300.79 2556.88,2299.94C2556.39,2299.31 2555.89,2298.67 2554.97,2297.68C2550.94,2293.44 2543.59,2285.66 2538.64,2280.08L2537.23,2281.14L2537.23,2293.23Z" style="fill-rule:nonzero;"/>
        </g>
    </g>
</svg>
