<?xml version="1.0" encoding="UTF-8" standalone="no"?>
<!DOCTYPE svg PUBLIC "-//W3C//DTD SVG 1.1//EN" "http://www.w3.org/Graphics/SVG/1.1/DTD/svg11.dtd">
<svg width="100%" height="100%" viewBox="0 0 89 89" version="1.1" xmlns="http://www.w3.org/2000/svg" xmlns:xlink="http://www.w3.org/1999/xlink" xml:space="preserve" xmlns:serif="http://www.serif.com/" style="fill-rule:evenodd;clip-rule:evenodd;stroke-linejoin:round;stroke-miterlimit:2;">
    <g transform="matrix(1,0,0,1,-1158.68,-2371.63)">
        <g transform="matrix(1.41414,0,0,1.41429,-177.055,-770.755)">
            <path d="M1006.92,2284.25L1006.92,2221.89L944.554,2221.89L944.554,2284.25L1006.92,2284.25ZM968.029,2266.65C968.029,2269.26 968.241,2271.74 968.241,2273.08C968.241,2273.86 967.463,2274.71 966.19,2274.71C964.635,2274.71 962.514,2273.51 962.514,2272.02C962.514,2271.1 962.584,2268.84 962.584,2266.58L962.584,2239.28C962.584,2236.95 962.443,2234.55 962.443,2233.2C962.443,2231.79 963.928,2231.58 964.423,2231.58C965.978,2231.58 968.17,2232.92 968.17,2234.26C968.17,2235.18 968.029,2237.3 968.029,2239.35L968.029,2248.12C973.12,2244.09 977.362,2240.2 982.17,2235.68C983.514,2234.41 984.928,2232.92 985.847,2232.07C986.2,2231.72 986.695,2231.58 987.19,2231.58C988.322,2231.58 991.079,2232.71 991.079,2234.48C991.079,2234.76 991.009,2235.18 990.584,2235.61C989.382,2236.6 987.897,2237.8 985.988,2239.5C982.736,2242.47 978.211,2246.35 973.473,2250.24C976.089,2253.21 988.392,2266.51 993.554,2270.82C993.837,2271.1 994.12,2271.53 994.12,2272.02C994.12,2273.08 992.211,2274.5 990.231,2274.5C989.453,2274.5 988.322,2274.21 987.685,2273.36C987.19,2272.73 986.695,2272.09 985.776,2271.1C981.746,2266.86 974.392,2259.08 969.443,2253.5L968.029,2254.56L968.029,2266.65Z" style="fill-rule:nonzero;"/>
        </g>
    </g>
</svg>
