<?xml version="1.0" encoding="UTF-8" standalone="no"?>
<!DOCTYPE svg PUBLIC "-//W3C//DTD SVG 1.1//EN" "http://www.w3.org/Graphics/SVG/1.1/DTD/svg11.dtd">
<svg width="100%" height="100%" viewBox="0 0 98 90" version="1.1" xmlns="http://www.w3.org/2000/svg" xmlns:xlink="http://www.w3.org/1999/xlink" xml:space="preserve" xmlns:serif="http://www.serif.com/" style="fill-rule:evenodd;clip-rule:evenodd;stroke-linejoin:round;stroke-miterlimit:2;">
    <g transform="matrix(1,0,0,1,-5137.45,-2435.56)">
        <g transform="matrix(1,0,0,1,1,0)">
            <path d="M5215.14,2524.76C5217.44,2524.76 5234.14,2507.26 5234.14,2480.16C5234.14,2452.96 5217.44,2435.56 5215.14,2435.56C5214.44,2435.56 5213.94,2436.06 5213.94,2436.76C5213.94,2437.16 5214.04,2437.66 5214.44,2438.06C5224.24,2449.76 5228.84,2465.96 5228.84,2480.16C5228.84,2494.36 5224.24,2510.56 5214.44,2522.26C5214.04,2522.66 5213.94,2523.16 5213.94,2523.56C5213.94,2524.26 5214.44,2524.76 5215.14,2524.76ZM5168.24,2499.16C5168.24,2502.36 5168.15,2505.56 5168.15,2506.86C5168.15,2508.26 5170.35,2509.16 5171.84,2509.16C5172.64,2509.16 5173.24,2508.86 5173.24,2508.36C5173.24,2506.46 5172.94,2502.96 5172.94,2499.26L5172.94,2481.36C5174.24,2480.46 5175.44,2479.56 5176.64,2478.56C5183.64,2486.56 5194.64,2498.26 5200.64,2504.56C5201.94,2505.96 5202.74,2506.96 5203.44,2507.86C5203.94,2508.56 5204.94,2508.86 5205.84,2508.86C5207.74,2508.86 5209.84,2507.86 5209.84,2506.86C5209.84,2506.66 5209.74,2506.46 5209.54,2506.26C5200.64,2498.86 5184.54,2481.06 5180.04,2475.86C5187.14,2470.06 5193.94,2464.16 5198.84,2459.76C5201.54,2457.36 5203.64,2455.66 5205.34,2454.26C5205.54,2454.06 5205.54,2453.96 5205.54,2453.76C5205.54,2452.66 5203.04,2451.16 5201.54,2451.16C5201.14,2451.16 5200.84,2451.26 5200.64,2451.46C5199.34,2452.66 5197.34,2454.76 5195.44,2456.56C5187.84,2463.66 5181.24,2469.76 5172.94,2476.16L5172.94,2460.66C5172.94,2457.76 5173.14,2454.76 5173.14,2453.46C5173.14,2452.16 5170.84,2451.16 5169.35,2451.16C5168.65,2451.16 5168.05,2451.46 5168.05,2451.96C5168.05,2453.86 5168.24,2457.26 5168.24,2460.56L5168.24,2499.16ZM5156.65,2523.56C5156.65,2523.16 5156.55,2522.66 5156.15,2522.26C5146.35,2510.56 5141.75,2494.36 5141.75,2480.16C5141.75,2465.96 5146.35,2449.76 5156.15,2438.06C5156.55,2437.66 5156.65,2437.16 5156.65,2436.76C5156.65,2436.06 5156.15,2435.56 5155.45,2435.56C5153.15,2435.56 5136.45,2452.96 5136.45,2480.16C5136.45,2507.26 5153.15,2524.76 5155.45,2524.76C5156.15,2524.76 5156.65,2524.26 5156.65,2523.56Z" style="fill-rule:nonzero;"/>
        </g>
    </g>
</svg>
