<?xml version="1.0" encoding="UTF-8" standalone="no"?>
<!DOCTYPE svg PUBLIC "-//W3C//DTD SVG 1.1//EN" "http://www.w3.org/Graphics/SVG/1.1/DTD/svg11.dtd">
<svg width="100%" height="100%" viewBox="0 0 89 89" version="1.1" xmlns="http://www.w3.org/2000/svg" xmlns:xlink="http://www.w3.org/1999/xlink" xml:space="preserve" xmlns:serif="http://www.serif.com/" style="fill-rule:evenodd;clip-rule:evenodd;stroke-linejoin:round;stroke-miterlimit:2;">
    <g transform="matrix(1,0,0,1,-1840.22,-1938.66)">
        <g transform="matrix(1,0,0,1,-1072.97,-2735.12)">
            <path d="M3001.38,4761.99L3001.38,4673.79L2913.18,4673.79L2913.18,4761.99L3001.38,4761.99ZM2997.28,4757.89L2917.28,4757.89L2917.28,4677.89L2997.28,4677.89L2997.28,4757.89ZM2940.18,4736.99C2940.18,4740.19 2940.08,4743.39 2940.08,4744.69C2940.08,4746.09 2942.28,4746.99 2943.78,4746.99C2944.58,4746.99 2945.18,4746.69 2945.18,4746.19C2945.18,4744.29 2944.88,4740.79 2944.88,4737.09L2944.88,4719.19C2946.18,4718.29 2947.38,4717.39 2948.58,4716.39C2955.58,4724.39 2966.58,4736.09 2972.58,4742.39C2973.88,4743.79 2974.68,4744.79 2975.38,4745.69C2975.88,4746.39 2976.88,4746.69 2977.78,4746.69C2979.68,4746.69 2981.78,4745.69 2981.78,4744.69C2981.78,4744.49 2981.68,4744.29 2981.48,4744.09C2972.58,4736.69 2956.48,4718.89 2951.98,4713.69C2959.08,4707.89 2965.88,4701.99 2970.78,4697.59C2973.48,4695.19 2975.58,4693.49 2977.28,4692.09C2977.48,4691.89 2977.48,4691.79 2977.48,4691.59C2977.48,4690.49 2974.98,4688.99 2973.48,4688.99C2973.08,4688.99 2972.78,4689.09 2972.58,4689.29C2971.28,4690.49 2969.28,4692.59 2967.38,4694.39C2959.78,4701.49 2953.18,4707.59 2944.88,4713.99L2944.88,4698.49C2944.88,4695.59 2945.08,4692.59 2945.08,4691.29C2945.08,4689.99 2942.78,4688.99 2941.28,4688.99C2940.58,4688.99 2939.98,4689.29 2939.98,4689.79C2939.98,4691.69 2940.18,4695.09 2940.18,4698.39L2940.18,4736.99Z" style="fill-rule:nonzero;"/>
        </g>
    </g>
</svg>
