<?xml version="1.0" encoding="UTF-8" standalone="no"?>
<!DOCTYPE svg PUBLIC "-//W3C//DTD SVG 1.1//EN" "http://www.w3.org/Graphics/SVG/1.1/DTD/svg11.dtd">
<svg width="100%" height="100%" viewBox="0 0 89 89" version="1.1" xmlns="http://www.w3.org/2000/svg" xmlns:xlink="http://www.w3.org/1999/xlink" xml:space="preserve" xmlns:serif="http://www.serif.com/" style="fill-rule:evenodd;clip-rule:evenodd;stroke-linejoin:round;stroke-miterlimit:2;">
    <g transform="matrix(1,0,0,1,-3793.25,-2331.51)">
        <g transform="matrix(1.41414,0,0,1.41429,-1389.33,-1046.26)">
            <path d="M3721.67,2450.69C3725.07,2450.69 3727.19,2448.14 3727.19,2445.17L3727.19,2393.84C3727.19,2390.38 3724.71,2388.32 3721.67,2388.32L3670.34,2388.32C3666.88,2388.32 3664.83,2390.66 3664.83,2393.84L3664.83,2445.17C3664.83,2448.35 3667.3,2450.69 3670.34,2450.69L3721.67,2450.69ZM3724.29,2445.45C3724.29,2447.01 3723.23,2447.79 3722.03,2447.79L3669.99,2447.79C3668.5,2447.79 3667.72,2446.73 3667.72,2445.45L3667.72,2393.49C3667.72,2392.07 3668.64,2391.22 3669.99,2391.22L3722.03,2391.22C3723.44,2391.22 3724.29,2392.28 3724.29,2393.49L3724.29,2445.45ZM3683.92,2433.01C3683.92,2435.27 3683.85,2437.54 3683.85,2438.45C3683.85,2439.45 3685.4,2440.08 3686.46,2440.08C3687.03,2440.08 3687.45,2439.87 3687.45,2439.52C3687.45,2438.17 3687.24,2435.7 3687.24,2433.08L3687.24,2420.43C3688.16,2419.79 3689.01,2419.15 3689.86,2418.45C3694.81,2424.1 3702.58,2432.38 3706.83,2436.83C3707.74,2437.82 3708.31,2438.53 3708.81,2439.16C3709.16,2439.66 3709.87,2439.87 3710.5,2439.87C3711.85,2439.87 3713.33,2439.16 3713.33,2438.45C3713.33,2438.31 3713.26,2438.17 3713.12,2438.03C3706.83,2432.8 3695.44,2420.21 3692.26,2416.54C3697.28,2412.43 3702.09,2408.26 3705.55,2405.15C3707.46,2403.45 3708.95,2402.25 3710.15,2401.26C3710.29,2401.12 3710.29,2401.05 3710.29,2400.91C3710.29,2400.13 3708.52,2399.07 3707.46,2399.07C3707.18,2399.07 3706.97,2399.14 3706.83,2399.28C3705.91,2400.13 3704.49,2401.62 3703.15,2402.89C3697.78,2407.91 3693.11,2412.22 3687.24,2416.75L3687.24,2405.79C3687.24,2403.74 3687.38,2401.62 3687.38,2400.7C3687.38,2399.78 3685.76,2399.07 3684.69,2399.07C3684.2,2399.07 3683.78,2399.28 3683.78,2399.64C3683.78,2400.98 3683.92,2403.39 3683.92,2405.72L3683.92,2433.01Z" style="fill-rule:nonzero;"/>
        </g>
    </g>
</svg>
