<?xml version="1.0" encoding="UTF-8" standalone="no"?>
<!DOCTYPE svg PUBLIC "-//W3C//DTD SVG 1.1//EN" "http://www.w3.org/Graphics/SVG/1.1/DTD/svg11.dtd">
<svg width="100%" height="100%" viewBox="0 0 52 72" version="1.1" xmlns="http://www.w3.org/2000/svg" xmlns:xlink="http://www.w3.org/1999/xlink" xml:space="preserve" xmlns:serif="http://www.serif.com/" style="fill-rule:evenodd;clip-rule:evenodd;stroke-linejoin:round;stroke-miterlimit:2;">
    <g transform="matrix(1,0,0,1,-4145.34,-2623.17)">
        <g transform="matrix(1.41414,0,0,1.41429,-1534.59,-78.5653)">
            <path d="M4016.73,1952.32C4016.73,1955.07 4016.59,1957.9 4016.59,1959.03C4016.59,1960.24 4018.5,1961.01 4019.85,1961.01C4020.55,1961.01 4021.05,1960.8 4021.05,1960.31C4021.05,1958.68 4020.84,1955.57 4020.84,1952.39L4020.84,1936.76C4021.9,1935.98 4022.96,1935.13 4024.02,1934.29C4030.1,1941.29 4039.71,1951.47 4044.95,1956.98C4046.15,1958.18 4046.86,1959.11 4047.42,1959.88C4047.92,1960.52 4048.69,1960.8 4049.54,1960.8C4051.24,1960.8 4053.01,1959.88 4053.01,1959.03C4053.01,1958.82 4052.94,1958.61 4052.72,1958.47C4046.71,1953.52 4032.01,1937.75 4026.99,1931.95C4033.21,1926.86 4039.15,1921.7 4043.39,1917.88C4045.72,1915.76 4047.63,1914.28 4049.05,1913.07C4049.19,1912.93 4049.26,1912.79 4049.26,1912.58C4049.26,1911.66 4047.07,1910.32 4045.72,1910.32C4045.37,1910.32 4045.09,1910.39 4044.95,1910.6C4038.94,1917.03 4025.93,1928.21 4020.84,1932.24L4020.84,1918.66C4020.84,1916.18 4020.98,1913.5 4020.98,1912.37C4020.98,1911.16 4019.07,1910.39 4017.72,1910.39C4017.02,1910.39 4016.52,1910.6 4016.52,1911.1C4016.52,1912.72 4016.73,1915.69 4016.73,1918.59L4016.73,1952.32Z" style="fill-rule:nonzero;"/>
        </g>
    </g>
</svg>
