<?xml version="1.0" encoding="UTF-8" standalone="no"?>
<!DOCTYPE svg PUBLIC "-//W3C//DTD SVG 1.1//EN" "http://www.w3.org/Graphics/SVG/1.1/DTD/svg11.dtd">
<svg width="100%" height="100%" viewBox="0 0 89 89" version="1.1" xmlns="http://www.w3.org/2000/svg" xmlns:xlink="http://www.w3.org/1999/xlink" xml:space="preserve" xmlns:serif="http://www.serif.com/" style="fill-rule:evenodd;clip-rule:evenodd;stroke-linejoin:round;stroke-miterlimit:2;">
    <g transform="matrix(1,0,0,1,-158.78,-2521.63)">
        <g transform="matrix(1.41414,0,0,1.41429,-177.055,-770.755)">
            <path d="M299.847,2390.31L299.847,2327.95L237.483,2327.95L237.483,2390.31L299.847,2390.31ZM273.12,2380.13C269.938,2380.13 265.271,2380.2 263.079,2380.34C262.655,2380.34 262.16,2380.41 261.736,2380.41C261.099,2380.49 260.534,2380.7 259.968,2380.7C258.2,2380.7 256.716,2378.22 256.716,2377.09C256.716,2376.81 256.786,2376.6 256.857,2376.39C256.928,2375.96 257.14,2375.68 257.14,2375.18L257.14,2345.49C257.14,2343.15 256.928,2340.75 256.928,2339.41C256.928,2338.63 257.705,2337.78 258.978,2337.78C260.534,2337.78 262.655,2338.98 262.655,2340.47C262.655,2341.39 262.514,2343.51 262.514,2345.56L262.514,2375.18C266.332,2375.04 272.554,2374.97 275.594,2374.97C277.362,2374.97 279.342,2374.9 280.402,2374.9C282.312,2374.9 283.231,2377.66 283.231,2378.65C283.231,2379.21 283.019,2380.41 281.675,2380.41C279.695,2380.41 277.645,2380.13 275.665,2380.13L273.12,2380.13Z" style="fill-rule:nonzero;"/>
        </g>
    </g>
</svg>
