<?xml version="1.0" encoding="UTF-8" standalone="no"?>
<!DOCTYPE svg PUBLIC "-//W3C//DTD SVG 1.1//EN" "http://www.w3.org/Graphics/SVG/1.1/DTD/svg11.dtd">
<svg width="100%" height="100%" viewBox="0 0 96 96" version="1.1" xmlns="http://www.w3.org/2000/svg" xmlns:xlink="http://www.w3.org/1999/xlink" xml:space="preserve" xmlns:serif="http://www.serif.com/" style="fill-rule:evenodd;clip-rule:evenodd;stroke-linejoin:round;stroke-miterlimit:2;">
    <g transform="matrix(1,0,0,1,-1609.63,-3923.28)">
        <g transform="matrix(1,0,0,1,-110.019,-3591.86)">
            <path d="M1815.25,7562.94C1815.25,7536.55 1793.85,7515.15 1767.45,7515.15C1741.05,7515.15 1719.65,7536.55 1719.65,7562.94C1719.65,7589.35 1741.05,7610.65 1767.45,7610.65C1793.85,7610.65 1815.25,7589.35 1815.25,7562.94ZM1773.75,7592.55C1769.25,7592.55 1762.65,7592.65 1759.55,7592.85C1758.95,7592.85 1758.25,7592.94 1757.65,7592.94C1756.75,7593.05 1755.95,7593.35 1755.15,7593.35C1752.65,7593.35 1750.55,7589.85 1750.55,7588.24C1750.55,7587.85 1750.65,7587.55 1750.75,7587.24C1750.85,7586.65 1751.15,7586.24 1751.15,7585.55L1751.15,7543.55C1751.15,7540.24 1750.85,7536.85 1750.85,7534.94C1750.85,7533.85 1751.95,7532.65 1753.75,7532.65C1755.95,7532.65 1758.95,7534.35 1758.95,7536.44C1758.95,7537.74 1758.75,7540.74 1758.75,7543.65L1758.75,7585.55C1764.15,7585.35 1772.95,7585.24 1777.25,7585.24C1779.75,7585.24 1782.55,7585.15 1784.05,7585.15C1786.75,7585.15 1788.05,7589.05 1788.05,7590.44C1788.05,7591.24 1787.75,7592.94 1785.85,7592.94C1783.05,7592.94 1780.15,7592.55 1777.35,7592.55L1773.75,7592.55Z" style="fill-rule:nonzero;"/>
        </g>
    </g>
</svg>
