<?xml version="1.0" encoding="UTF-8" standalone="no"?>
<!DOCTYPE svg PUBLIC "-//W3C//DTD SVG 1.1//EN" "http://www.w3.org/Graphics/SVG/1.1/DTD/svg11.dtd">
<svg width="100%" height="100%" viewBox="0 0 89 89" version="1.1" xmlns="http://www.w3.org/2000/svg" xmlns:xlink="http://www.w3.org/1999/xlink" xml:space="preserve" xmlns:serif="http://www.serif.com/" style="fill-rule:evenodd;clip-rule:evenodd;stroke-linejoin:round;stroke-miterlimit:2;">
    <g transform="matrix(1,0,0,1,-1502.52,-2492.27)">
        <g transform="matrix(1.41414,0,0,1.41429,-1052.39,-837.704)">
            <path d="M1863.53,2416.89C1866.92,2416.89 1869.04,2414.35 1869.04,2411.38L1869.04,2360.05C1869.04,2356.58 1866.57,2354.53 1863.53,2354.53L1812.2,2354.53C1808.73,2354.53 1806.68,2356.86 1806.68,2360.05L1806.68,2411.38C1806.68,2414.56 1809.15,2416.89 1812.2,2416.89L1863.53,2416.89ZM1842.32,2406.71C1839.13,2406.71 1834.47,2406.78 1832.28,2406.92C1831.85,2406.92 1831.36,2406.99 1830.93,2406.99C1830.3,2407.07 1829.73,2407.28 1829.17,2407.28C1827.4,2407.28 1825.91,2404.8 1825.91,2403.67C1825.91,2403.39 1825.98,2403.18 1826.05,2402.96C1826.12,2402.54 1826.34,2402.26 1826.34,2401.76L1826.34,2372.07C1826.34,2369.73 1826.12,2367.33 1826.12,2365.98C1826.12,2365.21 1826.9,2364.36 1828.18,2364.36C1829.73,2364.36 1831.85,2365.56 1831.85,2367.05C1831.85,2367.96 1831.71,2370.09 1831.71,2372.14L1831.71,2401.76C1835.53,2401.62 1841.75,2401.55 1844.79,2401.55C1846.56,2401.55 1848.54,2401.48 1849.6,2401.48C1851.51,2401.48 1852.43,2404.24 1852.43,2405.23C1852.43,2405.79 1852.22,2406.99 1850.87,2406.99C1848.89,2406.99 1846.84,2406.71 1844.86,2406.71L1842.32,2406.71Z" style="fill-rule:nonzero;"/>
        </g>
    </g>
</svg>
