<?xml version="1.0" encoding="UTF-8" standalone="no"?>
<!DOCTYPE svg PUBLIC "-//W3C//DTD SVG 1.1//EN" "http://www.w3.org/Graphics/SVG/1.1/DTD/svg11.dtd">
<svg width="100%" height="100%" viewBox="0 0 98 90" version="1.1" xmlns="http://www.w3.org/2000/svg" xmlns:xlink="http://www.w3.org/1999/xlink" xml:space="preserve" xmlns:serif="http://www.serif.com/" style="fill-rule:evenodd;clip-rule:evenodd;stroke-linejoin:round;stroke-miterlimit:2;">
    <g transform="matrix(1,0,0,1,-5237.44,-2435.56)">
        <g transform="matrix(1,0,0,1,1,0)">
            <path d="M5256.64,2523.56C5256.64,2523.16 5256.54,2522.66 5256.14,2522.26C5246.34,2510.56 5241.74,2494.36 5241.74,2480.16C5241.74,2465.96 5246.34,2449.76 5256.14,2438.06C5256.54,2437.66 5256.64,2437.16 5256.64,2436.76C5256.64,2436.06 5256.14,2435.56 5255.44,2435.56C5253.14,2435.56 5236.44,2452.96 5236.44,2480.16C5236.44,2507.26 5253.14,2524.76 5255.44,2524.76C5256.14,2524.76 5256.64,2524.26 5256.64,2523.56ZM5315.13,2524.76C5317.43,2524.76 5334.13,2507.26 5334.13,2480.16C5334.13,2452.96 5317.43,2435.56 5315.13,2435.56C5314.43,2435.56 5313.93,2436.06 5313.93,2436.76C5313.93,2437.16 5314.03,2437.66 5314.43,2438.06C5324.23,2449.76 5328.83,2465.96 5328.83,2480.16C5328.83,2494.36 5324.23,2510.56 5314.43,2522.26C5314.03,2522.66 5313.93,2523.16 5313.93,2523.56C5313.93,2524.26 5314.43,2524.76 5315.13,2524.76ZM5303.73,2508.66C5304.23,2508.66 5304.43,2508.26 5304.43,2507.66C5304.43,2506.26 5303.23,2503.86 5301.93,2503.86L5301.83,2503.86C5300.33,2503.96 5297.63,2503.96 5295.13,2503.96C5290.43,2503.96 5280.13,2504.06 5275.13,2504.36L5275.13,2460.86C5275.13,2457.96 5275.33,2454.96 5275.33,2453.66C5275.33,2452.26 5273.13,2451.36 5271.63,2451.36C5270.83,2451.36 5270.23,2451.66 5270.23,2452.16C5270.23,2454.06 5270.53,2457.46 5270.53,2460.76L5270.53,2502.76C5270.53,2504.06 5269.93,2504.76 5269.93,2505.46C5269.93,2506.56 5271.63,2509.06 5273.03,2509.06L5273.23,2509.06C5276.13,2508.26 5287.93,2508.26 5291.63,2508.26L5295.23,2508.26C5298.23,2508.26 5302.03,2508.56 5303.53,2508.66L5303.73,2508.66Z" style="fill-rule:nonzero;"/>
        </g>
    </g>
</svg>
