<?xml version="1.0" encoding="UTF-8" standalone="no"?>
<!DOCTYPE svg PUBLIC "-//W3C//DTD SVG 1.1//EN" "http://www.w3.org/Graphics/SVG/1.1/DTD/svg11.dtd">
<svg width="100%" height="100%" viewBox="0 0 89 89" version="1.1" xmlns="http://www.w3.org/2000/svg" xmlns:xlink="http://www.w3.org/1999/xlink" xml:space="preserve" xmlns:serif="http://www.serif.com/" style="fill-rule:evenodd;clip-rule:evenodd;stroke-linejoin:round;stroke-miterlimit:2;">
    <g transform="matrix(1,0,0,1,-1940.22,-1938.66)">
        <g transform="matrix(1,0,0,1,-1072.97,-2735.12)">
            <path d="M3101.38,4761.99L3101.38,4673.79L3013.18,4673.79L3013.18,4761.99L3101.38,4761.99ZM3097.28,4757.89L3017.28,4757.89L3017.28,4677.89L3097.28,4677.89L3097.28,4757.89ZM3075.68,4746.49C3076.18,4746.49 3076.38,4746.09 3076.38,4745.49C3076.38,4744.09 3075.18,4741.69 3073.88,4741.69L3073.78,4741.69C3072.28,4741.79 3069.58,4741.79 3067.08,4741.79C3062.38,4741.79 3052.08,4741.89 3047.08,4742.19L3047.08,4698.69C3047.08,4695.79 3047.28,4692.79 3047.28,4691.49C3047.28,4690.09 3045.08,4689.19 3043.58,4689.19C3042.78,4689.19 3042.18,4689.49 3042.18,4689.99C3042.18,4691.89 3042.48,4695.29 3042.48,4698.59L3042.48,4740.59C3042.48,4741.89 3041.88,4742.59 3041.88,4743.29C3041.88,4744.39 3043.58,4746.89 3044.98,4746.89L3045.18,4746.89C3048.08,4746.09 3059.88,4746.09 3063.58,4746.09L3067.18,4746.09C3070.18,4746.09 3073.98,4746.39 3075.48,4746.49L3075.68,4746.49Z" style="fill-rule:nonzero;"/>
        </g>
    </g>
</svg>
