<?xml version="1.0" encoding="UTF-8" standalone="no"?>
<!DOCTYPE svg PUBLIC "-//W3C//DTD SVG 1.1//EN" "http://www.w3.org/Graphics/SVG/1.1/DTD/svg11.dtd">
<svg width="100%" height="100%" viewBox="0 0 89 89" version="1.1" xmlns="http://www.w3.org/2000/svg" xmlns:xlink="http://www.w3.org/1999/xlink" xml:space="preserve" xmlns:serif="http://www.serif.com/" style="fill-rule:evenodd;clip-rule:evenodd;stroke-linejoin:round;stroke-miterlimit:2;">
    <g transform="matrix(1,0,0,1,-2793.35,-2481.51)">
        <g transform="matrix(1.41414,0,0,1.41429,-1389.33,-1046.26)">
            <path d="M3014.6,2556.75C3018,2556.75 3020.12,2554.2 3020.12,2551.23L3020.12,2499.9C3020.12,2496.43 3017.64,2494.39 3014.6,2494.39L2963.27,2494.39C2959.8,2494.39 2957.76,2496.72 2957.76,2499.9L2957.76,2551.23C2957.76,2554.41 2960.23,2556.75 2963.27,2556.75L3014.6,2556.75ZM3017.22,2551.52C3017.22,2553.07 3016.16,2553.85 3014.96,2553.85L2962.92,2553.85C2961.43,2553.85 2960.65,2552.79 2960.65,2551.52L2960.65,2499.55C2960.65,2498.13 2961.57,2497.28 2962.92,2497.28L3014.96,2497.28C3016.37,2497.28 3017.22,2498.34 3017.22,2499.55L3017.22,2551.52ZM3001.95,2545.79C3002.3,2545.79 3002.44,2545.51 3002.44,2545.08C3002.44,2544.09 3001.59,2542.39 3000.67,2542.39L3000.6,2542.39C2999.54,2542.47 2997.63,2542.47 2995.87,2542.47C2992.54,2542.47 2985.26,2542.54 2981.72,2542.75L2981.72,2511.99C2981.72,2509.94 2981.87,2507.82 2981.87,2506.9C2981.87,2505.91 2980.31,2505.27 2979.25,2505.27C2978.68,2505.27 2978.26,2505.49 2978.26,2505.84C2978.26,2507.18 2978.47,2509.59 2978.47,2511.92L2978.47,2541.62C2978.47,2542.54 2978.05,2543.03 2978.05,2543.53C2978.05,2544.3 2979.25,2546.07 2980.24,2546.07L2980.38,2546.07C2982.43,2545.51 2990.78,2545.51 2993.39,2545.51L2995.94,2545.51C2998.06,2545.51 3000.74,2545.72 3001.8,2545.79L3001.95,2545.79Z" style="fill-rule:nonzero;"/>
        </g>
    </g>
</svg>
