<?xml version="1.0" encoding="UTF-8" standalone="no"?>
<!DOCTYPE svg PUBLIC "-//W3C//DTD SVG 1.1//EN" "http://www.w3.org/Graphics/SVG/1.1/DTD/svg11.dtd">
<svg width="100%" height="100%" viewBox="0 0 69 72" version="1.1" xmlns="http://www.w3.org/2000/svg" xmlns:xlink="http://www.w3.org/1999/xlink" xml:space="preserve" xmlns:serif="http://www.serif.com/" style="fill-rule:evenodd;clip-rule:evenodd;stroke-linejoin:round;stroke-miterlimit:2;">
    <g transform="matrix(1,0,0,1,-4231.53,-2622.77)">
        <g transform="matrix(1.41414,0,0,1.41429,-1534.59,-78.5653)">
            <path d="M4105.4,1912.86C4105.4,1912.58 4105.4,1912.23 4105.26,1911.94C4104.91,1911.02 4103.21,1910.03 4101.86,1910.03C4101.44,1910.03 4101.09,1910.17 4100.81,1910.39C4100.17,1910.95 4099.96,1913.22 4099.6,1914.13C4095.36,1924.17 4080.87,1953.87 4077.75,1958.68C4077.54,1958.96 4077.47,1959.25 4077.47,1959.53C4077.47,1960.31 4078.46,1960.66 4079.59,1960.66C4080.8,1960.66 4082.14,1960.24 4082.42,1959.46C4082.99,1957.83 4084.33,1954.72 4085.11,1953.16C4090.69,1942.06 4099.32,1924.17 4102.57,1916.4C4105.33,1923.82 4112.97,1941.64 4118.41,1953.24C4119.19,1954.93 4120.46,1958.26 4121.03,1959.95C4121.17,1960.52 4122.02,1960.73 4123.01,1960.73C4124.42,1960.73 4126.12,1960.16 4126.12,1959.17C4126.12,1958.96 4125.98,1958.75 4125.84,1958.47C4124.28,1956.28 4122.44,1953.02 4121.73,1951.47C4116.22,1939.87 4109.64,1925.02 4105.54,1914.13C4105.47,1913.85 4105.4,1913.57 4105.4,1913.36L4105.4,1912.86Z" style="fill-rule:nonzero;"/>
        </g>
    </g>
</svg>
