<?xml version="1.0" encoding="UTF-8" standalone="no"?>
<!DOCTYPE svg PUBLIC "-//W3C//DTD SVG 1.1//EN" "http://www.w3.org/Graphics/SVG/1.1/DTD/svg11.dtd">
<svg width="100%" height="100%" viewBox="0 0 88 69" version="1.1" xmlns="http://www.w3.org/2000/svg" xmlns:xlink="http://www.w3.org/1999/xlink" xml:space="preserve" xmlns:serif="http://www.serif.com/" style="fill-rule:evenodd;clip-rule:evenodd;stroke-linejoin:round;stroke-miterlimit:2;">
    <g transform="matrix(1,0,0,1,-4522.5,-3071.67)">
        <g transform="matrix(1.41414,0,0,1.41429,-1534.59,-78.5653)">
            <path d="M4343.68,2240.73C4344.53,2240.73 4344.96,2239.88 4344.96,2239.11C4344.96,2238.26 4344.53,2237.48 4343.68,2237.48L4290.16,2237.48C4294.97,2234.93 4299,2232.03 4301.05,2230.41C4301.33,2230.2 4301.47,2229.84 4301.47,2229.49C4301.47,2228.57 4300.69,2227.44 4299.92,2227.44C4299.7,2227.44 4299.49,2227.51 4299.35,2227.65C4298.29,2228.43 4297.02,2229.56 4296.31,2230.05C4292.85,2232.53 4288.67,2235.64 4284.01,2237.69C4283.51,2237.9 4283.23,2238.54 4283.23,2239.11C4283.23,2239.67 4283.51,2240.31 4284.01,2240.52C4288.6,2242.64 4292.85,2245.68 4296.31,2248.16C4297.02,2248.65 4298.29,2249.78 4299.35,2250.56C4299.49,2250.7 4299.7,2250.77 4299.92,2250.77C4300.69,2250.77 4301.47,2249.64 4301.47,2248.72C4301.47,2248.37 4301.33,2248.01 4301.05,2247.8C4299,2246.18 4294.97,2243.28 4290.16,2240.73L4343.68,2240.73ZM4338.24,2265.69C4333.43,2268.24 4329.4,2271.14 4327.35,2272.76C4327.07,2272.97 4326.93,2273.33 4326.93,2273.68C4326.93,2274.6 4327.7,2275.73 4328.48,2275.73C4328.69,2275.73 4328.91,2275.66 4329.05,2275.52C4330.11,2274.74 4331.38,2273.61 4332.09,2273.12C4335.55,2270.64 4339.72,2267.53 4344.39,2265.48C4344.89,2265.27 4345.17,2264.63 4345.17,2264.06C4345.17,2263.5 4344.89,2262.86 4344.39,2262.65C4339.8,2260.53 4335.55,2257.49 4332.09,2255.01C4331.38,2254.52 4330.11,2253.39 4329.05,2252.61C4328.91,2252.47 4328.69,2252.4 4328.48,2252.4C4327.7,2252.4 4326.93,2253.53 4326.93,2254.45C4326.93,2254.8 4327.07,2255.16 4327.35,2255.37C4329.4,2256.99 4333.43,2259.89 4338.24,2262.44L4284.71,2262.44C4283.86,2262.44 4283.44,2263.29 4283.44,2264.06C4283.44,2264.91 4283.86,2265.69 4284.71,2265.69L4338.24,2265.69Z" style="fill-rule:nonzero;"/>
        </g>
    </g>
</svg>
