<?xml version="1.0" encoding="UTF-8" standalone="no"?>
<!DOCTYPE svg PUBLIC "-//W3C//DTD SVG 1.1//EN" "http://www.w3.org/Graphics/SVG/1.1/DTD/svg11.dtd">
<svg width="100%" height="100%" viewBox="0 0 90 69" version="1.1" xmlns="http://www.w3.org/2000/svg" xmlns:xlink="http://www.w3.org/1999/xlink" xml:space="preserve" xmlns:serif="http://www.serif.com/" style="fill-rule:evenodd;clip-rule:evenodd;stroke-linejoin:round;stroke-miterlimit:2;">
    <g transform="matrix(1,0,0,1,-1471.08,-5579.37)">
        <g transform="matrix(1,0,0,1,-504.034,-1124.47)">
            <path d="M2059.31,6719.74C2062.81,6717.94 2064.81,6715.34 2064.81,6711.34C2064.81,6707.14 2061.11,6703.84 2055.11,6703.84C2049.71,6703.84 2040.41,6705.44 2040.41,6716.24C2040.41,6717.04 2040.41,6717.74 2040.51,6718.44L2040.51,6719.24C2040.51,6721.64 2039.31,6723.74 2036.71,6725.44C2022.11,6735.04 1998.91,6747.74 1976.11,6761.24C1975.41,6761.64 1975.11,6762.14 1975.11,6762.54C1975.11,6763.64 1976.71,6764.44 1978.21,6764.44C1978.71,6764.44 1979.11,6764.34 1979.51,6764.14L2023.71,6741.54C2027.11,6739.84 2027.81,6738.94 2028.81,6736.44C2029.61,6734.44 2031.31,6733.64 2033.31,6732.64L2059.31,6719.74ZM2040.51,6757.84C2040.41,6758.54 2040.41,6759.24 2040.41,6760.04C2040.41,6770.74 2049.71,6772.44 2055.11,6772.44C2061.11,6772.44 2064.81,6769.14 2064.81,6764.94C2064.81,6760.94 2062.81,6758.34 2059.31,6756.54C2051.31,6752.54 2034.11,6744.04 2027.81,6740.84L2024.11,6742.94C2038.61,6751.54 2040.51,6752.84 2040.51,6757.04L2040.51,6757.84ZM2021.01,6733.34C2009.51,6727.54 1995.41,6720.34 1979.51,6712.14C1979.11,6711.94 1978.71,6711.84 1978.21,6711.84C1976.71,6711.84 1975.11,6712.64 1975.11,6713.74C1975.11,6714.14 1975.41,6714.64 1976.11,6715.04C1989.31,6722.94 2002.61,6730.44 2014.41,6737.24L2021.01,6733.34ZM2061.31,6711.44C2061.31,6715.04 2057.71,6716.74 2049.61,6720.34C2048.81,6720.74 2048.11,6720.84 2047.41,6720.84C2045.31,6720.84 2044.01,6719.04 2044.01,6715.54C2044.01,6710.24 2049.81,6707.64 2055.21,6707.64C2058.81,6707.64 2061.31,6709.34 2061.31,6711.44ZM2061.31,6764.84C2061.31,6766.94 2058.81,6768.64 2055.21,6768.64C2049.81,6768.64 2044.01,6766.04 2044.01,6760.74C2044.01,6757.24 2045.31,6755.44 2047.41,6755.44C2048.51,6755.44 2048.51,6755.44 2057.51,6759.74C2059.81,6760.84 2061.31,6762.64 2061.31,6764.84Z" style="fill-rule:nonzero;"/>
        </g>
    </g>
</svg>
