<?xml version="1.0" encoding="UTF-8" standalone="no"?>
<!DOCTYPE svg PUBLIC "-//W3C//DTD SVG 1.1//EN" "http://www.w3.org/Graphics/SVG/1.1/DTD/svg11.dtd">
<svg width="100%" height="100%" viewBox="0 0 26 94" version="1.1" xmlns="http://www.w3.org/2000/svg" xmlns:xlink="http://www.w3.org/1999/xlink" xml:space="preserve" xmlns:serif="http://www.serif.com/" style="fill-rule:evenodd;clip-rule:evenodd;stroke-linejoin:round;stroke-miterlimit:2;">
    <g transform="matrix(1,0,0,1,-4024.25,-1566.07)">
        <g transform="matrix(1.41414,0,0,1.41429,-1534.59,-78.5653)">
            <path d="M3931.89,1193.7C3931.18,1193.7 3930.9,1194.2 3930.9,1194.76C3930.9,1195.75 3931.74,1197.02 3932.88,1197.1C3937.9,1197.38 3939.03,1201.34 3939.03,1204.45C3939.03,1211.38 3937.97,1215.2 3937.97,1218.1C3937.97,1227 3946.88,1228.91 3947.8,1228.91C3948.43,1228.91 3948.64,1228.63 3948.64,1228.21C3948.64,1227.78 3948.36,1227.36 3947.94,1227.07C3943.91,1224.74 3941.5,1222.2 3941.5,1218.1C3941.5,1216.68 3942.56,1211.59 3942.56,1204.16C3942.56,1200.35 3940.8,1196.67 3937.12,1195.82C3941.64,1193.49 3942.56,1188.54 3942.56,1184.65C3942.56,1181.12 3942.14,1175.6 3942.14,1173.48C3942.14,1170.01 3944.26,1166.97 3948.01,1164.85C3948.43,1164.57 3948.64,1164.22 3948.64,1163.79C3948.64,1163.3 3948.29,1162.87 3947.72,1162.87C3947.16,1162.87 3938.53,1166.05 3938.53,1173.34C3938.53,1175.74 3938.96,1181.68 3938.96,1184.44C3938.96,1189.95 3937.19,1193.7 3932.66,1193.7L3931.89,1193.7Z" style="fill-rule:nonzero;"/>
        </g>
    </g>
</svg>
