<?xml version="1.0" encoding="UTF-8" standalone="no"?>
<!DOCTYPE svg PUBLIC "-//W3C//DTD SVG 1.1//EN" "http://www.w3.org/Graphics/SVG/1.1/DTD/svg11.dtd">
<svg width="100%" height="100%" viewBox="0 0 66 73" version="1.1" xmlns="http://www.w3.org/2000/svg" xmlns:xlink="http://www.w3.org/1999/xlink" xml:space="preserve" xmlns:serif="http://www.serif.com/" style="fill-rule:evenodd;clip-rule:evenodd;stroke-linejoin:round;stroke-miterlimit:2;">
    <g transform="matrix(1,0,0,1,-4034.15,-2171.97)">
        <g transform="matrix(1.41414,0,0,1.41429,-1534.59,-78.5653)">
            <path d="M3944.33,1607.62C3951.97,1605.36 3968.72,1599.84 3975.8,1597.3C3977.28,1596.8 3978.91,1596.1 3981.03,1595.53C3981.45,1595.39 3981.59,1594.82 3981.59,1594.12C3981.59,1592.91 3981.03,1591.29 3980.11,1591.29C3979.97,1591.29 3979.83,1591.36 3979.68,1591.43C3977.78,1592.56 3975.65,1593.55 3973.96,1594.26C3968.37,1596.52 3950.06,1602.39 3943.69,1604.23C3940.94,1605.07 3940.3,1605.43 3940.3,1606.91C3940.3,1608.04 3940.8,1609.6 3941.57,1610.1C3942.21,1610.45 3942.99,1610.59 3943.76,1610.8C3944.54,1611.01 3971.48,1618.86 3979.9,1623.6C3980.04,1623.67 3980.18,1623.74 3980.32,1623.74C3981.1,1623.74 3981.52,1622.47 3981.52,1621.27C3981.52,1620.35 3981.24,1619.43 3980.74,1619.29C3978.2,1618.44 3976.15,1617.66 3974.73,1617.16C3967.95,1614.76 3952.11,1609.95 3944.33,1607.62ZM3982.44,1628.12C3980.46,1628.27 3978.13,1628.34 3977.07,1628.34L3945.11,1628.76C3942.85,1628.76 3940.37,1628.69 3938.96,1628.62C3938.18,1628.62 3937.9,1629.26 3937.9,1630.11C3937.9,1631.16 3938.39,1632.37 3939.17,1632.37L3939.31,1632.37C3940.44,1632.23 3943.27,1632.15 3945.04,1632.15L3977,1631.73C3978.13,1631.73 3980.67,1631.8 3982.87,1631.8C3983.57,1631.8 3983.93,1631.1 3983.93,1630.32C3983.93,1629.33 3983.36,1628.12 3982.51,1628.12L3982.44,1628.12ZM3982.44,1638.31C3980.46,1638.45 3978.13,1638.52 3977.07,1638.52L3945.11,1638.94C3942.85,1638.94 3940.37,1638.87 3938.96,1638.8C3938.18,1638.8 3937.9,1639.44 3937.9,1640.29C3937.9,1641.35 3938.39,1642.55 3939.17,1642.55L3939.31,1642.55C3940.44,1642.41 3943.27,1642.34 3945.04,1642.34L3977,1641.91C3978.13,1641.91 3980.67,1641.98 3982.87,1641.98C3983.57,1641.98 3983.93,1641.28 3983.93,1640.5C3983.93,1639.51 3983.36,1638.31 3982.51,1638.31L3982.44,1638.31Z" style="fill-rule:nonzero;"/>
        </g>
    </g>
</svg>
