<?xml version="1.0" encoding="UTF-8" standalone="no"?>
<!DOCTYPE svg PUBLIC "-//W3C//DTD SVG 1.1//EN" "http://www.w3.org/Graphics/SVG/1.1/DTD/svg11.dtd">
<svg width="100%" height="100%" viewBox="0 0 42 51" version="1.1" xmlns="http://www.w3.org/2000/svg" xmlns:xlink="http://www.w3.org/1999/xlink" xml:space="preserve" xmlns:serif="http://www.serif.com/" style="fill-rule:evenodd;clip-rule:evenodd;stroke-linejoin:round;stroke-miterlimit:2;">
    <g transform="matrix(1,0,0,1,-4220.73,-1444.77)">
        <g transform="matrix(1.41414,0,0,1.41429,-1534.59,-78.5653)">
            <path d="M4074.01,1095.06C4079.66,1092.24 4088.01,1087.5 4093.66,1084.03C4095.08,1083.18 4096.56,1082.34 4098.26,1081.42C4098.68,1081.21 4098.9,1080.57 4098.9,1079.86C4098.9,1078.59 4098.26,1077.11 4097.41,1077.11C4097.27,1077.11 4097.06,1077.17 4096.85,1077.32C4090.06,1082.69 4075.21,1090.47 4073.3,1091.46C4072.03,1092.1 4070.47,1092.38 4070.05,1093.08C4069.91,1093.37 4069.84,1093.72 4069.84,1094.14C4069.84,1095.42 4070.4,1097.18 4071.25,1097.68C4071.89,1098.03 4072.66,1098.11 4073.37,1098.46C4077.05,1100.37 4089.07,1106.73 4096.85,1112.53C4097.06,1112.67 4097.2,1112.74 4097.41,1112.74C4098.12,1112.74 4098.47,1111.47 4098.47,1110.2C4098.47,1109.35 4098.26,1108.5 4097.84,1108.22C4096.42,1107.44 4094.8,1106.45 4093.45,1105.67C4087.87,1102.35 4079.81,1097.96 4074.01,1095.06Z" style="fill-rule:nonzero;"/>
        </g>
    </g>
</svg>
