<?xml version="1.0" encoding="UTF-8" standalone="no"?>
<!DOCTYPE svg PUBLIC "-//W3C//DTD SVG 1.1//EN" "http://www.w3.org/Graphics/SVG/1.1/DTD/svg11.dtd">
<svg width="100%" height="100%" viewBox="0 0 96 96" version="1.1" xmlns="http://www.w3.org/2000/svg" xmlns:xlink="http://www.w3.org/1999/xlink" xml:space="preserve" xmlns:serif="http://www.serif.com/" style="fill-rule:evenodd;clip-rule:evenodd;stroke-linejoin:round;stroke-miterlimit:2;">
    <g transform="matrix(1,0,0,1,-1309.63,-2723.28)">
        <g transform="matrix(1,0,0,1,-110.019,-3591.86)">
            <path d="M1515.25,6362.94C1515.25,6336.55 1493.85,6315.15 1467.45,6315.15C1441.05,6315.15 1419.65,6336.55 1419.65,6362.94C1419.65,6389.35 1441.05,6410.65 1467.45,6410.65C1493.85,6410.65 1515.25,6389.35 1515.25,6362.94ZM1511.15,6362.94C1511.15,6387.05 1491.55,6406.55 1467.45,6406.55C1443.35,6406.55 1423.75,6387.05 1423.75,6362.94C1423.75,6338.85 1443.35,6319.24 1467.45,6319.24C1491.55,6319.24 1511.15,6338.85 1511.15,6362.94ZM1463.85,6382.44C1464.05,6383.24 1464.95,6383.65 1465.95,6383.65C1467.55,6383.65 1469.35,6382.74 1469.45,6381.44C1469.45,6379.05 1482.15,6351.65 1487.35,6340.94C1488.75,6353.85 1491.35,6374.65 1492.55,6384.55C1492.75,6387.05 1492.75,6388.35 1492.95,6390.55C1492.95,6391.44 1494.15,6391.85 1495.45,6391.85C1496.95,6391.85 1498.65,6391.24 1498.65,6390.35C1498.65,6390.24 1498.55,6390.15 1498.55,6390.05C1497.05,6385.35 1495.75,6376.55 1491.75,6340.55L1491.75,6340.15C1491.75,6338.74 1492.15,6337.74 1492.15,6336.65C1492.15,6335.44 1488.75,6333.94 1487.15,6333.94C1485.35,6333.94 1485.05,6335.65 1484.45,6337.05C1478.75,6348.65 1471.75,6364.44 1466.45,6376.85C1462.15,6367.44 1455.35,6350.35 1450.05,6337.55C1449.65,6336.55 1449.45,6335.44 1448.75,6335.05C1448.35,6334.85 1447.85,6334.74 1447.25,6334.74C1445.45,6334.74 1443.35,6335.85 1443.15,6336.94C1443.05,6337.24 1443.05,6337.55 1443.05,6337.94C1443.05,6338.44 1443.15,6339.05 1443.15,6339.85C1443.15,6340.15 1443.05,6340.55 1443.05,6340.94C1438.25,6381.94 1437.95,6384.15 1436.35,6390.74L1436.35,6390.94C1436.35,6391.65 1437.35,6391.94 1438.45,6391.94C1439.95,6391.94 1441.75,6391.44 1441.85,6390.44C1441.95,6388.94 1443.25,6375.55 1447.45,6341.85C1451.55,6352.85 1458.95,6370.05 1462.15,6377.74L1463.85,6382.44Z" style="fill-rule:nonzero;"/>
        </g>
    </g>
</svg>
