<?xml version="1.0" encoding="UTF-8" standalone="no"?>
<!DOCTYPE svg PUBLIC "-//W3C//DTD SVG 1.1//EN" "http://www.w3.org/Graphics/SVG/1.1/DTD/svg11.dtd">
<svg width="100%" height="100%" viewBox="0 0 96 96" version="1.1" xmlns="http://www.w3.org/2000/svg" xmlns:xlink="http://www.w3.org/1999/xlink" xml:space="preserve" xmlns:serif="http://www.serif.com/" style="fill-rule:evenodd;clip-rule:evenodd;stroke-linejoin:round;stroke-miterlimit:2;">
    <g transform="matrix(1,0,0,1,-1709.63,-3923.28)">
        <g transform="matrix(1,0,0,1,-110.019,-3591.86)">
            <path d="M1915.25,7562.94C1915.25,7536.55 1893.85,7515.15 1867.45,7515.15C1841.05,7515.15 1819.65,7536.55 1819.65,7562.94C1819.65,7589.35 1841.05,7610.65 1867.45,7610.65C1893.85,7610.65 1915.25,7589.35 1915.25,7562.94ZM1860.75,7578.35C1858.05,7571.85 1853.35,7558.65 1849.25,7548.05C1847.75,7560.44 1847.05,7574.35 1845.85,7584.85C1845.65,7586.85 1845.45,7588.44 1845.35,7590.55C1845.25,7592.05 1842.75,7593.44 1840.45,7593.44C1838.35,7593.44 1836.85,7592.24 1836.85,7590.94C1836.85,7589.44 1837.95,7586.15 1838.15,7584.44C1839.95,7571.55 1840.95,7554.55 1842.55,7540.85C1842.55,7540.44 1842.65,7540.15 1842.65,7539.85C1842.65,7539.05 1842.55,7538.35 1842.55,7537.65C1842.55,7537.35 1842.55,7536.94 1842.65,7536.55C1843.25,7534.35 1846.35,7533.24 1848.25,7533.24C1850.95,7533.24 1851.25,7533.94 1852.45,7536.94C1857.15,7548.44 1862.35,7563.24 1866.45,7573.15C1871.55,7561.24 1876.95,7547.05 1882.15,7536.35C1883.15,7534.05 1883.85,7532.44 1886.15,7532.44C1888.35,7532.44 1892.65,7535.05 1892.65,7536.65C1892.65,7537.74 1892.25,7538.74 1892.25,7540.15L1892.25,7540.44C1893.65,7553.05 1895.35,7573.35 1896.65,7583.74C1896.95,7586.15 1898.15,7589.74 1898.15,7590.35C1898.15,7591.74 1895.85,7593.35 1893.45,7593.35C1891.25,7593.35 1889.55,7592.15 1889.45,7590.65C1889.25,7588.44 1889.35,7587.15 1889.05,7584.74C1888.15,7575.94 1886.95,7559.05 1885.45,7546.24C1885.25,7546.65 1870.95,7580.15 1870.95,7581.55C1870.85,7584.15 1867.65,7585.15 1865.95,7585.15C1864.75,7585.15 1862.95,7584.65 1862.45,7582.85L1860.75,7578.35Z" style="fill-rule:nonzero;"/>
        </g>
    </g>
</svg>
