<?xml version="1.0" encoding="UTF-8" standalone="no"?>
<!DOCTYPE svg PUBLIC "-//W3C//DTD SVG 1.1//EN" "http://www.w3.org/Graphics/SVG/1.1/DTD/svg11.dtd">
<svg width="100%" height="100%" viewBox="0 0 89 89" version="1.1" xmlns="http://www.w3.org/2000/svg" xmlns:xlink="http://www.w3.org/1999/xlink" xml:space="preserve" xmlns:serif="http://www.serif.com/" style="fill-rule:evenodd;clip-rule:evenodd;stroke-linejoin:round;stroke-miterlimit:2;">
    <g transform="matrix(1,0,0,1,-258.769,-2521.63)">
        <g transform="matrix(1.41414,0,0,1.41429,-177.055,-770.755)">
            <path d="M370.554,2390.31L370.554,2327.95L308.19,2327.95L308.19,2390.31L370.554,2390.31ZM334.635,2370.09C332.726,2365.5 328.695,2356.16 325.796,2348.67C322.473,2376.39 322.402,2377.09 322.332,2378.72C322.261,2379.78 320.493,2380.77 318.867,2380.77C317.382,2380.77 316.322,2379.92 316.322,2379C316.322,2377.94 317.029,2375.61 317.241,2374.41C318.655,2365.43 319.928,2353.26 321.059,2343.58C321.059,2343.29 321.13,2343.08 321.13,2342.87C321.13,2342.3 321.059,2341.81 321.059,2341.31C321.059,2341.1 321.059,2340.82 321.13,2340.54C321.554,2338.98 323.746,2338.2 325.089,2338.2C326.998,2338.2 327.211,2338.7 328.059,2340.82C331.382,2348.95 335.625,2359.49 338.665,2366.41C342.271,2358 346.796,2347.96 350.473,2340.39C351.18,2338.77 351.675,2337.64 353.301,2337.64C354.857,2337.64 357.897,2339.48 357.897,2340.61C357.897,2341.39 357.615,2342.09 357.615,2343.08L357.615,2343.29C358.604,2352.2 360.372,2366.7 361.433,2373.91C361.645,2375.61 362.493,2378.15 362.493,2378.58C362.493,2379.57 360.867,2380.7 359.17,2380.7C357.615,2380.7 356.413,2379.85 356.342,2378.79C356.2,2377.23 356.271,2376.31 356.059,2374.62L352.806,2347.39C351.887,2349.38 341.847,2370.8 341.847,2372.35C341.776,2374.19 339.514,2374.9 338.312,2374.9C337.463,2374.9 336.19,2374.55 335.837,2373.27L334.635,2370.09Z" style="fill-rule:nonzero;"/>
        </g>
    </g>
</svg>
