<?xml version="1.0" encoding="UTF-8" standalone="no"?>
<!DOCTYPE svg PUBLIC "-//W3C//DTD SVG 1.1//EN" "http://www.w3.org/Graphics/SVG/1.1/DTD/svg11.dtd">
<svg width="100%" height="100%" viewBox="0 0 89 89" version="1.1" xmlns="http://www.w3.org/2000/svg" xmlns:xlink="http://www.w3.org/1999/xlink" xml:space="preserve" xmlns:serif="http://www.serif.com/" style="fill-rule:evenodd;clip-rule:evenodd;stroke-linejoin:round;stroke-miterlimit:2;">
    <g transform="matrix(1,0,0,1,-1602.51,-2492.27)">
        <g transform="matrix(1.41414,0,0,1.41429,-1052.39,-837.704)">
            <path d="M1934.24,2416.89C1937.63,2416.89 1939.75,2414.35 1939.75,2411.38L1939.75,2360.05C1939.75,2356.58 1937.28,2354.53 1934.24,2354.53L1882.9,2354.53C1879.44,2354.53 1877.39,2356.86 1877.39,2360.05L1877.39,2411.38C1877.39,2414.56 1879.86,2416.89 1882.9,2416.89L1934.24,2416.89ZM1903.83,2396.67C1901.92,2392.08 1897.89,2382.74 1894.99,2375.25C1891.67,2402.96 1891.6,2403.67 1891.53,2405.3C1891.46,2406.36 1889.69,2407.35 1888.07,2407.35C1886.58,2407.35 1885.52,2406.5 1885.52,2405.58C1885.52,2404.52 1886.23,2402.19 1886.44,2400.98C1887.85,2392.01 1889.12,2379.84 1890.26,2370.16C1890.26,2369.87 1890.33,2369.66 1890.33,2369.45C1890.33,2368.88 1890.26,2368.39 1890.26,2367.89C1890.26,2367.68 1890.26,2367.4 1890.33,2367.12C1890.75,2365.56 1892.94,2364.78 1894.29,2364.78C1896.2,2364.78 1896.41,2365.28 1897.26,2367.4C1900.58,2375.53 1904.82,2386.07 1907.86,2392.99C1911.47,2384.58 1915.99,2374.54 1919.67,2366.97C1920.38,2365.35 1920.87,2364.22 1922.5,2364.22C1924.05,2364.22 1927.1,2366.05 1927.1,2367.19C1927.1,2367.96 1926.81,2368.67 1926.81,2369.66L1926.81,2369.87C1927.8,2378.78 1929.57,2393.28 1930.63,2400.49C1930.84,2402.19 1931.69,2404.73 1931.69,2405.16C1931.69,2406.15 1930.07,2407.28 1928.37,2407.28C1926.81,2407.28 1925.61,2406.43 1925.54,2405.37C1925.4,2403.81 1925.47,2402.89 1925.26,2401.2L1922,2373.97C1921.09,2375.95 1911.04,2397.38 1911.04,2398.93C1910.97,2400.77 1908.71,2401.48 1907.51,2401.48C1906.66,2401.48 1905.39,2401.13 1905.03,2399.85L1903.83,2396.67Z" style="fill-rule:nonzero;"/>
        </g>
    </g>
</svg>
