<?xml version="1.0" encoding="UTF-8" standalone="no"?>
<!DOCTYPE svg PUBLIC "-//W3C//DTD SVG 1.1//EN" "http://www.w3.org/Graphics/SVG/1.1/DTD/svg11.dtd">
<svg width="100%" height="100%" viewBox="0 0 98 90" version="1.1" xmlns="http://www.w3.org/2000/svg" xmlns:xlink="http://www.w3.org/1999/xlink" xml:space="preserve" xmlns:serif="http://www.serif.com/" style="fill-rule:evenodd;clip-rule:evenodd;stroke-linejoin:round;stroke-miterlimit:2;">
    <g transform="matrix(1,0,0,1,-5337.43,-2435.56)">
        <g transform="matrix(1,0,0,1,1,0)">
            <path d="M5381.72,2499.66C5381.92,2500.46 5382.82,2500.86 5383.82,2500.86C5385.42,2500.86 5387.22,2499.96 5387.32,2498.66C5387.32,2496.26 5400.02,2468.86 5405.22,2458.16C5406.62,2471.06 5409.22,2491.86 5410.42,2501.76C5410.62,2504.26 5410.62,2505.56 5410.82,2507.76C5410.82,2508.66 5412.02,2509.06 5413.32,2509.06C5414.82,2509.06 5416.52,2508.46 5416.52,2507.56C5416.52,2507.46 5416.42,2507.36 5416.42,2507.26C5414.92,2502.56 5413.62,2493.76 5409.62,2457.76L5409.62,2457.36C5409.62,2455.96 5410.02,2454.96 5410.02,2453.86C5410.02,2452.66 5406.62,2451.16 5405.02,2451.16C5403.22,2451.16 5402.92,2452.86 5402.32,2454.26C5396.62,2465.86 5389.62,2481.66 5384.32,2494.06C5380.02,2484.66 5373.22,2467.56 5367.92,2454.76C5367.52,2453.76 5367.32,2452.66 5366.62,2452.26C5366.23,2452.06 5365.73,2451.96 5365.12,2451.96C5363.32,2451.96 5361.23,2453.06 5361.03,2454.16C5360.93,2454.46 5360.93,2454.76 5360.93,2455.16C5360.93,2455.66 5361.03,2456.26 5361.03,2457.06C5361.03,2457.36 5360.93,2457.76 5360.93,2458.16C5356.13,2499.16 5355.83,2501.36 5354.23,2507.96L5354.23,2508.16C5354.23,2508.86 5355.23,2509.16 5356.33,2509.16C5357.82,2509.16 5359.62,2508.66 5359.73,2507.66C5359.82,2506.16 5361.12,2492.76 5365.32,2459.06C5369.42,2470.06 5376.82,2487.26 5380.02,2494.96L5381.72,2499.66ZM5356.63,2523.56C5356.63,2523.16 5356.53,2522.66 5356.13,2522.26C5346.33,2510.56 5341.73,2494.36 5341.73,2480.16C5341.73,2465.96 5346.33,2449.76 5356.13,2438.06C5356.53,2437.66 5356.63,2437.16 5356.63,2436.76C5356.63,2436.06 5356.13,2435.56 5355.43,2435.56C5353.13,2435.56 5336.43,2452.96 5336.43,2480.16C5336.43,2507.26 5353.13,2524.76 5355.43,2524.76C5356.13,2524.76 5356.63,2524.26 5356.63,2523.56ZM5415.12,2524.76C5417.42,2524.76 5434.12,2507.26 5434.12,2480.16C5434.12,2452.96 5417.42,2435.56 5415.12,2435.56C5414.42,2435.56 5413.92,2436.06 5413.92,2436.76C5413.92,2437.16 5414.02,2437.66 5414.42,2438.06C5424.22,2449.76 5428.82,2465.96 5428.82,2480.16C5428.82,2494.36 5424.22,2510.56 5414.42,2522.26C5414.02,2522.66 5413.92,2523.16 5413.92,2523.56C5413.92,2524.26 5414.42,2524.76 5415.12,2524.76Z" style="fill-rule:nonzero;"/>
        </g>
    </g>
</svg>
