<?xml version="1.0" encoding="UTF-8" standalone="no"?>
<!DOCTYPE svg PUBLIC "-//W3C//DTD SVG 1.1//EN" "http://www.w3.org/Graphics/SVG/1.1/DTD/svg11.dtd">
<svg width="100%" height="100%" viewBox="0 0 89 89" version="1.1" xmlns="http://www.w3.org/2000/svg" xmlns:xlink="http://www.w3.org/1999/xlink" xml:space="preserve" xmlns:serif="http://www.serif.com/" style="fill-rule:evenodd;clip-rule:evenodd;stroke-linejoin:round;stroke-miterlimit:2;">
    <g transform="matrix(1,0,0,1,-2893.34,-2481.51)">
        <g transform="matrix(1.41414,0,0,1.41429,-1389.33,-1046.26)">
            <path d="M3085.31,2556.75C3088.7,2556.75 3090.83,2554.2 3090.83,2551.23L3090.83,2499.9C3090.83,2496.43 3088.35,2494.39 3085.31,2494.39L3033.98,2494.39C3030.51,2494.39 3028.46,2496.72 3028.46,2499.9L3028.46,2551.23C3028.46,2554.41 3030.94,2556.75 3033.98,2556.75L3085.31,2556.75ZM3087.93,2551.52C3087.93,2553.07 3086.87,2553.85 3085.66,2553.85L3033.62,2553.85C3032.14,2553.85 3031.36,2552.79 3031.36,2551.52L3031.36,2499.55C3031.36,2498.13 3032.28,2497.28 3033.62,2497.28L3085.66,2497.28C3087.08,2497.28 3087.93,2498.34 3087.93,2499.55L3087.93,2551.52ZM3057.1,2539.43C3057.24,2539.99 3057.88,2540.27 3058.58,2540.27C3059.71,2540.27 3060.99,2539.64 3061.06,2538.72C3061.06,2537.02 3070.04,2517.65 3073.71,2510.08C3074.7,2519.2 3076.54,2533.91 3077.39,2540.91C3077.53,2542.68 3077.53,2543.6 3077.67,2545.15C3077.67,2545.79 3078.52,2546.07 3079.44,2546.07C3080.5,2546.07 3081.7,2545.65 3081.7,2545.01C3081.7,2544.94 3081.63,2544.87 3081.63,2544.8C3080.57,2541.48 3079.65,2535.25 3076.83,2509.8L3076.83,2509.52C3076.83,2508.53 3077.11,2507.82 3077.11,2507.04C3077.11,2506.19 3074.7,2505.13 3073.57,2505.13C3072.3,2505.13 3072.09,2506.33 3071.66,2507.32C3067.63,2515.53 3062.68,2526.7 3058.94,2535.47C3055.9,2528.82 3051.09,2516.73 3047.34,2507.68C3047.06,2506.97 3046.92,2506.19 3046.42,2505.91C3046.14,2505.77 3045.78,2505.7 3045.36,2505.7C3044.09,2505.7 3042.6,2506.48 3042.46,2507.25C3042.39,2507.47 3042.39,2507.68 3042.39,2507.96C3042.39,2508.31 3042.46,2508.74 3042.46,2509.3C3042.46,2509.52 3042.39,2509.8 3042.39,2510.08C3039,2539.07 3038.78,2540.63 3037.65,2545.29L3037.65,2545.43C3037.65,2545.93 3038.36,2546.14 3039.14,2546.14C3040.2,2546.14 3041.47,2545.79 3041.54,2545.08C3041.61,2544.02 3042.53,2534.55 3045.5,2510.72C3048.4,2518.5 3053.63,2530.66 3055.9,2536.1L3057.1,2539.43Z" style="fill-rule:nonzero;"/>
        </g>
    </g>
</svg>
