<?xml version="1.0" encoding="UTF-8" standalone="no"?>
<!DOCTYPE svg PUBLIC "-//W3C//DTD SVG 1.1//EN" "http://www.w3.org/Graphics/SVG/1.1/DTD/svg11.dtd">
<svg width="100%" height="100%" viewBox="0 0 89 89" version="1.1" xmlns="http://www.w3.org/2000/svg" xmlns:xlink="http://www.w3.org/1999/xlink" xml:space="preserve" xmlns:serif="http://www.serif.com/" style="fill-rule:evenodd;clip-rule:evenodd;stroke-linejoin:round;stroke-miterlimit:2;">
    <g transform="matrix(1,0,0,1,-2040.22,-1938.66)">
        <g transform="matrix(1,0,0,1,-1072.97,-2735.12)">
            <path d="M3201.38,4761.99L3201.38,4673.79L3113.18,4673.79L3113.18,4761.99L3201.38,4761.99ZM3197.28,4757.89L3117.28,4757.89L3117.28,4677.89L3197.28,4677.89L3197.28,4757.89ZM3153.68,4737.49C3153.88,4738.29 3154.78,4738.69 3155.78,4738.69C3157.38,4738.69 3159.18,4737.79 3159.28,4736.49C3159.28,4734.09 3171.98,4706.69 3177.18,4695.99C3178.58,4708.89 3181.18,4729.69 3182.38,4739.59C3182.58,4742.09 3182.58,4743.39 3182.78,4745.59C3182.78,4746.49 3183.98,4746.89 3185.28,4746.89C3186.78,4746.89 3188.48,4746.29 3188.48,4745.39C3188.48,4745.29 3188.38,4745.19 3188.38,4745.09C3186.88,4740.39 3185.58,4731.59 3181.58,4695.59L3181.58,4695.19C3181.58,4693.79 3181.98,4692.79 3181.98,4691.69C3181.98,4690.49 3178.58,4688.99 3176.98,4688.99C3175.18,4688.99 3174.88,4690.69 3174.28,4692.09C3168.58,4703.69 3161.58,4719.49 3156.28,4731.89C3151.98,4722.49 3145.18,4705.39 3139.88,4692.59C3139.48,4691.59 3139.28,4690.49 3138.58,4690.09C3138.18,4689.89 3137.68,4689.79 3137.08,4689.79C3135.28,4689.79 3133.18,4690.89 3132.98,4691.99C3132.88,4692.29 3132.88,4692.59 3132.88,4692.99C3132.88,4693.49 3132.98,4694.09 3132.98,4694.89C3132.98,4695.19 3132.88,4695.59 3132.88,4695.99C3128.08,4736.99 3127.78,4739.19 3126.18,4745.79L3126.18,4745.99C3126.18,4746.69 3127.18,4746.99 3128.28,4746.99C3129.78,4746.99 3131.58,4746.49 3131.68,4745.49C3131.78,4743.99 3133.08,4730.59 3137.28,4696.89C3141.38,4707.89 3148.78,4725.09 3151.98,4732.79L3153.68,4737.49Z" style="fill-rule:nonzero;"/>
        </g>
    </g>
</svg>
