<?xml version="1.0" encoding="UTF-8" standalone="no"?>
<!DOCTYPE svg PUBLIC "-//W3C//DTD SVG 1.1//EN" "http://www.w3.org/Graphics/SVG/1.1/DTD/svg11.dtd">
<svg width="100%" height="100%" viewBox="0 0 62 73" version="1.1" xmlns="http://www.w3.org/2000/svg" xmlns:xlink="http://www.w3.org/1999/xlink" xml:space="preserve" xmlns:serif="http://www.serif.com/" style="fill-rule:evenodd;clip-rule:evenodd;stroke-linejoin:round;stroke-miterlimit:2;">
    <g transform="matrix(1,0,0,1,-4335.42,-2622.77)">
        <g transform="matrix(1.41414,0,0,1.41429,-1534.59,-78.5653)">
            <path d="M4190.04,1952.74C4190.04,1955.22 4189.82,1957.9 4189.82,1959.03C4189.82,1960.24 4191.73,1961.01 4193.08,1961.01C4193.78,1961.01 4194.28,1960.8 4194.28,1960.31C4194.28,1958.68 4194.07,1955.71 4194.07,1952.81L4194.07,1915.83C4194.07,1914.49 4194.42,1913.43 4194.42,1912.37C4194.42,1911.38 4191.1,1910.03 4189.68,1910.03C4188.13,1910.03 4187.7,1911.59 4187.21,1912.72C4182.54,1923.18 4176.82,1936.34 4172.22,1947.37C4168.19,1939.1 4161.75,1924.46 4157.23,1913.14C4156.88,1912.3 4156.81,1911.16 4156.24,1910.81C4155.89,1910.6 4155.46,1910.53 4154.97,1910.53C4153.34,1910.53 4151.22,1911.59 4151.01,1912.65C4150.94,1912.79 4150.94,1913 4150.94,1913.22C4150.94,1914.06 4151.29,1914.98 4151.29,1916.12L4151.29,1952.74C4151.29,1955.22 4151.08,1957.9 4151.08,1959.03C4151.08,1960.24 4152.99,1961.01 4154.33,1961.01C4155.04,1961.01 4155.53,1960.8 4155.53,1960.31C4155.53,1958.68 4155.32,1955.71 4155.32,1952.81L4155.32,1918.38C4159,1927.78 4165.15,1941.5 4168.47,1948.29C4168.75,1948.85 4169.46,1950.76 4169.96,1952.25C4170.17,1952.95 4170.88,1953.24 4171.65,1953.24C4173.07,1953.24 4174.84,1952.39 4174.84,1951.47C4174.84,1949.98 4184.1,1929.05 4190.04,1916.18L4190.04,1952.74Z" style="fill-rule:nonzero;"/>
        </g>
    </g>
</svg>
