<?xml version="1.0" encoding="UTF-8" standalone="no"?>
<!DOCTYPE svg PUBLIC "-//W3C//DTD SVG 1.1//EN" "http://www.w3.org/Graphics/SVG/1.1/DTD/svg11.dtd">
<svg width="100%" height="100%" viewBox="0 0 59 61" version="1.1" xmlns="http://www.w3.org/2000/svg" xmlns:xlink="http://www.w3.org/1999/xlink" xml:space="preserve" xmlns:serif="http://www.serif.com/" style="fill-rule:evenodd;clip-rule:evenodd;stroke-linejoin:round;stroke-miterlimit:2;">
    <g transform="matrix(1,0,0,1,-4536.7,-2026.67)">
        <g transform="matrix(1.41414,0,0,1.41429,-1534.59,-78.5653)">
            <path d="M4328.06,1526.02C4332.09,1530.41 4332.44,1530.62 4332.8,1530.62C4333.64,1530.62 4334.56,1529.13 4334.56,1528C4334.56,1527.65 4334.49,1527.3 4334.21,1527.08C4332.65,1525.81 4330.96,1524.18 4330.11,1523.41L4316.67,1509.97L4330.32,1496.33C4331.45,1495.12 4333.71,1493 4334.56,1492.3C4334.85,1492.08 4334.92,1491.8 4334.92,1491.45C4334.92,1490.32 4334.07,1488.83 4333.15,1488.83C4332.94,1488.83 4332.72,1488.9 4332.51,1489.12C4331.59,1490.11 4329.75,1492.08 4328.13,1493.64L4314.27,1507.57L4300.13,1493.36C4295.67,1488.69 4295.53,1488.55 4295.18,1488.55C4294.26,1488.55 4293.34,1490.11 4293.34,1491.16C4293.34,1491.52 4293.41,1491.8 4293.69,1492.01C4294.61,1492.72 4296.81,1494.77 4298.01,1495.97L4311.94,1509.9L4297.72,1524.18L4293.62,1527.86C4293.34,1528.07 4293.27,1528.43 4293.27,1528.78C4293.27,1529.91 4294.19,1531.4 4295.04,1531.4C4295.25,1531.4 4295.39,1531.33 4295.6,1531.12C4297.16,1529.56 4298.86,1527.72 4299.77,1526.8L4314.34,1512.31L4328.06,1526.02Z" style="fill-rule:nonzero;"/>
        </g>
    </g>
</svg>
