<?xml version="1.0" encoding="UTF-8" standalone="no"?>
<!DOCTYPE svg PUBLIC "-//W3C//DTD SVG 1.1//EN" "http://www.w3.org/Graphics/SVG/1.1/DTD/svg11.dtd">
<svg width="100%" height="100%" viewBox="0 0 96 96" version="1.1" xmlns="http://www.w3.org/2000/svg" xmlns:xlink="http://www.w3.org/1999/xlink" xml:space="preserve" xmlns:serif="http://www.serif.com/" style="fill-rule:evenodd;clip-rule:evenodd;stroke-linejoin:round;stroke-miterlimit:2;">
    <g transform="matrix(1,0,0,1,-1409.63,-2723.28)">
        <g transform="matrix(1,0,0,1,-110.019,-3591.86)">
            <path d="M1615.25,6362.94C1615.25,6336.55 1593.85,6315.15 1567.45,6315.15C1541.05,6315.15 1519.65,6336.55 1519.65,6362.94C1519.65,6389.35 1541.05,6410.65 1567.45,6410.65C1593.85,6410.65 1615.25,6389.35 1615.25,6362.94ZM1611.15,6362.94C1611.15,6387.05 1591.55,6406.55 1567.45,6406.55C1543.35,6406.55 1523.75,6387.05 1523.75,6362.94C1523.75,6338.85 1543.35,6319.24 1567.45,6319.24C1591.55,6319.24 1611.15,6338.85 1611.15,6362.94ZM1584.15,6384.85C1574.85,6372.24 1562.35,6353.15 1552.25,6335.94C1551.75,6335.15 1551.45,6334.15 1550.55,6333.94C1550.25,6333.85 1549.95,6333.85 1549.55,6333.85C1548.05,6333.85 1546.15,6334.35 1545.75,6335.44C1545.65,6335.55 1545.65,6335.74 1545.65,6335.94C1545.65,6336.74 1546.15,6337.85 1546.15,6338.74L1546.15,6382.55C1546.15,6385.35 1545.95,6388.44 1545.95,6389.74C1545.95,6391.05 1548.15,6391.94 1549.55,6391.94C1550.35,6391.94 1550.95,6391.74 1550.95,6391.15C1550.95,6389.35 1550.65,6385.94 1550.65,6382.55L1550.65,6341.65C1558.75,6355.74 1571.85,6375.74 1581.45,6388.94C1582.25,6390.05 1583.15,6391.94 1584.75,6391.94C1586.65,6391.94 1588.95,6390.44 1588.95,6388.94C1588.95,6387.94 1588.65,6385.65 1588.65,6384.74L1588.65,6343.44C1588.65,6340.65 1588.85,6337.55 1588.85,6336.24C1588.85,6334.94 1586.65,6334.05 1585.25,6334.05C1584.45,6334.05 1583.85,6334.24 1583.85,6334.85C1583.85,6336.65 1584.15,6340.05 1584.15,6343.35L1584.15,6384.85Z" style="fill-rule:nonzero;"/>
        </g>
    </g>
</svg>
