<?xml version="1.0" encoding="UTF-8" standalone="no"?>
<!DOCTYPE svg PUBLIC "-//W3C//DTD SVG 1.1//EN" "http://www.w3.org/Graphics/SVG/1.1/DTD/svg11.dtd">
<svg width="100%" height="100%" viewBox="0 0 89 89" version="1.1" xmlns="http://www.w3.org/2000/svg" xmlns:xlink="http://www.w3.org/1999/xlink" xml:space="preserve" xmlns:serif="http://www.serif.com/" style="fill-rule:evenodd;clip-rule:evenodd;stroke-linejoin:round;stroke-miterlimit:2;">
    <g transform="matrix(1,0,0,1,-358.759,-2521.63)">
        <g transform="matrix(1.41414,0,0,1.41429,-177.055,-770.755)">
            <path d="M441.261,2390.31L441.261,2327.95L378.897,2327.95L378.897,2390.31L441.261,2390.31ZM426.13,2374.62C426.13,2375.25 426.342,2376.88 426.342,2377.59C426.342,2379.57 423.867,2380.77 422.312,2380.77C421.251,2380.77 420.544,2380.13 420.12,2379.64C418.423,2377.59 407.392,2361.68 399.261,2348.03L399.261,2373.06C399.261,2375.47 399.473,2377.87 399.473,2379.14C399.473,2380.13 398.695,2380.77 397.423,2380.77C395.938,2380.77 393.817,2379.5 393.817,2378.15C393.817,2377.23 393.958,2375.04 393.958,2373.06L393.958,2342.09C393.958,2341.88 393.887,2341.6 393.817,2341.31C393.746,2340.96 393.604,2340.54 393.604,2340.11C393.604,2338.98 394.806,2337.57 397.423,2337.57C397.847,2337.57 398.13,2337.57 398.413,2337.71C399.049,2337.85 399.473,2338.27 399.756,2338.63C399.897,2338.91 400.039,2339.26 400.251,2339.55C406.685,2350.58 414.534,2362.67 420.827,2371.43L420.827,2345.34C420.827,2343.01 420.615,2340.61 420.615,2339.33C420.615,2338.34 421.392,2337.71 422.665,2337.71C424.15,2337.71 426.271,2338.98 426.271,2340.32C426.271,2341.24 426.13,2343.43 426.13,2345.41L426.13,2374.62Z" style="fill-rule:nonzero;"/>
        </g>
    </g>
</svg>
