<?xml version="1.0" encoding="UTF-8" standalone="no"?>
<!DOCTYPE svg PUBLIC "-//W3C//DTD SVG 1.1//EN" "http://www.w3.org/Graphics/SVG/1.1/DTD/svg11.dtd">
<svg width="100%" height="100%" viewBox="0 0 96 96" version="1.1" xmlns="http://www.w3.org/2000/svg" xmlns:xlink="http://www.w3.org/1999/xlink" xml:space="preserve" xmlns:serif="http://www.serif.com/" style="fill-rule:evenodd;clip-rule:evenodd;stroke-linejoin:round;stroke-miterlimit:2;">
    <g transform="matrix(1,0,0,1,-1809.63,-3923.28)">
        <g transform="matrix(1,0,0,1,-110.019,-3591.86)">
            <path d="M2015.25,7562.94C2015.25,7536.55 1993.85,7515.15 1967.45,7515.15C1941.05,7515.15 1919.65,7536.55 1919.65,7562.94C1919.65,7589.35 1941.05,7610.65 1967.45,7610.65C1993.85,7610.65 2015.25,7589.35 2015.25,7562.94ZM1990.15,7584.74C1990.15,7585.65 1990.45,7587.94 1990.45,7588.94C1990.45,7591.74 1986.95,7593.44 1984.75,7593.44C1983.25,7593.44 1982.25,7592.55 1981.65,7591.85C1979.25,7588.94 1963.65,7566.44 1952.15,7547.15L1952.15,7582.55C1952.15,7585.94 1952.45,7589.35 1952.45,7591.15C1952.45,7592.55 1951.35,7593.44 1949.55,7593.44C1947.45,7593.44 1944.45,7591.65 1944.45,7589.74C1944.45,7588.44 1944.65,7585.35 1944.65,7582.55L1944.65,7538.74C1944.65,7538.44 1944.55,7538.05 1944.45,7537.65C1944.35,7537.15 1944.15,7536.55 1944.15,7535.94C1944.15,7534.35 1945.85,7532.35 1949.55,7532.35C1950.15,7532.35 1950.55,7532.35 1950.95,7532.55C1951.85,7532.74 1952.45,7533.35 1952.85,7533.85C1953.05,7534.24 1953.25,7534.74 1953.55,7535.15C1962.65,7550.74 1973.75,7567.85 1982.65,7580.24L1982.65,7543.35C1982.65,7540.05 1982.35,7536.65 1982.35,7534.85C1982.35,7533.44 1983.45,7532.55 1985.25,7532.55C1987.35,7532.55 1990.35,7534.35 1990.35,7536.24C1990.35,7537.55 1990.15,7540.65 1990.15,7543.44L1990.15,7584.74Z" style="fill-rule:nonzero;"/>
        </g>
    </g>
</svg>
