<?xml version="1.0" encoding="UTF-8" standalone="no"?>
<!DOCTYPE svg PUBLIC "-//W3C//DTD SVG 1.1//EN" "http://www.w3.org/Graphics/SVG/1.1/DTD/svg11.dtd">
<svg width="100%" height="100%" viewBox="0 0 89 89" version="1.1" xmlns="http://www.w3.org/2000/svg" xmlns:xlink="http://www.w3.org/1999/xlink" xml:space="preserve" xmlns:serif="http://www.serif.com/" style="fill-rule:evenodd;clip-rule:evenodd;stroke-linejoin:round;stroke-miterlimit:2;">
    <g transform="matrix(1,0,0,1,-1702.49,-2492.27)">
        <g transform="matrix(1.41414,0,0,1.41429,-1052.39,-837.704)">
            <path d="M2004.94,2416.89C2008.34,2416.89 2010.46,2414.35 2010.46,2411.38L2010.46,2360.05C2010.46,2356.58 2007.98,2354.53 2004.94,2354.53L1953.61,2354.53C1950.14,2354.53 1948.1,2356.86 1948.1,2360.05L1948.1,2411.38C1948.1,2414.56 1950.57,2416.89 1953.61,2416.89L2004.94,2416.89ZM1995.33,2401.2C1995.33,2401.83 1995.54,2403.46 1995.54,2404.17C1995.54,2406.15 1993.07,2407.35 1991.51,2407.35C1990.45,2407.35 1989.74,2406.71 1989.32,2406.22C1987.62,2404.17 1976.59,2388.26 1968.46,2374.61L1968.46,2399.64C1968.46,2402.05 1968.67,2404.45 1968.67,2405.72C1968.67,2406.71 1967.89,2407.35 1966.62,2407.35C1965.13,2407.35 1963.01,2406.08 1963.01,2404.73C1963.01,2403.81 1963.15,2401.62 1963.15,2399.64L1963.15,2368.67C1963.15,2368.46 1963.09,2368.18 1963.01,2367.89C1962.94,2367.54 1962.8,2367.12 1962.8,2366.69C1962.8,2365.56 1964,2364.15 1966.62,2364.15C1967.04,2364.15 1967.33,2364.15 1967.61,2364.29C1968.25,2364.43 1968.67,2364.85 1968.95,2365.21C1969.1,2365.49 1969.24,2365.84 1969.45,2366.13C1975.88,2377.16 1983.73,2389.25 1990.02,2398.01L1990.02,2371.92C1990.02,2369.59 1989.81,2367.19 1989.81,2365.91C1989.81,2364.92 1990.59,2364.29 1991.86,2364.29C1993.35,2364.29 1995.47,2365.56 1995.47,2366.9C1995.47,2367.82 1995.33,2370.01 1995.33,2371.99L1995.33,2401.2Z" style="fill-rule:nonzero;"/>
        </g>
    </g>
</svg>
