<?xml version="1.0" encoding="UTF-8" standalone="no"?>
<!DOCTYPE svg PUBLIC "-//W3C//DTD SVG 1.1//EN" "http://www.w3.org/Graphics/SVG/1.1/DTD/svg11.dtd">
<svg width="100%" height="100%" viewBox="0 0 98 90" version="1.1" xmlns="http://www.w3.org/2000/svg" xmlns:xlink="http://www.w3.org/1999/xlink" xml:space="preserve" xmlns:serif="http://www.serif.com/" style="fill-rule:evenodd;clip-rule:evenodd;stroke-linejoin:round;stroke-miterlimit:2;">
    <g transform="matrix(1,0,0,1,-5437.42,-2435.56)">
        <g transform="matrix(1,0,0,1,1,0)">
            <path d="M5515.11,2524.76C5517.41,2524.76 5534.11,2507.26 5534.11,2480.16C5534.11,2452.96 5517.41,2435.56 5515.11,2435.56C5514.41,2435.56 5513.91,2436.06 5513.91,2436.76C5513.91,2437.16 5514.01,2437.66 5514.41,2438.06C5524.21,2449.76 5528.81,2465.96 5528.81,2480.16C5528.81,2494.36 5524.21,2510.56 5514.41,2522.26C5514.01,2522.66 5513.91,2523.16 5513.91,2523.56C5513.91,2524.26 5514.41,2524.76 5515.11,2524.76ZM5502.01,2502.06C5492.71,2489.46 5480.21,2470.36 5470.11,2453.16C5469.61,2452.36 5469.31,2451.36 5468.41,2451.16C5468.11,2451.06 5467.81,2451.06 5467.41,2451.06C5465.91,2451.06 5464.02,2451.56 5463.61,2452.66C5463.52,2452.76 5463.52,2452.96 5463.52,2453.16C5463.52,2453.96 5464.02,2455.06 5464.02,2455.96L5464.02,2499.76C5464.02,2502.56 5463.82,2505.66 5463.82,2506.96C5463.82,2508.26 5466.01,2509.16 5467.41,2509.16C5468.21,2509.16 5468.81,2508.96 5468.81,2508.36C5468.81,2506.56 5468.51,2503.16 5468.51,2499.76L5468.51,2458.86C5476.61,2472.96 5489.71,2492.96 5499.31,2506.16C5500.11,2507.26 5501.01,2509.16 5502.61,2509.16C5504.51,2509.16 5506.81,2507.66 5506.81,2506.16C5506.81,2505.16 5506.51,2502.86 5506.51,2501.96L5506.51,2460.66C5506.51,2457.86 5506.71,2454.76 5506.71,2453.46C5506.71,2452.16 5504.51,2451.26 5503.11,2451.26C5502.31,2451.26 5501.71,2451.46 5501.71,2452.06C5501.71,2453.86 5502.01,2457.26 5502.01,2460.56L5502.01,2502.06ZM5456.61,2523.56C5456.61,2523.16 5456.52,2522.66 5456.11,2522.26C5446.32,2510.56 5441.72,2494.36 5441.72,2480.16C5441.72,2465.96 5446.32,2449.76 5456.11,2438.06C5456.52,2437.66 5456.61,2437.16 5456.61,2436.76C5456.61,2436.06 5456.11,2435.56 5455.41,2435.56C5453.12,2435.56 5436.42,2452.96 5436.42,2480.16C5436.42,2507.26 5453.12,2524.76 5455.41,2524.76C5456.11,2524.76 5456.61,2524.26 5456.61,2523.56Z" style="fill-rule:nonzero;"/>
        </g>
    </g>
</svg>
