<?xml version="1.0" encoding="UTF-8" standalone="no"?>
<!DOCTYPE svg PUBLIC "-//W3C//DTD SVG 1.1//EN" "http://www.w3.org/Graphics/SVG/1.1/DTD/svg11.dtd">
<svg width="100%" height="100%" viewBox="0 0 89 89" version="1.1" xmlns="http://www.w3.org/2000/svg" xmlns:xlink="http://www.w3.org/1999/xlink" xml:space="preserve" xmlns:serif="http://www.serif.com/" style="fill-rule:evenodd;clip-rule:evenodd;stroke-linejoin:round;stroke-miterlimit:2;">
    <g transform="matrix(1,0,0,1,-2993.33,-2481.51)">
        <g transform="matrix(1.41414,0,0,1.41429,-1389.33,-1046.26)">
            <path d="M3156.02,2556.75C3159.41,2556.75 3161.53,2554.2 3161.53,2551.23L3161.53,2499.9C3161.53,2496.43 3159.06,2494.39 3156.02,2494.39L3104.68,2494.39C3101.22,2494.39 3099.17,2496.72 3099.17,2499.9L3099.17,2551.23C3099.17,2554.41 3101.64,2556.75 3104.68,2556.75L3156.02,2556.75ZM3158.63,2551.52C3158.63,2553.07 3157.57,2553.85 3156.37,2553.85L3104.33,2553.85C3102.85,2553.85 3102.07,2552.79 3102.07,2551.52L3102.07,2499.55C3102.07,2498.13 3102.99,2497.28 3104.33,2497.28L3156.37,2497.28C3157.78,2497.28 3158.63,2498.34 3158.63,2499.55L3158.63,2551.52ZM3142.16,2541.12C3135.58,2532.21 3126.74,2518.71 3119.6,2506.55C3119.25,2505.98 3119.04,2505.27 3118.4,2505.13C3118.19,2505.06 3117.98,2505.06 3117.69,2505.06C3116.63,2505.06 3115.29,2505.41 3115.01,2506.19C3114.94,2506.26 3114.94,2506.41 3114.94,2506.55C3114.94,2507.11 3115.29,2507.89 3115.29,2508.53L3115.29,2539.5C3115.29,2541.48 3115.15,2543.67 3115.15,2544.59C3115.15,2545.51 3116.7,2546.14 3117.69,2546.14C3118.26,2546.14 3118.68,2546 3118.68,2545.58C3118.68,2544.3 3118.47,2541.9 3118.47,2539.5L3118.47,2510.58C3124.2,2520.55 3133.46,2534.69 3140.25,2544.02C3140.82,2544.8 3141.45,2546.14 3142.58,2546.14C3143.93,2546.14 3145.55,2545.08 3145.55,2544.02C3145.55,2543.31 3145.34,2541.69 3145.34,2541.05L3145.34,2511.85C3145.34,2509.87 3145.48,2507.68 3145.48,2506.76C3145.48,2505.84 3143.93,2505.2 3142.94,2505.2C3142.37,2505.2 3141.95,2505.34 3141.95,2505.77C3141.95,2507.04 3142.16,2509.45 3142.16,2511.78L3142.16,2541.12Z" style="fill-rule:nonzero;"/>
        </g>
    </g>
</svg>
