<?xml version="1.0" encoding="UTF-8" standalone="no"?>
<!DOCTYPE svg PUBLIC "-//W3C//DTD SVG 1.1//EN" "http://www.w3.org/Graphics/SVG/1.1/DTD/svg11.dtd">
<svg width="100%" height="100%" viewBox="0 0 89 89" version="1.1" xmlns="http://www.w3.org/2000/svg" xmlns:xlink="http://www.w3.org/1999/xlink" xml:space="preserve" xmlns:serif="http://www.serif.com/" style="fill-rule:evenodd;clip-rule:evenodd;stroke-linejoin:round;stroke-miterlimit:2;">
    <g transform="matrix(1,0,0,1,-2140.22,-1938.66)">
        <g transform="matrix(1,0,0,1,-1072.97,-2735.12)">
            <path d="M3301.38,4761.99L3301.38,4673.79L3213.18,4673.79L3213.18,4761.99L3301.38,4761.99ZM3297.28,4757.89L3217.28,4757.89L3217.28,4677.89L3297.28,4677.89L3297.28,4757.89ZM3273.98,4739.89C3264.68,4727.29 3252.18,4708.19 3242.08,4690.99C3241.58,4690.19 3241.28,4689.19 3240.38,4688.99C3240.08,4688.89 3239.78,4688.89 3239.38,4688.89C3237.88,4688.89 3235.98,4689.39 3235.58,4690.49C3235.48,4690.59 3235.48,4690.79 3235.48,4690.99C3235.48,4691.79 3235.98,4692.89 3235.98,4693.79L3235.98,4737.59C3235.98,4740.39 3235.78,4743.49 3235.78,4744.79C3235.78,4746.09 3237.98,4746.99 3239.38,4746.99C3240.18,4746.99 3240.78,4746.79 3240.78,4746.19C3240.78,4744.39 3240.48,4740.99 3240.48,4737.59L3240.48,4696.69C3248.58,4710.79 3261.68,4730.79 3271.28,4743.99C3272.08,4745.09 3272.98,4746.99 3274.58,4746.99C3276.48,4746.99 3278.78,4745.49 3278.78,4743.99C3278.78,4742.99 3278.48,4740.69 3278.48,4739.79L3278.48,4698.49C3278.48,4695.69 3278.68,4692.59 3278.68,4691.29C3278.68,4689.99 3276.48,4689.09 3275.08,4689.09C3274.28,4689.09 3273.68,4689.29 3273.68,4689.89C3273.68,4691.69 3273.98,4695.09 3273.98,4698.39L3273.98,4739.89Z" style="fill-rule:nonzero;"/>
        </g>
    </g>
</svg>
