<?xml version="1.0" encoding="UTF-8" standalone="no"?>
<!DOCTYPE svg PUBLIC "-//W3C//DTD SVG 1.1//EN" "http://www.w3.org/Graphics/SVG/1.1/DTD/svg11.dtd">
<svg width="100%" height="100%" viewBox="0 0 17 72" version="1.1" xmlns="http://www.w3.org/2000/svg" xmlns:xlink="http://www.w3.org/1999/xlink" xml:space="preserve" xmlns:serif="http://www.serif.com/" style="fill-rule:evenodd;clip-rule:evenodd;stroke-linejoin:round;stroke-miterlimit:2;">
    <g transform="matrix(1,0,0,1,-4042.55,-1122.97)">
        <g transform="matrix(1.41414,0,0,1.41429,-1534.59,-78.5653)">
            <path d="M3951.4,892.206C3951.4,893.69 3951.26,897.297 3951.26,898.428C3951.26,899.63 3953.03,900.408 3954.23,900.408C3954.8,900.408 3955.29,900.196 3955.29,899.701C3955.22,897.791 3955.15,893.69 3955.15,891.781L3955.15,857.206C3955.15,855.155 3955.5,853.105 3955.5,851.973C3955.5,850.63 3953.66,849.569 3952.89,849.569C3952.11,849.569 3951.05,851.549 3950.55,852.044C3948.93,853.67 3946.81,855.579 3944.4,856.852C3944.05,857.064 3943.84,857.347 3943.84,857.559C3943.84,858.337 3945.04,859.115 3946.03,859.115C3946.17,859.115 3946.31,859.115 3946.45,859.044C3948.01,858.549 3949.99,857.276 3951.4,856.074L3951.4,892.206Z" style="fill-rule:nonzero;"/>
        </g>
    </g>
</svg>
