<?xml version="1.0" encoding="UTF-8" standalone="no"?>
<!DOCTYPE svg PUBLIC "-//W3C//DTD SVG 1.1//EN" "http://www.w3.org/Graphics/SVG/1.1/DTD/svg11.dtd">
<svg width="100%" height="100%" viewBox="0 0 25 72" version="1.1" xmlns="http://www.w3.org/2000/svg" xmlns:xlink="http://www.w3.org/1999/xlink" xml:space="preserve" xmlns:serif="http://www.serif.com/" style="fill-rule:evenodd;clip-rule:evenodd;stroke-linejoin:round;stroke-miterlimit:2;">
    <g transform="matrix(1,0,0,1,-4066.55,-1122.67)">
        <g transform="matrix(1.41414,0,0,1.41429,-1534.59,-78.5653)">
            <path d="M3962.71,899.771C3963.35,899.701 3964.06,899.347 3964.62,899.276C3966.11,898.993 3967.1,898.993 3969.15,898.993C3971.13,898.993 3973.11,898.993 3974.59,899.135C3975.94,899.276 3977.14,899.559 3977.63,899.559C3978.13,899.559 3978.34,899.135 3978.34,898.569C3978.34,897.297 3977.35,895.317 3975.94,895.317C3975.51,895.317 3974.59,895.387 3974.1,895.387C3973.46,895.317 3972.68,895.317 3971.91,895.317C3969.64,895.317 3966.96,895.458 3965.05,895.67C3966.74,889.236 3970.78,881.387 3973.74,876.438C3976.5,871.913 3977.92,866.539 3977.92,860.953C3977.92,853.175 3974.88,849.357 3970.56,849.357C3963.78,849.357 3961.72,857.206 3961.72,858.337C3961.72,859.044 3962.08,859.822 3963.21,860.882C3963.49,861.165 3963.78,861.307 3964.06,861.307C3964.69,861.307 3965.19,860.67 3965.4,859.539C3966.04,855.438 3968.02,853.175 3970.35,853.175C3972.83,853.175 3974.24,855.933 3974.24,860.953C3974.24,864.559 3973.82,869.438 3970.63,874.741C3966.74,881.317 3963.42,888.105 3961.87,893.478C3961.65,894.185 3961.23,894.751 3960.95,895.6C3960.81,895.882 3960.81,896.236 3960.81,896.589C3960.81,898.074 3961.65,899.771 3962.64,899.771L3962.71,899.771Z" style="fill-rule:nonzero;"/>
        </g>
    </g>
</svg>
