<?xml version="1.0" encoding="UTF-8" standalone="no"?>
<!DOCTYPE svg PUBLIC "-//W3C//DTD SVG 1.1//EN" "http://www.w3.org/Graphics/SVG/1.1/DTD/svg11.dtd">
<svg width="100%" height="100%" viewBox="0 0 25 73" version="1.1" xmlns="http://www.w3.org/2000/svg" xmlns:xlink="http://www.w3.org/1999/xlink" xml:space="preserve" xmlns:serif="http://www.serif.com/" style="fill-rule:evenodd;clip-rule:evenodd;stroke-linejoin:round;stroke-miterlimit:2;">
    <g transform="matrix(1,0,0,1,-4091.75,-1122.67)">
        <g transform="matrix(1.41414,0,0,1.41429,-1534.59,-78.5653)">
            <path d="M3987.39,874.6C3990.64,874.6 3991.92,878.276 3991.92,884.286C3991.92,890.791 3990.01,897.014 3986.26,897.014C3984.28,897.014 3982.8,895.6 3981.52,891.711C3981.31,891.145 3981.03,890.862 3980.67,890.862C3979.75,890.862 3978.62,892.63 3978.62,894.115C3978.62,894.892 3980.96,900.761 3986.19,900.761C3993.05,900.761 3995.66,892.63 3995.66,884.216C3995.66,876.791 3993.26,872.054 3989.58,872.054L3989.37,872.054C3992.34,870.711 3994.67,866.822 3994.67,860.175C3994.67,853.387 3992.41,849.357 3987.82,849.357C3984,849.357 3981.73,852.539 3980.04,856.357C3979.97,856.569 3979.83,856.852 3979.83,857.135C3979.83,858.62 3981.52,860.246 3982.09,860.246C3982.58,860.246 3983.01,859.751 3983.22,858.903C3984.28,854.872 3986.05,853.034 3987.67,853.034C3989.87,853.034 3991,855.933 3991,860.67C3991,869.509 3986.75,870.781 3983.71,871.418C3983.15,871.559 3982.94,871.913 3982.94,872.478C3982.94,873.61 3984,875.236 3984.92,875.236C3985.06,875.236 3985.13,875.236 3985.27,875.165C3985.62,874.953 3986.19,874.67 3986.9,874.6L3987.39,874.6Z" style="fill-rule:nonzero;"/>
        </g>
    </g>
</svg>
