<?xml version="1.0" encoding="UTF-8" standalone="no"?>
<!DOCTYPE svg PUBLIC "-//W3C//DTD SVG 1.1//EN" "http://www.w3.org/Graphics/SVG/1.1/DTD/svg11.dtd">
<svg width="100%" height="100%" viewBox="0 0 25 73" version="1.1" xmlns="http://www.w3.org/2000/svg" xmlns:xlink="http://www.w3.org/1999/xlink" xml:space="preserve" xmlns:serif="http://www.serif.com/" style="fill-rule:evenodd;clip-rule:evenodd;stroke-linejoin:round;stroke-miterlimit:2;">
    <g transform="matrix(1,0,0,1,-4116.84,-1122.67)">
        <g transform="matrix(1.41414,0,0,1.41429,-1534.59,-78.5653)">
            <path d="M4007.33,892.206C4007.33,893.196 4007.26,897.297 4007.26,898.428C4007.26,899.63 4008.96,900.408 4010.09,900.408C4010.65,900.408 4011.08,900.196 4011.08,899.701C4011.08,898.074 4010.87,895.246 4010.87,892.347L4010.87,888.6C4011.79,888.67 4012.63,888.67 4013.06,888.67C4013.55,888.67 4013.69,888.246 4013.69,887.68C4013.69,886.478 4012.92,884.781 4012,884.781L4011.93,884.781C4011.64,884.781 4011.29,884.852 4010.87,884.923L4010.87,870.074C4010.87,868.377 4011.01,864.913 4011.01,863.781C4011.01,862.579 4009.31,861.802 4008.18,861.802C4007.61,861.802 4007.19,862.014 4007.19,862.509C4007.19,864.135 4007.33,868.731 4007.33,870.074L4007.33,885.206L4000.47,885.63C4003.02,876.791 4006.06,864.842 4008.11,856.993C4008.39,855.862 4009.1,853.458 4009.31,852.822C4009.38,852.539 4009.45,852.256 4009.45,852.044C4009.45,850.771 4007.75,849.357 4006.69,849.357C4006.27,849.357 4005.99,849.499 4005.92,849.993C4005,855.084 4000.9,871.771 3997.93,881.882C3997.5,883.297 3996.58,884.004 3996.44,885.135C3996.37,885.488 3996.37,885.913 3996.37,886.266C3996.37,888.105 3997.08,889.66 3998,889.66L3998.07,889.66C3998.7,889.589 3999.48,889.307 3999.84,889.307L4007.33,888.741L4007.33,892.206Z" style="fill-rule:nonzero;"/>
        </g>
    </g>
</svg>
