<?xml version="1.0" encoding="UTF-8" standalone="no"?>
<!DOCTYPE svg PUBLIC "-//W3C//DTD SVG 1.1//EN" "http://www.w3.org/Graphics/SVG/1.1/DTD/svg11.dtd">
<svg width="100%" height="100%" viewBox="0 0 25 73" version="1.1" xmlns="http://www.w3.org/2000/svg" xmlns:xlink="http://www.w3.org/1999/xlink" xml:space="preserve" xmlns:serif="http://www.serif.com/" style="fill-rule:evenodd;clip-rule:evenodd;stroke-linejoin:round;stroke-miterlimit:2;">
    <g transform="matrix(1,0,0,1,-4216.73,-1122.67)">
        <g transform="matrix(1.41414,0,0,1.41429,-1534.59,-78.5653)">
            <path d="M4072.73,871.771C4068.78,877.216 4067.01,881.458 4067.01,887.398C4067.01,894.892 4070.12,900.761 4075.49,900.761C4081.79,900.761 4084.26,894.892 4084.26,886.478C4084.26,879.337 4081.43,874.458 4077.12,870.993C4079.45,867.812 4084.26,861.165 4084.26,858.125C4084.26,857.276 4083.98,856.781 4083.48,856.781C4083.27,856.781 4082.92,856.923 4082.63,857.347C4082.63,856.216 4081.15,849.357 4075.7,849.357C4070.68,849.357 4067.93,854.943 4067.93,861.095C4067.93,864.771 4068.78,868.307 4072.73,871.771ZM4081.5,859.468C4079.81,862.579 4077.4,865.549 4074.71,869.084C4072.73,867.175 4071.46,864.701 4071.46,861.165C4071.46,856.993 4072.88,852.892 4075.7,852.892C4077.54,852.892 4078.74,854.802 4079.52,858.408C4079.73,859.327 4080.16,859.68 4080.72,859.68C4081.01,859.68 4081.22,859.61 4081.5,859.468ZM4075.14,873.751C4080.02,878.206 4080.72,882.448 4080.72,886.761C4080.72,892.842 4079.17,897.155 4075.63,897.155C4071.96,897.155 4070.54,891.993 4070.54,887.185C4070.54,882.66 4072.31,877.993 4075.14,873.751Z" style="fill-rule:nonzero;"/>
        </g>
    </g>
</svg>
