<?xml version="1.0" encoding="UTF-8" standalone="no"?>
<!DOCTYPE svg PUBLIC "-//W3C//DTD SVG 1.1//EN" "http://www.w3.org/Graphics/SVG/1.1/DTD/svg11.dtd">
<svg width="100%" height="100%" viewBox="0 0 25 71" version="1.1" xmlns="http://www.w3.org/2000/svg" xmlns:xlink="http://www.w3.org/1999/xlink" xml:space="preserve" xmlns:serif="http://www.serif.com/" style="fill-rule:evenodd;clip-rule:evenodd;stroke-linejoin:round;stroke-miterlimit:2;">
    <g transform="matrix(1,0,0,1,-4191.44,-1123.77)">
        <g transform="matrix(1.41414,0,0,1.41429,-1534.59,-78.5653)">
            <path d="M4054.42,900.266C4055.41,900.266 4056.05,899.913 4056.12,899.135C4056.61,893.62 4061.7,869.721 4065.45,856.64C4065.73,855.579 4066.65,854.448 4066.72,853.387L4066.72,853.246C4066.72,851.69 4065.45,850.206 4064.46,850.135L4064.25,850.135C4063.47,850.135 4062.69,850.488 4062.06,850.63L4052.51,852.115C4051.81,852.256 4051.17,852.256 4050.67,852.256L4049.61,852.256C4049.33,852.256 4049.12,852.468 4049.12,852.892C4049.12,853.812 4050.32,855.862 4051.59,855.862C4052.23,855.862 4052.87,855.65 4053.5,855.509L4062.55,853.953C4059.37,865.266 4056.12,879.196 4053.64,892.064C4053.36,893.478 4052.87,895.741 4052.44,897.297C4052.3,897.791 4052.16,898.357 4052.16,898.852C4052.16,899.559 4052.51,900.125 4053.86,900.266L4054.42,900.266Z" style="fill-rule:nonzero;"/>
        </g>
    </g>
</svg>
