<?xml version="1.0" encoding="UTF-8" standalone="no"?>
<!DOCTYPE svg PUBLIC "-//W3C//DTD SVG 1.1//EN" "http://www.w3.org/Graphics/SVG/1.1/DTD/svg11.dtd">
<svg width="100%" height="100%" viewBox="0 0 25 73" version="1.1" xmlns="http://www.w3.org/2000/svg" xmlns:xlink="http://www.w3.org/1999/xlink" xml:space="preserve" xmlns:serif="http://www.serif.com/" style="fill-rule:evenodd;clip-rule:evenodd;stroke-linejoin:round;stroke-miterlimit:2;">
    <g transform="matrix(1,0,0,1,-4166.84,-1122.67)">
        <g transform="matrix(1.41414,0,0,1.41429,-1534.59,-78.5653)">
            <path d="M4037.38,870.711C4038.44,866.539 4041.76,856.64 4043.96,852.185C4044.17,851.832 4044.45,851.408 4044.45,850.983C4044.45,850.064 4042.9,849.357 4041.84,849.357C4041.2,849.357 4040.7,849.569 4040.49,850.135C4040.28,850.842 4040,851.903 4039.86,852.185C4038.44,855.791 4036.39,862.155 4034.76,867.387C4032.71,873.892 4031.72,879.832 4031.72,885.842C4031.72,894.044 4034.91,900.761 4040.35,900.761C4046.08,900.761 4048.91,893.408 4048.91,883.862C4048.91,875.307 4046.01,869.084 4040.99,869.084C4038.87,869.084 4037.88,870.145 4037.38,870.711ZM4040.35,897.155C4037.17,897.155 4035.33,892.135 4035.33,885.701C4035.33,878.701 4037.38,872.62 4040.78,872.62C4043.74,872.62 4045.3,877.993 4045.3,884.074C4045.3,891.711 4043.6,897.155 4040.35,897.155Z" style="fill-rule:nonzero;"/>
        </g>
    </g>
</svg>
