<?xml version="1.0" encoding="UTF-8" standalone="no"?>
<!DOCTYPE svg PUBLIC "-//W3C//DTD SVG 1.1//EN" "http://www.w3.org/Graphics/SVG/1.1/DTD/svg11.dtd">
<svg width="100%" height="100%" viewBox="0 0 25 72" version="1.1" xmlns="http://www.w3.org/2000/svg" xmlns:xlink="http://www.w3.org/1999/xlink" xml:space="preserve" xmlns:serif="http://www.serif.com/" style="fill-rule:evenodd;clip-rule:evenodd;stroke-linejoin:round;stroke-miterlimit:2;">
    <g transform="matrix(1,0,0,1,-4141.84,-1123.57)">
        <g transform="matrix(1.41414,0,0,1.41429,-1534.59,-78.5653)">
            <path d="M4015.32,871.842C4015.25,872.478 4015.11,873.256 4014.83,874.246C4014.75,874.529 4014.68,874.882 4014.68,875.165C4014.68,876.579 4016.24,878.135 4016.95,878.135C4017.94,878.135 4018.22,876.367 4018.57,875.66C4019.56,873.751 4021.12,872.266 4022.67,872.266C4025.86,872.266 4027.62,876.65 4027.62,883.862C4027.62,890.721 4025.86,897.014 4021.68,897.014C4019.21,897.014 4017.87,894.751 4016.81,890.791C4016.66,890.297 4016.45,890.084 4016.1,890.084C4015.25,890.084 4014.05,891.711 4014.05,893.337C4014.05,894.185 4015.74,900.761 4021.9,900.761C4028.19,900.761 4031.3,893.408 4031.3,883.791C4031.3,874.175 4028.12,868.589 4023.31,868.589C4020.91,868.589 4019.63,869.791 4019,870.499L4020.48,854.731L4026.35,854.095C4027.41,853.953 4029.04,853.882 4030.03,853.812C4030.52,853.741 4030.73,853.317 4030.73,852.822C4030.73,851.69 4029.82,849.993 4028.83,849.993L4028.61,849.993C4027.76,850.206 4026.63,850.488 4026,850.559L4020.41,851.196C4019.35,850.771 4018.36,850.418 4017.72,850.418C4017.09,850.418 4016.81,850.701 4016.81,851.478L4016.81,854.377L4015.32,871.842Z" style="fill-rule:nonzero;"/>
        </g>
    </g>
</svg>
