<?xml version="1.0" encoding="UTF-8" standalone="no"?>
<!DOCTYPE svg PUBLIC "-//W3C//DTD SVG 1.1//EN" "http://www.w3.org/Graphics/SVG/1.1/DTD/svg11.dtd">
<svg width="100%" height="100%" viewBox="0 0 25 73" version="1.1" xmlns="http://www.w3.org/2000/svg" xmlns:xlink="http://www.w3.org/1999/xlink" xml:space="preserve" xmlns:serif="http://www.serif.com/" style="fill-rule:evenodd;clip-rule:evenodd;stroke-linejoin:round;stroke-miterlimit:2;">
    <g transform="matrix(1,0,0,1,-4241.73,-1122.67)">
        <g transform="matrix(1.41414,0,0,1.41429,-1534.59,-78.5653)">
            <path d="M4095.08,900.761C4096.77,900.549 4097.34,900.054 4097.41,899.135C4097.62,896.943 4097.69,894.256 4097.84,892.701C4098.9,880.822 4100.03,868.448 4101.65,856.499C4101.8,855.65 4102.08,854.731 4102.22,853.812L4102.22,853.67C4102.22,852.468 4100.31,851.408 4099.32,851.408C4098.75,851.408 4098.47,851.761 4098.33,852.256C4097.48,850.63 4096,849.357 4093.59,849.357C4088.36,849.357 4084.68,858.903 4084.68,868.377C4084.68,876.438 4087.23,881.105 4090.76,881.105C4092.89,881.105 4094.65,879.761 4095.79,877.074C4095.22,882.165 4094.72,887.61 4094.16,892.488C4094.02,893.761 4093.81,895.882 4093.52,898.004C4093.45,898.499 4093.31,898.993 4093.31,899.488C4093.31,900.196 4093.59,900.761 4094.58,900.761L4095.08,900.761ZM4097.98,856.711C4097.69,859.751 4097.27,862.791 4096.92,866.61C4096.49,871.135 4093.88,877.216 4091.4,877.216C4089.35,877.216 4088.22,874.175 4088.22,868.165C4088.22,861.66 4090.41,852.822 4094.02,852.822C4095.29,852.822 4096.35,855.014 4096.63,856.357C4096.7,856.852 4096.92,856.993 4097.2,856.993C4097.48,856.993 4097.69,856.923 4097.98,856.711Z" style="fill-rule:nonzero;"/>
        </g>
    </g>
</svg>
