<?xml version="1.0" encoding="UTF-8" standalone="no"?>
<!DOCTYPE svg PUBLIC "-//W3C//DTD SVG 1.1//EN" "http://www.w3.org/Graphics/SVG/1.1/DTD/svg11.dtd">
<svg width="100%" height="100%" viewBox="0 0 24 73" version="1.1" xmlns="http://www.w3.org/2000/svg" xmlns:xlink="http://www.w3.org/1999/xlink" xml:space="preserve" xmlns:serif="http://www.serif.com/" style="fill-rule:evenodd;clip-rule:evenodd;stroke-linejoin:round;stroke-miterlimit:2;">
    <g transform="matrix(1,0,0,1,-4017.05,-1122.67)">
        <g transform="matrix(1.41414,0,0,1.41429,-1534.59,-78.5653)">
            <path d="M3930.19,853.387C3929.98,853.246 3929.76,853.175 3929.55,853.175C3927.71,853.175 3925.81,864.559 3925.81,875.802C3925.81,890.155 3927.36,900.761 3934.15,900.761C3941.01,900.761 3942.63,888.458 3942.63,873.963C3942.63,859.68 3941.15,849.357 3935,849.357C3932.88,849.357 3931.18,850.983 3930.19,853.387ZM3934.01,896.943C3930.4,896.943 3929.48,887.185 3929.48,875.66C3929.48,860.67 3932.17,852.892 3934.86,852.892C3938.04,852.892 3938.96,863.64 3938.96,873.398C3938.96,885.418 3937.97,896.943 3934.01,896.943Z" style="fill-rule:nonzero;"/>
        </g>
    </g>
</svg>
