<?xml version="1.0" encoding="UTF-8" standalone="no"?>
<!DOCTYPE svg PUBLIC "-//W3C//DTD SVG 1.1//EN" "http://www.w3.org/Graphics/SVG/1.1/DTD/svg11.dtd">
<svg width="100%" height="100%" viewBox="0 0 70 85" version="1.1" xmlns="http://www.w3.org/2000/svg" xmlns:xlink="http://www.w3.org/1999/xlink" xml:space="preserve" xmlns:serif="http://www.serif.com/" style="fill-rule:evenodd;clip-rule:evenodd;stroke-linejoin:round;stroke-miterlimit:2;">
    <g transform="matrix(1,0,0,1,-1377.48,-5573.37)">
        <g transform="matrix(1,0,0,1,-504.034,-1124.47)">
            <path d="M1946.81,6751.64L1946.31,6751.64C1937.31,6751.64 1928.61,6756.54 1928.61,6763.74C1928.61,6767.64 1932.01,6770.54 1936.41,6770.54C1938.41,6770.54 1951.01,6768.74 1951.01,6753.24L1951.01,6697.84L1899.71,6708.44L1899.71,6763.64L1899.21,6763.64C1890.21,6763.64 1881.51,6768.54 1881.51,6775.74C1881.51,6779.64 1884.91,6782.54 1889.31,6782.54C1891.31,6782.54 1903.91,6780.74 1903.91,6765.24L1903.91,6736.04L1946.81,6727.14L1946.81,6751.64ZM1946.81,6716.54L1903.91,6725.44L1903.91,6718.24L1946.81,6709.34L1946.81,6716.54Z" style="fill-rule:nonzero;"/>
        </g>
    </g>
</svg>
