<?xml version="1.0" encoding="UTF-8" standalone="no"?>
<!DOCTYPE svg PUBLIC "-//W3C//DTD SVG 1.1//EN" "http://www.w3.org/Graphics/SVG/1.1/DTD/svg11.dtd">
<svg width="100%" height="100%" viewBox="0 0 54 72" version="1.1" xmlns="http://www.w3.org/2000/svg" xmlns:xlink="http://www.w3.org/1999/xlink" xml:space="preserve" xmlns:serif="http://www.serif.com/" style="fill-rule:evenodd;clip-rule:evenodd;stroke-linejoin:round;stroke-miterlimit:2;">
    <g transform="matrix(1,0,0,1,-4439.71,-2623.17)">
        <g transform="matrix(1.41414,0,0,1.41429,-1534.59,-78.5653)">
            <path d="M4258.27,1954.79C4250.14,1943.76 4239.25,1927.07 4230.48,1912.08C4229.42,1910.32 4229.28,1910.32 4228.08,1910.32C4226.73,1910.32 4225.11,1910.74 4224.75,1911.66C4224.68,1911.8 4224.68,1911.94 4224.68,1912.08C4224.68,1912.72 4225.11,1913.78 4225.11,1914.56L4225.11,1952.74C4225.11,1955.22 4224.97,1957.9 4224.97,1959.03C4224.97,1960.24 4226.88,1961.01 4228.15,1961.01C4228.78,1961.01 4229.28,1960.8 4229.28,1960.31C4229.28,1958.68 4229.07,1955.71 4229.07,1952.81L4229.07,1917.11C4236.14,1929.34 4247.59,1946.8 4255.94,1958.33C4256.64,1959.32 4257.42,1961.01 4258.84,1961.01C4260.46,1961.01 4262.51,1959.67 4262.51,1958.33C4262.51,1957.48 4262.23,1955.5 4262.23,1954.65L4262.23,1918.66C4262.23,1916.18 4262.37,1913.5 4262.37,1912.37C4262.37,1911.16 4260.46,1910.39 4259.19,1910.39C4258.55,1910.39 4258.06,1910.6 4258.06,1911.1C4258.06,1912.72 4258.27,1915.69 4258.27,1918.59L4258.27,1954.79Z" style="fill-rule:nonzero;"/>
        </g>
    </g>
</svg>
