<?xml version="1.0" encoding="UTF-8" standalone="no"?>
<!DOCTYPE svg PUBLIC "-//W3C//DTD SVG 1.1//EN" "http://www.w3.org/Graphics/SVG/1.1/DTD/svg11.dtd">
<svg width="100%" height="100%" viewBox="0 0 96 96" version="1.1" xmlns="http://www.w3.org/2000/svg" xmlns:xlink="http://www.w3.org/1999/xlink" xml:space="preserve" xmlns:serif="http://www.serif.com/" style="fill-rule:evenodd;clip-rule:evenodd;stroke-linejoin:round;stroke-miterlimit:2;">
    <g transform="matrix(1,0,0,1,-1509.63,-2723.28)">
        <g transform="matrix(1,0,0,1,-110.019,-3591.86)">
            <path d="M1715.25,6362.94C1715.25,6336.55 1693.85,6315.15 1667.45,6315.15C1641.05,6315.15 1619.65,6336.55 1619.65,6362.94C1619.65,6389.35 1641.05,6410.65 1667.45,6410.65C1693.85,6410.65 1715.25,6389.35 1715.25,6362.94ZM1711.15,6362.94C1711.15,6387.05 1691.55,6406.55 1667.45,6406.55C1643.35,6406.55 1623.75,6387.05 1623.75,6362.94C1623.75,6338.85 1643.35,6319.24 1667.45,6319.24C1691.55,6319.24 1711.15,6338.85 1711.15,6362.94ZM1654.95,6339.05C1654.45,6338.55 1653.75,6338.05 1652.75,6338.05C1649.75,6338.05 1641.35,6349.35 1641.35,6363.85C1641.35,6380.35 1649.25,6392.44 1666.55,6392.44C1684.75,6392.44 1693.05,6378.35 1693.05,6361.74C1693.05,6345.44 1684.25,6333.55 1669.75,6333.55C1663.45,6333.55 1658.85,6335.65 1654.95,6339.05ZM1665.95,6388.15C1651.45,6388.15 1646.05,6376.74 1646.05,6363.74C1646.05,6346.35 1659.75,6337.65 1669.25,6337.65C1682.75,6337.65 1688.35,6349.94 1688.35,6361.15C1688.35,6374.85 1682.65,6388.15 1665.95,6388.15Z" style="fill-rule:nonzero;"/>
        </g>
    </g>
</svg>
