<?xml version="1.0" encoding="UTF-8" standalone="no"?>
<!DOCTYPE svg PUBLIC "-//W3C//DTD SVG 1.1//EN" "http://www.w3.org/Graphics/SVG/1.1/DTD/svg11.dtd">
<svg width="100%" height="100%" viewBox="0 0 89 89" version="1.1" xmlns="http://www.w3.org/2000/svg" xmlns:xlink="http://www.w3.org/1999/xlink" xml:space="preserve" xmlns:serif="http://www.serif.com/" style="fill-rule:evenodd;clip-rule:evenodd;stroke-linejoin:round;stroke-miterlimit:2;">
    <g transform="matrix(1,0,0,1,-458.749,-2521.63)">
        <g transform="matrix(1.41414,0,0,1.41429,-177.055,-770.755)">
            <path d="M511.968,2390.31L511.968,2327.95L449.604,2327.95L449.604,2390.31L511.968,2390.31ZM471.948,2340.96C474.705,2338.7 478.029,2337.35 482.413,2337.35C493.443,2337.35 499.948,2346.48 499.948,2358.35C499.948,2370.45 493.867,2381.12 480.15,2381.12C467.14,2381.12 461.271,2371.86 461.271,2359.84C461.271,2349.38 467.069,2340.54 470.392,2340.54C471.029,2340.54 471.524,2340.68 471.948,2340.96ZM479.726,2375.96C490.615,2375.96 494.503,2367.41 494.503,2357.93C494.503,2350.22 490.685,2342.38 482.059,2342.38C475.837,2342.38 466.716,2348.1 466.716,2359.77C466.716,2368.75 470.392,2375.96 479.726,2375.96Z" style="fill-rule:nonzero;"/>
        </g>
    </g>
</svg>
