<?xml version="1.0" encoding="UTF-8" standalone="no"?>
<!DOCTYPE svg PUBLIC "-//W3C//DTD SVG 1.1//EN" "http://www.w3.org/Graphics/SVG/1.1/DTD/svg11.dtd">
<svg width="100%" height="100%" viewBox="0 0 96 96" version="1.1" xmlns="http://www.w3.org/2000/svg" xmlns:xlink="http://www.w3.org/1999/xlink" xml:space="preserve" xmlns:serif="http://www.serif.com/" style="fill-rule:evenodd;clip-rule:evenodd;stroke-linejoin:round;stroke-miterlimit:2;">
    <g transform="matrix(1,0,0,1,-1909.63,-3923.28)">
        <g transform="matrix(1,0,0,1,-110.019,-3591.86)">
            <path d="M2115.25,7562.94C2115.25,7536.55 2093.85,7515.15 2067.45,7515.15C2041.05,7515.15 2019.65,7536.55 2019.65,7562.94C2019.65,7589.35 2041.05,7610.65 2067.45,7610.65C2093.85,7610.65 2115.25,7589.35 2115.25,7562.94ZM2054.95,7537.15C2058.85,7533.94 2063.55,7532.05 2069.75,7532.05C2085.35,7532.05 2094.55,7544.94 2094.55,7561.74C2094.55,7578.85 2085.95,7593.94 2066.55,7593.94C2048.15,7593.94 2039.85,7580.85 2039.85,7563.85C2039.85,7549.05 2048.05,7536.55 2052.75,7536.55C2053.65,7536.55 2054.35,7536.74 2054.95,7537.15ZM2065.95,7586.65C2081.35,7586.65 2086.85,7574.55 2086.85,7561.15C2086.85,7550.24 2081.45,7539.15 2069.25,7539.15C2060.45,7539.15 2047.55,7547.24 2047.55,7563.74C2047.55,7576.44 2052.75,7586.65 2065.95,7586.65Z" style="fill-rule:nonzero;"/>
        </g>
    </g>
</svg>
