<?xml version="1.0" encoding="UTF-8" standalone="no"?>
<!DOCTYPE svg PUBLIC "-//W3C//DTD SVG 1.1//EN" "http://www.w3.org/Graphics/SVG/1.1/DTD/svg11.dtd">
<svg width="100%" height="100%" viewBox="0 0 89 89" version="1.1" xmlns="http://www.w3.org/2000/svg" xmlns:xlink="http://www.w3.org/1999/xlink" xml:space="preserve" xmlns:serif="http://www.serif.com/" style="fill-rule:evenodd;clip-rule:evenodd;stroke-linejoin:round;stroke-miterlimit:2;">
    <g transform="matrix(1,0,0,1,-1802.48,-2492.27)">
        <g transform="matrix(1.41414,0,0,1.41429,-1052.39,-837.704)">
            <path d="M2075.65,2416.89C2079.04,2416.89 2081.17,2414.35 2081.17,2411.38L2081.17,2360.05C2081.17,2356.58 2078.69,2354.53 2075.65,2354.53L2024.32,2354.53C2020.85,2354.53 2018.8,2356.86 2018.8,2360.05L2018.8,2411.38C2018.8,2414.56 2021.28,2416.89 2024.32,2416.89L2075.65,2416.89ZM2041.14,2367.54C2043.9,2365.28 2047.23,2363.93 2051.61,2363.93C2062.64,2363.93 2069.14,2373.05 2069.14,2384.93C2069.14,2397.03 2063.07,2407.7 2049.35,2407.7C2036.34,2407.7 2030.47,2398.44 2030.47,2386.42C2030.47,2375.95 2036.27,2367.12 2039.59,2367.12C2040.23,2367.12 2040.72,2367.26 2041.14,2367.54ZM2048.92,2402.54C2059.81,2402.54 2063.7,2393.98 2063.7,2384.51C2063.7,2376.8 2059.88,2368.95 2051.26,2368.95C2045.03,2368.95 2035.91,2374.68 2035.91,2386.35C2035.91,2395.33 2039.59,2402.54 2048.92,2402.54Z" style="fill-rule:nonzero;"/>
        </g>
    </g>
</svg>
