<?xml version="1.0" encoding="UTF-8" standalone="no"?>
<!DOCTYPE svg PUBLIC "-//W3C//DTD SVG 1.1//EN" "http://www.w3.org/Graphics/SVG/1.1/DTD/svg11.dtd">
<svg width="100%" height="100%" viewBox="0 0 98 90" version="1.1" xmlns="http://www.w3.org/2000/svg" xmlns:xlink="http://www.w3.org/1999/xlink" xml:space="preserve" xmlns:serif="http://www.serif.com/" style="fill-rule:evenodd;clip-rule:evenodd;stroke-linejoin:round;stroke-miterlimit:2;">
    <g transform="matrix(1,0,0,1,-5537.41,-2435.56)">
        <g transform="matrix(1,0,0,1,1,0)">
            <path d="M5615.1,2524.76C5617.4,2524.76 5634.1,2507.26 5634.1,2480.16C5634.1,2452.96 5617.4,2435.56 5615.1,2435.56C5614.4,2435.56 5613.9,2436.06 5613.9,2436.76C5613.9,2437.16 5614,2437.66 5614.4,2438.06C5624.2,2449.76 5628.8,2465.96 5628.8,2480.16C5628.8,2494.36 5624.2,2510.56 5614.4,2522.26C5614,2522.66 5613.9,2523.16 5613.9,2523.56C5613.9,2524.26 5614.4,2524.76 5615.1,2524.76ZM5556.61,2523.56C5556.61,2523.16 5556.51,2522.66 5556.11,2522.26C5546.31,2510.56 5541.71,2494.36 5541.71,2480.16C5541.71,2465.96 5546.31,2449.76 5556.11,2438.06C5556.51,2437.66 5556.61,2437.16 5556.61,2436.76C5556.61,2436.06 5556.11,2435.56 5555.4,2435.56C5553.11,2435.56 5536.41,2452.96 5536.41,2480.16C5536.41,2507.26 5553.11,2524.76 5555.4,2524.76C5556.11,2524.76 5556.61,2524.26 5556.61,2523.56ZM5572.8,2456.26C5572.3,2455.76 5571.6,2455.26 5570.6,2455.26C5567.6,2455.26 5559.2,2466.56 5559.2,2481.06C5559.2,2497.56 5567.1,2509.66 5584.4,2509.66C5602.6,2509.66 5610.9,2495.56 5610.9,2478.96C5610.9,2462.66 5602.1,2450.76 5587.6,2450.76C5581.3,2450.76 5576.7,2452.86 5572.8,2456.26ZM5583.8,2505.36C5569.3,2505.36 5563.9,2493.96 5563.9,2480.96C5563.9,2463.56 5577.6,2454.86 5587.1,2454.86C5600.6,2454.86 5606.2,2467.16 5606.2,2478.36C5606.2,2492.06 5600.5,2505.36 5583.8,2505.36Z" style="fill-rule:nonzero;"/>
        </g>
    </g>
</svg>
