<?xml version="1.0" encoding="UTF-8" standalone="no"?>
<!DOCTYPE svg PUBLIC "-//W3C//DTD SVG 1.1//EN" "http://www.w3.org/Graphics/SVG/1.1/DTD/svg11.dtd">
<svg width="100%" height="100%" viewBox="0 0 89 89" version="1.1" xmlns="http://www.w3.org/2000/svg" xmlns:xlink="http://www.w3.org/1999/xlink" xml:space="preserve" xmlns:serif="http://www.serif.com/" style="fill-rule:evenodd;clip-rule:evenodd;stroke-linejoin:round;stroke-miterlimit:2;">
    <g transform="matrix(1,0,0,1,-3093.32,-2481.51)">
        <g transform="matrix(1.41414,0,0,1.41429,-1389.33,-1046.26)">
            <path d="M3226.72,2556.75C3230.12,2556.75 3232.24,2554.2 3232.24,2551.23L3232.24,2499.9C3232.24,2496.43 3229.76,2494.39 3226.72,2494.39L3175.39,2494.39C3171.93,2494.39 3169.88,2496.72 3169.88,2499.9L3169.88,2551.23C3169.88,2554.41 3172.35,2556.75 3175.39,2556.75L3226.72,2556.75ZM3229.34,2551.52C3229.34,2553.07 3228.28,2553.85 3227.08,2553.85L3175.04,2553.85C3173.55,2553.85 3172.78,2552.79 3172.78,2551.52L3172.78,2499.55C3172.78,2498.13 3173.69,2497.28 3175.04,2497.28L3227.08,2497.28C3228.49,2497.28 3229.34,2498.34 3229.34,2499.55L3229.34,2551.52ZM3192.22,2508.74C3191.87,2508.39 3191.37,2508.03 3190.66,2508.03C3188.54,2508.03 3182.6,2516.02 3182.6,2526.27C3182.6,2537.94 3188.19,2546.5 3200.42,2546.5C3213.29,2546.5 3219.16,2536.53 3219.16,2524.79C3219.16,2513.26 3212.94,2504.85 3202.68,2504.85C3198.23,2504.85 3194.98,2506.33 3192.22,2508.74ZM3200,2543.45C3189.74,2543.45 3185.93,2535.39 3185.93,2526.2C3185.93,2513.9 3195.61,2507.75 3202.33,2507.75C3211.88,2507.75 3215.84,2516.45 3215.84,2524.36C3215.84,2534.05 3211.81,2543.45 3200,2543.45Z" style="fill-rule:nonzero;"/>
        </g>
    </g>
</svg>
