<?xml version="1.0" encoding="UTF-8" standalone="no"?>
<!DOCTYPE svg PUBLIC "-//W3C//DTD SVG 1.1//EN" "http://www.w3.org/Graphics/SVG/1.1/DTD/svg11.dtd">
<svg width="100%" height="100%" viewBox="0 0 65 73" version="1.1" xmlns="http://www.w3.org/2000/svg" xmlns:xlink="http://www.w3.org/1999/xlink" xml:space="preserve" xmlns:serif="http://www.serif.com/" style="fill-rule:evenodd;clip-rule:evenodd;stroke-linejoin:round;stroke-miterlimit:2;">
    <g transform="matrix(1,0,0,1,-4733.88,-2772.87)">
        <g transform="matrix(1.41414,0,0,1.41429,-1534.59,-78.5653)">
            <path d="M4476.61,2067.22C4477.6,2067.22 4478.66,2065.38 4478.66,2064.25C4478.66,2063.75 4478.45,2063.4 4477.89,2063.4C4476.26,2063.47 4474.63,2063.47 4473.01,2063.47L4466.64,2063.47C4472.86,2060.78 4478.38,2051.87 4478.38,2041.76C4478.38,2026.77 4469.75,2016.16 4455.82,2016.16C4441.97,2016.16 4432.99,2027.55 4432.99,2042.33C4432.99,2051.87 4438.08,2060.36 4445.43,2063.47L4440.41,2063.47C4438.93,2063.47 4435.6,2063.47 4433.48,2063.4C4432.92,2063.4 4432.7,2063.75 4432.7,2064.25C4432.7,2065.38 4433.76,2067.22 4434.75,2067.22L4434.9,2067.22C4436.66,2067 4439.07,2066.65 4441.4,2066.51C4442.04,2066.51 4444.51,2066.3 4446.28,2066.3C4447.2,2066.3 4448.47,2066.65 4449.32,2066.65C4450.17,2066.65 4451.09,2065.02 4451.09,2063.75C4451.09,2063.04 4450.81,2062.41 4450.03,2062.2C4441.9,2060.07 4436.95,2051.94 4436.95,2042.47C4436.95,2030.52 4443.59,2019.98 4455.82,2019.98C4468.41,2019.98 4474.42,2030.24 4474.42,2041.9C4474.42,2051.73 4468.98,2060.22 4461.34,2062.2C4460.56,2062.41 4460.28,2063.04 4460.28,2063.75C4460.28,2065.02 4461.2,2066.65 4462.05,2066.65C4462.9,2066.65 4464.17,2066.3 4465.09,2066.3C4466.86,2066.3 4469.33,2066.51 4469.97,2066.51C4472.3,2066.65 4474.7,2067 4476.47,2067.22L4476.61,2067.22Z" style="fill-rule:nonzero;"/>
        </g>
    </g>
</svg>
