<?xml version="1.0" encoding="UTF-8" standalone="no"?>
<!DOCTYPE svg PUBLIC "-//W3C//DTD SVG 1.1//EN" "http://www.w3.org/Graphics/SVG/1.1/DTD/svg11.dtd">
<svg width="100%" height="100%" viewBox="0 0 64 73" version="1.1" xmlns="http://www.w3.org/2000/svg" xmlns:xlink="http://www.w3.org/1999/xlink" xml:space="preserve" xmlns:serif="http://www.serif.com/" style="fill-rule:evenodd;clip-rule:evenodd;stroke-linejoin:round;stroke-miterlimit:2;">
    <g transform="matrix(1,0,0,1,-4634.09,-2622.67)">
        <g transform="matrix(1.41414,0,0,1.41429,-1534.59,-78.5653)">
            <path d="M4374.02,1914.7C4373.59,1914.28 4372.96,1913.92 4372.18,1913.92C4368.93,1913.92 4362.14,1924.88 4362.14,1936.41C4362.14,1950.76 4369,1961.37 4384.13,1961.37C4400.04,1961.37 4407.25,1949.06 4407.25,1934.57C4407.25,1920.36 4399.4,1909.96 4386.89,1909.96C4381.37,1909.96 4377.41,1911.8 4374.02,1914.7ZM4383.56,1957.55C4370.91,1957.55 4366.1,1947.65 4366.1,1936.27C4366.1,1921.06 4378.19,1913.5 4386.46,1913.5C4398.27,1913.5 4403.15,1924.25 4403.15,1934C4403.15,1946.02 4398.2,1957.55 4383.56,1957.55Z" style="fill-rule:nonzero;"/>
        </g>
    </g>
</svg>
