<?xml version="1.0" encoding="UTF-8" standalone="no"?>
<!DOCTYPE svg PUBLIC "-//W3C//DTD SVG 1.1//EN" "http://www.w3.org/Graphics/SVG/1.1/DTD/svg11.dtd">
<svg width="100%" height="100%" viewBox="0 0 84 89" version="1.1" xmlns="http://www.w3.org/2000/svg" xmlns:xlink="http://www.w3.org/1999/xlink" xml:space="preserve" xmlns:serif="http://www.serif.com/" style="fill-rule:evenodd;clip-rule:evenodd;stroke-linejoin:round;stroke-miterlimit:2;">
    <g transform="matrix(1,0,0,1,-1773.98,-5720.07)">
        <g transform="matrix(1,0,0,1,-504.034,-1124.47)">
            <path d="M2330.11,6932.94C2330.11,6932.94 2327.01,6924.24 2326.41,6914.04L2327.31,6914.04C2330.51,6918.24 2337.01,6920.24 2342.11,6920.24C2353.31,6920.24 2362.01,6911.04 2362.01,6899.74C2362.01,6887.64 2350.11,6866.44 2320.11,6844.54C2299.31,6859.44 2278.01,6881.94 2278.01,6899.74C2278.01,6911.04 2286.71,6920.24 2297.91,6920.24C2303.01,6920.24 2309.51,6918.24 2312.71,6914.04L2313.41,6914.04C2312.81,6924.24 2309.71,6932.94 2309.71,6932.94L2330.11,6932.94ZM2315.71,6928.64C2316.51,6924.74 2317.21,6919.24 2317.81,6909.54L2310.21,6909.54C2307.51,6914.34 2301.61,6915.84 2297.51,6915.84C2289.31,6915.84 2282.51,6908.14 2282.51,6899.44C2282.51,6891.44 2288.71,6874.54 2320.11,6850.04C2353.31,6876.34 2357.51,6892.64 2357.51,6899.44C2357.51,6908.14 2350.71,6915.84 2342.51,6915.84C2338.41,6915.84 2332.51,6914.34 2329.81,6909.54L2322.31,6909.54C2322.71,6918.94 2323.31,6924.64 2324.11,6928.64L2315.71,6928.64Z" style="fill-rule:nonzero;"/>
        </g>
    </g>
</svg>
