<?xml version="1.0" encoding="UTF-8" standalone="no"?>
<!DOCTYPE svg PUBLIC "-//W3C//DTD SVG 1.1//EN" "http://www.w3.org/Graphics/SVG/1.1/DTD/svg11.dtd">
<svg width="100%" height="100%" viewBox="0 0 85 86" version="1.1" xmlns="http://www.w3.org/2000/svg" xmlns:xlink="http://www.w3.org/1999/xlink" xml:space="preserve" xmlns:serif="http://www.serif.com/" style="fill-rule:evenodd;clip-rule:evenodd;stroke-linejoin:round;stroke-miterlimit:2;">
    <g transform="matrix(1,0,0,1,-1573.68,-5723.27)">
        <g transform="matrix(1,0,0,1,-504.034,-1124.47)">
            <path d="M2130.11,6932.94C2130.11,6932.94 2126.41,6923.04 2126.41,6911.64C2129.21,6916.94 2135.71,6920.34 2142.51,6920.34C2153.81,6920.34 2162.11,6913.04 2162.11,6900.74C2162.11,6890.44 2153.81,6882.14 2142.51,6882.14C2139.31,6882.14 2135.51,6883.74 2132.41,6885.54C2138.71,6881.54 2140.11,6874.54 2140.11,6867.84C2140.11,6855.94 2130.71,6847.74 2119.91,6847.74C2109.11,6847.74 2098.71,6855.94 2098.71,6867.84C2098.71,6874.54 2101.01,6881.04 2107.31,6885.54C2104.11,6883.64 2100.51,6882.14 2097.31,6882.14C2086.01,6882.14 2077.71,6890.44 2077.71,6900.74C2077.71,6912.44 2086.01,6920.34 2097.31,6920.34C2104.11,6920.34 2110.01,6917.14 2113.31,6911.74C2112.81,6922.84 2109.71,6932.94 2109.71,6932.94L2130.11,6932.94ZM2115.71,6928.64C2116.51,6925.14 2117.01,6920.04 2117.51,6905.54L2111.71,6905.54C2109.71,6912.54 2102.61,6915.84 2097.31,6915.84C2088.61,6915.84 2082.21,6909.74 2082.21,6900.74C2082.21,6892.94 2088.61,6886.44 2097.31,6886.44C2099.81,6886.44 2104.81,6888.04 2109.31,6890.74L2113.21,6884.94C2105.01,6879.74 2103.21,6873.14 2103.21,6867.84C2103.21,6858.64 2111.51,6852.24 2119.91,6852.24C2128.31,6852.24 2135.61,6858.64 2135.61,6867.84C2135.61,6873.04 2134.71,6879.54 2126.51,6884.54L2130.51,6890.84C2135.01,6888.14 2140.01,6886.64 2142.51,6886.64C2151.21,6886.64 2157.61,6892.94 2157.61,6900.74C2157.61,6910.24 2151.21,6915.84 2142.51,6915.84C2137.21,6915.84 2130.31,6912.74 2128.21,6905.44L2122.41,6905.44C2122.41,6919.44 2123.01,6924.94 2123.91,6928.64L2115.71,6928.64Z" style="fill-rule:nonzero;"/>
        </g>
    </g>
</svg>
