<?xml version="1.0" encoding="UTF-8" standalone="no"?>
<!DOCTYPE svg PUBLIC "-//W3C//DTD SVG 1.1//EN" "http://www.w3.org/Graphics/SVG/1.1/DTD/svg11.dtd">
<svg width="100%" height="100%" viewBox="0 0 80 80" version="1.1" xmlns="http://www.w3.org/2000/svg" xmlns:xlink="http://www.w3.org/1999/xlink" xml:space="preserve" xmlns:serif="http://www.serif.com/" style="fill-rule:evenodd;clip-rule:evenodd;stroke-linejoin:round;stroke-miterlimit:2;">
    <g transform="matrix(1,0,0,1,-575.88,-5424.67)">
        <g transform="matrix(1,0,0,1,-504.034,-1124.47)">
            <path d="M1159.91,6599.14L1159.91,6579.14L1129.91,6579.14L1129.91,6549.14L1109.91,6549.14L1109.91,6579.14L1079.91,6579.14L1079.91,6599.14L1109.91,6599.14L1109.91,6629.14L1129.91,6629.14L1129.91,6599.14L1159.91,6599.14ZM1155.41,6594.64L1125.41,6594.64L1125.41,6624.64L1114.41,6624.64L1114.41,6594.64L1084.41,6594.64L1084.41,6583.64L1114.41,6583.64L1114.41,6553.64L1125.41,6553.64L1125.41,6583.64L1155.41,6583.64L1155.41,6594.64Z" style="fill-rule:nonzero;"/>
        </g>
    </g>
</svg>
