<?xml version="1.0" encoding="UTF-8" standalone="no"?>
<!DOCTYPE svg PUBLIC "-//W3C//DTD SVG 1.1//EN" "http://www.w3.org/Graphics/SVG/1.1/DTD/svg11.dtd">
<svg width="100%" height="100%" viewBox="0 0 85 83" version="1.1" xmlns="http://www.w3.org/2000/svg" xmlns:xlink="http://www.w3.org/1999/xlink" xml:space="preserve" xmlns:serif="http://www.serif.com/" style="fill-rule:evenodd;clip-rule:evenodd;stroke-linejoin:round;stroke-miterlimit:2;">
    <g transform="matrix(1,0,0,1,-1673.88,-5725.87)">
        <g transform="matrix(1,0,0,1,-504.034,-1124.47)">
            <path d="M2219.91,6932.94C2240.01,6921.64 2262.31,6896.54 2262.31,6876.54C2262.31,6861.44 2251.61,6850.34 2238.11,6850.34C2231.31,6850.34 2224.61,6852.64 2219.91,6859.24C2215.21,6852.64 2208.91,6850.34 2202.11,6850.34C2188.61,6850.34 2177.91,6861.44 2177.91,6876.54C2177.91,6896.54 2199.81,6921.64 2219.91,6932.94ZM2220.11,6866.84C2225.21,6858.24 2231.91,6854.94 2238.11,6854.94C2249.41,6854.94 2257.41,6864.54 2257.41,6876.34C2257.41,6894.44 2236.61,6917.44 2219.91,6927.54C2203.21,6917.44 2182.81,6894.44 2182.81,6876.34C2182.81,6864.54 2190.81,6854.94 2202.11,6854.94C2208.31,6854.94 2214.91,6858.04 2220.11,6866.84Z" style="fill-rule:nonzero;"/>
        </g>
    </g>
</svg>
