<?xml version="1.0" encoding="UTF-8" standalone="no"?>
<!DOCTYPE svg PUBLIC "-//W3C//DTD SVG 1.1//EN" "http://www.w3.org/Graphics/SVG/1.1/DTD/svg11.dtd">
<svg width="100%" height="100%" viewBox="0 0 96 96" version="1.1" xmlns="http://www.w3.org/2000/svg" xmlns:xlink="http://www.w3.org/1999/xlink" xml:space="preserve" xmlns:serif="http://www.serif.com/" style="fill-rule:evenodd;clip-rule:evenodd;stroke-linejoin:round;stroke-miterlimit:2;">
    <g transform="matrix(1,0,0,1,-1609.63,-2723.28)">
        <g transform="matrix(1,0,0,1,-110.019,-3591.86)">
            <path d="M1815.25,6362.94C1815.25,6336.55 1793.85,6315.15 1767.45,6315.15C1741.05,6315.15 1719.65,6336.55 1719.65,6362.94C1719.65,6389.35 1741.05,6410.65 1767.45,6410.65C1793.85,6410.65 1815.25,6389.35 1815.25,6362.94ZM1811.15,6362.94C1811.15,6387.05 1791.55,6406.55 1767.45,6406.55C1743.35,6406.55 1723.75,6387.05 1723.75,6362.94C1723.75,6338.85 1743.35,6319.24 1767.45,6319.24C1791.55,6319.24 1811.15,6338.85 1811.15,6362.94ZM1750.95,6381.65C1750.95,6384.74 1750.75,6388.35 1750.75,6389.65C1750.75,6390.94 1753.05,6391.94 1754.55,6391.94C1755.25,6391.94 1755.85,6391.65 1755.85,6391.15C1755.85,6389.24 1755.65,6385.35 1755.65,6381.74L1755.65,6364.35C1755.85,6364.65 1756.25,6364.74 1756.65,6364.85C1757.35,6364.94 1758.15,6364.94 1759.05,6364.94C1784.75,6364.94 1788.65,6354.15 1788.65,6346.74C1788.65,6338.55 1782.15,6333.55 1768.15,6333.55C1762.45,6333.55 1758.55,6334.24 1756.65,6334.55C1748.15,6336.05 1747.75,6336.35 1747.75,6337.35C1747.75,6338.65 1749.25,6340.85 1750.65,6340.85L1750.95,6340.85L1750.95,6381.65ZM1755.65,6339.55C1759.25,6338.55 1764.05,6337.85 1767.95,6337.85C1777.55,6337.85 1783.75,6340.15 1783.75,6347.24C1783.75,6353.94 1778.85,6357.85 1770.35,6359.85C1767.55,6360.44 1760.65,6361.55 1756.85,6361.74C1756.35,6361.74 1755.85,6362.05 1755.65,6362.35L1755.65,6339.55Z" style="fill-rule:nonzero;"/>
        </g>
    </g>
</svg>
