<?xml version="1.0" encoding="UTF-8" standalone="no"?>
<!DOCTYPE svg PUBLIC "-//W3C//DTD SVG 1.1//EN" "http://www.w3.org/Graphics/SVG/1.1/DTD/svg11.dtd">
<svg width="100%" height="100%" viewBox="0 0 96 96" version="1.1" xmlns="http://www.w3.org/2000/svg" xmlns:xlink="http://www.w3.org/1999/xlink" xml:space="preserve" xmlns:serif="http://www.serif.com/" style="fill-rule:evenodd;clip-rule:evenodd;stroke-linejoin:round;stroke-miterlimit:2;">
    <g transform="matrix(1,0,0,1,-2009.63,-3923.28)">
        <g transform="matrix(1,0,0,1,-110.019,-3591.86)">
            <path d="M2215.25,7562.94C2215.25,7536.55 2193.85,7515.15 2167.45,7515.15C2141.05,7515.15 2119.65,7536.55 2119.65,7562.94C2119.65,7589.35 2141.05,7610.65 2167.45,7610.65C2193.85,7610.65 2215.25,7589.35 2215.25,7562.94ZM2157.15,7581.74C2157.15,7585.35 2157.35,7589.24 2157.35,7591.15C2157.35,7593.15 2155.25,7593.44 2154.55,7593.44C2152.35,7593.44 2149.25,7591.55 2149.25,7589.65C2149.25,7588.35 2149.45,7584.74 2149.45,7581.65L2149.45,7542.15C2147.55,7541.35 2146.25,7538.85 2146.25,7537.35C2146.25,7535.15 2147.05,7534.74 2156.35,7533.05C2158.35,7532.74 2162.35,7532.05 2168.15,7532.05C2182.35,7532.05 2190.15,7537.24 2190.15,7546.74C2190.15,7559.55 2179.25,7566.44 2159.05,7566.44L2157.15,7566.44L2157.15,7581.74ZM2157.15,7560.24C2160.95,7560.05 2167.35,7558.94 2170.05,7558.35C2178.25,7556.44 2182.25,7552.85 2182.25,7547.24C2182.25,7541.65 2177.65,7539.35 2167.95,7539.35C2164.55,7539.35 2160.45,7539.85 2157.15,7540.74L2157.15,7560.24Z" style="fill-rule:nonzero;"/>
        </g>
    </g>
</svg>
