<?xml version="1.0" encoding="UTF-8" standalone="no"?>
<!DOCTYPE svg PUBLIC "-//W3C//DTD SVG 1.1//EN" "http://www.w3.org/Graphics/SVG/1.1/DTD/svg11.dtd">
<svg width="100%" height="100%" viewBox="0 0 89 89" version="1.1" xmlns="http://www.w3.org/2000/svg" xmlns:xlink="http://www.w3.org/1999/xlink" xml:space="preserve" xmlns:serif="http://www.serif.com/" style="fill-rule:evenodd;clip-rule:evenodd;stroke-linejoin:round;stroke-miterlimit:2;">
    <g transform="matrix(1,0,0,1,-1902.47,-2492.27)">
        <g transform="matrix(1.41414,0,0,1.41429,-1052.39,-837.704)">
            <path d="M2146.36,2416.89C2149.75,2416.89 2151.87,2414.35 2151.87,2411.38L2151.87,2360.05C2151.87,2356.58 2149.4,2354.53 2146.36,2354.53L2095.02,2354.53C2091.56,2354.53 2089.51,2356.86 2089.51,2360.05L2089.51,2411.38C2089.51,2414.56 2091.98,2416.89 2095.02,2416.89L2146.36,2416.89ZM2113.41,2399.08C2113.41,2401.62 2113.55,2404.38 2113.55,2405.72C2113.55,2407.14 2112.07,2407.35 2111.57,2407.35C2110.01,2407.35 2107.82,2406.01 2107.82,2404.66C2107.82,2403.74 2107.96,2401.2 2107.96,2399.01L2107.96,2371.08C2106.62,2370.51 2105.7,2368.74 2105.7,2367.68C2105.7,2366.13 2106.27,2365.84 2112.84,2364.64C2114.26,2364.43 2117.09,2363.93 2121.19,2363.93C2131.23,2363.93 2136.74,2367.61 2136.74,2374.33C2136.74,2383.38 2129.03,2388.26 2114.75,2388.26L2113.41,2388.26L2113.41,2399.08ZM2113.41,2383.87C2116.1,2383.73 2120.62,2382.95 2122.53,2382.53C2128.33,2381.19 2131.16,2378.64 2131.16,2374.68C2131.16,2370.72 2127.9,2369.1 2121.04,2369.1C2118.64,2369.1 2115.74,2369.45 2113.41,2370.09L2113.41,2383.87Z" style="fill-rule:nonzero;"/>
        </g>
    </g>
</svg>
