<?xml version="1.0" encoding="UTF-8" standalone="no"?>
<!DOCTYPE svg PUBLIC "-//W3C//DTD SVG 1.1//EN" "http://www.w3.org/Graphics/SVG/1.1/DTD/svg11.dtd">
<svg width="100%" height="100%" viewBox="0 0 98 90" version="1.1" xmlns="http://www.w3.org/2000/svg" xmlns:xlink="http://www.w3.org/1999/xlink" xml:space="preserve" xmlns:serif="http://www.serif.com/" style="fill-rule:evenodd;clip-rule:evenodd;stroke-linejoin:round;stroke-miterlimit:2;">
    <g transform="matrix(1,0,0,1,-5637.4,-2435.56)">
        <g transform="matrix(1,0,0,1,1,0)">
            <path d="M5668.79,2498.86C5668.79,2501.96 5668.59,2505.56 5668.59,2506.86C5668.59,2508.16 5670.89,2509.16 5672.39,2509.16C5673.09,2509.16 5673.69,2508.86 5673.69,2508.36C5673.69,2506.46 5673.49,2502.56 5673.49,2498.96L5673.49,2481.56C5673.69,2481.86 5674.09,2481.96 5674.49,2482.06C5675.19,2482.16 5675.99,2482.16 5676.89,2482.16C5702.59,2482.16 5706.49,2471.36 5706.49,2463.96C5706.49,2455.76 5699.99,2450.76 5685.99,2450.76C5680.29,2450.76 5676.39,2451.46 5674.49,2451.76C5665.99,2453.26 5665.59,2453.56 5665.59,2454.56C5665.59,2455.86 5667.09,2458.06 5668.49,2458.06L5668.79,2458.06L5668.79,2498.86ZM5715.09,2524.76C5717.39,2524.76 5734.09,2507.26 5734.09,2480.16C5734.09,2452.96 5717.39,2435.56 5715.09,2435.56C5714.39,2435.56 5713.89,2436.06 5713.89,2436.76C5713.89,2437.16 5713.99,2437.66 5714.39,2438.06C5724.19,2449.76 5728.79,2465.96 5728.79,2480.16C5728.79,2494.36 5724.19,2510.56 5714.39,2522.26C5713.99,2522.66 5713.89,2523.16 5713.89,2523.56C5713.89,2524.26 5714.39,2524.76 5715.09,2524.76ZM5656.6,2523.56C5656.6,2523.16 5656.49,2522.66 5656.1,2522.26C5646.3,2510.56 5641.7,2494.36 5641.7,2480.16C5641.7,2465.96 5646.3,2449.76 5656.1,2438.06C5656.49,2437.66 5656.6,2437.16 5656.6,2436.76C5656.6,2436.06 5656.1,2435.56 5655.4,2435.56C5653.1,2435.56 5636.4,2452.96 5636.4,2480.16C5636.4,2507.26 5653.1,2524.76 5655.4,2524.76C5656.1,2524.76 5656.6,2524.26 5656.6,2523.56ZM5673.49,2456.76C5677.09,2455.76 5681.89,2455.06 5685.79,2455.06C5695.39,2455.06 5701.59,2457.36 5701.59,2464.46C5701.59,2471.16 5696.69,2475.06 5688.19,2477.06C5685.39,2477.66 5678.49,2478.76 5674.69,2478.96C5674.19,2478.96 5673.69,2479.26 5673.49,2479.56L5673.49,2456.76Z" style="fill-rule:nonzero;"/>
        </g>
    </g>
</svg>
