<?xml version="1.0" encoding="UTF-8" standalone="no"?>
<!DOCTYPE svg PUBLIC "-//W3C//DTD SVG 1.1//EN" "http://www.w3.org/Graphics/SVG/1.1/DTD/svg11.dtd">
<svg width="100%" height="100%" viewBox="0 0 89 89" version="1.1" xmlns="http://www.w3.org/2000/svg" xmlns:xlink="http://www.w3.org/1999/xlink" xml:space="preserve" xmlns:serif="http://www.serif.com/" style="fill-rule:evenodd;clip-rule:evenodd;stroke-linejoin:round;stroke-miterlimit:2;">
    <g transform="matrix(1,0,0,1,-2340.22,-1938.66)">
        <g transform="matrix(1,0,0,1,-1072.97,-2735.12)">
            <path d="M3501.38,4761.99L3501.38,4673.79L3413.18,4673.79L3413.18,4761.99L3501.38,4761.99ZM3497.28,4757.89L3417.28,4757.89L3417.28,4677.89L3497.28,4677.89L3497.28,4757.89ZM3440.78,4736.69C3440.78,4739.79 3440.58,4743.39 3440.58,4744.69C3440.58,4745.99 3442.88,4746.99 3444.38,4746.99C3445.08,4746.99 3445.68,4746.69 3445.68,4746.19C3445.68,4744.29 3445.48,4740.39 3445.48,4736.79L3445.48,4719.39C3445.68,4719.69 3446.08,4719.79 3446.48,4719.89C3447.18,4719.99 3447.98,4719.99 3448.88,4719.99C3474.58,4719.99 3478.48,4709.19 3478.48,4701.79C3478.48,4693.59 3471.98,4688.59 3457.98,4688.59C3452.28,4688.59 3448.38,4689.29 3446.48,4689.59C3437.98,4691.09 3437.58,4691.39 3437.58,4692.39C3437.58,4693.69 3439.08,4695.89 3440.48,4695.89L3440.78,4695.89L3440.78,4736.69ZM3445.48,4694.59C3449.08,4693.59 3453.88,4692.89 3457.78,4692.89C3467.38,4692.89 3473.58,4695.19 3473.58,4702.29C3473.58,4708.99 3468.68,4712.89 3460.18,4714.89C3457.38,4715.49 3450.48,4716.59 3446.68,4716.79C3446.18,4716.79 3445.68,4717.09 3445.48,4717.39L3445.48,4694.59Z" style="fill-rule:nonzero;"/>
        </g>
    </g>
</svg>
