<?xml version="1.0" encoding="UTF-8" standalone="no"?>
<!DOCTYPE svg PUBLIC "-//W3C//DTD SVG 1.1//EN" "http://www.w3.org/Graphics/SVG/1.1/DTD/svg11.dtd">
<svg width="100%" height="100%" viewBox="0 0 89 89" version="1.1" xmlns="http://www.w3.org/2000/svg" xmlns:xlink="http://www.w3.org/1999/xlink" xml:space="preserve" xmlns:serif="http://www.serif.com/" style="fill-rule:evenodd;clip-rule:evenodd;stroke-linejoin:round;stroke-miterlimit:2;">
    <g transform="matrix(1,0,0,1,-3193.31,-2481.51)">
        <g transform="matrix(1.41414,0,0,1.41429,-1389.33,-1046.26)">
            <path d="M3297.43,2556.75C3300.83,2556.75 3302.95,2554.2 3302.95,2551.23L3302.95,2499.9C3302.95,2496.43 3300.47,2494.39 3297.43,2494.39L3246.1,2494.39C3242.63,2494.39 3240.58,2496.72 3240.58,2499.9L3240.58,2551.23C3240.58,2554.41 3243.06,2556.75 3246.1,2556.75L3297.43,2556.75ZM3300.05,2551.52C3300.05,2553.07 3298.99,2553.85 3297.78,2553.85L3245.74,2553.85C3244.26,2553.85 3243.48,2552.79 3243.48,2551.52L3243.48,2499.55C3243.48,2498.13 3244.4,2497.28 3245.74,2497.28L3297.78,2497.28C3299.2,2497.28 3300.05,2498.34 3300.05,2499.55L3300.05,2551.52ZM3260.1,2538.86C3260.1,2541.05 3259.96,2543.6 3259.96,2544.52C3259.96,2545.43 3261.58,2546.14 3262.64,2546.14C3263.14,2546.14 3263.56,2545.93 3263.56,2545.58C3263.56,2544.23 3263.42,2541.48 3263.42,2538.93L3263.42,2526.63C3263.56,2526.84 3263.85,2526.91 3264.13,2526.98C3264.62,2527.05 3265.19,2527.05 3265.83,2527.05C3284,2527.05 3286.76,2519.41 3286.76,2514.18C3286.76,2508.39 3282.16,2504.85 3272.26,2504.85C3268.23,2504.85 3265.47,2505.34 3264.13,2505.56C3258.12,2506.62 3257.84,2506.83 3257.84,2507.54C3257.84,2508.45 3258.9,2510.01 3259.89,2510.01L3260.1,2510.01L3260.1,2538.86ZM3263.42,2509.09C3265.97,2508.39 3269.36,2507.89 3272.12,2507.89C3278.91,2507.89 3283.29,2509.52 3283.29,2514.54C3283.29,2519.27 3279.83,2522.03 3273.82,2523.45C3271.84,2523.87 3266.96,2524.65 3264.27,2524.79C3263.92,2524.79 3263.56,2525 3263.42,2525.21L3263.42,2509.09Z" style="fill-rule:nonzero;"/>
        </g>
    </g>
</svg>
