<?xml version="1.0" encoding="UTF-8" standalone="no"?>
<!DOCTYPE svg PUBLIC "-//W3C//DTD SVG 1.1//EN" "http://www.w3.org/Graphics/SVG/1.1/DTD/svg11.dtd">
<svg width="100%" height="100%" viewBox="0 0 48 91" version="1.1" xmlns="http://www.w3.org/2000/svg" xmlns:xlink="http://www.w3.org/1999/xlink" xml:space="preserve" xmlns:serif="http://www.serif.com/" style="fill-rule:evenodd;clip-rule:evenodd;stroke-linejoin:round;stroke-miterlimit:2;">
    <g transform="matrix(1,0,0,1,-4114.54,-1866.57)">
        <g transform="matrix(1.41414,0,0,1.41429,-1534.59,-78.5653)">
            <path d="M4024.3,1437.43C4024.3,1438.28 4025.5,1438.84 4026.63,1438.84C4027.48,1438.84 4028.19,1438.49 4028.19,1437.78C4028.12,1435.52 4028.12,1432.55 4028.12,1431.21L4028.12,1378.6C4028.12,1376.9 4026.92,1375.35 4024.87,1375.35L4024.58,1375.35L4009.73,1376.05C4001.67,1376.41 3994.74,1382.42 3994.74,1391.33C3994.74,1399.03 4000.61,1402.71 4006.62,1402.71C4007.68,1402.71 4008.74,1402.57 4009.81,1402.36L4009.81,1432.05C4009.81,1433.18 4009.73,1436.15 4009.59,1438.13L4009.59,1438.21C4009.59,1439.05 4010.8,1439.62 4011.93,1439.62C4012.78,1439.62 4013.48,1439.27 4013.48,1438.56C4013.41,1436.44 4013.41,1433.33 4013.41,1431.98L4013.41,1379.24L4024.51,1378.74L4024.51,1431.28C4024.51,1432.41 4024.44,1435.38 4024.3,1437.36L4024.3,1437.43Z" style="fill-rule:nonzero;"/>
        </g>
    </g>
</svg>
