<?xml version="1.0" encoding="UTF-8" standalone="no"?>
<!DOCTYPE svg PUBLIC "-//W3C//DTD SVG 1.1//EN" "http://www.w3.org/Graphics/SVG/1.1/DTD/svg11.dtd">
<svg width="100%" height="100%" viewBox="0 0 98 90" version="1.1" xmlns="http://www.w3.org/2000/svg" xmlns:xlink="http://www.w3.org/1999/xlink" xml:space="preserve" xmlns:serif="http://www.serif.com/" style="fill-rule:evenodd;clip-rule:evenodd;stroke-linejoin:round;stroke-miterlimit:2;">
    <g transform="matrix(1,0,0,1,-5437.42,-1235.56)">
        <g transform="matrix(1,0,0,1,1,0)">
            <path d="M5465.41,1253.46C5462.11,1258.26 5458.72,1264.26 5454.91,1271.46C5451.12,1278.96 5449.12,1285.76 5449.12,1292.56C5449.12,1301.96 5456.82,1309.66 5467.11,1309.66C5478.31,1309.66 5485.11,1301.26 5485.11,1290.36C5485.11,1280.56 5478.41,1273.36 5468.51,1273.36C5463.02,1273.36 5458.52,1275.76 5455.72,1279.66C5458.52,1273.86 5464.02,1262.76 5471.31,1254.26C5471.61,1253.86 5472.21,1253.16 5472.21,1252.56C5472.21,1251.56 5470.11,1250.76 5468.71,1250.76C5467.81,1250.76 5467.01,1251.06 5466.61,1251.76L5465.41,1253.46ZM5467.11,1305.56C5459.32,1305.56 5453.82,1299.86 5453.82,1292.46C5453.82,1284.46 5459.52,1277.46 5468.41,1277.46C5475.81,1277.46 5480.31,1283.66 5480.31,1290.56C5480.31,1299.36 5474.71,1305.56 5467.11,1305.56ZM5516.61,1295.36C5518.81,1295.36 5521.81,1295.56 5522.91,1295.56C5523.51,1295.56 5523.71,1295.06 5523.71,1294.46C5523.71,1293.06 5522.51,1290.76 5521.21,1290.76C5520.21,1290.76 5517.91,1291.16 5516.51,1291.26L5515.11,1291.36L5515.11,1274.66C5515.11,1272.66 5515.31,1268.76 5515.31,1267.46C5515.31,1266.06 5513.11,1265.16 5511.61,1265.16C5510.81,1265.16 5510.21,1265.46 5510.21,1265.96C5510.21,1267.86 5510.41,1273.06 5510.41,1274.66L5510.41,1291.56L5491.41,1291.96C5497.11,1282.36 5504.41,1269.36 5508.91,1260.46C5509.61,1259.16 5510.81,1257.26 5511.71,1255.96C5511.91,1255.76 5511.91,1255.46 5511.91,1255.16C5511.91,1253.46 5509.61,1251.06 5508.31,1251.06C5507.91,1251.06 5507.61,1251.16 5507.51,1251.56C5504.31,1259.66 5497.51,1272.86 5488.71,1287.66C5488.01,1288.76 5486.91,1289.96 5486.01,1291.36C5485.61,1291.86 5485.51,1292.46 5485.51,1292.96C5485.51,1294.86 5487.41,1296.66 5489.01,1296.66C5489.21,1296.66 5489.31,1296.56 5489.51,1296.56C5490.71,1296.26 5491.91,1296.06 5492.51,1296.06L5510.41,1295.56L5510.41,1299.96C5510.41,1301.16 5510.21,1305.76 5510.21,1307.06C5510.21,1308.46 5512.51,1309.36 5514.11,1309.36C5514.91,1309.36 5515.51,1309.06 5515.51,1308.56C5515.51,1306.66 5515.21,1303.46 5515.11,1300.16L5515.11,1295.36L5516.61,1295.36ZM5456.61,1323.56C5456.61,1323.16 5456.52,1322.66 5456.11,1322.26C5446.32,1310.56 5441.72,1294.36 5441.72,1280.16C5441.72,1265.96 5446.32,1249.76 5456.11,1238.06C5456.52,1237.66 5456.61,1237.16 5456.61,1236.76C5456.61,1236.06 5456.11,1235.56 5455.41,1235.56C5453.12,1235.56 5436.42,1252.96 5436.42,1280.16C5436.42,1307.26 5453.12,1324.76 5455.41,1324.76C5456.11,1324.76 5456.61,1324.26 5456.61,1323.56ZM5515.11,1324.76C5517.41,1324.76 5534.11,1307.26 5534.11,1280.16C5534.11,1252.96 5517.41,1235.56 5515.11,1235.56C5514.41,1235.56 5513.91,1236.06 5513.91,1236.76C5513.91,1237.16 5514.01,1237.66 5514.41,1238.06C5524.21,1249.76 5528.81,1265.96 5528.81,1280.16C5528.81,1294.36 5524.21,1310.56 5514.41,1322.26C5514.01,1322.66 5513.91,1323.16 5513.91,1323.56C5513.91,1324.26 5514.41,1324.76 5515.11,1324.76Z" style="fill-rule:nonzero;"/>
        </g>
    </g>
</svg>
