<?xml version="1.0" encoding="UTF-8" standalone="no"?>
<!DOCTYPE svg PUBLIC "-//W3C//DTD SVG 1.1//EN" "http://www.w3.org/Graphics/SVG/1.1/DTD/svg11.dtd">
<svg width="100%" height="100%" viewBox="0 0 98 90" version="1.1" xmlns="http://www.w3.org/2000/svg" xmlns:xlink="http://www.w3.org/1999/xlink" xml:space="preserve" xmlns:serif="http://www.serif.com/" style="fill-rule:evenodd;clip-rule:evenodd;stroke-linejoin:round;stroke-miterlimit:2;">
    <g transform="matrix(1,0,0,1,-5937.37,-185.561)">
        <g transform="matrix(1,0,0,1,1,0)">
            <path d="M5957.56,206.361C5957.36,206.061 5956.96,205.761 5956.46,205.761C5954.16,205.761 5949.16,217.461 5949.16,231.661C5949.16,248.161 5954.36,260.261 5965.16,260.261C5976.46,260.261 5981.96,246.161 5981.96,229.561C5981.96,213.261 5976.66,201.361 5966.96,201.361C5963.16,201.361 5959.96,203.361 5957.56,206.361ZM6006.66,226.261C6014.46,220.861 6021.36,213.861 6021.36,211.761C6021.36,210.861 6020.76,210.261 6019.96,210.261C6019.36,210.261 6018.76,210.461 6018.06,211.161L6017.66,211.561C6017.96,211.061 6018.16,210.461 6018.16,210.061C6018.16,209.761 6018.06,209.461 6017.96,209.261C6014.86,204.961 6010.36,201.361 6004.06,201.361C5994.26,201.361 5988.56,207.661 5988.56,214.761C5988.56,220.061 5990.66,223.461 5998.06,227.061C5990.56,232.061 5986.06,237.561 5986.06,244.861C5986.06,253.461 5992.26,260.061 6002.66,260.061C6014.16,260.061 6021.76,253.661 6021.76,243.761C6021.76,235.961 6017.26,230.861 6007.66,226.661L6006.66,226.261ZM5964.86,255.961C5956.46,255.961 5953.66,244.761 5953.66,231.561C5953.66,214.161 5961.06,205.461 5966.66,205.461C5974.66,205.461 5977.46,217.761 5977.46,228.961C5977.46,242.661 5973.96,255.961 5964.86,255.961ZM6002.46,229.061C6011.26,232.561 6017.06,236.161 6017.06,244.161C6017.06,251.061 6010.96,255.761 6002.66,255.761C5994.36,255.761 5990.76,250.161 5990.76,244.661C5990.76,238.861 5995.06,234.161 6002.46,229.061ZM5956.56,273.561C5956.56,273.161 5956.46,272.661 5956.06,272.261C5946.27,260.561 5941.67,244.361 5941.67,230.161C5941.67,215.961 5946.27,199.761 5956.06,188.061C5956.46,187.661 5956.56,187.161 5956.56,186.761C5956.56,186.061 5956.06,185.561 5955.36,185.561C5953.07,185.561 5936.37,202.961 5936.37,230.161C5936.37,257.261 5953.07,274.761 5955.36,274.761C5956.06,274.761 5956.56,274.261 5956.56,273.561ZM6015.06,274.761C6017.36,274.761 6034.06,257.261 6034.06,230.161C6034.06,202.961 6017.36,185.561 6015.06,185.561C6014.36,185.561 6013.86,186.061 6013.86,186.761C6013.86,187.161 6013.96,187.661 6014.36,188.061C6024.16,199.761 6028.76,215.961 6028.76,230.161C6028.76,244.361 6024.16,260.561 6014.36,272.261C6013.96,272.661 6013.86,273.161 6013.86,273.561C6013.86,274.261 6014.36,274.761 6015.06,274.761ZM6002.36,224.261C5995.36,221.161 5993.26,218.961 5993.26,214.761C5993.26,210.061 5996.86,205.461 6004.16,205.461C6008.86,205.461 6011.66,207.961 6014.06,211.861C6014.56,212.661 6015.06,212.961 6015.56,212.961C6015.86,212.961 6016.16,212.861 6016.36,212.761C6012.36,216.761 6007.76,220.861 6002.36,224.261Z" style="fill-rule:nonzero;"/>
        </g>
    </g>
</svg>
