<?xml version="1.0" encoding="UTF-8" standalone="no"?>
<!DOCTYPE svg PUBLIC "-//W3C//DTD SVG 1.1//EN" "http://www.w3.org/Graphics/SVG/1.1/DTD/svg11.dtd">
<svg width="100%" height="100%" viewBox="0 0 98 90" version="1.1" xmlns="http://www.w3.org/2000/svg" xmlns:xlink="http://www.w3.org/1999/xlink" xml:space="preserve" xmlns:serif="http://www.serif.com/" style="fill-rule:evenodd;clip-rule:evenodd;stroke-linejoin:round;stroke-miterlimit:2;">
    <g transform="matrix(1,0,0,1,-5337.43,-1535.56)">
        <g transform="matrix(1,0,0,1,1,0)">
            <path d="M5369.62,1575.86C5377.42,1570.46 5384.32,1563.46 5384.32,1561.36C5384.32,1560.46 5383.72,1559.86 5382.92,1559.86C5382.32,1559.86 5381.72,1560.06 5381.02,1560.76L5380.62,1561.16C5380.92,1560.66 5381.12,1560.06 5381.12,1559.66C5381.12,1559.36 5381.02,1559.06 5380.92,1558.86C5377.82,1554.56 5373.32,1550.96 5367.02,1550.96C5357.23,1550.96 5351.53,1557.26 5351.53,1564.36C5351.53,1569.66 5353.63,1573.06 5361.03,1576.66C5353.53,1581.66 5349.03,1587.16 5349.03,1594.46C5349.03,1603.06 5355.23,1609.66 5365.62,1609.66C5377.12,1609.66 5384.72,1603.26 5384.72,1593.36C5384.72,1585.56 5380.22,1580.46 5370.62,1576.26L5369.62,1575.86ZM5407.22,1576.86C5414.12,1575.06 5419.32,1570.06 5419.32,1563.26C5419.32,1555.46 5413.52,1550.86 5404.82,1550.86C5394.62,1550.86 5387.82,1557.56 5387.82,1559.66C5387.82,1561.46 5389.42,1563.06 5390.22,1563.06C5391.02,1563.06 5391.62,1562.06 5391.92,1561.76C5395.92,1557.16 5400.02,1555.06 5404.92,1555.06C5411.02,1555.06 5414.62,1558.36 5414.62,1563.76C5414.62,1571.26 5404.32,1575.56 5396.62,1576.06C5396.02,1576.16 5395.72,1576.66 5395.72,1577.26C5395.72,1578.56 5396.82,1580.46 5398.22,1580.46C5398.42,1580.46 5398.52,1580.36 5398.72,1580.36C5398.82,1580.36 5401.92,1579.66 5404.82,1579.66C5411.92,1579.66 5417.02,1584.26 5417.02,1590.86C5417.02,1598.26 5412.72,1605.36 5401.82,1605.36C5396.22,1605.36 5392.72,1602.56 5389.32,1598.36C5389.02,1598.06 5388.82,1597.86 5388.52,1597.86C5387.32,1597.86 5386.22,1599.96 5386.22,1601.56C5386.22,1602.26 5386.32,1602.76 5386.72,1603.16C5391.02,1607.36 5395.82,1609.66 5401.82,1609.66C5416.02,1609.66 5421.82,1600.96 5421.82,1590.76C5421.82,1582.16 5415.42,1576.86 5408.22,1576.86L5407.22,1576.86ZM5365.43,1578.66C5374.22,1582.16 5380.02,1585.76 5380.02,1593.76C5380.02,1600.66 5373.92,1605.36 5365.62,1605.36C5357.32,1605.36 5353.73,1599.76 5353.73,1594.26C5353.73,1588.46 5358.03,1583.76 5365.43,1578.66ZM5356.63,1623.56C5356.63,1623.16 5356.53,1622.66 5356.13,1622.26C5346.33,1610.56 5341.73,1594.36 5341.73,1580.16C5341.73,1565.96 5346.33,1549.76 5356.13,1538.06C5356.53,1537.66 5356.63,1537.16 5356.63,1536.76C5356.63,1536.06 5356.13,1535.56 5355.43,1535.56C5353.13,1535.56 5336.43,1552.96 5336.43,1580.16C5336.43,1607.26 5353.13,1624.76 5355.43,1624.76C5356.13,1624.76 5356.63,1624.26 5356.63,1623.56ZM5415.12,1624.76C5417.42,1624.76 5434.12,1607.26 5434.12,1580.16C5434.12,1552.96 5417.42,1535.56 5415.12,1535.56C5414.42,1535.56 5413.92,1536.06 5413.92,1536.76C5413.92,1537.16 5414.02,1537.66 5414.42,1538.06C5424.22,1549.76 5428.82,1565.96 5428.82,1580.16C5428.82,1594.36 5424.22,1610.56 5414.42,1622.26C5414.02,1622.66 5413.92,1623.16 5413.92,1623.56C5413.92,1624.26 5414.42,1624.76 5415.12,1624.76ZM5365.32,1573.86C5358.32,1570.76 5356.23,1568.56 5356.23,1564.36C5356.23,1559.66 5359.82,1555.06 5367.12,1555.06C5371.82,1555.06 5374.62,1557.56 5377.02,1561.46C5377.52,1562.26 5378.02,1562.56 5378.52,1562.56C5378.82,1562.56 5379.12,1562.46 5379.32,1562.36C5375.32,1566.36 5370.72,1570.46 5365.32,1573.86Z" style="fill-rule:nonzero;"/>
        </g>
    </g>
</svg>
