<?xml version="1.0" encoding="UTF-8" standalone="no"?>
<!DOCTYPE svg PUBLIC "-//W3C//DTD SVG 1.1//EN" "http://www.w3.org/Graphics/SVG/1.1/DTD/svg11.dtd">
<svg width="100%" height="100%" viewBox="0 0 98 90" version="1.1" xmlns="http://www.w3.org/2000/svg" xmlns:xlink="http://www.w3.org/1999/xlink" xml:space="preserve" xmlns:serif="http://www.serif.com/" style="fill-rule:evenodd;clip-rule:evenodd;stroke-linejoin:round;stroke-miterlimit:2;">
    <g transform="matrix(1,0,0,1,-5637.4,-1385.56)">
        <g transform="matrix(1,0,0,1,1,0)">
            <path d="M5702.69,1403.46C5699.39,1408.26 5695.99,1414.26 5692.19,1421.46C5688.39,1428.96 5686.39,1435.76 5686.39,1442.56C5686.39,1451.96 5694.09,1459.66 5704.39,1459.66C5715.59,1459.66 5722.39,1451.26 5722.39,1440.36C5722.39,1430.56 5715.69,1423.36 5705.79,1423.36C5700.29,1423.36 5695.79,1425.76 5692.99,1429.66C5695.79,1423.86 5701.29,1412.76 5708.59,1404.26C5708.89,1403.86 5709.49,1403.16 5709.49,1402.56C5709.49,1401.56 5707.39,1400.76 5705.99,1400.76C5705.09,1400.76 5704.29,1401.06 5703.89,1401.76L5702.69,1403.46ZM5704.39,1455.56C5696.59,1455.56 5691.09,1449.86 5691.09,1442.46C5691.09,1434.46 5696.79,1427.46 5705.69,1427.46C5713.09,1427.46 5717.59,1433.66 5717.59,1440.56C5717.59,1449.36 5711.99,1455.56 5704.39,1455.56ZM5656.6,1473.56C5656.6,1473.16 5656.49,1472.66 5656.1,1472.26C5646.3,1460.56 5641.7,1444.36 5641.7,1430.16C5641.7,1415.96 5646.3,1399.76 5656.1,1388.06C5656.49,1387.66 5656.6,1387.16 5656.6,1386.76C5656.6,1386.06 5656.1,1385.56 5655.4,1385.56C5653.1,1385.56 5636.4,1402.96 5636.4,1430.16C5636.4,1457.26 5653.1,1474.76 5655.4,1474.76C5656.1,1474.76 5656.6,1474.26 5656.6,1473.56ZM5715.09,1474.76C5717.39,1474.76 5734.09,1457.26 5734.09,1430.16C5734.09,1402.96 5717.39,1385.56 5715.09,1385.56C5714.39,1385.56 5713.89,1386.06 5713.89,1386.76C5713.89,1387.16 5713.99,1387.66 5714.39,1388.06C5724.19,1399.76 5728.79,1415.96 5728.79,1430.16C5728.79,1444.36 5724.19,1460.56 5714.39,1472.26C5713.99,1472.66 5713.89,1473.16 5713.89,1473.56C5713.89,1474.26 5714.39,1474.76 5715.09,1474.76ZM5683.79,1405.06C5683.79,1403.66 5681.79,1401.86 5680.59,1401.66L5680.39,1401.66C5679.39,1401.66 5678.29,1402.16 5677.09,1402.26L5655.6,1403.76L5654.49,1403.76C5653.19,1403.76 5652.4,1403.66 5651.49,1403.66C5651.19,1403.66 5651.1,1403.86 5651.1,1404.16C5651.1,1404.76 5652.1,1408.26 5654.99,1408.26C5655.69,1408.26 5656.49,1408.06 5657.3,1408.06L5677.99,1406.26C5669.49,1425.46 5667.89,1430.06 5658.99,1455.56C5658.9,1456.06 5658.49,1456.76 5658.49,1457.46C5658.49,1458.16 5658.9,1458.86 5660.49,1459.06C5660.89,1459.06 5661.29,1459.16 5661.59,1459.16C5662.89,1459.16 5663.59,1458.86 5663.79,1457.96C5664.39,1455.06 5664.99,1452.76 5665.59,1451.06C5669.89,1437.66 5675.89,1422.26 5681.89,1409.16C5682.39,1408.16 5683.59,1406.66 5683.79,1405.36L5683.79,1405.06Z" style="fill-rule:nonzero;"/>
        </g>
    </g>
</svg>
