<?xml version="1.0" encoding="UTF-8" standalone="no"?>
<!DOCTYPE svg PUBLIC "-//W3C//DTD SVG 1.1//EN" "http://www.w3.org/Graphics/SVG/1.1/DTD/svg11.dtd">
<svg width="100%" height="100%" viewBox="0 0 98 90" version="1.1" xmlns="http://www.w3.org/2000/svg" xmlns:xlink="http://www.w3.org/1999/xlink" xml:space="preserve" xmlns:serif="http://www.serif.com/" style="fill-rule:evenodd;clip-rule:evenodd;stroke-linejoin:round;stroke-miterlimit:2;">
    <g transform="matrix(1,0,0,1,-5537.41,-1535.56)">
        <g transform="matrix(1,0,0,1,1,0)">
            <path d="M5569.6,1575.86C5577.4,1570.46 5584.3,1563.46 5584.3,1561.36C5584.3,1560.46 5583.7,1559.86 5582.9,1559.86C5582.3,1559.86 5581.7,1560.06 5581,1560.76L5580.6,1561.16C5580.9,1560.66 5581.1,1560.06 5581.1,1559.66C5581.1,1559.36 5581,1559.06 5580.9,1558.86C5577.8,1554.56 5573.3,1550.96 5567,1550.96C5557.2,1550.96 5551.51,1557.26 5551.51,1564.36C5551.51,1569.66 5553.61,1573.06 5561.01,1576.66C5553.51,1581.66 5549.01,1587.16 5549.01,1594.46C5549.01,1603.06 5555.2,1609.66 5565.6,1609.66C5577.1,1609.66 5584.7,1603.26 5584.7,1593.36C5584.7,1585.56 5580.2,1580.46 5570.6,1576.26L5569.6,1575.86ZM5617.3,1556.36C5617.9,1556.36 5618.2,1555.86 5618.2,1555.26C5618.2,1553.96 5617,1551.86 5615.9,1551.86L5615.7,1551.86C5614.3,1552.16 5612,1552.36 5610.5,1552.36L5595.3,1553.26C5594.2,1552.76 5593,1552.36 5592.2,1552.36C5591.5,1552.36 5591.1,1552.56 5591.1,1553.26C5591.1,1554.26 5591.1,1555.66 5590.9,1556.76L5588.9,1576.46C5588.6,1577.46 5588.1,1579.86 5588.1,1580.16C5588.1,1582.16 5590.1,1583.66 5591.4,1583.66C5592,1583.66 5592.7,1582.96 5594.3,1581.36C5597,1578.76 5600.5,1576.96 5604.7,1576.96C5612,1576.96 5616.7,1581.96 5616.7,1590.26C5616.7,1598.06 5612.5,1605.26 5601.9,1605.26C5595.9,1605.26 5592.1,1601.46 5589.2,1597.16C5589,1596.76 5588.7,1596.56 5588.4,1596.56C5587.3,1596.56 5586,1598.76 5586,1600.56C5586,1603.26 5593.8,1609.66 5601.9,1609.66C5615.8,1609.66 5621.4,1600.46 5621.4,1590.16C5621.4,1579.16 5614.1,1572.76 5605.5,1572.76C5600.1,1572.76 5596.4,1574.46 5593.1,1577.26L5595.2,1557.66L5611.1,1556.66L5617.3,1556.36ZM5565.4,1578.66C5574.2,1582.16 5580,1585.76 5580,1593.76C5580,1600.66 5573.9,1605.36 5565.6,1605.36C5557.31,1605.36 5553.7,1599.76 5553.7,1594.26C5553.7,1588.46 5558.01,1583.76 5565.4,1578.66ZM5556.61,1623.56C5556.61,1623.16 5556.51,1622.66 5556.11,1622.26C5546.31,1610.56 5541.71,1594.36 5541.71,1580.16C5541.71,1565.96 5546.31,1549.76 5556.11,1538.06C5556.51,1537.66 5556.61,1537.16 5556.61,1536.76C5556.61,1536.06 5556.11,1535.56 5555.4,1535.56C5553.11,1535.56 5536.41,1552.96 5536.41,1580.16C5536.41,1607.26 5553.11,1624.76 5555.4,1624.76C5556.11,1624.76 5556.61,1624.26 5556.61,1623.56ZM5615.1,1624.76C5617.4,1624.76 5634.1,1607.26 5634.1,1580.16C5634.1,1552.96 5617.4,1535.56 5615.1,1535.56C5614.4,1535.56 5613.9,1536.06 5613.9,1536.76C5613.9,1537.16 5614,1537.66 5614.4,1538.06C5624.2,1549.76 5628.8,1565.96 5628.8,1580.16C5628.8,1594.36 5624.2,1610.56 5614.4,1622.26C5614,1622.66 5613.9,1623.16 5613.9,1623.56C5613.9,1624.26 5614.4,1624.76 5615.1,1624.76ZM5565.3,1573.86C5558.31,1570.76 5556.2,1568.56 5556.2,1564.36C5556.2,1559.66 5559.81,1555.06 5567.1,1555.06C5571.8,1555.06 5574.6,1557.56 5577,1561.46C5577.5,1562.26 5578,1562.56 5578.5,1562.56C5578.8,1562.56 5579.1,1562.46 5579.3,1562.36C5575.3,1566.36 5570.7,1570.46 5565.3,1573.86Z" style="fill-rule:nonzero;"/>
        </g>
    </g>
</svg>
