<?xml version="1.0" encoding="UTF-8" standalone="no"?>
<!DOCTYPE svg PUBLIC "-//W3C//DTD SVG 1.1//EN" "http://www.w3.org/Graphics/SVG/1.1/DTD/svg11.dtd">
<svg width="100%" height="100%" viewBox="0 0 98 90" version="1.1" xmlns="http://www.w3.org/2000/svg" xmlns:xlink="http://www.w3.org/1999/xlink" xml:space="preserve" xmlns:serif="http://www.serif.com/" style="fill-rule:evenodd;clip-rule:evenodd;stroke-linejoin:round;stroke-miterlimit:2;">
    <g transform="matrix(1,0,0,1,-5237.44,-785.561)">
        <g transform="matrix(1,0,0,1,1,0)">
            <path d="M5289.93,858.661C5294.13,857.661 5300.23,857.661 5301.93,857.661C5311.83,857.661 5318.63,858.261 5318.63,858.261C5319.23,858.261 5319.53,857.861 5319.53,857.161C5319.53,855.761 5318.33,853.561 5317.13,853.561C5316.13,853.561 5313.53,853.661 5312.23,853.661C5309.03,853.661 5306.53,853.561 5302.73,853.561C5299.73,853.561 5295.33,853.761 5292.43,854.061C5295.13,848.661 5299.83,840.561 5306.63,834.161C5313.83,827.361 5318.93,821.661 5318.93,814.261C5318.93,806.461 5313.53,800.861 5305.03,800.861C5297.13,800.861 5291.73,804.961 5288.63,810.861C5288.33,811.261 5288.23,811.761 5288.23,812.261C5288.23,813.161 5288.73,814.061 5289.93,815.061C5290.33,815.461 5290.63,815.561 5291.03,815.561C5291.83,815.561 5292.43,814.761 5292.83,813.661C5294.53,808.861 5298.73,805.061 5304.83,805.061C5310.73,805.061 5314.13,809.261 5314.13,814.261C5314.13,819.561 5310.13,824.561 5303.73,830.761C5297.23,837.061 5291.83,845.761 5288.83,851.561C5288.43,852.361 5287.93,853.061 5287.23,853.961C5287.03,854.261 5286.93,854.661 5286.93,855.161C5286.93,856.761 5288.23,858.661 5289.63,858.661L5289.93,858.661ZM5315.13,874.761C5317.43,874.761 5334.13,857.261 5334.13,830.161C5334.13,802.961 5317.43,785.561 5315.13,785.561C5314.43,785.561 5313.93,786.061 5313.93,786.761C5313.93,787.161 5314.03,787.661 5314.43,788.061C5324.23,799.761 5328.83,815.961 5328.83,830.161C5328.83,844.361 5324.23,860.561 5314.43,872.261C5314.03,872.661 5313.93,873.161 5313.93,873.561C5313.93,874.261 5314.43,874.761 5315.13,874.761ZM5256.64,873.561C5256.64,873.161 5256.54,872.661 5256.14,872.261C5246.34,860.561 5241.74,844.361 5241.74,830.161C5241.74,815.961 5246.34,799.761 5256.14,788.061C5256.54,787.661 5256.64,787.161 5256.64,786.761C5256.64,786.061 5256.14,785.561 5255.44,785.561C5253.14,785.561 5236.44,802.961 5236.44,830.161C5236.44,857.261 5253.14,874.761 5255.44,874.761C5256.14,874.761 5256.64,874.261 5256.64,873.561ZM5270.23,826.861C5277.13,825.061 5282.33,820.061 5282.33,813.261C5282.33,805.461 5276.53,800.861 5267.84,800.861C5257.64,800.861 5250.84,807.561 5250.84,809.661C5250.84,811.461 5252.44,813.061 5253.24,813.061C5254.04,813.061 5254.64,812.061 5254.94,811.761C5258.94,807.161 5263.03,805.061 5267.94,805.061C5274.03,805.061 5277.63,808.361 5277.63,813.761C5277.63,821.261 5267.34,825.561 5259.64,826.061C5259.03,826.161 5258.74,826.661 5258.74,827.261C5258.74,828.561 5259.84,830.461 5261.23,830.461C5261.44,830.461 5261.53,830.361 5261.73,830.361C5261.84,830.361 5264.94,829.661 5267.84,829.661C5274.93,829.661 5280.03,834.261 5280.03,840.861C5280.03,848.261 5275.73,855.361 5264.84,855.361C5259.23,855.361 5255.74,852.561 5252.34,848.361C5252.04,848.061 5251.84,847.861 5251.54,847.861C5250.34,847.861 5249.24,849.961 5249.24,851.561C5249.24,852.261 5249.34,852.761 5249.74,853.161C5254.04,857.361 5258.84,859.661 5264.84,859.661C5279.03,859.661 5284.83,850.961 5284.83,840.761C5284.83,832.161 5278.43,826.861 5271.23,826.861L5270.23,826.861Z" style="fill-rule:nonzero;"/>
        </g>
    </g>
</svg>
