<?xml version="1.0" encoding="UTF-8" standalone="no"?>
<!DOCTYPE svg PUBLIC "-//W3C//DTD SVG 1.1//EN" "http://www.w3.org/Graphics/SVG/1.1/DTD/svg11.dtd">
<svg width="100%" height="100%" viewBox="0 0 98 90" version="1.1" xmlns="http://www.w3.org/2000/svg" xmlns:xlink="http://www.w3.org/1999/xlink" xml:space="preserve" xmlns:serif="http://www.serif.com/" style="fill-rule:evenodd;clip-rule:evenodd;stroke-linejoin:round;stroke-miterlimit:2;">
    <g transform="matrix(1,0,0,1,-5237.44,-1085.56)">
        <g transform="matrix(1,0,0,1,1,0)">
            <path d="M5280.63,1106.36C5281.23,1106.36 5281.53,1105.86 5281.53,1105.26C5281.53,1103.96 5280.33,1101.86 5279.23,1101.86L5279.03,1101.86C5277.63,1102.16 5275.33,1102.36 5273.83,1102.36L5258.64,1103.26C5257.54,1102.76 5256.34,1102.36 5255.54,1102.36C5254.84,1102.36 5254.44,1102.56 5254.44,1103.26C5254.44,1104.26 5254.44,1105.66 5254.24,1106.76L5252.24,1126.46C5251.94,1127.46 5251.44,1129.86 5251.44,1130.16C5251.44,1132.16 5253.44,1133.66 5254.74,1133.66C5255.34,1133.66 5256.04,1132.96 5257.64,1131.36C5260.34,1128.76 5263.84,1126.96 5268.03,1126.96C5275.33,1126.96 5280.03,1131.96 5280.03,1140.26C5280.03,1148.06 5275.83,1155.26 5265.23,1155.26C5259.23,1155.26 5255.44,1151.46 5252.54,1147.16C5252.34,1146.76 5252.04,1146.56 5251.74,1146.56C5250.64,1146.56 5249.34,1148.76 5249.34,1150.56C5249.34,1153.26 5257.14,1159.66 5265.23,1159.66C5279.13,1159.66 5284.73,1150.46 5284.73,1140.16C5284.73,1129.16 5277.43,1122.76 5268.83,1122.76C5263.44,1122.76 5259.73,1124.46 5256.44,1127.26L5258.54,1107.66L5274.43,1106.66L5280.63,1106.36ZM5289.93,1158.66C5294.13,1157.66 5300.23,1157.66 5301.93,1157.66C5311.83,1157.66 5318.63,1158.26 5318.63,1158.26C5319.23,1158.26 5319.53,1157.86 5319.53,1157.16C5319.53,1155.76 5318.33,1153.56 5317.13,1153.56C5316.13,1153.56 5313.53,1153.66 5312.23,1153.66C5309.03,1153.66 5306.53,1153.56 5302.73,1153.56C5299.73,1153.56 5295.33,1153.76 5292.43,1154.06C5295.13,1148.66 5299.83,1140.56 5306.63,1134.16C5313.83,1127.36 5318.93,1121.66 5318.93,1114.26C5318.93,1106.46 5313.53,1100.86 5305.03,1100.86C5297.13,1100.86 5291.73,1104.96 5288.63,1110.86C5288.33,1111.26 5288.23,1111.76 5288.23,1112.26C5288.23,1113.16 5288.73,1114.06 5289.93,1115.06C5290.33,1115.46 5290.63,1115.56 5291.03,1115.56C5291.83,1115.56 5292.43,1114.76 5292.83,1113.66C5294.53,1108.86 5298.73,1105.06 5304.83,1105.06C5310.73,1105.06 5314.13,1109.26 5314.13,1114.26C5314.13,1119.56 5310.13,1124.56 5303.73,1130.76C5297.23,1137.06 5291.83,1145.76 5288.83,1151.56C5288.43,1152.36 5287.93,1153.06 5287.23,1153.96C5287.03,1154.26 5286.93,1154.66 5286.93,1155.16C5286.93,1156.76 5288.23,1158.66 5289.63,1158.66L5289.93,1158.66ZM5256.64,1173.56C5256.64,1173.16 5256.54,1172.66 5256.14,1172.26C5246.34,1160.56 5241.74,1144.36 5241.74,1130.16C5241.74,1115.96 5246.34,1099.76 5256.14,1088.06C5256.54,1087.66 5256.64,1087.16 5256.64,1086.76C5256.64,1086.06 5256.14,1085.56 5255.44,1085.56C5253.14,1085.56 5236.44,1102.96 5236.44,1130.16C5236.44,1157.26 5253.14,1174.76 5255.44,1174.76C5256.14,1174.76 5256.64,1174.26 5256.64,1173.56ZM5315.13,1174.76C5317.43,1174.76 5334.13,1157.26 5334.13,1130.16C5334.13,1102.96 5317.43,1085.56 5315.13,1085.56C5314.43,1085.56 5313.93,1086.06 5313.93,1086.76C5313.93,1087.16 5314.03,1087.66 5314.43,1088.06C5324.23,1099.76 5328.83,1115.96 5328.83,1130.16C5328.83,1144.36 5324.23,1160.56 5314.43,1172.26C5314.03,1172.66 5313.93,1173.16 5313.93,1173.56C5313.93,1174.26 5314.43,1174.76 5315.13,1174.76Z" style="fill-rule:nonzero;"/>
        </g>
    </g>
</svg>
