<?xml version="1.0" encoding="UTF-8" standalone="no"?>
<!DOCTYPE svg PUBLIC "-//W3C//DTD SVG 1.1//EN" "http://www.w3.org/Graphics/SVG/1.1/DTD/svg11.dtd">
<svg width="100%" height="100%" viewBox="0 0 98 90" version="1.1" xmlns="http://www.w3.org/2000/svg" xmlns:xlink="http://www.w3.org/1999/xlink" xml:space="preserve" xmlns:serif="http://www.serif.com/" style="fill-rule:evenodd;clip-rule:evenodd;stroke-linejoin:round;stroke-miterlimit:2;">
    <g transform="matrix(1,0,0,1,-5137.45,-785.561)">
        <g transform="matrix(1,0,0,1,1,0)">
            <path d="M5215.14,874.761C5217.44,874.761 5234.14,857.261 5234.14,830.161C5234.14,802.961 5217.44,785.561 5215.14,785.561C5214.44,785.561 5213.94,786.061 5213.94,786.761C5213.94,787.161 5214.04,787.661 5214.44,788.061C5224.24,799.761 5228.84,815.961 5228.84,830.161C5228.84,844.361 5224.24,860.561 5214.44,872.261C5214.04,872.661 5213.94,873.161 5213.94,873.561C5213.94,874.261 5214.44,874.761 5215.14,874.761ZM5156.65,873.561C5156.65,873.161 5156.55,872.661 5156.15,872.261C5146.35,860.561 5141.75,844.361 5141.75,830.161C5141.75,815.961 5146.35,799.761 5156.15,788.061C5156.55,787.661 5156.65,787.161 5156.65,786.761C5156.65,786.061 5156.15,785.561 5155.45,785.561C5153.15,785.561 5136.45,802.961 5136.45,830.161C5136.45,857.261 5153.15,874.761 5155.45,874.761C5156.15,874.761 5156.65,874.261 5156.65,873.561ZM5172.94,826.861C5179.84,825.061 5185.04,820.061 5185.04,813.261C5185.04,805.461 5179.24,800.861 5170.55,800.861C5160.35,800.861 5153.55,807.561 5153.55,809.661C5153.55,811.461 5155.15,813.061 5155.95,813.061C5156.75,813.061 5157.35,812.061 5157.65,811.761C5161.65,807.161 5165.74,805.061 5170.64,805.061C5176.74,805.061 5180.34,808.361 5180.34,813.761C5180.34,821.261 5170.05,825.561 5162.35,826.061C5161.74,826.161 5161.44,826.661 5161.44,827.261C5161.44,828.561 5162.55,830.461 5163.94,830.461C5164.15,830.461 5164.24,830.361 5164.44,830.361C5164.55,830.361 5167.65,829.661 5170.55,829.661C5177.64,829.661 5182.74,834.261 5182.74,840.861C5182.74,848.261 5178.54,855.361 5168.05,855.361C5162.15,855.361 5158.75,852.561 5155.35,848.361C5155.05,848.061 5154.85,847.861 5154.55,847.861C5153.35,847.861 5152.25,849.961 5152.25,851.561C5152.25,852.261 5152.35,852.761 5152.75,853.161C5157.05,857.361 5161.85,859.661 5168.05,859.661C5181.94,859.661 5187.54,850.961 5187.54,840.761C5187.54,832.161 5181.14,826.861 5173.94,826.861L5172.94,826.861ZM5204.24,850.061C5204.24,851.761 5204.04,855.861 5204.04,857.161C5204.04,858.461 5206.24,859.361 5207.84,859.361C5208.54,859.361 5209.14,859.161 5209.14,858.561C5209.04,856.461 5208.94,851.761 5208.94,849.561L5208.94,809.261C5208.94,806.961 5209.44,805.561 5209.44,804.261C5209.44,802.761 5207.64,801.261 5206.44,801.261C5205.24,801.261 5203.54,803.561 5202.94,804.061C5200.44,805.961 5196.64,808.061 5192.64,809.661C5192.04,809.861 5191.84,810.161 5191.84,810.461C5191.84,811.361 5193.64,812.261 5195.04,812.261C5195.34,812.261 5195.64,812.261 5195.84,812.161C5198.64,811.361 5201.94,810.061 5204.24,808.661L5204.24,850.061Z" style="fill-rule:nonzero;"/>
        </g>
    </g>
</svg>
