<?xml version="1.0" encoding="UTF-8" standalone="no"?>
<!DOCTYPE svg PUBLIC "-//W3C//DTD SVG 1.1//EN" "http://www.w3.org/Graphics/SVG/1.1/DTD/svg11.dtd">
<svg width="100%" height="100%" viewBox="0 0 98 90" version="1.1" xmlns="http://www.w3.org/2000/svg" xmlns:xlink="http://www.w3.org/1999/xlink" xml:space="preserve" xmlns:serif="http://www.serif.com/" style="fill-rule:evenodd;clip-rule:evenodd;stroke-linejoin:round;stroke-miterlimit:2;">
    <g transform="matrix(1,0,0,1,-5437.42,-1685.56)">
        <g transform="matrix(1,0,0,1,1,0)">
            <path d="M5473.01,1759.26C5475.01,1759.16 5476.21,1758.66 5476.31,1757.56C5477.01,1748.96 5481.61,1724.96 5485.31,1709.16C5485.41,1708.66 5486.01,1707.26 5486.31,1706.16L5486.31,1705.86C5486.31,1704.66 5484.71,1703.16 5482.91,1703.16C5481.21,1703.16 5481.61,1705.66 5481.01,1707.86C5479.91,1705.56 5476.11,1700.86 5468.21,1700.86C5457.02,1700.86 5448.52,1711.66 5448.52,1722.56C5448.52,1731.76 5453.72,1737.06 5461.32,1737.06C5467.21,1737.06 5473.41,1733.36 5476.91,1727.66L5471.41,1755.96C5471.31,1756.66 5471.01,1757.36 5471.01,1757.96C5471.01,1758.76 5471.41,1759.26 5472.81,1759.26L5473.01,1759.26ZM5516.71,1745.36C5518.91,1745.36 5521.91,1745.56 5523.01,1745.56C5523.61,1745.56 5523.81,1745.06 5523.81,1744.46C5523.81,1743.06 5522.61,1740.76 5521.31,1740.76C5520.31,1740.76 5518.01,1741.16 5516.61,1741.26L5515.21,1741.36L5515.21,1724.66C5515.21,1722.66 5515.41,1718.76 5515.41,1717.46C5515.41,1716.06 5513.21,1715.16 5511.71,1715.16C5510.91,1715.16 5510.31,1715.46 5510.31,1715.96C5510.31,1717.86 5510.51,1723.06 5510.51,1724.66L5510.51,1741.56L5491.51,1741.96C5497.21,1732.36 5504.51,1719.36 5509.01,1710.46C5509.71,1709.16 5510.91,1707.26 5511.81,1705.96C5512.01,1705.76 5512.01,1705.46 5512.01,1705.16C5512.01,1703.46 5509.71,1701.06 5508.41,1701.06C5508.01,1701.06 5507.71,1701.16 5507.61,1701.56C5504.41,1709.66 5497.61,1722.86 5488.81,1737.66C5488.11,1738.76 5487.01,1739.96 5486.11,1741.36C5485.71,1741.86 5485.61,1742.46 5485.61,1742.96C5485.61,1744.86 5487.51,1746.66 5489.11,1746.66C5489.31,1746.66 5489.41,1746.56 5489.61,1746.56C5490.81,1746.26 5492.01,1746.06 5492.61,1746.06L5510.51,1745.56L5510.51,1749.96C5510.51,1751.16 5510.31,1755.76 5510.31,1757.06C5510.31,1758.46 5512.61,1759.36 5514.21,1759.36C5515.01,1759.36 5515.61,1759.06 5515.61,1758.56C5515.61,1756.66 5515.31,1753.46 5515.21,1750.16L5515.21,1745.36L5516.71,1745.36ZM5479.41,1715.36C5476.11,1725.36 5469.61,1732.66 5461.22,1732.66C5455.91,1732.66 5453.22,1729.16 5453.22,1722.26C5453.22,1714.86 5458.82,1705.06 5468.61,1705.06C5474.41,1705.06 5476.81,1708.96 5477.91,1711.16C5478.21,1711.86 5478.61,1712.16 5479.11,1712.16C5479.51,1712.16 5479.91,1711.86 5480.31,1711.46L5479.41,1715.36ZM5456.61,1773.56C5456.61,1773.16 5456.52,1772.66 5456.11,1772.26C5446.32,1760.56 5441.72,1744.36 5441.72,1730.16C5441.72,1715.96 5446.32,1699.76 5456.11,1688.06C5456.52,1687.66 5456.61,1687.16 5456.61,1686.76C5456.61,1686.06 5456.11,1685.56 5455.41,1685.56C5453.12,1685.56 5436.42,1702.96 5436.42,1730.16C5436.42,1757.26 5453.12,1774.76 5455.41,1774.76C5456.11,1774.76 5456.61,1774.26 5456.61,1773.56ZM5515.11,1774.76C5517.41,1774.76 5534.11,1757.26 5534.11,1730.16C5534.11,1702.96 5517.41,1685.56 5515.11,1685.56C5514.41,1685.56 5513.91,1686.06 5513.91,1686.76C5513.91,1687.16 5514.01,1687.66 5514.41,1688.06C5524.21,1699.76 5528.81,1715.96 5528.81,1730.16C5528.81,1744.36 5524.21,1760.56 5514.41,1772.26C5514.01,1772.66 5513.91,1773.16 5513.91,1773.56C5513.91,1774.26 5514.41,1774.76 5515.11,1774.76Z" style="fill-rule:nonzero;"/>
        </g>
    </g>
</svg>
