<?xml version="1.0" encoding="UTF-8" standalone="no"?>
<!DOCTYPE svg PUBLIC "-//W3C//DTD SVG 1.1//EN" "http://www.w3.org/Graphics/SVG/1.1/DTD/svg11.dtd">
<svg width="100%" height="100%" viewBox="0 0 98 90" version="1.1" xmlns="http://www.w3.org/2000/svg" xmlns:xlink="http://www.w3.org/1999/xlink" xml:space="preserve" xmlns:serif="http://www.serif.com/" style="fill-rule:evenodd;clip-rule:evenodd;stroke-linejoin:round;stroke-miterlimit:2;">
    <g transform="matrix(1,0,0,1,-5837.38,-635.561)">
        <g transform="matrix(1,0,0,1,1,0)">
            <path d="M5906.27,675.861C5914.07,670.461 5920.97,663.461 5920.97,661.361C5920.97,660.461 5920.37,659.861 5919.57,659.861C5918.97,659.861 5918.37,660.061 5917.67,660.761L5917.27,661.161C5917.57,660.661 5917.77,660.061 5917.77,659.661C5917.77,659.361 5917.67,659.061 5917.57,658.861C5914.47,654.561 5909.97,650.961 5903.67,650.961C5893.87,650.961 5888.17,657.261 5888.17,664.361C5888.17,669.661 5890.27,673.061 5897.67,676.661C5890.17,681.661 5885.67,687.161 5885.67,694.461C5885.67,703.061 5891.87,709.661 5902.27,709.661C5913.77,709.661 5921.37,703.261 5921.37,693.361C5921.37,685.561 5916.87,680.461 5907.27,676.261L5906.27,675.861ZM5854.28,708.661C5858.47,707.661 5864.57,707.661 5866.27,707.661C5876.17,707.661 5882.97,708.261 5882.97,708.261C5883.57,708.261 5883.87,707.861 5883.87,707.161C5883.87,705.761 5882.67,703.561 5881.47,703.561C5880.47,703.561 5877.87,703.661 5876.57,703.661C5873.37,703.661 5870.87,703.561 5867.07,703.561C5864.07,703.561 5859.67,703.761 5856.77,704.061C5859.47,698.661 5864.17,690.561 5870.97,684.161C5878.17,677.361 5883.27,671.661 5883.27,664.261C5883.27,656.461 5877.87,650.861 5869.37,650.861C5861.47,650.861 5856.07,654.961 5852.98,660.861C5852.68,661.261 5852.57,661.761 5852.57,662.261C5852.57,663.161 5853.07,664.061 5854.28,665.061C5854.68,665.461 5854.98,665.561 5855.38,665.561C5856.18,665.561 5856.77,664.761 5857.17,663.661C5858.87,658.861 5863.07,655.061 5869.17,655.061C5875.07,655.061 5878.47,659.261 5878.47,664.261C5878.47,669.561 5874.47,674.561 5868.07,680.761C5861.57,687.061 5856.18,695.761 5853.18,701.561C5852.78,702.361 5852.28,703.061 5851.57,703.961C5851.38,704.261 5851.28,704.661 5851.28,705.161C5851.28,706.761 5852.57,708.661 5853.98,708.661L5854.28,708.661ZM5902.07,678.661C5910.87,682.161 5916.67,685.761 5916.67,693.761C5916.67,700.661 5910.57,705.361 5902.27,705.361C5893.97,705.361 5890.37,699.761 5890.37,694.261C5890.37,688.461 5894.67,683.761 5902.07,678.661ZM5856.57,723.561C5856.57,723.161 5856.48,722.661 5856.07,722.261C5846.28,710.561 5841.68,694.361 5841.68,680.161C5841.68,665.961 5846.28,649.761 5856.07,638.061C5856.48,637.661 5856.57,637.161 5856.57,636.761C5856.57,636.061 5856.07,635.561 5855.38,635.561C5853.07,635.561 5836.38,652.961 5836.38,680.161C5836.38,707.261 5853.07,724.761 5855.38,724.761C5856.07,724.761 5856.57,724.261 5856.57,723.561ZM5915.07,724.761C5917.37,724.761 5934.07,707.261 5934.07,680.161C5934.07,652.961 5917.37,635.561 5915.07,635.561C5914.37,635.561 5913.87,636.061 5913.87,636.761C5913.87,637.161 5913.97,637.661 5914.37,638.061C5924.17,649.761 5928.77,665.961 5928.77,680.161C5928.77,694.361 5924.17,710.561 5914.37,722.261C5913.97,722.661 5913.87,723.161 5913.87,723.561C5913.87,724.261 5914.37,724.761 5915.07,724.761ZM5901.97,673.861C5894.97,670.761 5892.87,668.561 5892.87,664.361C5892.87,659.661 5896.47,655.061 5903.77,655.061C5908.47,655.061 5911.27,657.561 5913.67,661.461C5914.17,662.261 5914.67,662.561 5915.17,662.561C5915.47,662.561 5915.77,662.461 5915.97,662.361C5911.97,666.361 5907.37,670.461 5901.97,673.861Z" style="fill-rule:nonzero;"/>
        </g>
    </g>
</svg>
