<?xml version="1.0" encoding="UTF-8" standalone="no"?>
<!DOCTYPE svg PUBLIC "-//W3C//DTD SVG 1.1//EN" "http://www.w3.org/Graphics/SVG/1.1/DTD/svg11.dtd">
<svg width="100%" height="100%" viewBox="0 0 98 90" version="1.1" xmlns="http://www.w3.org/2000/svg" xmlns:xlink="http://www.w3.org/1999/xlink" xml:space="preserve" xmlns:serif="http://www.serif.com/" style="fill-rule:evenodd;clip-rule:evenodd;stroke-linejoin:round;stroke-miterlimit:2;">
    <g transform="matrix(1,0,0,1,-6037.36,-1385.56)">
        <g transform="matrix(1,0,0,1,1,0)">
            <path d="M6095.85,1405.76C6095.55,1405.16 6094.75,1405.16 6094.65,1405.16C6092.55,1405.16 6087.25,1416.36 6087.25,1431.06C6087.25,1447.56 6092.55,1459.66 6103.55,1459.66C6115.15,1459.66 6120.75,1445.56 6120.75,1428.96C6120.75,1412.66 6115.35,1400.76 6105.45,1400.76C6101.55,1400.76 6098.25,1402.76 6095.85,1405.76ZM6069.55,1425.86C6077.35,1420.46 6084.25,1413.46 6084.25,1411.36C6084.25,1410.46 6083.65,1409.86 6082.85,1409.86C6082.25,1409.86 6081.65,1410.06 6080.95,1410.76L6080.55,1411.16C6080.85,1410.66 6081.05,1410.06 6081.05,1409.66C6081.05,1409.36 6080.95,1409.06 6080.85,1408.86C6077.75,1404.56 6073.25,1400.96 6066.95,1400.96C6057.15,1400.96 6051.45,1407.26 6051.45,1414.36C6051.45,1419.66 6053.55,1423.06 6060.95,1426.66C6053.45,1431.66 6048.95,1437.16 6048.95,1444.46C6048.95,1453.06 6055.15,1459.66 6065.55,1459.66C6077.05,1459.66 6084.65,1453.26 6084.65,1443.36C6084.65,1435.56 6080.15,1430.46 6070.55,1426.26L6069.55,1425.86ZM6103.25,1455.36C6094.75,1455.36 6091.85,1444.16 6091.85,1430.96C6091.85,1413.56 6099.35,1404.86 6105.15,1404.86C6113.25,1404.86 6116.15,1417.16 6116.15,1428.36C6116.15,1442.06 6112.55,1455.36 6103.25,1455.36ZM6065.35,1428.66C6074.15,1432.16 6079.95,1435.76 6079.95,1443.76C6079.95,1450.66 6073.85,1455.36 6065.55,1455.36C6057.25,1455.36 6053.65,1449.76 6053.65,1444.26C6053.65,1438.46 6057.95,1433.76 6065.35,1428.66ZM6056.55,1473.56C6056.55,1473.16 6056.45,1472.66 6056.05,1472.26C6046.26,1460.56 6041.66,1444.36 6041.66,1430.16C6041.66,1415.96 6046.26,1399.76 6056.05,1388.06C6056.45,1387.66 6056.55,1387.16 6056.55,1386.76C6056.55,1386.06 6056.05,1385.56 6055.35,1385.56C6053.05,1385.56 6036.36,1402.96 6036.36,1430.16C6036.36,1457.26 6053.05,1474.76 6055.35,1474.76C6056.05,1474.76 6056.55,1474.26 6056.55,1473.56ZM6115.05,1474.76C6117.35,1474.76 6134.05,1457.26 6134.05,1430.16C6134.05,1402.96 6117.35,1385.56 6115.05,1385.56C6114.35,1385.56 6113.85,1386.06 6113.85,1386.76C6113.85,1387.16 6113.95,1387.66 6114.35,1388.06C6124.15,1399.76 6128.75,1415.96 6128.75,1430.16C6128.75,1444.36 6124.15,1460.56 6114.35,1472.26C6113.95,1472.66 6113.85,1473.16 6113.85,1473.56C6113.85,1474.26 6114.35,1474.76 6115.05,1474.76ZM6065.25,1423.86C6058.25,1420.76 6056.15,1418.56 6056.15,1414.36C6056.15,1409.66 6059.75,1405.06 6067.05,1405.06C6071.75,1405.06 6074.55,1407.56 6076.95,1411.46C6077.45,1412.26 6077.95,1412.56 6078.45,1412.56C6078.75,1412.56 6079.05,1412.46 6079.25,1412.36C6075.25,1416.36 6070.65,1420.46 6065.25,1423.86Z" style="fill-rule:nonzero;"/>
        </g>
    </g>
</svg>
