<?xml version="1.0" encoding="UTF-8" standalone="no"?>
<!DOCTYPE svg PUBLIC "-//W3C//DTD SVG 1.1//EN" "http://www.w3.org/Graphics/SVG/1.1/DTD/svg11.dtd">
<svg width="100%" height="100%" viewBox="0 0 98 90" version="1.1" xmlns="http://www.w3.org/2000/svg" xmlns:xlink="http://www.w3.org/1999/xlink" xml:space="preserve" xmlns:serif="http://www.serif.com/" style="fill-rule:evenodd;clip-rule:evenodd;stroke-linejoin:round;stroke-miterlimit:2;">
    <g transform="matrix(1,0,0,1,-5437.42,-335.561)">
        <g transform="matrix(1,0,0,1,1,0)">
            <path d="M5497.41,395.061C5500.91,395.061 5504.31,395.261 5505.51,395.261C5506.11,395.261 5506.41,394.861 5506.41,394.161C5506.41,392.861 5505.11,390.561 5503.61,390.561C5502.51,390.561 5499.71,390.961 5497.31,391.061C5496.51,391.061 5495.71,391.161 5494.91,391.161L5494.91,374.461C5494.91,372.461 5495.11,368.561 5495.11,367.261C5495.11,365.861 5492.91,364.961 5491.41,364.961C5490.71,364.961 5490.11,365.261 5490.11,365.761C5490.11,367.661 5490.41,372.861 5490.41,374.461L5490.41,391.361C5479.01,391.861 5466.11,392.261 5466.11,392.261C5473.61,382.361 5482.81,368.661 5488.51,360.261C5491.81,355.561 5491.91,355.261 5491.91,354.761C5491.91,353.161 5489.81,350.861 5488.61,350.861C5488.21,350.861 5488.01,350.961 5487.81,351.361C5486.01,355.861 5482.41,362.161 5464.02,387.961L5461.22,391.661C5460.82,392.261 5460.61,392.761 5460.61,393.361C5460.61,395.161 5462.61,396.861 5464.32,396.861C5464.52,396.861 5464.71,396.861 5464.91,396.761C5466.21,396.461 5467.61,396.261 5468.21,396.261L5490.41,395.361L5490.41,399.761C5490.41,400.961 5490.21,405.561 5490.21,406.861C5490.21,408.261 5492.41,409.161 5493.91,409.161C5494.61,409.161 5495.21,408.861 5495.21,408.361C5495.21,406.461 5495.01,403.261 5494.91,399.961L5494.91,395.161L5497.41,395.061ZM5456.61,423.561C5456.61,423.161 5456.52,422.661 5456.11,422.261C5446.32,410.561 5441.72,394.361 5441.72,380.161C5441.72,365.961 5446.32,349.761 5456.11,338.061C5456.52,337.661 5456.61,337.161 5456.61,336.761C5456.61,336.061 5456.11,335.561 5455.41,335.561C5453.12,335.561 5436.42,352.961 5436.42,380.161C5436.42,407.261 5453.12,424.761 5455.41,424.761C5456.11,424.761 5456.61,424.261 5456.61,423.561ZM5515.11,424.761C5517.41,424.761 5534.11,407.261 5534.11,380.161C5534.11,352.961 5517.41,335.561 5515.11,335.561C5514.41,335.561 5513.91,336.061 5513.91,336.761C5513.91,337.161 5514.01,337.661 5514.41,338.061C5524.21,349.761 5528.81,365.961 5528.81,380.161C5528.81,394.361 5524.21,410.561 5514.41,422.261C5514.01,422.661 5513.91,423.161 5513.91,423.561C5513.91,424.261 5514.41,424.761 5515.11,424.761Z" style="fill-rule:nonzero;"/>
        </g>
    </g>
</svg>
