<?xml version="1.0" encoding="UTF-8" standalone="no"?>
<!DOCTYPE svg PUBLIC "-//W3C//DTD SVG 1.1//EN" "http://www.w3.org/Graphics/SVG/1.1/DTD/svg11.dtd">
<svg width="100%" height="100%" viewBox="0 0 98 90" version="1.1" xmlns="http://www.w3.org/2000/svg" xmlns:xlink="http://www.w3.org/1999/xlink" xml:space="preserve" xmlns:serif="http://www.serif.com/" style="fill-rule:evenodd;clip-rule:evenodd;stroke-linejoin:round;stroke-miterlimit:2;">
    <g transform="matrix(1,0,0,1,-5337.43,-1385.56)">
        <g transform="matrix(1,0,0,1,1,0)">
            <path d="M5415.12,1474.76C5417.42,1474.76 5434.12,1457.26 5434.12,1430.16C5434.12,1402.96 5417.42,1385.56 5415.12,1385.56C5414.42,1385.56 5413.92,1386.06 5413.92,1386.76C5413.92,1387.16 5414.02,1387.66 5414.42,1388.06C5424.22,1399.76 5428.82,1415.96 5428.82,1430.16C5428.82,1444.36 5424.22,1460.56 5414.42,1472.26C5414.02,1472.66 5413.92,1473.16 5413.92,1473.56C5413.92,1474.26 5414.42,1474.76 5415.12,1474.76ZM5356.63,1473.56C5356.63,1473.16 5356.53,1472.66 5356.13,1472.26C5346.33,1460.56 5341.73,1444.36 5341.73,1430.16C5341.73,1415.96 5346.33,1399.76 5356.13,1388.06C5356.53,1387.66 5356.63,1387.16 5356.63,1386.76C5356.63,1386.06 5356.13,1385.56 5355.43,1385.56C5353.13,1385.56 5336.43,1402.96 5336.43,1430.16C5336.43,1457.26 5353.13,1474.76 5355.43,1474.76C5356.13,1474.76 5356.63,1474.26 5356.63,1473.56ZM5407.22,1426.86C5414.12,1425.06 5419.32,1420.06 5419.32,1413.26C5419.32,1405.46 5413.52,1400.86 5404.82,1400.86C5394.62,1400.86 5387.82,1407.56 5387.82,1409.66C5387.82,1411.46 5389.42,1413.06 5390.22,1413.06C5391.02,1413.06 5391.62,1412.06 5391.92,1411.76C5395.92,1407.16 5400.02,1405.06 5404.92,1405.06C5411.02,1405.06 5414.62,1408.36 5414.62,1413.76C5414.62,1421.26 5404.32,1425.56 5396.62,1426.06C5396.02,1426.16 5395.72,1426.66 5395.72,1427.26C5395.72,1428.56 5396.82,1430.46 5398.22,1430.46C5398.42,1430.46 5398.52,1430.36 5398.72,1430.36C5398.82,1430.36 5401.92,1429.66 5404.82,1429.66C5411.92,1429.66 5417.02,1434.26 5417.02,1440.86C5417.02,1448.26 5412.72,1455.36 5401.82,1455.36C5396.22,1455.36 5392.72,1452.56 5389.32,1448.36C5389.02,1448.06 5388.82,1447.86 5388.52,1447.86C5387.32,1447.86 5386.22,1449.96 5386.22,1451.56C5386.22,1452.26 5386.32,1452.76 5386.72,1453.16C5391.02,1457.36 5395.82,1459.66 5401.82,1459.66C5416.02,1459.66 5421.82,1450.96 5421.82,1440.76C5421.82,1432.16 5415.42,1426.86 5408.22,1426.86L5407.22,1426.86ZM5383.82,1405.06C5383.82,1403.66 5381.82,1401.86 5380.62,1401.66L5380.42,1401.66C5379.42,1401.66 5378.32,1402.16 5377.12,1402.26L5355.63,1403.76L5354.53,1403.76C5353.23,1403.76 5352.43,1403.66 5351.53,1403.66C5351.23,1403.66 5351.13,1403.86 5351.13,1404.16C5351.13,1404.76 5352.13,1408.26 5355.03,1408.26C5355.73,1408.26 5356.53,1408.06 5357.32,1408.06L5378.02,1406.26C5369.52,1425.46 5367.92,1430.06 5359.03,1455.56C5358.93,1456.06 5358.53,1456.76 5358.53,1457.46C5358.53,1458.16 5358.93,1458.86 5360.53,1459.06C5360.93,1459.06 5361.32,1459.16 5361.62,1459.16C5362.93,1459.16 5363.62,1458.86 5363.82,1457.96C5364.43,1455.06 5365.03,1452.76 5365.62,1451.06C5369.92,1437.66 5375.92,1422.26 5381.92,1409.16C5382.42,1408.16 5383.62,1406.66 5383.82,1405.36L5383.82,1405.06Z" style="fill-rule:nonzero;"/>
        </g>
    </g>
</svg>
