<?xml version="1.0" encoding="UTF-8" standalone="no"?>
<!DOCTYPE svg PUBLIC "-//W3C//DTD SVG 1.1//EN" "http://www.w3.org/Graphics/SVG/1.1/DTD/svg11.dtd">
<svg width="100%" height="100%" viewBox="0 0 98 90" version="1.1" xmlns="http://www.w3.org/2000/svg" xmlns:xlink="http://www.w3.org/1999/xlink" xml:space="preserve" xmlns:serif="http://www.serif.com/" style="fill-rule:evenodd;clip-rule:evenodd;stroke-linejoin:round;stroke-miterlimit:2;">
    <g transform="matrix(1,0,0,1,-5937.37,-1235.56)">
        <g transform="matrix(1,0,0,1,1,0)">
            <path d="M5965.36,1253.46C5962.06,1258.26 5958.66,1264.26 5954.86,1271.46C5951.07,1278.96 5949.07,1285.76 5949.07,1292.56C5949.07,1301.96 5956.76,1309.66 5967.06,1309.66C5978.26,1309.66 5985.06,1301.26 5985.06,1290.36C5985.06,1280.56 5978.36,1273.36 5968.46,1273.36C5962.96,1273.36 5958.46,1275.76 5955.66,1279.66C5958.46,1273.86 5963.96,1262.76 5971.26,1254.26C5971.56,1253.86 5972.16,1253.16 5972.16,1252.56C5972.16,1251.56 5970.06,1250.76 5968.66,1250.76C5967.76,1250.76 5966.96,1251.06 5966.56,1251.76L5965.36,1253.46ZM6009.96,1309.26C6011.96,1309.16 6013.16,1308.66 6013.26,1307.56C6013.96,1298.96 6018.56,1274.96 6022.26,1259.16C6022.36,1258.66 6022.96,1257.26 6023.26,1256.16L6023.26,1255.86C6023.26,1254.66 6021.66,1253.16 6019.86,1253.16C6018.16,1253.16 6018.56,1255.66 6017.96,1257.86C6016.86,1255.56 6013.06,1250.86 6005.16,1250.86C5993.96,1250.86 5985.46,1261.66 5985.46,1272.56C5985.46,1281.76 5990.66,1287.06 5998.26,1287.06C6004.16,1287.06 6010.36,1283.36 6013.86,1277.66L6008.36,1305.96C6008.26,1306.66 6007.96,1307.36 6007.96,1307.96C6007.96,1308.76 6008.36,1309.26 6009.76,1309.26L6009.96,1309.26ZM5967.06,1305.56C5959.26,1305.56 5953.77,1299.86 5953.77,1292.46C5953.77,1284.46 5959.46,1277.46 5968.36,1277.46C5975.76,1277.46 5980.26,1283.66 5980.26,1290.56C5980.26,1299.36 5974.66,1305.56 5967.06,1305.56ZM6016.36,1265.36C6013.06,1275.36 6006.56,1282.66 5998.16,1282.66C5992.86,1282.66 5990.16,1279.16 5990.16,1272.26C5990.16,1264.86 5995.76,1255.06 6005.56,1255.06C6011.36,1255.06 6013.76,1258.96 6014.86,1261.16C6015.16,1261.86 6015.56,1262.16 6016.06,1262.16C6016.46,1262.16 6016.86,1261.86 6017.26,1261.46L6016.36,1265.36ZM5956.56,1323.56C5956.56,1323.16 5956.46,1322.66 5956.06,1322.26C5946.27,1310.56 5941.67,1294.36 5941.67,1280.16C5941.67,1265.96 5946.27,1249.76 5956.06,1238.06C5956.46,1237.66 5956.56,1237.16 5956.56,1236.76C5956.56,1236.06 5956.06,1235.56 5955.36,1235.56C5953.07,1235.56 5936.37,1252.96 5936.37,1280.16C5936.37,1307.26 5953.07,1324.76 5955.36,1324.76C5956.06,1324.76 5956.56,1324.26 5956.56,1323.56ZM6015.06,1324.76C6017.36,1324.76 6034.06,1307.26 6034.06,1280.16C6034.06,1252.96 6017.36,1235.56 6015.06,1235.56C6014.36,1235.56 6013.86,1236.06 6013.86,1236.76C6013.86,1237.16 6013.96,1237.66 6014.36,1238.06C6024.16,1249.76 6028.76,1265.96 6028.76,1280.16C6028.76,1294.36 6024.16,1310.56 6014.36,1322.26C6013.96,1322.66 6013.86,1323.16 6013.86,1323.56C6013.86,1324.26 6014.36,1324.76 6015.06,1324.76Z" style="fill-rule:nonzero;"/>
        </g>
    </g>
</svg>
