<?xml version="1.0" encoding="UTF-8" standalone="no"?>
<!DOCTYPE svg PUBLIC "-//W3C//DTD SVG 1.1//EN" "http://www.w3.org/Graphics/SVG/1.1/DTD/svg11.dtd">
<svg width="100%" height="100%" viewBox="0 0 98 90" version="1.1" xmlns="http://www.w3.org/2000/svg" xmlns:xlink="http://www.w3.org/1999/xlink" xml:space="preserve" xmlns:serif="http://www.serif.com/" style="fill-rule:evenodd;clip-rule:evenodd;stroke-linejoin:round;stroke-miterlimit:2;">
    <g transform="matrix(1,0,0,1,-5437.42,-485.561)">
        <g transform="matrix(1,0,0,1,1,0)">
            <path d="M5515.11,574.761C5517.41,574.761 5534.11,557.261 5534.11,530.161C5534.11,502.961 5517.41,485.561 5515.11,485.561C5514.41,485.561 5513.91,486.061 5513.91,486.761C5513.91,487.161 5514.01,487.661 5514.41,488.061C5524.21,499.761 5528.81,515.961 5528.81,530.161C5528.81,544.361 5524.21,560.561 5514.41,572.261C5514.01,572.661 5513.91,573.161 5513.91,573.561C5513.91,574.261 5514.41,574.761 5515.11,574.761ZM5456.61,573.561C5456.61,573.161 5456.52,572.661 5456.11,572.261C5446.32,560.561 5441.72,544.361 5441.72,530.161C5441.72,515.961 5446.32,499.761 5456.11,488.061C5456.52,487.661 5456.61,487.161 5456.61,486.761C5456.61,486.061 5456.11,485.561 5455.41,485.561C5453.12,485.561 5436.42,502.961 5436.42,530.161C5436.42,557.261 5453.12,574.761 5455.41,574.761C5456.11,574.761 5456.61,574.261 5456.61,573.561ZM5507.41,545.261C5510.51,545.261 5513.61,545.461 5514.71,545.461C5515.31,545.461 5515.51,545.061 5515.51,544.361C5515.51,542.961 5514.31,540.761 5513.01,540.761C5512.01,540.761 5509.41,541.161 5507.31,541.261L5505.41,541.361L5505.41,524.661C5505.41,522.661 5505.61,518.761 5505.61,517.461C5505.61,516.061 5503.41,515.161 5501.91,515.161C5501.11,515.161 5500.51,515.461 5500.51,515.961C5500.51,517.861 5500.71,523.061 5500.71,524.661L5500.71,541.561L5480.41,542.461C5486.91,532.561 5495.01,518.961 5500.01,510.461C5500.91,508.961 5501.61,507.761 5502.81,505.961C5502.91,505.761 5503.01,505.461 5503.01,505.161C5503.01,503.461 5500.71,501.061 5499.41,501.061C5499.01,501.061 5498.81,501.161 5498.61,501.561C5497.21,505.861 5495.01,510.361 5478.01,538.161C5477.31,539.261 5476.21,540.461 5475.31,541.861C5474.91,542.361 5474.81,542.961 5474.81,543.461C5474.81,545.361 5476.71,547.161 5478.31,547.161C5478.51,547.161 5478.61,547.061 5478.81,547.061C5480.01,546.761 5481.21,546.561 5481.81,546.561L5500.71,545.561L5500.71,549.961C5500.71,551.161 5500.51,555.761 5500.51,557.061C5500.51,558.461 5502.81,559.361 5504.41,559.361C5505.21,559.361 5505.81,559.061 5505.81,558.561C5505.81,556.661 5505.51,553.461 5505.41,550.161L5505.41,545.361L5507.41,545.261ZM5463.61,550.061C5463.61,551.761 5463.41,555.861 5463.41,557.161C5463.41,558.461 5465.61,559.361 5467.21,559.361C5467.91,559.361 5468.51,559.161 5468.51,558.561C5468.41,556.461 5468.31,551.761 5468.31,549.561L5468.31,509.261C5468.31,506.961 5468.81,505.561 5468.81,504.261C5468.81,502.761 5467.01,501.261 5465.81,501.261C5464.61,501.261 5462.91,503.561 5462.32,504.061C5459.82,505.961 5456.02,508.061 5452.02,509.661C5451.42,509.861 5451.22,510.161 5451.22,510.461C5451.22,511.361 5453.02,512.261 5454.42,512.261C5454.72,512.261 5455.02,512.261 5455.22,512.161C5458.02,511.361 5461.32,510.061 5463.61,508.661L5463.61,550.061Z" style="fill-rule:nonzero;"/>
        </g>
    </g>
</svg>
