<?xml version="1.0" encoding="UTF-8" standalone="no"?>
<!DOCTYPE svg PUBLIC "-//W3C//DTD SVG 1.1//EN" "http://www.w3.org/Graphics/SVG/1.1/DTD/svg11.dtd">
<svg width="100%" height="100%" viewBox="0 0 98 90" version="1.1" xmlns="http://www.w3.org/2000/svg" xmlns:xlink="http://www.w3.org/1999/xlink" xml:space="preserve" xmlns:serif="http://www.serif.com/" style="fill-rule:evenodd;clip-rule:evenodd;stroke-linejoin:round;stroke-miterlimit:2;">
    <g transform="matrix(1,0,0,1,-5237.44,-1235.56)">
        <g transform="matrix(1,0,0,1,1,0)">
            <path d="M5265.44,1253.46C5262.14,1258.26 5258.74,1264.26 5254.94,1271.46C5251.14,1278.96 5249.14,1285.76 5249.14,1292.56C5249.14,1301.96 5256.84,1309.66 5267.14,1309.66C5278.33,1309.66 5285.13,1301.26 5285.13,1290.36C5285.13,1280.56 5278.43,1273.36 5268.53,1273.36C5263.03,1273.36 5258.54,1275.76 5255.74,1279.66C5258.54,1273.86 5264.03,1262.76 5271.33,1254.26C5271.63,1253.86 5272.23,1253.16 5272.23,1252.56C5272.23,1251.56 5270.13,1250.76 5268.73,1250.76C5267.84,1250.76 5267.03,1251.06 5266.64,1251.76L5265.44,1253.46ZM5267.14,1305.56C5259.34,1305.56 5253.84,1299.86 5253.84,1292.46C5253.84,1284.46 5259.53,1277.46 5268.44,1277.46C5275.83,1277.46 5280.33,1283.66 5280.33,1290.56C5280.33,1299.36 5274.73,1305.56 5267.14,1305.56ZM5289.93,1308.66C5294.13,1307.66 5300.23,1307.66 5301.93,1307.66C5311.83,1307.66 5318.63,1308.26 5318.63,1308.26C5319.23,1308.26 5319.53,1307.86 5319.53,1307.16C5319.53,1305.76 5318.33,1303.56 5317.13,1303.56C5316.13,1303.56 5313.53,1303.66 5312.23,1303.66C5309.03,1303.66 5306.53,1303.56 5302.73,1303.56C5299.73,1303.56 5295.33,1303.76 5292.43,1304.06C5295.13,1298.66 5299.83,1290.56 5306.63,1284.16C5313.83,1277.36 5318.93,1271.66 5318.93,1264.26C5318.93,1256.46 5313.53,1250.86 5305.03,1250.86C5297.13,1250.86 5291.73,1254.96 5288.63,1260.86C5288.33,1261.26 5288.23,1261.76 5288.23,1262.26C5288.23,1263.16 5288.73,1264.06 5289.93,1265.06C5290.33,1265.46 5290.63,1265.56 5291.03,1265.56C5291.83,1265.56 5292.43,1264.76 5292.83,1263.66C5294.53,1258.86 5298.73,1255.06 5304.83,1255.06C5310.73,1255.06 5314.13,1259.26 5314.13,1264.26C5314.13,1269.56 5310.13,1274.56 5303.73,1280.76C5297.23,1287.06 5291.83,1295.76 5288.83,1301.56C5288.43,1302.36 5287.93,1303.06 5287.23,1303.96C5287.03,1304.26 5286.93,1304.66 5286.93,1305.16C5286.93,1306.76 5288.23,1308.66 5289.63,1308.66L5289.93,1308.66ZM5256.64,1323.56C5256.64,1323.16 5256.54,1322.66 5256.14,1322.26C5246.34,1310.56 5241.74,1294.36 5241.74,1280.16C5241.74,1265.96 5246.34,1249.76 5256.14,1238.06C5256.54,1237.66 5256.64,1237.16 5256.64,1236.76C5256.64,1236.06 5256.14,1235.56 5255.44,1235.56C5253.14,1235.56 5236.44,1252.96 5236.44,1280.16C5236.44,1307.26 5253.14,1324.76 5255.44,1324.76C5256.14,1324.76 5256.64,1324.26 5256.64,1323.56ZM5315.13,1324.76C5317.43,1324.76 5334.13,1307.26 5334.13,1280.16C5334.13,1252.96 5317.43,1235.56 5315.13,1235.56C5314.43,1235.56 5313.93,1236.06 5313.93,1236.76C5313.93,1237.16 5314.03,1237.66 5314.43,1238.06C5324.23,1249.76 5328.83,1265.96 5328.83,1280.16C5328.83,1294.36 5324.23,1310.56 5314.43,1322.26C5314.03,1322.66 5313.93,1323.16 5313.93,1323.56C5313.93,1324.26 5314.43,1324.76 5315.13,1324.76Z" style="fill-rule:nonzero;"/>
        </g>
    </g>
</svg>
