<?xml version="1.0" encoding="UTF-8" standalone="no"?>
<!DOCTYPE svg PUBLIC "-//W3C//DTD SVG 1.1//EN" "http://www.w3.org/Graphics/SVG/1.1/DTD/svg11.dtd">
<svg width="100%" height="100%" viewBox="0 0 98 90" version="1.1" xmlns="http://www.w3.org/2000/svg" xmlns:xlink="http://www.w3.org/1999/xlink" xml:space="preserve" xmlns:serif="http://www.serif.com/" style="fill-rule:evenodd;clip-rule:evenodd;stroke-linejoin:round;stroke-miterlimit:2;">
    <g transform="matrix(1,0,0,1,-5237.44,-1535.56)">
        <g transform="matrix(1,0,0,1,1,0)">
            <path d="M5269.63,1575.86C5277.43,1570.46 5284.33,1563.46 5284.33,1561.36C5284.33,1560.46 5283.73,1559.86 5282.93,1559.86C5282.33,1559.86 5281.73,1560.06 5281.03,1560.76L5280.63,1561.16C5280.93,1560.66 5281.13,1560.06 5281.13,1559.66C5281.13,1559.36 5281.03,1559.06 5280.93,1558.86C5277.83,1554.56 5273.33,1550.96 5267.03,1550.96C5257.24,1550.96 5251.54,1557.26 5251.54,1564.36C5251.54,1569.66 5253.64,1573.06 5261.03,1576.66C5253.54,1581.66 5249.04,1587.16 5249.04,1594.46C5249.04,1603.06 5255.24,1609.66 5265.64,1609.66C5277.13,1609.66 5284.73,1603.26 5284.73,1593.36C5284.73,1585.56 5280.23,1580.46 5270.63,1576.26L5269.63,1575.86ZM5289.93,1608.66C5294.13,1607.66 5300.23,1607.66 5301.93,1607.66C5311.83,1607.66 5318.63,1608.26 5318.63,1608.26C5319.23,1608.26 5319.53,1607.86 5319.53,1607.16C5319.53,1605.76 5318.33,1603.56 5317.13,1603.56C5316.13,1603.56 5313.53,1603.66 5312.23,1603.66C5309.03,1603.66 5306.53,1603.56 5302.73,1603.56C5299.73,1603.56 5295.33,1603.76 5292.43,1604.06C5295.13,1598.66 5299.83,1590.56 5306.63,1584.16C5313.83,1577.36 5318.93,1571.66 5318.93,1564.26C5318.93,1556.46 5313.53,1550.86 5305.03,1550.86C5297.13,1550.86 5291.73,1554.96 5288.63,1560.86C5288.33,1561.26 5288.23,1561.76 5288.23,1562.26C5288.23,1563.16 5288.73,1564.06 5289.93,1565.06C5290.33,1565.46 5290.63,1565.56 5291.03,1565.56C5291.83,1565.56 5292.43,1564.76 5292.83,1563.66C5294.53,1558.86 5298.73,1555.06 5304.83,1555.06C5310.73,1555.06 5314.13,1559.26 5314.13,1564.26C5314.13,1569.56 5310.13,1574.56 5303.73,1580.76C5297.23,1587.06 5291.83,1595.76 5288.83,1601.56C5288.43,1602.36 5287.93,1603.06 5287.23,1603.96C5287.03,1604.26 5286.93,1604.66 5286.93,1605.16C5286.93,1606.76 5288.23,1608.66 5289.63,1608.66L5289.93,1608.66ZM5265.44,1578.66C5274.23,1582.16 5280.03,1585.76 5280.03,1593.76C5280.03,1600.66 5273.93,1605.36 5265.64,1605.36C5257.34,1605.36 5253.74,1599.76 5253.74,1594.26C5253.74,1588.46 5258.04,1583.76 5265.44,1578.66ZM5256.64,1623.56C5256.64,1623.16 5256.54,1622.66 5256.14,1622.26C5246.34,1610.56 5241.74,1594.36 5241.74,1580.16C5241.74,1565.96 5246.34,1549.76 5256.14,1538.06C5256.54,1537.66 5256.64,1537.16 5256.64,1536.76C5256.64,1536.06 5256.14,1535.56 5255.44,1535.56C5253.14,1535.56 5236.44,1552.96 5236.44,1580.16C5236.44,1607.26 5253.14,1624.76 5255.44,1624.76C5256.14,1624.76 5256.64,1624.26 5256.64,1623.56ZM5315.13,1624.76C5317.43,1624.76 5334.13,1607.26 5334.13,1580.16C5334.13,1552.96 5317.43,1535.56 5315.13,1535.56C5314.43,1535.56 5313.93,1536.06 5313.93,1536.76C5313.93,1537.16 5314.03,1537.66 5314.43,1538.06C5324.23,1549.76 5328.83,1565.96 5328.83,1580.16C5328.83,1594.36 5324.23,1610.56 5314.43,1622.26C5314.03,1622.66 5313.93,1623.16 5313.93,1623.56C5313.93,1624.26 5314.43,1624.76 5315.13,1624.76ZM5265.34,1573.86C5258.34,1570.76 5256.24,1568.56 5256.24,1564.36C5256.24,1559.66 5259.84,1555.06 5267.14,1555.06C5271.83,1555.06 5274.63,1557.56 5277.03,1561.46C5277.53,1562.26 5278.03,1562.56 5278.53,1562.56C5278.83,1562.56 5279.13,1562.46 5279.33,1562.36C5275.33,1566.36 5270.73,1570.46 5265.34,1573.86Z" style="fill-rule:nonzero;"/>
        </g>
    </g>
</svg>
