<?xml version="1.0" encoding="UTF-8" standalone="no"?>
<!DOCTYPE svg PUBLIC "-//W3C//DTD SVG 1.1//EN" "http://www.w3.org/Graphics/SVG/1.1/DTD/svg11.dtd">
<svg width="100%" height="100%" viewBox="0 0 98 90" version="1.1" xmlns="http://www.w3.org/2000/svg" xmlns:xlink="http://www.w3.org/1999/xlink" xml:space="preserve" xmlns:serif="http://www.serif.com/" style="fill-rule:evenodd;clip-rule:evenodd;stroke-linejoin:round;stroke-miterlimit:2;">
    <g transform="matrix(1,0,0,1,-5437.42,-935.561)">
        <g transform="matrix(1,0,0,1,1,0)">
            <path d="M5515.11,1024.76C5517.41,1024.76 5534.11,1007.26 5534.11,980.161C5534.11,952.961 5517.41,935.561 5515.11,935.561C5514.41,935.561 5513.91,936.061 5513.91,936.761C5513.91,937.161 5514.01,937.661 5514.41,938.061C5524.21,949.761 5528.81,965.961 5528.81,980.161C5528.81,994.361 5524.21,1010.56 5514.41,1022.26C5514.01,1022.66 5513.91,1023.16 5513.91,1023.56C5513.91,1024.26 5514.41,1024.76 5515.11,1024.76ZM5456.61,1023.56C5456.61,1023.16 5456.52,1022.66 5456.11,1022.26C5446.32,1010.56 5441.72,994.361 5441.72,980.161C5441.72,965.961 5446.32,949.761 5456.11,938.061C5456.52,937.661 5456.61,937.161 5456.61,936.761C5456.61,936.061 5456.11,935.561 5455.41,935.561C5453.12,935.561 5436.42,952.961 5436.42,980.161C5436.42,1007.26 5453.12,1024.76 5455.41,1024.76C5456.11,1024.76 5456.61,1024.26 5456.61,1023.56ZM5517.21,995.361C5519.41,995.361 5522.41,995.561 5523.51,995.561C5524.11,995.561 5524.31,995.061 5524.31,994.461C5524.31,993.061 5523.11,990.761 5521.81,990.761C5520.81,990.761 5518.51,991.161 5517.11,991.261L5515.71,991.361L5515.71,974.661C5515.71,972.661 5515.91,968.761 5515.91,967.461C5515.91,966.061 5513.71,965.161 5512.21,965.161C5511.41,965.161 5510.81,965.461 5510.81,965.961C5510.81,967.861 5511.01,973.061 5511.01,974.661L5511.01,991.561L5492.01,991.961C5497.71,982.361 5505.01,969.361 5509.51,960.461C5510.21,959.161 5511.41,957.261 5512.31,955.961C5512.51,955.761 5512.51,955.461 5512.51,955.161C5512.51,953.461 5510.21,951.061 5508.91,951.061C5508.51,951.061 5508.21,951.161 5508.11,951.561C5504.91,959.661 5498.11,972.861 5489.31,987.661C5488.61,988.761 5487.51,989.961 5486.61,991.361C5486.21,991.861 5486.11,992.461 5486.11,992.961C5486.11,994.861 5488.01,996.661 5489.61,996.661C5489.81,996.661 5489.91,996.561 5490.11,996.561C5491.31,996.261 5492.51,996.061 5493.11,996.061L5511.01,995.561L5511.01,999.961C5511.01,1001.16 5510.81,1005.76 5510.81,1007.06C5510.81,1008.46 5513.11,1009.36 5514.71,1009.36C5515.51,1009.36 5516.11,1009.06 5516.11,1008.56C5516.11,1006.66 5515.81,1003.46 5515.71,1000.16L5515.71,995.361L5517.21,995.361ZM5478.21,995.361C5480.41,995.361 5483.41,995.561 5484.51,995.561C5485.11,995.561 5485.31,995.061 5485.31,994.461C5485.31,993.061 5484.11,990.761 5482.81,990.761C5481.81,990.761 5479.51,991.161 5478.11,991.261L5476.71,991.361L5476.71,974.661C5476.71,972.661 5476.91,968.761 5476.91,967.461C5476.91,966.061 5474.71,965.161 5473.21,965.161C5472.41,965.161 5471.81,965.461 5471.81,965.961C5471.81,967.861 5472.01,973.061 5472.01,974.661L5472.01,991.561L5453.02,991.961C5458.72,982.361 5466.01,969.361 5470.51,960.461C5471.21,959.161 5472.41,957.261 5473.31,955.961C5473.51,955.761 5473.51,955.461 5473.51,955.161C5473.51,953.461 5471.21,951.061 5469.91,951.061C5469.51,951.061 5469.21,951.161 5469.11,951.561C5465.91,959.661 5459.11,972.861 5450.32,987.661C5449.62,988.761 5448.52,989.961 5447.62,991.361C5447.22,991.861 5447.12,992.461 5447.12,992.961C5447.12,994.861 5449.02,996.661 5450.62,996.661C5450.82,996.661 5450.92,996.561 5451.12,996.561C5452.32,996.261 5453.52,996.061 5454.12,996.061L5472.01,995.561L5472.01,999.961C5472.01,1001.16 5471.81,1005.76 5471.81,1007.06C5471.81,1008.46 5474.11,1009.36 5475.71,1009.36C5476.51,1009.36 5477.11,1009.06 5477.11,1008.56C5477.11,1006.66 5476.81,1003.46 5476.71,1000.16L5476.71,995.361L5478.21,995.361Z" style="fill-rule:nonzero;"/>
        </g>
    </g>
</svg>
