<?xml version="1.0" encoding="UTF-8" standalone="no"?>
<!DOCTYPE svg PUBLIC "-//W3C//DTD SVG 1.1//EN" "http://www.w3.org/Graphics/SVG/1.1/DTD/svg11.dtd">
<svg width="100%" height="100%" viewBox="0 0 98 90" version="1.1" xmlns="http://www.w3.org/2000/svg" xmlns:xlink="http://www.w3.org/1999/xlink" xml:space="preserve" xmlns:serif="http://www.serif.com/" style="fill-rule:evenodd;clip-rule:evenodd;stroke-linejoin:round;stroke-miterlimit:2;">
    <g transform="matrix(1,0,0,1,-5137.45,-1235.56)">
        <g transform="matrix(1,0,0,1,1,0)">
            <path d="M5168.05,1253.46C5164.74,1258.26 5161.35,1264.26 5157.55,1271.46C5153.75,1278.96 5151.75,1285.76 5151.75,1292.56C5151.75,1301.96 5159.45,1309.66 5169.74,1309.66C5180.94,1309.66 5187.74,1301.26 5187.74,1290.36C5187.74,1280.56 5181.04,1273.36 5171.14,1273.36C5165.65,1273.36 5161.15,1275.76 5158.35,1279.66C5161.15,1273.86 5166.65,1262.76 5173.94,1254.26C5174.24,1253.86 5174.84,1253.16 5174.84,1252.56C5174.84,1251.56 5172.74,1250.76 5171.34,1250.76C5170.44,1250.76 5169.65,1251.06 5169.24,1251.76L5168.05,1253.46ZM5169.74,1305.56C5161.94,1305.56 5156.45,1299.86 5156.45,1292.46C5156.45,1284.46 5162.15,1277.46 5171.04,1277.46C5178.44,1277.46 5182.94,1283.66 5182.94,1290.56C5182.94,1299.36 5177.34,1305.56 5169.74,1305.56ZM5156.65,1323.56C5156.65,1323.16 5156.55,1322.66 5156.15,1322.26C5146.35,1310.56 5141.75,1294.36 5141.75,1280.16C5141.75,1265.96 5146.35,1249.76 5156.15,1238.06C5156.55,1237.66 5156.65,1237.16 5156.65,1236.76C5156.65,1236.06 5156.15,1235.56 5155.45,1235.56C5153.15,1235.56 5136.45,1252.96 5136.45,1280.16C5136.45,1307.26 5153.15,1324.76 5155.45,1324.76C5156.15,1324.76 5156.65,1324.26 5156.65,1323.56ZM5215.14,1324.76C5217.44,1324.76 5234.14,1307.26 5234.14,1280.16C5234.14,1252.96 5217.44,1235.56 5215.14,1235.56C5214.44,1235.56 5213.94,1236.06 5213.94,1236.76C5213.94,1237.16 5214.04,1237.66 5214.44,1238.06C5224.24,1249.76 5228.84,1265.96 5228.84,1280.16C5228.84,1294.36 5224.24,1310.56 5214.44,1322.26C5214.04,1322.66 5213.94,1323.16 5213.94,1323.56C5213.94,1324.26 5214.44,1324.76 5215.14,1324.76ZM5204.34,1300.06C5204.34,1301.76 5204.14,1305.86 5204.14,1307.16C5204.14,1308.46 5206.34,1309.36 5207.94,1309.36C5208.64,1309.36 5209.24,1309.16 5209.24,1308.56C5209.14,1306.46 5209.04,1301.76 5209.04,1299.56L5209.04,1259.26C5209.04,1256.96 5209.54,1255.56 5209.54,1254.26C5209.54,1252.76 5207.74,1251.26 5206.54,1251.26C5205.34,1251.26 5203.64,1253.56 5203.04,1254.06C5200.54,1255.96 5196.74,1258.06 5192.74,1259.66C5192.14,1259.86 5191.94,1260.16 5191.94,1260.46C5191.94,1261.36 5193.74,1262.26 5195.14,1262.26C5195.44,1262.26 5195.74,1262.26 5195.94,1262.16C5198.74,1261.36 5202.04,1260.06 5204.34,1258.66L5204.34,1300.06Z" style="fill-rule:nonzero;"/>
        </g>
    </g>
</svg>
