<?xml version="1.0" encoding="UTF-8" standalone="no"?>
<!DOCTYPE svg PUBLIC "-//W3C//DTD SVG 1.1//EN" "http://www.w3.org/Graphics/SVG/1.1/DTD/svg11.dtd">
<svg width="100%" height="100%" viewBox="0 0 98 90" version="1.1" xmlns="http://www.w3.org/2000/svg" xmlns:xlink="http://www.w3.org/1999/xlink" xml:space="preserve" xmlns:serif="http://www.serif.com/" style="fill-rule:evenodd;clip-rule:evenodd;stroke-linejoin:round;stroke-miterlimit:2;">
    <g transform="matrix(1,0,0,1,-5737.39,-935.561)">
        <g transform="matrix(1,0,0,1,1,0)">
            <path d="M5815.08,1024.76C5817.38,1024.76 5834.08,1007.26 5834.08,980.161C5834.08,952.961 5817.38,935.561 5815.08,935.561C5814.38,935.561 5813.88,936.061 5813.88,936.761C5813.88,937.161 5813.98,937.661 5814.38,938.061C5824.18,949.761 5828.78,965.961 5828.78,980.161C5828.78,994.361 5824.18,1010.56 5814.38,1022.26C5813.98,1022.66 5813.88,1023.16 5813.88,1023.56C5813.88,1024.26 5814.38,1024.76 5815.08,1024.76ZM5756.59,1023.56C5756.59,1023.16 5756.48,1022.66 5756.09,1022.26C5746.29,1010.56 5741.69,994.361 5741.69,980.161C5741.69,965.961 5746.29,949.761 5756.09,938.061C5756.48,937.661 5756.59,937.161 5756.59,936.761C5756.59,936.061 5756.09,935.561 5755.39,935.561C5753.09,935.561 5736.39,952.961 5736.39,980.161C5736.39,1007.26 5753.09,1024.76 5755.39,1024.76C5756.09,1024.76 5756.59,1024.26 5756.59,1023.56ZM5778.18,995.361C5780.38,995.361 5783.38,995.561 5784.48,995.561C5785.08,995.561 5785.28,995.061 5785.28,994.461C5785.28,993.061 5784.08,990.761 5782.78,990.761C5781.78,990.761 5779.48,991.161 5778.08,991.261L5776.68,991.361L5776.68,974.661C5776.68,972.661 5776.88,968.761 5776.88,967.461C5776.88,966.061 5774.68,965.161 5773.18,965.161C5772.38,965.161 5771.78,965.461 5771.78,965.961C5771.78,967.861 5771.98,973.061 5771.98,974.661L5771.98,991.561L5752.98,991.961C5758.68,982.361 5765.98,969.361 5770.48,960.461C5771.18,959.161 5772.38,957.261 5773.28,955.961C5773.48,955.761 5773.48,955.461 5773.48,955.161C5773.48,953.461 5771.18,951.061 5769.88,951.061C5769.48,951.061 5769.18,951.161 5769.08,951.561C5765.88,959.661 5759.08,972.861 5750.28,987.661C5749.59,988.761 5748.49,989.961 5747.59,991.361C5747.19,991.861 5747.09,992.461 5747.09,992.961C5747.09,994.861 5748.98,996.661 5750.59,996.661C5750.78,996.661 5750.89,996.561 5751.09,996.561C5752.28,996.261 5753.48,996.061 5754.09,996.061L5771.98,995.561L5771.98,999.961C5771.98,1001.16 5771.78,1005.76 5771.78,1007.06C5771.78,1008.46 5774.08,1009.36 5775.68,1009.36C5776.48,1009.36 5777.08,1009.06 5777.08,1008.56C5777.08,1006.66 5776.78,1003.46 5776.68,1000.16L5776.68,995.361L5778.18,995.361ZM5818.58,955.061C5818.58,953.661 5816.58,951.861 5815.38,951.661L5815.18,951.661C5814.18,951.661 5813.08,952.161 5811.88,952.261L5790.38,953.761L5789.28,953.761C5787.98,953.761 5787.18,953.661 5786.28,953.661C5785.98,953.661 5785.88,953.861 5785.88,954.161C5785.88,954.761 5786.88,958.261 5789.78,958.261C5790.48,958.261 5791.28,958.061 5792.08,958.061L5812.78,956.261C5804.28,975.461 5802.68,980.061 5793.78,1005.56C5793.68,1006.06 5793.28,1006.76 5793.28,1007.46C5793.28,1008.16 5793.68,1008.86 5795.28,1009.06C5795.68,1009.06 5796.08,1009.16 5796.38,1009.16C5797.68,1009.16 5798.38,1008.86 5798.58,1007.96C5799.18,1005.06 5799.78,1002.76 5800.38,1001.06C5804.68,987.661 5810.68,972.261 5816.68,959.161C5817.18,958.161 5818.38,956.661 5818.58,955.361L5818.58,955.061Z" style="fill-rule:nonzero;"/>
        </g>
    </g>
</svg>
