<?xml version="1.0" encoding="UTF-8" standalone="no"?>
<!DOCTYPE svg PUBLIC "-//W3C//DTD SVG 1.1//EN" "http://www.w3.org/Graphics/SVG/1.1/DTD/svg11.dtd">
<svg width="100%" height="100%" viewBox="0 0 98 90" version="1.1" xmlns="http://www.w3.org/2000/svg" xmlns:xlink="http://www.w3.org/1999/xlink" xml:space="preserve" xmlns:serif="http://www.serif.com/" style="fill-rule:evenodd;clip-rule:evenodd;stroke-linejoin:round;stroke-miterlimit:2;">
    <g transform="matrix(1,0,0,1,-5137.45,-1085.56)">
        <g transform="matrix(1,0,0,1,1,0)">
            <path d="M5183.34,1106.36C5183.94,1106.36 5184.24,1105.86 5184.24,1105.26C5184.24,1103.96 5183.04,1101.86 5181.94,1101.86L5181.74,1101.86C5180.34,1102.16 5178.04,1102.36 5176.54,1102.36L5161.35,1103.26C5160.25,1102.76 5159.05,1102.36 5158.25,1102.36C5157.55,1102.36 5157.15,1102.56 5157.15,1103.26C5157.15,1104.26 5157.15,1105.66 5156.95,1106.76L5154.95,1126.46C5154.65,1127.46 5154.15,1129.86 5154.15,1130.16C5154.15,1132.16 5156.15,1133.66 5157.45,1133.66C5158.05,1133.66 5158.75,1132.96 5160.35,1131.36C5163.05,1128.76 5166.55,1126.96 5170.74,1126.96C5178.04,1126.96 5182.74,1131.96 5182.74,1140.26C5182.74,1148.06 5178.54,1155.26 5167.94,1155.26C5161.94,1155.26 5158.15,1151.46 5155.25,1147.16C5155.05,1146.76 5154.75,1146.56 5154.45,1146.56C5153.35,1146.56 5152.05,1148.76 5152.05,1150.56C5152.05,1153.26 5159.85,1159.66 5167.94,1159.66C5181.84,1159.66 5187.44,1150.46 5187.44,1140.16C5187.44,1129.16 5180.14,1122.76 5171.54,1122.76C5166.15,1122.76 5162.44,1124.46 5159.15,1127.26L5161.24,1107.66L5177.14,1106.66L5183.34,1106.36ZM5156.65,1173.56C5156.65,1173.16 5156.55,1172.66 5156.15,1172.26C5146.35,1160.56 5141.75,1144.36 5141.75,1130.16C5141.75,1115.96 5146.35,1099.76 5156.15,1088.06C5156.55,1087.66 5156.65,1087.16 5156.65,1086.76C5156.65,1086.06 5156.15,1085.56 5155.45,1085.56C5153.15,1085.56 5136.45,1102.96 5136.45,1130.16C5136.45,1157.26 5153.15,1174.76 5155.45,1174.76C5156.15,1174.76 5156.65,1174.26 5156.65,1173.56ZM5215.14,1174.76C5217.44,1174.76 5234.14,1157.26 5234.14,1130.16C5234.14,1102.96 5217.44,1085.56 5215.14,1085.56C5214.44,1085.56 5213.94,1086.06 5213.94,1086.76C5213.94,1087.16 5214.04,1087.66 5214.44,1088.06C5224.24,1099.76 5228.84,1115.96 5228.84,1130.16C5228.84,1144.36 5224.24,1160.56 5214.44,1172.26C5214.04,1172.66 5213.94,1173.16 5213.94,1173.56C5213.94,1174.26 5214.44,1174.76 5215.14,1174.76ZM5204.24,1150.06C5204.24,1151.76 5204.04,1155.86 5204.04,1157.16C5204.04,1158.46 5206.24,1159.36 5207.84,1159.36C5208.54,1159.36 5209.14,1159.16 5209.14,1158.56C5209.04,1156.46 5208.94,1151.76 5208.94,1149.56L5208.94,1109.26C5208.94,1106.96 5209.44,1105.56 5209.44,1104.26C5209.44,1102.76 5207.64,1101.26 5206.44,1101.26C5205.24,1101.26 5203.54,1103.56 5202.94,1104.06C5200.44,1105.96 5196.64,1108.06 5192.64,1109.66C5192.04,1109.86 5191.84,1110.16 5191.84,1110.46C5191.84,1111.36 5193.64,1112.26 5195.04,1112.26C5195.34,1112.26 5195.64,1112.26 5195.84,1112.16C5198.64,1111.36 5201.94,1110.06 5204.24,1108.66L5204.24,1150.06Z" style="fill-rule:nonzero;"/>
        </g>
    </g>
</svg>
