<?xml version="1.0" encoding="UTF-8" standalone="no"?>
<!DOCTYPE svg PUBLIC "-//W3C//DTD SVG 1.1//EN" "http://www.w3.org/Graphics/SVG/1.1/DTD/svg11.dtd">
<svg width="100%" height="100%" viewBox="0 0 98 90" version="1.1" xmlns="http://www.w3.org/2000/svg" xmlns:xlink="http://www.w3.org/1999/xlink" xml:space="preserve" xmlns:serif="http://www.serif.com/" style="fill-rule:evenodd;clip-rule:evenodd;stroke-linejoin:round;stroke-miterlimit:2;">
    <g transform="matrix(1,0,0,1,-5337.43,-185.561)">
        <g transform="matrix(1,0,0,1,1,0)">
            <path d="M5415.12,274.761C5417.42,274.761 5434.12,257.261 5434.12,230.161C5434.12,202.961 5417.42,185.561 5415.12,185.561C5414.42,185.561 5413.92,186.061 5413.92,186.761C5413.92,187.161 5414.02,187.661 5414.42,188.061C5424.22,199.761 5428.82,215.961 5428.82,230.161C5428.82,244.361 5424.22,260.561 5414.42,272.261C5414.02,272.661 5413.92,273.161 5413.92,273.561C5413.92,274.261 5414.42,274.761 5415.12,274.761ZM5389.92,259.061C5394.12,258.061 5400.22,258.061 5401.92,258.061C5411.82,258.061 5418.62,258.661 5418.62,258.661C5419.22,258.661 5419.52,258.261 5419.52,257.561C5419.52,256.161 5418.32,253.961 5417.12,253.961C5416.12,253.961 5413.52,254.061 5412.22,254.061C5409.02,254.061 5406.52,253.961 5402.72,253.961C5399.72,253.961 5395.32,254.161 5392.42,254.461C5395.12,249.061 5399.82,240.961 5406.62,234.561C5413.82,227.761 5418.92,222.061 5418.92,214.661C5418.92,206.861 5413.52,201.261 5405.02,201.261C5397.12,201.261 5391.72,205.361 5388.62,211.261C5388.32,211.661 5388.22,212.161 5388.22,212.661C5388.22,213.561 5388.72,214.461 5389.92,215.461C5390.32,215.861 5390.62,215.961 5391.02,215.961C5391.82,215.961 5392.42,215.161 5392.82,214.061C5394.52,209.261 5398.72,205.461 5404.82,205.461C5410.72,205.461 5414.12,209.661 5414.12,214.661C5414.12,219.961 5410.12,224.961 5403.72,231.161C5397.22,237.461 5391.82,246.161 5388.82,251.961C5388.42,252.761 5387.92,253.461 5387.22,254.361C5387.02,254.661 5386.92,255.061 5386.92,255.561C5386.92,257.161 5388.22,259.061 5389.62,259.061L5389.92,259.061ZM5356.63,273.561C5356.63,273.161 5356.53,272.661 5356.13,272.261C5346.33,260.561 5341.73,244.361 5341.73,230.161C5341.73,215.961 5346.33,199.761 5356.13,188.061C5356.53,187.661 5356.63,187.161 5356.63,186.761C5356.63,186.061 5356.13,185.561 5355.43,185.561C5353.13,185.561 5336.43,202.961 5336.43,230.161C5336.43,257.261 5353.13,274.761 5355.43,274.761C5356.13,274.761 5356.63,274.261 5356.63,273.561ZM5357.62,206.361C5357.43,206.061 5357.03,205.761 5356.53,205.761C5354.23,205.761 5349.23,217.461 5349.23,231.661C5349.23,248.161 5354.43,260.261 5365.23,260.261C5376.52,260.261 5382.02,246.161 5382.02,229.561C5382.02,213.261 5376.72,201.361 5367.02,201.361C5363.23,201.361 5360.03,203.361 5357.62,206.361ZM5364.93,255.961C5356.53,255.961 5353.73,244.761 5353.73,231.561C5353.73,214.161 5361.12,205.461 5366.72,205.461C5374.72,205.461 5377.52,217.761 5377.52,228.961C5377.52,242.661 5374.02,255.961 5364.93,255.961Z" style="fill-rule:nonzero;"/>
        </g>
    </g>
</svg>
