<?xml version="1.0" encoding="UTF-8" standalone="no"?>
<!DOCTYPE svg PUBLIC "-//W3C//DTD SVG 1.1//EN" "http://www.w3.org/Graphics/SVG/1.1/DTD/svg11.dtd">
<svg width="100%" height="100%" viewBox="0 0 98 90" version="1.1" xmlns="http://www.w3.org/2000/svg" xmlns:xlink="http://www.w3.org/1999/xlink" xml:space="preserve" xmlns:serif="http://www.serif.com/" style="fill-rule:evenodd;clip-rule:evenodd;stroke-linejoin:round;stroke-miterlimit:2;">
    <g transform="matrix(1,0,0,1,-5437.42,-185.561)">
        <g transform="matrix(1,0,0,1,1,0)">
            <path d="M5515.11,274.761C5517.41,274.761 5534.11,257.261 5534.11,230.161C5534.11,202.961 5517.41,185.561 5515.11,185.561C5514.41,185.561 5513.91,186.061 5513.91,186.761C5513.91,187.161 5514.01,187.661 5514.41,188.061C5524.21,199.761 5528.81,215.961 5528.81,230.161C5528.81,244.361 5524.21,260.561 5514.41,272.261C5514.01,272.661 5513.91,273.161 5513.91,273.561C5513.91,274.261 5514.41,274.761 5515.11,274.761ZM5456.61,273.561C5456.61,273.161 5456.52,272.661 5456.11,272.261C5446.32,260.561 5441.72,244.361 5441.72,230.161C5441.72,215.961 5446.32,199.761 5456.11,188.061C5456.52,187.661 5456.61,187.161 5456.61,186.761C5456.61,186.061 5456.11,185.561 5455.41,185.561C5453.12,185.561 5436.42,202.961 5436.42,230.161C5436.42,257.261 5453.12,274.761 5455.41,274.761C5456.11,274.761 5456.61,274.261 5456.61,273.561ZM5507.21,227.261C5514.11,225.461 5519.31,220.461 5519.31,213.661C5519.31,205.861 5513.51,201.261 5504.81,201.261C5494.61,201.261 5487.81,207.961 5487.81,210.061C5487.81,211.861 5489.41,213.461 5490.21,213.461C5491.01,213.461 5491.61,212.461 5491.91,212.161C5495.91,207.561 5500.01,205.461 5504.91,205.461C5511.01,205.461 5514.61,208.761 5514.61,214.161C5514.61,221.661 5504.31,225.961 5496.61,226.461C5496.01,226.561 5495.71,227.061 5495.71,227.661C5495.71,228.961 5496.81,230.861 5498.21,230.861C5498.41,230.861 5498.51,230.761 5498.71,230.761C5498.81,230.761 5501.91,230.061 5504.81,230.061C5511.91,230.061 5517.01,234.661 5517.01,241.261C5517.01,248.661 5512.71,255.761 5501.81,255.761C5496.21,255.761 5492.71,252.961 5489.31,248.761C5489.01,248.461 5488.81,248.261 5488.51,248.261C5487.31,248.261 5486.21,250.361 5486.21,251.961C5486.21,252.661 5486.31,253.161 5486.71,253.561C5491.01,257.761 5495.81,260.061 5501.81,260.061C5516.01,260.061 5521.81,251.361 5521.81,241.161C5521.81,232.561 5515.41,227.261 5508.21,227.261L5507.21,227.261ZM5457.61,206.361C5457.41,206.061 5457.02,205.761 5456.52,205.761C5454.22,205.761 5449.22,217.461 5449.22,231.661C5449.22,248.161 5454.42,260.261 5465.21,260.261C5476.51,260.261 5482.01,246.161 5482.01,229.561C5482.01,213.261 5476.71,201.361 5467.01,201.361C5463.22,201.361 5460.02,203.361 5457.61,206.361ZM5464.91,255.961C5456.52,255.961 5453.72,244.761 5453.72,231.561C5453.72,214.161 5461.11,205.461 5466.71,205.461C5474.71,205.461 5477.51,217.761 5477.51,228.961C5477.51,242.661 5474.01,255.961 5464.91,255.961Z" style="fill-rule:nonzero;"/>
        </g>
    </g>
</svg>
