<?xml version="1.0" encoding="UTF-8" standalone="no"?>
<!DOCTYPE svg PUBLIC "-//W3C//DTD SVG 1.1//EN" "http://www.w3.org/Graphics/SVG/1.1/DTD/svg11.dtd">
<svg width="100%" height="100%" viewBox="0 0 98 90" version="1.1" xmlns="http://www.w3.org/2000/svg" xmlns:xlink="http://www.w3.org/1999/xlink" xml:space="preserve" xmlns:serif="http://www.serif.com/" style="fill-rule:evenodd;clip-rule:evenodd;stroke-linejoin:round;stroke-miterlimit:2;">
    <g transform="matrix(1,0,0,1,-5737.39,-185.561)">
        <g transform="matrix(1,0,0,1,1,0)">
            <path d="M5757.59,206.361C5757.39,206.061 5756.98,205.761 5756.48,205.761C5754.19,205.761 5749.19,217.461 5749.19,231.661C5749.19,248.161 5754.39,260.261 5765.18,260.261C5776.48,260.261 5781.98,246.161 5781.98,229.561C5781.98,213.261 5776.68,201.361 5766.98,201.361C5763.18,201.361 5759.98,203.361 5757.59,206.361ZM5802.68,203.861C5799.38,208.661 5795.98,214.661 5792.18,221.861C5788.38,229.361 5786.38,236.161 5786.38,242.961C5786.38,252.361 5794.08,260.061 5804.38,260.061C5815.58,260.061 5822.38,251.661 5822.38,240.761C5822.38,230.961 5815.68,223.761 5805.78,223.761C5800.28,223.761 5795.78,226.161 5792.98,230.061C5795.78,224.261 5801.28,213.161 5808.58,204.661C5808.88,204.261 5809.48,203.561 5809.48,202.961C5809.48,201.961 5807.38,201.161 5805.98,201.161C5805.08,201.161 5804.28,201.461 5803.88,202.161L5802.68,203.861ZM5764.88,255.961C5756.48,255.961 5753.69,244.761 5753.69,231.561C5753.69,214.161 5761.08,205.461 5766.68,205.461C5774.68,205.461 5777.48,217.761 5777.48,228.961C5777.48,242.661 5773.98,255.961 5764.88,255.961ZM5804.38,255.961C5796.58,255.961 5791.08,250.261 5791.08,242.861C5791.08,234.861 5796.78,227.861 5805.68,227.861C5813.08,227.861 5817.58,234.061 5817.58,240.961C5817.58,249.761 5811.98,255.961 5804.38,255.961ZM5756.59,273.561C5756.59,273.161 5756.48,272.661 5756.09,272.261C5746.29,260.561 5741.69,244.361 5741.69,230.161C5741.69,215.961 5746.29,199.761 5756.09,188.061C5756.48,187.661 5756.59,187.161 5756.59,186.761C5756.59,186.061 5756.09,185.561 5755.39,185.561C5753.09,185.561 5736.39,202.961 5736.39,230.161C5736.39,257.261 5753.09,274.761 5755.39,274.761C5756.09,274.761 5756.59,274.261 5756.59,273.561ZM5815.08,274.761C5817.38,274.761 5834.08,257.261 5834.08,230.161C5834.08,202.961 5817.38,185.561 5815.08,185.561C5814.38,185.561 5813.88,186.061 5813.88,186.761C5813.88,187.161 5813.98,187.661 5814.38,188.061C5824.18,199.761 5828.78,215.961 5828.78,230.161C5828.78,244.361 5824.18,260.561 5814.38,272.261C5813.98,272.661 5813.88,273.161 5813.88,273.561C5813.88,274.261 5814.38,274.761 5815.08,274.761Z" style="fill-rule:nonzero;"/>
        </g>
    </g>
</svg>
