<?xml version="1.0" encoding="UTF-8" standalone="no"?>
<!DOCTYPE svg PUBLIC "-//W3C//DTD SVG 1.1//EN" "http://www.w3.org/Graphics/SVG/1.1/DTD/svg11.dtd">
<svg width="100%" height="100%" viewBox="0 0 98 90" version="1.1" xmlns="http://www.w3.org/2000/svg" xmlns:xlink="http://www.w3.org/1999/xlink" xml:space="preserve" xmlns:serif="http://www.serif.com/" style="fill-rule:evenodd;clip-rule:evenodd;stroke-linejoin:round;stroke-miterlimit:2;">
    <g transform="matrix(1,0,0,1,-5237.44,-1685.56)">
        <g transform="matrix(1,0,0,1,1,0)">
            <path d="M5273.03,1759.26C5275.03,1759.16 5276.23,1758.66 5276.33,1757.56C5277.03,1748.96 5281.63,1724.96 5285.33,1709.16C5285.43,1708.66 5286.03,1707.26 5286.33,1706.16L5286.33,1705.86C5286.33,1704.66 5284.73,1703.16 5282.93,1703.16C5281.23,1703.16 5281.63,1705.66 5281.03,1707.86C5279.93,1705.56 5276.13,1700.86 5268.23,1700.86C5257.04,1700.86 5248.54,1711.66 5248.54,1722.56C5248.54,1731.76 5253.74,1737.06 5261.34,1737.06C5267.23,1737.06 5273.43,1733.36 5276.93,1727.66L5271.43,1755.96C5271.33,1756.66 5271.03,1757.36 5271.03,1757.96C5271.03,1758.76 5271.43,1759.26 5272.83,1759.26L5273.03,1759.26ZM5279.43,1715.36C5276.13,1725.36 5269.63,1732.66 5261.23,1732.66C5255.94,1732.66 5253.24,1729.16 5253.24,1722.26C5253.24,1714.86 5258.84,1705.06 5268.63,1705.06C5274.43,1705.06 5276.83,1708.96 5277.93,1711.16C5278.23,1711.86 5278.63,1712.16 5279.13,1712.16C5279.53,1712.16 5279.93,1711.86 5280.33,1711.46L5279.43,1715.36ZM5289.93,1758.66C5294.13,1757.66 5300.23,1757.66 5301.93,1757.66C5311.83,1757.66 5318.63,1758.26 5318.63,1758.26C5319.23,1758.26 5319.53,1757.86 5319.53,1757.16C5319.53,1755.76 5318.33,1753.56 5317.13,1753.56C5316.13,1753.56 5313.53,1753.66 5312.23,1753.66C5309.03,1753.66 5306.53,1753.56 5302.73,1753.56C5299.73,1753.56 5295.33,1753.76 5292.43,1754.06C5295.13,1748.66 5299.83,1740.56 5306.63,1734.16C5313.83,1727.36 5318.93,1721.66 5318.93,1714.26C5318.93,1706.46 5313.53,1700.86 5305.03,1700.86C5297.13,1700.86 5291.73,1704.96 5288.63,1710.86C5288.33,1711.26 5288.23,1711.76 5288.23,1712.26C5288.23,1713.16 5288.73,1714.06 5289.93,1715.06C5290.33,1715.46 5290.63,1715.56 5291.03,1715.56C5291.83,1715.56 5292.43,1714.76 5292.83,1713.66C5294.53,1708.86 5298.73,1705.06 5304.83,1705.06C5310.73,1705.06 5314.13,1709.26 5314.13,1714.26C5314.13,1719.56 5310.13,1724.56 5303.73,1730.76C5297.23,1737.06 5291.83,1745.76 5288.83,1751.56C5288.43,1752.36 5287.93,1753.06 5287.23,1753.96C5287.03,1754.26 5286.93,1754.66 5286.93,1755.16C5286.93,1756.76 5288.23,1758.66 5289.63,1758.66L5289.93,1758.66ZM5256.64,1773.56C5256.64,1773.16 5256.54,1772.66 5256.14,1772.26C5246.34,1760.56 5241.74,1744.36 5241.74,1730.16C5241.74,1715.96 5246.34,1699.76 5256.14,1688.06C5256.54,1687.66 5256.64,1687.16 5256.64,1686.76C5256.64,1686.06 5256.14,1685.56 5255.44,1685.56C5253.14,1685.56 5236.44,1702.96 5236.44,1730.16C5236.44,1757.26 5253.14,1774.76 5255.44,1774.76C5256.14,1774.76 5256.64,1774.26 5256.64,1773.56ZM5315.13,1774.76C5317.43,1774.76 5334.13,1757.26 5334.13,1730.16C5334.13,1702.96 5317.43,1685.56 5315.13,1685.56C5314.43,1685.56 5313.93,1686.06 5313.93,1686.76C5313.93,1687.16 5314.03,1687.66 5314.43,1688.06C5324.23,1699.76 5328.83,1715.96 5328.83,1730.16C5328.83,1744.36 5324.23,1760.56 5314.43,1772.26C5314.03,1772.66 5313.93,1773.16 5313.93,1773.56C5313.93,1774.26 5314.43,1774.76 5315.13,1774.76Z" style="fill-rule:nonzero;"/>
        </g>
    </g>
</svg>
