<?xml version="1.0" encoding="UTF-8" standalone="no"?>
<!DOCTYPE svg PUBLIC "-//W3C//DTD SVG 1.1//EN" "http://www.w3.org/Graphics/SVG/1.1/DTD/svg11.dtd">
<svg width="100%" height="100%" viewBox="0 0 98 90" version="1.1" xmlns="http://www.w3.org/2000/svg" xmlns:xlink="http://www.w3.org/1999/xlink" xml:space="preserve" xmlns:serif="http://www.serif.com/" style="fill-rule:evenodd;clip-rule:evenodd;stroke-linejoin:round;stroke-miterlimit:2;">
    <g transform="matrix(1,0,0,1,-5837.38,-785.561)">
        <g transform="matrix(1,0,0,1,1,0)">
            <path d="M5906.67,825.861C5914.47,820.461 5921.37,813.461 5921.37,811.361C5921.37,810.461 5920.77,809.861 5919.97,809.861C5919.37,809.861 5918.77,810.061 5918.07,810.761L5917.67,811.161C5917.97,810.661 5918.17,810.061 5918.17,809.661C5918.17,809.361 5918.07,809.061 5917.97,808.861C5914.87,804.561 5910.37,800.961 5904.07,800.961C5894.27,800.961 5888.57,807.261 5888.57,814.361C5888.57,819.661 5890.67,823.061 5898.07,826.661C5890.57,831.661 5886.07,837.161 5886.07,844.461C5886.07,853.061 5892.27,859.661 5902.67,859.661C5914.17,859.661 5921.77,853.261 5921.77,843.361C5921.77,835.561 5917.27,830.461 5907.67,826.261L5906.67,825.861ZM5869.97,826.861C5876.87,825.061 5882.07,820.061 5882.07,813.261C5882.07,805.461 5876.27,800.861 5867.57,800.861C5857.37,800.861 5850.57,807.561 5850.57,809.661C5850.57,811.461 5852.18,813.061 5852.98,813.061C5853.78,813.061 5854.38,812.061 5854.68,811.761C5858.67,807.161 5862.77,805.061 5867.67,805.061C5873.77,805.061 5877.37,808.361 5877.37,813.761C5877.37,821.261 5867.07,825.561 5859.37,826.061C5858.77,826.161 5858.47,826.661 5858.47,827.261C5858.47,828.561 5859.57,830.461 5860.97,830.461C5861.17,830.461 5861.27,830.361 5861.47,830.361C5861.57,830.361 5864.67,829.661 5867.57,829.661C5874.67,829.661 5879.77,834.261 5879.77,840.861C5879.77,848.261 5875.47,855.361 5864.57,855.361C5858.97,855.361 5855.48,852.561 5852.07,848.361C5851.78,848.061 5851.57,847.861 5851.28,847.861C5850.07,847.861 5848.98,849.961 5848.98,851.561C5848.98,852.261 5849.07,852.761 5849.48,853.161C5853.78,857.361 5858.57,859.661 5864.57,859.661C5878.77,859.661 5884.57,850.961 5884.57,840.761C5884.57,832.161 5878.17,826.861 5870.97,826.861L5869.97,826.861ZM5902.47,828.661C5911.27,832.161 5917.07,835.761 5917.07,843.761C5917.07,850.661 5910.97,855.361 5902.67,855.361C5894.37,855.361 5890.77,849.761 5890.77,844.261C5890.77,838.461 5895.07,833.761 5902.47,828.661ZM5856.57,873.561C5856.57,873.161 5856.48,872.661 5856.07,872.261C5846.28,860.561 5841.68,844.361 5841.68,830.161C5841.68,815.961 5846.28,799.761 5856.07,788.061C5856.48,787.661 5856.57,787.161 5856.57,786.761C5856.57,786.061 5856.07,785.561 5855.38,785.561C5853.07,785.561 5836.38,802.961 5836.38,830.161C5836.38,857.261 5853.07,874.761 5855.38,874.761C5856.07,874.761 5856.57,874.261 5856.57,873.561ZM5915.07,874.761C5917.37,874.761 5934.07,857.261 5934.07,830.161C5934.07,802.961 5917.37,785.561 5915.07,785.561C5914.37,785.561 5913.87,786.061 5913.87,786.761C5913.87,787.161 5913.97,787.661 5914.37,788.061C5924.17,799.761 5928.77,815.961 5928.77,830.161C5928.77,844.361 5924.17,860.561 5914.37,872.261C5913.97,872.661 5913.87,873.161 5913.87,873.561C5913.87,874.261 5914.37,874.761 5915.07,874.761ZM5902.37,823.861C5895.37,820.761 5893.27,818.561 5893.27,814.361C5893.27,809.661 5896.87,805.061 5904.17,805.061C5908.87,805.061 5911.67,807.561 5914.07,811.461C5914.57,812.261 5915.07,812.561 5915.57,812.561C5915.87,812.561 5916.17,812.461 5916.37,812.361C5912.37,816.361 5907.77,820.461 5902.37,823.861Z" style="fill-rule:nonzero;"/>
        </g>
    </g>
</svg>
