<?xml version="1.0" encoding="UTF-8" standalone="no"?>
<!DOCTYPE svg PUBLIC "-//W3C//DTD SVG 1.1//EN" "http://www.w3.org/Graphics/SVG/1.1/DTD/svg11.dtd">
<svg width="100%" height="100%" viewBox="0 0 98 90" version="1.1" xmlns="http://www.w3.org/2000/svg" xmlns:xlink="http://www.w3.org/1999/xlink" xml:space="preserve" xmlns:serif="http://www.serif.com/" style="fill-rule:evenodd;clip-rule:evenodd;stroke-linejoin:round;stroke-miterlimit:2;">
    <g transform="matrix(1,0,0,1,-5137.45,-1535.56)">
        <g transform="matrix(1,0,0,1,1,0)">
            <path d="M5172.54,1575.86C5180.34,1570.46 5187.24,1563.46 5187.24,1561.36C5187.24,1560.46 5186.64,1559.86 5185.84,1559.86C5185.24,1559.86 5184.64,1560.06 5183.94,1560.76L5183.54,1561.16C5183.84,1560.66 5184.04,1560.06 5184.04,1559.66C5184.04,1559.36 5183.94,1559.06 5183.84,1558.86C5180.74,1554.56 5176.24,1550.96 5169.94,1550.96C5160.15,1550.96 5154.45,1557.26 5154.45,1564.36C5154.45,1569.66 5156.55,1573.06 5163.94,1576.66C5156.45,1581.66 5151.95,1587.16 5151.95,1594.46C5151.95,1603.06 5158.15,1609.66 5168.55,1609.66C5180.04,1609.66 5187.64,1603.26 5187.64,1593.36C5187.64,1585.56 5183.14,1580.46 5173.54,1576.26L5172.54,1575.86ZM5168.35,1578.66C5177.14,1582.16 5182.94,1585.76 5182.94,1593.76C5182.94,1600.66 5176.84,1605.36 5168.55,1605.36C5160.25,1605.36 5156.65,1599.76 5156.65,1594.26C5156.65,1588.46 5160.94,1583.76 5168.35,1578.66ZM5156.65,1623.56C5156.65,1623.16 5156.55,1622.66 5156.15,1622.26C5146.35,1610.56 5141.75,1594.36 5141.75,1580.16C5141.75,1565.96 5146.35,1549.76 5156.15,1538.06C5156.55,1537.66 5156.65,1537.16 5156.65,1536.76C5156.65,1536.06 5156.15,1535.56 5155.45,1535.56C5153.15,1535.56 5136.45,1552.96 5136.45,1580.16C5136.45,1607.26 5153.15,1624.76 5155.45,1624.76C5156.15,1624.76 5156.65,1624.26 5156.65,1623.56ZM5215.14,1624.76C5217.44,1624.76 5234.14,1607.26 5234.14,1580.16C5234.14,1552.96 5217.44,1535.56 5215.14,1535.56C5214.44,1535.56 5213.94,1536.06 5213.94,1536.76C5213.94,1537.16 5214.04,1537.66 5214.44,1538.06C5224.24,1549.76 5228.84,1565.96 5228.84,1580.16C5228.84,1594.36 5224.24,1610.56 5214.44,1622.26C5214.04,1622.66 5213.94,1623.16 5213.94,1623.56C5213.94,1624.26 5214.44,1624.76 5215.14,1624.76ZM5204.44,1600.06C5204.44,1601.76 5204.24,1605.86 5204.24,1607.16C5204.24,1608.46 5206.44,1609.36 5208.04,1609.36C5208.74,1609.36 5209.34,1609.16 5209.34,1608.56C5209.24,1606.46 5209.14,1601.76 5209.14,1599.56L5209.14,1559.26C5209.14,1556.96 5209.64,1555.56 5209.64,1554.26C5209.64,1552.76 5207.84,1551.26 5206.64,1551.26C5205.44,1551.26 5203.74,1553.56 5203.14,1554.06C5200.64,1555.96 5196.84,1558.06 5192.84,1559.66C5192.24,1559.86 5192.04,1560.16 5192.04,1560.46C5192.04,1561.36 5193.84,1562.26 5195.24,1562.26C5195.54,1562.26 5195.84,1562.26 5196.04,1562.16C5198.84,1561.36 5202.14,1560.06 5204.44,1558.66L5204.44,1600.06ZM5168.24,1573.86C5161.24,1570.76 5159.15,1568.56 5159.15,1564.36C5159.15,1559.66 5162.74,1555.06 5170.05,1555.06C5174.74,1555.06 5177.54,1557.56 5179.94,1561.46C5180.44,1562.26 5180.94,1562.56 5181.44,1562.56C5181.74,1562.56 5182.04,1562.46 5182.24,1562.36C5178.24,1566.36 5173.64,1570.46 5168.24,1573.86Z" style="fill-rule:nonzero;"/>
        </g>
    </g>
</svg>
