<?xml version="1.0" encoding="UTF-8" standalone="no"?>
<!DOCTYPE svg PUBLIC "-//W3C//DTD SVG 1.1//EN" "http://www.w3.org/Graphics/SVG/1.1/DTD/svg11.dtd">
<svg width="100%" height="100%" viewBox="0 0 98 90" version="1.1" xmlns="http://www.w3.org/2000/svg" xmlns:xlink="http://www.w3.org/1999/xlink" xml:space="preserve" xmlns:serif="http://www.serif.com/" style="fill-rule:evenodd;clip-rule:evenodd;stroke-linejoin:round;stroke-miterlimit:2;">
    <g transform="matrix(1,0,0,1,-5837.38,-335.561)">
        <g transform="matrix(1,0,0,1,1,0)">
            <path d="M5887.57,375.561C5892.47,372.661 5906.07,364.261 5906.07,361.361C5906.07,360.461 5905.37,359.861 5904.47,359.861C5903.97,359.861 5903.47,360.061 5902.87,360.561C5902.87,360.561 5902.47,360.961 5902.17,361.061C5902.47,360.661 5902.57,360.161 5902.57,359.761C5902.57,357.261 5895.57,350.861 5885.07,350.861C5873.97,350.861 5867.77,356.461 5867.77,363.861C5867.77,370.661 5872.27,373.961 5878.07,376.461C5869.97,381.161 5864.77,387.061 5864.77,394.361C5864.77,403.461 5872.27,409.661 5884.47,409.661C5898.57,409.661 5906.97,403.761 5906.97,393.361C5906.97,382.361 5896.87,378.661 5887.57,375.561ZM5882.77,378.261C5892.07,381.661 5902.17,384.461 5902.17,393.661C5902.17,401.161 5894.67,405.361 5884.47,405.361C5874.77,405.361 5869.47,400.061 5869.47,394.161C5869.47,388.561 5874.27,383.261 5882.77,378.261ZM5856.57,423.561C5856.57,423.161 5856.48,422.661 5856.07,422.261C5846.28,410.561 5841.68,394.361 5841.68,380.161C5841.68,365.961 5846.28,349.761 5856.07,338.061C5856.48,337.661 5856.57,337.161 5856.57,336.761C5856.57,336.061 5856.07,335.561 5855.38,335.561C5853.07,335.561 5836.38,352.961 5836.38,380.161C5836.38,407.261 5853.07,424.761 5855.38,424.761C5856.07,424.761 5856.57,424.261 5856.57,423.561ZM5915.07,424.761C5917.37,424.761 5934.07,407.261 5934.07,380.161C5934.07,352.961 5917.37,335.561 5915.07,335.561C5914.37,335.561 5913.87,336.061 5913.87,336.761C5913.87,337.161 5913.97,337.661 5914.37,338.061C5924.17,349.761 5928.77,365.961 5928.77,380.161C5928.77,394.361 5924.17,410.561 5914.37,422.261C5913.97,422.661 5913.87,423.161 5913.87,423.561C5913.87,424.261 5914.37,424.761 5915.07,424.761ZM5900.17,362.561C5895.17,366.361 5887.27,371.261 5882.57,373.661C5876.77,371.361 5872.47,369.161 5872.47,363.961C5872.47,358.761 5877.17,354.861 5884.97,354.861C5890.57,354.861 5895.87,357.561 5898.47,361.561C5898.87,362.261 5899.47,362.561 5899.97,362.561L5900.17,362.561Z" style="fill-rule:nonzero;"/>
        </g>
    </g>
</svg>
