<?xml version="1.0" encoding="UTF-8" standalone="no"?>
<!DOCTYPE svg PUBLIC "-//W3C//DTD SVG 1.1//EN" "http://www.w3.org/Graphics/SVG/1.1/DTD/svg11.dtd">
<svg width="100%" height="100%" viewBox="0 0 98 90" version="1.1" xmlns="http://www.w3.org/2000/svg" xmlns:xlink="http://www.w3.org/1999/xlink" xml:space="preserve" xmlns:serif="http://www.serif.com/" style="fill-rule:evenodd;clip-rule:evenodd;stroke-linejoin:round;stroke-miterlimit:2;">
    <g transform="matrix(1,0,0,1,-6037.36,-335.561)">
        <g transform="matrix(1,0,0,1,1,0)">
            <path d="M6115.05,424.761C6117.35,424.761 6134.05,407.261 6134.05,380.161C6134.05,352.961 6117.35,335.561 6115.05,335.561C6114.35,335.561 6113.85,336.061 6113.85,336.761C6113.85,337.161 6113.95,337.661 6114.35,338.061C6124.15,349.761 6128.75,365.961 6128.75,380.161C6128.75,394.361 6124.15,410.561 6114.35,422.261C6113.95,422.661 6113.85,423.161 6113.85,423.561C6113.85,424.261 6114.35,424.761 6115.05,424.761ZM6056.55,423.561C6056.55,423.161 6056.45,422.661 6056.05,422.261C6046.26,410.561 6041.66,394.361 6041.66,380.161C6041.66,365.961 6046.26,349.761 6056.05,338.061C6056.45,337.661 6056.55,337.161 6056.55,336.761C6056.55,336.061 6056.05,335.561 6055.35,335.561C6053.05,335.561 6036.36,352.961 6036.36,380.161C6036.36,407.261 6053.05,424.761 6055.35,424.761C6056.05,424.761 6056.55,424.261 6056.55,423.561ZM6089.45,355.761C6089.25,355.461 6088.75,355.161 6088.15,355.161C6085.45,355.161 6079.85,367.161 6079.85,381.061C6079.85,397.561 6085.75,409.661 6097.95,409.661C6110.75,409.661 6116.75,395.561 6116.75,378.961C6116.75,362.661 6110.95,350.761 6100.05,350.761C6095.75,350.761 6092.05,352.761 6089.45,355.761ZM6063.55,400.061C6063.55,401.761 6063.35,405.861 6063.35,407.161C6063.35,408.461 6065.55,409.361 6067.15,409.361C6067.85,409.361 6068.45,409.161 6068.45,408.561C6068.35,406.461 6068.25,401.761 6068.25,399.561L6068.25,359.261C6068.25,356.961 6068.75,355.561 6068.75,354.261C6068.75,352.761 6066.95,351.261 6065.75,351.261C6064.55,351.261 6062.85,353.561 6062.25,354.061C6059.75,355.961 6055.95,358.061 6051.95,359.661C6051.36,359.861 6051.15,360.161 6051.15,360.461C6051.15,361.361 6052.95,362.261 6054.35,362.261C6054.65,362.261 6054.95,362.261 6055.15,362.161C6057.95,361.361 6061.25,360.061 6063.55,358.661L6063.55,400.061ZM6097.65,405.361C6088.15,405.361 6084.45,394.161 6084.45,380.961C6084.45,363.561 6093.15,354.861 6099.75,354.861C6108.65,354.861 6112.15,367.161 6112.15,378.361C6112.15,392.061 6107.95,405.361 6097.65,405.361Z" style="fill-rule:nonzero;"/>
        </g>
    </g>
</svg>
