<?xml version="1.0" encoding="UTF-8" standalone="no"?>
<!DOCTYPE svg PUBLIC "-//W3C//DTD SVG 1.1//EN" "http://www.w3.org/Graphics/SVG/1.1/DTD/svg11.dtd">
<svg width="100%" height="100%" viewBox="0 0 98 90" version="1.1" xmlns="http://www.w3.org/2000/svg" xmlns:xlink="http://www.w3.org/1999/xlink" xml:space="preserve" xmlns:serif="http://www.serif.com/" style="fill-rule:evenodd;clip-rule:evenodd;stroke-linejoin:round;stroke-miterlimit:2;">
    <g transform="matrix(1,0,0,1,-5837.38,-1535.56)">
        <g transform="matrix(1,0,0,1,1,0)">
            <path d="M5906.67,1575.86C5914.47,1570.46 5921.37,1563.46 5921.37,1561.36C5921.37,1560.46 5920.77,1559.86 5919.97,1559.86C5919.37,1559.86 5918.77,1560.06 5918.07,1560.76L5917.67,1561.16C5917.97,1560.66 5918.17,1560.06 5918.17,1559.66C5918.17,1559.36 5918.07,1559.06 5917.97,1558.86C5914.87,1554.56 5910.37,1550.96 5904.07,1550.96C5894.27,1550.96 5888.57,1557.26 5888.57,1564.36C5888.57,1569.66 5890.67,1573.06 5898.07,1576.66C5890.57,1581.66 5886.07,1587.16 5886.07,1594.46C5886.07,1603.06 5892.27,1609.66 5902.67,1609.66C5914.17,1609.66 5921.77,1603.26 5921.77,1593.36C5921.77,1585.56 5917.27,1580.46 5907.67,1576.26L5906.67,1575.86ZM5869.57,1575.86C5877.37,1570.46 5884.27,1563.46 5884.27,1561.36C5884.27,1560.46 5883.67,1559.86 5882.87,1559.86C5882.27,1559.86 5881.67,1560.06 5880.97,1560.76L5880.57,1561.16C5880.87,1560.66 5881.07,1560.06 5881.07,1559.66C5881.07,1559.36 5880.97,1559.06 5880.87,1558.86C5877.77,1554.56 5873.27,1550.96 5866.97,1550.96C5857.17,1550.96 5851.48,1557.26 5851.48,1564.36C5851.48,1569.66 5853.57,1573.06 5860.97,1576.66C5853.48,1581.66 5848.98,1587.16 5848.98,1594.46C5848.98,1603.06 5855.18,1609.66 5865.57,1609.66C5877.07,1609.66 5884.67,1603.26 5884.67,1593.36C5884.67,1585.56 5880.17,1580.46 5870.57,1576.26L5869.57,1575.86ZM5865.37,1578.66C5874.17,1582.16 5879.97,1585.76 5879.97,1593.76C5879.97,1600.66 5873.87,1605.36 5865.57,1605.36C5857.27,1605.36 5853.68,1599.76 5853.68,1594.26C5853.68,1588.46 5857.97,1583.76 5865.37,1578.66ZM5902.47,1578.66C5911.27,1582.16 5917.07,1585.76 5917.07,1593.76C5917.07,1600.66 5910.97,1605.36 5902.67,1605.36C5894.37,1605.36 5890.77,1599.76 5890.77,1594.26C5890.77,1588.46 5895.07,1583.76 5902.47,1578.66ZM5856.57,1623.56C5856.57,1623.16 5856.48,1622.66 5856.07,1622.26C5846.28,1610.56 5841.68,1594.36 5841.68,1580.16C5841.68,1565.96 5846.28,1549.76 5856.07,1538.06C5856.48,1537.66 5856.57,1537.16 5856.57,1536.76C5856.57,1536.06 5856.07,1535.56 5855.38,1535.56C5853.07,1535.56 5836.38,1552.96 5836.38,1580.16C5836.38,1607.26 5853.07,1624.76 5855.38,1624.76C5856.07,1624.76 5856.57,1624.26 5856.57,1623.56ZM5915.07,1624.76C5917.37,1624.76 5934.07,1607.26 5934.07,1580.16C5934.07,1552.96 5917.37,1535.56 5915.07,1535.56C5914.37,1535.56 5913.87,1536.06 5913.87,1536.76C5913.87,1537.16 5913.97,1537.66 5914.37,1538.06C5924.17,1549.76 5928.77,1565.96 5928.77,1580.16C5928.77,1594.36 5924.17,1610.56 5914.37,1622.26C5913.97,1622.66 5913.87,1623.16 5913.87,1623.56C5913.87,1624.26 5914.37,1624.76 5915.07,1624.76ZM5865.27,1573.86C5858.27,1570.76 5856.18,1568.56 5856.18,1564.36C5856.18,1559.66 5859.77,1555.06 5867.07,1555.06C5871.77,1555.06 5874.57,1557.56 5876.97,1561.46C5877.47,1562.26 5877.97,1562.56 5878.47,1562.56C5878.77,1562.56 5879.07,1562.46 5879.27,1562.36C5875.27,1566.36 5870.67,1570.46 5865.27,1573.86ZM5902.37,1573.86C5895.37,1570.76 5893.27,1568.56 5893.27,1564.36C5893.27,1559.66 5896.87,1555.06 5904.17,1555.06C5908.87,1555.06 5911.67,1557.56 5914.07,1561.46C5914.57,1562.26 5915.07,1562.56 5915.57,1562.56C5915.87,1562.56 5916.17,1562.46 5916.37,1562.36C5912.37,1566.36 5907.77,1570.46 5902.37,1573.86Z" style="fill-rule:nonzero;"/>
        </g>
    </g>
</svg>
