<?xml version="1.0" encoding="UTF-8" standalone="no"?>
<!DOCTYPE svg PUBLIC "-//W3C//DTD SVG 1.1//EN" "http://www.w3.org/Graphics/SVG/1.1/DTD/svg11.dtd">
<svg width="100%" height="100%" viewBox="0 0 98 90" version="1.1" xmlns="http://www.w3.org/2000/svg" xmlns:xlink="http://www.w3.org/1999/xlink" xml:space="preserve" xmlns:serif="http://www.serif.com/" style="fill-rule:evenodd;clip-rule:evenodd;stroke-linejoin:round;stroke-miterlimit:2;">
    <g transform="matrix(1,0,0,1,-6037.36,-185.561)">
        <g transform="matrix(1,0,0,1,1,0)">
            <path d="M6057.55,206.361C6057.35,206.061 6056.95,205.761 6056.45,205.761C6054.15,205.761 6049.15,217.461 6049.15,231.661C6049.15,248.161 6054.35,260.261 6065.15,260.261C6076.45,260.261 6081.95,246.161 6081.95,229.561C6081.95,213.261 6076.65,201.361 6066.95,201.361C6063.15,201.361 6059.95,203.361 6057.55,206.361ZM6110.05,259.661C6112.05,259.561 6113.25,259.061 6113.35,257.961C6114.05,249.361 6118.65,225.361 6122.35,209.561C6122.45,209.061 6123.05,207.661 6123.35,206.561L6123.35,206.261C6123.35,205.061 6121.75,203.561 6119.95,203.561C6118.25,203.561 6118.65,206.061 6118.05,208.261C6116.95,205.961 6113.15,201.261 6105.25,201.261C6094.05,201.261 6085.55,212.061 6085.55,222.961C6085.55,232.161 6090.75,237.461 6098.35,237.461C6104.25,237.461 6110.45,233.761 6113.95,228.061L6108.45,256.361C6108.35,257.061 6108.05,257.761 6108.05,258.361C6108.05,259.161 6108.45,259.661 6109.85,259.661L6110.05,259.661ZM6064.85,255.961C6056.45,255.961 6053.65,244.761 6053.65,231.561C6053.65,214.161 6061.05,205.461 6066.65,205.461C6074.65,205.461 6077.45,217.761 6077.45,228.961C6077.45,242.661 6073.95,255.961 6064.85,255.961ZM6116.45,215.761C6113.15,225.761 6106.65,233.061 6098.25,233.061C6092.95,233.061 6090.25,229.561 6090.25,222.661C6090.25,215.261 6095.85,205.461 6105.65,205.461C6111.45,205.461 6113.85,209.361 6114.95,211.561C6115.25,212.261 6115.65,212.561 6116.15,212.561C6116.55,212.561 6116.95,212.261 6117.35,211.861L6116.45,215.761ZM6056.55,273.561C6056.55,273.161 6056.45,272.661 6056.05,272.261C6046.26,260.561 6041.66,244.361 6041.66,230.161C6041.66,215.961 6046.26,199.761 6056.05,188.061C6056.45,187.661 6056.55,187.161 6056.55,186.761C6056.55,186.061 6056.05,185.561 6055.35,185.561C6053.05,185.561 6036.36,202.961 6036.36,230.161C6036.36,257.261 6053.05,274.761 6055.35,274.761C6056.05,274.761 6056.55,274.261 6056.55,273.561ZM6115.05,274.761C6117.35,274.761 6134.05,257.261 6134.05,230.161C6134.05,202.961 6117.35,185.561 6115.05,185.561C6114.35,185.561 6113.85,186.061 6113.85,186.761C6113.85,187.161 6113.95,187.661 6114.35,188.061C6124.15,199.761 6128.75,215.961 6128.75,230.161C6128.75,244.361 6124.15,260.561 6114.35,272.261C6113.95,272.661 6113.85,273.161 6113.85,273.561C6113.85,274.261 6114.35,274.761 6115.05,274.761Z" style="fill-rule:nonzero;"/>
        </g>
    </g>
</svg>
