<?xml version="1.0" encoding="UTF-8" standalone="no"?>
<!DOCTYPE svg PUBLIC "-//W3C//DTD SVG 1.1//EN" "http://www.w3.org/Graphics/SVG/1.1/DTD/svg11.dtd">
<svg width="100%" height="100%" viewBox="0 0 98 90" version="1.1" xmlns="http://www.w3.org/2000/svg" xmlns:xlink="http://www.w3.org/1999/xlink" xml:space="preserve" xmlns:serif="http://www.serif.com/" style="fill-rule:evenodd;clip-rule:evenodd;stroke-linejoin:round;stroke-miterlimit:2;">
    <g transform="matrix(1,0,0,1,-5737.39,-1535.56)">
        <g transform="matrix(1,0,0,1,1,0)">
            <path d="M5769.58,1575.86C5777.38,1570.46 5784.28,1563.46 5784.28,1561.36C5784.28,1560.46 5783.68,1559.86 5782.88,1559.86C5782.28,1559.86 5781.68,1560.06 5780.98,1560.76L5780.58,1561.16C5780.88,1560.66 5781.08,1560.06 5781.08,1559.66C5781.08,1559.36 5780.98,1559.06 5780.88,1558.86C5777.78,1554.56 5773.28,1550.96 5766.98,1550.96C5757.19,1550.96 5751.48,1557.26 5751.48,1564.36C5751.48,1569.66 5753.59,1573.06 5760.98,1576.66C5753.48,1581.66 5748.98,1587.16 5748.98,1594.46C5748.98,1603.06 5755.19,1609.66 5765.58,1609.66C5777.08,1609.66 5784.68,1603.26 5784.68,1593.36C5784.68,1585.56 5780.18,1580.46 5770.58,1576.26L5769.58,1575.86ZM5765.38,1578.66C5774.18,1582.16 5779.98,1585.76 5779.98,1593.76C5779.98,1600.66 5773.88,1605.36 5765.58,1605.36C5757.28,1605.36 5753.69,1599.76 5753.69,1594.26C5753.69,1588.46 5757.98,1583.76 5765.38,1578.66ZM5756.59,1623.56C5756.59,1623.16 5756.48,1622.66 5756.09,1622.26C5746.29,1610.56 5741.69,1594.36 5741.69,1580.16C5741.69,1565.96 5746.29,1549.76 5756.09,1538.06C5756.48,1537.66 5756.59,1537.16 5756.59,1536.76C5756.59,1536.06 5756.09,1535.56 5755.39,1535.56C5753.09,1535.56 5736.39,1552.96 5736.39,1580.16C5736.39,1607.26 5753.09,1624.76 5755.39,1624.76C5756.09,1624.76 5756.59,1624.26 5756.59,1623.56ZM5815.08,1624.76C5817.38,1624.76 5834.08,1607.26 5834.08,1580.16C5834.08,1552.96 5817.38,1535.56 5815.08,1535.56C5814.38,1535.56 5813.88,1536.06 5813.88,1536.76C5813.88,1537.16 5813.98,1537.66 5814.38,1538.06C5824.18,1549.76 5828.78,1565.96 5828.78,1580.16C5828.78,1594.36 5824.18,1610.56 5814.38,1622.26C5813.98,1622.66 5813.88,1623.16 5813.88,1623.56C5813.88,1624.26 5814.38,1624.76 5815.08,1624.76ZM5818.98,1555.06C5818.98,1553.66 5816.98,1551.86 5815.78,1551.66L5815.58,1551.66C5814.58,1551.66 5813.48,1552.16 5812.28,1552.26L5790.78,1553.76L5789.68,1553.76C5788.38,1553.76 5787.58,1553.66 5786.68,1553.66C5786.38,1553.66 5786.28,1553.86 5786.28,1554.16C5786.28,1554.76 5787.28,1558.26 5790.18,1558.26C5790.88,1558.26 5791.68,1558.06 5792.48,1558.06L5813.18,1556.26C5804.68,1575.46 5803.08,1580.06 5794.18,1605.56C5794.08,1606.06 5793.68,1606.76 5793.68,1607.46C5793.68,1608.16 5794.08,1608.86 5795.68,1609.06C5796.08,1609.06 5796.48,1609.16 5796.78,1609.16C5798.08,1609.16 5798.78,1608.86 5798.98,1607.96C5799.58,1605.06 5800.18,1602.76 5800.78,1601.06C5805.08,1587.66 5811.08,1572.26 5817.08,1559.16C5817.58,1558.16 5818.78,1556.66 5818.98,1555.36L5818.98,1555.06ZM5765.28,1573.86C5758.28,1570.76 5756.19,1568.56 5756.19,1564.36C5756.19,1559.66 5759.78,1555.06 5767.08,1555.06C5771.78,1555.06 5774.58,1557.56 5776.98,1561.46C5777.48,1562.26 5777.98,1562.56 5778.48,1562.56C5778.78,1562.56 5779.08,1562.46 5779.28,1562.36C5775.28,1566.36 5770.68,1570.46 5765.28,1573.86Z" style="fill-rule:nonzero;"/>
        </g>
    </g>
</svg>
