<?xml version="1.0" encoding="UTF-8" standalone="no"?>
<!DOCTYPE svg PUBLIC "-//W3C//DTD SVG 1.1//EN" "http://www.w3.org/Graphics/SVG/1.1/DTD/svg11.dtd">
<svg width="100%" height="100%" viewBox="0 0 98 90" version="1.1" xmlns="http://www.w3.org/2000/svg" xmlns:xlink="http://www.w3.org/1999/xlink" xml:space="preserve" xmlns:serif="http://www.serif.com/" style="fill-rule:evenodd;clip-rule:evenodd;stroke-linejoin:round;stroke-miterlimit:2;">
    <g transform="matrix(1,0,0,1,-5237.44,-485.561)">
        <g transform="matrix(1,0,0,1,1,0)">
            <path d="M5296.23,553.561C5293.23,553.561 5286.93,553.561 5283.83,553.961C5287.43,547.661 5293.63,540.761 5301.53,533.961C5309.23,527.361 5314.03,521.061 5314.03,514.161C5314.03,506.261 5308.23,500.861 5299.03,500.861C5286.73,500.861 5281.23,510.261 5281.23,512.261C5281.23,513.961 5282.93,515.761 5284.03,515.761C5284.83,515.761 5285.43,514.861 5285.83,513.861C5287.63,509.161 5292.53,505.261 5298.83,505.261C5305.43,505.261 5309.03,509.261 5309.03,514.161C5309.03,519.461 5305.03,524.861 5298.13,530.761C5289.73,537.961 5283.03,546.061 5280.03,551.461C5279.53,552.261 5278.93,552.761 5278.23,553.861C5278.03,554.161 5277.93,554.561 5277.93,554.961C5277.93,556.661 5279.33,558.661 5280.93,558.661L5281.33,558.661C5285.63,557.761 5288.13,557.761 5295.63,557.761C5299.93,557.761 5304.33,557.761 5307.63,557.861C5310.33,558.061 5313.13,558.361 5314.13,558.361C5314.93,558.361 5315.23,557.861 5315.23,557.161C5315.23,555.761 5313.93,553.561 5312.63,553.561L5296.23,553.561ZM5315.13,574.761C5317.43,574.761 5334.13,557.261 5334.13,530.161C5334.13,502.961 5317.43,485.561 5315.13,485.561C5314.43,485.561 5313.93,486.061 5313.93,486.761C5313.93,487.161 5314.03,487.661 5314.43,488.061C5324.23,499.761 5328.83,515.961 5328.83,530.161C5328.83,544.361 5324.23,560.561 5314.43,572.261C5314.03,572.661 5313.93,573.161 5313.93,573.561C5313.93,574.261 5314.43,574.761 5315.13,574.761ZM5256.64,573.561C5256.64,573.161 5256.54,572.661 5256.14,572.261C5246.34,560.561 5241.74,544.361 5241.74,530.161C5241.74,515.961 5246.34,499.761 5256.14,488.061C5256.54,487.661 5256.64,487.161 5256.64,486.761C5256.64,486.061 5256.14,485.561 5255.44,485.561C5253.14,485.561 5236.44,502.961 5236.44,530.161C5236.44,557.261 5253.14,574.761 5255.44,574.761C5256.14,574.761 5256.64,574.261 5256.64,573.561ZM5263.64,550.061C5263.64,551.761 5263.44,555.861 5263.44,557.161C5263.44,558.461 5265.64,559.361 5267.23,559.361C5267.94,559.361 5268.53,559.161 5268.53,558.561C5268.44,556.461 5268.34,551.761 5268.34,549.561L5268.34,509.261C5268.34,506.961 5268.83,505.561 5268.83,504.261C5268.83,502.761 5267.03,501.261 5265.84,501.261C5264.64,501.261 5262.94,503.561 5262.34,504.061C5259.84,505.961 5256.04,508.061 5252.04,509.661C5251.44,509.861 5251.24,510.161 5251.24,510.461C5251.24,511.361 5253.04,512.261 5254.44,512.261C5254.74,512.261 5255.04,512.261 5255.24,512.161C5258.04,511.361 5261.34,510.061 5263.64,508.661L5263.64,550.061Z" style="fill-rule:nonzero;"/>
        </g>
    </g>
</svg>
