<?xml version="1.0" encoding="UTF-8" standalone="no"?>
<!DOCTYPE svg PUBLIC "-//W3C//DTD SVG 1.1//EN" "http://www.w3.org/Graphics/SVG/1.1/DTD/svg11.dtd">
<svg width="100%" height="100%" viewBox="0 0 98 90" version="1.1" xmlns="http://www.w3.org/2000/svg" xmlns:xlink="http://www.w3.org/1999/xlink" xml:space="preserve" xmlns:serif="http://www.serif.com/" style="fill-rule:evenodd;clip-rule:evenodd;stroke-linejoin:round;stroke-miterlimit:2;">
    <g transform="matrix(1,0,0,1,-6037.36,-1535.56)">
        <g transform="matrix(1,0,0,1,1,0)">
            <path d="M6095.85,1555.76C6095.55,1555.16 6094.75,1555.16 6094.65,1555.16C6092.55,1555.16 6087.25,1566.36 6087.25,1581.06C6087.25,1597.56 6092.55,1609.66 6103.55,1609.66C6115.15,1609.66 6120.75,1595.56 6120.75,1578.96C6120.75,1562.66 6115.35,1550.76 6105.45,1550.76C6101.55,1550.76 6098.25,1552.76 6095.85,1555.76ZM6072.95,1609.26C6074.95,1609.16 6076.15,1608.66 6076.25,1607.56C6076.95,1598.96 6081.55,1574.96 6085.25,1559.16C6085.35,1558.66 6085.95,1557.26 6086.25,1556.16L6086.25,1555.86C6086.25,1554.66 6084.65,1553.16 6082.85,1553.16C6081.15,1553.16 6081.55,1555.66 6080.95,1557.86C6079.85,1555.56 6076.05,1550.86 6068.15,1550.86C6056.95,1550.86 6048.45,1561.66 6048.45,1572.56C6048.45,1581.76 6053.65,1587.06 6061.25,1587.06C6067.15,1587.06 6073.35,1583.36 6076.85,1577.66L6071.35,1605.96C6071.25,1606.66 6070.95,1607.36 6070.95,1607.96C6070.95,1608.76 6071.35,1609.26 6072.75,1609.26L6072.95,1609.26ZM6103.25,1605.36C6094.75,1605.36 6091.85,1594.16 6091.85,1580.96C6091.85,1563.56 6099.35,1554.86 6105.15,1554.86C6113.25,1554.86 6116.15,1567.16 6116.15,1578.36C6116.15,1592.06 6112.55,1605.36 6103.25,1605.36ZM6079.35,1565.36C6076.05,1575.36 6069.55,1582.66 6061.15,1582.66C6055.85,1582.66 6053.15,1579.16 6053.15,1572.26C6053.15,1564.86 6058.75,1555.06 6068.55,1555.06C6074.35,1555.06 6076.75,1558.96 6077.85,1561.16C6078.15,1561.86 6078.55,1562.16 6079.05,1562.16C6079.45,1562.16 6079.85,1561.86 6080.25,1561.46L6079.35,1565.36ZM6056.55,1623.56C6056.55,1623.16 6056.45,1622.66 6056.05,1622.26C6046.26,1610.56 6041.66,1594.36 6041.66,1580.16C6041.66,1565.96 6046.26,1549.76 6056.05,1538.06C6056.45,1537.66 6056.55,1537.16 6056.55,1536.76C6056.55,1536.06 6056.05,1535.56 6055.35,1535.56C6053.05,1535.56 6036.36,1552.96 6036.36,1580.16C6036.36,1607.26 6053.05,1624.76 6055.35,1624.76C6056.05,1624.76 6056.55,1624.26 6056.55,1623.56ZM6115.05,1624.76C6117.35,1624.76 6134.05,1607.26 6134.05,1580.16C6134.05,1552.96 6117.35,1535.56 6115.05,1535.56C6114.35,1535.56 6113.85,1536.06 6113.85,1536.76C6113.85,1537.16 6113.95,1537.66 6114.35,1538.06C6124.15,1549.76 6128.75,1565.96 6128.75,1580.16C6128.75,1594.36 6124.15,1610.56 6114.35,1622.26C6113.95,1622.66 6113.85,1623.16 6113.85,1623.56C6113.85,1624.26 6114.35,1624.76 6115.05,1624.76Z" style="fill-rule:nonzero;"/>
        </g>
    </g>
</svg>
