<?xml version="1.0" encoding="UTF-8" standalone="no"?>
<!DOCTYPE svg PUBLIC "-//W3C//DTD SVG 1.1//EN" "http://www.w3.org/Graphics/SVG/1.1/DTD/svg11.dtd">
<svg width="100%" height="100%" viewBox="0 0 98 90" version="1.1" xmlns="http://www.w3.org/2000/svg" xmlns:xlink="http://www.w3.org/1999/xlink" xml:space="preserve" xmlns:serif="http://www.serif.com/" style="fill-rule:evenodd;clip-rule:evenodd;stroke-linejoin:round;stroke-miterlimit:2;">
    <g transform="matrix(1,0,0,1,-5237.44,-1385.56)">
        <g transform="matrix(1,0,0,1,1,0)">
            <path d="M5289.93,1458.66C5294.13,1457.66 5300.23,1457.66 5301.93,1457.66C5311.83,1457.66 5318.63,1458.26 5318.63,1458.26C5319.23,1458.26 5319.53,1457.86 5319.53,1457.16C5319.53,1455.76 5318.33,1453.56 5317.13,1453.56C5316.13,1453.56 5313.53,1453.66 5312.23,1453.66C5309.03,1453.66 5306.53,1453.56 5302.73,1453.56C5299.73,1453.56 5295.33,1453.76 5292.43,1454.06C5295.13,1448.66 5299.83,1440.56 5306.63,1434.16C5313.83,1427.36 5318.93,1421.66 5318.93,1414.26C5318.93,1406.46 5313.53,1400.86 5305.03,1400.86C5297.13,1400.86 5291.73,1404.96 5288.63,1410.86C5288.33,1411.26 5288.23,1411.76 5288.23,1412.26C5288.23,1413.16 5288.73,1414.06 5289.93,1415.06C5290.33,1415.46 5290.63,1415.56 5291.03,1415.56C5291.83,1415.56 5292.43,1414.76 5292.83,1413.66C5294.53,1408.86 5298.73,1405.06 5304.83,1405.06C5310.73,1405.06 5314.13,1409.26 5314.13,1414.26C5314.13,1419.56 5310.13,1424.56 5303.73,1430.76C5297.23,1437.06 5291.83,1445.76 5288.83,1451.56C5288.43,1452.36 5287.93,1453.06 5287.23,1453.96C5287.03,1454.26 5286.93,1454.66 5286.93,1455.16C5286.93,1456.76 5288.23,1458.66 5289.63,1458.66L5289.93,1458.66ZM5315.13,1474.76C5317.43,1474.76 5334.13,1457.26 5334.13,1430.16C5334.13,1402.96 5317.43,1385.56 5315.13,1385.56C5314.43,1385.56 5313.93,1386.06 5313.93,1386.76C5313.93,1387.16 5314.03,1387.66 5314.43,1388.06C5324.23,1399.76 5328.83,1415.96 5328.83,1430.16C5328.83,1444.36 5324.23,1460.56 5314.43,1472.26C5314.03,1472.66 5313.93,1473.16 5313.93,1473.56C5313.93,1474.26 5314.43,1474.76 5315.13,1474.76ZM5256.64,1473.56C5256.64,1473.16 5256.54,1472.66 5256.14,1472.26C5246.34,1460.56 5241.74,1444.36 5241.74,1430.16C5241.74,1415.96 5246.34,1399.76 5256.14,1388.06C5256.54,1387.66 5256.64,1387.16 5256.64,1386.76C5256.64,1386.06 5256.14,1385.56 5255.44,1385.56C5253.14,1385.56 5236.44,1402.96 5236.44,1430.16C5236.44,1457.26 5253.14,1474.76 5255.44,1474.76C5256.14,1474.76 5256.64,1474.26 5256.64,1473.56ZM5283.83,1405.06C5283.83,1403.66 5281.83,1401.86 5280.63,1401.66L5280.43,1401.66C5279.43,1401.66 5278.33,1402.16 5277.13,1402.26L5255.64,1403.76L5254.54,1403.76C5253.24,1403.76 5252.44,1403.66 5251.54,1403.66C5251.24,1403.66 5251.14,1403.86 5251.14,1404.16C5251.14,1404.76 5252.14,1408.26 5255.04,1408.26C5255.74,1408.26 5256.54,1408.06 5257.34,1408.06L5278.03,1406.26C5269.53,1425.46 5267.94,1430.06 5259.03,1455.56C5258.94,1456.06 5258.54,1456.76 5258.54,1457.46C5258.54,1458.16 5258.94,1458.86 5260.53,1459.06C5260.94,1459.06 5261.34,1459.16 5261.64,1459.16C5262.94,1459.16 5263.64,1458.86 5263.84,1457.96C5264.44,1455.06 5265.03,1452.76 5265.64,1451.06C5269.93,1437.66 5275.93,1422.26 5281.93,1409.16C5282.43,1408.16 5283.63,1406.66 5283.83,1405.36L5283.83,1405.06Z" style="fill-rule:nonzero;"/>
        </g>
    </g>
</svg>
