<?xml version="1.0" encoding="UTF-8" standalone="no"?>
<!DOCTYPE svg PUBLIC "-//W3C//DTD SVG 1.1//EN" "http://www.w3.org/Graphics/SVG/1.1/DTD/svg11.dtd">
<svg width="100%" height="100%" viewBox="0 0 98 90" version="1.1" xmlns="http://www.w3.org/2000/svg" xmlns:xlink="http://www.w3.org/1999/xlink" xml:space="preserve" xmlns:serif="http://www.serif.com/" style="fill-rule:evenodd;clip-rule:evenodd;stroke-linejoin:round;stroke-miterlimit:2;">
    <g transform="matrix(1,0,0,1,-5537.41,-935.561)">
        <g transform="matrix(1,0,0,1,1,0)">
            <path d="M5616.9,956.361C5617.5,956.361 5617.8,955.861 5617.8,955.261C5617.8,953.961 5616.6,951.861 5615.5,951.861L5615.3,951.861C5613.9,952.161 5611.6,952.361 5610.1,952.361L5594.9,953.261C5593.8,952.761 5592.6,952.361 5591.8,952.361C5591.1,952.361 5590.7,952.561 5590.7,953.261C5590.7,954.261 5590.7,955.661 5590.5,956.761L5588.5,976.461C5588.2,977.461 5587.7,979.861 5587.7,980.161C5587.7,982.161 5589.7,983.661 5591,983.661C5591.6,983.661 5592.3,982.961 5593.9,981.361C5596.6,978.761 5600.1,976.961 5604.3,976.961C5611.6,976.961 5616.3,981.961 5616.3,990.261C5616.3,998.061 5612.1,1005.26 5601.5,1005.26C5595.5,1005.26 5591.7,1001.46 5588.8,997.161C5588.6,996.761 5588.3,996.561 5588,996.561C5586.9,996.561 5585.6,998.761 5585.6,1000.56C5585.6,1003.26 5593.4,1009.66 5601.5,1009.66C5615.4,1009.66 5621,1000.46 5621,990.161C5621,979.161 5613.7,972.761 5605.1,972.761C5599.7,972.761 5596,974.461 5592.7,977.261L5594.8,957.661L5610.7,956.661L5616.9,956.361ZM5578.2,995.361C5580.4,995.361 5583.4,995.561 5584.5,995.561C5585.1,995.561 5585.3,995.061 5585.3,994.461C5585.3,993.061 5584.1,990.761 5582.8,990.761C5581.8,990.761 5579.5,991.161 5578.1,991.261L5576.7,991.361L5576.7,974.661C5576.7,972.661 5576.9,968.761 5576.9,967.461C5576.9,966.061 5574.7,965.161 5573.2,965.161C5572.4,965.161 5571.8,965.461 5571.8,965.961C5571.8,967.861 5572,973.061 5572,974.661L5572,991.561L5553.01,991.961C5558.7,982.361 5566,969.361 5570.5,960.461C5571.2,959.161 5572.4,957.261 5573.3,955.961C5573.5,955.761 5573.5,955.461 5573.5,955.161C5573.5,953.461 5571.2,951.061 5569.9,951.061C5569.5,951.061 5569.2,951.161 5569.1,951.561C5565.9,959.661 5559.11,972.861 5550.31,987.661C5549.61,988.761 5548.51,989.961 5547.61,991.361C5547.21,991.861 5547.11,992.461 5547.11,992.961C5547.11,994.861 5549.01,996.661 5550.61,996.661C5550.81,996.661 5550.91,996.561 5551.11,996.561C5552.31,996.261 5553.51,996.061 5554.11,996.061L5572,995.561L5572,999.961C5572,1001.16 5571.8,1005.76 5571.8,1007.06C5571.8,1008.46 5574.1,1009.36 5575.7,1009.36C5576.5,1009.36 5577.1,1009.06 5577.1,1008.56C5577.1,1006.66 5576.8,1003.46 5576.7,1000.16L5576.7,995.361L5578.2,995.361ZM5556.61,1023.56C5556.61,1023.16 5556.51,1022.66 5556.11,1022.26C5546.31,1010.56 5541.71,994.361 5541.71,980.161C5541.71,965.961 5546.31,949.761 5556.11,938.061C5556.51,937.661 5556.61,937.161 5556.61,936.761C5556.61,936.061 5556.11,935.561 5555.4,935.561C5553.11,935.561 5536.41,952.961 5536.41,980.161C5536.41,1007.26 5553.11,1024.76 5555.4,1024.76C5556.11,1024.76 5556.61,1024.26 5556.61,1023.56ZM5615.1,1024.76C5617.4,1024.76 5634.1,1007.26 5634.1,980.161C5634.1,952.961 5617.4,935.561 5615.1,935.561C5614.4,935.561 5613.9,936.061 5613.9,936.761C5613.9,937.161 5614,937.661 5614.4,938.061C5624.2,949.761 5628.8,965.961 5628.8,980.161C5628.8,994.361 5624.2,1010.56 5614.4,1022.26C5614,1022.66 5613.9,1023.16 5613.9,1023.56C5613.9,1024.26 5614.4,1024.76 5615.1,1024.76Z" style="fill-rule:nonzero;"/>
        </g>
    </g>
</svg>
