<?xml version="1.0" encoding="UTF-8" standalone="no"?>
<!DOCTYPE svg PUBLIC "-//W3C//DTD SVG 1.1//EN" "http://www.w3.org/Graphics/SVG/1.1/DTD/svg11.dtd">
<svg width="100%" height="100%" viewBox="0 0 98 90" version="1.1" xmlns="http://www.w3.org/2000/svg" xmlns:xlink="http://www.w3.org/1999/xlink" xml:space="preserve" xmlns:serif="http://www.serif.com/" style="fill-rule:evenodd;clip-rule:evenodd;stroke-linejoin:round;stroke-miterlimit:2;">
    <g transform="matrix(1,0,0,1,-5637.4,-485.561)">
        <g transform="matrix(1,0,0,1,1,0)">
            <path d="M5694.99,503.461C5687.49,514.361 5677.69,530.361 5677.69,542.561C5677.69,551.961 5684.69,559.661 5696.19,559.661C5708.59,559.661 5714.69,551.261 5714.69,540.361C5714.69,530.561 5707.79,523.361 5697.59,523.361C5692.09,523.361 5687.59,525.661 5684.69,529.861C5690.39,518.061 5694.59,511.561 5700.89,504.261C5701.19,503.861 5701.79,503.161 5701.79,502.561C5701.79,501.561 5699.69,500.761 5698.29,500.761C5697.39,500.761 5696.59,501.061 5696.19,501.761L5694.99,503.461ZM5696.19,555.561C5687.49,555.561 5682.39,549.861 5682.39,542.461C5682.39,534.461 5688.29,527.461 5697.49,527.461C5705.09,527.461 5709.89,533.661 5709.89,540.561C5709.89,549.361 5704.69,555.561 5696.19,555.561ZM5656.6,573.561C5656.6,573.161 5656.49,572.661 5656.1,572.261C5646.3,560.561 5641.7,544.361 5641.7,530.161C5641.7,515.961 5646.3,499.761 5656.1,488.061C5656.49,487.661 5656.6,487.161 5656.6,486.761C5656.6,486.061 5656.1,485.561 5655.4,485.561C5653.1,485.561 5636.4,502.961 5636.4,530.161C5636.4,557.261 5653.1,574.761 5655.4,574.761C5656.1,574.761 5656.6,574.261 5656.6,573.561ZM5715.09,574.761C5717.39,574.761 5734.09,557.261 5734.09,530.161C5734.09,502.961 5717.39,485.561 5715.09,485.561C5714.39,485.561 5713.89,486.061 5713.89,486.761C5713.89,487.161 5713.99,487.661 5714.39,488.061C5724.19,499.761 5728.79,515.961 5728.79,530.161C5728.79,544.361 5724.19,560.561 5714.39,572.261C5713.99,572.661 5713.89,573.161 5713.89,573.561C5713.89,574.261 5714.39,574.761 5715.09,574.761ZM5663.59,550.061C5663.59,551.761 5663.39,555.861 5663.39,557.161C5663.39,558.461 5665.59,559.361 5667.19,559.361C5667.89,559.361 5668.49,559.161 5668.49,558.561C5668.39,556.461 5668.29,551.761 5668.29,549.561L5668.29,509.261C5668.29,506.961 5668.79,505.561 5668.79,504.261C5668.79,502.761 5666.99,501.261 5665.79,501.261C5664.59,501.261 5662.89,503.561 5662.29,504.061C5659.8,505.961 5655.99,508.061 5651.99,509.661C5651.4,509.861 5651.19,510.161 5651.19,510.461C5651.19,511.361 5652.99,512.261 5654.4,512.261C5654.69,512.261 5654.99,512.261 5655.19,512.161C5657.99,511.361 5661.29,510.061 5663.59,508.661L5663.59,550.061Z" style="fill-rule:nonzero;"/>
        </g>
    </g>
</svg>
