<?xml version="1.0" encoding="UTF-8" standalone="no"?>
<!DOCTYPE svg PUBLIC "-//W3C//DTD SVG 1.1//EN" "http://www.w3.org/Graphics/SVG/1.1/DTD/svg11.dtd">
<svg width="100%" height="100%" viewBox="0 0 98 90" version="1.1" xmlns="http://www.w3.org/2000/svg" xmlns:xlink="http://www.w3.org/1999/xlink" xml:space="preserve" xmlns:serif="http://www.serif.com/" style="fill-rule:evenodd;clip-rule:evenodd;stroke-linejoin:round;stroke-miterlimit:2;">
    <g transform="matrix(1,0,0,1,-5937.37,-635.561)">
        <g transform="matrix(1,0,0,1,1,0)">
            <path d="M6009.56,709.261C6011.56,709.161 6012.76,708.661 6012.86,707.561C6013.56,698.961 6018.16,674.961 6021.86,659.161C6021.96,658.661 6022.56,657.261 6022.86,656.161L6022.86,655.861C6022.86,654.661 6021.26,653.161 6019.46,653.161C6017.76,653.161 6018.16,655.661 6017.56,657.861C6016.46,655.561 6012.66,650.861 6004.76,650.861C5993.56,650.861 5985.06,661.661 5985.06,672.561C5985.06,681.761 5990.26,687.061 5997.86,687.061C6003.76,687.061 6009.96,683.361 6013.46,677.661L6007.96,705.961C6007.86,706.661 6007.56,707.361 6007.56,707.961C6007.56,708.761 6007.96,709.261 6009.36,709.261L6009.56,709.261ZM6015.96,665.361C6012.66,675.361 6006.16,682.661 5997.76,682.661C5992.46,682.661 5989.76,679.161 5989.76,672.261C5989.76,664.861 5995.36,655.061 6005.16,655.061C6010.96,655.061 6013.36,658.961 6014.46,661.161C6014.76,661.861 6015.16,662.161 6015.66,662.161C6016.06,662.161 6016.46,661.861 6016.86,661.461L6015.96,665.361ZM5954.16,708.661C5958.36,707.661 5964.46,707.661 5966.16,707.661C5976.06,707.661 5982.86,708.261 5982.86,708.261C5983.46,708.261 5983.76,707.861 5983.76,707.161C5983.76,705.761 5982.56,703.561 5981.36,703.561C5980.36,703.561 5977.76,703.661 5976.46,703.661C5973.26,703.661 5970.76,703.561 5966.96,703.561C5963.96,703.561 5959.56,703.761 5956.66,704.061C5959.36,698.661 5964.06,690.561 5970.86,684.161C5978.06,677.361 5983.16,671.661 5983.16,664.261C5983.16,656.461 5977.76,650.861 5969.26,650.861C5961.36,650.861 5955.96,654.961 5952.86,660.861C5952.57,661.261 5952.47,661.761 5952.47,662.261C5952.47,663.161 5952.97,664.061 5954.16,665.061C5954.56,665.461 5954.86,665.561 5955.26,665.561C5956.06,665.561 5956.66,664.761 5957.06,663.661C5958.76,658.861 5962.96,655.061 5969.06,655.061C5974.96,655.061 5978.36,659.261 5978.36,664.261C5978.36,669.561 5974.36,674.561 5967.96,680.761C5961.46,687.061 5956.06,695.761 5953.07,701.561C5952.66,702.361 5952.16,703.061 5951.47,703.961C5951.27,704.261 5951.16,704.661 5951.16,705.161C5951.16,706.761 5952.47,708.661 5953.86,708.661L5954.16,708.661ZM5956.56,723.561C5956.56,723.161 5956.46,722.661 5956.06,722.261C5946.27,710.561 5941.67,694.361 5941.67,680.161C5941.67,665.961 5946.27,649.761 5956.06,638.061C5956.46,637.661 5956.56,637.161 5956.56,636.761C5956.56,636.061 5956.06,635.561 5955.36,635.561C5953.07,635.561 5936.37,652.961 5936.37,680.161C5936.37,707.261 5953.07,724.761 5955.36,724.761C5956.06,724.761 5956.56,724.261 5956.56,723.561ZM6015.06,724.761C6017.36,724.761 6034.06,707.261 6034.06,680.161C6034.06,652.961 6017.36,635.561 6015.06,635.561C6014.36,635.561 6013.86,636.061 6013.86,636.761C6013.86,637.161 6013.96,637.661 6014.36,638.061C6024.16,649.761 6028.76,665.961 6028.76,680.161C6028.76,694.361 6024.16,710.561 6014.36,722.261C6013.96,722.661 6013.86,723.161 6013.86,723.561C6013.86,724.261 6014.36,724.761 6015.06,724.761Z" style="fill-rule:nonzero;"/>
        </g>
    </g>
</svg>
