<?xml version="1.0" encoding="UTF-8" standalone="no"?>
<!DOCTYPE svg PUBLIC "-//W3C//DTD SVG 1.1//EN" "http://www.w3.org/Graphics/SVG/1.1/DTD/svg11.dtd">
<svg width="100%" height="100%" viewBox="0 0 98 90" version="1.1" xmlns="http://www.w3.org/2000/svg" xmlns:xlink="http://www.w3.org/1999/xlink" xml:space="preserve" xmlns:serif="http://www.serif.com/" style="fill-rule:evenodd;clip-rule:evenodd;stroke-linejoin:round;stroke-miterlimit:2;">
    <g transform="matrix(1,0,0,1,-5637.4,-785.561)">
        <g transform="matrix(1,0,0,1,1,0)">
            <path d="M5702.69,803.461C5699.39,808.261 5695.99,814.261 5692.19,821.461C5688.39,828.961 5686.39,835.761 5686.39,842.561C5686.39,851.961 5694.09,859.661 5704.39,859.661C5715.59,859.661 5722.39,851.261 5722.39,840.361C5722.39,830.561 5715.69,823.361 5705.79,823.361C5700.29,823.361 5695.79,825.761 5692.99,829.661C5695.79,823.861 5701.29,812.761 5708.59,804.261C5708.89,803.861 5709.49,803.161 5709.49,802.561C5709.49,801.561 5707.39,800.761 5705.99,800.761C5705.09,800.761 5704.29,801.061 5703.89,801.761L5702.69,803.461ZM5704.39,855.561C5696.59,855.561 5691.09,849.861 5691.09,842.461C5691.09,834.461 5696.79,827.461 5705.69,827.461C5713.09,827.461 5717.59,833.661 5717.59,840.561C5717.59,849.361 5711.99,855.561 5704.39,855.561ZM5670.19,826.861C5677.09,825.061 5682.29,820.061 5682.29,813.261C5682.29,805.461 5676.49,800.861 5667.79,800.861C5657.6,800.861 5650.8,807.561 5650.8,809.661C5650.8,811.461 5652.4,813.061 5653.19,813.061C5653.99,813.061 5654.6,812.061 5654.9,811.761C5658.9,807.161 5662.99,805.061 5667.89,805.061C5673.99,805.061 5677.59,808.361 5677.59,813.761C5677.59,821.261 5667.29,825.561 5659.6,826.061C5658.99,826.161 5658.69,826.661 5658.69,827.261C5658.69,828.561 5659.8,830.461 5661.19,830.461C5661.39,830.461 5661.49,830.361 5661.69,830.361C5661.79,830.361 5664.89,829.661 5667.79,829.661C5674.89,829.661 5679.99,834.261 5679.99,840.861C5679.99,848.261 5675.69,855.361 5664.79,855.361C5659.19,855.361 5655.69,852.561 5652.3,848.361C5651.99,848.061 5651.8,847.861 5651.49,847.861C5650.3,847.861 5649.2,849.961 5649.2,851.561C5649.2,852.261 5649.3,852.761 5649.7,853.161C5653.99,857.361 5658.8,859.661 5664.79,859.661C5678.99,859.661 5684.79,850.961 5684.79,840.761C5684.79,832.161 5678.39,826.861 5671.19,826.861L5670.19,826.861ZM5656.6,873.561C5656.6,873.161 5656.49,872.661 5656.1,872.261C5646.3,860.561 5641.7,844.361 5641.7,830.161C5641.7,815.961 5646.3,799.761 5656.1,788.061C5656.49,787.661 5656.6,787.161 5656.6,786.761C5656.6,786.061 5656.1,785.561 5655.4,785.561C5653.1,785.561 5636.4,802.961 5636.4,830.161C5636.4,857.261 5653.1,874.761 5655.4,874.761C5656.1,874.761 5656.6,874.261 5656.6,873.561ZM5715.09,874.761C5717.39,874.761 5734.09,857.261 5734.09,830.161C5734.09,802.961 5717.39,785.561 5715.09,785.561C5714.39,785.561 5713.89,786.061 5713.89,786.761C5713.89,787.161 5713.99,787.661 5714.39,788.061C5724.19,799.761 5728.79,815.961 5728.79,830.161C5728.79,844.361 5724.19,860.561 5714.39,872.261C5713.99,872.661 5713.89,873.161 5713.89,873.561C5713.89,874.261 5714.39,874.761 5715.09,874.761Z" style="fill-rule:nonzero;"/>
        </g>
    </g>
</svg>
