<?xml version="1.0" encoding="UTF-8" standalone="no"?>
<!DOCTYPE svg PUBLIC "-//W3C//DTD SVG 1.1//EN" "http://www.w3.org/Graphics/SVG/1.1/DTD/svg11.dtd">
<svg width="100%" height="100%" viewBox="0 0 98 90" version="1.1" xmlns="http://www.w3.org/2000/svg" xmlns:xlink="http://www.w3.org/1999/xlink" xml:space="preserve" xmlns:serif="http://www.serif.com/" style="fill-rule:evenodd;clip-rule:evenodd;stroke-linejoin:round;stroke-miterlimit:2;">
    <g transform="matrix(1,0,0,1,-5437.42,-635.561)">
        <g transform="matrix(1,0,0,1,1,0)">
            <path d="M5454.02,708.661C5458.22,707.661 5464.32,707.661 5466.01,707.661C5475.91,707.661 5482.71,708.261 5482.71,708.261C5483.41,708.261 5483.71,707.661 5483.71,706.861C5483.71,705.461 5482.81,703.561 5481.71,703.561C5480.71,703.561 5477.61,703.661 5476.31,703.661C5473.11,703.661 5470.61,703.561 5466.81,703.561C5463.82,703.561 5459.41,703.761 5456.52,704.061C5459.22,698.661 5463.91,690.561 5470.71,684.161C5477.91,677.361 5483.01,671.661 5483.01,664.261C5483.01,656.461 5477.61,650.861 5469.11,650.861C5461.22,650.861 5455.82,654.961 5452.72,660.861C5452.42,661.261 5452.32,661.761 5452.32,662.261C5452.32,663.161 5452.82,664.061 5454.02,665.061C5454.42,665.461 5454.72,665.561 5455.11,665.561C5455.91,665.561 5456.52,664.761 5456.91,663.661C5458.61,658.861 5462.82,655.061 5468.91,655.061C5474.81,655.061 5478.21,659.261 5478.21,664.261C5478.21,669.561 5474.21,674.561 5467.81,680.761C5461.32,687.061 5455.91,695.761 5452.92,701.561C5452.52,702.361 5452.02,703.061 5451.32,703.961C5451.12,704.261 5451.02,704.661 5451.02,705.161C5451.02,706.761 5452.32,708.661 5453.72,708.661L5454.02,708.661ZM5515.11,724.761C5517.41,724.761 5534.11,707.261 5534.11,680.161C5534.11,652.961 5517.41,635.561 5515.11,635.561C5514.41,635.561 5513.91,636.061 5513.91,636.761C5513.91,637.161 5514.01,637.661 5514.41,638.061C5524.21,649.761 5528.81,665.961 5528.81,680.161C5528.81,694.361 5524.21,710.561 5514.41,722.261C5514.01,722.661 5513.91,723.161 5513.91,723.561C5513.91,724.261 5514.41,724.761 5515.11,724.761ZM5456.61,723.561C5456.61,723.161 5456.52,722.661 5456.11,722.261C5446.32,710.561 5441.72,694.361 5441.72,680.161C5441.72,665.961 5446.32,649.761 5456.11,638.061C5456.52,637.661 5456.61,637.161 5456.61,636.761C5456.61,636.061 5456.11,635.561 5455.41,635.561C5453.12,635.561 5436.42,652.961 5436.42,680.161C5436.42,707.261 5453.12,724.761 5455.41,724.761C5456.11,724.761 5456.61,724.261 5456.61,723.561ZM5515.81,695.261C5518.11,695.261 5521.11,695.461 5522.01,695.461C5522.61,695.461 5522.81,695.061 5522.81,694.361C5522.81,692.961 5521.61,690.761 5520.31,690.761C5519.31,690.761 5516.01,691.161 5514.61,691.261L5512.71,691.361L5512.71,674.661C5512.71,672.661 5512.91,668.761 5512.91,667.461C5512.91,666.061 5510.71,665.161 5509.21,665.161C5508.41,665.161 5507.81,665.461 5507.81,665.961C5507.81,667.861 5508.01,673.061 5508.01,674.661L5508.01,691.561L5489.51,691.961C5495.21,682.761 5502.71,669.261 5507.31,660.461C5508.11,658.961 5508.91,657.761 5510.11,655.961C5510.21,655.761 5510.31,655.461 5510.31,655.161C5510.31,653.461 5508.01,651.061 5506.71,651.061C5506.31,651.061 5506.11,651.161 5505.91,651.561C5503.81,657.761 5492.51,678.161 5486.81,687.661C5486.11,688.761 5485.01,689.961 5484.11,691.361C5483.71,691.861 5483.61,692.461 5483.61,692.961C5483.61,694.861 5485.51,696.661 5487.11,696.661C5487.31,696.661 5487.41,696.561 5487.61,696.561C5488.81,696.261 5490.01,696.061 5490.61,696.061L5508.01,695.561L5508.01,699.961C5508.01,701.161 5507.81,705.761 5507.81,707.061C5507.81,708.461 5510.11,709.361 5511.71,709.361C5512.51,709.361 5513.11,709.061 5513.11,708.561C5513.11,706.661 5512.81,703.461 5512.71,700.161L5512.71,695.361L5514.71,695.261L5515.81,695.261Z" style="fill-rule:nonzero;"/>
        </g>
    </g>
</svg>
