<?xml version="1.0" encoding="UTF-8" standalone="no"?>
<!DOCTYPE svg PUBLIC "-//W3C//DTD SVG 1.1//EN" "http://www.w3.org/Graphics/SVG/1.1/DTD/svg11.dtd">
<svg width="100%" height="100%" viewBox="0 0 98 90" version="1.1" xmlns="http://www.w3.org/2000/svg" xmlns:xlink="http://www.w3.org/1999/xlink" xml:space="preserve" xmlns:serif="http://www.serif.com/" style="fill-rule:evenodd;clip-rule:evenodd;stroke-linejoin:round;stroke-miterlimit:2;">
    <g transform="matrix(1,0,0,1,-6037.36,-785.561)">
        <g transform="matrix(1,0,0,1,1,0)">
            <path d="M6115.05,874.761C6117.35,874.761 6134.05,857.261 6134.05,830.161C6134.05,802.961 6117.35,785.561 6115.05,785.561C6114.35,785.561 6113.85,786.061 6113.85,786.761C6113.85,787.161 6113.95,787.661 6114.35,788.061C6124.15,799.761 6128.75,815.961 6128.75,830.161C6128.75,844.361 6124.15,860.561 6114.35,872.261C6113.95,872.661 6113.85,873.161 6113.85,873.561C6113.85,874.261 6114.35,874.761 6115.05,874.761ZM6056.55,873.561C6056.55,873.161 6056.45,872.661 6056.05,872.261C6046.26,860.561 6041.66,844.361 6041.66,830.161C6041.66,815.961 6046.26,799.761 6056.05,788.061C6056.45,787.661 6056.55,787.161 6056.55,786.761C6056.55,786.061 6056.05,785.561 6055.35,785.561C6053.05,785.561 6036.36,802.961 6036.36,830.161C6036.36,857.261 6053.05,874.761 6055.35,874.761C6056.05,874.761 6056.55,874.261 6056.55,873.561ZM6095.45,805.761C6095.15,805.161 6094.35,805.161 6094.25,805.161C6092.15,805.161 6086.85,816.361 6086.85,831.061C6086.85,847.561 6092.15,859.661 6103.15,859.661C6114.75,859.661 6120.35,845.561 6120.35,828.961C6120.35,812.661 6114.95,800.761 6105.05,800.761C6101.15,800.761 6097.85,802.761 6095.45,805.761ZM6078.15,845.361C6080.35,845.361 6083.35,845.561 6084.45,845.561C6085.05,845.561 6085.25,845.061 6085.25,844.461C6085.25,843.061 6084.05,840.761 6082.75,840.761C6081.75,840.761 6079.45,841.161 6078.05,841.261L6076.65,841.361L6076.65,824.661C6076.65,822.661 6076.85,818.761 6076.85,817.461C6076.85,816.061 6074.65,815.161 6073.15,815.161C6072.35,815.161 6071.75,815.461 6071.75,815.961C6071.75,817.861 6071.95,823.061 6071.95,824.661L6071.95,841.561L6052.95,841.961C6058.65,832.361 6065.95,819.361 6070.45,810.461C6071.15,809.161 6072.35,807.261 6073.25,805.961C6073.45,805.761 6073.45,805.461 6073.45,805.161C6073.45,803.461 6071.15,801.061 6069.85,801.061C6069.45,801.061 6069.15,801.161 6069.05,801.561C6065.85,809.661 6059.05,822.861 6050.26,837.661C6049.56,838.761 6048.45,839.961 6047.56,841.361C6047.15,841.861 6047.06,842.461 6047.06,842.961C6047.06,844.861 6048.95,846.661 6050.56,846.661C6050.76,846.661 6050.86,846.561 6051.06,846.561C6052.26,846.261 6053.45,846.061 6054.05,846.061L6071.95,845.561L6071.95,849.961C6071.95,851.161 6071.75,855.761 6071.75,857.061C6071.75,858.461 6074.05,859.361 6075.65,859.361C6076.45,859.361 6077.05,859.061 6077.05,858.561C6077.05,856.661 6076.75,853.461 6076.65,850.161L6076.65,845.361L6078.15,845.361ZM6102.85,855.361C6094.35,855.361 6091.45,844.161 6091.45,830.961C6091.45,813.561 6098.95,804.861 6104.75,804.861C6112.85,804.861 6115.75,817.161 6115.75,828.361C6115.75,842.061 6112.15,855.361 6102.85,855.361Z" style="fill-rule:nonzero;"/>
        </g>
    </g>
</svg>
