<?xml version="1.0" encoding="UTF-8" standalone="no"?>
<!DOCTYPE svg PUBLIC "-//W3C//DTD SVG 1.1//EN" "http://www.w3.org/Graphics/SVG/1.1/DTD/svg11.dtd">
<svg width="100%" height="100%" viewBox="0 0 98 90" version="1.1" xmlns="http://www.w3.org/2000/svg" xmlns:xlink="http://www.w3.org/1999/xlink" xml:space="preserve" xmlns:serif="http://www.serif.com/" style="fill-rule:evenodd;clip-rule:evenodd;stroke-linejoin:round;stroke-miterlimit:2;">
    <g transform="matrix(1,0,0,1,-5337.43,-785.561)">
        <g transform="matrix(1,0,0,1,1,0)">
            <path d="M5415.12,874.761C5417.42,874.761 5434.12,857.261 5434.12,830.161C5434.12,802.961 5417.42,785.561 5415.12,785.561C5414.42,785.561 5413.92,786.061 5413.92,786.761C5413.92,787.161 5414.02,787.661 5414.42,788.061C5424.22,799.761 5428.82,815.961 5428.82,830.161C5428.82,844.361 5424.22,860.561 5414.42,872.261C5414.02,872.661 5413.92,873.161 5413.92,873.561C5413.92,874.261 5414.42,874.761 5415.12,874.761ZM5356.63,873.561C5356.63,873.161 5356.53,872.661 5356.13,872.261C5346.33,860.561 5341.73,844.361 5341.73,830.161C5341.73,815.961 5346.33,799.761 5356.13,788.061C5356.53,787.661 5356.63,787.161 5356.63,786.761C5356.63,786.061 5356.13,785.561 5355.43,785.561C5353.13,785.561 5336.43,802.961 5336.43,830.161C5336.43,857.261 5353.13,874.761 5355.43,874.761C5356.13,874.761 5356.63,874.261 5356.63,873.561ZM5407.22,826.861C5414.12,825.061 5419.32,820.061 5419.32,813.261C5419.32,805.461 5413.52,800.861 5404.82,800.861C5394.62,800.861 5387.82,807.561 5387.82,809.661C5387.82,811.461 5389.42,813.061 5390.22,813.061C5391.02,813.061 5391.62,812.061 5391.92,811.761C5395.92,807.161 5400.02,805.061 5404.92,805.061C5411.02,805.061 5414.62,808.361 5414.62,813.761C5414.62,821.261 5404.32,825.561 5396.62,826.061C5396.02,826.161 5395.72,826.661 5395.72,827.261C5395.72,828.561 5396.82,830.461 5398.22,830.461C5398.42,830.461 5398.52,830.361 5398.72,830.361C5398.82,830.361 5401.92,829.661 5404.82,829.661C5411.92,829.661 5417.02,834.261 5417.02,840.861C5417.02,848.261 5412.72,855.361 5401.82,855.361C5396.22,855.361 5392.72,852.561 5389.32,848.361C5389.02,848.061 5388.82,847.861 5388.52,847.861C5387.32,847.861 5386.22,849.961 5386.22,851.561C5386.22,852.261 5386.32,852.761 5386.72,853.161C5391.02,857.361 5395.82,859.661 5401.82,859.661C5416.02,859.661 5421.82,850.961 5421.82,840.761C5421.82,832.161 5415.42,826.861 5408.22,826.861L5407.22,826.861ZM5369.82,826.861C5376.72,825.061 5381.92,820.061 5381.92,813.261C5381.92,805.461 5376.12,800.861 5367.42,800.861C5357.23,800.861 5350.43,807.561 5350.43,809.661C5350.43,811.461 5352.03,813.061 5352.83,813.061C5353.63,813.061 5354.23,812.061 5354.53,811.761C5358.53,807.161 5362.62,805.061 5367.52,805.061C5373.62,805.061 5377.22,808.361 5377.22,813.761C5377.22,821.261 5366.92,825.561 5359.23,826.061C5358.62,826.161 5358.32,826.661 5358.32,827.261C5358.32,828.561 5359.43,830.461 5360.82,830.461C5361.03,830.461 5361.12,830.361 5361.32,830.361C5361.43,830.361 5364.53,829.661 5367.42,829.661C5374.52,829.661 5379.62,834.261 5379.62,840.861C5379.62,848.261 5375.32,855.361 5364.43,855.361C5358.82,855.361 5355.33,852.561 5351.93,848.361C5351.63,848.061 5351.43,847.861 5351.13,847.861C5349.93,847.861 5348.83,849.961 5348.83,851.561C5348.83,852.261 5348.93,852.761 5349.33,853.161C5353.63,857.361 5358.43,859.661 5364.43,859.661C5378.62,859.661 5384.42,850.961 5384.42,840.761C5384.42,832.161 5378.02,826.861 5370.82,826.861L5369.82,826.861Z" style="fill-rule:nonzero;"/>
        </g>
    </g>
</svg>
