<?xml version="1.0" encoding="UTF-8" standalone="no"?>
<!DOCTYPE svg PUBLIC "-//W3C//DTD SVG 1.1//EN" "http://www.w3.org/Graphics/SVG/1.1/DTD/svg11.dtd">
<svg width="100%" height="100%" viewBox="0 0 98 90" version="1.1" xmlns="http://www.w3.org/2000/svg" xmlns:xlink="http://www.w3.org/1999/xlink" xml:space="preserve" xmlns:serif="http://www.serif.com/" style="fill-rule:evenodd;clip-rule:evenodd;stroke-linejoin:round;stroke-miterlimit:2;">
    <g transform="matrix(1,0,0,1,-5137.45,-935.561)">
        <g transform="matrix(1,0,0,1,1,0)">
            <path d="M5215.14,1024.76C5217.44,1024.76 5234.14,1007.26 5234.14,980.161C5234.14,952.961 5217.44,935.561 5215.14,935.561C5214.44,935.561 5213.94,936.061 5213.94,936.761C5213.94,937.161 5214.04,937.661 5214.44,938.061C5224.24,949.761 5228.84,965.961 5228.84,980.161C5228.84,994.361 5224.24,1010.56 5214.44,1022.26C5214.04,1022.66 5213.94,1023.16 5213.94,1023.56C5213.94,1024.26 5214.44,1024.76 5215.14,1024.76ZM5156.65,1023.56C5156.65,1023.16 5156.55,1022.66 5156.15,1022.26C5146.35,1010.56 5141.75,994.361 5141.75,980.161C5141.75,965.961 5146.35,949.761 5156.15,938.061C5156.55,937.661 5156.65,937.161 5156.65,936.761C5156.65,936.061 5156.15,935.561 5155.45,935.561C5153.15,935.561 5136.45,952.961 5136.45,980.161C5136.45,1007.26 5153.15,1024.76 5155.45,1024.76C5156.15,1024.76 5156.65,1024.26 5156.65,1023.56ZM5180.84,995.361C5183.04,995.361 5186.04,995.561 5187.14,995.561C5187.74,995.561 5187.94,995.061 5187.94,994.461C5187.94,993.061 5186.74,990.761 5185.44,990.761C5184.44,990.761 5182.14,991.161 5180.74,991.261L5179.34,991.361L5179.34,974.661C5179.34,972.661 5179.54,968.761 5179.54,967.461C5179.54,966.061 5177.34,965.161 5175.84,965.161C5175.04,965.161 5174.44,965.461 5174.44,965.961C5174.44,967.861 5174.64,973.061 5174.64,974.661L5174.64,991.561L5155.65,991.961C5161.35,982.361 5168.65,969.361 5173.14,960.461C5173.84,959.161 5175.04,957.261 5175.94,955.961C5176.14,955.761 5176.14,955.461 5176.14,955.161C5176.14,953.461 5173.84,951.061 5172.54,951.061C5172.14,951.061 5171.84,951.161 5171.74,951.561C5168.55,959.661 5161.74,972.861 5152.95,987.661C5152.25,988.761 5151.15,989.961 5150.25,991.361C5149.85,991.861 5149.75,992.461 5149.75,992.961C5149.75,994.861 5151.65,996.661 5153.25,996.661C5153.45,996.661 5153.55,996.561 5153.75,996.561C5154.95,996.261 5156.15,996.061 5156.75,996.061L5174.64,995.561L5174.64,999.961C5174.64,1001.16 5174.44,1005.76 5174.44,1007.06C5174.44,1008.46 5176.74,1009.36 5178.34,1009.36C5179.14,1009.36 5179.74,1009.06 5179.74,1008.56C5179.74,1006.66 5179.44,1003.46 5179.34,1000.16L5179.34,995.361L5180.84,995.361ZM5204.14,1000.06C5204.14,1001.76 5203.94,1005.86 5203.94,1007.16C5203.94,1008.46 5206.14,1009.36 5207.74,1009.36C5208.44,1009.36 5209.04,1009.16 5209.04,1008.56C5208.94,1006.46 5208.84,1001.76 5208.84,999.561L5208.84,959.261C5208.84,956.961 5209.34,955.561 5209.34,954.261C5209.34,952.761 5207.54,951.261 5206.34,951.261C5205.14,951.261 5203.44,953.561 5202.84,954.061C5200.34,955.961 5196.54,958.061 5192.54,959.661C5191.94,959.861 5191.74,960.161 5191.74,960.461C5191.74,961.361 5193.54,962.261 5194.94,962.261C5195.24,962.261 5195.54,962.261 5195.74,962.161C5198.54,961.361 5201.84,960.061 5204.14,958.661L5204.14,1000.06Z" style="fill-rule:nonzero;"/>
        </g>
    </g>
</svg>
