<?xml version="1.0" encoding="UTF-8" standalone="no"?>
<!DOCTYPE svg PUBLIC "-//W3C//DTD SVG 1.1//EN" "http://www.w3.org/Graphics/SVG/1.1/DTD/svg11.dtd">
<svg width="100%" height="100%" viewBox="0 0 98 90" version="1.1" xmlns="http://www.w3.org/2000/svg" xmlns:xlink="http://www.w3.org/1999/xlink" xml:space="preserve" xmlns:serif="http://www.serif.com/" style="fill-rule:evenodd;clip-rule:evenodd;stroke-linejoin:round;stroke-miterlimit:2;">
    <g transform="matrix(1,0,0,1,-5137.45,-635.561)">
        <g transform="matrix(1,0,0,1,1,0)">
            <path d="M5157.05,708.661C5161.24,707.661 5167.35,707.661 5169.05,707.661C5176.24,707.661 5183.04,707.961 5186.24,708.261C5186.84,708.261 5187.14,707.861 5187.14,707.161C5187.14,705.761 5185.94,703.561 5184.74,703.561C5183.74,703.561 5181.14,703.661 5179.84,703.661C5176.64,703.661 5173.64,703.561 5169.85,703.561C5166.85,703.561 5162.44,703.761 5159.55,704.061C5162.24,698.661 5167.44,690.561 5174.24,684.161C5181.44,677.361 5186.54,671.661 5186.54,664.261C5186.54,656.461 5181.14,650.861 5172.64,650.861C5164.74,650.861 5159.35,654.961 5156.25,660.861C5155.95,661.261 5155.85,661.761 5155.85,662.261C5155.85,663.161 5156.35,664.061 5157.55,665.061C5157.95,665.461 5158.25,665.561 5158.65,665.561C5159.45,665.561 5160.05,664.761 5160.45,663.661C5162.15,658.861 5166.35,655.061 5172.44,655.061C5178.34,655.061 5181.74,659.261 5181.74,664.261C5181.74,669.561 5177.74,674.561 5171.34,680.761C5164.85,687.061 5158.95,695.761 5155.95,701.561C5155.55,702.361 5155.05,703.061 5154.35,703.961C5154.15,704.261 5154.05,704.661 5154.05,705.161C5154.05,706.761 5155.35,708.661 5156.75,708.661L5157.05,708.661ZM5215.14,724.761C5217.44,724.761 5234.14,707.261 5234.14,680.161C5234.14,652.961 5217.44,635.561 5215.14,635.561C5214.44,635.561 5213.94,636.061 5213.94,636.761C5213.94,637.161 5214.04,637.661 5214.44,638.061C5224.24,649.761 5228.84,665.961 5228.84,680.161C5228.84,694.361 5224.24,710.561 5214.44,722.261C5214.04,722.661 5213.94,723.161 5213.94,723.561C5213.94,724.261 5214.44,724.761 5215.14,724.761ZM5156.65,723.561C5156.65,723.161 5156.55,722.661 5156.15,722.261C5146.35,710.561 5141.75,694.361 5141.75,680.161C5141.75,665.961 5146.35,649.761 5156.15,638.061C5156.55,637.661 5156.65,637.161 5156.65,636.761C5156.65,636.061 5156.15,635.561 5155.45,635.561C5153.15,635.561 5136.45,652.961 5136.45,680.161C5136.45,707.261 5153.15,724.761 5155.45,724.761C5156.15,724.761 5156.65,724.261 5156.65,723.561ZM5204.34,700.061C5204.34,701.761 5204.14,705.861 5204.14,707.161C5204.14,708.461 5206.34,709.361 5207.94,709.361C5208.64,709.361 5209.24,709.161 5209.24,708.561C5209.14,706.461 5209.04,701.761 5209.04,699.561L5209.04,659.261C5209.04,656.961 5209.54,655.561 5209.54,654.261C5209.54,652.761 5207.74,651.261 5206.54,651.261C5205.34,651.261 5203.64,653.561 5203.04,654.061C5200.54,655.961 5196.74,658.061 5192.74,659.661C5192.14,659.861 5191.94,660.161 5191.94,660.461C5191.94,661.361 5193.74,662.261 5195.14,662.261C5195.44,662.261 5195.74,662.261 5195.94,662.161C5198.74,661.361 5202.04,660.061 5204.34,658.661L5204.34,700.061Z" style="fill-rule:nonzero;"/>
        </g>
    </g>
</svg>
