<?xml version="1.0" encoding="UTF-8" standalone="no"?>
<!DOCTYPE svg PUBLIC "-//W3C//DTD SVG 1.1//EN" "http://www.w3.org/Graphics/SVG/1.1/DTD/svg11.dtd">
<svg width="100%" height="100%" viewBox="0 0 98 90" version="1.1" xmlns="http://www.w3.org/2000/svg" xmlns:xlink="http://www.w3.org/1999/xlink" xml:space="preserve" xmlns:serif="http://www.serif.com/" style="fill-rule:evenodd;clip-rule:evenodd;stroke-linejoin:round;stroke-miterlimit:2;">
    <g transform="matrix(1,0,0,1,-5537.41,-785.561)">
        <g transform="matrix(1,0,0,1,1,0)">
            <path d="M5617.3,806.361C5617.9,806.361 5618.2,805.861 5618.2,805.261C5618.2,803.961 5617,801.861 5615.9,801.861L5615.7,801.861C5614.3,802.161 5612,802.361 5610.5,802.361L5595.3,803.261C5594.2,802.761 5593,802.361 5592.2,802.361C5591.5,802.361 5591.1,802.561 5591.1,803.261C5591.1,804.261 5591.1,805.661 5590.9,806.761L5588.9,826.461C5588.6,827.461 5588.1,829.861 5588.1,830.161C5588.1,832.161 5590.1,833.661 5591.4,833.661C5592,833.661 5592.7,832.961 5594.3,831.361C5597,828.761 5600.5,826.961 5604.7,826.961C5612,826.961 5616.7,831.961 5616.7,840.261C5616.7,848.061 5612.5,855.261 5601.9,855.261C5595.9,855.261 5592.1,851.461 5589.2,847.161C5589,846.761 5588.7,846.561 5588.4,846.561C5587.3,846.561 5586,848.761 5586,850.561C5586,853.261 5593.8,859.661 5601.9,859.661C5615.8,859.661 5621.4,850.461 5621.4,840.161C5621.4,829.161 5614.1,822.761 5605.5,822.761C5600.1,822.761 5596.4,824.461 5593.1,827.261L5595.2,807.661L5611.1,806.661L5617.3,806.361ZM5570.1,826.861C5577,825.061 5582.2,820.061 5582.2,813.261C5582.2,805.461 5576.4,800.861 5567.7,800.861C5557.51,800.861 5550.71,807.561 5550.71,809.661C5550.71,811.461 5552.31,813.061 5553.11,813.061C5553.9,813.061 5554.51,812.061 5554.81,811.761C5558.81,807.161 5562.9,805.061 5567.8,805.061C5573.9,805.061 5577.5,808.361 5577.5,813.761C5577.5,821.261 5567.2,825.561 5559.51,826.061C5558.9,826.161 5558.61,826.661 5558.61,827.261C5558.61,828.561 5559.7,830.461 5561.11,830.461C5561.31,830.461 5561.4,830.361 5561.61,830.361C5561.7,830.361 5564.8,829.661 5567.7,829.661C5574.8,829.661 5579.9,834.261 5579.9,840.861C5579.9,848.261 5575.6,855.361 5564.7,855.361C5559.11,855.361 5555.61,852.561 5552.21,848.361C5551.91,848.061 5551.71,847.861 5551.41,847.861C5550.21,847.861 5549.11,849.961 5549.11,851.561C5549.11,852.261 5549.21,852.761 5549.61,853.161C5553.9,857.361 5558.7,859.661 5564.7,859.661C5578.9,859.661 5584.7,850.961 5584.7,840.761C5584.7,832.161 5578.3,826.861 5571.1,826.861L5570.1,826.861ZM5556.61,873.561C5556.61,873.161 5556.51,872.661 5556.11,872.261C5546.31,860.561 5541.71,844.361 5541.71,830.161C5541.71,815.961 5546.31,799.761 5556.11,788.061C5556.51,787.661 5556.61,787.161 5556.61,786.761C5556.61,786.061 5556.11,785.561 5555.4,785.561C5553.11,785.561 5536.41,802.961 5536.41,830.161C5536.41,857.261 5553.11,874.761 5555.4,874.761C5556.11,874.761 5556.61,874.261 5556.61,873.561ZM5615.1,874.761C5617.4,874.761 5634.1,857.261 5634.1,830.161C5634.1,802.961 5617.4,785.561 5615.1,785.561C5614.4,785.561 5613.9,786.061 5613.9,786.761C5613.9,787.161 5614,787.661 5614.4,788.061C5624.2,799.761 5628.8,815.961 5628.8,830.161C5628.8,844.361 5624.2,860.561 5614.4,872.261C5614,872.661 5613.9,873.161 5613.9,873.561C5613.9,874.261 5614.4,874.761 5615.1,874.761Z" style="fill-rule:nonzero;"/>
        </g>
    </g>
</svg>
