<?xml version="1.0" encoding="UTF-8" standalone="no"?>
<!DOCTYPE svg PUBLIC "-//W3C//DTD SVG 1.1//EN" "http://www.w3.org/Graphics/SVG/1.1/DTD/svg11.dtd">
<svg width="100%" height="100%" viewBox="0 0 98 90" version="1.1" xmlns="http://www.w3.org/2000/svg" xmlns:xlink="http://www.w3.org/1999/xlink" xml:space="preserve" xmlns:serif="http://www.serif.com/" style="fill-rule:evenodd;clip-rule:evenodd;stroke-linejoin:round;stroke-miterlimit:2;">
    <g transform="matrix(1,0,0,1,-5737.39,-485.561)">
        <g transform="matrix(1,0,0,1,1,0)">
            <path d="M5815.08,574.761C5817.38,574.761 5834.08,557.261 5834.08,530.161C5834.08,502.961 5817.38,485.561 5815.08,485.561C5814.38,485.561 5813.88,486.061 5813.88,486.761C5813.88,487.161 5813.98,487.661 5814.38,488.061C5824.18,499.761 5828.78,515.961 5828.78,530.161C5828.78,544.361 5824.18,560.561 5814.38,572.261C5813.98,572.661 5813.88,573.161 5813.88,573.561C5813.88,574.261 5814.38,574.761 5815.08,574.761ZM5756.59,573.561C5756.59,573.161 5756.48,572.661 5756.09,572.261C5746.29,560.561 5741.69,544.361 5741.69,530.161C5741.69,515.961 5746.29,499.761 5756.09,488.061C5756.48,487.661 5756.59,487.161 5756.59,486.761C5756.59,486.061 5756.09,485.561 5755.39,485.561C5753.09,485.561 5736.39,502.961 5736.39,530.161C5736.39,557.261 5753.09,574.761 5755.39,574.761C5756.09,574.761 5756.59,574.261 5756.59,573.561ZM5763.58,550.061C5763.58,551.761 5763.38,555.861 5763.38,557.161C5763.38,558.461 5765.58,559.361 5767.18,559.361C5767.88,559.361 5768.48,559.161 5768.48,558.561C5768.38,556.461 5768.28,551.761 5768.28,549.561L5768.28,509.261C5768.28,506.961 5768.78,505.561 5768.78,504.261C5768.78,502.761 5766.98,501.261 5765.78,501.261C5764.58,501.261 5762.88,503.561 5762.28,504.061C5759.78,505.961 5755.98,508.061 5751.98,509.661C5751.39,509.861 5751.19,510.161 5751.19,510.461C5751.19,511.361 5752.98,512.261 5754.39,512.261C5754.69,512.261 5754.98,512.261 5755.19,512.161C5757.98,511.361 5761.28,510.061 5763.58,508.661L5763.58,550.061ZM5814.48,505.061C5814.48,503.661 5812.48,501.861 5811.28,501.661L5811.08,501.661C5810.08,501.661 5808.98,502.161 5807.78,502.261L5783.28,504.061L5782.18,504.061C5780.88,504.061 5780.08,503.961 5779.18,503.961C5778.88,503.961 5778.78,504.161 5778.78,504.461C5778.78,505.061 5779.78,508.561 5782.68,508.561C5783.38,508.561 5784.18,508.361 5784.98,508.361L5808.68,506.261C5796.48,530.161 5786.88,556.761 5786.88,557.461C5786.88,558.161 5787.38,558.861 5788.98,559.061C5789.38,559.061 5789.78,559.161 5790.18,559.161C5791.38,559.161 5792.18,558.861 5792.28,557.961C5793.08,555.261 5793.68,552.761 5794.28,551.061C5798.98,537.561 5805.98,521.761 5812.58,509.161C5813.08,508.161 5814.28,506.661 5814.48,505.361L5814.48,505.061Z" style="fill-rule:nonzero;"/>
        </g>
    </g>
</svg>
