<?xml version="1.0" encoding="UTF-8" standalone="no"?>
<!DOCTYPE svg PUBLIC "-//W3C//DTD SVG 1.1//EN" "http://www.w3.org/Graphics/SVG/1.1/DTD/svg11.dtd">
<svg width="100%" height="100%" viewBox="0 0 98 90" version="1.1" xmlns="http://www.w3.org/2000/svg" xmlns:xlink="http://www.w3.org/1999/xlink" xml:space="preserve" xmlns:serif="http://www.serif.com/" style="fill-rule:evenodd;clip-rule:evenodd;stroke-linejoin:round;stroke-miterlimit:2;">
    <g transform="matrix(1,0,0,1,-5137.45,-1685.56)">
        <g transform="matrix(1,0,0,1,1,0)">
            <path d="M5174.14,1759.26C5176.14,1759.16 5177.34,1758.66 5177.44,1757.56C5178.14,1748.96 5182.74,1724.96 5186.44,1709.16C5186.54,1708.66 5187.14,1707.26 5187.44,1706.16L5187.44,1705.86C5187.44,1704.66 5185.84,1703.16 5184.04,1703.16C5182.34,1703.16 5182.74,1705.66 5182.14,1707.86C5181.04,1705.56 5177.24,1700.86 5169.35,1700.86C5158.15,1700.86 5149.65,1711.66 5149.65,1722.56C5149.65,1731.76 5154.85,1737.06 5162.44,1737.06C5168.35,1737.06 5174.54,1733.36 5178.04,1727.66L5172.54,1755.96C5172.44,1756.66 5172.14,1757.36 5172.14,1757.96C5172.14,1758.76 5172.54,1759.26 5173.94,1759.26L5174.14,1759.26ZM5180.54,1715.36C5177.24,1725.36 5170.74,1732.66 5162.35,1732.66C5157.05,1732.66 5154.35,1729.16 5154.35,1722.26C5154.35,1714.86 5159.95,1705.06 5169.74,1705.06C5175.54,1705.06 5177.94,1708.96 5179.04,1711.16C5179.34,1711.86 5179.74,1712.16 5180.24,1712.16C5180.64,1712.16 5181.04,1711.86 5181.44,1711.46L5180.54,1715.36ZM5156.65,1773.56C5156.65,1773.16 5156.55,1772.66 5156.15,1772.26C5146.35,1760.56 5141.75,1744.36 5141.75,1730.16C5141.75,1715.96 5146.35,1699.76 5156.15,1688.06C5156.55,1687.66 5156.65,1687.16 5156.65,1686.76C5156.65,1686.06 5156.15,1685.56 5155.45,1685.56C5153.15,1685.56 5136.45,1702.96 5136.45,1730.16C5136.45,1757.26 5153.15,1774.76 5155.45,1774.76C5156.15,1774.76 5156.65,1774.26 5156.65,1773.56ZM5215.14,1774.76C5217.44,1774.76 5234.14,1757.26 5234.14,1730.16C5234.14,1702.96 5217.44,1685.56 5215.14,1685.56C5214.44,1685.56 5213.94,1686.06 5213.94,1686.76C5213.94,1687.16 5214.04,1687.66 5214.44,1688.06C5224.24,1699.76 5228.84,1715.96 5228.84,1730.16C5228.84,1744.36 5224.24,1760.56 5214.44,1772.26C5214.04,1772.66 5213.94,1773.16 5213.94,1773.56C5213.94,1774.26 5214.44,1774.76 5215.14,1774.76ZM5204.54,1750.06C5204.54,1751.76 5204.34,1755.86 5204.34,1757.16C5204.34,1758.46 5206.54,1759.36 5208.14,1759.36C5208.84,1759.36 5209.44,1759.16 5209.44,1758.56C5209.34,1756.46 5209.24,1751.76 5209.24,1749.56L5209.24,1709.26C5209.24,1706.96 5209.74,1705.56 5209.74,1704.26C5209.74,1702.76 5207.94,1701.26 5206.74,1701.26C5205.54,1701.26 5203.84,1703.56 5203.24,1704.06C5200.74,1705.96 5196.94,1708.06 5192.94,1709.66C5192.34,1709.86 5192.14,1710.16 5192.14,1710.46C5192.14,1711.36 5193.94,1712.26 5195.34,1712.26C5195.64,1712.26 5195.94,1712.26 5196.14,1712.16C5198.94,1711.36 5202.24,1710.06 5204.54,1708.66L5204.54,1750.06Z" style="fill-rule:nonzero;"/>
        </g>
    </g>
</svg>
