<?xml version="1.0" encoding="UTF-8" standalone="no"?>
<!DOCTYPE svg PUBLIC "-//W3C//DTD SVG 1.1//EN" "http://www.w3.org/Graphics/SVG/1.1/DTD/svg11.dtd">
<svg width="100%" height="100%" viewBox="0 0 98 90" version="1.1" xmlns="http://www.w3.org/2000/svg" xmlns:xlink="http://www.w3.org/1999/xlink" xml:space="preserve" xmlns:serif="http://www.serif.com/" style="fill-rule:evenodd;clip-rule:evenodd;stroke-linejoin:round;stroke-miterlimit:2;">
    <g transform="matrix(1,0,0,1,-5837.38,-1235.56)">
        <g transform="matrix(1,0,0,1,1,0)">
            <path d="M5906.67,1275.86C5914.47,1270.46 5921.37,1263.46 5921.37,1261.36C5921.37,1260.46 5920.77,1259.86 5919.97,1259.86C5919.37,1259.86 5918.77,1260.06 5918.07,1260.76L5917.67,1261.16C5917.97,1260.66 5918.17,1260.06 5918.17,1259.66C5918.17,1259.36 5918.07,1259.06 5917.97,1258.86C5914.87,1254.56 5910.37,1250.96 5904.07,1250.96C5894.27,1250.96 5888.57,1257.26 5888.57,1264.36C5888.57,1269.66 5890.67,1273.06 5898.07,1276.66C5890.57,1281.66 5886.07,1287.16 5886.07,1294.46C5886.07,1303.06 5892.27,1309.66 5902.67,1309.66C5914.17,1309.66 5921.77,1303.26 5921.77,1293.36C5921.77,1285.56 5917.27,1280.46 5907.67,1276.26L5906.67,1275.86ZM5865.37,1253.46C5862.07,1258.26 5858.67,1264.26 5854.88,1271.46C5851.07,1278.96 5849.07,1285.76 5849.07,1292.56C5849.07,1301.96 5856.77,1309.66 5867.07,1309.66C5878.27,1309.66 5885.07,1301.26 5885.07,1290.36C5885.07,1280.56 5878.37,1273.36 5868.47,1273.36C5862.97,1273.36 5858.47,1275.76 5855.68,1279.66C5858.47,1273.86 5863.97,1262.76 5871.27,1254.26C5871.57,1253.86 5872.17,1253.16 5872.17,1252.56C5872.17,1251.56 5870.07,1250.76 5868.67,1250.76C5867.77,1250.76 5866.97,1251.06 5866.57,1251.76L5865.37,1253.46ZM5867.07,1305.56C5859.27,1305.56 5853.78,1299.86 5853.78,1292.46C5853.78,1284.46 5859.47,1277.46 5868.37,1277.46C5875.77,1277.46 5880.27,1283.66 5880.27,1290.56C5880.27,1299.36 5874.67,1305.56 5867.07,1305.56ZM5902.47,1278.66C5911.27,1282.16 5917.07,1285.76 5917.07,1293.76C5917.07,1300.66 5910.97,1305.36 5902.67,1305.36C5894.37,1305.36 5890.77,1299.76 5890.77,1294.26C5890.77,1288.46 5895.07,1283.76 5902.47,1278.66ZM5856.57,1323.56C5856.57,1323.16 5856.48,1322.66 5856.07,1322.26C5846.28,1310.56 5841.68,1294.36 5841.68,1280.16C5841.68,1265.96 5846.28,1249.76 5856.07,1238.06C5856.48,1237.66 5856.57,1237.16 5856.57,1236.76C5856.57,1236.06 5856.07,1235.56 5855.38,1235.56C5853.07,1235.56 5836.38,1252.96 5836.38,1280.16C5836.38,1307.26 5853.07,1324.76 5855.38,1324.76C5856.07,1324.76 5856.57,1324.26 5856.57,1323.56ZM5915.07,1324.76C5917.37,1324.76 5934.07,1307.26 5934.07,1280.16C5934.07,1252.96 5917.37,1235.56 5915.07,1235.56C5914.37,1235.56 5913.87,1236.06 5913.87,1236.76C5913.87,1237.16 5913.97,1237.66 5914.37,1238.06C5924.17,1249.76 5928.77,1265.96 5928.77,1280.16C5928.77,1294.36 5924.17,1310.56 5914.37,1322.26C5913.97,1322.66 5913.87,1323.16 5913.87,1323.56C5913.87,1324.26 5914.37,1324.76 5915.07,1324.76ZM5902.37,1273.86C5895.37,1270.76 5893.27,1268.56 5893.27,1264.36C5893.27,1259.66 5896.87,1255.06 5904.17,1255.06C5908.87,1255.06 5911.67,1257.56 5914.07,1261.46C5914.57,1262.26 5915.07,1262.56 5915.57,1262.56C5915.87,1262.56 5916.17,1262.46 5916.37,1262.36C5912.37,1266.36 5907.77,1270.46 5902.37,1273.86Z" style="fill-rule:nonzero;"/>
        </g>
    </g>
</svg>
