<?xml version="1.0" encoding="UTF-8" standalone="no"?>
<!DOCTYPE svg PUBLIC "-//W3C//DTD SVG 1.1//EN" "http://www.w3.org/Graphics/SVG/1.1/DTD/svg11.dtd">
<svg width="100%" height="100%" viewBox="0 0 98 90" version="1.1" xmlns="http://www.w3.org/2000/svg" xmlns:xlink="http://www.w3.org/1999/xlink" xml:space="preserve" xmlns:serif="http://www.serif.com/" style="fill-rule:evenodd;clip-rule:evenodd;stroke-linejoin:round;stroke-miterlimit:2;">
    <g transform="matrix(1,0,0,1,-5437.42,-1085.56)">
        <g transform="matrix(1,0,0,1,1,0)">
            <path d="M5480.61,1106.36C5481.21,1106.36 5481.51,1105.86 5481.51,1105.26C5481.51,1103.96 5480.31,1101.86 5479.21,1101.86L5479.01,1101.86C5477.61,1102.16 5475.31,1102.36 5473.81,1102.36L5458.61,1103.26C5457.52,1102.76 5456.32,1102.36 5455.52,1102.36C5454.82,1102.36 5454.42,1102.56 5454.42,1103.26C5454.42,1104.26 5454.42,1105.66 5454.22,1106.76L5452.22,1126.46C5451.92,1127.46 5451.42,1129.86 5451.42,1130.16C5451.42,1132.16 5453.42,1133.66 5454.72,1133.66C5455.32,1133.66 5456.02,1132.96 5457.61,1131.36C5460.32,1128.76 5463.82,1126.96 5468.01,1126.96C5475.31,1126.96 5480.01,1131.96 5480.01,1140.26C5480.01,1148.06 5475.81,1155.26 5465.21,1155.26C5459.22,1155.26 5455.41,1151.46 5452.52,1147.16C5452.32,1146.76 5452.02,1146.56 5451.72,1146.56C5450.62,1146.56 5449.32,1148.76 5449.32,1150.56C5449.32,1153.26 5457.11,1159.66 5465.21,1159.66C5479.11,1159.66 5484.71,1150.46 5484.71,1140.16C5484.71,1129.16 5477.41,1122.76 5468.81,1122.76C5463.41,1122.76 5459.72,1124.46 5456.41,1127.26L5458.52,1107.66L5474.41,1106.66L5480.61,1106.36ZM5516.71,1145.36C5518.91,1145.36 5521.91,1145.56 5523.01,1145.56C5523.61,1145.56 5523.81,1145.06 5523.81,1144.46C5523.81,1143.06 5522.61,1140.76 5521.31,1140.76C5520.31,1140.76 5518.01,1141.16 5516.61,1141.26L5515.21,1141.36L5515.21,1124.66C5515.21,1122.66 5515.41,1118.76 5515.41,1117.46C5515.41,1116.06 5513.21,1115.16 5511.71,1115.16C5510.91,1115.16 5510.31,1115.46 5510.31,1115.96C5510.31,1117.86 5510.51,1123.06 5510.51,1124.66L5510.51,1141.56L5491.51,1141.96C5497.21,1132.36 5504.51,1119.36 5509.01,1110.46C5509.71,1109.16 5510.91,1107.26 5511.81,1105.96C5512.01,1105.76 5512.01,1105.46 5512.01,1105.16C5512.01,1103.46 5509.71,1101.06 5508.41,1101.06C5508.01,1101.06 5507.71,1101.16 5507.61,1101.56C5504.41,1109.66 5497.61,1122.86 5488.81,1137.66C5488.11,1138.76 5487.01,1139.96 5486.11,1141.36C5485.71,1141.86 5485.61,1142.46 5485.61,1142.96C5485.61,1144.86 5487.51,1146.66 5489.11,1146.66C5489.31,1146.66 5489.41,1146.56 5489.61,1146.56C5490.81,1146.26 5492.01,1146.06 5492.61,1146.06L5510.51,1145.56L5510.51,1149.96C5510.51,1151.16 5510.31,1155.76 5510.31,1157.06C5510.31,1158.46 5512.61,1159.36 5514.21,1159.36C5515.01,1159.36 5515.61,1159.06 5515.61,1158.56C5515.61,1156.66 5515.31,1153.46 5515.21,1150.16L5515.21,1145.36L5516.71,1145.36ZM5456.61,1173.56C5456.61,1173.16 5456.52,1172.66 5456.11,1172.26C5446.32,1160.56 5441.72,1144.36 5441.72,1130.16C5441.72,1115.96 5446.32,1099.76 5456.11,1088.06C5456.52,1087.66 5456.61,1087.16 5456.61,1086.76C5456.61,1086.06 5456.11,1085.56 5455.41,1085.56C5453.12,1085.56 5436.42,1102.96 5436.42,1130.16C5436.42,1157.26 5453.12,1174.76 5455.41,1174.76C5456.11,1174.76 5456.61,1174.26 5456.61,1173.56ZM5515.11,1174.76C5517.41,1174.76 5534.11,1157.26 5534.11,1130.16C5534.11,1102.96 5517.41,1085.56 5515.11,1085.56C5514.41,1085.56 5513.91,1086.06 5513.91,1086.76C5513.91,1087.16 5514.01,1087.66 5514.41,1088.06C5524.21,1099.76 5528.81,1115.96 5528.81,1130.16C5528.81,1144.36 5524.21,1160.56 5514.41,1172.26C5514.01,1172.66 5513.91,1173.16 5513.91,1173.56C5513.91,1174.26 5514.41,1174.76 5515.11,1174.76Z" style="fill-rule:nonzero;"/>
        </g>
    </g>
</svg>
