<?xml version="1.0" encoding="UTF-8" standalone="no"?>
<!DOCTYPE svg PUBLIC "-//W3C//DTD SVG 1.1//EN" "http://www.w3.org/Graphics/SVG/1.1/DTD/svg11.dtd">
<svg width="100%" height="100%" viewBox="0 0 98 90" version="1.1" xmlns="http://www.w3.org/2000/svg" xmlns:xlink="http://www.w3.org/1999/xlink" xml:space="preserve" xmlns:serif="http://www.serif.com/" style="fill-rule:evenodd;clip-rule:evenodd;stroke-linejoin:round;stroke-miterlimit:2;">
    <g transform="matrix(1,0,0,1,-5637.4,-185.561)">
        <g transform="matrix(1,0,0,1,1,0)">
            <path d="M5657.6,206.361C5657.4,206.061 5656.99,205.761 5656.49,205.761C5654.19,205.761 5649.2,217.461 5649.2,231.661C5649.2,248.161 5654.4,260.261 5665.19,260.261C5676.49,260.261 5681.99,246.161 5681.99,229.561C5681.99,213.261 5676.69,201.361 5666.99,201.361C5663.19,201.361 5659.99,203.361 5657.6,206.361ZM5664.89,255.961C5656.49,255.961 5653.69,244.761 5653.69,231.561C5653.69,214.161 5661.09,205.461 5666.69,205.461C5674.69,205.461 5677.49,217.761 5677.49,228.961C5677.49,242.661 5673.99,255.961 5664.89,255.961ZM5717.29,206.761C5717.89,206.761 5718.19,206.261 5718.19,205.661C5718.19,204.361 5716.99,202.261 5715.89,202.261L5715.69,202.261C5714.29,202.561 5711.99,202.761 5710.49,202.761L5695.29,203.661C5694.19,203.161 5692.99,202.761 5692.19,202.761C5691.49,202.761 5691.09,202.961 5691.09,203.661C5691.09,204.661 5691.09,206.061 5690.89,207.161L5688.89,226.861C5688.59,227.861 5688.09,230.261 5688.09,230.561C5688.09,232.561 5690.09,234.061 5691.39,234.061C5691.99,234.061 5692.69,233.361 5694.29,231.761C5696.99,229.161 5700.49,227.361 5704.69,227.361C5711.99,227.361 5716.69,232.361 5716.69,240.661C5716.69,248.461 5712.49,255.661 5701.89,255.661C5695.89,255.661 5692.09,251.861 5689.19,247.561C5688.99,247.161 5688.69,246.961 5688.39,246.961C5687.29,246.961 5685.99,249.161 5685.99,250.961C5685.99,253.661 5693.79,260.061 5701.89,260.061C5715.79,260.061 5721.39,250.861 5721.39,240.561C5721.39,229.561 5714.09,223.161 5705.49,223.161C5700.09,223.161 5696.39,224.861 5693.09,227.661L5695.19,208.061L5711.09,207.061L5717.29,206.761ZM5656.6,273.561C5656.6,273.161 5656.49,272.661 5656.1,272.261C5646.3,260.561 5641.7,244.361 5641.7,230.161C5641.7,215.961 5646.3,199.761 5656.1,188.061C5656.49,187.661 5656.6,187.161 5656.6,186.761C5656.6,186.061 5656.1,185.561 5655.4,185.561C5653.1,185.561 5636.4,202.961 5636.4,230.161C5636.4,257.261 5653.1,274.761 5655.4,274.761C5656.1,274.761 5656.6,274.261 5656.6,273.561ZM5715.09,274.761C5717.39,274.761 5734.09,257.261 5734.09,230.161C5734.09,202.961 5717.39,185.561 5715.09,185.561C5714.39,185.561 5713.89,186.061 5713.89,186.761C5713.89,187.161 5713.99,187.661 5714.39,188.061C5724.19,199.761 5728.79,215.961 5728.79,230.161C5728.79,244.361 5724.19,260.561 5714.39,272.261C5713.99,272.661 5713.89,273.161 5713.89,273.561C5713.89,274.261 5714.39,274.761 5715.09,274.761Z" style="fill-rule:nonzero;"/>
        </g>
    </g>
</svg>
