<?xml version="1.0" encoding="UTF-8" standalone="no"?>
<!DOCTYPE svg PUBLIC "-//W3C//DTD SVG 1.1//EN" "http://www.w3.org/Graphics/SVG/1.1/DTD/svg11.dtd">
<svg width="100%" height="100%" viewBox="0 0 98 90" version="1.1" xmlns="http://www.w3.org/2000/svg" xmlns:xlink="http://www.w3.org/1999/xlink" xml:space="preserve" xmlns:serif="http://www.serif.com/" style="fill-rule:evenodd;clip-rule:evenodd;stroke-linejoin:round;stroke-miterlimit:2;">
    <g transform="matrix(1,0,0,1,-5737.39,-635.561)">
        <g transform="matrix(1,0,0,1,1,0)">
            <path d="M5754.28,708.661C5758.48,707.661 5764.58,707.661 5766.28,707.661C5776.18,707.661 5782.98,708.261 5782.98,708.261C5783.58,708.261 5783.88,707.861 5783.88,707.161C5783.88,705.761 5782.68,703.561 5781.48,703.561C5780.48,703.561 5777.88,703.661 5776.58,703.661C5773.38,703.661 5770.88,703.561 5767.08,703.561C5764.08,703.561 5759.68,703.761 5756.78,704.061C5759.48,698.661 5764.18,690.561 5770.98,684.161C5778.18,677.361 5783.28,671.661 5783.28,664.261C5783.28,656.461 5777.88,650.861 5769.38,650.861C5761.48,650.861 5756.09,654.961 5752.98,660.861C5752.69,661.261 5752.59,661.761 5752.59,662.261C5752.59,663.161 5753.09,664.061 5754.28,665.061C5754.69,665.461 5754.98,665.561 5755.39,665.561C5756.19,665.561 5756.78,664.761 5757.19,663.661C5758.88,658.861 5763.08,655.061 5769.18,655.061C5775.08,655.061 5778.48,659.261 5778.48,664.261C5778.48,669.561 5774.48,674.561 5768.08,680.761C5761.58,687.061 5756.19,695.761 5753.19,701.561C5752.78,702.361 5752.28,703.061 5751.59,703.961C5751.39,704.261 5751.28,704.661 5751.28,705.161C5751.28,706.761 5752.59,708.661 5753.98,708.661L5754.28,708.661ZM5815.08,724.761C5817.38,724.761 5834.08,707.261 5834.08,680.161C5834.08,652.961 5817.38,635.561 5815.08,635.561C5814.38,635.561 5813.88,636.061 5813.88,636.761C5813.88,637.161 5813.98,637.661 5814.38,638.061C5824.18,649.761 5828.78,665.961 5828.78,680.161C5828.78,694.361 5824.18,710.561 5814.38,722.261C5813.98,722.661 5813.88,723.161 5813.88,723.561C5813.88,724.261 5814.38,724.761 5815.08,724.761ZM5756.59,723.561C5756.59,723.161 5756.48,722.661 5756.09,722.261C5746.29,710.561 5741.69,694.361 5741.69,680.161C5741.69,665.961 5746.29,649.761 5756.09,638.061C5756.48,637.661 5756.59,637.161 5756.59,636.761C5756.59,636.061 5756.09,635.561 5755.39,635.561C5753.09,635.561 5736.39,652.961 5736.39,680.161C5736.39,707.261 5753.09,724.761 5755.39,724.761C5756.09,724.761 5756.59,724.261 5756.59,723.561ZM5818.58,655.061C5818.58,653.661 5816.58,651.861 5815.38,651.661L5815.18,651.661C5814.18,651.661 5813.08,652.161 5811.88,652.261L5790.38,653.761L5789.28,653.761C5787.98,653.761 5787.18,653.661 5786.28,653.661C5785.98,653.661 5785.88,653.861 5785.88,654.161C5785.88,654.761 5786.88,658.261 5789.78,658.261C5790.48,658.261 5791.28,658.061 5792.08,658.061L5812.78,656.261C5804.28,675.461 5802.68,680.061 5793.78,705.561C5793.68,706.061 5793.28,706.761 5793.28,707.461C5793.28,708.161 5793.68,708.861 5795.28,709.061C5795.68,709.061 5796.08,709.161 5796.38,709.161C5797.68,709.161 5798.38,708.861 5798.58,707.961C5799.18,705.061 5799.78,702.761 5800.38,701.061C5804.68,687.661 5810.68,672.261 5816.68,659.161C5817.18,658.161 5818.38,656.661 5818.58,655.361L5818.58,655.061Z" style="fill-rule:nonzero;"/>
        </g>
    </g>
</svg>
