<?xml version="1.0" encoding="UTF-8" standalone="no"?>
<!DOCTYPE svg PUBLIC "-//W3C//DTD SVG 1.1//EN" "http://www.w3.org/Graphics/SVG/1.1/DTD/svg11.dtd">
<svg width="100%" height="100%" viewBox="0 0 98 90" version="1.1" xmlns="http://www.w3.org/2000/svg" xmlns:xlink="http://www.w3.org/1999/xlink" xml:space="preserve" xmlns:serif="http://www.serif.com/" style="fill-rule:evenodd;clip-rule:evenodd;stroke-linejoin:round;stroke-miterlimit:2;">
    <g transform="matrix(1,0,0,1,-6037.36,-935.561)">
        <g transform="matrix(1,0,0,1,1,0)">
            <path d="M6095.95,955.761C6095.65,955.161 6094.85,955.161 6094.75,955.161C6092.65,955.161 6087.35,966.361 6087.35,981.061C6087.35,997.561 6092.65,1009.66 6103.65,1009.66C6115.25,1009.66 6120.85,995.561 6120.85,978.961C6120.85,962.661 6115.45,950.761 6105.55,950.761C6101.65,950.761 6098.35,952.761 6095.95,955.761ZM6103.35,1005.36C6094.85,1005.36 6091.95,994.161 6091.95,980.961C6091.95,963.561 6099.45,954.861 6105.25,954.861C6113.35,954.861 6116.25,967.161 6116.25,978.361C6116.25,992.061 6112.65,1005.36 6103.35,1005.36ZM6080.55,956.361C6081.15,956.361 6081.45,955.861 6081.45,955.261C6081.45,953.961 6080.25,951.861 6079.15,951.861L6078.95,951.861C6077.55,952.161 6075.25,952.361 6073.75,952.361L6058.55,953.261C6057.45,952.761 6056.25,952.361 6055.45,952.361C6054.75,952.361 6054.35,952.561 6054.35,953.261C6054.35,954.261 6054.35,955.661 6054.15,956.761L6052.15,976.461C6051.86,977.461 6051.36,979.861 6051.36,980.161C6051.36,982.161 6053.35,983.661 6054.65,983.661C6055.25,983.661 6055.95,982.961 6057.55,981.361C6060.25,978.761 6063.75,976.961 6067.95,976.961C6075.25,976.961 6079.95,981.961 6079.95,990.261C6079.95,998.061 6075.75,1005.26 6065.15,1005.26C6059.15,1005.26 6055.35,1001.46 6052.45,997.161C6052.26,996.761 6051.95,996.561 6051.65,996.561C6050.56,996.561 6049.26,998.761 6049.26,1000.56C6049.26,1003.26 6057.05,1009.66 6065.15,1009.66C6079.05,1009.66 6084.65,1000.46 6084.65,990.161C6084.65,979.161 6077.35,972.761 6068.75,972.761C6063.35,972.761 6059.65,974.461 6056.35,977.261L6058.45,957.661L6074.35,956.661L6080.55,956.361ZM6056.55,1023.56C6056.55,1023.16 6056.45,1022.66 6056.05,1022.26C6046.26,1010.56 6041.66,994.361 6041.66,980.161C6041.66,965.961 6046.26,949.761 6056.05,938.061C6056.45,937.661 6056.55,937.161 6056.55,936.761C6056.55,936.061 6056.05,935.561 6055.35,935.561C6053.05,935.561 6036.36,952.961 6036.36,980.161C6036.36,1007.26 6053.05,1024.76 6055.35,1024.76C6056.05,1024.76 6056.55,1024.26 6056.55,1023.56ZM6115.05,1024.76C6117.35,1024.76 6134.05,1007.26 6134.05,980.161C6134.05,952.961 6117.35,935.561 6115.05,935.561C6114.35,935.561 6113.85,936.061 6113.85,936.761C6113.85,937.161 6113.95,937.661 6114.35,938.061C6124.15,949.761 6128.75,965.961 6128.75,980.161C6128.75,994.361 6124.15,1010.56 6114.35,1022.26C6113.95,1022.66 6113.85,1023.16 6113.85,1023.56C6113.85,1024.26 6114.35,1024.76 6115.05,1024.76Z" style="fill-rule:nonzero;"/>
        </g>
    </g>
</svg>
