<?xml version="1.0" encoding="UTF-8" standalone="no"?>
<!DOCTYPE svg PUBLIC "-//W3C//DTD SVG 1.1//EN" "http://www.w3.org/Graphics/SVG/1.1/DTD/svg11.dtd">
<svg width="100%" height="100%" viewBox="0 0 98 90" version="1.1" xmlns="http://www.w3.org/2000/svg" xmlns:xlink="http://www.w3.org/1999/xlink" xml:space="preserve" xmlns:serif="http://www.serif.com/" style="fill-rule:evenodd;clip-rule:evenodd;stroke-linejoin:round;stroke-miterlimit:2;">
    <g transform="matrix(1,0,0,1,-5637.4,-935.561)">
        <g transform="matrix(1,0,0,1,1,0)">
            <path d="M5702.29,953.461C5698.99,958.261 5695.59,964.261 5691.79,971.461C5687.99,978.961 5685.99,985.761 5685.99,992.561C5685.99,1001.96 5693.69,1009.66 5703.99,1009.66C5715.19,1009.66 5721.99,1001.26 5721.99,990.361C5721.99,980.561 5715.29,973.361 5705.39,973.361C5699.89,973.361 5695.39,975.761 5692.59,979.661C5695.39,973.861 5700.89,962.761 5708.19,954.261C5708.49,953.861 5709.09,953.161 5709.09,952.561C5709.09,951.561 5706.99,950.761 5705.59,950.761C5704.69,950.761 5703.89,951.061 5703.49,951.761L5702.29,953.461ZM5703.99,1005.56C5696.19,1005.56 5690.69,999.861 5690.69,992.461C5690.69,984.461 5696.39,977.461 5705.29,977.461C5712.69,977.461 5717.19,983.661 5717.19,990.561C5717.19,999.361 5711.59,1005.56 5703.99,1005.56ZM5678.19,995.361C5680.39,995.361 5683.39,995.561 5684.49,995.561C5685.09,995.561 5685.29,995.061 5685.29,994.461C5685.29,993.061 5684.09,990.761 5682.79,990.761C5681.79,990.761 5679.49,991.161 5678.09,991.261L5676.69,991.361L5676.69,974.661C5676.69,972.661 5676.89,968.761 5676.89,967.461C5676.89,966.061 5674.69,965.161 5673.19,965.161C5672.39,965.161 5671.79,965.461 5671.79,965.961C5671.79,967.861 5671.99,973.061 5671.99,974.661L5671.99,991.561L5652.99,991.961C5658.69,982.361 5665.99,969.361 5670.49,960.461C5671.19,959.161 5672.39,957.261 5673.29,955.961C5673.49,955.761 5673.49,955.461 5673.49,955.161C5673.49,953.461 5671.19,951.061 5669.89,951.061C5669.49,951.061 5669.19,951.161 5669.09,951.561C5665.89,959.661 5659.1,972.861 5650.3,987.661C5649.6,988.761 5648.5,989.961 5647.6,991.361C5647.2,991.861 5647.1,992.461 5647.1,992.961C5647.1,994.861 5649,996.661 5650.6,996.661C5650.8,996.661 5650.9,996.561 5651.1,996.561C5652.3,996.261 5653.49,996.061 5654.1,996.061L5671.99,995.561L5671.99,999.961C5671.99,1001.16 5671.79,1005.76 5671.79,1007.06C5671.79,1008.46 5674.09,1009.36 5675.69,1009.36C5676.49,1009.36 5677.09,1009.06 5677.09,1008.56C5677.09,1006.66 5676.79,1003.46 5676.69,1000.16L5676.69,995.361L5678.19,995.361ZM5656.6,1023.56C5656.6,1023.16 5656.49,1022.66 5656.1,1022.26C5646.3,1010.56 5641.7,994.361 5641.7,980.161C5641.7,965.961 5646.3,949.761 5656.1,938.061C5656.49,937.661 5656.6,937.161 5656.6,936.761C5656.6,936.061 5656.1,935.561 5655.4,935.561C5653.1,935.561 5636.4,952.961 5636.4,980.161C5636.4,1007.26 5653.1,1024.76 5655.4,1024.76C5656.1,1024.76 5656.6,1024.26 5656.6,1023.56ZM5715.09,1024.76C5717.39,1024.76 5734.09,1007.26 5734.09,980.161C5734.09,952.961 5717.39,935.561 5715.09,935.561C5714.39,935.561 5713.89,936.061 5713.89,936.761C5713.89,937.161 5713.99,937.661 5714.39,938.061C5724.19,949.761 5728.79,965.961 5728.79,980.161C5728.79,994.361 5724.19,1010.56 5714.39,1022.26C5713.99,1022.66 5713.89,1023.16 5713.89,1023.56C5713.89,1024.26 5714.39,1024.76 5715.09,1024.76Z" style="fill-rule:nonzero;"/>
        </g>
    </g>
</svg>
