<?xml version="1.0" encoding="UTF-8" standalone="no"?>
<!DOCTYPE svg PUBLIC "-//W3C//DTD SVG 1.1//EN" "http://www.w3.org/Graphics/SVG/1.1/DTD/svg11.dtd">
<svg width="100%" height="100%" viewBox="0 0 98 90" version="1.1" xmlns="http://www.w3.org/2000/svg" xmlns:xlink="http://www.w3.org/1999/xlink" xml:space="preserve" xmlns:serif="http://www.serif.com/" style="fill-rule:evenodd;clip-rule:evenodd;stroke-linejoin:round;stroke-miterlimit:2;">
    <g transform="matrix(1,0,0,1,-5337.43,-335.561)">
        <g transform="matrix(1,0,0,1,1,0)">
            <path d="M5415.12,424.761C5417.42,424.761 5434.12,407.261 5434.12,380.161C5434.12,352.961 5417.42,335.561 5415.12,335.561C5414.42,335.561 5413.92,336.061 5413.92,336.761C5413.92,337.161 5414.02,337.661 5414.42,338.061C5424.22,349.761 5428.82,365.961 5428.82,380.161C5428.82,394.361 5424.22,410.561 5414.42,422.261C5414.02,422.661 5413.92,423.161 5413.92,423.561C5413.92,424.261 5414.42,424.761 5415.12,424.761ZM5356.63,423.561C5356.63,423.161 5356.53,422.661 5356.13,422.261C5346.33,410.561 5341.73,394.361 5341.73,380.161C5341.73,365.961 5346.33,349.761 5356.13,338.061C5356.53,337.661 5356.63,337.161 5356.63,336.761C5356.63,336.061 5356.13,335.561 5355.43,335.561C5353.13,335.561 5336.43,352.961 5336.43,380.161C5336.43,407.261 5353.13,424.761 5355.43,424.761C5356.13,424.761 5356.63,424.261 5356.63,423.561ZM5389.92,376.761L5389.92,376.561C5397.82,375.061 5403.22,370.261 5403.22,363.261C5403.22,355.261 5397.22,350.861 5386.52,350.861C5375.12,350.861 5367.02,357.461 5367.02,359.861C5367.02,360.561 5367.32,361.461 5368.32,362.461C5368.72,362.861 5369.12,363.061 5369.52,363.061C5370.42,363.061 5371.12,362.061 5371.42,361.761C5376.22,356.961 5380.02,355.061 5386.72,355.061C5394.52,355.061 5398.52,358.061 5398.52,363.861C5398.52,372.161 5384.92,375.361 5377.12,376.261C5376.42,376.261 5376.12,376.761 5376.12,377.461C5376.12,378.761 5377.32,380.761 5379.02,380.761C5379.22,380.761 5379.42,380.761 5379.62,380.661C5379.92,380.561 5382.72,379.661 5387.02,379.661C5395.22,379.661 5401.32,383.861 5401.32,391.161C5401.32,399.061 5395.32,405.361 5382.62,405.361C5375.42,405.361 5370.52,402.561 5367.32,397.461C5367.02,396.961 5366.62,396.761 5366.32,396.761C5365.12,396.761 5363.82,399.061 5363.82,400.761C5363.82,401.261 5364.03,401.861 5364.32,402.161C5368.92,406.961 5374.02,409.661 5382.62,409.661C5399.22,409.661 5406.12,401.561 5406.12,391.061C5406.12,381.861 5398.82,376.761 5390.82,376.761L5389.92,376.761Z" style="fill-rule:nonzero;"/>
        </g>
    </g>
</svg>
