<?xml version="1.0" encoding="UTF-8" standalone="no"?>
<!DOCTYPE svg PUBLIC "-//W3C//DTD SVG 1.1//EN" "http://www.w3.org/Graphics/SVG/1.1/DTD/svg11.dtd">
<svg width="100%" height="100%" viewBox="0 0 98 90" version="1.1" xmlns="http://www.w3.org/2000/svg" xmlns:xlink="http://www.w3.org/1999/xlink" xml:space="preserve" xmlns:serif="http://www.serif.com/" style="fill-rule:evenodd;clip-rule:evenodd;stroke-linejoin:round;stroke-miterlimit:2;">
    <g transform="matrix(1,0,0,1,-5637.4,-1685.56)">
        <g transform="matrix(1,0,0,1,1,0)">
            <path d="M5702.69,1703.46C5699.39,1708.26 5695.99,1714.26 5692.19,1721.46C5688.39,1728.96 5686.39,1735.76 5686.39,1742.56C5686.39,1751.96 5694.09,1759.66 5704.39,1759.66C5715.59,1759.66 5722.39,1751.26 5722.39,1740.36C5722.39,1730.56 5715.69,1723.36 5705.79,1723.36C5700.29,1723.36 5695.79,1725.76 5692.99,1729.66C5695.79,1723.86 5701.29,1712.76 5708.59,1704.26C5708.89,1703.86 5709.49,1703.16 5709.49,1702.56C5709.49,1701.56 5707.39,1700.76 5705.99,1700.76C5705.09,1700.76 5704.29,1701.06 5703.89,1701.76L5702.69,1703.46ZM5672.99,1759.26C5674.99,1759.16 5676.19,1758.66 5676.29,1757.56C5676.99,1748.96 5681.59,1724.96 5685.29,1709.16C5685.39,1708.66 5685.99,1707.26 5686.29,1706.16L5686.29,1705.86C5686.29,1704.66 5684.69,1703.16 5682.89,1703.16C5681.19,1703.16 5681.59,1705.66 5680.99,1707.86C5679.89,1705.56 5676.09,1700.86 5668.19,1700.86C5656.99,1700.86 5648.5,1711.66 5648.5,1722.56C5648.5,1731.76 5653.69,1737.06 5661.29,1737.06C5667.19,1737.06 5673.39,1733.36 5676.89,1727.66L5671.39,1755.96C5671.29,1756.66 5670.99,1757.36 5670.99,1757.96C5670.99,1758.76 5671.39,1759.26 5672.79,1759.26L5672.99,1759.26ZM5704.39,1755.56C5696.59,1755.56 5691.09,1749.86 5691.09,1742.46C5691.09,1734.46 5696.79,1727.46 5705.69,1727.46C5713.09,1727.46 5717.59,1733.66 5717.59,1740.56C5717.59,1749.36 5711.99,1755.56 5704.39,1755.56ZM5679.39,1715.36C5676.09,1725.36 5669.59,1732.66 5661.19,1732.66C5655.9,1732.66 5653.19,1729.16 5653.19,1722.26C5653.19,1714.86 5658.8,1705.06 5668.59,1705.06C5674.39,1705.06 5676.79,1708.96 5677.89,1711.16C5678.19,1711.86 5678.59,1712.16 5679.09,1712.16C5679.49,1712.16 5679.89,1711.86 5680.29,1711.46L5679.39,1715.36ZM5656.6,1773.56C5656.6,1773.16 5656.49,1772.66 5656.1,1772.26C5646.3,1760.56 5641.7,1744.36 5641.7,1730.16C5641.7,1715.96 5646.3,1699.76 5656.1,1688.06C5656.49,1687.66 5656.6,1687.16 5656.6,1686.76C5656.6,1686.06 5656.1,1685.56 5655.4,1685.56C5653.1,1685.56 5636.4,1702.96 5636.4,1730.16C5636.4,1757.26 5653.1,1774.76 5655.4,1774.76C5656.1,1774.76 5656.6,1774.26 5656.6,1773.56ZM5715.09,1774.76C5717.39,1774.76 5734.09,1757.26 5734.09,1730.16C5734.09,1702.96 5717.39,1685.56 5715.09,1685.56C5714.39,1685.56 5713.89,1686.06 5713.89,1686.76C5713.89,1687.16 5713.99,1687.66 5714.39,1688.06C5724.19,1699.76 5728.79,1715.96 5728.79,1730.16C5728.79,1744.36 5724.19,1760.56 5714.39,1772.26C5713.99,1772.66 5713.89,1773.16 5713.89,1773.56C5713.89,1774.26 5714.39,1774.76 5715.09,1774.76Z" style="fill-rule:nonzero;"/>
        </g>
    </g>
</svg>
