<?xml version="1.0" encoding="UTF-8" standalone="no"?>
<!DOCTYPE svg PUBLIC "-//W3C//DTD SVG 1.1//EN" "http://www.w3.org/Graphics/SVG/1.1/DTD/svg11.dtd">
<svg width="100%" height="100%" viewBox="0 0 98 90" version="1.1" xmlns="http://www.w3.org/2000/svg" xmlns:xlink="http://www.w3.org/1999/xlink" xml:space="preserve" xmlns:serif="http://www.serif.com/" style="fill-rule:evenodd;clip-rule:evenodd;stroke-linejoin:round;stroke-miterlimit:2;">
    <g transform="matrix(1,0,0,1,-5637.4,-1535.56)">
        <g transform="matrix(1,0,0,1,1,0)">
            <path d="M5669.59,1575.86C5677.39,1570.46 5684.29,1563.46 5684.29,1561.36C5684.29,1560.46 5683.69,1559.86 5682.89,1559.86C5682.29,1559.86 5681.69,1560.06 5680.99,1560.76L5680.59,1561.16C5680.89,1560.66 5681.09,1560.06 5681.09,1559.66C5681.09,1559.36 5680.99,1559.06 5680.89,1558.86C5677.79,1554.56 5673.29,1550.96 5666.99,1550.96C5657.19,1550.96 5651.49,1557.26 5651.49,1564.36C5651.49,1569.66 5653.6,1573.06 5660.99,1576.66C5653.49,1581.66 5649,1587.16 5649,1594.46C5649,1603.06 5655.19,1609.66 5665.59,1609.66C5677.09,1609.66 5684.69,1603.26 5684.69,1593.36C5684.69,1585.56 5680.19,1580.46 5670.59,1576.26L5669.59,1575.86ZM5702.69,1553.46C5699.39,1558.26 5695.99,1564.26 5692.19,1571.46C5688.39,1578.96 5686.39,1585.76 5686.39,1592.56C5686.39,1601.96 5694.09,1609.66 5704.39,1609.66C5715.59,1609.66 5722.39,1601.26 5722.39,1590.36C5722.39,1580.56 5715.69,1573.36 5705.79,1573.36C5700.29,1573.36 5695.79,1575.76 5692.99,1579.66C5695.79,1573.86 5701.29,1562.76 5708.59,1554.26C5708.89,1553.86 5709.49,1553.16 5709.49,1552.56C5709.49,1551.56 5707.39,1550.76 5705.99,1550.76C5705.09,1550.76 5704.29,1551.06 5703.89,1551.76L5702.69,1553.46ZM5704.39,1605.56C5696.59,1605.56 5691.09,1599.86 5691.09,1592.46C5691.09,1584.46 5696.79,1577.46 5705.69,1577.46C5713.09,1577.46 5717.59,1583.66 5717.59,1590.56C5717.59,1599.36 5711.99,1605.56 5704.39,1605.56ZM5665.39,1578.66C5674.19,1582.16 5679.99,1585.76 5679.99,1593.76C5679.99,1600.66 5673.89,1605.36 5665.59,1605.36C5657.3,1605.36 5653.69,1599.76 5653.69,1594.26C5653.69,1588.46 5657.99,1583.76 5665.39,1578.66ZM5656.6,1623.56C5656.6,1623.16 5656.49,1622.66 5656.1,1622.26C5646.3,1610.56 5641.7,1594.36 5641.7,1580.16C5641.7,1565.96 5646.3,1549.76 5656.1,1538.06C5656.49,1537.66 5656.6,1537.16 5656.6,1536.76C5656.6,1536.06 5656.1,1535.56 5655.4,1535.56C5653.1,1535.56 5636.4,1552.96 5636.4,1580.16C5636.4,1607.26 5653.1,1624.76 5655.4,1624.76C5656.1,1624.76 5656.6,1624.26 5656.6,1623.56ZM5715.09,1624.76C5717.39,1624.76 5734.09,1607.26 5734.09,1580.16C5734.09,1552.96 5717.39,1535.56 5715.09,1535.56C5714.39,1535.56 5713.89,1536.06 5713.89,1536.76C5713.89,1537.16 5713.99,1537.66 5714.39,1538.06C5724.19,1549.76 5728.79,1565.96 5728.79,1580.16C5728.79,1594.36 5724.19,1610.56 5714.39,1622.26C5713.99,1622.66 5713.89,1623.16 5713.89,1623.56C5713.89,1624.26 5714.39,1624.76 5715.09,1624.76ZM5665.29,1573.86C5658.3,1570.76 5656.19,1568.56 5656.19,1564.36C5656.19,1559.66 5659.8,1555.06 5667.09,1555.06C5671.79,1555.06 5674.59,1557.56 5676.99,1561.46C5677.49,1562.26 5677.99,1562.56 5678.49,1562.56C5678.79,1562.56 5679.09,1562.46 5679.29,1562.36C5675.29,1566.36 5670.69,1570.46 5665.29,1573.86Z" style="fill-rule:nonzero;"/>
        </g>
    </g>
</svg>
