<?xml version="1.0" encoding="UTF-8" standalone="no"?>
<!DOCTYPE svg PUBLIC "-//W3C//DTD SVG 1.1//EN" "http://www.w3.org/Graphics/SVG/1.1/DTD/svg11.dtd">
<svg width="100%" height="100%" viewBox="0 0 98 90" version="1.1" xmlns="http://www.w3.org/2000/svg" xmlns:xlink="http://www.w3.org/1999/xlink" xml:space="preserve" xmlns:serif="http://www.serif.com/" style="fill-rule:evenodd;clip-rule:evenodd;stroke-linejoin:round;stroke-miterlimit:2;">
    <g transform="matrix(1,0,0,1,-5537.41,-1235.56)">
        <g transform="matrix(1,0,0,1,1,0)">
            <path d="M5565.4,1253.46C5562.11,1258.26 5558.7,1264.26 5554.9,1271.46C5551.11,1278.96 5549.11,1285.76 5549.11,1292.56C5549.11,1301.96 5556.81,1309.66 5567.1,1309.66C5578.3,1309.66 5585.1,1301.26 5585.1,1290.36C5585.1,1280.56 5578.4,1273.36 5568.5,1273.36C5563,1273.36 5558.51,1275.76 5555.7,1279.66C5558.51,1273.86 5564,1262.76 5571.3,1254.26C5571.6,1253.86 5572.2,1253.16 5572.2,1252.56C5572.2,1251.56 5570.1,1250.76 5568.7,1250.76C5567.8,1250.76 5567,1251.06 5566.6,1251.76L5565.4,1253.46ZM5617.4,1256.36C5618,1256.36 5618.3,1255.86 5618.3,1255.26C5618.3,1253.96 5617.1,1251.86 5616,1251.86L5615.8,1251.86C5614.4,1252.16 5612.1,1252.36 5610.6,1252.36L5595.4,1253.26C5594.3,1252.76 5593.1,1252.36 5592.3,1252.36C5591.6,1252.36 5591.2,1252.56 5591.2,1253.26C5591.2,1254.26 5591.2,1255.66 5591,1256.76L5589,1276.46C5588.7,1277.46 5588.2,1279.86 5588.2,1280.16C5588.2,1282.16 5590.2,1283.66 5591.5,1283.66C5592.1,1283.66 5592.8,1282.96 5594.4,1281.36C5597.1,1278.76 5600.6,1276.96 5604.8,1276.96C5612.1,1276.96 5616.8,1281.96 5616.8,1290.26C5616.8,1298.06 5612.6,1305.26 5602,1305.26C5596,1305.26 5592.2,1301.46 5589.3,1297.16C5589.1,1296.76 5588.8,1296.56 5588.5,1296.56C5587.4,1296.56 5586.1,1298.76 5586.1,1300.56C5586.1,1303.26 5593.9,1309.66 5602,1309.66C5615.9,1309.66 5621.5,1300.46 5621.5,1290.16C5621.5,1279.16 5614.2,1272.76 5605.6,1272.76C5600.2,1272.76 5596.5,1274.46 5593.2,1277.26L5595.3,1257.66L5611.2,1256.66L5617.4,1256.36ZM5567.1,1305.56C5559.31,1305.56 5553.81,1299.86 5553.81,1292.46C5553.81,1284.46 5559.51,1277.46 5568.4,1277.46C5575.8,1277.46 5580.3,1283.66 5580.3,1290.56C5580.3,1299.36 5574.7,1305.56 5567.1,1305.56ZM5556.61,1323.56C5556.61,1323.16 5556.51,1322.66 5556.11,1322.26C5546.31,1310.56 5541.71,1294.36 5541.71,1280.16C5541.71,1265.96 5546.31,1249.76 5556.11,1238.06C5556.51,1237.66 5556.61,1237.16 5556.61,1236.76C5556.61,1236.06 5556.11,1235.56 5555.4,1235.56C5553.11,1235.56 5536.41,1252.96 5536.41,1280.16C5536.41,1307.26 5553.11,1324.76 5555.4,1324.76C5556.11,1324.76 5556.61,1324.26 5556.61,1323.56ZM5615.1,1324.76C5617.4,1324.76 5634.1,1307.26 5634.1,1280.16C5634.1,1252.96 5617.4,1235.56 5615.1,1235.56C5614.4,1235.56 5613.9,1236.06 5613.9,1236.76C5613.9,1237.16 5614,1237.66 5614.4,1238.06C5624.2,1249.76 5628.8,1265.96 5628.8,1280.16C5628.8,1294.36 5624.2,1310.56 5614.4,1322.26C5614,1322.66 5613.9,1323.16 5613.9,1323.56C5613.9,1324.26 5614.4,1324.76 5615.1,1324.76Z" style="fill-rule:nonzero;"/>
        </g>
    </g>
</svg>
