<?xml version="1.0" encoding="UTF-8" standalone="no"?>
<!DOCTYPE svg PUBLIC "-//W3C//DTD SVG 1.1//EN" "http://www.w3.org/Graphics/SVG/1.1/DTD/svg11.dtd">
<svg width="100%" height="100%" viewBox="0 0 98 90" version="1.1" xmlns="http://www.w3.org/2000/svg" xmlns:xlink="http://www.w3.org/1999/xlink" xml:space="preserve" xmlns:serif="http://www.serif.com/" style="fill-rule:evenodd;clip-rule:evenodd;stroke-linejoin:round;stroke-miterlimit:2;">
    <g transform="matrix(1,0,0,1,-5837.38,-1385.56)">
        <g transform="matrix(1,0,0,1,1,0)">
            <path d="M5906.67,1425.86C5914.47,1420.46 5921.37,1413.46 5921.37,1411.36C5921.37,1410.46 5920.77,1409.86 5919.97,1409.86C5919.37,1409.86 5918.77,1410.06 5918.07,1410.76L5917.67,1411.16C5917.97,1410.66 5918.17,1410.06 5918.17,1409.66C5918.17,1409.36 5918.07,1409.06 5917.97,1408.86C5914.87,1404.56 5910.37,1400.96 5904.07,1400.96C5894.27,1400.96 5888.57,1407.26 5888.57,1414.36C5888.57,1419.66 5890.67,1423.06 5898.07,1426.66C5890.57,1431.66 5886.07,1437.16 5886.07,1444.46C5886.07,1453.06 5892.27,1459.66 5902.67,1459.66C5914.17,1459.66 5921.77,1453.26 5921.77,1443.36C5921.77,1435.56 5917.27,1430.46 5907.67,1426.26L5906.67,1425.86ZM5902.47,1428.66C5911.27,1432.16 5917.07,1435.76 5917.07,1443.76C5917.07,1450.66 5910.97,1455.36 5902.67,1455.36C5894.37,1455.36 5890.77,1449.76 5890.77,1444.26C5890.77,1438.46 5895.07,1433.76 5902.47,1428.66ZM5856.57,1473.56C5856.57,1473.16 5856.48,1472.66 5856.07,1472.26C5846.28,1460.56 5841.68,1444.36 5841.68,1430.16C5841.68,1415.96 5846.28,1399.76 5856.07,1388.06C5856.48,1387.66 5856.57,1387.16 5856.57,1386.76C5856.57,1386.06 5856.07,1385.56 5855.38,1385.56C5853.07,1385.56 5836.38,1402.96 5836.38,1430.16C5836.38,1457.26 5853.07,1474.76 5855.38,1474.76C5856.07,1474.76 5856.57,1474.26 5856.57,1473.56ZM5915.07,1474.76C5917.37,1474.76 5934.07,1457.26 5934.07,1430.16C5934.07,1402.96 5917.37,1385.56 5915.07,1385.56C5914.37,1385.56 5913.87,1386.06 5913.87,1386.76C5913.87,1387.16 5913.97,1387.66 5914.37,1388.06C5924.17,1399.76 5928.77,1415.96 5928.77,1430.16C5928.77,1444.36 5924.17,1460.56 5914.37,1472.26C5913.97,1472.66 5913.87,1473.16 5913.87,1473.56C5913.87,1474.26 5914.37,1474.76 5915.07,1474.76ZM5883.77,1405.06C5883.77,1403.66 5881.77,1401.86 5880.57,1401.66L5880.37,1401.66C5879.37,1401.66 5878.27,1402.16 5877.07,1402.26L5855.57,1403.76L5854.48,1403.76C5853.18,1403.76 5852.38,1403.66 5851.48,1403.66C5851.18,1403.66 5851.07,1403.86 5851.07,1404.16C5851.07,1404.76 5852.07,1408.26 5854.98,1408.26C5855.68,1408.26 5856.48,1408.06 5857.27,1408.06L5877.97,1406.26C5869.47,1425.46 5867.87,1430.06 5858.97,1455.56C5858.87,1456.06 5858.47,1456.76 5858.47,1457.46C5858.47,1458.16 5858.87,1458.86 5860.47,1459.06C5860.87,1459.06 5861.27,1459.16 5861.57,1459.16C5862.87,1459.16 5863.57,1458.86 5863.77,1457.96C5864.37,1455.06 5864.97,1452.76 5865.57,1451.06C5869.87,1437.66 5875.87,1422.26 5881.87,1409.16C5882.37,1408.16 5883.57,1406.66 5883.77,1405.36L5883.77,1405.06ZM5902.37,1423.86C5895.37,1420.76 5893.27,1418.56 5893.27,1414.36C5893.27,1409.66 5896.87,1405.06 5904.17,1405.06C5908.87,1405.06 5911.67,1407.56 5914.07,1411.46C5914.57,1412.26 5915.07,1412.56 5915.57,1412.56C5915.87,1412.56 5916.17,1412.46 5916.37,1412.36C5912.37,1416.36 5907.77,1420.46 5902.37,1423.86Z" style="fill-rule:nonzero;"/>
        </g>
    </g>
</svg>
