<?xml version="1.0" encoding="UTF-8" standalone="no"?>
<!DOCTYPE svg PUBLIC "-//W3C//DTD SVG 1.1//EN" "http://www.w3.org/Graphics/SVG/1.1/DTD/svg11.dtd">
<svg width="100%" height="100%" viewBox="0 0 98 90" version="1.1" xmlns="http://www.w3.org/2000/svg" xmlns:xlink="http://www.w3.org/1999/xlink" xml:space="preserve" xmlns:serif="http://www.serif.com/" style="fill-rule:evenodd;clip-rule:evenodd;stroke-linejoin:round;stroke-miterlimit:2;">
    <g transform="matrix(1,0,0,1,-5737.39,-785.561)">
        <g transform="matrix(1,0,0,1,1,0)">
            <path d="M5815.08,874.761C5817.38,874.761 5834.08,857.261 5834.08,830.161C5834.08,802.961 5817.38,785.561 5815.08,785.561C5814.38,785.561 5813.88,786.061 5813.88,786.761C5813.88,787.161 5813.98,787.661 5814.38,788.061C5824.18,799.761 5828.78,815.961 5828.78,830.161C5828.78,844.361 5824.18,860.561 5814.38,872.261C5813.98,872.661 5813.88,873.161 5813.88,873.561C5813.88,874.261 5814.38,874.761 5815.08,874.761ZM5756.59,873.561C5756.59,873.161 5756.48,872.661 5756.09,872.261C5746.29,860.561 5741.69,844.361 5741.69,830.161C5741.69,815.961 5746.29,799.761 5756.09,788.061C5756.48,787.661 5756.59,787.161 5756.59,786.761C5756.59,786.061 5756.09,785.561 5755.39,785.561C5753.09,785.561 5736.39,802.961 5736.39,830.161C5736.39,857.261 5753.09,874.761 5755.39,874.761C5756.09,874.761 5756.59,874.261 5756.59,873.561ZM5770.08,826.861C5776.98,825.061 5782.18,820.061 5782.18,813.261C5782.18,805.461 5776.38,800.861 5767.68,800.861C5757.48,800.861 5750.69,807.561 5750.69,809.661C5750.69,811.461 5752.28,813.061 5753.09,813.061C5753.89,813.061 5754.48,812.061 5754.78,811.761C5758.78,807.161 5762.88,805.061 5767.78,805.061C5773.88,805.061 5777.48,808.361 5777.48,813.761C5777.48,821.261 5767.18,825.561 5759.48,826.061C5758.88,826.161 5758.58,826.661 5758.58,827.261C5758.58,828.561 5759.68,830.461 5761.08,830.461C5761.28,830.461 5761.38,830.361 5761.58,830.361C5761.68,830.361 5764.78,829.661 5767.68,829.661C5774.78,829.661 5779.88,834.261 5779.88,840.861C5779.88,848.261 5775.58,855.361 5764.68,855.361C5759.08,855.361 5755.59,852.561 5752.19,848.361C5751.89,848.061 5751.69,847.861 5751.39,847.861C5750.19,847.861 5749.09,849.961 5749.09,851.561C5749.09,852.261 5749.19,852.761 5749.59,853.161C5753.89,857.361 5758.68,859.661 5764.68,859.661C5778.88,859.661 5784.68,850.961 5784.68,840.761C5784.68,832.161 5778.28,826.861 5771.08,826.861L5770.08,826.861ZM5818.98,805.061C5818.98,803.661 5816.98,801.861 5815.78,801.661L5815.58,801.661C5814.58,801.661 5813.48,802.161 5812.28,802.261L5790.78,803.761L5789.68,803.761C5788.38,803.761 5787.58,803.661 5786.68,803.661C5786.38,803.661 5786.28,803.861 5786.28,804.161C5786.28,804.761 5787.28,808.261 5790.18,808.261C5790.88,808.261 5791.68,808.061 5792.48,808.061L5813.18,806.261C5804.68,825.461 5803.08,830.061 5794.18,855.561C5794.08,856.061 5793.68,856.761 5793.68,857.461C5793.68,858.161 5794.08,858.861 5795.68,859.061C5796.08,859.061 5796.48,859.161 5796.78,859.161C5798.08,859.161 5798.78,858.861 5798.98,857.961C5799.58,855.061 5800.18,852.761 5800.78,851.061C5805.08,837.661 5811.08,822.261 5817.08,809.161C5817.58,808.161 5818.78,806.661 5818.98,805.361L5818.98,805.061Z" style="fill-rule:nonzero;"/>
        </g>
    </g>
</svg>
