<?xml version="1.0" encoding="UTF-8" standalone="no"?>
<!DOCTYPE svg PUBLIC "-//W3C//DTD SVG 1.1//EN" "http://www.w3.org/Graphics/SVG/1.1/DTD/svg11.dtd">
<svg width="100%" height="100%" viewBox="0 0 98 90" version="1.1" xmlns="http://www.w3.org/2000/svg" xmlns:xlink="http://www.w3.org/1999/xlink" xml:space="preserve" xmlns:serif="http://www.serif.com/" style="fill-rule:evenodd;clip-rule:evenodd;stroke-linejoin:round;stroke-miterlimit:2;">
    <g transform="matrix(1,0,0,1,-5837.38,-1685.56)">
        <g transform="matrix(1,0,0,1,1,0)">
            <path d="M5906.67,1725.86C5914.47,1720.46 5921.37,1713.46 5921.37,1711.36C5921.37,1710.46 5920.77,1709.86 5919.97,1709.86C5919.37,1709.86 5918.77,1710.06 5918.07,1710.76L5917.67,1711.16C5917.97,1710.66 5918.17,1710.06 5918.17,1709.66C5918.17,1709.36 5918.07,1709.06 5917.97,1708.86C5914.87,1704.56 5910.37,1700.96 5904.07,1700.96C5894.27,1700.96 5888.57,1707.26 5888.57,1714.36C5888.57,1719.66 5890.67,1723.06 5898.07,1726.66C5890.57,1731.66 5886.07,1737.16 5886.07,1744.46C5886.07,1753.06 5892.27,1759.66 5902.67,1759.66C5914.17,1759.66 5921.77,1753.26 5921.77,1743.36C5921.77,1735.56 5917.27,1730.46 5907.67,1726.26L5906.67,1725.86ZM5872.97,1759.26C5874.97,1759.16 5876.17,1758.66 5876.27,1757.56C5876.97,1748.96 5881.57,1724.96 5885.27,1709.16C5885.37,1708.66 5885.97,1707.26 5886.27,1706.16L5886.27,1705.86C5886.27,1704.66 5884.67,1703.16 5882.87,1703.16C5881.17,1703.16 5881.57,1705.66 5880.97,1707.86C5879.87,1705.56 5876.07,1700.86 5868.17,1700.86C5856.97,1700.86 5848.48,1711.66 5848.48,1722.56C5848.48,1731.76 5853.68,1737.06 5861.27,1737.06C5867.17,1737.06 5873.37,1733.36 5876.87,1727.66L5871.37,1755.96C5871.27,1756.66 5870.97,1757.36 5870.97,1757.96C5870.97,1758.76 5871.37,1759.26 5872.77,1759.26L5872.97,1759.26ZM5879.37,1715.36C5876.07,1725.36 5869.57,1732.66 5861.17,1732.66C5855.88,1732.66 5853.18,1729.16 5853.18,1722.26C5853.18,1714.86 5858.77,1705.06 5868.57,1705.06C5874.37,1705.06 5876.77,1708.96 5877.87,1711.16C5878.17,1711.86 5878.57,1712.16 5879.07,1712.16C5879.47,1712.16 5879.87,1711.86 5880.27,1711.46L5879.37,1715.36ZM5902.47,1728.66C5911.27,1732.16 5917.07,1735.76 5917.07,1743.76C5917.07,1750.66 5910.97,1755.36 5902.67,1755.36C5894.37,1755.36 5890.77,1749.76 5890.77,1744.26C5890.77,1738.46 5895.07,1733.76 5902.47,1728.66ZM5856.57,1773.56C5856.57,1773.16 5856.48,1772.66 5856.07,1772.26C5846.28,1760.56 5841.68,1744.36 5841.68,1730.16C5841.68,1715.96 5846.28,1699.76 5856.07,1688.06C5856.48,1687.66 5856.57,1687.16 5856.57,1686.76C5856.57,1686.06 5856.07,1685.56 5855.38,1685.56C5853.07,1685.56 5836.38,1702.96 5836.38,1730.16C5836.38,1757.26 5853.07,1774.76 5855.38,1774.76C5856.07,1774.76 5856.57,1774.26 5856.57,1773.56ZM5915.07,1774.76C5917.37,1774.76 5934.07,1757.26 5934.07,1730.16C5934.07,1702.96 5917.37,1685.56 5915.07,1685.56C5914.37,1685.56 5913.87,1686.06 5913.87,1686.76C5913.87,1687.16 5913.97,1687.66 5914.37,1688.06C5924.17,1699.76 5928.77,1715.96 5928.77,1730.16C5928.77,1744.36 5924.17,1760.56 5914.37,1772.26C5913.97,1772.66 5913.87,1773.16 5913.87,1773.56C5913.87,1774.26 5914.37,1774.76 5915.07,1774.76ZM5902.37,1723.86C5895.37,1720.76 5893.27,1718.56 5893.27,1714.36C5893.27,1709.66 5896.87,1705.06 5904.17,1705.06C5908.87,1705.06 5911.67,1707.56 5914.07,1711.46C5914.57,1712.26 5915.07,1712.56 5915.57,1712.56C5915.87,1712.56 5916.17,1712.46 5916.37,1712.36C5912.37,1716.36 5907.77,1720.46 5902.37,1723.86Z" style="fill-rule:nonzero;"/>
        </g>
    </g>
</svg>
