<?xml version="1.0" encoding="UTF-8" standalone="no"?>
<!DOCTYPE svg PUBLIC "-//W3C//DTD SVG 1.1//EN" "http://www.w3.org/Graphics/SVG/1.1/DTD/svg11.dtd">
<svg width="100%" height="100%" viewBox="0 0 98 90" version="1.1" xmlns="http://www.w3.org/2000/svg" xmlns:xlink="http://www.w3.org/1999/xlink" xml:space="preserve" xmlns:serif="http://www.serif.com/" style="fill-rule:evenodd;clip-rule:evenodd;stroke-linejoin:round;stroke-miterlimit:2;">
    <g transform="matrix(1,0,0,1,-5637.4,-1235.56)">
        <g transform="matrix(1,0,0,1,1,0)">
            <path d="M5702.69,1253.46C5699.39,1258.26 5695.99,1264.26 5692.19,1271.46C5688.39,1278.96 5686.39,1285.76 5686.39,1292.56C5686.39,1301.96 5694.09,1309.66 5704.39,1309.66C5715.59,1309.66 5722.39,1301.26 5722.39,1290.36C5722.39,1280.56 5715.69,1273.36 5705.79,1273.36C5700.29,1273.36 5695.79,1275.76 5692.99,1279.66C5695.79,1273.86 5701.29,1262.76 5708.59,1254.26C5708.89,1253.86 5709.49,1253.16 5709.49,1252.56C5709.49,1251.56 5707.39,1250.76 5705.99,1250.76C5705.09,1250.76 5704.29,1251.06 5703.89,1251.76L5702.69,1253.46ZM5665.39,1253.46C5662.09,1258.26 5658.69,1264.26 5654.9,1271.46C5651.1,1278.96 5649.1,1285.76 5649.1,1292.56C5649.1,1301.96 5656.8,1309.66 5667.09,1309.66C5678.29,1309.66 5685.09,1301.26 5685.09,1290.36C5685.09,1280.56 5678.39,1273.36 5668.49,1273.36C5662.99,1273.36 5658.49,1275.76 5655.69,1279.66C5658.49,1273.86 5663.99,1262.76 5671.29,1254.26C5671.59,1253.86 5672.19,1253.16 5672.19,1252.56C5672.19,1251.56 5670.09,1250.76 5668.69,1250.76C5667.79,1250.76 5666.99,1251.06 5666.59,1251.76L5665.39,1253.46ZM5704.39,1305.56C5696.59,1305.56 5691.09,1299.86 5691.09,1292.46C5691.09,1284.46 5696.79,1277.46 5705.69,1277.46C5713.09,1277.46 5717.59,1283.66 5717.59,1290.56C5717.59,1299.36 5711.99,1305.56 5704.39,1305.56ZM5667.09,1305.56C5659.3,1305.56 5653.8,1299.86 5653.8,1292.46C5653.8,1284.46 5659.49,1277.46 5668.39,1277.46C5675.79,1277.46 5680.29,1283.66 5680.29,1290.56C5680.29,1299.36 5674.69,1305.56 5667.09,1305.56ZM5656.6,1323.56C5656.6,1323.16 5656.49,1322.66 5656.1,1322.26C5646.3,1310.56 5641.7,1294.36 5641.7,1280.16C5641.7,1265.96 5646.3,1249.76 5656.1,1238.06C5656.49,1237.66 5656.6,1237.16 5656.6,1236.76C5656.6,1236.06 5656.1,1235.56 5655.4,1235.56C5653.1,1235.56 5636.4,1252.96 5636.4,1280.16C5636.4,1307.26 5653.1,1324.76 5655.4,1324.76C5656.1,1324.76 5656.6,1324.26 5656.6,1323.56ZM5715.09,1324.76C5717.39,1324.76 5734.09,1307.26 5734.09,1280.16C5734.09,1252.96 5717.39,1235.56 5715.09,1235.56C5714.39,1235.56 5713.89,1236.06 5713.89,1236.76C5713.89,1237.16 5713.99,1237.66 5714.39,1238.06C5724.19,1249.76 5728.79,1265.96 5728.79,1280.16C5728.79,1294.36 5724.19,1310.56 5714.39,1322.26C5713.99,1322.66 5713.89,1323.16 5713.89,1323.56C5713.89,1324.26 5714.39,1324.76 5715.09,1324.76Z" style="fill-rule:nonzero;"/>
        </g>
    </g>
</svg>
