<?xml version="1.0" encoding="UTF-8" standalone="no"?>
<!DOCTYPE svg PUBLIC "-//W3C//DTD SVG 1.1//EN" "http://www.w3.org/Graphics/SVG/1.1/DTD/svg11.dtd">
<svg width="100%" height="100%" viewBox="0 0 98 90" version="1.1" xmlns="http://www.w3.org/2000/svg" xmlns:xlink="http://www.w3.org/1999/xlink" xml:space="preserve" xmlns:serif="http://www.serif.com/" style="fill-rule:evenodd;clip-rule:evenodd;stroke-linejoin:round;stroke-miterlimit:2;">
    <g transform="matrix(1,0,0,1,-5837.38,-185.561)">
        <g transform="matrix(1,0,0,1,1,0)">
            <path d="M5915.07,274.761C5917.37,274.761 5934.07,257.261 5934.07,230.161C5934.07,202.961 5917.37,185.561 5915.07,185.561C5914.37,185.561 5913.87,186.061 5913.87,186.761C5913.87,187.161 5913.97,187.661 5914.37,188.061C5924.17,199.761 5928.77,215.961 5928.77,230.161C5928.77,244.361 5924.17,260.561 5914.37,272.261C5913.97,272.661 5913.87,273.161 5913.87,273.561C5913.87,274.261 5914.37,274.761 5915.07,274.761ZM5856.57,273.561C5856.57,273.161 5856.48,272.661 5856.07,272.261C5846.28,260.561 5841.68,244.361 5841.68,230.161C5841.68,215.961 5846.28,199.761 5856.07,188.061C5856.48,187.661 5856.57,187.161 5856.57,186.761C5856.57,186.061 5856.07,185.561 5855.38,185.561C5853.07,185.561 5836.38,202.961 5836.38,230.161C5836.38,257.261 5853.07,274.761 5855.38,274.761C5856.07,274.761 5856.57,274.261 5856.57,273.561ZM5918.97,205.461C5918.97,204.061 5916.97,202.261 5915.77,202.061L5915.57,202.061C5914.57,202.061 5913.47,202.561 5912.27,202.661L5890.77,204.161L5889.67,204.161C5888.37,204.161 5887.57,204.061 5886.67,204.061C5886.37,204.061 5886.27,204.261 5886.27,204.561C5886.27,205.161 5887.27,208.661 5890.17,208.661C5890.87,208.661 5891.67,208.461 5892.47,208.461L5913.17,206.661C5904.67,225.861 5903.07,230.461 5894.17,255.961C5894.07,256.461 5893.67,257.161 5893.67,257.861C5893.67,258.561 5894.07,259.261 5895.67,259.461C5896.07,259.461 5896.47,259.561 5896.77,259.561C5898.07,259.561 5898.77,259.261 5898.97,258.361C5899.57,255.461 5900.17,253.161 5900.77,251.461C5905.07,238.061 5911.07,222.661 5917.07,209.561C5917.57,208.561 5918.77,207.061 5918.97,205.761L5918.97,205.461ZM5857.57,206.361C5857.37,206.061 5856.97,205.761 5856.48,205.761C5854.18,205.761 5849.18,217.461 5849.18,231.661C5849.18,248.161 5854.38,260.261 5865.17,260.261C5876.47,260.261 5881.97,246.161 5881.97,229.561C5881.97,213.261 5876.67,201.361 5866.97,201.361C5863.17,201.361 5859.97,203.361 5857.57,206.361ZM5864.87,255.961C5856.48,255.961 5853.68,244.761 5853.68,231.561C5853.68,214.161 5861.07,205.461 5866.67,205.461C5874.67,205.461 5877.47,217.761 5877.47,228.961C5877.47,242.661 5873.97,255.961 5864.87,255.961Z" style="fill-rule:nonzero;"/>
        </g>
    </g>
</svg>
