<?xml version="1.0" encoding="UTF-8" standalone="no"?>
<!DOCTYPE svg PUBLIC "-//W3C//DTD SVG 1.1//EN" "http://www.w3.org/Graphics/SVG/1.1/DTD/svg11.dtd">
<svg width="100%" height="100%" viewBox="0 0 98 90" version="1.1" xmlns="http://www.w3.org/2000/svg" xmlns:xlink="http://www.w3.org/1999/xlink" xml:space="preserve" xmlns:serif="http://www.serif.com/" style="fill-rule:evenodd;clip-rule:evenodd;stroke-linejoin:round;stroke-miterlimit:2;">
    <g transform="matrix(1,0,0,1,-6037.36,-1085.56)">
        <g transform="matrix(1,0,0,1,1,0)">
            <path d="M6095.85,1105.76C6095.55,1105.16 6094.75,1105.16 6094.65,1105.16C6092.55,1105.16 6087.25,1116.36 6087.25,1131.06C6087.25,1147.56 6092.55,1159.66 6103.55,1159.66C6115.15,1159.66 6120.75,1145.56 6120.75,1128.96C6120.75,1112.66 6115.35,1100.76 6105.45,1100.76C6101.55,1100.76 6098.25,1102.76 6095.85,1105.76ZM6065.35,1103.46C6062.05,1108.26 6058.65,1114.26 6054.85,1121.46C6051.06,1128.96 6049.06,1135.76 6049.06,1142.56C6049.06,1151.96 6056.75,1159.66 6067.05,1159.66C6078.25,1159.66 6085.05,1151.26 6085.05,1140.36C6085.05,1130.56 6078.35,1123.36 6068.45,1123.36C6062.95,1123.36 6058.45,1125.76 6055.65,1129.66C6058.45,1123.86 6063.95,1112.76 6071.25,1104.26C6071.55,1103.86 6072.15,1103.16 6072.15,1102.56C6072.15,1101.56 6070.05,1100.76 6068.65,1100.76C6067.75,1100.76 6066.95,1101.06 6066.55,1101.76L6065.35,1103.46ZM6103.25,1155.36C6094.75,1155.36 6091.85,1144.16 6091.85,1130.96C6091.85,1113.56 6099.35,1104.86 6105.15,1104.86C6113.25,1104.86 6116.15,1117.16 6116.15,1128.36C6116.15,1142.06 6112.55,1155.36 6103.25,1155.36ZM6067.05,1155.56C6059.25,1155.56 6053.75,1149.86 6053.75,1142.46C6053.75,1134.46 6059.45,1127.46 6068.35,1127.46C6075.75,1127.46 6080.25,1133.66 6080.25,1140.56C6080.25,1149.36 6074.65,1155.56 6067.05,1155.56ZM6056.55,1173.56C6056.55,1173.16 6056.45,1172.66 6056.05,1172.26C6046.26,1160.56 6041.66,1144.36 6041.66,1130.16C6041.66,1115.96 6046.26,1099.76 6056.05,1088.06C6056.45,1087.66 6056.55,1087.16 6056.55,1086.76C6056.55,1086.06 6056.05,1085.56 6055.35,1085.56C6053.05,1085.56 6036.36,1102.96 6036.36,1130.16C6036.36,1157.26 6053.05,1174.76 6055.35,1174.76C6056.05,1174.76 6056.55,1174.26 6056.55,1173.56ZM6115.05,1174.76C6117.35,1174.76 6134.05,1157.26 6134.05,1130.16C6134.05,1102.96 6117.35,1085.56 6115.05,1085.56C6114.35,1085.56 6113.85,1086.06 6113.85,1086.76C6113.85,1087.16 6113.95,1087.66 6114.35,1088.06C6124.15,1099.76 6128.75,1115.96 6128.75,1130.16C6128.75,1144.36 6124.15,1160.56 6114.35,1172.26C6113.95,1172.66 6113.85,1173.16 6113.85,1173.56C6113.85,1174.26 6114.35,1174.76 6115.05,1174.76Z" style="fill-rule:nonzero;"/>
        </g>
    </g>
</svg>
