<?xml version="1.0" encoding="UTF-8" standalone="no"?>
<!DOCTYPE svg PUBLIC "-//W3C//DTD SVG 1.1//EN" "http://www.w3.org/Graphics/SVG/1.1/DTD/svg11.dtd">
<svg width="100%" height="100%" viewBox="0 0 98 90" version="1.1" xmlns="http://www.w3.org/2000/svg" xmlns:xlink="http://www.w3.org/1999/xlink" xml:space="preserve" xmlns:serif="http://www.serif.com/" style="fill-rule:evenodd;clip-rule:evenodd;stroke-linejoin:round;stroke-miterlimit:2;">
    <g transform="matrix(1,0,0,1,-5337.43,-1085.56)">
        <g transform="matrix(1,0,0,1,1,0)">
            <path d="M5380.62,1106.36C5381.22,1106.36 5381.52,1105.86 5381.52,1105.26C5381.52,1103.96 5380.32,1101.86 5379.22,1101.86L5379.02,1101.86C5377.62,1102.16 5375.32,1102.36 5373.82,1102.36L5358.62,1103.26C5357.53,1102.76 5356.33,1102.36 5355.53,1102.36C5354.83,1102.36 5354.43,1102.56 5354.43,1103.26C5354.43,1104.26 5354.43,1105.66 5354.23,1106.76L5352.23,1126.46C5351.93,1127.46 5351.43,1129.86 5351.43,1130.16C5351.43,1132.16 5353.43,1133.66 5354.73,1133.66C5355.33,1133.66 5356.03,1132.96 5357.62,1131.36C5360.32,1128.76 5363.82,1126.96 5368.02,1126.96C5375.32,1126.96 5380.02,1131.96 5380.02,1140.26C5380.02,1148.06 5375.82,1155.26 5365.23,1155.26C5359.23,1155.26 5355.43,1151.46 5352.53,1147.16C5352.33,1146.76 5352.03,1146.56 5351.73,1146.56C5350.63,1146.56 5349.33,1148.76 5349.33,1150.56C5349.33,1153.26 5357.12,1159.66 5365.23,1159.66C5379.12,1159.66 5384.72,1150.46 5384.72,1140.16C5384.72,1129.16 5377.42,1122.76 5368.82,1122.76C5363.43,1122.76 5359.73,1124.46 5356.43,1127.26L5358.53,1107.66L5374.42,1106.66L5380.62,1106.36ZM5407.22,1126.86C5414.12,1125.06 5419.32,1120.06 5419.32,1113.26C5419.32,1105.46 5413.52,1100.86 5404.82,1100.86C5394.62,1100.86 5387.82,1107.56 5387.82,1109.66C5387.82,1111.46 5389.42,1113.06 5390.22,1113.06C5391.02,1113.06 5391.62,1112.06 5391.92,1111.76C5395.92,1107.16 5400.02,1105.06 5404.92,1105.06C5411.02,1105.06 5414.62,1108.36 5414.62,1113.76C5414.62,1121.26 5404.32,1125.56 5396.62,1126.06C5396.02,1126.16 5395.72,1126.66 5395.72,1127.26C5395.72,1128.56 5396.82,1130.46 5398.22,1130.46C5398.42,1130.46 5398.52,1130.36 5398.72,1130.36C5398.82,1130.36 5401.92,1129.66 5404.82,1129.66C5411.92,1129.66 5417.02,1134.26 5417.02,1140.86C5417.02,1148.26 5412.72,1155.36 5401.82,1155.36C5396.22,1155.36 5392.72,1152.56 5389.32,1148.36C5389.02,1148.06 5388.82,1147.86 5388.52,1147.86C5387.32,1147.86 5386.22,1149.96 5386.22,1151.56C5386.22,1152.26 5386.32,1152.76 5386.72,1153.16C5391.02,1157.36 5395.82,1159.66 5401.82,1159.66C5416.02,1159.66 5421.82,1150.96 5421.82,1140.76C5421.82,1132.16 5415.42,1126.86 5408.22,1126.86L5407.22,1126.86ZM5356.63,1173.56C5356.63,1173.16 5356.53,1172.66 5356.13,1172.26C5346.33,1160.56 5341.73,1144.36 5341.73,1130.16C5341.73,1115.96 5346.33,1099.76 5356.13,1088.06C5356.53,1087.66 5356.63,1087.16 5356.63,1086.76C5356.63,1086.06 5356.13,1085.56 5355.43,1085.56C5353.13,1085.56 5336.43,1102.96 5336.43,1130.16C5336.43,1157.26 5353.13,1174.76 5355.43,1174.76C5356.13,1174.76 5356.63,1174.26 5356.63,1173.56ZM5415.12,1174.76C5417.42,1174.76 5434.12,1157.26 5434.12,1130.16C5434.12,1102.96 5417.42,1085.56 5415.12,1085.56C5414.42,1085.56 5413.92,1086.06 5413.92,1086.76C5413.92,1087.16 5414.02,1087.66 5414.42,1088.06C5424.22,1099.76 5428.82,1115.96 5428.82,1130.16C5428.82,1144.36 5424.22,1160.56 5414.42,1172.26C5414.02,1172.66 5413.92,1173.16 5413.92,1173.56C5413.92,1174.26 5414.42,1174.76 5415.12,1174.76Z" style="fill-rule:nonzero;"/>
        </g>
    </g>
</svg>
