<?xml version="1.0" encoding="UTF-8" standalone="no"?>
<!DOCTYPE svg PUBLIC "-//W3C//DTD SVG 1.1//EN" "http://www.w3.org/Graphics/SVG/1.1/DTD/svg11.dtd">
<svg width="100%" height="100%" viewBox="0 0 98 90" version="1.1" xmlns="http://www.w3.org/2000/svg" xmlns:xlink="http://www.w3.org/1999/xlink" xml:space="preserve" xmlns:serif="http://www.serif.com/" style="fill-rule:evenodd;clip-rule:evenodd;stroke-linejoin:round;stroke-miterlimit:2;">
    <g transform="matrix(1,0,0,1,-5537.41,-1085.56)">
        <g transform="matrix(1,0,0,1,1,0)">
            <path d="M5617.3,1106.36C5617.9,1106.36 5618.2,1105.86 5618.2,1105.26C5618.2,1103.96 5617,1101.86 5615.9,1101.86L5615.7,1101.86C5614.3,1102.16 5612,1102.36 5610.5,1102.36L5595.3,1103.26C5594.2,1102.76 5593,1102.36 5592.2,1102.36C5591.5,1102.36 5591.1,1102.56 5591.1,1103.26C5591.1,1104.26 5591.1,1105.66 5590.9,1106.76L5588.9,1126.46C5588.6,1127.46 5588.1,1129.86 5588.1,1130.16C5588.1,1132.16 5590.1,1133.66 5591.4,1133.66C5592,1133.66 5592.7,1132.96 5594.3,1131.36C5597,1128.76 5600.5,1126.96 5604.7,1126.96C5612,1126.96 5616.7,1131.96 5616.7,1140.26C5616.7,1148.06 5612.5,1155.26 5601.9,1155.26C5595.9,1155.26 5592.1,1151.46 5589.2,1147.16C5589,1146.76 5588.7,1146.56 5588.4,1146.56C5587.3,1146.56 5586,1148.76 5586,1150.56C5586,1153.26 5593.8,1159.66 5601.9,1159.66C5615.8,1159.66 5621.4,1150.46 5621.4,1140.16C5621.4,1129.16 5614.1,1122.76 5605.5,1122.76C5600.1,1122.76 5596.4,1124.46 5593.1,1127.26L5595.2,1107.66L5611.1,1106.66L5617.3,1106.36ZM5580.6,1106.36C5581.2,1106.36 5581.5,1105.86 5581.5,1105.26C5581.5,1103.96 5580.3,1101.86 5579.2,1101.86L5579,1101.86C5577.6,1102.16 5575.3,1102.36 5573.8,1102.36L5558.61,1103.26C5557.51,1102.76 5556.31,1102.36 5555.51,1102.36C5554.81,1102.36 5554.4,1102.56 5554.4,1103.26C5554.4,1104.26 5554.4,1105.66 5554.2,1106.76L5552.21,1126.46C5551.91,1127.46 5551.41,1129.86 5551.41,1130.16C5551.41,1132.16 5553.4,1133.66 5554.7,1133.66C5555.31,1133.66 5556.01,1132.96 5557.61,1131.36C5560.31,1128.76 5563.8,1126.96 5568,1126.96C5575.3,1126.96 5580,1131.96 5580,1140.26C5580,1148.06 5575.8,1155.26 5565.2,1155.26C5559.2,1155.26 5555.4,1151.46 5552.51,1147.16C5552.31,1146.76 5552.01,1146.56 5551.71,1146.56C5550.61,1146.56 5549.31,1148.76 5549.31,1150.56C5549.31,1153.26 5557.11,1159.66 5565.2,1159.66C5579.1,1159.66 5584.7,1150.46 5584.7,1140.16C5584.7,1129.16 5577.4,1122.76 5568.8,1122.76C5563.4,1122.76 5559.7,1124.46 5556.4,1127.26L5558.51,1107.66L5574.4,1106.66L5580.6,1106.36ZM5556.61,1173.56C5556.61,1173.16 5556.51,1172.66 5556.11,1172.26C5546.31,1160.56 5541.71,1144.36 5541.71,1130.16C5541.71,1115.96 5546.31,1099.76 5556.11,1088.06C5556.51,1087.66 5556.61,1087.16 5556.61,1086.76C5556.61,1086.06 5556.11,1085.56 5555.4,1085.56C5553.11,1085.56 5536.41,1102.96 5536.41,1130.16C5536.41,1157.26 5553.11,1174.76 5555.4,1174.76C5556.11,1174.76 5556.61,1174.26 5556.61,1173.56ZM5615.1,1174.76C5617.4,1174.76 5634.1,1157.26 5634.1,1130.16C5634.1,1102.96 5617.4,1085.56 5615.1,1085.56C5614.4,1085.56 5613.9,1086.06 5613.9,1086.76C5613.9,1087.16 5614,1087.66 5614.4,1088.06C5624.2,1099.76 5628.8,1115.96 5628.8,1130.16C5628.8,1144.36 5624.2,1160.56 5614.4,1172.26C5614,1172.66 5613.9,1173.16 5613.9,1173.56C5613.9,1174.26 5614.4,1174.76 5615.1,1174.76Z" style="fill-rule:nonzero;"/>
        </g>
    </g>
</svg>
