<?xml version="1.0" encoding="UTF-8" standalone="no"?>
<!DOCTYPE svg PUBLIC "-//W3C//DTD SVG 1.1//EN" "http://www.w3.org/Graphics/SVG/1.1/DTD/svg11.dtd">
<svg width="100%" height="100%" viewBox="0 0 98 90" version="1.1" xmlns="http://www.w3.org/2000/svg" xmlns:xlink="http://www.w3.org/1999/xlink" xml:space="preserve" xmlns:serif="http://www.serif.com/" style="fill-rule:evenodd;clip-rule:evenodd;stroke-linejoin:round;stroke-miterlimit:2;">
    <g transform="matrix(1,0,0,1,-5937.37,-1535.56)">
        <g transform="matrix(1,0,0,1,1,0)">
            <path d="M5969.56,1575.86C5977.36,1570.46 5984.26,1563.46 5984.26,1561.36C5984.26,1560.46 5983.66,1559.86 5982.86,1559.86C5982.26,1559.86 5981.66,1560.06 5980.96,1560.76L5980.56,1561.16C5980.86,1560.66 5981.06,1560.06 5981.06,1559.66C5981.06,1559.36 5980.96,1559.06 5980.86,1558.86C5977.76,1554.56 5973.26,1550.96 5966.96,1550.96C5957.16,1550.96 5951.47,1557.26 5951.47,1564.36C5951.47,1569.66 5953.57,1573.06 5960.96,1576.66C5953.47,1581.66 5948.97,1587.16 5948.97,1594.46C5948.97,1603.06 5955.16,1609.66 5965.56,1609.66C5977.06,1609.66 5984.66,1603.26 5984.66,1593.36C5984.66,1585.56 5980.16,1580.46 5970.56,1576.26L5969.56,1575.86ZM6010.06,1609.26C6012.06,1609.16 6013.26,1608.66 6013.36,1607.56C6014.06,1598.96 6018.66,1574.96 6022.36,1559.16C6022.46,1558.66 6023.06,1557.26 6023.36,1556.16L6023.36,1555.86C6023.36,1554.66 6021.76,1553.16 6019.96,1553.16C6018.26,1553.16 6018.66,1555.66 6018.06,1557.86C6016.96,1555.56 6013.16,1550.86 6005.26,1550.86C5994.06,1550.86 5985.56,1561.66 5985.56,1572.56C5985.56,1581.76 5990.76,1587.06 5998.36,1587.06C6004.26,1587.06 6010.46,1583.36 6013.96,1577.66L6008.46,1605.96C6008.36,1606.66 6008.06,1607.36 6008.06,1607.96C6008.06,1608.76 6008.46,1609.26 6009.86,1609.26L6010.06,1609.26ZM6016.46,1565.36C6013.16,1575.36 6006.66,1582.66 5998.26,1582.66C5992.96,1582.66 5990.26,1579.16 5990.26,1572.26C5990.26,1564.86 5995.86,1555.06 6005.66,1555.06C6011.46,1555.06 6013.86,1558.96 6014.96,1561.16C6015.26,1561.86 6015.66,1562.16 6016.16,1562.16C6016.56,1562.16 6016.96,1561.86 6017.36,1561.46L6016.46,1565.36ZM5965.36,1578.66C5974.16,1582.16 5979.96,1585.76 5979.96,1593.76C5979.96,1600.66 5973.86,1605.36 5965.56,1605.36C5957.26,1605.36 5953.66,1599.76 5953.66,1594.26C5953.66,1588.46 5957.96,1583.76 5965.36,1578.66ZM5956.56,1623.56C5956.56,1623.16 5956.46,1622.66 5956.06,1622.26C5946.27,1610.56 5941.67,1594.36 5941.67,1580.16C5941.67,1565.96 5946.27,1549.76 5956.06,1538.06C5956.46,1537.66 5956.56,1537.16 5956.56,1536.76C5956.56,1536.06 5956.06,1535.56 5955.36,1535.56C5953.07,1535.56 5936.37,1552.96 5936.37,1580.16C5936.37,1607.26 5953.07,1624.76 5955.36,1624.76C5956.06,1624.76 5956.56,1624.26 5956.56,1623.56ZM6015.06,1624.76C6017.36,1624.76 6034.06,1607.26 6034.06,1580.16C6034.06,1552.96 6017.36,1535.56 6015.06,1535.56C6014.36,1535.56 6013.86,1536.06 6013.86,1536.76C6013.86,1537.16 6013.96,1537.66 6014.36,1538.06C6024.16,1549.76 6028.76,1565.96 6028.76,1580.16C6028.76,1594.36 6024.16,1610.56 6014.36,1622.26C6013.96,1622.66 6013.86,1623.16 6013.86,1623.56C6013.86,1624.26 6014.36,1624.76 6015.06,1624.76ZM5965.26,1573.86C5958.26,1570.76 5956.16,1568.56 5956.16,1564.36C5956.16,1559.66 5959.76,1555.06 5967.06,1555.06C5971.76,1555.06 5974.56,1557.56 5976.96,1561.46C5977.46,1562.26 5977.96,1562.56 5978.46,1562.56C5978.76,1562.56 5979.06,1562.46 5979.26,1562.36C5975.26,1566.36 5970.66,1570.46 5965.26,1573.86Z" style="fill-rule:nonzero;"/>
        </g>
    </g>
</svg>
