<?xml version="1.0" encoding="UTF-8" standalone="no"?>
<!DOCTYPE svg PUBLIC "-//W3C//DTD SVG 1.1//EN" "http://www.w3.org/Graphics/SVG/1.1/DTD/svg11.dtd">
<svg width="100%" height="100%" viewBox="0 0 98 90" version="1.1" xmlns="http://www.w3.org/2000/svg" xmlns:xlink="http://www.w3.org/1999/xlink" xml:space="preserve" xmlns:serif="http://www.serif.com/" style="fill-rule:evenodd;clip-rule:evenodd;stroke-linejoin:round;stroke-miterlimit:2;">
    <g transform="matrix(1,0,0,1,-5437.42,-1535.56)">
        <g transform="matrix(1,0,0,1,1,0)">
            <path d="M5469.61,1575.86C5477.41,1570.46 5484.31,1563.46 5484.31,1561.36C5484.31,1560.46 5483.71,1559.86 5482.91,1559.86C5482.31,1559.86 5481.71,1560.06 5481.01,1560.76L5480.61,1561.16C5480.91,1560.66 5481.11,1560.06 5481.11,1559.66C5481.11,1559.36 5481.01,1559.06 5480.91,1558.86C5477.81,1554.56 5473.31,1550.96 5467.01,1550.96C5457.22,1550.96 5451.52,1557.26 5451.52,1564.36C5451.52,1569.66 5453.62,1573.06 5461.02,1576.66C5453.52,1581.66 5449.02,1587.16 5449.02,1594.46C5449.02,1603.06 5455.22,1609.66 5465.61,1609.66C5477.11,1609.66 5484.71,1603.26 5484.71,1593.36C5484.71,1585.56 5480.21,1580.46 5470.61,1576.26L5469.61,1575.86ZM5516.61,1595.36C5518.81,1595.36 5521.81,1595.56 5522.91,1595.56C5523.51,1595.56 5523.71,1595.06 5523.71,1594.46C5523.71,1593.06 5522.51,1590.76 5521.21,1590.76C5520.21,1590.76 5517.91,1591.16 5516.51,1591.26L5515.11,1591.36L5515.11,1574.66C5515.11,1572.66 5515.31,1568.76 5515.31,1567.46C5515.31,1566.06 5513.11,1565.16 5511.61,1565.16C5510.81,1565.16 5510.21,1565.46 5510.21,1565.96C5510.21,1567.86 5510.41,1573.06 5510.41,1574.66L5510.41,1591.56L5491.41,1591.96C5497.11,1582.36 5504.41,1569.36 5508.91,1560.46C5509.61,1559.16 5510.81,1557.26 5511.71,1555.96C5511.91,1555.76 5511.91,1555.46 5511.91,1555.16C5511.91,1553.46 5509.61,1551.06 5508.31,1551.06C5507.91,1551.06 5507.61,1551.16 5507.51,1551.56C5504.31,1559.66 5497.51,1572.86 5488.71,1587.66C5488.01,1588.76 5486.91,1589.96 5486.01,1591.36C5485.61,1591.86 5485.51,1592.46 5485.51,1592.96C5485.51,1594.86 5487.41,1596.66 5489.01,1596.66C5489.21,1596.66 5489.31,1596.56 5489.51,1596.56C5490.71,1596.26 5491.91,1596.06 5492.51,1596.06L5510.41,1595.56L5510.41,1599.96C5510.41,1601.16 5510.21,1605.76 5510.21,1607.06C5510.21,1608.46 5512.51,1609.36 5514.11,1609.36C5514.91,1609.36 5515.51,1609.06 5515.51,1608.56C5515.51,1606.66 5515.21,1603.46 5515.11,1600.16L5515.11,1595.36L5516.61,1595.36ZM5465.41,1578.66C5474.21,1582.16 5480.01,1585.76 5480.01,1593.76C5480.01,1600.66 5473.91,1605.36 5465.61,1605.36C5457.32,1605.36 5453.72,1599.76 5453.72,1594.26C5453.72,1588.46 5458.02,1583.76 5465.41,1578.66ZM5456.61,1623.56C5456.61,1623.16 5456.52,1622.66 5456.11,1622.26C5446.32,1610.56 5441.72,1594.36 5441.72,1580.16C5441.72,1565.96 5446.32,1549.76 5456.11,1538.06C5456.52,1537.66 5456.61,1537.16 5456.61,1536.76C5456.61,1536.06 5456.11,1535.56 5455.41,1535.56C5453.12,1535.56 5436.42,1552.96 5436.42,1580.16C5436.42,1607.26 5453.12,1624.76 5455.41,1624.76C5456.11,1624.76 5456.61,1624.26 5456.61,1623.56ZM5515.11,1624.76C5517.41,1624.76 5534.11,1607.26 5534.11,1580.16C5534.11,1552.96 5517.41,1535.56 5515.11,1535.56C5514.41,1535.56 5513.91,1536.06 5513.91,1536.76C5513.91,1537.16 5514.01,1537.66 5514.41,1538.06C5524.21,1549.76 5528.81,1565.96 5528.81,1580.16C5528.81,1594.36 5524.21,1610.56 5514.41,1622.26C5514.01,1622.66 5513.91,1623.16 5513.91,1623.56C5513.91,1624.26 5514.41,1624.76 5515.11,1624.76ZM5465.31,1573.86C5458.32,1570.76 5456.22,1568.56 5456.22,1564.36C5456.22,1559.66 5459.82,1555.06 5467.11,1555.06C5471.81,1555.06 5474.61,1557.56 5477.01,1561.46C5477.51,1562.26 5478.01,1562.56 5478.51,1562.56C5478.81,1562.56 5479.11,1562.46 5479.31,1562.36C5475.31,1566.36 5470.71,1570.46 5465.31,1573.86Z" style="fill-rule:nonzero;"/>
        </g>
    </g>
</svg>
