<?xml version="1.0" encoding="UTF-8" standalone="no"?>
<!DOCTYPE svg PUBLIC "-//W3C//DTD SVG 1.1//EN" "http://www.w3.org/Graphics/SVG/1.1/DTD/svg11.dtd">
<svg width="100%" height="100%" viewBox="0 0 98 90" version="1.1" xmlns="http://www.w3.org/2000/svg" xmlns:xlink="http://www.w3.org/1999/xlink" xml:space="preserve" xmlns:serif="http://www.serif.com/" style="fill-rule:evenodd;clip-rule:evenodd;stroke-linejoin:round;stroke-miterlimit:2;">
    <g transform="matrix(1,0,0,1,-5937.37,-335.561)">
        <g transform="matrix(1,0,0,1,1,0)">
            <path d="M5991.86,409.261C5993.86,409.161 5994.86,408.661 5994.96,407.561C5995.56,402.761 6001.46,366.161 6005.06,356.161L6005.06,355.861C6005.06,354.661 6002.96,353.361 6001.66,353.161L6001.46,353.161C5999.96,353.161 6000.36,355.561 5999.86,357.861C5998.66,355.561 5993.46,350.861 5984.66,350.861C5972.36,350.861 5962.66,361.661 5962.66,372.561C5962.66,381.761 5969.66,387.061 5977.76,387.061C5984.26,387.061 5991.96,383.461 5995.66,377.661C5994.56,383.661 5991.96,397.661 5990.16,405.961C5990.06,406.661 5989.86,407.361 5989.86,407.861C5989.86,408.661 5990.26,409.261 5991.66,409.261L5991.86,409.261ZM5998.26,365.361C5994.66,376.261 5986.66,382.661 5977.76,382.661C5971.76,382.661 5967.26,379.161 5967.26,372.261C5967.26,364.861 5974.36,355.061 5985.06,355.061C5991.36,355.061 5995.66,358.961 5996.66,361.161C5997.06,361.861 5997.46,362.161 5997.86,362.161C5998.26,362.161 5998.66,361.861 5999.06,361.461L5998.26,365.361ZM5956.56,423.561C5956.56,423.161 5956.46,422.661 5956.06,422.261C5946.27,410.561 5941.67,394.361 5941.67,380.161C5941.67,365.961 5946.27,349.761 5956.06,338.061C5956.46,337.661 5956.56,337.161 5956.56,336.761C5956.56,336.061 5956.06,335.561 5955.36,335.561C5953.07,335.561 5936.37,352.961 5936.37,380.161C5936.37,407.261 5953.07,424.761 5955.36,424.761C5956.06,424.761 5956.56,424.261 5956.56,423.561ZM6015.06,424.761C6017.36,424.761 6034.06,407.261 6034.06,380.161C6034.06,352.961 6017.36,335.561 6015.06,335.561C6014.36,335.561 6013.86,336.061 6013.86,336.761C6013.86,337.161 6013.96,337.661 6014.36,338.061C6024.16,349.761 6028.76,365.961 6028.76,380.161C6028.76,394.361 6024.16,410.561 6014.36,422.261C6013.96,422.661 6013.86,423.161 6013.86,423.561C6013.86,424.261 6014.36,424.761 6015.06,424.761Z" style="fill-rule:nonzero;"/>
        </g>
    </g>
</svg>
