<?xml version="1.0" encoding="UTF-8" standalone="no"?>
<!DOCTYPE svg PUBLIC "-//W3C//DTD SVG 1.1//EN" "http://www.w3.org/Graphics/SVG/1.1/DTD/svg11.dtd">
<svg width="100%" height="100%" viewBox="0 0 98 90" version="1.1" xmlns="http://www.w3.org/2000/svg" xmlns:xlink="http://www.w3.org/1999/xlink" xml:space="preserve" xmlns:serif="http://www.serif.com/" style="fill-rule:evenodd;clip-rule:evenodd;stroke-linejoin:round;stroke-miterlimit:2;">
    <g transform="matrix(1,0,0,1,-5137.45,-335.561)">
        <g transform="matrix(1,0,0,1,1,0)">
            <path d="M5215.14,424.761C5217.44,424.761 5234.14,407.261 5234.14,380.161C5234.14,352.961 5217.44,335.561 5215.14,335.561C5214.44,335.561 5213.94,336.061 5213.94,336.761C5213.94,337.161 5214.04,337.661 5214.44,338.061C5224.24,349.761 5228.84,365.961 5228.84,380.161C5228.84,394.361 5224.24,410.561 5214.44,422.261C5214.04,422.661 5213.94,423.161 5213.94,423.561C5213.94,424.261 5214.44,424.761 5215.14,424.761ZM5156.65,423.561C5156.65,423.161 5156.55,422.661 5156.15,422.261C5146.35,410.561 5141.75,394.361 5141.75,380.161C5141.75,365.961 5146.35,349.761 5156.15,338.061C5156.55,337.661 5156.65,337.161 5156.65,336.761C5156.65,336.061 5156.15,335.561 5155.45,335.561C5153.15,335.561 5136.45,352.961 5136.45,380.161C5136.45,407.261 5153.15,424.761 5155.45,424.761C5156.15,424.761 5156.65,424.261 5156.65,423.561ZM5184.64,400.061C5184.64,401.761 5184.44,405.861 5184.44,407.161C5184.44,408.461 5186.64,409.361 5188.24,409.361C5188.94,409.361 5189.54,409.161 5189.54,408.561C5189.44,406.461 5189.34,401.761 5189.34,399.561L5189.34,359.961C5189.34,357.661 5189.84,355.561 5189.84,354.261C5189.84,352.761 5188.04,351.261 5186.84,351.261C5185.64,351.261 5184.04,353.561 5183.34,354.061C5180.84,356.161 5176.04,358.761 5171.94,360.361C5171.34,360.561 5171.14,360.861 5171.14,361.161C5171.14,361.961 5172.94,362.961 5174.44,362.961C5174.74,362.961 5174.94,362.961 5175.14,362.861C5177.74,362.161 5182.14,360.261 5184.64,358.661L5184.64,400.061Z" style="fill-rule:nonzero;"/>
        </g>
    </g>
</svg>
