<?xml version="1.0" encoding="UTF-8" standalone="no"?>
<!DOCTYPE svg PUBLIC "-//W3C//DTD SVG 1.1//EN" "http://www.w3.org/Graphics/SVG/1.1/DTD/svg11.dtd">
<svg width="100%" height="100%" viewBox="0 0 98 90" version="1.1" xmlns="http://www.w3.org/2000/svg" xmlns:xlink="http://www.w3.org/1999/xlink" xml:space="preserve" xmlns:serif="http://www.serif.com/" style="fill-rule:evenodd;clip-rule:evenodd;stroke-linejoin:round;stroke-miterlimit:2;">
    <g transform="matrix(1,0,0,1,-6037.36,-1685.56)">
        <g transform="matrix(1,0,0,1,1,0)">
            <path d="M6115.05,1774.76C6117.35,1774.76 6134.05,1757.26 6134.05,1730.16C6134.05,1702.96 6117.35,1685.56 6115.05,1685.56C6114.35,1685.56 6113.85,1686.06 6113.85,1686.76C6113.85,1687.16 6113.95,1687.66 6114.35,1688.06C6124.15,1699.76 6128.75,1715.96 6128.75,1730.16C6128.75,1744.36 6124.15,1760.56 6114.35,1772.26C6113.95,1772.66 6113.85,1773.16 6113.85,1773.56C6113.85,1774.26 6114.35,1774.76 6115.05,1774.76ZM6053.45,1750.66C6053.45,1752.36 6053.25,1756.46 6053.25,1757.76C6053.25,1759.06 6055.65,1759.96 6057.25,1759.96C6058.05,1759.96 6058.65,1759.76 6058.65,1759.16C6058.55,1757.06 6058.45,1752.36 6058.45,1750.16L6058.45,1709.86C6058.45,1707.56 6058.95,1706.16 6058.95,1704.86C6058.95,1703.36 6057.15,1701.86 6055.95,1701.86C6054.75,1701.86 6052.75,1704.26 6052.15,1704.66C6050.26,1705.96 6047.95,1707.46 6044.95,1708.86C6047.15,1701.86 6050.45,1695.16 6054.95,1689.46C6055.25,1688.96 6055.65,1688.56 6056.05,1688.06C6056.45,1687.66 6056.55,1687.16 6056.55,1686.76C6056.55,1686.06 6056.05,1685.56 6055.35,1685.56C6053.05,1685.56 6036.36,1702.96 6036.36,1730.16C6036.36,1757.26 6053.05,1774.76 6055.35,1774.76C6056.05,1774.76 6056.55,1774.26 6056.55,1773.56C6056.55,1773.16 6056.45,1772.66 6056.05,1772.26C6046.26,1760.56 6041.66,1744.36 6041.66,1730.16C6041.66,1724.16 6042.46,1717.86 6044.15,1711.66C6044.86,1711.96 6045.65,1712.26 6046.36,1712.26C6046.56,1712.26 6046.76,1712.16 6046.95,1712.16C6049.15,1711.46 6051.26,1710.56 6053.45,1709.26L6053.45,1750.66ZM6100.95,1706.36C6100.75,1706.06 6100.45,1705.76 6099.95,1705.76C6098.25,1705.76 6094.05,1717.26 6094.05,1731.66C6094.05,1748.16 6098.25,1760.26 6107.05,1760.26C6116.35,1760.26 6120.85,1746.16 6120.85,1729.56C6120.85,1713.26 6116.55,1701.36 6108.55,1701.36C6105.45,1701.36 6102.85,1703.36 6100.95,1706.36ZM6070.35,1706.36C6070.15,1706.06 6069.85,1705.76 6069.35,1705.76C6067.45,1705.76 6063.55,1717.76 6063.55,1731.66C6063.55,1748.16 6067.75,1760.26 6076.35,1760.26C6085.45,1760.26 6089.85,1746.16 6089.85,1729.56C6089.85,1713.26 6085.65,1701.36 6077.75,1701.36C6074.75,1701.36 6072.25,1703.36 6070.35,1706.36ZM6106.95,1755.86C6100.75,1755.86 6098.85,1744.76 6098.85,1731.56C6098.85,1714.16 6104.15,1705.56 6108.25,1705.56C6114.15,1705.56 6116.05,1717.76 6116.05,1728.96C6116.05,1742.66 6113.65,1755.86 6106.95,1755.86ZM6076.25,1755.86C6070.15,1755.86 6068.35,1744.76 6068.35,1731.56C6068.35,1714.16 6073.45,1705.56 6077.55,1705.56C6083.25,1705.56 6085.15,1717.76 6085.15,1728.96C6085.15,1742.66 6082.75,1755.86 6076.25,1755.86Z" style="fill-rule:nonzero;"/>
        </g>
    </g>
</svg>
