<?xml version="1.0" encoding="UTF-8" standalone="no"?>
<!DOCTYPE svg PUBLIC "-//W3C//DTD SVG 1.1//EN" "http://www.w3.org/Graphics/SVG/1.1/DTD/svg11.dtd">
<svg width="100%" height="100%" viewBox="0 0 98 90" version="1.1" xmlns="http://www.w3.org/2000/svg" xmlns:xlink="http://www.w3.org/1999/xlink" xml:space="preserve" xmlns:serif="http://www.serif.com/" style="fill-rule:evenodd;clip-rule:evenodd;stroke-linejoin:round;stroke-miterlimit:2;">
    <g transform="matrix(1,0,0,1,-5537.41,-1385.56)">
        <g transform="matrix(1,0,0,1,1,0)">
            <path d="M5617.3,1406.36C5617.9,1406.36 5618.2,1405.86 5618.2,1405.26C5618.2,1403.96 5617,1401.86 5615.9,1401.86L5615.7,1401.86C5614.3,1402.16 5612,1402.36 5610.5,1402.36L5595.3,1403.26C5594.2,1402.76 5593,1402.36 5592.2,1402.36C5591.5,1402.36 5591.1,1402.56 5591.1,1403.26C5591.1,1404.26 5591.1,1405.66 5590.9,1406.76L5588.9,1426.46C5588.6,1427.46 5588.1,1429.86 5588.1,1430.16C5588.1,1432.16 5590.1,1433.66 5591.4,1433.66C5592,1433.66 5592.7,1432.96 5594.3,1431.36C5597,1428.76 5600.5,1426.96 5604.7,1426.96C5612,1426.96 5616.7,1431.96 5616.7,1440.26C5616.7,1448.06 5612.5,1455.26 5601.9,1455.26C5595.9,1455.26 5592.1,1451.46 5589.2,1447.16C5589,1446.76 5588.7,1446.56 5588.4,1446.56C5587.3,1446.56 5586,1448.76 5586,1450.56C5586,1453.26 5593.8,1459.66 5601.9,1459.66C5615.8,1459.66 5621.4,1450.46 5621.4,1440.16C5621.4,1429.16 5614.1,1422.76 5605.5,1422.76C5600.1,1422.76 5596.4,1424.46 5593.1,1427.26L5595.2,1407.66L5611.1,1406.66L5617.3,1406.36ZM5556.61,1473.56C5556.61,1473.16 5556.51,1472.66 5556.11,1472.26C5546.31,1460.56 5541.71,1444.36 5541.71,1430.16C5541.71,1415.96 5546.31,1399.76 5556.11,1388.06C5556.51,1387.66 5556.61,1387.16 5556.61,1386.76C5556.61,1386.06 5556.11,1385.56 5555.4,1385.56C5553.11,1385.56 5536.41,1402.96 5536.41,1430.16C5536.41,1457.26 5553.11,1474.76 5555.4,1474.76C5556.11,1474.76 5556.61,1474.26 5556.61,1473.56ZM5615.1,1474.76C5617.4,1474.76 5634.1,1457.26 5634.1,1430.16C5634.1,1402.96 5617.4,1385.56 5615.1,1385.56C5614.4,1385.56 5613.9,1386.06 5613.9,1386.76C5613.9,1387.16 5614,1387.66 5614.4,1388.06C5624.2,1399.76 5628.8,1415.96 5628.8,1430.16C5628.8,1444.36 5624.2,1460.56 5614.4,1472.26C5614,1472.66 5613.9,1473.16 5613.9,1473.56C5613.9,1474.26 5614.4,1474.76 5615.1,1474.76ZM5583.8,1405.06C5583.8,1403.66 5581.8,1401.86 5580.6,1401.66L5580.4,1401.66C5579.4,1401.66 5578.3,1402.16 5577.1,1402.26L5555.61,1403.76L5554.51,1403.76C5553.2,1403.76 5552.41,1403.66 5551.51,1403.66C5551.21,1403.66 5551.11,1403.86 5551.11,1404.16C5551.11,1404.76 5552.11,1408.26 5555.01,1408.26C5555.7,1408.26 5556.51,1408.06 5557.31,1408.06L5578,1406.26C5569.5,1425.46 5567.9,1430.06 5559.01,1455.56C5558.9,1456.06 5558.51,1456.76 5558.51,1457.46C5558.51,1458.16 5558.9,1458.86 5560.51,1459.06C5560.9,1459.06 5561.31,1459.16 5561.61,1459.16C5562.9,1459.16 5563.6,1458.86 5563.8,1457.96C5564.4,1455.06 5565,1452.76 5565.6,1451.06C5569.9,1437.66 5575.9,1422.26 5581.9,1409.16C5582.4,1408.16 5583.6,1406.66 5583.8,1405.36L5583.8,1405.06Z" style="fill-rule:nonzero;"/>
        </g>
    </g>
</svg>
