<?xml version="1.0" encoding="UTF-8" standalone="no"?>
<!DOCTYPE svg PUBLIC "-//W3C//DTD SVG 1.1//EN" "http://www.w3.org/Graphics/SVG/1.1/DTD/svg11.dtd">
<svg width="100%" height="100%" viewBox="0 0 98 90" version="1.1" xmlns="http://www.w3.org/2000/svg" xmlns:xlink="http://www.w3.org/1999/xlink" xml:space="preserve" xmlns:serif="http://www.serif.com/" style="fill-rule:evenodd;clip-rule:evenodd;stroke-linejoin:round;stroke-miterlimit:2;">
    <g transform="matrix(1,0,0,1,-5237.44,-185.561)">
        <g transform="matrix(1,0,0,1,1,0)">
            <path d="M5315.13,274.761C5317.43,274.761 5334.13,257.261 5334.13,230.161C5334.13,202.961 5317.43,185.561 5315.13,185.561C5314.43,185.561 5313.93,186.061 5313.93,186.761C5313.93,187.161 5314.03,187.661 5314.43,188.061C5324.23,199.761 5328.83,215.961 5328.83,230.161C5328.83,244.361 5324.23,260.561 5314.43,272.261C5314.03,272.661 5313.93,273.161 5313.93,273.561C5313.93,274.261 5314.43,274.761 5315.13,274.761ZM5256.64,273.561C5256.64,273.161 5256.54,272.661 5256.14,272.261C5246.34,260.561 5241.74,244.361 5241.74,230.161C5241.74,215.961 5246.34,199.761 5256.14,188.061C5256.54,187.661 5256.64,187.161 5256.64,186.761C5256.64,186.061 5256.14,185.561 5255.44,185.561C5253.14,185.561 5236.44,202.961 5236.44,230.161C5236.44,257.261 5253.14,274.761 5255.44,274.761C5256.14,274.761 5256.64,274.261 5256.64,273.561ZM5304.23,250.261C5304.23,251.961 5304.03,256.061 5304.03,257.361C5304.03,258.661 5306.23,259.561 5307.83,259.561C5308.53,259.561 5309.13,259.361 5309.13,258.761C5309.03,256.661 5308.93,251.961 5308.93,249.761L5308.93,209.461C5308.93,207.161 5309.43,205.761 5309.43,204.461C5309.43,202.961 5307.63,201.461 5306.43,201.461C5305.23,201.461 5303.53,203.761 5302.93,204.261C5300.43,206.161 5296.63,208.261 5292.63,209.861C5292.03,210.061 5291.83,210.361 5291.83,210.661C5291.83,211.561 5293.63,212.461 5295.03,212.461C5295.33,212.461 5295.63,212.461 5295.83,212.361C5298.63,211.561 5301.93,210.261 5304.23,208.861L5304.23,250.261ZM5257.64,206.361C5257.44,206.061 5257.04,205.761 5256.54,205.761C5254.24,205.761 5249.24,217.461 5249.24,231.661C5249.24,248.161 5254.44,260.261 5265.23,260.261C5276.53,260.261 5282.03,246.161 5282.03,229.561C5282.03,213.261 5276.73,201.361 5267.03,201.361C5263.23,201.361 5260.03,203.361 5257.64,206.361ZM5264.94,255.961C5256.54,255.961 5253.74,244.761 5253.74,231.561C5253.74,214.161 5261.14,205.461 5266.73,205.461C5274.73,205.461 5277.53,217.761 5277.53,228.961C5277.53,242.661 5274.03,255.961 5264.94,255.961Z" style="fill-rule:nonzero;"/>
        </g>
    </g>
</svg>
