<?xml version="1.0" encoding="UTF-8" standalone="no"?>
<!DOCTYPE svg PUBLIC "-//W3C//DTD SVG 1.1//EN" "http://www.w3.org/Graphics/SVG/1.1/DTD/svg11.dtd">
<svg width="100%" height="100%" viewBox="0 0 98 90" version="1.1" xmlns="http://www.w3.org/2000/svg" xmlns:xlink="http://www.w3.org/1999/xlink" xml:space="preserve" xmlns:serif="http://www.serif.com/" style="fill-rule:evenodd;clip-rule:evenodd;stroke-linejoin:round;stroke-miterlimit:2;">
    <g transform="matrix(1,0,0,1,-5537.41,-635.561)">
        <g transform="matrix(1,0,0,1,1,0)">
            <path d="M5616.9,656.361C5617.5,656.361 5617.8,655.861 5617.8,655.261C5617.8,653.961 5616.6,651.861 5615.5,651.861L5615.3,651.861C5613.9,652.161 5611.6,652.361 5610.1,652.361L5594.9,653.261C5593.8,652.761 5592.6,652.361 5591.8,652.361C5591.1,652.361 5590.7,652.561 5590.7,653.261C5590.7,654.261 5590.7,655.661 5590.5,656.761L5588.5,676.461C5588.2,677.461 5587.7,679.861 5587.7,680.161C5587.7,682.161 5589.7,683.661 5591,683.661C5591.6,683.661 5592.3,682.961 5593.9,681.361C5596.6,678.761 5600.1,676.961 5604.3,676.961C5611.6,676.961 5616.3,681.961 5616.3,690.261C5616.3,698.061 5612.1,705.261 5601.5,705.261C5595.5,705.261 5591.7,701.461 5588.8,697.161C5588.6,696.761 5588.3,696.561 5588,696.561C5586.9,696.561 5585.6,698.761 5585.6,700.561C5585.6,703.261 5593.4,709.661 5601.5,709.661C5615.4,709.661 5621,700.461 5621,690.161C5621,679.161 5613.7,672.761 5605.1,672.761C5599.7,672.761 5596,674.461 5592.7,677.261L5594.8,657.661L5610.7,656.661L5616.9,656.361ZM5554.31,708.661C5558.51,707.661 5564.6,707.661 5566.3,707.661C5576.2,707.661 5583,708.261 5583,708.261C5583.8,708.261 5584.2,707.461 5584.2,706.461C5584.2,705.161 5583.5,703.561 5582.5,703.561C5581.5,703.561 5577.9,703.661 5576.6,703.661C5573.4,703.661 5570.9,703.561 5567.1,703.561C5564.1,703.561 5559.7,703.761 5556.81,704.061C5559.51,698.661 5564.2,690.561 5571,684.161C5578.2,677.361 5583.3,671.661 5583.3,664.261C5583.3,656.461 5577.9,650.861 5569.4,650.861C5561.51,650.861 5556.11,654.961 5553.01,660.861C5552.71,661.261 5552.61,661.761 5552.61,662.261C5552.61,663.161 5553.11,664.061 5554.31,665.061C5554.7,665.461 5555.01,665.561 5555.4,665.561C5556.2,665.561 5556.81,664.761 5557.2,663.661C5558.9,658.861 5563.1,655.061 5569.2,655.061C5575.1,655.061 5578.5,659.261 5578.5,664.261C5578.5,669.561 5574.5,674.561 5568.1,680.761C5561.61,687.061 5556.2,695.761 5553.2,701.561C5552.81,702.361 5552.31,703.061 5551.61,703.961C5551.41,704.261 5551.31,704.661 5551.31,705.161C5551.31,706.761 5552.61,708.661 5554.01,708.661L5554.31,708.661ZM5556.61,723.561C5556.61,723.161 5556.51,722.661 5556.11,722.261C5546.31,710.561 5541.71,694.361 5541.71,680.161C5541.71,665.961 5546.31,649.761 5556.11,638.061C5556.51,637.661 5556.61,637.161 5556.61,636.761C5556.61,636.061 5556.11,635.561 5555.4,635.561C5553.11,635.561 5536.41,652.961 5536.41,680.161C5536.41,707.261 5553.11,724.761 5555.4,724.761C5556.11,724.761 5556.61,724.261 5556.61,723.561ZM5615.1,724.761C5617.4,724.761 5634.1,707.261 5634.1,680.161C5634.1,652.961 5617.4,635.561 5615.1,635.561C5614.4,635.561 5613.9,636.061 5613.9,636.761C5613.9,637.161 5614,637.661 5614.4,638.061C5624.2,649.761 5628.8,665.961 5628.8,680.161C5628.8,694.361 5624.2,710.561 5614.4,722.261C5614,722.661 5613.9,723.161 5613.9,723.561C5613.9,724.261 5614.4,724.761 5615.1,724.761Z" style="fill-rule:nonzero;"/>
        </g>
    </g>
</svg>
