<?xml version="1.0" encoding="UTF-8" standalone="no"?>
<!DOCTYPE svg PUBLIC "-//W3C//DTD SVG 1.1//EN" "http://www.w3.org/Graphics/SVG/1.1/DTD/svg11.dtd">
<svg width="100%" height="100%" viewBox="0 0 98 90" version="1.1" xmlns="http://www.w3.org/2000/svg" xmlns:xlink="http://www.w3.org/1999/xlink" xml:space="preserve" xmlns:serif="http://www.serif.com/" style="fill-rule:evenodd;clip-rule:evenodd;stroke-linejoin:round;stroke-miterlimit:2;">
    <g transform="matrix(1,0,0,1,-5937.37,-1085.56)">
        <g transform="matrix(1,0,0,1,1,0)">
            <path d="M6010.06,1159.26C6012.06,1159.16 6013.26,1158.66 6013.36,1157.56C6014.06,1148.96 6018.66,1124.96 6022.36,1109.16C6022.46,1108.66 6023.06,1107.26 6023.36,1106.16L6023.36,1105.86C6023.36,1104.66 6021.76,1103.16 6019.96,1103.16C6018.26,1103.16 6018.66,1105.66 6018.06,1107.86C6016.96,1105.56 6013.16,1100.86 6005.26,1100.86C5994.06,1100.86 5985.56,1111.66 5985.56,1122.56C5985.56,1131.76 5990.76,1137.06 5998.36,1137.06C6004.26,1137.06 6010.46,1133.36 6013.96,1127.66L6008.46,1155.96C6008.36,1156.66 6008.06,1157.36 6008.06,1157.96C6008.06,1158.76 6008.46,1159.26 6009.86,1159.26L6010.06,1159.26ZM5980.56,1106.36C5981.16,1106.36 5981.46,1105.86 5981.46,1105.26C5981.46,1103.96 5980.26,1101.86 5979.16,1101.86L5978.96,1101.86C5977.56,1102.16 5975.26,1102.36 5973.76,1102.36L5958.56,1103.26C5957.46,1102.76 5956.26,1102.36 5955.46,1102.36C5954.76,1102.36 5954.36,1102.56 5954.36,1103.26C5954.36,1104.26 5954.36,1105.66 5954.16,1106.76L5952.16,1126.46C5951.86,1127.46 5951.36,1129.86 5951.36,1130.16C5951.36,1132.16 5953.36,1133.66 5954.66,1133.66C5955.26,1133.66 5955.96,1132.96 5957.56,1131.36C5960.26,1128.76 5963.76,1126.96 5967.96,1126.96C5975.26,1126.96 5979.96,1131.96 5979.96,1140.26C5979.96,1148.06 5975.76,1155.26 5965.16,1155.26C5959.16,1155.26 5955.36,1151.46 5952.47,1147.16C5952.27,1146.76 5951.97,1146.56 5951.66,1146.56C5950.57,1146.56 5949.27,1148.76 5949.27,1150.56C5949.27,1153.26 5957.06,1159.66 5965.16,1159.66C5979.06,1159.66 5984.66,1150.46 5984.66,1140.16C5984.66,1129.16 5977.36,1122.76 5968.76,1122.76C5963.36,1122.76 5959.66,1124.46 5956.36,1127.26L5958.46,1107.66L5974.36,1106.66L5980.56,1106.36ZM6016.46,1115.36C6013.16,1125.36 6006.66,1132.66 5998.26,1132.66C5992.96,1132.66 5990.26,1129.16 5990.26,1122.26C5990.26,1114.86 5995.86,1105.06 6005.66,1105.06C6011.46,1105.06 6013.86,1108.96 6014.96,1111.16C6015.26,1111.86 6015.66,1112.16 6016.16,1112.16C6016.56,1112.16 6016.96,1111.86 6017.36,1111.46L6016.46,1115.36ZM5956.56,1173.56C5956.56,1173.16 5956.46,1172.66 5956.06,1172.26C5946.27,1160.56 5941.67,1144.36 5941.67,1130.16C5941.67,1115.96 5946.27,1099.76 5956.06,1088.06C5956.46,1087.66 5956.56,1087.16 5956.56,1086.76C5956.56,1086.06 5956.06,1085.56 5955.36,1085.56C5953.07,1085.56 5936.37,1102.96 5936.37,1130.16C5936.37,1157.26 5953.07,1174.76 5955.36,1174.76C5956.06,1174.76 5956.56,1174.26 5956.56,1173.56ZM6015.06,1174.76C6017.36,1174.76 6034.06,1157.26 6034.06,1130.16C6034.06,1102.96 6017.36,1085.56 6015.06,1085.56C6014.36,1085.56 6013.86,1086.06 6013.86,1086.76C6013.86,1087.16 6013.96,1087.66 6014.36,1088.06C6024.16,1099.76 6028.76,1115.96 6028.76,1130.16C6028.76,1144.36 6024.16,1160.56 6014.36,1172.26C6013.96,1172.66 6013.86,1173.16 6013.86,1173.56C6013.86,1174.26 6014.36,1174.76 6015.06,1174.76Z" style="fill-rule:nonzero;"/>
        </g>
    </g>
</svg>
