<?xml version="1.0" encoding="UTF-8" standalone="no"?>
<!DOCTYPE svg PUBLIC "-//W3C//DTD SVG 1.1//EN" "http://www.w3.org/Graphics/SVG/1.1/DTD/svg11.dtd">
<svg width="100%" height="100%" viewBox="0 0 98 90" version="1.1" xmlns="http://www.w3.org/2000/svg" xmlns:xlink="http://www.w3.org/1999/xlink" xml:space="preserve" xmlns:serif="http://www.serif.com/" style="fill-rule:evenodd;clip-rule:evenodd;stroke-linejoin:round;stroke-miterlimit:2;">
    <g transform="matrix(1,0,0,1,-5737.39,-1085.56)">
        <g transform="matrix(1,0,0,1,1,0)">
            <path d="M5780.58,1106.36C5781.18,1106.36 5781.48,1105.86 5781.48,1105.26C5781.48,1103.96 5780.28,1101.86 5779.18,1101.86L5778.98,1101.86C5777.58,1102.16 5775.28,1102.36 5773.78,1102.36L5758.58,1103.26C5757.48,1102.76 5756.28,1102.36 5755.48,1102.36C5754.78,1102.36 5754.39,1102.56 5754.39,1103.26C5754.39,1104.26 5754.39,1105.66 5754.19,1106.76L5752.19,1126.46C5751.89,1127.46 5751.39,1129.86 5751.39,1130.16C5751.39,1132.16 5753.39,1133.66 5754.69,1133.66C5755.28,1133.66 5755.98,1132.96 5757.59,1131.36C5760.28,1128.76 5763.78,1126.96 5767.98,1126.96C5775.28,1126.96 5779.98,1131.96 5779.98,1140.26C5779.98,1148.06 5775.78,1155.26 5765.18,1155.26C5759.18,1155.26 5755.39,1151.46 5752.48,1147.16C5752.28,1146.76 5751.98,1146.56 5751.69,1146.56C5750.59,1146.56 5749.28,1148.76 5749.28,1150.56C5749.28,1153.26 5757.09,1159.66 5765.18,1159.66C5779.08,1159.66 5784.68,1150.46 5784.68,1140.16C5784.68,1129.16 5777.38,1122.76 5768.78,1122.76C5763.38,1122.76 5759.68,1124.46 5756.39,1127.26L5758.48,1107.66L5774.38,1106.66L5780.58,1106.36ZM5756.59,1173.56C5756.59,1173.16 5756.48,1172.66 5756.09,1172.26C5746.29,1160.56 5741.69,1144.36 5741.69,1130.16C5741.69,1115.96 5746.29,1099.76 5756.09,1088.06C5756.48,1087.66 5756.59,1087.16 5756.59,1086.76C5756.59,1086.06 5756.09,1085.56 5755.39,1085.56C5753.09,1085.56 5736.39,1102.96 5736.39,1130.16C5736.39,1157.26 5753.09,1174.76 5755.39,1174.76C5756.09,1174.76 5756.59,1174.26 5756.59,1173.56ZM5815.08,1174.76C5817.38,1174.76 5834.08,1157.26 5834.08,1130.16C5834.08,1102.96 5817.38,1085.56 5815.08,1085.56C5814.38,1085.56 5813.88,1086.06 5813.88,1086.76C5813.88,1087.16 5813.98,1087.66 5814.38,1088.06C5824.18,1099.76 5828.78,1115.96 5828.78,1130.16C5828.78,1144.36 5824.18,1160.56 5814.38,1172.26C5813.98,1172.66 5813.88,1173.16 5813.88,1173.56C5813.88,1174.26 5814.38,1174.76 5815.08,1174.76ZM5818.98,1105.06C5818.98,1103.66 5816.98,1101.86 5815.78,1101.66L5815.58,1101.66C5814.58,1101.66 5813.48,1102.16 5812.28,1102.26L5790.78,1103.76L5789.68,1103.76C5788.38,1103.76 5787.58,1103.66 5786.68,1103.66C5786.38,1103.66 5786.28,1103.86 5786.28,1104.16C5786.28,1104.76 5787.28,1108.26 5790.18,1108.26C5790.88,1108.26 5791.68,1108.06 5792.48,1108.06L5813.18,1106.26C5804.68,1125.46 5803.08,1130.06 5794.18,1155.56C5794.08,1156.06 5793.68,1156.76 5793.68,1157.46C5793.68,1158.16 5794.08,1158.86 5795.68,1159.06C5796.08,1159.06 5796.48,1159.16 5796.78,1159.16C5798.08,1159.16 5798.78,1158.86 5798.98,1157.96C5799.58,1155.06 5800.18,1152.76 5800.78,1151.06C5805.08,1137.66 5811.08,1122.26 5817.08,1109.16C5817.58,1108.16 5818.78,1106.66 5818.98,1105.36L5818.98,1105.06Z" style="fill-rule:nonzero;"/>
        </g>
    </g>
</svg>
