<?xml version="1.0" encoding="UTF-8" standalone="no"?>
<!DOCTYPE svg PUBLIC "-//W3C//DTD SVG 1.1//EN" "http://www.w3.org/Graphics/SVG/1.1/DTD/svg11.dtd">
<svg width="100%" height="100%" viewBox="0 0 98 90" version="1.1" xmlns="http://www.w3.org/2000/svg" xmlns:xlink="http://www.w3.org/1999/xlink" xml:space="preserve" xmlns:serif="http://www.serif.com/" style="fill-rule:evenodd;clip-rule:evenodd;stroke-linejoin:round;stroke-miterlimit:2;">
    <g transform="matrix(1,0,0,1,-5337.43,-1235.56)">
        <g transform="matrix(1,0,0,1,1,0)">
            <path d="M5365.43,1253.46C5362.12,1258.26 5358.73,1264.26 5354.93,1271.46C5351.13,1278.96 5349.13,1285.76 5349.13,1292.56C5349.13,1301.96 5356.82,1309.66 5367.12,1309.66C5378.32,1309.66 5385.12,1301.26 5385.12,1290.36C5385.12,1280.56 5378.42,1273.36 5368.52,1273.36C5363.03,1273.36 5358.53,1275.76 5355.73,1279.66C5358.53,1273.86 5364.03,1262.76 5371.32,1254.26C5371.62,1253.86 5372.22,1253.16 5372.22,1252.56C5372.22,1251.56 5370.12,1250.76 5368.72,1250.76C5367.82,1250.76 5367.02,1251.06 5366.62,1251.76L5365.43,1253.46ZM5367.12,1305.56C5359.32,1305.56 5353.83,1299.86 5353.83,1292.46C5353.83,1284.46 5359.53,1277.46 5368.42,1277.46C5375.82,1277.46 5380.32,1283.66 5380.32,1290.56C5380.32,1299.36 5374.72,1305.56 5367.12,1305.56ZM5407.22,1276.86C5414.12,1275.06 5419.32,1270.06 5419.32,1263.26C5419.32,1255.46 5413.52,1250.86 5404.82,1250.86C5394.62,1250.86 5387.82,1257.56 5387.82,1259.66C5387.82,1261.46 5389.42,1263.06 5390.22,1263.06C5391.02,1263.06 5391.62,1262.06 5391.92,1261.76C5395.92,1257.16 5400.02,1255.06 5404.92,1255.06C5411.02,1255.06 5414.62,1258.36 5414.62,1263.76C5414.62,1271.26 5404.32,1275.56 5396.62,1276.06C5396.02,1276.16 5395.72,1276.66 5395.72,1277.26C5395.72,1278.56 5396.82,1280.46 5398.22,1280.46C5398.42,1280.46 5398.52,1280.36 5398.72,1280.36C5398.82,1280.36 5401.92,1279.66 5404.82,1279.66C5411.92,1279.66 5417.02,1284.26 5417.02,1290.86C5417.02,1298.26 5412.72,1305.36 5401.82,1305.36C5396.22,1305.36 5392.72,1302.56 5389.32,1298.36C5389.02,1298.06 5388.82,1297.86 5388.52,1297.86C5387.32,1297.86 5386.22,1299.96 5386.22,1301.56C5386.22,1302.26 5386.32,1302.76 5386.72,1303.16C5391.02,1307.36 5395.82,1309.66 5401.82,1309.66C5416.02,1309.66 5421.82,1300.96 5421.82,1290.76C5421.82,1282.16 5415.42,1276.86 5408.22,1276.86L5407.22,1276.86ZM5356.63,1323.56C5356.63,1323.16 5356.53,1322.66 5356.13,1322.26C5346.33,1310.56 5341.73,1294.36 5341.73,1280.16C5341.73,1265.96 5346.33,1249.76 5356.13,1238.06C5356.53,1237.66 5356.63,1237.16 5356.63,1236.76C5356.63,1236.06 5356.13,1235.56 5355.43,1235.56C5353.13,1235.56 5336.43,1252.96 5336.43,1280.16C5336.43,1307.26 5353.13,1324.76 5355.43,1324.76C5356.13,1324.76 5356.63,1324.26 5356.63,1323.56ZM5415.12,1324.76C5417.42,1324.76 5434.12,1307.26 5434.12,1280.16C5434.12,1252.96 5417.42,1235.56 5415.12,1235.56C5414.42,1235.56 5413.92,1236.06 5413.92,1236.76C5413.92,1237.16 5414.02,1237.66 5414.42,1238.06C5424.22,1249.76 5428.82,1265.96 5428.82,1280.16C5428.82,1294.36 5424.22,1310.56 5414.42,1322.26C5414.02,1322.66 5413.92,1323.16 5413.92,1323.56C5413.92,1324.26 5414.42,1324.76 5415.12,1324.76Z" style="fill-rule:nonzero;"/>
        </g>
    </g>
</svg>
