<?xml version="1.0" encoding="UTF-8" standalone="no"?>
<!DOCTYPE svg PUBLIC "-//W3C//DTD SVG 1.1//EN" "http://www.w3.org/Graphics/SVG/1.1/DTD/svg11.dtd">
<svg width="100%" height="100%" viewBox="0 0 98 90" version="1.1" xmlns="http://www.w3.org/2000/svg" xmlns:xlink="http://www.w3.org/1999/xlink" xml:space="preserve" xmlns:serif="http://www.serif.com/" style="fill-rule:evenodd;clip-rule:evenodd;stroke-linejoin:round;stroke-miterlimit:2;">
    <g transform="matrix(1,0,0,1,-5637.4,-1085.56)">
        <g transform="matrix(1,0,0,1,1,0)">
            <path d="M5702.69,1103.46C5699.39,1108.26 5695.99,1114.26 5692.19,1121.46C5688.39,1128.96 5686.39,1135.76 5686.39,1142.56C5686.39,1151.96 5694.09,1159.66 5704.39,1159.66C5715.59,1159.66 5722.39,1151.26 5722.39,1140.36C5722.39,1130.56 5715.69,1123.36 5705.79,1123.36C5700.29,1123.36 5695.79,1125.76 5692.99,1129.66C5695.79,1123.86 5701.29,1112.76 5708.59,1104.26C5708.89,1103.86 5709.49,1103.16 5709.49,1102.56C5709.49,1101.56 5707.39,1100.76 5705.99,1100.76C5705.09,1100.76 5704.29,1101.06 5703.89,1101.76L5702.69,1103.46ZM5680.59,1106.36C5681.19,1106.36 5681.49,1105.86 5681.49,1105.26C5681.49,1103.96 5680.29,1101.86 5679.19,1101.86L5678.99,1101.86C5677.59,1102.16 5675.29,1102.36 5673.79,1102.36L5658.6,1103.26C5657.49,1102.76 5656.3,1102.36 5655.49,1102.36C5654.8,1102.36 5654.4,1102.56 5654.4,1103.26C5654.4,1104.26 5654.4,1105.66 5654.19,1106.76L5652.19,1126.46C5651.9,1127.46 5651.4,1129.86 5651.4,1130.16C5651.4,1132.16 5653.4,1133.66 5654.69,1133.66C5655.3,1133.66 5655.99,1132.96 5657.6,1131.36C5660.3,1128.76 5663.79,1126.96 5667.99,1126.96C5675.29,1126.96 5679.99,1131.96 5679.99,1140.26C5679.99,1148.06 5675.79,1155.26 5665.19,1155.26C5659.19,1155.26 5655.4,1151.46 5652.49,1147.16C5652.3,1146.76 5651.99,1146.56 5651.69,1146.56C5650.6,1146.56 5649.3,1148.76 5649.3,1150.56C5649.3,1153.26 5657.1,1159.66 5665.19,1159.66C5679.09,1159.66 5684.69,1150.46 5684.69,1140.16C5684.69,1129.16 5677.39,1122.76 5668.79,1122.76C5663.39,1122.76 5659.69,1124.46 5656.4,1127.26L5658.49,1107.66L5674.39,1106.66L5680.59,1106.36ZM5704.39,1155.56C5696.59,1155.56 5691.09,1149.86 5691.09,1142.46C5691.09,1134.46 5696.79,1127.46 5705.69,1127.46C5713.09,1127.46 5717.59,1133.66 5717.59,1140.56C5717.59,1149.36 5711.99,1155.56 5704.39,1155.56ZM5656.6,1173.56C5656.6,1173.16 5656.49,1172.66 5656.1,1172.26C5646.3,1160.56 5641.7,1144.36 5641.7,1130.16C5641.7,1115.96 5646.3,1099.76 5656.1,1088.06C5656.49,1087.66 5656.6,1087.16 5656.6,1086.76C5656.6,1086.06 5656.1,1085.56 5655.4,1085.56C5653.1,1085.56 5636.4,1102.96 5636.4,1130.16C5636.4,1157.26 5653.1,1174.76 5655.4,1174.76C5656.1,1174.76 5656.6,1174.26 5656.6,1173.56ZM5715.09,1174.76C5717.39,1174.76 5734.09,1157.26 5734.09,1130.16C5734.09,1102.96 5717.39,1085.56 5715.09,1085.56C5714.39,1085.56 5713.89,1086.06 5713.89,1086.76C5713.89,1087.16 5713.99,1087.66 5714.39,1088.06C5724.19,1099.76 5728.79,1115.96 5728.79,1130.16C5728.79,1144.36 5724.19,1160.56 5714.39,1172.26C5713.99,1172.66 5713.89,1173.16 5713.89,1173.56C5713.89,1174.26 5714.39,1174.76 5715.09,1174.76Z" style="fill-rule:nonzero;"/>
        </g>
    </g>
</svg>
