<?xml version="1.0" encoding="UTF-8" standalone="no"?>
<!DOCTYPE svg PUBLIC "-//W3C//DTD SVG 1.1//EN" "http://www.w3.org/Graphics/SVG/1.1/DTD/svg11.dtd">
<svg width="100%" height="100%" viewBox="0 0 98 90" version="1.1" xmlns="http://www.w3.org/2000/svg" xmlns:xlink="http://www.w3.org/1999/xlink" xml:space="preserve" xmlns:serif="http://www.serif.com/" style="fill-rule:evenodd;clip-rule:evenodd;stroke-linejoin:round;stroke-miterlimit:2;">
    <g transform="matrix(1,0,0,1,-5837.38,-935.561)">
        <g transform="matrix(1,0,0,1,1,0)">
            <path d="M5906.17,975.861C5913.97,970.461 5920.87,963.461 5920.87,961.361C5920.87,960.461 5920.27,959.861 5919.47,959.861C5918.87,959.861 5918.27,960.061 5917.57,960.761L5917.17,961.161C5917.47,960.661 5917.67,960.061 5917.67,959.661C5917.67,959.361 5917.57,959.061 5917.47,958.861C5914.37,954.561 5909.87,950.961 5903.57,950.961C5893.77,950.961 5888.07,957.261 5888.07,964.361C5888.07,969.661 5890.17,973.061 5897.57,976.661C5890.07,981.661 5885.57,987.161 5885.57,994.461C5885.57,1003.06 5891.77,1009.66 5902.17,1009.66C5913.67,1009.66 5921.27,1003.26 5921.27,993.361C5921.27,985.561 5916.77,980.461 5907.17,976.261L5906.17,975.861ZM5878.07,995.361C5880.27,995.361 5883.27,995.561 5884.37,995.561C5884.97,995.561 5885.17,995.061 5885.17,994.461C5885.17,993.061 5883.97,990.761 5882.67,990.761C5881.67,990.761 5879.37,991.161 5877.97,991.261L5876.57,991.361L5876.57,974.661C5876.57,972.661 5876.77,968.761 5876.77,967.461C5876.77,966.061 5874.57,965.161 5873.07,965.161C5872.27,965.161 5871.67,965.461 5871.67,965.961C5871.67,967.861 5871.87,973.061 5871.87,974.661L5871.87,991.561L5852.88,991.961C5858.57,982.361 5865.87,969.361 5870.37,960.461C5871.07,959.161 5872.27,957.261 5873.17,955.961C5873.37,955.761 5873.37,955.461 5873.37,955.161C5873.37,953.461 5871.07,951.061 5869.77,951.061C5869.37,951.061 5869.07,951.161 5868.97,951.561C5865.77,959.661 5858.97,972.861 5850.18,987.661C5849.48,988.761 5848.38,989.961 5847.48,991.361C5847.07,991.861 5846.98,992.461 5846.98,992.961C5846.98,994.861 5848.88,996.661 5850.48,996.661C5850.68,996.661 5850.78,996.561 5850.98,996.561C5852.18,996.261 5853.38,996.061 5853.98,996.061L5871.87,995.561L5871.87,999.961C5871.87,1001.16 5871.67,1005.76 5871.67,1007.06C5871.67,1008.46 5873.97,1009.36 5875.57,1009.36C5876.37,1009.36 5876.97,1009.06 5876.97,1008.56C5876.97,1006.66 5876.67,1003.46 5876.57,1000.16L5876.57,995.361L5878.07,995.361ZM5901.97,978.661C5910.77,982.161 5916.57,985.761 5916.57,993.761C5916.57,1000.66 5910.47,1005.36 5902.17,1005.36C5893.87,1005.36 5890.27,999.761 5890.27,994.261C5890.27,988.461 5894.57,983.761 5901.97,978.661ZM5856.57,1023.56C5856.57,1023.16 5856.48,1022.66 5856.07,1022.26C5846.28,1010.56 5841.68,994.361 5841.68,980.161C5841.68,965.961 5846.28,949.761 5856.07,938.061C5856.48,937.661 5856.57,937.161 5856.57,936.761C5856.57,936.061 5856.07,935.561 5855.38,935.561C5853.07,935.561 5836.38,952.961 5836.38,980.161C5836.38,1007.26 5853.07,1024.76 5855.38,1024.76C5856.07,1024.76 5856.57,1024.26 5856.57,1023.56ZM5915.07,1024.76C5917.37,1024.76 5934.07,1007.26 5934.07,980.161C5934.07,952.961 5917.37,935.561 5915.07,935.561C5914.37,935.561 5913.87,936.061 5913.87,936.761C5913.87,937.161 5913.97,937.661 5914.37,938.061C5924.17,949.761 5928.77,965.961 5928.77,980.161C5928.77,994.361 5924.17,1010.56 5914.37,1022.26C5913.97,1022.66 5913.87,1023.16 5913.87,1023.56C5913.87,1024.26 5914.37,1024.76 5915.07,1024.76ZM5901.87,973.861C5894.87,970.761 5892.77,968.561 5892.77,964.361C5892.77,959.661 5896.37,955.061 5903.67,955.061C5908.37,955.061 5911.17,957.561 5913.57,961.461C5914.07,962.261 5914.57,962.561 5915.07,962.561C5915.37,962.561 5915.67,962.461 5915.87,962.361C5911.87,966.361 5907.27,970.461 5901.87,973.861Z" style="fill-rule:nonzero;"/>
        </g>
    </g>
</svg>
