<?xml version="1.0" encoding="UTF-8" standalone="no"?>
<!DOCTYPE svg PUBLIC "-//W3C//DTD SVG 1.1//EN" "http://www.w3.org/Graphics/SVG/1.1/DTD/svg11.dtd">
<svg width="100%" height="100%" viewBox="0 0 98 90" version="1.1" xmlns="http://www.w3.org/2000/svg" xmlns:xlink="http://www.w3.org/1999/xlink" xml:space="preserve" xmlns:serif="http://www.serif.com/" style="fill-rule:evenodd;clip-rule:evenodd;stroke-linejoin:round;stroke-miterlimit:2;">
    <g transform="matrix(1,0,0,1,-5437.42,-1385.56)">
        <g transform="matrix(1,0,0,1,1,0)">
            <path d="M5515.11,1474.76C5517.41,1474.76 5534.11,1457.26 5534.11,1430.16C5534.11,1402.96 5517.41,1385.56 5515.11,1385.56C5514.41,1385.56 5513.91,1386.06 5513.91,1386.76C5513.91,1387.16 5514.01,1387.66 5514.41,1388.06C5524.21,1399.76 5528.81,1415.96 5528.81,1430.16C5528.81,1444.36 5524.21,1460.56 5514.41,1472.26C5514.01,1472.66 5513.91,1473.16 5513.91,1473.56C5513.91,1474.26 5514.41,1474.76 5515.11,1474.76ZM5456.61,1473.56C5456.61,1473.16 5456.52,1472.66 5456.11,1472.26C5446.32,1460.56 5441.72,1444.36 5441.72,1430.16C5441.72,1415.96 5446.32,1399.76 5456.11,1388.06C5456.52,1387.66 5456.61,1387.16 5456.61,1386.76C5456.61,1386.06 5456.11,1385.56 5455.41,1385.56C5453.12,1385.56 5436.42,1402.96 5436.42,1430.16C5436.42,1457.26 5453.12,1474.76 5455.41,1474.76C5456.11,1474.76 5456.61,1474.26 5456.61,1473.56ZM5514.81,1445.36C5517.01,1445.36 5520.01,1445.56 5521.11,1445.56C5521.71,1445.56 5521.91,1445.06 5521.91,1444.46C5521.91,1443.06 5520.71,1440.76 5519.41,1440.76C5518.41,1440.76 5516.11,1441.16 5514.71,1441.26L5513.31,1441.36L5513.31,1424.66C5513.31,1422.66 5513.51,1418.76 5513.51,1417.46C5513.51,1416.06 5511.31,1415.16 5509.81,1415.16C5509.01,1415.16 5508.41,1415.46 5508.41,1415.96C5508.41,1417.86 5508.61,1423.06 5508.61,1424.66L5508.61,1441.56L5489.61,1441.96C5495.31,1432.36 5502.61,1419.36 5507.11,1410.46C5507.81,1409.16 5509.01,1407.26 5509.91,1405.96C5510.11,1405.76 5510.11,1405.46 5510.11,1405.16C5510.11,1403.46 5507.81,1401.06 5506.51,1401.06C5506.11,1401.06 5505.81,1401.16 5505.71,1401.56C5502.51,1409.66 5495.71,1422.86 5486.91,1437.66C5486.21,1438.76 5485.11,1439.96 5484.21,1441.36C5483.81,1441.86 5483.71,1442.46 5483.71,1442.96C5483.71,1444.86 5485.61,1446.66 5487.21,1446.66C5487.41,1446.66 5487.51,1446.56 5487.71,1446.56C5488.91,1446.26 5490.11,1446.06 5490.71,1446.06L5508.61,1445.56L5508.61,1449.96C5508.61,1451.16 5508.41,1455.76 5508.41,1457.06C5508.41,1458.46 5510.71,1459.36 5512.31,1459.36C5513.11,1459.36 5513.71,1459.06 5513.71,1458.56C5513.71,1456.66 5513.41,1453.46 5513.31,1450.16L5513.31,1445.36L5514.81,1445.36ZM5484.71,1405.06C5484.71,1403.66 5482.71,1401.86 5481.51,1401.66L5481.31,1401.66C5480.31,1401.66 5479.21,1402.16 5478.01,1402.26L5456.52,1403.76L5455.41,1403.76C5454.12,1403.76 5453.32,1403.66 5452.42,1403.66C5452.12,1403.66 5452.02,1403.86 5452.02,1404.16C5452.02,1404.76 5453.02,1408.26 5455.91,1408.26C5456.61,1408.26 5457.41,1408.06 5458.22,1408.06L5478.91,1406.26C5470.41,1425.46 5468.81,1430.06 5459.91,1455.56C5459.82,1456.06 5459.41,1456.76 5459.41,1457.46C5459.41,1458.16 5459.82,1458.86 5461.41,1459.06C5461.82,1459.06 5462.22,1459.16 5462.52,1459.16C5463.82,1459.16 5464.52,1458.86 5464.71,1457.96C5465.31,1455.06 5465.91,1452.76 5466.51,1451.06C5470.81,1437.66 5476.81,1422.26 5482.81,1409.16C5483.31,1408.16 5484.51,1406.66 5484.71,1405.36L5484.71,1405.06Z" style="fill-rule:nonzero;"/>
        </g>
    </g>
</svg>
