<?xml version="1.0" encoding="UTF-8" standalone="no"?>
<!DOCTYPE svg PUBLIC "-//W3C//DTD SVG 1.1//EN" "http://www.w3.org/Graphics/SVG/1.1/DTD/svg11.dtd">
<svg width="100%" height="100%" viewBox="0 0 98 90" version="1.1" xmlns="http://www.w3.org/2000/svg" xmlns:xlink="http://www.w3.org/1999/xlink" xml:space="preserve" xmlns:serif="http://www.serif.com/" style="fill-rule:evenodd;clip-rule:evenodd;stroke-linejoin:round;stroke-miterlimit:2;">
    <g transform="matrix(1,0,0,1,-5937.37,-935.561)">
        <g transform="matrix(1,0,0,1,1,0)">
            <path d="M6009.56,1009.26C6011.56,1009.16 6012.76,1008.66 6012.86,1007.56C6013.56,998.961 6018.16,974.961 6021.86,959.161C6021.96,958.661 6022.56,957.261 6022.86,956.161L6022.86,955.861C6022.86,954.661 6021.26,953.161 6019.46,953.161C6017.76,953.161 6018.16,955.661 6017.56,957.861C6016.46,955.561 6012.66,950.861 6004.76,950.861C5993.56,950.861 5985.06,961.661 5985.06,972.561C5985.06,981.761 5990.26,987.061 5997.86,987.061C6003.76,987.061 6009.96,983.361 6013.46,977.661L6007.96,1005.96C6007.86,1006.66 6007.56,1007.36 6007.56,1007.96C6007.56,1008.76 6007.96,1009.26 6009.36,1009.26L6009.56,1009.26ZM5978.06,995.361C5980.26,995.361 5983.26,995.561 5984.36,995.561C5984.96,995.561 5985.16,995.061 5985.16,994.461C5985.16,993.061 5983.96,990.761 5982.66,990.761C5981.66,990.761 5979.36,991.161 5977.96,991.261L5976.56,991.361L5976.56,974.661C5976.56,972.661 5976.76,968.761 5976.76,967.461C5976.76,966.061 5974.56,965.161 5973.06,965.161C5972.26,965.161 5971.66,965.461 5971.66,965.961C5971.66,967.861 5971.86,973.061 5971.86,974.661L5971.86,991.561L5952.86,991.961C5958.56,982.361 5965.86,969.361 5970.36,960.461C5971.06,959.161 5972.26,957.261 5973.16,955.961C5973.36,955.761 5973.36,955.461 5973.36,955.161C5973.36,953.461 5971.06,951.061 5969.76,951.061C5969.36,951.061 5969.06,951.161 5968.96,951.561C5965.76,959.661 5958.96,972.861 5950.16,987.661C5949.47,988.761 5948.36,989.961 5947.47,991.361C5947.07,991.861 5946.97,992.461 5946.97,992.961C5946.97,994.861 5948.86,996.661 5950.47,996.661C5950.66,996.661 5950.77,996.561 5950.97,996.561C5952.16,996.261 5953.36,996.061 5953.97,996.061L5971.86,995.561L5971.86,999.961C5971.86,1001.16 5971.66,1005.76 5971.66,1007.06C5971.66,1008.46 5973.96,1009.36 5975.56,1009.36C5976.36,1009.36 5976.96,1009.06 5976.96,1008.56C5976.96,1006.66 5976.66,1003.46 5976.56,1000.16L5976.56,995.361L5978.06,995.361ZM6015.96,965.361C6012.66,975.361 6006.16,982.661 5997.76,982.661C5992.46,982.661 5989.76,979.161 5989.76,972.261C5989.76,964.861 5995.36,955.061 6005.16,955.061C6010.96,955.061 6013.36,958.961 6014.46,961.161C6014.76,961.861 6015.16,962.161 6015.66,962.161C6016.06,962.161 6016.46,961.861 6016.86,961.461L6015.96,965.361ZM5956.56,1023.56C5956.56,1023.16 5956.46,1022.66 5956.06,1022.26C5946.27,1010.56 5941.67,994.361 5941.67,980.161C5941.67,965.961 5946.27,949.761 5956.06,938.061C5956.46,937.661 5956.56,937.161 5956.56,936.761C5956.56,936.061 5956.06,935.561 5955.36,935.561C5953.07,935.561 5936.37,952.961 5936.37,980.161C5936.37,1007.26 5953.07,1024.76 5955.36,1024.76C5956.06,1024.76 5956.56,1024.26 5956.56,1023.56ZM6015.06,1024.76C6017.36,1024.76 6034.06,1007.26 6034.06,980.161C6034.06,952.961 6017.36,935.561 6015.06,935.561C6014.36,935.561 6013.86,936.061 6013.86,936.761C6013.86,937.161 6013.96,937.661 6014.36,938.061C6024.16,949.761 6028.76,965.961 6028.76,980.161C6028.76,994.361 6024.16,1010.56 6014.36,1022.26C6013.96,1022.66 6013.86,1023.16 6013.86,1023.56C6013.86,1024.26 6014.36,1024.76 6015.06,1024.76Z" style="fill-rule:nonzero;"/>
        </g>
    </g>
</svg>
