<?xml version="1.0" encoding="UTF-8" standalone="no"?>
<!DOCTYPE svg PUBLIC "-//W3C//DTD SVG 1.1//EN" "http://www.w3.org/Graphics/SVG/1.1/DTD/svg11.dtd">
<svg width="100%" height="100%" viewBox="0 0 98 90" version="1.1" xmlns="http://www.w3.org/2000/svg" xmlns:xlink="http://www.w3.org/1999/xlink" xml:space="preserve" xmlns:serif="http://www.serif.com/" style="fill-rule:evenodd;clip-rule:evenodd;stroke-linejoin:round;stroke-miterlimit:2;">
    <g transform="matrix(1,0,0,1,-6037.36,-635.561)">
        <g transform="matrix(1,0,0,1,1,0)">
            <path d="M6115.05,724.761C6117.35,724.761 6134.05,707.261 6134.05,680.161C6134.05,652.961 6117.35,635.561 6115.05,635.561C6114.35,635.561 6113.85,636.061 6113.85,636.761C6113.85,637.161 6113.95,637.661 6114.35,638.061C6124.15,649.761 6128.75,665.961 6128.75,680.161C6128.75,694.361 6124.15,710.561 6114.35,722.261C6113.95,722.661 6113.85,723.161 6113.85,723.561C6113.85,724.261 6114.35,724.761 6115.05,724.761ZM6056.55,723.561C6056.55,723.161 6056.45,722.661 6056.05,722.261C6046.26,710.561 6041.66,694.361 6041.66,680.161C6041.66,665.961 6046.26,649.761 6056.05,638.061C6056.45,637.661 6056.55,637.161 6056.55,636.761C6056.55,636.061 6056.05,635.561 6055.35,635.561C6053.05,635.561 6036.36,652.961 6036.36,680.161C6036.36,707.261 6053.05,724.761 6055.35,724.761C6056.05,724.761 6056.55,724.261 6056.55,723.561ZM6095.85,655.761C6095.55,655.161 6094.75,655.161 6094.65,655.161C6092.55,655.161 6087.25,666.361 6087.25,681.061C6087.25,697.561 6092.55,709.661 6103.55,709.661C6115.15,709.661 6120.75,695.561 6120.75,678.961C6120.75,662.661 6115.35,650.761 6105.45,650.761C6101.55,650.761 6098.25,652.761 6095.85,655.761ZM6070.05,676.861C6076.95,675.061 6082.15,670.061 6082.15,663.261C6082.15,655.461 6076.35,650.861 6067.65,650.861C6057.45,650.861 6050.65,657.561 6050.65,659.661C6050.65,661.461 6052.26,663.061 6053.05,663.061C6053.85,663.061 6054.45,662.061 6054.75,661.761C6058.75,657.161 6062.85,655.061 6067.75,655.061C6073.85,655.061 6077.45,658.361 6077.45,663.761C6077.45,671.261 6067.15,675.561 6059.45,676.061C6058.85,676.161 6058.55,676.661 6058.55,677.261C6058.55,678.561 6059.65,680.461 6061.05,680.461C6061.25,680.461 6061.35,680.361 6061.55,680.361C6061.65,680.361 6064.75,679.661 6067.65,679.661C6074.75,679.661 6079.85,684.261 6079.85,690.861C6079.85,698.261 6075.65,705.361 6065.15,705.361C6059.25,705.361 6055.85,702.561 6052.45,698.361C6052.15,698.061 6051.95,697.861 6051.65,697.861C6050.45,697.861 6049.36,699.961 6049.36,701.561C6049.36,702.261 6049.45,702.761 6049.86,703.161C6054.15,707.361 6058.95,709.661 6065.15,709.661C6079.05,709.661 6084.65,700.961 6084.65,690.761C6084.65,682.161 6078.25,676.861 6071.05,676.861L6070.05,676.861ZM6103.25,705.361C6094.75,705.361 6091.85,694.161 6091.85,680.961C6091.85,663.561 6099.35,654.861 6105.15,654.861C6113.25,654.861 6116.15,667.161 6116.15,678.361C6116.15,692.061 6112.55,705.361 6103.25,705.361Z" style="fill-rule:nonzero;"/>
        </g>
    </g>
</svg>
