<?xml version="1.0" encoding="UTF-8" standalone="no"?>
<!DOCTYPE svg PUBLIC "-//W3C//DTD SVG 1.1//EN" "http://www.w3.org/Graphics/SVG/1.1/DTD/svg11.dtd">
<svg width="100%" height="100%" viewBox="0 0 98 90" version="1.1" xmlns="http://www.w3.org/2000/svg" xmlns:xlink="http://www.w3.org/1999/xlink" xml:space="preserve" xmlns:serif="http://www.serif.com/" style="fill-rule:evenodd;clip-rule:evenodd;stroke-linejoin:round;stroke-miterlimit:2;">
    <g transform="matrix(1,0,0,1,-5937.37,-485.561)">
        <g transform="matrix(1,0,0,1,1,0)">
            <path d="M6002.46,559.261C6004.46,559.161 6005.66,558.661 6005.76,557.561C6006.66,547.261 6013.16,513.361 6015.76,506.161L6015.76,505.861C6015.76,504.661 6013.66,503.361 6012.36,503.161L6012.16,503.161C6010.66,503.161 6011.06,505.561 6010.46,507.861C6008.66,504.261 6003.66,500.861 5996.96,500.861C5985.76,500.861 5976.46,511.661 5976.46,522.561C5976.46,531.761 5982.46,537.061 5990.06,537.061C5995.96,537.061 6002.86,533.361 6006.36,527.661L6000.86,555.961C6000.76,556.661 6000.46,557.361 6000.46,557.961C6000.46,558.761 6000.86,559.261 6002.26,559.261L6002.46,559.261ZM6008.86,515.361C6003.06,532.661 5991.26,532.661 5989.96,532.661C5984.66,532.661 5981.16,529.161 5981.16,522.261C5981.16,514.861 5987.56,505.061 5997.36,505.061C6003.16,505.061 6006.26,508.961 6007.36,511.161C6007.66,511.861 6008.06,512.161 6008.56,512.161C6008.96,512.161 6009.36,511.861 6009.76,511.461L6008.86,515.361ZM5956.56,573.561C5956.56,573.161 5956.46,572.661 5956.06,572.261C5946.27,560.561 5941.67,544.361 5941.67,530.161C5941.67,515.961 5946.27,499.761 5956.06,488.061C5956.46,487.661 5956.56,487.161 5956.56,486.761C5956.56,486.061 5956.06,485.561 5955.36,485.561C5953.07,485.561 5936.37,502.961 5936.37,530.161C5936.37,557.261 5953.07,574.761 5955.36,574.761C5956.06,574.761 5956.56,574.261 5956.56,573.561ZM6015.06,574.761C6017.36,574.761 6034.06,557.261 6034.06,530.161C6034.06,502.961 6017.36,485.561 6015.06,485.561C6014.36,485.561 6013.86,486.061 6013.86,486.761C6013.86,487.161 6013.96,487.661 6014.36,488.061C6024.16,499.761 6028.76,515.961 6028.76,530.161C6028.76,544.361 6024.16,560.561 6014.36,572.261C6013.96,572.661 6013.86,573.161 6013.86,573.561C6013.86,574.261 6014.36,574.761 6015.06,574.761ZM5963.56,550.061C5963.56,551.761 5963.36,555.861 5963.36,557.161C5963.36,558.461 5965.56,559.361 5967.16,559.361C5967.86,559.361 5968.46,559.161 5968.46,558.561C5968.36,556.461 5968.26,551.761 5968.26,549.561L5968.26,509.261C5968.26,506.961 5968.76,505.561 5968.76,504.261C5968.76,502.761 5966.96,501.261 5965.76,501.261C5964.56,501.261 5962.86,503.561 5962.26,504.061C5959.76,505.961 5955.96,508.061 5951.97,509.661C5951.36,509.861 5951.16,510.161 5951.16,510.461C5951.16,511.361 5952.97,512.261 5954.36,512.261C5954.66,512.261 5954.96,512.261 5955.16,512.161C5957.96,511.361 5961.26,510.061 5963.56,508.661L5963.56,550.061Z" style="fill-rule:nonzero;"/>
        </g>
    </g>
</svg>
