<?xml version="1.0" encoding="UTF-8" standalone="no"?>
<!DOCTYPE svg PUBLIC "-//W3C//DTD SVG 1.1//EN" "http://www.w3.org/Graphics/SVG/1.1/DTD/svg11.dtd">
<svg width="100%" height="100%" viewBox="0 0 98 90" version="1.1" xmlns="http://www.w3.org/2000/svg" xmlns:xlink="http://www.w3.org/1999/xlink" xml:space="preserve" xmlns:serif="http://www.serif.com/" style="fill-rule:evenodd;clip-rule:evenodd;stroke-linejoin:round;stroke-miterlimit:2;">
    <g transform="matrix(1,0,0,1,-5337.43,-935.561)">
        <g transform="matrix(1,0,0,1,1,0)">
            <path d="M5415.12,1024.76C5417.42,1024.76 5434.12,1007.26 5434.12,980.161C5434.12,952.961 5417.42,935.561 5415.12,935.561C5414.42,935.561 5413.92,936.061 5413.92,936.761C5413.92,937.161 5414.02,937.661 5414.42,938.061C5424.22,949.761 5428.82,965.961 5428.82,980.161C5428.82,994.361 5424.22,1010.56 5414.42,1022.26C5414.02,1022.66 5413.92,1023.16 5413.92,1023.56C5413.92,1024.26 5414.42,1024.76 5415.12,1024.76ZM5356.63,1023.56C5356.63,1023.16 5356.53,1022.66 5356.13,1022.26C5346.33,1010.56 5341.73,994.361 5341.73,980.161C5341.73,965.961 5346.33,949.761 5356.13,938.061C5356.53,937.661 5356.63,937.161 5356.63,936.761C5356.63,936.061 5356.13,935.561 5355.43,935.561C5353.13,935.561 5336.43,952.961 5336.43,980.161C5336.43,1007.26 5353.13,1024.76 5355.43,1024.76C5356.13,1024.76 5356.63,1024.26 5356.63,1023.56ZM5406.82,976.861C5413.72,975.061 5418.92,970.061 5418.92,963.261C5418.92,955.461 5413.12,950.861 5404.42,950.861C5394.22,950.861 5387.42,957.561 5387.42,959.661C5387.42,961.461 5389.02,963.061 5389.82,963.061C5390.62,963.061 5391.22,962.061 5391.52,961.761C5395.52,957.161 5399.62,955.061 5404.52,955.061C5410.62,955.061 5414.22,958.361 5414.22,963.761C5414.22,971.261 5403.92,975.561 5396.22,976.061C5395.62,976.161 5395.32,976.661 5395.32,977.261C5395.32,978.561 5396.42,980.461 5397.82,980.461C5398.02,980.461 5398.12,980.361 5398.32,980.361C5398.42,980.361 5401.52,979.661 5404.42,979.661C5411.52,979.661 5416.62,984.261 5416.62,990.861C5416.62,998.261 5412.32,1005.36 5401.42,1005.36C5395.82,1005.36 5392.32,1002.56 5388.92,998.361C5388.62,998.061 5388.42,997.861 5388.12,997.861C5386.92,997.861 5385.82,999.961 5385.82,1001.56C5385.82,1002.26 5385.92,1002.76 5386.32,1003.16C5390.62,1007.36 5395.42,1009.66 5401.42,1009.66C5415.62,1009.66 5421.42,1000.96 5421.42,990.761C5421.42,982.161 5415.02,976.861 5407.82,976.861L5406.82,976.861ZM5378.22,995.361C5380.42,995.361 5383.42,995.561 5384.52,995.561C5385.12,995.561 5385.32,995.061 5385.32,994.461C5385.32,993.061 5384.12,990.761 5382.82,990.761C5381.82,990.761 5379.52,991.161 5378.12,991.261L5376.72,991.361L5376.72,974.661C5376.72,972.661 5376.92,968.761 5376.92,967.461C5376.92,966.061 5374.72,965.161 5373.22,965.161C5372.42,965.161 5371.82,965.461 5371.82,965.961C5371.82,967.861 5372.02,973.061 5372.02,974.661L5372.02,991.561L5353.03,991.961C5358.73,982.361 5366.03,969.361 5370.52,960.461C5371.22,959.161 5372.42,957.261 5373.32,955.961C5373.52,955.761 5373.52,955.461 5373.52,955.161C5373.52,953.461 5371.22,951.061 5369.92,951.061C5369.52,951.061 5369.22,951.161 5369.12,951.561C5365.93,959.661 5359.12,972.861 5350.33,987.661C5349.63,988.761 5348.53,989.961 5347.63,991.361C5347.23,991.861 5347.13,992.461 5347.13,992.961C5347.13,994.861 5349.03,996.661 5350.63,996.661C5350.83,996.661 5350.93,996.561 5351.13,996.561C5352.33,996.261 5353.53,996.061 5354.13,996.061L5372.02,995.561L5372.02,999.961C5372.02,1001.16 5371.82,1005.76 5371.82,1007.06C5371.82,1008.46 5374.12,1009.36 5375.72,1009.36C5376.52,1009.36 5377.12,1009.06 5377.12,1008.56C5377.12,1006.66 5376.82,1003.46 5376.72,1000.16L5376.72,995.361L5378.22,995.361Z" style="fill-rule:nonzero;"/>
        </g>
    </g>
</svg>
