<?xml version="1.0" encoding="UTF-8" standalone="no"?>
<!DOCTYPE svg PUBLIC "-//W3C//DTD SVG 1.1//EN" "http://www.w3.org/Graphics/SVG/1.1/DTD/svg11.dtd">
<svg width="100%" height="100%" viewBox="0 0 98 90" version="1.1" xmlns="http://www.w3.org/2000/svg" xmlns:xlink="http://www.w3.org/1999/xlink" xml:space="preserve" xmlns:serif="http://www.serif.com/" style="fill-rule:evenodd;clip-rule:evenodd;stroke-linejoin:round;stroke-miterlimit:2;">
    <g transform="matrix(1,0,0,1,-5537.41,-1685.56)">
        <g transform="matrix(1,0,0,1,1,0)">
            <path d="M5573,1759.26C5575,1759.16 5576.2,1758.66 5576.3,1757.56C5577,1748.96 5581.6,1724.96 5585.3,1709.16C5585.4,1708.66 5586,1707.26 5586.3,1706.16L5586.3,1705.86C5586.3,1704.66 5584.7,1703.16 5582.9,1703.16C5581.2,1703.16 5581.6,1705.66 5581,1707.86C5579.9,1705.56 5576.1,1700.86 5568.2,1700.86C5557.01,1700.86 5548.51,1711.66 5548.51,1722.56C5548.51,1731.76 5553.7,1737.06 5561.31,1737.06C5567.2,1737.06 5573.4,1733.36 5576.9,1727.66L5571.4,1755.96C5571.3,1756.66 5571,1757.36 5571,1757.96C5571,1758.76 5571.4,1759.26 5572.8,1759.26L5573,1759.26ZM5617.3,1706.36C5617.9,1706.36 5618.2,1705.86 5618.2,1705.26C5618.2,1703.96 5617,1701.86 5615.9,1701.86L5615.7,1701.86C5614.3,1702.16 5612,1702.36 5610.5,1702.36L5595.3,1703.26C5594.2,1702.76 5593,1702.36 5592.2,1702.36C5591.5,1702.36 5591.1,1702.56 5591.1,1703.26C5591.1,1704.26 5591.1,1705.66 5590.9,1706.76L5588.9,1726.46C5588.6,1727.46 5588.1,1729.86 5588.1,1730.16C5588.1,1732.16 5590.1,1733.66 5591.4,1733.66C5592,1733.66 5592.7,1732.96 5594.3,1731.36C5597,1728.76 5600.5,1726.96 5604.7,1726.96C5612,1726.96 5616.7,1731.96 5616.7,1740.26C5616.7,1748.06 5612.5,1755.26 5601.9,1755.26C5595.9,1755.26 5592.1,1751.46 5589.2,1747.16C5589,1746.76 5588.7,1746.56 5588.4,1746.56C5587.3,1746.56 5586,1748.76 5586,1750.56C5586,1753.26 5593.8,1759.66 5601.9,1759.66C5615.8,1759.66 5621.4,1750.46 5621.4,1740.16C5621.4,1729.16 5614.1,1722.76 5605.5,1722.76C5600.1,1722.76 5596.4,1724.46 5593.1,1727.26L5595.2,1707.66L5611.1,1706.66L5617.3,1706.36ZM5579.4,1715.36C5576.1,1725.36 5569.6,1732.66 5561.2,1732.66C5555.9,1732.66 5553.2,1729.16 5553.2,1722.26C5553.2,1714.86 5558.81,1705.06 5568.6,1705.06C5574.4,1705.06 5576.8,1708.96 5577.9,1711.16C5578.2,1711.86 5578.6,1712.16 5579.1,1712.16C5579.5,1712.16 5579.9,1711.86 5580.3,1711.46L5579.4,1715.36ZM5556.61,1773.56C5556.61,1773.16 5556.51,1772.66 5556.11,1772.26C5546.31,1760.56 5541.71,1744.36 5541.71,1730.16C5541.71,1715.96 5546.31,1699.76 5556.11,1688.06C5556.51,1687.66 5556.61,1687.16 5556.61,1686.76C5556.61,1686.06 5556.11,1685.56 5555.4,1685.56C5553.11,1685.56 5536.41,1702.96 5536.41,1730.16C5536.41,1757.26 5553.11,1774.76 5555.4,1774.76C5556.11,1774.76 5556.61,1774.26 5556.61,1773.56ZM5615.1,1774.76C5617.4,1774.76 5634.1,1757.26 5634.1,1730.16C5634.1,1702.96 5617.4,1685.56 5615.1,1685.56C5614.4,1685.56 5613.9,1686.06 5613.9,1686.76C5613.9,1687.16 5614,1687.66 5614.4,1688.06C5624.2,1699.76 5628.8,1715.96 5628.8,1730.16C5628.8,1744.36 5624.2,1760.56 5614.4,1772.26C5614,1772.66 5613.9,1773.16 5613.9,1773.56C5613.9,1774.26 5614.4,1774.76 5615.1,1774.76Z" style="fill-rule:nonzero;"/>
        </g>
    </g>
</svg>
