<?xml version="1.0" encoding="UTF-8" standalone="no"?>
<!DOCTYPE svg PUBLIC "-//W3C//DTD SVG 1.1//EN" "http://www.w3.org/Graphics/SVG/1.1/DTD/svg11.dtd">
<svg width="100%" height="100%" viewBox="0 0 98 90" version="1.1" xmlns="http://www.w3.org/2000/svg" xmlns:xlink="http://www.w3.org/1999/xlink" xml:space="preserve" xmlns:serif="http://www.serif.com/" style="fill-rule:evenodd;clip-rule:evenodd;stroke-linejoin:round;stroke-miterlimit:2;">
    <g transform="matrix(1,0,0,1,-5337.43,-635.561)">
        <g transform="matrix(1,0,0,1,1,0)">
            <path d="M5354.03,708.661C5358.23,707.661 5364.32,707.661 5366.03,707.661C5375.92,707.661 5382.72,708.261 5382.72,708.261C5383.32,708.261 5383.62,707.861 5383.62,707.161C5383.62,705.761 5382.42,703.561 5381.22,703.561C5380.22,703.561 5377.62,703.661 5376.32,703.661C5373.12,703.661 5370.62,703.561 5366.82,703.561C5363.82,703.561 5359.43,703.761 5356.53,704.061C5359.23,698.661 5363.93,690.561 5370.72,684.161C5377.92,677.361 5383.02,671.661 5383.02,664.261C5383.02,656.461 5377.62,650.861 5369.12,650.861C5361.23,650.861 5355.83,654.961 5352.73,660.861C5352.43,661.261 5352.33,661.761 5352.33,662.261C5352.33,663.161 5352.83,664.061 5354.03,665.061C5354.43,665.461 5354.73,665.561 5355.13,665.561C5355.93,665.561 5356.53,664.761 5356.93,663.661C5358.62,658.861 5362.82,655.061 5368.92,655.061C5374.82,655.061 5378.22,659.261 5378.22,664.261C5378.22,669.561 5374.22,674.561 5367.82,680.761C5361.32,687.061 5355.93,695.761 5352.93,701.561C5352.53,702.361 5352.03,703.061 5351.33,703.961C5351.13,704.261 5351.03,704.661 5351.03,705.161C5351.03,706.761 5352.33,708.661 5353.73,708.661L5354.03,708.661ZM5415.12,724.761C5417.42,724.761 5434.12,707.261 5434.12,680.161C5434.12,652.961 5417.42,635.561 5415.12,635.561C5414.42,635.561 5413.92,636.061 5413.92,636.761C5413.92,637.161 5414.02,637.661 5414.42,638.061C5424.22,649.761 5428.82,665.961 5428.82,680.161C5428.82,694.361 5424.22,710.561 5414.42,722.261C5414.02,722.661 5413.92,723.161 5413.92,723.561C5413.92,724.261 5414.42,724.761 5415.12,724.761ZM5356.63,723.561C5356.63,723.161 5356.53,722.661 5356.13,722.261C5346.33,710.561 5341.73,694.361 5341.73,680.161C5341.73,665.961 5346.33,649.761 5356.13,638.061C5356.53,637.661 5356.63,637.161 5356.63,636.761C5356.63,636.061 5356.13,635.561 5355.43,635.561C5353.13,635.561 5336.43,652.961 5336.43,680.161C5336.43,707.261 5353.13,724.761 5355.43,724.761C5356.13,724.761 5356.63,724.261 5356.63,723.561ZM5406.82,676.861C5413.72,675.061 5418.92,670.061 5418.92,663.261C5418.92,655.461 5413.12,650.861 5404.42,650.861C5394.22,650.861 5387.42,657.561 5387.42,659.661C5387.42,661.461 5389.02,663.061 5389.82,663.061C5390.62,663.061 5391.22,662.061 5391.52,661.761C5395.52,657.161 5399.62,655.061 5404.52,655.061C5410.62,655.061 5414.22,658.361 5414.22,663.761C5414.22,671.261 5403.92,675.561 5396.22,676.061C5395.62,676.161 5395.32,676.661 5395.32,677.261C5395.32,678.561 5396.42,680.461 5397.82,680.461C5398.02,680.461 5398.12,680.361 5398.32,680.361C5398.42,680.361 5401.52,679.661 5404.42,679.661C5411.52,679.661 5416.62,684.261 5416.62,690.861C5416.62,698.261 5412.32,705.361 5401.42,705.361C5395.82,705.361 5392.32,702.561 5388.92,698.361C5388.62,698.061 5388.42,697.861 5388.12,697.861C5386.92,697.861 5385.82,699.961 5385.82,701.561C5385.82,702.261 5385.92,702.761 5386.32,703.161C5390.62,707.361 5395.42,709.661 5401.42,709.661C5415.62,709.661 5421.42,700.961 5421.42,690.761C5421.42,682.161 5415.02,676.861 5407.82,676.861L5406.82,676.861Z" style="fill-rule:nonzero;"/>
        </g>
    </g>
</svg>
