<?xml version="1.0" encoding="UTF-8" standalone="no"?>
<!DOCTYPE svg PUBLIC "-//W3C//DTD SVG 1.1//EN" "http://www.w3.org/Graphics/SVG/1.1/DTD/svg11.dtd">
<svg width="100%" height="100%" viewBox="0 0 98 90" version="1.1" xmlns="http://www.w3.org/2000/svg" xmlns:xlink="http://www.w3.org/1999/xlink" xml:space="preserve" xmlns:serif="http://www.serif.com/" style="fill-rule:evenodd;clip-rule:evenodd;stroke-linejoin:round;stroke-miterlimit:2;">
    <g transform="matrix(1,0,0,1,-6037.36,-485.561)">
        <g transform="matrix(1,0,0,1,1,0)">
            <path d="M6054.65,558.661C6058.85,557.661 6064.95,557.661 6066.65,557.661C6073.85,557.661 6080.65,557.961 6083.85,558.261C6084.45,558.261 6084.75,557.861 6084.75,557.161C6084.75,555.761 6083.55,553.561 6082.35,553.561C6081.35,553.561 6078.75,553.661 6077.45,553.661C6074.25,553.661 6071.25,553.561 6067.45,553.561C6064.45,553.561 6060.05,553.761 6057.15,554.061C6059.85,548.661 6065.05,540.561 6071.85,534.161C6079.05,527.361 6084.15,521.661 6084.15,514.261C6084.15,506.461 6078.75,500.861 6070.25,500.861C6062.35,500.861 6056.95,504.961 6053.85,510.861C6053.55,511.261 6053.45,511.761 6053.45,512.261C6053.45,513.161 6053.95,514.061 6055.15,515.061C6055.55,515.461 6055.85,515.561 6056.25,515.561C6057.05,515.561 6057.65,514.761 6058.05,513.661C6059.75,508.861 6063.95,505.061 6070.05,505.061C6075.95,505.061 6079.35,509.261 6079.35,514.261C6079.35,519.561 6075.35,524.561 6068.95,530.761C6062.45,537.061 6056.55,545.761 6053.55,551.561C6053.15,552.361 6052.65,553.061 6051.95,553.961C6051.76,554.261 6051.65,554.661 6051.65,555.161C6051.65,556.761 6052.95,558.661 6054.35,558.661L6054.65,558.661ZM6115.05,574.761C6117.35,574.761 6134.05,557.261 6134.05,530.161C6134.05,502.961 6117.35,485.561 6115.05,485.561C6114.35,485.561 6113.85,486.061 6113.85,486.761C6113.85,487.161 6113.95,487.661 6114.35,488.061C6124.15,499.761 6128.75,515.961 6128.75,530.161C6128.75,544.361 6124.15,560.561 6114.35,572.261C6113.95,572.661 6113.85,573.161 6113.85,573.561C6113.85,574.261 6114.35,574.761 6115.05,574.761ZM6056.55,573.561C6056.55,573.161 6056.45,572.661 6056.05,572.261C6046.26,560.561 6041.66,544.361 6041.66,530.161C6041.66,515.961 6046.26,499.761 6056.05,488.061C6056.45,487.661 6056.55,487.161 6056.55,486.761C6056.55,486.061 6056.05,485.561 6055.35,485.561C6053.05,485.561 6036.36,502.961 6036.36,530.161C6036.36,557.261 6053.05,574.761 6055.35,574.761C6056.05,574.761 6056.55,574.261 6056.55,573.561ZM6095.85,505.761C6095.55,505.161 6094.75,505.161 6094.65,505.161C6092.55,505.161 6087.25,516.361 6087.25,531.061C6087.25,547.561 6092.55,559.661 6103.55,559.661C6115.15,559.661 6120.75,545.561 6120.75,528.961C6120.75,512.661 6115.35,500.761 6105.45,500.761C6101.55,500.761 6098.25,502.761 6095.85,505.761ZM6103.25,555.361C6094.75,555.361 6091.85,544.161 6091.85,530.961C6091.85,513.561 6099.35,504.861 6105.15,504.861C6113.25,504.861 6116.15,517.161 6116.15,528.361C6116.15,542.061 6112.55,555.361 6103.25,555.361Z" style="fill-rule:nonzero;"/>
        </g>
    </g>
</svg>
