<?xml version="1.0" encoding="UTF-8" standalone="no"?>
<!DOCTYPE svg PUBLIC "-//W3C//DTD SVG 1.1//EN" "http://www.w3.org/Graphics/SVG/1.1/DTD/svg11.dtd">
<svg width="100%" height="100%" viewBox="0 0 98 90" version="1.1" xmlns="http://www.w3.org/2000/svg" xmlns:xlink="http://www.w3.org/1999/xlink" xml:space="preserve" xmlns:serif="http://www.serif.com/" style="fill-rule:evenodd;clip-rule:evenodd;stroke-linejoin:round;stroke-miterlimit:2;">
    <g transform="matrix(1,0,0,1,-5137.45,-185.561)">
        <g transform="matrix(1,0,0,1,1,0)">
            <path d="M5215.14,274.761C5217.44,274.761 5234.14,257.261 5234.14,230.161C5234.14,202.961 5217.44,185.561 5215.14,185.561C5214.44,185.561 5213.94,186.061 5213.94,186.761C5213.94,187.161 5214.04,187.661 5214.44,188.061C5224.24,199.761 5228.84,215.961 5228.84,230.161C5228.84,244.361 5224.24,260.561 5214.44,272.261C5214.04,272.661 5213.94,273.161 5213.94,273.561C5213.94,274.261 5214.44,274.761 5215.14,274.761ZM5156.65,273.561C5156.65,273.161 5156.55,272.661 5156.15,272.261C5146.35,260.561 5141.75,244.361 5141.75,230.161C5141.75,215.961 5146.35,199.761 5156.15,188.061C5156.55,187.661 5156.65,187.161 5156.65,186.761C5156.65,186.061 5156.15,185.561 5155.45,185.561C5153.15,185.561 5136.45,202.961 5136.45,230.161C5136.45,257.261 5153.15,274.761 5155.45,274.761C5156.15,274.761 5156.65,274.261 5156.65,273.561ZM5195.94,206.361C5195.64,205.761 5194.84,205.761 5194.74,205.761C5192.64,205.761 5187.34,216.961 5187.34,231.661C5187.34,248.161 5192.64,260.261 5203.64,260.261C5215.24,260.261 5220.84,246.161 5220.84,229.561C5220.84,213.261 5215.44,201.361 5205.54,201.361C5201.64,201.361 5198.34,203.361 5195.94,206.361ZM5157.65,206.361C5157.45,206.061 5157.05,205.761 5156.55,205.761C5154.25,205.761 5149.25,217.461 5149.25,231.661C5149.25,248.161 5154.45,260.261 5165.24,260.261C5176.54,260.261 5182.04,246.161 5182.04,229.561C5182.04,213.261 5176.74,201.361 5167.05,201.361C5163.24,201.361 5160.05,203.361 5157.65,206.361ZM5203.34,255.961C5194.84,255.961 5191.94,244.761 5191.94,231.561C5191.94,214.161 5199.44,205.461 5205.24,205.461C5213.34,205.461 5216.24,217.761 5216.24,228.961C5216.24,242.661 5212.64,255.961 5203.34,255.961ZM5164.94,255.961C5156.55,255.961 5153.75,244.761 5153.75,231.561C5153.75,214.161 5161.15,205.461 5166.74,205.461C5174.74,205.461 5177.54,217.761 5177.54,228.961C5177.54,242.661 5174.04,255.961 5164.94,255.961Z" style="fill-rule:nonzero;"/>
        </g>
    </g>
</svg>
