<?xml version="1.0" encoding="UTF-8" standalone="no"?>
<!DOCTYPE svg PUBLIC "-//W3C//DTD SVG 1.1//EN" "http://www.w3.org/Graphics/SVG/1.1/DTD/svg11.dtd">
<svg width="100%" height="100%" viewBox="0 0 98 90" version="1.1" xmlns="http://www.w3.org/2000/svg" xmlns:xlink="http://www.w3.org/1999/xlink" xml:space="preserve" xmlns:serif="http://www.serif.com/" style="fill-rule:evenodd;clip-rule:evenodd;stroke-linejoin:round;stroke-miterlimit:2;">
    <g transform="matrix(1,0,0,1,-5237.44,-935.561)">
        <g transform="matrix(1,0,0,1,1,0)">
            <path d="M5290.03,1008.66C5294.23,1007.66 5300.33,1007.66 5302.03,1007.66C5311.93,1007.66 5318.73,1008.26 5318.73,1008.26C5319.33,1008.26 5319.63,1007.86 5319.63,1007.16C5319.63,1005.76 5318.43,1003.56 5317.23,1003.56C5316.23,1003.56 5313.63,1003.66 5312.33,1003.66C5309.13,1003.66 5306.63,1003.56 5302.83,1003.56C5299.83,1003.56 5295.43,1003.76 5292.53,1004.06C5295.23,998.661 5299.93,990.561 5306.73,984.161C5313.93,977.361 5319.03,971.661 5319.03,964.261C5319.03,956.461 5313.63,950.861 5305.13,950.861C5297.23,950.861 5291.83,954.961 5288.73,960.861C5288.43,961.261 5288.33,961.761 5288.33,962.261C5288.33,963.161 5288.83,964.061 5290.03,965.061C5290.43,965.461 5290.73,965.561 5291.13,965.561C5291.93,965.561 5292.53,964.761 5292.93,963.661C5294.63,958.861 5298.83,955.061 5304.93,955.061C5310.83,955.061 5314.23,959.261 5314.23,964.261C5314.23,969.561 5310.23,974.561 5303.83,980.761C5297.33,987.061 5291.93,995.761 5288.93,1001.56C5288.53,1002.36 5288.03,1003.06 5287.33,1003.96C5287.13,1004.26 5287.03,1004.66 5287.03,1005.16C5287.03,1006.76 5288.33,1008.66 5289.73,1008.66L5290.03,1008.66ZM5315.13,1024.76C5317.43,1024.76 5334.13,1007.26 5334.13,980.161C5334.13,952.961 5317.43,935.561 5315.13,935.561C5314.43,935.561 5313.93,936.061 5313.93,936.761C5313.93,937.161 5314.03,937.661 5314.43,938.061C5324.23,949.761 5328.83,965.961 5328.83,980.161C5328.83,994.361 5324.23,1010.56 5314.43,1022.26C5314.03,1022.66 5313.93,1023.16 5313.93,1023.56C5313.93,1024.26 5314.43,1024.76 5315.13,1024.76ZM5256.64,1023.56C5256.64,1023.16 5256.54,1022.66 5256.14,1022.26C5246.34,1010.56 5241.74,994.361 5241.74,980.161C5241.74,965.961 5246.34,949.761 5256.14,938.061C5256.54,937.661 5256.64,937.161 5256.64,936.761C5256.64,936.061 5256.14,935.561 5255.44,935.561C5253.14,935.561 5236.44,952.961 5236.44,980.161C5236.44,1007.26 5253.14,1024.76 5255.44,1024.76C5256.14,1024.76 5256.64,1024.26 5256.64,1023.56ZM5278.23,995.361C5280.43,995.361 5283.43,995.561 5284.53,995.561C5285.13,995.561 5285.33,995.061 5285.33,994.461C5285.33,993.061 5284.13,990.761 5282.83,990.761C5281.83,990.761 5279.53,991.161 5278.13,991.261L5276.73,991.361L5276.73,974.661C5276.73,972.661 5276.93,968.761 5276.93,967.461C5276.93,966.061 5274.73,965.161 5273.23,965.161C5272.43,965.161 5271.83,965.461 5271.83,965.961C5271.83,967.861 5272.03,973.061 5272.03,974.661L5272.03,991.561L5253.04,991.961C5258.74,982.361 5266.03,969.361 5270.53,960.461C5271.23,959.161 5272.43,957.261 5273.33,955.961C5273.53,955.761 5273.53,955.461 5273.53,955.161C5273.53,953.461 5271.23,951.061 5269.93,951.061C5269.53,951.061 5269.23,951.161 5269.13,951.561C5265.94,959.661 5259.14,972.861 5250.34,987.661C5249.64,988.761 5248.54,989.961 5247.64,991.361C5247.24,991.861 5247.14,992.461 5247.14,992.961C5247.14,994.861 5249.04,996.661 5250.64,996.661C5250.84,996.661 5250.94,996.561 5251.14,996.561C5252.34,996.261 5253.54,996.061 5254.14,996.061L5272.03,995.561L5272.03,999.961C5272.03,1001.16 5271.83,1005.76 5271.83,1007.06C5271.83,1008.46 5274.13,1009.36 5275.73,1009.36C5276.53,1009.36 5277.13,1009.06 5277.13,1008.56C5277.13,1006.66 5276.83,1003.46 5276.73,1000.16L5276.73,995.361L5278.23,995.361Z" style="fill-rule:nonzero;"/>
        </g>
    </g>
</svg>
