<?xml version="1.0" encoding="UTF-8" standalone="no"?>
<!DOCTYPE svg PUBLIC "-//W3C//DTD SVG 1.1//EN" "http://www.w3.org/Graphics/SVG/1.1/DTD/svg11.dtd">
<svg width="100%" height="100%" viewBox="0 0 98 90" version="1.1" xmlns="http://www.w3.org/2000/svg" xmlns:xlink="http://www.w3.org/1999/xlink" xml:space="preserve" xmlns:serif="http://www.serif.com/" style="fill-rule:evenodd;clip-rule:evenodd;stroke-linejoin:round;stroke-miterlimit:2;">
    <g transform="matrix(1,0,0,1,-5237.44,-635.561)">
        <g transform="matrix(1,0,0,1,1,0)">
            <path d="M5288.93,708.661C5293.13,707.661 5299.23,707.661 5300.93,707.661C5310.83,707.661 5317.63,708.261 5317.63,708.261C5318.23,708.261 5318.53,707.861 5318.53,707.161C5318.53,705.761 5317.33,703.561 5316.13,703.561C5315.13,703.561 5312.53,703.661 5311.23,703.661C5308.03,703.661 5305.53,703.561 5301.73,703.561C5298.73,703.561 5294.33,703.761 5291.43,704.061C5294.13,698.661 5298.83,690.561 5305.63,684.161C5312.83,677.361 5317.93,671.661 5317.93,664.261C5317.93,656.461 5312.53,650.861 5304.03,650.861C5296.13,650.861 5290.73,654.961 5287.63,660.861C5287.33,661.261 5287.23,661.761 5287.23,662.261C5287.23,663.161 5287.73,664.061 5288.93,665.061C5289.33,665.461 5289.63,665.561 5290.03,665.561C5290.83,665.561 5291.43,664.761 5291.83,663.661C5293.53,658.861 5297.73,655.061 5303.83,655.061C5309.73,655.061 5313.13,659.261 5313.13,664.261C5313.13,669.561 5309.13,674.561 5302.73,680.761C5296.23,687.061 5290.83,695.761 5287.83,701.561C5287.43,702.361 5286.93,703.061 5286.23,703.961C5286.03,704.261 5285.93,704.661 5285.93,705.161C5285.93,706.761 5287.23,708.661 5288.63,708.661L5288.93,708.661ZM5254.44,708.661C5258.64,707.661 5264.73,707.661 5266.44,707.661C5276.33,707.661 5283.13,708.261 5283.13,708.261C5283.73,708.261 5284.03,707.861 5284.03,707.161C5284.03,705.761 5282.83,703.561 5281.63,703.561C5280.63,703.561 5278.03,703.661 5276.73,703.661C5273.53,703.661 5271.03,703.561 5267.23,703.561C5264.23,703.561 5259.84,703.761 5256.94,704.061C5259.64,698.661 5264.34,690.561 5271.13,684.161C5278.33,677.361 5283.43,671.661 5283.43,664.261C5283.43,656.461 5278.03,650.861 5269.53,650.861C5261.64,650.861 5256.24,654.961 5253.14,660.861C5252.84,661.261 5252.74,661.761 5252.74,662.261C5252.74,663.161 5253.24,664.061 5254.44,665.061C5254.84,665.461 5255.14,665.561 5255.54,665.561C5256.34,665.561 5256.94,664.761 5257.34,663.661C5259.03,658.861 5263.23,655.061 5269.33,655.061C5275.23,655.061 5278.63,659.261 5278.63,664.261C5278.63,669.561 5274.63,674.561 5268.23,680.761C5261.73,687.061 5256.34,695.761 5253.34,701.561C5252.94,702.361 5252.44,703.061 5251.74,703.961C5251.54,704.261 5251.44,704.661 5251.44,705.161C5251.44,706.761 5252.74,708.661 5254.14,708.661L5254.44,708.661ZM5315.13,724.761C5317.43,724.761 5334.13,707.261 5334.13,680.161C5334.13,652.961 5317.43,635.561 5315.13,635.561C5314.43,635.561 5313.93,636.061 5313.93,636.761C5313.93,637.161 5314.03,637.661 5314.43,638.061C5324.23,649.761 5328.83,665.961 5328.83,680.161C5328.83,694.361 5324.23,710.561 5314.43,722.261C5314.03,722.661 5313.93,723.161 5313.93,723.561C5313.93,724.261 5314.43,724.761 5315.13,724.761ZM5256.64,723.561C5256.64,723.161 5256.54,722.661 5256.14,722.261C5246.34,710.561 5241.74,694.361 5241.74,680.161C5241.74,665.961 5246.34,649.761 5256.14,638.061C5256.54,637.661 5256.64,637.161 5256.64,636.761C5256.64,636.061 5256.14,635.561 5255.44,635.561C5253.14,635.561 5236.44,652.961 5236.44,680.161C5236.44,707.261 5253.14,724.761 5255.44,724.761C5256.14,724.761 5256.64,724.261 5256.64,723.561Z" style="fill-rule:nonzero;"/>
        </g>
    </g>
</svg>
