<?xml version="1.0" encoding="UTF-8" standalone="no"?>
<!DOCTYPE svg PUBLIC "-//W3C//DTD SVG 1.1//EN" "http://www.w3.org/Graphics/SVG/1.1/DTD/svg11.dtd">
<svg width="100%" height="100%" viewBox="0 0 98 90" version="1.1" xmlns="http://www.w3.org/2000/svg" xmlns:xlink="http://www.w3.org/1999/xlink" xml:space="preserve" xmlns:serif="http://www.serif.com/" style="fill-rule:evenodd;clip-rule:evenodd;stroke-linejoin:round;stroke-miterlimit:2;">
    <g transform="matrix(1,0,0,1,-5937.37,-1685.56)">
        <g transform="matrix(1,0,0,1,1,0)">
            <path d="M6009.36,1759.26C6011.36,1759.16 6012.56,1758.66 6012.66,1757.56C6013.36,1748.96 6017.96,1724.96 6021.66,1709.16C6021.76,1708.66 6022.36,1707.26 6022.66,1706.16L6022.66,1705.86C6022.66,1704.66 6021.06,1703.16 6019.26,1703.16C6017.56,1703.16 6017.96,1705.66 6017.36,1707.86C6016.26,1705.56 6012.46,1700.86 6004.56,1700.86C5993.36,1700.86 5984.86,1711.66 5984.86,1722.56C5984.86,1731.76 5990.06,1737.06 5997.66,1737.06C6003.56,1737.06 6009.76,1733.36 6013.26,1727.66L6007.76,1755.96C6007.66,1756.66 6007.36,1757.36 6007.36,1757.96C6007.36,1758.76 6007.76,1759.26 6009.16,1759.26L6009.36,1759.26ZM5972.26,1759.26C5974.26,1759.16 5975.46,1758.66 5975.56,1757.56C5976.26,1748.96 5980.86,1724.96 5984.56,1709.16C5984.66,1708.66 5985.26,1707.26 5985.56,1706.16L5985.56,1705.86C5985.56,1704.66 5983.96,1703.16 5982.16,1703.16C5980.46,1703.16 5980.86,1705.66 5980.26,1707.86C5979.16,1705.56 5975.36,1700.86 5967.46,1700.86C5956.26,1700.86 5947.77,1711.66 5947.77,1722.56C5947.77,1731.76 5952.97,1737.06 5960.56,1737.06C5966.46,1737.06 5972.66,1733.36 5976.16,1727.66L5970.66,1755.96C5970.56,1756.66 5970.26,1757.36 5970.26,1757.96C5970.26,1758.76 5970.66,1759.26 5972.06,1759.26L5972.26,1759.26ZM6015.76,1715.36C6012.46,1725.36 6005.96,1732.66 5997.56,1732.66C5992.26,1732.66 5989.56,1729.16 5989.56,1722.26C5989.56,1714.86 5995.16,1705.06 6004.96,1705.06C6010.76,1705.06 6013.16,1708.96 6014.26,1711.16C6014.56,1711.86 6014.96,1712.16 6015.46,1712.16C6015.86,1712.16 6016.26,1711.86 6016.66,1711.46L6015.76,1715.36ZM5978.66,1715.36C5975.36,1725.36 5968.86,1732.66 5960.46,1732.66C5955.16,1732.66 5952.47,1729.16 5952.47,1722.26C5952.47,1714.86 5958.06,1705.06 5967.86,1705.06C5973.66,1705.06 5976.06,1708.96 5977.16,1711.16C5977.46,1711.86 5977.86,1712.16 5978.36,1712.16C5978.76,1712.16 5979.16,1711.86 5979.56,1711.46L5978.66,1715.36ZM5956.56,1773.56C5956.56,1773.16 5956.46,1772.66 5956.06,1772.26C5946.27,1760.56 5941.67,1744.36 5941.67,1730.16C5941.67,1715.96 5946.27,1699.76 5956.06,1688.06C5956.46,1687.66 5956.56,1687.16 5956.56,1686.76C5956.56,1686.06 5956.06,1685.56 5955.36,1685.56C5953.07,1685.56 5936.37,1702.96 5936.37,1730.16C5936.37,1757.26 5953.07,1774.76 5955.36,1774.76C5956.06,1774.76 5956.56,1774.26 5956.56,1773.56ZM6015.06,1774.76C6017.36,1774.76 6034.06,1757.26 6034.06,1730.16C6034.06,1702.96 6017.36,1685.56 6015.06,1685.56C6014.36,1685.56 6013.86,1686.06 6013.86,1686.76C6013.86,1687.16 6013.96,1687.66 6014.36,1688.06C6024.16,1699.76 6028.76,1715.96 6028.76,1730.16C6028.76,1744.36 6024.16,1760.56 6014.36,1772.26C6013.96,1772.66 6013.86,1773.16 6013.86,1773.56C6013.86,1774.26 6014.36,1774.76 6015.06,1774.76Z" style="fill-rule:nonzero;"/>
        </g>
    </g>
</svg>
