<?xml version="1.0" encoding="UTF-8" standalone="no"?>
<!DOCTYPE svg PUBLIC "-//W3C//DTD SVG 1.1//EN" "http://www.w3.org/Graphics/SVG/1.1/DTD/svg11.dtd">
<svg width="100%" height="100%" viewBox="0 0 98 90" version="1.1" xmlns="http://www.w3.org/2000/svg" xmlns:xlink="http://www.w3.org/1999/xlink" xml:space="preserve" xmlns:serif="http://www.serif.com/" style="fill-rule:evenodd;clip-rule:evenodd;stroke-linejoin:round;stroke-miterlimit:2;">
    <g transform="matrix(1,0,0,1,-5137.45,-485.561)">
        <g transform="matrix(1,0,0,1,1,0)">
            <path d="M5215.14,574.761C5217.44,574.761 5234.14,557.261 5234.14,530.161C5234.14,502.961 5217.44,485.561 5215.14,485.561C5214.44,485.561 5213.94,486.061 5213.94,486.761C5213.94,487.161 5214.04,487.661 5214.44,488.061C5224.24,499.761 5228.84,515.961 5228.84,530.161C5228.84,544.361 5224.24,560.561 5214.44,572.261C5214.04,572.661 5213.94,573.161 5213.94,573.561C5213.94,574.261 5214.44,574.761 5215.14,574.761ZM5156.65,573.561C5156.65,573.161 5156.55,572.661 5156.15,572.261C5146.35,560.561 5141.75,544.361 5141.75,530.161C5141.75,515.961 5146.35,499.761 5156.15,488.061C5156.55,487.661 5156.65,487.161 5156.65,486.761C5156.65,486.061 5156.15,485.561 5155.45,485.561C5153.15,485.561 5136.45,502.961 5136.45,530.161C5136.45,557.261 5153.15,574.761 5155.45,574.761C5156.15,574.761 5156.65,574.261 5156.65,573.561ZM5199.94,550.061C5199.94,551.761 5199.74,555.861 5199.74,557.161C5199.74,558.461 5201.94,559.361 5203.54,559.361C5204.24,559.361 5204.84,559.161 5204.84,558.561C5204.74,556.461 5204.64,551.761 5204.64,549.561L5204.64,509.261C5204.64,506.961 5205.14,505.561 5205.14,504.261C5205.14,502.761 5203.34,501.261 5202.14,501.261C5200.94,501.261 5199.24,503.561 5198.64,504.061C5196.14,505.961 5192.34,508.061 5188.34,509.661C5187.74,509.861 5187.54,510.161 5187.54,510.461C5187.54,511.361 5189.34,512.261 5190.74,512.261C5191.04,512.261 5191.34,512.261 5191.54,512.161C5194.34,511.361 5197.64,510.061 5199.94,508.661L5199.94,550.061ZM5168.35,550.061C5168.35,551.761 5168.15,555.861 5168.15,557.161C5168.15,558.461 5170.35,559.361 5171.94,559.361C5172.64,559.361 5173.24,559.161 5173.24,558.561C5173.14,556.461 5173.04,551.761 5173.04,549.561L5173.04,509.261C5173.04,506.961 5173.54,505.561 5173.54,504.261C5173.54,502.761 5171.74,501.261 5170.55,501.261C5169.35,501.261 5167.65,503.561 5167.05,504.061C5164.55,505.961 5160.75,508.061 5156.75,509.661C5156.15,509.861 5155.95,510.161 5155.95,510.461C5155.95,511.361 5157.75,512.261 5159.15,512.261C5159.45,512.261 5159.75,512.261 5159.95,512.161C5162.74,511.361 5166.05,510.061 5168.35,508.661L5168.35,550.061Z" style="fill-rule:nonzero;"/>
        </g>
    </g>
</svg>
