<?xml version="1.0" encoding="UTF-8" standalone="no"?>
<!DOCTYPE svg PUBLIC "-//W3C//DTD SVG 1.1//EN" "http://www.w3.org/Graphics/SVG/1.1/DTD/svg11.dtd">
<svg width="100%" height="100%" viewBox="0 0 98 90" version="1.1" xmlns="http://www.w3.org/2000/svg" xmlns:xlink="http://www.w3.org/1999/xlink" xml:space="preserve" xmlns:serif="http://www.serif.com/" style="fill-rule:evenodd;clip-rule:evenodd;stroke-linejoin:round;stroke-miterlimit:2;">
    <g transform="matrix(1,0,0,1,-5737.39,-1385.56)">
        <g transform="matrix(1,0,0,1,1,0)">
            <path d="M5815.08,1474.76C5817.38,1474.76 5834.08,1457.26 5834.08,1430.16C5834.08,1402.96 5817.38,1385.56 5815.08,1385.56C5814.38,1385.56 5813.88,1386.06 5813.88,1386.76C5813.88,1387.16 5813.98,1387.66 5814.38,1388.06C5824.18,1399.76 5828.78,1415.96 5828.78,1430.16C5828.78,1444.36 5824.18,1460.56 5814.38,1472.26C5813.98,1472.66 5813.88,1473.16 5813.88,1473.56C5813.88,1474.26 5814.38,1474.76 5815.08,1474.76ZM5756.59,1473.56C5756.59,1473.16 5756.48,1472.66 5756.09,1472.26C5746.29,1460.56 5741.69,1444.36 5741.69,1430.16C5741.69,1415.96 5746.29,1399.76 5756.09,1388.06C5756.48,1387.66 5756.59,1387.16 5756.59,1386.76C5756.59,1386.06 5756.09,1385.56 5755.39,1385.56C5753.09,1385.56 5736.39,1402.96 5736.39,1430.16C5736.39,1457.26 5753.09,1474.76 5755.39,1474.76C5756.09,1474.76 5756.59,1474.26 5756.59,1473.56ZM5818.98,1405.06C5818.98,1403.66 5816.98,1401.86 5815.78,1401.66L5815.58,1401.66C5814.58,1401.66 5813.48,1402.16 5812.28,1402.26L5790.78,1403.76L5789.68,1403.76C5788.38,1403.76 5787.58,1403.66 5786.68,1403.66C5786.38,1403.66 5786.28,1403.86 5786.28,1404.16C5786.28,1404.76 5787.28,1408.26 5790.18,1408.26C5790.88,1408.26 5791.68,1408.06 5792.48,1408.06L5813.18,1406.26C5804.68,1425.46 5803.08,1430.06 5794.18,1455.56C5794.08,1456.06 5793.68,1456.76 5793.68,1457.46C5793.68,1458.16 5794.08,1458.86 5795.68,1459.06C5796.08,1459.06 5796.48,1459.16 5796.78,1459.16C5798.08,1459.16 5798.78,1458.86 5798.98,1457.96C5799.58,1455.06 5800.18,1452.76 5800.78,1451.06C5805.08,1437.66 5811.08,1422.26 5817.08,1409.16C5817.58,1408.16 5818.78,1406.66 5818.98,1405.36L5818.98,1405.06ZM5783.78,1405.06C5783.78,1403.66 5781.78,1401.86 5780.58,1401.66L5780.38,1401.66C5779.38,1401.66 5778.28,1402.16 5777.08,1402.26L5755.59,1403.76L5754.48,1403.76C5753.19,1403.76 5752.39,1403.66 5751.48,1403.66C5751.19,1403.66 5751.09,1403.86 5751.09,1404.16C5751.09,1404.76 5752.09,1408.26 5754.98,1408.26C5755.69,1408.26 5756.48,1408.06 5757.28,1408.06L5777.98,1406.26C5769.48,1425.46 5767.88,1430.06 5758.98,1455.56C5758.88,1456.06 5758.48,1456.76 5758.48,1457.46C5758.48,1458.16 5758.88,1458.86 5760.48,1459.06C5760.88,1459.06 5761.28,1459.16 5761.58,1459.16C5762.88,1459.16 5763.58,1458.86 5763.78,1457.96C5764.38,1455.06 5764.98,1452.76 5765.58,1451.06C5769.88,1437.66 5775.88,1422.26 5781.88,1409.16C5782.38,1408.16 5783.58,1406.66 5783.78,1405.36L5783.78,1405.06Z" style="fill-rule:nonzero;"/>
        </g>
    </g>
</svg>
