<?xml version="1.0" encoding="UTF-8" standalone="no"?>
<!DOCTYPE svg PUBLIC "-//W3C//DTD SVG 1.1//EN" "http://www.w3.org/Graphics/SVG/1.1/DTD/svg11.dtd">
<svg width="100%" height="100%" viewBox="0 0 98 90" version="1.1" xmlns="http://www.w3.org/2000/svg" xmlns:xlink="http://www.w3.org/1999/xlink" xml:space="preserve" xmlns:serif="http://www.serif.com/" style="fill-rule:evenodd;clip-rule:evenodd;stroke-linejoin:round;stroke-miterlimit:2;">
    <g transform="matrix(1,0,0,1,-5137.45,-1385.56)">
        <g transform="matrix(1,0,0,1,1,0)">
            <path d="M5215.14,1474.76C5217.44,1474.76 5234.14,1457.26 5234.14,1430.16C5234.14,1402.96 5217.44,1385.56 5215.14,1385.56C5214.44,1385.56 5213.94,1386.06 5213.94,1386.76C5213.94,1387.16 5214.04,1387.66 5214.44,1388.06C5224.24,1399.76 5228.84,1415.96 5228.84,1430.16C5228.84,1444.36 5224.24,1460.56 5214.44,1472.26C5214.04,1472.66 5213.94,1473.16 5213.94,1473.56C5213.94,1474.26 5214.44,1474.76 5215.14,1474.76ZM5156.65,1473.56C5156.65,1473.16 5156.55,1472.66 5156.15,1472.26C5146.35,1460.56 5141.75,1444.36 5141.75,1430.16C5141.75,1415.96 5146.35,1399.76 5156.15,1388.06C5156.55,1387.66 5156.65,1387.16 5156.65,1386.76C5156.65,1386.06 5156.15,1385.56 5155.45,1385.56C5153.15,1385.56 5136.45,1402.96 5136.45,1430.16C5136.45,1457.26 5153.15,1474.76 5155.45,1474.76C5156.15,1474.76 5156.65,1474.26 5156.65,1473.56ZM5204.34,1450.06C5204.34,1451.76 5204.14,1455.86 5204.14,1457.16C5204.14,1458.46 5206.34,1459.36 5207.94,1459.36C5208.64,1459.36 5209.24,1459.16 5209.24,1458.56C5209.14,1456.46 5209.04,1451.76 5209.04,1449.56L5209.04,1409.26C5209.04,1406.96 5209.54,1405.56 5209.54,1404.26C5209.54,1402.76 5207.74,1401.26 5206.54,1401.26C5205.34,1401.26 5203.64,1403.56 5203.04,1404.06C5200.54,1405.96 5196.74,1408.06 5192.74,1409.66C5192.14,1409.86 5191.94,1410.16 5191.94,1410.46C5191.94,1411.36 5193.74,1412.26 5195.14,1412.26C5195.44,1412.26 5195.74,1412.26 5195.94,1412.16C5198.74,1411.36 5202.04,1410.06 5204.34,1408.66L5204.34,1450.06ZM5185.94,1405.06C5185.94,1403.66 5183.94,1401.86 5182.74,1401.66L5182.54,1401.66C5181.54,1401.66 5180.44,1402.16 5179.24,1402.26L5157.75,1403.76L5156.65,1403.76C5155.35,1403.76 5154.55,1403.66 5153.65,1403.66C5153.35,1403.66 5153.25,1403.86 5153.25,1404.16C5153.25,1404.76 5154.25,1408.26 5157.15,1408.26C5157.85,1408.26 5158.65,1408.06 5159.45,1408.06L5180.14,1406.26C5171.64,1425.46 5170.05,1430.06 5161.15,1455.56C5161.05,1456.06 5160.65,1456.76 5160.65,1457.46C5160.65,1458.16 5161.05,1458.86 5162.65,1459.06C5163.05,1459.06 5163.44,1459.16 5163.74,1459.16C5165.05,1459.16 5165.74,1458.86 5165.94,1457.96C5166.55,1455.06 5167.15,1452.76 5167.74,1451.06C5172.04,1437.66 5178.04,1422.26 5184.04,1409.16C5184.54,1408.16 5185.74,1406.66 5185.94,1405.36L5185.94,1405.06Z" style="fill-rule:nonzero;"/>
        </g>
    </g>
</svg>
