<?xml version="1.0" encoding="UTF-8" standalone="no"?>
<!DOCTYPE svg PUBLIC "-//W3C//DTD SVG 1.1//EN" "http://www.w3.org/Graphics/SVG/1.1/DTD/svg11.dtd">
<svg width="100%" height="100%" viewBox="0 0 98 90" version="1.1" xmlns="http://www.w3.org/2000/svg" xmlns:xlink="http://www.w3.org/1999/xlink" xml:space="preserve" xmlns:serif="http://www.serif.com/" style="fill-rule:evenodd;clip-rule:evenodd;stroke-linejoin:round;stroke-miterlimit:2;">
    <g transform="matrix(1,0,0,1,-5537.41,-335.561)">
        <g transform="matrix(1,0,0,1,1,0)">
            <path d="M5615.1,424.761C5617.4,424.761 5634.1,407.261 5634.1,380.161C5634.1,352.961 5617.4,335.561 5615.1,335.561C5614.4,335.561 5613.9,336.061 5613.9,336.761C5613.9,337.161 5614,337.661 5614.4,338.061C5624.2,349.761 5628.8,365.961 5628.8,380.161C5628.8,394.361 5624.2,410.561 5614.4,422.261C5614,422.661 5613.9,423.161 5613.9,423.561C5613.9,424.261 5614.4,424.761 5615.1,424.761ZM5556.61,423.561C5556.61,423.161 5556.51,422.661 5556.11,422.261C5546.31,410.561 5541.71,394.361 5541.71,380.161C5541.71,365.961 5546.31,349.761 5556.11,338.061C5556.51,337.661 5556.61,337.161 5556.61,336.761C5556.61,336.061 5556.11,335.561 5555.4,335.561C5553.11,335.561 5536.41,352.961 5536.41,380.161C5536.41,407.261 5553.11,424.761 5555.4,424.761C5556.11,424.761 5556.61,424.261 5556.61,423.561ZM5601,351.461C5599.4,351.761 5597.3,351.961 5595,352.061L5576.2,353.361C5575,352.761 5573.7,352.361 5572.7,352.361C5572,352.361 5571.5,352.661 5571.5,353.261C5571.5,354.261 5571.5,355.661 5571.3,356.761L5567.9,376.461C5567.5,377.761 5566.9,379.561 5566.9,380.061C5566.9,381.961 5569,383.661 5570.2,383.661C5570.5,383.661 5570.7,383.561 5570.9,383.361C5575,379.261 5577.6,376.961 5586.7,376.961C5595.4,376.961 5601.7,381.761 5601.7,390.261C5601.7,399.061 5595.9,405.261 5583.5,405.261C5576.8,405.261 5572.2,402.961 5568.1,397.161C5567.7,396.561 5567.2,396.361 5566.8,396.361C5565.5,396.361 5564.6,398.361 5564.6,400.061C5564.6,400.761 5564.8,401.461 5565.2,401.861C5570.8,407.461 5575.9,409.661 5583.5,409.661C5599.3,409.661 5606.5,401.161 5606.5,390.161C5606.5,378.761 5597.2,372.761 5587.4,372.761C5580.2,372.761 5576.1,373.961 5572.2,377.161L5575.7,357.661L5595.8,356.361C5598.5,356.161 5601.2,356.161 5602.8,356.161C5603.5,356.161 5603.8,355.661 5603.8,355.061C5603.8,353.661 5602.4,351.461 5601.2,351.461L5601,351.461Z" style="fill-rule:nonzero;"/>
        </g>
    </g>
</svg>
