<?xml version="1.0" encoding="UTF-8" standalone="no"?>
<!DOCTYPE svg PUBLIC "-//W3C//DTD SVG 1.1//EN" "http://www.w3.org/Graphics/SVG/1.1/DTD/svg11.dtd">
<svg width="100%" height="100%" viewBox="0 0 98 90" version="1.1" xmlns="http://www.w3.org/2000/svg" xmlns:xlink="http://www.w3.org/1999/xlink" xml:space="preserve" xmlns:serif="http://www.serif.com/" style="fill-rule:evenodd;clip-rule:evenodd;stroke-linejoin:round;stroke-miterlimit:2;">
    <g transform="matrix(1,0,0,1,-5837.38,-485.561)">
        <g transform="matrix(1,0,0,1,1,0)">
            <path d="M5899.67,525.861C5908.27,519.961 5914.87,513.561 5914.87,511.361C5914.87,510.461 5914.27,509.861 5913.47,509.861C5912.87,509.861 5912.27,510.061 5911.57,510.761L5911.17,511.161C5911.47,510.661 5911.67,510.061 5911.67,509.661C5911.67,509.361 5911.57,509.061 5911.47,508.861C5908.37,504.561 5903.67,500.961 5897.07,500.961C5886.77,500.961 5881.27,507.261 5881.27,514.361C5881.27,519.661 5883.67,523.061 5891.07,526.661C5883.57,531.661 5878.57,537.161 5878.57,544.461C5878.57,553.061 5884.77,559.661 5895.67,559.661C5907.77,559.661 5915.27,553.261 5915.27,543.361C5915.27,535.561 5910.27,530.461 5900.67,526.261L5899.67,525.861ZM5895.47,528.661C5906.37,532.961 5910.57,537.061 5910.57,543.761C5910.57,550.661 5904.37,555.361 5895.67,555.361C5886.97,555.361 5883.27,549.761 5883.27,544.261C5883.27,538.461 5888.07,533.761 5895.47,528.661ZM5856.57,573.561C5856.57,573.161 5856.48,572.661 5856.07,572.261C5846.28,560.561 5841.68,544.361 5841.68,530.161C5841.68,515.961 5846.28,499.761 5856.07,488.061C5856.48,487.661 5856.57,487.161 5856.57,486.761C5856.57,486.061 5856.07,485.561 5855.38,485.561C5853.07,485.561 5836.38,502.961 5836.38,530.161C5836.38,557.261 5853.07,574.761 5855.38,574.761C5856.07,574.761 5856.57,574.261 5856.57,573.561ZM5915.07,574.761C5917.37,574.761 5934.07,557.261 5934.07,530.161C5934.07,502.961 5917.37,485.561 5915.07,485.561C5914.37,485.561 5913.87,486.061 5913.87,486.761C5913.87,487.161 5913.97,487.661 5914.37,488.061C5924.17,499.761 5928.77,515.961 5928.77,530.161C5928.77,544.361 5924.17,560.561 5914.37,572.261C5913.97,572.661 5913.87,573.161 5913.87,573.561C5913.87,574.261 5914.37,574.761 5915.07,574.761ZM5863.57,550.061C5863.57,551.761 5863.37,555.861 5863.37,557.161C5863.37,558.461 5865.57,559.361 5867.17,559.361C5867.87,559.361 5868.47,559.161 5868.47,558.561C5868.37,556.461 5868.27,551.761 5868.27,549.561L5868.27,509.261C5868.27,506.961 5868.77,505.561 5868.77,504.261C5868.77,502.761 5866.97,501.261 5865.77,501.261C5864.57,501.261 5862.87,503.561 5862.27,504.061C5859.77,505.961 5855.98,508.061 5851.98,509.661C5851.38,509.861 5851.18,510.161 5851.18,510.461C5851.18,511.361 5852.98,512.261 5854.38,512.261C5854.68,512.261 5854.98,512.261 5855.18,512.161C5857.97,511.361 5861.27,510.061 5863.57,508.661L5863.57,550.061ZM5895.37,523.861C5888.37,520.761 5885.97,518.561 5885.97,514.361C5885.97,509.661 5889.47,505.061 5897.17,505.061C5902.17,505.061 5905.17,507.561 5907.57,511.461C5908.07,512.261 5908.57,512.561 5909.07,512.561C5909.37,512.561 5909.67,512.461 5909.87,512.361C5905.87,516.361 5900.77,520.461 5895.37,523.861Z" style="fill-rule:nonzero;"/>
        </g>
    </g>
</svg>
