<?xml version="1.0" encoding="UTF-8" standalone="no"?>
<!DOCTYPE svg PUBLIC "-//W3C//DTD SVG 1.1//EN" "http://www.w3.org/Graphics/SVG/1.1/DTD/svg11.dtd">
<svg width="100%" height="100%" viewBox="0 0 98 90" version="1.1" xmlns="http://www.w3.org/2000/svg" xmlns:xlink="http://www.w3.org/1999/xlink" xml:space="preserve" xmlns:serif="http://www.serif.com/" style="fill-rule:evenodd;clip-rule:evenodd;stroke-linejoin:round;stroke-miterlimit:2;">
    <g transform="matrix(1,0,0,1,-5737.39,-1685.56)">
        <g transform="matrix(1,0,0,1,1,0)">
            <path d="M5772.98,1759.26C5774.98,1759.16 5776.18,1758.66 5776.28,1757.56C5776.98,1748.96 5781.58,1724.96 5785.28,1709.16C5785.38,1708.66 5785.98,1707.26 5786.28,1706.16L5786.28,1705.86C5786.28,1704.66 5784.68,1703.16 5782.88,1703.16C5781.18,1703.16 5781.58,1705.66 5780.98,1707.86C5779.88,1705.56 5776.08,1700.86 5768.18,1700.86C5756.98,1700.86 5748.49,1711.66 5748.49,1722.56C5748.49,1731.76 5753.69,1737.06 5761.28,1737.06C5767.18,1737.06 5773.38,1733.36 5776.88,1727.66L5771.38,1755.96C5771.28,1756.66 5770.98,1757.36 5770.98,1757.96C5770.98,1758.76 5771.38,1759.26 5772.78,1759.26L5772.98,1759.26ZM5779.38,1715.36C5776.08,1725.36 5769.58,1732.66 5761.18,1732.66C5755.89,1732.66 5753.19,1729.16 5753.19,1722.26C5753.19,1714.86 5758.78,1705.06 5768.58,1705.06C5774.38,1705.06 5776.78,1708.96 5777.88,1711.16C5778.18,1711.86 5778.58,1712.16 5779.08,1712.16C5779.48,1712.16 5779.88,1711.86 5780.28,1711.46L5779.38,1715.36ZM5756.59,1773.56C5756.59,1773.16 5756.48,1772.66 5756.09,1772.26C5746.29,1760.56 5741.69,1744.36 5741.69,1730.16C5741.69,1715.96 5746.29,1699.76 5756.09,1688.06C5756.48,1687.66 5756.59,1687.16 5756.59,1686.76C5756.59,1686.06 5756.09,1685.56 5755.39,1685.56C5753.09,1685.56 5736.39,1702.96 5736.39,1730.16C5736.39,1757.26 5753.09,1774.76 5755.39,1774.76C5756.09,1774.76 5756.59,1774.26 5756.59,1773.56ZM5815.08,1774.76C5817.38,1774.76 5834.08,1757.26 5834.08,1730.16C5834.08,1702.96 5817.38,1685.56 5815.08,1685.56C5814.38,1685.56 5813.88,1686.06 5813.88,1686.76C5813.88,1687.16 5813.98,1687.66 5814.38,1688.06C5824.18,1699.76 5828.78,1715.96 5828.78,1730.16C5828.78,1744.36 5824.18,1760.56 5814.38,1772.26C5813.98,1772.66 5813.88,1773.16 5813.88,1773.56C5813.88,1774.26 5814.38,1774.76 5815.08,1774.76ZM5820.98,1705.06C5820.98,1703.66 5818.98,1701.86 5817.78,1701.66L5817.58,1701.66C5816.58,1701.66 5815.48,1702.16 5814.28,1702.26L5792.78,1703.76L5791.68,1703.76C5790.38,1703.76 5789.58,1703.66 5788.68,1703.66C5788.38,1703.66 5788.28,1703.86 5788.28,1704.16C5788.28,1704.76 5789.28,1708.26 5792.18,1708.26C5792.88,1708.26 5793.68,1708.06 5794.48,1708.06L5815.18,1706.26C5806.68,1725.46 5805.08,1730.06 5796.18,1755.56C5796.08,1756.06 5795.68,1756.76 5795.68,1757.46C5795.68,1758.16 5796.08,1758.86 5797.68,1759.06C5798.08,1759.06 5798.48,1759.16 5798.78,1759.16C5800.08,1759.16 5800.78,1758.86 5800.98,1757.96C5801.58,1755.06 5802.18,1752.76 5802.78,1751.06C5807.08,1737.66 5813.08,1722.26 5819.08,1709.16C5819.58,1708.16 5820.78,1706.66 5820.98,1705.36L5820.98,1705.06Z" style="fill-rule:nonzero;"/>
        </g>
    </g>
</svg>
