<?xml version="1.0" encoding="UTF-8" standalone="no"?>
<!DOCTYPE svg PUBLIC "-//W3C//DTD SVG 1.1//EN" "http://www.w3.org/Graphics/SVG/1.1/DTD/svg11.dtd">
<svg width="100%" height="100%" viewBox="0 0 98 90" version="1.1" xmlns="http://www.w3.org/2000/svg" xmlns:xlink="http://www.w3.org/1999/xlink" xml:space="preserve" xmlns:serif="http://www.serif.com/" style="fill-rule:evenodd;clip-rule:evenodd;stroke-linejoin:round;stroke-miterlimit:2;">
    <g transform="matrix(1,0,0,1,-5537.41,-185.561)">
        <g transform="matrix(1,0,0,1,1,0)">
            <path d="M5615.1,274.761C5617.4,274.761 5634.1,257.261 5634.1,230.161C5634.1,202.961 5617.4,185.561 5615.1,185.561C5614.4,185.561 5613.9,186.061 5613.9,186.761C5613.9,187.161 5614,187.661 5614.4,188.061C5624.2,199.761 5628.8,215.961 5628.8,230.161C5628.8,244.361 5624.2,260.561 5614.4,272.261C5614,272.661 5613.9,273.161 5613.9,273.561C5613.9,274.261 5614.4,274.761 5615.1,274.761ZM5556.61,273.561C5556.61,273.161 5556.51,272.661 5556.11,272.261C5546.31,260.561 5541.71,244.361 5541.71,230.161C5541.71,215.961 5546.31,199.761 5556.11,188.061C5556.51,187.661 5556.61,187.161 5556.61,186.761C5556.61,186.061 5556.11,185.561 5555.4,185.561C5553.11,185.561 5536.41,202.961 5536.41,230.161C5536.41,257.261 5553.11,274.761 5555.4,274.761C5556.11,274.761 5556.61,274.261 5556.61,273.561ZM5616.6,245.561C5618.8,245.561 5621.8,245.761 5622.9,245.761C5623.5,245.761 5623.7,245.261 5623.7,244.661C5623.7,243.261 5622.5,240.961 5621.2,240.961C5620.2,240.961 5617.9,241.361 5616.5,241.461L5615.1,241.561L5615.1,224.861C5615.1,222.861 5615.3,218.961 5615.3,217.661C5615.3,216.261 5613.1,215.361 5611.6,215.361C5610.8,215.361 5610.2,215.661 5610.2,216.161C5610.2,218.061 5610.4,223.261 5610.4,224.861L5610.4,241.761L5591.4,242.161C5597.1,232.561 5604.4,219.561 5608.9,210.661C5609.6,209.361 5610.8,207.461 5611.7,206.161C5611.9,205.961 5611.9,205.661 5611.9,205.361C5611.9,203.661 5609.6,201.261 5608.3,201.261C5607.9,201.261 5607.6,201.361 5607.5,201.761C5604.3,209.861 5597.5,223.061 5588.7,237.861C5588,238.961 5586.9,240.161 5586,241.561C5585.6,242.061 5585.5,242.661 5585.5,243.161C5585.5,245.061 5587.4,246.861 5589,246.861C5589.2,246.861 5589.3,246.761 5589.5,246.761C5590.7,246.461 5591.9,246.261 5592.5,246.261L5610.4,245.761L5610.4,250.161C5610.4,251.361 5610.2,255.961 5610.2,257.261C5610.2,258.661 5612.5,259.561 5614.1,259.561C5614.9,259.561 5615.5,259.261 5615.5,258.761C5615.5,256.861 5615.2,253.661 5615.1,250.361L5615.1,245.561L5616.6,245.561ZM5557.61,206.361C5557.4,206.061 5557.01,205.761 5556.51,205.761C5554.2,205.761 5549.21,217.461 5549.21,231.661C5549.21,248.161 5554.4,260.261 5565.2,260.261C5576.5,260.261 5582,246.161 5582,229.561C5582,213.261 5576.7,201.361 5567,201.361C5563.2,201.361 5560.01,203.361 5557.61,206.361ZM5564.9,255.961C5556.51,255.961 5553.7,244.761 5553.7,231.561C5553.7,214.161 5561.11,205.461 5566.7,205.461C5574.7,205.461 5577.5,217.761 5577.5,228.961C5577.5,242.661 5574,255.961 5564.9,255.961Z" style="fill-rule:nonzero;"/>
        </g>
    </g>
</svg>
