<?xml version="1.0" encoding="UTF-8" standalone="no"?>
<!DOCTYPE svg PUBLIC "-//W3C//DTD SVG 1.1//EN" "http://www.w3.org/Graphics/SVG/1.1/DTD/svg11.dtd">
<svg width="100%" height="100%" viewBox="0 0 98 90" version="1.1" xmlns="http://www.w3.org/2000/svg" xmlns:xlink="http://www.w3.org/1999/xlink" xml:space="preserve" xmlns:serif="http://www.serif.com/" style="fill-rule:evenodd;clip-rule:evenodd;stroke-linejoin:round;stroke-miterlimit:2;">
    <g transform="matrix(1,0,0,1,-5637.4,-335.561)">
        <g transform="matrix(1,0,0,1,1,0)">
            <path d="M5715.09,424.761C5717.39,424.761 5734.09,407.261 5734.09,380.161C5734.09,352.961 5717.39,335.561 5715.09,335.561C5714.39,335.561 5713.89,336.061 5713.89,336.761C5713.89,337.161 5713.99,337.661 5714.39,338.061C5724.19,349.761 5728.79,365.961 5728.79,380.161C5728.79,394.361 5724.19,410.561 5714.39,422.261C5713.99,422.661 5713.89,423.161 5713.89,423.561C5713.89,424.261 5714.39,424.761 5715.09,424.761ZM5656.6,423.561C5656.6,423.161 5656.49,422.661 5656.1,422.261C5646.3,410.561 5641.7,394.361 5641.7,380.161C5641.7,365.961 5646.3,349.761 5656.1,338.061C5656.49,337.661 5656.6,337.161 5656.6,336.761C5656.6,336.061 5656.1,335.561 5655.4,335.561C5653.1,335.561 5636.4,352.961 5636.4,380.161C5636.4,407.261 5653.1,424.761 5655.4,424.761C5656.1,424.761 5656.6,424.261 5656.6,423.561ZM5672.29,379.461C5676.89,369.161 5688.29,356.461 5690.39,354.361C5690.89,353.861 5691.49,353.261 5691.49,352.561C5691.49,351.061 5688.99,350.861 5687.69,350.861C5686.69,350.861 5685.59,351.061 5685.19,351.861C5684.89,352.261 5684.29,353.261 5684.19,353.561C5680.69,358.261 5675.39,364.461 5671.69,370.661C5667.09,378.261 5664.29,384.661 5664.29,392.661C5664.29,402.661 5672.19,409.661 5685.39,409.661C5699.89,409.661 5706.59,401.361 5706.59,390.061C5706.59,380.061 5698.09,373.461 5687.09,373.461C5680.89,373.461 5675.39,375.661 5672.29,379.461ZM5701.79,390.361C5701.79,399.561 5696.49,405.561 5685.39,405.561C5674.69,405.561 5669.19,400.561 5669.19,392.461C5669.19,383.561 5678.39,377.561 5686.89,377.561C5695.99,377.561 5701.79,383.061 5701.79,390.361Z" style="fill-rule:nonzero;"/>
        </g>
    </g>
</svg>
