<?xml version="1.0" encoding="UTF-8" standalone="no"?>
<!DOCTYPE svg PUBLIC "-//W3C//DTD SVG 1.1//EN" "http://www.w3.org/Graphics/SVG/1.1/DTD/svg11.dtd">
<svg width="100%" height="100%" viewBox="0 0 98 90" version="1.1" xmlns="http://www.w3.org/2000/svg" xmlns:xlink="http://www.w3.org/1999/xlink" xml:space="preserve" xmlns:serif="http://www.serif.com/" style="fill-rule:evenodd;clip-rule:evenodd;stroke-linejoin:round;stroke-miterlimit:2;">
    <g transform="matrix(1,0,0,1,-5737.39,-335.561)">
        <g transform="matrix(1,0,0,1,1,0)">
            <path d="M5815.08,424.761C5817.38,424.761 5834.08,407.261 5834.08,380.161C5834.08,352.961 5817.38,335.561 5815.08,335.561C5814.38,335.561 5813.88,336.061 5813.88,336.761C5813.88,337.161 5813.98,337.661 5814.38,338.061C5824.18,349.761 5828.78,365.961 5828.78,380.161C5828.78,394.361 5824.18,410.561 5814.38,422.261C5813.98,422.661 5813.88,423.161 5813.88,423.561C5813.88,424.261 5814.38,424.761 5815.08,424.761ZM5756.59,423.561C5756.59,423.161 5756.48,422.661 5756.09,422.261C5746.29,410.561 5741.69,394.361 5741.69,380.161C5741.69,365.961 5746.29,349.761 5756.09,338.061C5756.48,337.661 5756.59,337.161 5756.59,336.761C5756.59,336.061 5756.09,335.561 5755.39,335.561C5753.09,335.561 5736.39,352.961 5736.39,380.161C5736.39,407.261 5753.09,424.761 5755.39,424.761C5756.09,424.761 5756.59,424.261 5756.59,423.561ZM5804.98,354.861C5804.98,353.561 5802.98,351.661 5801.08,351.461L5800.78,351.461C5799.98,351.461 5799.68,351.861 5797.38,352.061L5770.28,353.861C5769.58,353.961 5768.88,353.961 5768.28,353.961C5767.08,353.961 5766.08,353.861 5765.18,353.861C5764.88,353.861 5764.68,354.061 5764.68,354.361C5764.68,355.161 5766.78,358.561 5769.18,358.561C5770.18,358.561 5771.08,358.261 5772.08,358.161L5799.08,355.961C5790.78,369.761 5784.28,384.061 5777.78,399.461C5777.28,400.561 5774.58,406.161 5774.58,407.261C5774.58,407.961 5775.08,408.661 5776.68,408.861C5777.18,408.861 5777.58,408.961 5777.98,408.961C5779.38,408.961 5780.28,408.661 5780.48,407.761C5784.78,391.061 5801.98,360.161 5802.68,358.861C5803.18,357.961 5804.68,356.461 5804.98,355.161L5804.98,354.861Z" style="fill-rule:nonzero;"/>
        </g>
    </g>
</svg>
