<?xml version="1.0" encoding="UTF-8" standalone="no"?>
<!DOCTYPE svg PUBLIC "-//W3C//DTD SVG 1.1//EN" "http://www.w3.org/Graphics/SVG/1.1/DTD/svg11.dtd">
<svg width="100%" height="100%" viewBox="0 0 98 90" version="1.1" xmlns="http://www.w3.org/2000/svg" xmlns:xlink="http://www.w3.org/1999/xlink" xml:space="preserve" xmlns:serif="http://www.serif.com/" style="fill-rule:evenodd;clip-rule:evenodd;stroke-linejoin:round;stroke-miterlimit:2;">
    <g transform="matrix(1,0,0,1,-5537.41,-485.561)">
        <g transform="matrix(1,0,0,1,1,0)">
            <path d="M5612.6,506.061C5613.2,506.061 5613.5,505.561 5613.5,504.961C5613.5,503.661 5612.3,501.561 5611.2,501.561L5611,501.561C5609.6,501.861 5607.3,502.061 5605.8,502.061L5589.6,503.261C5588.5,502.761 5587.3,502.361 5586.5,502.361C5585.8,502.361 5585.4,502.561 5585.4,503.261C5585.4,504.261 5585.4,505.661 5585.2,506.761L5582.2,526.461C5581.9,527.461 5581.4,529.861 5581.4,530.161C5581.4,532.161 5583.4,533.661 5584.7,533.661C5585.3,533.661 5586,532.961 5587.6,531.361C5590.3,528.761 5594.3,526.961 5598.5,526.961C5605.8,526.961 5611,531.961 5611,540.261C5611,548.061 5606.3,555.261 5595.7,555.261C5589.7,555.261 5585.4,551.461 5582.5,547.161C5582.3,546.761 5582,546.561 5581.7,546.561C5580.6,546.561 5579.3,548.761 5579.3,550.561C5579.3,553.461 5587.6,559.661 5595.7,559.661C5609.8,559.661 5615.7,550.461 5615.7,540.161C5615.7,529.161 5607.9,522.761 5599.3,522.761C5593.9,522.761 5589.7,524.461 5586.4,527.261L5589.5,507.661L5606.4,506.361L5612.6,506.061ZM5556.61,573.561C5556.61,573.161 5556.51,572.661 5556.11,572.261C5546.31,560.561 5541.71,544.361 5541.71,530.161C5541.71,515.961 5546.31,499.761 5556.11,488.061C5556.51,487.661 5556.61,487.161 5556.61,486.761C5556.61,486.061 5556.11,485.561 5555.4,485.561C5553.11,485.561 5536.41,502.961 5536.41,530.161C5536.41,557.261 5553.11,574.761 5555.4,574.761C5556.11,574.761 5556.61,574.261 5556.61,573.561ZM5615.1,574.761C5617.4,574.761 5634.1,557.261 5634.1,530.161C5634.1,502.961 5617.4,485.561 5615.1,485.561C5614.4,485.561 5613.9,486.061 5613.9,486.761C5613.9,487.161 5614,487.661 5614.4,488.061C5624.2,499.761 5628.8,515.961 5628.8,530.161C5628.8,544.361 5624.2,560.561 5614.4,572.261C5614,572.661 5613.9,573.161 5613.9,573.561C5613.9,574.261 5614.4,574.761 5615.1,574.761ZM5563.6,550.061C5563.6,551.761 5563.4,555.861 5563.4,557.161C5563.4,558.461 5565.6,559.361 5567.2,559.361C5567.9,559.361 5568.5,559.161 5568.5,558.561C5568.4,556.461 5568.3,551.761 5568.3,549.561L5568.3,509.261C5568.3,506.961 5568.8,505.561 5568.8,504.261C5568.8,502.761 5567,501.261 5565.8,501.261C5564.6,501.261 5562.9,503.561 5562.31,504.061C5559.81,505.961 5556.01,508.061 5552.01,509.661C5551.41,509.861 5551.21,510.161 5551.21,510.461C5551.21,511.361 5553.01,512.261 5554.4,512.261C5554.7,512.261 5555.01,512.261 5555.2,512.161C5558.01,511.361 5561.31,510.061 5563.6,508.661L5563.6,550.061Z" style="fill-rule:nonzero;"/>
        </g>
    </g>
</svg>
