<?xml version="1.0" encoding="UTF-8" standalone="no"?>
<!DOCTYPE svg PUBLIC "-//W3C//DTD SVG 1.1//EN" "http://www.w3.org/Graphics/SVG/1.1/DTD/svg11.dtd">
<svg width="100%" height="100%" viewBox="0 0 98 90" version="1.1" xmlns="http://www.w3.org/2000/svg" xmlns:xlink="http://www.w3.org/1999/xlink" xml:space="preserve" xmlns:serif="http://www.serif.com/" style="fill-rule:evenodd;clip-rule:evenodd;stroke-linejoin:round;stroke-miterlimit:2;">
    <g transform="matrix(1,0,0,1,-6037.36,-1235.56)">
        <g transform="matrix(1,0,0,1,1,0)">
            <path d="M6115.05,1324.76C6117.35,1324.76 6134.05,1307.26 6134.05,1280.16C6134.05,1252.96 6117.35,1235.56 6115.05,1235.56C6114.35,1235.56 6113.85,1236.06 6113.85,1236.76C6113.85,1237.16 6113.95,1237.66 6114.35,1238.06C6124.15,1249.76 6128.75,1265.96 6128.75,1280.16C6128.75,1294.36 6124.15,1310.56 6114.35,1322.26C6113.95,1322.66 6113.85,1323.16 6113.85,1323.56C6113.85,1324.26 6114.35,1324.76 6115.05,1324.76ZM6056.55,1323.56C6056.55,1323.16 6056.45,1322.66 6056.05,1322.26C6046.26,1310.56 6041.66,1294.36 6041.66,1280.16C6041.66,1265.96 6046.26,1249.76 6056.05,1238.06C6056.45,1237.66 6056.55,1237.16 6056.55,1236.76C6056.55,1236.06 6056.05,1235.56 6055.35,1235.56C6053.05,1235.56 6036.36,1252.96 6036.36,1280.16C6036.36,1307.26 6053.05,1324.76 6055.35,1324.76C6056.05,1324.76 6056.55,1324.26 6056.55,1323.56ZM6095.85,1255.76C6095.55,1255.16 6094.75,1255.16 6094.65,1255.16C6092.55,1255.16 6087.25,1266.36 6087.25,1281.06C6087.25,1297.56 6092.55,1309.66 6103.55,1309.66C6115.15,1309.66 6120.75,1295.56 6120.75,1278.96C6120.75,1262.66 6115.35,1250.76 6105.45,1250.76C6101.55,1250.76 6098.25,1252.76 6095.85,1255.76ZM6083.75,1255.06C6083.75,1253.66 6081.75,1251.86 6080.55,1251.66L6080.35,1251.66C6079.35,1251.66 6078.25,1252.16 6077.05,1252.26L6055.55,1253.76L6054.45,1253.76C6053.15,1253.76 6052.36,1253.66 6051.45,1253.66C6051.15,1253.66 6051.06,1253.86 6051.06,1254.16C6051.06,1254.76 6052.06,1258.26 6054.95,1258.26C6055.65,1258.26 6056.45,1258.06 6057.25,1258.06L6077.95,1256.26C6069.45,1275.46 6067.85,1280.06 6058.95,1305.56C6058.85,1306.06 6058.45,1306.76 6058.45,1307.46C6058.45,1308.16 6058.85,1308.86 6060.45,1309.06C6060.85,1309.06 6061.25,1309.16 6061.55,1309.16C6062.85,1309.16 6063.55,1308.86 6063.75,1307.96C6064.35,1305.06 6064.95,1302.76 6065.55,1301.06C6069.85,1287.66 6075.85,1272.26 6081.85,1259.16C6082.35,1258.16 6083.55,1256.66 6083.75,1255.36L6083.75,1255.06ZM6103.25,1305.36C6094.75,1305.36 6091.85,1294.16 6091.85,1280.96C6091.85,1263.56 6099.35,1254.86 6105.15,1254.86C6113.25,1254.86 6116.15,1267.16 6116.15,1278.36C6116.15,1292.06 6112.55,1305.36 6103.25,1305.36Z" style="fill-rule:nonzero;"/>
        </g>
    </g>
</svg>
