<?xml version="1.0" encoding="UTF-8" standalone="no"?>
<!DOCTYPE svg PUBLIC "-//W3C//DTD SVG 1.1//EN" "http://www.w3.org/Graphics/SVG/1.1/DTD/svg11.dtd">
<svg width="100%" height="100%" viewBox="0 0 98 90" version="1.1" xmlns="http://www.w3.org/2000/svg" xmlns:xlink="http://www.w3.org/1999/xlink" xml:space="preserve" xmlns:serif="http://www.serif.com/" style="fill-rule:evenodd;clip-rule:evenodd;stroke-linejoin:round;stroke-miterlimit:2;">
    <g transform="matrix(1,0,0,1,-5237.44,-335.561)">
        <g transform="matrix(1,0,0,1,1,0)">
            <path d="M5267.34,408.561C5274.93,407.661 5276.03,407.661 5283.73,407.661C5288.63,407.661 5293.83,407.661 5297.53,407.861C5300.63,408.061 5303.83,408.361 5304.93,408.361C5305.83,408.361 5306.13,407.861 5306.13,407.161C5306.13,405.661 5304.73,403.461 5303.23,403.461C5302.03,403.461 5299.13,403.561 5297.53,403.561C5293.73,403.561 5288.93,403.461 5284.33,403.461C5280.93,403.461 5273.33,403.561 5269.83,403.861C5274.43,397.161 5281.23,390.361 5290.33,383.861C5299.33,377.261 5304.83,371.461 5304.83,364.161C5304.83,356.061 5298.83,350.861 5287.63,350.861C5272.53,350.861 5267.14,360.861 5267.14,362.361C5267.14,364.361 5269.43,365.561 5269.93,365.561C5270.93,365.561 5271.63,364.561 5272.03,363.761C5274.83,357.961 5279.53,355.161 5287.43,355.161C5295.83,355.161 5299.73,358.661 5299.73,364.161C5299.73,369.961 5294.63,374.561 5286.73,380.461C5277.03,387.661 5269.43,396.061 5265.94,401.361C5265.44,402.161 5264.64,402.761 5263.94,403.861C5263.73,404.061 5263.64,404.461 5263.64,404.861C5263.64,406.361 5265.03,408.561 5266.94,408.561L5267.34,408.561ZM5315.13,424.761C5317.43,424.761 5334.13,407.261 5334.13,380.161C5334.13,352.961 5317.43,335.561 5315.13,335.561C5314.43,335.561 5313.93,336.061 5313.93,336.761C5313.93,337.161 5314.03,337.661 5314.43,338.061C5324.23,349.761 5328.83,365.961 5328.83,380.161C5328.83,394.361 5324.23,410.561 5314.43,422.261C5314.03,422.661 5313.93,423.161 5313.93,423.561C5313.93,424.261 5314.43,424.761 5315.13,424.761ZM5256.64,423.561C5256.64,423.161 5256.54,422.661 5256.14,422.261C5246.34,410.561 5241.74,394.361 5241.74,380.161C5241.74,365.961 5246.34,349.761 5256.14,338.061C5256.54,337.661 5256.64,337.161 5256.64,336.761C5256.64,336.061 5256.14,335.561 5255.44,335.561C5253.14,335.561 5236.44,352.961 5236.44,380.161C5236.44,407.261 5253.14,424.761 5255.44,424.761C5256.14,424.761 5256.64,424.261 5256.64,423.561Z" style="fill-rule:nonzero;"/>
        </g>
    </g>
</svg>
