<?xml version="1.0" encoding="UTF-8" standalone="no"?>
<!DOCTYPE svg PUBLIC "-//W3C//DTD SVG 1.1//EN" "http://www.w3.org/Graphics/SVG/1.1/DTD/svg11.dtd">
<svg width="100%" height="100%" viewBox="0 0 98 90" version="1.1" xmlns="http://www.w3.org/2000/svg" xmlns:xlink="http://www.w3.org/1999/xlink" xml:space="preserve" xmlns:serif="http://www.serif.com/" style="fill-rule:evenodd;clip-rule:evenodd;stroke-linejoin:round;stroke-miterlimit:2;">
    <g transform="matrix(1,0,0,1,-5937.37,-785.561)">
        <g transform="matrix(1,0,0,1,1,0)">
            <path d="M6010.06,859.261C6012.06,859.161 6013.26,858.661 6013.36,857.561C6014.06,848.961 6018.66,824.961 6022.36,809.161C6022.46,808.661 6023.06,807.261 6023.36,806.161L6023.36,805.861C6023.36,804.661 6021.76,803.161 6019.96,803.161C6018.26,803.161 6018.66,805.661 6018.06,807.861C6016.96,805.561 6013.16,800.861 6005.26,800.861C5994.06,800.861 5985.56,811.661 5985.56,822.561C5985.56,831.761 5990.76,837.061 5998.36,837.061C6004.26,837.061 6010.46,833.361 6013.96,827.661L6008.46,855.961C6008.36,856.661 6008.06,857.361 6008.06,857.961C6008.06,858.761 6008.46,859.261 6009.86,859.261L6010.06,859.261ZM5969.96,826.861C5976.86,825.061 5982.06,820.061 5982.06,813.261C5982.06,805.461 5976.26,800.861 5967.56,800.861C5957.36,800.861 5950.57,807.561 5950.57,809.661C5950.57,811.461 5952.16,813.061 5952.97,813.061C5953.77,813.061 5954.36,812.061 5954.66,811.761C5958.66,807.161 5962.76,805.061 5967.66,805.061C5973.76,805.061 5977.36,808.361 5977.36,813.761C5977.36,821.261 5967.06,825.561 5959.36,826.061C5958.76,826.161 5958.46,826.661 5958.46,827.261C5958.46,828.561 5959.56,830.461 5960.96,830.461C5961.16,830.461 5961.26,830.361 5961.46,830.361C5961.56,830.361 5964.66,829.661 5967.56,829.661C5974.66,829.661 5979.76,834.261 5979.76,840.861C5979.76,848.261 5975.46,855.361 5964.56,855.361C5958.96,855.361 5955.46,852.561 5952.07,848.361C5951.77,848.061 5951.57,847.861 5951.27,847.861C5950.07,847.861 5948.97,849.961 5948.97,851.561C5948.97,852.261 5949.07,852.761 5949.47,853.161C5953.77,857.361 5958.56,859.661 5964.56,859.661C5978.76,859.661 5984.56,850.961 5984.56,840.761C5984.56,832.161 5978.16,826.861 5970.96,826.861L5969.96,826.861ZM6016.46,815.361C6013.16,825.361 6006.66,832.661 5998.26,832.661C5992.96,832.661 5990.26,829.161 5990.26,822.261C5990.26,814.861 5995.86,805.061 6005.66,805.061C6011.46,805.061 6013.86,808.961 6014.96,811.161C6015.26,811.861 6015.66,812.161 6016.16,812.161C6016.56,812.161 6016.96,811.861 6017.36,811.461L6016.46,815.361ZM5956.56,873.561C5956.56,873.161 5956.46,872.661 5956.06,872.261C5946.27,860.561 5941.67,844.361 5941.67,830.161C5941.67,815.961 5946.27,799.761 5956.06,788.061C5956.46,787.661 5956.56,787.161 5956.56,786.761C5956.56,786.061 5956.06,785.561 5955.36,785.561C5953.07,785.561 5936.37,802.961 5936.37,830.161C5936.37,857.261 5953.07,874.761 5955.36,874.761C5956.06,874.761 5956.56,874.261 5956.56,873.561ZM6015.06,874.761C6017.36,874.761 6034.06,857.261 6034.06,830.161C6034.06,802.961 6017.36,785.561 6015.06,785.561C6014.36,785.561 6013.86,786.061 6013.86,786.761C6013.86,787.161 6013.96,787.661 6014.36,788.061C6024.16,799.761 6028.76,815.961 6028.76,830.161C6028.76,844.361 6024.16,860.561 6014.36,872.261C6013.96,872.661 6013.86,873.161 6013.86,873.561C6013.86,874.261 6014.36,874.761 6015.06,874.761Z" style="fill-rule:nonzero;"/>
        </g>
    </g>
</svg>
