<?xml version="1.0" encoding="UTF-8" standalone="no"?>
<!DOCTYPE svg PUBLIC "-//W3C//DTD SVG 1.1//EN" "http://www.w3.org/Graphics/SVG/1.1/DTD/svg11.dtd">
<svg width="100%" height="100%" viewBox="0 0 98 90" version="1.1" xmlns="http://www.w3.org/2000/svg" xmlns:xlink="http://www.w3.org/1999/xlink" xml:space="preserve" xmlns:serif="http://www.serif.com/" style="fill-rule:evenodd;clip-rule:evenodd;stroke-linejoin:round;stroke-miterlimit:2;">
    <g transform="matrix(1,0,0,1,-5837.38,-1085.56)">
        <g transform="matrix(1,0,0,1,1,0)">
            <path d="M5906.67,1125.86C5914.47,1120.46 5921.37,1113.46 5921.37,1111.36C5921.37,1110.46 5920.77,1109.86 5919.97,1109.86C5919.37,1109.86 5918.77,1110.06 5918.07,1110.76L5917.67,1111.16C5917.97,1110.66 5918.17,1110.06 5918.17,1109.66C5918.17,1109.36 5918.07,1109.06 5917.97,1108.86C5914.87,1104.56 5910.37,1100.96 5904.07,1100.96C5894.27,1100.96 5888.57,1107.26 5888.57,1114.36C5888.57,1119.66 5890.67,1123.06 5898.07,1126.66C5890.57,1131.66 5886.07,1137.16 5886.07,1144.46C5886.07,1153.06 5892.27,1159.66 5902.67,1159.66C5914.17,1159.66 5921.77,1153.26 5921.77,1143.36C5921.77,1135.56 5917.27,1130.46 5907.67,1126.26L5906.67,1125.86ZM5880.57,1106.36C5881.17,1106.36 5881.47,1105.86 5881.47,1105.26C5881.47,1103.96 5880.27,1101.86 5879.17,1101.86L5878.97,1101.86C5877.57,1102.16 5875.27,1102.36 5873.77,1102.36L5858.57,1103.26C5857.47,1102.76 5856.28,1102.36 5855.48,1102.36C5854.78,1102.36 5854.38,1102.56 5854.38,1103.26C5854.38,1104.26 5854.38,1105.66 5854.18,1106.76L5852.18,1126.46C5851.88,1127.46 5851.38,1129.86 5851.38,1130.16C5851.38,1132.16 5853.38,1133.66 5854.68,1133.66C5855.28,1133.66 5855.98,1132.96 5857.57,1131.36C5860.27,1128.76 5863.77,1126.96 5867.97,1126.96C5875.27,1126.96 5879.97,1131.96 5879.97,1140.26C5879.97,1148.06 5875.77,1155.26 5865.17,1155.26C5859.17,1155.26 5855.38,1151.46 5852.48,1147.16C5852.28,1146.76 5851.98,1146.56 5851.68,1146.56C5850.57,1146.56 5849.28,1148.76 5849.28,1150.56C5849.28,1153.26 5857.07,1159.66 5865.17,1159.66C5879.07,1159.66 5884.67,1150.46 5884.67,1140.16C5884.67,1129.16 5877.37,1122.76 5868.77,1122.76C5863.37,1122.76 5859.67,1124.46 5856.38,1127.26L5858.47,1107.66L5874.37,1106.66L5880.57,1106.36ZM5902.47,1128.66C5911.27,1132.16 5917.07,1135.76 5917.07,1143.76C5917.07,1150.66 5910.97,1155.36 5902.67,1155.36C5894.37,1155.36 5890.77,1149.76 5890.77,1144.26C5890.77,1138.46 5895.07,1133.76 5902.47,1128.66ZM5856.57,1173.56C5856.57,1173.16 5856.48,1172.66 5856.07,1172.26C5846.28,1160.56 5841.68,1144.36 5841.68,1130.16C5841.68,1115.96 5846.28,1099.76 5856.07,1088.06C5856.48,1087.66 5856.57,1087.16 5856.57,1086.76C5856.57,1086.06 5856.07,1085.56 5855.38,1085.56C5853.07,1085.56 5836.38,1102.96 5836.38,1130.16C5836.38,1157.26 5853.07,1174.76 5855.38,1174.76C5856.07,1174.76 5856.57,1174.26 5856.57,1173.56ZM5915.07,1174.76C5917.37,1174.76 5934.07,1157.26 5934.07,1130.16C5934.07,1102.96 5917.37,1085.56 5915.07,1085.56C5914.37,1085.56 5913.87,1086.06 5913.87,1086.76C5913.87,1087.16 5913.97,1087.66 5914.37,1088.06C5924.17,1099.76 5928.77,1115.96 5928.77,1130.16C5928.77,1144.36 5924.17,1160.56 5914.37,1172.26C5913.97,1172.66 5913.87,1173.16 5913.87,1173.56C5913.87,1174.26 5914.37,1174.76 5915.07,1174.76ZM5902.37,1123.86C5895.37,1120.76 5893.27,1118.56 5893.27,1114.36C5893.27,1109.66 5896.87,1105.06 5904.17,1105.06C5908.87,1105.06 5911.67,1107.56 5914.07,1111.46C5914.57,1112.26 5915.07,1112.56 5915.57,1112.56C5915.87,1112.56 5916.17,1112.46 5916.37,1112.36C5912.37,1116.36 5907.77,1120.46 5902.37,1123.86Z" style="fill-rule:nonzero;"/>
        </g>
    </g>
</svg>
