<?xml version="1.0" encoding="UTF-8" standalone="no"?>
<!DOCTYPE svg PUBLIC "-//W3C//DTD SVG 1.1//EN" "http://www.w3.org/Graphics/SVG/1.1/DTD/svg11.dtd">
<svg width="100%" height="100%" viewBox="0 0 98 90" version="1.1" xmlns="http://www.w3.org/2000/svg" xmlns:xlink="http://www.w3.org/1999/xlink" xml:space="preserve" xmlns:serif="http://www.serif.com/" style="fill-rule:evenodd;clip-rule:evenodd;stroke-linejoin:round;stroke-miterlimit:2;">
    <g transform="matrix(1,0,0,1,-5737.39,-1235.56)">
        <g transform="matrix(1,0,0,1,1,0)">
            <path d="M5765.38,1253.46C5762.08,1258.26 5758.68,1264.26 5754.89,1271.46C5751.09,1278.96 5749.09,1285.76 5749.09,1292.56C5749.09,1301.96 5756.78,1309.66 5767.08,1309.66C5778.28,1309.66 5785.08,1301.26 5785.08,1290.36C5785.08,1280.56 5778.38,1273.36 5768.48,1273.36C5762.98,1273.36 5758.48,1275.76 5755.69,1279.66C5758.48,1273.86 5763.98,1262.76 5771.28,1254.26C5771.58,1253.86 5772.18,1253.16 5772.18,1252.56C5772.18,1251.56 5770.08,1250.76 5768.68,1250.76C5767.78,1250.76 5766.98,1251.06 5766.58,1251.76L5765.38,1253.46ZM5767.08,1305.56C5759.28,1305.56 5753.78,1299.86 5753.78,1292.46C5753.78,1284.46 5759.48,1277.46 5768.38,1277.46C5775.78,1277.46 5780.28,1283.66 5780.28,1290.56C5780.28,1299.36 5774.68,1305.56 5767.08,1305.56ZM5756.59,1323.56C5756.59,1323.16 5756.48,1322.66 5756.09,1322.26C5746.29,1310.56 5741.69,1294.36 5741.69,1280.16C5741.69,1265.96 5746.29,1249.76 5756.09,1238.06C5756.48,1237.66 5756.59,1237.16 5756.59,1236.76C5756.59,1236.06 5756.09,1235.56 5755.39,1235.56C5753.09,1235.56 5736.39,1252.96 5736.39,1280.16C5736.39,1307.26 5753.09,1324.76 5755.39,1324.76C5756.09,1324.76 5756.59,1324.26 5756.59,1323.56ZM5815.08,1324.76C5817.38,1324.76 5834.08,1307.26 5834.08,1280.16C5834.08,1252.96 5817.38,1235.56 5815.08,1235.56C5814.38,1235.56 5813.88,1236.06 5813.88,1236.76C5813.88,1237.16 5813.98,1237.66 5814.38,1238.06C5824.18,1249.76 5828.78,1265.96 5828.78,1280.16C5828.78,1294.36 5824.18,1310.56 5814.38,1322.26C5813.98,1322.66 5813.88,1323.16 5813.88,1323.56C5813.88,1324.26 5814.38,1324.76 5815.08,1324.76ZM5818.98,1255.06C5818.98,1253.66 5816.98,1251.86 5815.78,1251.66L5815.58,1251.66C5814.58,1251.66 5813.48,1252.16 5812.28,1252.26L5790.78,1253.76L5789.68,1253.76C5788.38,1253.76 5787.58,1253.66 5786.68,1253.66C5786.38,1253.66 5786.28,1253.86 5786.28,1254.16C5786.28,1254.76 5787.28,1258.26 5790.18,1258.26C5790.88,1258.26 5791.68,1258.06 5792.48,1258.06L5813.18,1256.26C5804.68,1275.46 5803.08,1280.06 5794.18,1305.56C5794.08,1306.06 5793.68,1306.76 5793.68,1307.46C5793.68,1308.16 5794.08,1308.86 5795.68,1309.06C5796.08,1309.06 5796.48,1309.16 5796.78,1309.16C5798.08,1309.16 5798.78,1308.86 5798.98,1307.96C5799.58,1305.06 5800.18,1302.76 5800.78,1301.06C5805.08,1287.66 5811.08,1272.26 5817.08,1259.16C5817.58,1258.16 5818.78,1256.66 5818.98,1255.36L5818.98,1255.06Z" style="fill-rule:nonzero;"/>
        </g>
    </g>
</svg>
