<?xml version="1.0" encoding="UTF-8" standalone="no"?>
<!DOCTYPE svg PUBLIC "-//W3C//DTD SVG 1.1//EN" "http://www.w3.org/Graphics/SVG/1.1/DTD/svg11.dtd">
<svg width="100%" height="100%" viewBox="0 0 98 90" version="1.1" xmlns="http://www.w3.org/2000/svg" xmlns:xlink="http://www.w3.org/1999/xlink" xml:space="preserve" xmlns:serif="http://www.serif.com/" style="fill-rule:evenodd;clip-rule:evenodd;stroke-linejoin:round;stroke-miterlimit:2;">
    <g transform="matrix(1,0,0,1,-5937.37,-1385.56)">
        <g transform="matrix(1,0,0,1,1,0)">
            <path d="M6010.06,1459.26C6012.06,1459.16 6013.26,1458.66 6013.36,1457.56C6014.06,1448.96 6018.66,1424.96 6022.36,1409.16C6022.46,1408.66 6023.06,1407.26 6023.36,1406.16L6023.36,1405.86C6023.36,1404.66 6021.76,1403.16 6019.96,1403.16C6018.26,1403.16 6018.66,1405.66 6018.06,1407.86C6016.96,1405.56 6013.16,1400.86 6005.26,1400.86C5994.06,1400.86 5985.56,1411.66 5985.56,1422.56C5985.56,1431.76 5990.76,1437.06 5998.36,1437.06C6004.26,1437.06 6010.46,1433.36 6013.96,1427.66L6008.46,1455.96C6008.36,1456.66 6008.06,1457.36 6008.06,1457.96C6008.06,1458.76 6008.46,1459.26 6009.86,1459.26L6010.06,1459.26ZM6016.46,1415.36C6013.16,1425.36 6006.66,1432.66 5998.26,1432.66C5992.96,1432.66 5990.26,1429.16 5990.26,1422.26C5990.26,1414.86 5995.86,1405.06 6005.66,1405.06C6011.46,1405.06 6013.86,1408.96 6014.96,1411.16C6015.26,1411.86 6015.66,1412.16 6016.16,1412.16C6016.56,1412.16 6016.96,1411.86 6017.36,1411.46L6016.46,1415.36ZM5956.56,1473.56C5956.56,1473.16 5956.46,1472.66 5956.06,1472.26C5946.27,1460.56 5941.67,1444.36 5941.67,1430.16C5941.67,1415.96 5946.27,1399.76 5956.06,1388.06C5956.46,1387.66 5956.56,1387.16 5956.56,1386.76C5956.56,1386.06 5956.06,1385.56 5955.36,1385.56C5953.07,1385.56 5936.37,1402.96 5936.37,1430.16C5936.37,1457.26 5953.07,1474.76 5955.36,1474.76C5956.06,1474.76 5956.56,1474.26 5956.56,1473.56ZM6015.06,1474.76C6017.36,1474.76 6034.06,1457.26 6034.06,1430.16C6034.06,1402.96 6017.36,1385.56 6015.06,1385.56C6014.36,1385.56 6013.86,1386.06 6013.86,1386.76C6013.86,1387.16 6013.96,1387.66 6014.36,1388.06C6024.16,1399.76 6028.76,1415.96 6028.76,1430.16C6028.76,1444.36 6024.16,1460.56 6014.36,1472.26C6013.96,1472.66 6013.86,1473.16 6013.86,1473.56C6013.86,1474.26 6014.36,1474.76 6015.06,1474.76ZM5983.26,1405.06C5983.26,1403.66 5981.26,1401.86 5980.06,1401.66L5979.86,1401.66C5978.86,1401.66 5977.76,1402.16 5976.56,1402.26L5955.06,1403.76L5953.97,1403.76C5952.66,1403.76 5951.86,1403.66 5950.97,1403.66C5950.66,1403.66 5950.57,1403.86 5950.57,1404.16C5950.57,1404.76 5951.57,1408.26 5954.47,1408.26C5955.16,1408.26 5955.96,1408.06 5956.76,1408.06L5977.46,1406.26C5968.96,1425.46 5967.36,1430.06 5958.46,1455.56C5958.36,1456.06 5957.96,1456.76 5957.96,1457.46C5957.96,1458.16 5958.36,1458.86 5959.96,1459.06C5960.36,1459.06 5960.76,1459.16 5961.06,1459.16C5962.36,1459.16 5963.06,1458.86 5963.26,1457.96C5963.86,1455.06 5964.46,1452.76 5965.06,1451.06C5969.36,1437.66 5975.36,1422.26 5981.36,1409.16C5981.86,1408.16 5983.06,1406.66 5983.26,1405.36L5983.26,1405.06Z" style="fill-rule:nonzero;"/>
        </g>
    </g>
</svg>
