<?xml version="1.0" encoding="UTF-8" standalone="no"?>
<!DOCTYPE svg PUBLIC "-//W3C//DTD SVG 1.1//EN" "http://www.w3.org/Graphics/SVG/1.1/DTD/svg11.dtd">
<svg width="100%" height="100%" viewBox="0 0 98 90" version="1.1" xmlns="http://www.w3.org/2000/svg" xmlns:xlink="http://www.w3.org/1999/xlink" xml:space="preserve" xmlns:serif="http://www.serif.com/" style="fill-rule:evenodd;clip-rule:evenodd;stroke-linejoin:round;stroke-miterlimit:2;">
    <g transform="matrix(1,0,0,1,-5637.4,-635.561)">
        <g transform="matrix(1,0,0,1,1,0)">
            <path d="M5702.29,653.461C5698.99,658.261 5695.59,664.261 5691.79,671.461C5687.99,678.961 5685.99,685.761 5685.99,692.561C5685.99,701.961 5693.69,709.661 5703.99,709.661C5715.19,709.661 5721.99,701.261 5721.99,690.361C5721.99,680.561 5715.29,673.361 5705.39,673.361C5699.89,673.361 5695.39,675.761 5692.59,679.661C5695.39,673.861 5700.89,662.761 5708.19,654.261C5708.49,653.861 5709.09,653.161 5709.09,652.561C5709.09,651.561 5706.99,650.761 5705.59,650.761C5704.69,650.761 5703.89,651.061 5703.49,651.761L5702.29,653.461ZM5703.99,705.561C5696.19,705.561 5690.69,699.861 5690.69,692.461C5690.69,684.461 5696.39,677.461 5705.29,677.461C5712.69,677.461 5717.19,683.661 5717.19,690.561C5717.19,699.361 5711.59,705.561 5703.99,705.561ZM5654.3,708.661C5658.49,707.661 5664.59,707.661 5666.29,707.661C5676.19,707.661 5682.99,708.261 5682.99,708.261C5683.59,708.261 5683.89,707.861 5683.89,707.161C5683.89,705.761 5682.69,703.561 5681.49,703.561C5680.49,703.561 5677.89,703.661 5676.59,703.661C5673.39,703.661 5670.89,703.561 5667.09,703.561C5664.09,703.561 5659.69,703.761 5656.8,704.061C5659.49,698.661 5664.19,690.561 5670.99,684.161C5678.19,677.361 5683.29,671.661 5683.29,664.261C5683.29,656.461 5677.89,650.861 5669.39,650.861C5661.49,650.861 5656.1,654.961 5652.99,660.861C5652.69,661.261 5652.6,661.761 5652.6,662.261C5652.6,663.161 5653.1,664.061 5654.3,665.061C5654.69,665.461 5654.99,665.561 5655.4,665.561C5656.19,665.561 5656.8,664.761 5657.19,663.661C5658.9,658.861 5663.09,655.061 5669.19,655.061C5675.09,655.061 5678.49,659.261 5678.49,664.261C5678.49,669.561 5674.49,674.561 5668.09,680.761C5661.59,687.061 5656.19,695.761 5653.19,701.561C5652.8,702.361 5652.3,703.061 5651.6,703.961C5651.4,704.261 5651.3,704.661 5651.3,705.161C5651.3,706.761 5652.6,708.661 5653.99,708.661L5654.3,708.661ZM5656.6,723.561C5656.6,723.161 5656.49,722.661 5656.1,722.261C5646.3,710.561 5641.7,694.361 5641.7,680.161C5641.7,665.961 5646.3,649.761 5656.1,638.061C5656.49,637.661 5656.6,637.161 5656.6,636.761C5656.6,636.061 5656.1,635.561 5655.4,635.561C5653.1,635.561 5636.4,652.961 5636.4,680.161C5636.4,707.261 5653.1,724.761 5655.4,724.761C5656.1,724.761 5656.6,724.261 5656.6,723.561ZM5715.09,724.761C5717.39,724.761 5734.09,707.261 5734.09,680.161C5734.09,652.961 5717.39,635.561 5715.09,635.561C5714.39,635.561 5713.89,636.061 5713.89,636.761C5713.89,637.161 5713.99,637.661 5714.39,638.061C5724.19,649.761 5728.79,665.961 5728.79,680.161C5728.79,694.361 5724.19,710.561 5714.39,722.261C5713.99,722.661 5713.89,723.161 5713.89,723.561C5713.89,724.261 5714.39,724.761 5715.09,724.761Z" style="fill-rule:nonzero;"/>
        </g>
    </g>
</svg>
