<?xml version="1.0" encoding="UTF-8" standalone="no"?>
<!DOCTYPE svg PUBLIC "-//W3C//DTD SVG 1.1//EN" "http://www.w3.org/Graphics/SVG/1.1/DTD/svg11.dtd">
<svg width="100%" height="100%" viewBox="0 0 98 90" version="1.1" xmlns="http://www.w3.org/2000/svg" xmlns:xlink="http://www.w3.org/1999/xlink" xml:space="preserve" xmlns:serif="http://www.serif.com/" style="fill-rule:evenodd;clip-rule:evenodd;stroke-linejoin:round;stroke-miterlimit:2;">
    <g transform="matrix(1,0,0,1,-5337.43,-1685.56)">
        <g transform="matrix(1,0,0,1,1,0)">
            <path d="M5373.02,1759.26C5375.02,1759.16 5376.22,1758.66 5376.32,1757.56C5377.02,1748.96 5381.62,1724.96 5385.32,1709.16C5385.42,1708.66 5386.02,1707.26 5386.32,1706.16L5386.32,1705.86C5386.32,1704.66 5384.72,1703.16 5382.92,1703.16C5381.22,1703.16 5381.62,1705.66 5381.02,1707.86C5379.92,1705.56 5376.12,1700.86 5368.22,1700.86C5357.03,1700.86 5348.53,1711.66 5348.53,1722.56C5348.53,1731.76 5353.73,1737.06 5361.32,1737.06C5367.22,1737.06 5373.42,1733.36 5376.92,1727.66L5371.42,1755.96C5371.32,1756.66 5371.02,1757.36 5371.02,1757.96C5371.02,1758.76 5371.42,1759.26 5372.82,1759.26L5373.02,1759.26ZM5407.22,1726.86C5414.12,1725.06 5419.32,1720.06 5419.32,1713.26C5419.32,1705.46 5413.52,1700.86 5404.82,1700.86C5394.62,1700.86 5387.82,1707.56 5387.82,1709.66C5387.82,1711.46 5389.42,1713.06 5390.22,1713.06C5391.02,1713.06 5391.62,1712.06 5391.92,1711.76C5395.92,1707.16 5400.02,1705.06 5404.92,1705.06C5411.02,1705.06 5414.62,1708.36 5414.62,1713.76C5414.62,1721.26 5404.32,1725.56 5396.62,1726.06C5396.02,1726.16 5395.72,1726.66 5395.72,1727.26C5395.72,1728.56 5396.82,1730.46 5398.22,1730.46C5398.42,1730.46 5398.52,1730.36 5398.72,1730.36C5398.82,1730.36 5401.92,1729.66 5404.82,1729.66C5411.92,1729.66 5417.02,1734.26 5417.02,1740.86C5417.02,1748.26 5412.72,1755.36 5401.82,1755.36C5396.22,1755.36 5392.72,1752.56 5389.32,1748.36C5389.02,1748.06 5388.82,1747.86 5388.52,1747.86C5387.32,1747.86 5386.22,1749.96 5386.22,1751.56C5386.22,1752.26 5386.32,1752.76 5386.72,1753.16C5391.02,1757.36 5395.82,1759.66 5401.82,1759.66C5416.02,1759.66 5421.82,1750.96 5421.82,1740.76C5421.82,1732.16 5415.42,1726.86 5408.22,1726.86L5407.22,1726.86ZM5379.42,1715.36C5376.12,1725.36 5369.62,1732.66 5361.23,1732.66C5355.93,1732.66 5353.23,1729.16 5353.23,1722.26C5353.23,1714.86 5358.82,1705.06 5368.62,1705.06C5374.42,1705.06 5376.82,1708.96 5377.92,1711.16C5378.22,1711.86 5378.62,1712.16 5379.12,1712.16C5379.52,1712.16 5379.92,1711.86 5380.32,1711.46L5379.42,1715.36ZM5356.63,1773.56C5356.63,1773.16 5356.53,1772.66 5356.13,1772.26C5346.33,1760.56 5341.73,1744.36 5341.73,1730.16C5341.73,1715.96 5346.33,1699.76 5356.13,1688.06C5356.53,1687.66 5356.63,1687.16 5356.63,1686.76C5356.63,1686.06 5356.13,1685.56 5355.43,1685.56C5353.13,1685.56 5336.43,1702.96 5336.43,1730.16C5336.43,1757.26 5353.13,1774.76 5355.43,1774.76C5356.13,1774.76 5356.63,1774.26 5356.63,1773.56ZM5415.12,1774.76C5417.42,1774.76 5434.12,1757.26 5434.12,1730.16C5434.12,1702.96 5417.42,1685.56 5415.12,1685.56C5414.42,1685.56 5413.92,1686.06 5413.92,1686.76C5413.92,1687.16 5414.02,1687.66 5414.42,1688.06C5424.22,1699.76 5428.82,1715.96 5428.82,1730.16C5428.82,1744.36 5424.22,1760.56 5414.42,1772.26C5414.02,1772.66 5413.92,1773.16 5413.92,1773.56C5413.92,1774.26 5414.42,1774.76 5415.12,1774.76Z" style="fill-rule:nonzero;"/>
        </g>
    </g>
</svg>
