<?xml version="1.0" encoding="UTF-8" standalone="no"?>
<!DOCTYPE svg PUBLIC "-//W3C//DTD SVG 1.1//EN" "http://www.w3.org/Graphics/SVG/1.1/DTD/svg11.dtd">
<svg width="100%" height="100%" viewBox="0 0 63 75" version="1.1" xmlns="http://www.w3.org/2000/svg" xmlns:xlink="http://www.w3.org/1999/xlink" xml:space="preserve" xmlns:serif="http://www.serif.com/" style="fill-rule:evenodd;clip-rule:evenodd;stroke-linejoin:round;stroke-miterlimit:2;">
    <g transform="matrix(1,0,0,1,-4435.41,-2771.27)">
        <g transform="matrix(1.41414,0,0,1.41429,-1534.59,-78.5653)">
            <path d="M4241.51,2059.79C4241.51,2062.12 4241.37,2064.67 4241.37,2065.73C4241.37,2066.93 4243.28,2067.71 4244.62,2067.71C4245.33,2067.71 4245.82,2067.5 4245.82,2067C4245.82,2065.45 4245.61,2062.62 4245.61,2059.79C4256.43,2059.01 4266.19,2050.25 4266.19,2039.43C4266.19,2029.6 4259.33,2020.97 4245.68,2020.83C4245.68,2019.21 4245.75,2017.79 4245.75,2017.01C4245.75,2015.81 4243.85,2015.03 4242.5,2015.03C4241.8,2015.03 4241.3,2015.25 4241.3,2015.74C4241.3,2017.01 4241.44,2019.06 4241.51,2021.33C4238.26,2021.96 4234.86,2023.31 4233.45,2024.44C4233.1,2023.73 4232.6,2023.45 4232.04,2023.45C4231.61,2023.45 4231.12,2023.66 4230.55,2024.08C4226.45,2027.12 4221.64,2033.06 4221.64,2041.48C4221.71,2052.51 4230.13,2058.94 4241.51,2059.79ZM4245.61,2024.44C4256.08,2024.58 4261.95,2030.87 4261.95,2039C4261.95,2048.55 4254.45,2055.2 4245.61,2056.12L4245.61,2024.44ZM4241.51,2056.18C4234.44,2055.62 4225.89,2051.8 4225.89,2041.55C4225.89,2031.65 4233.52,2026.06 4241.51,2024.72L4241.51,2056.18Z" style="fill-rule:nonzero;"/>
        </g>
    </g>
</svg>
