<?xml version="1.0" encoding="UTF-8" standalone="no"?>
<!DOCTYPE svg PUBLIC "-//W3C//DTD SVG 1.1//EN" "http://www.w3.org/Graphics/SVG/1.1/DTD/svg11.dtd">
<svg width="100%" height="100%" viewBox="0 0 61 72" version="1.1" xmlns="http://www.w3.org/2000/svg" xmlns:xlink="http://www.w3.org/1999/xlink" xml:space="preserve" xmlns:serif="http://www.serif.com/" style="fill-rule:evenodd;clip-rule:evenodd;stroke-linejoin:round;stroke-miterlimit:2;">
    <g transform="matrix(1,0,0,1,-4736.38,-2622.77)">
        <g transform="matrix(1.41414,0,0,1.41429,-1534.59,-78.5653)">
            <path d="M4465.09,1952.67C4465.09,1955.14 4464.95,1957.83 4464.95,1958.96C4464.95,1960.16 4466.86,1960.94 4468.2,1960.94C4468.84,1960.94 4469.4,1960.73 4469.4,1960.24C4469.4,1958.61 4469.19,1955.64 4469.19,1952.74L4469.19,1914.06C4469.68,1914.06 4470.25,1913.99 4470.82,1913.99C4473.01,1913.99 4475.27,1914.21 4476.19,1914.21C4476.75,1914.21 4476.97,1913.71 4476.97,1913.14C4476.97,1911.87 4476.05,1910.03 4474.92,1910.03L4474.7,1910.03C4473.57,1910.25 4471.03,1910.46 4468.84,1910.6L4442.53,1911.87C4441.82,1911.87 4441.05,1911.94 4440.27,1911.94C4438.08,1911.94 4435.96,1911.8 4435.25,1911.8C4434.68,1911.8 4434.47,1912.23 4434.47,1912.86C4434.47,1914.06 4435.46,1915.97 4436.66,1915.97L4436.73,1915.97C4437.65,1915.9 4439.99,1915.55 4442.25,1915.34L4442.25,1952.67C4442.25,1955.14 4442.11,1957.83 4442.11,1958.96C4442.11,1960.16 4444.02,1960.94 4445.36,1960.94C4446,1960.94 4446.56,1960.73 4446.56,1960.24C4446.56,1958.61 4446.35,1955.64 4446.35,1952.74L4446.35,1915.2L4465.09,1914.28L4465.09,1952.67Z" style="fill-rule:nonzero;"/>
        </g>
    </g>
</svg>
