<?xml version="1.0" encoding="UTF-8" standalone="no"?>
<!DOCTYPE svg PUBLIC "-//W3C//DTD SVG 1.1//EN" "http://www.w3.org/Graphics/SVG/1.1/DTD/svg11.dtd">
<svg width="100%" height="100%" viewBox="0 0 52 49" version="1.1" xmlns="http://www.w3.org/2000/svg" xmlns:xlink="http://www.w3.org/1999/xlink" xml:space="preserve" xmlns:serif="http://www.serif.com/" style="fill-rule:evenodd;clip-rule:evenodd;stroke-linejoin:round;stroke-miterlimit:2;">
    <g transform="matrix(1,0,0,1,-4358.52,-1593.87)">
        <g transform="matrix(1.41414,0,0,1.41429,-1534.59,-78.5653)">
            <path d="M4201.99,1193.56C4200.01,1193.7 4198.45,1193.77 4196.97,1193.77L4187.07,1193.77L4187.07,1189.32C4187.07,1187.62 4187.14,1185.07 4187.28,1183.94L4187.28,1183.8C4187.28,1183.02 4186.01,1182.53 4184.95,1182.53C4184.17,1182.53 4183.53,1182.81 4183.53,1183.59C4183.6,1185 4183.67,1187.12 4183.67,1189.39L4183.67,1193.77L4174.13,1193.77C4171.86,1193.77 4169.74,1193.7 4168.33,1193.63C4167.55,1193.63 4167.27,1194.27 4167.27,1195.12C4167.27,1196.17 4167.76,1197.38 4168.54,1197.38L4168.68,1197.38C4169.82,1197.24 4172.36,1197.16 4174.06,1197.16L4183.67,1197.16L4183.67,1203.46C4183.67,1204.59 4183.6,1206.5 4183.46,1208.48L4183.46,1208.55C4183.46,1209.4 4184.59,1209.96 4185.65,1209.96C4186.43,1209.96 4187.14,1209.61 4187.14,1208.9C4187.14,1206.71 4187.07,1204.73 4187.07,1203.39L4187.07,1197.16L4196.9,1197.16C4198.38,1197.16 4200.43,1197.31 4202.62,1197.31C4203.33,1197.31 4203.61,1196.67 4203.61,1195.96C4203.61,1194.9 4202.98,1193.56 4202.06,1193.56L4201.99,1193.56ZM4201.99,1212.93C4200.01,1213.07 4198.45,1213.14 4196.97,1213.14L4174.13,1213.14C4171.86,1213.14 4169.74,1213.07 4168.33,1213C4167.55,1213 4167.27,1213.64 4167.27,1214.49C4167.27,1215.55 4167.76,1216.75 4168.54,1216.75L4168.68,1216.75C4169.82,1216.61 4172.36,1216.54 4174.06,1216.54L4196.9,1216.54C4198.38,1216.54 4200.43,1216.68 4202.62,1216.68C4203.33,1216.68 4203.61,1216.04 4203.61,1215.34C4203.61,1214.28 4202.98,1212.93 4202.06,1212.93L4201.99,1212.93Z" style="fill-rule:nonzero;"/>
        </g>
    </g>
</svg>
