<?xml version="1.0" encoding="UTF-8" standalone="no"?>
<!DOCTYPE svg PUBLIC "-//W3C//DTD SVG 1.1//EN" "http://www.w3.org/Graphics/SVG/1.1/DTD/svg11.dtd">
<svg width="100%" height="100%" viewBox="0 0 63 73" version="1.1" xmlns="http://www.w3.org/2000/svg" xmlns:xlink="http://www.w3.org/1999/xlink" xml:space="preserve" xmlns:serif="http://www.serif.com/" style="fill-rule:evenodd;clip-rule:evenodd;stroke-linejoin:round;stroke-miterlimit:2;">
    <g transform="matrix(1,0,0,1,-4125.54,-1572.57)">
        <g transform="matrix(1.41414,0,0,1.41429,-1534.59,-78.5653)">
            <path d="M4033,1194.83C4034.91,1194.83 4036.96,1194.83 4038.16,1194.9C4038.72,1194.9 4038.94,1194.55 4038.94,1194.05C4038.94,1192.92 4037.88,1191.15 4036.74,1191.15L4036.67,1191.15C4035.61,1191.23 4032.93,1191.44 4030.81,1191.51L4016.31,1191.93C4016.1,1189.32 4015.89,1186.56 4015.89,1184.15C4015.89,1178.22 4018.93,1171.07 4025.71,1171.07C4031.51,1171.07 4035.47,1172.56 4038.65,1175.67C4038.94,1175.88 4039.22,1176.02 4039.57,1176.02C4040.7,1176.02 4042.19,1174.68 4042.19,1173.55C4042.19,1172.56 4036.32,1167.47 4025.79,1167.47C4017.72,1167.47 4011.93,1174.12 4011.93,1184.01C4011.93,1186.56 4012.21,1189.39 4012.42,1192.07L4009.81,1192.07C4007.61,1192.07 4004.93,1192 4004.08,1192C4003.58,1192 4003.37,1192.36 4003.37,1192.92C4003.37,1194.05 4004.29,1195.75 4005.42,1195.75L4005.56,1195.75C4006.91,1195.61 4009.31,1195.47 4011.43,1195.4L4012.78,1195.33C4012.99,1197.02 4013.13,1198.44 4013.13,1199.43C4013.13,1203.74 4012.56,1208.41 4010.72,1211.94C4009.81,1213.78 4008.18,1214.98 4005.14,1214.98L4004.5,1214.98C4003.02,1214.98 4002.52,1217.32 4002.52,1218.02C4002.52,1218.8 4003.16,1218.87 4004.57,1218.87C4007.9,1218.87 4010.94,1216.61 4015.39,1216.61C4023.73,1216.61 4031.44,1218.87 4037.59,1218.87C4042.54,1218.87 4047.07,1215.41 4047.07,1213.92C4047.07,1213.43 4046.64,1213.14 4046.08,1213.14C4045.65,1213.14 4045.16,1213.29 4044.59,1213.57C4042.47,1214.7 4039.08,1215.34 4037.38,1215.34C4032.86,1215.34 4019.92,1213.07 4014.97,1213.07L4014.05,1213.07C4016.1,1209.33 4016.88,1203.67 4016.88,1198.93C4016.88,1197.94 4016.81,1196.67 4016.66,1195.26L4030.88,1194.83L4033,1194.83Z" style="fill-rule:nonzero;"/>
        </g>
    </g>
</svg>
