<?xml version="1.0" encoding="UTF-8" standalone="no"?>
<!DOCTYPE svg PUBLIC "-//W3C//DTD SVG 1.1//EN" "http://www.w3.org/Graphics/SVG/1.1/DTD/svg11.dtd">
<svg width="100%" height="100%" viewBox="0 0 56 73" version="1.1" xmlns="http://www.w3.org/2000/svg" xmlns:xlink="http://www.w3.org/1999/xlink" xml:space="preserve" xmlns:serif="http://www.serif.com/" style="fill-rule:evenodd;clip-rule:evenodd;stroke-linejoin:round;stroke-miterlimit:2;">
    <g transform="matrix(1,0,0,1,-4638.99,-2771.97)">
        <g transform="matrix(1.41414,0,0,1.41429,-1534.59,-78.5653)">
            <path d="M4382.93,2058.73C4382.93,2061.21 4382.78,2063.89 4382.78,2065.02C4382.78,2066.23 4384.69,2067 4386.04,2067C4386.74,2067 4387.24,2066.79 4387.24,2066.3C4387.24,2064.67 4387.03,2061.7 4387.03,2058.8L4387.03,2052.23C4397.63,2051.16 4404.42,2044.52 4404.42,2034.97L4404.42,2025C4404.42,2022.53 4404.63,2019.91 4404.63,2018.78C4404.63,2017.65 4402.8,2016.94 4401.45,2016.94C4400.67,2016.94 4400.04,2017.23 4400.04,2017.72C4400.04,2018.85 4400.32,2023.02 4400.32,2024.93L4400.32,2034.12C4400.32,2041.62 4395.16,2047.28 4387.03,2048.41L4387.03,2023.8C4387.03,2021.33 4387.17,2018.64 4387.17,2017.51C4387.17,2016.31 4385.26,2015.53 4383.92,2015.53C4383.21,2015.53 4382.71,2015.74 4382.71,2016.24C4382.71,2017.86 4382.93,2020.83 4382.93,2023.73L4382.93,2048.62C4374.51,2048.34 4369.92,2044.66 4369.92,2036.39L4369.92,2025.71C4369.92,2023.24 4370.06,2020.05 4370.06,2018.92C4370.06,2017.79 4368.29,2017.08 4366.95,2017.08C4366.17,2017.08 4365.6,2017.37 4365.6,2017.86C4365.6,2019.49 4365.82,2022.67 4365.82,2025.57L4365.82,2037.24C4365.82,2046.78 4371.19,2052.08 4382.93,2052.37L4382.93,2058.73Z" style="fill-rule:nonzero;"/>
        </g>
    </g>
</svg>
