<?xml version="1.0" encoding="UTF-8" standalone="no"?>
<!DOCTYPE svg PUBLIC "-//W3C//DTD SVG 1.1//EN" "http://www.w3.org/Graphics/SVG/1.1/DTD/svg11.dtd">
<svg width="100%" height="100%" viewBox="0 0 96 96" version="1.1" xmlns="http://www.w3.org/2000/svg" xmlns:xlink="http://www.w3.org/1999/xlink" xml:space="preserve" xmlns:serif="http://www.serif.com/" style="fill-rule:evenodd;clip-rule:evenodd;stroke-linejoin:round;stroke-miterlimit:2;">
    <g transform="matrix(1,0,0,1,-1709.63,-2723.28)">
        <g transform="matrix(1,0,0,1,-110.019,-3591.86)">
            <path d="M1915.25,6362.94C1915.25,6336.55 1893.85,6315.15 1867.45,6315.15C1841.05,6315.15 1819.65,6336.55 1819.65,6362.94C1819.65,6389.35 1841.05,6410.65 1867.45,6410.65C1893.85,6410.65 1915.25,6389.35 1915.25,6362.94ZM1911.15,6362.94C1911.15,6387.05 1891.55,6406.55 1867.45,6406.55C1843.35,6406.55 1823.75,6387.05 1823.75,6362.94C1823.75,6338.85 1843.35,6319.24 1867.45,6319.24C1891.55,6319.24 1911.15,6338.85 1911.15,6362.94ZM1881.35,6386.74C1889.05,6381.35 1892.55,6371.44 1892.55,6360.55C1892.55,6344.24 1883.55,6332.35 1869.25,6332.35C1862.95,6332.35 1858.35,6334.44 1854.55,6337.85C1854.05,6337.35 1853.25,6336.85 1852.35,6336.85C1849.25,6336.85 1840.85,6348.35 1840.85,6362.65C1840.85,6379.15 1848.75,6391.24 1866.05,6391.24C1870.55,6391.24 1874.35,6390.35 1877.55,6388.94C1884.55,6395.24 1885.15,6395.65 1889.95,6395.65C1891.75,6395.65 1892.65,6395.35 1892.65,6394.85C1892.65,6394.24 1891.55,6393.35 1889.05,6392.35C1887.65,6391.85 1885.25,6390.24 1883.05,6388.15L1881.35,6386.74ZM1874.05,6385.55C1871.55,6386.44 1868.65,6386.85 1865.45,6386.85C1850.95,6386.85 1845.45,6375.55 1845.45,6362.55C1845.45,6345.05 1859.25,6336.44 1868.75,6336.44C1882.25,6336.44 1887.85,6348.74 1887.85,6359.94C1887.85,6369.35 1885.25,6378.65 1877.95,6383.44C1874.85,6380.35 1871.55,6377.05 1870.75,6376.05C1869.75,6374.94 1869.55,6374.05 1867.75,6373.74L1867.55,6373.74C1866.25,6373.74 1863.85,6375.05 1863.85,6375.94C1863.85,6375.94 1863.95,6376.05 1863.95,6376.15C1864.35,6377.05 1864.95,6376.85 1866.65,6378.44L1874.05,6385.55Z" style="fill-rule:nonzero;"/>
        </g>
    </g>
</svg>
