<?xml version="1.0" encoding="UTF-8" standalone="no"?>
<!DOCTYPE svg PUBLIC "-//W3C//DTD SVG 1.1//EN" "http://www.w3.org/Graphics/SVG/1.1/DTD/svg11.dtd">
<svg width="100%" height="100%" viewBox="0 0 96 96" version="1.1" xmlns="http://www.w3.org/2000/svg" xmlns:xlink="http://www.w3.org/1999/xlink" xml:space="preserve" xmlns:serif="http://www.serif.com/" style="fill-rule:evenodd;clip-rule:evenodd;stroke-linejoin:round;stroke-miterlimit:2;">
    <g transform="matrix(1,0,0,1,-2109.63,-3923.28)">
        <g transform="matrix(1,0,0,1,-110.019,-3591.86)">
            <path d="M2315.25,7562.94C2315.25,7536.55 2293.85,7515.15 2267.45,7515.15C2241.05,7515.15 2219.65,7536.55 2219.65,7562.94C2219.65,7589.35 2241.05,7610.65 2267.45,7610.65C2293.85,7610.65 2315.25,7589.35 2315.25,7562.94ZM2283.75,7586.85C2285.65,7588.15 2288.25,7590.44 2289.55,7590.94C2293.05,7592.24 2294.15,7594.05 2294.15,7594.85C2294.15,7595.74 2293.05,7597.15 2289.95,7597.15C2284.55,7597.15 2283.15,7596.15 2277.25,7590.65C2274.05,7591.94 2270.35,7592.74 2266.05,7592.74C2247.65,7592.74 2239.35,7579.65 2239.35,7562.65C2239.35,7549.35 2247.25,7535.35 2252.35,7535.35C2253.15,7535.35 2253.85,7535.55 2254.45,7535.94C2258.35,7532.74 2263.05,7530.85 2269.25,7530.85C2284.65,7530.85 2294.05,7543.74 2294.05,7560.55C2294.05,7570.94 2290.95,7580.85 2283.75,7586.85ZM2278.15,7581.44C2284.05,7576.94 2286.35,7568.74 2286.35,7559.94C2286.35,7549.05 2280.95,7537.94 2268.75,7537.94C2259.95,7537.94 2246.95,7545.94 2246.95,7562.55C2246.95,7575.24 2252.25,7585.35 2265.45,7585.35C2267.55,7585.35 2269.45,7585.15 2271.15,7584.85C2266.25,7580.15 2265.15,7579.05 2264.65,7578.74C2263.95,7578.15 2262.65,7577.85 2262.65,7577.15C2262.65,7575.85 2264.75,7572.24 2267.55,7572.24C2269.35,7572.24 2270.05,7572.85 2271.85,7575.05C2272.65,7575.94 2275.35,7578.74 2278.15,7581.44Z" style="fill-rule:nonzero;"/>
        </g>
    </g>
</svg>
