<?xml version="1.0" encoding="UTF-8" standalone="no"?>
<!DOCTYPE svg PUBLIC "-//W3C//DTD SVG 1.1//EN" "http://www.w3.org/Graphics/SVG/1.1/DTD/svg11.dtd">
<svg width="100%" height="100%" viewBox="0 0 89 89" version="1.1" xmlns="http://www.w3.org/2000/svg" xmlns:xlink="http://www.w3.org/1999/xlink" xml:space="preserve" xmlns:serif="http://www.serif.com/" style="fill-rule:evenodd;clip-rule:evenodd;stroke-linejoin:round;stroke-miterlimit:2;">
    <g transform="matrix(1,0,0,1,-658.729,-2521.63)">
        <g transform="matrix(1.41414,0,0,1.41429,-177.055,-770.755)">
            <path d="M653.382,2390.31L653.382,2327.95L591.019,2327.95L591.019,2390.31L653.382,2390.31ZM633.726,2376.1C635.069,2377.02 636.908,2378.65 637.827,2379C640.301,2379.92 641.079,2381.19 641.079,2381.76C641.079,2382.39 640.301,2383.39 638.11,2383.39C634.291,2383.39 633.301,2382.68 629.13,2378.79C626.867,2379.71 624.251,2380.27 621.211,2380.27C608.2,2380.27 602.332,2371.01 602.332,2358.99C602.332,2349.59 607.918,2339.69 611.524,2339.69C612.089,2339.69 612.584,2339.83 613.009,2340.11C615.766,2337.85 619.089,2336.51 623.473,2336.51C634.362,2336.51 641.009,2345.63 641.009,2357.51C641.009,2364.86 638.817,2371.86 633.726,2376.1ZM629.766,2372.28C633.938,2369.1 635.564,2363.3 635.564,2357.08C635.564,2349.38 631.746,2341.53 623.12,2341.53C616.897,2341.53 607.705,2347.18 607.705,2358.92C607.705,2367.9 611.453,2375.04 620.786,2375.04C622.271,2375.04 623.615,2374.9 624.817,2374.69C621.352,2371.36 620.574,2370.59 620.221,2370.38C619.726,2369.95 618.806,2369.74 618.806,2369.24C618.806,2368.32 620.291,2365.78 622.271,2365.78C623.544,2365.78 624.039,2366.2 625.312,2367.76C625.877,2368.39 627.786,2370.38 629.766,2372.28Z" style="fill-rule:nonzero;"/>
        </g>
    </g>
</svg>
