<?xml version="1.0" encoding="UTF-8" standalone="no"?>
<!DOCTYPE svg PUBLIC "-//W3C//DTD SVG 1.1//EN" "http://www.w3.org/Graphics/SVG/1.1/DTD/svg11.dtd">
<svg width="100%" height="100%" viewBox="0 0 89 89" version="1.1" xmlns="http://www.w3.org/2000/svg" xmlns:xlink="http://www.w3.org/1999/xlink" xml:space="preserve" xmlns:serif="http://www.serif.com/" style="fill-rule:evenodd;clip-rule:evenodd;stroke-linejoin:round;stroke-miterlimit:2;">
    <g transform="matrix(1,0,0,1,-2002.46,-2492.27)">
        <g transform="matrix(1.41414,0,0,1.41429,-1052.39,-837.704)">
            <path d="M2217.07,2416.89C2220.46,2416.89 2222.58,2414.35 2222.58,2411.38L2222.58,2360.05C2222.58,2356.58 2220.11,2354.53 2217.07,2354.53L2165.73,2354.53C2162.27,2354.53 2160.22,2356.86 2160.22,2360.05L2160.22,2411.38C2160.22,2414.56 2162.69,2416.89 2165.73,2416.89L2217.07,2416.89ZM2202.92,2402.68C2204.27,2403.6 2206.11,2405.23 2207.02,2405.58C2209.5,2406.5 2210.28,2407.77 2210.28,2408.34C2210.28,2408.97 2209.5,2409.96 2207.31,2409.96C2203.49,2409.96 2202.5,2409.26 2198.33,2405.37C2196.07,2406.29 2193.45,2406.85 2190.41,2406.85C2177.4,2406.85 2171.53,2397.59 2171.53,2385.57C2171.53,2376.17 2177.12,2366.27 2180.72,2366.27C2181.29,2366.27 2181.78,2366.41 2182.21,2366.69C2184.96,2364.43 2188.29,2363.09 2192.67,2363.09C2203.56,2363.09 2210.21,2372.21 2210.21,2384.09C2210.21,2391.44 2208.01,2398.44 2202.92,2402.68ZM2198.96,2398.86C2203.14,2395.68 2204.76,2389.88 2204.76,2383.66C2204.76,2375.95 2200.94,2368.11 2192.32,2368.11C2186.1,2368.11 2176.9,2373.76 2176.9,2385.5C2176.9,2394.48 2180.65,2401.62 2189.98,2401.62C2191.47,2401.62 2192.81,2401.48 2194.01,2401.27C2190.55,2397.94 2189.77,2397.17 2189.42,2396.95C2188.92,2396.53 2188,2396.32 2188,2395.82C2188,2394.9 2189.49,2392.36 2191.47,2392.36C2192.74,2392.36 2193.24,2392.78 2194.51,2394.34C2195.08,2394.97 2196.98,2396.95 2198.96,2398.86Z" style="fill-rule:nonzero;"/>
        </g>
    </g>
</svg>
