<?xml version="1.0" encoding="UTF-8" standalone="no"?>
<!DOCTYPE svg PUBLIC "-//W3C//DTD SVG 1.1//EN" "http://www.w3.org/Graphics/SVG/1.1/DTD/svg11.dtd">
<svg width="100%" height="100%" viewBox="0 0 98 90" version="1.1" xmlns="http://www.w3.org/2000/svg" xmlns:xlink="http://www.w3.org/1999/xlink" xml:space="preserve" xmlns:serif="http://www.serif.com/" style="fill-rule:evenodd;clip-rule:evenodd;stroke-linejoin:round;stroke-miterlimit:2;">
    <g transform="matrix(1,0,0,1,-5737.39,-2435.56)">
        <g transform="matrix(1,0,0,1,1,0)">
            <path d="M5799.18,2503.96C5806.88,2498.56 5810.38,2488.66 5810.38,2477.76C5810.38,2461.46 5801.38,2449.56 5787.08,2449.56C5780.78,2449.56 5776.18,2451.66 5772.38,2455.06C5771.88,2454.56 5771.08,2454.06 5770.18,2454.06C5767.08,2454.06 5758.68,2465.56 5758.68,2479.86C5758.68,2496.36 5766.58,2508.46 5783.88,2508.46C5788.38,2508.46 5792.18,2507.56 5795.38,2506.16C5802.38,2512.46 5802.98,2512.86 5807.78,2512.86C5809.58,2512.86 5810.48,2512.56 5810.48,2512.06C5810.48,2511.46 5809.38,2510.56 5806.88,2509.56C5805.48,2509.06 5803.08,2507.46 5800.88,2505.36L5799.18,2503.96ZM5791.88,2502.76C5789.38,2503.66 5786.48,2504.06 5783.28,2504.06C5768.78,2504.06 5763.28,2492.76 5763.28,2479.76C5763.28,2462.26 5777.08,2453.66 5786.58,2453.66C5800.08,2453.66 5805.68,2465.96 5805.68,2477.16C5805.68,2486.56 5803.08,2495.86 5795.78,2500.66C5792.68,2497.56 5789.38,2494.26 5788.58,2493.26C5787.58,2492.16 5787.38,2491.26 5785.58,2490.96L5785.38,2490.96C5784.08,2490.96 5781.68,2492.26 5781.68,2493.16C5781.68,2493.16 5781.78,2493.26 5781.78,2493.36C5782.18,2494.26 5782.78,2494.06 5784.48,2495.66L5791.88,2502.76ZM5756.59,2523.56C5756.59,2523.16 5756.48,2522.66 5756.09,2522.26C5746.29,2510.56 5741.69,2494.36 5741.69,2480.16C5741.69,2465.96 5746.29,2449.76 5756.09,2438.06C5756.48,2437.66 5756.59,2437.16 5756.59,2436.76C5756.59,2436.06 5756.09,2435.56 5755.39,2435.56C5753.09,2435.56 5736.39,2452.96 5736.39,2480.16C5736.39,2507.26 5753.09,2524.76 5755.39,2524.76C5756.09,2524.76 5756.59,2524.26 5756.59,2523.56ZM5815.08,2524.76C5817.38,2524.76 5834.08,2507.26 5834.08,2480.16C5834.08,2452.96 5817.38,2435.56 5815.08,2435.56C5814.38,2435.56 5813.88,2436.06 5813.88,2436.76C5813.88,2437.16 5813.98,2437.66 5814.38,2438.06C5824.18,2449.76 5828.78,2465.96 5828.78,2480.16C5828.78,2494.36 5824.18,2510.56 5814.38,2522.26C5813.98,2522.66 5813.88,2523.16 5813.88,2523.56C5813.88,2524.26 5814.38,2524.76 5815.08,2524.76Z" style="fill-rule:nonzero;"/>
        </g>
    </g>
</svg>
