<?xml version="1.0" encoding="UTF-8" standalone="no"?>
<!DOCTYPE svg PUBLIC "-//W3C//DTD SVG 1.1//EN" "http://www.w3.org/Graphics/SVG/1.1/DTD/svg11.dtd">
<svg width="100%" height="100%" viewBox="0 0 89 89" version="1.1" xmlns="http://www.w3.org/2000/svg" xmlns:xlink="http://www.w3.org/1999/xlink" xml:space="preserve" xmlns:serif="http://www.serif.com/" style="fill-rule:evenodd;clip-rule:evenodd;stroke-linejoin:round;stroke-miterlimit:2;">
    <g transform="matrix(1,0,0,1,-3293.3,-2481.51)">
        <g transform="matrix(1.41414,0,0,1.41429,-1389.33,-1046.26)">
            <path d="M3368.14,2556.75C3371.53,2556.75 3373.65,2554.2 3373.65,2551.23L3373.65,2499.9C3373.65,2496.43 3371.18,2494.39 3368.14,2494.39L3316.81,2494.39C3313.34,2494.39 3311.29,2496.72 3311.29,2499.9L3311.29,2551.23C3311.29,2554.41 3313.76,2556.75 3316.81,2556.75L3368.14,2556.75ZM3370.76,2551.52C3370.76,2553.07 3369.69,2553.85 3368.49,2553.85L3316.45,2553.85C3314.97,2553.85 3314.19,2552.79 3314.19,2551.52L3314.19,2499.55C3314.19,2498.13 3315.11,2497.28 3316.45,2497.28L3368.49,2497.28C3369.91,2497.28 3370.76,2498.34 3370.76,2499.55L3370.76,2551.52ZM3352.3,2542.47C3357.74,2538.65 3360.22,2531.65 3360.22,2523.94C3360.22,2512.41 3353.86,2504 3343.74,2504C3339.29,2504 3336.04,2505.49 3333.35,2507.89C3333,2507.54 3332.43,2507.18 3331.8,2507.18C3329.6,2507.18 3323.66,2515.31 3323.66,2525.43C3323.66,2537.09 3329.25,2545.65 3341.48,2545.65C3344.66,2545.65 3347.35,2545.01 3349.61,2544.02C3354.56,2548.48 3354.99,2548.76 3358.38,2548.76C3359.65,2548.76 3360.29,2548.55 3360.29,2548.19C3360.29,2547.77 3359.51,2547.13 3357.74,2546.43C3356.76,2546.07 3355.06,2544.94 3353.5,2543.45L3352.3,2542.47ZM3347.14,2541.62C3345.37,2542.25 3343.32,2542.54 3341.06,2542.54C3330.81,2542.54 3326.92,2534.55 3326.92,2525.35C3326.92,2512.98 3336.67,2506.9 3343.39,2506.9C3352.94,2506.9 3356.9,2515.6 3356.9,2523.52C3356.9,2530.16 3355.06,2536.74 3349.9,2540.13C3347.7,2537.94 3345.37,2535.61 3344.81,2534.9C3344.1,2534.12 3343.96,2533.49 3342.68,2533.27L3342.54,2533.27C3341.62,2533.27 3339.93,2534.19 3339.93,2534.83C3339.93,2534.83 3340,2534.9 3340,2534.97C3340.28,2535.61 3340.7,2535.47 3341.91,2536.6L3347.14,2541.62Z" style="fill-rule:nonzero;"/>
        </g>
    </g>
</svg>
