<?xml version="1.0" encoding="UTF-8" standalone="no"?>
<!DOCTYPE svg PUBLIC "-//W3C//DTD SVG 1.1//EN" "http://www.w3.org/Graphics/SVG/1.1/DTD/svg11.dtd">
<svg width="100%" height="100%" viewBox="0 0 89 89" version="1.1" xmlns="http://www.w3.org/2000/svg" xmlns:xlink="http://www.w3.org/1999/xlink" xml:space="preserve" xmlns:serif="http://www.serif.com/" style="fill-rule:evenodd;clip-rule:evenodd;stroke-linejoin:round;stroke-miterlimit:2;">
    <g transform="matrix(1,0,0,1,-2440.22,-1938.66)">
        <g transform="matrix(1,0,0,1,-1072.97,-2735.12)">
            <path d="M3601.38,4761.99L3601.38,4673.79L3513.18,4673.79L3513.18,4761.99L3601.38,4761.99ZM3597.28,4757.89L3517.28,4757.89L3517.28,4677.89L3597.28,4677.89L3597.28,4757.89ZM3571.18,4741.79C3578.88,4736.39 3582.38,4726.49 3582.38,4715.59C3582.38,4699.29 3573.38,4687.39 3559.08,4687.39C3552.78,4687.39 3548.18,4689.49 3544.38,4692.89C3543.88,4692.39 3543.08,4691.89 3542.18,4691.89C3539.08,4691.89 3530.68,4703.39 3530.68,4717.69C3530.68,4734.19 3538.58,4746.29 3555.88,4746.29C3560.38,4746.29 3564.18,4745.39 3567.38,4743.99C3574.38,4750.29 3574.98,4750.69 3579.78,4750.69C3581.58,4750.69 3582.48,4750.39 3582.48,4749.89C3582.48,4749.29 3581.38,4748.39 3578.88,4747.39C3577.48,4746.89 3575.08,4745.29 3572.88,4743.19L3571.18,4741.79ZM3563.88,4740.59C3561.38,4741.49 3558.48,4741.89 3555.28,4741.89C3540.78,4741.89 3535.28,4730.59 3535.28,4717.59C3535.28,4700.09 3549.08,4691.49 3558.58,4691.49C3572.08,4691.49 3577.68,4703.79 3577.68,4714.99C3577.68,4724.39 3575.08,4733.69 3567.78,4738.49C3564.68,4735.39 3561.38,4732.09 3560.58,4731.09C3559.58,4729.99 3559.38,4729.09 3557.58,4728.79L3557.38,4728.79C3556.08,4728.79 3553.68,4730.09 3553.68,4730.99C3553.68,4730.99 3553.78,4731.09 3553.78,4731.19C3554.18,4732.09 3554.78,4731.89 3556.48,4733.49L3563.88,4740.59Z" style="fill-rule:nonzero;"/>
        </g>
    </g>
</svg>
