<?xml version="1.0" encoding="UTF-8" standalone="no"?>
<!DOCTYPE svg PUBLIC "-//W3C//DTD SVG 1.1//EN" "http://www.w3.org/Graphics/SVG/1.1/DTD/svg11.dtd">
<svg width="100%" height="100%" viewBox="0 0 96 96" version="1.1" xmlns="http://www.w3.org/2000/svg" xmlns:xlink="http://www.w3.org/1999/xlink" xml:space="preserve" xmlns:serif="http://www.serif.com/" style="fill-rule:evenodd;clip-rule:evenodd;stroke-linejoin:round;stroke-miterlimit:2;">
    <g transform="matrix(1,0,0,1,-1809.63,-2723.28)">
        <g transform="matrix(1,0,0,1,-110.019,-3591.86)">
            <path d="M2015.25,6362.94C2015.25,6336.55 1993.85,6315.15 1967.45,6315.15C1941.05,6315.15 1919.65,6336.55 1919.65,6362.94C1919.65,6389.35 1941.05,6410.65 1967.45,6410.65C1993.85,6410.65 2015.25,6389.35 2015.25,6362.94ZM2011.15,6362.94C2011.15,6387.05 1991.55,6406.55 1967.45,6406.55C1943.35,6406.55 1923.75,6387.05 1923.75,6362.94C1923.75,6338.85 1943.35,6319.24 1967.45,6319.24C1991.55,6319.24 2011.15,6338.85 2011.15,6362.94ZM1949.45,6381.74C1949.45,6384.85 1949.35,6388.44 1949.35,6389.74C1949.35,6391.05 1951.45,6391.94 1952.95,6391.94C1953.65,6391.94 1954.25,6391.74 1954.25,6391.15C1954.25,6389.35 1954.05,6385.44 1954.05,6381.74L1954.05,6363.44C1954.55,6363.94 1957.45,6365.15 1958.65,6366.35C1963.95,6371.35 1973.15,6383.05 1980.55,6388.85C1984.25,6391.94 1989.35,6392.05 1989.95,6392.05C1991.55,6392.05 1992.15,6391.74 1992.15,6391.35C1992.15,6390.65 1990.65,6389.74 1989.05,6389.05C1987.45,6388.55 1984.75,6386.65 1982.75,6384.94C1975.85,6378.94 1966.65,6368.35 1961.55,6363.44C1981.85,6363.44 1985.45,6352.35 1985.45,6347.24C1985.45,6340.74 1980.45,6333.85 1967.35,6333.85C1961.75,6333.85 1960.75,6333.85 1946.95,6336.35C1946.45,6336.44 1946.25,6336.74 1946.25,6337.24C1946.25,6338.65 1947.75,6340.94 1949.25,6340.94L1949.45,6340.94L1949.45,6381.74ZM1956.65,6359.94C1955.65,6359.94 1954.55,6360.35 1954.05,6361.44L1954.05,6339.55C1957.55,6338.35 1962.95,6337.94 1967.25,6337.94C1975.15,6337.94 1980.85,6341.44 1980.85,6347.65C1980.85,6352.74 1975.25,6360.05 1959.55,6360.05C1958.65,6360.05 1957.85,6360.05 1956.95,6359.94L1956.65,6359.94Z" style="fill-rule:nonzero;"/>
        </g>
    </g>
</svg>
