<?xml version="1.0" encoding="UTF-8" standalone="no"?>
<!DOCTYPE svg PUBLIC "-//W3C//DTD SVG 1.1//EN" "http://www.w3.org/Graphics/SVG/1.1/DTD/svg11.dtd">
<svg width="100%" height="100%" viewBox="0 0 96 96" version="1.1" xmlns="http://www.w3.org/2000/svg" xmlns:xlink="http://www.w3.org/1999/xlink" xml:space="preserve" xmlns:serif="http://www.serif.com/" style="fill-rule:evenodd;clip-rule:evenodd;stroke-linejoin:round;stroke-miterlimit:2;">
    <g transform="matrix(1,0,0,1,-2209.63,-3923.28)">
        <g transform="matrix(1,0,0,1,-110.019,-3591.86)">
            <path d="M2415.25,7562.94C2415.25,7536.55 2393.85,7515.15 2367.45,7515.15C2341.05,7515.15 2319.65,7536.55 2319.65,7562.94C2319.65,7589.35 2341.05,7610.65 2367.45,7610.65C2393.85,7610.65 2415.25,7589.35 2415.25,7562.94ZM2355.55,7581.74C2355.55,7585.44 2355.75,7589.35 2355.75,7591.15C2355.75,7592.55 2354.65,7593.44 2352.95,7593.44C2350.75,7593.44 2347.85,7591.65 2347.85,7589.74C2347.85,7588.44 2347.95,7584.85 2347.95,7581.74L2347.95,7542.15C2345.95,7541.35 2344.75,7538.74 2344.75,7537.24C2344.75,7536.15 2345.35,7535.15 2346.65,7534.85C2360.45,7532.35 2361.75,7532.35 2367.35,7532.35C2381.05,7532.35 2386.95,7539.74 2386.95,7547.24C2386.95,7557.05 2378.15,7562.74 2370.25,7564.24L2365.05,7564.85C2367.25,7567.05 2369.85,7569.85 2372.55,7572.74C2380.05,7580.55 2386.15,7586.55 2389.55,7587.65C2391.95,7588.65 2393.65,7590.35 2393.65,7591.35C2393.65,7592.05 2392.95,7593.55 2389.95,7593.55C2382.65,7593.55 2378.75,7590.35 2367.75,7578.24C2363.85,7574.05 2360.25,7569.94 2357.65,7567.44C2357.15,7567.05 2356.45,7566.55 2355.55,7566.05L2355.55,7581.74ZM2355.55,7558.55C2355.95,7558.44 2356.35,7558.44 2356.65,7558.44C2357.65,7558.44 2358.55,7558.55 2359.55,7558.55C2377.45,7558.55 2379.35,7549.24 2379.35,7547.65C2379.35,7542.74 2374.85,7539.44 2367.25,7539.44C2363.35,7539.44 2358.85,7539.74 2355.55,7540.65L2355.55,7558.55Z" style="fill-rule:nonzero;"/>
        </g>
    </g>
</svg>
