<?xml version="1.0" encoding="UTF-8" standalone="no"?>
<!DOCTYPE svg PUBLIC "-//W3C//DTD SVG 1.1//EN" "http://www.w3.org/Graphics/SVG/1.1/DTD/svg11.dtd">
<svg width="100%" height="100%" viewBox="0 0 89 89" version="1.1" xmlns="http://www.w3.org/2000/svg" xmlns:xlink="http://www.w3.org/1999/xlink" xml:space="preserve" xmlns:serif="http://www.serif.com/" style="fill-rule:evenodd;clip-rule:evenodd;stroke-linejoin:round;stroke-miterlimit:2;">
    <g transform="matrix(1,0,0,1,-758.718,-2521.63)">
        <g transform="matrix(1.41414,0,0,1.41429,-177.055,-770.755)">
            <path d="M724.089,2390.31L724.089,2327.95L661.726,2327.95L661.726,2390.31L724.089,2390.31ZM684.493,2372.5C684.493,2375.11 684.635,2377.87 684.635,2379.14C684.635,2380.13 683.857,2380.77 682.655,2380.77C681.099,2380.77 679.049,2379.5 679.049,2378.15C679.049,2377.23 679.12,2374.69 679.12,2372.5L679.12,2344.5C677.705,2343.93 676.857,2342.09 676.857,2341.03C676.857,2340.25 677.281,2339.55 678.2,2339.33C687.958,2337.57 688.877,2337.57 692.837,2337.57C702.524,2337.57 706.695,2342.8 706.695,2348.1C706.695,2355.03 700.473,2359.06 694.887,2360.12L691.211,2360.55C692.766,2362.1 694.604,2364.08 696.514,2366.13C701.817,2371.65 706.13,2375.89 708.534,2376.67C710.231,2377.38 711.433,2378.58 711.433,2379.28C711.433,2379.78 710.938,2380.84 708.817,2380.84C703.655,2380.84 700.897,2378.58 693.12,2370.02C690.362,2367.05 687.817,2364.15 685.978,2362.39C685.625,2362.1 685.13,2361.75 684.493,2361.39L684.493,2372.5ZM684.493,2356.09C684.776,2356.02 685.059,2356.02 685.271,2356.02C685.978,2356.02 686.615,2356.09 687.322,2356.09C699.978,2356.09 701.322,2349.52 701.322,2348.39C701.322,2344.92 698.14,2342.59 692.766,2342.59C690.009,2342.59 686.827,2342.8 684.493,2343.43L684.493,2356.09Z" style="fill-rule:nonzero;"/>
        </g>
    </g>
</svg>
