<?xml version="1.0" encoding="UTF-8" standalone="no"?>
<!DOCTYPE svg PUBLIC "-//W3C//DTD SVG 1.1//EN" "http://www.w3.org/Graphics/SVG/1.1/DTD/svg11.dtd">
<svg width="100%" height="100%" viewBox="0 0 89 89" version="1.1" xmlns="http://www.w3.org/2000/svg" xmlns:xlink="http://www.w3.org/1999/xlink" xml:space="preserve" xmlns:serif="http://www.serif.com/" style="fill-rule:evenodd;clip-rule:evenodd;stroke-linejoin:round;stroke-miterlimit:2;">
    <g transform="matrix(1,0,0,1,-2102.45,-2492.27)">
        <g transform="matrix(1.41414,0,0,1.41429,-1052.39,-837.704)">
            <path d="M2287.77,2416.89C2291.17,2416.89 2293.29,2414.35 2293.29,2411.38L2293.29,2360.05C2293.29,2356.58 2290.81,2354.53 2287.77,2354.53L2236.44,2354.53C2232.97,2354.53 2230.92,2356.86 2230.92,2360.05L2230.92,2411.38C2230.92,2414.56 2233.4,2416.89 2236.44,2416.89L2287.77,2416.89ZM2253.69,2399.08C2253.69,2401.69 2253.83,2404.45 2253.83,2405.72C2253.83,2406.71 2253.05,2407.35 2251.85,2407.35C2250.3,2407.35 2248.25,2406.08 2248.25,2404.73C2248.25,2403.81 2248.32,2401.27 2248.32,2399.08L2248.32,2371.08C2246.9,2370.51 2246.05,2368.67 2246.05,2367.61C2246.05,2366.83 2246.48,2366.13 2247.4,2365.91C2257.16,2364.15 2258.08,2364.15 2262.03,2364.15C2271.72,2364.15 2275.89,2369.38 2275.89,2374.68C2275.89,2381.61 2269.67,2385.64 2264.09,2386.7L2260.41,2387.13C2261.96,2388.68 2263.8,2390.66 2265.71,2392.71C2271.01,2398.23 2275.33,2402.47 2277.73,2403.25C2279.43,2403.95 2280.63,2405.16 2280.63,2405.86C2280.63,2406.36 2280.14,2407.42 2278.01,2407.42C2272.85,2407.42 2270.1,2405.16 2262.32,2396.6C2259.56,2393.63 2257.01,2390.73 2255.18,2388.96C2254.82,2388.68 2254.33,2388.33 2253.69,2387.97L2253.69,2399.08ZM2253.69,2382.67C2253.97,2382.6 2254.26,2382.6 2254.47,2382.6C2255.18,2382.6 2255.81,2382.67 2256.52,2382.67C2269.18,2382.67 2270.52,2376.1 2270.52,2374.96C2270.52,2371.5 2267.34,2369.17 2261.96,2369.17C2259.21,2369.17 2256.02,2369.38 2253.69,2370.01L2253.69,2382.67Z" style="fill-rule:nonzero;"/>
        </g>
    </g>
</svg>
