<?xml version="1.0" encoding="UTF-8" standalone="no"?>
<!DOCTYPE svg PUBLIC "-//W3C//DTD SVG 1.1//EN" "http://www.w3.org/Graphics/SVG/1.1/DTD/svg11.dtd">
<svg width="100%" height="100%" viewBox="0 0 98 90" version="1.1" xmlns="http://www.w3.org/2000/svg" xmlns:xlink="http://www.w3.org/1999/xlink" xml:space="preserve" xmlns:serif="http://www.serif.com/" style="fill-rule:evenodd;clip-rule:evenodd;stroke-linejoin:round;stroke-miterlimit:2;">
    <g transform="matrix(1,0,0,1,-5837.38,-2435.56)">
        <g transform="matrix(1,0,0,1,1,0)">
            <path d="M5915.07,2524.76C5917.37,2524.76 5934.07,2507.26 5934.07,2480.16C5934.07,2452.96 5917.37,2435.56 5915.07,2435.56C5914.37,2435.56 5913.87,2436.06 5913.87,2436.76C5913.87,2437.16 5913.97,2437.66 5914.37,2438.06C5924.17,2449.76 5928.77,2465.96 5928.77,2480.16C5928.77,2494.36 5924.17,2510.56 5914.37,2522.26C5913.97,2522.66 5913.87,2523.16 5913.87,2523.56C5913.87,2524.26 5914.37,2524.76 5915.07,2524.76ZM5867.27,2498.96C5867.27,2502.06 5867.17,2505.66 5867.17,2506.96C5867.17,2508.26 5869.27,2509.16 5870.77,2509.16C5871.47,2509.16 5872.07,2508.96 5872.07,2508.36C5872.07,2506.56 5871.87,2502.66 5871.87,2498.96L5871.87,2480.66C5872.37,2481.16 5875.27,2482.36 5876.47,2483.56C5881.77,2488.56 5890.97,2500.26 5898.37,2506.06C5902.07,2509.16 5907.17,2509.26 5907.77,2509.26C5909.37,2509.26 5909.97,2508.96 5909.97,2508.56C5909.97,2507.86 5908.47,2506.96 5906.87,2506.26C5905.27,2505.76 5902.57,2503.86 5900.57,2502.16C5893.67,2496.16 5884.47,2485.56 5879.37,2480.66C5899.67,2480.66 5903.27,2469.56 5903.27,2464.46C5903.27,2457.96 5898.27,2451.06 5885.17,2451.06C5879.57,2451.06 5878.57,2451.06 5864.77,2453.56C5864.27,2453.66 5864.07,2453.96 5864.07,2454.46C5864.07,2455.86 5865.57,2458.16 5867.07,2458.16L5867.27,2458.16L5867.27,2498.96ZM5856.57,2523.56C5856.57,2523.16 5856.48,2522.66 5856.07,2522.26C5846.28,2510.56 5841.68,2494.36 5841.68,2480.16C5841.68,2465.96 5846.28,2449.76 5856.07,2438.06C5856.48,2437.66 5856.57,2437.16 5856.57,2436.76C5856.57,2436.06 5856.07,2435.56 5855.38,2435.56C5853.07,2435.56 5836.38,2452.96 5836.38,2480.16C5836.38,2507.26 5853.07,2524.76 5855.38,2524.76C5856.07,2524.76 5856.57,2524.26 5856.57,2523.56ZM5874.47,2477.16C5873.47,2477.16 5872.37,2477.56 5871.87,2478.66L5871.87,2456.76C5875.37,2455.56 5880.77,2455.16 5885.07,2455.16C5892.97,2455.16 5898.67,2458.66 5898.67,2464.86C5898.67,2469.96 5893.07,2477.26 5877.37,2477.26C5876.47,2477.26 5875.67,2477.26 5874.77,2477.16L5874.47,2477.16Z" style="fill-rule:nonzero;"/>
        </g>
    </g>
</svg>
