<?xml version="1.0" encoding="UTF-8" standalone="no"?>
<!DOCTYPE svg PUBLIC "-//W3C//DTD SVG 1.1//EN" "http://www.w3.org/Graphics/SVG/1.1/DTD/svg11.dtd">
<svg width="100%" height="100%" viewBox="0 0 89 89" version="1.1" xmlns="http://www.w3.org/2000/svg" xmlns:xlink="http://www.w3.org/1999/xlink" xml:space="preserve" xmlns:serif="http://www.serif.com/" style="fill-rule:evenodd;clip-rule:evenodd;stroke-linejoin:round;stroke-miterlimit:2;">
    <g transform="matrix(1,0,0,1,-2540.22,-1938.66)">
        <g transform="matrix(1,0,0,1,-1072.97,-2735.12)">
            <path d="M3701.38,4761.99L3701.38,4673.79L3613.18,4673.79L3613.18,4761.99L3701.38,4761.99ZM3697.28,4757.89L3617.28,4757.89L3617.28,4677.89L3697.28,4677.89L3697.28,4757.89ZM3639.28,4736.79C3639.28,4739.89 3639.18,4743.49 3639.18,4744.79C3639.18,4746.09 3641.28,4746.99 3642.78,4746.99C3643.48,4746.99 3644.08,4746.79 3644.08,4746.19C3644.08,4744.39 3643.88,4740.49 3643.88,4736.79L3643.88,4718.49C3644.38,4718.99 3647.28,4720.19 3648.48,4721.39C3653.78,4726.39 3662.98,4738.09 3670.38,4743.89C3674.08,4746.99 3679.18,4747.09 3679.78,4747.09C3681.38,4747.09 3681.98,4746.79 3681.98,4746.39C3681.98,4745.69 3680.48,4744.79 3678.88,4744.09C3677.28,4743.59 3674.58,4741.69 3672.58,4739.99C3665.68,4733.99 3656.48,4723.39 3651.38,4718.49C3671.68,4718.49 3675.28,4707.39 3675.28,4702.29C3675.28,4695.79 3670.28,4688.89 3657.18,4688.89C3651.58,4688.89 3650.58,4688.89 3636.78,4691.39C3636.28,4691.49 3636.08,4691.79 3636.08,4692.29C3636.08,4693.69 3637.58,4695.99 3639.08,4695.99L3639.28,4695.99L3639.28,4736.79ZM3646.48,4714.99C3645.48,4714.99 3644.38,4715.39 3643.88,4716.49L3643.88,4694.59C3647.38,4693.39 3652.78,4692.99 3657.08,4692.99C3664.98,4692.99 3670.68,4696.49 3670.68,4702.69C3670.68,4707.79 3665.08,4715.09 3649.38,4715.09C3648.48,4715.09 3647.68,4715.09 3646.78,4714.99L3646.48,4714.99Z" style="fill-rule:nonzero;"/>
        </g>
    </g>
</svg>
