<?xml version="1.0" encoding="UTF-8" standalone="no"?>
<!DOCTYPE svg PUBLIC "-//W3C//DTD SVG 1.1//EN" "http://www.w3.org/Graphics/SVG/1.1/DTD/svg11.dtd">
<svg width="100%" height="100%" viewBox="0 0 89 89" version="1.1" xmlns="http://www.w3.org/2000/svg" xmlns:xlink="http://www.w3.org/1999/xlink" xml:space="preserve" xmlns:serif="http://www.serif.com/" style="fill-rule:evenodd;clip-rule:evenodd;stroke-linejoin:round;stroke-miterlimit:2;">
    <g transform="matrix(1,0,0,1,-3393.29,-2481.51)">
        <g transform="matrix(1.41414,0,0,1.41429,-1389.33,-1046.26)">
            <path d="M3438.85,2556.75C3442.24,2556.75 3444.36,2554.2 3444.36,2551.23L3444.36,2499.9C3444.36,2496.43 3441.89,2494.39 3438.85,2494.39L3387.51,2494.39C3384.05,2494.39 3382,2496.72 3382,2499.9L3382,2551.23C3382,2554.41 3384.47,2556.75 3387.51,2556.75L3438.85,2556.75ZM3441.46,2551.52C3441.46,2553.07 3440.4,2553.85 3439.2,2553.85L3387.16,2553.85C3385.67,2553.85 3384.9,2552.79 3384.9,2551.52L3384.9,2499.55C3384.9,2498.13 3385.82,2497.28 3387.16,2497.28L3439.2,2497.28C3440.61,2497.28 3441.46,2498.34 3441.46,2499.55L3441.46,2551.52ZM3400.45,2538.93C3400.45,2541.12 3400.38,2543.67 3400.38,2544.59C3400.38,2545.51 3401.87,2546.14 3402.93,2546.14C3403.42,2546.14 3403.85,2546 3403.85,2545.58C3403.85,2544.3 3403.7,2541.55 3403.7,2538.93L3403.7,2525.99C3404.06,2526.34 3406.11,2527.19 3406.96,2528.04C3410.7,2531.58 3417.21,2539.85 3422.44,2543.95C3425.06,2546.14 3428.66,2546.21 3429.09,2546.21C3430.22,2546.21 3430.64,2546 3430.64,2545.72C3430.64,2545.22 3429.58,2544.59 3428.45,2544.09C3427.32,2543.74 3425.41,2542.39 3424,2541.19C3419.12,2536.95 3412.61,2529.45 3409.01,2525.99C3423.36,2525.99 3425.91,2518.14 3425.91,2514.54C3425.91,2509.94 3422.37,2505.06 3413.11,2505.06C3409.15,2505.06 3408.44,2505.06 3398.68,2506.83C3398.33,2506.9 3398.19,2507.11 3398.19,2507.47C3398.19,2508.45 3399.25,2510.08 3400.31,2510.08L3400.45,2510.08L3400.45,2538.93ZM3405.54,2523.52C3404.84,2523.52 3404.06,2523.8 3403.7,2524.58L3403.7,2509.09C3406.18,2508.24 3410,2507.96 3413.04,2507.96C3418.62,2507.96 3422.65,2510.43 3422.65,2514.82C3422.65,2518.43 3418.69,2523.59 3407.59,2523.59C3406.96,2523.59 3406.39,2523.59 3405.76,2523.52L3405.54,2523.52Z" style="fill-rule:nonzero;"/>
        </g>
    </g>
</svg>
