<?xml version="1.0" encoding="UTF-8" standalone="no"?>
<!DOCTYPE svg PUBLIC "-//W3C//DTD SVG 1.1//EN" "http://www.w3.org/Graphics/SVG/1.1/DTD/svg11.dtd">
<svg width="100%" height="100%" viewBox="0 0 68 68" version="1.1" xmlns="http://www.w3.org/2000/svg" xmlns:xlink="http://www.w3.org/1999/xlink" xml:space="preserve" xmlns:serif="http://www.serif.com/" style="fill-rule:evenodd;clip-rule:evenodd;stroke-linejoin:round;stroke-miterlimit:2;">
    <g transform="matrix(1,0,0,1,-4416.41,-1876.27)">
        <g transform="matrix(1.41414,0,0,1.41429,-1534.59,-78.5653)">
            <path d="M4256.22,1406.17C4256.22,1392.95 4245.4,1382.21 4232.18,1382.21C4218.96,1382.21 4208.21,1392.95 4208.21,1406.17C4208.21,1419.4 4218.96,1430.14 4232.18,1430.14C4245.4,1430.14 4256.22,1419.4 4256.22,1406.17ZM4253.04,1406.17C4253.04,1417.63 4243.7,1426.96 4232.25,1426.96C4220.8,1426.96 4211.46,1417.63 4211.46,1406.17C4211.46,1394.72 4220.8,1385.39 4232.25,1385.39C4243.7,1385.39 4253.04,1394.72 4253.04,1406.17ZM4223.34,1415.58C4223.34,1417.21 4223.27,1419.12 4223.27,1419.75C4223.27,1420.67 4224.61,1421.16 4225.67,1421.16C4226.31,1421.16 4226.88,1420.95 4226.88,1420.53C4226.88,1419.54 4226.81,1417.49 4226.81,1415.58L4226.81,1406.95C4227.37,1407.16 4228.01,1407.59 4228.36,1407.87C4231.12,1410.49 4235.5,1416.64 4239.39,1419.75C4240.59,1420.74 4241.94,1421.24 4243.14,1421.31C4243.56,1421.31 4243.92,1421.38 4244.2,1421.38C4245.68,1421.38 4246.32,1421.02 4246.32,1420.6C4246.32,1420.11 4245.47,1419.47 4244.34,1419.12C4243.56,1418.83 4242.15,1417.77 4241.09,1416.92C4237.48,1413.88 4234.09,1409.22 4231.47,1406.46C4242.86,1405.75 4243.14,1398.96 4243.14,1397.55C4243.14,1393.87 4240.45,1389.98 4233.17,1389.98C4230.34,1389.98 4228.01,1390.27 4226.81,1390.55C4225.11,1390.9 4223.62,1391.18 4222.42,1391.33C4222,1391.4 4221.86,1391.68 4221.86,1392.17C4221.86,1393.1 4222.56,1394.44 4223.34,1394.79L4223.34,1415.58ZM4227.65,1403.63C4227.37,1403.63 4227.02,1403.77 4226.81,1403.98L4226.81,1393.94C4228.5,1393.38 4230.98,1393.16 4233.1,1393.16C4236.99,1393.16 4239.67,1394.79 4239.67,1397.69C4239.67,1400.1 4237.06,1403.7 4229.7,1403.7C4229.07,1403.7 4228.43,1403.7 4227.86,1403.63L4227.65,1403.63Z" style="fill-rule:nonzero;"/>
        </g>
    </g>
</svg>
