<?xml version="1.0" encoding="UTF-8" standalone="no"?>
<!DOCTYPE svg PUBLIC "-//W3C//DTD SVG 1.1//EN" "http://www.w3.org/Graphics/SVG/1.1/DTD/svg11.dtd">
<svg width="100%" height="100%" viewBox="0 0 51 73" version="1.1" xmlns="http://www.w3.org/2000/svg" xmlns:xlink="http://www.w3.org/1999/xlink" xml:space="preserve" xmlns:serif="http://www.serif.com/" style="fill-rule:evenodd;clip-rule:evenodd;stroke-linejoin:round;stroke-miterlimit:2;">
    <g transform="matrix(1,0,0,1,-4043.25,-2772.87)">
        <g transform="matrix(1.41414,0,0,1.41429,-1534.59,-78.5653)">
            <path d="M3947.09,2058.45C3947.09,2061.21 3946.95,2064.32 3946.95,2065.45C3946.95,2066.65 3948.86,2067.43 3950.2,2067.43C3950.91,2067.43 3951.4,2067.22 3951.4,2066.72C3951.4,2065.1 3951.19,2061.7 3951.19,2058.52L3951.19,2043.03C3951.54,2043.53 3952.67,2043.53 3954.16,2043.53C3957.76,2043.53 3963.07,2042.96 3965.75,2042.4C3974.38,2040.63 3979.97,2035.89 3979.97,2027.62C3979.97,2020.48 3974.31,2016.16 3962.08,2016.16C3957.13,2016.16 3953.73,2016.73 3952.11,2017.01C3948.64,2017.65 3946.88,2018.14 3945.04,2018.5C3944.54,2018.57 3944.33,2018.99 3944.33,2019.42C3944.33,2020.62 3945.6,2022.46 3946.88,2022.46L3947.09,2022.46L3947.09,2058.45ZM3951.19,2021.33C3954.3,2020.48 3958.54,2019.91 3961.94,2019.91C3970.28,2019.91 3975.72,2021.89 3975.72,2028.04C3975.72,2033.91 3971.41,2037.38 3964.06,2039.07C3961.58,2039.64 3955.57,2040.56 3952.25,2040.77C3951.83,2040.77 3951.4,2040.98 3951.19,2041.27L3951.19,2021.33Z" style="fill-rule:nonzero;"/>
        </g>
    </g>
</svg>
