<?xml version="1.0" encoding="UTF-8" standalone="no"?>
<!DOCTYPE svg PUBLIC "-//W3C//DTD SVG 1.1//EN" "http://www.w3.org/Graphics/SVG/1.1/DTD/svg11.dtd">
<svg width="100%" height="100%" viewBox="0 0 67 65" version="1.1" xmlns="http://www.w3.org/2000/svg" xmlns:xlink="http://www.w3.org/1999/xlink" xml:space="preserve" xmlns:serif="http://www.serif.com/" style="fill-rule:evenodd;clip-rule:evenodd;stroke-linejoin:round;stroke-miterlimit:2;">
    <g transform="matrix(1,0,0,1,-4234.63,-2925.67)">
        <g transform="matrix(1.41414,0,0,1.41429,-1534.59,-78.5653)">
            <path d="M4125.84,2169.46C4126.26,2169.46 4126.47,2168.89 4126.47,2168.33C4126.47,2167.12 4125.76,2165.57 4124.35,2165.57L4124.28,2165.57L4124.28,2129.16C4124.28,2128.38 4124.63,2127.6 4124.63,2126.75C4124.63,2125.62 4122.86,2124.21 4121.66,2124.21C4120.67,2124.21 4120.46,2125.2 4119.4,2126.4C4112.19,2134.53 4086.52,2160.83 4080.09,2165.22C4079.81,2165.43 4079.66,2165.78 4079.66,2166.14C4079.66,2167.9 4081.57,2169.53 4082.42,2169.53C4083.13,2169.53 4083.91,2169.18 4085.04,2169.11C4090.48,2168.89 4099.53,2168.82 4104.84,2168.82C4111.2,2168.82 4115.02,2168.89 4119.68,2169.03C4121.38,2169.03 4124.63,2169.25 4125.76,2169.46L4125.84,2169.46ZM4120.6,2165.5C4120.6,2165.5 4110.85,2165.29 4104.62,2165.29C4097.55,2165.29 4089.14,2165.43 4085.39,2165.5C4096.56,2155.25 4115.65,2135.73 4120.6,2130.29L4120.6,2165.5Z" style="fill-rule:nonzero;"/>
        </g>
    </g>
</svg>
