<?xml version="1.0" encoding="UTF-8" standalone="no"?>
<!DOCTYPE svg PUBLIC "-//W3C//DTD SVG 1.1//EN" "http://www.w3.org/Graphics/SVG/1.1/DTD/svg11.dtd">
<svg width="100%" height="100%" viewBox="0 0 88 69" version="1.1" xmlns="http://www.w3.org/2000/svg" xmlns:xlink="http://www.w3.org/1999/xlink" xml:space="preserve" xmlns:serif="http://www.serif.com/" style="fill-rule:evenodd;clip-rule:evenodd;stroke-linejoin:round;stroke-miterlimit:2;">
    <g transform="matrix(1,0,0,1,-4622.49,-3071.67)">
        <g transform="matrix(1.41414,0,0,1.41429,-1534.59,-78.5653)">
            <path d="M4408.95,2240.73C4404.14,2243.28 4400.11,2246.18 4398.06,2247.8C4397.78,2248.01 4397.63,2248.37 4397.63,2248.72C4397.63,2249.64 4398.41,2250.77 4399.19,2250.77C4399.4,2250.77 4399.61,2250.7 4399.75,2250.56C4400.82,2249.78 4402.09,2248.65 4402.8,2248.16C4406.26,2245.68 4410.5,2242.64 4415.1,2240.52C4415.59,2240.31 4415.88,2239.67 4415.88,2239.11C4415.88,2238.54 4415.59,2237.9 4415.1,2237.69C4410.43,2235.64 4406.26,2232.53 4402.8,2230.05C4402.09,2229.56 4400.82,2228.43 4399.75,2227.65C4399.61,2227.51 4399.4,2227.44 4399.19,2227.44C4398.41,2227.44 4397.63,2228.57 4397.63,2229.49C4397.63,2229.84 4397.78,2230.2 4398.06,2230.41C4400.11,2232.03 4404.14,2234.93 4408.95,2237.48L4355.42,2237.48C4354.57,2237.48 4354.15,2238.26 4354.15,2239.11C4354.15,2239.88 4354.57,2240.73 4355.42,2240.73L4408.95,2240.73ZM4414.39,2265.69C4415.24,2265.69 4415.66,2264.91 4415.66,2264.06C4415.66,2263.29 4415.24,2262.44 4414.39,2262.44L4360.86,2262.44C4365.67,2259.89 4369.7,2256.99 4371.75,2255.37C4372.04,2255.16 4372.18,2254.8 4372.18,2254.45C4372.18,2253.53 4371.4,2252.4 4370.62,2252.4C4370.41,2252.4 4370.2,2252.47 4370.06,2252.61C4369,2253.39 4367.72,2254.52 4367.02,2255.01C4363.55,2257.49 4359.31,2260.53 4354.71,2262.65C4354.22,2262.86 4353.94,2263.5 4353.94,2264.06C4353.94,2264.63 4354.22,2265.27 4354.71,2265.48C4359.38,2267.53 4363.55,2270.64 4367.02,2273.12C4367.72,2273.61 4369,2274.74 4370.06,2275.52C4370.2,2275.66 4370.41,2275.73 4370.62,2275.73C4371.4,2275.73 4372.18,2274.6 4372.18,2273.68C4372.18,2273.33 4372.04,2272.97 4371.75,2272.76C4369.7,2271.14 4365.67,2268.24 4360.86,2265.69L4414.39,2265.69Z" style="fill-rule:nonzero;"/>
        </g>
    </g>
</svg>
