<?xml version="1.0" encoding="UTF-8" standalone="no"?>
<!DOCTYPE svg PUBLIC "-//W3C//DTD SVG 1.1//EN" "http://www.w3.org/Graphics/SVG/1.1/DTD/svg11.dtd">
<svg width="100%" height="100%" viewBox="0 0 90 69" version="1.1" xmlns="http://www.w3.org/2000/svg" xmlns:xlink="http://www.w3.org/1999/xlink" xml:space="preserve" xmlns:serif="http://www.serif.com/" style="fill-rule:evenodd;clip-rule:evenodd;stroke-linejoin:round;stroke-miterlimit:2;">
    <g transform="matrix(1,0,0,1,-1570.98,-5579.37)">
        <g transform="matrix(1,0,0,1,-504.034,-1124.47)">
            <path d="M2099.31,6757.04C2099.31,6754.64 2100.51,6752.54 2103.11,6750.84C2117.71,6741.24 2140.91,6728.54 2163.71,6715.04C2164.41,6714.64 2164.71,6714.14 2164.71,6713.74C2164.71,6712.64 2163.11,6711.84 2161.61,6711.84C2161.11,6711.84 2160.71,6711.94 2160.31,6712.14L2116.11,6734.74C2112.71,6736.44 2112.01,6737.34 2111.01,6739.84C2110.21,6741.84 2108.51,6742.64 2106.51,6743.64L2080.51,6756.54C2077.01,6758.34 2075.01,6760.94 2075.01,6764.94C2075.01,6769.14 2078.71,6772.44 2084.71,6772.44C2090.11,6772.44 2099.41,6770.74 2099.41,6760.04C2099.41,6759.24 2099.41,6758.54 2099.31,6757.84L2099.31,6757.04ZM2115.71,6733.34C2101.21,6724.74 2099.31,6723.44 2099.31,6719.24L2099.31,6718.44C2099.41,6717.74 2099.41,6717.04 2099.41,6716.24C2099.41,6705.44 2090.11,6703.84 2084.71,6703.84C2078.71,6703.84 2075.01,6707.14 2075.01,6711.34C2075.01,6715.34 2077.01,6717.94 2080.51,6719.74C2088.51,6723.74 2105.71,6732.24 2112.01,6735.44L2115.71,6733.34ZM2118.81,6742.94C2130.31,6748.74 2144.41,6755.94 2160.31,6764.14C2160.71,6764.34 2161.11,6764.44 2161.61,6764.44C2163.11,6764.44 2164.71,6763.64 2164.71,6762.54C2164.71,6762.14 2164.41,6761.64 2163.71,6761.24C2150.51,6753.34 2137.21,6745.84 2125.41,6739.04L2118.81,6742.94ZM2095.81,6760.74C2095.81,6766.04 2090.01,6768.64 2084.61,6768.64C2081.01,6768.64 2078.51,6766.94 2078.51,6764.84C2078.51,6761.24 2082.11,6759.54 2090.21,6755.94C2091.01,6755.54 2091.71,6755.44 2092.41,6755.44C2094.51,6755.44 2095.81,6757.24 2095.81,6760.74ZM2092.41,6720.84C2091.31,6720.84 2091.31,6720.84 2082.31,6716.54C2080.01,6715.44 2078.51,6713.64 2078.51,6711.44C2078.51,6709.34 2081.01,6707.64 2084.61,6707.64C2090.01,6707.64 2095.81,6710.24 2095.81,6715.54C2095.81,6719.04 2094.51,6720.84 2092.41,6720.84Z" style="fill-rule:nonzero;"/>
        </g>
    </g>
</svg>
