<?xml version="1.0" encoding="UTF-8" standalone="no"?>
<!DOCTYPE svg PUBLIC "-//W3C//DTD SVG 1.1//EN" "http://www.w3.org/Graphics/SVG/1.1/DTD/svg11.dtd">
<svg width="100%" height="100%" viewBox="0 0 26 94" version="1.1" xmlns="http://www.w3.org/2000/svg" xmlns:xlink="http://www.w3.org/1999/xlink" xml:space="preserve" xmlns:serif="http://www.serif.com/" style="fill-rule:evenodd;clip-rule:evenodd;stroke-linejoin:round;stroke-miterlimit:2;">
    <g transform="matrix(1,0,0,1,-4088.55,-1565.77)">
        <g transform="matrix(1.41414,0,0,1.41429,-1534.59,-78.5653)">
            <path d="M3993.12,1197.87C3993.83,1197.87 3994.11,1197.38 3994.11,1196.81C3994.11,1195.82 3993.26,1194.55 3992.13,1194.48C3987.11,1194.2 3985.98,1190.24 3985.98,1187.12C3985.98,1180.2 3987.04,1176.38 3987.04,1173.48C3987.04,1164.57 3978.13,1162.66 3977.21,1162.66C3976.57,1162.66 3976.36,1162.94 3976.36,1163.37C3976.36,1163.79 3976.64,1164.22 3977.07,1164.5C3981.1,1166.83 3983.5,1169.38 3983.5,1173.48C3983.5,1174.89 3982.44,1179.98 3982.44,1187.41C3982.44,1191.23 3984.21,1194.9 3987.89,1195.75C3983.36,1198.08 3982.44,1203.03 3982.44,1206.92C3982.44,1210.46 3982.87,1215.97 3982.87,1218.1C3982.87,1221.56 3980.74,1224.6 3977,1226.72C3976.57,1227 3976.36,1227.36 3976.36,1227.78C3976.36,1228.28 3976.71,1228.7 3977.28,1228.7C3977.85,1228.7 3986.47,1225.52 3986.47,1218.24C3986.47,1215.83 3986.05,1209.89 3986.05,1207.13C3986.05,1201.62 3987.82,1197.87 3992.34,1197.87L3993.12,1197.87Z" style="fill-rule:nonzero;"/>
        </g>
    </g>
</svg>
