<?xml version="1.0" encoding="UTF-8" standalone="no"?>
<!DOCTYPE svg PUBLIC "-//W3C//DTD SVG 1.1//EN" "http://www.w3.org/Graphics/SVG/1.1/DTD/svg11.dtd">
<svg width="100%" height="100%" viewBox="0 0 98 90" version="1.1" xmlns="http://www.w3.org/2000/svg" xmlns:xlink="http://www.w3.org/1999/xlink" xml:space="preserve" xmlns:serif="http://www.serif.com/" style="fill-rule:evenodd;clip-rule:evenodd;stroke-linejoin:round;stroke-miterlimit:2;">
    <g transform="matrix(1,0,0,1,-5337.33,-1835.56)">
        <g transform="matrix(1,0,0,1,1,0)">
            <path d="M5403.32,1860.66C5405.12,1860.66 5406.32,1859.46 5406.32,1857.56C5406.32,1855.46 5404.32,1853.06 5402.52,1853.06C5400.42,1853.06 5399.42,1854.36 5399.42,1856.36C5399.42,1858.36 5401.32,1860.66 5403.32,1860.66ZM5385.72,1860.66C5387.62,1860.66 5388.72,1859.46 5388.72,1857.56C5388.72,1855.46 5386.82,1853.06 5384.92,1853.06C5382.92,1853.06 5381.82,1854.36 5381.82,1856.36C5381.82,1858.36 5383.72,1860.66 5385.72,1860.66ZM5368.22,1860.66C5370.12,1860.66 5371.22,1859.46 5371.22,1857.56C5371.22,1855.46 5369.32,1853.06 5367.42,1853.06C5365.43,1853.06 5364.32,1854.36 5364.32,1856.36C5364.32,1858.36 5366.23,1860.66 5368.22,1860.66ZM5415.32,1924.76C5417.62,1924.76 5434.32,1907.26 5434.32,1880.16C5434.32,1852.96 5417.62,1835.56 5415.32,1835.56C5414.62,1835.56 5414.12,1836.06 5414.12,1836.76C5414.12,1837.16 5414.22,1837.66 5414.62,1838.06C5424.42,1849.76 5429.02,1865.96 5429.02,1880.16C5429.02,1894.36 5424.42,1910.56 5414.62,1922.26C5414.22,1922.66 5414.12,1923.16 5414.12,1923.56C5414.12,1924.26 5414.62,1924.76 5415.32,1924.76ZM5356.53,1923.56C5356.53,1923.16 5356.43,1922.66 5356.03,1922.26C5346.23,1910.56 5341.63,1894.36 5341.63,1880.16C5341.63,1865.96 5346.23,1849.76 5356.03,1838.06C5356.43,1837.66 5356.53,1837.16 5356.53,1836.76C5356.53,1836.06 5356.03,1835.56 5355.33,1835.56C5353.03,1835.56 5336.33,1852.96 5336.33,1880.16C5336.33,1907.26 5353.03,1924.76 5355.33,1924.76C5356.03,1924.76 5356.53,1924.26 5356.53,1923.56ZM5400.72,1900.96C5400.72,1902.06 5400.52,1906.76 5400.52,1908.06C5400.52,1909.36 5402.72,1910.26 5404.22,1910.26C5404.92,1910.26 5405.42,1910.06 5405.42,1909.56C5405.42,1907.66 5405.12,1901.96 5405.12,1900.96L5405.12,1879.66C5405.12,1877.66 5405.32,1873.76 5405.32,1872.46C5405.32,1871.16 5403.12,1870.26 5401.62,1870.26C5400.92,1870.26 5400.42,1870.46 5400.42,1870.96C5400.42,1872.86 5400.72,1878.06 5400.72,1879.66L5400.72,1900.96ZM5383.12,1900.96C5383.12,1902.06 5383.02,1906.76 5383.02,1908.06C5383.02,1909.36 5385.22,1910.26 5386.62,1910.26C5387.32,1910.26 5387.82,1910.06 5387.82,1909.56C5387.82,1907.66 5387.62,1901.96 5387.62,1900.96L5387.62,1879.66C5387.62,1877.66 5387.72,1873.76 5387.72,1872.46C5387.72,1871.16 5385.52,1870.26 5384.12,1870.26C5383.42,1870.26 5382.92,1870.46 5382.92,1870.96C5382.92,1872.86 5383.12,1878.06 5383.12,1879.66L5383.12,1900.96ZM5365.62,1900.96C5365.62,1902.06 5365.53,1906.76 5365.53,1908.06C5365.53,1909.36 5367.72,1910.26 5369.12,1910.26C5369.82,1910.26 5370.32,1910.06 5370.32,1909.56C5370.32,1907.66 5370.12,1901.96 5370.12,1900.96L5370.12,1879.66C5370.12,1877.66 5370.22,1873.76 5370.22,1872.46C5370.22,1871.16 5368.02,1870.26 5366.62,1870.26C5365.93,1870.26 5365.43,1870.46 5365.43,1870.96C5365.43,1872.86 5365.62,1878.06 5365.62,1879.66L5365.62,1900.96Z" style="fill-rule:nonzero;"/>
        </g>
    </g>
</svg>
