<?xml version="1.0" encoding="UTF-8" standalone="no"?>
<!DOCTYPE svg PUBLIC "-//W3C//DTD SVG 1.1//EN" "http://www.w3.org/Graphics/SVG/1.1/DTD/svg11.dtd">
<svg width="100%" height="100%" viewBox="0 0 98 90" version="1.1" xmlns="http://www.w3.org/2000/svg" xmlns:xlink="http://www.w3.org/1999/xlink" xml:space="preserve" xmlns:serif="http://www.serif.com/" style="fill-rule:evenodd;clip-rule:evenodd;stroke-linejoin:round;stroke-miterlimit:2;">
    <g transform="matrix(1,0,0,1,-5237.34,-2135.56)">
        <g transform="matrix(1,0,0,1,1,0)">
            <path d="M5315.33,2224.76C5317.63,2224.76 5334.33,2207.26 5334.33,2180.16C5334.33,2152.96 5317.63,2135.56 5315.33,2135.56C5314.63,2135.56 5314.13,2136.06 5314.13,2136.76C5314.13,2137.16 5314.23,2137.66 5314.63,2138.06C5324.43,2149.76 5329.03,2165.96 5329.03,2180.16C5329.03,2194.36 5324.43,2210.56 5314.63,2222.26C5314.23,2222.66 5314.13,2223.16 5314.13,2223.56C5314.13,2224.26 5314.63,2224.76 5315.33,2224.76ZM5256.54,2223.56C5256.54,2223.16 5256.44,2222.66 5256.04,2222.26C5246.24,2210.56 5241.64,2194.36 5241.64,2180.16C5241.64,2165.96 5246.24,2149.76 5256.04,2138.06C5256.44,2137.66 5256.54,2137.16 5256.54,2136.76C5256.54,2136.06 5256.04,2135.56 5255.34,2135.56C5253.04,2135.56 5236.34,2152.96 5236.34,2180.16C5236.34,2207.26 5253.04,2224.76 5255.34,2224.76C5256.04,2224.76 5256.54,2224.26 5256.54,2223.56ZM5271.03,2204.36C5267.23,2188.36 5262.94,2172.66 5258.64,2158.56C5258.34,2157.46 5257.64,2154.56 5257.34,2152.86C5257.14,2151.76 5255.34,2151.26 5253.74,2151.26C5252.34,2151.26 5251.14,2151.66 5251.14,2152.36C5251.14,2152.46 5251.14,2152.66 5251.24,2152.76C5255.74,2162.86 5263.34,2191.16 5267.14,2206.96C5267.94,2210.36 5270.23,2212.16 5272.03,2212.16C5273.03,2212.16 5273.83,2211.56 5274.13,2210.36C5277.13,2197.76 5285.53,2166.56 5290.33,2154.16C5290.43,2153.96 5290.43,2153.76 5290.43,2153.46C5290.43,2151.96 5288.13,2150.46 5286.53,2150.46C5285.93,2150.46 5285.33,2150.76 5285.23,2151.46C5284.63,2154.26 5283.73,2158.06 5283.33,2159.46C5279.63,2171.76 5274.93,2189.06 5271.03,2204.36ZM5312.83,2201.86C5312.83,2204.76 5312.63,2208.06 5312.63,2209.36C5312.63,2210.86 5315.03,2211.76 5316.63,2211.76C5317.43,2211.76 5318.03,2211.56 5318.03,2210.96C5318.03,2208.96 5317.73,2205.36 5317.73,2201.96L5317.73,2161.16C5317.73,2158.26 5317.93,2154.96 5317.93,2153.66C5317.93,2152.26 5315.63,2151.16 5314.03,2151.16C5313.13,2151.16 5312.53,2151.46 5312.53,2152.16C5312.53,2154.16 5312.83,2157.36 5312.83,2160.86L5312.83,2201.86ZM5296.53,2201.86C5296.53,2204.76 5296.33,2208.06 5296.33,2209.36C5296.33,2210.86 5298.63,2211.76 5300.23,2211.76C5301.03,2211.76 5301.63,2211.56 5301.63,2210.96C5301.63,2208.96 5301.43,2205.36 5301.43,2201.96L5301.43,2161.16C5301.43,2158.26 5301.63,2154.96 5301.63,2153.66C5301.63,2152.26 5299.33,2151.16 5297.73,2151.16C5296.83,2151.16 5296.23,2151.46 5296.23,2152.16C5296.23,2154.16 5296.53,2157.36 5296.53,2160.86L5296.53,2201.86Z" style="fill-rule:nonzero;"/>
        </g>
    </g>
</svg>
