<?xml version="1.0" encoding="UTF-8" standalone="no"?>
<!DOCTYPE svg PUBLIC "-//W3C//DTD SVG 1.1//EN" "http://www.w3.org/Graphics/SVG/1.1/DTD/svg11.dtd">
<svg width="100%" height="100%" viewBox="0 0 98 90" version="1.1" xmlns="http://www.w3.org/2000/svg" xmlns:xlink="http://www.w3.org/1999/xlink" xml:space="preserve" xmlns:serif="http://www.serif.com/" style="fill-rule:evenodd;clip-rule:evenodd;stroke-linejoin:round;stroke-miterlimit:2;">
    <g transform="matrix(1,0,0,1,-5937.27,-1985.56)">
        <g transform="matrix(1,0,0,1,1,0)">
            <path d="M6015.26,2074.76C6017.56,2074.76 6034.26,2057.26 6034.26,2030.16C6034.26,2002.96 6017.56,1985.56 6015.26,1985.56C6014.56,1985.56 6014.06,1986.06 6014.06,1986.76C6014.06,1987.16 6014.16,1987.66 6014.56,1988.06C6024.36,1999.76 6028.96,2015.96 6028.96,2030.16C6028.96,2044.36 6024.36,2060.56 6014.56,2072.26C6014.16,2072.66 6014.06,2073.16 6014.06,2073.56C6014.06,2074.26 6014.56,2074.76 6015.26,2074.76ZM5956.46,2073.56C5956.46,2073.16 5956.36,2072.66 5955.96,2072.26C5946.16,2060.56 5941.57,2044.36 5941.57,2030.16C5941.57,2015.96 5946.16,1999.76 5955.96,1988.06C5956.36,1987.66 5956.46,1987.16 5956.46,1986.76C5956.46,1986.06 5955.96,1985.56 5955.26,1985.56C5952.97,1985.56 5936.27,2002.96 5936.27,2030.16C5936.27,2057.26 5952.97,2074.76 5955.26,2074.76C5955.96,2074.76 5956.46,2074.26 5956.46,2073.56ZM5994.36,2054.36C5990.06,2038.36 5985.06,2022.26 5980.26,2008.56C5979.76,2007.06 5979.06,2004.46 5978.76,2002.86C5978.56,2001.76 5976.76,2001.16 5975.16,2001.16C5973.76,2001.16 5972.56,2001.56 5972.56,2002.36C5972.56,2002.46 5972.56,2002.66 5972.66,2002.76C5977.96,2014.66 5985.46,2039.06 5990.46,2056.86C5991.46,2060.46 5993.56,2062.26 5995.26,2062.26C5996.26,2062.26 5997.16,2061.56 5997.46,2060.26C5998.26,2056.96 6010.46,2014.86 6015.86,2003.96C6015.96,2003.76 6015.96,2003.56 6015.96,2003.36C6015.96,2001.96 6013.46,2000.46 6011.86,2000.46C6011.16,2000.46 6010.66,2000.76 6010.56,2001.36C6010.06,2003.96 6008.86,2007.86 6008.36,2009.36C6004.16,2021.56 5998.86,2038.56 5994.36,2054.36ZM5960.96,2051.76C5960.96,2054.76 5960.76,2057.96 5960.76,2059.36C5960.76,2060.76 5962.96,2061.76 5964.56,2061.76C5965.46,2061.76 5966.06,2061.46 5966.06,2060.86C5966.06,2058.96 5965.86,2055.36 5965.86,2051.86L5965.86,2011.16C5965.86,2008.16 5966.06,2004.96 5966.06,2003.56C5966.06,2002.16 5963.86,2001.06 5962.26,2001.06C5961.36,2001.06 5960.66,2001.46 5960.66,2002.16C5960.66,2004.06 5960.96,2007.36 5960.96,2010.76L5960.96,2051.76Z" style="fill-rule:nonzero;"/>
        </g>
    </g>
</svg>
