<?xml version="1.0" encoding="UTF-8" standalone="no"?>
<!DOCTYPE svg PUBLIC "-//W3C//DTD SVG 1.1//EN" "http://www.w3.org/Graphics/SVG/1.1/DTD/svg11.dtd">
<svg width="100%" height="100%" viewBox="0 0 98 90" version="1.1" xmlns="http://www.w3.org/2000/svg" xmlns:xlink="http://www.w3.org/1999/xlink" xml:space="preserve" xmlns:serif="http://www.serif.com/" style="fill-rule:evenodd;clip-rule:evenodd;stroke-linejoin:round;stroke-miterlimit:2;">
    <g transform="matrix(1,0,0,1,-5637.3,-1835.56)">
        <g transform="matrix(1,0,0,1,1,0)">
            <path d="M5703.19,1860.66C5704.99,1860.66 5706.19,1859.46 5706.19,1857.46C5706.19,1855.36 5704.19,1853.06 5702.39,1853.06C5700.29,1853.06 5699.29,1854.36 5699.29,1856.36C5699.29,1858.26 5701.09,1860.66 5703.19,1860.66ZM5715.29,1924.76C5717.59,1924.76 5734.29,1907.26 5734.29,1880.16C5734.29,1852.96 5717.59,1835.56 5715.29,1835.56C5714.59,1835.56 5714.09,1836.06 5714.09,1836.76C5714.09,1837.16 5714.19,1837.66 5714.59,1838.06C5724.39,1849.76 5728.99,1865.96 5728.99,1880.16C5728.99,1894.36 5724.39,1910.56 5714.59,1922.26C5714.19,1922.66 5714.09,1923.16 5714.09,1923.56C5714.09,1924.26 5714.59,1924.76 5715.29,1924.76ZM5656.49,1923.56C5656.49,1923.16 5656.4,1922.66 5655.99,1922.26C5646.2,1910.56 5641.6,1894.36 5641.6,1880.16C5641.6,1865.96 5646.2,1849.76 5655.99,1838.06C5656.4,1837.66 5656.49,1837.16 5656.49,1836.76C5656.49,1836.06 5655.99,1835.56 5655.3,1835.56C5652.99,1835.56 5636.3,1852.96 5636.3,1880.16C5636.3,1907.26 5652.99,1924.76 5655.3,1924.76C5655.99,1924.76 5656.49,1924.26 5656.49,1923.56ZM5700.59,1900.86C5700.59,1902.06 5700.39,1906.76 5700.39,1908.06C5700.39,1909.26 5702.59,1910.16 5704.09,1910.16C5704.79,1910.16 5705.29,1909.96 5705.29,1909.46C5705.29,1907.66 5704.99,1901.86 5704.99,1900.86L5704.99,1879.56C5704.99,1877.66 5705.19,1873.66 5705.19,1872.36C5705.19,1871.16 5702.99,1870.26 5701.49,1870.26C5700.79,1870.26 5700.29,1870.46 5700.29,1870.96C5700.29,1872.76 5700.59,1878.06 5700.59,1879.56L5700.59,1900.86ZM5675.69,1903.96L5665.59,1875.86C5664.09,1870.46 5663.29,1870.46 5661.39,1870.46C5660.1,1870.46 5658.9,1870.86 5658.9,1871.66C5658.9,1871.86 5658.9,1871.96 5658.99,1872.16C5659.99,1874.26 5660.79,1875.76 5661.29,1876.96L5671.89,1905.56C5672.79,1907.76 5672.79,1908.46 5673.59,1909.26C5674.29,1909.96 5675.49,1910.66 5676.49,1910.66C5677.29,1910.66 5677.99,1910.26 5678.39,1908.86C5678.89,1907.26 5679.59,1905.56 5680.19,1904.06L5691.29,1877.96C5691.89,1876.56 5693.19,1874.06 5693.89,1872.66C5693.99,1872.56 5693.99,1872.46 5693.99,1872.26C5693.99,1871.16 5691.79,1870.16 5690.39,1870.16C5689.69,1870.16 5689.09,1870.36 5688.99,1870.96C5688.39,1872.96 5687.69,1874.96 5687.09,1876.56L5675.69,1903.96Z" style="fill-rule:nonzero;"/>
        </g>
    </g>
</svg>
