<?xml version="1.0" encoding="UTF-8" standalone="no"?>
<!DOCTYPE svg PUBLIC "-//W3C//DTD SVG 1.1//EN" "http://www.w3.org/Graphics/SVG/1.1/DTD/svg11.dtd">
<svg width="100%" height="100%" viewBox="0 0 98 90" version="1.1" xmlns="http://www.w3.org/2000/svg" xmlns:xlink="http://www.w3.org/1999/xlink" xml:space="preserve" xmlns:serif="http://www.serif.com/" style="fill-rule:evenodd;clip-rule:evenodd;stroke-linejoin:round;stroke-miterlimit:2;">
    <g transform="matrix(1,0,0,1,-5137.35,-1835.56)">
        <g transform="matrix(1,0,0,1,1,0)">
            <path d="M5185.64,1860.66C5187.54,1860.66 5188.64,1859.46 5188.64,1857.56C5188.64,1855.46 5186.74,1853.06 5184.84,1853.06C5182.84,1853.06 5181.74,1854.36 5181.74,1856.36C5181.74,1858.36 5183.64,1860.66 5185.64,1860.66ZM5215.34,1924.76C5217.64,1924.76 5234.34,1907.26 5234.34,1880.16C5234.34,1852.96 5217.64,1835.56 5215.34,1835.56C5214.64,1835.56 5214.14,1836.06 5214.14,1836.76C5214.14,1837.16 5214.24,1837.66 5214.64,1838.06C5224.44,1849.76 5229.04,1865.96 5229.04,1880.16C5229.04,1894.36 5224.44,1910.56 5214.64,1922.26C5214.24,1922.66 5214.14,1923.16 5214.14,1923.56C5214.14,1924.26 5214.64,1924.76 5215.34,1924.76ZM5156.55,1923.56C5156.55,1923.16 5156.45,1922.66 5156.05,1922.26C5146.25,1910.56 5141.65,1894.36 5141.65,1880.16C5141.65,1865.96 5146.25,1849.76 5156.05,1838.06C5156.45,1837.66 5156.55,1837.16 5156.55,1836.76C5156.55,1836.06 5156.05,1835.56 5155.35,1835.56C5153.05,1835.56 5136.35,1852.96 5136.35,1880.16C5136.35,1907.26 5153.05,1924.76 5155.35,1924.76C5156.05,1924.76 5156.55,1924.26 5156.55,1923.56ZM5183.04,1900.96C5183.04,1902.06 5182.94,1906.76 5182.94,1908.06C5182.94,1909.36 5185.14,1910.26 5186.54,1910.26C5187.24,1910.26 5187.74,1910.06 5187.74,1909.56C5187.74,1907.66 5187.54,1901.96 5187.54,1900.96L5187.54,1879.66C5187.54,1877.66 5187.64,1873.76 5187.64,1872.46C5187.64,1871.16 5185.44,1870.26 5184.04,1870.26C5183.34,1870.26 5182.84,1870.46 5182.84,1870.96C5182.84,1872.86 5183.04,1878.06 5183.04,1879.66L5183.04,1900.96Z" style="fill-rule:nonzero;"/>
        </g>
    </g>
</svg>
