<?xml version="1.0" encoding="UTF-8" standalone="no"?>
<!DOCTYPE svg PUBLIC "-//W3C//DTD SVG 1.1//EN" "http://www.w3.org/Graphics/SVG/1.1/DTD/svg11.dtd">
<svg width="100%" height="100%" viewBox="0 0 98 90" version="1.1" xmlns="http://www.w3.org/2000/svg" xmlns:xlink="http://www.w3.org/1999/xlink" xml:space="preserve" xmlns:serif="http://www.serif.com/" style="fill-rule:evenodd;clip-rule:evenodd;stroke-linejoin:round;stroke-miterlimit:2;">
    <g transform="matrix(1,0,0,1,-5437.32,-1835.56)">
        <g transform="matrix(1,0,0,1,1,0)">
            <path d="M5469.01,1860.66C5470.91,1860.66 5472.01,1859.36 5472.01,1857.46C5472.01,1855.36 5470.11,1852.96 5468.21,1852.96C5466.21,1852.96 5465.11,1854.26 5465.11,1856.36C5465.11,1858.26 5467.01,1860.66 5469.01,1860.66ZM5515.31,1924.76C5517.61,1924.76 5534.31,1907.26 5534.31,1880.16C5534.31,1852.96 5517.61,1835.56 5515.31,1835.56C5514.61,1835.56 5514.11,1836.06 5514.11,1836.76C5514.11,1837.16 5514.21,1837.66 5514.61,1838.06C5524.41,1849.76 5529.01,1865.96 5529.01,1880.16C5529.01,1894.36 5524.41,1910.56 5514.61,1922.26C5514.21,1922.66 5514.11,1923.16 5514.11,1923.56C5514.11,1924.26 5514.61,1924.76 5515.31,1924.76ZM5456.52,1923.56C5456.52,1923.16 5456.41,1922.66 5456.02,1922.26C5446.22,1910.56 5441.62,1894.36 5441.62,1880.16C5441.62,1865.96 5446.22,1849.76 5456.02,1838.06C5456.41,1837.66 5456.52,1837.16 5456.52,1836.76C5456.52,1836.06 5456.02,1835.56 5455.32,1835.56C5453.02,1835.56 5436.32,1852.96 5436.32,1880.16C5436.32,1907.26 5453.02,1924.76 5455.32,1924.76C5456.02,1924.76 5456.52,1924.26 5456.52,1923.56ZM5466.41,1900.86C5466.41,1902.06 5466.31,1906.76 5466.31,1907.96C5466.31,1909.26 5468.51,1910.16 5469.91,1910.16C5470.61,1910.16 5471.11,1909.96 5471.11,1909.46C5471.11,1907.56 5470.91,1901.86 5470.91,1900.86L5470.91,1879.56C5470.91,1877.66 5471.01,1873.66 5471.01,1872.36C5471.01,1871.06 5468.91,1870.26 5467.51,1870.26C5466.71,1870.26 5466.21,1870.46 5466.21,1870.96C5466.21,1872.76 5466.41,1878.06 5466.41,1879.56L5466.41,1900.86ZM5494.41,1903.96L5484.31,1875.86C5482.81,1870.46 5482.01,1870.46 5480.11,1870.46C5478.81,1870.46 5477.61,1870.86 5477.61,1871.66C5477.61,1871.86 5477.61,1871.96 5477.71,1872.16C5478.71,1874.26 5479.51,1875.76 5480.01,1876.96L5490.61,1905.56C5491.51,1907.76 5491.51,1908.46 5492.31,1909.26C5493.01,1909.96 5494.21,1910.66 5495.21,1910.66C5496.01,1910.66 5496.71,1910.26 5497.11,1908.86C5497.61,1907.26 5498.31,1905.56 5498.91,1904.06L5510.01,1877.96C5510.61,1876.56 5511.91,1874.06 5512.61,1872.66C5512.71,1872.56 5512.71,1872.46 5512.71,1872.26C5512.71,1871.16 5510.51,1870.16 5509.11,1870.16C5508.41,1870.16 5507.81,1870.36 5507.71,1870.96C5507.11,1872.96 5506.41,1874.96 5505.81,1876.56L5494.41,1903.96Z" style="fill-rule:nonzero;"/>
        </g>
    </g>
</svg>
