<?xml version="1.0" encoding="UTF-8" standalone="no"?>
<!DOCTYPE svg PUBLIC "-//W3C//DTD SVG 1.1//EN" "http://www.w3.org/Graphics/SVG/1.1/DTD/svg11.dtd">
<svg width="100%" height="100%" viewBox="0 0 98 90" version="1.1" xmlns="http://www.w3.org/2000/svg" xmlns:xlink="http://www.w3.org/1999/xlink" xml:space="preserve" xmlns:serif="http://www.serif.com/" style="fill-rule:evenodd;clip-rule:evenodd;stroke-linejoin:round;stroke-miterlimit:2;">
    <g transform="matrix(1,0,0,1,-5737.29,-1985.56)">
        <g transform="matrix(1,0,0,1,1,0)">
            <path d="M5815.28,2074.76C5817.58,2074.76 5834.28,2057.26 5834.28,2030.16C5834.28,2002.96 5817.58,1985.56 5815.28,1985.56C5814.58,1985.56 5814.08,1986.06 5814.08,1986.76C5814.08,1987.16 5814.18,1987.66 5814.58,1988.06C5824.38,1999.76 5828.98,2015.96 5828.98,2030.16C5828.98,2044.36 5824.38,2060.56 5814.58,2072.26C5814.18,2072.66 5814.08,2073.16 5814.08,2073.56C5814.08,2074.26 5814.58,2074.76 5815.28,2074.76ZM5756.48,2073.56C5756.48,2073.16 5756.39,2072.66 5755.98,2072.26C5746.19,2060.56 5741.59,2044.36 5741.59,2030.16C5741.59,2015.96 5746.19,1999.76 5755.98,1988.06C5756.39,1987.66 5756.48,1987.16 5756.48,1986.76C5756.48,1986.06 5755.98,1985.56 5755.28,1985.56C5752.98,1985.56 5736.29,2002.96 5736.29,2030.16C5736.29,2057.26 5752.98,2074.76 5755.28,2074.76C5755.98,2074.76 5756.48,2074.26 5756.48,2073.56ZM5795.08,2051.86C5795.08,2054.86 5794.88,2058.06 5794.88,2059.46C5794.88,2060.86 5797.18,2061.86 5798.78,2061.86C5799.58,2061.86 5800.28,2061.56 5800.28,2060.96C5800.28,2059.06 5800.08,2055.46 5800.08,2051.96L5800.08,2011.26C5800.08,2008.26 5800.28,2005.06 5800.28,2003.66C5800.28,2002.26 5797.98,2001.16 5796.38,2001.16C5795.48,2001.16 5794.78,2001.56 5794.78,2002.26C5794.78,2004.16 5795.08,2007.46 5795.08,2010.86L5795.08,2051.86ZM5770.48,2051.86C5770.48,2054.86 5770.28,2058.06 5770.28,2059.46C5770.28,2060.86 5772.58,2061.86 5774.28,2061.86C5775.08,2061.86 5775.78,2061.56 5775.78,2060.96C5775.78,2059.06 5775.48,2055.46 5775.48,2051.96L5775.48,2011.26C5775.48,2008.26 5775.68,2005.06 5775.68,2003.66C5775.68,2002.26 5773.48,2001.16 5771.88,2001.16C5770.98,2001.16 5770.28,2001.56 5770.28,2002.26C5770.28,2004.16 5770.48,2007.46 5770.48,2010.86L5770.48,2051.86Z" style="fill-rule:nonzero;"/>
        </g>
    </g>
</svg>
