<?xml version="1.0" encoding="UTF-8" standalone="no"?>
<!DOCTYPE svg PUBLIC "-//W3C//DTD SVG 1.1//EN" "http://www.w3.org/Graphics/SVG/1.1/DTD/svg11.dtd">
<svg width="100%" height="100%" viewBox="0 0 98 90" version="1.1" xmlns="http://www.w3.org/2000/svg" xmlns:xlink="http://www.w3.org/1999/xlink" xml:space="preserve" xmlns:serif="http://www.serif.com/" style="fill-rule:evenodd;clip-rule:evenodd;stroke-linejoin:round;stroke-miterlimit:2;">
    <g transform="matrix(1,0,0,1,-5937.27,-2135.56)">
        <g transform="matrix(1,0,0,1,1,0)">
            <path d="M6015.26,2224.76C6017.56,2224.76 6034.26,2207.26 6034.26,2180.16C6034.26,2152.96 6017.56,2135.56 6015.26,2135.56C6014.56,2135.56 6014.06,2136.06 6014.06,2136.76C6014.06,2137.16 6014.16,2137.66 6014.56,2138.06C6024.36,2149.76 6028.96,2165.96 6028.96,2180.16C6028.96,2194.36 6024.36,2210.56 6014.56,2222.26C6014.16,2222.66 6014.06,2223.16 6014.06,2223.56C6014.06,2224.26 6014.56,2224.76 6015.26,2224.76ZM5964.56,2184.36C5967.76,2190.46 5973.86,2202.96 5977.26,2210.96C5977.56,2211.56 5978.06,2211.76 5978.66,2211.76C5980.26,2211.76 5982.46,2210.36 5982.46,2208.96C5982.46,2208.76 5982.36,2208.46 5982.26,2208.26C5979.36,2204.16 5977.26,2200.16 5966.96,2179.56C5976.46,2160.76 5979.76,2155.96 5980.86,2154.36C5980.96,2154.16 5981.06,2153.96 5981.06,2153.76C5981.06,2152.36 5978.76,2150.96 5977.26,2150.96C5976.66,2150.96 5976.26,2151.16 5976.06,2151.56C5974.56,2154.96 5969.66,2164.66 5964.56,2174.76C5961.96,2169.36 5958.76,2163.26 5956.16,2158.06C5954.96,2155.76 5954.07,2153.66 5953.07,2151.56C5952.86,2151.06 5952.27,2150.86 5951.47,2150.86C5949.97,2150.86 5947.86,2151.76 5947.86,2153.06C5947.86,2153.26 5947.97,2153.56 5948.16,2153.86C5950.66,2157.36 5952.47,2160.56 5962.16,2179.36C5949.97,2203.16 5949.66,2203.66 5947.16,2207.66C5943.37,2198.76 5941.57,2189.06 5941.57,2180.16C5941.57,2165.96 5946.16,2149.76 5955.96,2138.06C5956.36,2137.66 5956.46,2137.16 5956.46,2136.76C5956.46,2136.06 5955.96,2135.56 5955.26,2135.56C5952.97,2135.56 5936.27,2152.96 5936.27,2180.16C5936.27,2207.26 5952.97,2224.76 5955.26,2224.76C5955.96,2224.76 5956.46,2224.26 5956.46,2223.56C5956.46,2223.16 5956.36,2222.66 5955.96,2222.26C5953.27,2219.06 5950.97,2215.56 5949.07,2211.76C5949.36,2211.76 5949.57,2211.86 5949.86,2211.86C5950.66,2211.86 5951.36,2211.56 5951.66,2210.86C5951.77,2210.66 5958.36,2196.66 5964.56,2184.36ZM6006.86,2204.26L5997.26,2157.56C5996.86,2155.76 5996.56,2154.46 5996.36,2152.86C5996.16,2151.76 5994.06,2151.16 5992.36,2151.16C5991.06,2151.16 5990.06,2151.46 5990.06,2152.06C5990.06,2152.16 5990.06,2152.36 5990.16,2152.46C5990.96,2154.36 5991.66,2156.16 5992.16,2158.56C5992.16,2158.56 5999.36,2190.16 6002.86,2206.86C6003.36,2209.66 6006.16,2212.16 6008.06,2212.16C6008.96,2212.16 6009.66,2211.56 6009.96,2210.26C6010.26,2208.36 6011.16,2205.56 6011.46,2204.06C6021.96,2158.56 6022.26,2157.46 6023.36,2154.86C6023.46,2154.66 6023.46,2154.46 6023.46,2154.26C6023.46,2152.46 6020.86,2150.66 6019.26,2150.66C6018.66,2150.66 6018.26,2150.96 6018.16,2151.56C6017.96,2153.86 6017.66,2155.86 6017.06,2158.46L6006.86,2204.26ZM5983.96,2201.76C5983.96,2204.76 5983.76,2207.96 5983.76,2209.36C5983.76,2210.76 5986.06,2211.76 5987.66,2211.76C5988.46,2211.76 5989.16,2211.46 5989.16,2210.86C5989.16,2208.86 5988.86,2205.36 5988.86,2201.86L5988.86,2161.16C5988.86,2158.16 5989.06,2154.96 5989.06,2153.56C5989.06,2152.16 5986.76,2151.06 5985.26,2151.06C5984.36,2151.06 5983.66,2151.36 5983.66,2152.16C5983.66,2154.06 5983.96,2157.26 5983.96,2160.76L5983.96,2201.76Z" style="fill-rule:nonzero;"/>
        </g>
    </g>
</svg>
