<?xml version="1.0" encoding="UTF-8" standalone="no"?>
<!DOCTYPE svg PUBLIC "-//W3C//DTD SVG 1.1//EN" "http://www.w3.org/Graphics/SVG/1.1/DTD/svg11.dtd">
<svg width="100%" height="100%" viewBox="0 0 98 90" version="1.1" xmlns="http://www.w3.org/2000/svg" xmlns:xlink="http://www.w3.org/1999/xlink" xml:space="preserve" xmlns:serif="http://www.serif.com/" style="fill-rule:evenodd;clip-rule:evenodd;stroke-linejoin:round;stroke-miterlimit:2;">
    <g transform="matrix(1,0,0,1,-5437.32,-1985.56)">
        <g transform="matrix(1,0,0,1,1,0)">
            <path d="M5456.52,2073.56C5456.52,2073.16 5456.41,2072.66 5456.02,2072.26C5446.22,2060.56 5441.62,2044.36 5441.62,2030.16C5441.62,2015.96 5446.22,1999.76 5456.02,1988.06C5456.41,1987.66 5456.52,1987.16 5456.52,1986.76C5456.52,1986.06 5456.02,1985.56 5455.32,1985.56C5453.02,1985.56 5436.32,2002.96 5436.32,2030.16C5436.32,2057.26 5453.02,2074.76 5455.32,2074.76C5456.02,2074.76 5456.52,2074.26 5456.52,2073.56ZM5515.31,2074.76C5517.61,2074.76 5534.31,2057.26 5534.31,2030.16C5534.31,2002.96 5517.61,1985.56 5515.31,1985.56C5514.61,1985.56 5514.11,1986.06 5514.11,1986.76C5514.11,1987.16 5514.21,1987.66 5514.61,1988.06C5524.41,1999.76 5529.01,2015.96 5529.01,2030.16C5529.01,2044.36 5524.41,2060.56 5514.61,2072.26C5514.21,2072.66 5514.11,2073.16 5514.11,2073.56C5514.11,2074.26 5514.61,2074.76 5515.31,2074.76ZM5473.41,2054.76C5474.31,2056.16 5475.31,2057.76 5476.21,2059.46C5476.51,2059.96 5477.21,2060.26 5478.01,2060.26C5479.51,2060.26 5481.41,2059.46 5481.41,2058.56C5481.41,2058.36 5481.31,2058.26 5481.21,2058.06C5479.81,2056.36 5477.61,2053.86 5476.61,2052.16L5468.61,2039.66L5476.41,2027.36C5477.21,2026.16 5478.91,2023.86 5480.01,2022.56C5480.11,2022.36 5480.21,2022.26 5480.21,2022.06C5480.21,2021.26 5478.31,2020.36 5476.91,2020.36C5476.21,2020.36 5475.71,2020.56 5475.51,2020.96C5474.91,2022.06 5474.11,2023.66 5473.21,2024.96L5466.21,2035.96L5459.52,2025.26L5457.22,2021.26C5457.02,2020.86 5456.52,2020.76 5455.91,2020.76C5454.42,2020.76 5452.42,2021.56 5452.42,2022.46C5452.42,2022.56 5452.52,2022.76 5452.62,2022.86C5454.02,2024.46 5455.32,2026.06 5456.32,2027.66L5463.82,2039.66L5455.82,2052.26C5454.82,2053.96 5452.62,2056.56 5451.02,2058.26C5450.82,2058.46 5450.82,2058.56 5450.82,2058.76C5450.82,2059.56 5452.72,2060.36 5454.22,2060.36C5455.82,2060.36 5455.82,2060.36 5459.02,2054.86L5466.31,2043.36L5473.41,2054.76ZM5505.21,2054.06L5496.31,2026.06C5496.01,2025.16 5495.51,2022.86 5495.21,2021.86C5494.91,2021.06 5493.81,2020.66 5492.71,2020.66C5491.41,2020.66 5490.11,2021.16 5490.11,2021.96C5490.11,2022.06 5490.11,2022.26 5490.21,2022.36C5490.91,2023.96 5491.71,2025.96 5492.11,2027.16L5501.51,2055.66C5502.41,2057.86 5502.41,2058.56 5503.21,2059.46C5503.91,2060.16 5505.01,2060.86 5505.91,2060.86C5506.71,2060.86 5507.31,2060.36 5507.71,2059.06C5508.21,2057.36 5508.91,2055.66 5509.51,2054.16L5518.91,2028.26C5519.51,2026.66 5520.51,2024.56 5521.41,2022.96C5521.51,2022.86 5521.51,2022.76 5521.51,2022.56C5521.51,2021.46 5519.31,2020.46 5517.91,2020.46C5517.31,2020.46 5516.71,2020.66 5516.61,2021.16C5516.11,2022.86 5515.61,2025.06 5514.91,2026.86L5505.21,2054.06ZM5483.71,2050.96C5483.71,2052.16 5483.51,2056.86 5483.51,2058.16C5483.51,2059.36 5485.71,2060.26 5487.21,2060.26C5487.91,2060.26 5488.41,2060.06 5488.41,2059.56C5488.41,2057.76 5488.11,2051.96 5488.11,2050.96L5488.11,2029.66C5488.11,2027.76 5488.31,2023.76 5488.31,2022.46C5488.31,2021.26 5486.11,2020.36 5484.61,2020.36C5483.91,2020.36 5483.41,2020.56 5483.41,2021.06C5483.41,2022.86 5483.71,2028.16 5483.71,2029.66L5483.71,2050.96ZM5486.31,2010.76C5488.11,2010.76 5489.31,2009.56 5489.31,2007.56C5489.31,2005.46 5487.31,2003.16 5485.51,2003.16C5483.41,2003.16 5482.41,2004.46 5482.41,2006.46C5482.41,2008.36 5484.31,2010.76 5486.31,2010.76Z" style="fill-rule:nonzero;"/>
        </g>
    </g>
</svg>
