<?xml version="1.0" encoding="UTF-8" standalone="no"?>
<!DOCTYPE svg PUBLIC "-//W3C//DTD SVG 1.1//EN" "http://www.w3.org/Graphics/SVG/1.1/DTD/svg11.dtd">
<svg width="100%" height="100%" viewBox="0 0 98 90" version="1.1" xmlns="http://www.w3.org/2000/svg" xmlns:xlink="http://www.w3.org/1999/xlink" xml:space="preserve" xmlns:serif="http://www.serif.com/" style="fill-rule:evenodd;clip-rule:evenodd;stroke-linejoin:round;stroke-miterlimit:2;">
    <g transform="matrix(1,0,0,1,-5837.28,-1835.56)">
        <g transform="matrix(1,0,0,1,1,0)">
            <path d="M5856.48,1923.56C5856.48,1923.16 5856.38,1922.66 5855.98,1922.26C5846.18,1910.56 5841.58,1894.36 5841.58,1880.16C5841.58,1865.96 5846.18,1849.76 5855.98,1838.06C5856.38,1837.66 5856.48,1837.16 5856.48,1836.76C5856.48,1836.06 5855.98,1835.56 5855.28,1835.56C5852.98,1835.56 5836.28,1852.96 5836.28,1880.16C5836.28,1907.26 5852.98,1924.76 5855.28,1924.76C5855.98,1924.76 5856.48,1924.26 5856.48,1923.56ZM5915.27,1924.76C5917.57,1924.76 5934.27,1907.26 5934.27,1880.16C5934.27,1852.96 5917.57,1835.56 5915.27,1835.56C5914.57,1835.56 5914.07,1836.06 5914.07,1836.76C5914.07,1837.16 5914.17,1837.66 5914.57,1838.06C5924.37,1849.76 5928.97,1865.96 5928.97,1880.16C5928.97,1894.36 5924.37,1910.56 5914.57,1922.26C5914.17,1922.66 5914.07,1923.16 5914.07,1923.56C5914.07,1924.26 5914.57,1924.76 5915.27,1924.76ZM5865.57,1904.06L5856.28,1875.96L5855.07,1871.76C5854.78,1870.96 5853.68,1870.66 5852.48,1870.66C5851.28,1870.66 5849.98,1871.06 5849.98,1871.96C5849.98,1872.06 5849.98,1872.26 5850.07,1872.36C5850.88,1874.06 5851.57,1875.76 5852.07,1877.16L5861.87,1905.76C5862.77,1907.86 5862.77,1908.56 5863.57,1909.46C5864.27,1910.16 5865.37,1910.86 5866.27,1910.86C5867.07,1910.86 5867.67,1910.36 5868.07,1909.06C5868.57,1907.46 5869.17,1905.76 5869.87,1904.16L5879.67,1878.06C5880.27,1876.56 5881.27,1874.36 5882.07,1872.86C5882.17,1872.76 5882.17,1872.56 5882.17,1872.46C5882.17,1871.36 5880.07,1870.26 5878.67,1870.26C5877.97,1870.26 5877.47,1870.56 5877.27,1871.06C5876.87,1872.76 5876.37,1874.96 5875.57,1876.76L5865.57,1904.06ZM5911.37,1901.06C5911.37,1902.16 5911.27,1906.86 5911.27,1908.16C5911.27,1909.46 5913.37,1910.26 5914.77,1910.26C5915.57,1910.26 5916.07,1910.06 5916.07,1909.56C5916.07,1907.76 5915.87,1901.96 5915.87,1901.06L5915.87,1879.76C5915.87,1877.76 5916.07,1873.76 5916.07,1872.56C5916.07,1871.26 5913.87,1870.36 5912.37,1870.36C5911.67,1870.36 5911.17,1870.56 5911.17,1871.06C5911.17,1872.96 5911.37,1878.16 5911.37,1879.76L5911.37,1901.06ZM5885.97,1901.06C5885.97,1902.16 5885.77,1906.86 5885.77,1908.16C5885.77,1909.46 5887.97,1910.26 5889.37,1910.26C5890.07,1910.26 5890.67,1910.06 5890.67,1909.56C5890.67,1907.76 5890.47,1901.96 5890.47,1901.06L5890.47,1879.76C5890.47,1877.76 5890.57,1873.76 5890.57,1872.56C5890.57,1871.26 5888.37,1870.36 5886.97,1870.36C5886.27,1870.36 5885.77,1870.56 5885.77,1871.06C5885.77,1872.96 5885.97,1878.16 5885.97,1879.76L5885.97,1901.06ZM5898.67,1901.06C5898.67,1902.16 5898.57,1906.86 5898.57,1908.16C5898.57,1909.46 5900.67,1910.26 5902.07,1910.26C5902.87,1910.26 5903.37,1910.06 5903.37,1909.56C5903.37,1907.76 5903.17,1901.96 5903.17,1901.06L5903.17,1879.76C5903.17,1877.76 5903.27,1873.76 5903.27,1872.56C5903.27,1871.26 5901.07,1870.36 5899.67,1870.36C5898.97,1870.36 5898.47,1870.56 5898.47,1871.06C5898.47,1872.96 5898.67,1878.16 5898.67,1879.76L5898.67,1901.06ZM5901.27,1860.76C5903.17,1860.76 5904.27,1859.56 5904.27,1857.56C5904.27,1855.46 5902.37,1853.16 5900.47,1853.16C5898.47,1853.16 5897.37,1854.46 5897.37,1856.46C5897.37,1858.46 5899.27,1860.76 5901.27,1860.76ZM5913.97,1860.76C5915.87,1860.76 5916.97,1859.56 5916.97,1857.56C5916.97,1855.46 5915.07,1853.16 5913.17,1853.16C5911.17,1853.16 5910.07,1854.46 5910.07,1856.46C5910.07,1858.46 5911.97,1860.76 5913.97,1860.76ZM5888.57,1860.76C5890.47,1860.76 5891.57,1859.56 5891.57,1857.56C5891.57,1855.46 5889.67,1853.16 5887.77,1853.16C5885.77,1853.16 5884.67,1854.46 5884.67,1856.46C5884.67,1858.46 5886.57,1860.76 5888.57,1860.76Z" style="fill-rule:nonzero;"/>
        </g>
    </g>
</svg>
