<?xml version="1.0" encoding="UTF-8" standalone="no"?>
<!DOCTYPE svg PUBLIC "-//W3C//DTD SVG 1.1//EN" "http://www.w3.org/Graphics/SVG/1.1/DTD/svg11.dtd">
<svg width="100%" height="100%" viewBox="0 0 98 90" version="1.1" xmlns="http://www.w3.org/2000/svg" xmlns:xlink="http://www.w3.org/1999/xlink" xml:space="preserve" xmlns:serif="http://www.serif.com/" style="fill-rule:evenodd;clip-rule:evenodd;stroke-linejoin:round;stroke-miterlimit:2;">
    <g transform="matrix(1,0,0,1,-5537.31,-1835.56)">
        <g transform="matrix(1,0,0,1,1,0)">
            <path d="M5615.3,1924.76C5617.6,1924.76 5634.3,1907.26 5634.3,1880.16C5634.3,1852.96 5617.6,1835.56 5615.3,1835.56C5614.6,1835.56 5614.1,1836.06 5614.1,1836.76C5614.1,1837.16 5614.2,1837.66 5614.6,1838.06C5624.4,1849.76 5629,1865.96 5629,1880.16C5629,1894.36 5624.4,1910.56 5614.6,1922.26C5614.2,1922.66 5614.1,1923.16 5614.1,1923.56C5614.1,1924.26 5614.6,1924.76 5615.3,1924.76ZM5556.51,1923.56C5556.51,1923.16 5556.4,1922.66 5556.01,1922.26C5546.21,1910.56 5541.61,1894.36 5541.61,1880.16C5541.61,1865.96 5546.21,1849.76 5556.01,1838.06C5556.4,1837.66 5556.51,1837.16 5556.51,1836.76C5556.51,1836.06 5556.01,1835.56 5555.31,1835.56C5553.01,1835.56 5536.31,1852.96 5536.31,1880.16C5536.31,1907.26 5553.01,1924.76 5555.31,1924.76C5556.01,1924.76 5556.51,1924.26 5556.51,1923.56ZM5585.3,1903.96L5575.2,1875.86C5573.7,1870.46 5572.9,1870.46 5571,1870.46C5569.7,1870.46 5568.5,1870.86 5568.5,1871.66C5568.5,1871.86 5568.5,1871.96 5568.6,1872.16C5569.6,1874.26 5570.4,1875.76 5570.9,1876.96L5581.5,1905.56C5582.4,1907.76 5582.4,1908.46 5583.2,1909.26C5583.9,1909.96 5585.1,1910.66 5586.1,1910.66C5586.9,1910.66 5587.6,1910.26 5588,1908.86C5588.5,1907.26 5589.2,1905.56 5589.8,1904.06L5600.9,1877.96C5601.5,1876.56 5602.8,1874.06 5603.5,1872.66C5603.6,1872.56 5603.6,1872.46 5603.6,1872.26C5603.6,1871.16 5601.4,1870.16 5600,1870.16C5599.3,1870.16 5598.7,1870.36 5598.6,1870.96C5598,1872.96 5597.3,1874.96 5596.7,1876.56L5585.3,1903.96Z" style="fill-rule:nonzero;"/>
        </g>
    </g>
</svg>
