<?xml version="1.0" encoding="UTF-8" standalone="no"?>
<!DOCTYPE svg PUBLIC "-//W3C//DTD SVG 1.1//EN" "http://www.w3.org/Graphics/SVG/1.1/DTD/svg11.dtd">
<svg width="100%" height="100%" viewBox="0 0 98 90" version="1.1" xmlns="http://www.w3.org/2000/svg" xmlns:xlink="http://www.w3.org/1999/xlink" xml:space="preserve" xmlns:serif="http://www.serif.com/" style="fill-rule:evenodd;clip-rule:evenodd;stroke-linejoin:round;stroke-miterlimit:2;">
    <g transform="matrix(1,0,0,1,-5937.27,-1835.56)">
        <g transform="matrix(1,0,0,1,1,0)">
            <path d="M5968.56,1860.66C5970.46,1860.66 5971.56,1859.46 5971.56,1857.56C5971.56,1855.46 5969.66,1853.06 5967.76,1853.06C5965.76,1853.06 5964.76,1854.36 5964.76,1856.36C5964.76,1858.36 5966.56,1860.66 5968.56,1860.66ZM6015.26,1924.76C6017.56,1924.76 6034.26,1907.26 6034.26,1880.16C6034.26,1852.96 6017.56,1835.56 6015.26,1835.56C6014.56,1835.56 6014.06,1836.06 6014.06,1836.76C6014.06,1837.16 6014.16,1837.66 6014.56,1838.06C6024.36,1849.76 6028.96,1865.96 6028.96,1880.16C6028.96,1894.36 6024.36,1910.56 6014.56,1922.26C6014.16,1922.66 6014.06,1923.16 6014.06,1923.56C6014.06,1924.26 6014.56,1924.76 6015.26,1924.76ZM5956.46,1923.56C5956.46,1923.16 5956.36,1922.66 5955.96,1922.26C5946.16,1910.56 5941.57,1894.36 5941.57,1880.16C5941.57,1865.96 5946.16,1849.76 5955.96,1838.06C5956.36,1837.66 5956.46,1837.16 5956.46,1836.76C5956.46,1836.06 5955.96,1835.56 5955.26,1835.56C5952.97,1835.56 5936.27,1852.96 5936.27,1880.16C5936.27,1907.26 5952.97,1924.76 5955.26,1924.76C5955.96,1924.76 5956.46,1924.26 5956.46,1923.56ZM5966.06,1900.96C5966.06,1902.06 5965.86,1906.76 5965.86,1908.06C5965.86,1909.36 5968.06,1910.26 5969.46,1910.26C5970.16,1910.26 5970.66,1910.06 5970.66,1909.56C5970.66,1907.66 5970.46,1901.96 5970.46,1900.96L5970.46,1879.66C5970.46,1877.66 5970.66,1873.76 5970.66,1872.46C5970.66,1871.16 5968.46,1870.26 5966.96,1870.26C5966.26,1870.26 5965.76,1870.46 5965.76,1870.96C5965.76,1872.86 5966.06,1878.06 5966.06,1879.66L5966.06,1900.96ZM6002.96,1904.66C6003.96,1905.96 6005.46,1908.16 6006.16,1909.36C6006.46,1909.86 6007.26,1910.06 6008.16,1910.06C6009.66,1910.06 6011.46,1909.46 6011.46,1908.56C6011.46,1908.36 6011.46,1908.16 6011.26,1907.96C6009.76,1906.36 6007.36,1903.66 6006.06,1902.06L5996.86,1889.56L6005.96,1877.26C6007.26,1875.56 6008.66,1874.16 6010.26,1872.56C6010.36,1872.46 6010.46,1872.26 6010.46,1872.16C6010.46,1871.26 6008.16,1870.36 6006.56,1870.36C6005.96,1870.36 6005.46,1870.56 6005.26,1870.86C6004.76,1871.86 6003.86,1873.46 6002.76,1874.86L5994.36,1886.16L5986.16,1875.16C5985.16,1873.86 5984.26,1872.26 5983.66,1871.26C5983.46,1870.96 5982.96,1870.76 5982.36,1870.76C5980.76,1870.76 5978.56,1871.56 5978.56,1872.46C5978.56,1872.56 5978.66,1872.76 5978.76,1872.86C5980.36,1874.46 5982.06,1876.26 5983.06,1877.66L5991.86,1889.56L5982.56,1902.26C5981.16,1904.06 5978.96,1906.56 5977.36,1908.16C5977.16,1908.36 5977.16,1908.46 5977.16,1908.66C5977.16,1909.46 5978.96,1910.26 5980.56,1910.26C5981.46,1910.26 5982.16,1910.06 5982.46,1909.56C5983.26,1908.26 5984.76,1906.06 5985.66,1904.86L5994.36,1892.96L6002.96,1904.66Z" style="fill-rule:nonzero;"/>
        </g>
    </g>
</svg>
