<?xml version="1.0" encoding="UTF-8" standalone="no"?>
<!DOCTYPE svg PUBLIC "-//W3C//DTD SVG 1.1//EN" "http://www.w3.org/Graphics/SVG/1.1/DTD/svg11.dtd">
<svg width="100%" height="100%" viewBox="0 0 98 90" version="1.1" xmlns="http://www.w3.org/2000/svg" xmlns:xlink="http://www.w3.org/1999/xlink" xml:space="preserve" xmlns:serif="http://www.serif.com/" style="fill-rule:evenodd;clip-rule:evenodd;stroke-linejoin:round;stroke-miterlimit:2;">
    <g transform="matrix(1,0,0,1,-5737.29,-1835.56)">
        <g transform="matrix(1,0,0,1,1,0)">
            <path d="M5811.08,1860.76C5812.98,1860.76 5814.08,1859.46 5814.08,1857.56C5814.08,1855.46 5812.18,1853.06 5810.28,1853.06C5808.28,1853.06 5807.18,1854.36 5807.18,1856.46C5807.18,1858.36 5809.08,1860.76 5811.08,1860.76ZM5796.88,1860.76C5798.68,1860.76 5799.88,1859.46 5799.88,1857.56C5799.88,1855.46 5797.88,1853.06 5795.98,1853.06C5793.98,1853.06 5792.98,1854.36 5792.98,1856.46C5792.98,1858.36 5794.78,1860.76 5796.88,1860.76ZM5815.28,1924.76C5817.58,1924.76 5834.28,1907.26 5834.28,1880.16C5834.28,1852.96 5817.58,1835.56 5815.28,1835.56C5814.58,1835.56 5814.08,1836.06 5814.08,1836.76C5814.08,1837.16 5814.18,1837.66 5814.58,1838.06C5824.38,1849.76 5828.98,1865.96 5828.98,1880.16C5828.98,1894.36 5824.38,1910.56 5814.58,1922.26C5814.18,1922.66 5814.08,1923.16 5814.08,1923.56C5814.08,1924.26 5814.58,1924.76 5815.28,1924.76ZM5756.48,1923.56C5756.48,1923.16 5756.39,1922.66 5755.98,1922.26C5746.19,1910.56 5741.59,1894.36 5741.59,1880.16C5741.59,1865.96 5746.19,1849.76 5755.98,1838.06C5756.39,1837.66 5756.48,1837.16 5756.48,1836.76C5756.48,1836.06 5755.98,1835.56 5755.28,1835.56C5752.98,1835.56 5736.29,1852.96 5736.29,1880.16C5736.29,1907.26 5752.98,1924.76 5755.28,1924.76C5755.98,1924.76 5756.48,1924.26 5756.48,1923.56ZM5808.48,1900.96C5808.48,1902.06 5808.38,1906.76 5808.38,1908.06C5808.38,1909.36 5810.58,1910.26 5811.98,1910.26C5812.68,1910.26 5813.18,1910.06 5813.18,1909.56C5813.18,1907.66 5812.98,1901.96 5812.98,1900.96L5812.98,1879.66C5812.98,1877.76 5813.08,1873.76 5813.08,1872.46C5813.08,1871.16 5810.88,1870.26 5809.48,1870.26C5808.78,1870.26 5808.28,1870.46 5808.28,1870.96C5808.28,1872.86 5808.48,1878.16 5808.48,1879.66L5808.48,1900.96ZM5794.28,1900.96C5794.28,1902.06 5794.08,1906.76 5794.08,1908.06C5794.08,1909.36 5796.28,1910.26 5797.78,1910.26C5798.48,1910.26 5798.98,1910.06 5798.98,1909.56C5798.98,1907.66 5798.68,1901.96 5798.68,1900.96L5798.68,1879.66C5798.68,1877.76 5798.88,1873.76 5798.88,1872.46C5798.88,1871.16 5796.68,1870.26 5795.18,1870.26C5794.48,1870.26 5793.98,1870.46 5793.98,1870.96C5793.98,1872.86 5794.28,1878.16 5794.28,1879.66L5794.28,1900.96ZM5771.28,1904.06L5761.88,1875.96C5761.48,1874.86 5760.88,1872.86 5760.58,1871.76C5760.28,1870.96 5759.18,1870.56 5757.98,1870.56C5756.69,1870.56 5755.39,1870.96 5755.39,1871.86C5755.39,1871.96 5755.39,1872.16 5755.48,1872.26C5756.48,1874.36 5757.19,1875.96 5757.59,1877.06L5767.48,1905.66C5768.28,1907.86 5768.28,1908.46 5769.18,1909.36C5769.88,1910.06 5770.88,1910.76 5771.88,1910.76C5772.68,1910.76 5773.48,1910.36 5773.88,1908.96C5774.28,1907.36 5774.98,1905.66 5775.58,1904.16L5785.88,1878.06C5786.48,1876.56 5787.68,1874.16 5788.38,1872.76C5788.48,1872.66 5788.48,1872.56 5788.48,1872.36C5788.48,1871.26 5786.28,1870.26 5784.88,1870.26C5784.18,1870.26 5783.58,1870.46 5783.48,1870.96C5782.88,1873.06 5782.38,1874.96 5781.68,1876.66L5771.28,1904.06Z" style="fill-rule:nonzero;"/>
        </g>
    </g>
</svg>
