<?xml version="1.0" encoding="UTF-8" standalone="no"?>
<!DOCTYPE svg PUBLIC "-//W3C//DTD SVG 1.1//EN" "http://www.w3.org/Graphics/SVG/1.1/DTD/svg11.dtd">
<svg width="100%" height="100%" viewBox="0 0 98 90" version="1.1" xmlns="http://www.w3.org/2000/svg" xmlns:xlink="http://www.w3.org/1999/xlink" xml:space="preserve" xmlns:serif="http://www.serif.com/" style="fill-rule:evenodd;clip-rule:evenodd;stroke-linejoin:round;stroke-miterlimit:2;">
    <g transform="matrix(1,0,0,1,-6037.26,-1835.56)">
        <g transform="matrix(1,0,0,1,1,0)">
            <path d="M6115.25,1924.76C6117.55,1924.76 6134.25,1907.26 6134.25,1880.16C6134.25,1852.96 6117.55,1835.56 6115.25,1835.56C6114.55,1835.56 6114.05,1836.06 6114.05,1836.76C6114.05,1837.16 6114.15,1837.66 6114.55,1838.06C6124.35,1849.76 6128.95,1865.96 6128.95,1880.16C6128.95,1894.36 6124.35,1910.56 6114.55,1922.26C6114.15,1922.66 6114.05,1923.16 6114.05,1923.56C6114.05,1924.26 6114.55,1924.76 6115.25,1924.76ZM6056.45,1923.56C6056.45,1923.16 6056.35,1922.66 6055.95,1922.26C6046.15,1910.56 6041.56,1894.36 6041.56,1880.16C6041.56,1865.96 6046.15,1849.76 6055.95,1838.06C6056.35,1837.66 6056.45,1837.16 6056.45,1836.76C6056.45,1836.06 6055.95,1835.56 6055.25,1835.56C6052.95,1835.56 6036.26,1852.96 6036.26,1880.16C6036.26,1907.26 6052.95,1924.76 6055.25,1924.76C6055.95,1924.76 6056.45,1924.26 6056.45,1923.56ZM6094.15,1904.76C6095.15,1906.06 6096.75,1908.16 6097.45,1909.46C6097.75,1909.96 6098.55,1910.16 6099.35,1910.16C6100.95,1910.16 6102.75,1909.46 6102.75,1908.56C6102.75,1908.46 6102.75,1908.26 6102.55,1908.06C6101.05,1906.46 6098.65,1903.96 6097.35,1902.16L6087.95,1889.66L6097.15,1877.36C6098.35,1875.76 6099.85,1874.16 6101.45,1872.56C6101.55,1872.46 6101.65,1872.26 6101.65,1872.16C6101.65,1871.26 6099.45,1870.46 6097.95,1870.46C6097.25,1870.46 6096.75,1870.56 6096.55,1870.96C6095.95,1871.96 6095.05,1873.66 6094.05,1874.96L6085.45,1886.36L6077.15,1875.26C6076.25,1874.06 6075.15,1872.36 6074.55,1871.26C6074.35,1870.96 6073.85,1870.76 6073.25,1870.76C6071.65,1870.76 6069.45,1871.56 6069.45,1872.46C6069.45,1872.56 6069.55,1872.76 6069.65,1872.86C6071.25,1874.46 6072.95,1876.36 6073.95,1877.66L6082.95,1889.66L6073.45,1902.26C6072.05,1904.06 6069.85,1906.56 6068.25,1908.16C6068.05,1908.36 6068.05,1908.56 6068.05,1908.66C6068.05,1909.56 6069.85,1910.26 6071.45,1910.26C6072.35,1910.26 6073.05,1910.06 6073.35,1909.56C6074.15,1908.26 6075.65,1906.16 6076.65,1904.86L6085.45,1893.06L6094.15,1904.76Z" style="fill-rule:nonzero;"/>
        </g>
    </g>
</svg>
