<?xml version="1.0" encoding="UTF-8" standalone="no"?>
<!DOCTYPE svg PUBLIC "-//W3C//DTD SVG 1.1//EN" "http://www.w3.org/Graphics/SVG/1.1/DTD/svg11.dtd">
<svg width="100%" height="100%" viewBox="0 0 98 90" version="1.1" xmlns="http://www.w3.org/2000/svg" xmlns:xlink="http://www.w3.org/1999/xlink" xml:space="preserve" xmlns:serif="http://www.serif.com/" style="fill-rule:evenodd;clip-rule:evenodd;stroke-linejoin:round;stroke-miterlimit:2;">
    <g transform="matrix(1,0,0,1,-5237.34,-1985.56)">
        <g transform="matrix(1,0,0,1,1,0)">
            <path d="M5312.63,2010.76C5314.53,2010.76 5315.63,2009.56 5315.63,2007.56C5315.63,2005.46 5313.73,2003.16 5311.83,2003.16C5309.83,2003.16 5308.73,2004.46 5308.73,2006.46C5308.73,2008.36 5310.63,2010.76 5312.63,2010.76ZM5298.33,2010.76C5300.13,2010.76 5301.33,2009.56 5301.33,2007.56C5301.33,2005.46 5299.33,2003.16 5297.53,2003.16C5295.43,2003.16 5294.43,2004.46 5294.43,2006.46C5294.43,2008.36 5296.23,2010.76 5298.33,2010.76ZM5315.33,2074.76C5317.63,2074.76 5334.33,2057.26 5334.33,2030.16C5334.33,2002.96 5317.63,1985.56 5315.33,1985.56C5314.63,1985.56 5314.13,1986.06 5314.13,1986.76C5314.13,1987.16 5314.23,1987.66 5314.63,1988.06C5324.43,1999.76 5329.03,2015.96 5329.03,2030.16C5329.03,2044.36 5324.43,2060.56 5314.63,2072.26C5314.23,2072.66 5314.13,2073.16 5314.13,2073.56C5314.13,2074.26 5314.63,2074.76 5315.33,2074.76ZM5256.54,2073.56C5256.54,2073.16 5256.44,2072.66 5256.04,2072.26C5246.24,2060.56 5241.64,2044.36 5241.64,2030.16C5241.64,2015.96 5246.24,1999.76 5256.04,1988.06C5256.44,1987.66 5256.54,1987.16 5256.54,1986.76C5256.54,1986.06 5256.04,1985.56 5255.34,1985.56C5253.04,1985.56 5236.34,2002.96 5236.34,2030.16C5236.34,2057.26 5253.04,2074.76 5255.34,2074.76C5256.04,2074.76 5256.54,2074.26 5256.54,2073.56ZM5310.03,2050.96C5310.03,2052.16 5309.83,2056.86 5309.83,2058.16C5309.83,2059.36 5312.03,2060.26 5313.53,2060.26C5314.23,2060.26 5314.73,2060.06 5314.73,2059.56C5314.73,2057.76 5314.53,2051.96 5314.53,2050.96L5314.53,2029.66C5314.53,2027.76 5314.63,2023.76 5314.63,2022.46C5314.63,2021.26 5312.43,2020.36 5311.03,2020.36C5310.33,2020.36 5309.83,2020.56 5309.83,2021.06C5309.83,2022.86 5310.03,2028.16 5310.03,2029.66L5310.03,2050.96ZM5295.73,2050.96C5295.73,2052.16 5295.53,2056.86 5295.53,2058.16C5295.53,2059.36 5297.73,2060.26 5299.23,2060.26C5299.93,2060.26 5300.43,2060.06 5300.43,2059.56C5300.43,2057.76 5300.13,2051.96 5300.13,2050.96L5300.13,2029.66C5300.13,2027.76 5300.33,2023.76 5300.33,2022.46C5300.33,2021.26 5298.13,2020.36 5296.63,2020.36C5295.93,2020.36 5295.43,2020.56 5295.43,2021.06C5295.43,2022.86 5295.73,2028.16 5295.73,2029.66L5295.73,2050.96ZM5283.23,2054.76C5284.33,2056.36 5285.43,2058.06 5286.23,2059.46C5286.53,2059.96 5287.33,2060.16 5288.13,2060.16C5289.73,2060.16 5291.53,2059.46 5291.53,2058.56C5291.53,2058.46 5291.53,2058.26 5291.33,2058.06C5289.83,2056.46 5287.53,2053.66 5286.43,2052.16L5277.33,2039.66L5286.23,2027.36C5287.23,2025.96 5288.83,2024.16 5290.43,2022.56C5290.53,2022.46 5290.63,2022.26 5290.63,2022.16C5290.63,2021.26 5288.43,2020.46 5286.93,2020.46C5286.33,2020.46 5285.73,2020.56 5285.53,2020.96C5285.03,2021.96 5284.13,2023.46 5283.03,2024.96L5274.83,2036.26L5266.84,2025.26C5265.94,2023.96 5265.03,2022.36 5264.44,2021.26C5264.23,2020.96 5263.73,2020.76 5263.14,2020.76C5261.64,2020.76 5259.44,2021.56 5259.44,2022.46C5259.44,2022.56 5259.53,2022.76 5259.64,2022.86C5261.23,2024.56 5262.64,2026.26 5263.73,2027.66L5272.33,2039.66L5263.23,2052.26C5261.94,2054.16 5259.94,2056.46 5258.14,2058.26C5257.94,2058.46 5257.94,2058.56 5257.94,2058.76C5257.94,2059.56 5259.73,2060.26 5261.34,2060.26C5262.14,2060.26 5262.94,2060.06 5263.23,2059.56C5264.03,2058.26 5265.53,2056.16 5266.44,2054.86L5274.93,2043.16L5283.23,2054.76Z" style="fill-rule:nonzero;"/>
        </g>
    </g>
</svg>
