<?xml version="1.0" encoding="UTF-8" standalone="no"?>
<!DOCTYPE svg PUBLIC "-//W3C//DTD SVG 1.1//EN" "http://www.w3.org/Graphics/SVG/1.1/DTD/svg11.dtd">
<svg width="100%" height="100%" viewBox="0 0 98 90" version="1.1" xmlns="http://www.w3.org/2000/svg" xmlns:xlink="http://www.w3.org/1999/xlink" xml:space="preserve" xmlns:serif="http://www.serif.com/" style="fill-rule:evenodd;clip-rule:evenodd;stroke-linejoin:round;stroke-miterlimit:2;">
    <g transform="matrix(1,0,0,1,-5537.31,-2135.56)">
        <g transform="matrix(1,0,0,1,1,0)">
            <path d="M5585.1,2183.96C5589.6,2190.76 5594.3,2197.66 5598.7,2203.76C5604,2211.86 5604.3,2211.86 5605.8,2211.86C5607.6,2211.86 5609.9,2210.56 5609.9,2209.46C5609.9,2209.26 5609.8,2209.06 5609.6,2208.86C5602.9,2202.16 5600.4,2198.56 5588.1,2180.36C5602.7,2159.86 5604,2158.16 5607.2,2154.96C5607.4,2154.76 5607.5,2154.56 5607.5,2154.26C5607.5,2153.06 5605.1,2151.66 5603.4,2151.66C5602.8,2151.66 5602.4,2151.76 5602.1,2152.16C5599.7,2155.76 5592.3,2166.36 5585.3,2176.16C5584.8,2175.46 5570.9,2154.56 5569.5,2151.76C5569.2,2151.26 5568.6,2151.06 5567.8,2151.06C5566,2151.06 5563.7,2151.96 5563.7,2153.16C5563.7,2153.46 5563.8,2153.66 5564.1,2153.96C5567.7,2157.96 5569.8,2160.66 5582.3,2179.76C5577.1,2187.16 5571.9,2194.66 5567.6,2200.96C5566.1,2203.26 5563.4,2206.56 5560.9,2209.26C5560.7,2209.56 5560.61,2209.76 5560.61,2210.06C5560.61,2211.16 5562.6,2211.86 5564.4,2211.86C5565.6,2211.86 5566.6,2211.56 5567,2210.96L5585.1,2183.96ZM5556.51,2223.56C5556.51,2223.16 5556.4,2222.66 5556.01,2222.26C5546.21,2210.56 5541.61,2194.36 5541.61,2180.16C5541.61,2165.96 5546.21,2149.76 5556.01,2138.06C5556.4,2137.66 5556.51,2137.16 5556.51,2136.76C5556.51,2136.06 5556.01,2135.56 5555.31,2135.56C5553.01,2135.56 5536.31,2152.96 5536.31,2180.16C5536.31,2207.26 5553.01,2224.76 5555.31,2224.76C5556.01,2224.76 5556.51,2224.26 5556.51,2223.56ZM5615.3,2224.76C5617.6,2224.76 5634.3,2207.26 5634.3,2180.16C5634.3,2152.96 5617.6,2135.56 5615.3,2135.56C5614.6,2135.56 5614.1,2136.06 5614.1,2136.76C5614.1,2137.16 5614.2,2137.66 5614.6,2138.06C5624.4,2149.76 5629,2165.96 5629,2180.16C5629,2194.36 5624.4,2210.56 5614.6,2222.26C5614.2,2222.66 5614.1,2223.16 5614.1,2223.56C5614.1,2224.26 5614.6,2224.76 5615.3,2224.76Z" style="fill-rule:nonzero;"/>
        </g>
    </g>
</svg>
