<?xml version="1.0" encoding="UTF-8" standalone="no"?>
<!DOCTYPE svg PUBLIC "-//W3C//DTD SVG 1.1//EN" "http://www.w3.org/Graphics/SVG/1.1/DTD/svg11.dtd">
<svg width="100%" height="100%" viewBox="0 0 98 90" version="1.1" xmlns="http://www.w3.org/2000/svg" xmlns:xlink="http://www.w3.org/1999/xlink" xml:space="preserve" xmlns:serif="http://www.serif.com/" style="fill-rule:evenodd;clip-rule:evenodd;stroke-linejoin:round;stroke-miterlimit:2;">
    <g transform="matrix(1,0,0,1,-5837.28,-1985.56)">
        <g transform="matrix(1,0,0,1,1,0)">
            <path d="M5915.27,2074.76C5917.57,2074.76 5934.27,2057.26 5934.27,2030.16C5934.27,2002.96 5917.57,1985.56 5915.27,1985.56C5914.57,1985.56 5914.07,1986.06 5914.07,1986.76C5914.07,1987.16 5914.17,1987.66 5914.57,1988.06C5924.37,1999.76 5928.97,2015.96 5928.97,2030.16C5928.97,2044.36 5924.37,2060.56 5914.57,2072.26C5914.17,2072.66 5914.07,2073.16 5914.07,2073.56C5914.07,2074.26 5914.57,2074.76 5915.27,2074.76ZM5856.48,2073.56C5856.48,2073.16 5856.38,2072.66 5855.98,2072.26C5846.18,2060.56 5841.58,2044.36 5841.58,2030.16C5841.58,2015.96 5846.18,1999.76 5855.98,1988.06C5856.38,1987.66 5856.48,1987.16 5856.48,1986.76C5856.48,1986.06 5855.98,1985.56 5855.28,1985.56C5852.98,1985.56 5836.28,2002.96 5836.28,2030.16C5836.28,2057.26 5852.98,2074.76 5855.28,2074.76C5855.98,2074.76 5856.48,2074.26 5856.48,2073.56ZM5901.97,2051.86C5901.97,2054.86 5901.77,2058.06 5901.77,2059.46C5901.77,2060.86 5903.97,2061.86 5905.57,2061.86C5906.47,2061.86 5907.07,2061.56 5907.07,2060.96C5907.07,2059.06 5906.87,2055.46 5906.87,2051.96L5906.87,2011.26C5906.87,2008.26 5907.07,2005.06 5907.07,2003.66C5907.07,2002.26 5904.87,2001.16 5903.27,2001.16C5902.37,2001.16 5901.67,2001.56 5901.67,2002.26C5901.67,2004.16 5901.97,2007.46 5901.97,2010.86L5901.97,2051.86ZM5882.77,2051.86C5882.77,2054.86 5882.67,2058.06 5882.67,2059.46C5882.67,2060.86 5884.87,2061.86 5886.47,2061.86C5887.37,2061.86 5887.97,2061.56 5887.97,2060.96C5887.97,2059.06 5887.77,2055.46 5887.77,2051.96L5887.77,2011.26C5887.77,2008.26 5887.87,2005.06 5887.87,2003.66C5887.87,2002.26 5885.67,2001.16 5884.07,2001.16C5883.27,2001.16 5882.57,2001.56 5882.57,2002.26C5882.57,2004.16 5882.77,2007.46 5882.77,2010.86L5882.77,2051.86ZM5863.67,2051.86C5863.67,2054.86 5863.47,2058.06 5863.47,2059.46C5863.47,2060.86 5865.77,2061.86 5867.37,2061.86C5868.17,2061.86 5868.87,2061.56 5868.87,2060.96C5868.87,2059.06 5868.57,2055.46 5868.57,2051.96L5868.57,2011.26C5868.57,2008.26 5868.77,2005.06 5868.77,2003.66C5868.77,2002.26 5866.57,2001.16 5864.97,2001.16C5864.17,2001.16 5863.47,2001.56 5863.47,2002.26C5863.47,2004.16 5863.67,2007.46 5863.67,2010.86L5863.67,2051.86Z" style="fill-rule:nonzero;"/>
        </g>
    </g>
</svg>
