<?xml version="1.0" encoding="UTF-8" standalone="no"?>
<!DOCTYPE svg PUBLIC "-//W3C//DTD SVG 1.1//EN" "http://www.w3.org/Graphics/SVG/1.1/DTD/svg11.dtd">
<svg width="100%" height="100%" viewBox="0 0 98 90" version="1.1" xmlns="http://www.w3.org/2000/svg" xmlns:xlink="http://www.w3.org/1999/xlink" xml:space="preserve" xmlns:serif="http://www.serif.com/" style="fill-rule:evenodd;clip-rule:evenodd;stroke-linejoin:round;stroke-miterlimit:2;">
    <g transform="matrix(1,0,0,1,-6037.26,-1985.56)">
        <g transform="matrix(1,0,0,1,1,0)">
            <path d="M6115.25,2074.76C6117.55,2074.76 6134.25,2057.26 6134.25,2030.16C6134.25,2002.96 6117.55,1985.56 6115.25,1985.56C6114.55,1985.56 6114.05,1986.06 6114.05,1986.76C6114.05,1987.16 6114.15,1987.66 6114.55,1988.06C6124.35,1999.76 6128.95,2015.96 6128.95,2030.16C6128.95,2044.36 6124.35,2060.56 6114.55,2072.26C6114.15,2072.66 6114.05,2073.16 6114.05,2073.56C6114.05,2074.26 6114.55,2074.76 6115.25,2074.76ZM6056.45,2073.56C6056.45,2073.16 6056.35,2072.66 6055.95,2072.26C6046.15,2060.56 6041.56,2044.36 6041.56,2030.16C6041.56,2015.96 6046.15,1999.76 6055.95,1988.06C6056.35,1987.66 6056.45,1987.16 6056.45,1986.76C6056.45,1986.06 6055.95,1985.56 6055.25,1985.56C6052.95,1985.56 6036.26,2002.96 6036.26,2030.16C6036.26,2057.26 6052.95,2074.76 6055.25,2074.76C6055.95,2074.76 6056.45,2074.26 6056.45,2073.56ZM6084.95,2054.56C6079.75,2038.36 6073.35,2021.26 6067.85,2007.16C6067.25,2005.66 6066.75,2004.16 6066.35,2002.66C6066.05,2001.66 6064.15,2001.06 6062.55,2001.06C6061.25,2001.06 6060.15,2001.46 6060.15,2002.16C6060.15,2002.26 6060.15,2002.46 6060.25,2002.56C6060.95,2004.16 6062.15,2006.16 6063.15,2008.56C6068.75,2022.86 6075.75,2040.96 6081.05,2056.86C6082.25,2060.46 6084.25,2062.16 6085.85,2062.16C6086.75,2062.16 6087.55,2061.56 6087.95,2060.26C6089.25,2055.76 6091.65,2047.86 6107.75,2009.76C6108.45,2008.16 6110.05,2005.46 6110.85,2004.16C6110.95,2003.96 6111.05,2003.76 6111.05,2003.46C6111.05,2002.06 6108.45,2000.46 6106.75,2000.46C6106.05,2000.46 6105.55,2000.76 6105.35,2001.36C6104.75,2003.56 6103.95,2006.56 6103.25,2008.16C6098.35,2019.76 6091.35,2037.16 6084.95,2054.56Z" style="fill-rule:nonzero;"/>
        </g>
    </g>
</svg>
