<?xml version="1.0" encoding="UTF-8" standalone="no"?>
<!DOCTYPE svg PUBLIC "-//W3C//DTD SVG 1.1//EN" "http://www.w3.org/Graphics/SVG/1.1/DTD/svg11.dtd">
<svg width="100%" height="100%" viewBox="0 0 98 90" version="1.1" xmlns="http://www.w3.org/2000/svg" xmlns:xlink="http://www.w3.org/1999/xlink" xml:space="preserve" xmlns:serif="http://www.serif.com/" style="fill-rule:evenodd;clip-rule:evenodd;stroke-linejoin:round;stroke-miterlimit:2;">
    <g transform="matrix(1,0,0,1,-5437.32,-2135.56)">
        <g transform="matrix(1,0,0,1,1,0)">
            <path d="M5515.31,2224.76C5517.61,2224.76 5534.31,2207.26 5534.31,2180.16C5534.31,2152.96 5517.61,2135.56 5515.31,2135.56C5514.61,2135.56 5514.11,2136.06 5514.11,2136.76C5514.11,2137.16 5514.21,2137.66 5514.61,2138.06C5524.41,2149.76 5529.01,2165.96 5529.01,2180.16C5529.01,2194.36 5524.41,2210.56 5514.61,2222.26C5514.21,2222.66 5514.11,2223.16 5514.11,2223.56C5514.11,2224.26 5514.61,2224.76 5515.31,2224.76ZM5456.52,2223.56C5456.52,2223.16 5456.41,2222.66 5456.02,2222.26C5446.22,2210.56 5441.62,2194.36 5441.62,2180.16C5441.62,2165.96 5446.22,2149.76 5456.02,2138.06C5456.41,2137.66 5456.52,2137.16 5456.52,2136.76C5456.52,2136.06 5456.02,2135.56 5455.32,2135.56C5453.02,2135.56 5436.32,2152.96 5436.32,2180.16C5436.32,2207.26 5453.02,2224.76 5455.32,2224.76C5456.02,2224.76 5456.52,2224.26 5456.52,2223.56ZM5513.31,2211.86C5514.91,2211.86 5517.21,2210.36 5517.21,2209.06C5517.21,2208.86 5517.21,2208.66 5517.01,2208.46C5512.61,2203.06 5507.61,2194.86 5498.71,2179.36C5510.51,2159.96 5511.71,2158.06 5514.71,2154.46C5514.91,2154.26 5514.91,2154.06 5514.91,2153.86C5514.91,2152.56 5512.41,2151.06 5510.81,2151.06C5510.31,2151.06 5509.81,2151.26 5509.61,2151.66C5507.11,2156.66 5496.91,2173.46 5496.01,2174.86C5492.81,2169.36 5489.51,2163.56 5486.11,2158.16C5484.61,2155.76 5483.31,2153.56 5482.41,2151.76C5482.11,2151.26 5481.41,2151.06 5480.61,2151.06C5478.91,2151.06 5476.51,2151.96 5476.51,2153.16C5476.51,2153.36 5476.71,2153.66 5476.91,2153.96C5479.21,2156.46 5483.11,2161.26 5493.41,2179.16C5479.51,2201.96 5479.01,2202.86 5474.51,2208.96C5474.31,2209.16 5474.21,2209.46 5474.21,2209.66C5474.21,2210.76 5476.21,2211.96 5477.81,2211.96C5479.31,2211.96 5479.71,2211.56 5484.01,2203.76C5487.91,2197.06 5492.01,2190.36 5496.11,2183.76C5510.11,2207.76 5510.51,2208.46 5511.81,2211.06C5512.01,2211.46 5512.41,2211.76 5512.81,2211.86L5513.31,2211.86ZM5461.61,2201.86C5461.61,2204.86 5461.52,2208.06 5461.52,2209.46C5461.52,2210.86 5463.72,2211.86 5465.31,2211.86C5466.21,2211.86 5466.81,2211.56 5466.81,2210.96C5466.81,2208.96 5466.61,2205.46 5466.61,2201.96L5466.61,2161.26C5466.61,2158.26 5466.71,2155.06 5466.71,2153.66C5466.71,2152.26 5464.52,2151.16 5462.91,2151.16C5462.11,2151.16 5461.41,2151.46 5461.41,2152.26C5461.41,2154.16 5461.61,2157.46 5461.61,2160.86L5461.61,2201.86Z" style="fill-rule:nonzero;"/>
        </g>
    </g>
</svg>
