<?xml version="1.0" encoding="UTF-8" standalone="no"?>
<!DOCTYPE svg PUBLIC "-//W3C//DTD SVG 1.1//EN" "http://www.w3.org/Graphics/SVG/1.1/DTD/svg11.dtd">
<svg width="100%" height="100%" viewBox="0 0 98 90" version="1.1" xmlns="http://www.w3.org/2000/svg" xmlns:xlink="http://www.w3.org/1999/xlink" xml:space="preserve" xmlns:serif="http://www.serif.com/" style="fill-rule:evenodd;clip-rule:evenodd;stroke-linejoin:round;stroke-miterlimit:2;">
    <g transform="matrix(1,0,0,1,-5137.35,-1985.56)">
        <g transform="matrix(1,0,0,1,1,0)">
            <path d="M5204.94,2010.66C5206.84,2010.66 5207.94,2009.46 5207.94,2007.56C5207.94,2005.46 5206.04,2003.06 5204.14,2003.06C5202.14,2003.06 5201.04,2004.36 5201.04,2006.36C5201.04,2008.36 5202.94,2010.66 5204.94,2010.66ZM5215.34,2074.76C5217.64,2074.76 5234.34,2057.26 5234.34,2030.16C5234.34,2002.96 5217.64,1985.56 5215.34,1985.56C5214.64,1985.56 5214.14,1986.06 5214.14,1986.76C5214.14,1987.16 5214.24,1987.66 5214.64,1988.06C5224.44,1999.76 5229.04,2015.96 5229.04,2030.16C5229.04,2044.36 5224.44,2060.56 5214.64,2072.26C5214.24,2072.66 5214.14,2073.16 5214.14,2073.56C5214.14,2074.26 5214.64,2074.76 5215.34,2074.76ZM5156.55,2073.56C5156.55,2073.16 5156.45,2072.66 5156.05,2072.26C5146.25,2060.56 5141.65,2044.36 5141.65,2030.16C5141.65,2015.96 5146.25,1999.76 5156.05,1988.06C5156.45,1987.66 5156.55,1987.16 5156.55,1986.76C5156.55,1986.06 5156.05,1985.56 5155.35,1985.56C5153.05,1985.56 5136.35,2002.96 5136.35,2030.16C5136.35,2057.26 5153.05,2074.76 5155.35,2074.76C5156.05,2074.76 5156.55,2074.26 5156.55,2073.56ZM5202.34,2050.96C5202.34,2052.06 5202.24,2056.76 5202.24,2058.06C5202.24,2059.36 5204.44,2060.26 5205.84,2060.26C5206.54,2060.26 5207.04,2060.06 5207.04,2059.56C5207.04,2057.66 5206.84,2051.96 5206.84,2050.96L5206.84,2029.66C5206.84,2027.66 5206.94,2023.76 5206.94,2022.46C5206.94,2021.16 5204.74,2020.26 5203.34,2020.26C5202.64,2020.26 5202.14,2020.46 5202.14,2020.96C5202.14,2022.86 5202.34,2028.06 5202.34,2029.66L5202.34,2050.96ZM5186.64,2054.66C5187.64,2055.96 5189.14,2058.16 5189.84,2059.36C5190.14,2059.86 5190.94,2060.06 5191.84,2060.06C5193.34,2060.06 5195.14,2059.46 5195.14,2058.56C5195.14,2058.36 5195.14,2058.16 5194.94,2057.96C5193.44,2056.36 5191.04,2053.66 5189.84,2052.06L5180.54,2039.56L5189.64,2027.26C5190.94,2025.56 5192.34,2024.16 5193.94,2022.56C5194.04,2022.46 5194.14,2022.26 5194.14,2022.16C5194.14,2021.26 5191.84,2020.36 5190.34,2020.36C5189.74,2020.36 5189.24,2020.56 5189.04,2020.86C5188.44,2021.86 5187.54,2023.46 5186.44,2024.86L5178.04,2036.16L5169.85,2025.16C5168.94,2023.86 5167.94,2022.26 5167.35,2021.26C5167.15,2020.96 5166.65,2020.76 5166.05,2020.76C5164.44,2020.76 5162.24,2021.56 5162.24,2022.46C5162.24,2022.56 5162.35,2022.76 5162.44,2022.86C5164.05,2024.46 5165.74,2026.26 5166.74,2027.66L5175.54,2039.56L5166.24,2052.26C5164.85,2054.06 5162.65,2056.56 5161.05,2058.16C5160.85,2058.36 5160.85,2058.46 5160.85,2058.66C5160.85,2059.46 5162.65,2060.26 5164.24,2060.26C5165.15,2060.26 5165.85,2060.06 5166.15,2059.56C5166.94,2058.26 5168.55,2056.06 5169.44,2054.86L5178.04,2042.96L5186.64,2054.66Z" style="fill-rule:nonzero;"/>
        </g>
    </g>
</svg>
