<?xml version="1.0" encoding="UTF-8" standalone="no"?>
<!DOCTYPE svg PUBLIC "-//W3C//DTD SVG 1.1//EN" "http://www.w3.org/Graphics/SVG/1.1/DTD/svg11.dtd">
<svg width="100%" height="100%" viewBox="0 0 98 90" version="1.1" xmlns="http://www.w3.org/2000/svg" xmlns:xlink="http://www.w3.org/1999/xlink" xml:space="preserve" xmlns:serif="http://www.serif.com/" style="fill-rule:evenodd;clip-rule:evenodd;stroke-linejoin:round;stroke-miterlimit:2;">
    <g transform="matrix(1,0,0,1,-5337.33,-1985.56)">
        <g transform="matrix(1,0,0,1,1,0)">
            <path d="M5416.32,2010.66C5418.22,2010.66 5419.32,2009.46 5419.32,2007.56C5419.32,2005.46 5417.32,2003.06 5415.52,2003.06C5413.52,2003.06 5412.42,2004.36 5412.42,2006.46C5412.42,2008.36 5414.32,2010.66 5416.32,2010.66ZM5403.62,2010.66C5405.42,2010.66 5406.62,2009.46 5406.62,2007.56C5406.62,2005.46 5404.62,2003.06 5402.82,2003.06C5400.72,2003.06 5399.72,2004.36 5399.72,2006.46C5399.72,2008.36 5401.62,2010.66 5403.62,2010.66ZM5390.92,2010.66C5392.72,2010.66 5393.92,2009.46 5393.92,2007.56C5393.92,2005.46 5391.92,2003.06 5390.12,2003.06C5388.02,2003.06 5387.02,2004.36 5387.02,2006.46C5387.02,2008.36 5388.82,2010.66 5390.92,2010.66ZM5415.32,2074.76C5417.62,2074.76 5434.32,2057.26 5434.32,2030.16C5434.32,2002.96 5417.62,1985.56 5415.32,1985.56C5414.62,1985.56 5414.12,1986.06 5414.12,1986.76C5414.12,1987.16 5414.22,1987.66 5414.62,1988.06C5424.42,1999.76 5429.02,2015.96 5429.02,2030.16C5429.02,2044.36 5424.42,2060.56 5414.62,2072.26C5414.22,2072.66 5414.12,2073.16 5414.12,2073.56C5414.12,2074.26 5414.62,2074.76 5415.32,2074.76ZM5356.53,2073.56C5356.53,2073.16 5356.43,2072.66 5356.03,2072.26C5346.23,2060.56 5341.63,2044.36 5341.63,2030.16C5341.63,2015.96 5346.23,1999.76 5356.03,1988.06C5356.43,1987.66 5356.53,1987.16 5356.53,1986.76C5356.53,1986.06 5356.03,1985.56 5355.33,1985.56C5353.03,1985.56 5336.33,2002.96 5336.33,2030.16C5336.33,2057.26 5353.03,2074.76 5355.33,2074.76C5356.03,2074.76 5356.53,2074.26 5356.53,2073.56ZM5413.72,2050.96C5413.72,2052.06 5413.52,2056.76 5413.52,2058.06C5413.52,2059.36 5415.72,2060.26 5417.22,2060.26C5417.92,2060.26 5418.42,2060.06 5418.42,2059.56C5418.42,2057.66 5418.22,2051.96 5418.22,2050.96L5418.22,2029.66C5418.22,2027.76 5418.32,2023.76 5418.32,2022.46C5418.32,2021.16 5416.12,2020.26 5414.72,2020.26C5414.02,2020.26 5413.52,2020.46 5413.52,2020.96C5413.52,2022.86 5413.72,2028.16 5413.72,2029.66L5413.72,2050.96ZM5401.02,2050.96C5401.02,2052.06 5400.82,2056.76 5400.82,2058.06C5400.82,2059.36 5403.02,2060.26 5404.52,2060.26C5405.22,2060.26 5405.72,2060.06 5405.72,2059.56C5405.72,2057.66 5405.42,2051.96 5405.42,2050.96L5405.42,2029.66C5405.42,2027.76 5405.62,2023.76 5405.62,2022.46C5405.62,2021.16 5403.42,2020.26 5401.92,2020.26C5401.22,2020.26 5400.72,2020.46 5400.72,2020.96C5400.72,2022.86 5401.02,2028.16 5401.02,2029.66L5401.02,2050.96ZM5388.32,2050.96C5388.32,2052.06 5388.12,2056.76 5388.12,2058.06C5388.12,2059.36 5390.32,2060.26 5391.82,2060.26C5392.52,2060.26 5393.02,2060.06 5393.02,2059.56C5393.02,2057.66 5392.72,2051.96 5392.72,2050.96L5392.72,2029.66C5392.72,2027.76 5392.92,2023.76 5392.92,2022.46C5392.92,2021.16 5390.72,2020.26 5389.22,2020.26C5388.52,2020.26 5388.02,2020.46 5388.02,2020.96C5388.02,2022.86 5388.32,2028.16 5388.32,2029.66L5388.32,2050.96ZM5375.42,2054.66C5376.32,2056.16 5377.32,2057.76 5378.12,2059.36C5378.42,2059.86 5379.12,2060.16 5380.02,2060.16C5381.52,2060.16 5383.42,2059.46 5383.42,2058.46C5383.42,2058.36 5383.32,2058.16 5383.22,2057.96C5381.82,2056.26 5379.62,2053.76 5378.62,2052.06L5370.62,2039.66L5378.42,2027.26C5379.22,2026.06 5380.92,2023.86 5382.02,2022.56C5382.12,2022.36 5382.22,2022.26 5382.22,2022.06C5382.22,2021.16 5380.32,2020.36 5378.92,2020.36C5378.22,2020.36 5377.72,2020.56 5377.52,2020.96C5376.92,2022.06 5376.02,2023.66 5375.22,2024.86L5368.22,2035.86L5361.53,2025.16C5360.62,2023.76 5359.82,2022.56 5359.23,2021.26C5359.03,2020.86 5358.53,2020.66 5357.82,2020.66C5356.43,2020.66 5354.43,2021.46 5354.43,2022.36C5354.43,2022.56 5354.53,2022.66 5354.63,2022.86C5356.03,2024.36 5357.23,2026.06 5358.32,2027.66L5365.82,2039.66L5357.82,2052.26C5356.82,2053.96 5354.63,2056.56 5353.03,2058.16C5352.83,2058.36 5352.83,2058.46 5352.83,2058.66C5352.83,2059.46 5354.73,2060.26 5356.33,2060.26C5357.12,2060.26 5357.82,2060.06 5358.12,2059.56C5358.93,2058.16 5360.23,2055.96 5361.03,2054.86L5368.32,2043.36L5375.42,2054.66Z" style="fill-rule:nonzero;"/>
        </g>
    </g>
</svg>
