<?xml version="1.0" encoding="UTF-8" standalone="no"?>
<!DOCTYPE svg PUBLIC "-//W3C//DTD SVG 1.1//EN" "http://www.w3.org/Graphics/SVG/1.1/DTD/svg11.dtd">
<svg width="100%" height="100%" viewBox="0 0 98 90" version="1.1" xmlns="http://www.w3.org/2000/svg" xmlns:xlink="http://www.w3.org/1999/xlink" xml:space="preserve" xmlns:serif="http://www.serif.com/" style="fill-rule:evenodd;clip-rule:evenodd;stroke-linejoin:round;stroke-miterlimit:2;">
    <g transform="matrix(1,0,0,1,-5637.3,-2135.56)">
        <g transform="matrix(1,0,0,1,1,0)">
            <path d="M5715.29,2224.76C5717.59,2224.76 5734.29,2207.26 5734.29,2180.16C5734.29,2152.96 5717.59,2135.56 5715.29,2135.56C5714.59,2135.56 5714.09,2136.06 5714.09,2136.76C5714.09,2137.16 5714.19,2137.66 5714.59,2138.06C5724.39,2149.76 5728.99,2165.96 5728.99,2180.16C5728.99,2194.36 5724.39,2210.56 5714.59,2222.26C5714.19,2222.66 5714.09,2223.16 5714.09,2223.56C5714.09,2224.26 5714.59,2224.76 5715.29,2224.76ZM5656.49,2223.56C5656.49,2223.16 5656.4,2222.66 5655.99,2222.26C5646.2,2210.56 5641.6,2194.36 5641.6,2180.16C5641.6,2165.96 5646.2,2149.76 5655.99,2138.06C5656.4,2137.66 5656.49,2137.16 5656.49,2136.76C5656.49,2136.06 5655.99,2135.56 5655.3,2135.56C5652.99,2135.56 5636.3,2152.96 5636.3,2180.16C5636.3,2207.26 5652.99,2224.76 5655.3,2224.76C5655.99,2224.76 5656.49,2224.26 5656.49,2223.56ZM5693.19,2211.86C5694.79,2211.86 5697.09,2210.36 5697.09,2209.06C5697.09,2208.86 5696.99,2208.66 5696.89,2208.46C5692.09,2202.66 5687.09,2193.96 5678.59,2179.46C5689.29,2161.46 5691.49,2158.26 5694.59,2154.46C5694.79,2154.26 5694.79,2154.06 5694.79,2153.86C5694.79,2152.56 5692.29,2151.06 5690.69,2151.06C5690.19,2151.06 5689.69,2151.26 5689.49,2151.66C5688.79,2153.16 5686.99,2156.66 5675.89,2174.86C5672.79,2169.36 5669.39,2163.66 5665.99,2158.16C5664.49,2155.86 5663.19,2153.56 5662.29,2151.76C5662.09,2151.36 5661.39,2151.16 5660.59,2151.16C5658.9,2151.16 5656.49,2152.06 5656.49,2153.16C5656.49,2153.46 5656.69,2153.66 5656.9,2153.96C5662.09,2159.76 5670.39,2173.96 5673.39,2179.16C5663.29,2196.06 5659.69,2201.96 5654.4,2208.96C5654.19,2209.16 5654.19,2209.36 5654.19,2209.66C5654.19,2210.76 5656.1,2211.96 5657.8,2211.96C5659.19,2211.96 5659.4,2211.86 5663.89,2203.76C5667.79,2197.06 5671.89,2190.36 5675.99,2183.76C5689.99,2207.76 5690.39,2208.46 5691.69,2211.06C5691.89,2211.46 5692.29,2211.76 5692.69,2211.86L5693.19,2211.86ZM5705.49,2201.86C5705.49,2204.86 5705.29,2208.06 5705.29,2209.46C5705.29,2210.86 5707.59,2211.86 5709.19,2211.86C5709.99,2211.86 5710.69,2211.56 5710.69,2210.96C5710.69,2209.06 5710.39,2205.46 5710.39,2201.96L5710.39,2161.26C5710.39,2158.26 5710.59,2155.06 5710.59,2153.66C5710.59,2152.26 5708.39,2151.16 5706.79,2151.16C5705.89,2151.16 5705.19,2151.56 5705.19,2152.26C5705.19,2154.16 5705.49,2157.46 5705.49,2160.96L5705.49,2201.86Z" style="fill-rule:nonzero;"/>
        </g>
    </g>
</svg>
