<?xml version="1.0" encoding="UTF-8" standalone="no"?>
<!DOCTYPE svg PUBLIC "-//W3C//DTD SVG 1.1//EN" "http://www.w3.org/Graphics/SVG/1.1/DTD/svg11.dtd">
<svg width="100%" height="100%" viewBox="0 0 98 90" version="1.1" xmlns="http://www.w3.org/2000/svg" xmlns:xlink="http://www.w3.org/1999/xlink" xml:space="preserve" xmlns:serif="http://www.serif.com/" style="fill-rule:evenodd;clip-rule:evenodd;stroke-linejoin:round;stroke-miterlimit:2;">
    <g transform="matrix(1,0,0,1,-6037.26,-2135.56)">
        <g transform="matrix(1,0,0,1,1,0)">
            <path d="M6076.55,2202.86C6078.25,2205.76 6079.45,2208.66 6080.15,2210.26C6080.55,2211.16 6081.85,2211.56 6083.05,2211.56C6084.75,2211.56 6086.55,2210.86 6086.55,2209.76C6086.55,2209.56 6086.45,2209.36 6086.25,2209.06C6084.45,2206.36 6082.15,2202.96 6080.65,2200.36L6069.15,2179.96L6079.95,2160.56C6081.55,2157.86 6082.75,2155.76 6084.45,2153.56C6084.55,2153.36 6084.65,2153.16 6084.65,2152.96C6084.65,2151.76 6082.35,2150.76 6080.75,2150.76C6079.95,2150.76 6079.35,2150.96 6079.15,2151.46C6078.25,2153.56 6077.05,2155.96 6075.55,2158.66L6066.35,2175.16L6057.25,2158.96C6055.75,2156.36 6054.55,2153.86 6053.75,2151.76C6053.55,2151.26 6052.95,2151.06 6052.15,2151.06C6050.56,2151.06 6048.26,2152.06 6048.26,2153.26C6048.26,2153.46 6048.36,2153.66 6048.45,2153.86C6050.06,2156.06 6051.36,2158.26 6052.85,2160.96L6063.55,2179.96L6052.06,2200.66C6050.76,2202.86 6048.86,2205.66 6047.26,2207.96C6043.45,2198.96 6041.56,2189.16 6041.56,2180.16C6041.56,2165.96 6046.15,2149.76 6055.95,2138.06C6056.35,2137.66 6056.45,2137.16 6056.45,2136.76C6056.45,2136.06 6055.95,2135.56 6055.25,2135.56C6052.95,2135.56 6036.26,2152.96 6036.26,2180.16C6036.26,2207.26 6052.95,2224.76 6055.25,2224.76C6055.95,2224.76 6056.45,2224.26 6056.45,2223.56C6056.45,2223.16 6056.35,2222.66 6055.95,2222.26C6053.25,2219.06 6050.95,2215.46 6049.06,2211.76L6049.56,2211.76C6050.95,2211.76 6052.15,2211.46 6052.55,2210.46C6054.85,2205.36 6054.95,2205.16 6056.15,2203.06L6066.35,2184.86L6076.55,2202.86ZM6104.25,2204.46L6092.75,2157.56L6091.75,2152.96C6091.55,2151.86 6089.45,2151.26 6087.75,2151.26C6086.55,2151.26 6085.55,2151.56 6085.55,2152.16C6085.55,2152.26 6085.55,2152.46 6085.65,2152.56C6086.75,2154.66 6087.95,2157.56 6100.25,2206.96C6101.05,2210.06 6103.55,2212.26 6105.35,2212.26C6106.35,2212.26 6107.05,2211.66 6107.35,2210.36C6107.85,2207.96 6108.35,2206.06 6108.85,2204.06C6120.35,2161.26 6120.65,2160.26 6122.75,2154.86C6122.85,2154.66 6122.85,2154.46 6122.85,2154.26C6122.85,2152.66 6120.25,2150.76 6118.65,2150.76C6118.05,2150.76 6117.65,2151.06 6117.55,2151.66C6117.25,2153.96 6117.05,2155.96 6116.35,2158.56L6104.25,2204.46ZM6115.25,2224.76C6117.55,2224.76 6134.25,2207.26 6134.25,2180.16C6134.25,2152.96 6117.55,2135.56 6115.25,2135.56C6114.55,2135.56 6114.05,2136.06 6114.05,2136.76C6114.05,2137.16 6114.15,2137.66 6114.55,2138.06C6124.35,2149.76 6128.95,2165.96 6128.95,2180.16C6128.95,2194.36 6124.35,2210.56 6114.55,2222.26C6114.15,2222.66 6114.05,2223.16 6114.05,2223.56C6114.05,2224.26 6114.55,2224.76 6115.25,2224.76Z" style="fill-rule:nonzero;"/>
        </g>
    </g>
</svg>
