<?xml version="1.0" encoding="UTF-8" standalone="no"?>
<!DOCTYPE svg PUBLIC "-//W3C//DTD SVG 1.1//EN" "http://www.w3.org/Graphics/SVG/1.1/DTD/svg11.dtd">
<svg width="100%" height="100%" viewBox="0 0 98 90" version="1.1" xmlns="http://www.w3.org/2000/svg" xmlns:xlink="http://www.w3.org/1999/xlink" xml:space="preserve" xmlns:serif="http://www.serif.com/" style="fill-rule:evenodd;clip-rule:evenodd;stroke-linejoin:round;stroke-miterlimit:2;">
    <g transform="matrix(1,0,0,1,-5737.29,-2135.56)">
        <g transform="matrix(1,0,0,1,1,0)">
            <path d="M5815.28,2224.76C5817.58,2224.76 5834.28,2207.26 5834.28,2180.16C5834.28,2152.96 5817.58,2135.56 5815.28,2135.56C5814.58,2135.56 5814.08,2136.06 5814.08,2136.76C5814.08,2137.16 5814.18,2137.66 5814.58,2138.06C5824.38,2149.76 5828.98,2165.96 5828.98,2180.16C5828.98,2194.36 5824.38,2210.56 5814.58,2222.26C5814.18,2222.66 5814.08,2223.16 5814.08,2223.56C5814.08,2224.26 5814.58,2224.76 5815.28,2224.76ZM5756.48,2223.56C5756.48,2223.16 5756.39,2222.66 5755.98,2222.26C5746.19,2210.56 5741.59,2194.36 5741.59,2180.16C5741.59,2165.96 5746.19,2149.76 5755.98,2138.06C5756.39,2137.66 5756.48,2137.16 5756.48,2136.76C5756.48,2136.06 5755.98,2135.56 5755.28,2135.56C5752.98,2135.56 5736.29,2152.96 5736.29,2180.16C5736.29,2207.26 5752.98,2224.76 5755.28,2224.76C5755.98,2224.76 5756.48,2224.26 5756.48,2223.56ZM5786.28,2211.76C5787.88,2211.76 5790.08,2210.26 5790.08,2209.06C5790.08,2208.76 5790.08,2208.56 5789.88,2208.36C5788.08,2206.06 5786.38,2203.86 5784.68,2200.86C5781.18,2194.96 5777.08,2187.46 5772.48,2179.56C5780.78,2165.76 5785.98,2157.26 5788.38,2154.36C5788.58,2154.16 5788.58,2153.96 5788.58,2153.66C5788.58,2152.36 5786.28,2150.96 5784.68,2150.96C5784.18,2150.96 5783.68,2151.16 5783.48,2151.56C5782.38,2153.76 5781.28,2155.76 5779.88,2158.16C5777.38,2162.26 5773.38,2169.06 5769.88,2175.16C5765.98,2168.66 5757.28,2153.56 5756.28,2151.66C5755.98,2151.16 5755.39,2151.06 5754.59,2151.06C5752.98,2151.06 5750.89,2151.86 5750.89,2153.06C5750.89,2153.36 5750.98,2153.56 5751.19,2153.86C5754.39,2157.76 5757.28,2161.96 5767.28,2179.46C5762.48,2187.46 5758.58,2194.26 5754.59,2200.86C5753.28,2203.16 5751.69,2205.76 5749.48,2208.86C5749.28,2209.06 5749.28,2209.26 5749.28,2209.56C5749.28,2210.66 5751.19,2211.86 5752.78,2211.86C5754.19,2211.86 5754.28,2211.56 5758.58,2203.66C5762.18,2197.16 5765.78,2190.66 5769.88,2183.86C5783.78,2208.96 5783.88,2209.06 5784.78,2210.96C5784.98,2211.36 5785.38,2211.66 5785.78,2211.76L5786.28,2211.76ZM5813.28,2201.86C5813.28,2204.76 5813.08,2208.06 5813.08,2209.36C5813.08,2210.76 5815.38,2211.76 5816.98,2211.76C5817.78,2211.76 5818.48,2211.46 5818.48,2210.86C5818.48,2208.96 5818.18,2205.36 5818.18,2201.86L5818.18,2161.16C5818.18,2158.26 5818.38,2154.96 5818.38,2153.66C5818.38,2152.26 5816.08,2151.16 5814.48,2151.16C5813.58,2151.16 5812.98,2151.46 5812.98,2152.16C5812.98,2154.16 5813.28,2157.36 5813.28,2160.86L5813.28,2201.86ZM5796.98,2201.86C5796.98,2204.76 5796.78,2208.06 5796.78,2209.36C5796.78,2210.76 5799.08,2211.76 5800.68,2211.76C5801.48,2211.76 5802.18,2211.46 5802.18,2210.86C5802.18,2208.96 5801.88,2205.36 5801.88,2201.86L5801.88,2161.16C5801.88,2158.26 5802.08,2154.96 5802.08,2153.66C5802.08,2152.26 5799.78,2151.16 5798.18,2151.16C5797.28,2151.16 5796.68,2151.46 5796.68,2152.16C5796.68,2154.16 5796.98,2157.36 5796.98,2160.86L5796.98,2201.86Z" style="fill-rule:nonzero;"/>
        </g>
    </g>
</svg>
