<?xml version="1.0" encoding="UTF-8" standalone="no"?>
<!DOCTYPE svg PUBLIC "-//W3C//DTD SVG 1.1//EN" "http://www.w3.org/Graphics/SVG/1.1/DTD/svg11.dtd">
<svg width="100%" height="100%" viewBox="0 0 98 90" version="1.1" xmlns="http://www.w3.org/2000/svg" xmlns:xlink="http://www.w3.org/1999/xlink" xml:space="preserve" xmlns:serif="http://www.serif.com/" style="fill-rule:evenodd;clip-rule:evenodd;stroke-linejoin:round;stroke-miterlimit:2;">
    <g transform="matrix(1,0,0,1,-5337.33,-2135.56)">
        <g transform="matrix(1,0,0,1,1,0)">
            <path d="M5416.82,2201.86C5416.82,2204.86 5416.62,2208.06 5416.62,2209.46C5416.62,2210.86 5418.92,2211.76 5420.52,2211.76C5421.02,2211.76 5421.32,2211.76 5421.62,2211.56C5419.72,2215.36 5417.32,2218.96 5414.62,2222.26C5414.22,2222.66 5414.12,2223.16 5414.12,2223.56C5414.12,2224.26 5414.62,2224.76 5415.32,2224.76C5417.62,2224.76 5434.32,2207.26 5434.32,2180.16C5434.32,2152.96 5417.62,2135.56 5415.32,2135.56C5414.62,2135.56 5414.12,2136.06 5414.12,2136.76C5414.12,2137.16 5414.22,2137.66 5414.62,2138.06C5424.42,2149.76 5429.02,2165.96 5429.02,2180.16C5429.02,2190.06 5426.72,2201.06 5422.02,2210.76C5422.02,2208.76 5421.72,2205.36 5421.72,2201.96L5421.72,2161.26C5421.72,2158.26 5421.92,2155.06 5421.92,2153.66C5421.92,2152.26 5419.72,2151.16 5418.12,2151.16C5417.22,2151.16 5416.52,2151.56 5416.52,2152.26C5416.52,2154.16 5416.82,2157.46 5416.82,2160.96L5416.82,2201.86ZM5366.43,2204.46C5362.93,2188.26 5359.03,2172.76 5354.93,2158.66C5354.63,2157.46 5353.83,2154.66 5353.53,2152.86C5353.33,2151.76 5351.53,2151.26 5349.93,2151.26C5348.83,2151.26 5347.93,2151.46 5347.53,2151.86C5349.73,2146.86 5352.53,2142.16 5356.03,2138.06C5356.43,2137.66 5356.53,2137.16 5356.53,2136.76C5356.53,2136.06 5356.03,2135.56 5355.33,2135.56C5353.03,2135.56 5336.33,2152.96 5336.33,2180.16C5336.33,2207.26 5353.03,2224.76 5355.33,2224.76C5356.03,2224.76 5356.53,2224.26 5356.53,2223.56C5356.53,2223.16 5356.43,2222.66 5356.03,2222.26C5346.23,2210.56 5341.63,2194.36 5341.63,2180.16C5341.63,2171.16 5343.43,2161.36 5347.33,2152.36C5347.33,2152.56 5347.33,2152.66 5347.43,2152.76C5351.83,2161.56 5360.43,2197.86 5362.53,2206.96C5363.32,2210.26 5365.73,2212.16 5367.62,2212.16C5368.62,2212.16 5369.42,2211.56 5369.72,2210.36C5371.82,2200.26 5380.92,2162.86 5384.92,2154.06C5385.02,2153.86 5385.02,2153.66 5385.02,2153.46C5385.02,2151.86 5382.72,2150.46 5381.12,2150.46C5380.32,2150.46 5379.72,2150.76 5379.62,2151.46C5379.02,2154.36 5378.32,2157.56 5377.82,2159.46C5374.42,2171.96 5370.02,2189.06 5366.43,2204.46ZM5402.42,2201.86C5402.42,2204.86 5402.22,2208.06 5402.22,2209.46C5402.22,2210.86 5404.52,2211.86 5406.12,2211.86C5406.92,2211.86 5407.62,2211.56 5407.62,2210.96C5407.62,2209.06 5407.32,2205.46 5407.32,2201.96L5407.32,2161.26C5407.32,2158.26 5407.52,2155.06 5407.52,2153.66C5407.52,2152.26 5405.32,2151.16 5403.72,2151.16C5402.82,2151.16 5402.12,2151.56 5402.12,2152.26C5402.12,2154.16 5402.42,2157.46 5402.42,2160.96L5402.42,2201.86ZM5388.32,2201.86C5388.32,2204.86 5388.12,2208.06 5388.12,2209.46C5388.12,2210.86 5390.42,2211.86 5392.02,2211.86C5392.82,2211.86 5393.52,2211.56 5393.52,2210.96C5393.52,2209.06 5393.22,2205.46 5393.22,2201.96L5393.22,2161.26C5393.22,2158.26 5393.42,2155.06 5393.42,2153.66C5393.42,2152.26 5391.22,2151.16 5389.62,2151.16C5388.72,2151.16 5388.02,2151.56 5388.02,2152.26C5388.02,2154.16 5388.32,2157.46 5388.32,2160.96L5388.32,2201.86Z" style="fill-rule:nonzero;"/>
        </g>
    </g>
</svg>
