<?xml version="1.0" encoding="UTF-8" standalone="no"?>
<!DOCTYPE svg PUBLIC "-//W3C//DTD SVG 1.1//EN" "http://www.w3.org/Graphics/SVG/1.1/DTD/svg11.dtd">
<svg width="100%" height="100%" viewBox="0 0 98 90" version="1.1" xmlns="http://www.w3.org/2000/svg" xmlns:xlink="http://www.w3.org/1999/xlink" xml:space="preserve" xmlns:serif="http://www.serif.com/" style="fill-rule:evenodd;clip-rule:evenodd;stroke-linejoin:round;stroke-miterlimit:2;">
    <g transform="matrix(1,0,0,1,-5537.31,-1985.56)">
        <g transform="matrix(1,0,0,1,1,0)">
            <path d="M5556.51,2073.56C5556.51,2073.16 5556.4,2072.66 5556.01,2072.26C5546.21,2060.56 5541.61,2044.36 5541.61,2030.16C5541.61,2015.96 5546.21,1999.76 5556.01,1988.06C5556.4,1987.66 5556.51,1987.16 5556.51,1986.76C5556.51,1986.06 5556.01,1985.56 5555.31,1985.56C5553.01,1985.56 5536.31,2002.96 5536.31,2030.16C5536.31,2057.26 5553.01,2074.76 5555.31,2074.76C5556.01,2074.76 5556.51,2074.26 5556.51,2073.56ZM5615.3,2074.76C5617.6,2074.76 5634.3,2057.26 5634.3,2030.16C5634.3,2002.96 5617.6,1985.56 5615.3,1985.56C5614.6,1985.56 5614.1,1986.06 5614.1,1986.76C5614.1,1987.16 5614.2,1987.66 5614.6,1988.06C5624.4,1999.76 5629,2015.96 5629,2030.16C5629,2044.36 5624.4,2060.56 5614.6,2072.26C5614.2,2072.66 5614.1,2073.16 5614.1,2073.56C5614.1,2074.26 5614.6,2074.76 5615.3,2074.76ZM5578.7,2054.76C5579.8,2056.36 5580.8,2058.06 5581.7,2059.46C5582,2059.96 5582.7,2060.16 5583.5,2060.16C5585.1,2060.16 5587,2059.46 5587,2058.56C5587,2058.36 5586.9,2058.26 5586.8,2058.06C5585.2,2056.46 5583,2053.66 5581.8,2052.16L5572.7,2039.66L5581.7,2027.36C5582.6,2025.96 5584.2,2024.16 5585.9,2022.56C5586,2022.46 5586.1,2022.26 5586.1,2022.16C5586.1,2021.26 5583.9,2020.46 5582.4,2020.46C5581.7,2020.46 5581.2,2020.56 5581,2020.96C5580.4,2021.96 5579.6,2023.46 5578.5,2024.86L5570.2,2036.26L5562.31,2025.26C5561.31,2023.96 5560.4,2022.36 5559.9,2021.26C5559.7,2020.96 5559.2,2020.76 5558.51,2020.76C5557.01,2020.76 5554.9,2021.56 5554.9,2022.36C5554.9,2022.56 5554.9,2022.66 5555.11,2022.86C5556.7,2024.46 5558.11,2026.16 5559.11,2027.66L5567.8,2039.66L5558.7,2052.26C5557.4,2054.16 5555.31,2056.46 5553.51,2058.16C5553.31,2058.36 5553.31,2058.46 5553.31,2058.66C5553.31,2059.46 5555.2,2060.26 5556.81,2060.26C5557.7,2060.26 5558.4,2060.06 5558.7,2059.56C5559.51,2058.26 5560.9,2056.06 5561.81,2054.86L5570.3,2043.16L5578.7,2054.76ZM5603.7,2054.06L5594.3,2025.96L5593,2021.76C5592.7,2020.96 5591.6,2020.56 5590.4,2020.56C5589.1,2020.56 5587.9,2021.06 5587.9,2021.86C5587.9,2022.06 5587.9,2022.16 5588,2022.36C5588.9,2024.36 5589.6,2025.96 5590,2027.06L5599.9,2055.66C5600.8,2057.86 5600.8,2058.56 5601.6,2059.46C5602.3,2060.16 5603.4,2060.76 5604.4,2060.76C5605.2,2060.76 5605.9,2060.36 5606.3,2058.96C5606.8,2057.36 5607.4,2055.66 5608.1,2054.16L5618.3,2028.06C5618.9,2026.56 5620,2024.36 5620.9,2022.76C5621,2022.66 5621,2022.56 5621,2022.36C5621,2021.26 5618.8,2020.26 5617.3,2020.26C5616.6,2020.26 5616,2020.46 5615.9,2021.06C5615.4,2023.06 5614.8,2024.86 5614.1,2026.66L5603.7,2054.06Z" style="fill-rule:nonzero;"/>
        </g>
    </g>
</svg>
