<?xml version="1.0" encoding="UTF-8" standalone="no"?>
<!DOCTYPE svg PUBLIC "-//W3C//DTD SVG 1.1//EN" "http://www.w3.org/Graphics/SVG/1.1/DTD/svg11.dtd">
<svg width="100%" height="100%" viewBox="0 0 98 90" version="1.1" xmlns="http://www.w3.org/2000/svg" xmlns:xlink="http://www.w3.org/1999/xlink" xml:space="preserve" xmlns:serif="http://www.serif.com/" style="fill-rule:evenodd;clip-rule:evenodd;stroke-linejoin:round;stroke-miterlimit:2;">
    <g transform="matrix(1,0,0,1,-5837.28,-2135.56)">
        <g transform="matrix(1,0,0,1,1,0)">
            <path d="M5853.28,2200.86C5852.07,2203.06 5850.38,2206.06 5848.57,2208.86C5848.48,2209.06 5848.38,2209.26 5848.38,2209.46C5848.38,2210.66 5850.38,2211.86 5851.98,2211.86C5852.78,2211.86 5853.48,2211.56 5853.78,2210.86C5857.07,2203.56 5857.87,2201.86 5867.17,2184.16C5870.87,2191.06 5872.67,2194.76 5880.37,2210.96C5880.67,2211.56 5881.27,2211.76 5881.87,2211.76C5883.47,2211.76 5885.57,2210.36 5885.57,2209.06C5885.57,2208.86 5885.57,2208.56 5885.37,2208.36C5883.87,2206.26 5882.37,2203.86 5880.77,2200.86C5877.67,2195.06 5873.37,2186.66 5869.57,2179.56C5874.87,2169.86 5881.57,2157.86 5883.87,2154.36C5883.97,2154.16 5884.07,2153.96 5884.07,2153.76C5884.07,2152.46 5881.77,2150.96 5880.27,2150.96C5879.77,2150.96 5879.27,2151.16 5879.07,2151.56C5877.97,2153.76 5877.17,2155.66 5875.87,2158.16C5873.57,2162.36 5870.27,2168.86 5867.17,2174.86C5863.77,2168.86 5858.57,2158.96 5855.28,2151.66C5855.07,2151.16 5854.38,2150.96 5853.57,2150.96C5851.98,2150.96 5849.98,2151.76 5849.98,2153.06C5849.98,2153.26 5850.07,2153.56 5850.28,2153.86C5851.88,2156.06 5853.57,2158.86 5864.67,2179.46L5853.28,2200.86ZM5856.48,2223.56C5856.48,2223.16 5856.38,2222.66 5855.98,2222.26C5846.18,2210.56 5841.58,2194.36 5841.58,2180.16C5841.58,2165.96 5846.18,2149.76 5855.98,2138.06C5856.38,2137.66 5856.48,2137.16 5856.48,2136.76C5856.48,2136.06 5855.98,2135.56 5855.28,2135.56C5852.98,2135.56 5836.28,2152.96 5836.28,2180.16C5836.28,2207.26 5852.98,2224.76 5855.28,2224.76C5855.98,2224.76 5856.48,2224.26 5856.48,2223.56ZM5915.27,2224.76C5917.57,2224.76 5934.27,2207.26 5934.27,2180.16C5934.27,2152.96 5917.57,2135.56 5915.27,2135.56C5914.57,2135.56 5914.07,2136.06 5914.07,2136.76C5914.07,2137.16 5914.17,2137.66 5914.57,2138.06C5924.37,2149.76 5928.97,2165.96 5928.97,2180.16C5928.97,2194.36 5924.37,2210.56 5914.57,2222.26C5914.17,2222.66 5914.07,2223.16 5914.07,2223.56C5914.07,2224.26 5914.57,2224.76 5915.27,2224.76ZM5916.27,2201.86C5916.27,2204.76 5916.07,2208.06 5916.07,2209.36C5916.07,2210.76 5918.37,2211.76 5919.97,2211.76C5920.77,2211.76 5921.47,2211.46 5921.47,2210.86C5921.47,2208.96 5921.17,2205.36 5921.17,2201.86L5921.17,2161.16C5921.17,2158.26 5921.37,2154.96 5921.37,2153.66C5921.37,2152.26 5919.07,2151.16 5917.47,2151.16C5916.57,2151.16 5915.97,2151.46 5915.97,2152.16C5915.97,2154.16 5916.27,2157.36 5916.27,2160.86L5916.27,2201.86ZM5888.57,2201.86C5888.57,2204.76 5888.37,2208.06 5888.37,2209.36C5888.37,2210.76 5890.67,2211.76 5892.27,2211.76C5893.07,2211.76 5893.77,2211.46 5893.77,2210.86C5893.77,2208.96 5893.47,2205.36 5893.47,2201.86L5893.47,2161.16C5893.47,2158.26 5893.67,2154.96 5893.67,2153.66C5893.67,2152.26 5891.37,2151.16 5889.77,2151.16C5888.87,2151.16 5888.27,2151.46 5888.27,2152.16C5888.27,2154.16 5888.57,2157.36 5888.57,2160.86L5888.57,2201.86ZM5902.47,2201.86C5902.47,2204.76 5902.27,2208.06 5902.27,2209.36C5902.27,2210.76 5904.57,2211.76 5906.17,2211.76C5906.97,2211.76 5907.67,2211.46 5907.67,2210.86C5907.67,2208.96 5907.37,2205.36 5907.37,2201.86L5907.37,2161.16C5907.37,2158.26 5907.57,2154.96 5907.57,2153.66C5907.57,2152.26 5905.27,2151.16 5903.67,2151.16C5902.77,2151.16 5902.17,2151.46 5902.17,2152.16C5902.17,2154.16 5902.47,2157.36 5902.47,2160.86L5902.47,2201.86Z" style="fill-rule:nonzero;"/>
        </g>
    </g>
</svg>
