<?xml version="1.0" encoding="UTF-8" standalone="no"?>
<!DOCTYPE svg PUBLIC "-//W3C//DTD SVG 1.1//EN" "http://www.w3.org/Graphics/SVG/1.1/DTD/svg11.dtd">
<svg width="100%" height="100%" viewBox="0 0 98 90" version="1.1" xmlns="http://www.w3.org/2000/svg" xmlns:xlink="http://www.w3.org/1999/xlink" xml:space="preserve" xmlns:serif="http://www.serif.com/" style="fill-rule:evenodd;clip-rule:evenodd;stroke-linejoin:round;stroke-miterlimit:2;">
    <g transform="matrix(1,0,0,1,-5637.3,-1985.56)">
        <g transform="matrix(1,0,0,1,1,0)">
            <path d="M5715.29,2074.76C5717.59,2074.76 5734.29,2057.26 5734.29,2030.16C5734.29,2002.96 5717.59,1985.56 5715.29,1985.56C5714.59,1985.56 5714.09,1986.06 5714.09,1986.76C5714.09,1987.16 5714.19,1987.66 5714.59,1988.06C5724.39,1999.76 5728.99,2015.96 5728.99,2030.16C5728.99,2044.36 5724.39,2060.56 5714.59,2072.26C5714.19,2072.66 5714.09,2073.16 5714.09,2073.56C5714.09,2074.26 5714.59,2074.76 5715.29,2074.76ZM5656.49,2073.56C5656.49,2073.16 5656.4,2072.66 5655.99,2072.26C5646.2,2060.56 5641.6,2044.36 5641.6,2030.16C5641.6,2015.96 5646.2,1999.76 5655.99,1988.06C5656.4,1987.66 5656.49,1987.16 5656.49,1986.76C5656.49,1986.06 5655.99,1985.56 5655.3,1985.56C5652.99,1985.56 5636.3,2002.96 5636.3,2030.16C5636.3,2057.26 5652.99,2074.76 5655.3,2074.76C5655.99,2074.76 5656.49,2074.26 5656.49,2073.56ZM5682.79,2051.96C5682.79,2054.96 5682.69,2058.16 5682.69,2059.56C5682.69,2060.96 5684.99,2061.86 5686.59,2061.86C5687.49,2061.86 5688.09,2061.66 5688.09,2061.06C5688.09,2059.06 5687.79,2055.56 5687.79,2052.06L5687.79,2011.06C5687.79,2008.06 5687.99,2004.86 5687.99,2003.56C5687.99,2002.06 5685.59,2001.16 5683.99,2001.16C5683.19,2001.16 5682.59,2001.36 5682.59,2001.96C5682.59,2003.96 5682.79,2007.46 5682.79,2010.96L5682.79,2051.96Z" style="fill-rule:nonzero;"/>
        </g>
    </g>
</svg>
