<?xml version="1.0" encoding="UTF-8" standalone="no"?>
<!DOCTYPE svg PUBLIC "-//W3C//DTD SVG 1.1//EN" "http://www.w3.org/Graphics/SVG/1.1/DTD/svg11.dtd">
<svg width="100%" height="100%" viewBox="0 0 98 90" version="1.1" xmlns="http://www.w3.org/2000/svg" xmlns:xlink="http://www.w3.org/1999/xlink" xml:space="preserve" xmlns:serif="http://www.serif.com/" style="fill-rule:evenodd;clip-rule:evenodd;stroke-linejoin:round;stroke-miterlimit:2;">
    <g transform="matrix(1,0,0,1,-5137.35,-2135.56)">
        <g transform="matrix(1,0,0,1,1,0)">
            <path d="M5215.34,2224.76C5217.64,2224.76 5234.34,2207.26 5234.34,2180.16C5234.34,2152.96 5217.64,2135.56 5215.34,2135.56C5214.64,2135.56 5214.14,2136.06 5214.14,2136.76C5214.14,2137.16 5214.24,2137.66 5214.64,2138.06C5224.44,2149.76 5229.04,2165.96 5229.04,2180.16C5229.04,2194.36 5224.44,2210.56 5214.64,2222.26C5214.24,2222.66 5214.14,2223.16 5214.14,2223.56C5214.14,2224.26 5214.64,2224.76 5215.34,2224.76ZM5156.55,2223.56C5156.55,2223.16 5156.45,2222.66 5156.05,2222.26C5146.25,2210.56 5141.65,2194.36 5141.65,2180.16C5141.65,2165.96 5146.25,2149.76 5156.05,2138.06C5156.45,2137.66 5156.55,2137.16 5156.55,2136.76C5156.55,2136.06 5156.05,2135.56 5155.35,2135.56C5153.05,2135.56 5136.35,2152.96 5136.35,2180.16C5136.35,2207.26 5153.05,2224.76 5155.35,2224.76C5156.05,2224.76 5156.55,2224.26 5156.55,2223.56ZM5172.24,2206.76C5173.14,2210.36 5175.34,2212.06 5177.04,2212.06C5178.04,2212.06 5178.94,2211.36 5179.24,2210.16C5183.14,2196.36 5189.44,2175.86 5194.64,2160.76C5195.14,2159.36 5196.84,2155.46 5197.54,2153.86C5197.64,2153.66 5197.74,2153.46 5197.74,2153.26C5197.74,2151.86 5195.24,2150.36 5193.64,2150.36C5192.94,2150.36 5192.44,2150.66 5192.34,2151.26C5191.84,2153.86 5190.64,2157.76 5190.14,2159.26C5185.94,2171.46 5180.54,2188.46 5176.14,2204.26C5171.84,2188.26 5166.85,2172.16 5162.05,2158.46C5161.55,2156.96 5160.85,2154.36 5160.55,2152.76C5160.35,2151.66 5158.55,2151.06 5156.95,2151.06C5155.55,2151.06 5154.35,2151.46 5154.35,2152.26C5154.35,2152.36 5154.35,2152.56 5154.45,2152.66C5159.85,2164.76 5167.74,2190.56 5172.24,2206.76ZM5204.84,2201.66C5204.84,2204.66 5204.64,2207.86 5204.64,2209.26C5204.64,2210.66 5206.84,2211.66 5208.44,2211.66C5209.34,2211.66 5209.94,2211.36 5209.94,2210.76C5209.94,2208.86 5209.74,2205.26 5209.74,2201.76L5209.74,2161.06C5209.74,2158.06 5209.94,2154.86 5209.94,2153.46C5209.94,2152.06 5207.74,2150.96 5206.14,2150.96C5205.24,2150.96 5204.54,2151.36 5204.54,2152.06C5204.54,2153.96 5204.84,2157.26 5204.84,2160.66L5204.84,2201.66Z" style="fill-rule:nonzero;"/>
        </g>
    </g>
</svg>
