<?xml version="1.0" encoding="UTF-8" standalone="no"?>
<!DOCTYPE svg PUBLIC "-//W3C//DTD SVG 1.1//EN" "http://www.w3.org/Graphics/SVG/1.1/DTD/svg11.dtd">
<svg width="100%" height="100%" viewBox="0 0 96 96" version="1.1" xmlns="http://www.w3.org/2000/svg" xmlns:xlink="http://www.w3.org/1999/xlink" xml:space="preserve" xmlns:serif="http://www.serif.com/" style="fill-rule:evenodd;clip-rule:evenodd;stroke-linejoin:round;stroke-miterlimit:2;">
    <g transform="matrix(1,0,0,1,-1909.63,-2723.28)">
        <g transform="matrix(1,0,0,1,-110.019,-3591.86)">
            <path d="M2115.25,6362.94C2115.25,6336.55 2093.85,6315.15 2067.45,6315.15C2041.05,6315.15 2019.65,6336.55 2019.65,6362.94C2019.65,6389.35 2041.05,6410.65 2067.45,6410.65C2093.85,6410.65 2115.25,6389.35 2115.25,6362.94ZM2111.15,6362.94C2111.15,6387.05 2091.55,6406.55 2067.45,6406.55C2043.35,6406.55 2023.75,6387.05 2023.75,6362.94C2023.75,6338.85 2043.35,6319.24 2067.45,6319.24C2091.55,6319.24 2111.15,6338.85 2111.15,6362.94ZM2071.55,6363.24C2080.05,6365.55 2083.45,6369.35 2083.45,6376.24C2083.45,6382.65 2076.45,6388.05 2067.45,6388.05C2062.25,6388.05 2055.45,6387.35 2050.35,6379.35C2050.15,6378.94 2049.75,6378.74 2049.45,6378.74C2048.15,6378.74 2046.55,6380.85 2046.55,6382.55C2046.55,6384.55 2054.35,6392.44 2067.35,6392.44C2080.65,6392.44 2088.15,6385.05 2088.15,6375.65C2088.15,6367.05 2083.25,6361.74 2072.85,6359.05L2064.15,6356.74C2057.25,6355.15 2054.05,6353.05 2054.05,6348.74C2054.05,6343.44 2060.25,6337.94 2068.65,6337.94C2071.55,6337.94 2077.55,6339.05 2081.45,6343.65C2081.95,6344.15 2082.65,6345.05 2083.45,6345.05C2083.75,6345.05 2084.05,6344.85 2084.35,6344.44C2085.05,6343.44 2085.35,6342.24 2085.35,6341.35C2085.35,6339.24 2078.75,6333.55 2068.45,6333.55C2057.45,6333.55 2049.25,6340.85 2049.25,6348.55C2049.25,6355.65 2054.25,6359.05 2062.05,6360.74L2071.55,6363.24Z" style="fill-rule:nonzero;"/>
        </g>
    </g>
</svg>
