<?xml version="1.0" encoding="UTF-8" standalone="no"?>
<!DOCTYPE svg PUBLIC "-//W3C//DTD SVG 1.1//EN" "http://www.w3.org/Graphics/SVG/1.1/DTD/svg11.dtd">
<svg width="100%" height="100%" viewBox="0 0 96 96" version="1.1" xmlns="http://www.w3.org/2000/svg" xmlns:xlink="http://www.w3.org/1999/xlink" xml:space="preserve" xmlns:serif="http://www.serif.com/" style="fill-rule:evenodd;clip-rule:evenodd;stroke-linejoin:round;stroke-miterlimit:2;">
    <g transform="matrix(1,0,0,1,-109.628,-4073.28)">
        <g transform="matrix(1,0,0,1,-110.019,-3591.86)">
            <path d="M315.248,7712.94C315.248,7686.55 293.848,7665.15 267.448,7665.15C241.048,7665.15 219.648,7686.55 219.648,7712.94C219.648,7739.35 241.048,7760.65 267.448,7760.65C293.848,7760.65 315.248,7739.35 315.248,7712.94ZM273.248,7707.55C284.048,7710.44 289.648,7716.15 289.648,7725.65C289.648,7736.05 281.248,7743.94 267.348,7743.94C257.948,7743.94 251.148,7740.65 245.848,7734.74C245.248,7734.05 245.048,7733.15 245.048,7732.55C245.048,7730.44 246.948,7727.24 249.448,7727.24C250.248,7727.24 251.148,7727.74 251.648,7728.55C256.248,7736.35 264.748,7736.55 267.448,7736.55C276.048,7736.55 281.948,7731.44 281.948,7726.24C281.948,7720.24 279.248,7716.85 271.148,7714.74L261.648,7712.24C253.848,7710.15 247.748,7706.74 247.748,7698.55C247.748,7689.74 256.948,7682.05 268.448,7682.05C277.648,7682.05 286.848,7687.05 286.848,7691.35C286.848,7693.55 285.548,7696.55 283.448,7696.55C282.448,7696.55 281.748,7696.05 281.348,7695.65C279.448,7694.05 278.748,7692.74 276.248,7691.35C274.848,7690.44 271.248,7689.44 268.648,7689.44C260.748,7689.44 255.548,7694.55 255.548,7698.74C255.548,7701.85 257.548,7703.44 264.548,7705.24L273.248,7707.55Z" style="fill-rule:nonzero;"/>
        </g>
    </g>
</svg>
