<?xml version="1.0" encoding="UTF-8" standalone="no"?>
<!DOCTYPE svg PUBLIC "-//W3C//DTD SVG 1.1//EN" "http://www.w3.org/Graphics/SVG/1.1/DTD/svg11.dtd">
<svg width="100%" height="100%" viewBox="0 0 89 89" version="1.1" xmlns="http://www.w3.org/2000/svg" xmlns:xlink="http://www.w3.org/1999/xlink" xml:space="preserve" xmlns:serif="http://www.serif.com/" style="fill-rule:evenodd;clip-rule:evenodd;stroke-linejoin:round;stroke-miterlimit:2;">
    <g transform="matrix(1,0,0,1,-858.708,-2521.63)">
        <g transform="matrix(1.41414,0,0,1.41429,-177.055,-770.755)">
            <path d="M794.796,2390.31L794.796,2327.95L732.433,2327.95L732.433,2390.31L794.796,2390.31ZM767.716,2355.39C775.352,2357.43 779.312,2361.47 779.312,2368.18C779.312,2375.54 773.372,2381.12 763.544,2381.12C756.897,2381.12 752.089,2378.79 748.342,2374.62C747.918,2374.12 747.776,2373.49 747.776,2373.06C747.776,2371.58 749.12,2369.31 750.887,2369.31C751.453,2369.31 752.089,2369.67 752.443,2370.23C755.695,2375.75 761.705,2375.89 763.615,2375.89C769.695,2375.89 773.867,2372.28 773.867,2368.61C773.867,2364.36 771.958,2361.96 766.231,2360.48L759.514,2358.71C753.998,2357.22 749.685,2354.82 749.685,2349.02C749.685,2342.8 756.19,2337.35 764.322,2337.35C770.827,2337.35 777.332,2340.89 777.332,2343.93C777.332,2345.49 776.413,2347.61 774.928,2347.61C774.221,2347.61 773.726,2347.25 773.443,2346.97C772.099,2345.84 771.604,2344.92 769.837,2343.93C768.847,2343.29 766.301,2342.59 764.463,2342.59C758.877,2342.59 755.2,2346.19 755.2,2349.16C755.2,2351.35 756.615,2352.49 761.564,2353.76L767.716,2355.39Z" style="fill-rule:nonzero;"/>
        </g>
    </g>
</svg>
