<?xml version="1.0" encoding="UTF-8" standalone="no"?>
<!DOCTYPE svg PUBLIC "-//W3C//DTD SVG 1.1//EN" "http://www.w3.org/Graphics/SVG/1.1/DTD/svg11.dtd">
<svg width="100%" height="100%" viewBox="0 0 89 89" version="1.1" xmlns="http://www.w3.org/2000/svg" xmlns:xlink="http://www.w3.org/1999/xlink" xml:space="preserve" xmlns:serif="http://www.serif.com/" style="fill-rule:evenodd;clip-rule:evenodd;stroke-linejoin:round;stroke-miterlimit:2;">
    <g transform="matrix(1,0,0,1,-2202.44,-2492.27)">
        <g transform="matrix(1.41414,0,0,1.41429,-1052.39,-837.704)">
            <path d="M2358.48,2416.89C2361.87,2416.89 2363.99,2414.35 2363.99,2411.38L2363.99,2360.05C2363.99,2356.58 2361.52,2354.53 2358.48,2354.53L2307.14,2354.53C2303.68,2354.53 2301.63,2356.86 2301.63,2360.05L2301.63,2411.38C2301.63,2414.56 2304.11,2416.89 2307.14,2416.89L2358.48,2416.89ZM2336.91,2381.96C2344.55,2384.01 2348.51,2388.05 2348.51,2394.76C2348.51,2402.12 2342.57,2407.7 2332.74,2407.7C2326.1,2407.7 2321.29,2405.37 2317.54,2401.2C2317.12,2400.7 2316.97,2400.07 2316.97,2399.64C2316.97,2398.16 2318.32,2395.89 2320.09,2395.89C2320.65,2395.89 2321.29,2396.25 2321.64,2396.81C2324.89,2402.33 2330.9,2402.47 2332.81,2402.47C2338.89,2402.47 2343.07,2398.86 2343.07,2395.19C2343.07,2390.94 2341.16,2388.54 2335.43,2387.05L2328.71,2385.29C2323.2,2383.8 2318.88,2381.4 2318.88,2375.6C2318.88,2369.38 2325.39,2363.93 2333.52,2363.93C2340.02,2363.93 2346.53,2367.47 2346.53,2370.51C2346.53,2372.07 2345.61,2374.19 2344.12,2374.19C2343.42,2374.19 2342.92,2373.83 2342.64,2373.55C2341.3,2372.42 2340.8,2371.5 2339.03,2370.51C2338.04,2369.87 2335.5,2369.17 2333.66,2369.17C2328.08,2369.17 2324.4,2372.77 2324.4,2375.74C2324.4,2377.93 2325.81,2379.07 2330.76,2380.34L2336.91,2381.96Z" style="fill-rule:nonzero;"/>
        </g>
    </g>
</svg>
