<?xml version="1.0" encoding="UTF-8" standalone="no"?>
<!DOCTYPE svg PUBLIC "-//W3C//DTD SVG 1.1//EN" "http://www.w3.org/Graphics/SVG/1.1/DTD/svg11.dtd">
<svg width="100%" height="100%" viewBox="0 0 98 90" version="1.1" xmlns="http://www.w3.org/2000/svg" xmlns:xlink="http://www.w3.org/1999/xlink" xml:space="preserve" xmlns:serif="http://www.serif.com/" style="fill-rule:evenodd;clip-rule:evenodd;stroke-linejoin:round;stroke-miterlimit:2;">
    <g transform="matrix(1,0,0,1,-5937.37,-2435.56)">
        <g transform="matrix(1,0,0,1,1,0)">
            <path d="M6015.06,2524.76C6017.36,2524.76 6034.06,2507.26 6034.06,2480.16C6034.06,2452.96 6017.36,2435.56 6015.06,2435.56C6014.36,2435.56 6013.86,2436.06 6013.86,2436.76C6013.86,2437.16 6013.96,2437.66 6014.36,2438.06C6024.16,2449.76 6028.76,2465.96 6028.76,2480.16C6028.76,2494.36 6024.16,2510.56 6014.36,2522.26C6013.96,2522.66 6013.86,2523.16 6013.86,2523.56C6013.86,2524.26 6014.36,2524.76 6015.06,2524.76ZM5956.56,2523.56C5956.56,2523.16 5956.46,2522.66 5956.06,2522.26C5946.27,2510.56 5941.67,2494.36 5941.67,2480.16C5941.67,2465.96 5946.27,2449.76 5956.06,2438.06C5956.46,2437.66 5956.56,2437.16 5956.56,2436.76C5956.56,2436.06 5956.06,2435.56 5955.36,2435.56C5953.07,2435.56 5936.37,2452.96 5936.37,2480.16C5936.37,2507.26 5953.07,2524.76 5955.36,2524.76C5956.06,2524.76 5956.56,2524.26 5956.56,2523.56ZM5989.36,2480.46C5997.86,2482.76 6001.26,2486.56 6001.26,2493.46C6001.26,2499.86 5994.26,2505.26 5985.26,2505.26C5980.06,2505.26 5973.26,2504.56 5968.16,2496.56C5967.96,2496.16 5967.56,2495.96 5967.26,2495.96C5965.96,2495.96 5964.36,2498.06 5964.36,2499.76C5964.36,2501.76 5972.16,2509.66 5985.16,2509.66C5998.46,2509.66 6005.96,2502.26 6005.96,2492.86C6005.96,2484.26 6001.06,2478.96 5990.66,2476.26L5981.96,2473.96C5975.06,2472.36 5971.86,2470.26 5971.86,2465.96C5971.86,2460.66 5978.06,2455.16 5986.46,2455.16C5989.36,2455.16 5995.36,2456.26 5999.26,2460.86C5999.76,2461.36 6000.46,2462.26 6001.26,2462.26C6001.56,2462.26 6001.86,2462.06 6002.16,2461.66C6002.86,2460.66 6003.16,2459.46 6003.16,2458.56C6003.16,2456.46 5996.56,2450.76 5986.26,2450.76C5975.26,2450.76 5967.06,2458.06 5967.06,2465.76C5967.06,2472.86 5972.06,2476.26 5979.86,2477.96L5989.36,2480.46Z" style="fill-rule:nonzero;"/>
        </g>
    </g>
</svg>
