<?xml version="1.0" encoding="UTF-8" standalone="no"?>
<!DOCTYPE svg PUBLIC "-//W3C//DTD SVG 1.1//EN" "http://www.w3.org/Graphics/SVG/1.1/DTD/svg11.dtd">
<svg width="100%" height="100%" viewBox="0 0 89 89" version="1.1" xmlns="http://www.w3.org/2000/svg" xmlns:xlink="http://www.w3.org/1999/xlink" xml:space="preserve" xmlns:serif="http://www.serif.com/" style="fill-rule:evenodd;clip-rule:evenodd;stroke-linejoin:round;stroke-miterlimit:2;">
    <g transform="matrix(1,0,0,1,-3493.28,-2481.51)">
        <g transform="matrix(1.41414,0,0,1.41429,-1389.33,-1046.26)">
            <path d="M3509.55,2556.75C3512.95,2556.75 3515.07,2554.2 3515.07,2551.23L3515.07,2499.9C3515.07,2496.43 3512.59,2494.39 3509.55,2494.39L3458.22,2494.39C3454.76,2494.39 3452.7,2496.72 3452.7,2499.9L3452.7,2551.23C3452.7,2554.41 3455.18,2556.75 3458.22,2556.75L3509.55,2556.75ZM3512.17,2551.52C3512.17,2553.07 3511.11,2553.85 3509.91,2553.85L3457.87,2553.85C3456.38,2553.85 3455.6,2552.79 3455.6,2551.52L3455.6,2499.55C3455.6,2498.13 3456.52,2497.28 3457.87,2497.28L3509.91,2497.28C3511.32,2497.28 3512.17,2498.34 3512.17,2499.55L3512.17,2551.52ZM3486.78,2525.85C3492.8,2527.48 3495.2,2530.16 3495.2,2535.04C3495.2,2539.57 3490.25,2543.39 3483.89,2543.39C3480.21,2543.39 3475.4,2542.89 3471.8,2537.23C3471.65,2536.95 3471.37,2536.81 3471.16,2536.81C3470.24,2536.81 3469.11,2538.29 3469.11,2539.5C3469.11,2540.91 3474.62,2546.5 3483.82,2546.5C3493.22,2546.5 3498.52,2541.26 3498.52,2534.62C3498.52,2528.54 3495.06,2524.79 3487.7,2522.88L3481.55,2521.25C3476.67,2520.12 3474.41,2518.64 3474.41,2515.6C3474.41,2511.85 3478.8,2507.96 3484.73,2507.96C3486.78,2507.96 3491.03,2508.74 3493.78,2511.99C3494.14,2512.34 3494.63,2512.98 3495.2,2512.98C3495.41,2512.98 3495.62,2512.84 3495.84,2512.56C3496.33,2511.85 3496.54,2511 3496.54,2510.36C3496.54,2508.88 3491.88,2504.85 3484.59,2504.85C3476.82,2504.85 3471.02,2510.01 3471.02,2515.45C3471.02,2520.48 3474.55,2522.88 3480.07,2524.08L3486.78,2525.85Z" style="fill-rule:nonzero;"/>
        </g>
    </g>
</svg>
