<?xml version="1.0" encoding="UTF-8" standalone="no"?>
<!DOCTYPE svg PUBLIC "-//W3C//DTD SVG 1.1//EN" "http://www.w3.org/Graphics/SVG/1.1/DTD/svg11.dtd">
<svg width="100%" height="100%" viewBox="0 0 89 89" version="1.1" xmlns="http://www.w3.org/2000/svg" xmlns:xlink="http://www.w3.org/1999/xlink" xml:space="preserve" xmlns:serif="http://www.serif.com/" style="fill-rule:evenodd;clip-rule:evenodd;stroke-linejoin:round;stroke-miterlimit:2;">
    <g transform="matrix(1,0,0,1,-2640.22,-1938.66)">
        <g transform="matrix(1,0,0,1,-1072.97,-2735.12)">
            <path d="M3801.38,4761.99L3801.38,4673.79L3713.18,4673.79L3713.18,4761.99L3801.38,4761.99ZM3797.28,4757.89L3717.28,4757.89L3717.28,4677.89L3797.28,4677.89L3797.28,4757.89ZM3761.38,4718.29C3769.88,4720.59 3773.28,4724.39 3773.28,4731.29C3773.28,4737.69 3766.28,4743.09 3757.28,4743.09C3752.08,4743.09 3745.28,4742.39 3740.18,4734.39C3739.98,4733.99 3739.58,4733.79 3739.28,4733.79C3737.98,4733.79 3736.38,4735.89 3736.38,4737.59C3736.38,4739.59 3744.18,4747.49 3757.18,4747.49C3770.48,4747.49 3777.98,4740.09 3777.98,4730.69C3777.98,4722.09 3773.08,4716.79 3762.68,4714.09L3753.98,4711.79C3747.08,4710.19 3743.88,4708.09 3743.88,4703.79C3743.88,4698.49 3750.08,4692.99 3758.48,4692.99C3761.38,4692.99 3767.38,4694.09 3771.28,4698.69C3771.78,4699.19 3772.48,4700.09 3773.28,4700.09C3773.58,4700.09 3773.88,4699.89 3774.18,4699.49C3774.88,4698.49 3775.18,4697.29 3775.18,4696.39C3775.18,4694.29 3768.58,4688.59 3758.28,4688.59C3747.28,4688.59 3739.08,4695.89 3739.08,4703.59C3739.08,4710.69 3744.08,4714.09 3751.88,4715.79L3761.38,4718.29Z" style="fill-rule:nonzero;"/>
        </g>
    </g>
</svg>
