<?xml version="1.0" encoding="UTF-8" standalone="no"?>
<!DOCTYPE svg PUBLIC "-//W3C//DTD SVG 1.1//EN" "http://www.w3.org/Graphics/SVG/1.1/DTD/svg11.dtd">
<svg width="100%" height="100%" viewBox="0 0 81 82" version="1.1" xmlns="http://www.w3.org/2000/svg" xmlns:xlink="http://www.w3.org/1999/xlink" xml:space="preserve" xmlns:serif="http://www.serif.com/" style="fill-rule:evenodd;clip-rule:evenodd;stroke-linejoin:round;stroke-miterlimit:2;">
    <g transform="matrix(1,0,0,1,-1275.58,-5572.87)">
        <g transform="matrix(1,0,0,1,-504.034,-1124.47)">
            <path d="M1834.81,6753.64C1835.91,6753.64 1844.51,6746.44 1844.51,6736.64C1844.51,6728.44 1836.71,6720.34 1836.71,6712.24C1836.71,6708.24 1838.91,6704.14 1840.81,6701.64C1841.41,6700.94 1841.61,6700.34 1841.61,6699.94C1841.61,6699.74 1841.51,6699.54 1841.21,6699.54C1840.51,6699.54 1831.91,6705.94 1831.91,6715.14C1831.91,6723.44 1839.01,6730.64 1839.01,6740.04C1839.01,6744.74 1837.31,6748.54 1835.41,6751.44C1834.81,6752.34 1834.51,6752.94 1834.51,6753.34C1834.51,6753.54 1834.61,6753.64 1834.81,6753.64ZM1817.11,6760.14C1818.21,6760.14 1828.01,6751.34 1828.01,6738.94C1828.01,6727.34 1818.51,6718.34 1818.51,6710.64C1818.51,6706.64 1820.31,6702.54 1822.31,6699.44C1822.81,6698.64 1823.01,6698.04 1823.01,6697.74C1823.01,6697.44 1822.91,6697.34 1822.71,6697.34C1821.21,6697.34 1813.91,6704.44 1813.91,6713.24C1813.91,6723.94 1822.01,6728.84 1822.01,6740.84C1822.01,6747.64 1820.81,6752.84 1817.61,6757.94C1817.11,6758.84 1816.81,6759.44 1816.81,6759.74C1816.81,6760.04 1816.91,6760.14 1817.11,6760.14ZM1799.91,6756.64C1801.01,6756.64 1809.61,6749.44 1809.61,6739.64C1809.61,6731.44 1802.11,6722.54 1802.11,6714.54C1802.11,6710.54 1803.21,6707.74 1805.21,6704.64C1805.71,6703.84 1805.91,6703.24 1805.91,6702.94C1805.91,6702.64 1805.81,6702.54 1805.61,6702.54C1804.61,6702.54 1797.01,6708.94 1797.01,6718.14C1797.01,6726.44 1804.11,6733.64 1804.11,6743.04C1804.11,6747.74 1802.41,6751.54 1800.51,6754.44C1799.91,6755.34 1799.61,6755.94 1799.61,6756.34C1799.61,6756.54 1799.71,6756.64 1799.91,6756.64ZM1860.41,6751.94C1860.41,6742.34 1852.21,6737.74 1851.31,6737.74C1851.11,6737.74 1850.91,6737.84 1850.91,6738.14C1850.91,6738.44 1851.21,6739.04 1851.81,6739.74C1853.91,6742.44 1856.11,6744.54 1856.11,6750.84C1856.11,6760.74 1840.91,6771.54 1819.81,6771.54C1798.81,6771.54 1783.91,6760.74 1783.91,6750.84C1783.91,6744.54 1786.11,6742.44 1788.21,6739.74C1788.81,6739.04 1789.11,6738.44 1789.11,6738.14C1789.11,6737.84 1788.91,6737.74 1788.71,6737.74C1787.81,6737.74 1779.61,6742.34 1779.61,6751.94C1779.61,6767.74 1798.01,6779.24 1819.81,6779.24C1841.71,6779.24 1860.41,6767.74 1860.41,6751.94Z" style="fill-rule:nonzero;"/>
        </g>
    </g>
</svg>
