<?xml version="1.0" encoding="UTF-8" standalone="no"?>
<!DOCTYPE svg PUBLIC "-//W3C//DTD SVG 1.1//EN" "http://www.w3.org/Graphics/SVG/1.1/DTD/svg11.dtd">
<svg width="100%" height="100%" viewBox="0 0 55 89" version="1.1" xmlns="http://www.w3.org/2000/svg" xmlns:xlink="http://www.w3.org/1999/xlink" xml:space="preserve" xmlns:serif="http://www.serif.com/" style="fill-rule:evenodd;clip-rule:evenodd;stroke-linejoin:round;stroke-miterlimit:2;">
    <g transform="matrix(1,0,0,1,-4540.1,-1712.57)">
        <g transform="matrix(1.41414,0,0,1.41429,-1534.59,-78.5653)">
            <path d="M4316.53,1307.47C4324.24,1309.1 4328.41,1311.64 4328.41,1316.73C4328.41,1321.75 4322.75,1325.57 4314.69,1325.57C4311.51,1325.57 4304.02,1325.07 4299,1318.36C4298.78,1318.07 4298.43,1317.93 4298.15,1317.93C4297.02,1317.93 4295.67,1319.56 4295.67,1320.9C4295.67,1321.33 4295.82,1321.75 4296.17,1322.11C4301.05,1326.91 4306.7,1329.32 4314.62,1329.32C4325.65,1329.32 4332.72,1324.08 4332.72,1316.66C4332.72,1313.05 4331.17,1310.15 4328.2,1307.89C4331.88,1305.7 4334.14,1302.02 4334.14,1298.06C4334.14,1291.21 4329.05,1287.03 4319.71,1285.2L4312.29,1283.71C4304.65,1282.15 4302.74,1280.25 4302.74,1276.99C4302.74,1273.81 4307.2,1270.13 4314.76,1270.13C4321.48,1270.13 4325.65,1272.18 4328.34,1275.15C4328.62,1275.44 4328.91,1275.58 4329.19,1275.58C4330.18,1275.58 4331.1,1274.1 4331.1,1272.75C4331.1,1272.12 4330.89,1271.55 4330.46,1271.2C4326.86,1268.37 4321.55,1266.46 4314.84,1266.46C4304.94,1266.46 4298.43,1271.69 4298.43,1277.13C4298.43,1281.02 4300.27,1284.06 4305.57,1285.97C4300.06,1287.74 4297.02,1291.56 4297.02,1295.66C4297.02,1300.61 4300.06,1304.07 4309.04,1305.91L4316.53,1307.47ZM4310.88,1302.38C4303.17,1300.82 4301.33,1298.77 4301.33,1295.52C4301.33,1291.84 4305.22,1288.24 4314.76,1288.24L4315.05,1288.24L4317.95,1288.8C4325.86,1290.43 4329.82,1292.9 4329.82,1298.13C4329.82,1301.25 4327.77,1304.07 4324.03,1305.56C4322.33,1304.85 4320.42,1304.29 4318.3,1303.86L4310.88,1302.38Z" style="fill-rule:nonzero;"/>
        </g>
    </g>
</svg>
