<?xml version="1.0" encoding="UTF-8" standalone="no"?>
<!DOCTYPE svg PUBLIC "-//W3C//DTD SVG 1.1//EN" "http://www.w3.org/Graphics/SVG/1.1/DTD/svg11.dtd">
<svg width="100%" height="100%" viewBox="0 0 39 27" version="1.1" xmlns="http://www.w3.org/2000/svg" xmlns:xlink="http://www.w3.org/1999/xlink" xml:space="preserve" xmlns:serif="http://www.serif.com/" style="fill-rule:evenodd;clip-rule:evenodd;stroke-linejoin:round;stroke-miterlimit:2;">
    <g transform="matrix(1,0,0,1,-5451.62,-3338.36)">
        <g transform="matrix(1,0,0,1,1,0)">
            <path d="M5472.01,3357.06C5473.31,3360.76 5476.61,3363.26 5480.31,3363.26C5485.81,3363.26 5489.01,3359.16 5489.01,3352.56C5489.01,3347.96 5486.91,3343.86 5484.21,3341.16C5483.91,3340.76 5483.41,3340.46 5482.81,3340.46C5481.61,3340.46 5479.51,3341.66 5479.51,3342.76C5479.51,3343.36 5480.01,3344.06 5480.71,3344.56C5483.51,3346.76 5484.61,3349.26 5484.61,3352.66C5484.61,3356.36 5483.41,3358.66 5480.11,3358.66C5474.51,3358.66 5472.81,3348.56 5472.61,3346.66C5472.51,3345.96 5472.01,3345.66 5471.41,3345.66C5470.11,3345.66 5468.31,3346.86 5468.31,3348.06C5468.31,3348.16 5468.41,3348.26 5468.41,3348.36C5468.91,3350.06 5469.11,3351.86 5469.11,3352.86C5469.11,3357.16 5466.71,3359.86 5462.91,3359.86C5458.41,3359.86 5455.22,3356.66 5455.22,3350.66C5455.22,3347.36 5456.52,3344.16 5459.02,3341.86C5459.41,3341.46 5459.52,3341.16 5459.52,3340.76C5459.52,3339.56 5457.91,3338.36 5456.41,3338.36C5453.92,3338.36 5450.62,3345.06 5450.62,3350.66C5450.62,3360.56 5456.32,3364.56 5463.32,3364.56C5467.81,3364.56 5471.51,3361.06 5472.01,3357.06Z" style="fill-rule:nonzero;"/>
        </g>
    </g>
</svg>
