<?xml version="1.0" encoding="UTF-8" standalone="no"?>
<!DOCTYPE svg PUBLIC "-//W3C//DTD SVG 1.1//EN" "http://www.w3.org/Graphics/SVG/1.1/DTD/svg11.dtd">
<svg width="100%" height="100%" viewBox="0 0 38 24" version="1.1" xmlns="http://www.w3.org/2000/svg" xmlns:xlink="http://www.w3.org/1999/xlink" xml:space="preserve" xmlns:serif="http://www.serif.com/" style="fill-rule:evenodd;clip-rule:evenodd;stroke-linejoin:round;stroke-miterlimit:2;">
    <g transform="matrix(1,0,0,1,-5851.58,-3339.46)">
        <g transform="matrix(1,0,0,1,1,0)">
            <path d="M5885.57,3362.86C5886.87,3362.86 5888.37,3361.06 5888.47,3360.06L5888.47,3359.86C5888.47,3359.16 5888.07,3358.46 5887.97,3357.56L5886.77,3342.56L5886.77,3341.86C5886.77,3341.26 5886.77,3340.56 5886.87,3339.86C5886.87,3339.66 5886.57,3339.46 5886.07,3339.46C5884.97,3339.46 5883.27,3339.96 5882.37,3340.86C5881.97,3341.16 5881.77,3341.66 5881.77,3342.16C5881.77,3342.56 5881.97,3343.06 5881.97,3343.76L5883.37,3356.96C5875.97,3352.76 5858.77,3346.26 5853.68,3344.76C5853.28,3344.56 5852.68,3344.36 5852.18,3344.36C5851.48,3344.36 5850.88,3344.76 5850.68,3346.26C5850.57,3346.66 5850.57,3347.06 5850.57,3347.36C5850.57,3348.76 5851.07,3349.36 5851.78,3349.46C5864.57,3352.66 5878.67,3359.36 5882.07,3361.06C5883.27,3361.56 5884.37,3362.66 5885.27,3362.86L5885.57,3362.86Z" style="fill-rule:nonzero;"/>
        </g>
    </g>
</svg>
