<?xml version="1.0" encoding="UTF-8" standalone="no"?>
<!DOCTYPE svg PUBLIC "-//W3C//DTD SVG 1.1//EN" "http://www.w3.org/Graphics/SVG/1.1/DTD/svg11.dtd">
<svg width="100%" height="100%" viewBox="0 0 39 24" version="1.1" xmlns="http://www.w3.org/2000/svg" xmlns:xlink="http://www.w3.org/1999/xlink" xml:space="preserve" xmlns:serif="http://www.serif.com/" style="fill-rule:evenodd;clip-rule:evenodd;stroke-linejoin:round;stroke-miterlimit:2;">
    <g transform="matrix(1,0,0,1,-5751.59,-3339.56)">
        <g transform="matrix(1,0,0,1,1,0)">
            <path d="M5772.78,3347.26C5776.78,3349.46 5783.48,3353.36 5786.18,3356.06C5786.38,3356.16 5786.68,3356.36 5787.08,3356.36C5787.28,3356.36 5788.88,3356.36 5788.88,3353.26C5788.88,3352.36 5788.68,3351.56 5788.08,3351.26C5787.78,3351.16 5786.98,3350.56 5786.78,3350.46C5776.68,3344.16 5769.28,3339.56 5761.68,3339.56C5755.39,3339.56 5750.59,3344.16 5750.59,3351.36C5750.59,3359.36 5756.28,3363.36 5763.38,3363.36C5769.88,3363.36 5774.18,3358.36 5774.18,3352.26C5774.18,3350.06 5773.48,3348.36 5772.78,3347.26ZM5769.58,3352.16C5769.58,3356.06 5766.58,3358.76 5762.98,3358.76C5758.39,3358.76 5755.28,3356.36 5755.28,3351.36C5755.28,3346.66 5757.98,3344.16 5761.88,3344.16C5766.08,3344.16 5769.58,3347.26 5769.58,3352.16Z" style="fill-rule:nonzero;"/>
        </g>
    </g>
</svg>
