<?xml version="1.0" encoding="UTF-8" standalone="no"?>
<!DOCTYPE svg PUBLIC "-//W3C//DTD SVG 1.1//EN" "http://www.w3.org/Graphics/SVG/1.1/DTD/svg11.dtd">
<svg width="100%" height="100%" viewBox="0 0 39 15" version="1.1" xmlns="http://www.w3.org/2000/svg" xmlns:xlink="http://www.w3.org/1999/xlink" xml:space="preserve" xmlns:serif="http://www.serif.com/" style="fill-rule:evenodd;clip-rule:evenodd;stroke-linejoin:round;stroke-miterlimit:2;">
    <g transform="matrix(1,0,0,1,-5251.84,-3341.56)">
        <g transform="matrix(1,0,0,1,1,0)">
            <path d="M5280.43,3355.76C5282.73,3355.76 5284.83,3356.16 5286.13,3356.16C5287.63,3356.16 5289.03,3354.06 5289.03,3352.96C5289.03,3351.86 5286.53,3350.36 5286.03,3349.66C5284.23,3347.46 5282.43,3345.16 5281.23,3342.36C5281.03,3341.76 5280.73,3341.56 5280.43,3341.56C5279.53,3341.56 5278.63,3343.26 5278.63,3344.56C5278.63,3344.76 5278.63,3345.06 5278.73,3345.26C5279.23,3347.06 5280.03,3348.86 5281.43,3350.86L5260.64,3350.86C5258.94,3350.86 5255.24,3350.76 5253.64,3350.76L5253.54,3350.76C5251.94,3350.76 5250.84,3352.86 5250.84,3354.36C5250.84,3355.26 5251.14,3355.96 5252.04,3355.96L5252.14,3355.96C5255.04,3355.96 5258.94,3355.76 5261.14,3355.76L5280.43,3355.76Z" style="fill-rule:nonzero;"/>
        </g>
    </g>
</svg>
