<?xml version="1.0" encoding="UTF-8" standalone="no"?>
<!DOCTYPE svg PUBLIC "-//W3C//DTD SVG 1.1//EN" "http://www.w3.org/Graphics/SVG/1.1/DTD/svg11.dtd">
<svg width="100%" height="100%" viewBox="0 0 40 30" version="1.1" xmlns="http://www.w3.org/2000/svg" xmlns:xlink="http://www.w3.org/1999/xlink" xml:space="preserve" xmlns:serif="http://www.serif.com/" style="fill-rule:evenodd;clip-rule:evenodd;stroke-linejoin:round;stroke-miterlimit:2;">
    <g transform="matrix(1,0,0,1,-5551.11,-3336.46)">
        <g transform="matrix(1,0,0,1,1,0)">
            <path d="M5585.3,3356.06C5585.6,3356.26 5585.9,3356.36 5586.3,3356.36C5587.8,3356.36 5589.6,3354.56 5589.6,3353.26C5589.6,3352.76 5589.4,3352.36 5588.9,3352.16C5582.6,3349.66 5568.7,3340.36 5566.3,3338.76C5565.6,3338.26 5565,3337.46 5564.1,3336.96C5563.6,3336.66 5563.1,3336.46 5562.6,3336.46C5560.7,3336.46 5559.01,3338.36 5559.01,3339.86L5559.01,3340.06C5559.2,3340.76 5559.31,3341.46 5559.31,3341.86L5559.9,3354.56L5558.01,3354.56C5557.31,3354.56 5553.01,3354.46 5552.21,3354.46C5550.91,3354.46 5550.11,3356.16 5550.11,3357.56C5550.11,3358.56 5550.41,3359.26 5551.21,3359.26C5552.31,3359.26 5555.7,3359.06 5557.9,3359.06L5560.11,3359.06L5560.11,3365.36C5560.11,3366.16 5560.81,3366.46 5561.61,3366.46C5563.1,3366.46 5565.1,3365.46 5565.1,3364.26C5565.1,3363.66 5564.8,3359.66 5564.8,3359.06L5574.1,3359.06C5575.3,3359.06 5577.9,3359.16 5578.7,3359.16C5579.8,3359.16 5580.5,3357.36 5580.5,3355.96C5580.5,3354.96 5580.2,3354.36 5579.6,3354.36C5578.3,3354.36 5575.2,3354.56 5574.1,3354.56L5564.5,3354.56L5564.2,3342.76C5569.8,3346.56 5576.7,3350.86 5581.9,3353.86L5585.3,3356.06Z" style="fill-rule:nonzero;"/>
        </g>
    </g>
</svg>
