<?xml version="1.0" encoding="UTF-8" standalone="no"?>
<!DOCTYPE svg PUBLIC "-//W3C//DTD SVG 1.1//EN" "http://www.w3.org/Graphics/SVG/1.1/DTD/svg11.dtd">
<svg width="100%" height="100%" viewBox="0 0 39 25" version="1.1" xmlns="http://www.w3.org/2000/svg" xmlns:xlink="http://www.w3.org/1999/xlink" xml:space="preserve" xmlns:serif="http://www.serif.com/" style="fill-rule:evenodd;clip-rule:evenodd;stroke-linejoin:round;stroke-miterlimit:2;">
    <g transform="matrix(1,0,0,1,-5951.56,-3339.36)">
        <g transform="matrix(1,0,0,1,1,0)">
            <path d="M5982.66,3361.36C5983.06,3361.36 5983.46,3361.36 5983.76,3361.06C5986.56,3359.06 5988.96,3355.86 5988.96,3351.66C5988.96,3345.16 5984.86,3341.06 5980.26,3341.06C5977.26,3341.06 5974.56,3342.76 5971.86,3347.16C5969.26,3343.36 5965.86,3339.36 5960.56,3339.36C5954.66,3339.36 5950.57,3344.06 5950.57,3350.66C5950.57,3358.46 5954.76,3363.46 5961.26,3363.46C5966.66,3363.46 5969.76,3359.76 5972.56,3353.96C5975.16,3357.26 5978.36,3360.56 5981.06,3362.66C5981.46,3363.06 5981.96,3363.26 5982.26,3363.26C5982.76,3363.26 5983.16,3362.86 5983.16,3362.46C5983.16,3362.06 5982.96,3361.66 5982.66,3361.36ZM5969.46,3350.66C5966.76,3355.96 5965.06,3358.76 5961.36,3358.76C5957.56,3358.76 5955.16,3355.16 5955.16,3350.76C5955.16,3346.16 5958.16,3344.06 5961.06,3344.06C5963.96,3344.06 5966.26,3346.26 5969.46,3350.66ZM5974.96,3350.76C5976.46,3347.76 5978.16,3345.76 5980.36,3345.76C5982.76,3345.76 5984.56,3348.06 5984.56,3352.06C5984.56,3354.46 5983.16,3356.26 5981.06,3357.56C5980.76,3357.76 5980.66,3358.16 5980.66,3358.56C5978.96,3356.36 5976.96,3353.56 5974.96,3350.76Z" style="fill-rule:nonzero;"/>
        </g>
    </g>
</svg>
