<?xml version="1.0" encoding="UTF-8" standalone="no"?>
<!DOCTYPE svg PUBLIC "-//W3C//DTD SVG 1.1//EN" "http://www.w3.org/Graphics/SVG/1.1/DTD/svg11.dtd">
<svg width="100%" height="100%" viewBox="0 0 38 27" version="1.1" xmlns="http://www.w3.org/2000/svg" xmlns:xlink="http://www.w3.org/1999/xlink" xml:space="preserve" xmlns:serif="http://www.serif.com/" style="fill-rule:evenodd;clip-rule:evenodd;stroke-linejoin:round;stroke-miterlimit:2;">
    <g transform="matrix(1,0,0,1,-5352.13,-3338.66)">
        <g transform="matrix(1,0,0,1,1,0)">
            <path d="M5351.13,3341.86C5351.73,3344.76 5351.73,3345.66 5351.73,3351.16C5351.73,3353.96 5351.53,3357.06 5351.53,3359.06C5351.53,3360.96 5351.43,3362.76 5351.43,3363.36C5351.43,3364.36 5352.13,3364.76 5353.03,3364.76C5354.43,3364.76 5356.33,3363.76 5356.33,3362.36C5356.33,3361.66 5356.13,3360.06 5356.13,3359.06C5356.13,3357.46 5356.23,3354.16 5356.23,3351.56C5356.23,3350.06 5356.23,3347.06 5356.13,3344.96C5359.43,3347.36 5363.23,3350.86 5366.53,3355.06C5370.62,3360.26 5374.62,3364.46 5379.52,3364.46C5385.22,3364.46 5389.02,3360.86 5389.02,3353.66C5389.02,3345.36 5382.32,3341.06 5380.82,3341.06C5380.02,3341.06 5377.62,3342.16 5377.62,3343.66C5377.62,3344.66 5378.72,3345.36 5379.62,3345.76C5382.62,3347.36 5384.42,3349.26 5384.42,3353.36C5384.42,3357.66 5382.72,3359.56 5379.52,3359.56C5376.42,3359.56 5373.62,3356.36 5370.12,3352.16C5366.03,3347.06 5360.53,3342.16 5357.12,3340.16C5356.63,3339.86 5356.43,3339.36 5355.63,3338.96C5355.33,3338.76 5354.93,3338.66 5354.53,3338.66C5352.93,3338.66 5351.13,3339.86 5351.13,3341.46L5351.13,3341.86Z" style="fill-rule:nonzero;"/>
        </g>
    </g>
</svg>
