<?xml version="1.0" encoding="UTF-8" standalone="no"?>
<!DOCTYPE svg PUBLIC "-//W3C//DTD SVG 1.1//EN" "http://www.w3.org/Graphics/SVG/1.1/DTD/svg11.dtd">
<svg width="100%" height="100%" viewBox="0 0 39 25" version="1.1" xmlns="http://www.w3.org/2000/svg" xmlns:xlink="http://www.w3.org/1999/xlink" xml:space="preserve" xmlns:serif="http://www.serif.com/" style="fill-rule:evenodd;clip-rule:evenodd;stroke-linejoin:round;stroke-miterlimit:2;">
    <g transform="matrix(1,0,0,1,-6051.65,-3339.46)">
        <g transform="matrix(1,0,0,1,1,0)">
            <path d="M6085.25,3364.16C6086.55,3364.16 6087.75,3362.06 6087.75,3360.76C6087.75,3360.26 6087.45,3359.86 6086.95,3359.76C6086.55,3359.76 6085.55,3359.56 6084.75,3359.46C6087.15,3358.16 6088.95,3355.96 6088.95,3352.46C6088.95,3345.46 6081.75,3339.46 6074.35,3339.46C6068.15,3339.46 6064.45,3343.56 6064.45,3348.36C6064.45,3351.26 6065.85,3354.16 6067.95,3356.36L6058.35,3354.46C6057.05,3354.16 6054.55,3353.66 6052.36,3353.06C6052.26,3353.06 6052.15,3352.96 6052.06,3352.96C6051.15,3352.96 6050.65,3354.16 6050.65,3355.36C6050.65,3356.56 6051.15,3357.86 6052.36,3358.06C6053.45,3358.26 6056.35,3358.56 6057.65,3358.86L6080.85,3363.16L6085.05,3364.16L6085.25,3364.16ZM6080.85,3358.76C6079.45,3358.56 6075.25,3357.76 6074.15,3357.26C6071.25,3355.96 6068.85,3352.66 6068.85,3348.76C6068.85,3345.96 6070.95,3343.96 6074.85,3343.96C6079.05,3343.96 6084.55,3347.46 6084.55,3352.66C6084.55,3355.16 6083.25,3356.66 6081.65,3357.36C6081.25,3357.56 6080.85,3358.16 6080.85,3358.66L6080.85,3358.76Z" style="fill-rule:nonzero;"/>
        </g>
    </g>
</svg>
