<?xml version="1.0" encoding="UTF-8" standalone="no"?>
<!DOCTYPE svg PUBLIC "-//W3C//DTD SVG 1.1//EN" "http://www.w3.org/Graphics/SVG/1.1/DTD/svg11.dtd">
<svg width="100%" height="100%" viewBox="0 0 39 27" version="1.1" xmlns="http://www.w3.org/2000/svg" xmlns:xlink="http://www.w3.org/1999/xlink" xml:space="preserve" xmlns:serif="http://www.serif.com/" style="fill-rule:evenodd;clip-rule:evenodd;stroke-linejoin:round;stroke-miterlimit:2;">
    <g transform="matrix(1,0,0,1,-5151.65,-3338.36)">
        <g transform="matrix(1,0,0,1,1,0)">
            <path d="M5185.54,3345.76C5185.84,3345.56 5186.14,3345.06 5186.14,3344.46C5186.14,3344.06 5186.04,3343.56 5185.54,3343.26C5181.64,3340.36 5175.34,3338.36 5169.35,3338.36C5159.15,3338.36 5150.65,3342.36 5150.65,3351.46C5150.65,3359.86 5159.85,3364.56 5170.15,3364.56C5181.34,3364.56 5189.04,3359.86 5189.04,3352.16C5189.04,3349.66 5187.24,3347.06 5185.54,3345.76ZM5184.64,3351.86C5184.64,3356.96 5177.64,3359.86 5170.44,3359.86C5162.05,3359.86 5155.05,3356.66 5155.05,3351.26C5155.05,3345.46 5161.94,3343.06 5169.44,3343.06C5179.24,3343.06 5184.64,3348.86 5184.64,3351.86Z" style="fill-rule:nonzero;"/>
        </g>
    </g>
</svg>
