<?xml version="1.0" encoding="UTF-8" standalone="no"?>
<!DOCTYPE svg PUBLIC "-//W3C//DTD SVG 1.1//EN" "http://www.w3.org/Graphics/SVG/1.1/DTD/svg11.dtd">
<svg width="100%" height="100%" viewBox="0 0 48 72" version="1.1" xmlns="http://www.w3.org/2000/svg" xmlns:xlink="http://www.w3.org/1999/xlink" xml:space="preserve" xmlns:serif="http://www.serif.com/" style="fill-rule:evenodd;clip-rule:evenodd;stroke-linejoin:round;stroke-miterlimit:2;">
    <g transform="matrix(1,0,0,1,-4142.94,-2772.97)">
        <g transform="matrix(1.41414,0,0,1.41429,-1534.59,-78.5653)">
            <path d="M4046.29,2062.12C4045.09,2062.2 4042.68,2062.55 4040.42,2062.62L4019.85,2063.12C4025.22,2057.53 4035.12,2047.98 4038.8,2044.59C4039.93,2043.6 4040.78,2043.32 4041.62,2042.89C4042.47,2042.47 4042.97,2041.2 4042.97,2040.13C4042.97,2039.36 4042.68,2038.58 4042.19,2038.37C4040.7,2037.66 4039.43,2036.95 4038.16,2035.82C4033.35,2031.58 4026.35,2025.78 4020.34,2020.97L4040.49,2020.2L4042.12,2020.2C4044.38,2020.2 4046.57,2020.27 4047.78,2020.27C4048.34,2020.27 4048.55,2019.84 4048.55,2019.28C4048.55,2018.07 4047.56,2016.24 4046.43,2016.24L4046.29,2016.24C4044.95,2016.38 4042.68,2016.66 4040.42,2016.73L4021.05,2017.44L4020.41,2017.44C4019.28,2017.44 4018.36,2017.3 4017.09,2017.3C4015.74,2017.3 4014.9,2019.21 4014.9,2020.62C4014.9,2021.12 4015.04,2021.54 4015.25,2021.82C4015.74,2022.39 4016.95,2022.81 4017.8,2023.45C4023.59,2027.97 4032.29,2035.26 4038.02,2040.42C4032.79,2045.23 4023.24,2054.56 4019.21,2058.66C4017.8,2060.14 4016.73,2060.85 4015.6,2061.49C4015.11,2061.77 4014.83,2062.41 4014.83,2063.12C4014.83,2064.81 4016.1,2067.14 4017.8,2067.14C4019.21,2067.14 4020.13,2066.72 4021.75,2066.65L4040.49,2066.08L4041.62,2066.08C4043.89,2066.08 4046.5,2066.23 4047.78,2066.23C4048.34,2066.23 4048.55,2065.8 4048.55,2065.24C4048.55,2064.03 4047.49,2062.12 4046.36,2062.12L4046.29,2062.12Z" style="fill-rule:nonzero;"/>
        </g>
    </g>
</svg>
