<?xml version="1.0" encoding="UTF-8" standalone="no"?>
<!DOCTYPE svg PUBLIC "-//W3C//DTD SVG 1.1//EN" "http://www.w3.org/Graphics/SVG/1.1/DTD/svg11.dtd">
<svg width="100%" height="100%" viewBox="0 0 88 65" version="1.1" xmlns="http://www.w3.org/2000/svg" xmlns:xlink="http://www.w3.org/1999/xlink" xml:space="preserve" xmlns:serif="http://www.serif.com/" style="fill-rule:evenodd;clip-rule:evenodd;stroke-linejoin:round;stroke-miterlimit:2;">
    <g transform="matrix(1,0,0,1,-5542.81,-2749.06)">
        <g transform="matrix(1,0,0,1,1,0)">
            <path d="M5627.4,2773.46C5628.7,2771.16 5629.4,2768.86 5629.4,2766.66C5629.4,2755.96 5614.5,2749.06 5605.3,2749.06C5600.3,2749.06 5595.1,2750.56 5589.7,2753.76C5589,2754.16 5588.7,2754.96 5588.7,2755.76C5588.7,2757.46 5590,2759.56 5591.5,2759.56C5591.9,2759.56 5592.3,2759.36 5592.7,2758.96C5597.5,2754.66 5604,2754.36 5606.1,2754.36C5611.8,2754.36 5623.5,2758.06 5623.5,2766.06C5623.5,2767.66 5623,2769.36 5622,2771.06C5615.1,2783.06 5598.3,2776.06 5590.2,2786.46C5588.1,2789.06 5586.7,2791.26 5585.9,2793.46C5585.8,2793.66 5585.8,2793.96 5585.8,2794.16C5585.8,2796.06 5588.2,2798.16 5589.8,2798.16C5590.4,2798.16 5590.8,2797.86 5591,2797.16C5591.8,2794.06 5592.6,2792.26 5594.3,2789.96C5601,2780.96 5618.8,2788.46 5627.4,2773.46ZM5553.31,2791.56C5552.71,2792.66 5551.81,2794.06 5551.21,2794.86C5551.01,2795.06 5551.01,2795.36 5551.01,2795.56C5551.01,2796.96 5553.01,2798.86 5554.11,2798.86C5554.31,2798.86 5554.51,2798.76 5554.61,2798.56C5555.4,2796.86 5556.81,2794.76 5557.11,2794.16L5577.1,2761.16C5578.4,2759.16 5579.9,2757.06 5581.1,2755.36C5581.3,2755.06 5581.4,2754.76 5581.4,2754.36C5581.4,2752.46 5579,2749.86 5577.3,2749.86C5576.8,2749.86 5576.3,2750.16 5576,2750.86C5575.7,2751.56 5573.8,2755.56 5572.5,2757.96L5553.31,2791.56ZM5581.2,2813.06C5583.4,2813.06 5585.4,2811.06 5585.4,2807.96C5585.4,2804.36 5583,2802.66 5581,2802.66C5578.4,2802.66 5576.8,2805.16 5576.8,2807.86C5576.8,2810.16 5578,2813.06 5581.2,2813.06ZM5546.21,2813.66C5548.41,2813.66 5550.41,2811.66 5550.41,2808.56C5550.41,2806.66 5549.61,2804.66 5548.31,2803.86C5547.51,2803.46 5546.71,2803.26 5546.01,2803.26C5543.41,2803.26 5541.81,2806.16 5541.81,2808.46C5541.81,2811.36 5543.51,2813.66 5546.21,2813.66Z" style="fill-rule:nonzero;"/>
        </g>
    </g>
</svg>
