<?xml version="1.0" encoding="UTF-8" standalone="no"?>
<!DOCTYPE svg PUBLIC "-//W3C//DTD SVG 1.1//EN" "http://www.w3.org/Graphics/SVG/1.1/DTD/svg11.dtd">
<svg width="100%" height="100%" viewBox="0 0 72 64" version="1.1" xmlns="http://www.w3.org/2000/svg" xmlns:xlink="http://www.w3.org/1999/xlink" xml:space="preserve" xmlns:serif="http://www.serif.com/" style="fill-rule:evenodd;clip-rule:evenodd;stroke-linejoin:round;stroke-miterlimit:2;">
    <g transform="matrix(1,0,0,1,-5450.92,-2749.86)">
        <g transform="matrix(1,0,0,1,1,0)">
            <path d="M5493.61,2791.56C5493.01,2792.66 5492.11,2794.06 5491.51,2794.86C5491.31,2795.06 5491.31,2795.36 5491.31,2795.56C5491.31,2796.96 5493.31,2798.86 5494.41,2798.86C5494.61,2798.86 5494.81,2798.76 5494.91,2798.56C5495.71,2796.86 5497.11,2794.76 5497.41,2794.16L5517.41,2761.16C5518.71,2759.16 5520.21,2757.06 5521.41,2755.36C5521.61,2755.06 5521.71,2754.76 5521.71,2754.36C5521.71,2752.46 5519.31,2749.86 5517.61,2749.86C5517.11,2749.86 5516.61,2750.16 5516.31,2750.86C5516.01,2751.56 5514.11,2755.56 5512.81,2757.96L5493.61,2791.56ZM5461.41,2791.56C5460.82,2792.66 5459.91,2794.06 5459.32,2794.86C5459.11,2795.06 5459.11,2795.36 5459.11,2795.56C5459.11,2796.96 5461.11,2798.86 5462.22,2798.86C5462.41,2798.86 5462.61,2798.76 5462.72,2798.56C5463.52,2796.86 5464.91,2794.76 5465.21,2794.16L5485.21,2761.16C5486.51,2759.16 5488.01,2757.06 5489.21,2755.36C5489.41,2755.06 5489.51,2754.76 5489.51,2754.36C5489.51,2752.46 5487.11,2749.86 5485.41,2749.86C5484.91,2749.86 5484.41,2750.16 5484.11,2750.86C5483.81,2751.56 5481.91,2755.56 5480.61,2757.96L5461.41,2791.56ZM5486.51,2813.66C5488.71,2813.66 5490.71,2811.66 5490.71,2808.56C5490.71,2806.66 5489.91,2804.66 5488.61,2803.86C5487.81,2803.46 5487.01,2803.26 5486.31,2803.26C5483.71,2803.26 5482.11,2806.16 5482.11,2808.46C5482.11,2811.36 5483.81,2813.66 5486.51,2813.66ZM5454.32,2813.66C5456.52,2813.66 5458.52,2811.66 5458.52,2808.56C5458.52,2806.66 5457.72,2804.66 5456.41,2803.86C5455.61,2803.46 5454.82,2803.26 5454.12,2803.26C5451.52,2803.26 5449.92,2806.16 5449.92,2808.46C5449.92,2811.36 5451.62,2813.66 5454.32,2813.66Z" style="fill-rule:nonzero;"/>
        </g>
    </g>
</svg>
