<?xml version="1.0" encoding="UTF-8" standalone="no"?>
<!DOCTYPE svg PUBLIC "-//W3C//DTD SVG 1.1//EN" "http://www.w3.org/Graphics/SVG/1.1/DTD/svg11.dtd">
<svg width="100%" height="100%" viewBox="0 0 90 93" version="1.1" xmlns="http://www.w3.org/2000/svg" xmlns:xlink="http://www.w3.org/1999/xlink" xml:space="preserve" xmlns:serif="http://www.serif.com/" style="fill-rule:evenodd;clip-rule:evenodd;stroke-linejoin:round;stroke-miterlimit:2;">
    <g transform="matrix(1,0,0,1,-4122.24,-2008.97)">
        <g transform="matrix(1.41414,0,0,1.41429,-1534.59,-78.5653)">
            <path d="M4057.46,1485.3C4059.37,1483.32 4061.56,1481.55 4063.26,1479.92C4063.54,1479.71 4063.61,1479.29 4063.61,1478.86C4063.61,1477.66 4062.76,1476.03 4061.85,1476.03C4061.63,1476.03 4061.35,1476.17 4061.07,1476.53C4059.3,1478.79 4056.97,1481.12 4055.2,1482.96L4006.34,1532.11C4004.36,1534.08 4002.38,1535.92 4000.54,1537.48C4000.26,1537.69 4000.19,1538.12 4000.19,1538.54C4000.19,1539.74 4000.97,1541.3 4001.96,1541.3C4002.17,1541.3 4002.45,1541.15 4002.73,1540.87C4004.57,1538.75 4006.76,1536.28 4008.6,1534.44L4057.46,1485.3Z" style="fill-rule:nonzero;"/>
        </g>
    </g>
</svg>
