<?xml version="1.0" encoding="UTF-8" standalone="no"?>
<!DOCTYPE svg PUBLIC "-//W3C//DTD SVG 1.1//EN" "http://www.w3.org/Graphics/SVG/1.1/DTD/svg11.dtd">
<svg width="100%" height="100%" viewBox="0 0 89 89" version="1.1" xmlns="http://www.w3.org/2000/svg" xmlns:xlink="http://www.w3.org/1999/xlink" xml:space="preserve" xmlns:serif="http://www.serif.com/" style="fill-rule:evenodd;clip-rule:evenodd;stroke-linejoin:round;stroke-miterlimit:2;">
    <g transform="matrix(1,0,0,1,-2040.22,-588.665)">
        <g transform="matrix(1,0,0,1,-1072.97,-2735.12)">
            <path d="M3201.38,3411.99L3201.38,3323.79L3113.18,3323.79L3113.18,3411.99L3201.38,3411.99ZM3197.28,3407.89L3117.28,3407.89L3117.28,3327.89L3197.28,3327.89L3197.28,3407.89ZM3146.28,3364.69C3152.48,3362.89 3157.18,3357.89 3157.18,3351.09C3157.18,3343.29 3151.98,3338.69 3144.08,3338.69C3135.08,3338.69 3128.78,3345.59 3128.78,3347.49C3128.78,3348.29 3129.08,3349.19 3129.98,3350.29C3130.28,3350.79 3130.58,3350.89 3130.98,3350.89C3131.68,3350.89 3132.18,3349.89 3132.48,3349.59C3136.08,3344.99 3139.78,3342.89 3144.18,3342.89C3149.68,3342.89 3152.98,3346.19 3152.98,3351.59C3152.98,3358.29 3144.78,3363.29 3136.68,3363.89C3136.18,3363.99 3135.88,3364.49 3135.88,3365.09C3135.88,3366.39 3136.88,3368.29 3138.18,3368.29C3138.38,3368.29 3138.38,3368.19 3138.58,3368.19C3139.38,3367.99 3141.08,3367.69 3142.38,3367.59C3142.98,3367.49 3143.58,3367.49 3144.08,3367.49C3150.48,3367.49 3155.08,3372.09 3155.08,3378.69C3155.08,3386.09 3151.28,3393.19 3141.88,3393.19C3136.48,3393.19 3133.48,3390.39 3130.38,3386.19C3130.08,3385.89 3129.98,3385.69 3129.68,3385.69C3128.58,3385.69 3127.58,3387.79 3127.58,3389.39C3127.58,3390.09 3127.68,3390.59 3128.08,3390.99C3131.88,3395.19 3136.28,3397.49 3141.88,3397.49C3154.38,3397.49 3159.48,3388.79 3159.48,3378.59C3159.48,3369.99 3153.68,3364.69 3147.18,3364.69L3146.28,3364.69ZM3177.28,3387.89C3177.28,3389.59 3177.08,3393.69 3177.08,3394.99C3177.08,3396.29 3179.08,3397.19 3180.48,3397.19C3181.18,3397.19 3181.68,3396.99 3181.68,3396.39C3181.58,3394.29 3181.48,3389.59 3181.48,3387.39L3181.48,3347.09C3181.48,3344.79 3181.98,3343.39 3181.98,3342.09C3181.98,3340.59 3180.38,3339.09 3179.28,3339.09C3178.18,3339.09 3176.68,3341.39 3176.08,3341.89C3173.88,3343.79 3170.38,3345.89 3166.78,3347.49C3166.28,3347.69 3166.08,3347.99 3166.08,3348.29C3166.08,3349.19 3167.68,3350.09 3168.98,3350.09C3169.28,3350.09 3169.48,3350.09 3169.68,3349.99C3172.18,3349.19 3175.18,3347.89 3177.28,3346.49L3177.28,3387.89Z" style="fill-rule:nonzero;"/>
        </g>
    </g>
</svg>
