<?xml version="1.0" encoding="UTF-8" standalone="no"?>
<!DOCTYPE svg PUBLIC "-//W3C//DTD SVG 1.1//EN" "http://www.w3.org/Graphics/SVG/1.1/DTD/svg11.dtd">
<svg width="100%" height="100%" viewBox="0 0 89 89" version="1.1" xmlns="http://www.w3.org/2000/svg" xmlns:xlink="http://www.w3.org/1999/xlink" xml:space="preserve" xmlns:serif="http://www.serif.com/" style="fill-rule:evenodd;clip-rule:evenodd;stroke-linejoin:round;stroke-miterlimit:2;">
    <g transform="matrix(1,0,0,1,-1840.22,-438.665)">
        <g transform="matrix(1,0,0,1,-1072.97,-2735.12)">
            <path d="M3001.38,3261.99L3001.38,3173.79L2913.18,3173.79L2913.18,3261.99L3001.38,3261.99ZM2997.28,3257.89L2917.28,3257.89L2917.28,3177.89L2997.28,3177.89L2997.28,3257.89ZM2986.38,3192.89C2986.38,3191.49 2984.58,3189.69 2983.48,3189.49L2983.28,3189.49C2982.38,3189.49 2981.38,3189.99 2980.28,3190.09L2958.18,3191.89L2957.18,3191.89C2955.98,3191.89 2955.28,3191.79 2954.48,3191.79C2954.18,3191.79 2954.08,3191.99 2954.08,3192.29C2954.08,3193.09 2955.08,3196.39 2957.68,3196.39C2958.28,3196.39 2958.98,3196.19 2959.68,3196.19L2981.08,3194.09C2969.28,3219.69 2961.48,3244.39 2961.48,3245.29C2961.48,3245.99 2961.88,3246.69 2963.38,3246.89C2963.68,3246.89 2964.08,3246.99 2964.38,3246.99C2965.48,3246.99 2966.18,3246.69 2966.28,3245.79C2967.08,3243.09 2967.58,3240.59 2968.08,3238.89C2972.38,3225.39 2978.68,3209.59 2984.58,3196.99C2985.08,3195.99 2986.18,3194.49 2986.38,3193.19L2986.38,3192.89ZM2942.88,3246.39C2942.88,3244.29 2942.78,3239.59 2942.78,3237.39L2942.78,3197.09C2942.78,3194.79 2943.18,3193.39 2943.18,3192.09C2943.18,3190.59 2941.58,3189.09 2940.48,3189.09C2939.38,3189.09 2937.88,3191.39 2937.38,3191.89C2935.08,3193.79 2931.68,3195.89 2928.08,3197.49C2927.48,3197.69 2927.28,3197.99 2927.28,3198.29C2927.28,3199.19 2928.98,3200.09 2930.18,3200.09C2930.48,3200.09 2930.78,3200.09 2930.88,3199.99C2933.48,3199.19 2936.48,3197.89 2938.48,3196.49L2938.48,3237.89C2938.48,3239.59 2938.28,3243.69 2938.28,3244.99C2938.28,3246.29 2940.28,3247.19 2941.78,3247.19C2942.38,3247.19 2942.88,3246.99 2942.88,3246.49L2942.88,3246.39Z" style="fill-rule:nonzero;"/>
        </g>
    </g>
</svg>
