<?xml version="1.0" encoding="UTF-8" standalone="no"?>
<!DOCTYPE svg PUBLIC "-//W3C//DTD SVG 1.1//EN" "http://www.w3.org/Graphics/SVG/1.1/DTD/svg11.dtd">
<svg width="100%" height="100%" viewBox="0 0 89 89" version="1.1" xmlns="http://www.w3.org/2000/svg" xmlns:xlink="http://www.w3.org/1999/xlink" xml:space="preserve" xmlns:serif="http://www.serif.com/" style="fill-rule:evenodd;clip-rule:evenodd;stroke-linejoin:round;stroke-miterlimit:2;">
    <g transform="matrix(1,0,0,1,-1640.22,-1788.66)">
        <g transform="matrix(1,0,0,1,-1072.97,-2735.12)">
            <path d="M2801.38,4611.99L2801.38,4523.79L2713.18,4523.79L2713.18,4611.99L2801.38,4611.99ZM2797.28,4607.89L2717.28,4607.89L2717.28,4527.89L2797.28,4527.89L2797.28,4607.89ZM2769.78,4583.89L2761.08,4555.19C2760.78,4553.99 2760.48,4552.79 2760.28,4551.59C2760.18,4550.59 2757.88,4549.69 2756.18,4549.69C2755.28,4549.69 2754.58,4549.89 2754.48,4550.59C2754.18,4552.49 2753.88,4554.19 2753.38,4555.99L2743.58,4583.89L2735.58,4554.79L2734.68,4550.49C2734.38,4549.39 2732.68,4548.79 2731.18,4548.79C2729.88,4548.79 2728.88,4549.19 2728.88,4549.99C2728.88,4550.09 2728.88,4550.19 2728.98,4550.39C2729.88,4552.39 2730.38,4554.09 2730.88,4555.39L2739.48,4585.39C2740.18,4587.49 2740.08,4588.29 2740.98,4589.19C2741.68,4589.89 2743.08,4590.69 2744.28,4590.69C2745.18,4590.69 2746.08,4590.29 2746.48,4588.89C2746.98,4587.09 2747.28,4585.69 2747.98,4583.79L2757.38,4557.39L2765.68,4585.39C2766.08,4586.89 2766.08,4588.29 2766.98,4589.19C2767.68,4589.89 2769.18,4590.69 2770.48,4590.69C2771.48,4590.69 2772.48,4590.29 2772.78,4588.89C2773.28,4586.99 2773.88,4585.09 2774.38,4583.79L2783.98,4556.39C2784.48,4554.99 2785.48,4552.39 2786.28,4550.69C2786.28,4550.59 2786.38,4550.49 2786.38,4550.29C2786.38,4549.19 2784.18,4548.19 2782.68,4548.19C2781.88,4548.19 2781.28,4548.49 2781.18,4549.09C2780.68,4551.19 2780.08,4553.39 2779.58,4554.99L2769.78,4583.89Z" style="fill-rule:nonzero;"/>
        </g>
    </g>
</svg>
