<?xml version="1.0" encoding="UTF-8" standalone="no"?>
<!DOCTYPE svg PUBLIC "-//W3C//DTD SVG 1.1//EN" "http://www.w3.org/Graphics/SVG/1.1/DTD/svg11.dtd">
<svg width="100%" height="100%" viewBox="0 0 89 89" version="1.1" xmlns="http://www.w3.org/2000/svg" xmlns:xlink="http://www.w3.org/1999/xlink" xml:space="preserve" xmlns:serif="http://www.serif.com/" style="fill-rule:evenodd;clip-rule:evenodd;stroke-linejoin:round;stroke-miterlimit:2;">
    <g transform="matrix(1,0,0,1,-1940.22,-738.665)">
        <g transform="matrix(1,0,0,1,-1072.97,-2735.12)">
            <path d="M3101.38,3561.99L3101.38,3473.79L3013.18,3473.79L3013.18,3561.99L3101.38,3561.99ZM3097.28,3557.89L3017.28,3557.89L3017.28,3477.89L3097.28,3477.89L3097.28,3557.89ZM3062.18,3546.49C3063.98,3546.09 3067.48,3545.49 3072.98,3545.49C3081.28,3545.49 3086.58,3545.89 3088.08,3546.09C3088.58,3546.09 3088.88,3545.69 3088.88,3544.99C3088.88,3543.59 3087.78,3541.39 3086.68,3541.39C3085.78,3541.39 3083.48,3541.49 3082.28,3541.49C3079.38,3541.49 3077.18,3541.39 3073.78,3541.39C3071.08,3541.39 3067.08,3541.59 3064.48,3541.89C3066.88,3536.49 3071.18,3528.39 3077.28,3521.99C3083.78,3515.19 3088.28,3509.49 3088.28,3502.09C3088.28,3494.29 3083.48,3488.69 3075.78,3488.69C3068.68,3488.69 3063.88,3492.79 3061.08,3498.69C3060.78,3499.09 3060.68,3499.59 3060.68,3500.09C3060.68,3501.19 3062.08,3503.39 3063.18,3503.39C3063.88,3503.39 3064.48,3502.59 3064.78,3501.49C3066.38,3496.69 3070.18,3492.89 3075.58,3492.89C3080.98,3492.89 3083.98,3497.09 3083.98,3502.09C3083.98,3507.39 3080.38,3512.39 3074.68,3518.59C3068.78,3524.89 3063.88,3533.59 3061.18,3539.39C3060.88,3540.19 3060.38,3540.89 3059.78,3541.79C3059.58,3542.09 3059.48,3542.49 3059.48,3542.99C3059.48,3544.59 3060.68,3546.49 3061.98,3546.49L3062.18,3546.49ZM3051.08,3533.19C3052.98,3533.19 3055.48,3533.39 3056.48,3533.39C3056.98,3533.39 3057.08,3532.89 3057.08,3532.29C3057.08,3530.89 3056.08,3528.59 3054.98,3528.59C3054.18,3528.59 3052.18,3528.99 3050.98,3529.09L3049.78,3529.19L3049.78,3512.49C3049.78,3510.49 3049.98,3506.59 3049.98,3505.29C3049.98,3503.89 3048.08,3502.99 3046.78,3502.99C3046.08,3502.99 3045.58,3503.29 3045.58,3503.79C3045.58,3505.69 3045.78,3510.89 3045.78,3512.49L3045.78,3529.39L3029.48,3529.79C3034.38,3520.19 3040.58,3507.19 3044.48,3498.29C3045.08,3496.99 3046.08,3495.09 3046.88,3493.79C3047.08,3493.59 3047.08,3493.29 3047.08,3492.99C3047.08,3491.29 3045.08,3488.89 3043.98,3488.89C3043.58,3488.89 3043.38,3488.99 3043.28,3489.39C3041.68,3494.29 3036.98,3506.39 3027.18,3525.49C3026.58,3526.59 3025.68,3527.79 3024.88,3529.19C3024.58,3529.69 3024.48,3530.29 3024.48,3530.79C3024.48,3532.69 3026.08,3534.49 3027.48,3534.49C3027.58,3534.49 3027.68,3534.39 3027.88,3534.39C3028.88,3534.09 3029.98,3533.89 3030.48,3533.89L3045.78,3533.39L3045.78,3537.79C3045.78,3538.99 3045.58,3543.59 3045.58,3544.89C3045.58,3546.29 3047.58,3547.19 3048.88,3547.19C3049.58,3547.19 3050.08,3546.89 3050.08,3546.39C3050.08,3544.49 3049.78,3541.29 3049.78,3537.99L3049.78,3533.19L3051.08,3533.19Z" style="fill-rule:nonzero;"/>
        </g>
    </g>
</svg>
