<?xml version="1.0" encoding="UTF-8" standalone="no"?>
<!DOCTYPE svg PUBLIC "-//W3C//DTD SVG 1.1//EN" "http://www.w3.org/Graphics/SVG/1.1/DTD/svg11.dtd">
<svg width="100%" height="100%" viewBox="0 0 89 89" version="1.1" xmlns="http://www.w3.org/2000/svg" xmlns:xlink="http://www.w3.org/1999/xlink" xml:space="preserve" xmlns:serif="http://www.serif.com/" style="fill-rule:evenodd;clip-rule:evenodd;stroke-linejoin:round;stroke-miterlimit:2;">
    <g transform="matrix(1,0,0,1,-2640.22,-1488.66)">
        <g transform="matrix(1,0,0,1,-1072.97,-2735.12)">
            <path d="M3801.38,4311.99L3801.38,4223.79L3713.18,4223.79L3713.18,4311.99L3801.38,4311.99ZM3797.28,4307.89L3717.28,4307.89L3717.28,4227.89L3797.28,4227.89L3797.28,4307.89ZM3754.88,4288.19C3754.88,4289.39 3754.68,4294.29 3754.68,4295.59C3754.68,4296.99 3756.98,4297.89 3758.58,4297.89C3759.28,4297.89 3759.78,4297.69 3759.78,4297.19C3759.78,4295.19 3759.58,4289.19 3759.58,4288.19L3759.58,4265.79C3759.58,4263.79 3759.68,4259.59 3759.68,4258.19C3759.68,4256.89 3757.38,4255.99 3755.88,4255.99C3755.18,4255.99 3754.68,4256.19 3754.68,4256.69C3754.68,4258.69 3754.88,4264.19 3754.88,4265.79L3754.88,4288.19ZM3757.58,4245.89C3759.58,4245.89 3760.78,4244.59 3760.78,4242.59C3760.78,4240.39 3758.68,4237.89 3756.78,4237.89C3754.68,4237.89 3753.48,4239.29 3753.48,4241.39C3753.48,4243.49 3755.48,4245.89 3757.58,4245.89Z" style="fill-rule:nonzero;"/>
        </g>
    </g>
</svg>
