<?xml version="1.0" encoding="UTF-8" standalone="no"?>
<!DOCTYPE svg PUBLIC "-//W3C//DTD SVG 1.1//EN" "http://www.w3.org/Graphics/SVG/1.1/DTD/svg11.dtd">
<svg width="100%" height="100%" viewBox="0 0 89 89" version="1.1" xmlns="http://www.w3.org/2000/svg" xmlns:xlink="http://www.w3.org/1999/xlink" xml:space="preserve" xmlns:serif="http://www.serif.com/" style="fill-rule:evenodd;clip-rule:evenodd;stroke-linejoin:round;stroke-miterlimit:2;">
    <g transform="matrix(1,0,0,1,-1940.22,-1338.66)">
        <g transform="matrix(1,0,0,1,-1072.97,-2735.12)">
            <path d="M3101.38,4161.99L3101.38,4073.79L3013.18,4073.79L3013.18,4161.99L3101.38,4161.99ZM3097.28,4157.89L3017.28,4157.89L3017.28,4077.89L3097.28,4077.89L3097.28,4157.89ZM3067.68,4093.59C3067.38,4092.99 3066.78,4092.99 3066.58,4092.99C3064.58,4092.99 3059.88,4104.39 3059.88,4118.89C3059.88,4135.39 3064.68,4147.49 3074.58,4147.49C3084.98,4147.49 3090.08,4133.39 3090.08,4116.79C3090.08,4100.49 3085.18,4088.59 3076.28,4088.59C3072.78,4088.59 3069.78,4090.59 3067.68,4093.59ZM3045.48,4147.09C3047.18,4146.99 3048.28,4146.49 3048.28,4145.39C3049.18,4134.99 3052.98,4112.09 3055.98,4096.99L3056.88,4093.99L3056.88,4093.69C3056.88,4092.49 3055.48,4090.99 3053.98,4090.99C3052.48,4090.99 3052.88,4093.49 3052.38,4095.69C3051.38,4093.39 3048.18,4088.69 3041.38,4088.69C3031.78,4088.69 3024.58,4099.49 3024.58,4110.39C3024.58,4119.59 3028.98,4124.89 3035.48,4124.89C3040.58,4124.89 3045.88,4121.19 3048.78,4115.49C3047.68,4122.79 3046.18,4131.29 3045.28,4137.59C3045.18,4137.99 3043.78,4144.59 3043.78,4145.79C3043.78,4146.59 3044.08,4147.09 3045.28,4147.09L3045.48,4147.09ZM3074.28,4143.19C3066.68,4143.19 3064.08,4131.99 3064.08,4118.79C3064.08,4101.39 3070.78,4092.69 3075.98,4092.69C3083.28,4092.69 3085.88,4104.99 3085.88,4116.19C3085.88,4129.89 3082.68,4143.19 3074.28,4143.19ZM3050.98,4103.19C3048.88,4110.69 3043.68,4120.49 3035.38,4120.49C3030.88,4120.49 3028.58,4116.99 3028.58,4110.09C3028.58,4102.69 3033.38,4092.89 3041.78,4092.89C3046.68,4092.89 3048.78,4096.79 3049.68,4098.99C3049.98,4099.69 3050.28,4099.99 3050.68,4099.99C3051.08,4099.99 3051.38,4099.69 3051.78,4099.29C3051.48,4100.59 3051.18,4101.89 3050.98,4103.19Z" style="fill-rule:nonzero;"/>
        </g>
    </g>
</svg>
