<?xml version="1.0" encoding="UTF-8" standalone="no"?>
<!DOCTYPE svg PUBLIC "-//W3C//DTD SVG 1.1//EN" "http://www.w3.org/Graphics/SVG/1.1/DTD/svg11.dtd">
<svg width="100%" height="100%" viewBox="0 0 89 89" version="1.1" xmlns="http://www.w3.org/2000/svg" xmlns:xlink="http://www.w3.org/1999/xlink" xml:space="preserve" xmlns:serif="http://www.serif.com/" style="fill-rule:evenodd;clip-rule:evenodd;stroke-linejoin:round;stroke-miterlimit:2;">
    <g transform="matrix(1,0,0,1,-1540.22,-1038.66)">
        <g transform="matrix(1,0,0,1,-1072.97,-2735.12)">
            <path d="M2701.38,3861.99L2701.38,3773.79L2613.18,3773.79L2613.18,3861.99L2701.38,3861.99ZM2697.28,3857.89L2617.28,3857.89L2617.28,3777.89L2697.28,3777.89L2697.28,3857.89ZM2639.88,3791.29C2637.08,3796.09 2634.08,3802.09 2630.88,3809.29C2627.58,3816.79 2625.98,3823.59 2625.98,3830.39C2625.98,3839.79 2632.58,3847.49 2641.38,3847.49C2650.88,3847.49 2656.78,3839.09 2656.78,3828.19C2656.78,3818.39 2650.98,3811.19 2642.58,3811.19C2637.88,3811.19 2633.98,3813.59 2631.58,3817.49C2635.08,3808.79 2639.68,3799.39 2644.98,3792.09C2645.18,3791.69 2645.68,3790.99 2645.68,3790.39C2645.68,3789.89 2645.48,3789.39 2644.38,3788.99C2643.98,3788.79 2643.28,3788.59 2642.68,3788.59C2641.98,3788.59 2641.28,3788.89 2640.88,3789.59C2640.68,3789.99 2640.08,3791.09 2639.88,3791.29ZM2641.38,3843.39C2634.68,3843.39 2629.98,3837.69 2629.98,3830.29C2629.98,3822.29 2634.88,3815.29 2642.48,3815.29C2648.78,3815.29 2652.68,3821.49 2652.68,3828.39C2652.68,3837.19 2647.88,3843.39 2641.38,3843.39ZM2662.78,3846.49C2664.98,3845.99 2668.58,3845.49 2673.58,3845.49C2682.28,3845.49 2683.38,3845.59 2688.58,3846.09C2689.18,3846.09 2689.38,3845.69 2689.38,3844.99C2689.38,3843.59 2688.28,3841.39 2687.28,3841.39C2686.38,3841.39 2683.98,3841.49 2682.88,3841.49C2679.98,3841.49 2677.68,3841.39 2674.28,3841.39C2671.58,3841.39 2667.58,3841.59 2664.98,3841.89C2667.48,3836.49 2671.68,3828.39 2677.78,3821.99C2684.28,3815.19 2688.88,3809.49 2688.88,3802.09C2688.88,3794.29 2683.98,3788.69 2676.38,3788.69C2669.28,3788.69 2664.38,3792.79 2661.58,3798.69C2661.28,3799.09 2661.28,3799.59 2661.28,3800.09C2661.28,3800.99 2661.68,3801.89 2662.78,3802.89C2663.08,3803.29 2663.38,3803.39 2663.78,3803.39C2664.48,3803.39 2664.98,3802.59 2665.38,3801.49C2666.88,3796.69 2670.68,3792.89 2676.18,3792.89C2681.48,3792.89 2684.58,3797.09 2684.58,3802.09C2684.58,3807.39 2680.98,3812.39 2675.18,3818.59C2669.38,3824.89 2664.48,3833.59 2661.78,3839.39C2661.38,3840.19 2660.98,3840.89 2660.38,3841.79C2660.18,3842.09 2660.08,3842.49 2660.08,3842.99C2660.08,3844.59 2661.28,3846.49 2662.48,3846.49L2662.78,3846.49Z" style="fill-rule:nonzero;"/>
        </g>
    </g>
</svg>
