<?xml version="1.0" encoding="UTF-8" standalone="no"?>
<!DOCTYPE svg PUBLIC "-//W3C//DTD SVG 1.1//EN" "http://www.w3.org/Graphics/SVG/1.1/DTD/svg11.dtd">
<svg width="100%" height="100%" viewBox="0 0 89 89" version="1.1" xmlns="http://www.w3.org/2000/svg" xmlns:xlink="http://www.w3.org/1999/xlink" xml:space="preserve" xmlns:serif="http://www.serif.com/" style="fill-rule:evenodd;clip-rule:evenodd;stroke-linejoin:round;stroke-miterlimit:2;">
    <g transform="matrix(1,0,0,1,-1640.22,-1038.66)">
        <g transform="matrix(1,0,0,1,-1072.97,-2735.12)">
            <path d="M2801.38,3861.99L2801.38,3773.79L2713.18,3773.79L2713.18,3861.99L2801.38,3861.99ZM2797.28,3857.89L2717.28,3857.89L2717.28,3777.89L2797.28,3777.89L2797.28,3857.89ZM2739.88,3791.29C2737.08,3796.09 2734.08,3802.09 2730.88,3809.29C2727.58,3816.79 2725.98,3823.59 2725.98,3830.39C2725.98,3839.79 2732.58,3847.49 2741.38,3847.49C2750.88,3847.49 2756.68,3839.09 2756.68,3828.19C2756.68,3818.39 2750.98,3811.19 2742.58,3811.19C2737.88,3811.19 2733.98,3813.59 2731.58,3817.49C2733.28,3813.39 2738.28,3801.39 2744.88,3792.09C2745.18,3791.69 2745.68,3790.99 2745.68,3790.39C2745.68,3789.89 2745.48,3789.39 2744.38,3788.99C2743.98,3788.79 2743.28,3788.59 2742.68,3788.59C2741.98,3788.59 2741.28,3788.89 2740.88,3789.59C2740.68,3789.99 2740.08,3791.09 2739.88,3791.29ZM2741.38,3843.39C2734.68,3843.39 2729.98,3837.69 2729.98,3830.29C2729.98,3822.29 2734.88,3815.29 2742.48,3815.29C2748.78,3815.29 2752.58,3821.49 2752.58,3828.39C2752.58,3837.19 2747.88,3843.39 2741.38,3843.39ZM2777.38,3814.69C2783.28,3812.89 2787.78,3807.89 2787.78,3801.09C2787.78,3793.29 2782.78,3788.69 2775.38,3788.69C2769.58,3788.69 2765.08,3791.29 2761.48,3795.89C2761.08,3796.29 2760.88,3796.79 2760.88,3797.49C2760.88,3798.29 2761.08,3799.19 2761.98,3800.29C2762.28,3800.79 2762.58,3800.89 2762.88,3800.89C2763.58,3800.89 2764.08,3799.89 2764.38,3799.59C2767.78,3794.99 2771.28,3792.89 2775.48,3792.89C2780.68,3792.89 2783.78,3796.19 2783.78,3801.59C2783.78,3808.29 2776.38,3813.29 2768.38,3813.89C2767.88,3813.99 2767.58,3814.49 2767.58,3815.09C2767.58,3816.39 2768.58,3818.29 2769.78,3818.29C2769.88,3818.29 2769.98,3818.19 2770.18,3818.19C2770.98,3817.99 2772.48,3817.69 2773.78,3817.59C2774.38,3817.49 2774.88,3817.49 2775.38,3817.49C2781.48,3817.49 2785.78,3822.09 2785.78,3828.69C2785.78,3836.09 2782.18,3843.19 2772.78,3843.19C2767.98,3843.19 2765.08,3840.39 2762.08,3836.19C2761.88,3835.89 2761.68,3835.69 2761.48,3835.69C2760.38,3835.69 2759.48,3837.79 2759.48,3839.39C2759.48,3840.09 2759.58,3840.59 2759.88,3840.99C2763.58,3845.19 2767.68,3847.49 2772.78,3847.49C2784.98,3847.49 2789.88,3838.79 2789.88,3828.59C2789.88,3819.99 2784.48,3814.69 2778.28,3814.69L2777.38,3814.69Z" style="fill-rule:nonzero;"/>
        </g>
    </g>
</svg>
