<?xml version="1.0" encoding="UTF-8" standalone="no"?>
<!DOCTYPE svg PUBLIC "-//W3C//DTD SVG 1.1//EN" "http://www.w3.org/Graphics/SVG/1.1/DTD/svg11.dtd">
<svg width="100%" height="100%" viewBox="0 0 89 89" version="1.1" xmlns="http://www.w3.org/2000/svg" xmlns:xlink="http://www.w3.org/1999/xlink" xml:space="preserve" xmlns:serif="http://www.serif.com/" style="fill-rule:evenodd;clip-rule:evenodd;stroke-linejoin:round;stroke-miterlimit:2;">
    <g transform="matrix(1,0,0,1,-2340.22,-588.665)">
        <g transform="matrix(1,0,0,1,-1072.97,-2735.12)">
            <path d="M3501.38,3411.99L3501.38,3323.79L3413.18,3323.79L3413.18,3411.99L3501.38,3411.99ZM3497.28,3407.89L3417.28,3407.89L3417.28,3327.89L3497.28,3327.89L3497.28,3407.89ZM3442.38,3364.69C3448.28,3362.89 3452.68,3357.89 3452.68,3351.09C3452.68,3343.29 3447.78,3338.69 3440.28,3338.69C3431.58,3338.69 3425.78,3345.69 3425.78,3347.49C3425.78,3349.19 3427.28,3350.89 3427.78,3350.89C3428.48,3350.89 3429.08,3349.89 3429.28,3349.59C3432.68,3344.99 3436.18,3342.89 3440.38,3342.89C3445.58,3342.89 3448.68,3346.19 3448.68,3351.59C3448.68,3358.29 3440.98,3363.29 3433.28,3363.89C3432.78,3363.99 3432.48,3364.49 3432.48,3365.09C3432.48,3366.39 3433.48,3368.29 3434.68,3368.29C3434.78,3368.29 3434.88,3368.19 3435.08,3368.19C3435.88,3367.99 3437.38,3367.69 3438.68,3367.59C3439.28,3367.49 3439.78,3367.49 3440.28,3367.49C3446.38,3367.49 3450.78,3372.09 3450.78,3378.69C3450.78,3386.09 3447.08,3393.19 3437.78,3393.19C3432.98,3393.19 3429.98,3390.39 3427.08,3386.19C3426.78,3385.89 3426.58,3385.69 3426.38,3385.69C3425.38,3385.69 3424.38,3387.79 3424.38,3389.39C3424.38,3390.09 3424.48,3390.59 3424.78,3390.99C3428.48,3395.19 3432.58,3397.49 3437.78,3397.49C3449.88,3397.49 3454.88,3388.79 3454.88,3378.59C3454.88,3369.99 3449.38,3364.69 3443.18,3364.69L3442.38,3364.69ZM3486.38,3383.19C3488.28,3383.19 3490.88,3383.39 3491.78,3383.39C3492.28,3383.39 3492.48,3382.89 3492.48,3382.29C3492.48,3380.89 3491.48,3378.59 3490.28,3378.59C3489.48,3378.59 3487.48,3378.99 3486.28,3379.09L3485.08,3379.19L3485.08,3362.49C3485.08,3360.49 3485.28,3356.59 3485.28,3355.29C3485.28,3353.89 3483.38,3352.99 3482.08,3352.99C3481.48,3352.99 3480.88,3353.29 3480.88,3353.79C3480.88,3355.69 3481.08,3360.89 3481.08,3362.49L3481.08,3379.39L3464.88,3379.79C3469.68,3370.19 3475.98,3357.19 3479.78,3348.29C3480.38,3346.99 3481.48,3345.09 3482.18,3343.79C3482.38,3343.59 3482.38,3343.29 3482.38,3342.99C3482.38,3341.29 3480.38,3338.89 3479.28,3338.89C3478.98,3338.89 3478.68,3338.99 3478.58,3339.39C3475.38,3349.39 3465.88,3368.99 3462.58,3375.49C3461.98,3376.59 3460.98,3377.79 3460.28,3379.19C3459.88,3379.69 3459.78,3380.29 3459.78,3380.79C3459.78,3382.69 3461.38,3384.49 3462.78,3384.49C3462.98,3384.49 3463.08,3384.39 3463.18,3384.39C3464.28,3384.09 3465.28,3383.89 3465.78,3383.89L3481.08,3383.39L3481.08,3387.79C3481.08,3388.99 3480.88,3393.59 3480.88,3394.89C3480.88,3396.29 3482.88,3397.19 3484.28,3397.19C3484.98,3397.19 3485.48,3396.89 3485.48,3396.39C3485.48,3394.49 3485.08,3391.29 3485.08,3387.99L3485.08,3383.19L3486.38,3383.19Z" style="fill-rule:nonzero;"/>
        </g>
    </g>
</svg>
