<?xml version="1.0" encoding="UTF-8" standalone="no"?>
<!DOCTYPE svg PUBLIC "-//W3C//DTD SVG 1.1//EN" "http://www.w3.org/Graphics/SVG/1.1/DTD/svg11.dtd">
<svg width="100%" height="100%" viewBox="0 0 89 89" version="1.1" xmlns="http://www.w3.org/2000/svg" xmlns:xlink="http://www.w3.org/1999/xlink" xml:space="preserve" xmlns:serif="http://www.serif.com/" style="fill-rule:evenodd;clip-rule:evenodd;stroke-linejoin:round;stroke-miterlimit:2;">
    <g transform="matrix(1,0,0,1,-2540.22,-1338.66)">
        <g transform="matrix(1,0,0,1,-1072.97,-2735.12)">
            <path d="M3701.38,4161.99L3701.38,4073.79L3613.18,4073.79L3613.18,4161.99L3701.38,4161.99ZM3697.28,4157.89L3617.28,4157.89L3617.28,4077.89L3697.28,4077.89L3697.28,4157.89ZM3673.48,4091.29C3670.68,4096.09 3667.68,4102.09 3664.48,4109.29C3661.18,4116.79 3659.58,4123.59 3659.58,4130.39C3659.58,4139.79 3666.18,4147.49 3674.98,4147.49C3684.48,4147.49 3690.28,4139.09 3690.28,4128.19C3690.28,4118.39 3684.58,4111.19 3676.18,4111.19C3671.48,4111.19 3667.58,4113.59 3665.18,4117.49C3666.88,4113.39 3671.88,4101.39 3678.48,4092.09C3678.78,4091.69 3679.28,4090.99 3679.28,4090.39C3679.28,4089.89 3679.08,4089.39 3677.98,4088.99C3677.58,4088.79 3676.88,4088.59 3676.28,4088.59C3675.58,4088.59 3674.88,4088.89 3674.48,4089.59C3674.28,4089.99 3673.68,4091.09 3673.48,4091.29ZM3645.48,4147.09C3647.18,4146.99 3648.18,4146.49 3648.28,4145.39C3649.18,4134.99 3652.98,4112.09 3655.98,4096.99L3656.88,4093.99L3656.88,4093.69C3656.88,4092.49 3655.48,4090.99 3653.98,4090.99C3652.48,4090.99 3652.88,4093.49 3652.28,4095.69C3651.38,4093.39 3648.08,4088.69 3641.38,4088.69C3631.78,4088.69 3624.58,4099.49 3624.58,4110.39C3624.58,4119.59 3628.98,4124.89 3635.48,4124.89C3640.48,4124.89 3645.78,4121.19 3648.78,4115.49C3644.98,4138.79 3644.68,4140.09 3644.08,4143.79C3643.98,4144.49 3643.78,4145.19 3643.78,4145.79C3643.78,4146.59 3644.08,4147.09 3645.28,4147.09L3645.48,4147.09ZM3674.98,4143.39C3668.28,4143.39 3663.58,4137.69 3663.58,4130.29C3663.58,4122.29 3668.48,4115.29 3676.08,4115.29C3682.38,4115.29 3686.18,4121.49 3686.18,4128.39C3686.18,4137.19 3681.48,4143.39 3674.98,4143.39ZM3650.98,4103.19C3648.88,4110.69 3643.68,4120.49 3635.38,4120.49C3630.88,4120.49 3628.58,4116.99 3628.58,4110.09C3628.58,4102.69 3633.38,4092.89 3641.68,4092.89C3646.68,4092.89 3648.78,4096.79 3649.68,4098.99C3649.98,4099.69 3650.28,4099.99 3650.68,4099.99C3651.08,4099.99 3651.38,4099.69 3651.68,4099.29L3650.98,4103.19Z" style="fill-rule:nonzero;"/>
        </g>
    </g>
</svg>
