<?xml version="1.0" encoding="UTF-8" standalone="no"?>
<!DOCTYPE svg PUBLIC "-//W3C//DTD SVG 1.1//EN" "http://www.w3.org/Graphics/SVG/1.1/DTD/svg11.dtd">
<svg width="100%" height="100%" viewBox="0 0 89 89" version="1.1" xmlns="http://www.w3.org/2000/svg" xmlns:xlink="http://www.w3.org/1999/xlink" xml:space="preserve" xmlns:serif="http://www.serif.com/" style="fill-rule:evenodd;clip-rule:evenodd;stroke-linejoin:round;stroke-miterlimit:2;">
    <g transform="matrix(1,0,0,1,-2640.22,-888.665)">
        <g transform="matrix(1,0,0,1,-1072.97,-2735.12)">
            <path d="M3801.38,3711.99L3801.38,3623.79L3713.18,3623.79L3713.18,3711.99L3801.38,3711.99ZM3797.28,3707.89L3717.28,3707.89L3717.28,3627.89L3797.28,3627.89L3797.28,3707.89ZM3743.78,3641.29C3740.78,3646.09 3737.68,3652.09 3734.28,3659.29C3730.78,3666.79 3728.98,3673.59 3728.98,3680.39C3728.98,3689.79 3735.98,3697.49 3745.28,3697.49C3755.38,3697.49 3761.48,3689.09 3761.48,3678.19C3761.48,3668.39 3755.48,3661.19 3746.58,3661.19C3741.58,3661.19 3737.48,3663.59 3734.98,3667.49C3739.48,3657.29 3742.68,3650.39 3749.08,3642.09C3749.38,3641.69 3749.88,3640.99 3749.88,3640.39C3749.88,3639.89 3749.58,3639.39 3748.48,3638.99C3748.08,3638.79 3747.38,3638.59 3746.68,3638.59C3745.68,3638.59 3744.98,3638.89 3743.78,3641.29ZM3745.28,3693.39C3738.18,3693.39 3733.28,3687.69 3733.28,3680.29C3733.28,3672.29 3738.38,3665.29 3746.48,3665.29C3753.08,3665.29 3757.18,3671.49 3757.18,3678.39C3757.18,3687.19 3752.08,3693.39 3745.28,3693.39ZM3777.48,3687.89C3777.48,3689.59 3777.28,3693.69 3777.28,3694.99C3777.28,3696.29 3779.28,3697.19 3780.68,3697.19C3781.28,3697.19 3781.88,3696.99 3781.88,3696.39C3781.78,3694.29 3781.68,3689.59 3781.68,3687.39L3781.68,3647.09C3781.68,3644.79 3782.18,3643.39 3782.18,3642.09C3782.18,3640.59 3780.48,3639.09 3779.38,3639.09C3778.38,3639.09 3776.78,3641.39 3776.28,3641.89C3773.98,3643.79 3770.58,3645.89 3766.98,3647.49C3766.48,3647.69 3766.28,3647.99 3766.28,3648.29C3766.28,3649.19 3767.88,3650.09 3769.18,3650.09C3769.38,3650.09 3769.68,3650.09 3769.88,3649.99C3772.38,3649.19 3775.38,3647.89 3777.48,3646.49L3777.48,3687.89Z" style="fill-rule:nonzero;"/>
        </g>
    </g>
</svg>
