<?xml version="1.0" encoding="UTF-8" standalone="no"?>
<!DOCTYPE svg PUBLIC "-//W3C//DTD SVG 1.1//EN" "http://www.w3.org/Graphics/SVG/1.1/DTD/svg11.dtd">
<svg width="100%" height="100%" viewBox="0 0 89 89" version="1.1" xmlns="http://www.w3.org/2000/svg" xmlns:xlink="http://www.w3.org/1999/xlink" xml:space="preserve" xmlns:serif="http://www.serif.com/" style="fill-rule:evenodd;clip-rule:evenodd;stroke-linejoin:round;stroke-miterlimit:2;">
    <g transform="matrix(1,0,0,1,-2040.22,-888.665)">
        <g transform="matrix(1,0,0,1,-1072.97,-2735.12)">
            <path d="M3201.38,3711.99L3201.38,3623.79L3113.18,3623.79L3113.18,3711.99L3201.38,3711.99ZM3197.28,3707.89L3117.28,3707.89L3117.28,3627.89L3197.28,3627.89L3197.28,3707.89ZM3167.28,3669.19C3169.58,3666.59 3172.58,3664.79 3176.18,3664.79C3182.38,3664.79 3186.38,3669.79 3186.38,3678.09C3186.38,3685.89 3182.78,3693.09 3173.78,3693.09C3168.58,3693.09 3165.38,3689.29 3162.88,3684.99C3162.68,3684.59 3162.48,3684.39 3162.18,3684.39C3161.28,3684.39 3160.18,3686.59 3160.18,3688.39C3160.18,3690.99 3166.68,3697.49 3173.78,3697.49C3185.58,3697.49 3190.38,3688.29 3190.38,3677.99C3190.38,3666.99 3184.18,3660.59 3176.78,3660.59C3172.18,3660.59 3169.08,3662.29 3166.18,3665.09L3167.98,3645.49L3181.58,3644.49L3186.88,3644.19C3187.38,3644.19 3187.68,3643.69 3187.68,3643.09C3187.68,3641.79 3186.68,3639.69 3185.68,3639.69L3185.58,3639.69C3184.38,3639.99 3182.38,3640.09 3181.08,3640.19L3168.08,3641.09C3167.18,3640.59 3166.08,3640.19 3165.48,3640.19C3164.88,3640.19 3164.48,3640.39 3164.48,3641.09C3164.48,3642.09 3164.38,3643.49 3164.38,3644.59L3162.58,3664.29C3162.48,3664.99 3162.28,3665.99 3161.98,3667.09L3161.98,3667.99C3161.98,3669.99 3163.68,3671.49 3164.78,3671.49C3164.98,3671.49 3165.18,3671.49 3165.38,3671.29L3167.28,3669.19ZM3132.38,3669.19C3134.68,3666.59 3137.68,3664.79 3141.28,3664.79C3147.48,3664.79 3151.48,3669.79 3151.48,3678.09C3151.48,3685.89 3147.88,3693.09 3138.88,3693.09C3133.68,3693.09 3130.48,3689.29 3127.98,3684.99C3127.78,3684.59 3127.58,3684.39 3127.28,3684.39C3126.38,3684.39 3125.28,3686.59 3125.28,3688.39C3125.28,3690.99 3131.78,3697.49 3138.88,3697.49C3150.68,3697.49 3155.48,3688.29 3155.48,3677.99C3155.48,3666.99 3149.28,3660.59 3141.88,3660.59C3137.28,3660.59 3134.18,3662.29 3131.28,3665.09L3133.08,3645.49L3146.68,3644.49L3151.98,3644.19C3152.48,3644.19 3152.78,3643.69 3152.78,3643.09C3152.78,3641.79 3151.78,3639.69 3150.78,3639.69L3150.68,3639.69C3149.48,3639.99 3147.48,3640.09 3146.18,3640.19L3133.18,3641.09C3132.28,3640.59 3131.28,3640.19 3130.58,3640.19C3129.98,3640.19 3129.58,3640.39 3129.58,3641.09C3129.58,3642.09 3129.58,3643.49 3129.48,3644.59L3127.68,3664.29L3127.18,3667.09C3127.08,3667.39 3127.08,3667.69 3127.08,3667.99C3127.08,3669.99 3128.78,3671.49 3129.88,3671.49C3130.08,3671.49 3130.28,3671.49 3130.48,3671.29L3132.38,3669.19Z" style="fill-rule:nonzero;"/>
        </g>
    </g>
</svg>
