<?xml version="1.0" encoding="UTF-8" standalone="no"?>
<!DOCTYPE svg PUBLIC "-//W3C//DTD SVG 1.1//EN" "http://www.w3.org/Graphics/SVG/1.1/DTD/svg11.dtd">
<svg width="100%" height="100%" viewBox="0 0 89 89" version="1.1" xmlns="http://www.w3.org/2000/svg" xmlns:xlink="http://www.w3.org/1999/xlink" xml:space="preserve" xmlns:serif="http://www.serif.com/" style="fill-rule:evenodd;clip-rule:evenodd;stroke-linejoin:round;stroke-miterlimit:2;">
    <g transform="matrix(1,0,0,1,-1640.22,-288.665)">
        <g transform="matrix(1,0,0,1,-1072.97,-2735.12)">
            <path d="M2801.38,3111.99L2801.38,3023.79L2713.18,3023.79L2713.18,3111.99L2801.38,3111.99ZM2797.28,3107.89L2717.28,3107.89L2717.28,3027.89L2797.28,3027.89L2797.28,3107.89ZM2733.68,3044.19C2733.58,3043.89 2733.18,3043.59 2732.78,3043.59C2730.58,3043.59 2726.48,3056.89 2726.48,3069.49C2726.48,3085.99 2730.98,3098.09 2740.18,3098.09C2749.88,3098.09 2754.58,3083.99 2754.58,3067.39C2754.58,3051.09 2750.08,3039.19 2741.78,3039.19C2738.48,3039.19 2735.78,3041.19 2733.68,3044.19ZM2773.68,3041.69C2770.88,3046.49 2767.88,3052.49 2764.68,3059.69C2761.38,3067.19 2759.78,3073.99 2759.78,3080.79C2759.78,3090.19 2766.38,3097.89 2775.18,3097.89C2784.68,3097.89 2790.58,3089.49 2790.58,3078.59C2790.58,3068.79 2784.78,3061.59 2776.38,3061.59C2771.68,3061.59 2767.78,3063.99 2765.38,3067.89C2768.88,3059.19 2773.48,3049.79 2778.78,3042.49C2778.98,3042.09 2779.48,3041.39 2779.48,3040.79C2779.48,3040.29 2779.28,3039.79 2778.18,3039.39C2777.78,3039.19 2777.08,3038.99 2776.48,3038.99C2775.78,3038.99 2775.08,3039.29 2774.68,3039.99C2774.48,3040.39 2773.88,3041.49 2773.68,3041.69ZM2739.98,3093.79C2732.78,3093.79 2730.38,3082.59 2730.38,3069.39C2730.38,3051.99 2736.68,3043.29 2741.48,3043.29C2748.28,3043.29 2750.68,3055.59 2750.68,3066.79C2750.68,3080.49 2747.68,3093.79 2739.98,3093.79ZM2775.18,3093.79C2768.48,3093.79 2763.78,3088.09 2763.78,3080.69C2763.78,3072.69 2768.68,3065.69 2776.28,3065.69C2782.58,3065.69 2786.48,3071.89 2786.48,3078.79C2786.48,3087.59 2781.68,3093.79 2775.18,3093.79Z" style="fill-rule:nonzero;"/>
        </g>
    </g>
</svg>
