<?xml version="1.0" encoding="UTF-8" standalone="no"?>
<!DOCTYPE svg PUBLIC "-//W3C//DTD SVG 1.1//EN" "http://www.w3.org/Graphics/SVG/1.1/DTD/svg11.dtd">
<svg width="100%" height="100%" viewBox="0 0 89 89" version="1.1" xmlns="http://www.w3.org/2000/svg" xmlns:xlink="http://www.w3.org/1999/xlink" xml:space="preserve" xmlns:serif="http://www.serif.com/" style="fill-rule:evenodd;clip-rule:evenodd;stroke-linejoin:round;stroke-miterlimit:2;">
    <g transform="matrix(1,0,0,1,-2140.22,-738.665)">
        <g transform="matrix(1,0,0,1,-1072.97,-2735.12)">
            <path d="M3301.38,3561.99L3301.38,3473.79L3213.18,3473.79L3213.18,3561.99L3301.38,3561.99ZM3297.28,3557.89L3217.28,3557.89L3217.28,3477.89L3297.28,3477.89L3297.28,3557.89ZM3249.78,3533.19C3251.68,3533.19 3254.28,3533.39 3255.18,3533.39C3255.68,3533.39 3255.88,3532.89 3255.88,3532.29C3255.88,3530.89 3254.88,3528.59 3253.78,3528.59C3252.88,3528.59 3250.88,3528.99 3249.68,3529.09L3248.58,3529.19L3248.58,3512.49C3248.58,3510.49 3248.68,3506.59 3248.68,3505.29C3248.68,3503.89 3246.78,3502.99 3245.58,3502.99C3244.88,3502.99 3244.38,3503.29 3244.38,3503.79C3244.38,3505.69 3244.48,3510.89 3244.48,3512.49L3244.48,3529.39L3228.28,3529.79C3233.18,3520.19 3239.38,3507.19 3243.18,3498.29C3243.78,3496.99 3244.88,3495.09 3245.58,3493.79C3245.78,3493.59 3245.78,3493.29 3245.78,3492.99C3245.78,3491.29 3243.78,3488.89 3242.68,3488.89C3242.38,3488.89 3242.08,3488.99 3242.08,3489.39C3237.98,3500.99 3230.28,3517.09 3225.98,3525.49C3225.38,3526.59 3224.38,3527.79 3223.68,3529.19C3223.28,3529.69 3223.18,3530.29 3223.18,3530.79C3223.18,3532.69 3224.88,3534.49 3226.18,3534.49C3226.38,3534.49 3226.48,3534.39 3226.68,3534.39C3227.68,3534.09 3228.68,3533.89 3229.18,3533.89L3244.48,3533.39L3244.48,3537.79C3244.48,3538.99 3244.38,3543.59 3244.38,3544.89C3244.38,3546.29 3246.28,3547.19 3247.68,3547.19C3248.38,3547.19 3248.88,3546.89 3248.88,3546.39C3248.88,3544.49 3248.58,3541.29 3248.58,3537.99L3248.58,3533.19L3249.78,3533.19ZM3285.88,3533.19C3287.78,3533.19 3290.28,3533.39 3291.28,3533.39C3291.78,3533.39 3291.98,3532.89 3291.98,3532.29C3291.98,3530.89 3290.88,3528.59 3289.78,3528.59C3288.98,3528.59 3286.98,3528.99 3285.78,3529.09L3284.58,3529.19L3284.58,3512.49C3284.58,3510.49 3284.78,3506.59 3284.78,3505.29C3284.78,3503.89 3282.88,3502.99 3281.58,3502.99C3280.88,3502.99 3280.38,3503.29 3280.38,3503.79C3280.38,3505.69 3280.58,3510.89 3280.58,3512.49L3280.58,3529.39L3264.28,3529.79C3269.18,3520.19 3275.38,3507.19 3279.28,3498.29C3279.88,3496.99 3280.88,3495.09 3281.68,3493.79C3281.88,3493.59 3281.88,3493.29 3281.88,3492.99C3281.88,3491.29 3279.88,3488.89 3278.78,3488.89C3278.38,3488.89 3278.18,3488.99 3278.08,3489.39C3276.48,3494.29 3271.78,3506.39 3261.98,3525.49C3261.48,3526.59 3260.48,3527.79 3259.68,3529.19C3259.38,3529.69 3259.28,3530.29 3259.28,3530.79C3259.28,3532.69 3260.88,3534.49 3262.28,3534.49C3262.48,3534.49 3262.48,3534.39 3262.68,3534.39C3263.68,3534.09 3264.78,3533.89 3265.28,3533.89L3280.58,3533.39L3280.58,3537.79C3280.58,3538.99 3280.38,3543.59 3280.38,3544.89C3280.38,3546.29 3282.38,3547.19 3283.68,3547.19C3284.38,3547.19 3284.88,3546.89 3284.88,3546.39C3284.88,3544.49 3284.58,3541.29 3284.58,3537.99L3284.58,3533.19L3285.88,3533.19Z" style="fill-rule:nonzero;"/>
        </g>
    </g>
</svg>
