<?xml version="1.0" encoding="UTF-8" standalone="no"?>
<!DOCTYPE svg PUBLIC "-//W3C//DTD SVG 1.1//EN" "http://www.w3.org/Graphics/SVG/1.1/DTD/svg11.dtd">
<svg width="100%" height="100%" viewBox="0 0 89 89" version="1.1" xmlns="http://www.w3.org/2000/svg" xmlns:xlink="http://www.w3.org/1999/xlink" xml:space="preserve" xmlns:serif="http://www.serif.com/" style="fill-rule:evenodd;clip-rule:evenodd;stroke-linejoin:round;stroke-miterlimit:2;">
    <g transform="matrix(1,0,0,1,-2640.22,-438.665)">
        <g transform="matrix(1,0,0,1,-1072.97,-2735.12)">
            <path d="M3801.38,3261.99L3801.38,3173.79L3713.18,3173.79L3713.18,3261.99L3801.38,3261.99ZM3797.28,3257.89L3717.28,3257.89L3717.28,3177.89L3797.28,3177.89L3797.28,3257.89ZM3765.78,3219.19C3768.18,3216.59 3771.38,3214.79 3775.18,3214.79C3781.78,3214.79 3785.98,3219.79 3785.98,3228.09C3785.98,3235.89 3782.18,3243.09 3772.68,3243.09C3767.28,3243.09 3763.78,3239.29 3761.18,3234.99C3760.98,3234.59 3760.78,3234.39 3760.48,3234.39C3759.48,3234.39 3758.28,3236.59 3758.28,3238.39C3758.28,3239.09 3758.48,3239.69 3758.88,3240.09C3762.28,3244.29 3766.68,3247.49 3772.68,3247.49C3785.18,3247.49 3790.28,3238.29 3790.28,3227.99C3790.28,3216.99 3783.68,3210.59 3775.88,3210.59C3770.98,3210.59 3767.68,3212.29 3764.68,3215.09L3766.58,3195.49L3780.98,3194.49L3786.58,3194.19C3787.08,3194.19 3787.38,3193.69 3787.38,3193.09C3787.38,3191.79 3786.28,3189.69 3785.28,3189.69L3785.08,3189.69C3783.88,3189.99 3781.78,3190.09 3780.38,3190.19L3766.68,3191.09C3765.68,3190.59 3764.58,3190.19 3763.88,3190.19C3763.28,3190.19 3762.88,3190.39 3762.88,3191.09C3762.88,3192.09 3762.78,3193.49 3762.68,3194.59L3760.88,3214.29C3760.78,3214.99 3760.58,3215.99 3760.28,3217.09C3760.18,3217.39 3760.18,3217.69 3760.18,3217.99C3760.18,3219.99 3761.98,3221.49 3763.18,3221.49C3763.48,3221.49 3763.58,3221.49 3763.78,3221.29L3765.78,3219.19ZM3726.28,3246.49C3729.68,3245.69 3734.08,3245.49 3737.68,3245.49C3742.48,3245.49 3747.88,3245.49 3753.58,3246.09C3754.38,3246.09 3754.68,3245.29 3754.68,3244.29C3754.68,3242.99 3754.08,3241.39 3753.08,3241.39C3752.18,3241.39 3748.78,3241.49 3747.48,3241.49C3744.48,3241.49 3742.08,3241.39 3738.48,3241.39C3735.68,3241.39 3731.48,3241.59 3728.68,3241.89C3731.28,3236.49 3735.78,3228.39 3742.18,3221.99C3749.08,3215.19 3753.88,3209.49 3753.88,3202.09C3753.88,3194.29 3748.78,3188.69 3740.68,3188.69C3733.18,3188.69 3728.08,3192.79 3725.08,3198.69C3724.78,3199.09 3724.68,3199.59 3724.68,3200.09C3724.68,3201.39 3726.38,3203.39 3727.38,3203.39C3728.08,3203.39 3728.68,3202.59 3729.08,3201.49C3730.68,3196.69 3734.68,3192.89 3740.48,3192.89C3746.08,3192.89 3749.28,3197.09 3749.28,3202.09C3749.28,3207.39 3745.48,3212.39 3739.48,3218.59C3733.28,3224.89 3728.08,3233.59 3725.28,3239.39C3724.88,3240.19 3724.38,3240.89 3723.78,3241.79C3723.58,3242.09 3723.48,3242.49 3723.48,3242.99C3723.48,3244.59 3724.68,3246.49 3726.08,3246.49L3726.28,3246.49Z" style="fill-rule:nonzero;"/>
        </g>
    </g>
</svg>
