<?xml version="1.0" encoding="UTF-8" standalone="no"?>
<!DOCTYPE svg PUBLIC "-//W3C//DTD SVG 1.1//EN" "http://www.w3.org/Graphics/SVG/1.1/DTD/svg11.dtd">
<svg width="100%" height="100%" viewBox="0 0 89 89" version="1.1" xmlns="http://www.w3.org/2000/svg" xmlns:xlink="http://www.w3.org/1999/xlink" xml:space="preserve" xmlns:serif="http://www.serif.com/" style="fill-rule:evenodd;clip-rule:evenodd;stroke-linejoin:round;stroke-miterlimit:2;">
    <g transform="matrix(1,0,0,1,-2540.22,-288.665)">
        <g transform="matrix(1,0,0,1,-1072.97,-2735.12)">
            <path d="M3701.38,3111.99L3701.38,3023.79L3613.18,3023.79L3613.18,3111.99L3701.38,3111.99ZM3697.28,3107.89L3617.28,3107.89L3617.28,3027.89L3697.28,3027.89L3697.28,3107.89ZM3667.88,3091.39C3665.18,3091.39 3659.48,3091.39 3656.68,3091.79C3659.88,3085.49 3665.48,3078.59 3672.58,3071.79C3679.58,3065.19 3683.88,3058.89 3683.88,3051.99C3683.88,3044.09 3678.68,3038.69 3670.38,3038.69C3659.08,3038.69 3654.28,3047.99 3654.28,3050.09C3654.28,3051.09 3654.78,3052.09 3655.88,3053.19C3656.28,3053.49 3656.58,3053.59 3656.78,3053.59C3657.58,3053.59 3658.08,3052.69 3658.48,3051.69C3660.08,3046.99 3664.48,3043.09 3670.18,3043.09C3676.18,3043.09 3679.38,3047.09 3679.38,3051.99C3679.38,3057.29 3675.78,3062.69 3669.58,3068.59C3661.98,3075.79 3655.98,3083.89 3653.18,3089.29C3652.78,3090.09 3652.18,3090.59 3651.58,3091.69C3651.38,3091.99 3651.28,3092.39 3651.28,3092.79C3651.28,3094.49 3652.58,3096.49 3653.98,3096.49L3654.38,3096.49C3658.28,3095.69 3661.68,3095.59 3673.08,3095.59C3674.88,3095.59 3676.68,3095.59 3678.08,3095.69C3680.58,3095.79 3683.08,3096.19 3683.98,3096.19C3684.68,3096.19 3684.98,3095.69 3684.98,3094.99C3684.98,3093.59 3683.78,3091.39 3682.68,3091.39L3667.88,3091.39ZM3636.08,3087.89C3636.08,3089.59 3635.88,3093.69 3635.88,3094.99C3635.88,3096.29 3637.88,3097.19 3639.28,3097.19C3639.98,3097.19 3640.48,3096.99 3640.48,3096.39C3640.38,3094.29 3640.28,3089.59 3640.28,3087.39L3640.28,3047.09C3640.28,3044.79 3640.78,3043.39 3640.78,3042.09C3640.78,3040.59 3639.18,3039.09 3638.08,3039.09C3636.98,3039.09 3635.48,3041.39 3634.88,3041.89C3632.68,3043.79 3629.18,3045.89 3625.58,3047.49C3625.08,3047.69 3624.88,3047.99 3624.88,3048.29C3624.88,3049.19 3626.48,3050.09 3627.78,3050.09C3628.08,3050.09 3628.28,3050.09 3628.48,3049.99C3630.98,3049.19 3633.98,3047.89 3636.08,3046.49L3636.08,3087.89Z" style="fill-rule:nonzero;"/>
        </g>
    </g>
</svg>
