<?xml version="1.0" encoding="UTF-8" standalone="no"?>
<!DOCTYPE svg PUBLIC "-//W3C//DTD SVG 1.1//EN" "http://www.w3.org/Graphics/SVG/1.1/DTD/svg11.dtd">
<svg width="100%" height="100%" viewBox="0 0 89 89" version="1.1" xmlns="http://www.w3.org/2000/svg" xmlns:xlink="http://www.w3.org/1999/xlink" xml:space="preserve" xmlns:serif="http://www.serif.com/" style="fill-rule:evenodd;clip-rule:evenodd;stroke-linejoin:round;stroke-miterlimit:2;">
    <g transform="matrix(1,0,0,1,-1940.22,-288.665)">
        <g transform="matrix(1,0,0,1,-1072.97,-2735.12)">
            <path d="M3101.38,3111.99L3101.38,3023.79L3013.18,3023.79L3013.18,3111.99L3101.38,3111.99ZM3097.28,3107.89L3017.28,3107.89L3017.28,3027.89L3097.28,3027.89L3097.28,3107.89ZM3059.58,3063.39C3064.48,3060.49 3078.08,3052.09 3078.08,3049.19C3078.08,3048.29 3077.38,3047.69 3076.48,3047.69C3075.98,3047.69 3075.48,3047.89 3074.88,3048.39C3074.88,3048.39 3074.48,3048.79 3074.18,3048.89C3074.48,3048.49 3074.58,3047.99 3074.58,3047.59C3074.58,3045.09 3067.58,3038.69 3057.08,3038.69C3045.98,3038.69 3039.78,3044.29 3039.78,3051.69C3039.78,3058.49 3044.28,3061.79 3050.08,3064.29C3041.98,3068.99 3036.78,3074.89 3036.78,3082.19C3036.78,3091.29 3044.28,3097.49 3056.48,3097.49C3070.58,3097.49 3078.98,3091.59 3078.98,3081.19C3078.98,3070.19 3068.88,3066.49 3059.58,3063.39ZM3054.78,3066.09C3064.08,3069.49 3074.18,3072.29 3074.18,3081.49C3074.18,3088.99 3066.68,3093.19 3056.48,3093.19C3046.78,3093.19 3041.48,3087.89 3041.48,3081.99C3041.48,3076.39 3046.28,3071.09 3054.78,3066.09ZM3072.18,3050.39C3067.18,3054.19 3059.28,3059.09 3054.58,3061.49C3048.78,3059.19 3044.48,3056.99 3044.48,3051.79C3044.48,3046.59 3049.18,3042.69 3056.98,3042.69C3062.58,3042.69 3067.88,3045.39 3070.48,3049.39C3070.88,3050.09 3071.48,3050.39 3071.98,3050.39L3072.18,3050.39Z" style="fill-rule:nonzero;"/>
        </g>
    </g>
</svg>
