<?xml version="1.0" encoding="UTF-8" standalone="no"?>
<!DOCTYPE svg PUBLIC "-//W3C//DTD SVG 1.1//EN" "http://www.w3.org/Graphics/SVG/1.1/DTD/svg11.dtd">
<svg width="100%" height="100%" viewBox="0 0 89 89" version="1.1" xmlns="http://www.w3.org/2000/svg" xmlns:xlink="http://www.w3.org/1999/xlink" xml:space="preserve" xmlns:serif="http://www.serif.com/" style="fill-rule:evenodd;clip-rule:evenodd;stroke-linejoin:round;stroke-miterlimit:2;">
    <g transform="matrix(1,0,0,1,-1740.22,-138.665)">
        <g transform="matrix(1,0,0,1,-1072.97,-2735.12)">
            <path d="M2901.38,2961.99L2901.38,2873.79L2813.18,2873.79L2813.18,2961.99L2901.38,2961.99ZM2897.28,2957.89L2817.28,2957.89L2817.28,2877.89L2897.28,2877.89L2897.28,2957.89ZM2856.58,2937.89C2856.58,2939.59 2856.38,2943.69 2856.38,2944.99C2856.38,2946.29 2858.58,2947.19 2860.18,2947.19C2860.88,2947.19 2861.48,2946.99 2861.48,2946.39C2861.38,2944.29 2861.28,2939.59 2861.28,2937.39L2861.28,2897.79C2861.28,2895.49 2861.78,2893.39 2861.78,2892.09C2861.78,2890.59 2859.98,2889.09 2858.78,2889.09C2857.58,2889.09 2855.98,2891.39 2855.28,2891.89C2852.78,2893.99 2847.98,2896.59 2843.88,2898.19C2843.28,2898.39 2843.08,2898.69 2843.08,2898.99C2843.08,2899.79 2844.88,2900.79 2846.38,2900.79C2846.68,2900.79 2846.88,2900.79 2847.08,2900.69C2849.68,2899.99 2854.08,2898.09 2856.58,2896.49L2856.58,2937.89Z" style="fill-rule:nonzero;"/>
        </g>
    </g>
</svg>
