<?xml version="1.0" encoding="UTF-8" standalone="no"?>
<!DOCTYPE svg PUBLIC "-//W3C//DTD SVG 1.1//EN" "http://www.w3.org/Graphics/SVG/1.1/DTD/svg11.dtd">
<svg width="100%" height="100%" viewBox="0 0 89 89" version="1.1" xmlns="http://www.w3.org/2000/svg" xmlns:xlink="http://www.w3.org/1999/xlink" xml:space="preserve" xmlns:serif="http://www.serif.com/" style="fill-rule:evenodd;clip-rule:evenodd;stroke-linejoin:round;stroke-miterlimit:2;">
    <g transform="matrix(1,0,0,1,-2140.22,-138.665)">
        <g transform="matrix(1,0,0,1,-1072.97,-2735.12)">
            <path d="M3301.38,2961.99L3301.38,2873.79L3213.18,2873.79L3213.18,2961.99L3301.38,2961.99ZM3297.28,2957.89L3217.28,2957.89L3217.28,2877.89L3297.28,2877.89L3297.28,2957.89ZM3261.88,2914.59L3261.88,2914.39C3269.78,2912.89 3275.18,2908.09 3275.18,2901.09C3275.18,2893.09 3269.18,2888.69 3258.48,2888.69C3247.08,2888.69 3238.98,2895.29 3238.98,2897.69C3238.98,2898.39 3239.28,2899.29 3240.28,2900.29C3240.68,2900.69 3241.08,2900.89 3241.48,2900.89C3242.38,2900.89 3243.08,2899.89 3243.38,2899.59C3248.18,2894.79 3251.98,2892.89 3258.68,2892.89C3266.48,2892.89 3270.48,2895.89 3270.48,2901.69C3270.48,2909.99 3256.88,2913.19 3249.08,2914.09C3248.38,2914.09 3248.08,2914.59 3248.08,2915.29C3248.08,2916.59 3249.28,2918.59 3250.98,2918.59C3251.18,2918.59 3251.38,2918.59 3251.58,2918.49C3251.88,2918.39 3254.68,2917.49 3258.98,2917.49C3267.18,2917.49 3273.28,2921.69 3273.28,2928.99C3273.28,2936.89 3267.28,2943.19 3254.58,2943.19C3247.38,2943.19 3242.48,2940.39 3239.28,2935.29C3238.98,2934.79 3238.58,2934.59 3238.28,2934.59C3237.08,2934.59 3235.78,2936.89 3235.78,2938.59C3235.78,2939.09 3235.98,2939.69 3236.28,2939.99C3240.88,2944.79 3245.98,2947.49 3254.58,2947.49C3271.18,2947.49 3278.08,2939.39 3278.08,2928.89C3278.08,2919.69 3270.78,2914.59 3262.78,2914.59L3261.88,2914.59Z" style="fill-rule:nonzero;"/>
        </g>
    </g>
</svg>
