<?xml version="1.0" encoding="UTF-8" standalone="no"?>
<!DOCTYPE svg PUBLIC "-//W3C//DTD SVG 1.1//EN" "http://www.w3.org/Graphics/SVG/1.1/DTD/svg11.dtd">
<svg width="100%" height="100%" viewBox="0 0 89 89" version="1.1" xmlns="http://www.w3.org/2000/svg" xmlns:xlink="http://www.w3.org/1999/xlink" xml:space="preserve" xmlns:serif="http://www.serif.com/" style="fill-rule:evenodd;clip-rule:evenodd;stroke-linejoin:round;stroke-miterlimit:2;">
    <g transform="matrix(1,0,0,1,-1540.22,-738.665)">
        <g transform="matrix(1,0,0,1,-1072.97,-2735.12)">
            <path d="M2701.38,3561.99L2701.38,3473.79L2613.18,3473.79L2613.18,3561.99L2701.38,3561.99ZM2697.28,3557.89L2617.28,3557.89L2617.28,3477.89L2697.28,3477.89L2697.28,3557.89ZM2676.78,3513.69C2680.18,3510.99 2689.38,3501.79 2689.38,3499.19C2689.38,3498.29 2688.88,3497.69 2688.18,3497.69C2687.68,3497.69 2687.08,3497.89 2686.48,3498.59L2686.18,3498.99C2686.48,3498.49 2686.58,3497.89 2686.58,3497.49C2686.58,3497.19 2686.48,3496.89 2686.48,3496.69C2683.78,3492.39 2679.98,3488.79 2674.58,3488.79C2666.18,3488.79 2661.28,3495.09 2661.28,3502.19C2661.28,3507.49 2663.08,3510.89 2669.38,3514.49C2662.98,3519.49 2659.18,3524.99 2659.18,3532.29C2659.18,3540.89 2664.48,3547.49 2673.38,3547.49C2683.18,3547.49 2689.68,3541.09 2689.68,3531.19C2689.68,3523.39 2685.88,3518.29 2677.68,3514.09L2676.78,3513.69ZM2641.48,3514.69C2647.38,3512.89 2651.88,3507.89 2651.88,3501.09C2651.88,3493.29 2646.88,3488.69 2639.48,3488.69C2633.68,3488.69 2629.18,3491.29 2625.58,3495.89C2625.18,3496.29 2624.98,3496.79 2624.98,3497.49C2624.98,3498.29 2625.18,3499.19 2626.08,3500.29C2626.38,3500.79 2626.68,3500.89 2626.98,3500.89C2627.68,3500.89 2628.18,3499.89 2628.48,3499.59C2631.88,3494.99 2635.38,3492.89 2639.58,3492.89C2644.78,3492.89 2647.88,3496.19 2647.88,3501.59C2647.88,3508.29 2640.48,3513.29 2632.48,3513.89C2631.98,3513.99 2631.68,3514.49 2631.68,3515.09C2631.68,3516.39 2632.68,3518.29 2633.88,3518.29C2633.98,3518.29 2634.08,3518.19 2634.28,3518.19C2635.08,3517.99 2636.58,3517.69 2637.88,3517.59C2638.48,3517.49 2638.98,3517.49 2639.48,3517.49C2645.58,3517.49 2649.88,3522.09 2649.88,3528.69C2649.88,3536.09 2646.28,3543.19 2636.88,3543.19C2632.08,3543.19 2629.18,3540.39 2626.18,3536.19C2625.98,3535.89 2625.78,3535.69 2625.58,3535.69C2624.48,3535.69 2623.58,3537.79 2623.58,3539.39C2623.58,3540.09 2623.68,3540.59 2623.98,3540.99C2627.68,3545.19 2631.78,3547.49 2636.88,3547.49C2649.08,3547.49 2653.98,3538.79 2653.98,3528.59C2653.98,3519.99 2648.58,3514.69 2642.38,3514.69L2641.48,3514.69ZM2673.18,3516.49C2680.48,3520.19 2685.68,3523.39 2685.68,3531.59C2685.68,3538.49 2680.48,3543.19 2673.38,3543.19C2666.28,3543.19 2663.18,3537.59 2663.18,3532.09C2663.18,3526.29 2666.88,3521.59 2673.18,3516.49ZM2685.08,3500.19C2681.68,3504.19 2677.68,3508.29 2673.08,3511.69C2667.08,3508.59 2665.28,3506.39 2665.28,3502.19C2665.28,3497.49 2668.38,3492.89 2674.68,3492.89C2678.68,3492.89 2681.08,3495.39 2683.08,3499.29C2683.48,3500.09 2683.98,3500.39 2684.38,3500.39C2684.68,3500.39 2684.88,3500.29 2685.08,3500.19Z" style="fill-rule:nonzero;"/>
        </g>
    </g>
</svg>
