<?xml version="1.0" encoding="UTF-8" standalone="no"?>
<!DOCTYPE svg PUBLIC "-//W3C//DTD SVG 1.1//EN" "http://www.w3.org/Graphics/SVG/1.1/DTD/svg11.dtd">
<svg width="100%" height="100%" viewBox="0 0 89 89" version="1.1" xmlns="http://www.w3.org/2000/svg" xmlns:xlink="http://www.w3.org/1999/xlink" xml:space="preserve" xmlns:serif="http://www.serif.com/" style="fill-rule:evenodd;clip-rule:evenodd;stroke-linejoin:round;stroke-miterlimit:2;">
    <g transform="matrix(1,0,0,1,-2540.22,-1638.66)">
        <g transform="matrix(1,0,0,1,-1072.97,-2735.12)">
            <path d="M3701.38,4461.99L3701.38,4373.79L3613.18,4373.79L3613.18,4461.99L3701.38,4461.99ZM3697.28,4457.89L3617.28,4457.89L3617.28,4377.89L3697.28,4377.89L3697.28,4457.89ZM3652.08,4435.79C3652.08,4442.99 3653.68,4446.49 3659.48,4446.49C3665.18,4446.49 3671.08,4439.39 3671.08,4437.69C3671.08,4437.29 3670.88,4436.99 3670.38,4436.99C3669.88,4436.99 3669.18,4437.29 3668.28,4437.99C3665.28,4440.29 3662.28,4441.89 3659.88,4441.89C3657.28,4441.89 3656.58,4440.79 3656.58,4435.99L3656.58,4408.29L3660.08,4408.09C3662.28,4407.99 3666.18,4407.99 3667.38,4407.99C3667.98,4407.99 3668.28,4407.59 3668.28,4406.99C3668.28,4405.79 3667.18,4403.99 3665.78,4403.99L3665.68,4403.99C3664.48,4403.99 3661.18,4404.39 3659.18,4404.49L3656.58,4404.59L3656.58,4400.29C3656.58,4398.29 3656.78,4394.09 3656.78,4392.69C3656.78,4391.39 3654.58,4390.39 3653.18,4390.39C3652.38,4390.39 3651.88,4390.69 3651.88,4391.19C3651.88,4393.19 3652.08,4398.69 3652.08,4400.29L3652.08,4404.79L3644.48,4404.79C3643.88,4404.79 3643.58,4405.19 3643.58,4405.69C3643.58,4406.89 3644.78,4408.79 3646.18,4408.79L3646.28,4408.79C3647.88,4408.69 3650.48,4408.49 3652.08,4408.49L3652.08,4435.79Z" style="fill-rule:nonzero;"/>
        </g>
    </g>
</svg>
