<?xml version="1.0" encoding="UTF-8" standalone="no"?>
<!DOCTYPE svg PUBLIC "-//W3C//DTD SVG 1.1//EN" "http://www.w3.org/Graphics/SVG/1.1/DTD/svg11.dtd">
<svg width="100%" height="100%" viewBox="0 0 89 89" version="1.1" xmlns="http://www.w3.org/2000/svg" xmlns:xlink="http://www.w3.org/1999/xlink" xml:space="preserve" xmlns:serif="http://www.serif.com/" style="fill-rule:evenodd;clip-rule:evenodd;stroke-linejoin:round;stroke-miterlimit:2;">
    <g transform="matrix(1,0,0,1,-2040.22,-438.665)">
        <g transform="matrix(1,0,0,1,-1072.97,-2735.12)">
            <path d="M3201.38,3261.99L3201.38,3173.79L3113.18,3173.79L3113.18,3261.99L3201.38,3261.99ZM3197.28,3257.89L3117.28,3257.89L3117.28,3177.89L3197.28,3177.89L3197.28,3257.89ZM3172.98,3247.09C3174.78,3246.99 3175.88,3246.49 3175.98,3245.39C3176.78,3235.39 3182.88,3199.69 3184.98,3193.99L3184.98,3193.69C3184.98,3192.49 3183.08,3191.19 3181.88,3190.99L3181.78,3190.99C3180.38,3190.99 3180.78,3193.39 3180.18,3195.69C3177.08,3189.49 3170.98,3188.69 3167.98,3188.69C3157.88,3188.69 3149.48,3199.49 3149.48,3210.39C3149.48,3219.59 3154.98,3224.89 3161.78,3224.89C3167.08,3224.89 3173.38,3221.19 3176.48,3215.49L3171.58,3243.79C3171.38,3244.49 3171.18,3245.19 3171.18,3245.79C3171.18,3246.59 3171.58,3247.09 3172.78,3247.09L3172.98,3247.09ZM3178.78,3203.19C3178.18,3204.99 3177.48,3207.39 3176.68,3208.89C3172.88,3215.89 3168.18,3220.49 3161.68,3220.49C3156.88,3220.49 3153.78,3216.99 3153.78,3210.09C3153.78,3202.69 3159.58,3192.89 3168.38,3192.89C3173.58,3192.89 3176.48,3196.79 3177.38,3198.99C3177.68,3199.69 3178.08,3199.99 3178.48,3199.99C3178.88,3199.99 3179.18,3199.69 3179.58,3199.29C3179.28,3200.59 3178.98,3201.89 3178.78,3203.19ZM3134.18,3237.89C3134.18,3239.59 3133.98,3243.69 3133.98,3244.99C3133.98,3246.29 3135.98,3247.19 3137.38,3247.19C3138.08,3247.19 3138.58,3246.99 3138.58,3246.39C3138.48,3244.29 3138.38,3239.59 3138.38,3237.39L3138.38,3197.09C3138.38,3194.79 3138.88,3193.39 3138.88,3192.09C3138.88,3190.59 3137.28,3189.09 3136.18,3189.09C3135.08,3189.09 3133.58,3191.39 3132.98,3191.89C3130.78,3193.79 3127.28,3195.89 3123.68,3197.49C3123.18,3197.69 3122.98,3197.99 3122.98,3198.29C3122.98,3199.19 3124.58,3200.09 3125.88,3200.09C3126.18,3200.09 3126.38,3200.09 3126.58,3199.99C3129.08,3199.19 3132.08,3197.89 3134.18,3196.49L3134.18,3237.89Z" style="fill-rule:nonzero;"/>
        </g>
    </g>
</svg>
