<?xml version="1.0" encoding="UTF-8" standalone="no"?>
<!DOCTYPE svg PUBLIC "-//W3C//DTD SVG 1.1//EN" "http://www.w3.org/Graphics/SVG/1.1/DTD/svg11.dtd">
<svg width="100%" height="100%" viewBox="0 0 89 89" version="1.1" xmlns="http://www.w3.org/2000/svg" xmlns:xlink="http://www.w3.org/1999/xlink" xml:space="preserve" xmlns:serif="http://www.serif.com/" style="fill-rule:evenodd;clip-rule:evenodd;stroke-linejoin:round;stroke-miterlimit:2;">
    <g transform="matrix(1,0,0,1,-2340.22,-1638.66)">
        <g transform="matrix(1,0,0,1,-1072.97,-2735.12)">
            <path d="M3501.38,4461.99L3501.38,4373.79L3413.18,4373.79L3413.18,4461.99L3501.38,4461.99ZM3497.28,4457.89L3417.28,4457.89L3417.28,4377.89L3497.28,4377.89L3497.28,4457.89ZM3446.78,4430.09C3446.78,4431.29 3446.58,4436.19 3446.58,4437.59C3446.58,4438.89 3448.88,4439.89 3450.38,4439.89C3451.08,4439.89 3451.68,4439.59 3451.68,4439.09C3451.68,4437.19 3451.38,4433.59 3451.38,4430.09C3451.38,4423.59 3451.58,4416.19 3452.78,4412.29C3454.88,4405.49 3459.78,4402.69 3464.68,4402.69C3466.38,4402.69 3469.78,4403.69 3470.98,4405.89C3471.28,4406.49 3471.68,4406.79 3472.08,4406.79C3473.28,4406.79 3474.48,4404.59 3474.48,4402.99C3474.48,4402.59 3474.38,4402.19 3474.18,4401.89C3471.88,4399.19 3467.78,4397.99 3464.88,4397.99C3458.88,4397.99 3453.68,4401.59 3451.48,4405.89C3451.48,4403.89 3451.58,4401.69 3451.58,4400.39C3451.58,4398.99 3449.38,4397.99 3447.88,4397.99C3447.08,4397.99 3446.58,4398.29 3446.58,4398.79C3446.58,4400.79 3446.78,4406.29 3446.78,4407.89L3446.78,4430.09Z" style="fill-rule:nonzero;"/>
        </g>
    </g>
</svg>
