<?xml version="1.0" encoding="UTF-8" standalone="no"?>
<!DOCTYPE svg PUBLIC "-//W3C//DTD SVG 1.1//EN" "http://www.w3.org/Graphics/SVG/1.1/DTD/svg11.dtd">
<svg width="100%" height="100%" viewBox="0 0 89 89" version="1.1" xmlns="http://www.w3.org/2000/svg" xmlns:xlink="http://www.w3.org/1999/xlink" xml:space="preserve" xmlns:serif="http://www.serif.com/" style="fill-rule:evenodd;clip-rule:evenodd;stroke-linejoin:round;stroke-miterlimit:2;">
    <g transform="matrix(1,0,0,1,-1840.22,-1638.66)">
        <g transform="matrix(1,0,0,1,-1072.97,-2735.12)">
            <path d="M3001.38,4461.99L3001.38,4373.79L2913.18,4373.79L2913.18,4461.99L3001.38,4461.99ZM2997.28,4457.89L2917.28,4457.89L2917.28,4377.89L2997.28,4377.89L2997.28,4457.89ZM2979.78,4429.49C2979.78,4431.49 2979.58,4435.59 2979.58,4436.99C2979.58,4438.29 2981.78,4439.29 2983.28,4439.29C2983.98,4439.29 2984.58,4438.99 2984.58,4438.49C2984.58,4436.59 2984.38,4430.49 2984.38,4429.49L2984.38,4413.19C2984.38,4405.29 2980.78,4397.29 2972.08,4397.29C2966.98,4397.29 2961.78,4400.19 2958.98,4405.49C2958.08,4401.29 2955.08,4397.29 2948.58,4397.29C2943.38,4397.29 2938.18,4400.19 2935.58,4406.19C2935.58,4403.69 2935.68,4401.19 2935.68,4399.79C2935.68,4398.49 2933.48,4397.49 2931.98,4397.49C2931.28,4397.49 2930.68,4397.79 2930.68,4398.29C2930.68,4400.29 2930.88,4406.59 2930.88,4408.19L2930.88,4429.49C2930.88,4430.69 2930.78,4435.59 2930.78,4436.99C2930.78,4438.29 2932.98,4439.29 2934.48,4439.29C2935.18,4439.29 2935.78,4438.99 2935.78,4438.49C2935.78,4436.59 2935.48,4432.99 2935.48,4429.49C2935.58,4423.69 2935.48,4417.99 2936.88,4413.29C2939.68,4403.79 2945.28,4401.49 2948.58,4401.49C2953.78,4401.49 2955.28,4406.79 2955.28,4413.49L2955.28,4429.49C2955.28,4431.49 2955.08,4435.59 2955.08,4436.99C2955.08,4438.29 2957.28,4439.29 2958.78,4439.29C2959.48,4439.29 2960.08,4438.99 2960.08,4438.49C2960.08,4436.59 2959.78,4432.69 2959.78,4429.49L2959.78,4415.69C2959.78,4408.09 2966.48,4401.49 2971.78,4401.49C2976.88,4401.49 2979.78,4406.59 2979.78,4413.49L2979.78,4429.49Z" style="fill-rule:nonzero;"/>
        </g>
    </g>
</svg>
