<?xml version="1.0" encoding="UTF-8" standalone="no"?>
<!DOCTYPE svg PUBLIC "-//W3C//DTD SVG 1.1//EN" "http://www.w3.org/Graphics/SVG/1.1/DTD/svg11.dtd">
<svg width="100%" height="100%" viewBox="0 0 89 89" version="1.1" xmlns="http://www.w3.org/2000/svg" xmlns:xlink="http://www.w3.org/1999/xlink" xml:space="preserve" xmlns:serif="http://www.serif.com/" style="fill-rule:evenodd;clip-rule:evenodd;stroke-linejoin:round;stroke-miterlimit:2;">
    <g transform="matrix(1,0,0,1,-1740.22,-1638.66)">
        <g transform="matrix(1,0,0,1,-1072.97,-2735.12)">
            <path d="M2901.38,4461.99L2901.38,4373.79L2813.18,4373.79L2813.18,4461.99L2901.38,4461.99ZM2897.28,4457.89L2817.28,4457.89L2817.28,4377.89L2897.28,4377.89L2897.28,4457.89ZM2854.88,4438.59C2854.88,4439.79 2854.68,4444.69 2854.68,4445.99C2854.68,4447.39 2856.98,4448.39 2858.48,4448.39C2859.18,4448.39 2859.78,4448.09 2859.78,4447.59C2859.78,4445.59 2859.58,4439.59 2859.58,4438.59L2859.58,4397.29C2859.58,4395.29 2859.68,4391.09 2859.68,4389.79C2859.68,4388.39 2857.48,4387.49 2855.98,4387.49C2855.28,4387.49 2854.68,4387.69 2854.68,4388.29C2854.68,4390.19 2854.88,4395.69 2854.88,4397.29L2854.88,4438.59Z" style="fill-rule:nonzero;"/>
        </g>
    </g>
</svg>
