<?xml version="1.0" encoding="UTF-8" standalone="no"?>
<!DOCTYPE svg PUBLIC "-//W3C//DTD SVG 1.1//EN" "http://www.w3.org/Graphics/SVG/1.1/DTD/svg11.dtd">
<svg width="100%" height="100%" viewBox="0 0 89 89" version="1.1" xmlns="http://www.w3.org/2000/svg" xmlns:xlink="http://www.w3.org/1999/xlink" xml:space="preserve" xmlns:serif="http://www.serif.com/" style="fill-rule:evenodd;clip-rule:evenodd;stroke-linejoin:round;stroke-miterlimit:2;">
    <g transform="matrix(1,0,0,1,-2340.22,-138.665)">
        <g transform="matrix(1,0,0,1,-1072.97,-2735.12)">
            <path d="M3501.38,2961.99L3501.38,2873.79L3413.18,2873.79L3413.18,2961.99L3501.38,2961.99ZM3497.28,2957.89L3417.28,2957.89L3417.28,2877.89L3497.28,2877.89L3497.28,2957.89ZM3469.38,2932.89C3472.88,2932.89 3476.28,2933.09 3477.48,2933.09C3478.08,2933.09 3478.38,2932.69 3478.38,2931.99C3478.38,2930.69 3477.08,2928.39 3475.58,2928.39C3474.48,2928.39 3471.68,2928.79 3469.28,2928.89C3468.48,2928.89 3467.68,2928.99 3466.88,2928.99L3466.88,2912.29C3466.88,2910.29 3467.08,2906.39 3467.08,2905.09C3467.08,2903.69 3464.88,2902.79 3463.38,2902.79C3462.68,2902.79 3462.08,2903.09 3462.08,2903.59C3462.08,2905.49 3462.38,2910.69 3462.38,2912.29L3462.38,2929.19C3450.98,2929.69 3438.08,2930.09 3438.08,2930.09C3445.58,2920.19 3454.78,2906.49 3460.48,2898.09C3463.78,2893.39 3463.88,2893.09 3463.88,2892.59C3463.88,2890.99 3461.78,2888.69 3460.58,2888.69C3460.18,2888.69 3459.98,2888.79 3459.78,2889.19C3457.98,2893.69 3454.38,2899.99 3435.98,2925.79L3433.18,2929.49C3432.78,2930.09 3432.58,2930.59 3432.58,2931.19C3432.58,2932.99 3434.58,2934.69 3436.28,2934.69C3436.48,2934.69 3436.68,2934.69 3436.88,2934.59C3438.18,2934.29 3439.58,2934.09 3440.18,2934.09L3462.38,2933.19L3462.38,2937.59C3462.38,2938.79 3462.18,2943.39 3462.18,2944.69C3462.18,2946.09 3464.38,2946.99 3465.88,2946.99C3466.58,2946.99 3467.18,2946.69 3467.18,2946.19C3467.18,2944.29 3466.98,2941.09 3466.88,2937.79L3466.88,2932.99L3469.38,2932.89Z" style="fill-rule:nonzero;"/>
        </g>
    </g>
</svg>
