<?xml version="1.0" encoding="UTF-8" standalone="no"?>
<!DOCTYPE svg PUBLIC "-//W3C//DTD SVG 1.1//EN" "http://www.w3.org/Graphics/SVG/1.1/DTD/svg11.dtd">
<svg width="100%" height="100%" viewBox="0 0 89 89" version="1.1" xmlns="http://www.w3.org/2000/svg" xmlns:xlink="http://www.w3.org/1999/xlink" xml:space="preserve" xmlns:serif="http://www.serif.com/" style="fill-rule:evenodd;clip-rule:evenodd;stroke-linejoin:round;stroke-miterlimit:2;">
    <g transform="matrix(1,0,0,1,-1740.22,-588.665)">
        <g transform="matrix(1,0,0,1,-1072.97,-2735.12)">
            <path d="M2901.38,3411.99L2901.38,3323.79L2813.18,3323.79L2813.18,3411.99L2901.38,3411.99ZM2897.28,3407.89L2817.28,3407.89L2817.28,3327.89L2897.28,3327.89L2897.28,3407.89ZM2875.18,3363.69C2882.18,3358.39 2888.48,3351.29 2888.48,3349.19C2888.48,3348.29 2887.88,3347.69 2887.18,3347.69C2886.68,3347.69 2886.08,3347.89 2885.48,3348.59L2885.08,3348.99C2885.38,3348.49 2885.58,3347.89 2885.58,3347.49C2885.58,3347.19 2885.48,3346.89 2885.38,3346.69C2882.58,3342.39 2878.58,3338.79 2872.88,3338.79C2863.98,3338.79 2858.88,3345.09 2858.88,3352.19C2858.88,3357.49 2860.78,3360.89 2867.48,3364.49C2860.68,3369.49 2856.58,3374.99 2856.58,3382.29C2856.58,3390.89 2862.18,3397.49 2871.58,3397.49C2881.98,3397.49 2888.78,3391.09 2888.78,3381.19C2888.78,3373.39 2884.78,3368.29 2876.08,3364.09L2875.18,3363.69ZM2826.88,3396.49C2830.38,3395.49 2835.28,3395.49 2837.68,3395.49C2845.98,3395.49 2851.28,3395.89 2852.78,3396.09C2853.28,3396.09 2853.58,3395.69 2853.58,3394.99C2853.58,3393.59 2852.48,3391.39 2851.38,3391.39C2850.48,3391.39 2848.18,3391.49 2846.98,3391.49C2844.08,3391.49 2841.78,3391.39 2838.38,3391.39C2835.68,3391.39 2831.68,3391.59 2829.08,3391.89C2831.58,3386.49 2835.78,3378.39 2841.88,3371.99C2848.38,3365.19 2852.98,3359.49 2852.98,3352.09C2852.98,3344.29 2848.18,3338.69 2840.48,3338.69C2833.38,3338.69 2828.48,3342.79 2825.68,3348.69C2825.38,3349.09 2825.28,3349.59 2825.28,3350.09C2825.28,3350.99 2825.78,3351.89 2826.88,3352.89C2827.18,3353.29 2827.48,3353.39 2827.88,3353.39C2828.58,3353.39 2829.08,3352.59 2829.48,3351.49C2830.98,3346.69 2834.78,3342.89 2840.28,3342.89C2845.58,3342.89 2848.68,3347.09 2848.68,3352.09C2848.68,3357.39 2845.08,3362.39 2839.28,3368.59C2833.38,3374.89 2828.58,3383.59 2825.88,3389.39C2825.48,3390.19 2824.98,3390.89 2824.38,3391.79C2824.18,3392.09 2824.18,3392.49 2824.18,3392.99C2824.18,3394.59 2825.28,3396.49 2826.58,3396.49L2826.88,3396.49ZM2871.38,3366.49C2871.88,3366.69 2872.68,3366.99 2873.18,3367.29C2881.88,3371.39 2884.58,3375.69 2884.58,3381.59C2884.58,3388.49 2879.08,3393.19 2871.58,3393.19C2864.08,3393.19 2860.88,3387.59 2860.88,3382.09C2860.88,3376.29 2864.68,3371.59 2871.38,3366.49ZM2883.98,3350.19C2880.38,3354.19 2876.18,3358.29 2871.28,3361.69C2864.98,3358.59 2863.08,3356.39 2863.08,3352.19C2863.08,3347.49 2866.38,3342.89 2872.98,3342.89C2877.18,3342.89 2879.68,3345.39 2881.88,3349.29C2882.28,3350.09 2882.78,3350.39 2883.18,3350.39C2883.48,3350.39 2883.78,3350.29 2883.98,3350.19Z" style="fill-rule:nonzero;"/>
        </g>
    </g>
</svg>
