<?xml version="1.0" encoding="UTF-8" standalone="no"?>
<!DOCTYPE svg PUBLIC "-//W3C//DTD SVG 1.1//EN" "http://www.w3.org/Graphics/SVG/1.1/DTD/svg11.dtd">
<svg width="100%" height="100%" viewBox="0 0 89 89" version="1.1" xmlns="http://www.w3.org/2000/svg" xmlns:xlink="http://www.w3.org/1999/xlink" xml:space="preserve" xmlns:serif="http://www.serif.com/" style="fill-rule:evenodd;clip-rule:evenodd;stroke-linejoin:round;stroke-miterlimit:2;">
    <g transform="matrix(1,0,0,1,-1640.22,-1638.66)">
        <g transform="matrix(1,0,0,1,-1072.97,-2735.12)">
            <path d="M2801.38,4461.99L2801.38,4373.79L2713.18,4373.79L2713.18,4461.99L2801.38,4461.99ZM2797.28,4457.89L2717.28,4457.89L2717.28,4377.89L2797.28,4377.89L2797.28,4457.89ZM2743.38,4438.09C2743.38,4439.29 2743.18,4444.19 2743.18,4445.49C2743.18,4446.89 2745.38,4447.89 2746.88,4447.89C2747.68,4447.89 2748.18,4447.59 2748.18,4447.09C2748.18,4445.09 2747.98,4439.09 2747.98,4438.09L2747.98,4426.59L2750.88,4424.59C2755.98,4429.29 2765.08,4439.29 2769.68,4444.09C2770.88,4445.39 2772.68,4446.79 2774.08,4447.89C2774.28,4448.09 2774.58,4448.09 2774.88,4448.09C2776.38,4448.09 2778.68,4446.39 2778.68,4445.39C2778.68,4445.09 2778.48,4444.89 2778.18,4444.69C2776.38,4443.89 2774.58,4442.69 2773.28,4441.39C2767.78,4435.89 2759.38,4426.89 2754.58,4422.09L2767.68,4412.79C2769.08,4411.79 2771.38,4410.39 2773.78,4408.69C2774.08,4408.49 2774.18,4408.29 2774.18,4408.09C2774.18,4407.19 2771.68,4405.99 2769.88,4405.99C2769.28,4405.99 2768.68,4406.19 2768.38,4406.49C2767.78,4407.19 2766.08,4408.69 2764.68,4409.79L2747.98,4421.49L2747.98,4396.89C2747.98,4394.89 2748.08,4390.69 2748.08,4389.39C2748.08,4387.99 2745.88,4386.99 2744.38,4386.99C2743.58,4386.99 2743.08,4387.29 2743.08,4387.79C2743.08,4389.79 2743.38,4395.29 2743.38,4396.89L2743.38,4438.09Z" style="fill-rule:nonzero;"/>
        </g>
    </g>
</svg>
