<?xml version="1.0" encoding="UTF-8" standalone="no"?>
<!DOCTYPE svg PUBLIC "-//W3C//DTD SVG 1.1//EN" "http://www.w3.org/Graphics/SVG/1.1/DTD/svg11.dtd">
<svg width="100%" height="100%" viewBox="0 0 89 89" version="1.1" xmlns="http://www.w3.org/2000/svg" xmlns:xlink="http://www.w3.org/1999/xlink" xml:space="preserve" xmlns:serif="http://www.serif.com/" style="fill-rule:evenodd;clip-rule:evenodd;stroke-linejoin:round;stroke-miterlimit:2;">
    <g transform="matrix(1,0,0,1,-1940.22,-1638.66)">
        <g transform="matrix(1,0,0,1,-1072.97,-2735.12)">
            <path d="M3101.38,4461.99L3101.38,4373.79L3013.18,4373.79L3013.18,4461.99L3101.38,4461.99ZM3097.28,4457.89L3017.28,4457.89L3017.28,4377.89L3097.28,4377.89L3097.28,4457.89ZM3069.58,4429.29C3069.58,4431.29 3069.38,4435.49 3069.38,4436.79C3069.38,4438.19 3071.58,4439.09 3073.08,4439.09C3073.78,4439.09 3074.38,4438.89 3074.38,4438.29C3074.38,4436.39 3074.18,4430.39 3074.18,4429.29L3074.18,4412.89C3074.18,4406.09 3072.58,4397.09 3061.78,4397.09C3055.48,4397.09 3048.18,4400.89 3044.78,4407.79C3044.78,4405.39 3044.88,4400.99 3044.88,4399.69C3044.88,4398.29 3042.68,4397.29 3041.18,4397.29C3040.38,4397.29 3039.88,4397.59 3039.88,4398.09C3039.88,4400.09 3040.18,4405.59 3040.18,4407.19L3040.18,4429.29C3040.18,4430.49 3039.98,4435.49 3039.98,4436.79C3039.98,4438.19 3042.18,4439.09 3043.68,4439.09C3044.38,4439.09 3044.98,4438.89 3044.98,4438.29C3044.98,4436.69 3044.78,4433.89 3044.78,4430.79L3044.78,4429.29C3044.78,4424.39 3044.78,4418.29 3046.08,4413.79C3048.68,4405.19 3055.78,4401.49 3061.78,4401.49C3068.08,4401.49 3069.58,4406.59 3069.58,4413.29L3069.58,4429.29Z" style="fill-rule:nonzero;"/>
        </g>
    </g>
</svg>
