<?xml version="1.0" encoding="UTF-8" standalone="no"?>
<!DOCTYPE svg PUBLIC "-//W3C//DTD SVG 1.1//EN" "http://www.w3.org/Graphics/SVG/1.1/DTD/svg11.dtd">
<svg width="100%" height="100%" viewBox="0 0 89 89" version="1.1" xmlns="http://www.w3.org/2000/svg" xmlns:xlink="http://www.w3.org/1999/xlink" xml:space="preserve" xmlns:serif="http://www.serif.com/" style="fill-rule:evenodd;clip-rule:evenodd;stroke-linejoin:round;stroke-miterlimit:2;">
    <g transform="matrix(1,0,0,1,-1540.22,-588.665)">
        <g transform="matrix(1,0,0,1,-1072.97,-2735.12)">
            <path d="M2701.38,3411.99L2701.38,3323.79L2613.18,3323.79L2613.18,3411.99L2701.38,3411.99ZM2697.28,3407.89L2617.28,3407.89L2617.28,3327.89L2697.28,3327.89L2697.28,3407.89ZM2663.68,3367.49C2667.98,3357.89 2672.48,3349.09 2677.78,3342.09C2678.08,3341.69 2678.58,3340.99 2678.58,3340.39C2678.58,3339.49 2677.58,3338.59 2675.48,3338.59C2674.68,3338.59 2673.88,3338.89 2673.58,3339.59C2673.28,3339.99 2672.68,3341.09 2672.48,3341.29C2669.48,3346.09 2666.38,3352.09 2662.98,3359.29C2659.48,3366.79 2657.78,3373.59 2657.78,3380.39C2657.78,3389.79 2664.68,3397.49 2673.98,3397.49C2684.08,3397.49 2690.28,3389.09 2690.28,3378.19C2690.28,3368.39 2684.18,3361.19 2675.28,3361.19C2670.28,3361.19 2666.28,3363.59 2663.68,3367.49ZM2673.98,3393.39C2666.98,3393.39 2661.98,3387.69 2661.98,3380.29C2661.98,3372.29 2667.18,3365.29 2675.18,3365.29C2681.88,3365.29 2685.88,3371.49 2685.88,3378.39C2685.88,3387.19 2680.88,3393.39 2673.98,3393.39ZM2627.28,3396.49C2630.68,3395.69 2633.88,3395.49 2638.68,3395.49C2642.78,3395.49 2648.68,3395.59 2654.58,3396.09C2655.18,3396.09 2655.38,3395.69 2655.38,3394.99C2655.38,3393.59 2654.28,3391.39 2653.18,3391.39C2652.18,3391.39 2649.68,3391.49 2648.48,3391.49C2645.48,3391.49 2643.08,3391.39 2639.48,3391.39C2636.58,3391.39 2632.38,3391.59 2629.68,3391.89C2632.28,3386.49 2636.68,3378.39 2643.18,3371.99C2649.98,3365.19 2654.88,3359.49 2654.88,3352.09C2654.88,3344.29 2649.68,3338.69 2641.68,3338.69C2634.18,3338.69 2628.98,3342.79 2626.08,3348.69C2625.78,3349.09 2625.68,3349.59 2625.68,3350.09C2625.68,3351.39 2627.38,3353.39 2628.38,3353.39C2629.08,3353.39 2629.68,3352.59 2630.08,3351.49C2631.68,3346.69 2635.68,3342.89 2641.48,3342.89C2647.08,3342.89 2650.28,3347.09 2650.28,3352.09C2650.28,3357.39 2646.48,3362.39 2640.38,3368.59C2634.28,3374.89 2629.08,3383.59 2626.28,3389.39C2625.88,3390.19 2625.38,3390.89 2624.78,3391.79C2624.48,3392.09 2624.48,3392.49 2624.48,3392.99C2624.48,3394.59 2625.68,3396.49 2626.98,3396.49L2627.28,3396.49Z" style="fill-rule:nonzero;"/>
        </g>
    </g>
</svg>
