<?xml version="1.0" encoding="UTF-8" standalone="no"?>
<!DOCTYPE svg PUBLIC "-//W3C//DTD SVG 1.1//EN" "http://www.w3.org/Graphics/SVG/1.1/DTD/svg11.dtd">
<svg width="100%" height="100%" viewBox="0 0 89 89" version="1.1" xmlns="http://www.w3.org/2000/svg" xmlns:xlink="http://www.w3.org/1999/xlink" xml:space="preserve" xmlns:serif="http://www.serif.com/" style="fill-rule:evenodd;clip-rule:evenodd;stroke-linejoin:round;stroke-miterlimit:2;">
    <g transform="matrix(1,0,0,1,-1840.22,-738.665)">
        <g transform="matrix(1,0,0,1,-1072.97,-2735.12)">
            <path d="M3001.38,3561.99L3001.38,3473.79L2913.18,3473.79L2913.18,3561.99L3001.38,3561.99ZM2997.28,3557.89L2917.28,3557.89L2917.28,3477.89L2997.28,3477.89L2997.28,3557.89ZM2954.58,3533.19C2956.58,3533.19 2959.28,3533.39 2960.28,3533.39C2960.78,3533.39 2960.98,3532.89 2960.98,3532.29C2960.98,3530.89 2959.88,3528.59 2958.68,3528.59C2957.78,3528.59 2955.68,3528.99 2954.48,3529.09L2953.18,3529.19L2953.18,3512.49C2953.18,3510.49 2953.38,3506.59 2953.38,3505.29C2953.38,3503.89 2951.38,3502.99 2950.08,3502.99C2949.28,3502.99 2948.78,3503.29 2948.78,3503.79C2948.78,3505.69 2948.98,3510.89 2948.98,3512.49L2948.98,3529.39L2931.78,3529.79C2936.98,3520.19 2943.48,3507.19 2947.58,3498.29C2948.18,3496.99 2949.28,3495.09 2950.18,3493.79C2950.28,3493.59 2950.28,3493.29 2950.28,3492.99C2950.28,3491.29 2948.28,3488.89 2947.08,3488.89C2946.68,3488.89 2946.48,3488.99 2946.38,3489.39C2941.98,3501.79 2931.28,3521.89 2929.38,3525.49C2928.78,3526.59 2927.78,3527.79 2926.98,3529.19C2926.58,3529.69 2926.48,3530.29 2926.48,3530.79C2926.48,3532.69 2928.18,3534.49 2929.68,3534.49C2929.78,3534.49 2929.88,3534.39 2930.08,3534.39C2931.18,3534.09 2932.28,3533.89 2932.78,3533.89L2948.98,3533.39L2948.98,3537.79C2948.98,3538.99 2948.78,3543.59 2948.78,3544.89C2948.78,3546.29 2950.88,3547.19 2952.28,3547.19C2952.98,3547.19 2953.58,3546.89 2953.58,3546.39C2953.58,3544.49 2953.18,3541.29 2953.18,3537.99L2953.18,3533.19L2954.58,3533.19ZM2976.58,3537.89C2976.58,3539.59 2976.38,3543.69 2976.38,3544.99C2976.38,3546.29 2978.38,3547.19 2979.88,3547.19C2980.48,3547.19 2980.98,3546.99 2980.98,3546.39C2980.98,3544.29 2980.78,3539.59 2980.78,3537.39L2980.78,3497.09C2980.78,3494.79 2981.28,3493.39 2981.28,3492.09C2981.28,3490.59 2979.68,3489.09 2978.58,3489.09C2977.48,3489.09 2975.98,3491.39 2975.38,3491.89C2973.18,3493.79 2969.78,3495.89 2966.08,3497.49C2965.58,3497.69 2965.38,3497.99 2965.38,3498.29C2965.38,3499.19 2966.98,3500.09 2968.28,3500.09C2968.58,3500.09 2968.78,3500.09 2968.98,3499.99C2971.48,3499.19 2974.48,3497.89 2976.58,3496.49L2976.58,3537.89Z" style="fill-rule:nonzero;"/>
        </g>
    </g>
</svg>
