<?xml version="1.0" encoding="UTF-8" standalone="no"?>
<!DOCTYPE svg PUBLIC "-//W3C//DTD SVG 1.1//EN" "http://www.w3.org/Graphics/SVG/1.1/DTD/svg11.dtd">
<svg width="100%" height="100%" viewBox="0 0 89 89" version="1.1" xmlns="http://www.w3.org/2000/svg" xmlns:xlink="http://www.w3.org/1999/xlink" xml:space="preserve" xmlns:serif="http://www.serif.com/" style="fill-rule:evenodd;clip-rule:evenodd;stroke-linejoin:round;stroke-miterlimit:2;">
    <g transform="matrix(1,0,0,1,-1740.22,-438.665)">
        <g transform="matrix(1,0,0,1,-1072.97,-2735.12)">
            <path d="M2901.38,3261.99L2901.38,3173.79L2813.18,3173.79L2813.18,3261.99L2901.38,3261.99ZM2897.28,3257.89L2817.28,3257.89L2817.28,3177.89L2897.28,3177.89L2897.28,3257.89ZM2859.78,3217.69C2862.98,3210.49 2866.68,3202.09 2874.48,3192.09C2874.68,3191.69 2875.28,3190.99 2875.28,3190.39C2875.28,3189.89 2874.98,3189.39 2873.88,3188.99C2873.48,3188.79 2872.68,3188.59 2872.08,3188.59C2871.28,3188.59 2870.58,3188.89 2870.18,3189.59C2869.88,3189.99 2869.28,3191.09 2869.08,3191.29C2862.58,3202.09 2853.48,3217.39 2853.48,3230.39C2853.48,3239.79 2859.78,3247.49 2870.18,3247.49C2881.38,3247.49 2886.88,3239.09 2886.88,3228.19C2886.88,3218.39 2880.68,3211.19 2871.48,3211.19C2866.48,3211.19 2862.48,3213.49 2859.78,3217.69ZM2870.18,3243.39C2862.38,3243.39 2857.78,3237.69 2857.78,3230.29C2857.78,3222.29 2863.08,3215.29 2871.38,3215.29C2878.18,3215.29 2882.58,3221.49 2882.58,3228.39C2882.58,3237.19 2877.88,3243.39 2870.18,3243.39ZM2836.18,3237.89C2836.18,3239.59 2835.98,3243.69 2835.98,3244.99C2835.98,3246.29 2837.98,3247.19 2839.38,3247.19C2840.08,3247.19 2840.58,3246.99 2840.58,3246.39C2840.48,3244.29 2840.38,3239.59 2840.38,3237.39L2840.38,3197.09C2840.38,3194.79 2840.88,3193.39 2840.88,3192.09C2840.88,3190.59 2839.28,3189.09 2838.18,3189.09C2837.08,3189.09 2835.58,3191.39 2834.98,3191.89C2832.78,3193.79 2829.28,3195.89 2825.68,3197.49C2825.18,3197.69 2824.98,3197.99 2824.98,3198.29C2824.98,3199.19 2826.58,3200.09 2827.88,3200.09C2828.18,3200.09 2828.38,3200.09 2828.58,3199.99C2831.08,3199.19 2834.08,3197.89 2836.18,3196.49L2836.18,3237.89Z" style="fill-rule:nonzero;"/>
        </g>
    </g>
</svg>
