<?xml version="1.0" encoding="UTF-8" standalone="no"?>
<!DOCTYPE svg PUBLIC "-//W3C//DTD SVG 1.1//EN" "http://www.w3.org/Graphics/SVG/1.1/DTD/svg11.dtd">
<svg width="100%" height="100%" viewBox="0 0 89 89" version="1.1" xmlns="http://www.w3.org/2000/svg" xmlns:xlink="http://www.w3.org/1999/xlink" xml:space="preserve" xmlns:serif="http://www.serif.com/" style="fill-rule:evenodd;clip-rule:evenodd;stroke-linejoin:round;stroke-miterlimit:2;">
    <g transform="matrix(1,0,0,1,-1540.22,-438.665)">
        <g transform="matrix(1,0,0,1,-1072.97,-2735.12)">
            <path d="M2701.38,3261.99L2701.38,3173.79L2613.18,3173.79L2613.18,3261.99L2701.38,3261.99ZM2697.28,3257.89L2617.28,3257.89L2617.28,3177.89L2697.28,3177.89L2697.28,3257.89ZM2680.38,3233.09C2680.88,3233.09 2681.48,3232.99 2681.98,3232.99C2684.18,3232.99 2686.18,3233.29 2686.88,3233.29C2687.48,3233.29 2687.68,3232.89 2687.68,3232.19C2687.68,3230.79 2686.58,3228.59 2685.38,3228.59C2684.48,3228.59 2682.18,3228.99 2680.28,3229.09L2678.58,3229.19L2678.58,3212.49C2678.58,3210.49 2678.68,3206.59 2678.68,3205.29C2678.68,3203.89 2676.68,3202.99 2675.38,3202.99C2674.68,3202.99 2674.08,3203.29 2674.08,3203.79C2674.08,3205.69 2674.28,3210.89 2674.28,3212.49L2674.28,3229.39L2655.98,3230.29C2661.88,3220.39 2669.18,3206.79 2673.68,3198.29C2674.48,3196.79 2675.08,3195.59 2676.18,3193.79C2676.28,3193.59 2676.38,3193.29 2676.38,3192.99C2676.38,3191.29 2674.28,3188.89 2673.08,3188.89C2672.78,3188.89 2672.58,3188.99 2672.38,3189.39C2671.38,3192.89 2670.38,3196.09 2653.78,3225.99C2653.18,3227.09 2652.18,3228.29 2651.38,3229.69C2650.98,3230.19 2650.88,3230.79 2650.88,3231.29C2650.88,3233.19 2652.68,3234.99 2654.08,3234.99C2654.28,3234.99 2654.38,3234.89 2654.48,3234.89C2655.58,3234.59 2656.68,3234.39 2657.28,3234.39L2674.28,3233.39L2674.28,3237.79C2674.28,3238.99 2674.08,3243.59 2674.08,3244.89C2674.08,3246.29 2676.18,3247.19 2677.68,3247.19C2678.38,3247.19 2678.88,3246.89 2678.88,3246.39C2678.88,3244.49 2678.58,3241.29 2678.58,3237.99L2678.58,3233.19L2680.38,3233.09ZM2640.58,3246.39C2640.58,3244.29 2640.48,3239.59 2640.48,3237.39L2640.48,3197.09C2640.48,3194.79 2640.88,3193.39 2640.88,3192.09C2640.88,3190.59 2639.28,3189.09 2638.18,3189.09C2637.08,3189.09 2635.58,3191.39 2634.98,3191.89C2632.78,3193.79 2629.38,3195.89 2625.78,3197.49C2625.18,3197.69 2624.98,3197.99 2624.98,3198.29C2624.98,3199.19 2626.68,3200.09 2627.88,3200.09C2628.18,3200.09 2628.48,3200.09 2628.58,3199.99C2631.18,3199.19 2634.08,3197.89 2636.18,3196.49L2636.18,3237.89C2636.18,3239.59 2635.98,3243.69 2635.98,3244.99C2635.98,3246.29 2637.98,3247.19 2639.48,3247.19C2640.08,3247.19 2640.58,3246.99 2640.58,3246.49L2640.58,3246.39Z" style="fill-rule:nonzero;"/>
        </g>
    </g>
</svg>
