<?xml version="1.0" encoding="UTF-8" standalone="no"?>
<!DOCTYPE svg PUBLIC "-//W3C//DTD SVG 1.1//EN" "http://www.w3.org/Graphics/SVG/1.1/DTD/svg11.dtd">
<svg width="100%" height="100%" viewBox="0 0 89 89" version="1.1" xmlns="http://www.w3.org/2000/svg" xmlns:xlink="http://www.w3.org/1999/xlink" xml:space="preserve" xmlns:serif="http://www.serif.com/" style="fill-rule:evenodd;clip-rule:evenodd;stroke-linejoin:round;stroke-miterlimit:2;">
    <g transform="matrix(1,0,0,1,-2440.22,-1638.66)">
        <g transform="matrix(1,0,0,1,-1072.97,-2735.12)">
            <path d="M3601.38,4461.99L3601.38,4373.79L3513.18,4373.79L3513.18,4461.99L3601.38,4461.99ZM3597.28,4457.89L3517.28,4457.89L3517.28,4377.89L3597.28,4377.89L3597.28,4457.89ZM3559.88,4418.99C3566.28,4420.59 3568.48,4423.09 3568.48,4427.19C3568.48,4431.19 3563.88,4434.99 3556.98,4434.99C3548.28,4434.99 3545.48,4431.99 3543.58,4427.59C3543.38,4427.19 3543.18,4426.99 3542.78,4426.99C3541.68,4426.99 3539.98,4428.99 3539.98,4430.49C3539.98,4430.79 3540.08,4431.09 3540.18,4431.39C3543.48,4437.19 3550.18,4439.29 3556.98,4439.29C3566.88,4439.29 3573.08,4433.79 3573.08,4426.99C3573.08,4420.09 3568.58,4416.79 3561.38,4415.09L3553.18,4413.09C3548.38,4411.99 3546.58,4410.19 3546.58,4407.79C3546.58,4403.79 3550.78,4400.79 3557.48,4400.79C3558.58,4400.79 3564.98,4400.79 3567.68,4405.09C3568.08,4405.69 3568.38,4406.09 3568.78,4406.09C3569.98,4406.09 3571.18,4404.49 3571.18,4402.89C3571.18,4402.59 3571.18,4402.29 3570.98,4402.09C3568.68,4399.19 3563.88,4396.79 3557.48,4396.79C3549.08,4396.79 3542.08,4401.19 3542.08,4407.69C3542.08,4412.79 3545.18,4415.59 3551.38,4416.99L3559.88,4418.99Z" style="fill-rule:nonzero;"/>
        </g>
    </g>
</svg>
