<?xml version="1.0" encoding="UTF-8" standalone="no"?>
<!DOCTYPE svg PUBLIC "-//W3C//DTD SVG 1.1//EN" "http://www.w3.org/Graphics/SVG/1.1/DTD/svg11.dtd">
<svg width="100%" height="100%" viewBox="0 0 89 89" version="1.1" xmlns="http://www.w3.org/2000/svg" xmlns:xlink="http://www.w3.org/1999/xlink" xml:space="preserve" xmlns:serif="http://www.serif.com/" style="fill-rule:evenodd;clip-rule:evenodd;stroke-linejoin:round;stroke-miterlimit:2;">
    <g transform="matrix(1,0,0,1,-1840.22,-1188.66)">
        <g transform="matrix(1,0,0,1,-1072.97,-2735.12)">
            <path d="M3001.38,4011.99L3001.38,3923.79L2913.18,3923.79L2913.18,4011.99L3001.38,4011.99ZM2997.28,4007.89L2917.28,4007.89L2917.28,3927.89L2997.28,3927.89L2997.28,4007.89ZM2955.38,3942.89C2955.38,3941.49 2953.48,3939.69 2952.38,3939.49L2952.18,3939.49C2951.18,3939.49 2950.18,3939.99 2948.98,3940.09L2928.58,3941.59L2927.58,3941.59C2926.28,3941.59 2925.58,3941.49 2924.68,3941.49C2924.38,3941.49 2924.28,3941.69 2924.28,3941.99C2924.28,3942.39 2925.28,3946.09 2928.08,3946.09C2928.68,3946.09 2929.48,3945.99 2930.18,3945.89L2949.88,3944.09C2942.08,3962.39 2935.38,3981.99 2931.88,3993.39C2931.78,3993.89 2931.38,3994.59 2931.38,3995.29C2931.38,3995.99 2931.78,3996.69 2933.28,3996.89C2933.68,3996.89 2933.98,3996.99 2934.28,3996.99C2935.58,3996.99 2936.18,3996.69 2936.38,3995.79C2939.38,3981.29 2951.08,3952.69 2953.58,3946.99C2954.08,3945.99 2955.18,3944.49 2955.38,3943.19L2955.38,3942.89ZM2990.78,3942.89C2990.78,3941.49 2988.88,3939.69 2987.68,3939.49L2987.48,3939.49C2986.58,3939.49 2985.48,3939.99 2984.38,3940.09L2963.98,3941.59L2962.88,3941.59C2961.68,3941.59 2960.88,3941.49 2960.08,3941.49C2959.78,3941.49 2959.68,3941.69 2959.68,3941.99C2959.68,3943.09 2961.28,3946.09 2963.38,3946.09C2964.08,3946.09 2964.78,3945.99 2965.58,3945.89L2985.18,3944.09C2979.18,3958.49 2973.38,3973.99 2969.08,3987.49C2968.58,3988.89 2967.98,3991.09 2967.18,3993.39C2967.08,3993.89 2966.68,3994.59 2966.68,3995.29C2966.68,3995.99 2967.08,3996.69 2968.58,3996.89C2968.98,3996.89 2969.38,3996.99 2969.68,3996.99C2970.88,3996.99 2971.58,3996.69 2971.78,3995.79C2973.18,3987.79 2981.18,3964.59 2988.88,3946.99C2989.38,3945.99 2990.58,3944.49 2990.78,3943.19L2990.78,3942.89Z" style="fill-rule:nonzero;"/>
        </g>
    </g>
</svg>
