<?xml version="1.0" encoding="UTF-8" standalone="no"?>
<!DOCTYPE svg PUBLIC "-//W3C//DTD SVG 1.1//EN" "http://www.w3.org/Graphics/SVG/1.1/DTD/svg11.dtd">
<svg width="100%" height="100%" viewBox="0 0 88 88" version="1.1" xmlns="http://www.w3.org/2000/svg" xmlns:xlink="http://www.w3.org/1999/xlink" xml:space="preserve" xmlns:serif="http://www.serif.com/" style="fill-rule:evenodd;clip-rule:evenodd;stroke-linejoin:round;stroke-miterlimit:2;">
    <g transform="matrix(1,0,0,1,-1972.08,-5420.97)">
        <g transform="matrix(1,0,0,1,-504.034,-1124.47)">
            <path d="M2563.51,6632.54L2563.51,6545.44L2476.11,6545.44L2476.11,6632.54L2563.51,6632.54ZM2559.01,6628.04L2480.61,6628.04L2480.61,6549.94L2559.01,6549.94L2559.01,6628.04ZM2548.21,6617.34L2548.21,6560.74L2491.51,6560.74L2491.51,6617.34L2548.21,6617.34ZM2543.71,6612.84L2496.01,6612.84L2496.01,6565.24L2543.71,6565.24L2543.71,6612.84ZM2533.71,6602.84L2533.71,6575.24L2506.01,6575.24L2506.01,6602.84L2533.71,6602.84ZM2529.21,6598.34L2510.51,6598.34L2510.51,6579.74L2529.21,6579.74L2529.21,6598.34Z" style="fill-rule:nonzero;"/>
        </g>
    </g>
</svg>
