<?xml version="1.0" encoding="UTF-8" standalone="no"?>
<!DOCTYPE svg PUBLIC "-//W3C//DTD SVG 1.1//EN" "http://www.w3.org/Graphics/SVG/1.1/DTD/svg11.dtd">
<svg width="100%" height="100%" viewBox="0 0 89 89" version="1.1" xmlns="http://www.w3.org/2000/svg" xmlns:xlink="http://www.w3.org/1999/xlink" xml:space="preserve" xmlns:serif="http://www.serif.com/" style="fill-rule:evenodd;clip-rule:evenodd;stroke-linejoin:round;stroke-miterlimit:2;">
    <g transform="matrix(1,0,0,1,-2140.22,-1338.66)">
        <g transform="matrix(1,0,0,1,-1072.97,-2735.12)">
            <path d="M3301.38,4161.99L3301.38,4073.79L3213.18,4073.79L3213.18,4161.99L3301.38,4161.99ZM3297.28,4157.89L3217.28,4157.89L3217.28,4077.89L3297.28,4077.89L3297.28,4157.89ZM3245.68,4147.09C3247.38,4146.99 3248.38,4146.49 3248.48,4145.39C3249.38,4134.99 3253.18,4112.09 3256.18,4096.99L3257.08,4093.99L3257.08,4093.69C3257.08,4092.49 3255.68,4090.99 3254.18,4090.99C3252.68,4090.99 3252.98,4093.49 3252.48,4095.69C3251.58,4093.39 3248.28,4088.69 3241.58,4088.69C3231.98,4088.69 3224.68,4099.49 3224.68,4110.39C3224.68,4119.59 3229.18,4124.89 3235.68,4124.89C3240.68,4124.89 3245.98,4121.19 3248.98,4115.49C3245.18,4138.79 3244.88,4140.09 3244.28,4143.79C3244.18,4144.49 3243.98,4145.19 3243.98,4145.79C3243.98,4146.59 3244.28,4147.09 3245.48,4147.09L3245.68,4147.09ZM3262.58,4146.49C3265.58,4145.69 3269.08,4145.49 3273.98,4145.49C3282.68,4145.49 3287.68,4145.89 3289.78,4146.09C3290.38,4146.09 3290.68,4145.69 3290.68,4144.99C3290.68,4143.59 3289.48,4141.39 3288.38,4141.39C3287.48,4141.39 3284.98,4141.49 3283.68,4141.49C3280.68,4141.49 3278.28,4141.39 3274.68,4141.39C3271.88,4141.39 3267.68,4141.59 3264.88,4141.89C3267.48,4136.49 3271.98,4128.39 3278.38,4121.99C3285.28,4115.19 3290.08,4109.49 3290.08,4102.09C3290.08,4094.29 3284.98,4088.69 3276.88,4088.69C3269.38,4088.69 3264.28,4092.79 3261.28,4098.69C3260.98,4099.09 3260.98,4099.59 3260.98,4100.09C3260.98,4100.99 3261.38,4101.89 3262.58,4102.89C3262.88,4103.29 3263.18,4103.39 3263.58,4103.39C3264.38,4103.39 3264.88,4102.59 3265.28,4101.49C3266.88,4096.69 3270.88,4092.89 3276.68,4092.89C3282.28,4092.89 3285.58,4097.09 3285.58,4102.09C3285.58,4107.39 3281.78,4112.39 3275.68,4118.59C3269.48,4124.89 3264.38,4133.59 3261.48,4139.39C3261.08,4140.19 3260.58,4140.89 3259.98,4141.79C3259.78,4142.09 3259.68,4142.49 3259.68,4142.99C3259.68,4144.59 3260.98,4146.49 3262.28,4146.49L3262.58,4146.49ZM3251.18,4103.19C3250.58,4104.99 3249.88,4107.39 3249.18,4108.89C3245.58,4115.89 3241.78,4120.49 3235.58,4120.49C3231.08,4120.49 3228.78,4116.99 3228.78,4110.09C3228.78,4102.69 3233.48,4092.89 3241.88,4092.89C3246.88,4092.89 3248.98,4096.79 3249.88,4098.99C3250.18,4099.69 3250.48,4099.99 3250.88,4099.99C3251.18,4099.99 3251.58,4099.69 3251.88,4099.29L3251.18,4103.19Z" style="fill-rule:nonzero;"/>
        </g>
    </g>
</svg>
