<?xml version="1.0" encoding="UTF-8" standalone="no"?>
<!DOCTYPE svg PUBLIC "-//W3C//DTD SVG 1.1//EN" "http://www.w3.org/Graphics/SVG/1.1/DTD/svg11.dtd">
<svg width="100%" height="100%" viewBox="0 0 89 89" version="1.1" xmlns="http://www.w3.org/2000/svg" xmlns:xlink="http://www.w3.org/1999/xlink" xml:space="preserve" xmlns:serif="http://www.serif.com/" style="fill-rule:evenodd;clip-rule:evenodd;stroke-linejoin:round;stroke-miterlimit:2;">
    <g transform="matrix(1,0,0,1,-2640.22,-1038.66)">
        <g transform="matrix(1,0,0,1,-1072.97,-2735.12)">
            <path d="M3801.38,3861.99L3801.38,3773.79L3713.18,3773.79L3713.18,3861.99L3801.38,3861.99ZM3797.28,3857.89L3717.28,3857.89L3717.28,3777.89L3797.28,3777.89L3797.28,3857.89ZM3776.28,3814.69C3782.18,3812.89 3786.68,3807.89 3786.68,3801.09C3786.68,3793.29 3781.68,3788.69 3774.28,3788.69C3768.48,3788.69 3763.98,3791.29 3760.38,3795.89C3759.98,3796.29 3759.78,3796.79 3759.78,3797.49C3759.78,3798.29 3759.98,3799.19 3760.88,3800.29C3761.18,3800.79 3761.48,3800.89 3761.78,3800.89C3762.48,3800.89 3762.98,3799.89 3763.28,3799.59C3766.68,3794.99 3770.18,3792.89 3774.38,3792.89C3779.58,3792.89 3782.68,3796.19 3782.68,3801.59C3782.68,3808.29 3775.28,3813.29 3767.28,3813.89C3766.78,3813.99 3766.48,3814.49 3766.48,3815.09C3766.48,3816.39 3767.48,3818.29 3768.68,3818.29C3768.78,3818.29 3768.88,3818.19 3769.08,3818.19C3769.78,3817.99 3771.38,3817.69 3772.68,3817.59C3773.28,3817.49 3773.78,3817.49 3774.28,3817.49C3780.38,3817.49 3784.68,3822.09 3784.68,3828.69C3784.68,3836.09 3780.98,3843.19 3771.68,3843.19C3766.88,3843.19 3763.88,3840.39 3760.98,3836.19C3760.78,3835.89 3760.58,3835.69 3760.38,3835.69C3759.28,3835.69 3758.38,3837.79 3758.38,3839.39C3758.38,3840.09 3758.48,3840.59 3758.78,3840.99C3762.48,3845.19 3766.58,3847.49 3771.68,3847.49C3783.88,3847.49 3788.78,3838.79 3788.78,3828.59C3788.78,3819.99 3783.38,3814.69 3777.18,3814.69L3776.28,3814.69ZM3754.08,3792.89C3754.08,3791.49 3752.28,3789.69 3751.18,3789.49L3751.08,3789.49C3750.08,3789.49 3749.18,3789.99 3748.08,3790.09L3728.68,3791.59L3727.68,3791.59C3726.48,3791.59 3725.78,3791.49 3724.98,3791.49C3724.68,3791.49 3724.58,3791.69 3724.58,3791.99C3724.58,3792.49 3725.58,3796.09 3728.08,3796.09C3728.78,3796.09 3729.48,3795.99 3730.18,3795.89L3748.88,3794.09C3743.08,3808.49 3737.58,3823.99 3733.48,3837.49C3733.08,3838.89 3732.48,3841.09 3731.68,3843.39C3731.58,3843.89 3731.28,3844.59 3731.28,3845.29C3731.28,3845.99 3731.58,3846.69 3733.08,3846.89C3733.48,3846.89 3733.78,3846.99 3734.08,3846.99C3735.28,3846.99 3735.88,3846.69 3736.08,3845.79C3737.28,3838.69 3743.18,3819.19 3752.38,3796.99C3752.78,3795.99 3753.88,3794.49 3754.08,3793.19L3754.08,3792.89Z" style="fill-rule:nonzero;"/>
        </g>
    </g>
</svg>
