<?xml version="1.0" encoding="UTF-8" standalone="no"?>
<!DOCTYPE svg PUBLIC "-//W3C//DTD SVG 1.1//EN" "http://www.w3.org/Graphics/SVG/1.1/DTD/svg11.dtd">
<svg width="100%" height="100%" viewBox="0 0 89 89" version="1.1" xmlns="http://www.w3.org/2000/svg" xmlns:xlink="http://www.w3.org/1999/xlink" xml:space="preserve" xmlns:serif="http://www.serif.com/" style="fill-rule:evenodd;clip-rule:evenodd;stroke-linejoin:round;stroke-miterlimit:2;">
    <g transform="matrix(1,0,0,1,-1940.22,-1788.66)">
        <g transform="matrix(1,0,0,1,-1072.97,-2735.12)">
            <path d="M3101.38,4611.99L3101.38,4523.79L3013.18,4523.79L3013.18,4611.99L3101.38,4611.99ZM3097.28,4607.89L3017.28,4607.89L3017.28,4527.89L3097.28,4527.89L3097.28,4607.89ZM3071.08,4583.99C3069.28,4584.09 3067.08,4584.19 3065.78,4584.19C3062.88,4584.09 3057.58,4584.09 3054.38,4584.09C3051.98,4584.09 3047.08,4584.29 3044.98,4584.49C3051.98,4574.99 3061.98,4562.49 3069.58,4554.49C3070.28,4553.69 3071.88,4553.09 3071.88,4552.09C3071.88,4550.69 3069.98,4547.99 3068.28,4547.79L3067.88,4547.79C3066.88,4547.79 3065.58,4548.29 3064.88,4548.29L3051.58,4549.19C3050.28,4549.29 3048.78,4549.29 3047.28,4549.29C3045.78,4549.29 3044.38,4549.29 3043.08,4549.19L3042.98,4549.19C3042.48,4549.19 3042.38,4549.49 3042.38,4549.99C3042.38,4551.39 3044.08,4554.09 3045.78,4554.09L3045.88,4554.09L3051.68,4553.49L3065.38,4552.59C3059.08,4559.19 3049.08,4571.39 3041.98,4580.99C3041.08,4582.19 3039.78,4582.99 3039.38,4584.09C3039.18,4584.49 3039.08,4585.09 3039.08,4585.59C3039.08,4587.29 3039.98,4589.19 3041.08,4589.19L3041.18,4589.19C3045.28,4588.59 3053.78,4588.39 3054.38,4588.39L3065.78,4588.39C3068.18,4588.49 3070.38,4588.79 3072.68,4588.89C3073.28,4588.89 3073.58,4588.39 3073.58,4587.79C3073.58,4586.29 3072.38,4583.99 3071.18,4583.99L3071.08,4583.99Z" style="fill-rule:nonzero;"/>
        </g>
    </g>
</svg>
