<?xml version="1.0" encoding="UTF-8" standalone="no"?>
<!DOCTYPE svg PUBLIC "-//W3C//DTD SVG 1.1//EN" "http://www.w3.org/Graphics/SVG/1.1/DTD/svg11.dtd">
<svg width="100%" height="100%" viewBox="0 0 89 89" version="1.1" xmlns="http://www.w3.org/2000/svg" xmlns:xlink="http://www.w3.org/1999/xlink" xml:space="preserve" xmlns:serif="http://www.serif.com/" style="fill-rule:evenodd;clip-rule:evenodd;stroke-linejoin:round;stroke-miterlimit:2;">
    <g transform="matrix(1,0,0,1,-2440.22,-438.665)">
        <g transform="matrix(1,0,0,1,-1072.97,-2735.12)">
            <path d="M3601.38,3261.99L3601.38,3173.79L3513.18,3173.79L3513.18,3261.99L3601.38,3261.99ZM3597.28,3257.89L3517.28,3257.89L3517.28,3177.89L3597.28,3177.89L3597.28,3257.89ZM3575.98,3214.69C3581.88,3212.89 3586.38,3207.89 3586.38,3201.09C3586.38,3193.29 3581.38,3188.69 3573.88,3188.69C3568.08,3188.69 3563.58,3191.29 3559.98,3195.89C3559.58,3196.29 3559.38,3196.79 3559.38,3197.49C3559.38,3198.29 3559.58,3199.19 3560.48,3200.29C3560.78,3200.79 3561.08,3200.89 3561.38,3200.89C3562.08,3200.89 3562.58,3199.89 3562.88,3199.59C3566.28,3194.99 3569.78,3192.89 3573.98,3192.89C3579.18,3192.89 3582.28,3196.19 3582.28,3201.59C3582.28,3208.29 3574.58,3213.29 3566.88,3213.89C3566.38,3213.99 3566.08,3214.49 3566.08,3215.09C3566.08,3216.39 3567.08,3218.29 3568.28,3218.29C3568.38,3218.29 3568.48,3218.19 3568.68,3218.19C3569.48,3217.99 3570.98,3217.69 3572.28,3217.59C3572.88,3217.49 3573.38,3217.49 3573.88,3217.49C3579.98,3217.49 3584.38,3222.09 3584.38,3228.69C3584.38,3236.09 3580.68,3243.19 3571.38,3243.19C3566.58,3243.19 3563.58,3240.39 3560.58,3236.19C3560.38,3235.89 3560.18,3235.69 3559.98,3235.69C3558.88,3235.69 3557.98,3237.79 3557.98,3239.39C3557.98,3240.09 3558.08,3240.59 3558.38,3240.99C3562.08,3245.19 3566.18,3247.49 3571.38,3247.49C3583.48,3247.49 3588.48,3238.79 3588.48,3228.59C3588.48,3219.99 3582.98,3214.69 3576.78,3214.69L3575.98,3214.69ZM3526.98,3246.49C3528.78,3246.09 3532.28,3245.49 3537.78,3245.49C3546.68,3245.49 3551.58,3245.99 3552.88,3246.09C3553.48,3246.09 3553.68,3245.69 3553.68,3244.99C3553.68,3243.59 3552.58,3241.39 3551.58,3241.39C3550.68,3241.39 3548.28,3241.49 3547.08,3241.49C3544.18,3241.49 3541.98,3241.39 3538.58,3241.39C3535.88,3241.39 3531.88,3241.59 3529.28,3241.89C3531.68,3236.49 3535.88,3228.39 3542.08,3221.99C3548.58,3215.19 3553.18,3209.49 3553.18,3202.09C3553.18,3194.29 3548.28,3188.69 3540.58,3188.69C3529.48,3188.69 3525.48,3198.69 3525.48,3200.09C3525.48,3202.19 3527.68,3203.39 3527.98,3203.39C3528.68,3203.39 3529.28,3202.59 3529.58,3201.49C3531.18,3196.69 3534.98,3192.89 3540.48,3192.89C3545.78,3192.89 3548.88,3197.09 3548.88,3202.09C3548.88,3207.39 3545.18,3212.39 3539.48,3218.59C3533.58,3224.89 3528.68,3233.59 3525.98,3239.39C3525.58,3240.19 3525.18,3240.89 3524.58,3241.79C3524.38,3242.09 3524.28,3242.49 3524.28,3242.99C3524.28,3244.59 3525.48,3246.49 3526.68,3246.49L3526.98,3246.49Z" style="fill-rule:nonzero;"/>
        </g>
    </g>
</svg>
