<?xml version="1.0" encoding="UTF-8" standalone="no"?>
<!DOCTYPE svg PUBLIC "-//W3C//DTD SVG 1.1//EN" "http://www.w3.org/Graphics/SVG/1.1/DTD/svg11.dtd">
<svg width="100%" height="100%" viewBox="0 0 89 89" version="1.1" xmlns="http://www.w3.org/2000/svg" xmlns:xlink="http://www.w3.org/1999/xlink" xml:space="preserve" xmlns:serif="http://www.serif.com/" style="fill-rule:evenodd;clip-rule:evenodd;stroke-linejoin:round;stroke-miterlimit:2;">
    <g transform="matrix(1,0,0,1,-1940.22,-438.665)">
        <g transform="matrix(1,0,0,1,-1072.97,-2735.12)">
            <path d="M3101.38,3261.99L3101.38,3173.79L3013.18,3173.79L3013.18,3261.99L3101.38,3261.99ZM3097.28,3257.89L3017.28,3257.89L3017.28,3177.89L3097.28,3177.89L3097.28,3257.89ZM3070.38,3213.69C3078.18,3207.79 3084.18,3201.29 3084.18,3199.19C3084.18,3198.29 3083.58,3197.69 3082.88,3197.69C3082.38,3197.69 3081.78,3197.89 3081.18,3198.59L3080.78,3198.99C3081.08,3198.49 3081.28,3197.89 3081.28,3197.49C3081.28,3197.19 3081.18,3196.89 3081.08,3196.69C3078.28,3192.39 3074.08,3188.79 3068.08,3188.79C3058.78,3188.79 3053.78,3195.09 3053.78,3202.19C3053.78,3207.49 3055.98,3210.89 3062.68,3214.49C3055.88,3219.49 3051.38,3224.99 3051.38,3232.29C3051.38,3240.89 3056.98,3247.49 3066.78,3247.49C3077.78,3247.49 3084.48,3241.09 3084.48,3231.19C3084.48,3223.39 3079.98,3218.29 3071.38,3214.09L3070.38,3213.69ZM3068.48,3217.29C3077.08,3221.39 3080.28,3225.69 3080.28,3231.59C3080.28,3238.49 3074.68,3243.19 3066.78,3243.19C3058.98,3243.19 3055.58,3237.59 3055.58,3232.09C3055.58,3226.29 3059.98,3221.59 3066.68,3216.49L3068.48,3217.29ZM3034.18,3237.89C3034.18,3239.59 3033.98,3243.69 3033.98,3244.99C3033.98,3246.29 3035.98,3247.19 3037.38,3247.19C3037.98,3247.19 3038.58,3246.99 3038.58,3246.39C3038.48,3244.29 3038.38,3239.59 3038.38,3237.39L3038.38,3197.09C3038.38,3194.79 3038.88,3193.39 3038.88,3192.09C3038.88,3190.59 3037.18,3189.09 3036.08,3189.09C3035.08,3189.09 3033.48,3191.39 3032.98,3191.89C3030.68,3193.79 3027.28,3195.89 3023.68,3197.49C3023.18,3197.69 3022.98,3197.99 3022.98,3198.29C3022.98,3199.19 3024.58,3200.09 3025.88,3200.09C3026.08,3200.09 3026.38,3200.09 3026.58,3199.99C3029.08,3199.19 3032.08,3197.89 3034.18,3196.49L3034.18,3237.89ZM3079.68,3200.19C3075.98,3204.19 3071.38,3208.29 3066.58,3211.69C3060.28,3208.59 3058.08,3206.39 3058.08,3202.19C3058.08,3197.49 3061.18,3192.89 3068.18,3192.89C3072.68,3192.89 3075.38,3195.39 3077.58,3199.29C3077.98,3200.09 3078.48,3200.39 3078.88,3200.39C3079.18,3200.39 3079.48,3200.29 3079.68,3200.19Z" style="fill-rule:nonzero;"/>
        </g>
    </g>
</svg>
