<?xml version="1.0" encoding="UTF-8" standalone="no"?>
<!DOCTYPE svg PUBLIC "-//W3C//DTD SVG 1.1//EN" "http://www.w3.org/Graphics/SVG/1.1/DTD/svg11.dtd">
<svg width="100%" height="100%" viewBox="0 0 89 89" version="1.1" xmlns="http://www.w3.org/2000/svg" xmlns:xlink="http://www.w3.org/1999/xlink" xml:space="preserve" xmlns:serif="http://www.serif.com/" style="fill-rule:evenodd;clip-rule:evenodd;stroke-linejoin:round;stroke-miterlimit:2;">
    <g transform="matrix(1,0,0,1,-2440.22,-888.665)">
        <g transform="matrix(1,0,0,1,-1072.97,-2735.12)">
            <path d="M3601.38,3711.99L3601.38,3623.79L3513.18,3623.79L3513.18,3711.99L3601.38,3711.99ZM3597.28,3707.89L3517.28,3707.89L3517.28,3627.89L3597.28,3627.89L3597.28,3707.89ZM3578.98,3697.09C3580.68,3696.99 3581.68,3696.49 3581.78,3695.39C3582.68,3684.99 3586.48,3662.09 3589.48,3646.99C3589.58,3646.49 3590.08,3645.09 3590.28,3643.99L3590.28,3643.69C3590.28,3642.49 3588.98,3640.99 3587.38,3640.99C3585.98,3640.99 3586.28,3643.49 3585.78,3645.69C3584.88,3643.39 3581.58,3638.69 3574.88,3638.69C3565.28,3638.69 3557.98,3649.49 3557.98,3660.39C3557.98,3669.59 3562.48,3674.89 3568.98,3674.89C3573.98,3674.89 3579.28,3671.19 3582.28,3665.49C3578.48,3688.79 3578.18,3690.09 3577.58,3693.79C3577.48,3694.49 3577.28,3695.19 3577.28,3695.79C3577.28,3696.59 3577.58,3697.09 3578.78,3697.09L3578.98,3697.09ZM3550.58,3644.19C3551.08,3644.19 3551.38,3643.69 3551.38,3643.09C3551.38,3641.79 3550.38,3639.69 3549.38,3639.69L3549.18,3639.69C3548.08,3639.99 3546.08,3640.09 3544.78,3640.19L3531.78,3641.09C3530.88,3640.59 3529.78,3640.19 3529.18,3640.19C3528.58,3640.19 3528.18,3640.39 3528.18,3641.09C3528.18,3642.09 3528.08,3643.49 3527.98,3644.59L3526.28,3664.29C3526.18,3664.99 3525.98,3665.99 3525.68,3667.09L3525.68,3667.99C3525.68,3669.99 3527.38,3671.49 3528.48,3671.49C3528.68,3671.49 3528.88,3671.49 3529.08,3671.29C3533.68,3665.89 3536.68,3664.79 3539.78,3664.79C3546.08,3664.79 3550.08,3669.79 3550.08,3678.09C3550.08,3685.89 3546.48,3693.09 3537.38,3693.09C3532.28,3693.09 3529.08,3689.29 3526.58,3684.99C3526.38,3684.59 3526.18,3684.39 3525.88,3684.39C3524.98,3684.39 3523.88,3686.59 3523.88,3688.39C3523.88,3689.09 3523.98,3689.69 3524.38,3690.09C3527.58,3694.29 3531.78,3697.49 3537.38,3697.49C3549.28,3697.49 3554.08,3688.29 3554.08,3677.99C3554.08,3666.99 3547.88,3660.59 3540.48,3660.59C3535.88,3660.59 3532.68,3662.29 3529.88,3665.09L3531.68,3645.49L3545.28,3644.49L3550.58,3644.19ZM3585.18,3649.29C3583.28,3661.39 3576.58,3670.49 3568.88,3670.49C3564.38,3670.49 3561.98,3666.99 3561.98,3660.09C3561.98,3652.69 3566.78,3642.89 3575.18,3642.89C3580.18,3642.89 3582.18,3646.79 3583.18,3648.99C3583.38,3649.69 3583.78,3649.99 3584.18,3649.99C3584.48,3649.99 3584.88,3649.69 3585.18,3649.29Z" style="fill-rule:nonzero;"/>
        </g>
    </g>
</svg>
