<?xml version="1.0" encoding="UTF-8" standalone="no"?>
<!DOCTYPE svg PUBLIC "-//W3C//DTD SVG 1.1//EN" "http://www.w3.org/Graphics/SVG/1.1/DTD/svg11.dtd">
<svg width="100%" height="100%" viewBox="0 0 89 89" version="1.1" xmlns="http://www.w3.org/2000/svg" xmlns:xlink="http://www.w3.org/1999/xlink" xml:space="preserve" xmlns:serif="http://www.serif.com/" style="fill-rule:evenodd;clip-rule:evenodd;stroke-linejoin:round;stroke-miterlimit:2;">
    <g transform="matrix(1,0,0,1,-2440.22,-288.665)">
        <g transform="matrix(1,0,0,1,-1072.97,-2735.12)">
            <path d="M3601.38,3111.99L3601.38,3023.79L3513.18,3023.79L3513.18,3111.99L3601.38,3111.99ZM3597.28,3107.89L3517.28,3107.89L3517.28,3027.89L3597.28,3027.89L3597.28,3107.89ZM3573.08,3087.89C3573.08,3089.59 3572.88,3093.69 3572.88,3094.99C3572.88,3096.29 3575.08,3097.19 3576.68,3097.19C3577.38,3097.19 3577.98,3096.99 3577.98,3096.39C3577.88,3094.29 3577.78,3089.59 3577.78,3087.39L3577.78,3047.09C3577.78,3044.79 3578.28,3043.39 3578.28,3042.09C3578.28,3040.59 3576.48,3039.09 3575.28,3039.09C3574.08,3039.09 3572.38,3041.39 3571.78,3041.89C3569.28,3043.79 3565.48,3045.89 3561.48,3047.49C3560.88,3047.69 3560.68,3047.99 3560.68,3048.29C3560.68,3049.19 3562.48,3050.09 3563.88,3050.09C3564.18,3050.09 3564.48,3050.09 3564.68,3049.99C3567.48,3049.19 3570.78,3047.89 3573.08,3046.49L3573.08,3087.89ZM3539.98,3087.89C3539.98,3089.59 3539.78,3093.69 3539.78,3094.99C3539.78,3096.29 3541.98,3097.19 3543.58,3097.19C3544.28,3097.19 3544.88,3096.99 3544.88,3096.39C3544.78,3094.29 3544.68,3089.59 3544.68,3087.39L3544.68,3047.09C3544.68,3044.79 3545.18,3043.39 3545.18,3042.09C3545.18,3040.59 3543.38,3039.09 3542.18,3039.09C3540.98,3039.09 3539.28,3041.39 3538.68,3041.89C3536.18,3043.79 3532.38,3045.89 3528.38,3047.49C3527.78,3047.69 3527.58,3047.99 3527.58,3048.29C3527.58,3049.19 3529.38,3050.09 3530.78,3050.09C3531.08,3050.09 3531.38,3050.09 3531.58,3049.99C3534.38,3049.19 3537.68,3047.89 3539.98,3046.49L3539.98,3087.89Z" style="fill-rule:nonzero;"/>
        </g>
    </g>
</svg>
