<?xml version="1.0" encoding="UTF-8" standalone="no"?>
<!DOCTYPE svg PUBLIC "-//W3C//DTD SVG 1.1//EN" "http://www.w3.org/Graphics/SVG/1.1/DTD/svg11.dtd">
<svg width="100%" height="100%" viewBox="0 0 89 89" version="1.1" xmlns="http://www.w3.org/2000/svg" xmlns:xlink="http://www.w3.org/1999/xlink" xml:space="preserve" xmlns:serif="http://www.serif.com/" style="fill-rule:evenodd;clip-rule:evenodd;stroke-linejoin:round;stroke-miterlimit:2;">
    <g transform="matrix(1,0,0,1,-2140.22,-1488.66)">
        <g transform="matrix(1,0,0,1,-1072.97,-2735.12)">
            <path d="M3301.38,4311.99L3301.38,4223.79L3213.18,4223.79L3213.18,4311.99L3301.38,4311.99ZM3297.28,4307.89L3217.28,4307.89L3217.28,4227.89L3297.28,4227.89L3297.28,4307.89ZM3268.68,4286.09C3268.68,4290.29 3269.98,4293.89 3271.28,4296.39C3271.78,4297.39 3272.38,4297.89 3273.08,4297.89C3274.58,4297.89 3276.08,4295.69 3276.08,4294.39C3276.08,4294.09 3275.98,4293.89 3275.88,4293.69C3273.98,4291.39 3272.98,4286.19 3272.98,4281.19L3272.98,4246.59C3272.98,4243.69 3273.18,4240.39 3273.18,4239.09C3273.18,4237.69 3270.98,4236.69 3269.48,4236.69C3268.68,4236.69 3268.18,4236.99 3268.18,4237.49C3268.18,4239.49 3268.38,4243.09 3268.38,4246.59L3268.38,4261.39C3266.18,4257.39 3262.38,4255.79 3257.98,4255.79C3247.48,4255.79 3236.98,4267.89 3236.98,4281.09C3236.98,4292.19 3242.58,4298.29 3250.78,4298.29C3257.48,4298.29 3263.58,4294.49 3268.68,4285.69L3268.68,4286.09ZM3268.38,4273.49C3268.38,4284.39 3258.58,4294.09 3250.78,4294.09C3245.88,4294.09 3241.88,4289.89 3241.88,4280.89C3241.88,4270.89 3248.88,4259.89 3258.08,4259.89C3261.18,4259.89 3264.18,4261.19 3266.38,4264.59C3266.58,4264.89 3266.78,4264.99 3267.18,4264.99C3267.58,4264.99 3268.18,4264.69 3268.38,4264.29L3268.38,4273.49Z" style="fill-rule:nonzero;"/>
        </g>
    </g>
</svg>
