<?xml version="1.0" encoding="UTF-8" standalone="no"?>
<!DOCTYPE svg PUBLIC "-//W3C//DTD SVG 1.1//EN" "http://www.w3.org/Graphics/SVG/1.1/DTD/svg11.dtd">
<svg width="100%" height="100%" viewBox="0 0 89 89" version="1.1" xmlns="http://www.w3.org/2000/svg" xmlns:xlink="http://www.w3.org/1999/xlink" xml:space="preserve" xmlns:serif="http://www.serif.com/" style="fill-rule:evenodd;clip-rule:evenodd;stroke-linejoin:round;stroke-miterlimit:2;">
    <g transform="matrix(1,0,0,1,-2640.22,-138.665)">
        <g transform="matrix(1,0,0,1,-1072.97,-2735.12)">
            <path d="M3801.38,2961.99L3801.38,2873.79L3713.18,2873.79L3713.18,2961.99L3801.38,2961.99ZM3797.28,2957.89L3717.28,2957.89L3717.28,2877.89L3797.28,2877.89L3797.28,2957.89ZM3733.38,2894.19C3733.18,2893.89 3732.78,2893.59 3732.38,2893.59C3730.18,2893.59 3725.78,2905.69 3725.78,2919.49C3725.78,2935.99 3730.48,2948.09 3740.18,2948.09C3750.38,2948.09 3755.28,2933.99 3755.28,2917.39C3755.28,2901.09 3750.58,2889.19 3741.78,2889.19C3738.38,2889.19 3735.48,2891.19 3733.38,2894.19ZM3739.88,2943.79C3732.38,2943.79 3729.88,2932.59 3729.88,2919.39C3729.88,2901.99 3736.48,2893.29 3741.58,2893.29C3748.78,2893.29 3751.28,2905.59 3751.28,2916.79C3751.28,2930.49 3748.08,2943.79 3739.88,2943.79ZM3766.78,2919.59C3769.08,2916.99 3772.08,2915.19 3775.68,2915.19C3781.98,2915.19 3785.98,2920.19 3785.98,2928.49C3785.98,2936.29 3782.38,2943.49 3773.28,2943.49C3768.18,2943.49 3764.88,2939.69 3762.48,2935.39C3762.28,2934.99 3761.98,2934.79 3761.78,2934.79C3760.78,2934.79 3759.68,2936.99 3759.68,2938.79C3759.68,2941.39 3766.28,2947.89 3773.28,2947.89C3785.18,2947.89 3789.98,2938.69 3789.98,2928.39C3789.98,2917.39 3783.78,2910.99 3776.38,2910.99C3771.78,2910.99 3768.58,2912.69 3765.78,2915.49L3767.58,2895.89L3781.18,2894.89L3786.48,2894.59C3786.98,2894.59 3787.28,2894.09 3787.28,2893.49C3787.28,2892.19 3786.18,2890.09 3785.28,2890.09L3785.08,2890.09C3783.88,2890.39 3781.98,2890.49 3780.68,2890.59L3767.68,2891.49C3766.68,2890.99 3765.68,2890.59 3764.98,2890.59C3764.38,2890.59 3764.08,2890.79 3764.08,2891.49C3764.08,2892.49 3763.98,2893.89 3763.88,2894.99L3762.18,2914.69C3762.08,2915.09 3761.48,2917.69 3761.48,2918.39C3761.48,2920.39 3763.18,2921.89 3764.28,2921.89C3764.58,2921.89 3764.78,2921.89 3764.88,2921.69L3766.78,2919.59Z" style="fill-rule:nonzero;"/>
        </g>
    </g>
</svg>
