<?xml version="1.0" encoding="UTF-8" standalone="no"?>
<!DOCTYPE svg PUBLIC "-//W3C//DTD SVG 1.1//EN" "http://www.w3.org/Graphics/SVG/1.1/DTD/svg11.dtd">
<svg width="100%" height="100%" viewBox="0 0 89 89" version="1.1" xmlns="http://www.w3.org/2000/svg" xmlns:xlink="http://www.w3.org/1999/xlink" xml:space="preserve" xmlns:serif="http://www.serif.com/" style="fill-rule:evenodd;clip-rule:evenodd;stroke-linejoin:round;stroke-miterlimit:2;">
    <g transform="matrix(1,0,0,1,-2140.22,-1038.66)">
        <g transform="matrix(1,0,0,1,-1072.97,-2735.12)">
            <path d="M3301.38,3861.99L3301.38,3773.79L3213.18,3773.79L3213.18,3861.99L3301.38,3861.99ZM3297.28,3857.89L3217.28,3857.89L3217.28,3777.89L3297.28,3777.89L3297.28,3857.89ZM3277.78,3813.69C3285.08,3807.89 3290.38,3800.99 3290.38,3799.19C3290.38,3798.29 3289.88,3797.69 3289.18,3797.69C3288.68,3797.69 3288.18,3797.89 3287.58,3798.59L3287.18,3798.99C3287.48,3798.49 3287.68,3797.89 3287.68,3797.49C3287.68,3796.59 3283.58,3788.79 3275.58,3788.79C3267.18,3788.79 3262.38,3795.09 3262.38,3802.19C3262.38,3807.49 3264.18,3810.89 3270.48,3814.49C3264.08,3819.49 3260.18,3824.99 3260.18,3832.29C3260.18,3840.89 3265.48,3847.49 3274.38,3847.49C3284.28,3847.49 3290.78,3841.09 3290.78,3831.19C3290.78,3823.39 3286.88,3818.29 3278.68,3814.09L3277.78,3813.69ZM3238.58,3791.29C3235.78,3796.09 3232.78,3802.09 3229.58,3809.29C3226.28,3816.79 3224.58,3823.59 3224.58,3830.39C3224.58,3839.79 3231.18,3847.49 3239.98,3847.49C3249.58,3847.49 3255.38,3839.09 3255.38,3828.19C3255.38,3818.39 3249.68,3811.19 3241.18,3811.19C3236.48,3811.19 3232.68,3813.59 3230.28,3817.49C3234.98,3805.99 3239.28,3797.99 3243.58,3792.09C3243.88,3791.69 3244.38,3790.99 3244.38,3790.39C3244.38,3789.69 3243.08,3788.59 3241.38,3788.59C3240.58,3788.59 3239.98,3788.89 3239.58,3789.59C3239.38,3789.99 3238.78,3791.09 3238.58,3791.29ZM3239.98,3843.39C3233.38,3843.39 3228.68,3837.69 3228.68,3830.29C3228.68,3822.29 3233.48,3815.29 3241.18,3815.29C3247.48,3815.29 3251.28,3821.49 3251.28,3828.39C3251.28,3837.19 3246.48,3843.39 3239.98,3843.39ZM3274.18,3816.49C3285.98,3821.19 3286.68,3828.49 3286.68,3831.59C3286.68,3838.49 3281.48,3843.19 3274.38,3843.19C3267.28,3843.19 3264.18,3837.59 3264.18,3832.09C3264.18,3826.29 3267.88,3821.59 3274.18,3816.49ZM3274.18,3811.69C3268.18,3808.59 3266.38,3806.39 3266.38,3802.19C3266.38,3797.49 3269.48,3792.89 3275.68,3792.89C3279.68,3792.89 3282.08,3795.39 3284.18,3799.29C3284.58,3800.09 3284.98,3800.39 3285.38,3800.39C3285.58,3800.39 3285.88,3800.39 3285.98,3800.29C3282.58,3804.29 3278.78,3808.29 3274.18,3811.69Z" style="fill-rule:nonzero;"/>
        </g>
    </g>
</svg>
