<?xml version="1.0" encoding="UTF-8" standalone="no"?>
<!DOCTYPE svg PUBLIC "-//W3C//DTD SVG 1.1//EN" "http://www.w3.org/Graphics/SVG/1.1/DTD/svg11.dtd">
<svg width="100%" height="100%" viewBox="0 0 89 89" version="1.1" xmlns="http://www.w3.org/2000/svg" xmlns:xlink="http://www.w3.org/1999/xlink" xml:space="preserve" xmlns:serif="http://www.serif.com/" style="fill-rule:evenodd;clip-rule:evenodd;stroke-linejoin:round;stroke-miterlimit:2;">
    <g transform="matrix(1,0,0,1,-2440.22,-588.665)">
        <g transform="matrix(1,0,0,1,-1072.97,-2735.12)">
            <path d="M3601.38,3411.99L3601.38,3323.79L3513.18,3323.79L3513.18,3411.99L3601.38,3411.99ZM3597.28,3407.89L3517.28,3407.89L3517.28,3327.89L3597.28,3327.89L3597.28,3407.89ZM3585.98,3344.19C3586.48,3344.19 3586.68,3343.69 3586.68,3343.09C3586.68,3341.79 3585.68,3339.69 3584.78,3339.69L3584.58,3339.69C3583.38,3339.99 3581.38,3340.09 3580.18,3340.19L3567.18,3341.09C3566.18,3340.59 3565.18,3340.19 3564.48,3340.19C3563.88,3340.19 3563.58,3340.39 3563.58,3341.09C3563.58,3342.09 3563.48,3343.49 3563.38,3344.59L3561.68,3364.29C3561.58,3364.69 3560.98,3367.29 3560.98,3367.99C3560.98,3369.99 3562.68,3371.49 3563.78,3371.49C3564.48,3371.49 3566.18,3369.39 3566.28,3369.19C3568.58,3366.59 3571.58,3364.79 3575.18,3364.79C3581.38,3364.79 3585.48,3369.79 3585.48,3378.09C3585.48,3385.89 3581.88,3393.09 3572.78,3393.09C3567.68,3393.09 3564.38,3389.29 3561.88,3384.99C3561.78,3384.59 3561.48,3384.39 3561.28,3384.39C3560.28,3384.39 3559.18,3386.59 3559.18,3388.39C3559.18,3390.99 3565.78,3397.49 3572.78,3397.49C3584.68,3397.49 3589.48,3388.29 3589.48,3377.99C3589.48,3366.99 3583.18,3360.59 3575.88,3360.59C3571.28,3360.59 3568.08,3362.29 3565.28,3365.09L3567.08,3345.49L3580.68,3344.49L3585.98,3344.19ZM3542.48,3364.69C3548.38,3362.89 3552.78,3357.89 3552.78,3351.09C3552.78,3343.29 3547.88,3338.69 3540.38,3338.69C3531.68,3338.69 3525.88,3345.69 3525.88,3347.49C3525.88,3349.19 3527.38,3350.89 3527.88,3350.89C3528.58,3350.89 3529.18,3349.89 3529.38,3349.59C3532.78,3344.99 3536.28,3342.89 3540.48,3342.89C3545.68,3342.89 3548.78,3346.19 3548.78,3351.59C3548.78,3358.29 3541.08,3363.29 3533.38,3363.89C3532.88,3363.99 3532.58,3364.49 3532.58,3365.09C3532.58,3366.39 3533.58,3368.29 3534.78,3368.29C3534.98,3368.29 3534.98,3368.19 3535.18,3368.19C3535.98,3367.99 3537.48,3367.69 3538.78,3367.59C3539.38,3367.49 3539.88,3367.49 3540.38,3367.49C3546.48,3367.49 3550.88,3372.09 3550.88,3378.69C3550.88,3386.09 3547.18,3393.19 3537.88,3393.19C3533.08,3393.19 3530.08,3390.39 3527.18,3386.19C3526.88,3385.89 3526.68,3385.69 3526.48,3385.69C3525.48,3385.69 3524.48,3387.79 3524.48,3389.39C3524.48,3390.09 3524.58,3390.59 3524.98,3390.99C3528.58,3395.19 3532.68,3397.49 3537.88,3397.49C3549.98,3397.49 3554.98,3388.79 3554.98,3378.59C3554.98,3369.99 3549.48,3364.69 3543.28,3364.69L3542.48,3364.69Z" style="fill-rule:nonzero;"/>
        </g>
    </g>
</svg>
