<?xml version="1.0" encoding="UTF-8" standalone="no"?>
<!DOCTYPE svg PUBLIC "-//W3C//DTD SVG 1.1//EN" "http://www.w3.org/Graphics/SVG/1.1/DTD/svg11.dtd">
<svg width="100%" height="100%" viewBox="0 0 89 89" version="1.1" xmlns="http://www.w3.org/2000/svg" xmlns:xlink="http://www.w3.org/1999/xlink" xml:space="preserve" xmlns:serif="http://www.serif.com/" style="fill-rule:evenodd;clip-rule:evenodd;stroke-linejoin:round;stroke-miterlimit:2;">
    <g transform="matrix(1,0,0,1,-2640.22,-1188.66)">
        <g transform="matrix(1,0,0,1,-1072.97,-2735.12)">
            <path d="M3801.38,4011.99L3801.38,3923.79L3713.18,3923.79L3713.18,4011.99L3801.38,4011.99ZM3797.28,4007.89L3717.28,4007.89L3717.28,3927.89L3797.28,3927.89L3797.28,4007.89ZM3743.48,3963.69C3750.28,3958.19 3756.08,3951.29 3756.08,3949.19C3756.08,3948.29 3755.58,3947.69 3754.88,3947.69C3754.38,3947.69 3753.88,3947.89 3753.28,3948.59L3752.88,3948.99C3753.18,3948.49 3753.38,3947.89 3753.38,3947.49C3753.38,3947.19 3753.28,3946.89 3753.18,3946.69C3750.48,3942.39 3746.68,3938.79 3741.28,3938.79C3732.88,3938.79 3728.08,3945.09 3728.08,3952.19C3728.08,3957.49 3729.88,3960.89 3736.18,3964.49C3729.78,3969.49 3725.88,3974.99 3725.88,3982.29C3725.88,3990.89 3731.18,3997.49 3740.08,3997.49C3749.88,3997.49 3756.38,3991.09 3756.38,3981.19C3756.38,3973.39 3752.58,3968.29 3744.38,3964.09L3743.48,3963.69ZM3786.98,3944.19C3787.48,3944.19 3787.68,3943.69 3787.68,3943.09C3787.68,3941.79 3786.68,3939.69 3785.78,3939.69L3785.58,3939.69C3784.38,3939.99 3782.38,3940.09 3781.18,3940.19L3768.18,3941.09C3767.18,3940.59 3766.18,3940.19 3765.48,3940.19C3764.88,3940.19 3764.58,3940.39 3764.58,3941.09C3764.58,3942.09 3764.48,3943.49 3764.38,3944.59L3762.68,3964.29C3762.58,3964.69 3761.98,3967.29 3761.98,3967.99C3761.98,3969.99 3763.68,3971.49 3764.78,3971.49C3765.48,3971.49 3767.18,3969.39 3767.28,3969.19C3769.58,3966.59 3772.58,3964.79 3776.18,3964.79C3782.38,3964.79 3786.48,3969.79 3786.48,3978.09C3786.48,3985.89 3782.88,3993.09 3773.78,3993.09C3768.68,3993.09 3765.38,3989.29 3762.88,3984.99C3762.78,3984.59 3762.48,3984.39 3762.28,3984.39C3761.28,3984.39 3760.18,3986.59 3760.18,3988.39C3760.18,3990.99 3766.78,3997.49 3773.78,3997.49C3785.68,3997.49 3790.48,3988.29 3790.48,3977.99C3790.48,3966.99 3784.18,3960.59 3776.88,3960.59C3772.28,3960.59 3769.08,3962.29 3766.28,3965.09L3768.08,3945.49L3781.68,3944.49L3786.98,3944.19ZM3739.88,3966.49C3744.98,3968.49 3752.38,3972.69 3752.38,3981.59C3752.38,3988.49 3747.18,3993.19 3740.08,3993.19C3732.98,3993.19 3729.88,3987.59 3729.88,3982.09C3729.88,3976.29 3733.58,3971.59 3739.88,3966.49ZM3739.88,3961.69C3733.88,3958.59 3732.08,3956.39 3732.08,3952.19C3732.08,3947.49 3735.18,3942.89 3741.38,3942.89C3745.38,3942.89 3747.78,3945.39 3749.88,3949.29C3750.28,3950.09 3750.68,3950.39 3751.08,3950.39C3751.28,3950.39 3751.58,3950.39 3751.68,3950.29C3748.28,3954.29 3744.48,3958.29 3739.88,3961.69Z" style="fill-rule:nonzero;"/>
        </g>
    </g>
</svg>
