<?xml version="1.0" encoding="UTF-8" standalone="no"?>
<!DOCTYPE svg PUBLIC "-//W3C//DTD SVG 1.1//EN" "http://www.w3.org/Graphics/SVG/1.1/DTD/svg11.dtd">
<svg width="100%" height="100%" viewBox="0 0 89 89" version="1.1" xmlns="http://www.w3.org/2000/svg" xmlns:xlink="http://www.w3.org/1999/xlink" xml:space="preserve" xmlns:serif="http://www.serif.com/" style="fill-rule:evenodd;clip-rule:evenodd;stroke-linejoin:round;stroke-miterlimit:2;">
    <g transform="matrix(1,0,0,1,-2240.22,-1188.66)">
        <g transform="matrix(1,0,0,1,-1072.97,-2735.12)">
            <path d="M3401.38,4011.99L3401.38,3923.79L3313.18,3923.79L3313.18,4011.99L3401.38,4011.99ZM3397.28,4007.89L3317.28,4007.89L3317.28,3927.89L3397.28,3927.89L3397.28,4007.89ZM3347.38,3963.69C3354.68,3957.99 3360.58,3951.19 3360.58,3949.19C3360.58,3948.29 3360.08,3947.69 3359.38,3947.69C3358.78,3947.69 3358.28,3947.89 3357.58,3948.59L3357.28,3948.99C3357.58,3948.49 3357.68,3947.89 3357.68,3947.49C3357.68,3947.19 3357.58,3946.89 3357.58,3946.69C3354.78,3942.39 3350.68,3938.79 3344.98,3938.79C3336.18,3938.79 3330.98,3945.09 3330.98,3952.19C3330.98,3957.49 3332.88,3960.89 3339.58,3964.49C3332.78,3969.49 3328.78,3974.99 3328.78,3982.29C3328.78,3990.89 3334.38,3997.49 3343.68,3997.49C3354.08,3997.49 3360.98,3991.09 3360.98,3981.19C3360.98,3973.39 3356.88,3968.29 3348.28,3964.09L3347.38,3963.69ZM3345.38,3967.29C3353.98,3971.39 3356.68,3975.69 3356.68,3981.59C3356.68,3988.49 3351.18,3993.19 3343.68,3993.19C3336.28,3993.19 3332.98,3987.59 3332.98,3982.09C3332.98,3976.29 3336.88,3971.59 3343.58,3966.49L3345.38,3967.29ZM3377.98,3987.89C3377.98,3989.59 3377.88,3993.69 3377.88,3994.99C3377.88,3996.29 3379.78,3997.19 3381.28,3997.19C3381.88,3997.19 3382.48,3996.99 3382.48,3996.39C3382.38,3994.29 3382.28,3989.59 3382.28,3987.39L3382.28,3947.09C3382.28,3944.79 3382.68,3943.39 3382.68,3942.09C3382.68,3940.59 3381.08,3939.09 3379.98,3939.09C3378.88,3939.09 3377.38,3941.39 3376.88,3941.89C3374.58,3943.79 3371.18,3945.89 3367.58,3947.49C3366.98,3947.69 3366.88,3947.99 3366.88,3948.29C3366.88,3949.19 3368.48,3950.09 3369.68,3950.09C3369.98,3950.09 3370.28,3950.09 3370.48,3949.99C3372.98,3949.19 3375.98,3947.89 3377.98,3946.49L3377.98,3987.89ZM3356.08,3950.19C3352.48,3954.19 3348.28,3958.29 3343.48,3961.69C3337.18,3958.59 3335.28,3956.39 3335.28,3952.19C3335.28,3947.49 3338.48,3942.89 3345.08,3942.89C3349.28,3942.89 3351.88,3945.39 3353.98,3949.29C3354.48,3950.09 3354.88,3950.39 3355.38,3950.39C3355.68,3950.39 3355.88,3950.29 3356.08,3950.19Z" style="fill-rule:nonzero;"/>
        </g>
    </g>
</svg>
