<?xml version="1.0" encoding="UTF-8" standalone="no"?>
<!DOCTYPE svg PUBLIC "-//W3C//DTD SVG 1.1//EN" "http://www.w3.org/Graphics/SVG/1.1/DTD/svg11.dtd">
<svg width="100%" height="100%" viewBox="0 0 89 89" version="1.1" xmlns="http://www.w3.org/2000/svg" xmlns:xlink="http://www.w3.org/1999/xlink" xml:space="preserve" xmlns:serif="http://www.serif.com/" style="fill-rule:evenodd;clip-rule:evenodd;stroke-linejoin:round;stroke-miterlimit:2;">
    <g transform="matrix(1,0,0,1,-2240.22,-288.665)">
        <g transform="matrix(1,0,0,1,-1072.97,-2735.12)">
            <path d="M3401.38,3111.99L3401.38,3023.79L3313.18,3023.79L3313.18,3111.99L3401.38,3111.99ZM3397.28,3107.89L3317.28,3107.89L3317.28,3027.89L3397.28,3027.89L3397.28,3107.89ZM3332.78,3044.19C3332.58,3043.89 3332.28,3043.59 3331.78,3043.59C3329.98,3043.59 3325.58,3055.89 3325.58,3069.49C3325.58,3085.99 3330.08,3098.09 3339.28,3098.09C3348.88,3098.09 3353.58,3083.99 3353.58,3067.39C3353.58,3051.09 3349.08,3039.19 3340.78,3039.19C3337.58,3039.19 3334.78,3041.19 3332.78,3044.19ZM3379.58,3097.49C3381.28,3097.39 3382.38,3096.89 3382.38,3095.79C3383.28,3085.59 3387.28,3061.49 3390.08,3047.39L3390.98,3044.39L3390.98,3044.09C3390.98,3042.89 3389.58,3041.39 3388.08,3041.39C3386.58,3041.39 3386.98,3043.89 3386.48,3046.09C3385.48,3043.79 3382.28,3039.09 3375.48,3039.09C3365.88,3039.09 3358.68,3049.89 3358.68,3060.79C3358.68,3069.99 3363.08,3075.29 3369.58,3075.29C3374.68,3075.29 3379.98,3071.59 3382.98,3065.89C3381.78,3073.19 3380.28,3081.69 3379.38,3087.99C3379.08,3089.39 3378.68,3091.89 3378.28,3094.19C3378.08,3094.89 3377.88,3095.59 3377.88,3096.19C3377.88,3096.99 3378.28,3097.49 3379.48,3097.49L3379.58,3097.49ZM3338.98,3093.79C3331.78,3093.79 3329.48,3082.59 3329.48,3069.39C3329.48,3051.99 3335.78,3043.29 3340.58,3043.29C3347.38,3043.29 3349.78,3055.59 3349.78,3066.79C3349.78,3080.49 3346.78,3093.79 3338.98,3093.79ZM3385.88,3049.69C3384.08,3057.29 3384.08,3057.39 3383.08,3059.29C3379.48,3066.29 3375.68,3070.89 3369.48,3070.89C3364.98,3070.89 3362.68,3067.39 3362.68,3060.49C3362.68,3053.09 3367.48,3043.29 3375.88,3043.29C3380.78,3043.29 3382.88,3047.19 3383.78,3049.39C3384.08,3050.09 3384.38,3050.39 3384.78,3050.39C3385.18,3050.39 3385.48,3050.09 3385.88,3049.69Z" style="fill-rule:nonzero;"/>
        </g>
    </g>
</svg>
