<?xml version="1.0" encoding="UTF-8" standalone="no"?>
<!DOCTYPE svg PUBLIC "-//W3C//DTD SVG 1.1//EN" "http://www.w3.org/Graphics/SVG/1.1/DTD/svg11.dtd">
<svg width="100%" height="100%" viewBox="0 0 89 89" version="1.1" xmlns="http://www.w3.org/2000/svg" xmlns:xlink="http://www.w3.org/1999/xlink" xml:space="preserve" xmlns:serif="http://www.serif.com/" style="fill-rule:evenodd;clip-rule:evenodd;stroke-linejoin:round;stroke-miterlimit:2;">
    <g transform="matrix(1,0,0,1,-2340.22,-288.665)">
        <g transform="matrix(1,0,0,1,-1072.97,-2735.12)">
            <path d="M3501.38,3111.99L3501.38,3023.79L3413.18,3023.79L3413.18,3111.99L3501.38,3111.99ZM3497.28,3107.89L3417.28,3107.89L3417.28,3027.89L3497.28,3027.89L3497.28,3107.89ZM3459.88,3043.59C3459.68,3043.29 3459.28,3042.99 3458.68,3042.99C3456.28,3042.99 3451.18,3054.39 3451.18,3068.89C3451.18,3085.39 3456.58,3097.49 3467.58,3097.49C3479.08,3097.49 3484.58,3083.39 3484.58,3066.79C3484.58,3050.49 3479.28,3038.59 3469.48,3038.59C3465.58,3038.59 3462.28,3040.59 3459.88,3043.59ZM3467.28,3093.19C3458.68,3093.19 3455.38,3081.99 3455.38,3068.79C3455.38,3051.39 3463.28,3042.69 3469.18,3042.69C3477.18,3042.69 3480.38,3054.99 3480.38,3066.19C3480.38,3079.89 3476.58,3093.19 3467.28,3093.19ZM3434.58,3087.89C3434.58,3089.59 3434.48,3093.69 3434.48,3094.99C3434.48,3096.29 3436.38,3097.19 3437.88,3097.19C3438.48,3097.19 3439.08,3096.99 3439.08,3096.39C3438.98,3094.29 3438.88,3089.59 3438.88,3087.39L3438.88,3047.09C3438.88,3044.79 3439.28,3043.39 3439.28,3042.09C3439.28,3040.59 3437.68,3039.09 3436.58,3039.09C3435.48,3039.09 3433.98,3041.39 3433.48,3041.89C3431.18,3043.79 3427.78,3045.89 3424.18,3047.49C3423.58,3047.69 3423.38,3047.99 3423.38,3048.29C3423.38,3049.19 3425.08,3050.09 3426.28,3050.09C3426.58,3050.09 3426.88,3050.09 3427.08,3049.99C3429.58,3049.19 3432.58,3047.89 3434.58,3046.49L3434.58,3087.89Z" style="fill-rule:nonzero;"/>
        </g>
    </g>
</svg>
