<?xml version="1.0" encoding="UTF-8" standalone="no"?>
<!DOCTYPE svg PUBLIC "-//W3C//DTD SVG 1.1//EN" "http://www.w3.org/Graphics/SVG/1.1/DTD/svg11.dtd">
<svg width="100%" height="100%" viewBox="0 0 89 89" version="1.1" xmlns="http://www.w3.org/2000/svg" xmlns:xlink="http://www.w3.org/1999/xlink" xml:space="preserve" xmlns:serif="http://www.serif.com/" style="fill-rule:evenodd;clip-rule:evenodd;stroke-linejoin:round;stroke-miterlimit:2;">
    <g transform="matrix(1,0,0,1,-2440.22,-1488.66)">
        <g transform="matrix(1,0,0,1,-1072.97,-2735.12)">
            <path d="M3601.38,4311.99L3601.38,4223.79L3513.18,4223.79L3513.18,4311.99L3601.38,4311.99ZM3597.28,4307.89L3517.28,4307.89L3517.28,4227.89L3597.28,4227.89L3597.28,4307.89ZM3569.68,4277.09C3569.68,4286.89 3562.38,4291.79 3553.58,4291.79C3547.68,4291.79 3544.48,4289.99 3542.38,4285.19C3542.18,4284.59 3541.78,4284.39 3541.28,4284.39C3540.08,4284.39 3538.38,4286.29 3538.38,4287.79C3538.38,4288.09 3538.48,4288.29 3538.58,4288.59C3541.48,4293.49 3545.88,4296.19 3553.58,4296.19C3564.78,4296.19 3574.28,4289.49 3574.28,4277.19L3574.28,4250.99C3574.28,4248.09 3574.58,4244.79 3574.68,4242.59L3574.68,4242.49C3574.68,4241.29 3572.38,4240.29 3570.88,4240.29C3570.08,4240.29 3569.48,4240.59 3569.48,4241.09C3569.48,4242.39 3569.58,4244.29 3569.58,4246.89C3567.38,4242.29 3563.08,4240.29 3558.28,4240.29C3547.28,4240.29 3537.98,4252.09 3537.98,4263.49C3537.98,4274.79 3543.68,4280.69 3552.48,4280.69C3558.58,4280.69 3564.68,4278.29 3569.68,4270.09L3569.68,4277.09ZM3569.68,4252.59C3569.68,4256.89 3569.68,4260.99 3569.18,4262.39C3567.18,4271.49 3558.68,4276.49 3552.48,4276.49C3546.58,4276.49 3542.68,4272.59 3542.68,4263.49C3542.68,4254.49 3549.98,4244.49 3558.38,4244.49C3561.48,4244.49 3564.68,4245.89 3567.08,4249.19C3567.28,4249.49 3567.58,4249.59 3567.88,4249.59C3568.58,4249.59 3569.28,4248.89 3569.68,4248.29L3569.68,4252.59Z" style="fill-rule:nonzero;"/>
        </g>
    </g>
</svg>
