<?xml version="1.0" encoding="UTF-8" standalone="no"?>
<!DOCTYPE svg PUBLIC "-//W3C//DTD SVG 1.1//EN" "http://www.w3.org/Graphics/SVG/1.1/DTD/svg11.dtd">
<svg width="100%" height="100%" viewBox="0 0 89 89" version="1.1" xmlns="http://www.w3.org/2000/svg" xmlns:xlink="http://www.w3.org/1999/xlink" xml:space="preserve" xmlns:serif="http://www.serif.com/" style="fill-rule:evenodd;clip-rule:evenodd;stroke-linejoin:round;stroke-miterlimit:2;">
    <g transform="matrix(1,0,0,1,-2040.22,-1038.66)">
        <g transform="matrix(1,0,0,1,-1072.97,-2735.12)">
            <path d="M3201.38,3861.99L3201.38,3773.79L3113.18,3773.79L3113.18,3861.99L3201.38,3861.99ZM3197.28,3857.89L3117.28,3857.89L3117.28,3777.89L3197.28,3777.89L3197.28,3857.89ZM3140.08,3791.29C3137.28,3796.09 3134.38,3802.09 3131.18,3809.29C3127.88,3816.79 3126.18,3823.59 3126.18,3830.39C3126.18,3839.79 3132.78,3847.49 3141.58,3847.49C3151.18,3847.49 3156.98,3839.09 3156.98,3828.19C3156.98,3818.39 3151.28,3811.19 3142.78,3811.19C3138.08,3811.19 3134.18,3813.59 3131.88,3817.49C3135.18,3809.29 3138.58,3801.09 3145.18,3792.09C3145.48,3791.69 3145.98,3790.99 3145.98,3790.39C3145.98,3789.09 3143.88,3788.59 3142.98,3788.59C3142.18,3788.59 3141.48,3788.89 3141.18,3789.59C3140.88,3789.99 3140.28,3791.09 3140.08,3791.29ZM3141.58,3843.39C3134.88,3843.39 3130.18,3837.69 3130.18,3830.29C3130.18,3822.29 3135.08,3815.29 3142.68,3815.29C3148.98,3815.29 3152.88,3821.49 3152.88,3828.39C3152.88,3837.19 3148.08,3843.39 3141.58,3843.39ZM3190.18,3792.89C3190.18,3791.49 3188.28,3789.69 3187.08,3789.49L3186.98,3789.49C3185.98,3789.49 3184.98,3789.99 3183.78,3790.09L3163.38,3791.59L3162.28,3791.59C3161.08,3791.59 3160.38,3791.49 3159.48,3791.49C3159.18,3791.49 3159.08,3791.69 3159.08,3791.99C3159.08,3792.69 3159.78,3794.19 3160.78,3795.29C3161.48,3795.89 3162.18,3796.09 3162.78,3796.09C3163.48,3796.09 3164.28,3795.99 3164.98,3795.89L3184.68,3794.09C3178.58,3808.49 3172.78,3823.99 3168.48,3837.49C3168.08,3838.89 3167.38,3841.09 3166.58,3843.39C3166.48,3843.89 3166.08,3844.59 3166.08,3845.29C3166.08,3845.99 3166.48,3846.69 3167.98,3846.89C3168.38,3846.89 3168.78,3846.99 3169.08,3846.99C3170.28,3846.99 3170.98,3846.69 3171.18,3845.79C3173.58,3834.29 3181.58,3812.29 3188.38,3796.99C3188.78,3795.99 3189.98,3794.49 3190.18,3793.19L3190.18,3792.89Z" style="fill-rule:nonzero;"/>
        </g>
    </g>
</svg>
