<?xml version="1.0" encoding="UTF-8" standalone="no"?>
<!DOCTYPE svg PUBLIC "-//W3C//DTD SVG 1.1//EN" "http://www.w3.org/Graphics/SVG/1.1/DTD/svg11.dtd">
<svg width="100%" height="100%" viewBox="0 0 89 89" version="1.1" xmlns="http://www.w3.org/2000/svg" xmlns:xlink="http://www.w3.org/1999/xlink" xml:space="preserve" xmlns:serif="http://www.serif.com/" style="fill-rule:evenodd;clip-rule:evenodd;stroke-linejoin:round;stroke-miterlimit:2;">
    <g transform="matrix(1,0,0,1,-1840.22,-888.665)">
        <g transform="matrix(1,0,0,1,-1072.97,-2735.12)">
            <path d="M3001.38,3711.99L3001.38,3623.79L2913.18,3623.79L2913.18,3711.99L3001.38,3711.99ZM2997.28,3707.89L2917.28,3707.89L2917.28,3627.89L2997.28,3627.89L2997.28,3707.89ZM2951.98,3644.19C2952.48,3644.19 2952.68,3643.69 2952.68,3643.09C2952.68,3641.79 2951.68,3639.69 2950.78,3639.69L2950.58,3639.69C2949.38,3639.99 2947.38,3640.09 2946.08,3640.19L2933.18,3641.09C2932.18,3640.59 2931.18,3640.19 2930.48,3640.19C2929.88,3640.19 2929.58,3640.39 2929.58,3641.09C2929.58,3642.09 2929.48,3643.49 2929.38,3644.59L2927.68,3664.29C2927.58,3664.69 2926.98,3667.29 2926.98,3667.99C2926.98,3669.99 2928.68,3671.49 2929.78,3671.49C2930.48,3671.49 2932.18,3669.39 2932.28,3669.19C2934.58,3666.59 2937.58,3664.79 2941.18,3664.79C2947.38,3664.79 2951.38,3669.79 2951.38,3678.09C2951.38,3685.89 2947.88,3693.09 2938.78,3693.09C2933.68,3693.09 2930.38,3689.29 2927.88,3684.99C2927.78,3684.59 2927.48,3684.39 2927.28,3684.39C2926.28,3684.39 2925.18,3686.59 2925.18,3688.39C2925.18,3690.99 2931.78,3697.49 2938.78,3697.49C2950.68,3697.49 2955.48,3688.29 2955.48,3677.99C2955.48,3666.99 2949.18,3660.59 2941.88,3660.59C2937.28,3660.59 2934.08,3662.29 2931.28,3665.09L2933.08,3645.49L2946.68,3644.49L2951.98,3644.19ZM2976.38,3664.69C2982.28,3662.89 2986.78,3657.89 2986.78,3651.09C2986.78,3643.29 2981.78,3638.69 2974.38,3638.69C2965.98,3638.69 2959.78,3645.39 2959.78,3647.49C2959.78,3649.19 2961.28,3650.89 2961.88,3650.89C2962.58,3650.89 2963.08,3649.89 2963.28,3649.59C2966.78,3644.99 2970.28,3642.89 2974.38,3642.89C2979.68,3642.89 2982.68,3646.19 2982.68,3651.59C2982.68,3657.59 2975.98,3663.19 2967.38,3663.89C2966.78,3663.99 2966.58,3664.49 2966.58,3665.09C2966.58,3666.39 2967.48,3668.29 2968.68,3668.29C2968.88,3668.29 2968.98,3668.19 2969.08,3668.19C2971.88,3667.49 2973.48,3667.49 2974.38,3667.49C2980.38,3667.49 2984.78,3672.09 2984.78,3678.69C2984.78,3686.09 2981.08,3693.19 2971.78,3693.19C2966.98,3693.19 2963.98,3690.39 2961.08,3686.19C2960.88,3685.89 2960.68,3685.69 2960.38,3685.69C2959.38,3685.69 2958.48,3687.79 2958.48,3689.39C2958.48,3690.09 2958.48,3690.59 2958.88,3690.99C2962.58,3695.19 2966.68,3697.49 2971.78,3697.49C2983.88,3697.49 2988.88,3688.79 2988.88,3678.59C2988.88,3669.99 2983.38,3664.69 2977.28,3664.69L2976.38,3664.69Z" style="fill-rule:nonzero;"/>
        </g>
    </g>
</svg>
