<?xml version="1.0" encoding="UTF-8" standalone="no"?>
<!DOCTYPE svg PUBLIC "-//W3C//DTD SVG 1.1//EN" "http://www.w3.org/Graphics/SVG/1.1/DTD/svg11.dtd">
<svg width="100%" height="100%" viewBox="0 0 89 89" version="1.1" xmlns="http://www.w3.org/2000/svg" xmlns:xlink="http://www.w3.org/1999/xlink" xml:space="preserve" xmlns:serif="http://www.serif.com/" style="fill-rule:evenodd;clip-rule:evenodd;stroke-linejoin:round;stroke-miterlimit:2;">
    <g transform="matrix(1,0,0,1,-2140.22,-1188.66)">
        <g transform="matrix(1,0,0,1,-1072.97,-2735.12)">
            <path d="M3301.38,4011.99L3301.38,3923.79L3213.18,3923.79L3213.18,4011.99L3301.38,4011.99ZM3297.28,4007.89L3217.28,4007.89L3217.28,3927.89L3297.28,3927.89L3297.28,4007.89ZM3267.68,3943.59C3267.68,3942.99 3266.78,3942.99 3266.68,3942.99C3264.48,3942.99 3260.38,3956.29 3260.38,3968.89C3260.38,3985.39 3264.88,3997.49 3274.28,3997.49C3284.18,3997.49 3288.98,3983.39 3288.98,3966.79C3288.98,3950.49 3284.38,3938.59 3275.98,3938.59C3272.58,3938.59 3269.78,3940.59 3267.68,3943.59ZM3242.38,3963.69C3248.18,3958.99 3254.88,3951.69 3254.88,3949.19C3254.88,3948.29 3254.38,3947.69 3253.78,3947.69C3253.18,3947.69 3252.68,3947.89 3252.08,3948.59L3251.78,3948.99C3251.98,3948.49 3252.18,3947.89 3252.18,3947.49C3252.18,3946.69 3247.98,3938.79 3240.18,3938.79C3231.78,3938.79 3226.88,3945.09 3226.88,3952.19C3226.88,3957.49 3228.68,3960.89 3234.98,3964.49C3228.58,3969.49 3224.78,3974.99 3224.78,3982.29C3224.78,3990.89 3230.08,3997.49 3238.98,3997.49C3248.78,3997.49 3255.28,3991.09 3255.28,3981.19C3255.28,3973.39 3251.38,3968.29 3243.18,3964.09L3242.38,3963.69ZM3274.08,3993.19C3266.78,3993.19 3264.28,3981.99 3264.28,3968.79C3264.28,3951.39 3270.68,3942.69 3275.68,3942.69C3282.58,3942.69 3285.08,3954.99 3285.08,3966.19C3285.08,3979.89 3281.98,3993.19 3274.08,3993.19ZM3238.78,3966.49C3246.08,3970.19 3251.28,3973.39 3251.28,3981.59C3251.28,3988.49 3246.08,3993.19 3238.98,3993.19C3231.88,3993.19 3228.78,3987.59 3228.78,3982.09C3228.78,3976.29 3232.48,3971.59 3238.78,3966.49ZM3250.68,3950.19C3247.28,3954.19 3243.28,3958.29 3238.68,3961.69C3232.68,3958.59 3230.88,3956.39 3230.88,3952.19C3230.88,3947.49 3233.98,3942.89 3240.18,3942.89C3244.28,3942.89 3246.68,3945.39 3248.68,3949.29C3249.08,3950.09 3249.58,3950.39 3249.98,3950.39C3250.18,3950.39 3250.48,3950.29 3250.68,3950.19Z" style="fill-rule:nonzero;"/>
        </g>
    </g>
</svg>
