<?xml version="1.0" encoding="UTF-8" standalone="no"?>
<!DOCTYPE svg PUBLIC "-//W3C//DTD SVG 1.1//EN" "http://www.w3.org/Graphics/SVG/1.1/DTD/svg11.dtd">
<svg width="100%" height="100%" viewBox="0 0 89 89" version="1.1" xmlns="http://www.w3.org/2000/svg" xmlns:xlink="http://www.w3.org/1999/xlink" xml:space="preserve" xmlns:serif="http://www.serif.com/" style="fill-rule:evenodd;clip-rule:evenodd;stroke-linejoin:round;stroke-miterlimit:2;">
    <g transform="matrix(1,0,0,1,-2640.22,-738.665)">
        <g transform="matrix(1,0,0,1,-1072.97,-2735.12)">
            <path d="M3801.38,3561.99L3801.38,3473.79L3713.18,3473.79L3713.18,3561.99L3801.38,3561.99ZM3797.28,3557.89L3717.28,3557.89L3717.28,3477.89L3797.28,3477.89L3797.28,3557.89ZM3778.88,3547.09C3780.58,3546.99 3781.58,3546.49 3781.68,3545.39C3782.58,3534.99 3786.38,3512.09 3789.38,3496.99L3790.28,3493.99L3790.28,3493.69C3790.28,3492.49 3788.88,3490.99 3787.28,3490.99C3785.88,3490.99 3786.18,3493.49 3785.68,3495.69C3784.78,3493.39 3781.48,3488.69 3774.78,3488.69C3765.18,3488.69 3757.88,3499.49 3757.88,3510.39C3757.88,3519.59 3762.38,3524.89 3768.88,3524.89C3773.88,3524.89 3779.18,3521.19 3782.18,3515.49C3778.38,3538.79 3778.08,3540.09 3777.48,3543.79C3777.38,3544.49 3777.18,3545.19 3777.18,3545.79C3777.18,3546.59 3777.48,3547.09 3778.68,3547.09L3778.88,3547.09ZM3750.28,3533.19C3752.28,3533.19 3754.98,3533.39 3755.98,3533.39C3756.48,3533.39 3756.68,3532.89 3756.68,3532.29C3756.68,3530.89 3755.58,3528.59 3754.38,3528.59C3753.48,3528.59 3751.48,3528.99 3750.18,3529.09L3748.88,3529.19L3748.88,3512.49C3748.88,3510.49 3749.08,3506.59 3749.08,3505.29C3749.08,3503.89 3747.08,3502.99 3745.78,3502.99C3745.08,3502.99 3744.48,3503.29 3744.48,3503.79C3744.48,3505.69 3744.68,3510.89 3744.68,3512.49L3744.68,3529.39L3727.58,3529.79C3732.68,3520.19 3739.28,3507.19 3743.38,3498.29C3743.98,3496.99 3745.08,3495.09 3745.88,3493.79C3746.08,3493.59 3746.08,3493.29 3746.08,3492.99C3746.08,3491.29 3743.98,3488.89 3742.78,3488.89C3742.48,3488.89 3742.18,3488.99 3742.08,3489.39C3739.78,3495.79 3733.68,3509.59 3725.18,3525.49C3724.58,3526.59 3723.58,3527.79 3722.68,3529.19C3722.38,3529.69 3722.28,3530.29 3722.28,3530.79C3722.28,3532.69 3723.98,3534.49 3725.38,3534.49C3725.58,3534.49 3725.68,3534.39 3725.88,3534.39C3726.98,3534.09 3728.08,3533.89 3728.58,3533.89L3744.68,3533.39L3744.68,3537.79C3744.68,3538.99 3744.48,3543.59 3744.48,3544.89C3744.48,3546.29 3746.58,3547.19 3747.98,3547.19C3748.78,3547.19 3749.28,3546.89 3749.28,3546.39C3749.28,3544.49 3748.88,3541.29 3748.88,3537.99L3748.88,3533.19L3750.28,3533.19ZM3784.38,3503.19C3783.78,3504.99 3783.08,3507.39 3782.38,3508.89C3778.78,3515.89 3774.98,3520.49 3768.78,3520.49C3764.28,3520.49 3761.98,3516.99 3761.98,3510.09C3761.98,3502.69 3766.68,3492.89 3775.08,3492.89C3780.08,3492.89 3782.18,3496.79 3783.08,3498.99C3783.38,3499.69 3783.68,3499.99 3784.08,3499.99C3784.38,3499.99 3784.78,3499.69 3785.08,3499.29L3784.38,3503.19Z" style="fill-rule:nonzero;"/>
        </g>
    </g>
</svg>
