<?xml version="1.0" encoding="UTF-8" standalone="no"?>
<!DOCTYPE svg PUBLIC "-//W3C//DTD SVG 1.1//EN" "http://www.w3.org/Graphics/SVG/1.1/DTD/svg11.dtd">
<svg width="100%" height="100%" viewBox="0 0 85 75" version="1.1" xmlns="http://www.w3.org/2000/svg" xmlns:xlink="http://www.w3.org/1999/xlink" xml:space="preserve" xmlns:serif="http://www.serif.com/" style="fill-rule:evenodd;clip-rule:evenodd;stroke-linejoin:round;stroke-miterlimit:2;">
    <g transform="matrix(1,0,0,1,-4024.75,-2319.37)">
        <g transform="matrix(1.41414,0,0,1.41429,-1534.59,-78.5653)">
            <path d="M3949.99,1742.25L3943.41,1723.93C3942.78,1721.95 3942.21,1721.6 3940.87,1721.6C3939.31,1721.6 3937.26,1722.24 3937.12,1723.37C3936.98,1724.85 3936.98,1725.42 3936.27,1727.47C3933.16,1736.59 3933.02,1736.87 3931.39,1739.56C3931.32,1739.7 3931.25,1739.84 3931.25,1740.05C3931.25,1741.18 3932.73,1742.95 3933.87,1742.95C3934.71,1742.95 3934.93,1742.32 3936.69,1736.94L3940.3,1726.55L3946.24,1742.95C3946.59,1743.94 3947.09,1745.36 3947.51,1746.84C3947.72,1747.62 3948.57,1747.97 3949.49,1747.97C3950.91,1747.97 3952.53,1747.2 3952.74,1746.06C3952.89,1745.36 3953.24,1744.15 3953.66,1742.95L3969.71,1699.4L3983.86,1699.4C3985.55,1699.4 3987.74,1699.54 3989.87,1699.54C3990.43,1699.54 3990.71,1699.04 3990.71,1698.41C3990.71,1697.21 3989.8,1695.51 3988.38,1695.51L3988.17,1695.51C3986.9,1695.65 3985.48,1695.79 3983.71,1695.79L3972.9,1695.79C3971.41,1695.79 3970.21,1695.72 3969.01,1695.58L3968.8,1695.58C3967.81,1695.58 3966.46,1696.57 3966.18,1697.63C3965.97,1698.55 3965.68,1699.61 3965.19,1701.02L3949.99,1742.25Z" style="fill-rule:nonzero;"/>
        </g>
    </g>
</svg>
