<?xml version="1.0" encoding="UTF-8" standalone="no"?>
<!DOCTYPE svg PUBLIC "-//W3C//DTD SVG 1.1//EN" "http://www.w3.org/Graphics/SVG/1.1/DTD/svg11.dtd">
<svg width="100%" height="100%" viewBox="0 0 89 89" version="1.1" xmlns="http://www.w3.org/2000/svg" xmlns:xlink="http://www.w3.org/1999/xlink" xml:space="preserve" xmlns:serif="http://www.serif.com/" style="fill-rule:evenodd;clip-rule:evenodd;stroke-linejoin:round;stroke-miterlimit:2;">
    <g transform="matrix(1,0,0,1,-1740.22,-1338.66)">
        <g transform="matrix(1,0,0,1,-1072.97,-2735.12)">
            <path d="M2901.38,4161.99L2901.38,4073.79L2813.18,4073.79L2813.18,4161.99L2901.38,4161.99ZM2897.28,4157.89L2817.28,4157.89L2817.28,4077.89L2897.28,4077.89L2897.28,4157.89ZM2843.08,4113.69C2846.48,4110.99 2855.68,4101.79 2855.68,4099.19C2855.68,4098.29 2855.18,4097.69 2854.48,4097.69C2853.98,4097.69 2853.38,4097.89 2852.78,4098.59L2852.48,4098.99C2852.78,4098.49 2852.88,4097.89 2852.88,4097.49C2852.88,4097.19 2852.78,4096.89 2852.78,4096.69C2850.08,4092.39 2846.28,4088.79 2840.88,4088.79C2832.48,4088.79 2827.58,4095.09 2827.58,4102.19C2827.58,4107.49 2829.38,4110.89 2835.68,4114.49C2829.28,4119.49 2825.48,4124.99 2825.48,4132.29C2825.48,4140.89 2830.78,4147.49 2839.68,4147.49C2849.48,4147.49 2855.98,4141.09 2855.98,4131.19C2855.98,4123.39 2852.18,4118.29 2843.98,4114.09L2843.08,4113.69ZM2877.88,4113.69C2881.28,4110.99 2890.48,4101.79 2890.48,4099.19C2890.48,4098.29 2889.98,4097.69 2889.28,4097.69C2888.78,4097.69 2888.28,4097.89 2887.68,4098.59L2887.28,4098.99C2887.58,4098.49 2887.68,4097.89 2887.68,4097.49C2887.68,4097.19 2887.68,4096.89 2887.58,4096.69C2884.88,4092.39 2881.08,4088.79 2875.68,4088.79C2867.28,4088.79 2862.38,4095.09 2862.38,4102.19C2862.38,4107.49 2864.18,4110.89 2870.58,4114.49C2864.08,4119.49 2860.28,4124.99 2860.28,4132.29C2860.28,4140.89 2865.58,4147.49 2874.48,4147.49C2884.28,4147.49 2890.78,4141.09 2890.78,4131.19C2890.78,4123.39 2886.98,4118.29 2878.78,4114.09L2877.88,4113.69ZM2874.28,4116.49C2881.58,4120.19 2886.78,4123.39 2886.78,4131.59C2886.78,4138.49 2881.58,4143.19 2874.48,4143.19C2867.38,4143.19 2864.28,4137.59 2864.28,4132.09C2864.28,4126.29 2867.98,4121.59 2874.28,4116.49ZM2839.48,4116.49C2846.78,4120.19 2851.98,4123.39 2851.98,4131.59C2851.98,4138.49 2846.78,4143.19 2839.68,4143.19C2832.58,4143.19 2829.48,4137.59 2829.48,4132.09C2829.48,4126.29 2833.18,4121.59 2839.48,4116.49ZM2886.18,4100.19C2882.78,4104.19 2878.78,4108.29 2874.18,4111.69C2868.18,4108.59 2866.38,4106.39 2866.38,4102.19C2866.38,4097.49 2869.48,4092.89 2875.78,4092.89C2879.78,4092.89 2882.18,4095.39 2884.18,4099.29C2884.68,4100.09 2885.08,4100.39 2885.48,4100.39C2885.78,4100.39 2885.98,4100.29 2886.18,4100.19ZM2851.38,4100.19C2847.98,4104.19 2843.98,4108.29 2839.38,4111.69C2833.38,4108.59 2831.58,4106.39 2831.58,4102.19C2831.58,4097.49 2834.68,4092.89 2840.98,4092.89C2844.98,4092.89 2847.38,4095.39 2849.38,4099.29C2849.78,4100.09 2850.28,4100.39 2850.68,4100.39C2850.98,4100.39 2851.18,4100.29 2851.38,4100.19Z" style="fill-rule:nonzero;"/>
        </g>
    </g>
</svg>
