<?xml version="1.0" encoding="UTF-8" standalone="no"?>
<!DOCTYPE svg PUBLIC "-//W3C//DTD SVG 1.1//EN" "http://www.w3.org/Graphics/SVG/1.1/DTD/svg11.dtd">
<svg width="100%" height="100%" viewBox="0 0 89 89" version="1.1" xmlns="http://www.w3.org/2000/svg" xmlns:xlink="http://www.w3.org/1999/xlink" xml:space="preserve" xmlns:serif="http://www.serif.com/" style="fill-rule:evenodd;clip-rule:evenodd;stroke-linejoin:round;stroke-miterlimit:2;">
    <g transform="matrix(1,0,0,1,-1840.22,-288.665)">
        <g transform="matrix(1,0,0,1,-1072.97,-2735.12)">
            <path d="M3001.38,3111.99L3001.38,3023.79L2913.18,3023.79L2913.18,3111.99L3001.38,3111.99ZM2997.28,3107.89L2917.28,3107.89L2917.28,3027.89L2997.28,3027.89L2997.28,3107.89ZM2934.08,3044.19C2933.98,3043.89 2933.58,3043.59 2933.18,3043.59C2931.08,3043.59 2926.98,3055.99 2926.98,3069.49C2926.98,3085.99 2931.38,3098.09 2940.58,3098.09C2950.28,3098.09 2954.98,3083.99 2954.98,3067.39C2954.98,3051.09 2950.48,3039.19 2942.18,3039.19C2938.88,3039.19 2936.18,3041.19 2934.08,3044.19ZM2940.38,3093.79C2933.18,3093.79 2930.78,3082.59 2930.78,3069.39C2930.78,3051.99 2937.08,3043.29 2941.88,3043.29C2948.78,3043.29 2951.18,3055.59 2951.18,3066.79C2951.18,3080.49 2948.18,3093.79 2940.38,3093.79ZM2988.58,3043.29C2988.58,3041.89 2986.78,3040.09 2985.68,3039.89L2985.48,3039.89C2984.58,3039.89 2983.58,3040.39 2982.48,3040.49L2963.08,3041.99L2962.08,3041.99C2960.88,3041.99 2960.18,3041.89 2959.38,3041.89C2959.08,3041.89 2958.98,3042.09 2958.98,3042.39C2958.98,3044.09 2960.98,3046.49 2962.58,3046.49C2963.18,3046.49 2963.88,3046.39 2964.58,3046.29L2983.28,3044.49C2980.38,3051.69 2974.08,3067.99 2966.18,3093.79C2966.08,3094.29 2965.68,3094.99 2965.68,3095.69C2965.68,3096.39 2966.08,3097.09 2967.48,3097.29C2967.88,3097.29 2968.28,3097.39 2968.48,3097.39C2969.68,3097.39 2970.28,3097.09 2970.48,3096.19C2973.18,3083.09 2981.18,3060.89 2986.78,3047.39C2987.28,3046.39 2988.38,3044.89 2988.58,3043.59L2988.58,3043.29Z" style="fill-rule:nonzero;"/>
        </g>
    </g>
</svg>
