<?xml version="1.0" encoding="UTF-8" standalone="no"?>
<!DOCTYPE svg PUBLIC "-//W3C//DTD SVG 1.1//EN" "http://www.w3.org/Graphics/SVG/1.1/DTD/svg11.dtd">
<svg width="100%" height="100%" viewBox="0 0 89 89" version="1.1" xmlns="http://www.w3.org/2000/svg" xmlns:xlink="http://www.w3.org/1999/xlink" xml:space="preserve" xmlns:serif="http://www.serif.com/" style="fill-rule:evenodd;clip-rule:evenodd;stroke-linejoin:round;stroke-miterlimit:2;">
    <g transform="matrix(1,0,0,1,-1740.22,-288.665)">
        <g transform="matrix(1,0,0,1,-1072.97,-2735.12)">
            <path d="M2901.38,3111.99L2901.38,3023.79L2813.18,3023.79L2813.18,3111.99L2901.38,3111.99ZM2897.28,3107.89L2817.28,3107.89L2817.28,3027.89L2897.28,3027.89L2897.28,3107.89ZM2876.98,3040.19C2876.98,3038.89 2874.98,3036.99 2873.08,3036.79L2872.78,3036.79C2871.98,3036.79 2871.68,3037.19 2869.38,3037.39L2842.28,3039.19C2841.58,3039.29 2840.88,3039.29 2840.28,3039.29C2839.08,3039.29 2838.08,3039.19 2837.18,3039.19C2836.88,3039.19 2836.68,3039.39 2836.68,3039.69C2836.68,3040.49 2838.78,3043.89 2841.18,3043.89C2842.18,3043.89 2843.08,3043.59 2844.08,3043.49L2871.08,3041.29C2862.78,3055.09 2856.28,3069.39 2849.78,3084.79C2849.28,3085.89 2846.58,3091.49 2846.58,3092.59C2846.58,3093.29 2847.08,3093.99 2848.68,3094.19C2849.18,3094.19 2849.58,3094.29 2849.98,3094.29C2851.38,3094.29 2852.28,3093.99 2852.48,3093.09C2856.78,3076.39 2873.98,3045.49 2874.68,3044.19C2875.18,3043.29 2876.68,3041.79 2876.98,3040.49L2876.98,3040.19Z" style="fill-rule:nonzero;"/>
        </g>
    </g>
</svg>
