<?xml version="1.0" encoding="UTF-8" standalone="no"?>
<!DOCTYPE svg PUBLIC "-//W3C//DTD SVG 1.1//EN" "http://www.w3.org/Graphics/SVG/1.1/DTD/svg11.dtd">
<svg width="100%" height="100%" viewBox="0 0 89 89" version="1.1" xmlns="http://www.w3.org/2000/svg" xmlns:xlink="http://www.w3.org/1999/xlink" xml:space="preserve" xmlns:serif="http://www.serif.com/" style="fill-rule:evenodd;clip-rule:evenodd;stroke-linejoin:round;stroke-miterlimit:2;">
    <g transform="matrix(1,0,0,1,-2140.22,-1638.66)">
        <g transform="matrix(1,0,0,1,-1072.97,-2735.12)">
            <path d="M3301.38,4461.99L3301.38,4373.79L3213.18,4373.79L3213.18,4461.99L3301.38,4461.99ZM3297.28,4457.89L3217.28,4457.89L3217.28,4377.89L3297.28,4377.89L3297.28,4457.89ZM3241.48,4437.39C3241.48,4440.39 3241.28,4443.59 3241.28,4444.99C3241.28,4446.29 3243.48,4447.29 3244.98,4447.29C3245.68,4447.29 3246.28,4446.99 3246.28,4446.49C3246.28,4444.49 3245.98,4440.99 3245.98,4437.49L3245.98,4428.09C3248.28,4431.99 3253.18,4433.99 3257.48,4433.99C3269.08,4433.99 3277.18,4421.89 3277.18,4409.09C3277.18,4398.09 3271.98,4391.59 3262.78,4391.59C3256.18,4391.59 3248.88,4395.79 3246.08,4402.09C3246.08,4402.09 3246.28,4395.49 3246.28,4394.09C3246.28,4392.79 3243.98,4391.79 3242.48,4391.79C3241.68,4391.79 3241.18,4392.09 3241.18,4392.59C3241.28,4394.59 3241.48,4397.99 3241.48,4401.49L3241.48,4437.39ZM3246.38,4411.29C3248.18,4402.39 3255.58,4395.79 3262.78,4395.79C3268.58,4395.79 3272.18,4400.39 3272.18,4409.49C3272.18,4419.89 3265.98,4429.89 3256.88,4429.89C3253.88,4429.89 3250.78,4428.49 3248.48,4425.29C3247.88,4424.39 3247.18,4423.99 3246.58,4423.99C3246.38,4423.99 3246.18,4424.09 3245.98,4424.19C3245.98,4418.39 3245.98,4412.79 3246.38,4411.29Z" style="fill-rule:nonzero;"/>
        </g>
    </g>
</svg>
