<?xml version="1.0" encoding="UTF-8" standalone="no"?>
<!DOCTYPE svg PUBLIC "-//W3C//DTD SVG 1.1//EN" "http://www.w3.org/Graphics/SVG/1.1/DTD/svg11.dtd">
<svg width="100%" height="100%" viewBox="0 0 89 89" version="1.1" xmlns="http://www.w3.org/2000/svg" xmlns:xlink="http://www.w3.org/1999/xlink" xml:space="preserve" xmlns:serif="http://www.serif.com/" style="fill-rule:evenodd;clip-rule:evenodd;stroke-linejoin:round;stroke-miterlimit:2;">
    <g transform="matrix(1,0,0,1,-2440.22,-1038.66)">
        <g transform="matrix(1,0,0,1,-1072.97,-2735.12)">
            <path d="M3601.38,3861.99L3601.38,3773.79L3513.18,3773.79L3513.18,3861.99L3601.38,3861.99ZM3597.28,3857.89L3517.28,3857.89L3517.28,3777.89L3597.28,3777.89L3597.28,3857.89ZM3557.68,3792.89C3557.68,3791.49 3555.78,3789.69 3554.58,3789.49L3554.38,3789.49C3553.48,3789.49 3552.38,3789.99 3551.28,3790.09L3530.88,3791.59L3529.78,3791.59C3528.58,3791.59 3527.78,3791.49 3526.98,3791.49C3526.68,3791.49 3526.58,3791.69 3526.58,3791.99C3526.58,3793.59 3528.18,3796.09 3530.28,3796.09C3530.98,3796.09 3531.68,3795.99 3532.48,3795.89L3552.18,3794.09C3546.08,3808.49 3540.28,3823.99 3535.98,3837.49C3535.58,3838.89 3534.88,3841.09 3534.08,3843.39C3533.98,3843.89 3533.58,3844.59 3533.58,3845.29C3533.58,3845.99 3533.98,3846.69 3535.48,3846.89C3535.88,3846.89 3536.28,3846.99 3536.58,3846.99C3537.78,3846.99 3538.48,3846.69 3538.68,3845.79C3541.08,3834.29 3549.08,3812.29 3555.88,3796.99C3556.28,3795.99 3557.48,3794.49 3557.68,3793.19L3557.68,3792.89ZM3577.18,3837.89C3577.18,3839.59 3576.98,3843.69 3576.98,3844.99C3576.98,3846.29 3579.08,3847.19 3580.58,3847.19C3581.18,3847.19 3581.78,3846.99 3581.78,3846.39C3581.68,3844.29 3581.58,3839.59 3581.58,3837.39L3581.58,3797.09C3581.58,3794.79 3582.08,3793.39 3582.08,3792.09C3582.08,3790.59 3580.38,3789.09 3579.18,3789.09C3578.08,3789.09 3576.48,3791.39 3575.88,3791.89C3573.58,3793.79 3569.88,3795.89 3566.08,3797.49C3565.58,3797.69 3565.38,3797.99 3565.38,3798.29C3565.38,3799.19 3567.08,3800.09 3568.38,3800.09C3568.68,3800.09 3568.98,3800.09 3569.18,3799.99C3571.78,3799.19 3574.98,3797.89 3577.18,3796.49L3577.18,3837.89Z" style="fill-rule:nonzero;"/>
        </g>
    </g>
</svg>
