<?xml version="1.0" encoding="UTF-8" standalone="no"?>
<!DOCTYPE svg PUBLIC "-//W3C//DTD SVG 1.1//EN" "http://www.w3.org/Graphics/SVG/1.1/DTD/svg11.dtd">
<svg width="100%" height="100%" viewBox="0 0 89 89" version="1.1" xmlns="http://www.w3.org/2000/svg" xmlns:xlink="http://www.w3.org/1999/xlink" xml:space="preserve" xmlns:serif="http://www.serif.com/" style="fill-rule:evenodd;clip-rule:evenodd;stroke-linejoin:round;stroke-miterlimit:2;">
    <g transform="matrix(1,0,0,1,-1840.22,-1038.66)">
        <g transform="matrix(1,0,0,1,-1072.97,-2735.12)">
            <path d="M3001.38,3861.99L3001.38,3773.79L2913.18,3773.79L2913.18,3861.99L3001.38,3861.99ZM2997.28,3857.89L2917.28,3857.89L2917.28,3777.89L2997.28,3777.89L2997.28,3857.89ZM2940.48,3789.59C2939.58,3790.79 2934.48,3800.29 2930.48,3809.29C2927.18,3816.79 2925.48,3823.59 2925.48,3830.39C2925.48,3839.79 2932.08,3847.49 2940.88,3847.49C2950.48,3847.49 2956.28,3839.09 2956.28,3828.19C2956.28,3818.39 2950.58,3811.19 2942.08,3811.19C2937.38,3811.19 2933.58,3813.59 2931.18,3817.49C2934.48,3809.29 2937.88,3801.09 2944.48,3792.09C2944.78,3791.69 2945.28,3790.99 2945.28,3790.39C2945.28,3789.69 2943.98,3788.59 2942.28,3788.59C2941.48,3788.59 2940.78,3788.89 2940.48,3789.59ZM2986.58,3794.19C2987.08,3794.19 2987.28,3793.69 2987.28,3793.09C2987.28,3791.79 2986.28,3789.69 2985.38,3789.69L2985.18,3789.69C2983.98,3789.99 2981.98,3790.09 2980.78,3790.19L2967.78,3791.09C2966.78,3790.59 2965.78,3790.19 2965.08,3790.19C2964.48,3790.19 2964.18,3790.39 2964.18,3791.09C2964.18,3792.09 2964.08,3793.49 2963.98,3794.59L2962.28,3814.29C2962.18,3814.69 2961.58,3817.29 2961.58,3817.99C2961.58,3819.99 2963.28,3821.49 2964.38,3821.49C2965.08,3821.49 2966.78,3819.39 2966.88,3819.19C2969.18,3816.59 2972.18,3814.79 2975.78,3814.79C2981.98,3814.79 2986.08,3819.79 2986.08,3828.09C2986.08,3835.89 2982.48,3843.09 2973.38,3843.09C2968.28,3843.09 2964.98,3839.29 2962.48,3834.99C2962.38,3834.59 2962.08,3834.39 2961.88,3834.39C2960.88,3834.39 2959.78,3836.59 2959.78,3838.39C2959.78,3840.99 2966.38,3847.49 2973.38,3847.49C2985.28,3847.49 2990.08,3838.29 2990.08,3827.99C2990.08,3816.99 2983.78,3810.59 2976.48,3810.59C2971.88,3810.59 2968.68,3812.29 2965.88,3815.09L2967.68,3795.49L2981.28,3794.49L2986.58,3794.19ZM2940.88,3843.39C2934.18,3843.39 2929.48,3837.69 2929.48,3830.29C2929.48,3822.29 2934.38,3815.29 2941.98,3815.29C2948.28,3815.29 2952.18,3821.49 2952.18,3828.39C2952.18,3837.19 2947.38,3843.39 2940.88,3843.39Z" style="fill-rule:nonzero;"/>
        </g>
    </g>
</svg>
