<?xml version="1.0" encoding="UTF-8" standalone="no"?>
<!DOCTYPE svg PUBLIC "-//W3C//DTD SVG 1.1//EN" "http://www.w3.org/Graphics/SVG/1.1/DTD/svg11.dtd">
<svg width="100%" height="100%" viewBox="0 0 89 89" version="1.1" xmlns="http://www.w3.org/2000/svg" xmlns:xlink="http://www.w3.org/1999/xlink" xml:space="preserve" xmlns:serif="http://www.serif.com/" style="fill-rule:evenodd;clip-rule:evenodd;stroke-linejoin:round;stroke-miterlimit:2;">
    <g transform="matrix(1,0,0,1,-1540.22,-288.665)">
        <g transform="matrix(1,0,0,1,-1072.97,-2735.12)">
            <path d="M2701.38,3111.99L2701.38,3023.79L2613.18,3023.79L2613.18,3111.99L2701.38,3111.99ZM2697.28,3107.89L2617.28,3107.89L2617.28,3027.89L2697.28,3027.89L2697.28,3107.89ZM2644.28,3067.29C2648.88,3056.99 2660.28,3044.29 2662.38,3042.19C2662.88,3041.69 2663.48,3041.09 2663.48,3040.39C2663.48,3038.89 2660.98,3038.69 2659.68,3038.69C2658.68,3038.69 2657.58,3038.89 2657.18,3039.69C2656.88,3040.09 2656.28,3041.09 2656.18,3041.39C2652.68,3046.09 2647.38,3052.29 2643.68,3058.49C2639.08,3066.09 2636.28,3072.49 2636.28,3080.49C2636.28,3090.49 2644.18,3097.49 2657.38,3097.49C2671.88,3097.49 2678.58,3089.19 2678.58,3077.89C2678.58,3067.89 2670.08,3061.29 2659.08,3061.29C2652.88,3061.29 2647.38,3063.49 2644.28,3067.29ZM2673.78,3078.19C2673.78,3087.39 2668.48,3093.39 2657.38,3093.39C2646.68,3093.39 2641.18,3088.39 2641.18,3080.29C2641.18,3071.39 2650.38,3065.39 2658.88,3065.39C2667.98,3065.39 2673.78,3070.89 2673.78,3078.19Z" style="fill-rule:nonzero;"/>
        </g>
    </g>
</svg>
