<?xml version="1.0" encoding="UTF-8" standalone="no"?>
<!DOCTYPE svg PUBLIC "-//W3C//DTD SVG 1.1//EN" "http://www.w3.org/Graphics/SVG/1.1/DTD/svg11.dtd">
<svg width="100%" height="100%" viewBox="0 0 89 89" version="1.1" xmlns="http://www.w3.org/2000/svg" xmlns:xlink="http://www.w3.org/1999/xlink" xml:space="preserve" xmlns:serif="http://www.serif.com/" style="fill-rule:evenodd;clip-rule:evenodd;stroke-linejoin:round;stroke-miterlimit:2;">
    <g transform="matrix(1,0,0,1,-1640.22,-888.665)">
        <g transform="matrix(1,0,0,1,-1072.97,-2735.12)">
            <path d="M2801.38,3711.99L2801.38,3623.79L2713.18,3623.79L2713.18,3711.99L2801.38,3711.99ZM2797.28,3707.89L2717.28,3707.89L2717.28,3627.89L2797.28,3627.89L2797.28,3707.89ZM2756.68,3644.19C2757.18,3644.19 2757.48,3643.69 2757.48,3643.09C2757.48,3641.79 2756.38,3639.69 2755.28,3639.69L2755.08,3639.69C2753.78,3639.99 2751.58,3640.09 2750.18,3640.19L2735.78,3641.09C2734.68,3640.59 2733.58,3640.19 2732.78,3640.19C2732.18,3640.19 2731.78,3640.39 2731.78,3641.09C2731.78,3642.09 2731.68,3643.49 2731.58,3644.59L2729.68,3664.29C2729.38,3665.29 2728.88,3667.69 2728.88,3667.99C2728.88,3669.99 2730.78,3671.49 2732.08,3671.49C2732.48,3671.49 2732.48,3671.49 2734.78,3669.19C2737.38,3666.59 2740.68,3664.79 2744.68,3664.79C2751.58,3664.79 2756.08,3669.79 2756.08,3678.09C2756.08,3685.89 2752.08,3693.09 2741.98,3693.09C2736.28,3693.09 2732.68,3689.29 2729.98,3684.99C2729.78,3684.59 2729.48,3684.39 2729.18,3684.39C2728.18,3684.39 2726.88,3686.59 2726.88,3688.39C2726.88,3690.99 2734.18,3697.49 2741.98,3697.49C2755.18,3697.49 2760.58,3688.29 2760.58,3677.99C2760.58,3666.99 2753.58,3660.59 2745.48,3660.59C2740.28,3660.59 2736.78,3662.29 2733.68,3665.09L2735.68,3645.49L2750.78,3644.49L2756.68,3644.19ZM2776.48,3687.89C2776.48,3689.59 2776.28,3693.69 2776.28,3694.99C2776.28,3696.29 2778.38,3697.19 2779.88,3697.19C2780.58,3697.19 2781.18,3696.99 2781.18,3696.39C2781.08,3694.29 2780.98,3689.59 2780.98,3687.39L2780.98,3647.09C2780.98,3644.79 2781.48,3643.39 2781.48,3642.09C2781.48,3640.59 2779.78,3639.09 2778.58,3639.09C2777.48,3639.09 2775.88,3641.39 2775.28,3641.89C2772.88,3643.79 2769.28,3645.89 2765.48,3647.49C2764.88,3647.69 2764.68,3647.99 2764.68,3648.29C2764.68,3649.19 2766.48,3650.09 2767.78,3650.09C2768.08,3650.09 2768.38,3650.09 2768.48,3649.99C2771.18,3649.19 2774.28,3647.89 2776.48,3646.49L2776.48,3687.89Z" style="fill-rule:nonzero;"/>
        </g>
    </g>
</svg>
