<?xml version="1.0" encoding="UTF-8" standalone="no"?>
<!DOCTYPE svg PUBLIC "-//W3C//DTD SVG 1.1//EN" "http://www.w3.org/Graphics/SVG/1.1/DTD/svg11.dtd">
<svg width="100%" height="100%" viewBox="0 0 89 89" version="1.1" xmlns="http://www.w3.org/2000/svg" xmlns:xlink="http://www.w3.org/1999/xlink" xml:space="preserve" xmlns:serif="http://www.serif.com/" style="fill-rule:evenodd;clip-rule:evenodd;stroke-linejoin:round;stroke-miterlimit:2;">
    <g transform="matrix(1,0,0,1,-2540.22,-1488.66)">
        <g transform="matrix(1,0,0,1,-1072.97,-2735.12)">
            <path d="M3701.38,4311.99L3701.38,4223.79L3613.18,4223.79L3613.18,4311.99L3701.38,4311.99ZM3697.28,4307.89L3617.28,4307.89L3617.28,4227.89L3697.28,4227.89L3697.28,4307.89ZM3670.28,4295.79C3670.28,4297.09 3672.48,4298.09 3673.98,4298.09C3674.68,4298.09 3675.28,4297.79 3675.28,4297.29C3675.28,4295.29 3675.08,4289.29 3675.08,4288.29L3675.08,4271.99C3675.08,4265.09 3673.38,4256.09 3662.68,4256.09C3656.38,4256.09 3649.08,4259.89 3645.68,4266.79L3645.68,4247.89C3645.68,4245.89 3645.78,4240.79 3645.78,4239.49C3645.78,4238.09 3643.58,4237.19 3642.08,4237.19C3641.38,4237.19 3640.78,4237.39 3640.78,4237.99C3640.78,4239.89 3641.08,4245.39 3641.08,4246.99L3641.08,4287.39C3641.08,4288.59 3640.88,4294.39 3640.88,4295.69C3640.88,4297.09 3643.18,4298.09 3644.68,4298.09C3645.38,4298.09 3645.88,4297.79 3645.88,4297.29C3645.78,4295.19 3645.68,4292.69 3645.68,4290.09L3645.68,4288.29C3645.68,4284.29 3645.68,4277.09 3646.98,4272.79C3649.58,4264.19 3656.68,4260.59 3662.68,4260.59C3669.18,4260.59 3670.48,4265.59 3670.48,4272.29L3670.48,4287.39C3670.48,4289.39 3670.38,4294.39 3670.28,4295.69L3670.28,4295.79Z" style="fill-rule:nonzero;"/>
        </g>
    </g>
</svg>
