<?xml version="1.0" encoding="UTF-8" standalone="no"?>
<!DOCTYPE svg PUBLIC "-//W3C//DTD SVG 1.1//EN" "http://www.w3.org/Graphics/SVG/1.1/DTD/svg11.dtd">
<svg width="100%" height="100%" viewBox="0 0 89 89" version="1.1" xmlns="http://www.w3.org/2000/svg" xmlns:xlink="http://www.w3.org/1999/xlink" xml:space="preserve" xmlns:serif="http://www.serif.com/" style="fill-rule:evenodd;clip-rule:evenodd;stroke-linejoin:round;stroke-miterlimit:2;">
    <g transform="matrix(1,0,0,1,-2240.22,-738.665)">
        <g transform="matrix(1,0,0,1,-1072.97,-2735.12)">
            <path d="M3401.38,3561.99L3401.38,3473.79L3313.18,3473.79L3313.18,3561.99L3401.38,3561.99ZM3397.28,3557.89L3317.28,3557.89L3317.28,3477.89L3397.28,3477.89L3397.28,3557.89ZM3386.88,3494.19C3387.38,3494.19 3387.68,3493.69 3387.68,3493.09C3387.68,3491.79 3386.68,3489.69 3385.68,3489.69L3385.48,3489.69C3384.28,3489.99 3382.38,3490.09 3381.08,3490.19L3368.08,3491.09C3367.18,3490.59 3366.08,3490.19 3365.48,3490.19C3364.88,3490.19 3364.48,3490.39 3364.48,3491.09C3364.48,3492.09 3364.38,3493.49 3364.28,3494.59L3362.58,3514.29C3362.48,3514.99 3362.28,3515.99 3361.98,3517.09C3361.98,3517.39 3361.88,3517.69 3361.88,3517.99C3361.88,3519.99 3363.68,3521.49 3364.78,3521.49C3365.38,3521.49 3366.88,3519.59 3367.18,3519.19C3369.58,3516.59 3372.48,3514.79 3376.08,3514.79C3382.38,3514.79 3386.38,3519.79 3386.38,3528.09C3386.38,3535.89 3382.78,3543.09 3373.68,3543.09C3368.58,3543.09 3365.38,3539.29 3362.88,3534.99C3362.68,3534.59 3362.48,3534.39 3362.18,3534.39C3361.28,3534.39 3360.18,3536.59 3360.18,3538.39C3360.18,3539.09 3360.28,3539.69 3360.68,3540.09C3363.88,3544.29 3368.08,3547.49 3373.68,3547.49C3385.58,3547.49 3390.38,3538.29 3390.38,3527.99C3390.38,3516.99 3384.18,3510.59 3376.78,3510.59C3372.18,3510.59 3368.98,3512.29 3366.18,3515.09L3367.98,3495.49L3381.58,3494.49L3386.88,3494.19ZM3351.08,3533.19C3352.98,3533.19 3355.48,3533.39 3356.48,3533.39C3356.98,3533.39 3357.08,3532.89 3357.08,3532.29C3357.08,3530.89 3356.08,3528.59 3354.98,3528.59C3354.08,3528.59 3352.18,3528.99 3350.98,3529.09L3349.78,3529.19L3349.78,3512.49C3349.78,3510.49 3349.98,3506.59 3349.98,3505.29C3349.98,3503.89 3348.08,3502.99 3346.78,3502.99C3346.08,3502.99 3345.58,3503.29 3345.58,3503.79C3345.58,3505.69 3345.78,3510.89 3345.78,3512.49L3345.78,3529.39L3329.48,3529.79C3334.38,3520.19 3340.58,3507.19 3344.48,3498.29C3345.08,3496.99 3346.08,3495.09 3346.88,3493.79C3347.08,3493.59 3347.08,3493.29 3347.08,3492.99C3347.08,3491.29 3345.08,3488.89 3343.98,3488.89C3343.58,3488.89 3343.38,3488.99 3343.28,3489.39C3338.38,3502.99 3330.08,3519.89 3327.18,3525.49C3326.58,3526.59 3325.68,3527.79 3324.88,3529.19C3324.58,3529.69 3324.48,3530.29 3324.48,3530.79C3324.48,3532.69 3326.08,3534.49 3327.48,3534.49C3327.58,3534.49 3327.68,3534.39 3327.88,3534.39C3328.88,3534.09 3329.98,3533.89 3330.48,3533.89L3345.78,3533.39L3345.78,3537.79C3345.78,3538.99 3345.58,3543.59 3345.58,3544.89C3345.58,3546.29 3347.58,3547.19 3348.88,3547.19C3349.58,3547.19 3350.08,3546.89 3350.08,3546.39C3350.08,3544.49 3349.78,3541.29 3349.78,3537.99L3349.78,3533.19L3351.08,3533.19Z" style="fill-rule:nonzero;"/>
        </g>
    </g>
</svg>
