<?xml version="1.0" encoding="UTF-8" standalone="no"?>
<!DOCTYPE svg PUBLIC "-//W3C//DTD SVG 1.1//EN" "http://www.w3.org/Graphics/SVG/1.1/DTD/svg11.dtd">
<svg width="100%" height="100%" viewBox="0 0 89 89" version="1.1" xmlns="http://www.w3.org/2000/svg" xmlns:xlink="http://www.w3.org/1999/xlink" xml:space="preserve" xmlns:serif="http://www.serif.com/" style="fill-rule:evenodd;clip-rule:evenodd;stroke-linejoin:round;stroke-miterlimit:2;">
    <g transform="matrix(1,0,0,1,-2640.22,-1638.66)">
        <g transform="matrix(1,0,0,1,-1072.97,-2735.12)">
            <path d="M3801.38,4461.99L3801.38,4373.79L3713.18,4373.79L3713.18,4461.99L3801.38,4461.99ZM3797.28,4457.89L3717.28,4457.89L3717.28,4377.89L3797.28,4377.89L3797.28,4457.89ZM3774.38,4399.99C3774.38,4398.79 3772.18,4397.89 3770.68,4397.89C3769.88,4397.89 3769.28,4398.19 3769.28,4398.69C3769.28,4400.59 3769.18,4409.99 3769.08,4413.49C3768.38,4426.49 3760.38,4436.09 3752.68,4436.09C3747.18,4436.09 3744.68,4430.89 3744.68,4424.19L3744.68,4407.79C3744.68,4405.79 3744.78,4401.59 3744.78,4400.29C3744.78,4398.89 3742.58,4397.99 3741.08,4397.99C3740.38,4397.99 3739.78,4398.19 3739.78,4398.79C3739.78,4400.69 3740.08,4406.69 3740.08,4407.79L3740.08,4424.49C3740.08,4432.69 3742.88,4440.39 3752.68,4440.39C3759.68,4440.39 3765.38,4436.09 3769.08,4428.09C3769.68,4433.09 3771.18,4439.89 3773.88,4439.89C3775.38,4439.89 3776.78,4437.99 3776.78,4436.79C3776.78,4436.49 3776.68,4436.29 3776.58,4436.09C3773.88,4432.19 3773.38,4423.39 3773.38,4418.69C3773.38,4413.19 3773.98,4403.09 3774.38,4400.19L3774.38,4399.99Z" style="fill-rule:nonzero;"/>
        </g>
    </g>
</svg>
