<?xml version="1.0" encoding="UTF-8" standalone="no"?>
<!DOCTYPE svg PUBLIC "-//W3C//DTD SVG 1.1//EN" "http://www.w3.org/Graphics/SVG/1.1/DTD/svg11.dtd">
<svg width="100%" height="100%" viewBox="0 0 89 89" version="1.1" xmlns="http://www.w3.org/2000/svg" xmlns:xlink="http://www.w3.org/1999/xlink" xml:space="preserve" xmlns:serif="http://www.serif.com/" style="fill-rule:evenodd;clip-rule:evenodd;stroke-linejoin:round;stroke-miterlimit:2;">
    <g transform="matrix(1,0,0,1,-1540.22,-1188.66)">
        <g transform="matrix(1,0,0,1,-1072.97,-2735.12)">
            <path d="M2701.38,4011.99L2701.38,3923.79L2613.18,3923.79L2613.18,4011.99L2701.38,4011.99ZM2697.28,4007.89L2617.28,4007.89L2617.28,3927.89L2697.28,3927.89L2697.28,4007.89ZM2684.48,3983.19C2686.48,3983.19 2689.18,3983.39 2690.18,3983.39C2690.78,3983.39 2690.88,3982.89 2690.88,3982.29C2690.88,3980.89 2689.88,3978.59 2688.68,3978.59C2687.78,3978.59 2685.68,3978.99 2684.38,3979.09L2683.18,3979.19L2683.18,3962.49C2683.18,3960.49 2683.38,3956.59 2683.38,3955.29C2683.38,3953.89 2681.38,3952.99 2679.98,3952.99C2679.28,3952.99 2678.78,3953.29 2678.78,3953.79C2678.78,3955.69 2678.88,3960.89 2678.88,3962.49L2678.88,3979.39L2661.78,3979.79C2666.88,3970.19 2673.48,3957.19 2677.58,3948.29C2678.18,3946.99 2679.28,3945.09 2680.08,3943.79C2680.28,3943.59 2680.28,3943.29 2680.28,3942.99C2680.28,3941.29 2678.18,3938.89 2676.98,3938.89C2676.68,3938.89 2676.38,3938.99 2676.28,3939.39C2673.98,3945.79 2667.88,3959.59 2659.38,3975.49C2658.78,3976.59 2657.68,3977.79 2656.88,3979.19C2656.58,3979.69 2656.48,3980.29 2656.48,3980.79C2656.48,3982.69 2658.18,3984.49 2659.58,3984.49C2659.78,3984.49 2659.88,3984.39 2660.08,3984.39C2661.18,3984.09 2662.18,3983.89 2662.78,3983.89L2678.88,3983.39L2678.88,3987.79C2678.88,3988.99 2678.78,3993.59 2678.78,3994.89C2678.78,3996.29 2680.78,3997.19 2682.28,3997.19C2682.98,3997.19 2683.48,3996.89 2683.48,3996.39C2683.48,3994.49 2683.18,3991.29 2683.18,3987.99L2683.18,3983.19L2684.48,3983.19ZM2655.48,3942.89C2655.48,3941.49 2653.68,3939.69 2652.58,3939.49L2652.38,3939.49C2651.48,3939.49 2650.48,3939.99 2649.38,3940.09L2629.98,3941.59L2628.98,3941.59C2627.88,3941.59 2627.08,3941.49 2626.28,3941.49C2625.98,3941.49 2625.98,3941.69 2625.98,3941.99C2625.98,3942.99 2627.28,3946.09 2629.48,3946.09C2630.08,3946.09 2630.78,3945.99 2631.58,3945.89L2650.18,3944.09C2647.28,3951.29 2640.98,3967.59 2633.08,3993.39C2632.98,3993.89 2632.58,3994.59 2632.58,3995.29C2632.58,3995.99 2632.98,3996.69 2634.38,3996.89C2634.78,3996.89 2635.18,3996.99 2635.38,3996.99C2636.58,3996.99 2637.18,3996.69 2637.38,3995.79C2640.48,3980.99 2648.98,3958.39 2653.78,3946.99C2654.18,3945.99 2655.28,3944.49 2655.48,3943.19L2655.48,3942.89Z" style="fill-rule:nonzero;"/>
        </g>
    </g>
</svg>
