<?xml version="1.0" encoding="UTF-8" standalone="no"?>
<!DOCTYPE svg PUBLIC "-//W3C//DTD SVG 1.1//EN" "http://www.w3.org/Graphics/SVG/1.1/DTD/svg11.dtd">
<svg width="100%" height="100%" viewBox="0 0 89 89" version="1.1" xmlns="http://www.w3.org/2000/svg" xmlns:xlink="http://www.w3.org/1999/xlink" xml:space="preserve" xmlns:serif="http://www.serif.com/" style="fill-rule:evenodd;clip-rule:evenodd;stroke-linejoin:round;stroke-miterlimit:2;">
    <g transform="matrix(1,0,0,1,-2040.22,-738.665)">
        <g transform="matrix(1,0,0,1,-1072.97,-2735.12)">
            <path d="M3201.38,3561.99L3201.38,3473.79L3113.18,3473.79L3113.18,3561.99L3201.38,3561.99ZM3197.28,3557.89L3117.28,3557.89L3117.28,3477.89L3197.28,3477.89L3197.28,3557.89ZM3176.88,3514.69C3182.78,3512.89 3187.28,3507.89 3187.28,3501.09C3187.28,3493.29 3182.28,3488.69 3174.88,3488.69C3166.48,3488.69 3160.28,3495.39 3160.28,3497.49C3160.28,3499.19 3161.78,3500.89 3162.38,3500.89C3163.08,3500.89 3163.58,3499.89 3163.78,3499.59C3167.28,3494.99 3170.68,3492.89 3174.88,3492.89C3180.18,3492.89 3183.18,3496.19 3183.18,3501.59C3183.18,3508.29 3175.48,3513.29 3167.78,3513.89C3167.28,3513.99 3167.08,3514.49 3167.08,3515.09C3167.08,3516.39 3167.98,3518.29 3169.18,3518.29C3169.38,3518.29 3169.48,3518.19 3169.58,3518.19C3170.38,3517.99 3171.88,3517.69 3173.18,3517.59C3173.78,3517.49 3174.28,3517.49 3174.88,3517.49C3180.88,3517.49 3185.28,3522.09 3185.28,3528.69C3185.28,3536.09 3181.58,3543.19 3172.28,3543.19C3167.48,3543.19 3164.48,3540.39 3161.58,3536.19C3161.28,3535.89 3161.18,3535.69 3160.88,3535.69C3159.88,3535.69 3158.98,3537.79 3158.98,3539.39C3158.98,3540.09 3158.98,3540.59 3159.38,3540.99C3163.08,3545.19 3167.18,3547.49 3172.28,3547.49C3184.38,3547.49 3189.38,3538.79 3189.38,3528.59C3189.38,3519.99 3183.88,3514.69 3177.78,3514.69L3176.88,3514.69ZM3150.98,3533.19C3152.88,3533.19 3155.38,3533.39 3156.38,3533.39C3156.88,3533.39 3157.08,3532.89 3157.08,3532.29C3157.08,3530.89 3155.98,3528.59 3154.88,3528.59C3154.08,3528.59 3152.08,3528.99 3150.88,3529.09L3149.68,3529.19L3149.68,3512.49C3149.68,3510.49 3149.88,3506.59 3149.88,3505.29C3149.88,3503.89 3147.98,3502.99 3146.68,3502.99C3145.98,3502.99 3145.48,3503.29 3145.48,3503.79C3145.48,3505.69 3145.68,3510.89 3145.68,3512.49L3145.68,3529.39L3129.48,3529.79C3134.28,3520.19 3140.48,3507.19 3144.38,3498.29C3144.98,3496.99 3145.98,3495.09 3146.78,3493.79C3146.98,3493.59 3146.98,3493.29 3146.98,3492.99C3146.98,3491.29 3144.98,3488.89 3143.88,3488.89C3143.58,3488.89 3143.28,3488.99 3143.18,3489.39C3141.58,3494.29 3136.88,3506.39 3127.08,3525.49C3126.58,3526.59 3125.58,3527.79 3124.78,3529.19C3124.48,3529.69 3124.38,3530.29 3124.38,3530.79C3124.38,3532.69 3125.98,3534.49 3127.38,3534.49C3127.58,3534.49 3127.68,3534.39 3127.78,3534.39C3128.88,3534.09 3129.88,3533.89 3130.38,3533.89L3145.68,3533.39L3145.68,3537.79C3145.68,3538.99 3145.48,3543.59 3145.48,3544.89C3145.48,3546.29 3147.48,3547.19 3148.88,3547.19C3149.48,3547.19 3150.08,3546.89 3150.08,3546.39C3150.08,3544.49 3149.68,3541.29 3149.68,3537.99L3149.68,3533.19L3150.98,3533.19Z" style="fill-rule:nonzero;"/>
        </g>
    </g>
</svg>
