<?xml version="1.0" encoding="UTF-8" standalone="no"?>
<!DOCTYPE svg PUBLIC "-//W3C//DTD SVG 1.1//EN" "http://www.w3.org/Graphics/SVG/1.1/DTD/svg11.dtd">
<svg width="100%" height="100%" viewBox="0 0 89 89" version="1.1" xmlns="http://www.w3.org/2000/svg" xmlns:xlink="http://www.w3.org/1999/xlink" xml:space="preserve" xmlns:serif="http://www.serif.com/" style="fill-rule:evenodd;clip-rule:evenodd;stroke-linejoin:round;stroke-miterlimit:2;">
    <g transform="matrix(1,0,0,1,-2040.22,-138.665)">
        <g transform="matrix(1,0,0,1,-1072.97,-2735.12)">
            <path d="M3201.38,2961.99L3201.38,2873.79L3113.18,2873.79L3113.18,2961.99L3201.38,2961.99ZM3197.28,2957.89L3117.28,2957.89L3117.28,2877.89L3197.28,2877.89L3197.28,2957.89ZM3134.28,2894.19C3134.08,2893.89 3133.68,2893.59 3133.28,2893.59C3131.08,2893.59 3126.68,2905.69 3126.68,2919.49C3126.68,2935.99 3131.38,2948.09 3141.08,2948.09C3151.28,2948.09 3156.18,2933.99 3156.18,2917.39C3156.18,2901.09 3151.48,2889.19 3142.68,2889.19C3139.28,2889.19 3136.38,2891.19 3134.28,2894.19ZM3140.78,2943.79C3133.28,2943.79 3130.78,2932.59 3130.78,2919.39C3130.78,2901.99 3137.38,2893.29 3142.48,2893.29C3149.68,2893.29 3152.18,2905.59 3152.18,2916.79C3152.18,2930.49 3148.98,2943.79 3140.78,2943.79ZM3163.28,2946.89C3165.08,2946.49 3168.58,2945.89 3174.08,2945.89C3182.38,2945.89 3187.68,2946.29 3189.18,2946.49C3189.68,2946.49 3189.98,2946.09 3189.98,2945.39C3189.98,2943.99 3188.88,2941.79 3187.78,2941.79C3186.88,2941.79 3184.58,2941.89 3183.38,2941.89C3180.48,2941.89 3178.28,2941.79 3174.88,2941.79C3172.18,2941.79 3168.18,2941.99 3165.58,2942.29C3167.98,2936.89 3172.28,2928.79 3178.38,2922.39C3184.88,2915.59 3189.38,2909.89 3189.38,2902.49C3189.38,2894.69 3184.58,2889.09 3176.88,2889.09C3169.78,2889.09 3164.98,2893.19 3162.18,2899.09C3161.88,2899.49 3161.78,2899.99 3161.78,2900.49C3161.78,2901.59 3163.18,2903.79 3164.28,2903.79C3165.08,2903.79 3165.58,2902.99 3165.98,2901.89C3167.48,2897.09 3171.28,2893.29 3176.78,2893.29C3182.08,2893.29 3185.08,2897.49 3185.08,2902.49C3185.08,2907.79 3181.48,2912.79 3175.78,2918.99C3169.88,2925.29 3164.98,2933.99 3162.38,2939.79C3161.98,2940.59 3161.48,2941.29 3160.88,2942.19C3160.68,2942.49 3160.58,2942.89 3160.58,2943.39C3160.58,2944.99 3161.78,2946.89 3163.08,2946.89L3163.28,2946.89Z" style="fill-rule:nonzero;"/>
        </g>
    </g>
</svg>
