<?xml version="1.0" encoding="UTF-8" standalone="no"?>
<!DOCTYPE svg PUBLIC "-//W3C//DTD SVG 1.1//EN" "http://www.w3.org/Graphics/SVG/1.1/DTD/svg11.dtd">
<svg width="100%" height="100%" viewBox="0 0 89 89" version="1.1" xmlns="http://www.w3.org/2000/svg" xmlns:xlink="http://www.w3.org/1999/xlink" xml:space="preserve" xmlns:serif="http://www.serif.com/" style="fill-rule:evenodd;clip-rule:evenodd;stroke-linejoin:round;stroke-miterlimit:2;">
    <g transform="matrix(1,0,0,1,-2140.22,-588.665)">
        <g transform="matrix(1,0,0,1,-1072.97,-2735.12)">
            <path d="M3301.38,3411.99L3301.38,3323.79L3213.18,3323.79L3213.18,3411.99L3301.38,3411.99ZM3297.28,3407.89L3217.28,3407.89L3217.28,3327.89L3297.28,3327.89L3297.28,3407.89ZM3242.98,3364.69C3248.88,3362.89 3253.38,3357.89 3253.38,3351.09C3253.38,3343.29 3248.38,3338.69 3240.98,3338.69C3231.88,3338.69 3226.38,3345.89 3226.38,3347.49C3226.38,3349.19 3227.88,3350.89 3228.48,3350.89C3229.18,3350.89 3229.68,3349.89 3229.88,3349.59C3233.38,3344.99 3236.88,3342.89 3241.08,3342.89C3246.28,3342.89 3249.28,3346.19 3249.28,3351.59C3249.28,3357.59 3242.58,3363.19 3233.98,3363.89C3233.38,3363.99 3233.18,3364.49 3233.18,3365.09C3233.18,3366.39 3234.08,3368.29 3235.28,3368.29C3235.48,3368.29 3235.58,3368.19 3235.78,3368.19C3236.78,3367.89 3239.28,3367.49 3240.98,3367.49C3246.98,3367.49 3251.38,3372.09 3251.38,3378.69C3251.38,3386.09 3247.68,3393.19 3238.38,3393.19C3233.58,3393.19 3230.58,3390.39 3227.68,3386.19C3227.48,3385.89 3227.28,3385.69 3226.98,3385.69C3225.98,3385.69 3225.08,3387.79 3225.08,3389.39C3225.08,3390.09 3225.08,3390.59 3225.48,3390.99C3229.18,3395.19 3233.28,3397.49 3238.38,3397.49C3250.48,3397.49 3255.48,3388.79 3255.48,3378.59C3255.48,3369.99 3249.98,3364.69 3243.88,3364.69L3242.98,3364.69ZM3264.48,3391.89C3266.98,3386.49 3271.18,3378.39 3277.28,3371.99C3283.78,3365.19 3288.38,3359.49 3288.38,3352.09C3288.38,3344.29 3283.48,3338.69 3275.88,3338.69C3264.78,3338.69 3260.78,3348.69 3260.78,3350.09C3260.78,3352.19 3262.98,3353.39 3263.28,3353.39C3263.98,3353.39 3264.58,3352.59 3264.88,3351.49C3266.38,3346.69 3270.18,3342.89 3275.68,3342.89C3280.98,3342.89 3284.08,3347.09 3284.08,3352.09C3284.08,3357.39 3280.48,3362.39 3274.68,3368.59C3268.88,3374.89 3263.98,3383.59 3261.28,3389.39C3260.88,3390.19 3260.48,3390.89 3259.88,3391.79C3259.68,3392.09 3259.58,3392.49 3259.58,3392.99C3259.58,3394.59 3260.78,3396.49 3261.98,3396.49C3262.08,3396.49 3262.88,3397.99 3262.98,3397.99C3264.18,3397.69 3264.58,3395.99 3265.38,3395.89C3268.28,3395.59 3270.68,3395.49 3273.08,3395.49C3281.78,3395.49 3282.88,3395.59 3288.08,3396.09C3288.68,3396.09 3288.88,3395.69 3288.88,3394.99C3288.88,3393.59 3287.88,3391.39 3286.78,3391.39C3285.88,3391.39 3283.48,3391.49 3282.38,3391.49C3279.48,3391.49 3277.18,3391.39 3273.78,3391.39C3271.08,3391.39 3267.18,3391.59 3264.48,3391.89Z" style="fill-rule:nonzero;"/>
        </g>
    </g>
</svg>
