<?xml version="1.0" encoding="UTF-8" standalone="no"?>
<!DOCTYPE svg PUBLIC "-//W3C//DTD SVG 1.1//EN" "http://www.w3.org/Graphics/SVG/1.1/DTD/svg11.dtd">
<svg width="100%" height="100%" viewBox="0 0 89 89" version="1.1" xmlns="http://www.w3.org/2000/svg" xmlns:xlink="http://www.w3.org/1999/xlink" xml:space="preserve" xmlns:serif="http://www.serif.com/" style="fill-rule:evenodd;clip-rule:evenodd;stroke-linejoin:round;stroke-miterlimit:2;">
    <g transform="matrix(1,0,0,1,-2340.22,-1188.66)">
        <g transform="matrix(1,0,0,1,-1072.97,-2735.12)">
            <path d="M3501.38,4011.99L3501.38,3923.79L3413.18,3923.79L3413.18,4011.99L3501.38,4011.99ZM3497.28,4007.89L3417.28,4007.89L3417.28,3927.89L3497.28,3927.89L3497.28,4007.89ZM3444.48,3963.69C3447.88,3960.99 3457.08,3951.79 3457.08,3949.19C3457.08,3948.29 3456.48,3947.69 3455.88,3947.69C3455.28,3947.69 3454.78,3947.89 3454.18,3948.59L3453.88,3948.99C3454.18,3948.49 3454.28,3947.89 3454.28,3947.49C3454.28,3947.19 3454.18,3946.89 3454.18,3946.69C3451.48,3942.39 3447.68,3938.79 3442.28,3938.79C3433.88,3938.79 3428.98,3945.09 3428.98,3952.19C3428.98,3957.49 3430.78,3960.89 3437.08,3964.49C3430.68,3969.49 3426.88,3974.99 3426.88,3982.29C3426.88,3990.89 3432.18,3997.49 3441.08,3997.49C3450.88,3997.49 3457.38,3991.09 3457.38,3981.19C3457.38,3973.39 3453.58,3968.29 3445.28,3964.09L3444.48,3963.69ZM3464.28,3996.49C3466.48,3995.99 3470.08,3995.49 3475.08,3995.49C3483.78,3995.49 3484.88,3995.59 3490.08,3996.09C3490.68,3996.09 3490.88,3995.69 3490.88,3994.99C3490.88,3993.59 3489.78,3991.39 3488.78,3991.39C3487.88,3991.39 3485.48,3991.49 3484.38,3991.49C3481.48,3991.49 3479.18,3991.39 3475.78,3991.39C3473.08,3991.39 3469.08,3991.59 3466.48,3991.89C3468.98,3986.49 3473.18,3978.39 3479.28,3971.99C3485.78,3965.19 3490.38,3959.49 3490.38,3952.09C3490.38,3944.29 3485.48,3938.69 3477.88,3938.69C3470.78,3938.69 3465.88,3942.79 3463.08,3948.69C3462.78,3949.09 3462.78,3949.59 3462.78,3950.09C3462.78,3950.99 3463.18,3951.89 3464.28,3952.89C3464.58,3953.29 3464.88,3953.39 3465.28,3953.39C3465.98,3953.39 3466.48,3952.59 3466.88,3951.49C3468.38,3946.69 3472.18,3942.89 3477.68,3942.89C3482.98,3942.89 3486.08,3947.09 3486.08,3952.09C3486.08,3957.39 3482.48,3962.39 3476.68,3968.59C3470.88,3974.89 3465.98,3983.59 3463.28,3989.39C3462.88,3990.19 3462.48,3990.89 3461.88,3991.79C3461.68,3992.09 3461.58,3992.49 3461.58,3992.99C3461.58,3994.59 3462.78,3996.49 3463.98,3996.49L3464.28,3996.49ZM3440.88,3966.49C3448.18,3970.19 3453.38,3973.39 3453.38,3981.59C3453.38,3988.49 3448.18,3993.19 3441.08,3993.19C3433.98,3993.19 3430.88,3987.59 3430.88,3982.09C3430.88,3976.29 3434.58,3971.59 3440.88,3966.49ZM3452.78,3950.19C3449.38,3954.19 3445.38,3958.29 3440.78,3961.69C3434.78,3958.59 3432.98,3956.39 3432.98,3952.19C3432.98,3947.49 3436.08,3942.89 3442.38,3942.89C3446.38,3942.89 3448.78,3945.39 3450.78,3949.29C3451.18,3950.09 3451.68,3950.39 3452.08,3950.39C3452.38,3950.39 3452.58,3950.29 3452.78,3950.19Z" style="fill-rule:nonzero;"/>
        </g>
    </g>
</svg>
