<?xml version="1.0" encoding="UTF-8" standalone="no"?>
<!DOCTYPE svg PUBLIC "-//W3C//DTD SVG 1.1//EN" "http://www.w3.org/Graphics/SVG/1.1/DTD/svg11.dtd">
<svg width="100%" height="100%" viewBox="0 0 89 89" version="1.1" xmlns="http://www.w3.org/2000/svg" xmlns:xlink="http://www.w3.org/1999/xlink" xml:space="preserve" xmlns:serif="http://www.serif.com/" style="fill-rule:evenodd;clip-rule:evenodd;stroke-linejoin:round;stroke-miterlimit:2;">
    <g transform="matrix(1,0,0,1,-1640.22,-438.665)">
        <g transform="matrix(1,0,0,1,-1072.97,-2735.12)">
            <path d="M2801.38,3261.99L2801.38,3173.79L2713.18,3173.79L2713.18,3261.99L2801.38,3261.99ZM2797.28,3257.89L2717.28,3257.89L2717.28,3177.89L2797.28,3177.89L2797.28,3257.89ZM2776.58,3194.19C2778.68,3193.99 2780.78,3193.99 2782.18,3193.89C2782.68,3193.89 2782.98,3193.39 2782.98,3192.79C2782.98,3191.49 2781.88,3189.39 2780.88,3189.39L2780.68,3189.39C2779.48,3189.69 2777.38,3189.79 2775.98,3189.89L2761.38,3191.09C2760.38,3190.59 2759.28,3190.19 2758.58,3190.19C2757.98,3190.19 2757.58,3190.39 2757.58,3191.09C2757.58,3192.09 2757.58,3193.49 2757.48,3194.59L2754.68,3214.29C2754.58,3214.99 2754.38,3215.99 2754.08,3217.09C2753.98,3217.39 2753.98,3217.69 2753.98,3217.99C2753.98,3219.99 2755.78,3221.49 2756.98,3221.49C2757.58,3221.49 2759.38,3219.49 2759.58,3219.19C2762.08,3216.59 2765.68,3214.79 2769.48,3214.79C2775.98,3214.79 2780.68,3219.79 2780.68,3228.09C2780.68,3235.89 2776.48,3243.09 2766.88,3243.09C2761.48,3243.09 2757.58,3239.29 2754.98,3234.99C2754.78,3234.59 2754.58,3234.39 2754.28,3234.39C2753.28,3234.39 2752.08,3236.59 2752.08,3238.39C2752.08,3239.09 2752.28,3239.69 2752.68,3240.09C2756.08,3244.29 2760.98,3247.49 2766.88,3247.49C2779.68,3247.49 2784.98,3238.29 2784.98,3227.99C2784.98,3216.99 2777.88,3210.59 2770.18,3210.59C2765.28,3210.59 2761.48,3212.29 2758.48,3215.09L2761.28,3195.49L2776.58,3194.19ZM2739.48,3246.39C2739.48,3244.29 2739.38,3239.59 2739.38,3237.39L2739.38,3197.09C2739.38,3194.79 2739.78,3193.39 2739.78,3192.09C2739.78,3190.59 2738.18,3189.09 2737.08,3189.09C2735.98,3189.09 2734.48,3191.39 2733.88,3191.89C2731.68,3193.79 2728.28,3195.89 2724.58,3197.49C2724.08,3197.69 2723.88,3197.99 2723.88,3198.29C2723.88,3199.19 2725.48,3200.09 2726.78,3200.09C2727.08,3200.09 2727.28,3200.09 2727.48,3199.99C2730.08,3199.19 2732.98,3197.89 2735.08,3196.49L2735.08,3237.89C2735.08,3239.59 2734.88,3243.69 2734.88,3244.99C2734.88,3246.29 2736.88,3247.19 2738.38,3247.19C2738.98,3247.19 2739.48,3246.99 2739.48,3246.49L2739.48,3246.39Z" style="fill-rule:nonzero;"/>
        </g>
    </g>
</svg>
