<?xml version="1.0" encoding="UTF-8" standalone="no"?>
<!DOCTYPE svg PUBLIC "-//W3C//DTD SVG 1.1//EN" "http://www.w3.org/Graphics/SVG/1.1/DTD/svg11.dtd">
<svg width="100%" height="100%" viewBox="0 0 89 89" version="1.1" xmlns="http://www.w3.org/2000/svg" xmlns:xlink="http://www.w3.org/1999/xlink" xml:space="preserve" xmlns:serif="http://www.serif.com/" style="fill-rule:evenodd;clip-rule:evenodd;stroke-linejoin:round;stroke-miterlimit:2;">
    <g transform="matrix(1,0,0,1,-1840.22,-138.665)">
        <g transform="matrix(1,0,0,1,-1072.97,-2735.12)">
            <path d="M3001.38,2961.99L3001.38,2873.79L2913.18,2873.79L2913.18,2961.99L3001.38,2961.99ZM2997.28,2957.89L2917.28,2957.89L2917.28,2877.89L2997.28,2877.89L2997.28,2957.89ZM2935.78,2894.19C2935.58,2893.89 2935.28,2893.59 2934.78,2893.59C2932.68,2893.59 2927.88,2904.79 2927.88,2919.49C2927.88,2935.99 2932.78,2948.09 2943.08,2948.09C2953.78,2948.09 2958.98,2933.99 2958.98,2917.39C2958.98,2901.09 2953.98,2889.19 2944.78,2889.19C2941.18,2889.19 2938.08,2891.19 2935.78,2894.19ZM2942.78,2943.79C2934.78,2943.79 2932.08,2932.59 2932.08,2919.39C2932.08,2901.99 2939.18,2893.29 2944.48,2893.29C2952.08,2893.29 2954.68,2905.59 2954.68,2916.79C2954.68,2930.49 2951.38,2943.79 2942.78,2943.79ZM2978.18,2938.29C2978.18,2939.99 2977.98,2944.09 2977.98,2945.39C2977.98,2946.69 2980.08,2947.59 2981.58,2947.59C2982.28,2947.59 2982.88,2947.39 2982.88,2946.79C2982.78,2944.69 2982.68,2939.99 2982.68,2937.79L2982.68,2897.49C2982.68,2895.19 2983.08,2893.79 2983.08,2892.49C2983.08,2890.99 2981.38,2889.49 2980.28,2889.49C2979.18,2889.49 2977.58,2891.79 2976.98,2892.29C2974.58,2894.19 2970.98,2896.29 2967.18,2897.89C2966.58,2898.09 2966.38,2898.39 2966.38,2898.69C2966.38,2899.59 2968.08,2900.49 2969.48,2900.49C2969.68,2900.49 2969.98,2900.49 2970.18,2900.39C2972.88,2899.59 2975.98,2898.29 2978.18,2896.89L2978.18,2938.29Z" style="fill-rule:nonzero;"/>
        </g>
    </g>
</svg>
