<?xml version="1.0" encoding="UTF-8" standalone="no"?>
<!DOCTYPE svg PUBLIC "-//W3C//DTD SVG 1.1//EN" "http://www.w3.org/Graphics/SVG/1.1/DTD/svg11.dtd">
<svg width="100%" height="100%" viewBox="0 0 89 89" version="1.1" xmlns="http://www.w3.org/2000/svg" xmlns:xlink="http://www.w3.org/1999/xlink" xml:space="preserve" xmlns:serif="http://www.serif.com/" style="fill-rule:evenodd;clip-rule:evenodd;stroke-linejoin:round;stroke-miterlimit:2;">
    <g transform="matrix(1,0,0,1,-2640.22,-1338.66)">
        <g transform="matrix(1,0,0,1,-1072.97,-2735.12)">
            <path d="M3801.38,4161.99L3801.38,4073.79L3713.18,4073.79L3713.18,4161.99L3801.38,4161.99ZM3797.28,4157.89L3717.28,4157.89L3717.28,4077.89L3797.28,4077.89L3797.28,4157.89ZM3744.88,4147.09C3746.68,4146.99 3747.78,4146.49 3747.88,4145.39C3747.98,4144.39 3751.78,4112.49 3756.88,4093.99L3756.88,4093.69C3756.88,4092.49 3755.48,4090.99 3753.78,4090.99C3752.28,4090.99 3752.68,4093.49 3752.08,4095.69C3751.08,4093.39 3747.68,4088.69 3740.58,4088.69C3730.48,4088.69 3722.88,4099.49 3722.88,4110.39C3722.88,4119.59 3727.58,4124.89 3734.38,4124.89C3739.68,4124.89 3745.28,4121.19 3748.38,4115.49C3747.18,4122.79 3745.68,4131.29 3744.68,4137.59L3743.48,4143.79C3743.38,4144.49 3743.08,4145.19 3743.08,4145.79C3743.08,4146.59 3743.48,4147.09 3744.78,4147.09L3744.88,4147.09ZM3750.68,4103.19C3749.18,4108.69 3743.78,4120.49 3734.28,4120.49C3729.48,4120.49 3727.08,4116.99 3727.08,4110.09C3727.08,4102.69 3732.18,4092.89 3740.98,4092.89C3746.18,4092.89 3748.38,4096.79 3749.28,4098.99C3749.58,4099.69 3749.98,4099.99 3750.38,4099.99C3750.78,4099.99 3751.08,4099.69 3751.48,4099.29L3750.68,4103.19ZM3792.18,4092.89C3792.18,4091.49 3790.28,4089.69 3789.08,4089.49L3788.98,4089.49C3787.98,4089.49 3786.98,4089.99 3785.78,4090.09L3765.38,4091.59L3764.28,4091.59C3763.08,4091.59 3762.38,4091.49 3761.48,4091.49C3761.18,4091.49 3761.08,4091.69 3761.08,4091.99C3761.08,4092.69 3761.78,4094.19 3762.78,4095.29C3763.48,4095.89 3764.18,4096.09 3764.78,4096.09C3765.48,4096.09 3766.28,4095.99 3766.98,4095.89L3786.68,4094.09C3780.58,4108.49 3774.78,4123.99 3770.48,4137.49C3770.08,4138.89 3769.38,4141.09 3768.58,4143.39C3768.48,4143.89 3768.08,4144.59 3768.08,4145.29C3768.08,4145.99 3768.48,4146.69 3769.98,4146.89C3770.38,4146.89 3770.78,4146.99 3771.08,4146.99C3772.28,4146.99 3772.98,4146.69 3773.18,4145.79C3775.58,4134.29 3783.58,4112.29 3790.38,4096.99C3790.78,4095.99 3791.98,4094.49 3792.18,4093.19L3792.18,4092.89Z" style="fill-rule:nonzero;"/>
        </g>
    </g>
</svg>
