<?xml version="1.0" encoding="UTF-8" standalone="no"?>
<!DOCTYPE svg PUBLIC "-//W3C//DTD SVG 1.1//EN" "http://www.w3.org/Graphics/SVG/1.1/DTD/svg11.dtd">
<svg width="100%" height="100%" viewBox="0 0 89 89" version="1.1" xmlns="http://www.w3.org/2000/svg" xmlns:xlink="http://www.w3.org/1999/xlink" xml:space="preserve" xmlns:serif="http://www.serif.com/" style="fill-rule:evenodd;clip-rule:evenodd;stroke-linejoin:round;stroke-miterlimit:2;">
    <g transform="matrix(1,0,0,1,-2340.22,-1488.66)">
        <g transform="matrix(1,0,0,1,-1072.97,-2735.12)">
            <path d="M3501.38,4311.99L3501.38,4223.79L3413.18,4223.79L3413.18,4311.99L3501.38,4311.99ZM3497.28,4307.89L3417.28,4307.89L3417.28,4227.89L3497.28,4227.89L3497.28,4307.89ZM3453.08,4287.39C3453.08,4290.29 3452.88,4294.39 3452.88,4295.79C3452.88,4297.09 3455.08,4298.09 3456.58,4298.09C3457.28,4298.09 3457.88,4297.79 3457.88,4297.29C3457.88,4295.29 3457.68,4291.79 3457.68,4288.29L3457.68,4260.39L3460.98,4260.19L3469.18,4260.19C3469.78,4260.19 3470.08,4259.79 3470.08,4259.19C3470.08,4257.99 3468.88,4256.09 3467.48,4256.09L3467.38,4256.09L3460.08,4256.59L3457.68,4256.69L3457.68,4247.09C3457.68,4243.39 3460.08,4241.59 3462.38,4241.59C3464.28,4241.59 3466.88,4242.29 3468.28,4244.79C3468.68,4245.49 3469.08,4245.69 3469.48,4245.69C3470.58,4245.69 3471.68,4243.69 3471.68,4242.19C3471.68,4241.69 3471.58,4241.29 3471.38,4240.99C3468.88,4238.09 3465.48,4237.19 3462.48,4237.19C3457.58,4237.19 3453.08,4240.69 3453.08,4247.19L3453.08,4256.79L3450.48,4256.89L3444.18,4256.89C3443.58,4256.89 3443.28,4257.29 3443.28,4257.79C3443.28,4258.99 3444.58,4260.89 3445.98,4260.89C3445.98,4260.89 3448.88,4260.69 3451.38,4260.59L3453.08,4260.49L3453.08,4287.39Z" style="fill-rule:nonzero;"/>
        </g>
    </g>
</svg>
