<?xml version="1.0" encoding="UTF-8" standalone="no"?>
<!DOCTYPE svg PUBLIC "-//W3C//DTD SVG 1.1//EN" "http://www.w3.org/Graphics/SVG/1.1/DTD/svg11.dtd">
<svg width="100%" height="100%" viewBox="0 0 89 89" version="1.1" xmlns="http://www.w3.org/2000/svg" xmlns:xlink="http://www.w3.org/1999/xlink" xml:space="preserve" xmlns:serif="http://www.serif.com/" style="fill-rule:evenodd;clip-rule:evenodd;stroke-linejoin:round;stroke-miterlimit:2;">
    <g transform="matrix(1,0,0,1,-1640.22,-588.665)">
        <g transform="matrix(1,0,0,1,-1072.97,-2735.12)">
            <path d="M2801.38,3411.99L2801.38,3323.79L2713.18,3323.79L2713.18,3411.99L2801.38,3411.99ZM2797.28,3407.89L2717.28,3407.89L2717.28,3327.89L2797.28,3327.89L2797.28,3407.89ZM2727.68,3396.49C2731.08,3395.69 2735.48,3395.49 2739.08,3395.49C2743.88,3395.49 2749.28,3395.49 2754.98,3396.09C2755.58,3396.09 2755.88,3395.69 2755.88,3394.99C2755.88,3393.59 2754.68,3391.39 2753.58,3391.39C2752.58,3391.39 2750.18,3391.49 2748.88,3391.49C2745.88,3391.49 2743.48,3391.39 2739.88,3391.39C2736.98,3391.39 2732.88,3391.59 2730.08,3391.89C2732.68,3386.49 2737.08,3378.39 2743.58,3371.99C2750.38,3365.19 2755.28,3359.49 2755.28,3352.09C2755.28,3344.29 2750.18,3338.69 2742.08,3338.69C2734.58,3338.69 2729.38,3342.79 2726.48,3348.69C2726.18,3349.09 2726.08,3349.59 2726.08,3350.09C2726.08,3351.39 2727.78,3353.39 2728.78,3353.39C2729.48,3353.39 2730.08,3352.59 2730.48,3351.49C2732.08,3346.69 2736.08,3342.89 2741.88,3342.89C2747.48,3342.89 2750.68,3347.09 2750.68,3352.09C2750.68,3357.39 2746.88,3362.39 2740.78,3368.59C2734.68,3374.89 2729.48,3383.59 2726.68,3389.39C2726.28,3390.19 2725.78,3390.89 2725.18,3391.79C2724.98,3392.09 2724.88,3392.49 2724.88,3392.99C2724.88,3394.59 2726.08,3396.49 2727.38,3396.49L2727.68,3396.49ZM2790.78,3342.89C2790.78,3341.49 2788.88,3339.69 2787.78,3339.49L2787.58,3339.49C2786.58,3339.49 2785.58,3339.99 2784.48,3340.09L2763.98,3341.59L2762.98,3341.59C2761.68,3341.59 2760.98,3341.49 2760.08,3341.49C2759.78,3341.49 2759.78,3341.69 2759.78,3341.99C2759.78,3343.09 2761.38,3346.09 2763.48,3346.09C2764.08,3346.09 2764.88,3345.99 2765.58,3345.89L2785.28,3344.09C2777.48,3362.39 2770.78,3381.99 2767.28,3393.39C2767.18,3393.89 2766.78,3394.59 2766.78,3395.29C2766.78,3395.99 2767.18,3396.69 2768.68,3396.89C2769.08,3396.89 2769.38,3396.99 2769.68,3396.99C2770.98,3396.99 2771.58,3396.69 2771.78,3395.79C2773.98,3385.29 2782.08,3362.89 2788.98,3346.99C2789.48,3345.99 2790.58,3344.49 2790.78,3343.19L2790.78,3342.89Z" style="fill-rule:nonzero;"/>
        </g>
    </g>
</svg>
