<?xml version="1.0" encoding="UTF-8" standalone="no"?>
<!DOCTYPE svg PUBLIC "-//W3C//DTD SVG 1.1//EN" "http://www.w3.org/Graphics/SVG/1.1/DTD/svg11.dtd">
<svg width="100%" height="100%" viewBox="0 0 89 89" version="1.1" xmlns="http://www.w3.org/2000/svg" xmlns:xlink="http://www.w3.org/1999/xlink" xml:space="preserve" xmlns:serif="http://www.serif.com/" style="fill-rule:evenodd;clip-rule:evenodd;stroke-linejoin:round;stroke-miterlimit:2;">
    <g transform="matrix(1,0,0,1,-2440.22,-1188.66)">
        <g transform="matrix(1,0,0,1,-1072.97,-2735.12)">
            <path d="M3601.38,4011.99L3601.38,3923.79L3513.18,3923.79L3513.18,4011.99L3601.38,4011.99ZM3597.28,4007.89L3517.28,4007.89L3517.28,3927.89L3597.28,3927.89L3597.28,4007.89ZM3542.98,3963.69C3549.78,3958.19 3555.58,3951.29 3555.58,3949.19C3555.58,3948.29 3555.08,3947.69 3554.38,3947.69C3553.88,3947.69 3553.38,3947.89 3552.78,3948.59L3552.38,3948.99C3552.68,3948.49 3552.88,3947.89 3552.88,3947.49C3552.88,3947.19 3552.78,3946.89 3552.68,3946.69C3549.98,3942.39 3546.18,3938.79 3540.78,3938.79C3532.38,3938.79 3527.48,3945.09 3527.48,3952.19C3527.48,3957.49 3529.28,3960.89 3535.68,3964.49C3529.28,3969.49 3525.38,3974.99 3525.38,3982.29C3525.38,3990.89 3530.68,3997.49 3539.58,3997.49C3549.38,3997.49 3555.88,3991.09 3555.88,3981.19C3555.88,3973.39 3552.08,3968.29 3543.88,3964.09L3542.98,3963.69ZM3576.88,3964.69C3582.78,3962.89 3587.28,3957.89 3587.28,3951.09C3587.28,3943.29 3582.28,3938.69 3574.88,3938.69C3566.48,3938.69 3560.28,3945.39 3560.28,3947.49C3560.28,3949.19 3561.78,3950.89 3562.38,3950.89C3563.08,3950.89 3563.58,3949.89 3563.78,3949.59C3567.28,3944.99 3570.68,3942.89 3574.88,3942.89C3580.18,3942.89 3583.18,3946.19 3583.18,3951.59C3583.18,3958.29 3575.48,3963.29 3567.78,3963.89C3567.28,3963.99 3567.08,3964.49 3567.08,3965.09C3567.08,3966.39 3567.98,3968.29 3569.18,3968.29C3569.38,3968.29 3569.48,3968.19 3569.58,3968.19C3570.38,3967.99 3571.88,3967.69 3573.18,3967.59C3573.78,3967.49 3574.28,3967.49 3574.88,3967.49C3580.88,3967.49 3585.28,3972.09 3585.28,3978.69C3585.28,3986.09 3581.58,3993.19 3572.28,3993.19C3567.48,3993.19 3564.48,3990.39 3561.58,3986.19C3561.28,3985.89 3561.18,3985.69 3560.88,3985.69C3559.88,3985.69 3558.98,3987.79 3558.98,3989.39C3558.98,3990.09 3558.98,3990.59 3559.38,3990.99C3563.08,3995.19 3567.18,3997.49 3572.28,3997.49C3584.38,3997.49 3589.38,3988.79 3589.38,3978.59C3589.38,3969.99 3583.88,3964.69 3577.78,3964.69L3576.88,3964.69ZM3539.38,3966.49C3551.38,3971.29 3551.88,3978.79 3551.88,3981.59C3551.88,3988.49 3546.68,3993.19 3539.58,3993.19C3532.48,3993.19 3529.38,3987.59 3529.38,3982.09C3529.38,3976.29 3533.08,3971.59 3539.38,3966.49ZM3551.28,3950.19C3547.88,3954.19 3543.98,3958.29 3539.28,3961.69C3533.38,3958.59 3531.58,3956.39 3531.58,3952.19C3531.58,3947.49 3534.58,3942.89 3540.88,3942.89C3544.88,3942.89 3547.28,3945.39 3549.38,3949.29C3549.78,3950.09 3550.18,3950.39 3550.58,3950.39C3550.88,3950.39 3551.08,3950.29 3551.28,3950.19Z" style="fill-rule:nonzero;"/>
        </g>
    </g>
</svg>
