<?xml version="1.0" encoding="UTF-8" standalone="no"?>
<!DOCTYPE svg PUBLIC "-//W3C//DTD SVG 1.1//EN" "http://www.w3.org/Graphics/SVG/1.1/DTD/svg11.dtd">
<svg width="100%" height="100%" viewBox="0 0 89 89" version="1.1" xmlns="http://www.w3.org/2000/svg" xmlns:xlink="http://www.w3.org/1999/xlink" xml:space="preserve" xmlns:serif="http://www.serif.com/" style="fill-rule:evenodd;clip-rule:evenodd;stroke-linejoin:round;stroke-miterlimit:2;">
    <g transform="matrix(1,0,0,1,-2540.22,-138.665)">
        <g transform="matrix(1,0,0,1,-1072.97,-2735.12)">
            <path d="M3701.38,2961.99L3701.38,2873.79L3613.18,2873.79L3613.18,2961.99L3701.38,2961.99ZM3697.28,2957.89L3617.28,2957.89L3617.28,2877.89L3697.28,2877.89L3697.28,2957.89ZM3672.98,2889.29C3671.38,2889.59 3669.28,2889.79 3666.98,2889.89L3648.18,2891.19C3646.98,2890.59 3645.68,2890.19 3644.68,2890.19C3643.98,2890.19 3643.48,2890.49 3643.48,2891.09C3643.48,2892.09 3643.48,2893.49 3643.28,2894.59L3639.88,2914.29C3639.48,2915.59 3638.88,2917.39 3638.88,2917.89C3638.88,2919.79 3640.98,2921.49 3642.18,2921.49C3642.48,2921.49 3642.68,2921.39 3642.88,2921.19C3646.98,2917.09 3649.58,2914.79 3658.68,2914.79C3667.38,2914.79 3673.68,2919.59 3673.68,2928.09C3673.68,2936.89 3667.88,2943.09 3655.48,2943.09C3648.78,2943.09 3644.18,2940.79 3640.08,2934.99C3639.68,2934.39 3639.18,2934.19 3638.78,2934.19C3637.48,2934.19 3636.58,2936.19 3636.58,2937.89C3636.58,2938.59 3636.78,2939.29 3637.18,2939.69C3642.78,2945.29 3647.88,2947.49 3655.48,2947.49C3671.28,2947.49 3678.48,2938.99 3678.48,2927.99C3678.48,2916.59 3669.18,2910.59 3659.38,2910.59C3652.18,2910.59 3648.08,2911.79 3644.18,2914.99L3647.68,2895.49L3667.78,2894.19C3670.48,2893.99 3673.18,2893.99 3674.78,2893.99C3675.48,2893.99 3675.78,2893.49 3675.78,2892.89C3675.78,2891.49 3674.38,2889.29 3673.18,2889.29L3672.98,2889.29Z" style="fill-rule:nonzero;"/>
        </g>
    </g>
</svg>
