<?xml version="1.0" encoding="UTF-8" standalone="no"?>
<!DOCTYPE svg PUBLIC "-//W3C//DTD SVG 1.1//EN" "http://www.w3.org/Graphics/SVG/1.1/DTD/svg11.dtd">
<svg width="100%" height="100%" viewBox="0 0 89 89" version="1.1" xmlns="http://www.w3.org/2000/svg" xmlns:xlink="http://www.w3.org/1999/xlink" xml:space="preserve" xmlns:serif="http://www.serif.com/" style="fill-rule:evenodd;clip-rule:evenodd;stroke-linejoin:round;stroke-miterlimit:2;">
    <g transform="matrix(1,0,0,1,-2540.22,-588.665)">
        <g transform="matrix(1,0,0,1,-1072.97,-2735.12)">
            <path d="M3701.38,3411.99L3701.38,3323.79L3613.18,3323.79L3613.18,3411.99L3701.38,3411.99ZM3697.28,3407.89L3617.28,3407.89L3617.28,3327.89L3697.28,3327.89L3697.28,3407.89ZM3673.48,3341.29C3670.68,3346.09 3667.78,3352.09 3664.58,3359.29C3661.28,3366.79 3659.58,3373.59 3659.58,3380.39C3659.58,3389.79 3666.18,3397.49 3674.98,3397.49C3684.58,3397.49 3690.38,3389.09 3690.38,3378.19C3690.38,3368.39 3684.58,3361.19 3676.18,3361.19C3671.48,3361.19 3667.58,3363.59 3665.18,3367.49C3668.68,3358.79 3673.28,3349.39 3678.58,3342.09C3678.88,3341.69 3679.28,3340.99 3679.28,3340.39C3679.28,3339.99 3678.78,3338.59 3676.38,3338.59C3675.58,3338.59 3674.88,3338.89 3674.58,3339.59C3674.28,3339.99 3673.68,3341.09 3673.48,3341.29ZM3674.98,3393.39C3668.28,3393.39 3663.58,3387.69 3663.58,3380.29C3663.58,3372.29 3668.48,3365.29 3676.08,3365.29C3682.38,3365.29 3686.28,3371.49 3686.28,3378.39C3686.28,3387.19 3681.48,3393.39 3674.98,3393.39ZM3642.68,3364.69C3648.58,3362.89 3652.98,3357.89 3652.98,3351.09C3652.98,3343.29 3648.08,3338.69 3640.58,3338.69C3631.88,3338.69 3626.08,3345.69 3626.08,3347.49C3626.08,3349.19 3627.58,3350.89 3628.08,3350.89C3628.78,3350.89 3629.38,3349.89 3629.58,3349.59C3632.98,3344.99 3636.48,3342.89 3640.68,3342.89C3645.88,3342.89 3648.98,3346.19 3648.98,3351.59C3648.98,3358.29 3641.28,3363.29 3633.58,3363.89C3633.08,3363.99 3632.78,3364.49 3632.78,3365.09C3632.78,3366.39 3633.78,3368.29 3634.98,3368.29C3635.18,3368.29 3635.18,3368.19 3635.38,3368.19C3636.18,3367.99 3637.68,3367.69 3638.98,3367.59C3639.58,3367.49 3640.08,3367.49 3640.58,3367.49C3646.68,3367.49 3651.08,3372.09 3651.08,3378.69C3651.08,3386.09 3647.38,3393.19 3638.08,3393.19C3633.28,3393.19 3630.28,3390.39 3627.38,3386.19C3627.08,3385.89 3626.88,3385.69 3626.68,3385.69C3625.68,3385.69 3624.68,3387.79 3624.68,3389.39C3624.68,3390.09 3624.78,3390.59 3625.18,3390.99C3628.78,3395.19 3632.88,3397.49 3638.08,3397.49C3650.18,3397.49 3655.18,3388.79 3655.18,3378.59C3655.18,3369.99 3649.68,3364.69 3643.48,3364.69L3642.68,3364.69Z" style="fill-rule:nonzero;"/>
        </g>
    </g>
</svg>
