<?xml version="1.0" encoding="UTF-8" standalone="no"?>
<!DOCTYPE svg PUBLIC "-//W3C//DTD SVG 1.1//EN" "http://www.w3.org/Graphics/SVG/1.1/DTD/svg11.dtd">
<svg width="100%" height="100%" viewBox="0 0 89 89" version="1.1" xmlns="http://www.w3.org/2000/svg" xmlns:xlink="http://www.w3.org/1999/xlink" xml:space="preserve" xmlns:serif="http://www.serif.com/" style="fill-rule:evenodd;clip-rule:evenodd;stroke-linejoin:round;stroke-miterlimit:2;">
    <g transform="matrix(1,0,0,1,-1740.22,-1788.66)">
        <g transform="matrix(1,0,0,1,-1072.97,-2735.12)">
            <path d="M2901.38,4611.99L2901.38,4523.79L2813.18,4523.79L2813.18,4611.99L2901.38,4611.99ZM2897.28,4607.89L2817.28,4607.89L2817.28,4527.89L2897.28,4527.89L2897.28,4607.89ZM2866.78,4583.09C2867.88,4584.59 2869.38,4586.69 2870.18,4587.99C2870.48,4588.49 2871.28,4588.69 2872.18,4588.69C2873.88,4588.69 2875.68,4588.09 2875.68,4587.19C2875.68,4586.99 2875.68,4586.79 2875.48,4586.59C2873.88,4584.89 2871.58,4582.49 2870.08,4580.39L2860.18,4567.29L2869.88,4554.39C2870.98,4552.79 2872.68,4550.99 2874.38,4549.29C2874.58,4549.19 2874.58,4548.99 2874.58,4548.79C2874.58,4547.99 2872.18,4547.09 2870.58,4547.09C2869.88,4547.09 2869.38,4547.29 2869.18,4547.59C2868.58,4548.69 2867.68,4550.29 2866.58,4551.79L2857.58,4563.79L2848.78,4552.09C2847.68,4550.59 2846.78,4549.09 2846.18,4547.99C2845.98,4547.59 2845.38,4547.49 2844.68,4547.49C2843.08,4547.49 2840.78,4548.39 2840.78,4549.29C2840.78,4549.39 2840.88,4549.59 2840.98,4549.69C2842.68,4551.39 2844.38,4553.19 2845.48,4554.69L2854.98,4567.29L2844.98,4580.49C2843.48,4582.69 2841.18,4584.99 2839.58,4586.69C2839.38,4586.89 2839.38,4587.09 2839.38,4587.29C2839.38,4588.19 2841.28,4588.89 2842.88,4588.89C2843.78,4588.89 2844.58,4588.69 2844.88,4588.19C2845.68,4586.89 2847.18,4584.79 2848.28,4583.29L2857.58,4570.79L2866.78,4583.09Z" style="fill-rule:nonzero;"/>
        </g>
    </g>
</svg>
