<?xml version="1.0" encoding="UTF-8" standalone="no"?>
<!DOCTYPE svg PUBLIC "-//W3C//DTD SVG 1.1//EN" "http://www.w3.org/Graphics/SVG/1.1/DTD/svg11.dtd">
<svg width="100%" height="100%" viewBox="0 0 89 89" version="1.1" xmlns="http://www.w3.org/2000/svg" xmlns:xlink="http://www.w3.org/1999/xlink" xml:space="preserve" xmlns:serif="http://www.serif.com/" style="fill-rule:evenodd;clip-rule:evenodd;stroke-linejoin:round;stroke-miterlimit:2;">
    <g transform="matrix(1,0,0,1,-2240.22,-1488.66)">
        <g transform="matrix(1,0,0,1,-1072.97,-2735.12)">
            <path d="M3401.38,4311.99L3401.38,4223.79L3313.18,4223.79L3313.18,4311.99L3401.38,4311.99ZM3397.28,4307.89L3317.28,4307.89L3317.28,4227.89L3397.28,4227.89L3397.28,4307.89ZM3345.48,4271.09C3354.78,4271.09 3362.28,4269.89 3367.28,4268.39C3374.08,4266.29 3375.38,4264.19 3375.38,4259.29C3375.38,4253.29 3371.78,4247.09 3361.48,4247.09C3350.38,4247.09 3341.78,4258.59 3340.38,4266.69C3340.38,4266.69 3339.58,4266.79 3339.48,4266.79C3338.38,4266.79 3337.98,4267.19 3337.98,4267.79C3337.98,4268.59 3338.78,4269.59 3339.78,4270.29L3339.78,4271.49C3339.78,4282.69 3346.38,4289.49 3355.08,4289.49C3362.78,4289.49 3370.28,4286.39 3374.98,4279.19C3375.38,4278.49 3375.58,4277.89 3375.58,4277.39C3375.58,4276.89 3375.28,4276.49 3374.88,4276.49C3374.38,4276.49 3373.78,4276.89 3373.08,4277.59C3368.48,4282.59 3362.38,4285.29 3355.08,4285.29C3349.28,4285.29 3344.38,4280.59 3344.38,4271.39L3344.38,4271.09L3345.48,4271.09ZM3344.98,4266.89C3346.18,4260.79 3352.88,4251.09 3361.38,4251.09C3367.28,4251.09 3370.78,4254.19 3370.78,4259.19C3370.78,4262.29 3370.38,4263.29 3365.18,4264.69C3361.38,4265.79 3355.48,4266.89 3347.08,4266.89L3344.98,4266.89Z" style="fill-rule:nonzero;"/>
        </g>
    </g>
</svg>
