<?xml version="1.0" encoding="UTF-8" standalone="no"?>
<!DOCTYPE svg PUBLIC "-//W3C//DTD SVG 1.1//EN" "http://www.w3.org/Graphics/SVG/1.1/DTD/svg11.dtd">
<svg width="100%" height="100%" viewBox="0 0 89 89" version="1.1" xmlns="http://www.w3.org/2000/svg" xmlns:xlink="http://www.w3.org/1999/xlink" xml:space="preserve" xmlns:serif="http://www.serif.com/" style="fill-rule:evenodd;clip-rule:evenodd;stroke-linejoin:round;stroke-miterlimit:2;">
    <g transform="matrix(1,0,0,1,-1540.22,-1488.66)">
        <g transform="matrix(1,0,0,1,-1072.97,-2735.12)">
            <path d="M2701.38,4311.99L2701.38,4223.79L2613.18,4223.79L2613.18,4311.99L2701.38,4311.99ZM2697.28,4307.89L2617.28,4307.89L2617.28,4227.89L2697.28,4227.89L2697.28,4307.89ZM2676.78,4263.69C2680.18,4260.99 2689.38,4251.79 2689.38,4249.19C2689.38,4248.29 2688.88,4247.69 2688.18,4247.69C2687.68,4247.69 2687.18,4247.89 2686.58,4248.59L2686.18,4248.99C2686.48,4248.49 2686.68,4247.89 2686.68,4247.49C2686.68,4247.19 2686.58,4246.89 2686.48,4246.69C2683.78,4242.39 2679.98,4238.79 2674.58,4238.79C2666.18,4238.79 2661.28,4245.09 2661.28,4252.19C2661.28,4257.49 2663.08,4260.89 2669.48,4264.49C2663.08,4269.49 2659.18,4274.99 2659.18,4282.29C2659.18,4290.89 2664.48,4297.49 2673.38,4297.49C2683.18,4297.49 2689.68,4291.09 2689.68,4281.19C2689.68,4273.39 2685.88,4268.29 2677.68,4264.09L2676.78,4263.69ZM2644.48,4297.09C2646.18,4296.99 2647.28,4296.49 2647.28,4295.39C2648.18,4284.99 2651.98,4262.09 2654.98,4246.99L2655.88,4243.99L2655.88,4243.69C2655.88,4242.49 2654.48,4240.99 2652.98,4240.99C2651.48,4240.99 2651.88,4243.49 2651.38,4245.69C2650.38,4243.39 2647.18,4238.69 2640.38,4238.69C2630.78,4238.69 2623.58,4249.49 2623.58,4260.39C2623.58,4269.59 2627.98,4274.89 2634.48,4274.89C2639.58,4274.89 2644.88,4271.19 2647.88,4265.49C2646.68,4272.79 2645.18,4281.29 2644.28,4287.59C2644.18,4287.99 2642.78,4294.59 2642.78,4295.79C2642.78,4296.59 2643.08,4297.09 2644.28,4297.09L2644.48,4297.09ZM2649.98,4253.19C2647.88,4260.69 2642.68,4270.49 2634.38,4270.49C2629.88,4270.49 2627.58,4266.99 2627.58,4260.09C2627.58,4252.69 2632.38,4242.89 2640.78,4242.89C2645.68,4242.89 2647.78,4246.79 2648.68,4248.99C2648.98,4249.69 2649.28,4249.99 2649.68,4249.99C2650.08,4249.99 2650.38,4249.69 2650.78,4249.29C2650.48,4250.59 2650.18,4251.89 2649.98,4253.19ZM2673.18,4266.49C2685.18,4271.29 2685.68,4278.79 2685.68,4281.59C2685.68,4288.49 2680.48,4293.19 2673.38,4293.19C2666.28,4293.19 2663.18,4287.59 2663.18,4282.09C2663.18,4276.29 2666.88,4271.59 2673.18,4266.49ZM2685.08,4250.19C2681.68,4254.19 2677.78,4258.29 2673.08,4261.69C2667.18,4258.59 2665.38,4256.39 2665.38,4252.19C2665.38,4247.49 2668.38,4242.89 2674.68,4242.89C2678.68,4242.89 2681.08,4245.39 2683.08,4249.29C2683.58,4250.09 2683.98,4250.39 2684.38,4250.39C2684.68,4250.39 2684.88,4250.29 2685.08,4250.19Z" style="fill-rule:nonzero;"/>
        </g>
    </g>
</svg>
