<?xml version="1.0" encoding="UTF-8" standalone="no"?>
<!DOCTYPE svg PUBLIC "-//W3C//DTD SVG 1.1//EN" "http://www.w3.org/Graphics/SVG/1.1/DTD/svg11.dtd">
<svg width="100%" height="100%" viewBox="0 0 89 89" version="1.1" xmlns="http://www.w3.org/2000/svg" xmlns:xlink="http://www.w3.org/1999/xlink" xml:space="preserve" xmlns:serif="http://www.serif.com/" style="fill-rule:evenodd;clip-rule:evenodd;stroke-linejoin:round;stroke-miterlimit:2;">
    <g transform="matrix(1,0,0,1,-1840.22,-1788.66)">
        <g transform="matrix(1,0,0,1,-1072.97,-2735.12)">
            <path d="M3001.38,4611.99L3001.38,4523.79L2913.18,4523.79L2913.18,4611.99L3001.38,4611.99ZM2997.28,4607.89L2917.28,4607.89L2917.28,4527.89L2997.28,4527.89L2997.28,4607.89ZM2946.68,4597.39C2950.98,4597.39 2953.58,4595.29 2955.88,4590.49L2973.78,4552.79C2974.78,4550.69 2976.18,4548.29 2977.08,4546.59C2977.28,4546.29 2977.38,4545.89 2977.38,4545.59C2977.38,4543.89 2975.28,4542.49 2973.88,4542.49C2973.28,4542.49 2972.88,4542.69 2972.68,4543.19C2971.78,4545.89 2970.58,4548.79 2969.48,4551.09L2958.28,4574.49L2947.68,4550.29L2945.08,4543.99C2944.88,4543.29 2943.48,4542.89 2942.08,4542.89C2940.68,4542.89 2939.38,4543.29 2939.38,4544.09C2939.38,4544.19 2939.48,4544.39 2939.58,4544.59C2940.58,4546.29 2942.28,4549.79 2943.08,4551.49L2955.88,4579.99L2952.08,4587.89C2950.48,4591.29 2948.18,4592.89 2946.38,4592.89C2944.88,4592.89 2942.88,4592.69 2941.38,4591.09C2940.98,4590.69 2940.68,4590.49 2940.28,4590.49C2938.98,4590.49 2937.88,4592.59 2937.88,4593.99C2937.88,4594.49 2937.98,4594.89 2938.28,4595.09C2940.78,4597.29 2943.48,4597.39 2945.68,4597.39L2946.68,4597.39Z" style="fill-rule:nonzero;"/>
        </g>
    </g>
</svg>
