<?xml version="1.0" encoding="UTF-8" standalone="no"?>
<!DOCTYPE svg PUBLIC "-//W3C//DTD SVG 1.1//EN" "http://www.w3.org/Graphics/SVG/1.1/DTD/svg11.dtd">
<svg width="100%" height="100%" viewBox="0 0 89 89" version="1.1" xmlns="http://www.w3.org/2000/svg" xmlns:xlink="http://www.w3.org/1999/xlink" xml:space="preserve" xmlns:serif="http://www.serif.com/" style="fill-rule:evenodd;clip-rule:evenodd;stroke-linejoin:round;stroke-miterlimit:2;">
    <g transform="matrix(1,0,0,1,-2340.22,-438.665)">
        <g transform="matrix(1,0,0,1,-1072.97,-2735.12)">
            <path d="M3501.38,3261.99L3501.38,3173.79L3413.18,3173.79L3413.18,3261.99L3501.38,3261.99ZM3497.28,3257.89L3417.28,3257.89L3417.28,3177.89L3497.28,3177.89L3497.28,3257.89ZM3426.48,3246.49C3428.68,3245.89 3432.58,3245.49 3437.88,3245.49C3441.98,3245.49 3447.88,3245.59 3453.78,3246.09C3454.28,3246.09 3454.58,3245.69 3454.58,3244.99C3454.58,3243.59 3453.48,3241.39 3452.28,3241.39C3451.38,3241.39 3448.88,3241.49 3447.68,3241.49C3444.58,3241.49 3442.28,3241.39 3438.68,3241.39C3435.78,3241.39 3431.58,3241.59 3428.88,3241.89C3431.38,3236.49 3435.88,3228.39 3442.38,3221.99C3449.18,3215.19 3454.08,3209.49 3454.08,3202.09C3454.08,3194.29 3448.88,3188.69 3440.78,3188.69C3433.28,3188.69 3428.18,3192.79 3425.28,3198.69C3424.98,3199.09 3424.88,3199.59 3424.88,3200.09C3424.88,3201.39 3426.58,3203.39 3427.48,3203.39C3428.28,3203.39 3428.88,3202.59 3429.28,3201.49C3430.88,3196.69 3434.88,3192.89 3440.68,3192.89C3446.28,3192.89 3449.48,3197.09 3449.48,3202.09C3449.48,3207.39 3445.68,3212.39 3439.58,3218.59C3433.38,3224.89 3428.28,3233.59 3425.48,3239.39C3425.08,3240.19 3424.58,3240.89 3423.88,3241.79C3423.68,3242.09 3423.68,3242.49 3423.68,3242.99C3423.68,3244.59 3424.88,3246.49 3426.18,3246.49L3426.48,3246.49ZM3462.08,3246.49C3465.48,3245.69 3469.88,3245.49 3473.48,3245.49C3477.58,3245.49 3483.48,3245.59 3489.38,3246.09C3489.98,3246.09 3490.18,3245.69 3490.18,3244.99C3490.18,3243.59 3489.08,3241.39 3487.98,3241.39C3486.98,3241.39 3484.48,3241.49 3483.28,3241.49C3480.28,3241.49 3477.88,3241.39 3474.28,3241.39C3471.38,3241.39 3467.28,3241.59 3464.48,3241.89C3467.08,3236.49 3471.48,3228.39 3477.98,3221.99C3484.78,3215.19 3489.68,3209.49 3489.68,3202.09C3489.68,3194.29 3484.48,3188.69 3476.48,3188.69C3468.98,3188.69 3463.78,3192.79 3460.88,3198.69C3460.58,3199.09 3460.48,3199.59 3460.48,3200.09C3460.48,3201.39 3462.18,3203.39 3463.18,3203.39C3463.88,3203.39 3464.48,3202.59 3464.88,3201.49C3466.48,3196.69 3470.48,3192.89 3476.28,3192.89C3481.88,3192.89 3485.08,3197.09 3485.08,3202.09C3485.08,3207.39 3481.28,3212.39 3475.18,3218.59C3469.08,3224.89 3463.88,3233.59 3461.08,3239.39C3460.68,3240.19 3460.18,3240.89 3459.58,3241.79C3459.38,3242.09 3459.28,3242.49 3459.28,3242.99C3459.28,3244.59 3460.48,3246.49 3461.78,3246.49L3462.08,3246.49Z" style="fill-rule:nonzero;"/>
        </g>
    </g>
</svg>
