<?xml version="1.0" encoding="UTF-8" standalone="no"?>
<!DOCTYPE svg PUBLIC "-//W3C//DTD SVG 1.1//EN" "http://www.w3.org/Graphics/SVG/1.1/DTD/svg11.dtd">
<svg width="100%" height="100%" viewBox="0 0 89 89" version="1.1" xmlns="http://www.w3.org/2000/svg" xmlns:xlink="http://www.w3.org/1999/xlink" xml:space="preserve" xmlns:serif="http://www.serif.com/" style="fill-rule:evenodd;clip-rule:evenodd;stroke-linejoin:round;stroke-miterlimit:2;">
    <g transform="matrix(1,0,0,1,-2640.22,-288.665)">
        <g transform="matrix(1,0,0,1,-1072.97,-2735.12)">
            <path d="M3801.38,3111.99L3801.38,3023.79L3713.18,3023.79L3713.18,3111.99L3801.38,3111.99ZM3797.28,3107.89L3717.28,3107.89L3717.28,3027.89L3797.28,3027.89L3797.28,3107.89ZM3771.68,3064.69C3777.98,3062.89 3782.68,3057.89 3782.68,3051.09C3782.68,3043.29 3777.38,3038.69 3769.58,3038.69C3763.38,3038.69 3758.68,3041.29 3754.88,3045.89C3754.48,3046.29 3754.18,3046.79 3754.18,3047.49C3754.18,3049.09 3755.58,3050.89 3756.38,3050.89C3757.08,3050.89 3757.68,3049.89 3757.88,3049.59C3761.58,3044.99 3765.18,3042.89 3769.68,3042.89C3775.18,3042.89 3778.38,3046.19 3778.38,3051.59C3778.38,3058.89 3769.48,3063.29 3762.18,3063.89C3761.58,3063.99 3761.38,3064.49 3761.38,3065.09C3761.38,3066.39 3762.28,3068.29 3763.58,3068.29C3763.78,3068.29 3763.88,3068.19 3764.08,3068.19C3764.88,3067.99 3766.48,3067.69 3767.88,3067.59C3768.48,3067.49 3768.98,3067.49 3769.58,3067.49C3775.98,3067.49 3780.58,3072.09 3780.58,3078.69C3780.58,3086.09 3776.18,3093.19 3766.38,3093.19C3760.88,3093.19 3757.58,3090.39 3754.48,3086.19C3754.18,3085.89 3753.98,3085.69 3753.78,3085.69C3752.68,3085.69 3751.68,3087.79 3751.68,3089.39C3751.68,3090.09 3751.78,3090.59 3752.08,3090.99C3755.98,3095.19 3760.38,3097.49 3766.38,3097.49C3779.18,3097.49 3784.88,3088.79 3784.88,3078.59C3784.88,3069.99 3779.08,3064.69 3772.58,3064.69L3771.68,3064.69ZM3736.08,3087.89C3736.08,3089.59 3735.88,3093.69 3735.88,3094.99C3735.88,3096.29 3737.88,3097.19 3739.28,3097.19C3739.98,3097.19 3740.48,3096.99 3740.48,3096.39C3740.38,3094.29 3740.28,3089.59 3740.28,3087.39L3740.28,3047.09C3740.28,3044.79 3740.78,3043.39 3740.78,3042.09C3740.78,3040.59 3739.08,3039.09 3738.08,3039.09C3736.98,3039.09 3735.48,3041.39 3734.88,3041.89C3732.68,3043.79 3729.18,3045.89 3725.58,3047.49C3725.08,3047.69 3724.88,3047.99 3724.88,3048.29C3724.88,3049.19 3726.48,3050.09 3727.78,3050.09C3727.98,3050.09 3728.28,3050.09 3728.48,3049.99C3730.98,3049.19 3733.98,3047.89 3736.08,3046.49L3736.08,3087.89Z" style="fill-rule:nonzero;"/>
        </g>
    </g>
</svg>
