<?xml version="1.0" encoding="UTF-8" standalone="no"?>
<!DOCTYPE svg PUBLIC "-//W3C//DTD SVG 1.1//EN" "http://www.w3.org/Graphics/SVG/1.1/DTD/svg11.dtd">
<svg width="100%" height="100%" viewBox="0 0 89 89" version="1.1" xmlns="http://www.w3.org/2000/svg" xmlns:xlink="http://www.w3.org/1999/xlink" xml:space="preserve" xmlns:serif="http://www.serif.com/" style="fill-rule:evenodd;clip-rule:evenodd;stroke-linejoin:round;stroke-miterlimit:2;">
    <g transform="matrix(1,0,0,1,-1740.22,-738.665)">
        <g transform="matrix(1,0,0,1,-1072.97,-2735.12)">
            <path d="M2901.38,3561.99L2901.38,3473.79L2813.18,3473.79L2813.18,3561.99L2901.38,3561.99ZM2897.28,3557.89L2817.28,3557.89L2817.28,3477.89L2897.28,3477.89L2897.28,3557.89ZM2867.08,3493.59C2866.98,3493.39 2866.88,3493.29 2866.68,3493.19C2866.58,3493.09 2866.28,3492.99 2865.98,3492.99C2864.38,3492.99 2859.68,3503.89 2859.68,3518.89C2859.68,3535.39 2864.28,3547.49 2873.68,3547.49C2883.58,3547.49 2888.38,3533.39 2888.38,3516.79C2888.38,3500.49 2883.68,3488.59 2875.28,3488.59C2871.88,3488.59 2869.08,3490.59 2867.08,3493.59ZM2873.38,3543.19C2866.08,3543.19 2863.68,3531.99 2863.68,3518.79C2863.68,3501.39 2870.08,3492.69 2874.98,3492.69C2881.98,3492.69 2884.38,3504.99 2884.38,3516.19C2884.38,3529.89 2881.38,3543.19 2873.38,3543.19ZM2849.48,3533.19C2851.38,3533.19 2853.98,3533.39 2854.88,3533.39C2855.38,3533.39 2855.58,3532.89 2855.58,3532.29C2855.58,3530.89 2854.58,3528.59 2853.48,3528.59C2852.58,3528.59 2850.58,3528.99 2849.38,3529.09L2848.18,3529.19L2848.18,3512.49C2848.18,3510.49 2848.38,3506.59 2848.38,3505.29C2848.38,3503.89 2846.48,3502.99 2845.28,3502.99C2844.58,3502.99 2844.08,3503.29 2844.08,3503.79C2844.08,3505.69 2844.18,3510.89 2844.18,3512.49L2844.18,3529.39L2827.98,3529.79C2832.88,3520.19 2839.08,3507.19 2842.88,3498.29C2843.48,3496.99 2844.58,3495.09 2845.28,3493.79C2845.48,3493.59 2845.48,3493.29 2845.48,3492.99C2845.48,3491.29 2843.48,3488.89 2842.38,3488.89C2842.08,3488.89 2841.78,3488.99 2841.68,3489.39C2837.58,3502.19 2826.78,3523.29 2825.68,3525.49C2825.08,3526.59 2824.08,3527.79 2823.38,3529.19C2822.98,3529.69 2822.88,3530.29 2822.88,3530.79C2822.88,3532.69 2824.58,3534.49 2825.88,3534.49C2826.08,3534.49 2826.18,3534.39 2826.38,3534.39C2827.38,3534.09 2828.38,3533.89 2828.88,3533.89L2844.18,3533.39L2844.18,3537.79C2844.18,3538.99 2844.08,3543.59 2844.08,3544.89C2844.08,3546.29 2845.98,3547.19 2847.38,3547.19C2848.08,3547.19 2848.58,3546.89 2848.58,3546.39C2848.58,3544.49 2848.18,3541.29 2848.18,3537.99L2848.18,3533.19L2849.48,3533.19Z" style="fill-rule:nonzero;"/>
        </g>
    </g>
</svg>
