<?xml version="1.0" encoding="UTF-8" standalone="no"?>
<!DOCTYPE svg PUBLIC "-//W3C//DTD SVG 1.1//EN" "http://www.w3.org/Graphics/SVG/1.1/DTD/svg11.dtd">
<svg width="100%" height="100%" viewBox="0 0 89 89" version="1.1" xmlns="http://www.w3.org/2000/svg" xmlns:xlink="http://www.w3.org/1999/xlink" xml:space="preserve" xmlns:serif="http://www.serif.com/" style="fill-rule:evenodd;clip-rule:evenodd;stroke-linejoin:round;stroke-miterlimit:2;">
    <g transform="matrix(1,0,0,1,-2140.22,-438.665)">
        <g transform="matrix(1,0,0,1,-1072.97,-2735.12)">
            <path d="M3301.38,3261.99L3301.38,3173.79L3213.18,3173.79L3213.18,3261.99L3301.38,3261.99ZM3297.28,3257.89L3217.28,3257.89L3217.28,3177.89L3297.28,3177.89L3297.28,3257.89ZM3266.28,3193.59C3266.18,3193.29 3265.68,3192.99 3265.18,3192.99C3263.18,3192.99 3258.48,3204.39 3258.48,3218.89C3258.48,3235.39 3263.28,3247.49 3273.18,3247.49C3283.68,3247.49 3288.68,3233.39 3288.68,3216.79C3288.68,3200.49 3283.88,3188.59 3274.88,3188.59C3271.38,3188.59 3268.38,3190.59 3266.28,3193.59ZM3272.88,3243.19C3265.28,3243.19 3262.58,3231.99 3262.58,3218.79C3262.58,3201.39 3269.38,3192.69 3274.58,3192.69C3281.98,3192.69 3284.58,3204.99 3284.58,3216.19C3284.58,3229.89 3281.28,3243.19 3272.88,3243.19ZM3225.78,3246.49C3229.18,3245.69 3233.58,3245.49 3237.18,3245.49C3242.78,3245.49 3248.28,3245.59 3253.58,3246.09C3254.08,3246.09 3254.38,3245.69 3254.38,3244.99C3254.38,3243.59 3253.28,3241.39 3252.08,3241.39C3251.18,3241.39 3248.68,3241.49 3247.48,3241.49C3244.38,3241.49 3241.58,3241.39 3237.98,3241.39C3235.08,3241.39 3230.98,3241.59 3228.18,3241.89C3230.78,3236.49 3235.68,3228.39 3242.18,3221.99C3248.98,3215.19 3253.88,3209.49 3253.88,3202.09C3253.88,3194.29 3248.68,3188.69 3240.58,3188.69C3233.08,3188.69 3227.98,3192.79 3225.08,3198.69C3224.78,3199.09 3224.68,3199.59 3224.68,3200.09C3224.68,3201.39 3226.38,3203.39 3227.28,3203.39C3228.08,3203.39 3228.68,3202.59 3229.08,3201.49C3230.68,3196.69 3234.68,3192.89 3240.48,3192.89C3246.08,3192.89 3249.28,3197.09 3249.28,3202.09C3249.28,3207.39 3245.48,3212.39 3239.38,3218.59C3233.18,3224.89 3227.58,3233.59 3224.78,3239.39C3224.38,3240.19 3223.88,3240.89 3223.28,3241.79C3223.08,3242.09 3222.98,3242.49 3222.98,3242.99C3222.98,3244.59 3224.18,3246.49 3225.48,3246.49L3225.78,3246.49Z" style="fill-rule:nonzero;"/>
        </g>
    </g>
</svg>
