<?xml version="1.0" encoding="UTF-8" standalone="no"?>
<!DOCTYPE svg PUBLIC "-//W3C//DTD SVG 1.1//EN" "http://www.w3.org/Graphics/SVG/1.1/DTD/svg11.dtd">
<svg width="100%" height="100%" viewBox="0 0 89 89" version="1.1" xmlns="http://www.w3.org/2000/svg" xmlns:xlink="http://www.w3.org/1999/xlink" xml:space="preserve" xmlns:serif="http://www.serif.com/" style="fill-rule:evenodd;clip-rule:evenodd;stroke-linejoin:round;stroke-miterlimit:2;">
    <g transform="matrix(1,0,0,1,-2040.22,-1638.66)">
        <g transform="matrix(1,0,0,1,-1072.97,-2735.12)">
            <path d="M3201.38,4461.99L3201.38,4373.79L3113.18,4373.79L3113.18,4461.99L3201.38,4461.99ZM3197.28,4457.89L3117.28,4457.89L3117.28,4377.89L3197.28,4377.89L3197.28,4457.89ZM3149.58,4400.29C3149.38,4399.99 3148.98,4399.69 3148.58,4399.59C3148.38,4399.49 3148.28,4399.49 3148.08,4399.49C3146.28,4399.49 3138.08,4409.99 3138.08,4420.29C3138.08,4431.99 3144.48,4439.29 3155.78,4439.29C3168.88,4439.29 3175.98,4427.89 3175.98,4417.09C3175.98,4404.29 3169.28,4396.79 3159.68,4396.79C3154.88,4396.79 3151.78,4398.59 3149.58,4400.29ZM3155.78,4434.89C3147.68,4434.89 3142.78,4429.69 3142.78,4420.19C3142.78,4411.29 3149.58,4400.99 3159.18,4400.99C3166.98,4400.99 3171.28,4407.59 3171.28,4417.09C3171.28,4426.89 3164.18,4434.89 3155.78,4434.89Z" style="fill-rule:nonzero;"/>
        </g>
    </g>
</svg>
