<?xml version="1.0" encoding="UTF-8" standalone="no"?>
<!DOCTYPE svg PUBLIC "-//W3C//DTD SVG 1.1//EN" "http://www.w3.org/Graphics/SVG/1.1/DTD/svg11.dtd">
<svg width="100%" height="100%" viewBox="0 0 89 89" version="1.1" xmlns="http://www.w3.org/2000/svg" xmlns:xlink="http://www.w3.org/1999/xlink" xml:space="preserve" xmlns:serif="http://www.serif.com/" style="fill-rule:evenodd;clip-rule:evenodd;stroke-linejoin:round;stroke-miterlimit:2;">
    <g transform="matrix(1,0,0,1,-2440.22,-1338.66)">
        <g transform="matrix(1,0,0,1,-1072.97,-2735.12)">
            <path d="M3601.38,4161.99L3601.38,4073.79L3513.18,4073.79L3513.18,4161.99L3601.38,4161.99ZM3597.28,4157.89L3517.28,4157.89L3517.28,4077.89L3597.28,4077.89L3597.28,4157.89ZM3544.48,4147.09C3546.18,4146.99 3547.18,4146.49 3547.28,4145.39C3548.18,4134.99 3551.98,4112.09 3554.98,4096.99L3555.88,4093.99L3555.88,4093.69C3555.88,4092.49 3554.48,4090.99 3552.98,4090.99C3551.48,4090.99 3551.78,4093.49 3551.28,4095.69C3550.38,4093.39 3547.08,4088.69 3540.38,4088.69C3530.78,4088.69 3523.48,4099.49 3523.48,4110.39C3523.48,4119.59 3527.98,4124.89 3534.48,4124.89C3539.48,4124.89 3544.78,4121.19 3547.78,4115.49C3543.98,4138.79 3543.68,4140.09 3543.08,4143.79C3542.98,4144.49 3542.78,4145.19 3542.78,4145.79C3542.78,4146.59 3543.08,4147.09 3544.28,4147.09L3544.48,4147.09ZM3566.68,4119.19C3568.98,4116.59 3571.98,4114.79 3575.58,4114.79C3581.78,4114.79 3585.78,4119.79 3585.78,4128.09C3585.78,4135.89 3582.18,4143.09 3573.18,4143.09C3568.08,4143.09 3564.78,4139.29 3562.28,4134.99C3562.18,4134.59 3561.88,4134.39 3561.58,4134.39C3560.68,4134.39 3559.58,4136.59 3559.58,4138.39C3559.58,4140.99 3566.08,4147.49 3573.18,4147.49C3585.08,4147.49 3589.88,4138.29 3589.88,4127.99C3589.88,4116.99 3583.58,4110.59 3576.28,4110.59C3571.58,4110.59 3568.48,4112.29 3565.68,4115.09L3567.48,4095.49L3581.08,4094.49L3586.38,4094.19C3586.88,4094.19 3587.08,4093.69 3587.08,4093.09C3587.08,4091.79 3586.08,4089.69 3585.18,4089.69L3584.98,4089.69C3583.78,4089.99 3581.78,4090.09 3580.48,4090.19L3567.48,4091.09C3566.58,4090.59 3565.58,4090.19 3564.88,4090.19C3564.28,4090.19 3563.98,4090.39 3563.98,4091.09C3563.98,4092.09 3563.88,4093.49 3563.78,4094.59L3562.08,4114.29L3561.48,4117.09C3561.38,4117.39 3561.38,4117.69 3561.38,4117.99C3561.38,4119.99 3563.08,4121.49 3564.18,4121.49C3564.48,4121.49 3564.58,4121.49 3564.78,4121.29L3566.68,4119.19ZM3549.98,4103.19C3549.38,4104.99 3548.68,4107.39 3547.98,4108.89C3544.38,4115.89 3540.58,4120.49 3534.38,4120.49C3529.88,4120.49 3527.58,4116.99 3527.58,4110.09C3527.58,4102.69 3532.28,4092.89 3540.68,4092.89C3545.68,4092.89 3547.78,4096.79 3548.68,4098.99C3548.98,4099.69 3549.28,4099.99 3549.68,4099.99C3549.98,4099.99 3550.38,4099.69 3550.68,4099.29L3549.98,4103.19Z" style="fill-rule:nonzero;"/>
        </g>
    </g>
</svg>
