<?xml version="1.0" encoding="UTF-8" standalone="no"?>
<!DOCTYPE svg PUBLIC "-//W3C//DTD SVG 1.1//EN" "http://www.w3.org/Graphics/SVG/1.1/DTD/svg11.dtd">
<svg width="100%" height="100%" viewBox="0 0 89 89" version="1.1" xmlns="http://www.w3.org/2000/svg" xmlns:xlink="http://www.w3.org/1999/xlink" xml:space="preserve" xmlns:serif="http://www.serif.com/" style="fill-rule:evenodd;clip-rule:evenodd;stroke-linejoin:round;stroke-miterlimit:2;">
    <g transform="matrix(1,0,0,1,-2540.22,-1188.66)">
        <g transform="matrix(1,0,0,1,-1072.97,-2735.12)">
            <path d="M3701.38,4011.99L3701.38,3923.79L3613.18,3923.79L3613.18,4011.99L3701.38,4011.99ZM3697.28,4007.89L3617.28,4007.89L3617.28,3927.89L3697.28,3927.89L3697.28,4007.89ZM3642.78,3963.69C3648.58,3958.99 3655.28,3951.69 3655.28,3949.19C3655.28,3948.29 3654.78,3947.69 3654.08,3947.69C3653.58,3947.69 3653.08,3947.89 3652.48,3948.59L3652.18,3948.99C3652.38,3948.49 3652.58,3947.89 3652.58,3947.49C3652.58,3946.59 3648.48,3938.79 3640.48,3938.79C3632.18,3938.79 3627.28,3945.09 3627.28,3952.19C3627.28,3957.49 3629.08,3960.89 3635.38,3964.49C3628.98,3969.49 3625.18,3974.99 3625.18,3982.29C3625.18,3990.89 3630.48,3997.49 3639.38,3997.49C3649.18,3997.49 3655.68,3991.09 3655.68,3981.19C3655.68,3973.39 3651.78,3968.29 3643.58,3964.09L3642.78,3963.69ZM3686.98,3983.19C3688.88,3983.19 3691.38,3983.39 3692.38,3983.39C3692.88,3983.39 3692.98,3982.89 3692.98,3982.29C3692.98,3980.89 3691.98,3978.59 3690.88,3978.59C3689.98,3978.59 3688.08,3978.99 3686.88,3979.09L3685.68,3979.19L3685.68,3962.49C3685.68,3960.49 3685.88,3956.59 3685.88,3955.29C3685.88,3953.89 3683.98,3952.99 3682.68,3952.99C3681.98,3952.99 3681.48,3953.29 3681.48,3953.79C3681.48,3955.69 3681.68,3960.89 3681.68,3962.49L3681.68,3979.39L3665.38,3979.79C3670.28,3970.19 3676.48,3957.19 3680.38,3948.29C3680.98,3946.99 3681.98,3945.09 3682.78,3943.79C3682.98,3943.59 3682.98,3943.29 3682.98,3942.99C3682.98,3941.29 3680.98,3938.89 3679.88,3938.89C3679.48,3938.89 3679.28,3938.99 3679.18,3939.39C3677.58,3944.29 3672.88,3956.39 3663.08,3975.49C3662.48,3976.59 3661.58,3977.79 3660.78,3979.19C3660.48,3979.69 3660.38,3980.29 3660.38,3980.79C3660.38,3982.69 3661.98,3984.49 3663.38,3984.49C3663.48,3984.49 3663.58,3984.39 3663.78,3984.39C3664.78,3984.09 3665.88,3983.89 3666.38,3983.89L3681.68,3983.39L3681.68,3987.79C3681.68,3988.99 3681.48,3993.59 3681.48,3994.89C3681.48,3996.29 3683.48,3997.19 3684.78,3997.19C3685.48,3997.19 3685.98,3996.89 3685.98,3996.39C3685.98,3994.49 3685.68,3991.29 3685.68,3987.99L3685.68,3983.19L3686.98,3983.19ZM3639.18,3966.49C3646.48,3970.19 3651.68,3973.39 3651.68,3981.59C3651.68,3988.49 3646.38,3993.19 3639.38,3993.19C3632.28,3993.19 3629.18,3987.59 3629.18,3982.09C3629.18,3976.29 3632.88,3971.59 3639.18,3966.49ZM3651.08,3950.19C3647.58,3954.19 3643.68,3958.29 3639.08,3961.69C3633.08,3958.59 3631.28,3956.39 3631.28,3952.19C3631.28,3947.49 3634.38,3942.89 3640.58,3942.89C3644.68,3942.89 3646.98,3945.39 3649.08,3949.29C3649.48,3950.09 3649.98,3950.39 3650.38,3950.39C3650.58,3950.39 3650.88,3950.29 3651.08,3950.19Z" style="fill-rule:nonzero;"/>
        </g>
    </g>
</svg>
