<?xml version="1.0" encoding="UTF-8" standalone="no"?>
<!DOCTYPE svg PUBLIC "-//W3C//DTD SVG 1.1//EN" "http://www.w3.org/Graphics/SVG/1.1/DTD/svg11.dtd">
<svg width="100%" height="100%" viewBox="0 0 89 89" version="1.1" xmlns="http://www.w3.org/2000/svg" xmlns:xlink="http://www.w3.org/1999/xlink" xml:space="preserve" xmlns:serif="http://www.serif.com/" style="fill-rule:evenodd;clip-rule:evenodd;stroke-linejoin:round;stroke-miterlimit:2;">
    <g transform="matrix(1,0,0,1,-2040.22,-1338.66)">
        <g transform="matrix(1,0,0,1,-1072.97,-2735.12)">
            <path d="M3201.38,4161.99L3201.38,4073.79L3113.18,4073.79L3113.18,4161.99L3201.38,4161.99ZM3197.28,4157.89L3117.28,4157.89L3117.28,4077.89L3197.28,4077.89L3197.28,4157.89ZM3148.18,4147.09C3149.98,4146.99 3151.08,4146.49 3151.18,4145.39C3151.88,4136.39 3156.08,4112.39 3159.28,4096.99C3159.38,4096.49 3159.98,4095.09 3160.18,4093.99L3160.18,4093.69C3160.18,4092.49 3158.78,4090.99 3157.18,4090.99C3155.58,4090.99 3155.98,4093.49 3155.48,4095.69C3154.48,4093.39 3150.98,4088.69 3143.88,4088.69C3133.78,4088.69 3126.08,4099.49 3126.08,4110.39C3126.08,4119.59 3130.78,4124.89 3137.68,4124.89C3142.98,4124.89 3148.58,4121.19 3151.78,4115.49C3150.48,4122.79 3148.98,4131.29 3147.98,4137.59L3146.78,4143.79C3146.68,4144.49 3146.38,4145.19 3146.38,4145.79C3146.38,4146.59 3146.78,4147.09 3148.08,4147.09L3148.18,4147.09ZM3154.78,4099.29C3153.28,4109.29 3146.78,4120.49 3137.58,4120.49C3132.78,4120.49 3130.38,4116.99 3130.38,4110.09C3130.38,4102.69 3135.38,4092.89 3144.28,4092.89C3149.48,4092.89 3151.68,4096.79 3152.68,4098.99C3152.98,4099.69 3153.28,4099.99 3153.68,4099.99C3154.08,4099.99 3154.48,4099.69 3154.78,4099.29ZM3178.48,4137.89C3178.48,4139.59 3178.28,4143.69 3178.28,4144.99C3178.28,4146.29 3180.28,4147.19 3181.68,4147.19C3182.38,4147.19 3182.88,4146.99 3182.88,4146.39C3182.78,4144.29 3182.68,4139.59 3182.68,4137.39L3182.68,4097.09C3182.68,4094.79 3183.18,4093.39 3183.18,4092.09C3183.18,4090.59 3181.48,4089.09 3180.48,4089.09C3179.38,4089.09 3177.88,4091.39 3177.28,4091.89C3175.08,4093.79 3171.58,4095.89 3167.98,4097.49C3167.48,4097.69 3167.28,4097.99 3167.28,4098.29C3167.28,4099.19 3168.88,4100.09 3170.18,4100.09C3170.38,4100.09 3170.68,4100.09 3170.88,4099.99C3173.38,4099.19 3176.38,4097.89 3178.48,4096.49L3178.48,4137.89Z" style="fill-rule:nonzero;"/>
        </g>
    </g>
</svg>
