<?xml version="1.0" encoding="UTF-8" standalone="no"?>
<!DOCTYPE svg PUBLIC "-//W3C//DTD SVG 1.1//EN" "http://www.w3.org/Graphics/SVG/1.1/DTD/svg11.dtd">
<svg width="100%" height="100%" viewBox="0 0 89 89" version="1.1" xmlns="http://www.w3.org/2000/svg" xmlns:xlink="http://www.w3.org/1999/xlink" xml:space="preserve" xmlns:serif="http://www.serif.com/" style="fill-rule:evenodd;clip-rule:evenodd;stroke-linejoin:round;stroke-miterlimit:2;">
    <g transform="matrix(1,0,0,1,-1940.22,-1188.66)">
        <g transform="matrix(1,0,0,1,-1072.97,-2735.12)">
            <path d="M3101.38,4011.99L3101.38,3923.79L3013.18,3923.79L3013.18,4011.99L3101.38,4011.99ZM3097.28,4007.89L3017.28,4007.89L3017.28,3927.89L3097.28,3927.89L3097.28,4007.89ZM3076.08,3963.69C3083.38,3957.99 3089.28,3951.19 3089.28,3949.19C3089.28,3948.29 3088.78,3947.69 3088.08,3947.69C3087.48,3947.69 3086.98,3947.89 3086.28,3948.59L3085.98,3948.99C3086.28,3948.49 3086.38,3947.89 3086.38,3947.49C3086.38,3947.19 3086.28,3946.89 3086.28,3946.69C3083.48,3942.39 3079.38,3938.79 3073.68,3938.79C3064.88,3938.79 3059.68,3945.09 3059.68,3952.19C3059.68,3957.49 3061.58,3960.89 3068.28,3964.49C3061.48,3969.49 3057.48,3974.99 3057.48,3982.29C3057.48,3990.89 3063.08,3997.49 3072.38,3997.49C3082.78,3997.49 3089.68,3991.09 3089.68,3981.19C3089.68,3973.39 3085.58,3968.29 3076.98,3964.09L3076.08,3963.69ZM3074.08,3967.29C3082.68,3971.39 3085.38,3975.69 3085.38,3981.59C3085.38,3988.49 3079.88,3993.19 3072.38,3993.19C3064.98,3993.19 3061.68,3987.59 3061.68,3982.09C3061.68,3976.29 3065.58,3971.59 3072.28,3966.49L3074.08,3967.29ZM3054.38,3942.89C3054.38,3941.49 3052.48,3939.69 3051.38,3939.49L3051.18,3939.49C3050.28,3939.49 3049.18,3939.99 3048.08,3940.09L3027.58,3941.59L3026.58,3941.59C3025.38,3941.59 3024.58,3941.49 3023.68,3941.49C3023.48,3941.49 3023.38,3941.69 3023.38,3941.99C3023.38,3943.09 3024.98,3946.09 3027.08,3946.09C3027.68,3946.09 3028.48,3945.99 3029.28,3945.89L3048.88,3944.09C3041.08,3962.39 3034.38,3981.99 3030.88,3993.39C3030.78,3993.89 3030.38,3994.59 3030.38,3995.29C3030.38,3995.99 3030.78,3996.69 3032.28,3996.89C3032.68,3996.89 3033.08,3996.99 3033.28,3996.99C3034.58,3996.99 3035.28,3996.69 3035.38,3995.79C3037.58,3985.29 3045.68,3962.89 3052.58,3946.99C3053.08,3945.99 3054.18,3944.49 3054.38,3943.19L3054.38,3942.89ZM3084.78,3950.19C3081.18,3954.19 3076.98,3958.29 3072.18,3961.69C3065.88,3958.59 3063.98,3956.39 3063.98,3952.19C3063.98,3947.49 3067.18,3942.89 3073.78,3942.89C3077.98,3942.89 3080.58,3945.39 3082.68,3949.29C3083.18,3950.09 3083.58,3950.39 3084.08,3950.39C3084.38,3950.39 3084.58,3950.29 3084.78,3950.19Z" style="fill-rule:nonzero;"/>
        </g>
    </g>
</svg>
