<?xml version="1.0" encoding="UTF-8" standalone="no"?>
<!DOCTYPE svg PUBLIC "-//W3C//DTD SVG 1.1//EN" "http://www.w3.org/Graphics/SVG/1.1/DTD/svg11.dtd">
<svg width="100%" height="100%" viewBox="0 0 89 89" version="1.1" xmlns="http://www.w3.org/2000/svg" xmlns:xlink="http://www.w3.org/1999/xlink" xml:space="preserve" xmlns:serif="http://www.serif.com/" style="fill-rule:evenodd;clip-rule:evenodd;stroke-linejoin:round;stroke-miterlimit:2;">
    <g transform="matrix(1,0,0,1,-1540.22,-1338.66)">
        <g transform="matrix(1,0,0,1,-1072.97,-2735.12)">
            <path d="M2701.38,4161.99L2701.38,4073.79L2613.18,4073.79L2613.18,4161.99L2701.38,4161.99ZM2697.28,4157.89L2617.28,4157.89L2617.28,4077.89L2697.28,4077.89L2697.28,4157.89ZM2643.68,4113.69C2649.48,4108.99 2656.18,4101.69 2656.18,4099.19C2656.18,4098.29 2655.68,4097.69 2654.98,4097.69C2654.48,4097.69 2653.98,4097.89 2653.38,4098.59L2653.08,4098.99C2653.28,4098.49 2653.48,4097.89 2653.48,4097.49C2653.48,4096.69 2649.28,4088.79 2641.48,4088.79C2633.08,4088.79 2628.18,4095.09 2628.18,4102.19C2628.18,4107.49 2629.98,4110.89 2636.28,4114.49C2629.88,4119.49 2626.08,4124.99 2626.08,4132.29C2626.08,4140.89 2631.38,4147.49 2640.28,4147.49C2650.08,4147.49 2656.58,4141.09 2656.58,4131.19C2656.58,4123.39 2652.68,4118.29 2644.48,4114.09L2643.68,4113.69ZM2675.48,4091.29C2672.68,4096.09 2669.68,4102.09 2666.48,4109.29C2663.18,4116.79 2661.58,4123.59 2661.58,4130.39C2661.58,4139.79 2668.08,4147.49 2676.88,4147.49C2686.48,4147.49 2692.28,4139.09 2692.28,4128.19C2692.28,4118.39 2686.58,4111.19 2678.08,4111.19C2673.38,4111.19 2669.58,4113.59 2667.18,4117.49C2671.88,4105.99 2676.18,4097.99 2680.48,4092.09C2680.78,4091.69 2681.28,4090.99 2681.28,4090.39C2681.28,4089.69 2679.98,4088.59 2678.28,4088.59C2677.48,4088.59 2676.88,4088.89 2676.48,4089.59C2676.28,4089.99 2675.68,4091.09 2675.48,4091.29ZM2676.88,4143.39C2670.28,4143.39 2665.58,4137.69 2665.58,4130.29C2665.58,4122.29 2670.38,4115.29 2678.08,4115.29C2684.38,4115.29 2688.18,4121.49 2688.18,4128.39C2688.18,4137.19 2683.38,4143.39 2676.88,4143.39ZM2640.08,4116.49C2647.38,4120.19 2652.58,4123.39 2652.58,4131.59C2652.58,4138.49 2647.38,4143.19 2640.28,4143.19C2633.18,4143.19 2630.08,4137.59 2630.08,4132.09C2630.08,4126.29 2633.78,4121.59 2640.08,4116.49ZM2651.98,4100.19C2648.58,4104.19 2644.58,4108.29 2639.98,4111.69C2633.98,4108.59 2632.18,4106.39 2632.18,4102.19C2632.18,4097.49 2635.28,4092.89 2641.48,4092.89C2645.58,4092.89 2647.88,4095.39 2649.98,4099.29C2650.38,4100.09 2650.88,4100.39 2651.28,4100.39C2651.48,4100.39 2651.78,4100.29 2651.98,4100.19Z" style="fill-rule:nonzero;"/>
        </g>
    </g>
</svg>
