<?xml version="1.0" encoding="UTF-8" standalone="no"?>
<!DOCTYPE svg PUBLIC "-//W3C//DTD SVG 1.1//EN" "http://www.w3.org/Graphics/SVG/1.1/DTD/svg11.dtd">
<svg width="100%" height="100%" viewBox="0 0 89 89" version="1.1" xmlns="http://www.w3.org/2000/svg" xmlns:xlink="http://www.w3.org/1999/xlink" xml:space="preserve" xmlns:serif="http://www.serif.com/" style="fill-rule:evenodd;clip-rule:evenodd;stroke-linejoin:round;stroke-miterlimit:2;">
    <g transform="matrix(1,0,0,1,-1740.22,-1038.66)">
        <g transform="matrix(1,0,0,1,-1072.97,-2735.12)">
            <path d="M2901.38,3861.99L2901.38,3773.79L2813.18,3773.79L2813.18,3861.99L2901.38,3861.99ZM2897.28,3857.89L2817.28,3857.89L2817.28,3777.89L2897.28,3777.89L2897.28,3857.89ZM2839.18,3791.29C2836.38,3796.09 2833.48,3802.09 2830.28,3809.29C2826.98,3816.79 2825.28,3823.59 2825.28,3830.39C2825.28,3839.79 2831.88,3847.49 2840.68,3847.49C2850.28,3847.49 2856.08,3839.09 2856.08,3828.19C2856.08,3818.39 2850.38,3811.19 2841.88,3811.19C2837.18,3811.19 2833.28,3813.59 2830.98,3817.49C2834.28,3809.29 2837.68,3801.09 2844.28,3792.09C2844.58,3791.69 2845.08,3790.99 2845.08,3790.39C2845.08,3789.09 2842.98,3788.59 2842.08,3788.59C2841.28,3788.59 2840.58,3788.89 2840.28,3789.59C2839.98,3789.99 2839.38,3791.09 2839.18,3791.29ZM2840.68,3843.39C2833.98,3843.39 2829.28,3837.69 2829.28,3830.29C2829.28,3822.29 2834.18,3815.29 2841.78,3815.29C2848.08,3815.29 2851.98,3821.49 2851.98,3828.39C2851.98,3837.19 2847.18,3843.39 2840.68,3843.39ZM2886.88,3833.19C2888.78,3833.19 2891.38,3833.39 2892.28,3833.39C2892.78,3833.39 2892.98,3832.89 2892.98,3832.29C2892.98,3830.89 2891.98,3828.59 2890.88,3828.59C2889.98,3828.59 2887.98,3828.99 2886.78,3829.09L2885.58,3829.19L2885.58,3812.49C2885.58,3810.49 2885.78,3806.59 2885.78,3805.29C2885.78,3803.89 2883.88,3802.99 2882.58,3802.99C2881.98,3802.99 2881.38,3803.29 2881.38,3803.79C2881.38,3805.69 2881.58,3810.89 2881.58,3812.49L2881.58,3829.39L2865.38,3829.79C2870.18,3820.19 2876.48,3807.19 2880.28,3798.29C2880.88,3796.99 2881.98,3795.09 2882.68,3793.79C2882.88,3793.59 2882.88,3793.29 2882.88,3792.99C2882.88,3791.29 2880.88,3788.89 2879.78,3788.89C2879.48,3788.89 2879.18,3788.99 2879.08,3789.39C2874.88,3802.29 2863.78,3824.19 2863.08,3825.49C2862.48,3826.59 2861.48,3827.79 2860.78,3829.19C2860.38,3829.69 2860.28,3830.29 2860.28,3830.79C2860.28,3832.69 2861.98,3834.49 2863.28,3834.49C2863.48,3834.49 2863.58,3834.39 2863.68,3834.39C2864.78,3834.09 2865.78,3833.89 2866.28,3833.89L2881.58,3833.39L2881.58,3837.79C2881.58,3838.99 2881.38,3843.59 2881.38,3844.89C2881.38,3846.29 2883.38,3847.19 2884.78,3847.19C2885.48,3847.19 2885.98,3846.89 2885.98,3846.39C2885.98,3844.49 2885.58,3841.29 2885.58,3837.99L2885.58,3833.19L2886.88,3833.19Z" style="fill-rule:nonzero;"/>
        </g>
    </g>
</svg>
