<?xml version="1.0" encoding="UTF-8" standalone="no"?>
<!DOCTYPE svg PUBLIC "-//W3C//DTD SVG 1.1//EN" "http://www.w3.org/Graphics/SVG/1.1/DTD/svg11.dtd">
<svg width="100%" height="100%" viewBox="0 0 89 89" version="1.1" xmlns="http://www.w3.org/2000/svg" xmlns:xlink="http://www.w3.org/1999/xlink" xml:space="preserve" xmlns:serif="http://www.serif.com/" style="fill-rule:evenodd;clip-rule:evenodd;stroke-linejoin:round;stroke-miterlimit:2;">
    <g transform="matrix(1,0,0,1,-2240.22,-888.665)">
        <g transform="matrix(1,0,0,1,-1072.97,-2735.12)">
            <path d="M3401.38,3711.99L3401.38,3623.79L3313.18,3623.79L3313.18,3711.99L3401.38,3711.99ZM3397.28,3707.89L3317.28,3707.89L3317.28,3627.89L3397.28,3627.89L3397.28,3707.89ZM3333.78,3669.19C3336.08,3666.59 3339.08,3664.79 3342.68,3664.79C3348.98,3664.79 3352.98,3669.79 3352.98,3678.09C3352.98,3685.89 3349.38,3693.09 3340.28,3693.09C3335.18,3693.09 3331.88,3689.29 3329.48,3684.99C3329.28,3684.59 3328.98,3684.39 3328.78,3684.39C3327.78,3684.39 3326.68,3686.59 3326.68,3688.39C3326.68,3690.99 3333.28,3697.49 3340.28,3697.49C3352.18,3697.49 3356.98,3688.29 3356.98,3677.99C3356.98,3666.99 3350.68,3660.59 3343.38,3660.59C3338.78,3660.59 3335.58,3662.29 3332.78,3665.09L3334.58,3645.49L3348.18,3644.49L3353.48,3644.19C3353.98,3644.19 3354.28,3643.69 3354.28,3643.09C3354.28,3641.79 3353.18,3639.69 3352.28,3639.69L3352.08,3639.69C3350.88,3639.99 3348.98,3640.09 3347.68,3640.19L3334.68,3641.09C3333.68,3640.59 3332.68,3640.19 3331.98,3640.19C3331.38,3640.19 3331.08,3640.39 3331.08,3641.09C3331.08,3642.09 3330.98,3643.49 3330.88,3644.59L3329.18,3664.29C3329.08,3664.69 3328.48,3667.29 3328.48,3667.99C3328.48,3669.99 3330.18,3671.49 3331.28,3671.49C3331.58,3671.49 3331.78,3671.49 3331.88,3671.29L3333.78,3669.19ZM3389.98,3642.89C3389.98,3641.49 3388.18,3639.69 3387.08,3639.49L3386.98,3639.49C3386.08,3639.49 3385.08,3639.99 3383.98,3640.09L3364.58,3641.59L3363.58,3641.59C3362.38,3641.59 3361.68,3641.49 3360.88,3641.49C3360.58,3641.49 3360.48,3641.69 3360.48,3641.99C3360.48,3642.49 3361.48,3646.09 3363.98,3646.09C3364.68,3646.09 3365.38,3645.99 3366.08,3645.89L3384.78,3644.09C3378.98,3658.49 3373.48,3673.99 3369.48,3687.49C3368.98,3688.89 3368.38,3691.09 3367.58,3693.39C3367.58,3693.89 3367.18,3694.59 3367.18,3695.29C3367.18,3695.99 3367.58,3696.69 3368.98,3696.89C3369.38,3696.89 3369.68,3696.99 3369.98,3696.99C3371.18,3696.99 3371.78,3696.69 3371.98,3695.79C3373.18,3688.69 3379.08,3669.19 3388.28,3646.99C3388.68,3645.99 3389.78,3644.49 3389.98,3643.19L3389.98,3642.89Z" style="fill-rule:nonzero;"/>
        </g>
    </g>
</svg>
