<?xml version="1.0" encoding="UTF-8" standalone="no"?>
<!DOCTYPE svg PUBLIC "-//W3C//DTD SVG 1.1//EN" "http://www.w3.org/Graphics/SVG/1.1/DTD/svg11.dtd">
<svg width="100%" height="100%" viewBox="0 0 89 89" version="1.1" xmlns="http://www.w3.org/2000/svg" xmlns:xlink="http://www.w3.org/1999/xlink" xml:space="preserve" xmlns:serif="http://www.serif.com/" style="fill-rule:evenodd;clip-rule:evenodd;stroke-linejoin:round;stroke-miterlimit:2;">
    <g transform="matrix(1,0,0,1,-2140.22,-288.665)">
        <g transform="matrix(1,0,0,1,-1072.97,-2735.12)">
            <path d="M3301.38,3111.99L3301.38,3023.79L3213.18,3023.79L3213.18,3111.99L3301.38,3111.99ZM3297.28,3107.89L3217.28,3107.89L3217.28,3027.89L3297.28,3027.89L3297.28,3107.89ZM3263.88,3097.09C3265.88,3096.99 3266.88,3096.49 3266.98,3095.39C3267.58,3090.59 3273.48,3053.99 3277.08,3043.99L3277.08,3043.69C3277.08,3042.49 3274.98,3041.19 3273.68,3040.99L3273.48,3040.99C3271.98,3040.99 3272.38,3043.39 3271.88,3045.69C3270.68,3043.39 3265.48,3038.69 3256.68,3038.69C3244.38,3038.69 3234.68,3049.49 3234.68,3060.39C3234.68,3069.59 3241.68,3074.89 3249.78,3074.89C3256.28,3074.89 3263.98,3071.29 3267.68,3065.49C3266.58,3071.49 3263.98,3085.49 3262.18,3093.79C3262.08,3094.49 3261.88,3095.19 3261.88,3095.69C3261.88,3096.49 3262.28,3097.09 3263.68,3097.09L3263.88,3097.09ZM3270.28,3053.19C3266.68,3064.09 3258.68,3070.49 3249.78,3070.49C3243.78,3070.49 3239.28,3066.99 3239.28,3060.09C3239.28,3052.69 3246.38,3042.89 3257.08,3042.89C3263.38,3042.89 3267.68,3046.79 3268.68,3048.99C3269.08,3049.69 3269.48,3049.99 3269.88,3049.99C3270.28,3049.99 3270.68,3049.69 3271.08,3049.29L3270.28,3053.19Z" style="fill-rule:nonzero;"/>
        </g>
    </g>
</svg>
