<?xml version="1.0" encoding="UTF-8" standalone="no"?>
<!DOCTYPE svg PUBLIC "-//W3C//DTD SVG 1.1//EN" "http://www.w3.org/Graphics/SVG/1.1/DTD/svg11.dtd">
<svg width="100%" height="100%" viewBox="0 0 89 89" version="1.1" xmlns="http://www.w3.org/2000/svg" xmlns:xlink="http://www.w3.org/1999/xlink" xml:space="preserve" xmlns:serif="http://www.serif.com/" style="fill-rule:evenodd;clip-rule:evenodd;stroke-linejoin:round;stroke-miterlimit:2;">
    <g transform="matrix(1,0,0,1,-2540.22,-738.665)">
        <g transform="matrix(1,0,0,1,-1072.97,-2735.12)">
            <path d="M3701.38,3561.99L3701.38,3473.79L3613.18,3473.79L3613.18,3561.99L3701.38,3561.99ZM3697.28,3557.89L3617.28,3557.89L3617.28,3477.89L3697.28,3477.89L3697.28,3557.89ZM3676.28,3513.69C3679.68,3510.99 3688.88,3501.79 3688.88,3499.19C3688.88,3498.29 3688.38,3497.69 3687.68,3497.69C3687.18,3497.69 3686.68,3497.89 3686.08,3498.59L3685.68,3498.99C3685.98,3498.49 3686.18,3497.89 3686.18,3497.49C3686.18,3497.19 3686.08,3496.89 3685.98,3496.69C3683.28,3492.39 3679.48,3488.79 3674.08,3488.79C3665.68,3488.79 3660.78,3495.09 3660.78,3502.19C3660.78,3507.49 3662.58,3510.89 3668.98,3514.49C3662.58,3519.49 3658.68,3524.99 3658.68,3532.29C3658.68,3540.89 3663.98,3547.49 3672.88,3547.49C3682.68,3547.49 3689.18,3541.09 3689.18,3531.19C3689.18,3523.39 3685.38,3518.29 3677.18,3514.09L3676.28,3513.69ZM3649.18,3533.19C3650.98,3533.19 3653.58,3533.39 3654.48,3533.39C3655.08,3533.39 3655.18,3532.89 3655.18,3532.29C3655.18,3530.89 3654.18,3528.59 3653.08,3528.59C3652.18,3528.59 3650.28,3528.99 3649.08,3529.09L3647.88,3529.19L3647.88,3512.49C3647.88,3510.49 3647.98,3506.59 3647.98,3505.29C3647.98,3503.89 3646.18,3502.99 3644.88,3502.99C3644.18,3502.99 3643.68,3503.29 3643.68,3503.79C3643.68,3505.69 3643.88,3510.89 3643.88,3512.49L3643.88,3529.39L3627.58,3529.79C3632.48,3520.19 3638.68,3507.19 3642.58,3498.29C3643.08,3496.99 3644.18,3495.09 3644.98,3493.79C3645.08,3493.59 3645.08,3493.29 3645.08,3492.99C3645.08,3491.29 3643.18,3488.89 3642.08,3488.89C3641.68,3488.89 3641.48,3488.99 3641.38,3489.39C3637.28,3500.99 3629.58,3517.09 3625.28,3525.49C3624.68,3526.59 3623.78,3527.79 3622.98,3529.19C3622.68,3529.69 3622.58,3530.29 3622.58,3530.79C3622.58,3532.69 3624.18,3534.49 3625.58,3534.49C3625.68,3534.49 3625.78,3534.39 3625.98,3534.39C3626.98,3534.09 3627.98,3533.89 3628.58,3533.89L3643.88,3533.39L3643.88,3537.79C3643.88,3538.99 3643.68,3543.59 3643.68,3544.89C3643.68,3546.29 3645.68,3547.19 3646.98,3547.19C3647.68,3547.19 3648.18,3546.89 3648.18,3546.39C3648.18,3544.49 3647.88,3541.29 3647.88,3537.99L3647.88,3533.19L3649.18,3533.19ZM3672.68,3516.49C3684.68,3521.29 3685.18,3528.79 3685.18,3531.59C3685.18,3538.49 3679.98,3543.19 3672.88,3543.19C3665.78,3543.19 3662.68,3537.59 3662.68,3532.09C3662.68,3526.29 3666.38,3521.59 3672.68,3516.49ZM3684.58,3500.19C3681.18,3504.19 3677.28,3508.29 3672.58,3511.69C3666.68,3508.59 3664.88,3506.39 3664.88,3502.19C3664.88,3497.49 3667.88,3492.89 3674.18,3492.89C3678.18,3492.89 3680.58,3495.39 3682.58,3499.29C3683.08,3500.09 3683.48,3500.39 3683.88,3500.39C3684.18,3500.39 3684.38,3500.29 3684.58,3500.19Z" style="fill-rule:nonzero;"/>
        </g>
    </g>
</svg>
