<?xml version="1.0" encoding="UTF-8" standalone="no"?>
<!DOCTYPE svg PUBLIC "-//W3C//DTD SVG 1.1//EN" "http://www.w3.org/Graphics/SVG/1.1/DTD/svg11.dtd">
<svg width="100%" height="100%" viewBox="0 0 89 89" version="1.1" xmlns="http://www.w3.org/2000/svg" xmlns:xlink="http://www.w3.org/1999/xlink" xml:space="preserve" xmlns:serif="http://www.serif.com/" style="fill-rule:evenodd;clip-rule:evenodd;stroke-linejoin:round;stroke-miterlimit:2;">
    <g transform="matrix(1,0,0,1,-1840.22,-1488.66)">
        <g transform="matrix(1,0,0,1,-1072.97,-2735.12)">
            <path d="M3001.38,4311.99L3001.38,4223.79L2913.18,4223.79L2913.18,4311.99L3001.38,4311.99ZM2997.28,4307.89L2917.28,4307.89L2917.28,4227.89L2997.28,4227.89L2997.28,4307.89ZM2974.08,4248.79C2974.08,4247.59 2971.78,4246.69 2970.18,4246.69C2969.38,4246.69 2968.78,4246.99 2968.78,4247.49C2968.78,4248.29 2968.68,4250.49 2968.68,4252.99C2966.88,4248.79 2962.58,4246.69 2958.48,4246.69C2948.38,4246.69 2937.58,4258.59 2937.58,4272.99C2937.58,4283.59 2942.98,4289.19 2951.08,4289.19C2957.58,4289.19 2964.38,4285.49 2968.48,4277.09C2968.68,4280.49 2970.68,4288.79 2973.18,4288.79C2974.58,4288.79 2976.18,4286.69 2976.18,4285.49C2976.18,4285.29 2976.08,4285.09 2975.98,4284.99C2974.68,4282.99 2972.98,4279.29 2972.98,4271.29C2972.98,4265.39 2973.48,4252.39 2974.08,4248.99L2974.08,4248.79ZM2968.68,4255.09C2968.58,4257.89 2968.58,4261.39 2968.48,4263.09C2967.88,4276.29 2959.58,4284.99 2951.08,4284.99C2946.08,4284.99 2942.48,4281.29 2942.48,4272.59C2942.48,4260.39 2950.98,4250.79 2958.48,4250.79C2961.18,4250.79 2964.18,4252.19 2966.38,4255.59C2966.48,4255.79 2966.78,4255.89 2967.08,4255.89C2967.58,4255.89 2968.38,4255.59 2968.68,4255.09Z" style="fill-rule:nonzero;"/>
        </g>
    </g>
</svg>
