<?xml version="1.0" encoding="UTF-8" standalone="no"?>
<!DOCTYPE svg PUBLIC "-//W3C//DTD SVG 1.1//EN" "http://www.w3.org/Graphics/SVG/1.1/DTD/svg11.dtd">
<svg width="100%" height="100%" viewBox="0 0 89 89" version="1.1" xmlns="http://www.w3.org/2000/svg" xmlns:xlink="http://www.w3.org/1999/xlink" xml:space="preserve" xmlns:serif="http://www.serif.com/" style="fill-rule:evenodd;clip-rule:evenodd;stroke-linejoin:round;stroke-miterlimit:2;">
    <g transform="matrix(1,0,0,1,-1940.22,-588.665)">
        <g transform="matrix(1,0,0,1,-1072.97,-2735.12)">
            <path d="M3101.38,3411.99L3101.38,3323.79L3013.18,3323.79L3013.18,3411.99L3101.38,3411.99ZM3097.28,3407.89L3017.28,3407.89L3017.28,3327.89L3097.28,3327.89L3097.28,3407.89ZM3066.18,3343.59C3065.88,3342.99 3065.28,3342.99 3065.08,3342.99C3062.88,3342.99 3058.78,3356.29 3058.78,3368.89C3058.78,3385.39 3063.28,3397.49 3072.68,3397.49C3082.68,3397.49 3087.38,3383.39 3087.38,3366.79C3087.38,3350.49 3082.78,3338.59 3074.38,3338.59C3070.98,3338.59 3068.18,3340.59 3066.18,3343.59ZM3072.48,3393.19C3065.18,3393.19 3062.68,3381.99 3062.68,3368.79C3062.68,3351.39 3069.08,3342.69 3074.08,3342.69C3080.98,3342.69 3083.48,3354.99 3083.48,3366.19C3083.48,3379.89 3080.38,3393.19 3072.48,3393.19ZM3040.98,3364.69C3046.88,3362.89 3051.28,3357.89 3051.28,3351.09C3051.28,3343.29 3046.28,3338.69 3038.88,3338.69C3033.08,3338.69 3028.58,3341.29 3024.98,3345.89C3024.58,3346.29 3024.38,3346.79 3024.38,3347.49C3024.38,3348.29 3024.58,3349.19 3025.48,3350.29C3025.78,3350.79 3026.08,3350.89 3026.38,3350.89C3027.08,3350.89 3027.58,3349.89 3027.88,3349.59C3031.28,3344.99 3034.78,3342.89 3038.98,3342.89C3044.18,3342.89 3047.28,3346.19 3047.28,3351.59C3047.28,3358.29 3039.58,3363.29 3031.88,3363.89C3031.38,3363.99 3031.08,3364.49 3031.08,3365.09C3031.08,3366.39 3032.08,3368.29 3033.28,3368.29C3033.38,3368.29 3033.48,3368.19 3033.68,3368.19C3034.48,3367.99 3035.98,3367.69 3037.28,3367.59C3037.88,3367.49 3038.38,3367.49 3038.88,3367.49C3044.98,3367.49 3049.28,3372.09 3049.28,3378.69C3049.28,3386.09 3045.68,3393.19 3036.78,3393.19C3031.68,3393.19 3028.78,3390.39 3025.88,3386.19C3025.68,3385.89 3025.48,3385.69 3025.18,3385.69C3024.18,3385.69 3023.28,3387.79 3023.28,3389.39C3023.28,3390.09 3023.28,3390.59 3023.68,3390.99C3027.38,3395.19 3031.48,3397.49 3036.78,3397.49C3048.68,3397.49 3053.38,3388.79 3053.38,3378.59C3053.38,3369.99 3047.98,3364.69 3041.78,3364.69L3040.98,3364.69Z" style="fill-rule:nonzero;"/>
        </g>
    </g>
</svg>
