<?xml version="1.0" encoding="UTF-8" standalone="no"?>
<!DOCTYPE svg PUBLIC "-//W3C//DTD SVG 1.1//EN" "http://www.w3.org/Graphics/SVG/1.1/DTD/svg11.dtd">
<svg width="100%" height="100%" viewBox="0 0 89 89" version="1.1" xmlns="http://www.w3.org/2000/svg" xmlns:xlink="http://www.w3.org/1999/xlink" xml:space="preserve" xmlns:serif="http://www.serif.com/" style="fill-rule:evenodd;clip-rule:evenodd;stroke-linejoin:round;stroke-miterlimit:2;">
    <g transform="matrix(1,0,0,1,-2040.22,-288.665)">
        <g transform="matrix(1,0,0,1,-1072.97,-2735.12)">
            <path d="M3201.38,3111.99L3201.38,3023.79L3113.18,3023.79L3113.18,3111.99L3201.38,3111.99ZM3197.28,3107.89L3117.28,3107.89L3117.28,3027.89L3197.28,3027.89L3197.28,3107.89ZM3134.08,3044.19C3133.98,3043.89 3133.58,3043.59 3133.18,3043.59C3131.08,3043.59 3126.98,3055.99 3126.98,3069.49C3126.98,3085.99 3131.38,3098.09 3140.58,3098.09C3150.28,3098.09 3154.98,3083.99 3154.98,3067.39C3154.98,3051.09 3150.48,3039.19 3142.18,3039.19C3138.88,3039.19 3136.18,3041.19 3134.08,3044.19ZM3177.08,3064.09C3183.88,3058.59 3189.68,3051.69 3189.68,3049.59C3189.68,3048.69 3189.18,3048.09 3188.48,3048.09C3187.98,3048.09 3187.48,3048.29 3186.88,3048.99L3186.48,3049.39C3186.78,3048.89 3186.98,3048.29 3186.98,3047.89C3186.98,3047.59 3186.88,3047.29 3186.78,3047.09C3184.08,3042.79 3180.28,3039.19 3174.88,3039.19C3166.48,3039.19 3161.68,3045.49 3161.68,3052.59C3161.68,3057.89 3163.38,3061.29 3169.78,3064.89C3163.38,3069.89 3159.48,3075.39 3159.48,3082.69C3159.48,3091.29 3164.78,3097.89 3173.68,3097.89C3183.48,3097.89 3189.98,3091.49 3189.98,3081.59C3189.98,3073.79 3186.18,3068.69 3177.98,3064.49L3177.08,3064.09ZM3140.38,3093.79C3133.18,3093.79 3130.78,3082.59 3130.78,3069.39C3130.78,3051.99 3137.08,3043.29 3141.88,3043.29C3148.78,3043.29 3151.18,3055.59 3151.18,3066.79C3151.18,3080.49 3148.18,3093.79 3140.38,3093.79ZM3173.48,3066.89C3185.48,3071.69 3185.98,3079.19 3185.98,3081.99C3185.98,3088.89 3180.78,3093.59 3173.68,3093.59C3166.58,3093.59 3163.48,3087.99 3163.48,3082.49C3163.48,3076.69 3167.18,3071.99 3173.48,3066.89ZM3185.38,3050.59C3181.98,3054.59 3178.08,3058.69 3173.38,3062.09C3167.48,3058.99 3165.68,3056.79 3165.68,3052.59C3165.68,3047.89 3168.68,3043.29 3174.98,3043.29C3178.98,3043.29 3181.38,3045.79 3183.48,3049.69C3183.88,3050.49 3184.28,3050.79 3184.68,3050.79C3184.98,3050.79 3185.18,3050.69 3185.38,3050.59Z" style="fill-rule:nonzero;"/>
        </g>
    </g>
</svg>
