<?xml version="1.0" encoding="UTF-8" standalone="no"?>
<!DOCTYPE svg PUBLIC "-//W3C//DTD SVG 1.1//EN" "http://www.w3.org/Graphics/SVG/1.1/DTD/svg11.dtd">
<svg width="100%" height="100%" viewBox="0 0 89 89" version="1.1" xmlns="http://www.w3.org/2000/svg" xmlns:xlink="http://www.w3.org/1999/xlink" xml:space="preserve" xmlns:serif="http://www.serif.com/" style="fill-rule:evenodd;clip-rule:evenodd;stroke-linejoin:round;stroke-miterlimit:2;">
    <g transform="matrix(1,0,0,1,-2240.22,-138.665)">
        <g transform="matrix(1,0,0,1,-1072.97,-2735.12)">
            <path d="M3401.38,2961.99L3401.38,2873.79L3313.18,2873.79L3313.18,2961.99L3401.38,2961.99ZM3397.28,2957.89L3317.28,2957.89L3317.28,2877.89L3397.28,2877.89L3397.28,2957.89ZM3333.88,2894.19C3333.68,2893.89 3333.38,2893.59 3332.88,2893.59C3330.98,2893.59 3326.28,2904.99 3326.28,2919.49C3326.28,2935.99 3330.98,2948.09 3340.68,2948.09C3350.88,2948.09 3355.88,2933.99 3355.88,2917.39C3355.88,2901.09 3351.08,2889.19 3342.38,2889.19C3338.88,2889.19 3336.08,2891.19 3333.88,2894.19ZM3340.48,2943.79C3332.88,2943.79 3330.38,2932.59 3330.38,2919.39C3330.38,2901.99 3336.98,2893.29 3342.08,2893.29C3349.28,2893.29 3351.78,2905.59 3351.78,2916.79C3351.78,2930.49 3348.68,2943.79 3340.48,2943.79ZM3376.88,2915.09C3382.78,2913.29 3387.18,2908.29 3387.18,2901.49C3387.18,2893.69 3382.28,2889.09 3374.78,2889.09C3366.08,2889.09 3360.28,2896.09 3360.28,2897.89C3360.28,2899.59 3361.78,2901.29 3362.38,2901.29C3362.98,2901.29 3363.58,2900.29 3363.78,2899.99C3367.18,2895.39 3370.68,2893.29 3374.88,2893.29C3380.08,2893.29 3383.18,2896.59 3383.18,2901.99C3383.18,2908.69 3375.48,2913.69 3367.78,2914.29C3367.28,2914.39 3367.08,2914.89 3367.08,2915.49C3367.08,2916.79 3367.98,2918.69 3369.18,2918.69C3369.38,2918.69 3369.38,2918.59 3369.58,2918.59C3370.38,2918.39 3371.88,2918.09 3373.18,2917.99C3373.78,2917.89 3374.28,2917.89 3374.78,2917.89C3380.88,2917.89 3385.28,2922.49 3385.28,2929.09C3385.28,2936.49 3381.58,2943.59 3372.28,2943.59C3367.48,2943.59 3364.48,2940.79 3361.58,2936.59C3361.28,2936.29 3361.18,2936.09 3360.88,2936.09C3359.88,2936.09 3358.88,2938.19 3358.88,2939.79C3358.88,2940.49 3358.98,2940.99 3359.38,2941.39C3362.98,2945.59 3367.08,2947.89 3372.28,2947.89C3384.38,2947.89 3389.38,2939.19 3389.38,2928.99C3389.38,2920.39 3383.88,2915.09 3377.68,2915.09L3376.88,2915.09Z" style="fill-rule:nonzero;"/>
        </g>
    </g>
</svg>
