<?xml version="1.0" encoding="UTF-8" standalone="no"?>
<!DOCTYPE svg PUBLIC "-//W3C//DTD SVG 1.1//EN" "http://www.w3.org/Graphics/SVG/1.1/DTD/svg11.dtd">
<svg width="100%" height="100%" viewBox="0 0 89 89" version="1.1" xmlns="http://www.w3.org/2000/svg" xmlns:xlink="http://www.w3.org/1999/xlink" xml:space="preserve" xmlns:serif="http://www.serif.com/" style="fill-rule:evenodd;clip-rule:evenodd;stroke-linejoin:round;stroke-miterlimit:2;">
    <g transform="matrix(1,0,0,1,-1640.22,-1338.66)">
        <g transform="matrix(1,0,0,1,-1072.97,-2735.12)">
            <path d="M2801.38,4161.99L2801.38,4073.79L2713.18,4073.79L2713.18,4161.99L2801.38,4161.99ZM2797.28,4157.89L2717.28,4157.89L2717.28,4077.89L2797.28,4077.89L2797.28,4157.89ZM2743.38,4113.69C2749.48,4108.89 2755.98,4101.69 2755.98,4099.19C2755.98,4098.29 2755.48,4097.69 2754.78,4097.69C2754.28,4097.69 2753.78,4097.89 2753.18,4098.59L2752.88,4098.99C2753.08,4098.49 2753.28,4097.89 2753.28,4097.49C2753.28,4096.59 2749.18,4088.79 2741.18,4088.79C2732.78,4088.79 2727.88,4095.09 2727.88,4102.19C2727.88,4107.49 2729.68,4110.89 2736.08,4114.49C2729.58,4119.49 2725.78,4124.99 2725.78,4132.29C2725.78,4140.89 2731.08,4147.49 2739.98,4147.49C2749.88,4147.49 2756.38,4141.09 2756.38,4131.19C2756.38,4123.39 2752.48,4118.29 2744.28,4114.09L2743.38,4113.69ZM2739.78,4116.49C2751.78,4121.29 2752.38,4128.59 2752.38,4131.59C2752.38,4138.49 2747.08,4143.19 2739.98,4143.19C2732.88,4143.19 2729.78,4137.59 2729.78,4132.09C2729.78,4126.29 2733.48,4121.59 2739.78,4116.49ZM2789.58,4092.89C2789.58,4091.49 2787.78,4089.69 2786.68,4089.49L2786.48,4089.49C2785.58,4089.49 2784.58,4089.99 2783.48,4090.09L2764.08,4091.59L2763.08,4091.59C2761.98,4091.59 2761.18,4091.49 2760.38,4091.49C2760.08,4091.49 2760.08,4091.69 2760.08,4091.99C2760.08,4092.99 2761.38,4096.09 2763.58,4096.09C2764.18,4096.09 2764.88,4095.99 2765.68,4095.89L2784.28,4094.09C2781.38,4101.29 2775.08,4117.59 2767.18,4143.39C2767.08,4143.89 2766.68,4144.59 2766.68,4145.29C2766.68,4145.99 2767.08,4146.69 2768.48,4146.89C2768.88,4146.89 2769.28,4146.99 2769.48,4146.99C2770.68,4146.99 2771.28,4146.69 2771.48,4145.79C2774.58,4130.99 2783.08,4108.39 2787.88,4096.99C2788.28,4095.99 2789.38,4094.49 2789.58,4093.19L2789.58,4092.89ZM2751.78,4100.19C2748.28,4104.19 2744.38,4108.29 2739.78,4111.69C2733.78,4108.59 2731.88,4106.39 2731.88,4102.19C2731.88,4097.49 2734.98,4092.89 2741.28,4092.89C2745.28,4092.89 2747.68,4095.39 2749.78,4099.29C2750.18,4100.09 2750.58,4100.39 2751.08,4100.39C2751.28,4100.39 2751.58,4100.29 2751.78,4100.19Z" style="fill-rule:nonzero;"/>
        </g>
    </g>
</svg>
