<?xml version="1.0" encoding="UTF-8" standalone="no"?>
<!DOCTYPE svg PUBLIC "-//W3C//DTD SVG 1.1//EN" "http://www.w3.org/Graphics/SVG/1.1/DTD/svg11.dtd">
<svg width="100%" height="100%" viewBox="0 0 89 89" version="1.1" xmlns="http://www.w3.org/2000/svg" xmlns:xlink="http://www.w3.org/1999/xlink" xml:space="preserve" xmlns:serif="http://www.serif.com/" style="fill-rule:evenodd;clip-rule:evenodd;stroke-linejoin:round;stroke-miterlimit:2;">
    <g transform="matrix(1,0,0,1,-1640.22,-1188.66)">
        <g transform="matrix(1,0,0,1,-1072.97,-2735.12)">
            <path d="M2801.38,4011.99L2801.38,3923.79L2713.18,3923.79L2713.18,4011.99L2801.38,4011.99ZM2797.28,4007.89L2717.28,4007.89L2717.28,3927.89L2797.28,3927.89L2797.28,4007.89ZM2787.38,3944.19C2787.98,3944.19 2788.18,3943.69 2788.18,3943.09C2788.18,3941.79 2787.18,3939.69 2786.18,3939.69L2785.98,3939.69C2784.68,3939.99 2782.68,3940.09 2781.28,3940.19L2767.58,3941.09C2766.68,3940.59 2765.58,3940.19 2764.88,3940.19C2764.18,3940.19 2763.88,3940.39 2763.88,3941.09C2763.88,3942.09 2763.78,3943.49 2763.68,3944.59L2761.88,3964.29L2761.28,3967.09C2761.18,3967.39 2761.18,3967.69 2761.18,3967.99C2761.18,3969.99 2762.98,3971.49 2764.08,3971.49C2764.98,3971.49 2766.68,3969.19 2766.68,3969.19C2769.18,3966.59 2772.28,3964.79 2776.08,3964.79C2782.68,3964.79 2786.88,3969.79 2786.88,3978.09C2786.88,3985.89 2783.08,3993.09 2773.58,3993.09C2768.18,3993.09 2764.78,3989.29 2762.18,3984.99C2761.98,3984.59 2761.68,3984.39 2761.38,3984.39C2760.38,3984.39 2759.28,3986.59 2759.28,3988.39C2759.28,3991.09 2766.08,3997.49 2773.58,3997.49C2786.08,3997.49 2791.08,3988.29 2791.08,3977.99C2791.08,3966.99 2784.58,3960.59 2776.78,3960.59C2771.98,3960.59 2768.58,3962.29 2765.68,3965.09L2767.58,3945.49L2781.88,3944.49L2787.38,3944.19ZM2754.98,3942.89C2754.98,3941.49 2753.08,3939.69 2751.88,3939.49L2751.78,3939.49C2750.78,3939.49 2749.78,3939.99 2748.58,3940.09L2728.18,3941.59L2727.08,3941.59C2725.88,3941.59 2725.18,3941.49 2724.28,3941.49C2723.98,3941.49 2723.88,3941.69 2723.88,3941.99C2723.88,3942.69 2724.58,3944.19 2725.58,3945.29C2726.28,3945.89 2726.98,3946.09 2727.58,3946.09C2728.28,3946.09 2729.08,3945.99 2729.78,3945.89L2749.48,3944.09C2743.38,3958.49 2737.58,3973.99 2733.28,3987.49C2732.88,3988.89 2732.18,3991.09 2731.38,3993.39C2731.28,3993.89 2730.88,3994.59 2730.88,3995.29C2730.88,3995.99 2731.28,3996.69 2732.78,3996.89C2733.18,3996.89 2733.58,3996.99 2733.88,3996.99C2735.08,3996.99 2735.78,3996.69 2735.98,3995.79C2738.38,3984.29 2746.38,3962.29 2753.18,3946.99C2753.58,3945.99 2754.78,3944.49 2754.98,3943.19L2754.98,3942.89Z" style="fill-rule:nonzero;"/>
        </g>
    </g>
</svg>
