<?xml version="1.0" encoding="UTF-8" standalone="no"?>
<!DOCTYPE svg PUBLIC "-//W3C//DTD SVG 1.1//EN" "http://www.w3.org/Graphics/SVG/1.1/DTD/svg11.dtd">
<svg width="100%" height="100%" viewBox="0 0 89 89" version="1.1" xmlns="http://www.w3.org/2000/svg" xmlns:xlink="http://www.w3.org/1999/xlink" xml:space="preserve" xmlns:serif="http://www.serif.com/" style="fill-rule:evenodd;clip-rule:evenodd;stroke-linejoin:round;stroke-miterlimit:2;">
    <g transform="matrix(1,0,0,1,-2340.22,-1338.66)">
        <g transform="matrix(1,0,0,1,-1072.97,-2735.12)">
            <path d="M3501.38,4161.99L3501.38,4073.79L3413.18,4073.79L3413.18,4161.99L3501.38,4161.99ZM3497.28,4157.89L3417.28,4157.89L3417.28,4077.89L3497.28,4077.89L3497.28,4157.89ZM3445.88,4147.09C3447.58,4146.99 3448.68,4146.49 3448.78,4145.39C3449.18,4135.59 3455.18,4102.89 3456.38,4096.99L3457.28,4093.99L3457.28,4093.69C3457.28,4092.49 3455.88,4090.99 3454.38,4090.99C3452.88,4090.99 3453.28,4093.49 3452.78,4095.69C3451.78,4093.39 3448.58,4088.69 3441.78,4088.69C3432.28,4088.69 3424.98,4099.49 3424.98,4110.39C3424.98,4119.59 3429.38,4124.89 3435.88,4124.89C3440.98,4124.89 3446.28,4121.19 3449.28,4115.49C3445.48,4138.79 3445.18,4140.09 3444.58,4143.79C3444.38,4144.49 3444.18,4145.19 3444.18,4145.79C3444.18,4146.59 3444.58,4147.09 3445.78,4147.09L3445.88,4147.09ZM3484.68,4133.19C3486.58,4133.19 3489.18,4133.39 3490.08,4133.39C3490.58,4133.39 3490.78,4132.89 3490.78,4132.29C3490.78,4130.89 3489.78,4128.59 3488.68,4128.59C3487.78,4128.59 3485.88,4128.99 3484.68,4129.09L3483.48,4129.19L3483.48,4112.49C3483.48,4110.49 3483.58,4106.59 3483.58,4105.29C3483.58,4103.89 3481.78,4102.99 3480.48,4102.99C3479.78,4102.99 3479.28,4103.29 3479.28,4103.79C3479.28,4105.69 3479.38,4110.89 3479.38,4112.49L3479.38,4129.39L3463.18,4129.79C3468.08,4120.19 3474.28,4107.19 3478.18,4098.29C3478.68,4096.99 3479.78,4095.09 3480.58,4093.79C3480.68,4093.59 3480.68,4093.29 3480.68,4092.99C3480.68,4091.29 3478.78,4088.89 3477.58,4088.89C3477.28,4088.89 3477.08,4088.99 3476.98,4089.39C3472.88,4100.99 3465.18,4117.09 3460.88,4125.49C3460.28,4126.59 3459.38,4127.79 3458.58,4129.19C3458.18,4129.69 3458.18,4130.29 3458.18,4130.79C3458.18,4132.69 3459.78,4134.49 3461.08,4134.49C3461.28,4134.49 3461.38,4134.39 3461.58,4134.39C3462.58,4134.09 3463.58,4133.89 3464.08,4133.89L3479.38,4133.39L3479.38,4137.79C3479.38,4138.99 3479.28,4143.59 3479.28,4144.89C3479.28,4146.29 3481.18,4147.19 3482.58,4147.19C3483.28,4147.19 3483.78,4146.89 3483.78,4146.39C3483.78,4144.49 3483.48,4141.29 3483.48,4137.99L3483.48,4133.19L3484.68,4133.19ZM3452.18,4099.29C3450.38,4106.89 3450.38,4106.99 3449.38,4108.89C3445.78,4115.89 3441.98,4120.49 3435.78,4120.49C3431.28,4120.49 3428.98,4116.99 3428.98,4110.09C3428.98,4102.69 3433.78,4092.89 3442.18,4092.89C3447.08,4092.89 3449.18,4096.79 3450.08,4098.99C3450.38,4099.69 3450.68,4099.99 3451.08,4099.99C3451.48,4099.99 3451.78,4099.69 3452.18,4099.29Z" style="fill-rule:nonzero;"/>
        </g>
    </g>
</svg>
