<?xml version="1.0" encoding="UTF-8" standalone="no"?>
<!DOCTYPE svg PUBLIC "-//W3C//DTD SVG 1.1//EN" "http://www.w3.org/Graphics/SVG/1.1/DTD/svg11.dtd">
<svg width="100%" height="100%" viewBox="0 0 89 89" version="1.1" xmlns="http://www.w3.org/2000/svg" xmlns:xlink="http://www.w3.org/1999/xlink" xml:space="preserve" xmlns:serif="http://www.serif.com/" style="fill-rule:evenodd;clip-rule:evenodd;stroke-linejoin:round;stroke-miterlimit:2;">
    <g transform="matrix(1,0,0,1,-1940.22,-1038.66)">
        <g transform="matrix(1,0,0,1,-1072.97,-2735.12)">
            <path d="M3101.38,3861.99L3101.38,3773.79L3013.18,3773.79L3013.18,3861.99L3101.38,3861.99ZM3097.28,3857.89L3017.28,3857.89L3017.28,3777.89L3097.28,3777.89L3097.28,3857.89ZM3074.98,3791.29C3072.18,3796.09 3069.18,3802.09 3065.98,3809.29C3062.68,3816.79 3061.08,3823.59 3061.08,3830.39C3061.08,3839.79 3067.58,3847.49 3076.48,3847.49C3085.98,3847.49 3091.78,3839.09 3091.78,3828.19C3091.78,3818.39 3086.08,3811.19 3077.68,3811.19C3072.88,3811.19 3069.08,3813.59 3066.68,3817.49C3071.38,3805.99 3075.68,3797.99 3079.98,3792.09C3080.28,3791.69 3080.78,3790.99 3080.78,3790.39C3080.78,3789.89 3080.58,3789.39 3079.48,3788.99C3079.08,3788.79 3078.38,3788.59 3077.78,3788.59C3077.08,3788.59 3076.38,3788.89 3075.98,3789.59C3075.78,3789.99 3075.18,3791.09 3074.98,3791.29ZM3039.58,3791.29C3036.78,3796.09 3033.78,3802.09 3030.58,3809.29C3027.28,3816.79 3025.68,3823.59 3025.68,3830.39C3025.68,3839.79 3032.18,3847.49 3040.98,3847.49C3050.58,3847.49 3056.38,3839.09 3056.38,3828.19C3056.38,3818.39 3050.68,3811.19 3042.18,3811.19C3037.48,3811.19 3033.68,3813.59 3031.28,3817.49C3035.98,3805.99 3040.28,3797.99 3044.58,3792.09C3044.88,3791.69 3045.38,3790.99 3045.38,3790.39C3045.38,3789.69 3044.08,3788.59 3042.38,3788.59C3041.58,3788.59 3040.98,3788.89 3040.58,3789.59C3040.38,3789.99 3039.78,3791.09 3039.58,3791.29ZM3040.98,3843.39C3034.38,3843.39 3029.68,3837.69 3029.68,3830.29C3029.68,3822.29 3034.48,3815.29 3042.18,3815.29C3048.48,3815.29 3052.28,3821.49 3052.28,3828.39C3052.28,3837.19 3047.48,3843.39 3040.98,3843.39ZM3076.48,3843.39C3069.78,3843.39 3065.08,3837.69 3065.08,3830.29C3065.08,3822.29 3069.98,3815.29 3077.58,3815.29C3083.88,3815.29 3087.68,3821.49 3087.68,3828.39C3087.68,3837.19 3082.98,3843.39 3076.48,3843.39Z" style="fill-rule:nonzero;"/>
        </g>
    </g>
</svg>
