<?xml version="1.0" encoding="UTF-8" standalone="no"?>
<!DOCTYPE svg PUBLIC "-//W3C//DTD SVG 1.1//EN" "http://www.w3.org/Graphics/SVG/1.1/DTD/svg11.dtd">
<svg width="100%" height="100%" viewBox="0 0 89 89" version="1.1" xmlns="http://www.w3.org/2000/svg" xmlns:xlink="http://www.w3.org/1999/xlink" xml:space="preserve" xmlns:serif="http://www.serif.com/" style="fill-rule:evenodd;clip-rule:evenodd;stroke-linejoin:round;stroke-miterlimit:2;">
    <g transform="matrix(1,0,0,1,-2040.22,-1488.66)">
        <g transform="matrix(1,0,0,1,-1072.97,-2735.12)">
            <path d="M3201.38,4311.99L3201.38,4223.79L3113.18,4223.79L3113.18,4311.99L3201.38,4311.99ZM3197.28,4307.89L3117.28,4307.89L3117.28,4227.89L3197.28,4227.89L3197.28,4307.89ZM3173.68,4275.89C3173.68,4275.39 3173.38,4274.99 3172.98,4274.99C3172.48,4274.99 3171.88,4275.29 3171.18,4276.09C3167.18,4280.19 3161.88,4284.99 3153.88,4284.99C3148.38,4284.99 3142.28,4280.69 3142.28,4270.99C3142.28,4260.29 3151.28,4250.99 3159.38,4250.99C3163.98,4250.99 3166.38,4253.99 3167.68,4256.69C3167.88,4256.99 3168.18,4257.19 3168.48,4257.19C3169.58,4257.19 3171.28,4255.49 3171.28,4253.89C3171.28,4253.19 3168.78,4246.79 3159.18,4246.79C3148.78,4246.79 3137.58,4257.89 3137.58,4271.39C3137.58,4282.99 3144.98,4289.29 3153.88,4289.29C3167.38,4289.29 3173.68,4277.19 3173.68,4275.89Z" style="fill-rule:nonzero;"/>
        </g>
    </g>
</svg>
