<?xml version="1.0" encoding="UTF-8" standalone="no"?>
<!DOCTYPE svg PUBLIC "-//W3C//DTD SVG 1.1//EN" "http://www.w3.org/Graphics/SVG/1.1/DTD/svg11.dtd">
<svg width="100%" height="100%" viewBox="0 0 89 89" version="1.1" xmlns="http://www.w3.org/2000/svg" xmlns:xlink="http://www.w3.org/1999/xlink" xml:space="preserve" xmlns:serif="http://www.serif.com/" style="fill-rule:evenodd;clip-rule:evenodd;stroke-linejoin:round;stroke-miterlimit:2;">
    <g transform="matrix(1,0,0,1,-1940.22,-138.665)">
        <g transform="matrix(1,0,0,1,-1072.97,-2735.12)">
            <path d="M3101.38,2961.99L3101.38,2873.79L3013.18,2873.79L3013.18,2961.99L3101.38,2961.99ZM3097.28,2957.89L3017.28,2957.89L3017.28,2877.89L3097.28,2877.89L3097.28,2957.89ZM3039.28,2946.79C3046.88,2945.89 3047.98,2945.89 3055.68,2945.89C3060.58,2945.89 3065.78,2945.89 3069.48,2946.09C3072.58,2946.29 3075.78,2946.59 3076.88,2946.59C3077.78,2946.59 3078.08,2946.09 3078.08,2945.39C3078.08,2943.89 3076.68,2941.69 3075.18,2941.69C3073.98,2941.69 3071.08,2941.79 3069.48,2941.79C3065.68,2941.79 3060.88,2941.69 3056.28,2941.69C3052.88,2941.69 3045.28,2941.79 3041.78,2942.09C3046.38,2935.39 3053.18,2928.59 3062.28,2922.09C3071.28,2915.49 3076.78,2909.69 3076.78,2902.39C3076.78,2894.29 3070.78,2889.09 3059.58,2889.09C3044.48,2889.09 3039.08,2899.09 3039.08,2900.59C3039.08,2902.59 3041.38,2903.79 3041.88,2903.79C3042.88,2903.79 3043.58,2902.79 3043.98,2901.99C3046.78,2896.19 3051.48,2893.39 3059.38,2893.39C3067.78,2893.39 3071.68,2896.89 3071.68,2902.39C3071.68,2908.19 3066.58,2912.79 3058.68,2918.69C3048.98,2925.89 3041.38,2934.29 3037.88,2939.59C3037.38,2940.39 3036.58,2940.99 3035.88,2942.09C3035.68,2942.29 3035.58,2942.69 3035.58,2943.09C3035.58,2944.59 3036.98,2946.79 3038.88,2946.79L3039.28,2946.79Z" style="fill-rule:nonzero;"/>
        </g>
    </g>
</svg>
