<?xml version="1.0" encoding="UTF-8" standalone="no"?>
<!DOCTYPE svg PUBLIC "-//W3C//DTD SVG 1.1//EN" "http://www.w3.org/Graphics/SVG/1.1/DTD/svg11.dtd">
<svg width="100%" height="100%" viewBox="0 0 89 89" version="1.1" xmlns="http://www.w3.org/2000/svg" xmlns:xlink="http://www.w3.org/1999/xlink" xml:space="preserve" xmlns:serif="http://www.serif.com/" style="fill-rule:evenodd;clip-rule:evenodd;stroke-linejoin:round;stroke-miterlimit:2;">
    <g transform="matrix(1,0,0,1,-2240.22,-438.665)">
        <g transform="matrix(1,0,0,1,-1072.97,-2735.12)">
            <path d="M3401.38,3261.99L3401.38,3173.79L3313.18,3173.79L3313.18,3261.99L3401.38,3261.99ZM3397.28,3257.89L3317.28,3257.89L3317.28,3177.89L3397.28,3177.89L3397.28,3257.89ZM3330.28,3246.49C3333.28,3245.69 3336.78,3245.49 3341.68,3245.49C3344.68,3245.49 3352.58,3245.59 3357.98,3246.09C3358.58,3246.09 3358.88,3245.69 3358.88,3244.99C3358.88,3243.59 3357.68,3241.39 3356.58,3241.39C3355.58,3241.39 3353.18,3241.49 3351.88,3241.49C3348.88,3241.49 3345.98,3241.39 3342.38,3241.39C3339.58,3241.39 3335.38,3241.59 3332.58,3241.89C3335.18,3236.49 3340.08,3228.39 3346.58,3221.99C3353.38,3215.19 3358.28,3209.49 3358.28,3202.09C3358.28,3194.29 3353.18,3188.69 3345.08,3188.69C3337.58,3188.69 3332.38,3192.79 3329.48,3198.69C3329.18,3199.09 3329.08,3199.59 3329.08,3200.09C3329.08,3201.39 3330.78,3203.39 3331.78,3203.39C3332.48,3203.39 3333.08,3202.59 3333.48,3201.49C3335.08,3196.69 3339.08,3192.89 3344.88,3192.89C3350.48,3192.89 3353.68,3197.09 3353.68,3202.09C3353.68,3207.39 3349.88,3212.39 3343.78,3218.59C3337.68,3224.89 3332.08,3233.59 3329.18,3239.39C3328.78,3240.19 3328.28,3240.89 3327.68,3241.79C3327.48,3242.09 3327.38,3242.49 3327.38,3242.99C3327.38,3244.59 3328.58,3246.49 3329.98,3246.49L3330.28,3246.49ZM3377.08,3237.89C3377.08,3239.59 3376.98,3243.69 3376.98,3244.99C3376.98,3246.29 3378.98,3247.19 3380.58,3247.19C3381.18,3247.19 3381.78,3246.99 3381.78,3246.39C3381.68,3244.29 3381.58,3239.59 3381.58,3237.39L3381.58,3197.09C3381.58,3194.79 3382.08,3193.39 3382.08,3192.09C3382.08,3190.59 3380.38,3189.09 3379.18,3189.09C3378.08,3189.09 3376.48,3191.39 3375.88,3191.89C3373.58,3193.79 3369.88,3195.89 3366.08,3197.49C3365.58,3197.69 3365.38,3197.99 3365.38,3198.29C3365.38,3199.19 3367.08,3200.09 3368.38,3200.09C3368.68,3200.09 3368.98,3200.09 3369.18,3199.99C3371.78,3199.19 3374.98,3197.89 3377.08,3196.49L3377.08,3237.89Z" style="fill-rule:nonzero;"/>
        </g>
    </g>
</svg>
