<?xml version="1.0" encoding="UTF-8" standalone="no"?>
<!DOCTYPE svg PUBLIC "-//W3C//DTD SVG 1.1//EN" "http://www.w3.org/Graphics/SVG/1.1/DTD/svg11.dtd">
<svg width="100%" height="100%" viewBox="0 0 89 89" version="1.1" xmlns="http://www.w3.org/2000/svg" xmlns:xlink="http://www.w3.org/1999/xlink" xml:space="preserve" xmlns:serif="http://www.serif.com/" style="fill-rule:evenodd;clip-rule:evenodd;stroke-linejoin:round;stroke-miterlimit:2;">
    <g transform="matrix(1,0,0,1,-1940.22,-1488.66)">
        <g transform="matrix(1,0,0,1,-1072.97,-2735.12)">
            <path d="M3101.38,4311.99L3101.38,4223.79L3013.18,4223.79L3013.18,4311.99L3101.38,4311.99ZM3097.28,4307.89L3017.28,4307.89L3017.28,4227.89L3097.28,4227.89L3097.28,4307.89ZM3042.08,4287.99C3042.08,4290.99 3041.98,4294.39 3041.98,4295.69C3041.98,4296.89 3042.48,4297.29 3043.08,4297.29C3044.28,4297.29 3045.98,4295.79 3046.18,4294.79C3046.38,4293.59 3046.48,4292.59 3046.48,4291.79C3048.38,4295.89 3052.68,4298.29 3057.28,4298.29C3068.68,4298.29 3077.88,4287.59 3077.88,4273.39C3077.88,4261.89 3071.98,4255.89 3063.58,4255.89C3057.28,4255.89 3051.18,4258.79 3046.68,4266.69L3046.68,4246.69C3046.68,4243.69 3046.88,4240.49 3046.88,4239.09C3046.88,4237.79 3044.68,4236.79 3043.18,4236.79C3042.48,4236.79 3041.88,4237.09 3041.88,4237.59C3041.88,4239.49 3042.08,4243.09 3042.08,4246.59L3042.08,4287.99ZM3046.58,4288.69C3046.58,4285.09 3046.58,4278.49 3047.18,4275.49C3049.08,4266.39 3056.18,4260.09 3063.58,4260.09C3068.88,4260.09 3072.88,4264.49 3072.88,4273.49C3072.88,4286.89 3064.48,4294.19 3057.48,4294.19C3054.48,4294.19 3051.58,4292.79 3049.28,4289.59C3048.68,4288.69 3047.98,4288.29 3047.38,4288.29C3047.08,4288.29 3046.78,4288.39 3046.58,4288.69Z" style="fill-rule:nonzero;"/>
        </g>
    </g>
</svg>
