<?xml version="1.0" encoding="UTF-8" standalone="no"?>
<!DOCTYPE svg PUBLIC "-//W3C//DTD SVG 1.1//EN" "http://www.w3.org/Graphics/SVG/1.1/DTD/svg11.dtd">
<svg width="100%" height="100%" viewBox="0 0 89 89" version="1.1" xmlns="http://www.w3.org/2000/svg" xmlns:xlink="http://www.w3.org/1999/xlink" xml:space="preserve" xmlns:serif="http://www.serif.com/" style="fill-rule:evenodd;clip-rule:evenodd;stroke-linejoin:round;stroke-miterlimit:2;">
    <g transform="matrix(1,0,0,1,-1540.22,-1638.66)">
        <g transform="matrix(1,0,0,1,-1072.97,-2735.12)">
            <path d="M2701.38,4461.99L2701.38,4373.79L2613.18,4373.79L2613.18,4461.99L2701.38,4461.99ZM2697.28,4457.89L2617.28,4457.89L2617.28,4377.89L2697.28,4377.89L2697.28,4457.89ZM2658.88,4443.89C2658.88,4446.49 2658.08,4450.39 2654.88,4450.39C2653.48,4450.39 2651.38,4450.19 2649.68,4448.19C2649.28,4447.69 2648.88,4447.49 2648.38,4447.49C2647.28,4447.49 2646.18,4449.29 2646.18,4450.69C2646.18,4451.29 2646.38,4451.79 2646.78,4452.09C2649.68,4454.69 2652.58,4454.79 2654.88,4454.79C2661.98,4454.79 2663.48,4448.49 2663.48,4443.79L2663.48,4410.29C2663.48,4408.19 2663.68,4403.69 2663.68,4402.39C2663.68,4400.99 2661.48,4400.09 2659.98,4400.09C2659.28,4400.09 2658.68,4400.29 2658.68,4400.89C2658.68,4402.79 2658.88,4408.69 2658.88,4410.29L2658.88,4443.89ZM2661.58,4390.09C2663.58,4390.09 2664.78,4388.79 2664.78,4386.69C2664.78,4384.49 2662.68,4382.09 2660.78,4382.09C2658.68,4382.09 2657.58,4383.39 2657.58,4385.59C2657.58,4387.59 2659.48,4390.09 2661.58,4390.09Z" style="fill-rule:nonzero;"/>
        </g>
    </g>
</svg>
