<?xml version="1.0" encoding="UTF-8" standalone="no"?>
<!DOCTYPE svg PUBLIC "-//W3C//DTD SVG 1.1//EN" "http://www.w3.org/Graphics/SVG/1.1/DTD/svg11.dtd">
<svg width="100%" height="100%" viewBox="0 0 89 89" version="1.1" xmlns="http://www.w3.org/2000/svg" xmlns:xlink="http://www.w3.org/1999/xlink" xml:space="preserve" xmlns:serif="http://www.serif.com/" style="fill-rule:evenodd;clip-rule:evenodd;stroke-linejoin:round;stroke-miterlimit:2;">
    <g transform="matrix(1,0,0,1,-1540.22,-138.665)">
        <g transform="matrix(1,0,0,1,-1072.97,-2735.12)">
            <path d="M2701.38,2961.99L2701.38,2873.79L2613.18,2873.79L2613.18,2961.99L2701.38,2961.99ZM2697.28,2957.89L2617.28,2957.89L2617.28,2877.89L2697.28,2877.89L2697.28,2957.89ZM2647.78,2893.79C2647.58,2893.39 2646.98,2892.89 2646.28,2892.89C2643.98,2892.89 2636.98,2905.19 2636.98,2918.89C2636.98,2935.19 2642.28,2947.49 2657.58,2947.49C2671.58,2947.49 2678.28,2934.79 2678.28,2917.49C2678.28,2900.09 2671.88,2888.59 2658.78,2888.59C2653.68,2888.59 2650.38,2890.79 2647.78,2893.79ZM2657.38,2943.19C2645.38,2943.19 2641.88,2932.89 2641.88,2918.69C2641.88,2901.19 2651.68,2892.89 2658.48,2892.89C2669.28,2892.89 2673.38,2903.89 2673.38,2916.99C2673.38,2932.69 2668.28,2943.19 2657.38,2943.19Z" style="fill-rule:nonzero;"/>
        </g>
    </g>
</svg>
