<?xml version="1.0" encoding="UTF-8" standalone="no"?>
<!DOCTYPE svg PUBLIC "-//W3C//DTD SVG 1.1//EN" "http://www.w3.org/Graphics/SVG/1.1/DTD/svg11.dtd">
<svg width="100%" height="100%" viewBox="0 0 89 89" version="1.1" xmlns="http://www.w3.org/2000/svg" xmlns:xlink="http://www.w3.org/1999/xlink" xml:space="preserve" xmlns:serif="http://www.serif.com/" style="fill-rule:evenodd;clip-rule:evenodd;stroke-linejoin:round;stroke-miterlimit:2;">
    <g transform="matrix(1,0,0,1,-1540.22,-1788.66)">
        <g transform="matrix(1,0,0,1,-1072.97,-2735.12)">
            <path d="M2701.38,4611.99L2701.38,4523.79L2613.18,4523.79L2613.18,4611.99L2701.38,4611.99ZM2697.28,4607.89L2617.28,4607.89L2617.28,4527.89L2697.28,4527.89L2697.28,4607.89ZM2656.58,4583.59L2646.38,4554.99C2645.78,4553.19 2644.98,4550.99 2644.68,4549.69C2644.48,4548.89 2643.18,4548.59 2641.98,4548.59C2640.48,4548.59 2639.08,4548.99 2639.08,4549.89C2639.08,4549.99 2639.08,4550.09 2639.18,4550.29C2640.18,4552.39 2641.08,4554.29 2641.78,4556.19L2652.68,4585.29C2653.58,4587.49 2653.58,4588.19 2654.48,4589.19C2655.18,4589.89 2656.38,4590.59 2657.48,4590.59C2658.28,4590.59 2659.08,4590.19 2659.48,4588.79C2659.98,4587.09 2660.68,4585.29 2661.38,4583.69L2672.88,4556.39C2673.48,4554.99 2674.78,4552.39 2675.58,4550.89C2675.68,4550.69 2675.78,4550.49 2675.78,4550.39C2675.78,4549.19 2673.68,4548.19 2672.08,4548.19C2671.28,4548.19 2670.68,4548.39 2670.48,4548.99C2669.88,4551.09 2669.18,4553.09 2668.38,4554.99L2656.58,4583.59Z" style="fill-rule:nonzero;"/>
        </g>
    </g>
</svg>
