<?xml version="1.0" encoding="UTF-8" standalone="no"?>
<!DOCTYPE svg PUBLIC "-//W3C//DTD SVG 1.1//EN" "http://www.w3.org/Graphics/SVG/1.1/DTD/svg11.dtd">
<svg width="100%" height="100%" viewBox="0 0 89 89" version="1.1" xmlns="http://www.w3.org/2000/svg" xmlns:xlink="http://www.w3.org/1999/xlink" xml:space="preserve" xmlns:serif="http://www.serif.com/" style="fill-rule:evenodd;clip-rule:evenodd;stroke-linejoin:round;stroke-miterlimit:2;">
    <g transform="matrix(1,0,0,1,-1740.22,-1188.66)">
        <g transform="matrix(1,0,0,1,-1072.97,-2735.12)">
            <path d="M2901.38,4011.99L2901.38,3923.79L2813.18,3923.79L2813.18,4011.99L2901.38,4011.99ZM2897.28,4007.89L2817.28,4007.89L2817.28,3927.89L2897.28,3927.89L2897.28,4007.89ZM2864.18,3967.49C2868.88,3956.89 2872.38,3949.79 2878.28,3942.09C2878.58,3941.69 2879.08,3940.99 2879.08,3940.39C2879.08,3938.89 2876.58,3938.59 2875.98,3938.59C2875.08,3938.59 2874.38,3938.89 2874.08,3939.59C2873.78,3939.99 2873.18,3941.09 2872.98,3941.29C2869.98,3946.09 2866.88,3952.09 2863.48,3959.29C2859.98,3966.79 2858.28,3973.59 2858.28,3980.39C2858.28,3989.79 2865.18,3997.49 2874.48,3997.49C2884.58,3997.49 2890.78,3989.09 2890.78,3978.19C2890.78,3968.39 2884.68,3961.19 2875.78,3961.19C2870.78,3961.19 2866.78,3963.59 2864.18,3967.49ZM2874.48,3993.39C2867.48,3993.39 2862.48,3987.69 2862.48,3980.29C2862.48,3972.29 2867.68,3965.29 2875.68,3965.29C2882.38,3965.29 2886.38,3971.49 2886.38,3978.39C2886.38,3987.19 2881.38,3993.39 2874.48,3993.39ZM2856.38,3942.89C2856.38,3941.49 2854.48,3939.69 2853.38,3939.49L2853.18,3939.49C2852.28,3939.49 2851.18,3939.99 2850.08,3940.09L2829.68,3941.59L2828.58,3941.59C2827.38,3941.59 2826.58,3941.49 2825.78,3941.49C2825.48,3941.49 2825.38,3941.69 2825.38,3941.99C2825.38,3943.09 2826.98,3946.09 2829.08,3946.09C2829.78,3946.09 2830.48,3945.99 2831.28,3945.89L2850.88,3944.09C2845.88,3956.19 2837.48,3978.29 2832.88,3993.39C2832.78,3993.89 2832.38,3994.59 2832.38,3995.29C2832.38,3995.99 2832.78,3996.69 2834.28,3996.89C2834.68,3996.89 2835.08,3996.99 2835.38,3996.99C2836.58,3996.99 2837.28,3996.69 2837.38,3995.79C2839.28,3986.49 2847.08,3964.19 2854.58,3946.99C2855.08,3945.99 2856.28,3944.49 2856.38,3943.19L2856.38,3942.89Z" style="fill-rule:nonzero;"/>
        </g>
    </g>
</svg>
