<?xml version="1.0" encoding="UTF-8" standalone="no"?>
<!DOCTYPE svg PUBLIC "-//W3C//DTD SVG 1.1//EN" "http://www.w3.org/Graphics/SVG/1.1/DTD/svg11.dtd">
<svg width="100%" height="100%" viewBox="0 0 89 89" version="1.1" xmlns="http://www.w3.org/2000/svg" xmlns:xlink="http://www.w3.org/1999/xlink" xml:space="preserve" xmlns:serif="http://www.serif.com/" style="fill-rule:evenodd;clip-rule:evenodd;stroke-linejoin:round;stroke-miterlimit:2;">
    <g transform="matrix(1,0,0,1,-2440.22,-738.665)">
        <g transform="matrix(1,0,0,1,-1072.97,-2735.12)">
            <path d="M3601.38,3561.99L3601.38,3473.79L3513.18,3473.79L3513.18,3561.99L3601.38,3561.99ZM3597.28,3557.89L3517.28,3557.89L3517.28,3477.89L3597.28,3477.89L3597.28,3557.89ZM3552.08,3533.19C3553.98,3533.19 3556.68,3533.39 3557.68,3533.39C3558.28,3533.39 3558.48,3532.89 3558.48,3532.29C3558.48,3530.89 3557.38,3528.59 3556.18,3528.59C3555.28,3528.59 3553.18,3528.99 3551.98,3529.09L3550.68,3529.19L3550.68,3512.49C3550.68,3510.49 3550.88,3506.59 3550.88,3505.29C3550.88,3503.89 3548.88,3502.99 3547.58,3502.99C3546.78,3502.99 3546.28,3503.29 3546.28,3503.79C3546.28,3505.69 3546.48,3510.89 3546.48,3512.49L3546.48,3529.39L3529.38,3529.79C3534.48,3520.19 3541.08,3507.19 3545.08,3498.29C3545.68,3496.99 3546.78,3495.09 3547.68,3493.79C3547.78,3493.59 3547.78,3493.29 3547.78,3492.99C3547.78,3491.29 3545.78,3488.89 3544.58,3488.89C3544.18,3488.89 3543.98,3488.99 3543.88,3489.39C3541.58,3495.79 3535.48,3509.59 3526.98,3525.49C3526.38,3526.59 3525.28,3527.79 3524.48,3529.19C3524.18,3529.69 3524.08,3530.29 3524.08,3530.79C3524.08,3532.69 3525.78,3534.49 3527.18,3534.49C3527.38,3534.49 3527.48,3534.39 3527.68,3534.39C3528.78,3534.09 3529.78,3533.89 3530.38,3533.89L3546.48,3533.39L3546.48,3537.79C3546.48,3538.99 3546.28,3543.59 3546.28,3544.89C3546.28,3546.29 3548.38,3547.19 3549.78,3547.19C3550.48,3547.19 3551.08,3546.89 3551.08,3546.39C3551.08,3544.49 3550.68,3541.29 3550.68,3537.99L3550.68,3533.19L3552.08,3533.19ZM3590.38,3492.89C3590.38,3491.49 3588.58,3489.69 3587.48,3489.49L3587.38,3489.49C3586.48,3489.49 3585.48,3489.99 3584.38,3490.09L3564.98,3491.59L3564.08,3491.59C3562.88,3491.59 3562.18,3491.49 3561.38,3491.49C3561.08,3491.49 3560.98,3491.69 3560.98,3491.99C3560.98,3492.49 3561.98,3496.09 3564.48,3496.09C3565.08,3496.09 3565.88,3495.99 3566.58,3495.89L3585.18,3494.09C3581.68,3502.79 3576.08,3516.99 3568.08,3543.39C3567.98,3543.89 3567.68,3544.59 3567.68,3545.29C3567.68,3545.99 3567.98,3546.69 3569.48,3546.89C3569.78,3546.89 3570.18,3546.99 3570.38,3546.99C3571.58,3546.99 3572.28,3546.69 3572.38,3545.79C3575.08,3532.69 3583.08,3510.49 3588.68,3496.99C3589.08,3495.99 3590.18,3494.49 3590.38,3493.19L3590.38,3492.89Z" style="fill-rule:nonzero;"/>
        </g>
    </g>
</svg>
