<?xml version="1.0" encoding="UTF-8" standalone="no"?>
<!DOCTYPE svg PUBLIC "-//W3C//DTD SVG 1.1//EN" "http://www.w3.org/Graphics/SVG/1.1/DTD/svg11.dtd">
<svg width="100%" height="100%" viewBox="0 0 89 89" version="1.1" xmlns="http://www.w3.org/2000/svg" xmlns:xlink="http://www.w3.org/1999/xlink" xml:space="preserve" xmlns:serif="http://www.serif.com/" style="fill-rule:evenodd;clip-rule:evenodd;stroke-linejoin:round;stroke-miterlimit:2;">
    <g transform="matrix(1,0,0,1,-2040.22,-1188.66)">
        <g transform="matrix(1,0,0,1,-1072.97,-2735.12)">
            <path d="M3201.38,4011.99L3201.38,3923.79L3113.18,3923.79L3113.18,4011.99L3201.38,4011.99ZM3197.28,4007.89L3117.28,4007.89L3117.28,3927.89L3197.28,3927.89L3197.28,4007.89ZM3178.68,3997.09C3180.48,3996.99 3181.58,3996.49 3181.68,3995.39C3181.78,3993.19 3185.68,3962.29 3190.68,3943.99L3190.68,3943.69C3190.68,3942.49 3189.18,3940.99 3187.58,3940.99C3186.08,3940.99 3186.38,3943.49 3185.88,3945.69C3184.88,3943.39 3181.48,3938.69 3174.28,3938.69C3164.18,3938.69 3156.58,3949.49 3156.58,3960.39C3156.58,3969.59 3161.28,3974.89 3168.08,3974.89C3173.38,3974.89 3178.98,3971.19 3182.18,3965.49C3180.88,3972.79 3179.38,3981.29 3178.38,3987.59C3178.18,3988.99 3177.68,3991.49 3177.18,3993.79C3177.08,3994.49 3176.88,3995.19 3176.88,3995.79C3176.88,3996.59 3177.18,3997.09 3178.48,3997.09L3178.68,3997.09ZM3184.48,3953.19C3183.88,3954.99 3183.18,3957.39 3182.38,3958.89C3178.58,3965.89 3174.48,3970.49 3167.98,3970.49C3163.18,3970.49 3160.78,3966.99 3160.78,3960.09C3160.78,3952.69 3165.88,3942.89 3174.68,3942.89C3179.88,3942.89 3182.08,3946.79 3183.08,3948.99C3183.38,3949.69 3183.68,3949.99 3184.18,3949.99C3184.48,3949.99 3184.88,3949.69 3185.28,3949.29C3184.98,3950.59 3184.68,3951.89 3184.48,3953.19ZM3153.98,3942.89C3153.98,3941.49 3152.08,3939.69 3150.88,3939.49L3150.78,3939.49C3149.78,3939.49 3148.78,3939.99 3147.58,3940.09L3127.18,3941.59L3126.18,3941.59C3124.88,3941.59 3124.18,3941.49 3123.28,3941.49C3122.98,3941.49 3122.88,3941.69 3122.88,3941.99C3122.88,3942.69 3123.58,3944.19 3124.58,3945.29C3125.28,3945.89 3125.98,3946.09 3126.58,3946.09C3127.28,3946.09 3128.08,3945.99 3128.78,3945.89L3148.48,3944.09C3142.38,3958.49 3136.58,3973.99 3132.28,3987.49C3131.88,3988.89 3131.18,3991.09 3130.38,3993.39C3130.28,3993.89 3129.98,3994.59 3129.98,3995.29C3129.98,3995.99 3130.28,3996.69 3131.88,3996.89C3132.18,3996.89 3132.58,3996.99 3132.88,3996.99C3134.08,3996.99 3134.78,3996.69 3134.98,3995.79C3137.98,3981.29 3149.68,3952.69 3152.18,3946.99C3152.58,3945.99 3153.78,3944.49 3153.98,3943.19L3153.98,3942.89Z" style="fill-rule:nonzero;"/>
        </g>
    </g>
</svg>
