<?xml version="1.0" encoding="UTF-8" standalone="no"?>
<!DOCTYPE svg PUBLIC "-//W3C//DTD SVG 1.1//EN" "http://www.w3.org/Graphics/SVG/1.1/DTD/svg11.dtd">
<svg width="100%" height="100%" viewBox="0 0 89 89" version="1.1" xmlns="http://www.w3.org/2000/svg" xmlns:xlink="http://www.w3.org/1999/xlink" xml:space="preserve" xmlns:serif="http://www.serif.com/" style="fill-rule:evenodd;clip-rule:evenodd;stroke-linejoin:round;stroke-miterlimit:2;">
    <g transform="matrix(1,0,0,1,-2240.22,-1038.66)">
        <g transform="matrix(1,0,0,1,-1072.97,-2735.12)">
            <path d="M3401.38,3861.99L3401.38,3773.79L3313.18,3773.79L3313.18,3861.99L3401.38,3861.99ZM3397.28,3857.89L3317.28,3857.89L3317.28,3777.89L3397.28,3777.89L3397.28,3857.89ZM3339.48,3789.59C3338.58,3790.79 3333.48,3800.29 3329.48,3809.29C3326.18,3816.79 3324.48,3823.59 3324.48,3830.39C3324.48,3839.79 3331.08,3847.49 3339.88,3847.49C3349.48,3847.49 3355.28,3839.09 3355.28,3828.19C3355.28,3818.39 3349.58,3811.19 3341.08,3811.19C3336.38,3811.19 3332.58,3813.59 3330.18,3817.49C3333.48,3809.29 3336.88,3801.09 3343.48,3792.09C3343.78,3791.69 3344.28,3790.99 3344.28,3790.39C3344.28,3789.69 3342.98,3788.59 3341.28,3788.59C3340.48,3788.59 3339.78,3788.89 3339.48,3789.59ZM3378.48,3847.09C3380.18,3846.99 3381.18,3846.49 3381.28,3845.39C3382.18,3834.99 3385.98,3812.09 3388.98,3796.99L3389.88,3793.99L3389.88,3793.69C3389.88,3792.49 3388.48,3790.99 3386.98,3790.99C3385.48,3790.99 3385.88,3793.49 3385.28,3795.69C3384.38,3793.39 3381.08,3788.69 3374.38,3788.69C3364.78,3788.69 3357.58,3799.49 3357.58,3810.39C3357.58,3819.59 3361.98,3824.89 3368.48,3824.89C3373.48,3824.89 3378.78,3821.19 3381.78,3815.49C3377.98,3838.79 3377.68,3840.09 3377.08,3843.79C3376.98,3844.49 3376.78,3845.19 3376.78,3845.79C3376.78,3846.59 3377.08,3847.09 3378.28,3847.09L3378.48,3847.09ZM3339.88,3843.39C3333.28,3843.39 3328.48,3837.69 3328.48,3830.29C3328.48,3822.29 3333.38,3815.29 3340.98,3815.29C3347.38,3815.29 3351.18,3821.49 3351.18,3828.39C3351.18,3837.19 3346.38,3843.39 3339.88,3843.39ZM3383.98,3803.19C3381.88,3810.69 3376.68,3820.49 3368.38,3820.49C3363.88,3820.49 3360.58,3816.99 3360.58,3810.09C3360.58,3802.69 3366.38,3792.89 3374.68,3792.89C3379.68,3792.89 3381.78,3796.79 3382.68,3798.99C3382.98,3799.69 3383.28,3799.99 3383.68,3799.99C3384.08,3799.99 3384.38,3799.69 3384.68,3799.29L3383.98,3803.19Z" style="fill-rule:nonzero;"/>
        </g>
    </g>
</svg>
