<?xml version="1.0" encoding="UTF-8" standalone="no"?>
<!DOCTYPE svg PUBLIC "-//W3C//DTD SVG 1.1//EN" "http://www.w3.org/Graphics/SVG/1.1/DTD/svg11.dtd">
<svg width="100%" height="100%" viewBox="0 0 89 89" version="1.1" xmlns="http://www.w3.org/2000/svg" xmlns:xlink="http://www.w3.org/1999/xlink" xml:space="preserve" xmlns:serif="http://www.serif.com/" style="fill-rule:evenodd;clip-rule:evenodd;stroke-linejoin:round;stroke-miterlimit:2;">
    <g transform="matrix(1,0,0,1,-2340.22,-1038.66)">
        <g transform="matrix(1,0,0,1,-1072.97,-2735.12)">
            <path d="M3501.38,3861.99L3501.38,3773.79L3413.18,3773.79L3413.18,3861.99L3501.38,3861.99ZM3497.28,3857.89L3417.28,3857.89L3417.28,3777.89L3497.28,3777.89L3497.28,3857.89ZM3466.38,3793.19C3466.18,3793.09 3465.88,3792.99 3465.58,3792.99C3463.68,3792.99 3458.98,3804.39 3458.98,3818.89C3458.98,3835.39 3463.68,3847.49 3473.58,3847.49C3484.08,3847.49 3489.08,3833.39 3489.08,3816.79C3489.08,3800.49 3484.28,3788.59 3475.38,3788.59C3471.78,3788.59 3468.88,3790.59 3466.68,3793.59L3466.38,3793.19ZM3473.38,3843.19C3465.68,3843.19 3463.08,3831.99 3463.08,3818.79C3463.08,3801.39 3469.88,3792.69 3475.08,3792.69C3482.38,3792.69 3484.98,3804.99 3484.98,3816.19C3484.98,3829.89 3481.68,3843.19 3473.38,3843.19ZM3455.48,3792.89C3455.48,3791.49 3453.58,3789.69 3452.38,3789.49L3452.28,3789.49C3451.28,3789.49 3450.28,3789.99 3449.08,3790.09L3428.68,3791.59L3427.58,3791.59C3426.38,3791.59 3425.68,3791.49 3424.78,3791.49C3424.48,3791.49 3424.38,3791.69 3424.38,3791.99C3424.38,3792.69 3425.08,3794.19 3426.08,3795.29C3426.78,3795.89 3427.48,3796.09 3428.08,3796.09C3428.78,3796.09 3429.58,3795.99 3430.28,3795.89L3449.98,3794.09C3443.88,3808.49 3438.08,3823.99 3433.78,3837.49C3433.38,3838.89 3432.68,3841.09 3431.88,3843.39C3431.78,3843.89 3431.38,3844.59 3431.38,3845.29C3431.38,3845.99 3431.78,3846.69 3433.28,3846.89C3433.68,3846.89 3434.08,3846.99 3434.38,3846.99C3435.58,3846.99 3436.28,3846.69 3436.48,3845.79C3438.88,3834.29 3446.88,3812.29 3453.68,3796.99C3454.08,3795.99 3455.28,3794.49 3455.48,3793.19L3455.48,3792.89Z" style="fill-rule:nonzero;"/>
        </g>
    </g>
</svg>
