<?xml version="1.0" encoding="UTF-8" standalone="no"?>
<!DOCTYPE svg PUBLIC "-//W3C//DTD SVG 1.1//EN" "http://www.w3.org/Graphics/SVG/1.1/DTD/svg11.dtd">
<svg width="100%" height="100%" viewBox="0 0 89 89" version="1.1" xmlns="http://www.w3.org/2000/svg" xmlns:xlink="http://www.w3.org/1999/xlink" xml:space="preserve" xmlns:serif="http://www.serif.com/" style="fill-rule:evenodd;clip-rule:evenodd;stroke-linejoin:round;stroke-miterlimit:2;">
    <g transform="matrix(1,0,0,1,-2240.22,-1338.66)">
        <g transform="matrix(1,0,0,1,-1072.97,-2735.12)">
            <path d="M3401.38,4161.99L3401.38,4073.79L3313.18,4073.79L3313.18,4161.99L3401.38,4161.99ZM3397.28,4157.89L3317.28,4157.89L3317.28,4077.89L3397.28,4077.89L3397.28,4157.89ZM3344.98,4147.09C3346.68,4146.99 3347.78,4146.49 3347.78,4145.39C3348.68,4134.99 3352.48,4112.09 3355.48,4096.99L3356.38,4093.99L3356.38,4093.69C3356.38,4092.49 3354.98,4090.99 3353.48,4090.99C3351.98,4090.99 3352.38,4093.49 3351.88,4095.69C3350.88,4093.39 3347.68,4088.69 3340.88,4088.69C3331.28,4088.69 3324.08,4099.49 3324.08,4110.39C3324.08,4119.59 3328.48,4124.89 3334.98,4124.89C3340.08,4124.89 3345.38,4121.19 3348.38,4115.49C3347.18,4122.79 3345.68,4131.29 3344.78,4137.59C3344.68,4137.99 3343.28,4144.59 3343.28,4145.79C3343.28,4146.59 3343.58,4147.09 3344.78,4147.09L3344.98,4147.09ZM3377.18,4114.69C3383.08,4112.89 3387.58,4107.89 3387.58,4101.09C3387.58,4093.29 3382.58,4088.69 3375.18,4088.69C3369.38,4088.69 3364.88,4091.29 3361.28,4095.89C3360.88,4096.29 3360.68,4096.79 3360.68,4097.49C3360.68,4098.29 3360.88,4099.19 3361.78,4100.29C3362.08,4100.79 3362.38,4100.89 3362.68,4100.89C3363.38,4100.89 3363.88,4099.89 3364.18,4099.59C3367.58,4094.99 3371.08,4092.89 3375.28,4092.89C3380.48,4092.89 3383.58,4096.19 3383.58,4101.59C3383.58,4108.29 3376.18,4113.29 3368.18,4113.89C3367.68,4113.99 3367.38,4114.49 3367.38,4115.09C3367.38,4116.39 3368.38,4118.29 3369.58,4118.29C3369.68,4118.29 3369.78,4118.19 3369.98,4118.19C3370.78,4117.99 3372.28,4117.69 3373.58,4117.59C3374.18,4117.49 3374.68,4117.49 3375.18,4117.49C3381.28,4117.49 3385.58,4122.09 3385.58,4128.69C3385.58,4136.09 3381.98,4143.19 3372.58,4143.19C3367.78,4143.19 3364.88,4140.39 3361.88,4136.19C3361.68,4135.89 3361.48,4135.69 3361.28,4135.69C3360.18,4135.69 3359.28,4137.79 3359.28,4139.39C3359.28,4140.09 3359.38,4140.59 3359.68,4140.99C3363.38,4145.19 3367.48,4147.49 3372.58,4147.49C3384.78,4147.49 3389.68,4138.79 3389.68,4128.59C3389.68,4119.99 3384.28,4114.69 3378.08,4114.69L3377.18,4114.69ZM3350.48,4103.19C3348.38,4110.69 3343.18,4120.49 3334.88,4120.49C3330.38,4120.49 3328.08,4116.99 3328.08,4110.09C3328.08,4102.69 3332.88,4092.89 3341.28,4092.89C3346.18,4092.89 3348.28,4096.79 3349.18,4098.99C3349.48,4099.69 3349.78,4099.99 3350.18,4099.99C3350.58,4099.99 3350.88,4099.69 3351.28,4099.29C3350.98,4100.59 3350.68,4101.89 3350.48,4103.19Z" style="fill-rule:nonzero;"/>
        </g>
    </g>
</svg>
