<?xml version="1.0" encoding="UTF-8" standalone="no"?>
<!DOCTYPE svg PUBLIC "-//W3C//DTD SVG 1.1//EN" "http://www.w3.org/Graphics/SVG/1.1/DTD/svg11.dtd">
<svg width="100%" height="100%" viewBox="0 0 89 89" version="1.1" xmlns="http://www.w3.org/2000/svg" xmlns:xlink="http://www.w3.org/1999/xlink" xml:space="preserve" xmlns:serif="http://www.serif.com/" style="fill-rule:evenodd;clip-rule:evenodd;stroke-linejoin:round;stroke-miterlimit:2;">
    <g transform="matrix(1,0,0,1,-2540.22,-438.665)">
        <g transform="matrix(1,0,0,1,-1072.97,-2735.12)">
            <path d="M3701.38,3261.99L3701.38,3173.79L3613.18,3173.79L3613.18,3261.99L3701.38,3261.99ZM3697.28,3257.89L3617.28,3257.89L3617.28,3177.89L3697.28,3177.89L3697.28,3257.89ZM3686.18,3233.09C3688.18,3233.09 3690.88,3233.29 3691.78,3233.29C3692.28,3233.29 3692.48,3232.89 3692.48,3232.19C3692.48,3230.79 3691.38,3228.59 3690.18,3228.59C3689.28,3228.59 3686.28,3228.99 3685.08,3229.09L3683.38,3229.19L3683.38,3212.49C3683.38,3210.49 3683.48,3206.59 3683.48,3205.29C3683.48,3203.89 3681.58,3202.99 3680.18,3202.99C3679.48,3202.99 3678.88,3203.29 3678.88,3203.79C3678.88,3205.69 3679.08,3210.89 3679.08,3212.49L3679.08,3229.39L3662.38,3229.79C3667.58,3220.59 3674.28,3207.09 3678.48,3198.29C3679.18,3196.79 3679.88,3195.59 3680.98,3193.79C3681.08,3193.59 3681.18,3193.29 3681.18,3192.99C3681.18,3191.29 3679.08,3188.89 3677.88,3188.89C3677.58,3188.89 3677.38,3188.99 3677.18,3189.39C3675.48,3195.29 3664.68,3216.69 3659.98,3225.49C3659.38,3226.59 3658.38,3227.79 3657.48,3229.19C3657.18,3229.69 3657.08,3230.29 3657.08,3230.79C3657.08,3232.69 3658.78,3234.49 3660.28,3234.49C3660.38,3234.49 3660.48,3234.39 3660.68,3234.39C3661.78,3234.09 3662.88,3233.89 3663.38,3233.89L3679.08,3233.39L3679.08,3237.79C3679.08,3238.99 3678.88,3243.59 3678.88,3244.89C3678.88,3246.29 3680.98,3247.19 3682.48,3247.19C3683.18,3247.19 3683.68,3246.89 3683.68,3246.39C3683.68,3244.49 3683.38,3241.29 3683.38,3237.99L3683.38,3233.19L3685.18,3233.09L3686.18,3233.09ZM3627.98,3246.49C3631.38,3245.69 3635.78,3245.49 3639.38,3245.49C3644.18,3245.49 3649.58,3245.49 3655.28,3246.09C3655.98,3246.09 3656.28,3245.49 3656.28,3244.69C3656.28,3243.29 3655.38,3241.39 3654.38,3241.39C3653.38,3241.39 3650.48,3241.49 3649.18,3241.49C3646.18,3241.49 3643.78,3241.39 3640.18,3241.39C3637.38,3241.39 3633.18,3241.59 3630.38,3241.89C3632.98,3236.49 3637.48,3228.39 3643.88,3221.99C3650.78,3215.19 3655.58,3209.49 3655.58,3202.09C3655.58,3194.29 3650.48,3188.69 3642.38,3188.69C3634.88,3188.69 3629.78,3192.79 3626.78,3198.69C3626.48,3199.09 3626.38,3199.59 3626.38,3200.09C3626.38,3201.39 3628.08,3203.39 3629.08,3203.39C3629.88,3203.39 3630.38,3202.59 3630.78,3201.49C3632.38,3196.69 3636.38,3192.89 3642.18,3192.89C3647.78,3192.89 3650.98,3197.09 3650.98,3202.09C3650.98,3207.39 3647.18,3212.39 3641.18,3218.59C3634.98,3224.89 3629.78,3233.59 3626.98,3239.39C3626.58,3240.19 3626.08,3240.89 3625.48,3241.79C3625.28,3242.09 3625.18,3242.49 3625.18,3242.99C3625.18,3244.59 3626.38,3246.49 3627.78,3246.49L3627.98,3246.49Z" style="fill-rule:nonzero;"/>
        </g>
    </g>
</svg>
