<?xml version="1.0" encoding="UTF-8" standalone="no"?>
<!DOCTYPE svg PUBLIC "-//W3C//DTD SVG 1.1//EN" "http://www.w3.org/Graphics/SVG/1.1/DTD/svg11.dtd">
<svg width="100%" height="100%" viewBox="0 0 89 89" version="1.1" xmlns="http://www.w3.org/2000/svg" xmlns:xlink="http://www.w3.org/1999/xlink" xml:space="preserve" xmlns:serif="http://www.serif.com/" style="fill-rule:evenodd;clip-rule:evenodd;stroke-linejoin:round;stroke-miterlimit:2;">
    <g transform="matrix(1,0,0,1,-1740.22,-888.665)">
        <g transform="matrix(1,0,0,1,-1072.97,-2735.12)">
            <path d="M2901.38,3711.99L2901.38,3623.79L2813.18,3623.79L2813.18,3711.99L2901.38,3711.99ZM2897.28,3707.89L2817.28,3707.89L2817.28,3627.89L2897.28,3627.89L2897.28,3707.89ZM2852.38,3644.19C2852.88,3644.19 2853.08,3643.69 2853.08,3643.09C2853.08,3641.79 2852.08,3639.69 2851.18,3639.69L2850.98,3639.69C2849.78,3639.99 2847.78,3640.09 2846.58,3640.19L2833.58,3641.09C2832.58,3640.59 2831.58,3640.19 2830.88,3640.19C2830.28,3640.19 2829.98,3640.39 2829.98,3641.09C2829.98,3642.09 2829.88,3643.49 2829.78,3644.59L2828.08,3664.29C2827.98,3664.69 2827.38,3667.29 2827.38,3667.99C2827.38,3669.99 2829.08,3671.49 2830.18,3671.49C2830.88,3671.49 2832.58,3669.39 2832.68,3669.19C2834.98,3666.59 2837.98,3664.79 2841.58,3664.79C2847.78,3664.79 2851.88,3669.79 2851.88,3678.09C2851.88,3685.89 2848.28,3693.09 2839.18,3693.09C2834.08,3693.09 2830.78,3689.29 2828.28,3684.99C2828.18,3684.59 2827.88,3684.39 2827.68,3684.39C2826.68,3684.39 2825.58,3686.59 2825.58,3688.39C2825.58,3690.99 2832.18,3697.49 2839.18,3697.49C2851.08,3697.49 2855.88,3688.29 2855.88,3677.99C2855.88,3666.99 2849.58,3660.59 2842.28,3660.59C2837.68,3660.59 2834.48,3662.29 2831.68,3665.09L2833.48,3645.49L2847.08,3644.49L2852.38,3644.19ZM2862.28,3696.49C2864.08,3696.09 2867.58,3695.49 2873.08,3695.49C2881.98,3695.49 2886.88,3695.99 2888.18,3696.09C2888.68,3696.09 2888.98,3695.69 2888.98,3694.99C2888.98,3693.59 2887.88,3691.39 2886.78,3691.39C2885.88,3691.39 2883.58,3691.49 2882.38,3691.49C2879.48,3691.49 2877.28,3691.39 2873.88,3691.39C2871.18,3691.39 2867.18,3691.59 2864.58,3691.89C2866.98,3686.49 2871.28,3678.39 2877.38,3671.99C2883.88,3665.19 2888.38,3659.49 2888.38,3652.09C2888.38,3644.29 2883.58,3638.69 2875.88,3638.69C2868.78,3638.69 2863.98,3642.79 2861.18,3648.69C2860.88,3649.09 2860.78,3649.59 2860.78,3650.09C2860.78,3651.19 2862.18,3653.39 2863.28,3653.39C2864.08,3653.39 2864.58,3652.59 2864.98,3651.49C2866.48,3646.69 2870.28,3642.89 2875.78,3642.89C2881.08,3642.89 2884.08,3647.09 2884.08,3652.09C2884.08,3657.39 2880.48,3662.39 2874.78,3668.59C2868.88,3674.89 2864.08,3683.59 2861.38,3689.39C2860.98,3690.19 2860.48,3690.89 2859.88,3691.79C2859.68,3692.09 2859.58,3692.49 2859.58,3692.99C2859.58,3694.59 2860.78,3696.49 2862.08,3696.49L2862.28,3696.49Z" style="fill-rule:nonzero;"/>
        </g>
    </g>
</svg>
