<?xml version="1.0" encoding="UTF-8" standalone="no"?>
<!DOCTYPE svg PUBLIC "-//W3C//DTD SVG 1.1//EN" "http://www.w3.org/Graphics/SVG/1.1/DTD/svg11.dtd">
<svg width="100%" height="100%" viewBox="0 0 89 89" version="1.1" xmlns="http://www.w3.org/2000/svg" xmlns:xlink="http://www.w3.org/1999/xlink" xml:space="preserve" xmlns:serif="http://www.serif.com/" style="fill-rule:evenodd;clip-rule:evenodd;stroke-linejoin:round;stroke-miterlimit:2;">
    <g transform="matrix(1,0,0,1,-2540.22,-888.665)">
        <g transform="matrix(1,0,0,1,-1072.97,-2735.12)">
            <path d="M3701.38,3711.99L3701.38,3623.79L3613.18,3623.79L3613.18,3711.99L3701.38,3711.99ZM3697.28,3707.89L3617.28,3707.89L3617.28,3627.89L3697.28,3627.89L3697.28,3707.89ZM3667.28,3643.19C3667.08,3643.09 3666.78,3642.99 3666.58,3642.99C3664.58,3642.99 3660.18,3654.49 3660.18,3668.89C3660.18,3685.39 3664.78,3697.49 3674.18,3697.49C3684.08,3697.49 3688.88,3683.39 3688.88,3666.79C3688.88,3650.49 3684.28,3638.59 3675.78,3638.59C3672.48,3638.59 3669.58,3640.59 3667.58,3643.59L3667.28,3643.19ZM3639.48,3639.59C3638.58,3640.79 3633.48,3650.29 3629.48,3659.29C3626.18,3666.79 3624.48,3673.59 3624.48,3680.39C3624.48,3689.79 3631.08,3697.49 3639.88,3697.49C3649.48,3697.49 3655.28,3689.09 3655.28,3678.19C3655.28,3668.39 3649.58,3661.19 3641.08,3661.19C3636.38,3661.19 3632.58,3663.59 3630.18,3667.49C3633.48,3659.29 3636.88,3651.09 3643.48,3642.09C3643.78,3641.69 3644.28,3640.99 3644.28,3640.39C3644.28,3639.69 3642.98,3638.59 3641.28,3638.59C3640.48,3638.59 3639.78,3638.89 3639.48,3639.59ZM3673.88,3693.19C3666.68,3693.19 3664.18,3681.99 3664.18,3668.79C3664.18,3651.39 3670.58,3642.69 3675.48,3642.69C3682.48,3642.69 3684.88,3654.99 3684.88,3666.19C3684.88,3679.89 3681.88,3693.19 3673.88,3693.19ZM3639.88,3693.39C3633.18,3693.39 3628.48,3687.69 3628.48,3680.29C3628.48,3672.29 3633.38,3665.29 3640.98,3665.29C3647.28,3665.29 3651.18,3671.49 3651.18,3678.39C3651.18,3687.19 3646.38,3693.39 3639.88,3693.39Z" style="fill-rule:nonzero;"/>
        </g>
    </g>
</svg>
