<?xml version="1.0" encoding="UTF-8" standalone="no"?>
<!DOCTYPE svg PUBLIC "-//W3C//DTD SVG 1.1//EN" "http://www.w3.org/Graphics/SVG/1.1/DTD/svg11.dtd">
<svg width="100%" height="100%" viewBox="0 0 89 89" version="1.1" xmlns="http://www.w3.org/2000/svg" xmlns:xlink="http://www.w3.org/1999/xlink" xml:space="preserve" xmlns:serif="http://www.serif.com/" style="fill-rule:evenodd;clip-rule:evenodd;stroke-linejoin:round;stroke-miterlimit:2;">
    <g transform="matrix(1,0,0,1,-1640.22,-1488.66)">
        <g transform="matrix(1,0,0,1,-1072.97,-2735.12)">
            <path d="M2801.38,4311.99L2801.38,4223.79L2713.18,4223.79L2713.18,4311.99L2801.38,4311.99ZM2797.28,4307.89L2717.28,4307.89L2717.28,4227.89L2797.28,4227.89L2797.28,4307.89ZM2744.18,4297.09C2745.88,4296.99 2746.88,4296.49 2746.98,4295.39C2747.88,4284.99 2751.68,4262.09 2754.68,4246.99C2754.78,4246.49 2755.28,4245.09 2755.48,4243.99L2755.48,4243.69C2755.48,4242.49 2754.18,4240.99 2752.58,4240.99C2751.18,4240.99 2751.48,4243.49 2750.98,4245.69C2750.08,4243.39 2746.78,4238.69 2740.08,4238.69C2730.48,4238.69 2723.18,4249.49 2723.18,4260.39C2723.18,4269.59 2727.68,4274.89 2734.18,4274.89C2739.18,4274.89 2744.48,4271.19 2747.48,4265.49C2743.68,4288.79 2743.38,4290.09 2742.78,4293.79C2742.68,4294.49 2742.48,4295.19 2742.48,4295.79C2742.48,4296.59 2742.78,4297.09 2743.98,4297.09L2744.18,4297.09ZM2779.28,4297.09C2780.98,4296.99 2781.98,4296.49 2782.08,4295.39C2782.98,4284.99 2786.78,4262.09 2789.78,4246.99L2790.68,4243.99L2790.68,4243.69C2790.68,4242.49 2789.28,4240.99 2787.78,4240.99C2786.28,4240.99 2786.68,4243.49 2786.08,4245.69C2785.18,4243.39 2781.98,4238.69 2775.18,4238.69C2765.58,4238.69 2758.38,4249.49 2758.38,4260.39C2758.38,4269.59 2762.78,4274.89 2769.28,4274.89C2774.28,4274.89 2779.68,4271.19 2782.58,4265.49C2781.38,4272.79 2779.98,4281.29 2779.08,4287.59C2778.98,4287.99 2777.58,4294.59 2777.58,4295.79C2777.58,4296.59 2777.88,4297.09 2779.08,4297.09L2779.28,4297.09ZM2750.38,4249.29C2748.48,4261.39 2741.78,4270.49 2734.08,4270.49C2729.48,4270.49 2727.18,4266.99 2727.18,4260.09C2727.18,4252.69 2731.98,4242.89 2740.38,4242.89C2745.38,4242.89 2747.38,4246.79 2748.38,4248.99C2748.58,4249.69 2748.98,4249.99 2749.38,4249.99C2749.68,4249.99 2750.08,4249.69 2750.38,4249.29ZM2784.78,4253.19C2782.68,4260.69 2777.48,4270.49 2769.18,4270.49C2764.68,4270.49 2762.38,4266.99 2762.38,4260.09C2762.38,4252.69 2767.18,4242.89 2775.48,4242.89C2780.48,4242.89 2782.58,4246.79 2783.48,4248.99C2783.78,4249.69 2784.08,4249.99 2784.48,4249.99C2784.88,4249.99 2785.18,4249.69 2785.48,4249.29L2784.78,4253.19Z" style="fill-rule:nonzero;"/>
        </g>
    </g>
</svg>
