<?xml version="1.0" encoding="UTF-8" standalone="no"?>
<!DOCTYPE svg PUBLIC "-//W3C//DTD SVG 1.1//EN" "http://www.w3.org/Graphics/SVG/1.1/DTD/svg11.dtd">
<svg width="100%" height="100%" viewBox="0 0 89 89" version="1.1" xmlns="http://www.w3.org/2000/svg" xmlns:xlink="http://www.w3.org/1999/xlink" xml:space="preserve" xmlns:serif="http://www.serif.com/" style="fill-rule:evenodd;clip-rule:evenodd;stroke-linejoin:round;stroke-miterlimit:2;">
    <g transform="matrix(1,0,0,1,-1940.22,-888.665)">
        <g transform="matrix(1,0,0,1,-1072.97,-2735.12)">
            <path d="M3101.38,3711.99L3101.38,3623.79L3013.18,3623.79L3013.18,3711.99L3101.38,3711.99ZM3097.28,3707.89L3017.28,3707.89L3017.28,3627.89L3097.28,3627.89L3097.28,3707.89ZM3052.18,3644.19C3052.68,3644.19 3052.98,3643.69 3052.98,3643.09C3052.98,3641.79 3051.88,3639.69 3050.98,3639.69L3050.78,3639.69C3049.58,3639.99 3047.68,3640.09 3046.38,3640.19L3033.38,3641.09C3032.48,3640.59 3031.38,3640.19 3030.68,3640.19C3030.08,3640.19 3029.78,3640.39 3029.78,3641.09C3029.78,3642.09 3029.68,3643.49 3029.58,3644.59L3027.88,3664.29C3027.78,3664.99 3027.58,3665.99 3027.28,3667.09C3027.28,3667.39 3027.18,3667.69 3027.18,3667.99C3027.18,3669.99 3028.88,3671.49 3030.08,3671.49C3030.68,3671.49 3032.18,3669.59 3032.48,3669.19C3034.78,3666.59 3037.78,3664.79 3041.38,3664.79C3047.68,3664.79 3051.68,3669.79 3051.68,3678.09C3051.68,3685.89 3048.08,3693.09 3038.98,3693.09C3033.88,3693.09 3030.68,3689.29 3028.18,3684.99C3027.98,3684.59 3027.78,3684.39 3027.48,3684.39C3026.58,3684.39 3025.38,3686.59 3025.38,3688.39C3025.38,3689.09 3025.58,3689.69 3025.98,3690.09C3029.18,3694.29 3033.38,3697.49 3038.98,3697.49C3050.88,3697.49 3055.68,3688.29 3055.68,3677.99C3055.68,3666.99 3049.48,3660.59 3042.08,3660.59C3037.48,3660.59 3034.28,3662.29 3031.48,3665.09L3033.28,3645.49L3046.88,3644.49L3052.18,3644.19ZM3086.58,3683.19C3088.48,3683.19 3090.98,3683.39 3091.98,3683.39C3092.48,3683.39 3092.68,3682.89 3092.68,3682.29C3092.68,3680.89 3091.58,3678.59 3090.48,3678.59C3089.68,3678.59 3087.68,3678.99 3086.48,3679.09L3085.28,3679.19L3085.28,3662.49C3085.28,3660.49 3085.48,3656.59 3085.48,3655.29C3085.48,3653.89 3083.58,3652.99 3082.28,3652.99C3081.58,3652.99 3081.08,3653.29 3081.08,3653.79C3081.08,3655.69 3081.28,3660.89 3081.28,3662.49L3081.28,3679.39L3064.98,3679.79C3069.88,3670.19 3076.08,3657.19 3079.98,3648.29C3080.58,3646.99 3081.58,3645.09 3082.38,3643.79C3082.58,3643.59 3082.58,3643.29 3082.58,3642.99C3082.58,3641.29 3080.58,3638.89 3079.48,3638.89C3079.08,3638.89 3078.88,3638.99 3078.78,3639.39C3077.18,3644.29 3072.48,3656.39 3062.68,3675.49C3062.18,3676.59 3061.18,3677.79 3060.38,3679.19C3060.08,3679.69 3059.98,3680.29 3059.98,3680.79C3059.98,3682.69 3061.58,3684.49 3062.98,3684.49C3063.18,3684.49 3063.18,3684.39 3063.38,3684.39C3064.38,3684.09 3065.48,3683.89 3065.98,3683.89L3081.28,3683.39L3081.28,3687.79C3081.28,3688.99 3081.08,3693.59 3081.08,3694.89C3081.08,3696.29 3083.08,3697.19 3084.38,3697.19C3085.08,3697.19 3085.58,3696.89 3085.58,3696.39C3085.58,3694.49 3085.28,3691.29 3085.28,3687.99L3085.28,3683.19L3086.58,3683.19Z" style="fill-rule:nonzero;"/>
        </g>
    </g>
</svg>
