<?xml version="1.0" encoding="UTF-8" standalone="no"?>
<!DOCTYPE svg PUBLIC "-//W3C//DTD SVG 1.1//EN" "http://www.w3.org/Graphics/SVG/1.1/DTD/svg11.dtd">
<svg width="100%" height="100%" viewBox="0 0 89 89" version="1.1" xmlns="http://www.w3.org/2000/svg" xmlns:xlink="http://www.w3.org/1999/xlink" xml:space="preserve" xmlns:serif="http://www.serif.com/" style="fill-rule:evenodd;clip-rule:evenodd;stroke-linejoin:round;stroke-miterlimit:2;">
    <g transform="matrix(1,0,0,1,-2540.22,-1038.66)">
        <g transform="matrix(1,0,0,1,-1072.97,-2735.12)">
            <path d="M3701.38,3861.99L3701.38,3773.79L3613.18,3773.79L3613.18,3861.99L3701.38,3861.99ZM3697.28,3857.89L3617.28,3857.89L3617.28,3777.89L3697.28,3777.89L3697.28,3857.89ZM3662.38,3846.49C3665.28,3845.79 3669.18,3845.49 3673.18,3845.49C3682.08,3845.49 3686.98,3845.99 3688.28,3846.09C3688.78,3846.09 3689.08,3845.69 3689.08,3844.99C3689.08,3843.59 3687.98,3841.39 3686.88,3841.39C3685.98,3841.39 3683.68,3841.49 3682.48,3841.49C3679.58,3841.49 3677.38,3841.39 3673.98,3841.39C3671.18,3841.39 3667.28,3841.59 3664.68,3841.89C3667.08,3836.49 3671.28,3828.39 3677.48,3821.99C3683.98,3815.19 3688.58,3809.49 3688.58,3802.09C3688.58,3794.29 3683.68,3788.69 3675.98,3788.69C3664.88,3788.69 3660.88,3798.69 3660.88,3800.09C3660.88,3802.19 3663.08,3803.39 3663.38,3803.39C3664.08,3803.39 3664.68,3802.59 3664.98,3801.49C3666.58,3796.69 3670.28,3792.89 3675.78,3792.89C3681.18,3792.89 3684.18,3797.09 3684.18,3802.09C3684.18,3807.39 3680.58,3812.39 3674.88,3818.59C3668.98,3824.89 3664.08,3833.59 3661.38,3839.39C3660.98,3840.19 3660.58,3840.89 3659.98,3841.79C3659.78,3842.09 3659.68,3842.49 3659.68,3842.99C3659.68,3844.59 3660.88,3846.49 3662.08,3846.49L3662.38,3846.49ZM3654.98,3792.89C3654.98,3791.49 3653.18,3789.69 3652.08,3789.49L3651.88,3789.49C3650.98,3789.49 3649.98,3789.99 3648.88,3790.09L3629.48,3791.59L3628.58,3791.59C3627.38,3791.59 3626.68,3791.49 3625.78,3791.49C3625.58,3791.49 3625.48,3791.69 3625.48,3791.99C3625.48,3792.49 3626.48,3796.09 3628.98,3796.09C3629.58,3796.09 3630.38,3795.99 3631.08,3795.89L3649.78,3794.09C3640.88,3816.19 3635.78,3832.99 3632.58,3843.39C3632.48,3843.89 3632.18,3844.59 3632.18,3845.29C3632.18,3845.99 3632.48,3846.69 3633.98,3846.89C3634.28,3846.89 3634.68,3846.99 3634.98,3846.99C3636.08,3846.99 3636.78,3846.69 3636.88,3845.79C3639.08,3835.09 3646.48,3813.19 3653.28,3796.99C3653.68,3795.99 3654.78,3794.49 3654.98,3793.19L3654.98,3792.89Z" style="fill-rule:nonzero;"/>
        </g>
    </g>
</svg>
