<?xml version="1.0" encoding="UTF-8" standalone="no"?>
<!DOCTYPE svg PUBLIC "-//W3C//DTD SVG 1.1//EN" "http://www.w3.org/Graphics/SVG/1.1/DTD/svg11.dtd">
<svg width="100%" height="100%" viewBox="0 0 89 89" version="1.1" xmlns="http://www.w3.org/2000/svg" xmlns:xlink="http://www.w3.org/1999/xlink" xml:space="preserve" xmlns:serif="http://www.serif.com/" style="fill-rule:evenodd;clip-rule:evenodd;stroke-linejoin:round;stroke-miterlimit:2;">
    <g transform="matrix(1,0,0,1,-2640.22,-588.665)">
        <g transform="matrix(1,0,0,1,-1072.97,-2735.12)">
            <path d="M3801.38,3411.99L3801.38,3323.79L3713.18,3323.79L3713.18,3411.99L3801.38,3411.99ZM3797.28,3407.89L3717.28,3407.89L3717.28,3327.89L3797.28,3327.89L3797.28,3407.89ZM3744.08,3364.69C3749.98,3362.89 3754.48,3357.89 3754.48,3351.09C3754.48,3343.29 3749.48,3338.69 3742.08,3338.69C3732.58,3338.69 3727.48,3345.99 3727.48,3347.49C3727.48,3348.29 3727.78,3349.19 3728.68,3350.29C3728.98,3350.79 3729.28,3350.89 3729.58,3350.89C3730.28,3350.89 3730.78,3349.89 3731.08,3349.59C3734.48,3344.99 3737.98,3342.89 3742.18,3342.89C3747.38,3342.89 3750.48,3346.19 3750.48,3351.59C3750.48,3358.29 3743.08,3363.29 3735.08,3363.89C3734.58,3363.99 3734.28,3364.49 3734.28,3365.09C3734.28,3366.39 3735.18,3368.29 3736.38,3368.29C3736.58,3368.29 3736.68,3368.19 3736.88,3368.19C3737.58,3367.99 3739.18,3367.69 3740.48,3367.59C3741.08,3367.49 3741.58,3367.49 3742.08,3367.49C3748.18,3367.49 3752.48,3372.09 3752.48,3378.69C3752.48,3386.09 3748.78,3393.19 3739.48,3393.19C3734.68,3393.19 3731.68,3390.39 3728.78,3386.19C3728.58,3385.89 3728.38,3385.69 3728.08,3385.69C3727.08,3385.69 3726.18,3387.79 3726.18,3389.39C3726.18,3390.09 3726.28,3390.59 3726.58,3390.99C3730.28,3395.19 3734.38,3397.49 3739.48,3397.49C3751.68,3397.49 3756.58,3388.79 3756.58,3378.59C3756.58,3369.99 3751.08,3364.69 3744.98,3364.69L3744.08,3364.69ZM3790.68,3342.89C3790.68,3341.49 3788.78,3339.69 3787.58,3339.49L3787.48,3339.49C3786.48,3339.49 3785.48,3339.99 3784.28,3340.09L3763.88,3341.59L3762.78,3341.59C3761.58,3341.59 3760.88,3341.49 3759.98,3341.49C3759.68,3341.49 3759.58,3341.69 3759.58,3341.99C3759.58,3342.69 3760.28,3344.19 3761.28,3345.29C3761.98,3345.89 3762.68,3346.09 3763.28,3346.09C3763.98,3346.09 3764.78,3345.99 3765.48,3345.89L3785.18,3344.09C3779.08,3358.49 3773.28,3373.99 3768.98,3387.49C3768.58,3388.89 3767.88,3391.09 3767.08,3393.39C3766.98,3393.89 3766.58,3394.59 3766.58,3395.29C3766.58,3395.99 3766.98,3396.69 3768.48,3396.89C3768.88,3396.89 3769.28,3396.99 3769.58,3396.99C3770.78,3396.99 3771.48,3396.69 3771.68,3395.79C3774.08,3384.29 3782.08,3362.29 3788.88,3346.99C3789.28,3345.99 3790.48,3344.49 3790.68,3343.19L3790.68,3342.89Z" style="fill-rule:nonzero;"/>
        </g>
    </g>
</svg>
