<?xml version="1.0" encoding="UTF-8" standalone="no"?>
<!DOCTYPE svg PUBLIC "-//W3C//DTD SVG 1.1//EN" "http://www.w3.org/Graphics/SVG/1.1/DTD/svg11.dtd">
<svg width="100%" height="100%" viewBox="0 0 89 89" version="1.1" xmlns="http://www.w3.org/2000/svg" xmlns:xlink="http://www.w3.org/1999/xlink" xml:space="preserve" xmlns:serif="http://www.serif.com/" style="fill-rule:evenodd;clip-rule:evenodd;stroke-linejoin:round;stroke-miterlimit:2;">
    <g transform="matrix(1,0,0,1,-1840.22,-588.665)">
        <g transform="matrix(1,0,0,1,-1072.97,-2735.12)">
            <path d="M3001.38,3411.99L3001.38,3323.79L2913.18,3323.79L2913.18,3411.99L3001.38,3411.99ZM2997.28,3407.89L2917.28,3407.89L2917.28,3327.89L2997.28,3327.89L2997.28,3407.89ZM2978.78,3397.09C2980.58,3396.99 2981.68,3396.49 2981.78,3395.39C2982.48,3386.39 2986.68,3362.39 2989.88,3346.99C2989.98,3346.49 2990.58,3345.09 2990.78,3343.99L2990.78,3343.69C2990.78,3342.49 2989.38,3340.99 2987.78,3340.99C2986.18,3340.99 2986.58,3343.49 2986.08,3345.69C2985.08,3343.39 2981.58,3338.69 2974.48,3338.69C2964.38,3338.69 2956.68,3349.49 2956.68,3360.39C2956.68,3369.59 2961.38,3374.89 2968.28,3374.89C2973.58,3374.89 2979.18,3371.19 2982.38,3365.49C2981.08,3372.79 2979.58,3381.29 2978.58,3387.59L2977.38,3393.79C2977.28,3394.49 2976.98,3395.19 2976.98,3395.79C2976.98,3396.59 2977.38,3397.09 2978.68,3397.09L2978.78,3397.09ZM2985.38,3349.29C2983.88,3359.29 2977.38,3370.49 2968.18,3370.49C2963.38,3370.49 2960.98,3366.99 2960.98,3360.09C2960.98,3352.69 2965.98,3342.89 2974.88,3342.89C2980.08,3342.89 2982.28,3346.79 2983.28,3348.99C2983.58,3349.69 2983.88,3349.99 2984.28,3349.99C2984.68,3349.99 2985.08,3349.69 2985.38,3349.29ZM2925.98,3396.49C2929.48,3395.49 2934.38,3395.49 2936.78,3395.49C2945.08,3395.49 2950.38,3395.89 2951.88,3396.09C2952.38,3396.09 2952.68,3395.69 2952.68,3394.99C2952.68,3393.59 2951.58,3391.39 2950.48,3391.39C2949.58,3391.39 2947.28,3391.49 2946.08,3391.49C2943.18,3391.49 2940.88,3391.39 2937.48,3391.39C2934.78,3391.39 2930.78,3391.59 2928.18,3391.89C2930.68,3386.49 2934.88,3378.39 2940.98,3371.99C2947.48,3365.19 2952.08,3359.49 2952.08,3352.09C2952.08,3344.29 2947.28,3338.69 2939.58,3338.69C2932.48,3338.69 2927.58,3342.79 2924.78,3348.69C2924.48,3349.09 2924.38,3349.59 2924.38,3350.09C2924.38,3350.99 2924.88,3351.89 2925.98,3352.89C2926.28,3353.29 2926.58,3353.39 2926.98,3353.39C2927.68,3353.39 2928.18,3352.59 2928.58,3351.49C2930.08,3346.69 2933.88,3342.89 2939.38,3342.89C2944.68,3342.89 2947.78,3347.09 2947.78,3352.09C2947.78,3357.39 2944.18,3362.39 2938.38,3368.59C2932.58,3374.89 2927.68,3383.59 2924.98,3389.39C2924.58,3390.19 2924.08,3390.89 2923.48,3391.79C2923.28,3392.09 2923.28,3392.49 2923.28,3392.99C2923.28,3394.59 2924.38,3396.49 2925.68,3396.49L2925.98,3396.49Z" style="fill-rule:nonzero;"/>
        </g>
    </g>
</svg>
