<?xml version="1.0" encoding="UTF-8" standalone="no"?>
<!DOCTYPE svg PUBLIC "-//W3C//DTD SVG 1.1//EN" "http://www.w3.org/Graphics/SVG/1.1/DTD/svg11.dtd">
<svg width="100%" height="100%" viewBox="0 0 89 89" version="1.1" xmlns="http://www.w3.org/2000/svg" xmlns:xlink="http://www.w3.org/1999/xlink" xml:space="preserve" xmlns:serif="http://www.serif.com/" style="fill-rule:evenodd;clip-rule:evenodd;stroke-linejoin:round;stroke-miterlimit:2;">
    <g transform="matrix(1,0,0,1,-1840.22,-1338.66)">
        <g transform="matrix(1,0,0,1,-1072.97,-2735.12)">
            <path d="M3001.38,4161.99L3001.38,4073.79L2913.18,4073.79L2913.18,4161.99L3001.38,4161.99ZM2997.28,4157.89L2917.28,4157.89L2917.28,4077.89L2997.28,4077.89L2997.28,4157.89ZM2942.58,4113.69C2949.88,4107.89 2955.18,4100.99 2955.18,4099.19C2955.18,4098.29 2954.68,4097.69 2953.98,4097.69C2953.48,4097.69 2952.98,4097.89 2952.38,4098.59L2951.98,4098.99C2952.28,4098.49 2952.48,4097.89 2952.48,4097.49C2952.48,4096.59 2948.38,4088.79 2940.38,4088.79C2931.98,4088.79 2927.18,4095.09 2927.18,4102.19C2927.18,4107.49 2928.98,4110.89 2935.28,4114.49C2928.88,4119.49 2924.98,4124.99 2924.98,4132.29C2924.98,4140.89 2930.28,4147.49 2939.18,4147.49C2949.08,4147.49 2955.58,4141.09 2955.58,4131.19C2955.58,4123.39 2951.68,4118.29 2943.48,4114.09L2942.58,4113.69ZM2979.48,4147.09C2981.18,4146.99 2982.18,4146.49 2982.28,4145.39C2983.18,4134.99 2986.98,4112.09 2989.98,4096.99L2990.88,4093.99L2990.88,4093.69C2990.88,4092.49 2989.48,4090.99 2987.98,4090.99C2986.48,4090.99 2986.88,4093.49 2986.28,4095.69C2985.38,4093.39 2982.18,4088.69 2975.38,4088.69C2965.78,4088.69 2958.58,4099.49 2958.58,4110.39C2958.58,4119.59 2962.98,4124.89 2969.48,4124.89C2974.48,4124.89 2979.78,4121.19 2982.78,4115.49C2978.98,4138.79 2978.68,4140.09 2978.08,4143.79C2977.98,4144.49 2977.78,4145.19 2977.78,4145.79C2977.78,4146.59 2978.08,4147.09 2979.28,4147.09L2979.48,4147.09ZM2984.98,4103.19C2982.88,4110.69 2977.68,4120.49 2969.38,4120.49C2964.88,4120.49 2962.58,4116.99 2962.58,4110.09C2962.58,4102.69 2967.38,4092.89 2975.68,4092.89C2980.68,4092.89 2982.78,4096.79 2983.68,4098.99C2983.98,4099.69 2984.28,4099.99 2984.68,4099.99C2985.08,4099.99 2985.38,4099.69 2985.68,4099.29L2984.98,4103.19ZM2938.98,4116.49C2950.78,4121.19 2951.48,4128.49 2951.48,4131.59C2951.48,4138.49 2946.28,4143.19 2939.18,4143.19C2932.08,4143.19 2928.98,4137.59 2928.98,4132.09C2928.98,4126.29 2932.68,4121.59 2938.98,4116.49ZM2938.98,4111.69C2932.98,4108.59 2931.18,4106.39 2931.18,4102.19C2931.18,4097.49 2934.28,4092.89 2940.48,4092.89C2944.48,4092.89 2946.88,4095.39 2948.98,4099.29C2949.38,4100.09 2949.78,4100.39 2950.28,4100.39C2950.38,4100.39 2950.68,4100.39 2950.78,4100.29C2947.38,4104.29 2943.58,4108.29 2938.98,4111.69Z" style="fill-rule:nonzero;"/>
        </g>
    </g>
</svg>
