<?xml version="1.0" encoding="UTF-8" standalone="no"?>
<!DOCTYPE svg PUBLIC "-//W3C//DTD SVG 1.1//EN" "http://www.w3.org/Graphics/SVG/1.1/DTD/svg11.dtd">
<svg width="100%" height="100%" viewBox="0 0 89 89" version="1.1" xmlns="http://www.w3.org/2000/svg" xmlns:xlink="http://www.w3.org/1999/xlink" xml:space="preserve" xmlns:serif="http://www.serif.com/" style="fill-rule:evenodd;clip-rule:evenodd;stroke-linejoin:round;stroke-miterlimit:2;">
    <g transform="matrix(1,0,0,1,-2140.22,-888.665)">
        <g transform="matrix(1,0,0,1,-1072.97,-2735.12)">
            <path d="M3301.38,3711.99L3301.38,3623.79L3213.18,3623.79L3213.18,3711.99L3301.38,3711.99ZM3297.28,3707.89L3217.28,3707.89L3217.28,3627.89L3297.28,3627.89L3297.28,3707.89ZM3273.98,3641.29C3271.18,3646.09 3268.18,3652.09 3264.98,3659.29C3261.68,3666.79 3260.08,3673.59 3260.08,3680.39C3260.08,3689.79 3266.58,3697.49 3275.48,3697.49C3284.98,3697.49 3290.78,3689.09 3290.78,3678.19C3290.78,3668.39 3285.08,3661.19 3276.68,3661.19C3271.88,3661.19 3268.08,3663.59 3265.68,3667.49C3270.38,3655.99 3274.68,3647.99 3278.98,3642.09C3279.28,3641.69 3279.78,3640.99 3279.78,3640.39C3279.78,3639.89 3279.58,3639.39 3278.48,3638.99C3278.08,3638.79 3277.38,3638.59 3276.78,3638.59C3276.08,3638.59 3275.38,3638.89 3274.98,3639.59C3274.78,3639.99 3274.18,3641.09 3273.98,3641.29ZM3251.08,3644.19C3251.58,3644.19 3251.88,3643.69 3251.88,3643.09C3251.88,3641.79 3250.88,3639.69 3249.88,3639.69L3249.68,3639.69C3248.58,3639.99 3246.58,3640.09 3245.28,3640.19L3232.28,3641.09C3231.38,3640.59 3230.28,3640.19 3229.68,3640.19C3229.08,3640.19 3228.68,3640.39 3228.68,3641.09C3228.68,3642.09 3228.58,3643.49 3228.48,3644.59L3226.78,3664.29C3226.68,3664.99 3226.48,3665.99 3226.18,3667.09L3226.18,3667.99C3226.18,3669.99 3227.88,3671.49 3228.98,3671.49C3229.18,3671.49 3229.38,3671.49 3229.58,3671.29C3234.18,3665.89 3237.18,3664.79 3240.28,3664.79C3246.58,3664.79 3250.58,3669.79 3250.58,3678.09C3250.58,3685.89 3246.98,3693.09 3237.88,3693.09C3232.78,3693.09 3229.58,3689.29 3227.08,3684.99C3226.88,3684.59 3226.68,3684.39 3226.38,3684.39C3225.48,3684.39 3224.38,3686.59 3224.38,3688.39C3224.38,3689.09 3224.48,3689.69 3224.88,3690.09C3228.08,3694.29 3232.28,3697.49 3237.88,3697.49C3249.78,3697.49 3254.58,3688.29 3254.58,3677.99C3254.58,3666.99 3248.38,3660.59 3240.98,3660.59C3236.38,3660.59 3233.18,3662.29 3230.38,3665.09L3232.18,3645.49L3245.78,3644.49L3251.08,3644.19ZM3275.48,3693.39C3268.78,3693.39 3264.08,3687.69 3264.08,3680.29C3264.08,3672.29 3268.98,3665.29 3276.58,3665.29C3282.88,3665.29 3286.68,3671.49 3286.68,3678.39C3286.68,3687.19 3281.98,3693.39 3275.48,3693.39Z" style="fill-rule:nonzero;"/>
        </g>
    </g>
</svg>
