<?xml version="1.0" encoding="UTF-8" standalone="no"?>
<!DOCTYPE svg PUBLIC "-//W3C//DTD SVG 1.1//EN" "http://www.w3.org/Graphics/SVG/1.1/DTD/svg11.dtd">
<svg width="100%" height="100%" viewBox="0 0 89 89" version="1.1" xmlns="http://www.w3.org/2000/svg" xmlns:xlink="http://www.w3.org/1999/xlink" xml:space="preserve" xmlns:serif="http://www.serif.com/" style="fill-rule:evenodd;clip-rule:evenodd;stroke-linejoin:round;stroke-miterlimit:2;">
    <g transform="matrix(1,0,0,1,-1640.22,-138.665)">
        <g transform="matrix(1,0,0,1,-1072.97,-2735.12)">
            <path d="M2801.38,2961.99L2801.38,2873.79L2713.18,2873.79L2713.18,2961.99L2801.38,2961.99ZM2797.28,2957.89L2717.28,2957.89L2717.28,2877.89L2797.28,2877.89L2797.28,2957.89ZM2766.48,2893.79C2766.28,2893.69 2765.98,2893.59 2765.78,2893.59C2763.58,2893.59 2759.48,2906.89 2759.48,2919.49C2759.48,2935.99 2763.98,2948.09 2773.38,2948.09C2783.28,2948.09 2788.08,2933.99 2788.08,2917.39C2788.08,2901.09 2783.48,2889.19 2774.98,2889.19C2771.68,2889.19 2768.88,2891.19 2766.78,2894.19L2766.48,2893.79ZM2733.48,2894.19C2733.28,2893.89 2732.98,2893.59 2732.48,2893.59C2730.68,2893.59 2726.28,2905.89 2726.28,2919.49C2726.28,2935.99 2730.68,2948.09 2739.98,2948.09C2749.58,2948.09 2754.28,2933.99 2754.28,2917.39C2754.28,2901.09 2749.78,2889.19 2741.48,2889.19C2738.28,2889.19 2735.48,2891.19 2733.48,2894.19ZM2773.08,2943.79C2765.88,2943.79 2763.38,2932.59 2763.38,2919.39C2763.38,2901.99 2769.78,2893.29 2774.78,2893.29C2781.68,2893.29 2784.18,2905.59 2784.18,2916.79C2784.18,2930.49 2781.08,2943.79 2773.08,2943.79ZM2739.68,2943.79C2732.48,2943.79 2730.08,2932.59 2730.08,2919.39C2730.08,2901.99 2736.48,2893.29 2741.28,2893.29C2748.08,2893.29 2750.48,2905.59 2750.48,2916.79C2750.48,2930.49 2747.48,2943.79 2739.68,2943.79Z" style="fill-rule:nonzero;"/>
        </g>
    </g>
</svg>
