<?xml version="1.0" encoding="UTF-8" standalone="no"?>
<!DOCTYPE svg PUBLIC "-//W3C//DTD SVG 1.1//EN" "http://www.w3.org/Graphics/SVG/1.1/DTD/svg11.dtd">
<svg width="100%" height="100%" viewBox="0 0 89 89" version="1.1" xmlns="http://www.w3.org/2000/svg" xmlns:xlink="http://www.w3.org/1999/xlink" xml:space="preserve" xmlns:serif="http://www.serif.com/" style="fill-rule:evenodd;clip-rule:evenodd;stroke-linejoin:round;stroke-miterlimit:2;">
    <g transform="matrix(1,0,0,1,-1540.22,-888.665)">
        <g transform="matrix(1,0,0,1,-1072.97,-2735.12)">
            <path d="M2701.38,3711.99L2701.38,3623.79L2613.18,3623.79L2613.18,3711.99L2701.38,3711.99ZM2697.28,3707.89L2617.28,3707.89L2617.28,3627.89L2697.28,3627.89L2697.28,3707.89ZM2667.68,3643.59C2667.38,3642.99 2666.78,3642.99 2666.58,3642.99C2664.58,3642.99 2659.88,3654.39 2659.88,3668.89C2659.88,3685.39 2664.68,3697.49 2674.58,3697.49C2684.98,3697.49 2690.08,3683.39 2690.08,3666.79C2690.08,3650.49 2685.18,3638.59 2676.28,3638.59C2672.78,3638.59 2669.78,3640.59 2667.68,3643.59ZM2674.28,3693.19C2666.68,3693.19 2664.08,3681.99 2664.08,3668.79C2664.08,3651.39 2670.78,3642.69 2675.98,3642.69C2683.28,3642.69 2685.88,3654.99 2685.88,3666.19C2685.88,3679.89 2682.68,3693.19 2674.28,3693.19ZM2631.38,3669.19C2633.68,3666.59 2636.68,3664.79 2640.28,3664.79C2646.58,3664.79 2650.58,3669.79 2650.58,3678.09C2650.58,3685.89 2646.98,3693.09 2637.88,3693.09C2632.78,3693.09 2629.48,3689.29 2627.08,3684.99C2626.88,3684.59 2626.58,3684.39 2626.38,3684.39C2625.38,3684.39 2624.28,3686.59 2624.28,3688.39C2624.28,3690.99 2630.88,3697.49 2637.88,3697.49C2649.78,3697.49 2654.58,3688.29 2654.58,3677.99C2654.58,3666.99 2648.28,3660.59 2640.98,3660.59C2636.38,3660.59 2633.18,3662.29 2630.38,3665.09L2632.18,3645.49L2645.78,3644.49L2651.08,3644.19C2651.58,3644.19 2651.88,3643.69 2651.88,3643.09C2651.88,3641.79 2650.78,3639.69 2649.88,3639.69L2649.68,3639.69C2648.48,3639.99 2646.48,3640.09 2645.28,3640.19L2632.28,3641.09C2631.28,3640.59 2630.28,3640.19 2629.58,3640.19C2628.98,3640.19 2628.68,3640.39 2628.68,3641.09C2628.68,3642.09 2628.58,3643.49 2628.48,3644.59L2626.78,3664.29C2626.68,3664.69 2626.08,3667.29 2626.08,3667.99C2626.08,3669.99 2627.78,3671.49 2628.88,3671.49C2629.18,3671.49 2629.38,3671.49 2629.48,3671.29L2631.38,3669.19Z" style="fill-rule:nonzero;"/>
        </g>
    </g>
</svg>
