<?xml version="1.0" encoding="UTF-8" standalone="no"?>
<!DOCTYPE svg PUBLIC "-//W3C//DTD SVG 1.1//EN" "http://www.w3.org/Graphics/SVG/1.1/DTD/svg11.dtd">
<svg width="100%" height="100%" viewBox="0 0 89 89" version="1.1" xmlns="http://www.w3.org/2000/svg" xmlns:xlink="http://www.w3.org/1999/xlink" xml:space="preserve" xmlns:serif="http://www.serif.com/" style="fill-rule:evenodd;clip-rule:evenodd;stroke-linejoin:round;stroke-miterlimit:2;">
    <g transform="matrix(1,0,0,1,-2340.22,-888.665)">
        <g transform="matrix(1,0,0,1,-1072.97,-2735.12)">
            <path d="M3501.38,3711.99L3501.38,3623.79L3413.18,3623.79L3413.18,3711.99L3501.38,3711.99ZM3497.28,3707.89L3417.28,3707.89L3417.28,3627.89L3497.28,3627.89L3497.28,3707.89ZM3476.88,3663.69C3480.28,3660.99 3489.48,3651.79 3489.48,3649.19C3489.48,3648.29 3488.88,3647.69 3488.28,3647.69C3487.68,3647.69 3487.18,3647.89 3486.58,3648.59L3486.28,3648.99C3486.58,3648.49 3486.68,3647.89 3486.68,3647.49C3486.68,3647.19 3486.58,3646.89 3486.58,3646.69C3483.88,3642.39 3480.08,3638.79 3474.68,3638.79C3466.28,3638.79 3461.38,3645.09 3461.38,3652.19C3461.38,3657.49 3463.18,3660.89 3469.48,3664.49C3463.08,3669.49 3459.28,3674.99 3459.28,3682.29C3459.28,3690.89 3464.58,3697.49 3473.48,3697.49C3483.28,3697.49 3489.78,3691.09 3489.78,3681.19C3489.78,3673.39 3485.98,3668.29 3477.68,3664.09L3476.88,3663.69ZM3431.38,3669.19C3433.68,3666.59 3436.68,3664.79 3440.28,3664.79C3446.48,3664.79 3450.48,3669.79 3450.48,3678.09C3450.48,3685.89 3446.98,3693.09 3437.88,3693.09C3432.78,3693.09 3429.48,3689.29 3426.98,3684.99C3426.88,3684.59 3426.58,3684.39 3426.38,3684.39C3425.38,3684.39 3424.28,3686.59 3424.28,3688.39C3424.28,3690.99 3430.88,3697.49 3437.88,3697.49C3449.78,3697.49 3454.58,3688.29 3454.58,3677.99C3454.58,3666.99 3448.28,3660.59 3440.98,3660.59C3436.38,3660.59 3433.18,3662.29 3430.38,3665.09L3432.18,3645.49L3445.78,3644.49L3451.08,3644.19C3451.58,3644.19 3451.78,3643.69 3451.78,3643.09C3451.78,3641.79 3450.78,3639.69 3449.88,3639.69L3449.68,3639.69C3448.48,3639.99 3446.48,3640.09 3445.18,3640.19L3432.28,3641.09C3431.28,3640.59 3430.28,3640.19 3429.58,3640.19C3428.98,3640.19 3428.68,3640.39 3428.68,3641.09C3428.68,3642.09 3428.58,3643.49 3428.48,3644.59L3426.78,3664.29L3426.18,3667.09C3426.08,3667.39 3426.08,3667.69 3426.08,3667.99C3426.08,3669.99 3427.78,3671.49 3428.88,3671.49C3429.18,3671.49 3429.28,3671.49 3429.48,3671.29L3431.38,3669.19ZM3473.28,3666.49C3480.58,3670.19 3485.78,3673.39 3485.78,3681.59C3485.78,3688.49 3480.58,3693.19 3473.48,3693.19C3466.38,3693.19 3463.28,3687.59 3463.28,3682.09C3463.28,3676.29 3466.98,3671.59 3473.28,3666.49ZM3485.18,3650.19C3481.78,3654.19 3477.78,3658.29 3473.18,3661.69C3467.18,3658.59 3465.38,3656.39 3465.38,3652.19C3465.38,3647.49 3468.48,3642.89 3474.78,3642.89C3478.78,3642.89 3481.18,3645.39 3483.18,3649.29C3483.58,3650.09 3484.08,3650.39 3484.48,3650.39C3484.78,3650.39 3484.98,3650.29 3485.18,3650.19Z" style="fill-rule:nonzero;"/>
        </g>
    </g>
</svg>
