<?xml version="1.0" encoding="UTF-8" standalone="no"?>
<!DOCTYPE svg PUBLIC "-//W3C//DTD SVG 1.1//EN" "http://www.w3.org/Graphics/SVG/1.1/DTD/svg11.dtd">
<svg width="100%" height="100%" viewBox="0 0 89 89" version="1.1" xmlns="http://www.w3.org/2000/svg" xmlns:xlink="http://www.w3.org/1999/xlink" xml:space="preserve" xmlns:serif="http://www.serif.com/" style="fill-rule:evenodd;clip-rule:evenodd;stroke-linejoin:round;stroke-miterlimit:2;">
    <g transform="matrix(1,0,0,1,-1640.22,-738.665)">
        <g transform="matrix(1,0,0,1,-1072.97,-2735.12)">
            <path d="M2801.38,3561.99L2801.38,3473.79L2713.18,3473.79L2713.18,3561.99L2801.38,3561.99ZM2797.28,3557.89L2717.28,3557.89L2717.28,3477.89L2797.28,3477.89L2797.28,3557.89ZM2778.48,3547.09C2780.18,3546.99 2781.18,3546.49 2781.28,3545.39C2782.18,3534.99 2785.98,3512.09 2788.98,3496.99C2789.08,3496.49 2789.58,3495.09 2789.78,3493.99L2789.78,3493.69C2789.78,3492.49 2788.48,3490.99 2786.88,3490.99C2785.48,3490.99 2785.78,3493.49 2785.28,3495.69C2784.38,3493.39 2781.08,3488.69 2774.38,3488.69C2764.78,3488.69 2757.48,3499.49 2757.48,3510.39C2757.48,3519.59 2761.98,3524.89 2768.48,3524.89C2773.48,3524.89 2778.78,3521.19 2781.78,3515.49C2777.98,3538.79 2777.68,3540.09 2777.08,3543.79C2776.98,3544.49 2776.78,3545.19 2776.78,3545.79C2776.78,3546.59 2777.08,3547.09 2778.28,3547.09L2778.48,3547.09ZM2741.98,3514.69C2747.88,3512.89 2752.38,3507.89 2752.38,3501.09C2752.38,3493.29 2747.38,3488.69 2739.98,3488.69C2731.58,3488.69 2725.38,3495.39 2725.38,3497.49C2725.38,3499.19 2726.88,3500.89 2727.48,3500.89C2728.18,3500.89 2728.68,3499.89 2728.88,3499.59C2732.38,3494.99 2735.88,3492.89 2739.98,3492.89C2745.28,3492.89 2748.28,3496.19 2748.28,3501.59C2748.28,3508.29 2740.58,3513.29 2732.88,3513.89C2732.38,3513.99 2732.18,3514.49 2732.18,3515.09C2732.18,3516.39 2733.08,3518.29 2734.28,3518.29C2734.48,3518.29 2734.58,3518.19 2734.68,3518.19C2735.58,3517.99 2738.08,3517.49 2739.98,3517.49C2745.98,3517.49 2750.38,3522.09 2750.38,3528.69C2750.38,3536.09 2746.68,3543.19 2737.38,3543.19C2732.58,3543.19 2729.58,3540.39 2726.68,3536.19C2726.38,3535.89 2726.28,3535.69 2725.98,3535.69C2724.98,3535.69 2724.08,3537.79 2724.08,3539.39C2724.08,3540.09 2724.08,3540.59 2724.48,3540.99C2728.18,3545.19 2732.28,3547.49 2737.38,3547.49C2749.48,3547.49 2754.48,3538.79 2754.48,3528.59C2754.48,3519.99 2748.98,3514.69 2742.88,3514.69L2741.98,3514.69ZM2784.68,3499.29C2782.78,3511.39 2776.08,3520.49 2768.38,3520.49C2763.88,3520.49 2761.48,3516.99 2761.48,3510.09C2761.48,3502.69 2766.28,3492.89 2774.68,3492.89C2779.68,3492.89 2781.78,3496.79 2782.68,3498.99C2782.88,3499.69 2783.28,3499.99 2783.68,3499.99C2783.98,3499.99 2784.38,3499.69 2784.68,3499.29Z" style="fill-rule:nonzero;"/>
        </g>
    </g>
</svg>
