<?xml version="1.0" encoding="UTF-8" standalone="no"?>
<!DOCTYPE svg PUBLIC "-//W3C//DTD SVG 1.1//EN" "http://www.w3.org/Graphics/SVG/1.1/DTD/svg11.dtd">
<svg width="100%" height="100%" viewBox="0 0 89 89" version="1.1" xmlns="http://www.w3.org/2000/svg" xmlns:xlink="http://www.w3.org/1999/xlink" xml:space="preserve" xmlns:serif="http://www.serif.com/" style="fill-rule:evenodd;clip-rule:evenodd;stroke-linejoin:round;stroke-miterlimit:2;">
    <g transform="matrix(1,0,0,1,-2440.22,-138.665)">
        <g transform="matrix(1,0,0,1,-1072.97,-2735.12)">
            <path d="M3601.38,2961.99L3601.38,2873.79L3513.18,2873.79L3513.18,2961.99L3601.38,2961.99ZM3597.28,2957.89L3517.28,2957.89L3517.28,2877.89L3597.28,2877.89L3597.28,2957.89ZM3533.78,2894.19C3533.58,2893.89 3533.28,2893.59 3532.88,2893.59C3530.68,2893.59 3526.58,2906.89 3526.58,2919.49C3526.58,2935.99 3531.08,2948.09 3540.28,2948.09C3549.98,2948.09 3554.68,2933.99 3554.68,2917.39C3554.68,2901.09 3550.08,2889.19 3541.78,2889.19C3538.58,2889.19 3535.78,2891.19 3533.78,2894.19ZM3539.98,2943.79C3532.88,2943.79 3530.48,2932.59 3530.48,2919.39C3530.48,2901.99 3536.78,2893.29 3541.58,2893.29C3548.38,2893.29 3550.78,2905.59 3550.78,2916.79C3550.78,2930.49 3547.78,2943.79 3539.98,2943.79ZM3585.68,2933.59C3587.58,2933.59 3590.18,2933.79 3591.08,2933.79C3591.58,2933.79 3591.78,2933.29 3591.78,2932.69C3591.78,2931.29 3590.78,2928.99 3589.58,2928.99C3588.78,2928.99 3586.78,2929.39 3585.58,2929.49L3584.38,2929.59L3584.38,2912.89C3584.38,2910.89 3584.58,2906.99 3584.58,2905.69C3584.58,2904.29 3582.68,2903.39 3581.38,2903.39C3580.78,2903.39 3580.18,2903.69 3580.18,2904.19C3580.18,2906.09 3580.38,2911.29 3580.38,2912.89L3580.38,2929.79L3564.18,2930.19C3568.98,2920.59 3575.28,2907.59 3579.08,2898.69C3579.68,2897.39 3580.78,2895.49 3581.48,2894.19C3581.68,2893.99 3581.68,2893.69 3581.68,2893.39C3581.68,2891.69 3579.68,2889.29 3578.58,2889.29C3578.28,2889.29 3577.98,2889.39 3577.88,2889.79C3574.68,2899.79 3565.18,2919.39 3561.88,2925.89C3561.28,2926.99 3560.28,2928.19 3559.58,2929.59C3559.18,2930.09 3559.08,2930.69 3559.08,2931.19C3559.08,2933.09 3560.68,2934.89 3562.08,2934.89C3562.28,2934.89 3562.38,2934.79 3562.48,2934.79C3563.58,2934.49 3564.58,2934.29 3565.08,2934.29L3580.38,2933.79L3580.38,2938.19C3580.38,2939.39 3580.18,2943.99 3580.18,2945.29C3580.18,2946.69 3582.18,2947.59 3583.58,2947.59C3584.28,2947.59 3584.78,2947.29 3584.78,2946.79C3584.78,2944.89 3584.38,2941.69 3584.38,2938.39L3584.38,2933.59L3585.68,2933.59Z" style="fill-rule:nonzero;"/>
        </g>
    </g>
</svg>
