<?xml version="1.0" encoding="UTF-8" standalone="no"?>
<!DOCTYPE svg PUBLIC "-//W3C//DTD SVG 1.1//EN" "http://www.w3.org/Graphics/SVG/1.1/DTD/svg11.dtd">
<svg width="100%" height="100%" viewBox="0 0 89 89" version="1.1" xmlns="http://www.w3.org/2000/svg" xmlns:xlink="http://www.w3.org/1999/xlink" xml:space="preserve" xmlns:serif="http://www.serif.com/" style="fill-rule:evenodd;clip-rule:evenodd;stroke-linejoin:round;stroke-miterlimit:2;">
    <g transform="matrix(1,0,0,1,-2240.22,-1638.66)">
        <g transform="matrix(1,0,0,1,-1072.97,-2735.12)">
            <path d="M3401.38,4461.99L3401.38,4373.79L3313.18,4373.79L3313.18,4461.99L3401.38,4461.99ZM3397.28,4457.89L3317.28,4457.89L3317.28,4377.89L3397.28,4377.89L3397.28,4457.89ZM3368.68,4437.39C3368.68,4440.39 3368.58,4443.59 3368.58,4444.89C3368.58,4446.29 3370.78,4447.29 3372.28,4447.29C3373.08,4447.29 3373.58,4446.99 3373.58,4446.49C3373.58,4444.49 3373.28,4440.89 3373.28,4437.49L3373.28,4401.09C3373.28,4398.09 3373.48,4394.89 3373.48,4393.49C3373.48,4392.19 3371.28,4391.19 3369.88,4391.19C3369.08,4391.19 3368.58,4391.49 3368.58,4391.99C3368.58,4393.09 3368.58,4394.79 3368.68,4396.69C3366.38,4392.79 3362.58,4391.19 3358.18,4391.19C3347.38,4391.19 3337.28,4403.29 3337.28,4416.59C3337.28,4427.29 3342.88,4433.69 3351.08,4433.69C3357.88,4433.69 3364.28,4430.09 3368.68,4421.69L3368.68,4437.39ZM3368.68,4409.09C3368.68,4419.59 3359.08,4429.49 3351.08,4429.49C3346.08,4429.49 3342.18,4425.09 3342.18,4416.29C3342.18,4406.09 3348.88,4395.29 3358.28,4395.29C3361.38,4395.29 3364.58,4396.59 3366.78,4399.99C3366.98,4400.29 3367.18,4400.39 3367.48,4400.39C3367.98,4400.39 3368.48,4400.09 3368.68,4399.69L3368.68,4409.09Z" style="fill-rule:nonzero;"/>
        </g>
    </g>
</svg>
