<?xml version="1.0" encoding="UTF-8" standalone="no"?>
<!DOCTYPE svg PUBLIC "-//W3C//DTD SVG 1.1//EN" "http://www.w3.org/Graphics/SVG/1.1/DTD/svg11.dtd">
<svg width="100%" height="100%" viewBox="0 0 89 89" version="1.1" xmlns="http://www.w3.org/2000/svg" xmlns:xlink="http://www.w3.org/1999/xlink" xml:space="preserve" xmlns:serif="http://www.serif.com/" style="fill-rule:evenodd;clip-rule:evenodd;stroke-linejoin:round;stroke-miterlimit:2;">
    <g transform="matrix(1,0,0,1,-2893.34,-681.509)">
        <g transform="matrix(1.41414,0,0,1.41429,-1389.33,-1046.26)">
            <path d="M3085.31,1284.02C3088.7,1284.02 3090.83,1281.48 3090.83,1278.51L3090.83,1227.17C3090.83,1223.71 3088.35,1221.66 3085.31,1221.66L3033.98,1221.66C3030.51,1221.66 3028.46,1223.99 3028.46,1227.17L3028.46,1278.51C3028.46,1281.69 3030.94,1284.02 3033.98,1284.02L3085.31,1284.02ZM3087.93,1278.79C3087.93,1280.34 3086.87,1281.12 3085.66,1281.12L3033.62,1281.12C3032.14,1281.12 3031.36,1280.06 3031.36,1278.79L3031.36,1226.82C3031.36,1225.4 3032.28,1224.56 3033.62,1224.56L3085.66,1224.56C3087.08,1224.56 3087.93,1225.62 3087.93,1226.82L3087.93,1278.79ZM3040.55,1273.06C3042.67,1272.5 3045.15,1272.35 3048.61,1272.35C3050.73,1272.35 3056.32,1272.42 3060.14,1272.78C3060.56,1272.78 3060.78,1272.5 3060.78,1272C3060.78,1271.01 3059.93,1269.45 3059.15,1269.45C3058.44,1269.45 3056.74,1269.53 3055.83,1269.53C3053.7,1269.53 3051.65,1269.45 3049.11,1269.45C3047.13,1269.45 3044.16,1269.6 3042.18,1269.81C3044.02,1265.99 3047.48,1260.26 3052.08,1255.74C3056.89,1250.93 3060.35,1246.9 3060.35,1241.67C3060.35,1236.15 3056.74,1232.19 3051.02,1232.19C3045.71,1232.19 3042.04,1235.09 3039.99,1239.26C3039.78,1239.55 3039.7,1239.9 3039.7,1240.25C3039.7,1241.17 3040.91,1242.59 3041.61,1242.59C3042.11,1242.59 3042.53,1242.02 3042.82,1241.24C3043.95,1237.85 3046.78,1235.16 3050.88,1235.16C3054.84,1235.16 3057.1,1238.13 3057.1,1241.67C3057.1,1245.41 3054.41,1248.95 3050.1,1253.33C3045.78,1257.79 3041.83,1263.94 3039.78,1268.04C3039.49,1268.61 3039.14,1269.1 3038.71,1269.74C3038.57,1269.95 3038.5,1270.23 3038.5,1270.59C3038.5,1271.72 3039.35,1273.06 3040.34,1273.06L3040.55,1273.06ZM3073.64,1266.98C3073.64,1268.18 3073.57,1271.08 3073.57,1272C3073.57,1272.92 3074.99,1273.56 3076.12,1273.56C3076.54,1273.56 3076.97,1273.41 3076.97,1272.99C3076.9,1271.51 3076.83,1268.18 3076.83,1266.63L3076.83,1238.13C3076.83,1236.51 3077.18,1235.52 3077.18,1234.6C3077.18,1233.54 3075.98,1232.48 3075.13,1232.48C3074.35,1232.48 3073.22,1234.1 3072.8,1234.45C3071.17,1235.8 3068.55,1237.28 3065.87,1238.41C3065.51,1238.56 3065.37,1238.77 3065.37,1238.98C3065.37,1239.62 3066.57,1240.25 3067.49,1240.25C3067.7,1240.25 3067.92,1240.25 3068.06,1240.18C3069.9,1239.62 3072.16,1238.7 3073.64,1237.71L3073.64,1266.98Z" style="fill-rule:nonzero;"/>
        </g>
    </g>
</svg>
