<?xml version="1.0" encoding="UTF-8" standalone="no"?>
<!DOCTYPE svg PUBLIC "-//W3C//DTD SVG 1.1//EN" "http://www.w3.org/Graphics/SVG/1.1/DTD/svg11.dtd">
<svg width="100%" height="100%" viewBox="0 0 89 89" version="1.1" xmlns="http://www.w3.org/2000/svg" xmlns:xlink="http://www.w3.org/1999/xlink" xml:space="preserve" xmlns:serif="http://www.serif.com/" style="fill-rule:evenodd;clip-rule:evenodd;stroke-linejoin:round;stroke-miterlimit:2;">
    <g transform="matrix(1,0,0,1,-3393.29,-2031.51)">
        <g transform="matrix(1.41414,0,0,1.41429,-1389.33,-1046.26)">
            <path d="M3438.85,2238.57C3442.24,2238.57 3444.36,2236.02 3444.36,2233.05L3444.36,2181.72C3444.36,2178.25 3441.89,2176.2 3438.85,2176.2L3387.51,2176.2C3384.05,2176.2 3382,2178.54 3382,2181.72L3382,2233.05C3382,2236.23 3384.47,2238.57 3387.51,2238.57L3438.85,2238.57ZM3441.46,2233.33C3441.46,2234.89 3440.4,2235.67 3439.2,2235.67L3387.16,2235.67C3385.67,2235.67 3384.9,2234.61 3384.9,2233.33L3384.9,2181.36C3384.9,2179.95 3385.82,2179.1 3387.16,2179.1L3439.2,2179.1C3440.61,2179.1 3441.46,2180.16 3441.46,2181.36L3441.46,2233.33ZM3405.76,2216.01C3405.76,2216.86 3405.61,2220.32 3405.61,2221.31C3405.61,2222.23 3407.24,2222.94 3408.3,2222.94C3408.8,2222.94 3409.22,2222.73 3409.22,2222.38C3409.22,2221.03 3409.01,2218.49 3409.01,2216.01C3409.01,2211.41 3409.15,2206.18 3410,2203.43C3411.48,2198.62 3414.95,2196.64 3418.41,2196.64C3419.61,2196.64 3422.02,2197.34 3422.87,2198.9C3423.08,2199.32 3423.36,2199.54 3423.64,2199.54C3424.49,2199.54 3425.34,2197.98 3425.34,2196.85C3425.34,2196.57 3425.27,2196.28 3425.13,2196.07C3423.5,2194.16 3420.6,2193.31 3418.55,2193.31C3414.31,2193.31 3410.63,2195.86 3409.08,2198.9C3409.08,2197.49 3409.15,2195.93 3409.15,2195.01C3409.15,2194.02 3407.59,2193.31 3406.53,2193.31C3405.97,2193.31 3405.61,2193.53 3405.61,2193.88C3405.61,2195.29 3405.76,2199.18 3405.76,2200.31L3405.76,2216.01Z" style="fill-rule:nonzero;"/>
        </g>
    </g>
</svg>
