<?xml version="1.0" encoding="UTF-8" standalone="no"?>
<!DOCTYPE svg PUBLIC "-//W3C//DTD SVG 1.1//EN" "http://www.w3.org/Graphics/SVG/1.1/DTD/svg11.dtd">
<svg width="100%" height="100%" viewBox="0 0 89 89" version="1.1" xmlns="http://www.w3.org/2000/svg" xmlns:xlink="http://www.w3.org/1999/xlink" xml:space="preserve" xmlns:serif="http://www.serif.com/" style="fill-rule:evenodd;clip-rule:evenodd;stroke-linejoin:round;stroke-miterlimit:2;">
    <g transform="matrix(1,0,0,1,-2793.35,-681.509)">
        <g transform="matrix(1.41414,0,0,1.41429,-1389.33,-1046.26)">
            <path d="M3014.6,1284.02C3018,1284.02 3020.12,1281.48 3020.12,1278.51L3020.12,1227.17C3020.12,1223.71 3017.64,1221.66 3014.6,1221.66L2963.27,1221.66C2959.8,1221.66 2957.76,1223.99 2957.76,1227.17L2957.76,1278.51C2957.76,1281.69 2960.23,1284.02 2963.27,1284.02L3014.6,1284.02ZM3017.22,1278.79C3017.22,1280.34 3016.16,1281.12 3014.96,1281.12L2962.92,1281.12C2961.43,1281.12 2960.65,1280.06 2960.65,1278.79L2960.65,1226.82C2960.65,1225.4 2961.57,1224.56 2962.92,1224.56L3014.96,1224.56C3016.37,1224.56 3017.22,1225.62 3017.22,1226.82L3017.22,1278.79ZM2995.3,1235.66C2995.23,1235.44 2994.88,1235.23 2994.52,1235.23C2993.11,1235.23 2989.78,1243.29 2989.78,1253.55C2989.78,1265.21 2993.18,1273.77 3000.18,1273.77C3007.6,1273.77 3011.14,1263.8 3011.14,1252.06C3011.14,1240.54 3007.74,1232.12 3001.38,1232.12C2998.91,1232.12 2996.78,1233.54 2995.3,1235.66ZM2999.97,1270.73C2994.59,1270.73 2992.68,1262.81 2992.68,1253.48C2992.68,1241.17 2997.49,1235.02 3001.17,1235.02C3006.4,1235.02 3008.24,1243.72 3008.24,1251.64C3008.24,1261.32 3005.91,1270.73 2999.97,1270.73ZM2966.66,1273.06C2969.07,1272.5 2972.18,1272.35 2974.72,1272.35C2978.68,1272.35 2982.57,1272.42 2986.32,1272.78C2986.67,1272.78 2986.89,1272.5 2986.89,1272C2986.89,1271.01 2986.11,1269.45 2985.26,1269.45C2984.62,1269.45 2982.86,1269.53 2982.01,1269.53C2979.82,1269.53 2977.84,1269.45 2975.29,1269.45C2973.24,1269.45 2970.34,1269.6 2968.36,1269.81C2970.2,1265.99 2973.66,1260.26 2978.26,1255.74C2983.07,1250.93 2986.53,1246.9 2986.53,1241.67C2986.53,1236.15 2982.86,1232.19 2977.13,1232.19C2971.83,1232.19 2968.22,1235.09 2966.17,1239.26C2965.96,1239.55 2965.89,1239.9 2965.89,1240.25C2965.89,1241.17 2967.09,1242.59 2967.72,1242.59C2968.29,1242.59 2968.71,1242.02 2969,1241.24C2970.13,1237.85 2972.96,1235.16 2977.06,1235.16C2981.02,1235.16 2983.28,1238.13 2983.28,1241.67C2983.28,1245.41 2980.59,1248.95 2976.28,1253.33C2971.9,1257.79 2967.94,1263.94 2965.96,1268.04C2965.67,1268.61 2965.32,1269.1 2964.9,1269.74C2964.76,1269.95 2964.68,1270.23 2964.68,1270.59C2964.68,1271.72 2965.53,1273.06 2966.45,1273.06L2966.66,1273.06Z" style="fill-rule:nonzero;"/>
        </g>
    </g>
</svg>
