<?xml version="1.0" encoding="UTF-8" standalone="no"?>
<!DOCTYPE svg PUBLIC "-//W3C//DTD SVG 1.1//EN" "http://www.w3.org/Graphics/SVG/1.1/DTD/svg11.dtd">
<svg width="100%" height="100%" viewBox="0 0 89 89" version="1.1" xmlns="http://www.w3.org/2000/svg" xmlns:xlink="http://www.w3.org/1999/xlink" xml:space="preserve" xmlns:serif="http://www.serif.com/" style="fill-rule:evenodd;clip-rule:evenodd;stroke-linejoin:round;stroke-miterlimit:2;">
    <g transform="matrix(1,0,0,1,-3293.3,-1881.51)">
        <g transform="matrix(1.41414,0,0,1.41429,-1389.33,-1046.26)">
            <path d="M3368.14,2132.51C3371.53,2132.51 3373.65,2129.96 3373.65,2126.99L3373.65,2075.66C3373.65,2072.19 3371.18,2070.14 3368.14,2070.14L3316.81,2070.14C3313.34,2070.14 3311.29,2072.48 3311.29,2075.66L3311.29,2126.99C3311.29,2130.17 3313.76,2132.51 3316.81,2132.51L3368.14,2132.51ZM3370.76,2127.27C3370.76,2128.83 3369.69,2129.61 3368.49,2129.61L3316.45,2129.61C3314.97,2129.61 3314.19,2128.55 3314.19,2127.27L3314.19,2075.3C3314.19,2073.89 3315.11,2073.04 3316.45,2073.04L3368.49,2073.04C3369.91,2073.04 3370.76,2074.1 3370.76,2075.3L3370.76,2127.27ZM3339.5,2115.11C3339.5,2117.16 3339.36,2120.06 3339.36,2121.05C3339.36,2121.97 3340.92,2122.68 3341.98,2122.68C3342.47,2122.68 3342.9,2122.47 3342.9,2122.11C3342.9,2120.7 3342.76,2118.22 3342.76,2115.75L3342.76,2096.02L3345.09,2095.88L3350.89,2095.88C3351.31,2095.88 3351.52,2095.6 3351.52,2095.17C3351.52,2094.32 3350.67,2092.98 3349.68,2092.98L3349.61,2092.98L3344.45,2093.33L3342.76,2093.41L3342.76,2086.62C3342.76,2084 3344.45,2082.73 3346.08,2082.73C3347.42,2082.73 3349.26,2083.22 3350.25,2084.99C3350.53,2085.49 3350.82,2085.63 3351.1,2085.63C3351.88,2085.63 3352.65,2084.21 3352.65,2083.15C3352.65,2082.8 3352.58,2082.52 3352.44,2082.3C3350.67,2080.25 3348.27,2079.62 3346.15,2079.62C3342.68,2079.62 3339.5,2082.09 3339.5,2086.69L3339.5,2093.48L3337.66,2093.55L3333.21,2093.55C3332.78,2093.55 3332.57,2093.83 3332.57,2094.18C3332.57,2095.03 3333.49,2096.38 3334.48,2096.38C3334.48,2096.38 3336.53,2096.23 3338.3,2096.16L3339.5,2096.09L3339.5,2115.11Z" style="fill-rule:nonzero;"/>
        </g>
    </g>
</svg>
