<?xml version="1.0" encoding="UTF-8" standalone="no"?>
<!DOCTYPE svg PUBLIC "-//W3C//DTD SVG 1.1//EN" "http://www.w3.org/Graphics/SVG/1.1/DTD/svg11.dtd">
<svg width="100%" height="100%" viewBox="0 0 89 89" version="1.1" xmlns="http://www.w3.org/2000/svg" xmlns:xlink="http://www.w3.org/1999/xlink" xml:space="preserve" xmlns:serif="http://www.serif.com/" style="fill-rule:evenodd;clip-rule:evenodd;stroke-linejoin:round;stroke-miterlimit:2;">
    <g transform="matrix(1,0,0,1,-3293.3,-231.509)">
        <g transform="matrix(1.41414,0,0,1.41429,-1389.33,-1046.26)">
            <path d="M3368.14,965.839C3371.53,965.839 3373.65,963.294 3373.65,960.324L3373.65,908.991C3373.65,905.526 3371.18,903.476 3368.14,903.476L3316.81,903.476C3313.34,903.476 3311.29,905.809 3311.29,908.991L3311.29,960.324C3311.29,963.506 3313.76,965.839 3316.81,965.839L3368.14,965.839ZM3370.76,960.607C3370.76,962.162 3369.69,962.94 3368.49,962.94L3316.45,962.94C3314.97,962.94 3314.19,961.88 3314.19,960.607L3314.19,908.637C3314.19,907.223 3315.11,906.375 3316.45,906.375L3368.49,906.375C3369.91,906.375 3370.76,907.435 3370.76,908.637L3370.76,960.607ZM3353.57,914.435C3352.44,914.647 3350.96,914.789 3349.33,914.859L3336.04,915.779C3335.19,915.354 3334.27,915.071 3333.56,915.071C3333.07,915.071 3332.71,915.284 3332.71,915.708C3332.71,916.415 3332.71,917.405 3332.57,918.183L3330.17,932.112C3329.89,933.031 3329.46,934.304 3329.46,934.657C3329.46,936.001 3330.95,937.203 3331.8,937.203C3332.01,937.203 3332.15,937.132 3332.29,936.991C3335.19,934.092 3337.03,932.465 3343.46,932.465C3349.61,932.465 3354.07,935.859 3354.07,941.869C3354.07,948.092 3349.97,952.476 3341.2,952.476C3336.46,952.476 3333.21,950.849 3330.31,946.748C3330.03,946.324 3329.67,946.183 3329.39,946.183C3328.47,946.183 3327.84,947.597 3327.84,948.799C3327.84,949.294 3327.98,949.789 3328.26,950.071C3332.22,954.031 3335.83,955.587 3341.2,955.587C3352.37,955.587 3357.46,949.577 3357.46,941.799C3357.46,933.738 3350.89,929.496 3343.96,929.496C3338.87,929.496 3335.97,930.344 3333.21,932.607L3335.68,918.819L3349.9,917.9C3351.81,917.758 3353.71,917.758 3354.85,917.758C3355.34,917.758 3355.55,917.405 3355.55,916.981C3355.55,915.991 3354.56,914.435 3353.71,914.435L3353.57,914.435Z" style="fill-rule:nonzero;"/>
        </g>
    </g>
</svg>
