<?xml version="1.0" encoding="UTF-8" standalone="no"?>
<!DOCTYPE svg PUBLIC "-//W3C//DTD SVG 1.1//EN" "http://www.w3.org/Graphics/SVG/1.1/DTD/svg11.dtd">
<svg width="100%" height="100%" viewBox="0 0 89 89" version="1.1" xmlns="http://www.w3.org/2000/svg" xmlns:xlink="http://www.w3.org/1999/xlink" xml:space="preserve" xmlns:serif="http://www.serif.com/" style="fill-rule:evenodd;clip-rule:evenodd;stroke-linejoin:round;stroke-miterlimit:2;">
    <g transform="matrix(1,0,0,1,-3193.31,-1281.51)">
        <g transform="matrix(1.41414,0,0,1.41429,-1389.33,-1046.26)">
            <path d="M3297.43,1708.26C3300.83,1708.26 3302.95,1705.72 3302.95,1702.75L3302.95,1651.41C3302.95,1647.95 3300.47,1645.9 3297.43,1645.9L3246.1,1645.9C3242.63,1645.9 3240.58,1648.23 3240.58,1651.41L3240.58,1702.75C3240.58,1705.93 3243.06,1708.26 3246.1,1708.26L3297.43,1708.26ZM3300.05,1703.03C3300.05,1704.59 3298.99,1705.36 3297.78,1705.36L3245.74,1705.36C3244.26,1705.36 3243.48,1704.3 3243.48,1703.03L3243.48,1651.06C3243.48,1649.65 3244.4,1648.8 3245.74,1648.8L3297.78,1648.8C3299.2,1648.8 3300.05,1649.86 3300.05,1651.06L3300.05,1703.03ZM3258.97,1658.27C3256.99,1661.67 3254.94,1665.91 3252.67,1671C3250.34,1676.3 3249.14,1681.11 3249.14,1685.92C3249.14,1692.57 3253.81,1698.01 3260.03,1698.01C3266.82,1698.01 3270.92,1692.07 3270.92,1684.36C3270.92,1677.43 3266.89,1672.34 3260.88,1672.34C3257.55,1672.34 3254.8,1674.04 3253.17,1676.8C3255.5,1671 3257.91,1665.2 3262.57,1658.84C3262.78,1658.56 3263.14,1658.06 3263.14,1657.64C3263.14,1656.72 3261.65,1656.36 3261.02,1656.36C3260.45,1656.36 3259.96,1656.58 3259.74,1657.07C3259.53,1657.35 3259.11,1658.13 3258.97,1658.27ZM3260.03,1695.11C3255.29,1695.11 3251.97,1691.08 3251.97,1685.85C3251.97,1680.19 3255.43,1675.24 3260.81,1675.24C3265.26,1675.24 3268.02,1679.63 3268.02,1684.51C3268.02,1690.73 3264.62,1695.11 3260.03,1695.11ZM3292.69,1687.9C3294.04,1687.9 3295.88,1688.04 3296.51,1688.04C3296.87,1688.04 3297.01,1687.69 3297.01,1687.26C3297.01,1686.27 3296.3,1684.65 3295.52,1684.65C3294.89,1684.65 3293.47,1684.93 3292.62,1685L3291.78,1685.07L3291.78,1673.26C3291.78,1671.85 3291.92,1669.09 3291.92,1668.17C3291.92,1667.18 3290.57,1666.55 3289.65,1666.55C3289.23,1666.55 3288.81,1666.76 3288.81,1667.11C3288.81,1668.45 3288.95,1672.13 3288.95,1673.26L3288.95,1685.21L3277.49,1685.5C3280.89,1678.71 3285.34,1669.52 3288.03,1663.22C3288.45,1662.3 3289.23,1660.96 3289.72,1660.04C3289.87,1659.9 3289.87,1659.69 3289.87,1659.48C3289.87,1658.27 3288.45,1656.58 3287.67,1656.58C3287.46,1656.58 3287.25,1656.65 3287.18,1656.93C3284.21,1666.05 3276.36,1681.54 3275.87,1682.45C3275.44,1683.23 3274.73,1684.08 3274.24,1685.07C3273.96,1685.42 3273.89,1685.85 3273.89,1686.2C3273.89,1687.55 3275.09,1688.82 3276.01,1688.82C3276.15,1688.82 3276.22,1688.75 3276.29,1688.75C3277.07,1688.54 3277.78,1688.39 3278.13,1688.39L3288.95,1688.04L3288.95,1691.15C3288.95,1692 3288.81,1695.25 3288.81,1696.17C3288.81,1697.16 3290.22,1697.8 3291.21,1697.8C3291.7,1697.8 3292.06,1697.59 3292.06,1697.23C3292.06,1695.89 3291.78,1693.63 3291.78,1691.29L3291.78,1687.9L3292.69,1687.9Z" style="fill-rule:nonzero;"/>
        </g>
    </g>
</svg>
