<?xml version="1.0" encoding="UTF-8" standalone="no"?>
<!DOCTYPE svg PUBLIC "-//W3C//DTD SVG 1.1//EN" "http://www.w3.org/Graphics/SVG/1.1/DTD/svg11.dtd">
<svg width="100%" height="100%" viewBox="0 0 89 89" version="1.1" xmlns="http://www.w3.org/2000/svg" xmlns:xlink="http://www.w3.org/1999/xlink" xml:space="preserve" xmlns:serif="http://www.serif.com/" style="fill-rule:evenodd;clip-rule:evenodd;stroke-linejoin:round;stroke-miterlimit:2;">
    <g transform="matrix(1,0,0,1,-3393.29,-1281.51)">
        <g transform="matrix(1.41414,0,0,1.41429,-1389.33,-1046.26)">
            <path d="M3438.85,1708.26C3442.24,1708.26 3444.36,1705.72 3444.36,1702.75L3444.36,1651.41C3444.36,1647.95 3441.89,1645.9 3438.85,1645.9L3387.51,1645.9C3384.05,1645.9 3382,1648.23 3382,1651.41L3382,1702.75C3382,1705.93 3384.47,1708.26 3387.51,1708.26L3438.85,1708.26ZM3441.46,1703.03C3441.46,1704.59 3440.4,1705.36 3439.2,1705.36L3387.16,1705.36C3385.67,1705.36 3384.9,1704.3 3384.9,1703.03L3384.9,1651.06C3384.9,1649.65 3385.82,1648.8 3387.16,1648.8L3439.2,1648.8C3440.61,1648.8 3441.46,1649.86 3441.46,1651.06L3441.46,1703.03ZM3425.69,1658.27C3423.71,1661.67 3421.59,1665.91 3419.33,1671C3417,1676.3 3415.87,1681.11 3415.87,1685.92C3415.87,1692.57 3420.46,1698.01 3426.76,1698.01C3433.47,1698.01 3437.57,1692.07 3437.57,1684.36C3437.57,1677.43 3433.54,1672.34 3427.6,1672.34C3424.21,1672.34 3421.52,1674.04 3419.83,1676.8C3423.15,1668.67 3426.19,1663.01 3429.23,1658.84C3429.44,1658.56 3429.8,1658.06 3429.8,1657.64C3429.8,1657.28 3429.65,1656.93 3428.88,1656.65C3428.59,1656.51 3428.1,1656.36 3427.67,1656.36C3427.18,1656.36 3426.68,1656.58 3426.4,1657.07C3426.26,1657.35 3425.84,1658.13 3425.69,1658.27ZM3400.66,1658.27C3398.68,1661.67 3396.56,1665.91 3394.3,1671C3391.97,1676.3 3390.84,1681.11 3390.84,1685.92C3390.84,1692.57 3395.43,1698.01 3401.65,1698.01C3408.44,1698.01 3412.54,1692.07 3412.54,1684.36C3412.54,1677.43 3408.51,1672.34 3402.5,1672.34C3399.18,1672.34 3396.49,1674.04 3394.8,1676.8C3398.12,1668.67 3401.16,1663.01 3404.2,1658.84C3404.41,1658.56 3404.76,1658.06 3404.76,1657.64C3404.76,1657.14 3403.85,1656.36 3402.64,1656.36C3402.08,1656.36 3401.65,1656.58 3401.37,1657.07C3401.23,1657.35 3400.81,1658.13 3400.66,1658.27ZM3401.65,1695.11C3396.99,1695.11 3393.66,1691.08 3393.66,1685.85C3393.66,1680.19 3397.06,1675.24 3402.5,1675.24C3406.96,1675.24 3409.64,1679.63 3409.64,1684.51C3409.64,1690.73 3406.25,1695.11 3401.65,1695.11ZM3426.76,1695.11C3422.02,1695.11 3418.69,1691.08 3418.69,1685.85C3418.69,1680.19 3422.16,1675.24 3427.53,1675.24C3431.99,1675.24 3434.67,1679.63 3434.67,1684.51C3434.67,1690.73 3431.35,1695.11 3426.76,1695.11Z" style="fill-rule:nonzero;"/>
        </g>
    </g>
</svg>
