<?xml version="1.0" encoding="UTF-8" standalone="no"?>
<!DOCTYPE svg PUBLIC "-//W3C//DTD SVG 1.1//EN" "http://www.w3.org/Graphics/SVG/1.1/DTD/svg11.dtd">
<svg width="100%" height="100%" viewBox="0 0 89 89" version="1.1" xmlns="http://www.w3.org/2000/svg" xmlns:xlink="http://www.w3.org/1999/xlink" xml:space="preserve" xmlns:serif="http://www.serif.com/" style="fill-rule:evenodd;clip-rule:evenodd;stroke-linejoin:round;stroke-miterlimit:2;">
    <g transform="matrix(1,0,0,1,-3493.28,-1731.51)">
        <g transform="matrix(1.41414,0,0,1.41429,-1389.33,-1046.26)">
            <path d="M3509.55,2026.44C3512.95,2026.44 3515.07,2023.9 3515.07,2020.93L3515.07,1969.6C3515.07,1966.13 3512.59,1964.08 3509.55,1964.08L3458.22,1964.08C3454.76,1964.08 3452.7,1966.41 3452.7,1969.6L3452.7,2020.93C3452.7,2024.11 3455.18,2026.44 3458.22,2026.44L3509.55,2026.44ZM3512.17,2021.21C3512.17,2022.77 3511.11,2023.55 3509.91,2023.55L3457.87,2023.55C3456.38,2023.55 3455.6,2022.49 3455.6,2021.21L3455.6,1969.24C3455.6,1967.83 3456.52,1966.98 3457.87,1966.98L3509.91,1966.98C3511.32,1966.98 3512.17,1968.04 3512.17,1969.24L3512.17,2021.21ZM3475.12,2015.91C3476.39,2015.84 3477.17,2015.49 3477.24,2014.71C3477.31,2014 3480,1991.44 3483.6,1978.36L3483.6,1978.15C3483.6,1977.3 3482.61,1976.24 3481.41,1976.24C3480.35,1976.24 3480.63,1978.01 3480.21,1979.57C3479.5,1977.94 3477.1,1974.62 3472.08,1974.62C3464.94,1974.62 3459.56,1982.25 3459.56,1989.96C3459.56,1996.47 3462.89,2000.21 3467.69,2000.21C3471.44,2000.21 3475.4,1997.6 3477.59,1993.57C3476.74,1998.73 3475.68,2004.74 3474.98,2009.19L3474.13,2013.58C3474.06,2014.07 3473.85,2014.57 3473.85,2014.99C3473.85,2015.56 3474.13,2015.91 3475.05,2015.91L3475.12,2015.91ZM3479.22,1984.87C3478.16,1988.76 3474.34,1997.1 3467.62,1997.1C3464.23,1997.1 3462.53,1994.63 3462.53,1989.75C3462.53,1984.52 3466.14,1977.59 3472.36,1977.59C3476.04,1977.59 3477.59,1980.34 3478.23,1981.9C3478.44,1982.39 3478.72,1982.61 3479.01,1982.61C3479.29,1982.61 3479.5,1982.39 3479.78,1982.11L3479.22,1984.87ZM3508.56,1977.59C3508.56,1976.6 3507.22,1975.32 3506.37,1975.18L3506.3,1975.18C3505.59,1975.18 3504.89,1975.54 3504.04,1975.61L3489.61,1976.67L3488.84,1976.67C3487.99,1976.67 3487.49,1976.6 3486.86,1976.6C3486.64,1976.6 3486.57,1976.74 3486.57,1976.95C3486.57,1977.44 3487.07,1978.51 3487.78,1979.28C3488.27,1979.71 3488.76,1979.85 3489.19,1979.85C3489.68,1979.85 3490.25,1979.78 3490.74,1979.71L3504.67,1978.43C3500.36,1988.62 3496.26,1999.58 3493.22,2009.12C3492.94,2010.11 3492.44,2011.67 3491.88,2013.29C3491.81,2013.65 3491.52,2014.14 3491.52,2014.64C3491.52,2015.13 3491.81,2015.63 3492.87,2015.77C3493.15,2015.77 3493.43,2015.84 3493.64,2015.84C3494.49,2015.84 3494.99,2015.63 3495.13,2014.99C3496.83,2006.86 3502.48,1991.3 3507.29,1980.49C3507.57,1979.78 3508.42,1978.72 3508.56,1977.8L3508.56,1977.59Z" style="fill-rule:nonzero;"/>
        </g>
    </g>
</svg>
