<?xml version="1.0" encoding="UTF-8" standalone="no"?>
<!DOCTYPE svg PUBLIC "-//W3C//DTD SVG 1.1//EN" "http://www.w3.org/Graphics/SVG/1.1/DTD/svg11.dtd">
<svg width="100%" height="100%" viewBox="0 0 89 89" version="1.1" xmlns="http://www.w3.org/2000/svg" xmlns:xlink="http://www.w3.org/1999/xlink" xml:space="preserve" xmlns:serif="http://www.serif.com/" style="fill-rule:evenodd;clip-rule:evenodd;stroke-linejoin:round;stroke-miterlimit:2;">
    <g transform="matrix(1,0,0,1,-3693.26,-981.509)">
        <g transform="matrix(1.41414,0,0,1.41429,-1389.33,-1046.26)">
            <path d="M3650.97,1496.14C3654.36,1496.14 3656.48,1493.6 3656.48,1490.63L3656.48,1439.29C3656.48,1435.83 3654.01,1433.78 3650.97,1433.78L3599.63,1433.78C3596.17,1433.78 3594.12,1436.11 3594.12,1439.29L3594.12,1490.63C3594.12,1493.81 3596.59,1496.14 3599.63,1496.14L3650.97,1496.14ZM3653.58,1490.91C3653.58,1492.46 3652.52,1493.24 3651.32,1493.24L3599.28,1493.24C3597.8,1493.24 3597.02,1492.18 3597.02,1490.91L3597.02,1438.94C3597.02,1437.53 3597.94,1436.68 3599.28,1436.68L3651.32,1436.68C3652.73,1436.68 3653.58,1437.74 3653.58,1438.94L3653.58,1490.91ZM3640.57,1485.61C3641.78,1485.54 3642.48,1485.18 3642.55,1484.4C3643.19,1477.05 3645.88,1460.86 3648,1450.18L3648.63,1448.06L3648.63,1447.85C3648.63,1447 3647.64,1445.94 3646.51,1445.94C3645.52,1445.94 3645.73,1447.71 3645.38,1449.26C3644.74,1447.64 3642.41,1444.31 3637.67,1444.31C3630.89,1444.31 3625.72,1451.95 3625.72,1459.66C3625.72,1466.16 3628.91,1469.91 3633.5,1469.91C3637.04,1469.91 3640.78,1467.29 3642.91,1463.26C3640.22,1479.74 3640.01,1480.66 3639.58,1483.27C3639.51,1483.77 3639.37,1484.26 3639.37,1484.69C3639.37,1485.25 3639.58,1485.61 3640.43,1485.61L3640.57,1485.61ZM3620.35,1475.78C3621.76,1475.78 3623.67,1475.92 3624.38,1475.92C3624.73,1475.92 3624.88,1475.57 3624.88,1475.14C3624.88,1474.15 3624.1,1472.53 3623.25,1472.53C3622.61,1472.53 3621.2,1472.81 3620.28,1472.88L3619.36,1472.95L3619.36,1461.14C3619.36,1459.73 3619.5,1456.97 3619.5,1456.05C3619.5,1455.06 3618.09,1454.42 3617.17,1454.42C3616.67,1454.42 3616.25,1454.64 3616.25,1454.99C3616.25,1456.33 3616.39,1460.01 3616.39,1461.14L3616.39,1473.09L3604.3,1473.38C3607.91,1466.59 3612.57,1457.39 3615.47,1451.1C3615.9,1450.18 3616.67,1448.84 3617.24,1447.92C3617.38,1447.78 3617.38,1447.57 3617.38,1447.35C3617.38,1446.15 3615.9,1444.45 3615.05,1444.45C3614.84,1444.45 3614.62,1444.53 3614.55,1444.81C3612.93,1449.33 3608.61,1459.09 3602.6,1470.33C3602.18,1471.11 3601.47,1471.96 3600.84,1472.95C3600.62,1473.3 3600.55,1473.73 3600.55,1474.08C3600.55,1475.42 3601.76,1476.7 3602.74,1476.7C3602.89,1476.7 3602.96,1476.63 3603.1,1476.63C3603.88,1476.41 3604.65,1476.27 3605.01,1476.27L3616.39,1475.92L3616.39,1479.03C3616.39,1479.88 3616.25,1483.13 3616.25,1484.05C3616.25,1485.04 3617.73,1485.68 3618.72,1485.68C3619.29,1485.68 3619.64,1485.46 3619.64,1485.11C3619.64,1483.77 3619.36,1481.51 3619.36,1479.17L3619.36,1475.78L3620.35,1475.78ZM3644.46,1454.57C3644.04,1455.84 3643.54,1457.54 3643.05,1458.6C3640.5,1463.55 3637.82,1466.8 3633.43,1466.8C3630.25,1466.8 3628.62,1464.32 3628.62,1459.44C3628.62,1454.21 3631.95,1447.28 3637.89,1447.28C3641.42,1447.28 3642.91,1450.04 3643.54,1451.6C3643.76,1452.09 3643.97,1452.3 3644.25,1452.3C3644.46,1452.3 3644.74,1452.09 3644.96,1451.81L3644.46,1454.57Z" style="fill-rule:nonzero;"/>
        </g>
    </g>
</svg>
