<?xml version="1.0" encoding="UTF-8" standalone="no"?>
<!DOCTYPE svg PUBLIC "-//W3C//DTD SVG 1.1//EN" "http://www.w3.org/Graphics/SVG/1.1/DTD/svg11.dtd">
<svg width="100%" height="100%" viewBox="0 0 89 89" version="1.1" xmlns="http://www.w3.org/2000/svg" xmlns:xlink="http://www.w3.org/1999/xlink" xml:space="preserve" xmlns:serif="http://www.serif.com/" style="fill-rule:evenodd;clip-rule:evenodd;stroke-linejoin:round;stroke-miterlimit:2;">
    <g transform="matrix(1,0,0,1,-3593.27,-2031.51)">
        <g transform="matrix(1.41414,0,0,1.41429,-1389.33,-1046.26)">
            <path d="M3580.26,2238.57C3583.65,2238.57 3585.78,2236.02 3585.78,2233.05L3585.78,2181.72C3585.78,2178.25 3583.3,2176.2 3580.26,2176.2L3528.93,2176.2C3525.46,2176.2 3523.41,2178.54 3523.41,2181.72L3523.41,2233.05C3523.41,2236.23 3525.89,2238.57 3528.93,2238.57L3580.26,2238.57ZM3582.88,2233.33C3582.88,2234.89 3581.82,2235.67 3580.61,2235.67L3528.57,2235.67C3527.09,2235.67 3526.31,2234.61 3526.31,2233.33L3526.31,2181.36C3526.31,2179.95 3527.23,2179.1 3528.57,2179.1L3580.61,2179.1C3582.03,2179.1 3582.88,2180.16 3582.88,2181.36L3582.88,2233.33ZM3550.92,2220.04C3550.92,2225.13 3552.05,2227.61 3556.15,2227.61C3560.18,2227.61 3564.35,2222.59 3564.35,2221.39C3564.35,2221.1 3564.21,2220.89 3563.86,2220.89C3563.5,2220.89 3563.01,2221.1 3562.37,2221.6C3560.25,2223.22 3558.13,2224.35 3556.43,2224.35C3554.59,2224.35 3554.1,2223.58 3554.1,2220.18L3554.1,2200.6L3556.57,2200.45C3558.13,2200.39 3560.89,2200.39 3561.73,2200.39C3562.16,2200.39 3562.37,2200.1 3562.37,2199.68C3562.37,2198.83 3561.59,2197.56 3560.6,2197.56L3560.53,2197.56C3559.68,2197.56 3557.35,2197.84 3555.94,2197.91L3554.1,2197.98L3554.1,2194.94C3554.1,2193.53 3554.24,2190.56 3554.24,2189.57C3554.24,2188.65 3552.68,2187.94 3551.69,2187.94C3551.13,2187.94 3550.78,2188.15 3550.78,2188.51C3550.78,2189.92 3550.92,2193.81 3550.92,2194.94L3550.92,2198.12L3545.54,2198.12C3545.12,2198.12 3544.91,2198.41 3544.91,2198.76C3544.91,2199.61 3545.76,2200.95 3546.74,2200.95L3546.82,2200.95C3547.95,2200.88 3549.78,2200.74 3550.92,2200.74L3550.92,2220.04Z" style="fill-rule:nonzero;"/>
        </g>
    </g>
</svg>
