<?xml version="1.0" encoding="UTF-8" standalone="no"?>
<!DOCTYPE svg PUBLIC "-//W3C//DTD SVG 1.1//EN" "http://www.w3.org/Graphics/SVG/1.1/DTD/svg11.dtd">
<svg width="100%" height="100%" viewBox="0 0 89 89" version="1.1" xmlns="http://www.w3.org/2000/svg" xmlns:xlink="http://www.w3.org/1999/xlink" xml:space="preserve" xmlns:serif="http://www.serif.com/" style="fill-rule:evenodd;clip-rule:evenodd;stroke-linejoin:round;stroke-miterlimit:2;">
    <g transform="matrix(1,0,0,1,-3593.27,-831.509)">
        <g transform="matrix(1.41414,0,0,1.41429,-1389.33,-1046.26)">
            <path d="M3580.26,1390.08C3583.65,1390.08 3585.78,1387.54 3585.78,1384.57L3585.78,1333.23C3585.78,1329.77 3583.3,1327.72 3580.26,1327.72L3528.93,1327.72C3525.46,1327.72 3523.41,1330.05 3523.41,1333.23L3523.41,1384.57C3523.41,1387.75 3525.89,1390.08 3528.93,1390.08L3580.26,1390.08ZM3582.88,1384.85C3582.88,1386.4 3581.82,1387.18 3580.61,1387.18L3528.57,1387.18C3527.09,1387.18 3526.31,1386.12 3526.31,1384.85L3526.31,1332.88C3526.31,1331.46 3527.23,1330.62 3528.57,1330.62L3580.61,1330.62C3582.03,1330.62 3582.88,1331.68 3582.88,1332.88L3582.88,1384.85ZM3568.38,1355.93C3570.78,1354.02 3577.29,1347.52 3577.29,1345.68C3577.29,1345.04 3576.94,1344.62 3576.44,1344.62C3576.09,1344.62 3575.66,1344.76 3575.24,1345.25L3575.03,1345.54C3575.24,1345.18 3575.31,1344.76 3575.31,1344.48C3575.31,1344.26 3575.24,1344.05 3575.24,1343.91C3573.33,1340.87 3570.64,1338.32 3566.83,1338.32C3560.89,1338.32 3557.42,1342.78 3557.42,1347.8C3557.42,1351.55 3558.69,1353.95 3563.15,1356.5C3558.62,1360.03 3555.94,1363.92 3555.94,1369.08C3555.94,1375.16 3559.68,1379.83 3565.98,1379.83C3572.91,1379.83 3577.5,1375.3 3577.5,1368.3C3577.5,1362.79 3574.82,1359.18 3569.02,1356.21L3568.38,1355.93ZM3543.42,1356.64C3547.59,1355.36 3550.78,1351.83 3550.78,1347.02C3550.78,1341.51 3547.24,1338.25 3542.01,1338.25C3537.91,1338.25 3534.72,1340.09 3532.18,1343.34C3531.9,1343.63 3531.76,1343.98 3531.76,1344.48C3531.76,1345.04 3531.9,1345.68 3532.53,1346.45C3532.74,1346.81 3532.96,1346.88 3533.17,1346.88C3533.66,1346.88 3534.02,1346.17 3534.23,1345.96C3536.63,1342.71 3539.11,1341.22 3542.08,1341.22C3545.76,1341.22 3547.95,1343.56 3547.95,1347.38C3547.95,1352.11 3542.71,1355.65 3537.06,1356.07C3536.7,1356.14 3536.49,1356.5 3536.49,1356.92C3536.49,1357.84 3537.2,1359.18 3538.05,1359.18C3538.12,1359.18 3538.19,1359.11 3538.33,1359.11C3538.9,1358.97 3539.96,1358.76 3540.88,1358.69C3541.3,1358.62 3541.65,1358.62 3542.01,1358.62C3546.32,1358.62 3549.36,1361.87 3549.36,1366.54C3549.36,1371.77 3546.82,1376.79 3540.17,1376.79C3536.78,1376.79 3534.72,1374.81 3532.6,1371.84C3532.46,1371.63 3532.32,1371.49 3532.18,1371.49C3531.4,1371.49 3530.76,1372.97 3530.76,1374.1C3530.76,1374.6 3530.84,1374.95 3531.05,1375.23C3533.66,1378.2 3536.56,1379.83 3540.17,1379.83C3548.8,1379.83 3552.26,1373.68 3552.26,1366.46C3552.26,1360.38 3548.44,1356.64 3544.06,1356.64L3543.42,1356.64ZM3565.84,1357.91C3571,1360.53 3574.67,1362.79 3574.67,1368.59C3574.67,1373.46 3571,1376.79 3565.98,1376.79C3560.96,1376.79 3558.76,1372.83 3558.76,1368.94C3558.76,1364.84 3561.38,1361.52 3565.84,1357.91ZM3574.25,1346.38C3571.85,1349.21 3569.02,1352.11 3565.76,1354.52C3561.52,1352.32 3560.25,1350.77 3560.25,1347.8C3560.25,1344.48 3562.44,1341.22 3566.9,1341.22C3569.72,1341.22 3571.42,1342.99 3572.84,1345.75C3573.12,1346.31 3573.47,1346.53 3573.76,1346.53C3573.97,1346.53 3574.11,1346.45 3574.25,1346.38Z" style="fill-rule:nonzero;"/>
        </g>
    </g>
</svg>
