<?xml version="1.0" encoding="UTF-8" standalone="no"?>
<!DOCTYPE svg PUBLIC "-//W3C//DTD SVG 1.1//EN" "http://www.w3.org/Graphics/SVG/1.1/DTD/svg11.dtd">
<svg width="100%" height="100%" viewBox="0 0 89 89" version="1.1" xmlns="http://www.w3.org/2000/svg" xmlns:xlink="http://www.w3.org/1999/xlink" xml:space="preserve" xmlns:serif="http://www.serif.com/" style="fill-rule:evenodd;clip-rule:evenodd;stroke-linejoin:round;stroke-miterlimit:2;">
    <g transform="matrix(1,0,0,1,-3393.29,-531.509)">
        <g transform="matrix(1.41414,0,0,1.41429,-1389.33,-1046.26)">
            <path d="M3438.85,1177.96C3442.24,1177.96 3444.36,1175.41 3444.36,1172.44L3444.36,1121.11C3444.36,1117.65 3441.89,1115.6 3438.85,1115.6L3387.51,1115.6C3384.05,1115.6 3382,1117.93 3382,1121.11L3382,1172.44C3382,1175.63 3384.47,1177.96 3387.51,1177.96L3438.85,1177.96ZM3441.46,1172.73C3441.46,1174.28 3440.4,1175.06 3439.2,1175.06L3387.16,1175.06C3385.67,1175.06 3384.9,1174 3384.9,1172.73L3384.9,1120.76C3384.9,1119.34 3385.82,1118.5 3387.16,1118.5L3439.2,1118.5C3440.61,1118.5 3441.46,1119.56 3441.46,1120.76L3441.46,1172.73ZM3414.95,1146.64C3417.21,1141.55 3419.83,1135.61 3425.34,1128.54C3425.48,1128.25 3425.91,1127.76 3425.91,1127.33C3425.91,1126.98 3425.69,1126.63 3424.92,1126.34C3424.63,1126.2 3424.07,1126.06 3423.64,1126.06C3423.08,1126.06 3422.58,1126.27 3422.3,1126.77C3422.09,1127.05 3421.66,1127.83 3421.52,1127.97C3416.93,1135.61 3410.49,1146.42 3410.49,1155.62C3410.49,1162.26 3414.95,1167.71 3422.3,1167.71C3430.22,1167.71 3434.11,1161.77 3434.11,1154.06C3434.11,1147.13 3429.72,1142.04 3423.22,1142.04C3419.68,1142.04 3416.86,1143.67 3414.95,1146.64ZM3422.3,1164.81C3416.78,1164.81 3413.53,1160.78 3413.53,1155.55C3413.53,1149.89 3417.28,1144.94 3423.15,1144.94C3427.96,1144.94 3431.07,1149.32 3431.07,1154.2C3431.07,1160.42 3427.74,1164.81 3422.3,1164.81ZM3398.26,1160.92C3398.26,1162.12 3398.12,1165.02 3398.12,1165.94C3398.12,1166.86 3399.53,1167.5 3400.52,1167.5C3401.02,1167.5 3401.37,1167.35 3401.37,1166.93C3401.3,1165.44 3401.23,1162.12 3401.23,1160.57L3401.23,1132.07C3401.23,1130.44 3401.58,1129.45 3401.58,1128.54C3401.58,1127.48 3400.45,1126.41 3399.67,1126.41C3398.9,1126.41 3397.84,1128.04 3397.41,1128.39C3395.86,1129.74 3393.38,1131.22 3390.84,1132.35C3390.48,1132.5 3390.34,1132.71 3390.34,1132.92C3390.34,1133.56 3391.47,1134.19 3392.39,1134.19C3392.6,1134.19 3392.74,1134.19 3392.89,1134.12C3394.65,1133.56 3396.78,1132.64 3398.26,1131.65L3398.26,1160.92Z" style="fill-rule:nonzero;"/>
        </g>
    </g>
</svg>
