<?xml version="1.0" encoding="UTF-8" standalone="no"?>
<!DOCTYPE svg PUBLIC "-//W3C//DTD SVG 1.1//EN" "http://www.w3.org/Graphics/SVG/1.1/DTD/svg11.dtd">
<svg width="100%" height="100%" viewBox="0 0 89 89" version="1.1" xmlns="http://www.w3.org/2000/svg" xmlns:xlink="http://www.w3.org/1999/xlink" xml:space="preserve" xmlns:serif="http://www.serif.com/" style="fill-rule:evenodd;clip-rule:evenodd;stroke-linejoin:round;stroke-miterlimit:2;">
    <g transform="matrix(1,0,0,1,-3093.32,-231.509)">
        <g transform="matrix(1.41414,0,0,1.41429,-1389.33,-1046.26)">
            <path d="M3226.72,965.839C3230.12,965.839 3232.24,963.294 3232.24,960.324L3232.24,908.991C3232.24,905.526 3229.76,903.476 3226.72,903.476L3175.39,903.476C3171.93,903.476 3169.88,905.809 3169.88,908.991L3169.88,960.324C3169.88,963.506 3172.35,965.839 3175.39,965.839L3226.72,965.839ZM3229.34,960.607C3229.34,962.162 3228.28,962.94 3227.08,962.94L3175.04,962.94C3173.55,962.94 3172.78,961.88 3172.78,960.607L3172.78,908.637C3172.78,907.223 3173.69,906.375 3175.04,906.375L3227.08,906.375C3228.49,906.375 3229.34,907.435 3229.34,908.637L3229.34,960.607ZM3204.31,932.324L3204.31,932.183C3209.9,931.122 3213.71,927.728 3213.71,922.779C3213.71,917.122 3209.47,914.011 3201.91,914.011C3193.85,914.011 3188.12,918.678 3188.12,920.375C3188.12,920.869 3188.33,921.506 3189.04,922.213C3189.32,922.496 3189.6,922.637 3189.89,922.637C3190.52,922.637 3191.02,921.93 3191.23,921.718C3194.62,918.324 3197.31,916.981 3202.05,916.981C3207.56,916.981 3210.39,919.102 3210.39,923.203C3210.39,929.071 3200.78,931.334 3195.26,931.97C3194.76,931.97 3194.55,932.324 3194.55,932.819C3194.55,933.738 3195.4,935.152 3196.6,935.152C3196.74,935.152 3196.89,935.152 3197.03,935.082C3197.24,935.011 3199.22,934.375 3202.26,934.375C3208.06,934.375 3212.37,937.344 3212.37,942.506C3212.37,948.092 3208.13,952.546 3199.15,952.546C3194.06,952.546 3190.59,950.566 3188.33,946.96C3188.12,946.607 3187.84,946.465 3187.62,946.465C3186.78,946.465 3185.86,948.092 3185.86,949.294C3185.86,949.647 3186,950.071 3186.21,950.284C3189.46,953.678 3193.07,955.587 3199.15,955.587C3210.89,955.587 3215.76,949.859 3215.76,942.435C3215.76,935.93 3210.6,932.324 3204.95,932.324L3204.31,932.324Z" style="fill-rule:nonzero;"/>
        </g>
    </g>
</svg>
