<?xml version="1.0" encoding="UTF-8" standalone="no"?>
<!DOCTYPE svg PUBLIC "-//W3C//DTD SVG 1.1//EN" "http://www.w3.org/Graphics/SVG/1.1/DTD/svg11.dtd">
<svg width="100%" height="100%" viewBox="0 0 89 89" version="1.1" xmlns="http://www.w3.org/2000/svg" xmlns:xlink="http://www.w3.org/1999/xlink" xml:space="preserve" xmlns:serif="http://www.serif.com/" style="fill-rule:evenodd;clip-rule:evenodd;stroke-linejoin:round;stroke-miterlimit:2;">
    <g transform="matrix(1,0,0,1,-2993.33,-831.509)">
        <g transform="matrix(1.41414,0,0,1.41429,-1389.33,-1046.26)">
            <path d="M3156.02,1390.08C3159.41,1390.08 3161.53,1387.54 3161.53,1384.57L3161.53,1333.23C3161.53,1329.77 3159.06,1327.72 3156.02,1327.72L3104.68,1327.72C3101.22,1327.72 3099.17,1330.05 3099.17,1333.23L3099.17,1384.57C3099.17,1387.75 3101.64,1390.08 3104.68,1390.08L3156.02,1390.08ZM3158.63,1384.85C3158.63,1386.4 3157.57,1387.18 3156.37,1387.18L3104.33,1387.18C3102.85,1387.18 3102.07,1386.12 3102.07,1384.85L3102.07,1332.88C3102.07,1331.46 3102.99,1330.62 3104.33,1330.62L3156.37,1330.62C3157.78,1330.62 3158.63,1331.68 3158.63,1332.88L3158.63,1384.85ZM3120.24,1356.64C3124.41,1355.36 3127.59,1351.83 3127.59,1347.02C3127.59,1341.51 3124.06,1338.25 3118.83,1338.25C3112.39,1338.25 3108.5,1343.34 3108.5,1344.48C3108.5,1345.68 3109.56,1346.88 3109.99,1346.88C3110.48,1346.88 3110.84,1346.17 3110.98,1345.96C3113.45,1342.71 3115.93,1341.22 3118.9,1341.22C3122.57,1341.22 3124.69,1343.56 3124.69,1347.38C3124.69,1351.62 3119.96,1355.58 3113.88,1356.07C3113.45,1356.14 3113.31,1356.5 3113.31,1356.92C3113.31,1357.84 3113.95,1359.18 3114.8,1359.18C3114.94,1359.18 3115.01,1359.11 3115.15,1359.11C3115.86,1358.9 3117.62,1358.62 3118.83,1358.62C3123.07,1358.62 3126.18,1361.87 3126.18,1366.54C3126.18,1371.77 3123.56,1376.79 3116.99,1376.79C3113.59,1376.79 3111.47,1374.81 3109.42,1371.84C3109.28,1371.63 3109.14,1371.49 3108.93,1371.49C3108.22,1371.49 3107.58,1372.97 3107.58,1374.1C3107.58,1374.6 3107.58,1374.95 3107.87,1375.23C3110.48,1378.2 3113.38,1379.83 3116.99,1379.83C3125.54,1379.83 3129.08,1373.68 3129.08,1366.46C3129.08,1360.38 3125.19,1356.64 3120.88,1356.64L3120.24,1356.64ZM3135.44,1375.87C3137.21,1372.05 3140.18,1366.32 3144.49,1361.8C3149.09,1356.99 3152.34,1352.96 3152.34,1347.73C3152.34,1342.21 3148.88,1338.25 3143.5,1338.25C3135.65,1338.25 3132.83,1345.32 3132.83,1346.31C3132.83,1347.8 3134.38,1348.65 3134.59,1348.65C3135.09,1348.65 3135.51,1348.08 3135.72,1347.3C3136.78,1343.91 3139.47,1341.22 3143.36,1341.22C3147.11,1341.22 3149.3,1344.19 3149.3,1347.73C3149.3,1351.48 3146.76,1355.01 3142.65,1359.39C3138.55,1363.85 3135.09,1370 3133.18,1374.1C3132.9,1374.67 3132.61,1375.16 3132.19,1375.8C3132.05,1376.01 3131.98,1376.29 3131.98,1376.65C3131.98,1377.78 3132.83,1379.12 3133.67,1379.12C3133.74,1379.12 3134.31,1380.18 3134.38,1380.18C3135.23,1379.97 3135.51,1378.77 3136.08,1378.7C3138.13,1378.49 3139.83,1378.41 3141.52,1378.41C3147.67,1378.41 3148.45,1378.49 3152.13,1378.84C3152.55,1378.84 3152.69,1378.56 3152.69,1378.06C3152.69,1377.07 3151.99,1375.52 3151.21,1375.52C3150.57,1375.52 3148.88,1375.59 3148.1,1375.59C3146.05,1375.59 3144.42,1375.52 3142.02,1375.52C3140.11,1375.52 3137.35,1375.66 3135.44,1375.87Z" style="fill-rule:nonzero;"/>
        </g>
    </g>
</svg>
