<?xml version="1.0" encoding="UTF-8" standalone="no"?>
<!DOCTYPE svg PUBLIC "-//W3C//DTD SVG 1.1//EN" "http://www.w3.org/Graphics/SVG/1.1/DTD/svg11.dtd">
<svg width="100%" height="100%" viewBox="0 0 89 89" version="1.1" xmlns="http://www.w3.org/2000/svg" xmlns:xlink="http://www.w3.org/1999/xlink" xml:space="preserve" xmlns:serif="http://www.serif.com/" style="fill-rule:evenodd;clip-rule:evenodd;stroke-linejoin:round;stroke-miterlimit:2;">
    <g transform="matrix(1,0,0,1,-2993.33,-1431.51)">
        <g transform="matrix(1.41414,0,0,1.41429,-1389.33,-1046.26)">
            <path d="M3156.02,1814.32C3159.41,1814.32 3161.53,1811.78 3161.53,1808.81L3161.53,1757.48C3161.53,1754.01 3159.06,1751.96 3156.02,1751.96L3104.68,1751.96C3101.22,1751.96 3099.17,1754.29 3099.17,1757.48L3099.17,1808.81C3099.17,1811.99 3101.64,1814.32 3104.68,1814.32L3156.02,1814.32ZM3158.63,1809.09C3158.63,1810.65 3157.57,1811.42 3156.37,1811.42L3104.33,1811.42C3102.85,1811.42 3102.07,1810.36 3102.07,1809.09L3102.07,1757.12C3102.07,1755.71 3102.99,1754.86 3104.33,1754.86L3156.37,1754.86C3157.78,1754.86 3158.63,1755.92 3158.63,1757.12L3158.63,1809.09ZM3133.96,1803.36C3136.01,1802.87 3138.76,1802.66 3141.59,1802.66C3147.89,1802.66 3151.35,1803.01 3152.27,1803.08C3152.62,1803.08 3152.84,1802.8 3152.84,1802.3C3152.84,1801.31 3152.06,1799.76 3151.28,1799.76C3150.64,1799.76 3149.02,1799.83 3148.17,1799.83C3146.12,1799.83 3144.56,1799.76 3142.16,1799.76C3140.18,1799.76 3137.42,1799.9 3135.58,1800.11C3137.28,1796.29 3140.25,1790.57 3144.63,1786.04C3149.23,1781.23 3152.48,1777.2 3152.48,1771.97C3152.48,1766.45 3149.02,1762.5 3143.57,1762.5C3135.72,1762.5 3132.9,1769.57 3132.9,1770.56C3132.9,1772.04 3134.45,1772.89 3134.66,1772.89C3135.16,1772.89 3135.58,1772.32 3135.8,1771.55C3136.93,1768.15 3139.54,1765.47 3143.43,1765.47C3147.25,1765.47 3149.37,1768.43 3149.37,1771.97C3149.37,1775.72 3146.83,1779.25 3142.8,1783.64C3138.62,1788.09 3135.16,1794.24 3133.25,1798.34C3132.97,1798.91 3132.68,1799.4 3132.26,1800.04C3132.12,1800.25 3132.05,1800.54 3132.05,1800.89C3132.05,1802.02 3132.9,1803.36 3133.74,1803.36L3133.96,1803.36ZM3128.72,1765.47C3128.72,1764.48 3127.45,1763.2 3126.67,1763.06L3126.53,1763.06C3125.9,1763.06 3125.19,1763.41 3124.41,1763.49L3110.69,1764.55L3110.06,1764.55C3109.21,1764.55 3108.71,1764.48 3108.08,1764.48C3107.94,1764.48 3107.87,1764.62 3107.87,1764.83C3107.87,1765.18 3108.57,1767.73 3110.34,1767.73C3110.76,1767.73 3111.33,1767.66 3111.83,1767.59L3125.05,1766.31C3118.76,1781.94 3115.15,1793.82 3112.89,1801.17C3112.82,1801.53 3112.6,1802.02 3112.6,1802.52C3112.6,1803.01 3112.82,1803.51 3113.88,1803.65C3114.09,1803.65 3114.37,1803.72 3114.58,1803.72C3115.36,1803.72 3115.86,1803.51 3115.93,1802.87C3117.48,1795.3 3122.71,1779.82 3127.52,1768.36C3127.81,1767.66 3128.58,1766.6 3128.72,1765.68L3128.72,1765.47Z" style="fill-rule:nonzero;"/>
        </g>
    </g>
</svg>
