<?xml version="1.0" encoding="UTF-8" standalone="no"?>
<!DOCTYPE svg PUBLIC "-//W3C//DTD SVG 1.1//EN" "http://www.w3.org/Graphics/SVG/1.1/DTD/svg11.dtd">
<svg width="100%" height="100%" viewBox="0 0 89 89" version="1.1" xmlns="http://www.w3.org/2000/svg" xmlns:xlink="http://www.w3.org/1999/xlink" xml:space="preserve" xmlns:serif="http://www.serif.com/" style="fill-rule:evenodd;clip-rule:evenodd;stroke-linejoin:round;stroke-miterlimit:2;">
    <g transform="matrix(1,0,0,1,-3193.31,-981.509)">
        <g transform="matrix(1.41414,0,0,1.41429,-1389.33,-1046.26)">
            <path d="M3297.43,1496.14C3300.83,1496.14 3302.95,1493.6 3302.95,1490.63L3302.95,1439.29C3302.95,1435.83 3300.47,1433.78 3297.43,1433.78L3246.1,1433.78C3242.63,1433.78 3240.58,1436.11 3240.58,1439.29L3240.58,1490.63C3240.58,1493.81 3243.06,1496.14 3246.1,1496.14L3297.43,1496.14ZM3300.05,1490.91C3300.05,1492.46 3298.99,1493.24 3297.78,1493.24L3245.74,1493.24C3244.26,1493.24 3243.48,1492.18 3243.48,1490.91L3243.48,1438.94C3243.48,1437.53 3244.4,1436.68 3245.74,1436.68L3297.78,1436.68C3299.2,1436.68 3300.05,1437.74 3300.05,1438.94L3300.05,1490.91ZM3266.46,1475.78C3267.81,1475.78 3269.64,1475.92 3270.28,1475.92C3270.63,1475.92 3270.78,1475.57 3270.78,1475.14C3270.78,1474.15 3270.07,1472.53 3269.29,1472.53C3268.65,1472.53 3267.24,1472.81 3266.39,1472.88L3265.61,1472.95L3265.61,1461.14C3265.61,1459.73 3265.68,1456.97 3265.68,1456.05C3265.68,1455.06 3264.34,1454.42 3263.49,1454.42C3263,1454.42 3262.64,1454.64 3262.64,1454.99C3262.64,1456.33 3262.71,1460.01 3262.71,1461.14L3262.71,1473.09L3251.26,1473.38C3254.72,1466.59 3259.11,1457.39 3261.8,1451.1C3262.22,1450.18 3263,1448.84 3263.49,1447.92C3263.63,1447.78 3263.63,1447.57 3263.63,1447.35C3263.63,1446.15 3262.22,1444.45 3261.44,1444.45C3261.23,1444.45 3261.02,1444.53 3261.02,1444.81C3258.12,1453.01 3252.67,1464.39 3249.63,1470.33C3249.21,1471.11 3248.5,1471.96 3248.01,1472.95C3247.72,1473.3 3247.65,1473.73 3247.65,1474.08C3247.65,1475.42 3248.86,1476.7 3249.78,1476.7C3249.92,1476.7 3249.99,1476.63 3250.13,1476.63C3250.84,1476.41 3251.54,1476.27 3251.9,1476.27L3262.71,1475.92L3262.71,1479.03C3262.71,1479.88 3262.64,1483.13 3262.64,1484.05C3262.64,1485.04 3263.99,1485.68 3264.98,1485.68C3265.47,1485.68 3265.83,1485.46 3265.83,1485.11C3265.83,1483.77 3265.61,1481.51 3265.61,1479.17L3265.61,1475.78L3266.46,1475.78ZM3291.99,1475.78C3293.33,1475.78 3295.1,1475.92 3295.81,1475.92C3296.16,1475.92 3296.3,1475.57 3296.3,1475.14C3296.3,1474.15 3295.52,1472.53 3294.74,1472.53C3294.18,1472.53 3292.76,1472.81 3291.92,1472.88L3291.07,1472.95L3291.07,1461.14C3291.07,1459.73 3291.21,1456.97 3291.21,1456.05C3291.21,1455.06 3289.87,1454.42 3288.95,1454.42C3288.45,1454.42 3288.1,1454.64 3288.1,1454.99C3288.1,1456.33 3288.24,1460.01 3288.24,1461.14L3288.24,1473.09L3276.71,1473.38C3280.18,1466.59 3284.56,1457.39 3287.32,1451.1C3287.74,1450.18 3288.45,1448.84 3289.02,1447.92C3289.16,1447.78 3289.16,1447.57 3289.16,1447.35C3289.16,1446.15 3287.74,1444.45 3286.97,1444.45C3286.68,1444.45 3286.54,1444.53 3286.47,1444.81C3285.34,1448.27 3282.02,1456.83 3275.09,1470.33C3274.73,1471.11 3274.03,1471.96 3273.46,1472.95C3273.25,1473.3 3273.18,1473.73 3273.18,1474.08C3273.18,1475.42 3274.31,1476.7 3275.3,1476.7C3275.44,1476.7 3275.44,1476.63 3275.58,1476.63C3276.29,1476.41 3277.07,1476.27 3277.42,1476.27L3288.24,1475.92L3288.24,1479.03C3288.24,1479.88 3288.1,1483.13 3288.1,1484.05C3288.1,1485.04 3289.51,1485.68 3290.43,1485.68C3290.93,1485.68 3291.28,1485.46 3291.28,1485.11C3291.28,1483.77 3291.07,1481.51 3291.07,1479.17L3291.07,1475.78L3291.99,1475.78Z" style="fill-rule:nonzero;"/>
        </g>
    </g>
</svg>
