<?xml version="1.0" encoding="UTF-8" standalone="no"?>
<!DOCTYPE svg PUBLIC "-//W3C//DTD SVG 1.1//EN" "http://www.w3.org/Graphics/SVG/1.1/DTD/svg11.dtd">
<svg width="100%" height="100%" viewBox="0 0 89 89" version="1.1" xmlns="http://www.w3.org/2000/svg" xmlns:xlink="http://www.w3.org/1999/xlink" xml:space="preserve" xmlns:serif="http://www.serif.com/" style="fill-rule:evenodd;clip-rule:evenodd;stroke-linejoin:round;stroke-miterlimit:2;">
    <g transform="matrix(1,0,0,1,-2893.34,-1881.51)">
        <g transform="matrix(1.41414,0,0,1.41429,-1389.33,-1046.26)">
            <path d="M3085.31,2132.51C3088.7,2132.51 3090.83,2129.96 3090.83,2126.99L3090.83,2075.66C3090.83,2072.19 3088.35,2070.14 3085.31,2070.14L3033.98,2070.14C3030.51,2070.14 3028.46,2072.48 3028.46,2075.66L3028.46,2126.99C3028.46,2130.17 3030.94,2132.51 3033.98,2132.51L3085.31,2132.51ZM3087.93,2127.27C3087.93,2128.83 3086.87,2129.61 3085.66,2129.61L3033.62,2129.61C3032.14,2129.61 3031.36,2128.55 3031.36,2127.27L3031.36,2075.3C3031.36,2073.89 3032.28,2073.04 3033.62,2073.04L3085.66,2073.04C3087.08,2073.04 3087.93,2074.1 3087.93,2075.3L3087.93,2127.27ZM3048.9,2115.54C3048.9,2117.66 3048.83,2120.06 3048.83,2120.98C3048.83,2121.83 3049.18,2122.11 3049.6,2122.11C3050.45,2122.11 3051.65,2121.05 3051.8,2120.34C3051.94,2119.5 3052.01,2118.79 3052.01,2118.22C3053.35,2121.12 3056.39,2122.82 3059.64,2122.82C3067.7,2122.82 3074.21,2115.25 3074.21,2105.21C3074.21,2097.08 3070.04,2092.84 3064.1,2092.84C3059.64,2092.84 3055.33,2094.89 3052.15,2100.48L3052.15,2086.33C3052.15,2084.21 3052.29,2081.95 3052.29,2080.96C3052.29,2080.04 3050.73,2079.33 3049.67,2079.33C3049.18,2079.33 3048.76,2079.55 3048.76,2079.9C3048.76,2081.24 3048.9,2083.79 3048.9,2086.26L3048.9,2115.54ZM3052.08,2116.03C3052.08,2113.49 3052.08,2108.82 3052.5,2106.7C3053.85,2100.26 3058.87,2095.81 3064.1,2095.81C3067.85,2095.81 3070.67,2098.92 3070.67,2105.28C3070.67,2114.76 3064.73,2119.92 3059.78,2119.92C3057.66,2119.92 3055.61,2118.93 3053.99,2116.67C3053.56,2116.03 3053.07,2115.75 3052.64,2115.75C3052.43,2115.75 3052.22,2115.82 3052.08,2116.03Z" style="fill-rule:nonzero;"/>
        </g>
    </g>
</svg>
