<?xml version="1.0" encoding="UTF-8" standalone="no"?>
<!DOCTYPE svg PUBLIC "-//W3C//DTD SVG 1.1//EN" "http://www.w3.org/Graphics/SVG/1.1/DTD/svg11.dtd">
<svg width="100%" height="100%" viewBox="0 0 89 89" version="1.1" xmlns="http://www.w3.org/2000/svg" xmlns:xlink="http://www.w3.org/1999/xlink" xml:space="preserve" xmlns:serif="http://www.serif.com/" style="fill-rule:evenodd;clip-rule:evenodd;stroke-linejoin:round;stroke-miterlimit:2;">
    <g transform="matrix(1,0,0,1,-2993.33,-531.509)">
        <g transform="matrix(1.41414,0,0,1.41429,-1389.33,-1046.26)">
            <path d="M3156.02,1177.96C3159.41,1177.96 3161.53,1175.41 3161.53,1172.44L3161.53,1121.11C3161.53,1117.65 3159.06,1115.6 3156.02,1115.6L3104.68,1115.6C3101.22,1115.6 3099.17,1117.93 3099.17,1121.11L3099.17,1172.44C3099.17,1175.63 3101.64,1177.96 3104.68,1177.96L3156.02,1177.96ZM3158.63,1172.73C3158.63,1174.28 3157.57,1175.06 3156.37,1175.06L3104.33,1175.06C3102.85,1175.06 3102.07,1174 3102.07,1172.73L3102.07,1120.76C3102.07,1119.34 3102.99,1118.5 3104.33,1118.5L3156.37,1118.5C3157.78,1118.5 3158.63,1119.56 3158.63,1120.76L3158.63,1172.73ZM3137.85,1163.39C3135.94,1163.39 3131.91,1163.39 3129.93,1163.68C3132.19,1159.22 3136.15,1154.34 3141.17,1149.54C3146.12,1144.87 3149.16,1140.41 3149.16,1135.54C3149.16,1129.95 3145.48,1126.13 3139.61,1126.13C3131.62,1126.13 3128.23,1132.71 3128.23,1134.19C3128.23,1134.9 3128.58,1135.61 3129.36,1136.38C3129.64,1136.6 3129.86,1136.67 3130,1136.67C3130.56,1136.67 3130.92,1136.03 3131.2,1135.32C3132.33,1132 3135.44,1129.24 3139.47,1129.24C3143.71,1129.24 3145.98,1132.07 3145.98,1135.54C3145.98,1139.28 3143.43,1143.1 3139.05,1147.27C3133.67,1152.36 3129.43,1158.09 3127.45,1161.91C3127.17,1162.48 3126.74,1162.83 3126.32,1163.61C3126.18,1163.82 3126.11,1164.1 3126.11,1164.38C3126.11,1165.59 3127.03,1167 3128.02,1167L3128.3,1167C3131.06,1166.43 3133.46,1166.36 3141.52,1166.36C3142.8,1166.36 3144.07,1166.36 3145.06,1166.43C3146.83,1166.51 3148.59,1166.79 3149.23,1166.79C3149.72,1166.79 3149.94,1166.43 3149.94,1165.94C3149.94,1164.95 3149.09,1163.39 3148.31,1163.39L3137.85,1163.39ZM3115.36,1160.92C3115.36,1162.12 3115.22,1165.02 3115.22,1165.94C3115.22,1166.86 3116.63,1167.5 3117.62,1167.5C3118.12,1167.5 3118.47,1167.35 3118.47,1166.93C3118.4,1165.44 3118.33,1162.12 3118.33,1160.57L3118.33,1132.07C3118.33,1130.44 3118.68,1129.45 3118.68,1128.54C3118.68,1127.48 3117.55,1126.41 3116.78,1126.41C3116,1126.41 3114.94,1128.04 3114.51,1128.39C3112.96,1129.74 3110.48,1131.22 3107.94,1132.35C3107.58,1132.5 3107.44,1132.71 3107.44,1132.92C3107.44,1133.56 3108.57,1134.19 3109.49,1134.19C3109.7,1134.19 3109.85,1134.19 3109.99,1134.12C3111.76,1133.56 3113.88,1132.64 3115.36,1131.65L3115.36,1160.92Z" style="fill-rule:nonzero;"/>
        </g>
    </g>
</svg>
