<?xml version="1.0" encoding="UTF-8" standalone="no"?>
<!DOCTYPE svg PUBLIC "-//W3C//DTD SVG 1.1//EN" "http://www.w3.org/Graphics/SVG/1.1/DTD/svg11.dtd">
<svg width="100%" height="100%" viewBox="0 0 89 89" version="1.1" xmlns="http://www.w3.org/2000/svg" xmlns:xlink="http://www.w3.org/1999/xlink" xml:space="preserve" xmlns:serif="http://www.serif.com/" style="fill-rule:evenodd;clip-rule:evenodd;stroke-linejoin:round;stroke-miterlimit:2;">
    <g transform="matrix(1,0,0,1,-2793.35,-831.509)">
        <g transform="matrix(1.41414,0,0,1.41429,-1389.33,-1046.26)">
            <path d="M3014.6,1390.08C3018,1390.08 3020.12,1387.54 3020.12,1384.57L3020.12,1333.23C3020.12,1329.77 3017.64,1327.72 3014.6,1327.72L2963.27,1327.72C2959.8,1327.72 2957.76,1330.05 2957.76,1333.23L2957.76,1384.57C2957.76,1387.75 2960.23,1390.08 2963.27,1390.08L3014.6,1390.08ZM3017.22,1384.85C3017.22,1386.4 3016.16,1387.18 3014.96,1387.18L2962.92,1387.18C2961.43,1387.18 2960.65,1386.12 2960.65,1384.85L2960.65,1332.88C2960.65,1331.46 2961.57,1330.62 2962.92,1330.62L3014.96,1330.62C3016.37,1330.62 3017.22,1331.68 3017.22,1332.88L3017.22,1384.85ZM2995.23,1341.72C2995.02,1341.29 2994.59,1341.29 2994.45,1341.29C2992.9,1341.29 2990,1350.7 2990,1359.61C2990,1371.27 2993.18,1379.83 2999.83,1379.83C3006.9,1379.83 3010.22,1369.86 3010.22,1358.12C3010.22,1346.6 3006.97,1338.18 3001.03,1338.18C2998.62,1338.18 2996.64,1339.6 2995.23,1341.72ZM2999.68,1376.79C2994.52,1376.79 2992.76,1368.87 2992.76,1359.54C2992.76,1347.23 2997.28,1341.08 3000.82,1341.08C3005.69,1341.08 3007.46,1349.78 3007.46,1357.7C3007.46,1367.38 3005.27,1376.79 2999.68,1376.79ZM2977.41,1356.64C2981.58,1355.36 2984.69,1351.83 2984.69,1347.02C2984.69,1341.51 2981.16,1338.25 2975.93,1338.25C2971.83,1338.25 2968.64,1340.09 2966.1,1343.34C2965.82,1343.63 2965.67,1343.98 2965.67,1344.48C2965.67,1345.04 2965.82,1345.68 2966.45,1346.45C2966.66,1346.81 2966.88,1346.88 2967.09,1346.88C2967.58,1346.88 2967.94,1346.17 2968.15,1345.96C2970.55,1342.71 2973.03,1341.22 2976,1341.22C2979.67,1341.22 2981.87,1343.56 2981.87,1347.38C2981.87,1352.11 2976.42,1355.65 2970.98,1356.07C2970.62,1356.14 2970.41,1356.5 2970.41,1356.92C2970.41,1357.84 2971.12,1359.18 2971.97,1359.18C2972.04,1359.18 2972.11,1359.11 2972.25,1359.11C2972.82,1358.97 2973.88,1358.76 2974.8,1358.69C2975.22,1358.62 2975.57,1358.62 2975.93,1358.62C2980.24,1358.62 2983.28,1361.87 2983.28,1366.54C2983.28,1371.77 2980.73,1376.79 2974.44,1376.79C2970.84,1376.79 2968.78,1374.81 2966.73,1371.84C2966.59,1371.63 2966.45,1371.49 2966.24,1371.49C2965.53,1371.49 2964.9,1372.97 2964.9,1374.1C2964.9,1374.6 2964.9,1374.95 2965.18,1375.23C2967.8,1378.2 2970.69,1379.83 2974.44,1379.83C2982.86,1379.83 2986.18,1373.68 2986.18,1366.46C2986.18,1360.38 2982.36,1356.64 2977.98,1356.64L2977.41,1356.64Z" style="fill-rule:nonzero;"/>
        </g>
    </g>
</svg>
