<?xml version="1.0" encoding="UTF-8" standalone="no"?>
<!DOCTYPE svg PUBLIC "-//W3C//DTD SVG 1.1//EN" "http://www.w3.org/Graphics/SVG/1.1/DTD/svg11.dtd">
<svg width="100%" height="100%" viewBox="0 0 89 89" version="1.1" xmlns="http://www.w3.org/2000/svg" xmlns:xlink="http://www.w3.org/1999/xlink" xml:space="preserve" xmlns:serif="http://www.serif.com/" style="fill-rule:evenodd;clip-rule:evenodd;stroke-linejoin:round;stroke-miterlimit:2;">
    <g transform="matrix(1,0,0,1,-3293.3,-1581.51)">
        <g transform="matrix(1.41414,0,0,1.41429,-1389.33,-1046.26)">
            <path d="M3368.14,1920.38C3371.53,1920.38 3373.65,1917.84 3373.65,1914.87L3373.65,1863.54C3373.65,1860.07 3371.18,1858.02 3368.14,1858.02L3316.81,1858.02C3313.34,1858.02 3311.29,1860.35 3311.29,1863.54L3311.29,1914.87C3311.29,1918.05 3313.76,1920.38 3316.81,1920.38L3368.14,1920.38ZM3370.76,1915.15C3370.76,1916.71 3369.69,1917.49 3368.49,1917.49L3316.45,1917.49C3314.97,1917.49 3314.19,1916.42 3314.19,1915.15L3314.19,1863.18C3314.19,1861.77 3315.11,1860.92 3316.45,1860.92L3368.49,1860.92C3369.91,1860.92 3370.76,1861.98 3370.76,1863.18L3370.76,1915.15ZM3332.71,1886.23C3337.52,1882.34 3341.62,1877.47 3341.62,1875.98C3341.62,1875.34 3341.27,1874.92 3340.78,1874.92C3340.42,1874.92 3340.07,1875.06 3339.64,1875.56L3339.36,1875.84C3339.57,1875.49 3339.71,1875.06 3339.71,1874.78C3339.71,1874.57 3339.64,1874.35 3339.57,1874.21C3337.66,1871.17 3334.98,1868.63 3331.16,1868.63C3325.22,1868.63 3321.83,1873.08 3321.83,1878.1C3321.83,1881.85 3323.1,1884.25 3327.55,1886.8C3323.03,1890.33 3320.27,1894.22 3320.27,1899.38C3320.27,1905.47 3324.02,1910.13 3330.31,1910.13C3337.24,1910.13 3341.84,1905.61 3341.84,1898.61C3341.84,1893.09 3339.15,1889.49 3333.35,1886.52L3332.71,1886.23ZM3363.47,1872.44C3363.83,1872.44 3363.97,1872.09 3363.97,1871.67C3363.97,1870.75 3363.26,1869.26 3362.62,1869.26L3362.48,1869.26C3361.63,1869.48 3360.22,1869.55 3359.37,1869.62L3350.18,1870.25C3349.47,1869.9 3348.76,1869.62 3348.27,1869.62C3347.85,1869.62 3347.63,1869.76 3347.63,1870.25C3347.63,1870.96 3347.56,1871.95 3347.49,1872.73L3346.29,1886.66C3346.22,1886.94 3345.8,1888.78 3345.8,1889.27C3345.8,1890.69 3347,1891.75 3347.78,1891.75C3348.27,1891.75 3349.47,1890.26 3349.54,1890.12C3351.17,1888.28 3353.29,1887.01 3355.84,1887.01C3360.22,1887.01 3363.12,1890.55 3363.12,1896.41C3363.12,1901.93 3360.57,1907.02 3354.14,1907.02C3350.53,1907.02 3348.2,1904.33 3346.43,1901.29C3346.36,1901.01 3346.15,1900.87 3346.01,1900.87C3345.3,1900.87 3344.52,1902.42 3344.52,1903.7C3344.52,1905.54 3349.19,1910.13 3354.14,1910.13C3362.55,1910.13 3365.95,1903.63 3365.95,1896.34C3365.95,1888.57 3361.49,1884.04 3356.33,1884.04C3353.08,1884.04 3350.82,1885.24 3348.84,1887.22L3350.11,1873.36L3359.72,1872.66L3363.47,1872.44ZM3330.17,1888.21C3333.78,1889.63 3339.01,1892.6 3339.01,1898.89C3339.01,1903.77 3335.33,1907.09 3330.31,1907.09C3325.29,1907.09 3323.1,1903.13 3323.1,1899.24C3323.1,1895.14 3325.71,1891.82 3330.17,1888.21ZM3330.17,1884.82C3325.93,1882.63 3324.65,1881.07 3324.65,1878.1C3324.65,1874.78 3326.85,1871.53 3331.23,1871.53C3334.06,1871.53 3335.76,1873.29 3337.24,1876.05C3337.52,1876.62 3337.81,1876.83 3338.09,1876.83C3338.23,1876.83 3338.44,1876.83 3338.51,1876.76C3336.11,1879.59 3333.42,1882.41 3330.17,1884.82Z" style="fill-rule:nonzero;"/>
        </g>
    </g>
</svg>
