<?xml version="1.0" encoding="UTF-8" standalone="no"?>
<!DOCTYPE svg PUBLIC "-//W3C//DTD SVG 1.1//EN" "http://www.w3.org/Graphics/SVG/1.1/DTD/svg11.dtd">
<svg width="100%" height="100%" viewBox="0 0 89 89" version="1.1" xmlns="http://www.w3.org/2000/svg" xmlns:xlink="http://www.w3.org/1999/xlink" xml:space="preserve" xmlns:serif="http://www.serif.com/" style="fill-rule:evenodd;clip-rule:evenodd;stroke-linejoin:round;stroke-miterlimit:2;">
    <g transform="matrix(1,0,0,1,-2793.35,-381.509)">
        <g transform="matrix(1.41414,0,0,1.41429,-1389.33,-1046.26)">
            <path d="M3014.6,1071.9C3018,1071.9 3020.12,1069.35 3020.12,1066.38L3020.12,1015.05C3020.12,1011.59 3017.64,1009.54 3014.6,1009.54L2963.27,1009.54C2959.8,1009.54 2957.76,1011.87 2957.76,1015.05L2957.76,1066.38C2957.76,1069.57 2960.23,1071.9 2963.27,1071.9L3014.6,1071.9ZM3017.22,1066.67C3017.22,1068.22 3016.16,1069 3014.96,1069L2962.92,1069C2961.43,1069 2960.65,1067.94 2960.65,1066.67L2960.65,1014.7C2960.65,1013.28 2961.57,1012.44 2962.92,1012.44L3014.96,1012.44C3016.37,1012.44 3017.22,1013.5 3017.22,1014.7L3017.22,1066.67ZM2995.44,1023.68C2995.3,1023.61 2995.09,1023.54 2994.95,1023.54C2993.39,1023.54 2990.49,1032.94 2990.49,1041.85C2990.49,1053.52 2993.67,1062.07 3000.32,1062.07C3007.32,1062.07 3010.71,1052.1 3010.71,1040.36C3010.71,1028.84 3007.46,1020.43 3001.45,1020.43C2999.12,1020.43 2997.14,1021.84 2995.65,1023.96L2995.44,1023.68ZM2972.11,1023.96C2971.97,1023.75 2971.76,1023.54 2971.4,1023.54C2970.13,1023.54 2967.02,1032.23 2967.02,1041.85C2967.02,1053.52 2970.13,1062.07 2976.7,1062.07C2983.49,1062.07 2986.82,1052.1 2986.82,1040.36C2986.82,1028.84 2983.63,1020.43 2977.76,1020.43C2975.5,1020.43 2973.52,1021.84 2972.11,1023.96ZM3000.11,1059.03C2995.02,1059.03 2993.25,1051.11 2993.25,1041.78C2993.25,1029.48 2997.78,1023.32 3001.31,1023.32C3006.19,1023.32 3007.96,1032.02 3007.96,1039.94C3007.96,1049.63 3005.76,1059.03 3000.11,1059.03ZM2976.49,1059.03C2971.4,1059.03 2969.7,1051.11 2969.7,1041.78C2969.7,1029.48 2974.23,1023.32 2977.62,1023.32C2982.43,1023.32 2984.13,1032.02 2984.13,1039.94C2984.13,1049.63 2982.01,1059.03 2976.49,1059.03Z" style="fill-rule:nonzero;"/>
        </g>
    </g>
</svg>
