<?xml version="1.0" encoding="UTF-8" standalone="no"?>
<!DOCTYPE svg PUBLIC "-//W3C//DTD SVG 1.1//EN" "http://www.w3.org/Graphics/SVG/1.1/DTD/svg11.dtd">
<svg width="100%" height="100%" viewBox="0 0 89 89" version="1.1" xmlns="http://www.w3.org/2000/svg" xmlns:xlink="http://www.w3.org/1999/xlink" xml:space="preserve" xmlns:serif="http://www.serif.com/" style="fill-rule:evenodd;clip-rule:evenodd;stroke-linejoin:round;stroke-miterlimit:2;">
    <g transform="matrix(1,0,0,1,-2793.35,-231.509)">
        <g transform="matrix(1.41414,0,0,1.41429,-1389.33,-1046.26)">
            <path d="M3014.6,965.839C3018,965.839 3020.12,963.294 3020.12,960.324L3020.12,908.991C3020.12,905.526 3017.64,903.476 3014.6,903.476L2963.27,903.476C2959.8,903.476 2957.76,905.809 2957.76,908.991L2957.76,960.324C2957.76,963.506 2960.23,965.839 2963.27,965.839L3014.6,965.839ZM3017.22,960.607C3017.22,962.162 3016.16,962.94 3014.96,962.94L2962.92,962.94C2961.43,962.94 2960.65,961.88 2960.65,960.607L2960.65,908.637C2960.65,907.223 2961.57,906.375 2962.92,906.375L3014.96,906.375C3016.37,906.375 3017.22,907.435 3017.22,908.637L3017.22,960.607ZM2982.22,917.617C2982.08,917.334 2981.65,916.981 2981.16,916.981C2979.53,916.981 2974.58,925.678 2974.58,935.364C2974.58,946.89 2978.33,955.587 2989.15,955.587C2999.05,955.587 3003.78,946.607 3003.78,934.375C3003.78,922.071 2999.26,913.94 2990,913.94C2986.39,913.94 2984.06,915.496 2982.22,917.617ZM2989.01,952.546C2980.52,952.546 2978.05,945.263 2978.05,935.223C2978.05,922.849 2984.98,916.981 2989.78,916.981C2997.42,916.981 3000.32,924.758 3000.32,934.021C3000.32,945.122 2996.71,952.546 2989.01,952.546Z" style="fill-rule:nonzero;"/>
        </g>
    </g>
</svg>
