<?xml version="1.0" encoding="UTF-8" standalone="no"?>
<!DOCTYPE svg PUBLIC "-//W3C//DTD SVG 1.1//EN" "http://www.w3.org/Graphics/SVG/1.1/DTD/svg11.dtd">
<svg width="100%" height="100%" viewBox="0 0 89 89" version="1.1" xmlns="http://www.w3.org/2000/svg" xmlns:xlink="http://www.w3.org/1999/xlink" xml:space="preserve" xmlns:serif="http://www.serif.com/" style="fill-rule:evenodd;clip-rule:evenodd;stroke-linejoin:round;stroke-miterlimit:2;">
    <g transform="matrix(1,0,0,1,-3393.29,-1581.51)">
        <g transform="matrix(1.41414,0,0,1.41429,-1389.33,-1046.26)">
            <path d="M3438.85,1920.38C3442.24,1920.38 3444.36,1917.84 3444.36,1914.87L3444.36,1863.54C3444.36,1860.07 3441.89,1858.02 3438.85,1858.02L3387.51,1858.02C3384.05,1858.02 3382,1860.35 3382,1863.54L3382,1914.87C3382,1918.05 3384.47,1920.38 3387.51,1920.38L3438.85,1920.38ZM3441.46,1915.15C3441.46,1916.71 3440.4,1917.49 3439.2,1917.49L3387.16,1917.49C3385.67,1917.49 3384.9,1916.42 3384.9,1915.15L3384.9,1863.18C3384.9,1861.77 3385.82,1860.92 3387.16,1860.92L3439.2,1860.92C3440.61,1860.92 3441.46,1861.98 3441.46,1863.18L3441.46,1915.15ZM3403.56,1886.23C3407.66,1882.91 3412.4,1877.75 3412.4,1875.98C3412.4,1875.34 3412.05,1874.92 3411.55,1874.92C3411.2,1874.92 3410.85,1875.06 3410.42,1875.56L3410.21,1875.84C3410.35,1875.49 3410.49,1875.06 3410.49,1874.78C3410.49,1874.21 3407.52,1868.63 3402.01,1868.63C3396.07,1868.63 3392.6,1873.08 3392.6,1878.1C3392.6,1881.85 3393.88,1884.25 3398.33,1886.8C3393.81,1890.33 3391.12,1894.22 3391.12,1899.38C3391.12,1905.47 3394.87,1910.13 3401.16,1910.13C3408.09,1910.13 3412.68,1905.61 3412.68,1898.61C3412.68,1893.09 3409.93,1889.49 3404.13,1886.52L3403.56,1886.23ZM3426.05,1870.39C3424.07,1873.79 3421.95,1878.03 3419.68,1883.12C3417.35,1888.42 3416.22,1893.23 3416.22,1898.04C3416.22,1904.69 3420.82,1910.13 3427.04,1910.13C3433.83,1910.13 3437.93,1904.19 3437.93,1896.49C3437.93,1889.56 3433.9,1884.47 3427.89,1884.47C3424.56,1884.47 3421.88,1886.16 3420.18,1888.92C3423.5,1880.79 3426.54,1875.13 3429.58,1870.96C3429.8,1870.68 3430.15,1870.18 3430.15,1869.76C3430.15,1869.26 3429.23,1868.49 3428.03,1868.49C3427.46,1868.49 3427.04,1868.7 3426.76,1869.19C3426.61,1869.48 3426.19,1870.25 3426.05,1870.39ZM3427.04,1907.23C3422.37,1907.23 3419.05,1903.2 3419.05,1897.97C3419.05,1892.31 3422.44,1887.36 3427.89,1887.36C3432.34,1887.36 3435.03,1891.75 3435.03,1896.63C3435.03,1902.85 3431.63,1907.23 3427.04,1907.23ZM3401.02,1888.21C3406.18,1890.83 3409.86,1893.09 3409.86,1898.89C3409.86,1903.77 3406.18,1907.09 3401.16,1907.09C3396.14,1907.09 3393.95,1903.13 3393.95,1899.24C3393.95,1895.14 3396.56,1891.82 3401.02,1888.21ZM3409.43,1876.69C3407.03,1879.52 3404.2,1882.41 3400.95,1884.82C3396.7,1882.63 3395.43,1881.07 3395.43,1878.1C3395.43,1874.78 3397.62,1871.53 3402.01,1871.53C3404.91,1871.53 3406.53,1873.29 3408.02,1876.05C3408.3,1876.62 3408.65,1876.83 3408.94,1876.83C3409.08,1876.83 3409.29,1876.76 3409.43,1876.69Z" style="fill-rule:nonzero;"/>
        </g>
    </g>
</svg>
