<?xml version="1.0" encoding="UTF-8" standalone="no"?>
<!DOCTYPE svg PUBLIC "-//W3C//DTD SVG 1.1//EN" "http://www.w3.org/Graphics/SVG/1.1/DTD/svg11.dtd">
<svg width="100%" height="100%" viewBox="0 0 89 89" version="1.1" xmlns="http://www.w3.org/2000/svg" xmlns:xlink="http://www.w3.org/1999/xlink" xml:space="preserve" xmlns:serif="http://www.serif.com/" style="fill-rule:evenodd;clip-rule:evenodd;stroke-linejoin:round;stroke-miterlimit:2;">
    <g transform="matrix(1,0,0,1,-2993.33,-1281.51)">
        <g transform="matrix(1.41414,0,0,1.41429,-1389.33,-1046.26)">
            <path d="M3156.02,1708.26C3159.41,1708.26 3161.53,1705.72 3161.53,1702.75L3161.53,1651.41C3161.53,1647.95 3159.06,1645.9 3156.02,1645.9L3104.68,1645.9C3101.22,1645.9 3099.17,1648.23 3099.17,1651.41L3099.17,1702.75C3099.17,1705.93 3101.64,1708.26 3104.68,1708.26L3156.02,1708.26ZM3158.63,1703.03C3158.63,1704.59 3157.57,1705.36 3156.37,1705.36L3104.33,1705.36C3102.85,1705.36 3102.07,1704.3 3102.07,1703.03L3102.07,1651.06C3102.07,1649.65 3102.99,1648.8 3104.33,1648.8L3156.37,1648.8C3157.78,1648.8 3158.63,1649.86 3158.63,1651.06L3158.63,1703.03ZM3118.05,1658.27C3116.07,1661.67 3113.95,1665.91 3111.68,1671C3109.35,1676.3 3108.22,1681.11 3108.22,1685.92C3108.22,1692.57 3112.89,1698.01 3119.11,1698.01C3125.83,1698.01 3130,1692.07 3130,1684.36C3130,1677.43 3125.9,1672.34 3119.96,1672.34C3116.63,1672.34 3113.88,1674.04 3112.18,1676.8C3114.65,1670.65 3117.91,1664 3121.65,1658.84C3121.8,1658.56 3122.15,1658.06 3122.15,1657.64C3122.15,1657.28 3122.01,1656.93 3121.23,1656.65C3120.95,1656.51 3120.45,1656.36 3120.03,1656.36C3119.53,1656.36 3119.04,1656.58 3118.76,1657.07C3118.61,1657.35 3118.19,1658.13 3118.05,1658.27ZM3119.11,1695.11C3114.37,1695.11 3111.05,1691.08 3111.05,1685.85C3111.05,1680.19 3114.51,1675.24 3119.89,1675.24C3124.34,1675.24 3127.1,1679.63 3127.1,1684.51C3127.1,1690.73 3123.7,1695.11 3119.11,1695.11ZM3134.24,1697.3C3135.8,1696.95 3138.34,1696.6 3141.88,1696.6C3148.03,1696.6 3148.81,1696.67 3152.48,1697.02C3152.91,1697.02 3153.05,1696.74 3153.05,1696.24C3153.05,1695.25 3152.27,1693.7 3151.56,1693.7C3150.93,1693.7 3149.23,1693.77 3148.45,1693.77C3146.4,1693.77 3144.78,1693.7 3142.37,1693.7C3140.46,1693.7 3137.63,1693.84 3135.8,1694.05C3137.56,1690.23 3140.53,1684.51 3144.85,1679.98C3149.44,1675.17 3152.69,1671.14 3152.69,1665.91C3152.69,1660.39 3149.23,1656.43 3143.86,1656.43C3138.84,1656.43 3135.37,1659.33 3133.39,1663.51C3133.18,1663.79 3133.18,1664.14 3133.18,1664.5C3133.18,1665.13 3133.46,1665.77 3134.24,1666.48C3134.45,1666.76 3134.66,1666.83 3134.95,1666.83C3135.44,1666.83 3135.8,1666.26 3136.08,1665.49C3137.14,1662.09 3139.83,1659.4 3143.71,1659.4C3147.46,1659.4 3149.65,1662.38 3149.65,1665.91C3149.65,1669.66 3147.11,1673.19 3143.01,1677.58C3138.91,1682.03 3135.44,1688.18 3133.53,1692.28C3133.25,1692.85 3132.97,1693.34 3132.54,1693.98C3132.4,1694.19 3132.33,1694.48 3132.33,1694.83C3132.33,1695.96 3133.18,1697.3 3134.03,1697.3L3134.24,1697.3Z" style="fill-rule:nonzero;"/>
        </g>
    </g>
</svg>
