<?xml version="1.0" encoding="UTF-8" standalone="no"?>
<!DOCTYPE svg PUBLIC "-//W3C//DTD SVG 1.1//EN" "http://www.w3.org/Graphics/SVG/1.1/DTD/svg11.dtd">
<svg width="100%" height="100%" viewBox="0 0 89 89" version="1.1" xmlns="http://www.w3.org/2000/svg" xmlns:xlink="http://www.w3.org/1999/xlink" xml:space="preserve" xmlns:serif="http://www.serif.com/" style="fill-rule:evenodd;clip-rule:evenodd;stroke-linejoin:round;stroke-miterlimit:2;">
    <g transform="matrix(1,0,0,1,-3393.29,-981.509)">
        <g transform="matrix(1.41414,0,0,1.41429,-1389.33,-1046.26)">
            <path d="M3438.85,1496.14C3442.24,1496.14 3444.36,1493.6 3444.36,1490.63L3444.36,1439.29C3444.36,1435.83 3441.89,1433.78 3438.85,1433.78L3387.51,1433.78C3384.05,1433.78 3382,1436.11 3382,1439.29L3382,1490.63C3382,1493.81 3384.47,1496.14 3387.51,1496.14L3438.85,1496.14ZM3441.46,1490.91C3441.46,1492.46 3440.4,1493.24 3439.2,1493.24L3387.16,1493.24C3385.67,1493.24 3384.9,1492.18 3384.9,1490.91L3384.9,1438.94C3384.9,1437.53 3385.82,1436.68 3387.16,1436.68L3439.2,1436.68C3440.61,1436.68 3441.46,1437.74 3441.46,1438.94L3441.46,1490.91ZM3424.92,1446.15C3422.94,1449.55 3420.89,1453.79 3418.62,1458.88C3416.29,1464.18 3415.09,1468.99 3415.09,1473.8C3415.09,1480.44 3419.76,1485.89 3425.98,1485.89C3432.76,1485.89 3436.87,1479.95 3436.87,1472.24C3436.87,1465.31 3432.76,1460.22 3426.83,1460.22C3423.5,1460.22 3420.74,1461.92 3419.05,1464.68C3421.52,1458.53 3424.78,1451.88 3428.52,1446.72C3428.73,1446.43 3429.02,1445.94 3429.02,1445.52C3429.02,1445.23 3428.66,1444.24 3426.97,1444.24C3426.4,1444.24 3425.91,1444.45 3425.69,1444.95C3425.48,1445.23 3425.06,1446.01 3424.92,1446.15ZM3425.98,1482.99C3421.24,1482.99 3417.92,1478.96 3417.92,1473.73C3417.92,1468.07 3421.38,1463.12 3426.76,1463.12C3431.21,1463.12 3433.97,1467.51 3433.97,1472.38C3433.97,1478.61 3430.57,1482.99 3425.98,1482.99ZM3407.81,1475.78C3409.15,1475.78 3410.99,1475.92 3411.62,1475.92C3411.98,1475.92 3412.12,1475.57 3412.12,1475.14C3412.12,1474.15 3411.41,1472.53 3410.56,1472.53C3410,1472.53 3408.58,1472.81 3407.73,1472.88L3406.89,1472.95L3406.89,1461.14C3406.89,1459.73 3407.03,1456.97 3407.03,1456.05C3407.03,1455.06 3405.68,1454.42 3404.76,1454.42C3404.34,1454.42 3403.92,1454.64 3403.92,1454.99C3403.92,1456.33 3404.06,1460.01 3404.06,1461.14L3404.06,1473.09L3392.6,1473.38C3396,1466.59 3400.45,1457.39 3403.14,1451.1C3403.56,1450.18 3404.34,1448.84 3404.84,1447.92C3404.98,1447.78 3404.98,1447.57 3404.98,1447.35C3404.98,1446.15 3403.56,1444.45 3402.78,1444.45C3402.57,1444.45 3402.36,1444.53 3402.29,1444.81C3400.03,1451.88 3393.31,1465.74 3390.98,1470.33C3390.55,1471.11 3389.85,1471.96 3389.35,1472.95C3389.07,1473.3 3389,1473.73 3389,1474.08C3389,1475.42 3390.2,1476.7 3391.12,1476.7C3391.26,1476.7 3391.33,1476.63 3391.4,1476.63C3392.18,1476.41 3392.89,1476.27 3393.24,1476.27L3404.06,1475.92L3404.06,1479.03C3404.06,1479.88 3403.92,1483.13 3403.92,1484.05C3403.92,1485.04 3405.33,1485.68 3406.32,1485.68C3406.82,1485.68 3407.17,1485.46 3407.17,1485.11C3407.17,1483.77 3406.89,1481.51 3406.89,1479.17L3406.89,1475.78L3407.81,1475.78Z" style="fill-rule:nonzero;"/>
        </g>
    </g>
</svg>
