<?xml version="1.0" encoding="UTF-8" standalone="no"?>
<!DOCTYPE svg PUBLIC "-//W3C//DTD SVG 1.1//EN" "http://www.w3.org/Graphics/SVG/1.1/DTD/svg11.dtd">
<svg width="100%" height="100%" viewBox="0 0 89 89" version="1.1" xmlns="http://www.w3.org/2000/svg" xmlns:xlink="http://www.w3.org/1999/xlink" xml:space="preserve" xmlns:serif="http://www.serif.com/" style="fill-rule:evenodd;clip-rule:evenodd;stroke-linejoin:round;stroke-miterlimit:2;">
    <g transform="matrix(1,0,0,1,-3193.31,-681.509)">
        <g transform="matrix(1.41414,0,0,1.41429,-1389.33,-1046.26)">
            <path d="M3297.43,1284.02C3300.83,1284.02 3302.95,1281.48 3302.95,1278.51L3302.95,1227.17C3302.95,1223.71 3300.47,1221.66 3297.43,1221.66L3246.1,1221.66C3242.63,1221.66 3240.58,1223.99 3240.58,1227.17L3240.58,1278.51C3240.58,1281.69 3243.06,1284.02 3246.1,1284.02L3297.43,1284.02ZM3300.05,1278.79C3300.05,1280.34 3298.99,1281.12 3297.78,1281.12L3245.74,1281.12C3244.26,1281.12 3243.48,1280.06 3243.48,1278.79L3243.48,1226.82C3243.48,1225.4 3244.4,1224.56 3245.74,1224.56L3297.78,1224.56C3299.2,1224.56 3300.05,1225.62 3300.05,1226.82L3300.05,1278.79ZM3292.2,1263.59C3293.61,1263.59 3295.52,1263.73 3296.16,1263.73C3296.51,1263.73 3296.65,1263.44 3296.65,1262.95C3296.65,1261.96 3295.88,1260.4 3295.03,1260.4C3294.39,1260.4 3292.27,1260.69 3291.42,1260.76L3290.22,1260.83L3290.22,1249.02C3290.22,1247.61 3290.29,1244.85 3290.29,1243.93C3290.29,1242.94 3288.95,1242.3 3287.96,1242.3C3287.46,1242.3 3287.04,1242.52 3287.04,1242.87C3287.04,1244.21 3287.18,1247.89 3287.18,1249.02L3287.18,1260.97L3275.37,1261.25C3279.05,1254.75 3283.78,1245.2 3286.76,1238.98C3287.25,1237.92 3287.74,1237.07 3288.52,1235.8C3288.59,1235.66 3288.66,1235.44 3288.66,1235.23C3288.66,1234.03 3287.18,1232.33 3286.33,1232.33C3286.12,1232.33 3285.98,1232.4 3285.84,1232.69C3284.63,1236.86 3277,1251.99 3273.67,1258.21C3273.25,1258.99 3272.54,1259.84 3271.91,1260.83C3271.69,1261.18 3271.62,1261.61 3271.62,1261.96C3271.62,1263.3 3272.83,1264.58 3273.89,1264.58C3273.96,1264.58 3274.03,1264.51 3274.17,1264.51C3274.95,1264.29 3275.72,1264.15 3276.08,1264.15L3287.18,1263.8L3287.18,1266.91C3287.18,1267.76 3287.04,1271.01 3287.04,1271.93C3287.04,1272.92 3288.52,1273.56 3289.58,1273.56C3290.08,1273.56 3290.43,1273.34 3290.43,1272.99C3290.43,1271.65 3290.22,1269.38 3290.22,1267.05L3290.22,1263.66L3291.49,1263.59L3292.2,1263.59ZM3251.05,1273.06C3253.45,1272.5 3256.56,1272.35 3259.11,1272.35C3262.5,1272.35 3266.32,1272.35 3270.35,1272.78C3270.85,1272.78 3271.06,1272.35 3271.06,1271.79C3271.06,1270.8 3270.42,1269.45 3269.71,1269.45C3269.01,1269.45 3266.96,1269.53 3266.04,1269.53C3263.92,1269.53 3262.22,1269.45 3259.67,1269.45C3257.69,1269.45 3254.72,1269.6 3252.74,1269.81C3254.58,1265.99 3257.76,1260.26 3262.29,1255.74C3267.17,1250.93 3270.56,1246.9 3270.56,1241.67C3270.56,1236.15 3266.96,1232.19 3261.23,1232.19C3255.93,1232.19 3252.32,1235.09 3250.2,1239.26C3249.99,1239.55 3249.92,1239.9 3249.92,1240.25C3249.92,1241.17 3251.12,1242.59 3251.83,1242.59C3252.39,1242.59 3252.74,1242.02 3253.03,1241.24C3254.16,1237.85 3256.99,1235.16 3261.09,1235.16C3265.05,1235.16 3267.31,1238.13 3267.31,1241.67C3267.31,1245.41 3264.62,1248.95 3260.38,1253.33C3256,1257.79 3252.32,1263.94 3250.34,1268.04C3250.06,1268.61 3249.7,1269.1 3249.28,1269.74C3249.14,1269.95 3249.07,1270.23 3249.07,1270.59C3249.07,1271.72 3249.92,1273.06 3250.91,1273.06L3251.05,1273.06Z" style="fill-rule:nonzero;"/>
        </g>
    </g>
</svg>
