<?xml version="1.0" encoding="UTF-8" standalone="no"?>
<!DOCTYPE svg PUBLIC "-//W3C//DTD SVG 1.1//EN" "http://www.w3.org/Graphics/SVG/1.1/DTD/svg11.dtd">
<svg width="100%" height="100%" viewBox="0 0 89 89" version="1.1" xmlns="http://www.w3.org/2000/svg" xmlns:xlink="http://www.w3.org/1999/xlink" xml:space="preserve" xmlns:serif="http://www.serif.com/" style="fill-rule:evenodd;clip-rule:evenodd;stroke-linejoin:round;stroke-miterlimit:2;">
    <g transform="matrix(1,0,0,1,-3493.28,-231.509)">
        <g transform="matrix(1.41414,0,0,1.41429,-1389.33,-1046.26)">
            <path d="M3509.55,965.839C3512.95,965.839 3515.07,963.294 3515.07,960.324L3515.07,908.991C3515.07,905.526 3512.59,903.476 3509.55,903.476L3458.22,903.476C3454.76,903.476 3452.7,905.809 3452.7,908.991L3452.7,960.324C3452.7,963.506 3455.18,965.839 3458.22,965.839L3509.55,965.839ZM3512.17,960.607C3512.17,962.162 3511.11,962.94 3509.91,962.94L3457.87,962.94C3456.38,962.94 3455.6,961.88 3455.6,960.607L3455.6,908.637C3455.6,907.223 3456.52,906.375 3457.87,906.375L3509.91,906.375C3511.32,906.375 3512.17,907.435 3512.17,908.637L3512.17,960.607ZM3497.82,915.071C3497.82,914.152 3496.4,912.809 3495.06,912.667L3494.85,912.667C3494.28,912.667 3494.07,912.95 3492.44,913.092L3473.28,914.364C3472.78,914.435 3472.29,914.435 3471.87,914.435C3471.02,914.435 3470.31,914.364 3469.67,914.364C3469.46,914.364 3469.32,914.506 3469.32,914.718C3469.32,915.284 3470.81,917.688 3472.5,917.688C3473.21,917.688 3473.85,917.476 3474.55,917.405L3493.64,915.849C3487.78,925.607 3483.18,935.718 3478.58,946.607C3478.23,947.385 3476.32,951.344 3476.32,952.122C3476.32,952.617 3476.67,953.112 3477.81,953.253C3478.16,953.253 3478.44,953.324 3478.72,953.324C3479.71,953.324 3480.35,953.112 3480.49,952.476C3483.53,940.667 3495.69,918.819 3496.19,917.9C3496.54,917.263 3497.6,916.203 3497.82,915.284L3497.82,915.071Z" style="fill-rule:nonzero;"/>
        </g>
    </g>
</svg>
