<?xml version="1.0" encoding="UTF-8" standalone="no"?>
<!DOCTYPE svg PUBLIC "-//W3C//DTD SVG 1.1//EN" "http://www.w3.org/Graphics/SVG/1.1/DTD/svg11.dtd">
<svg width="100%" height="100%" viewBox="0 0 89 89" version="1.1" xmlns="http://www.w3.org/2000/svg" xmlns:xlink="http://www.w3.org/1999/xlink" xml:space="preserve" xmlns:serif="http://www.serif.com/" style="fill-rule:evenodd;clip-rule:evenodd;stroke-linejoin:round;stroke-miterlimit:2;">
    <g transform="matrix(1,0,0,1,-3693.26,-1431.51)">
        <g transform="matrix(1.41414,0,0,1.41429,-1389.33,-1046.26)">
            <path d="M3650.97,1814.32C3654.36,1814.32 3656.48,1811.78 3656.48,1808.81L3656.48,1757.48C3656.48,1754.01 3654.01,1751.96 3650.97,1751.96L3599.63,1751.96C3596.17,1751.96 3594.12,1754.29 3594.12,1757.48L3594.12,1808.81C3594.12,1811.99 3596.59,1814.32 3599.63,1814.32L3650.97,1814.32ZM3653.58,1809.09C3653.58,1810.65 3652.52,1811.42 3651.32,1811.42L3599.28,1811.42C3597.8,1811.42 3597.02,1810.36 3597.02,1809.09L3597.02,1757.12C3597.02,1755.71 3597.94,1754.86 3599.28,1754.86L3651.32,1754.86C3652.73,1754.86 3653.58,1755.92 3653.58,1757.12L3653.58,1809.09ZM3640.43,1803.79C3641.7,1803.72 3642.48,1803.36 3642.55,1802.59C3642.62,1801.03 3645.38,1779.18 3648.92,1766.24L3648.92,1766.03C3648.92,1765.18 3647.86,1764.12 3646.72,1764.12C3645.66,1764.12 3645.88,1765.89 3645.52,1767.44C3644.82,1765.82 3642.41,1762.5 3637.32,1762.5C3630.18,1762.5 3624.81,1770.13 3624.81,1777.84C3624.81,1784.34 3628.13,1788.09 3632.94,1788.09C3636.68,1788.09 3640.64,1785.48 3642.91,1781.44C3641.99,1786.61 3640.93,1792.62 3640.22,1797.07C3640.08,1798.06 3639.72,1799.83 3639.37,1801.45C3639.3,1801.95 3639.16,1802.44 3639.16,1802.87C3639.16,1803.43 3639.37,1803.79 3640.29,1803.79L3640.43,1803.79ZM3644.53,1772.75C3644.11,1774.02 3643.61,1775.72 3643.05,1776.78C3640.36,1781.73 3637.46,1784.98 3632.87,1784.98C3629.47,1784.98 3627.78,1782.51 3627.78,1777.63C3627.78,1772.39 3631.38,1765.47 3637.6,1765.47C3641.28,1765.47 3642.84,1768.22 3643.54,1769.78C3643.76,1770.27 3643.97,1770.49 3644.32,1770.49C3644.53,1770.49 3644.82,1770.27 3645.1,1769.99C3644.89,1770.91 3644.67,1771.83 3644.53,1772.75ZM3622.97,1765.47C3622.97,1764.48 3621.62,1763.2 3620.78,1763.06L3620.7,1763.06C3620,1763.06 3619.29,1763.41 3618.44,1763.49L3604.02,1764.55L3603.31,1764.55C3602.39,1764.55 3601.9,1764.48 3601.26,1764.48C3601.05,1764.48 3600.98,1764.62 3600.98,1764.83C3600.98,1765.32 3601.47,1766.38 3602.18,1767.16C3602.67,1767.59 3603.17,1767.73 3603.59,1767.73C3604.09,1767.73 3604.65,1767.66 3605.15,1767.59L3619.08,1766.31C3614.76,1776.5 3610.66,1787.45 3607.62,1797C3607.34,1797.99 3606.85,1799.55 3606.28,1801.17C3606.21,1801.53 3606,1802.02 3606,1802.52C3606,1803.01 3606.21,1803.51 3607.34,1803.65C3607.55,1803.65 3607.84,1803.72 3608.05,1803.72C3608.9,1803.72 3609.39,1803.51 3609.53,1802.87C3611.65,1792.62 3619.93,1772.39 3621.69,1768.36C3621.98,1767.66 3622.83,1766.6 3622.97,1765.68L3622.97,1765.47Z" style="fill-rule:nonzero;"/>
        </g>
    </g>
</svg>
