<?xml version="1.0" encoding="UTF-8" standalone="no"?>
<!DOCTYPE svg PUBLIC "-//W3C//DTD SVG 1.1//EN" "http://www.w3.org/Graphics/SVG/1.1/DTD/svg11.dtd">
<svg width="100%" height="100%" viewBox="0 0 89 89" version="1.1" xmlns="http://www.w3.org/2000/svg" xmlns:xlink="http://www.w3.org/1999/xlink" xml:space="preserve" xmlns:serif="http://www.serif.com/" style="fill-rule:evenodd;clip-rule:evenodd;stroke-linejoin:round;stroke-miterlimit:2;">
    <g transform="matrix(1,0,0,1,-3493.28,-1881.51)">
        <g transform="matrix(1.41414,0,0,1.41429,-1389.33,-1046.26)">
            <path d="M3509.55,2132.51C3512.95,2132.51 3515.07,2129.96 3515.07,2126.99L3515.07,2075.66C3515.07,2072.19 3512.59,2070.14 3509.55,2070.14L3458.22,2070.14C3454.76,2070.14 3452.7,2072.48 3452.7,2075.66L3452.7,2126.99C3452.7,2130.17 3455.18,2132.51 3458.22,2132.51L3509.55,2132.51ZM3512.17,2127.27C3512.17,2128.83 3511.11,2129.61 3509.91,2129.61L3457.87,2129.61C3456.38,2129.61 3455.6,2128.55 3455.6,2127.27L3455.6,2075.3C3455.6,2073.89 3456.52,2073.04 3457.87,2073.04L3509.91,2073.04C3511.32,2073.04 3512.17,2074.1 3512.17,2075.3L3512.17,2127.27ZM3493.08,2121.05C3493.08,2121.97 3494.63,2122.68 3495.69,2122.68C3496.19,2122.68 3496.61,2122.47 3496.61,2122.11C3496.61,2120.7 3496.47,2116.45 3496.47,2115.75L3496.47,2104.22C3496.47,2099.34 3495.27,2092.98 3487.7,2092.98C3483.25,2092.98 3478.09,2095.67 3475.68,2100.55L3475.68,2087.18C3475.68,2085.77 3475.76,2082.16 3475.76,2081.24C3475.76,2080.25 3474.2,2079.62 3473.14,2079.62C3472.64,2079.62 3472.22,2079.76 3472.22,2080.18C3472.22,2081.53 3472.43,2085.41 3472.43,2086.55L3472.43,2115.11C3472.43,2115.96 3472.29,2120.06 3472.29,2120.98C3472.29,2121.97 3473.92,2122.68 3474.98,2122.68C3475.47,2122.68 3475.83,2122.47 3475.83,2122.11C3475.76,2120.63 3475.68,2118.86 3475.68,2117.02L3475.68,2115.75C3475.68,2112.92 3475.68,2107.83 3476.6,2104.79C3478.44,2098.71 3483.46,2096.16 3487.7,2096.16C3492.3,2096.16 3493.22,2099.7 3493.22,2104.43L3493.22,2115.11C3493.22,2116.53 3493.15,2120.06 3493.08,2120.98L3493.08,2121.05Z" style="fill-rule:nonzero;"/>
        </g>
    </g>
</svg>
