<?xml version="1.0" encoding="UTF-8" standalone="no"?>
<!DOCTYPE svg PUBLIC "-//W3C//DTD SVG 1.1//EN" "http://www.w3.org/Graphics/SVG/1.1/DTD/svg11.dtd">
<svg width="100%" height="100%" viewBox="0 0 89 89" version="1.1" xmlns="http://www.w3.org/2000/svg" xmlns:xlink="http://www.w3.org/1999/xlink" xml:space="preserve" xmlns:serif="http://www.serif.com/" style="fill-rule:evenodd;clip-rule:evenodd;stroke-linejoin:round;stroke-miterlimit:2;">
    <g transform="matrix(1,0,0,1,-3293.3,-1731.51)">
        <g transform="matrix(1.41414,0,0,1.41429,-1389.33,-1046.26)">
            <path d="M3368.14,2026.44C3371.53,2026.44 3373.65,2023.9 3373.65,2020.93L3373.65,1969.6C3373.65,1966.13 3371.18,1964.08 3368.14,1964.08L3316.81,1964.08C3313.34,1964.08 3311.29,1966.41 3311.29,1969.6L3311.29,2020.93C3311.29,2024.11 3313.76,2026.44 3316.81,2026.44L3368.14,2026.44ZM3370.76,2021.21C3370.76,2022.77 3369.69,2023.55 3368.49,2023.55L3316.45,2023.55C3314.97,2023.55 3314.19,2022.49 3314.19,2021.21L3314.19,1969.24C3314.19,1967.83 3315.11,1966.98 3316.45,1966.98L3368.49,1966.98C3369.91,1966.98 3370.76,1968.04 3370.76,1969.24L3370.76,2021.21ZM3333.42,2015.91C3334.62,2015.84 3335.33,2015.49 3335.4,2014.71C3336.04,2007.35 3338.72,1991.16 3340.85,1980.49L3341.48,1978.36L3341.48,1978.15C3341.48,1977.3 3340.49,1976.24 3339.43,1976.24C3338.37,1976.24 3338.58,1978.01 3338.23,1979.57C3337.59,1977.94 3335.26,1974.62 3330.52,1974.62C3323.73,1974.62 3318.57,1982.25 3318.57,1989.96C3318.57,1996.47 3321.76,2000.21 3326.35,2000.21C3329.89,2000.21 3333.63,1997.6 3335.76,1993.57C3333.07,2010.04 3332.86,2010.96 3332.43,2013.58C3332.36,2014.07 3332.22,2014.57 3332.22,2014.99C3332.22,2015.56 3332.43,2015.91 3333.28,2015.91L3333.42,2015.91ZM3349.12,1996.18C3350.74,1994.34 3352.87,1993.07 3355.41,1993.07C3359.8,1993.07 3362.62,1996.61 3362.62,2002.48C3362.62,2007.99 3360.08,2013.08 3353.71,2013.08C3350.11,2013.08 3347.78,2010.39 3346.01,2007.35C3345.94,2007.07 3345.72,2006.93 3345.51,2006.93C3344.88,2006.93 3344.1,2008.49 3344.1,2009.76C3344.1,2011.6 3348.69,2016.19 3353.71,2016.19C3362.13,2016.19 3365.52,2009.69 3365.52,2002.4C3365.52,1994.63 3361.07,1990.1 3355.91,1990.1C3352.58,1990.1 3350.39,1991.3 3348.41,1993.28L3349.68,1979.42L3359.3,1978.72L3363.05,1978.51C3363.4,1978.51 3363.54,1978.15 3363.54,1977.73C3363.54,1976.81 3362.84,1975.32 3362.2,1975.32L3362.06,1975.32C3361.21,1975.54 3359.8,1975.61 3358.88,1975.68L3349.68,1976.31C3349.05,1975.96 3348.34,1975.68 3347.85,1975.68C3347.42,1975.68 3347.21,1975.82 3347.21,1976.31C3347.21,1977.02 3347.14,1978.01 3347.07,1978.79L3345.87,1992.72L3345.44,1994.7C3345.37,1994.91 3345.37,1995.12 3345.37,1995.33C3345.37,1996.75 3346.57,1997.81 3347.35,1997.81C3347.56,1997.81 3347.63,1997.81 3347.78,1997.67L3349.12,1996.18ZM3337.31,1984.87C3336.89,1986.14 3336.39,1987.84 3335.9,1988.9C3333.35,1993.85 3330.66,1997.1 3326.28,1997.1C3323.1,1997.1 3321.47,1994.63 3321.47,1989.75C3321.47,1984.52 3324.8,1977.59 3330.73,1977.59C3334.27,1977.59 3335.76,1980.34 3336.39,1981.9C3336.6,1982.39 3336.82,1982.61 3337.1,1982.61C3337.31,1982.61 3337.59,1982.39 3337.81,1982.11L3337.31,1984.87Z" style="fill-rule:nonzero;"/>
        </g>
    </g>
</svg>
