<?xml version="1.0" encoding="UTF-8" standalone="no"?>
<!DOCTYPE svg PUBLIC "-//W3C//DTD SVG 1.1//EN" "http://www.w3.org/Graphics/SVG/1.1/DTD/svg11.dtd">
<svg width="100%" height="100%" viewBox="0 0 89 89" version="1.1" xmlns="http://www.w3.org/2000/svg" xmlns:xlink="http://www.w3.org/1999/xlink" xml:space="preserve" xmlns:serif="http://www.serif.com/" style="fill-rule:evenodd;clip-rule:evenodd;stroke-linejoin:round;stroke-miterlimit:2;">
    <g transform="matrix(1,0,0,1,-3693.26,-231.509)">
        <g transform="matrix(1.41414,0,0,1.41429,-1389.33,-1046.26)">
            <path d="M3650.97,965.839C3654.36,965.839 3656.48,963.294 3656.48,960.324L3656.48,908.991C3656.48,905.526 3654.01,903.476 3650.97,903.476L3599.63,903.476C3596.17,903.476 3594.12,905.809 3594.12,908.991L3594.12,960.324C3594.12,963.506 3596.59,965.839 3599.63,965.839L3650.97,965.839ZM3653.58,960.607C3653.58,962.162 3652.52,962.94 3651.32,962.94L3599.28,962.94C3597.8,962.94 3597.02,961.88 3597.02,960.607L3597.02,908.637C3597.02,907.223 3597.94,906.375 3599.28,906.375L3651.32,906.375C3652.73,906.375 3653.58,907.435 3653.58,908.637L3653.58,960.607ZM3629.97,955.304C3631.38,955.233 3632.09,954.88 3632.16,954.102C3632.58,950.708 3636.76,924.829 3639.3,917.758L3639.3,917.546C3639.3,916.698 3637.82,915.779 3636.9,915.637L3636.76,915.637C3635.69,915.637 3635.98,917.334 3635.62,918.96C3634.78,917.334 3631.1,914.011 3624.88,914.011C3616.18,914.011 3609.32,921.647 3609.32,929.354C3609.32,935.859 3614.27,939.607 3620,939.607C3624.59,939.607 3630.04,937.061 3632.65,932.96C3631.88,937.203 3630.04,947.102 3628.76,952.97C3628.69,953.465 3628.55,953.96 3628.55,954.314C3628.55,954.88 3628.84,955.304 3629.83,955.304L3629.97,955.304ZM3634.49,924.263C3631.95,931.97 3626.29,936.496 3620,936.496C3615.76,936.496 3612.57,934.021 3612.57,929.142C3612.57,923.91 3617.59,916.981 3625.16,916.981C3629.61,916.981 3632.65,919.738 3633.36,921.294C3633.64,921.789 3633.93,922.001 3634.21,922.001C3634.49,922.001 3634.78,921.789 3635.06,921.506L3634.49,924.263Z" style="fill-rule:nonzero;"/>
        </g>
    </g>
</svg>
