<?xml version="1.0" encoding="UTF-8" standalone="no"?>
<!DOCTYPE svg PUBLIC "-//W3C//DTD SVG 1.1//EN" "http://www.w3.org/Graphics/SVG/1.1/DTD/svg11.dtd">
<svg width="100%" height="100%" viewBox="0 0 89 89" version="1.1" xmlns="http://www.w3.org/2000/svg" xmlns:xlink="http://www.w3.org/1999/xlink" xml:space="preserve" xmlns:serif="http://www.serif.com/" style="fill-rule:evenodd;clip-rule:evenodd;stroke-linejoin:round;stroke-miterlimit:2;">
    <g transform="matrix(1,0,0,1,-3493.28,-1281.51)">
        <g transform="matrix(1.41414,0,0,1.41429,-1389.33,-1046.26)">
            <path d="M3509.55,1708.26C3512.95,1708.26 3515.07,1705.72 3515.07,1702.75L3515.07,1651.41C3515.07,1647.95 3512.59,1645.9 3509.55,1645.9L3458.22,1645.9C3454.76,1645.9 3452.7,1648.23 3452.7,1651.41L3452.7,1702.75C3452.7,1705.93 3455.18,1708.26 3458.22,1708.26L3509.55,1708.26ZM3512.17,1703.03C3512.17,1704.59 3511.11,1705.36 3509.91,1705.36L3457.87,1705.36C3456.38,1705.36 3455.6,1704.3 3455.6,1703.03L3455.6,1651.06C3455.6,1649.65 3456.52,1648.8 3457.87,1648.8L3509.91,1648.8C3511.32,1648.8 3512.17,1649.86 3512.17,1651.06L3512.17,1703.03ZM3471.72,1658.27C3469.74,1661.67 3467.69,1665.91 3465.43,1671C3463.1,1676.3 3461.9,1681.11 3461.9,1685.92C3461.9,1692.57 3466.56,1698.01 3472.78,1698.01C3479.57,1698.01 3483.67,1692.07 3483.67,1684.36C3483.67,1677.43 3479.64,1672.34 3473.63,1672.34C3470.31,1672.34 3467.55,1674.04 3465.93,1676.8C3468.26,1671 3470.66,1665.2 3475.33,1658.84C3475.54,1658.56 3475.9,1658.06 3475.9,1657.64C3475.9,1656.72 3474.41,1656.36 3473.78,1656.36C3473.21,1656.36 3472.71,1656.58 3472.5,1657.07C3472.29,1657.35 3471.87,1658.13 3471.72,1658.27ZM3472.78,1695.11C3468.05,1695.11 3464.72,1691.08 3464.72,1685.85C3464.72,1680.19 3468.19,1675.24 3473.56,1675.24C3478.02,1675.24 3480.78,1679.63 3480.78,1684.51C3480.78,1690.73 3477.38,1695.11 3472.78,1695.11ZM3507.15,1659.4C3507.15,1658.41 3505.81,1657.14 3504.96,1657L3504.89,1657C3504.18,1657 3503.47,1657.35 3502.62,1657.42L3488.2,1658.49L3487.42,1658.49C3486.57,1658.49 3486.08,1658.41 3485.44,1658.41C3485.23,1658.41 3485.16,1658.56 3485.16,1658.77C3485.16,1659.26 3485.65,1660.32 3486.36,1661.1C3486.86,1661.53 3487.35,1661.67 3487.78,1661.67C3488.27,1661.67 3488.84,1661.6 3489.33,1661.53L3503.26,1660.25C3498.95,1670.43 3494.85,1681.39 3491.81,1690.94C3491.52,1691.93 3491.03,1693.49 3490.46,1695.11C3490.39,1695.47 3490.11,1695.96 3490.11,1696.45C3490.11,1696.95 3490.39,1697.44 3491.45,1697.59C3491.73,1697.59 3492.02,1697.66 3492.23,1697.66C3493.08,1697.66 3493.57,1697.44 3493.71,1696.81C3495.41,1688.68 3501.07,1673.12 3505.88,1662.3C3506.16,1661.6 3507.01,1660.54 3507.15,1659.62L3507.15,1659.4Z" style="fill-rule:nonzero;"/>
        </g>
    </g>
</svg>
