<?xml version="1.0" encoding="UTF-8" standalone="no"?>
<!DOCTYPE svg PUBLIC "-//W3C//DTD SVG 1.1//EN" "http://www.w3.org/Graphics/SVG/1.1/DTD/svg11.dtd">
<svg width="100%" height="100%" viewBox="0 0 89 89" version="1.1" xmlns="http://www.w3.org/2000/svg" xmlns:xlink="http://www.w3.org/1999/xlink" xml:space="preserve" xmlns:serif="http://www.serif.com/" style="fill-rule:evenodd;clip-rule:evenodd;stroke-linejoin:round;stroke-miterlimit:2;">
    <g transform="matrix(1,0,0,1,-3193.31,-1881.51)">
        <g transform="matrix(1.41414,0,0,1.41429,-1389.33,-1046.26)">
            <path d="M3297.43,2132.51C3300.83,2132.51 3302.95,2129.96 3302.95,2126.99L3302.95,2075.66C3302.95,2072.19 3300.47,2070.14 3297.43,2070.14L3246.1,2070.14C3242.63,2070.14 3240.58,2072.48 3240.58,2075.66L3240.58,2126.99C3240.58,2130.17 3243.06,2132.51 3246.1,2132.51L3297.43,2132.51ZM3300.05,2127.27C3300.05,2128.83 3298.99,2129.61 3297.78,2129.61L3245.74,2129.61C3244.26,2129.61 3243.48,2128.55 3243.48,2127.27L3243.48,2075.3C3243.48,2073.89 3244.4,2073.04 3245.74,2073.04L3297.78,2073.04C3299.2,2073.04 3300.05,2074.1 3300.05,2075.3L3300.05,2127.27ZM3263.42,2103.59C3270,2103.59 3275.3,2102.74 3278.84,2101.68C3283.64,2100.19 3284.56,2098.71 3284.56,2095.24C3284.56,2091 3282.02,2086.62 3274.73,2086.62C3266.89,2086.62 3260.81,2094.75 3259.82,2100.48C3259.82,2100.48 3259.25,2100.55 3259.18,2100.55C3258.4,2100.55 3258.12,2100.83 3258.12,2101.25C3258.12,2101.82 3258.68,2102.53 3259.39,2103.02L3259.39,2103.87C3259.39,2111.79 3264.06,2116.6 3270.21,2116.6C3275.65,2116.6 3280.96,2114.41 3284.28,2109.31C3284.56,2108.82 3284.7,2108.39 3284.7,2108.04C3284.7,2107.69 3284.49,2107.41 3284.21,2107.41C3283.86,2107.41 3283.43,2107.69 3282.94,2108.18C3279.68,2111.72 3275.37,2113.63 3270.21,2113.63C3266.11,2113.63 3262.64,2110.3 3262.64,2103.8L3262.64,2103.59L3263.42,2103.59ZM3263.07,2100.62C3263.92,2096.3 3268.65,2089.45 3274.66,2089.45C3278.84,2089.45 3281.31,2091.64 3281.31,2095.17C3281.31,2097.36 3281.03,2098.07 3277.35,2099.06C3274.66,2099.84 3270.49,2100.62 3264.55,2100.62L3263.07,2100.62Z" style="fill-rule:nonzero;"/>
        </g>
    </g>
</svg>
