<?xml version="1.0" encoding="UTF-8" standalone="no"?>
<!DOCTYPE svg PUBLIC "-//W3C//DTD SVG 1.1//EN" "http://www.w3.org/Graphics/SVG/1.1/DTD/svg11.dtd">
<svg width="100%" height="100%" viewBox="0 0 89 89" version="1.1" xmlns="http://www.w3.org/2000/svg" xmlns:xlink="http://www.w3.org/1999/xlink" xml:space="preserve" xmlns:serif="http://www.serif.com/" style="fill-rule:evenodd;clip-rule:evenodd;stroke-linejoin:round;stroke-miterlimit:2;">
    <g transform="matrix(1,0,0,1,-3293.3,-681.509)">
        <g transform="matrix(1.41414,0,0,1.41429,-1389.33,-1046.26)">
            <path d="M3368.14,1284.02C3371.53,1284.02 3373.65,1281.48 3373.65,1278.51L3373.65,1227.17C3373.65,1223.71 3371.18,1221.66 3368.14,1221.66L3316.81,1221.66C3313.34,1221.66 3311.29,1223.99 3311.29,1227.17L3311.29,1278.51C3311.29,1281.69 3313.76,1284.02 3316.81,1284.02L3368.14,1284.02ZM3370.76,1278.79C3370.76,1280.34 3369.69,1281.12 3368.49,1281.12L3316.45,1281.12C3314.97,1281.12 3314.19,1280.06 3314.19,1278.79L3314.19,1226.82C3314.19,1225.4 3315.11,1224.56 3316.45,1224.56L3368.49,1224.56C3369.91,1224.56 3370.76,1225.62 3370.76,1226.82L3370.76,1278.79ZM3348.48,1253.76C3350.18,1251.92 3352.44,1250.65 3355.13,1250.65C3359.8,1250.65 3362.76,1254.18 3362.76,1260.05C3362.76,1265.57 3360.08,1270.66 3353.36,1270.66C3349.54,1270.66 3347.07,1267.97 3345.23,1264.93C3345.09,1264.65 3344.95,1264.51 3344.73,1264.51C3344.03,1264.51 3343.18,1266.06 3343.18,1267.33C3343.18,1267.83 3343.32,1268.25 3343.6,1268.54C3346.01,1271.51 3349.12,1273.77 3353.36,1273.77C3362.2,1273.77 3365.81,1267.26 3365.81,1259.98C3365.81,1252.2 3361.14,1247.68 3355.62,1247.68C3352.16,1247.68 3349.83,1248.88 3347.7,1250.86L3349.05,1237L3359.23,1236.29L3363.19,1236.08C3363.54,1236.08 3363.76,1235.73 3363.76,1235.3C3363.76,1234.38 3362.98,1232.9 3362.27,1232.9L3362.13,1232.9C3361.28,1233.11 3359.8,1233.18 3358.81,1233.25L3349.12,1233.89C3348.41,1233.54 3347.63,1233.25 3347.14,1233.25C3346.71,1233.25 3346.43,1233.39 3346.43,1233.89C3346.43,1234.6 3346.36,1235.59 3346.29,1236.36L3345.02,1250.29C3344.95,1250.79 3344.81,1251.5 3344.59,1252.27C3344.52,1252.49 3344.52,1252.7 3344.52,1252.91C3344.52,1254.32 3345.8,1255.38 3346.64,1255.38C3346.86,1255.38 3346.93,1255.38 3347.07,1255.24L3348.48,1253.76ZM3320.55,1273.06C3322.96,1272.5 3326.07,1272.35 3328.61,1272.35C3332.01,1272.35 3335.83,1272.35 3339.86,1272.78C3340.42,1272.78 3340.63,1272.21 3340.63,1271.51C3340.63,1270.59 3340.21,1269.45 3339.5,1269.45C3338.87,1269.45 3336.46,1269.53 3335.54,1269.53C3333.42,1269.53 3331.72,1269.45 3329.18,1269.45C3327.2,1269.45 3324.23,1269.6 3322.25,1269.81C3324.09,1265.99 3327.27,1260.26 3331.8,1255.74C3336.67,1250.93 3340.07,1246.9 3340.07,1241.67C3340.07,1236.15 3336.46,1232.19 3330.73,1232.19C3325.43,1232.19 3321.83,1235.09 3319.7,1239.26C3319.49,1239.55 3319.42,1239.9 3319.42,1240.25C3319.42,1241.17 3320.62,1242.59 3321.33,1242.59C3321.83,1242.59 3322.25,1242.02 3322.53,1241.24C3323.66,1237.85 3326.49,1235.16 3330.59,1235.16C3334.55,1235.16 3336.82,1238.13 3336.82,1241.67C3336.82,1245.41 3334.13,1248.95 3329.89,1253.33C3325.5,1257.79 3321.83,1263.94 3319.85,1268.04C3319.56,1268.61 3319.21,1269.1 3318.78,1269.74C3318.64,1269.95 3318.57,1270.23 3318.57,1270.59C3318.57,1271.72 3319.42,1273.06 3320.41,1273.06L3320.55,1273.06Z" style="fill-rule:nonzero;"/>
        </g>
    </g>
</svg>
