<?xml version="1.0" encoding="UTF-8" standalone="no"?>
<!DOCTYPE svg PUBLIC "-//W3C//DTD SVG 1.1//EN" "http://www.w3.org/Graphics/SVG/1.1/DTD/svg11.dtd">
<svg width="100%" height="100%" viewBox="0 0 89 89" version="1.1" xmlns="http://www.w3.org/2000/svg" xmlns:xlink="http://www.w3.org/1999/xlink" xml:space="preserve" xmlns:serif="http://www.serif.com/" style="fill-rule:evenodd;clip-rule:evenodd;stroke-linejoin:round;stroke-miterlimit:2;">
    <g transform="matrix(1,0,0,1,-2793.35,-1881.51)">
        <g transform="matrix(1.41414,0,0,1.41429,-1389.33,-1046.26)">
            <path d="M3014.6,2132.51C3018,2132.51 3020.12,2129.96 3020.12,2126.99L3020.12,2075.66C3020.12,2072.19 3017.64,2070.14 3014.6,2070.14L2963.27,2070.14C2959.8,2070.14 2957.76,2072.48 2957.76,2075.66L2957.76,2126.99C2957.76,2130.17 2960.23,2132.51 2963.27,2132.51L3014.6,2132.51ZM3017.22,2127.27C3017.22,2128.83 3016.16,2129.61 3014.96,2129.61L2962.92,2129.61C2961.43,2129.61 2960.65,2128.55 2960.65,2127.27L2960.65,2075.3C2960.65,2073.89 2961.57,2073.04 2962.92,2073.04L3014.96,2073.04C3016.37,2073.04 3017.22,2074.1 3017.22,2075.3L3017.22,2127.27ZM3000.82,2087.82C3000.82,2086.97 2999.19,2086.33 2998.06,2086.33C2997.49,2086.33 2997.07,2086.55 2997.07,2086.9C2997.07,2087.47 2997,2089.02 2997,2090.79C2995.72,2087.82 2992.68,2086.33 2989.78,2086.33C2982.64,2086.33 2975.01,2094.75 2975.01,2104.93C2975.01,2112.43 2978.83,2116.39 2984.55,2116.39C2989.15,2116.39 2993.96,2113.77 2996.86,2107.83C2997,2110.23 2998.41,2116.1 3000.18,2116.1C3001.17,2116.1 3002.3,2114.62 3002.3,2113.77C3002.3,2113.63 3002.23,2113.49 3002.16,2113.41C3001.24,2112 3000.04,2109.39 3000.04,2103.73C3000.04,2099.56 3000.39,2090.36 3000.82,2087.96L3000.82,2087.82ZM2997,2092.27C2996.93,2094.25 2996.93,2096.73 2996.86,2097.93C2996.43,2107.26 2990.56,2113.41 2984.55,2113.41C2981.02,2113.41 2978.47,2110.8 2978.47,2104.65C2978.47,2096.02 2984.48,2089.23 2989.78,2089.23C2991.69,2089.23 2993.82,2090.22 2995.37,2092.63C2995.44,2092.77 2995.65,2092.84 2995.87,2092.84C2996.22,2092.84 2996.78,2092.63 2997,2092.27Z" style="fill-rule:nonzero;"/>
        </g>
    </g>
</svg>
