<?xml version="1.0" encoding="UTF-8" standalone="no"?>
<!DOCTYPE svg PUBLIC "-//W3C//DTD SVG 1.1//EN" "http://www.w3.org/Graphics/SVG/1.1/DTD/svg11.dtd">
<svg width="100%" height="100%" viewBox="0 0 89 89" version="1.1" xmlns="http://www.w3.org/2000/svg" xmlns:xlink="http://www.w3.org/1999/xlink" xml:space="preserve" xmlns:serif="http://www.serif.com/" style="fill-rule:evenodd;clip-rule:evenodd;stroke-linejoin:round;stroke-miterlimit:2;">
    <g transform="matrix(1,0,0,1,-3193.31,-1431.51)">
        <g transform="matrix(1.41414,0,0,1.41429,-1389.33,-1046.26)">
            <path d="M3297.43,1814.32C3300.83,1814.32 3302.95,1811.78 3302.95,1808.81L3302.95,1757.48C3302.95,1754.01 3300.47,1751.96 3297.43,1751.96L3246.1,1751.96C3242.63,1751.96 3240.58,1754.29 3240.58,1757.48L3240.58,1808.81C3240.58,1811.99 3243.06,1814.32 3246.1,1814.32L3297.43,1814.32ZM3300.05,1809.09C3300.05,1810.65 3298.99,1811.42 3297.78,1811.42L3245.74,1811.42C3244.26,1811.42 3243.48,1810.36 3243.48,1809.09L3243.48,1757.12C3243.48,1755.71 3244.4,1754.86 3245.74,1754.86L3297.78,1754.86C3299.2,1754.86 3300.05,1755.92 3300.05,1757.12L3300.05,1809.09ZM3291,1793.96C3292.41,1793.96 3294.32,1794.1 3295.03,1794.1C3295.45,1794.1 3295.52,1793.75 3295.52,1793.32C3295.52,1792.33 3294.82,1790.71 3293.97,1790.71C3293.33,1790.71 3291.85,1790.99 3290.93,1791.06L3290.08,1791.13L3290.08,1779.32C3290.08,1777.91 3290.22,1775.15 3290.22,1774.23C3290.22,1773.24 3288.81,1772.61 3287.82,1772.61C3287.32,1772.61 3286.97,1772.82 3286.97,1773.17C3286.97,1774.52 3287.04,1778.19 3287.04,1779.32L3287.04,1791.27L3274.95,1791.56C3278.55,1784.77 3283.22,1775.58 3286.12,1769.28C3286.54,1768.36 3287.32,1767.02 3287.89,1766.1C3288.03,1765.96 3288.03,1765.75 3288.03,1765.54C3288.03,1764.33 3286.54,1762.64 3285.69,1762.64C3285.48,1762.64 3285.27,1762.71 3285.2,1762.99C3283.57,1767.52 3279.26,1777.27 3273.25,1788.52C3272.83,1789.29 3272.05,1790.14 3271.48,1791.13C3271.27,1791.49 3271.2,1791.91 3271.2,1792.26C3271.2,1793.61 3272.4,1794.88 3273.39,1794.88C3273.53,1794.88 3273.6,1794.81 3273.74,1794.81C3274.52,1794.6 3275.23,1794.45 3275.65,1794.45L3287.04,1794.1L3287.04,1797.21C3287.04,1798.06 3286.97,1801.31 3286.97,1802.23C3286.97,1803.22 3288.38,1803.86 3289.44,1803.86C3289.94,1803.86 3290.29,1803.65 3290.29,1803.29C3290.29,1801.95 3290.08,1799.69 3290.08,1797.35L3290.08,1793.96L3291,1793.96ZM3270.49,1765.47C3270.49,1764.48 3269.22,1763.2 3268.44,1763.06L3268.3,1763.06C3267.66,1763.06 3266.96,1763.41 3266.18,1763.49L3252.46,1764.55L3251.76,1764.55C3250.98,1764.55 3250.41,1764.48 3249.85,1764.48C3249.63,1764.48 3249.63,1764.62 3249.63,1764.83C3249.63,1765.54 3250.55,1767.73 3252.11,1767.73C3252.53,1767.73 3253.03,1767.66 3253.59,1767.59L3266.74,1766.31C3264.69,1771.4 3260.24,1782.93 3254.65,1801.17C3254.58,1801.53 3254.3,1802.02 3254.3,1802.52C3254.3,1803.01 3254.58,1803.51 3255.57,1803.65C3255.86,1803.65 3256.14,1803.72 3256.28,1803.72C3257.13,1803.72 3257.55,1803.51 3257.69,1802.87C3259.89,1792.4 3265.9,1776.42 3269.29,1768.36C3269.57,1767.66 3270.35,1766.6 3270.49,1765.68L3270.49,1765.47Z" style="fill-rule:nonzero;"/>
        </g>
    </g>
</svg>
