<?xml version="1.0" encoding="UTF-8" standalone="no"?>
<!DOCTYPE svg PUBLIC "-//W3C//DTD SVG 1.1//EN" "http://www.w3.org/Graphics/SVG/1.1/DTD/svg11.dtd">
<svg width="100%" height="100%" viewBox="0 0 89 89" version="1.1" xmlns="http://www.w3.org/2000/svg" xmlns:xlink="http://www.w3.org/1999/xlink" xml:space="preserve" xmlns:serif="http://www.serif.com/" style="fill-rule:evenodd;clip-rule:evenodd;stroke-linejoin:round;stroke-miterlimit:2;">
    <g transform="matrix(1,0,0,1,-3093.32,-1581.51)">
        <g transform="matrix(1.41414,0,0,1.41429,-1389.33,-1046.26)">
            <path d="M3226.72,1920.38C3230.12,1920.38 3232.24,1917.84 3232.24,1914.87L3232.24,1863.54C3232.24,1860.07 3229.76,1858.02 3226.72,1858.02L3175.39,1858.02C3171.93,1858.02 3169.88,1860.35 3169.88,1863.54L3169.88,1914.87C3169.88,1918.05 3172.35,1920.38 3175.39,1920.38L3226.72,1920.38ZM3229.34,1915.15C3229.34,1916.71 3228.28,1917.49 3227.08,1917.49L3175.04,1917.49C3173.55,1917.49 3172.78,1916.42 3172.78,1915.15L3172.78,1863.18C3172.78,1861.77 3173.69,1860.92 3175.04,1860.92L3227.08,1860.92C3228.49,1860.92 3229.34,1861.98 3229.34,1863.18L3229.34,1915.15ZM3190.95,1886.23C3195.76,1882.34 3199.86,1877.47 3199.86,1875.98C3199.86,1875.34 3199.5,1874.92 3199.01,1874.92C3198.65,1874.92 3198.3,1875.06 3197.88,1875.56L3197.59,1875.84C3197.81,1875.49 3197.95,1875.06 3197.95,1874.78C3197.95,1874.57 3197.88,1874.35 3197.81,1874.21C3195.9,1871.17 3193.21,1868.63 3189.39,1868.63C3183.45,1868.63 3179.99,1873.08 3179.99,1878.1C3179.99,1881.85 3181.26,1884.25 3185.78,1886.8C3181.26,1890.33 3178.5,1894.22 3178.5,1899.38C3178.5,1905.47 3182.25,1910.13 3188.54,1910.13C3195.47,1910.13 3200.07,1905.61 3200.07,1898.61C3200.07,1893.09 3197.38,1889.49 3191.58,1886.52L3190.95,1886.23ZM3214.92,1886.94C3219.09,1885.67 3222.27,1882.13 3222.27,1877.32C3222.27,1871.81 3218.73,1868.56 3213.5,1868.56C3207.56,1868.56 3203.18,1873.29 3203.18,1874.78C3203.18,1875.98 3204.24,1877.18 3204.66,1877.18C3205.16,1877.18 3205.51,1876.48 3205.65,1876.26C3208.13,1873.01 3210.53,1871.53 3213.5,1871.53C3217.25,1871.53 3219.37,1873.86 3219.37,1877.68C3219.37,1882.41 3213.93,1885.95 3208.48,1886.38C3208.13,1886.44 3207.99,1886.8 3207.99,1887.22C3207.99,1888.14 3208.62,1889.49 3209.47,1889.49C3209.61,1889.49 3209.68,1889.41 3209.76,1889.41C3210.32,1889.27 3211.38,1889.06 3212.3,1888.99C3212.72,1888.92 3213.08,1888.92 3213.5,1888.92C3217.74,1888.92 3220.86,1892.17 3220.86,1896.84C3220.86,1902.07 3218.24,1907.09 3211.66,1907.09C3208.27,1907.09 3206.15,1905.11 3204.1,1902.14C3203.89,1901.93 3203.82,1901.79 3203.6,1901.79C3202.9,1901.79 3202.26,1903.27 3202.26,1904.4C3202.26,1904.9 3202.26,1905.25 3202.54,1905.54C3205.16,1908.51 3208.06,1910.13 3211.66,1910.13C3220.22,1910.13 3223.76,1903.98 3223.76,1896.77C3223.76,1890.69 3219.87,1886.94 3215.55,1886.94L3214.92,1886.94ZM3188.4,1888.21C3196.89,1891.61 3197.24,1896.91 3197.24,1898.89C3197.24,1903.77 3193.56,1907.09 3188.54,1907.09C3183.52,1907.09 3181.33,1903.13 3181.33,1899.24C3181.33,1895.14 3183.95,1891.82 3188.4,1888.21ZM3196.82,1876.69C3194.41,1879.52 3191.65,1882.41 3188.33,1884.82C3184.16,1882.63 3182.89,1881.07 3182.89,1878.1C3182.89,1874.78 3185.01,1871.53 3189.46,1871.53C3192.29,1871.53 3193.99,1873.29 3195.47,1876.05C3195.76,1876.62 3196.04,1876.83 3196.32,1876.83C3196.53,1876.83 3196.67,1876.76 3196.82,1876.69Z" style="fill-rule:nonzero;"/>
        </g>
    </g>
</svg>
