<?xml version="1.0" encoding="UTF-8" standalone="no"?>
<!DOCTYPE svg PUBLIC "-//W3C//DTD SVG 1.1//EN" "http://www.w3.org/Graphics/SVG/1.1/DTD/svg11.dtd">
<svg width="100%" height="100%" viewBox="0 0 89 89" version="1.1" xmlns="http://www.w3.org/2000/svg" xmlns:xlink="http://www.w3.org/1999/xlink" xml:space="preserve" xmlns:serif="http://www.serif.com/" style="fill-rule:evenodd;clip-rule:evenodd;stroke-linejoin:round;stroke-miterlimit:2;">
    <g transform="matrix(1,0,0,1,-3193.31,-231.509)">
        <g transform="matrix(1.41414,0,0,1.41429,-1389.33,-1046.26)">
            <path d="M3297.43,965.839C3300.83,965.839 3302.95,963.294 3302.95,960.324L3302.95,908.991C3302.95,905.526 3300.47,903.476 3297.43,903.476L3246.1,903.476C3242.63,903.476 3240.58,905.809 3240.58,908.991L3240.58,960.324C3240.58,963.506 3243.06,965.839 3246.1,965.839L3297.43,965.839ZM3300.05,960.607C3300.05,962.162 3298.99,962.94 3297.78,962.94L3245.74,962.94C3244.26,962.94 3243.48,961.88 3243.48,960.607L3243.48,908.637C3243.48,907.223 3244.4,906.375 3245.74,906.375L3297.78,906.375C3299.2,906.375 3300.05,907.435 3300.05,908.637L3300.05,960.607ZM3280.32,945.263C3282.8,945.263 3285.2,945.405 3286.05,945.405C3286.47,945.405 3286.68,945.122 3286.68,944.627C3286.68,943.708 3285.76,942.082 3284.7,942.082C3283.93,942.082 3281.95,942.364 3280.25,942.435C3279.68,942.435 3279.12,942.506 3278.55,942.506L3278.55,930.698C3278.55,929.284 3278.69,926.526 3278.69,925.607C3278.69,924.617 3277.14,923.981 3276.08,923.981C3275.58,923.981 3275.16,924.193 3275.16,924.546C3275.16,925.89 3275.37,929.566 3275.37,930.698L3275.37,942.647C3267.31,943.001 3258.19,943.284 3258.19,943.284C3263.49,936.284 3270,926.597 3274.03,920.657C3276.36,917.334 3276.43,917.122 3276.43,916.768C3276.43,915.637 3274.95,914.011 3274.1,914.011C3273.82,914.011 3273.67,914.082 3273.53,914.364C3272.26,917.546 3269.71,922.001 3256.7,940.243L3254.72,942.859C3254.44,943.284 3254.3,943.637 3254.3,944.061C3254.3,945.334 3255.71,946.536 3256.92,946.536C3257.06,946.536 3257.2,946.536 3257.34,946.465C3258.26,946.253 3259.25,946.112 3259.67,946.112L3275.37,945.476L3275.37,948.587C3275.37,949.435 3275.23,952.688 3275.23,953.607C3275.23,954.597 3276.78,955.233 3277.85,955.233C3278.34,955.233 3278.76,955.021 3278.76,954.667C3278.76,953.324 3278.62,951.061 3278.55,948.728L3278.55,945.334L3280.32,945.263Z" style="fill-rule:nonzero;"/>
        </g>
    </g>
</svg>
