<?xml version="1.0" encoding="UTF-8" standalone="no"?>
<!DOCTYPE svg PUBLIC "-//W3C//DTD SVG 1.1//EN" "http://www.w3.org/Graphics/SVG/1.1/DTD/svg11.dtd">
<svg width="100%" height="100%" viewBox="0 0 89 89" version="1.1" xmlns="http://www.w3.org/2000/svg" xmlns:xlink="http://www.w3.org/1999/xlink" xml:space="preserve" xmlns:serif="http://www.serif.com/" style="fill-rule:evenodd;clip-rule:evenodd;stroke-linejoin:round;stroke-miterlimit:2;">
    <g transform="matrix(1,0,0,1,-3293.3,-981.509)">
        <g transform="matrix(1.41414,0,0,1.41429,-1389.33,-1046.26)">
            <path d="M3368.14,1496.14C3371.53,1496.14 3373.65,1493.6 3373.65,1490.63L3373.65,1439.29C3373.65,1435.83 3371.18,1433.78 3368.14,1433.78L3316.81,1433.78C3313.34,1433.78 3311.29,1436.11 3311.29,1439.29L3311.29,1490.63C3311.29,1493.81 3313.76,1496.14 3316.81,1496.14L3368.14,1496.14ZM3370.76,1490.91C3370.76,1492.46 3369.69,1493.24 3368.49,1493.24L3316.45,1493.24C3314.97,1493.24 3314.19,1492.18 3314.19,1490.91L3314.19,1438.94C3314.19,1437.53 3315.11,1436.68 3316.45,1436.68L3368.49,1436.68C3369.91,1436.68 3370.76,1437.74 3370.76,1438.94L3370.76,1490.91ZM3363.4,1448.2C3363.76,1448.2 3363.97,1447.85 3363.97,1447.42C3363.97,1446.51 3363.26,1445.02 3362.55,1445.02L3362.41,1445.02C3361.56,1445.23 3360.22,1445.3 3359.3,1445.38L3350.11,1446.01C3349.47,1445.66 3348.69,1445.38 3348.27,1445.38C3347.85,1445.38 3347.56,1445.52 3347.56,1446.01C3347.56,1446.72 3347.49,1447.71 3347.42,1448.49L3346.22,1462.41C3346.15,1462.91 3346.01,1463.62 3345.8,1464.39C3345.8,1464.61 3345.72,1464.82 3345.72,1465.03C3345.72,1466.44 3347,1467.51 3347.78,1467.51C3348.2,1467.51 3349.26,1466.16 3349.47,1465.88C3351.17,1464.04 3353.22,1462.77 3355.76,1462.77C3360.22,1462.77 3363.05,1466.3 3363.05,1472.17C3363.05,1477.69 3360.5,1482.78 3354.07,1482.78C3350.46,1482.78 3348.2,1480.09 3346.43,1477.05C3346.29,1476.77 3346.15,1476.63 3345.94,1476.63C3345.3,1476.63 3344.52,1478.18 3344.52,1479.45C3344.52,1479.95 3344.59,1480.38 3344.88,1480.66C3347.14,1483.63 3350.11,1485.89 3354.07,1485.89C3362.48,1485.89 3365.88,1479.38 3365.88,1472.1C3365.88,1464.32 3361.49,1459.8 3356.26,1459.8C3353.01,1459.8 3350.74,1461 3348.76,1462.98L3350.04,1449.12L3359.65,1448.41L3363.4,1448.2ZM3338.09,1475.78C3339.43,1475.78 3341.2,1475.92 3341.91,1475.92C3342.26,1475.92 3342.33,1475.57 3342.33,1475.14C3342.33,1474.15 3341.62,1472.53 3340.85,1472.53C3340.21,1472.53 3338.87,1472.81 3338.02,1472.88L3337.17,1472.95L3337.17,1461.14C3337.17,1459.73 3337.31,1456.97 3337.31,1456.05C3337.31,1455.06 3335.97,1454.42 3335.05,1454.42C3334.55,1454.42 3334.2,1454.64 3334.2,1454.99C3334.2,1456.33 3334.34,1460.01 3334.34,1461.14L3334.34,1473.09L3322.82,1473.38C3326.28,1466.59 3330.66,1457.39 3333.42,1451.1C3333.85,1450.18 3334.55,1448.84 3335.12,1447.92C3335.26,1447.78 3335.26,1447.57 3335.26,1447.35C3335.26,1446.15 3333.85,1444.45 3333.07,1444.45C3332.78,1444.45 3332.64,1444.53 3332.57,1444.81C3329.11,1454.42 3323.24,1466.38 3321.19,1470.33C3320.76,1471.11 3320.13,1471.96 3319.56,1472.95C3319.35,1473.3 3319.28,1473.73 3319.28,1474.08C3319.28,1475.42 3320.41,1476.7 3321.4,1476.7C3321.47,1476.7 3321.54,1476.63 3321.68,1476.63C3322.39,1476.41 3323.17,1476.27 3323.52,1476.27L3334.34,1475.92L3334.34,1479.03C3334.34,1479.88 3334.2,1483.13 3334.2,1484.05C3334.2,1485.04 3335.61,1485.68 3336.53,1485.68C3337.03,1485.68 3337.38,1485.46 3337.38,1485.11C3337.38,1483.77 3337.17,1481.51 3337.17,1479.17L3337.17,1475.78L3338.09,1475.78Z" style="fill-rule:nonzero;"/>
        </g>
    </g>
</svg>
