<?xml version="1.0" encoding="UTF-8" standalone="no"?>
<!DOCTYPE svg PUBLIC "-//W3C//DTD SVG 1.1//EN" "http://www.w3.org/Graphics/SVG/1.1/DTD/svg11.dtd">
<svg width="100%" height="100%" viewBox="0 0 89 89" version="1.1" xmlns="http://www.w3.org/2000/svg" xmlns:xlink="http://www.w3.org/1999/xlink" xml:space="preserve" xmlns:serif="http://www.serif.com/" style="fill-rule:evenodd;clip-rule:evenodd;stroke-linejoin:round;stroke-miterlimit:2;">
    <g transform="matrix(1,0,0,1,-2793.35,-1581.51)">
        <g transform="matrix(1.41414,0,0,1.41429,-1389.33,-1046.26)">
            <path d="M3014.6,1920.38C3018,1920.38 3020.12,1917.84 3020.12,1914.87L3020.12,1863.54C3020.12,1860.07 3017.64,1858.02 3014.6,1858.02L2963.27,1858.02C2959.8,1858.02 2957.76,1860.35 2957.76,1863.54L2957.76,1914.87C2957.76,1918.05 2960.23,1920.38 2963.27,1920.38L3014.6,1920.38ZM3017.22,1915.15C3017.22,1916.71 3016.16,1917.49 3014.96,1917.49L2962.92,1917.49C2961.43,1917.49 2960.65,1916.42 2960.65,1915.15L2960.65,1863.18C2960.65,1861.77 2961.57,1860.92 2962.92,1860.92L3014.96,1860.92C3016.37,1860.92 3017.22,1861.98 3017.22,1863.18L3017.22,1915.15ZM2996.29,1872.02C2996.29,1871.6 2995.65,1871.6 2995.58,1871.6C2994.03,1871.6 2991.13,1881 2991.13,1889.91C2991.13,1901.58 2994.31,1910.13 3000.96,1910.13C3007.96,1910.13 3011.35,1900.16 3011.35,1888.42C3011.35,1876.9 3008.1,1868.49 3002.16,1868.49C2999.76,1868.49 2997.78,1869.9 2996.29,1872.02ZM2978.4,1886.23C2982.5,1882.91 2987.24,1877.75 2987.24,1875.98C2987.24,1875.34 2986.89,1874.92 2986.46,1874.92C2986.04,1874.92 2985.68,1875.06 2985.26,1875.56L2985.05,1875.84C2985.19,1875.49 2985.33,1875.06 2985.33,1874.78C2985.33,1874.21 2982.36,1868.63 2976.85,1868.63C2970.91,1868.63 2967.44,1873.08 2967.44,1878.1C2967.44,1881.85 2968.71,1884.25 2973.17,1886.8C2968.64,1890.33 2965.96,1894.22 2965.96,1899.38C2965.96,1905.47 2969.7,1910.13 2976,1910.13C2982.93,1910.13 2987.52,1905.61 2987.52,1898.61C2987.52,1893.09 2984.76,1889.49 2978.97,1886.52L2978.4,1886.23ZM3000.82,1907.09C2995.65,1907.09 2993.89,1899.17 2993.89,1889.84C2993.89,1877.54 2998.41,1871.38 3001.95,1871.38C3006.83,1871.38 3008.59,1880.08 3008.59,1888C3008.59,1897.69 3006.4,1907.09 3000.82,1907.09ZM2975.86,1888.21C2981.02,1890.83 2984.69,1893.09 2984.69,1898.89C2984.69,1903.77 2981.02,1907.09 2976,1907.09C2970.98,1907.09 2968.78,1903.13 2968.78,1899.24C2968.78,1895.14 2971.4,1891.82 2975.86,1888.21ZM2984.27,1876.69C2981.87,1879.52 2979.04,1882.41 2975.78,1884.82C2971.54,1882.63 2970.27,1881.07 2970.27,1878.1C2970.27,1874.78 2972.46,1871.53 2976.85,1871.53C2979.74,1871.53 2981.44,1873.29 2982.86,1876.05C2983.14,1876.62 2983.49,1876.83 2983.78,1876.83C2983.92,1876.83 2984.13,1876.76 2984.27,1876.69Z" style="fill-rule:nonzero;"/>
        </g>
    </g>
</svg>
