<?xml version="1.0" encoding="UTF-8" standalone="no"?>
<!DOCTYPE svg PUBLIC "-//W3C//DTD SVG 1.1//EN" "http://www.w3.org/Graphics/SVG/1.1/DTD/svg11.dtd">
<svg width="100%" height="100%" viewBox="0 0 89 89" version="1.1" xmlns="http://www.w3.org/2000/svg" xmlns:xlink="http://www.w3.org/1999/xlink" xml:space="preserve" xmlns:serif="http://www.serif.com/" style="fill-rule:evenodd;clip-rule:evenodd;stroke-linejoin:round;stroke-miterlimit:2;">
    <g transform="matrix(1,0,0,1,-3193.31,-1731.51)">
        <g transform="matrix(1.41414,0,0,1.41429,-1389.33,-1046.26)">
            <path d="M3297.43,2026.44C3300.83,2026.44 3302.95,2023.9 3302.95,2020.93L3302.95,1969.6C3302.95,1966.13 3300.47,1964.08 3297.43,1964.08L3246.1,1964.08C3242.63,1964.08 3240.58,1966.41 3240.58,1969.6L3240.58,2020.93C3240.58,2024.11 3243.06,2026.44 3246.1,2026.44L3297.43,2026.44ZM3300.05,2021.21C3300.05,2022.77 3298.99,2023.55 3297.78,2023.55L3245.74,2023.55C3244.26,2023.55 3243.48,2022.49 3243.48,2021.21L3243.48,1969.24C3243.48,1967.83 3244.4,1966.98 3245.74,1966.98L3297.78,1966.98C3299.2,1966.98 3300.05,1968.04 3300.05,1969.24L3300.05,2021.21ZM3263.7,2015.91C3264.91,2015.84 3265.68,2015.49 3265.76,2014.71C3266.04,2007.78 3270.28,1984.66 3271.13,1980.49L3271.76,1978.36L3271.76,1978.15C3271.76,1977.3 3270.78,1976.24 3269.71,1976.24C3268.65,1976.24 3268.94,1978.01 3268.58,1979.57C3267.88,1977.94 3265.61,1974.62 3260.81,1974.62C3254.09,1974.62 3248.93,1982.25 3248.93,1989.96C3248.93,1996.47 3252.04,2000.21 3256.63,2000.21C3260.24,2000.21 3263.99,1997.6 3266.11,1993.57C3263.42,2010.04 3263.21,2010.96 3262.78,2013.58C3262.64,2014.07 3262.5,2014.57 3262.5,2014.99C3262.5,2015.56 3262.78,2015.91 3263.63,2015.91L3263.7,2015.91ZM3291.14,2006.08C3292.48,2006.08 3294.32,2006.22 3294.96,2006.22C3295.31,2006.22 3295.45,2005.87 3295.45,2005.44C3295.45,2004.46 3294.74,2002.83 3293.97,2002.83C3293.33,2002.83 3291.99,2003.11 3291.14,2003.18L3290.29,2003.25L3290.29,1991.44C3290.29,1990.03 3290.36,1987.27 3290.36,1986.35C3290.36,1985.36 3289.09,1984.73 3288.17,1984.73C3287.67,1984.73 3287.32,1984.94 3287.32,1985.29C3287.32,1986.64 3287.39,1990.31 3287.39,1991.44L3287.39,2003.39L3275.94,2003.68C3279.4,1996.89 3283.78,1987.7 3286.54,1981.4C3286.9,1980.49 3287.67,1979.14 3288.24,1978.22C3288.31,1978.08 3288.31,1977.87 3288.31,1977.66C3288.31,1976.46 3286.97,1974.76 3286.12,1974.76C3285.91,1974.76 3285.76,1974.83 3285.69,1975.11C3282.8,1983.31 3277.35,1994.7 3274.31,2000.64C3273.89,2001.41 3273.25,2002.26 3272.68,2003.25C3272.4,2003.61 3272.4,2004.03 3272.4,2004.38C3272.4,2005.73 3273.53,2007 3274.45,2007C3274.59,2007 3274.66,2006.93 3274.81,2006.93C3275.51,2006.72 3276.22,2006.58 3276.57,2006.58L3287.39,2006.22L3287.39,2009.33C3287.39,2010.18 3287.32,2013.43 3287.32,2014.35C3287.32,2015.34 3288.66,2015.98 3289.65,2015.98C3290.15,2015.98 3290.5,2015.77 3290.5,2015.41C3290.5,2014.07 3290.29,2011.81 3290.29,2009.48L3290.29,2006.08L3291.14,2006.08ZM3268.16,1982.11C3266.89,1987.49 3266.89,1987.56 3266.18,1988.9C3263.63,1993.85 3260.95,1997.1 3256.56,1997.1C3253.38,1997.1 3251.76,1994.63 3251.76,1989.75C3251.76,1984.52 3255.15,1977.59 3261.09,1977.59C3264.55,1977.59 3266.04,1980.34 3266.67,1981.9C3266.89,1982.39 3267.1,1982.61 3267.38,1982.61C3267.66,1982.61 3267.88,1982.39 3268.16,1982.11Z" style="fill-rule:nonzero;"/>
        </g>
    </g>
</svg>
