<?xml version="1.0" encoding="UTF-8" standalone="no"?>
<!DOCTYPE svg PUBLIC "-//W3C//DTD SVG 1.1//EN" "http://www.w3.org/Graphics/SVG/1.1/DTD/svg11.dtd">
<svg width="100%" height="100%" viewBox="0 0 89 89" version="1.1" xmlns="http://www.w3.org/2000/svg" xmlns:xlink="http://www.w3.org/1999/xlink" xml:space="preserve" xmlns:serif="http://www.serif.com/" style="fill-rule:evenodd;clip-rule:evenodd;stroke-linejoin:round;stroke-miterlimit:2;">
    <g transform="matrix(1,0,0,1,-2893.34,-1731.51)">
        <g transform="matrix(1.41414,0,0,1.41429,-1389.33,-1046.26)">
            <path d="M3085.31,2026.44C3088.7,2026.44 3090.83,2023.9 3090.83,2020.93L3090.83,1969.6C3090.83,1966.13 3088.35,1964.08 3085.31,1964.08L3033.98,1964.08C3030.51,1964.08 3028.46,1966.41 3028.46,1969.6L3028.46,2020.93C3028.46,2024.11 3030.94,2026.44 3033.98,2026.44L3085.31,2026.44ZM3087.93,2021.21C3087.93,2022.77 3086.87,2023.55 3085.66,2023.55L3033.62,2023.55C3032.14,2023.55 3031.36,2022.49 3031.36,2021.21L3031.36,1969.24C3031.36,1967.83 3032.28,1966.98 3033.62,1966.98L3085.66,1966.98C3087.08,1966.98 3087.93,1968.04 3087.93,1969.24L3087.93,2021.21ZM3053.21,2015.91C3054.48,2015.84 3055.26,2015.49 3055.33,2014.71C3055.83,2008.34 3058.8,1991.38 3061.06,1980.49C3061.13,1980.13 3061.55,1979.14 3061.69,1978.36L3061.69,1978.15C3061.69,1977.3 3060.7,1976.24 3059.57,1976.24C3058.44,1976.24 3058.72,1978.01 3058.37,1979.57C3057.66,1977.94 3055.19,1974.62 3050.17,1974.62C3043.03,1974.62 3037.58,1982.25 3037.58,1989.96C3037.58,1996.47 3040.91,2000.21 3045.78,2000.21C3049.53,2000.21 3053.49,1997.6 3055.76,1993.57C3054.84,1998.73 3053.78,2004.74 3053.07,2009.19L3052.22,2013.58C3052.15,2014.07 3051.94,2014.57 3051.94,2014.99C3051.94,2015.56 3052.22,2015.91 3053.14,2015.91L3053.21,2015.91ZM3057.88,1982.11C3056.82,1989.18 3052.22,1997.1 3045.71,1997.1C3042.32,1997.1 3040.62,1994.63 3040.62,1989.75C3040.62,1984.52 3044.16,1977.59 3050.45,1977.59C3054.13,1977.59 3055.68,1980.34 3056.39,1981.9C3056.6,1982.39 3056.82,1982.61 3057.1,1982.61C3057.38,1982.61 3057.66,1982.39 3057.88,1982.11ZM3074.63,2009.4C3074.63,2010.61 3074.49,2013.51 3074.49,2014.42C3074.49,2015.34 3075.91,2015.98 3076.9,2015.98C3077.39,2015.98 3077.74,2015.84 3077.74,2015.41C3077.67,2013.93 3077.6,2010.61 3077.6,2009.05L3077.6,1980.56C3077.6,1978.93 3077.96,1977.94 3077.96,1977.02C3077.96,1975.96 3076.76,1974.9 3076.05,1974.9C3075.27,1974.9 3074.21,1976.53 3073.78,1976.88C3072.23,1978.22 3069.76,1979.71 3067.21,1980.84C3066.86,1980.98 3066.71,1981.19 3066.71,1981.4C3066.71,1982.04 3067.85,1982.68 3068.76,1982.68C3068.91,1982.68 3069.12,1982.68 3069.26,1982.61C3071.03,1982.04 3073.15,1981.12 3074.63,1980.13L3074.63,2009.4Z" style="fill-rule:nonzero;"/>
        </g>
    </g>
</svg>
