<?xml version="1.0" encoding="UTF-8" standalone="no"?>
<!DOCTYPE svg PUBLIC "-//W3C//DTD SVG 1.1//EN" "http://www.w3.org/Graphics/SVG/1.1/DTD/svg11.dtd">
<svg width="100%" height="100%" viewBox="0 0 89 89" version="1.1" xmlns="http://www.w3.org/2000/svg" xmlns:xlink="http://www.w3.org/1999/xlink" xml:space="preserve" xmlns:serif="http://www.serif.com/" style="fill-rule:evenodd;clip-rule:evenodd;stroke-linejoin:round;stroke-miterlimit:2;">
    <g transform="matrix(1,0,0,1,-2993.33,-981.509)">
        <g transform="matrix(1.41414,0,0,1.41429,-1389.33,-1046.26)">
            <path d="M3156.02,1496.14C3159.41,1496.14 3161.53,1493.6 3161.53,1490.63L3161.53,1439.29C3161.53,1435.83 3159.06,1433.78 3156.02,1433.78L3104.68,1433.78C3101.22,1433.78 3099.17,1436.11 3099.17,1439.29L3099.17,1490.63C3099.17,1493.81 3101.64,1496.14 3104.68,1496.14L3156.02,1496.14ZM3158.63,1490.91C3158.63,1492.46 3157.57,1493.24 3156.37,1493.24L3104.33,1493.24C3102.85,1493.24 3102.07,1492.18 3102.07,1490.91L3102.07,1438.94C3102.07,1437.53 3102.99,1436.68 3104.33,1436.68L3156.37,1436.68C3157.78,1436.68 3158.63,1437.74 3158.63,1438.94L3158.63,1490.91ZM3133.82,1485.18C3135.09,1484.9 3137.56,1484.48 3141.45,1484.48C3147.32,1484.48 3151.07,1484.76 3152.13,1484.9C3152.48,1484.9 3152.69,1484.62 3152.69,1484.12C3152.69,1483.13 3151.92,1481.58 3151.14,1481.58C3150.5,1481.58 3148.88,1481.65 3148.03,1481.65C3145.98,1481.65 3144.42,1481.58 3142.02,1481.58C3140.11,1481.58 3137.28,1481.72 3135.44,1481.93C3137.14,1478.11 3140.18,1472.38 3144.49,1467.86C3149.09,1463.05 3152.27,1459.02 3152.27,1453.79C3152.27,1448.27 3148.88,1444.31 3143.43,1444.31C3138.41,1444.31 3135.02,1447.21 3133.04,1451.38C3132.83,1451.67 3132.76,1452.02 3132.76,1452.38C3132.76,1453.15 3133.74,1454.71 3134.52,1454.71C3135.02,1454.71 3135.44,1454.14 3135.65,1453.36C3136.78,1449.97 3139.47,1447.28 3143.29,1447.28C3147.11,1447.28 3149.23,1450.25 3149.23,1453.79C3149.23,1457.54 3146.68,1461.07 3142.65,1465.45C3138.48,1469.91 3135.02,1476.06 3133.11,1480.16C3132.9,1480.73 3132.54,1481.22 3132.12,1481.86C3131.98,1482.07 3131.91,1482.35 3131.91,1482.71C3131.91,1483.84 3132.76,1485.18 3133.67,1485.18L3133.82,1485.18ZM3125.97,1475.78C3127.31,1475.78 3129.08,1475.92 3129.78,1475.92C3130.14,1475.92 3130.21,1475.57 3130.21,1475.14C3130.21,1474.15 3129.5,1472.53 3128.72,1472.53C3128.16,1472.53 3126.74,1472.81 3125.9,1472.88L3125.05,1472.95L3125.05,1461.14C3125.05,1459.73 3125.19,1456.97 3125.19,1456.05C3125.19,1455.06 3123.85,1454.42 3122.93,1454.42C3122.43,1454.42 3122.08,1454.64 3122.08,1454.99C3122.08,1456.33 3122.22,1460.01 3122.22,1461.14L3122.22,1473.09L3110.69,1473.38C3114.16,1466.59 3118.54,1457.39 3121.3,1451.1C3121.72,1450.18 3122.43,1448.84 3123,1447.92C3123.14,1447.78 3123.14,1447.57 3123.14,1447.35C3123.14,1446.15 3121.72,1444.45 3120.95,1444.45C3120.66,1444.45 3120.52,1444.53 3120.45,1444.81C3119.32,1448.27 3116,1456.83 3109.07,1470.33C3108.64,1471.11 3108.01,1471.96 3107.44,1472.95C3107.23,1473.3 3107.16,1473.73 3107.16,1474.08C3107.16,1475.42 3108.29,1476.7 3109.28,1476.7C3109.35,1476.7 3109.42,1476.63 3109.56,1476.63C3110.27,1476.41 3111.05,1476.27 3111.4,1476.27L3122.22,1475.92L3122.22,1479.03C3122.22,1479.88 3122.08,1483.13 3122.08,1484.05C3122.08,1485.04 3123.49,1485.68 3124.41,1485.68C3124.91,1485.68 3125.26,1485.46 3125.26,1485.11C3125.26,1483.77 3125.05,1481.51 3125.05,1479.17L3125.05,1475.78L3125.97,1475.78Z" style="fill-rule:nonzero;"/>
        </g>
    </g>
</svg>
