<?xml version="1.0" encoding="UTF-8" standalone="no"?>
<!DOCTYPE svg PUBLIC "-//W3C//DTD SVG 1.1//EN" "http://www.w3.org/Graphics/SVG/1.1/DTD/svg11.dtd">
<svg width="100%" height="100%" viewBox="0 0 89 89" version="1.1" xmlns="http://www.w3.org/2000/svg" xmlns:xlink="http://www.w3.org/1999/xlink" xml:space="preserve" xmlns:serif="http://www.serif.com/" style="fill-rule:evenodd;clip-rule:evenodd;stroke-linejoin:round;stroke-miterlimit:2;">
    <g transform="matrix(1,0,0,1,-3693.26,-1131.51)">
        <g transform="matrix(1.41414,0,0,1.41429,-1389.33,-1046.26)">
            <path d="M3650.97,1602.2C3654.36,1602.2 3656.48,1599.66 3656.48,1596.69L3656.48,1545.35C3656.48,1541.89 3654.01,1539.84 3650.97,1539.84L3599.63,1539.84C3596.17,1539.84 3594.12,1542.17 3594.12,1545.35L3594.12,1596.69C3594.12,1599.87 3596.59,1602.2 3599.63,1602.2L3650.97,1602.2ZM3653.58,1596.97C3653.58,1598.53 3652.52,1599.3 3651.32,1599.3L3599.28,1599.3C3597.8,1599.3 3597.02,1598.24 3597.02,1596.97L3597.02,1545C3597.02,1543.59 3597.94,1542.74 3599.28,1542.74L3651.32,1542.74C3652.73,1542.74 3653.58,1543.8 3653.58,1545L3653.58,1596.97ZM3640.64,1591.67C3641.85,1591.6 3642.55,1591.24 3642.62,1590.47C3643.26,1583.11 3645.95,1566.92 3648.07,1556.24C3648.14,1555.89 3648.49,1554.9 3648.63,1554.12L3648.63,1553.91C3648.63,1553.06 3647.71,1552 3646.58,1552C3645.59,1552 3645.81,1553.77 3645.45,1555.32C3644.82,1553.7 3642.48,1550.38 3637.74,1550.38C3630.96,1550.38 3625.8,1558.01 3625.8,1565.72C3625.8,1572.22 3628.98,1575.97 3633.57,1575.97C3637.11,1575.97 3640.86,1573.35 3642.98,1569.32C3640.29,1585.8 3640.08,1586.72 3639.65,1589.33C3639.58,1589.83 3639.44,1590.32 3639.44,1590.75C3639.44,1591.31 3639.65,1591.67 3640.5,1591.67L3640.64,1591.67ZM3620.56,1554.26C3620.92,1554.26 3621.13,1553.91 3621.13,1553.49C3621.13,1552.57 3620.42,1551.08 3619.71,1551.08L3619.57,1551.08C3618.8,1551.29 3617.38,1551.36 3616.46,1551.43L3607.27,1552.07C3606.63,1551.72 3605.86,1551.43 3605.43,1551.43C3605.01,1551.43 3604.72,1551.58 3604.72,1552.07C3604.72,1552.78 3604.65,1553.77 3604.58,1554.55L3603.38,1568.48C3603.31,1568.97 3603.17,1569.68 3602.96,1570.45L3602.96,1571.09C3602.96,1572.51 3604.16,1573.57 3604.94,1573.57C3605.08,1573.57 3605.22,1573.57 3605.36,1573.42C3608.61,1569.61 3610.73,1568.83 3612.93,1568.83C3617.38,1568.83 3620.21,1572.36 3620.21,1578.23C3620.21,1583.75 3617.66,1588.84 3611.23,1588.84C3607.62,1588.84 3605.36,1586.15 3603.59,1583.11C3603.45,1582.83 3603.31,1582.69 3603.1,1582.69C3602.46,1582.69 3601.68,1584.24 3601.68,1585.52C3601.68,1586.01 3601.76,1586.43 3602.04,1586.72C3604.3,1589.69 3607.27,1591.95 3611.23,1591.95C3619.64,1591.95 3623.04,1585.44 3623.04,1578.16C3623.04,1570.38 3618.65,1565.86 3613.42,1565.86C3610.17,1565.86 3607.91,1567.06 3605.93,1569.04L3607.2,1555.18L3616.82,1554.48L3620.56,1554.26ZM3645.03,1557.87C3643.68,1566.42 3638.95,1572.86 3633.5,1572.86C3630.32,1572.86 3628.62,1570.38 3628.62,1565.51C3628.62,1560.27 3632.02,1553.34 3637.96,1553.34C3641.49,1553.34 3642.91,1556.1 3643.61,1557.66C3643.76,1558.15 3644.04,1558.36 3644.32,1558.36C3644.53,1558.36 3644.82,1558.15 3645.03,1557.87Z" style="fill-rule:nonzero;"/>
        </g>
    </g>
</svg>
