<?xml version="1.0" encoding="UTF-8" standalone="no"?>
<!DOCTYPE svg PUBLIC "-//W3C//DTD SVG 1.1//EN" "http://www.w3.org/Graphics/SVG/1.1/DTD/svg11.dtd">
<svg width="100%" height="100%" viewBox="0 0 89 89" version="1.1" xmlns="http://www.w3.org/2000/svg" xmlns:xlink="http://www.w3.org/1999/xlink" xml:space="preserve" xmlns:serif="http://www.serif.com/" style="fill-rule:evenodd;clip-rule:evenodd;stroke-linejoin:round;stroke-miterlimit:2;">
    <g transform="matrix(1,0,0,1,-3493.28,-1581.51)">
        <g transform="matrix(1.41414,0,0,1.41429,-1389.33,-1046.26)">
            <path d="M3509.55,1920.38C3512.95,1920.38 3515.07,1917.84 3515.07,1914.87L3515.07,1863.54C3515.07,1860.07 3512.59,1858.02 3509.55,1858.02L3458.22,1858.02C3454.76,1858.02 3452.7,1860.35 3452.7,1863.54L3452.7,1914.87C3452.7,1918.05 3455.18,1920.38 3458.22,1920.38L3509.55,1920.38ZM3512.17,1915.15C3512.17,1916.71 3511.11,1917.49 3509.91,1917.49L3457.87,1917.49C3456.38,1917.49 3455.6,1916.42 3455.6,1915.15L3455.6,1863.18C3455.6,1861.77 3456.52,1860.92 3457.87,1860.92L3509.91,1860.92C3511.32,1860.92 3512.17,1861.98 3512.17,1863.18L3512.17,1915.15ZM3474.06,1886.23C3478.37,1882.84 3482.97,1877.75 3482.97,1875.98C3482.97,1875.34 3482.61,1874.92 3482.12,1874.92C3481.76,1874.92 3481.41,1875.06 3480.99,1875.56L3480.78,1875.84C3480.92,1875.49 3481.06,1875.06 3481.06,1874.78C3481.06,1874.14 3478.16,1868.63 3472.5,1868.63C3466.56,1868.63 3463.1,1873.08 3463.1,1878.1C3463.1,1881.85 3464.37,1884.25 3468.9,1886.8C3464.3,1890.33 3461.61,1894.22 3461.61,1899.38C3461.61,1905.47 3465.36,1910.13 3471.65,1910.13C3478.65,1910.13 3483.25,1905.61 3483.25,1898.61C3483.25,1893.09 3480.49,1889.49 3474.69,1886.52L3474.06,1886.23ZM3471.51,1888.21C3480,1891.61 3480.42,1896.77 3480.42,1898.89C3480.42,1903.77 3476.67,1907.09 3471.65,1907.09C3466.63,1907.09 3464.44,1903.13 3464.44,1899.24C3464.44,1895.14 3467.06,1891.82 3471.51,1888.21ZM3506.72,1871.53C3506.72,1870.54 3505.45,1869.26 3504.67,1869.12L3504.53,1869.12C3503.9,1869.12 3503.19,1869.48 3502.41,1869.55L3488.69,1870.61L3487.99,1870.61C3487.21,1870.61 3486.64,1870.54 3486.08,1870.54C3485.87,1870.54 3485.87,1870.68 3485.87,1870.89C3485.87,1871.6 3486.78,1873.79 3488.34,1873.79C3488.76,1873.79 3489.26,1873.72 3489.83,1873.65L3502.98,1872.38C3500.93,1877.47 3496.47,1888.99 3490.89,1907.23C3490.82,1907.59 3490.53,1908.08 3490.53,1908.58C3490.53,1909.07 3490.82,1909.57 3491.81,1909.71C3492.09,1909.71 3492.37,1909.78 3492.51,1909.78C3493.36,1909.78 3493.78,1909.57 3493.93,1908.93C3496.12,1898.47 3502.13,1882.49 3505.52,1874.42C3505.81,1873.72 3506.58,1872.66 3506.72,1871.74L3506.72,1871.53ZM3480,1876.69C3477.52,1879.52 3474.76,1882.41 3471.51,1884.82C3467.27,1882.63 3465.93,1881.07 3465.93,1878.1C3465.93,1874.78 3468.12,1871.53 3472.57,1871.53C3475.4,1871.53 3477.1,1873.29 3478.58,1876.05C3478.87,1876.62 3479.15,1876.83 3479.5,1876.83C3479.64,1876.83 3479.86,1876.76 3480,1876.69Z" style="fill-rule:nonzero;"/>
        </g>
    </g>
</svg>
