<?xml version="1.0" encoding="UTF-8" standalone="no"?>
<!DOCTYPE svg PUBLIC "-//W3C//DTD SVG 1.1//EN" "http://www.w3.org/Graphics/SVG/1.1/DTD/svg11.dtd">
<svg width="100%" height="100%" viewBox="0 0 89 89" version="1.1" xmlns="http://www.w3.org/2000/svg" xmlns:xlink="http://www.w3.org/1999/xlink" xml:space="preserve" xmlns:serif="http://www.serif.com/" style="fill-rule:evenodd;clip-rule:evenodd;stroke-linejoin:round;stroke-miterlimit:2;">
    <g transform="matrix(1,0,0,1,-3193.31,-381.509)">
        <g transform="matrix(1.41414,0,0,1.41429,-1389.33,-1046.26)">
            <path d="M3297.43,1071.9C3300.83,1071.9 3302.95,1069.35 3302.95,1066.38L3302.95,1015.05C3302.95,1011.59 3300.47,1009.54 3297.43,1009.54L3246.1,1009.54C3242.63,1009.54 3240.58,1011.87 3240.58,1015.05L3240.58,1066.38C3240.58,1069.57 3243.06,1071.9 3246.1,1071.9L3297.43,1071.9ZM3300.05,1066.67C3300.05,1068.22 3298.99,1069 3297.78,1069L3245.74,1069C3244.26,1069 3243.48,1067.94 3243.48,1066.67L3243.48,1014.7C3243.48,1013.28 3244.4,1012.44 3245.74,1012.44L3297.78,1012.44C3299.2,1012.44 3300.05,1013.5 3300.05,1014.7L3300.05,1066.67ZM3255.15,1023.96C3255.01,1023.75 3254.8,1023.54 3254.51,1023.54C3252.96,1023.54 3250.06,1032.94 3250.06,1041.85C3250.06,1053.52 3253.24,1062.07 3259.74,1062.07C3266.6,1062.07 3269.93,1052.1 3269.93,1040.36C3269.93,1028.84 3266.67,1020.43 3260.81,1020.43C3258.54,1020.43 3256.56,1021.84 3255.15,1023.96ZM3259.53,1059.03C3254.51,1059.03 3252.82,1051.11 3252.82,1041.78C3252.82,1029.48 3257.27,1023.32 3260.66,1023.32C3265.47,1023.32 3267.17,1032.02 3267.17,1039.94C3267.17,1049.63 3265.05,1059.03 3259.53,1059.03ZM3291.85,1051.82C3293.19,1051.82 3295.03,1051.96 3295.66,1051.96C3296.02,1051.96 3296.16,1051.61 3296.16,1051.18C3296.16,1050.19 3295.45,1048.57 3294.6,1048.57C3294.04,1048.57 3292.62,1048.85 3291.78,1048.92L3290.93,1048.99L3290.93,1037.18C3290.93,1035.77 3291.07,1033.01 3291.07,1032.09C3291.07,1031.1 3289.72,1030.46 3288.81,1030.46C3288.38,1030.46 3287.96,1030.68 3287.96,1031.03C3287.96,1032.38 3288.1,1036.05 3288.1,1037.18L3288.1,1049.13L3276.64,1049.41C3280.04,1042.63 3284.49,1033.43 3287.18,1027.14C3287.6,1026.22 3288.38,1024.88 3288.88,1023.96C3289.02,1023.82 3289.02,1023.61 3289.02,1023.39C3289.02,1022.19 3287.6,1020.5 3286.83,1020.5C3286.61,1020.5 3286.4,1020.57 3286.33,1020.85C3284.07,1027.92 3277.35,1041.78 3275.02,1046.38C3274.59,1047.15 3273.89,1048 3273.39,1048.99C3273.11,1049.34 3273.04,1049.77 3273.04,1050.12C3273.04,1051.46 3274.17,1052.74 3275.16,1052.74C3275.3,1052.74 3275.37,1052.67 3275.44,1052.67C3276.22,1052.45 3276.93,1052.31 3277.28,1052.31L3288.1,1051.96L3288.1,1055.07C3288.1,1055.92 3287.96,1059.17 3287.96,1060.09C3287.96,1061.08 3289.37,1061.72 3290.36,1061.72C3290.86,1061.72 3291.21,1061.51 3291.21,1061.15C3291.21,1059.81 3290.93,1057.55 3290.93,1055.21L3290.93,1051.82L3291.85,1051.82Z" style="fill-rule:nonzero;"/>
        </g>
    </g>
</svg>
