<?xml version="1.0" encoding="UTF-8" standalone="no"?>
<!DOCTYPE svg PUBLIC "-//W3C//DTD SVG 1.1//EN" "http://www.w3.org/Graphics/SVG/1.1/DTD/svg11.dtd">
<svg width="100%" height="100%" viewBox="0 0 89 89" version="1.1" xmlns="http://www.w3.org/2000/svg" xmlns:xlink="http://www.w3.org/1999/xlink" xml:space="preserve" xmlns:serif="http://www.serif.com/" style="fill-rule:evenodd;clip-rule:evenodd;stroke-linejoin:round;stroke-miterlimit:2;">
    <g transform="matrix(1,0,0,1,-3593.27,-531.509)">
        <g transform="matrix(1.41414,0,0,1.41429,-1389.33,-1046.26)">
            <path d="M3580.26,1177.96C3583.65,1177.96 3585.78,1175.41 3585.78,1172.44L3585.78,1121.11C3585.78,1117.65 3583.3,1115.6 3580.26,1115.6L3528.93,1115.6C3525.46,1115.6 3523.41,1117.93 3523.41,1121.11L3523.41,1172.44C3523.41,1175.63 3525.89,1177.96 3528.93,1177.96L3580.26,1177.96ZM3582.88,1172.73C3582.88,1174.28 3581.82,1175.06 3580.61,1175.06L3528.57,1175.06C3527.09,1175.06 3526.31,1174 3526.31,1172.73L3526.31,1120.76C3526.31,1119.34 3527.23,1118.5 3528.57,1118.5L3580.61,1118.5C3582.03,1118.5 3582.88,1119.56 3582.88,1120.76L3582.88,1172.73ZM3563.86,1143.81C3569.37,1139.64 3573.61,1135.04 3573.61,1133.56C3573.61,1132.92 3573.19,1132.5 3572.69,1132.5C3572.34,1132.5 3571.92,1132.64 3571.49,1133.13L3571.21,1133.41C3571.42,1133.06 3571.56,1132.64 3571.56,1132.35C3571.56,1132.14 3571.49,1131.93 3571.42,1131.79C3569.44,1128.75 3566.47,1126.2 3562.23,1126.2C3555.65,1126.2 3552.12,1130.66 3552.12,1135.68C3552.12,1139.42 3553.67,1141.83 3558.41,1144.38C3553.6,1147.91 3550.42,1151.8 3550.42,1156.96C3550.42,1163.04 3554.38,1167.71 3561.31,1167.71C3569.09,1167.71 3573.83,1163.18 3573.83,1156.18C3573.83,1150.67 3570.64,1147.06 3564.56,1144.09L3563.86,1143.81ZM3562.51,1146.35C3568.59,1149.25 3570.86,1152.29 3570.86,1156.46C3570.86,1161.34 3566.9,1164.67 3561.31,1164.67C3555.8,1164.67 3553.39,1160.71 3553.39,1156.82C3553.39,1152.72 3556.5,1149.39 3561.24,1145.79L3562.51,1146.35ZM3538.26,1160.92C3538.26,1162.12 3538.12,1165.02 3538.12,1165.94C3538.12,1166.86 3539.53,1167.5 3540.52,1167.5C3540.95,1167.5 3541.37,1167.35 3541.37,1166.93C3541.3,1165.44 3541.23,1162.12 3541.23,1160.57L3541.23,1132.07C3541.23,1130.44 3541.58,1129.45 3541.58,1128.54C3541.58,1127.48 3540.38,1126.41 3539.6,1126.41C3538.9,1126.41 3537.76,1128.04 3537.41,1128.39C3535.78,1129.74 3533.38,1131.22 3530.84,1132.35C3530.48,1132.5 3530.34,1132.71 3530.34,1132.92C3530.34,1133.56 3531.47,1134.19 3532.39,1134.19C3532.53,1134.19 3532.74,1134.19 3532.89,1134.12C3534.65,1133.56 3536.78,1132.64 3538.26,1131.65L3538.26,1160.92ZM3570.43,1134.26C3567.82,1137.09 3564.56,1139.99 3561.17,1142.39C3556.71,1140.2 3555.16,1138.65 3555.16,1135.68C3555.16,1132.35 3557.35,1129.1 3562.3,1129.1C3565.48,1129.1 3567.39,1130.87 3568.95,1133.63C3569.23,1134.19 3569.58,1134.4 3569.87,1134.4C3570.08,1134.4 3570.29,1134.33 3570.43,1134.26Z" style="fill-rule:nonzero;"/>
        </g>
    </g>
</svg>
