<?xml version="1.0" encoding="UTF-8" standalone="no"?>
<!DOCTYPE svg PUBLIC "-//W3C//DTD SVG 1.1//EN" "http://www.w3.org/Graphics/SVG/1.1/DTD/svg11.dtd">
<svg width="100%" height="100%" viewBox="0 0 89 89" version="1.1" xmlns="http://www.w3.org/2000/svg" xmlns:xlink="http://www.w3.org/1999/xlink" xml:space="preserve" xmlns:serif="http://www.serif.com/" style="fill-rule:evenodd;clip-rule:evenodd;stroke-linejoin:round;stroke-miterlimit:2;">
    <g transform="matrix(1,0,0,1,-3793.25,-2031.51)">
        <g transform="matrix(1.41414,0,0,1.41429,-1389.33,-1046.26)">
            <path d="M3721.67,2238.57C3725.07,2238.57 3727.19,2236.02 3727.19,2233.05L3727.19,2181.72C3727.19,2178.25 3724.71,2176.2 3721.67,2176.2L3670.34,2176.2C3666.88,2176.2 3664.83,2178.54 3664.83,2181.72L3664.83,2233.05C3664.83,2236.23 3667.3,2238.57 3670.34,2238.57L3721.67,2238.57ZM3724.29,2233.33C3724.29,2234.89 3723.23,2235.67 3722.03,2235.67L3669.99,2235.67C3668.5,2235.67 3667.72,2234.61 3667.72,2233.33L3667.72,2181.36C3667.72,2179.95 3668.64,2179.1 3669.99,2179.1L3722.03,2179.1C3723.44,2179.1 3724.29,2180.16 3724.29,2181.36L3724.29,2233.33ZM3695.51,2218.49L3688.3,2198.26C3687.88,2196.99 3687.31,2195.43 3687.1,2194.52C3686.96,2193.95 3686.04,2193.74 3685.19,2193.74C3684.13,2193.74 3683.14,2194.02 3683.14,2194.66C3683.14,2194.73 3683.14,2194.8 3683.21,2194.94C3683.92,2196.43 3684.55,2197.77 3685.05,2199.11L3692.76,2219.69C3693.39,2221.24 3693.39,2221.74 3694.03,2222.45C3694.52,2222.94 3695.37,2223.43 3696.15,2223.43C3696.71,2223.43 3697.28,2223.15 3697.56,2222.16C3697.92,2220.96 3698.41,2219.69 3698.91,2218.56L3707.04,2199.25C3707.46,2198.26 3708.38,2196.43 3708.95,2195.36C3709.02,2195.22 3709.09,2195.08 3709.09,2195.01C3709.09,2194.16 3707.6,2193.45 3706.47,2193.45C3705.91,2193.45 3705.48,2193.6 3705.34,2194.02C3704.92,2195.51 3704.42,2196.92 3703.86,2198.26L3695.51,2218.49Z" style="fill-rule:nonzero;"/>
        </g>
    </g>
</svg>
