<?xml version="1.0" encoding="UTF-8" standalone="no"?>
<!DOCTYPE svg PUBLIC "-//W3C//DTD SVG 1.1//EN" "http://www.w3.org/Graphics/SVG/1.1/DTD/svg11.dtd">
<svg width="100%" height="100%" viewBox="0 0 89 89" version="1.1" xmlns="http://www.w3.org/2000/svg" xmlns:xlink="http://www.w3.org/1999/xlink" xml:space="preserve" xmlns:serif="http://www.serif.com/" style="fill-rule:evenodd;clip-rule:evenodd;stroke-linejoin:round;stroke-miterlimit:2;">
    <g transform="matrix(1,0,0,1,-2893.34,-1581.51)">
        <g transform="matrix(1.41414,0,0,1.41429,-1389.33,-1046.26)">
            <path d="M3085.31,1920.38C3088.7,1920.38 3090.83,1917.84 3090.83,1914.87L3090.83,1863.54C3090.83,1860.07 3088.35,1858.02 3085.31,1858.02L3033.98,1858.02C3030.51,1858.02 3028.46,1860.35 3028.46,1863.54L3028.46,1914.87C3028.46,1918.05 3030.94,1920.38 3033.98,1920.38L3085.31,1920.38ZM3087.93,1915.15C3087.93,1916.71 3086.87,1917.49 3085.66,1917.49L3033.62,1917.49C3032.14,1917.49 3031.36,1916.42 3031.36,1915.15L3031.36,1863.18C3031.36,1861.77 3032.28,1860.92 3033.62,1860.92L3085.66,1860.92C3087.08,1860.92 3087.93,1861.98 3087.93,1863.18L3087.93,1915.15ZM3052.64,1886.23C3057.8,1882.2 3061.98,1877.39 3061.98,1875.98C3061.98,1875.34 3061.62,1874.92 3061.13,1874.92C3060.7,1874.92 3060.35,1875.06 3059.86,1875.56L3059.64,1875.84C3059.86,1875.49 3059.93,1875.06 3059.93,1874.78C3059.93,1874.57 3059.86,1874.35 3059.86,1874.21C3057.88,1871.17 3054.98,1868.63 3050.95,1868.63C3044.72,1868.63 3041.05,1873.08 3041.05,1878.1C3041.05,1881.85 3042.39,1884.25 3047.13,1886.8C3042.32,1890.33 3039.49,1894.22 3039.49,1899.38C3039.49,1905.47 3043.45,1910.13 3050.03,1910.13C3057.38,1910.13 3062.26,1905.61 3062.26,1898.61C3062.26,1893.09 3059.36,1889.49 3053.28,1886.52L3052.64,1886.23ZM3051.23,1888.78C3057.31,1891.68 3059.22,1894.72 3059.22,1898.89C3059.22,1903.77 3055.33,1907.09 3050.03,1907.09C3044.8,1907.09 3042.46,1903.13 3042.46,1899.24C3042.46,1895.14 3045.22,1891.82 3049.96,1888.21L3051.23,1888.78ZM3074.28,1903.34C3074.28,1904.55 3074.21,1907.44 3074.21,1908.36C3074.21,1909.28 3075.55,1909.92 3076.61,1909.92C3077.04,1909.92 3077.46,1909.78 3077.46,1909.35C3077.39,1907.87 3077.32,1904.55 3077.32,1902.99L3077.32,1874.5C3077.32,1872.87 3077.6,1871.88 3077.6,1870.96C3077.6,1869.9 3076.47,1868.84 3075.69,1868.84C3074.92,1868.84 3073.86,1870.47 3073.5,1870.82C3071.88,1872.16 3069.47,1873.65 3066.93,1874.78C3066.5,1874.92 3066.43,1875.13 3066.43,1875.34C3066.43,1875.98 3067.56,1876.62 3068.41,1876.62C3068.62,1876.62 3068.84,1876.62 3068.98,1876.55C3070.74,1875.98 3072.87,1875.06 3074.28,1874.07L3074.28,1903.34ZM3058.8,1876.69C3056.25,1879.52 3053.28,1882.41 3049.89,1884.82C3045.43,1882.63 3044.09,1881.07 3044.09,1878.1C3044.09,1874.78 3046.35,1871.53 3051.02,1871.53C3053.99,1871.53 3055.83,1873.29 3057.31,1876.05C3057.66,1876.62 3057.95,1876.83 3058.3,1876.83C3058.51,1876.83 3058.65,1876.76 3058.8,1876.69Z" style="fill-rule:nonzero;"/>
        </g>
    </g>
</svg>
