<?xml version="1.0" encoding="UTF-8" standalone="no"?>
<!DOCTYPE svg PUBLIC "-//W3C//DTD SVG 1.1//EN" "http://www.w3.org/Graphics/SVG/1.1/DTD/svg11.dtd">
<svg width="100%" height="100%" viewBox="0 0 89 89" version="1.1" xmlns="http://www.w3.org/2000/svg" xmlns:xlink="http://www.w3.org/1999/xlink" xml:space="preserve" xmlns:serif="http://www.serif.com/" style="fill-rule:evenodd;clip-rule:evenodd;stroke-linejoin:round;stroke-miterlimit:2;">
    <g transform="matrix(1,0,0,1,-3593.27,-1731.51)">
        <g transform="matrix(1.41414,0,0,1.41429,-1389.33,-1046.26)">
            <path d="M3580.26,2026.44C3583.65,2026.44 3585.78,2023.9 3585.78,2020.93L3585.78,1969.6C3585.78,1966.13 3583.3,1964.08 3580.26,1964.08L3528.93,1964.08C3525.46,1964.08 3523.41,1966.41 3523.41,1969.6L3523.41,2020.93C3523.41,2024.11 3525.89,2026.44 3528.93,2026.44L3580.26,2026.44ZM3582.88,2021.21C3582.88,2022.77 3581.82,2023.55 3580.61,2023.55L3528.57,2023.55C3527.09,2023.55 3526.31,2022.49 3526.31,2021.21L3526.31,1969.24C3526.31,1967.83 3527.23,1966.98 3528.57,1966.98L3580.61,1966.98C3582.03,1966.98 3582.88,1968.04 3582.88,1969.24L3582.88,2021.21ZM3568.38,1992.29C3570.78,1990.38 3577.29,1983.88 3577.29,1982.04C3577.29,1981.4 3576.94,1980.98 3576.44,1980.98C3576.09,1980.98 3575.73,1981.12 3575.31,1981.62L3575.03,1981.9C3575.24,1981.55 3575.38,1981.12 3575.38,1980.84C3575.38,1980.63 3575.31,1980.41 3575.24,1980.27C3573.33,1977.23 3570.64,1974.69 3566.83,1974.69C3560.89,1974.69 3557.42,1979.14 3557.42,1984.16C3557.42,1987.91 3558.69,1990.31 3563.22,1992.86C3558.69,1996.39 3555.94,2000.28 3555.94,2005.44C3555.94,2011.53 3559.68,2016.19 3565.98,2016.19C3572.91,2016.19 3577.5,2011.67 3577.5,2004.67C3577.5,1999.15 3574.82,1995.55 3569.02,1992.58L3568.38,1992.29ZM3545.54,2015.91C3546.74,2015.84 3547.52,2015.49 3547.52,2014.71C3548.16,2007.35 3550.85,1991.16 3552.97,1980.49L3553.6,1978.36L3553.6,1978.15C3553.6,1977.3 3552.61,1976.24 3551.55,1976.24C3550.49,1976.24 3550.78,1978.01 3550.42,1979.57C3549.71,1977.94 3547.45,1974.62 3542.64,1974.62C3535.86,1974.62 3530.76,1982.25 3530.76,1989.96C3530.76,1996.47 3533.88,2000.21 3538.47,2000.21C3542.08,2000.21 3545.83,1997.6 3547.95,1993.57C3547.1,1998.73 3546.04,2004.74 3545.4,2009.19C3545.33,2009.48 3544.34,2014.14 3544.34,2014.99C3544.34,2015.56 3544.55,2015.91 3545.4,2015.91L3545.54,2015.91ZM3549.43,1984.87C3547.95,1990.17 3544.27,1997.1 3538.4,1997.1C3535.22,1997.1 3533.59,1994.63 3533.59,1989.75C3533.59,1984.52 3536.99,1977.59 3542.93,1977.59C3546.39,1977.59 3547.88,1980.34 3548.51,1981.9C3548.72,1982.39 3548.94,1982.61 3549.22,1982.61C3549.5,1982.61 3549.71,1982.39 3550,1982.11C3549.78,1983.03 3549.57,1983.95 3549.43,1984.87ZM3565.84,1994.27C3574.32,1997.67 3574.67,2002.97 3574.67,2004.95C3574.67,2009.83 3571,2013.15 3565.98,2013.15C3560.96,2013.15 3558.76,2009.19 3558.76,2005.3C3558.76,2001.2 3561.38,1997.88 3565.84,1994.27ZM3574.25,1982.75C3571.85,1985.58 3569.09,1988.48 3565.76,1990.88C3561.59,1988.69 3560.32,1987.13 3560.32,1984.16C3560.32,1980.84 3562.44,1977.59 3566.9,1977.59C3569.72,1977.59 3571.42,1979.35 3572.84,1982.11C3573.19,1982.68 3573.47,1982.89 3573.76,1982.89C3573.97,1982.89 3574.11,1982.82 3574.25,1982.75Z" style="fill-rule:nonzero;"/>
        </g>
    </g>
</svg>
