<?xml version="1.0" encoding="UTF-8" standalone="no"?>
<!DOCTYPE svg PUBLIC "-//W3C//DTD SVG 1.1//EN" "http://www.w3.org/Graphics/SVG/1.1/DTD/svg11.dtd">
<svg width="100%" height="100%" viewBox="0 0 89 89" version="1.1" xmlns="http://www.w3.org/2000/svg" xmlns:xlink="http://www.w3.org/1999/xlink" xml:space="preserve" xmlns:serif="http://www.serif.com/" style="fill-rule:evenodd;clip-rule:evenodd;stroke-linejoin:round;stroke-miterlimit:2;">
    <g transform="matrix(1,0,0,1,-2893.34,-231.509)">
        <g transform="matrix(1.41414,0,0,1.41429,-1389.33,-1046.26)">
            <path d="M3085.31,965.839C3088.7,965.839 3090.83,963.294 3090.83,960.324L3090.83,908.991C3090.83,905.526 3088.35,903.476 3085.31,903.476L3033.98,903.476C3030.51,903.476 3028.46,905.809 3028.46,908.991L3028.46,960.324C3028.46,963.506 3030.94,965.839 3033.98,965.839L3085.31,965.839ZM3087.93,960.607C3087.93,962.162 3086.87,962.94 3085.66,962.94L3033.62,962.94C3032.14,962.94 3031.36,961.88 3031.36,960.607L3031.36,908.637C3031.36,907.223 3032.28,906.375 3033.62,906.375L3085.66,906.375C3087.08,906.375 3087.93,907.435 3087.93,908.637L3087.93,960.607ZM3059.15,948.799C3059.15,950.001 3059.01,952.9 3059.01,953.819C3059.01,954.738 3060.56,955.375 3061.69,955.375C3062.19,955.375 3062.61,955.233 3062.61,954.809C3062.54,953.324 3062.47,950.001 3062.47,948.445L3062.47,920.445C3062.47,918.819 3062.83,917.334 3062.83,916.415C3062.83,915.354 3061.55,914.294 3060.7,914.294C3059.86,914.294 3058.72,915.92 3058.23,916.273C3056.46,917.758 3053.07,919.597 3050.17,920.728C3049.74,920.869 3049.6,921.082 3049.6,921.294C3049.6,921.859 3050.88,922.566 3051.94,922.566C3052.15,922.566 3052.29,922.566 3052.43,922.496C3054.27,922.001 3057.38,920.657 3059.15,919.526L3059.15,948.799Z" style="fill-rule:nonzero;"/>
        </g>
    </g>
</svg>
