<?xml version="1.0" encoding="UTF-8" standalone="no"?>
<!DOCTYPE svg PUBLIC "-//W3C//DTD SVG 1.1//EN" "http://www.w3.org/Graphics/SVG/1.1/DTD/svg11.dtd">
<svg width="100%" height="100%" viewBox="0 0 89 89" version="1.1" xmlns="http://www.w3.org/2000/svg" xmlns:xlink="http://www.w3.org/1999/xlink" xml:space="preserve" xmlns:serif="http://www.serif.com/" style="fill-rule:evenodd;clip-rule:evenodd;stroke-linejoin:round;stroke-miterlimit:2;">
    <g transform="matrix(1,0,0,1,-3093.32,-681.509)">
        <g transform="matrix(1.41414,0,0,1.41429,-1389.33,-1046.26)">
            <path d="M3226.72,1284.02C3230.12,1284.02 3232.24,1281.48 3232.24,1278.51L3232.24,1227.17C3232.24,1223.71 3229.76,1221.66 3226.72,1221.66L3175.39,1221.66C3171.93,1221.66 3169.88,1223.99 3169.88,1227.17L3169.88,1278.51C3169.88,1281.69 3172.35,1284.02 3175.39,1284.02L3226.72,1284.02ZM3229.34,1278.79C3229.34,1280.34 3228.28,1281.12 3227.08,1281.12L3175.04,1281.12C3173.55,1281.12 3172.78,1280.06 3172.78,1278.79L3172.78,1226.82C3172.78,1225.4 3173.69,1224.56 3175.04,1224.56L3227.08,1224.56C3228.49,1224.56 3229.34,1225.62 3229.34,1226.82L3229.34,1278.79ZM3214.28,1250.58C3218.45,1249.3 3221.63,1245.77 3221.63,1240.96C3221.63,1235.44 3218.1,1232.19 3212.8,1232.19C3208.69,1232.19 3205.51,1234.03 3202.97,1237.28C3202.68,1237.57 3202.54,1237.92 3202.54,1238.41C3202.54,1238.98 3202.68,1239.62 3203.32,1240.39C3203.53,1240.75 3203.74,1240.82 3203.96,1240.82C3204.45,1240.82 3204.81,1240.11 3205.02,1239.9C3207.42,1236.65 3209.9,1235.16 3212.87,1235.16C3216.54,1235.16 3218.73,1237.5 3218.73,1241.31C3218.73,1246.05 3213.29,1249.59 3207.85,1250.01C3207.49,1250.08 3207.28,1250.43 3207.28,1250.86C3207.28,1251.78 3207.99,1253.12 3208.84,1253.12C3208.91,1253.12 3208.98,1253.05 3209.12,1253.05C3209.68,1252.91 3210.74,1252.7 3211.66,1252.63C3212.09,1252.56 3212.44,1252.56 3212.8,1252.56C3217.11,1252.56 3220.22,1255.81 3220.22,1260.48C3220.22,1265.71 3217.6,1270.73 3211.03,1270.73C3207.63,1270.73 3205.51,1268.75 3203.39,1265.78C3203.25,1265.57 3203.11,1265.42 3202.97,1265.42C3202.19,1265.42 3201.55,1266.91 3201.55,1268.04C3201.55,1268.54 3201.62,1268.89 3201.84,1269.17C3204.45,1272.14 3207.35,1273.77 3211.03,1273.77C3219.58,1273.77 3223.12,1267.62 3223.12,1260.4C3223.12,1254.32 3219.23,1250.58 3214.85,1250.58L3214.28,1250.58ZM3179.63,1273.06C3180.91,1272.78 3183.38,1272.35 3187.27,1272.35C3193.56,1272.35 3197.03,1272.71 3197.95,1272.78C3198.37,1272.78 3198.51,1272.5 3198.51,1272C3198.51,1271.01 3197.73,1269.45 3197.03,1269.45C3196.39,1269.45 3194.69,1269.53 3193.85,1269.53C3191.8,1269.53 3190.24,1269.45 3187.84,1269.45C3185.93,1269.45 3183.1,1269.6 3181.26,1269.81C3182.96,1265.99 3185.93,1260.26 3190.31,1255.74C3194.91,1250.93 3198.16,1246.9 3198.16,1241.67C3198.16,1236.15 3194.69,1232.19 3189.25,1232.19C3181.4,1232.19 3178.57,1239.26 3178.57,1240.25C3178.57,1241.74 3180.13,1242.59 3180.34,1242.59C3180.84,1242.59 3181.26,1242.02 3181.47,1241.24C3182.6,1237.85 3185.29,1235.16 3189.18,1235.16C3192.93,1235.16 3195.12,1238.13 3195.12,1241.67C3195.12,1245.41 3192.5,1248.95 3188.47,1253.33C3184.3,1257.79 3180.84,1263.94 3178.93,1268.04C3178.64,1268.61 3178.36,1269.1 3177.94,1269.74C3177.8,1269.95 3177.72,1270.23 3177.72,1270.59C3177.72,1271.72 3178.57,1273.06 3179.42,1273.06L3179.63,1273.06Z" style="fill-rule:nonzero;"/>
        </g>
    </g>
</svg>
