<?xml version="1.0" encoding="UTF-8" standalone="no"?>
<!DOCTYPE svg PUBLIC "-//W3C//DTD SVG 1.1//EN" "http://www.w3.org/Graphics/SVG/1.1/DTD/svg11.dtd">
<svg width="100%" height="100%" viewBox="0 0 89 89" version="1.1" xmlns="http://www.w3.org/2000/svg" xmlns:xlink="http://www.w3.org/1999/xlink" xml:space="preserve" xmlns:serif="http://www.serif.com/" style="fill-rule:evenodd;clip-rule:evenodd;stroke-linejoin:round;stroke-miterlimit:2;">
    <g transform="matrix(1,0,0,1,-3093.32,-1131.51)">
        <g transform="matrix(1.41414,0,0,1.41429,-1389.33,-1046.26)">
            <path d="M3226.72,1602.2C3230.12,1602.2 3232.24,1599.66 3232.24,1596.69L3232.24,1545.35C3232.24,1541.89 3229.76,1539.84 3226.72,1539.84L3175.39,1539.84C3171.93,1539.84 3169.88,1542.17 3169.88,1545.35L3169.88,1596.69C3169.88,1599.87 3172.35,1602.2 3175.39,1602.2L3226.72,1602.2ZM3229.34,1596.97C3229.34,1598.53 3228.28,1599.3 3227.08,1599.3L3175.04,1599.3C3173.55,1599.3 3172.78,1598.24 3172.78,1596.97L3172.78,1545C3172.78,1543.59 3173.69,1542.74 3175.04,1542.74L3227.08,1542.74C3228.49,1542.74 3229.34,1543.8 3229.34,1545L3229.34,1596.97ZM3197.31,1554.26C3197.66,1554.26 3197.81,1553.91 3197.81,1553.49C3197.81,1552.57 3197.1,1551.08 3196.46,1551.08L3196.32,1551.08C3195.47,1551.29 3194.06,1551.36 3193.14,1551.43L3184.02,1552.07C3183.31,1551.72 3182.6,1551.43 3182.11,1551.43C3181.68,1551.43 3181.47,1551.58 3181.47,1552.07C3181.47,1552.78 3181.4,1553.77 3181.33,1554.55L3180.13,1568.48C3180.06,1568.76 3179.63,1570.6 3179.63,1571.09C3179.63,1572.51 3180.84,1573.57 3181.61,1573.57C3182.11,1573.57 3183.31,1572.08 3183.38,1571.94C3185.01,1570.1 3187.13,1568.83 3189.67,1568.83C3194.06,1568.83 3196.89,1572.36 3196.89,1578.23C3196.89,1583.75 3194.41,1588.84 3187.98,1588.84C3184.37,1588.84 3182.04,1586.15 3180.27,1583.11C3180.2,1582.83 3179.99,1582.69 3179.85,1582.69C3179.14,1582.69 3178.36,1584.24 3178.36,1585.52C3178.36,1587.35 3183.03,1591.95 3187.98,1591.95C3196.39,1591.95 3199.78,1585.44 3199.78,1578.16C3199.78,1570.38 3195.33,1565.86 3190.17,1565.86C3186.92,1565.86 3184.65,1567.06 3182.67,1569.04L3183.95,1555.18L3193.56,1554.48L3197.31,1554.26ZM3214.56,1568.76C3218.73,1567.49 3221.92,1563.95 3221.92,1559.14C3221.92,1553.63 3218.38,1550.38 3213.15,1550.38C3207.21,1550.38 3202.83,1555.11 3202.83,1556.6C3202.83,1557.8 3203.89,1559 3204.31,1559C3204.81,1559 3205.16,1558.29 3205.3,1558.08C3207.78,1554.83 3210.25,1553.34 3213.15,1553.34C3216.9,1553.34 3219.02,1555.68 3219.02,1559.5C3219.02,1563.74 3214.28,1567.7 3208.2,1568.19C3207.78,1568.26 3207.63,1568.62 3207.63,1569.04C3207.63,1569.96 3208.27,1571.3 3209.12,1571.3C3209.26,1571.3 3209.33,1571.23 3209.4,1571.23C3211.38,1570.74 3212.51,1570.74 3213.15,1570.74C3217.39,1570.74 3220.5,1573.99 3220.5,1578.66C3220.5,1583.89 3217.89,1588.91 3211.31,1588.91C3207.92,1588.91 3205.8,1586.93 3203.74,1583.96C3203.6,1583.75 3203.46,1583.61 3203.25,1583.61C3202.54,1583.61 3201.91,1585.09 3201.91,1586.22C3201.91,1586.72 3201.91,1587.07 3202.19,1587.35C3204.81,1590.32 3207.7,1591.95 3211.31,1591.95C3219.87,1591.95 3223.4,1585.8 3223.4,1578.59C3223.4,1572.51 3219.51,1568.76 3215.2,1568.76L3214.56,1568.76Z" style="fill-rule:nonzero;"/>
        </g>
    </g>
</svg>
