<?xml version="1.0" encoding="UTF-8" standalone="no"?>
<!DOCTYPE svg PUBLIC "-//W3C//DTD SVG 1.1//EN" "http://www.w3.org/Graphics/SVG/1.1/DTD/svg11.dtd">
<svg width="100%" height="100%" viewBox="0 0 89 89" version="1.1" xmlns="http://www.w3.org/2000/svg" xmlns:xlink="http://www.w3.org/1999/xlink" xml:space="preserve" xmlns:serif="http://www.serif.com/" style="fill-rule:evenodd;clip-rule:evenodd;stroke-linejoin:round;stroke-miterlimit:2;">
    <g transform="matrix(1,0,0,1,-3093.32,-531.509)">
        <g transform="matrix(1.41414,0,0,1.41429,-1389.33,-1046.26)">
            <path d="M3226.72,1177.96C3230.12,1177.96 3232.24,1175.41 3232.24,1172.44L3232.24,1121.11C3232.24,1117.65 3229.76,1115.6 3226.72,1115.6L3175.39,1115.6C3171.93,1115.6 3169.88,1117.93 3169.88,1121.11L3169.88,1172.44C3169.88,1175.63 3172.35,1177.96 3175.39,1177.96L3226.72,1177.96ZM3229.34,1172.73C3229.34,1174.28 3228.28,1175.06 3227.08,1175.06L3175.04,1175.06C3173.55,1175.06 3172.78,1174 3172.78,1172.73L3172.78,1120.76C3172.78,1119.34 3173.69,1118.5 3175.04,1118.5L3227.08,1118.5C3228.49,1118.5 3229.34,1119.56 3229.34,1120.76L3229.34,1172.73ZM3211.24,1144.52C3215.69,1143.24 3219.02,1139.71 3219.02,1134.9C3219.02,1129.38 3215.27,1126.13 3209.76,1126.13C3205.37,1126.13 3202.05,1127.97 3199.36,1131.22C3199.08,1131.51 3198.87,1131.86 3198.87,1132.35C3198.87,1133.49 3199.86,1134.76 3200.42,1134.76C3200.92,1134.76 3201.34,1134.05 3201.48,1133.84C3204.1,1130.59 3206.64,1129.1 3209.83,1129.1C3213.71,1129.1 3215.98,1131.43 3215.98,1135.25C3215.98,1140.41 3209.68,1143.53 3204.52,1143.95C3204.1,1144.02 3203.96,1144.38 3203.96,1144.8C3203.96,1145.72 3204.59,1147.06 3205.51,1147.06C3205.65,1147.06 3205.72,1146.99 3205.87,1146.99C3206.43,1146.85 3207.56,1146.64 3208.55,1146.57C3208.98,1146.5 3209.33,1146.5 3209.76,1146.5C3214.28,1146.5 3217.53,1149.75 3217.53,1154.41C3217.53,1159.65 3214.42,1164.67 3207.49,1164.67C3203.6,1164.67 3201.27,1162.69 3199.08,1159.72C3198.87,1159.51 3198.72,1159.36 3198.58,1159.36C3197.81,1159.36 3197.1,1160.85 3197.1,1161.98C3197.1,1162.48 3197.17,1162.83 3197.38,1163.11C3200.14,1166.08 3203.25,1167.71 3207.49,1167.71C3216.54,1167.71 3220.57,1161.56 3220.57,1154.34C3220.57,1148.26 3216.47,1144.52 3211.88,1144.52L3211.24,1144.52ZM3186.07,1160.92C3186.07,1162.12 3185.93,1165.02 3185.93,1165.94C3185.93,1166.86 3187.34,1167.5 3188.33,1167.5C3188.83,1167.5 3189.18,1167.35 3189.18,1166.93C3189.11,1165.44 3189.04,1162.12 3189.04,1160.57L3189.04,1132.07C3189.04,1130.44 3189.39,1129.45 3189.39,1128.54C3189.39,1127.48 3188.19,1126.41 3187.48,1126.41C3186.7,1126.41 3185.64,1128.04 3185.22,1128.39C3183.66,1129.74 3181.19,1131.22 3178.64,1132.35C3178.29,1132.5 3178.15,1132.71 3178.15,1132.92C3178.15,1133.56 3179.28,1134.19 3180.2,1134.19C3180.34,1134.19 3180.55,1134.19 3180.69,1134.12C3182.46,1133.56 3184.58,1132.64 3186.07,1131.65L3186.07,1160.92Z" style="fill-rule:nonzero;"/>
        </g>
    </g>
</svg>
