<?xml version="1.0" encoding="UTF-8" standalone="no"?>
<!DOCTYPE svg PUBLIC "-//W3C//DTD SVG 1.1//EN" "http://www.w3.org/Graphics/SVG/1.1/DTD/svg11.dtd">
<svg width="100%" height="100%" viewBox="0 0 89 89" version="1.1" xmlns="http://www.w3.org/2000/svg" xmlns:xlink="http://www.w3.org/1999/xlink" xml:space="preserve" xmlns:serif="http://www.serif.com/" style="fill-rule:evenodd;clip-rule:evenodd;stroke-linejoin:round;stroke-miterlimit:2;">
    <g transform="matrix(1,0,0,1,-3693.26,-381.509)">
        <g transform="matrix(1.41414,0,0,1.41429,-1389.33,-1046.26)">
            <path d="M3650.97,1071.9C3654.36,1071.9 3656.48,1069.35 3656.48,1066.38L3656.48,1015.05C3656.48,1011.59 3654.01,1009.54 3650.97,1009.54L3599.63,1009.54C3596.17,1009.54 3594.12,1011.87 3594.12,1015.05L3594.12,1066.38C3594.12,1069.57 3596.59,1071.9 3599.63,1071.9L3650.97,1071.9ZM3653.58,1066.67C3653.58,1068.22 3652.52,1069 3651.32,1069L3599.28,1069C3597.8,1069 3597.02,1067.94 3597.02,1066.67L3597.02,1014.7C3597.02,1013.28 3597.94,1012.44 3599.28,1012.44L3651.32,1012.44C3652.73,1012.44 3653.58,1013.5 3653.58,1014.7L3653.58,1066.67ZM3607.98,1023.96C3607.84,1023.75 3607.62,1023.54 3607.27,1023.54C3606,1023.54 3602.89,1032.23 3602.89,1041.85C3602.89,1053.52 3606.07,1062.07 3612.57,1062.07C3619.36,1062.07 3622.68,1052.1 3622.68,1040.36C3622.68,1028.84 3619.5,1020.43 3613.63,1020.43C3611.37,1020.43 3609.39,1021.84 3607.98,1023.96ZM3641.07,1061.65C3642.27,1061.58 3643.05,1061.22 3643.05,1060.44C3643.68,1053.23 3646.51,1036.19 3648.49,1026.22L3649.13,1024.1L3649.13,1023.89C3649.13,1023.04 3648.14,1021.98 3647.08,1021.98C3646.02,1021.98 3646.3,1023.75 3645.95,1025.3C3645.24,1023.68 3642.98,1020.35 3638.17,1020.35C3631.38,1020.35 3626.29,1027.99 3626.29,1035.7C3626.29,1042.2 3629.4,1045.95 3634,1045.95C3637.6,1045.95 3641.35,1043.33 3643.47,1039.3C3642.62,1044.46 3641.56,1050.48 3640.93,1054.93C3640.71,1055.92 3640.43,1057.69 3640.15,1059.31C3640.01,1059.81 3639.87,1060.3 3639.87,1060.73C3639.87,1061.29 3640.15,1061.65 3641,1061.65L3641.07,1061.65ZM3612.36,1059.03C3607.27,1059.03 3605.64,1051.11 3605.64,1041.78C3605.64,1029.48 3610.1,1023.32 3613.49,1023.32C3618.3,1023.32 3620,1032.02 3620,1039.94C3620,1049.63 3617.88,1059.03 3612.36,1059.03ZM3645.52,1027.85C3644.25,1033.22 3644.25,1033.29 3643.54,1034.64C3641,1039.59 3638.31,1042.84 3633.93,1042.84C3630.74,1042.84 3629.12,1040.36 3629.12,1035.49C3629.12,1030.25 3632.51,1023.32 3638.45,1023.32C3641.92,1023.32 3643.4,1026.08 3644.04,1027.64C3644.25,1028.13 3644.46,1028.34 3644.74,1028.34C3645.03,1028.34 3645.24,1028.13 3645.52,1027.85Z" style="fill-rule:nonzero;"/>
        </g>
    </g>
</svg>
