<?xml version="1.0" encoding="UTF-8" standalone="no"?>
<!DOCTYPE svg PUBLIC "-//W3C//DTD SVG 1.1//EN" "http://www.w3.org/Graphics/SVG/1.1/DTD/svg11.dtd">
<svg width="100%" height="100%" viewBox="0 0 89 89" version="1.1" xmlns="http://www.w3.org/2000/svg" xmlns:xlink="http://www.w3.org/1999/xlink" xml:space="preserve" xmlns:serif="http://www.serif.com/" style="fill-rule:evenodd;clip-rule:evenodd;stroke-linejoin:round;stroke-miterlimit:2;">
    <g transform="matrix(1,0,0,1,-3193.31,-2031.51)">
        <g transform="matrix(1.41414,0,0,1.41429,-1389.33,-1046.26)">
            <path d="M3297.43,2238.57C3300.83,2238.57 3302.95,2236.02 3302.95,2233.05L3302.95,2181.72C3302.95,2178.25 3300.47,2176.2 3297.43,2176.2L3246.1,2176.2C3242.63,2176.2 3240.58,2178.54 3240.58,2181.72L3240.58,2233.05C3240.58,2236.23 3243.06,2238.57 3246.1,2238.57L3297.43,2238.57ZM3300.05,2233.33C3300.05,2234.89 3298.99,2235.67 3297.78,2235.67L3245.74,2235.67C3244.26,2235.67 3243.48,2234.61 3243.48,2233.33L3243.48,2181.36C3243.48,2179.95 3244.4,2179.1 3245.74,2179.1L3297.78,2179.1C3299.2,2179.1 3300.05,2180.16 3300.05,2181.36L3300.05,2233.33ZM3260.59,2221.17C3260.59,2223.29 3260.45,2225.56 3260.45,2226.55C3260.45,2227.47 3262.01,2228.17 3263.07,2228.17C3263.56,2228.17 3263.99,2227.96 3263.99,2227.61C3263.99,2226.19 3263.78,2223.72 3263.78,2221.24L3263.78,2214.6C3265.4,2217.35 3268.87,2218.77 3271.91,2218.77C3280.11,2218.77 3285.84,2210.21 3285.84,2201.16C3285.84,2193.39 3282.16,2188.79 3275.65,2188.79C3270.99,2188.79 3265.83,2191.76 3263.85,2196.21C3263.85,2196.21 3263.99,2191.55 3263.99,2190.56C3263.99,2189.64 3262.36,2188.93 3261.3,2188.93C3260.73,2188.93 3260.38,2189.14 3260.38,2189.5C3260.45,2190.91 3260.59,2193.31 3260.59,2195.79L3260.59,2221.17ZM3264.06,2202.72C3265.33,2196.43 3270.56,2191.76 3275.65,2191.76C3279.76,2191.76 3282.3,2195.01 3282.3,2201.45C3282.3,2208.8 3277.92,2215.87 3271.48,2215.87C3269.36,2215.87 3267.17,2214.88 3265.54,2212.62C3265.12,2211.98 3264.62,2211.7 3264.2,2211.7C3264.06,2211.7 3263.92,2211.77 3263.78,2211.84C3263.78,2207.74 3263.78,2203.78 3264.06,2202.72Z" style="fill-rule:nonzero;"/>
        </g>
    </g>
</svg>
