<?xml version="1.0" encoding="UTF-8" standalone="no"?>
<!DOCTYPE svg PUBLIC "-//W3C//DTD SVG 1.1//EN" "http://www.w3.org/Graphics/SVG/1.1/DTD/svg11.dtd">
<svg width="100%" height="100%" viewBox="0 0 89 89" version="1.1" xmlns="http://www.w3.org/2000/svg" xmlns:xlink="http://www.w3.org/1999/xlink" xml:space="preserve" xmlns:serif="http://www.serif.com/" style="fill-rule:evenodd;clip-rule:evenodd;stroke-linejoin:round;stroke-miterlimit:2;">
    <g transform="matrix(1,0,0,1,-3593.27,-381.509)">
        <g transform="matrix(1.41414,0,0,1.41429,-1389.33,-1046.26)">
            <path d="M3580.26,1071.9C3583.65,1071.9 3585.78,1069.35 3585.78,1066.38L3585.78,1015.05C3585.78,1011.59 3583.3,1009.54 3580.26,1009.54L3528.93,1009.54C3525.46,1009.54 3523.41,1011.87 3523.41,1015.05L3523.41,1066.38C3523.41,1069.57 3525.89,1071.9 3528.93,1071.9L3580.26,1071.9ZM3582.88,1066.67C3582.88,1068.22 3581.82,1069 3580.61,1069L3528.57,1069C3527.09,1069 3526.31,1067.94 3526.31,1066.67L3526.31,1014.7C3526.31,1013.28 3527.23,1012.44 3528.57,1012.44L3580.61,1012.44C3582.03,1012.44 3582.88,1013.5 3582.88,1014.7L3582.88,1066.67ZM3538.19,1023.96C3538.12,1023.75 3537.84,1023.54 3537.55,1023.54C3536.07,1023.54 3533.17,1032.3 3533.17,1041.85C3533.17,1053.52 3536.28,1062.07 3542.78,1062.07C3549.64,1062.07 3552.97,1052.1 3552.97,1040.36C3552.97,1028.84 3549.78,1020.43 3543.92,1020.43C3541.58,1020.43 3539.67,1021.84 3538.19,1023.96ZM3568.59,1038.03C3573.4,1034.14 3577.5,1029.26 3577.5,1027.78C3577.5,1027.14 3577.15,1026.72 3576.65,1026.72C3576.3,1026.72 3575.95,1026.86 3575.52,1027.35L3575.24,1027.64C3575.45,1027.28 3575.59,1026.86 3575.59,1026.58C3575.59,1026.36 3575.52,1026.15 3575.45,1026.01C3573.54,1022.97 3570.86,1020.43 3567.04,1020.43C3561.1,1020.43 3557.7,1024.88 3557.7,1029.9C3557.7,1033.65 3558.91,1036.05 3563.43,1038.6C3558.91,1042.13 3556.15,1046.02 3556.15,1051.18C3556.15,1057.26 3559.9,1061.93 3566.19,1061.93C3573.12,1061.93 3577.71,1057.4 3577.71,1050.4C3577.71,1044.89 3575.03,1041.28 3569.23,1038.31L3568.59,1038.03ZM3542.64,1059.03C3537.55,1059.03 3535.86,1051.11 3535.86,1041.78C3535.86,1029.48 3540.31,1023.32 3543.7,1023.32C3548.58,1023.32 3550.28,1032.02 3550.28,1039.94C3550.28,1049.63 3548.16,1059.03 3542.64,1059.03ZM3566.05,1040.01C3574.53,1043.4 3574.89,1048.71 3574.89,1050.69C3574.89,1055.57 3571.21,1058.89 3566.19,1058.89C3561.17,1058.89 3558.98,1054.93 3558.98,1051.04C3558.98,1046.94 3561.59,1043.62 3566.05,1040.01ZM3574.46,1028.49C3572.06,1031.31 3569.3,1034.21 3565.98,1036.62C3561.81,1034.42 3560.53,1032.87 3560.53,1029.9C3560.53,1026.58 3562.65,1023.32 3567.11,1023.32C3569.94,1023.32 3571.63,1025.09 3573.12,1027.85C3573.4,1028.41 3573.68,1028.63 3573.97,1028.63C3574.18,1028.63 3574.32,1028.56 3574.46,1028.49Z" style="fill-rule:nonzero;"/>
        </g>
    </g>
</svg>
