<?xml version="1.0" encoding="UTF-8" standalone="no"?>
<!DOCTYPE svg PUBLIC "-//W3C//DTD SVG 1.1//EN" "http://www.w3.org/Graphics/SVG/1.1/DTD/svg11.dtd">
<svg width="100%" height="100%" viewBox="0 0 89 89" version="1.1" xmlns="http://www.w3.org/2000/svg" xmlns:xlink="http://www.w3.org/1999/xlink" xml:space="preserve" xmlns:serif="http://www.serif.com/" style="fill-rule:evenodd;clip-rule:evenodd;stroke-linejoin:round;stroke-miterlimit:2;">
    <g transform="matrix(1,0,0,1,-3093.32,-1731.51)">
        <g transform="matrix(1.41414,0,0,1.41429,-1389.33,-1046.26)">
            <path d="M3226.72,2026.44C3230.12,2026.44 3232.24,2023.9 3232.24,2020.93L3232.24,1969.6C3232.24,1966.13 3229.76,1964.08 3226.72,1964.08L3175.39,1964.08C3171.93,1964.08 3169.88,1966.41 3169.88,1969.6L3169.88,2020.93C3169.88,2024.11 3172.35,2026.44 3175.39,2026.44L3226.72,2026.44ZM3229.34,2021.21C3229.34,2022.77 3228.28,2023.55 3227.08,2023.55L3175.04,2023.55C3173.55,2023.55 3172.78,2022.49 3172.78,2021.21L3172.78,1969.24C3172.78,1967.83 3173.69,1966.98 3175.04,1966.98L3227.08,1966.98C3228.49,1966.98 3229.34,1968.04 3229.34,1969.24L3229.34,2021.21ZM3192.36,2015.91C3193.56,2015.84 3194.34,2015.49 3194.34,2014.71C3194.98,2007.35 3197.66,1991.16 3199.78,1980.49L3200.42,1978.36L3200.42,1978.15C3200.42,1977.3 3199.43,1976.24 3198.37,1976.24C3197.31,1976.24 3197.59,1978.01 3197.24,1979.57C3196.53,1977.94 3194.27,1974.62 3189.46,1974.62C3182.67,1974.62 3177.58,1982.25 3177.58,1989.96C3177.58,1996.47 3180.69,2000.21 3185.29,2000.21C3188.9,2000.21 3192.64,1997.6 3194.76,1993.57C3193.92,1998.73 3192.86,2004.74 3192.22,2009.19C3192.15,2009.48 3191.16,2014.14 3191.16,2014.99C3191.16,2015.56 3191.37,2015.91 3192.22,2015.91L3192.36,2015.91ZM3215.13,1993C3219.3,1991.73 3222.48,1988.19 3222.48,1983.38C3222.48,1977.87 3218.95,1974.62 3213.71,1974.62C3209.61,1974.62 3206.43,1976.46 3203.89,1979.71C3203.6,1979.99 3203.46,1980.34 3203.46,1980.84C3203.46,1981.4 3203.6,1982.04 3204.24,1982.82C3204.45,1983.17 3204.66,1983.24 3204.88,1983.24C3205.37,1983.24 3205.72,1982.54 3205.94,1982.32C3208.34,1979.07 3210.82,1977.59 3213.78,1977.59C3217.46,1977.59 3219.65,1979.92 3219.65,1983.74C3219.65,1988.48 3214.42,1992.01 3208.76,1992.43C3208.41,1992.51 3208.2,1992.86 3208.2,1993.28C3208.2,1994.2 3208.91,1995.55 3209.76,1995.55C3209.83,1995.55 3209.9,1995.48 3210.04,1995.48C3210.6,1995.33 3211.66,1995.12 3212.58,1995.05C3213.01,1994.98 3213.36,1994.98 3213.71,1994.98C3218.03,1994.98 3221.07,1998.23 3221.07,2002.9C3221.07,2008.13 3218.52,2013.15 3211.88,2013.15C3208.48,2013.15 3206.43,2011.17 3204.31,2008.2C3204.17,2007.99 3204.03,2007.85 3203.89,2007.85C3203.11,2007.85 3202.47,2009.33 3202.47,2010.47C3202.47,2010.96 3202.54,2011.31 3202.76,2011.6C3205.37,2014.57 3208.27,2016.19 3211.88,2016.19C3220.5,2016.19 3223.97,2010.04 3223.97,2002.83C3223.97,1996.75 3220.15,1993 3215.76,1993L3215.13,1993ZM3196.25,1984.87C3194.76,1990.17 3191.09,1997.1 3185.22,1997.1C3182.04,1997.1 3180.41,1994.63 3180.41,1989.75C3180.41,1984.52 3183.81,1977.59 3189.74,1977.59C3193.21,1977.59 3194.69,1980.34 3195.33,1981.9C3195.54,1982.39 3195.76,1982.61 3196.04,1982.61C3196.32,1982.61 3196.53,1982.39 3196.82,1982.11C3196.6,1983.03 3196.39,1983.95 3196.25,1984.87Z" style="fill-rule:nonzero;"/>
        </g>
    </g>
</svg>
