<?xml version="1.0" encoding="UTF-8" standalone="no"?>
<!DOCTYPE svg PUBLIC "-//W3C//DTD SVG 1.1//EN" "http://www.w3.org/Graphics/SVG/1.1/DTD/svg11.dtd">
<svg width="100%" height="100%" viewBox="0 0 89 89" version="1.1" xmlns="http://www.w3.org/2000/svg" xmlns:xlink="http://www.w3.org/1999/xlink" xml:space="preserve" xmlns:serif="http://www.serif.com/" style="fill-rule:evenodd;clip-rule:evenodd;stroke-linejoin:round;stroke-miterlimit:2;">
    <g transform="matrix(1,0,0,1,-3093.32,-2031.51)">
        <g transform="matrix(1.41414,0,0,1.41429,-1389.33,-1046.26)">
            <path d="M3226.72,2238.57C3230.12,2238.57 3232.24,2236.02 3232.24,2233.05L3232.24,2181.72C3232.24,2178.25 3229.76,2176.2 3226.72,2176.2L3175.39,2176.2C3171.93,2176.2 3169.88,2178.54 3169.88,2181.72L3169.88,2233.05C3169.88,2236.23 3172.35,2238.57 3175.39,2238.57L3226.72,2238.57ZM3229.34,2233.33C3229.34,2234.89 3228.28,2235.67 3227.08,2235.67L3175.04,2235.67C3173.55,2235.67 3172.78,2234.61 3172.78,2233.33L3172.78,2181.36C3172.78,2179.95 3173.69,2179.1 3175.04,2179.1L3227.08,2179.1C3228.49,2179.1 3229.34,2180.16 3229.34,2181.36L3229.34,2233.33ZM3195.61,2194.94C3195.47,2194.73 3195.19,2194.52 3194.91,2194.45C3194.76,2194.38 3194.69,2194.38 3194.55,2194.38C3193.28,2194.38 3187.48,2201.8 3187.48,2209.08C3187.48,2217.35 3192.01,2222.52 3200,2222.52C3209.26,2222.52 3214.28,2214.45 3214.28,2206.82C3214.28,2197.77 3209.54,2192.47 3202.76,2192.47C3199.36,2192.47 3197.17,2193.74 3195.61,2194.94ZM3200,2219.41C3194.27,2219.41 3190.81,2215.73 3190.81,2209.01C3190.81,2202.72 3195.61,2195.43 3202.4,2195.43C3207.92,2195.43 3210.96,2200.1 3210.96,2206.82C3210.96,2213.75 3205.94,2219.41 3200,2219.41Z" style="fill-rule:nonzero;"/>
        </g>
    </g>
</svg>
