<?xml version="1.0" encoding="UTF-8" standalone="no"?>
<!DOCTYPE svg PUBLIC "-//W3C//DTD SVG 1.1//EN" "http://www.w3.org/Graphics/SVG/1.1/DTD/svg11.dtd">
<svg width="100%" height="100%" viewBox="0 0 89 89" version="1.1" xmlns="http://www.w3.org/2000/svg" xmlns:xlink="http://www.w3.org/1999/xlink" xml:space="preserve" xmlns:serif="http://www.serif.com/" style="fill-rule:evenodd;clip-rule:evenodd;stroke-linejoin:round;stroke-miterlimit:2;">
    <g transform="matrix(1,0,0,1,-3093.32,-981.509)">
        <g transform="matrix(1.41414,0,0,1.41429,-1389.33,-1046.26)">
            <path d="M3226.72,1496.14C3230.12,1496.14 3232.24,1493.6 3232.24,1490.63L3232.24,1439.29C3232.24,1435.83 3229.76,1433.78 3226.72,1433.78L3175.39,1433.78C3171.93,1433.78 3169.88,1436.11 3169.88,1439.29L3169.88,1490.63C3169.88,1493.81 3172.35,1496.14 3175.39,1496.14L3226.72,1496.14ZM3229.34,1490.91C3229.34,1492.46 3228.28,1493.24 3227.08,1493.24L3175.04,1493.24C3173.55,1493.24 3172.78,1492.18 3172.78,1490.91L3172.78,1438.94C3172.78,1437.53 3173.69,1436.68 3175.04,1436.68L3227.08,1436.68C3228.49,1436.68 3229.34,1437.74 3229.34,1438.94L3229.34,1490.91ZM3214.92,1462.7C3219.09,1461.42 3222.27,1457.89 3222.27,1453.08C3222.27,1447.57 3218.73,1444.31 3213.5,1444.31C3207.56,1444.31 3203.18,1449.05 3203.18,1450.54C3203.18,1451.74 3204.24,1452.94 3204.66,1452.94C3205.16,1452.94 3205.51,1452.23 3205.65,1452.02C3208.13,1448.77 3210.53,1447.28 3213.5,1447.28C3217.25,1447.28 3219.37,1449.62 3219.37,1453.43C3219.37,1458.17 3213.93,1461.71 3208.48,1462.13C3208.13,1462.2 3207.99,1462.56 3207.99,1462.98C3207.99,1463.9 3208.62,1465.24 3209.47,1465.24C3209.61,1465.24 3209.68,1465.17 3209.76,1465.17C3210.32,1465.03 3211.38,1464.82 3212.3,1464.75C3212.72,1464.68 3213.08,1464.68 3213.5,1464.68C3217.74,1464.68 3220.86,1467.93 3220.86,1472.6C3220.86,1477.83 3218.24,1482.85 3211.66,1482.85C3208.27,1482.85 3206.15,1480.87 3204.1,1477.9C3203.89,1477.69 3203.82,1477.55 3203.6,1477.55C3202.9,1477.55 3202.26,1479.03 3202.26,1480.16C3202.26,1480.66 3202.26,1481.01 3202.54,1481.29C3205.16,1484.26 3208.06,1485.89 3211.66,1485.89C3220.22,1485.89 3223.76,1479.74 3223.76,1472.53C3223.76,1466.44 3219.87,1462.7 3215.55,1462.7L3214.92,1462.7ZM3196.6,1475.78C3197.95,1475.78 3199.71,1475.92 3200.42,1475.92C3200.78,1475.92 3200.92,1475.57 3200.92,1475.14C3200.92,1474.15 3200.14,1472.53 3199.36,1472.53C3198.8,1472.53 3197.38,1472.81 3196.53,1472.88L3195.68,1472.95L3195.68,1461.14C3195.68,1459.73 3195.83,1456.97 3195.83,1456.05C3195.83,1455.06 3194.48,1454.42 3193.56,1454.42C3193.07,1454.42 3192.71,1454.64 3192.71,1454.99C3192.71,1456.33 3192.86,1460.01 3192.86,1461.14L3192.86,1473.09L3181.4,1473.38C3184.8,1466.59 3189.18,1457.39 3191.94,1451.1C3192.36,1450.18 3193.07,1448.84 3193.63,1447.92C3193.78,1447.78 3193.78,1447.57 3193.78,1447.35C3193.78,1446.15 3192.36,1444.45 3191.58,1444.45C3191.37,1444.45 3191.16,1444.53 3191.09,1444.81C3189.96,1448.27 3186.63,1456.83 3179.7,1470.33C3179.35,1471.11 3178.64,1471.96 3178.08,1472.95C3177.87,1473.3 3177.8,1473.73 3177.8,1474.08C3177.8,1475.42 3178.93,1476.7 3179.92,1476.7C3180.06,1476.7 3180.13,1476.63 3180.2,1476.63C3180.98,1476.41 3181.68,1476.27 3182.04,1476.27L3192.86,1475.92L3192.86,1479.03C3192.86,1479.88 3192.71,1483.13 3192.71,1484.05C3192.71,1485.04 3194.13,1485.68 3195.12,1485.68C3195.54,1485.68 3195.97,1485.46 3195.97,1485.11C3195.97,1483.77 3195.68,1481.51 3195.68,1479.17L3195.68,1475.78L3196.6,1475.78Z" style="fill-rule:nonzero;"/>
        </g>
    </g>
</svg>
