<?xml version="1.0" encoding="UTF-8" standalone="no"?>
<!DOCTYPE svg PUBLIC "-//W3C//DTD SVG 1.1//EN" "http://www.w3.org/Graphics/SVG/1.1/DTD/svg11.dtd">
<svg width="100%" height="100%" viewBox="0 0 89 89" version="1.1" xmlns="http://www.w3.org/2000/svg" xmlns:xlink="http://www.w3.org/1999/xlink" xml:space="preserve" xmlns:serif="http://www.serif.com/" style="fill-rule:evenodd;clip-rule:evenodd;stroke-linejoin:round;stroke-miterlimit:2;">
    <g transform="matrix(1,0,0,1,-3493.28,-1131.51)">
        <g transform="matrix(1.41414,0,0,1.41429,-1389.33,-1046.26)">
            <path d="M3509.55,1602.2C3512.95,1602.2 3515.07,1599.66 3515.07,1596.69L3515.07,1545.35C3515.07,1541.89 3512.59,1539.84 3509.55,1539.84L3458.22,1539.84C3454.76,1539.84 3452.7,1542.17 3452.7,1545.35L3452.7,1596.69C3452.7,1599.87 3455.18,1602.2 3458.22,1602.2L3509.55,1602.2ZM3512.17,1596.97C3512.17,1598.53 3511.11,1599.3 3509.91,1599.3L3457.87,1599.3C3456.38,1599.3 3455.6,1598.24 3455.6,1596.97L3455.6,1545C3455.6,1543.59 3456.52,1542.74 3457.87,1542.74L3509.91,1542.74C3511.32,1542.74 3512.17,1543.8 3512.17,1545L3512.17,1596.97ZM3467.27,1571.94C3468.9,1570.1 3471.02,1568.83 3473.56,1568.83C3478.02,1568.83 3480.85,1572.36 3480.85,1578.23C3480.85,1583.75 3478.3,1588.84 3471.87,1588.84C3468.26,1588.84 3465.93,1586.15 3464.23,1583.11C3464.09,1582.83 3463.88,1582.69 3463.73,1582.69C3463.03,1582.69 3462.25,1584.24 3462.25,1585.52C3462.25,1587.35 3466.92,1591.95 3471.87,1591.95C3480.28,1591.95 3483.67,1585.44 3483.67,1578.16C3483.67,1570.38 3479.22,1565.86 3474.06,1565.86C3470.81,1565.86 3468.54,1567.06 3466.56,1569.04L3467.84,1555.18L3477.45,1554.48L3481.2,1554.26C3481.55,1554.26 3481.76,1553.91 3481.76,1553.49C3481.76,1552.57 3480.99,1551.08 3480.35,1551.08L3480.21,1551.08C3479.36,1551.29 3478.02,1551.36 3477.1,1551.43L3467.91,1552.07C3467.2,1551.72 3466.49,1551.43 3466,1551.43C3465.57,1551.43 3465.36,1551.58 3465.36,1552.07C3465.36,1552.78 3465.29,1553.77 3465.22,1554.55L3464.02,1568.48C3463.95,1568.76 3463.52,1570.6 3463.52,1571.09C3463.52,1572.51 3464.72,1573.57 3465.5,1573.57C3465.71,1573.57 3465.86,1573.57 3465.93,1573.42L3467.27,1571.94ZM3507.01,1553.34C3507.01,1552.35 3505.73,1551.08 3504.96,1550.94L3504.89,1550.94C3504.25,1550.94 3503.54,1551.29 3502.76,1551.36L3489.05,1552.42L3488.34,1552.42C3487.49,1552.42 3487,1552.35 3486.43,1552.35C3486.22,1552.35 3486.15,1552.5 3486.15,1552.71C3486.15,1553.06 3486.86,1555.61 3488.62,1555.61C3489.12,1555.61 3489.61,1555.54 3490.11,1555.47L3503.33,1554.19C3499.23,1564.38 3495.34,1575.33 3492.51,1584.88C3492.16,1585.87 3491.73,1587.42 3491.17,1589.05C3491.17,1589.4 3490.89,1589.9 3490.89,1590.39C3490.89,1590.89 3491.17,1591.38 3492.16,1591.53C3492.44,1591.53 3492.65,1591.6 3492.87,1591.6C3493.71,1591.6 3494.14,1591.38 3494.28,1590.75C3495.13,1585.73 3499.3,1571.94 3505.81,1556.24C3506.09,1555.54 3506.87,1554.48 3507.01,1553.56L3507.01,1553.34Z" style="fill-rule:nonzero;"/>
        </g>
    </g>
</svg>
