<?xml version="1.0" encoding="UTF-8" standalone="no"?>
<!DOCTYPE svg PUBLIC "-//W3C//DTD SVG 1.1//EN" "http://www.w3.org/Graphics/SVG/1.1/DTD/svg11.dtd">
<svg width="100%" height="100%" viewBox="0 0 89 89" version="1.1" xmlns="http://www.w3.org/2000/svg" xmlns:xlink="http://www.w3.org/1999/xlink" xml:space="preserve" xmlns:serif="http://www.serif.com/" style="fill-rule:evenodd;clip-rule:evenodd;stroke-linejoin:round;stroke-miterlimit:2;">
    <g transform="matrix(1,0,0,1,-2893.34,-381.509)">
        <g transform="matrix(1.41414,0,0,1.41429,-1389.33,-1046.26)">
            <path d="M3085.31,1071.9C3088.7,1071.9 3090.83,1069.35 3090.83,1066.38L3090.83,1015.05C3090.83,1011.59 3088.35,1009.54 3085.31,1009.54L3033.98,1009.54C3030.51,1009.54 3028.46,1011.87 3028.46,1015.05L3028.46,1066.38C3028.46,1069.57 3030.94,1071.9 3033.98,1071.9L3085.31,1071.9ZM3087.93,1066.67C3087.93,1068.22 3086.87,1069 3085.66,1069L3033.62,1069C3032.14,1069 3031.36,1067.94 3031.36,1066.67L3031.36,1014.7C3031.36,1013.28 3032.28,1012.44 3033.62,1012.44L3085.66,1012.44C3087.08,1012.44 3087.93,1013.5 3087.93,1014.7L3087.93,1066.67ZM3044.44,1023.96C3044.3,1023.75 3044.09,1023.54 3043.73,1023.54C3042.25,1023.54 3038.86,1031.45 3038.86,1041.85C3038.86,1053.52 3042.32,1062.07 3049.6,1062.07C3057.17,1062.07 3060.85,1052.1 3060.85,1040.36C3060.85,1028.84 3057.31,1020.43 3050.8,1020.43C3048.26,1020.43 3046.07,1021.84 3044.44,1023.96ZM3049.39,1059.03C3043.73,1059.03 3041.83,1051.11 3041.83,1041.78C3041.83,1029.48 3046.85,1023.32 3050.59,1023.32C3055.97,1023.32 3057.8,1032.02 3057.8,1039.94C3057.8,1049.63 3055.47,1059.03 3049.39,1059.03ZM3074.42,1055.14C3074.42,1056.34 3074.28,1059.24 3074.28,1060.16C3074.28,1061.08 3075.76,1061.72 3076.83,1061.72C3077.32,1061.72 3077.74,1061.58 3077.74,1061.15C3077.67,1059.67 3077.6,1056.34 3077.6,1054.79L3077.6,1026.29C3077.6,1024.67 3077.89,1023.68 3077.89,1022.76C3077.89,1021.7 3076.68,1020.64 3075.91,1020.64C3075.13,1020.64 3074,1022.26 3073.57,1022.62C3071.88,1023.96 3069.33,1025.44 3066.64,1026.58C3066.22,1026.72 3066.08,1026.93 3066.08,1027.14C3066.08,1027.78 3067.28,1028.41 3068.27,1028.41C3068.41,1028.41 3068.62,1028.41 3068.76,1028.34C3070.67,1027.78 3072.87,1026.86 3074.42,1025.87L3074.42,1055.14Z" style="fill-rule:nonzero;"/>
        </g>
    </g>
</svg>
