<?xml version="1.0" encoding="UTF-8" standalone="no"?>
<!DOCTYPE svg PUBLIC "-//W3C//DTD SVG 1.1//EN" "http://www.w3.org/Graphics/SVG/1.1/DTD/svg11.dtd">
<svg width="100%" height="100%" viewBox="0 0 89 89" version="1.1" xmlns="http://www.w3.org/2000/svg" xmlns:xlink="http://www.w3.org/1999/xlink" xml:space="preserve" xmlns:serif="http://www.serif.com/" style="fill-rule:evenodd;clip-rule:evenodd;stroke-linejoin:round;stroke-miterlimit:2;">
    <g transform="matrix(1,0,0,1,-2993.33,-1881.51)">
        <g transform="matrix(1.41414,0,0,1.41429,-1389.33,-1046.26)">
            <path d="M3156.02,2132.51C3159.41,2132.51 3161.53,2129.96 3161.53,2126.99L3161.53,2075.66C3161.53,2072.19 3159.06,2070.14 3156.02,2070.14L3104.68,2070.14C3101.22,2070.14 3099.17,2072.48 3099.17,2075.66L3099.17,2126.99C3099.17,2130.17 3101.64,2132.51 3104.68,2132.51L3156.02,2132.51ZM3158.63,2127.27C3158.63,2128.83 3157.57,2129.61 3156.37,2129.61L3104.33,2129.61C3102.85,2129.61 3102.07,2128.55 3102.07,2127.27L3102.07,2075.3C3102.07,2073.89 3102.99,2073.04 3104.33,2073.04L3156.37,2073.04C3157.78,2073.04 3158.63,2074.1 3158.63,2075.3L3158.63,2127.27ZM3141.95,2106.98C3141.95,2106.63 3141.73,2106.34 3141.45,2106.34C3141.1,2106.34 3140.67,2106.56 3140.18,2107.12C3137.35,2110.02 3133.6,2113.41 3127.95,2113.41C3124.06,2113.41 3119.74,2110.38 3119.74,2103.52C3119.74,2095.95 3126.11,2089.38 3131.84,2089.38C3135.09,2089.38 3136.78,2091.5 3137.7,2093.41C3137.85,2093.62 3138.06,2093.76 3138.27,2093.76C3139.05,2093.76 3140.25,2092.56 3140.25,2091.43C3140.25,2090.93 3138.48,2086.41 3131.69,2086.41C3124.34,2086.41 3116.42,2094.25 3116.42,2103.8C3116.42,2112 3121.65,2116.45 3127.95,2116.45C3137.49,2116.45 3141.95,2107.9 3141.95,2106.98Z" style="fill-rule:nonzero;"/>
        </g>
    </g>
</svg>
