<?xml version="1.0" encoding="UTF-8" standalone="no"?>
<!DOCTYPE svg PUBLIC "-//W3C//DTD SVG 1.1//EN" "http://www.w3.org/Graphics/SVG/1.1/DTD/svg11.dtd">
<svg width="100%" height="100%" viewBox="0 0 89 89" version="1.1" xmlns="http://www.w3.org/2000/svg" xmlns:xlink="http://www.w3.org/1999/xlink" xml:space="preserve" xmlns:serif="http://www.serif.com/" style="fill-rule:evenodd;clip-rule:evenodd;stroke-linejoin:round;stroke-miterlimit:2;">
    <g transform="matrix(1,0,0,1,-2893.34,-831.509)">
        <g transform="matrix(1.41414,0,0,1.41429,-1389.33,-1046.26)">
            <path d="M3085.31,1390.08C3088.7,1390.08 3090.83,1387.54 3090.83,1384.57L3090.83,1333.23C3090.83,1329.77 3088.35,1327.72 3085.31,1327.72L3033.98,1327.72C3030.51,1327.72 3028.46,1330.05 3028.46,1333.23L3028.46,1384.57C3028.46,1387.75 3030.94,1390.08 3033.98,1390.08L3085.31,1390.08ZM3087.93,1384.85C3087.93,1386.4 3086.87,1387.18 3085.66,1387.18L3033.62,1387.18C3032.14,1387.18 3031.36,1386.12 3031.36,1384.85L3031.36,1332.88C3031.36,1331.46 3032.28,1330.62 3033.62,1330.62L3085.66,1330.62C3087.08,1330.62 3087.93,1331.68 3087.93,1332.88L3087.93,1384.85ZM3051.87,1356.64C3056.25,1355.36 3059.57,1351.83 3059.57,1347.02C3059.57,1341.51 3055.9,1338.25 3050.31,1338.25C3043.95,1338.25 3039.49,1343.13 3039.49,1344.48C3039.49,1345.04 3039.7,1345.68 3040.34,1346.45C3040.55,1346.81 3040.76,1346.88 3041.05,1346.88C3041.54,1346.88 3041.9,1346.17 3042.11,1345.96C3044.65,1342.71 3047.27,1341.22 3050.38,1341.22C3054.27,1341.22 3056.6,1343.56 3056.6,1347.38C3056.6,1352.11 3050.8,1355.65 3045.08,1356.07C3044.72,1356.14 3044.51,1356.5 3044.51,1356.92C3044.51,1357.84 3045.22,1359.18 3046.14,1359.18C3046.28,1359.18 3046.28,1359.11 3046.42,1359.11C3046.99,1358.97 3048.19,1358.76 3049.11,1358.69C3049.53,1358.62 3049.96,1358.62 3050.31,1358.62C3054.84,1358.62 3058.09,1361.87 3058.09,1366.54C3058.09,1371.77 3055.4,1376.79 3048.76,1376.79C3044.94,1376.79 3042.82,1374.81 3040.62,1371.84C3040.41,1371.63 3040.34,1371.49 3040.13,1371.49C3039.35,1371.49 3038.64,1372.97 3038.64,1374.1C3038.64,1374.6 3038.71,1374.95 3039,1375.23C3041.68,1378.2 3044.8,1379.83 3048.76,1379.83C3057.59,1379.83 3061.2,1373.68 3061.2,1366.46C3061.2,1360.38 3057.1,1356.64 3052.5,1356.64L3051.87,1356.64ZM3073.78,1373.04C3073.78,1374.24 3073.64,1377.14 3073.64,1378.06C3073.64,1378.98 3075.06,1379.62 3076.05,1379.62C3076.54,1379.62 3076.9,1379.48 3076.9,1379.05C3076.83,1377.57 3076.76,1374.24 3076.76,1372.69L3076.76,1344.19C3076.76,1342.57 3077.11,1341.58 3077.11,1340.66C3077.11,1339.6 3075.98,1338.54 3075.2,1338.54C3074.42,1338.54 3073.36,1340.16 3072.94,1340.52C3071.38,1341.86 3068.91,1343.34 3066.36,1344.48C3066.01,1344.62 3065.87,1344.83 3065.87,1345.04C3065.87,1345.68 3067,1346.31 3067.92,1346.31C3068.13,1346.31 3068.27,1346.31 3068.41,1346.24C3070.18,1345.68 3072.3,1344.76 3073.78,1343.77L3073.78,1373.04Z" style="fill-rule:nonzero;"/>
        </g>
    </g>
</svg>
