<?xml version="1.0" encoding="UTF-8" standalone="no"?>
<!DOCTYPE svg PUBLIC "-//W3C//DTD SVG 1.1//EN" "http://www.w3.org/Graphics/SVG/1.1/DTD/svg11.dtd">
<svg width="100%" height="100%" viewBox="0 0 89 89" version="1.1" xmlns="http://www.w3.org/2000/svg" xmlns:xlink="http://www.w3.org/1999/xlink" xml:space="preserve" xmlns:serif="http://www.serif.com/" style="fill-rule:evenodd;clip-rule:evenodd;stroke-linejoin:round;stroke-miterlimit:2;">
    <g transform="matrix(1,0,0,1,-3193.31,-1131.51)">
        <g transform="matrix(1.41414,0,0,1.41429,-1389.33,-1046.26)">
            <path d="M3297.43,1602.2C3300.83,1602.2 3302.95,1599.66 3302.95,1596.69L3302.95,1545.35C3302.95,1541.89 3300.47,1539.84 3297.43,1539.84L3246.1,1539.84C3242.63,1539.84 3240.58,1542.17 3240.58,1545.35L3240.58,1596.69C3240.58,1599.87 3243.06,1602.2 3246.1,1602.2L3297.43,1602.2ZM3300.05,1596.97C3300.05,1598.53 3298.99,1599.3 3297.78,1599.3L3245.74,1599.3C3244.26,1599.3 3243.48,1598.24 3243.48,1596.97L3243.48,1545C3243.48,1543.59 3244.4,1542.74 3245.74,1542.74L3297.78,1542.74C3299.2,1542.74 3300.05,1543.8 3300.05,1545L3300.05,1596.97ZM3268.16,1554.26C3268.51,1554.26 3268.72,1553.91 3268.72,1553.49C3268.72,1552.57 3267.95,1551.08 3267.31,1551.08L3267.17,1551.08C3266.32,1551.29 3264.98,1551.36 3264.06,1551.43L3254.87,1552.07C3254.23,1551.72 3253.45,1551.43 3252.96,1551.43C3252.53,1551.43 3252.32,1551.58 3252.32,1552.07C3252.32,1552.78 3252.25,1553.77 3252.18,1554.55L3250.98,1568.48C3250.91,1568.97 3250.76,1569.68 3250.55,1570.45C3250.55,1570.67 3250.48,1570.88 3250.48,1571.09C3250.48,1572.51 3251.68,1573.57 3252.53,1573.57C3252.96,1573.57 3254.02,1572.22 3254.23,1571.94C3255.86,1570.1 3257.98,1568.83 3260.52,1568.83C3264.98,1568.83 3267.81,1572.36 3267.81,1578.23C3267.81,1583.75 3265.26,1588.84 3258.83,1588.84C3255.22,1588.84 3252.96,1586.15 3251.19,1583.11C3251.05,1582.83 3250.91,1582.69 3250.69,1582.69C3250.06,1582.69 3249.21,1584.24 3249.21,1585.52C3249.21,1586.01 3249.35,1586.43 3249.63,1586.72C3251.9,1589.69 3254.87,1591.95 3258.83,1591.95C3267.24,1591.95 3270.63,1585.44 3270.63,1578.16C3270.63,1570.38 3266.25,1565.86 3261.02,1565.86C3257.76,1565.86 3255.5,1567.06 3253.52,1569.04L3254.8,1555.18L3264.41,1554.48L3268.16,1554.26ZM3292.48,1581.84C3293.83,1581.84 3295.59,1581.98 3296.3,1581.98C3296.65,1581.98 3296.8,1581.63 3296.8,1581.2C3296.8,1580.21 3296.02,1578.59 3295.24,1578.59C3294.67,1578.59 3293.26,1578.87 3292.41,1578.94L3291.56,1579.01L3291.56,1567.2C3291.56,1565.79 3291.7,1563.03 3291.7,1562.11C3291.7,1561.12 3290.36,1560.49 3289.44,1560.49C3288.95,1560.49 3288.59,1560.7 3288.59,1561.05C3288.59,1562.39 3288.73,1566.07 3288.73,1567.2L3288.73,1579.15L3277.21,1579.43C3280.67,1572.65 3285.06,1563.45 3287.82,1557.16C3288.24,1556.24 3288.95,1554.9 3289.51,1553.98C3289.65,1553.84 3289.65,1553.63 3289.65,1553.41C3289.65,1552.21 3288.24,1550.52 3287.46,1550.52C3287.18,1550.52 3287.04,1550.59 3286.97,1550.87C3285.84,1554.33 3282.51,1562.89 3275.58,1576.39C3275.23,1577.17 3274.52,1578.02 3273.96,1579.01C3273.74,1579.36 3273.67,1579.79 3273.67,1580.14C3273.67,1581.49 3274.81,1582.76 3275.8,1582.76C3275.94,1582.76 3275.94,1582.69 3276.08,1582.69C3276.78,1582.48 3277.56,1582.33 3277.92,1582.33L3288.73,1581.98L3288.73,1585.09C3288.73,1585.94 3288.59,1589.19 3288.59,1590.11C3288.59,1591.1 3290.01,1591.74 3290.93,1591.74C3291.42,1591.74 3291.78,1591.53 3291.78,1591.17C3291.78,1589.83 3291.56,1587.57 3291.56,1585.23L3291.56,1581.84L3292.48,1581.84Z" style="fill-rule:nonzero;"/>
        </g>
    </g>
</svg>
