<?xml version="1.0" encoding="UTF-8" standalone="no"?>
<!DOCTYPE svg PUBLIC "-//W3C//DTD SVG 1.1//EN" "http://www.w3.org/Graphics/SVG/1.1/DTD/svg11.dtd">
<svg width="100%" height="100%" viewBox="0 0 89 89" version="1.1" xmlns="http://www.w3.org/2000/svg" xmlns:xlink="http://www.w3.org/1999/xlink" xml:space="preserve" xmlns:serif="http://www.serif.com/" style="fill-rule:evenodd;clip-rule:evenodd;stroke-linejoin:round;stroke-miterlimit:2;">
    <g transform="matrix(1,0,0,1,-2893.34,-2181.51)">
        <g transform="matrix(1.41414,0,0,1.41429,-1389.33,-1046.26)">
            <path d="M3085.31,2344.63C3088.7,2344.63 3090.83,2342.08 3090.83,2339.11L3090.83,2287.78C3090.83,2284.31 3088.35,2282.26 3085.31,2282.26L3033.98,2282.26C3030.51,2282.26 3028.46,2284.6 3028.46,2287.78L3028.46,2339.11C3028.46,2342.29 3030.94,2344.63 3033.98,2344.63L3085.31,2344.63ZM3087.93,2339.39C3087.93,2340.95 3086.87,2341.73 3085.66,2341.73L3033.62,2341.73C3032.14,2341.73 3031.36,2340.67 3031.36,2339.39L3031.36,2287.43C3031.36,2286.01 3032.28,2285.16 3033.62,2285.16L3085.66,2285.16C3087.08,2285.16 3087.93,2286.22 3087.93,2287.43L3087.93,2339.39ZM3066.36,2324.19C3067.14,2325.25 3068.2,2326.74 3068.76,2327.66C3068.98,2328.01 3069.54,2328.15 3070.18,2328.15C3071.38,2328.15 3072.65,2327.73 3072.65,2327.09C3072.65,2326.95 3072.65,2326.81 3072.51,2326.67C3071.38,2325.47 3069.76,2323.77 3068.69,2322.28L3061.69,2313.02L3068.55,2303.9C3069.33,2302.77 3070.53,2301.5 3071.73,2300.29C3071.88,2300.22 3071.88,2300.08 3071.88,2299.94C3071.88,2299.38 3070.18,2298.74 3069.05,2298.74C3068.55,2298.74 3068.2,2298.88 3068.06,2299.09C3067.63,2299.87 3067,2301 3066.22,2302.06L3059.86,2310.55L3053.63,2302.27C3052.86,2301.21 3052.22,2300.15 3051.8,2299.38C3051.65,2299.09 3051.23,2299.02 3050.73,2299.02C3049.6,2299.02 3047.98,2299.66 3047.98,2300.29C3047.98,2300.36 3048.05,2300.51 3048.12,2300.58C3049.32,2301.78 3050.52,2303.05 3051.3,2304.11L3058.02,2313.02L3050.95,2322.35C3049.89,2323.91 3048.26,2325.54 3047.13,2326.74C3046.99,2326.88 3046.99,2327.02 3046.99,2327.16C3046.99,2327.8 3048.33,2328.29 3049.46,2328.29C3050.1,2328.29 3050.66,2328.15 3050.88,2327.8C3051.44,2326.88 3052.5,2325.39 3053.28,2324.33L3059.86,2315.5L3066.36,2324.19Z" style="fill-rule:nonzero;"/>
        </g>
    </g>
</svg>
