<?xml version="1.0" encoding="UTF-8" standalone="no"?>
<!DOCTYPE svg PUBLIC "-//W3C//DTD SVG 1.1//EN" "http://www.w3.org/Graphics/SVG/1.1/DTD/svg11.dtd">
<svg width="100%" height="100%" viewBox="0 0 89 89" version="1.1" xmlns="http://www.w3.org/2000/svg" xmlns:xlink="http://www.w3.org/1999/xlink" xml:space="preserve" xmlns:serif="http://www.serif.com/" style="fill-rule:evenodd;clip-rule:evenodd;stroke-linejoin:round;stroke-miterlimit:2;">
    <g transform="matrix(1,0,0,1,-2993.33,-2181.51)">
        <g transform="matrix(1.41414,0,0,1.41429,-1389.33,-1046.26)">
            <path d="M3156.02,2344.63C3159.41,2344.63 3161.53,2342.08 3161.53,2339.11L3161.53,2287.78C3161.53,2284.31 3159.06,2282.26 3156.02,2282.26L3104.68,2282.26C3101.22,2282.26 3099.17,2284.6 3099.17,2287.78L3099.17,2339.11C3099.17,2342.29 3101.64,2344.63 3104.68,2344.63L3156.02,2344.63ZM3158.63,2339.39C3158.63,2340.95 3157.57,2341.73 3156.37,2341.73L3104.33,2341.73C3102.85,2341.73 3102.07,2340.67 3102.07,2339.39L3102.07,2287.43C3102.07,2286.01 3102.99,2285.16 3104.33,2285.16L3156.37,2285.16C3157.78,2285.16 3158.63,2286.22 3158.63,2287.43L3158.63,2339.39ZM3122.86,2334.3C3125.9,2334.3 3127.73,2332.82 3129.36,2329.43L3142.02,2302.77C3142.72,2301.28 3143.71,2299.59 3144.35,2298.39C3144.49,2298.17 3144.56,2297.89 3144.56,2297.68C3144.56,2296.48 3143.08,2295.49 3142.09,2295.49C3141.66,2295.49 3141.38,2295.63 3141.24,2295.98C3140.6,2297.89 3139.76,2299.94 3138.98,2301.57L3131.06,2318.11L3123.56,2301L3121.72,2296.55C3121.58,2296.05 3120.59,2295.77 3119.6,2295.77C3118.61,2295.77 3117.69,2296.05 3117.69,2296.62C3117.69,2296.69 3117.76,2296.83 3117.84,2296.97C3118.54,2298.17 3119.74,2300.65 3120.31,2301.85L3129.36,2322L3126.67,2327.59C3125.54,2329.99 3123.92,2331.12 3122.64,2331.12C3121.58,2331.12 3120.17,2330.98 3119.11,2329.85C3118.83,2329.57 3118.61,2329.43 3118.33,2329.43C3117.41,2329.43 3116.63,2330.91 3116.63,2331.9C3116.63,2332.25 3116.7,2332.54 3116.92,2332.68C3118.68,2334.23 3120.59,2334.3 3122.15,2334.3L3122.86,2334.3Z" style="fill-rule:nonzero;"/>
        </g>
    </g>
</svg>
