<?xml version="1.0" encoding="UTF-8" standalone="no"?>
<!DOCTYPE svg PUBLIC "-//W3C//DTD SVG 1.1//EN" "http://www.w3.org/Graphics/SVG/1.1/DTD/svg11.dtd">
<svg width="100%" height="100%" viewBox="0 0 89 89" version="1.1" xmlns="http://www.w3.org/2000/svg" xmlns:xlink="http://www.w3.org/1999/xlink" xml:space="preserve" xmlns:serif="http://www.serif.com/" style="fill-rule:evenodd;clip-rule:evenodd;stroke-linejoin:round;stroke-miterlimit:2;">
    <g transform="matrix(1,0,0,1,-2793.35,-531.509)">
        <g transform="matrix(1.41414,0,0,1.41429,-1389.33,-1046.26)">
            <path d="M3014.6,1177.96C3018,1177.96 3020.12,1175.41 3020.12,1172.44L3020.12,1121.11C3020.12,1117.65 3017.64,1115.6 3014.6,1115.6L2963.27,1115.6C2959.8,1115.6 2957.76,1117.93 2957.76,1121.11L2957.76,1172.44C2957.76,1175.63 2960.23,1177.96 2963.27,1177.96L3014.6,1177.96ZM3017.22,1172.73C3017.22,1174.28 3016.16,1175.06 3014.96,1175.06L2962.92,1175.06C2961.43,1175.06 2960.65,1174 2960.65,1172.73L2960.65,1120.76C2960.65,1119.34 2961.57,1118.5 2962.92,1118.5L3014.96,1118.5C3016.37,1118.5 3017.22,1119.56 3017.22,1120.76L3017.22,1172.73ZM2990.78,1129.6C2990.63,1129.38 2990.35,1129.17 2989.93,1129.17C2988.23,1129.17 2984.62,1137.23 2984.62,1147.49C2984.62,1159.15 2988.44,1167.71 2996.22,1167.71C3004.35,1167.71 3008.24,1157.74 3008.24,1146C3008.24,1134.48 3004.49,1126.06 2997.56,1126.06C2994.8,1126.06 2992.47,1127.48 2990.78,1129.6ZM2996.01,1164.67C2989.93,1164.67 2987.59,1156.75 2987.59,1147.41C2987.59,1135.11 2993.18,1128.96 2997.35,1128.96C3003.01,1128.96 3005.27,1137.66 3005.27,1145.58C3005.27,1155.26 3002.58,1164.67 2996.01,1164.67ZM2972.89,1160.92C2972.89,1162.12 2972.82,1165.02 2972.82,1165.94C2972.82,1166.86 2974.16,1167.5 2975.22,1167.5C2975.64,1167.5 2976.07,1167.35 2976.07,1166.93C2976,1165.44 2975.93,1162.12 2975.93,1160.57L2975.93,1132.07C2975.93,1130.44 2976.21,1129.45 2976.21,1128.54C2976.21,1127.48 2975.08,1126.41 2974.3,1126.41C2973.52,1126.41 2972.46,1128.04 2972.11,1128.39C2970.48,1129.74 2968.08,1131.22 2965.53,1132.35C2965.11,1132.5 2964.97,1132.71 2964.97,1132.92C2964.97,1133.56 2966.17,1134.19 2967.02,1134.19C2967.23,1134.19 2967.44,1134.19 2967.58,1134.12C2969.35,1133.56 2971.47,1132.64 2972.89,1131.65L2972.89,1160.92Z" style="fill-rule:nonzero;"/>
        </g>
    </g>
</svg>
