<?xml version="1.0" encoding="UTF-8" standalone="no"?>
<!DOCTYPE svg PUBLIC "-//W3C//DTD SVG 1.1//EN" "http://www.w3.org/Graphics/SVG/1.1/DTD/svg11.dtd">
<svg width="100%" height="100%" viewBox="0 0 89 89" version="1.1" xmlns="http://www.w3.org/2000/svg" xmlns:xlink="http://www.w3.org/1999/xlink" xml:space="preserve" xmlns:serif="http://www.serif.com/" style="fill-rule:evenodd;clip-rule:evenodd;stroke-linejoin:round;stroke-miterlimit:2;">
    <g transform="matrix(1,0,0,1,-3693.26,-1581.51)">
        <g transform="matrix(1.41414,0,0,1.41429,-1389.33,-1046.26)">
            <path d="M3650.97,1920.38C3654.36,1920.38 3656.48,1917.84 3656.48,1914.87L3656.48,1863.54C3656.48,1860.07 3654.01,1858.02 3650.97,1858.02L3599.63,1858.02C3596.17,1858.02 3594.12,1860.35 3594.12,1863.54L3594.12,1914.87C3594.12,1918.05 3596.59,1920.38 3599.63,1920.38L3650.97,1920.38ZM3653.58,1915.15C3653.58,1916.71 3652.52,1917.49 3651.32,1917.49L3599.28,1917.49C3597.8,1917.49 3597.02,1916.42 3597.02,1915.15L3597.02,1863.18C3597.02,1861.77 3597.94,1860.92 3599.28,1860.92L3651.32,1860.92C3652.73,1860.92 3653.58,1861.98 3653.58,1863.18L3653.58,1915.15ZM3614.91,1886.23C3620.07,1882.13 3623.82,1877.25 3623.82,1875.98C3623.82,1875.34 3623.46,1874.92 3622.97,1874.92C3622.61,1874.92 3622.26,1875.06 3621.84,1875.56L3621.55,1875.84C3621.76,1875.49 3621.91,1875.06 3621.91,1874.78C3621.91,1874.14 3619.01,1868.63 3613.35,1868.63C3607.41,1868.63 3604.02,1873.08 3604.02,1878.1C3604.02,1881.85 3605.29,1884.25 3609.74,1886.8C3605.22,1890.33 3602.46,1894.22 3602.46,1899.38C3602.46,1905.47 3606.21,1910.13 3612.5,1910.13C3619.5,1910.13 3624.1,1905.61 3624.1,1898.61C3624.1,1893.09 3621.34,1889.49 3615.54,1886.52L3614.91,1886.23ZM3641,1909.85C3642.2,1909.78 3642.91,1909.42 3642.98,1908.65C3643.61,1901.29 3646.3,1885.1 3648.42,1874.42L3649.06,1872.3L3649.06,1872.09C3649.06,1871.24 3648.07,1870.18 3647.01,1870.18C3645.95,1870.18 3646.23,1871.95 3645.81,1873.51C3645.17,1871.88 3642.91,1868.56 3638.1,1868.56C3631.31,1868.56 3626.22,1876.19 3626.22,1883.9C3626.22,1890.4 3629.33,1894.15 3633.93,1894.15C3637.46,1894.15 3641.21,1891.54 3643.33,1887.51C3640.64,1903.98 3640.43,1904.9 3640.01,1907.52C3639.94,1908.01 3639.8,1908.51 3639.8,1908.93C3639.8,1909.5 3640.01,1909.85 3640.86,1909.85L3641,1909.85ZM3644.89,1878.81C3643.4,1884.11 3639.72,1891.04 3633.86,1891.04C3630.67,1891.04 3629.05,1888.57 3629.05,1883.69C3629.05,1878.45 3632.44,1871.53 3638.31,1871.53C3641.85,1871.53 3643.33,1874.28 3643.97,1875.84C3644.18,1876.33 3644.39,1876.55 3644.67,1876.55C3644.96,1876.55 3645.17,1876.33 3645.38,1876.05L3644.89,1878.81ZM3612.36,1888.21C3620.7,1891.54 3621.2,1896.7 3621.2,1898.89C3621.2,1903.77 3617.52,1907.09 3612.5,1907.09C3607.48,1907.09 3605.29,1903.13 3605.29,1899.24C3605.29,1895.14 3607.91,1891.82 3612.36,1888.21ZM3612.36,1884.82C3608.12,1882.63 3606.85,1881.07 3606.85,1878.1C3606.85,1874.78 3609.04,1871.53 3613.42,1871.53C3616.25,1871.53 3617.95,1873.29 3619.43,1876.05C3619.71,1876.62 3620,1876.83 3620.35,1876.83C3620.42,1876.83 3620.63,1876.83 3620.7,1876.76C3618.3,1879.59 3615.61,1882.41 3612.36,1884.82Z" style="fill-rule:nonzero;"/>
        </g>
    </g>
</svg>
