<?xml version="1.0" encoding="UTF-8" standalone="no"?>
<!DOCTYPE svg PUBLIC "-//W3C//DTD SVG 1.1//EN" "http://www.w3.org/Graphics/SVG/1.1/DTD/svg11.dtd">
<svg width="100%" height="100%" viewBox="0 0 89 89" version="1.1" xmlns="http://www.w3.org/2000/svg" xmlns:xlink="http://www.w3.org/1999/xlink" xml:space="preserve" xmlns:serif="http://www.serif.com/" style="fill-rule:evenodd;clip-rule:evenodd;stroke-linejoin:round;stroke-miterlimit:2;">
    <g transform="matrix(1,0,0,1,-3393.29,-831.509)">
        <g transform="matrix(1.41414,0,0,1.41429,-1389.33,-1046.26)">
            <path d="M3438.85,1390.08C3442.24,1390.08 3444.36,1387.54 3444.36,1384.57L3444.36,1333.23C3444.36,1329.77 3441.89,1327.72 3438.85,1327.72L3387.51,1327.72C3384.05,1327.72 3382,1330.05 3382,1333.23L3382,1384.57C3382,1387.75 3384.47,1390.08 3387.51,1390.08L3438.85,1390.08ZM3441.46,1384.85C3441.46,1386.4 3440.4,1387.18 3439.2,1387.18L3387.16,1387.18C3385.67,1387.18 3384.9,1386.12 3384.9,1384.85L3384.9,1332.88C3384.9,1331.46 3385.82,1330.62 3387.16,1330.62L3439.2,1330.62C3440.61,1330.62 3441.46,1331.68 3441.46,1332.88L3441.46,1384.85ZM3424.63,1340.09C3422.65,1343.49 3420.6,1347.73 3418.34,1352.82C3416.01,1358.12 3414.81,1362.93 3414.81,1367.74C3414.81,1374.38 3419.47,1379.83 3425.69,1379.83C3432.48,1379.83 3436.58,1373.89 3436.58,1366.18C3436.58,1359.25 3432.48,1354.16 3426.54,1354.16C3423.22,1354.16 3420.46,1355.86 3418.76,1358.62C3421.24,1352.46 3424.49,1345.82 3428.24,1340.66C3428.45,1340.38 3428.73,1339.88 3428.73,1339.45C3428.73,1339.17 3428.38,1338.18 3426.68,1338.18C3426.12,1338.18 3425.62,1338.39 3425.41,1338.89C3425.2,1339.17 3424.78,1339.95 3424.63,1340.09ZM3425.69,1376.93C3420.96,1376.93 3417.63,1372.9 3417.63,1367.67C3417.63,1362.01 3421.1,1357.06 3426.47,1357.06C3430.93,1357.06 3433.68,1361.44 3433.68,1366.32C3433.68,1372.55 3430.29,1376.93 3425.69,1376.93ZM3402.86,1356.64C3407.03,1355.36 3410.14,1351.83 3410.14,1347.02C3410.14,1341.51 3406.67,1338.25 3401.37,1338.25C3395.22,1338.25 3391.12,1343.2 3391.12,1344.48C3391.12,1345.68 3392.18,1346.88 3392.53,1346.88C3393.03,1346.88 3393.45,1346.17 3393.59,1345.96C3396,1342.71 3398.47,1341.22 3401.44,1341.22C3405.12,1341.22 3407.31,1343.56 3407.31,1347.38C3407.31,1352.11 3401.87,1355.65 3396.42,1356.07C3396.07,1356.14 3395.86,1356.5 3395.86,1356.92C3395.86,1357.84 3396.56,1359.18 3397.41,1359.18C3397.55,1359.18 3397.55,1359.11 3397.69,1359.11C3398.26,1358.97 3399.32,1358.76 3400.24,1358.69C3400.66,1358.62 3401.02,1358.62 3401.37,1358.62C3405.68,1358.62 3408.8,1361.87 3408.8,1366.54C3408.8,1371.77 3406.18,1376.79 3399.6,1376.79C3396.21,1376.79 3394.09,1374.81 3392.04,1371.84C3391.83,1371.63 3391.68,1371.49 3391.54,1371.49C3390.84,1371.49 3390.13,1372.97 3390.13,1374.1C3390.13,1374.6 3390.2,1374.95 3390.48,1375.23C3393.03,1378.2 3395.93,1379.83 3399.6,1379.83C3408.16,1379.83 3411.69,1373.68 3411.69,1366.46C3411.69,1360.38 3407.81,1356.64 3403.42,1356.64L3402.86,1356.64Z" style="fill-rule:nonzero;"/>
        </g>
    </g>
</svg>
