<?xml version="1.0" encoding="UTF-8" standalone="no"?>
<!DOCTYPE svg PUBLIC "-//W3C//DTD SVG 1.1//EN" "http://www.w3.org/Graphics/SVG/1.1/DTD/svg11.dtd">
<svg width="100%" height="100%" viewBox="0 0 89 89" version="1.1" xmlns="http://www.w3.org/2000/svg" xmlns:xlink="http://www.w3.org/1999/xlink" xml:space="preserve" xmlns:serif="http://www.serif.com/" style="fill-rule:evenodd;clip-rule:evenodd;stroke-linejoin:round;stroke-miterlimit:2;">
    <g transform="matrix(1,0,0,1,-3393.29,-681.509)">
        <g transform="matrix(1.41414,0,0,1.41429,-1389.33,-1046.26)">
            <path d="M3438.85,1284.02C3442.24,1284.02 3444.36,1281.48 3444.36,1278.51L3444.36,1227.17C3444.36,1223.71 3441.89,1221.66 3438.85,1221.66L3387.51,1221.66C3384.05,1221.66 3382,1223.99 3382,1227.17L3382,1278.51C3382,1281.69 3384.47,1284.02 3387.51,1284.02L3438.85,1284.02ZM3441.46,1278.79C3441.46,1280.34 3440.4,1281.12 3439.2,1281.12L3387.16,1281.12C3385.67,1281.12 3384.9,1280.06 3384.9,1278.79L3384.9,1226.82C3384.9,1225.4 3385.82,1224.56 3387.16,1224.56L3439.2,1224.56C3440.61,1224.56 3441.46,1225.62 3441.46,1226.82L3441.46,1278.79ZM3417.7,1252.56C3420.74,1245.77 3423.93,1239.55 3427.67,1234.6C3427.89,1234.31 3428.24,1233.82 3428.24,1233.39C3428.24,1232.76 3427.53,1232.12 3426.05,1232.12C3425.48,1232.12 3424.92,1232.33 3424.7,1232.83C3424.49,1233.11 3424.07,1233.89 3423.93,1234.03C3421.81,1237.42 3419.61,1241.67 3417.21,1246.76C3414.73,1252.06 3413.53,1256.87 3413.53,1261.68C3413.53,1268.32 3418.41,1273.77 3424.99,1273.77C3432.13,1273.77 3436.51,1267.83 3436.51,1260.12C3436.51,1253.19 3432.2,1248.1 3425.91,1248.1C3422.37,1248.1 3419.54,1249.8 3417.7,1252.56ZM3424.99,1270.87C3420.04,1270.87 3416.5,1266.84 3416.5,1261.61C3416.5,1255.95 3420.18,1251 3425.84,1251C3430.57,1251 3433.4,1255.38 3433.4,1260.26C3433.4,1266.49 3429.87,1270.87 3424.99,1270.87ZM3391.97,1273.06C3394.37,1272.5 3396.63,1272.35 3400.03,1272.35C3402.93,1272.35 3407.1,1272.42 3411.27,1272.78C3411.69,1272.78 3411.84,1272.5 3411.84,1272C3411.84,1271.01 3411.06,1269.45 3410.28,1269.45C3409.57,1269.45 3407.81,1269.53 3406.96,1269.53C3404.84,1269.53 3403.14,1269.45 3400.59,1269.45C3398.54,1269.45 3395.57,1269.6 3393.66,1269.81C3395.5,1265.99 3398.61,1260.26 3403.21,1255.74C3408.02,1250.93 3411.48,1246.9 3411.48,1241.67C3411.48,1236.15 3407.81,1232.19 3402.15,1232.19C3396.85,1232.19 3393.17,1235.09 3391.12,1239.26C3390.91,1239.55 3390.84,1239.9 3390.84,1240.25C3390.84,1241.17 3392.04,1242.59 3392.74,1242.59C3393.24,1242.59 3393.66,1242.02 3393.95,1241.24C3395.08,1237.85 3397.91,1235.16 3402.01,1235.16C3405.97,1235.16 3408.23,1238.13 3408.23,1241.67C3408.23,1245.41 3405.54,1248.95 3401.23,1253.33C3396.92,1257.79 3393.24,1263.94 3391.26,1268.04C3390.98,1268.61 3390.62,1269.1 3390.2,1269.74C3389.99,1269.95 3389.99,1270.23 3389.99,1270.59C3389.99,1271.72 3390.84,1273.06 3391.76,1273.06L3391.97,1273.06Z" style="fill-rule:nonzero;"/>
        </g>
    </g>
</svg>
