<?xml version="1.0" encoding="UTF-8" standalone="no"?>
<!DOCTYPE svg PUBLIC "-//W3C//DTD SVG 1.1//EN" "http://www.w3.org/Graphics/SVG/1.1/DTD/svg11.dtd">
<svg width="100%" height="100%" viewBox="0 0 89 89" version="1.1" xmlns="http://www.w3.org/2000/svg" xmlns:xlink="http://www.w3.org/1999/xlink" xml:space="preserve" xmlns:serif="http://www.serif.com/" style="fill-rule:evenodd;clip-rule:evenodd;stroke-linejoin:round;stroke-miterlimit:2;">
    <g transform="matrix(1,0,0,1,-3493.28,-381.509)">
        <g transform="matrix(1.41414,0,0,1.41429,-1389.33,-1046.26)">
            <path d="M3509.55,1071.9C3512.95,1071.9 3515.07,1069.35 3515.07,1066.38L3515.07,1015.05C3515.07,1011.59 3512.59,1009.54 3509.55,1009.54L3458.22,1009.54C3454.76,1009.54 3452.7,1011.87 3452.7,1015.05L3452.7,1066.38C3452.7,1069.57 3455.18,1071.9 3458.22,1071.9L3509.55,1071.9ZM3512.17,1066.67C3512.17,1068.22 3511.11,1069 3509.91,1069L3457.87,1069C3456.38,1069 3455.6,1067.94 3455.6,1066.67L3455.6,1014.7C3455.6,1013.28 3456.52,1012.44 3457.87,1012.44L3509.91,1012.44C3511.32,1012.44 3512.17,1013.5 3512.17,1014.7L3512.17,1066.67ZM3467.48,1023.96C3467.41,1023.75 3467.13,1023.54 3466.85,1023.54C3465.36,1023.54 3462.46,1032.3 3462.46,1041.85C3462.46,1053.52 3465.57,1062.07 3472.08,1062.07C3478.94,1062.07 3482.26,1052.1 3482.26,1040.36C3482.26,1028.84 3479.08,1020.43 3473.21,1020.43C3470.88,1020.43 3468.97,1021.84 3467.48,1023.96ZM3471.94,1059.03C3466.85,1059.03 3465.15,1051.11 3465.15,1041.78C3465.15,1029.48 3469.6,1023.32 3473,1023.32C3477.88,1023.32 3479.57,1032.02 3479.57,1039.94C3479.57,1049.63 3477.45,1059.03 3471.94,1059.03ZM3506.02,1023.32C3506.02,1022.33 3504.74,1021.06 3503.97,1020.92L3503.83,1020.92C3503.19,1020.92 3502.48,1021.27 3501.7,1021.34L3487.99,1022.4L3487.28,1022.4C3486.43,1022.4 3485.94,1022.33 3485.37,1022.33C3485.16,1022.33 3485.09,1022.48 3485.09,1022.69C3485.09,1023.89 3486.5,1025.59 3487.63,1025.59C3488.06,1025.59 3488.55,1025.52 3489.05,1025.44L3502.27,1024.17C3500.22,1029.26 3495.76,1040.79 3490.18,1059.03C3490.11,1059.38 3489.83,1059.88 3489.83,1060.38C3489.83,1060.87 3490.11,1061.36 3491.1,1061.51C3491.38,1061.51 3491.66,1061.58 3491.81,1061.58C3492.65,1061.58 3493.08,1061.36 3493.22,1060.73C3495.13,1051.46 3500.78,1035.77 3504.74,1026.22C3505.1,1025.52 3505.88,1024.45 3506.02,1023.54L3506.02,1023.32Z" style="fill-rule:nonzero;"/>
        </g>
    </g>
</svg>
