<?xml version="1.0" encoding="UTF-8" standalone="no"?>
<!DOCTYPE svg PUBLIC "-//W3C//DTD SVG 1.1//EN" "http://www.w3.org/Graphics/SVG/1.1/DTD/svg11.dtd">
<svg width="100%" height="100%" viewBox="0 0 89 89" version="1.1" xmlns="http://www.w3.org/2000/svg" xmlns:xlink="http://www.w3.org/1999/xlink" xml:space="preserve" xmlns:serif="http://www.serif.com/" style="fill-rule:evenodd;clip-rule:evenodd;stroke-linejoin:round;stroke-miterlimit:2;">
    <g transform="matrix(1,0,0,1,-3593.27,-1131.51)">
        <g transform="matrix(1.41414,0,0,1.41429,-1389.33,-1046.26)">
            <path d="M3580.26,1602.2C3583.65,1602.2 3585.78,1599.66 3585.78,1596.69L3585.78,1545.35C3585.78,1541.89 3583.3,1539.84 3580.26,1539.84L3528.93,1539.84C3525.46,1539.84 3523.41,1542.17 3523.41,1545.35L3523.41,1596.69C3523.41,1599.87 3525.89,1602.2 3528.93,1602.2L3580.26,1602.2ZM3582.88,1596.97C3582.88,1598.53 3581.82,1599.3 3580.61,1599.3L3528.57,1599.3C3527.09,1599.3 3526.31,1598.24 3526.31,1596.97L3526.31,1545C3526.31,1543.59 3527.23,1542.74 3528.57,1542.74L3580.61,1542.74C3582.03,1542.74 3582.88,1543.8 3582.88,1545L3582.88,1596.97ZM3568.45,1568.05C3570.86,1566.14 3577.36,1559.64 3577.36,1557.8C3577.36,1557.16 3576.94,1556.74 3576.51,1556.74C3576.09,1556.74 3575.73,1556.88 3575.31,1557.38L3575.1,1557.66C3575.31,1557.3 3575.38,1556.88 3575.38,1556.6C3575.38,1556.38 3575.31,1556.17 3575.31,1556.03C3573.4,1552.99 3570.71,1550.44 3566.9,1550.44C3560.96,1550.44 3557.49,1554.9 3557.49,1559.92C3557.49,1563.67 3558.76,1566.07 3563.22,1568.62C3558.69,1572.15 3556.01,1576.04 3556.01,1581.2C3556.01,1587.28 3559.76,1591.95 3566.05,1591.95C3572.98,1591.95 3577.57,1587.42 3577.57,1580.42C3577.57,1574.91 3574.89,1571.3 3569.02,1568.33L3568.45,1568.05ZM3536.28,1571.94C3537.91,1570.1 3540.03,1568.83 3542.57,1568.83C3546.96,1568.83 3549.78,1572.36 3549.78,1578.23C3549.78,1583.75 3547.31,1588.84 3540.88,1588.84C3537.27,1588.84 3534.94,1586.15 3533.17,1583.11C3533.1,1582.83 3532.89,1582.69 3532.74,1582.69C3532.04,1582.69 3531.26,1584.24 3531.26,1585.52C3531.26,1587.35 3535.93,1591.95 3540.88,1591.95C3549.29,1591.95 3552.68,1585.44 3552.68,1578.16C3552.68,1570.38 3548.23,1565.86 3543.07,1565.86C3539.82,1565.86 3537.55,1567.06 3535.57,1569.04L3536.85,1555.18L3546.46,1554.48L3550.21,1554.26C3550.56,1554.26 3550.7,1553.91 3550.7,1553.49C3550.7,1552.57 3550,1551.08 3549.36,1551.08L3549.22,1551.08C3548.37,1551.29 3546.96,1551.36 3546.04,1551.43L3536.92,1552.07C3536.21,1551.72 3535.5,1551.43 3535.01,1551.43C3534.58,1551.43 3534.37,1551.58 3534.37,1552.07C3534.37,1552.78 3534.3,1553.77 3534.23,1554.55L3533.03,1568.48L3532.6,1570.45C3532.53,1570.67 3532.53,1570.88 3532.53,1571.09C3532.53,1572.51 3533.73,1573.57 3534.51,1573.57C3534.72,1573.57 3534.8,1573.57 3534.94,1573.42L3536.28,1571.94ZM3565.91,1570.03C3571.07,1572.65 3574.74,1574.91 3574.74,1580.71C3574.74,1585.59 3571.07,1588.91 3566.05,1588.91C3561.03,1588.91 3558.84,1584.95 3558.84,1581.06C3558.84,1576.96 3561.45,1573.64 3565.91,1570.03ZM3574.32,1558.51C3571.92,1561.33 3569.09,1564.23 3565.84,1566.64C3561.59,1564.44 3560.32,1562.89 3560.32,1559.92C3560.32,1556.6 3562.51,1553.34 3566.97,1553.34C3569.8,1553.34 3571.49,1555.11 3572.91,1557.87C3573.19,1558.43 3573.54,1558.65 3573.83,1558.65C3574.04,1558.65 3574.18,1558.58 3574.32,1558.51Z" style="fill-rule:nonzero;"/>
        </g>
    </g>
</svg>
