<?xml version="1.0" encoding="UTF-8" standalone="no"?>
<!DOCTYPE svg PUBLIC "-//W3C//DTD SVG 1.1//EN" "http://www.w3.org/Graphics/SVG/1.1/DTD/svg11.dtd">
<svg width="100%" height="100%" viewBox="0 0 89 89" version="1.1" xmlns="http://www.w3.org/2000/svg" xmlns:xlink="http://www.w3.org/1999/xlink" xml:space="preserve" xmlns:serif="http://www.serif.com/" style="fill-rule:evenodd;clip-rule:evenodd;stroke-linejoin:round;stroke-miterlimit:2;">
    <g transform="matrix(1,0,0,1,-2893.34,-531.509)">
        <g transform="matrix(1.41414,0,0,1.41429,-1389.33,-1046.26)">
            <path d="M3085.31,1177.96C3088.7,1177.96 3090.83,1175.41 3090.83,1172.44L3090.83,1121.11C3090.83,1117.65 3088.35,1115.6 3085.31,1115.6L3033.98,1115.6C3030.51,1115.6 3028.46,1117.93 3028.46,1121.11L3028.46,1172.44C3028.46,1175.63 3030.94,1177.96 3033.98,1177.96L3085.31,1177.96ZM3087.93,1172.73C3087.93,1174.28 3086.87,1175.06 3085.66,1175.06L3033.62,1175.06C3032.14,1175.06 3031.36,1174 3031.36,1172.73L3031.36,1120.76C3031.36,1119.34 3032.28,1118.5 3033.62,1118.5L3085.66,1118.5C3087.08,1118.5 3087.93,1119.56 3087.93,1120.76L3087.93,1172.73ZM3070.82,1160.92C3070.82,1162.12 3070.67,1165.02 3070.67,1165.94C3070.67,1166.86 3072.23,1167.5 3073.36,1167.5C3073.86,1167.5 3074.28,1167.35 3074.28,1166.93C3074.21,1165.44 3074.14,1162.12 3074.14,1160.57L3074.14,1132.07C3074.14,1130.44 3074.49,1129.45 3074.49,1128.54C3074.49,1127.48 3073.22,1126.41 3072.37,1126.41C3071.52,1126.41 3070.32,1128.04 3069.9,1128.39C3068.13,1129.74 3065.44,1131.22 3062.61,1132.35C3062.19,1132.5 3062.05,1132.71 3062.05,1132.92C3062.05,1133.56 3063.32,1134.19 3064.31,1134.19C3064.52,1134.19 3064.73,1134.19 3064.88,1134.12C3066.86,1133.56 3069.19,1132.64 3070.82,1131.65L3070.82,1160.92ZM3047.41,1160.92C3047.41,1162.12 3047.27,1165.02 3047.27,1165.94C3047.27,1166.86 3048.83,1167.5 3049.96,1167.5C3050.45,1167.5 3050.88,1167.35 3050.88,1166.93C3050.8,1165.44 3050.73,1162.12 3050.73,1160.57L3050.73,1132.07C3050.73,1130.44 3051.09,1129.45 3051.09,1128.54C3051.09,1127.48 3049.82,1126.41 3048.97,1126.41C3048.12,1126.41 3046.92,1128.04 3046.49,1128.39C3044.72,1129.74 3042.04,1131.22 3039.21,1132.35C3038.78,1132.5 3038.64,1132.71 3038.64,1132.92C3038.64,1133.56 3039.92,1134.19 3040.91,1134.19C3041.12,1134.19 3041.33,1134.19 3041.47,1134.12C3043.45,1133.56 3045.78,1132.64 3047.41,1131.65L3047.41,1160.92Z" style="fill-rule:nonzero;"/>
        </g>
    </g>
</svg>
