<?xml version="1.0" encoding="UTF-8" standalone="no"?>
<!DOCTYPE svg PUBLIC "-//W3C//DTD SVG 1.1//EN" "http://www.w3.org/Graphics/SVG/1.1/DTD/svg11.dtd">
<svg width="100%" height="100%" viewBox="0 0 89 89" version="1.1" xmlns="http://www.w3.org/2000/svg" xmlns:xlink="http://www.w3.org/1999/xlink" xml:space="preserve" xmlns:serif="http://www.serif.com/" style="fill-rule:evenodd;clip-rule:evenodd;stroke-linejoin:round;stroke-miterlimit:2;">
    <g transform="matrix(1,0,0,1,-2793.35,-2181.51)">
        <g transform="matrix(1.41414,0,0,1.41429,-1389.33,-1046.26)">
            <path d="M3014.6,2344.63C3018,2344.63 3020.12,2342.08 3020.12,2339.11L3020.12,2287.78C3020.12,2284.31 3017.64,2282.26 3014.6,2282.26L2963.27,2282.26C2959.8,2282.26 2957.76,2284.6 2957.76,2287.78L2957.76,2339.11C2957.76,2342.29 2960.23,2344.63 2963.27,2344.63L3014.6,2344.63ZM3017.22,2339.39C3017.22,2340.95 3016.16,2341.73 3014.96,2341.73L2962.92,2341.73C2961.43,2341.73 2960.65,2340.67 2960.65,2339.39L2960.65,2287.43C2960.65,2286.01 2961.57,2285.16 2962.92,2285.16L3014.96,2285.16C3016.37,2285.16 3017.22,2286.22 3017.22,2287.43L3017.22,2339.39ZM2997.78,2324.76L2991.62,2304.47C2991.41,2303.62 2991.2,2302.77 2991.06,2301.92C2990.99,2301.21 2989.36,2300.58 2988.16,2300.58C2987.52,2300.58 2987.03,2300.72 2986.96,2301.21C2986.74,2302.56 2986.53,2303.76 2986.18,2305.03L2979.25,2324.76L2973.59,2304.18L2972.96,2301.14C2972.74,2300.36 2971.54,2299.94 2970.48,2299.94C2969.56,2299.94 2968.86,2300.22 2968.86,2300.79C2968.86,2300.86 2968.86,2300.93 2968.93,2301.07C2969.56,2302.49 2969.92,2303.69 2970.27,2304.61L2976.35,2325.82C2976.85,2327.3 2976.78,2327.87 2977.41,2328.51C2977.91,2329 2978.9,2329.57 2979.74,2329.57C2980.38,2329.57 2981.02,2329.28 2981.3,2328.29C2981.65,2327.02 2981.87,2326.03 2982.36,2324.69L2989.01,2306.02L2994.88,2325.82C2995.16,2326.88 2995.16,2327.87 2995.8,2328.51C2996.29,2329 2997.35,2329.57 2998.27,2329.57C2998.98,2329.57 2999.68,2329.28 2999.9,2328.29C3000.25,2326.95 3000.67,2325.61 3001.03,2324.69L3007.82,2305.31C3008.17,2304.32 3008.88,2302.49 3009.44,2301.28C3009.44,2301.21 3009.51,2301.14 3009.51,2301C3009.51,2300.22 3007.96,2299.52 3006.9,2299.52C3006.33,2299.52 3005.91,2299.73 3005.84,2300.15C3005.48,2301.64 3005.06,2303.19 3004.7,2304.32L2997.78,2324.76Z" style="fill-rule:nonzero;"/>
        </g>
    </g>
</svg>
