<?xml version="1.0" encoding="UTF-8" standalone="no"?>
<!DOCTYPE svg PUBLIC "-//W3C//DTD SVG 1.1//EN" "http://www.w3.org/Graphics/SVG/1.1/DTD/svg11.dtd">
<svg width="100%" height="100%" viewBox="0 0 89 89" version="1.1" xmlns="http://www.w3.org/2000/svg" xmlns:xlink="http://www.w3.org/1999/xlink" xml:space="preserve" xmlns:serif="http://www.serif.com/" style="fill-rule:evenodd;clip-rule:evenodd;stroke-linejoin:round;stroke-miterlimit:2;">
    <g transform="matrix(1,0,0,1,-3293.3,-831.509)">
        <g transform="matrix(1.41414,0,0,1.41429,-1389.33,-1046.26)">
            <path d="M3368.14,1390.08C3371.53,1390.08 3373.65,1387.54 3373.65,1384.57L3373.65,1333.23C3373.65,1329.77 3371.18,1327.72 3368.14,1327.72L3316.81,1327.72C3313.34,1327.72 3311.29,1330.05 3311.29,1333.23L3311.29,1384.57C3311.29,1387.75 3313.76,1390.08 3316.81,1390.08L3368.14,1390.08ZM3370.76,1384.85C3370.76,1386.4 3369.69,1387.18 3368.49,1387.18L3316.45,1387.18C3314.97,1387.18 3314.19,1386.12 3314.19,1384.85L3314.19,1332.88C3314.19,1331.46 3315.11,1330.62 3316.45,1330.62L3368.49,1330.62C3369.91,1330.62 3370.76,1331.68 3370.76,1332.88L3370.76,1384.85ZM3362.76,1342.14C3363.12,1342.14 3363.26,1341.79 3363.26,1341.36C3363.26,1340.44 3362.55,1338.96 3361.92,1338.96L3361.78,1338.96C3360.93,1339.17 3359.51,1339.24 3358.66,1339.31L3349.47,1339.95C3348.76,1339.6 3348.06,1339.31 3347.56,1339.31C3347.14,1339.31 3346.93,1339.45 3346.93,1339.95C3346.93,1340.66 3346.86,1341.65 3346.78,1342.42L3345.58,1356.35C3345.51,1356.64 3345.09,1358.48 3345.09,1358.97C3345.09,1360.38 3346.29,1361.44 3347.07,1361.44C3347.56,1361.44 3348.76,1359.96 3348.84,1359.82C3350.46,1357.98 3352.58,1356.71 3355.13,1356.71C3359.51,1356.71 3362.41,1360.24 3362.41,1366.11C3362.41,1371.63 3359.87,1376.72 3353.43,1376.72C3349.83,1376.72 3347.49,1374.03 3345.72,1370.99C3345.65,1370.71 3345.44,1370.57 3345.3,1370.57C3344.59,1370.57 3343.82,1372.12 3343.82,1373.39C3343.82,1375.23 3348.48,1379.83 3353.43,1379.83C3361.85,1379.83 3365.24,1373.32 3365.24,1366.04C3365.24,1358.26 3360.78,1353.74 3355.62,1353.74C3352.37,1353.74 3350.11,1354.94 3348.13,1356.92L3349.4,1343.06L3359.02,1342.35L3362.76,1342.14ZM3332.01,1356.64C3336.18,1355.36 3339.29,1351.83 3339.29,1347.02C3339.29,1341.51 3335.83,1338.25 3330.52,1338.25C3324.37,1338.25 3320.27,1343.2 3320.27,1344.48C3320.27,1345.68 3321.33,1346.88 3321.68,1346.88C3322.18,1346.88 3322.6,1346.17 3322.74,1345.96C3325.15,1342.71 3327.62,1341.22 3330.59,1341.22C3334.27,1341.22 3336.46,1343.56 3336.46,1347.38C3336.46,1352.11 3331.02,1355.65 3325.57,1356.07C3325.22,1356.14 3325.01,1356.5 3325.01,1356.92C3325.01,1357.84 3325.71,1359.18 3326.56,1359.18C3326.7,1359.18 3326.7,1359.11 3326.85,1359.11C3327.41,1358.97 3328.47,1358.76 3329.39,1358.69C3329.82,1358.62 3330.17,1358.62 3330.52,1358.62C3334.84,1358.62 3337.95,1361.87 3337.95,1366.54C3337.95,1371.77 3335.33,1376.79 3328.76,1376.79C3325.36,1376.79 3323.24,1374.81 3321.19,1371.84C3320.98,1371.63 3320.84,1371.49 3320.69,1371.49C3319.99,1371.49 3319.28,1372.97 3319.28,1374.1C3319.28,1374.6 3319.35,1374.95 3319.63,1375.23C3322.18,1378.2 3325.08,1379.83 3328.76,1379.83C3337.31,1379.83 3340.85,1373.68 3340.85,1366.46C3340.85,1360.38 3336.96,1356.64 3332.57,1356.64L3332.01,1356.64Z" style="fill-rule:nonzero;"/>
        </g>
    </g>
</svg>
