<?xml version="1.0" encoding="UTF-8" standalone="no"?>
<!DOCTYPE svg PUBLIC "-//W3C//DTD SVG 1.1//EN" "http://www.w3.org/Graphics/SVG/1.1/DTD/svg11.dtd">
<svg width="100%" height="100%" viewBox="0 0 89 89" version="1.1" xmlns="http://www.w3.org/2000/svg" xmlns:xlink="http://www.w3.org/1999/xlink" xml:space="preserve" xmlns:serif="http://www.serif.com/" style="fill-rule:evenodd;clip-rule:evenodd;stroke-linejoin:round;stroke-miterlimit:2;">
    <g transform="matrix(1,0,0,1,-3493.28,-981.509)">
        <g transform="matrix(1.41414,0,0,1.41429,-1389.33,-1046.26)">
            <path d="M3509.55,1496.14C3512.95,1496.14 3515.07,1493.6 3515.07,1490.63L3515.07,1439.29C3515.07,1435.83 3512.59,1433.78 3509.55,1433.78L3458.22,1433.78C3454.76,1433.78 3452.7,1436.11 3452.7,1439.29L3452.7,1490.63C3452.7,1493.81 3455.18,1496.14 3458.22,1496.14L3509.55,1496.14ZM3512.17,1490.91C3512.17,1492.46 3511.11,1493.24 3509.91,1493.24L3457.87,1493.24C3456.38,1493.24 3455.6,1492.18 3455.6,1490.91L3455.6,1438.94C3455.6,1437.53 3456.52,1436.68 3457.87,1436.68L3509.91,1436.68C3511.32,1436.68 3512.17,1437.74 3512.17,1438.94L3512.17,1490.91ZM3480.21,1475.78C3481.55,1475.78 3483.46,1475.92 3484.17,1475.92C3484.59,1475.92 3484.73,1475.57 3484.73,1475.14C3484.73,1474.15 3483.96,1472.53 3483.11,1472.53C3482.47,1472.53 3480.99,1472.81 3480.14,1472.88L3479.22,1472.95L3479.22,1461.14C3479.22,1459.73 3479.36,1456.97 3479.36,1456.05C3479.36,1455.06 3477.95,1454.42 3477.03,1454.42C3476.46,1454.42 3476.11,1454.64 3476.11,1454.99C3476.11,1456.33 3476.25,1460.01 3476.25,1461.14L3476.25,1473.09L3464.16,1473.38C3467.76,1466.59 3472.43,1457.39 3475.26,1451.1C3475.68,1450.18 3476.46,1448.84 3477.1,1447.92C3477.17,1447.78 3477.17,1447.57 3477.17,1447.35C3477.17,1446.15 3475.76,1444.45 3474.91,1444.45C3474.62,1444.45 3474.48,1444.53 3474.41,1444.81C3472.78,1449.33 3468.47,1459.09 3462.46,1470.33C3462.04,1471.11 3461.26,1471.96 3460.69,1472.95C3460.48,1473.3 3460.41,1473.73 3460.41,1474.08C3460.41,1475.42 3461.61,1476.7 3462.6,1476.7C3462.74,1476.7 3462.82,1476.63 3462.96,1476.63C3463.73,1476.41 3464.44,1476.27 3464.87,1476.27L3476.25,1475.92L3476.25,1479.03C3476.25,1479.88 3476.11,1483.13 3476.11,1484.05C3476.11,1485.04 3477.59,1485.68 3478.58,1485.68C3479.08,1485.68 3479.5,1485.46 3479.5,1485.11C3479.5,1483.77 3479.22,1481.51 3479.22,1479.17L3479.22,1475.78L3480.21,1475.78ZM3507.29,1447.28C3507.29,1446.29 3506.02,1445.02 3505.24,1444.88L3505.17,1444.88C3504.53,1444.88 3503.83,1445.23 3503.05,1445.3L3489.33,1446.36L3488.69,1446.36C3487.85,1446.36 3487.35,1446.29 3486.78,1446.29C3486.57,1446.29 3486.5,1446.43 3486.5,1446.65C3486.5,1447 3487.21,1449.55 3488.98,1449.55C3489.4,1449.55 3489.97,1449.48 3490.46,1449.4L3503.61,1448.13C3501.14,1454.28 3497.18,1464.32 3491.52,1482.99C3491.45,1483.34 3491.24,1483.84 3491.24,1484.33C3491.24,1484.83 3491.45,1485.32 3492.51,1485.46C3492.72,1485.46 3493.01,1485.54 3493.15,1485.54C3494,1485.54 3494.49,1485.32 3494.56,1484.69C3496.47,1475.42 3502.13,1459.73 3506.09,1450.18C3506.37,1449.48 3507.15,1448.41 3507.29,1447.5L3507.29,1447.28Z" style="fill-rule:nonzero;"/>
        </g>
    </g>
</svg>
