<?xml version="1.0" encoding="UTF-8" standalone="no"?>
<!DOCTYPE svg PUBLIC "-//W3C//DTD SVG 1.1//EN" "http://www.w3.org/Graphics/SVG/1.1/DTD/svg11.dtd">
<svg width="100%" height="100%" viewBox="0 0 89 89" version="1.1" xmlns="http://www.w3.org/2000/svg" xmlns:xlink="http://www.w3.org/1999/xlink" xml:space="preserve" xmlns:serif="http://www.serif.com/" style="fill-rule:evenodd;clip-rule:evenodd;stroke-linejoin:round;stroke-miterlimit:2;">
    <g transform="matrix(1,0,0,1,-3693.26,-531.509)">
        <g transform="matrix(1.41414,0,0,1.41429,-1389.33,-1046.26)">
            <path d="M3650.97,1177.96C3654.36,1177.96 3656.48,1175.41 3656.48,1172.44L3656.48,1121.11C3656.48,1117.65 3654.01,1115.6 3650.97,1115.6L3599.63,1115.6C3596.17,1115.6 3594.12,1117.93 3594.12,1121.11L3594.12,1172.44C3594.12,1175.63 3596.59,1177.96 3599.63,1177.96L3650.97,1177.96ZM3653.58,1172.73C3653.58,1174.28 3652.52,1175.06 3651.32,1175.06L3599.28,1175.06C3597.8,1175.06 3597.02,1174 3597.02,1172.73L3597.02,1120.76C3597.02,1119.34 3597.94,1118.5 3599.28,1118.5L3651.32,1118.5C3652.73,1118.5 3653.58,1119.56 3653.58,1120.76L3653.58,1172.73ZM3636.4,1167.42C3637.67,1167.35 3638.45,1167 3638.52,1166.22C3639.09,1159.15 3643.4,1133.91 3644.89,1129.88L3644.89,1129.67C3644.89,1128.82 3643.54,1127.9 3642.69,1127.76L3642.62,1127.76C3641.63,1127.76 3641.92,1129.45 3641.49,1131.08C3639.3,1126.7 3634.99,1126.13 3632.87,1126.13C3625.72,1126.13 3619.78,1133.77 3619.78,1141.48C3619.78,1147.98 3623.67,1151.73 3628.48,1151.73C3632.23,1151.73 3636.68,1149.11 3638.88,1145.08L3635.41,1165.09C3635.27,1165.59 3635.13,1166.08 3635.13,1166.51C3635.13,1167.07 3635.41,1167.42 3636.26,1167.42L3636.4,1167.42ZM3640.5,1136.38C3640.08,1137.66 3639.58,1139.35 3639.02,1140.41C3636.33,1145.36 3633.01,1148.62 3628.41,1148.62C3625.02,1148.62 3622.83,1146.14 3622.83,1141.26C3622.83,1136.03 3626.93,1129.1 3633.15,1129.1C3636.83,1129.1 3638.88,1131.86 3639.51,1133.41C3639.72,1133.91 3640.01,1134.12 3640.29,1134.12C3640.57,1134.12 3640.78,1133.91 3641.07,1133.63C3640.86,1134.55 3640.64,1135.46 3640.5,1136.38ZM3608.97,1160.92C3608.97,1162.12 3608.83,1165.02 3608.83,1165.94C3608.83,1166.86 3610.24,1167.5 3611.23,1167.5C3611.72,1167.5 3612.08,1167.35 3612.08,1166.93C3612.01,1165.44 3611.94,1162.12 3611.94,1160.57L3611.94,1132.07C3611.94,1130.44 3612.29,1129.45 3612.29,1128.54C3612.29,1127.48 3611.16,1126.41 3610.38,1126.41C3609.6,1126.41 3608.54,1128.04 3608.12,1128.39C3606.56,1129.74 3604.09,1131.22 3601.54,1132.35C3601.19,1132.5 3601.05,1132.71 3601.05,1132.92C3601.05,1133.56 3602.18,1134.19 3603.1,1134.19C3603.31,1134.19 3603.45,1134.19 3603.59,1134.12C3605.36,1133.56 3607.48,1132.64 3608.97,1131.65L3608.97,1160.92Z" style="fill-rule:nonzero;"/>
        </g>
    </g>
</svg>
