<?xml version="1.0" encoding="UTF-8" standalone="no"?>
<!DOCTYPE svg PUBLIC "-//W3C//DTD SVG 1.1//EN" "http://www.w3.org/Graphics/SVG/1.1/DTD/svg11.dtd">
<svg width="100%" height="100%" viewBox="0 0 89 89" version="1.1" xmlns="http://www.w3.org/2000/svg" xmlns:xlink="http://www.w3.org/1999/xlink" xml:space="preserve" xmlns:serif="http://www.serif.com/" style="fill-rule:evenodd;clip-rule:evenodd;stroke-linejoin:round;stroke-miterlimit:2;">
    <g transform="matrix(1,0,0,1,-2993.33,-1131.51)">
        <g transform="matrix(1.41414,0,0,1.41429,-1389.33,-1046.26)">
            <path d="M3156.02,1602.2C3159.41,1602.2 3161.53,1599.66 3161.53,1596.69L3161.53,1545.35C3161.53,1541.89 3159.06,1539.84 3156.02,1539.84L3104.68,1539.84C3101.22,1539.84 3099.17,1542.17 3099.17,1545.35L3099.17,1596.69C3099.17,1599.87 3101.64,1602.2 3104.68,1602.2L3156.02,1602.2ZM3158.63,1596.97C3158.63,1598.53 3157.57,1599.3 3156.37,1599.3L3104.33,1599.3C3102.85,1599.3 3102.07,1598.24 3102.07,1596.97L3102.07,1545C3102.07,1543.59 3102.99,1542.74 3104.33,1542.74L3156.37,1542.74C3157.78,1542.74 3158.63,1543.8 3158.63,1545L3158.63,1596.97ZM3126.89,1554.26C3127.24,1554.26 3127.38,1553.91 3127.38,1553.49C3127.38,1552.57 3126.67,1551.08 3126.04,1551.08L3125.9,1551.08C3125.05,1551.29 3123.63,1551.36 3122.78,1551.43L3113.59,1552.07C3112.89,1551.72 3112.18,1551.43 3111.68,1551.43C3111.26,1551.43 3111.05,1551.58 3111.05,1552.07C3111.05,1552.78 3110.98,1553.77 3110.91,1554.55L3109.7,1568.48C3109.63,1568.76 3109.21,1570.6 3109.21,1571.09C3109.21,1572.51 3110.41,1573.57 3111.19,1573.57C3111.68,1573.57 3112.89,1572.08 3112.96,1571.94C3114.58,1570.1 3116.7,1568.83 3119.25,1568.83C3123.63,1568.83 3126.53,1572.36 3126.53,1578.23C3126.53,1583.75 3123.99,1588.84 3117.55,1588.84C3113.95,1588.84 3111.61,1586.15 3109.85,1583.11C3109.78,1582.83 3109.56,1582.69 3109.42,1582.69C3108.71,1582.69 3107.94,1584.24 3107.94,1585.52C3107.94,1587.35 3112.6,1591.95 3117.55,1591.95C3125.97,1591.95 3129.36,1585.44 3129.36,1578.16C3129.36,1570.38 3124.91,1565.86 3119.74,1565.86C3116.49,1565.86 3114.23,1567.06 3112.25,1569.04L3113.52,1555.18L3123.14,1554.48L3126.89,1554.26ZM3133.89,1591.24C3135.16,1590.96 3137.63,1590.54 3141.52,1590.54C3147.82,1590.54 3151.28,1590.89 3152.2,1590.96C3152.55,1590.96 3152.76,1590.68 3152.76,1590.18C3152.76,1589.19 3151.99,1587.64 3151.21,1587.64C3150.57,1587.64 3148.95,1587.71 3148.1,1587.71C3146.05,1587.71 3144.49,1587.64 3142.09,1587.64C3140.18,1587.64 3137.35,1587.78 3135.51,1587.99C3137.21,1584.17 3140.25,1578.44 3144.56,1573.92C3149.16,1569.11 3152.34,1565.08 3152.34,1559.85C3152.34,1554.33 3148.95,1550.38 3143.5,1550.38C3138.48,1550.38 3135.09,1553.27 3133.11,1557.44C3132.9,1557.73 3132.83,1558.08 3132.83,1558.43C3132.83,1559.21 3133.82,1560.77 3134.59,1560.77C3135.16,1560.77 3135.51,1560.2 3135.8,1559.42C3136.86,1556.03 3139.54,1553.34 3143.43,1553.34C3147.18,1553.34 3149.3,1556.31 3149.3,1559.85C3149.3,1563.6 3146.76,1567.13 3142.72,1571.52C3138.55,1575.97 3135.16,1582.12 3133.25,1586.22C3132.97,1586.79 3132.61,1587.28 3132.19,1587.92C3132.05,1588.13 3131.98,1588.41 3131.98,1588.77C3131.98,1589.9 3132.83,1591.24 3133.74,1591.24L3133.89,1591.24Z" style="fill-rule:nonzero;"/>
        </g>
    </g>
</svg>
