<?xml version="1.0" encoding="UTF-8" standalone="no"?>
<!DOCTYPE svg PUBLIC "-//W3C//DTD SVG 1.1//EN" "http://www.w3.org/Graphics/SVG/1.1/DTD/svg11.dtd">
<svg width="100%" height="100%" viewBox="0 0 89 89" version="1.1" xmlns="http://www.w3.org/2000/svg" xmlns:xlink="http://www.w3.org/1999/xlink" xml:space="preserve" xmlns:serif="http://www.serif.com/" style="fill-rule:evenodd;clip-rule:evenodd;stroke-linejoin:round;stroke-miterlimit:2;">
    <g transform="matrix(1,0,0,1,-3693.26,-1881.51)">
        <g transform="matrix(1.41414,0,0,1.41429,-1389.33,-1046.26)">
            <path d="M3650.97,2132.51C3654.36,2132.51 3656.48,2129.96 3656.48,2126.99L3656.48,2075.66C3656.48,2072.19 3654.01,2070.14 3650.97,2070.14L3599.63,2070.14C3596.17,2070.14 3594.12,2072.48 3594.12,2075.66L3594.12,2126.99C3594.12,2130.17 3596.59,2132.51 3599.63,2132.51L3650.97,2132.51ZM3653.58,2127.27C3653.58,2128.83 3652.52,2129.61 3651.32,2129.61L3599.28,2129.61C3597.8,2129.61 3597.02,2128.55 3597.02,2127.27L3597.02,2075.3C3597.02,2073.89 3597.94,2073.04 3599.28,2073.04L3651.32,2073.04C3652.73,2073.04 3653.58,2074.1 3653.58,2075.3L3653.58,2127.27ZM3626.43,2119.71C3626.43,2121.55 3625.87,2124.3 3623.6,2124.3C3622.61,2124.3 3621.13,2124.16 3619.93,2122.75C3619.64,2122.39 3619.36,2122.25 3619.01,2122.25C3618.23,2122.25 3617.45,2123.53 3617.45,2124.52C3617.45,2124.94 3617.59,2125.29 3617.88,2125.51C3619.93,2127.34 3621.98,2127.41 3623.6,2127.41C3628.62,2127.41 3629.68,2122.96 3629.68,2119.64L3629.68,2095.95C3629.68,2094.47 3629.83,2091.28 3629.83,2090.36C3629.83,2089.38 3628.27,2088.74 3627.21,2088.74C3626.71,2088.74 3626.29,2088.88 3626.29,2089.3C3626.29,2090.65 3626.43,2094.82 3626.43,2095.95L3626.43,2119.71ZM3628.34,2081.67C3629.76,2081.67 3630.6,2080.75 3630.6,2079.26C3630.6,2077.71 3629.12,2076.01 3627.78,2076.01C3626.29,2076.01 3625.51,2076.93 3625.51,2078.49C3625.51,2079.9 3626.86,2081.67 3628.34,2081.67Z" style="fill-rule:nonzero;"/>
        </g>
    </g>
</svg>
