<?xml version="1.0" encoding="UTF-8" standalone="no"?>
<!DOCTYPE svg PUBLIC "-//W3C//DTD SVG 1.1//EN" "http://www.w3.org/Graphics/SVG/1.1/DTD/svg11.dtd">
<svg width="100%" height="100%" viewBox="0 0 89 89" version="1.1" xmlns="http://www.w3.org/2000/svg" xmlns:xlink="http://www.w3.org/1999/xlink" xml:space="preserve" xmlns:serif="http://www.serif.com/" style="fill-rule:evenodd;clip-rule:evenodd;stroke-linejoin:round;stroke-miterlimit:2;">
    <g transform="matrix(1,0,0,1,-3293.3,-531.509)">
        <g transform="matrix(1.41414,0,0,1.41429,-1389.33,-1046.26)">
            <path d="M3368.14,1177.96C3371.53,1177.96 3373.65,1175.41 3373.65,1172.44L3373.65,1121.11C3373.65,1117.65 3371.18,1115.6 3368.14,1115.6L3316.81,1115.6C3313.34,1115.6 3311.29,1117.93 3311.29,1121.11L3311.29,1172.44C3311.29,1175.63 3313.76,1177.96 3316.81,1177.96L3368.14,1177.96ZM3370.76,1172.73C3370.76,1174.28 3369.69,1175.06 3368.49,1175.06L3316.45,1175.06C3314.97,1175.06 3314.19,1174 3314.19,1172.73L3314.19,1120.76C3314.19,1119.34 3315.11,1118.5 3316.45,1118.5L3368.49,1118.5C3369.91,1118.5 3370.76,1119.56 3370.76,1120.76L3370.76,1172.73ZM3356.12,1130.02C3357.6,1129.88 3359.09,1129.88 3360.08,1129.81C3360.43,1129.81 3360.64,1129.45 3360.64,1129.03C3360.64,1128.11 3359.87,1126.63 3359.16,1126.63L3359.02,1126.63C3358.17,1126.84 3356.68,1126.91 3355.69,1126.98L3345.37,1127.83C3344.66,1127.48 3343.89,1127.19 3343.39,1127.19C3342.97,1127.19 3342.68,1127.33 3342.68,1127.83C3342.68,1128.54 3342.68,1129.53 3342.61,1130.3L3340.63,1144.23C3340.56,1144.73 3340.42,1145.43 3340.21,1146.21C3340.14,1146.42 3340.14,1146.64 3340.14,1146.85C3340.14,1148.26 3341.41,1149.32 3342.26,1149.32C3342.68,1149.32 3343.96,1147.91 3344.1,1147.7C3345.87,1145.86 3348.41,1144.59 3351.1,1144.59C3355.69,1144.59 3359.02,1148.12 3359.02,1153.99C3359.02,1159.51 3356.05,1164.6 3349.26,1164.6C3345.44,1164.6 3342.68,1161.91 3340.85,1158.87C3340.7,1158.59 3340.56,1158.44 3340.35,1158.44C3339.64,1158.44 3338.8,1160 3338.8,1161.27C3338.8,1161.77 3338.94,1162.19 3339.22,1162.48C3341.62,1165.44 3345.09,1167.71 3349.26,1167.71C3358.31,1167.71 3362.06,1161.2 3362.06,1153.92C3362.06,1146.14 3357.04,1141.62 3351.59,1141.62C3348.13,1141.62 3345.44,1142.82 3343.32,1144.8L3345.3,1130.94L3356.12,1130.02ZM3329.89,1166.93C3329.89,1165.44 3329.82,1162.12 3329.82,1160.57L3329.82,1132.07C3329.82,1130.44 3330.1,1129.45 3330.1,1128.54C3330.1,1127.48 3328.97,1126.41 3328.19,1126.41C3327.41,1126.41 3326.35,1128.04 3325.93,1128.39C3324.37,1129.74 3321.97,1131.22 3319.35,1132.35C3319,1132.5 3318.86,1132.71 3318.86,1132.92C3318.86,1133.56 3319.99,1134.19 3320.91,1134.19C3321.12,1134.19 3321.26,1134.19 3321.4,1134.12C3323.24,1133.56 3325.29,1132.64 3326.78,1131.65L3326.78,1160.92C3326.78,1162.12 3326.63,1165.02 3326.63,1165.94C3326.63,1166.86 3328.05,1167.5 3329.11,1167.5C3329.53,1167.5 3329.89,1167.35 3329.89,1167L3329.89,1166.93Z" style="fill-rule:nonzero;"/>
        </g>
    </g>
</svg>
