<?xml version="1.0" encoding="UTF-8" standalone="no"?>
<!DOCTYPE svg PUBLIC "-//W3C//DTD SVG 1.1//EN" "http://www.w3.org/Graphics/SVG/1.1/DTD/svg11.dtd">
<svg width="100%" height="100%" viewBox="0 0 89 89" version="1.1" xmlns="http://www.w3.org/2000/svg" xmlns:xlink="http://www.w3.org/1999/xlink" xml:space="preserve" xmlns:serif="http://www.serif.com/" style="fill-rule:evenodd;clip-rule:evenodd;stroke-linejoin:round;stroke-miterlimit:2;">
    <g transform="matrix(1,0,0,1,-3593.27,-1281.51)">
        <g transform="matrix(1.41414,0,0,1.41429,-1389.33,-1046.26)">
            <path d="M3580.26,1708.26C3583.65,1708.26 3585.78,1705.72 3585.78,1702.75L3585.78,1651.41C3585.78,1647.95 3583.3,1645.9 3580.26,1645.9L3528.93,1645.9C3525.46,1645.9 3523.41,1648.23 3523.41,1651.41L3523.41,1702.75C3523.41,1705.93 3525.89,1708.26 3528.93,1708.26L3580.26,1708.26ZM3582.88,1703.03C3582.88,1704.59 3581.82,1705.36 3580.61,1705.36L3528.57,1705.36C3527.09,1705.36 3526.31,1704.3 3526.31,1703.03L3526.31,1651.06C3526.31,1649.65 3527.23,1648.8 3528.57,1648.8L3580.61,1648.8C3582.03,1648.8 3582.88,1649.86 3582.88,1651.06L3582.88,1703.03ZM3569.09,1674.11C3574.25,1670.01 3578,1665.13 3578,1663.86C3578,1663.22 3577.64,1662.8 3577.15,1662.8C3576.8,1662.8 3576.44,1662.94 3576.02,1663.43L3575.73,1663.72C3575.95,1663.36 3576.09,1662.94 3576.09,1662.66C3576.09,1662.02 3573.19,1656.51 3567.53,1656.51C3561.59,1656.51 3558.2,1660.96 3558.2,1665.98C3558.2,1669.73 3559.47,1672.13 3563.93,1674.68C3559.4,1678.21 3556.64,1682.1 3556.64,1687.26C3556.64,1693.34 3560.39,1698.01 3566.68,1698.01C3573.68,1698.01 3578.28,1693.49 3578.28,1686.49C3578.28,1680.97 3575.52,1677.36 3569.72,1674.39L3569.09,1674.11ZM3541.37,1658.27C3539.39,1661.67 3537.27,1665.91 3535.01,1671C3532.67,1676.3 3531.47,1681.11 3531.47,1685.92C3531.47,1692.57 3536.14,1698.01 3542.36,1698.01C3549.15,1698.01 3553.25,1692.07 3553.25,1684.36C3553.25,1677.43 3549.22,1672.34 3543.21,1672.34C3539.89,1672.34 3537.2,1674.04 3535.5,1676.8C3538.83,1668.67 3541.87,1663.01 3544.91,1658.84C3545.12,1658.56 3545.47,1658.06 3545.47,1657.64C3545.47,1657.14 3544.55,1656.36 3543.35,1656.36C3542.78,1656.36 3542.36,1656.58 3542.08,1657.07C3541.94,1657.35 3541.51,1658.13 3541.37,1658.27ZM3542.36,1695.11C3537.69,1695.11 3534.37,1691.08 3534.37,1685.85C3534.37,1680.19 3537.76,1675.24 3543.21,1675.24C3547.66,1675.24 3550.35,1679.63 3550.35,1684.51C3550.35,1690.73 3546.96,1695.11 3542.36,1695.11ZM3566.54,1676.09C3574.89,1679.41 3575.38,1684.58 3575.38,1686.77C3575.38,1691.65 3571.7,1694.97 3566.68,1694.97C3561.66,1694.97 3559.47,1691.01 3559.47,1687.12C3559.47,1683.02 3562.09,1679.7 3566.54,1676.09ZM3566.54,1672.7C3562.3,1670.51 3561.03,1668.95 3561.03,1665.98C3561.03,1662.66 3563.22,1659.4 3567.6,1659.4C3570.43,1659.4 3572.13,1661.17 3573.61,1663.93C3573.9,1664.5 3574.18,1664.71 3574.46,1664.71C3574.6,1664.71 3574.82,1664.71 3574.89,1664.64C3572.48,1667.47 3569.8,1670.29 3566.54,1672.7Z" style="fill-rule:nonzero;"/>
        </g>
    </g>
</svg>
