<?xml version="1.0" encoding="UTF-8" standalone="no"?>
<!DOCTYPE svg PUBLIC "-//W3C//DTD SVG 1.1//EN" "http://www.w3.org/Graphics/SVG/1.1/DTD/svg11.dtd">
<svg width="100%" height="100%" viewBox="0 0 89 89" version="1.1" xmlns="http://www.w3.org/2000/svg" xmlns:xlink="http://www.w3.org/1999/xlink" xml:space="preserve" xmlns:serif="http://www.serif.com/" style="fill-rule:evenodd;clip-rule:evenodd;stroke-linejoin:round;stroke-miterlimit:2;">
    <g transform="matrix(1,0,0,1,-3093.32,-2181.51)">
        <g transform="matrix(1.41414,0,0,1.41429,-1389.33,-1046.26)">
            <path d="M3226.72,2344.63C3230.12,2344.63 3232.24,2342.08 3232.24,2339.11L3232.24,2287.78C3232.24,2284.31 3229.76,2282.26 3226.72,2282.26L3175.39,2282.26C3171.93,2282.26 3169.88,2284.6 3169.88,2287.78L3169.88,2339.11C3169.88,2342.29 3172.35,2344.63 3175.39,2344.63L3226.72,2344.63ZM3229.34,2339.39C3229.34,2340.95 3228.28,2341.73 3227.08,2341.73L3175.04,2341.73C3173.55,2341.73 3172.78,2340.67 3172.78,2339.39L3172.78,2287.43C3172.78,2286.01 3173.69,2285.16 3175.04,2285.16L3227.08,2285.16C3228.49,2285.16 3229.34,2286.22 3229.34,2287.43L3229.34,2339.39ZM3210.82,2324.83C3209.54,2324.9 3207.99,2324.97 3207.07,2324.97C3205.02,2324.9 3201.27,2324.9 3199.01,2324.9C3197.31,2324.9 3193.85,2325.04 3192.36,2325.18C3197.31,2318.47 3204.38,2309.63 3209.76,2303.97C3210.25,2303.41 3211.38,2302.98 3211.38,2302.27C3211.38,2301.28 3210.04,2299.38 3208.84,2299.23L3208.55,2299.23C3207.85,2299.23 3206.93,2299.59 3206.43,2299.59L3197.03,2300.22C3196.11,2300.29 3195.05,2300.29 3193.99,2300.29C3192.93,2300.29 3191.94,2300.29 3191.02,2300.22L3190.95,2300.22C3190.59,2300.22 3190.52,2300.43 3190.52,2300.79C3190.52,2301.78 3191.72,2303.69 3192.93,2303.69L3193,2303.69L3197.1,2303.26L3206.78,2302.63C3202.33,2307.29 3195.26,2315.92 3190.24,2322.71C3189.6,2323.56 3188.68,2324.12 3188.4,2324.9C3188.26,2325.18 3188.19,2325.61 3188.19,2325.96C3188.19,2327.16 3188.83,2328.51 3189.6,2328.51L3189.67,2328.51C3192.57,2328.08 3198.58,2327.94 3199.01,2327.94L3207.07,2327.94C3208.76,2328.01 3210.32,2328.22 3211.95,2328.29C3212.37,2328.29 3212.58,2327.94 3212.58,2327.52C3212.58,2326.45 3211.73,2324.83 3210.89,2324.83L3210.82,2324.83Z" style="fill-rule:nonzero;"/>
        </g>
    </g>
</svg>
