<?xml version="1.0" encoding="UTF-8" standalone="no"?>
<!DOCTYPE svg PUBLIC "-//W3C//DTD SVG 1.1//EN" "http://www.w3.org/Graphics/SVG/1.1/DTD/svg11.dtd">
<svg width="100%" height="100%" viewBox="0 0 89 89" version="1.1" xmlns="http://www.w3.org/2000/svg" xmlns:xlink="http://www.w3.org/1999/xlink" xml:space="preserve" xmlns:serif="http://www.serif.com/" style="fill-rule:evenodd;clip-rule:evenodd;stroke-linejoin:round;stroke-miterlimit:2;">
    <g transform="matrix(1,0,0,1,-2993.33,-381.509)">
        <g transform="matrix(1.41414,0,0,1.41429,-1389.33,-1046.26)">
            <path d="M3156.02,1071.9C3159.41,1071.9 3161.53,1069.35 3161.53,1066.38L3161.53,1015.05C3161.53,1011.59 3159.06,1009.54 3156.02,1009.54L3104.68,1009.54C3101.22,1009.54 3099.17,1011.87 3099.17,1015.05L3099.17,1066.38C3099.17,1069.57 3101.64,1071.9 3104.68,1071.9L3156.02,1071.9ZM3158.63,1066.67C3158.63,1068.22 3157.57,1069 3156.37,1069L3104.33,1069C3102.85,1069 3102.07,1067.94 3102.07,1066.67L3102.07,1014.7C3102.07,1013.28 3102.99,1012.44 3104.33,1012.44L3156.37,1012.44C3157.78,1012.44 3158.63,1013.5 3158.63,1014.7L3158.63,1066.67ZM3114.09,1023.96C3113.95,1023.75 3113.66,1023.54 3113.38,1023.54C3111.83,1023.54 3108.71,1032.09 3108.71,1041.85C3108.71,1053.52 3112.04,1062.07 3118.9,1062.07C3126.11,1062.07 3129.57,1052.1 3129.57,1040.36C3129.57,1028.84 3126.25,1020.43 3120.03,1020.43C3117.62,1020.43 3115.57,1021.84 3114.09,1023.96ZM3118.68,1059.03C3113.38,1059.03 3111.61,1051.11 3111.61,1041.78C3111.61,1029.48 3116.28,1023.32 3119.89,1023.32C3124.98,1023.32 3126.74,1032.02 3126.74,1039.94C3126.74,1049.63 3124.48,1059.03 3118.68,1059.03ZM3134.59,1061.22C3135.87,1060.94 3138.34,1060.52 3142.23,1060.52C3148.1,1060.52 3151.85,1060.8 3152.91,1060.94C3153.26,1060.94 3153.47,1060.66 3153.47,1060.16C3153.47,1059.17 3152.69,1057.62 3151.92,1057.62C3151.28,1057.62 3149.65,1057.69 3148.81,1057.69C3146.76,1057.69 3145.2,1057.62 3142.8,1057.62C3140.89,1057.62 3138.06,1057.76 3136.22,1057.97C3137.92,1054.15 3140.96,1048.42 3145.27,1043.9C3149.87,1039.09 3153.05,1035.06 3153.05,1029.83C3153.05,1024.31 3149.65,1020.35 3144.21,1020.35C3139.19,1020.35 3135.8,1023.25 3133.82,1027.42C3133.6,1027.71 3133.53,1028.06 3133.53,1028.41C3133.53,1029.19 3134.52,1030.75 3135.3,1030.75C3135.87,1030.75 3136.22,1030.18 3136.5,1029.4C3137.56,1026.01 3140.25,1023.32 3144.14,1023.32C3147.89,1023.32 3150.01,1026.29 3150.01,1029.83C3150.01,1033.58 3147.46,1037.11 3143.43,1041.5C3139.26,1045.95 3135.8,1052.1 3133.96,1056.2C3133.67,1056.77 3133.32,1057.26 3132.9,1057.9C3132.76,1058.11 3132.68,1058.39 3132.68,1058.75C3132.68,1059.88 3133.53,1061.22 3134.45,1061.22L3134.59,1061.22Z" style="fill-rule:nonzero;"/>
        </g>
    </g>
</svg>
