<?xml version="1.0" encoding="UTF-8" standalone="no"?>
<!DOCTYPE svg PUBLIC "-//W3C//DTD SVG 1.1//EN" "http://www.w3.org/Graphics/SVG/1.1/DTD/svg11.dtd">
<svg width="100%" height="100%" viewBox="0 0 89 89" version="1.1" xmlns="http://www.w3.org/2000/svg" xmlns:xlink="http://www.w3.org/1999/xlink" xml:space="preserve" xmlns:serif="http://www.serif.com/" style="fill-rule:evenodd;clip-rule:evenodd;stroke-linejoin:round;stroke-miterlimit:2;">
    <g transform="matrix(1,0,0,1,-3693.26,-831.509)">
        <g transform="matrix(1.41414,0,0,1.41429,-1389.33,-1046.26)">
            <path d="M3650.97,1390.08C3654.36,1390.08 3656.48,1387.54 3656.48,1384.57L3656.48,1333.23C3656.48,1329.77 3654.01,1327.72 3650.97,1327.72L3599.63,1327.72C3596.17,1327.72 3594.12,1330.05 3594.12,1333.23L3594.12,1384.57C3594.12,1387.75 3596.59,1390.08 3599.63,1390.08L3650.97,1390.08ZM3653.58,1384.85C3653.58,1386.4 3652.52,1387.18 3651.32,1387.18L3599.28,1387.18C3597.8,1387.18 3597.02,1386.12 3597.02,1384.85L3597.02,1332.88C3597.02,1331.46 3597.94,1330.62 3599.28,1330.62L3651.32,1330.62C3652.73,1330.62 3653.58,1331.68 3653.58,1332.88L3653.58,1384.85ZM3640.29,1379.55C3641.49,1379.48 3642.2,1379.12 3642.27,1378.34C3642.91,1370.99 3645.59,1354.8 3647.71,1344.12C3647.78,1343.77 3648.14,1342.78 3648.28,1342L3648.28,1341.79C3648.28,1340.94 3647.36,1339.88 3646.23,1339.88C3645.24,1339.88 3645.45,1341.65 3645.1,1343.2C3644.46,1341.58 3642.13,1338.25 3637.39,1338.25C3630.6,1338.25 3625.44,1345.89 3625.44,1353.6C3625.44,1360.1 3628.62,1363.85 3633.22,1363.85C3636.76,1363.85 3640.5,1361.23 3642.62,1357.2C3639.94,1373.68 3639.72,1374.6 3639.3,1377.21C3639.23,1377.71 3639.09,1378.2 3639.09,1378.63C3639.09,1379.19 3639.3,1379.55 3640.15,1379.55L3640.29,1379.55ZM3614.48,1356.64C3618.65,1355.36 3621.84,1351.83 3621.84,1347.02C3621.84,1341.51 3618.3,1338.25 3613.07,1338.25C3607.13,1338.25 3602.74,1342.99 3602.74,1344.48C3602.74,1345.68 3603.81,1346.88 3604.23,1346.88C3604.72,1346.88 3605.08,1346.17 3605.22,1345.96C3607.69,1342.71 3610.17,1341.22 3613.07,1341.22C3616.82,1341.22 3618.94,1343.56 3618.94,1347.38C3618.94,1352.11 3613.49,1355.65 3608.05,1356.07C3607.69,1356.14 3607.55,1356.5 3607.55,1356.92C3607.55,1357.84 3608.19,1359.18 3609.04,1359.18C3609.18,1359.18 3609.25,1359.11 3609.32,1359.11C3609.96,1358.97 3611.72,1358.62 3613.07,1358.62C3617.31,1358.62 3620.42,1361.87 3620.42,1366.54C3620.42,1371.77 3617.81,1376.79 3611.23,1376.79C3607.84,1376.79 3605.71,1374.81 3603.66,1371.84C3603.45,1371.63 3603.38,1371.49 3603.17,1371.49C3602.46,1371.49 3601.83,1372.97 3601.83,1374.1C3601.83,1374.6 3601.83,1374.95 3602.11,1375.23C3604.72,1378.2 3607.62,1379.83 3611.23,1379.83C3619.78,1379.83 3623.32,1373.68 3623.32,1366.46C3623.32,1360.38 3619.43,1356.64 3615.12,1356.64L3614.48,1356.64ZM3644.67,1345.75C3643.33,1354.3 3638.59,1360.74 3633.15,1360.74C3629.97,1360.74 3628.27,1358.26 3628.27,1353.38C3628.27,1348.15 3631.66,1341.22 3637.6,1341.22C3641.14,1341.22 3642.62,1343.98 3643.26,1345.54C3643.4,1346.03 3643.68,1346.24 3643.97,1346.24C3644.18,1346.24 3644.46,1346.03 3644.67,1345.75Z" style="fill-rule:nonzero;"/>
        </g>
    </g>
</svg>
