<?xml version="1.0" encoding="UTF-8" standalone="no"?>
<!DOCTYPE svg PUBLIC "-//W3C//DTD SVG 1.1//EN" "http://www.w3.org/Graphics/SVG/1.1/DTD/svg11.dtd">
<svg width="100%" height="100%" viewBox="0 0 89 89" version="1.1" xmlns="http://www.w3.org/2000/svg" xmlns:xlink="http://www.w3.org/1999/xlink" xml:space="preserve" xmlns:serif="http://www.serif.com/" style="fill-rule:evenodd;clip-rule:evenodd;stroke-linejoin:round;stroke-miterlimit:2;">
    <g transform="matrix(1,0,0,1,-3493.28,-831.509)">
        <g transform="matrix(1.41414,0,0,1.41429,-1389.33,-1046.26)">
            <path d="M3509.55,1390.08C3512.95,1390.08 3515.07,1387.54 3515.07,1384.57L3515.07,1333.23C3515.07,1329.77 3512.59,1327.72 3509.55,1327.72L3458.22,1327.72C3454.76,1327.72 3452.7,1330.05 3452.7,1333.23L3452.7,1384.57C3452.7,1387.75 3455.18,1390.08 3458.22,1390.08L3509.55,1390.08ZM3512.17,1384.85C3512.17,1386.4 3511.11,1387.18 3509.91,1387.18L3457.87,1387.18C3456.38,1387.18 3455.6,1386.12 3455.6,1384.85L3455.6,1332.88C3455.6,1331.46 3456.52,1330.62 3457.87,1330.62L3509.91,1330.62C3511.32,1330.62 3512.17,1331.68 3512.17,1332.88L3512.17,1384.85ZM3474.55,1356.64C3478.72,1355.36 3481.91,1351.83 3481.91,1347.02C3481.91,1341.51 3478.37,1338.25 3473.14,1338.25C3466.42,1338.25 3462.82,1343.41 3462.82,1344.48C3462.82,1345.04 3463.03,1345.68 3463.66,1346.45C3463.88,1346.81 3464.09,1346.88 3464.3,1346.88C3464.8,1346.88 3465.15,1346.17 3465.36,1345.96C3467.76,1342.71 3470.24,1341.22 3473.21,1341.22C3476.89,1341.22 3479.08,1343.56 3479.08,1347.38C3479.08,1352.11 3473.85,1355.65 3468.19,1356.07C3467.84,1356.14 3467.62,1356.5 3467.62,1356.92C3467.62,1357.84 3468.26,1359.18 3469.11,1359.18C3469.25,1359.18 3469.32,1359.11 3469.46,1359.11C3469.96,1358.97 3471.09,1358.76 3472.01,1358.69C3472.43,1358.62 3472.78,1358.62 3473.14,1358.62C3477.45,1358.62 3480.49,1361.87 3480.49,1366.54C3480.49,1371.77 3477.88,1376.79 3471.3,1376.79C3467.91,1376.79 3465.78,1374.81 3463.73,1371.84C3463.59,1371.63 3463.45,1371.49 3463.24,1371.49C3462.53,1371.49 3461.9,1372.97 3461.9,1374.1C3461.9,1374.6 3461.97,1374.95 3462.18,1375.23C3464.8,1378.2 3467.69,1379.83 3471.3,1379.83C3479.93,1379.83 3483.39,1373.68 3483.39,1366.46C3483.39,1360.38 3479.5,1356.64 3475.19,1356.64L3474.55,1356.64ZM3507.5,1341.22C3507.5,1340.23 3506.16,1338.96 3505.31,1338.82L3505.24,1338.82C3504.53,1338.82 3503.83,1339.17 3502.98,1339.24L3488.55,1340.3L3487.78,1340.3C3486.93,1340.3 3486.43,1340.23 3485.8,1340.23C3485.58,1340.23 3485.51,1340.38 3485.51,1340.59C3485.51,1341.08 3486.01,1342.14 3486.71,1342.92C3487.21,1343.34 3487.7,1343.49 3488.13,1343.49C3488.62,1343.49 3489.19,1343.41 3489.68,1343.34L3503.61,1342.07C3499.3,1352.25 3495.2,1363.21 3492.16,1372.76C3491.88,1373.75 3491.38,1375.3 3490.82,1376.93C3490.74,1377.28 3490.46,1377.78 3490.46,1378.27C3490.46,1378.77 3490.74,1379.26 3491.81,1379.4C3492.09,1379.4 3492.37,1379.48 3492.58,1379.48C3493.43,1379.48 3493.93,1379.26 3494.07,1378.63C3495.76,1370.5 3501.42,1354.94 3506.23,1344.12C3506.51,1343.41 3507.36,1342.35 3507.5,1341.43L3507.5,1341.22Z" style="fill-rule:nonzero;"/>
        </g>
    </g>
</svg>
