<?xml version="1.0" encoding="UTF-8" standalone="no"?>
<!DOCTYPE svg PUBLIC "-//W3C//DTD SVG 1.1//EN" "http://www.w3.org/Graphics/SVG/1.1/DTD/svg11.dtd">
<svg width="100%" height="100%" viewBox="0 0 89 89" version="1.1" xmlns="http://www.w3.org/2000/svg" xmlns:xlink="http://www.w3.org/1999/xlink" xml:space="preserve" xmlns:serif="http://www.serif.com/" style="fill-rule:evenodd;clip-rule:evenodd;stroke-linejoin:round;stroke-miterlimit:2;">
    <g transform="matrix(1,0,0,1,-2993.33,-231.509)">
        <g transform="matrix(1.41414,0,0,1.41429,-1389.33,-1046.26)">
            <path d="M3156.02,965.839C3159.41,965.839 3161.53,963.294 3161.53,960.324L3161.53,908.991C3161.53,905.526 3159.06,903.476 3156.02,903.476L3104.68,903.476C3101.22,903.476 3099.17,905.809 3099.17,908.991L3099.17,960.324C3099.17,963.506 3101.64,965.839 3104.68,965.839L3156.02,965.839ZM3158.63,960.607C3158.63,962.162 3157.57,962.94 3156.37,962.94L3104.33,962.94C3102.85,962.94 3102.07,961.88 3102.07,960.607L3102.07,908.637C3102.07,907.223 3102.99,906.375 3104.33,906.375L3156.37,906.375C3157.78,906.375 3158.63,907.435 3158.63,908.637L3158.63,960.607ZM3117.62,955.092C3123,954.455 3123.78,954.455 3129.22,954.455C3132.68,954.455 3136.36,954.455 3138.98,954.597C3141.17,954.738 3143.43,954.95 3144.21,954.95C3144.85,954.95 3145.06,954.597 3145.06,954.102C3145.06,953.041 3144.07,951.486 3143.01,951.486C3142.16,951.486 3140.11,951.556 3138.98,951.556C3136.29,951.556 3132.9,951.486 3129.64,951.486C3127.24,951.486 3121.87,951.556 3119.39,951.768C3122.64,947.031 3127.45,942.223 3133.89,937.627C3140.25,932.96 3144.14,928.859 3144.14,923.698C3144.14,917.97 3139.9,914.294 3131.98,914.294C3121.3,914.294 3117.48,921.364 3117.48,922.425C3117.48,923.839 3119.11,924.688 3119.46,924.688C3120.17,924.688 3120.66,923.981 3120.95,923.415C3122.93,919.314 3126.25,917.334 3131.84,917.334C3137.78,917.334 3140.53,919.809 3140.53,923.698C3140.53,927.799 3136.93,931.051 3131.34,935.223C3124.48,940.314 3119.11,946.253 3116.63,950.001C3116.28,950.566 3115.71,950.991 3115.22,951.768C3115.08,951.91 3115.01,952.193 3115.01,952.476C3115.01,953.536 3116,955.092 3117.34,955.092L3117.62,955.092Z" style="fill-rule:nonzero;"/>
        </g>
    </g>
</svg>
