<?xml version="1.0" encoding="UTF-8" standalone="no"?>
<!DOCTYPE svg PUBLIC "-//W3C//DTD SVG 1.1//EN" "http://www.w3.org/Graphics/SVG/1.1/DTD/svg11.dtd">
<svg width="100%" height="100%" viewBox="0 0 89 89" version="1.1" xmlns="http://www.w3.org/2000/svg" xmlns:xlink="http://www.w3.org/1999/xlink" xml:space="preserve" xmlns:serif="http://www.serif.com/" style="fill-rule:evenodd;clip-rule:evenodd;stroke-linejoin:round;stroke-miterlimit:2;">
    <g transform="matrix(1,0,0,1,-3093.32,-1281.51)">
        <g transform="matrix(1.41414,0,0,1.41429,-1389.33,-1046.26)">
            <path d="M3226.72,1708.26C3230.12,1708.26 3232.24,1705.72 3232.24,1702.75L3232.24,1651.41C3232.24,1647.95 3229.76,1645.9 3226.72,1645.9L3175.39,1645.9C3171.93,1645.9 3169.88,1648.23 3169.88,1651.41L3169.88,1702.75C3169.88,1705.93 3172.35,1708.26 3175.39,1708.26L3226.72,1708.26ZM3229.34,1703.03C3229.34,1704.59 3228.28,1705.36 3227.08,1705.36L3175.04,1705.36C3173.55,1705.36 3172.78,1704.3 3172.78,1703.03L3172.78,1651.06C3172.78,1649.65 3173.69,1648.8 3175.04,1648.8L3227.08,1648.8C3228.49,1648.8 3229.34,1649.86 3229.34,1651.06L3229.34,1703.03ZM3188.76,1658.27C3186.78,1661.67 3184.65,1665.91 3182.39,1671C3180.06,1676.3 3178.93,1681.11 3178.93,1685.92C3178.93,1692.57 3183.59,1698.01 3189.82,1698.01C3196.53,1698.01 3200.63,1692.07 3200.63,1684.36C3200.63,1677.43 3196.6,1672.34 3190.66,1672.34C3187.34,1672.34 3184.58,1674.04 3182.89,1676.8C3184.09,1673.9 3187.62,1665.41 3192.29,1658.84C3192.5,1658.56 3192.86,1658.06 3192.86,1657.64C3192.86,1657.28 3192.71,1656.93 3191.94,1656.65C3191.65,1656.51 3191.16,1656.36 3190.73,1656.36C3190.24,1656.36 3189.74,1656.58 3189.46,1657.07C3189.32,1657.35 3188.9,1658.13 3188.76,1658.27ZM3189.82,1695.11C3185.08,1695.11 3181.76,1691.08 3181.76,1685.85C3181.76,1680.19 3185.22,1675.24 3190.59,1675.24C3195.05,1675.24 3197.73,1679.63 3197.73,1684.51C3197.73,1690.73 3194.41,1695.11 3189.82,1695.11ZM3215.27,1674.82C3219.44,1673.55 3222.62,1670.01 3222.62,1665.2C3222.62,1659.69 3219.09,1656.43 3213.86,1656.43C3209.76,1656.43 3206.57,1658.27 3204.03,1661.53C3203.74,1661.81 3203.6,1662.16 3203.6,1662.66C3203.6,1663.22 3203.74,1663.86 3204.38,1664.64C3204.59,1664.99 3204.81,1665.06 3205.02,1665.06C3205.51,1665.06 3205.87,1664.35 3206.08,1664.14C3208.48,1660.89 3210.96,1659.4 3213.93,1659.4C3217.6,1659.4 3219.8,1661.74 3219.8,1665.56C3219.8,1670.29 3214.56,1673.83 3208.91,1674.25C3208.55,1674.32 3208.34,1674.68 3208.34,1675.1C3208.34,1676.02 3209.05,1677.36 3209.9,1677.36C3209.97,1677.36 3210.04,1677.29 3210.18,1677.29C3210.74,1677.15 3211.81,1676.94 3212.72,1676.87C3213.15,1676.8 3213.5,1676.8 3213.86,1676.8C3218.17,1676.8 3221.21,1680.05 3221.21,1684.72C3221.21,1689.95 3218.66,1694.97 3212.02,1694.97C3208.62,1694.97 3206.57,1692.99 3204.45,1690.02C3204.31,1689.81 3204.17,1689.67 3204.03,1689.67C3203.25,1689.67 3202.61,1691.15 3202.61,1692.28C3202.61,1692.78 3202.68,1693.13 3202.9,1693.41C3205.51,1696.38 3208.41,1698.01 3212.02,1698.01C3220.64,1698.01 3224.11,1691.86 3224.11,1684.65C3224.11,1678.57 3220.29,1674.82 3215.91,1674.82L3215.27,1674.82Z" style="fill-rule:nonzero;"/>
        </g>
    </g>
</svg>
