<?xml version="1.0" encoding="UTF-8" standalone="no"?>
<!DOCTYPE svg PUBLIC "-//W3C//DTD SVG 1.1//EN" "http://www.w3.org/Graphics/SVG/1.1/DTD/svg11.dtd">
<svg width="100%" height="100%" viewBox="0 0 89 89" version="1.1" xmlns="http://www.w3.org/2000/svg" xmlns:xlink="http://www.w3.org/1999/xlink" xml:space="preserve" xmlns:serif="http://www.serif.com/" style="fill-rule:evenodd;clip-rule:evenodd;stroke-linejoin:round;stroke-miterlimit:2;">
    <g transform="matrix(1,0,0,1,-2893.34,-1281.51)">
        <g transform="matrix(1.41414,0,0,1.41429,-1389.33,-1046.26)">
            <path d="M3085.31,1708.26C3088.7,1708.26 3090.83,1705.72 3090.83,1702.75L3090.83,1651.41C3090.83,1647.95 3088.35,1645.9 3085.31,1645.9L3033.98,1645.9C3030.51,1645.9 3028.46,1648.23 3028.46,1651.41L3028.46,1702.75C3028.46,1705.93 3030.94,1708.26 3033.98,1708.26L3085.31,1708.26ZM3087.93,1703.03C3087.93,1704.59 3086.87,1705.36 3085.66,1705.36L3033.62,1705.36C3032.14,1705.36 3031.36,1704.3 3031.36,1703.03L3031.36,1651.06C3031.36,1649.65 3032.28,1648.8 3033.62,1648.8L3085.66,1648.8C3087.08,1648.8 3087.93,1649.86 3087.93,1651.06L3087.93,1703.03ZM3050.1,1658.27C3047.98,1661.67 3045.78,1665.91 3043.38,1671C3040.91,1676.3 3039.63,1681.11 3039.63,1685.92C3039.63,1692.57 3044.58,1698.01 3051.16,1698.01C3058.3,1698.01 3062.61,1692.07 3062.61,1684.36C3062.61,1677.43 3058.37,1672.34 3052.08,1672.34C3048.54,1672.34 3045.64,1674.04 3043.88,1676.8C3047.06,1669.59 3049.32,1664.71 3053.85,1658.84C3054.06,1658.56 3054.41,1658.06 3054.41,1657.64C3054.41,1657.28 3054.2,1656.93 3053.42,1656.65C3053.14,1656.51 3052.64,1656.36 3052.15,1656.36C3051.44,1656.36 3050.95,1656.58 3050.1,1658.27ZM3051.16,1695.11C3046.14,1695.11 3042.67,1691.08 3042.67,1685.85C3042.67,1680.19 3046.28,1675.24 3052.01,1675.24C3056.67,1675.24 3059.57,1679.63 3059.57,1684.51C3059.57,1690.73 3055.97,1695.11 3051.16,1695.11ZM3073.93,1691.22C3073.93,1692.42 3073.78,1695.32 3073.78,1696.24C3073.78,1697.16 3075.2,1697.8 3076.19,1697.8C3076.61,1697.8 3077.04,1697.66 3077.04,1697.23C3076.97,1695.75 3076.9,1692.42 3076.9,1690.87L3076.9,1662.38C3076.9,1660.75 3077.25,1659.76 3077.25,1658.84C3077.25,1657.78 3076.05,1656.72 3075.27,1656.72C3074.56,1656.72 3073.43,1658.34 3073.08,1658.7C3071.45,1660.04 3069.05,1661.53 3066.5,1662.66C3066.15,1662.8 3066.01,1663.01 3066.01,1663.22C3066.01,1663.86 3067.14,1664.5 3068.06,1664.5C3068.2,1664.5 3068.41,1664.5 3068.55,1664.42C3070.32,1663.86 3072.44,1662.94 3073.93,1661.95L3073.93,1691.22Z" style="fill-rule:nonzero;"/>
        </g>
    </g>
</svg>
