<?xml version="1.0" encoding="UTF-8" standalone="no"?>
<!DOCTYPE svg PUBLIC "-//W3C//DTD SVG 1.1//EN" "http://www.w3.org/Graphics/SVG/1.1/DTD/svg11.dtd">
<svg width="100%" height="100%" viewBox="0 0 89 89" version="1.1" xmlns="http://www.w3.org/2000/svg" xmlns:xlink="http://www.w3.org/1999/xlink" xml:space="preserve" xmlns:serif="http://www.serif.com/" style="fill-rule:evenodd;clip-rule:evenodd;stroke-linejoin:round;stroke-miterlimit:2;">
    <g transform="matrix(1,0,0,1,-3393.29,-1731.51)">
        <g transform="matrix(1.41414,0,0,1.41429,-1389.33,-1046.26)">
            <path d="M3438.85,2026.44C3442.24,2026.44 3444.36,2023.9 3444.36,2020.93L3444.36,1969.6C3444.36,1966.13 3441.89,1964.08 3438.85,1964.08L3387.51,1964.08C3384.05,1964.08 3382,1966.41 3382,1969.6L3382,2020.93C3382,2024.11 3384.47,2026.44 3387.51,2026.44L3438.85,2026.44ZM3441.46,2021.21C3441.46,2022.77 3440.4,2023.55 3439.2,2023.55L3387.16,2023.55C3385.67,2023.55 3384.9,2022.49 3384.9,2021.21L3384.9,1969.24C3384.9,1967.83 3385.82,1966.98 3387.16,1966.98L3439.2,1966.98C3440.61,1966.98 3441.46,1968.04 3441.46,1969.24L3441.46,2021.21ZM3424.63,1976.46C3422.65,1979.85 3420.53,1984.09 3418.27,1989.18C3415.94,1994.49 3414.81,1999.29 3414.81,2004.1C3414.81,2010.75 3419.47,2016.19 3425.69,2016.19C3432.41,2016.19 3436.51,2010.25 3436.51,2002.55C3436.51,1995.62 3432.48,1990.53 3426.54,1990.53C3423.22,1990.53 3420.46,1992.22 3418.76,1994.98C3419.97,1992.08 3423.5,1983.6 3428.17,1977.02C3428.38,1976.74 3428.73,1976.24 3428.73,1975.82C3428.73,1975.47 3428.59,1975.11 3427.82,1974.83C3427.53,1974.69 3427.04,1974.55 3426.61,1974.55C3426.12,1974.55 3425.62,1974.76 3425.34,1975.25C3425.2,1975.54 3424.78,1976.31 3424.63,1976.46ZM3404.84,2015.91C3406.04,2015.84 3406.74,2015.49 3406.82,2014.71C3407.45,2007.35 3410.14,1991.16 3412.26,1980.49L3412.9,1978.36L3412.9,1978.15C3412.9,1977.3 3411.91,1976.24 3410.85,1976.24C3409.78,1976.24 3410.07,1978.01 3409.64,1979.57C3409.01,1977.94 3406.67,1974.62 3401.94,1974.62C3395.15,1974.62 3390.06,1982.25 3390.06,1989.96C3390.06,1996.47 3393.17,2000.21 3397.76,2000.21C3401.3,2000.21 3405.05,1997.6 3407.17,1993.57C3404.48,2010.04 3404.27,2010.96 3403.85,2013.58C3403.78,2014.07 3403.63,2014.57 3403.63,2014.99C3403.63,2015.56 3403.85,2015.91 3404.69,2015.91L3404.84,2015.91ZM3425.69,2013.29C3420.96,2013.29 3417.63,2009.26 3417.63,2004.03C3417.63,1998.38 3421.1,1993.42 3426.47,1993.42C3430.93,1993.42 3433.61,1997.81 3433.61,2002.69C3433.61,2008.91 3430.29,2013.29 3425.69,2013.29ZM3408.72,1984.87C3407.24,1990.17 3403.56,1997.1 3397.69,1997.1C3394.51,1997.1 3392.89,1994.63 3392.89,1989.75C3392.89,1984.52 3396.28,1977.59 3402.15,1977.59C3405.68,1977.59 3407.17,1980.34 3407.81,1981.9C3408.02,1982.39 3408.23,1982.61 3408.51,1982.61C3408.8,1982.61 3409.01,1982.39 3409.22,1982.11L3408.72,1984.87Z" style="fill-rule:nonzero;"/>
        </g>
    </g>
</svg>
