<?xml version="1.0" encoding="UTF-8" standalone="no"?>
<!DOCTYPE svg PUBLIC "-//W3C//DTD SVG 1.1//EN" "http://www.w3.org/Graphics/SVG/1.1/DTD/svg11.dtd">
<svg width="100%" height="100%" viewBox="0 0 89 89" version="1.1" xmlns="http://www.w3.org/2000/svg" xmlns:xlink="http://www.w3.org/1999/xlink" xml:space="preserve" xmlns:serif="http://www.serif.com/" style="fill-rule:evenodd;clip-rule:evenodd;stroke-linejoin:round;stroke-miterlimit:2;">
    <g transform="matrix(1,0,0,1,-2793.35,-1281.51)">
        <g transform="matrix(1.41414,0,0,1.41429,-1389.33,-1046.26)">
            <path d="M3014.6,1708.26C3018,1708.26 3020.12,1705.72 3020.12,1702.75L3020.12,1651.41C3020.12,1647.95 3017.64,1645.9 3014.6,1645.9L2963.27,1645.9C2959.8,1645.9 2957.76,1648.23 2957.76,1651.41L2957.76,1702.75C2957.76,1705.93 2960.23,1708.26 2963.27,1708.26L3014.6,1708.26ZM3017.22,1703.03C3017.22,1704.59 3016.16,1705.36 3014.96,1705.36L2962.92,1705.36C2961.43,1705.36 2960.65,1704.3 2960.65,1703.03L2960.65,1651.06C2960.65,1649.65 2961.57,1648.8 2962.92,1648.8L3014.96,1648.8C3016.37,1648.8 3017.22,1649.86 3017.22,1651.06L3017.22,1703.03ZM2996.01,1659.62C2995.87,1659.55 2995.65,1659.48 2995.51,1659.48C2994.1,1659.48 2990.99,1667.61 2990.99,1677.79C2990.99,1689.45 2994.24,1698.01 3000.89,1698.01C3007.89,1698.01 3011.28,1688.04 3011.28,1676.3C3011.28,1664.78 3008.03,1656.36 3002.02,1656.36C2999.68,1656.36 2997.63,1657.78 2996.22,1659.9L2996.01,1659.62ZM2976.35,1657.07C2975.71,1657.92 2972.11,1664.64 2969.28,1671C2966.95,1676.3 2965.74,1681.11 2965.74,1685.92C2965.74,1692.57 2970.41,1698.01 2976.63,1698.01C2983.42,1698.01 2987.52,1692.07 2987.52,1684.36C2987.52,1677.43 2983.49,1672.34 2977.48,1672.34C2974.16,1672.34 2971.47,1674.04 2969.78,1676.8C2972.11,1671 2974.51,1665.2 2979.18,1658.84C2979.39,1658.56 2979.74,1658.06 2979.74,1657.64C2979.74,1657.14 2978.83,1656.36 2977.62,1656.36C2977.06,1656.36 2976.56,1656.58 2976.35,1657.07ZM3000.67,1694.97C2995.58,1694.97 2993.82,1687.05 2993.82,1677.72C2993.82,1665.41 2998.34,1659.26 3001.8,1659.26C3006.76,1659.26 3008.45,1667.96 3008.45,1675.88C3008.45,1685.57 3006.33,1694.97 3000.67,1694.97ZM2976.63,1695.11C2971.9,1695.11 2968.57,1691.08 2968.57,1685.85C2968.57,1680.19 2972.04,1675.24 2977.41,1675.24C2981.87,1675.24 2984.62,1679.63 2984.62,1684.51C2984.62,1690.73 2981.23,1695.11 2976.63,1695.11Z" style="fill-rule:nonzero;"/>
        </g>
    </g>
</svg>
