<?xml version="1.0" encoding="UTF-8" standalone="no"?>
<!DOCTYPE svg PUBLIC "-//W3C//DTD SVG 1.1//EN" "http://www.w3.org/Graphics/SVG/1.1/DTD/svg11.dtd">
<svg width="100%" height="100%" viewBox="0 0 89 89" version="1.1" xmlns="http://www.w3.org/2000/svg" xmlns:xlink="http://www.w3.org/1999/xlink" xml:space="preserve" xmlns:serif="http://www.serif.com/" style="fill-rule:evenodd;clip-rule:evenodd;stroke-linejoin:round;stroke-miterlimit:2;">
    <g transform="matrix(1,0,0,1,-2993.33,-1731.51)">
        <g transform="matrix(1.41414,0,0,1.41429,-1389.33,-1046.26)">
            <path d="M3156.02,2026.44C3159.41,2026.44 3161.53,2023.9 3161.53,2020.93L3161.53,1969.6C3161.53,1966.13 3159.06,1964.08 3156.02,1964.08L3104.68,1964.08C3101.22,1964.08 3099.17,1966.41 3099.17,1969.6L3099.17,2020.93C3099.17,2024.11 3101.64,2026.44 3104.68,2026.44L3156.02,2026.44ZM3158.63,2021.21C3158.63,2022.77 3157.57,2023.55 3156.37,2023.55L3104.33,2023.55C3102.85,2023.55 3102.07,2022.49 3102.07,2021.21L3102.07,1969.24C3102.07,1967.83 3102.99,1966.98 3104.33,1966.98L3156.37,1966.98C3157.78,1966.98 3158.63,1968.04 3158.63,1969.24L3158.63,2021.21ZM3122.15,2015.91C3123.35,2015.84 3124.06,2015.49 3124.13,2014.71C3124.76,2007.35 3127.45,1991.16 3129.57,1980.49L3130.21,1978.36L3130.21,1978.15C3130.21,1977.3 3129.22,1976.24 3128.16,1976.24C3127.1,1976.24 3127.31,1978.01 3126.96,1979.57C3126.32,1977.94 3123.99,1974.62 3119.25,1974.62C3112.46,1974.62 3107.3,1982.25 3107.3,1989.96C3107.3,1996.47 3110.48,2000.21 3115.08,2000.21C3118.61,2000.21 3122.36,1997.6 3124.48,1993.57C3121.8,2010.04 3121.58,2010.96 3121.16,2013.58C3121.09,2014.07 3120.95,2014.57 3120.95,2014.99C3120.95,2015.56 3121.16,2015.91 3122.01,2015.91L3122.15,2015.91ZM3134.1,2015.49C3136.22,2014.92 3138.69,2014.78 3142.16,2014.78C3148.31,2014.78 3151.85,2015.06 3153.33,2015.2C3153.76,2015.2 3153.97,2014.92 3153.97,2014.42C3153.97,2013.43 3153.12,2011.88 3152.34,2011.88C3151.7,2011.88 3149.94,2011.95 3149.02,2011.95C3146.9,2011.95 3145.2,2011.88 3142.65,2011.88C3140.67,2011.88 3137.7,2012.02 3135.72,2012.23C3137.56,2008.41 3140.74,2002.69 3145.27,1998.16C3150.15,1993.35 3153.54,1989.32 3153.54,1984.09C3153.54,1978.58 3149.94,1974.62 3144.21,1974.62C3138.91,1974.62 3135.3,1977.52 3133.18,1981.69C3132.97,1981.97 3132.97,1982.32 3132.97,1982.68C3132.97,1983.31 3133.25,1983.95 3134.1,1984.66C3134.31,1984.94 3134.52,1985.01 3134.81,1985.01C3135.37,1985.01 3135.72,1984.44 3136.01,1983.67C3137.14,1980.27 3139.97,1977.59 3144.07,1977.59C3148.03,1977.59 3150.36,1980.56 3150.36,1984.09C3150.36,1987.84 3147.67,1991.38 3143.36,1995.76C3138.98,2000.21 3135.37,2006.36 3133.32,2010.47C3133.04,2011.03 3132.68,2011.53 3132.26,2012.16C3132.12,2012.38 3132.05,2012.66 3132.05,2013.01C3132.05,2014.14 3132.97,2015.49 3133.89,2015.49L3134.1,2015.49ZM3126.04,1984.87C3125.61,1986.14 3125.12,1987.84 3124.62,1988.9C3122.08,1993.85 3119.39,1997.1 3115.01,1997.1C3111.83,1997.1 3110.2,1994.63 3110.2,1989.75C3110.2,1984.52 3113.52,1977.59 3119.46,1977.59C3123,1977.59 3124.48,1980.34 3125.12,1981.9C3125.33,1982.39 3125.54,1982.61 3125.83,1982.61C3126.04,1982.61 3126.32,1982.39 3126.53,1982.11L3126.04,1984.87Z" style="fill-rule:nonzero;"/>
        </g>
    </g>
</svg>
