<?xml version="1.0" encoding="UTF-8" standalone="no"?>
<!DOCTYPE svg PUBLIC "-//W3C//DTD SVG 1.1//EN" "http://www.w3.org/Graphics/SVG/1.1/DTD/svg11.dtd">
<svg width="100%" height="100%" viewBox="0 0 89 89" version="1.1" xmlns="http://www.w3.org/2000/svg" xmlns:xlink="http://www.w3.org/1999/xlink" xml:space="preserve" xmlns:serif="http://www.serif.com/" style="fill-rule:evenodd;clip-rule:evenodd;stroke-linejoin:round;stroke-miterlimit:2;">
    <g transform="matrix(1,0,0,1,-2893.34,-2031.51)">
        <g transform="matrix(1.41414,0,0,1.41429,-1389.33,-1046.26)">
            <path d="M3085.31,2238.57C3088.7,2238.57 3090.83,2236.02 3090.83,2233.05L3090.83,2181.72C3090.83,2178.25 3088.35,2176.2 3085.31,2176.2L3033.98,2176.2C3030.51,2176.2 3028.46,2178.54 3028.46,2181.72L3028.46,2233.05C3028.46,2236.23 3030.94,2238.57 3033.98,2238.57L3085.31,2238.57ZM3087.93,2233.33C3087.93,2234.89 3086.87,2235.67 3085.66,2235.67L3033.62,2235.67C3032.14,2235.67 3031.36,2234.61 3031.36,2233.33L3031.36,2181.36C3031.36,2179.95 3032.28,2179.1 3033.62,2179.1L3085.66,2179.1C3087.08,2179.1 3087.93,2180.16 3087.93,2181.36L3087.93,2233.33ZM3075.55,2215.59C3075.55,2217 3075.41,2219.9 3075.41,2220.89C3075.41,2221.81 3076.97,2222.52 3078.03,2222.52C3078.52,2222.52 3078.95,2222.3 3078.95,2221.95C3078.95,2220.61 3078.81,2216.29 3078.81,2215.59L3078.81,2204.06C3078.81,2198.48 3076.26,2192.82 3070.11,2192.82C3066.5,2192.82 3062.83,2194.87 3060.85,2198.62C3060.21,2195.65 3058.09,2192.82 3053.49,2192.82C3049.82,2192.82 3046.14,2194.87 3044.3,2199.11C3044.3,2197.34 3044.37,2195.58 3044.37,2194.59C3044.37,2193.67 3042.82,2192.96 3041.76,2192.96C3041.26,2192.96 3040.84,2193.17 3040.84,2193.53C3040.84,2194.94 3040.98,2199.39 3040.98,2200.53L3040.98,2215.59C3040.98,2216.43 3040.91,2219.9 3040.91,2220.89C3040.91,2221.81 3042.46,2222.52 3043.52,2222.52C3044.02,2222.52 3044.44,2222.3 3044.44,2221.95C3044.44,2220.61 3044.23,2218.06 3044.23,2215.59C3044.3,2211.49 3044.23,2207.45 3045.22,2204.13C3047.2,2197.41 3051.16,2195.79 3053.49,2195.79C3057.17,2195.79 3058.23,2199.54 3058.23,2204.27L3058.23,2215.59C3058.23,2217 3058.09,2219.9 3058.09,2220.89C3058.09,2221.81 3059.64,2222.52 3060.7,2222.52C3061.2,2222.52 3061.62,2222.3 3061.62,2221.95C3061.62,2220.61 3061.41,2217.85 3061.41,2215.59L3061.41,2205.83C3061.41,2200.45 3066.15,2195.79 3069.9,2195.79C3073.5,2195.79 3075.55,2199.39 3075.55,2204.27L3075.55,2215.59Z" style="fill-rule:nonzero;"/>
        </g>
    </g>
</svg>
