<?xml version="1.0" encoding="UTF-8" standalone="no"?>
<!DOCTYPE svg PUBLIC "-//W3C//DTD SVG 1.1//EN" "http://www.w3.org/Graphics/SVG/1.1/DTD/svg11.dtd">
<svg width="100%" height="100%" viewBox="0 0 89 89" version="1.1" xmlns="http://www.w3.org/2000/svg" xmlns:xlink="http://www.w3.org/1999/xlink" xml:space="preserve" xmlns:serif="http://www.serif.com/" style="fill-rule:evenodd;clip-rule:evenodd;stroke-linejoin:round;stroke-miterlimit:2;">
    <g transform="matrix(1,0,0,1,-3593.27,-681.509)">
        <g transform="matrix(1.41414,0,0,1.41429,-1389.33,-1046.26)">
            <path d="M3580.26,1284.02C3583.65,1284.02 3585.78,1281.48 3585.78,1278.51L3585.78,1227.17C3585.78,1223.71 3583.3,1221.66 3580.26,1221.66L3528.93,1221.66C3525.46,1221.66 3523.41,1223.99 3523.41,1227.17L3523.41,1278.51C3523.41,1281.69 3525.89,1284.02 3528.93,1284.02L3580.26,1284.02ZM3582.88,1278.79C3582.88,1280.34 3581.82,1281.12 3580.61,1281.12L3528.57,1281.12C3527.09,1281.12 3526.31,1280.06 3526.31,1278.79L3526.31,1226.82C3526.31,1225.4 3527.23,1224.56 3528.57,1224.56L3580.61,1224.56C3582.03,1224.56 3582.88,1225.62 3582.88,1226.82L3582.88,1278.79ZM3567.25,1249.87C3572.2,1246.12 3576.65,1241.1 3576.65,1239.62C3576.65,1238.98 3576.23,1238.56 3575.73,1238.56C3575.38,1238.56 3574.96,1238.7 3574.53,1239.19L3574.25,1239.48C3574.46,1239.12 3574.6,1238.7 3574.6,1238.41C3574.6,1238.2 3574.53,1237.99 3574.46,1237.85C3572.48,1234.81 3569.65,1232.26 3565.62,1232.26C3559.33,1232.26 3555.72,1236.72 3555.72,1241.74C3555.72,1245.49 3557.07,1247.89 3561.81,1250.43C3557,1253.97 3554.1,1257.86 3554.1,1263.02C3554.1,1269.1 3558.06,1273.77 3564.7,1273.77C3572.06,1273.77 3576.87,1269.24 3576.87,1262.24C3576.87,1256.73 3574.04,1253.12 3567.89,1250.15L3567.25,1249.87ZM3533.1,1273.06C3535.57,1272.35 3539.04,1272.35 3540.73,1272.35C3546.6,1272.35 3550.35,1272.64 3551.41,1272.78C3551.76,1272.78 3551.98,1272.5 3551.98,1272C3551.98,1271.01 3551.2,1269.45 3550.42,1269.45C3549.78,1269.45 3548.16,1269.53 3547.31,1269.53C3545.26,1269.53 3543.63,1269.45 3541.23,1269.45C3539.32,1269.45 3536.49,1269.6 3534.65,1269.81C3536.42,1265.99 3539.39,1260.26 3543.7,1255.74C3548.3,1250.93 3551.55,1246.9 3551.55,1241.67C3551.55,1236.15 3548.16,1232.19 3542.71,1232.19C3537.69,1232.19 3534.23,1235.09 3532.25,1239.26C3532.04,1239.55 3531.97,1239.9 3531.97,1240.25C3531.97,1240.89 3532.32,1241.53 3533.1,1242.23C3533.31,1242.52 3533.52,1242.59 3533.81,1242.59C3534.3,1242.59 3534.65,1242.02 3534.94,1241.24C3536,1237.85 3538.68,1235.16 3542.57,1235.16C3546.32,1235.16 3548.51,1238.13 3548.51,1241.67C3548.51,1245.41 3545.97,1248.95 3541.87,1253.33C3537.69,1257.79 3534.3,1263.94 3532.39,1268.04C3532.11,1268.61 3531.76,1269.1 3531.33,1269.74C3531.19,1269.95 3531.19,1270.23 3531.19,1270.59C3531.19,1271.72 3531.97,1273.06 3532.89,1273.06L3533.1,1273.06ZM3564.56,1251.85C3564.92,1251.99 3565.48,1252.2 3565.84,1252.41C3571.99,1255.31 3573.9,1258.35 3573.9,1262.53C3573.9,1267.4 3570.01,1270.73 3564.7,1270.73C3559.4,1270.73 3557.14,1266.77 3557.14,1262.88C3557.14,1258.78 3559.83,1255.45 3564.56,1251.85ZM3573.47,1240.32C3570.93,1243.15 3567.96,1246.05 3564.49,1248.45C3560.04,1246.26 3558.69,1244.71 3558.69,1241.74C3558.69,1238.41 3561.03,1235.16 3565.69,1235.16C3568.66,1235.16 3570.43,1236.93 3571.99,1239.69C3572.27,1240.25 3572.62,1240.46 3572.91,1240.46C3573.12,1240.46 3573.33,1240.39 3573.47,1240.32Z" style="fill-rule:nonzero;"/>
        </g>
    </g>
</svg>
