<?xml version="1.0" encoding="UTF-8" standalone="no"?>
<!DOCTYPE svg PUBLIC "-//W3C//DTD SVG 1.1//EN" "http://www.w3.org/Graphics/SVG/1.1/DTD/svg11.dtd">
<svg width="100%" height="100%" viewBox="0 0 89 89" version="1.1" xmlns="http://www.w3.org/2000/svg" xmlns:xlink="http://www.w3.org/1999/xlink" xml:space="preserve" xmlns:serif="http://www.serif.com/" style="fill-rule:evenodd;clip-rule:evenodd;stroke-linejoin:round;stroke-miterlimit:2;">
    <g transform="matrix(1,0,0,1,-2793.35,-2031.51)">
        <g transform="matrix(1.41414,0,0,1.41429,-1389.33,-1046.26)">
            <path d="M3014.6,2238.57C3018,2238.57 3020.12,2236.02 3020.12,2233.05L3020.12,2181.72C3020.12,2178.25 3017.64,2176.2 3014.6,2176.2L2963.27,2176.2C2959.8,2176.2 2957.76,2178.54 2957.76,2181.72L2957.76,2233.05C2957.76,2236.23 2960.23,2238.57 2963.27,2238.57L3014.6,2238.57ZM3017.22,2233.33C3017.22,2234.89 3016.16,2235.67 3014.96,2235.67L2962.92,2235.67C2961.43,2235.67 2960.65,2234.61 2960.65,2233.33L2960.65,2181.36C2960.65,2179.95 2961.57,2179.1 2962.92,2179.1L3014.96,2179.1C3016.37,2179.1 3017.22,2180.16 3017.22,2181.36L3017.22,2233.33ZM2987.24,2222.02C2987.24,2222.87 2987.1,2226.33 2987.1,2227.25C2987.1,2228.24 2988.72,2228.95 2989.78,2228.95C2990.28,2228.95 2990.7,2228.74 2990.7,2228.39C2990.7,2226.97 2990.56,2222.73 2990.56,2222.02L2990.56,2192.82C2990.56,2191.41 2990.63,2188.43 2990.63,2187.52C2990.63,2186.53 2989.08,2185.89 2988.02,2185.89C2987.52,2185.89 2987.1,2186.03 2987.1,2186.45C2987.1,2187.8 2987.24,2191.69 2987.24,2192.82L2987.24,2222.02Z" style="fill-rule:nonzero;"/>
        </g>
    </g>
</svg>
