<?xml version="1.0" encoding="UTF-8" standalone="no"?>
<!DOCTYPE svg PUBLIC "-//W3C//DTD SVG 1.1//EN" "http://www.w3.org/Graphics/SVG/1.1/DTD/svg11.dtd">
<svg width="100%" height="100%" viewBox="0 0 89 89" version="1.1" xmlns="http://www.w3.org/2000/svg" xmlns:xlink="http://www.w3.org/1999/xlink" xml:space="preserve" xmlns:serif="http://www.serif.com/" style="fill-rule:evenodd;clip-rule:evenodd;stroke-linejoin:round;stroke-miterlimit:2;">
    <g transform="matrix(1,0,0,1,-3193.31,-531.509)">
        <g transform="matrix(1.41414,0,0,1.41429,-1389.33,-1046.26)">
            <path d="M3297.43,1177.96C3300.83,1177.96 3302.95,1175.41 3302.95,1172.44L3302.95,1121.11C3302.95,1117.65 3300.47,1115.6 3297.43,1115.6L3246.1,1115.6C3242.63,1115.6 3240.58,1117.93 3240.58,1121.11L3240.58,1172.44C3240.58,1175.63 3243.06,1177.96 3246.1,1177.96L3297.43,1177.96ZM3300.05,1172.73C3300.05,1174.28 3298.99,1175.06 3297.78,1175.06L3245.74,1175.06C3244.26,1175.06 3243.48,1174 3243.48,1172.73L3243.48,1120.76C3243.48,1119.34 3244.4,1118.5 3245.74,1118.5L3297.78,1118.5C3299.2,1118.5 3300.05,1119.56 3300.05,1120.76L3300.05,1172.73ZM3288.1,1157.53C3288.45,1157.53 3288.88,1157.45 3289.23,1157.45C3290.78,1157.45 3292.2,1157.67 3292.69,1157.67C3293.12,1157.67 3293.26,1157.38 3293.26,1156.89C3293.26,1155.9 3292.48,1154.34 3291.63,1154.34C3291,1154.34 3289.37,1154.63 3288.03,1154.7L3286.83,1154.77L3286.83,1142.96C3286.83,1141.55 3286.9,1138.79 3286.9,1137.87C3286.9,1136.88 3285.48,1136.24 3284.56,1136.24C3284.07,1136.24 3283.64,1136.45 3283.64,1136.81C3283.64,1138.15 3283.78,1141.83 3283.78,1142.96L3283.78,1154.91L3270.85,1155.55C3275.02,1148.55 3280.18,1138.93 3283.36,1132.92C3283.93,1131.86 3284.35,1131.01 3285.13,1129.74C3285.2,1129.6 3285.27,1129.38 3285.27,1129.17C3285.27,1127.97 3283.78,1126.27 3282.94,1126.27C3282.72,1126.27 3282.58,1126.34 3282.44,1126.63C3281.73,1129.1 3281.03,1131.36 3269.29,1152.51C3268.87,1153.28 3268.16,1154.13 3267.59,1155.12C3267.31,1155.48 3267.24,1155.9 3267.24,1156.25C3267.24,1157.6 3268.51,1158.87 3269.5,1158.87C3269.64,1158.87 3269.71,1158.8 3269.78,1158.8C3270.56,1158.59 3271.34,1158.44 3271.76,1158.44L3283.78,1157.74L3283.78,1160.85C3283.78,1161.7 3283.64,1164.95 3283.64,1165.87C3283.64,1166.86 3285.13,1167.5 3286.19,1167.5C3286.68,1167.5 3287.04,1167.28 3287.04,1166.93C3287.04,1165.59 3286.83,1163.32 3286.83,1160.99L3286.83,1157.6L3288.1,1157.53ZM3259.96,1166.93C3259.96,1165.44 3259.89,1162.12 3259.89,1160.57L3259.89,1132.07C3259.89,1130.44 3260.17,1129.45 3260.17,1128.54C3260.17,1127.48 3259.04,1126.41 3258.26,1126.41C3257.48,1126.41 3256.42,1128.04 3256,1128.39C3254.44,1129.74 3252.04,1131.22 3249.49,1132.35C3249.07,1132.5 3248.93,1132.71 3248.93,1132.92C3248.93,1133.56 3250.13,1134.19 3250.98,1134.19C3251.19,1134.19 3251.4,1134.19 3251.47,1134.12C3253.31,1133.56 3255.36,1132.64 3256.85,1131.65L3256.85,1160.92C3256.85,1162.12 3256.7,1165.02 3256.7,1165.94C3256.7,1166.86 3258.12,1167.5 3259.18,1167.5C3259.6,1167.5 3259.96,1167.35 3259.96,1167L3259.96,1166.93Z" style="fill-rule:nonzero;"/>
        </g>
    </g>
</svg>
