<?xml version="1.0" encoding="UTF-8" standalone="no"?>
<!DOCTYPE svg PUBLIC "-//W3C//DTD SVG 1.1//EN" "http://www.w3.org/Graphics/SVG/1.1/DTD/svg11.dtd">
<svg width="100%" height="100%" viewBox="0 0 89 89" version="1.1" xmlns="http://www.w3.org/2000/svg" xmlns:xlink="http://www.w3.org/1999/xlink" xml:space="preserve" xmlns:serif="http://www.serif.com/" style="fill-rule:evenodd;clip-rule:evenodd;stroke-linejoin:round;stroke-miterlimit:2;">
    <g transform="matrix(1,0,0,1,-2993.33,-2031.51)">
        <g transform="matrix(1.41414,0,0,1.41429,-1389.33,-1046.26)">
            <path d="M3156.02,2238.57C3159.41,2238.57 3161.53,2236.02 3161.53,2233.05L3161.53,2181.72C3161.53,2178.25 3159.06,2176.2 3156.02,2176.2L3104.68,2176.2C3101.22,2176.2 3099.17,2178.54 3099.17,2181.72L3099.17,2233.05C3099.17,2236.23 3101.64,2238.57 3104.68,2238.57L3156.02,2238.57ZM3158.63,2233.33C3158.63,2234.89 3157.57,2235.67 3156.37,2235.67L3104.33,2235.67C3102.85,2235.67 3102.07,2234.61 3102.07,2233.33L3102.07,2181.36C3102.07,2179.95 3102.99,2179.1 3104.33,2179.1L3156.37,2179.1C3157.78,2179.1 3158.63,2180.16 3158.63,2181.36L3158.63,2233.33ZM3139.05,2215.45C3139.05,2216.86 3138.91,2219.83 3138.91,2220.75C3138.91,2221.74 3140.46,2222.38 3141.52,2222.38C3142.02,2222.38 3142.44,2222.23 3142.44,2221.81C3142.44,2220.47 3142.3,2216.22 3142.3,2215.45L3142.3,2203.85C3142.3,2199.04 3141.17,2192.68 3133.53,2192.68C3129.08,2192.68 3123.92,2195.36 3121.51,2200.24C3121.51,2198.55 3121.58,2195.43 3121.58,2194.52C3121.58,2193.53 3120.03,2192.82 3118.97,2192.82C3118.4,2192.82 3118.05,2193.03 3118.05,2193.39C3118.05,2194.8 3118.26,2198.69 3118.26,2199.82L3118.26,2215.45C3118.26,2216.29 3118.12,2219.83 3118.12,2220.75C3118.12,2221.74 3119.67,2222.38 3120.73,2222.38C3121.23,2222.38 3121.65,2222.23 3121.65,2221.81C3121.65,2220.68 3121.51,2218.7 3121.51,2216.51L3121.51,2215.45C3121.51,2211.98 3121.51,2207.67 3122.43,2204.49C3124.27,2198.41 3129.29,2195.79 3133.53,2195.79C3137.99,2195.79 3139.05,2199.39 3139.05,2204.13L3139.05,2215.45Z" style="fill-rule:nonzero;"/>
        </g>
    </g>
</svg>
