<?xml version="1.0" encoding="UTF-8" standalone="no"?>
<!DOCTYPE svg PUBLIC "-//W3C//DTD SVG 1.1//EN" "http://www.w3.org/Graphics/SVG/1.1/DTD/svg11.dtd">
<svg width="100%" height="100%" viewBox="0 0 89 89" version="1.1" xmlns="http://www.w3.org/2000/svg" xmlns:xlink="http://www.w3.org/1999/xlink" xml:space="preserve" xmlns:serif="http://www.serif.com/" style="fill-rule:evenodd;clip-rule:evenodd;stroke-linejoin:round;stroke-miterlimit:2;">
    <g transform="matrix(1,0,0,1,-2793.35,-1431.51)">
        <g transform="matrix(1.41414,0,0,1.41429,-1389.33,-1046.26)">
            <path d="M3014.6,1814.32C3018,1814.32 3020.12,1811.78 3020.12,1808.81L3020.12,1757.48C3020.12,1754.01 3017.64,1751.96 3014.6,1751.96L2963.27,1751.96C2959.8,1751.96 2957.76,1754.29 2957.76,1757.48L2957.76,1808.81C2957.76,1811.99 2960.23,1814.32 2963.27,1814.32L3014.6,1814.32ZM3017.22,1809.09C3017.22,1810.65 3016.16,1811.42 3014.96,1811.42L2962.92,1811.42C2961.43,1811.42 2960.65,1810.36 2960.65,1809.09L2960.65,1757.12C2960.65,1755.71 2961.57,1754.86 2962.92,1754.86L3014.96,1754.86C3016.37,1754.86 3017.22,1755.92 3017.22,1757.12L3017.22,1809.09ZM2995.37,1765.68C2995.23,1765.61 2995.02,1765.54 2994.8,1765.54C2993.46,1765.54 2990.14,1773.6 2990.14,1783.85C2990.14,1795.52 2993.46,1804.07 3000.46,1804.07C3007.89,1804.07 3011.42,1794.1 3011.42,1782.36C3011.42,1770.84 3008.03,1762.42 3001.73,1762.42C2999.19,1762.42 2997.14,1763.84 2995.58,1765.96L2995.37,1765.68ZM3000.32,1801.03C2994.88,1801.03 2993.04,1793.11 2993.04,1783.78C2993.04,1771.48 2997.85,1765.32 3001.52,1765.32C3006.68,1765.32 3008.52,1774.02 3008.52,1781.94C3008.52,1791.63 3006.19,1801.03 3000.32,1801.03ZM2987.66,1765.47C2987.66,1764.48 2986.32,1763.2 2985.47,1763.06L2985.4,1763.06C2984.69,1763.06 2983.99,1763.41 2983.14,1763.49L2968.71,1764.55L2967.94,1764.55C2967.09,1764.55 2966.59,1764.48 2965.96,1764.48C2965.74,1764.48 2965.67,1764.62 2965.67,1764.83C2965.67,1765.32 2966.17,1766.38 2966.88,1767.16C2967.37,1767.59 2967.87,1767.73 2968.29,1767.73C2968.78,1767.73 2969.35,1767.66 2969.85,1767.59L2983.78,1766.31C2979.46,1776.5 2975.36,1787.45 2972.32,1797C2972.04,1797.99 2971.54,1799.55 2970.98,1801.17C2970.91,1801.53 2970.62,1802.02 2970.62,1802.52C2970.62,1803.01 2970.91,1803.51 2971.97,1803.65C2972.25,1803.65 2972.53,1803.72 2972.74,1803.72C2973.59,1803.72 2974.09,1803.51 2974.23,1802.87C2975.93,1794.74 2981.58,1779.18 2986.39,1768.36C2986.67,1767.66 2987.52,1766.6 2987.66,1765.68L2987.66,1765.47Z" style="fill-rule:nonzero;"/>
        </g>
    </g>
</svg>
