<?xml version="1.0" encoding="UTF-8" standalone="no"?>
<!DOCTYPE svg PUBLIC "-//W3C//DTD SVG 1.1//EN" "http://www.w3.org/Graphics/SVG/1.1/DTD/svg11.dtd">
<svg width="100%" height="100%" viewBox="0 0 89 89" version="1.1" xmlns="http://www.w3.org/2000/svg" xmlns:xlink="http://www.w3.org/1999/xlink" xml:space="preserve" xmlns:serif="http://www.serif.com/" style="fill-rule:evenodd;clip-rule:evenodd;stroke-linejoin:round;stroke-miterlimit:2;">
    <g transform="matrix(1,0,0,1,-3393.29,-231.509)">
        <g transform="matrix(1.41414,0,0,1.41429,-1389.33,-1046.26)">
            <path d="M3438.85,965.839C3442.24,965.839 3444.36,963.294 3444.36,960.324L3444.36,908.991C3444.36,905.526 3441.89,903.476 3438.85,903.476L3387.51,903.476C3384.05,903.476 3382,905.809 3382,908.991L3382,960.324C3382,963.506 3384.47,965.839 3387.51,965.839L3438.85,965.839ZM3441.46,960.607C3441.46,962.162 3440.4,962.94 3439.2,962.94L3387.16,962.94C3385.67,962.94 3384.9,961.88 3384.9,960.607L3384.9,908.637C3384.9,907.223 3385.82,906.375 3387.16,906.375L3439.2,906.375C3440.61,906.375 3441.46,907.435 3441.46,908.637L3441.46,960.607ZM3403.99,934.233C3407.24,926.95 3415.3,917.97 3416.78,916.486C3417.14,916.132 3417.56,915.708 3417.56,915.213C3417.56,914.152 3415.8,914.011 3414.88,914.011C3414.17,914.011 3413.39,914.152 3413.11,914.718C3412.9,915.001 3412.47,915.708 3412.4,915.92C3409.93,919.243 3406.18,923.627 3403.56,928.011C3400.31,933.385 3398.33,937.91 3398.33,943.566C3398.33,950.637 3403.92,955.587 3413.25,955.587C3423.5,955.587 3428.24,949.718 3428.24,941.728C3428.24,934.657 3422.23,929.991 3414.45,929.991C3410.07,929.991 3406.18,931.546 3403.99,934.233ZM3424.85,941.94C3424.85,948.445 3421.1,952.688 3413.25,952.688C3405.68,952.688 3401.8,949.152 3401.8,943.425C3401.8,937.132 3408.3,932.89 3414.31,932.89C3420.74,932.89 3424.85,936.779 3424.85,941.94Z" style="fill-rule:nonzero;"/>
        </g>
    </g>
</svg>
