<?xml version="1.0" encoding="UTF-8" standalone="no"?>
<!DOCTYPE svg PUBLIC "-//W3C//DTD SVG 1.1//EN" "http://www.w3.org/Graphics/SVG/1.1/DTD/svg11.dtd">
<svg width="100%" height="100%" viewBox="0 0 89 89" version="1.1" xmlns="http://www.w3.org/2000/svg" xmlns:xlink="http://www.w3.org/1999/xlink" xml:space="preserve" xmlns:serif="http://www.serif.com/" style="fill-rule:evenodd;clip-rule:evenodd;stroke-linejoin:round;stroke-miterlimit:2;">
    <g transform="matrix(1,0,0,1,-2793.35,-1131.51)">
        <g transform="matrix(1.41414,0,0,1.41429,-1389.33,-1046.26)">
            <path d="M3014.6,1602.2C3018,1602.2 3020.12,1599.66 3020.12,1596.69L3020.12,1545.35C3020.12,1541.89 3017.64,1539.84 3014.6,1539.84L2963.27,1539.84C2959.8,1539.84 2957.76,1542.17 2957.76,1545.35L2957.76,1596.69C2957.76,1599.87 2960.23,1602.2 2963.27,1602.2L3014.6,1602.2ZM3017.22,1596.97C3017.22,1598.53 3016.16,1599.3 3014.96,1599.3L2962.92,1599.3C2961.43,1599.3 2960.65,1598.24 2960.65,1596.97L2960.65,1545C2960.65,1543.59 2961.57,1542.74 2962.92,1542.74L3014.96,1542.74C3016.37,1542.74 3017.22,1543.8 3017.22,1545L3017.22,1596.97ZM2996.29,1553.84C2996.08,1553.41 2995.65,1553.41 2995.51,1553.41C2994.1,1553.41 2990.78,1561.48 2990.78,1571.73C2990.78,1583.39 2994.17,1591.95 3001.17,1591.95C3008.52,1591.95 3012.13,1581.98 3012.13,1570.24C3012.13,1558.72 3008.66,1550.3 3002.37,1550.3C2999.9,1550.3 2997.78,1551.72 2996.29,1553.84ZM3000.96,1588.91C2995.58,1588.91 2993.74,1580.99 2993.74,1571.66C2993.74,1559.35 2998.48,1553.2 3002.16,1553.2C3007.32,1553.2 3009.16,1561.9 3009.16,1569.82C3009.16,1579.51 3006.9,1588.91 3000.96,1588.91ZM2970.62,1571.94C2972.25,1570.1 2974.37,1568.83 2976.92,1568.83C2981.37,1568.83 2984.2,1572.36 2984.2,1578.23C2984.2,1583.75 2981.65,1588.84 2975.22,1588.84C2971.61,1588.84 2969.28,1586.15 2967.58,1583.11C2967.44,1582.83 2967.23,1582.69 2967.09,1582.69C2966.38,1582.69 2965.6,1584.24 2965.6,1585.52C2965.6,1587.35 2970.27,1591.95 2975.22,1591.95C2983.63,1591.95 2987.03,1585.44 2987.03,1578.16C2987.03,1570.38 2982.57,1565.86 2977.41,1565.86C2974.16,1565.86 2971.9,1567.06 2969.92,1569.04L2971.19,1555.18L2980.8,1554.48L2984.55,1554.26C2984.91,1554.26 2985.12,1553.91 2985.12,1553.49C2985.12,1552.57 2984.34,1551.08 2983.7,1551.08L2983.56,1551.08C2982.71,1551.29 2981.3,1551.36 2980.45,1551.43L2971.26,1552.07C2970.55,1551.72 2969.85,1551.43 2969.35,1551.43C2968.93,1551.43 2968.71,1551.58 2968.71,1552.07C2968.71,1552.78 2968.64,1553.77 2968.57,1554.55L2967.37,1568.48C2967.3,1568.76 2966.88,1570.6 2966.88,1571.09C2966.88,1572.51 2968.08,1573.57 2968.86,1573.57C2969.07,1573.57 2969.21,1573.57 2969.28,1573.42L2970.62,1571.94Z" style="fill-rule:nonzero;"/>
        </g>
    </g>
</svg>
