<?xml version="1.0" encoding="UTF-8" standalone="no"?>
<!DOCTYPE svg PUBLIC "-//W3C//DTD SVG 1.1//EN" "http://www.w3.org/Graphics/SVG/1.1/DTD/svg11.dtd">
<svg width="100%" height="100%" viewBox="0 0 89 89" version="1.1" xmlns="http://www.w3.org/2000/svg" xmlns:xlink="http://www.w3.org/1999/xlink" xml:space="preserve" xmlns:serif="http://www.serif.com/" style="fill-rule:evenodd;clip-rule:evenodd;stroke-linejoin:round;stroke-miterlimit:2;">
    <g transform="matrix(1,0,0,1,-3093.32,-1431.51)">
        <g transform="matrix(1.41414,0,0,1.41429,-1389.33,-1046.26)">
            <path d="M3226.72,1814.32C3230.12,1814.32 3232.24,1811.78 3232.24,1808.81L3232.24,1757.48C3232.24,1754.01 3229.76,1751.96 3226.72,1751.96L3175.39,1751.96C3171.93,1751.96 3169.88,1754.29 3169.88,1757.48L3169.88,1808.81C3169.88,1811.99 3172.35,1814.32 3175.39,1814.32L3226.72,1814.32ZM3229.34,1809.09C3229.34,1810.65 3228.28,1811.42 3227.08,1811.42L3175.04,1811.42C3173.55,1811.42 3172.78,1810.36 3172.78,1809.09L3172.78,1757.12C3172.78,1755.71 3173.69,1754.86 3175.04,1754.86L3227.08,1754.86C3228.49,1754.86 3229.34,1755.92 3229.34,1757.12L3229.34,1809.09ZM3214.49,1780.88C3218.66,1779.61 3221.85,1776.07 3221.85,1771.26C3221.85,1765.75 3218.31,1762.5 3213.08,1762.5C3208.98,1762.5 3205.8,1764.33 3203.25,1767.59C3202.97,1767.87 3202.83,1768.22 3202.83,1768.72C3202.83,1769.28 3202.97,1769.92 3203.6,1770.7C3203.82,1771.05 3204.03,1771.12 3204.24,1771.12C3204.73,1771.12 3205.09,1770.41 3205.3,1770.2C3207.7,1766.95 3210.18,1765.47 3213.15,1765.47C3216.83,1765.47 3219.02,1767.8 3219.02,1771.62C3219.02,1776.35 3213.78,1779.89 3208.13,1780.31C3207.78,1780.38 3207.56,1780.74 3207.56,1781.16C3207.56,1782.08 3208.27,1783.42 3209.12,1783.42C3209.19,1783.42 3209.26,1783.35 3209.4,1783.35C3209.9,1783.21 3211.03,1783 3211.95,1782.93C3212.37,1782.86 3212.72,1782.86 3213.08,1782.86C3217.39,1782.86 3220.43,1786.11 3220.43,1790.78C3220.43,1796.01 3217.82,1801.03 3211.24,1801.03C3207.85,1801.03 3205.72,1799.05 3203.67,1796.08C3203.53,1795.87 3203.39,1795.73 3203.25,1795.73C3202.47,1795.73 3201.84,1797.21 3201.84,1798.34C3201.84,1798.84 3201.91,1799.19 3202.12,1799.48C3204.73,1802.44 3207.63,1804.07 3211.24,1804.07C3219.87,1804.07 3223.33,1797.92 3223.33,1790.71C3223.33,1784.63 3219.51,1780.88 3215.13,1780.88L3214.49,1780.88ZM3198.8,1765.47C3198.8,1764.48 3197.52,1763.2 3196.74,1763.06L3196.67,1763.06C3195.97,1763.06 3195.33,1763.41 3194.55,1763.49L3180.84,1764.55L3180.13,1764.55C3179.28,1764.55 3178.78,1764.48 3178.22,1764.48C3178.01,1764.48 3177.94,1764.62 3177.94,1764.83C3177.94,1765.18 3178.64,1767.73 3180.41,1767.73C3180.91,1767.73 3181.4,1767.66 3181.9,1767.59L3195.12,1766.31C3191.02,1776.5 3187.13,1787.45 3184.23,1797C3183.95,1797.99 3183.52,1799.55 3182.96,1801.17C3182.89,1801.53 3182.67,1802.02 3182.67,1802.52C3182.67,1803.01 3182.89,1803.51 3183.95,1803.65C3184.23,1803.65 3184.44,1803.72 3184.65,1803.72C3185.5,1803.72 3185.93,1803.51 3186.07,1802.87C3186.92,1797.85 3191.09,1784.06 3197.59,1768.36C3197.88,1767.66 3198.65,1766.6 3198.8,1765.68L3198.8,1765.47Z" style="fill-rule:nonzero;"/>
        </g>
    </g>
</svg>
