<?xml version="1.0" encoding="UTF-8" standalone="no"?>
<!DOCTYPE svg PUBLIC "-//W3C//DTD SVG 1.1//EN" "http://www.w3.org/Graphics/SVG/1.1/DTD/svg11.dtd">
<svg width="100%" height="100%" viewBox="0 0 89 89" version="1.1" xmlns="http://www.w3.org/2000/svg" xmlns:xlink="http://www.w3.org/1999/xlink" xml:space="preserve" xmlns:serif="http://www.serif.com/" style="fill-rule:evenodd;clip-rule:evenodd;stroke-linejoin:round;stroke-miterlimit:2;">
    <g transform="matrix(1,0,0,1,-3493.28,-2031.51)">
        <g transform="matrix(1.41414,0,0,1.41429,-1389.33,-1046.26)">
            <path d="M3509.55,2238.57C3512.95,2238.57 3515.07,2236.02 3515.07,2233.05L3515.07,2181.72C3515.07,2178.25 3512.59,2176.2 3509.55,2176.2L3458.22,2176.2C3454.76,2176.2 3452.7,2178.54 3452.7,2181.72L3452.7,2233.05C3452.7,2236.23 3455.18,2238.57 3458.22,2238.57L3509.55,2238.57ZM3512.17,2233.33C3512.17,2234.89 3511.11,2235.67 3509.91,2235.67L3457.87,2235.67C3456.38,2235.67 3455.6,2234.61 3455.6,2233.33L3455.6,2181.36C3455.6,2179.95 3456.52,2179.1 3457.87,2179.1L3509.91,2179.1C3511.32,2179.1 3512.17,2180.16 3512.17,2181.36L3512.17,2233.33ZM3485.72,2208.16C3490.25,2209.29 3491.81,2211.06 3491.81,2213.96C3491.81,2216.79 3488.55,2219.48 3483.67,2219.48C3477.52,2219.48 3475.54,2217.35 3474.2,2214.24C3474.06,2213.96 3473.92,2213.82 3473.63,2213.82C3472.86,2213.82 3471.65,2215.23 3471.65,2216.29C3471.65,2216.51 3471.72,2216.72 3471.8,2216.93C3474.13,2221.03 3478.87,2222.52 3483.67,2222.52C3490.67,2222.52 3495.06,2218.63 3495.06,2213.82C3495.06,2208.94 3491.88,2206.61 3486.78,2205.41L3480.99,2203.99C3477.59,2203.21 3476.32,2201.94 3476.32,2200.24C3476.32,2197.41 3479.29,2195.29 3484.03,2195.29C3484.81,2195.29 3489.33,2195.29 3491.24,2198.33C3491.52,2198.76 3491.73,2199.04 3492.02,2199.04C3492.87,2199.04 3493.71,2197.91 3493.71,2196.78C3493.71,2196.57 3493.71,2196.35 3493.57,2196.21C3491.95,2194.16 3488.55,2192.47 3484.03,2192.47C3478.09,2192.47 3473.14,2195.58 3473.14,2200.17C3473.14,2203.78 3475.33,2205.76 3479.71,2206.75L3485.72,2208.16Z" style="fill-rule:nonzero;"/>
        </g>
    </g>
</svg>
