<?xml version="1.0" encoding="UTF-8" standalone="no"?>
<!DOCTYPE svg PUBLIC "-//W3C//DTD SVG 1.1//EN" "http://www.w3.org/Graphics/SVG/1.1/DTD/svg11.dtd">
<svg width="100%" height="100%" viewBox="0 0 89 89" version="1.1" xmlns="http://www.w3.org/2000/svg" xmlns:xlink="http://www.w3.org/1999/xlink" xml:space="preserve" xmlns:serif="http://www.serif.com/" style="fill-rule:evenodd;clip-rule:evenodd;stroke-linejoin:round;stroke-miterlimit:2;">
    <g transform="matrix(1,0,0,1,-3793.25,-1731.51)">
        <g transform="matrix(1.41414,0,0,1.41429,-1389.33,-1046.26)">
            <path d="M3721.67,2026.44C3725.07,2026.44 3727.19,2023.9 3727.19,2020.93L3727.19,1969.6C3727.19,1966.13 3724.71,1964.08 3721.67,1964.08L3670.34,1964.08C3666.88,1964.08 3664.83,1966.41 3664.83,1969.6L3664.83,2020.93C3664.83,2024.11 3667.3,2026.44 3670.34,2026.44L3721.67,2026.44ZM3724.29,2021.21C3724.29,2022.77 3723.23,2023.55 3722.03,2023.55L3669.99,2023.55C3668.5,2023.55 3667.72,2022.49 3667.72,2021.21L3667.72,1969.24C3667.72,1967.83 3668.64,1966.98 3669.99,1966.98L3722.03,1966.98C3723.44,1966.98 3724.29,1968.04 3724.29,1969.24L3724.29,2021.21ZM3705.91,1978.51C3705.76,1978.29 3705.55,1978.08 3705.27,1978.08C3704,1978.08 3701.52,1987.2 3701.52,1996.39C3701.52,2008.06 3704.14,2016.62 3709.44,2016.62C3715.1,2016.62 3717.93,2006.65 3717.93,1994.91C3717.93,1983.38 3715.24,1974.97 3710.36,1974.97C3708.52,1974.97 3707.11,1976.38 3705.91,1978.51ZM3687.1,1978.51C3686.96,1978.29 3686.74,1978.08 3686.46,1978.08C3685.19,1978.08 3682.71,1987.84 3682.71,1996.39C3682.71,2008.06 3685.33,2016.62 3690.56,2016.62C3696.08,2016.62 3698.84,2006.65 3698.84,1994.91C3698.84,1983.38 3696.22,1974.97 3691.48,1974.97C3689.64,1974.97 3688.3,1976.38 3687.1,1978.51ZM3709.37,2013.51C3705.62,2013.51 3704.56,2005.66 3704.56,1996.32C3704.56,1984.02 3707.74,1977.94 3710.22,1977.94C3713.76,1977.94 3714.82,1986.57 3714.82,1994.49C3714.82,2004.17 3713.47,2013.51 3709.37,2013.51ZM3690.49,2013.51C3686.82,2013.51 3685.83,2005.66 3685.83,1996.32C3685.83,1984.02 3688.87,1977.94 3691.34,1977.94C3694.81,1977.94 3695.8,1986.57 3695.8,1994.49C3695.8,2004.17 3694.45,2013.51 3690.49,2013.51ZM3679.46,2015.84C3679.46,2014.35 3679.39,2011.03 3679.39,2009.48L3679.39,1980.98C3679.39,1979.35 3679.67,1978.36 3679.67,1977.44C3679.67,1976.38 3678.47,1975.32 3677.69,1975.32C3676.85,1975.32 3675.71,1976.95 3675.36,1977.3C3673.66,1978.65 3671.83,1979.99 3669.14,1981.12C3668.71,1981.26 3668.57,1981.48 3668.57,1981.69C3668.57,1982.32 3669.78,1982.96 3670.76,1982.96C3670.91,1982.96 3671.12,1982.96 3671.26,1982.89C3673.17,1982.32 3674.65,1981.55 3676.21,1980.56L3676.21,2009.83C3676.21,2011.03 3676.07,2013.93 3676.07,2014.85C3676.07,2015.77 3677.55,2016.4 3678.61,2016.4C3679.04,2016.4 3679.46,2016.26 3679.46,2015.91L3679.46,2015.84Z" style="fill-rule:nonzero;"/>
        </g>
    </g>
</svg>
