<?xml version="1.0" encoding="UTF-8" standalone="no"?>
<!DOCTYPE svg PUBLIC "-//W3C//DTD SVG 1.1//EN" "http://www.w3.org/Graphics/SVG/1.1/DTD/svg11.dtd">
<svg width="100%" height="100%" viewBox="0 0 89 89" version="1.1" xmlns="http://www.w3.org/2000/svg" xmlns:xlink="http://www.w3.org/1999/xlink" xml:space="preserve" xmlns:serif="http://www.serif.com/" style="fill-rule:evenodd;clip-rule:evenodd;stroke-linejoin:round;stroke-miterlimit:2;">
    <g transform="matrix(1,0,0,1,-3293.3,-1131.51)">
        <g transform="matrix(1.41414,0,0,1.41429,-1389.33,-1046.26)">
            <path d="M3368.14,1602.2C3371.53,1602.2 3373.65,1599.66 3373.65,1596.69L3373.65,1545.35C3373.65,1541.89 3371.18,1539.84 3368.14,1539.84L3316.81,1539.84C3313.34,1539.84 3311.29,1542.17 3311.29,1545.35L3311.29,1596.69C3311.29,1599.87 3313.76,1602.2 3316.81,1602.2L3368.14,1602.2ZM3370.76,1596.97C3370.76,1598.53 3369.69,1599.3 3368.49,1599.3L3316.45,1599.3C3314.97,1599.3 3314.19,1598.24 3314.19,1596.97L3314.19,1545C3314.19,1543.59 3315.11,1542.74 3316.45,1542.74L3368.49,1542.74C3369.91,1542.74 3370.76,1543.8 3370.76,1545L3370.76,1596.97ZM3349.54,1571.94C3351.17,1570.1 3353.29,1568.83 3355.84,1568.83C3360.22,1568.83 3363.05,1572.36 3363.05,1578.23C3363.05,1583.75 3360.5,1588.84 3354.14,1588.84C3350.46,1588.84 3348.2,1586.15 3346.43,1583.11C3346.29,1582.83 3346.15,1582.69 3345.94,1582.69C3345.3,1582.69 3344.52,1584.24 3344.52,1585.52C3344.52,1587.35 3349.12,1591.95 3354.14,1591.95C3362.48,1591.95 3365.88,1585.44 3365.88,1578.16C3365.88,1570.38 3361.49,1565.86 3356.26,1565.86C3353.01,1565.86 3350.82,1567.06 3348.76,1569.04L3350.04,1555.18L3359.65,1554.48L3363.4,1554.26C3363.76,1554.26 3363.97,1553.91 3363.97,1553.49C3363.97,1552.57 3363.26,1551.08 3362.55,1551.08L3362.48,1551.08C3361.63,1551.29 3360.22,1551.36 3359.3,1551.43L3350.11,1552.07C3349.47,1551.72 3348.69,1551.43 3348.27,1551.43C3347.85,1551.43 3347.56,1551.58 3347.56,1552.07C3347.56,1552.78 3347.49,1553.77 3347.49,1554.55L3346.22,1568.48C3346.15,1568.97 3346.01,1569.68 3345.8,1570.45L3345.8,1571.09C3345.8,1572.51 3347,1573.57 3347.78,1573.57C3347.92,1573.57 3348.06,1573.57 3348.2,1573.42L3349.54,1571.94ZM3324.87,1571.94C3326.49,1570.1 3328.61,1568.83 3331.16,1568.83C3335.54,1568.83 3338.37,1572.36 3338.37,1578.23C3338.37,1583.75 3335.83,1588.84 3329.46,1588.84C3325.78,1588.84 3323.52,1586.15 3321.76,1583.11C3321.61,1582.83 3321.47,1582.69 3321.26,1582.69C3320.62,1582.69 3319.85,1584.24 3319.85,1585.52C3319.85,1587.35 3324.44,1591.95 3329.46,1591.95C3337.81,1591.95 3341.2,1585.44 3341.2,1578.16C3341.2,1570.38 3336.82,1565.86 3331.58,1565.86C3328.33,1565.86 3326.14,1567.06 3324.09,1569.04L3325.36,1555.18L3334.98,1554.48L3338.72,1554.26C3339.08,1554.26 3339.29,1553.91 3339.29,1553.49C3339.29,1552.57 3338.58,1551.08 3337.88,1551.08L3337.81,1551.08C3336.96,1551.29 3335.54,1551.36 3334.62,1551.43L3325.43,1552.07C3324.8,1551.72 3324.09,1551.43 3323.59,1551.43C3323.17,1551.43 3322.89,1551.58 3322.89,1552.07C3322.89,1552.78 3322.89,1553.77 3322.82,1554.55L3321.54,1568.48L3321.19,1570.45C3321.12,1570.67 3321.12,1570.88 3321.12,1571.09C3321.12,1572.51 3322.32,1573.57 3323.1,1573.57C3323.24,1573.57 3323.38,1573.57 3323.52,1573.42L3324.87,1571.94Z" style="fill-rule:nonzero;"/>
        </g>
    </g>
</svg>
