<?xml version="1.0" encoding="UTF-8" standalone="no"?>
<!DOCTYPE svg PUBLIC "-//W3C//DTD SVG 1.1//EN" "http://www.w3.org/Graphics/SVG/1.1/DTD/svg11.dtd">
<svg width="100%" height="100%" viewBox="0 0 89 89" version="1.1" xmlns="http://www.w3.org/2000/svg" xmlns:xlink="http://www.w3.org/1999/xlink" xml:space="preserve" xmlns:serif="http://www.serif.com/" style="fill-rule:evenodd;clip-rule:evenodd;stroke-linejoin:round;stroke-miterlimit:2;">
    <g transform="matrix(1,0,0,1,-3593.27,-1881.51)">
        <g transform="matrix(1.41414,0,0,1.41429,-1389.33,-1046.26)">
            <path d="M3580.26,2132.51C3583.65,2132.51 3585.78,2129.96 3585.78,2126.99L3585.78,2075.66C3585.78,2072.19 3583.3,2070.14 3580.26,2070.14L3528.93,2070.14C3525.46,2070.14 3523.41,2072.48 3523.41,2075.66L3523.41,2126.99C3523.41,2130.17 3525.89,2132.51 3528.93,2132.51L3580.26,2132.51ZM3582.88,2127.27C3582.88,2128.83 3581.82,2129.61 3580.61,2129.61L3528.57,2129.61C3527.09,2129.61 3526.31,2128.55 3526.31,2127.27L3526.31,2075.3C3526.31,2073.89 3527.23,2073.04 3528.57,2073.04L3580.61,2073.04C3582.03,2073.04 3582.88,2074.1 3582.88,2075.3L3582.88,2127.27ZM3552.9,2115.68C3552.9,2116.53 3552.76,2119.99 3552.76,2120.91C3552.76,2121.9 3554.38,2122.54 3555.51,2122.54C3556.01,2122.54 3556.36,2122.39 3556.36,2122.04C3556.36,2120.63 3556.22,2116.39 3556.22,2115.68L3556.22,2099.84C3556.22,2098.43 3556.29,2095.45 3556.29,2094.47C3556.29,2093.55 3554.66,2092.91 3553.6,2092.91C3553.11,2092.91 3552.76,2093.05 3552.76,2093.41C3552.76,2094.82 3552.9,2098.71 3552.9,2099.84L3552.9,2115.68ZM3554.81,2085.77C3556.22,2085.77 3557.07,2084.85 3557.07,2083.43C3557.07,2081.88 3555.58,2080.11 3554.24,2080.11C3552.76,2080.11 3551.91,2081.1 3551.91,2082.59C3551.91,2084.07 3553.32,2085.77 3554.81,2085.77Z" style="fill-rule:nonzero;"/>
        </g>
    </g>
</svg>
