<?xml version="1.0" encoding="UTF-8" standalone="no"?>
<!DOCTYPE svg PUBLIC "-//W3C//DTD SVG 1.1//EN" "http://www.w3.org/Graphics/SVG/1.1/DTD/svg11.dtd">
<svg width="100%" height="100%" viewBox="0 0 89 89" version="1.1" xmlns="http://www.w3.org/2000/svg" xmlns:xlink="http://www.w3.org/1999/xlink" xml:space="preserve" xmlns:serif="http://www.serif.com/" style="fill-rule:evenodd;clip-rule:evenodd;stroke-linejoin:round;stroke-miterlimit:2;">
    <g transform="matrix(1,0,0,1,-3193.31,-1581.51)">
        <g transform="matrix(1.41414,0,0,1.41429,-1389.33,-1046.26)">
            <path d="M3297.43,1920.38C3300.83,1920.38 3302.95,1917.84 3302.95,1914.87L3302.95,1863.54C3302.95,1860.07 3300.47,1858.02 3297.43,1858.02L3246.1,1858.02C3242.63,1858.02 3240.58,1860.35 3240.58,1863.54L3240.58,1914.87C3240.58,1918.05 3243.06,1920.38 3246.1,1920.38L3297.43,1920.38ZM3300.05,1915.15C3300.05,1916.71 3298.99,1917.49 3297.78,1917.49L3245.74,1917.49C3244.26,1917.49 3243.48,1916.42 3243.48,1915.15L3243.48,1863.18C3243.48,1861.77 3244.4,1860.92 3245.74,1860.92L3297.78,1860.92C3299.2,1860.92 3300.05,1861.98 3300.05,1863.18L3300.05,1915.15ZM3261.51,1886.23C3265.61,1882.91 3270.35,1877.75 3270.35,1875.98C3270.35,1875.34 3270,1874.92 3269.5,1874.92C3269.15,1874.92 3268.8,1875.06 3268.37,1875.56L3268.16,1875.84C3268.3,1875.49 3268.44,1875.06 3268.44,1874.78C3268.44,1874.14 3265.54,1868.63 3259.89,1868.63C3254.02,1868.63 3250.55,1873.08 3250.55,1878.1C3250.55,1881.85 3251.83,1884.25 3256.28,1886.8C3251.76,1890.33 3249.07,1894.22 3249.07,1899.38C3249.07,1905.47 3252.82,1910.13 3259.11,1910.13C3266.04,1910.13 3270.63,1905.61 3270.63,1898.61C3270.63,1893.09 3267.88,1889.49 3262.08,1886.52L3261.51,1886.23ZM3292.76,1900.02C3294.11,1900.02 3295.88,1900.16 3296.58,1900.16C3296.94,1900.16 3297.01,1899.81 3297.01,1899.38C3297.01,1898.39 3296.3,1896.77 3295.52,1896.77C3294.89,1896.77 3293.54,1897.05 3292.69,1897.12L3291.85,1897.19L3291.85,1885.38C3291.85,1883.97 3291.99,1881.21 3291.99,1880.29C3291.99,1879.3 3290.64,1878.67 3289.72,1878.67C3289.23,1878.67 3288.88,1878.88 3288.88,1879.23C3288.88,1880.58 3289.02,1884.25 3289.02,1885.38L3289.02,1897.33L3277.49,1897.62C3280.96,1890.83 3285.34,1881.64 3288.1,1875.34C3288.52,1874.42 3289.23,1873.08 3289.8,1872.16C3289.94,1872.02 3289.94,1871.81 3289.94,1871.6C3289.94,1870.39 3288.52,1868.7 3287.74,1868.7C3287.46,1868.7 3287.32,1868.77 3287.25,1869.05C3286.12,1872.52 3282.8,1881.07 3275.87,1894.58C3275.44,1895.35 3274.81,1896.2 3274.24,1897.19C3274.03,1897.55 3273.96,1897.97 3273.96,1898.32C3273.96,1899.67 3275.09,1900.94 3276.08,1900.94C3276.15,1900.94 3276.22,1900.87 3276.36,1900.87C3277.07,1900.66 3277.85,1900.52 3278.2,1900.52L3289.02,1900.16L3289.02,1903.27C3289.02,1904.12 3288.88,1907.38 3288.88,1908.29C3288.88,1909.28 3290.29,1909.92 3291.21,1909.92C3291.7,1909.92 3292.06,1909.71 3292.06,1909.35C3292.06,1908.01 3291.85,1905.75 3291.85,1903.41L3291.85,1900.02L3292.76,1900.02ZM3258.97,1888.21C3264.13,1890.83 3267.81,1893.09 3267.81,1898.89C3267.81,1903.77 3264.06,1907.09 3259.11,1907.09C3254.09,1907.09 3251.9,1903.13 3251.9,1899.24C3251.9,1895.14 3254.51,1891.82 3258.97,1888.21ZM3267.38,1876.69C3264.91,1879.52 3262.15,1882.41 3258.9,1884.82C3254.65,1882.63 3253.38,1881.07 3253.38,1878.1C3253.38,1874.78 3255.57,1871.53 3259.96,1871.53C3262.86,1871.53 3264.48,1873.29 3265.97,1876.05C3266.25,1876.62 3266.6,1876.83 3266.89,1876.83C3267.03,1876.83 3267.24,1876.76 3267.38,1876.69Z" style="fill-rule:nonzero;"/>
        </g>
    </g>
</svg>
