<?xml version="1.0" encoding="UTF-8" standalone="no"?>
<!DOCTYPE svg PUBLIC "-//W3C//DTD SVG 1.1//EN" "http://www.w3.org/Graphics/SVG/1.1/DTD/svg11.dtd">
<svg width="100%" height="100%" viewBox="0 0 89 89" version="1.1" xmlns="http://www.w3.org/2000/svg" xmlns:xlink="http://www.w3.org/1999/xlink" xml:space="preserve" xmlns:serif="http://www.serif.com/" style="fill-rule:evenodd;clip-rule:evenodd;stroke-linejoin:round;stroke-miterlimit:2;">
    <g transform="matrix(1,0,0,1,-2893.34,-981.509)">
        <g transform="matrix(1.41414,0,0,1.41429,-1389.33,-1046.26)">
            <path d="M3085.31,1496.14C3088.7,1496.14 3090.83,1493.6 3090.83,1490.63L3090.83,1439.29C3090.83,1435.83 3088.35,1433.78 3085.31,1433.78L3033.98,1433.78C3030.51,1433.78 3028.46,1436.11 3028.46,1439.29L3028.46,1490.63C3028.46,1493.81 3030.94,1496.14 3033.98,1496.14L3085.31,1496.14ZM3087.93,1490.91C3087.93,1492.46 3086.87,1493.24 3085.66,1493.24L3033.62,1493.24C3032.14,1493.24 3031.36,1492.18 3031.36,1490.91L3031.36,1438.94C3031.36,1437.53 3032.28,1436.68 3033.62,1436.68L3085.66,1436.68C3087.08,1436.68 3087.93,1437.74 3087.93,1438.94L3087.93,1490.91ZM3057.73,1475.78C3059.15,1475.78 3061.06,1475.92 3061.76,1475.92C3062.12,1475.92 3062.26,1475.57 3062.26,1475.14C3062.26,1474.15 3061.48,1472.53 3060.63,1472.53C3060,1472.53 3058.51,1472.81 3057.66,1472.88L3056.74,1472.95L3056.74,1461.14C3056.74,1459.73 3056.89,1456.97 3056.89,1456.05C3056.89,1455.06 3055.47,1454.42 3054.55,1454.42C3053.99,1454.42 3053.63,1454.64 3053.63,1454.99C3053.63,1456.33 3053.78,1460.01 3053.78,1461.14L3053.78,1473.09L3041.61,1473.38C3045.29,1466.59 3049.89,1457.39 3052.78,1451.1C3053.21,1450.18 3053.99,1448.84 3054.62,1447.92C3054.69,1447.78 3054.69,1447.57 3054.69,1447.35C3054.69,1446.15 3053.28,1444.45 3052.43,1444.45C3052.15,1444.45 3052.01,1444.53 3051.94,1444.81C3048.83,1453.58 3041.26,1467.79 3039.92,1470.33C3039.49,1471.11 3038.78,1471.96 3038.22,1472.95C3037.94,1473.3 3037.87,1473.73 3037.87,1474.08C3037.87,1475.42 3039.07,1476.7 3040.13,1476.7C3040.2,1476.7 3040.27,1476.63 3040.41,1476.63C3041.19,1476.41 3041.97,1476.27 3042.32,1476.27L3053.78,1475.92L3053.78,1479.03C3053.78,1479.88 3053.63,1483.13 3053.63,1484.05C3053.63,1485.04 3055.12,1485.68 3056.11,1485.68C3056.6,1485.68 3057.03,1485.46 3057.03,1485.11C3057.03,1483.77 3056.74,1481.51 3056.74,1479.17L3056.74,1475.78L3057.73,1475.78ZM3073.29,1479.1C3073.29,1480.3 3073.15,1483.2 3073.15,1484.12C3073.15,1485.04 3074.56,1485.68 3075.62,1485.68C3076.05,1485.68 3076.4,1485.54 3076.4,1485.11C3076.4,1483.63 3076.26,1480.3 3076.26,1478.75L3076.26,1450.25C3076.26,1448.63 3076.61,1447.64 3076.61,1446.72C3076.61,1445.66 3075.48,1444.6 3074.7,1444.6C3073.93,1444.6 3072.87,1446.22 3072.44,1446.58C3070.89,1447.92 3068.48,1449.4 3065.87,1450.54C3065.51,1450.68 3065.37,1450.89 3065.37,1451.1C3065.37,1451.74 3066.5,1452.38 3067.42,1452.38C3067.63,1452.38 3067.78,1452.38 3067.92,1452.3C3069.68,1451.74 3071.81,1450.82 3073.29,1449.83L3073.29,1479.1Z" style="fill-rule:nonzero;"/>
        </g>
    </g>
</svg>
