<?xml version="1.0" encoding="UTF-8" standalone="no"?>
<!DOCTYPE svg PUBLIC "-//W3C//DTD SVG 1.1//EN" "http://www.w3.org/Graphics/SVG/1.1/DTD/svg11.dtd">
<svg width="100%" height="100%" viewBox="0 0 89 89" version="1.1" xmlns="http://www.w3.org/2000/svg" xmlns:xlink="http://www.w3.org/1999/xlink" xml:space="preserve" xmlns:serif="http://www.serif.com/" style="fill-rule:evenodd;clip-rule:evenodd;stroke-linejoin:round;stroke-miterlimit:2;">
    <g transform="matrix(1,0,0,1,-2893.34,-1431.51)">
        <g transform="matrix(1.41414,0,0,1.41429,-1389.33,-1046.26)">
            <path d="M3085.31,1814.32C3088.7,1814.32 3090.83,1811.78 3090.83,1808.81L3090.83,1757.48C3090.83,1754.01 3088.35,1751.96 3085.31,1751.96L3033.98,1751.96C3030.51,1751.96 3028.46,1754.29 3028.46,1757.48L3028.46,1808.81C3028.46,1811.99 3030.94,1814.32 3033.98,1814.32L3085.31,1814.32ZM3087.93,1809.09C3087.93,1810.65 3086.87,1811.42 3085.66,1811.42L3033.62,1811.42C3032.14,1811.42 3031.36,1810.36 3031.36,1809.09L3031.36,1757.12C3031.36,1755.71 3032.28,1754.86 3033.62,1754.86L3085.66,1754.86C3087.08,1754.86 3087.93,1755.92 3087.93,1757.12L3087.93,1809.09ZM3059.93,1765.47C3059.93,1764.48 3058.58,1763.2 3057.73,1763.06L3057.59,1763.06C3056.96,1763.06 3056.18,1763.41 3055.4,1763.49L3040.98,1764.55L3040.2,1764.55C3039.35,1764.55 3038.78,1764.48 3038.22,1764.48C3038.01,1764.48 3037.94,1764.62 3037.94,1764.83C3037.94,1765.96 3039.07,1767.73 3040.55,1767.73C3041.05,1767.73 3041.54,1767.66 3042.11,1767.59L3056.04,1766.31C3051.72,1776.5 3047.62,1787.45 3044.58,1797C3044.3,1797.99 3043.8,1799.55 3043.24,1801.17C3043.17,1801.53 3042.89,1802.02 3042.89,1802.52C3042.89,1803.01 3043.17,1803.51 3044.23,1803.65C3044.51,1803.65 3044.8,1803.72 3045.01,1803.72C3045.86,1803.72 3046.35,1803.51 3046.49,1802.87C3048.19,1794.74 3053.85,1779.18 3058.65,1768.36C3058.94,1767.66 3059.78,1766.6 3059.93,1765.68L3059.93,1765.47ZM3073.71,1797.28C3073.71,1798.49 3073.57,1801.38 3073.57,1802.3C3073.57,1803.22 3075.06,1803.86 3076.12,1803.86C3076.54,1803.86 3076.97,1803.72 3076.97,1803.29C3076.9,1801.81 3076.83,1798.49 3076.83,1796.93L3076.83,1768.43C3076.83,1766.81 3077.18,1765.82 3077.18,1764.9C3077.18,1763.84 3075.98,1762.78 3075.13,1762.78C3074.35,1762.78 3073.22,1764.4 3072.8,1764.76C3071.17,1766.1 3068.55,1767.59 3065.87,1768.72C3065.51,1768.86 3065.37,1769.07 3065.37,1769.28C3065.37,1769.92 3066.57,1770.56 3067.49,1770.56C3067.7,1770.56 3067.92,1770.56 3068.06,1770.49C3069.9,1769.92 3072.16,1769 3073.71,1768.01L3073.71,1797.28Z" style="fill-rule:nonzero;"/>
        </g>
    </g>
</svg>
