<?xml version="1.0" encoding="UTF-8" standalone="no"?>
<!DOCTYPE svg PUBLIC "-//W3C//DTD SVG 1.1//EN" "http://www.w3.org/Graphics/SVG/1.1/DTD/svg11.dtd">
<svg width="100%" height="100%" viewBox="0 0 89 89" version="1.1" xmlns="http://www.w3.org/2000/svg" xmlns:xlink="http://www.w3.org/1999/xlink" xml:space="preserve" xmlns:serif="http://www.serif.com/" style="fill-rule:evenodd;clip-rule:evenodd;stroke-linejoin:round;stroke-miterlimit:2;">
    <g transform="matrix(1,0,0,1,-3593.27,-981.509)">
        <g transform="matrix(1.41414,0,0,1.41429,-1389.33,-1046.26)">
            <path d="M3580.26,1496.14C3583.65,1496.14 3585.78,1493.6 3585.78,1490.63L3585.78,1439.29C3585.78,1435.83 3583.3,1433.78 3580.26,1433.78L3528.93,1433.78C3525.46,1433.78 3523.41,1436.11 3523.41,1439.29L3523.41,1490.63C3523.41,1493.81 3525.89,1496.14 3528.93,1496.14L3580.26,1496.14ZM3582.88,1490.91C3582.88,1492.46 3581.82,1493.24 3580.61,1493.24L3528.57,1493.24C3527.09,1493.24 3526.31,1492.18 3526.31,1490.91L3526.31,1438.94C3526.31,1437.53 3527.23,1436.68 3528.57,1436.68L3580.61,1436.68C3582.03,1436.68 3582.88,1437.74 3582.88,1438.94L3582.88,1490.91ZM3568.03,1461.99C3570.43,1460.08 3576.94,1453.58 3576.94,1451.74C3576.94,1451.1 3576.58,1450.68 3576.09,1450.68C3575.73,1450.68 3575.38,1450.82 3574.96,1451.31L3574.67,1451.6C3574.89,1451.24 3575.03,1450.82 3575.03,1450.54C3575.03,1450.32 3574.96,1450.11 3574.89,1449.97C3572.98,1446.93 3570.29,1444.38 3566.47,1444.38C3560.53,1444.38 3557.07,1448.84 3557.07,1453.86C3557.07,1457.61 3558.34,1460.01 3562.87,1462.56C3558.34,1466.09 3555.58,1469.98 3555.58,1475.14C3555.58,1481.22 3559.33,1485.89 3565.62,1485.89C3572.55,1485.89 3577.15,1481.36 3577.15,1474.36C3577.15,1468.85 3574.46,1465.24 3568.66,1462.27L3568.03,1461.99ZM3548.87,1475.78C3550.14,1475.78 3551.98,1475.92 3552.61,1475.92C3553.04,1475.92 3553.11,1475.57 3553.11,1475.14C3553.11,1474.15 3552.4,1472.53 3551.62,1472.53C3550.99,1472.53 3549.64,1472.81 3548.8,1472.88L3547.95,1472.95L3547.95,1461.14C3547.95,1459.73 3548.02,1456.97 3548.02,1456.05C3548.02,1455.06 3546.74,1454.42 3545.83,1454.42C3545.33,1454.42 3544.98,1454.64 3544.98,1454.99C3544.98,1456.33 3545.12,1460.01 3545.12,1461.14L3545.12,1473.09L3533.59,1473.38C3537.06,1466.59 3541.44,1457.39 3544.2,1451.1C3544.55,1450.18 3545.33,1448.84 3545.9,1447.92C3545.97,1447.78 3545.97,1447.57 3545.97,1447.35C3545.97,1446.15 3544.62,1444.45 3543.85,1444.45C3543.56,1444.45 3543.42,1444.53 3543.35,1444.81C3540.45,1453.01 3535.01,1464.39 3531.97,1470.33C3531.54,1471.11 3530.91,1471.96 3530.34,1472.95C3530.13,1473.3 3530.06,1473.73 3530.06,1474.08C3530.06,1475.42 3531.19,1476.7 3532.18,1476.7C3532.25,1476.7 3532.32,1476.63 3532.46,1476.63C3533.17,1476.41 3533.88,1476.27 3534.3,1476.27L3545.12,1475.92L3545.12,1479.03C3545.12,1479.88 3544.98,1483.13 3544.98,1484.05C3544.98,1485.04 3546.39,1485.68 3547.31,1485.68C3547.81,1485.68 3548.16,1485.46 3548.16,1485.11C3548.16,1483.77 3547.95,1481.51 3547.95,1479.17L3547.95,1475.78L3548.87,1475.78ZM3565.48,1463.97C3573.97,1467.36 3574.32,1472.67 3574.32,1474.65C3574.32,1479.53 3570.64,1482.85 3565.62,1482.85C3560.6,1482.85 3558.41,1478.89 3558.41,1475C3558.41,1470.9 3561.03,1467.58 3565.48,1463.97ZM3573.9,1452.44C3571.49,1455.27 3568.73,1458.17 3565.41,1460.58C3561.24,1458.38 3559.97,1456.83 3559.97,1453.86C3559.97,1450.54 3562.09,1447.28 3566.54,1447.28C3569.37,1447.28 3571.07,1449.05 3572.48,1451.81C3572.84,1452.38 3573.12,1452.59 3573.4,1452.59C3573.61,1452.59 3573.76,1452.52 3573.9,1452.44Z" style="fill-rule:nonzero;"/>
        </g>
    </g>
</svg>
