<?xml version="1.0" encoding="UTF-8" standalone="no"?>
<!DOCTYPE svg PUBLIC "-//W3C//DTD SVG 1.1//EN" "http://www.w3.org/Graphics/SVG/1.1/DTD/svg11.dtd">
<svg width="100%" height="100%" viewBox="0 0 89 89" version="1.1" xmlns="http://www.w3.org/2000/svg" xmlns:xlink="http://www.w3.org/1999/xlink" xml:space="preserve" xmlns:serif="http://www.serif.com/" style="fill-rule:evenodd;clip-rule:evenodd;stroke-linejoin:round;stroke-miterlimit:2;">
    <g transform="matrix(1,0,0,1,-3393.29,-1881.51)">
        <g transform="matrix(1.41414,0,0,1.41429,-1389.33,-1046.26)">
            <path d="M3438.85,2132.51C3442.24,2132.51 3444.36,2129.96 3444.36,2126.99L3444.36,2075.66C3444.36,2072.19 3441.89,2070.14 3438.85,2070.14L3387.51,2070.14C3384.05,2070.14 3382,2072.48 3382,2075.66L3382,2126.99C3382,2130.17 3384.47,2132.51 3387.51,2132.51L3438.85,2132.51ZM3441.46,2127.27C3441.46,2128.83 3440.4,2129.61 3439.2,2129.61L3387.16,2129.61C3385.67,2129.61 3384.9,2128.55 3384.9,2127.27L3384.9,2075.3C3384.9,2073.89 3385.82,2073.04 3387.16,2073.04L3439.2,2073.04C3440.61,2073.04 3441.46,2074.1 3441.46,2075.3L3441.46,2127.27ZM3421.95,2107.83C3421.95,2114.76 3416.78,2118.22 3410.56,2118.22C3406.39,2118.22 3404.13,2116.95 3402.64,2113.56C3402.5,2113.13 3402.22,2112.99 3401.87,2112.99C3401.02,2112.99 3399.82,2114.33 3399.82,2115.39C3399.82,2115.61 3399.89,2115.75 3399.96,2115.96C3402.01,2119.43 3405.12,2121.33 3410.56,2121.33C3418.48,2121.33 3425.2,2116.6 3425.2,2107.9L3425.2,2089.38C3425.2,2087.32 3425.41,2084.99 3425.48,2083.43L3425.48,2083.36C3425.48,2082.52 3423.86,2081.81 3422.8,2081.81C3422.23,2081.81 3421.81,2082.02 3421.81,2082.38C3421.81,2083.29 3421.88,2084.64 3421.88,2086.48C3420.32,2083.22 3417.28,2081.81 3413.89,2081.81C3406.11,2081.81 3399.53,2090.15 3399.53,2098.21C3399.53,2106.2 3403.56,2110.38 3409.78,2110.38C3414.1,2110.38 3418.41,2108.68 3421.95,2102.88L3421.95,2107.83ZM3421.95,2090.51C3421.95,2093.55 3421.95,2096.45 3421.59,2097.43C3420.18,2103.87 3414.17,2107.41 3409.78,2107.41C3405.61,2107.41 3402.86,2104.65 3402.86,2098.21C3402.86,2091.85 3408.02,2084.78 3413.96,2084.78C3416.15,2084.78 3418.41,2085.77 3420.11,2088.1C3420.25,2088.31 3420.46,2088.39 3420.67,2088.39C3421.17,2088.39 3421.66,2087.89 3421.95,2087.47L3421.95,2090.51Z" style="fill-rule:nonzero;"/>
        </g>
    </g>
</svg>
