<?xml version="1.0" encoding="UTF-8" standalone="no"?>
<!DOCTYPE svg PUBLIC "-//W3C//DTD SVG 1.1//EN" "http://www.w3.org/Graphics/SVG/1.1/DTD/svg11.dtd">
<svg width="100%" height="100%" viewBox="0 0 89 89" version="1.1" xmlns="http://www.w3.org/2000/svg" xmlns:xlink="http://www.w3.org/1999/xlink" xml:space="preserve" xmlns:serif="http://www.serif.com/" style="fill-rule:evenodd;clip-rule:evenodd;stroke-linejoin:round;stroke-miterlimit:2;">
    <g transform="matrix(1,0,0,1,-3593.27,-1431.51)">
        <g transform="matrix(1.41414,0,0,1.41429,-1389.33,-1046.26)">
            <path d="M3580.26,1814.32C3583.65,1814.32 3585.78,1811.78 3585.78,1808.81L3585.78,1757.48C3585.78,1754.01 3583.3,1751.96 3580.26,1751.96L3528.93,1751.96C3525.46,1751.96 3523.41,1754.29 3523.41,1757.48L3523.41,1808.81C3523.41,1811.99 3525.89,1814.32 3528.93,1814.32L3580.26,1814.32ZM3582.88,1809.09C3582.88,1810.65 3581.82,1811.42 3580.61,1811.42L3528.57,1811.42C3527.09,1811.42 3526.31,1810.36 3526.31,1809.09L3526.31,1757.12C3526.31,1755.71 3527.23,1754.86 3528.57,1754.86L3580.61,1754.86C3582.03,1754.86 3582.88,1755.92 3582.88,1757.12L3582.88,1809.09ZM3567.89,1780.17C3573.05,1776.14 3577.22,1771.33 3577.22,1769.92C3577.22,1769.28 3576.87,1768.86 3576.37,1768.86C3575.95,1768.86 3575.59,1769 3575.1,1769.5L3574.89,1769.78C3575.1,1769.42 3575.17,1769 3575.17,1768.72C3575.17,1768.51 3575.1,1768.29 3575.1,1768.15C3573.12,1765.11 3570.22,1762.57 3566.19,1762.57C3559.97,1762.57 3556.29,1767.02 3556.29,1772.04C3556.29,1775.79 3557.63,1778.19 3562.37,1780.74C3557.56,1784.27 3554.73,1788.16 3554.73,1793.32C3554.73,1799.4 3558.69,1804.07 3565.27,1804.07C3572.62,1804.07 3577.5,1799.55 3577.5,1792.55C3577.5,1787.03 3574.6,1783.42 3568.52,1780.45L3567.89,1780.17ZM3566.47,1782.72C3572.55,1785.62 3574.46,1788.66 3574.46,1792.83C3574.46,1797.71 3570.57,1801.03 3565.27,1801.03C3560.04,1801.03 3557.7,1797.07 3557.7,1793.18C3557.7,1789.08 3560.46,1785.76 3565.2,1782.15L3566.47,1782.72ZM3552.54,1765.47C3552.54,1764.48 3551.2,1763.2 3550.42,1763.06L3550.28,1763.06C3549.64,1763.06 3548.87,1763.41 3548.09,1763.49L3533.59,1764.55L3532.89,1764.55C3532.04,1764.55 3531.47,1764.48 3530.84,1764.48C3530.69,1764.48 3530.62,1764.62 3530.62,1764.83C3530.62,1765.61 3531.76,1767.73 3533.24,1767.73C3533.66,1767.73 3534.23,1767.66 3534.8,1767.59L3548.65,1766.31C3543.14,1779.25 3538.4,1793.11 3535.93,1801.17C3535.86,1801.53 3535.57,1802.02 3535.57,1802.52C3535.57,1803.01 3535.86,1803.51 3536.92,1803.65C3537.2,1803.65 3537.48,1803.72 3537.62,1803.72C3538.54,1803.72 3539.04,1803.51 3539.11,1802.87C3540.66,1795.44 3546.39,1779.61 3551.27,1768.36C3551.62,1767.66 3552.4,1766.6 3552.54,1765.68L3552.54,1765.47ZM3574.04,1770.63C3571.49,1773.45 3568.52,1776.35 3565.13,1778.76C3560.67,1776.57 3559.33,1775.01 3559.33,1772.04C3559.33,1768.72 3561.59,1765.47 3566.26,1765.47C3569.23,1765.47 3571.07,1767.23 3572.55,1769.99C3572.91,1770.56 3573.19,1770.77 3573.54,1770.77C3573.76,1770.77 3573.9,1770.7 3574.04,1770.63Z" style="fill-rule:nonzero;"/>
        </g>
    </g>
</svg>
