<?xml version="1.0" encoding="UTF-8" standalone="no"?>
<!DOCTYPE svg PUBLIC "-//W3C//DTD SVG 1.1//EN" "http://www.w3.org/Graphics/SVG/1.1/DTD/svg11.dtd">
<svg width="100%" height="100%" viewBox="0 0 89 89" version="1.1" xmlns="http://www.w3.org/2000/svg" xmlns:xlink="http://www.w3.org/1999/xlink" xml:space="preserve" xmlns:serif="http://www.serif.com/" style="fill-rule:evenodd;clip-rule:evenodd;stroke-linejoin:round;stroke-miterlimit:2;">
    <g transform="matrix(1,0,0,1,-3193.31,-831.509)">
        <g transform="matrix(1.41414,0,0,1.41429,-1389.33,-1046.26)">
            <path d="M3297.43,1390.08C3300.83,1390.08 3302.95,1387.54 3302.95,1384.57L3302.95,1333.23C3302.95,1329.77 3300.47,1327.72 3297.43,1327.72L3246.1,1327.72C3242.63,1327.72 3240.58,1330.05 3240.58,1333.23L3240.58,1384.57C3240.58,1387.75 3243.06,1390.08 3246.1,1390.08L3297.43,1390.08ZM3300.05,1384.85C3300.05,1386.4 3298.99,1387.18 3297.78,1387.18L3245.74,1387.18C3244.26,1387.18 3243.48,1386.12 3243.48,1384.85L3243.48,1332.88C3243.48,1331.46 3244.4,1330.62 3245.74,1330.62L3297.78,1330.62C3299.2,1330.62 3300.05,1331.68 3300.05,1332.88L3300.05,1384.85ZM3261.23,1356.64C3265.4,1355.36 3268.51,1351.83 3268.51,1347.02C3268.51,1341.51 3265.05,1338.25 3259.74,1338.25C3253.59,1338.25 3249.49,1343.2 3249.49,1344.48C3249.49,1345.68 3250.55,1346.88 3250.91,1346.88C3251.4,1346.88 3251.83,1346.17 3251.97,1345.96C3254.37,1342.71 3256.85,1341.22 3259.82,1341.22C3263.49,1341.22 3265.68,1343.56 3265.68,1347.38C3265.68,1352.11 3260.24,1355.65 3254.8,1356.07C3254.44,1356.14 3254.23,1356.5 3254.23,1356.92C3254.23,1357.84 3254.94,1359.18 3255.78,1359.18C3255.86,1359.18 3255.93,1359.11 3256.07,1359.11C3256.63,1358.97 3257.69,1358.76 3258.61,1358.69C3259.04,1358.62 3259.39,1358.62 3259.74,1358.62C3264.06,1358.62 3267.17,1361.87 3267.17,1366.54C3267.17,1371.77 3264.55,1376.79 3257.98,1376.79C3254.58,1376.79 3252.46,1374.81 3250.41,1371.84C3250.2,1371.63 3250.06,1371.49 3249.92,1371.49C3249.21,1371.49 3248.5,1372.97 3248.5,1374.1C3248.5,1374.6 3248.57,1374.95 3248.78,1375.23C3251.4,1378.2 3254.3,1379.83 3257.98,1379.83C3266.53,1379.83 3270.07,1373.68 3270.07,1366.46C3270.07,1360.38 3266.18,1356.64 3261.8,1356.64L3261.23,1356.64ZM3292.34,1369.72C3293.68,1369.72 3295.52,1369.86 3296.16,1369.86C3296.51,1369.86 3296.65,1369.51 3296.65,1369.08C3296.65,1368.09 3295.95,1366.46 3295.1,1366.46C3294.53,1366.46 3293.12,1366.75 3292.27,1366.82L3291.42,1366.89L3291.42,1355.08C3291.42,1353.67 3291.56,1350.91 3291.56,1349.99C3291.56,1349 3290.22,1348.36 3289.3,1348.36C3288.88,1348.36 3288.45,1348.58 3288.45,1348.93C3288.45,1350.27 3288.59,1353.95 3288.59,1355.08L3288.59,1367.03L3277.14,1367.31C3280.53,1360.53 3284.99,1351.33 3287.67,1345.04C3288.1,1344.12 3288.88,1342.78 3289.37,1341.86C3289.51,1341.72 3289.51,1341.51 3289.51,1341.29C3289.51,1340.09 3288.1,1338.39 3287.32,1338.39C3287.11,1338.39 3286.9,1338.46 3286.83,1338.75C3284.56,1345.82 3277.85,1359.68 3275.51,1364.27C3275.09,1365.05 3274.38,1365.9 3273.89,1366.89C3273.6,1367.24 3273.53,1367.67 3273.53,1368.02C3273.53,1369.36 3274.66,1370.64 3275.65,1370.64C3275.8,1370.64 3275.87,1370.57 3275.94,1370.57C3276.71,1370.35 3277.42,1370.21 3277.78,1370.21L3288.59,1369.86L3288.59,1372.97C3288.59,1373.82 3288.45,1377.07 3288.45,1377.99C3288.45,1378.98 3289.87,1379.62 3290.86,1379.62C3291.35,1379.62 3291.7,1379.4 3291.7,1379.05C3291.7,1377.71 3291.42,1375.44 3291.42,1373.11L3291.42,1369.72L3292.34,1369.72Z" style="fill-rule:nonzero;"/>
        </g>
    </g>
</svg>
