<?xml version="1.0" encoding="UTF-8" standalone="no"?>
<!DOCTYPE svg PUBLIC "-//W3C//DTD SVG 1.1//EN" "http://www.w3.org/Graphics/SVG/1.1/DTD/svg11.dtd">
<svg width="100%" height="100%" viewBox="0 0 89 89" version="1.1" xmlns="http://www.w3.org/2000/svg" xmlns:xlink="http://www.w3.org/1999/xlink" xml:space="preserve" xmlns:serif="http://www.serif.com/" style="fill-rule:evenodd;clip-rule:evenodd;stroke-linejoin:round;stroke-miterlimit:2;">
    <g transform="matrix(1,0,0,1,-3393.29,-1131.51)">
        <g transform="matrix(1.41414,0,0,1.41429,-1389.33,-1046.26)">
            <path d="M3438.85,1602.2C3442.24,1602.2 3444.36,1599.66 3444.36,1596.69L3444.36,1545.35C3444.36,1541.89 3441.89,1539.84 3438.85,1539.84L3387.51,1539.84C3384.05,1539.84 3382,1542.17 3382,1545.35L3382,1596.69C3382,1599.87 3384.47,1602.2 3387.51,1602.2L3438.85,1602.2ZM3441.46,1596.97C3441.46,1598.53 3440.4,1599.3 3439.2,1599.3L3387.16,1599.3C3385.67,1599.3 3384.9,1598.24 3384.9,1596.97L3384.9,1545C3384.9,1543.59 3385.82,1542.74 3387.16,1542.74L3439.2,1542.74C3440.61,1542.74 3441.46,1543.8 3441.46,1545L3441.46,1596.97ZM3424.99,1552.21C3423.01,1555.61 3420.89,1559.85 3418.62,1564.94C3416.29,1570.24 3415.16,1575.05 3415.16,1579.86C3415.16,1586.51 3419.76,1591.95 3426.05,1591.95C3432.76,1591.95 3436.87,1586.01 3436.87,1578.3C3436.87,1571.38 3432.84,1566.28 3426.9,1566.28C3423.5,1566.28 3420.82,1567.98 3419.12,1570.74C3422.44,1562.61 3425.48,1556.95 3428.52,1552.78C3428.73,1552.5 3429.09,1552 3429.09,1551.58C3429.09,1551.22 3428.95,1550.87 3428.17,1550.59C3427.89,1550.44 3427.39,1550.3 3426.97,1550.3C3426.47,1550.3 3425.98,1550.52 3425.69,1551.01C3425.55,1551.29 3425.13,1552.07 3424.99,1552.21ZM3408.8,1554.26C3409.15,1554.26 3409.36,1553.91 3409.36,1553.49C3409.36,1552.57 3408.65,1551.08 3407.95,1551.08L3407.81,1551.08C3407.03,1551.29 3405.61,1551.36 3404.69,1551.43L3395.5,1552.07C3394.87,1551.72 3394.09,1551.43 3393.66,1551.43C3393.24,1551.43 3392.96,1551.58 3392.96,1552.07C3392.96,1552.78 3392.89,1553.77 3392.82,1554.55L3391.61,1568.48C3391.54,1568.97 3391.4,1569.68 3391.19,1570.45L3391.19,1571.09C3391.19,1572.51 3392.39,1573.57 3393.17,1573.57C3393.31,1573.57 3393.45,1573.57 3393.59,1573.42C3396.85,1569.61 3398.97,1568.83 3401.16,1568.83C3405.61,1568.83 3408.44,1572.36 3408.44,1578.23C3408.44,1583.75 3405.9,1588.84 3399.46,1588.84C3395.86,1588.84 3393.59,1586.15 3391.83,1583.11C3391.68,1582.83 3391.54,1582.69 3391.33,1582.69C3390.69,1582.69 3389.92,1584.24 3389.92,1585.52C3389.92,1586.01 3389.99,1586.43 3390.27,1586.72C3392.53,1589.69 3395.5,1591.95 3399.46,1591.95C3407.88,1591.95 3411.27,1585.44 3411.27,1578.16C3411.27,1570.38 3406.89,1565.86 3401.65,1565.86C3398.4,1565.86 3396.14,1567.06 3394.16,1569.04L3395.43,1555.18L3405.05,1554.48L3408.8,1554.26ZM3426.05,1589.05C3421.31,1589.05 3417.99,1585.02 3417.99,1579.79C3417.99,1574.13 3421.45,1569.18 3426.83,1569.18C3431.28,1569.18 3433.97,1573.57 3433.97,1578.44C3433.97,1584.67 3430.64,1589.05 3426.05,1589.05Z" style="fill-rule:nonzero;"/>
        </g>
    </g>
</svg>
