<?xml version="1.0" encoding="UTF-8" standalone="no"?>
<!DOCTYPE svg PUBLIC "-//W3C//DTD SVG 1.1//EN" "http://www.w3.org/Graphics/SVG/1.1/DTD/svg11.dtd">
<svg width="100%" height="100%" viewBox="0 0 89 89" version="1.1" xmlns="http://www.w3.org/2000/svg" xmlns:xlink="http://www.w3.org/1999/xlink" xml:space="preserve" xmlns:serif="http://www.serif.com/" style="fill-rule:evenodd;clip-rule:evenodd;stroke-linejoin:round;stroke-miterlimit:2;">
    <g transform="matrix(1,0,0,1,-3293.3,-381.509)">
        <g transform="matrix(1.41414,0,0,1.41429,-1389.33,-1046.26)">
            <path d="M3368.14,1071.9C3371.53,1071.9 3373.65,1069.35 3373.65,1066.38L3373.65,1015.05C3373.65,1011.59 3371.18,1009.54 3368.14,1009.54L3316.81,1009.54C3313.34,1009.54 3311.29,1011.87 3311.29,1015.05L3311.29,1066.38C3311.29,1069.57 3313.76,1071.9 3316.81,1071.9L3368.14,1071.9ZM3370.76,1066.67C3370.76,1068.22 3369.69,1069 3368.49,1069L3316.45,1069C3314.97,1069 3314.19,1067.94 3314.19,1066.67L3314.19,1014.7C3314.19,1013.28 3315.11,1012.44 3316.45,1012.44L3368.49,1012.44C3369.91,1012.44 3370.76,1013.5 3370.76,1014.7L3370.76,1066.67ZM3325.57,1023.96C3325.43,1023.75 3325.15,1023.54 3324.87,1023.54C3323.31,1023.54 3320.2,1032.09 3320.2,1041.85C3320.2,1053.52 3323.52,1062.07 3330.38,1062.07C3337.59,1062.07 3341.06,1052.1 3341.06,1040.36C3341.06,1028.84 3337.73,1020.43 3331.51,1020.43C3329.11,1020.43 3327.06,1021.84 3325.57,1023.96ZM3330.17,1059.03C3324.87,1059.03 3323.1,1051.11 3323.1,1041.78C3323.1,1029.48 3327.76,1023.32 3331.37,1023.32C3336.46,1023.32 3338.23,1032.02 3338.23,1039.94C3338.23,1049.63 3335.97,1059.03 3330.17,1059.03ZM3349.19,1041.92C3350.82,1040.08 3352.94,1038.81 3355.48,1038.81C3359.94,1038.81 3362.76,1042.34 3362.76,1048.21C3362.76,1053.73 3360.22,1058.82 3353.78,1058.82C3350.18,1058.82 3347.85,1056.13 3346.15,1053.09C3346.01,1052.81 3345.8,1052.67 3345.65,1052.67C3344.95,1052.67 3344.17,1054.22 3344.17,1055.5C3344.17,1057.33 3348.84,1061.93 3353.78,1061.93C3362.2,1061.93 3365.59,1055.42 3365.59,1048.14C3365.59,1040.36 3361.21,1035.84 3355.98,1035.84C3352.72,1035.84 3350.46,1037.04 3348.48,1039.02L3349.76,1025.16L3359.37,1024.45L3363.12,1024.24C3363.47,1024.24 3363.68,1023.89 3363.68,1023.47C3363.68,1022.55 3362.91,1021.06 3362.27,1021.06L3362.13,1021.06C3361.28,1021.27 3359.94,1021.34 3359.02,1021.42L3349.83,1022.05C3349.12,1021.7 3348.41,1021.42 3347.92,1021.42C3347.49,1021.42 3347.28,1021.56 3347.28,1022.05C3347.28,1022.76 3347.21,1023.75 3347.14,1024.53L3345.94,1038.45C3345.87,1038.74 3345.44,1040.58 3345.44,1041.07C3345.44,1042.49 3346.64,1043.55 3347.42,1043.55C3347.63,1043.55 3347.78,1043.55 3347.85,1043.4L3349.19,1041.92Z" style="fill-rule:nonzero;"/>
        </g>
    </g>
</svg>
