<?xml version="1.0" encoding="UTF-8" standalone="no"?>
<!DOCTYPE svg PUBLIC "-//W3C//DTD SVG 1.1//EN" "http://www.w3.org/Graphics/SVG/1.1/DTD/svg11.dtd">
<svg width="100%" height="100%" viewBox="0 0 89 89" version="1.1" xmlns="http://www.w3.org/2000/svg" xmlns:xlink="http://www.w3.org/1999/xlink" xml:space="preserve" xmlns:serif="http://www.serif.com/" style="fill-rule:evenodd;clip-rule:evenodd;stroke-linejoin:round;stroke-miterlimit:2;">
    <g transform="matrix(1,0,0,1,-2793.35,-1731.51)">
        <g transform="matrix(1.41414,0,0,1.41429,-1389.33,-1046.26)">
            <path d="M3014.6,2026.44C3018,2026.44 3020.12,2023.9 3020.12,2020.93L3020.12,1969.6C3020.12,1966.13 3017.64,1964.08 3014.6,1964.08L2963.27,1964.08C2959.8,1964.08 2957.76,1966.41 2957.76,1969.6L2957.76,2020.93C2957.76,2024.11 2960.23,2026.44 2963.27,2026.44L3014.6,2026.44ZM3017.22,2021.21C3017.22,2022.77 3016.16,2023.55 3014.96,2023.55L2962.92,2023.55C2961.43,2023.55 2960.65,2022.49 2960.65,2021.21L2960.65,1969.24C2960.65,1967.83 2961.57,1966.98 2962.92,1966.98L3014.96,1966.98C3016.37,1966.98 3017.22,1968.04 3017.22,1969.24L3017.22,2021.21ZM2996.29,1978.08C2996.08,1977.66 2995.65,1977.66 2995.51,1977.66C2994.1,1977.66 2990.78,1985.72 2990.78,1995.97C2990.78,2007.64 2994.17,2016.19 3001.17,2016.19C3008.52,2016.19 3012.13,2006.22 3012.13,1994.49C3012.13,1982.96 3008.66,1974.55 3002.37,1974.55C2999.9,1974.55 2997.78,1975.96 2996.29,1978.08ZM2980.59,2015.91C2981.8,2015.84 2982.57,2015.49 2982.57,2014.71C2983.21,2007.35 2985.9,1991.16 2988.02,1980.49L2988.65,1978.36L2988.65,1978.15C2988.65,1977.3 2987.66,1976.24 2986.6,1976.24C2985.54,1976.24 2985.83,1978.01 2985.47,1979.57C2984.76,1977.94 2982.5,1974.62 2977.69,1974.62C2970.91,1974.62 2965.82,1982.25 2965.82,1989.96C2965.82,1996.47 2968.93,2000.21 2973.52,2000.21C2977.13,2000.21 2980.88,1997.6 2982.93,1993.57C2982.15,1998.73 2981.09,2004.74 2980.45,2009.19C2980.38,2009.48 2979.39,2014.14 2979.39,2014.99C2979.39,2015.56 2979.6,2015.91 2980.45,2015.91L2980.59,2015.91ZM3000.96,2013.15C2995.58,2013.15 2993.74,2005.23 2993.74,1995.9C2993.74,1983.6 2998.48,1977.44 3002.16,1977.44C3007.32,1977.44 3009.16,1986.14 3009.16,1994.06C3009.16,2003.75 3006.9,2013.15 3000.96,2013.15ZM2984.48,1984.87C2983,1990.17 2979.32,1997.1 2973.45,1997.1C2970.27,1997.1 2968.64,1994.63 2968.64,1989.75C2968.64,1984.52 2972.04,1977.59 2977.98,1977.59C2981.44,1977.59 2982.93,1980.34 2983.56,1981.9C2983.78,1982.39 2983.99,1982.61 2984.27,1982.61C2984.55,1982.61 2984.76,1982.39 2985.05,1982.11C2984.84,1983.03 2984.62,1983.95 2984.48,1984.87Z" style="fill-rule:nonzero;"/>
        </g>
    </g>
</svg>
