<?xml version="1.0" encoding="UTF-8" standalone="no"?>
<!DOCTYPE svg PUBLIC "-//W3C//DTD SVG 1.1//EN" "http://www.w3.org/Graphics/SVG/1.1/DTD/svg11.dtd">
<svg width="100%" height="100%" viewBox="0 0 89 89" version="1.1" xmlns="http://www.w3.org/2000/svg" xmlns:xlink="http://www.w3.org/1999/xlink" xml:space="preserve" xmlns:serif="http://www.serif.com/" style="fill-rule:evenodd;clip-rule:evenodd;stroke-linejoin:round;stroke-miterlimit:2;">
    <g transform="matrix(1,0,0,1,-3493.28,-531.509)">
        <g transform="matrix(1.41414,0,0,1.41429,-1389.33,-1046.26)">
            <path d="M3509.55,1177.96C3512.95,1177.96 3515.07,1175.41 3515.07,1172.44L3515.07,1121.11C3515.07,1117.65 3512.59,1115.6 3509.55,1115.6L3458.22,1115.6C3454.76,1115.6 3452.7,1117.93 3452.7,1121.11L3452.7,1172.44C3452.7,1175.63 3455.18,1177.96 3458.22,1177.96L3509.55,1177.96ZM3512.17,1172.73C3512.17,1174.28 3511.11,1175.06 3509.91,1175.06L3457.87,1175.06C3456.38,1175.06 3455.6,1174 3455.6,1172.73L3455.6,1120.76C3455.6,1119.34 3456.52,1118.5 3457.87,1118.5L3509.91,1118.5C3511.32,1118.5 3512.17,1119.56 3512.17,1120.76L3512.17,1172.73ZM3504.46,1129.1C3504.46,1128.11 3503.19,1126.84 3502.41,1126.7L3502.27,1126.7C3501.63,1126.7 3500.93,1127.05 3500.15,1127.12L3484.52,1128.39L3483.82,1128.39C3482.97,1128.39 3482.47,1128.32 3481.91,1128.32C3481.69,1128.32 3481.62,1128.46 3481.62,1128.68C3481.62,1129.24 3482.33,1131.58 3484.17,1131.58C3484.59,1131.58 3485.09,1131.43 3485.58,1131.43L3500.71,1129.95C3492.37,1148.05 3486.86,1165.52 3486.86,1166.15C3486.86,1166.65 3487.14,1167.14 3488.2,1167.28C3488.41,1167.28 3488.69,1167.35 3488.91,1167.35C3489.68,1167.35 3490.18,1167.14 3490.25,1166.51C3490.82,1164.6 3491.17,1162.83 3491.52,1161.63C3494.56,1152.08 3499.02,1140.91 3503.19,1132C3503.54,1131.29 3504.32,1130.23 3504.46,1129.31L3504.46,1129.1ZM3473.7,1166.93C3473.7,1165.44 3473.63,1162.12 3473.63,1160.57L3473.63,1132.07C3473.63,1130.44 3473.92,1129.45 3473.92,1128.54C3473.92,1127.48 3472.78,1126.41 3472.01,1126.41C3471.23,1126.41 3470.17,1128.04 3469.82,1128.39C3468.19,1129.74 3465.78,1131.22 3463.24,1132.35C3462.82,1132.5 3462.67,1132.71 3462.67,1132.92C3462.67,1133.56 3463.88,1134.19 3464.72,1134.19C3464.94,1134.19 3465.15,1134.19 3465.22,1134.12C3467.06,1133.56 3469.18,1132.64 3470.59,1131.65L3470.59,1160.92C3470.59,1162.12 3470.45,1165.02 3470.45,1165.94C3470.45,1166.86 3471.87,1167.5 3472.93,1167.5C3473.35,1167.5 3473.7,1167.35 3473.7,1167L3473.7,1166.93Z" style="fill-rule:nonzero;"/>
        </g>
    </g>
</svg>
