<?xml version="1.0" encoding="UTF-8" standalone="no"?>
<!DOCTYPE svg PUBLIC "-//W3C//DTD SVG 1.1//EN" "http://www.w3.org/Graphics/SVG/1.1/DTD/svg11.dtd">
<svg width="100%" height="100%" viewBox="0 0 89 89" version="1.1" xmlns="http://www.w3.org/2000/svg" xmlns:xlink="http://www.w3.org/1999/xlink" xml:space="preserve" xmlns:serif="http://www.serif.com/" style="fill-rule:evenodd;clip-rule:evenodd;stroke-linejoin:round;stroke-miterlimit:2;">
    <g transform="matrix(1,0,0,1,-3093.32,-1881.51)">
        <g transform="matrix(1.41414,0,0,1.41429,-1389.33,-1046.26)">
            <path d="M3226.72,2132.51C3230.12,2132.51 3232.24,2129.96 3232.24,2126.99L3232.24,2075.66C3232.24,2072.19 3229.76,2070.14 3226.72,2070.14L3175.39,2070.14C3171.93,2070.14 3169.88,2072.48 3169.88,2075.66L3169.88,2126.99C3169.88,2130.17 3172.35,2132.51 3175.39,2132.51L3226.72,2132.51ZM3229.34,2127.27C3229.34,2128.83 3228.28,2129.61 3227.08,2129.61L3175.04,2129.61C3173.55,2129.61 3172.78,2128.55 3172.78,2127.27L3172.78,2075.3C3172.78,2073.89 3173.69,2073.04 3175.04,2073.04L3227.08,2073.04C3228.49,2073.04 3229.34,2074.1 3229.34,2075.3L3229.34,2127.27ZM3209.12,2114.19C3209.12,2117.16 3210.04,2119.71 3210.96,2121.48C3211.31,2122.18 3211.73,2122.54 3212.23,2122.54C3213.29,2122.54 3214.35,2120.98 3214.35,2120.06C3214.35,2119.85 3214.28,2119.71 3214.21,2119.57C3212.87,2117.94 3212.16,2114.26 3212.16,2110.73L3212.16,2086.26C3212.16,2084.21 3212.3,2081.88 3212.3,2080.96C3212.3,2079.97 3210.74,2079.26 3209.68,2079.26C3209.12,2079.26 3208.76,2079.48 3208.76,2079.83C3208.76,2081.24 3208.91,2083.79 3208.91,2086.26L3208.91,2096.73C3207.35,2093.9 3204.66,2092.77 3201.55,2092.77C3194.13,2092.77 3186.7,2101.32 3186.7,2110.66C3186.7,2118.51 3190.66,2122.82 3196.46,2122.82C3201.2,2122.82 3205.51,2120.13 3209.12,2113.91L3209.12,2114.19ZM3208.91,2105.28C3208.91,2112.99 3201.98,2119.85 3196.46,2119.85C3193,2119.85 3190.17,2116.88 3190.17,2110.52C3190.17,2103.45 3195.12,2095.67 3201.62,2095.67C3203.82,2095.67 3205.94,2096.59 3207.49,2098.99C3207.63,2099.2 3207.78,2099.27 3208.06,2099.27C3208.34,2099.27 3208.76,2099.06 3208.91,2098.78L3208.91,2105.28Z" style="fill-rule:nonzero;"/>
        </g>
    </g>
</svg>
