<?xml version="1.0" encoding="UTF-8" standalone="no"?>
<!DOCTYPE svg PUBLIC "-//W3C//DTD SVG 1.1//EN" "http://www.w3.org/Graphics/SVG/1.1/DTD/svg11.dtd">
<svg width="100%" height="100%" viewBox="0 0 89 89" version="1.1" xmlns="http://www.w3.org/2000/svg" xmlns:xlink="http://www.w3.org/1999/xlink" xml:space="preserve" xmlns:serif="http://www.serif.com/" style="fill-rule:evenodd;clip-rule:evenodd;stroke-linejoin:round;stroke-miterlimit:2;">
    <g transform="matrix(1,0,0,1,-3493.28,-1431.51)">
        <g transform="matrix(1.41414,0,0,1.41429,-1389.33,-1046.26)">
            <path d="M3509.55,1814.32C3512.95,1814.32 3515.07,1811.78 3515.07,1808.81L3515.07,1757.48C3515.07,1754.01 3512.59,1751.96 3509.55,1751.96L3458.22,1751.96C3454.76,1751.96 3452.7,1754.29 3452.7,1757.48L3452.7,1808.81C3452.7,1811.99 3455.18,1814.32 3458.22,1814.32L3509.55,1814.32ZM3512.17,1809.09C3512.17,1810.65 3511.11,1811.42 3509.91,1811.42L3457.87,1811.42C3456.38,1811.42 3455.6,1810.36 3455.6,1809.09L3455.6,1757.12C3455.6,1755.71 3456.52,1754.86 3457.87,1754.86L3509.91,1754.86C3511.32,1754.86 3512.17,1755.92 3512.17,1757.12L3512.17,1809.09ZM3482.54,1765.47C3482.54,1764.48 3481.2,1763.2 3480.42,1763.06L3480.28,1763.06C3479.57,1763.06 3478.87,1763.41 3478.02,1763.49L3463.59,1764.55L3462.89,1764.55C3461.97,1764.55 3461.47,1764.48 3460.84,1764.48C3460.62,1764.48 3460.55,1764.62 3460.55,1764.83C3460.55,1765.11 3461.26,1767.73 3463.24,1767.73C3463.66,1767.73 3464.23,1767.66 3464.72,1767.59L3478.65,1766.31C3473.14,1779.25 3468.4,1793.11 3465.93,1801.17C3465.86,1801.53 3465.57,1802.02 3465.57,1802.52C3465.57,1803.01 3465.86,1803.51 3466.92,1803.65C3467.2,1803.65 3467.41,1803.72 3467.62,1803.72C3468.54,1803.72 3468.97,1803.51 3469.11,1802.87C3471.23,1792.62 3479.5,1772.39 3481.27,1768.36C3481.62,1767.66 3482.4,1766.6 3482.54,1765.68L3482.54,1765.47ZM3507.57,1765.47C3507.57,1764.48 3506.23,1763.2 3505.38,1763.06L3505.24,1763.06C3504.6,1763.06 3503.83,1763.41 3503.05,1763.49L3488.62,1764.55L3487.85,1764.55C3487,1764.55 3486.43,1764.48 3485.87,1764.48C3485.65,1764.48 3485.58,1764.62 3485.58,1764.83C3485.58,1765.61 3486.71,1767.73 3488.2,1767.73C3488.69,1767.73 3489.19,1767.66 3489.76,1767.59L3503.61,1766.31C3499.37,1776.5 3495.27,1787.45 3492.23,1797C3491.88,1797.99 3491.45,1799.55 3490.89,1801.17C3490.82,1801.53 3490.53,1802.02 3490.53,1802.52C3490.53,1803.01 3490.82,1803.51 3491.88,1803.65C3492.16,1803.65 3492.44,1803.72 3492.65,1803.72C3493.5,1803.72 3494,1803.51 3494.14,1802.87C3495.13,1797.21 3500.78,1780.81 3506.23,1768.36C3506.58,1767.66 3507.43,1766.6 3507.57,1765.68L3507.57,1765.47Z" style="fill-rule:nonzero;"/>
        </g>
    </g>
</svg>
