<?xml version="1.0" encoding="UTF-8" standalone="no"?>
<!DOCTYPE svg PUBLIC "-//W3C//DTD SVG 1.1//EN" "http://www.w3.org/Graphics/SVG/1.1/DTD/svg11.dtd">
<svg width="100%" height="100%" viewBox="0 0 89 89" version="1.1" xmlns="http://www.w3.org/2000/svg" xmlns:xlink="http://www.w3.org/1999/xlink" xml:space="preserve" xmlns:serif="http://www.serif.com/" style="fill-rule:evenodd;clip-rule:evenodd;stroke-linejoin:round;stroke-miterlimit:2;">
    <g transform="matrix(1,0,0,1,-3293.3,-1431.51)">
        <g transform="matrix(1.41414,0,0,1.41429,-1389.33,-1046.26)">
            <path d="M3368.14,1814.32C3371.53,1814.32 3373.65,1811.78 3373.65,1808.81L3373.65,1757.48C3373.65,1754.01 3371.18,1751.96 3368.14,1751.96L3316.81,1751.96C3313.34,1751.96 3311.29,1754.29 3311.29,1757.48L3311.29,1808.81C3311.29,1811.99 3313.76,1814.32 3316.81,1814.32L3368.14,1814.32ZM3370.76,1809.09C3370.76,1810.65 3369.69,1811.42 3368.49,1811.42L3316.45,1811.42C3314.97,1811.42 3314.19,1810.36 3314.19,1809.09L3314.19,1757.12C3314.19,1755.71 3315.11,1754.86 3316.45,1754.86L3368.49,1754.86C3369.91,1754.86 3370.76,1755.92 3370.76,1757.12L3370.76,1809.09ZM3363.76,1766.38C3364.18,1766.38 3364.32,1766.03 3364.32,1765.61C3364.32,1764.69 3363.61,1763.2 3362.91,1763.2L3362.76,1763.2C3361.85,1763.41 3360.43,1763.49 3359.44,1763.56L3349.76,1764.19C3349.12,1763.84 3348.34,1763.56 3347.85,1763.56C3347.35,1763.56 3347.14,1763.7 3347.14,1764.19C3347.14,1764.9 3347.07,1765.89 3347,1766.67L3345.72,1780.6L3345.3,1782.58C3345.23,1782.79 3345.23,1783 3345.23,1783.21C3345.23,1784.63 3346.5,1785.69 3347.28,1785.69C3347.92,1785.69 3349.12,1784.06 3349.12,1784.06C3350.89,1782.22 3353.08,1780.95 3355.76,1780.95C3360.43,1780.95 3363.4,1784.49 3363.4,1790.35C3363.4,1795.87 3360.71,1800.96 3354,1800.96C3350.18,1800.96 3347.78,1798.27 3345.94,1795.23C3345.8,1794.95 3345.58,1794.81 3345.37,1794.81C3344.66,1794.81 3343.89,1796.36 3343.89,1797.64C3343.89,1799.55 3348.69,1804.07 3354,1804.07C3362.84,1804.07 3366.37,1797.57 3366.37,1790.28C3366.37,1782.51 3361.78,1777.98 3356.26,1777.98C3352.87,1777.98 3350.46,1779.18 3348.41,1781.16L3349.76,1767.3L3359.87,1766.6L3363.76,1766.38ZM3340.85,1765.47C3340.85,1764.48 3339.5,1763.2 3338.65,1763.06L3338.58,1763.06C3337.88,1763.06 3337.17,1763.41 3336.32,1763.49L3321.9,1764.55L3321.12,1764.55C3320.27,1764.55 3319.78,1764.48 3319.14,1764.48C3318.93,1764.48 3318.86,1764.62 3318.86,1764.83C3318.86,1765.32 3319.35,1766.38 3320.06,1767.16C3320.55,1767.59 3321.05,1767.73 3321.47,1767.73C3321.97,1767.73 3322.53,1767.66 3323.03,1767.59L3336.96,1766.31C3332.64,1776.5 3328.54,1787.45 3325.5,1797C3325.22,1797.99 3324.72,1799.55 3324.16,1801.17C3324.09,1801.53 3323.81,1802.02 3323.81,1802.52C3323.81,1803.01 3324.09,1803.51 3325.15,1803.65C3325.43,1803.65 3325.71,1803.72 3325.93,1803.72C3326.78,1803.72 3327.27,1803.51 3327.41,1802.87C3329.11,1794.74 3334.76,1779.18 3339.57,1768.36C3339.86,1767.66 3340.7,1766.6 3340.85,1765.68L3340.85,1765.47Z" style="fill-rule:nonzero;"/>
        </g>
    </g>
</svg>
