<?xml version="1.0" encoding="UTF-8" standalone="no"?>
<!DOCTYPE svg PUBLIC "-//W3C//DTD SVG 1.1//EN" "http://www.w3.org/Graphics/SVG/1.1/DTD/svg11.dtd">
<svg width="100%" height="100%" viewBox="0 0 89 89" version="1.1" xmlns="http://www.w3.org/2000/svg" xmlns:xlink="http://www.w3.org/1999/xlink" xml:space="preserve" xmlns:serif="http://www.serif.com/" style="fill-rule:evenodd;clip-rule:evenodd;stroke-linejoin:round;stroke-miterlimit:2;">
    <g transform="matrix(1,0,0,1,-3793.25,-1881.51)">
        <g transform="matrix(1.41414,0,0,1.41429,-1389.33,-1046.26)">
            <path d="M3721.67,2132.51C3725.07,2132.51 3727.19,2129.96 3727.19,2126.99L3727.19,2075.66C3727.19,2072.19 3724.71,2070.14 3721.67,2070.14L3670.34,2070.14C3666.88,2070.14 3664.83,2072.48 3664.83,2075.66L3664.83,2126.99C3664.83,2130.17 3667.3,2132.51 3670.34,2132.51L3721.67,2132.51ZM3724.29,2127.27C3724.29,2128.83 3723.23,2129.61 3722.03,2129.61L3669.99,2129.61C3668.5,2129.61 3667.72,2128.55 3667.72,2127.27L3667.72,2075.3C3667.72,2073.89 3668.64,2073.04 3669.99,2073.04L3722.03,2073.04C3723.44,2073.04 3724.29,2074.1 3724.29,2075.3L3724.29,2127.27ZM3686.18,2115.61C3686.18,2116.45 3686.04,2119.92 3686.04,2120.84C3686.04,2121.83 3687.59,2122.54 3688.65,2122.54C3689.22,2122.54 3689.57,2122.32 3689.57,2121.97C3689.57,2120.56 3689.43,2116.31 3689.43,2115.61L3689.43,2107.48L3691.48,2106.06C3695.09,2109.39 3701.52,2116.45 3704.78,2119.85C3705.62,2120.77 3706.9,2121.76 3707.89,2122.54C3708.03,2122.68 3708.24,2122.68 3708.45,2122.68C3709.51,2122.68 3711.14,2121.48 3711.14,2120.77C3711.14,2120.56 3711,2120.41 3710.78,2120.27C3709.51,2119.71 3708.24,2118.86 3707.32,2117.94C3703.43,2114.05 3697.49,2107.69 3694.1,2104.29L3703.36,2097.72C3704.35,2097.01 3705.98,2096.02 3707.67,2094.82C3707.89,2094.68 3707.96,2094.54 3707.96,2094.39C3707.96,2093.76 3706.19,2092.91 3704.92,2092.91C3704.49,2092.91 3704.07,2093.05 3703.86,2093.26C3703.43,2093.76 3702.23,2094.82 3701.24,2095.6L3689.43,2103.87L3689.43,2086.48C3689.43,2085.06 3689.5,2082.09 3689.5,2081.17C3689.5,2080.18 3687.95,2079.48 3686.89,2079.48C3686.32,2079.48 3685.97,2079.69 3685.97,2080.04C3685.97,2081.45 3686.18,2085.34 3686.18,2086.48L3686.18,2115.61Z" style="fill-rule:nonzero;"/>
        </g>
    </g>
</svg>
