<?xml version="1.0" encoding="UTF-8" standalone="no"?>
<!DOCTYPE svg PUBLIC "-//W3C//DTD SVG 1.1//EN" "http://www.w3.org/Graphics/SVG/1.1/DTD/svg11.dtd">
<svg width="100%" height="100%" viewBox="0 0 89 89" version="1.1" xmlns="http://www.w3.org/2000/svg" xmlns:xlink="http://www.w3.org/1999/xlink" xml:space="preserve" xmlns:serif="http://www.serif.com/" style="fill-rule:evenodd;clip-rule:evenodd;stroke-linejoin:round;stroke-miterlimit:2;">
    <g transform="matrix(1,0,0,1,-3293.3,-2031.51)">
        <g transform="matrix(1.41414,0,0,1.41429,-1389.33,-1046.26)">
            <path d="M3368.14,2238.57C3371.53,2238.57 3373.65,2236.02 3373.65,2233.05L3373.65,2181.72C3373.65,2178.25 3371.18,2176.2 3368.14,2176.2L3316.81,2176.2C3313.34,2176.2 3311.29,2178.54 3311.29,2181.72L3311.29,2233.05C3311.29,2236.23 3313.76,2238.57 3316.81,2238.57L3368.14,2238.57ZM3370.76,2233.33C3370.76,2234.89 3369.69,2235.67 3368.49,2235.67L3316.45,2235.67C3314.97,2235.67 3314.19,2234.61 3314.19,2233.33L3314.19,2181.36C3314.19,2179.95 3315.11,2179.1 3316.45,2179.1L3368.49,2179.1C3369.91,2179.1 3370.76,2180.16 3370.76,2181.36L3370.76,2233.33ZM3350.53,2221.17C3350.53,2223.29 3350.46,2225.56 3350.46,2226.48C3350.46,2227.47 3352.02,2228.17 3353.08,2228.17C3353.64,2228.17 3354,2227.96 3354,2227.61C3354,2226.19 3353.78,2223.65 3353.78,2221.24L3353.78,2195.51C3353.78,2193.39 3353.93,2191.12 3353.93,2190.13C3353.93,2189.21 3352.37,2188.51 3351.38,2188.51C3350.82,2188.51 3350.46,2188.72 3350.46,2189.07C3350.46,2189.85 3350.46,2191.05 3350.53,2192.39C3348.91,2189.64 3346.22,2188.51 3343.11,2188.51C3335.47,2188.51 3328.33,2197.06 3328.33,2206.47C3328.33,2214.03 3332.29,2218.56 3338.09,2218.56C3342.9,2218.56 3347.42,2216.01 3350.53,2210.07L3350.53,2221.17ZM3350.53,2201.16C3350.53,2208.59 3343.74,2215.59 3338.09,2215.59C3334.55,2215.59 3331.8,2212.48 3331.8,2206.25C3331.8,2199.04 3336.53,2191.41 3343.18,2191.41C3345.37,2191.41 3347.63,2192.32 3349.19,2194.73C3349.33,2194.94 3349.47,2195.01 3349.68,2195.01C3350.04,2195.01 3350.39,2194.8 3350.53,2194.52L3350.53,2201.16Z" style="fill-rule:nonzero;"/>
        </g>
    </g>
</svg>
