<?xml version="1.0" encoding="UTF-8" standalone="no"?>
<!DOCTYPE svg PUBLIC "-//W3C//DTD SVG 1.1//EN" "http://www.w3.org/Graphics/SVG/1.1/DTD/svg11.dtd">
<svg width="100%" height="100%" viewBox="0 0 89 89" version="1.1" xmlns="http://www.w3.org/2000/svg" xmlns:xlink="http://www.w3.org/1999/xlink" xml:space="preserve" xmlns:serif="http://www.serif.com/" style="fill-rule:evenodd;clip-rule:evenodd;stroke-linejoin:round;stroke-miterlimit:2;">
    <g transform="matrix(1,0,0,1,-3693.26,-681.509)">
        <g transform="matrix(1.41414,0,0,1.41429,-1389.33,-1046.26)">
            <path d="M3650.97,1284.02C3654.36,1284.02 3656.48,1281.48 3656.48,1278.51L3656.48,1227.17C3656.48,1223.71 3654.01,1221.66 3650.97,1221.66L3599.63,1221.66C3596.17,1221.66 3594.12,1223.99 3594.12,1227.17L3594.12,1278.51C3594.12,1281.69 3596.59,1284.02 3599.63,1284.02L3650.97,1284.02ZM3653.58,1278.79C3653.58,1280.34 3652.52,1281.12 3651.32,1281.12L3599.28,1281.12C3597.8,1281.12 3597.02,1280.06 3597.02,1278.79L3597.02,1226.82C3597.02,1225.4 3597.94,1224.56 3599.28,1224.56L3651.32,1224.56C3652.73,1224.56 3653.58,1225.62 3653.58,1226.82L3653.58,1278.79ZM3640.5,1273.49C3641.78,1273.41 3642.55,1273.06 3642.62,1272.28C3643.12,1265.92 3646.09,1248.95 3648.35,1238.06C3648.42,1237.71 3648.85,1236.72 3648.99,1235.94L3648.99,1235.73C3648.99,1234.88 3648,1233.82 3646.87,1233.82C3645.73,1233.82 3646.02,1235.59 3645.66,1237.14C3644.96,1235.52 3642.48,1232.19 3637.46,1232.19C3630.32,1232.19 3624.88,1239.83 3624.88,1247.54C3624.88,1254.04 3628.2,1257.79 3633.08,1257.79C3636.83,1257.79 3640.78,1255.17 3643.05,1251.14C3642.13,1256.3 3641.07,1262.31 3640.36,1266.77L3639.51,1271.15C3639.44,1271.65 3639.23,1272.14 3639.23,1272.57C3639.23,1273.13 3639.51,1273.49 3640.43,1273.49L3640.5,1273.49ZM3645.17,1239.69C3644.11,1246.76 3639.51,1254.68 3633.01,1254.68C3629.61,1254.68 3627.92,1252.2 3627.92,1247.32C3627.92,1242.09 3631.45,1235.16 3637.74,1235.16C3641.42,1235.16 3642.98,1237.92 3643.68,1239.48C3643.9,1239.97 3644.11,1240.18 3644.39,1240.18C3644.67,1240.18 3644.96,1239.97 3645.17,1239.69ZM3603.17,1273.06C3605.64,1272.35 3609.11,1272.35 3610.81,1272.35C3616.67,1272.35 3620.42,1272.64 3621.48,1272.78C3621.84,1272.78 3622.05,1272.5 3622.05,1272C3622.05,1271.01 3621.27,1269.45 3620.49,1269.45C3619.86,1269.45 3618.23,1269.53 3617.38,1269.53C3615.33,1269.53 3613.7,1269.45 3611.3,1269.45C3609.39,1269.45 3606.56,1269.6 3604.72,1269.81C3606.49,1265.99 3609.46,1260.26 3613.78,1255.74C3618.37,1250.93 3621.62,1246.9 3621.62,1241.67C3621.62,1236.15 3618.23,1232.19 3612.78,1232.19C3607.76,1232.19 3604.3,1235.09 3602.32,1239.26C3602.11,1239.55 3602.04,1239.9 3602.04,1240.25C3602.04,1240.89 3602.39,1241.53 3603.17,1242.23C3603.38,1242.52 3603.59,1242.59 3603.88,1242.59C3604.37,1242.59 3604.72,1242.02 3605.01,1241.24C3606.07,1237.85 3608.76,1235.16 3612.64,1235.16C3616.39,1235.16 3618.58,1238.13 3618.58,1241.67C3618.58,1245.41 3616.04,1248.95 3611.94,1253.33C3607.84,1257.79 3604.37,1263.94 3602.46,1268.04C3602.18,1268.61 3601.83,1269.1 3601.4,1269.74C3601.26,1269.95 3601.26,1270.23 3601.26,1270.59C3601.26,1271.72 3602.04,1273.06 3602.96,1273.06L3603.17,1273.06Z" style="fill-rule:nonzero;"/>
        </g>
    </g>
</svg>
