<?xml version="1.0" encoding="UTF-8" standalone="no"?>
<!DOCTYPE svg PUBLIC "-//W3C//DTD SVG 1.1//EN" "http://www.w3.org/Graphics/SVG/1.1/DTD/svg11.dtd">
<svg width="100%" height="100%" viewBox="0 0 89 89" version="1.1" xmlns="http://www.w3.org/2000/svg" xmlns:xlink="http://www.w3.org/1999/xlink" xml:space="preserve" xmlns:serif="http://www.serif.com/" style="fill-rule:evenodd;clip-rule:evenodd;stroke-linejoin:round;stroke-miterlimit:2;">
    <g transform="matrix(1,0,0,1,-3293.3,-1281.51)">
        <g transform="matrix(1.41414,0,0,1.41429,-1389.33,-1046.26)">
            <path d="M3368.14,1708.26C3371.53,1708.26 3373.65,1705.72 3373.65,1702.75L3373.65,1651.41C3373.65,1647.95 3371.18,1645.9 3368.14,1645.9L3316.81,1645.9C3313.34,1645.9 3311.29,1648.23 3311.29,1651.41L3311.29,1702.75C3311.29,1705.93 3313.76,1708.26 3316.81,1708.26L3368.14,1708.26ZM3370.76,1703.03C3370.76,1704.59 3369.69,1705.36 3368.49,1705.36L3316.45,1705.36C3314.97,1705.36 3314.19,1704.3 3314.19,1703.03L3314.19,1651.06C3314.19,1649.65 3315.11,1648.8 3316.45,1648.8L3368.49,1648.8C3369.91,1648.8 3370.76,1649.86 3370.76,1651.06L3370.76,1703.03ZM3330.59,1657.07C3329.96,1657.92 3326.35,1664.64 3323.52,1671C3321.19,1676.3 3319.99,1681.11 3319.99,1685.92C3319.99,1692.57 3324.65,1698.01 3330.88,1698.01C3337.66,1698.01 3341.76,1692.07 3341.76,1684.36C3341.76,1677.43 3337.73,1672.34 3331.72,1672.34C3328.4,1672.34 3325.71,1674.04 3324.02,1676.8C3326.35,1671 3328.76,1665.2 3333.42,1658.84C3333.63,1658.56 3333.99,1658.06 3333.99,1657.64C3333.99,1657.14 3333.07,1656.36 3331.87,1656.36C3331.3,1656.36 3330.81,1656.58 3330.59,1657.07ZM3363.19,1660.32C3363.54,1660.32 3363.68,1659.97 3363.68,1659.55C3363.68,1658.63 3362.98,1657.14 3362.34,1657.14L3362.2,1657.14C3361.35,1657.35 3359.94,1657.42 3359.09,1657.5L3349.9,1658.13C3349.19,1657.78 3348.48,1657.5 3347.99,1657.5C3347.56,1657.5 3347.35,1657.64 3347.35,1658.13C3347.35,1658.84 3347.28,1659.83 3347.21,1660.61L3346.01,1674.54C3345.94,1674.82 3345.51,1676.66 3345.51,1677.15C3345.51,1678.57 3346.71,1679.63 3347.49,1679.63C3347.99,1679.63 3349.19,1678.14 3349.26,1678C3350.89,1676.16 3353.01,1674.89 3355.55,1674.89C3359.94,1674.89 3362.84,1678.42 3362.84,1684.29C3362.84,1689.81 3360.29,1694.9 3353.86,1694.9C3350.25,1694.9 3347.92,1692.21 3346.15,1689.17C3346.08,1688.89 3345.87,1688.75 3345.72,1688.75C3345.02,1688.75 3344.24,1690.3 3344.24,1691.58C3344.24,1693.41 3348.91,1698.01 3353.86,1698.01C3362.27,1698.01 3365.66,1691.51 3365.66,1684.22C3365.66,1676.44 3361.21,1671.92 3356.05,1671.92C3352.8,1671.92 3350.53,1673.12 3348.55,1675.1L3349.83,1661.24L3359.44,1660.54L3363.19,1660.32ZM3330.88,1695.11C3326.14,1695.11 3322.82,1691.08 3322.82,1685.85C3322.82,1680.19 3326.28,1675.24 3331.65,1675.24C3336.11,1675.24 3338.87,1679.63 3338.87,1684.51C3338.87,1690.73 3335.47,1695.11 3330.88,1695.11Z" style="fill-rule:nonzero;"/>
        </g>
    </g>
</svg>
