<?xml version="1.0" encoding="UTF-8" standalone="no"?>
<!DOCTYPE svg PUBLIC "-//W3C//DTD SVG 1.1//EN" "http://www.w3.org/Graphics/SVG/1.1/DTD/svg11.dtd">
<svg width="100%" height="100%" viewBox="0 0 89 89" version="1.1" xmlns="http://www.w3.org/2000/svg" xmlns:xlink="http://www.w3.org/1999/xlink" xml:space="preserve" xmlns:serif="http://www.serif.com/" style="fill-rule:evenodd;clip-rule:evenodd;stroke-linejoin:round;stroke-miterlimit:2;">
    <g transform="matrix(1,0,0,1,-3593.27,-231.509)">
        <g transform="matrix(1.41414,0,0,1.41429,-1389.33,-1046.26)">
            <path d="M3580.26,965.839C3583.65,965.839 3585.78,963.294 3585.78,960.324L3585.78,908.991C3585.78,905.526 3583.3,903.476 3580.26,903.476L3528.93,903.476C3525.46,903.476 3523.41,905.809 3523.41,908.991L3523.41,960.324C3523.41,963.506 3525.89,965.839 3528.93,965.839L3580.26,965.839ZM3582.88,960.607C3582.88,962.162 3581.82,962.94 3580.61,962.94L3528.57,962.94C3527.09,962.94 3526.31,961.88 3526.31,960.607L3526.31,908.637C3526.31,907.223 3527.23,906.375 3528.57,906.375L3580.61,906.375C3582.03,906.375 3582.88,907.435 3582.88,908.637L3582.88,960.607ZM3556.22,931.476C3559.68,929.425 3569.3,923.486 3569.3,921.435C3569.3,920.799 3568.81,920.375 3568.17,920.375C3567.82,920.375 3567.46,920.516 3567.04,920.869C3567.04,920.869 3566.76,921.152 3566.54,921.223C3566.76,920.94 3566.83,920.587 3566.83,920.304C3566.83,918.536 3561.88,914.011 3554.45,914.011C3546.6,914.011 3542.22,917.97 3542.22,923.203C3542.22,928.011 3545.4,930.344 3549.5,932.112C3543.78,935.435 3540.1,939.607 3540.1,944.768C3540.1,951.203 3545.4,955.587 3554.03,955.587C3564,955.587 3569.94,951.415 3569.94,944.061C3569.94,936.284 3562.8,933.667 3556.22,931.476ZM3552.83,933.385C3559.4,935.789 3566.54,937.768 3566.54,944.273C3566.54,949.577 3561.24,952.546 3554.03,952.546C3547.17,952.546 3543.42,948.799 3543.42,944.627C3543.42,940.667 3546.82,936.92 3552.83,933.385ZM3565.13,922.284C3561.59,924.97 3556.01,928.435 3552.68,930.132C3548.58,928.506 3545.54,926.95 3545.54,923.273C3545.54,919.597 3548.87,916.839 3554.38,916.839C3558.34,916.839 3562.09,918.748 3563.93,921.577C3564.21,922.071 3564.63,922.284 3564.99,922.284L3565.13,922.284Z" style="fill-rule:nonzero;"/>
        </g>
    </g>
</svg>
