<?xml version="1.0" encoding="UTF-8" standalone="no"?>
<!DOCTYPE svg PUBLIC "-//W3C//DTD SVG 1.1//EN" "http://www.w3.org/Graphics/SVG/1.1/DTD/svg11.dtd">
<svg width="100%" height="100%" viewBox="0 0 89 89" version="1.1" xmlns="http://www.w3.org/2000/svg" xmlns:xlink="http://www.w3.org/1999/xlink" xml:space="preserve" xmlns:serif="http://www.serif.com/" style="fill-rule:evenodd;clip-rule:evenodd;stroke-linejoin:round;stroke-miterlimit:2;">
    <g transform="matrix(1,0,0,1,-2893.34,-1131.51)">
        <g transform="matrix(1.41414,0,0,1.41429,-1389.33,-1046.26)">
            <path d="M3085.31,1602.2C3088.7,1602.2 3090.83,1599.66 3090.83,1596.69L3090.83,1545.35C3090.83,1541.89 3088.35,1539.84 3085.31,1539.84L3033.98,1539.84C3030.51,1539.84 3028.46,1542.17 3028.46,1545.35L3028.46,1596.69C3028.46,1599.87 3030.94,1602.2 3033.98,1602.2L3085.31,1602.2ZM3087.93,1596.97C3087.93,1598.53 3086.87,1599.3 3085.66,1599.3L3033.62,1599.3C3032.14,1599.3 3031.36,1598.24 3031.36,1596.97L3031.36,1545C3031.36,1543.59 3032.28,1542.74 3033.62,1542.74L3085.66,1542.74C3087.08,1542.74 3087.93,1543.8 3087.93,1545L3087.93,1596.97ZM3059.22,1554.26C3059.57,1554.26 3059.78,1553.91 3059.78,1553.49C3059.78,1552.57 3059.01,1551.08 3058.23,1551.08L3058.09,1551.08C3057.17,1551.29 3055.61,1551.36 3054.62,1551.43L3044.44,1552.07C3043.66,1551.72 3042.89,1551.43 3042.32,1551.43C3041.9,1551.43 3041.61,1551.58 3041.61,1552.07C3041.61,1552.78 3041.54,1553.77 3041.47,1554.55L3040.13,1568.48C3039.92,1569.18 3039.56,1570.88 3039.56,1571.09C3039.56,1572.51 3040.91,1573.57 3041.83,1573.57C3042.11,1573.57 3042.11,1573.57 3043.73,1571.94C3045.57,1570.1 3047.91,1568.83 3050.73,1568.83C3055.61,1568.83 3058.8,1572.36 3058.8,1578.23C3058.8,1583.75 3055.97,1588.84 3048.83,1588.84C3044.8,1588.84 3042.25,1586.15 3040.34,1583.11C3040.2,1582.83 3039.99,1582.69 3039.78,1582.69C3039.07,1582.69 3038.15,1584.24 3038.15,1585.52C3038.15,1587.35 3043.31,1591.95 3048.83,1591.95C3058.16,1591.95 3061.98,1585.44 3061.98,1578.16C3061.98,1570.38 3057.03,1565.86 3051.3,1565.86C3047.62,1565.86 3045.15,1567.06 3042.96,1569.04L3044.37,1555.18L3055.05,1554.48L3059.22,1554.26ZM3073.22,1585.16C3073.22,1586.36 3073.08,1589.26 3073.08,1590.18C3073.08,1591.1 3074.56,1591.74 3075.62,1591.74C3076.12,1591.74 3076.54,1591.6 3076.54,1591.17C3076.47,1589.69 3076.4,1586.36 3076.4,1584.81L3076.4,1556.31C3076.4,1554.69 3076.76,1553.7 3076.76,1552.78C3076.76,1551.72 3075.55,1550.66 3074.7,1550.66C3073.93,1550.66 3072.8,1552.28 3072.37,1552.64C3070.67,1553.98 3068.13,1555.47 3065.44,1556.6C3065.02,1556.74 3064.88,1556.95 3064.88,1557.16C3064.88,1557.8 3066.15,1558.43 3067.07,1558.43C3067.28,1558.43 3067.49,1558.43 3067.56,1558.36C3069.47,1557.8 3071.66,1556.88 3073.22,1555.89L3073.22,1585.16Z" style="fill-rule:nonzero;"/>
        </g>
    </g>
</svg>
