<?xml version="1.0" encoding="UTF-8" standalone="no"?>
<!DOCTYPE svg PUBLIC "-//W3C//DTD SVG 1.1//EN" "http://www.w3.org/Graphics/SVG/1.1/DTD/svg11.dtd">
<svg width="100%" height="100%" viewBox="0 0 89 89" version="1.1" xmlns="http://www.w3.org/2000/svg" xmlns:xlink="http://www.w3.org/1999/xlink" xml:space="preserve" xmlns:serif="http://www.serif.com/" style="fill-rule:evenodd;clip-rule:evenodd;stroke-linejoin:round;stroke-miterlimit:2;">
    <g transform="matrix(1,0,0,1,-3693.26,-1281.51)">
        <g transform="matrix(1.41414,0,0,1.41429,-1389.33,-1046.26)">
            <path d="M3650.97,1708.26C3654.36,1708.26 3656.48,1705.72 3656.48,1702.75L3656.48,1651.41C3656.48,1647.95 3654.01,1645.9 3650.97,1645.9L3599.63,1645.9C3596.17,1645.9 3594.12,1648.23 3594.12,1651.41L3594.12,1702.75C3594.12,1705.93 3596.59,1708.26 3599.63,1708.26L3650.97,1708.26ZM3653.58,1703.03C3653.58,1704.59 3652.52,1705.36 3651.32,1705.36L3599.28,1705.36C3597.8,1705.36 3597.02,1704.3 3597.02,1703.03L3597.02,1651.06C3597.02,1649.65 3597.94,1648.8 3599.28,1648.8L3651.32,1648.8C3652.73,1648.8 3653.58,1649.86 3653.58,1651.06L3653.58,1703.03ZM3612.71,1657.07C3612.08,1657.92 3608.47,1664.64 3605.64,1671C3603.31,1676.3 3602.11,1681.11 3602.11,1685.92C3602.11,1692.57 3606.78,1698.01 3613,1698.01C3619.78,1698.01 3623.89,1692.07 3623.89,1684.36C3623.89,1677.43 3619.86,1672.34 3613.85,1672.34C3610.52,1672.34 3607.84,1674.04 3606.14,1676.8C3608.47,1671 3610.88,1665.2 3615.54,1658.84C3615.76,1658.56 3616.11,1658.06 3616.11,1657.64C3616.11,1657.14 3615.19,1656.36 3613.99,1656.36C3613.42,1656.36 3612.93,1656.58 3612.71,1657.07ZM3640.29,1697.73C3641.49,1697.66 3642.2,1697.3 3642.27,1696.53C3642.91,1689.17 3645.59,1672.98 3647.71,1662.3L3648.35,1660.18L3648.35,1659.97C3648.35,1659.12 3647.36,1658.06 3646.3,1658.06C3645.24,1658.06 3645.52,1659.83 3645.1,1661.38C3644.46,1659.76 3642.13,1656.43 3637.39,1656.43C3630.6,1656.43 3625.51,1664.07 3625.51,1671.78C3625.51,1678.28 3628.62,1682.03 3633.22,1682.03C3636.76,1682.03 3640.5,1679.41 3642.62,1675.38C3639.94,1691.86 3639.72,1692.78 3639.3,1695.39C3639.23,1695.89 3639.09,1696.38 3639.09,1696.81C3639.09,1697.38 3639.3,1697.73 3640.15,1697.73L3640.29,1697.73ZM3613,1695.11C3608.33,1695.11 3604.94,1691.08 3604.94,1685.85C3604.94,1680.19 3608.4,1675.24 3613.78,1675.24C3618.3,1675.24 3620.99,1679.63 3620.99,1684.51C3620.99,1690.73 3617.59,1695.11 3613,1695.11ZM3644.18,1666.69C3642.69,1671.99 3639.02,1678.92 3633.15,1678.92C3629.97,1678.92 3627.63,1676.44 3627.63,1671.57C3627.63,1666.33 3631.73,1659.4 3637.6,1659.4C3641.14,1659.4 3642.62,1662.16 3643.26,1663.72C3643.47,1664.21 3643.68,1664.42 3643.97,1664.42C3644.25,1664.42 3644.46,1664.21 3644.67,1663.93L3644.18,1666.69Z" style="fill-rule:nonzero;"/>
        </g>
    </g>
</svg>
