<?xml version="1.0" encoding="UTF-8" standalone="no"?>
<!DOCTYPE svg PUBLIC "-//W3C//DTD SVG 1.1//EN" "http://www.w3.org/Graphics/SVG/1.1/DTD/svg11.dtd">
<svg width="100%" height="100%" viewBox="0 0 89 89" version="1.1" xmlns="http://www.w3.org/2000/svg" xmlns:xlink="http://www.w3.org/1999/xlink" xml:space="preserve" xmlns:serif="http://www.serif.com/" style="fill-rule:evenodd;clip-rule:evenodd;stroke-linejoin:round;stroke-miterlimit:2;">
    <g transform="matrix(1,0,0,1,-3093.32,-831.509)">
        <g transform="matrix(1.41414,0,0,1.41429,-1389.33,-1046.26)">
            <path d="M3226.72,1390.08C3230.12,1390.08 3232.24,1387.54 3232.24,1384.57L3232.24,1333.23C3232.24,1329.77 3229.76,1327.72 3226.72,1327.72L3175.39,1327.72C3171.93,1327.72 3169.88,1330.05 3169.88,1333.23L3169.88,1384.57C3169.88,1387.75 3172.35,1390.08 3175.39,1390.08L3226.72,1390.08ZM3229.34,1384.85C3229.34,1386.4 3228.28,1387.18 3227.08,1387.18L3175.04,1387.18C3173.55,1387.18 3172.78,1386.12 3172.78,1384.85L3172.78,1332.88C3172.78,1331.46 3173.69,1330.62 3175.04,1330.62L3227.08,1330.62C3228.49,1330.62 3229.34,1331.68 3229.34,1332.88L3229.34,1384.85ZM3214.28,1356.64C3218.45,1355.36 3221.56,1351.83 3221.56,1347.02C3221.56,1341.51 3218.1,1338.25 3212.8,1338.25C3206.64,1338.25 3202.54,1343.2 3202.54,1344.48C3202.54,1345.68 3203.6,1346.88 3203.96,1346.88C3204.45,1346.88 3204.88,1346.17 3205.02,1345.96C3207.42,1342.71 3209.9,1341.22 3212.87,1341.22C3216.54,1341.22 3218.73,1343.56 3218.73,1347.38C3218.73,1352.11 3213.29,1355.65 3207.85,1356.07C3207.49,1356.14 3207.28,1356.5 3207.28,1356.92C3207.28,1357.84 3207.99,1359.18 3208.84,1359.18C3208.98,1359.18 3208.98,1359.11 3209.12,1359.11C3209.68,1358.97 3210.74,1358.76 3211.66,1358.69C3212.09,1358.62 3212.44,1358.62 3212.8,1358.62C3217.11,1358.62 3220.22,1361.87 3220.22,1366.54C3220.22,1371.77 3217.6,1376.79 3211.03,1376.79C3207.63,1376.79 3205.51,1374.81 3203.46,1371.84C3203.25,1371.63 3203.11,1371.49 3202.97,1371.49C3202.26,1371.49 3201.55,1372.97 3201.55,1374.1C3201.55,1374.6 3201.62,1374.95 3201.84,1375.23C3204.45,1378.2 3207.35,1379.83 3211.03,1379.83C3219.58,1379.83 3223.12,1373.68 3223.12,1366.46C3223.12,1360.38 3219.23,1356.64 3214.85,1356.64L3214.28,1356.64ZM3190.31,1356.64C3194.48,1355.36 3197.59,1351.83 3197.59,1347.02C3197.59,1341.51 3194.13,1338.25 3188.83,1338.25C3182.67,1338.25 3178.57,1343.2 3178.57,1344.48C3178.57,1345.68 3179.63,1346.88 3180.06,1346.88C3180.48,1346.88 3180.91,1346.17 3181.05,1345.96C3183.52,1342.71 3185.93,1341.22 3188.9,1341.22C3192.57,1341.22 3194.76,1343.56 3194.76,1347.38C3194.76,1352.11 3189.32,1355.65 3183.88,1356.07C3183.52,1356.14 3183.38,1356.5 3183.38,1356.92C3183.38,1357.84 3184.02,1359.18 3184.87,1359.18C3185.01,1359.18 3185.08,1359.11 3185.15,1359.11C3185.71,1358.97 3186.78,1358.76 3187.69,1358.69C3188.12,1358.62 3188.47,1358.62 3188.83,1358.62C3193.14,1358.62 3196.25,1361.87 3196.25,1366.54C3196.25,1371.77 3193.63,1376.79 3187.06,1376.79C3183.66,1376.79 3181.54,1374.81 3179.49,1371.84C3179.28,1371.63 3179.21,1371.49 3179,1371.49C3178.29,1371.49 3177.58,1372.97 3177.58,1374.1C3177.58,1374.6 3177.65,1374.95 3177.94,1375.23C3180.48,1378.2 3183.45,1379.83 3187.06,1379.83C3195.61,1379.83 3199.15,1373.68 3199.15,1366.46C3199.15,1360.38 3195.26,1356.64 3190.95,1356.64L3190.31,1356.64Z" style="fill-rule:nonzero;"/>
        </g>
    </g>
</svg>
