<?xml version="1.0" encoding="UTF-8" standalone="no"?>
<!DOCTYPE svg PUBLIC "-//W3C//DTD SVG 1.1//EN" "http://www.w3.org/Graphics/SVG/1.1/DTD/svg11.dtd">
<svg width="100%" height="100%" viewBox="0 0 89 89" version="1.1" xmlns="http://www.w3.org/2000/svg" xmlns:xlink="http://www.w3.org/1999/xlink" xml:space="preserve" xmlns:serif="http://www.serif.com/" style="fill-rule:evenodd;clip-rule:evenodd;stroke-linejoin:round;stroke-miterlimit:2;">
    <g transform="matrix(1,0,0,1,-3593.27,-1581.51)">
        <g transform="matrix(1.41414,0,0,1.41429,-1389.33,-1046.26)">
            <path d="M3580.26,1920.38C3583.65,1920.38 3585.78,1917.84 3585.78,1914.87L3585.78,1863.54C3585.78,1860.07 3583.3,1858.02 3580.26,1858.02L3528.93,1858.02C3525.46,1858.02 3523.41,1860.35 3523.41,1863.54L3523.41,1914.87C3523.41,1918.05 3525.89,1920.38 3528.93,1920.38L3580.26,1920.38ZM3582.88,1915.15C3582.88,1916.71 3581.82,1917.49 3580.61,1917.49L3528.57,1917.49C3527.09,1917.49 3526.31,1916.42 3526.31,1915.15L3526.31,1863.18C3526.31,1861.77 3527.23,1860.92 3528.57,1860.92L3580.61,1860.92C3582.03,1860.92 3582.88,1861.98 3582.88,1863.18L3582.88,1915.15ZM3544.55,1886.23C3546.96,1884.32 3553.46,1877.82 3553.46,1875.98C3553.46,1875.34 3553.11,1874.92 3552.61,1874.92C3552.26,1874.92 3551.84,1875.06 3551.41,1875.56L3551.2,1875.84C3551.41,1875.49 3551.48,1875.06 3551.48,1874.78C3551.48,1874.57 3551.41,1874.35 3551.41,1874.21C3549.5,1871.17 3546.82,1868.63 3543,1868.63C3537.06,1868.63 3533.59,1873.08 3533.59,1878.1C3533.59,1881.85 3534.87,1884.25 3539.32,1886.8C3534.8,1890.33 3532.11,1894.22 3532.11,1899.38C3532.11,1905.47 3535.86,1910.13 3542.15,1910.13C3549.08,1910.13 3553.67,1905.61 3553.67,1898.61C3553.67,1893.09 3550.99,1889.49 3545.19,1886.52L3544.55,1886.23ZM3569.16,1886.23C3571.56,1884.32 3578.07,1877.82 3578.07,1875.98C3578.07,1875.34 3577.71,1874.92 3577.22,1874.92C3576.87,1874.92 3576.51,1875.06 3576.09,1875.56L3575.81,1875.84C3576.02,1875.49 3576.09,1875.06 3576.09,1874.78C3576.09,1874.57 3576.09,1874.35 3576.02,1874.21C3574.11,1871.17 3571.42,1868.63 3567.6,1868.63C3561.66,1868.63 3558.2,1873.08 3558.2,1878.1C3558.2,1881.85 3559.47,1884.25 3564,1886.8C3559.4,1890.33 3556.71,1894.22 3556.71,1899.38C3556.71,1905.47 3560.46,1910.13 3566.76,1910.13C3573.68,1910.13 3578.28,1905.61 3578.28,1898.61C3578.28,1893.09 3575.59,1889.49 3569.8,1886.52L3569.16,1886.23ZM3566.61,1888.21C3571.78,1890.83 3575.45,1893.09 3575.45,1898.89C3575.45,1903.77 3571.78,1907.09 3566.76,1907.09C3561.73,1907.09 3559.54,1903.13 3559.54,1899.24C3559.54,1895.14 3562.16,1891.82 3566.61,1888.21ZM3542.01,1888.21C3547.17,1890.83 3550.85,1893.09 3550.85,1898.89C3550.85,1903.77 3547.17,1907.09 3542.15,1907.09C3537.13,1907.09 3534.94,1903.13 3534.94,1899.24C3534.94,1895.14 3537.55,1891.82 3542.01,1888.21ZM3575.03,1876.69C3572.62,1879.52 3569.8,1882.41 3566.54,1884.82C3562.3,1882.63 3561.03,1881.07 3561.03,1878.1C3561.03,1874.78 3563.22,1871.53 3567.67,1871.53C3570.5,1871.53 3572.2,1873.29 3573.61,1876.05C3573.97,1876.62 3574.25,1876.83 3574.53,1876.83C3574.74,1876.83 3574.89,1876.76 3575.03,1876.69ZM3550.42,1876.69C3548.02,1879.52 3545.19,1882.41 3541.94,1884.82C3537.69,1882.63 3536.42,1881.07 3536.42,1878.1C3536.42,1874.78 3538.61,1871.53 3543.07,1871.53C3545.9,1871.53 3547.59,1873.29 3549.01,1876.05C3549.29,1876.62 3549.64,1876.83 3549.93,1876.83C3550.14,1876.83 3550.28,1876.76 3550.42,1876.69Z" style="fill-rule:nonzero;"/>
        </g>
    </g>
</svg>
