<?xml version="1.0" encoding="UTF-8" standalone="no"?>
<!DOCTYPE svg PUBLIC "-//W3C//DTD SVG 1.1//EN" "http://www.w3.org/Graphics/SVG/1.1/DTD/svg11.dtd">
<svg width="100%" height="100%" viewBox="0 0 89 89" version="1.1" xmlns="http://www.w3.org/2000/svg" xmlns:xlink="http://www.w3.org/1999/xlink" xml:space="preserve" xmlns:serif="http://www.serif.com/" style="fill-rule:evenodd;clip-rule:evenodd;stroke-linejoin:round;stroke-miterlimit:2;">
    <g transform="matrix(1,0,0,1,-2993.33,-681.509)">
        <g transform="matrix(1.41414,0,0,1.41429,-1389.33,-1046.26)">
            <path d="M3156.02,1284.02C3159.41,1284.02 3161.53,1281.48 3161.53,1278.51L3161.53,1227.17C3161.53,1223.71 3159.06,1221.66 3156.02,1221.66L3104.68,1221.66C3101.22,1221.66 3099.17,1223.99 3099.17,1227.17L3099.17,1278.51C3099.17,1281.69 3101.64,1284.02 3104.68,1284.02L3156.02,1284.02ZM3158.63,1278.79C3158.63,1280.34 3157.57,1281.12 3156.37,1281.12L3104.33,1281.12C3102.85,1281.12 3102.07,1280.06 3102.07,1278.79L3102.07,1226.82C3102.07,1225.4 3102.99,1224.56 3104.33,1224.56L3156.37,1224.56C3157.78,1224.56 3158.63,1225.62 3158.63,1226.82L3158.63,1278.79ZM3108.57,1273.06C3110.13,1272.64 3112.89,1272.35 3116.63,1272.35C3119.53,1272.35 3123.7,1272.42 3127.88,1272.78C3128.23,1272.78 3128.44,1272.5 3128.44,1272C3128.44,1271.01 3127.66,1269.45 3126.82,1269.45C3126.18,1269.45 3124.41,1269.53 3123.56,1269.53C3121.37,1269.53 3119.74,1269.45 3117.2,1269.45C3115.15,1269.45 3112.18,1269.6 3110.27,1269.81C3112.04,1265.99 3115.22,1260.26 3119.82,1255.74C3124.62,1250.93 3128.09,1246.9 3128.09,1241.67C3128.09,1236.15 3124.41,1232.19 3118.68,1232.19C3113.38,1232.19 3109.78,1235.09 3107.72,1239.26C3107.51,1239.55 3107.44,1239.9 3107.44,1240.25C3107.44,1241.17 3108.64,1242.59 3109.28,1242.59C3109.85,1242.59 3110.27,1242.02 3110.55,1241.24C3111.68,1237.85 3114.51,1235.16 3118.61,1235.16C3122.57,1235.16 3124.84,1238.13 3124.84,1241.67C3124.84,1245.41 3122.15,1248.95 3117.84,1253.33C3113.45,1257.79 3109.85,1263.94 3107.87,1268.04C3107.58,1268.61 3107.23,1269.1 3106.73,1269.74C3106.59,1269.95 3106.59,1270.23 3106.59,1270.59C3106.59,1271.72 3107.44,1273.06 3108.36,1273.06L3108.57,1273.06ZM3133.74,1273.06C3136.15,1272.5 3139.26,1272.35 3141.81,1272.35C3144.7,1272.35 3148.88,1272.42 3153.05,1272.78C3153.47,1272.78 3153.61,1272.5 3153.61,1272C3153.61,1271.01 3152.84,1269.45 3152.06,1269.45C3151.35,1269.45 3149.58,1269.53 3148.73,1269.53C3146.61,1269.53 3144.92,1269.45 3142.37,1269.45C3140.32,1269.45 3137.42,1269.6 3135.44,1269.81C3137.28,1265.99 3140.39,1260.26 3144.99,1255.74C3149.8,1250.93 3153.26,1246.9 3153.26,1241.67C3153.26,1236.15 3149.58,1232.19 3143.93,1232.19C3138.62,1232.19 3134.95,1235.09 3132.9,1239.26C3132.68,1239.55 3132.61,1239.9 3132.61,1240.25C3132.61,1241.17 3133.82,1242.59 3134.52,1242.59C3135.02,1242.59 3135.44,1242.02 3135.72,1241.24C3136.86,1237.85 3139.68,1235.16 3143.78,1235.16C3147.74,1235.16 3150.01,1238.13 3150.01,1241.67C3150.01,1245.41 3147.32,1248.95 3143.01,1253.33C3138.69,1257.79 3135.02,1263.94 3133.04,1268.04C3132.76,1268.61 3132.4,1269.1 3131.98,1269.74C3131.84,1269.95 3131.76,1270.23 3131.76,1270.59C3131.76,1271.72 3132.61,1273.06 3133.53,1273.06L3133.74,1273.06Z" style="fill-rule:nonzero;"/>
        </g>
    </g>
</svg>
