<?xml version="1.0" encoding="UTF-8" standalone="no"?>
<!DOCTYPE svg PUBLIC "-//W3C//DTD SVG 1.1//EN" "http://www.w3.org/Graphics/SVG/1.1/DTD/svg11.dtd">
<svg width="100%" height="100%" viewBox="0 0 89 89" version="1.1" xmlns="http://www.w3.org/2000/svg" xmlns:xlink="http://www.w3.org/1999/xlink" xml:space="preserve" xmlns:serif="http://www.serif.com/" style="fill-rule:evenodd;clip-rule:evenodd;stroke-linejoin:round;stroke-miterlimit:2;">
    <g transform="matrix(1,0,0,1,-3393.29,-1431.51)">
        <g transform="matrix(1.41414,0,0,1.41429,-1389.33,-1046.26)">
            <path d="M3438.85,1814.32C3442.24,1814.32 3444.36,1811.78 3444.36,1808.81L3444.36,1757.48C3444.36,1754.01 3441.89,1751.96 3438.85,1751.96L3387.51,1751.96C3384.05,1751.96 3382,1754.29 3382,1757.48L3382,1808.81C3382,1811.99 3384.47,1814.32 3387.51,1814.32L3438.85,1814.32ZM3441.46,1809.09C3441.46,1810.65 3440.4,1811.42 3439.2,1811.42L3387.16,1811.42C3385.67,1811.42 3384.9,1810.36 3384.9,1809.09L3384.9,1757.12C3384.9,1755.71 3385.82,1754.86 3387.16,1754.86L3439.2,1754.86C3440.61,1754.86 3441.46,1755.92 3441.46,1757.12L3441.46,1809.09ZM3418.06,1782.86C3421.38,1775.36 3423.86,1770.34 3428.03,1764.9C3428.24,1764.62 3428.59,1764.12 3428.59,1763.7C3428.59,1762.64 3426.83,1762.42 3426.4,1762.42C3425.76,1762.42 3425.27,1762.64 3425.06,1763.13C3424.85,1763.41 3424.42,1764.19 3424.28,1764.33C3422.16,1767.73 3419.97,1771.97 3417.56,1777.06C3415.09,1782.36 3413.89,1787.17 3413.89,1791.98C3413.89,1798.63 3418.76,1804.07 3425.34,1804.07C3432.48,1804.07 3436.87,1798.13 3436.87,1790.42C3436.87,1783.5 3432.55,1778.4 3426.26,1778.4C3422.72,1778.4 3419.9,1780.1 3418.06,1782.86ZM3425.34,1801.17C3420.39,1801.17 3416.86,1797.14 3416.86,1791.91C3416.86,1786.25 3420.53,1781.3 3426.19,1781.3C3430.93,1781.3 3433.76,1785.69 3433.76,1790.57C3433.76,1796.79 3430.22,1801.17 3425.34,1801.17ZM3412.54,1765.47C3412.54,1764.48 3411.2,1763.2 3410.42,1763.06L3410.28,1763.06C3409.64,1763.06 3408.87,1763.41 3408.09,1763.49L3393.66,1764.55L3392.89,1764.55C3392.04,1764.55 3391.47,1764.48 3390.91,1764.48C3390.69,1764.48 3390.62,1764.62 3390.62,1764.83C3390.62,1765.61 3391.76,1767.73 3393.24,1767.73C3393.73,1767.73 3394.23,1767.66 3394.8,1767.59L3408.65,1766.31C3405.12,1774.87 3399.18,1790.5 3395.93,1801.17C3395.86,1801.53 3395.57,1802.02 3395.57,1802.52C3395.57,1803.01 3395.86,1803.51 3396.92,1803.65C3397.2,1803.65 3397.48,1803.72 3397.69,1803.72C3398.54,1803.72 3399.04,1803.51 3399.11,1802.87C3400.45,1796.29 3405.97,1780.53 3411.27,1768.36C3411.62,1767.66 3412.47,1766.6 3412.54,1765.68L3412.54,1765.47Z" style="fill-rule:nonzero;"/>
        </g>
    </g>
</svg>
