<?xml version="1.0" encoding="UTF-8" standalone="no"?>
<!DOCTYPE svg PUBLIC "-//W3C//DTD SVG 1.1//EN" "http://www.w3.org/Graphics/SVG/1.1/DTD/svg11.dtd">
<svg width="100%" height="100%" viewBox="0 0 89 89" version="1.1" xmlns="http://www.w3.org/2000/svg" xmlns:xlink="http://www.w3.org/1999/xlink" xml:space="preserve" xmlns:serif="http://www.serif.com/" style="fill-rule:evenodd;clip-rule:evenodd;stroke-linejoin:round;stroke-miterlimit:2;">
    <g transform="matrix(1,0,0,1,-3693.26,-1731.51)">
        <g transform="matrix(1.41414,0,0,1.41429,-1389.33,-1046.26)">
            <path d="M3650.97,2026.44C3654.36,2026.44 3656.48,2023.9 3656.48,2020.93L3656.48,1969.6C3656.48,1966.13 3654.01,1964.08 3650.97,1964.08L3599.63,1964.08C3596.17,1964.08 3594.12,1966.41 3594.12,1969.6L3594.12,2020.93C3594.12,2024.11 3596.59,2026.44 3599.63,2026.44L3650.97,2026.44ZM3653.58,2021.21C3653.58,2022.77 3652.52,2023.55 3651.32,2023.55L3599.28,2023.55C3597.8,2023.55 3597.02,2022.49 3597.02,2021.21L3597.02,1969.24C3597.02,1967.83 3597.94,1966.98 3599.28,1966.98L3651.32,1966.98C3652.73,1966.98 3653.58,1968.04 3653.58,1969.24L3653.58,2021.21ZM3616.04,2015.91C3617.24,2015.84 3617.95,2015.49 3618.02,2014.71C3618.65,2007.35 3621.34,1991.16 3623.46,1980.49C3623.53,1980.13 3623.89,1979.14 3624.03,1978.36L3624.03,1978.15C3624.03,1977.3 3623.11,1976.24 3621.98,1976.24C3620.99,1976.24 3621.2,1978.01 3620.85,1979.57C3620.21,1977.94 3617.88,1974.62 3613.14,1974.62C3606.35,1974.62 3601.19,1982.25 3601.19,1989.96C3601.19,1996.47 3604.37,2000.21 3608.97,2000.21C3612.5,2000.21 3616.25,1997.6 3618.37,1993.57C3615.68,2010.04 3615.47,2010.96 3615.05,2013.58C3614.98,2014.07 3614.84,2014.57 3614.84,2014.99C3614.84,2015.56 3615.05,2015.91 3615.9,2015.91L3616.04,2015.91ZM3640.86,2015.91C3642.06,2015.84 3642.76,2015.49 3642.84,2014.71C3643.47,2007.35 3646.16,1991.16 3648.28,1980.49L3648.92,1978.36L3648.92,1978.15C3648.92,1977.3 3647.93,1976.24 3646.87,1976.24C3645.81,1976.24 3646.09,1978.01 3645.66,1979.57C3645.03,1977.94 3642.76,1974.62 3637.96,1974.62C3631.17,1974.62 3626.08,1982.25 3626.08,1989.96C3626.08,1996.47 3629.19,2000.21 3633.78,2000.21C3637.32,2000.21 3641.14,1997.6 3643.19,1993.57C3642.34,1998.73 3641.35,2004.74 3640.71,2009.19C3640.64,2009.48 3639.65,2014.14 3639.65,2014.99C3639.65,2015.56 3639.87,2015.91 3640.71,2015.91L3640.86,2015.91ZM3620.42,1982.11C3619.08,1990.67 3614.34,1997.1 3608.9,1997.1C3605.64,1997.1 3604.02,1994.63 3604.02,1989.75C3604.02,1984.52 3607.41,1977.59 3613.35,1977.59C3616.89,1977.59 3618.3,1980.34 3619.01,1981.9C3619.15,1982.39 3619.43,1982.61 3619.71,1982.61C3619.93,1982.61 3620.21,1982.39 3620.42,1982.11ZM3644.74,1984.87C3643.26,1990.17 3639.58,1997.1 3633.71,1997.1C3630.53,1997.1 3628.91,1994.63 3628.91,1989.75C3628.91,1984.52 3632.3,1977.59 3638.17,1977.59C3641.7,1977.59 3643.19,1980.34 3643.83,1981.9C3644.04,1982.39 3644.25,1982.61 3644.53,1982.61C3644.82,1982.61 3645.03,1982.39 3645.24,1982.11L3644.74,1984.87Z" style="fill-rule:nonzero;"/>
        </g>
    </g>
</svg>
