<?xml version="1.0" encoding="UTF-8" standalone="no"?>
<!DOCTYPE svg PUBLIC "-//W3C//DTD SVG 1.1//EN" "http://www.w3.org/Graphics/SVG/1.1/DTD/svg11.dtd">
<svg width="100%" height="100%" viewBox="0 0 89 89" version="1.1" xmlns="http://www.w3.org/2000/svg" xmlns:xlink="http://www.w3.org/1999/xlink" xml:space="preserve" xmlns:serif="http://www.serif.com/" style="fill-rule:evenodd;clip-rule:evenodd;stroke-linejoin:round;stroke-miterlimit:2;">
    <g transform="matrix(1,0,0,1,-3393.29,-381.509)">
        <g transform="matrix(1.41414,0,0,1.41429,-1389.33,-1046.26)">
            <path d="M3438.85,1071.9C3442.24,1071.9 3444.36,1069.35 3444.36,1066.38L3444.36,1015.05C3444.36,1011.59 3441.89,1009.54 3438.85,1009.54L3387.51,1009.54C3384.05,1009.54 3382,1011.87 3382,1015.05L3382,1066.38C3382,1069.57 3384.47,1071.9 3387.51,1071.9L3438.85,1071.9ZM3441.46,1066.67C3441.46,1068.22 3440.4,1069 3439.2,1069L3387.16,1069C3385.67,1069 3384.9,1067.94 3384.9,1066.67L3384.9,1014.7C3384.9,1013.28 3385.82,1012.44 3387.16,1012.44L3439.2,1012.44C3440.61,1012.44 3441.46,1013.5 3441.46,1014.7L3441.46,1066.67ZM3396.49,1023.96C3396.42,1023.75 3396.14,1023.54 3395.86,1023.54C3394.3,1023.54 3391.4,1032.94 3391.4,1041.85C3391.4,1053.52 3394.58,1062.07 3401.09,1062.07C3407.95,1062.07 3411.27,1052.1 3411.27,1040.36C3411.27,1028.84 3408.09,1020.43 3402.22,1020.43C3399.89,1020.43 3397.98,1021.84 3396.49,1023.96ZM3424.78,1022.19C3422.8,1025.59 3420.67,1029.83 3418.41,1034.92C3416.08,1040.22 3414.95,1045.03 3414.95,1049.84C3414.95,1056.49 3419.61,1061.93 3425.84,1061.93C3432.55,1061.93 3436.72,1055.99 3436.72,1048.28C3436.72,1041.35 3432.62,1036.26 3426.68,1036.26C3423.36,1036.26 3420.6,1037.96 3418.91,1040.72C3421.38,1034.57 3424.63,1027.92 3428.38,1022.76C3428.52,1022.48 3428.88,1021.98 3428.88,1021.56C3428.88,1021.2 3428.73,1020.85 3427.96,1020.57C3427.67,1020.43 3427.18,1020.28 3426.76,1020.28C3426.26,1020.28 3425.76,1020.5 3425.48,1020.99C3425.34,1021.27 3424.92,1022.05 3424.78,1022.19ZM3400.95,1059.03C3395.86,1059.03 3394.16,1051.11 3394.16,1041.78C3394.16,1029.48 3398.61,1023.32 3402.01,1023.32C3406.82,1023.32 3408.51,1032.02 3408.51,1039.94C3408.51,1049.63 3406.39,1059.03 3400.95,1059.03ZM3425.84,1059.03C3421.1,1059.03 3417.78,1055 3417.78,1049.77C3417.78,1044.11 3421.24,1039.16 3426.61,1039.16C3431.07,1039.16 3433.83,1043.55 3433.83,1048.42C3433.83,1054.65 3430.43,1059.03 3425.84,1059.03Z" style="fill-rule:nonzero;"/>
        </g>
    </g>
</svg>
