<?xml version="1.0" encoding="UTF-8" standalone="no"?>
<!DOCTYPE svg PUBLIC "-//W3C//DTD SVG 1.1//EN" "http://www.w3.org/Graphics/SVG/1.1/DTD/svg11.dtd">
<svg width="100%" height="100%" viewBox="0 0 89 89" version="1.1" xmlns="http://www.w3.org/2000/svg" xmlns:xlink="http://www.w3.org/1999/xlink" xml:space="preserve" xmlns:serif="http://www.serif.com/" style="fill-rule:evenodd;clip-rule:evenodd;stroke-linejoin:round;stroke-miterlimit:2;">
    <g transform="matrix(1,0,0,1,-2993.33,-1581.51)">
        <g transform="matrix(1.41414,0,0,1.41429,-1389.33,-1046.26)">
            <path d="M3156.02,1920.38C3159.41,1920.38 3161.53,1917.84 3161.53,1914.87L3161.53,1863.54C3161.53,1860.07 3159.06,1858.02 3156.02,1858.02L3104.68,1858.02C3101.22,1858.02 3099.17,1860.35 3099.17,1863.54L3099.17,1914.87C3099.17,1918.05 3101.64,1920.38 3104.68,1920.38L3156.02,1920.38ZM3158.63,1915.15C3158.63,1916.71 3157.57,1917.49 3156.37,1917.49L3104.33,1917.49C3102.85,1917.49 3102.07,1916.42 3102.07,1915.15L3102.07,1863.18C3102.07,1861.77 3102.99,1860.92 3104.33,1860.92L3156.37,1860.92C3157.78,1860.92 3158.63,1861.98 3158.63,1863.18L3158.63,1915.15ZM3121.3,1886.23C3123.7,1884.32 3130.21,1877.82 3130.21,1875.98C3130.21,1875.34 3129.78,1874.92 3129.36,1874.92C3128.94,1874.92 3128.58,1875.06 3128.16,1875.56L3127.95,1875.84C3128.16,1875.49 3128.23,1875.06 3128.23,1874.78C3128.23,1874.57 3128.16,1874.35 3128.16,1874.21C3126.25,1871.17 3123.56,1868.63 3119.74,1868.63C3113.81,1868.63 3110.34,1873.08 3110.34,1878.1C3110.34,1881.85 3111.61,1884.25 3116.07,1886.8C3111.54,1890.33 3108.86,1894.22 3108.86,1899.38C3108.86,1905.47 3112.6,1910.13 3118.9,1910.13C3125.83,1910.13 3130.42,1905.61 3130.42,1898.61C3130.42,1893.09 3127.73,1889.49 3121.87,1886.52L3121.3,1886.23ZM3135.3,1909.42C3136.86,1909.07 3139.4,1908.72 3142.94,1908.72C3149.09,1908.72 3149.87,1908.79 3153.54,1909.14C3153.97,1909.14 3154.11,1908.86 3154.11,1908.36C3154.11,1907.38 3153.33,1905.82 3152.62,1905.82C3151.99,1905.82 3150.29,1905.89 3149.51,1905.89C3147.46,1905.89 3145.84,1905.82 3143.43,1905.82C3141.52,1905.82 3138.69,1905.96 3136.86,1906.17C3138.62,1902.35 3141.59,1896.63 3145.91,1892.1C3150.5,1887.29 3153.76,1883.26 3153.76,1878.03C3153.76,1872.52 3150.29,1868.56 3144.92,1868.56C3139.9,1868.56 3136.43,1871.45 3134.45,1875.63C3134.24,1875.91 3134.24,1876.26 3134.24,1876.62C3134.24,1877.25 3134.52,1877.89 3135.3,1878.6C3135.51,1878.88 3135.72,1878.95 3136.01,1878.95C3136.5,1878.95 3136.86,1878.38 3137.14,1877.61C3138.2,1874.21 3140.89,1871.53 3144.78,1871.53C3148.52,1871.53 3150.71,1874.5 3150.71,1878.03C3150.71,1881.78 3148.17,1885.31 3144.07,1889.7C3139.97,1894.15 3136.5,1900.3 3134.59,1904.4C3134.31,1904.97 3134.03,1905.47 3133.6,1906.1C3133.46,1906.31 3133.39,1906.6 3133.39,1906.95C3133.39,1908.08 3134.24,1909.42 3135.09,1909.42L3135.3,1909.42ZM3118.76,1888.21C3123.92,1890.83 3127.59,1893.09 3127.59,1898.89C3127.59,1903.77 3123.92,1907.09 3118.9,1907.09C3113.88,1907.09 3111.68,1903.13 3111.68,1899.24C3111.68,1895.14 3114.3,1891.82 3118.76,1888.21ZM3127.17,1876.69C3124.76,1879.52 3121.94,1882.41 3118.68,1884.82C3114.44,1882.63 3113.17,1881.07 3113.17,1878.1C3113.17,1874.78 3115.36,1871.53 3119.82,1871.53C3122.64,1871.53 3124.34,1873.29 3125.76,1876.05C3126.04,1876.62 3126.39,1876.83 3126.67,1876.83C3126.89,1876.83 3127.03,1876.76 3127.17,1876.69Z" style="fill-rule:nonzero;"/>
        </g>
    </g>
</svg>
