<?xml version="1.0" encoding="UTF-8" standalone="no"?>
<!DOCTYPE svg PUBLIC "-//W3C//DTD SVG 1.1//EN" "http://www.w3.org/Graphics/SVG/1.1/DTD/svg11.dtd">
<svg width="100%" height="100%" viewBox="0 0 89 89" version="1.1" xmlns="http://www.w3.org/2000/svg" xmlns:xlink="http://www.w3.org/1999/xlink" xml:space="preserve" xmlns:serif="http://www.serif.com/" style="fill-rule:evenodd;clip-rule:evenodd;stroke-linejoin:round;stroke-miterlimit:2;">
    <g transform="matrix(1,0,0,1,-3493.28,-681.509)">
        <g transform="matrix(1.41414,0,0,1.41429,-1389.33,-1046.26)">
            <path d="M3509.55,1284.02C3512.95,1284.02 3515.07,1281.48 3515.07,1278.51L3515.07,1227.17C3515.07,1223.71 3512.59,1221.66 3509.55,1221.66L3458.22,1221.66C3454.76,1221.66 3452.7,1223.99 3452.7,1227.17L3452.7,1278.51C3452.7,1281.69 3455.18,1284.02 3458.22,1284.02L3509.55,1284.02ZM3512.17,1278.79C3512.17,1280.34 3511.11,1281.12 3509.91,1281.12L3457.87,1281.12C3456.38,1281.12 3455.6,1280.06 3455.6,1278.79L3455.6,1226.82C3455.6,1225.4 3456.52,1224.56 3457.87,1224.56L3509.91,1224.56C3511.32,1224.56 3512.17,1225.62 3512.17,1226.82L3512.17,1278.79ZM3462.96,1273.06C3465.36,1272.5 3468.47,1272.35 3471.02,1272.35C3474.41,1272.35 3478.23,1272.35 3482.26,1272.78C3482.68,1272.78 3482.9,1272.5 3482.9,1272C3482.9,1271.01 3482.05,1269.45 3481.27,1269.45C3480.56,1269.45 3478.87,1269.53 3477.95,1269.53C3475.83,1269.53 3474.13,1269.45 3471.58,1269.45C3469.53,1269.45 3466.63,1269.6 3464.65,1269.81C3466.49,1265.99 3469.6,1260.26 3474.2,1255.74C3479.01,1250.93 3482.47,1246.9 3482.47,1241.67C3482.47,1236.15 3478.87,1232.19 3473.14,1232.19C3467.84,1232.19 3464.16,1235.09 3462.11,1239.26C3461.9,1239.55 3461.83,1239.9 3461.83,1240.25C3461.83,1241.17 3463.03,1242.59 3463.73,1242.59C3464.23,1242.59 3464.65,1242.02 3464.94,1241.24C3466.07,1237.85 3468.9,1235.16 3473,1235.16C3476.96,1235.16 3479.22,1238.13 3479.22,1241.67C3479.22,1245.41 3476.53,1248.95 3472.22,1253.33C3467.91,1257.79 3464.23,1263.94 3462.25,1268.04C3461.97,1268.61 3461.61,1269.1 3461.19,1269.74C3461.05,1269.95 3460.98,1270.23 3460.98,1270.59C3460.98,1271.72 3461.83,1273.06 3462.74,1273.06L3462.96,1273.06ZM3507.57,1235.16C3507.57,1234.17 3506.23,1232.9 3505.45,1232.76L3505.31,1232.76C3504.6,1232.76 3503.9,1233.11 3503.12,1233.18L3488.62,1234.24L3487.92,1234.24C3487,1234.24 3486.5,1234.17 3485.87,1234.17C3485.65,1234.17 3485.65,1234.31 3485.65,1234.53C3485.65,1235.3 3486.78,1237.42 3488.27,1237.42C3488.69,1237.42 3489.26,1237.35 3489.76,1237.28L3503.68,1236.01C3498.17,1248.95 3493.43,1262.81 3490.96,1270.87C3490.89,1271.22 3490.6,1271.72 3490.6,1272.21C3490.6,1272.71 3490.89,1273.2 3491.95,1273.34C3492.23,1273.34 3492.44,1273.41 3492.65,1273.41C3493.57,1273.41 3494,1273.2 3494.14,1272.57C3495.69,1265.14 3501.42,1249.3 3506.3,1238.06C3506.65,1237.35 3507.43,1236.29 3507.57,1235.38L3507.57,1235.16Z" style="fill-rule:nonzero;"/>
        </g>
    </g>
</svg>
