<?xml version="1.0" encoding="UTF-8" standalone="no"?>
<!DOCTYPE svg PUBLIC "-//W3C//DTD SVG 1.1//EN" "http://www.w3.org/Graphics/SVG/1.1/DTD/svg11.dtd">
<svg width="100%" height="100%" viewBox="0 0 89 89" version="1.1" xmlns="http://www.w3.org/2000/svg" xmlns:xlink="http://www.w3.org/1999/xlink" xml:space="preserve" xmlns:serif="http://www.serif.com/" style="fill-rule:evenodd;clip-rule:evenodd;stroke-linejoin:round;stroke-miterlimit:2;">
    <g transform="matrix(1,0,0,1,-3693.26,-2031.51)">
        <g transform="matrix(1.41414,0,0,1.41429,-1389.33,-1046.26)">
            <path d="M3650.97,2238.57C3654.36,2238.57 3656.48,2236.02 3656.48,2233.05L3656.48,2181.72C3656.48,2178.25 3654.01,2176.2 3650.97,2176.2L3599.63,2176.2C3596.17,2176.2 3594.12,2178.54 3594.12,2181.72L3594.12,2233.05C3594.12,2236.23 3596.59,2238.57 3599.63,2238.57L3650.97,2238.57ZM3653.58,2233.33C3653.58,2234.89 3652.52,2235.67 3651.32,2235.67L3599.28,2235.67C3597.8,2235.67 3597.02,2234.61 3597.02,2233.33L3597.02,2181.36C3597.02,2179.95 3597.94,2179.1 3599.28,2179.1L3651.32,2179.1C3652.73,2179.1 3653.58,2180.16 3653.58,2181.36L3653.58,2233.33ZM3637.39,2194.73C3637.39,2193.88 3635.84,2193.24 3634.78,2193.24C3634.21,2193.24 3633.78,2193.45 3633.78,2193.81C3633.78,2195.15 3633.71,2201.8 3633.64,2204.27C3633.15,2213.47 3627.49,2220.25 3622.05,2220.25C3618.16,2220.25 3616.39,2216.58 3616.39,2211.84L3616.39,2200.24C3616.39,2198.83 3616.46,2195.86 3616.46,2194.94C3616.46,2193.95 3614.91,2193.31 3613.85,2193.31C3613.35,2193.31 3612.93,2193.45 3612.93,2193.88C3612.93,2195.22 3613.14,2199.47 3613.14,2200.24L3613.14,2212.05C3613.14,2217.85 3615.12,2223.29 3622.05,2223.29C3627,2223.29 3631.03,2220.25 3633.64,2214.6C3634.07,2218.13 3635.13,2222.94 3637.04,2222.94C3638.1,2222.94 3639.09,2221.6 3639.09,2220.75C3639.09,2220.54 3639.02,2220.39 3638.95,2220.25C3637.04,2217.5 3636.68,2211.27 3636.68,2207.95C3636.68,2204.06 3637.11,2196.92 3637.39,2194.87L3637.39,2194.73Z" style="fill-rule:nonzero;"/>
        </g>
    </g>
</svg>
