<?xml version="1.0" encoding="UTF-8" standalone="no"?>
<!DOCTYPE svg PUBLIC "-//W3C//DTD SVG 1.1//EN" "http://www.w3.org/Graphics/SVG/1.1/DTD/svg11.dtd">
<svg width="100%" height="100%" viewBox="0 0 89 89" version="1.1" xmlns="http://www.w3.org/2000/svg" xmlns:xlink="http://www.w3.org/1999/xlink" xml:space="preserve" xmlns:serif="http://www.serif.com/" style="fill-rule:evenodd;clip-rule:evenodd;stroke-linejoin:round;stroke-miterlimit:2;">
    <g transform="matrix(1,0,0,1,-2793.35,-981.509)">
        <g transform="matrix(1.41414,0,0,1.41429,-1389.33,-1046.26)">
            <path d="M3014.6,1496.14C3018,1496.14 3020.12,1493.6 3020.12,1490.63L3020.12,1439.29C3020.12,1435.83 3017.64,1433.78 3014.6,1433.78L2963.27,1433.78C2959.8,1433.78 2957.76,1436.11 2957.76,1439.29L2957.76,1490.63C2957.76,1493.81 2960.23,1496.14 2963.27,1496.14L3014.6,1496.14ZM3017.22,1490.91C3017.22,1492.46 3016.16,1493.24 3014.96,1493.24L2962.92,1493.24C2961.43,1493.24 2960.65,1492.18 2960.65,1490.91L2960.65,1438.94C2960.65,1437.53 2961.57,1436.68 2962.92,1436.68L3014.96,1436.68C3016.37,1436.68 3017.22,1437.74 3017.22,1438.94L3017.22,1490.91ZM2995.87,1447.78C2995.8,1447.64 2995.72,1447.57 2995.58,1447.5C2995.51,1447.42 2995.3,1447.35 2995.09,1447.35C2993.96,1447.35 2990.63,1455.06 2990.63,1465.67C2990.63,1477.33 2993.89,1485.89 3000.53,1485.89C3007.53,1485.89 3010.93,1475.92 3010.93,1464.18C3010.93,1452.66 3007.6,1444.24 3001.66,1444.24C2999.26,1444.24 2997.28,1445.66 2995.87,1447.78ZM3000.32,1482.85C2995.16,1482.85 2993.46,1474.93 2993.46,1465.6C2993.46,1453.29 2997.99,1447.14 3001.45,1447.14C3006.4,1447.14 3008.1,1455.84 3008.1,1463.76C3008.1,1473.44 3005.98,1482.85 3000.32,1482.85ZM2983.42,1475.78C2984.76,1475.78 2986.6,1475.92 2987.24,1475.92C2987.59,1475.92 2987.73,1475.57 2987.73,1475.14C2987.73,1474.15 2987.03,1472.53 2986.25,1472.53C2985.61,1472.53 2984.2,1472.81 2983.35,1472.88L2982.5,1472.95L2982.5,1461.14C2982.5,1459.73 2982.64,1456.97 2982.64,1456.05C2982.64,1455.06 2981.3,1454.42 2980.45,1454.42C2979.96,1454.42 2979.6,1454.64 2979.6,1454.99C2979.6,1456.33 2979.67,1460.01 2979.67,1461.14L2979.67,1473.09L2968.22,1473.38C2971.68,1466.59 2976.07,1457.39 2978.76,1451.1C2979.18,1450.18 2979.96,1448.84 2980.45,1447.92C2980.59,1447.78 2980.59,1447.57 2980.59,1447.35C2980.59,1446.15 2979.18,1444.45 2978.4,1444.45C2978.19,1444.45 2977.98,1444.53 2977.91,1444.81C2975.01,1453.86 2967.37,1468.78 2966.59,1470.33C2966.17,1471.11 2965.46,1471.96 2964.97,1472.95C2964.68,1473.3 2964.61,1473.73 2964.61,1474.08C2964.61,1475.42 2965.82,1476.7 2966.73,1476.7C2966.88,1476.7 2966.95,1476.63 2967.09,1476.63C2967.8,1476.41 2968.5,1476.27 2968.86,1476.27L2979.67,1475.92L2979.67,1479.03C2979.67,1479.88 2979.6,1483.13 2979.6,1484.05C2979.6,1485.04 2980.95,1485.68 2981.94,1485.68C2982.43,1485.68 2982.78,1485.46 2982.78,1485.11C2982.78,1483.77 2982.5,1481.51 2982.5,1479.17L2982.5,1475.78L2983.42,1475.78Z" style="fill-rule:nonzero;"/>
        </g>
    </g>
</svg>
