<?xml version="1.0" encoding="UTF-8" standalone="no"?>
<!DOCTYPE svg PUBLIC "-//W3C//DTD SVG 1.1//EN" "http://www.w3.org/Graphics/SVG/1.1/DTD/svg11.dtd">
<svg width="100%" height="100%" viewBox="0 0 46 77" version="1.1" xmlns="http://www.w3.org/2000/svg" xmlns:xlink="http://www.w3.org/1999/xlink" xml:space="preserve" xmlns:serif="http://www.serif.com/" style="fill-rule:evenodd;clip-rule:evenodd;stroke-linejoin:round;stroke-miterlimit:2;">
    <g transform="matrix(1,0,0,1,-4673.79,-1420.27)">
        <g transform="matrix(1.41414,0,0,1.41429,-1534.59,-78.5653)">
            <path d="M4394.03,1105.95C4392.9,1107.86 4391.62,1109.91 4390.99,1110.83C4390.85,1111.04 4390.78,1111.26 4390.78,1111.47C4390.78,1112.6 4392.4,1114.15 4393.32,1114.15C4393.6,1114.15 4393.74,1114.01 4393.89,1113.8C4394.31,1112.81 4395.37,1110.76 4396.36,1108.99C4398.76,1111.47 4401.95,1112.88 4406.12,1112.88C4416.86,1112.88 4422.1,1100.51 4422.1,1086.72C4422.1,1079.51 4420.9,1073.29 4418.42,1068.83C4419.55,1066.85 4420.9,1064.52 4421.74,1063.17C4421.89,1063.03 4421.89,1062.82 4421.89,1062.61C4421.89,1061.41 4420.19,1059.78 4419.27,1059.78C4418.99,1059.78 4418.78,1059.92 4418.7,1060.13C4418.07,1061.62 4417.08,1063.81 4416.16,1065.58C4413.82,1062.96 4410.78,1061.48 4407.04,1061.48C4403.78,1061.48 4400.96,1063.39 4398.62,1066.22C4398.34,1065.79 4397.78,1065.3 4397.14,1065.3C4395.02,1065.3 4390.21,1075.9 4390.21,1087.92C4390.21,1094.92 4391.34,1101.36 4394.03,1105.95ZM4396.43,1101.71C4394.95,1097.89 4394.45,1092.87 4394.45,1087.78C4394.45,1073.29 4402.16,1065.23 4406.75,1065.23C4409.94,1065.23 4412.34,1066.85 4414.04,1069.47L4396.43,1101.71ZM4415.95,1073.36C4417.29,1077.11 4417.86,1081.7 4417.86,1086.3C4417.86,1098.74 4413.97,1109.13 4405.91,1109.13C4402.51,1109.13 4400.04,1107.72 4398.34,1105.32L4415.95,1073.36Z" style="fill-rule:nonzero;"/>
        </g>
    </g>
</svg>
