<?xml version="1.0" encoding="UTF-8" standalone="no"?>
<!DOCTYPE svg PUBLIC "-//W3C//DTD SVG 1.1//EN" "http://www.w3.org/Graphics/SVG/1.1/DTD/svg11.dtd">
<svg width="100%" height="100%" viewBox="0 0 96 96" version="1.1" xmlns="http://www.w3.org/2000/svg" xmlns:xlink="http://www.w3.org/1999/xlink" xml:space="preserve" xmlns:serif="http://www.serif.com/" style="fill-rule:evenodd;clip-rule:evenodd;stroke-linejoin:round;stroke-miterlimit:2;">
    <g transform="matrix(1,0,0,1,-2009.63,-2723.28)">
        <g transform="matrix(1,0,0,1,-110.019,-3591.86)">
            <path d="M2215.25,6362.94C2215.25,6336.55 2193.85,6315.15 2167.45,6315.15C2141.05,6315.15 2119.65,6336.55 2119.65,6362.94C2119.65,6389.35 2141.05,6410.65 2167.45,6410.65C2193.85,6410.65 2215.25,6389.35 2215.25,6362.94ZM2211.15,6362.94C2211.15,6387.05 2191.55,6406.55 2167.45,6406.55C2143.35,6406.55 2123.75,6387.05 2123.75,6362.94C2123.75,6338.85 2143.35,6319.24 2167.45,6319.24C2191.55,6319.24 2211.15,6338.85 2211.15,6362.94ZM2165.15,6382.55C2165.15,6385.35 2165.05,6388.44 2165.05,6389.74C2165.05,6391.15 2167.15,6391.94 2168.65,6391.94C2169.55,6391.94 2170.15,6391.74 2170.15,6391.15C2170.15,6389.35 2169.85,6385.94 2169.85,6382.55L2169.85,6339.05L2180.15,6338.44C2180.75,6338.44 2181.35,6338.35 2182.05,6338.35C2184.55,6338.35 2187.45,6338.65 2188.55,6338.65C2189.15,6338.65 2189.45,6338.15 2189.45,6337.44C2189.45,6336.05 2188.35,6333.85 2187.05,6333.85L2186.85,6333.85C2185.55,6334.05 2182.55,6334.35 2180.05,6334.44L2154.85,6335.94L2152.75,6335.94C2150.05,6335.94 2147.35,6335.85 2146.45,6335.85C2145.85,6335.85 2145.55,6336.35 2145.55,6337.05C2145.55,6338.44 2146.65,6340.65 2148.05,6340.65L2148.15,6340.65C2149.35,6340.55 2152.15,6340.05 2154.85,6339.94L2165.15,6339.35L2165.15,6382.55Z" style="fill-rule:nonzero;"/>
        </g>
    </g>
</svg>
