<?xml version="1.0" encoding="UTF-8" standalone="no"?>
<!DOCTYPE svg PUBLIC "-//W3C//DTD SVG 1.1//EN" "http://www.w3.org/Graphics/SVG/1.1/DTD/svg11.dtd">
<svg width="100%" height="100%" viewBox="0 0 89 89" version="1.1" xmlns="http://www.w3.org/2000/svg" xmlns:xlink="http://www.w3.org/1999/xlink" xml:space="preserve" xmlns:serif="http://www.serif.com/" style="fill-rule:evenodd;clip-rule:evenodd;stroke-linejoin:round;stroke-miterlimit:2;">
    <g transform="matrix(1,0,0,1,-2302.43,-2492.27)">
        <g transform="matrix(1.41414,0,0,1.41429,-1052.39,-837.704)">
            <path d="M2429.19,2416.89C2432.58,2416.89 2434.7,2414.35 2434.7,2411.38L2434.7,2360.05C2434.7,2356.58 2432.23,2354.53 2429.19,2354.53L2377.85,2354.53C2374.39,2354.53 2372.34,2356.86 2372.34,2360.05L2372.34,2411.38C2372.34,2414.56 2374.81,2416.89 2377.85,2416.89L2429.19,2416.89ZM2406.28,2399.64C2406.28,2402.05 2406.49,2404.45 2406.49,2405.72C2406.49,2406.64 2405.78,2407.35 2404.37,2407.35C2402.81,2407.35 2400.76,2406.22 2400.76,2404.73C2400.76,2403.81 2400.83,2401.62 2400.83,2399.64L2400.83,2370.23L2394.68,2370.58C2392.77,2370.72 2390.79,2371.01 2389.94,2371.08L2389.8,2371.08C2387.82,2371.08 2386.97,2368.53 2386.97,2367.47C2386.97,2366.76 2387.33,2365.56 2388.67,2365.56C2389.31,2365.56 2391.22,2365.63 2393.12,2365.63L2394.54,2365.63L2412.36,2364.57C2413.98,2364.5 2415.89,2364.36 2417.38,2364.15C2419.29,2364.15 2420.14,2366.69 2420.14,2367.75C2420.14,2368.46 2419.78,2369.66 2418.44,2369.66C2417.66,2369.66 2415.61,2369.45 2413.84,2369.45C2413.35,2369.45 2412.99,2369.52 2412.57,2369.52L2406.28,2369.87L2406.28,2399.64Z" style="fill-rule:nonzero;"/>
        </g>
    </g>
</svg>
