<?xml version="1.0" encoding="UTF-8" standalone="no"?>
<!DOCTYPE svg PUBLIC "-//W3C//DTD SVG 1.1//EN" "http://www.w3.org/Graphics/SVG/1.1/DTD/svg11.dtd">
<svg width="100%" height="100%" viewBox="0 0 89 89" version="1.1" xmlns="http://www.w3.org/2000/svg" xmlns:xlink="http://www.w3.org/1999/xlink" xml:space="preserve" xmlns:serif="http://www.serif.com/" style="fill-rule:evenodd;clip-rule:evenodd;stroke-linejoin:round;stroke-miterlimit:2;">
    <g transform="matrix(1,0,0,1,-958.698,-2521.63)">
        <g transform="matrix(1.41414,0,0,1.41429,-177.055,-770.755)">
            <path d="M865.503,2390.31L865.503,2327.95L803.14,2327.95L803.14,2390.31L865.503,2390.31ZM837.079,2373.06C837.079,2375.47 837.291,2377.87 837.291,2379.14C837.291,2380.06 836.584,2380.77 835.17,2380.77C833.615,2380.77 831.564,2379.64 831.564,2378.15C831.564,2377.23 831.635,2375.04 831.635,2373.06L831.635,2343.65L825.483,2344C823.574,2344.14 821.594,2344.43 820.746,2344.5L820.604,2344.5C818.625,2344.5 817.776,2341.95 817.776,2340.89C817.776,2340.18 818.13,2338.98 819.473,2338.98C820.11,2338.98 822.019,2339.05 823.928,2339.05L825.342,2339.05L843.16,2337.99C844.786,2337.92 846.695,2337.78 848.18,2337.57C850.089,2337.57 850.938,2340.11 850.938,2341.17C850.938,2341.88 850.584,2343.08 849.241,2343.08C848.463,2343.08 846.413,2342.87 844.645,2342.87C844.15,2342.87 843.796,2342.94 843.372,2342.94L837.079,2343.29L837.079,2373.06Z" style="fill-rule:nonzero;"/>
        </g>
    </g>
</svg>
