<?xml version="1.0" encoding="UTF-8" standalone="no"?>
<!DOCTYPE svg PUBLIC "-//W3C//DTD SVG 1.1//EN" "http://www.w3.org/Graphics/SVG/1.1/DTD/svg11.dtd">
<svg width="100%" height="100%" viewBox="0 0 96 96" version="1.1" xmlns="http://www.w3.org/2000/svg" xmlns:xlink="http://www.w3.org/1999/xlink" xml:space="preserve" xmlns:serif="http://www.serif.com/" style="fill-rule:evenodd;clip-rule:evenodd;stroke-linejoin:round;stroke-miterlimit:2;">
    <g transform="matrix(1,0,0,1,-209.628,-4073.28)">
        <g transform="matrix(1,0,0,1,-110.019,-3591.86)">
            <path d="M415.248,7712.94C415.248,7686.55 393.848,7665.15 367.448,7665.15C341.048,7665.15 319.648,7686.55 319.648,7712.94C319.648,7739.35 341.048,7760.65 367.448,7760.65C393.848,7760.65 415.248,7739.35 415.248,7712.94ZM371.348,7732.55C371.348,7735.94 371.648,7739.35 371.648,7741.15C371.648,7742.44 370.648,7743.44 368.648,7743.44C366.448,7743.44 363.548,7741.85 363.548,7739.74C363.548,7738.44 363.648,7735.35 363.648,7732.55L363.648,7690.94L354.948,7691.44C352.248,7691.65 349.448,7692.05 348.248,7692.15L348.048,7692.15C345.248,7692.15 344.048,7688.55 344.048,7687.05C344.048,7686.05 344.548,7684.35 346.448,7684.35C347.348,7684.35 350.048,7684.44 352.748,7684.44L354.748,7684.44L379.948,7682.94C382.248,7682.85 384.948,7682.65 387.048,7682.35C389.748,7682.35 390.948,7685.94 390.948,7687.44C390.948,7688.44 390.448,7690.15 388.548,7690.15C387.448,7690.15 384.548,7689.85 382.048,7689.85C381.348,7689.85 380.848,7689.94 380.248,7689.94L371.348,7690.44L371.348,7732.55Z" style="fill-rule:nonzero;"/>
        </g>
    </g>
</svg>
