<?xml version="1.0" encoding="UTF-8" standalone="no"?>
<!DOCTYPE svg PUBLIC "-//W3C//DTD SVG 1.1//EN" "http://www.w3.org/Graphics/SVG/1.1/DTD/svg11.dtd">
<svg width="100%" height="100%" viewBox="0 0 98 90" version="1.1" xmlns="http://www.w3.org/2000/svg" xmlns:xlink="http://www.w3.org/1999/xlink" xml:space="preserve" xmlns:serif="http://www.serif.com/" style="fill-rule:evenodd;clip-rule:evenodd;stroke-linejoin:round;stroke-miterlimit:2;">
    <g transform="matrix(1,0,0,1,-6037.36,-2435.56)">
        <g transform="matrix(1,0,0,1,1,0)">
            <path d="M6115.05,2524.76C6117.35,2524.76 6134.05,2507.26 6134.05,2480.16C6134.05,2452.96 6117.35,2435.56 6115.05,2435.56C6114.35,2435.56 6113.85,2436.06 6113.85,2436.76C6113.85,2437.16 6113.95,2437.66 6114.35,2438.06C6124.15,2449.76 6128.75,2465.96 6128.75,2480.16C6128.75,2494.36 6124.15,2510.56 6114.35,2522.26C6113.95,2522.66 6113.85,2523.16 6113.85,2523.56C6113.85,2524.26 6114.35,2524.76 6115.05,2524.76ZM6082.95,2499.76C6082.95,2502.56 6082.85,2505.66 6082.85,2506.96C6082.85,2508.36 6084.95,2509.16 6086.45,2509.16C6087.35,2509.16 6087.95,2508.96 6087.95,2508.36C6087.95,2506.56 6087.65,2503.16 6087.65,2499.76L6087.65,2456.26L6097.95,2455.66C6098.55,2455.66 6099.15,2455.56 6099.85,2455.56C6102.35,2455.56 6105.25,2455.86 6106.35,2455.86C6106.95,2455.86 6107.25,2455.36 6107.25,2454.66C6107.25,2453.26 6106.15,2451.06 6104.85,2451.06L6104.65,2451.06C6103.35,2451.26 6100.35,2451.56 6097.85,2451.66L6072.65,2453.16L6070.55,2453.16C6067.85,2453.16 6065.15,2453.06 6064.25,2453.06C6063.65,2453.06 6063.35,2453.56 6063.35,2454.26C6063.35,2455.66 6064.45,2457.86 6065.85,2457.86L6065.95,2457.86C6067.15,2457.76 6069.95,2457.26 6072.65,2457.16L6082.95,2456.56L6082.95,2499.76ZM6056.55,2523.56C6056.55,2523.16 6056.45,2522.66 6056.05,2522.26C6046.26,2510.56 6041.66,2494.36 6041.66,2480.16C6041.66,2465.96 6046.26,2449.76 6056.05,2438.06C6056.45,2437.66 6056.55,2437.16 6056.55,2436.76C6056.55,2436.06 6056.05,2435.56 6055.35,2435.56C6053.05,2435.56 6036.36,2452.96 6036.36,2480.16C6036.36,2507.26 6053.05,2524.76 6055.35,2524.76C6056.05,2524.76 6056.55,2524.26 6056.55,2523.56Z" style="fill-rule:nonzero;"/>
        </g>
    </g>
</svg>
