<?xml version="1.0" encoding="UTF-8" standalone="no"?>
<!DOCTYPE svg PUBLIC "-//W3C//DTD SVG 1.1//EN" "http://www.w3.org/Graphics/SVG/1.1/DTD/svg11.dtd">
<svg width="100%" height="100%" viewBox="0 0 89 89" version="1.1" xmlns="http://www.w3.org/2000/svg" xmlns:xlink="http://www.w3.org/1999/xlink" xml:space="preserve" xmlns:serif="http://www.serif.com/" style="fill-rule:evenodd;clip-rule:evenodd;stroke-linejoin:round;stroke-miterlimit:2;">
    <g transform="matrix(1,0,0,1,-3593.27,-2481.51)">
        <g transform="matrix(1.41414,0,0,1.41429,-1389.33,-1046.26)">
            <path d="M3580.26,2556.75C3583.65,2556.75 3585.78,2554.2 3585.78,2551.23L3585.78,2499.9C3585.78,2496.43 3583.3,2494.39 3580.26,2494.39L3528.93,2494.39C3525.46,2494.39 3523.41,2496.72 3523.41,2499.9L3523.41,2551.23C3523.41,2554.41 3525.89,2556.75 3528.93,2556.75L3580.26,2556.75ZM3582.88,2551.52C3582.88,2553.07 3581.82,2553.85 3580.61,2553.85L3528.57,2553.85C3527.09,2553.85 3526.31,2552.79 3526.31,2551.52L3526.31,2499.55C3526.31,2498.13 3527.23,2497.28 3528.57,2497.28L3580.61,2497.28C3582.03,2497.28 3582.88,2498.34 3582.88,2499.55L3582.88,2551.52ZM3552.97,2539.5C3552.97,2541.48 3552.9,2543.67 3552.9,2544.59C3552.9,2545.58 3554.38,2546.14 3555.44,2546.14C3556.08,2546.14 3556.5,2546 3556.5,2545.58C3556.5,2544.3 3556.29,2541.9 3556.29,2539.5L3556.29,2508.74L3563.57,2508.31C3564,2508.31 3564.42,2508.24 3564.92,2508.24C3566.68,2508.24 3568.73,2508.45 3569.51,2508.45C3569.94,2508.45 3570.15,2508.1 3570.15,2507.61C3570.15,2506.62 3569.37,2505.06 3568.45,2505.06L3568.31,2505.06C3567.39,2505.2 3565.27,2505.41 3563.5,2505.49L3545.68,2506.55L3544.2,2506.55C3542.29,2506.55 3540.38,2506.48 3539.74,2506.48C3539.32,2506.48 3539.11,2506.83 3539.11,2507.32C3539.11,2508.31 3539.89,2509.87 3540.88,2509.87L3540.95,2509.87C3541.8,2509.8 3543.78,2509.45 3545.68,2509.38L3552.97,2508.95L3552.97,2539.5Z" style="fill-rule:nonzero;"/>
        </g>
    </g>
</svg>
