<?xml version="1.0" encoding="UTF-8" standalone="no"?>
<!DOCTYPE svg PUBLIC "-//W3C//DTD SVG 1.1//EN" "http://www.w3.org/Graphics/SVG/1.1/DTD/svg11.dtd">
<svg width="100%" height="100%" viewBox="0 0 89 89" version="1.1" xmlns="http://www.w3.org/2000/svg" xmlns:xlink="http://www.w3.org/1999/xlink" xml:space="preserve" xmlns:serif="http://www.serif.com/" style="fill-rule:evenodd;clip-rule:evenodd;stroke-linejoin:round;stroke-miterlimit:2;">
    <g transform="matrix(1,0,0,1,-1540.22,-2088.66)">
        <g transform="matrix(1,0,0,1,-1072.97,-2735.12)">
            <path d="M2701.38,4911.99L2701.38,4823.79L2613.18,4823.79L2613.18,4911.99L2701.38,4911.99ZM2697.28,4907.89L2617.28,4907.89L2617.28,4827.89L2697.28,4827.89L2697.28,4907.89ZM2654.98,4887.59C2654.98,4890.39 2654.88,4893.49 2654.88,4894.79C2654.88,4896.19 2656.98,4896.99 2658.48,4896.99C2659.38,4896.99 2659.98,4896.79 2659.98,4896.19C2659.98,4894.39 2659.68,4890.99 2659.68,4887.59L2659.68,4844.09L2669.98,4843.49C2670.58,4843.49 2671.18,4843.39 2671.88,4843.39C2674.38,4843.39 2677.28,4843.69 2678.38,4843.69C2678.98,4843.69 2679.28,4843.19 2679.28,4842.49C2679.28,4841.09 2678.18,4838.89 2676.88,4838.89L2676.68,4838.89C2675.38,4839.09 2672.38,4839.39 2669.88,4839.49L2644.68,4840.99L2642.58,4840.99C2639.88,4840.99 2637.18,4840.89 2636.28,4840.89C2635.68,4840.89 2635.38,4841.39 2635.38,4842.09C2635.38,4843.49 2636.48,4845.69 2637.88,4845.69L2637.98,4845.69C2639.18,4845.59 2641.98,4845.09 2644.68,4844.99L2654.98,4844.39L2654.98,4887.59Z" style="fill-rule:nonzero;"/>
        </g>
    </g>
</svg>
