<?xml version="1.0" encoding="UTF-8" standalone="no"?>
<!DOCTYPE svg PUBLIC "-//W3C//DTD SVG 1.1//EN" "http://www.w3.org/Graphics/SVG/1.1/DTD/svg11.dtd">
<svg width="100%" height="100%" viewBox="0 0 55 72" version="1.1" xmlns="http://www.w3.org/2000/svg" xmlns:xlink="http://www.w3.org/1999/xlink" xml:space="preserve" xmlns:serif="http://www.serif.com/" style="fill-rule:evenodd;clip-rule:evenodd;stroke-linejoin:round;stroke-miterlimit:2;">
    <g transform="matrix(1,0,0,1,-4239.43,-2772.97)">
        <g transform="matrix(1.41414,0,0,1.41429,-1534.59,-78.5653)">
            <path d="M4100.17,2058.73C4100.17,2061.21 4100.03,2063.89 4100.03,2065.02C4100.03,2066.23 4101.94,2067 4103.28,2067C4103.92,2067 4104.48,2066.79 4104.48,2066.3C4104.48,2064.67 4104.27,2061.7 4104.27,2058.8L4104.27,2020.76L4113.25,2020.27C4113.74,2020.27 4114.31,2020.2 4114.88,2020.2C4117.14,2020.2 4119.54,2020.41 4120.53,2020.41C4121.1,2020.41 4121.31,2019.91 4121.31,2019.35C4121.31,2018.07 4120.39,2016.24 4119.26,2016.24L4119.05,2016.24C4117.92,2016.45 4115.37,2016.66 4113.18,2016.8L4091.12,2018.07C4090.41,2018.07 4089.63,2018.14 4088.86,2018.14C4086.66,2018.14 4084.54,2018 4083.84,2018C4083.27,2018 4083.06,2018.43 4083.06,2019.06C4083.06,2020.27 4084.05,2022.17 4085.25,2022.17L4085.32,2022.17C4086.31,2022.11 4088.79,2021.68 4091.19,2021.54L4100.17,2021.04L4100.17,2058.73Z" style="fill-rule:nonzero;"/>
        </g>
    </g>
</svg>
