<?xml version="1.0" encoding="UTF-8" standalone="no"?>
<!DOCTYPE svg PUBLIC "-//W3C//DTD SVG 1.1//EN" "http://www.w3.org/Graphics/SVG/1.1/DTD/svg11.dtd">
<svg width="100%" height="100%" viewBox="0 0 93 71" version="1.1" xmlns="http://www.w3.org/2000/svg" xmlns:xlink="http://www.w3.org/1999/xlink" xml:space="preserve" xmlns:serif="http://www.serif.com/" style="fill-rule:evenodd;clip-rule:evenodd;stroke-linejoin:round;stroke-miterlimit:2;">
    <g transform="matrix(1,0,0,1,-4420.21,-3071.17)">
        <g transform="matrix(1.41414,0,0,1.41429,-1534.59,-78.5653)">
            <path d="M4263.36,2276.72C4268.31,2276.72 4270.57,2275.02 4270.57,2268.38C4270.57,2259.61 4259.82,2252.68 4256.43,2241.37C4256.22,2240.59 4256.08,2239.74 4256.08,2238.89C4256.08,2237.97 4256.22,2236.98 4256.36,2235.92C4259.4,2237.05 4260.46,2238.89 4260.46,2241.01C4260.46,2241.23 4260.39,2241.51 4260.39,2241.79C4260.32,2242.43 4260.25,2242.92 4260.25,2243.42C4260.25,2245.33 4261.03,2246.18 4262.94,2246.74C4265.84,2247.59 4273.12,2249.14 4273.9,2249.14C4275.38,2249.14 4276.16,2248.23 4276.23,2246.46L4276.23,2245.89C4276.23,2241.58 4274.04,2236.35 4270.29,2234.01C4265.76,2231.18 4255.72,2227.08 4243.56,2227.08C4231.4,2227.08 4221.36,2231.18 4216.84,2234.01C4213.09,2236.35 4210.9,2241.58 4210.9,2245.89L4210.9,2246.74C4211.04,2248.3 4211.82,2249.14 4213.23,2249.14C4214.01,2249.14 4221.29,2247.59 4224.19,2246.74C4226.1,2246.18 4226.88,2245.33 4226.88,2243.42C4226.88,2242.92 4226.81,2242.43 4226.73,2241.79C4226.73,2241.51 4226.66,2241.23 4226.66,2241.01C4226.66,2238.89 4227.72,2237.05 4230.76,2235.92C4230.91,2236.98 4231.05,2237.9 4231.05,2238.89C4231.05,2239.74 4230.91,2240.59 4230.69,2241.37C4227.3,2252.68 4216.55,2259.75 4216.55,2268.38C4216.55,2275.24 4219.52,2276.72 4223.76,2276.72L4263.36,2276.72ZM4250.21,2234.65C4250.21,2238.68 4244.55,2238.68 4243.56,2238.68C4242.57,2238.68 4236.92,2238.68 4236.92,2234.65C4238.75,2234.44 4240.95,2234.3 4243.56,2234.3C4246.18,2234.3 4248.37,2234.44 4250.21,2234.65ZM4256.78,2255.01C4256.78,2261.59 4250.85,2266.89 4243.56,2266.89C4236.28,2266.89 4230.34,2261.59 4230.34,2255.01C4230.34,2248.44 4236.28,2243.14 4243.56,2243.14C4250.85,2243.14 4256.78,2248.44 4256.78,2255.01Z" style="fill-rule:nonzero;"/>
        </g>
    </g>
</svg>
