<?xml version="1.0" encoding="UTF-8" standalone="no"?>
<!DOCTYPE svg PUBLIC "-//W3C//DTD SVG 1.1//EN" "http://www.w3.org/Graphics/SVG/1.1/DTD/svg11.dtd">
<svg width="100%" height="100%" viewBox="0 0 64 73" version="1.1" xmlns="http://www.w3.org/2000/svg" xmlns:xlink="http://www.w3.org/1999/xlink" xml:space="preserve" xmlns:serif="http://www.serif.com/" style="fill-rule:evenodd;clip-rule:evenodd;stroke-linejoin:round;stroke-miterlimit:2;">
    <g transform="matrix(1,0,0,1,-4734.08,-2472.67)">
        <g transform="matrix(1.41414,0,0,1.41429,-1534.59,-78.5653)">
            <path d="M4444.72,1808.64C4444.3,1808.22 4443.66,1807.86 4442.89,1807.86C4439.63,1807.86 4432.85,1818.82 4432.85,1830.35C4432.85,1844.7 4439.7,1855.31 4454.84,1855.31C4470.74,1855.31 4477.96,1843 4477.96,1828.51C4477.96,1814.3 4470.11,1803.9 4457.59,1803.9C4452.08,1803.9 4448.12,1805.74 4444.72,1808.64ZM4454.27,1851.49C4441.61,1851.49 4436.81,1841.59 4436.81,1830.21C4436.81,1815 4448.9,1807.44 4457.17,1807.44C4468.98,1807.44 4473.86,1818.18 4473.86,1827.94C4473.86,1839.96 4468.91,1851.49 4454.27,1851.49ZM4469.4,1827.1C4467.92,1827.16 4465.23,1827.45 4463.53,1827.45L4448.82,1827.73C4447.76,1827.73 4446.7,1827.8 4445.64,1827.8C4444.16,1827.8 4442.74,1827.73 4441.47,1827.66L4441.4,1827.66C4440.76,1827.66 4440.55,1828.15 4440.55,1828.86C4440.55,1829.92 4441.26,1831.41 4442.32,1831.41L4442.39,1831.41C4444.23,1831.27 4446.85,1831.05 4448.9,1830.98L4463.6,1830.63C4465.51,1830.56 4468.41,1830.56 4470.11,1830.56C4470.74,1830.56 4471.03,1829.99 4471.03,1829.36C4471.03,1828.37 4470.39,1827.1 4469.47,1827.1L4469.4,1827.1Z" style="fill-rule:nonzero;"/>
        </g>
    </g>
</svg>
