<?xml version="1.0" encoding="UTF-8" standalone="no"?>
<!DOCTYPE svg PUBLIC "-//W3C//DTD SVG 1.1//EN" "http://www.w3.org/Graphics/SVG/1.1/DTD/svg11.dtd">
<svg width="100%" height="100%" viewBox="0 0 70 39" version="1.1" xmlns="http://www.w3.org/2000/svg" xmlns:xlink="http://www.w3.org/1999/xlink" xml:space="preserve" xmlns:serif="http://www.serif.com/" style="fill-rule:evenodd;clip-rule:evenodd;stroke-linejoin:round;stroke-miterlimit:2;">
    <g transform="matrix(1,0,0,1,-4493.01,-1868.57)">
        <g transform="matrix(1.41414,0,0,1.41429,-1534.59,-78.5653)">
            <path d="M4311.58,1402.5C4311.3,1400.73 4311.02,1398.82 4310.95,1397.69C4310.52,1392.95 4309.89,1386.73 4309.25,1380.44L4309.25,1380.15C4309.25,1379.59 4309.39,1379.16 4309.39,1378.67C4309.39,1377.96 4307.13,1376.76 4306.14,1376.76C4305.01,1376.76 4304.72,1377.61 4304.3,1378.6C4302.25,1383.69 4299.77,1389.84 4297.72,1395.29C4296.03,1390.9 4294.05,1385.39 4291.86,1378.81C4291.5,1377.89 4291.15,1376.97 4290.09,1376.97C4288.96,1376.97 4287.26,1377.96 4287.12,1378.67L4287.12,1378.95C4287.12,1379.31 4287.19,1379.73 4287.19,1380.23L4287.19,1380.58C4286.06,1395.36 4285.56,1399.25 4285.07,1402.43L4285.07,1402.57C4285.07,1403.28 4286.06,1403.63 4286.98,1403.63C4287.9,1403.63 4288.89,1403.28 4288.89,1402.57C4288.89,1401.79 4289.03,1399.53 4290.37,1384.33C4291.86,1388.64 4293.69,1393.59 4295.11,1397.12C4295.25,1397.41 4295.67,1398.47 4295.82,1399.11C4296.03,1399.81 4296.73,1400.1 4297.51,1400.1C4298.57,1400.1 4299.77,1399.53 4299.92,1398.47C4299.99,1398.04 4300.91,1394.93 4305.93,1383.34C4306.42,1387.08 4307.48,1396.13 4307.69,1402.64C4307.69,1403.49 4308.54,1403.84 4309.39,1403.84C4310.38,1403.84 4311.58,1403.35 4311.58,1402.64L4311.58,1402.5ZM4271.21,1398.26C4271.21,1399.46 4271.14,1401.65 4271.14,1402.22C4271.14,1403.13 4272.41,1403.63 4273.54,1403.63C4274.32,1403.63 4274.96,1403.42 4274.96,1402.92C4274.96,1402.07 4274.82,1399.74 4274.82,1398.26L4274.82,1380.58L4279.34,1380.37C4279.98,1380.3 4280.54,1380.3 4281.11,1380.3C4281.67,1380.3 4282.31,1380.3 4282.88,1380.37C4283.44,1380.37 4283.72,1379.87 4283.72,1379.16C4283.72,1378.11 4283.09,1376.76 4282.17,1376.76L4282.03,1376.76C4281.18,1376.9 4280.12,1377.04 4279.13,1377.12L4266.68,1377.75L4265.62,1377.75C4264.7,1377.75 4263.78,1377.75 4263.15,1377.68L4263.08,1377.68C4262.58,1377.68 4262.37,1378.17 4262.37,1378.81C4262.37,1379.87 4263.01,1381.36 4263.86,1381.36L4263.93,1381.36L4266.9,1381L4271.21,1380.79L4271.21,1398.26Z" style="fill-rule:nonzero;"/>
        </g>
    </g>
</svg>
