<?xml version="1.0" encoding="UTF-8" standalone="no"?>
<!DOCTYPE svg PUBLIC "-//W3C//DTD SVG 1.1//EN" "http://www.w3.org/Graphics/SVG/1.1/DTD/svg11.dtd">
<svg width="100%" height="100%" viewBox="0 0 96 96" version="1.1" xmlns="http://www.w3.org/2000/svg" xmlns:xlink="http://www.w3.org/1999/xlink" xml:space="preserve" xmlns:serif="http://www.serif.com/" style="fill-rule:evenodd;clip-rule:evenodd;stroke-linejoin:round;stroke-miterlimit:2;">
    <g transform="matrix(1,0,0,1,-2109.63,-2723.28)">
        <g transform="matrix(1,0,0,1,-110.019,-3591.86)">
            <path d="M2315.25,6362.94C2315.25,6336.55 2293.85,6315.15 2267.45,6315.15C2241.05,6315.15 2219.65,6336.55 2219.65,6362.94C2219.65,6389.35 2241.05,6410.65 2267.45,6410.65C2293.85,6410.65 2315.25,6389.35 2315.25,6362.94ZM2311.15,6362.94C2311.15,6387.05 2291.55,6406.55 2267.45,6406.55C2243.35,6406.55 2223.75,6387.05 2223.75,6362.94C2223.75,6338.85 2243.35,6319.24 2267.45,6319.24C2291.55,6319.24 2311.15,6338.85 2311.15,6362.94ZM2283.35,6371.55C2283.35,6381.24 2276.95,6388.24 2266.85,6388.24C2257.35,6388.24 2252.65,6384.05 2252.65,6374.15L2252.65,6343.85C2252.65,6341.05 2252.75,6337.44 2252.75,6336.15C2252.75,6334.85 2250.75,6334.05 2249.25,6334.05C2248.35,6334.05 2247.65,6334.35 2247.65,6334.94C2247.65,6336.74 2247.95,6340.44 2247.95,6343.74L2247.95,6375.15C2247.95,6386.44 2253.85,6392.44 2266.85,6392.44C2279.55,6392.44 2287.95,6384.55 2287.95,6372.55L2287.95,6343.05C2287.95,6340.24 2288.15,6337.24 2288.15,6335.94C2288.15,6334.65 2286.15,6333.85 2284.65,6333.85C2283.75,6333.85 2283.05,6334.15 2283.05,6334.74C2283.05,6336.05 2283.35,6340.85 2283.35,6343.05L2283.35,6371.55Z" style="fill-rule:nonzero;"/>
        </g>
    </g>
</svg>
