<?xml version="1.0" encoding="UTF-8" standalone="no"?>
<!DOCTYPE svg PUBLIC "-//W3C//DTD SVG 1.1//EN" "http://www.w3.org/Graphics/SVG/1.1/DTD/svg11.dtd">
<svg width="100%" height="100%" viewBox="0 0 89 89" version="1.1" xmlns="http://www.w3.org/2000/svg" xmlns:xlink="http://www.w3.org/1999/xlink" xml:space="preserve" xmlns:serif="http://www.serif.com/" style="fill-rule:evenodd;clip-rule:evenodd;stroke-linejoin:round;stroke-miterlimit:2;">
    <g transform="matrix(1,0,0,1,-1058.69,-2521.63)">
        <g transform="matrix(1.41414,0,0,1.41429,-177.055,-770.755)">
            <path d="M936.211,2390.31L936.211,2327.95L873.847,2327.95L873.847,2390.31L936.211,2390.31ZM920.584,2365.99C920.584,2375.11 914.079,2381.12 904.604,2381.12C894.918,2381.12 890.18,2376.45 890.18,2367.83L890.18,2345.63C890.18,2343.29 889.968,2340.68 889.968,2339.41C889.968,2338.49 890.817,2337.71 892.16,2337.71C893.786,2337.71 895.695,2338.84 895.695,2340.25C895.695,2341.17 895.625,2343.72 895.625,2345.7L895.625,2367.12C895.625,2373.49 898.453,2376.03 904.604,2376.03C911.11,2376.03 915.211,2371.58 915.211,2365.28L915.211,2345.13C915.211,2343.58 914.998,2340.18 914.998,2339.26C914.998,2338.34 915.847,2337.57 917.19,2337.57C918.817,2337.57 920.726,2338.7 920.726,2340.11C920.726,2341.03 920.584,2343.15 920.584,2345.13L920.584,2365.99Z" style="fill-rule:nonzero;"/>
        </g>
    </g>
</svg>
