<?xml version="1.0" encoding="UTF-8" standalone="no"?>
<!DOCTYPE svg PUBLIC "-//W3C//DTD SVG 1.1//EN" "http://www.w3.org/Graphics/SVG/1.1/DTD/svg11.dtd">
<svg width="100%" height="100%" viewBox="0 0 89 89" version="1.1" xmlns="http://www.w3.org/2000/svg" xmlns:xlink="http://www.w3.org/1999/xlink" xml:space="preserve" xmlns:serif="http://www.serif.com/" style="fill-rule:evenodd;clip-rule:evenodd;stroke-linejoin:round;stroke-miterlimit:2;">
    <g transform="matrix(1,0,0,1,-2402.42,-2492.27)">
        <g transform="matrix(1.41414,0,0,1.41429,-1052.39,-837.704)">
            <path d="M2499.89,2416.89C2503.29,2416.89 2505.41,2414.35 2505.41,2411.38L2505.41,2360.05C2505.41,2356.58 2502.93,2354.53 2499.89,2354.53L2448.56,2354.53C2445.1,2354.53 2443.04,2356.86 2443.04,2360.05L2443.04,2411.38C2443.04,2414.56 2445.52,2416.89 2448.56,2416.89L2499.89,2416.89ZM2489.78,2392.57C2489.78,2401.69 2483.28,2407.7 2473.8,2407.7C2464.12,2407.7 2459.38,2403.03 2459.38,2394.41L2459.38,2372.21C2459.38,2369.87 2459.17,2367.26 2459.17,2365.98C2459.17,2365.07 2460.01,2364.29 2461.36,2364.29C2462.98,2364.29 2464.89,2365.42 2464.89,2366.83C2464.89,2367.75 2464.82,2370.3 2464.82,2372.28L2464.82,2393.7C2464.82,2400.07 2467.65,2402.61 2473.8,2402.61C2480.31,2402.61 2484.41,2398.16 2484.41,2391.86L2484.41,2371.71C2484.41,2370.16 2484.2,2366.76 2484.2,2365.84C2484.2,2364.92 2485.04,2364.15 2486.39,2364.15C2488.01,2364.15 2489.92,2365.28 2489.92,2366.69C2489.92,2367.61 2489.78,2369.73 2489.78,2371.71L2489.78,2392.57Z" style="fill-rule:nonzero;"/>
        </g>
    </g>
</svg>
