<?xml version="1.0" encoding="UTF-8" standalone="no"?>
<!DOCTYPE svg PUBLIC "-//W3C//DTD SVG 1.1//EN" "http://www.w3.org/Graphics/SVG/1.1/DTD/svg11.dtd">
<svg width="100%" height="100%" viewBox="0 0 96 96" version="1.1" xmlns="http://www.w3.org/2000/svg" xmlns:xlink="http://www.w3.org/1999/xlink" xml:space="preserve" xmlns:serif="http://www.serif.com/" style="fill-rule:evenodd;clip-rule:evenodd;stroke-linejoin:round;stroke-miterlimit:2;">
    <g transform="matrix(1,0,0,1,-309.628,-4073.28)">
        <g transform="matrix(1,0,0,1,-110.019,-3591.86)">
            <path d="M515.248,7712.94C515.248,7686.55 493.848,7665.15 467.448,7665.15C441.048,7665.15 419.648,7686.55 419.648,7712.94C419.648,7739.35 441.048,7760.65 467.448,7760.65C493.848,7760.65 515.248,7739.35 515.248,7712.94ZM489.448,7722.55C489.448,7735.44 480.248,7743.94 466.848,7743.94C453.148,7743.94 446.448,7737.35 446.448,7725.15L446.448,7693.74C446.448,7690.44 446.148,7686.74 446.148,7684.94C446.148,7683.65 447.348,7682.55 449.248,7682.55C451.548,7682.55 454.248,7684.15 454.248,7686.15C454.248,7687.44 454.148,7691.05 454.148,7693.85L454.148,7724.15C454.148,7733.15 458.148,7736.74 466.848,7736.74C476.048,7736.74 481.848,7730.44 481.848,7721.55L481.848,7693.05C481.848,7690.85 481.548,7686.05 481.548,7684.74C481.548,7683.44 482.748,7682.35 484.648,7682.35C486.948,7682.35 489.648,7683.94 489.648,7685.94C489.648,7687.24 489.448,7690.24 489.448,7693.05L489.448,7722.55Z" style="fill-rule:nonzero;"/>
        </g>
    </g>
</svg>
