<?xml version="1.0" encoding="UTF-8" standalone="no"?>
<!DOCTYPE svg PUBLIC "-//W3C//DTD SVG 1.1//EN" "http://www.w3.org/Graphics/SVG/1.1/DTD/svg11.dtd">
<svg width="100%" height="100%" viewBox="0 0 98 90" version="1.1" xmlns="http://www.w3.org/2000/svg" xmlns:xlink="http://www.w3.org/1999/xlink" xml:space="preserve" xmlns:serif="http://www.serif.com/" style="fill-rule:evenodd;clip-rule:evenodd;stroke-linejoin:round;stroke-miterlimit:2;">
    <g transform="matrix(1,0,0,1,-5137.45,-2585.56)">
        <g transform="matrix(1,0,0,1,1,0)">
            <path d="M5215.14,2674.76C5217.44,2674.76 5234.14,2657.26 5234.14,2630.16C5234.14,2602.96 5217.44,2585.56 5215.14,2585.56C5214.44,2585.56 5213.94,2586.06 5213.94,2586.76C5213.94,2587.16 5214.04,2587.66 5214.44,2588.06C5224.24,2599.76 5228.84,2615.96 5228.84,2630.16C5228.84,2644.36 5224.24,2660.56 5214.44,2672.26C5214.04,2672.66 5213.94,2673.16 5213.94,2673.56C5213.94,2674.26 5214.44,2674.76 5215.14,2674.76ZM5156.65,2673.56C5156.65,2673.16 5156.55,2672.66 5156.15,2672.26C5146.35,2660.56 5141.75,2644.36 5141.75,2630.16C5141.75,2615.96 5146.35,2599.76 5156.15,2588.06C5156.55,2587.66 5156.65,2587.16 5156.65,2586.76C5156.65,2586.06 5156.15,2585.56 5155.45,2585.56C5153.15,2585.56 5136.45,2602.96 5136.45,2630.16C5136.45,2657.26 5153.15,2674.76 5155.45,2674.76C5156.15,2674.76 5156.65,2674.26 5156.65,2673.56ZM5201.24,2638.76C5201.24,2648.46 5194.84,2655.46 5184.74,2655.46C5175.24,2655.46 5170.55,2651.26 5170.55,2641.36L5170.55,2611.06C5170.55,2608.26 5170.64,2604.66 5170.64,2603.36C5170.64,2602.06 5168.65,2601.26 5167.15,2601.26C5166.24,2601.26 5165.55,2601.56 5165.55,2602.16C5165.55,2603.96 5165.85,2607.66 5165.85,2610.96L5165.85,2642.36C5165.85,2653.66 5171.74,2659.66 5184.74,2659.66C5197.44,2659.66 5205.84,2651.76 5205.84,2639.76L5205.84,2610.26C5205.84,2607.46 5206.04,2604.46 5206.04,2603.16C5206.04,2601.86 5204.04,2601.06 5202.54,2601.06C5201.64,2601.06 5200.94,2601.36 5200.94,2601.96C5200.94,2603.26 5201.24,2608.06 5201.24,2610.26L5201.24,2638.76Z" style="fill-rule:nonzero;"/>
        </g>
    </g>
</svg>
