<?xml version="1.0" encoding="UTF-8" standalone="no"?>
<!DOCTYPE svg PUBLIC "-//W3C//DTD SVG 1.1//EN" "http://www.w3.org/Graphics/SVG/1.1/DTD/svg11.dtd">
<svg width="100%" height="100%" viewBox="0 0 89 89" version="1.1" xmlns="http://www.w3.org/2000/svg" xmlns:xlink="http://www.w3.org/1999/xlink" xml:space="preserve" xmlns:serif="http://www.serif.com/" style="fill-rule:evenodd;clip-rule:evenodd;stroke-linejoin:round;stroke-miterlimit:2;">
    <g transform="matrix(1,0,0,1,-3693.26,-2481.51)">
        <g transform="matrix(1.41414,0,0,1.41429,-1389.33,-1046.26)">
            <path d="M3650.97,2556.75C3654.36,2556.75 3656.48,2554.2 3656.48,2551.23L3656.48,2499.9C3656.48,2496.43 3654.01,2494.39 3650.97,2494.39L3599.63,2494.39C3596.17,2494.39 3594.12,2496.72 3594.12,2499.9L3594.12,2551.23C3594.12,2554.41 3596.59,2556.75 3599.63,2556.75L3650.97,2556.75ZM3653.58,2551.52C3653.58,2553.07 3652.52,2553.85 3651.32,2553.85L3599.28,2553.85C3597.8,2553.85 3597.02,2552.79 3597.02,2551.52L3597.02,2499.55C3597.02,2498.13 3597.94,2497.28 3599.28,2497.28L3651.32,2497.28C3652.73,2497.28 3653.58,2498.34 3653.58,2499.55L3653.58,2551.52ZM3636.54,2531.72C3636.54,2538.58 3632.02,2543.53 3624.88,2543.53C3618.16,2543.53 3614.84,2540.56 3614.84,2533.56L3614.84,2512.13C3614.84,2510.15 3614.91,2507.61 3614.91,2506.69C3614.91,2505.77 3613.49,2505.2 3612.43,2505.2C3611.8,2505.2 3611.3,2505.41 3611.3,2505.84C3611.3,2507.11 3611.51,2509.73 3611.51,2512.06L3611.51,2534.26C3611.51,2542.25 3615.68,2546.5 3624.88,2546.5C3633.86,2546.5 3639.8,2540.91 3639.8,2532.43L3639.8,2511.57C3639.8,2509.59 3639.94,2507.47 3639.94,2506.55C3639.94,2505.63 3638.52,2505.06 3637.46,2505.06C3636.83,2505.06 3636.33,2505.27 3636.33,2505.7C3636.33,2506.62 3636.54,2510.01 3636.54,2511.57L3636.54,2531.72Z" style="fill-rule:nonzero;"/>
        </g>
    </g>
</svg>
