<?xml version="1.0" encoding="UTF-8" standalone="no"?>
<!DOCTYPE svg PUBLIC "-//W3C//DTD SVG 1.1//EN" "http://www.w3.org/Graphics/SVG/1.1/DTD/svg11.dtd">
<svg width="100%" height="100%" viewBox="0 0 89 89" version="1.1" xmlns="http://www.w3.org/2000/svg" xmlns:xlink="http://www.w3.org/1999/xlink" xml:space="preserve" xmlns:serif="http://www.serif.com/" style="fill-rule:evenodd;clip-rule:evenodd;stroke-linejoin:round;stroke-miterlimit:2;">
    <g transform="matrix(1,0,0,1,-1640.22,-2088.66)">
        <g transform="matrix(1,0,0,1,-1072.97,-2735.12)">
            <path d="M2801.38,4911.99L2801.38,4823.79L2713.18,4823.79L2713.18,4911.99L2801.38,4911.99ZM2797.28,4907.89L2717.28,4907.89L2717.28,4827.89L2797.28,4827.89L2797.28,4907.89ZM2773.18,4876.59C2773.18,4886.29 2766.78,4893.29 2756.68,4893.29C2747.18,4893.29 2742.48,4889.09 2742.48,4879.19L2742.48,4848.89C2742.48,4846.09 2742.58,4842.49 2742.58,4841.19C2742.58,4839.89 2740.58,4839.09 2739.08,4839.09C2738.18,4839.09 2737.48,4839.39 2737.48,4839.99C2737.48,4841.79 2737.78,4845.49 2737.78,4848.79L2737.78,4880.19C2737.78,4891.49 2743.68,4897.49 2756.68,4897.49C2769.38,4897.49 2777.78,4889.59 2777.78,4877.59L2777.78,4848.09C2777.78,4845.29 2777.98,4842.29 2777.98,4840.99C2777.98,4839.69 2775.98,4838.89 2774.48,4838.89C2773.58,4838.89 2772.88,4839.19 2772.88,4839.79C2772.88,4841.09 2773.18,4845.89 2773.18,4848.09L2773.18,4876.59Z" style="fill-rule:nonzero;"/>
        </g>
    </g>
</svg>
