<?xml version="1.0" encoding="UTF-8" standalone="no"?>
<!DOCTYPE svg PUBLIC "-//W3C//DTD SVG 1.1//EN" "http://www.w3.org/Graphics/SVG/1.1/DTD/svg11.dtd">
<svg width="100%" height="100%" viewBox="0 0 69 88" version="1.1" xmlns="http://www.w3.org/2000/svg" xmlns:xlink="http://www.w3.org/1999/xlink" xml:space="preserve" xmlns:serif="http://www.serif.com/" style="fill-rule:evenodd;clip-rule:evenodd;stroke-linejoin:round;stroke-miterlimit:2;">
    <g transform="matrix(1,0,0,1,-4732.18,-3062.07)">
        <g transform="matrix(1.41414,0,0,1.41429,-1534.59,-78.5653)">
            <path d="M4441.54,2281.11C4441.54,2281.95 4442.32,2282.38 4443.17,2282.38C4443.95,2282.38 4444.8,2281.95 4444.8,2281.11L4444.8,2227.58C4447.34,2232.39 4450.24,2236.42 4451.86,2238.47C4452.08,2238.75 4452.43,2238.89 4452.78,2238.89C4453.7,2238.89 4454.84,2238.12 4454.84,2237.34C4454.84,2237.12 4454.76,2236.98 4454.62,2236.77C4453.85,2235.71 4452.71,2234.44 4452.22,2233.73C4449.74,2230.27 4446.7,2226.02 4444.58,2221.43C4444.37,2220.93 4443.73,2220.65 4443.17,2220.65C4442.6,2220.65 4441.97,2220.93 4441.75,2221.43C4439.7,2226.1 4436.59,2230.27 4434.12,2233.73C4433.62,2234.44 4432.49,2235.71 4431.71,2236.77C4431.57,2236.98 4431.5,2237.12 4431.5,2237.34C4431.5,2238.12 4432.63,2238.89 4433.55,2238.89C4433.91,2238.89 4434.26,2238.75 4434.47,2238.47C4436.1,2236.42 4439,2232.39 4441.54,2227.58L4441.54,2281.11ZM4466.5,2275.66C4463.96,2270.85 4461.06,2266.82 4459.43,2264.77C4459.22,2264.49 4458.86,2264.35 4458.51,2264.35C4457.59,2264.35 4456.46,2265.12 4456.46,2265.9C4456.46,2266.12 4456.53,2266.26 4456.67,2266.47C4457.45,2267.53 4458.58,2268.8 4459.08,2269.51C4461.55,2272.97 4464.59,2277.22 4466.71,2281.81C4466.93,2282.31 4467.56,2282.59 4468.13,2282.59C4468.69,2282.59 4469.33,2282.31 4469.54,2281.81C4471.59,2277.14 4474.7,2272.97 4477.18,2269.51C4477.67,2268.8 4478.81,2267.53 4479.58,2266.47C4479.72,2266.26 4479.8,2266.12 4479.8,2265.9C4479.8,2265.12 4478.66,2264.35 4477.74,2264.35C4477.39,2264.35 4477.04,2264.49 4476.82,2264.77C4475.2,2266.82 4472.3,2270.85 4469.75,2275.66L4469.75,2222.14C4469.75,2221.29 4468.98,2220.86 4468.13,2220.86C4467.35,2220.86 4466.5,2221.29 4466.5,2222.14L4466.5,2275.66Z" style="fill-rule:nonzero;"/>
        </g>
    </g>
</svg>
