<?xml version="1.0" encoding="UTF-8" standalone="no"?>
<!DOCTYPE svg PUBLIC "-//W3C//DTD SVG 1.1//EN" "http://www.w3.org/Graphics/SVG/1.1/DTD/svg11.dtd">
<svg width="100%" height="100%" viewBox="0 0 69 90" version="1.1" xmlns="http://www.w3.org/2000/svg" xmlns:xlink="http://www.w3.org/1999/xlink" xml:space="preserve" xmlns:serif="http://www.serif.com/" style="fill-rule:evenodd;clip-rule:evenodd;stroke-linejoin:round;stroke-miterlimit:2;">
    <g transform="matrix(1,0,0,1,-1681.48,-5569.77)">
        <g transform="matrix(1,0,0,1,-504.034,-1124.47)">
            <path d="M2238.21,6778.54C2240.01,6782.04 2242.61,6784.04 2246.61,6784.04C2250.81,6784.04 2254.11,6780.34 2254.11,6774.34C2254.11,6768.94 2252.51,6759.64 2241.71,6759.64C2240.91,6759.64 2240.21,6759.64 2239.51,6759.74L2238.71,6759.74C2236.31,6759.74 2234.21,6758.54 2232.51,6755.94C2222.91,6741.34 2210.21,6718.14 2196.71,6695.34C2196.31,6694.54 2195.81,6694.24 2195.41,6694.24C2194.41,6694.24 2193.51,6696.04 2193.51,6697.54C2193.51,6697.94 2193.61,6698.34 2193.81,6698.74L2216.41,6742.94C2218.11,6746.34 2219.01,6747.04 2221.51,6748.04C2223.51,6748.84 2224.31,6750.54 2225.31,6752.54L2238.21,6778.54ZM2200.11,6759.74C2199.41,6759.64 2198.71,6759.64 2197.91,6759.64C2187.21,6759.64 2185.51,6768.94 2185.51,6774.34C2185.51,6780.34 2188.81,6784.04 2193.01,6784.04C2197.01,6784.04 2199.61,6782.04 2201.41,6778.54C2205.41,6770.54 2213.91,6753.34 2217.11,6747.04L2215.01,6743.34C2206.41,6757.84 2205.11,6759.74 2200.91,6759.74L2200.11,6759.74ZM2224.61,6740.24C2230.41,6728.74 2237.61,6714.64 2245.81,6698.74C2246.01,6698.34 2246.11,6697.94 2246.11,6697.54C2246.11,6696.04 2245.21,6694.24 2244.21,6694.24C2243.81,6694.24 2243.31,6694.54 2242.91,6695.34C2235.01,6708.54 2227.51,6721.84 2220.71,6733.64L2224.61,6740.24ZM2246.51,6780.54C2242.91,6780.54 2241.21,6776.94 2237.61,6768.84C2237.21,6768.04 2237.11,6767.34 2237.11,6766.64C2237.11,6764.54 2238.91,6763.24 2242.41,6763.24C2247.71,6763.24 2250.31,6769.04 2250.31,6774.44C2250.31,6778.04 2248.61,6780.54 2246.51,6780.54ZM2198.21,6776.74C2197.11,6779.04 2195.31,6780.54 2193.11,6780.54C2191.01,6780.54 2189.31,6778.04 2189.31,6774.44C2189.31,6769.04 2191.91,6763.24 2197.21,6763.24C2200.71,6763.24 2202.51,6764.54 2202.51,6766.64C2202.51,6767.74 2202.51,6767.74 2198.21,6776.74Z" style="fill-rule:nonzero;"/>
        </g>
    </g>
</svg>
