<?xml version="1.0" encoding="UTF-8" standalone="no"?>
<!DOCTYPE svg PUBLIC "-//W3C//DTD SVG 1.1//EN" "http://www.w3.org/Graphics/SVG/1.1/DTD/svg11.dtd">
<svg width="100%" height="100%" viewBox="0 0 62 72" version="1.1" xmlns="http://www.w3.org/2000/svg" xmlns:xlink="http://www.w3.org/1999/xlink" xml:space="preserve" xmlns:serif="http://www.serif.com/" style="fill-rule:evenodd;clip-rule:evenodd;stroke-linejoin:round;stroke-miterlimit:2;">
    <g transform="matrix(1,0,0,1,-4336.02,-2772.77)">
        <g transform="matrix(1.41414,0,0,1.41429,-1534.59,-78.5653)">
            <path d="M4170.95,2058.66C4170.95,2060.36 4170.81,2063.82 4170.81,2064.95C4170.81,2066.16 4172.71,2066.93 4174.06,2066.93C4174.76,2066.93 4175.26,2066.72 4175.26,2066.23C4175.26,2064.6 4175.05,2060.5 4175.05,2058.73L4175.05,2044.87C4175.05,2036.39 4176.74,2029.88 4181.84,2024.3C4184.24,2021.68 4187.99,2020.34 4192.02,2020.34C4192.58,2020.34 4193.15,2020.34 4193.71,2020.41L4193.78,2020.41C4194.42,2020.41 4194.7,2019.77 4194.7,2018.99C4194.7,2017.72 4193.93,2016.1 4192.51,2016.1C4177.73,2016.1 4174.13,2028.82 4173,2033.21C4169.11,2016.52 4156.59,2016.1 4153.48,2016.1C4152.07,2016.1 4151.36,2017.72 4151.36,2018.99C4151.36,2019.77 4151.64,2020.41 4152.21,2020.41L4152.28,2020.41C4152.85,2020.34 4153.41,2020.34 4153.98,2020.34C4158.01,2020.34 4161.75,2021.68 4164.16,2024.3C4169.25,2029.88 4170.95,2036.39 4170.95,2044.87L4170.95,2058.66Z" style="fill-rule:nonzero;"/>
        </g>
    </g>
</svg>
