<?xml version="1.0" encoding="UTF-8" standalone="no"?>
<!DOCTYPE svg PUBLIC "-//W3C//DTD SVG 1.1//EN" "http://www.w3.org/Graphics/SVG/1.1/DTD/svg11.dtd">
<svg width="100%" height="100%" viewBox="0 0 89 89" version="1.1" xmlns="http://www.w3.org/2000/svg" xmlns:xlink="http://www.w3.org/1999/xlink" xml:space="preserve" xmlns:serif="http://www.serif.com/" style="fill-rule:evenodd;clip-rule:evenodd;stroke-linejoin:round;stroke-miterlimit:2;">
    <g transform="matrix(1,0,0,1,-2502.41,-2492.27)">
        <g transform="matrix(1.41414,0,0,1.41429,-1052.39,-837.704)">
            <path d="M2570.6,2416.89C2573.99,2416.89 2576.12,2414.35 2576.12,2411.38L2576.12,2360.05C2576.12,2356.58 2573.64,2354.53 2570.6,2354.53L2519.27,2354.53C2515.8,2354.53 2513.75,2356.86 2513.75,2360.05L2513.75,2411.38C2513.75,2414.56 2516.23,2416.89 2519.27,2416.89L2570.6,2416.89ZM2544.79,2398.3C2548.75,2387.55 2552.99,2377.01 2556.03,2369.87C2556.46,2368.88 2557.02,2366.83 2557.45,2365.42C2557.73,2364.29 2558.72,2364.08 2559.36,2364.08C2560.7,2364.08 2563.39,2365.28 2563.39,2367.19C2563.39,2367.47 2563.32,2367.82 2563.11,2368.18C2560.91,2371.15 2550.94,2395.05 2547.69,2405.65C2547.34,2406.92 2546.35,2407.7 2545.22,2407.7C2543.38,2407.7 2541.89,2405.93 2541.04,2403.39C2537.44,2392.78 2532.77,2380.48 2528.95,2370.93C2528.32,2369.31 2527.47,2368.03 2527.04,2366.97C2526.97,2366.69 2526.9,2366.41 2526.9,2366.27C2526.9,2365.35 2528.03,2364.43 2529.59,2364.43C2531.22,2364.43 2532.84,2365.21 2533.12,2366.27C2533.41,2367.26 2533.76,2368.25 2534.12,2369.17C2537.58,2377.93 2541.4,2388.26 2544.79,2398.3Z" style="fill-rule:nonzero;"/>
        </g>
    </g>
</svg>
