<?xml version="1.0" encoding="UTF-8" standalone="no"?>
<!DOCTYPE svg PUBLIC "-//W3C//DTD SVG 1.1//EN" "http://www.w3.org/Graphics/SVG/1.1/DTD/svg11.dtd">
<svg width="100%" height="100%" viewBox="0 0 89 89" version="1.1" xmlns="http://www.w3.org/2000/svg" xmlns:xlink="http://www.w3.org/1999/xlink" xml:space="preserve" xmlns:serif="http://www.serif.com/" style="fill-rule:evenodd;clip-rule:evenodd;stroke-linejoin:round;stroke-miterlimit:2;">
    <g transform="matrix(1,0,0,1,-1158.68,-2521.63)">
        <g transform="matrix(1.41414,0,0,1.41429,-177.055,-770.755)">
            <path d="M1006.92,2390.31L1006.92,2327.95L944.554,2327.95L944.554,2390.31L1006.92,2390.31ZM975.594,2371.72C979.554,2360.97 983.796,2350.43 986.837,2343.29C987.261,2342.3 987.827,2340.25 988.251,2338.84C988.534,2337.71 989.524,2337.5 990.16,2337.5C991.503,2337.5 994.19,2338.7 994.19,2340.61C994.19,2340.89 994.12,2341.24 993.908,2341.6C991.716,2344.57 981.746,2368.47 978.493,2379.07C978.14,2380.34 977.15,2381.12 976.019,2381.12C974.18,2381.12 972.695,2379.35 971.847,2376.81C968.241,2366.2 963.574,2353.9 959.756,2344.35C959.12,2342.73 958.271,2341.45 957.847,2340.39C957.776,2340.11 957.705,2339.83 957.705,2339.69C957.705,2338.77 958.837,2337.85 960.392,2337.85C962.019,2337.85 963.645,2338.63 963.928,2339.69C964.211,2340.68 964.564,2341.67 964.918,2342.59C968.382,2351.35 972.2,2361.68 975.594,2371.72Z" style="fill-rule:nonzero;"/>
        </g>
    </g>
</svg>
