<?xml version="1.0" encoding="UTF-8" standalone="no"?>
<!DOCTYPE svg PUBLIC "-//W3C//DTD SVG 1.1//EN" "http://www.w3.org/Graphics/SVG/1.1/DTD/svg11.dtd">
<svg width="100%" height="100%" viewBox="0 0 96 96" version="1.1" xmlns="http://www.w3.org/2000/svg" xmlns:xlink="http://www.w3.org/1999/xlink" xml:space="preserve" xmlns:serif="http://www.serif.com/" style="fill-rule:evenodd;clip-rule:evenodd;stroke-linejoin:round;stroke-miterlimit:2;">
    <g transform="matrix(1,0,0,1,-409.628,-4073.28)">
        <g transform="matrix(1,0,0,1,-110.019,-3591.86)">
            <path d="M615.248,7712.94C615.248,7686.55 593.848,7665.15 567.448,7665.15C541.048,7665.15 519.648,7686.55 519.648,7712.94C519.648,7739.35 541.048,7760.65 567.448,7760.65C593.848,7760.65 615.248,7739.35 615.248,7712.94ZM567.248,7730.65C572.848,7715.44 578.848,7700.55 583.148,7690.44C583.748,7689.05 584.548,7686.15 585.148,7684.15C585.548,7682.55 586.948,7682.24 587.848,7682.24C589.748,7682.24 593.548,7683.94 593.548,7686.65C593.548,7687.05 593.448,7687.55 593.148,7688.05C590.048,7692.24 575.948,7726.05 571.348,7741.05C570.848,7742.85 569.448,7743.94 567.848,7743.94C565.248,7743.94 563.148,7741.44 561.948,7737.85C556.848,7722.85 550.248,7705.44 544.848,7691.94C543.948,7689.65 542.748,7687.85 542.148,7686.35C542.048,7685.94 541.948,7685.55 541.948,7685.35C541.948,7684.05 543.548,7682.74 545.748,7682.74C548.048,7682.74 550.348,7683.85 550.748,7685.35C551.148,7686.74 551.648,7688.15 552.148,7689.44C557.048,7701.85 562.448,7716.44 567.248,7730.65Z" style="fill-rule:nonzero;"/>
        </g>
    </g>
</svg>
