<?xml version="1.0" encoding="UTF-8" standalone="no"?>
<!DOCTYPE svg PUBLIC "-//W3C//DTD SVG 1.1//EN" "http://www.w3.org/Graphics/SVG/1.1/DTD/svg11.dtd">
<svg width="100%" height="100%" viewBox="0 0 98 90" version="1.1" xmlns="http://www.w3.org/2000/svg" xmlns:xlink="http://www.w3.org/1999/xlink" xml:space="preserve" xmlns:serif="http://www.serif.com/" style="fill-rule:evenodd;clip-rule:evenodd;stroke-linejoin:round;stroke-miterlimit:2;">
    <g transform="matrix(1,0,0,1,-5237.44,-2585.56)">
        <g transform="matrix(1,0,0,1,1,0)">
            <path d="M5315.13,2674.76C5317.43,2674.76 5334.13,2657.26 5334.13,2630.16C5334.13,2602.96 5317.43,2585.56 5315.13,2585.56C5314.43,2585.56 5313.93,2586.06 5313.93,2586.76C5313.93,2587.16 5314.03,2587.66 5314.43,2588.06C5324.23,2599.76 5328.83,2615.96 5328.83,2630.16C5328.83,2644.36 5324.23,2660.56 5314.43,2672.26C5314.03,2672.66 5313.93,2673.16 5313.93,2673.56C5313.93,2674.26 5314.43,2674.76 5315.13,2674.76ZM5256.64,2673.56C5256.64,2673.16 5256.54,2672.66 5256.14,2672.26C5246.34,2660.56 5241.74,2644.36 5241.74,2630.16C5241.74,2615.96 5246.34,2599.76 5256.14,2588.06C5256.54,2587.66 5256.64,2587.16 5256.64,2586.76C5256.64,2586.06 5256.14,2585.56 5255.44,2585.56C5253.14,2585.56 5236.44,2602.96 5236.44,2630.16C5236.44,2657.26 5253.14,2674.76 5255.44,2674.76C5256.14,2674.76 5256.64,2674.26 5256.64,2673.56ZM5287.83,2657.86C5289.73,2650.26 5302.33,2619.96 5306.73,2609.76C5307.33,2608.26 5308.83,2605.66 5309.73,2604.46C5309.83,2604.26 5309.93,2604.06 5309.93,2603.86C5309.93,2602.46 5307.43,2600.96 5305.73,2600.96C5305.13,2600.96 5304.63,2601.16 5304.43,2601.76C5303.83,2603.86 5303.03,2606.76 5302.43,2608.26C5297.73,2619.26 5291.03,2635.86 5285.03,2652.46C5280.03,2637.06 5273.93,2620.76 5268.63,2607.26C5268.03,2605.86 5267.64,2604.46 5267.23,2602.96C5266.94,2601.96 5265.23,2601.46 5263.64,2601.46C5262.44,2601.46 5261.34,2601.86 5261.34,2602.56C5261.34,2602.66 5261.34,2602.86 5261.44,2602.96C5262.03,2604.46 5263.23,2606.36 5264.14,2608.56C5269.53,2622.16 5276.13,2639.56 5281.23,2654.56C5282.43,2658.06 5284.23,2659.66 5285.73,2659.66C5286.63,2659.66 5287.43,2659.06 5287.83,2657.86Z" style="fill-rule:nonzero;"/>
        </g>
    </g>
</svg>
