<?xml version="1.0" encoding="UTF-8" standalone="no"?>
<!DOCTYPE svg PUBLIC "-//W3C//DTD SVG 1.1//EN" "http://www.w3.org/Graphics/SVG/1.1/DTD/svg11.dtd">
<svg width="100%" height="100%" viewBox="0 0 89 89" version="1.1" xmlns="http://www.w3.org/2000/svg" xmlns:xlink="http://www.w3.org/1999/xlink" xml:space="preserve" xmlns:serif="http://www.serif.com/" style="fill-rule:evenodd;clip-rule:evenodd;stroke-linejoin:round;stroke-miterlimit:2;">
    <g transform="matrix(1,0,0,1,-1740.22,-2088.66)">
        <g transform="matrix(1,0,0,1,-1072.97,-2735.12)">
            <path d="M2901.38,4911.99L2901.38,4823.79L2813.18,4823.79L2813.18,4911.99L2901.38,4911.99ZM2897.28,4907.89L2817.28,4907.89L2817.28,4827.89L2897.28,4827.89L2897.28,4907.89ZM2859.78,4895.69C2861.68,4888.09 2874.28,4857.79 2878.68,4847.59C2879.28,4846.09 2880.78,4843.49 2881.68,4842.29C2881.78,4842.09 2881.88,4841.89 2881.88,4841.69C2881.88,4840.29 2879.38,4838.79 2877.68,4838.79C2877.08,4838.79 2876.58,4838.99 2876.38,4839.59C2875.78,4841.69 2874.98,4844.59 2874.38,4846.09C2869.68,4857.09 2862.98,4873.69 2856.98,4890.29C2851.98,4874.89 2845.88,4858.59 2840.58,4845.09C2839.98,4843.69 2839.58,4842.29 2839.18,4840.79C2838.88,4839.79 2837.18,4839.29 2835.58,4839.29C2834.38,4839.29 2833.28,4839.69 2833.28,4840.39C2833.28,4840.49 2833.28,4840.69 2833.38,4840.79C2833.98,4842.29 2835.18,4844.19 2836.08,4846.39C2841.48,4859.99 2848.08,4877.39 2853.18,4892.39C2854.38,4895.89 2856.18,4897.49 2857.68,4897.49C2858.58,4897.49 2859.38,4896.89 2859.78,4895.69Z" style="fill-rule:nonzero;"/>
        </g>
    </g>
</svg>
