<?xml version="1.0" encoding="UTF-8" standalone="no"?>
<!DOCTYPE svg PUBLIC "-//W3C//DTD SVG 1.1//EN" "http://www.w3.org/Graphics/SVG/1.1/DTD/svg11.dtd">
<svg width="100%" height="100%" viewBox="0 0 89 89" version="1.1" xmlns="http://www.w3.org/2000/svg" xmlns:xlink="http://www.w3.org/1999/xlink" xml:space="preserve" xmlns:serif="http://www.serif.com/" style="fill-rule:evenodd;clip-rule:evenodd;stroke-linejoin:round;stroke-miterlimit:2;">
    <g transform="matrix(1,0,0,1,-3793.25,-2481.51)">
        <g transform="matrix(1.41414,0,0,1.41429,-1389.33,-1046.26)">
            <path d="M3721.67,2556.75C3725.07,2556.75 3727.19,2554.2 3727.19,2551.23L3727.19,2499.9C3727.19,2496.43 3724.71,2494.39 3721.67,2494.39L3670.34,2494.39C3666.88,2494.39 3664.83,2496.72 3664.83,2499.9L3664.83,2551.23C3664.83,2554.41 3667.3,2556.75 3670.34,2556.75L3721.67,2556.75ZM3724.29,2551.52C3724.29,2553.07 3723.23,2553.85 3722.03,2553.85L3669.99,2553.85C3668.5,2553.85 3667.72,2552.79 3667.72,2551.52L3667.72,2499.55C3667.72,2498.13 3668.64,2497.28 3669.99,2497.28L3722.03,2497.28C3723.44,2497.28 3724.29,2498.34 3724.29,2499.55L3724.29,2551.52ZM3697.78,2545.22C3699.12,2539.85 3708.03,2518.43 3711.14,2511.21C3711.56,2510.15 3712.62,2508.31 3713.26,2507.47C3713.33,2507.32 3713.4,2507.18 3713.4,2507.04C3713.4,2506.05 3711.63,2504.99 3710.43,2504.99C3710.01,2504.99 3709.65,2505.13 3709.51,2505.56C3709.09,2507.04 3708.52,2509.09 3708.1,2510.15C3704.78,2517.93 3700.04,2529.67 3695.8,2541.41C3692.26,2530.52 3687.95,2518.99 3684.2,2509.45C3683.78,2508.45 3683.49,2507.47 3683.21,2506.41C3683,2505.7 3681.8,2505.34 3680.66,2505.34C3679.82,2505.34 3679.04,2505.63 3679.04,2506.12C3679.04,2506.19 3679.04,2506.33 3679.11,2506.41C3679.53,2507.47 3680.38,2508.81 3681.02,2510.36C3684.84,2519.98 3689.5,2532.28 3693.11,2542.89C3693.96,2545.36 3695.23,2546.5 3696.29,2546.5C3696.93,2546.5 3697.49,2546.07 3697.78,2545.22Z" style="fill-rule:nonzero;"/>
        </g>
    </g>
</svg>
