<?xml version="1.0" encoding="UTF-8" standalone="no"?>
<!DOCTYPE svg PUBLIC "-//W3C//DTD SVG 1.1//EN" "http://www.w3.org/Graphics/SVG/1.1/DTD/svg11.dtd">
<svg width="100%" height="100%" viewBox="0 0 60 73" version="1.1" xmlns="http://www.w3.org/2000/svg" xmlns:xlink="http://www.w3.org/1999/xlink" xml:space="preserve" xmlns:serif="http://www.serif.com/" style="fill-rule:evenodd;clip-rule:evenodd;stroke-linejoin:round;stroke-miterlimit:2;">
    <g transform="matrix(1,0,0,1,-986.28,-5881.47)">
        <g transform="matrix(1,0,0,1,-504.034,-1124.47)">
            <path d="M1523.01,7076.24C1526.21,7064.84 1543.01,7024.64 1546.31,7016.84C1547.11,7015.04 1549.01,7011.84 1550.01,7010.34C1550.11,7010.14 1550.21,7009.84 1550.21,7009.64C1550.21,7007.84 1547.21,7005.94 1545.21,7005.94C1544.41,7005.94 1543.71,7006.24 1543.51,7007.04C1542.81,7009.54 1541.81,7013.14 1541.01,7015.04C1535.21,7028.64 1527.01,7049.14 1519.51,7069.54C1513.41,7050.54 1505.81,7030.44 1499.31,7013.84C1498.61,7012.04 1498.11,7010.34 1497.61,7008.54C1497.21,7007.34 1495.11,7006.64 1493.21,7006.64C1491.71,7006.64 1490.31,7007.04 1490.31,7007.94C1490.31,7008.14 1490.31,7008.24 1490.41,7008.44C1491.21,7010.34 1492.71,7012.64 1493.81,7015.44C1500.41,7032.24 1508.61,7053.64 1514.91,7072.24C1516.31,7076.54 1518.61,7078.54 1520.41,7078.54C1521.61,7078.54 1522.51,7077.74 1523.01,7076.24Z" style="fill-rule:nonzero;"/>
        </g>
    </g>
</svg>
