<?xml version="1.0" encoding="UTF-8" standalone="no"?>
<!DOCTYPE svg PUBLIC "-//W3C//DTD SVG 1.1//EN" "http://www.w3.org/Graphics/SVG/1.1/DTD/svg11.dtd">
<svg width="100%" height="100%" viewBox="0 0 66 73" version="1.1" xmlns="http://www.w3.org/2000/svg" xmlns:xlink="http://www.w3.org/1999/xlink" xml:space="preserve" xmlns:serif="http://www.serif.com/" style="fill-rule:evenodd;clip-rule:evenodd;stroke-linejoin:round;stroke-miterlimit:2;">
    <g transform="matrix(1,0,0,1,-1078.78,-5881.37)">
        <g transform="matrix(1,0,0,1,-504.034,-1124.47)">
            <path d="M1642.21,7066.14C1642.21,7069.64 1642.01,7073.44 1642.01,7075.04C1642.01,7076.74 1644.71,7077.84 1646.61,7077.84C1647.51,7077.84 1648.31,7077.54 1648.31,7076.84C1648.31,7074.54 1648.01,7070.34 1648.01,7066.24L1648.01,7018.34C1648.01,7014.84 1648.21,7011.04 1648.21,7009.44C1648.21,7007.74 1645.61,7006.44 1643.71,7006.44C1642.71,7006.44 1641.91,7006.84 1641.91,7007.74C1641.91,7010.04 1642.21,7013.84 1642.21,7017.94L1642.21,7066.14ZM1608.51,7069.14C1603.41,7050.34 1597.51,7031.44 1591.91,7015.24C1591.31,7013.54 1590.51,7010.44 1590.11,7008.54C1589.81,7007.24 1587.71,7006.64 1585.81,7006.64C1584.21,7006.64 1582.81,7007.14 1582.81,7008.04C1582.81,7008.14 1582.81,7008.24 1582.91,7008.44C1588.51,7020.14 1598.11,7051.14 1603.91,7072.14C1605.01,7076.34 1607.51,7078.34 1609.51,7078.34C1610.71,7078.34 1611.71,7077.64 1612.11,7076.14C1612.31,7075.34 1627.11,7023.14 1633.71,7009.94C1633.81,7009.74 1633.91,7009.44 1633.91,7009.24C1633.91,7007.44 1630.91,7005.84 1629.11,7005.84C1628.31,7005.84 1627.61,7006.14 1627.51,7006.84C1626.91,7009.84 1625.51,7014.44 1624.91,7016.24C1620.01,7030.54 1613.71,7050.54 1608.51,7069.14Z" style="fill-rule:nonzero;"/>
        </g>
    </g>
</svg>
