<?xml version="1.0" encoding="UTF-8" standalone="no"?>
<!DOCTYPE svg PUBLIC "-//W3C//DTD SVG 1.1//EN" "http://www.w3.org/Graphics/SVG/1.1/DTD/svg11.dtd">
<svg width="100%" height="100%" viewBox="0 0 79 73" version="1.1" xmlns="http://www.w3.org/2000/svg" xmlns:xlink="http://www.w3.org/1999/xlink" xml:space="preserve" xmlns:serif="http://www.serif.com/" style="fill-rule:evenodd;clip-rule:evenodd;stroke-linejoin:round;stroke-miterlimit:2;">
    <g transform="matrix(1,0,0,1,-1174.48,-5881.27)">
        <g transform="matrix(1,0,0,1,-504.034,-1124.47)">
            <path d="M1697.41,7072.14C1698.31,7076.24 1701.01,7078.34 1703.01,7078.34C1704.21,7078.34 1705.21,7077.64 1705.61,7076.14C1707.01,7070.14 1719.41,7022.44 1724.71,7010.04C1724.81,7009.84 1724.91,7009.54 1724.91,7009.34C1724.91,7007.44 1722.11,7005.74 1720.21,7005.74C1719.41,7005.74 1718.71,7006.04 1718.61,7006.84C1718.01,7010.14 1716.91,7014.64 1716.41,7016.24C1712.11,7030.74 1706.51,7051.14 1702.01,7069.14C1697.51,7050.34 1692.41,7031.84 1687.41,7015.24C1687.01,7013.94 1686.21,7010.54 1685.81,7008.54C1685.51,7007.24 1683.41,7006.64 1681.51,7006.64C1679.91,7006.64 1678.51,7007.14 1678.51,7008.04C1678.51,7008.14 1678.51,7008.24 1678.61,7008.44C1683.41,7018.34 1692.61,7052.94 1697.41,7072.14ZM1751.11,7066.14C1751.11,7069.64 1750.91,7073.44 1750.91,7075.04C1750.91,7076.74 1753.61,7077.84 1755.51,7077.84C1756.41,7077.84 1757.21,7077.54 1757.21,7076.84C1757.21,7074.54 1756.91,7070.34 1756.91,7066.24L1756.91,7018.34C1756.91,7014.84 1757.11,7011.04 1757.11,7009.44C1757.11,7007.74 1754.51,7006.44 1752.61,7006.44C1751.61,7006.44 1750.81,7006.84 1750.81,7007.74C1750.81,7010.04 1751.11,7013.84 1751.11,7017.94L1751.11,7066.14ZM1731.91,7066.14C1731.91,7069.64 1731.71,7073.44 1731.71,7075.04C1731.71,7076.74 1734.41,7077.84 1736.31,7077.84C1737.21,7077.84 1738.01,7077.54 1738.01,7076.84C1738.01,7074.54 1737.71,7070.34 1737.71,7066.24L1737.71,7018.34C1737.71,7014.84 1737.91,7011.04 1737.91,7009.44C1737.91,7007.74 1735.31,7006.44 1733.41,7006.44C1732.41,7006.44 1731.61,7006.84 1731.61,7007.74C1731.61,7010.04 1731.91,7013.84 1731.91,7017.94L1731.91,7066.14Z" style="fill-rule:nonzero;"/>
        </g>
    </g>
</svg>
