<?xml version="1.0" encoding="UTF-8" standalone="no"?>
<!DOCTYPE svg PUBLIC "-//W3C//DTD SVG 1.1//EN" "http://www.w3.org/Graphics/SVG/1.1/DTD/svg11.dtd">
<svg width="100%" height="100%" viewBox="0 0 88 73" version="1.1" xmlns="http://www.w3.org/2000/svg" xmlns:xlink="http://www.w3.org/1999/xlink" xml:space="preserve" xmlns:serif="http://www.serif.com/" style="fill-rule:evenodd;clip-rule:evenodd;stroke-linejoin:round;stroke-miterlimit:2;">
    <g transform="matrix(1,0,0,1,-1270.08,-5881.17)">
        <g transform="matrix(1,0,0,1,-504.034,-1124.47)">
            <path d="M1791.91,7072.14C1792.91,7076.04 1795.71,7078.24 1797.81,7078.24C1799.01,7078.24 1800.01,7077.54 1800.31,7076.14C1800.61,7074.54 1812.31,7024.14 1818.21,7009.84C1818.31,7009.64 1818.31,7009.34 1818.31,7009.14C1818.31,7007.34 1815.71,7005.64 1813.81,7005.64C1812.91,7005.64 1812.21,7006.04 1812.01,7006.84C1811.31,7010.24 1810.51,7013.94 1809.91,7016.24C1805.91,7030.94 1800.71,7051.04 1796.51,7069.14C1792.31,7050.14 1787.61,7031.94 1782.91,7015.24C1782.51,7013.94 1781.71,7010.54 1781.41,7008.54C1781.21,7007.24 1779.11,7006.64 1777.21,7006.64C1775.51,7006.64 1774.11,7007.14 1774.11,7008.04C1774.11,7008.14 1774.11,7008.24 1774.21,7008.44C1775.31,7010.94 1776.61,7014.14 1777.41,7016.84C1782.21,7033.34 1787.31,7052.34 1791.91,7072.14ZM1855.71,7066.14C1855.71,7069.64 1855.51,7073.44 1855.51,7075.04C1855.51,7076.74 1858.21,7077.84 1860.11,7077.84C1861.01,7077.84 1861.81,7077.54 1861.81,7076.84C1861.81,7074.54 1861.51,7070.34 1861.51,7066.24L1861.51,7018.34C1861.51,7014.84 1861.71,7011.04 1861.71,7009.44C1861.71,7007.74 1859.11,7006.44 1857.21,7006.44C1856.21,7006.44 1855.41,7006.84 1855.41,7007.74C1855.41,7010.04 1855.71,7013.84 1855.71,7017.94L1855.71,7066.14ZM1838.81,7066.14C1838.81,7069.64 1838.61,7073.44 1838.61,7075.04C1838.61,7076.74 1841.31,7077.84 1843.21,7077.84C1844.11,7077.84 1844.91,7077.54 1844.91,7076.84C1844.91,7074.54 1844.61,7070.34 1844.61,7066.24L1844.61,7018.34C1844.61,7014.84 1844.81,7011.04 1844.81,7009.44C1844.81,7007.74 1842.21,7006.44 1840.31,7006.44C1839.31,7006.44 1838.51,7006.84 1838.51,7007.74C1838.51,7010.04 1838.81,7013.84 1838.81,7017.94L1838.81,7066.14ZM1822.21,7066.14C1822.21,7069.64 1822.01,7073.44 1822.01,7075.04C1822.01,7076.74 1824.71,7077.84 1826.61,7077.84C1827.51,7077.84 1828.31,7077.54 1828.31,7076.84C1828.31,7074.54 1828.01,7070.34 1828.01,7066.24L1828.01,7018.34C1828.01,7014.84 1828.21,7011.04 1828.21,7009.44C1828.21,7007.74 1825.61,7006.44 1823.71,7006.44C1822.71,7006.44 1821.91,7006.84 1821.91,7007.74C1821.91,7010.04 1822.21,7013.84 1822.21,7017.94L1822.21,7066.14Z" style="fill-rule:nonzero;"/>
        </g>
    </g>
</svg>
