<?xml version="1.0" encoding="UTF-8" standalone="no"?>
<!DOCTYPE svg PUBLIC "-//W3C//DTD SVG 1.1//EN" "http://www.w3.org/Graphics/SVG/1.1/DTD/svg11.dtd">
<svg width="100%" height="100%" viewBox="0 0 96 96" version="1.1" xmlns="http://www.w3.org/2000/svg" xmlns:xlink="http://www.w3.org/1999/xlink" xml:space="preserve" xmlns:serif="http://www.serif.com/" style="fill-rule:evenodd;clip-rule:evenodd;stroke-linejoin:round;stroke-miterlimit:2;">
    <g transform="matrix(1,0,0,1,-109.628,-2873.28)">
        <g transform="matrix(1,0,0,1,-110.019,-3591.86)">
            <path d="M315.248,6512.94C315.248,6486.55 293.848,6465.15 267.448,6465.15C241.048,6465.15 219.648,6486.55 219.648,6512.94C219.648,6539.35 241.048,6560.65 267.448,6560.65C293.848,6560.65 315.248,6539.35 315.248,6512.94ZM302.648,6487.05C307.948,6494.24 311.148,6503.24 311.148,6512.94C311.148,6537.05 291.548,6556.55 267.448,6556.55C243.348,6556.55 223.748,6537.05 223.748,6512.94C223.748,6502.65 227.348,6493.15 233.248,6485.74C238.048,6497.44 246.348,6532.24 247.548,6537.44C248.348,6540.55 250.348,6542.24 251.848,6542.24C252.748,6542.24 253.548,6541.74 253.848,6540.55C254.648,6538.24 254.948,6536.35 255.448,6534.74C259.248,6521.44 264.048,6504.94 267.748,6492.94C271.348,6505.85 275.748,6522.65 279.248,6537.44C280.048,6540.74 282.148,6542.44 283.748,6542.44C284.748,6542.44 285.548,6541.74 285.848,6540.55C286.348,6538.55 286.748,6536.35 287.248,6534.65C297.348,6500.15 300.248,6492.74 302.648,6487.05ZM295.148,6493.55C291.748,6504.74 287.148,6519.24 282.748,6535.35C280.048,6522.65 275.348,6504.35 271.148,6490.05C270.848,6489.05 270.748,6488.55 270.448,6487.15C270.248,6486.15 268.348,6485.44 266.748,6485.44C265.548,6485.44 264.448,6485.85 264.448,6486.85C264.348,6488.55 263.948,6490.05 263.448,6491.74C259.948,6503.55 255.348,6519.35 251.048,6535.24C247.748,6519.65 243.948,6504.24 239.748,6490.05C239.348,6488.94 238.848,6487.05 238.548,6485.65C238.348,6484.65 236.648,6484.15 235.148,6484.15L234.548,6484.15C242.548,6475.05 254.348,6469.24 267.448,6469.24C280.448,6469.24 292.148,6474.94 300.148,6483.94C299.748,6483.85 299.348,6483.74 298.948,6483.74C298.348,6483.74 297.848,6483.94 297.748,6484.44L295.148,6493.55Z" style="fill-rule:nonzero;"/>
        </g>
    </g>
</svg>
