<?xml version="1.0" encoding="UTF-8" standalone="no"?>
<!DOCTYPE svg PUBLIC "-//W3C//DTD SVG 1.1//EN" "http://www.w3.org/Graphics/SVG/1.1/DTD/svg11.dtd">
<svg width="100%" height="100%" viewBox="0 0 89 89" version="1.1" xmlns="http://www.w3.org/2000/svg" xmlns:xlink="http://www.w3.org/1999/xlink" xml:space="preserve" xmlns:serif="http://www.serif.com/" style="fill-rule:evenodd;clip-rule:evenodd;stroke-linejoin:round;stroke-miterlimit:2;">
    <g transform="matrix(1,0,0,1,-158.78,-2671.63)">
        <g transform="matrix(1.41414,0,0,1.41429,-177.055,-770.755)">
            <path d="M299.847,2496.38L299.847,2434.01L237.483,2434.01L237.483,2496.38L299.847,2496.38ZM250.069,2448.79C252.756,2457.56 255.089,2466.96 257.211,2476.58C259.897,2466.75 262.655,2457.27 264.847,2449.99C265.2,2448.79 265.413,2447.8 265.483,2446.74C265.554,2445.04 267.392,2444.76 268.17,2444.76C269.796,2444.76 271.635,2445.75 271.847,2446.81C271.988,2447.73 272.13,2448.08 272.271,2448.79C274.817,2457.41 277.645,2468.16 279.625,2476.72C282.382,2466.96 285.14,2458.19 287.261,2451.26C287.827,2449.35 288.463,2446.95 289.029,2444.83C289.382,2443.77 290.443,2443.56 290.938,2443.56C292.069,2443.56 294.685,2444.69 294.685,2446.53C294.685,2446.81 294.685,2447.02 294.544,2447.3C292.14,2452.61 289.524,2460.95 283.655,2480.89C283.301,2482.09 283.089,2483.65 282.736,2485.06C282.382,2486.26 281.534,2487.18 280.19,2487.18C278.352,2487.18 276.584,2485.41 275.948,2482.8C273.827,2473.68 271.14,2463.43 268.806,2454.94C266.402,2462.93 263.574,2472.83 261.17,2480.96C259.897,2486.19 259.473,2487.04 257.635,2487.04C255.867,2487.04 254.17,2485.27 253.534,2482.8C252.756,2479.62 246.534,2453.31 243.493,2446.39C243.423,2446.17 243.352,2445.89 243.352,2445.68C243.352,2444.76 244.413,2443.84 245.897,2443.84C247.382,2443.84 249.079,2444.76 249.291,2445.75L250.069,2448.79Z" style="fill-rule:nonzero;"/>
        </g>
    </g>
</svg>
