<?xml version="1.0" encoding="UTF-8" standalone="no"?>
<!DOCTYPE svg PUBLIC "-//W3C//DTD SVG 1.1//EN" "http://www.w3.org/Graphics/SVG/1.1/DTD/svg11.dtd">
<svg width="100%" height="100%" viewBox="0 0 96 96" version="1.1" xmlns="http://www.w3.org/2000/svg" xmlns:xlink="http://www.w3.org/1999/xlink" xml:space="preserve" xmlns:serif="http://www.serif.com/" style="fill-rule:evenodd;clip-rule:evenodd;stroke-linejoin:round;stroke-miterlimit:2;">
    <g transform="matrix(1,0,0,1,-509.628,-4073.28)">
        <g transform="matrix(1,0,0,1,-110.019,-3591.86)">
            <path d="M715.248,7712.94C715.248,7686.55 693.848,7665.15 667.448,7665.15C641.048,7665.15 619.648,7686.55 619.648,7712.94C619.648,7739.35 641.048,7760.65 667.448,7760.65C693.848,7760.65 715.248,7739.35 715.248,7712.94ZM672.448,7690.65C675.848,7702.94 678.948,7718.05 681.648,7730.15C685.448,7716.35 688.048,7704.15 690.848,7694.24C691.548,7691.55 692.448,7688.15 693.148,7685.15C693.548,7683.55 695.048,7683.24 695.748,7683.24C697.348,7683.24 700.948,7684.74 701.048,7687.35C701.048,7687.74 701.048,7688.05 700.848,7688.44C699.748,7691.24 698.448,7694.85 697.948,7696.24C694.448,7707.74 691.248,7722.44 687.248,7736.05C686.848,7737.74 686.448,7739.94 685.948,7741.94C685.548,7743.65 684.248,7744.94 682.448,7744.94C679.948,7744.94 677.448,7742.44 676.648,7738.74C673.648,7725.85 670.948,7711.35 667.648,7699.35C664.348,7710.65 661.348,7724.65 658.048,7736.15C656.348,7743.05 655.948,7744.74 653.148,7744.74C650.748,7744.74 648.348,7742.24 647.548,7738.74C643.848,7723.15 640.748,7706.65 636.948,7692.74C636.348,7690.44 635.648,7688.85 635.048,7687.15C635.048,7687.15 634.848,7686.44 634.848,7686.15C634.848,7684.85 636.348,7683.65 638.248,7683.65L638.448,7683.65C640.548,7683.65 642.748,7685.05 643.048,7686.35L644.148,7690.74C647.548,7703.15 649.648,7716.35 652.548,7729.94C656.248,7716.05 659.148,7702.65 662.148,7692.35C662.648,7690.65 662.948,7689.24 663.048,7687.74C663.148,7685.35 665.648,7684.94 666.748,7684.94C669.048,7684.94 671.548,7686.35 671.848,7687.85L672.448,7690.65Z" style="fill-rule:nonzero;"/>
        </g>
    </g>
</svg>
