<?xml version="1.0" encoding="UTF-8" standalone="no"?>
<!DOCTYPE svg PUBLIC "-//W3C//DTD SVG 1.1//EN" "http://www.w3.org/Graphics/SVG/1.1/DTD/svg11.dtd">
<svg width="100%" height="100%" viewBox="0 0 89 89" version="1.1" xmlns="http://www.w3.org/2000/svg" xmlns:xlink="http://www.w3.org/1999/xlink" xml:space="preserve" xmlns:serif="http://www.serif.com/" style="fill-rule:evenodd;clip-rule:evenodd;stroke-linejoin:round;stroke-miterlimit:2;">
    <g transform="matrix(1,0,0,1,-1502.52,-2642.27)">
        <g transform="matrix(1.41414,0,0,1.41429,-1052.39,-837.704)">
            <path d="M1863.53,2522.95C1866.92,2522.95 1869.04,2520.41 1869.04,2517.44L1869.04,2466.11C1869.04,2462.64 1866.57,2460.59 1863.53,2460.59L1812.2,2460.59C1808.73,2460.59 1806.68,2462.92 1806.68,2466.11L1806.68,2517.44C1806.68,2520.62 1809.15,2522.95 1812.2,2522.95L1863.53,2522.95ZM1819.27,2475.37C1821.95,2484.14 1824.29,2493.54 1826.41,2503.16C1829.1,2493.33 1831.85,2483.85 1834.04,2476.57C1834.4,2475.37 1834.61,2474.38 1834.68,2473.32C1834.75,2471.62 1836.59,2471.34 1837.37,2471.34C1838.99,2471.34 1840.83,2472.33 1841.04,2473.39C1841.19,2474.31 1841.33,2474.66 1841.47,2475.37C1844.01,2483.99 1846.84,2494.74 1848.82,2503.3C1851.58,2493.54 1854.34,2484.77 1856.46,2477.84C1857.02,2475.93 1857.66,2473.53 1858.23,2471.41C1858.58,2470.35 1859.64,2470.14 1860.13,2470.14C1861.27,2470.14 1863.88,2471.27 1863.88,2473.11C1863.88,2473.39 1863.88,2473.6 1863.74,2473.88C1861.34,2479.19 1858.72,2487.53 1852.85,2507.47C1852.5,2508.67 1852.29,2510.23 1851.93,2511.64C1851.58,2512.84 1850.73,2513.76 1849.39,2513.76C1847.55,2513.76 1845.78,2511.99 1845.14,2509.38C1843.02,2500.26 1840.34,2490.01 1838,2481.52C1835.6,2489.51 1832.77,2499.41 1830.37,2507.54C1829.1,2512.77 1828.67,2513.62 1826.83,2513.62C1825.07,2513.62 1823.37,2511.85 1822.73,2509.38C1821.95,2506.2 1815.73,2479.89 1812.69,2472.96C1812.62,2472.75 1812.55,2472.47 1812.55,2472.26C1812.55,2471.34 1813.61,2470.42 1815.1,2470.42C1816.58,2470.42 1818.28,2471.34 1818.49,2472.33L1819.27,2475.37Z" style="fill-rule:nonzero;"/>
        </g>
    </g>
</svg>
