<?xml version="1.0" encoding="UTF-8" standalone="no"?>
<!DOCTYPE svg PUBLIC "-//W3C//DTD SVG 1.1//EN" "http://www.w3.org/Graphics/SVG/1.1/DTD/svg11.dtd">
<svg width="100%" height="100%" viewBox="0 0 98 90" version="1.1" xmlns="http://www.w3.org/2000/svg" xmlns:xlink="http://www.w3.org/1999/xlink" xml:space="preserve" xmlns:serif="http://www.serif.com/" style="fill-rule:evenodd;clip-rule:evenodd;stroke-linejoin:round;stroke-miterlimit:2;">
    <g transform="matrix(1,0,0,1,-5337.43,-2585.56)">
        <g transform="matrix(1,0,0,1,1,0)">
            <path d="M5413.02,2610.76C5409.62,2621.96 5405.02,2636.46 5400.62,2652.56C5397.92,2639.86 5393.22,2621.56 5389.02,2607.26C5388.72,2606.26 5388.62,2605.76 5388.32,2604.36C5388.12,2603.36 5386.22,2602.66 5384.62,2602.66C5383.42,2602.66 5382.32,2603.06 5382.32,2604.06C5382.22,2605.76 5381.82,2607.26 5381.32,2608.96C5377.82,2620.76 5373.22,2636.56 5368.92,2652.46C5365.62,2636.86 5361.82,2621.46 5357.62,2607.26C5357.23,2606.16 5356.73,2604.26 5356.43,2602.86C5356.23,2601.96 5354.53,2601.36 5353.13,2601.36C5352.03,2601.36 5351.03,2601.76 5351.03,2602.46C5351.03,2602.56 5351.03,2602.76 5351.13,2602.86C5355.13,2612.56 5362.43,2641.96 5365.43,2654.66C5366.23,2657.76 5368.22,2659.46 5369.72,2659.46C5370.62,2659.46 5371.42,2658.96 5371.72,2657.76C5372.52,2655.46 5372.82,2653.56 5373.32,2651.96C5377.12,2638.66 5381.92,2622.16 5385.62,2610.16C5389.22,2623.06 5393.62,2639.86 5397.12,2654.66C5397.92,2657.96 5400.02,2659.66 5401.62,2659.66C5402.62,2659.66 5403.42,2658.96 5403.72,2657.76C5404.22,2655.76 5404.62,2653.56 5405.12,2651.86C5415.52,2616.56 5418.72,2608.36 5420.52,2604.16C5420.62,2603.96 5420.62,2603.86 5420.62,2603.66C5420.62,2602.36 5418.22,2600.96 5416.82,2600.96C5416.22,2600.96 5415.72,2601.16 5415.62,2601.66L5413.02,2610.76ZM5356.63,2673.56C5356.63,2673.16 5356.53,2672.66 5356.13,2672.26C5346.33,2660.56 5341.73,2644.36 5341.73,2630.16C5341.73,2615.96 5346.33,2599.76 5356.13,2588.06C5356.53,2587.66 5356.63,2587.16 5356.63,2586.76C5356.63,2586.06 5356.13,2585.56 5355.43,2585.56C5353.13,2585.56 5336.43,2602.96 5336.43,2630.16C5336.43,2657.26 5353.13,2674.76 5355.43,2674.76C5356.13,2674.76 5356.63,2674.26 5356.63,2673.56ZM5415.12,2674.76C5417.42,2674.76 5434.12,2657.26 5434.12,2630.16C5434.12,2602.96 5417.42,2585.56 5415.12,2585.56C5414.42,2585.56 5413.92,2586.06 5413.92,2586.76C5413.92,2587.16 5414.02,2587.66 5414.42,2588.06C5424.22,2599.76 5428.82,2615.96 5428.82,2630.16C5428.82,2644.36 5424.22,2660.56 5414.42,2672.26C5414.02,2672.66 5413.92,2673.16 5413.92,2673.56C5413.92,2674.26 5414.42,2674.76 5415.12,2674.76Z" style="fill-rule:nonzero;"/>
        </g>
    </g>
</svg>
