<?xml version="1.0" encoding="UTF-8" standalone="no"?>
<!DOCTYPE svg PUBLIC "-//W3C//DTD SVG 1.1//EN" "http://www.w3.org/Graphics/SVG/1.1/DTD/svg11.dtd">
<svg width="100%" height="100%" viewBox="0 0 89 89" version="1.1" xmlns="http://www.w3.org/2000/svg" xmlns:xlink="http://www.w3.org/1999/xlink" xml:space="preserve" xmlns:serif="http://www.serif.com/" style="fill-rule:evenodd;clip-rule:evenodd;stroke-linejoin:round;stroke-miterlimit:2;">
    <g transform="matrix(1,0,0,1,-1840.22,-2088.66)">
        <g transform="matrix(1,0,0,1,-1072.97,-2735.12)">
            <path d="M3001.38,4911.99L3001.38,4823.79L2913.18,4823.79L2913.18,4911.99L3001.38,4911.99ZM2997.28,4907.89L2917.28,4907.89L2917.28,4827.89L2997.28,4827.89L2997.28,4907.89ZM2984.98,4848.59C2981.58,4859.79 2976.98,4874.29 2972.58,4890.39C2969.88,4877.69 2965.18,4859.39 2960.98,4845.09C2960.68,4844.09 2960.58,4843.59 2960.28,4842.19C2960.08,4841.19 2958.18,4840.49 2956.58,4840.49C2955.38,4840.49 2954.28,4840.89 2954.28,4841.89C2954.18,4843.59 2953.78,4845.09 2953.28,4846.79C2949.78,4858.59 2945.18,4874.39 2940.88,4890.29C2937.58,4874.69 2933.78,4859.29 2929.58,4845.09C2929.18,4843.99 2928.68,4842.09 2928.38,4840.69C2928.18,4839.79 2926.48,4839.19 2925.08,4839.19C2923.98,4839.19 2922.98,4839.59 2922.98,4840.29C2922.98,4840.39 2922.98,4840.59 2923.08,4840.69C2927.08,4850.39 2934.38,4879.79 2937.38,4892.49C2938.18,4895.59 2940.18,4897.29 2941.68,4897.29C2942.58,4897.29 2943.38,4896.79 2943.68,4895.59C2944.48,4893.29 2944.78,4891.39 2945.28,4889.79C2949.08,4876.49 2953.88,4859.99 2957.58,4847.99C2961.18,4860.89 2965.58,4877.69 2969.08,4892.49C2969.88,4895.79 2971.98,4897.49 2973.58,4897.49C2974.58,4897.49 2975.38,4896.79 2975.68,4895.59C2976.18,4893.59 2976.58,4891.39 2977.08,4889.69C2987.48,4854.39 2990.68,4846.19 2992.48,4841.99C2992.58,4841.79 2992.58,4841.69 2992.58,4841.49C2992.58,4840.19 2990.18,4838.79 2988.78,4838.79C2988.18,4838.79 2987.68,4838.99 2987.58,4839.49L2984.98,4848.59Z" style="fill-rule:nonzero;"/>
        </g>
    </g>
</svg>
