<?xml version="1.0" encoding="UTF-8" standalone="no"?>
<!DOCTYPE svg PUBLIC "-//W3C//DTD SVG 1.1//EN" "http://www.w3.org/Graphics/SVG/1.1/DTD/svg11.dtd">
<svg width="100%" height="100%" viewBox="0 0 89 89" version="1.1" xmlns="http://www.w3.org/2000/svg" xmlns:xlink="http://www.w3.org/1999/xlink" xml:space="preserve" xmlns:serif="http://www.serif.com/" style="fill-rule:evenodd;clip-rule:evenodd;stroke-linejoin:round;stroke-miterlimit:2;">
    <g transform="matrix(1,0,0,1,-2793.35,-2631.51)">
        <g transform="matrix(1.41414,0,0,1.41429,-1389.33,-1046.26)">
            <path d="M3014.6,2662.81C3018,2662.81 3020.12,2660.26 3020.12,2657.29L3020.12,2605.96C3020.12,2602.5 3017.64,2600.45 3014.6,2600.45L2963.27,2600.45C2959.8,2600.45 2957.76,2602.78 2957.76,2605.96L2957.76,2657.29C2957.76,2660.48 2960.23,2662.81 2963.27,2662.81L3014.6,2662.81ZM3017.22,2657.58C3017.22,2659.13 3016.16,2659.91 3014.96,2659.91L2962.92,2659.91C2961.43,2659.91 2960.65,2658.85 2960.65,2657.58L2960.65,2605.61C2960.65,2604.19 2961.57,2603.34 2962.92,2603.34L3014.96,2603.34C3016.37,2603.34 3017.22,2604.41 3017.22,2605.61L3017.22,2657.58ZM3008.52,2617.98C3006.12,2625.9 3002.87,2636.15 2999.76,2647.54C2997.85,2638.56 2994.52,2625.62 2991.55,2615.51C2991.34,2614.8 2991.27,2614.45 2991.06,2613.45C2990.92,2612.75 2989.57,2612.25 2988.44,2612.25C2987.59,2612.25 2986.82,2612.54 2986.82,2613.24C2986.74,2614.45 2986.46,2615.51 2986.11,2616.71C2983.63,2625.05 2980.38,2636.22 2977.34,2647.47C2975.01,2636.43 2972.32,2625.55 2969.35,2615.51C2969.07,2614.73 2968.71,2613.39 2968.5,2612.39C2968.36,2611.76 2967.16,2611.33 2966.17,2611.33C2965.39,2611.33 2964.68,2611.62 2964.68,2612.11C2964.68,2612.18 2964.68,2612.32 2964.76,2612.39C2967.58,2619.25 2972.74,2640.04 2974.87,2649.02C2975.43,2651.21 2976.85,2652.41 2977.91,2652.41C2978.54,2652.41 2979.11,2652.06 2979.32,2651.21C2979.89,2649.59 2980.1,2648.24 2980.45,2647.11C2983.14,2637.71 2986.53,2626.04 2989.15,2617.56C2991.69,2626.68 2994.8,2638.56 2997.28,2649.02C2997.85,2651.35 2999.33,2652.56 3000.46,2652.56C3001.17,2652.56 3001.73,2652.06 3001.95,2651.21C3002.3,2649.8 3002.58,2648.24 3002.94,2647.04C3010.29,2622.08 3012.55,2616.28 3013.83,2613.31C3013.9,2613.17 3013.9,2613.1 3013.9,2612.96C3013.9,2612.04 3012.2,2611.05 3011.21,2611.05C3010.78,2611.05 3010.43,2611.19 3010.36,2611.55L3008.52,2617.98Z" style="fill-rule:nonzero;"/>
        </g>
    </g>
</svg>
