<?xml version="1.0" encoding="UTF-8" standalone="no"?>
<!DOCTYPE svg PUBLIC "-//W3C//DTD SVG 1.1//EN" "http://www.w3.org/Graphics/SVG/1.1/DTD/svg11.dtd">
<svg width="100%" height="100%" viewBox="0 0 96 84" version="1.1" xmlns="http://www.w3.org/2000/svg" xmlns:xlink="http://www.w3.org/1999/xlink" xml:space="preserve" xmlns:serif="http://www.serif.com/" style="fill-rule:evenodd;clip-rule:evenodd;stroke-linejoin:round;stroke-miterlimit:2;">
    <g transform="matrix(1,0,0,1,-567.78,-5573.67)">
        <g transform="matrix(1,0,0,1,-504.034,-1124.47)">
            <path d="M1167.71,6781.34L1119.81,6698.14L1071.81,6781.34L1167.71,6781.34ZM1161.11,6777.44L1078.41,6777.44L1119.81,6705.84L1161.11,6777.44ZM1121.51,6755.74L1122.31,6726.44C1122.31,6724.54 1122.61,6722.64 1122.71,6721.04L1122.71,6720.94C1122.71,6719.74 1120.51,6718.64 1118.81,6718.64C1117.91,6718.64 1117.21,6719.04 1117.21,6719.84L1117.21,6720.04C1117.31,6720.64 1117.61,6723.94 1117.61,6726.04L1117.91,6755.44C1117.91,6756.44 1117.81,6757.64 1117.71,6758.44L1117.71,6758.54C1117.71,6759.44 1119.31,6760.04 1120.51,6760.04C1121.11,6760.04 1121.51,6759.94 1121.51,6759.54L1121.51,6755.74ZM1120.11,6772.94C1121.91,6772.94 1123.11,6771.74 1123.11,6769.84C1123.11,6767.94 1121.11,6765.64 1119.31,6765.64C1117.31,6765.64 1116.31,6766.84 1116.31,6768.84C1116.31,6770.64 1118.11,6772.94 1120.11,6772.94Z" style="fill-rule:nonzero;"/>
        </g>
    </g>
</svg>
