<?xml version="1.0" encoding="UTF-8" standalone="no"?>
<!DOCTYPE svg PUBLIC "-//W3C//DTD SVG 1.1//EN" "http://www.w3.org/Graphics/SVG/1.1/DTD/svg11.dtd">
<svg width="100%" height="100%" viewBox="0 0 47 74" version="1.1" xmlns="http://www.w3.org/2000/svg" xmlns:xlink="http://www.w3.org/1999/xlink" xml:space="preserve" xmlns:serif="http://www.serif.com/" style="fill-rule:evenodd;clip-rule:evenodd;stroke-linejoin:round;stroke-miterlimit:2;">
    <g transform="matrix(1,0,0,1,-5162.95,-2895.36)">
        <g transform="matrix(1,0,0,1,1,0)">
            <path d="M5174.74,2901.46C5174.14,2901.06 5173.44,2900.76 5172.64,2900.76C5171.84,2900.76 5170.84,2901.16 5170.15,2902.26C5164.74,2909.86 5161.94,2921.66 5161.94,2933.16C5161.94,2952.46 5168.05,2968.86 5185.34,2968.86C5201.14,2968.86 5208.84,2951.06 5208.84,2931.46C5208.84,2910.96 5201.54,2895.36 5186.64,2895.36C5182.14,2895.36 5178.04,2897.96 5174.74,2901.46ZM5185.04,2961.76C5172.84,2961.76 5169.74,2948.26 5169.74,2932.96C5169.74,2913.06 5180.24,2902.36 5186.24,2902.36C5197.04,2902.36 5201.04,2916.36 5201.04,2930.96C5201.04,2948.16 5195.84,2961.76 5185.04,2961.76Z" style="fill-rule:nonzero;"/>
        </g>
    </g>
</svg>
