<?xml version="1.0" encoding="UTF-8" standalone="no"?>
<!DOCTYPE svg PUBLIC "-//W3C//DTD SVG 1.1//EN" "http://www.w3.org/Graphics/SVG/1.1/DTD/svg11.dtd">
<svg width="100%" height="100%" viewBox="0 0 88 88" version="1.1" xmlns="http://www.w3.org/2000/svg" xmlns:xlink="http://www.w3.org/1999/xlink" xml:space="preserve" xmlns:serif="http://www.serif.com/" style="fill-rule:evenodd;clip-rule:evenodd;stroke-linejoin:round;stroke-miterlimit:2;">
    <g transform="matrix(1,0,0,1,-1072.08,-5571.87)">
        <g transform="matrix(1,0,0,1,-504.034,-1124.47)">
            <path d="M1663.51,6783.54L1663.51,6696.34L1576.11,6696.34L1576.11,6783.54L1663.51,6783.54ZM1617.61,6779.24L1580.61,6779.24L1580.61,6742.24L1617.61,6742.24L1617.61,6779.24ZM1659.01,6779.24L1622.01,6779.24L1622.01,6742.24L1659.01,6742.24L1659.01,6779.24ZM1617.61,6737.84L1580.61,6737.84L1580.61,6700.84L1617.61,6700.84L1617.61,6737.84ZM1659.01,6737.84L1622.01,6737.84L1622.01,6700.84L1659.01,6700.84L1659.01,6737.84Z" style="fill-rule:nonzero;"/>
        </g>
    </g>
</svg>
