<?xml version="1.0" encoding="UTF-8" standalone="no"?>
<!DOCTYPE svg PUBLIC "-//W3C//DTD SVG 1.1//EN" "http://www.w3.org/Graphics/SVG/1.1/DTD/svg11.dtd">
<svg width="100%" height="100%" viewBox="0 0 96 96" version="1.1" xmlns="http://www.w3.org/2000/svg" xmlns:xlink="http://www.w3.org/1999/xlink" xml:space="preserve" xmlns:serif="http://www.serif.com/" style="fill-rule:evenodd;clip-rule:evenodd;stroke-linejoin:round;stroke-miterlimit:2;">
    <g transform="matrix(1,0,0,1,-209.628,-2873.28)">
        <g transform="matrix(1,0,0,1,-110.019,-3591.86)">
            <path d="M415.248,6512.94C415.248,6486.55 393.848,6465.15 367.448,6465.15C341.048,6465.15 319.648,6486.55 319.648,6512.94C319.648,6539.35 341.048,6560.65 367.448,6560.65C393.848,6560.65 415.248,6539.35 415.248,6512.94ZM411.148,6512.94C411.148,6537.05 391.548,6556.55 367.448,6556.55C343.348,6556.55 323.748,6537.05 323.748,6512.94C323.748,6488.85 343.348,6469.24 367.448,6469.24C391.548,6469.24 411.148,6488.85 411.148,6512.94ZM367.448,6515.35C369.948,6519.24 382.048,6537.15 385.248,6541.15C385.648,6541.65 386.248,6541.85 387.048,6541.85C388.848,6541.85 391.048,6540.74 391.048,6539.65C391.048,6539.44 390.948,6539.24 390.748,6539.05C386.548,6535.05 384.148,6532.35 370.248,6511.85C377.948,6500.85 384.648,6491.44 388.348,6487.74C388.548,6487.55 388.648,6487.24 388.648,6487.05C388.648,6485.85 386.448,6484.55 384.848,6484.55C384.348,6484.55 383.848,6484.65 383.648,6485.05C381.548,6488.15 371.248,6502.55 367.548,6507.85C362.148,6499.85 353.048,6485.74 352.548,6484.65C352.348,6484.24 351.648,6484.05 350.848,6484.05C349.248,6484.05 346.948,6484.94 346.948,6485.94C346.948,6486.24 347.048,6486.44 347.348,6486.74C350.148,6489.55 353.448,6494.44 364.748,6511.24C359.748,6518.44 354.748,6525.55 350.748,6531.55C349.248,6533.74 346.648,6536.85 344.348,6539.44C344.048,6539.74 343.948,6540.05 343.948,6540.24C343.948,6541.35 345.848,6541.94 347.548,6541.94C348.648,6541.94 349.648,6541.65 350.048,6541.05C351.048,6539.44 355.548,6532.35 367.448,6515.35Z" style="fill-rule:nonzero;"/>
        </g>
    </g>
</svg>
