<?xml version="1.0" encoding="UTF-8" standalone="no"?>
<!DOCTYPE svg PUBLIC "-//W3C//DTD SVG 1.1//EN" "http://www.w3.org/Graphics/SVG/1.1/DTD/svg11.dtd">
<svg width="100%" height="100%" viewBox="0 0 89 89" version="1.1" xmlns="http://www.w3.org/2000/svg" xmlns:xlink="http://www.w3.org/1999/xlink" xml:space="preserve" xmlns:serif="http://www.serif.com/" style="fill-rule:evenodd;clip-rule:evenodd;stroke-linejoin:round;stroke-miterlimit:2;">
    <g transform="matrix(1,0,0,1,-258.769,-2671.63)">
        <g transform="matrix(1.41414,0,0,1.41429,-177.055,-770.755)">
            <path d="M370.554,2496.38L370.554,2434.01L308.19,2434.01L308.19,2496.38L370.554,2496.38ZM346.938,2449.28C347.998,2447.73 348.918,2446.53 349.908,2444.97C350.402,2444.19 351.322,2444.12 351.675,2444.12C352.877,2444.12 355.423,2445.11 355.423,2446.95C355.423,2447.38 355.281,2447.87 354.928,2448.22C353.796,2449.28 351.534,2451.76 342.625,2464.49C351.958,2478.27 352.382,2478.77 356.554,2482.94C356.837,2483.22 357.12,2483.65 357.12,2484.14C357.12,2485.27 355.069,2486.76 353.231,2486.76C351.675,2486.76 351.463,2486.62 347.574,2480.89C344.958,2477.14 342.059,2473.04 339.372,2468.87C332.16,2479.12 328.483,2484.92 327.988,2485.7C327.352,2486.62 326.15,2486.83 325.301,2486.83C323.463,2486.83 321.695,2485.77 321.695,2484.57C321.695,2484.07 321.978,2483.65 322.261,2483.29C323.887,2481.45 325.655,2479.33 326.716,2477.85C329.402,2473.75 332.796,2468.94 336.19,2464.06C329.544,2454.16 326.433,2449.57 324.382,2447.52C324.099,2447.16 323.817,2446.74 323.817,2446.17C323.817,2445.11 325.938,2443.77 327.635,2443.77C328.695,2443.77 329.544,2444.26 329.827,2444.83C330.039,2445.39 330.392,2446.03 339.443,2459.82L346.938,2449.28Z" style="fill-rule:nonzero;"/>
        </g>
    </g>
</svg>
