<?xml version="1.0" encoding="UTF-8" standalone="no"?>
<!DOCTYPE svg PUBLIC "-//W3C//DTD SVG 1.1//EN" "http://www.w3.org/Graphics/SVG/1.1/DTD/svg11.dtd">
<svg width="100%" height="100%" viewBox="0 0 89 89" version="1.1" xmlns="http://www.w3.org/2000/svg" xmlns:xlink="http://www.w3.org/1999/xlink" xml:space="preserve" xmlns:serif="http://www.serif.com/" style="fill-rule:evenodd;clip-rule:evenodd;stroke-linejoin:round;stroke-miterlimit:2;">
    <g transform="matrix(1,0,0,1,-1602.51,-2642.27)">
        <g transform="matrix(1.41414,0,0,1.41429,-1052.39,-837.704)">
            <path d="M1934.24,2522.95C1937.63,2522.95 1939.75,2520.41 1939.75,2517.44L1939.75,2466.11C1939.75,2462.64 1937.28,2460.59 1934.24,2460.59L1882.9,2460.59C1879.44,2460.59 1877.39,2462.92 1877.39,2466.11L1877.39,2517.44C1877.39,2520.62 1879.86,2522.95 1882.9,2522.95L1934.24,2522.95ZM1916.13,2475.86C1917.27,2474.31 1918.12,2473.11 1919.11,2471.55C1919.6,2470.77 1920.52,2470.7 1920.87,2470.7C1922.08,2470.7 1924.62,2471.69 1924.62,2473.53C1924.62,2473.95 1924.48,2474.45 1924.12,2474.8C1922.99,2475.86 1920.73,2478.34 1911.82,2491.07C1921.15,2504.85 1921.58,2505.35 1925.75,2509.52C1926.03,2509.8 1926.32,2510.23 1926.32,2510.72C1926.32,2511.85 1924.27,2513.34 1922.43,2513.34C1920.87,2513.34 1920.66,2513.2 1916.77,2507.47C1914.15,2503.72 1911.26,2499.62 1908.57,2495.45C1901.36,2505.7 1897.68,2511.5 1897.19,2512.28C1896.55,2513.2 1895.35,2513.41 1894.5,2513.41C1892.66,2513.41 1890.89,2512.35 1890.89,2511.15C1890.89,2510.65 1891.18,2510.23 1891.46,2509.87C1893.09,2508.03 1894.85,2505.91 1895.91,2504.43C1898.6,2500.33 1901.99,2495.52 1905.39,2490.64C1898.74,2480.74 1895.63,2476.15 1893.58,2474.1C1893.3,2473.74 1893.01,2473.32 1893.01,2472.75C1893.01,2471.69 1895.13,2470.35 1896.83,2470.35C1897.89,2470.35 1898.74,2470.84 1899.02,2471.41C1899.24,2471.97 1899.59,2472.61 1908.64,2486.4L1916.13,2475.86Z" style="fill-rule:nonzero;"/>
        </g>
    </g>
</svg>
