<?xml version="1.0" encoding="UTF-8" standalone="no"?>
<!DOCTYPE svg PUBLIC "-//W3C//DTD SVG 1.1//EN" "http://www.w3.org/Graphics/SVG/1.1/DTD/svg11.dtd">
<svg width="100%" height="100%" viewBox="0 0 96 96" version="1.1" xmlns="http://www.w3.org/2000/svg" xmlns:xlink="http://www.w3.org/1999/xlink" xml:space="preserve" xmlns:serif="http://www.serif.com/" style="fill-rule:evenodd;clip-rule:evenodd;stroke-linejoin:round;stroke-miterlimit:2;">
    <g transform="matrix(1,0,0,1,-609.628,-4073.28)">
        <g transform="matrix(1,0,0,1,-110.019,-3591.86)">
            <path d="M815.248,7712.94C815.248,7686.55 793.848,7665.15 767.448,7665.15C741.048,7665.15 719.648,7686.55 719.648,7712.94C719.648,7739.35 741.048,7760.65 767.448,7760.65C793.848,7760.65 815.248,7739.35 815.248,7712.94ZM778.148,7690.35C779.748,7688.15 780.948,7686.44 782.348,7684.24C783.048,7683.15 784.348,7683.05 784.848,7683.05C786.548,7683.05 790.148,7684.44 790.148,7687.05C790.148,7687.65 789.948,7688.35 789.448,7688.85C787.848,7690.35 784.648,7693.85 772.048,7711.85C785.248,7731.35 785.848,7732.05 791.748,7737.94C792.148,7738.35 792.548,7738.94 792.548,7739.65C792.548,7741.24 789.648,7743.35 787.048,7743.35C784.848,7743.35 784.548,7743.15 779.048,7735.05C775.348,7729.74 771.248,7723.94 767.448,7718.05C757.248,7732.55 752.048,7740.74 751.348,7741.85C750.448,7743.15 748.748,7743.44 747.548,7743.44C744.948,7743.44 742.448,7741.94 742.448,7740.24C742.448,7739.55 742.848,7738.94 743.248,7738.44C745.548,7735.85 748.048,7732.85 749.548,7730.74C753.348,7724.94 758.148,7718.15 762.948,7711.24C753.548,7697.24 749.148,7690.74 746.248,7687.85C745.848,7687.35 745.448,7686.74 745.448,7685.94C745.448,7684.44 748.448,7682.55 750.848,7682.55C752.348,7682.55 753.548,7683.24 753.948,7684.05C754.248,7684.85 754.748,7685.74 767.548,7705.24L778.148,7690.35Z" style="fill-rule:nonzero;"/>
        </g>
    </g>
</svg>
