<?xml version="1.0" encoding="UTF-8" standalone="no"?>
<!DOCTYPE svg PUBLIC "-//W3C//DTD SVG 1.1//EN" "http://www.w3.org/Graphics/SVG/1.1/DTD/svg11.dtd">
<svg width="100%" height="100%" viewBox="0 0 98 90" version="1.1" xmlns="http://www.w3.org/2000/svg" xmlns:xlink="http://www.w3.org/1999/xlink" xml:space="preserve" xmlns:serif="http://www.serif.com/" style="fill-rule:evenodd;clip-rule:evenodd;stroke-linejoin:round;stroke-miterlimit:2;">
    <g transform="matrix(1,0,0,1,-5437.42,-2585.56)">
        <g transform="matrix(1,0,0,1,1,0)">
            <path d="M5515.11,2674.76C5517.41,2674.76 5534.11,2657.26 5534.11,2630.16C5534.11,2602.96 5517.41,2585.56 5515.11,2585.56C5514.41,2585.56 5513.91,2586.06 5513.91,2586.76C5513.91,2587.16 5514.01,2587.66 5514.41,2588.06C5524.21,2599.76 5528.81,2615.96 5528.81,2630.16C5528.81,2644.36 5524.21,2660.56 5514.41,2672.26C5514.01,2672.66 5513.91,2673.16 5513.91,2673.56C5513.91,2674.26 5514.41,2674.76 5515.11,2674.76ZM5456.61,2673.56C5456.61,2673.16 5456.52,2672.66 5456.11,2672.26C5446.32,2660.56 5441.72,2644.36 5441.72,2630.16C5441.72,2615.96 5446.32,2599.76 5456.11,2588.06C5456.52,2587.66 5456.61,2587.16 5456.61,2586.76C5456.61,2586.06 5456.11,2585.56 5455.41,2585.56C5453.12,2585.56 5436.42,2602.96 5436.42,2630.16C5436.42,2657.26 5453.12,2674.76 5455.41,2674.76C5456.11,2674.76 5456.61,2674.26 5456.61,2673.56ZM5485.31,2632.56C5487.81,2636.46 5499.91,2654.36 5503.11,2658.36C5503.51,2658.86 5504.11,2659.06 5504.91,2659.06C5506.71,2659.06 5508.91,2657.96 5508.91,2656.86C5508.91,2656.66 5508.81,2656.46 5508.61,2656.26C5504.41,2652.26 5502.01,2649.56 5488.11,2629.06C5495.81,2618.06 5502.51,2608.66 5506.21,2604.96C5506.41,2604.76 5506.51,2604.46 5506.51,2604.26C5506.51,2603.06 5504.31,2601.76 5502.71,2601.76C5502.21,2601.76 5501.71,2601.86 5501.51,2602.26C5499.41,2605.36 5489.11,2619.76 5485.41,2625.06C5480.01,2617.06 5470.91,2602.96 5470.41,2601.86C5470.21,2601.46 5469.51,2601.26 5468.71,2601.26C5467.11,2601.26 5464.81,2602.16 5464.81,2603.16C5464.81,2603.46 5464.91,2603.66 5465.21,2603.96C5468.01,2606.76 5471.31,2611.66 5482.61,2628.46C5477.61,2635.66 5472.61,2642.76 5468.61,2648.76C5467.11,2650.96 5464.52,2654.06 5462.22,2656.66C5461.91,2656.96 5461.82,2657.26 5461.82,2657.46C5461.82,2658.56 5463.72,2659.16 5465.41,2659.16C5466.51,2659.16 5467.51,2658.86 5467.91,2658.26C5468.91,2656.66 5473.41,2649.56 5485.31,2632.56Z" style="fill-rule:nonzero;"/>
        </g>
    </g>
</svg>
