<?xml version="1.0" encoding="UTF-8" standalone="no"?>
<!DOCTYPE svg PUBLIC "-//W3C//DTD SVG 1.1//EN" "http://www.w3.org/Graphics/SVG/1.1/DTD/svg11.dtd">
<svg width="100%" height="100%" viewBox="0 0 89 89" version="1.1" xmlns="http://www.w3.org/2000/svg" xmlns:xlink="http://www.w3.org/1999/xlink" xml:space="preserve" xmlns:serif="http://www.serif.com/" style="fill-rule:evenodd;clip-rule:evenodd;stroke-linejoin:round;stroke-miterlimit:2;">
    <g transform="matrix(1,0,0,1,-2893.34,-2631.51)">
        <g transform="matrix(1.41414,0,0,1.41429,-1389.33,-1046.26)">
            <path d="M3085.31,2662.81C3088.7,2662.81 3090.83,2660.26 3090.83,2657.29L3090.83,2605.96C3090.83,2602.5 3088.35,2600.45 3085.31,2600.45L3033.98,2600.45C3030.51,2600.45 3028.46,2602.78 3028.46,2605.96L3028.46,2657.29C3028.46,2660.48 3030.94,2662.81 3033.98,2662.81L3085.31,2662.81ZM3087.93,2657.58C3087.93,2659.13 3086.87,2659.91 3085.66,2659.91L3033.62,2659.91C3032.14,2659.91 3031.36,2658.85 3031.36,2657.58L3031.36,2605.61C3031.36,2604.19 3032.28,2603.34 3033.62,2603.34L3085.66,2603.34C3087.08,2603.34 3087.93,2604.41 3087.93,2605.61L3087.93,2657.58ZM3059.64,2633.39C3061.41,2636.15 3069.97,2648.81 3072.23,2651.64C3072.51,2651.99 3072.94,2652.13 3073.5,2652.13C3074.78,2652.13 3076.33,2651.35 3076.33,2650.58C3076.33,2650.43 3076.26,2650.29 3076.12,2650.15C3073.15,2647.32 3071.45,2645.41 3061.62,2630.92C3067.07,2623.14 3071.81,2616.5 3074.42,2613.88C3074.56,2613.74 3074.63,2613.53 3074.63,2613.39C3074.63,2612.54 3073.08,2611.62 3071.95,2611.62C3071.59,2611.62 3071.24,2611.69 3071.1,2611.97C3069.61,2614.16 3062.33,2624.34 3059.71,2628.09C3055.9,2622.43 3049.46,2612.47 3049.11,2611.69C3048.97,2611.41 3048.47,2611.26 3047.91,2611.26C3046.78,2611.26 3045.15,2611.9 3045.15,2612.61C3045.15,2612.82 3045.22,2612.96 3045.43,2613.17C3047.41,2615.15 3049.74,2618.62 3057.73,2630.5C3054.2,2635.59 3050.66,2640.61 3047.84,2644.85C3046.78,2646.41 3044.94,2648.6 3043.31,2650.43C3043.1,2650.65 3043.03,2650.86 3043.03,2651C3043.03,2651.78 3044.37,2652.2 3045.57,2652.2C3046.35,2652.2 3047.06,2651.99 3047.34,2651.57C3048.05,2650.43 3051.23,2645.41 3059.64,2633.39Z" style="fill-rule:nonzero;"/>
        </g>
    </g>
</svg>
