<?xml version="1.0" encoding="UTF-8" standalone="no"?>
<!DOCTYPE svg PUBLIC "-//W3C//DTD SVG 1.1//EN" "http://www.w3.org/Graphics/SVG/1.1/DTD/svg11.dtd">
<svg width="100%" height="100%" viewBox="0 0 89 89" version="1.1" xmlns="http://www.w3.org/2000/svg" xmlns:xlink="http://www.w3.org/1999/xlink" xml:space="preserve" xmlns:serif="http://www.serif.com/" style="fill-rule:evenodd;clip-rule:evenodd;stroke-linejoin:round;stroke-miterlimit:2;">
    <g transform="matrix(1,0,0,1,-1940.22,-2088.66)">
        <g transform="matrix(1,0,0,1,-1072.97,-2735.12)">
            <path d="M3101.38,4911.99L3101.38,4823.79L3013.18,4823.79L3013.18,4911.99L3101.38,4911.99ZM3097.28,4907.89L3017.28,4907.89L3017.28,4827.89L3097.28,4827.89L3097.28,4907.89ZM3057.28,4870.39C3059.78,4874.29 3071.88,4892.19 3075.08,4896.19C3075.48,4896.69 3076.08,4896.89 3076.88,4896.89C3078.68,4896.89 3080.88,4895.79 3080.88,4894.69C3080.88,4894.49 3080.78,4894.29 3080.58,4894.09C3076.38,4890.09 3073.98,4887.39 3060.08,4866.89C3067.78,4855.89 3074.48,4846.49 3078.18,4842.79C3078.38,4842.59 3078.48,4842.29 3078.48,4842.09C3078.48,4840.89 3076.28,4839.59 3074.68,4839.59C3074.18,4839.59 3073.68,4839.69 3073.48,4840.09C3071.38,4843.19 3061.08,4857.59 3057.38,4862.89C3051.98,4854.89 3042.88,4840.79 3042.38,4839.69C3042.18,4839.29 3041.48,4839.09 3040.68,4839.09C3039.08,4839.09 3036.78,4839.99 3036.78,4840.99C3036.78,4841.29 3036.88,4841.49 3037.18,4841.79C3039.98,4844.59 3043.28,4849.49 3054.58,4866.29C3049.58,4873.49 3044.58,4880.59 3040.58,4886.59C3039.08,4888.79 3036.48,4891.89 3034.18,4894.49C3033.88,4894.79 3033.78,4895.09 3033.78,4895.29C3033.78,4896.39 3035.68,4896.99 3037.38,4896.99C3038.48,4896.99 3039.48,4896.69 3039.88,4896.09C3040.88,4894.49 3045.38,4887.39 3057.28,4870.39Z" style="fill-rule:nonzero;"/>
        </g>
    </g>
</svg>
