<?xml version="1.0" encoding="UTF-8" standalone="no"?>
<!DOCTYPE svg PUBLIC "-//W3C//DTD SVG 1.1//EN" "http://www.w3.org/Graphics/SVG/1.1/DTD/svg11.dtd">
<svg width="100%" height="100%" viewBox="0 0 59 72" version="1.1" xmlns="http://www.w3.org/2000/svg" xmlns:xlink="http://www.w3.org/1999/xlink" xml:space="preserve" xmlns:serif="http://www.serif.com/" style="fill-rule:evenodd;clip-rule:evenodd;stroke-linejoin:round;stroke-miterlimit:2;">
    <g transform="matrix(1,0,0,1,-1486.78,-5881.87)">
        <g transform="matrix(1,0,0,1,-504.034,-1124.47)">
            <path d="M2019.71,7045.04C2020.91,7046.94 2033.11,7065.34 2041.71,7076.94C2042.21,7077.54 2043.01,7077.84 2043.91,7077.84C2046.11,7077.84 2048.91,7076.44 2048.91,7075.14C2048.91,7074.84 2048.81,7074.64 2048.51,7074.34C2042.41,7068.24 2040.01,7065.74 2023.21,7040.74C2033.61,7025.94 2040.91,7015.64 2045.61,7010.94C2045.91,7010.64 2046.01,7010.34 2046.01,7010.04C2046.01,7008.64 2043.11,7007.04 2041.21,7007.04C2040.61,7007.04 2040.01,7007.24 2039.71,7007.64C2036.41,7012.54 2031.01,7020.24 2019.91,7035.84C2019.71,7035.54 2003.61,7011.54 2001.31,7007.14C2001.01,7006.54 2000.21,7006.34 1999.21,7006.34C1997.21,7006.34 1994.51,7007.44 1994.51,7008.74C1994.51,7009.04 1994.61,7009.44 1994.91,7009.74C1998.01,7012.94 1999.71,7014.94 2016.41,7040.04C2010.21,7048.84 2004.11,7057.64 1999.11,7065.04C1997.31,7067.74 1994.11,7071.64 1991.21,7074.84C1990.91,7075.14 1990.81,7075.54 1990.81,7075.84C1990.81,7077.14 1993.11,7077.94 1995.31,7077.94C1996.61,7077.94 1997.81,7077.54 1998.31,7076.84C2001.61,7071.64 2013.51,7054.14 2019.71,7045.04Z" style="fill-rule:nonzero;"/>
        </g>
    </g>
</svg>
