<?xml version="1.0" encoding="UTF-8" standalone="no"?>
<!DOCTYPE svg PUBLIC "-//W3C//DTD SVG 1.1//EN" "http://www.w3.org/Graphics/SVG/1.1/DTD/svg11.dtd">
<svg width="100%" height="100%" viewBox="0 0 82 80" version="1.1" xmlns="http://www.w3.org/2000/svg" xmlns:xlink="http://www.w3.org/1999/xlink" xml:space="preserve" xmlns:serif="http://www.serif.com/" style="fill-rule:evenodd;clip-rule:evenodd;stroke-linejoin:round;stroke-miterlimit:2;">
    <g transform="matrix(1,0,0,1,-775.28,-5274.37)">
        <g transform="matrix(1,0,0,1,-504.034,-1124.47)">
            <path d="M1330.71,6409.44C1330.71,6403.34 1325.51,6398.84 1319.81,6398.84C1313.71,6398.84 1309.01,6403.34 1309.01,6409.44C1309.01,6415.34 1313.71,6420.24 1319.81,6420.24C1325.51,6420.24 1330.71,6415.04 1330.71,6409.44ZM1360.81,6438.04C1360.81,6432.24 1356.11,6427.24 1350.01,6427.24C1344.31,6427.24 1339.11,6432.24 1339.11,6438.04C1339.11,6443.74 1344.31,6448.74 1350.01,6448.74C1356.11,6448.74 1360.81,6443.74 1360.81,6438.04ZM1290.01,6448.74C1296.01,6448.74 1300.61,6444.24 1300.61,6437.84C1300.61,6431.94 1296.01,6427.24 1290.01,6427.24C1284.21,6427.24 1279.31,6431.94 1279.31,6437.84C1279.31,6443.74 1284.21,6448.74 1290.01,6448.74ZM1357.31,6475.44C1358.01,6474.74 1358.21,6474.24 1358.21,6473.64C1358.21,6473.14 1358.01,6472.54 1357.51,6472.04L1324.11,6438.74L1357.21,6405.74C1357.71,6405.24 1358.11,6404.44 1358.11,6403.84C1358.11,6403.34 1358.01,6402.74 1357.51,6402.34L1356.41,6401.34C1355.61,6400.64 1355.21,6400.44 1354.71,6400.44C1354.11,6400.44 1353.61,6400.84 1353.11,6401.34L1319.91,6434.54L1286.71,6401.34C1286.21,6400.84 1285.71,6400.44 1285.11,6400.44C1284.61,6400.44 1284.21,6400.64 1283.41,6401.34L1282.31,6402.34C1281.81,6402.74 1281.71,6403.34 1281.71,6403.84C1281.71,6404.44 1282.11,6405.24 1282.61,6405.74L1315.71,6438.74L1282.31,6472.04C1281.81,6472.54 1281.61,6473.14 1281.61,6473.64C1281.61,6474.24 1281.81,6474.74 1282.51,6475.44L1283.11,6476.04C1283.81,6476.74 1284.31,6476.94 1284.91,6476.94C1285.41,6476.94 1285.91,6476.84 1286.51,6476.24L1319.91,6442.94L1353.31,6476.24C1353.91,6476.84 1354.41,6476.94 1354.91,6476.94C1355.51,6476.94 1356.01,6476.74 1356.71,6476.04L1357.31,6475.44ZM1319.91,6478.84C1325.61,6478.84 1330.71,6473.94 1330.71,6467.84C1330.71,6462.14 1325.61,6457.64 1319.91,6457.64C1314.21,6457.64 1309.11,6462.04 1309.11,6467.84C1309.11,6473.94 1314.21,6478.84 1319.91,6478.84Z" style="fill-rule:nonzero;"/>
        </g>
    </g>
</svg>
