<?xml version="1.0" encoding="UTF-8" standalone="no"?>
<!DOCTYPE svg PUBLIC "-//W3C//DTD SVG 1.1//EN" "http://www.w3.org/Graphics/SVG/1.1/DTD/svg11.dtd">
<svg width="100%" height="100%" viewBox="0 0 67 72" version="1.1" xmlns="http://www.w3.org/2000/svg" xmlns:xlink="http://www.w3.org/1999/xlink" xml:space="preserve" xmlns:serif="http://www.serif.com/" style="fill-rule:evenodd;clip-rule:evenodd;stroke-linejoin:round;stroke-miterlimit:2;">
    <g transform="matrix(1,0,0,1,-1579.28,-5881.87)">
        <g transform="matrix(1,0,0,1,-504.034,-1124.47)">
            <path d="M2143.71,7066.14C2143.71,7069.64 2143.51,7073.44 2143.51,7075.04C2143.51,7076.74 2146.21,7077.84 2148.11,7077.84C2149.01,7077.84 2149.81,7077.54 2149.81,7076.84C2149.81,7074.54 2149.51,7070.34 2149.51,7066.24L2149.51,7018.34C2149.51,7014.84 2149.71,7011.04 2149.71,7009.44C2149.71,7007.74 2147.11,7006.44 2145.21,7006.44C2144.21,7006.44 2143.41,7006.84 2143.41,7007.74C2143.41,7010.04 2143.71,7013.84 2143.71,7017.94L2143.71,7066.14ZM2109.01,7044.84C2113.91,7053.34 2118.61,7061.44 2122.81,7068.34C2124.71,7071.44 2126.21,7074.34 2127.51,7076.94C2127.81,7077.64 2128.51,7077.94 2129.21,7077.94C2131.11,7077.94 2133.91,7076.14 2133.91,7074.64C2133.91,7074.34 2133.81,7074.04 2133.61,7073.84C2127.81,7066.74 2120.91,7054.84 2112.11,7039.74C2124.11,7019.34 2128.21,7013.64 2130.91,7010.34C2131.11,7010.14 2131.21,7009.84 2131.21,7009.64C2131.21,7008.04 2128.31,7006.34 2126.41,7006.34C2125.71,7006.34 2125.21,7006.54 2124.91,7007.04C2122.11,7012.54 2118.21,7019.04 2108.91,7034.34C2105.21,7027.84 2101.31,7021.14 2097.31,7014.74C2095.51,7011.94 2094.01,7009.34 2092.91,7007.14C2092.61,7006.64 2091.81,7006.34 2090.91,7006.34C2088.81,7006.34 2086.11,7007.44 2086.11,7008.84C2086.11,7009.14 2086.21,7009.44 2086.51,7009.74C2091.31,7014.94 2097.61,7024.94 2105.91,7039.44C2094.41,7058.74 2089.01,7067.34 2083.61,7074.44C2083.41,7074.74 2083.31,7074.94 2083.31,7075.24C2083.31,7076.64 2085.61,7077.94 2087.51,7077.94C2089.41,7077.94 2089.51,7077.64 2094.81,7068.34C2099.41,7060.44 2104.21,7052.64 2109.01,7044.84Z" style="fill-rule:nonzero;"/>
        </g>
    </g>
</svg>
