<?xml version="1.0" encoding="UTF-8" standalone="no"?>
<!DOCTYPE svg PUBLIC "-//W3C//DTD SVG 1.1//EN" "http://www.w3.org/Graphics/SVG/1.1/DTD/svg11.dtd">
<svg width="100%" height="100%" viewBox="0 0 82 72" version="1.1" xmlns="http://www.w3.org/2000/svg" xmlns:xlink="http://www.w3.org/1999/xlink" xml:space="preserve" xmlns:serif="http://www.serif.com/" style="fill-rule:evenodd;clip-rule:evenodd;stroke-linejoin:round;stroke-miterlimit:2;">
    <g transform="matrix(1,0,0,1,-1673.28,-5881.87)">
        <g transform="matrix(1,0,0,1,-504.034,-1124.47)">
            <path d="M2183.61,7065.04C2182.01,7067.74 2180.11,7070.84 2177.51,7074.44C2177.31,7074.64 2177.31,7074.94 2177.31,7075.24C2177.31,7076.54 2179.51,7077.94 2181.41,7077.94C2182.31,7077.94 2183.21,7077.64 2183.61,7076.84C2185.81,7072.64 2194.01,7057.64 2201.51,7045.04C2203.31,7048.34 2217.31,7073.04 2219.11,7076.94C2219.41,7077.64 2220.11,7077.94 2220.81,7077.94C2222.71,7077.94 2225.41,7076.14 2225.41,7074.64C2225.41,7074.34 2225.31,7074.04 2225.11,7073.84C2223.01,7071.14 2221.01,7068.54 2219.01,7065.04C2214.91,7058.04 2210.01,7049.24 2204.61,7039.94C2217.71,7018.14 2220.21,7014.14 2223.31,7010.34C2223.51,7010.14 2223.61,7009.84 2223.61,7009.54C2223.61,7008.04 2220.91,7006.34 2219.01,7006.34C2218.41,7006.34 2217.91,7006.54 2217.61,7007.04C2216.51,7009.24 2215.81,7010.64 2201.51,7034.74C2196.61,7026.44 2186.71,7009.34 2185.51,7007.14C2185.21,7006.64 2184.51,7006.34 2183.61,7006.34C2181.71,7006.34 2179.21,7007.34 2179.21,7008.74C2179.21,7009.04 2179.31,7009.44 2179.61,7009.74C2184.41,7015.64 2188.11,7021.84 2198.51,7039.84L2183.61,7065.04ZM2252.61,7066.14C2252.61,7069.64 2252.41,7073.44 2252.41,7075.04C2252.41,7076.74 2255.11,7077.84 2257.01,7077.84C2257.91,7077.84 2258.71,7077.54 2258.71,7076.84C2258.71,7074.54 2258.41,7070.34 2258.41,7066.24L2258.41,7018.34C2258.41,7014.84 2258.61,7011.04 2258.61,7009.44C2258.61,7007.74 2256.01,7006.44 2254.11,7006.44C2253.11,7006.44 2252.31,7006.84 2252.31,7007.74C2252.31,7010.04 2252.61,7013.84 2252.61,7017.94L2252.61,7066.14ZM2233.41,7066.14C2233.41,7069.64 2233.21,7073.44 2233.21,7075.04C2233.21,7076.74 2235.91,7077.84 2237.81,7077.84C2238.71,7077.84 2239.51,7077.54 2239.51,7076.84C2239.51,7074.54 2239.21,7070.34 2239.21,7066.24L2239.21,7018.34C2239.21,7014.84 2239.41,7011.04 2239.41,7009.44C2239.41,7007.74 2236.81,7006.44 2234.91,7006.44C2233.91,7006.44 2233.11,7006.84 2233.11,7007.74C2233.11,7010.04 2233.41,7013.84 2233.41,7017.94L2233.41,7066.14Z" style="fill-rule:nonzero;"/>
        </g>
    </g>
</svg>
