<?xml version="1.0" encoding="UTF-8" standalone="no"?>
<!DOCTYPE svg PUBLIC "-//W3C//DTD SVG 1.1//EN" "http://www.w3.org/Graphics/SVG/1.1/DTD/svg11.dtd">
<svg width="100%" height="100%" viewBox="0 0 88 72" version="1.1" xmlns="http://www.w3.org/2000/svg" xmlns:xlink="http://www.w3.org/1999/xlink" xml:space="preserve" xmlns:serif="http://www.serif.com/" style="fill-rule:evenodd;clip-rule:evenodd;stroke-linejoin:round;stroke-miterlimit:2;">
    <g transform="matrix(1,0,0,1,-1771.18,-5881.87)">
        <g transform="matrix(1,0,0,1,-504.034,-1124.47)">
            <path d="M2357.11,7066.14C2357.11,7069.64 2356.91,7073.44 2356.91,7075.04C2356.91,7076.74 2359.61,7077.84 2361.51,7077.84C2362.41,7077.84 2363.21,7077.54 2363.21,7076.84C2363.21,7074.54 2362.91,7070.34 2362.91,7066.24L2362.91,7018.34C2362.91,7014.84 2363.11,7011.04 2363.11,7009.44C2363.11,7007.74 2360.51,7006.44 2358.61,7006.44C2357.61,7006.44 2356.81,7006.84 2356.81,7007.74C2356.81,7010.04 2357.11,7013.84 2357.11,7017.94L2357.11,7066.14ZM2340.31,7066.14C2340.31,7069.64 2340.11,7073.44 2340.11,7075.04C2340.11,7076.74 2342.81,7077.84 2344.71,7077.84C2345.61,7077.84 2346.41,7077.54 2346.41,7076.84C2346.41,7074.54 2346.11,7070.34 2346.11,7066.24L2346.11,7018.34C2346.11,7014.84 2346.31,7011.04 2346.31,7009.44C2346.31,7007.74 2343.71,7006.44 2341.81,7006.44C2340.81,7006.44 2340.01,7006.84 2340.01,7007.74C2340.01,7010.04 2340.31,7013.84 2340.31,7017.94L2340.31,7066.14ZM2323.61,7066.14C2323.61,7069.64 2323.41,7073.44 2323.41,7075.04C2323.41,7076.74 2326.11,7077.84 2328.01,7077.84C2328.91,7077.84 2329.71,7077.54 2329.71,7076.84C2329.71,7074.54 2329.41,7070.34 2329.41,7066.24L2329.41,7018.34C2329.41,7014.84 2329.61,7011.04 2329.61,7009.44C2329.61,7007.74 2327.01,7006.44 2325.11,7006.44C2324.11,7006.44 2323.31,7006.84 2323.31,7007.74C2323.31,7010.04 2323.61,7013.84 2323.61,7017.94L2323.61,7066.14ZM2297.21,7045.34C2302.71,7055.64 2308.91,7068.64 2312.81,7076.94C2313.11,7077.64 2313.81,7077.94 2314.61,7077.94C2316.51,7077.94 2319.01,7076.24 2319.01,7074.64C2319.01,7074.34 2318.91,7074.14 2318.71,7073.84C2316.91,7071.34 2315.11,7068.54 2313.21,7065.04C2309.61,7058.14 2304.61,7048.34 2300.11,7039.94C2311.81,7018.44 2313.81,7014.84 2316.91,7010.34C2317.11,7010.14 2317.21,7009.84 2317.21,7009.54C2317.21,7008.04 2314.51,7006.34 2312.71,7006.34C2312.11,7006.34 2311.61,7006.54 2311.31,7007.04C2307.31,7015.04 2298.61,7031.64 2297.21,7034.44C2294.81,7030.04 2287.61,7016.64 2283.21,7007.14C2282.91,7006.54 2282.21,7006.34 2281.21,7006.34C2279.51,7006.34 2277.11,7007.34 2277.11,7008.74C2277.11,7009.04 2277.21,7009.44 2277.41,7009.74C2280.51,7014.34 2281.21,7015.64 2294.31,7039.84C2278.41,7069.74 2278.11,7070.24 2275.41,7074.44C2275.21,7074.64 2275.21,7074.94 2275.21,7075.14C2275.21,7076.64 2277.51,7078.04 2279.41,7078.04C2280.31,7078.04 2281.11,7077.74 2281.51,7076.84C2284.71,7069.54 2290.61,7058.04 2297.21,7045.34Z" style="fill-rule:nonzero;"/>
        </g>
    </g>
</svg>
