<?xml version="1.0" encoding="UTF-8" standalone="no"?>
<!DOCTYPE svg PUBLIC "-//W3C//DTD SVG 1.1//EN" "http://www.w3.org/Graphics/SVG/1.1/DTD/svg11.dtd">
<svg width="100%" height="100%" viewBox="0 0 86 86" version="1.1" xmlns="http://www.w3.org/2000/svg" xmlns:xlink="http://www.w3.org/1999/xlink" xml:space="preserve" xmlns:serif="http://www.serif.com/" style="fill-rule:evenodd;clip-rule:evenodd;stroke-linejoin:round;stroke-miterlimit:2;">
    <g transform="matrix(1,0,0,1,-973.28,-5572.97)">
        <g transform="matrix(1,0,0,1,-504.034,-1124.47)">
            <path d="M1562.61,6782.74L1562.61,6697.44L1477.31,6697.44L1477.31,6782.74L1562.61,6782.74ZM1557.61,6777.74L1482.31,6777.74L1482.31,6702.44L1557.61,6702.44L1557.61,6777.74ZM1539.81,6763.24C1540.01,6763.44 1540.21,6763.54 1540.51,6763.54C1541.61,6763.54 1543.31,6761.94 1543.31,6760.84C1543.31,6760.54 1543.21,6760.34 1543.01,6760.14L1523.11,6740.14L1543.41,6719.94C1543.61,6719.74 1543.71,6719.44 1543.71,6719.14C1543.71,6718.04 1542.11,6716.44 1541.01,6716.44C1540.71,6716.44 1540.41,6716.54 1540.21,6716.74L1519.91,6736.94L1499.61,6716.64C1499.41,6716.44 1499.21,6716.34 1498.91,6716.34C1497.81,6716.34 1496.21,6717.94 1496.21,6719.14C1496.21,6719.44 1496.31,6719.64 1496.51,6719.84L1516.81,6740.14L1496.61,6760.34C1496.41,6760.54 1496.31,6760.74 1496.31,6761.04C1496.31,6762.14 1497.91,6763.74 1499.01,6763.74C1499.31,6763.74 1499.51,6763.64 1499.71,6763.44L1519.91,6743.34L1539.81,6763.24Z" style="fill-rule:nonzero;"/>
        </g>
    </g>
</svg>
