<?xml version="1.0" encoding="UTF-8" standalone="no"?>
<!DOCTYPE svg PUBLIC "-//W3C//DTD SVG 1.1//EN" "http://www.w3.org/Graphics/SVG/1.1/DTD/svg11.dtd">
<svg width="100%" height="100%" viewBox="0 0 91 73" version="1.1" xmlns="http://www.w3.org/2000/svg" xmlns:xlink="http://www.w3.org/1999/xlink" xml:space="preserve" xmlns:serif="http://www.serif.com/" style="fill-rule:evenodd;clip-rule:evenodd;stroke-linejoin:round;stroke-miterlimit:2;">
    <g transform="matrix(1,0,0,1,-1869.28,-5881.57)">
        <g transform="matrix(1,0,0,1,-504.034,-1124.47)">
            <path d="M2417.61,7066.14C2417.61,7069.64 2417.41,7073.44 2417.41,7075.04C2417.41,7076.74 2420.11,7077.84 2422.01,7077.84C2422.91,7077.84 2423.71,7077.54 2423.71,7076.84C2423.71,7074.54 2423.41,7070.34 2423.41,7066.24L2423.41,7018.34C2423.41,7014.84 2423.61,7011.04 2423.61,7009.44C2423.61,7007.74 2421.01,7006.44 2419.11,7006.44C2418.11,7006.44 2417.31,7006.84 2417.31,7007.74C2417.31,7010.04 2417.61,7013.84 2417.61,7017.94L2417.61,7066.14ZM2444.51,7069.04L2433.21,7014.14C2432.81,7012.04 2432.41,7010.54 2432.21,7008.64C2431.91,7007.24 2429.41,7006.54 2427.41,7006.54C2426.01,7006.54 2424.81,7006.94 2424.81,7007.74C2424.81,7007.84 2424.81,7007.94 2424.91,7008.14C2425.91,7010.34 2426.71,7012.54 2427.31,7015.34C2427.31,7015.34 2435.71,7052.54 2439.81,7072.14C2440.51,7075.44 2443.71,7078.34 2446.01,7078.34C2447.11,7078.34 2447.91,7077.64 2448.21,7076.14C2448.61,7073.94 2449.61,7070.64 2450.01,7068.84C2461.41,7018.94 2462.71,7014.24 2464.01,7010.94C2464.11,7010.74 2464.11,7010.44 2464.11,7010.24C2464.11,7008.14 2461.11,7006.04 2459.21,7006.04C2458.51,7006.04 2458.01,7006.34 2457.91,7007.14C2457.61,7009.84 2457.21,7012.14 2456.51,7015.24L2444.51,7069.04ZM2394.81,7045.64C2399.21,7054.34 2405.41,7067.04 2409.71,7076.94C2410.01,7077.64 2410.71,7077.94 2411.41,7077.94C2413.31,7077.94 2415.91,7076.24 2415.91,7074.64C2415.91,7074.34 2415.81,7074.14 2415.61,7073.84C2414.21,7071.84 2411.21,7067.64 2397.61,7040.04C2398.11,7039.14 2408.71,7018.24 2413.91,7010.34C2414.11,7010.14 2414.21,7009.84 2414.21,7009.54C2414.21,7008.04 2411.41,7006.34 2409.71,7006.34C2409.01,7006.34 2408.51,7006.54 2408.31,7007.04C2405.31,7013.64 2395.51,7032.84 2394.81,7034.34C2391.71,7028.04 2388.01,7020.84 2384.91,7014.74C2383.51,7012.04 2382.41,7009.54 2381.31,7007.14C2381.01,7006.54 2380.31,7006.34 2379.31,7006.34C2377.61,7006.34 2375.21,7007.34 2375.21,7008.74C2375.21,7009.04 2375.31,7009.44 2375.51,7009.74C2378.11,7013.64 2379.91,7016.34 2392.01,7039.84C2377.61,7067.74 2376.51,7069.74 2373.51,7074.44C2373.31,7074.64 2373.31,7074.94 2373.31,7075.14C2373.31,7076.64 2375.61,7078.04 2377.51,7078.04C2378.41,7078.04 2379.21,7077.74 2379.61,7076.84C2383.71,7067.54 2394.21,7046.74 2394.81,7045.64Z" style="fill-rule:nonzero;"/>
        </g>
    </g>
</svg>
