<?xml version="1.0" encoding="UTF-8" standalone="no"?>
<!DOCTYPE svg PUBLIC "-//W3C//DTD SVG 1.1//EN" "http://www.w3.org/Graphics/SVG/1.1/DTD/svg11.dtd">
<svg width="100%" height="100%" viewBox="0 0 91 73" version="1.1" xmlns="http://www.w3.org/2000/svg" xmlns:xlink="http://www.w3.org/1999/xlink" xml:space="preserve" xmlns:serif="http://www.serif.com/" style="fill-rule:evenodd;clip-rule:evenodd;stroke-linejoin:round;stroke-miterlimit:2;">
    <g transform="matrix(1,0,0,1,-1969.48,-5881.47)">
        <g transform="matrix(1,0,0,1,-504.034,-1124.47)">
            <path d="M2509.31,7067.34C2511.31,7070.84 2512.71,7074.24 2513.51,7076.04C2514.01,7077.14 2515.51,7077.54 2517.01,7077.54C2519.01,7077.54 2521.01,7076.74 2521.01,7075.54C2521.01,7075.24 2520.91,7074.94 2520.71,7074.64C2518.51,7071.54 2515.81,7067.54 2514.11,7064.44L2500.51,7040.44L2513.31,7017.64C2515.11,7014.44 2516.61,7011.94 2518.51,7009.34C2518.71,7009.14 2518.71,7008.84 2518.71,7008.64C2518.71,7007.24 2516.01,7005.94 2514.11,7005.94C2513.21,7005.94 2512.51,7006.24 2512.31,7006.84C2511.31,7009.34 2509.91,7012.24 2508.11,7015.34L2497.21,7034.74L2486.61,7015.74C2484.81,7012.64 2483.41,7009.74 2482.41,7007.24C2482.21,7006.64 2481.51,7006.34 2480.61,7006.34C2478.71,7006.34 2476.01,7007.64 2476.01,7009.04C2476.01,7009.24 2476.01,7009.54 2476.21,7009.74C2478.11,7012.34 2479.61,7014.84 2481.41,7018.04L2494.01,7040.44L2480.41,7064.74C2478.71,7067.84 2476.01,7071.84 2473.81,7074.94C2473.61,7075.24 2473.51,7075.54 2473.51,7075.84C2473.51,7077.04 2475.51,7077.84 2477.51,7077.84C2479.01,7077.84 2480.51,7077.44 2481.01,7076.34C2481.51,7075.04 2483.31,7070.94 2485.21,7067.64L2497.31,7046.14L2509.31,7067.34ZM2541.81,7069.24L2528.31,7014.04C2527.81,7012.04 2527.51,7010.44 2527.21,7008.64C2526.91,7007.34 2524.51,7006.64 2522.61,7006.64C2521.11,7006.64 2519.91,7007.04 2519.91,7007.74C2519.91,7007.94 2519.91,7008.04 2520.01,7008.24C2521.91,7011.94 2522.81,7014.94 2537.21,7072.14C2538.11,7075.84 2541.01,7078.34 2543.11,7078.34C2544.21,7078.34 2545.21,7077.64 2545.51,7076.14C2546.11,7073.34 2546.71,7071.14 2547.31,7068.84C2560.51,7019.74 2561.51,7016.14 2563.61,7010.94C2563.71,7010.74 2563.71,7010.44 2563.71,7010.24C2563.71,7008.14 2560.71,7006.04 2558.91,7006.04C2558.21,7006.04 2557.61,7006.34 2557.51,7007.14C2557.21,7009.84 2556.91,7012.14 2556.11,7015.24L2541.81,7069.24Z" style="fill-rule:nonzero;"/>
        </g>
    </g>
</svg>
