<?xml version="1.0" encoding="UTF-8" standalone="no"?>
<!DOCTYPE svg PUBLIC "-//W3C//DTD SVG 1.1//EN" "http://www.w3.org/Graphics/SVG/1.1/DTD/svg11.dtd">
<svg width="100%" height="100%" viewBox="0 0 96 96" version="1.1" xmlns="http://www.w3.org/2000/svg" xmlns:xlink="http://www.w3.org/1999/xlink" xml:space="preserve" xmlns:serif="http://www.serif.com/" style="fill-rule:evenodd;clip-rule:evenodd;stroke-linejoin:round;stroke-miterlimit:2;">
    <g transform="matrix(1,0,0,1,-309.628,-2873.28)">
        <g transform="matrix(1,0,0,1,-110.019,-3591.86)">
            <path d="M515.248,6512.94C515.248,6486.55 493.848,6465.15 467.448,6465.15C441.048,6465.15 419.648,6486.55 419.648,6512.94C419.648,6539.35 441.048,6560.65 467.448,6560.65C493.848,6560.65 515.248,6539.35 515.248,6512.94ZM511.148,6512.94C511.148,6537.05 491.548,6556.55 467.448,6556.55C443.348,6556.55 423.748,6537.05 423.748,6512.94C423.748,6488.85 443.348,6469.24 467.448,6469.24C491.548,6469.24 511.148,6488.85 511.148,6512.94ZM465.348,6532.55C465.348,6534.44 465.148,6538.44 465.148,6539.74C465.148,6541.05 467.348,6541.94 468.848,6541.94C469.648,6541.94 470.248,6541.74 470.248,6541.15C470.248,6539.35 470.048,6534.65 470.048,6532.65L470.048,6517.55C475.248,6508.15 484.648,6493.05 490.348,6486.24C490.448,6486.15 490.548,6485.94 490.548,6485.85C490.548,6484.94 488.448,6483.94 486.848,6483.94C486.048,6483.94 485.348,6484.15 485.048,6484.74C484.148,6486.35 483.248,6488.05 481.848,6490.24C476.848,6498.15 472.348,6505.35 467.648,6513.15C463.448,6505.55 458.148,6497.24 453.548,6490.05C452.648,6488.65 451.648,6486.55 450.848,6485.05C450.648,6484.74 449.948,6484.55 449.048,6484.55C447.548,6484.55 445.648,6485.05 445.648,6486.15C445.648,6486.35 445.748,6486.74 446.048,6487.05C448.548,6489.85 460.748,6508.85 465.348,6517.55L465.348,6532.55Z" style="fill-rule:nonzero;"/>
        </g>
    </g>
</svg>
