<?xml version="1.0" encoding="UTF-8" standalone="no"?>
<!DOCTYPE svg PUBLIC "-//W3C//DTD SVG 1.1//EN" "http://www.w3.org/Graphics/SVG/1.1/DTD/svg11.dtd">
<svg width="100%" height="100%" viewBox="0 0 89 89" version="1.1" xmlns="http://www.w3.org/2000/svg" xmlns:xlink="http://www.w3.org/1999/xlink" xml:space="preserve" xmlns:serif="http://www.serif.com/" style="fill-rule:evenodd;clip-rule:evenodd;stroke-linejoin:round;stroke-miterlimit:2;">
    <g transform="matrix(1,0,0,1,-1702.49,-2642.27)">
        <g transform="matrix(1.41414,0,0,1.41429,-1052.39,-837.704)">
            <path d="M2004.94,2522.95C2008.34,2522.95 2010.46,2520.41 2010.46,2517.44L2010.46,2466.11C2010.46,2462.64 2007.98,2460.59 2004.94,2460.59L1953.61,2460.59C1950.14,2460.59 1948.1,2462.92 1948.1,2466.11L1948.1,2517.44C1948.1,2520.62 1950.57,2522.95 1953.61,2522.95L2004.94,2522.95ZM1982.18,2505.77C1982.18,2507.19 1982.32,2510.51 1982.32,2511.78C1982.32,2512.77 1981.54,2513.41 1980.27,2513.41C1978.71,2513.41 1976.59,2512.14 1976.59,2510.79C1976.59,2509.87 1976.73,2507.05 1976.73,2505.7L1976.73,2495.38C1972.07,2486.61 1964.36,2475.3 1963.37,2474.24C1963.01,2473.81 1962.8,2473.32 1962.8,2472.89C1962.8,2471.69 1964.64,2470.7 1966.27,2470.7C1967.4,2470.7 1968.18,2471.2 1968.46,2471.55C1969.02,2472.61 1969.73,2474.1 1970.37,2475.09C1973.27,2479.68 1976.66,2484.91 1979.42,2489.86C1982.46,2484.91 1985.36,2480.32 1988.54,2475.23C1989.53,2473.67 1990.17,2472.54 1990.8,2471.41C1991.3,2470.42 1992.29,2470.28 1992.99,2470.28C1994.69,2470.28 1996.67,2471.76 1996.67,2472.68C1996.67,2473.11 1996.46,2473.46 1996.32,2473.67C1993.98,2476.36 1986.84,2486.89 1982.18,2495.38L1982.18,2505.77Z" style="fill-rule:nonzero;"/>
        </g>
    </g>
</svg>
