<?xml version="1.0" encoding="UTF-8" standalone="no"?>
<!DOCTYPE svg PUBLIC "-//W3C//DTD SVG 1.1//EN" "http://www.w3.org/Graphics/SVG/1.1/DTD/svg11.dtd">
<svg width="100%" height="100%" viewBox="0 0 96 96" version="1.1" xmlns="http://www.w3.org/2000/svg" xmlns:xlink="http://www.w3.org/1999/xlink" xml:space="preserve" xmlns:serif="http://www.serif.com/" style="fill-rule:evenodd;clip-rule:evenodd;stroke-linejoin:round;stroke-miterlimit:2;">
    <g transform="matrix(1,0,0,1,-709.628,-4073.28)">
        <g transform="matrix(1,0,0,1,-110.019,-3591.86)">
            <path d="M915.248,7712.94C915.248,7686.55 893.848,7665.15 867.448,7665.15C841.048,7665.15 819.648,7686.55 819.648,7712.94C819.648,7739.35 841.048,7760.65 867.448,7760.65C893.848,7760.65 915.248,7739.35 915.248,7712.94ZM871.548,7732.65C871.548,7734.65 871.748,7739.35 871.748,7741.15C871.748,7742.55 870.648,7743.44 868.848,7743.44C866.648,7743.44 863.648,7741.65 863.648,7739.74C863.648,7738.44 863.848,7734.44 863.848,7732.55L863.848,7717.94C857.248,7705.55 846.348,7689.55 844.948,7688.05C844.448,7687.44 844.148,7686.74 844.148,7686.15C844.148,7684.44 846.748,7683.05 849.048,7683.05C850.648,7683.05 851.748,7683.74 852.148,7684.24C852.948,7685.74 853.948,7687.85 854.848,7689.24C858.948,7695.74 863.748,7703.15 867.648,7710.15C871.948,7703.15 876.048,7696.65 880.548,7689.44C881.948,7687.24 882.848,7685.65 883.748,7684.05C884.448,7682.65 885.848,7682.44 886.848,7682.44C889.248,7682.44 892.048,7684.55 892.048,7685.85C892.048,7686.44 891.748,7686.94 891.548,7687.24C888.248,7691.05 878.148,7705.94 871.548,7717.94L871.548,7732.65Z" style="fill-rule:nonzero;"/>
        </g>
    </g>
</svg>
