<?xml version="1.0" encoding="UTF-8" standalone="no"?>
<!DOCTYPE svg PUBLIC "-//W3C//DTD SVG 1.1//EN" "http://www.w3.org/Graphics/SVG/1.1/DTD/svg11.dtd">
<svg width="100%" height="100%" viewBox="0 0 89 89" version="1.1" xmlns="http://www.w3.org/2000/svg" xmlns:xlink="http://www.w3.org/1999/xlink" xml:space="preserve" xmlns:serif="http://www.serif.com/" style="fill-rule:evenodd;clip-rule:evenodd;stroke-linejoin:round;stroke-miterlimit:2;">
    <g transform="matrix(1,0,0,1,-358.759,-2671.63)">
        <g transform="matrix(1.41414,0,0,1.41429,-177.055,-770.755)">
            <path d="M441.261,2496.38L441.261,2434.01L378.897,2434.01L378.897,2496.38L441.261,2496.38ZM412.978,2479.19C412.978,2480.61 413.12,2483.93 413.12,2485.2C413.12,2486.19 412.342,2486.83 411.069,2486.83C409.514,2486.83 407.392,2485.56 407.392,2484.21C407.392,2483.29 407.534,2480.47 407.534,2479.12L407.534,2468.8C402.867,2460.03 395.16,2448.72 394.17,2447.66C393.817,2447.23 393.604,2446.74 393.604,2446.31C393.604,2445.11 395.443,2444.12 397.069,2444.12C398.2,2444.12 398.978,2444.62 399.261,2444.97C399.827,2446.03 400.534,2447.52 401.17,2448.51C404.069,2453.1 407.463,2458.33 410.221,2463.28C413.261,2458.33 416.16,2453.74 419.342,2448.65C420.332,2447.09 420.968,2445.96 421.604,2444.83C422.099,2443.84 423.089,2443.7 423.796,2443.7C425.493,2443.7 427.473,2445.18 427.473,2446.1C427.473,2446.53 427.261,2446.88 427.12,2447.09C424.786,2449.78 417.645,2460.31 412.978,2468.8L412.978,2479.19Z" style="fill-rule:nonzero;"/>
        </g>
    </g>
</svg>
