<?xml version="1.0" encoding="UTF-8" standalone="no"?>
<!DOCTYPE svg PUBLIC "-//W3C//DTD SVG 1.1//EN" "http://www.w3.org/Graphics/SVG/1.1/DTD/svg11.dtd">
<svg width="100%" height="100%" viewBox="0 0 98 90" version="1.1" xmlns="http://www.w3.org/2000/svg" xmlns:xlink="http://www.w3.org/1999/xlink" xml:space="preserve" xmlns:serif="http://www.serif.com/" style="fill-rule:evenodd;clip-rule:evenodd;stroke-linejoin:round;stroke-miterlimit:2;">
    <g transform="matrix(1,0,0,1,-5537.41,-2585.56)">
        <g transform="matrix(1,0,0,1,1,0)">
            <path d="M5615.1,2674.76C5617.4,2674.76 5634.1,2657.26 5634.1,2630.16C5634.1,2602.96 5617.4,2585.56 5615.1,2585.56C5614.4,2585.56 5613.9,2586.06 5613.9,2586.76C5613.9,2587.16 5614,2587.66 5614.4,2588.06C5624.2,2599.76 5628.8,2615.96 5628.8,2630.16C5628.8,2644.36 5624.2,2660.56 5614.4,2672.26C5614,2672.66 5613.9,2673.16 5613.9,2673.56C5613.9,2674.26 5614.4,2674.76 5615.1,2674.76ZM5583.2,2649.76C5583.2,2651.66 5583,2655.66 5583,2656.96C5583,2658.26 5585.2,2659.16 5586.7,2659.16C5587.5,2659.16 5588.1,2658.96 5588.1,2658.36C5588.1,2656.56 5587.9,2651.86 5587.9,2649.86L5587.9,2634.76C5593.1,2625.36 5602.5,2610.26 5608.2,2603.46C5608.3,2603.36 5608.4,2603.16 5608.4,2603.06C5608.4,2602.16 5606.3,2601.16 5604.7,2601.16C5603.9,2601.16 5603.2,2601.36 5602.9,2601.96C5602,2603.56 5601.1,2605.26 5599.7,2607.46C5594.7,2615.36 5590.2,2622.56 5585.5,2630.36C5581.3,2622.76 5576,2614.46 5571.4,2607.26C5570.5,2605.86 5569.5,2603.76 5568.7,2602.26C5568.5,2601.96 5567.8,2601.76 5566.9,2601.76C5565.4,2601.76 5563.5,2602.26 5563.5,2603.36C5563.5,2603.56 5563.6,2603.96 5563.9,2604.26C5566.4,2607.06 5578.6,2626.06 5583.2,2634.76L5583.2,2649.76ZM5556.61,2673.56C5556.61,2673.16 5556.51,2672.66 5556.11,2672.26C5546.31,2660.56 5541.71,2644.36 5541.71,2630.16C5541.71,2615.96 5546.31,2599.76 5556.11,2588.06C5556.51,2587.66 5556.61,2587.16 5556.61,2586.76C5556.61,2586.06 5556.11,2585.56 5555.4,2585.56C5553.11,2585.56 5536.41,2602.96 5536.41,2630.16C5536.41,2657.26 5553.11,2674.76 5555.4,2674.76C5556.11,2674.76 5556.61,2674.26 5556.61,2673.56Z" style="fill-rule:nonzero;"/>
        </g>
    </g>
</svg>
