<?xml version="1.0" encoding="UTF-8" standalone="no"?>
<!DOCTYPE svg PUBLIC "-//W3C//DTD SVG 1.1//EN" "http://www.w3.org/Graphics/SVG/1.1/DTD/svg11.dtd">
<svg width="100%" height="100%" viewBox="0 0 89 89" version="1.1" xmlns="http://www.w3.org/2000/svg" xmlns:xlink="http://www.w3.org/1999/xlink" xml:space="preserve" xmlns:serif="http://www.serif.com/" style="fill-rule:evenodd;clip-rule:evenodd;stroke-linejoin:round;stroke-miterlimit:2;">
    <g transform="matrix(1,0,0,1,-2993.33,-2631.51)">
        <g transform="matrix(1.41414,0,0,1.41429,-1389.33,-1046.26)">
            <path d="M3156.02,2662.81C3159.41,2662.81 3161.53,2660.26 3161.53,2657.29L3161.53,2605.96C3161.53,2602.5 3159.06,2600.45 3156.02,2600.45L3104.68,2600.45C3101.22,2600.45 3099.17,2602.78 3099.17,2605.96L3099.17,2657.29C3099.17,2660.48 3101.64,2662.81 3104.68,2662.81L3156.02,2662.81ZM3158.63,2657.58C3158.63,2659.13 3157.57,2659.91 3156.37,2659.91L3104.33,2659.91C3102.85,2659.91 3102.07,2658.85 3102.07,2657.58L3102.07,2605.61C3102.07,2604.19 3102.99,2603.34 3104.33,2603.34L3156.37,2603.34C3157.78,2603.34 3158.63,2604.41 3158.63,2605.61L3158.63,2657.58ZM3128.87,2645.56C3128.87,2646.9 3128.72,2649.73 3128.72,2650.65C3128.72,2651.57 3130.28,2652.2 3131.34,2652.2C3131.91,2652.2 3132.33,2652.06 3132.33,2651.64C3132.33,2650.36 3132.19,2647.04 3132.19,2645.63L3132.19,2634.95C3135.87,2628.3 3142.51,2617.63 3146.54,2612.82C3146.61,2612.75 3146.68,2612.61 3146.68,2612.54C3146.68,2611.9 3145.2,2611.19 3144.07,2611.19C3143.5,2611.19 3143.01,2611.33 3142.8,2611.76C3142.16,2612.89 3141.52,2614.09 3140.53,2615.65C3137,2621.23 3133.82,2626.32 3130.49,2631.84C3127.52,2626.47 3123.78,2620.6 3120.52,2615.51C3119.89,2614.52 3119.18,2613.03 3118.61,2611.97C3118.47,2611.76 3117.98,2611.62 3117.34,2611.62C3116.28,2611.62 3114.94,2611.97 3114.94,2612.75C3114.94,2612.89 3115.01,2613.17 3115.22,2613.39C3116.99,2615.36 3125.61,2628.8 3128.87,2634.95L3128.87,2645.56Z" style="fill-rule:nonzero;"/>
        </g>
    </g>
</svg>
