<?xml version="1.0" encoding="UTF-8" standalone="no"?>
<!DOCTYPE svg PUBLIC "-//W3C//DTD SVG 1.1//EN" "http://www.w3.org/Graphics/SVG/1.1/DTD/svg11.dtd">
<svg width="100%" height="100%" viewBox="0 0 89 89" version="1.1" xmlns="http://www.w3.org/2000/svg" xmlns:xlink="http://www.w3.org/1999/xlink" xml:space="preserve" xmlns:serif="http://www.serif.com/" style="fill-rule:evenodd;clip-rule:evenodd;stroke-linejoin:round;stroke-miterlimit:2;">
    <g transform="matrix(1,0,0,1,-2040.22,-2088.66)">
        <g transform="matrix(1,0,0,1,-1072.97,-2735.12)">
            <path d="M3201.38,4911.99L3201.38,4823.79L3113.18,4823.79L3113.18,4911.99L3201.38,4911.99ZM3197.28,4907.89L3117.28,4907.89L3117.28,4827.89L3197.28,4827.89L3197.28,4907.89ZM3155.18,4887.59C3155.18,4889.49 3154.98,4893.49 3154.98,4894.79C3154.98,4896.09 3157.18,4896.99 3158.68,4896.99C3159.48,4896.99 3160.08,4896.79 3160.08,4896.19C3160.08,4894.39 3159.88,4889.69 3159.88,4887.69L3159.88,4872.59C3165.08,4863.19 3174.48,4848.09 3180.18,4841.29C3180.28,4841.19 3180.38,4840.99 3180.38,4840.89C3180.38,4839.99 3178.28,4838.99 3176.68,4838.99C3175.88,4838.99 3175.18,4839.19 3174.88,4839.79C3173.98,4841.39 3173.08,4843.09 3171.68,4845.29C3166.68,4853.19 3162.18,4860.39 3157.48,4868.19C3153.28,4860.59 3147.98,4852.29 3143.38,4845.09C3142.48,4843.69 3141.48,4841.59 3140.68,4840.09C3140.48,4839.79 3139.78,4839.59 3138.88,4839.59C3137.38,4839.59 3135.48,4840.09 3135.48,4841.19C3135.48,4841.39 3135.58,4841.79 3135.88,4842.09C3138.38,4844.89 3150.58,4863.89 3155.18,4872.59L3155.18,4887.59Z" style="fill-rule:nonzero;"/>
        </g>
    </g>
</svg>
