<?xml version="1.0" encoding="UTF-8" standalone="no"?>
<!DOCTYPE svg PUBLIC "-//W3C//DTD SVG 1.1//EN" "http://www.w3.org/Graphics/SVG/1.1/DTD/svg11.dtd">
<svg width="100%" height="100%" viewBox="0 0 51 72" version="1.1" xmlns="http://www.w3.org/2000/svg" xmlns:xlink="http://www.w3.org/1999/xlink" xml:space="preserve" xmlns:serif="http://www.serif.com/" style="fill-rule:evenodd;clip-rule:evenodd;stroke-linejoin:round;stroke-miterlimit:2;">
    <g transform="matrix(1,0,0,1,-4365.52,-1722.97)">
        <g transform="matrix(1.41414,0,0,1.41429,-1534.59,-78.5653)">
            <path d="M4205.03,1310.58C4205.59,1310.58 4205.81,1310.23 4205.81,1309.73C4205.81,1308.67 4204.74,1307.12 4203.61,1307.12C4202.55,1307.12 4199.44,1307.54 4197.74,1307.61L4192.09,1307.82L4192.09,1301.17L4197.82,1300.89L4205.03,1300.68C4205.59,1300.68 4205.81,1300.33 4205.81,1299.83C4205.81,1298.77 4204.74,1297.22 4203.61,1297.22C4202.55,1297.22 4199.37,1297.64 4197.74,1297.71L4193.43,1297.85C4202.76,1283 4204.82,1279.75 4208.14,1275.86C4208.28,1275.72 4208.28,1275.65 4208.28,1275.51C4208.28,1274.73 4206.51,1273.81 4205.1,1273.81C4204.39,1273.81 4203.82,1274.02 4203.54,1274.52C4202.69,1275.93 4201.99,1277.42 4200.78,1279.33C4196.61,1285.97 4193.93,1290.14 4190.11,1296.51C4186.43,1290.36 4183.89,1286.33 4179.71,1279.82C4178.51,1277.91 4177.81,1276.43 4176.96,1275.01C4176.67,1274.52 4176.11,1274.31 4175.4,1274.31C4173.99,1274.31 4172.22,1275.23 4172.22,1276C4172.22,1276.14 4172.22,1276.22 4172.36,1276.36C4175.26,1279.68 4175.4,1279.89 4186.93,1298.13L4183.74,1298.28C4182.47,1298.35 4181.2,1298.35 4179.86,1298.35C4178.3,1298.35 4176.82,1298.35 4175.68,1298.21L4175.54,1298.21C4175.12,1298.21 4174.91,1298.49 4174.91,1298.98C4174.91,1300.04 4176.04,1301.95 4177.24,1301.95L4177.31,1301.95C4179.22,1301.81 4181.62,1301.6 4183.82,1301.53L4188.06,1301.32L4188.06,1308.03L4183.74,1308.17C4182.47,1308.25 4181.2,1308.25 4179.86,1308.25C4178.3,1308.25 4176.82,1308.25 4175.68,1308.11L4175.54,1308.11C4175.12,1308.11 4174.91,1308.39 4174.91,1308.88C4174.91,1309.94 4176.04,1311.85 4177.24,1311.85L4177.31,1311.85L4183.82,1311.43L4188.06,1311.22L4188.06,1313.48C4188.06,1315.17 4187.92,1321.4 4187.92,1322.53C4187.92,1323.73 4189.82,1324.51 4191.17,1324.51C4191.88,1324.51 4192.37,1324.3 4192.37,1323.8C4192.37,1322.17 4192.09,1315.32 4192.09,1313.55L4192.09,1311.07L4197.82,1310.79L4205.03,1310.58Z" style="fill-rule:nonzero;"/>
        </g>
    </g>
</svg>
