<?xml version="1.0" encoding="UTF-8" standalone="no"?>
<!DOCTYPE svg PUBLIC "-//W3C//DTD SVG 1.1//EN" "http://www.w3.org/Graphics/SVG/1.1/DTD/svg11.dtd">
<svg width="100%" height="100%" viewBox="0 0 96 96" version="1.1" xmlns="http://www.w3.org/2000/svg" xmlns:xlink="http://www.w3.org/1999/xlink" xml:space="preserve" xmlns:serif="http://www.serif.com/" style="fill-rule:evenodd;clip-rule:evenodd;stroke-linejoin:round;stroke-miterlimit:2;">
    <g transform="matrix(1,0,0,1,-409.628,-2873.28)">
        <g transform="matrix(1,0,0,1,-110.019,-3591.86)">
            <path d="M615.248,6512.94C615.248,6486.55 593.848,6465.15 567.448,6465.15C541.048,6465.15 519.648,6486.55 519.648,6512.94C519.648,6539.35 541.048,6560.65 567.448,6560.65C593.848,6560.65 615.248,6539.35 615.248,6512.94ZM611.148,6512.94C611.148,6537.05 591.548,6556.55 567.448,6556.55C543.348,6556.55 523.748,6537.05 523.748,6512.94C523.748,6488.85 543.348,6469.24 567.448,6469.24C591.548,6469.24 611.148,6488.85 611.148,6512.94ZM587.648,6541.35C588.248,6541.35 588.548,6540.85 588.548,6540.24C588.548,6538.74 587.348,6536.55 585.948,6536.55L585.848,6536.55C584.248,6536.65 581.748,6536.65 579.148,6536.65C575.448,6536.55 569.848,6536.55 565.348,6536.55C560.348,6536.55 555.148,6536.65 551.248,6536.85C559.548,6523.44 572.848,6505.44 583.948,6491.85C584.848,6490.85 585.348,6489.94 586.648,6489.44C587.048,6489.24 587.248,6488.85 587.248,6488.35C587.248,6486.85 585.848,6484.44 584.348,6484.44C582.948,6484.44 580.348,6484.94 577.848,6485.05L558.248,6486.35C556.948,6486.44 555.548,6486.55 554.248,6486.55C552.448,6486.55 550.848,6486.44 549.748,6486.24L549.548,6486.24C549.148,6486.24 548.948,6486.55 548.948,6487.05C548.948,6488.44 550.548,6491.15 552.148,6491.15L552.248,6491.15C553.348,6491.05 555.748,6490.74 558.348,6490.55L580.448,6489.15C568.548,6504.35 558.548,6517.15 547.448,6534.35C547.048,6534.94 545.548,6536.35 545.248,6537.35C545.148,6537.65 545.148,6537.85 545.148,6538.15C545.148,6539.85 546.648,6541.74 547.848,6541.74C548.748,6541.74 549.648,6541.35 550.548,6541.24C555.548,6540.94 560.148,6540.85 565.848,6540.85L579.248,6540.85C582.448,6540.85 586.548,6541.24 587.548,6541.35L587.648,6541.35Z" style="fill-rule:nonzero;"/>
        </g>
    </g>
</svg>
