<?xml version="1.0" encoding="UTF-8" standalone="no"?>
<!DOCTYPE svg PUBLIC "-//W3C//DTD SVG 1.1//EN" "http://www.w3.org/Graphics/SVG/1.1/DTD/svg11.dtd">
<svg width="100%" height="100%" viewBox="0 0 89 89" version="1.1" xmlns="http://www.w3.org/2000/svg" xmlns:xlink="http://www.w3.org/1999/xlink" xml:space="preserve" xmlns:serif="http://www.serif.com/" style="fill-rule:evenodd;clip-rule:evenodd;stroke-linejoin:round;stroke-miterlimit:2;">
    <g transform="matrix(1,0,0,1,-458.749,-2671.63)">
        <g transform="matrix(1.41414,0,0,1.41429,-177.055,-770.755)">
            <path d="M511.968,2496.38L511.968,2434.01L449.604,2434.01L449.604,2496.38L511.968,2496.38ZM479.655,2486.05C478.241,2486.05 470.039,2486.05 468.554,2486.41C467.988,2486.48 467.564,2486.69 466.928,2486.69C465.231,2486.69 463.958,2484.57 463.958,2483.08C463.958,2482.8 463.958,2482.59 464.099,2482.23C464.382,2481.17 465.231,2480.61 465.726,2479.83C473.15,2468.38 479.867,2459.61 487.716,2449.64L474.423,2450.49L469.968,2450.91C467.918,2450.91 466.645,2448.15 466.645,2446.95C466.645,2446.31 466.998,2445.32 468.13,2445.32C469.19,2445.32 470.322,2445.54 471.453,2445.54C472.372,2445.54 473.291,2445.47 474.211,2445.39L488.069,2444.48C489.837,2444.33 491.746,2444.05 492.736,2444.05C494.716,2444.05 495.847,2446.6 495.847,2447.87C495.847,2448.51 495.493,2449.28 494.786,2449.64C494.291,2449.78 494.009,2450.06 493.726,2450.49L493.301,2451.05C485.948,2460.1 477.18,2471.77 471.312,2481.03C473.716,2480.96 476.544,2480.89 479.301,2480.89C482.483,2480.89 486.443,2480.89 489.059,2480.96C490.897,2480.96 492.736,2480.89 493.867,2480.89C495.847,2480.89 496.766,2483.36 496.766,2484.57C496.766,2485.27 496.342,2486.41 495.069,2486.41C493.089,2486.33 491.11,2486.05 489.13,2486.05L479.655,2486.05Z" style="fill-rule:nonzero;"/>
        </g>
    </g>
</svg>
