<?xml version="1.0" encoding="UTF-8" standalone="no"?>
<!DOCTYPE svg PUBLIC "-//W3C//DTD SVG 1.1//EN" "http://www.w3.org/Graphics/SVG/1.1/DTD/svg11.dtd">
<svg width="100%" height="100%" viewBox="0 0 89 89" version="1.1" xmlns="http://www.w3.org/2000/svg" xmlns:xlink="http://www.w3.org/1999/xlink" xml:space="preserve" xmlns:serif="http://www.serif.com/" style="fill-rule:evenodd;clip-rule:evenodd;stroke-linejoin:round;stroke-miterlimit:2;">
    <g transform="matrix(1,0,0,1,-1802.48,-2642.27)">
        <g transform="matrix(1.41414,0,0,1.41429,-1052.39,-837.704)">
            <path d="M2075.65,2522.95C2079.04,2522.95 2081.17,2520.41 2081.17,2517.44L2081.17,2466.11C2081.17,2462.64 2078.69,2460.59 2075.65,2460.59L2024.32,2460.59C2020.85,2460.59 2018.8,2462.92 2018.8,2466.11L2018.8,2517.44C2018.8,2520.62 2021.28,2522.95 2024.32,2522.95L2075.65,2522.95ZM2048.85,2512.63C2047.44,2512.63 2039.24,2512.63 2037.75,2512.98C2037.19,2513.05 2036.76,2513.27 2036.12,2513.27C2034.43,2513.27 2033.15,2511.15 2033.15,2509.66C2033.15,2509.38 2033.15,2509.17 2033.3,2508.81C2033.58,2507.75 2034.43,2507.19 2034.92,2506.41C2042.35,2494.95 2049.07,2486.19 2056.91,2476.22L2043.62,2477.07L2039.17,2477.49C2037.12,2477.49 2035.84,2474.73 2035.84,2473.53C2035.84,2472.89 2036.2,2471.9 2037.33,2471.9C2038.39,2471.9 2039.52,2472.12 2040.65,2472.12C2041.57,2472.12 2042.49,2472.05 2043.41,2471.97L2057.27,2471.05C2059.03,2470.91 2060.94,2470.63 2061.93,2470.63C2063.91,2470.63 2065.04,2473.18 2065.04,2474.45C2065.04,2475.09 2064.69,2475.86 2063.98,2476.22C2063.49,2476.36 2063.21,2476.64 2062.92,2477.07L2062.5,2477.63C2055.14,2486.68 2046.38,2498.35 2040.51,2507.61C2042.91,2507.54 2045.74,2507.47 2048.5,2507.47C2051.68,2507.47 2055.64,2507.47 2058.26,2507.54C2060.1,2507.54 2061.93,2507.47 2063.07,2507.47C2065.04,2507.47 2065.96,2509.94 2065.96,2511.15C2065.96,2511.85 2065.54,2512.98 2064.27,2512.98C2062.29,2512.91 2060.31,2512.63 2058.33,2512.63L2048.85,2512.63Z" style="fill-rule:nonzero;"/>
        </g>
    </g>
</svg>
