<?xml version="1.0" encoding="UTF-8" standalone="no"?>
<!DOCTYPE svg PUBLIC "-//W3C//DTD SVG 1.1//EN" "http://www.w3.org/Graphics/SVG/1.1/DTD/svg11.dtd">
<svg width="100%" height="100%" viewBox="0 0 96 96" version="1.1" xmlns="http://www.w3.org/2000/svg" xmlns:xlink="http://www.w3.org/1999/xlink" xml:space="preserve" xmlns:serif="http://www.serif.com/" style="fill-rule:evenodd;clip-rule:evenodd;stroke-linejoin:round;stroke-miterlimit:2;">
    <g transform="matrix(1,0,0,1,-809.628,-4073.28)">
        <g transform="matrix(1,0,0,1,-110.019,-3591.86)">
            <path d="M1015.25,7712.94C1015.25,7686.55 993.848,7665.15 967.448,7665.15C941.048,7665.15 919.648,7686.55 919.648,7712.94C919.648,7739.35 941.048,7760.65 967.448,7760.65C993.848,7760.65 1015.25,7739.35 1015.25,7712.94ZM965.848,7742.35C963.848,7742.35 952.248,7742.35 950.148,7742.85C949.348,7742.94 948.748,7743.24 947.848,7743.24C945.448,7743.24 943.648,7740.24 943.648,7738.15C943.648,7737.74 943.648,7737.44 943.848,7736.94C944.248,7735.44 945.448,7734.65 946.148,7733.55C956.648,7717.35 966.148,7704.94 977.248,7690.85L958.448,7692.05L952.148,7692.65C949.248,7692.65 947.448,7688.74 947.448,7687.05C947.448,7686.15 947.948,7684.74 949.548,7684.74C951.048,7684.74 952.648,7685.05 954.248,7685.05C955.548,7685.05 956.848,7684.94 958.148,7684.85L977.748,7683.55C980.248,7683.35 982.948,7682.94 984.348,7682.94C987.148,7682.94 988.748,7686.55 988.748,7688.35C988.748,7689.24 988.248,7690.35 987.248,7690.85C986.548,7691.05 986.148,7691.44 985.748,7692.05L985.148,7692.85C974.748,7705.65 962.348,7722.15 954.048,7735.24C957.448,7735.15 961.448,7735.05 965.348,7735.05C969.848,7735.05 975.448,7735.05 979.148,7735.15C981.748,7735.15 984.348,7735.05 985.948,7735.05C988.748,7735.05 990.048,7738.55 990.048,7740.24C990.048,7741.24 989.448,7742.85 987.648,7742.85C984.848,7742.74 982.048,7742.35 979.248,7742.35L965.848,7742.35Z" style="fill-rule:nonzero;"/>
        </g>
    </g>
</svg>
