<?xml version="1.0" encoding="UTF-8" standalone="no"?>
<!DOCTYPE svg PUBLIC "-//W3C//DTD SVG 1.1//EN" "http://www.w3.org/Graphics/SVG/1.1/DTD/svg11.dtd">
<svg width="100%" height="100%" viewBox="0 0 98 90" version="1.1" xmlns="http://www.w3.org/2000/svg" xmlns:xlink="http://www.w3.org/1999/xlink" xml:space="preserve" xmlns:serif="http://www.serif.com/" style="fill-rule:evenodd;clip-rule:evenodd;stroke-linejoin:round;stroke-miterlimit:2;">
    <g transform="matrix(1,0,0,1,-5637.4,-2585.56)">
        <g transform="matrix(1,0,0,1,1,0)">
            <path d="M5715.09,2674.76C5717.39,2674.76 5734.09,2657.26 5734.09,2630.16C5734.09,2602.96 5717.39,2585.56 5715.09,2585.56C5714.39,2585.56 5713.89,2586.06 5713.89,2586.76C5713.89,2587.16 5713.99,2587.66 5714.39,2588.06C5724.19,2599.76 5728.79,2615.96 5728.79,2630.16C5728.79,2644.36 5724.19,2660.56 5714.39,2672.26C5713.99,2672.66 5713.89,2673.16 5713.89,2673.56C5713.89,2674.26 5714.39,2674.76 5715.09,2674.76ZM5656.6,2673.56C5656.6,2673.16 5656.49,2672.66 5656.1,2672.26C5646.3,2660.56 5641.7,2644.36 5641.7,2630.16C5641.7,2615.96 5646.3,2599.76 5656.1,2588.06C5656.49,2587.66 5656.6,2587.16 5656.6,2586.76C5656.6,2586.06 5656.1,2585.56 5655.4,2585.56C5653.1,2585.56 5636.4,2602.96 5636.4,2630.16C5636.4,2657.26 5653.1,2674.76 5655.4,2674.76C5656.1,2674.76 5656.6,2674.26 5656.6,2673.56ZM5705.49,2658.56C5706.09,2658.56 5706.39,2658.06 5706.39,2657.46C5706.39,2655.96 5705.19,2653.76 5703.79,2653.76L5703.69,2653.76C5702.09,2653.86 5699.59,2653.86 5696.99,2653.86C5693.29,2653.76 5687.69,2653.76 5683.19,2653.76C5678.19,2653.76 5672.99,2653.86 5669.09,2654.06C5677.39,2640.66 5690.69,2622.66 5701.79,2609.06C5702.69,2608.06 5703.19,2607.16 5704.49,2606.66C5704.89,2606.46 5705.09,2606.06 5705.09,2605.56C5705.09,2604.06 5703.69,2601.66 5702.19,2601.66C5700.79,2601.66 5698.19,2602.16 5695.69,2602.26L5676.09,2603.56C5674.79,2603.66 5673.39,2603.76 5672.09,2603.76C5670.29,2603.76 5668.69,2603.66 5667.59,2603.46L5667.39,2603.46C5666.99,2603.46 5666.79,2603.76 5666.79,2604.26C5666.79,2605.66 5668.39,2608.36 5669.99,2608.36L5670.09,2608.36C5671.19,2608.26 5673.59,2607.96 5676.19,2607.76L5698.29,2606.36C5686.39,2621.56 5676.39,2634.36 5665.29,2651.56C5664.89,2652.16 5663.39,2653.56 5663.09,2654.56C5662.99,2654.86 5662.99,2655.06 5662.99,2655.36C5662.99,2657.06 5664.49,2658.96 5665.69,2658.96C5666.59,2658.96 5667.49,2658.56 5668.39,2658.46C5673.39,2658.16 5677.99,2658.06 5683.69,2658.06L5697.09,2658.06C5700.29,2658.06 5704.39,2658.46 5705.39,2658.56L5705.49,2658.56Z" style="fill-rule:nonzero;"/>
        </g>
    </g>
</svg>
