<?xml version="1.0" encoding="UTF-8" standalone="no"?>
<!DOCTYPE svg PUBLIC "-//W3C//DTD SVG 1.1//EN" "http://www.w3.org/Graphics/SVG/1.1/DTD/svg11.dtd">
<svg width="100%" height="100%" viewBox="0 0 89 89" version="1.1" xmlns="http://www.w3.org/2000/svg" xmlns:xlink="http://www.w3.org/1999/xlink" xml:space="preserve" xmlns:serif="http://www.serif.com/" style="fill-rule:evenodd;clip-rule:evenodd;stroke-linejoin:round;stroke-miterlimit:2;">
    <g transform="matrix(1,0,0,1,-2140.22,-2088.66)">
        <g transform="matrix(1,0,0,1,-1072.97,-2735.12)">
            <path d="M3301.38,4911.99L3301.38,4823.79L3213.18,4823.79L3213.18,4911.99L3301.38,4911.99ZM3297.28,4907.89L3217.28,4907.89L3217.28,4827.89L3297.28,4827.89L3297.28,4907.89ZM3277.48,4896.39C3278.08,4896.39 3278.38,4895.89 3278.38,4895.29C3278.38,4893.79 3277.18,4891.59 3275.78,4891.59L3275.68,4891.59C3274.08,4891.69 3271.58,4891.69 3268.98,4891.69C3265.28,4891.59 3259.68,4891.59 3255.18,4891.59C3250.18,4891.59 3244.98,4891.69 3241.08,4891.89C3249.38,4878.49 3262.68,4860.49 3273.78,4846.89C3274.68,4845.89 3275.18,4844.99 3276.48,4844.49C3276.88,4844.29 3277.08,4843.89 3277.08,4843.39C3277.08,4841.89 3275.68,4839.49 3274.18,4839.49C3272.78,4839.49 3270.18,4839.99 3267.68,4840.09L3248.08,4841.39C3246.78,4841.49 3245.38,4841.59 3244.08,4841.59C3242.28,4841.59 3240.68,4841.49 3239.58,4841.29L3239.38,4841.29C3238.98,4841.29 3238.78,4841.59 3238.78,4842.09C3238.78,4843.49 3240.38,4846.19 3241.98,4846.19L3242.08,4846.19C3243.18,4846.09 3245.58,4845.79 3248.18,4845.59L3270.28,4844.19C3258.38,4859.39 3248.38,4872.19 3237.28,4889.39C3236.88,4889.99 3235.38,4891.39 3235.08,4892.39C3234.98,4892.69 3234.98,4892.89 3234.98,4893.19C3234.98,4894.89 3236.48,4896.79 3237.68,4896.79C3238.58,4896.79 3239.48,4896.39 3240.38,4896.29C3245.38,4895.99 3249.98,4895.89 3255.68,4895.89L3269.08,4895.89C3272.28,4895.89 3276.38,4896.29 3277.38,4896.39L3277.48,4896.39Z" style="fill-rule:nonzero;"/>
        </g>
    </g>
</svg>
