<?xml version="1.0" encoding="UTF-8" standalone="no"?>
<!DOCTYPE svg PUBLIC "-//W3C//DTD SVG 1.1//EN" "http://www.w3.org/Graphics/SVG/1.1/DTD/svg11.dtd">
<svg width="100%" height="100%" viewBox="0 0 89 89" version="1.1" xmlns="http://www.w3.org/2000/svg" xmlns:xlink="http://www.w3.org/1999/xlink" xml:space="preserve" xmlns:serif="http://www.serif.com/" style="fill-rule:evenodd;clip-rule:evenodd;stroke-linejoin:round;stroke-miterlimit:2;">
    <g transform="matrix(1,0,0,1,-3093.32,-2631.51)">
        <g transform="matrix(1.41414,0,0,1.41429,-1389.33,-1046.26)">
            <path d="M3226.72,2662.81C3230.12,2662.81 3232.24,2660.26 3232.24,2657.29L3232.24,2605.96C3232.24,2602.5 3229.76,2600.45 3226.72,2600.45L3175.39,2600.45C3171.93,2600.45 3169.88,2602.78 3169.88,2605.96L3169.88,2657.29C3169.88,2660.48 3172.35,2662.81 3175.39,2662.81L3226.72,2662.81ZM3229.34,2657.58C3229.34,2659.13 3228.28,2659.91 3227.08,2659.91L3175.04,2659.91C3173.55,2659.91 3172.78,2658.85 3172.78,2657.58L3172.78,2605.61C3172.78,2604.19 3173.69,2603.34 3175.04,2603.34L3227.08,2603.34C3228.49,2603.34 3229.34,2604.41 3229.34,2605.61L3229.34,2657.58ZM3215.34,2651.78C3215.76,2651.78 3215.98,2651.43 3215.98,2651C3215.98,2649.94 3215.13,2648.39 3214.14,2648.39L3214.07,2648.39C3212.94,2648.45 3211.17,2648.45 3209.33,2648.45C3206.71,2648.39 3202.76,2648.39 3199.57,2648.39C3196.04,2648.39 3192.36,2648.45 3189.6,2648.6C3195.47,2639.12 3204.88,2626.39 3212.72,2616.78C3213.36,2616.07 3213.71,2615.43 3214.63,2615.08C3214.92,2614.94 3215.06,2614.66 3215.06,2614.3C3215.06,2613.24 3214.07,2611.55 3213.01,2611.55C3212.02,2611.55 3210.18,2611.9 3208.41,2611.97L3194.55,2612.89C3193.63,2612.96 3192.64,2613.03 3191.72,2613.03C3190.45,2613.03 3189.32,2612.96 3188.54,2612.82L3188.4,2612.82C3188.12,2612.82 3187.98,2613.03 3187.98,2613.39C3187.98,2614.38 3189.11,2616.28 3190.24,2616.28L3190.31,2616.28C3191.09,2616.21 3192.78,2616 3194.62,2615.86L3210.25,2614.87C3201.84,2625.62 3194.76,2634.67 3186.92,2646.83C3186.63,2647.25 3185.57,2648.24 3185.36,2648.95C3185.29,2649.16 3185.29,2649.3 3185.29,2649.52C3185.29,2650.72 3186.35,2652.06 3187.2,2652.06C3187.84,2652.06 3188.47,2651.78 3189.11,2651.71C3192.64,2651.5 3195.9,2651.43 3199.93,2651.43L3209.4,2651.43C3211.66,2651.43 3214.56,2651.71 3215.27,2651.78L3215.34,2651.78Z" style="fill-rule:nonzero;"/>
        </g>
    </g>
</svg>
