<?xml version="1.0" encoding="UTF-8" standalone="no"?>
<!DOCTYPE svg PUBLIC "-//W3C//DTD SVG 1.1//EN" "http://www.w3.org/Graphics/SVG/1.1/DTD/svg11.dtd">
<svg width="100%" height="100%" viewBox="0 0 54 71" version="1.1" xmlns="http://www.w3.org/2000/svg" xmlns:xlink="http://www.w3.org/1999/xlink" xml:space="preserve" xmlns:serif="http://www.serif.com/" style="fill-rule:evenodd;clip-rule:evenodd;stroke-linejoin:round;stroke-miterlimit:2;">
    <g transform="matrix(1,0,0,1,-4538.9,-2473.47)">
        <g transform="matrix(1.41414,0,0,1.41429,-1534.59,-78.5653)">
            <path d="M4332.09,1854.11C4332.58,1854.11 4332.72,1853.75 4332.72,1853.18C4332.72,1851.98 4331.73,1849.93 4330.53,1849.93L4330.46,1849.93C4329.05,1850 4326.86,1850 4324.59,1850C4321.34,1849.93 4316.46,1849.93 4312.57,1849.93C4308.19,1849.93 4303.59,1850 4300.2,1850.22C4307.48,1838.55 4319.08,1822.78 4328.76,1810.97C4329.54,1810.05 4329.97,1809.28 4331.1,1808.85C4331.45,1808.71 4331.66,1808.29 4331.66,1807.86C4331.66,1806.52 4330.39,1804.47 4329.12,1804.47C4327.92,1804.47 4325.65,1804.89 4323.46,1805.03L4306.35,1806.16C4305.22,1806.24 4304.09,1806.31 4303.03,1806.31C4301.4,1806.31 4299.92,1806.16 4298.93,1806.02L4298.78,1806.02C4298.43,1806.02 4298.22,1806.31 4298.22,1806.73C4298.22,1808 4299.56,1810.34 4301.05,1810.34L4301.12,1810.34C4302.04,1810.27 4304.16,1809.98 4306.42,1809.84L4325.72,1808.57C4315.33,1821.86 4306.56,1833.03 4296.88,1848.02C4296.52,1848.59 4295.25,1849.79 4294.97,1850.64C4294.9,1850.85 4294.82,1851.06 4294.82,1851.35C4294.82,1852.83 4296.17,1854.53 4297.23,1854.53C4298.08,1854.53 4298.86,1854.11 4299.63,1854.03C4303.95,1853.82 4307.98,1853.68 4313,1853.68L4324.66,1853.68C4327.49,1853.75 4331.03,1854.03 4331.95,1854.11L4332.09,1854.11Z" style="fill-rule:nonzero;"/>
        </g>
    </g>
</svg>
