<svg xmlns="http://www.w3.org/2000/svg" viewBox="0 0 59.3438 14.3789" width="99.0513" height="24.0000">
  <g fill="black" stroke="black" stroke-width="0.5">
    <path d="M98 720C98 1013 335 1241 638 1241H1266V1334H633C279 1334 0 1064 0 720C0 377 278 107 633 107H1266V200H638C334 200 98 428 98 720ZM723 691H795C875 691 926 654 926 596C926 533 876 493 796 493C722 493 671 532 666 593H568C574 480 665 407 799 407C936 407 1031 483 1031 591C1031 669 979 721 890 731V739C963 755 1007 805 1007 877C1007 971 922 1036 797 1036C668 1036 585 967 580 853H675C679 915 726 953 794 953C863 953 907 917 907 863C907 806 861 768 793 768H723Z" transform="translate(0.0000,15.6328) scale(0.011719,-0.011719)"/>
    <path d="M0 1241H1266V1334H0ZM627 407C763 407 854 494 854 624C854 741 773 824 654 824C594 824 547 800 517 758H509L523 939H807V1024H439L412 675H512C537 720 580 743 633 743C706 743 754 694 754 622C754 546 704 494 630 494C565 494 513 532 507 587H405C410 480 499 407 627 407ZM0 107H1266V200H0Z" transform="translate(14.8359,15.6328) scale(0.011719,-0.011719)"/>
    <path d="M0 1241H1266V1334H0ZM630 405C789 405 877 518 877 720C877 923 789 1036 630 1036C472 1036 384 923 384 720C384 518 472 405 630 405ZM630 490C537 490 487 570 487 720C487 871 537 951 630 951C724 951 774 871 774 720C774 570 724 490 630 490ZM0 107H1266V200H0Z" transform="translate(29.6719,15.6328) scale(0.011719,-0.011719)"/>
    <path d="M1168 720C1168 428 932 200 628 200H0V107H633C988 107 1266 377 1266 720C1266 1064 987 1334 633 1334H0V1241H628C931 1241 1168 1013 1168 720ZM248 836V833H346V836C346 905 392 953 461 953C529 953 574 915 574 857C574 812 560 773 473 692L253 489V419H686V505H396V513L543 643C649 738 677 798 677 862C677 965 591 1036 465 1036C337 1036 248 954 248 836Z" transform="translate(44.5078,15.6328) scale(0.011719,-0.011719)"/>
  </g>
</svg>
