<svg xmlns="http://www.w3.org/2000/svg" viewBox="0 0 44.5078 14.3789" width="74.2885" height="24.0000">
  <g fill="black" stroke="black" stroke-width="0.5">
    <path d="M98 720C98 1013 335 1241 638 1241H1266V1334H633C279 1334 0 1064 0 720C0 377 278 107 633 107H1266V200H638C334 200 98 428 98 720ZM564 825C564 713 647 631 760 631C804 631 851 646 874 670L881 668C877 659 866 642 854 626L690 419H803C832 452 913 556 939 597C996 685 1025 748 1025 820C1025 947 930 1036 795 1036C662 1036 564 945 564 825ZM796 950C871 950 925 898 925 829C925 760 871 707 796 707C723 707 668 760 668 829C668 898 723 950 796 950Z" transform="translate(0.0000,15.6328) scale(0.011719,-0.011719)"/>
    <path d="M0 1241H1266V1334H0ZM872 618C872 730 789 812 676 812C632 812 585 797 562 773L555 775C560 784 564 796 580 817L746 1024H633C604 991 518 877 497 846C438 760 411 695 411 623C411 496 505 407 641 407C774 407 872 498 872 618ZM640 493C566 493 511 545 511 614C511 683 566 736 640 736C713 736 768 683 768 614C768 545 713 493 640 493ZM0 107H1266V200H0Z" transform="translate(14.8359,15.6328) scale(0.011719,-0.011719)"/>
    <path d="M1168 720C1168 428 932 200 628 200H0V107H633C988 107 1266 377 1266 720C1266 1064 987 1334 633 1334H0V1241H628C931 1241 1168 1013 1168 720ZM316 420H421L692 937V1023H249V938H585V932Z" transform="translate(29.6719,15.6328) scale(0.011719,-0.011719)"/>
  </g>
</svg>
