<svg xmlns="http://www.w3.org/2000/svg" viewBox="0 0 59.3438 14.3789" width="99.0513" height="24.0000">
  <g fill="black" stroke="black" stroke-width="0.5">
    <path d="M98 720C98 1013 335 1241 638 1241H1266V1334H633C279 1334 0 1064 0 720C0 377 278 107 633 107H1266V200H638C334 200 98 428 98 720ZM723 691H795C875 691 926 654 926 596C926 533 876 493 796 493C722 493 671 532 666 593H568C574 480 665 407 799 407C936 407 1031 483 1031 591C1031 669 979 721 890 731V739C963 755 1007 805 1007 877C1007 971 922 1036 797 1036C668 1036 585 967 580 853H675C679 915 726 953 794 953C863 953 907 917 907 863C907 806 861 768 793 768H723Z" transform="translate(0.0000,15.6328) scale(0.011719,-0.011719)"/>
    <path d="M0 1241H1266V1334H0ZM479 420H584L855 937V1023H412V938H748V932ZM0 107H1266V200H0Z" transform="translate(14.8359,15.6328) scale(0.011719,-0.011719)"/>
    <path d="M0 1241H1266V1334H0ZM560 691H632C712 691 763 654 763 596C763 533 713 493 633 493C559 493 508 532 503 593H405C411 480 502 407 636 407C773 407 868 483 868 591C868 669 816 721 727 731V739C800 755 844 805 844 877C844 971 759 1036 634 1036C505 1036 422 967 417 853H512C516 915 563 953 631 953C700 953 744 917 744 863C744 806 698 768 630 768H560ZM0 107H1266V200H0Z" transform="translate(29.6719,15.6328) scale(0.011719,-0.011719)"/>
    <path d="M1168 720C1168 428 932 200 628 200H0V107H633C988 107 1266 377 1266 720C1266 1064 987 1334 633 1334H0V1241H628C931 1241 1168 1013 1168 720ZM467 405C626 405 714 518 714 720C714 923 626 1036 467 1036C309 1036 221 923 221 720C221 518 309 405 467 405ZM467 490C374 490 324 570 324 720C324 871 374 951 467 951C561 951 611 871 611 720C611 570 561 490 467 490Z" transform="translate(44.5078,15.6328) scale(0.011719,-0.011719)"/>
  </g>
</svg>
