<svg xmlns="http://www.w3.org/2000/svg" viewBox="0 0 44.5078 14.3789" width="74.2885" height="24.0000">
  <g fill="black" stroke="black" stroke-width="0.5">
    <path d="M98 720C98 1013 335 1241 638 1241H1266V1334H633C279 1334 0 1064 0 720C0 377 278 107 633 107H1266V200H638C334 200 98 428 98 720ZM723 691H795C875 691 926 654 926 596C926 533 876 493 796 493C722 493 671 532 666 593H568C574 480 665 407 799 407C936 407 1031 483 1031 591C1031 669 979 721 890 731V739C963 755 1007 805 1007 877C1007 971 922 1036 797 1036C668 1036 585 967 580 853H675C679 915 726 953 794 953C863 953 907 917 907 863C907 806 861 768 793 768H723Z" transform="translate(0.0000,15.6328) scale(0.011719,-0.011719)"/>
    <path d="M0 1241H1266V1334H0ZM411 836V833H509V836C509 905 555 953 624 953C692 953 737 915 737 857C737 812 723 773 636 692L416 489V419H849V505H559V513L706 643C812 738 840 798 840 862C840 965 754 1036 628 1036C500 1036 411 954 411 836ZM0 107H1266V200H0Z" transform="translate(14.8359,15.6328) scale(0.011719,-0.011719)"/>
    <path d="M1168 720C1168 428 932 200 628 200H0V107H633C988 107 1266 377 1266 720C1266 1064 987 1334 633 1334H0V1241H628C931 1241 1168 1013 1168 720ZM470 407C611 407 706 477 706 581C706 657 653 718 572 735V742C642 761 686 809 686 874C686 969 597 1036 470 1036C343 1036 254 969 254 874C254 810 299 761 368 742V735C287 716 235 656 235 581C235 477 330 407 470 407ZM470 772C403 772 358 810 358 865C358 920 403 957 470 957C538 957 583 920 583 865C583 810 538 772 470 772ZM470 487C394 487 343 529 343 591C343 653 394 695 470 695C546 695 597 653 597 591C597 529 546 487 470 487Z" transform="translate(29.6719,15.6328) scale(0.011719,-0.011719)"/>
  </g>
</svg>
