<svg xmlns="http://www.w3.org/2000/svg" viewBox="0 0 59.3438 14.3789" width="99.0513" height="24.0000">
  <g fill="black" stroke="black" stroke-width="0.5">
    <path d="M98 720C98 1013 335 1241 638 1241H1266V1334H633C279 1334 0 1064 0 720C0 377 278 107 633 107H1266V200H638C334 200 98 428 98 720ZM642 420H747L1018 937V1023H575V938H911V932Z" transform="translate(0.0000,15.6328) scale(0.011719,-0.011719)"/>
    <path d="M0 1241H1266V1334H0ZM401 825C401 713 484 631 597 631C641 631 688 646 711 670L718 668C714 659 703 642 691 626L527 419H640C669 452 750 556 776 597C833 685 862 748 862 820C862 947 767 1036 632 1036C499 1036 401 945 401 825ZM633 950C708 950 762 898 762 829C762 760 708 707 633 707C560 707 505 760 505 829C505 898 560 950 633 950ZM0 107H1266V200H0Z" transform="translate(14.8359,15.6328) scale(0.011719,-0.011719)"/>
    <path d="M0 1241H1266V1334H0ZM633 407C774 407 869 477 869 581C869 657 816 718 735 735V742C805 761 849 809 849 874C849 969 760 1036 633 1036C506 1036 417 969 417 874C417 810 462 761 531 742V735C450 716 398 656 398 581C398 477 493 407 633 407ZM633 772C566 772 521 810 521 865C521 920 566 957 633 957C701 957 746 920 746 865C746 810 701 772 633 772ZM633 487C557 487 506 529 506 591C506 653 557 695 633 695C709 695 760 653 760 591C760 529 709 487 633 487ZM0 107H1266V200H0Z" transform="translate(29.6719,15.6328) scale(0.011719,-0.011719)"/>
    <path d="M1168 720C1168 428 932 200 628 200H0V107H633C988 107 1266 377 1266 720C1266 1064 987 1334 633 1334H0V1241H628C931 1241 1168 1013 1168 720ZM397 691H469C549 691 600 654 600 596C600 533 550 493 470 493C396 493 345 532 340 593H242C248 480 339 407 473 407C610 407 705 483 705 591C705 669 653 721 564 731V739C637 755 681 805 681 877C681 971 596 1036 471 1036C342 1036 259 967 254 853H349C353 915 400 953 468 953C537 953 581 917 581 863C581 806 535 768 467 768H397Z" transform="translate(44.5078,15.6328) scale(0.011719,-0.011719)"/>
  </g>
</svg>
