<svg xmlns="http://www.w3.org/2000/svg" viewBox="0 0 59.3438 14.3789" width="99.0513" height="24.0000">
  <g fill="black" stroke="black" stroke-width="0.5">
    <path d="M98 720C98 1013 335 1241 638 1241H1266V1334H633C279 1334 0 1064 0 720C0 377 278 107 633 107H1266V200H638C334 200 98 428 98 720ZM793 405C952 405 1040 518 1040 720C1040 923 952 1036 793 1036C635 1036 547 923 547 720C547 518 635 405 793 405ZM793 490C700 490 650 570 650 720C650 871 700 951 793 951C887 951 937 871 937 720C937 570 887 490 793 490Z" transform="translate(0.0000,15.6328) scale(0.011719,-0.011719)"/>
    <path d="M0 1241H1266V1334H0ZM630 405C789 405 877 518 877 720C877 923 789 1036 630 1036C472 1036 384 923 384 720C384 518 472 405 630 405ZM630 490C537 490 487 570 487 720C487 871 537 951 630 951C724 951 774 871 774 720C774 570 724 490 630 490ZM0 107H1266V200H0Z" transform="translate(14.8359,15.6328) scale(0.011719,-0.011719)"/>
    <path d="M0 1241H1266V1334H0ZM401 825C401 713 484 631 597 631C641 631 688 646 711 670L718 668C714 659 703 642 691 626L527 419H640C669 452 750 556 776 597C833 685 862 748 862 820C862 947 767 1036 632 1036C499 1036 401 945 401 825ZM633 950C708 950 762 898 762 829C762 760 708 707 633 707C560 707 505 760 505 829C505 898 560 950 633 950ZM0 107H1266V200H0Z" transform="translate(29.6719,15.6328) scale(0.011719,-0.011719)"/>
    <path d="M1168 720C1168 428 932 200 628 200H0V107H633C988 107 1266 377 1266 720C1266 1064 987 1334 633 1334H0V1241H628C931 1241 1168 1013 1168 720ZM316 420H421L692 937V1023H249V938H585V932Z" transform="translate(44.5078,15.6328) scale(0.011719,-0.011719)"/>
  </g>
</svg>
