<svg xmlns="http://www.w3.org/2000/svg" viewBox="0 0 59.3438 14.3789" width="99.0513" height="24.0000">
  <g fill="black" stroke="black" stroke-width="0.5">
    <path d="M98 720C98 1013 335 1241 638 1241H1266V1334H633C279 1334 0 1064 0 720C0 377 278 107 633 107H1266V200H638C334 200 98 428 98 720ZM796 407C937 407 1032 477 1032 581C1032 657 979 718 898 735V742C968 761 1012 809 1012 874C1012 969 923 1036 796 1036C669 1036 580 969 580 874C580 810 625 761 694 742V735C613 716 561 656 561 581C561 477 656 407 796 407ZM796 772C729 772 684 810 684 865C684 920 729 957 796 957C864 957 909 920 909 865C909 810 864 772 796 772ZM796 487C720 487 669 529 669 591C669 653 720 695 796 695C872 695 923 653 923 591C923 529 872 487 796 487Z" transform="translate(0.0000,15.6328) scale(0.011719,-0.011719)"/>
    <path d="M0 1241H1266V1334H0ZM479 420H584L855 937V1023H412V938H748V932ZM0 107H1266V200H0Z" transform="translate(14.8359,15.6328) scale(0.011719,-0.011719)"/>
    <path d="M0 1241H1266V1334H0ZM401 825C401 713 484 631 597 631C641 631 688 646 711 670L718 668C714 659 703 642 691 626L527 419H640C669 452 750 556 776 597C833 685 862 748 862 820C862 947 767 1036 632 1036C499 1036 401 945 401 825ZM633 950C708 950 762 898 762 829C762 760 708 707 633 707C560 707 505 760 505 829C505 898 560 950 633 950ZM0 107H1266V200H0Z" transform="translate(29.6719,15.6328) scale(0.011719,-0.011719)"/>
    <path d="M1168 720C1168 428 932 200 628 200H0V107H633C988 107 1266 377 1266 720C1266 1064 987 1334 633 1334H0V1241H628C931 1241 1168 1013 1168 720ZM248 836V833H346V836C346 905 392 953 461 953C529 953 574 915 574 857C574 812 560 773 473 692L253 489V419H686V505H396V513L543 643C649 738 677 798 677 862C677 965 591 1036 465 1036C337 1036 248 954 248 836Z" transform="translate(44.5078,15.6328) scale(0.011719,-0.011719)"/>
  </g>
</svg>
