<svg xmlns="http://www.w3.org/2000/svg" viewBox="0 0 59.3438 14.3789" width="99.0513" height="24.0000">
  <g fill="black" stroke="black" stroke-width="0.5">
    <path d="M98 720C98 1013 335 1241 638 1241H1266V1334H633C279 1334 0 1064 0 720C0 377 278 107 633 107H1266V200H638C334 200 98 428 98 720ZM564 825C564 713 647 631 760 631C804 631 851 646 874 670L881 668C877 659 866 642 854 626L690 419H803C832 452 913 556 939 597C996 685 1025 748 1025 820C1025 947 930 1036 795 1036C662 1036 564 945 564 825ZM796 950C871 950 925 898 925 829C925 760 871 707 796 707C723 707 668 760 668 829C668 898 723 950 796 950Z" transform="translate(0.0000,15.6328) scale(0.011719,-0.011719)"/>
    <path d="M0 1241H1266V1334H0ZM411 836V833H509V836C509 905 555 953 624 953C692 953 737 915 737 857C737 812 723 773 636 692L416 489V419H849V505H559V513L706 643C812 738 840 798 840 862C840 965 754 1036 628 1036C500 1036 411 954 411 836ZM0 107H1266V200H0Z" transform="translate(14.8359,15.6328) scale(0.011719,-0.011719)"/>
    <path d="M0 1241H1266V1334H0ZM627 407C763 407 854 494 854 624C854 741 773 824 654 824C594 824 547 800 517 758H509L523 939H807V1024H439L412 675H512C537 720 580 743 633 743C706 743 754 694 754 622C754 546 704 494 630 494C565 494 513 532 507 587H405C410 480 499 407 627 407ZM0 107H1266V200H0Z" transform="translate(29.6719,15.6328) scale(0.011719,-0.011719)"/>
    <path d="M1168 720C1168 428 932 200 628 200H0V107H633C988 107 1266 377 1266 720C1266 1064 987 1334 633 1334H0V1241H628C931 1241 1168 1013 1168 720ZM470 407C611 407 706 477 706 581C706 657 653 718 572 735V742C642 761 686 809 686 874C686 969 597 1036 470 1036C343 1036 254 969 254 874C254 810 299 761 368 742V735C287 716 235 656 235 581C235 477 330 407 470 407ZM470 772C403 772 358 810 358 865C358 920 403 957 470 957C538 957 583 920 583 865C583 810 538 772 470 772ZM470 487C394 487 343 529 343 591C343 653 394 695 470 695C546 695 597 653 597 591C597 529 546 487 470 487Z" transform="translate(44.5078,15.6328) scale(0.011719,-0.011719)"/>
  </g>
</svg>
