<svg xmlns="http://www.w3.org/2000/svg" viewBox="0 0 59.3438 14.3789" width="99.0513" height="24.0000">
  <g fill="black" stroke="black" stroke-width="0.5">
    <path d="M98 720C98 1013 335 1241 638 1241H1266V1334H633C279 1334 0 1064 0 720C0 377 278 107 633 107H1266V200H638C334 200 98 428 98 720ZM1035 618C1035 730 952 812 839 812C795 812 748 797 725 773L718 775C723 784 727 796 743 817L909 1024H796C767 991 681 877 660 846C601 760 574 695 574 623C574 496 668 407 804 407C937 407 1035 498 1035 618ZM803 493C729 493 674 545 674 614C674 683 729 736 803 736C876 736 931 683 931 614C931 545 876 493 803 493Z" transform="translate(0.0000,15.6328) scale(0.011719,-0.011719)"/>
    <path d="M0 1241H1266V1334H0ZM872 618C872 730 789 812 676 812C632 812 585 797 562 773L555 775C560 784 564 796 580 817L746 1024H633C604 991 518 877 497 846C438 760 411 695 411 623C411 496 505 407 641 407C774 407 872 498 872 618ZM640 493C566 493 511 545 511 614C511 683 566 736 640 736C713 736 768 683 768 614C768 545 713 493 640 493ZM0 107H1266V200H0Z" transform="translate(14.8359,15.6328) scale(0.011719,-0.011719)"/>
    <path d="M0 1241H1266V1334H0ZM479 420H584L855 937V1023H412V938H748V932ZM0 107H1266V200H0Z" transform="translate(29.6719,15.6328) scale(0.011719,-0.011719)"/>
    <path d="M1168 720C1168 428 932 200 628 200H0V107H633C988 107 1266 377 1266 720C1266 1064 987 1334 633 1334H0V1241H628C931 1241 1168 1013 1168 720ZM467 405C626 405 714 518 714 720C714 923 626 1036 467 1036C309 1036 221 923 221 720C221 518 309 405 467 405ZM467 490C374 490 324 570 324 720C324 871 374 951 467 951C561 951 611 871 611 720C611 570 561 490 467 490Z" transform="translate(44.5078,15.6328) scale(0.011719,-0.011719)"/>
  </g>
</svg>
