<svg xmlns="http://www.w3.org/2000/svg" viewBox="0 0 59.3438 14.3789" width="99.0513" height="24.0000">
  <g fill="black" stroke="black" stroke-width="0.5">
    <path d="M98 720C98 1013 335 1241 638 1241H1266V1334H633C279 1334 0 1064 0 720C0 377 278 107 633 107H1266V200H638C334 200 98 428 98 720ZM574 836V833H672V836C672 905 718 953 787 953C855 953 900 915 900 857C900 812 886 773 799 692L579 489V419H1012V505H722V513L869 643C975 738 1003 798 1003 862C1003 965 917 1036 791 1036C663 1036 574 954 574 836Z" transform="translate(0.0000,15.6328) scale(0.011719,-0.011719)"/>
    <path d="M0 1241H1266V1334H0ZM411 836V833H509V836C509 905 555 953 624 953C692 953 737 915 737 857C737 812 723 773 636 692L416 489V419H849V505H559V513L706 643C812 738 840 798 840 862C840 965 754 1036 628 1036C500 1036 411 954 411 836ZM0 107H1266V200H0Z" transform="translate(14.8359,15.6328) scale(0.011719,-0.011719)"/>
    <path d="M0 1241H1266V1334H0ZM872 618C872 730 789 812 676 812C632 812 585 797 562 773L555 775C560 784 564 796 580 817L746 1024H633C604 991 518 877 497 846C438 760 411 695 411 623C411 496 505 407 641 407C774 407 872 498 872 618ZM640 493C566 493 511 545 511 614C511 683 566 736 640 736C713 736 768 683 768 614C768 545 713 493 640 493ZM0 107H1266V200H0Z" transform="translate(29.6719,15.6328) scale(0.011719,-0.011719)"/>
    <path d="M1168 720C1168 428 932 200 628 200H0V107H633C988 107 1266 377 1266 720C1266 1064 987 1334 633 1334H0V1241H628C931 1241 1168 1013 1168 720ZM238 825C238 713 321 631 434 631C478 631 525 646 548 670L555 668C551 659 540 642 528 626L364 419H477C506 452 587 556 613 597C670 685 699 748 699 820C699 947 604 1036 469 1036C336 1036 238 945 238 825ZM470 950C545 950 599 898 599 829C599 760 545 707 470 707C397 707 342 760 342 829C342 898 397 950 470 950Z" transform="translate(44.5078,15.6328) scale(0.011719,-0.011719)"/>
  </g>
</svg>
