<svg xmlns="http://www.w3.org/2000/svg" viewBox="0 0 59.3438 14.3789" width="99.0513" height="24.0000">
  <g fill="black" stroke="black" stroke-width="0.5">
    <path d="M98 720C98 1013 335 1241 638 1241H1266V1334H633C279 1334 0 1064 0 720C0 377 278 107 633 107H1266V200H638C334 200 98 428 98 720ZM790 407C926 407 1017 494 1017 624C1017 741 936 824 817 824C757 824 710 800 680 758H672L686 939H970V1024H602L575 675H675C700 720 743 743 796 743C869 743 917 694 917 622C917 546 867 494 793 494C728 494 676 532 670 587H568C573 480 662 407 790 407Z" transform="translate(0.0000,15.6328) scale(0.011719,-0.011719)"/>
    <path d="M0 1241H1266V1334H0ZM560 691H632C712 691 763 654 763 596C763 533 713 493 633 493C559 493 508 532 503 593H405C411 480 502 407 636 407C773 407 868 483 868 591C868 669 816 721 727 731V739C800 755 844 805 844 877C844 971 759 1036 634 1036C505 1036 422 967 417 853H512C516 915 563 953 631 953C700 953 744 917 744 863C744 806 698 768 630 768H560ZM0 107H1266V200H0Z" transform="translate(14.8359,15.6328) scale(0.011719,-0.011719)"/>
    <path d="M0 1241H1266V1334H0ZM633 407C774 407 869 477 869 581C869 657 816 718 735 735V742C805 761 849 809 849 874C849 969 760 1036 633 1036C506 1036 417 969 417 874C417 810 462 761 531 742V735C450 716 398 656 398 581C398 477 493 407 633 407ZM633 772C566 772 521 810 521 865C521 920 566 957 633 957C701 957 746 920 746 865C746 810 701 772 633 772ZM633 487C557 487 506 529 506 591C506 653 557 695 633 695C709 695 760 653 760 591C760 529 709 487 633 487ZM0 107H1266V200H0Z" transform="translate(29.6719,15.6328) scale(0.011719,-0.011719)"/>
    <path d="M1168 720C1168 428 932 200 628 200H0V107H633C988 107 1266 377 1266 720C1266 1064 987 1334 633 1334H0V1241H628C931 1241 1168 1013 1168 720ZM467 420H569V1023H467L299 911V813L459 920H467Z" transform="translate(44.5078,15.6328) scale(0.011719,-0.011719)"/>
  </g>
</svg>
