<svg xmlns="http://www.w3.org/2000/svg" viewBox="0 0 44.5078 14.3789" width="74.2885" height="24.0000">
  <g fill="black" stroke="black" stroke-width="0.5">
    <path d="M98 720C98 1013 335 1241 638 1241H1266V1334H633C279 1334 0 1064 0 720C0 377 278 107 633 107H1266V200H638C334 200 98 428 98 720ZM574 836V833H672V836C672 905 718 953 787 953C855 953 900 915 900 857C900 812 886 773 799 692L579 489V419H1012V505H722V513L869 643C975 738 1003 798 1003 862C1003 965 917 1036 791 1036C663 1036 574 954 574 836Z" transform="translate(0.0000,15.6328) scale(0.011719,-0.011719)"/>
    <path d="M0 1241H1266V1334H0ZM630 420H732V1023H630L462 911V813L622 920H630ZM0 107H1266V200H0Z" transform="translate(14.8359,15.6328) scale(0.011719,-0.011719)"/>
    <path d="M1168 720C1168 428 932 200 628 200H0V107H633C988 107 1266 377 1266 720C1266 1064 987 1334 633 1334H0V1241H628C931 1241 1168 1013 1168 720ZM709 618C709 730 626 812 513 812C469 812 422 797 399 773L392 775C397 784 401 796 417 817L583 1024H470C441 991 355 877 334 846C275 760 248 695 248 623C248 496 342 407 478 407C611 407 709 498 709 618ZM477 493C403 493 348 545 348 614C348 683 403 736 477 736C550 736 605 683 605 614C605 545 550 493 477 493Z" transform="translate(29.6719,15.6328) scale(0.011719,-0.011719)"/>
  </g>
</svg>
