<svg xmlns="http://www.w3.org/2000/svg" viewBox="0 0 59.3438 14.3789" width="99.0513" height="24.0000">
  <g fill="black" stroke="black" stroke-width="0.5">
    <path d="M98 720C98 1013 335 1241 638 1241H1266V1334H633C279 1334 0 1064 0 720C0 377 278 107 633 107H1266V200H638C334 200 98 428 98 720ZM790 407C926 407 1017 494 1017 624C1017 741 936 824 817 824C757 824 710 800 680 758H672L686 939H970V1024H602L575 675H675C700 720 743 743 796 743C869 743 917 694 917 622C917 546 867 494 793 494C728 494 676 532 670 587H568C573 480 662 407 790 407Z" transform="translate(0.0000,15.6328) scale(0.011719,-0.011719)"/>
    <path d="M0 1241H1266V1334H0ZM401 825C401 713 484 631 597 631C641 631 688 646 711 670L718 668C714 659 703 642 691 626L527 419H640C669 452 750 556 776 597C833 685 862 748 862 820C862 947 767 1036 632 1036C499 1036 401 945 401 825ZM633 950C708 950 762 898 762 829C762 760 708 707 633 707C560 707 505 760 505 829C505 898 560 950 633 950ZM0 107H1266V200H0Z" transform="translate(14.8359,15.6328) scale(0.011719,-0.011719)"/>
    <path d="M0 1241H1266V1334H0ZM479 420H584L855 937V1023H412V938H748V932ZM0 107H1266V200H0Z" transform="translate(29.6719,15.6328) scale(0.011719,-0.011719)"/>
    <path d="M1168 720C1168 428 932 200 628 200H0V107H633C988 107 1266 377 1266 720C1266 1064 987 1334 633 1334H0V1241H628C931 1241 1168 1013 1168 720ZM709 618C709 730 626 812 513 812C469 812 422 797 399 773L392 775C397 784 401 796 417 817L583 1024H470C441 991 355 877 334 846C275 760 248 695 248 623C248 496 342 407 478 407C611 407 709 498 709 618ZM477 493C403 493 348 545 348 614C348 683 403 736 477 736C550 736 605 683 605 614C605 545 550 493 477 493Z" transform="translate(44.5078,15.6328) scale(0.011719,-0.011719)"/>
  </g>
</svg>
