<svg xmlns="http://www.w3.org/2000/svg" viewBox="0 0 57.4219 14.3789" width="95.8435" height="24.0000">
  <g fill="black" stroke="black" stroke-width="0.5">
    <path d="M1266 1334H311C175 1334 82 1242 82 1109V332C82 199 175 107 311 107H1266V200H312C227 200 175 250 175 334V1107C175 1191 227 1241 312 1241H1266ZM642 420H747L1018 937V1023H575V938H911V932Z" transform="translate(-0.9609,15.6328) scale(0.011719,-0.011719)"/>
    <path d="M0 1241H1266V1334H0ZM630 405C789 405 877 518 877 720C877 923 789 1036 630 1036C472 1036 384 923 384 720C384 518 472 405 630 405ZM630 490C537 490 487 570 487 720C487 871 537 951 630 951C724 951 774 871 774 720C774 570 724 490 630 490ZM0 107H1266V200H0Z" transform="translate(13.8750,15.6328) scale(0.011719,-0.011719)"/>
    <path d="M0 1241H1266V1334H0ZM560 691H632C712 691 763 654 763 596C763 533 713 493 633 493C559 493 508 532 503 593H405C411 480 502 407 636 407C773 407 868 483 868 591C868 669 816 721 727 731V739C800 755 844 805 844 877C844 971 759 1036 634 1036C505 1036 422 967 417 853H512C516 915 563 953 631 953C700 953 744 917 744 863C744 806 698 768 630 768H560ZM0 107H1266V200H0Z" transform="translate(28.7109,15.6328) scale(0.011719,-0.011719)"/>
    <path d="M0 1334V1241H954C1039 1241 1091 1191 1091 1107V334C1091 250 1039 200 954 200H0V107H955C1091 107 1184 199 1184 332V1109C1184 1242 1091 1334 955 1334ZM464 407C600 407 691 494 691 624C691 741 610 824 491 824C431 824 384 800 354 758H346L360 939H644V1024H276L249 675H349C374 720 417 743 470 743C543 743 591 694 591 622C591 546 541 494 467 494C402 494 350 532 344 587H242C247 480 336 407 464 407Z" transform="translate(43.5469,15.6328) scale(0.011719,-0.011719)"/>
  </g>
</svg>
