<svg xmlns="http://www.w3.org/2000/svg" viewBox="0 0 57.4219 14.3789" width="95.8435" height="24.0000">
  <g fill="black" stroke="black" stroke-width="0.5">
    <path d="M1266 1334H311C175 1334 82 1242 82 1109V332C82 199 175 107 311 107H1266V200H312C227 200 175 250 175 334V1107C175 1191 227 1241 312 1241H1266ZM574 836V833H672V836C672 905 718 953 787 953C855 953 900 915 900 857C900 812 886 773 799 692L579 489V419H1012V505H722V513L869 643C975 738 1003 798 1003 862C1003 965 917 1036 791 1036C663 1036 574 954 574 836Z" transform="translate(-0.9609,15.6328) scale(0.011719,-0.011719)"/>
    <path d="M0 1241H1266V1334H0ZM411 836V833H509V836C509 905 555 953 624 953C692 953 737 915 737 857C737 812 723 773 636 692L416 489V419H849V505H559V513L706 643C812 738 840 798 840 862C840 965 754 1036 628 1036C500 1036 411 954 411 836ZM0 107H1266V200H0Z" transform="translate(13.8750,15.6328) scale(0.011719,-0.011719)"/>
    <path d="M0 1241H1266V1334H0ZM560 691H632C712 691 763 654 763 596C763 533 713 493 633 493C559 493 508 532 503 593H405C411 480 502 407 636 407C773 407 868 483 868 591C868 669 816 721 727 731V739C800 755 844 805 844 877C844 971 759 1036 634 1036C505 1036 422 967 417 853H512C516 915 563 953 631 953C700 953 744 917 744 863C744 806 698 768 630 768H560ZM0 107H1266V200H0Z" transform="translate(28.7109,15.6328) scale(0.011719,-0.011719)"/>
    <path d="M0 1334V1241H954C1039 1241 1091 1191 1091 1107V334C1091 250 1039 200 954 200H0V107H955C1091 107 1184 199 1184 332V1109C1184 1242 1091 1334 955 1334ZM536 420H635V539H729V622H633V784H539V622H361V630L556 1023H450L250 619V539H536Z" transform="translate(43.5469,15.6328) scale(0.011719,-0.011719)"/>
  </g>
</svg>
