<svg xmlns="http://www.w3.org/2000/svg" viewBox="0 0 57.4219 14.3789" width="95.8435" height="24.0000">
  <g fill="black" stroke="black" stroke-width="0.5">
    <path d="M1266 1334H311C175 1334 82 1242 82 1109V332C82 199 175 107 311 107H1266V200H312C227 200 175 250 175 334V1107C175 1191 227 1241 312 1241H1266ZM790 407C926 407 1017 494 1017 624C1017 741 936 824 817 824C757 824 710 800 680 758H672L686 939H970V1024H602L575 675H675C700 720 743 743 796 743C869 743 917 694 917 622C917 546 867 494 793 494C728 494 676 532 670 587H568C573 480 662 407 790 407Z" transform="translate(-0.9609,15.6328) scale(0.011719,-0.011719)"/>
    <path d="M0 1241H1266V1334H0ZM872 618C872 730 789 812 676 812C632 812 585 797 562 773L555 775C560 784 564 796 580 817L746 1024H633C604 991 518 877 497 846C438 760 411 695 411 623C411 496 505 407 641 407C774 407 872 498 872 618ZM640 493C566 493 511 545 511 614C511 683 566 736 640 736C713 736 768 683 768 614C768 545 713 493 640 493ZM0 107H1266V200H0Z" transform="translate(13.8750,15.6328) scale(0.011719,-0.011719)"/>
    <path d="M0 1241H1266V1334H0ZM411 836V833H509V836C509 905 555 953 624 953C692 953 737 915 737 857C737 812 723 773 636 692L416 489V419H849V505H559V513L706 643C812 738 840 798 840 862C840 965 754 1036 628 1036C500 1036 411 954 411 836ZM0 107H1266V200H0Z" transform="translate(28.7109,15.6328) scale(0.011719,-0.011719)"/>
    <path d="M0 1334V1241H954C1039 1241 1091 1191 1091 1107V334C1091 250 1039 200 954 200H0V107H955C1091 107 1184 199 1184 332V1109C1184 1242 1091 1334 955 1334ZM248 836V833H346V836C346 905 392 953 461 953C529 953 574 915 574 857C574 812 560 773 473 692L253 489V419H686V505H396V513L543 643C649 738 677 798 677 862C677 965 591 1036 465 1036C337 1036 248 954 248 836Z" transform="translate(43.5469,15.6328) scale(0.011719,-0.011719)"/>
  </g>
</svg>
