<svg xmlns="http://www.w3.org/2000/svg" viewBox="0 0 42.5859 14.3789" width="71.0807" height="24.0000">
  <g fill="black" stroke="black" stroke-width="0.5">
    <path d="M1266 1334H311C175 1334 82 1242 82 1109V332C82 199 175 107 311 107H1266V200H312C227 200 175 250 175 334V1107C175 1191 227 1241 312 1241H1266ZM796 407C937 407 1032 477 1032 581C1032 657 979 718 898 735V742C968 761 1012 809 1012 874C1012 969 923 1036 796 1036C669 1036 580 969 580 874C580 810 625 761 694 742V735C613 716 561 656 561 581C561 477 656 407 796 407ZM796 772C729 772 684 810 684 865C684 920 729 957 796 957C864 957 909 920 909 865C909 810 864 772 796 772ZM796 487C720 487 669 529 669 591C669 653 720 695 796 695C872 695 923 653 923 591C923 529 872 487 796 487Z" transform="translate(-0.9609,15.6328) scale(0.011719,-0.011719)"/>
    <path d="M0 1241H1266V1334H0ZM401 825C401 713 484 631 597 631C641 631 688 646 711 670L718 668C714 659 703 642 691 626L527 419H640C669 452 750 556 776 597C833 685 862 748 862 820C862 947 767 1036 632 1036C499 1036 401 945 401 825ZM633 950C708 950 762 898 762 829C762 760 708 707 633 707C560 707 505 760 505 829C505 898 560 950 633 950ZM0 107H1266V200H0Z" transform="translate(13.8750,15.6328) scale(0.011719,-0.011719)"/>
    <path d="M0 1334V1241H954C1039 1241 1091 1191 1091 1107V334C1091 250 1039 200 954 200H0V107H955C1091 107 1184 199 1184 332V1109C1184 1242 1091 1334 955 1334ZM709 618C709 730 626 812 513 812C469 812 422 797 399 773L392 775C397 784 401 796 417 817L583 1024H470C441 991 355 877 334 846C275 760 248 695 248 623C248 496 342 407 478 407C611 407 709 498 709 618ZM477 493C403 493 348 545 348 614C348 683 403 736 477 736C550 736 605 683 605 614C605 545 550 493 477 493Z" transform="translate(28.7109,15.6328) scale(0.011719,-0.011719)"/>
  </g>
</svg>
