<svg xmlns="http://www.w3.org/2000/svg" viewBox="0 0 42.5859 14.3789" width="71.0807" height="24.0000">
  <g fill="black" stroke="black" stroke-width="0.5">
    <path d="M1266 1334H311C175 1334 82 1242 82 1109V332C82 199 175 107 311 107H1266V200H312C227 200 175 250 175 334V1107C175 1191 227 1241 312 1241H1266ZM793 405C952 405 1040 518 1040 720C1040 923 952 1036 793 1036C635 1036 547 923 547 720C547 518 635 405 793 405ZM793 490C700 490 650 570 650 720C650 871 700 951 793 951C887 951 937 871 937 720C937 570 887 490 793 490Z" transform="translate(-0.9609,15.6328) scale(0.011719,-0.011719)"/>
    <path d="M0 1241H1266V1334H0ZM630 420H732V1023H630L462 911V813L622 920H630ZM0 107H1266V200H0Z" transform="translate(13.8750,15.6328) scale(0.011719,-0.011719)"/>
    <path d="M0 1334V1241H954C1039 1241 1091 1191 1091 1107V334C1091 250 1039 200 954 200H0V107H955C1091 107 1184 199 1184 332V1109C1184 1242 1091 1334 955 1334ZM467 405C626 405 714 518 714 720C714 923 626 1036 467 1036C309 1036 221 923 221 720C221 518 309 405 467 405ZM467 490C374 490 324 570 324 720C324 871 374 951 467 951C561 951 611 871 611 720C611 570 561 490 467 490Z" transform="translate(28.7109,15.6328) scale(0.011719,-0.011719)"/>
  </g>
</svg>
