<svg xmlns="http://www.w3.org/2000/svg" viewBox="0 0 57.4219 14.3789" width="95.8435" height="24.0000">
  <g fill="black" stroke="black" stroke-width="0.5">
    <path d="M1266 1334H311C175 1334 82 1242 82 1109V332C82 199 175 107 311 107H1266V200H312C227 200 175 250 175 334V1107C175 1191 227 1241 312 1241H1266ZM642 420H747L1018 937V1023H575V938H911V932Z" transform="translate(-0.9609,15.6328) scale(0.011719,-0.011719)"/>
    <path d="M0 1241H1266V1334H0ZM699 420H798V539H892V622H796V784H702V622H524V630L719 1023H613L413 619V539H699ZM0 107H1266V200H0Z" transform="translate(13.8750,15.6328) scale(0.011719,-0.011719)"/>
    <path d="M0 1241H1266V1334H0ZM630 405C789 405 877 518 877 720C877 923 789 1036 630 1036C472 1036 384 923 384 720C384 518 472 405 630 405ZM630 490C537 490 487 570 487 720C487 871 537 951 630 951C724 951 774 871 774 720C774 570 724 490 630 490ZM0 107H1266V200H0Z" transform="translate(28.7109,15.6328) scale(0.011719,-0.011719)"/>
    <path d="M0 1334V1241H954C1039 1241 1091 1191 1091 1107V334C1091 250 1039 200 954 200H0V107H955C1091 107 1184 199 1184 332V1109C1184 1242 1091 1334 955 1334ZM248 836V833H346V836C346 905 392 953 461 953C529 953 574 915 574 857C574 812 560 773 473 692L253 489V419H686V505H396V513L543 643C649 738 677 798 677 862C677 965 591 1036 465 1036C337 1036 248 954 248 836Z" transform="translate(43.5469,15.6328) scale(0.011719,-0.011719)"/>
  </g>
</svg>
