<svg xmlns="http://www.w3.org/2000/svg" viewBox="0 0 57.4219 14.3789" width="95.8435" height="24.0000">
  <g fill="black" stroke="black" stroke-width="0.5">
    <path d="M1266 1334H311C175 1334 82 1242 82 1109V332C82 199 175 107 311 107H1266V200H312C227 200 175 250 175 334V1107C175 1191 227 1241 312 1241H1266ZM564 825C564 713 647 631 760 631C804 631 851 646 874 670L881 668C877 659 866 642 854 626L690 419H803C832 452 913 556 939 597C996 685 1025 748 1025 820C1025 947 930 1036 795 1036C662 1036 564 945 564 825ZM796 950C871 950 925 898 925 829C925 760 871 707 796 707C723 707 668 760 668 829C668 898 723 950 796 950Z" transform="translate(-0.9609,15.6328) scale(0.011719,-0.011719)"/>
    <path d="M0 1241H1266V1334H0ZM699 420H798V539H892V622H796V784H702V622H524V630L719 1023H613L413 619V539H699ZM0 107H1266V200H0Z" transform="translate(13.8750,15.6328) scale(0.011719,-0.011719)"/>
    <path d="M0 1241H1266V1334H0ZM479 420H584L855 937V1023H412V938H748V932ZM0 107H1266V200H0Z" transform="translate(28.7109,15.6328) scale(0.011719,-0.011719)"/>
    <path d="M0 1334V1241H954C1039 1241 1091 1191 1091 1107V334C1091 250 1039 200 954 200H0V107H955C1091 107 1184 199 1184 332V1109C1184 1242 1091 1334 955 1334ZM238 825C238 713 321 631 434 631C478 631 525 646 548 670L555 668C551 659 540 642 528 626L364 419H477C506 452 587 556 613 597C670 685 699 748 699 820C699 947 604 1036 469 1036C336 1036 238 945 238 825ZM470 950C545 950 599 898 599 829C599 760 545 707 470 707C397 707 342 760 342 829C342 898 397 950 470 950Z" transform="translate(43.5469,15.6328) scale(0.011719,-0.011719)"/>
  </g>
</svg>
