<svg xmlns="http://www.w3.org/2000/svg" viewBox="0 0 57.4219 14.3789" width="95.8435" height="24.0000">
  <g fill="black" stroke="black" stroke-width="0.5">
    <path d="M1266 1334H311C175 1334 82 1242 82 1109V332C82 199 175 107 311 107H1266V200H312C227 200 175 250 175 334V1107C175 1191 227 1241 312 1241H1266ZM723 691H795C875 691 926 654 926 596C926 533 876 493 796 493C722 493 671 532 666 593H568C574 480 665 407 799 407C936 407 1031 483 1031 591C1031 669 979 721 890 731V739C963 755 1007 805 1007 877C1007 971 922 1036 797 1036C668 1036 585 967 580 853H675C679 915 726 953 794 953C863 953 907 917 907 863C907 806 861 768 793 768H723Z" transform="translate(-0.9609,15.6328) scale(0.011719,-0.011719)"/>
    <path d="M0 1241H1266V1334H0ZM872 618C872 730 789 812 676 812C632 812 585 797 562 773L555 775C560 784 564 796 580 817L746 1024H633C604 991 518 877 497 846C438 760 411 695 411 623C411 496 505 407 641 407C774 407 872 498 872 618ZM640 493C566 493 511 545 511 614C511 683 566 736 640 736C713 736 768 683 768 614C768 545 713 493 640 493ZM0 107H1266V200H0Z" transform="translate(13.8750,15.6328) scale(0.011719,-0.011719)"/>
    <path d="M0 1241H1266V1334H0ZM401 825C401 713 484 631 597 631C641 631 688 646 711 670L718 668C714 659 703 642 691 626L527 419H640C669 452 750 556 776 597C833 685 862 748 862 820C862 947 767 1036 632 1036C499 1036 401 945 401 825ZM633 950C708 950 762 898 762 829C762 760 708 707 633 707C560 707 505 760 505 829C505 898 560 950 633 950ZM0 107H1266V200H0Z" transform="translate(28.7109,15.6328) scale(0.011719,-0.011719)"/>
    <path d="M0 1334V1241H954C1039 1241 1091 1191 1091 1107V334C1091 250 1039 200 954 200H0V107H955C1091 107 1184 199 1184 332V1109C1184 1242 1091 1334 955 1334ZM467 405C626 405 714 518 714 720C714 923 626 1036 467 1036C309 1036 221 923 221 720C221 518 309 405 467 405ZM467 490C374 490 324 570 324 720C324 871 374 951 467 951C561 951 611 871 611 720C611 570 561 490 467 490Z" transform="translate(43.5469,15.6328) scale(0.011719,-0.011719)"/>
  </g>
</svg>
