<svg xmlns="http://www.w3.org/2000/svg" viewBox="0 0 57.4219 14.3789" width="95.8435" height="24.0000">
  <g fill="black" stroke="black" stroke-width="0.5">
    <path d="M1266 1334H311C175 1334 82 1242 82 1109V332C82 199 175 107 311 107H1266V200H312C227 200 175 250 175 334V1107C175 1191 227 1241 312 1241H1266ZM793 420H895V1023H793L625 911V813L785 920H793Z" transform="translate(-0.9609,15.6328) scale(0.011719,-0.011719)"/>
    <path d="M0 1241H1266V1334H0ZM411 836V833H509V836C509 905 555 953 624 953C692 953 737 915 737 857C737 812 723 773 636 692L416 489V419H849V505H559V513L706 643C812 738 840 798 840 862C840 965 754 1036 628 1036C500 1036 411 954 411 836ZM0 107H1266V200H0Z" transform="translate(13.8750,15.6328) scale(0.011719,-0.011719)"/>
    <path d="M0 1241H1266V1334H0ZM633 407C774 407 869 477 869 581C869 657 816 718 735 735V742C805 761 849 809 849 874C849 969 760 1036 633 1036C506 1036 417 969 417 874C417 810 462 761 531 742V735C450 716 398 656 398 581C398 477 493 407 633 407ZM633 772C566 772 521 810 521 865C521 920 566 957 633 957C701 957 746 920 746 865C746 810 701 772 633 772ZM633 487C557 487 506 529 506 591C506 653 557 695 633 695C709 695 760 653 760 591C760 529 709 487 633 487ZM0 107H1266V200H0Z" transform="translate(28.7109,15.6328) scale(0.011719,-0.011719)"/>
    <path d="M0 1334V1241H954C1039 1241 1091 1191 1091 1107V334C1091 250 1039 200 954 200H0V107H955C1091 107 1184 199 1184 332V1109C1184 1242 1091 1334 955 1334ZM536 420H635V539H729V622H633V784H539V622H361V630L556 1023H450L250 619V539H536Z" transform="translate(43.5469,15.6328) scale(0.011719,-0.011719)"/>
  </g>
</svg>
