<svg xmlns="http://www.w3.org/2000/svg" viewBox="0 0 57.4219 14.3789" width="95.8435" height="24.0000">
  <g fill="black" stroke="black" stroke-width="0.5">
    <path d="M1266 1334H311C175 1334 82 1242 82 1109V332C82 199 175 107 311 107H1266V200H312C227 200 175 250 175 334V1107C175 1191 227 1241 312 1241H1266ZM793 405C952 405 1040 518 1040 720C1040 923 952 1036 793 1036C635 1036 547 923 547 720C547 518 635 405 793 405ZM793 490C700 490 650 570 650 720C650 871 700 951 793 951C887 951 937 871 937 720C937 570 887 490 793 490Z" transform="translate(-0.9609,15.6328) scale(0.011719,-0.011719)"/>
    <path d="M0 1241H1266V1334H0ZM633 407C774 407 869 477 869 581C869 657 816 718 735 735V742C805 761 849 809 849 874C849 969 760 1036 633 1036C506 1036 417 969 417 874C417 810 462 761 531 742V735C450 716 398 656 398 581C398 477 493 407 633 407ZM633 772C566 772 521 810 521 865C521 920 566 957 633 957C701 957 746 920 746 865C746 810 701 772 633 772ZM633 487C557 487 506 529 506 591C506 653 557 695 633 695C709 695 760 653 760 591C760 529 709 487 633 487ZM0 107H1266V200H0Z" transform="translate(13.8750,15.6328) scale(0.011719,-0.011719)"/>
    <path d="M0 1241H1266V1334H0ZM630 405C789 405 877 518 877 720C877 923 789 1036 630 1036C472 1036 384 923 384 720C384 518 472 405 630 405ZM630 490C537 490 487 570 487 720C487 871 537 951 630 951C724 951 774 871 774 720C774 570 724 490 630 490ZM0 107H1266V200H0Z" transform="translate(28.7109,15.6328) scale(0.011719,-0.011719)"/>
    <path d="M0 1334V1241H954C1039 1241 1091 1191 1091 1107V334C1091 250 1039 200 954 200H0V107H955C1091 107 1184 199 1184 332V1109C1184 1242 1091 1334 955 1334ZM470 407C611 407 706 477 706 581C706 657 653 718 572 735V742C642 761 686 809 686 874C686 969 597 1036 470 1036C343 1036 254 969 254 874C254 810 299 761 368 742V735C287 716 235 656 235 581C235 477 330 407 470 407ZM470 772C403 772 358 810 358 865C358 920 403 957 470 957C538 957 583 920 583 865C583 810 538 772 470 772ZM470 487C394 487 343 529 343 591C343 653 394 695 470 695C546 695 597 653 597 591C597 529 546 487 470 487Z" transform="translate(43.5469,15.6328) scale(0.011719,-0.011719)"/>
  </g>
</svg>
