<svg xmlns="http://www.w3.org/2000/svg" viewBox="0 0 57.4219 14.3789" width="95.8435" height="24.0000">
  <g fill="black" stroke="black" stroke-width="0.5">
    <path d="M1266 1334H311C175 1334 82 1242 82 1109V332C82 199 175 107 311 107H1266V200H312C227 200 175 250 175 334V1107C175 1191 227 1241 312 1241H1266ZM564 825C564 713 647 631 760 631C804 631 851 646 874 670L881 668C877 659 866 642 854 626L690 419H803C832 452 913 556 939 597C996 685 1025 748 1025 820C1025 947 930 1036 795 1036C662 1036 564 945 564 825ZM796 950C871 950 925 898 925 829C925 760 871 707 796 707C723 707 668 760 668 829C668 898 723 950 796 950Z" transform="translate(-0.9609,15.6328) scale(0.011719,-0.011719)"/>
    <path d="M0 1241H1266V1334H0ZM630 405C789 405 877 518 877 720C877 923 789 1036 630 1036C472 1036 384 923 384 720C384 518 472 405 630 405ZM630 490C537 490 487 570 487 720C487 871 537 951 630 951C724 951 774 871 774 720C774 570 724 490 630 490ZM0 107H1266V200H0Z" transform="translate(13.8750,15.6328) scale(0.011719,-0.011719)"/>
    <path d="M0 1241H1266V1334H0ZM627 407C763 407 854 494 854 624C854 741 773 824 654 824C594 824 547 800 517 758H509L523 939H807V1024H439L412 675H512C537 720 580 743 633 743C706 743 754 694 754 622C754 546 704 494 630 494C565 494 513 532 507 587H405C410 480 499 407 627 407ZM0 107H1266V200H0Z" transform="translate(28.7109,15.6328) scale(0.011719,-0.011719)"/>
    <path d="M0 1334V1241H954C1039 1241 1091 1191 1091 1107V334C1091 250 1039 200 954 200H0V107H955C1091 107 1184 199 1184 332V1109C1184 1242 1091 1334 955 1334ZM709 618C709 730 626 812 513 812C469 812 422 797 399 773L392 775C397 784 401 796 417 817L583 1024H470C441 991 355 877 334 846C275 760 248 695 248 623C248 496 342 407 478 407C611 407 709 498 709 618ZM477 493C403 493 348 545 348 614C348 683 403 736 477 736C550 736 605 683 605 614C605 545 550 493 477 493Z" transform="translate(43.5469,15.6328) scale(0.011719,-0.011719)"/>
  </g>
</svg>
