<svg xmlns="http://www.w3.org/2000/svg" viewBox="0 0 42.5859 14.3789" width="71.0807" height="24.0000">
  <g fill="black" stroke="black" stroke-width="0.5">
    <path d="M1266 1334H311C175 1334 82 1242 82 1109V332C82 199 175 107 311 107H1266V200H312C227 200 175 250 175 334V1107C175 1191 227 1241 312 1241H1266ZM574 836V833H672V836C672 905 718 953 787 953C855 953 900 915 900 857C900 812 886 773 799 692L579 489V419H1012V505H722V513L869 643C975 738 1003 798 1003 862C1003 965 917 1036 791 1036C663 1036 574 954 574 836Z" transform="translate(-0.9609,15.6328) scale(0.011719,-0.011719)"/>
    <path d="M0 1241H1266V1334H0ZM479 420H584L855 937V1023H412V938H748V932ZM0 107H1266V200H0Z" transform="translate(13.8750,15.6328) scale(0.011719,-0.011719)"/>
    <path d="M0 1334V1241H954C1039 1241 1091 1191 1091 1107V334C1091 250 1039 200 954 200H0V107H955C1091 107 1184 199 1184 332V1109C1184 1242 1091 1334 955 1334ZM397 691H469C549 691 600 654 600 596C600 533 550 493 470 493C396 493 345 532 340 593H242C248 480 339 407 473 407C610 407 705 483 705 591C705 669 653 721 564 731V739C637 755 681 805 681 877C681 971 596 1036 471 1036C342 1036 259 967 254 853H349C353 915 400 953 468 953C537 953 581 917 581 863C581 806 535 768 467 768H397Z" transform="translate(28.7109,15.6328) scale(0.011719,-0.011719)"/>
  </g>
</svg>
